<svg class="main-svg" xmlns="http://www.w3.org/2000/svg" xmlns:xlink="http://www.w3.org/1999/xlink" width="1125" height="750" style="" viewBox="0 0 750 500"><rect x="0" y="0" width="750" height="500" style="fill: rgb(0, 0, 0); fill-opacity: 0;"/><defs id="defs-456a87"><g class="clips"><clipPath id="clip456a87xyplot" class="plotclip"><rect width="700" height="380"/></clipPath><clipPath class="axesclip" id="clip456a87x"><rect x="50" y="0" width="700" height="500"/></clipPath><clipPath class="axesclip" id="clip456a87y"><rect x="0" y="70" width="750" height="380"/></clipPath><clipPath class="axesclip" id="clip456a87xy"><rect x="50" y="70" width="700" height="380"/></clipPath></g><g class="gradients"/></defs><g class="bglayer"><rect class="bg" x="50" y="70" width="700" height="380" style="fill: rgb(0, 0, 0); fill-opacity: 0; stroke-width: 0;"/></g><g class="layer-below"><g class="imagelayer"/><g class="shapelayer"/></g><g class="cartesianlayer"><g class="subplot xy"><g class="layer-subplot"><g class="shapelayer"/><g class="imagelayer"/></g><g class="gridlayer"><g class="x"><path class="xgrid crisp" transform="translate(110.47,0)" d="M0,70v380" style="stroke: rgb(255, 255, 255); stroke-opacity: 1; stroke-width: 1px;"/><path class="xgrid crisp" transform="translate(222.25,0)" d="M0,70v380" style="stroke: rgb(255, 255, 255); stroke-opacity: 1; stroke-width: 1px;"/><path class="xgrid crisp" transform="translate(330.37,0)" d="M0,70v380" style="stroke: rgb(255, 255, 255); stroke-opacity: 1; stroke-width: 1px;"/><path class="xgrid crisp" transform="translate(442.15,0)" d="M0,70v380" style="stroke: rgb(255, 255, 255); stroke-opacity: 1; stroke-width: 1px;"/><path class="xgrid crisp" transform="translate(553.9300000000001,0)" d="M0,70v380" style="stroke: rgb(255, 255, 255); stroke-opacity: 1; stroke-width: 1px;"/><path class="xgrid crisp" transform="translate(667.54,0)" d="M0,70v380" style="stroke: rgb(255, 255, 255); stroke-opacity: 1; stroke-width: 1px;"/></g><g class="y"/></g><g class="zerolinelayer"/><path class="xlines-below"/><path class="ylines-below"/><g class="overlines-below"/><g class="xaxislayer-below"/><g class="yaxislayer-below"/><g class="overaxes-below"/><g class="plot" transform="translate(50, 70)" clip-path="url('#clip456a87xyplot')"><g class="scatterlayer mlayer"><g class="trace scatter tracea4b262" style="stroke-miterlimit: 2;"><g class="fills"><g><path class="js-fill" d="M668.85,380L-249.21,380L-249.21,374.45L-245.55,375.18L-243.72,375.98L-227.23,376.78L-225.39,377.43L-216.23,375.58L-214.4,375.58L-210.73,373.09L-208.9,371.16L-199.74,369.79L-197.91,372.12L-190.58,377.27L-188.74,377.19L-174.08,376.86L-172.25,376.62L-153.93,378.15L-152.09,378.15L-133.77,376.7L-131.94,375.58L-117.28,373.41L-115.45,373.73L-106.28,371.96L-104.45,371.08L-98.95,370.27L-97.12,368.99L-91.62,365.85L-89.79,363.12L-84.29,362.39L-82.46,359.58L-78.8,356.2L-76.96,355.88L-69.63,351.38L-67.8,351.78L-60.47,350.1L-58.64,348.65L-56.81,347.92L-54.97,344.31L-51.31,338.84L-49.48,337.72L-45.81,336.03L-43.98,333.94L-42.15,335.38L-40.31,333.37L-38.48,332.01L-36.65,332.81L-34.82,333.45L-32.98,331.85L-31.15,332.41L-29.32,328.23L-27.49,327.26L-25.65,324.45L-23.82,322.04L-21.99,321.8L-20.16,316.73L-18.32,314.56L-16.49,314.16L-14.66,314.88L-12.83,317.14L-10.99,316.17L-9.16,315.05L-7.33,316.17L-3.66,318.02L-1.83,311.51L0,304.84L1.83,302.18L3.66,302.91L5.5,298.81L9.16,281.52L10.99,279.11L14.66,261.27L16.49,260.78L21.99,241.41L23.82,227.66L25.65,227.34L27.49,234.66L29.32,232.97L31.15,229.35L32.98,224.69L34.82,212.07L36.65,187.87L38.48,142.85L40.31,123.4L42.15,119.94L47.64,22.67L49.48,6.43L51.31,4.5L53.14,4.02L54.97,3.05L56.81,0L60.47,16.08L62.3,35.45L64.14,60.29L65.97,73.48L67.8,77.33L69.63,89.79L71.47,105.87L73.3,157.96L78.8,198.4L80.63,201.13L84.29,240.85L86.13,230.88L87.96,257.41L89.79,272.52L91.62,276.62L93.46,277.18L95.29,295.27L97.12,305.8L98.95,309.66L100.79,310.14L102.62,315.05L104.45,313.92L106.28,314.08L108.12,317.38L109.95,318.1L111.78,321.16L113.61,322.84L115.45,321.07L119.11,319.71L120.94,317.86L124.61,313.68L126.44,307.57L128.27,306.6L130.1,307.09L131.94,304.27L133.77,300.09L135.6,298L137.43,291.41L139.27,291.73L141.1,286.67L142.93,283.85L144.76,286.51L148.43,280.48L150.26,282.17L152.09,286.19L153.93,301.86L155.76,302.1L157.59,303.39L159.42,307.17L161.26,304.92L164.92,297.36L166.75,298L170.42,297.6L172.25,288.76L174.08,289.16L175.92,286.43L177.75,285.7L179.58,268.58L181.41,268.98L183.25,268.5L185.08,271.72L186.91,269.46L188.74,273.08L190.58,270.67L192.41,270.03L194.24,267.05L196.07,266.49L197.91,264.4L199.74,262.87L201.57,258.61L203.4,253.79L205.24,246.39L208.9,244.14L210.73,240.93L212.57,238.11L214.4,237.87L216.23,237.79L218.06,239.48L219.9,239.96L221.73,238.6L223.56,234.82L225.39,237.87L229.06,243.5L230.89,246.47L232.72,247.04L234.55,249.45L236.39,259.58L238.22,262.39L240.05,264.64L241.88,265.69L243.72,271.15L245.55,271.15L249.21,272.84L251.05,274.93L254.71,277.83L256.54,275.65L258.38,277.5L260.21,276.7L262.04,275.9L263.87,277.5L265.71,276.86L267.54,278.95L269.37,280.56L271.2,277.91L273.04,277.42L274.87,274.69L276.7,269.95L278.53,268.34L282.2,260.06L284.03,260.38L285.86,260.14L287.7,255.16L291.36,247.68L293.19,242.61L296.86,239.24L298.69,239.64L300.52,234.42L302.36,234.9L304.19,237.07L306.02,232.65L309.69,228.39L311.52,228.63L313.35,221.95L315.18,210.62L318.85,190.52L320.68,179.27L322.51,171.63L324.35,169.54L328.01,160.06L329.84,159.41L331.68,160.38L333.51,158.37L337.17,163.03L339.01,204.67L340.84,192.85L342.67,187.63L346.34,196.87L348.17,194.7L350,193.98L351.83,153.54L353.66,169.3L355.5,176.7L357.33,179.59L359.16,180.07L360.99,185.14L362.83,184.9L366.49,189.88L368.32,193.66L371.99,197.76L373.82,197.68L375.65,197.6L377.49,206.6L381.15,222.2L382.98,230.72L384.82,238.6L386.65,251.86L388.48,252.5L390.31,263.11L393.98,280.24L395.81,287.07L397.64,297.12L399.48,298.73L401.31,299.45L403.14,306.28L404.97,313.44L406.81,315.45L408.64,325.9L410.47,327.43L412.3,324.21L414.14,326.06L415.97,329.76L417.8,327.1L419.63,330.64L421.47,324.85L423.3,328.31L425.13,329.68L426.96,329.11L428.8,340.77L430.63,338.76L432.46,337.88L434.29,338.28L436.13,339.64L439.79,340.37L441.62,334.1L443.46,341.17L445.29,342.46L447.12,346.4L448.95,348.49L450.79,350.1L452.62,350.34L458.12,361.75L459.95,362.15L461.78,364.24L463.61,364.97L465.45,365.21L467.28,367.3L469.11,368.02L470.94,370.27L474.61,373.09L476.44,373.09L478.27,373.25L480.1,374.61L491.1,376.22L492.93,375.58L498.43,372.85L500.26,372.93L503.93,372.2L505.76,370.43L507.59,369.87L509.42,367.78L514.92,361.11L516.75,361.11L520.42,352.59L522.25,353.15L525.92,335.63L527.75,330.4L529.58,328.31L531.41,310.3L533.25,296.07L535.08,276.06L536.91,266.33L538.74,250.89L540.58,236.42L542.41,234.82L546.07,202.66L547.91,184.33L549.74,174.69L551.57,160.14L553.4,154.59L555.24,152.18L558.9,131.84L560.73,125.49L562.57,115.36L564.4,112.95L568.06,114.55L569.9,111.42L571.73,107.56L573.56,106.27L575.39,105.95L577.23,107L579.06,105.47L580.89,105.55L582.72,109.81L584.55,111.98L586.39,116.81L588.22,124.2L590.05,124.04L591.88,128.3L593.72,129.43L595.55,132.48L597.38,139.39L599.21,150.57L601.05,158.13L602.88,171.23L604.71,177.74L606.54,177.82L608.38,195.59L610.21,205.39L612.04,207.73L613.87,216.17L617.54,235.06L619.37,235.86L624.87,274.05L626.7,280.32L630.37,288.44L632.2,290.12L634.03,295.43L635.86,304.19L641.36,319.23L643.19,322.2L645.03,322.76L646.86,329.92L648.69,331.28L650.52,334.58L652.36,336.75L654.19,341.17L659.69,342.86L661.52,342.94L663.35,343.91L665.18,343.26L667.02,344.07L668.85,345.83" style="fill: rgb(8, 115, 191); fill-opacity: 0.2; stroke-width: 0;"/></g></g><g class="errorbars"/><g class="lines"><path class="js-line" d="M-249.21,374.45L-245.55,375.18L-243.72,375.98L-227.23,376.78L-225.39,377.43L-216.23,375.58L-214.4,375.58L-210.73,373.09L-208.9,371.16L-199.74,369.79L-197.91,372.12L-190.58,377.27L-188.74,377.19L-174.08,376.86L-172.25,376.62L-153.93,378.15L-152.09,378.15L-133.77,376.7L-131.94,375.58L-117.28,373.41L-115.45,373.73L-106.28,371.96L-104.45,371.08L-98.95,370.27L-97.12,368.99L-91.62,365.85L-89.79,363.12L-84.29,362.39L-82.46,359.58L-78.8,356.2L-76.96,355.88L-69.63,351.38L-67.8,351.78L-60.47,350.1L-58.64,348.65L-56.81,347.92L-54.97,344.31L-51.31,338.84L-49.48,337.72L-45.81,336.03L-43.98,333.94L-42.15,335.38L-40.31,333.37L-38.48,332.01L-36.65,332.81L-34.82,333.45L-32.98,331.85L-31.15,332.41L-29.32,328.23L-27.49,327.26L-25.65,324.45L-23.82,322.04L-21.99,321.8L-20.16,316.73L-18.32,314.56L-16.49,314.16L-14.66,314.88L-12.83,317.14L-10.99,316.17L-9.16,315.05L-7.33,316.17L-3.66,318.02L-1.83,311.51L0,304.84L1.83,302.18L3.66,302.91L5.5,298.81L9.16,281.52L10.99,279.11L14.66,261.27L16.49,260.78L21.99,241.41L23.82,227.66L25.65,227.34L27.49,234.66L29.32,232.97L31.15,229.35L32.98,224.69L34.82,212.07L36.65,187.87L38.48,142.85L40.31,123.4L42.15,119.94L47.64,22.67L49.48,6.43L51.31,4.5L53.14,4.02L54.97,3.05L56.81,0L60.47,16.08L62.3,35.45L64.14,60.29L65.97,73.48L67.8,77.33L69.63,89.79L71.47,105.87L73.3,157.96L78.8,198.4L80.63,201.13L84.29,240.85L86.13,230.88L87.96,257.41L89.79,272.52L91.62,276.62L93.46,277.18L95.29,295.27L97.12,305.8L98.95,309.66L100.79,310.14L102.62,315.05L104.45,313.92L106.28,314.08L108.12,317.38L109.95,318.1L111.78,321.16L113.61,322.84L115.45,321.07L119.11,319.71L120.94,317.86L124.61,313.68L126.44,307.57L128.27,306.6L130.1,307.09L131.94,304.27L133.77,300.09L135.6,298L137.43,291.41L139.27,291.73L141.1,286.67L142.93,283.85L144.76,286.51L148.43,280.48L150.26,282.17L152.09,286.19L153.93,301.86L155.76,302.1L157.59,303.39L159.42,307.17L161.26,304.92L164.92,297.36L166.75,298L170.42,297.6L172.25,288.76L174.08,289.16L175.92,286.43L177.75,285.7L179.58,268.58L181.41,268.98L183.25,268.5L185.08,271.72L186.91,269.46L188.74,273.08L190.58,270.67L192.41,270.03L194.24,267.05L196.07,266.49L197.91,264.4L199.74,262.87L201.57,258.61L203.4,253.79L205.24,246.39L208.9,244.14L210.73,240.93L212.57,238.11L214.4,237.87L216.23,237.79L218.06,239.48L219.9,239.96L221.73,238.6L223.56,234.82L225.39,237.87L229.06,243.5L230.89,246.47L232.72,247.04L234.55,249.45L236.39,259.58L238.22,262.39L240.05,264.64L241.88,265.69L243.72,271.15L245.55,271.15L249.21,272.84L251.05,274.93L254.71,277.83L256.54,275.65L258.38,277.5L260.21,276.7L262.04,275.9L263.87,277.5L265.71,276.86L267.54,278.95L269.37,280.56L271.2,277.91L273.04,277.42L274.87,274.69L276.7,269.95L278.53,268.34L282.2,260.06L284.03,260.38L285.86,260.14L287.7,255.16L291.36,247.68L293.19,242.61L296.86,239.24L298.69,239.64L300.52,234.42L302.36,234.9L304.19,237.07L306.02,232.65L309.69,228.39L311.52,228.63L313.35,221.95L315.18,210.62L318.85,190.52L320.68,179.27L322.51,171.63L324.35,169.54L328.01,160.06L329.84,159.41L331.68,160.38L333.51,158.37L337.17,163.03L339.01,204.67L340.84,192.85L342.67,187.63L346.34,196.87L348.17,194.7L350,193.98L351.83,153.54L353.66,169.3L355.5,176.7L357.33,179.59L359.16,180.07L360.99,185.14L362.83,184.9L366.49,189.88L368.32,193.66L371.99,197.76L373.82,197.68L375.65,197.6L377.49,206.6L381.15,222.2L382.98,230.72L384.82,238.6L386.65,251.86L388.48,252.5L390.31,263.11L393.98,280.24L395.81,287.07L397.64,297.12L399.48,298.73L401.31,299.45L403.14,306.28L404.97,313.44L406.81,315.45L408.64,325.9L410.47,327.43L412.3,324.21L414.14,326.06L415.97,329.76L417.8,327.1L419.63,330.64L421.47,324.85L423.3,328.31L425.13,329.68L426.96,329.11L428.8,340.77L430.63,338.76L432.46,337.88L434.29,338.28L436.13,339.64L439.79,340.37L441.62,334.1L443.46,341.17L445.29,342.46L447.12,346.4L448.95,348.49L450.79,350.1L452.62,350.34L458.12,361.75L459.95,362.15L461.78,364.24L463.61,364.97L465.45,365.21L467.28,367.3L469.11,368.02L470.94,370.27L474.61,373.09L476.44,373.09L478.27,373.25L480.1,374.61L491.1,376.22L492.93,375.58L498.43,372.85L500.26,372.93L503.93,372.2L505.76,370.43L507.59,369.87L509.42,367.78L514.92,361.11L516.75,361.11L520.42,352.59L522.25,353.15L525.92,335.63L527.75,330.4L529.58,328.31L531.41,310.3L533.25,296.07L535.08,276.06L536.91,266.33L538.74,250.89L540.58,236.42L542.41,234.82L546.07,202.66L547.91,184.33L549.74,174.69L551.57,160.14L553.4,154.59L555.24,152.18L558.9,131.84L560.73,125.49L562.57,115.36L564.4,112.95L568.06,114.55L569.9,111.42L571.73,107.56L573.56,106.27L575.39,105.95L577.23,107L579.06,105.47L580.89,105.55L582.72,109.81L584.55,111.98L586.39,116.81L588.22,124.2L590.05,124.04L591.88,128.3L593.72,129.43L595.55,132.48L597.38,139.39L599.21,150.57L601.05,158.13L602.88,171.23L604.71,177.74L606.54,177.82L608.38,195.59L610.21,205.39L612.04,207.73L613.87,216.17L617.54,235.06L619.37,235.86L624.87,274.05L626.7,280.32L630.37,288.44L632.2,290.12L634.03,295.43L635.86,304.19L641.36,319.23L643.19,322.2L645.03,322.76L646.86,329.92L648.69,331.28L650.52,334.58L652.36,336.75L654.19,341.17L659.69,342.86L661.52,342.94L663.35,343.91L665.18,343.26L667.02,344.07L668.85,345.83" style="vector-effect: non-scaling-stroke; fill: none; stroke: rgb(8, 115, 191); stroke-opacity: 1; stroke-width: 0.5px; opacity: 1;"/></g><g class="points"/><g class="text"/></g><g class="trace scatter tracef7baa1" style="stroke-miterlimit: 2;"><g class="fills"><g><path class="js-fill" d="M687.17,380L668.85,380L668.85,345.83L670.68,345.67L672.51,349.69L676.18,354.03L678.01,356.2L679.84,357.01L681.68,356.45L683.51,356.77L685.34,357.89L687.17,356.93" style="fill: rgb(8, 115, 191); fill-opacity: 0.4; stroke-width: 0;"/></g></g><g class="errorbars"/><g class="lines"><path class="js-line" d="M668.85,345.83L670.68,345.67L672.51,349.69L676.18,354.03L678.01,356.2L679.84,357.01L681.68,356.45L683.51,356.77L685.34,357.89L687.17,356.93" style="vector-effect: non-scaling-stroke; fill: none; stroke: rgb(8, 115, 191); stroke-opacity: 1; stroke-width: 2px; opacity: 1;"/></g><g class="points"/><g class="text"/></g><g class="trace scatter trace1458d1" style="stroke-miterlimit: 2; opacity: 1;"><g class="fills"/><g class="errorbars"/><g class="lines"/><g class="points"><path class="point" transform="translate(687.17,356.93)" d="M15,0A15,15 0 1,1 0,-15A15,15 0 0,1 15,0Z" style="opacity: 1; stroke-width: 0px; fill: rgb(8, 115, 191); fill-opacity: 1;"/></g><g class="text"/></g></g></g><g class="overplot"/><path class="xlines-above crisp" style="fill: none; stroke-width: 1px; stroke: rgb(0, 0, 0); stroke-opacity: 0;" d=""/><path class="ylines-above crisp" style="fill: none;" d="M0,0"/><g class="overlines-above"/><g class="xaxislayer-above"><path class="xtick ticks crisp" d="M0,450v-5" transform="translate(110.47,0)" style="stroke: rgb(68, 68, 68); stroke-opacity: 1; stroke-width: 1px;"/><path class="xtick ticks crisp" d="M0,450v-5" transform="translate(222.25,0)" style="stroke: rgb(68, 68, 68); stroke-opacity: 1; stroke-width: 1px;"/><path class="xtick ticks crisp" d="M0,450v-5" transform="translate(330.37,0)" style="stroke: rgb(68, 68, 68); stroke-opacity: 1; stroke-width: 1px;"/><path class="xtick ticks crisp" d="M0,450v-5" transform="translate(442.15,0)" style="stroke: rgb(68, 68, 68); stroke-opacity: 1; stroke-width: 1px;"/><path class="xtick ticks crisp" d="M0,450v-5" transform="translate(553.9300000000001,0)" style="stroke: rgb(68, 68, 68); stroke-opacity: 1; stroke-width: 1px;"/><path class="xtick ticks crisp" d="M0,450v-5" transform="translate(667.54,0)" style="stroke: rgb(68, 68, 68); stroke-opacity: 1; stroke-width: 1px;"/><g class="xtick"><text text-anchor="middle" x="0" y="469" transform="translate(110.47,0)" style="font-family: 'Open Sans', verdana, arial, sans-serif; font-size: 18px; fill: rgb(42, 63, 95); fill-opacity: 1; white-space: pre;">01/11</text></g><g class="xtick"><text text-anchor="middle" x="0" y="469" transform="translate(222.25,0)" style="font-family: 'Open Sans', verdana, arial, sans-serif; font-size: 18px; fill: rgb(42, 63, 95); fill-opacity: 1; white-space: pre;">01/01</text></g><g class="xtick"><text text-anchor="middle" x="0" y="469" transform="translate(330.37,0)" style="font-family: 'Open Sans', verdana, arial, sans-serif; font-size: 18px; fill: rgb(42, 63, 95); fill-opacity: 1; white-space: pre;">01/03</text></g><g class="xtick"><text text-anchor="middle" x="0" y="469" transform="translate(442.15,0)" style="font-family: 'Open Sans', verdana, arial, sans-serif; font-size: 18px; fill: rgb(42, 63, 95); fill-opacity: 1; white-space: pre;">01/05</text></g><g class="xtick"><text text-anchor="middle" x="0" y="469" transform="translate(553.9300000000001,0)" style="font-family: 'Open Sans', verdana, arial, sans-serif; font-size: 18px; fill: rgb(42, 63, 95); fill-opacity: 1; white-space: pre;">01/07</text></g><g class="xtick"><text text-anchor="middle" x="0" y="469" transform="translate(667.54,0)" style="font-family: 'Open Sans', verdana, arial, sans-serif; font-size: 18px; fill: rgb(42, 63, 95); fill-opacity: 1; white-space: pre;">01/09</text></g></g><g class="yaxislayer-above"/><g class="overaxes-above"/></g></g><g class="polarlayer"/><g class="ternarylayer"/><g class="geolayer"/><g class="funnelarealayer"/><g class="pielayer"/><g class="treemaplayer"/><g class="sunburstlayer"/><g class="glimages"/><defs id="topdefs-456a87"><g class="clips"/></defs><g class="layer-above"><g class="imagelayer"/><g class="shapelayer"><path data-index="0" fill-rule="evenodd" d="M-979.8399999999999,419.92L359.69,419.92" clip-path="url('#clip456a87xy')" style="opacity: 1; stroke: rgb(255, 0, 0); stroke-opacity: 1; fill: rgb(0, 0, 0); fill-opacity: 0; stroke-dasharray: 3px, 3px; stroke-width: 1.5px;"/></g></g><g class="infolayer"><g class="g-gtitle"><text class="gtitle" x="375" y="25" text-anchor="middle" dy="0.7em" style="font-family: 'Open Sans', verdana, arial, sans-serif; font-size: 50px; fill: rgb(42, 63, 95); opacity: 1; font-weight: normal; white-space: pre;"><tspan style="font-weight:bold">Gard (30)</tspan></text></g><g class="g-xtitle"/><g class="annotation" data-index="0" style="opacity: 1;"><g class="annotation-text-g" transform="rotate(0,695.17,366.93)"><g class="cursor-pointer" transform="translate(652, 331)"><rect class="bg" x="0.5" y="0.5" width="86" height="71" style="stroke-width: 1px; stroke: rgb(0, 0, 0); stroke-opacity: 0; fill: rgb(255, 255, 255); fill-opacity: 0.6;"/><text class="annotation-text" text-anchor="middle" x="43.53125" y="55.5" style="font-family: 'Open Sans', verdana, arial, sans-serif; font-size: 50px; fill: rgb(8, 115, 191); fill-opacity: 1; white-space: pre;"> <tspan style="font-weight:bold">38 </tspan></text></g></g><g class="annotation-arrow-g" style="opacity: 1;"><path d="M723.5699999999999,402.43L735.17,416.93" style="stroke-width: 1px; stroke: rgb(8, 115, 191); stroke-opacity: 1; stroke-dasharray: 0px, 0px, 18.569px, 18.569px;"/></g></g></g></svg>