<svg class="main-svg" xmlns="http://www.w3.org/2000/svg" xmlns:xlink="http://www.w3.org/1999/xlink" width="1125" height="750" style="" viewBox="0 0 750 500"><rect x="0" y="0" width="750" height="500" style="fill: rgb(0, 0, 0); fill-opacity: 0;"/><defs id="defs-a2d04f"><g class="clips"><clipPath id="clipa2d04fxyplot" class="plotclip"><rect width="700" height="380"/></clipPath><clipPath class="axesclip" id="clipa2d04fx"><rect x="50" y="0" width="700" height="500"/></clipPath><clipPath class="axesclip" id="clipa2d04fy"><rect x="0" y="70" width="750" height="380"/></clipPath><clipPath class="axesclip" id="clipa2d04fxy"><rect x="50" y="70" width="700" height="380"/></clipPath></g><g class="gradients"/></defs><g class="bglayer"><rect class="bg" x="50" y="70" width="700" height="380" style="fill: rgb(0, 0, 0); fill-opacity: 0; stroke-width: 0;"/></g><g class="layer-below"><g class="imagelayer"/><g class="shapelayer"/></g><g class="cartesianlayer"><g class="subplot xy"><g class="layer-subplot"><g class="shapelayer"/><g class="imagelayer"/></g><g class="gridlayer"><g class="x"><path class="xgrid crisp" transform="translate(112.43,0)" d="M0,70v380" style="stroke: rgb(255, 255, 255); stroke-opacity: 1; stroke-width: 1px;"/><path class="xgrid crisp" transform="translate(227.84,0)" d="M0,70v380" style="stroke: rgb(255, 255, 255); stroke-opacity: 1; stroke-width: 1px;"/><path class="xgrid crisp" transform="translate(339.46,0)" d="M0,70v380" style="stroke: rgb(255, 255, 255); stroke-opacity: 1; stroke-width: 1px;"/><path class="xgrid crisp" transform="translate(454.86,0)" d="M0,70v380" style="stroke: rgb(255, 255, 255); stroke-opacity: 1; stroke-width: 1px;"/><path class="xgrid crisp" transform="translate(570.27,0)" d="M0,70v380" style="stroke: rgb(255, 255, 255); stroke-opacity: 1; stroke-width: 1px;"/><path class="xgrid crisp" transform="translate(687.57,0)" d="M0,70v380" style="stroke: rgb(255, 255, 255); stroke-opacity: 1; stroke-width: 1px;"/></g><g class="y"/></g><g class="zerolinelayer"/><path class="xlines-below"/><path class="ylines-below"/><g class="overlines-below"/><g class="xaxislayer-below"/><g class="yaxislayer-below"/><g class="overaxes-below"/><g class="plot" transform="translate(50, 70)" clip-path="url('#clipa2d04fxyplot')"><g class="scatterlayer mlayer"><g class="trace scatter traceeb5a3c" style="stroke-miterlimit: 2;"><g class="fills"><g><path class="js-fill" d="M667.84,380L-257.3,380L-257.3,377.74L-160.81,378.12L-158.92,376.61L-147.57,378.12L-145.68,379.25L-128.65,377.74L-126.76,376.99L-113.51,376.23L-111.62,374.73L-102.16,369.83L-100.27,370.21L-96.49,369.83L-94.59,368.33L-92.7,367.2L-90.81,369.08L-88.92,369.08L-87.03,366.82L-77.57,338.95L-75.68,338.57L-71.89,325.01L-70,321.63L-68.11,317.11L-66.22,319.37L-64.32,322.38L-62.43,320.5L-60.54,322.38L-58.65,318.24L-54.86,309.95L-52.97,300.16L-51.08,298.28L-49.19,300.16L-45.41,295.64L-43.51,297.9L-35.95,300.16L-34.05,302.79L-32.16,309.57L-30.27,309.95L-28.38,308.82L-26.49,312.59L-24.59,310.7L-22.7,311.83L-20.81,306.18L-18.92,296.39L-17.03,299.03L-15.14,298.65L-13.24,297.52L-11.35,299.78L-9.46,299.41L-7.57,300.16L-5.68,298.65L-3.78,295.64L-1.89,292.63L0,291.5L3.78,286.22L5.68,279.07L7.57,284.34L9.46,279.07L11.35,276.06L13.24,265.51L15.14,260.24L17.03,262.12L20.81,242.16L22.7,239.52L24.59,238.77L26.49,230.11L28.38,233.12L30.27,232.37L32.16,224.84L34.05,213.16L35.95,195.08L37.84,164.58L39.73,148.38L41.62,143.11L43.51,141.98L45.41,119.39L47.3,81.35L49.19,70.8L52.97,61.39L54.86,47.45L56.76,46.32L58.65,20.34L60.54,24.1L62.43,7.16L64.32,12.43L66.22,2.64L68.11,0L70,0.75L71.89,6.78L73.78,21.84L75.68,80.97L77.57,78.71L79.46,66.66L81.35,83.61L83.24,81.72L85.14,116.75L87.03,125.79L88.92,101.68L90.81,117.5L92.7,170.6L96.49,173.99L98.38,187.93L100.27,192.82L102.16,202.24L104.05,215.8L105.95,214.29L109.73,218.81L111.62,190.19L113.51,204.88L115.41,203.37L119.19,185.29L121.08,182.66L122.97,180.77L124.86,203.37L126.76,203.37L128.65,198.1L130.54,206.76L132.43,221.07L134.32,212.78L136.22,213.91L138.11,220.32L140,219.94L141.89,220.69L143.78,209.77L145.68,193.58L147.57,193.58L149.46,193.95L151.35,190.19L153.24,185.29L155.14,190.94L157.03,202.99L158.92,237.26L160.81,242.91L162.7,244.04L164.59,245.93L166.49,252.71L168.38,253.46L170.27,258.73L172.16,260.24L174.05,263.25L175.95,260.61L177.84,259.86L179.73,260.61L181.62,247.43L185.41,208.27L187.3,204.88L189.19,207.14L191.08,198.1L192.97,181.9L194.86,180.02L196.76,179.27L198.65,165.71L200.54,163.83L202.43,163.45L204.32,162.7L206.22,167.97L208.11,175.5L210,179.27L211.89,182.66L213.78,183.41L215.68,183.03L217.57,193.58L221.35,210.53L223.24,210.15L225.14,221.82L227.03,223.71L230.81,220.32L232.7,208.27L234.59,203.37L236.49,206.76L238.38,198.85L240.27,198.1L242.16,199.6L244.05,208.27L247.84,234.25L249.73,247.43L251.62,259.48L253.51,265.13L255.41,264L257.3,268.15L259.19,279.44L261.08,280.95L262.97,279.44L264.86,282.08L270.54,286.22L272.43,282.83L274.32,283.21L276.22,281.33L278.11,279.44L280,276.43L281.89,276.06L283.78,272.67L285.68,273.8L287.57,267.77L289.46,267.02L291.35,264.76L293.24,262.5L295.14,262.12L297.03,256.47L298.92,248.19L302.7,234.25L304.59,229.73L306.49,232.37L308.38,232.75L310.27,239.15L312.16,236.89L314.05,231.99L315.95,232.37L317.84,233.88L319.73,231.62L321.62,229.36L323.51,213.54L325.41,196.59L327.3,190.94L329.19,187.18L331.08,168.34L332.97,156.67L334.86,159.31L336.76,157.42L338.65,162.7L340.54,163.07L342.43,160.06L344.32,162.7L346.22,167.97L348.11,167.59L350,206.76L351.89,190.56L353.78,189.44L355.68,189.44L357.57,191.69L359.46,187.55L361.35,187.18L363.24,141.98L365.14,146.88L367.03,157.8L368.92,154.79L372.7,164.58L374.59,163.83L376.49,172.86L378.38,191.32L380.27,184.92L382.16,192.07L384.05,187.18L385.95,189.44L387.84,190.56L389.73,186.05L391.62,190.94L393.51,201.86L395.41,200.36L397.3,207.51L399.19,219.56L401.08,219.94L402.97,230.86L404.86,227.1L410.54,254.97L412.43,254.59L414.32,253.84L416.22,262.87L418.11,275.3L420,266.26L421.89,287.35L423.78,287.35L425.68,286.6L427.57,286.98L429.46,292.63L431.35,295.64L433.24,302.79L435.14,293L437.03,297.52L438.92,293.76L440.81,294.89L442.7,311.83L444.59,302.42L446.49,306.18L448.38,297.52L450.27,296.39L454.05,293.76L455.95,286.98L457.84,301.29L459.73,304.68L461.62,313.72L463.51,315.6L465.41,320.5L467.3,322.38L469.19,320.5L471.08,320.5L472.97,319.37L474.86,321.63L476.76,327.27L478.65,326.14L480.54,326.52L482.43,328.78L488.11,341.59L490,343.47L491.89,347.61L493.78,347.23L497.57,355.14L499.46,357.78L505.14,365.69L507.03,365.69L508.92,369.08L510.81,367.95L512.7,367.57L514.59,365.69L518.38,366.44L520.27,366.82L522.16,364.18L524.05,364.18L525.95,363.81L527.84,364.56L531.62,362.3L533.51,361.17L537.3,354.01L539.19,354.77L541.08,337.07L542.97,327.65L544.86,317.86L546.76,314.47L552.43,249.69L554.32,242.91L558.11,213.91L560,216.55L563.78,178.51L565.68,166.84L569.46,126.92L571.35,121.27L573.24,117.5L575.14,111.1L577.03,112.98L578.92,104.32L580.81,112.23L582.7,126.92L584.59,122.02L586.49,123.15L588.38,124.28L590.27,115.24L592.16,119.76L594.05,112.23L595.95,97.54L597.84,103.94L599.73,103.57L601.62,94.91L603.51,95.66L605.41,97.54L607.3,106.96L609.19,105.45L611.08,115.24L612.97,116L614.86,138.22L616.76,148.01L622.43,197.72L624.32,198.85L626.22,201.86L628.11,211.66L631.89,236.13L633.78,236.51L637.57,257.6L639.46,254.59L641.35,264L643.24,266.64L647.03,279.82L648.92,281.33L650.81,271.16L652.7,266.64L654.59,275.68L656.49,277.19L658.38,276.06L660.27,281.7L662.16,282.46L664.05,291.5L665.95,297.52L667.84,294.51" style="fill: rgb(8, 115, 191); fill-opacity: 0.2; stroke-width: 0;"/></g></g><g class="errorbars"/><g class="lines"><path class="js-line" d="M-257.3,377.74L-160.81,378.12L-158.92,376.61L-147.57,378.12L-145.68,379.25L-128.65,377.74L-126.76,376.99L-113.51,376.23L-111.62,374.73L-102.16,369.83L-100.27,370.21L-96.49,369.83L-94.59,368.33L-92.7,367.2L-90.81,369.08L-88.92,369.08L-87.03,366.82L-77.57,338.95L-75.68,338.57L-71.89,325.01L-70,321.63L-68.11,317.11L-66.22,319.37L-64.32,322.38L-62.43,320.5L-60.54,322.38L-58.65,318.24L-54.86,309.95L-52.97,300.16L-51.08,298.28L-49.19,300.16L-45.41,295.64L-43.51,297.9L-35.95,300.16L-34.05,302.79L-32.16,309.57L-30.27,309.95L-28.38,308.82L-26.49,312.59L-24.59,310.7L-22.7,311.83L-20.81,306.18L-18.92,296.39L-17.03,299.03L-15.14,298.65L-13.24,297.52L-11.35,299.78L-9.46,299.41L-7.57,300.16L-5.68,298.65L-3.78,295.64L-1.89,292.63L0,291.5L3.78,286.22L5.68,279.07L7.57,284.34L9.46,279.07L11.35,276.06L13.24,265.51L15.14,260.24L17.03,262.12L20.81,242.16L22.7,239.52L24.59,238.77L26.49,230.11L28.38,233.12L30.27,232.37L32.16,224.84L34.05,213.16L35.95,195.08L37.84,164.58L39.73,148.38L41.62,143.11L43.51,141.98L45.41,119.39L47.3,81.35L49.19,70.8L52.97,61.39L54.86,47.45L56.76,46.32L58.65,20.34L60.54,24.1L62.43,7.16L64.32,12.43L66.22,2.64L68.11,0L70,0.75L71.89,6.78L73.78,21.84L75.68,80.97L77.57,78.71L79.46,66.66L81.35,83.61L83.24,81.72L85.14,116.75L87.03,125.79L88.92,101.68L90.81,117.5L92.7,170.6L96.49,173.99L98.38,187.93L100.27,192.82L102.16,202.24L104.05,215.8L105.95,214.29L109.73,218.81L111.62,190.19L113.51,204.88L115.41,203.37L119.19,185.29L121.08,182.66L122.97,180.77L124.86,203.37L126.76,203.37L128.65,198.1L130.54,206.76L132.43,221.07L134.32,212.78L136.22,213.91L138.11,220.32L140,219.94L141.89,220.69L143.78,209.77L145.68,193.58L147.57,193.58L149.46,193.95L151.35,190.19L153.24,185.29L155.14,190.94L157.03,202.99L158.92,237.26L160.81,242.91L162.7,244.04L164.59,245.93L166.49,252.71L168.38,253.46L170.27,258.73L172.16,260.24L174.05,263.25L175.95,260.61L177.84,259.86L179.73,260.61L181.62,247.43L185.41,208.27L187.3,204.88L189.19,207.14L191.08,198.1L192.97,181.9L194.86,180.02L196.76,179.27L198.65,165.71L200.54,163.83L202.43,163.45L204.32,162.7L206.22,167.97L208.11,175.5L210,179.27L211.89,182.66L213.78,183.41L215.68,183.03L217.57,193.58L221.35,210.53L223.24,210.15L225.14,221.82L227.03,223.71L230.81,220.32L232.7,208.27L234.59,203.37L236.49,206.76L238.38,198.85L240.27,198.1L242.16,199.6L244.05,208.27L247.84,234.25L249.73,247.43L251.62,259.48L253.51,265.13L255.41,264L257.3,268.15L259.19,279.44L261.08,280.95L262.97,279.44L264.86,282.08L270.54,286.22L272.43,282.83L274.32,283.21L276.22,281.33L278.11,279.44L280,276.43L281.89,276.06L283.78,272.67L285.68,273.8L287.57,267.77L289.46,267.02L291.35,264.76L293.24,262.5L295.14,262.12L297.03,256.47L298.92,248.19L302.7,234.25L304.59,229.73L306.49,232.37L308.38,232.75L310.27,239.15L312.16,236.89L314.05,231.99L315.95,232.37L317.84,233.88L319.73,231.62L321.62,229.36L323.51,213.54L325.41,196.59L327.3,190.94L329.19,187.18L331.08,168.34L332.97,156.67L334.86,159.31L336.76,157.42L338.65,162.7L340.54,163.07L342.43,160.06L344.32,162.7L346.22,167.97L348.11,167.59L350,206.76L351.89,190.56L353.78,189.44L355.68,189.44L357.57,191.69L359.46,187.55L361.35,187.18L363.24,141.98L365.14,146.88L367.03,157.8L368.92,154.79L372.7,164.58L374.59,163.83L376.49,172.86L378.38,191.32L380.27,184.92L382.16,192.07L384.05,187.18L385.95,189.44L387.84,190.56L389.73,186.05L391.62,190.94L393.51,201.86L395.41,200.36L397.3,207.51L399.19,219.56L401.08,219.94L402.97,230.86L404.86,227.1L410.54,254.97L412.43,254.59L414.32,253.84L416.22,262.87L418.11,275.3L420,266.26L421.89,287.35L423.78,287.35L425.68,286.6L427.57,286.98L429.46,292.63L431.35,295.64L433.24,302.79L435.14,293L437.03,297.52L438.92,293.76L440.81,294.89L442.7,311.83L444.59,302.42L446.49,306.18L448.38,297.52L450.27,296.39L454.05,293.76L455.95,286.98L457.84,301.29L459.73,304.68L461.62,313.72L463.51,315.6L465.41,320.5L467.3,322.38L469.19,320.5L471.08,320.5L472.97,319.37L474.86,321.63L476.76,327.27L478.65,326.14L480.54,326.52L482.43,328.78L488.11,341.59L490,343.47L491.89,347.61L493.78,347.23L497.57,355.14L499.46,357.78L505.14,365.69L507.03,365.69L508.92,369.08L510.81,367.95L512.7,367.57L514.59,365.69L518.38,366.44L520.27,366.82L522.16,364.18L524.05,364.18L525.95,363.81L527.84,364.56L531.62,362.3L533.51,361.17L537.3,354.01L539.19,354.77L541.08,337.07L542.97,327.65L544.86,317.86L546.76,314.47L552.43,249.69L554.32,242.91L558.11,213.91L560,216.55L563.78,178.51L565.68,166.84L569.46,126.92L571.35,121.27L573.24,117.5L575.14,111.1L577.03,112.98L578.92,104.32L580.81,112.23L582.7,126.92L584.59,122.02L586.49,123.15L588.38,124.28L590.27,115.24L592.16,119.76L594.05,112.23L595.95,97.54L597.84,103.94L599.73,103.57L601.62,94.91L603.51,95.66L605.41,97.54L607.3,106.96L609.19,105.45L611.08,115.24L612.97,116L614.86,138.22L616.76,148.01L622.43,197.72L624.32,198.85L626.22,201.86L628.11,211.66L631.89,236.13L633.78,236.51L637.57,257.6L639.46,254.59L641.35,264L643.24,266.64L647.03,279.82L648.92,281.33L650.81,271.16L652.7,266.64L654.59,275.68L656.49,277.19L658.38,276.06L660.27,281.7L662.16,282.46L664.05,291.5L665.95,297.52L667.84,294.51" style="vector-effect: non-scaling-stroke; fill: none; stroke: rgb(8, 115, 191); stroke-opacity: 1; stroke-width: 0.5px; opacity: 1;"/></g><g class="points"/><g class="text"/></g><g class="trace scatter tracedf43a2" style="stroke-miterlimit: 2;"><g class="fills"><g><path class="js-fill" d="M686.76,380L667.84,380L667.84,294.51L671.62,312.59L673.51,316.73L677.3,323.51L679.19,324.26L681.08,332.92L682.97,333.68L686.76,337.07" style="fill: rgb(8, 115, 191); fill-opacity: 0.4; stroke-width: 0;"/></g></g><g class="errorbars"/><g class="lines"><path class="js-line" d="M667.84,294.51L671.62,312.59L673.51,316.73L677.3,323.51L679.19,324.26L681.08,332.92L682.97,333.68L686.76,337.07" style="vector-effect: non-scaling-stroke; fill: none; stroke: rgb(8, 115, 191); stroke-opacity: 1; stroke-width: 2px; opacity: 1;"/></g><g class="points"/><g class="text"/></g><g class="trace scatter trace89c368" style="stroke-miterlimit: 2; opacity: 1;"><g class="fills"/><g class="errorbars"/><g class="lines"/><g class="points"><path class="point" transform="translate(686.76,337.07)" d="M15,0A15,15 0 1,1 0,-15A15,15 0 0,1 15,0Z" style="opacity: 1; stroke-width: 0px; fill: rgb(8, 115, 191); fill-opacity: 1;"/></g><g class="text"/></g></g></g><g class="overplot"/><path class="xlines-above crisp" style="fill: none; stroke-width: 1px; stroke: rgb(0, 0, 0); stroke-opacity: 0;" d=""/><path class="ylines-above crisp" style="fill: none;" d="M0,0"/><g class="overlines-above"/><g class="xaxislayer-above"><path class="xtick ticks crisp" d="M0,450v-5" transform="translate(112.43,0)" style="stroke: rgb(68, 68, 68); stroke-opacity: 1; stroke-width: 1px;"/><path class="xtick ticks crisp" d="M0,450v-5" transform="translate(227.84,0)" style="stroke: rgb(68, 68, 68); stroke-opacity: 1; stroke-width: 1px;"/><path class="xtick ticks crisp" d="M0,450v-5" transform="translate(339.46,0)" style="stroke: rgb(68, 68, 68); stroke-opacity: 1; stroke-width: 1px;"/><path class="xtick ticks crisp" d="M0,450v-5" transform="translate(454.86,0)" style="stroke: rgb(68, 68, 68); stroke-opacity: 1; stroke-width: 1px;"/><path class="xtick ticks crisp" d="M0,450v-5" transform="translate(570.27,0)" style="stroke: rgb(68, 68, 68); stroke-opacity: 1; stroke-width: 1px;"/><path class="xtick ticks crisp" d="M0,450v-5" transform="translate(687.57,0)" style="stroke: rgb(68, 68, 68); stroke-opacity: 1; stroke-width: 1px;"/><g class="xtick"><text text-anchor="middle" x="0" y="469" transform="translate(112.43,0)" style="font-family: 'Open Sans', verdana, arial, sans-serif; font-size: 18px; fill: rgb(42, 63, 95); fill-opacity: 1; white-space: pre;">01/11</text></g><g class="xtick"><text text-anchor="middle" x="0" y="469" transform="translate(227.84,0)" style="font-family: 'Open Sans', verdana, arial, sans-serif; font-size: 18px; fill: rgb(42, 63, 95); fill-opacity: 1; white-space: pre;">01/01</text></g><g class="xtick"><text text-anchor="middle" x="0" y="469" transform="translate(339.46,0)" style="font-family: 'Open Sans', verdana, arial, sans-serif; font-size: 18px; fill: rgb(42, 63, 95); fill-opacity: 1; white-space: pre;">01/03</text></g><g class="xtick"><text text-anchor="middle" x="0" y="469" transform="translate(454.86,0)" style="font-family: 'Open Sans', verdana, arial, sans-serif; font-size: 18px; fill: rgb(42, 63, 95); fill-opacity: 1; white-space: pre;">01/05</text></g><g class="xtick"><text text-anchor="middle" x="0" y="469" transform="translate(570.27,0)" style="font-family: 'Open Sans', verdana, arial, sans-serif; font-size: 18px; fill: rgb(42, 63, 95); fill-opacity: 1; white-space: pre;">01/07</text></g><g class="xtick"><text text-anchor="middle" x="0" y="469" transform="translate(687.57,0)" style="font-family: 'Open Sans', verdana, arial, sans-serif; font-size: 18px; fill: rgb(42, 63, 95); fill-opacity: 1; white-space: pre;">01/09</text></g></g><g class="yaxislayer-above"/><g class="overaxes-above"/></g></g><g class="polarlayer"/><g class="ternarylayer"/><g class="geolayer"/><g class="funnelarealayer"/><g class="pielayer"/><g class="treemaplayer"/><g class="sunburstlayer"/><g class="glimages"/><defs id="topdefs-a2d04f"><g class="clips"/></defs><g class="layer-above"><g class="imagelayer"/><g class="shapelayer"><path data-index="0" fill-rule="evenodd" d="M-1013.24,387.8L369.73,387.8" clip-path="url('#clipa2d04fxy')" style="opacity: 1; stroke: rgb(255, 0, 0); stroke-opacity: 1; fill: rgb(0, 0, 0); fill-opacity: 0; stroke-dasharray: 3px, 3px; stroke-width: 1.5px;"/></g></g><g class="infolayer"><g class="g-gtitle"><text class="gtitle" x="375" y="25" text-anchor="middle" dy="0.7em" style="font-family: 'Open Sans', verdana, arial, sans-serif; font-size: 50px; fill: rgb(42, 63, 95); opacity: 1; font-weight: normal; white-space: pre;"><tspan style="font-weight:bold">Lot-et-Garonne (47)</tspan></text></g><g class="g-xtitle"/><g class="annotation" data-index="0" style="opacity: 1;"><g class="annotation-text-g" transform="rotate(0,694.76,347.07)"><g class="cursor-pointer" transform="translate(651, 311)"><rect class="bg" x="0.5" y="0.5" width="86" height="71" style="stroke-width: 1px; stroke: rgb(0, 0, 0); stroke-opacity: 0; fill: rgb(255, 255, 255); fill-opacity: 0.6;"/><text class="annotation-text" text-anchor="middle" x="43.53125" y="55.5" style="font-family: 'Open Sans', verdana, arial, sans-serif; font-size: 50px; fill: rgb(8, 115, 191); fill-opacity: 1; white-space: pre;"> <tspan style="font-weight:bold">34 </tspan></text></g></g><g class="annotation-arrow-g" style="opacity: 1;"><path d="M723.16,382.57L734.76,397.07" style="stroke-width: 1px; stroke: rgb(8, 115, 191); stroke-opacity: 1; stroke-dasharray: 0px, 0px, 18.5691px, 18.5691px;"/></g></g></g></svg>