<svg class="main-svg" xmlns="http://www.w3.org/2000/svg" xmlns:xlink="http://www.w3.org/1999/xlink" width="1125" height="750" style="" viewBox="0 0 750 500"><rect x="0" y="0" width="750" height="500" style="fill: rgb(0, 0, 0); fill-opacity: 0;"/><defs id="defs-55a3e8"><g class="clips"><clipPath id="clip55a3e8xyplot" class="plotclip"><rect width="700" height="380"/></clipPath><clipPath class="axesclip" id="clip55a3e8x"><rect x="50" y="0" width="700" height="500"/></clipPath><clipPath class="axesclip" id="clip55a3e8y"><rect x="0" y="70" width="750" height="380"/></clipPath><clipPath class="axesclip" id="clip55a3e8xy"><rect x="50" y="70" width="700" height="380"/></clipPath></g><g class="gradients"/></defs><g class="bglayer"><rect class="bg" x="50" y="70" width="700" height="380" style="fill: rgb(0, 0, 0); fill-opacity: 0; stroke-width: 0;"/></g><g class="layer-below"><g class="imagelayer"/><g class="shapelayer"/></g><g class="cartesianlayer"><g class="subplot xy"><g class="layer-subplot"><g class="shapelayer"/><g class="imagelayer"/></g><g class="gridlayer"><g class="x"><path class="xgrid crisp" transform="translate(112.43,0)" d="M0,70v380" style="stroke: rgb(255, 255, 255); stroke-opacity: 1; stroke-width: 1px;"/><path class="xgrid crisp" transform="translate(227.84,0)" d="M0,70v380" style="stroke: rgb(255, 255, 255); stroke-opacity: 1; stroke-width: 1px;"/><path class="xgrid crisp" transform="translate(339.46,0)" d="M0,70v380" style="stroke: rgb(255, 255, 255); stroke-opacity: 1; stroke-width: 1px;"/><path class="xgrid crisp" transform="translate(454.86,0)" d="M0,70v380" style="stroke: rgb(255, 255, 255); stroke-opacity: 1; stroke-width: 1px;"/><path class="xgrid crisp" transform="translate(570.27,0)" d="M0,70v380" style="stroke: rgb(255, 255, 255); stroke-opacity: 1; stroke-width: 1px;"/><path class="xgrid crisp" transform="translate(687.57,0)" d="M0,70v380" style="stroke: rgb(255, 255, 255); stroke-opacity: 1; stroke-width: 1px;"/></g><g class="y"/></g><g class="zerolinelayer"/><path class="xlines-below"/><path class="ylines-below"/><g class="overlines-below"/><g class="xaxislayer-below"/><g class="yaxislayer-below"/><g class="overaxes-below"/><g class="plot" transform="translate(50, 70)" clip-path="url('#clip55a3e8xyplot')"><g class="scatterlayer mlayer"><g class="trace scatter trace4a0715" style="stroke-miterlimit: 2;"><g class="fills"><g><path class="js-fill" d="M667.84,380L-257.3,380L-257.3,380L-132.43,378.76L-130.54,377.51L-122.97,376.15L-121.08,375.28L-115.41,376.15L-113.51,376.15L-109.73,377.51L-107.84,378.14L-88.92,375.77L-87.03,373.66L-81.35,370.18L-79.46,370.43L-75.68,368.81L-73.78,369.31L-70,367.32L-68.11,367.07L-64.32,362.22L-62.43,362.47L-58.65,355.26L-56.76,352.16L-52.97,339.6L-51.08,338.36L-49.19,338.23L-47.3,332.64L-45.41,330.53L-43.51,326.55L-41.62,328.54L-39.73,328.41L-37.84,326.18L-35.95,325.93L-34.05,329.53L-32.16,323.81L-30.27,325.06L-28.38,320.71L-24.59,323.81L-22.7,324.06L-20.81,319.09L-18.92,325.55L-17.03,325.43L-15.14,327.79L-11.35,329.66L-9.46,329.28L-7.57,336.87L-5.68,338.73L-1.89,339.97L0,337.61L1.89,335.25L3.78,335.62L7.57,317.85L9.46,305.04L15.14,272.97L17.03,272.97L20.81,246.62L22.7,241.4L24.59,229.96L26.49,226.73L28.38,226.86L30.27,226.23L32.16,221.64L34.05,210.2L39.73,166.32L41.62,162.96L43.51,160.85L45.41,143.07L47.3,139.22L49.19,140.71L51.08,150.28L52.97,154.39L54.86,159.23L56.76,159.23L60.54,187.2L62.43,195.41L64.32,205.6L66.22,208.71L68.11,209.45L70,211.94L71.89,218.53L73.78,235.31L75.68,265.27L77.57,276.33L79.46,293.98L81.35,300.82L83.24,300.57L85.14,314.12L87.03,321.95L88.92,317.72L90.81,328.29L92.7,334.38L94.59,337.61L96.49,338.61L98.38,348.18L100.27,351.78L102.16,354.52L104.05,354.52L105.95,357.75L107.84,357.87L109.73,357.87L111.62,354.14L113.51,350.91L115.41,349.92L122.97,350.42L124.86,355.01L126.76,358L128.65,357.87L134.32,355.64L136.22,355.39L138.11,352.78L140,352.03L141.89,349.67L143.78,348.55L145.68,347.31L147.57,344.82L149.46,344.57L151.35,339.23L153.24,334.75L155.14,332.89L157.03,330.9L158.92,336.37L164.59,336.37L166.49,332.89L170.27,324.68L172.16,324.56L174.05,319.96L175.95,319.21L179.73,303.3L181.62,299.08L183.51,298.95L185.41,282.79L189.19,282.05L191.08,280.31L192.97,275.58L194.86,273.22L198.65,258.8L200.54,254.08L202.43,254.82L204.32,245.25L208.11,233.32L210,231.33L213.78,224.74L215.68,224.62L219.46,221.14L221.35,222.01L223.24,221.76L225.14,225.49L227.03,228.97L228.92,228.35L234.59,256.69L236.49,260.92L240.27,274.22L242.16,274.84L245.95,299.7L247.84,307.41L249.73,318.47L251.62,324.81L253.51,328.91L255.41,329.28L257.3,330.28L259.19,330.28L261.08,333.14L262.97,332.89L264.86,333.14L266.76,332.52L268.65,331.65L270.54,332.02L272.43,335L274.32,334.5L276.22,336.37L278.11,339.73L280,338.48L281.89,339.85L283.78,343.21L285.68,344.08L289.46,343.7L291.35,339.6L293.24,341.84L295.14,341.71L298.92,337.61L300.81,338.73L302.7,337.74L304.59,337.98L308.38,337.61L310.27,329.41L314.05,311.88L315.95,307.78L319.73,297.59L321.62,296.96L323.51,281.67L325.41,277.82L327.3,274.09L329.19,259.05L331.08,245.13L332.97,237.55L334.86,236.43L336.76,234.07L338.65,218.53L340.54,210.32L342.43,205.6L344.32,207.34L348.11,209.45L350,241.4L351.89,238.54L353.78,239.54L355.68,243.64L357.57,245L361.35,247.37L363.24,217.66L365.14,238.04L367.03,246.25L368.92,258.55L370.81,265.89L372.7,269L374.59,269.37L376.49,280.06L378.38,277.7L380.27,277.45L382.16,276.21L384.05,274.84L385.95,277.45L387.84,276.45L389.73,273.22L391.62,271.85L393.51,277.45L397.3,284.16L399.19,290.62L401.08,289.63L402.97,293.73L404.86,301.81L406.76,299.95L408.65,300.32L410.54,307.16L414.32,310.02L416.22,317.47L420,324.81L421.89,336.12L425.68,330.4L427.57,330.78L429.46,331.52L431.35,333.26L433.24,332.52L435.14,328.54L437.03,333.63L438.92,332.64L440.81,332.76L442.7,343.33L444.59,342.83L446.49,345.57L452.16,341.71L454.05,341.09L455.95,331.02L457.84,330.9L459.73,331.65L461.62,334.01L465.41,339.85L467.3,340.35L472.97,352.53L474.86,353.03L476.76,355.26L478.65,355.51L480.54,355.76L482.43,359.37L484.32,361.73L486.22,361.48L490,362.6L491.89,364.21L493.78,364.34L495.68,365.58L499.46,368.69L501.35,368.94L505.14,371.55L507.03,371.55L508.92,372.91L510.81,372.54L512.7,371.3L514.59,371.42L518.38,362.97L520.27,362.72L524.05,347.81L525.95,335.37L531.62,287.27L533.51,285.9L537.3,226.36L539.19,232.2L542.97,172.78L544.86,156.5L546.76,154.39L548.65,110.01L550.54,84.65L552.43,32.69L554.32,24.12L556.22,11.06L558.11,0.12L560,0L563.78,5.47L565.68,19.39L571.35,60.29L573.24,60.41L575.14,63.27L577.03,78.68L578.92,70.61L580.81,80.18L582.7,86.52L584.59,89.38L586.49,88.51L588.38,111L590.27,111.13L592.16,125.55L595.95,129.4L597.84,135.49L599.73,136.24L601.62,145.19L607.3,177.38L609.19,188.32L611.08,193.05L612.97,192.8L614.86,210.2L616.76,220.39L618.65,236.18L620.54,245L622.43,258.55L624.32,265.14L626.22,267.63L628.11,274.59L630,281.55L631.89,285.03L637.57,299.2L639.46,299.33L641.35,309.64L643.24,312.13L645.14,316.11L647.03,322.07L648.92,325.18L650.81,326.55L652.7,327.54L654.59,333.26L656.49,341.59L658.38,339.73L660.27,340.47L662.16,344.57L664.05,346.56L665.95,346.81L667.84,348.3" style="fill: rgb(8, 115, 191); fill-opacity: 0.2; stroke-width: 0;"/></g></g><g class="errorbars"/><g class="lines"><path class="js-line" d="M-257.3,380L-132.43,378.76L-130.54,377.51L-122.97,376.15L-121.08,375.28L-115.41,376.15L-113.51,376.15L-109.73,377.51L-107.84,378.14L-88.92,375.77L-87.03,373.66L-81.35,370.18L-79.46,370.43L-75.68,368.81L-73.78,369.31L-70,367.32L-68.11,367.07L-64.32,362.22L-62.43,362.47L-58.65,355.26L-56.76,352.16L-52.97,339.6L-51.08,338.36L-49.19,338.23L-47.3,332.64L-45.41,330.53L-43.51,326.55L-41.62,328.54L-39.73,328.41L-37.84,326.18L-35.95,325.93L-34.05,329.53L-32.16,323.81L-30.27,325.06L-28.38,320.71L-24.59,323.81L-22.7,324.06L-20.81,319.09L-18.92,325.55L-17.03,325.43L-15.14,327.79L-11.35,329.66L-9.46,329.28L-7.57,336.87L-5.68,338.73L-1.89,339.97L0,337.61L1.89,335.25L3.78,335.62L7.57,317.85L9.46,305.04L15.14,272.97L17.03,272.97L20.81,246.62L22.7,241.4L24.59,229.96L26.49,226.73L28.38,226.86L30.27,226.23L32.16,221.64L34.05,210.2L39.73,166.32L41.62,162.96L43.51,160.85L45.41,143.07L47.3,139.22L49.19,140.71L51.08,150.28L52.97,154.39L54.86,159.23L56.76,159.23L60.54,187.2L62.43,195.41L64.32,205.6L66.22,208.71L68.11,209.45L70,211.94L71.89,218.53L73.78,235.31L75.68,265.27L77.57,276.33L79.46,293.98L81.35,300.82L83.24,300.57L85.14,314.12L87.03,321.95L88.92,317.72L90.81,328.29L92.7,334.38L94.59,337.61L96.49,338.61L98.38,348.18L100.27,351.78L102.16,354.52L104.05,354.52L105.95,357.75L107.84,357.87L109.73,357.87L111.62,354.14L113.51,350.91L115.41,349.92L122.97,350.42L124.86,355.01L126.76,358L128.65,357.87L134.32,355.64L136.22,355.39L138.11,352.78L140,352.03L141.89,349.67L143.78,348.55L145.68,347.31L147.57,344.82L149.46,344.57L151.35,339.23L153.24,334.75L155.14,332.89L157.03,330.9L158.92,336.37L164.59,336.37L166.49,332.89L170.27,324.68L172.16,324.56L174.05,319.96L175.95,319.21L179.73,303.3L181.62,299.08L183.51,298.95L185.41,282.79L189.19,282.05L191.08,280.31L192.97,275.58L194.86,273.22L198.65,258.8L200.54,254.08L202.43,254.82L204.32,245.25L208.11,233.32L210,231.33L213.78,224.74L215.68,224.62L219.46,221.14L221.35,222.01L223.24,221.76L225.14,225.49L227.03,228.97L228.92,228.35L234.59,256.69L236.49,260.92L240.27,274.22L242.16,274.84L245.95,299.7L247.84,307.41L249.73,318.47L251.62,324.81L253.51,328.91L255.41,329.28L257.3,330.28L259.19,330.28L261.08,333.14L262.97,332.89L264.86,333.14L266.76,332.52L268.65,331.65L270.54,332.02L272.43,335L274.32,334.5L276.22,336.37L278.11,339.73L280,338.48L281.89,339.85L283.78,343.21L285.68,344.08L289.46,343.7L291.35,339.6L293.24,341.84L295.14,341.71L298.92,337.61L300.81,338.73L302.7,337.74L304.59,337.98L308.38,337.61L310.27,329.41L314.05,311.88L315.95,307.78L319.73,297.59L321.62,296.96L323.51,281.67L325.41,277.82L327.3,274.09L329.19,259.05L331.08,245.13L332.97,237.55L334.86,236.43L336.76,234.07L338.65,218.53L340.54,210.32L342.43,205.6L344.32,207.34L348.11,209.45L350,241.4L351.89,238.54L353.78,239.54L355.68,243.64L357.57,245L361.35,247.37L363.24,217.66L365.14,238.04L367.03,246.25L368.92,258.55L370.81,265.89L372.7,269L374.59,269.37L376.49,280.06L378.38,277.7L380.27,277.45L382.16,276.21L384.05,274.84L385.95,277.45L387.84,276.45L389.73,273.22L391.62,271.85L393.51,277.45L397.3,284.16L399.19,290.62L401.08,289.63L402.97,293.73L404.86,301.81L406.76,299.95L408.65,300.32L410.54,307.16L414.32,310.02L416.22,317.47L420,324.81L421.89,336.12L425.68,330.4L427.57,330.78L429.46,331.52L431.35,333.26L433.24,332.52L435.14,328.54L437.03,333.63L438.92,332.64L440.81,332.76L442.7,343.33L444.59,342.83L446.49,345.57L452.16,341.71L454.05,341.09L455.95,331.02L457.84,330.9L459.73,331.65L461.62,334.01L465.41,339.85L467.3,340.35L472.97,352.53L474.86,353.03L476.76,355.26L478.65,355.51L480.54,355.76L482.43,359.37L484.32,361.73L486.22,361.48L490,362.6L491.89,364.21L493.78,364.34L495.68,365.58L499.46,368.69L501.35,368.94L505.14,371.55L507.03,371.55L508.92,372.91L510.81,372.54L512.7,371.3L514.59,371.42L518.38,362.97L520.27,362.72L524.05,347.81L525.95,335.37L531.62,287.27L533.51,285.9L537.3,226.36L539.19,232.2L542.97,172.78L544.86,156.5L546.76,154.39L548.65,110.01L550.54,84.65L552.43,32.69L554.32,24.12L556.22,11.06L558.11,0.12L560,0L563.78,5.47L565.68,19.39L571.35,60.29L573.24,60.41L575.14,63.27L577.03,78.68L578.92,70.61L580.81,80.18L582.7,86.52L584.59,89.38L586.49,88.51L588.38,111L590.27,111.13L592.16,125.55L595.95,129.4L597.84,135.49L599.73,136.24L601.62,145.19L607.3,177.38L609.19,188.32L611.08,193.05L612.97,192.8L614.86,210.2L616.76,220.39L618.65,236.18L620.54,245L622.43,258.55L624.32,265.14L626.22,267.63L628.11,274.59L630,281.55L631.89,285.03L637.57,299.2L639.46,299.33L641.35,309.64L643.24,312.13L645.14,316.11L647.03,322.07L648.92,325.18L650.81,326.55L652.7,327.54L654.59,333.26L656.49,341.59L658.38,339.73L660.27,340.47L662.16,344.57L664.05,346.56L665.95,346.81L667.84,348.3" style="vector-effect: non-scaling-stroke; fill: none; stroke: rgb(8, 115, 191); stroke-opacity: 1; stroke-width: 0.5px; opacity: 1;"/></g><g class="points"/><g class="text"/></g><g class="trace scatter tracef3106a" style="stroke-miterlimit: 2;"><g class="fills"><g><path class="js-fill" d="M686.76,380L667.84,380L667.84,348.3L669.73,346.44L671.62,351.16L677.3,348.43L679.19,348.55L681.08,348.05L682.97,349.67L684.86,351.66L686.76,355.01" style="fill: rgb(8, 115, 191); fill-opacity: 0.4; stroke-width: 0;"/></g></g><g class="errorbars"/><g class="lines"><path class="js-line" d="M667.84,348.3L669.73,346.44L671.62,351.16L677.3,348.43L679.19,348.55L681.08,348.05L682.97,349.67L684.86,351.66L686.76,355.01" style="vector-effect: non-scaling-stroke; fill: none; stroke: rgb(8, 115, 191); stroke-opacity: 1; stroke-width: 2px; opacity: 1;"/></g><g class="points"/><g class="text"/></g><g class="trace scatter trace333bab" style="stroke-miterlimit: 2; opacity: 1;"><g class="fills"/><g class="errorbars"/><g class="lines"/><g class="points"><path class="point" transform="translate(686.76,355.01)" d="M15,0A15,15 0 1,1 0,-15A15,15 0 0,1 15,0Z" style="opacity: 1; stroke-width: 0px; fill: rgb(8, 115, 191); fill-opacity: 1;"/></g><g class="text"/></g></g></g><g class="overplot"/><path class="xlines-above crisp" style="fill: none; stroke-width: 1px; stroke: rgb(0, 0, 0); stroke-opacity: 0;" d=""/><path class="ylines-above crisp" style="fill: none;" d="M0,0"/><g class="overlines-above"/><g class="xaxislayer-above"><path class="xtick ticks crisp" d="M0,450v-5" transform="translate(112.43,0)" style="stroke: rgb(68, 68, 68); stroke-opacity: 1; stroke-width: 1px;"/><path class="xtick ticks crisp" d="M0,450v-5" transform="translate(227.84,0)" style="stroke: rgb(68, 68, 68); stroke-opacity: 1; stroke-width: 1px;"/><path class="xtick ticks crisp" d="M0,450v-5" transform="translate(339.46,0)" style="stroke: rgb(68, 68, 68); stroke-opacity: 1; stroke-width: 1px;"/><path class="xtick ticks crisp" d="M0,450v-5" transform="translate(454.86,0)" style="stroke: rgb(68, 68, 68); stroke-opacity: 1; stroke-width: 1px;"/><path class="xtick ticks crisp" d="M0,450v-5" transform="translate(570.27,0)" style="stroke: rgb(68, 68, 68); stroke-opacity: 1; stroke-width: 1px;"/><path class="xtick ticks crisp" d="M0,450v-5" transform="translate(687.57,0)" style="stroke: rgb(68, 68, 68); stroke-opacity: 1; stroke-width: 1px;"/><g class="xtick"><text text-anchor="middle" x="0" y="469" transform="translate(112.43,0)" style="font-family: 'Open Sans', verdana, arial, sans-serif; font-size: 18px; fill: rgb(42, 63, 95); fill-opacity: 1; white-space: pre;">01/11</text></g><g class="xtick"><text text-anchor="middle" x="0" y="469" transform="translate(227.84,0)" style="font-family: 'Open Sans', verdana, arial, sans-serif; font-size: 18px; fill: rgb(42, 63, 95); fill-opacity: 1; white-space: pre;">01/01</text></g><g class="xtick"><text text-anchor="middle" x="0" y="469" transform="translate(339.46,0)" style="font-family: 'Open Sans', verdana, arial, sans-serif; font-size: 18px; fill: rgb(42, 63, 95); fill-opacity: 1; white-space: pre;">01/03</text></g><g class="xtick"><text text-anchor="middle" x="0" y="469" transform="translate(454.86,0)" style="font-family: 'Open Sans', verdana, arial, sans-serif; font-size: 18px; fill: rgb(42, 63, 95); fill-opacity: 1; white-space: pre;">01/05</text></g><g class="xtick"><text text-anchor="middle" x="0" y="469" transform="translate(570.27,0)" style="font-family: 'Open Sans', verdana, arial, sans-serif; font-size: 18px; fill: rgb(42, 63, 95); fill-opacity: 1; white-space: pre;">01/07</text></g><g class="xtick"><text text-anchor="middle" x="0" y="469" transform="translate(687.57,0)" style="font-family: 'Open Sans', verdana, arial, sans-serif; font-size: 18px; fill: rgb(42, 63, 95); fill-opacity: 1; white-space: pre;">01/09</text></g></g><g class="yaxislayer-above"/><g class="overaxes-above"/></g></g><g class="polarlayer"/><g class="ternarylayer"/><g class="geolayer"/><g class="funnelarealayer"/><g class="pielayer"/><g class="treemaplayer"/><g class="sunburstlayer"/><g class="glimages"/><defs id="topdefs-55a3e8"><g class="clips"/></defs><g class="layer-above"><g class="imagelayer"/><g class="shapelayer"><path data-index="0" fill-rule="evenodd" d="M-1013.24,420.23L369.73,420.23" clip-path="url('#clip55a3e8xy')" style="opacity: 1; stroke: rgb(255, 0, 0); stroke-opacity: 1; fill: rgb(0, 0, 0); fill-opacity: 0; stroke-dasharray: 3px, 3px; stroke-width: 1.5px;"/></g></g><g class="infolayer"><g class="g-gtitle"><text class="gtitle" x="375" y="25" text-anchor="middle" dy="0.7em" style="font-family: 'Open Sans', verdana, arial, sans-serif; font-size: 50px; fill: rgb(42, 63, 95); opacity: 1; font-weight: normal; white-space: pre;"><tspan style="font-weight:bold">Pyrénées-Orientales (66)</tspan></text></g><g class="g-xtitle"/><g class="annotation" data-index="0" style="opacity: 1;"><g class="annotation-text-g" transform="rotate(0,694.76,365.01)"><g class="cursor-pointer" transform="translate(651, 329)"><rect class="bg" x="0.5" y="0.5" width="86" height="71" style="stroke-width: 1px; stroke: rgb(0, 0, 0); stroke-opacity: 0; fill: rgb(255, 255, 255); fill-opacity: 0.6;"/><text class="annotation-text" text-anchor="middle" x="43.53125" y="55.5" style="font-family: 'Open Sans', verdana, arial, sans-serif; font-size: 50px; fill: rgb(8, 115, 191); fill-opacity: 1; white-space: pre;"> <tspan style="font-weight:bold">41 </tspan></text></g></g><g class="annotation-arrow-g" style="opacity: 1;"><path d="M723.16,400.51L734.76,415.01" style="stroke-width: 1px; stroke: rgb(8, 115, 191); stroke-opacity: 1; stroke-dasharray: 0px, 0px, 18.5691px, 18.5691px;"/></g></g></g></svg>