<svg class="main-svg" xmlns="http://www.w3.org/2000/svg" xmlns:xlink="http://www.w3.org/1999/xlink" width="1125" height="750" style="" viewBox="0 0 750 500"><rect x="0" y="0" width="750" height="500" style="fill: rgb(0, 0, 0); fill-opacity: 0;"/><defs id="defs-5e8442"><g class="clips"><clipPath id="clip5e8442xyplot" class="plotclip"><rect width="700" height="380"/></clipPath><clipPath class="axesclip" id="clip5e8442x"><rect x="50" y="0" width="700" height="500"/></clipPath><clipPath class="axesclip" id="clip5e8442y"><rect x="0" y="70" width="750" height="380"/></clipPath><clipPath class="axesclip" id="clip5e8442xy"><rect x="50" y="70" width="700" height="380"/></clipPath></g><g class="gradients"/></defs><g class="bglayer"><rect class="bg" x="50" y="70" width="700" height="380" style="fill: rgb(0, 0, 0); fill-opacity: 0; stroke-width: 0;"/></g><g class="layer-below"><g class="imagelayer"/><g class="shapelayer"/></g><g class="cartesianlayer"><g class="subplot xy"><g class="layer-subplot"><g class="shapelayer"/><g class="imagelayer"/></g><g class="gridlayer"><g class="x"><path class="xgrid crisp" transform="translate(113.11,0)" d="M0,70v380" style="stroke: rgb(255, 255, 255); stroke-opacity: 1; stroke-width: 1px;"/><path class="xgrid crisp" transform="translate(229.78,0)" d="M0,70v380" style="stroke: rgb(255, 255, 255); stroke-opacity: 1; stroke-width: 1px;"/><path class="xgrid crisp" transform="translate(342.62,0)" d="M0,70v380" style="stroke: rgb(255, 255, 255); stroke-opacity: 1; stroke-width: 1px;"/><path class="xgrid crisp" transform="translate(459.29,0)" d="M0,70v380" style="stroke: rgb(255, 255, 255); stroke-opacity: 1; stroke-width: 1px;"/><path class="xgrid crisp" transform="translate(575.96,0)" d="M0,70v380" style="stroke: rgb(255, 255, 255); stroke-opacity: 1; stroke-width: 1px;"/><path class="xgrid crisp" transform="translate(694.54,0)" d="M0,70v380" style="stroke: rgb(255, 255, 255); stroke-opacity: 1; stroke-width: 1px;"/></g><g class="y"/></g><g class="zerolinelayer"/><path class="xlines-below"/><path class="ylines-below"/><g class="overlines-below"/><g class="xaxislayer-below"/><g class="yaxislayer-below"/><g class="overaxes-below"/><g class="plot" transform="translate(50, 70)" clip-path="url('#clip5e8442xyplot')"><g class="scatterlayer mlayer"><g class="trace scatter trace137cff" style="stroke-miterlimit: 2;"><g class="fills"><g><path class="js-fill" d="M667.49,380L-260.11,380L-260.11,376.38L-244.81,374.21L-242.9,372.52L-223.77,378.79L-221.86,378.79L-196.99,377.83L-195.08,376.86L-179.78,377.59L-177.87,376.86L-166.39,378.55L-164.48,379.03L-151.09,377.83L-149.18,378.31L-141.53,376.62L-139.62,376.38L-135.79,377.35L-133.88,376.62L-130.05,372.28L-128.14,370.83L-122.4,366.97L-120.49,367.21L-118.58,370.35L-116.67,369.63L-110.93,367.7L-109.02,366.73L-105.19,359.97L-103.28,361.18L-97.54,362.87L-95.63,363.11L-89.89,366.97L-87.98,365.04L-82.24,361.42L-80.33,363.83L-76.5,358.53L-74.59,357.8L-70.77,355.39L-68.85,352.98L-65.03,346.7L-63.11,347.43L-57.38,328.85L-55.46,318.72L-53.55,305.93L-51.64,305.45L-49.73,305.21L-47.81,303.52L-45.9,305.21L-43.99,301.1L-40.16,310.76L-38.25,309.31L-36.34,307.62L-34.43,304L-32.51,295.8L-30.6,295.8L-26.78,287.59L-24.86,289.52L-22.95,289.04L-21.04,291.7L-17.21,295.07L-15.3,303.76L-13.39,310.51L-11.48,311.96L-9.56,313.41L-7.65,312.69L-5.74,313.17L-3.83,315.34L-1.91,313.17L0,313.65L1.91,311.72L3.83,311.48L7.65,306.41L9.56,304.24L11.48,299.9L13.39,290.73L15.3,281.08L17.21,279.87L19.13,269.02L21.04,266.6L22.95,257.92L24.86,245.37L26.78,231.38L28.69,229.21L30.6,227.28L32.51,205.32L38.25,141.63L40.16,126.91L42.08,112.67L43.99,105.92L45.9,86.86L47.81,75.76L51.64,53.56L53.55,31.61L55.46,22.92L57.38,26.78L59.29,9.41L61.2,0.48L63.11,0L65.03,2.9L66.94,17.13L68.85,19.78L70.77,18.58L72.68,51.39L74.59,63.7L76.5,109.78L78.42,116.29L80.33,134.39L82.24,151.76L84.15,155.62L86.07,158.27L87.98,181.92L89.89,173.23L91.8,205.32L95.63,234.76L97.54,238.13L99.45,262.26L101.37,272.39L105.19,283.01L107.1,295.8L109.02,296.04L110.93,297.24L112.84,311.96L114.75,313.17L116.67,317.99L118.58,316.79L120.49,315.34L122.4,316.06L124.32,316.55L126.23,314.62L128.14,318.23L130.05,315.34L131.97,312.44L133.88,300.86L135.79,300.38L137.7,298.93L139.62,294.83L141.53,296.04L145.36,292.18L147.27,299.42L151.09,296.28L153.01,290.49L156.83,277.7L158.74,281.32L160.66,295.07L162.57,291.21L164.48,294.11L166.39,295.07L168.31,294.11L170.22,290.01L172.13,278.18L174.04,274.81L175.96,268.29L177.87,267.57L181.69,260.09L183.61,262.98L185.52,269.74L187.43,251.64L189.34,257.68L191.26,255.99L193.17,248.03L195.08,248.03L200.82,216.9L202.73,212.8L206.56,215.21L208.47,202.67L210.38,205.56L212.3,206.29L214.21,212.32L216.12,209.66L218.03,208.7L219.95,203.87L221.86,213.52L223.77,208.46L225.68,192.53L227.6,187.95L229.51,184.81L231.42,184.33L233.33,180.47L235.25,168.41L237.16,168.41L239.07,180.47L240.98,184.33L242.9,184.81L244.81,186.02L246.72,197.84L248.63,215.7L250.55,224.38L252.46,227.52L254.37,234.03L256.28,236.2L258.2,236.93L262.02,217.38L263.93,208.7L265.85,205.32L267.76,185.78L269.67,187.47L271.58,187.23L275.41,172.03L277.32,168.65L279.23,155.62L281.15,168.89L283.06,170.1L284.97,169.85L286.89,186.5L288.8,192.05L290.71,196.39L292.62,207.49L294.54,207.01L296.45,205.32L298.36,205.56L300.27,185.05L302.19,175.89L304.1,171.54L306.01,170.34L307.92,160.69L309.84,153.93L311.75,153.93L313.66,160.93L315.57,159.24L317.49,144.04L319.4,137.77L321.31,133.9L323.22,125.7L325.14,124.98L327.05,113.64L332.79,85.41L334.7,83.48L336.61,70.69L338.52,67.8L342.35,41.5L344.26,32.57L346.17,27.5L348.09,8.2L350,19.78L351.91,20.99L353.83,77.21L355.74,61.28L357.65,69.97L359.56,65.63L361.48,75.52L363.39,68.52L365.3,68.76L367.21,20.51L369.13,41.02L371.04,42.95L372.95,57.42L374.86,52.84L376.78,49.22L378.69,48.25L380.6,39.81L382.51,40.05L384.43,42.46L386.34,34.74L388.25,41.26L390.16,44.63L392.08,44.63L393.99,65.63L399.73,121.84L401.64,130.04L403.55,161.17L405.46,163.1L407.38,165.99L409.29,164.3L411.2,160.93L413.11,154.65L415.03,154.9L416.94,156.34L420.77,160.69L422.68,165.99L424.59,172.51L426.5,201.7L428.42,203.87L430.33,192.53L432.24,189.88L434.15,199.29L436.07,211.11L437.98,213.04L439.89,193.98L441.8,207.49L443.72,207.25L445.63,209.66L447.54,240.55L449.45,227.28L451.37,234.51L453.28,246.34L457.1,263.71L459.02,262.5L460.93,251.4L462.84,272.15L464.75,278.91L466.67,279.39L468.58,285.42L470.49,288.8L472.4,291.21L474.32,296.04L476.23,299.42L478.14,309.79L480.05,320.17L481.97,323.3L483.88,325.96L485.79,326.44L487.7,333.43L489.62,337.05L491.53,338.98L493.44,342.6L495.36,344.29L497.27,348.15L499.18,348.88L501.09,347.43L504.92,347.91L506.83,350.08L508.74,353.94L510.66,353.22L512.57,352.5L514.48,355.39L516.39,356.11L518.31,352.74L522.13,344.53L524.04,341.64L525.96,341.16L527.87,339.47L529.78,340.19L531.69,339.95L533.61,337.3L535.52,336.57L537.43,337.78L539.34,336.57L541.26,329.57L543.17,318.96L545.08,324.99L546.99,313.17L550.82,289.04L552.73,287.35L558.47,213.52L560.38,204.11L562.3,193.26L564.21,189.4L566.12,186.5L568.03,175.64L569.95,179.02L571.86,176.37L573.77,166.48L575.68,163.1L577.6,163.82L579.51,165.51L581.42,161.17L583.33,154.17L587.16,145.24L589.07,131.49L592.9,112.67L594.81,108.33L596.72,103.99L598.63,107.85L600.55,110.74L602.46,103.26L604.37,102.3L606.28,106.88L608.2,117.5L610.11,117.98L612.02,112.67L613.93,117.74L615.85,132.46L617.76,136.8L621.58,140.18L623.5,138.73L625.41,146.69L627.32,148.38L631.15,168.65L633.06,168.41L634.97,175.4L636.89,195.91L642.62,221.97L644.54,227.28L646.45,230.9L648.36,238.62L652.19,251.4L654.1,255.26L656.01,260.81L657.92,259.85L659.84,261.05L661.75,266.84L663.66,271.19L665.57,278.43L667.49,283.25" style="fill: rgb(8, 115, 191); fill-opacity: 0.2; stroke-width: 0;"/></g></g><g class="errorbars"/><g class="lines"><path class="js-line" d="M-260.11,376.38L-244.81,374.21L-242.9,372.52L-223.77,378.79L-221.86,378.79L-196.99,377.83L-195.08,376.86L-179.78,377.59L-177.87,376.86L-166.39,378.55L-164.48,379.03L-151.09,377.83L-149.18,378.31L-141.53,376.62L-139.62,376.38L-135.79,377.35L-133.88,376.62L-130.05,372.28L-128.14,370.83L-122.4,366.97L-120.49,367.21L-118.58,370.35L-116.67,369.63L-110.93,367.7L-109.02,366.73L-105.19,359.97L-103.28,361.18L-97.54,362.87L-95.63,363.11L-89.89,366.97L-87.98,365.04L-82.24,361.42L-80.33,363.83L-76.5,358.53L-74.59,357.8L-70.77,355.39L-68.85,352.98L-65.03,346.7L-63.11,347.43L-57.38,328.85L-55.46,318.72L-53.55,305.93L-51.64,305.45L-49.73,305.21L-47.81,303.52L-45.9,305.21L-43.99,301.1L-40.16,310.76L-38.25,309.31L-36.34,307.62L-34.43,304L-32.51,295.8L-30.6,295.8L-26.78,287.59L-24.86,289.52L-22.95,289.04L-21.04,291.7L-17.21,295.07L-15.3,303.76L-13.39,310.51L-11.48,311.96L-9.56,313.41L-7.65,312.69L-5.74,313.17L-3.83,315.34L-1.91,313.17L0,313.65L1.91,311.72L3.83,311.48L7.65,306.41L9.56,304.24L11.48,299.9L13.39,290.73L15.3,281.08L17.21,279.87L19.13,269.02L21.04,266.6L22.95,257.92L24.86,245.37L26.78,231.38L28.69,229.21L30.6,227.28L32.51,205.32L38.25,141.63L40.16,126.91L42.08,112.67L43.99,105.92L45.9,86.86L47.81,75.76L51.64,53.56L53.55,31.61L55.46,22.92L57.38,26.78L59.29,9.41L61.2,0.48L63.11,0L65.03,2.9L66.94,17.13L68.85,19.78L70.77,18.58L72.68,51.39L74.59,63.7L76.5,109.78L78.42,116.29L80.33,134.39L82.24,151.76L84.15,155.62L86.07,158.27L87.98,181.92L89.89,173.23L91.8,205.32L95.63,234.76L97.54,238.13L99.45,262.26L101.37,272.39L105.19,283.01L107.1,295.8L109.02,296.04L110.93,297.24L112.84,311.96L114.75,313.17L116.67,317.99L118.58,316.79L120.49,315.34L122.4,316.06L124.32,316.55L126.23,314.62L128.14,318.23L130.05,315.34L131.97,312.44L133.88,300.86L135.79,300.38L137.7,298.93L139.62,294.83L141.53,296.04L145.36,292.18L147.27,299.42L151.09,296.28L153.01,290.49L156.83,277.7L158.74,281.32L160.66,295.07L162.57,291.21L164.48,294.11L166.39,295.07L168.31,294.11L170.22,290.01L172.13,278.18L174.04,274.81L175.96,268.29L177.87,267.57L181.69,260.09L183.61,262.98L185.52,269.74L187.43,251.64L189.34,257.68L191.26,255.99L193.17,248.03L195.08,248.03L200.82,216.9L202.73,212.8L206.56,215.21L208.47,202.67L210.38,205.56L212.3,206.29L214.21,212.32L216.12,209.66L218.03,208.7L219.95,203.87L221.86,213.52L223.77,208.46L225.68,192.53L227.6,187.95L229.51,184.81L231.42,184.33L233.33,180.47L235.25,168.41L237.16,168.41L239.07,180.47L240.98,184.33L242.9,184.81L244.81,186.02L246.72,197.84L248.63,215.7L250.55,224.38L252.46,227.52L254.37,234.03L256.28,236.2L258.2,236.93L262.02,217.38L263.93,208.7L265.85,205.32L267.76,185.78L269.67,187.47L271.58,187.23L275.41,172.03L277.32,168.65L279.23,155.62L281.15,168.89L283.06,170.1L284.97,169.85L286.89,186.5L288.8,192.05L290.71,196.39L292.62,207.49L294.54,207.01L296.45,205.32L298.36,205.56L300.27,185.05L302.19,175.89L304.1,171.54L306.01,170.34L307.92,160.69L309.84,153.93L311.75,153.93L313.66,160.93L315.57,159.24L317.49,144.04L319.4,137.77L321.31,133.9L323.22,125.7L325.14,124.98L327.05,113.64L332.79,85.41L334.7,83.48L336.61,70.69L338.52,67.8L342.35,41.5L344.26,32.57L346.17,27.5L348.09,8.2L350,19.78L351.91,20.99L353.83,77.21L355.74,61.28L357.65,69.97L359.56,65.63L361.48,75.52L363.39,68.52L365.3,68.76L367.21,20.51L369.13,41.02L371.04,42.95L372.95,57.42L374.86,52.84L376.78,49.22L378.69,48.25L380.6,39.81L382.51,40.05L384.43,42.46L386.34,34.74L388.25,41.26L390.16,44.63L392.08,44.63L393.99,65.63L399.73,121.84L401.64,130.04L403.55,161.17L405.46,163.1L407.38,165.99L409.29,164.3L411.2,160.93L413.11,154.65L415.03,154.9L416.94,156.34L420.77,160.69L422.68,165.99L424.59,172.51L426.5,201.7L428.42,203.87L430.33,192.53L432.24,189.88L434.15,199.29L436.07,211.11L437.98,213.04L439.89,193.98L441.8,207.49L443.72,207.25L445.63,209.66L447.54,240.55L449.45,227.28L451.37,234.51L453.28,246.34L457.1,263.71L459.02,262.5L460.93,251.4L462.84,272.15L464.75,278.91L466.67,279.39L468.58,285.42L470.49,288.8L472.4,291.21L474.32,296.04L476.23,299.42L478.14,309.79L480.05,320.17L481.97,323.3L483.88,325.96L485.79,326.44L487.7,333.43L489.62,337.05L491.53,338.98L493.44,342.6L495.36,344.29L497.27,348.15L499.18,348.88L501.09,347.43L504.92,347.91L506.83,350.08L508.74,353.94L510.66,353.22L512.57,352.5L514.48,355.39L516.39,356.11L518.31,352.74L522.13,344.53L524.04,341.64L525.96,341.16L527.87,339.47L529.78,340.19L531.69,339.95L533.61,337.3L535.52,336.57L537.43,337.78L539.34,336.57L541.26,329.57L543.17,318.96L545.08,324.99L546.99,313.17L550.82,289.04L552.73,287.35L558.47,213.52L560.38,204.11L562.3,193.26L564.21,189.4L566.12,186.5L568.03,175.64L569.95,179.02L571.86,176.37L573.77,166.48L575.68,163.1L577.6,163.82L579.51,165.51L581.42,161.17L583.33,154.17L587.16,145.24L589.07,131.49L592.9,112.67L594.81,108.33L596.72,103.99L598.63,107.85L600.55,110.74L602.46,103.26L604.37,102.3L606.28,106.88L608.2,117.5L610.11,117.98L612.02,112.67L613.93,117.74L615.85,132.46L617.76,136.8L621.58,140.18L623.5,138.73L625.41,146.69L627.32,148.38L631.15,168.65L633.06,168.41L634.97,175.4L636.89,195.91L642.62,221.97L644.54,227.28L646.45,230.9L648.36,238.62L652.19,251.4L654.1,255.26L656.01,260.81L657.92,259.85L659.84,261.05L661.75,266.84L663.66,271.19L665.57,278.43L667.49,283.25" style="vector-effect: non-scaling-stroke; fill: none; stroke: rgb(8, 115, 191); stroke-opacity: 1; stroke-width: 0.5px; opacity: 1;"/></g><g class="points"/><g class="text"/></g><g class="trace scatter trace72f996" style="stroke-miterlimit: 2;"><g class="fills"><g><path class="js-fill" d="M686.61,380L667.49,380L667.49,283.25L669.4,289.04L671.31,299.66L673.22,299.66L675.14,309.55L678.96,314.37L680.87,318.96L682.79,322.82L684.7,320.17L686.61,321.13" style="fill: rgb(8, 115, 191); fill-opacity: 0.4; stroke-width: 0;"/></g></g><g class="errorbars"/><g class="lines"><path class="js-line" d="M667.49,283.25L669.4,289.04L671.31,299.66L673.22,299.66L675.14,309.55L678.96,314.37L680.87,318.96L682.79,322.82L684.7,320.17L686.61,321.13" style="vector-effect: non-scaling-stroke; fill: none; stroke: rgb(8, 115, 191); stroke-opacity: 1; stroke-width: 2px; opacity: 1;"/></g><g class="points"/><g class="text"/></g><g class="trace scatter trace9d8ad7" style="stroke-miterlimit: 2; opacity: 1;"><g class="fills"/><g class="errorbars"/><g class="lines"/><g class="points"><path class="point" transform="translate(686.61,321.13)" d="M15,0A15,15 0 1,1 0,-15A15,15 0 0,1 15,0Z" style="opacity: 1; stroke-width: 0px; fill: rgb(8, 115, 191); fill-opacity: 1;"/></g><g class="text"/></g></g></g><g class="overplot"/><path class="xlines-above crisp" style="fill: none; stroke-width: 1px; stroke: rgb(0, 0, 0); stroke-opacity: 0;" d=""/><path class="ylines-above crisp" style="fill: none;" d="M0,0"/><g class="overlines-above"/><g class="xaxislayer-above"><path class="xtick ticks crisp" d="M0,450v-5" transform="translate(113.11,0)" style="stroke: rgb(68, 68, 68); stroke-opacity: 1; stroke-width: 1px;"/><path class="xtick ticks crisp" d="M0,450v-5" transform="translate(229.78,0)" style="stroke: rgb(68, 68, 68); stroke-opacity: 1; stroke-width: 1px;"/><path class="xtick ticks crisp" d="M0,450v-5" transform="translate(342.62,0)" style="stroke: rgb(68, 68, 68); stroke-opacity: 1; stroke-width: 1px;"/><path class="xtick ticks crisp" d="M0,450v-5" transform="translate(459.29,0)" style="stroke: rgb(68, 68, 68); stroke-opacity: 1; stroke-width: 1px;"/><path class="xtick ticks crisp" d="M0,450v-5" transform="translate(575.96,0)" style="stroke: rgb(68, 68, 68); stroke-opacity: 1; stroke-width: 1px;"/><path class="xtick ticks crisp" d="M0,450v-5" transform="translate(694.54,0)" style="stroke: rgb(68, 68, 68); stroke-opacity: 1; stroke-width: 1px;"/><g class="xtick"><text text-anchor="middle" x="0" y="469" transform="translate(113.11,0)" style="font-family: 'Open Sans', verdana, arial, sans-serif; font-size: 18px; fill: rgb(42, 63, 95); fill-opacity: 1; white-space: pre;">01/11</text></g><g class="xtick"><text text-anchor="middle" x="0" y="469" transform="translate(229.78,0)" style="font-family: 'Open Sans', verdana, arial, sans-serif; font-size: 18px; fill: rgb(42, 63, 95); fill-opacity: 1; white-space: pre;">01/01</text></g><g class="xtick"><text text-anchor="middle" x="0" y="469" transform="translate(342.62,0)" style="font-family: 'Open Sans', verdana, arial, sans-serif; font-size: 18px; fill: rgb(42, 63, 95); fill-opacity: 1; white-space: pre;">01/03</text></g><g class="xtick"><text text-anchor="middle" x="0" y="469" transform="translate(459.29,0)" style="font-family: 'Open Sans', verdana, arial, sans-serif; font-size: 18px; fill: rgb(42, 63, 95); fill-opacity: 1; white-space: pre;">01/05</text></g><g class="xtick"><text text-anchor="middle" x="0" y="469" transform="translate(575.96,0)" style="font-family: 'Open Sans', verdana, arial, sans-serif; font-size: 18px; fill: rgb(42, 63, 95); fill-opacity: 1; white-space: pre;">01/07</text></g><g class="xtick"><text text-anchor="middle" x="0" y="469" transform="translate(694.54,0)" style="font-family: 'Open Sans', verdana, arial, sans-serif; font-size: 18px; fill: rgb(42, 63, 95); fill-opacity: 1; white-space: pre;">01/09</text></g></g><g class="yaxislayer-above"/><g class="overaxes-above"/></g></g><g class="polarlayer"/><g class="ternarylayer"/><g class="geolayer"/><g class="funnelarealayer"/><g class="pielayer"/><g class="treemaplayer"/><g class="sunburstlayer"/><g class="glimages"/><defs id="topdefs-5e8442"><g class="clips"/></defs><g class="layer-above"><g class="imagelayer"/><g class="shapelayer"><path data-index="0" fill-rule="evenodd" d="M-1024.86,358.85L373.22,358.85" clip-path="url('#clip5e8442xy')" style="opacity: 1; stroke: rgb(255, 0, 0); stroke-opacity: 1; fill: rgb(0, 0, 0); fill-opacity: 0; stroke-dasharray: 3px, 3px; stroke-width: 1.5px;"/></g></g><g class="infolayer"><g class="g-gtitle"><text class="gtitle" x="375" y="25" text-anchor="middle" dy="0.7em" style="font-family: 'Open Sans', verdana, arial, sans-serif; font-size: 50px; fill: rgb(42, 63, 95); opacity: 1; font-weight: normal; white-space: pre;"><tspan style="font-weight:bold">Morbihan (56)</tspan></text></g><g class="g-xtitle"/><g class="annotation" data-index="0" style="opacity: 1;"><g class="annotation-text-g" transform="rotate(0,694.61,331.13)"><g class="cursor-pointer" transform="translate(651, 295)"><rect class="bg" x="0.5" y="0.5" width="86" height="71" style="stroke-width: 1px; stroke: rgb(0, 0, 0); stroke-opacity: 0; fill: rgb(255, 255, 255); fill-opacity: 0.6;"/><text class="annotation-text" text-anchor="middle" x="43.53125" y="55.5" style="font-family: 'Open Sans', verdana, arial, sans-serif; font-size: 50px; fill: rgb(8, 115, 191); fill-opacity: 1; white-space: pre;"> <tspan style="font-weight:bold">32 </tspan></text></g></g><g class="annotation-arrow-g" style="opacity: 1;"><path d="M723.01,366.63L734.61,381.13" style="stroke-width: 1px; stroke: rgb(8, 115, 191); stroke-opacity: 1; stroke-dasharray: 0px, 0px, 18.569px, 18.569px;"/></g></g></g></svg>