<svg class="main-svg" xmlns="http://www.w3.org/2000/svg" xmlns:xlink="http://www.w3.org/1999/xlink" width="1125" height="750" style="" viewBox="0 0 750 500"><rect x="0" y="0" width="750" height="500" style="fill: rgb(0, 0, 0); fill-opacity: 0;"/><defs id="defs-c9e67d"><g class="clips"><clipPath id="clipc9e67dxyplot" class="plotclip"><rect width="700" height="380"/></clipPath><clipPath class="axesclip" id="clipc9e67dx"><rect x="50" y="0" width="700" height="500"/></clipPath><clipPath class="axesclip" id="clipc9e67dy"><rect x="0" y="70" width="750" height="380"/></clipPath><clipPath class="axesclip" id="clipc9e67dxy"><rect x="50" y="70" width="700" height="380"/></clipPath></g><g class="gradients"/></defs><g class="bglayer"><rect class="bg" x="50" y="70" width="700" height="380" style="fill: rgb(0, 0, 0); fill-opacity: 0; stroke-width: 0;"/></g><g class="layer-below"><g class="imagelayer"/><g class="shapelayer"/></g><g class="cartesianlayer"><g class="subplot xy"><g class="layer-subplot"><g class="shapelayer"/><g class="imagelayer"/></g><g class="gridlayer"><g class="x"><path class="xgrid crisp" transform="translate(111.93,0)" d="M0,70v380" style="stroke: rgb(255, 255, 255); stroke-opacity: 1; stroke-width: 1px;"/><path class="xgrid crisp" transform="translate(226.41,0)" d="M0,70v380" style="stroke: rgb(255, 255, 255); stroke-opacity: 1; stroke-width: 1px;"/><path class="xgrid crisp" transform="translate(337.13,0)" d="M0,70v380" style="stroke: rgb(255, 255, 255); stroke-opacity: 1; stroke-width: 1px;"/><path class="xgrid crisp" transform="translate(451.61,0)" d="M0,70v380" style="stroke: rgb(255, 255, 255); stroke-opacity: 1; stroke-width: 1px;"/><path class="xgrid crisp" transform="translate(566.09,0)" d="M0,70v380" style="stroke: rgb(255, 255, 255); stroke-opacity: 1; stroke-width: 1px;"/><path class="xgrid crisp" transform="translate(682.44,0)" d="M0,70v380" style="stroke: rgb(255, 255, 255); stroke-opacity: 1; stroke-width: 1px;"/></g><g class="y"/></g><g class="zerolinelayer"/><path class="xlines-below"/><path class="ylines-below"/><g class="overlines-below"/><g class="xaxislayer-below"/><g class="yaxislayer-below"/><g class="overaxes-below"/><g class="plot" transform="translate(50, 70)" clip-path="url('#clipc9e67dxyplot')"><g class="scatterlayer mlayer"><g class="trace scatter trace044671" style="stroke-miterlimit: 2;"><g class="fills"><g><path class="js-fill" d="M668.1,380L-255.23,380L-255.23,372.13L-242.09,375.38L-240.21,375.49L-232.71,374.99L-230.83,376.42L-191.42,378.4L-189.54,378.51L-176.41,378.68L-174.53,378.68L-118.23,376.37L-116.35,375.82L-97.59,375.1L-95.71,374.44L-86.33,369.81L-84.45,368.88L-67.56,355.39L-65.68,355.22L-61.93,355.72L-60.05,353.02L-52.55,353.85L-50.67,354.18L-48.79,354.18L-46.92,357.48L-39.41,352.53L-37.53,349.44L-35.66,348.18L-33.78,343.88L-31.9,341.46L-30.03,341.9L-26.27,339.97L-24.4,343.33L-20.64,344.32L-18.77,346.31L-16.89,345.59L-15.01,346.09L-13.14,347.3L-11.26,346.69L-9.38,347.13L-7.51,351.37L-3.75,355.22L-1.88,355.33L0,355.5L1.88,353.52L3.75,353.24L5.63,347.9L9.38,334.08L11.26,329.18L13.14,321.09L15.01,319.38L16.89,319.27L18.77,309.09L20.64,303.2L22.52,293.45L26.27,267.68L28.15,260.86L30.03,260.09L31.9,231.79L37.53,156.14L39.41,127.18L41.29,105.16L43.16,102.68L46.92,46.8L48.79,25.05L50.67,21.47L52.55,9.52L54.42,9.63L56.3,8.09L58.18,0L60.05,2.37L63.81,17.67L65.68,41.62L67.56,57.97L69.44,61.33L75.07,187.36L76.94,199.36L78.82,215.49L80.7,221.55L82.57,221.88L84.45,237.95L86.33,247.92L88.2,231.18L90.08,253.87L91.96,260.86L93.83,264.55L95.71,264.44L97.59,277.32L99.46,284.75L105.09,305.45L106.97,308.81L108.85,309.47L110.72,312.28L112.6,313.49L114.48,311.4L123.86,305.95L125.74,306.17L129.49,309.75L131.37,307.33L133.24,305.67L135.12,305.62L138.87,299.01L140.75,296.15L142.63,287.78L144.5,285.25L146.38,279.91L148.26,279.36L152.01,272.64L153.89,265.81L155.76,271.98L157.64,286.68L159.52,297.31L161.39,296.92L163.27,287.17L165.15,281.72L168.9,274.84L170.78,275.28L172.65,259.48L174.53,259.65L176.41,263.67L178.28,265.37L180.16,275.56L182.04,275.17L183.91,256.12L185.79,263.56L189.54,261.41L191.42,264L195.17,258.22L197.05,260.25L198.93,258.16L200.8,258.66L202.68,262.12L204.56,258.93L206.43,254.14L208.31,251.83L210.19,246.16L212.06,245.44L213.94,245.83L215.82,242.58L219.57,244.51L221.45,242.41L225.2,245.61L227.08,245.61L228.95,244.51L230.83,247.75L232.71,252.82L234.58,260.47L238.34,267.24L240.21,267.74L242.09,275.5L243.97,277.76L247.72,282.61L249.6,286.13L251.47,287.17L253.35,287.28L255.23,289.27L257.1,289.43L264.61,283.76L266.49,283.71L268.36,282.61L270.24,283.27L273.99,285.03L275.87,284.31L277.75,285.36L279.62,285.41L281.5,285.08L283.38,283.49L287.13,278.86L289.01,278.81L290.88,276.6L292.76,276.6L294.64,275.78L296.51,276.11L298.39,271.7L300.27,269.61L304.02,265.65L305.9,265.1L309.65,253.7L311.53,251.55L315.28,243.46L317.16,243.07L319.03,242.3L320.91,236.08L322.79,231.84L324.66,231.84L326.54,231.68L328.42,225.68L330.29,220.89L332.17,221.44L335.92,214.61L337.8,209.6L339.68,203.71L341.55,229.64L343.43,220.17L345.31,219.57L347.18,254.86L349.06,234.49L350.94,229.48L352.82,227.33L354.69,196.72L356.57,201.51L358.45,201.67L360.32,163.96L362.2,187.58L364.08,193.85L365.95,198.92L367.83,206.79L369.71,212.96L371.58,212.3L373.46,218.08L375.34,218.68L377.21,220.78L379.09,220.94L382.84,225.07L384.72,226.06L386.6,228.04L388.47,233.82L392.23,244.34L394.1,246.27L395.98,258.99L397.86,258.1L399.73,263.39L401.61,266.03L403.49,269.34L405.36,275.23L407.24,278.64L409.12,279.63L410.99,281.23L412.87,286.68L414.75,286.02L416.62,287.73L418.5,299.78L420.38,297.25L422.25,290.81L424.13,289.93L427.88,299.4L429.76,301.05L431.64,292.68L433.51,300.39L437.27,302.98L439.14,317.84L441.02,315.86L442.9,315.47L450.4,317.95L452.28,306.88L454.16,317.07L456.03,322.8L461.66,332.16L463.54,332.98L472.92,350.16L474.8,352.14L476.68,351.87L478.55,356.66L482.31,360.68L484.18,362.11L486.06,363.76L487.94,363.65L489.81,364.2L491.69,365.69L495.44,365.52L497.32,365.96L499.2,366.18L501.07,367.28L504.83,368L506.7,369.76L516.09,370.48L517.96,369.54L519.84,368.27L521.72,365.8L525.47,358.42L527.35,356.93L529.22,356.55L531.1,353.19L532.98,348.34L534.85,350.16L540.48,335.84L542.36,332.93L547.99,299.89L549.87,293.67L553.62,281.72L555.5,282L557.37,271.81L559.25,268.29L561.13,265.65L563,265.32L568.63,269.78L570.51,277.59L572.39,277.21L574.26,281.61L576.14,283.16L578.02,283.54L579.89,284.2L581.77,282.77L583.65,281.01L585.52,283.38L587.4,284.37L589.28,281.89L593.03,280.84L594.91,282.33L604.29,292.9L606.17,293.07L608.04,292.24L609.92,292.79L611.8,293.84L613.67,289.43L619.3,295.87L621.18,295.93L624.93,295.71L626.81,298.63L628.69,299.56L630.56,298.08L632.44,297.2L634.32,297.42L636.19,300.99L638.07,302.76L643.7,313.11L645.58,317.84L647.45,318.34L649.33,323.57L651.21,325.66L653.08,329.35L656.84,332.43L658.71,332.43L660.59,333.37L662.47,338.87L666.22,345.86L668.1,347.96" style="fill: rgb(8, 115, 191); fill-opacity: 0.2; stroke-width: 0;"/></g></g><g class="errorbars"/><g class="lines"><path class="js-line" d="M-255.23,372.13L-242.09,375.38L-240.21,375.49L-232.71,374.99L-230.83,376.42L-191.42,378.4L-189.54,378.51L-176.41,378.68L-174.53,378.68L-118.23,376.37L-116.35,375.82L-97.59,375.1L-95.71,374.44L-86.33,369.81L-84.45,368.88L-67.56,355.39L-65.68,355.22L-61.93,355.72L-60.05,353.02L-52.55,353.85L-50.67,354.18L-48.79,354.18L-46.92,357.48L-39.41,352.53L-37.53,349.44L-35.66,348.18L-33.78,343.88L-31.9,341.46L-30.03,341.9L-26.27,339.97L-24.4,343.33L-20.64,344.32L-18.77,346.31L-16.89,345.59L-15.01,346.09L-13.14,347.3L-11.26,346.69L-9.38,347.13L-7.51,351.37L-3.75,355.22L-1.88,355.33L0,355.5L1.88,353.52L3.75,353.24L5.63,347.9L9.38,334.08L11.26,329.18L13.14,321.09L15.01,319.38L16.89,319.27L18.77,309.09L20.64,303.2L22.52,293.45L26.27,267.68L28.15,260.86L30.03,260.09L31.9,231.79L37.53,156.14L39.41,127.18L41.29,105.16L43.16,102.68L46.92,46.8L48.79,25.05L50.67,21.47L52.55,9.52L54.42,9.63L56.3,8.09L58.18,0L60.05,2.37L63.81,17.67L65.68,41.62L67.56,57.97L69.44,61.33L75.07,187.36L76.94,199.36L78.82,215.49L80.7,221.55L82.57,221.88L84.45,237.95L86.33,247.92L88.2,231.18L90.08,253.87L91.96,260.86L93.83,264.55L95.71,264.44L97.59,277.32L99.46,284.75L105.09,305.45L106.97,308.81L108.85,309.47L110.72,312.28L112.6,313.49L114.48,311.4L123.86,305.95L125.74,306.17L129.49,309.75L131.37,307.33L133.24,305.67L135.12,305.62L138.87,299.01L140.75,296.15L142.63,287.78L144.5,285.25L146.38,279.91L148.26,279.36L152.01,272.64L153.89,265.81L155.76,271.98L157.64,286.68L159.52,297.31L161.39,296.92L163.27,287.17L165.15,281.72L168.9,274.84L170.78,275.28L172.65,259.48L174.53,259.65L176.41,263.67L178.28,265.37L180.16,275.56L182.04,275.17L183.91,256.12L185.79,263.56L189.54,261.41L191.42,264L195.17,258.22L197.05,260.25L198.93,258.16L200.8,258.66L202.68,262.12L204.56,258.93L206.43,254.14L208.31,251.83L210.19,246.16L212.06,245.44L213.94,245.83L215.82,242.58L219.57,244.51L221.45,242.41L225.2,245.61L227.08,245.61L228.95,244.51L230.83,247.75L232.71,252.82L234.58,260.47L238.34,267.24L240.21,267.74L242.09,275.5L243.97,277.76L247.72,282.61L249.6,286.13L251.47,287.17L253.35,287.28L255.23,289.27L257.1,289.43L264.61,283.76L266.49,283.71L268.36,282.61L270.24,283.27L273.99,285.03L275.87,284.31L277.75,285.36L279.62,285.41L281.5,285.08L283.38,283.49L287.13,278.86L289.01,278.81L290.88,276.6L292.76,276.6L294.64,275.78L296.51,276.11L298.39,271.7L300.27,269.61L304.02,265.65L305.9,265.1L309.65,253.7L311.53,251.55L315.28,243.46L317.16,243.07L319.03,242.3L320.91,236.08L322.79,231.84L324.66,231.84L326.54,231.68L328.42,225.68L330.29,220.89L332.17,221.44L335.92,214.61L337.8,209.6L339.68,203.71L341.55,229.64L343.43,220.17L345.31,219.57L347.18,254.86L349.06,234.49L350.94,229.48L352.82,227.33L354.69,196.72L356.57,201.51L358.45,201.67L360.32,163.96L362.2,187.58L364.08,193.85L365.95,198.92L367.83,206.79L369.71,212.96L371.58,212.3L373.46,218.08L375.34,218.68L377.21,220.78L379.09,220.94L382.84,225.07L384.72,226.06L386.6,228.04L388.47,233.82L392.23,244.34L394.1,246.27L395.98,258.99L397.86,258.1L399.73,263.39L401.61,266.03L403.49,269.34L405.36,275.23L407.24,278.64L409.12,279.63L410.99,281.23L412.87,286.68L414.75,286.02L416.62,287.73L418.5,299.78L420.38,297.25L422.25,290.81L424.13,289.93L427.88,299.4L429.76,301.05L431.64,292.68L433.51,300.39L437.27,302.98L439.14,317.84L441.02,315.86L442.9,315.47L450.4,317.95L452.28,306.88L454.16,317.07L456.03,322.8L461.66,332.16L463.54,332.98L472.92,350.16L474.8,352.14L476.68,351.87L478.55,356.66L482.31,360.68L484.18,362.11L486.06,363.76L487.94,363.65L489.81,364.2L491.69,365.69L495.44,365.52L497.32,365.96L499.2,366.18L501.07,367.28L504.83,368L506.7,369.76L516.09,370.48L517.96,369.54L519.84,368.27L521.72,365.8L525.47,358.42L527.35,356.93L529.22,356.55L531.1,353.19L532.98,348.34L534.85,350.16L540.48,335.84L542.36,332.93L547.99,299.89L549.87,293.67L553.62,281.72L555.5,282L557.37,271.81L559.25,268.29L561.13,265.65L563,265.32L568.63,269.78L570.51,277.59L572.39,277.21L574.26,281.61L576.14,283.16L578.02,283.54L579.89,284.2L581.77,282.77L583.65,281.01L585.52,283.38L587.4,284.37L589.28,281.89L593.03,280.84L594.91,282.33L604.29,292.9L606.17,293.07L608.04,292.24L609.92,292.79L611.8,293.84L613.67,289.43L619.3,295.87L621.18,295.93L624.93,295.71L626.81,298.63L628.69,299.56L630.56,298.08L632.44,297.2L634.32,297.42L636.19,300.99L638.07,302.76L643.7,313.11L645.58,317.84L647.45,318.34L649.33,323.57L651.21,325.66L653.08,329.35L656.84,332.43L658.71,332.43L660.59,333.37L662.47,338.87L666.22,345.86L668.1,347.96" style="vector-effect: non-scaling-stroke; fill: none; stroke: rgb(8, 115, 191); stroke-opacity: 1; stroke-width: 0.5px; opacity: 1;"/></g><g class="points"/><g class="text"/></g><g class="trace scatter trace344ca9" style="stroke-miterlimit: 2;"><g class="fills"><g><path class="js-fill" d="M686.86,380L668.1,380L668.1,347.96L669.97,351.59L671.85,353.46L675.6,353.85L677.48,355.78L686.86,358.8" style="fill: rgb(8, 115, 191); fill-opacity: 0.4; stroke-width: 0;"/></g></g><g class="errorbars"/><g class="lines"><path class="js-line" d="M668.1,347.96L669.97,351.59L671.85,353.46L675.6,353.85L677.48,355.78L686.86,358.8" style="vector-effect: non-scaling-stroke; fill: none; stroke: rgb(8, 115, 191); stroke-opacity: 1; stroke-width: 2px; opacity: 1;"/></g><g class="points"/><g class="text"/></g><g class="trace scatter trace6376be" style="stroke-miterlimit: 2; opacity: 1;"><g class="fills"/><g class="errorbars"/><g class="lines"/><g class="points"><path class="point" transform="translate(686.86,358.8)" d="M15,0A15,15 0 1,1 0,-15A15,15 0 0,1 15,0Z" style="opacity: 1; stroke-width: 0px; fill: rgb(8, 115, 191); fill-opacity: 1;"/></g><g class="text"/></g></g></g><g class="overplot"/><path class="xlines-above crisp" style="fill: none; stroke-width: 1px; stroke: rgb(0, 0, 0); stroke-opacity: 0;" d=""/><path class="ylines-above crisp" style="fill: none;" d="M0,0"/><g class="overlines-above"/><g class="xaxislayer-above"><path class="xtick ticks crisp" d="M0,450v-5" transform="translate(111.93,0)" style="stroke: rgb(68, 68, 68); stroke-opacity: 1; stroke-width: 1px;"/><path class="xtick ticks crisp" d="M0,450v-5" transform="translate(226.41,0)" style="stroke: rgb(68, 68, 68); stroke-opacity: 1; stroke-width: 1px;"/><path class="xtick ticks crisp" d="M0,450v-5" transform="translate(337.13,0)" style="stroke: rgb(68, 68, 68); stroke-opacity: 1; stroke-width: 1px;"/><path class="xtick ticks crisp" d="M0,450v-5" transform="translate(451.61,0)" style="stroke: rgb(68, 68, 68); stroke-opacity: 1; stroke-width: 1px;"/><path class="xtick ticks crisp" d="M0,450v-5" transform="translate(566.09,0)" style="stroke: rgb(68, 68, 68); stroke-opacity: 1; stroke-width: 1px;"/><path class="xtick ticks crisp" d="M0,450v-5" transform="translate(682.44,0)" style="stroke: rgb(68, 68, 68); stroke-opacity: 1; stroke-width: 1px;"/><g class="xtick"><text text-anchor="middle" x="0" y="469" transform="translate(111.93,0)" style="font-family: 'Open Sans', verdana, arial, sans-serif; font-size: 18px; fill: rgb(42, 63, 95); fill-opacity: 1; white-space: pre;">01/11</text></g><g class="xtick"><text text-anchor="middle" x="0" y="469" transform="translate(226.41,0)" style="font-family: 'Open Sans', verdana, arial, sans-serif; font-size: 18px; fill: rgb(42, 63, 95); fill-opacity: 1; white-space: pre;">01/01</text></g><g class="xtick"><text text-anchor="middle" x="0" y="469" transform="translate(337.13,0)" style="font-family: 'Open Sans', verdana, arial, sans-serif; font-size: 18px; fill: rgb(42, 63, 95); fill-opacity: 1; white-space: pre;">01/03</text></g><g class="xtick"><text text-anchor="middle" x="0" y="469" transform="translate(451.61,0)" style="font-family: 'Open Sans', verdana, arial, sans-serif; font-size: 18px; fill: rgb(42, 63, 95); fill-opacity: 1; white-space: pre;">01/05</text></g><g class="xtick"><text text-anchor="middle" x="0" y="469" transform="translate(566.09,0)" style="font-family: 'Open Sans', verdana, arial, sans-serif; font-size: 18px; fill: rgb(42, 63, 95); fill-opacity: 1; white-space: pre;">01/07</text></g><g class="xtick"><text text-anchor="middle" x="0" y="469" transform="translate(682.44,0)" style="font-family: 'Open Sans', verdana, arial, sans-serif; font-size: 18px; fill: rgb(42, 63, 95); fill-opacity: 1; white-space: pre;">01/09</text></g></g><g class="yaxislayer-above"/><g class="overaxes-above"/></g></g><g class="polarlayer"/><g class="ternarylayer"/><g class="geolayer"/><g class="funnelarealayer"/><g class="pielayer"/><g class="treemaplayer"/><g class="sunburstlayer"/><g class="glimages"/><defs id="topdefs-c9e67d"><g class="clips"/></defs><g class="layer-above"><g class="imagelayer"/><g class="shapelayer"><path data-index="0" fill-rule="evenodd" d="M-1004.69,418.82L367.16,418.82" clip-path="url('#clipc9e67dxy')" style="opacity: 1; stroke: rgb(255, 0, 0); stroke-opacity: 1; fill: rgb(0, 0, 0); fill-opacity: 0; stroke-dasharray: 3px, 3px; stroke-width: 1.5px;"/></g></g><g class="infolayer"><g class="g-gtitle"><text class="gtitle" x="375" y="25" text-anchor="middle" dy="0.7em" style="font-family: 'Open Sans', verdana, arial, sans-serif; font-size: 50px; fill: rgb(42, 63, 95); opacity: 1; font-weight: normal; white-space: pre;"><tspan style="font-weight:bold">Bas-Rhin (67)</tspan></text></g><g class="g-xtitle"/><g class="annotation" data-index="0" style="opacity: 1;"><g class="annotation-text-g" transform="rotate(0,694.86,368.8)"><g class="cursor-pointer" transform="translate(651, 333)"><rect class="bg" x="0.5" y="0.5" width="86" height="71" style="stroke-width: 1px; stroke: rgb(0, 0, 0); stroke-opacity: 0; fill: rgb(255, 255, 255); fill-opacity: 0.6;"/><text class="annotation-text" text-anchor="middle" x="43.53125" y="55.5" style="font-family: 'Open Sans', verdana, arial, sans-serif; font-size: 50px; fill: rgb(8, 115, 191); fill-opacity: 1; white-space: pre;"> <tspan style="font-weight:bold">33 </tspan></text></g></g><g class="annotation-arrow-g" style="opacity: 1;"><path d="M723.26,404.3L734.86,418.8" style="stroke-width: 1px; stroke: rgb(8, 115, 191); stroke-opacity: 1; stroke-dasharray: 0px, 0px, 18.569px, 18.569px;"/></g></g></g></svg>