<svg class="main-svg" xmlns="http://www.w3.org/2000/svg" xmlns:xlink="http://www.w3.org/1999/xlink" width="1125" height="750" style="" viewBox="0 0 750 500"><rect x="0" y="0" width="750" height="500" style="fill: rgb(0, 0, 0); fill-opacity: 0;"/><defs id="defs-742c4d"><g class="clips"><clipPath id="clip742c4dxyplot" class="plotclip"><rect width="700" height="380"/></clipPath><clipPath class="axesclip" id="clip742c4dx"><rect x="50" y="0" width="700" height="500"/></clipPath><clipPath class="axesclip" id="clip742c4dy"><rect x="0" y="70" width="750" height="380"/></clipPath><clipPath class="axesclip" id="clip742c4dxy"><rect x="50" y="70" width="700" height="380"/></clipPath></g><g class="gradients"/></defs><g class="bglayer"><rect class="bg" x="50" y="70" width="700" height="380" style="fill: rgb(0, 0, 0); fill-opacity: 0; stroke-width: 0;"/></g><g class="layer-below"><g class="imagelayer"/><g class="shapelayer"/></g><g class="cartesianlayer"><g class="subplot xy"><g class="layer-subplot"><g class="shapelayer"/><g class="imagelayer"/></g><g class="gridlayer"><g class="x"><path class="xgrid crisp" transform="translate(111.11,0)" d="M0,70v380" style="stroke: rgb(255, 255, 255); stroke-opacity: 1; stroke-width: 1px;"/><path class="xgrid crisp" transform="translate(224.07,0)" d="M0,70v380" style="stroke: rgb(255, 255, 255); stroke-opacity: 1; stroke-width: 1px;"/><path class="xgrid crisp" transform="translate(333.33,0)" d="M0,70v380" style="stroke: rgb(255, 255, 255); stroke-opacity: 1; stroke-width: 1px;"/><path class="xgrid crisp" transform="translate(446.3,0)" d="M0,70v380" style="stroke: rgb(255, 255, 255); stroke-opacity: 1; stroke-width: 1px;"/><path class="xgrid crisp" transform="translate(559.26,0)" d="M0,70v380" style="stroke: rgb(255, 255, 255); stroke-opacity: 1; stroke-width: 1px;"/><path class="xgrid crisp" transform="translate(674.07,0)" d="M0,70v380" style="stroke: rgb(255, 255, 255); stroke-opacity: 1; stroke-width: 1px;"/></g><g class="y"/></g><g class="zerolinelayer"/><path class="xlines-below"/><path class="ylines-below"/><g class="overlines-below"/><g class="xaxislayer-below"/><g class="yaxislayer-below"/><g class="overaxes-below"/><g class="plot" transform="translate(50, 70)" clip-path="url('#clip742c4dxyplot')"><g class="scatterlayer mlayer"><g class="trace scatter trace0caedf" style="stroke-miterlimit: 2;"><g class="fills"><g><path class="js-fill" d="M668.52,380L-251.85,380L-251.85,375.76L-242.59,376.67L-240.74,376.67L-220.37,378.48L-218.52,378.48L-188.89,378.48L-187.04,379.09L-166.67,378.18L-164.81,378.33L-157.41,378.33L-155.56,378.64L-131.48,378.03L-129.63,378.79L-118.52,376.82L-116.67,376.67L-107.41,375.45L-105.56,374.69L-96.3,372.88L-94.44,373.79L-85.19,370L-83.33,367.42L-79.63,365.9L-77.78,366.96L-72.22,365.6L-70.37,365.3L-61.11,353.17L-59.26,347.71L-55.56,345.9L-53.7,346.5L-51.85,343.17L-50,343.32L-46.3,342.71L-44.44,338.62L-40.74,327.86L-38.89,328.77L-37.04,325.43L-35.19,326.04L-31.48,314.82L-29.63,313L-27.78,313.46L-25.93,311.64L-22.22,311.64L-20.37,313.16L-18.52,305.73L-16.67,304.21L-12.96,299.06L-11.11,302.09L-9.26,302.54L-7.41,305.58L-5.56,314.06L-3.7,316.79L0,315.43L1.85,313.31L3.7,312.25L5.56,303.45L7.41,298.76L9.26,288.9L12.96,276.93L14.81,273.75L16.67,272.38L18.52,263.89L24.07,242.07L25.93,218.12L27.78,217.51L29.63,214.48L31.48,207.36L33.33,190.68L37.04,160.82L38.89,153.39L40.74,148.7L42.59,147.48L48.15,83.06L50,68.06L51.85,59.42L53.7,55.17L55.56,54.57L57.41,45.17L61.11,56.84L62.96,59.72L64.81,74.42L66.67,75.94L68.52,77.91L70.37,94.58L72.22,108.38L74.07,152.79L77.78,172.95L79.63,176.89L81.48,179.47L83.33,196.29L85.19,212.36L87.04,195.99L88.89,217.06L90.74,227.67L92.59,234.49L94.44,234.03L96.3,248.13L98.15,255.86L103.7,288.45L105.56,289.96L107.41,292.54L109.26,299.97L111.11,307.24L112.96,302.85L114.81,301.18L116.67,294.06L118.52,293.15L120.37,294.51L122.22,293.91L124.07,294.81L125.93,300.42L127.78,302.09L129.63,309.06L131.48,308.76L138.89,303.3L140.74,303.3L142.59,299.51L144.44,297.85L146.3,298.91L148.15,291.03L151.85,287.54L153.7,290.27L155.56,305.27L157.41,306.64L161.11,307.85L162.96,310.88L164.81,310.43L166.67,311.03L168.52,311.64L170.37,310.58L172.22,309.06L174.07,302.85L175.93,297.39L177.78,295.42L179.63,291.78L181.48,278.75L183.33,279.96L185.19,279.05L187.04,286.78L188.89,285.57L190.74,288.75L192.59,287.39L196.3,282.69L198.15,284.05L200,285.11L201.85,290.57L203.7,286.63L205.56,285.72L207.41,280.57L209.26,279.05L211.11,278.6L212.96,274.81L214.81,267.53L216.67,263.74L220.37,247.07L222.22,243.28L224.07,241.61L225.93,233.88L227.78,231.3L229.63,230.39L231.48,229.94L233.33,226.91L235.19,229.49L237.04,230.24L238.89,226.15L240.74,226L244.44,230.39L246.3,241.31L248.15,244.19L250,245.25L251.85,252.52L253.7,251.77L255.56,241.31L257.41,238.43L261.11,222.97L262.96,221.3L264.81,207.36L266.67,207.2L268.52,210.69L270.37,201.6L272.22,201.75L274.07,206.9L277.78,205.08L279.63,200.08L281.48,194.77L283.33,197.35L287.04,178.56L288.89,180.53L292.59,173.25L294.44,167.95L298.15,155.67L300,154.61L301.85,154.46L303.7,138.99L311.11,79.27L312.96,73.51L314.81,72.91L316.67,51.69L318.52,42.44L320.37,29.1L324.07,11.07L325.93,8.03L327.78,9.4L329.63,7.58L331.48,0L333.33,11.67L337.04,36.98L338.89,42.29L340.74,41.53L342.59,118.99L346.3,98.98L348.15,98.07L350,108.68L351.85,105.19L353.7,104.89L355.56,47.75L357.41,89.13L359.26,105.95L364.81,133.08L366.67,132.78L368.52,140.36L370.37,141.12L372.22,137.18L374.07,146.42L379.63,147.79L381.48,150.67L383.33,154.76L385.19,169.16L388.89,178.1L390.74,195.08L392.59,196.14L394.44,211.3L396.3,209.63L398.15,215.09L400,217.51L401.85,224.48L405.56,225.85L407.41,227.82L409.26,241.76L411.11,245.1L412.96,271.47L414.81,268.29L416.67,255.71L418.52,256.31L420.37,255.25L422.22,245.7L424.07,243.13L425.93,222.36L427.78,225.54L429.63,226L431.48,224.18L433.33,257.98L435.19,258.13L437.04,266.62L438.89,271.17L440.74,279.2L442.59,285.27L444.44,287.24L446.3,269.8L448.15,282.39L455.56,299.36L457.41,299.21L466.67,339.53L468.52,342.41L470.37,343.02L472.22,350.44L474.07,356.05L475.93,358.48L477.78,358.63L479.63,360.75L481.48,362.27L483.33,361.96L487.04,365.6L488.89,366.06L492.59,369.09L494.44,368.48L500,368.78L501.85,368.48L503.7,367.12L505.56,367.12L509.26,366.96L511.11,367.57L512.96,364.54L514.81,358.78L516.67,358.48L518.52,356.66L522.22,354.84L524.07,350.75L525.93,347.26L527.78,353.78L529.63,349.68L531.48,347.87L533.33,342.41L535.19,342.71L537.04,333.77L538.89,331.95L540.74,324.07L542.59,322.1L544.44,318.76L546.3,317.7L548.15,316.64L550,309.82L551.85,304.97L553.7,296.33L557.41,288.15L559.26,288.45L561.11,288.15L562.96,291.78L564.81,289.21L566.67,291.03L568.52,288.9L570.37,289.21L572.22,287.69L574.07,287.54L575.93,287.99L577.78,287.08L581.48,291.03L583.33,292.24L590.74,292.39L592.59,289.36L594.44,286.02L596.3,288.75L600,288.9L601.85,284.36L605.56,292.54L607.41,298.15L609.26,292.39L611.11,294.81L612.96,294.97L614.81,301.64L616.67,303.76L618.52,301.94L620.37,305.88L622.22,312.09L625.93,312.7L627.78,315.28L629.63,317.85L631.48,321.95L633.33,322.25L635.19,323.46L637.04,327.86L638.89,327.86L640.74,334.53L642.59,337.71L646.3,345.14L648.15,347.11L651.85,346.96L653.7,343.77L655.56,344.53L657.41,343.32L659.26,343.17L661.11,344.83L662.96,346.96L664.81,347.11L666.67,351.5L668.52,352.72" style="fill: rgb(8, 115, 191); fill-opacity: 0.2; stroke-width: 0;"/></g></g><g class="errorbars"/><g class="lines"><path class="js-line" d="M-251.85,375.76L-242.59,376.67L-240.74,376.67L-220.37,378.48L-218.52,378.48L-188.89,378.48L-187.04,379.09L-166.67,378.18L-164.81,378.33L-157.41,378.33L-155.56,378.64L-131.48,378.03L-129.63,378.79L-118.52,376.82L-116.67,376.67L-107.41,375.45L-105.56,374.69L-96.3,372.88L-94.44,373.79L-85.19,370L-83.33,367.42L-79.63,365.9L-77.78,366.96L-72.22,365.6L-70.37,365.3L-61.11,353.17L-59.26,347.71L-55.56,345.9L-53.7,346.5L-51.85,343.17L-50,343.32L-46.3,342.71L-44.44,338.62L-40.74,327.86L-38.89,328.77L-37.04,325.43L-35.19,326.04L-31.48,314.82L-29.63,313L-27.78,313.46L-25.93,311.64L-22.22,311.64L-20.37,313.16L-18.52,305.73L-16.67,304.21L-12.96,299.06L-11.11,302.09L-9.26,302.54L-7.41,305.58L-5.56,314.06L-3.7,316.79L0,315.43L1.85,313.31L3.7,312.25L5.56,303.45L7.41,298.76L9.26,288.9L12.96,276.93L14.81,273.75L16.67,272.38L18.52,263.89L24.07,242.07L25.93,218.12L27.78,217.51L29.63,214.48L31.48,207.36L33.33,190.68L37.04,160.82L38.89,153.39L40.74,148.7L42.59,147.48L48.15,83.06L50,68.06L51.85,59.42L53.7,55.17L55.56,54.57L57.41,45.17L61.11,56.84L62.96,59.72L64.81,74.42L66.67,75.94L68.52,77.91L70.37,94.58L72.22,108.38L74.07,152.79L77.78,172.95L79.63,176.89L81.48,179.47L83.33,196.29L85.19,212.36L87.04,195.99L88.89,217.06L90.74,227.67L92.59,234.49L94.44,234.03L96.3,248.13L98.15,255.86L103.7,288.45L105.56,289.96L107.41,292.54L109.26,299.97L111.11,307.24L112.96,302.85L114.81,301.18L116.67,294.06L118.52,293.15L120.37,294.51L122.22,293.91L124.07,294.81L125.93,300.42L127.78,302.09L129.63,309.06L131.48,308.76L138.89,303.3L140.74,303.3L142.59,299.51L144.44,297.85L146.3,298.91L148.15,291.03L151.85,287.54L153.7,290.27L155.56,305.27L157.41,306.64L161.11,307.85L162.96,310.88L164.81,310.43L166.67,311.03L168.52,311.64L170.37,310.58L172.22,309.06L174.07,302.85L175.93,297.39L177.78,295.42L179.63,291.78L181.48,278.75L183.33,279.96L185.19,279.05L187.04,286.78L188.89,285.57L190.74,288.75L192.59,287.39L196.3,282.69L198.15,284.05L200,285.11L201.85,290.57L203.7,286.63L205.56,285.72L207.41,280.57L209.26,279.05L211.11,278.6L212.96,274.81L214.81,267.53L216.67,263.74L220.37,247.07L222.22,243.28L224.07,241.61L225.93,233.88L227.78,231.3L229.63,230.39L231.48,229.94L233.33,226.91L235.19,229.49L237.04,230.24L238.89,226.15L240.74,226L244.44,230.39L246.3,241.31L248.15,244.19L250,245.25L251.85,252.52L253.7,251.77L255.56,241.31L257.41,238.43L261.11,222.97L262.96,221.3L264.81,207.36L266.67,207.2L268.52,210.69L270.37,201.6L272.22,201.75L274.07,206.9L277.78,205.08L279.63,200.08L281.48,194.77L283.33,197.35L287.04,178.56L288.89,180.53L292.59,173.25L294.44,167.95L298.15,155.67L300,154.61L301.85,154.46L303.7,138.99L311.11,79.27L312.96,73.51L314.81,72.91L316.67,51.69L318.52,42.44L320.37,29.1L324.07,11.07L325.93,8.03L327.78,9.4L329.63,7.58L331.48,0L333.33,11.67L337.04,36.98L338.89,42.29L340.74,41.53L342.59,118.99L346.3,98.98L348.15,98.07L350,108.68L351.85,105.19L353.7,104.89L355.56,47.75L357.41,89.13L359.26,105.95L364.81,133.08L366.67,132.78L368.52,140.36L370.37,141.12L372.22,137.18L374.07,146.42L379.63,147.79L381.48,150.67L383.33,154.76L385.19,169.16L388.89,178.1L390.74,195.08L392.59,196.14L394.44,211.3L396.3,209.63L398.15,215.09L400,217.51L401.85,224.48L405.56,225.85L407.41,227.82L409.26,241.76L411.11,245.1L412.96,271.47L414.81,268.29L416.67,255.71L418.52,256.31L420.37,255.25L422.22,245.7L424.07,243.13L425.93,222.36L427.78,225.54L429.63,226L431.48,224.18L433.33,257.98L435.19,258.13L437.04,266.62L438.89,271.17L440.74,279.2L442.59,285.27L444.44,287.24L446.3,269.8L448.15,282.39L455.56,299.36L457.41,299.21L466.67,339.53L468.52,342.41L470.37,343.02L472.22,350.44L474.07,356.05L475.93,358.48L477.78,358.63L479.63,360.75L481.48,362.27L483.33,361.96L487.04,365.6L488.89,366.06L492.59,369.09L494.44,368.48L500,368.78L501.85,368.48L503.7,367.12L505.56,367.12L509.26,366.96L511.11,367.57L512.96,364.54L514.81,358.78L516.67,358.48L518.52,356.66L522.22,354.84L524.07,350.75L525.93,347.26L527.78,353.78L529.63,349.68L531.48,347.87L533.33,342.41L535.19,342.71L537.04,333.77L538.89,331.95L540.74,324.07L542.59,322.1L544.44,318.76L546.3,317.7L548.15,316.64L550,309.82L551.85,304.97L553.7,296.33L557.41,288.15L559.26,288.45L561.11,288.15L562.96,291.78L564.81,289.21L566.67,291.03L568.52,288.9L570.37,289.21L572.22,287.69L574.07,287.54L575.93,287.99L577.78,287.08L581.48,291.03L583.33,292.24L590.74,292.39L592.59,289.36L594.44,286.02L596.3,288.75L600,288.9L601.85,284.36L605.56,292.54L607.41,298.15L609.26,292.39L611.11,294.81L612.96,294.97L614.81,301.64L616.67,303.76L618.52,301.94L620.37,305.88L622.22,312.09L625.93,312.7L627.78,315.28L629.63,317.85L631.48,321.95L633.33,322.25L635.19,323.46L637.04,327.86L638.89,327.86L640.74,334.53L642.59,337.71L646.3,345.14L648.15,347.11L651.85,346.96L653.7,343.77L655.56,344.53L657.41,343.32L659.26,343.17L661.11,344.83L662.96,346.96L664.81,347.11L666.67,351.5L668.52,352.72" style="vector-effect: non-scaling-stroke; fill: none; stroke: rgb(8, 115, 191); stroke-opacity: 1; stroke-width: 0.5px; opacity: 1;"/></g><g class="points"/><g class="text"/></g><g class="trace scatter trace267d55" style="stroke-miterlimit: 2;"><g class="fills"><g><path class="js-fill" d="M687.04,380L668.52,380L668.52,352.72L670.37,353.78L672.22,353.63L674.07,352.11L675.93,352.26L677.78,352.26L679.63,353.47L681.48,353.93L683.33,355.29L685.19,355.75L687.04,357.72" style="fill: rgb(8, 115, 191); fill-opacity: 0.4; stroke-width: 0;"/></g></g><g class="errorbars"/><g class="lines"><path class="js-line" d="M668.52,352.72L670.37,353.78L672.22,353.63L674.07,352.11L675.93,352.26L677.78,352.26L679.63,353.47L681.48,353.93L683.33,355.29L685.19,355.75L687.04,357.72" style="vector-effect: non-scaling-stroke; fill: none; stroke: rgb(8, 115, 191); stroke-opacity: 1; stroke-width: 2px; opacity: 1;"/></g><g class="points"/><g class="text"/></g><g class="trace scatter trace8ace26" style="stroke-miterlimit: 2; opacity: 1;"><g class="fills"/><g class="errorbars"/><g class="lines"/><g class="points"><path class="point" transform="translate(687.04,357.72)" d="M15,0A15,15 0 1,1 0,-15A15,15 0 0,1 15,0Z" style="opacity: 1; stroke-width: 0px; fill: rgb(8, 115, 191); fill-opacity: 1;"/></g><g class="text"/></g></g></g><g class="overplot"/><path class="xlines-above crisp" style="fill: none; stroke-width: 1px; stroke: rgb(0, 0, 0); stroke-opacity: 0;" d=""/><path class="ylines-above crisp" style="fill: none;" d="M0,0"/><g class="overlines-above"/><g class="xaxislayer-above"><path class="xtick ticks crisp" d="M0,450v-5" transform="translate(111.11,0)" style="stroke: rgb(68, 68, 68); stroke-opacity: 1; stroke-width: 1px;"/><path class="xtick ticks crisp" d="M0,450v-5" transform="translate(224.07,0)" style="stroke: rgb(68, 68, 68); stroke-opacity: 1; stroke-width: 1px;"/><path class="xtick ticks crisp" d="M0,450v-5" transform="translate(333.33,0)" style="stroke: rgb(68, 68, 68); stroke-opacity: 1; stroke-width: 1px;"/><path class="xtick ticks crisp" d="M0,450v-5" transform="translate(446.3,0)" style="stroke: rgb(68, 68, 68); stroke-opacity: 1; stroke-width: 1px;"/><path class="xtick ticks crisp" d="M0,450v-5" transform="translate(559.26,0)" style="stroke: rgb(68, 68, 68); stroke-opacity: 1; stroke-width: 1px;"/><path class="xtick ticks crisp" d="M0,450v-5" transform="translate(674.07,0)" style="stroke: rgb(68, 68, 68); stroke-opacity: 1; stroke-width: 1px;"/><g class="xtick"><text text-anchor="middle" x="0" y="469" transform="translate(111.11,0)" style="font-family: 'Open Sans', verdana, arial, sans-serif; font-size: 18px; fill: rgb(42, 63, 95); fill-opacity: 1; white-space: pre;">01/11</text></g><g class="xtick"><text text-anchor="middle" x="0" y="469" transform="translate(224.07,0)" style="font-family: 'Open Sans', verdana, arial, sans-serif; font-size: 18px; fill: rgb(42, 63, 95); fill-opacity: 1; white-space: pre;">01/01</text></g><g class="xtick"><text text-anchor="middle" x="0" y="469" transform="translate(333.33,0)" style="font-family: 'Open Sans', verdana, arial, sans-serif; font-size: 18px; fill: rgb(42, 63, 95); fill-opacity: 1; white-space: pre;">01/03</text></g><g class="xtick"><text text-anchor="middle" x="0" y="469" transform="translate(446.3,0)" style="font-family: 'Open Sans', verdana, arial, sans-serif; font-size: 18px; fill: rgb(42, 63, 95); fill-opacity: 1; white-space: pre;">01/05</text></g><g class="xtick"><text text-anchor="middle" x="0" y="469" transform="translate(559.26,0)" style="font-family: 'Open Sans', verdana, arial, sans-serif; font-size: 18px; fill: rgb(42, 63, 95); fill-opacity: 1; white-space: pre;">01/07</text></g><g class="xtick"><text text-anchor="middle" x="0" y="469" transform="translate(674.07,0)" style="font-family: 'Open Sans', verdana, arial, sans-serif; font-size: 18px; fill: rgb(42, 63, 95); fill-opacity: 1; white-space: pre;">01/09</text></g></g><g class="yaxislayer-above"/><g class="overaxes-above"/></g></g><g class="polarlayer"/><g class="ternarylayer"/><g class="geolayer"/><g class="funnelarealayer"/><g class="pielayer"/><g class="treemaplayer"/><g class="sunburstlayer"/><g class="glimages"/><defs id="topdefs-742c4d"><g class="clips"/></defs><g class="layer-above"><g class="imagelayer"/><g class="shapelayer"><path data-index="0" fill-rule="evenodd" d="M-990.74,404.48L362.96,404.48" clip-path="url('#clip742c4dxy')" style="opacity: 1; stroke: rgb(255, 0, 0); stroke-opacity: 1; fill: rgb(0, 0, 0); fill-opacity: 0; stroke-dasharray: 3px, 3px; stroke-width: 1.5px;"/></g></g><g class="infolayer"><g class="g-gtitle"><text class="gtitle" x="375" y="25" text-anchor="middle" dy="0.7em" style="font-family: 'Open Sans', verdana, arial, sans-serif; font-size: 50px; fill: rgb(42, 63, 95); opacity: 1; font-weight: normal; white-space: pre;"><tspan style="font-weight:bold">Eure (27)</tspan></text></g><g class="g-xtitle"/><g class="annotation" data-index="0" style="opacity: 1;"><g class="annotation-text-g" transform="rotate(0,695.04,367.72)"><g class="cursor-pointer" transform="translate(652, 332)"><rect class="bg" x="0.5" y="0.5" width="86" height="71" style="stroke-width: 1px; stroke: rgb(0, 0, 0); stroke-opacity: 0; fill: rgb(255, 255, 255); fill-opacity: 0.6;"/><text class="annotation-text" text-anchor="middle" x="43.53125" y="55.5" style="font-family: 'Open Sans', verdana, arial, sans-serif; font-size: 50px; fill: rgb(8, 115, 191); fill-opacity: 1; white-space: pre;"> <tspan style="font-weight:bold">24 </tspan></text></g></g><g class="annotation-arrow-g" style="opacity: 1;"><path d="M723.4399999999999,403.22L735.04,417.72" style="stroke-width: 1px; stroke: rgb(8, 115, 191); stroke-opacity: 1; stroke-dasharray: 0px, 0px, 18.569px, 18.569px;"/></g></g></g></svg>