<svg class="main-svg" xmlns="http://www.w3.org/2000/svg" xmlns:xlink="http://www.w3.org/1999/xlink" width="1125" height="750" style="" viewBox="0 0 750 500"><rect x="0" y="0" width="750" height="500" style="fill: rgb(0, 0, 0); fill-opacity: 0;"/><defs id="defs-3c3c6a"><g class="clips"><clipPath id="clip3c3c6axyplot" class="plotclip"><rect width="700" height="380"/></clipPath><clipPath class="axesclip" id="clip3c3c6ax"><rect x="50" y="0" width="700" height="500"/></clipPath><clipPath class="axesclip" id="clip3c3c6ay"><rect x="0" y="70" width="750" height="380"/></clipPath><clipPath class="axesclip" id="clip3c3c6axy"><rect x="50" y="70" width="700" height="380"/></clipPath></g><g class="gradients"/></defs><g class="bglayer"><rect class="bg" x="50" y="70" width="700" height="380" style="fill: rgb(0, 0, 0); fill-opacity: 0; stroke-width: 0;"/></g><g class="layer-below"><g class="imagelayer"/><g class="shapelayer"/></g><g class="cartesianlayer"><g class="subplot xy"><g class="layer-subplot"><g class="shapelayer"/><g class="imagelayer"/></g><g class="gridlayer"><g class="x"><path class="xgrid crisp" transform="translate(109.84,0)" d="M0,70v380" style="stroke: rgb(255, 255, 255); stroke-opacity: 1; stroke-width: 1px;"/><path class="xgrid crisp" transform="translate(220.47,0)" d="M0,70v380" style="stroke: rgb(255, 255, 255); stroke-opacity: 1; stroke-width: 1px;"/><path class="xgrid crisp" transform="translate(327.46,0)" d="M0,70v380" style="stroke: rgb(255, 255, 255); stroke-opacity: 1; stroke-width: 1px;"/><path class="xgrid crisp" transform="translate(438.08,0)" d="M0,70v380" style="stroke: rgb(255, 255, 255); stroke-opacity: 1; stroke-width: 1px;"/><path class="xgrid crisp" transform="translate(548.7,0)" d="M0,70v380" style="stroke: rgb(255, 255, 255); stroke-opacity: 1; stroke-width: 1px;"/><path class="xgrid crisp" transform="translate(661.14,0)" d="M0,70v380" style="stroke: rgb(255, 255, 255); stroke-opacity: 1; stroke-width: 1px;"/></g><g class="y"/></g><g class="zerolinelayer"/><path class="xlines-below"/><path class="ylines-below"/><g class="overlines-below"/><g class="xaxislayer-below"/><g class="yaxislayer-below"/><g class="overaxes-below"/><g class="plot" transform="translate(50, 70)" clip-path="url('#clip3c3c6axyplot')"><g class="scatterlayer mlayer"><g class="trace scatter trace7e232a" style="stroke-miterlimit: 2;"><g class="fills"><g><path class="js-fill" d="M669.17,380L-246.63,380L-246.63,377.52L-232.12,378.61L-230.31,378.3L-221.24,376.9L-219.43,377.21L-206.74,377.37L-204.92,376.13L-192.23,375.2L-190.41,375.67L-181.35,377.99L-179.53,378.92L-155.96,378.45L-154.15,378.3L-146.89,376.44L-145.08,376.75L-134.2,377.99L-132.38,377.68L-117.88,378.14L-116.06,378.61L-108.81,377.83L-106.99,377.99L-96.11,376.9L-94.3,375.98L-83.42,373.81L-81.61,374.27L-72.54,372.73L-70.73,373.03L-67.1,371.33L-65.28,371.18L-61.66,368.55L-59.84,368.24L-52.59,363.75L-50.78,364.52L-45.34,364.99L-43.52,363.75L-41.71,363.13L-39.9,364.21L-32.64,363.9L-30.83,364.68L-23.58,361.58L-21.76,361.74L-19.95,360.34L-18.13,360.81L-16.32,363.13L-14.51,363.59L-12.69,364.06L-10.88,363.59L-9.07,363.28L-7.25,360.81L-5.44,360.19L-3.63,355.85L-1.81,354.31L0,350.44L3.63,349.97L5.44,344.09L9.07,328.3L10.88,313.29L14.51,292.55L16.32,289.3L21.76,242.86L23.58,232.18L25.39,214.22L27.2,213.91L29.02,215.15L30.83,188.99L38.08,64.7L39.9,54.48L41.71,50.92L43.52,18.88L45.34,6.97L47.15,5.73L48.96,0L50.78,5.73L52.59,4.95L54.4,6.04L61.66,50L63.47,67.64L65.28,77.86L67.1,77.86L70.73,121.66L72.54,163.76L74.35,171.35L76.17,186.21L77.98,185.74L79.79,186.83L81.61,212.52L83.42,222.74L85.23,217.16L87.05,247.04L90.67,269.02L92.49,271.34L96.11,297.96L97.93,301.68L99.74,304.46L101.55,305.39L103.37,304.77L105.18,303.23L106.99,299.2L108.81,301.06L110.62,302.14L112.44,302.3L114.25,308.18L116.06,306.48L119.69,311.58L121.5,315.76L125.13,305.24L126.94,304L128.76,305.7L130.57,304.31L132.38,299.36L134.2,285.27L137.82,286.82L139.64,274.9L143.26,249.21L145.08,252.61L146.89,258.34L148.7,255.09L150.52,255.86L152.33,279.08L155.96,302.45L157.77,304L159.59,303.69L161.4,306.63L163.21,305.7L165.03,305.7L166.84,302.45L168.65,301.68L170.47,294.71L172.28,296.57L174.09,292.39L175.91,290.69L177.72,274.9L179.53,277.69L181.35,278.31L183.16,280.16L186.79,270.1L188.6,270.88L194.04,266.23L195.85,260.35L197.67,261.9L199.48,267.32L204.92,248.12L206.74,249.36L208.55,252.46L210.36,252.15L212.18,244.1L213.99,246.42L215.8,251.84L217.62,253.85L221.24,252.61L223.06,253.08L224.87,255.09L226.68,251.37L228.5,250.44L230.31,253.23L232.12,255.09L233.94,255.55L237.56,271.19L239.38,275.52L241.19,284.34L243.01,285.12L244.82,285.27L246.63,297.81L248.45,296.73L250.26,300.13L252.07,306.01L253.89,299.67L255.7,301.37L257.51,301.99L259.33,295.64L261.14,294.56L264.77,286.2L266.58,291.46L268.39,294.25L270.21,293.78L277.46,318.7L279.27,321.65L281.09,319.79L282.9,319.63L284.72,317.62L286.53,319.94L288.34,320.25L290.16,317.31L291.97,314.84L293.78,314.68L295.6,315.3L297.41,311.89L299.22,311.58L301.04,308.49L304.66,292.55L306.48,294.25L308.29,293.78L310.1,295.8L311.92,293.78L313.73,290.07L317.36,299.67L319.17,296.73L320.98,296.42L322.8,293.16L324.61,286.66L326.42,287.59L330.05,282.02L331.87,281.09L333.68,280.78L335.49,297.65L340.93,272.73L342.75,266.54L344.56,263.6L346.37,264.07L348.19,243.01L350,252.15L351.81,256.79L353.63,265.46L355.44,271.65L357.25,271.96L359.07,271.65L360.88,272.42L362.69,271.8L364.51,273.97L366.32,273.04L368.13,275.05L369.95,276.29L371.76,276.45L375.39,282.18L377.2,285.27L379.02,292.24L380.83,292.55L382.64,301.99L384.46,302.61L389.9,316.85L391.71,319.32L393.52,327.22L395.34,325.82L397.15,325.21L398.96,330.93L402.59,335.42L404.4,341.77L408.03,340.84L409.84,341.61L411.66,344.4L413.47,341.92L415.28,343.47L417.1,339.29L418.91,341.77L420.73,341.46L422.54,341.46L424.35,348.27L426.17,350.75L427.98,351.83L433.42,355.23L435.23,355.23L437.05,350.59L438.86,353.07L440.67,354.15L442.49,353.22L449.74,356.16L451.55,358.64L455.18,364.52L456.99,365.76L458.81,366.84L460.62,366.84L462.44,368.7L464.25,369.32L467.88,369.01L469.69,370.4L471.5,371.49L473.32,371.64L480.57,377.06L482.38,377.06L486.01,376.75L487.82,377.68L498.7,376.59L500.52,374.89L509.59,369.32L511.4,369.16L513.21,368.08L515.03,366.07L516.84,367.62L518.65,365.14L520.47,361.12L522.28,359.41L524.09,358.02L525.91,352.29L531.35,335.89L533.16,333.72L536.79,333.25L538.6,325.98L544.04,313.44L545.85,311.43L547.67,308.95L549.48,309.26L553.11,310.35L554.92,308.8L556.74,308.18L558.55,305.86L560.36,303.23L562.18,303.38L569.43,289.3L571.24,287.59L574.87,283.41L576.68,273.66L578.5,266.23L580.31,264.99L582.12,268.09L583.94,264.99L585.75,262.98L587.56,264.37L591.19,278.46L593.01,281.71L594.82,278.15L596.63,282.02L598.45,287.28L600.26,287.28L603.89,297.19L605.7,301.68L607.51,310.97L609.33,314.06L611.14,316.38L612.95,317L614.77,320.1L616.58,321.34L618.39,324.43L620.21,325.05L622.02,327.53L623.83,328.46L625.65,327.84L627.46,328.61L629.27,331.86L631.09,333.1L632.9,334.03L634.72,332.17L636.53,334.65L638.34,335.73L640.16,342.85L641.97,343.47L643.78,347.49L645.6,347.19L647.41,353.07L649.22,351.98L651.04,351.98L652.85,349.51L654.66,350.28L656.48,349.2L658.29,351.98L660.1,350.59L661.92,349.2L663.73,349.2L667.36,347.8L669.17,348.42" style="fill: rgb(8, 115, 191); fill-opacity: 0.2; stroke-width: 0;"/></g></g><g class="errorbars"/><g class="lines"><path class="js-line" d="M-246.63,377.52L-232.12,378.61L-230.31,378.3L-221.24,376.9L-219.43,377.21L-206.74,377.37L-204.92,376.13L-192.23,375.2L-190.41,375.67L-181.35,377.99L-179.53,378.92L-155.96,378.45L-154.15,378.3L-146.89,376.44L-145.08,376.75L-134.2,377.99L-132.38,377.68L-117.88,378.14L-116.06,378.61L-108.81,377.83L-106.99,377.99L-96.11,376.9L-94.3,375.98L-83.42,373.81L-81.61,374.27L-72.54,372.73L-70.73,373.03L-67.1,371.33L-65.28,371.18L-61.66,368.55L-59.84,368.24L-52.59,363.75L-50.78,364.52L-45.34,364.99L-43.52,363.75L-41.71,363.13L-39.9,364.21L-32.64,363.9L-30.83,364.68L-23.58,361.58L-21.76,361.74L-19.95,360.34L-18.13,360.81L-16.32,363.13L-14.51,363.59L-12.69,364.06L-10.88,363.59L-9.07,363.28L-7.25,360.81L-5.44,360.19L-3.63,355.85L-1.81,354.31L0,350.44L3.63,349.97L5.44,344.09L9.07,328.3L10.88,313.29L14.51,292.55L16.32,289.3L21.76,242.86L23.58,232.18L25.39,214.22L27.2,213.91L29.02,215.15L30.83,188.99L38.08,64.7L39.9,54.48L41.71,50.92L43.52,18.88L45.34,6.97L47.15,5.73L48.96,0L50.78,5.73L52.59,4.95L54.4,6.04L61.66,50L63.47,67.64L65.28,77.86L67.1,77.86L70.73,121.66L72.54,163.76L74.35,171.35L76.17,186.21L77.98,185.74L79.79,186.83L81.61,212.52L83.42,222.74L85.23,217.16L87.05,247.04L90.67,269.02L92.49,271.34L96.11,297.96L97.93,301.68L99.74,304.46L101.55,305.39L103.37,304.77L105.18,303.23L106.99,299.2L108.81,301.06L110.62,302.14L112.44,302.3L114.25,308.18L116.06,306.48L119.69,311.58L121.5,315.76L125.13,305.24L126.94,304L128.76,305.7L130.57,304.31L132.38,299.36L134.2,285.27L137.82,286.82L139.64,274.9L143.26,249.21L145.08,252.61L146.89,258.34L148.7,255.09L150.52,255.86L152.33,279.08L155.96,302.45L157.77,304L159.59,303.69L161.4,306.63L163.21,305.7L165.03,305.7L166.84,302.45L168.65,301.68L170.47,294.71L172.28,296.57L174.09,292.39L175.91,290.69L177.72,274.9L179.53,277.69L181.35,278.31L183.16,280.16L186.79,270.1L188.6,270.88L194.04,266.23L195.85,260.35L197.67,261.9L199.48,267.32L204.92,248.12L206.74,249.36L208.55,252.46L210.36,252.15L212.18,244.1L213.99,246.42L215.8,251.84L217.62,253.85L221.24,252.61L223.06,253.08L224.87,255.09L226.68,251.37L228.5,250.44L230.31,253.23L232.12,255.09L233.94,255.55L237.56,271.19L239.38,275.52L241.19,284.34L243.01,285.12L244.82,285.27L246.63,297.81L248.45,296.73L250.26,300.13L252.07,306.01L253.89,299.67L255.7,301.37L257.51,301.99L259.33,295.64L261.14,294.56L264.77,286.2L266.58,291.46L268.39,294.25L270.21,293.78L277.46,318.7L279.27,321.65L281.09,319.79L282.9,319.63L284.72,317.62L286.53,319.94L288.34,320.25L290.16,317.31L291.97,314.84L293.78,314.68L295.6,315.3L297.41,311.89L299.22,311.58L301.04,308.49L304.66,292.55L306.48,294.25L308.29,293.78L310.1,295.8L311.92,293.78L313.73,290.07L317.36,299.67L319.17,296.73L320.98,296.42L322.8,293.16L324.61,286.66L326.42,287.59L330.05,282.02L331.87,281.09L333.68,280.78L335.49,297.65L340.93,272.73L342.75,266.54L344.56,263.6L346.37,264.07L348.19,243.01L350,252.15L351.81,256.79L353.63,265.46L355.44,271.65L357.25,271.96L359.07,271.65L360.88,272.42L362.69,271.8L364.51,273.97L366.32,273.04L368.13,275.05L369.95,276.29L371.76,276.45L375.39,282.18L377.2,285.27L379.02,292.24L380.83,292.55L382.64,301.99L384.46,302.61L389.9,316.85L391.71,319.32L393.52,327.22L395.34,325.82L397.15,325.21L398.96,330.93L402.59,335.42L404.4,341.77L408.03,340.84L409.84,341.61L411.66,344.4L413.47,341.92L415.28,343.47L417.1,339.29L418.91,341.77L420.73,341.46L422.54,341.46L424.35,348.27L426.17,350.75L427.98,351.83L433.42,355.23L435.23,355.23L437.05,350.59L438.86,353.07L440.67,354.15L442.49,353.22L449.74,356.16L451.55,358.64L455.18,364.52L456.99,365.76L458.81,366.84L460.62,366.84L462.44,368.7L464.25,369.32L467.88,369.01L469.69,370.4L471.5,371.49L473.32,371.64L480.57,377.06L482.38,377.06L486.01,376.75L487.82,377.68L498.7,376.59L500.52,374.89L509.59,369.32L511.4,369.16L513.21,368.08L515.03,366.07L516.84,367.62L518.65,365.14L520.47,361.12L522.28,359.41L524.09,358.02L525.91,352.29L531.35,335.89L533.16,333.72L536.79,333.25L538.6,325.98L544.04,313.44L545.85,311.43L547.67,308.95L549.48,309.26L553.11,310.35L554.92,308.8L556.74,308.18L558.55,305.86L560.36,303.23L562.18,303.38L569.43,289.3L571.24,287.59L574.87,283.41L576.68,273.66L578.5,266.23L580.31,264.99L582.12,268.09L583.94,264.99L585.75,262.98L587.56,264.37L591.19,278.46L593.01,281.71L594.82,278.15L596.63,282.02L598.45,287.28L600.26,287.28L603.89,297.19L605.7,301.68L607.51,310.97L609.33,314.06L611.14,316.38L612.95,317L614.77,320.1L616.58,321.34L618.39,324.43L620.21,325.05L622.02,327.53L623.83,328.46L625.65,327.84L627.46,328.61L629.27,331.86L631.09,333.1L632.9,334.03L634.72,332.17L636.53,334.65L638.34,335.73L640.16,342.85L641.97,343.47L643.78,347.49L645.6,347.19L647.41,353.07L649.22,351.98L651.04,351.98L652.85,349.51L654.66,350.28L656.48,349.2L658.29,351.98L660.1,350.59L661.92,349.2L663.73,349.2L667.36,347.8L669.17,348.42" style="vector-effect: non-scaling-stroke; fill: none; stroke: rgb(8, 115, 191); stroke-opacity: 1; stroke-width: 0.5px; opacity: 1;"/></g><g class="points"/><g class="text"/></g><g class="trace scatter traced3fe38" style="stroke-miterlimit: 2;"><g class="fills"><g><path class="js-fill" d="M687.31,380L669.17,380L669.17,348.42L670.98,345.95L672.8,346.41L674.61,348.73L676.42,348.73L680.05,354L681.87,353.84L683.68,354.77L685.49,358.02L687.31,358.18" style="fill: rgb(8, 115, 191); fill-opacity: 0.4; stroke-width: 0;"/></g></g><g class="errorbars"/><g class="lines"><path class="js-line" d="M669.17,348.42L670.98,345.95L672.8,346.41L674.61,348.73L676.42,348.73L680.05,354L681.87,353.84L683.68,354.77L685.49,358.02L687.31,358.18" style="vector-effect: non-scaling-stroke; fill: none; stroke: rgb(8, 115, 191); stroke-opacity: 1; stroke-width: 2px; opacity: 1;"/></g><g class="points"/><g class="text"/></g><g class="trace scatter trace25c77c" style="stroke-miterlimit: 2; opacity: 1;"><g class="fills"/><g class="errorbars"/><g class="lines"/><g class="points"><path class="point" transform="translate(687.31,358.18)" d="M15,0A15,15 0 1,1 0,-15A15,15 0 0,1 15,0Z" style="opacity: 1; stroke-width: 0px; fill: rgb(8, 115, 191); fill-opacity: 1;"/></g><g class="text"/></g></g></g><g class="overplot"/><path class="xlines-above crisp" style="fill: none; stroke-width: 1px; stroke: rgb(0, 0, 0); stroke-opacity: 0;" d=""/><path class="ylines-above crisp" style="fill: none;" d="M0,0"/><g class="overlines-above"/><g class="xaxislayer-above"><path class="xtick ticks crisp" d="M0,450v-5" transform="translate(109.84,0)" style="stroke: rgb(68, 68, 68); stroke-opacity: 1; stroke-width: 1px;"/><path class="xtick ticks crisp" d="M0,450v-5" transform="translate(220.47,0)" style="stroke: rgb(68, 68, 68); stroke-opacity: 1; stroke-width: 1px;"/><path class="xtick ticks crisp" d="M0,450v-5" transform="translate(327.46,0)" style="stroke: rgb(68, 68, 68); stroke-opacity: 1; stroke-width: 1px;"/><path class="xtick ticks crisp" d="M0,450v-5" transform="translate(438.08,0)" style="stroke: rgb(68, 68, 68); stroke-opacity: 1; stroke-width: 1px;"/><path class="xtick ticks crisp" d="M0,450v-5" transform="translate(548.7,0)" style="stroke: rgb(68, 68, 68); stroke-opacity: 1; stroke-width: 1px;"/><path class="xtick ticks crisp" d="M0,450v-5" transform="translate(661.14,0)" style="stroke: rgb(68, 68, 68); stroke-opacity: 1; stroke-width: 1px;"/><g class="xtick"><text text-anchor="middle" x="0" y="469" transform="translate(109.84,0)" style="font-family: 'Open Sans', verdana, arial, sans-serif; font-size: 18px; fill: rgb(42, 63, 95); fill-opacity: 1; white-space: pre;">01/11</text></g><g class="xtick"><text text-anchor="middle" x="0" y="469" transform="translate(220.47,0)" style="font-family: 'Open Sans', verdana, arial, sans-serif; font-size: 18px; fill: rgb(42, 63, 95); fill-opacity: 1; white-space: pre;">01/01</text></g><g class="xtick"><text text-anchor="middle" x="0" y="469" transform="translate(327.46,0)" style="font-family: 'Open Sans', verdana, arial, sans-serif; font-size: 18px; fill: rgb(42, 63, 95); fill-opacity: 1; white-space: pre;">01/03</text></g><g class="xtick"><text text-anchor="middle" x="0" y="469" transform="translate(438.08,0)" style="font-family: 'Open Sans', verdana, arial, sans-serif; font-size: 18px; fill: rgb(42, 63, 95); fill-opacity: 1; white-space: pre;">01/05</text></g><g class="xtick"><text text-anchor="middle" x="0" y="469" transform="translate(548.7,0)" style="font-family: 'Open Sans', verdana, arial, sans-serif; font-size: 18px; fill: rgb(42, 63, 95); fill-opacity: 1; white-space: pre;">01/07</text></g><g class="xtick"><text text-anchor="middle" x="0" y="469" transform="translate(661.14,0)" style="font-family: 'Open Sans', verdana, arial, sans-serif; font-size: 18px; fill: rgb(42, 63, 95); fill-opacity: 1; white-space: pre;">01/09</text></g></g><g class="yaxislayer-above"/><g class="overaxes-above"/></g></g><g class="polarlayer"/><g class="ternarylayer"/><g class="geolayer"/><g class="funnelarealayer"/><g class="pielayer"/><g class="treemaplayer"/><g class="sunburstlayer"/><g class="glimages"/><defs id="topdefs-3c3c6a"><g class="clips"/></defs><g class="layer-above"><g class="imagelayer"/><g class="shapelayer"><path data-index="0" fill-rule="evenodd" d="M-969.17,424.7L356.48,424.7" clip-path="url('#clip3c3c6axy')" style="opacity: 1; stroke: rgb(255, 0, 0); stroke-opacity: 1; fill: rgb(0, 0, 0); fill-opacity: 0; stroke-dasharray: 3px, 3px; stroke-width: 1.5px;"/></g></g><g class="infolayer"><g class="g-gtitle"><text class="gtitle" x="375" y="25" text-anchor="middle" dy="0.7em" style="font-family: 'Open Sans', verdana, arial, sans-serif; font-size: 50px; fill: rgb(42, 63, 95); opacity: 1; font-weight: normal; white-space: pre;"><tspan style="font-weight:bold">Ardèche (07)</tspan></text></g><g class="g-xtitle"/><g class="annotation" data-index="0" style="opacity: 1;"><g class="annotation-text-g" transform="rotate(0,695.31,368.18)"><g class="cursor-pointer" transform="translate(652, 332)"><rect class="bg" x="0.5" y="0.5" width="86" height="71" style="stroke-width: 1px; stroke: rgb(0, 0, 0); stroke-opacity: 0; fill: rgb(255, 255, 255); fill-opacity: 0.6;"/><text class="annotation-text" text-anchor="middle" x="43.53125" y="55.5" style="font-family: 'Open Sans', verdana, arial, sans-serif; font-size: 50px; fill: rgb(8, 115, 191); fill-opacity: 1; white-space: pre;"> <tspan style="font-weight:bold">43 </tspan></text></g></g><g class="annotation-arrow-g" style="opacity: 1;"><path d="M723.7099999999999,403.68L735.31,418.18" style="stroke-width: 1px; stroke: rgb(8, 115, 191); stroke-opacity: 1; stroke-dasharray: 0px, 0px, 18.569px, 18.569px;"/></g></g></g></svg>