<svg class="main-svg" xmlns="http://www.w3.org/2000/svg" xmlns:xlink="http://www.w3.org/1999/xlink" width="1125" height="750" style="" viewBox="0 0 750 500"><rect x="0" y="0" width="750" height="500" style="fill: rgb(0, 0, 0); fill-opacity: 0;"/><defs id="defs-36a121"><g class="clips"><clipPath id="clip36a121xyplot" class="plotclip"><rect width="700" height="380"/></clipPath><clipPath class="axesclip" id="clip36a121x"><rect x="50" y="0" width="700" height="500"/></clipPath><clipPath class="axesclip" id="clip36a121y"><rect x="0" y="70" width="750" height="380"/></clipPath><clipPath class="axesclip" id="clip36a121xy"><rect x="50" y="70" width="700" height="380"/></clipPath></g><g class="gradients"/></defs><g class="bglayer"><rect class="bg" x="50" y="70" width="700" height="380" style="fill: rgb(0, 0, 0); fill-opacity: 0; stroke-width: 0;"/></g><g class="layer-below"><g class="imagelayer"/><g class="shapelayer"/></g><g class="cartesianlayer"><g class="subplot xy"><g class="layer-subplot"><g class="shapelayer"/><g class="imagelayer"/></g><g class="gridlayer"><g class="x"><path class="xgrid crisp" transform="translate(111.93,0)" d="M0,70v380" style="stroke: rgb(255, 255, 255); stroke-opacity: 1; stroke-width: 1px;"/><path class="xgrid crisp" transform="translate(226.41,0)" d="M0,70v380" style="stroke: rgb(255, 255, 255); stroke-opacity: 1; stroke-width: 1px;"/><path class="xgrid crisp" transform="translate(337.13,0)" d="M0,70v380" style="stroke: rgb(255, 255, 255); stroke-opacity: 1; stroke-width: 1px;"/><path class="xgrid crisp" transform="translate(451.61,0)" d="M0,70v380" style="stroke: rgb(255, 255, 255); stroke-opacity: 1; stroke-width: 1px;"/><path class="xgrid crisp" transform="translate(566.09,0)" d="M0,70v380" style="stroke: rgb(255, 255, 255); stroke-opacity: 1; stroke-width: 1px;"/><path class="xgrid crisp" transform="translate(682.44,0)" d="M0,70v380" style="stroke: rgb(255, 255, 255); stroke-opacity: 1; stroke-width: 1px;"/></g><g class="y"/></g><g class="zerolinelayer"/><path class="xlines-below"/><path class="ylines-below"/><g class="overlines-below"/><g class="xaxislayer-below"/><g class="yaxislayer-below"/><g class="overaxes-below"/><g class="plot" transform="translate(50, 70)" clip-path="url('#clip36a121xyplot')"><g class="scatterlayer mlayer"><g class="trace scatter trace52bd16" style="stroke-miterlimit: 2;"><g class="fills"><g><path class="js-fill" d="M668.1,380L-255.23,380L-255.23,376.37L-240.21,378.77L-238.34,378.66L-212.06,378.16L-210.19,377.43L-178.28,377.21L-176.41,377.26L-138.87,375.75L-137,374.75L-127.61,370.84L-125.74,371.11L-112.6,365.3L-110.72,362.9L-101.34,356.19L-99.46,356.59L-88.2,349.88L-86.33,346.08L-82.57,341.61L-80.7,340.71L-75.07,337.08L-73.19,335.24L-67.56,332.33L-65.68,332.33L-61.93,330.26L-60.05,329.71L-56.3,322.33L-54.42,310.15L-52.55,304.61L-50.67,305.01L-48.79,304.73L-46.92,293.16L-39.41,256.22L-37.53,253.54L-35.66,253.15L-33.78,238.17L-28.15,206.76L-26.27,194.81L-22.52,186.03L-20.64,188.71L-18.77,186.09L-16.89,189.94L-13.14,209.28L-11.26,211.57L-9.38,212.63L-7.51,221.29L-5.63,230.29L-3.75,234.76L-1.88,236.66L0,232.36L1.88,231.07L3.75,231.19L5.63,225.54L7.51,226.32L13.14,207.71L15.01,204.36L16.89,198.1L18.77,186.81L20.64,173.35L22.52,171.89L26.27,153.01L28.15,148.76L30.03,149.04L31.9,137.02L33.78,124.67L35.66,102.26L37.53,91.87L39.41,74.21L41.29,70.02L43.16,63.2L45.04,57.5L46.92,56.44L48.79,61.97L50.67,69.91L52.55,82.99L54.42,84.77L56.3,83.32L58.18,89.36L60.05,94.05L61.93,103.72L63.81,109.19L65.68,119.98L67.56,127.19L69.44,139.43L73.19,173.91L75.07,207.99L76.94,216.82L78.82,231.74L82.57,242.64L84.45,258.79L86.33,272.2L88.2,265.94L90.08,284.83L91.96,295.56L93.83,298.91L95.71,299.42L97.59,309.42L99.46,314.79L103.22,320.6L105.09,324.96L106.97,324.68L108.85,325.91L110.72,327.69L112.6,327.47L118.23,332.78L120.11,333.84L121.98,333.62L123.86,335.35L125.74,337.86L127.61,338.09L129.49,336.13L131.37,335.74L135.12,334.29L137,333.17L140.75,331.89L142.63,329.04L146.38,326.69L148.26,328.36L152.01,320.6L153.89,317.8L155.76,318.81L157.64,328.03L161.39,325.29L163.27,323.78L165.15,321.1L167.02,315.51L168.9,311.6L170.78,310.71L172.65,307.63L174.53,306.85L178.28,287.85L180.16,282.26L182.04,276.84L183.91,259.41L187.67,257.39L189.54,252.03L191.42,251.02L193.3,251.97L198.93,235.88L200.8,235.94L204.56,228L206.43,222.13L208.31,220.18L210.19,213.75L212.06,217.38L213.94,216.94L215.82,209.17L217.69,205.76L219.57,204.14L221.45,196.04L225.2,188.6L227.08,181.51L228.95,180.56L230.83,181.23L232.71,181.73L234.58,186.48L240.21,201.12L242.09,209.67L247.72,228.95L249.6,233.36L251.47,233.59L253.35,235.77L257.1,245.27L258.98,244.15L262.73,248.96L264.61,248.06L268.36,248.45L270.24,246.78L272.12,248.34L273.99,247.84L275.87,247.45L277.75,249.91L279.62,250.24L281.5,252.76L283.38,254.54L285.25,254.99L287.13,258.23L289.01,263.15L290.88,261.92L292.76,262.09L294.64,265.16L296.51,269.91L300.27,275.61L302.14,276.17L304.02,278.41L305.9,277.79L307.77,276.56L309.65,270.64L313.4,259.69L315.28,249.68L319.03,245.27L320.91,234.76L326.54,205.09L328.42,201.9L330.29,198.05L332.17,198.89L335.92,188.94L337.8,185.03L339.68,182.9L341.55,179.21L343.43,178.6L345.31,177.09L347.18,210.68L349.06,203.69L354.69,223.53L356.57,223.31L358.45,224.59L360.32,202.63L362.2,216.6L364.08,221.46L365.95,225.15L367.83,231.58L369.71,235.94L371.58,235.66L373.46,231.86L375.34,233.92L377.21,233.48L379.09,233.81L382.84,230.79L384.72,232.25L388.47,243.09L390.35,247.39L392.23,250.46L394.1,256.33L395.98,267.45L397.86,266.17L401.61,279.69L403.49,281.7L407.24,289.92L409.12,289.02L410.99,291.2L412.87,289.81L414.75,290.48L416.62,294.44L418.5,307.35L420.38,308.14L424.13,303.78L426.01,309.09L429.76,307.19L431.64,299.53L433.51,300.59L435.39,299.75L437.27,301.09L439.14,312.44L441.02,311.32L442.9,314.9L446.65,313.44L448.53,313.5L450.4,314.34L452.28,302.94L454.16,308.3L456.03,308.25L457.91,309.87L459.79,314.95L461.66,318.7L463.54,319.31L467.29,332.56L469.17,337.86L472.92,346.19L474.8,347.98L476.68,348.93L478.55,351L484.18,355.47L486.06,355.69L491.69,356.19L493.57,357.03L499.2,358.49L501.07,358.93L506.7,358.76L508.58,356.08L510.46,355.36L512.33,353.57L516.09,351.16L517.96,348.82L521.72,341.05L523.59,334.85L527.35,325.24L529.22,323.73L532.98,304.73L534.85,307.02L538.61,265.61L540.48,249.35L542.36,241.13L544.24,201.57L546.11,162.28L547.99,106.74L549.87,88.18L551.74,59.07L553.62,46.33L555.5,43.53L557.37,13.97L559.25,0L561.13,3.8L563,0.84L566.76,13.97L568.63,16.93L572.39,48.51L574.26,51.13L576.14,60.13L578.02,63.48L579.89,66L581.77,66.56L585.52,79.24L587.4,90.25L589.28,90.98L591.15,100.14L594.91,103.83L596.78,114L602.41,158.99L604.29,165.97L606.17,174.97L608.04,176.31L611.8,198.1L613.67,205.2L619.3,231.58L621.18,234.37L624.93,256.84L626.81,262.7L630.56,276.39L632.44,278.63L634.32,280.98L636.19,288.02L643.7,312.16L645.58,314.51L647.45,314.84L649.33,322.33L651.21,326.46L653.08,328.48L660.59,336.3L662.47,337.36L664.34,337.64L666.22,340.32L668.1,339.6" style="fill: rgb(8, 115, 191); fill-opacity: 0.2; stroke-width: 0;"/></g></g><g class="errorbars"/><g class="lines"><path class="js-line" d="M-255.23,376.37L-240.21,378.77L-238.34,378.66L-212.06,378.16L-210.19,377.43L-178.28,377.21L-176.41,377.26L-138.87,375.75L-137,374.75L-127.61,370.84L-125.74,371.11L-112.6,365.3L-110.72,362.9L-101.34,356.19L-99.46,356.59L-88.2,349.88L-86.33,346.08L-82.57,341.61L-80.7,340.71L-75.07,337.08L-73.19,335.24L-67.56,332.33L-65.68,332.33L-61.93,330.26L-60.05,329.71L-56.3,322.33L-54.42,310.15L-52.55,304.61L-50.67,305.01L-48.79,304.73L-46.92,293.16L-39.41,256.22L-37.53,253.54L-35.66,253.15L-33.78,238.17L-28.15,206.76L-26.27,194.81L-22.52,186.03L-20.64,188.71L-18.77,186.09L-16.89,189.94L-13.14,209.28L-11.26,211.57L-9.38,212.63L-7.51,221.29L-5.63,230.29L-3.75,234.76L-1.88,236.66L0,232.36L1.88,231.07L3.75,231.19L5.63,225.54L7.51,226.32L13.14,207.71L15.01,204.36L16.89,198.1L18.77,186.81L20.64,173.35L22.52,171.89L26.27,153.01L28.15,148.76L30.03,149.04L31.9,137.02L33.78,124.67L35.66,102.26L37.53,91.87L39.41,74.21L41.29,70.02L43.16,63.2L45.04,57.5L46.92,56.44L48.79,61.97L50.67,69.91L52.55,82.99L54.42,84.77L56.3,83.32L58.18,89.36L60.05,94.05L61.93,103.72L63.81,109.19L65.68,119.98L67.56,127.19L69.44,139.43L73.19,173.91L75.07,207.99L76.94,216.82L78.82,231.74L82.57,242.64L84.45,258.79L86.33,272.2L88.2,265.94L90.08,284.83L91.96,295.56L93.83,298.91L95.71,299.42L97.59,309.42L99.46,314.79L103.22,320.6L105.09,324.96L106.97,324.68L108.85,325.91L110.72,327.69L112.6,327.47L118.23,332.78L120.11,333.84L121.98,333.62L123.86,335.35L125.74,337.86L127.61,338.09L129.49,336.13L131.37,335.74L135.12,334.29L137,333.17L140.75,331.89L142.63,329.04L146.38,326.69L148.26,328.36L152.01,320.6L153.89,317.8L155.76,318.81L157.64,328.03L161.39,325.29L163.27,323.78L165.15,321.1L167.02,315.51L168.9,311.6L170.78,310.71L172.65,307.63L174.53,306.85L178.28,287.85L180.16,282.26L182.04,276.84L183.91,259.41L187.67,257.39L189.54,252.03L191.42,251.02L193.3,251.97L198.93,235.88L200.8,235.94L204.56,228L206.43,222.13L208.31,220.18L210.19,213.75L212.06,217.38L213.94,216.94L215.82,209.17L217.69,205.76L219.57,204.14L221.45,196.04L225.2,188.6L227.08,181.51L228.95,180.56L230.83,181.23L232.71,181.73L234.58,186.48L240.21,201.12L242.09,209.67L247.72,228.95L249.6,233.36L251.47,233.59L253.35,235.77L257.1,245.27L258.98,244.15L262.73,248.96L264.61,248.06L268.36,248.45L270.24,246.78L272.12,248.34L273.99,247.84L275.87,247.45L277.75,249.91L279.62,250.24L281.5,252.76L283.38,254.54L285.25,254.99L287.13,258.23L289.01,263.15L290.88,261.92L292.76,262.09L294.64,265.16L296.51,269.91L300.27,275.61L302.14,276.17L304.02,278.41L305.9,277.79L307.77,276.56L309.65,270.64L313.4,259.69L315.28,249.68L319.03,245.27L320.91,234.76L326.54,205.09L328.42,201.9L330.29,198.05L332.17,198.89L335.92,188.94L337.8,185.03L339.68,182.9L341.55,179.21L343.43,178.6L345.31,177.09L347.18,210.68L349.06,203.69L354.69,223.53L356.57,223.31L358.45,224.59L360.32,202.63L362.2,216.6L364.08,221.46L365.95,225.15L367.83,231.58L369.71,235.94L371.58,235.66L373.46,231.86L375.34,233.92L377.21,233.48L379.09,233.81L382.84,230.79L384.72,232.25L388.47,243.09L390.35,247.39L392.23,250.46L394.1,256.33L395.98,267.45L397.86,266.17L401.61,279.69L403.49,281.7L407.24,289.92L409.12,289.02L410.99,291.2L412.87,289.81L414.75,290.48L416.62,294.44L418.5,307.35L420.38,308.14L424.13,303.78L426.01,309.09L429.76,307.19L431.64,299.53L433.51,300.59L435.39,299.75L437.27,301.09L439.14,312.44L441.02,311.32L442.9,314.9L446.65,313.44L448.53,313.5L450.4,314.34L452.28,302.94L454.16,308.3L456.03,308.25L457.91,309.87L459.79,314.95L461.66,318.7L463.54,319.31L467.29,332.56L469.17,337.86L472.92,346.19L474.8,347.98L476.68,348.93L478.55,351L484.18,355.47L486.06,355.69L491.69,356.19L493.57,357.03L499.2,358.49L501.07,358.93L506.7,358.76L508.58,356.08L510.46,355.36L512.33,353.57L516.09,351.16L517.96,348.82L521.72,341.05L523.59,334.85L527.35,325.24L529.22,323.73L532.98,304.73L534.85,307.02L538.61,265.61L540.48,249.35L542.36,241.13L544.24,201.57L546.11,162.28L547.99,106.74L549.87,88.18L551.74,59.07L553.62,46.33L555.5,43.53L557.37,13.97L559.25,0L561.13,3.8L563,0.84L566.76,13.97L568.63,16.93L572.39,48.51L574.26,51.13L576.14,60.13L578.02,63.48L579.89,66L581.77,66.56L585.52,79.24L587.4,90.25L589.28,90.98L591.15,100.14L594.91,103.83L596.78,114L602.41,158.99L604.29,165.97L606.17,174.97L608.04,176.31L611.8,198.1L613.67,205.2L619.3,231.58L621.18,234.37L624.93,256.84L626.81,262.7L630.56,276.39L632.44,278.63L634.32,280.98L636.19,288.02L643.7,312.16L645.58,314.51L647.45,314.84L649.33,322.33L651.21,326.46L653.08,328.48L660.59,336.3L662.47,337.36L664.34,337.64L666.22,340.32L668.1,339.6" style="vector-effect: non-scaling-stroke; fill: none; stroke: rgb(8, 115, 191); stroke-opacity: 1; stroke-width: 0.5px; opacity: 1;"/></g><g class="points"/><g class="text"/></g><g class="trace scatter traced3bc67" style="stroke-miterlimit: 2;"><g class="fills"><g><path class="js-fill" d="M686.86,380L668.1,380L668.1,339.6L669.97,339.43L671.85,338.09L673.73,337.92L675.6,339.71L681.23,345.3L683.11,347.92L684.99,350.27L686.86,350.1" style="fill: rgb(8, 115, 191); fill-opacity: 0.4; stroke-width: 0;"/></g></g><g class="errorbars"/><g class="lines"><path class="js-line" d="M668.1,339.6L669.97,339.43L671.85,338.09L673.73,337.92L675.6,339.71L681.23,345.3L683.11,347.92L684.99,350.27L686.86,350.1" style="vector-effect: non-scaling-stroke; fill: none; stroke: rgb(8, 115, 191); stroke-opacity: 1; stroke-width: 2px; opacity: 1;"/></g><g class="points"/><g class="text"/></g><g class="trace scatter trace8c6a7d" style="stroke-miterlimit: 2; opacity: 1;"><g class="fills"/><g class="errorbars"/><g class="lines"/><g class="points"><path class="point" transform="translate(686.86,350.1)" d="M15,0A15,15 0 1,1 0,-15A15,15 0 0,1 15,0Z" style="opacity: 1; stroke-width: 0px; fill: rgb(8, 115, 191); fill-opacity: 1;"/></g><g class="text"/></g></g></g><g class="overplot"/><path class="xlines-above crisp" style="fill: none; stroke-width: 1px; stroke: rgb(0, 0, 0); stroke-opacity: 0;" d=""/><path class="ylines-above crisp" style="fill: none;" d="M0,0"/><g class="overlines-above"/><g class="xaxislayer-above"><path class="xtick ticks crisp" d="M0,450v-5" transform="translate(111.93,0)" style="stroke: rgb(68, 68, 68); stroke-opacity: 1; stroke-width: 1px;"/><path class="xtick ticks crisp" d="M0,450v-5" transform="translate(226.41,0)" style="stroke: rgb(68, 68, 68); stroke-opacity: 1; stroke-width: 1px;"/><path class="xtick ticks crisp" d="M0,450v-5" transform="translate(337.13,0)" style="stroke: rgb(68, 68, 68); stroke-opacity: 1; stroke-width: 1px;"/><path class="xtick ticks crisp" d="M0,450v-5" transform="translate(451.61,0)" style="stroke: rgb(68, 68, 68); stroke-opacity: 1; stroke-width: 1px;"/><path class="xtick ticks crisp" d="M0,450v-5" transform="translate(566.09,0)" style="stroke: rgb(68, 68, 68); stroke-opacity: 1; stroke-width: 1px;"/><path class="xtick ticks crisp" d="M0,450v-5" transform="translate(682.44,0)" style="stroke: rgb(68, 68, 68); stroke-opacity: 1; stroke-width: 1px;"/><g class="xtick"><text text-anchor="middle" x="0" y="469" transform="translate(111.93,0)" style="font-family: 'Open Sans', verdana, arial, sans-serif; font-size: 18px; fill: rgb(42, 63, 95); fill-opacity: 1; white-space: pre;">01/11</text></g><g class="xtick"><text text-anchor="middle" x="0" y="469" transform="translate(226.41,0)" style="font-family: 'Open Sans', verdana, arial, sans-serif; font-size: 18px; fill: rgb(42, 63, 95); fill-opacity: 1; white-space: pre;">01/01</text></g><g class="xtick"><text text-anchor="middle" x="0" y="469" transform="translate(337.13,0)" style="font-family: 'Open Sans', verdana, arial, sans-serif; font-size: 18px; fill: rgb(42, 63, 95); fill-opacity: 1; white-space: pre;">01/03</text></g><g class="xtick"><text text-anchor="middle" x="0" y="469" transform="translate(451.61,0)" style="font-family: 'Open Sans', verdana, arial, sans-serif; font-size: 18px; fill: rgb(42, 63, 95); fill-opacity: 1; white-space: pre;">01/05</text></g><g class="xtick"><text text-anchor="middle" x="0" y="469" transform="translate(566.09,0)" style="font-family: 'Open Sans', verdana, arial, sans-serif; font-size: 18px; fill: rgb(42, 63, 95); fill-opacity: 1; white-space: pre;">01/07</text></g><g class="xtick"><text text-anchor="middle" x="0" y="469" transform="translate(682.44,0)" style="font-family: 'Open Sans', verdana, arial, sans-serif; font-size: 18px; fill: rgb(42, 63, 95); fill-opacity: 1; white-space: pre;">01/09</text></g></g><g class="yaxislayer-above"/><g class="overaxes-above"/></g></g><g class="polarlayer"/><g class="ternarylayer"/><g class="geolayer"/><g class="funnelarealayer"/><g class="pielayer"/><g class="treemaplayer"/><g class="sunburstlayer"/><g class="glimages"/><defs id="topdefs-36a121"><g class="clips"/></defs><g class="layer-above"><g class="imagelayer"/><g class="shapelayer"><path data-index="0" fill-rule="evenodd" d="M-1004.69,410.86L367.16,410.86" clip-path="url('#clip36a121xy')" style="opacity: 1; stroke: rgb(255, 0, 0); stroke-opacity: 1; fill: rgb(0, 0, 0); fill-opacity: 0; stroke-dasharray: 3px, 3px; stroke-width: 1.5px;"/></g></g><g class="infolayer"><g class="g-gtitle"><text class="gtitle" x="375" y="25" text-anchor="middle" dy="0.7em" style="font-family: 'Open Sans', verdana, arial, sans-serif; font-size: 50px; fill: rgb(42, 63, 95); opacity: 1; font-weight: normal; white-space: pre;"><tspan style="font-weight:bold">Haute-Garonne (31)</tspan></text></g><g class="g-xtitle"/><g class="annotation" data-index="0" style="opacity: 1;"><g class="annotation-text-g" transform="rotate(0,694.86,360.1)"><g class="cursor-pointer" transform="translate(651, 324)"><rect class="bg" x="0.5" y="0.5" width="86" height="71" style="stroke-width: 1px; stroke: rgb(0, 0, 0); stroke-opacity: 0; fill: rgb(255, 255, 255); fill-opacity: 0.6;"/><text class="annotation-text" text-anchor="middle" x="43.53125" y="55.5" style="font-family: 'Open Sans', verdana, arial, sans-serif; font-size: 50px; fill: rgb(8, 115, 191); fill-opacity: 1; white-space: pre;"> <tspan style="font-weight:bold">38 </tspan></text></g></g><g class="annotation-arrow-g" style="opacity: 1;"><path d="M723.26,395.6L734.86,410.1" style="stroke-width: 1px; stroke: rgb(8, 115, 191); stroke-opacity: 1; stroke-dasharray: 0px, 0px, 18.569px, 18.569px;"/></g></g></g></svg>