<svg class="main-svg" xmlns="http://www.w3.org/2000/svg" xmlns:xlink="http://www.w3.org/1999/xlink" width="1125" height="750" style="" viewBox="0 0 750 500"><rect x="0" y="0" width="750" height="500" style="fill: rgb(0, 0, 0); fill-opacity: 0;"/><defs id="defs-d88cef"><g class="clips"><clipPath id="clipd88cefxyplot" class="plotclip"><rect width="700" height="380"/></clipPath><clipPath class="axesclip" id="clipd88cefx"><rect x="50" y="0" width="700" height="500"/></clipPath><clipPath class="axesclip" id="clipd88cefy"><rect x="0" y="70" width="750" height="380"/></clipPath><clipPath class="axesclip" id="clipd88cefxy"><rect x="50" y="70" width="700" height="380"/></clipPath></g><g class="gradients"/></defs><g class="bglayer"><rect class="bg" x="50" y="70" width="700" height="380" style="fill: rgb(0, 0, 0); fill-opacity: 0; stroke-width: 0;"/></g><g class="layer-below"><g class="imagelayer"/><g class="shapelayer"/></g><g class="cartesianlayer"><g class="subplot xy"><g class="layer-subplot"><g class="shapelayer"/><g class="imagelayer"/></g><g class="gridlayer"><g class="x"><path class="xgrid crisp" transform="translate(113.28999999999999,0)" d="M0,70v380" style="stroke: rgb(255, 255, 255); stroke-opacity: 1; stroke-width: 1px;"/><path class="xgrid crisp" transform="translate(230.27,0)" d="M0,70v380" style="stroke: rgb(255, 255, 255); stroke-opacity: 1; stroke-width: 1px;"/><path class="xgrid crisp" transform="translate(343.42,0)" d="M0,70v380" style="stroke: rgb(255, 255, 255); stroke-opacity: 1; stroke-width: 1px;"/><path class="xgrid crisp" transform="translate(460.41,0)" d="M0,70v380" style="stroke: rgb(255, 255, 255); stroke-opacity: 1; stroke-width: 1px;"/><path class="xgrid crisp" transform="translate(577.4,0)" d="M0,70v380" style="stroke: rgb(255, 255, 255); stroke-opacity: 1; stroke-width: 1px;"/><path class="xgrid crisp" transform="translate(696.3,0)" d="M0,70v380" style="stroke: rgb(255, 255, 255); stroke-opacity: 1; stroke-width: 1px;"/></g><g class="y"/></g><g class="zerolinelayer"/><path class="xlines-below"/><path class="ylines-below"/><g class="overlines-below"/><g class="xaxislayer-below"/><g class="yaxislayer-below"/><g class="overaxes-below"/><g class="plot" transform="translate(50, 70)" clip-path="url('#clipd88cefxyplot')"><g class="scatterlayer mlayer"><g class="trace scatter trace802de5" style="stroke-miterlimit: 2;"><g class="fills"><g><path class="js-fill" d="M667.4,380L-260.82,380L-260.82,373.08L-256.99,373.58L-255.07,374.77L-205.21,379.24L-203.29,378.9L-178.36,378.23L-176.44,378.65L-153.42,376.88L-151.51,376.88L-128.49,376.2L-126.58,376.03L-115.07,373.84L-113.15,372.91L-101.64,371.98L-99.73,371.73L-88.22,371.64L-86.3,371.05L-67.12,361.43L-65.21,361L-61.37,359.57L-59.45,356.45L-53.7,349.61L-51.78,348.26L-49.86,348.42L-47.95,344.63L-40.27,338.55L-38.36,336.01L-32.6,334.75L-30.68,332.38L-26.85,328.33L-24.93,329.43L-23.01,329.85L-21.1,325.46L-19.18,320.99L-17.26,307.31L-15.34,310.01L-13.42,310.52L-9.59,309.93L-7.67,311.11L-5.75,311.87L-3.84,323.01L-1.92,317.95L0,307.39L1.92,302.75L3.84,302.24L9.59,275.23L11.51,270.75L15.34,267.46L17.26,267.46L21.1,246.19L23.01,241.8L26.85,211.99L28.77,205.41L30.68,203.13L32.6,195.36L36.44,160.41L38.36,158.97L40.27,151.97L42.19,150.62L44.11,149.26L46.03,131.96L49.86,115.24L51.78,92.95L55.62,61.63L57.53,63.23L59.45,45.08L61.37,41.45L63.29,38.08L65.21,43.65L69.04,70.41L70.96,71.17L74.79,118.62L76.71,169.02L80.55,203.04L82.47,211.15L84.38,212.08L86.3,229.13L88.22,246.19L90.14,232.34L92.05,250.24L93.97,260.96L95.89,265.27L97.81,265.43L99.73,279.53L101.64,284.6L105.48,295.07L107.4,298.78L109.32,300.89L111.23,301.57L115.07,312.38L116.99,315.58L120.82,320.9L122.74,320.4L124.66,315.84L126.58,314.65L128.49,312.88L130.41,309.34L134.25,302.58L136.16,300.22L138.08,304.27L140,302.41L141.92,300.98L143.84,301.57L145.75,301.4L147.67,300.05L149.59,300.72L151.51,300.47L153.42,299.12L155.34,293.04L157.26,292.11L159.18,295.49L161.1,309.17L163.01,309.59L164.93,309.42L166.85,306.72L170.68,307.98L172.6,306.13L174.52,305.79L176.44,298.11L178.36,298.44L180.27,294.56L182.19,289.41L184.11,280.8L186.03,272.27L187.95,254.88L189.86,255.47L191.78,254.04L193.7,249.39L195.62,246.95L199.45,237.74L201.37,227.02L203.29,227.86L205.21,227.78L207.12,219.68L209.04,216.81L212.88,217.56L214.79,219.93L218.63,221.7L220.55,219.51L224.38,220.69L226.3,218.92L230.14,214.36L232.05,214.27L233.97,217.99L235.89,213.34L241.64,226.35L243.56,226.68L245.48,227.19L247.4,231.92L249.32,242.3L251.23,239.52L253.15,241.2L255.07,244.67L258.9,242.89L260.82,236.48L264.66,230.48L266.58,223.81L268.49,216.97L270.41,215.45L272.33,215.03L274.25,208.19L276.16,202.71L278.08,200.09L280,198.91L281.92,195.87L285.75,195.28L287.67,197.72L289.59,199.67L291.51,204.56L293.42,199.08L295.34,199.5L297.26,194.94L299.18,195.28L301.1,192.66L303.01,182.61L304.93,170.2L306.85,164.46L308.77,159.06L310.68,156.53L312.6,155.26L314.52,141.08L316.44,139.22L318.36,132.3L320.27,123.18L322.19,107.98L324.11,101.4L326.03,98.95L333.7,47.53L335.62,38.92L337.53,26.93L339.45,27.1L341.37,22.04L343.29,10.55L345.21,3.12L347.12,0L349.04,4.56L350.96,3.38L352.88,2.7L354.79,70.66L356.71,59.27L358.63,65.68L360.55,77L362.47,77.42L364.38,86.96L366.3,88.31L368.22,25.41L370.14,57.75L372.05,72.86L373.97,79.87L377.81,89.66L379.73,90.34L381.64,98.69L383.56,97.43L385.48,92.95L387.4,95.49L391.23,107.64L393.15,107.47L402.74,172.23L404.66,195.11L406.58,194.85L408.49,198.32L410.41,204.65L412.33,206.25L416.16,216.21L418.08,211.74L420,212.08L421.92,224.07L423.84,225.16L425.75,229.3L427.67,247.11L429.59,245.93L431.51,239.85L433.42,241.46L437.26,245.76L439.18,251.25L441.1,235.72L443.01,247.03L444.93,248.3L446.85,248.63L448.77,277.17L450.68,278.69L458.36,297.09L460.27,298.19L462.19,288.31L464.11,304.44L466.03,309L467.95,316.6L471.78,328.84L473.7,329.51L481.37,349.35L483.29,352.65L485.21,355.09L487.12,355.35L489.04,360.33L490.96,362.86L496.71,365.99L498.63,365.99L506.3,368.1L508.22,369.7L512.05,371.56L513.97,371.39L517.81,372.49L519.73,370.71L521.64,370.46L523.56,369.19L527.4,368.6L529.32,366.15L531.23,365.23L533.15,365.65L536.99,363.87L538.9,363.54L542.74,362.95L544.66,361.09L546.58,362.95L548.49,359.23L552.33,351.38L554.25,351.21L560,331.79L561.92,329.77L563.84,326.14L565.75,324.95L567.67,324.19L569.59,316.34L571.51,313.89L573.42,312.88L577.26,311.36L579.18,309.34L581.1,308.49L583.01,310.18L584.93,307.14L586.85,305.79L590.68,296.08L592.6,297.26L594.52,297.85L596.44,293.55L598.36,292.7L600.27,288.74L602.19,291.44L604.11,291.86L606.03,286.2L607.95,285.61L609.86,288.06L611.78,288.23L613.7,291.1L615.62,289.58L619.45,294.56L621.37,294.05L623.29,293.46L625.21,292.03L627.12,287.89L629.04,288.23L634.79,290.51L636.71,293.89L640.55,304.1L642.47,307.14L646.3,311.95L648.22,312.71L650.14,316.93L652.05,319.3L653.97,322.93L655.89,323.35L661.64,322.67L663.56,324.53L667.4,325.21" style="fill: rgb(8, 115, 191); fill-opacity: 0.2; stroke-width: 0;"/></g></g><g class="errorbars"/><g class="lines"><path class="js-line" d="M-260.82,373.08L-256.99,373.58L-255.07,374.77L-205.21,379.24L-203.29,378.9L-178.36,378.23L-176.44,378.65L-153.42,376.88L-151.51,376.88L-128.49,376.2L-126.58,376.03L-115.07,373.84L-113.15,372.91L-101.64,371.98L-99.73,371.73L-88.22,371.64L-86.3,371.05L-67.12,361.43L-65.21,361L-61.37,359.57L-59.45,356.45L-53.7,349.61L-51.78,348.26L-49.86,348.42L-47.95,344.63L-40.27,338.55L-38.36,336.01L-32.6,334.75L-30.68,332.38L-26.85,328.33L-24.93,329.43L-23.01,329.85L-21.1,325.46L-19.18,320.99L-17.26,307.31L-15.34,310.01L-13.42,310.52L-9.59,309.93L-7.67,311.11L-5.75,311.87L-3.84,323.01L-1.92,317.95L0,307.39L1.92,302.75L3.84,302.24L9.59,275.23L11.51,270.75L15.34,267.46L17.26,267.46L21.1,246.19L23.01,241.8L26.85,211.99L28.77,205.41L30.68,203.13L32.6,195.36L36.44,160.41L38.36,158.97L40.27,151.97L42.19,150.62L44.11,149.26L46.03,131.96L49.86,115.24L51.78,92.95L55.62,61.63L57.53,63.23L59.45,45.08L61.37,41.45L63.29,38.08L65.21,43.65L69.04,70.41L70.96,71.17L74.79,118.62L76.71,169.02L80.55,203.04L82.47,211.15L84.38,212.08L86.3,229.13L88.22,246.19L90.14,232.34L92.05,250.24L93.97,260.96L95.89,265.27L97.81,265.43L99.73,279.53L101.64,284.6L105.48,295.07L107.4,298.78L109.32,300.89L111.23,301.57L115.07,312.38L116.99,315.58L120.82,320.9L122.74,320.4L124.66,315.84L126.58,314.65L128.49,312.88L130.41,309.34L134.25,302.58L136.16,300.22L138.08,304.27L140,302.41L141.92,300.98L143.84,301.57L145.75,301.4L147.67,300.05L149.59,300.72L151.51,300.47L153.42,299.12L155.34,293.04L157.26,292.11L159.18,295.49L161.1,309.17L163.01,309.59L164.93,309.42L166.85,306.72L170.68,307.98L172.6,306.13L174.52,305.79L176.44,298.11L178.36,298.44L180.27,294.56L182.19,289.41L184.11,280.8L186.03,272.27L187.95,254.88L189.86,255.47L191.78,254.04L193.7,249.39L195.62,246.95L199.45,237.74L201.37,227.02L203.29,227.86L205.21,227.78L207.12,219.68L209.04,216.81L212.88,217.56L214.79,219.93L218.63,221.7L220.55,219.51L224.38,220.69L226.3,218.92L230.14,214.36L232.05,214.27L233.97,217.99L235.89,213.34L241.64,226.35L243.56,226.68L245.48,227.19L247.4,231.92L249.32,242.3L251.23,239.52L253.15,241.2L255.07,244.67L258.9,242.89L260.82,236.48L264.66,230.48L266.58,223.81L268.49,216.97L270.41,215.45L272.33,215.03L274.25,208.19L276.16,202.71L278.08,200.09L280,198.91L281.92,195.87L285.75,195.28L287.67,197.72L289.59,199.67L291.51,204.56L293.42,199.08L295.34,199.5L297.26,194.94L299.18,195.28L301.1,192.66L303.01,182.61L304.93,170.2L306.85,164.46L308.77,159.06L310.68,156.53L312.6,155.26L314.52,141.08L316.44,139.22L318.36,132.3L320.27,123.18L322.19,107.98L324.11,101.4L326.03,98.95L333.7,47.53L335.62,38.92L337.53,26.93L339.45,27.1L341.37,22.04L343.29,10.55L345.21,3.12L347.12,0L349.04,4.56L350.96,3.38L352.88,2.7L354.79,70.66L356.71,59.27L358.63,65.68L360.55,77L362.47,77.42L364.38,86.96L366.3,88.31L368.22,25.41L370.14,57.75L372.05,72.86L373.97,79.87L377.81,89.66L379.73,90.34L381.64,98.69L383.56,97.43L385.48,92.95L387.4,95.49L391.23,107.64L393.15,107.47L402.74,172.23L404.66,195.11L406.58,194.85L408.49,198.32L410.41,204.65L412.33,206.25L416.16,216.21L418.08,211.74L420,212.08L421.92,224.07L423.84,225.16L425.75,229.3L427.67,247.11L429.59,245.93L431.51,239.85L433.42,241.46L437.26,245.76L439.18,251.25L441.1,235.72L443.01,247.03L444.93,248.3L446.85,248.63L448.77,277.17L450.68,278.69L458.36,297.09L460.27,298.19L462.19,288.31L464.11,304.44L466.03,309L467.95,316.6L471.78,328.84L473.7,329.51L481.37,349.35L483.29,352.65L485.21,355.09L487.12,355.35L489.04,360.33L490.96,362.86L496.71,365.99L498.63,365.99L506.3,368.1L508.22,369.7L512.05,371.56L513.97,371.39L517.81,372.49L519.73,370.71L521.64,370.46L523.56,369.19L527.4,368.6L529.32,366.15L531.23,365.23L533.15,365.65L536.99,363.87L538.9,363.54L542.74,362.95L544.66,361.09L546.58,362.95L548.49,359.23L552.33,351.38L554.25,351.21L560,331.79L561.92,329.77L563.84,326.14L565.75,324.95L567.67,324.19L569.59,316.34L571.51,313.89L573.42,312.88L577.26,311.36L579.18,309.34L581.1,308.49L583.01,310.18L584.93,307.14L586.85,305.79L590.68,296.08L592.6,297.26L594.52,297.85L596.44,293.55L598.36,292.7L600.27,288.74L602.19,291.44L604.11,291.86L606.03,286.2L607.95,285.61L609.86,288.06L611.78,288.23L613.7,291.1L615.62,289.58L619.45,294.56L621.37,294.05L623.29,293.46L625.21,292.03L627.12,287.89L629.04,288.23L634.79,290.51L636.71,293.89L640.55,304.1L642.47,307.14L646.3,311.95L648.22,312.71L650.14,316.93L652.05,319.3L653.97,322.93L655.89,323.35L661.64,322.67L663.56,324.53L667.4,325.21" style="vector-effect: non-scaling-stroke; fill: none; stroke: rgb(8, 115, 191); stroke-opacity: 1; stroke-width: 0.5px; opacity: 1;"/></g><g class="points"/><g class="text"/></g><g class="trace scatter traced90d14" style="stroke-miterlimit: 2;"><g class="fills"><g><path class="js-fill" d="M686.58,380L667.4,380L667.4,325.21L671.23,328.58L673.15,332.22L675.07,333.06L676.99,332.72L680.82,338.29L682.74,342.01L686.58,346.06" style="fill: rgb(8, 115, 191); fill-opacity: 0.4; stroke-width: 0;"/></g></g><g class="errorbars"/><g class="lines"><path class="js-line" d="M667.4,325.21L671.23,328.58L673.15,332.22L675.07,333.06L676.99,332.72L680.82,338.29L682.74,342.01L686.58,346.06" style="vector-effect: non-scaling-stroke; fill: none; stroke: rgb(8, 115, 191); stroke-opacity: 1; stroke-width: 2px; opacity: 1;"/></g><g class="points"/><g class="text"/></g><g class="trace scatter trace9d9990" style="stroke-miterlimit: 2; opacity: 1;"><g class="fills"/><g class="errorbars"/><g class="lines"/><g class="points"><path class="point" transform="translate(686.58,346.06)" d="M15,0A15,15 0 1,1 0,-15A15,15 0 0,1 15,0Z" style="opacity: 1; stroke-width: 0px; fill: rgb(8, 115, 191); fill-opacity: 1;"/></g><g class="text"/></g></g></g><g class="overplot"/><path class="xlines-above crisp" style="fill: none; stroke-width: 1px; stroke: rgb(0, 0, 0); stroke-opacity: 0;" d=""/><path class="ylines-above crisp" style="fill: none;" d="M0,0"/><g class="overlines-above"/><g class="xaxislayer-above"><path class="xtick ticks crisp" d="M0,450v-5" transform="translate(113.28999999999999,0)" style="stroke: rgb(68, 68, 68); stroke-opacity: 1; stroke-width: 1px;"/><path class="xtick ticks crisp" d="M0,450v-5" transform="translate(230.27,0)" style="stroke: rgb(68, 68, 68); stroke-opacity: 1; stroke-width: 1px;"/><path class="xtick ticks crisp" d="M0,450v-5" transform="translate(343.42,0)" style="stroke: rgb(68, 68, 68); stroke-opacity: 1; stroke-width: 1px;"/><path class="xtick ticks crisp" d="M0,450v-5" transform="translate(460.41,0)" style="stroke: rgb(68, 68, 68); stroke-opacity: 1; stroke-width: 1px;"/><path class="xtick ticks crisp" d="M0,450v-5" transform="translate(577.4,0)" style="stroke: rgb(68, 68, 68); stroke-opacity: 1; stroke-width: 1px;"/><path class="xtick ticks crisp" d="M0,450v-5" transform="translate(696.3,0)" style="stroke: rgb(68, 68, 68); stroke-opacity: 1; stroke-width: 1px;"/><g class="xtick"><text text-anchor="middle" x="0" y="469" transform="translate(113.28999999999999,0)" style="font-family: 'Open Sans', verdana, arial, sans-serif; font-size: 18px; fill: rgb(42, 63, 95); fill-opacity: 1; white-space: pre;">01/11</text></g><g class="xtick"><text text-anchor="middle" x="0" y="469" transform="translate(230.27,0)" style="font-family: 'Open Sans', verdana, arial, sans-serif; font-size: 18px; fill: rgb(42, 63, 95); fill-opacity: 1; white-space: pre;">01/01</text></g><g class="xtick"><text text-anchor="middle" x="0" y="469" transform="translate(343.42,0)" style="font-family: 'Open Sans', verdana, arial, sans-serif; font-size: 18px; fill: rgb(42, 63, 95); fill-opacity: 1; white-space: pre;">01/03</text></g><g class="xtick"><text text-anchor="middle" x="0" y="469" transform="translate(460.41,0)" style="font-family: 'Open Sans', verdana, arial, sans-serif; font-size: 18px; fill: rgb(42, 63, 95); fill-opacity: 1; white-space: pre;">01/05</text></g><g class="xtick"><text text-anchor="middle" x="0" y="469" transform="translate(577.4,0)" style="font-family: 'Open Sans', verdana, arial, sans-serif; font-size: 18px; fill: rgb(42, 63, 95); fill-opacity: 1; white-space: pre;">01/07</text></g><g class="xtick"><text text-anchor="middle" x="0" y="469" transform="translate(696.3,0)" style="font-family: 'Open Sans', verdana, arial, sans-serif; font-size: 18px; fill: rgb(42, 63, 95); fill-opacity: 1; white-space: pre;">01/09</text></g></g><g class="yaxislayer-above"/><g class="overaxes-above"/></g></g><g class="polarlayer"/><g class="ternarylayer"/><g class="geolayer"/><g class="funnelarealayer"/><g class="pielayer"/><g class="treemaplayer"/><g class="sunburstlayer"/><g class="glimages"/><defs id="topdefs-d88cef"><g class="clips"/></defs><g class="layer-above"><g class="imagelayer"/><g class="shapelayer"><path data-index="0" fill-rule="evenodd" d="M-1027.81,415.17L374.11,415.17" clip-path="url('#clipd88cefxy')" style="opacity: 1; stroke: rgb(255, 0, 0); stroke-opacity: 1; fill: rgb(0, 0, 0); fill-opacity: 0; stroke-dasharray: 3px, 3px; stroke-width: 1.5px;"/></g></g><g class="infolayer"><g class="g-gtitle"><text class="gtitle" x="375" y="25" text-anchor="middle" dy="0.7em" style="font-family: 'Open Sans', verdana, arial, sans-serif; font-size: 50px; fill: rgb(42, 63, 95); opacity: 1; font-weight: normal; white-space: pre;"><tspan style="font-weight:bold">Oise (60)</tspan></text></g><g class="g-xtitle"/><g class="annotation" data-index="0" style="opacity: 1;"><g class="annotation-text-g" transform="rotate(0,694.58,356.06)"><g class="cursor-pointer" transform="translate(651, 320)"><rect class="bg" x="0.5" y="0.5" width="86" height="71" style="stroke-width: 1px; stroke: rgb(0, 0, 0); stroke-opacity: 0; fill: rgb(255, 255, 255); fill-opacity: 0.6;"/><text class="annotation-text" text-anchor="middle" x="43.53125" y="55.5" style="font-family: 'Open Sans', verdana, arial, sans-serif; font-size: 50px; fill: rgb(8, 115, 191); fill-opacity: 1; white-space: pre;"> <tspan style="font-weight:bold">48 </tspan></text></g></g><g class="annotation-arrow-g" style="opacity: 1;"><path d="M722.98,391.56L734.58,406.06" style="stroke-width: 1px; stroke: rgb(8, 115, 191); stroke-opacity: 1; stroke-dasharray: 0px, 0px, 18.5691px, 18.5691px;"/></g></g></g></svg>