<svg class="main-svg" xmlns="http://www.w3.org/2000/svg" xmlns:xlink="http://www.w3.org/1999/xlink" width="1125" height="750" style="" viewBox="0 0 750 500"><rect x="0" y="0" width="750" height="500" style="fill: rgb(0, 0, 0); fill-opacity: 0;"/><defs id="defs-9adcb9"><g class="clips"><clipPath id="clip9adcb9xyplot" class="plotclip"><rect width="700" height="380"/></clipPath><clipPath class="axesclip" id="clip9adcb9x"><rect x="50" y="0" width="700" height="500"/></clipPath><clipPath class="axesclip" id="clip9adcb9y"><rect x="0" y="70" width="750" height="380"/></clipPath><clipPath class="axesclip" id="clip9adcb9xy"><rect x="50" y="70" width="700" height="380"/></clipPath></g><g class="gradients"/></defs><g class="bglayer"><rect class="bg" x="50" y="70" width="700" height="380" style="fill: rgb(0, 0, 0); fill-opacity: 0; stroke-width: 0;"/></g><g class="layer-below"><g class="imagelayer"/><g class="shapelayer"/></g><g class="cartesianlayer"><g class="subplot xy"><g class="layer-subplot"><g class="shapelayer"/><g class="imagelayer"/></g><g class="gridlayer"><g class="x"><path class="xgrid crisp" transform="translate(111.11,0)" d="M0,70v380" style="stroke: rgb(255, 255, 255); stroke-opacity: 1; stroke-width: 1px;"/><path class="xgrid crisp" transform="translate(224.07,0)" d="M0,70v380" style="stroke: rgb(255, 255, 255); stroke-opacity: 1; stroke-width: 1px;"/><path class="xgrid crisp" transform="translate(333.33,0)" d="M0,70v380" style="stroke: rgb(255, 255, 255); stroke-opacity: 1; stroke-width: 1px;"/><path class="xgrid crisp" transform="translate(446.3,0)" d="M0,70v380" style="stroke: rgb(255, 255, 255); stroke-opacity: 1; stroke-width: 1px;"/><path class="xgrid crisp" transform="translate(559.26,0)" d="M0,70v380" style="stroke: rgb(255, 255, 255); stroke-opacity: 1; stroke-width: 1px;"/><path class="xgrid crisp" transform="translate(674.07,0)" d="M0,70v380" style="stroke: rgb(255, 255, 255); stroke-opacity: 1; stroke-width: 1px;"/></g><g class="y"/></g><g class="zerolinelayer"/><path class="xlines-below"/><path class="ylines-below"/><g class="overlines-below"/><g class="xaxislayer-below"/><g class="yaxislayer-below"/><g class="overaxes-below"/><g class="plot" transform="translate(50, 70)" clip-path="url('#clip9adcb9xyplot')"><g class="scatterlayer mlayer"><g class="trace scatter trace545b2c" style="stroke-miterlimit: 2;"><g class="fills"><g><path class="js-fill" d="M668.52,380L-251.85,380L-251.85,377.44L-225.93,378.75L-224.07,378.87L-177.78,377.86L-175.93,377.8L-137.04,379.05L-135.19,378.45L-85.19,374.23L-83.33,373.51L-72.22,367.74L-70.37,366.85L-64.81,361.26L-62.96,360.84L-61.11,360.84L-59.26,358.17L-55.56,355.31L-53.7,354.54L-48.15,352.51L-46.3,353.05L-42.59,351.98L-40.74,351.86L-37.04,350.37L-35.19,350.25L-33.33,348.59L-31.48,344.9L-29.63,339.78L-27.78,340.02L-24.07,340.67L-22.22,340.73L-20.37,340.08L-18.52,343.05L-16.67,346.15L-14.81,346.98L-11.11,348.47L-9.26,348.65L-7.41,350.61L-5.56,350.49L-3.7,350.85L-1.85,349.6L1.85,344.72L3.7,344.24L9.26,324.61L11.11,315.51L12.96,305.81L14.81,303.31L16.67,303.13L18.52,287.19L22.22,266.48L24.07,249.76L25.93,235.54L27.78,229.53L29.63,228.7L31.48,212.4L38.89,113.7L40.74,104.24L42.59,101.44L44.44,75.44L48.15,32.54L50,18.03L53.7,13.09L55.56,12.79L57.41,4.22L59.26,0L66.67,44.03L68.52,46.17L72.22,108.58L74.07,161.59L77.78,200.62L79.63,206.57L81.48,207.28L83.33,224.78L85.19,243.4L87.04,228.88L90.74,262.85L92.59,268.21L94.44,268.98L96.3,283.8L100,300.57L101.85,303.01L103.7,307.24L105.56,306.23L107.41,306.46L109.26,312.41L111.11,315.15L112.96,314.55L114.81,320.39L116.67,322.11L118.52,323.36L120.37,323.36L124.07,318.78L125.93,320.15L129.63,318.66L131.48,317.95L135.19,318.12L137.04,316.93L138.89,316.7L140.74,314.44L146.3,295.69L148.15,296.65L150,293.85L151.85,292.9L153.7,297.42L155.56,312.59L159.26,323.95L161.11,322.59L162.96,324.79L164.81,322.47L166.67,319.67L168.52,320.09L172.22,319.25L174.07,314.85L175.93,312.23L177.78,313.72L179.63,311.1L181.48,296.71L183.33,297.9L185.19,296.82L188.89,302.95L190.74,301.17L194.44,302.6L196.3,301.76L198.15,303.73L200,300.57L201.85,298.61L203.7,298.73L205.56,297.12L207.41,297L209.26,295.16L211.11,294.5L214.81,289.33L216.67,289.03L218.52,289.45L220.37,287.19L224.07,287.42L225.93,286.47L227.78,288.26L229.63,285.58L231.48,284.45L233.33,286.12L235.19,288.2L237.04,288.55L238.89,296.29L240.74,296.47L246.3,306.52L248.15,306.94L251.85,306.28L253.7,309.85L255.56,311.4L257.41,310.27L259.26,310.33L261.11,309.62L262.96,309.08L264.81,306.58L266.67,305.81L268.52,304.2L270.37,305.93L272.22,305.27L275.93,306.05L277.78,309.85L283.33,316.46L285.19,317.65L287.04,318.36L288.89,318.18L290.74,317.89L292.59,314.97L294.44,314.26L296.3,312.71L298.15,310.75L300,310.21L301.85,309.91L303.7,307.06L311.11,290.22L312.96,286.71L314.81,286.18L316.67,280.34L318.52,278.8L320.37,271.18L322.22,266.3L324.07,259.16L325.93,256.43L327.78,256.37L331.48,243.99L333.33,241.32L335.19,234.77L337.04,233.82L340.74,233.16L342.59,260.41L344.44,253.21L346.3,254.76L348.15,262.97L350,266.07L353.7,266.18L355.56,242.39L357.41,256.31L359.26,258.03L361.11,259.22L362.96,264.7L364.81,266.36L366.67,266.78L370.37,271.6L372.22,275.35L374.07,278.62L375.93,279.69L377.78,281.89L379.63,282.72L383.33,287.31L385.19,291.41L388.89,299.5L390.74,307.47L392.59,307.24L394.44,314.08L401.85,325.68L403.7,325.5L405.56,325.68L407.41,326.99L411.11,334.49L412.96,341.21L414.81,342.87L416.67,340.14L418.52,340.73L420.37,344.78L424.07,342.4L425.93,335.85L431.48,337.04L433.33,345.02L435.19,346.09L437.04,349.6L440.74,354.06L442.59,354.65L444.44,354.42L446.3,348.65L450,352.75L451.85,354.77L455.56,357.75L457.41,358.22L459.26,361.73L461.11,363.46L464.81,367.15L466.67,367.74L470.37,367.8L472.22,369.23L474.07,370.72L475.93,370.78L477.78,370.96L479.63,372.56L488.89,374.65L490.74,374.59L496.3,374.7L498.15,375.48L507.41,375.18L509.26,375.36L512.96,373.16L514.81,372.92L522.22,371.31L524.07,369.95L525.93,367.92L527.78,368.99L533.33,359.06L535.19,359L538.89,346.27L540.74,336.51L544.44,326.99L546.3,325.14L548.15,324.43L550,320.62L555.56,320.09L557.41,318.96L562.96,319.91L564.81,318.96L566.67,317.95L568.52,315.27L572.22,314.02L574.07,313.72L575.93,312.65L577.78,309.91L583.33,309.79L585.19,308.78L587.04,308.78L588.89,307.06L590.74,310.33L592.59,310.69L594.44,313.84L596.3,315.03L598.15,316.58L600,316.1L601.85,316.34L603.7,317.41L609.26,324.25L611.11,324.97L612.96,325.86L614.81,331.27L616.67,332.34L618.52,334.78L620.37,334.01L622.22,337.28L627.78,339.54L629.63,340.61L631.48,340.79L633.33,344.06L635.19,343.77L637.04,345.08L638.89,344.9L640.74,347.81L644.44,352.45L646.3,352.69L648.15,354.12L650,354.12L651.85,354.12L653.7,355.25L662.96,359.24L664.81,359.18L666.67,360.72L668.52,359.83" style="fill: rgb(8, 115, 191); fill-opacity: 0.2; stroke-width: 0;"/></g></g><g class="errorbars"/><g class="lines"><path class="js-line" d="M-251.85,377.44L-225.93,378.75L-224.07,378.87L-177.78,377.86L-175.93,377.8L-137.04,379.05L-135.19,378.45L-85.19,374.23L-83.33,373.51L-72.22,367.74L-70.37,366.85L-64.81,361.26L-62.96,360.84L-61.11,360.84L-59.26,358.17L-55.56,355.31L-53.7,354.54L-48.15,352.51L-46.3,353.05L-42.59,351.98L-40.74,351.86L-37.04,350.37L-35.19,350.25L-33.33,348.59L-31.48,344.9L-29.63,339.78L-27.78,340.02L-24.07,340.67L-22.22,340.73L-20.37,340.08L-18.52,343.05L-16.67,346.15L-14.81,346.98L-11.11,348.47L-9.26,348.65L-7.41,350.61L-5.56,350.49L-3.7,350.85L-1.85,349.6L1.85,344.72L3.7,344.24L9.26,324.61L11.11,315.51L12.96,305.81L14.81,303.31L16.67,303.13L18.52,287.19L22.22,266.48L24.07,249.76L25.93,235.54L27.78,229.53L29.63,228.7L31.48,212.4L38.89,113.7L40.74,104.24L42.59,101.44L44.44,75.44L48.15,32.54L50,18.03L53.7,13.09L55.56,12.79L57.41,4.22L59.26,0L66.67,44.03L68.52,46.17L72.22,108.58L74.07,161.59L77.78,200.62L79.63,206.57L81.48,207.28L83.33,224.78L85.19,243.4L87.04,228.88L90.74,262.85L92.59,268.21L94.44,268.98L96.3,283.8L100,300.57L101.85,303.01L103.7,307.24L105.56,306.23L107.41,306.46L109.26,312.41L111.11,315.15L112.96,314.55L114.81,320.39L116.67,322.11L118.52,323.36L120.37,323.36L124.07,318.78L125.93,320.15L129.63,318.66L131.48,317.95L135.19,318.12L137.04,316.93L138.89,316.7L140.74,314.44L146.3,295.69L148.15,296.65L150,293.85L151.85,292.9L153.7,297.42L155.56,312.59L159.26,323.95L161.11,322.59L162.96,324.79L164.81,322.47L166.67,319.67L168.52,320.09L172.22,319.25L174.07,314.85L175.93,312.23L177.78,313.72L179.63,311.1L181.48,296.71L183.33,297.9L185.19,296.82L188.89,302.95L190.74,301.17L194.44,302.6L196.3,301.76L198.15,303.73L200,300.57L201.85,298.61L203.7,298.73L205.56,297.12L207.41,297L209.26,295.16L211.11,294.5L214.81,289.33L216.67,289.03L218.52,289.45L220.37,287.19L224.07,287.42L225.93,286.47L227.78,288.26L229.63,285.58L231.48,284.45L233.33,286.12L235.19,288.2L237.04,288.55L238.89,296.29L240.74,296.47L246.3,306.52L248.15,306.94L251.85,306.28L253.7,309.85L255.56,311.4L257.41,310.27L259.26,310.33L261.11,309.62L262.96,309.08L264.81,306.58L266.67,305.81L268.52,304.2L270.37,305.93L272.22,305.27L275.93,306.05L277.78,309.85L283.33,316.46L285.19,317.65L287.04,318.36L288.89,318.18L290.74,317.89L292.59,314.97L294.44,314.26L296.3,312.71L298.15,310.75L300,310.21L301.85,309.91L303.7,307.06L311.11,290.22L312.96,286.71L314.81,286.18L316.67,280.34L318.52,278.8L320.37,271.18L322.22,266.3L324.07,259.16L325.93,256.43L327.78,256.37L331.48,243.99L333.33,241.32L335.19,234.77L337.04,233.82L340.74,233.16L342.59,260.41L344.44,253.21L346.3,254.76L348.15,262.97L350,266.07L353.7,266.18L355.56,242.39L357.41,256.31L359.26,258.03L361.11,259.22L362.96,264.7L364.81,266.36L366.67,266.78L370.37,271.6L372.22,275.35L374.07,278.62L375.93,279.69L377.78,281.89L379.63,282.72L383.33,287.31L385.19,291.41L388.89,299.5L390.74,307.47L392.59,307.24L394.44,314.08L401.85,325.68L403.7,325.5L405.56,325.68L407.41,326.99L411.11,334.49L412.96,341.21L414.81,342.87L416.67,340.14L418.52,340.73L420.37,344.78L424.07,342.4L425.93,335.85L431.48,337.04L433.33,345.02L435.19,346.09L437.04,349.6L440.74,354.06L442.59,354.65L444.44,354.42L446.3,348.65L450,352.75L451.85,354.77L455.56,357.75L457.41,358.22L459.26,361.73L461.11,363.46L464.81,367.15L466.67,367.74L470.37,367.8L472.22,369.23L474.07,370.72L475.93,370.78L477.78,370.96L479.63,372.56L488.89,374.65L490.74,374.59L496.3,374.7L498.15,375.48L507.41,375.18L509.26,375.36L512.96,373.16L514.81,372.92L522.22,371.31L524.07,369.95L525.93,367.92L527.78,368.99L533.33,359.06L535.19,359L538.89,346.27L540.74,336.51L544.44,326.99L546.3,325.14L548.15,324.43L550,320.62L555.56,320.09L557.41,318.96L562.96,319.91L564.81,318.96L566.67,317.95L568.52,315.27L572.22,314.02L574.07,313.72L575.93,312.65L577.78,309.91L583.33,309.79L585.19,308.78L587.04,308.78L588.89,307.06L590.74,310.33L592.59,310.69L594.44,313.84L596.3,315.03L598.15,316.58L600,316.1L601.85,316.34L603.7,317.41L609.26,324.25L611.11,324.97L612.96,325.86L614.81,331.27L616.67,332.34L618.52,334.78L620.37,334.01L622.22,337.28L627.78,339.54L629.63,340.61L631.48,340.79L633.33,344.06L635.19,343.77L637.04,345.08L638.89,344.9L640.74,347.81L644.44,352.45L646.3,352.69L648.15,354.12L650,354.12L651.85,354.12L653.7,355.25L662.96,359.24L664.81,359.18L666.67,360.72L668.52,359.83" style="vector-effect: non-scaling-stroke; fill: none; stroke: rgb(8, 115, 191); stroke-opacity: 1; stroke-width: 0.5px; opacity: 1;"/></g><g class="points"/><g class="text"/></g><g class="trace scatter trace596408" style="stroke-miterlimit: 2;"><g class="fills"><g><path class="js-fill" d="M687.04,380L668.52,380L668.52,359.83L670.37,360.25L672.22,359.24L677.78,358.46L679.63,358.34L683.33,360.6L685.19,362.75L687.04,364.65" style="fill: rgb(8, 115, 191); fill-opacity: 0.4; stroke-width: 0;"/></g></g><g class="errorbars"/><g class="lines"><path class="js-line" d="M668.52,359.83L670.37,360.25L672.22,359.24L677.78,358.46L679.63,358.34L683.33,360.6L685.19,362.75L687.04,364.65" style="vector-effect: non-scaling-stroke; fill: none; stroke: rgb(8, 115, 191); stroke-opacity: 1; stroke-width: 2px; opacity: 1;"/></g><g class="points"/><g class="text"/></g><g class="trace scatter tracee3dc85" style="stroke-miterlimit: 2; opacity: 1;"><g class="fills"/><g class="errorbars"/><g class="lines"/><g class="points"><path class="point" transform="translate(687.04,364.65)" d="M15,0A15,15 0 1,1 0,-15A15,15 0 0,1 15,0Z" style="opacity: 1; stroke-width: 0px; fill: rgb(8, 115, 191); fill-opacity: 1;"/></g><g class="text"/></g></g></g><g class="overplot"/><path class="xlines-above crisp" style="fill: none; stroke-width: 1px; stroke: rgb(0, 0, 0); stroke-opacity: 0;" d=""/><path class="ylines-above crisp" style="fill: none;" d="M0,0"/><g class="overlines-above"/><g class="xaxislayer-above"><path class="xtick ticks crisp" d="M0,450v-5" transform="translate(111.11,0)" style="stroke: rgb(68, 68, 68); stroke-opacity: 1; stroke-width: 1px;"/><path class="xtick ticks crisp" d="M0,450v-5" transform="translate(224.07,0)" style="stroke: rgb(68, 68, 68); stroke-opacity: 1; stroke-width: 1px;"/><path class="xtick ticks crisp" d="M0,450v-5" transform="translate(333.33,0)" style="stroke: rgb(68, 68, 68); stroke-opacity: 1; stroke-width: 1px;"/><path class="xtick ticks crisp" d="M0,450v-5" transform="translate(446.3,0)" style="stroke: rgb(68, 68, 68); stroke-opacity: 1; stroke-width: 1px;"/><path class="xtick ticks crisp" d="M0,450v-5" transform="translate(559.26,0)" style="stroke: rgb(68, 68, 68); stroke-opacity: 1; stroke-width: 1px;"/><path class="xtick ticks crisp" d="M0,450v-5" transform="translate(674.07,0)" style="stroke: rgb(68, 68, 68); stroke-opacity: 1; stroke-width: 1px;"/><g class="xtick"><text text-anchor="middle" x="0" y="469" transform="translate(111.11,0)" style="font-family: 'Open Sans', verdana, arial, sans-serif; font-size: 18px; fill: rgb(42, 63, 95); fill-opacity: 1; white-space: pre;">01/11</text></g><g class="xtick"><text text-anchor="middle" x="0" y="469" transform="translate(224.07,0)" style="font-family: 'Open Sans', verdana, arial, sans-serif; font-size: 18px; fill: rgb(42, 63, 95); fill-opacity: 1; white-space: pre;">01/01</text></g><g class="xtick"><text text-anchor="middle" x="0" y="469" transform="translate(333.33,0)" style="font-family: 'Open Sans', verdana, arial, sans-serif; font-size: 18px; fill: rgb(42, 63, 95); fill-opacity: 1; white-space: pre;">01/03</text></g><g class="xtick"><text text-anchor="middle" x="0" y="469" transform="translate(446.3,0)" style="font-family: 'Open Sans', verdana, arial, sans-serif; font-size: 18px; fill: rgb(42, 63, 95); fill-opacity: 1; white-space: pre;">01/05</text></g><g class="xtick"><text text-anchor="middle" x="0" y="469" transform="translate(559.26,0)" style="font-family: 'Open Sans', verdana, arial, sans-serif; font-size: 18px; fill: rgb(42, 63, 95); fill-opacity: 1; white-space: pre;">01/07</text></g><g class="xtick"><text text-anchor="middle" x="0" y="469" transform="translate(674.07,0)" style="font-family: 'Open Sans', verdana, arial, sans-serif; font-size: 18px; fill: rgb(42, 63, 95); fill-opacity: 1; white-space: pre;">01/09</text></g></g><g class="yaxislayer-above"/><g class="overaxes-above"/></g></g><g class="polarlayer"/><g class="ternarylayer"/><g class="geolayer"/><g class="funnelarealayer"/><g class="pielayer"/><g class="treemaplayer"/><g class="sunburstlayer"/><g class="glimages"/><defs id="topdefs-9adcb9"><g class="clips"/></defs><g class="layer-above"><g class="imagelayer"/><g class="shapelayer"><path data-index="0" fill-rule="evenodd" d="M-990.74,430.46L362.96,430.46" clip-path="url('#clip9adcb9xy')" style="opacity: 1; stroke: rgb(255, 0, 0); stroke-opacity: 1; fill: rgb(0, 0, 0); fill-opacity: 0; stroke-dasharray: 3px, 3px; stroke-width: 1.5px;"/></g></g><g class="infolayer"><g class="g-gtitle"><text class="gtitle" x="375" y="25" text-anchor="middle" dy="0.7em" style="font-family: 'Open Sans', verdana, arial, sans-serif; font-size: 50px; fill: rgb(42, 63, 95); opacity: 1; font-weight: normal; white-space: pre;"><tspan style="font-weight:bold">Ain (01)</tspan></text></g><g class="g-xtitle"/><g class="annotation" data-index="0" style="opacity: 1;"><g class="annotation-text-g" transform="rotate(0,695.04,374.65)"><g class="cursor-pointer" transform="translate(652, 339)"><rect class="bg" x="0.5" y="0.5" width="86" height="71" style="stroke-width: 1px; stroke: rgb(0, 0, 0); stroke-opacity: 0; fill: rgb(255, 255, 255); fill-opacity: 0.6;"/><text class="annotation-text" text-anchor="middle" x="43.53125" y="55.5" style="font-family: 'Open Sans', verdana, arial, sans-serif; font-size: 50px; fill: rgb(8, 115, 191); fill-opacity: 1; white-space: pre;"> <tspan style="font-weight:bold">39 </tspan></text></g></g><g class="annotation-arrow-g" style="opacity: 1;"><path d="M723.4399999999999,410.15L735.04,424.65" style="stroke-width: 1px; stroke: rgb(8, 115, 191); stroke-opacity: 1; stroke-dasharray: 0px, 0px, 18.569px, 18.569px;"/></g></g></g></svg>