<svg class="main-svg" xmlns="http://www.w3.org/2000/svg" xmlns:xlink="http://www.w3.org/1999/xlink" width="1125" height="750" style="" viewBox="0 0 750 500"><rect x="0" y="0" width="750" height="500" style="fill: rgb(0, 0, 0); fill-opacity: 0;"/><defs id="defs-8de1d4"><g class="clips"><clipPath id="clip8de1d4xyplot" class="plotclip"><rect width="700" height="380"/></clipPath><clipPath class="axesclip" id="clip8de1d4x"><rect x="50" y="0" width="700" height="500"/></clipPath><clipPath class="axesclip" id="clip8de1d4y"><rect x="0" y="70" width="750" height="380"/></clipPath><clipPath class="axesclip" id="clip8de1d4xy"><rect x="50" y="70" width="700" height="380"/></clipPath></g><g class="gradients"/></defs><g class="bglayer"><rect class="bg" x="50" y="70" width="700" height="380" style="fill: rgb(0, 0, 0); fill-opacity: 0; stroke-width: 0;"/></g><g class="layer-below"><g class="imagelayer"/><g class="shapelayer"/></g><g class="cartesianlayer"><g class="subplot xy"><g class="layer-subplot"><g class="shapelayer"/><g class="imagelayer"/></g><g class="gridlayer"><g class="x"><path class="xgrid crisp" transform="translate(112.1,0)" d="M0,70v380" style="stroke: rgb(255, 255, 255); stroke-opacity: 1; stroke-width: 1px;"/><path class="xgrid crisp" transform="translate(226.88,0)" d="M0,70v380" style="stroke: rgb(255, 255, 255); stroke-opacity: 1; stroke-width: 1px;"/><path class="xgrid crisp" transform="translate(337.9,0)" d="M0,70v380" style="stroke: rgb(255, 255, 255); stroke-opacity: 1; stroke-width: 1px;"/><path class="xgrid crisp" transform="translate(452.69,0)" d="M0,70v380" style="stroke: rgb(255, 255, 255); stroke-opacity: 1; stroke-width: 1px;"/><path class="xgrid crisp" transform="translate(567.47,0)" d="M0,70v380" style="stroke: rgb(255, 255, 255); stroke-opacity: 1; stroke-width: 1px;"/><path class="xgrid crisp" transform="translate(684.14,0)" d="M0,70v380" style="stroke: rgb(255, 255, 255); stroke-opacity: 1; stroke-width: 1px;"/></g><g class="y"/></g><g class="zerolinelayer"/><path class="xlines-below"/><path class="ylines-below"/><g class="overlines-below"/><g class="xaxislayer-below"/><g class="yaxislayer-below"/><g class="overaxes-below"/><g class="plot" transform="translate(50, 70)" clip-path="url('#clip8de1d4xyplot')"><g class="scatterlayer mlayer"><g class="trace scatter tracefaf2a9" style="stroke-miterlimit: 2;"><g class="fills"><g><path class="js-fill" d="M668.01,380L-255.91,380L-255.91,376.42L-235.22,372.48L-233.33,371.63L-201.34,377.35L-199.46,376.78L-186.29,377.92L-184.41,377.78L-159.95,377.85L-158.06,377.14L-146.77,373.49L-144.89,372.27L-127.96,371.7L-126.08,373.13L-122.31,371.41L-120.43,372.41L-114.78,370.05L-112.9,369.05L-88.44,363.68L-86.56,363.82L-80.91,359.24L-79.03,359.03L-71.51,355.38L-69.62,355.09L-63.98,347.58L-62.1,348.22L-58.33,341.92L-56.45,337.63L-52.69,326.03L-50.81,322.95L-48.92,322.6L-47.04,318.73L-43.28,321.59L-41.4,323.74L-39.52,327.39L-37.63,327.18L-33.87,327.25L-31.99,323.74L-30.11,319.66L-28.23,319.95L-26.34,317.3L-24.46,319.59L-22.58,319.52L-20.7,315.51L-18.82,313.08L-16.94,313.58L-15.05,311.14L-13.17,311.21L-11.29,311.93L-9.41,311.07L-5.65,313.15L-3.76,312.57L-1.88,309.71L0,302.12L1.88,295.75L3.76,295.97L7.53,278.93L9.41,271.63L11.29,264.05L13.17,261.76L15.05,259.39L16.94,258.46L20.7,245.22L22.58,237.71L26.34,210.86L28.23,204.35L30.11,201.56L31.99,183.02L37.63,120.89L39.52,98.49L41.4,90.62L43.28,87.04L48.92,26.27L50.81,16.68L54.57,4.51L56.45,1.65L58.33,0L60.22,0.21L62.1,11.38L63.98,14.82L67.74,34.14L69.62,36.29L71.51,52.68L73.39,80.95L75.27,126.12L77.15,147.3L79.03,178.58L80.91,187.46L82.8,189.89L84.68,215.45L86.56,240.14L88.44,237.28L90.32,258.96L92.2,267.12L95.97,279.22L97.85,294.61L99.73,304.06L101.61,307.64L105.38,319.16L107.26,320.59L109.14,322.45L111.02,322.67L112.9,319.73L114.78,322.02L118.55,325.24L120.43,322.24L122.31,321.45L124.19,324.81L126.08,327.46L127.96,324.03L131.72,322.81L133.6,325.24L137.37,324.39L139.25,321.95L141.13,319.8L143.01,316.01L146.77,310.79L148.66,310.5L150.54,310L152.42,307.78L156.18,304.7L158.06,315.72L159.95,314.01L161.83,314.36L163.71,306.63L165.59,303.34L169.35,297.19L171.24,296.4L176.88,283.23L178.76,281.01L182.53,276.5L184.41,257.03L186.29,258.18L188.17,258.39L190.05,260.47L191.94,257.89L193.82,254.74L195.7,255.24L197.58,253.17L199.46,253.31L201.34,251.45L203.23,240.64L205.11,235.42L206.99,235.56L208.87,234.13L210.75,231.62L212.63,228.76L214.52,230.19L216.4,231.12L218.28,236.92L220.16,235.2L222.04,225.32L223.92,223.75L225.81,223.96L227.69,222.82L229.57,225.39L231.45,227.76L233.33,231.69L237.1,252.67L238.98,256.39L240.86,258.39L242.74,268.91L246.51,275.43L248.39,279.86L250.27,284.45L252.15,286.31L254.03,287.24L255.91,284.23L257.8,281.65L259.68,276.43L263.44,261.68L265.32,256.82L269.09,250.02L270.97,244.86L274.73,247.87L276.61,248.01L280.38,252.74L282.26,252.45L284.14,255.1L286.02,255.96L287.9,257.17L289.78,257.1L293.55,254.1L295.43,256.89L297.31,256.1L299.19,249.87L301.08,249.23L302.96,245.94L304.84,240.71L306.72,241.43L308.6,230.26L310.48,224.61L312.37,223.68L314.25,216.38L316.13,212.51L318.01,212.94L319.89,210.22L321.77,204.06L323.66,197.98L325.54,189.03L329.3,169.49L331.18,162.41L333.06,158.47L334.95,149.95L336.83,139.29L338.71,134.21L342.47,127.19L344.35,125.4L346.24,124.54L348.12,158.18L350,155.32L351.88,157.47L353.76,159.33L355.65,159.54L357.53,155.89L359.41,158.47L361.29,123.04L363.17,132.49L366.94,138.07L368.82,144.51L370.7,150.67L372.58,150.53L374.46,155.54L376.34,157.68L378.23,158.54L380.11,163.98L381.99,165.56L383.87,170.5L385.75,173.57L387.63,187.24L393.28,212.8L395.16,218.09L397.04,230.26L398.92,229.69L400.81,230.91L402.69,235.56L404.57,240L406.45,247.08L408.33,248.44L410.22,248.8L412.1,249.01L413.98,250.45L415.86,250.23L417.74,244.86L419.62,256.32L421.51,260.4L423.39,255.17L425.27,256.96L427.15,262.26L429.03,262.9L430.91,267.41L432.8,253.52L434.68,257.6L436.56,257.39L438.44,257.39L440.32,275.5L444.09,275.64L445.97,278.65L449.73,285.66L451.61,286.38L453.49,276.57L455.38,287.52L459.14,304.56L461.02,308.42L462.9,313.51L464.78,316.3L466.67,323.03L468.55,326.68L472.31,339.85L474.19,344.14L476.08,346.72L477.96,347.93L481.72,356.52L483.6,357.67L489.25,362.18L491.13,362.82L494.89,365.11L496.77,366.11L500.54,368.76L502.42,368.19L508.06,367.26L509.95,366.76L513.71,365.54L515.59,364.11L517.47,363.04L519.35,360.96L521.24,357.74L523.12,352.66L528.76,338.7L530.65,338.34L534.41,323.6L536.29,327.03L541.94,300.98L543.82,297.04L547.58,271.06L549.46,247.23L555.11,220.74L556.99,219.95L558.87,210.22L560.75,207.86L568.28,223.03L570.16,223.1L573.92,226.18L575.81,226.04L581.45,226.54L583.33,225.61L585.22,228.11L587.1,227.18L588.98,225.75L590.86,221.24L592.74,223.18L594.62,223.75L598.39,221.89L600.27,224.97L602.15,224.03L604.03,230.62L605.91,232.12L607.8,230.48L611.56,234.2L613.44,235.27L615.32,241.21L617.2,237.56L619.09,240L620.97,246.87L622.85,247.73L624.73,259.47L632.26,284.73L634.14,285.09L636.02,286.52L637.9,286.95L643.55,296.54L645.43,298.83L649.19,304.63L651.08,311.43L652.96,316.08L654.84,318.01L658.6,325.17L660.48,326.6L662.37,325.96L664.25,328.25L666.13,329.32L668.01,331.97" style="fill: rgb(8, 115, 191); fill-opacity: 0.2; stroke-width: 0;"/></g></g><g class="errorbars"/><g class="lines"><path class="js-line" d="M-255.91,376.42L-235.22,372.48L-233.33,371.63L-201.34,377.35L-199.46,376.78L-186.29,377.92L-184.41,377.78L-159.95,377.85L-158.06,377.14L-146.77,373.49L-144.89,372.27L-127.96,371.7L-126.08,373.13L-122.31,371.41L-120.43,372.41L-114.78,370.05L-112.9,369.05L-88.44,363.68L-86.56,363.82L-80.91,359.24L-79.03,359.03L-71.51,355.38L-69.62,355.09L-63.98,347.58L-62.1,348.22L-58.33,341.92L-56.45,337.63L-52.69,326.03L-50.81,322.95L-48.92,322.6L-47.04,318.73L-43.28,321.59L-41.4,323.74L-39.52,327.39L-37.63,327.18L-33.87,327.25L-31.99,323.74L-30.11,319.66L-28.23,319.95L-26.34,317.3L-24.46,319.59L-22.58,319.52L-20.7,315.51L-18.82,313.08L-16.94,313.58L-15.05,311.14L-13.17,311.21L-11.29,311.93L-9.41,311.07L-5.65,313.15L-3.76,312.57L-1.88,309.71L0,302.12L1.88,295.75L3.76,295.97L7.53,278.93L9.41,271.63L11.29,264.05L13.17,261.76L15.05,259.39L16.94,258.46L20.7,245.22L22.58,237.71L26.34,210.86L28.23,204.35L30.11,201.56L31.99,183.02L37.63,120.89L39.52,98.49L41.4,90.62L43.28,87.04L48.92,26.27L50.81,16.68L54.57,4.51L56.45,1.65L58.33,0L60.22,0.21L62.1,11.38L63.98,14.82L67.74,34.14L69.62,36.29L71.51,52.68L73.39,80.95L75.27,126.12L77.15,147.3L79.03,178.58L80.91,187.46L82.8,189.89L84.68,215.45L86.56,240.14L88.44,237.28L90.32,258.96L92.2,267.12L95.97,279.22L97.85,294.61L99.73,304.06L101.61,307.64L105.38,319.16L107.26,320.59L109.14,322.45L111.02,322.67L112.9,319.73L114.78,322.02L118.55,325.24L120.43,322.24L122.31,321.45L124.19,324.81L126.08,327.46L127.96,324.03L131.72,322.81L133.6,325.24L137.37,324.39L139.25,321.95L141.13,319.8L143.01,316.01L146.77,310.79L148.66,310.5L150.54,310L152.42,307.78L156.18,304.7L158.06,315.72L159.95,314.01L161.83,314.36L163.71,306.63L165.59,303.34L169.35,297.19L171.24,296.4L176.88,283.23L178.76,281.01L182.53,276.5L184.41,257.03L186.29,258.18L188.17,258.39L190.05,260.47L191.94,257.89L193.82,254.74L195.7,255.24L197.58,253.17L199.46,253.31L201.34,251.45L203.23,240.64L205.11,235.42L206.99,235.56L208.87,234.13L210.75,231.62L212.63,228.76L214.52,230.19L216.4,231.12L218.28,236.92L220.16,235.2L222.04,225.32L223.92,223.75L225.81,223.96L227.69,222.82L229.57,225.39L231.45,227.76L233.33,231.69L237.1,252.67L238.98,256.39L240.86,258.39L242.74,268.91L246.51,275.43L248.39,279.86L250.27,284.45L252.15,286.31L254.03,287.24L255.91,284.23L257.8,281.65L259.68,276.43L263.44,261.68L265.32,256.82L269.09,250.02L270.97,244.86L274.73,247.87L276.61,248.01L280.38,252.74L282.26,252.45L284.14,255.1L286.02,255.96L287.9,257.17L289.78,257.1L293.55,254.1L295.43,256.89L297.31,256.1L299.19,249.87L301.08,249.23L302.96,245.94L304.84,240.71L306.72,241.43L308.6,230.26L310.48,224.61L312.37,223.68L314.25,216.38L316.13,212.51L318.01,212.94L319.89,210.22L321.77,204.06L323.66,197.98L325.54,189.03L329.3,169.49L331.18,162.41L333.06,158.47L334.95,149.95L336.83,139.29L338.71,134.21L342.47,127.19L344.35,125.4L346.24,124.54L348.12,158.18L350,155.32L351.88,157.47L353.76,159.33L355.65,159.54L357.53,155.89L359.41,158.47L361.29,123.04L363.17,132.49L366.94,138.07L368.82,144.51L370.7,150.67L372.58,150.53L374.46,155.54L376.34,157.68L378.23,158.54L380.11,163.98L381.99,165.56L383.87,170.5L385.75,173.57L387.63,187.24L393.28,212.8L395.16,218.09L397.04,230.26L398.92,229.69L400.81,230.91L402.69,235.56L404.57,240L406.45,247.08L408.33,248.44L410.22,248.8L412.1,249.01L413.98,250.45L415.86,250.23L417.74,244.86L419.62,256.32L421.51,260.4L423.39,255.17L425.27,256.96L427.15,262.26L429.03,262.9L430.91,267.41L432.8,253.52L434.68,257.6L436.56,257.39L438.44,257.39L440.32,275.5L444.09,275.64L445.97,278.65L449.73,285.66L451.61,286.38L453.49,276.57L455.38,287.52L459.14,304.56L461.02,308.42L462.9,313.51L464.78,316.3L466.67,323.03L468.55,326.68L472.31,339.85L474.19,344.14L476.08,346.72L477.96,347.93L481.72,356.52L483.6,357.67L489.25,362.18L491.13,362.82L494.89,365.11L496.77,366.11L500.54,368.76L502.42,368.19L508.06,367.26L509.95,366.76L513.71,365.54L515.59,364.11L517.47,363.04L519.35,360.96L521.24,357.74L523.12,352.66L528.76,338.7L530.65,338.34L534.41,323.6L536.29,327.03L541.94,300.98L543.82,297.04L547.58,271.06L549.46,247.23L555.11,220.74L556.99,219.95L558.87,210.22L560.75,207.86L568.28,223.03L570.16,223.1L573.92,226.18L575.81,226.04L581.45,226.54L583.33,225.61L585.22,228.11L587.1,227.18L588.98,225.75L590.86,221.24L592.74,223.18L594.62,223.75L598.39,221.89L600.27,224.97L602.15,224.03L604.03,230.62L605.91,232.12L607.8,230.48L611.56,234.2L613.44,235.27L615.32,241.21L617.2,237.56L619.09,240L620.97,246.87L622.85,247.73L624.73,259.47L632.26,284.73L634.14,285.09L636.02,286.52L637.9,286.95L643.55,296.54L645.43,298.83L649.19,304.63L651.08,311.43L652.96,316.08L654.84,318.01L658.6,325.17L660.48,326.6L662.37,325.96L664.25,328.25L666.13,329.32L668.01,331.97" style="vector-effect: non-scaling-stroke; fill: none; stroke: rgb(8, 115, 191); stroke-opacity: 1; stroke-width: 0.5px; opacity: 1;"/></g><g class="points"/><g class="text"/></g><g class="trace scatter trace7db1da" style="stroke-miterlimit: 2;"><g class="fills"><g><path class="js-fill" d="M686.83,380L668.01,380L668.01,331.97L671.77,334.62L673.66,335.84L675.54,335.84L677.42,336.77L679.3,335.48L681.18,336.48L686.83,336.77" style="fill: rgb(8, 115, 191); fill-opacity: 0.4; stroke-width: 0;"/></g></g><g class="errorbars"/><g class="lines"><path class="js-line" d="M668.01,331.97L671.77,334.62L673.66,335.84L675.54,335.84L677.42,336.77L679.3,335.48L681.18,336.48L686.83,336.77" style="vector-effect: non-scaling-stroke; fill: none; stroke: rgb(8, 115, 191); stroke-opacity: 1; stroke-width: 2px; opacity: 1;"/></g><g class="points"/><g class="text"/></g><g class="trace scatter traced5e4df" style="stroke-miterlimit: 2; opacity: 1;"><g class="fills"/><g class="errorbars"/><g class="lines"/><g class="points"><path class="point" transform="translate(686.83,336.77)" d="M15,0A15,15 0 1,1 0,-15A15,15 0 0,1 15,0Z" style="opacity: 1; stroke-width: 0px; fill: rgb(8, 115, 191); fill-opacity: 1;"/></g><g class="text"/></g></g></g><g class="overplot"/><path class="xlines-above crisp" style="fill: none; stroke-width: 1px; stroke: rgb(0, 0, 0); stroke-opacity: 0;" d=""/><path class="ylines-above crisp" style="fill: none;" d="M0,0"/><g class="overlines-above"/><g class="xaxislayer-above"><path class="xtick ticks crisp" d="M0,450v-5" transform="translate(112.1,0)" style="stroke: rgb(68, 68, 68); stroke-opacity: 1; stroke-width: 1px;"/><path class="xtick ticks crisp" d="M0,450v-5" transform="translate(226.88,0)" style="stroke: rgb(68, 68, 68); stroke-opacity: 1; stroke-width: 1px;"/><path class="xtick ticks crisp" d="M0,450v-5" transform="translate(337.9,0)" style="stroke: rgb(68, 68, 68); stroke-opacity: 1; stroke-width: 1px;"/><path class="xtick ticks crisp" d="M0,450v-5" transform="translate(452.69,0)" style="stroke: rgb(68, 68, 68); stroke-opacity: 1; stroke-width: 1px;"/><path class="xtick ticks crisp" d="M0,450v-5" transform="translate(567.47,0)" style="stroke: rgb(68, 68, 68); stroke-opacity: 1; stroke-width: 1px;"/><path class="xtick ticks crisp" d="M0,450v-5" transform="translate(684.14,0)" style="stroke: rgb(68, 68, 68); stroke-opacity: 1; stroke-width: 1px;"/><g class="xtick"><text text-anchor="middle" x="0" y="469" transform="translate(112.1,0)" style="font-family: 'Open Sans', verdana, arial, sans-serif; font-size: 18px; fill: rgb(42, 63, 95); fill-opacity: 1; white-space: pre;">01/11</text></g><g class="xtick"><text text-anchor="middle" x="0" y="469" transform="translate(226.88,0)" style="font-family: 'Open Sans', verdana, arial, sans-serif; font-size: 18px; fill: rgb(42, 63, 95); fill-opacity: 1; white-space: pre;">01/01</text></g><g class="xtick"><text text-anchor="middle" x="0" y="469" transform="translate(337.9,0)" style="font-family: 'Open Sans', verdana, arial, sans-serif; font-size: 18px; fill: rgb(42, 63, 95); fill-opacity: 1; white-space: pre;">01/03</text></g><g class="xtick"><text text-anchor="middle" x="0" y="469" transform="translate(452.69,0)" style="font-family: 'Open Sans', verdana, arial, sans-serif; font-size: 18px; fill: rgb(42, 63, 95); fill-opacity: 1; white-space: pre;">01/05</text></g><g class="xtick"><text text-anchor="middle" x="0" y="469" transform="translate(567.47,0)" style="font-family: 'Open Sans', verdana, arial, sans-serif; font-size: 18px; fill: rgb(42, 63, 95); fill-opacity: 1; white-space: pre;">01/07</text></g><g class="xtick"><text text-anchor="middle" x="0" y="469" transform="translate(684.14,0)" style="font-family: 'Open Sans', verdana, arial, sans-serif; font-size: 18px; fill: rgb(42, 63, 95); fill-opacity: 1; white-space: pre;">01/09</text></g></g><g class="yaxislayer-above"/><g class="overaxes-above"/></g></g><g class="polarlayer"/><g class="ternarylayer"/><g class="geolayer"/><g class="funnelarealayer"/><g class="pielayer"/><g class="treemaplayer"/><g class="sunburstlayer"/><g class="glimages"/><defs id="topdefs-8de1d4"><g class="clips"/></defs><g class="layer-above"><g class="imagelayer"/><g class="shapelayer"><path data-index="0" fill-rule="evenodd" d="M-1007.53,398.57L368.01,398.57" clip-path="url('#clip8de1d4xy')" style="opacity: 1; stroke: rgb(255, 0, 0); stroke-opacity: 1; fill: rgb(0, 0, 0); fill-opacity: 0; stroke-dasharray: 3px, 3px; stroke-width: 1.5px;"/></g></g><g class="infolayer"><g class="g-gtitle"><text class="gtitle" x="375" y="25" text-anchor="middle" dy="0.7em" style="font-family: 'Open Sans', verdana, arial, sans-serif; font-size: 50px; fill: rgb(42, 63, 95); opacity: 1; font-weight: normal; white-space: pre;"><tspan style="font-weight:bold">Loire-Atlantique (44)</tspan></text></g><g class="g-xtitle"/><g class="annotation" data-index="0" style="opacity: 1;"><g class="annotation-text-g" transform="rotate(0,694.83,346.77)"><g class="cursor-pointer" transform="translate(651, 311)"><rect class="bg" x="0.5" y="0.5" width="86" height="71" style="stroke-width: 1px; stroke: rgb(0, 0, 0); stroke-opacity: 0; fill: rgb(255, 255, 255); fill-opacity: 0.6;"/><text class="annotation-text" text-anchor="middle" x="43.53125" y="55.5" style="font-family: 'Open Sans', verdana, arial, sans-serif; font-size: 50px; fill: rgb(8, 115, 191); fill-opacity: 1; white-space: pre;"> <tspan style="font-weight:bold">42 </tspan></text></g></g><g class="annotation-arrow-g" style="opacity: 1;"><path d="M723.23,382.27L734.83,396.77" style="stroke-width: 1px; stroke: rgb(8, 115, 191); stroke-opacity: 1; stroke-dasharray: 0px, 0px, 18.5691px, 18.5691px;"/></g></g></g></svg>