<svg class="main-svg" xmlns="http://www.w3.org/2000/svg" xmlns:xlink="http://www.w3.org/1999/xlink" width="1125" height="750" style="" viewBox="0 0 750 500"><rect x="0" y="0" width="750" height="500" style="fill: rgb(0, 0, 0); fill-opacity: 0;"/><defs id="defs-96228a"><g class="clips"><clipPath id="clip96228axyplot" class="plotclip"><rect width="700" height="380"/></clipPath><clipPath class="axesclip" id="clip96228ax"><rect x="50" y="0" width="700" height="500"/></clipPath><clipPath class="axesclip" id="clip96228ay"><rect x="0" y="70" width="750" height="380"/></clipPath><clipPath class="axesclip" id="clip96228axy"><rect x="50" y="70" width="700" height="380"/></clipPath></g><g class="gradients"/></defs><g class="bglayer"><rect class="bg" x="50" y="70" width="700" height="380" style="fill: rgb(0, 0, 0); fill-opacity: 0; stroke-width: 0;"/></g><g class="layer-below"><g class="imagelayer"/><g class="shapelayer"/></g><g class="cartesianlayer"><g class="subplot xy"><g class="layer-subplot"><g class="shapelayer"/><g class="imagelayer"/></g><g class="gridlayer"><g class="x"><path class="xgrid crisp" transform="translate(111.93,0)" d="M0,70v380" style="stroke: rgb(255, 255, 255); stroke-opacity: 1; stroke-width: 1px;"/><path class="xgrid crisp" transform="translate(226.41,0)" d="M0,70v380" style="stroke: rgb(255, 255, 255); stroke-opacity: 1; stroke-width: 1px;"/><path class="xgrid crisp" transform="translate(337.13,0)" d="M0,70v380" style="stroke: rgb(255, 255, 255); stroke-opacity: 1; stroke-width: 1px;"/><path class="xgrid crisp" transform="translate(451.61,0)" d="M0,70v380" style="stroke: rgb(255, 255, 255); stroke-opacity: 1; stroke-width: 1px;"/><path class="xgrid crisp" transform="translate(566.09,0)" d="M0,70v380" style="stroke: rgb(255, 255, 255); stroke-opacity: 1; stroke-width: 1px;"/><path class="xgrid crisp" transform="translate(682.44,0)" d="M0,70v380" style="stroke: rgb(255, 255, 255); stroke-opacity: 1; stroke-width: 1px;"/></g><g class="y"/></g><g class="zerolinelayer"/><path class="xlines-below"/><path class="ylines-below"/><g class="overlines-below"/><g class="xaxislayer-below"/><g class="yaxislayer-below"/><g class="overaxes-below"/><g class="plot" transform="translate(50, 70)" clip-path="url('#clip96228axyplot')"><g class="scatterlayer mlayer"><g class="trace scatter tracebe870c" style="stroke-miterlimit: 2;"><g class="fills"><g><path class="js-fill" d="M668.1,380L-255.23,380L-255.23,376.38L-242.09,374.21L-240.21,374.21L-234.58,373.49L-232.71,375.17L-217.69,378.79L-215.82,378.79L-193.3,377.83L-191.42,376.86L-176.41,377.59L-174.53,376.86L-165.15,378.31L-163.27,378.55L-155.76,378.55L-153.89,378.31L-144.5,377.35L-142.63,377.1L-131.37,376.62L-129.49,373L-121.98,367.94L-120.11,366.97L-118.23,367.21L-116.35,370.35L-106.97,366.73L-105.09,362.39L-103.22,359.97L-101.34,361.18L-95.71,362.87L-93.83,363.11L-88.2,366.97L-86.33,365.04L-80.7,361.42L-78.82,363.83L-75.07,358.53L-73.19,357.8L-69.44,355.39L-67.56,352.98L-63.81,346.7L-61.93,347.43L-56.3,328.85L-54.42,318.72L-52.55,305.93L-50.67,305.45L-48.79,305.21L-46.92,303.52L-45.04,305.21L-43.16,301.1L-39.41,310.76L-37.53,309.31L-35.66,307.62L-33.78,304L-31.9,295.8L-30.03,295.8L-26.27,287.59L-24.4,289.52L-22.52,289.04L-20.64,291.7L-16.89,295.07L-15.01,303.76L-13.14,310.51L-11.26,311.96L-9.38,313.41L-7.51,312.69L-5.63,313.17L-3.75,315.34L-1.88,313.17L0,313.65L1.88,311.72L3.75,311.48L7.51,306.41L9.38,304.24L11.26,299.9L13.14,290.73L15.01,281.08L16.89,279.87L18.77,269.02L20.64,266.6L22.52,257.92L24.4,245.37L26.27,231.38L28.15,229.21L30.03,227.28L31.9,205.32L37.53,141.63L39.41,126.91L41.29,112.67L43.16,105.92L45.04,86.86L46.92,75.76L50.67,53.56L52.55,31.61L54.42,22.92L56.3,26.78L58.18,9.41L60.05,0.48L61.93,0L63.81,2.9L65.68,17.13L67.56,19.78L69.44,18.58L71.31,51.39L73.19,63.7L75.07,109.78L76.94,116.29L78.82,134.39L80.7,151.76L82.57,155.62L84.45,158.27L86.33,181.92L88.2,173.23L90.08,205.32L93.83,234.76L95.71,238.13L97.59,262.26L99.46,272.39L103.22,283.01L105.09,295.8L106.97,296.04L108.85,297.24L110.72,311.96L112.6,313.17L114.48,317.99L116.35,316.79L118.23,315.34L120.11,316.06L121.98,316.55L123.86,314.62L125.74,318.23L127.61,315.34L129.49,312.44L131.37,300.86L133.24,300.38L135.12,298.93L137,294.83L138.87,296.04L142.63,292.18L144.5,299.42L148.26,296.28L150.13,290.49L153.89,277.7L155.76,281.32L157.64,295.07L159.52,291.21L161.39,294.11L163.27,295.07L165.15,294.11L167.02,290.01L168.9,278.18L170.78,274.81L172.65,268.29L174.53,267.57L178.28,260.09L180.16,262.98L182.04,269.74L183.91,251.64L185.79,257.68L187.67,255.99L189.54,248.03L191.42,248.03L197.05,216.9L198.93,212.8L202.68,215.21L204.56,202.67L206.43,205.56L208.31,206.29L210.19,212.32L212.06,209.66L213.94,208.7L215.82,203.87L217.69,213.52L219.57,208.46L221.45,192.53L223.32,187.95L225.2,184.81L227.08,184.33L228.95,180.47L230.83,168.41L232.71,168.41L234.58,180.47L236.46,184.33L238.34,184.81L240.21,186.02L242.09,197.84L243.97,215.7L245.84,224.38L247.72,227.52L249.6,234.03L251.47,236.2L253.35,236.93L258.98,208.7L260.86,205.32L262.73,185.78L264.61,187.47L266.49,187.23L268.36,177.82L272.12,168.65L273.99,155.62L275.87,168.89L277.75,170.1L279.62,169.85L281.5,186.5L285.25,196.39L287.13,207.49L289.01,207.01L290.88,205.32L292.76,205.56L294.64,185.05L296.51,175.89L298.39,171.54L300.27,170.34L302.14,160.69L304.02,153.93L305.9,153.93L307.77,160.93L309.65,159.24L311.53,144.04L313.4,137.77L315.28,133.9L317.16,125.7L319.03,124.98L320.91,113.64L326.54,85.41L328.42,83.48L330.29,70.69L332.17,67.8L335.92,41.5L337.8,32.57L339.68,27.5L341.55,8.2L343.43,19.78L345.31,20.99L347.18,77.21L349.06,61.28L350.94,69.97L352.82,65.63L354.69,75.52L356.57,68.52L358.45,68.76L360.32,20.51L362.2,41.02L364.08,42.95L365.95,57.42L367.83,52.84L369.71,49.22L371.58,48.25L373.46,39.81L375.34,40.05L377.21,42.46L379.09,34.74L380.97,41.26L382.84,44.63L384.72,44.63L386.6,65.63L392.23,121.84L394.1,130.04L395.98,161.17L397.86,163.1L399.73,165.99L401.61,164.3L403.49,160.93L405.36,154.65L407.24,154.9L409.12,156.34L412.87,160.69L414.75,165.99L416.62,172.51L418.5,201.7L420.38,203.87L422.25,192.53L424.13,189.88L426.01,199.29L427.88,211.11L429.76,213.04L431.64,193.98L433.51,207.49L435.39,207.25L437.27,209.66L439.14,240.55L441.02,227.28L442.9,234.51L444.77,246.34L448.53,263.71L450.4,262.5L452.28,251.4L454.16,272.15L456.03,278.91L457.91,279.39L459.79,285.42L461.66,288.8L463.54,291.21L465.42,296.04L467.29,299.42L469.17,309.79L471.05,320.17L472.92,323.3L474.8,325.96L476.68,326.44L478.55,333.43L480.43,337.05L482.31,338.98L484.18,342.6L486.06,344.29L487.94,348.15L489.81,348.88L491.69,347.43L495.44,347.91L497.32,350.08L499.2,353.94L501.07,353.22L502.95,352.5L504.83,355.39L506.7,356.11L508.58,352.74L512.33,344.53L514.21,341.64L516.09,341.16L517.96,339.47L519.84,340.19L521.72,339.95L523.59,337.3L525.47,336.57L527.35,337.78L529.22,336.57L531.1,329.57L532.98,318.96L534.85,324.99L536.73,313.17L540.48,289.04L542.36,287.35L547.99,213.52L549.87,204.11L551.74,193.26L553.62,189.4L555.5,186.5L557.37,175.64L559.25,179.02L561.13,176.37L563,166.48L564.88,163.1L566.76,163.82L568.63,165.51L570.51,161.17L572.39,154.17L576.14,145.24L578.02,131.49L581.77,112.67L583.65,108.33L585.52,103.99L587.4,107.85L589.28,110.74L591.15,103.26L593.03,102.3L594.91,106.88L596.78,117.5L598.66,117.98L600.54,112.67L602.41,117.74L604.29,132.46L606.17,136.8L609.92,140.18L611.8,138.73L613.67,146.69L615.55,148.38L619.3,168.65L621.18,168.41L623.06,175.4L624.93,195.91L630.56,221.97L632.44,227.28L634.32,230.9L636.19,238.62L639.95,251.4L641.82,255.26L643.7,260.81L645.58,259.85L647.45,261.05L649.33,266.84L651.21,270.95L653.08,278.18L656.84,288.8L658.71,299.42L660.59,299.42L662.47,309.07L666.22,314.13L668.1,318.72" style="fill: rgb(8, 115, 191); fill-opacity: 0.2; stroke-width: 0;"/></g></g><g class="errorbars"/><g class="lines"><path class="js-line" d="M-255.23,376.38L-242.09,374.21L-240.21,374.21L-234.58,373.49L-232.71,375.17L-217.69,378.79L-215.82,378.79L-193.3,377.83L-191.42,376.86L-176.41,377.59L-174.53,376.86L-165.15,378.31L-163.27,378.55L-155.76,378.55L-153.89,378.31L-144.5,377.35L-142.63,377.1L-131.37,376.62L-129.49,373L-121.98,367.94L-120.11,366.97L-118.23,367.21L-116.35,370.35L-106.97,366.73L-105.09,362.39L-103.22,359.97L-101.34,361.18L-95.71,362.87L-93.83,363.11L-88.2,366.97L-86.33,365.04L-80.7,361.42L-78.82,363.83L-75.07,358.53L-73.19,357.8L-69.44,355.39L-67.56,352.98L-63.81,346.7L-61.93,347.43L-56.3,328.85L-54.42,318.72L-52.55,305.93L-50.67,305.45L-48.79,305.21L-46.92,303.52L-45.04,305.21L-43.16,301.1L-39.41,310.76L-37.53,309.31L-35.66,307.62L-33.78,304L-31.9,295.8L-30.03,295.8L-26.27,287.59L-24.4,289.52L-22.52,289.04L-20.64,291.7L-16.89,295.07L-15.01,303.76L-13.14,310.51L-11.26,311.96L-9.38,313.41L-7.51,312.69L-5.63,313.17L-3.75,315.34L-1.88,313.17L0,313.65L1.88,311.72L3.75,311.48L7.51,306.41L9.38,304.24L11.26,299.9L13.14,290.73L15.01,281.08L16.89,279.87L18.77,269.02L20.64,266.6L22.52,257.92L24.4,245.37L26.27,231.38L28.15,229.21L30.03,227.28L31.9,205.32L37.53,141.63L39.41,126.91L41.29,112.67L43.16,105.92L45.04,86.86L46.92,75.76L50.67,53.56L52.55,31.61L54.42,22.92L56.3,26.78L58.18,9.41L60.05,0.48L61.93,0L63.81,2.9L65.68,17.13L67.56,19.78L69.44,18.58L71.31,51.39L73.19,63.7L75.07,109.78L76.94,116.29L78.82,134.39L80.7,151.76L82.57,155.62L84.45,158.27L86.33,181.92L88.2,173.23L90.08,205.32L93.83,234.76L95.71,238.13L97.59,262.26L99.46,272.39L103.22,283.01L105.09,295.8L106.97,296.04L108.85,297.24L110.72,311.96L112.6,313.17L114.48,317.99L116.35,316.79L118.23,315.34L120.11,316.06L121.98,316.55L123.86,314.62L125.74,318.23L127.61,315.34L129.49,312.44L131.37,300.86L133.24,300.38L135.12,298.93L137,294.83L138.87,296.04L142.63,292.18L144.5,299.42L148.26,296.28L150.13,290.49L153.89,277.7L155.76,281.32L157.64,295.07L159.52,291.21L161.39,294.11L163.27,295.07L165.15,294.11L167.02,290.01L168.9,278.18L170.78,274.81L172.65,268.29L174.53,267.57L178.28,260.09L180.16,262.98L182.04,269.74L183.91,251.64L185.79,257.68L187.67,255.99L189.54,248.03L191.42,248.03L197.05,216.9L198.93,212.8L202.68,215.21L204.56,202.67L206.43,205.56L208.31,206.29L210.19,212.32L212.06,209.66L213.94,208.7L215.82,203.87L217.69,213.52L219.57,208.46L221.45,192.53L223.32,187.95L225.2,184.81L227.08,184.33L228.95,180.47L230.83,168.41L232.71,168.41L234.58,180.47L236.46,184.33L238.34,184.81L240.21,186.02L242.09,197.84L243.97,215.7L245.84,224.38L247.72,227.52L249.6,234.03L251.47,236.2L253.35,236.93L258.98,208.7L260.86,205.32L262.73,185.78L264.61,187.47L266.49,187.23L268.36,177.82L272.12,168.65L273.99,155.62L275.87,168.89L277.75,170.1L279.62,169.85L281.5,186.5L285.25,196.39L287.13,207.49L289.01,207.01L290.88,205.32L292.76,205.56L294.64,185.05L296.51,175.89L298.39,171.54L300.27,170.34L302.14,160.69L304.02,153.93L305.9,153.93L307.77,160.93L309.65,159.24L311.53,144.04L313.4,137.77L315.28,133.9L317.16,125.7L319.03,124.98L320.91,113.64L326.54,85.41L328.42,83.48L330.29,70.69L332.17,67.8L335.92,41.5L337.8,32.57L339.68,27.5L341.55,8.2L343.43,19.78L345.31,20.99L347.18,77.21L349.06,61.28L350.94,69.97L352.82,65.63L354.69,75.52L356.57,68.52L358.45,68.76L360.32,20.51L362.2,41.02L364.08,42.95L365.95,57.42L367.83,52.84L369.71,49.22L371.58,48.25L373.46,39.81L375.34,40.05L377.21,42.46L379.09,34.74L380.97,41.26L382.84,44.63L384.72,44.63L386.6,65.63L392.23,121.84L394.1,130.04L395.98,161.17L397.86,163.1L399.73,165.99L401.61,164.3L403.49,160.93L405.36,154.65L407.24,154.9L409.12,156.34L412.87,160.69L414.75,165.99L416.62,172.51L418.5,201.7L420.38,203.87L422.25,192.53L424.13,189.88L426.01,199.29L427.88,211.11L429.76,213.04L431.64,193.98L433.51,207.49L435.39,207.25L437.27,209.66L439.14,240.55L441.02,227.28L442.9,234.51L444.77,246.34L448.53,263.71L450.4,262.5L452.28,251.4L454.16,272.15L456.03,278.91L457.91,279.39L459.79,285.42L461.66,288.8L463.54,291.21L465.42,296.04L467.29,299.42L469.17,309.79L471.05,320.17L472.92,323.3L474.8,325.96L476.68,326.44L478.55,333.43L480.43,337.05L482.31,338.98L484.18,342.6L486.06,344.29L487.94,348.15L489.81,348.88L491.69,347.43L495.44,347.91L497.32,350.08L499.2,353.94L501.07,353.22L502.95,352.5L504.83,355.39L506.7,356.11L508.58,352.74L512.33,344.53L514.21,341.64L516.09,341.16L517.96,339.47L519.84,340.19L521.72,339.95L523.59,337.3L525.47,336.57L527.35,337.78L529.22,336.57L531.1,329.57L532.98,318.96L534.85,324.99L536.73,313.17L540.48,289.04L542.36,287.35L547.99,213.52L549.87,204.11L551.74,193.26L553.62,189.4L555.5,186.5L557.37,175.64L559.25,179.02L561.13,176.37L563,166.48L564.88,163.1L566.76,163.82L568.63,165.51L570.51,161.17L572.39,154.17L576.14,145.24L578.02,131.49L581.77,112.67L583.65,108.33L585.52,103.99L587.4,107.85L589.28,110.74L591.15,103.26L593.03,102.3L594.91,106.88L596.78,117.5L598.66,117.98L600.54,112.67L602.41,117.74L604.29,132.46L606.17,136.8L609.92,140.18L611.8,138.73L613.67,146.69L615.55,148.38L619.3,168.65L621.18,168.41L623.06,175.4L624.93,195.91L630.56,221.97L632.44,227.28L634.32,230.9L636.19,238.62L639.95,251.4L641.82,255.26L643.7,260.81L645.58,259.85L647.45,261.05L649.33,266.84L651.21,270.95L653.08,278.18L656.84,288.8L658.71,299.42L660.59,299.42L662.47,309.07L666.22,314.13L668.1,318.72" style="vector-effect: non-scaling-stroke; fill: none; stroke: rgb(8, 115, 191); stroke-opacity: 1; stroke-width: 0.5px; opacity: 1;"/></g><g class="points"/><g class="text"/></g><g class="trace scatter trace5c335a" style="stroke-miterlimit: 2;"><g class="fills"><g><path class="js-fill" d="M686.86,380L668.1,380L668.1,318.72L669.97,322.58L671.85,319.92L673.73,320.89L675.6,323.54L679.36,328.85L681.23,335.37L683.11,334.64L684.99,335.61L686.86,334.88" style="fill: rgb(8, 115, 191); fill-opacity: 0.4; stroke-width: 0;"/></g></g><g class="errorbars"/><g class="lines"><path class="js-line" d="M668.1,318.72L669.97,322.58L671.85,319.92L673.73,320.89L675.6,323.54L679.36,328.85L681.23,335.37L683.11,334.64L684.99,335.61L686.86,334.88" style="vector-effect: non-scaling-stroke; fill: none; stroke: rgb(8, 115, 191); stroke-opacity: 1; stroke-width: 2px; opacity: 1;"/></g><g class="points"/><g class="text"/></g><g class="trace scatter trace6f6b71" style="stroke-miterlimit: 2; opacity: 1;"><g class="fills"/><g class="errorbars"/><g class="lines"/><g class="points"><path class="point" transform="translate(686.86,334.88)" d="M15,0A15,15 0 1,1 0,-15A15,15 0 0,1 15,0Z" style="opacity: 1; stroke-width: 0px; fill: rgb(8, 115, 191); fill-opacity: 1;"/></g><g class="text"/></g></g></g><g class="overplot"/><path class="xlines-above crisp" style="fill: none; stroke-width: 1px; stroke: rgb(0, 0, 0); stroke-opacity: 0;" d=""/><path class="ylines-above crisp" style="fill: none;" d="M0,0"/><g class="overlines-above"/><g class="xaxislayer-above"><path class="xtick ticks crisp" d="M0,450v-5" transform="translate(111.93,0)" style="stroke: rgb(68, 68, 68); stroke-opacity: 1; stroke-width: 1px;"/><path class="xtick ticks crisp" d="M0,450v-5" transform="translate(226.41,0)" style="stroke: rgb(68, 68, 68); stroke-opacity: 1; stroke-width: 1px;"/><path class="xtick ticks crisp" d="M0,450v-5" transform="translate(337.13,0)" style="stroke: rgb(68, 68, 68); stroke-opacity: 1; stroke-width: 1px;"/><path class="xtick ticks crisp" d="M0,450v-5" transform="translate(451.61,0)" style="stroke: rgb(68, 68, 68); stroke-opacity: 1; stroke-width: 1px;"/><path class="xtick ticks crisp" d="M0,450v-5" transform="translate(566.09,0)" style="stroke: rgb(68, 68, 68); stroke-opacity: 1; stroke-width: 1px;"/><path class="xtick ticks crisp" d="M0,450v-5" transform="translate(682.44,0)" style="stroke: rgb(68, 68, 68); stroke-opacity: 1; stroke-width: 1px;"/><g class="xtick"><text text-anchor="middle" x="0" y="469" transform="translate(111.93,0)" style="font-family: 'Open Sans', verdana, arial, sans-serif; font-size: 18px; fill: rgb(42, 63, 95); fill-opacity: 1; white-space: pre;">01/11</text></g><g class="xtick"><text text-anchor="middle" x="0" y="469" transform="translate(226.41,0)" style="font-family: 'Open Sans', verdana, arial, sans-serif; font-size: 18px; fill: rgb(42, 63, 95); fill-opacity: 1; white-space: pre;">01/01</text></g><g class="xtick"><text text-anchor="middle" x="0" y="469" transform="translate(337.13,0)" style="font-family: 'Open Sans', verdana, arial, sans-serif; font-size: 18px; fill: rgb(42, 63, 95); fill-opacity: 1; white-space: pre;">01/03</text></g><g class="xtick"><text text-anchor="middle" x="0" y="469" transform="translate(451.61,0)" style="font-family: 'Open Sans', verdana, arial, sans-serif; font-size: 18px; fill: rgb(42, 63, 95); fill-opacity: 1; white-space: pre;">01/05</text></g><g class="xtick"><text text-anchor="middle" x="0" y="469" transform="translate(566.09,0)" style="font-family: 'Open Sans', verdana, arial, sans-serif; font-size: 18px; fill: rgb(42, 63, 95); fill-opacity: 1; white-space: pre;">01/07</text></g><g class="xtick"><text text-anchor="middle" x="0" y="469" transform="translate(682.44,0)" style="font-family: 'Open Sans', verdana, arial, sans-serif; font-size: 18px; fill: rgb(42, 63, 95); fill-opacity: 1; white-space: pre;">01/09</text></g></g><g class="yaxislayer-above"/><g class="overaxes-above"/></g></g><g class="polarlayer"/><g class="ternarylayer"/><g class="geolayer"/><g class="funnelarealayer"/><g class="pielayer"/><g class="treemaplayer"/><g class="sunburstlayer"/><g class="glimages"/><defs id="topdefs-96228a"><g class="clips"/></defs><g class="layer-above"><g class="imagelayer"/><g class="shapelayer"><path data-index="0" fill-rule="evenodd" d="M-1004.69,358.85L367.16,358.85" clip-path="url('#clip96228axy')" style="opacity: 1; stroke: rgb(255, 0, 0); stroke-opacity: 1; fill: rgb(0, 0, 0); fill-opacity: 0; stroke-dasharray: 3px, 3px; stroke-width: 1.5px;"/></g></g><g class="infolayer"><g class="g-gtitle"><text class="gtitle" x="375" y="25" text-anchor="middle" dy="0.7em" style="font-family: 'Open Sans', verdana, arial, sans-serif; font-size: 50px; fill: rgb(42, 63, 95); opacity: 1; font-weight: normal; white-space: pre;"><tspan style="font-weight:bold">Morbihan (56)</tspan></text></g><g class="g-xtitle"/><g class="annotation" data-index="0" style="opacity: 1;"><g class="annotation-text-g" transform="rotate(0,694.86,344.88)"><g class="cursor-pointer" transform="translate(651, 309)"><rect class="bg" x="0.5" y="0.5" width="86" height="71" style="stroke-width: 1px; stroke: rgb(0, 0, 0); stroke-opacity: 0; fill: rgb(255, 255, 255); fill-opacity: 0.6;"/><text class="annotation-text" text-anchor="middle" x="43.53125" y="55.5" style="font-family: 'Open Sans', verdana, arial, sans-serif; font-size: 50px; fill: rgb(8, 115, 191); fill-opacity: 1; white-space: pre;"> <tspan style="font-weight:bold">24 </tspan></text></g></g><g class="annotation-arrow-g" style="opacity: 1;"><path d="M723.26,380.38L734.86,394.88" style="stroke-width: 1px; stroke: rgb(8, 115, 191); stroke-opacity: 1; stroke-dasharray: 0px, 0px, 18.569px, 18.569px;"/></g></g></g></svg>