<svg class="main-svg" xmlns="http://www.w3.org/2000/svg" xmlns:xlink="http://www.w3.org/1999/xlink" width="1125" height="750" style="" viewBox="0 0 750 500"><rect x="0" y="0" width="750" height="500" style="fill: rgb(0, 0, 0); fill-opacity: 0;"/><defs id="defs-d9c009"><g class="clips"><clipPath id="clipd9c009xyplot" class="plotclip"><rect width="700" height="380"/></clipPath><clipPath class="axesclip" id="clipd9c009x"><rect x="50" y="0" width="700" height="500"/></clipPath><clipPath class="axesclip" id="clipd9c009y"><rect x="0" y="70" width="750" height="380"/></clipPath><clipPath class="axesclip" id="clipd9c009xy"><rect x="50" y="70" width="700" height="380"/></clipPath></g><g class="gradients"/></defs><g class="bglayer"><rect class="bg" x="50" y="70" width="700" height="380" style="fill: rgb(0, 0, 0); fill-opacity: 0; stroke-width: 0;"/></g><g class="layer-below"><g class="imagelayer"/><g class="shapelayer"/></g><g class="cartesianlayer"><g class="subplot xy"><g class="layer-subplot"><g class="shapelayer"/><g class="imagelayer"/></g><g class="gridlayer"><g class="x"><path class="xgrid crisp" transform="translate(110.95,0)" d="M0,70v380" style="stroke: rgb(255, 255, 255); stroke-opacity: 1; stroke-width: 1px;"/><path class="xgrid crisp" transform="translate(223.61,0)" d="M0,70v380" style="stroke: rgb(255, 255, 255); stroke-opacity: 1; stroke-width: 1px;"/><path class="xgrid crisp" transform="translate(332.59,0)" d="M0,70v380" style="stroke: rgb(255, 255, 255); stroke-opacity: 1; stroke-width: 1px;"/><path class="xgrid crisp" transform="translate(445.25,0)" d="M0,70v380" style="stroke: rgb(255, 255, 255); stroke-opacity: 1; stroke-width: 1px;"/><path class="xgrid crisp" transform="translate(557.9200000000001,0)" d="M0,70v380" style="stroke: rgb(255, 255, 255); stroke-opacity: 1; stroke-width: 1px;"/><path class="xgrid crisp" transform="translate(672.43,0)" d="M0,70v380" style="stroke: rgb(255, 255, 255); stroke-opacity: 1; stroke-width: 1px;"/></g><g class="y"/></g><g class="zerolinelayer"/><path class="xlines-below"/><path class="ylines-below"/><g class="overlines-below"/><g class="xaxislayer-below"/><g class="yaxislayer-below"/><g class="overaxes-below"/><g class="plot" transform="translate(50, 70)" clip-path="url('#clipd9c009xyplot')"><g class="scatterlayer mlayer"><g class="trace scatter trace917711" style="stroke-miterlimit: 2;"><g class="fills"><g><path class="js-fill" d="M668.6,380L-251.19,380L-251.19,377.24L-156.99,377.83L-155.15,376.94L-145.91,374.08L-144.06,374.47L-125.59,377.73L-123.75,377.34L-99.74,378.42L-97.89,377.53L-86.81,374.87L-84.96,372.79L-77.57,364.41L-75.73,363.71L-73.88,364.31L-72.03,363.22L-66.49,363.81L-64.64,362.73L-55.41,357.2L-53.56,357.2L-49.87,360.26L-48.02,359.67L-44.33,362.73L-42.48,363.22L-38.79,361.35L-36.94,360.56L-33.25,360.56L-31.4,358.98L-29.55,355.32L-27.7,354.54L-20.32,353.84L-18.47,352.66L-16.62,354.73L-14.78,354.14L-12.93,351.08L-11.08,350.49L-9.23,350.19L-7.39,346.54L-5.54,346.15L-3.69,342.69L0,336.77L1.85,335.68L3.69,334.79L5.54,329.96L11.08,309.53L12.93,300.45L14.78,297.49L16.62,297.68L22.16,275.28L24.01,264.32L27.7,248.33L29.55,247.15L36.94,151.21L38.79,118.84L42.48,108.28L44.33,73.04L46.17,57.74L48.02,32.57L49.87,18.56L51.72,11.55L53.56,8.98L55.41,10.96L57.26,10.26L59.1,0L62.8,13.32L64.64,32.28L66.49,37.31L68.34,37.9L72.03,97.91L73.88,156.05L75.73,167.1L77.57,187.83L79.42,194.94L81.27,197.6L83.11,209.74L84.96,229.68L86.81,217.04L88.65,246.85L90.5,259.19L92.35,262.94L94.2,264.03L96.04,281.2L97.89,291.96L99.74,294.62L103.43,301.24L105.28,301.34L110.82,298.08L112.66,299.95L114.51,300.64L116.36,300.45L118.21,298.97L120.05,298.87L121.9,303.41L123.75,300.45L125.59,300.74L127.44,298.37L129.29,293.93L131.13,294.82L132.98,295.71L134.83,291.46L136.68,290.38L138.52,288.01L140.37,287.91L142.22,283.86L145.91,265.01L147.76,262.25L149.6,258.79L151.45,257.71L153.3,259.19L155.15,279.42L158.84,297.49L160.69,301.73L162.53,302.12L164.38,298.28L166.23,294.82L168.07,295.02L169.92,288.9L171.77,288.6L173.61,276.66L175.46,271.23L177.31,269.75L179.16,269.95L181,248.33L182.85,251.98L184.7,251.79L186.54,256.23L188.39,262.45L190.24,261.46L193.93,254.65L195.78,253.46L197.63,254.35L199.47,245.77L201.32,241.23L203.17,240.14L205.01,234.61L206.86,232.64L208.71,231.26L210.55,230.96L214.25,225.63L216.09,225.04L219.79,238.17L221.64,240.24L223.48,239.55L225.33,248.43L229.02,260.18L230.87,260.37L232.72,265.9L234.56,262.45L236.41,263.04L238.26,268.96L240.11,267.18L241.95,270.34L243.8,276.07L245.65,275.18L247.49,279.42L249.34,279.72L251.19,277.65L253.03,281.3L254.88,280.02L256.73,277.25L258.58,274.88L260.42,273.9L262.27,273.8L264.12,275.18L265.96,276.46L267.81,274.49L269.66,271.82L271.5,275.18L273.35,278.04L275.2,277.94L282.59,298.37L284.43,299.36L288.13,298.28L289.97,298.67L291.82,298.67L293.67,297.58L295.51,296.01L297.36,296.99L299.21,295.51L301.06,297.09L304.75,288.21L306.6,284.56L310.29,273.9L312.14,272.91L315.83,270.54L317.68,262.94L319.53,256.33L321.37,254.85L323.22,249.32L325.07,246.36L326.91,245.57L328.76,239.05L330.61,235.99L332.45,236.98L334.3,235.3L336.15,236.39L337.99,235.01L339.84,235.4L341.69,265.01L343.54,253.37L345.38,247.64L347.23,248.43L349.08,250.7L350.92,254.45L352.77,254.65L354.62,227.8L356.46,247.84L358.31,253.37L360.16,258.6L362.01,258.4L363.85,256.23L365.7,255.93L369.39,256.92L371.24,260.87L374.93,265.51L376.78,266.99L378.63,267.38L380.47,273.3L384.17,275.67L386.02,281.2L389.71,298.87L391.56,299.56L395.25,307.45L397.1,314.86L400.79,319.99L402.64,320.58L404.49,320.88L406.33,325.62L410.03,331.93L411.87,339.63L413.72,340.42L415.57,337.66L417.41,337.76L419.26,340.32L422.96,343.38L424.8,339.34L426.65,342.59L428.5,342.69L430.34,342.3L432.19,352.17L435.88,352.17L437.73,352.56L443.27,353.75L445.12,349.8L446.97,354.54L448.81,355.52L450.66,355.42L452.51,357.79L454.35,359.96L456.2,359.96L459.89,361.84L461.74,364.01L463.59,366.87L465.44,367.46L469.13,367.76L470.98,370.82L480.21,375.26L482.06,375.56L487.6,374.47L489.45,374.47L496.83,375.16L498.68,375.85L502.37,374.87L504.22,374.87L507.92,374.47L509.76,373.68L515.3,371.61L517.15,369.34L519,368.06L520.84,368.35L524.54,363.81L526.39,364.6L530.08,358.09L531.93,356.51L533.77,356.02L535.62,349.99L537.47,342.69L539.31,328.97L544.85,301.73L546.7,300.35L548.55,287.32L550.4,281.69L552.24,278.04L554.09,276.36L559.63,276.56L561.48,271.43L563.32,271.53L565.17,273.11L570.71,262.74L572.56,261.56L574.41,261.26L576.25,253.17L578.1,247.64L579.95,245.27L581.79,240.63L583.64,241.92L585.49,243.4L587.34,240.54L589.18,238.76L591.03,240.14L592.88,243.59L594.72,250.7L596.57,253.27L598.42,252.68L603.96,273.01L605.8,278.54L607.65,283.77L609.5,284.85L611.35,285.15L613.19,292.25L616.89,304.3L618.73,308.54L620.58,309.43L622.43,313.87L624.27,313.97L626.12,318.02L629.82,320.68L631.66,322.75L633.51,326.31L635.36,322.75L637.2,323.64L639.05,322.75L640.9,324.63L642.74,322.85L644.59,324.33L646.44,323.35L648.28,326.9L650.13,326.8L651.98,333.12L653.83,335.88L655.67,339.04L657.52,338.55L659.37,341.21L661.21,341.41L663.06,342L664.91,339.43L666.75,341.21L668.6,341.31" style="fill: rgb(8, 115, 191); fill-opacity: 0.2; stroke-width: 0;"/></g></g><g class="errorbars"/><g class="lines"><path class="js-line" d="M-251.19,377.24L-156.99,377.83L-155.15,376.94L-145.91,374.08L-144.06,374.47L-125.59,377.73L-123.75,377.34L-99.74,378.42L-97.89,377.53L-86.81,374.87L-84.96,372.79L-77.57,364.41L-75.73,363.71L-73.88,364.31L-72.03,363.22L-66.49,363.81L-64.64,362.73L-55.41,357.2L-53.56,357.2L-49.87,360.26L-48.02,359.67L-44.33,362.73L-42.48,363.22L-38.79,361.35L-36.94,360.56L-33.25,360.56L-31.4,358.98L-29.55,355.32L-27.7,354.54L-20.32,353.84L-18.47,352.66L-16.62,354.73L-14.78,354.14L-12.93,351.08L-11.08,350.49L-9.23,350.19L-7.39,346.54L-5.54,346.15L-3.69,342.69L0,336.77L1.85,335.68L3.69,334.79L5.54,329.96L11.08,309.53L12.93,300.45L14.78,297.49L16.62,297.68L22.16,275.28L24.01,264.32L27.7,248.33L29.55,247.15L36.94,151.21L38.79,118.84L42.48,108.28L44.33,73.04L46.17,57.74L48.02,32.57L49.87,18.56L51.72,11.55L53.56,8.98L55.41,10.96L57.26,10.26L59.1,0L62.8,13.32L64.64,32.28L66.49,37.31L68.34,37.9L72.03,97.91L73.88,156.05L75.73,167.1L77.57,187.83L79.42,194.94L81.27,197.6L83.11,209.74L84.96,229.68L86.81,217.04L88.65,246.85L90.5,259.19L92.35,262.94L94.2,264.03L96.04,281.2L97.89,291.96L99.74,294.62L103.43,301.24L105.28,301.34L110.82,298.08L112.66,299.95L114.51,300.64L116.36,300.45L118.21,298.97L120.05,298.87L121.9,303.41L123.75,300.45L125.59,300.74L127.44,298.37L129.29,293.93L131.13,294.82L132.98,295.71L134.83,291.46L136.68,290.38L138.52,288.01L140.37,287.91L142.22,283.86L145.91,265.01L147.76,262.25L149.6,258.79L151.45,257.71L153.3,259.19L155.15,279.42L158.84,297.49L160.69,301.73L162.53,302.12L164.38,298.28L166.23,294.82L168.07,295.02L169.92,288.9L171.77,288.6L173.61,276.66L175.46,271.23L177.31,269.75L179.16,269.95L181,248.33L182.85,251.98L184.7,251.79L186.54,256.23L188.39,262.45L190.24,261.46L193.93,254.65L195.78,253.46L197.63,254.35L199.47,245.77L201.32,241.23L203.17,240.14L205.01,234.61L206.86,232.64L208.71,231.26L210.55,230.96L214.25,225.63L216.09,225.04L219.79,238.17L221.64,240.24L223.48,239.55L225.33,248.43L229.02,260.18L230.87,260.37L232.72,265.9L234.56,262.45L236.41,263.04L238.26,268.96L240.11,267.18L241.95,270.34L243.8,276.07L245.65,275.18L247.49,279.42L249.34,279.72L251.19,277.65L253.03,281.3L254.88,280.02L256.73,277.25L258.58,274.88L260.42,273.9L262.27,273.8L264.12,275.18L265.96,276.46L267.81,274.49L269.66,271.82L271.5,275.18L273.35,278.04L275.2,277.94L282.59,298.37L284.43,299.36L288.13,298.28L289.97,298.67L291.82,298.67L293.67,297.58L295.51,296.01L297.36,296.99L299.21,295.51L301.06,297.09L304.75,288.21L306.6,284.56L310.29,273.9L312.14,272.91L315.83,270.54L317.68,262.94L319.53,256.33L321.37,254.85L323.22,249.32L325.07,246.36L326.91,245.57L328.76,239.05L330.61,235.99L332.45,236.98L334.3,235.3L336.15,236.39L337.99,235.01L339.84,235.4L341.69,265.01L343.54,253.37L345.38,247.64L347.23,248.43L349.08,250.7L350.92,254.45L352.77,254.65L354.62,227.8L356.46,247.84L358.31,253.37L360.16,258.6L362.01,258.4L363.85,256.23L365.7,255.93L369.39,256.92L371.24,260.87L374.93,265.51L376.78,266.99L378.63,267.38L380.47,273.3L384.17,275.67L386.02,281.2L389.71,298.87L391.56,299.56L395.25,307.45L397.1,314.86L400.79,319.99L402.64,320.58L404.49,320.88L406.33,325.62L410.03,331.93L411.87,339.63L413.72,340.42L415.57,337.66L417.41,337.76L419.26,340.32L422.96,343.38L424.8,339.34L426.65,342.59L428.5,342.69L430.34,342.3L432.19,352.17L435.88,352.17L437.73,352.56L443.27,353.75L445.12,349.8L446.97,354.54L448.81,355.52L450.66,355.42L452.51,357.79L454.35,359.96L456.2,359.96L459.89,361.84L461.74,364.01L463.59,366.87L465.44,367.46L469.13,367.76L470.98,370.82L480.21,375.26L482.06,375.56L487.6,374.47L489.45,374.47L496.83,375.16L498.68,375.85L502.37,374.87L504.22,374.87L507.92,374.47L509.76,373.68L515.3,371.61L517.15,369.34L519,368.06L520.84,368.35L524.54,363.81L526.39,364.6L530.08,358.09L531.93,356.51L533.77,356.02L535.62,349.99L537.47,342.69L539.31,328.97L544.85,301.73L546.7,300.35L548.55,287.32L550.4,281.69L552.24,278.04L554.09,276.36L559.63,276.56L561.48,271.43L563.32,271.53L565.17,273.11L570.71,262.74L572.56,261.56L574.41,261.26L576.25,253.17L578.1,247.64L579.95,245.27L581.79,240.63L583.64,241.92L585.49,243.4L587.34,240.54L589.18,238.76L591.03,240.14L592.88,243.59L594.72,250.7L596.57,253.27L598.42,252.68L603.96,273.01L605.8,278.54L607.65,283.77L609.5,284.85L611.35,285.15L613.19,292.25L616.89,304.3L618.73,308.54L620.58,309.43L622.43,313.87L624.27,313.97L626.12,318.02L629.82,320.68L631.66,322.75L633.51,326.31L635.36,322.75L637.2,323.64L639.05,322.75L640.9,324.63L642.74,322.85L644.59,324.33L646.44,323.35L648.28,326.9L650.13,326.8L651.98,333.12L653.83,335.88L655.67,339.04L657.52,338.55L659.37,341.21L661.21,341.41L663.06,342L664.91,339.43L666.75,341.21L668.6,341.31" style="vector-effect: non-scaling-stroke; fill: none; stroke: rgb(8, 115, 191); stroke-opacity: 1; stroke-width: 0.5px; opacity: 1;"/></g><g class="points"/><g class="text"/></g><g class="trace scatter trace77ee2f" style="stroke-miterlimit: 2;"><g class="fills"><g><path class="js-fill" d="M687.07,380L668.6,380L668.6,341.31L670.45,343.09L672.3,346.54L674.14,348.61L675.99,348.12L677.84,352.86L679.68,354.44L681.53,357.59L683.38,358.48L687.07,357.79" style="fill: rgb(8, 115, 191); fill-opacity: 0.4; stroke-width: 0;"/></g></g><g class="errorbars"/><g class="lines"><path class="js-line" d="M668.6,341.31L670.45,343.09L672.3,346.54L674.14,348.61L675.99,348.12L677.84,352.86L679.68,354.44L681.53,357.59L683.38,358.48L687.07,357.79" style="vector-effect: non-scaling-stroke; fill: none; stroke: rgb(8, 115, 191); stroke-opacity: 1; stroke-width: 2px; opacity: 1;"/></g><g class="points"/><g class="text"/></g><g class="trace scatter trace292d12" style="stroke-miterlimit: 2; opacity: 1;"><g class="fills"/><g class="errorbars"/><g class="lines"/><g class="points"><path class="point" transform="translate(687.07,357.79)" d="M15,0A15,15 0 1,1 0,-15A15,15 0 0,1 15,0Z" style="opacity: 1; stroke-width: 0px; fill: rgb(8, 115, 191); fill-opacity: 1;"/></g><g class="text"/></g></g></g><g class="overplot"/><path class="xlines-above crisp" style="fill: none; stroke-width: 1px; stroke: rgb(0, 0, 0); stroke-opacity: 0;" d=""/><path class="ylines-above crisp" style="fill: none;" d="M0,0"/><g class="overlines-above"/><g class="xaxislayer-above"><path class="xtick ticks crisp" d="M0,450v-5" transform="translate(110.95,0)" style="stroke: rgb(68, 68, 68); stroke-opacity: 1; stroke-width: 1px;"/><path class="xtick ticks crisp" d="M0,450v-5" transform="translate(223.61,0)" style="stroke: rgb(68, 68, 68); stroke-opacity: 1; stroke-width: 1px;"/><path class="xtick ticks crisp" d="M0,450v-5" transform="translate(332.59,0)" style="stroke: rgb(68, 68, 68); stroke-opacity: 1; stroke-width: 1px;"/><path class="xtick ticks crisp" d="M0,450v-5" transform="translate(445.25,0)" style="stroke: rgb(68, 68, 68); stroke-opacity: 1; stroke-width: 1px;"/><path class="xtick ticks crisp" d="M0,450v-5" transform="translate(557.9200000000001,0)" style="stroke: rgb(68, 68, 68); stroke-opacity: 1; stroke-width: 1px;"/><path class="xtick ticks crisp" d="M0,450v-5" transform="translate(672.43,0)" style="stroke: rgb(68, 68, 68); stroke-opacity: 1; stroke-width: 1px;"/><g class="xtick"><text text-anchor="middle" x="0" y="469" transform="translate(110.95,0)" style="font-family: 'Open Sans', verdana, arial, sans-serif; font-size: 18px; fill: rgb(42, 63, 95); fill-opacity: 1; white-space: pre;">01/11</text></g><g class="xtick"><text text-anchor="middle" x="0" y="469" transform="translate(223.61,0)" style="font-family: 'Open Sans', verdana, arial, sans-serif; font-size: 18px; fill: rgb(42, 63, 95); fill-opacity: 1; white-space: pre;">01/01</text></g><g class="xtick"><text text-anchor="middle" x="0" y="469" transform="translate(332.59,0)" style="font-family: 'Open Sans', verdana, arial, sans-serif; font-size: 18px; fill: rgb(42, 63, 95); fill-opacity: 1; white-space: pre;">01/03</text></g><g class="xtick"><text text-anchor="middle" x="0" y="469" transform="translate(445.25,0)" style="font-family: 'Open Sans', verdana, arial, sans-serif; font-size: 18px; fill: rgb(42, 63, 95); fill-opacity: 1; white-space: pre;">01/05</text></g><g class="xtick"><text text-anchor="middle" x="0" y="469" transform="translate(557.9200000000001,0)" style="font-family: 'Open Sans', verdana, arial, sans-serif; font-size: 18px; fill: rgb(42, 63, 95); fill-opacity: 1; white-space: pre;">01/07</text></g><g class="xtick"><text text-anchor="middle" x="0" y="469" transform="translate(672.43,0)" style="font-family: 'Open Sans', verdana, arial, sans-serif; font-size: 18px; fill: rgb(42, 63, 95); fill-opacity: 1; white-space: pre;">01/09</text></g></g><g class="yaxislayer-above"/><g class="overaxes-above"/></g></g><g class="polarlayer"/><g class="ternarylayer"/><g class="geolayer"/><g class="funnelarealayer"/><g class="pielayer"/><g class="treemaplayer"/><g class="sunburstlayer"/><g class="glimages"/><defs id="topdefs-d9c009"><g class="clips"/></defs><g class="layer-above"><g class="imagelayer"/><g class="shapelayer"><path data-index="0" fill-rule="evenodd" d="M-987.99,424.31L362.14,424.31" clip-path="url('#clipd9c009xy')" style="opacity: 1; stroke: rgb(255, 0, 0); stroke-opacity: 1; fill: rgb(0, 0, 0); fill-opacity: 0; stroke-dasharray: 3px, 3px; stroke-width: 1.5px;"/></g></g><g class="infolayer"><g class="g-gtitle"><text class="gtitle" x="375" y="25" text-anchor="middle" dy="0.7em" style="font-family: 'Open Sans', verdana, arial, sans-serif; font-size: 50px; fill: rgb(42, 63, 95); opacity: 1; font-weight: normal; white-space: pre;"><tspan style="font-weight:bold">Drôme (26)</tspan></text></g><g class="g-xtitle"/><g class="annotation" data-index="0" style="opacity: 1;"><g class="annotation-text-g" transform="rotate(0,695.07,367.79)"><g class="cursor-pointer" transform="translate(652, 332)"><rect class="bg" x="0.5" y="0.5" width="86" height="71" style="stroke-width: 1px; stroke: rgb(0, 0, 0); stroke-opacity: 0; fill: rgb(255, 255, 255); fill-opacity: 0.6;"/><text class="annotation-text" text-anchor="middle" x="43.53125" y="55.5" style="font-family: 'Open Sans', verdana, arial, sans-serif; font-size: 50px; fill: rgb(8, 115, 191); fill-opacity: 1; white-space: pre;"> <tspan style="font-weight:bold">43 </tspan></text></g></g><g class="annotation-arrow-g" style="opacity: 1;"><path d="M723.47,403.29L735.07,417.79" style="stroke-width: 1px; stroke: rgb(8, 115, 191); stroke-opacity: 1; stroke-dasharray: 0px, 0px, 18.5691px, 18.5691px;"/></g></g></g></svg>