<svg class="main-svg" xmlns="http://www.w3.org/2000/svg" xmlns:xlink="http://www.w3.org/1999/xlink" width="1125" height="750" style="" viewBox="0 0 750 500"><rect x="0" y="0" width="750" height="500" style="fill: rgb(0, 0, 0); fill-opacity: 0;"/><defs id="defs-0d4654"><g class="clips"><clipPath id="clip0d4654xyplot" class="plotclip"><rect width="700" height="380"/></clipPath><clipPath class="axesclip" id="clip0d4654x"><rect x="50" y="0" width="700" height="500"/></clipPath><clipPath class="axesclip" id="clip0d4654y"><rect x="0" y="70" width="750" height="380"/></clipPath><clipPath class="axesclip" id="clip0d4654xy"><rect x="50" y="70" width="700" height="380"/></clipPath></g><g class="gradients"/></defs><g class="bglayer"><rect class="bg" x="50" y="70" width="700" height="380" style="fill: rgb(0, 0, 0); fill-opacity: 0; stroke-width: 0;"/></g><g class="layer-below"><g class="imagelayer"/><g class="shapelayer"/></g><g class="cartesianlayer"><g class="subplot xy"><g class="layer-subplot"><g class="shapelayer"/><g class="imagelayer"/></g><g class="gridlayer"><g class="x"><path class="xgrid crisp" transform="translate(111.27000000000001,0)" d="M0,70v380" style="stroke: rgb(255, 255, 255); stroke-opacity: 1; stroke-width: 1px;"/><path class="xgrid crisp" transform="translate(224.54,0)" d="M0,70v380" style="stroke: rgb(255, 255, 255); stroke-opacity: 1; stroke-width: 1px;"/><path class="xgrid crisp" transform="translate(334.08,0)" d="M0,70v380" style="stroke: rgb(255, 255, 255); stroke-opacity: 1; stroke-width: 1px;"/><path class="xgrid crisp" transform="translate(447.35,0)" d="M0,70v380" style="stroke: rgb(255, 255, 255); stroke-opacity: 1; stroke-width: 1px;"/><path class="xgrid crisp" transform="translate(560.61,0)" d="M0,70v380" style="stroke: rgb(255, 255, 255); stroke-opacity: 1; stroke-width: 1px;"/><path class="xgrid crisp" transform="translate(675.73,0)" d="M0,70v380" style="stroke: rgb(255, 255, 255); stroke-opacity: 1; stroke-width: 1px;"/></g><g class="y"/></g><g class="zerolinelayer"/><path class="xlines-below"/><path class="ylines-below"/><g class="overlines-below"/><g class="xaxislayer-below"/><g class="yaxislayer-below"/><g class="overaxes-below"/><g class="plot" transform="translate(50, 70)" clip-path="url('#clip0d4654xyplot')"><g class="scatterlayer mlayer"><g class="trace scatter tracece5920" style="stroke-miterlimit: 2;"><g class="fills"><g><path class="js-fill" d="M668.44,380L-252.52,380L-252.52,378.69L-146.68,379.18L-144.83,378.97L-129.97,377.79L-128.12,377.29L-109.55,376.15L-107.69,376.43L-100.27,376.92L-98.41,376.31L-70.56,371.31L-68.7,370.24L-63.13,366.31L-61.27,366.43L-48.28,362.53L-46.42,360.81L-38.99,347.94L-37.14,346.5L-35.28,346.13L-33.42,342.85L-27.85,338.26L-25.99,335.84L-22.28,335.19L-20.42,332.19L-14.85,330.43L-13,329.28L-7.43,328.95L-5.57,327.27L-3.71,321.74L-1.86,319.11L0,312.1L1.86,308.04L3.71,307.22L5.57,298.16L13,257.86L14.85,252.94L16.71,250.8L18.57,235.39L25.99,175.08L27.85,167.12L29.71,164.91L31.56,145.88L35.28,105.13L37.14,80.03L38.99,55.15L40.85,46.7L42.71,41.62L44.56,18.7L46.42,4.92L48.28,1.19L50.13,0L51.99,4.35L53.85,4.14L55.7,6.77L57.56,11.07L59.42,11.32L61.27,15.25L63.13,29.15L66.84,55.8L68.7,59.37L70.56,79.38L72.41,108.24L74.27,158.84L76.13,166.67L77.98,184.3L79.84,192.34L81.7,194.92L83.55,221.2L85.41,242.07L87.27,234.9L89.12,263.76L90.98,279.55L92.84,284.14L94.69,285.45L98.41,302.67L100.27,308.33L105.84,320.1L107.69,319.85L109.55,325.26L111.41,327.11L115.12,331.17L116.98,330.59L122.55,332.68L124.4,333.55L126.26,331.62L128.12,330.96L133.69,330.92L135.54,328.99L139.26,327.81L141.11,324.57L142.97,320.34L144.83,311.57L146.68,306.28L148.54,307.18L150.4,305.17L152.25,304.43L154.11,308.04L155.97,320.92L159.68,332.4L161.54,332.6L167.11,329.36L168.97,329.57L170.82,327.19L172.68,327.19L174.54,324.03L176.39,323.42L180.11,321.78L181.96,311.45L183.82,313.91L185.68,314.4L187.53,315.34L189.39,315.34L194.96,312.02L196.82,310.13L198.67,309.07L200.53,306.2L204.24,305.38L206.1,303.61L209.81,301.15L211.67,302.18L215.38,303.78L217.24,305.87L219.1,307.39L220.95,306.94L222.81,309.23L224.67,309.44L226.53,309.72L228.38,310.95L232.1,312.35L233.95,314.03L237.67,314.11L239.52,316.49L245.09,320.92L246.95,322.76L248.81,324.53L250.66,324.44L252.52,327.44L254.38,327.76L256.23,327.48L258.09,328.91L259.95,328.13L261.8,328.26L263.66,328.58L265.52,326.58L269.23,326.74L271.09,326.99L272.94,328.3L274.8,327.85L276.66,327.4L278.51,330.59L282.23,332.03L284.08,331.74L287.8,332.77L289.66,333.14L291.51,331.09L293.37,330.72L297.08,329.65L298.94,325.18L302.65,323.34L304.51,319.07L308.22,310.71L310.08,305.46L311.94,303.33L313.79,299.27L315.65,298.78L317.51,292.63L324.93,270.16L326.79,267.37L328.65,266.75L330.5,260.6L336.07,252.69L337.93,251.58L339.79,251.95L341.64,250.8L343.5,274.22L345.36,263.15L347.21,260.97L349.07,260.48L350.93,260.81L352.79,257.53L354.64,258.72L356.5,236.82L358.36,248.67L360.21,254.78L365.78,264.21L367.64,263.88L369.5,265.4L371.35,265.65L373.21,263.84L375.07,267.74L376.92,265.93L378.78,268.15L380.64,269.17L382.49,275.08L386.21,284.55L388.06,286.07L391.78,301.03L393.63,301.69L395.49,303.66L397.35,304.11L399.2,304.68L401.06,306.98L402.92,310.5L404.77,311.53L406.63,311.04L408.49,313.13L412.2,318.87L414.06,329.16L415.92,327.19L417.77,323.38L421.49,324.69L423.34,325.67L425.2,326.99L427.06,319.77L428.91,323.91L430.77,324.2L432.63,324.48L434.48,336.42L436.34,332.4L438.2,331.17L445.62,331.09L447.48,323.17L451.19,335.84L453.05,338.38L456.76,343.92L458.62,343.84L462.33,351.91L464.19,354.01L467.9,360.2L469.76,361.06L471.62,361.67L473.47,364.71L480.9,370.08L482.76,371.47L484.62,371.64L486.47,372.62L490.19,374.34L492.04,375.16L497.61,374.79L499.47,375.57L503.18,375.69L505.04,375.28L508.75,376.1L510.61,375.94L518.04,375.82L519.89,375.53L525.46,375.33L527.32,374.01L529.18,374.18L531.03,372.62L534.75,368.36L536.6,367.9L542.18,351.5L544.03,348.06L547.75,341.83L549.6,341.21L555.17,334.65L557.03,332.93L558.89,331.66L560.74,331.41L562.6,331.17L564.46,328.22L568.17,326.78L570.03,325.1L571.88,325.02L573.74,323.95L575.6,323.99L577.45,321.53L579.31,319.28L581.17,318.79L583.02,317.35L584.88,314.36L588.59,313.45L590.45,314.4L592.31,314.97L594.16,317.15L596.02,319.56L597.88,324.2L601.59,324.48L603.45,327.19L605.31,330.27L607.16,330.14L609.02,332.03L610.88,330.63L614.59,332.48L616.45,335.06L620.16,337.11L622.02,338.67L625.73,343.43L627.59,343.43L633.16,348.8L635.01,348.72L636.87,350.48L638.73,351.18L640.58,351.96L642.44,354.05L648.01,359.75L649.87,360.2L653.58,361.14L655.44,362.86L657.29,364.75L659.15,365.03L662.86,365.03L664.72,365.4L668.44,365.49" style="fill: rgb(8, 115, 191); fill-opacity: 0.2; stroke-width: 0;"/></g></g><g class="errorbars"/><g class="lines"><path class="js-line" d="M-252.52,378.69L-146.68,379.18L-144.83,378.97L-129.97,377.79L-128.12,377.29L-109.55,376.15L-107.69,376.43L-100.27,376.92L-98.41,376.31L-70.56,371.31L-68.7,370.24L-63.13,366.31L-61.27,366.43L-48.28,362.53L-46.42,360.81L-38.99,347.94L-37.14,346.5L-35.28,346.13L-33.42,342.85L-27.85,338.26L-25.99,335.84L-22.28,335.19L-20.42,332.19L-14.85,330.43L-13,329.28L-7.43,328.95L-5.57,327.27L-3.71,321.74L-1.86,319.11L0,312.1L1.86,308.04L3.71,307.22L5.57,298.16L13,257.86L14.85,252.94L16.71,250.8L18.57,235.39L25.99,175.08L27.85,167.12L29.71,164.91L31.56,145.88L35.28,105.13L37.14,80.03L38.99,55.15L40.85,46.7L42.71,41.62L44.56,18.7L46.42,4.92L48.28,1.19L50.13,0L51.99,4.35L53.85,4.14L55.7,6.77L57.56,11.07L59.42,11.32L61.27,15.25L63.13,29.15L66.84,55.8L68.7,59.37L70.56,79.38L72.41,108.24L74.27,158.84L76.13,166.67L77.98,184.3L79.84,192.34L81.7,194.92L83.55,221.2L85.41,242.07L87.27,234.9L89.12,263.76L90.98,279.55L92.84,284.14L94.69,285.45L98.41,302.67L100.27,308.33L105.84,320.1L107.69,319.85L109.55,325.26L111.41,327.11L115.12,331.17L116.98,330.59L122.55,332.68L124.4,333.55L126.26,331.62L128.12,330.96L133.69,330.92L135.54,328.99L139.26,327.81L141.11,324.57L142.97,320.34L144.83,311.57L146.68,306.28L148.54,307.18L150.4,305.17L152.25,304.43L154.11,308.04L155.97,320.92L159.68,332.4L161.54,332.6L167.11,329.36L168.97,329.57L170.82,327.19L172.68,327.19L174.54,324.03L176.39,323.42L180.11,321.78L181.96,311.45L183.82,313.91L185.68,314.4L187.53,315.34L189.39,315.34L194.96,312.02L196.82,310.13L198.67,309.07L200.53,306.2L204.24,305.38L206.1,303.61L209.81,301.15L211.67,302.18L215.38,303.78L217.24,305.87L219.1,307.39L220.95,306.94L222.81,309.23L224.67,309.44L226.53,309.72L228.38,310.95L232.1,312.35L233.95,314.03L237.67,314.11L239.52,316.49L245.09,320.92L246.95,322.76L248.81,324.53L250.66,324.44L252.52,327.44L254.38,327.76L256.23,327.48L258.09,328.91L259.95,328.13L261.8,328.26L263.66,328.58L265.52,326.58L269.23,326.74L271.09,326.99L272.94,328.3L274.8,327.85L276.66,327.4L278.51,330.59L282.23,332.03L284.08,331.74L287.8,332.77L289.66,333.14L291.51,331.09L293.37,330.72L297.08,329.65L298.94,325.18L302.65,323.34L304.51,319.07L308.22,310.71L310.08,305.46L311.94,303.33L313.79,299.27L315.65,298.78L317.51,292.63L324.93,270.16L326.79,267.37L328.65,266.75L330.5,260.6L336.07,252.69L337.93,251.58L339.79,251.95L341.64,250.8L343.5,274.22L345.36,263.15L347.21,260.97L349.07,260.48L350.93,260.81L352.79,257.53L354.64,258.72L356.5,236.82L358.36,248.67L360.21,254.78L365.78,264.21L367.64,263.88L369.5,265.4L371.35,265.65L373.21,263.84L375.07,267.74L376.92,265.93L378.78,268.15L380.64,269.17L382.49,275.08L386.21,284.55L388.06,286.07L391.78,301.03L393.63,301.69L395.49,303.66L397.35,304.11L399.2,304.68L401.06,306.98L402.92,310.5L404.77,311.53L406.63,311.04L408.49,313.13L412.2,318.87L414.06,329.16L415.92,327.19L417.77,323.38L421.49,324.69L423.34,325.67L425.2,326.99L427.06,319.77L428.91,323.91L430.77,324.2L432.63,324.48L434.48,336.42L436.34,332.4L438.2,331.17L445.62,331.09L447.48,323.17L451.19,335.84L453.05,338.38L456.76,343.92L458.62,343.84L462.33,351.91L464.19,354.01L467.9,360.2L469.76,361.06L471.62,361.67L473.47,364.71L480.9,370.08L482.76,371.47L484.62,371.64L486.47,372.62L490.19,374.34L492.04,375.16L497.61,374.79L499.47,375.57L503.18,375.69L505.04,375.28L508.75,376.1L510.61,375.94L518.04,375.82L519.89,375.53L525.46,375.33L527.32,374.01L529.18,374.18L531.03,372.62L534.75,368.36L536.6,367.9L542.18,351.5L544.03,348.06L547.75,341.83L549.6,341.21L555.17,334.65L557.03,332.93L558.89,331.66L560.74,331.41L562.6,331.17L564.46,328.22L568.17,326.78L570.03,325.1L571.88,325.02L573.74,323.95L575.6,323.99L577.45,321.53L579.31,319.28L581.17,318.79L583.02,317.35L584.88,314.36L588.59,313.45L590.45,314.4L592.31,314.97L594.16,317.15L596.02,319.56L597.88,324.2L601.59,324.48L603.45,327.19L605.31,330.27L607.16,330.14L609.02,332.03L610.88,330.63L614.59,332.48L616.45,335.06L620.16,337.11L622.02,338.67L625.73,343.43L627.59,343.43L633.16,348.8L635.01,348.72L636.87,350.48L638.73,351.18L640.58,351.96L642.44,354.05L648.01,359.75L649.87,360.2L653.58,361.14L655.44,362.86L657.29,364.75L659.15,365.03L662.86,365.03L664.72,365.4L668.44,365.49" style="vector-effect: non-scaling-stroke; fill: none; stroke: rgb(8, 115, 191); stroke-opacity: 1; stroke-width: 0.5px; opacity: 1;"/></g><g class="points"/><g class="text"/></g><g class="trace scatter trace0828fa" style="stroke-miterlimit: 2;"><g class="fills"><g><path class="js-fill" d="M687,380L668.44,380L668.44,365.49L670.29,365.53L672.15,366.47L677.72,369.71L679.58,370.2L685.15,371.88L687,372" style="fill: rgb(8, 115, 191); fill-opacity: 0.4; stroke-width: 0;"/></g></g><g class="errorbars"/><g class="lines"><path class="js-line" d="M668.44,365.49L670.29,365.53L672.15,366.47L677.72,369.71L679.58,370.2L685.15,371.88L687,372" style="vector-effect: non-scaling-stroke; fill: none; stroke: rgb(8, 115, 191); stroke-opacity: 1; stroke-width: 2px; opacity: 1;"/></g><g class="points"/><g class="text"/></g><g class="trace scatter trace9d82b9" style="stroke-miterlimit: 2; opacity: 1;"><g class="fills"/><g class="errorbars"/><g class="lines"/><g class="points"><path class="point" transform="translate(687,372)" d="M15,0A15,15 0 1,1 0,-15A15,15 0 0,1 15,0Z" style="opacity: 1; stroke-width: 0px; fill: rgb(8, 115, 191); fill-opacity: 1;"/></g><g class="text"/></g></g></g><g class="overplot"/><path class="xlines-above crisp" style="fill: none; stroke-width: 1px; stroke: rgb(0, 0, 0); stroke-opacity: 0;" d=""/><path class="ylines-above crisp" style="fill: none;" d="M0,0"/><g class="overlines-above"/><g class="xaxislayer-above"><path class="xtick ticks crisp" d="M0,450v-5" transform="translate(111.27000000000001,0)" style="stroke: rgb(68, 68, 68); stroke-opacity: 1; stroke-width: 1px;"/><path class="xtick ticks crisp" d="M0,450v-5" transform="translate(224.54,0)" style="stroke: rgb(68, 68, 68); stroke-opacity: 1; stroke-width: 1px;"/><path class="xtick ticks crisp" d="M0,450v-5" transform="translate(334.08,0)" style="stroke: rgb(68, 68, 68); stroke-opacity: 1; stroke-width: 1px;"/><path class="xtick ticks crisp" d="M0,450v-5" transform="translate(447.35,0)" style="stroke: rgb(68, 68, 68); stroke-opacity: 1; stroke-width: 1px;"/><path class="xtick ticks crisp" d="M0,450v-5" transform="translate(560.61,0)" style="stroke: rgb(68, 68, 68); stroke-opacity: 1; stroke-width: 1px;"/><path class="xtick ticks crisp" d="M0,450v-5" transform="translate(675.73,0)" style="stroke: rgb(68, 68, 68); stroke-opacity: 1; stroke-width: 1px;"/><g class="xtick"><text text-anchor="middle" x="0" y="469" transform="translate(111.27000000000001,0)" style="font-family: 'Open Sans', verdana, arial, sans-serif; font-size: 18px; fill: rgb(42, 63, 95); fill-opacity: 1; white-space: pre;">01/11</text></g><g class="xtick"><text text-anchor="middle" x="0" y="469" transform="translate(224.54,0)" style="font-family: 'Open Sans', verdana, arial, sans-serif; font-size: 18px; fill: rgb(42, 63, 95); fill-opacity: 1; white-space: pre;">01/01</text></g><g class="xtick"><text text-anchor="middle" x="0" y="469" transform="translate(334.08,0)" style="font-family: 'Open Sans', verdana, arial, sans-serif; font-size: 18px; fill: rgb(42, 63, 95); fill-opacity: 1; white-space: pre;">01/03</text></g><g class="xtick"><text text-anchor="middle" x="0" y="469" transform="translate(447.35,0)" style="font-family: 'Open Sans', verdana, arial, sans-serif; font-size: 18px; fill: rgb(42, 63, 95); fill-opacity: 1; white-space: pre;">01/05</text></g><g class="xtick"><text text-anchor="middle" x="0" y="469" transform="translate(560.61,0)" style="font-family: 'Open Sans', verdana, arial, sans-serif; font-size: 18px; fill: rgb(42, 63, 95); fill-opacity: 1; white-space: pre;">01/07</text></g><g class="xtick"><text text-anchor="middle" x="0" y="469" transform="translate(675.73,0)" style="font-family: 'Open Sans', verdana, arial, sans-serif; font-size: 18px; fill: rgb(42, 63, 95); fill-opacity: 1; white-space: pre;">01/09</text></g></g><g class="yaxislayer-above"/><g class="overaxes-above"/></g></g><g class="polarlayer"/><g class="ternarylayer"/><g class="geolayer"/><g class="funnelarealayer"/><g class="pielayer"/><g class="treemaplayer"/><g class="sunburstlayer"/><g class="glimages"/><defs id="topdefs-0d4654"><g class="clips"/></defs><g class="layer-above"><g class="imagelayer"/><g class="shapelayer"><path data-index="0" fill-rule="evenodd" d="M-993.5,434.32L363.79,434.32" clip-path="url('#clip0d4654xy')" style="opacity: 1; stroke: rgb(255, 0, 0); stroke-opacity: 1; fill: rgb(0, 0, 0); fill-opacity: 0; stroke-dasharray: 3px, 3px; stroke-width: 1.5px;"/></g></g><g class="infolayer"><g class="g-gtitle"><text class="gtitle" x="375" y="25" text-anchor="middle" dy="0.7em" style="font-family: 'Open Sans', verdana, arial, sans-serif; font-size: 50px; fill: rgb(42, 63, 95); opacity: 1; font-weight: normal; white-space: pre;"><tspan style="font-weight:bold">Loire (42)</tspan></text></g><g class="g-xtitle"/><g class="annotation" data-index="0" style="opacity: 1;"><g class="annotation-text-g" transform="rotate(0,695,382)"><g class="cursor-pointer" transform="translate(652, 346)"><rect class="bg" x="0.5" y="0.5" width="86" height="71" style="stroke-width: 1px; stroke: rgb(0, 0, 0); stroke-opacity: 0; fill: rgb(255, 255, 255); fill-opacity: 0.6;"/><text class="annotation-text" text-anchor="middle" x="43.53125" y="55.5" style="font-family: 'Open Sans', verdana, arial, sans-serif; font-size: 50px; fill: rgb(8, 115, 191); fill-opacity: 1; white-space: pre;"> <tspan style="font-weight:bold">25 </tspan></text></g></g><g class="annotation-arrow-g" style="opacity: 1;"><path d="M723.4,417.5L735,432" style="stroke-width: 1px; stroke: rgb(8, 115, 191); stroke-opacity: 1; stroke-dasharray: 0px, 0px, 18.569px, 18.569px;"/></g></g></g></svg>