<svg class="main-svg" xmlns="http://www.w3.org/2000/svg" xmlns:xlink="http://www.w3.org/1999/xlink" width="1125" height="750" style="" viewBox="0 0 750 500"><rect x="0" y="0" width="750" height="500" style="fill: rgb(0, 0, 0); fill-opacity: 0;"/><defs id="defs-c3ea7d"><g class="clips"><clipPath id="clipc3ea7dxyplot" class="plotclip"><rect width="700" height="380"/></clipPath><clipPath class="axesclip" id="clipc3ea7dx"><rect x="50" y="0" width="700" height="500"/></clipPath><clipPath class="axesclip" id="clipc3ea7dy"><rect x="0" y="70" width="750" height="380"/></clipPath><clipPath class="axesclip" id="clipc3ea7dxy"><rect x="50" y="70" width="700" height="380"/></clipPath></g><g class="gradients"/></defs><g class="bglayer"><rect class="bg" x="50" y="70" width="700" height="380" style="fill: rgb(0, 0, 0); fill-opacity: 0; stroke-width: 0;"/></g><g class="layer-below"><g class="imagelayer"/><g class="shapelayer"/></g><g class="cartesianlayer"><g class="subplot xy"><g class="layer-subplot"><g class="shapelayer"/><g class="imagelayer"/></g><g class="gridlayer"><g class="x"><path class="xgrid crisp" transform="translate(112.94,0)" d="M0,70v380" style="stroke: rgb(255, 255, 255); stroke-opacity: 1; stroke-width: 1px;"/><path class="xgrid crisp" transform="translate(229.29,0)" d="M0,70v380" style="stroke: rgb(255, 255, 255); stroke-opacity: 1; stroke-width: 1px;"/><path class="xgrid crisp" transform="translate(341.83,0)" d="M0,70v380" style="stroke: rgb(255, 255, 255); stroke-opacity: 1; stroke-width: 1px;"/><path class="xgrid crisp" transform="translate(458.17,0)" d="M0,70v380" style="stroke: rgb(255, 255, 255); stroke-opacity: 1; stroke-width: 1px;"/><path class="xgrid crisp" transform="translate(574.52,0)" d="M0,70v380" style="stroke: rgb(255, 255, 255); stroke-opacity: 1; stroke-width: 1px;"/><path class="xgrid crisp" transform="translate(692.78,0)" d="M0,70v380" style="stroke: rgb(255, 255, 255); stroke-opacity: 1; stroke-width: 1px;"/></g><g class="y"/></g><g class="zerolinelayer"/><path class="xlines-below"/><path class="ylines-below"/><g class="overlines-below"/><g class="xaxislayer-below"/><g class="yaxislayer-below"/><g class="overaxes-below"/><g class="plot" transform="translate(50, 70)" clip-path="url('#clipc3ea7dxyplot')"><g class="scatterlayer mlayer"><g class="trace scatter trace3b3f3c" style="stroke-miterlimit: 2;"><g class="fills"><g><path class="js-fill" d="M667.57,380L-259.4,380L-259.4,354.91L-253.68,344.59L-251.77,344.04L-247.96,345.71L-246.05,355.19L-238.42,367.73L-236.51,368.01L-226.98,374.98L-225.07,376.1L-209.81,377.77L-207.9,377.49L-186.92,378.05L-185.01,378.05L-164.03,379.44L-162.13,378.88L-158.31,376.38L-156.4,376.38L-152.59,374.7L-150.68,367.45L-148.77,365.5L-146.87,367.45L-139.24,368.29L-137.33,374.15L-133.51,375.54L-131.61,374.42L-122.07,373.03L-120.16,371.64L-116.35,371.91L-114.44,369.13L-112.53,370.52L-110.63,366.62L-103,365.22L-101.09,366.9L-99.18,366.06L-97.28,369.68L-95.37,369.68L-93.46,371.64L-89.65,373.03L-87.74,371.36L-85.83,370.8L-83.92,367.73L-82.02,368.01L-80.11,365.78L-76.29,362.99L-74.39,363.27L-70.57,361.04L-68.66,360.21L-64.85,356.02L-62.94,356.58L-59.13,353.51L-57.22,354.07L-55.31,350.45L-53.41,352.12L-47.68,347.66L-45.78,348.22L-43.87,341.8L-41.96,339.85L-40.05,338.74L-38.15,340.97L-34.33,339.57L-32.43,335.39L-30.52,335.11L-28.61,335.95L-26.7,327.03L-24.8,325.08L-22.89,325.08L-20.98,320.9L-17.17,315.88L-15.26,314.2L-13.35,321.17L-11.44,322.01L-9.54,323.4L-7.63,329.26L-3.81,336.79L-1.91,339.57L1.91,336.23L3.81,334L15.26,282.14L17.17,278.24L19.07,259.56L20.98,248.69L26.7,195.99L28.61,193.21L30.52,193.48L32.43,187.07L34.33,177.59L36.24,173.41L38.15,178.71L40.05,176.76L41.96,171.74L43.87,169.51L47.68,144.42L49.59,134.66L51.5,121.28L53.41,84.2L55.31,72.21L57.22,74.16L61.04,25.09L62.94,6.13L64.85,0L66.76,17.56L68.66,22.58L70.57,21.19L72.48,45.17L74.39,54.09L76.29,113.19L78.2,113.19L80.11,136.89L82.02,147.48L83.92,150.83L85.83,165.33L87.74,197.67L89.65,190.14L91.55,213.56L93.46,227.5L95.37,235.86L97.28,236.98L99.18,258.72L101.09,268.76L103,267.92L104.9,281.31L106.81,288L108.72,288.28L110.63,288L112.53,298.59L116.35,300.54L118.26,302.22L120.16,303.89L122.07,299.99L123.98,301.1L125.89,300.82L129.7,303.61L131.61,298.59L133.51,299.99L135.42,303.33L137.33,304.72L139.24,303.89L141.14,298.03L143.05,301.1L144.96,299.99L146.87,299.99L148.77,305.28L150.68,305L152.59,308.91L154.5,315.32L156.4,316.16L158.31,328.42L160.22,336.51L162.13,332.88L164.03,332.88L165.94,321.17L167.85,319.22L169.75,312.53L171.66,303.33L173.57,303.61L177.38,299.43L179.29,302.49L181.2,298.31L183.11,296.64L185.01,294.69L186.92,279.91L188.83,279.08L190.74,280.47L192.64,278.8L194.55,282.7L196.46,286.05L198.37,286.6L200.27,285.49L202.18,286.6L204.09,286.6L205.99,288.28L209.81,281.86L211.72,283.82L215.53,286.88L217.44,286.05L219.35,285.21L221.25,281.58L223.16,284.37L225.07,281.86L226.98,281.58L228.88,279.91L230.79,281.58L232.7,274.06L234.6,272.38L236.51,268.48L238.42,268.76L240.33,266.25L244.14,262.35L246.05,267.92L249.86,279.91L251.77,284.37L253.68,288.83L255.59,287.72L257.49,288.83L259.4,285.77L261.31,276.85L263.22,264.02L267.03,252.59L268.94,253.43L270.84,251.2L272.75,244.5L274.66,239.49L276.57,244.23L278.47,240.04L280.38,224.15L284.2,222.48L286.1,213.28L288.01,213.28L289.92,203.8L291.83,202.41L293.73,203.24L295.64,194.88L297.55,194.6L299.46,197.11L301.36,192.93L303.27,190.42L305.18,178.71L307.08,177.59L308.99,172.85L310.9,174.81L312.81,144.97L316.62,113.47L318.53,106.78L320.44,93.12L322.34,91.17L324.25,87.54L326.16,93.95L328.07,86.98L329.97,83.36L333.79,74.72L335.69,65.8L337.6,64.68L339.51,61.06L341.42,60.22L343.32,63.29L345.23,64.12L347.14,59.66L349.05,73.04L350.95,73.6L352.86,120.72L354.77,122.95L356.68,110.4L358.58,104.83L360.49,103.43L362.4,96.18L364.31,97.02L366.21,42.66L368.12,32.9L370.03,46L371.93,45.72L373.84,47.95L375.75,35.69L377.66,36.24L379.56,49.07L381.47,72.49L383.38,73.32L385.29,82.8L389.1,113.47L391.01,116.54L394.82,137.73L396.73,152.22L398.64,165.88L400.54,172.85L402.45,190.14L404.36,188.19L406.27,199.34L408.17,203.52L410.08,208.82L411.99,222.48L413.9,235.86L415.8,236.7L417.71,238.93L419.62,237.53L421.53,243.95L423.43,240.04L425.34,245.9L427.25,242.83L429.16,232.8L431.06,232.8L432.97,245.06L434.88,241.44L436.78,247.85L438.69,234.19L442.51,241.16L444.41,240.6L446.32,258.44L448.23,264.02L450.14,264.86L452.04,272.38L453.95,276.01L455.86,276.01L457.77,278.52L459.67,270.99L461.58,277.12L463.49,286.05L467.3,292.18L469.21,300.54L471.12,300.54L473.02,305.56L476.84,320.9L478.75,328.42L480.65,337.62L482.56,337.9L484.47,337.34L486.38,344.87L492.1,353.24L494.01,354.63L495.91,357.98L497.82,358.25L499.73,361.04L501.63,362.16L505.45,366.34L507.36,366.9L511.17,367.18L513.08,364.94L514.99,363.55L516.89,359.93L520.71,354.35L522.62,350.17L524.52,350.45L526.43,349.05L528.34,346.82L530.25,346.54L532.15,345.15L534.06,341.8L535.97,344.59L537.87,344.87L539.78,344.87L541.69,339.3L543.6,342.08L545.5,333.16L549.32,326.75L551.23,325.36L556.95,287.72L558.86,287.44L560.76,279.63L562.67,275.45L564.58,275.17L566.49,257.61L568.39,252.31L570.3,235.86L572.21,226.94L574.11,223.04L576.02,220.53L577.93,219.69L581.74,211.61L583.65,221.64L585.56,223.87L587.47,213.28L589.37,200.73L591.28,201.01L593.19,202.41L595.1,187.91L597,172.85L598.91,146.93L600.82,137.73L602.72,134.66L604.63,134.38L606.54,114.31L608.45,113.47L610.35,103.15L612.26,107.62L614.17,101.48L616.08,98.14L617.98,97.58L619.89,104.55L621.8,103.71L629.43,148.88L631.34,150.27L635.15,172.58L637.06,181.78L640.87,200.45L642.78,197.11L644.69,198.22L646.59,209.66L648.5,230.84L650.41,241.16L654.22,255.38L656.13,271.83L658.04,271.55L659.95,280.19L661.85,281.86L663.76,280.75L665.67,279.63L667.57,281.03" style="fill: rgb(8, 115, 191); fill-opacity: 0.2; stroke-width: 0;"/></g></g><g class="errorbars"/><g class="lines"><path class="js-line" d="M-259.4,354.91L-253.68,344.59L-251.77,344.04L-247.96,345.71L-246.05,355.19L-238.42,367.73L-236.51,368.01L-226.98,374.98L-225.07,376.1L-209.81,377.77L-207.9,377.49L-186.92,378.05L-185.01,378.05L-164.03,379.44L-162.13,378.88L-158.31,376.38L-156.4,376.38L-152.59,374.7L-150.68,367.45L-148.77,365.5L-146.87,367.45L-139.24,368.29L-137.33,374.15L-133.51,375.54L-131.61,374.42L-122.07,373.03L-120.16,371.64L-116.35,371.91L-114.44,369.13L-112.53,370.52L-110.63,366.62L-103,365.22L-101.09,366.9L-99.18,366.06L-97.28,369.68L-95.37,369.68L-93.46,371.64L-89.65,373.03L-87.74,371.36L-85.83,370.8L-83.92,367.73L-82.02,368.01L-80.11,365.78L-76.29,362.99L-74.39,363.27L-70.57,361.04L-68.66,360.21L-64.85,356.02L-62.94,356.58L-59.13,353.51L-57.22,354.07L-55.31,350.45L-53.41,352.12L-47.68,347.66L-45.78,348.22L-43.87,341.8L-41.96,339.85L-40.05,338.74L-38.15,340.97L-34.33,339.57L-32.43,335.39L-30.52,335.11L-28.61,335.95L-26.7,327.03L-24.8,325.08L-22.89,325.08L-20.98,320.9L-17.17,315.88L-15.26,314.2L-13.35,321.17L-11.44,322.01L-9.54,323.4L-7.63,329.26L-3.81,336.79L-1.91,339.57L1.91,336.23L3.81,334L15.26,282.14L17.17,278.24L19.07,259.56L20.98,248.69L26.7,195.99L28.61,193.21L30.52,193.48L32.43,187.07L34.33,177.59L36.24,173.41L38.15,178.71L40.05,176.76L41.96,171.74L43.87,169.51L47.68,144.42L49.59,134.66L51.5,121.28L53.41,84.2L55.31,72.21L57.22,74.16L61.04,25.09L62.94,6.13L64.85,0L66.76,17.56L68.66,22.58L70.57,21.19L72.48,45.17L74.39,54.09L76.29,113.19L78.2,113.19L80.11,136.89L82.02,147.48L83.92,150.83L85.83,165.33L87.74,197.67L89.65,190.14L91.55,213.56L93.46,227.5L95.37,235.86L97.28,236.98L99.18,258.72L101.09,268.76L103,267.92L104.9,281.31L106.81,288L108.72,288.28L110.63,288L112.53,298.59L116.35,300.54L118.26,302.22L120.16,303.89L122.07,299.99L123.98,301.1L125.89,300.82L129.7,303.61L131.61,298.59L133.51,299.99L135.42,303.33L137.33,304.72L139.24,303.89L141.14,298.03L143.05,301.1L144.96,299.99L146.87,299.99L148.77,305.28L150.68,305L152.59,308.91L154.5,315.32L156.4,316.16L158.31,328.42L160.22,336.51L162.13,332.88L164.03,332.88L165.94,321.17L167.85,319.22L169.75,312.53L171.66,303.33L173.57,303.61L177.38,299.43L179.29,302.49L181.2,298.31L183.11,296.64L185.01,294.69L186.92,279.91L188.83,279.08L190.74,280.47L192.64,278.8L194.55,282.7L196.46,286.05L198.37,286.6L200.27,285.49L202.18,286.6L204.09,286.6L205.99,288.28L209.81,281.86L211.72,283.82L215.53,286.88L217.44,286.05L219.35,285.21L221.25,281.58L223.16,284.37L225.07,281.86L226.98,281.58L228.88,279.91L230.79,281.58L232.7,274.06L234.6,272.38L236.51,268.48L238.42,268.76L240.33,266.25L244.14,262.35L246.05,267.92L249.86,279.91L251.77,284.37L253.68,288.83L255.59,287.72L257.49,288.83L259.4,285.77L261.31,276.85L263.22,264.02L267.03,252.59L268.94,253.43L270.84,251.2L272.75,244.5L274.66,239.49L276.57,244.23L278.47,240.04L280.38,224.15L284.2,222.48L286.1,213.28L288.01,213.28L289.92,203.8L291.83,202.41L293.73,203.24L295.64,194.88L297.55,194.6L299.46,197.11L301.36,192.93L303.27,190.42L305.18,178.71L307.08,177.59L308.99,172.85L310.9,174.81L312.81,144.97L316.62,113.47L318.53,106.78L320.44,93.12L322.34,91.17L324.25,87.54L326.16,93.95L328.07,86.98L329.97,83.36L333.79,74.72L335.69,65.8L337.6,64.68L339.51,61.06L341.42,60.22L343.32,63.29L345.23,64.12L347.14,59.66L349.05,73.04L350.95,73.6L352.86,120.72L354.77,122.95L356.68,110.4L358.58,104.83L360.49,103.43L362.4,96.18L364.31,97.02L366.21,42.66L368.12,32.9L370.03,46L371.93,45.72L373.84,47.95L375.75,35.69L377.66,36.24L379.56,49.07L381.47,72.49L383.38,73.32L385.29,82.8L389.1,113.47L391.01,116.54L394.82,137.73L396.73,152.22L398.64,165.88L400.54,172.85L402.45,190.14L404.36,188.19L406.27,199.34L408.17,203.52L410.08,208.82L411.99,222.48L413.9,235.86L415.8,236.7L417.71,238.93L419.62,237.53L421.53,243.95L423.43,240.04L425.34,245.9L427.25,242.83L429.16,232.8L431.06,232.8L432.97,245.06L434.88,241.44L436.78,247.85L438.69,234.19L442.51,241.16L444.41,240.6L446.32,258.44L448.23,264.02L450.14,264.86L452.04,272.38L453.95,276.01L455.86,276.01L457.77,278.52L459.67,270.99L461.58,277.12L463.49,286.05L467.3,292.18L469.21,300.54L471.12,300.54L473.02,305.56L476.84,320.9L478.75,328.42L480.65,337.62L482.56,337.9L484.47,337.34L486.38,344.87L492.1,353.24L494.01,354.63L495.91,357.98L497.82,358.25L499.73,361.04L501.63,362.16L505.45,366.34L507.36,366.9L511.17,367.18L513.08,364.94L514.99,363.55L516.89,359.93L520.71,354.35L522.62,350.17L524.52,350.45L526.43,349.05L528.34,346.82L530.25,346.54L532.15,345.15L534.06,341.8L535.97,344.59L537.87,344.87L539.78,344.87L541.69,339.3L543.6,342.08L545.5,333.16L549.32,326.75L551.23,325.36L556.95,287.72L558.86,287.44L560.76,279.63L562.67,275.45L564.58,275.17L566.49,257.61L568.39,252.31L570.3,235.86L572.21,226.94L574.11,223.04L576.02,220.53L577.93,219.69L581.74,211.61L583.65,221.64L585.56,223.87L587.47,213.28L589.37,200.73L591.28,201.01L593.19,202.41L595.1,187.91L597,172.85L598.91,146.93L600.82,137.73L602.72,134.66L604.63,134.38L606.54,114.31L608.45,113.47L610.35,103.15L612.26,107.62L614.17,101.48L616.08,98.14L617.98,97.58L619.89,104.55L621.8,103.71L629.43,148.88L631.34,150.27L635.15,172.58L637.06,181.78L640.87,200.45L642.78,197.11L644.69,198.22L646.59,209.66L648.5,230.84L650.41,241.16L654.22,255.38L656.13,271.83L658.04,271.55L659.95,280.19L661.85,281.86L663.76,280.75L665.67,279.63L667.57,281.03" style="vector-effect: non-scaling-stroke; fill: none; stroke: rgb(8, 115, 191); stroke-opacity: 1; stroke-width: 0.5px; opacity: 1;"/></g><g class="points"/><g class="text"/></g><g class="trace scatter trace70dc0d" style="stroke-miterlimit: 2;"><g class="fills"><g><path class="js-fill" d="M686.65,380L667.57,380L667.57,281.03L671.39,281.58L673.3,284.65L679.02,307.51L680.93,318.11L684.74,317.27L686.65,320.34" style="fill: rgb(8, 115, 191); fill-opacity: 0.4; stroke-width: 0;"/></g></g><g class="errorbars"/><g class="lines"><path class="js-line" d="M667.57,281.03L671.39,281.58L673.3,284.65L679.02,307.51L680.93,318.11L684.74,317.27L686.65,320.34" style="vector-effect: non-scaling-stroke; fill: none; stroke: rgb(8, 115, 191); stroke-opacity: 1; stroke-width: 2px; opacity: 1;"/></g><g class="points"/><g class="text"/></g><g class="trace scatter trace7d53fd" style="stroke-miterlimit: 2; opacity: 1;"><g class="fills"/><g class="errorbars"/><g class="lines"/><g class="points"><path class="point" transform="translate(686.65,320.34)" d="M15,0A15,15 0 1,1 0,-15A15,15 0 0,1 15,0Z" style="opacity: 1; stroke-width: 0px; fill: rgb(8, 115, 191); fill-opacity: 1;"/></g><g class="text"/></g></g></g><g class="overplot"/><path class="xlines-above crisp" style="fill: none; stroke-width: 1px; stroke: rgb(0, 0, 0); stroke-opacity: 0;" d=""/><path class="ylines-above crisp" style="fill: none;" d="M0,0"/><g class="overlines-above"/><g class="xaxislayer-above"><path class="xtick ticks crisp" d="M0,450v-5" transform="translate(112.94,0)" style="stroke: rgb(68, 68, 68); stroke-opacity: 1; stroke-width: 1px;"/><path class="xtick ticks crisp" d="M0,450v-5" transform="translate(229.29,0)" style="stroke: rgb(68, 68, 68); stroke-opacity: 1; stroke-width: 1px;"/><path class="xtick ticks crisp" d="M0,450v-5" transform="translate(341.83,0)" style="stroke: rgb(68, 68, 68); stroke-opacity: 1; stroke-width: 1px;"/><path class="xtick ticks crisp" d="M0,450v-5" transform="translate(458.17,0)" style="stroke: rgb(68, 68, 68); stroke-opacity: 1; stroke-width: 1px;"/><path class="xtick ticks crisp" d="M0,450v-5" transform="translate(574.52,0)" style="stroke: rgb(68, 68, 68); stroke-opacity: 1; stroke-width: 1px;"/><path class="xtick ticks crisp" d="M0,450v-5" transform="translate(692.78,0)" style="stroke: rgb(68, 68, 68); stroke-opacity: 1; stroke-width: 1px;"/><g class="xtick"><text text-anchor="middle" x="0" y="469" transform="translate(112.94,0)" style="font-family: 'Open Sans', verdana, arial, sans-serif; font-size: 18px; fill: rgb(42, 63, 95); fill-opacity: 1; white-space: pre;">01/11</text></g><g class="xtick"><text text-anchor="middle" x="0" y="469" transform="translate(229.29,0)" style="font-family: 'Open Sans', verdana, arial, sans-serif; font-size: 18px; fill: rgb(42, 63, 95); fill-opacity: 1; white-space: pre;">01/01</text></g><g class="xtick"><text text-anchor="middle" x="0" y="469" transform="translate(341.83,0)" style="font-family: 'Open Sans', verdana, arial, sans-serif; font-size: 18px; fill: rgb(42, 63, 95); fill-opacity: 1; white-space: pre;">01/03</text></g><g class="xtick"><text text-anchor="middle" x="0" y="469" transform="translate(458.17,0)" style="font-family: 'Open Sans', verdana, arial, sans-serif; font-size: 18px; fill: rgb(42, 63, 95); fill-opacity: 1; white-space: pre;">01/05</text></g><g class="xtick"><text text-anchor="middle" x="0" y="469" transform="translate(574.52,0)" style="font-family: 'Open Sans', verdana, arial, sans-serif; font-size: 18px; fill: rgb(42, 63, 95); fill-opacity: 1; white-space: pre;">01/07</text></g><g class="xtick"><text text-anchor="middle" x="0" y="469" transform="translate(692.78,0)" style="font-family: 'Open Sans', verdana, arial, sans-serif; font-size: 18px; fill: rgb(42, 63, 95); fill-opacity: 1; white-space: pre;">01/09</text></g></g><g class="yaxislayer-above"/><g class="overaxes-above"/></g></g><g class="polarlayer"/><g class="ternarylayer"/><g class="geolayer"/><g class="funnelarealayer"/><g class="pielayer"/><g class="treemaplayer"/><g class="sunburstlayer"/><g class="glimages"/><defs id="topdefs-c3ea7d"><g class="clips"/></defs><g class="layer-above"><g class="imagelayer"/><g class="shapelayer"><path data-index="0" fill-rule="evenodd" d="M-1021.9300000000001,366.89L372.34,366.89" clip-path="url('#clipc3ea7dxy')" style="opacity: 1; stroke: rgb(255, 0, 0); stroke-opacity: 1; fill: rgb(0, 0, 0); fill-opacity: 0; stroke-dasharray: 3px, 3px; stroke-width: 1.5px;"/></g></g><g class="infolayer"><g class="g-gtitle"><text class="gtitle" x="375" y="25" text-anchor="middle" dy="0.7em" style="font-family: 'Open Sans', verdana, arial, sans-serif; font-size: 50px; fill: rgb(42, 63, 95); opacity: 1; font-weight: normal; white-space: pre;"><tspan style="font-weight:bold">Côtes-d'armor (22)</tspan></text></g><g class="g-xtitle"/><g class="annotation" data-index="0" style="opacity: 1;"><g class="annotation-text-g" transform="rotate(0,694.65,330.34)"><g class="cursor-pointer" transform="translate(651, 294)"><rect class="bg" x="0.5" y="0.5" width="86" height="71" style="stroke-width: 1px; stroke: rgb(0, 0, 0); stroke-opacity: 0; fill: rgb(255, 255, 255); fill-opacity: 0.6;"/><text class="annotation-text" text-anchor="middle" x="43.53125" y="55.5" style="font-family: 'Open Sans', verdana, arial, sans-serif; font-size: 50px; fill: rgb(8, 115, 191); fill-opacity: 1; white-space: pre;"> <tspan style="font-weight:bold">35 </tspan></text></g></g><g class="annotation-arrow-g" style="opacity: 1;"><path d="M723.05,365.84L734.65,380.34" style="stroke-width: 1px; stroke: rgb(8, 115, 191); stroke-opacity: 1; stroke-dasharray: 0px, 0px, 18.5691px, 18.5691px;"/></g></g></g></svg>