<svg class="main-svg" xmlns="http://www.w3.org/2000/svg" xmlns:xlink="http://www.w3.org/1999/xlink" width="1125" height="750" style="" viewBox="0 0 750 500"><rect x="0" y="0" width="750" height="500" style="fill: rgb(0, 0, 0); fill-opacity: 0;"/><defs id="defs-c8f595"><g class="clips"><clipPath id="clipc8f595xyplot" class="plotclip"><rect width="700" height="380"/></clipPath><clipPath class="axesclip" id="clipc8f595x"><rect x="50" y="0" width="700" height="500"/></clipPath><clipPath class="axesclip" id="clipc8f595y"><rect x="0" y="70" width="750" height="380"/></clipPath><clipPath class="axesclip" id="clipc8f595xy"><rect x="50" y="70" width="700" height="380"/></clipPath></g><g class="gradients"/></defs><g class="bglayer"><rect class="bg" x="50" y="70" width="700" height="380" style="fill: rgb(0, 0, 0); fill-opacity: 0; stroke-width: 0;"/></g><g class="layer-below"><g class="imagelayer"/><g class="shapelayer"/></g><g class="cartesianlayer"><g class="subplot xy"><g class="layer-subplot"><g class="shapelayer"/><g class="imagelayer"/></g><g class="gridlayer"><g class="x"><path class="xgrid crisp" transform="translate(108.78,0)" d="M0,70v380" style="stroke: rgb(255, 255, 255); stroke-opacity: 1; stroke-width: 1px;"/><path class="xgrid crisp" transform="translate(217.43,0)" d="M0,70v380" style="stroke: rgb(255, 255, 255); stroke-opacity: 1; stroke-width: 1px;"/><path class="xgrid crisp" transform="translate(322.52,0)" d="M0,70v380" style="stroke: rgb(255, 255, 255); stroke-opacity: 1; stroke-width: 1px;"/><path class="xgrid crisp" transform="translate(431.17,0)" d="M0,70v380" style="stroke: rgb(255, 255, 255); stroke-opacity: 1; stroke-width: 1px;"/><path class="xgrid crisp" transform="translate(539.8199999999999,0)" d="M0,70v380" style="stroke: rgb(255, 255, 255); stroke-opacity: 1; stroke-width: 1px;"/><path class="xgrid crisp" transform="translate(650.25,0)" d="M0,70v380" style="stroke: rgb(255, 255, 255); stroke-opacity: 1; stroke-width: 1px;"/></g><g class="y"/></g><g class="zerolinelayer"/><path class="xlines-below"/><path class="ylines-below"/><g class="overlines-below"/><g class="xaxislayer-below"/><g class="yaxislayer-below"/><g class="overaxes-below"/><g class="plot" transform="translate(50, 70)" clip-path="url('#clipc8f595xyplot')"><g class="scatterlayer mlayer"><g class="trace scatter tracec6f113" style="stroke-miterlimit: 2;"><g class="fills"><g><path class="js-fill" d="M669.72,380L-242.24,380L-242.24,377.52L-227.99,378.61L-226.21,378.3L-217.3,376.9L-215.52,377.21L-203.05,377.37L-201.27,376.13L-188.8,375.2L-187.02,375.67L-178.12,377.99L-176.34,378.92L-154.96,379.07L-153.18,378.45L-137.15,377.52L-135.37,377.99L-94.4,376.9L-92.62,375.98L-81.93,373.81L-80.15,374.27L-71.25,372.73L-69.47,373.03L-65.9,371.33L-64.12,371.18L-60.56,368.55L-58.78,368.24L-51.65,363.75L-49.87,364.52L-44.53,364.99L-42.75,363.75L-40.97,363.13L-39.19,364.21L-32.06,363.9L-30.28,364.68L-23.16,361.58L-21.37,361.74L-19.59,360.34L-17.81,360.81L-16.03,363.13L-14.25,363.59L-12.47,364.06L-10.69,363.59L-8.91,363.28L-7.12,360.81L-5.34,360.19L-3.56,355.85L-1.78,354.31L0,350.44L3.56,349.97L5.34,344.09L8.91,328.3L10.69,313.29L14.25,292.55L16.03,289.3L21.37,242.86L23.16,232.18L24.94,214.22L26.72,213.91L28.5,215.15L30.28,188.99L37.4,64.7L39.19,54.48L40.97,50.92L42.75,18.88L44.53,6.97L46.31,5.73L48.09,0L49.87,5.73L51.65,4.95L53.44,6.04L60.56,50L62.34,67.64L64.12,77.86L65.9,77.86L69.47,121.66L71.25,163.76L73.03,171.35L74.81,186.21L76.59,185.74L78.37,186.83L80.15,212.52L81.93,222.74L83.72,217.16L85.5,247.04L89.06,269.02L90.84,271.34L94.4,297.96L96.18,301.68L97.96,304.46L99.75,305.39L101.53,304.77L103.31,303.23L105.09,299.2L106.87,301.06L108.65,302.14L110.43,302.3L112.21,308.18L113.99,306.48L117.56,311.58L119.34,315.76L122.9,305.24L124.68,304L126.46,305.7L128.24,304.31L130.03,299.36L131.81,285.27L135.37,286.82L137.15,274.9L140.71,249.21L142.49,252.61L144.27,258.34L146.06,255.09L147.84,255.86L149.62,279.08L153.18,302.45L154.96,304L156.74,303.69L158.52,306.63L160.31,305.7L162.09,305.7L163.87,302.45L165.65,301.68L167.43,294.71L169.21,296.57L170.99,292.39L172.77,290.69L174.55,274.9L176.34,277.69L178.12,278.31L179.9,280.16L183.46,270.1L185.24,270.88L190.59,266.23L192.37,260.35L194.15,261.9L195.93,267.32L201.27,248.12L203.05,249.36L204.83,252.46L206.62,252.15L208.4,244.1L210.18,246.42L211.96,251.84L213.74,253.85L217.3,252.61L219.08,253.08L220.87,255.09L222.65,251.37L224.43,250.44L226.21,253.23L227.99,255.09L229.77,255.55L233.33,271.19L235.11,275.52L236.9,284.34L238.68,285.12L240.46,285.27L242.24,297.81L244.02,296.73L245.8,300.13L247.58,306.01L249.36,299.67L251.15,301.37L252.93,301.99L254.71,295.64L256.49,294.56L260.05,286.2L261.83,291.46L263.61,294.25L265.39,293.78L272.52,318.7L274.3,321.65L276.08,319.79L277.86,319.63L279.64,317.62L281.42,319.94L283.21,320.25L284.99,317.31L286.77,314.84L288.55,314.68L290.33,315.3L292.11,311.89L293.89,311.58L295.67,308.49L299.24,292.55L301.02,294.25L302.8,293.78L304.58,295.8L306.36,293.78L308.14,290.07L311.7,299.67L313.49,296.73L315.27,296.42L317.05,293.16L318.83,286.66L320.61,287.59L324.17,282.02L325.95,281.09L327.74,280.78L329.52,297.65L334.86,272.73L336.64,266.54L338.42,263.6L340.2,264.07L341.98,243.01L343.77,252.15L345.55,256.79L347.33,265.46L349.11,271.65L350.89,271.96L352.67,271.65L354.45,272.42L356.23,271.8L358.02,273.97L359.8,273.04L361.58,275.05L363.36,276.29L365.14,276.45L368.7,282.18L370.48,285.27L372.26,292.24L374.05,292.55L375.83,301.99L377.61,302.61L382.95,316.85L384.73,319.32L386.51,327.22L388.3,325.82L390.08,325.21L391.86,330.93L395.42,335.42L397.2,341.77L400.76,340.84L402.54,341.61L404.33,344.4L406.11,341.92L407.89,343.47L409.67,339.29L411.45,341.77L413.23,341.46L415.01,341.46L416.79,348.27L418.58,350.75L420.36,351.83L425.7,355.23L427.48,355.23L429.26,350.59L431.04,353.07L432.82,354.15L434.61,353.22L441.73,356.16L443.51,358.64L447.07,364.52L448.85,365.76L450.64,366.84L452.42,366.84L454.2,368.7L455.98,369.32L459.54,369.01L461.32,370.4L463.1,371.49L464.89,371.64L472.01,377.06L473.79,377.06L477.35,376.75L479.13,377.68L489.82,376.59L491.6,374.89L500.51,369.32L502.29,369.16L504.07,368.08L505.85,366.07L507.63,367.62L509.41,365.14L511.2,361.12L512.98,359.41L514.76,358.02L516.54,352.29L521.88,335.89L523.66,333.72L527.23,333.25L529.01,325.98L534.35,313.44L536.13,311.43L537.91,308.95L539.69,309.26L543.26,310.35L545.04,308.8L546.82,308.18L548.6,305.86L550.38,303.23L552.16,303.38L559.29,289.3L561.07,287.59L564.63,283.41L566.41,273.66L568.19,266.23L569.97,264.99L571.76,268.09L573.54,264.99L575.32,262.98L577.1,264.37L580.66,278.46L582.44,281.71L584.22,278.15L586.01,282.02L587.79,287.28L589.57,287.28L593.13,297.19L594.91,301.68L596.69,310.97L598.47,314.06L600.25,316.38L602.04,317L603.82,320.1L605.6,321.34L607.38,324.43L609.16,325.05L610.94,327.53L612.72,328.46L614.5,327.84L616.28,328.61L618.07,331.86L619.85,333.1L621.63,334.03L623.41,332.17L625.19,334.65L626.97,335.73L628.75,342.85L630.53,343.47L632.32,347.49L634.1,347.19L635.88,353.07L637.66,351.98L639.44,351.98L641.22,349.51L643,350.28L644.78,349.2L646.56,351.83L648.35,350.44L650.13,349.04L651.91,349.04L655.47,347.65L657.25,348.27L659.03,345.95L660.81,346.41L662.6,348.73L664.38,348.73L667.94,354L669.72,353.69" style="fill: rgb(8, 115, 191); fill-opacity: 0.2; stroke-width: 0;"/></g></g><g class="errorbars"/><g class="lines"><path class="js-line" d="M-242.24,377.52L-227.99,378.61L-226.21,378.3L-217.3,376.9L-215.52,377.21L-203.05,377.37L-201.27,376.13L-188.8,375.2L-187.02,375.67L-178.12,377.99L-176.34,378.92L-154.96,379.07L-153.18,378.45L-137.15,377.52L-135.37,377.99L-94.4,376.9L-92.62,375.98L-81.93,373.81L-80.15,374.27L-71.25,372.73L-69.47,373.03L-65.9,371.33L-64.12,371.18L-60.56,368.55L-58.78,368.24L-51.65,363.75L-49.87,364.52L-44.53,364.99L-42.75,363.75L-40.97,363.13L-39.19,364.21L-32.06,363.9L-30.28,364.68L-23.16,361.58L-21.37,361.74L-19.59,360.34L-17.81,360.81L-16.03,363.13L-14.25,363.59L-12.47,364.06L-10.69,363.59L-8.91,363.28L-7.12,360.81L-5.34,360.19L-3.56,355.85L-1.78,354.31L0,350.44L3.56,349.97L5.34,344.09L8.91,328.3L10.69,313.29L14.25,292.55L16.03,289.3L21.37,242.86L23.16,232.18L24.94,214.22L26.72,213.91L28.5,215.15L30.28,188.99L37.4,64.7L39.19,54.48L40.97,50.92L42.75,18.88L44.53,6.97L46.31,5.73L48.09,0L49.87,5.73L51.65,4.95L53.44,6.04L60.56,50L62.34,67.64L64.12,77.86L65.9,77.86L69.47,121.66L71.25,163.76L73.03,171.35L74.81,186.21L76.59,185.74L78.37,186.83L80.15,212.52L81.93,222.74L83.72,217.16L85.5,247.04L89.06,269.02L90.84,271.34L94.4,297.96L96.18,301.68L97.96,304.46L99.75,305.39L101.53,304.77L103.31,303.23L105.09,299.2L106.87,301.06L108.65,302.14L110.43,302.3L112.21,308.18L113.99,306.48L117.56,311.58L119.34,315.76L122.9,305.24L124.68,304L126.46,305.7L128.24,304.31L130.03,299.36L131.81,285.27L135.37,286.82L137.15,274.9L140.71,249.21L142.49,252.61L144.27,258.34L146.06,255.09L147.84,255.86L149.62,279.08L153.18,302.45L154.96,304L156.74,303.69L158.52,306.63L160.31,305.7L162.09,305.7L163.87,302.45L165.65,301.68L167.43,294.71L169.21,296.57L170.99,292.39L172.77,290.69L174.55,274.9L176.34,277.69L178.12,278.31L179.9,280.16L183.46,270.1L185.24,270.88L190.59,266.23L192.37,260.35L194.15,261.9L195.93,267.32L201.27,248.12L203.05,249.36L204.83,252.46L206.62,252.15L208.4,244.1L210.18,246.42L211.96,251.84L213.74,253.85L217.3,252.61L219.08,253.08L220.87,255.09L222.65,251.37L224.43,250.44L226.21,253.23L227.99,255.09L229.77,255.55L233.33,271.19L235.11,275.52L236.9,284.34L238.68,285.12L240.46,285.27L242.24,297.81L244.02,296.73L245.8,300.13L247.58,306.01L249.36,299.67L251.15,301.37L252.93,301.99L254.71,295.64L256.49,294.56L260.05,286.2L261.83,291.46L263.61,294.25L265.39,293.78L272.52,318.7L274.3,321.65L276.08,319.79L277.86,319.63L279.64,317.62L281.42,319.94L283.21,320.25L284.99,317.31L286.77,314.84L288.55,314.68L290.33,315.3L292.11,311.89L293.89,311.58L295.67,308.49L299.24,292.55L301.02,294.25L302.8,293.78L304.58,295.8L306.36,293.78L308.14,290.07L311.7,299.67L313.49,296.73L315.27,296.42L317.05,293.16L318.83,286.66L320.61,287.59L324.17,282.02L325.95,281.09L327.74,280.78L329.52,297.65L334.86,272.73L336.64,266.54L338.42,263.6L340.2,264.07L341.98,243.01L343.77,252.15L345.55,256.79L347.33,265.46L349.11,271.65L350.89,271.96L352.67,271.65L354.45,272.42L356.23,271.8L358.02,273.97L359.8,273.04L361.58,275.05L363.36,276.29L365.14,276.45L368.7,282.18L370.48,285.27L372.26,292.24L374.05,292.55L375.83,301.99L377.61,302.61L382.95,316.85L384.73,319.32L386.51,327.22L388.3,325.82L390.08,325.21L391.86,330.93L395.42,335.42L397.2,341.77L400.76,340.84L402.54,341.61L404.33,344.4L406.11,341.92L407.89,343.47L409.67,339.29L411.45,341.77L413.23,341.46L415.01,341.46L416.79,348.27L418.58,350.75L420.36,351.83L425.7,355.23L427.48,355.23L429.26,350.59L431.04,353.07L432.82,354.15L434.61,353.22L441.73,356.16L443.51,358.64L447.07,364.52L448.85,365.76L450.64,366.84L452.42,366.84L454.2,368.7L455.98,369.32L459.54,369.01L461.32,370.4L463.1,371.49L464.89,371.64L472.01,377.06L473.79,377.06L477.35,376.75L479.13,377.68L489.82,376.59L491.6,374.89L500.51,369.32L502.29,369.16L504.07,368.08L505.85,366.07L507.63,367.62L509.41,365.14L511.2,361.12L512.98,359.41L514.76,358.02L516.54,352.29L521.88,335.89L523.66,333.72L527.23,333.25L529.01,325.98L534.35,313.44L536.13,311.43L537.91,308.95L539.69,309.26L543.26,310.35L545.04,308.8L546.82,308.18L548.6,305.86L550.38,303.23L552.16,303.38L559.29,289.3L561.07,287.59L564.63,283.41L566.41,273.66L568.19,266.23L569.97,264.99L571.76,268.09L573.54,264.99L575.32,262.98L577.1,264.37L580.66,278.46L582.44,281.71L584.22,278.15L586.01,282.02L587.79,287.28L589.57,287.28L593.13,297.19L594.91,301.68L596.69,310.97L598.47,314.06L600.25,316.38L602.04,317L603.82,320.1L605.6,321.34L607.38,324.43L609.16,325.05L610.94,327.53L612.72,328.46L614.5,327.84L616.28,328.61L618.07,331.86L619.85,333.1L621.63,334.03L623.41,332.17L625.19,334.65L626.97,335.73L628.75,342.85L630.53,343.47L632.32,347.49L634.1,347.19L635.88,353.07L637.66,351.98L639.44,351.98L641.22,349.51L643,350.28L644.78,349.2L646.56,351.83L648.35,350.44L650.13,349.04L651.91,349.04L655.47,347.65L657.25,348.27L659.03,345.95L660.81,346.41L662.6,348.73L664.38,348.73L667.94,354L669.72,353.69" style="vector-effect: non-scaling-stroke; fill: none; stroke: rgb(8, 115, 191); stroke-opacity: 1; stroke-width: 0.5px; opacity: 1;"/></g><g class="points"/><g class="text"/></g><g class="trace scatter tracedf4ebb" style="stroke-miterlimit: 2;"><g class="fills"><g><path class="js-fill" d="M687.53,380L669.72,380L669.72,353.69L671.5,354.62L673.28,357.87L676.84,358.18L678.63,360.03L682.19,356.32L683.97,357.09L685.75,355.7L687.53,352.76" style="fill: rgb(8, 115, 191); fill-opacity: 0.4; stroke-width: 0;"/></g></g><g class="errorbars"/><g class="lines"><path class="js-line" d="M669.72,353.69L671.5,354.62L673.28,357.87L676.84,358.18L678.63,360.03L682.19,356.32L683.97,357.09L685.75,355.7L687.53,352.76" style="vector-effect: non-scaling-stroke; fill: none; stroke: rgb(8, 115, 191); stroke-opacity: 1; stroke-width: 2px; opacity: 1;"/></g><g class="points"/><g class="text"/></g><g class="trace scatter trace57ecf6" style="stroke-miterlimit: 2; opacity: 1;"><g class="fills"/><g class="errorbars"/><g class="lines"/><g class="points"><path class="point" transform="translate(687.53,352.76)" d="M15,0A15,15 0 1,1 0,-15A15,15 0 0,1 15,0Z" style="opacity: 1; stroke-width: 0px; fill: rgb(8, 115, 191); fill-opacity: 1;"/></g><g class="text"/></g></g></g><g class="overplot"/><path class="xlines-above crisp" style="fill: none; stroke-width: 1px; stroke: rgb(0, 0, 0); stroke-opacity: 0;" d=""/><path class="ylines-above crisp" style="fill: none;" d="M0,0"/><g class="overlines-above"/><g class="xaxislayer-above"><path class="xtick ticks crisp" d="M0,450v-5" transform="translate(108.78,0)" style="stroke: rgb(68, 68, 68); stroke-opacity: 1; stroke-width: 1px;"/><path class="xtick ticks crisp" d="M0,450v-5" transform="translate(217.43,0)" style="stroke: rgb(68, 68, 68); stroke-opacity: 1; stroke-width: 1px;"/><path class="xtick ticks crisp" d="M0,450v-5" transform="translate(322.52,0)" style="stroke: rgb(68, 68, 68); stroke-opacity: 1; stroke-width: 1px;"/><path class="xtick ticks crisp" d="M0,450v-5" transform="translate(431.17,0)" style="stroke: rgb(68, 68, 68); stroke-opacity: 1; stroke-width: 1px;"/><path class="xtick ticks crisp" d="M0,450v-5" transform="translate(539.8199999999999,0)" style="stroke: rgb(68, 68, 68); stroke-opacity: 1; stroke-width: 1px;"/><path class="xtick ticks crisp" d="M0,450v-5" transform="translate(650.25,0)" style="stroke: rgb(68, 68, 68); stroke-opacity: 1; stroke-width: 1px;"/><g class="xtick"><text text-anchor="middle" x="0" y="469" transform="translate(108.78,0)" style="font-family: 'Open Sans', verdana, arial, sans-serif; font-size: 18px; fill: rgb(42, 63, 95); fill-opacity: 1; white-space: pre;">01/11</text></g><g class="xtick"><text text-anchor="middle" x="0" y="469" transform="translate(217.43,0)" style="font-family: 'Open Sans', verdana, arial, sans-serif; font-size: 18px; fill: rgb(42, 63, 95); fill-opacity: 1; white-space: pre;">01/01</text></g><g class="xtick"><text text-anchor="middle" x="0" y="469" transform="translate(322.52,0)" style="font-family: 'Open Sans', verdana, arial, sans-serif; font-size: 18px; fill: rgb(42, 63, 95); fill-opacity: 1; white-space: pre;">01/03</text></g><g class="xtick"><text text-anchor="middle" x="0" y="469" transform="translate(431.17,0)" style="font-family: 'Open Sans', verdana, arial, sans-serif; font-size: 18px; fill: rgb(42, 63, 95); fill-opacity: 1; white-space: pre;">01/05</text></g><g class="xtick"><text text-anchor="middle" x="0" y="469" transform="translate(539.8199999999999,0)" style="font-family: 'Open Sans', verdana, arial, sans-serif; font-size: 18px; fill: rgb(42, 63, 95); fill-opacity: 1; white-space: pre;">01/07</text></g><g class="xtick"><text text-anchor="middle" x="0" y="469" transform="translate(650.25,0)" style="font-family: 'Open Sans', verdana, arial, sans-serif; font-size: 18px; fill: rgb(42, 63, 95); fill-opacity: 1; white-space: pre;">01/09</text></g></g><g class="yaxislayer-above"/><g class="overaxes-above"/></g></g><g class="polarlayer"/><g class="ternarylayer"/><g class="geolayer"/><g class="funnelarealayer"/><g class="pielayer"/><g class="treemaplayer"/><g class="sunburstlayer"/><g class="glimages"/><defs id="topdefs-c8f595"><g class="clips"/></defs><g class="layer-above"><g class="imagelayer"/><g class="shapelayer"><path data-index="0" fill-rule="evenodd" d="M-951.02,424.7L351.02,424.7" clip-path="url('#clipc8f595xy')" style="opacity: 1; stroke: rgb(255, 0, 0); stroke-opacity: 1; fill: rgb(0, 0, 0); fill-opacity: 0; stroke-dasharray: 3px, 3px; stroke-width: 1.5px;"/></g></g><g class="infolayer"><g class="g-gtitle"><text class="gtitle" x="375" y="25" text-anchor="middle" dy="0.7em" style="font-family: 'Open Sans', verdana, arial, sans-serif; font-size: 50px; fill: rgb(42, 63, 95); opacity: 1; font-weight: normal; white-space: pre;"><tspan style="font-weight:bold">Ardèche (07)</tspan></text></g><g class="g-xtitle"/><g class="annotation" data-index="0" style="opacity: 1;"><g class="annotation-text-g" transform="rotate(0,695.53,362.76)"><g class="cursor-pointer" transform="translate(652, 327)"><rect class="bg" x="0.5" y="0.5" width="86" height="71" style="stroke-width: 1px; stroke: rgb(0, 0, 0); stroke-opacity: 0; fill: rgb(255, 255, 255); fill-opacity: 0.6;"/><text class="annotation-text" text-anchor="middle" x="43.53125" y="55.5" style="font-family: 'Open Sans', verdana, arial, sans-serif; font-size: 50px; fill: rgb(8, 115, 191); fill-opacity: 1; white-space: pre;"> <tspan style="font-weight:bold">53 </tspan></text></g></g><g class="annotation-arrow-g" style="opacity: 1;"><path d="M723.93,398.26L735.53,412.76" style="stroke-width: 1px; stroke: rgb(8, 115, 191); stroke-opacity: 1; stroke-dasharray: 0px, 0px, 18.5691px, 18.5691px;"/></g></g></g></svg>