<svg class="main-svg" xmlns="http://www.w3.org/2000/svg" xmlns:xlink="http://www.w3.org/1999/xlink" width="1125" height="750" style="" viewBox="0 0 750 500"><rect x="0" y="0" width="750" height="500" style="fill: rgb(0, 0, 0); fill-opacity: 0;"/><defs id="defs-c92db4"><g class="clips"><clipPath id="clipc92db4xyplot" class="plotclip"><rect width="700" height="380"/></clipPath><clipPath class="axesclip" id="clipc92db4x"><rect x="50" y="0" width="700" height="500"/></clipPath><clipPath class="axesclip" id="clipc92db4y"><rect x="0" y="70" width="750" height="380"/></clipPath><clipPath class="axesclip" id="clipc92db4xy"><rect x="50" y="70" width="700" height="380"/></clipPath></g><g class="gradients"/></defs><g class="bglayer"><rect class="bg" x="50" y="70" width="700" height="380" style="fill: rgb(0, 0, 0); fill-opacity: 0; stroke-width: 0;"/></g><g class="layer-below"><g class="imagelayer"/><g class="shapelayer"/></g><g class="cartesianlayer"><g class="subplot xy"><g class="layer-subplot"><g class="shapelayer"/><g class="imagelayer"/></g><g class="gridlayer"><g class="x"><path class="xgrid crisp" transform="translate(52.26,0)" d="M0,70v380" style="stroke: rgb(255, 255, 255); stroke-opacity: 1; stroke-width: 1px;"/><path class="xgrid crisp" transform="translate(156.3,0)" d="M0,70v380" style="stroke: rgb(255, 255, 255); stroke-opacity: 1; stroke-width: 1px;"/><path class="xgrid crisp" transform="translate(258.08000000000004,0)" d="M0,70v380" style="stroke: rgb(255, 255, 255); stroke-opacity: 1; stroke-width: 1px;"/><path class="xgrid crisp" transform="translate(360.99,0)" d="M0,70v380" style="stroke: rgb(255, 255, 255); stroke-opacity: 1; stroke-width: 1px;"/><path class="xgrid crisp" transform="translate(465.02,0)" d="M0,70v380" style="stroke: rgb(255, 255, 255); stroke-opacity: 1; stroke-width: 1px;"/><path class="xgrid crisp" transform="translate(569.06,0)" d="M0,70v380" style="stroke: rgb(255, 255, 255); stroke-opacity: 1; stroke-width: 1px;"/><path class="xgrid crisp" transform="translate(670.84,0)" d="M0,70v380" style="stroke: rgb(255, 255, 255); stroke-opacity: 1; stroke-width: 1px;"/></g><g class="y"/></g><g class="zerolinelayer"/><path class="xlines-below"/><path class="ylines-below"/><g class="overlines-below"/><g class="xaxislayer-below"/><g class="yaxislayer-below"/><g class="overaxes-below"/><g class="plot" transform="translate(50, 70)" clip-path="url('#clipc92db4xyplot')"><g class="scatterlayer mlayer"><g class="trace scatter trace08cbee" style="stroke-miterlimit: 2;"><g class="fills"><g><path class="js-fill" d="M680.78,380L-153.8,380L-153.8,378.79L-143.62,379.03L-142.49,379.01L-105.17,379.5L-104.04,379.55L-64.46,378.85L-63.33,379.1L-24.88,376.44L-23.75,376.1L-12.44,376.68L-11.31,376.84L-5.65,377.09L-4.52,376.98L2.26,376.89L3.39,376.29L10.18,373.18L11.31,371.58L16.96,367.99L18.09,368.03L19.22,366.99L20.36,364.83L21.49,364.13L22.62,361.61L24.88,357.46L26.01,357.28L29.4,347.44L30.53,345.25L32.79,340.79L33.93,340.68L36.19,334.85L37.32,334.4L39.58,334.04L40.71,335.07L41.84,335.06L42.97,339.21L44.1,341.84L45.23,348.55L46.37,349.32L47.5,352.64L49.76,353.75L50.89,356.83L52.02,358.6L53.15,355.49L54.28,358.86L55.41,359.77L57.67,360.39L58.8,362.38L64.46,365.77L65.59,365.52L73.51,365.8L74.64,364.5L81.42,363.01L82.55,363.06L88.21,360.32L89.34,360.33L92.73,357.61L93.86,358.2L96.12,362.44L97.25,362.28L98.38,361.39L99.52,361.51L102.91,360.26L104.04,357.88L107.43,357.69L108.56,358.89L109.69,359.03L110.82,355.53L111.95,356.88L113.09,356.94L115.35,360.53L116.48,360.91L119.87,363.21L121,363.03L123.26,360.9L124.39,360.23L126.66,358.66L127.79,358.42L128.92,358.6L130.05,359.57L131.18,359.7L132.31,360.6L134.57,361.08L135.7,361.26L140.23,361.68L141.36,362.6L144.75,362.92L145.88,363.85L154.93,368.4L156.06,368.16L158.32,368.87L159.45,369.19L160.58,369.23L161.71,370.03L165.11,371.1L166.24,370.4L173.02,369.49L174.15,369.5L177.54,368.65L178.68,368.25L184.33,367.59L185.46,367.07L187.72,366.18L188.85,365.47L191.11,364.69L192.25,364.65L193.38,365.25L194.51,364.68L200.16,361.84L201.29,359.35L204.68,357.83L205.82,360.45L208.08,359.46L209.21,364.33L211.47,361.45L212.6,360.87L213.73,357.2L214.86,357.9L215.99,357.98L217.12,353.7L220.52,357.7L221.65,358.36L234.09,361.15L235.22,361.9L239.74,365.35L240.87,365.68L245.4,366.14L246.53,365.87L247.66,365.93L248.79,366.91L249.92,367.86L251.05,367.79L252.18,369.74L253.31,369.48L255.57,368.53L256.7,368.98L258.97,368.74L260.1,367.29L263.49,367.96L264.62,370.11L266.88,369.82L268.01,369.83L270.27,370.5L271.41,370.58L272.54,368.74L273.67,369.99L278.19,371.69L279.32,371.64L283.84,374.38L284.98,375.17L295.15,377.46L296.28,378.05L300.81,378.47L301.94,378.49L318.9,377.95L320.03,377.52L326.82,375.65L327.95,374.35L333.6,367.84L334.73,367.7L337,365.59L338.13,365.47L341.52,364.92L342.65,364.88L347.17,364.63L348.3,364.21L350.57,363.72L351.7,362.48L357.35,357.99L358.48,357.92L363,356.84L364.14,357.48L368.66,356.79L369.79,356.99L379.97,361.26L381.1,361.16L383.36,362.05L384.49,363.38L386.75,364.71L387.88,365.3L395.8,369.75L396.93,369.83L398.06,369.99L399.19,371.2L404.85,374.05L405.98,374.03L415.02,375.82L416.16,376.05L422.94,375.82L424.07,375.81L427.46,375.59L428.59,375.67L434.25,375.21L435.38,374.85L445.56,373.45L446.69,374.47L450.08,370.2L451.21,368.94L453.47,368.26L454.6,365.23L455.74,365.63L456.87,364.75L458,366.39L459.13,363.9L461.39,362.77L462.52,360.57L464.78,357.32L465.91,353.41L467.04,353.21L468.17,351.88L469.31,351.73L470.44,348.73L474.96,340.26L476.09,339.17L477.22,338.61L478.35,333.75L482.88,319.49L484.01,317.6L485.14,317.47L486.27,313.85L489.66,309.04L490.79,309.13L493.05,308.75L494.18,309.36L496.45,309.99L497.58,312.49L500.97,313.36L502.1,315.33L503.23,316.93L504.36,316.16L505.49,313.9L506.62,313.43L507.75,317.96L508.89,316.01L514.54,248.87L515.67,248.28L516.8,243.68L517.93,213.91L520.19,183.18L521.32,176.97L522.46,166.34L523.59,148.69L524.72,150.9L525.85,151.04L526.98,155.19L528.11,151.66L529.24,146.12L530.37,132.6L531.5,122.99L532.63,120.35L537.16,42.95L538.29,30.65L539.42,20.15L540.55,17.24L541.68,4.03L542.81,1.29L543.94,0L545.07,5.52L547.33,14.33L548.47,16.65L555.25,94.89L556.38,98.51L559.77,183.68L560.9,202.85L563.17,231.13L564.3,232.66L566.56,260.66L567.69,268.45L569.95,282.91L571.08,286.02L572.21,286.56L573.34,293.93L575.61,302.48L576.74,304.99L579,311.32L580.13,313.05L582.39,317.39L583.52,317.72L586.91,317.21L588.05,316.89L593.7,296.44L594.83,293.38L595.96,292.62L597.09,282.51L602.75,253.94L603.88,252.88L607.27,226.74L608.4,221.29L610.66,215.35L611.79,214.84L614.05,210.86L615.19,212.72L617.45,218.17L618.58,221.72L619.71,222.88L620.84,229.44L623.1,238.2L624.23,241.15L627.63,243.63L628.76,251.15L632.15,265.34L633.28,282.32L634.41,279.33L635.54,279.02L636.67,304.42L637.8,296.37L640.06,304.38L641.2,296.74L642.33,305.8L643.46,306.49L644.59,294.74L645.72,310.62L649.11,324.7L650.24,327.47L651.37,328.26L652.5,332.69L655.9,338.52L657.03,339.43L659.29,340.46L660.42,342.3L667.21,349.55L668.34,352.21L673.99,360.04L675.12,360.43L679.64,368.25L680.78,367.79" style="fill: rgb(8, 115, 191); fill-opacity: 0.2; stroke-width: 0;"/></g></g><g class="errorbars"/><g class="lines"><path class="js-line" d="M-153.8,378.79L-143.62,379.03L-142.49,379.01L-105.17,379.5L-104.04,379.55L-64.46,378.85L-63.33,379.1L-24.88,376.44L-23.75,376.1L-12.44,376.68L-11.31,376.84L-5.65,377.09L-4.52,376.98L2.26,376.89L3.39,376.29L10.18,373.18L11.31,371.58L16.96,367.99L18.09,368.03L19.22,366.99L20.36,364.83L21.49,364.13L22.62,361.61L24.88,357.46L26.01,357.28L29.4,347.44L30.53,345.25L32.79,340.79L33.93,340.68L36.19,334.85L37.32,334.4L39.58,334.04L40.71,335.07L41.84,335.06L42.97,339.21L44.1,341.84L45.23,348.55L46.37,349.32L47.5,352.64L49.76,353.75L50.89,356.83L52.02,358.6L53.15,355.49L54.28,358.86L55.41,359.77L57.67,360.39L58.8,362.38L64.46,365.77L65.59,365.52L73.51,365.8L74.64,364.5L81.42,363.01L82.55,363.06L88.21,360.32L89.34,360.33L92.73,357.61L93.86,358.2L96.12,362.44L97.25,362.28L98.38,361.39L99.52,361.51L102.91,360.26L104.04,357.88L107.43,357.69L108.56,358.89L109.69,359.03L110.82,355.53L111.95,356.88L113.09,356.94L115.35,360.53L116.48,360.91L119.87,363.21L121,363.03L123.26,360.9L124.39,360.23L126.66,358.66L127.79,358.42L128.92,358.6L130.05,359.57L131.18,359.7L132.31,360.6L134.57,361.08L135.7,361.26L140.23,361.68L141.36,362.6L144.75,362.92L145.88,363.85L154.93,368.4L156.06,368.16L158.32,368.87L159.45,369.19L160.58,369.23L161.71,370.03L165.11,371.1L166.24,370.4L173.02,369.49L174.15,369.5L177.54,368.65L178.68,368.25L184.33,367.59L185.46,367.07L187.72,366.18L188.85,365.47L191.11,364.69L192.25,364.65L193.38,365.25L194.51,364.68L200.16,361.84L201.29,359.35L204.68,357.83L205.82,360.45L208.08,359.46L209.21,364.33L211.47,361.45L212.6,360.87L213.73,357.2L214.86,357.9L215.99,357.98L217.12,353.7L220.52,357.7L221.65,358.36L234.09,361.15L235.22,361.9L239.74,365.35L240.87,365.68L245.4,366.14L246.53,365.87L247.66,365.93L248.79,366.91L249.92,367.86L251.05,367.79L252.18,369.74L253.31,369.48L255.57,368.53L256.7,368.98L258.97,368.74L260.1,367.29L263.49,367.96L264.62,370.11L266.88,369.82L268.01,369.83L270.27,370.5L271.41,370.58L272.54,368.74L273.67,369.99L278.19,371.69L279.32,371.64L283.84,374.38L284.98,375.17L295.15,377.46L296.28,378.05L300.81,378.47L301.94,378.49L318.9,377.95L320.03,377.52L326.82,375.65L327.95,374.35L333.6,367.84L334.73,367.7L337,365.59L338.13,365.47L341.52,364.92L342.65,364.88L347.17,364.63L348.3,364.21L350.57,363.72L351.7,362.48L357.35,357.99L358.48,357.92L363,356.84L364.14,357.48L368.66,356.79L369.79,356.99L379.97,361.26L381.1,361.16L383.36,362.05L384.49,363.38L386.75,364.71L387.88,365.3L395.8,369.75L396.93,369.83L398.06,369.99L399.19,371.2L404.85,374.05L405.98,374.03L415.02,375.82L416.16,376.05L422.94,375.82L424.07,375.81L427.46,375.59L428.59,375.67L434.25,375.21L435.38,374.85L445.56,373.45L446.69,374.47L450.08,370.2L451.21,368.94L453.47,368.26L454.6,365.23L455.74,365.63L456.87,364.75L458,366.39L459.13,363.9L461.39,362.77L462.52,360.57L464.78,357.32L465.91,353.41L467.04,353.21L468.17,351.88L469.31,351.73L470.44,348.73L474.96,340.26L476.09,339.17L477.22,338.61L478.35,333.75L482.88,319.49L484.01,317.6L485.14,317.47L486.27,313.85L489.66,309.04L490.79,309.13L493.05,308.75L494.18,309.36L496.45,309.99L497.58,312.49L500.97,313.36L502.1,315.33L503.23,316.93L504.36,316.16L505.49,313.9L506.62,313.43L507.75,317.96L508.89,316.01L514.54,248.87L515.67,248.28L516.8,243.68L517.93,213.91L520.19,183.18L521.32,176.97L522.46,166.34L523.59,148.69L524.72,150.9L525.85,151.04L526.98,155.19L528.11,151.66L529.24,146.12L530.37,132.6L531.5,122.99L532.63,120.35L537.16,42.95L538.29,30.65L539.42,20.15L540.55,17.24L541.68,4.03L542.81,1.29L543.94,0L545.07,5.52L547.33,14.33L548.47,16.65L555.25,94.89L556.38,98.51L559.77,183.68L560.9,202.85L563.17,231.13L564.3,232.66L566.56,260.66L567.69,268.45L569.95,282.91L571.08,286.02L572.21,286.56L573.34,293.93L575.61,302.48L576.74,304.99L579,311.32L580.13,313.05L582.39,317.39L583.52,317.72L586.91,317.21L588.05,316.89L593.7,296.44L594.83,293.38L595.96,292.62L597.09,282.51L602.75,253.94L603.88,252.88L607.27,226.74L608.4,221.29L610.66,215.35L611.79,214.84L614.05,210.86L615.19,212.72L617.45,218.17L618.58,221.72L619.71,222.88L620.84,229.44L623.1,238.2L624.23,241.15L627.63,243.63L628.76,251.15L632.15,265.34L633.28,282.32L634.41,279.33L635.54,279.02L636.67,304.42L637.8,296.37L640.06,304.38L641.2,296.74L642.33,305.8L643.46,306.49L644.59,294.74L645.72,310.62L649.11,324.7L650.24,327.47L651.37,328.26L652.5,332.69L655.9,338.52L657.03,339.43L659.29,340.46L660.42,342.3L667.21,349.55L668.34,352.21L673.99,360.04L675.12,360.43L679.64,368.25L680.78,367.79" style="vector-effect: non-scaling-stroke; fill: none; stroke: rgb(8, 115, 191); stroke-opacity: 1; stroke-width: 0.5px; opacity: 1;"/></g><g class="points"/><g class="text"/></g><g class="trace scatter trace550aa2" style="stroke-miterlimit: 2;"><g class="fills"><g><path class="js-fill" d="M692.08,380L680.78,380L680.78,367.79L684.17,366.84L685.3,366.16L686.43,365.16L687.56,362.17L690.95,361.31L692.08,364.29" style="fill: rgb(8, 115, 191); fill-opacity: 0.4; stroke-width: 0;"/></g></g><g class="errorbars"/><g class="lines"><path class="js-line" d="M680.78,367.79L684.17,366.84L685.3,366.16L686.43,365.16L687.56,362.17L690.95,361.31L692.08,364.29" style="vector-effect: non-scaling-stroke; fill: none; stroke: rgb(8, 115, 191); stroke-opacity: 1; stroke-width: 2px; opacity: 1;"/></g><g class="points"/><g class="text"/></g><g class="trace scatter trace0a9dc7" style="stroke-miterlimit: 2; opacity: 1;"><g class="fills"/><g class="errorbars"/><g class="lines"/><g class="points"><path class="point" transform="translate(692.08,364.29)" d="M15,0A15,15 0 1,1 0,-15A15,15 0 0,1 15,0Z" style="opacity: 1; stroke-width: 0px; fill: rgb(8, 115, 191); fill-opacity: 1;"/></g><g class="text"/></g></g></g><g class="overplot"/><path class="xlines-above crisp" style="fill: none; stroke-width: 1px; stroke: rgb(0, 0, 0); stroke-opacity: 0;" d=""/><path class="ylines-above crisp" style="fill: none;" d="M0,0"/><g class="overlines-above"/><g class="xaxislayer-above"><path class="xtick ticks crisp" d="M0,450v-5" transform="translate(52.26,0)" style="stroke: rgb(68, 68, 68); stroke-opacity: 1; stroke-width: 1px;"/><path class="xtick ticks crisp" d="M0,450v-5" transform="translate(156.3,0)" style="stroke: rgb(68, 68, 68); stroke-opacity: 1; stroke-width: 1px;"/><path class="xtick ticks crisp" d="M0,450v-5" transform="translate(258.08000000000004,0)" style="stroke: rgb(68, 68, 68); stroke-opacity: 1; stroke-width: 1px;"/><path class="xtick ticks crisp" d="M0,450v-5" transform="translate(360.99,0)" style="stroke: rgb(68, 68, 68); stroke-opacity: 1; stroke-width: 1px;"/><path class="xtick ticks crisp" d="M0,450v-5" transform="translate(465.02,0)" style="stroke: rgb(68, 68, 68); stroke-opacity: 1; stroke-width: 1px;"/><path class="xtick ticks crisp" d="M0,450v-5" transform="translate(569.06,0)" style="stroke: rgb(68, 68, 68); stroke-opacity: 1; stroke-width: 1px;"/><path class="xtick ticks crisp" d="M0,450v-5" transform="translate(670.84,0)" style="stroke: rgb(68, 68, 68); stroke-opacity: 1; stroke-width: 1px;"/><g class="xtick"><text text-anchor="middle" x="0" y="469" transform="translate(52.26,0)" style="font-family: 'Open Sans', verdana, arial, sans-serif; font-size: 18px; fill: rgb(42, 63, 95); fill-opacity: 1; white-space: pre;">01/10</text></g><g class="xtick"><text text-anchor="middle" x="0" y="469" transform="translate(156.3,0)" style="font-family: 'Open Sans', verdana, arial, sans-serif; font-size: 18px; fill: rgb(42, 63, 95); fill-opacity: 1; white-space: pre;">01/01</text></g><g class="xtick"><text text-anchor="middle" x="0" y="469" transform="translate(258.08000000000004,0)" style="font-family: 'Open Sans', verdana, arial, sans-serif; font-size: 18px; fill: rgb(42, 63, 95); fill-opacity: 1; white-space: pre;">01/04</text></g><g class="xtick"><text text-anchor="middle" x="0" y="469" transform="translate(360.99,0)" style="font-family: 'Open Sans', verdana, arial, sans-serif; font-size: 18px; fill: rgb(42, 63, 95); fill-opacity: 1; white-space: pre;">01/07</text></g><g class="xtick"><text text-anchor="middle" x="0" y="469" transform="translate(465.02,0)" style="font-family: 'Open Sans', verdana, arial, sans-serif; font-size: 18px; fill: rgb(42, 63, 95); fill-opacity: 1; white-space: pre;">01/10</text></g><g class="xtick"><text text-anchor="middle" x="0" y="469" transform="translate(569.06,0)" style="font-family: 'Open Sans', verdana, arial, sans-serif; font-size: 18px; fill: rgb(42, 63, 95); fill-opacity: 1; white-space: pre;">01/01</text></g><g class="xtick"><text text-anchor="middle" x="0" y="469" transform="translate(670.84,0)" style="font-family: 'Open Sans', verdana, arial, sans-serif; font-size: 18px; fill: rgb(42, 63, 95); fill-opacity: 1; white-space: pre;">01/04</text></g></g><g class="yaxislayer-above"/><g class="overaxes-above"/></g></g><g class="polarlayer"/><g class="ternarylayer"/><g class="geolayer"/><g class="funnelarealayer"/><g class="pielayer"/><g class="treemaplayer"/><g class="sunburstlayer"/><g class="glimages"/><defs id="topdefs-c92db4"><g class="clips"/></defs><g class="layer-above"><g class="imagelayer"/><g class="shapelayer"><path data-index="0" fill-rule="evenodd" d="M-585.54,444.97L241.11,444.97" clip-path="url('#clipc92db4xy')" style="opacity: 1; stroke: rgb(255, 0, 0); stroke-opacity: 1; fill: rgb(0, 0, 0); fill-opacity: 0; stroke-dasharray: 3px, 3px; stroke-width: 1.5px;"/></g></g><g class="infolayer"><g class="g-gtitle"><text class="gtitle" x="375" y="25" text-anchor="middle" dy="0.7em" style="font-family: 'Open Sans', verdana, arial, sans-serif; font-size: 50px; fill: rgb(42, 63, 95); opacity: 1; font-weight: normal; white-space: pre;"><tspan style="font-weight:bold">Haut-Rhin (68)</tspan></text></g><g class="g-xtitle"/><g class="annotation" data-index="0" style="opacity: 1;"><g class="annotation-text-g" transform="rotate(0,700.08,374.29)"><g class="cursor-pointer" transform="translate(642, 338)"><rect class="bg" x="0.5" y="0.5" width="115" height="71" style="stroke-width: 1px; stroke: rgb(0, 0, 0); stroke-opacity: 0; fill: rgb(255, 255, 255); fill-opacity: 0.6;"/><text class="annotation-text" text-anchor="middle" x="57.8125" y="55.5" style="font-family: 'Open Sans', verdana, arial, sans-serif; font-size: 50px; fill: rgb(8, 115, 191); fill-opacity: 1; white-space: pre;"> <tspan style="font-weight:bold">156 </tspan></text></g></g><g class="annotation-arrow-g" style="opacity: 1;"><path d="M728.48,409.79L740.08,424.29" style="stroke-width: 1px; stroke: rgb(8, 115, 191); stroke-opacity: 1; stroke-dasharray: 0px, 0px, 18.5691px, 18.5691px;"/></g></g></g></svg>