<svg class="main-svg" xmlns="http://www.w3.org/2000/svg" xmlns:xlink="http://www.w3.org/1999/xlink" width="1125" height="750" style="" viewBox="0 0 750 500"><rect x="0" y="0" width="750" height="500" style="fill: rgb(0, 0, 0); fill-opacity: 0;"/><defs id="defs-b81bb5"><g class="clips"><clipPath id="clipb81bb5xyplot" class="plotclip"><rect width="681" height="380"/></clipPath><clipPath class="axesclip" id="clipb81bb5x"><rect x="50" y="0" width="681" height="500"/></clipPath><clipPath class="axesclip" id="clipb81bb5y"><rect x="0" y="70" width="750" height="380"/></clipPath><clipPath class="axesclip" id="clipb81bb5xy"><rect x="50" y="70" width="681" height="380"/></clipPath></g><g class="gradients"/></defs><g class="bglayer"><rect class="bg" x="50" y="70" width="681" height="380" style="fill: rgb(0, 0, 0); fill-opacity: 0; stroke-width: 0;"/></g><g class="layer-below"><g class="imagelayer"/><g class="shapelayer"/></g><g class="cartesianlayer"><g class="subplot xy"><g class="layer-subplot"><g class="shapelayer"/><g class="imagelayer"/></g><g class="gridlayer"><g class="x"><path class="xgrid crisp" transform="translate(88.55,0)" d="M0,70v380" style="stroke: rgb(255, 255, 255); stroke-opacity: 1; stroke-width: 1px;"/><path class="xgrid crisp" transform="translate(159.8,0)" d="M0,70v380" style="stroke: rgb(255, 255, 255); stroke-opacity: 1; stroke-width: 1px;"/><path class="xgrid crisp" transform="translate(228.72,0)" d="M0,70v380" style="stroke: rgb(255, 255, 255); stroke-opacity: 1; stroke-width: 1px;"/><path class="xgrid crisp" transform="translate(299.97,0)" d="M0,70v380" style="stroke: rgb(255, 255, 255); stroke-opacity: 1; stroke-width: 1px;"/><path class="xgrid crisp" transform="translate(371.23,0)" d="M0,70v380" style="stroke: rgb(255, 255, 255); stroke-opacity: 1; stroke-width: 1px;"/><path class="xgrid crisp" transform="translate(443.65,0)" d="M0,70v380" style="stroke: rgb(255, 255, 255); stroke-opacity: 1; stroke-width: 1px;"/><path class="xgrid crisp" transform="translate(514.9,0)" d="M0,70v380" style="stroke: rgb(255, 255, 255); stroke-opacity: 1; stroke-width: 1px;"/><path class="xgrid crisp" transform="translate(586.16,0)" d="M0,70v380" style="stroke: rgb(255, 255, 255); stroke-opacity: 1; stroke-width: 1px;"/><path class="xgrid crisp" transform="translate(655.07,0)" d="M0,70v380" style="stroke: rgb(255, 255, 255); stroke-opacity: 1; stroke-width: 1px;"/><path class="xgrid crisp" transform="translate(726.33,0)" d="M0,70v380" style="stroke: rgb(255, 255, 255); stroke-opacity: 1; stroke-width: 1px;"/></g><g class="y"/></g><g class="zerolinelayer"/><path class="xlines-below"/><path class="ylines-below"/><g class="overlines-below"/><g class="xaxislayer-below"/><g class="yaxislayer-below"/><g class="overaxes-below"/><g class="plot" transform="translate(50, 70)" clip-path="url('#clipb81bb5xyplot')"><g class="scatterlayer mlayer"><g class="trace scatter tracecb4b08" style="stroke-miterlimit: 2;"><g class="fills"><g><path class="js-fill" d="M661.14,380L-158.86,380L-158.86,380L-61.91,378.61L-60.74,377.86L-52.56,374.05L-51.4,373.06L-46.72,372.64L-45.56,370.99L-40.88,366.04L-39.72,365.77L-38.55,365.59L-37.38,363.88L-30.37,360.64L-29.2,361.26L-26.87,360.26L-25.7,359.19L-24.53,359.65L-23.36,358.99L-19.86,357.4L-18.69,356.19L-16.35,354.82L-15.19,355.33L-11.68,353.79L-10.51,355.15L-8.18,356.04L-7.01,355.97L-5.84,356.41L-4.67,358.17L-3.5,360.09L-2.34,360.37L1.17,362.31L2.34,362.2L5.84,366.54L7.01,366.87L10.51,366.92L11.68,367.73L18.69,371.3L19.86,371.85L23.36,373.83L24.53,373.96L31.54,373.94L32.71,373.37L35.04,373.55L36.21,374.69L38.55,374.76L39.72,375.11L42.05,375.77L43.22,375.75L44.39,375.31L45.56,375.9L49.06,377L50.23,376.98L68.92,378.41L70.09,378.37L88.78,378.59L89.94,378.52L96.95,378.22L98.12,378.41L102.79,378.24L103.96,378.15L109.8,377.78L110.97,377.69L144.84,377.27L146.01,377.05L157.69,376.04L158.86,375.84L161.2,376.78L162.37,376.34L167.04,374.27L168.21,373.22L170.54,372.4L171.71,372.11L176.38,371.17L177.55,370.9L182.22,371.89L183.39,372.75L188.06,374.16L189.23,374.07L192.74,373.81L193.9,373.37L196.24,372.33L197.41,372.27L210.26,371.39L211.43,370.95L212.59,371.98L213.76,371.43L214.93,371.21L216.1,371.92L218.43,370.73L219.6,369.16L220.77,367L221.94,366.87L223.11,366.56L224.27,363.79L226.61,362.27L227.78,362.53L237.12,361.52L238.29,362.11L240.63,362.18L241.8,362.22L245.3,362.8L246.47,363.39L249.97,364.43L251.14,365.75L253.48,366.76L254.64,366.85L256.98,367.44L258.15,368.08L259.32,368.37L260.49,370L261.65,370.55L262.82,370.2L263.99,370.18L265.16,370.99L267.49,372.22L268.66,371.48L272.17,372L273.33,374.01L275.67,373.83L276.84,374.67L279.17,374.52L280.34,374.47L281.51,373.55L282.68,374.34L293.19,376.61L294.36,376.52L306.04,377.6L307.21,377.03L314.22,376.56L315.39,376.87L321.23,376.76L322.39,376.39L329.4,375.62L330.57,375.73L331.74,375.02L332.91,375.48L336.41,372.91L337.58,372.78L342.25,361.74L343.42,358.44L345.76,355.35L346.92,348.96L349.26,335.33L350.43,324.49L352.77,309.3L353.93,305.04L359.77,224.93L360.94,216.32L362.11,213.83L363.28,201.81L365.61,185.48L366.78,185.81L367.95,190.18L369.12,189.87L370.29,192.2L371.45,192.42L374.96,212.86L376.13,212.82L378.46,220.95L379.63,235.13L385.47,289.3L386.64,290.29L388.98,310.75L390.14,317.05L393.65,335.31L394.82,336.39L397.15,349.34L398.32,353.46L400.66,356.96L401.83,357.67L402.99,358.24L404.16,359.93L410,365.55L411.17,365.64L418.18,370.04L419.35,370.2L421.68,371.21L422.85,371.89L426.36,373.37L427.52,373.55L435.7,374.27L436.87,375.13L446.21,375.99L447.38,375.75L457.89,375.81L459.06,375.57L464.9,376.17L466.07,375.79L468.41,375.97L469.57,374.98L471.91,374.8L473.08,375.29L475.42,374.85L476.58,374.89L484.76,376.37L485.93,376.28L489.43,376.28L490.6,376.37L497.61,376.98L498.78,376.89L502.28,376.85L503.45,376.17L515.13,374.87L516.3,374.63L518.63,373.99L519.8,373.35L523.31,365.73L524.48,365.68L525.64,364.01L526.81,352.2L531.48,298.24L532.65,295.18L533.82,289.56L534.99,250.44L540.83,83.83L542,74.76L544.33,26.59L545.5,10.09L547.84,0.37L549.01,1.48L550.17,0L551.34,4.27L554.85,47.36L556.01,65.15L558.35,81.48L559.52,107.03L563.02,160.04L564.19,172.05L570.03,234.49L571.2,243.11L573.54,257.69L574.7,258.59L577.04,270.02L578.21,274.49L580.54,284.74L581.71,287.53L582.88,290.4L584.05,300.84L587.55,318.57L588.72,322.82L593.39,335.62L594.56,337.11L600.4,343.57L601.57,345.88L602.74,349.05L603.91,346.01L605.07,342.75L606.24,336.74L607.41,333.22L608.58,319.98L612.08,293.22L613.25,290.24L616.75,291.26L617.92,294.01L619.09,295.33L620.26,299.3L623.76,299.49L624.93,300.18L627.27,300.9L628.44,303.96L630.77,300.57L631.94,301.48L633.11,302.38L634.28,301.28L635.44,303.46L636.61,301.3L638.95,310.84L640.12,311.54L641.28,316.32L642.45,317.31L645.96,317.38L647.13,319.45L649.46,320.64L650.63,322.84L652.97,324.96L654.13,329.56L655.3,326.67L656.47,327.05L657.64,336.48L658.81,332.27L659.97,332.14L661.14,330.86" style="fill: rgb(8, 115, 191); fill-opacity: 0.2; stroke-width: 0;"/></g></g><g class="errorbars"/><g class="lines"><path class="js-line" d="M-158.86,380L-61.91,378.61L-60.74,377.86L-52.56,374.05L-51.4,373.06L-46.72,372.64L-45.56,370.99L-40.88,366.04L-39.72,365.77L-38.55,365.59L-37.38,363.88L-30.37,360.64L-29.2,361.26L-26.87,360.26L-25.7,359.19L-24.53,359.65L-23.36,358.99L-19.86,357.4L-18.69,356.19L-16.35,354.82L-15.19,355.33L-11.68,353.79L-10.51,355.15L-8.18,356.04L-7.01,355.97L-5.84,356.41L-4.67,358.17L-3.5,360.09L-2.34,360.37L1.17,362.31L2.34,362.2L5.84,366.54L7.01,366.87L10.51,366.92L11.68,367.73L18.69,371.3L19.86,371.85L23.36,373.83L24.53,373.96L31.54,373.94L32.71,373.37L35.04,373.55L36.21,374.69L38.55,374.76L39.72,375.11L42.05,375.77L43.22,375.75L44.39,375.31L45.56,375.9L49.06,377L50.23,376.98L68.92,378.41L70.09,378.37L88.78,378.59L89.94,378.52L96.95,378.22L98.12,378.41L102.79,378.24L103.96,378.15L109.8,377.78L110.97,377.69L144.84,377.27L146.01,377.05L157.69,376.04L158.86,375.84L161.2,376.78L162.37,376.34L167.04,374.27L168.21,373.22L170.54,372.4L171.71,372.11L176.38,371.17L177.55,370.9L182.22,371.89L183.39,372.75L188.06,374.16L189.23,374.07L192.74,373.81L193.9,373.37L196.24,372.33L197.41,372.27L210.26,371.39L211.43,370.95L212.59,371.98L213.76,371.43L214.93,371.21L216.1,371.92L218.43,370.73L219.6,369.16L220.77,367L221.94,366.87L223.11,366.56L224.27,363.79L226.61,362.27L227.78,362.53L237.12,361.52L238.29,362.11L240.63,362.18L241.8,362.22L245.3,362.8L246.47,363.39L249.97,364.43L251.14,365.75L253.48,366.76L254.64,366.85L256.98,367.44L258.15,368.08L259.32,368.37L260.49,370L261.65,370.55L262.82,370.2L263.99,370.18L265.16,370.99L267.49,372.22L268.66,371.48L272.17,372L273.33,374.01L275.67,373.83L276.84,374.67L279.17,374.52L280.34,374.47L281.51,373.55L282.68,374.34L293.19,376.61L294.36,376.52L306.04,377.6L307.21,377.03L314.22,376.56L315.39,376.87L321.23,376.76L322.39,376.39L329.4,375.62L330.57,375.73L331.74,375.02L332.91,375.48L336.41,372.91L337.58,372.78L342.25,361.74L343.42,358.44L345.76,355.35L346.92,348.96L349.26,335.33L350.43,324.49L352.77,309.3L353.93,305.04L359.77,224.93L360.94,216.32L362.11,213.83L363.28,201.81L365.61,185.48L366.78,185.81L367.95,190.18L369.12,189.87L370.29,192.2L371.45,192.42L374.96,212.86L376.13,212.82L378.46,220.95L379.63,235.13L385.47,289.3L386.64,290.29L388.98,310.75L390.14,317.05L393.65,335.31L394.82,336.39L397.15,349.34L398.32,353.46L400.66,356.96L401.83,357.67L402.99,358.24L404.16,359.93L410,365.55L411.17,365.64L418.18,370.04L419.35,370.2L421.68,371.21L422.85,371.89L426.36,373.37L427.52,373.55L435.7,374.27L436.87,375.13L446.21,375.99L447.38,375.75L457.89,375.81L459.06,375.57L464.9,376.17L466.07,375.79L468.41,375.97L469.57,374.98L471.91,374.8L473.08,375.29L475.42,374.85L476.58,374.89L484.76,376.37L485.93,376.28L489.43,376.28L490.6,376.37L497.61,376.98L498.78,376.89L502.28,376.85L503.45,376.17L515.13,374.87L516.3,374.63L518.63,373.99L519.8,373.35L523.31,365.73L524.48,365.68L525.64,364.01L526.81,352.2L531.48,298.24L532.65,295.18L533.82,289.56L534.99,250.44L540.83,83.83L542,74.76L544.33,26.59L545.5,10.09L547.84,0.37L549.01,1.48L550.17,0L551.34,4.27L554.85,47.36L556.01,65.15L558.35,81.48L559.52,107.03L563.02,160.04L564.19,172.05L570.03,234.49L571.2,243.11L573.54,257.69L574.7,258.59L577.04,270.02L578.21,274.49L580.54,284.74L581.71,287.53L582.88,290.4L584.05,300.84L587.55,318.57L588.72,322.82L593.39,335.62L594.56,337.11L600.4,343.57L601.57,345.88L602.74,349.05L603.91,346.01L605.07,342.75L606.24,336.74L607.41,333.22L608.58,319.98L612.08,293.22L613.25,290.24L616.75,291.26L617.92,294.01L619.09,295.33L620.26,299.3L623.76,299.49L624.93,300.18L627.27,300.9L628.44,303.96L630.77,300.57L631.94,301.48L633.11,302.38L634.28,301.28L635.44,303.46L636.61,301.3L638.95,310.84L640.12,311.54L641.28,316.32L642.45,317.31L645.96,317.38L647.13,319.45L649.46,320.64L650.63,322.84L652.97,324.96L654.13,329.56L655.3,326.67L656.47,327.05L657.64,336.48L658.81,332.27L659.97,332.14L661.14,330.86" style="vector-effect: non-scaling-stroke; fill: none; stroke: rgb(8, 115, 191); stroke-opacity: 1; stroke-width: 0.5px; opacity: 1;"/></g><g class="points"/><g class="text"/></g><g class="trace scatter trace68dafa" style="stroke-miterlimit: 2;"><g class="fills"><g><path class="js-fill" d="M672.82,380L661.14,380L661.14,330.86L662.31,327.03L663.48,328.52L664.65,327.84L665.81,317.71L666.98,322.29L668.15,321.01L669.32,322.64L670.49,322.75L672.82,323.59" style="fill: rgb(8, 115, 191); fill-opacity: 0.4; stroke-width: 0;"/></g></g><g class="errorbars"/><g class="lines"><path class="js-line" d="M661.14,330.86L662.31,327.03L663.48,328.52L664.65,327.84L665.81,317.71L666.98,322.29L668.15,321.01L669.32,322.64L670.49,322.75L672.82,323.59" style="vector-effect: non-scaling-stroke; fill: none; stroke: rgb(8, 115, 191); stroke-opacity: 1; stroke-width: 2px; opacity: 1;"/></g><g class="points"/><g class="text"/></g><g class="trace scatter trace69b8cc" style="stroke-miterlimit: 2; opacity: 1;"><g class="fills"/><g class="errorbars"/><g class="lines"/><g class="points"><path class="point" transform="translate(672.82,323.59)" d="M15,0A15,15 0 1,1 0,-15A15,15 0 0,1 15,0Z" style="opacity: 1; stroke-width: 0px; fill: rgb(8, 115, 191); fill-opacity: 1;"/></g><g class="text"/></g></g></g><g class="overplot"/><path class="xlines-above crisp" style="fill: none; stroke-width: 1px; stroke: rgb(0, 0, 0); stroke-opacity: 0;" d=""/><path class="ylines-above crisp" style="fill: none;" d="M0,0"/><g class="overlines-above"/><g class="xaxislayer-above"><path class="xtick ticks crisp" d="M0,450v-5" transform="translate(88.55,0)" style="stroke: rgb(68, 68, 68); stroke-opacity: 1; stroke-width: 1px;"/><path class="xtick ticks crisp" d="M0,450v-5" transform="translate(159.8,0)" style="stroke: rgb(68, 68, 68); stroke-opacity: 1; stroke-width: 1px;"/><path class="xtick ticks crisp" d="M0,450v-5" transform="translate(228.72,0)" style="stroke: rgb(68, 68, 68); stroke-opacity: 1; stroke-width: 1px;"/><path class="xtick ticks crisp" d="M0,450v-5" transform="translate(299.97,0)" style="stroke: rgb(68, 68, 68); stroke-opacity: 1; stroke-width: 1px;"/><path class="xtick ticks crisp" d="M0,450v-5" transform="translate(371.23,0)" style="stroke: rgb(68, 68, 68); stroke-opacity: 1; stroke-width: 1px;"/><path class="xtick ticks crisp" d="M0,450v-5" transform="translate(443.65,0)" style="stroke: rgb(68, 68, 68); stroke-opacity: 1; stroke-width: 1px;"/><path class="xtick ticks crisp" d="M0,450v-5" transform="translate(514.9,0)" style="stroke: rgb(68, 68, 68); stroke-opacity: 1; stroke-width: 1px;"/><path class="xtick ticks crisp" d="M0,450v-5" transform="translate(586.16,0)" style="stroke: rgb(68, 68, 68); stroke-opacity: 1; stroke-width: 1px;"/><path class="xtick ticks crisp" d="M0,450v-5" transform="translate(655.07,0)" style="stroke: rgb(68, 68, 68); stroke-opacity: 1; stroke-width: 1px;"/><path class="xtick ticks crisp" d="M0,450v-5" transform="translate(726.33,0)" style="stroke: rgb(68, 68, 68); stroke-opacity: 1; stroke-width: 1px;"/><g class="xtick"><text text-anchor="middle" x="0" y="469" transform="translate(88.55,0)" style="font-family: 'Open Sans', verdana, arial, sans-serif; font-size: 18px; fill: rgb(42, 63, 95); fill-opacity: 1; white-space: pre;">01/11</text></g><g class="xtick"><text text-anchor="middle" x="0" y="469" transform="translate(159.8,0)" style="font-family: 'Open Sans', verdana, arial, sans-serif; font-size: 18px; fill: rgb(42, 63, 95); fill-opacity: 1; white-space: pre;">01/01</text></g><g class="xtick"><text text-anchor="middle" x="0" y="469" transform="translate(228.72,0)" style="font-family: 'Open Sans', verdana, arial, sans-serif; font-size: 18px; fill: rgb(42, 63, 95); fill-opacity: 1; white-space: pre;">01/03</text></g><g class="xtick"><text text-anchor="middle" x="0" y="469" transform="translate(299.97,0)" style="font-family: 'Open Sans', verdana, arial, sans-serif; font-size: 18px; fill: rgb(42, 63, 95); fill-opacity: 1; white-space: pre;">01/05</text></g><g class="xtick"><text text-anchor="middle" x="0" y="469" transform="translate(371.23,0)" style="font-family: 'Open Sans', verdana, arial, sans-serif; font-size: 18px; fill: rgb(42, 63, 95); fill-opacity: 1; white-space: pre;">01/07</text></g><g class="xtick"><text text-anchor="middle" x="0" y="469" transform="translate(443.65,0)" style="font-family: 'Open Sans', verdana, arial, sans-serif; font-size: 18px; fill: rgb(42, 63, 95); fill-opacity: 1; white-space: pre;">01/09</text></g><g class="xtick"><text text-anchor="middle" x="0" y="469" transform="translate(514.9,0)" style="font-family: 'Open Sans', verdana, arial, sans-serif; font-size: 18px; fill: rgb(42, 63, 95); fill-opacity: 1; white-space: pre;">01/11</text></g><g class="xtick"><text text-anchor="middle" x="0" y="469" transform="translate(586.16,0)" style="font-family: 'Open Sans', verdana, arial, sans-serif; font-size: 18px; fill: rgb(42, 63, 95); fill-opacity: 1; white-space: pre;">01/01</text></g><g class="xtick"><text text-anchor="middle" x="0" y="469" transform="translate(655.07,0)" style="font-family: 'Open Sans', verdana, arial, sans-serif; font-size: 18px; fill: rgb(42, 63, 95); fill-opacity: 1; white-space: pre;">01/03</text></g><g class="xtick"><text text-anchor="middle" x="0" y="469" transform="translate(726.33,0)" style="font-family: 'Open Sans', verdana, arial, sans-serif; font-size: 18px; fill: rgb(42, 63, 95); fill-opacity: 1; white-space: pre;">01/05</text></g></g><g class="yaxislayer-above"/><g class="overaxes-above"/></g></g><g class="polarlayer"/><g class="ternarylayer"/><g class="geolayer"/><g class="funnelarealayer"/><g class="pielayer"/><g class="treemaplayer"/><g class="sunburstlayer"/><g class="glimages"/><defs id="topdefs-b81bb5"><g class="clips"/></defs><g class="layer-above"><g class="imagelayer"/><g class="shapelayer"><path data-index="0" fill-rule="evenodd" d="M-606.47,445.85L247.41,445.85" clip-path="url('#clipb81bb5xy')" style="opacity: 1; stroke: rgb(255, 0, 0); stroke-opacity: 1; fill: rgb(0, 0, 0); fill-opacity: 0; stroke-dasharray: 3px, 3px; stroke-width: 1.5px;"/></g></g><g class="infolayer"><g class="g-gtitle"><text class="gtitle" x="375" y="25" text-anchor="middle" dy="0.7em" style="font-family: 'Open Sans', verdana, arial, sans-serif; font-size: 50px; fill: rgb(42, 63, 95); opacity: 1; font-weight: normal; white-space: pre;"><tspan style="font-weight:bold">Guadeloupe (971)</tspan></text></g><g class="g-xtitle"/><g class="annotation" data-index="0" style="opacity: 1;"><g class="annotation-text-g" transform="rotate(0,680.82,333.59)"><g class="cursor-pointer" transform="translate(623, 298)"><rect class="bg" x="0.5" y="0.5" width="115" height="71" style="stroke-width: 1px; stroke: rgb(0, 0, 0); stroke-opacity: 0; fill: rgb(255, 255, 255); fill-opacity: 0.6;"/><text class="annotation-text" text-anchor="middle" x="57.8125" y="55.5" style="font-family: 'Open Sans', verdana, arial, sans-serif; font-size: 50px; fill: rgb(8, 115, 191); fill-opacity: 1; white-space: pre;"> <tspan style="font-weight:bold">679 </tspan></text></g></g><g class="annotation-arrow-g" style="opacity: 1;"><path d="M709.22,369.09L720.82,383.59" style="stroke-width: 1px; stroke: rgb(8, 115, 191); stroke-opacity: 1; stroke-dasharray: 0px, 0px, 18.5691px, 18.5691px;"/></g></g></g></svg>