<svg class="main-svg" xmlns="http://www.w3.org/2000/svg" xmlns:xlink="http://www.w3.org/1999/xlink" width="1125" height="750" style="" viewBox="0 0 750 500"><rect x="0" y="0" width="750" height="500" style="fill: rgb(0, 0, 0); fill-opacity: 0;"/><defs id="defs-499c92"><g class="clips"><clipPath id="clip499c92xyplot" class="plotclip"><rect width="700" height="380"/></clipPath><clipPath class="axesclip" id="clip499c92x"><rect x="50" y="0" width="700" height="500"/></clipPath><clipPath class="axesclip" id="clip499c92y"><rect x="0" y="70" width="750" height="380"/></clipPath><clipPath class="axesclip" id="clip499c92xy"><rect x="50" y="70" width="700" height="380"/></clipPath></g><g class="gradients"/></defs><g class="bglayer"><rect class="bg" x="50" y="70" width="700" height="380" style="fill: rgb(0, 0, 0); fill-opacity: 0; stroke-width: 0;"/></g><g class="layer-below"><g class="imagelayer"/><g class="shapelayer"/></g><g class="cartesianlayer"><g class="subplot xy"><g class="layer-subplot"><g class="shapelayer"/><g class="imagelayer"/></g><g class="gridlayer"><g class="x"><path class="xgrid crisp" transform="translate(90.96000000000001,0)" d="M0,70v380" style="stroke: rgb(255, 255, 255); stroke-opacity: 1; stroke-width: 1px;"/><path class="xgrid crisp" transform="translate(166.67000000000002,0)" d="M0,70v380" style="stroke: rgb(255, 255, 255); stroke-opacity: 1; stroke-width: 1px;"/><path class="xgrid crisp" transform="translate(239.89,0)" d="M0,70v380" style="stroke: rgb(255, 255, 255); stroke-opacity: 1; stroke-width: 1px;"/><path class="xgrid crisp" transform="translate(315.6,0)" d="M0,70v380" style="stroke: rgb(255, 255, 255); stroke-opacity: 1; stroke-width: 1px;"/><path class="xgrid crisp" transform="translate(391.31,0)" d="M0,70v380" style="stroke: rgb(255, 255, 255); stroke-opacity: 1; stroke-width: 1px;"/><path class="xgrid crisp" transform="translate(468.26,0)" d="M0,70v380" style="stroke: rgb(255, 255, 255); stroke-opacity: 1; stroke-width: 1px;"/><path class="xgrid crisp" transform="translate(543.97,0)" d="M0,70v380" style="stroke: rgb(255, 255, 255); stroke-opacity: 1; stroke-width: 1px;"/><path class="xgrid crisp" transform="translate(619.68,0)" d="M0,70v380" style="stroke: rgb(255, 255, 255); stroke-opacity: 1; stroke-width: 1px;"/><path class="xgrid crisp" transform="translate(692.91,0)" d="M0,70v380" style="stroke: rgb(255, 255, 255); stroke-opacity: 1; stroke-width: 1px;"/></g><g class="y"/></g><g class="zerolinelayer"/><path class="xlines-below"/><path class="ylines-below"/><g class="overlines-below"/><g class="xaxislayer-below"/><g class="yaxislayer-below"/><g class="overaxes-below"/><g class="plot" transform="translate(50, 70)" clip-path="url('#clip499c92xyplot')"><g class="scatterlayer mlayer"><g class="trace scatter trace0babb1" style="stroke-miterlimit: 2;"><g class="fills"><g><path class="js-fill" d="M678.9,380L-168.79,380L-168.79,379.42L-58.33,378.92L-57.09,378.49L-49.65,376.71L-48.4,376.48L-40.96,376.13L-39.72,375.63L-35.99,375.22L-34.75,375.63L-27.3,376.38L-26.06,376.09L-12.41,374.26L-11.17,374.7L-6.21,373.75L-4.96,372.98L-2.48,372.17L-1.24,371.53L3.72,369.5L4.96,368.15L9.93,362.69L11.17,362.73L16.13,355.73L17.38,353.64L19.86,352.13L21.1,347.34L26.06,325.21L27.3,323.88L28.55,322.99L29.79,315.6L34.75,302.7L35.99,302.16L38.48,302.43L39.72,300.27L42.2,303.07L43.44,307.04L45.92,308.22L47.16,314.33L48.4,320.82L49.65,333.01L50.89,335.33L52.13,339.68L55.85,344.28L57.09,348.46L58.33,345.81L59.57,352.06L60.82,354.65L62.06,355.44L63.3,355.67L64.54,359.27L65.78,361.53L67.02,362.09L70.74,363.5L71.99,363.27L75.71,363.21L76.95,363.35L80.67,362.98L81.91,363.93L86.88,361.94L88.12,362.13L89.36,362.31L90.6,361.42L95.57,359.83L96.81,357.78L99.29,355.29L100.53,354.57L103.01,354.65L104.26,358.9L107.98,363.58L109.22,363.66L111.7,362.13L112.94,362.17L114.18,360.89L115.43,360.82L117.91,357.18L119.15,356.87L120.39,356.91L121.63,352.37L126.6,355.34L127.84,355.13L130.32,353.7L131.56,353.45L132.8,353.64L134.04,351.84L137.77,349.5L139.01,349.08L145.21,347.49L146.45,349.06L148.94,350.68L150.18,350.53L153.9,354.86L155.14,354.9L156.38,356.06L157.62,355.34L158.87,355.46L160.11,356.7L161.35,356.33L162.59,356.99L163.83,358.19L165.07,358.01L167.55,358.96L168.79,358.53L170.04,359.29L171.28,359.02L175,357.74L176.24,357.72L179.96,357.86L181.21,357.3L187.41,360.66L188.65,362L191.13,363.08L192.38,363L201.06,362.27L202.3,362.6L208.51,357.74L209.75,357.53L212.23,357.03L213.48,355.44L215.96,353.74L217.2,352.58L223.4,349.99L224.65,349.64L228.37,349.66L229.61,355.87L232.09,352.23L233.33,352.4L237.06,353.7L238.3,348.07L239.54,352.27L240.78,353.43L242.02,354.53L243.26,354.49L245.74,353.97L246.99,354.01L249.47,355L250.71,355.56L254.43,356.37L255.67,357.61L258.16,358.11L259.4,359.27L261.88,362.98L263.12,363.12L269.33,367.41L270.57,367.53L271.81,367.6L273.05,368.59L278.01,371.7L279.26,371.12L281.74,371.68L282.98,371.97L284.22,372.32L285.46,371.47L287.94,372.17L289.18,372.09L290.43,374.16L291.67,374.12L297.87,374.49L299.11,373.66L301.6,374.86L302.84,374.84L306.56,375.8L307.8,375.96L323.94,379.07L325.18,378.96L333.87,378.99L335.11,379.13L351.24,377.04L352.48,376.6L353.72,376.77L354.96,376.04L359.93,373.7L361.17,372.17L364.89,364.88L366.13,363.58L367.38,363.29L368.62,360.55L371.1,358.61L372.34,358.26L376.06,358.3L377.3,357.22L379.79,357.57L381.03,356.77L385.99,355.09L387.23,353.39L390.96,350.76L392.2,351.03L393.44,351.34L394.68,350.74L397.16,350.66L398.4,351.38L400.89,353.41L402.13,353.29L407.09,358.71L408.33,359.81L410.82,360.1L412.06,361.59L415.78,365.01L417.02,365.19L419.5,366.15L420.74,367L424.47,367.99L425.71,368.73L426.95,367.99L428.19,368.18L431.91,368.01L433.16,368.32L434.4,368.11L435.64,368.86L436.88,368.84L438.12,370.16L443.09,371.86L444.33,371.9L450.53,372.26L451.77,372.94L460.46,375.36L461.7,375.32L475.35,375.03L476.6,374.68L481.56,373.87L482.8,374.02L490.25,375.32L491.49,374.47L493.97,373.25L495.21,373L497.7,372.5L498.94,369.96L501.42,369.44L502.66,370.39L505.14,369L506.38,368.96L510.11,365.57L511.35,362.98L516.31,357.43L517.55,354.26L521.28,341.81L522.52,338.23L523.76,337.82L525,328.77L529.96,295.59L531.21,291.53L532.45,291.22L533.69,283.11L536.17,275.75L537.41,273.64L539.89,268.71L541.13,268.32L543.62,262.36L544.86,260.16L546.1,258.83L547.34,258.92L549.82,258.13L551.06,259.87L552.3,259.97L553.55,257.97L554.79,253.37L556.03,255.23L557.27,265.57L558.51,264.36L563.48,205.32L564.72,191.43L565.96,190.37L567.2,188.3L569.68,156.51L570.92,153.18L572.16,149.14L573.4,139.95L574.65,115.66L575.89,113.36L577.13,115.41L578.37,114.93L580.85,103.73L582.09,97.74L583.33,90.29L584.57,88.76L588.3,45.93L589.54,32.68L592.02,17.5L593.26,16.65L594.5,2.88L595.74,0.17L596.99,0L598.23,2.98L600.71,13.61L601.95,15.01L608.16,96.73L609.4,107.89L610.64,110.4L611.88,141.42L616.84,219.59L618.09,231.77L619.33,234.88L620.57,256.43L624.29,288.03L625.53,294.78L626.77,299.4L628.01,300.38L631.74,318.27L632.98,322.24L635.46,327.86L636.7,328.39L640.43,333.01L641.67,333.57L645.39,334.96L646.63,336.84L647.87,336.93L649.11,336.24L651.6,334.77L652.84,332.99L654.08,332.52L655.32,327.79L660.28,315L661.52,312.01L662.77,312.12L664.01,303.67L666.49,290.21L667.73,282.05L670.21,271.8L671.45,271.22L673.94,256.93L675.18,253.74L677.66,249.99L678.9,249.87" style="fill: rgb(8, 115, 191); fill-opacity: 0.2; stroke-width: 0;"/></g></g><g class="errorbars"/><g class="lines"><path class="js-line" d="M-168.79,379.42L-58.33,378.92L-57.09,378.49L-49.65,376.71L-48.4,376.48L-40.96,376.13L-39.72,375.63L-35.99,375.22L-34.75,375.63L-27.3,376.38L-26.06,376.09L-12.41,374.26L-11.17,374.7L-6.21,373.75L-4.96,372.98L-2.48,372.17L-1.24,371.53L3.72,369.5L4.96,368.15L9.93,362.69L11.17,362.73L16.13,355.73L17.38,353.64L19.86,352.13L21.1,347.34L26.06,325.21L27.3,323.88L28.55,322.99L29.79,315.6L34.75,302.7L35.99,302.16L38.48,302.43L39.72,300.27L42.2,303.07L43.44,307.04L45.92,308.22L47.16,314.33L48.4,320.82L49.65,333.01L50.89,335.33L52.13,339.68L55.85,344.28L57.09,348.46L58.33,345.81L59.57,352.06L60.82,354.65L62.06,355.44L63.3,355.67L64.54,359.27L65.78,361.53L67.02,362.09L70.74,363.5L71.99,363.27L75.71,363.21L76.95,363.35L80.67,362.98L81.91,363.93L86.88,361.94L88.12,362.13L89.36,362.31L90.6,361.42L95.57,359.83L96.81,357.78L99.29,355.29L100.53,354.57L103.01,354.65L104.26,358.9L107.98,363.58L109.22,363.66L111.7,362.13L112.94,362.17L114.18,360.89L115.43,360.82L117.91,357.18L119.15,356.87L120.39,356.91L121.63,352.37L126.6,355.34L127.84,355.13L130.32,353.7L131.56,353.45L132.8,353.64L134.04,351.84L137.77,349.5L139.01,349.08L145.21,347.49L146.45,349.06L148.94,350.68L150.18,350.53L153.9,354.86L155.14,354.9L156.38,356.06L157.62,355.34L158.87,355.46L160.11,356.7L161.35,356.33L162.59,356.99L163.83,358.19L165.07,358.01L167.55,358.96L168.79,358.53L170.04,359.29L171.28,359.02L175,357.74L176.24,357.72L179.96,357.86L181.21,357.3L187.41,360.66L188.65,362L191.13,363.08L192.38,363L201.06,362.27L202.3,362.6L208.51,357.74L209.75,357.53L212.23,357.03L213.48,355.44L215.96,353.74L217.2,352.58L223.4,349.99L224.65,349.64L228.37,349.66L229.61,355.87L232.09,352.23L233.33,352.4L237.06,353.7L238.3,348.07L239.54,352.27L240.78,353.43L242.02,354.53L243.26,354.49L245.74,353.97L246.99,354.01L249.47,355L250.71,355.56L254.43,356.37L255.67,357.61L258.16,358.11L259.4,359.27L261.88,362.98L263.12,363.12L269.33,367.41L270.57,367.53L271.81,367.6L273.05,368.59L278.01,371.7L279.26,371.12L281.74,371.68L282.98,371.97L284.22,372.32L285.46,371.47L287.94,372.17L289.18,372.09L290.43,374.16L291.67,374.12L297.87,374.49L299.11,373.66L301.6,374.86L302.84,374.84L306.56,375.8L307.8,375.96L323.94,379.07L325.18,378.96L333.87,378.99L335.11,379.13L351.24,377.04L352.48,376.6L353.72,376.77L354.96,376.04L359.93,373.7L361.17,372.17L364.89,364.88L366.13,363.58L367.38,363.29L368.62,360.55L371.1,358.61L372.34,358.26L376.06,358.3L377.3,357.22L379.79,357.57L381.03,356.77L385.99,355.09L387.23,353.39L390.96,350.76L392.2,351.03L393.44,351.34L394.68,350.74L397.16,350.66L398.4,351.38L400.89,353.41L402.13,353.29L407.09,358.71L408.33,359.81L410.82,360.1L412.06,361.59L415.78,365.01L417.02,365.19L419.5,366.15L420.74,367L424.47,367.99L425.71,368.73L426.95,367.99L428.19,368.18L431.91,368.01L433.16,368.32L434.4,368.11L435.64,368.86L436.88,368.84L438.12,370.16L443.09,371.86L444.33,371.9L450.53,372.26L451.77,372.94L460.46,375.36L461.7,375.32L475.35,375.03L476.6,374.68L481.56,373.87L482.8,374.02L490.25,375.32L491.49,374.47L493.97,373.25L495.21,373L497.7,372.5L498.94,369.96L501.42,369.44L502.66,370.39L505.14,369L506.38,368.96L510.11,365.57L511.35,362.98L516.31,357.43L517.55,354.26L521.28,341.81L522.52,338.23L523.76,337.82L525,328.77L529.96,295.59L531.21,291.53L532.45,291.22L533.69,283.11L536.17,275.75L537.41,273.64L539.89,268.71L541.13,268.32L543.62,262.36L544.86,260.16L546.1,258.83L547.34,258.92L549.82,258.13L551.06,259.87L552.3,259.97L553.55,257.97L554.79,253.37L556.03,255.23L557.27,265.57L558.51,264.36L563.48,205.32L564.72,191.43L565.96,190.37L567.2,188.3L569.68,156.51L570.92,153.18L572.16,149.14L573.4,139.95L574.65,115.66L575.89,113.36L577.13,115.41L578.37,114.93L580.85,103.73L582.09,97.74L583.33,90.29L584.57,88.76L588.3,45.93L589.54,32.68L592.02,17.5L593.26,16.65L594.5,2.88L595.74,0.17L596.99,0L598.23,2.98L600.71,13.61L601.95,15.01L608.16,96.73L609.4,107.89L610.64,110.4L611.88,141.42L616.84,219.59L618.09,231.77L619.33,234.88L620.57,256.43L624.29,288.03L625.53,294.78L626.77,299.4L628.01,300.38L631.74,318.27L632.98,322.24L635.46,327.86L636.7,328.39L640.43,333.01L641.67,333.57L645.39,334.96L646.63,336.84L647.87,336.93L649.11,336.24L651.6,334.77L652.84,332.99L654.08,332.52L655.32,327.79L660.28,315L661.52,312.01L662.77,312.12L664.01,303.67L666.49,290.21L667.73,282.05L670.21,271.8L671.45,271.22L673.94,256.93L675.18,253.74L677.66,249.99L678.9,249.87" style="vector-effect: non-scaling-stroke; fill: none; stroke: rgb(8, 115, 191); stroke-opacity: 1; stroke-width: 0.5px; opacity: 1;"/></g><g class="points"/><g class="text"/></g><g class="trace scatter trace442c6d" style="stroke-miterlimit: 2;"><g class="fills"><g><path class="js-fill" d="M691.31,380L678.9,380L678.9,249.87L680.14,249.37L681.38,246.53L683.87,237.71L685.11,233.09L687.59,221.15L688.83,220.65L691.31,211" style="fill: rgb(8, 115, 191); fill-opacity: 0.4; stroke-width: 0;"/></g></g><g class="errorbars"/><g class="lines"><path class="js-line" d="M678.9,249.87L680.14,249.37L681.38,246.53L683.87,237.71L685.11,233.09L687.59,221.15L688.83,220.65L691.31,211" style="vector-effect: non-scaling-stroke; fill: none; stroke: rgb(8, 115, 191); stroke-opacity: 1; stroke-width: 2px; opacity: 1;"/></g><g class="points"/><g class="text"/></g><g class="trace scatter trace6d3a4d" style="stroke-miterlimit: 2; opacity: 1;"><g class="fills"/><g class="errorbars"/><g class="lines"/><g class="points"><path class="point" transform="translate(691.31,211)" d="M15,0A15,15 0 1,1 0,-15A15,15 0 0,1 15,0Z" style="opacity: 1; stroke-width: 0px; fill: rgb(8, 115, 191); fill-opacity: 1;"/></g><g class="text"/></g></g></g><g class="overplot"/><path class="xlines-above crisp" style="fill: none; stroke-width: 1px; stroke: rgb(0, 0, 0); stroke-opacity: 0;" d=""/><path class="ylines-above crisp" style="fill: none;" d="M0,0"/><g class="overlines-above"/><g class="xaxislayer-above"><path class="xtick ticks crisp" d="M0,450v-5" transform="translate(90.96000000000001,0)" style="stroke: rgb(68, 68, 68); stroke-opacity: 1; stroke-width: 1px;"/><path class="xtick ticks crisp" d="M0,450v-5" transform="translate(166.67000000000002,0)" style="stroke: rgb(68, 68, 68); stroke-opacity: 1; stroke-width: 1px;"/><path class="xtick ticks crisp" d="M0,450v-5" transform="translate(239.89,0)" style="stroke: rgb(68, 68, 68); stroke-opacity: 1; stroke-width: 1px;"/><path class="xtick ticks crisp" d="M0,450v-5" transform="translate(315.6,0)" style="stroke: rgb(68, 68, 68); stroke-opacity: 1; stroke-width: 1px;"/><path class="xtick ticks crisp" d="M0,450v-5" transform="translate(391.31,0)" style="stroke: rgb(68, 68, 68); stroke-opacity: 1; stroke-width: 1px;"/><path class="xtick ticks crisp" d="M0,450v-5" transform="translate(468.26,0)" style="stroke: rgb(68, 68, 68); stroke-opacity: 1; stroke-width: 1px;"/><path class="xtick ticks crisp" d="M0,450v-5" transform="translate(543.97,0)" style="stroke: rgb(68, 68, 68); stroke-opacity: 1; stroke-width: 1px;"/><path class="xtick ticks crisp" d="M0,450v-5" transform="translate(619.68,0)" style="stroke: rgb(68, 68, 68); stroke-opacity: 1; stroke-width: 1px;"/><path class="xtick ticks crisp" d="M0,450v-5" transform="translate(692.91,0)" style="stroke: rgb(68, 68, 68); stroke-opacity: 1; stroke-width: 1px;"/><g class="xtick"><text text-anchor="middle" x="0" y="469" transform="translate(90.96000000000001,0)" style="font-family: 'Open Sans', verdana, arial, sans-serif; font-size: 18px; fill: rgb(42, 63, 95); fill-opacity: 1; white-space: pre;">01/11</text></g><g class="xtick"><text text-anchor="middle" x="0" y="469" transform="translate(166.67000000000002,0)" style="font-family: 'Open Sans', verdana, arial, sans-serif; font-size: 18px; fill: rgb(42, 63, 95); fill-opacity: 1; white-space: pre;">01/01</text></g><g class="xtick"><text text-anchor="middle" x="0" y="469" transform="translate(239.89,0)" style="font-family: 'Open Sans', verdana, arial, sans-serif; font-size: 18px; fill: rgb(42, 63, 95); fill-opacity: 1; white-space: pre;">01/03</text></g><g class="xtick"><text text-anchor="middle" x="0" y="469" transform="translate(315.6,0)" style="font-family: 'Open Sans', verdana, arial, sans-serif; font-size: 18px; fill: rgb(42, 63, 95); fill-opacity: 1; white-space: pre;">01/05</text></g><g class="xtick"><text text-anchor="middle" x="0" y="469" transform="translate(391.31,0)" style="font-family: 'Open Sans', verdana, arial, sans-serif; font-size: 18px; fill: rgb(42, 63, 95); fill-opacity: 1; white-space: pre;">01/07</text></g><g class="xtick"><text text-anchor="middle" x="0" y="469" transform="translate(468.26,0)" style="font-family: 'Open Sans', verdana, arial, sans-serif; font-size: 18px; fill: rgb(42, 63, 95); fill-opacity: 1; white-space: pre;">01/09</text></g><g class="xtick"><text text-anchor="middle" x="0" y="469" transform="translate(543.97,0)" style="font-family: 'Open Sans', verdana, arial, sans-serif; font-size: 18px; fill: rgb(42, 63, 95); fill-opacity: 1; white-space: pre;">01/11</text></g><g class="xtick"><text text-anchor="middle" x="0" y="469" transform="translate(619.68,0)" style="font-family: 'Open Sans', verdana, arial, sans-serif; font-size: 18px; fill: rgb(42, 63, 95); fill-opacity: 1; white-space: pre;">01/01</text></g><g class="xtick"><text text-anchor="middle" x="0" y="469" transform="translate(692.91,0)" style="font-family: 'Open Sans', verdana, arial, sans-serif; font-size: 18px; fill: rgb(42, 63, 95); fill-opacity: 1; white-space: pre;">01/03</text></g></g><g class="yaxislayer-above"/><g class="overaxes-above"/></g></g><g class="polarlayer"/><g class="ternarylayer"/><g class="geolayer"/><g class="funnelarealayer"/><g class="pielayer"/><g class="treemaplayer"/><g class="sunburstlayer"/><g class="glimages"/><defs id="topdefs-499c92"><g class="clips"/></defs><g class="layer-above"><g class="imagelayer"/><g class="shapelayer"><path data-index="0" fill-rule="evenodd" d="M-647.52,444.61L259.75,444.61" clip-path="url('#clip499c92xy')" style="opacity: 1; stroke: rgb(255, 0, 0); stroke-opacity: 1; fill: rgb(0, 0, 0); fill-opacity: 0; stroke-dasharray: 3px, 3px; stroke-width: 1.5px;"/></g></g><g class="infolayer"><g class="g-gtitle"><text class="gtitle" x="375" y="25" text-anchor="middle" dy="0.7em" style="font-family: 'Open Sans', verdana, arial, sans-serif; font-size: 50px; fill: rgb(42, 63, 95); opacity: 1; font-weight: normal; white-space: pre;"><tspan style="font-weight:bold">Drôme (26)</tspan></text></g><g class="g-xtitle"/><g class="annotation" data-index="0" style="opacity: 1;"><g class="annotation-text-g" transform="rotate(0,699.31,221)"><g class="cursor-pointer" transform="translate(627, 185)"><rect class="bg" x="0.5" y="0.5" width="143" height="71" style="stroke-width: 1px; stroke: rgb(0, 0, 0); stroke-opacity: 0; fill: rgb(255, 255, 255); fill-opacity: 0.6;"/><text class="annotation-text" text-anchor="middle" x="72.078125" y="55.5" style="font-family: 'Open Sans', verdana, arial, sans-serif; font-size: 50px; fill: rgb(8, 115, 191); fill-opacity: 1; white-space: pre;"> <tspan style="font-weight:bold">1567 </tspan></text></g></g><g class="annotation-arrow-g" style="opacity: 1;"><path d="M727.7099999999999,256.5L739.31,271" style="stroke-width: 1px; stroke: rgb(8, 115, 191); stroke-opacity: 1; stroke-dasharray: 0px, 0px, 18.569px, 18.569px;"/></g></g></g></svg>