<svg class="main-svg" xmlns="http://www.w3.org/2000/svg" xmlns:xlink="http://www.w3.org/1999/xlink" width="1125" height="750" style="" viewBox="0 0 750 500"><rect x="0" y="0" width="750" height="500" style="fill: rgb(0, 0, 0); fill-opacity: 0;"/><defs id="defs-150e79"><g class="clips"><clipPath id="clip150e79xyplot" class="plotclip"><rect width="700" height="380"/></clipPath><clipPath class="axesclip" id="clip150e79x"><rect x="50" y="0" width="700" height="500"/></clipPath><clipPath class="axesclip" id="clip150e79y"><rect x="0" y="70" width="750" height="380"/></clipPath><clipPath class="axesclip" id="clip150e79xy"><rect x="50" y="70" width="700" height="380"/></clipPath></g><g class="gradients"/></defs><g class="bglayer"><rect class="bg" x="50" y="70" width="700" height="380" style="fill: rgb(0, 0, 0); fill-opacity: 0; stroke-width: 0;"/></g><g class="layer-below"><g class="imagelayer"/><g class="shapelayer"/></g><g class="cartesianlayer"><g class="subplot xy"><g class="layer-subplot"><g class="shapelayer"/><g class="imagelayer"/></g><g class="gridlayer"><g class="x"><path class="xgrid crisp" transform="translate(102.5,0)" d="M0,70v380" style="stroke: rgb(255, 255, 255); stroke-opacity: 1; stroke-width: 1px;"/><path class="xgrid crisp" transform="translate(199.55,0)" d="M0,70v380" style="stroke: rgb(255, 255, 255); stroke-opacity: 1; stroke-width: 1px;"/><path class="xgrid crisp" transform="translate(293.40999999999997,0)" d="M0,70v380" style="stroke: rgb(255, 255, 255); stroke-opacity: 1; stroke-width: 1px;"/><path class="xgrid crisp" transform="translate(390.45,0)" d="M0,70v380" style="stroke: rgb(255, 255, 255); stroke-opacity: 1; stroke-width: 1px;"/><path class="xgrid crisp" transform="translate(487.5,0)" d="M0,70v380" style="stroke: rgb(255, 255, 255); stroke-opacity: 1; stroke-width: 1px;"/><path class="xgrid crisp" transform="translate(586.14,0)" d="M0,70v380" style="stroke: rgb(255, 255, 255); stroke-opacity: 1; stroke-width: 1px;"/><path class="xgrid crisp" transform="translate(683.18,0)" d="M0,70v380" style="stroke: rgb(255, 255, 255); stroke-opacity: 1; stroke-width: 1px;"/></g><g class="y"/></g><g class="zerolinelayer"/><path class="xlines-below"/><path class="ylines-below"/><g class="overlines-below"/><g class="xaxislayer-below"/><g class="yaxislayer-below"/><g class="overaxes-below"/><g class="plot" transform="translate(50, 70)" clip-path="url('#clip150e79xyplot')"><g class="scatterlayer mlayer"><g class="trace scatter trace51c75c" style="stroke-miterlimit: 2;"><g class="fills"><g><path class="js-fill" d="M672.95,380L-216.36,380L-216.36,371.56L-205.23,376.63L-203.64,376.18L-197.27,375.63L-195.68,376.23L-170.23,377.13L-168.64,377.39L-155.91,376.83L-154.32,376.58L-146.36,376.53L-144.77,374.22L-125.68,375.78L-124.09,375.38L-117.73,373.26L-116.14,371.46L-95.45,364.82L-93.86,363.31L-82.73,358.89L-81.14,358.08L-77.95,355.82L-76.36,356.02L-71.59,354.67L-70,352.81L-63.64,350.95L-62.05,347.08L-54.09,334.36L-52.5,334.36L-44.55,325.66L-42.95,324.91L-41.36,325.01L-39.77,323.15L-36.59,320.13L-35,316.01L-33.41,313.5L-31.82,313.8L-30.23,313.5L-28.64,311.34L-25.45,307.82L-23.86,308.78L-20.68,303.85L-19.09,303.95L-14.32,290.13L-12.73,287.26L-11.14,289.37L-9.55,288.72L-7.95,288.72L-6.36,290.58L-4.77,289.93L-3.18,292.64L-1.59,288.87L0,280.53L1.59,277.41L3.18,277.61L7.95,240.37L9.55,226.29L12.73,209.7L14.32,208.4L17.5,188.24L19.09,182.11L22.27,164.26L23.86,160.85L25.45,159.29L27.05,149.69L30.23,123.65L31.82,109.93L33.41,91.48L35,85.8L36.59,83.49L38.18,61.88L39.77,51.32L41.36,46.7L42.95,50.01L44.55,56.04L46.14,59.06L47.73,60.07L50.91,72.33L52.5,87.56L54.09,96.86L55.68,111.29L57.27,118.42L58.86,121.44L62.05,164.52L63.64,198.95L66.82,226.79L68.41,232.98L70,232.62L71.59,249.87L73.18,262.48L74.77,254.84L77.95,280.73L79.55,280.48L81.14,281.98L82.73,290.63L84.32,295.81L85.91,296.21L89.09,305.01L90.68,307.47L92.27,307.37L93.86,311.19L97.05,320.39L98.64,321.84L100.23,319.68L101.82,319.08L103.41,319.28L105,318.38L108.18,314.81L109.77,314.86L114.55,314.1L116.14,312.7L117.73,313.85L119.32,311.89L124.09,302.89L125.68,302.04L130.45,297.62L132.05,298.52L133.64,311.49L135.23,310.58L136.82,310.94L138.41,308.88L141.59,299.53L143.18,297.82L147.95,297.37L149.55,288.22L151.14,285.85L152.73,286.56L154.32,280.73L155.91,265.8L157.5,266.55L159.09,265.5L162.27,275L163.86,273.99L165.45,273.19L167.05,270.62L168.64,270.12L170.23,271.03L171.82,265.8L173.41,263.34L179.77,257.2L181.36,257.51L182.95,257.2L184.55,255.65L186.14,255.9L187.73,254.24L192.5,254.54L194.09,255.7L195.68,256.35L197.27,255.39L198.86,256.05L200.45,257.96L202.05,259.21L203.64,258.26L205.23,259.47L206.82,258.06L210,262.38L211.59,261.07L214.77,259.06L216.36,260.27L217.95,258.91L219.55,254.19L221.14,247.85L222.73,237.95L224.32,234.58L225.91,235.09L227.5,220.71L229.09,215.89L230.68,209L232.27,209L233.86,210.86L235.45,207.84L237.05,207.29L238.64,207.59L240.23,204.73L241.82,205.83L245,198.54L246.59,197.29L248.18,198.65L249.77,193.72L251.36,190.9L252.95,183.42L257.73,162.05L259.32,155.97L265.68,97.11L267.27,85.05L268.86,75.25L270.45,74.29L272.05,58.01L273.64,49.96L278.41,21.21L280,17.74L281.59,20.91L283.18,14.68L284.77,5.48L286.36,1.91L287.95,0L289.55,7.04L291.14,12.06L292.73,11.51L294.32,82.63L295.91,71.07L297.5,73.49L299.09,78.51L300.68,78.76L302.27,73.84L303.86,74.69L305.45,19.15L307.05,48L308.64,57.1L313.41,90.58L315,91.28L319.77,108.92L321.36,110.78L324.55,118.88L326.14,120.53L332.5,158.13L334.09,162.61L335.68,181.15L337.27,179.54L340.45,192.46L342.05,199.95L345.23,215.69L346.82,216.44L348.41,218L350,224.88L351.59,232.52L353.18,235.49L354.77,256.3L356.36,260.12L357.95,253.13L359.55,253.38L361.14,260.52L362.73,264.09L364.32,267.46L365.91,253.99L367.5,261.07L369.09,264.69L370.68,266.75L372.27,290.98L373.86,291.03L375.45,295.3L377.05,298.32L378.64,303.2L380.23,305.36L381.82,304.96L383.41,296.21L385,308.47L388.18,320.59L389.77,323.55L391.36,326.17L392.95,326.67L396.14,334.11L397.73,338.58L400.91,345.77L402.5,347.43L404.09,347.93L405.68,350.54L407.27,354.77L408.86,355.97L413.64,359.59L415.23,359.04L416.82,360.85L418.41,360.75L421.59,363.46L423.18,363.97L426.36,364.87L427.95,366.48L431.14,365.17L432.73,363.97L435.91,360.9L437.5,360.4L439.09,356.53L440.68,355.12L443.86,351.9L445.45,352.3L448.64,352.91L450.23,351.2L451.82,348.58L453.41,351.05L458.18,331.14L459.77,330.34L464.55,293.75L466.14,289.47L467.73,282.54L469.32,279.27L470.91,277.76L472.5,274.6L474.09,272.69L475.68,273.14L482.05,277.31L483.64,274.8L485.23,273.74L486.82,271.73L491.59,262.58L493.18,261.22L496.36,255.09L497.95,255.09L499.55,253.53L501.14,254.54L504.32,252.88L505.91,252.68L509.09,253.84L510.68,256.25L512.27,254.84L513.86,255.75L515.45,256.55L517.05,259.47L520.23,264.84L521.82,265.75L523.41,268.87L525,268.36L526.59,268.92L528.18,273.04L529.77,275.3L531.36,276.2L532.95,278.57L534.55,282.49L536.14,285.5L537.73,286.31L540.91,291.84L542.5,297.21L547.27,308.27L548.86,309.13L550.45,316.82L552.05,320.34L556.82,331.14L558.41,332.45L560,332.6L561.59,334.21L564.77,334.86L566.36,332.8L569.55,335.62L571.14,335.21L572.73,335.52L574.32,337.88L577.5,340.74L579.09,340.69L580.68,342.1L582.27,342.45L583.86,343.66L585.45,343.71L587.05,343.41L588.64,344.31L590.23,344.87L591.82,342.5L593.41,342.25L595,340.34L596.59,340.24L598.18,339.13L599.77,335.26L601.36,334.21L606.14,335.97L607.73,335.67L609.32,336.67L610.91,340.24L614.09,341.8L615.68,342.05L617.27,343.81L618.86,344.16L620.45,344.81L622.05,344.11L623.64,341.75L625.23,340.74L626.82,339.89L628.41,345.57L631.59,340.34L633.18,340.39L634.77,339.69L636.36,338.13L637.95,338.23L639.55,329.84L641.14,331.29L642.73,331.14L644.32,335.52L645.91,331.29L647.5,329.74L649.09,329.48L653.86,305.81L655.45,291.79L657.05,288.77L658.64,282.84L660.23,281.78L661.82,273.74L669.77,224.53L671.36,222.92L672.95,206.49" style="fill: rgb(8, 115, 191); fill-opacity: 0.2; stroke-width: 0;"/></g></g><g class="errorbars"/><g class="lines"><path class="js-line" d="M-216.36,371.56L-205.23,376.63L-203.64,376.18L-197.27,375.63L-195.68,376.23L-170.23,377.13L-168.64,377.39L-155.91,376.83L-154.32,376.58L-146.36,376.53L-144.77,374.22L-125.68,375.78L-124.09,375.38L-117.73,373.26L-116.14,371.46L-95.45,364.82L-93.86,363.31L-82.73,358.89L-81.14,358.08L-77.95,355.82L-76.36,356.02L-71.59,354.67L-70,352.81L-63.64,350.95L-62.05,347.08L-54.09,334.36L-52.5,334.36L-44.55,325.66L-42.95,324.91L-41.36,325.01L-39.77,323.15L-36.59,320.13L-35,316.01L-33.41,313.5L-31.82,313.8L-30.23,313.5L-28.64,311.34L-25.45,307.82L-23.86,308.78L-20.68,303.85L-19.09,303.95L-14.32,290.13L-12.73,287.26L-11.14,289.37L-9.55,288.72L-7.95,288.72L-6.36,290.58L-4.77,289.93L-3.18,292.64L-1.59,288.87L0,280.53L1.59,277.41L3.18,277.61L7.95,240.37L9.55,226.29L12.73,209.7L14.32,208.4L17.5,188.24L19.09,182.11L22.27,164.26L23.86,160.85L25.45,159.29L27.05,149.69L30.23,123.65L31.82,109.93L33.41,91.48L35,85.8L36.59,83.49L38.18,61.88L39.77,51.32L41.36,46.7L42.95,50.01L44.55,56.04L46.14,59.06L47.73,60.07L50.91,72.33L52.5,87.56L54.09,96.86L55.68,111.29L57.27,118.42L58.86,121.44L62.05,164.52L63.64,198.95L66.82,226.79L68.41,232.98L70,232.62L71.59,249.87L73.18,262.48L74.77,254.84L77.95,280.73L79.55,280.48L81.14,281.98L82.73,290.63L84.32,295.81L85.91,296.21L89.09,305.01L90.68,307.47L92.27,307.37L93.86,311.19L97.05,320.39L98.64,321.84L100.23,319.68L101.82,319.08L103.41,319.28L105,318.38L108.18,314.81L109.77,314.86L114.55,314.1L116.14,312.7L117.73,313.85L119.32,311.89L124.09,302.89L125.68,302.04L130.45,297.62L132.05,298.52L133.64,311.49L135.23,310.58L136.82,310.94L138.41,308.88L141.59,299.53L143.18,297.82L147.95,297.37L149.55,288.22L151.14,285.85L152.73,286.56L154.32,280.73L155.91,265.8L157.5,266.55L159.09,265.5L162.27,275L163.86,273.99L165.45,273.19L167.05,270.62L168.64,270.12L170.23,271.03L171.82,265.8L173.41,263.34L179.77,257.2L181.36,257.51L182.95,257.2L184.55,255.65L186.14,255.9L187.73,254.24L192.5,254.54L194.09,255.7L195.68,256.35L197.27,255.39L198.86,256.05L200.45,257.96L202.05,259.21L203.64,258.26L205.23,259.47L206.82,258.06L210,262.38L211.59,261.07L214.77,259.06L216.36,260.27L217.95,258.91L219.55,254.19L221.14,247.85L222.73,237.95L224.32,234.58L225.91,235.09L227.5,220.71L229.09,215.89L230.68,209L232.27,209L233.86,210.86L235.45,207.84L237.05,207.29L238.64,207.59L240.23,204.73L241.82,205.83L245,198.54L246.59,197.29L248.18,198.65L249.77,193.72L251.36,190.9L252.95,183.42L257.73,162.05L259.32,155.97L265.68,97.11L267.27,85.05L268.86,75.25L270.45,74.29L272.05,58.01L273.64,49.96L278.41,21.21L280,17.74L281.59,20.91L283.18,14.68L284.77,5.48L286.36,1.91L287.95,0L289.55,7.04L291.14,12.06L292.73,11.51L294.32,82.63L295.91,71.07L297.5,73.49L299.09,78.51L300.68,78.76L302.27,73.84L303.86,74.69L305.45,19.15L307.05,48L308.64,57.1L313.41,90.58L315,91.28L319.77,108.92L321.36,110.78L324.55,118.88L326.14,120.53L332.5,158.13L334.09,162.61L335.68,181.15L337.27,179.54L340.45,192.46L342.05,199.95L345.23,215.69L346.82,216.44L348.41,218L350,224.88L351.59,232.52L353.18,235.49L354.77,256.3L356.36,260.12L357.95,253.13L359.55,253.38L361.14,260.52L362.73,264.09L364.32,267.46L365.91,253.99L367.5,261.07L369.09,264.69L370.68,266.75L372.27,290.98L373.86,291.03L375.45,295.3L377.05,298.32L378.64,303.2L380.23,305.36L381.82,304.96L383.41,296.21L385,308.47L388.18,320.59L389.77,323.55L391.36,326.17L392.95,326.67L396.14,334.11L397.73,338.58L400.91,345.77L402.5,347.43L404.09,347.93L405.68,350.54L407.27,354.77L408.86,355.97L413.64,359.59L415.23,359.04L416.82,360.85L418.41,360.75L421.59,363.46L423.18,363.97L426.36,364.87L427.95,366.48L431.14,365.17L432.73,363.97L435.91,360.9L437.5,360.4L439.09,356.53L440.68,355.12L443.86,351.9L445.45,352.3L448.64,352.91L450.23,351.2L451.82,348.58L453.41,351.05L458.18,331.14L459.77,330.34L464.55,293.75L466.14,289.47L467.73,282.54L469.32,279.27L470.91,277.76L472.5,274.6L474.09,272.69L475.68,273.14L482.05,277.31L483.64,274.8L485.23,273.74L486.82,271.73L491.59,262.58L493.18,261.22L496.36,255.09L497.95,255.09L499.55,253.53L501.14,254.54L504.32,252.88L505.91,252.68L509.09,253.84L510.68,256.25L512.27,254.84L513.86,255.75L515.45,256.55L517.05,259.47L520.23,264.84L521.82,265.75L523.41,268.87L525,268.36L526.59,268.92L528.18,273.04L529.77,275.3L531.36,276.2L532.95,278.57L534.55,282.49L536.14,285.5L537.73,286.31L540.91,291.84L542.5,297.21L547.27,308.27L548.86,309.13L550.45,316.82L552.05,320.34L556.82,331.14L558.41,332.45L560,332.6L561.59,334.21L564.77,334.86L566.36,332.8L569.55,335.62L571.14,335.21L572.73,335.52L574.32,337.88L577.5,340.74L579.09,340.69L580.68,342.1L582.27,342.45L583.86,343.66L585.45,343.71L587.05,343.41L588.64,344.31L590.23,344.87L591.82,342.5L593.41,342.25L595,340.34L596.59,340.24L598.18,339.13L599.77,335.26L601.36,334.21L606.14,335.97L607.73,335.67L609.32,336.67L610.91,340.24L614.09,341.8L615.68,342.05L617.27,343.81L618.86,344.16L620.45,344.81L622.05,344.11L623.64,341.75L625.23,340.74L626.82,339.89L628.41,345.57L631.59,340.34L633.18,340.39L634.77,339.69L636.36,338.13L637.95,338.23L639.55,329.84L641.14,331.29L642.73,331.14L644.32,335.52L645.91,331.29L647.5,329.74L649.09,329.48L653.86,305.81L655.45,291.79L657.05,288.77L658.64,282.84L660.23,281.78L661.82,273.74L669.77,224.53L671.36,222.92L672.95,206.49" style="vector-effect: non-scaling-stroke; fill: none; stroke: rgb(8, 115, 191); stroke-opacity: 1; stroke-width: 0.5px; opacity: 1;"/></g><g class="points"/><g class="text"/></g><g class="trace scatter trace8dd54e" style="stroke-miterlimit: 2;"><g class="fills"><g><path class="js-fill" d="M688.86,380L672.95,380L672.95,206.49L676.14,183.01L677.73,172.76L680.91,151.15L682.5,148.88L688.86,107.87" style="fill: rgb(8, 115, 191); fill-opacity: 0.4; stroke-width: 0;"/></g></g><g class="errorbars"/><g class="lines"><path class="js-line" d="M672.95,206.49L676.14,183.01L677.73,172.76L680.91,151.15L682.5,148.88L688.86,107.87" style="vector-effect: non-scaling-stroke; fill: none; stroke: rgb(8, 115, 191); stroke-opacity: 1; stroke-width: 2px; opacity: 1;"/></g><g class="points"/><g class="text"/></g><g class="trace scatter trace54feba" style="stroke-miterlimit: 2; opacity: 1;"><g class="fills"/><g class="errorbars"/><g class="lines"/><g class="points"><path class="point" transform="translate(688.86,107.87)" d="M15,0A15,15 0 1,1 0,-15A15,15 0 0,1 15,0Z" style="opacity: 1; stroke-width: 0px; fill: rgb(8, 115, 191); fill-opacity: 1;"/></g><g class="text"/></g></g></g><g class="overplot"/><path class="xlines-above crisp" style="fill: none; stroke-width: 1px; stroke: rgb(0, 0, 0); stroke-opacity: 0;" d=""/><path class="ylines-above crisp" style="fill: none;" d="M0,0"/><g class="overlines-above"/><g class="xaxislayer-above"><path class="xtick ticks crisp" d="M0,450v-5" transform="translate(102.5,0)" style="stroke: rgb(68, 68, 68); stroke-opacity: 1; stroke-width: 1px;"/><path class="xtick ticks crisp" d="M0,450v-5" transform="translate(199.55,0)" style="stroke: rgb(68, 68, 68); stroke-opacity: 1; stroke-width: 1px;"/><path class="xtick ticks crisp" d="M0,450v-5" transform="translate(293.40999999999997,0)" style="stroke: rgb(68, 68, 68); stroke-opacity: 1; stroke-width: 1px;"/><path class="xtick ticks crisp" d="M0,450v-5" transform="translate(390.45,0)" style="stroke: rgb(68, 68, 68); stroke-opacity: 1; stroke-width: 1px;"/><path class="xtick ticks crisp" d="M0,450v-5" transform="translate(487.5,0)" style="stroke: rgb(68, 68, 68); stroke-opacity: 1; stroke-width: 1px;"/><path class="xtick ticks crisp" d="M0,450v-5" transform="translate(586.14,0)" style="stroke: rgb(68, 68, 68); stroke-opacity: 1; stroke-width: 1px;"/><path class="xtick ticks crisp" d="M0,450v-5" transform="translate(683.18,0)" style="stroke: rgb(68, 68, 68); stroke-opacity: 1; stroke-width: 1px;"/><g class="xtick"><text text-anchor="middle" x="0" y="469" transform="translate(102.5,0)" style="font-family: 'Open Sans', verdana, arial, sans-serif; font-size: 18px; fill: rgb(42, 63, 95); fill-opacity: 1; white-space: pre;">01/11</text></g><g class="xtick"><text text-anchor="middle" x="0" y="469" transform="translate(199.55,0)" style="font-family: 'Open Sans', verdana, arial, sans-serif; font-size: 18px; fill: rgb(42, 63, 95); fill-opacity: 1; white-space: pre;">01/01</text></g><g class="xtick"><text text-anchor="middle" x="0" y="469" transform="translate(293.40999999999997,0)" style="font-family: 'Open Sans', verdana, arial, sans-serif; font-size: 18px; fill: rgb(42, 63, 95); fill-opacity: 1; white-space: pre;">01/03</text></g><g class="xtick"><text text-anchor="middle" x="0" y="469" transform="translate(390.45,0)" style="font-family: 'Open Sans', verdana, arial, sans-serif; font-size: 18px; fill: rgb(42, 63, 95); fill-opacity: 1; white-space: pre;">01/05</text></g><g class="xtick"><text text-anchor="middle" x="0" y="469" transform="translate(487.5,0)" style="font-family: 'Open Sans', verdana, arial, sans-serif; font-size: 18px; fill: rgb(42, 63, 95); fill-opacity: 1; white-space: pre;">01/07</text></g><g class="xtick"><text text-anchor="middle" x="0" y="469" transform="translate(586.14,0)" style="font-family: 'Open Sans', verdana, arial, sans-serif; font-size: 18px; fill: rgb(42, 63, 95); fill-opacity: 1; white-space: pre;">01/09</text></g><g class="xtick"><text text-anchor="middle" x="0" y="469" transform="translate(683.18,0)" style="font-family: 'Open Sans', verdana, arial, sans-serif; font-size: 18px; fill: rgb(42, 63, 95); fill-opacity: 1; white-space: pre;">01/11</text></g></g><g class="yaxislayer-above"/><g class="overaxes-above"/></g></g><g class="polarlayer"/><g class="ternarylayer"/><g class="geolayer"/><g class="funnelarealayer"/><g class="pielayer"/><g class="treemaplayer"/><g class="sunburstlayer"/><g class="glimages"/><defs id="topdefs-150e79"><g class="clips"/></defs><g class="layer-above"><g class="imagelayer"/><g class="shapelayer"><path data-index="0" fill-rule="evenodd" d="M-844.09,416.84L318.86,416.84" clip-path="url('#clip150e79xy')" style="opacity: 1; stroke: rgb(255, 0, 0); stroke-opacity: 1; fill: rgb(0, 0, 0); fill-opacity: 0; stroke-dasharray: 3px, 3px; stroke-width: 1.5px;"/></g></g><g class="infolayer"><g class="g-gtitle"><text class="gtitle" x="375" y="25" text-anchor="middle" dy="0.7em" style="font-family: 'Open Sans', verdana, arial, sans-serif; font-size: 50px; fill: rgb(42, 63, 95); opacity: 1; font-weight: normal; white-space: pre;"><tspan style="font-weight:bold">Essonne (91)</tspan></text></g><g class="g-xtitle"/><g class="annotation" data-index="0" style="opacity: 1;"><g class="annotation-text-g" transform="rotate(0,696.86,117.87)"><g class="cursor-pointer" transform="translate(639, 82)"><rect class="bg" x="0.5" y="0.5" width="115" height="71" style="stroke-width: 1px; stroke: rgb(0, 0, 0); stroke-opacity: 0; fill: rgb(255, 255, 255); fill-opacity: 0.6;"/><text class="annotation-text" text-anchor="middle" x="57.8125" y="55.5" style="font-family: 'Open Sans', verdana, arial, sans-serif; font-size: 50px; fill: rgb(8, 115, 191); fill-opacity: 1; white-space: pre;"> <tspan style="font-weight:bold">410 </tspan></text></g></g><g class="annotation-arrow-g" style="opacity: 1;"><path d="M725.26,153.37L736.86,167.87" style="stroke-width: 1px; stroke: rgb(8, 115, 191); stroke-opacity: 1; stroke-dasharray: 0px, 0px, 18.569px, 18.569px;"/></g></g></g></svg>