<svg class="main-svg" xmlns="http://www.w3.org/2000/svg" xmlns:xlink="http://www.w3.org/1999/xlink" width="1125" height="750" style="" viewBox="0 0 750 500"><rect x="0" y="0" width="750" height="500" style="fill: rgb(0, 0, 0); fill-opacity: 0;"/><defs id="defs-0291ba"><g class="clips"><clipPath id="clip0291baxyplot" class="plotclip"><rect width="700" height="380"/></clipPath><clipPath class="axesclip" id="clip0291bax"><rect x="50" y="0" width="700" height="500"/></clipPath><clipPath class="axesclip" id="clip0291bay"><rect x="0" y="70" width="750" height="380"/></clipPath><clipPath class="axesclip" id="clip0291baxy"><rect x="50" y="70" width="700" height="380"/></clipPath></g><g class="gradients"/></defs><g class="bglayer"><rect class="bg" x="50" y="70" width="700" height="380" style="fill: rgb(0, 0, 0); fill-opacity: 0; stroke-width: 0;"/></g><g class="layer-below"><g class="imagelayer"/><g class="shapelayer"/></g><g class="cartesianlayer"><g class="subplot xy"><g class="layer-subplot"><g class="shapelayer"/><g class="imagelayer"/></g><g class="gridlayer"><g class="x"><path class="xgrid crisp" transform="translate(91.55,0)" d="M0,70v380" style="stroke: rgb(255, 255, 255); stroke-opacity: 1; stroke-width: 1px;"/><path class="xgrid crisp" transform="translate(168.35,0)" d="M0,70v380" style="stroke: rgb(255, 255, 255); stroke-opacity: 1; stroke-width: 1px;"/><path class="xgrid crisp" transform="translate(242.63,0)" d="M0,70v380" style="stroke: rgb(255, 255, 255); stroke-opacity: 1; stroke-width: 1px;"/><path class="xgrid crisp" transform="translate(319.42,0)" d="M0,70v380" style="stroke: rgb(255, 255, 255); stroke-opacity: 1; stroke-width: 1px;"/><path class="xgrid crisp" transform="translate(396.22,0)" d="M0,70v380" style="stroke: rgb(255, 255, 255); stroke-opacity: 1; stroke-width: 1px;"/><path class="xgrid crisp" transform="translate(474.28,0)" d="M0,70v380" style="stroke: rgb(255, 255, 255); stroke-opacity: 1; stroke-width: 1px;"/><path class="xgrid crisp" transform="translate(551.0799999999999,0)" d="M0,70v380" style="stroke: rgb(255, 255, 255); stroke-opacity: 1; stroke-width: 1px;"/><path class="xgrid crisp" transform="translate(627.88,0)" d="M0,70v380" style="stroke: rgb(255, 255, 255); stroke-opacity: 1; stroke-width: 1px;"/><path class="xgrid crisp" transform="translate(702.16,0)" d="M0,70v380" style="stroke: rgb(255, 255, 255); stroke-opacity: 1; stroke-width: 1px;"/></g><g class="y"/></g><g class="zerolinelayer"/><path class="xlines-below"/><path class="ylines-below"/><g class="overlines-below"/><g class="xaxislayer-below"/><g class="yaxislayer-below"/><g class="overaxes-below"/><g class="plot" transform="translate(50, 70)" clip-path="url('#clip0291baxyplot')"><g class="scatterlayer mlayer"><g class="trace scatter trace439366" style="stroke-miterlimit: 2;"><g class="fills"><g><path class="js-fill" d="M678.6,380L-171.22,380L-171.22,378.96L-135.97,379.69L-134.71,379.69L-47.84,378.75L-46.58,378.65L-37.77,377.65L-36.51,377.15L-30.22,375.25L-28.96,374.85L-26.44,374.69L-25.18,374.63L-22.66,374.19L-21.4,373.71L-16.37,371.86L-15.11,371.83L-11.33,370.29L-10.07,370.27L-7.55,369.86L-6.29,369.88L-5.04,369.63L-3.78,370.65L2.52,370.23L3.78,369.88L10.07,367.56L11.33,367.58L16.37,365.73L17.63,365.75L21.4,364.86L22.66,363.54L27.7,357.17L28.96,357.27L33.99,348.69L35.25,348.44L37.77,347.36L39.03,345.71L40.29,345.31L41.55,345.88L42.81,347.52L44.06,347.33L46.58,347.34L47.84,349.38L49.1,351.83L50.36,356.4L52.88,357.44L54.14,358.73L55.4,359.11L56.65,361.13L57.91,362.61L59.17,360.92L61.69,364.27L62.95,365.27L64.21,365.17L65.47,366.29L69.24,368.96L70.5,370L75.54,369.83L76.8,369.94L80.58,370.69L81.83,370.46L84.35,369.98L85.61,369.46L86.87,369.27L88.13,368.08L91.91,367.61L93.17,366.9L96.94,364.19L98.2,363.96L100.72,363.5L101.98,362.54L103.24,361.54L104.5,362.46L105.76,365.46L107.01,365.21L109.53,365.04L110.79,364.54L112.05,364.92L113.31,364.13L114.57,363.98L115.83,362.27L117.09,361.96L118.35,360.19L119.6,360.52L120.86,359.86L122.12,359.73L123.38,355.84L125.9,356.63L127.16,355.31L129.68,355.36L130.94,353.48L132.19,352.84L133.45,353.31L134.71,353.08L135.97,353.81L138.49,352.59L139.75,353.31L144.78,352.38L146.04,353.48L148.56,355.92L149.82,355.38L152.34,354.83L153.6,353.46L156.12,350.71L157.37,350.17L159.89,351.29L161.15,351.77L163.67,354.69L164.93,354.79L168.71,356.44L169.96,356.09L173.74,355.38L175,352.96L182.55,348.59L183.81,349.04L186.33,348.34L187.59,348.38L190.11,348.4L191.37,349.19L195.14,352.11L196.4,352.33L198.92,353.29L200.18,352.86L203.96,349.5L205.22,349.23L208.99,343.19L210.25,341.5L212.77,339.88L214.03,339.9L216.55,335.92L217.81,335.02L222.84,332.71L224.1,333.84L225.36,335.79L226.62,335.31L230.4,334.09L231.65,334.21L232.91,341.4L234.17,340.71L236.69,343.15L237.95,346.09L240.47,346.48L241.73,341.42L242.99,343.75L244.24,344.04L246.76,345.65L248.02,346.27L249.28,346.31L250.54,347.13L251.8,346.88L253.06,348L255.58,349.96L256.83,349.86L258.09,350.33L259.35,349.79L264.39,353.46L265.65,356.19L266.91,355.56L268.17,357.71L273.2,359.86L274.46,359.65L278.24,361.15L279.5,360.61L280.76,363.6L282.01,363.48L284.53,363.23L285.79,364.46L287.05,364.17L288.31,364.77L289.57,362.81L290.83,364.1L293.35,364.35L294.6,366.86L298.38,368.25L299.64,368.44L302.16,368.75L303.42,367.52L308.45,372.67L309.71,373.13L310.97,373.42L312.23,374.81L318.53,376.54L319.78,376.54L331.12,377.92L332.37,377.79L339.93,376.63L341.19,376.65L343.71,376.75L344.96,376.62L348.74,376.12L350,375.83L357.55,374.81L358.81,375.44L367.63,373L368.88,372.38L372.66,371.98L373.92,372.25L377.7,372.33L378.96,372.56L381.47,372.77L382.73,372.38L387.77,370.69L389.03,370.67L397.84,371.23L399.1,370.61L402.88,370.65L404.14,371.11L410.43,372.02L411.69,371.42L420.5,373.75L421.76,374.12L428.06,376.13L429.32,376.31L438.13,377.63L439.39,377.37L444.42,377.52L445.68,377.4L467.09,377.71L468.35,377.4L479.68,377.65L480.94,377.37L485.97,376.88L487.23,376.9L493.53,377.21L494.78,377.13L501.08,376.5L502.34,376.29L508.63,374.79L509.89,375.29L512.41,374.19L513.67,374.19L517.45,370.9L518.71,368.52L522.48,366.61L523.74,364.86L528.78,358.4L530.04,357.35L531.29,357.08L532.55,355.15L533.81,354.46L535.07,352.83L540.11,349.4L541.37,347.42L542.63,345.34L543.88,344.9L546.4,343.83L547.66,344.52L551.44,344.71L552.7,344.46L555.22,343.86L556.47,344.08L557.73,343.98L558.99,342.56L560.25,342.9L561.51,341.02L564.03,336.02L565.29,338.44L566.55,337.31L567.81,326.44L572.84,274.46L574.1,272.99L575.36,270.46L576.62,242.88L579.14,211.51L580.4,202.97L581.65,192.24L582.91,168.99L584.17,165.47L585.43,159.2L586.69,154.76L587.95,140.37L591.73,97.72L592.99,97.68L596.76,34.91L598.02,23.23L599.28,12.75L600.54,9.83L603.06,0L604.32,5.37L606.83,21.04L608.09,26.79L609.35,33.1L610.61,34.23L618.17,129.85L619.42,135.35L621.94,192.7L623.2,213.13L625.72,241.61L626.98,248.13L628.24,250.2L629.5,263.15L634.53,288.69L635.79,292.4L637.05,292.71L638.31,297.61L640.83,303L642.09,307.52L648.38,317.36L649.64,317.29L650.9,317.15L652.16,315.8L653.42,314.52L654.68,314.54L662.23,291.4L663.49,290.82L666.01,278.3L667.27,274.69L671.04,261.94L672.3,260.69L678.6,225.42" style="fill: rgb(8, 115, 191); fill-opacity: 0.2; stroke-width: 0;"/></g></g><g class="errorbars"/><g class="lines"><path class="js-line" d="M-171.22,378.96L-135.97,379.69L-134.71,379.69L-47.84,378.75L-46.58,378.65L-37.77,377.65L-36.51,377.15L-30.22,375.25L-28.96,374.85L-26.44,374.69L-25.18,374.63L-22.66,374.19L-21.4,373.71L-16.37,371.86L-15.11,371.83L-11.33,370.29L-10.07,370.27L-7.55,369.86L-6.29,369.88L-5.04,369.63L-3.78,370.65L2.52,370.23L3.78,369.88L10.07,367.56L11.33,367.58L16.37,365.73L17.63,365.75L21.4,364.86L22.66,363.54L27.7,357.17L28.96,357.27L33.99,348.69L35.25,348.44L37.77,347.36L39.03,345.71L40.29,345.31L41.55,345.88L42.81,347.52L44.06,347.33L46.58,347.34L47.84,349.38L49.1,351.83L50.36,356.4L52.88,357.44L54.14,358.73L55.4,359.11L56.65,361.13L57.91,362.61L59.17,360.92L61.69,364.27L62.95,365.27L64.21,365.17L65.47,366.29L69.24,368.96L70.5,370L75.54,369.83L76.8,369.94L80.58,370.69L81.83,370.46L84.35,369.98L85.61,369.46L86.87,369.27L88.13,368.08L91.91,367.61L93.17,366.9L96.94,364.19L98.2,363.96L100.72,363.5L101.98,362.54L103.24,361.54L104.5,362.46L105.76,365.46L107.01,365.21L109.53,365.04L110.79,364.54L112.05,364.92L113.31,364.13L114.57,363.98L115.83,362.27L117.09,361.96L118.35,360.19L119.6,360.52L120.86,359.86L122.12,359.73L123.38,355.84L125.9,356.63L127.16,355.31L129.68,355.36L130.94,353.48L132.19,352.84L133.45,353.31L134.71,353.08L135.97,353.81L138.49,352.59L139.75,353.31L144.78,352.38L146.04,353.48L148.56,355.92L149.82,355.38L152.34,354.83L153.6,353.46L156.12,350.71L157.37,350.17L159.89,351.29L161.15,351.77L163.67,354.69L164.93,354.79L168.71,356.44L169.96,356.09L173.74,355.38L175,352.96L182.55,348.59L183.81,349.04L186.33,348.34L187.59,348.38L190.11,348.4L191.37,349.19L195.14,352.11L196.4,352.33L198.92,353.29L200.18,352.86L203.96,349.5L205.22,349.23L208.99,343.19L210.25,341.5L212.77,339.88L214.03,339.9L216.55,335.92L217.81,335.02L222.84,332.71L224.1,333.84L225.36,335.79L226.62,335.31L230.4,334.09L231.65,334.21L232.91,341.4L234.17,340.71L236.69,343.15L237.95,346.09L240.47,346.48L241.73,341.42L242.99,343.75L244.24,344.04L246.76,345.65L248.02,346.27L249.28,346.31L250.54,347.13L251.8,346.88L253.06,348L255.58,349.96L256.83,349.86L258.09,350.33L259.35,349.79L264.39,353.46L265.65,356.19L266.91,355.56L268.17,357.71L273.2,359.86L274.46,359.65L278.24,361.15L279.5,360.61L280.76,363.6L282.01,363.48L284.53,363.23L285.79,364.46L287.05,364.17L288.31,364.77L289.57,362.81L290.83,364.1L293.35,364.35L294.6,366.86L298.38,368.25L299.64,368.44L302.16,368.75L303.42,367.52L308.45,372.67L309.71,373.13L310.97,373.42L312.23,374.81L318.53,376.54L319.78,376.54L331.12,377.92L332.37,377.79L339.93,376.63L341.19,376.65L343.71,376.75L344.96,376.62L348.74,376.12L350,375.83L357.55,374.81L358.81,375.44L367.63,373L368.88,372.38L372.66,371.98L373.92,372.25L377.7,372.33L378.96,372.56L381.47,372.77L382.73,372.38L387.77,370.69L389.03,370.67L397.84,371.23L399.1,370.61L402.88,370.65L404.14,371.11L410.43,372.02L411.69,371.42L420.5,373.75L421.76,374.12L428.06,376.13L429.32,376.31L438.13,377.63L439.39,377.37L444.42,377.52L445.68,377.4L467.09,377.71L468.35,377.4L479.68,377.65L480.94,377.37L485.97,376.88L487.23,376.9L493.53,377.21L494.78,377.13L501.08,376.5L502.34,376.29L508.63,374.79L509.89,375.29L512.41,374.19L513.67,374.19L517.45,370.9L518.71,368.52L522.48,366.61L523.74,364.86L528.78,358.4L530.04,357.35L531.29,357.08L532.55,355.15L533.81,354.46L535.07,352.83L540.11,349.4L541.37,347.42L542.63,345.34L543.88,344.9L546.4,343.83L547.66,344.52L551.44,344.71L552.7,344.46L555.22,343.86L556.47,344.08L557.73,343.98L558.99,342.56L560.25,342.9L561.51,341.02L564.03,336.02L565.29,338.44L566.55,337.31L567.81,326.44L572.84,274.46L574.1,272.99L575.36,270.46L576.62,242.88L579.14,211.51L580.4,202.97L581.65,192.24L582.91,168.99L584.17,165.47L585.43,159.2L586.69,154.76L587.95,140.37L591.73,97.72L592.99,97.68L596.76,34.91L598.02,23.23L599.28,12.75L600.54,9.83L603.06,0L604.32,5.37L606.83,21.04L608.09,26.79L609.35,33.1L610.61,34.23L618.17,129.85L619.42,135.35L621.94,192.7L623.2,213.13L625.72,241.61L626.98,248.13L628.24,250.2L629.5,263.15L634.53,288.69L635.79,292.4L637.05,292.71L638.31,297.61L640.83,303L642.09,307.52L648.38,317.36L649.64,317.29L650.9,317.15L652.16,315.8L653.42,314.52L654.68,314.54L662.23,291.4L663.49,290.82L666.01,278.3L667.27,274.69L671.04,261.94L672.3,260.69L678.6,225.42" style="vector-effect: non-scaling-stroke; fill: none; stroke: rgb(8, 115, 191); stroke-opacity: 1; stroke-width: 0.5px; opacity: 1;"/></g><g class="points"/><g class="text"/></g><g class="trace scatter trace499bcf" style="stroke-miterlimit: 2;"><g class="fills"><g><path class="js-fill" d="M691.19,380L678.6,380L678.6,225.42L679.86,221.11L681.12,221.63L683.63,206.93L684.89,204.38L687.41,201.13L688.67,201.76L689.93,200.99L691.19,201.82" style="fill: rgb(8, 115, 191); fill-opacity: 0.4; stroke-width: 0;"/></g></g><g class="errorbars"/><g class="lines"><path class="js-line" d="M678.6,225.42L679.86,221.11L681.12,221.63L683.63,206.93L684.89,204.38L687.41,201.13L688.67,201.76L689.93,200.99L691.19,201.82" style="vector-effect: non-scaling-stroke; fill: none; stroke: rgb(8, 115, 191); stroke-opacity: 1; stroke-width: 2px; opacity: 1;"/></g><g class="points"/><g class="text"/></g><g class="trace scatter trace3fb1cb" style="stroke-miterlimit: 2; opacity: 1;"><g class="fills"/><g class="errorbars"/><g class="lines"/><g class="points"><path class="point" transform="translate(691.19,201.82)" d="M15,0A15,15 0 1,1 0,-15A15,15 0 0,1 15,0Z" style="opacity: 1; stroke-width: 0px; fill: rgb(8, 115, 191); fill-opacity: 1;"/></g><g class="text"/></g></g></g><g class="overplot"/><path class="xlines-above crisp" style="fill: none; stroke-width: 1px; stroke: rgb(0, 0, 0); stroke-opacity: 0;" d=""/><path class="ylines-above crisp" style="fill: none;" d="M0,0"/><g class="overlines-above"/><g class="xaxislayer-above"><path class="xtick ticks crisp" d="M0,450v-5" transform="translate(91.55,0)" style="stroke: rgb(68, 68, 68); stroke-opacity: 1; stroke-width: 1px;"/><path class="xtick ticks crisp" d="M0,450v-5" transform="translate(168.35,0)" style="stroke: rgb(68, 68, 68); stroke-opacity: 1; stroke-width: 1px;"/><path class="xtick ticks crisp" d="M0,450v-5" transform="translate(242.63,0)" style="stroke: rgb(68, 68, 68); stroke-opacity: 1; stroke-width: 1px;"/><path class="xtick ticks crisp" d="M0,450v-5" transform="translate(319.42,0)" style="stroke: rgb(68, 68, 68); stroke-opacity: 1; stroke-width: 1px;"/><path class="xtick ticks crisp" d="M0,450v-5" transform="translate(396.22,0)" style="stroke: rgb(68, 68, 68); stroke-opacity: 1; stroke-width: 1px;"/><path class="xtick ticks crisp" d="M0,450v-5" transform="translate(474.28,0)" style="stroke: rgb(68, 68, 68); stroke-opacity: 1; stroke-width: 1px;"/><path class="xtick ticks crisp" d="M0,450v-5" transform="translate(551.0799999999999,0)" style="stroke: rgb(68, 68, 68); stroke-opacity: 1; stroke-width: 1px;"/><path class="xtick ticks crisp" d="M0,450v-5" transform="translate(627.88,0)" style="stroke: rgb(68, 68, 68); stroke-opacity: 1; stroke-width: 1px;"/><path class="xtick ticks crisp" d="M0,450v-5" transform="translate(702.16,0)" style="stroke: rgb(68, 68, 68); stroke-opacity: 1; stroke-width: 1px;"/><g class="xtick"><text text-anchor="middle" x="0" y="469" transform="translate(91.55,0)" style="font-family: 'Open Sans', verdana, arial, sans-serif; font-size: 18px; fill: rgb(42, 63, 95); fill-opacity: 1; white-space: pre;">01/11</text></g><g class="xtick"><text text-anchor="middle" x="0" y="469" transform="translate(168.35,0)" style="font-family: 'Open Sans', verdana, arial, sans-serif; font-size: 18px; fill: rgb(42, 63, 95); fill-opacity: 1; white-space: pre;">01/01</text></g><g class="xtick"><text text-anchor="middle" x="0" y="469" transform="translate(242.63,0)" style="font-family: 'Open Sans', verdana, arial, sans-serif; font-size: 18px; fill: rgb(42, 63, 95); fill-opacity: 1; white-space: pre;">01/03</text></g><g class="xtick"><text text-anchor="middle" x="0" y="469" transform="translate(319.42,0)" style="font-family: 'Open Sans', verdana, arial, sans-serif; font-size: 18px; fill: rgb(42, 63, 95); fill-opacity: 1; white-space: pre;">01/05</text></g><g class="xtick"><text text-anchor="middle" x="0" y="469" transform="translate(396.22,0)" style="font-family: 'Open Sans', verdana, arial, sans-serif; font-size: 18px; fill: rgb(42, 63, 95); fill-opacity: 1; white-space: pre;">01/07</text></g><g class="xtick"><text text-anchor="middle" x="0" y="469" transform="translate(474.28,0)" style="font-family: 'Open Sans', verdana, arial, sans-serif; font-size: 18px; fill: rgb(42, 63, 95); fill-opacity: 1; white-space: pre;">01/09</text></g><g class="xtick"><text text-anchor="middle" x="0" y="469" transform="translate(551.0799999999999,0)" style="font-family: 'Open Sans', verdana, arial, sans-serif; font-size: 18px; fill: rgb(42, 63, 95); fill-opacity: 1; white-space: pre;">01/11</text></g><g class="xtick"><text text-anchor="middle" x="0" y="469" transform="translate(627.88,0)" style="font-family: 'Open Sans', verdana, arial, sans-serif; font-size: 18px; fill: rgb(42, 63, 95); fill-opacity: 1; white-space: pre;">01/01</text></g><g class="xtick"><text text-anchor="middle" x="0" y="469" transform="translate(702.16,0)" style="font-family: 'Open Sans', verdana, arial, sans-serif; font-size: 18px; fill: rgb(42, 63, 95); fill-opacity: 1; white-space: pre;">01/03</text></g></g><g class="yaxislayer-above"/><g class="overaxes-above"/></g></g><g class="polarlayer"/><g class="ternarylayer"/><g class="geolayer"/><g class="funnelarealayer"/><g class="pielayer"/><g class="treemaplayer"/><g class="sunburstlayer"/><g class="glimages"/><defs id="topdefs-0291ba"><g class="clips"/></defs><g class="layer-above"><g class="imagelayer"/><g class="shapelayer"><path data-index="0" fill-rule="evenodd" d="M-657.55,444.52L262.77,444.52" clip-path="url('#clip0291baxy')" style="opacity: 1; stroke: rgb(255, 0, 0); stroke-opacity: 1; fill: rgb(0, 0, 0); fill-opacity: 0; stroke-dasharray: 3px, 3px; stroke-width: 1.5px;"/></g></g><g class="infolayer"><g class="g-gtitle"><text class="gtitle" x="375" y="25" text-anchor="middle" dy="0.7em" style="font-family: 'Open Sans', verdana, arial, sans-serif; font-size: 50px; fill: rgb(42, 63, 95); opacity: 1; font-weight: normal; white-space: pre;"><tspan style="font-weight:bold">Somme (80)</tspan></text></g><g class="g-xtitle"/><g class="annotation" data-index="0" style="opacity: 1;"><g class="annotation-text-g" transform="rotate(0,699.19,211.82)"><g class="cursor-pointer" transform="translate(627, 176)"><rect class="bg" x="0.5" y="0.5" width="143" height="71" style="stroke-width: 1px; stroke: rgb(0, 0, 0); stroke-opacity: 0; fill: rgb(255, 255, 255); fill-opacity: 0.6;"/><text class="annotation-text" text-anchor="middle" x="72.078125" y="55.5" style="font-family: 'Open Sans', verdana, arial, sans-serif; font-size: 50px; fill: rgb(8, 115, 191); fill-opacity: 1; white-space: pre;"> <tspan style="font-weight:bold">1626 </tspan></text></g></g><g class="annotation-arrow-g" style="opacity: 1;"><path d="M727.59,247.32L739.19,261.82" style="stroke-width: 1px; stroke: rgb(8, 115, 191); stroke-opacity: 1; stroke-dasharray: 0px, 0px, 18.569px, 18.569px;"/></g></g></g></svg>