<svg class="main-svg" xmlns="http://www.w3.org/2000/svg" xmlns:xlink="http://www.w3.org/1999/xlink" width="1125" height="750" style="" viewBox="0 0 750 500"><rect x="0" y="0" width="750" height="500" style="fill: rgb(0, 0, 0); fill-opacity: 0;"/><defs id="defs-0a91bd"><g class="clips"><clipPath id="clip0a91bdxyplot" class="plotclip"><rect width="700" height="380"/></clipPath><clipPath class="axesclip" id="clip0a91bdx"><rect x="50" y="0" width="700" height="500"/></clipPath><clipPath class="axesclip" id="clip0a91bdy"><rect x="0" y="70" width="750" height="380"/></clipPath><clipPath class="axesclip" id="clip0a91bdxy"><rect x="50" y="70" width="700" height="380"/></clipPath></g><g class="gradients"/></defs><g class="bglayer"><rect class="bg" x="50" y="70" width="700" height="380" style="fill: rgb(0, 0, 0); fill-opacity: 0; stroke-width: 0;"/></g><g class="layer-below"><g class="imagelayer"/><g class="shapelayer"/></g><g class="cartesianlayer"><g class="subplot xy"><g class="layer-subplot"><g class="shapelayer"/><g class="imagelayer"/></g><g class="gridlayer"><g class="x"><path class="xgrid crisp" transform="translate(52.21,0)" d="M0,70v380" style="stroke: rgb(255, 255, 255); stroke-opacity: 1; stroke-width: 1px;"/><path class="xgrid crisp" transform="translate(153.95,0)" d="M0,70v380" style="stroke: rgb(255, 255, 255); stroke-opacity: 1; stroke-width: 1px;"/><path class="xgrid crisp" transform="translate(253.48,0)" d="M0,70v380" style="stroke: rgb(255, 255, 255); stroke-opacity: 1; stroke-width: 1px;"/><path class="xgrid crisp" transform="translate(354.11,0)" d="M0,70v380" style="stroke: rgb(255, 255, 255); stroke-opacity: 1; stroke-width: 1px;"/><path class="xgrid crisp" transform="translate(455.85,0)" d="M0,70v380" style="stroke: rgb(255, 255, 255); stroke-opacity: 1; stroke-width: 1px;"/><path class="xgrid crisp" transform="translate(557.5799999999999,0)" d="M0,70v380" style="stroke: rgb(255, 255, 255); stroke-opacity: 1; stroke-width: 1px;"/><path class="xgrid crisp" transform="translate(657.11,0)" d="M0,70v380" style="stroke: rgb(255, 255, 255); stroke-opacity: 1; stroke-width: 1px;"/></g><g class="y"/></g><g class="zerolinelayer"/><path class="xlines-below"/><path class="ylines-below"/><g class="overlines-below"/><g class="xaxislayer-below"/><g class="yaxislayer-below"/><g class="overaxes-below"/><g class="plot" transform="translate(50, 70)" clip-path="url('#clip0a91bdxyplot')"><g class="scatterlayer mlayer"><g class="trace scatter tracec4a7a4" style="stroke-miterlimit: 2;"><g class="fills"><g><path class="js-fill" d="M681.2,380L-150.39,380L-150.39,378.94L-134.91,379.73L-133.81,379.66L-103.95,379.73L-102.84,379.74L-79.62,379.64L-78.52,379.64L-59.72,378.78L-58.61,378.77L-37.6,377.09L-36.49,377.04L-28.75,375.16L-27.65,374.58L-12.16,371.64L-11.06,370.96L-9.95,368.88L-8.85,369.28L-3.32,369.56L-2.21,371.26L3.32,366.79L4.42,365.35L6.64,363.25L7.74,363.04L9.95,362.75L11.06,360.75L14.38,356.73L15.48,354.26L18.8,351.71L19.91,349.39L21.01,346.36L22.12,346.14L24.33,344.86L25.43,344.65L27.65,340.46L28.75,339.44L32.07,331.23L33.18,331.47L34.28,328.69L35.39,328.13L36.49,327.62L37.6,328.47L39.81,332.57L40.92,332.69L43.13,339.96L44.23,347.68L47.55,354.13L48.66,354.27L50.87,359.5L51.97,357.38L54.19,361.76L55.29,362.42L56.4,362.45L57.5,364.61L63.03,367.88L64.14,367.98L67.46,370.13L68.56,370.6L70.77,370.87L71.88,370.17L75.2,369.17L76.3,368.53L78.52,367.78L79.62,368.4L84.04,367.96L85.15,367.76L88.47,367.62L89.57,366.69L91.79,367.07L92.89,369.15L98.42,368.97L99.53,368.68L100.63,368.63L101.74,367.45L103.95,366.91L105.06,366.12L107.27,363.5L108.37,360.83L110.58,360.72L111.69,360L115.01,358.22L116.11,356.58L118.33,356.68L119.43,355.44L121.64,355.1L122.75,355.13L126.07,355.76L127.17,355.43L130.49,355.33L131.6,354.99L133.81,354.62L134.91,355.19L136.02,354.49L137.12,355.22L140.44,356.52L141.55,356.6L143.76,358.9L144.87,358.48L148.18,359.09L149.29,359L151.5,357.44L152.61,357.09L155.92,354.8L157.03,354.74L160.35,352.44L161.45,352.26L163.67,351.73L164.77,351.69L168.09,353.12L169.19,352.27L171.41,351.64L172.51,351.69L173.62,351.29L174.72,349.75L176.94,346.98L178.04,346.15L180.25,345.56L181.36,343.37L182.46,343.1L183.57,342.04L186.89,337.34L187.99,336.97L194.63,325.91L195.73,325.94L196.84,325.16L197.95,323.4L200.16,321.8L201.26,322.5L203.48,322.21L204.58,332.62L205.69,330.86L206.79,331.85L207.9,333.58L209,333.63L210.11,335.09L211.22,335.3L212.32,325.64L213.43,330.62L215.64,334.01L216.75,334.82L220.06,336.92L221.17,336.72L222.27,336.04L223.38,336.41L225.59,338.28L226.7,338.25L233.33,351.67L234.44,351.62L239.97,354.88L241.07,354.2L242.18,354.26L243.29,356.11L245.5,356.91L246.6,359.64L249.92,358.76L251.03,359.07L253.24,360.25L254.34,357.87L255.45,359.6L256.56,359.78L257.66,359.84L258.77,364.21L260.98,365.18L262.09,366.03L265.4,367.45L266.51,365.93L268.72,369.11L269.83,370.27L272.04,372.14L273.14,372.24L278.67,375.78L279.78,376.16L281.99,376.96L283.1,377.35L298.58,378.85L299.68,378.58L312.95,377.36L314.06,377.08L315.17,377.36L316.27,376.79L321.8,373.91L322.91,372.59L327.33,371.39L328.44,370.2L331.75,369.52L332.86,369.42L339.49,367.7L340.6,367.07L342.81,367.34L343.92,366.7L348.34,366.5L349.45,365.62L352.76,365.9L353.87,366.34L356.08,366.48L357.19,366.86L366.03,366.28L367.14,366.79L370.46,368.84L371.56,369.25L379.3,371.27L380.41,371.27L384.83,371.58L385.94,371.9L392.58,373.53L393.68,374.12L401.42,375.76L402.53,375.95L409.16,376.56L410.27,376.65L416.9,376.83L418.01,376.77L423.54,375.24L424.64,374.96L427.96,374.18L429.07,373.83L435.7,374L436.81,374.98L439.02,374.59L440.13,374.4L443.44,374.02L444.55,372.52L446.76,372.45L447.87,373.29L453.4,370.25L454.5,369.23L455.61,367.13L456.71,366.77L461.14,363.94L462.24,362.86L463.35,361.52L464.45,358.72L465.56,357.42L466.67,357.39L471.09,348.44L472.2,348.18L475.51,345.87L476.62,344.56L477.73,343.46L478.83,344.16L481.04,342.18L482.15,341.91L484.36,338.93L485.47,337.99L489.89,335.55L491,333.17L492.1,330.4L493.21,324.42L495.42,311.53L496.52,314.89L497.63,312.78L498.74,287.3L503.16,182.74L504.27,181.06L505.37,176.88L506.48,135.3L508.69,99.27L509.79,92.17L510.9,75.52L512.01,42.44L513.11,38.1L514.22,42.35L515.32,43.69L516.43,38.66L518.64,31.12L519.75,25.56L521.96,15.73L523.06,7.86L525.28,0L526.38,0.84L527.49,0.88L528.59,3.49L529.7,1.05L530.81,12.79L535.23,49.52L536.33,53.3L540.76,130.59L541.86,150.19L542.97,167.38L544.08,172.64L546.29,226.02L547.39,242.3L549.61,269.31L550.71,277.49L551.82,279.32L552.92,289.95L556.24,309.69L557.35,314.66L558.45,317.58L559.56,317.81L561.77,324.75L562.88,326.6L566.19,334.21L567.3,335.11L569.51,338.96L570.62,339.88L571.72,340.78L572.83,340.45L576.15,340.55L577.25,339.67L579.46,337.29L580.57,335.25L581.67,332.48L582.78,331.92L584.99,323.17L586.1,319.55L589.42,309.99L590.52,308.89L597.16,272.3L598.26,271.95L600.47,256.48L601.58,251.91L603.79,247.26L604.9,245.6L606,245.41L607.11,243.77L609.32,241.55L610.43,240.13L611.53,238.66L612.64,238.46L613.74,238.98L614.85,243.68L619.27,260.14L620.38,264.12L621.48,264.59L622.59,289.79L623.7,285.35L624.8,290.99L628.12,306.59L629.23,307.08L630.33,293.7L631.44,308.48L635.86,324.42L636.97,325.33L639.18,331.29L640.28,331.86L643.6,333.11L644.71,333.08L650.24,338.59L651.34,339.72L652.45,339.68L653.55,342.76L656.87,348.53L657.98,350.52L659.08,352.45L660.19,352.88L662.4,356.65L663.51,358.41L664.61,361.89L665.72,360.87L667.93,360.94L669.04,360.11L671.25,359.06L672.35,356.01L673.46,356.68L674.57,355.62L675.67,355.41L676.78,359.41L678.99,351.05L680.09,348.57L681.2,346.31" style="fill: rgb(8, 115, 191); fill-opacity: 0.2; stroke-width: 0;"/></g></g><g class="errorbars"/><g class="lines"><path class="js-line" d="M-150.39,378.94L-134.91,379.73L-133.81,379.66L-103.95,379.73L-102.84,379.74L-79.62,379.64L-78.52,379.64L-59.72,378.78L-58.61,378.77L-37.6,377.09L-36.49,377.04L-28.75,375.16L-27.65,374.58L-12.16,371.64L-11.06,370.96L-9.95,368.88L-8.85,369.28L-3.32,369.56L-2.21,371.26L3.32,366.79L4.42,365.35L6.64,363.25L7.74,363.04L9.95,362.75L11.06,360.75L14.38,356.73L15.48,354.26L18.8,351.71L19.91,349.39L21.01,346.36L22.12,346.14L24.33,344.86L25.43,344.65L27.65,340.46L28.75,339.44L32.07,331.23L33.18,331.47L34.28,328.69L35.39,328.13L36.49,327.62L37.6,328.47L39.81,332.57L40.92,332.69L43.13,339.96L44.23,347.68L47.55,354.13L48.66,354.27L50.87,359.5L51.97,357.38L54.19,361.76L55.29,362.42L56.4,362.45L57.5,364.61L63.03,367.88L64.14,367.98L67.46,370.13L68.56,370.6L70.77,370.87L71.88,370.17L75.2,369.17L76.3,368.53L78.52,367.78L79.62,368.4L84.04,367.96L85.15,367.76L88.47,367.62L89.57,366.69L91.79,367.07L92.89,369.15L98.42,368.97L99.53,368.68L100.63,368.63L101.74,367.45L103.95,366.91L105.06,366.12L107.27,363.5L108.37,360.83L110.58,360.72L111.69,360L115.01,358.22L116.11,356.58L118.33,356.68L119.43,355.44L121.64,355.1L122.75,355.13L126.07,355.76L127.17,355.43L130.49,355.33L131.6,354.99L133.81,354.62L134.91,355.19L136.02,354.49L137.12,355.22L140.44,356.52L141.55,356.6L143.76,358.9L144.87,358.48L148.18,359.09L149.29,359L151.5,357.44L152.61,357.09L155.92,354.8L157.03,354.74L160.35,352.44L161.45,352.26L163.67,351.73L164.77,351.69L168.09,353.12L169.19,352.27L171.41,351.64L172.51,351.69L173.62,351.29L174.72,349.75L176.94,346.98L178.04,346.15L180.25,345.56L181.36,343.37L182.46,343.1L183.57,342.04L186.89,337.34L187.99,336.97L194.63,325.91L195.73,325.94L196.84,325.16L197.95,323.4L200.16,321.8L201.26,322.5L203.48,322.21L204.58,332.62L205.69,330.86L206.79,331.85L207.9,333.58L209,333.63L210.11,335.09L211.22,335.3L212.32,325.64L213.43,330.62L215.64,334.01L216.75,334.82L220.06,336.92L221.17,336.72L222.27,336.04L223.38,336.41L225.59,338.28L226.7,338.25L233.33,351.67L234.44,351.62L239.97,354.88L241.07,354.2L242.18,354.26L243.29,356.11L245.5,356.91L246.6,359.64L249.92,358.76L251.03,359.07L253.24,360.25L254.34,357.87L255.45,359.6L256.56,359.78L257.66,359.84L258.77,364.21L260.98,365.18L262.09,366.03L265.4,367.45L266.51,365.93L268.72,369.11L269.83,370.27L272.04,372.14L273.14,372.24L278.67,375.78L279.78,376.16L281.99,376.96L283.1,377.35L298.58,378.85L299.68,378.58L312.95,377.36L314.06,377.08L315.17,377.36L316.27,376.79L321.8,373.91L322.91,372.59L327.33,371.39L328.44,370.2L331.75,369.52L332.86,369.42L339.49,367.7L340.6,367.07L342.81,367.34L343.92,366.7L348.34,366.5L349.45,365.62L352.76,365.9L353.87,366.34L356.08,366.48L357.19,366.86L366.03,366.28L367.14,366.79L370.46,368.84L371.56,369.25L379.3,371.27L380.41,371.27L384.83,371.58L385.94,371.9L392.58,373.53L393.68,374.12L401.42,375.76L402.53,375.95L409.16,376.56L410.27,376.65L416.9,376.83L418.01,376.77L423.54,375.24L424.64,374.96L427.96,374.18L429.07,373.83L435.7,374L436.81,374.98L439.02,374.59L440.13,374.4L443.44,374.02L444.55,372.52L446.76,372.45L447.87,373.29L453.4,370.25L454.5,369.23L455.61,367.13L456.71,366.77L461.14,363.94L462.24,362.86L463.35,361.52L464.45,358.72L465.56,357.42L466.67,357.39L471.09,348.44L472.2,348.18L475.51,345.87L476.62,344.56L477.73,343.46L478.83,344.16L481.04,342.18L482.15,341.91L484.36,338.93L485.47,337.99L489.89,335.55L491,333.17L492.1,330.4L493.21,324.42L495.42,311.53L496.52,314.89L497.63,312.78L498.74,287.3L503.16,182.74L504.27,181.06L505.37,176.88L506.48,135.3L508.69,99.27L509.79,92.17L510.9,75.52L512.01,42.44L513.11,38.1L514.22,42.35L515.32,43.69L516.43,38.66L518.64,31.12L519.75,25.56L521.96,15.73L523.06,7.86L525.28,0L526.38,0.84L527.49,0.88L528.59,3.49L529.7,1.05L530.81,12.79L535.23,49.52L536.33,53.3L540.76,130.59L541.86,150.19L542.97,167.38L544.08,172.64L546.29,226.02L547.39,242.3L549.61,269.31L550.71,277.49L551.82,279.32L552.92,289.95L556.24,309.69L557.35,314.66L558.45,317.58L559.56,317.81L561.77,324.75L562.88,326.6L566.19,334.21L567.3,335.11L569.51,338.96L570.62,339.88L571.72,340.78L572.83,340.45L576.15,340.55L577.25,339.67L579.46,337.29L580.57,335.25L581.67,332.48L582.78,331.92L584.99,323.17L586.1,319.55L589.42,309.99L590.52,308.89L597.16,272.3L598.26,271.95L600.47,256.48L601.58,251.91L603.79,247.26L604.9,245.6L606,245.41L607.11,243.77L609.32,241.55L610.43,240.13L611.53,238.66L612.64,238.46L613.74,238.98L614.85,243.68L619.27,260.14L620.38,264.12L621.48,264.59L622.59,289.79L623.7,285.35L624.8,290.99L628.12,306.59L629.23,307.08L630.33,293.7L631.44,308.48L635.86,324.42L636.97,325.33L639.18,331.29L640.28,331.86L643.6,333.11L644.71,333.08L650.24,338.59L651.34,339.72L652.45,339.68L653.55,342.76L656.87,348.53L657.98,350.52L659.08,352.45L660.19,352.88L662.4,356.65L663.51,358.41L664.61,361.89L665.72,360.87L667.93,360.94L669.04,360.11L671.25,359.06L672.35,356.01L673.46,356.68L674.57,355.62L675.67,355.41L676.78,359.41L678.99,351.05L680.09,348.57L681.2,346.31" style="vector-effect: non-scaling-stroke; fill: none; stroke: rgb(8, 115, 191); stroke-opacity: 1; stroke-width: 0.5px; opacity: 1;"/></g><g class="points"/><g class="text"/></g><g class="trace scatter traceb21d80" style="stroke-miterlimit: 2;"><g class="fills"><g><path class="js-fill" d="M692.26,380L681.2,380L681.2,346.31L682.31,344.95L683.41,344.83L684.52,335.66L685.62,337.68L690.05,333.01L691.15,332.67L692.26,329.34" style="fill: rgb(8, 115, 191); fill-opacity: 0.4; stroke-width: 0;"/></g></g><g class="errorbars"/><g class="lines"><path class="js-line" d="M681.2,346.31L682.31,344.95L683.41,344.83L684.52,335.66L685.62,337.68L690.05,333.01L691.15,332.67L692.26,329.34" style="vector-effect: non-scaling-stroke; fill: none; stroke: rgb(8, 115, 191); stroke-opacity: 1; stroke-width: 2px; opacity: 1;"/></g><g class="points"/><g class="text"/></g><g class="trace scatter tracec6ad57" style="stroke-miterlimit: 2; opacity: 1;"><g class="fills"/><g class="errorbars"/><g class="lines"/><g class="points"><path class="point" transform="translate(692.26,329.34)" d="M15,0A15,15 0 1,1 0,-15A15,15 0 0,1 15,0Z" style="opacity: 1; stroke-width: 0px; fill: rgb(8, 115, 191); fill-opacity: 1;"/></g><g class="text"/></g></g></g><g class="overplot"/><path class="xlines-above crisp" style="fill: none; stroke-width: 1px; stroke: rgb(0, 0, 0); stroke-opacity: 0;" d=""/><path class="ylines-above crisp" style="fill: none;" d="M0,0"/><g class="overlines-above"/><g class="xaxislayer-above"><path class="xtick ticks crisp" d="M0,450v-5" transform="translate(52.21,0)" style="stroke: rgb(68, 68, 68); stroke-opacity: 1; stroke-width: 1px;"/><path class="xtick ticks crisp" d="M0,450v-5" transform="translate(153.95,0)" style="stroke: rgb(68, 68, 68); stroke-opacity: 1; stroke-width: 1px;"/><path class="xtick ticks crisp" d="M0,450v-5" transform="translate(253.48,0)" style="stroke: rgb(68, 68, 68); stroke-opacity: 1; stroke-width: 1px;"/><path class="xtick ticks crisp" d="M0,450v-5" transform="translate(354.11,0)" style="stroke: rgb(68, 68, 68); stroke-opacity: 1; stroke-width: 1px;"/><path class="xtick ticks crisp" d="M0,450v-5" transform="translate(455.85,0)" style="stroke: rgb(68, 68, 68); stroke-opacity: 1; stroke-width: 1px;"/><path class="xtick ticks crisp" d="M0,450v-5" transform="translate(557.5799999999999,0)" style="stroke: rgb(68, 68, 68); stroke-opacity: 1; stroke-width: 1px;"/><path class="xtick ticks crisp" d="M0,450v-5" transform="translate(657.11,0)" style="stroke: rgb(68, 68, 68); stroke-opacity: 1; stroke-width: 1px;"/><g class="xtick"><text text-anchor="middle" x="0" y="469" transform="translate(52.21,0)" style="font-family: 'Open Sans', verdana, arial, sans-serif; font-size: 18px; fill: rgb(42, 63, 95); fill-opacity: 1; white-space: pre;">01/10</text></g><g class="xtick"><text text-anchor="middle" x="0" y="469" transform="translate(153.95,0)" style="font-family: 'Open Sans', verdana, arial, sans-serif; font-size: 18px; fill: rgb(42, 63, 95); fill-opacity: 1; white-space: pre;">01/01</text></g><g class="xtick"><text text-anchor="middle" x="0" y="469" transform="translate(253.48,0)" style="font-family: 'Open Sans', verdana, arial, sans-serif; font-size: 18px; fill: rgb(42, 63, 95); fill-opacity: 1; white-space: pre;">01/04</text></g><g class="xtick"><text text-anchor="middle" x="0" y="469" transform="translate(354.11,0)" style="font-family: 'Open Sans', verdana, arial, sans-serif; font-size: 18px; fill: rgb(42, 63, 95); fill-opacity: 1; white-space: pre;">01/07</text></g><g class="xtick"><text text-anchor="middle" x="0" y="469" transform="translate(455.85,0)" style="font-family: 'Open Sans', verdana, arial, sans-serif; font-size: 18px; fill: rgb(42, 63, 95); fill-opacity: 1; white-space: pre;">01/10</text></g><g class="xtick"><text text-anchor="middle" x="0" y="469" transform="translate(557.5799999999999,0)" style="font-family: 'Open Sans', verdana, arial, sans-serif; font-size: 18px; fill: rgb(42, 63, 95); fill-opacity: 1; white-space: pre;">01/01</text></g><g class="xtick"><text text-anchor="middle" x="0" y="469" transform="translate(657.11,0)" style="font-family: 'Open Sans', verdana, arial, sans-serif; font-size: 18px; fill: rgb(42, 63, 95); fill-opacity: 1; white-space: pre;">01/04</text></g></g><g class="yaxislayer-above"/><g class="overaxes-above"/></g></g><g class="polarlayer"/><g class="ternarylayer"/><g class="geolayer"/><g class="funnelarealayer"/><g class="pielayer"/><g class="treemaplayer"/><g class="sunburstlayer"/><g class="glimages"/><defs id="topdefs-0a91bd"><g class="clips"/></defs><g class="layer-above"><g class="imagelayer"/><g class="shapelayer"><path data-index="0" fill-rule="evenodd" d="M-571.48,444.66L236.89,444.66" clip-path="url('#clip0a91bdxy')" style="opacity: 1; stroke: rgb(255, 0, 0); stroke-opacity: 1; fill: rgb(0, 0, 0); fill-opacity: 0; stroke-dasharray: 3px, 3px; stroke-width: 1.5px;"/></g></g><g class="infolayer"><g class="g-gtitle"><text class="gtitle" x="375" y="25" text-anchor="middle" dy="0.7em" style="font-family: 'Open Sans', verdana, arial, sans-serif; font-size: 50px; fill: rgb(42, 63, 95); opacity: 1; font-weight: normal; white-space: pre;"><tspan style="font-weight:bold">Oise (60)</tspan></text></g><g class="g-xtitle"/><g class="annotation" data-index="0" style="opacity: 1;"><g class="annotation-text-g" transform="rotate(0,700.26,339.34)"><g class="cursor-pointer" transform="translate(642, 303)"><rect class="bg" x="0.5" y="0.5" width="115" height="71" style="stroke-width: 1px; stroke: rgb(0, 0, 0); stroke-opacity: 0; fill: rgb(255, 255, 255); fill-opacity: 0.6;"/><text class="annotation-text" text-anchor="middle" x="57.8125" y="55.5" style="font-family: 'Open Sans', verdana, arial, sans-serif; font-size: 50px; fill: rgb(8, 115, 191); fill-opacity: 1; white-space: pre;"> <tspan style="font-weight:bold">474 </tspan></text></g></g><g class="annotation-arrow-g" style="opacity: 1;"><path d="M728.66,374.84L740.26,389.34" style="stroke-width: 1px; stroke: rgb(8, 115, 191); stroke-opacity: 1; stroke-dasharray: 0px, 0px, 18.5691px, 18.5691px;"/></g></g></g></svg>