<svg class="main-svg" xmlns="http://www.w3.org/2000/svg" xmlns:xlink="http://www.w3.org/1999/xlink" width="1125" height="750" style="" viewBox="0 0 750 500"><rect x="0" y="0" width="750" height="500" style="fill: rgb(0, 0, 0); fill-opacity: 0;"/><defs id="defs-94b5dd"><g class="clips"><clipPath id="clip94b5ddxyplot" class="plotclip"><rect width="700" height="380"/></clipPath><clipPath class="axesclip" id="clip94b5ddx"><rect x="50" y="0" width="700" height="500"/></clipPath><clipPath class="axesclip" id="clip94b5ddy"><rect x="0" y="70" width="750" height="380"/></clipPath><clipPath class="axesclip" id="clip94b5ddxy"><rect x="50" y="70" width="700" height="380"/></clipPath></g><g class="gradients"/></defs><g class="bglayer"><rect class="bg" x="50" y="70" width="700" height="380" style="fill: rgb(0, 0, 0); fill-opacity: 0; stroke-width: 0;"/></g><g class="layer-below"><g class="imagelayer"/><g class="shapelayer"/></g><g class="cartesianlayer"><g class="subplot xy"><g class="layer-subplot"><g class="shapelayer"/><g class="imagelayer"/></g><g class="gridlayer"><g class="x"><path class="xgrid crisp" transform="translate(93.02000000000001,0)" d="M0,70v380" style="stroke: rgb(255, 255, 255); stroke-opacity: 1; stroke-width: 1px;"/><path class="xgrid crisp" transform="translate(172.53,0)" d="M0,70v380" style="stroke: rgb(255, 255, 255); stroke-opacity: 1; stroke-width: 1px;"/><path class="xgrid crisp" transform="translate(249.44,0)" d="M0,70v380" style="stroke: rgb(255, 255, 255); stroke-opacity: 1; stroke-width: 1px;"/><path class="xgrid crisp" transform="translate(328.96,0)" d="M0,70v380" style="stroke: rgb(255, 255, 255); stroke-opacity: 1; stroke-width: 1px;"/><path class="xgrid crisp" transform="translate(408.47,0)" d="M0,70v380" style="stroke: rgb(255, 255, 255); stroke-opacity: 1; stroke-width: 1px;"/><path class="xgrid crisp" transform="translate(489.29,0)" d="M0,70v380" style="stroke: rgb(255, 255, 255); stroke-opacity: 1; stroke-width: 1px;"/><path class="xgrid crisp" transform="translate(568.81,0)" d="M0,70v380" style="stroke: rgb(255, 255, 255); stroke-opacity: 1; stroke-width: 1px;"/><path class="xgrid crisp" transform="translate(648.32,0)" d="M0,70v380" style="stroke: rgb(255, 255, 255); stroke-opacity: 1; stroke-width: 1px;"/><path class="xgrid crisp" transform="translate(725.23,0)" d="M0,70v380" style="stroke: rgb(255, 255, 255); stroke-opacity: 1; stroke-width: 1px;"/></g><g class="y"/></g><g class="zerolinelayer"/><path class="xlines-below"/><path class="ylines-below"/><g class="overlines-below"/><g class="xaxislayer-below"/><g class="yaxislayer-below"/><g class="overaxes-below"/><g class="plot" transform="translate(50, 70)" clip-path="url('#clip94b5ddxyplot')"><g class="scatterlayer mlayer"><g class="trace scatter traceb8c43c" style="stroke-miterlimit: 2;"><g class="fills"><g><path class="js-fill" d="M677.84,380L-177.28,380L-177.28,379.81L-59.96,378.91L-58.66,378.47L-46.93,374.8L-45.62,374.99L-40.41,374.9L-39.11,374.55L-31.28,373.03L-29.98,373.21L-14.34,373.9L-13.04,373.09L-7.82,373.37L-6.52,373.34L-2.61,373.03L-1.3,372.78L2.61,372.25L3.91,371.66L5.21,372.09L6.52,371.66L9.12,370.54L10.43,370.1L11.73,370.26L13.04,369.45L15.64,368.39L16.95,368.33L18.25,367.61L19.55,367.86L22.16,367.18L23.46,366.21L27.37,360.86L28.68,360.42L29.98,360.33L31.28,358.46L32.59,355.32L33.89,354.45L36.5,353.67L37.8,352.52L39.11,352.42L40.41,350.28L41.71,350.59L43.02,349.19L44.32,349.62L45.62,348.81L48.23,348.66L49.53,349.16L50.84,350.4L52.14,355.29L53.45,355.1L54.75,354.1L56.05,355.5L57.36,355.35L58.66,358.24L59.96,358.99L61.27,357L62.57,358.31L63.87,362.69L65.18,362.85L66.48,362.97L67.78,364.13L70.39,365.31L71.69,366.43L75.61,366.68L76.91,364.31L78.21,365.53L79.52,365.4L83.43,363.69L84.73,363.54L86.03,365.4L87.34,365.4L88.64,364.97L89.94,365.68L91.25,366.87L92.55,366.18L97.77,366.83L99.07,365.93L100.37,364.59L101.68,364.59L104.28,364.31L105.59,363.91L108.19,365.37L109.5,368.2L114.71,369.48L116.01,369.54L119.93,370.35L121.23,370.13L123.84,370.13L125.14,369.04L127.75,365.81L129.05,365.53L130.35,365.71L131.66,364.97L132.96,363.63L134.26,363.47L135.57,363.41L136.87,362.29L140.78,362.04L142.09,362.48L146,363.69L147.3,363.75L148.6,363.72L149.91,364.59L155.12,366.93L156.42,367.08L159.03,366.8L160.34,365.81L164.25,365.03L165.55,364.97L168.16,365.81L169.46,367.15L174.67,370.51L175.98,370.41L181.19,371.69L182.5,371.91L189.01,372L190.32,371.85L204.66,369.79L205.96,369.11L209.87,367.58L211.17,367.8L218.99,367.92L220.3,367.74L221.6,367.55L222.91,366.24L225.51,364.38L226.82,364.06L229.42,361.54L230.73,361.76L233.33,362.04L234.64,362.07L237.24,362.04L238.55,362.48L239.85,362.45L241.15,365.68L242.46,364.34L243.76,364.25L248.98,364.06L250.28,360.33L256.8,362.2L258.1,362.13L260.71,364.41L262.01,363.88L263.31,364.47L264.62,364.06L269.83,364.38L271.14,365.28L273.74,365.74L275.05,366.74L276.35,366.77L277.65,367.67L278.96,367.36L280.26,368.11L284.17,369.64L285.47,369.57L288.08,371.35L289.39,370.6L290.69,372.34L291.99,372.34L295.9,372.78L297.21,373.03L298.51,373.62L299.81,372.81L302.42,372.87L303.72,372.97L305.03,374.37L306.33,373.59L307.64,373.9L308.94,373.18L314.15,372.31L315.46,373.49L323.28,375.08L324.58,375.08L327.19,375.18L328.49,375.64L332.4,375.77L333.71,376.08L338.92,377.32L340.22,377.29L348.04,378.82L349.35,378.82L353.26,378.97L354.56,378.82L364.99,378.6L366.29,378.54L371.51,377.91L372.81,376.45L378.03,372.93L379.33,371.47L380.63,369.23L381.94,368.67L384.54,366.27L385.85,366.49L391.06,360.45L392.36,359.08L398.88,357.22L400.19,357.87L401.49,359.08L402.79,358.68L405.4,358.87L406.7,358.12L408.01,358.49L409.31,357.87L410.61,356.66L411.92,357.19L417.13,356.66L418.44,357.43L419.74,357.31L421.04,358.12L422.35,358.18L423.65,360.02L426.26,362.04L427.56,363.35L428.86,364.94L430.17,365.03L432.77,366.09L434.08,367.24L439.29,369.88L440.6,369.64L444.51,371.1L445.81,371.72L447.11,371.85L448.42,371L449.72,370.63L451.02,371.38L456.24,371.94L457.54,372.69L465.36,375.08L466.67,375.3L470.58,376.14L471.88,376.3L483.61,377.14L484.92,376.98L488.83,376.3L490.13,375.98L496.65,377.01L497.95,376.11L503.17,373.15L504.47,373.03L505.77,371.81L507.08,371.69L513.59,371.32L514.9,372.97L518.81,371.1L520.11,370.26L522.72,369.95L524.02,367.52L526.63,365.9L527.93,367.77L530.54,365.71L531.84,365.5L534.45,360.92L535.75,359.96L537.06,355.85L538.36,354.51L539.66,352.86L540.97,352.55L548.79,331.41L550.09,330.85L554,318.03L555.31,314.14L557.91,310.72L559.22,310.75L560.52,311.46L561.82,309.1L563.13,309.13L564.43,310.41L568.34,311.93L569.65,311.4L573.56,318.96L574.86,320.93L576.16,322.64L577.47,323.07L580.07,328.33L581.38,328.43L583.99,324.57L585.29,328.64L586.59,328.24L587.9,319.71L593.11,286.78L594.41,285.97L595.72,285.07L597.02,272.06L599.63,249.68L600.93,244.11L602.23,241.93L603.54,228.36L604.84,226.21L606.15,216.91L607.45,215.29L608.75,211.09L611.36,189.46L612.66,178.5L613.97,176.82L615.27,160.48L620.48,94.18L621.79,77.62L623.09,74.85L624.39,48.96L627,19.27L628.31,7.81L629.61,3.39L630.91,4.45L632.22,0L633.52,2.93L634.82,3.86L636.13,3.73L637.43,7.35L638.73,17.83L641.34,29.38L642.64,43.23L649.16,136.33L650.47,140.59L653.07,187.21L654.38,203.31L656.98,232.94L658.29,237.67L659.59,239.53L660.89,253.67L664.8,276.48L666.11,281.49L667.41,287.16L668.72,288.46L671.32,294.41L672.63,296.12L675.23,296.62L676.54,296.71L677.84,296.24" style="fill: rgb(8, 115, 191); fill-opacity: 0.2; stroke-width: 0;"/></g></g><g class="errorbars"/><g class="lines"><path class="js-line" d="M-177.28,379.81L-59.96,378.91L-58.66,378.47L-46.93,374.8L-45.62,374.99L-40.41,374.9L-39.11,374.55L-31.28,373.03L-29.98,373.21L-14.34,373.9L-13.04,373.09L-7.82,373.37L-6.52,373.34L-2.61,373.03L-1.3,372.78L2.61,372.25L3.91,371.66L5.21,372.09L6.52,371.66L9.12,370.54L10.43,370.1L11.73,370.26L13.04,369.45L15.64,368.39L16.95,368.33L18.25,367.61L19.55,367.86L22.16,367.18L23.46,366.21L27.37,360.86L28.68,360.42L29.98,360.33L31.28,358.46L32.59,355.32L33.89,354.45L36.5,353.67L37.8,352.52L39.11,352.42L40.41,350.28L41.71,350.59L43.02,349.19L44.32,349.62L45.62,348.81L48.23,348.66L49.53,349.16L50.84,350.4L52.14,355.29L53.45,355.1L54.75,354.1L56.05,355.5L57.36,355.35L58.66,358.24L59.96,358.99L61.27,357L62.57,358.31L63.87,362.69L65.18,362.85L66.48,362.97L67.78,364.13L70.39,365.31L71.69,366.43L75.61,366.68L76.91,364.31L78.21,365.53L79.52,365.4L83.43,363.69L84.73,363.54L86.03,365.4L87.34,365.4L88.64,364.97L89.94,365.68L91.25,366.87L92.55,366.18L97.77,366.83L99.07,365.93L100.37,364.59L101.68,364.59L104.28,364.31L105.59,363.91L108.19,365.37L109.5,368.2L114.71,369.48L116.01,369.54L119.93,370.35L121.23,370.13L123.84,370.13L125.14,369.04L127.75,365.81L129.05,365.53L130.35,365.71L131.66,364.97L132.96,363.63L134.26,363.47L135.57,363.41L136.87,362.29L140.78,362.04L142.09,362.48L146,363.69L147.3,363.75L148.6,363.72L149.91,364.59L155.12,366.93L156.42,367.08L159.03,366.8L160.34,365.81L164.25,365.03L165.55,364.97L168.16,365.81L169.46,367.15L174.67,370.51L175.98,370.41L181.19,371.69L182.5,371.91L189.01,372L190.32,371.85L204.66,369.79L205.96,369.11L209.87,367.58L211.17,367.8L218.99,367.92L220.3,367.74L221.6,367.55L222.91,366.24L225.51,364.38L226.82,364.06L229.42,361.54L230.73,361.76L233.33,362.04L234.64,362.07L237.24,362.04L238.55,362.48L239.85,362.45L241.15,365.68L242.46,364.34L243.76,364.25L248.98,364.06L250.28,360.33L256.8,362.2L258.1,362.13L260.71,364.41L262.01,363.88L263.31,364.47L264.62,364.06L269.83,364.38L271.14,365.28L273.74,365.74L275.05,366.74L276.35,366.77L277.65,367.67L278.96,367.36L280.26,368.11L284.17,369.64L285.47,369.57L288.08,371.35L289.39,370.6L290.69,372.34L291.99,372.34L295.9,372.78L297.21,373.03L298.51,373.62L299.81,372.81L302.42,372.87L303.72,372.97L305.03,374.37L306.33,373.59L307.64,373.9L308.94,373.18L314.15,372.31L315.46,373.49L323.28,375.08L324.58,375.08L327.19,375.18L328.49,375.64L332.4,375.77L333.71,376.08L338.92,377.32L340.22,377.29L348.04,378.82L349.35,378.82L353.26,378.97L354.56,378.82L364.99,378.6L366.29,378.54L371.51,377.91L372.81,376.45L378.03,372.93L379.33,371.47L380.63,369.23L381.94,368.67L384.54,366.27L385.85,366.49L391.06,360.45L392.36,359.08L398.88,357.22L400.19,357.87L401.49,359.08L402.79,358.68L405.4,358.87L406.7,358.12L408.01,358.49L409.31,357.87L410.61,356.66L411.92,357.19L417.13,356.66L418.44,357.43L419.74,357.31L421.04,358.12L422.35,358.18L423.65,360.02L426.26,362.04L427.56,363.35L428.86,364.94L430.17,365.03L432.77,366.09L434.08,367.24L439.29,369.88L440.6,369.64L444.51,371.1L445.81,371.72L447.11,371.85L448.42,371L449.72,370.63L451.02,371.38L456.24,371.94L457.54,372.69L465.36,375.08L466.67,375.3L470.58,376.14L471.88,376.3L483.61,377.14L484.92,376.98L488.83,376.3L490.13,375.98L496.65,377.01L497.95,376.11L503.17,373.15L504.47,373.03L505.77,371.81L507.08,371.69L513.59,371.32L514.9,372.97L518.81,371.1L520.11,370.26L522.72,369.95L524.02,367.52L526.63,365.9L527.93,367.77L530.54,365.71L531.84,365.5L534.45,360.92L535.75,359.96L537.06,355.85L538.36,354.51L539.66,352.86L540.97,352.55L548.79,331.41L550.09,330.85L554,318.03L555.31,314.14L557.91,310.72L559.22,310.75L560.52,311.46L561.82,309.1L563.13,309.13L564.43,310.41L568.34,311.93L569.65,311.4L573.56,318.96L574.86,320.93L576.16,322.64L577.47,323.07L580.07,328.33L581.38,328.43L583.99,324.57L585.29,328.64L586.59,328.24L587.9,319.71L593.11,286.78L594.41,285.97L595.72,285.07L597.02,272.06L599.63,249.68L600.93,244.11L602.23,241.93L603.54,228.36L604.84,226.21L606.15,216.91L607.45,215.29L608.75,211.09L611.36,189.46L612.66,178.5L613.97,176.82L615.27,160.48L620.48,94.18L621.79,77.62L623.09,74.85L624.39,48.96L627,19.27L628.31,7.81L629.61,3.39L630.91,4.45L632.22,0L633.52,2.93L634.82,3.86L636.13,3.73L637.43,7.35L638.73,17.83L641.34,29.38L642.64,43.23L649.16,136.33L650.47,140.59L653.07,187.21L654.38,203.31L656.98,232.94L658.29,237.67L659.59,239.53L660.89,253.67L664.8,276.48L666.11,281.49L667.41,287.16L668.72,288.46L671.32,294.41L672.63,296.12L675.23,296.62L676.54,296.71L677.84,296.24" style="vector-effect: non-scaling-stroke; fill: none; stroke: rgb(8, 115, 191); stroke-opacity: 1; stroke-width: 0.5px; opacity: 1;"/></g><g class="points"/><g class="text"/></g><g class="trace scatter trace5e2684" style="stroke-miterlimit: 2;"><g class="fills"><g><path class="js-fill" d="M690.88,380L677.84,380L677.84,296.24L681.75,292.42L683.05,289.02L685.66,284.11L686.96,283.76L690.88,275.08" style="fill: rgb(8, 115, 191); fill-opacity: 0.4; stroke-width: 0;"/></g></g><g class="errorbars"/><g class="lines"><path class="js-line" d="M677.84,296.24L681.75,292.42L683.05,289.02L685.66,284.11L686.96,283.76L690.88,275.08" style="vector-effect: non-scaling-stroke; fill: none; stroke: rgb(8, 115, 191); stroke-opacity: 1; stroke-width: 2px; opacity: 1;"/></g><g class="points"/><g class="text"/></g><g class="trace scatter trace882cdb" style="stroke-miterlimit: 2; opacity: 1;"><g class="fills"/><g class="errorbars"/><g class="lines"/><g class="points"><path class="point" transform="translate(690.88,275.08)" d="M15,0A15,15 0 1,1 0,-15A15,15 0 0,1 15,0Z" style="opacity: 1; stroke-width: 0px; fill: rgb(8, 115, 191); fill-opacity: 1;"/></g><g class="text"/></g></g></g><g class="overplot"/><path class="xlines-above crisp" style="fill: none; stroke-width: 1px; stroke: rgb(0, 0, 0); stroke-opacity: 0;" d=""/><path class="ylines-above crisp" style="fill: none;" d="M0,0"/><g class="overlines-above"/><g class="xaxislayer-above"><path class="xtick ticks crisp" d="M0,450v-5" transform="translate(93.02000000000001,0)" style="stroke: rgb(68, 68, 68); stroke-opacity: 1; stroke-width: 1px;"/><path class="xtick ticks crisp" d="M0,450v-5" transform="translate(172.53,0)" style="stroke: rgb(68, 68, 68); stroke-opacity: 1; stroke-width: 1px;"/><path class="xtick ticks crisp" d="M0,450v-5" transform="translate(249.44,0)" style="stroke: rgb(68, 68, 68); stroke-opacity: 1; stroke-width: 1px;"/><path class="xtick ticks crisp" d="M0,450v-5" transform="translate(328.96,0)" style="stroke: rgb(68, 68, 68); stroke-opacity: 1; stroke-width: 1px;"/><path class="xtick ticks crisp" d="M0,450v-5" transform="translate(408.47,0)" style="stroke: rgb(68, 68, 68); stroke-opacity: 1; stroke-width: 1px;"/><path class="xtick ticks crisp" d="M0,450v-5" transform="translate(489.29,0)" style="stroke: rgb(68, 68, 68); stroke-opacity: 1; stroke-width: 1px;"/><path class="xtick ticks crisp" d="M0,450v-5" transform="translate(568.81,0)" style="stroke: rgb(68, 68, 68); stroke-opacity: 1; stroke-width: 1px;"/><path class="xtick ticks crisp" d="M0,450v-5" transform="translate(648.32,0)" style="stroke: rgb(68, 68, 68); stroke-opacity: 1; stroke-width: 1px;"/><path class="xtick ticks crisp" d="M0,450v-5" transform="translate(725.23,0)" style="stroke: rgb(68, 68, 68); stroke-opacity: 1; stroke-width: 1px;"/><g class="xtick"><text text-anchor="middle" x="0" y="469" transform="translate(93.02000000000001,0)" style="font-family: 'Open Sans', verdana, arial, sans-serif; font-size: 18px; fill: rgb(42, 63, 95); fill-opacity: 1; white-space: pre;">01/11</text></g><g class="xtick"><text text-anchor="middle" x="0" y="469" transform="translate(172.53,0)" style="font-family: 'Open Sans', verdana, arial, sans-serif; font-size: 18px; fill: rgb(42, 63, 95); fill-opacity: 1; white-space: pre;">01/01</text></g><g class="xtick"><text text-anchor="middle" x="0" y="469" transform="translate(249.44,0)" style="font-family: 'Open Sans', verdana, arial, sans-serif; font-size: 18px; fill: rgb(42, 63, 95); fill-opacity: 1; white-space: pre;">01/03</text></g><g class="xtick"><text text-anchor="middle" x="0" y="469" transform="translate(328.96,0)" style="font-family: 'Open Sans', verdana, arial, sans-serif; font-size: 18px; fill: rgb(42, 63, 95); fill-opacity: 1; white-space: pre;">01/05</text></g><g class="xtick"><text text-anchor="middle" x="0" y="469" transform="translate(408.47,0)" style="font-family: 'Open Sans', verdana, arial, sans-serif; font-size: 18px; fill: rgb(42, 63, 95); fill-opacity: 1; white-space: pre;">01/07</text></g><g class="xtick"><text text-anchor="middle" x="0" y="469" transform="translate(489.29,0)" style="font-family: 'Open Sans', verdana, arial, sans-serif; font-size: 18px; fill: rgb(42, 63, 95); fill-opacity: 1; white-space: pre;">01/09</text></g><g class="xtick"><text text-anchor="middle" x="0" y="469" transform="translate(568.81,0)" style="font-family: 'Open Sans', verdana, arial, sans-serif; font-size: 18px; fill: rgb(42, 63, 95); fill-opacity: 1; white-space: pre;">01/11</text></g><g class="xtick"><text text-anchor="middle" x="0" y="469" transform="translate(648.32,0)" style="font-family: 'Open Sans', verdana, arial, sans-serif; font-size: 18px; fill: rgb(42, 63, 95); fill-opacity: 1; white-space: pre;">01/01</text></g><g class="xtick"><text text-anchor="middle" x="0" y="469" transform="translate(725.23,0)" style="font-family: 'Open Sans', verdana, arial, sans-serif; font-size: 18px; fill: rgb(42, 63, 95); fill-opacity: 1; white-space: pre;">01/03</text></g></g><g class="yaxislayer-above"/><g class="overaxes-above"/></g></g><g class="polarlayer"/><g class="ternarylayer"/><g class="geolayer"/><g class="funnelarealayer"/><g class="pielayer"/><g class="treemaplayer"/><g class="sunburstlayer"/><g class="glimages"/><defs id="topdefs-94b5dd"><g class="clips"/></defs><g class="layer-above"><g class="imagelayer"/><g class="shapelayer"><path data-index="0" fill-rule="evenodd" d="M-682.59,444.86L270.3,444.86" clip-path="url('#clip94b5ddxy')" style="opacity: 1; stroke: rgb(255, 0, 0); stroke-opacity: 1; fill: rgb(0, 0, 0); fill-opacity: 0; stroke-dasharray: 3px, 3px; stroke-width: 1.5px;"/></g></g><g class="infolayer"><g class="g-gtitle"><text class="gtitle" x="375" y="25" text-anchor="middle" dy="0.7em" style="font-family: 'Open Sans', verdana, arial, sans-serif; font-size: 50px; fill: rgb(42, 63, 95); opacity: 1; font-weight: normal; white-space: pre;"><tspan style="font-weight:bold">Lot-et-Garonne (47)</tspan></text></g><g class="g-xtitle"/><g class="annotation" data-index="0" style="opacity: 1;"><g class="annotation-text-g" transform="rotate(0,698.88,285.08)"><g class="cursor-pointer" transform="translate(627, 249)"><rect class="bg" x="0.5" y="0.5" width="143" height="71" style="stroke-width: 1px; stroke: rgb(0, 0, 0); stroke-opacity: 0; fill: rgb(255, 255, 255); fill-opacity: 0.6;"/><text class="annotation-text" text-anchor="middle" x="72.078125" y="55.5" style="font-family: 'Open Sans', verdana, arial, sans-serif; font-size: 50px; fill: rgb(8, 115, 191); fill-opacity: 1; white-space: pre;"> <tspan style="font-weight:bold">1020 </tspan></text></g></g><g class="annotation-arrow-g" style="opacity: 1;"><path d="M727.28,320.58L738.88,335.08" style="stroke-width: 1px; stroke: rgb(8, 115, 191); stroke-opacity: 1; stroke-dasharray: 0px, 0px, 18.569px, 18.569px;"/></g></g></g></svg>