<svg class="main-svg" xmlns="http://www.w3.org/2000/svg" xmlns:xlink="http://www.w3.org/1999/xlink" width="1125" height="750" style="" viewBox="0 0 750 500"><rect x="0" y="0" width="750" height="500" style="fill: rgb(0, 0, 0); fill-opacity: 0;"/><defs id="defs-d16ef2"><g class="clips"><clipPath id="clipd16ef2xyplot" class="plotclip"><rect width="700" height="380"/></clipPath><clipPath class="axesclip" id="clipd16ef2x"><rect x="50" y="0" width="700" height="500"/></clipPath><clipPath class="axesclip" id="clipd16ef2y"><rect x="0" y="70" width="750" height="380"/></clipPath><clipPath class="axesclip" id="clipd16ef2xy"><rect x="50" y="70" width="700" height="380"/></clipPath></g><g class="gradients"/></defs><g class="bglayer"><rect class="bg" x="50" y="70" width="700" height="380" style="fill: rgb(0, 0, 0); fill-opacity: 0; stroke-width: 0;"/></g><g class="layer-below"><g class="imagelayer"/><g class="shapelayer"/></g><g class="cartesianlayer"><g class="subplot xy"><g class="layer-subplot"><g class="shapelayer"/><g class="imagelayer"/></g><g class="gridlayer"><g class="x"><path class="xgrid crisp" transform="translate(91.1,0)" d="M0,70v380" style="stroke: rgb(255, 255, 255); stroke-opacity: 1; stroke-width: 1px;"/><path class="xgrid crisp" transform="translate(167.07999999999998,0)" d="M0,70v380" style="stroke: rgb(255, 255, 255); stroke-opacity: 1; stroke-width: 1px;"/><path class="xgrid crisp" transform="translate(240.57,0)" d="M0,70v380" style="stroke: rgb(255, 255, 255); stroke-opacity: 1; stroke-width: 1px;"/><path class="xgrid crisp" transform="translate(316.55,0)" d="M0,70v380" style="stroke: rgb(255, 255, 255); stroke-opacity: 1; stroke-width: 1px;"/><path class="xgrid crisp" transform="translate(392.53,0)" d="M0,70v380" style="stroke: rgb(255, 255, 255); stroke-opacity: 1; stroke-width: 1px;"/><path class="xgrid crisp" transform="translate(469.75,0)" d="M0,70v380" style="stroke: rgb(255, 255, 255); stroke-opacity: 1; stroke-width: 1px;"/><path class="xgrid crisp" transform="translate(545.73,0)" d="M0,70v380" style="stroke: rgb(255, 255, 255); stroke-opacity: 1; stroke-width: 1px;"/><path class="xgrid crisp" transform="translate(621.71,0)" d="M0,70v380" style="stroke: rgb(255, 255, 255); stroke-opacity: 1; stroke-width: 1px;"/><path class="xgrid crisp" transform="translate(695.2,0)" d="M0,70v380" style="stroke: rgb(255, 255, 255); stroke-opacity: 1; stroke-width: 1px;"/></g><g class="y"/></g><g class="zerolinelayer"/><path class="xlines-below"/><path class="ylines-below"/><g class="overlines-below"/><g class="xaxislayer-below"/><g class="yaxislayer-below"/><g class="overaxes-below"/><g class="plot" transform="translate(50, 70)" clip-path="url('#clipd16ef2xyplot')"><g class="scatterlayer mlayer"><g class="trace scatter trace340704" style="stroke-miterlimit: 2;"><g class="fills"><g><path class="js-fill" d="M678.83,380L-169.4,380L-169.4,379.42L-58.54,378.92L-57.3,378.49L-49.82,376.71L-48.58,376.48L-41.1,376.13L-39.86,375.63L-36.12,375.22L-34.88,375.63L-27.4,376.38L-26.16,376.09L-12.46,374.26L-11.21,374.7L-6.23,373.75L-4.98,372.98L-2.49,372.17L-1.25,371.53L3.74,369.5L4.98,368.15L9.96,362.69L11.21,362.73L16.19,355.73L17.44,353.64L19.93,352.13L21.17,347.34L26.16,325.21L27.4,323.88L28.65,322.99L29.89,315.6L31.14,312.39L32.38,307.11L34.88,302.7L36.12,302.16L38.61,302.43L39.86,300.27L42.35,303.07L43.59,307.04L46.09,308.22L47.33,314.33L48.58,320.82L49.82,333.01L51.07,335.33L52.31,339.68L56.05,344.28L57.3,348.46L58.54,345.81L59.79,352.06L61.03,354.65L62.28,355.44L63.52,355.67L64.77,359.27L66.01,361.53L67.26,362.09L71,363.5L72.24,363.27L75.98,363.21L77.22,363.35L80.96,362.98L82.21,363.93L87.19,361.94L88.43,362.13L89.68,362.31L90.93,361.42L95.91,359.83L97.15,357.78L99.64,355.29L100.89,354.57L103.38,354.65L104.63,358.9L108.36,363.58L109.61,363.66L112.1,362.13L113.35,362.17L114.59,360.89L115.84,360.82L118.33,357.18L119.57,356.87L120.82,356.91L122.06,352.37L127.05,355.34L128.29,355.13L130.78,353.7L132.03,353.45L133.27,353.64L134.52,351.84L138.26,349.5L139.5,349.08L145.73,347.49L146.98,349.06L149.47,350.68L150.71,350.53L154.45,354.86L155.69,354.9L156.94,356.06L158.19,355.34L159.43,355.46L160.68,356.7L161.92,356.33L163.17,356.99L164.41,358.19L165.66,358.01L168.15,358.96L169.4,358.53L170.64,359.29L171.89,359.02L175.62,357.74L176.87,357.72L180.6,357.86L181.85,357.3L188.08,360.66L189.32,362L191.81,363.08L193.06,363L201.78,362.27L203.02,362.6L209.25,357.74L210.5,357.53L212.99,357.03L214.23,355.44L216.73,353.74L217.97,352.58L224.2,349.99L225.44,349.64L229.18,349.66L230.43,355.87L232.92,352.23L234.16,352.4L237.9,353.7L239.15,348.07L240.39,352.27L241.64,353.43L242.88,354.53L244.13,354.49L246.62,353.97L247.86,354.01L250.36,355L251.6,355.56L255.34,356.37L256.58,357.61L259.07,358.11L260.32,359.27L262.81,362.98L264.06,363.12L270.28,367.41L271.53,367.53L272.78,367.6L274.02,368.59L279,371.7L280.25,371.12L282.74,371.68L283.99,371.97L285.23,372.32L286.48,371.47L288.97,372.17L290.21,372.09L291.46,374.16L292.7,374.12L298.93,374.49L300.18,373.66L302.67,374.86L303.91,374.84L307.65,375.8L308.9,375.96L325.09,379.07L326.33,378.96L335.05,378.99L336.3,379.13L352.49,377.04L353.74,376.6L354.98,376.77L356.23,376.04L358.72,375.07L359.96,374.97L362.46,372.17L363.7,369.29L367.44,363.58L368.68,363.29L371.17,359.37L372.42,358.61L376.16,358.19L377.4,358.3L378.65,357.22L379.89,357.24L381.14,357.57L382.38,356.77L387.37,355.09L388.61,353.39L392.35,350.76L393.59,351.03L394.84,351.34L396.09,350.74L398.58,350.66L399.82,351.38L402.31,353.41L403.56,353.29L408.54,358.71L409.79,359.81L412.28,360.1L413.52,361.59L417.26,365.01L418.51,365.19L421,366.15L422.24,367L425.98,367.99L427.22,368.73L428.47,367.99L429.72,368.18L433.45,368.01L434.7,368.32L435.94,368.11L437.19,368.86L438.43,368.84L439.68,370.16L444.66,371.86L445.91,371.9L452.14,372.26L453.38,372.94L462.1,375.36L463.35,375.32L477.05,375.03L478.29,374.68L483.27,373.87L484.52,374.02L491.99,375.32L493.24,374.47L495.73,373.25L496.98,373L499.47,372.5L500.71,369.96L503.2,369.44L504.45,370.39L506.94,369L508.19,368.96L511.92,365.57L513.17,362.98L518.15,357.43L519.4,354.26L523.13,341.81L524.38,338.23L525.62,337.82L526.87,328.77L531.85,295.59L533.1,291.53L534.34,291.22L535.59,283.11L538.08,275.75L539.32,273.64L541.81,268.71L543.06,268.32L545.55,262.36L546.8,260.16L548.04,258.83L549.29,258.92L551.78,258.13L553.02,259.87L554.27,259.97L555.52,257.97L556.76,253.37L558.01,255.23L559.25,265.57L560.5,264.36L565.48,205.32L566.73,191.43L567.97,190.37L569.22,188.3L571.71,156.51L572.95,153.18L574.2,149.14L575.44,139.95L576.69,115.66L577.94,113.36L579.18,115.41L580.43,114.93L582.92,103.73L584.16,97.74L585.41,90.29L586.65,88.76L590.39,45.93L591.64,32.68L594.13,17.5L595.37,16.65L596.62,2.88L597.86,0.17L599.11,0L600.36,2.98L602.85,13.61L604.09,15.01L610.32,96.73L611.57,107.89L612.81,110.4L614.06,141.42L619.04,219.59L620.28,231.77L621.53,234.88L622.78,256.43L626.51,288.03L627.76,294.78L629,299.4L630.25,300.38L633.99,318.27L635.23,322.24L637.72,327.86L638.97,328.39L642.7,333.01L643.95,333.57L647.69,334.96L648.93,336.84L650.18,336.93L651.42,336.24L653.91,334.77L655.16,332.99L656.41,332.52L657.65,327.79L662.63,315L663.88,312.01L665.12,312.12L666.37,303.67L668.86,290.21L670.11,282.05L672.6,271.8L673.84,271.22L676.33,256.95L677.58,253.78L678.83,252.13" style="fill: rgb(8, 115, 191); fill-opacity: 0.2; stroke-width: 0;"/></g></g><g class="errorbars"/><g class="lines"><path class="js-line" d="M-169.4,379.42L-58.54,378.92L-57.3,378.49L-49.82,376.71L-48.58,376.48L-41.1,376.13L-39.86,375.63L-36.12,375.22L-34.88,375.63L-27.4,376.38L-26.16,376.09L-12.46,374.26L-11.21,374.7L-6.23,373.75L-4.98,372.98L-2.49,372.17L-1.25,371.53L3.74,369.5L4.98,368.15L9.96,362.69L11.21,362.73L16.19,355.73L17.44,353.64L19.93,352.13L21.17,347.34L26.16,325.21L27.4,323.88L28.65,322.99L29.89,315.6L31.14,312.39L32.38,307.11L34.88,302.7L36.12,302.16L38.61,302.43L39.86,300.27L42.35,303.07L43.59,307.04L46.09,308.22L47.33,314.33L48.58,320.82L49.82,333.01L51.07,335.33L52.31,339.68L56.05,344.28L57.3,348.46L58.54,345.81L59.79,352.06L61.03,354.65L62.28,355.44L63.52,355.67L64.77,359.27L66.01,361.53L67.26,362.09L71,363.5L72.24,363.27L75.98,363.21L77.22,363.35L80.96,362.98L82.21,363.93L87.19,361.94L88.43,362.13L89.68,362.31L90.93,361.42L95.91,359.83L97.15,357.78L99.64,355.29L100.89,354.57L103.38,354.65L104.63,358.9L108.36,363.58L109.61,363.66L112.1,362.13L113.35,362.17L114.59,360.89L115.84,360.82L118.33,357.18L119.57,356.87L120.82,356.91L122.06,352.37L127.05,355.34L128.29,355.13L130.78,353.7L132.03,353.45L133.27,353.64L134.52,351.84L138.26,349.5L139.5,349.08L145.73,347.49L146.98,349.06L149.47,350.68L150.71,350.53L154.45,354.86L155.69,354.9L156.94,356.06L158.19,355.34L159.43,355.46L160.68,356.7L161.92,356.33L163.17,356.99L164.41,358.19L165.66,358.01L168.15,358.96L169.4,358.53L170.64,359.29L171.89,359.02L175.62,357.74L176.87,357.72L180.6,357.86L181.85,357.3L188.08,360.66L189.32,362L191.81,363.08L193.06,363L201.78,362.27L203.02,362.6L209.25,357.74L210.5,357.53L212.99,357.03L214.23,355.44L216.73,353.74L217.97,352.58L224.2,349.99L225.44,349.64L229.18,349.66L230.43,355.87L232.92,352.23L234.16,352.4L237.9,353.7L239.15,348.07L240.39,352.27L241.64,353.43L242.88,354.53L244.13,354.49L246.62,353.97L247.86,354.01L250.36,355L251.6,355.56L255.34,356.37L256.58,357.61L259.07,358.11L260.32,359.27L262.81,362.98L264.06,363.12L270.28,367.41L271.53,367.53L272.78,367.6L274.02,368.59L279,371.7L280.25,371.12L282.74,371.68L283.99,371.97L285.23,372.32L286.48,371.47L288.97,372.17L290.21,372.09L291.46,374.16L292.7,374.12L298.93,374.49L300.18,373.66L302.67,374.86L303.91,374.84L307.65,375.8L308.9,375.96L325.09,379.07L326.33,378.96L335.05,378.99L336.3,379.13L352.49,377.04L353.74,376.6L354.98,376.77L356.23,376.04L358.72,375.07L359.96,374.97L362.46,372.17L363.7,369.29L367.44,363.58L368.68,363.29L371.17,359.37L372.42,358.61L376.16,358.19L377.4,358.3L378.65,357.22L379.89,357.24L381.14,357.57L382.38,356.77L387.37,355.09L388.61,353.39L392.35,350.76L393.59,351.03L394.84,351.34L396.09,350.74L398.58,350.66L399.82,351.38L402.31,353.41L403.56,353.29L408.54,358.71L409.79,359.81L412.28,360.1L413.52,361.59L417.26,365.01L418.51,365.19L421,366.15L422.24,367L425.98,367.99L427.22,368.73L428.47,367.99L429.72,368.18L433.45,368.01L434.7,368.32L435.94,368.11L437.19,368.86L438.43,368.84L439.68,370.16L444.66,371.86L445.91,371.9L452.14,372.26L453.38,372.94L462.1,375.36L463.35,375.32L477.05,375.03L478.29,374.68L483.27,373.87L484.52,374.02L491.99,375.32L493.24,374.47L495.73,373.25L496.98,373L499.47,372.5L500.71,369.96L503.2,369.44L504.45,370.39L506.94,369L508.19,368.96L511.92,365.57L513.17,362.98L518.15,357.43L519.4,354.26L523.13,341.81L524.38,338.23L525.62,337.82L526.87,328.77L531.85,295.59L533.1,291.53L534.34,291.22L535.59,283.11L538.08,275.75L539.32,273.64L541.81,268.71L543.06,268.32L545.55,262.36L546.8,260.16L548.04,258.83L549.29,258.92L551.78,258.13L553.02,259.87L554.27,259.97L555.52,257.97L556.76,253.37L558.01,255.23L559.25,265.57L560.5,264.36L565.48,205.32L566.73,191.43L567.97,190.37L569.22,188.3L571.71,156.51L572.95,153.18L574.2,149.14L575.44,139.95L576.69,115.66L577.94,113.36L579.18,115.41L580.43,114.93L582.92,103.73L584.16,97.74L585.41,90.29L586.65,88.76L590.39,45.93L591.64,32.68L594.13,17.5L595.37,16.65L596.62,2.88L597.86,0.17L599.11,0L600.36,2.98L602.85,13.61L604.09,15.01L610.32,96.73L611.57,107.89L612.81,110.4L614.06,141.42L619.04,219.59L620.28,231.77L621.53,234.88L622.78,256.43L626.51,288.03L627.76,294.78L629,299.4L630.25,300.38L633.99,318.27L635.23,322.24L637.72,327.86L638.97,328.39L642.7,333.01L643.95,333.57L647.69,334.96L648.93,336.84L650.18,336.93L651.42,336.24L653.91,334.77L655.16,332.99L656.41,332.52L657.65,327.79L662.63,315L663.88,312.01L665.12,312.12L666.37,303.67L668.86,290.21L670.11,282.05L672.6,271.8L673.84,271.22L676.33,256.95L677.58,253.78L678.83,252.13" style="vector-effect: non-scaling-stroke; fill: none; stroke: rgb(8, 115, 191); stroke-opacity: 1; stroke-width: 0.5px; opacity: 1;"/></g><g class="points"/><g class="text"/></g><g class="trace scatter tracec7dd58" style="stroke-miterlimit: 2;"><g class="fills"><g><path class="js-fill" d="M691.28,380L678.83,380L678.83,252.13L680.07,250.03L681.32,249.91L682.56,249.41L683.81,246.62L686.3,237.82L687.54,233.2L690.04,221.29L691.28,220.81" style="fill: rgb(8, 115, 191); fill-opacity: 0.4; stroke-width: 0;"/></g></g><g class="errorbars"/><g class="lines"><path class="js-line" d="M678.83,252.13L680.07,250.03L681.32,249.91L682.56,249.41L683.81,246.62L686.3,237.82L687.54,233.2L690.04,221.29L691.28,220.81" style="vector-effect: non-scaling-stroke; fill: none; stroke: rgb(8, 115, 191); stroke-opacity: 1; stroke-width: 2px; opacity: 1;"/></g><g class="points"/><g class="text"/></g><g class="trace scatter tracec560cd" style="stroke-miterlimit: 2; opacity: 1;"><g class="fills"/><g class="errorbars"/><g class="lines"/><g class="points"><path class="point" transform="translate(691.28,220.81)" d="M15,0A15,15 0 1,1 0,-15A15,15 0 0,1 15,0Z" style="opacity: 1; stroke-width: 0px; fill: rgb(8, 115, 191); fill-opacity: 1;"/></g><g class="text"/></g></g></g><g class="overplot"/><path class="xlines-above crisp" style="fill: none; stroke-width: 1px; stroke: rgb(0, 0, 0); stroke-opacity: 0;" d=""/><path class="ylines-above crisp" style="fill: none;" d="M0,0"/><g class="overlines-above"/><g class="xaxislayer-above"><path class="xtick ticks crisp" d="M0,450v-5" transform="translate(91.1,0)" style="stroke: rgb(68, 68, 68); stroke-opacity: 1; stroke-width: 1px;"/><path class="xtick ticks crisp" d="M0,450v-5" transform="translate(167.07999999999998,0)" style="stroke: rgb(68, 68, 68); stroke-opacity: 1; stroke-width: 1px;"/><path class="xtick ticks crisp" d="M0,450v-5" transform="translate(240.57,0)" style="stroke: rgb(68, 68, 68); stroke-opacity: 1; stroke-width: 1px;"/><path class="xtick ticks crisp" d="M0,450v-5" transform="translate(316.55,0)" style="stroke: rgb(68, 68, 68); stroke-opacity: 1; stroke-width: 1px;"/><path class="xtick ticks crisp" d="M0,450v-5" transform="translate(392.53,0)" style="stroke: rgb(68, 68, 68); stroke-opacity: 1; stroke-width: 1px;"/><path class="xtick ticks crisp" d="M0,450v-5" transform="translate(469.75,0)" style="stroke: rgb(68, 68, 68); stroke-opacity: 1; stroke-width: 1px;"/><path class="xtick ticks crisp" d="M0,450v-5" transform="translate(545.73,0)" style="stroke: rgb(68, 68, 68); stroke-opacity: 1; stroke-width: 1px;"/><path class="xtick ticks crisp" d="M0,450v-5" transform="translate(621.71,0)" style="stroke: rgb(68, 68, 68); stroke-opacity: 1; stroke-width: 1px;"/><path class="xtick ticks crisp" d="M0,450v-5" transform="translate(695.2,0)" style="stroke: rgb(68, 68, 68); stroke-opacity: 1; stroke-width: 1px;"/><g class="xtick"><text text-anchor="middle" x="0" y="469" transform="translate(91.1,0)" style="font-family: 'Open Sans', verdana, arial, sans-serif; font-size: 18px; fill: rgb(42, 63, 95); fill-opacity: 1; white-space: pre;">01/11</text></g><g class="xtick"><text text-anchor="middle" x="0" y="469" transform="translate(167.07999999999998,0)" style="font-family: 'Open Sans', verdana, arial, sans-serif; font-size: 18px; fill: rgb(42, 63, 95); fill-opacity: 1; white-space: pre;">01/01</text></g><g class="xtick"><text text-anchor="middle" x="0" y="469" transform="translate(240.57,0)" style="font-family: 'Open Sans', verdana, arial, sans-serif; font-size: 18px; fill: rgb(42, 63, 95); fill-opacity: 1; white-space: pre;">01/03</text></g><g class="xtick"><text text-anchor="middle" x="0" y="469" transform="translate(316.55,0)" style="font-family: 'Open Sans', verdana, arial, sans-serif; font-size: 18px; fill: rgb(42, 63, 95); fill-opacity: 1; white-space: pre;">01/05</text></g><g class="xtick"><text text-anchor="middle" x="0" y="469" transform="translate(392.53,0)" style="font-family: 'Open Sans', verdana, arial, sans-serif; font-size: 18px; fill: rgb(42, 63, 95); fill-opacity: 1; white-space: pre;">01/07</text></g><g class="xtick"><text text-anchor="middle" x="0" y="469" transform="translate(469.75,0)" style="font-family: 'Open Sans', verdana, arial, sans-serif; font-size: 18px; fill: rgb(42, 63, 95); fill-opacity: 1; white-space: pre;">01/09</text></g><g class="xtick"><text text-anchor="middle" x="0" y="469" transform="translate(545.73,0)" style="font-family: 'Open Sans', verdana, arial, sans-serif; font-size: 18px; fill: rgb(42, 63, 95); fill-opacity: 1; white-space: pre;">01/11</text></g><g class="xtick"><text text-anchor="middle" x="0" y="469" transform="translate(621.71,0)" style="font-family: 'Open Sans', verdana, arial, sans-serif; font-size: 18px; fill: rgb(42, 63, 95); fill-opacity: 1; white-space: pre;">01/01</text></g><g class="xtick"><text text-anchor="middle" x="0" y="469" transform="translate(695.2,0)" style="font-family: 'Open Sans', verdana, arial, sans-serif; font-size: 18px; fill: rgb(42, 63, 95); fill-opacity: 1; white-space: pre;">01/03</text></g></g><g class="yaxislayer-above"/><g class="overaxes-above"/></g></g><g class="polarlayer"/><g class="ternarylayer"/><g class="geolayer"/><g class="funnelarealayer"/><g class="pielayer"/><g class="treemaplayer"/><g class="sunburstlayer"/><g class="glimages"/><defs id="topdefs-d16ef2"><g class="clips"/></defs><g class="layer-above"><g class="imagelayer"/><g class="shapelayer"><path data-index="0" fill-rule="evenodd" d="M-650,444.61L260.5,444.61" clip-path="url('#clipd16ef2xy')" style="opacity: 1; stroke: rgb(255, 0, 0); stroke-opacity: 1; fill: rgb(0, 0, 0); fill-opacity: 0; stroke-dasharray: 3px, 3px; stroke-width: 1.5px;"/></g></g><g class="infolayer"><g class="g-gtitle"><text class="gtitle" x="375" y="25" text-anchor="middle" dy="0.7em" style="font-family: 'Open Sans', verdana, arial, sans-serif; font-size: 50px; fill: rgb(42, 63, 95); opacity: 1; font-weight: normal; white-space: pre;"><tspan style="font-weight:bold">Drôme (26)</tspan></text></g><g class="g-xtitle"/><g class="annotation" data-index="0" style="opacity: 1;"><g class="annotation-text-g" transform="rotate(0,699.28,230.81)"><g class="cursor-pointer" transform="translate(627, 195)"><rect class="bg" x="0.5" y="0.5" width="143" height="71" style="stroke-width: 1px; stroke: rgb(0, 0, 0); stroke-opacity: 0; fill: rgb(255, 255, 255); fill-opacity: 0.6;"/><text class="annotation-text" text-anchor="middle" x="72.078125" y="55.5" style="font-family: 'Open Sans', verdana, arial, sans-serif; font-size: 50px; fill: rgb(8, 115, 191); fill-opacity: 1; white-space: pre;"> <tspan style="font-weight:bold">1476 </tspan></text></g></g><g class="annotation-arrow-g" style="opacity: 1;"><path d="M727.68,266.31L739.28,280.81" style="stroke-width: 1px; stroke: rgb(8, 115, 191); stroke-opacity: 1; stroke-dasharray: 0px, 0px, 18.5691px, 18.5691px;"/></g></g></g></svg>