<svg class="main-svg" xmlns="http://www.w3.org/2000/svg" xmlns:xlink="http://www.w3.org/1999/xlink" width="1125" height="750" style="" viewBox="0 0 750 500"><rect x="0" y="0" width="750" height="500" style="fill: rgb(0, 0, 0); fill-opacity: 0;"/><defs id="defs-97f653"><g class="clips"><clipPath id="clip97f653xyplot" class="plotclip"><rect width="700" height="380"/></clipPath><clipPath class="axesclip" id="clip97f653x"><rect x="50" y="0" width="700" height="500"/></clipPath><clipPath class="axesclip" id="clip97f653y"><rect x="0" y="70" width="750" height="380"/></clipPath><clipPath class="axesclip" id="clip97f653xy"><rect x="50" y="70" width="700" height="380"/></clipPath></g><g class="gradients"/></defs><g class="bglayer"><rect class="bg" x="50" y="70" width="700" height="380" style="fill: rgb(0, 0, 0); fill-opacity: 0; stroke-width: 0;"/></g><g class="layer-below"><g class="imagelayer"/><g class="shapelayer"/></g><g class="cartesianlayer"><g class="subplot xy"><g class="layer-subplot"><g class="shapelayer"/><g class="imagelayer"/></g><g class="gridlayer"><g class="x"><path class="xgrid crisp" transform="translate(104.74000000000001,0)" d="M0,70v380" style="stroke: rgb(255, 255, 255); stroke-opacity: 1; stroke-width: 1px;"/><path class="xgrid crisp" transform="translate(205.92,0)" d="M0,70v380" style="stroke: rgb(255, 255, 255); stroke-opacity: 1; stroke-width: 1px;"/><path class="xgrid crisp" transform="translate(303.78999999999996,0)" d="M0,70v380" style="stroke: rgb(255, 255, 255); stroke-opacity: 1; stroke-width: 1px;"/><path class="xgrid crisp" transform="translate(404.98,0)" d="M0,70v380" style="stroke: rgb(255, 255, 255); stroke-opacity: 1; stroke-width: 1px;"/><path class="xgrid crisp" transform="translate(506.16,0)" d="M0,70v380" style="stroke: rgb(255, 255, 255); stroke-opacity: 1; stroke-width: 1px;"/><path class="xgrid crisp" transform="translate(609,0)" d="M0,70v380" style="stroke: rgb(255, 255, 255); stroke-opacity: 1; stroke-width: 1px;"/><path class="xgrid crisp" transform="translate(710.19,0)" d="M0,70v380" style="stroke: rgb(255, 255, 255); stroke-opacity: 1; stroke-width: 1px;"/></g><g class="y"/></g><g class="zerolinelayer"/><path class="xlines-below"/><path class="ylines-below"/><g class="overlines-below"/><g class="xaxislayer-below"/><g class="yaxislayer-below"/><g class="overaxes-below"/><g class="plot" transform="translate(50, 70)" clip-path="url('#clip97f653xyplot')"><g class="scatterlayer mlayer"><g class="trace scatter trace473725" style="stroke-miterlimit: 2;"><g class="fills"><g><path class="js-fill" d="M671.8,380L-225.59,380L-225.59,373.92L-209,378.89L-207.35,378.34L-187.44,379.45L-185.78,380L-164.22,377.79L-162.56,377.23L-147.63,380L-145.97,380L-112.8,379.45L-111.14,377.79L-101.18,375.57L-99.53,377.23L-94.55,375.57L-92.89,374.47L-89.57,374.47L-87.91,371.7L-84.6,370.04L-82.94,373.36L-79.62,370.04L-77.96,370.04L-72.99,371.7L-71.33,370.6L-69.67,375.02L-68.01,374.47L-66.35,374.47L-64.69,370.04L-61.37,358.98L-59.72,354L-56.4,348.47L-54.74,348.47L-51.42,349.58L-49.76,353.45L-44.79,360.09L-43.13,360.09L-41.47,361.75L-39.81,361.19L-36.49,362.85L-34.83,359.53L-29.86,354.56L-28.2,346.81L-26.54,344.6L-24.88,337.41L-23.22,332.98L-21.56,332.98L-19.91,334.09L-18.25,329.11L-16.59,338.52L-14.93,340.73L-11.61,344.6L-9.95,345.71L-8.29,345.71L-6.64,350.68L-4.98,347.92L-3.32,346.81L-1.66,348.47L0,346.81L1.66,343.49L3.32,343.49L4.98,335.2L6.64,333.54L9.95,321.37L11.61,316.94L13.27,314.18L14.93,314.18L18.25,300.9L19.91,288.73L24.88,258.86L26.54,257.21L28.2,240.61L29.86,209.08L33.18,190.83L34.83,159.85L36.49,146.58L38.15,144.37L43.13,99.01L44.79,73.01L48.1,50.33L49.76,49.23L51.42,41.48L53.08,21.57L54.74,8.85L56.4,11.62L59.72,37.61L61.37,37.06L63.03,22.68L64.69,0L66.35,58.08L68.01,57.53L71.33,87.39L72.99,92.37L74.64,114.5L76.3,191.94L77.96,183.09L79.62,215.72L81.28,235.63L82.94,241.72L84.6,242.27L86.26,254.44L87.91,256.65L89.57,254.99L91.23,257.21L92.89,256.1L94.55,254.99L96.21,250.57L97.87,266.61L99.53,267.71L101.18,263.29L102.84,262.18L106.16,253.89L107.82,256.65L109.48,258.31L111.14,246.7L112.8,252.23L114.45,254.44L116.11,263.84L117.77,257.76L119.43,257.21L121.09,253.33L122.75,257.76L124.41,256.1L126.07,256.1L127.73,248.36L129.38,247.8L131.04,250.01L132.7,245.59L134.36,255.55L136.02,256.1L137.68,254.44L139.34,273.8L141,277.12L142.65,274.91L144.31,278.78L145.97,268.82L147.63,253.89L149.29,248.36L150.95,247.8L152.61,236.74L154.27,237.29L157.58,182.53L159.24,179.77L162.56,132.75L164.22,144.37L165.88,144.37L167.54,147.13L169.19,156.54L170.85,142.15L172.51,147.69L174.17,132.75L175.83,100.67L177.49,99.01L179.15,89.05L180.81,85.18L182.46,75.78L184.12,61.95L185.78,68.03L187.44,79.1L189.1,80.76L190.76,74.67L192.42,75.23L194.08,101.22L195.73,116.16L197.39,107.31L199.05,121.69L200.71,120.58L202.37,123.35L204.03,122.79L209,116.16L210.66,125.56L213.98,125.01L215.64,128.88L217.3,132.2L218.96,133.3L220.62,152.11L222.27,151.56L223.93,153.22L225.59,170.36L227.25,168.7L228.91,171.47L230.57,183.09L232.23,178.11L235.55,174.79L237.2,181.43L238.86,199.13L240.52,207.42L243.84,225.68L245.5,226.23L247.16,226.78L248.82,238.4L252.13,264.95L253.79,264.4L255.45,270.48L257.11,271.59L258.77,272.69L260.43,269.37L263.74,263.84L265.4,256.65L267.06,256.65L268.72,254.99L270.38,254.99L272.04,251.67L273.7,240.61L275.36,220.15L277.01,221.8L278.67,214.61L280.33,210.19L281.99,209.64L283.65,211.3L285.31,191.38L286.97,198.57L288.63,183.09L290.28,178.11L291.94,179.77L293.6,177.55L295.26,173.68L296.92,190.83L298.58,174.79L300.24,164.28L301.9,161.51L303.55,154.88L305.21,154.32L306.87,187.51L308.53,160.41L310.19,158.2L311.85,162.62L313.51,163.73L315.17,162.62L316.82,165.39L318.48,122.24L320.14,144.37L321.8,155.98L323.46,163.17L325.12,157.64L326.78,159.85L328.44,159.85L330.09,149.9L331.75,148.79L333.41,156.54L335.07,154.32L336.73,155.98L338.39,154.88L340.05,154.32L341.71,168.15L343.36,170.92L345.02,164.28L346.68,173.13L348.34,173.13L350,196.91L351.66,197.47L356.64,214.61L358.29,212.4L359.95,219.59L361.61,220.15L363.27,218.49L364.93,223.46L368.25,227.34L369.91,261.63L371.56,271.03L373.22,264.4L374.88,262.74L376.54,268.27L378.2,270.48L379.86,274.35L381.52,264.95L383.18,269.37L384.83,268.82L386.49,271.59L388.15,297.03L389.81,299.8L391.47,305.88L393.13,299.8L396.45,303.11L398.1,303.67L399.76,284.31L401.42,294.82L403.08,289.29L404.74,293.71L406.4,295.92L408.06,296.48L409.72,296.48L411.37,306.99L413.03,314.73L414.69,331.88L419.67,356.22L421.33,357.32L422.99,365.07L424.64,367.28L426.3,367.28L427.96,368.94L431.28,366.17L432.94,366.17L434.6,365.62L436.26,366.17L437.91,366.72L439.57,366.17L442.89,367.83L444.55,367.83L446.21,367.28L447.87,368.94L449.53,369.49L451.18,366.17L452.84,363.96L454.5,364.51L456.16,363.41L457.82,364.51L461.14,361.75L462.8,366.72L464.45,368.38L466.11,367.83L467.77,368.38L469.43,367.28L471.09,366.72L472.75,368.94L476.07,361.19L477.73,360.09L479.38,358.98L481.04,351.79L482.7,346.26L484.36,329.67L487.68,315.28L489.34,310.86L494.31,309.2L495.97,315.28L497.63,315.28L499.29,319.16L500.95,319.16L502.61,317.5L504.27,316.39L505.92,308.65L509.24,308.09L510.9,295.92L512.56,295.37L514.22,297.58L519.19,277.67L520.85,273.25L522.51,272.69L524.17,264.4L525.83,264.4L527.49,263.29L532.46,275.46L534.12,284.31L535.78,291.5L537.44,291.5L539.1,291.5L540.76,284.86L545.73,265.5L547.39,266.06L549.05,262.74L550.71,262.74L552.37,265.5L554.03,276.01L555.69,275.46L557.35,286.52L559,287.63L560.66,292.61L563.98,306.99L565.64,305.33L567.3,317.5L568.96,317.5L570.62,318.05L572.27,316.39L573.93,318.05L575.59,322.47L577.25,328.56L578.91,329.11L582.23,332.43L583.89,332.98L588.86,348.47L590.52,352.34L592.18,355.66L593.84,356.22L595.5,356.22L597.16,357.87L600.47,362.85L602.13,362.3L603.79,363.96L605.45,366.72L607.11,367.83L608.77,364.51L610.43,365.07L612.09,364.51L613.74,363.41L615.4,360.64L622.04,358.43L623.7,356.22L625.36,345.15L627.01,344.6L628.67,344.6L630.33,345.71L631.99,344.05L633.65,340.73L636.97,340.17L638.63,337.41L640.28,334.64L641.94,334.64L645.26,329.67L646.92,320.26L648.58,326.9L650.24,328.56L653.55,327.45L655.21,337.96L660.19,327.45L661.85,319.71L663.51,315.84L665.17,314.73L666.82,293.71L668.48,288.73L670.14,291.5L671.8,301.46" style="fill: rgb(8, 115, 191); fill-opacity: 0.2; stroke-width: 0;"/></g></g><g class="errorbars"/><g class="lines"><path class="js-line" d="M-225.59,373.92L-209,378.89L-207.35,378.34L-187.44,379.45L-185.78,380L-164.22,377.79L-162.56,377.23L-147.63,380L-145.97,380L-112.8,379.45L-111.14,377.79L-101.18,375.57L-99.53,377.23L-94.55,375.57L-92.89,374.47L-89.57,374.47L-87.91,371.7L-84.6,370.04L-82.94,373.36L-79.62,370.04L-77.96,370.04L-72.99,371.7L-71.33,370.6L-69.67,375.02L-68.01,374.47L-66.35,374.47L-64.69,370.04L-61.37,358.98L-59.72,354L-56.4,348.47L-54.74,348.47L-51.42,349.58L-49.76,353.45L-44.79,360.09L-43.13,360.09L-41.47,361.75L-39.81,361.19L-36.49,362.85L-34.83,359.53L-29.86,354.56L-28.2,346.81L-26.54,344.6L-24.88,337.41L-23.22,332.98L-21.56,332.98L-19.91,334.09L-18.25,329.11L-16.59,338.52L-14.93,340.73L-11.61,344.6L-9.95,345.71L-8.29,345.71L-6.64,350.68L-4.98,347.92L-3.32,346.81L-1.66,348.47L0,346.81L1.66,343.49L3.32,343.49L4.98,335.2L6.64,333.54L9.95,321.37L11.61,316.94L13.27,314.18L14.93,314.18L18.25,300.9L19.91,288.73L24.88,258.86L26.54,257.21L28.2,240.61L29.86,209.08L33.18,190.83L34.83,159.85L36.49,146.58L38.15,144.37L43.13,99.01L44.79,73.01L48.1,50.33L49.76,49.23L51.42,41.48L53.08,21.57L54.74,8.85L56.4,11.62L59.72,37.61L61.37,37.06L63.03,22.68L64.69,0L66.35,58.08L68.01,57.53L71.33,87.39L72.99,92.37L74.64,114.5L76.3,191.94L77.96,183.09L79.62,215.72L81.28,235.63L82.94,241.72L84.6,242.27L86.26,254.44L87.91,256.65L89.57,254.99L91.23,257.21L92.89,256.1L94.55,254.99L96.21,250.57L97.87,266.61L99.53,267.71L101.18,263.29L102.84,262.18L106.16,253.89L107.82,256.65L109.48,258.31L111.14,246.7L112.8,252.23L114.45,254.44L116.11,263.84L117.77,257.76L119.43,257.21L121.09,253.33L122.75,257.76L124.41,256.1L126.07,256.1L127.73,248.36L129.38,247.8L131.04,250.01L132.7,245.59L134.36,255.55L136.02,256.1L137.68,254.44L139.34,273.8L141,277.12L142.65,274.91L144.31,278.78L145.97,268.82L147.63,253.89L149.29,248.36L150.95,247.8L152.61,236.74L154.27,237.29L157.58,182.53L159.24,179.77L162.56,132.75L164.22,144.37L165.88,144.37L167.54,147.13L169.19,156.54L170.85,142.15L172.51,147.69L174.17,132.75L175.83,100.67L177.49,99.01L179.15,89.05L180.81,85.18L182.46,75.78L184.12,61.95L185.78,68.03L187.44,79.1L189.1,80.76L190.76,74.67L192.42,75.23L194.08,101.22L195.73,116.16L197.39,107.31L199.05,121.69L200.71,120.58L202.37,123.35L204.03,122.79L209,116.16L210.66,125.56L213.98,125.01L215.64,128.88L217.3,132.2L218.96,133.3L220.62,152.11L222.27,151.56L223.93,153.22L225.59,170.36L227.25,168.7L228.91,171.47L230.57,183.09L232.23,178.11L235.55,174.79L237.2,181.43L238.86,199.13L240.52,207.42L243.84,225.68L245.5,226.23L247.16,226.78L248.82,238.4L252.13,264.95L253.79,264.4L255.45,270.48L257.11,271.59L258.77,272.69L260.43,269.37L263.74,263.84L265.4,256.65L267.06,256.65L268.72,254.99L270.38,254.99L272.04,251.67L273.7,240.61L275.36,220.15L277.01,221.8L278.67,214.61L280.33,210.19L281.99,209.64L283.65,211.3L285.31,191.38L286.97,198.57L288.63,183.09L290.28,178.11L291.94,179.77L293.6,177.55L295.26,173.68L296.92,190.83L298.58,174.79L300.24,164.28L301.9,161.51L303.55,154.88L305.21,154.32L306.87,187.51L308.53,160.41L310.19,158.2L311.85,162.62L313.51,163.73L315.17,162.62L316.82,165.39L318.48,122.24L320.14,144.37L321.8,155.98L323.46,163.17L325.12,157.64L326.78,159.85L328.44,159.85L330.09,149.9L331.75,148.79L333.41,156.54L335.07,154.32L336.73,155.98L338.39,154.88L340.05,154.32L341.71,168.15L343.36,170.92L345.02,164.28L346.68,173.13L348.34,173.13L350,196.91L351.66,197.47L356.64,214.61L358.29,212.4L359.95,219.59L361.61,220.15L363.27,218.49L364.93,223.46L368.25,227.34L369.91,261.63L371.56,271.03L373.22,264.4L374.88,262.74L376.54,268.27L378.2,270.48L379.86,274.35L381.52,264.95L383.18,269.37L384.83,268.82L386.49,271.59L388.15,297.03L389.81,299.8L391.47,305.88L393.13,299.8L396.45,303.11L398.1,303.67L399.76,284.31L401.42,294.82L403.08,289.29L404.74,293.71L406.4,295.92L408.06,296.48L409.72,296.48L411.37,306.99L413.03,314.73L414.69,331.88L419.67,356.22L421.33,357.32L422.99,365.07L424.64,367.28L426.3,367.28L427.96,368.94L431.28,366.17L432.94,366.17L434.6,365.62L436.26,366.17L437.91,366.72L439.57,366.17L442.89,367.83L444.55,367.83L446.21,367.28L447.87,368.94L449.53,369.49L451.18,366.17L452.84,363.96L454.5,364.51L456.16,363.41L457.82,364.51L461.14,361.75L462.8,366.72L464.45,368.38L466.11,367.83L467.77,368.38L469.43,367.28L471.09,366.72L472.75,368.94L476.07,361.19L477.73,360.09L479.38,358.98L481.04,351.79L482.7,346.26L484.36,329.67L487.68,315.28L489.34,310.86L494.31,309.2L495.97,315.28L497.63,315.28L499.29,319.16L500.95,319.16L502.61,317.5L504.27,316.39L505.92,308.65L509.24,308.09L510.9,295.92L512.56,295.37L514.22,297.58L519.19,277.67L520.85,273.25L522.51,272.69L524.17,264.4L525.83,264.4L527.49,263.29L532.46,275.46L534.12,284.31L535.78,291.5L537.44,291.5L539.1,291.5L540.76,284.86L545.73,265.5L547.39,266.06L549.05,262.74L550.71,262.74L552.37,265.5L554.03,276.01L555.69,275.46L557.35,286.52L559,287.63L560.66,292.61L563.98,306.99L565.64,305.33L567.3,317.5L568.96,317.5L570.62,318.05L572.27,316.39L573.93,318.05L575.59,322.47L577.25,328.56L578.91,329.11L582.23,332.43L583.89,332.98L588.86,348.47L590.52,352.34L592.18,355.66L593.84,356.22L595.5,356.22L597.16,357.87L600.47,362.85L602.13,362.3L603.79,363.96L605.45,366.72L607.11,367.83L608.77,364.51L610.43,365.07L612.09,364.51L613.74,363.41L615.4,360.64L622.04,358.43L623.7,356.22L625.36,345.15L627.01,344.6L628.67,344.6L630.33,345.71L631.99,344.05L633.65,340.73L636.97,340.17L638.63,337.41L640.28,334.64L641.94,334.64L645.26,329.67L646.92,320.26L648.58,326.9L650.24,328.56L653.55,327.45L655.21,337.96L660.19,327.45L661.85,319.71L663.51,315.84L665.17,314.73L666.82,293.71L668.48,288.73L670.14,291.5L671.8,301.46" style="vector-effect: non-scaling-stroke; fill: none; stroke: rgb(8, 115, 191); stroke-opacity: 1; stroke-width: 0.5px; opacity: 1;"/></g><g class="points"/><g class="text"/></g><g class="trace scatter trace2ba0cb" style="stroke-miterlimit: 2;"><g class="fills"><g><path class="js-fill" d="M688.39,380L671.8,380L671.8,301.46L675.12,283.2L676.78,283.2L680.09,271.03L681.75,258.31L685.07,229.55L686.73,227.34L688.39,227.89" style="fill: rgb(8, 115, 191); fill-opacity: 0.4; stroke-width: 0;"/></g></g><g class="errorbars"/><g class="lines"><path class="js-line" d="M671.8,301.46L675.12,283.2L676.78,283.2L680.09,271.03L681.75,258.31L685.07,229.55L686.73,227.34L688.39,227.89" style="vector-effect: non-scaling-stroke; fill: none; stroke: rgb(8, 115, 191); stroke-opacity: 1; stroke-width: 2px; opacity: 1;"/></g><g class="points"/><g class="text"/></g><g class="trace scatter trace84e778" style="stroke-miterlimit: 2; opacity: 1;"><g class="fills"/><g class="errorbars"/><g class="lines"/><g class="points"><path class="point" transform="translate(688.39,227.89)" d="M15,0A15,15 0 1,1 0,-15A15,15 0 0,1 15,0Z" style="opacity: 1; stroke-width: 0px; fill: rgb(8, 115, 191); fill-opacity: 1;"/></g><g class="text"/></g></g></g><g class="overplot"/><path class="xlines-above crisp" style="fill: none; stroke-width: 1px; stroke: rgb(0, 0, 0); stroke-opacity: 0;" d=""/><path class="ylines-above crisp" style="fill: none;" d="M0,0"/><g class="overlines-above"/><g class="xaxislayer-above"><path class="xtick ticks crisp" d="M0,450v-5" transform="translate(104.74000000000001,0)" style="stroke: rgb(68, 68, 68); stroke-opacity: 1; stroke-width: 1px;"/><path class="xtick ticks crisp" d="M0,450v-5" transform="translate(205.92,0)" style="stroke: rgb(68, 68, 68); stroke-opacity: 1; stroke-width: 1px;"/><path class="xtick ticks crisp" d="M0,450v-5" transform="translate(303.78999999999996,0)" style="stroke: rgb(68, 68, 68); stroke-opacity: 1; stroke-width: 1px;"/><path class="xtick ticks crisp" d="M0,450v-5" transform="translate(404.98,0)" style="stroke: rgb(68, 68, 68); stroke-opacity: 1; stroke-width: 1px;"/><path class="xtick ticks crisp" d="M0,450v-5" transform="translate(506.16,0)" style="stroke: rgb(68, 68, 68); stroke-opacity: 1; stroke-width: 1px;"/><path class="xtick ticks crisp" d="M0,450v-5" transform="translate(609,0)" style="stroke: rgb(68, 68, 68); stroke-opacity: 1; stroke-width: 1px;"/><path class="xtick ticks crisp" d="M0,450v-5" transform="translate(710.19,0)" style="stroke: rgb(68, 68, 68); stroke-opacity: 1; stroke-width: 1px;"/><g class="xtick"><text text-anchor="middle" x="0" y="469" transform="translate(104.74000000000001,0)" style="font-family: 'Open Sans', verdana, arial, sans-serif; font-size: 18px; fill: rgb(42, 63, 95); fill-opacity: 1; white-space: pre;">01/11</text></g><g class="xtick"><text text-anchor="middle" x="0" y="469" transform="translate(205.92,0)" style="font-family: 'Open Sans', verdana, arial, sans-serif; font-size: 18px; fill: rgb(42, 63, 95); fill-opacity: 1; white-space: pre;">01/01</text></g><g class="xtick"><text text-anchor="middle" x="0" y="469" transform="translate(303.78999999999996,0)" style="font-family: 'Open Sans', verdana, arial, sans-serif; font-size: 18px; fill: rgb(42, 63, 95); fill-opacity: 1; white-space: pre;">01/03</text></g><g class="xtick"><text text-anchor="middle" x="0" y="469" transform="translate(404.98,0)" style="font-family: 'Open Sans', verdana, arial, sans-serif; font-size: 18px; fill: rgb(42, 63, 95); fill-opacity: 1; white-space: pre;">01/05</text></g><g class="xtick"><text text-anchor="middle" x="0" y="469" transform="translate(506.16,0)" style="font-family: 'Open Sans', verdana, arial, sans-serif; font-size: 18px; fill: rgb(42, 63, 95); fill-opacity: 1; white-space: pre;">01/07</text></g><g class="xtick"><text text-anchor="middle" x="0" y="469" transform="translate(609,0)" style="font-family: 'Open Sans', verdana, arial, sans-serif; font-size: 18px; fill: rgb(42, 63, 95); fill-opacity: 1; white-space: pre;">01/09</text></g><g class="xtick"><text text-anchor="middle" x="0" y="469" transform="translate(710.19,0)" style="font-family: 'Open Sans', verdana, arial, sans-serif; font-size: 18px; fill: rgb(42, 63, 95); fill-opacity: 1; white-space: pre;">01/11</text></g></g><g class="yaxislayer-above"/><g class="overaxes-above"/></g></g><g class="polarlayer"/><g class="ternarylayer"/><g class="geolayer"/><g class="funnelarealayer"/><g class="pielayer"/><g class="treemaplayer"/><g class="sunburstlayer"/><g class="glimages"/><defs id="topdefs-97f653"><g class="clips"/></defs><g class="layer-above"><g class="imagelayer"/><g class="shapelayer"><path data-index="0" fill-rule="evenodd" d="M-882.23,389.95L330.33,389.95" clip-path="url('#clip97f653xy')" style="opacity: 1; stroke: rgb(255, 0, 0); stroke-opacity: 1; fill: rgb(0, 0, 0); fill-opacity: 0; stroke-dasharray: 3px, 3px; stroke-width: 1.5px;"/></g></g><g class="infolayer"><g class="g-gtitle"><text class="gtitle" x="375" y="25" text-anchor="middle" dy="0.7em" style="font-family: 'Open Sans', verdana, arial, sans-serif; font-size: 50px; fill: rgb(42, 63, 95); opacity: 1; font-weight: normal; white-space: pre;"><tspan style="font-weight:bold">Indre (36)</tspan></text></g><g class="g-xtitle"/><g class="annotation" data-index="0" style="opacity: 1;"><g class="annotation-text-g" transform="rotate(0,696.39,237.89)"><g class="cursor-pointer" transform="translate(638, 202)"><rect class="bg" x="0.5" y="0.5" width="115" height="71" style="stroke-width: 1px; stroke: rgb(0, 0, 0); stroke-opacity: 0; fill: rgb(255, 255, 255); fill-opacity: 0.6;"/><text class="annotation-text" text-anchor="middle" x="57.8125" y="55.5" style="font-family: 'Open Sans', verdana, arial, sans-serif; font-size: 50px; fill: rgb(8, 115, 191); fill-opacity: 1; white-space: pre;"> <tspan style="font-weight:bold">126 </tspan></text></g></g><g class="annotation-arrow-g" style="opacity: 1;"><path d="M724.79,273.39L736.39,287.89" style="stroke-width: 1px; stroke: rgb(8, 115, 191); stroke-opacity: 1; stroke-dasharray: 0px, 0px, 18.5691px, 18.5691px;"/></g></g></g></svg>