<svg class="main-svg" xmlns="http://www.w3.org/2000/svg" xmlns:xlink="http://www.w3.org/1999/xlink" width="1125" height="750" style="" viewBox="0 0 750 500"><rect x="0" y="0" width="750" height="500" style="fill: rgb(0, 0, 0); fill-opacity: 0;"/><defs id="defs-d9bbd4"><g class="clips"><clipPath id="clipd9bbd4xyplot" class="plotclip"><rect width="700" height="380"/></clipPath><clipPath class="axesclip" id="clipd9bbd4x"><rect x="50" y="0" width="700" height="500"/></clipPath><clipPath class="axesclip" id="clipd9bbd4y"><rect x="0" y="70" width="750" height="380"/></clipPath><clipPath class="axesclip" id="clipd9bbd4xy"><rect x="50" y="70" width="700" height="380"/></clipPath></g><g class="gradients"/></defs><g class="bglayer"><rect class="bg" x="50" y="70" width="700" height="380" style="fill: rgb(0, 0, 0); fill-opacity: 0; stroke-width: 0;"/></g><g class="layer-below"><g class="imagelayer"/><g class="shapelayer"/></g><g class="cartesianlayer"><g class="subplot xy"><g class="layer-subplot"><g class="shapelayer"/><g class="imagelayer"/></g><g class="gridlayer"><g class="x"><path class="xgrid crisp" transform="translate(52.19,0)" d="M0,70v380" style="stroke: rgb(255, 255, 255); stroke-opacity: 1; stroke-width: 1px;"/><path class="xgrid crisp" transform="translate(152.97,0)" d="M0,70v380" style="stroke: rgb(255, 255, 255); stroke-opacity: 1; stroke-width: 1px;"/><path class="xgrid crisp" transform="translate(251.56,0)" d="M0,70v380" style="stroke: rgb(255, 255, 255); stroke-opacity: 1; stroke-width: 1px;"/><path class="xgrid crisp" transform="translate(351.25,0)" d="M0,70v380" style="stroke: rgb(255, 255, 255); stroke-opacity: 1; stroke-width: 1px;"/><path class="xgrid crisp" transform="translate(452.03,0)" d="M0,70v380" style="stroke: rgb(255, 255, 255); stroke-opacity: 1; stroke-width: 1px;"/><path class="xgrid crisp" transform="translate(552.8199999999999,0)" d="M0,70v380" style="stroke: rgb(255, 255, 255); stroke-opacity: 1; stroke-width: 1px;"/><path class="xgrid crisp" transform="translate(651.41,0)" d="M0,70v380" style="stroke: rgb(255, 255, 255); stroke-opacity: 1; stroke-width: 1px;"/></g><g class="y"/></g><g class="zerolinelayer"/><path class="xlines-below"/><path class="ylines-below"/><g class="overlines-below"/><g class="xaxislayer-below"/><g class="yaxislayer-below"/><g class="overaxes-below"/><g class="plot" transform="translate(50, 70)" clip-path="url('#clipd9bbd4xyplot')"><g class="scatterlayer mlayer"><g class="trace scatter trace2716af" style="stroke-miterlimit: 2;"><g class="fills"><g><path class="js-fill" d="M681.38,380L-148.98,380L-148.98,379.46L-139.12,379.43L-138.03,379.25L-53.68,378.64L-52.58,378.64L-49.3,377.6L-48.2,377.06L-40.53,377.64L-39.44,377.71L-30.67,376.85L-29.58,377.24L-26.29,377.03L-25.2,376.49L-19.72,375.2L-18.62,375.06L-15.34,375.49L-14.24,374.91L-9.86,374.81L-8.76,374.41L-3.29,374.48L-2.19,374.48L-1.1,374.45L0,373.44L2.19,372.94L3.29,371.51L4.38,370.79L5.48,368.97L8.76,364.56L9.86,364.6L12.05,363.27L13.15,362.59L16.43,359.65L17.53,359.01L23,342.32L24.1,340.06L25.2,339.66L26.29,336.26L29.58,326.73L30.67,327.52L32.86,328.99L33.96,329.81L36.15,332L37.25,335.33L39.44,336.98L40.53,337.16L42.72,343.78L43.82,350.63L44.91,349.69L46.01,351.66L48.2,352.85L49.3,352.88L50.39,353.96L51.49,351.41L52.58,354.89L53.68,355.28L55.87,355.68L56.96,357.72L59.15,359.65L60.25,361.27L61.35,363.13L62.44,363.27L64.63,363.92L65.73,365.53L69.01,366.1L70.11,366.64L73.4,366.07L74.49,365.38L77.78,365.31L78.87,365.31L81.06,364.24L82.16,363.92L85.45,360.8L86.54,360.76L87.64,361.44L88.73,359.8L89.83,358.18L90.92,358.79L92.02,362.27L93.11,362.09L95.31,361.84L96.4,363.27L97.5,364.2L98.59,363.52L99.69,363.27L100.78,361.84L105.16,360.87L106.26,361.44L107.36,358.4L108.45,359.65L110.64,360.44L111.74,361.48L112.83,362.38L113.93,361.87L117.21,363.56L118.31,363.16L122.69,362.52L123.79,362.12L125.98,362.59L127.07,361.27L129.26,360.3L130.36,360.51L132.55,359.94L133.65,359.9L134.74,360.15L135.84,359.51L136.93,360.3L138.03,358.26L140.22,358.76L141.31,358.15L142.41,358.61L143.51,360.33L145.7,362.66L146.79,362.2L150.08,362.88L151.17,362.34L152.27,362.2L153.36,363.34L155.56,362.91L156.65,363.16L158.84,361.62L159.94,358.54L162.13,355.75L163.22,355.25L168.7,351.09L169.8,350.63L170.89,350.41L171.99,348.73L177.46,345.47L178.56,345.4L180.75,341.35L181.85,341.35L184.04,338.63L185.13,337.34L186.23,337.12L187.32,335.9L192.8,331.21L193.9,331.1L196.09,327.7L197.18,327.52L199.37,329.03L200.47,329.63L201.56,330.53L202.66,340.63L204.85,344.32L205.95,346.65L208.14,350.12L209.23,349.62L210.33,344.11L211.42,347.47L215.81,350.05L216.9,350.27L218,351.63L219.09,351.13L220.19,351.59L221.28,353.1L222.38,353.74L223.47,352.81L225.67,353.67L226.76,355.64L230.05,358.04L231.14,361.52L232.24,361.41L233.33,362.52L237.72,367.28L238.81,367.1L239.91,367.28L241,368.61L243.19,369.47L244.29,370.97L247.57,370.15L248.67,370.26L250.86,370.29L251.96,368.9L255.24,370.18L256.34,372.37L259.62,373.52L260.72,374.34L262.91,374.3L264.01,373.52L266.2,374.52L267.29,375.02L270.58,376.31L271.67,376.6L273.87,377.28L274.96,377.96L281.53,379.18L282.63,379.14L293.58,379.18L294.68,379.18L313.3,378.35L314.4,377.81L317.68,376.99L318.78,376.27L322.07,374.2L323.16,373.62L324.26,373.66L325.35,372.8L327.54,371.9L328.64,371.83L338.5,371.15L339.59,371.19L341.78,370.83L342.88,370.4L345.07,368.79L346.17,368.57L350.55,367.71L351.64,368.82L366.98,370.79L368.08,370.54L376.84,374.41L377.93,374.3L381.22,375.56L382.32,375.34L388.89,374.23L389.98,374.41L393.27,375.16L394.37,375.02L402.03,375.24L403.13,375.7L407.51,377.1L408.61,376.96L411.89,377.03L412.99,377.1L416.28,377.28L417.37,377.13L427.23,377.46L428.33,376.85L431.61,376.56L432.71,376.81L440.38,376.96L441.47,376.53L443.66,375.67L444.76,375.13L449.14,371.94L450.23,370.08L452.43,366.42L453.52,365.13L454.62,364.92L455.71,361.98L461.19,353.85L462.28,353.74L465.57,345.04L466.67,342.39L468.86,338.3L469.95,338.37L471.05,338.09L472.14,336.83L473.24,336.91L474.33,338.02L476.53,339.52L477.62,338.84L480.91,341.46L482,340.95L484.19,343.43L485.29,343.21L486.38,344.03L487.48,343.25L489.67,339.27L490.77,333.57L491.86,335.37L492.96,333.47L498.44,260.57L499.53,257.63L500.63,253.26L501.72,222.63L503.91,188.28L505.01,181.12L506.1,172.88L507.2,154.14L509.39,150.2L510.49,149.59L514.87,101.81L515.96,96.5L519.25,46.28L520.34,29.55L522.54,16.59L523.63,14.79L524.73,0.18L525.82,0L528.01,13.79L529.11,14.9L531.3,23.46L532.39,42.66L535.68,78.74L536.78,96.9L537.87,110.48L538.97,113.88L542.25,188.42L543.35,206.8L545.54,234.99L546.64,238.75L548.83,264.19L549.92,273.04L553.21,292.67L554.3,295.82L557.59,310.97L558.69,314.88L561.97,319.96L563.07,323.47L565.26,324.98L566.35,325.55L567.45,327.16L568.54,324.91L569.64,324.69L570.74,323.51L574.02,317.81L575.12,315.48L577.31,315.09L578.4,309.54L582.79,288.58L583.88,281.7L584.98,279.66L586.07,265.91L590.45,226.79L591.55,224.75L592.64,224.28L593.74,222.13L594.84,222.6L595.93,224.1L597.03,225L598.12,231.66L600.31,234.67L601.41,239.86L602.5,242.19L603.6,242.41L604.69,244.31L605.79,244.16L606.89,243.88L607.98,244.49L610.17,248.89L611.27,255.05L614.55,264.37L615.65,265.69L616.74,288.33L617.84,289.48L622.22,309.9L623.32,310.04L624.41,299.19L625.51,307.53L627.7,317.67L628.79,321.18L629.89,324.51L630.99,325.01L633.18,331.68L634.27,332.32L637.56,336.19L638.65,336.55L639.75,337.62L640.85,339.77L645.23,346.22L646.32,346.47L648.51,350.88L649.61,351.27L653.99,353.1L655.09,354.75L657.28,357.36L658.37,360.73L660.56,362.45L661.66,362.48L662.75,362.3L663.85,361.09L664.95,360.69L666.04,357.36L669.33,355.64L670.42,358.44L672.61,353.96L673.71,352.74L675.9,351.84L677,352.2L678.09,348.05L679.19,350.23L681.38,349.66" style="fill: rgb(8, 115, 191); fill-opacity: 0.2; stroke-width: 0;"/></g></g><g class="errorbars"/><g class="lines"><path class="js-line" d="M-148.98,379.46L-139.12,379.43L-138.03,379.25L-53.68,378.64L-52.58,378.64L-49.3,377.6L-48.2,377.06L-40.53,377.64L-39.44,377.71L-30.67,376.85L-29.58,377.24L-26.29,377.03L-25.2,376.49L-19.72,375.2L-18.62,375.06L-15.34,375.49L-14.24,374.91L-9.86,374.81L-8.76,374.41L-3.29,374.48L-2.19,374.48L-1.1,374.45L0,373.44L2.19,372.94L3.29,371.51L4.38,370.79L5.48,368.97L8.76,364.56L9.86,364.6L12.05,363.27L13.15,362.59L16.43,359.65L17.53,359.01L23,342.32L24.1,340.06L25.2,339.66L26.29,336.26L29.58,326.73L30.67,327.52L32.86,328.99L33.96,329.81L36.15,332L37.25,335.33L39.44,336.98L40.53,337.16L42.72,343.78L43.82,350.63L44.91,349.69L46.01,351.66L48.2,352.85L49.3,352.88L50.39,353.96L51.49,351.41L52.58,354.89L53.68,355.28L55.87,355.68L56.96,357.72L59.15,359.65L60.25,361.27L61.35,363.13L62.44,363.27L64.63,363.92L65.73,365.53L69.01,366.1L70.11,366.64L73.4,366.07L74.49,365.38L77.78,365.31L78.87,365.31L81.06,364.24L82.16,363.92L85.45,360.8L86.54,360.76L87.64,361.44L88.73,359.8L89.83,358.18L90.92,358.79L92.02,362.27L93.11,362.09L95.31,361.84L96.4,363.27L97.5,364.2L98.59,363.52L99.69,363.27L100.78,361.84L105.16,360.87L106.26,361.44L107.36,358.4L108.45,359.65L110.64,360.44L111.74,361.48L112.83,362.38L113.93,361.87L117.21,363.56L118.31,363.16L122.69,362.52L123.79,362.12L125.98,362.59L127.07,361.27L129.26,360.3L130.36,360.51L132.55,359.94L133.65,359.9L134.74,360.15L135.84,359.51L136.93,360.3L138.03,358.26L140.22,358.76L141.31,358.15L142.41,358.61L143.51,360.33L145.7,362.66L146.79,362.2L150.08,362.88L151.17,362.34L152.27,362.2L153.36,363.34L155.56,362.91L156.65,363.16L158.84,361.62L159.94,358.54L162.13,355.75L163.22,355.25L168.7,351.09L169.8,350.63L170.89,350.41L171.99,348.73L177.46,345.47L178.56,345.4L180.75,341.35L181.85,341.35L184.04,338.63L185.13,337.34L186.23,337.12L187.32,335.9L192.8,331.21L193.9,331.1L196.09,327.7L197.18,327.52L199.37,329.03L200.47,329.63L201.56,330.53L202.66,340.63L204.85,344.32L205.95,346.65L208.14,350.12L209.23,349.62L210.33,344.11L211.42,347.47L215.81,350.05L216.9,350.27L218,351.63L219.09,351.13L220.19,351.59L221.28,353.1L222.38,353.74L223.47,352.81L225.67,353.67L226.76,355.64L230.05,358.04L231.14,361.52L232.24,361.41L233.33,362.52L237.72,367.28L238.81,367.1L239.91,367.28L241,368.61L243.19,369.47L244.29,370.97L247.57,370.15L248.67,370.26L250.86,370.29L251.96,368.9L255.24,370.18L256.34,372.37L259.62,373.52L260.72,374.34L262.91,374.3L264.01,373.52L266.2,374.52L267.29,375.02L270.58,376.31L271.67,376.6L273.87,377.28L274.96,377.96L281.53,379.18L282.63,379.14L293.58,379.18L294.68,379.18L313.3,378.35L314.4,377.81L317.68,376.99L318.78,376.27L322.07,374.2L323.16,373.62L324.26,373.66L325.35,372.8L327.54,371.9L328.64,371.83L338.5,371.15L339.59,371.19L341.78,370.83L342.88,370.4L345.07,368.79L346.17,368.57L350.55,367.71L351.64,368.82L366.98,370.79L368.08,370.54L376.84,374.41L377.93,374.3L381.22,375.56L382.32,375.34L388.89,374.23L389.98,374.41L393.27,375.16L394.37,375.02L402.03,375.24L403.13,375.7L407.51,377.1L408.61,376.96L411.89,377.03L412.99,377.1L416.28,377.28L417.37,377.13L427.23,377.46L428.33,376.85L431.61,376.56L432.71,376.81L440.38,376.96L441.47,376.53L443.66,375.67L444.76,375.13L449.14,371.94L450.23,370.08L452.43,366.42L453.52,365.13L454.62,364.92L455.71,361.98L461.19,353.85L462.28,353.74L465.57,345.04L466.67,342.39L468.86,338.3L469.95,338.37L471.05,338.09L472.14,336.83L473.24,336.91L474.33,338.02L476.53,339.52L477.62,338.84L480.91,341.46L482,340.95L484.19,343.43L485.29,343.21L486.38,344.03L487.48,343.25L489.67,339.27L490.77,333.57L491.86,335.37L492.96,333.47L498.44,260.57L499.53,257.63L500.63,253.26L501.72,222.63L503.91,188.28L505.01,181.12L506.1,172.88L507.2,154.14L509.39,150.2L510.49,149.59L514.87,101.81L515.96,96.5L519.25,46.28L520.34,29.55L522.54,16.59L523.63,14.79L524.73,0.18L525.82,0L528.01,13.79L529.11,14.9L531.3,23.46L532.39,42.66L535.68,78.74L536.78,96.9L537.87,110.48L538.97,113.88L542.25,188.42L543.35,206.8L545.54,234.99L546.64,238.75L548.83,264.19L549.92,273.04L553.21,292.67L554.3,295.82L557.59,310.97L558.69,314.88L561.97,319.96L563.07,323.47L565.26,324.98L566.35,325.55L567.45,327.16L568.54,324.91L569.64,324.69L570.74,323.51L574.02,317.81L575.12,315.48L577.31,315.09L578.4,309.54L582.79,288.58L583.88,281.7L584.98,279.66L586.07,265.91L590.45,226.79L591.55,224.75L592.64,224.28L593.74,222.13L594.84,222.6L595.93,224.1L597.03,225L598.12,231.66L600.31,234.67L601.41,239.86L602.5,242.19L603.6,242.41L604.69,244.31L605.79,244.16L606.89,243.88L607.98,244.49L610.17,248.89L611.27,255.05L614.55,264.37L615.65,265.69L616.74,288.33L617.84,289.48L622.22,309.9L623.32,310.04L624.41,299.19L625.51,307.53L627.7,317.67L628.79,321.18L629.89,324.51L630.99,325.01L633.18,331.68L634.27,332.32L637.56,336.19L638.65,336.55L639.75,337.62L640.85,339.77L645.23,346.22L646.32,346.47L648.51,350.88L649.61,351.27L653.99,353.1L655.09,354.75L657.28,357.36L658.37,360.73L660.56,362.45L661.66,362.48L662.75,362.3L663.85,361.09L664.95,360.69L666.04,357.36L669.33,355.64L670.42,358.44L672.61,353.96L673.71,352.74L675.9,351.84L677,352.2L678.09,348.05L679.19,350.23L681.38,349.66" style="vector-effect: non-scaling-stroke; fill: none; stroke: rgb(8, 115, 191); stroke-opacity: 1; stroke-width: 0.5px; opacity: 1;"/></g><g class="points"/><g class="text"/></g><g class="trace scatter trace2390da" style="stroke-miterlimit: 2;"><g class="fills"><g><path class="js-fill" d="M692.33,380L681.38,380L681.38,349.66L682.47,349.26L683.57,348.01L684.66,347.65L685.76,346.36L691.24,331.93L692.33,331.71" style="fill: rgb(8, 115, 191); fill-opacity: 0.4; stroke-width: 0;"/></g></g><g class="errorbars"/><g class="lines"><path class="js-line" d="M681.38,349.66L682.47,349.26L683.57,348.01L684.66,347.65L685.76,346.36L691.24,331.93L692.33,331.71" style="vector-effect: non-scaling-stroke; fill: none; stroke: rgb(8, 115, 191); stroke-opacity: 1; stroke-width: 2px; opacity: 1;"/></g><g class="points"/><g class="text"/></g><g class="trace scatter trace136d61" style="stroke-miterlimit: 2; opacity: 1;"><g class="fills"/><g class="errorbars"/><g class="lines"/><g class="points"><path class="point" transform="translate(692.33,331.71)" d="M15,0A15,15 0 1,1 0,-15A15,15 0 0,1 15,0Z" style="opacity: 1; stroke-width: 0px; fill: rgb(8, 115, 191); fill-opacity: 1;"/></g><g class="text"/></g></g></g><g class="overplot"/><path class="xlines-above crisp" style="fill: none; stroke-width: 1px; stroke: rgb(0, 0, 0); stroke-opacity: 0;" d=""/><path class="ylines-above crisp" style="fill: none;" d="M0,0"/><g class="overlines-above"/><g class="xaxislayer-above"><path class="xtick ticks crisp" d="M0,450v-5" transform="translate(52.19,0)" style="stroke: rgb(68, 68, 68); stroke-opacity: 1; stroke-width: 1px;"/><path class="xtick ticks crisp" d="M0,450v-5" transform="translate(152.97,0)" style="stroke: rgb(68, 68, 68); stroke-opacity: 1; stroke-width: 1px;"/><path class="xtick ticks crisp" d="M0,450v-5" transform="translate(251.56,0)" style="stroke: rgb(68, 68, 68); stroke-opacity: 1; stroke-width: 1px;"/><path class="xtick ticks crisp" d="M0,450v-5" transform="translate(351.25,0)" style="stroke: rgb(68, 68, 68); stroke-opacity: 1; stroke-width: 1px;"/><path class="xtick ticks crisp" d="M0,450v-5" transform="translate(452.03,0)" style="stroke: rgb(68, 68, 68); stroke-opacity: 1; stroke-width: 1px;"/><path class="xtick ticks crisp" d="M0,450v-5" transform="translate(552.8199999999999,0)" style="stroke: rgb(68, 68, 68); stroke-opacity: 1; stroke-width: 1px;"/><path class="xtick ticks crisp" d="M0,450v-5" transform="translate(651.41,0)" style="stroke: rgb(68, 68, 68); stroke-opacity: 1; stroke-width: 1px;"/><g class="xtick"><text text-anchor="middle" x="0" y="469" transform="translate(52.19,0)" style="font-family: 'Open Sans', verdana, arial, sans-serif; font-size: 18px; fill: rgb(42, 63, 95); fill-opacity: 1; white-space: pre;">01/10</text></g><g class="xtick"><text text-anchor="middle" x="0" y="469" transform="translate(152.97,0)" style="font-family: 'Open Sans', verdana, arial, sans-serif; font-size: 18px; fill: rgb(42, 63, 95); fill-opacity: 1; white-space: pre;">01/01</text></g><g class="xtick"><text text-anchor="middle" x="0" y="469" transform="translate(251.56,0)" style="font-family: 'Open Sans', verdana, arial, sans-serif; font-size: 18px; fill: rgb(42, 63, 95); fill-opacity: 1; white-space: pre;">01/04</text></g><g class="xtick"><text text-anchor="middle" x="0" y="469" transform="translate(351.25,0)" style="font-family: 'Open Sans', verdana, arial, sans-serif; font-size: 18px; fill: rgb(42, 63, 95); fill-opacity: 1; white-space: pre;">01/07</text></g><g class="xtick"><text text-anchor="middle" x="0" y="469" transform="translate(452.03,0)" style="font-family: 'Open Sans', verdana, arial, sans-serif; font-size: 18px; fill: rgb(42, 63, 95); fill-opacity: 1; white-space: pre;">01/10</text></g><g class="xtick"><text text-anchor="middle" x="0" y="469" transform="translate(552.8199999999999,0)" style="font-family: 'Open Sans', verdana, arial, sans-serif; font-size: 18px; fill: rgb(42, 63, 95); fill-opacity: 1; white-space: pre;">01/01</text></g><g class="xtick"><text text-anchor="middle" x="0" y="469" transform="translate(651.41,0)" style="font-family: 'Open Sans', verdana, arial, sans-serif; font-size: 18px; fill: rgb(42, 63, 95); fill-opacity: 1; white-space: pre;">01/04</text></g></g><g class="yaxislayer-above"/><g class="overaxes-above"/></g></g><g class="polarlayer"/><g class="ternarylayer"/><g class="geolayer"/><g class="funnelarealayer"/><g class="pielayer"/><g class="treemaplayer"/><g class="sunburstlayer"/><g class="glimages"/><defs id="topdefs-d9bbd4"><g class="clips"/></defs><g class="layer-above"><g class="imagelayer"/><g class="shapelayer"><path data-index="0" fill-rule="evenodd" d="M-565.65,444.45L235.13,444.45" clip-path="url('#clipd9bbd4xy')" style="opacity: 1; stroke: rgb(255, 0, 0); stroke-opacity: 1; fill: rgb(0, 0, 0); fill-opacity: 0; stroke-dasharray: 3px, 3px; stroke-width: 1.5px;"/></g></g><g class="infolayer"><g class="g-gtitle"><text class="gtitle" x="375" y="25" text-anchor="middle" dy="0.7em" style="font-family: 'Open Sans', verdana, arial, sans-serif; font-size: 50px; fill: rgb(42, 63, 95); opacity: 1; font-weight: normal; white-space: pre;"><tspan style="font-weight:bold">Aube (10)</tspan></text></g><g class="g-xtitle"/><g class="annotation" data-index="0" style="opacity: 1;"><g class="annotation-text-g" transform="rotate(0,700.33,341.71)"><g class="cursor-pointer" transform="translate(642, 306)"><rect class="bg" x="0.5" y="0.5" width="115" height="71" style="stroke-width: 1px; stroke: rgb(0, 0, 0); stroke-opacity: 0; fill: rgb(255, 255, 255); fill-opacity: 0.6;"/><text class="annotation-text" text-anchor="middle" x="57.8125" y="55.5" style="font-family: 'Open Sans', verdana, arial, sans-serif; font-size: 50px; fill: rgb(8, 115, 191); fill-opacity: 1; white-space: pre;"> <tspan style="font-weight:bold">434 </tspan></text></g></g><g class="annotation-arrow-g" style="opacity: 1;"><path d="M728.73,377.21L740.33,391.71" style="stroke-width: 1px; stroke: rgb(8, 115, 191); stroke-opacity: 1; stroke-dasharray: 0px, 0px, 18.5691px, 18.5691px;"/></g></g></g></svg>