<svg class="main-svg" xmlns="http://www.w3.org/2000/svg" xmlns:xlink="http://www.w3.org/1999/xlink" width="1125" height="750" style="" viewBox="0 0 750 500"><rect x="0" y="0" width="750" height="500" style="fill: rgb(0, 0, 0); fill-opacity: 0;"/><defs id="defs-58453d"><g class="clips"><clipPath id="clip58453dxyplot" class="plotclip"><rect width="683" height="380"/></clipPath><clipPath class="axesclip" id="clip58453dx"><rect x="50" y="0" width="683" height="500"/></clipPath><clipPath class="axesclip" id="clip58453dy"><rect x="0" y="70" width="750" height="380"/></clipPath><clipPath class="axesclip" id="clip58453dxy"><rect x="50" y="70" width="683" height="380"/></clipPath></g><g class="gradients"/></defs><g class="bglayer"><rect class="bg" x="50" y="70" width="683" height="380" style="fill: rgb(0, 0, 0); fill-opacity: 0; stroke-width: 0;"/></g><g class="layer-below"><g class="imagelayer"/><g class="shapelayer"/></g><g class="cartesianlayer"><g class="subplot xy"><g class="layer-subplot"><g class="shapelayer"/><g class="imagelayer"/></g><g class="gridlayer"><g class="x"><path class="xgrid crisp" transform="translate(52.11,0)" d="M0,70v380" style="stroke: rgb(255, 255, 255); stroke-opacity: 1; stroke-width: 1px;"/><path class="xgrid crisp" transform="translate(149.38,0)" d="M0,70v380" style="stroke: rgb(255, 255, 255); stroke-opacity: 1; stroke-width: 1px;"/><path class="xgrid crisp" transform="translate(244.54,0)" d="M0,70v380" style="stroke: rgb(255, 255, 255); stroke-opacity: 1; stroke-width: 1px;"/><path class="xgrid crisp" transform="translate(340.75,0)" d="M0,70v380" style="stroke: rgb(255, 255, 255); stroke-opacity: 1; stroke-width: 1px;"/><path class="xgrid crisp" transform="translate(438.02,0)" d="M0,70v380" style="stroke: rgb(255, 255, 255); stroke-opacity: 1; stroke-width: 1px;"/><path class="xgrid crisp" transform="translate(535.29,0)" d="M0,70v380" style="stroke: rgb(255, 255, 255); stroke-opacity: 1; stroke-width: 1px;"/><path class="xgrid crisp" transform="translate(630.44,0)" d="M0,70v380" style="stroke: rgb(255, 255, 255); stroke-opacity: 1; stroke-width: 1px;"/><path class="xgrid crisp" transform="translate(726.66,0)" d="M0,70v380" style="stroke: rgb(255, 255, 255); stroke-opacity: 1; stroke-width: 1px;"/></g><g class="y"/></g><g class="zerolinelayer"/><path class="xlines-below"/><path class="ylines-below"/><g class="overlines-below"/><g class="xaxislayer-below"/><g class="yaxislayer-below"/><g class="overaxes-below"/><g class="plot" transform="translate(50, 70)" clip-path="url('#clip58453dxyplot')"><g class="scatterlayer mlayer"><g class="trace scatter trace7c210f" style="stroke-miterlimit: 2;"><g class="fills"><g><path class="js-fill" d="M665.03,380L-143.79,380L-143.79,378.6L-131.1,378.95L-130.04,379.11L-122.64,379.8L-121.59,379.8L-56.04,379.69L-54.98,379.67L-44.41,378.77L-43.35,378.47L-35.95,377.8L-34.89,378.03L-22.2,376.43L-21.15,376.76L-8.46,377.04L-7.4,377.29L-1.06,377.73L0,377.65L2.11,377.6L3.17,376.68L8.46,374.56L9.52,374.54L13.74,372.29L14.8,371.6L16.92,371.19L17.97,369.33L20.09,366.98L21.15,364.71L23.26,360.93L24.32,360.78L27.49,352L28.55,350.69L30.66,349.88L31.72,349.78L33.83,348.86L34.89,350.13L39.12,351.77L40.18,354.47L41.23,355.34L42.29,359.04L44.41,361.26L45.46,361.67L46.52,361.8L47.58,363.31L48.63,365.25L49.69,363.23L52.86,367.08L53.92,367.13L57.09,371.55L58.15,371.63L60.26,372.34L61.32,372.37L65.55,371.58L66.61,371.45L70.84,370.15L71.89,370.78L76.12,370.12L77.18,370.1L79.3,368.03L80.35,368L82.47,368.82L83.52,368.95L87.75,369.71L88.81,370.66L93.04,369.53L94.1,367.72L95.15,365.93L96.21,365.68L97.27,364.2L98.33,364.02L101.5,360.37L102.56,360.22L103.61,356.8L104.67,357.54L106.78,357.64L107.84,358.02L109.96,355.98L111.01,355.21L112.07,354.6L113.13,354.86L115.24,352.18L116.3,354.27L117.36,353.94L118.41,355.21L120.53,355.57L121.59,357.64L124.76,359.6L125.82,359.09L127.93,359.4L128.99,358.12L131.1,358.53L132.16,359.91L134.27,360.29L135.33,360.37L138.5,364.28L139.56,364.91L141.67,366.85L142.73,366.96L144.85,369.71L145.9,369.66L148.02,368.46L149.08,368.82L151.19,368.54L152.25,367.08L153.3,365.88L154.36,365.93L156.48,364.73L157.53,364.76L158.59,363.23L159.65,363.89L164.93,365.25L165.99,366.47L168.11,367.8L169.16,367.24L170.22,367.62L171.28,367.16L172.34,367.16L173.39,365.5L177.62,361.31L178.68,360.96L182.91,360.17L183.97,359.94L189.25,358.38L190.31,357.05L194.54,355.24L195.6,359.73L197.71,357.31L198.77,356.77L200.88,355.93L201.94,355.85L203,350.98L204.05,353.6L206.17,355.8L207.23,356.64L209.34,357.33L210.4,358.74L216.74,357.41L217.8,356.74L220.97,358.43L222.03,359.63L223.09,362.05L224.14,362.05L229.43,367.47L230.49,367.59L233.66,366.98L234.72,366.29L235.77,368.13L236.83,367.52L238.94,366.52L240,367.06L242.12,368.9L243.17,367.82L245.29,368.51L246.35,368.41L247.4,371.04L248.46,371.35L250.57,371.01L251.63,371.91L253.75,372.34L254.8,371.19L255.86,371.7L256.92,373.36L265.38,377.32L266.43,377.32L273.83,378.88L274.89,379L298.15,378.37L299.21,377.91L301.32,377.73L302.38,375.71L304.5,373.72L305.55,373.62L308.72,369.64L309.78,370.58L317.18,369.79L318.24,370.2L320.35,370.94L321.41,371.01L323.53,371.01L324.58,370.73L326.7,369.84L327.76,369.76L330.93,369.46L331.98,369.07L335.16,368L336.21,367.7L338.33,368.05L339.39,369.36L341.5,370.25L342.56,370.38L344.67,370.53L345.73,370.48L346.79,369.74L347.84,370.15L349.96,370.71L351.02,371.32L354.19,371.86L355.24,371.78L361.59,372.11L362.65,372.27L366.87,373.29L367.93,374.44L378.5,376.3L379.56,376.38L386.96,376.83L388.02,376.5L392.25,376.63L393.31,376.15L395.42,375.46L396.48,374.51L399.65,371.73L400.71,371.73L403.88,371.73L404.94,371.86L408.11,372.14L409.17,372.04L412.34,372.52L413.39,372.65L415.51,372.34L416.57,372.37L417.62,373.87L418.68,372.98L420.8,373.24L421.85,373.92L423.97,373.98L425.02,372.85L426.08,373.8L427.14,373.44L429.25,373.64L430.31,373.9L432.43,373.11L433.48,372.78L435.6,371.7L436.65,371.32L441.94,369.64L443,368.51L446.17,366.44L447.23,364.4L448.28,363.69L449.34,361.88L450.4,361.03L451.46,359.07L454.63,357.54L455.69,356.44L457.8,354.12L458.86,354.93L460.97,353.89L462.03,352.92L463.09,352.33L464.14,353.58L466.26,354.24L467.32,355.52L468.37,355.44L469.43,356.97L470.49,357.18L471.54,355.93L473.66,350.54L474.72,352.25L475.77,351.56L476.83,340.2L481.06,301.07L482.12,300.92L483.17,300.38L484.23,280.01L487.4,251.01L488.46,244.35L489.52,230.59L490.58,230.03L491.63,228.09L492.69,223.85L497.98,184.1L499.03,158.32L504.32,55.88L505.38,53.81L507.49,8.68L508.55,2.94L509.61,2.94L510.66,0L512.78,2.37L513.84,7.81L519.12,57.41L520.18,60.5L524.41,162.1L525.47,181.73L526.52,195.62L527.58,197.45L529.7,249.63L530.75,266.25L533.92,287.57L534.98,287.74L538.15,305.64L539.21,308.88L541.33,315.08L542.38,315.16L544.5,318.81L545.55,319.63L547.67,321.08L548.73,321.49L549.78,321.59L550.84,318.99L552.96,314.68L554.01,309.47L557.18,297.57L558.24,286.83L561.41,267.73L562.47,263.34L563.53,260.3L564.59,260.38L566.7,247.18L567.76,242.84L569.87,238.07L570.93,239.6L573.04,239.17L574.1,240.19L577.27,246.39L578.33,246.31L579.39,246.44L580.44,250.6L582.56,249.73L583.62,245.34L585.73,241.62L586.79,241.44L589.96,243.81L591.02,250.01L593.13,259.94L594.19,261.48L595.25,290.63L596.3,290.81L598.42,306.3L599.48,311.48L600.53,315.36L601.59,315.75L602.65,305.82L603.7,319.45L606.88,335.12L607.93,337.09L608.99,337.6L610.05,340.2L613.22,346.48L614.28,347.78L616.39,349.14L617.45,352L618.51,352.51L619.56,352.12L623.79,352.48L624.85,353.96L629.08,361.34L630.14,362.41L631.19,362.59L632.25,364.35L633.31,364.66L634.37,366.24L635.42,369L636.48,368.97L638.59,368.72L639.65,367.16L641.77,365.83L642.82,363.79L646,363.56L647.05,367.67L649.17,363.15L650.22,361.7L652.34,359.81L653.4,359.78L654.45,352.89L655.51,353.02L659.74,348.01L660.8,347.89L665.03,335.48" style="fill: rgb(8, 115, 191); fill-opacity: 0.2; stroke-width: 0;"/></g></g><g class="errorbars"/><g class="lines"><path class="js-line" d="M-143.79,378.6L-131.1,378.95L-130.04,379.11L-122.64,379.8L-121.59,379.8L-56.04,379.69L-54.98,379.67L-44.41,378.77L-43.35,378.47L-35.95,377.8L-34.89,378.03L-22.2,376.43L-21.15,376.76L-8.46,377.04L-7.4,377.29L-1.06,377.73L0,377.65L2.11,377.6L3.17,376.68L8.46,374.56L9.52,374.54L13.74,372.29L14.8,371.6L16.92,371.19L17.97,369.33L20.09,366.98L21.15,364.71L23.26,360.93L24.32,360.78L27.49,352L28.55,350.69L30.66,349.88L31.72,349.78L33.83,348.86L34.89,350.13L39.12,351.77L40.18,354.47L41.23,355.34L42.29,359.04L44.41,361.26L45.46,361.67L46.52,361.8L47.58,363.31L48.63,365.25L49.69,363.23L52.86,367.08L53.92,367.13L57.09,371.55L58.15,371.63L60.26,372.34L61.32,372.37L65.55,371.58L66.61,371.45L70.84,370.15L71.89,370.78L76.12,370.12L77.18,370.1L79.3,368.03L80.35,368L82.47,368.82L83.52,368.95L87.75,369.71L88.81,370.66L93.04,369.53L94.1,367.72L95.15,365.93L96.21,365.68L97.27,364.2L98.33,364.02L101.5,360.37L102.56,360.22L103.61,356.8L104.67,357.54L106.78,357.64L107.84,358.02L109.96,355.98L111.01,355.21L112.07,354.6L113.13,354.86L115.24,352.18L116.3,354.27L117.36,353.94L118.41,355.21L120.53,355.57L121.59,357.64L124.76,359.6L125.82,359.09L127.93,359.4L128.99,358.12L131.1,358.53L132.16,359.91L134.27,360.29L135.33,360.37L138.5,364.28L139.56,364.91L141.67,366.85L142.73,366.96L144.85,369.71L145.9,369.66L148.02,368.46L149.08,368.82L151.19,368.54L152.25,367.08L153.3,365.88L154.36,365.93L156.48,364.73L157.53,364.76L158.59,363.23L159.65,363.89L164.93,365.25L165.99,366.47L168.11,367.8L169.16,367.24L170.22,367.62L171.28,367.16L172.34,367.16L173.39,365.5L177.62,361.31L178.68,360.96L182.91,360.17L183.97,359.94L189.25,358.38L190.31,357.05L194.54,355.24L195.6,359.73L197.71,357.31L198.77,356.77L200.88,355.93L201.94,355.85L203,350.98L204.05,353.6L206.17,355.8L207.23,356.64L209.34,357.33L210.4,358.74L216.74,357.41L217.8,356.74L220.97,358.43L222.03,359.63L223.09,362.05L224.14,362.05L229.43,367.47L230.49,367.59L233.66,366.98L234.72,366.29L235.77,368.13L236.83,367.52L238.94,366.52L240,367.06L242.12,368.9L243.17,367.82L245.29,368.51L246.35,368.41L247.4,371.04L248.46,371.35L250.57,371.01L251.63,371.91L253.75,372.34L254.8,371.19L255.86,371.7L256.92,373.36L265.38,377.32L266.43,377.32L273.83,378.88L274.89,379L298.15,378.37L299.21,377.91L301.32,377.73L302.38,375.71L304.5,373.72L305.55,373.62L308.72,369.64L309.78,370.58L317.18,369.79L318.24,370.2L320.35,370.94L321.41,371.01L323.53,371.01L324.58,370.73L326.7,369.84L327.76,369.76L330.93,369.46L331.98,369.07L335.16,368L336.21,367.7L338.33,368.05L339.39,369.36L341.5,370.25L342.56,370.38L344.67,370.53L345.73,370.48L346.79,369.74L347.84,370.15L349.96,370.71L351.02,371.32L354.19,371.86L355.24,371.78L361.59,372.11L362.65,372.27L366.87,373.29L367.93,374.44L378.5,376.3L379.56,376.38L386.96,376.83L388.02,376.5L392.25,376.63L393.31,376.15L395.42,375.46L396.48,374.51L399.65,371.73L400.71,371.73L403.88,371.73L404.94,371.86L408.11,372.14L409.17,372.04L412.34,372.52L413.39,372.65L415.51,372.34L416.57,372.37L417.62,373.87L418.68,372.98L420.8,373.24L421.85,373.92L423.97,373.98L425.02,372.85L426.08,373.8L427.14,373.44L429.25,373.64L430.31,373.9L432.43,373.11L433.48,372.78L435.6,371.7L436.65,371.32L441.94,369.64L443,368.51L446.17,366.44L447.23,364.4L448.28,363.69L449.34,361.88L450.4,361.03L451.46,359.07L454.63,357.54L455.69,356.44L457.8,354.12L458.86,354.93L460.97,353.89L462.03,352.92L463.09,352.33L464.14,353.58L466.26,354.24L467.32,355.52L468.37,355.44L469.43,356.97L470.49,357.18L471.54,355.93L473.66,350.54L474.72,352.25L475.77,351.56L476.83,340.2L481.06,301.07L482.12,300.92L483.17,300.38L484.23,280.01L487.4,251.01L488.46,244.35L489.52,230.59L490.58,230.03L491.63,228.09L492.69,223.85L497.98,184.1L499.03,158.32L504.32,55.88L505.38,53.81L507.49,8.68L508.55,2.94L509.61,2.94L510.66,0L512.78,2.37L513.84,7.81L519.12,57.41L520.18,60.5L524.41,162.1L525.47,181.73L526.52,195.62L527.58,197.45L529.7,249.63L530.75,266.25L533.92,287.57L534.98,287.74L538.15,305.64L539.21,308.88L541.33,315.08L542.38,315.16L544.5,318.81L545.55,319.63L547.67,321.08L548.73,321.49L549.78,321.59L550.84,318.99L552.96,314.68L554.01,309.47L557.18,297.57L558.24,286.83L561.41,267.73L562.47,263.34L563.53,260.3L564.59,260.38L566.7,247.18L567.76,242.84L569.87,238.07L570.93,239.6L573.04,239.17L574.1,240.19L577.27,246.39L578.33,246.31L579.39,246.44L580.44,250.6L582.56,249.73L583.62,245.34L585.73,241.62L586.79,241.44L589.96,243.81L591.02,250.01L593.13,259.94L594.19,261.48L595.25,290.63L596.3,290.81L598.42,306.3L599.48,311.48L600.53,315.36L601.59,315.75L602.65,305.82L603.7,319.45L606.88,335.12L607.93,337.09L608.99,337.6L610.05,340.2L613.22,346.48L614.28,347.78L616.39,349.14L617.45,352L618.51,352.51L619.56,352.12L623.79,352.48L624.85,353.96L629.08,361.34L630.14,362.41L631.19,362.59L632.25,364.35L633.31,364.66L634.37,366.24L635.42,369L636.48,368.97L638.59,368.72L639.65,367.16L641.77,365.83L642.82,363.79L646,363.56L647.05,367.67L649.17,363.15L650.22,361.7L652.34,359.81L653.4,359.78L654.45,352.89L655.51,353.02L659.74,348.01L660.8,347.89L665.03,335.48" style="vector-effect: non-scaling-stroke; fill: none; stroke: rgb(8, 115, 191); stroke-opacity: 1; stroke-width: 0.5px; opacity: 1;"/></g><g class="points"/><g class="text"/></g><g class="trace scatter trace3532e3" style="stroke-miterlimit: 2;"><g class="fills"><g><path class="js-fill" d="M675.6,380L665.03,380L665.03,335.48L667.14,328.64L668.2,328.26L673.48,288.51L674.54,283.58L675.6,282.59" style="fill: rgb(8, 115, 191); fill-opacity: 0.4; stroke-width: 0;"/></g></g><g class="errorbars"/><g class="lines"><path class="js-line" d="M665.03,335.48L667.14,328.64L668.2,328.26L673.48,288.51L674.54,283.58L675.6,282.59" style="vector-effect: non-scaling-stroke; fill: none; stroke: rgb(8, 115, 191); stroke-opacity: 1; stroke-width: 2px; opacity: 1;"/></g><g class="points"/><g class="text"/></g><g class="trace scatter tracee9698b" style="stroke-miterlimit: 2; opacity: 1;"><g class="fills"/><g class="errorbars"/><g class="lines"/><g class="points"><path class="point" transform="translate(675.6,282.59)" d="M15,0A15,15 0 1,1 0,-15A15,15 0 0,1 15,0Z" style="opacity: 1; stroke-width: 0px; fill: rgb(8, 115, 191); fill-opacity: 1;"/></g><g class="text"/></g></g></g><g class="overplot"/><path class="xlines-above crisp" style="fill: none; stroke-width: 1px; stroke: rgb(0, 0, 0); stroke-opacity: 0;" d=""/><path class="ylines-above crisp" style="fill: none;" d="M0,0"/><g class="overlines-above"/><g class="xaxislayer-above"><path class="xtick ticks crisp" d="M0,450v-5" transform="translate(52.11,0)" style="stroke: rgb(68, 68, 68); stroke-opacity: 1; stroke-width: 1px;"/><path class="xtick ticks crisp" d="M0,450v-5" transform="translate(149.38,0)" style="stroke: rgb(68, 68, 68); stroke-opacity: 1; stroke-width: 1px;"/><path class="xtick ticks crisp" d="M0,450v-5" transform="translate(244.54,0)" style="stroke: rgb(68, 68, 68); stroke-opacity: 1; stroke-width: 1px;"/><path class="xtick ticks crisp" d="M0,450v-5" transform="translate(340.75,0)" style="stroke: rgb(68, 68, 68); stroke-opacity: 1; stroke-width: 1px;"/><path class="xtick ticks crisp" d="M0,450v-5" transform="translate(438.02,0)" style="stroke: rgb(68, 68, 68); stroke-opacity: 1; stroke-width: 1px;"/><path class="xtick ticks crisp" d="M0,450v-5" transform="translate(535.29,0)" style="stroke: rgb(68, 68, 68); stroke-opacity: 1; stroke-width: 1px;"/><path class="xtick ticks crisp" d="M0,450v-5" transform="translate(630.44,0)" style="stroke: rgb(68, 68, 68); stroke-opacity: 1; stroke-width: 1px;"/><path class="xtick ticks crisp" d="M0,450v-5" transform="translate(726.66,0)" style="stroke: rgb(68, 68, 68); stroke-opacity: 1; stroke-width: 1px;"/><g class="xtick"><text text-anchor="middle" x="0" y="469" transform="translate(52.11,0)" style="font-family: 'Open Sans', verdana, arial, sans-serif; font-size: 18px; fill: rgb(42, 63, 95); fill-opacity: 1; white-space: pre;">01/10</text></g><g class="xtick"><text text-anchor="middle" x="0" y="469" transform="translate(149.38,0)" style="font-family: 'Open Sans', verdana, arial, sans-serif; font-size: 18px; fill: rgb(42, 63, 95); fill-opacity: 1; white-space: pre;">01/01</text></g><g class="xtick"><text text-anchor="middle" x="0" y="469" transform="translate(244.54,0)" style="font-family: 'Open Sans', verdana, arial, sans-serif; font-size: 18px; fill: rgb(42, 63, 95); fill-opacity: 1; white-space: pre;">01/04</text></g><g class="xtick"><text text-anchor="middle" x="0" y="469" transform="translate(340.75,0)" style="font-family: 'Open Sans', verdana, arial, sans-serif; font-size: 18px; fill: rgb(42, 63, 95); fill-opacity: 1; white-space: pre;">01/07</text></g><g class="xtick"><text text-anchor="middle" x="0" y="469" transform="translate(438.02,0)" style="font-family: 'Open Sans', verdana, arial, sans-serif; font-size: 18px; fill: rgb(42, 63, 95); fill-opacity: 1; white-space: pre;">01/10</text></g><g class="xtick"><text text-anchor="middle" x="0" y="469" transform="translate(535.29,0)" style="font-family: 'Open Sans', verdana, arial, sans-serif; font-size: 18px; fill: rgb(42, 63, 95); fill-opacity: 1; white-space: pre;">01/01</text></g><g class="xtick"><text text-anchor="middle" x="0" y="469" transform="translate(630.44,0)" style="font-family: 'Open Sans', verdana, arial, sans-serif; font-size: 18px; fill: rgb(42, 63, 95); fill-opacity: 1; white-space: pre;">01/04</text></g><g class="xtick"><text text-anchor="middle" x="0" y="469" transform="translate(726.66,0)" style="font-family: 'Open Sans', verdana, arial, sans-serif; font-size: 18px; fill: rgb(42, 63, 95); fill-opacity: 1; white-space: pre;">01/07</text></g></g><g class="yaxislayer-above"/><g class="overaxes-above"/></g></g><g class="polarlayer"/><g class="ternarylayer"/><g class="geolayer"/><g class="funnelarealayer"/><g class="pielayer"/><g class="treemaplayer"/><g class="sunburstlayer"/><g class="glimages"/><defs id="topdefs-58453d"><g class="clips"/></defs><g class="layer-above"><g class="imagelayer"/><g class="shapelayer"><path data-index="0" fill-rule="evenodd" d="M-544.19,445.24L228.68,445.24" clip-path="url('#clip58453dxy')" style="opacity: 1; stroke: rgb(255, 0, 0); stroke-opacity: 1; fill: rgb(0, 0, 0); fill-opacity: 0; stroke-dasharray: 3px, 3px; stroke-width: 1.5px;"/></g></g><g class="infolayer"><g class="g-gtitle"><text class="gtitle" x="375" y="25" text-anchor="middle" dy="0.7em" style="font-family: 'Open Sans', verdana, arial, sans-serif; font-size: 50px; fill: rgb(42, 63, 95); opacity: 1; font-weight: normal; white-space: pre;"><tspan style="font-weight:bold">Deux-Sèvres (79)</tspan></text></g><g class="g-xtitle"/><g class="annotation" data-index="0" style="opacity: 1;"><g class="annotation-text-g" transform="rotate(0,683.6,292.59)"><g class="cursor-pointer" transform="translate(612, 257)"><rect class="bg" x="0.5" y="0.5" width="143" height="71" style="stroke-width: 1px; stroke: rgb(0, 0, 0); stroke-opacity: 0; fill: rgb(255, 255, 255); fill-opacity: 0.6;"/><text class="annotation-text" text-anchor="middle" x="72.078125" y="55.5" style="font-family: 'Open Sans', verdana, arial, sans-serif; font-size: 50px; fill: rgb(8, 115, 191); fill-opacity: 1; white-space: pre;"> <tspan style="font-weight:bold">1024 </tspan></text></g></g><g class="annotation-arrow-g" style="opacity: 1;"><path d="M712,328.09L723.6,342.59" style="stroke-width: 1px; stroke: rgb(8, 115, 191); stroke-opacity: 1; stroke-dasharray: 0px, 0px, 18.569px, 18.569px;"/></g></g></g></svg>