<svg class="main-svg" xmlns="http://www.w3.org/2000/svg" xmlns:xlink="http://www.w3.org/1999/xlink" width="1125" height="750" style="" viewBox="0 0 750 500"><rect x="0" y="0" width="750" height="500" style="fill: rgb(0, 0, 0); fill-opacity: 0;"/><defs id="defs-8d321f"><g class="clips"><clipPath id="clip8d321fxyplot" class="plotclip"><rect width="690" height="380"/></clipPath><clipPath class="axesclip" id="clip8d321fx"><rect x="50" y="0" width="690" height="500"/></clipPath><clipPath class="axesclip" id="clip8d321fy"><rect x="0" y="70" width="750" height="380"/></clipPath><clipPath class="axesclip" id="clip8d321fxy"><rect x="50" y="70" width="690" height="380"/></clipPath></g><g class="gradients"/></defs><g class="bglayer"><rect class="bg" x="50" y="70" width="690" height="380" style="fill: rgb(0, 0, 0); fill-opacity: 0; stroke-width: 0;"/></g><g class="layer-below"><g class="imagelayer"/><g class="shapelayer"/></g><g class="cartesianlayer"><g class="subplot xy"><g class="layer-subplot"><g class="shapelayer"/><g class="imagelayer"/></g><g class="gridlayer"><g class="x"><path class="xgrid crisp" transform="translate(106.08,0)" d="M0,70v380" style="stroke: rgb(255, 255, 255); stroke-opacity: 1; stroke-width: 1px;"/><path class="xgrid crisp" transform="translate(209.75,0)" d="M0,70v380" style="stroke: rgb(255, 255, 255); stroke-opacity: 1; stroke-width: 1px;"/><path class="xgrid crisp" transform="translate(310.02,0)" d="M0,70v380" style="stroke: rgb(255, 255, 255); stroke-opacity: 1; stroke-width: 1px;"/><path class="xgrid crisp" transform="translate(413.69,0)" d="M0,70v380" style="stroke: rgb(255, 255, 255); stroke-opacity: 1; stroke-width: 1px;"/><path class="xgrid crisp" transform="translate(517.36,0)" d="M0,70v380" style="stroke: rgb(255, 255, 255); stroke-opacity: 1; stroke-width: 1px;"/><path class="xgrid crisp" transform="translate(622.73,0)" d="M0,70v380" style="stroke: rgb(255, 255, 255); stroke-opacity: 1; stroke-width: 1px;"/><path class="xgrid crisp" transform="translate(726.4,0)" d="M0,70v380" style="stroke: rgb(255, 255, 255); stroke-opacity: 1; stroke-width: 1px;"/></g><g class="y"/></g><g class="zerolinelayer"/><path class="xlines-below"/><path class="ylines-below"/><g class="overlines-below"/><g class="xaxislayer-below"/><g class="yaxislayer-below"/><g class="overaxes-below"/><g class="plot" transform="translate(50, 70)" clip-path="url('#clip8d321fxyplot')"><g class="scatterlayer mlayer"><g class="trace scatter trace8caa78" style="stroke-miterlimit: 2;"><g class="fills"><g><path class="js-fill" d="M661.11,380L-231.13,380L-231.13,369.14L-227.73,370.81L-226.03,376.66L-222.64,376.66L-220.94,380L-215.84,378.33L-214.14,378.33L-120.67,378.33L-118.97,376.66L-108.77,378.33L-107.07,380L-95.17,374.99L-93.47,375.82L-86.67,374.99L-84.98,373.32L-81.58,369.98L-79.88,369.98L-76.48,364.13L-74.78,361.63L-73.08,358.29L-71.38,360.79L-69.68,357.45L-67.98,357.45L-64.58,356.62L-62.88,358.29L-59.48,363.3L-57.78,366.64L-56.08,366.64L-54.38,370.81L-50.99,369.14L-49.29,365.8L-47.59,362.46L-45.89,362.46L-44.19,360.79L-42.49,361.63L-40.79,358.29L-39.09,351.6L-35.69,344.09L-33.99,342.42L-32.29,344.09L-30.59,329.89L-23.79,315.69L-22.09,316.53L-18.69,314.02L-17,302.33L-13.6,301.49L-11.9,304L-10.2,299.82L-8.5,300.66L-5.1,315.69L-3.4,318.2L-1.7,320.7L0,319.03L1.7,322.37L3.4,320.7L5.1,309.01L6.8,307.34L11.9,273.1L13.6,272.26L15.3,273.93L17,265.58L18.69,258.07L20.39,257.23L22.09,261.41L23.79,251.38L25.49,251.38L27.19,248.88L32.29,202.95L33.99,172.88L37.39,147.82L39.09,147.82L44.19,101.05L45.89,113.58L47.59,102.73L49.29,99.38L50.99,96.88L52.68,78.51L54.38,76L56.08,75.16L57.78,56.79L59.48,73.49L61.18,71.82L62.88,75.16L66.28,86.86L67.98,136.97L71.38,121.1L73.08,123.6L74.78,121.93L76.48,141.98L78.18,168.7L79.88,140.31L83.28,207.12L84.98,212.13L86.67,215.47L88.37,243.03L90.07,257.23L91.77,280.62L93.47,298.15L95.17,290.64L96.87,298.15L98.57,295.65L100.27,288.13L101.97,291.47L103.67,290.64L105.37,283.12L107.07,293.98L108.77,287.3L110.47,288.13L112.17,292.31L113.87,273.1L115.57,272.26L117.27,281.45L118.97,273.93L120.67,273.93L122.36,274.77L124.06,275.6L125.76,296.48L127.46,290.64L129.16,294.81L132.56,306.51L134.26,307.34L135.96,314.86L137.66,309.85L139.36,318.2L141.06,298.99L142.76,309.85L144.46,302.33L146.16,301.49L147.86,304.84L151.26,271.43L152.96,280.62L154.66,283.96L156.35,281.45L158.05,278.95L159.75,250.55L161.45,248.04L163.15,253.05L164.85,245.54L166.55,217.14L168.25,222.99L169.95,222.99L171.65,233.85L173.35,238.86L175.05,235.52L176.75,228.84L178.45,231.34L180.15,212.97L181.85,213.8L183.55,196.26L185.25,193.76L186.95,205.45L188.65,216.31L190.34,214.64L192.04,226.33L193.74,227.16L197.14,235.52L198.84,228L200.54,212.97L202.24,207.96L203.94,198.77L205.64,197.93L207.34,195.43L209.04,187.91L210.74,185.41L212.44,186.24L214.14,182.9L215.84,197.1L217.54,194.59L219.24,197.1L220.94,203.78L222.64,201.27L224.33,207.96L226.03,221.32L229.43,227.16L231.13,247.21L232.83,248.04L234.53,250.55L236.23,254.73L237.93,256.4L239.63,257.23L241.33,258.9L243.03,255.56L244.73,265.58L248.13,292.31L249.83,298.99L253.23,298.99L254.93,302.33L256.63,302.33L258.33,298.15L260.02,296.48L261.72,298.99L263.42,294.81L265.12,294.81L268.52,304.84L270.22,308.18L275.32,288.13L277.02,287.3L278.72,278.95L280.42,262.24L285.52,212.97L287.22,209.63L288.92,210.46L290.62,194.59L292.32,188.75L294.01,196.26L295.71,194.59L297.41,199.6L299.11,198.77L300.81,196.26L302.51,187.08L304.21,182.9L305.91,162.02L307.61,155.34L309.31,154.51L311.01,157.01L312.71,157.85L314.41,202.11L316.11,172.88L317.81,185.41L319.51,174.55L321.21,171.21L322.91,174.55L324.61,175.38L326.31,110.24L328,126.95L329.7,121.1L331.4,144.48L333.1,149.49L334.8,133.63L336.5,125.27L338.2,138.64L339.9,148.66L341.6,152.84L343.3,150.33L345,146.15L346.7,167.87L348.4,175.38L351.8,202.95L353.5,212.13L355.2,218.81L356.9,238.86L358.6,247.21L360.3,246.37L363.69,264.75L365.39,268.09L367.09,279.78L368.79,273.1L370.49,272.26L372.19,273.1L375.59,279.78L377.29,279.78L380.69,296.48L382.39,284.79L384.09,284.79L385.79,293.98L387.49,287.3L389.19,286.46L392.59,258.07L394.29,263.08L395.99,264.75L397.68,281.45L399.38,262.24L401.08,274.77L404.48,286.46L406.18,286.46L407.88,285.63L409.58,277.27L411.28,307.34L412.98,304L414.68,307.34L416.38,319.03L418.08,324.04L419.78,324.88L421.48,322.37L423.18,330.73L426.58,345.76L428.28,341.58L429.98,344.92L431.67,343.25L433.37,353.27L435.07,354.11L436.77,354.11L438.47,353.27L440.17,358.29L441.87,359.12L443.57,359.96L445.27,363.3L446.97,364.97L448.67,368.31L450.37,369.14L452.07,372.48L453.77,372.48L455.47,373.32L457.17,370.81L458.87,370.81L460.57,369.14L462.27,369.98L463.97,367.47L465.67,366.64L467.36,365.8L469.06,366.64L472.46,355.78L474.16,354.11L475.86,350.77L477.56,349.1L479.26,349.1L480.96,339.08L482.66,324.04L484.36,326.55L487.76,306.51L489.46,288.13L491.16,286.46L492.86,258.07L494.56,247.21L496.26,224.66L497.96,216.31L499.66,199.6L501.35,196.26L503.05,197.93L504.75,193.76L506.45,180.4L508.15,155.34L509.85,146.99L511.55,143.65L513.25,141.98L514.95,139.47L516.65,127.78L518.35,126.95L520.05,124.44L521.75,104.4L523.45,93.54L525.15,75.16L526.85,76.84L530.25,34.24L531.95,42.59L533.65,40.92L535.34,27.56L537.04,24.22L538.74,15.87L540.44,0L542.14,6.68L543.84,2.51L545.54,14.2L548.94,70.99L550.64,76L555.74,139.47L557.44,150.33L560.84,160.35L562.54,161.19L564.24,188.75L565.94,190.42L567.64,194.59L569.33,205.45L571.03,201.27L572.73,204.62L574.43,203.78L576.13,210.46L577.83,226.33L579.53,231.34L581.23,235.52L582.93,253.89L584.63,256.4L586.33,257.23L589.73,288.13L591.43,299.82L593.13,306.51L594.83,303.16L596.53,305.67L598.23,309.85L599.93,305.67L601.63,306.51L603.33,303.16L605.02,304L606.72,307.34L608.42,306.51L610.12,305.67L611.82,309.85L613.52,310.68L615.22,313.19L616.92,310.68L618.62,312.35L620.32,319.03L622.02,319.03L625.42,328.22L627.12,333.23L628.82,341.58L630.52,341.58L632.22,338.24L633.92,337.41L637.32,343.25L639.01,342.42L640.71,344.09L642.41,347.43L644.11,345.76L645.81,346.59L650.91,350.77L652.61,342.42L654.31,335.74L656.01,334.9L657.71,333.23L659.41,329.89L661.11,321.54" style="fill: rgb(8, 115, 191); fill-opacity: 0.2; stroke-width: 0;"/></g></g><g class="errorbars"/><g class="lines"><path class="js-line" d="M-231.13,369.14L-227.73,370.81L-226.03,376.66L-222.64,376.66L-220.94,380L-215.84,378.33L-214.14,378.33L-120.67,378.33L-118.97,376.66L-108.77,378.33L-107.07,380L-95.17,374.99L-93.47,375.82L-86.67,374.99L-84.98,373.32L-81.58,369.98L-79.88,369.98L-76.48,364.13L-74.78,361.63L-73.08,358.29L-71.38,360.79L-69.68,357.45L-67.98,357.45L-64.58,356.62L-62.88,358.29L-59.48,363.3L-57.78,366.64L-56.08,366.64L-54.38,370.81L-50.99,369.14L-49.29,365.8L-47.59,362.46L-45.89,362.46L-44.19,360.79L-42.49,361.63L-40.79,358.29L-39.09,351.6L-35.69,344.09L-33.99,342.42L-32.29,344.09L-30.59,329.89L-23.79,315.69L-22.09,316.53L-18.69,314.02L-17,302.33L-13.6,301.49L-11.9,304L-10.2,299.82L-8.5,300.66L-5.1,315.69L-3.4,318.2L-1.7,320.7L0,319.03L1.7,322.37L3.4,320.7L5.1,309.01L6.8,307.34L11.9,273.1L13.6,272.26L15.3,273.93L17,265.58L18.69,258.07L20.39,257.23L22.09,261.41L23.79,251.38L25.49,251.38L27.19,248.88L32.29,202.95L33.99,172.88L37.39,147.82L39.09,147.82L44.19,101.05L45.89,113.58L47.59,102.73L49.29,99.38L50.99,96.88L52.68,78.51L54.38,76L56.08,75.16L57.78,56.79L59.48,73.49L61.18,71.82L62.88,75.16L66.28,86.86L67.98,136.97L71.38,121.1L73.08,123.6L74.78,121.93L76.48,141.98L78.18,168.7L79.88,140.31L83.28,207.12L84.98,212.13L86.67,215.47L88.37,243.03L90.07,257.23L91.77,280.62L93.47,298.15L95.17,290.64L96.87,298.15L98.57,295.65L100.27,288.13L101.97,291.47L103.67,290.64L105.37,283.12L107.07,293.98L108.77,287.3L110.47,288.13L112.17,292.31L113.87,273.1L115.57,272.26L117.27,281.45L118.97,273.93L120.67,273.93L122.36,274.77L124.06,275.6L125.76,296.48L127.46,290.64L129.16,294.81L132.56,306.51L134.26,307.34L135.96,314.86L137.66,309.85L139.36,318.2L141.06,298.99L142.76,309.85L144.46,302.33L146.16,301.49L147.86,304.84L151.26,271.43L152.96,280.62L154.66,283.96L156.35,281.45L158.05,278.95L159.75,250.55L161.45,248.04L163.15,253.05L164.85,245.54L166.55,217.14L168.25,222.99L169.95,222.99L171.65,233.85L173.35,238.86L175.05,235.52L176.75,228.84L178.45,231.34L180.15,212.97L181.85,213.8L183.55,196.26L185.25,193.76L186.95,205.45L188.65,216.31L190.34,214.64L192.04,226.33L193.74,227.16L197.14,235.52L198.84,228L200.54,212.97L202.24,207.96L203.94,198.77L205.64,197.93L207.34,195.43L209.04,187.91L210.74,185.41L212.44,186.24L214.14,182.9L215.84,197.1L217.54,194.59L219.24,197.1L220.94,203.78L222.64,201.27L224.33,207.96L226.03,221.32L229.43,227.16L231.13,247.21L232.83,248.04L234.53,250.55L236.23,254.73L237.93,256.4L239.63,257.23L241.33,258.9L243.03,255.56L244.73,265.58L248.13,292.31L249.83,298.99L253.23,298.99L254.93,302.33L256.63,302.33L258.33,298.15L260.02,296.48L261.72,298.99L263.42,294.81L265.12,294.81L268.52,304.84L270.22,308.18L275.32,288.13L277.02,287.3L278.72,278.95L280.42,262.24L285.52,212.97L287.22,209.63L288.92,210.46L290.62,194.59L292.32,188.75L294.01,196.26L295.71,194.59L297.41,199.6L299.11,198.77L300.81,196.26L302.51,187.08L304.21,182.9L305.91,162.02L307.61,155.34L309.31,154.51L311.01,157.01L312.71,157.85L314.41,202.11L316.11,172.88L317.81,185.41L319.51,174.55L321.21,171.21L322.91,174.55L324.61,175.38L326.31,110.24L328,126.95L329.7,121.1L331.4,144.48L333.1,149.49L334.8,133.63L336.5,125.27L338.2,138.64L339.9,148.66L341.6,152.84L343.3,150.33L345,146.15L346.7,167.87L348.4,175.38L351.8,202.95L353.5,212.13L355.2,218.81L356.9,238.86L358.6,247.21L360.3,246.37L363.69,264.75L365.39,268.09L367.09,279.78L368.79,273.1L370.49,272.26L372.19,273.1L375.59,279.78L377.29,279.78L380.69,296.48L382.39,284.79L384.09,284.79L385.79,293.98L387.49,287.3L389.19,286.46L392.59,258.07L394.29,263.08L395.99,264.75L397.68,281.45L399.38,262.24L401.08,274.77L404.48,286.46L406.18,286.46L407.88,285.63L409.58,277.27L411.28,307.34L412.98,304L414.68,307.34L416.38,319.03L418.08,324.04L419.78,324.88L421.48,322.37L423.18,330.73L426.58,345.76L428.28,341.58L429.98,344.92L431.67,343.25L433.37,353.27L435.07,354.11L436.77,354.11L438.47,353.27L440.17,358.29L441.87,359.12L443.57,359.96L445.27,363.3L446.97,364.97L448.67,368.31L450.37,369.14L452.07,372.48L453.77,372.48L455.47,373.32L457.17,370.81L458.87,370.81L460.57,369.14L462.27,369.98L463.97,367.47L465.67,366.64L467.36,365.8L469.06,366.64L472.46,355.78L474.16,354.11L475.86,350.77L477.56,349.1L479.26,349.1L480.96,339.08L482.66,324.04L484.36,326.55L487.76,306.51L489.46,288.13L491.16,286.46L492.86,258.07L494.56,247.21L496.26,224.66L497.96,216.31L499.66,199.6L501.35,196.26L503.05,197.93L504.75,193.76L506.45,180.4L508.15,155.34L509.85,146.99L511.55,143.65L513.25,141.98L514.95,139.47L516.65,127.78L518.35,126.95L520.05,124.44L521.75,104.4L523.45,93.54L525.15,75.16L526.85,76.84L530.25,34.24L531.95,42.59L533.65,40.92L535.34,27.56L537.04,24.22L538.74,15.87L540.44,0L542.14,6.68L543.84,2.51L545.54,14.2L548.94,70.99L550.64,76L555.74,139.47L557.44,150.33L560.84,160.35L562.54,161.19L564.24,188.75L565.94,190.42L567.64,194.59L569.33,205.45L571.03,201.27L572.73,204.62L574.43,203.78L576.13,210.46L577.83,226.33L579.53,231.34L581.23,235.52L582.93,253.89L584.63,256.4L586.33,257.23L589.73,288.13L591.43,299.82L593.13,306.51L594.83,303.16L596.53,305.67L598.23,309.85L599.93,305.67L601.63,306.51L603.33,303.16L605.02,304L606.72,307.34L608.42,306.51L610.12,305.67L611.82,309.85L613.52,310.68L615.22,313.19L616.92,310.68L618.62,312.35L620.32,319.03L622.02,319.03L625.42,328.22L627.12,333.23L628.82,341.58L630.52,341.58L632.22,338.24L633.92,337.41L637.32,343.25L639.01,342.42L640.71,344.09L642.41,347.43L644.11,345.76L645.81,346.59L650.91,350.77L652.61,342.42L654.31,335.74L656.01,334.9L657.71,333.23L659.41,329.89L661.11,321.54" style="vector-effect: non-scaling-stroke; fill: none; stroke: rgb(8, 115, 191); stroke-opacity: 1; stroke-width: 0.5px; opacity: 1;"/></g><g class="points"/><g class="text"/></g><g class="trace scatter tracec0d5f6" style="stroke-miterlimit: 2;"><g class="fills"><g><path class="js-fill" d="M678.1,380L661.11,380L661.11,321.54L662.81,309.01L664.51,303.16L666.21,300.66L667.91,301.49L669.61,303.16L671.31,309.01L673,291.47L674.7,294.81L676.4,292.31L678.1,286.46" style="fill: rgb(8, 115, 191); fill-opacity: 0.4; stroke-width: 0;"/></g></g><g class="errorbars"/><g class="lines"><path class="js-line" d="M661.11,321.54L662.81,309.01L664.51,303.16L666.21,300.66L667.91,301.49L669.61,303.16L671.31,309.01L673,291.47L674.7,294.81L676.4,292.31L678.1,286.46" style="vector-effect: non-scaling-stroke; fill: none; stroke: rgb(8, 115, 191); stroke-opacity: 1; stroke-width: 2px; opacity: 1;"/></g><g class="points"/><g class="text"/></g><g class="trace scatter trace1c6a99" style="stroke-miterlimit: 2; opacity: 1;"><g class="fills"/><g class="errorbars"/><g class="lines"/><g class="points"><path class="point" transform="translate(678.1,286.46)" d="M15,0A15,15 0 1,1 0,-15A15,15 0 0,1 15,0Z" style="opacity: 1; stroke-width: 0px; fill: rgb(8, 115, 191); fill-opacity: 1;"/></g><g class="text"/></g></g></g><g class="overplot"/><path class="xlines-above crisp" style="fill: none; stroke-width: 1px; stroke: rgb(0, 0, 0); stroke-opacity: 0;" d=""/><path class="ylines-above crisp" style="fill: none;" d="M0,0"/><g class="overlines-above"/><g class="xaxislayer-above"><path class="xtick ticks crisp" d="M0,450v-5" transform="translate(106.08,0)" style="stroke: rgb(68, 68, 68); stroke-opacity: 1; stroke-width: 1px;"/><path class="xtick ticks crisp" d="M0,450v-5" transform="translate(209.75,0)" style="stroke: rgb(68, 68, 68); stroke-opacity: 1; stroke-width: 1px;"/><path class="xtick ticks crisp" d="M0,450v-5" transform="translate(310.02,0)" style="stroke: rgb(68, 68, 68); stroke-opacity: 1; stroke-width: 1px;"/><path class="xtick ticks crisp" d="M0,450v-5" transform="translate(413.69,0)" style="stroke: rgb(68, 68, 68); stroke-opacity: 1; stroke-width: 1px;"/><path class="xtick ticks crisp" d="M0,450v-5" transform="translate(517.36,0)" style="stroke: rgb(68, 68, 68); stroke-opacity: 1; stroke-width: 1px;"/><path class="xtick ticks crisp" d="M0,450v-5" transform="translate(622.73,0)" style="stroke: rgb(68, 68, 68); stroke-opacity: 1; stroke-width: 1px;"/><path class="xtick ticks crisp" d="M0,450v-5" transform="translate(726.4,0)" style="stroke: rgb(68, 68, 68); stroke-opacity: 1; stroke-width: 1px;"/><g class="xtick"><text text-anchor="middle" x="0" y="469" transform="translate(106.08,0)" style="font-family: 'Open Sans', verdana, arial, sans-serif; font-size: 18px; fill: rgb(42, 63, 95); fill-opacity: 1; white-space: pre;">01/11</text></g><g class="xtick"><text text-anchor="middle" x="0" y="469" transform="translate(209.75,0)" style="font-family: 'Open Sans', verdana, arial, sans-serif; font-size: 18px; fill: rgb(42, 63, 95); fill-opacity: 1; white-space: pre;">01/01</text></g><g class="xtick"><text text-anchor="middle" x="0" y="469" transform="translate(310.02,0)" style="font-family: 'Open Sans', verdana, arial, sans-serif; font-size: 18px; fill: rgb(42, 63, 95); fill-opacity: 1; white-space: pre;">01/03</text></g><g class="xtick"><text text-anchor="middle" x="0" y="469" transform="translate(413.69,0)" style="font-family: 'Open Sans', verdana, arial, sans-serif; font-size: 18px; fill: rgb(42, 63, 95); fill-opacity: 1; white-space: pre;">01/05</text></g><g class="xtick"><text text-anchor="middle" x="0" y="469" transform="translate(517.36,0)" style="font-family: 'Open Sans', verdana, arial, sans-serif; font-size: 18px; fill: rgb(42, 63, 95); fill-opacity: 1; white-space: pre;">01/07</text></g><g class="xtick"><text text-anchor="middle" x="0" y="469" transform="translate(622.73,0)" style="font-family: 'Open Sans', verdana, arial, sans-serif; font-size: 18px; fill: rgb(42, 63, 95); fill-opacity: 1; white-space: pre;">01/09</text></g><g class="xtick"><text text-anchor="middle" x="0" y="469" transform="translate(726.4,0)" style="font-family: 'Open Sans', verdana, arial, sans-serif; font-size: 18px; fill: rgb(42, 63, 95); fill-opacity: 1; white-space: pre;">01/11</text></g></g><g class="yaxislayer-above"/><g class="overaxes-above"/></g></g><g class="polarlayer"/><g class="ternarylayer"/><g class="geolayer"/><g class="funnelarealayer"/><g class="pielayer"/><g class="treemaplayer"/><g class="sunburstlayer"/><g class="glimages"/><defs id="topdefs-8d321f"><g class="clips"/></defs><g class="layer-above"><g class="imagelayer"/><g class="shapelayer"><path data-index="0" fill-rule="evenodd" d="M-905.12,377.69L337.22,377.69" clip-path="url('#clip8d321fxy')" style="opacity: 1; stroke: rgb(255, 0, 0); stroke-opacity: 1; fill: rgb(0, 0, 0); fill-opacity: 0; stroke-dasharray: 3px, 3px; stroke-width: 1.5px;"/></g></g><g class="infolayer"><g class="g-gtitle"><text class="gtitle" x="375" y="25" text-anchor="middle" dy="0.7em" style="font-family: 'Open Sans', verdana, arial, sans-serif; font-size: 50px; fill: rgb(42, 63, 95); opacity: 1; font-weight: normal; white-space: pre;"><tspan style="font-weight:bold">Lot (46)</tspan></text></g><g class="g-xtitle"/><g class="annotation" data-index="0" style="opacity: 1;"><g class="annotation-text-g" transform="rotate(0,686.1,296.46)"><g class="cursor-pointer" transform="translate(643, 260)"><rect class="bg" x="0.5" y="0.5" width="86" height="71" style="stroke-width: 1px; stroke: rgb(0, 0, 0); stroke-opacity: 0; fill: rgb(255, 255, 255); fill-opacity: 0.6;"/><text class="annotation-text" text-anchor="middle" x="43.53125" y="55.5" style="font-family: 'Open Sans', verdana, arial, sans-serif; font-size: 50px; fill: rgb(8, 115, 191); fill-opacity: 1; white-space: pre;"> <tspan style="font-weight:bold">64 </tspan></text></g></g><g class="annotation-arrow-g" style="opacity: 1;"><path d="M714.5,331.96L726.1,346.46" style="stroke-width: 1px; stroke: rgb(8, 115, 191); stroke-opacity: 1; stroke-dasharray: 0px, 0px, 18.569px, 18.569px;"/></g></g></g></svg>