<svg class="main-svg" xmlns="http://www.w3.org/2000/svg" xmlns:xlink="http://www.w3.org/1999/xlink" width="1125" height="750" style="" viewBox="0 0 750 500"><rect x="0" y="0" width="750" height="500" style="fill: rgb(0, 0, 0); fill-opacity: 0;"/><defs id="defs-b99312"><g class="clips"><clipPath id="clipb99312xyplot" class="plotclip"><rect width="700" height="380"/></clipPath><clipPath class="axesclip" id="clipb99312x"><rect x="50" y="0" width="700" height="500"/></clipPath><clipPath class="axesclip" id="clipb99312y"><rect x="0" y="70" width="750" height="380"/></clipPath><clipPath class="axesclip" id="clipb99312xy"><rect x="50" y="70" width="700" height="380"/></clipPath></g><g class="gradients"/></defs><g class="bglayer"><rect class="bg" x="50" y="70" width="700" height="380" style="fill: rgb(0, 0, 0); fill-opacity: 0; stroke-width: 0;"/></g><g class="layer-below"><g class="imagelayer"/><g class="shapelayer"/></g><g class="cartesianlayer"><g class="subplot xy"><g class="layer-subplot"><g class="shapelayer"/><g class="imagelayer"/></g><g class="gridlayer"><g class="x"><path class="xgrid crisp" transform="translate(105.13,0)" d="M0,70v380" style="stroke: rgb(255, 255, 255); stroke-opacity: 1; stroke-width: 1px;"/><path class="xgrid crisp" transform="translate(207.04,0)" d="M0,70v380" style="stroke: rgb(255, 255, 255); stroke-opacity: 1; stroke-width: 1px;"/><path class="xgrid crisp" transform="translate(305.61,0)" d="M0,70v380" style="stroke: rgb(255, 255, 255); stroke-opacity: 1; stroke-width: 1px;"/><path class="xgrid crisp" transform="translate(407.52,0)" d="M0,70v380" style="stroke: rgb(255, 255, 255); stroke-opacity: 1; stroke-width: 1px;"/><path class="xgrid crisp" transform="translate(509.43,0)" d="M0,70v380" style="stroke: rgb(255, 255, 255); stroke-opacity: 1; stroke-width: 1px;"/><path class="xgrid crisp" transform="translate(613.01,0)" d="M0,70v380" style="stroke: rgb(255, 255, 255); stroke-opacity: 1; stroke-width: 1px;"/><path class="xgrid crisp" transform="translate(714.92,0)" d="M0,70v380" style="stroke: rgb(255, 255, 255); stroke-opacity: 1; stroke-width: 1px;"/></g><g class="y"/></g><g class="zerolinelayer"/><path class="xlines-below"/><path class="ylines-below"/><g class="overlines-below"/><g class="xaxislayer-below"/><g class="yaxislayer-below"/><g class="overaxes-below"/><g class="plot" transform="translate(50, 70)" clip-path="url('#clipb99312xyplot')"><g class="scatterlayer mlayer"><g class="trace scatter trace645314" style="stroke-miterlimit: 2;"><g class="fills"><g><path class="js-fill" d="M671.6,380L-227.21,380L-227.21,378.58L-170.41,379.03L-168.74,379.36L-123.63,378.84L-121.96,377.36L-106.92,374.98L-105.25,374.34L-100.24,372.02L-98.57,370.02L-91.89,364.1L-90.21,364.1L-83.53,355.22L-81.86,352.51L-78.52,353.35L-76.85,351.93L-73.51,347.94L-71.84,344.14L-66.83,341.63L-65.16,337.26L-63.48,334.17L-61.81,334.87L-60.14,334.81L-58.47,331.2L-55.13,329.98L-53.46,327.08L-50.12,324.57L-48.45,325.41L-43.44,325.99L-41.77,328.63L-40.1,329.53L-38.42,327.28L-36.75,325.41L-35.08,325.6L-31.74,324.19L-30.07,323.61L-26.73,323.16L-25.06,325.09L-23.39,325.15L-21.72,327.28L-18.38,328.95L-16.71,330.75L-15.04,334.55L-13.37,335.71L-11.69,338.86L-10.02,339.19L-8.35,338.99L-6.68,342.6L-5.01,343.63L-3.34,343.37L1.67,338.93L3.34,338.93L6.68,327.21L8.35,320.39L13.37,307.71L15.04,307.19L20.05,277.71L21.72,259.75L23.39,242.69L25.06,233.61L26.73,232.58L28.4,207.22L35.08,110.59L36.75,104.8L38.42,105.12L40.1,71.52L41.77,42.55L43.44,35.86L45.11,22.6L46.78,17.77L48.45,10.36L50.12,8.5L51.79,8.11L53.46,15.26L55.13,16.61L56.8,26.14L60.14,47.83L61.81,48.6L65.16,95.72L66.83,149.67L70.17,185.14L71.84,191.45L73.51,192.41L75.18,218.36L76.85,240.05L78.52,226.08L81.86,265.99L83.53,268.63L85.2,269.34L86.87,280.22L88.54,288.72L90.21,292.32L91.89,294.38L93.56,300.95L95.23,302.94L96.9,303.39L100.24,307L101.91,307.71L103.58,310.73L105.25,310.09L106.92,310.6L108.59,310.28L110.26,311.89L111.93,311.31L113.6,312.86L115.27,310.8L116.95,310.09L118.62,308.09L120.29,307.58L121.96,309.19L123.63,305.91L125.3,297.67L130.31,277.13L131.98,276.62L135.32,251.96L136.99,245.59L138.66,247.78L140.33,267.02L142,265.03L143.68,264.77L145.35,263.74L147.02,265.67L148.69,264.96L150.36,261.74L152.03,261.1L153.7,256.4L155.37,254.53L157.04,241.15L158.71,230.2L160.38,225.89L162.05,216.81L163.72,188.62L165.39,193.89L167.06,194.41L170.41,199.88L172.08,200.65L173.75,196.28L175.42,194.8L177.09,189.65L178.76,189.52L185.44,160.61L187.11,160.1L190.45,155.91L192.12,153.79L193.79,155.53L195.47,161.19L197.14,169.43L198.81,167.5L205.49,177.35L207.16,176.45L208.83,178.25L210.5,178.9L213.84,180.96L215.51,189L223.87,210.12L225.54,210.05L227.21,205.61L228.88,205.93L230.55,201.17L232.22,199.04L235.56,189.13L237.23,188.55L238.9,187.78L240.57,179.99L242.24,179.02L243.91,180.5L247.26,183.47L248.93,183.85L250.6,189.58L252.27,198.66L253.94,200.07L255.61,199.5L260.62,198.85L262.29,195.25L265.63,187.78L267.3,184.43L272.32,181.66L273.99,175.23L277.33,171.17L279,171.69L280.67,169.56L282.34,165.57L284.01,165.51L285.68,158.17L289.02,140.08L290.69,124.18L292.36,113.23L294.03,109.69L295.7,108.92L297.37,102.74L300.72,98.75L302.39,103L304.06,105.9L305.73,106.41L307.4,107.25L309.07,164.8L310.74,143.88L312.41,150.7L317.42,170.33L319.09,170.27L320.76,127.14L322.43,160.68L325.78,176.32L327.45,177.61L329.12,181.99L330.79,183.02L334.13,197.24L335.8,200.33L337.47,204.07L339.14,210.63L340.81,212.05L342.48,210.89L344.15,217.52L345.82,227.76L350.84,251.77L352.51,265.35L354.18,267.28L355.85,278.16L362.53,297.21L364.2,298.12L365.87,298.44L367.54,305.78L370.88,313.57L372.55,325.15L374.22,327.79L375.89,324.57L377.57,324.7L379.24,329.53L382.58,335L384.25,330.69L385.92,337L387.59,337.58L389.26,337.96L390.93,347.56L392.6,345.88L394.27,347.36L397.61,346.53L399.28,347.62L400.95,348.2L402.63,342.08L404.3,346.85L405.97,348.2L409.31,352.64L410.98,353.93L412.65,353.99L414.32,355.99L415.99,356.7L417.66,358.56L421,360.43L422.67,359.92L424.34,359.98L426.01,362.88L429.36,365.58L431.03,366.42L434.37,369.12L436.04,369.31L444.39,374.14L446.06,374.59L449.4,374.01L451.07,373.05L454.42,371.05L456.09,369.25L457.76,367.32L459.43,367L464.44,358.69L466.11,356.12L469.45,351.61L471.12,351.03L472.79,346.33L474.46,339.06L476.13,342.28L477.8,331.01L481.15,310.73L482.82,307.13L486.16,260.52L487.83,220.16L492.84,138.34L494.51,134.73L497.85,62.38L499.52,41.65L502.86,11.01L504.53,7.66L506.21,8.24L507.88,3.73L509.55,0L511.22,2.51L512.89,3.03L514.56,4.44L516.23,4.51L517.9,2.7L521.24,0.32L522.91,3.86L526.25,10.04L527.92,10.88L529.59,11.39L531.26,16.35L539.62,65.85L541.29,67.34L544.63,89.16L546.3,96.24L551.31,123.34L552.98,124.24L556.32,166.47L558,181.34L561.34,209.73L563.01,218.94L564.68,221.25L566.35,232.97L569.69,249.51L571.36,254.99L574.7,270.18L576.37,271.72L578.04,285.82L579.71,292.97L584.73,311.83L586.4,316.14L588.07,317.94L589.74,323.54L594.75,336.93L596.42,339.25L599.76,340.02L601.43,343.5L603.1,342.98L604.77,343.56L609.79,348.33L611.46,348.33L614.8,353.03L616.47,352L619.81,351.42L621.48,349.81L623.15,349.74L624.82,347.81L626.49,347.88L628.16,349.1L629.83,346.27L631.5,347.43L633.17,348.78L634.84,347.75L638.19,347.36L639.86,346.78L641.53,347.56L643.2,344.59L644.87,342.98L646.54,344.08L648.21,342.86L649.88,343.18L654.89,343.56L656.56,342.6L658.23,342.34L659.9,348.65L661.58,342.15L663.25,340.35L669.93,333.91L671.6,318.78" style="fill: rgb(8, 115, 191); fill-opacity: 0.2; stroke-width: 0;"/></g></g><g class="errorbars"/><g class="lines"><path class="js-line" d="M-227.21,378.58L-170.41,379.03L-168.74,379.36L-123.63,378.84L-121.96,377.36L-106.92,374.98L-105.25,374.34L-100.24,372.02L-98.57,370.02L-91.89,364.1L-90.21,364.1L-83.53,355.22L-81.86,352.51L-78.52,353.35L-76.85,351.93L-73.51,347.94L-71.84,344.14L-66.83,341.63L-65.16,337.26L-63.48,334.17L-61.81,334.87L-60.14,334.81L-58.47,331.2L-55.13,329.98L-53.46,327.08L-50.12,324.57L-48.45,325.41L-43.44,325.99L-41.77,328.63L-40.1,329.53L-38.42,327.28L-36.75,325.41L-35.08,325.6L-31.74,324.19L-30.07,323.61L-26.73,323.16L-25.06,325.09L-23.39,325.15L-21.72,327.28L-18.38,328.95L-16.71,330.75L-15.04,334.55L-13.37,335.71L-11.69,338.86L-10.02,339.19L-8.35,338.99L-6.68,342.6L-5.01,343.63L-3.34,343.37L1.67,338.93L3.34,338.93L6.68,327.21L8.35,320.39L13.37,307.71L15.04,307.19L20.05,277.71L21.72,259.75L23.39,242.69L25.06,233.61L26.73,232.58L28.4,207.22L35.08,110.59L36.75,104.8L38.42,105.12L40.1,71.52L41.77,42.55L43.44,35.86L45.11,22.6L46.78,17.77L48.45,10.36L50.12,8.5L51.79,8.11L53.46,15.26L55.13,16.61L56.8,26.14L60.14,47.83L61.81,48.6L65.16,95.72L66.83,149.67L70.17,185.14L71.84,191.45L73.51,192.41L75.18,218.36L76.85,240.05L78.52,226.08L81.86,265.99L83.53,268.63L85.2,269.34L86.87,280.22L88.54,288.72L90.21,292.32L91.89,294.38L93.56,300.95L95.23,302.94L96.9,303.39L100.24,307L101.91,307.71L103.58,310.73L105.25,310.09L106.92,310.6L108.59,310.28L110.26,311.89L111.93,311.31L113.6,312.86L115.27,310.8L116.95,310.09L118.62,308.09L120.29,307.58L121.96,309.19L123.63,305.91L125.3,297.67L130.31,277.13L131.98,276.62L135.32,251.96L136.99,245.59L138.66,247.78L140.33,267.02L142,265.03L143.68,264.77L145.35,263.74L147.02,265.67L148.69,264.96L150.36,261.74L152.03,261.1L153.7,256.4L155.37,254.53L157.04,241.15L158.71,230.2L160.38,225.89L162.05,216.81L163.72,188.62L165.39,193.89L167.06,194.41L170.41,199.88L172.08,200.65L173.75,196.28L175.42,194.8L177.09,189.65L178.76,189.52L185.44,160.61L187.11,160.1L190.45,155.91L192.12,153.79L193.79,155.53L195.47,161.19L197.14,169.43L198.81,167.5L205.49,177.35L207.16,176.45L208.83,178.25L210.5,178.9L213.84,180.96L215.51,189L223.87,210.12L225.54,210.05L227.21,205.61L228.88,205.93L230.55,201.17L232.22,199.04L235.56,189.13L237.23,188.55L238.9,187.78L240.57,179.99L242.24,179.02L243.91,180.5L247.26,183.47L248.93,183.85L250.6,189.58L252.27,198.66L253.94,200.07L255.61,199.5L260.62,198.85L262.29,195.25L265.63,187.78L267.3,184.43L272.32,181.66L273.99,175.23L277.33,171.17L279,171.69L280.67,169.56L282.34,165.57L284.01,165.51L285.68,158.17L289.02,140.08L290.69,124.18L292.36,113.23L294.03,109.69L295.7,108.92L297.37,102.74L300.72,98.75L302.39,103L304.06,105.9L305.73,106.41L307.4,107.25L309.07,164.8L310.74,143.88L312.41,150.7L317.42,170.33L319.09,170.27L320.76,127.14L322.43,160.68L325.78,176.32L327.45,177.61L329.12,181.99L330.79,183.02L334.13,197.24L335.8,200.33L337.47,204.07L339.14,210.63L340.81,212.05L342.48,210.89L344.15,217.52L345.82,227.76L350.84,251.77L352.51,265.35L354.18,267.28L355.85,278.16L362.53,297.21L364.2,298.12L365.87,298.44L367.54,305.78L370.88,313.57L372.55,325.15L374.22,327.79L375.89,324.57L377.57,324.7L379.24,329.53L382.58,335L384.25,330.69L385.92,337L387.59,337.58L389.26,337.96L390.93,347.56L392.6,345.88L394.27,347.36L397.61,346.53L399.28,347.62L400.95,348.2L402.63,342.08L404.3,346.85L405.97,348.2L409.31,352.64L410.98,353.93L412.65,353.99L414.32,355.99L415.99,356.7L417.66,358.56L421,360.43L422.67,359.92L424.34,359.98L426.01,362.88L429.36,365.58L431.03,366.42L434.37,369.12L436.04,369.31L444.39,374.14L446.06,374.59L449.4,374.01L451.07,373.05L454.42,371.05L456.09,369.25L457.76,367.32L459.43,367L464.44,358.69L466.11,356.12L469.45,351.61L471.12,351.03L472.79,346.33L474.46,339.06L476.13,342.28L477.8,331.01L481.15,310.73L482.82,307.13L486.16,260.52L487.83,220.16L492.84,138.34L494.51,134.73L497.85,62.38L499.52,41.65L502.86,11.01L504.53,7.66L506.21,8.24L507.88,3.73L509.55,0L511.22,2.51L512.89,3.03L514.56,4.44L516.23,4.51L517.9,2.7L521.24,0.32L522.91,3.86L526.25,10.04L527.92,10.88L529.59,11.39L531.26,16.35L539.62,65.85L541.29,67.34L544.63,89.16L546.3,96.24L551.31,123.34L552.98,124.24L556.32,166.47L558,181.34L561.34,209.73L563.01,218.94L564.68,221.25L566.35,232.97L569.69,249.51L571.36,254.99L574.7,270.18L576.37,271.72L578.04,285.82L579.71,292.97L584.73,311.83L586.4,316.14L588.07,317.94L589.74,323.54L594.75,336.93L596.42,339.25L599.76,340.02L601.43,343.5L603.1,342.98L604.77,343.56L609.79,348.33L611.46,348.33L614.8,353.03L616.47,352L619.81,351.42L621.48,349.81L623.15,349.74L624.82,347.81L626.49,347.88L628.16,349.1L629.83,346.27L631.5,347.43L633.17,348.78L634.84,347.75L638.19,347.36L639.86,346.78L641.53,347.56L643.2,344.59L644.87,342.98L646.54,344.08L648.21,342.86L649.88,343.18L654.89,343.56L656.56,342.6L658.23,342.34L659.9,348.65L661.58,342.15L663.25,340.35L669.93,333.91L671.6,318.78" style="vector-effect: non-scaling-stroke; fill: none; stroke: rgb(8, 115, 191); stroke-opacity: 1; stroke-width: 0.5px; opacity: 1;"/></g><g class="points"/><g class="text"/></g><g class="trace scatter trace35adff" style="stroke-miterlimit: 2;"><g class="fills"><g><path class="js-fill" d="M688.31,380L671.6,380L671.6,318.78L673.27,318.33L674.94,314.15L676.61,319.49L678.28,309.7L679.95,306.61L681.62,307L686.63,280.09L688.31,258.01" style="fill: rgb(8, 115, 191); fill-opacity: 0.4; stroke-width: 0;"/></g></g><g class="errorbars"/><g class="lines"><path class="js-line" d="M671.6,318.78L673.27,318.33L674.94,314.15L676.61,319.49L678.28,309.7L679.95,306.61L681.62,307L686.63,280.09L688.31,258.01" style="vector-effect: non-scaling-stroke; fill: none; stroke: rgb(8, 115, 191); stroke-opacity: 1; stroke-width: 2px; opacity: 1;"/></g><g class="points"/><g class="text"/></g><g class="trace scatter trace2ef101" style="stroke-miterlimit: 2; opacity: 1;"><g class="fills"/><g class="errorbars"/><g class="lines"/><g class="points"><path class="point" transform="translate(688.31,258.01)" d="M15,0A15,15 0 1,1 0,-15A15,15 0 0,1 15,0Z" style="opacity: 1; stroke-width: 0px; fill: rgb(8, 115, 191); fill-opacity: 1;"/></g><g class="text"/></g></g></g><g class="overplot"/><path class="xlines-above crisp" style="fill: none; stroke-width: 1px; stroke: rgb(0, 0, 0); stroke-opacity: 0;" d=""/><path class="ylines-above crisp" style="fill: none;" d="M0,0"/><g class="overlines-above"/><g class="xaxislayer-above"><path class="xtick ticks crisp" d="M0,450v-5" transform="translate(105.13,0)" style="stroke: rgb(68, 68, 68); stroke-opacity: 1; stroke-width: 1px;"/><path class="xtick ticks crisp" d="M0,450v-5" transform="translate(207.04,0)" style="stroke: rgb(68, 68, 68); stroke-opacity: 1; stroke-width: 1px;"/><path class="xtick ticks crisp" d="M0,450v-5" transform="translate(305.61,0)" style="stroke: rgb(68, 68, 68); stroke-opacity: 1; stroke-width: 1px;"/><path class="xtick ticks crisp" d="M0,450v-5" transform="translate(407.52,0)" style="stroke: rgb(68, 68, 68); stroke-opacity: 1; stroke-width: 1px;"/><path class="xtick ticks crisp" d="M0,450v-5" transform="translate(509.43,0)" style="stroke: rgb(68, 68, 68); stroke-opacity: 1; stroke-width: 1px;"/><path class="xtick ticks crisp" d="M0,450v-5" transform="translate(613.01,0)" style="stroke: rgb(68, 68, 68); stroke-opacity: 1; stroke-width: 1px;"/><path class="xtick ticks crisp" d="M0,450v-5" transform="translate(714.92,0)" style="stroke: rgb(68, 68, 68); stroke-opacity: 1; stroke-width: 1px;"/><g class="xtick"><text text-anchor="middle" x="0" y="469" transform="translate(105.13,0)" style="font-family: 'Open Sans', verdana, arial, sans-serif; font-size: 18px; fill: rgb(42, 63, 95); fill-opacity: 1; white-space: pre;">01/11</text></g><g class="xtick"><text text-anchor="middle" x="0" y="469" transform="translate(207.04,0)" style="font-family: 'Open Sans', verdana, arial, sans-serif; font-size: 18px; fill: rgb(42, 63, 95); fill-opacity: 1; white-space: pre;">01/01</text></g><g class="xtick"><text text-anchor="middle" x="0" y="469" transform="translate(305.61,0)" style="font-family: 'Open Sans', verdana, arial, sans-serif; font-size: 18px; fill: rgb(42, 63, 95); fill-opacity: 1; white-space: pre;">01/03</text></g><g class="xtick"><text text-anchor="middle" x="0" y="469" transform="translate(407.52,0)" style="font-family: 'Open Sans', verdana, arial, sans-serif; font-size: 18px; fill: rgb(42, 63, 95); fill-opacity: 1; white-space: pre;">01/05</text></g><g class="xtick"><text text-anchor="middle" x="0" y="469" transform="translate(509.43,0)" style="font-family: 'Open Sans', verdana, arial, sans-serif; font-size: 18px; fill: rgb(42, 63, 95); fill-opacity: 1; white-space: pre;">01/07</text></g><g class="xtick"><text text-anchor="middle" x="0" y="469" transform="translate(613.01,0)" style="font-family: 'Open Sans', verdana, arial, sans-serif; font-size: 18px; fill: rgb(42, 63, 95); fill-opacity: 1; white-space: pre;">01/09</text></g><g class="xtick"><text text-anchor="middle" x="0" y="469" transform="translate(714.92,0)" style="font-family: 'Open Sans', verdana, arial, sans-serif; font-size: 18px; fill: rgb(42, 63, 95); fill-opacity: 1; white-space: pre;">01/11</text></g></g><g class="yaxislayer-above"/><g class="overaxes-above"/></g></g><g class="polarlayer"/><g class="ternarylayer"/><g class="geolayer"/><g class="funnelarealayer"/><g class="pielayer"/><g class="treemaplayer"/><g class="sunburstlayer"/><g class="glimages"/><defs id="topdefs-b99312"><g class="clips"/></defs><g class="layer-above"><g class="imagelayer"/><g class="shapelayer"><path data-index="0" fill-rule="evenodd" d="M-888.9,415.44L332.34,415.44" clip-path="url('#clipb99312xy')" style="opacity: 1; stroke: rgb(255, 0, 0); stroke-opacity: 1; fill: rgb(0, 0, 0); fill-opacity: 0; stroke-dasharray: 3px, 3px; stroke-width: 1.5px;"/></g></g><g class="infolayer"><g class="g-gtitle"><text class="gtitle" x="375" y="25" text-anchor="middle" dy="0.7em" style="font-family: 'Open Sans', verdana, arial, sans-serif; font-size: 50px; fill: rgb(42, 63, 95); opacity: 1; font-weight: normal; white-space: pre;"><tspan style="font-weight:bold">Var (83)</tspan></text></g><g class="g-xtitle"/><g class="annotation" data-index="0" style="opacity: 1;"><g class="annotation-text-g" transform="rotate(0,696.31,268.01)"><g class="cursor-pointer" transform="translate(638, 232)"><rect class="bg" x="0.5" y="0.5" width="115" height="71" style="stroke-width: 1px; stroke: rgb(0, 0, 0); stroke-opacity: 0; fill: rgb(255, 255, 255); fill-opacity: 0.6;"/><text class="annotation-text" text-anchor="middle" x="57.8125" y="55.5" style="font-family: 'Open Sans', verdana, arial, sans-serif; font-size: 50px; fill: rgb(8, 115, 191); fill-opacity: 1; white-space: pre;"> <tspan style="font-weight:bold">176 </tspan></text></g></g><g class="annotation-arrow-g" style="opacity: 1;"><path d="M724.7099999999999,303.51L736.31,318.01" style="stroke-width: 1px; stroke: rgb(8, 115, 191); stroke-opacity: 1; stroke-dasharray: 0px, 0px, 18.569px, 18.569px;"/></g></g></g></svg>