<svg class="main-svg" xmlns="http://www.w3.org/2000/svg" xmlns:xlink="http://www.w3.org/1999/xlink" width="1125" height="750" style="" viewBox="0 0 750 500"><rect x="0" y="0" width="750" height="500" style="fill: rgb(0, 0, 0); fill-opacity: 0;"/><defs id="defs-426e83"><g class="clips"><clipPath id="clip426e83xyplot" class="plotclip"><rect width="700" height="380"/></clipPath><clipPath class="axesclip" id="clip426e83x"><rect x="50" y="0" width="700" height="500"/></clipPath><clipPath class="axesclip" id="clip426e83y"><rect x="0" y="70" width="750" height="380"/></clipPath><clipPath class="axesclip" id="clip426e83xy"><rect x="50" y="70" width="700" height="380"/></clipPath></g><g class="gradients"/></defs><g class="bglayer"><rect class="bg" x="50" y="70" width="700" height="380" style="fill: rgb(0, 0, 0); fill-opacity: 0; stroke-width: 0;"/></g><g class="layer-below"><g class="imagelayer"/><g class="shapelayer"/></g><g class="cartesianlayer"><g class="subplot xy"><g class="layer-subplot"><g class="shapelayer"/><g class="imagelayer"/></g><g class="gridlayer"><g class="x"><path class="xgrid crisp" transform="translate(92.22999999999999,0)" d="M0,70v380" style="stroke: rgb(255, 255, 255); stroke-opacity: 1; stroke-width: 1px;"/><path class="xgrid crisp" transform="translate(170.29000000000002,0)" d="M0,70v380" style="stroke: rgb(255, 255, 255); stroke-opacity: 1; stroke-width: 1px;"/><path class="xgrid crisp" transform="translate(245.8,0)" d="M0,70v380" style="stroke: rgb(255, 255, 255); stroke-opacity: 1; stroke-width: 1px;"/><path class="xgrid crisp" transform="translate(323.86,0)" d="M0,70v380" style="stroke: rgb(255, 255, 255); stroke-opacity: 1; stroke-width: 1px;"/><path class="xgrid crisp" transform="translate(401.92,0)" d="M0,70v380" style="stroke: rgb(255, 255, 255); stroke-opacity: 1; stroke-width: 1px;"/><path class="xgrid crisp" transform="translate(481.26,0)" d="M0,70v380" style="stroke: rgb(255, 255, 255); stroke-opacity: 1; stroke-width: 1px;"/><path class="xgrid crisp" transform="translate(559.3199999999999,0)" d="M0,70v380" style="stroke: rgb(255, 255, 255); stroke-opacity: 1; stroke-width: 1px;"/><path class="xgrid crisp" transform="translate(637.39,0)" d="M0,70v380" style="stroke: rgb(255, 255, 255); stroke-opacity: 1; stroke-width: 1px;"/><path class="xgrid crisp" transform="translate(712.89,0)" d="M0,70v380" style="stroke: rgb(255, 255, 255); stroke-opacity: 1; stroke-width: 1px;"/></g><g class="y"/></g><g class="zerolinelayer"/><path class="xlines-below"/><path class="ylines-below"/><g class="overlines-below"/><g class="xaxislayer-below"/><g class="yaxislayer-below"/><g class="overaxes-below"/><g class="plot" transform="translate(50, 70)" clip-path="url('#clip426e83xyplot')"><g class="scatterlayer mlayer"><g class="trace scatter trace126e88" style="stroke-miterlimit: 2;"><g class="fills"><g><path class="js-fill" d="M678.24,380L-174.04,380L-174.04,378.79L-126.69,379.77L-125.41,379.75L-78.06,377.7L-76.78,377.22L-58.87,370.51L-57.59,369.51L-53.75,366.98L-52.47,366.29L-49.91,365.33L-48.63,364.24L-38.39,361.17L-37.11,360.5L-34.55,360.12L-33.27,360.04L-21.76,358.07L-20.48,358.18L-14.08,359.11L-12.8,359.98L-2.56,363.07L-1.28,363.02L1.28,362.11L2.56,362.09L5.12,360.07L6.4,359.6L12.8,357.33L14.08,356.1L16.64,353.02L17.92,351.35L20.48,350.55L21.76,346.43L26.87,330.24L28.15,328.97L29.43,328.56L30.71,325.46L33.27,323.31L34.55,323.91L40.95,325.7L42.23,327.39L46.07,334.04L47.35,334.22L49.91,342.56L51.19,349.84L55.03,353.74L56.31,354.11L58.87,357.85L60.15,356.01L62.71,360.97L63.99,361.06L65.27,361.14L66.54,363.38L67.82,365.55L69.1,366.01L71.66,366.92L72.94,366.8L78.06,367.48L79.34,367.7L80.62,368.48L81.9,368.14L92.14,367.44L93.42,366.8L99.82,364.16L101.1,364.07L106.22,362.76L107.5,365.54L111.33,365.13L112.61,364.53L117.73,362.18L119.01,361.98L121.57,360.43L122.85,360.62L124.13,360.2L125.41,356.76L127.97,357.62L129.25,356.89L131.81,355.95L133.09,355.22L139.49,352.07L140.77,351.24L144.61,347.94L145.89,347.9L151.01,347.66L152.29,348.17L154.84,348.45L156.12,348.02L158.68,347.11L159.96,347.17L162.52,347.75L163.8,347.89L170.2,353.14L171.48,353.76L174.04,354.74L175.32,355.22L177.88,355.27L179.16,355.02L185.56,355.42L186.84,355.96L197.07,358.08L198.35,358.01L200.91,357.27L202.19,357.08L207.31,355.79L208.59,355.79L212.43,354.98L213.71,354.39L217.55,353.27L218.83,351.83L225.23,343.58L226.51,343.3L229.07,339.05L230.35,337.96L234.19,335.73L235.47,335.57L236.75,343L238.03,341.1L240.59,342.61L241.86,343.46L244.42,343.39L245.7,336.38L246.98,339.77L248.26,340.58L250.82,341.1L252.1,341.69L257.22,342.19L258.5,342.57L261.06,343.84L262.34,344.04L270.02,356.39L271.3,356.72L275.14,361.94L276.42,362.72L277.7,363.99L278.98,363.94L280.26,364.18L281.54,365.91L285.37,369.52L286.65,369.89L289.21,369.62L290.49,370.41L293.05,370.85L294.33,369.78L298.17,370.32L299.45,371.79L303.29,371.73L304.57,372.13L307.13,372.24L308.41,371.29L310.97,372.84L312.25,373.35L332.72,377.98L334,377.97L342.96,378.59L344.24,378.48L357.04,375.8L358.32,375.42L360.88,374.96L362.16,373.86L363.44,372.48L364.72,372.54L368.56,365.28L369.84,364.17L374.95,347L376.23,343.09L377.51,340.5L378.79,339.75L381.35,332.4L382.63,330.13L385.19,325.76L386.47,324.78L387.75,324.36L389.03,321.84L395.43,317.17L396.71,316.82L399.27,316.31L400.55,315.92L408.23,315.98L409.51,317.2L410.79,318.06L412.07,317.97L413.35,318.48L414.63,318.09L419.74,320.64L421.02,322.57L429.98,335.44L431.26,336.18L432.54,336.71L433.82,340.44L437.66,346.25L438.94,348.07L449.18,358.49L450.46,358.98L453.02,362.98L454.3,364.13L458.14,366.48L459.41,366.87L467.09,369.51L468.37,369.46L472.21,371.31L473.49,371.38L477.33,371.51L478.61,370.97L483.73,369.92L485.01,370.24L488.85,371.28L490.13,371.46L491.41,371.88L492.69,371.36L500.37,370.65L501.65,370.57L504.2,370.5L505.48,371.86L508.04,370.16L509.32,369.76L513.16,369.06L514.44,366.69L515.72,367.25L517,366.67L518.28,367.5L519.56,365.67L522.12,364.42L523.4,362.2L525.96,358.82L527.24,355.69L531.08,353.37L532.36,350.19L538.76,336.82L540.04,335.86L542.6,330.85L543.88,329.06L547.71,322.37L548.99,321.91L552.83,312.53L554.11,310.56L556.67,307.82L557.95,307.44L560.51,303.31L561.79,301.48L564.35,299.31L565.63,297.46L568.19,295.44L569.47,292.49L570.75,288.33L572.03,281.28L573.31,275.89L574.59,281.31L575.87,277.48L577.15,259.71L582.27,209.08L583.55,207.08L584.83,202.11L586.11,178.57L588.67,154.83L589.95,147.92L591.22,138.89L592.5,117.81L593.78,117.79L595.06,116.17L596.34,115.32L597.62,107.14L598.9,101.24L600.18,91.58L602.74,76.37L604.02,58.63L607.86,15.54L609.14,8.06L610.42,3.65L611.7,3.05L612.98,0L614.26,3.8L616.82,22.63L618.1,34.33L620.66,48.1L621.94,72.53L627.06,145.28L628.34,157.94L629.62,164.35L630.9,192.52L636.01,251.42L637.29,259.32L638.57,261.88L639.85,273.22L644.97,300.41L646.25,304.49L647.53,305.92L648.81,310.84L653.93,320.98L655.21,322.5L659.05,326.48L660.33,326.04L665.45,325.54L666.73,323.77L669.29,321.77L670.57,320.03L673.13,315.21L674.41,314.23L678.24,301.84" style="fill: rgb(8, 115, 191); fill-opacity: 0.2; stroke-width: 0;"/></g></g><g class="errorbars"/><g class="lines"><path class="js-line" d="M-174.04,378.79L-126.69,379.77L-125.41,379.75L-78.06,377.7L-76.78,377.22L-58.87,370.51L-57.59,369.51L-53.75,366.98L-52.47,366.29L-49.91,365.33L-48.63,364.24L-38.39,361.17L-37.11,360.5L-34.55,360.12L-33.27,360.04L-21.76,358.07L-20.48,358.18L-14.08,359.11L-12.8,359.98L-2.56,363.07L-1.28,363.02L1.28,362.11L2.56,362.09L5.12,360.07L6.4,359.6L12.8,357.33L14.08,356.1L16.64,353.02L17.92,351.35L20.48,350.55L21.76,346.43L26.87,330.24L28.15,328.97L29.43,328.56L30.71,325.46L33.27,323.31L34.55,323.91L40.95,325.7L42.23,327.39L46.07,334.04L47.35,334.22L49.91,342.56L51.19,349.84L55.03,353.74L56.31,354.11L58.87,357.85L60.15,356.01L62.71,360.97L63.99,361.06L65.27,361.14L66.54,363.38L67.82,365.55L69.1,366.01L71.66,366.92L72.94,366.8L78.06,367.48L79.34,367.7L80.62,368.48L81.9,368.14L92.14,367.44L93.42,366.8L99.82,364.16L101.1,364.07L106.22,362.76L107.5,365.54L111.33,365.13L112.61,364.53L117.73,362.18L119.01,361.98L121.57,360.43L122.85,360.62L124.13,360.2L125.41,356.76L127.97,357.62L129.25,356.89L131.81,355.95L133.09,355.22L139.49,352.07L140.77,351.24L144.61,347.94L145.89,347.9L151.01,347.66L152.29,348.17L154.84,348.45L156.12,348.02L158.68,347.11L159.96,347.17L162.52,347.75L163.8,347.89L170.2,353.14L171.48,353.76L174.04,354.74L175.32,355.22L177.88,355.27L179.16,355.02L185.56,355.42L186.84,355.96L197.07,358.08L198.35,358.01L200.91,357.27L202.19,357.08L207.31,355.79L208.59,355.79L212.43,354.98L213.71,354.39L217.55,353.27L218.83,351.83L225.23,343.58L226.51,343.3L229.07,339.05L230.35,337.96L234.19,335.73L235.47,335.57L236.75,343L238.03,341.1L240.59,342.61L241.86,343.46L244.42,343.39L245.7,336.38L246.98,339.77L248.26,340.58L250.82,341.1L252.1,341.69L257.22,342.19L258.5,342.57L261.06,343.84L262.34,344.04L270.02,356.39L271.3,356.72L275.14,361.94L276.42,362.72L277.7,363.99L278.98,363.94L280.26,364.18L281.54,365.91L285.37,369.52L286.65,369.89L289.21,369.62L290.49,370.41L293.05,370.85L294.33,369.78L298.17,370.32L299.45,371.79L303.29,371.73L304.57,372.13L307.13,372.24L308.41,371.29L310.97,372.84L312.25,373.35L332.72,377.98L334,377.97L342.96,378.59L344.24,378.48L357.04,375.8L358.32,375.42L360.88,374.96L362.16,373.86L363.44,372.48L364.72,372.54L368.56,365.28L369.84,364.17L374.95,347L376.23,343.09L377.51,340.5L378.79,339.75L381.35,332.4L382.63,330.13L385.19,325.76L386.47,324.78L387.75,324.36L389.03,321.84L395.43,317.17L396.71,316.82L399.27,316.31L400.55,315.92L408.23,315.98L409.51,317.2L410.79,318.06L412.07,317.97L413.35,318.48L414.63,318.09L419.74,320.64L421.02,322.57L429.98,335.44L431.26,336.18L432.54,336.71L433.82,340.44L437.66,346.25L438.94,348.07L449.18,358.49L450.46,358.98L453.02,362.98L454.3,364.13L458.14,366.48L459.41,366.87L467.09,369.51L468.37,369.46L472.21,371.31L473.49,371.38L477.33,371.51L478.61,370.97L483.73,369.92L485.01,370.24L488.85,371.28L490.13,371.46L491.41,371.88L492.69,371.36L500.37,370.65L501.65,370.57L504.2,370.5L505.48,371.86L508.04,370.16L509.32,369.76L513.16,369.06L514.44,366.69L515.72,367.25L517,366.67L518.28,367.5L519.56,365.67L522.12,364.42L523.4,362.2L525.96,358.82L527.24,355.69L531.08,353.37L532.36,350.19L538.76,336.82L540.04,335.86L542.6,330.85L543.88,329.06L547.71,322.37L548.99,321.91L552.83,312.53L554.11,310.56L556.67,307.82L557.95,307.44L560.51,303.31L561.79,301.48L564.35,299.31L565.63,297.46L568.19,295.44L569.47,292.49L570.75,288.33L572.03,281.28L573.31,275.89L574.59,281.31L575.87,277.48L577.15,259.71L582.27,209.08L583.55,207.08L584.83,202.11L586.11,178.57L588.67,154.83L589.95,147.92L591.22,138.89L592.5,117.81L593.78,117.79L595.06,116.17L596.34,115.32L597.62,107.14L598.9,101.24L600.18,91.58L602.74,76.37L604.02,58.63L607.86,15.54L609.14,8.06L610.42,3.65L611.7,3.05L612.98,0L614.26,3.8L616.82,22.63L618.1,34.33L620.66,48.1L621.94,72.53L627.06,145.28L628.34,157.94L629.62,164.35L630.9,192.52L636.01,251.42L637.29,259.32L638.57,261.88L639.85,273.22L644.97,300.41L646.25,304.49L647.53,305.92L648.81,310.84L653.93,320.98L655.21,322.5L659.05,326.48L660.33,326.04L665.45,325.54L666.73,323.77L669.29,321.77L670.57,320.03L673.13,315.21L674.41,314.23L678.24,301.84" style="vector-effect: non-scaling-stroke; fill: none; stroke: rgb(8, 115, 191); stroke-opacity: 1; stroke-width: 0.5px; opacity: 1;"/></g><g class="points"/><g class="text"/></g><g class="trace scatter traced645d1" style="stroke-miterlimit: 2;"><g class="fills"><g><path class="js-fill" d="M691.04,380L678.24,380L678.24,301.84L682.08,294.03L683.36,293.66L687.2,279.59L688.48,275.14L691.04,268.39" style="fill: rgb(8, 115, 191); fill-opacity: 0.4; stroke-width: 0;"/></g></g><g class="errorbars"/><g class="lines"><path class="js-line" d="M678.24,301.84L682.08,294.03L683.36,293.66L687.2,279.59L688.48,275.14L691.04,268.39" style="vector-effect: non-scaling-stroke; fill: none; stroke: rgb(8, 115, 191); stroke-opacity: 1; stroke-width: 2px; opacity: 1;"/></g><g class="points"/><g class="text"/></g><g class="trace scatter trace02e94d" style="stroke-miterlimit: 2; opacity: 1;"><g class="fills"/><g class="errorbars"/><g class="lines"/><g class="points"><path class="point" transform="translate(691.04,268.39)" d="M15,0A15,15 0 1,1 0,-15A15,15 0 0,1 15,0Z" style="opacity: 1; stroke-width: 0px; fill: rgb(8, 115, 191); fill-opacity: 1;"/></g><g class="text"/></g></g></g><g class="overplot"/><path class="xlines-above crisp" style="fill: none; stroke-width: 1px; stroke: rgb(0, 0, 0); stroke-opacity: 0;" d=""/><path class="ylines-above crisp" style="fill: none;" d="M0,0"/><g class="overlines-above"/><g class="xaxislayer-above"><path class="xtick ticks crisp" d="M0,450v-5" transform="translate(92.22999999999999,0)" style="stroke: rgb(68, 68, 68); stroke-opacity: 1; stroke-width: 1px;"/><path class="xtick ticks crisp" d="M0,450v-5" transform="translate(170.29000000000002,0)" style="stroke: rgb(68, 68, 68); stroke-opacity: 1; stroke-width: 1px;"/><path class="xtick ticks crisp" d="M0,450v-5" transform="translate(245.8,0)" style="stroke: rgb(68, 68, 68); stroke-opacity: 1; stroke-width: 1px;"/><path class="xtick ticks crisp" d="M0,450v-5" transform="translate(323.86,0)" style="stroke: rgb(68, 68, 68); stroke-opacity: 1; stroke-width: 1px;"/><path class="xtick ticks crisp" d="M0,450v-5" transform="translate(401.92,0)" style="stroke: rgb(68, 68, 68); stroke-opacity: 1; stroke-width: 1px;"/><path class="xtick ticks crisp" d="M0,450v-5" transform="translate(481.26,0)" style="stroke: rgb(68, 68, 68); stroke-opacity: 1; stroke-width: 1px;"/><path class="xtick ticks crisp" d="M0,450v-5" transform="translate(559.3199999999999,0)" style="stroke: rgb(68, 68, 68); stroke-opacity: 1; stroke-width: 1px;"/><path class="xtick ticks crisp" d="M0,450v-5" transform="translate(637.39,0)" style="stroke: rgb(68, 68, 68); stroke-opacity: 1; stroke-width: 1px;"/><path class="xtick ticks crisp" d="M0,450v-5" transform="translate(712.89,0)" style="stroke: rgb(68, 68, 68); stroke-opacity: 1; stroke-width: 1px;"/><g class="xtick"><text text-anchor="middle" x="0" y="469" transform="translate(92.22999999999999,0)" style="font-family: 'Open Sans', verdana, arial, sans-serif; font-size: 18px; fill: rgb(42, 63, 95); fill-opacity: 1; white-space: pre;">01/11</text></g><g class="xtick"><text text-anchor="middle" x="0" y="469" transform="translate(170.29000000000002,0)" style="font-family: 'Open Sans', verdana, arial, sans-serif; font-size: 18px; fill: rgb(42, 63, 95); fill-opacity: 1; white-space: pre;">01/01</text></g><g class="xtick"><text text-anchor="middle" x="0" y="469" transform="translate(245.8,0)" style="font-family: 'Open Sans', verdana, arial, sans-serif; font-size: 18px; fill: rgb(42, 63, 95); fill-opacity: 1; white-space: pre;">01/03</text></g><g class="xtick"><text text-anchor="middle" x="0" y="469" transform="translate(323.86,0)" style="font-family: 'Open Sans', verdana, arial, sans-serif; font-size: 18px; fill: rgb(42, 63, 95); fill-opacity: 1; white-space: pre;">01/05</text></g><g class="xtick"><text text-anchor="middle" x="0" y="469" transform="translate(401.92,0)" style="font-family: 'Open Sans', verdana, arial, sans-serif; font-size: 18px; fill: rgb(42, 63, 95); fill-opacity: 1; white-space: pre;">01/07</text></g><g class="xtick"><text text-anchor="middle" x="0" y="469" transform="translate(481.26,0)" style="font-family: 'Open Sans', verdana, arial, sans-serif; font-size: 18px; fill: rgb(42, 63, 95); fill-opacity: 1; white-space: pre;">01/09</text></g><g class="xtick"><text text-anchor="middle" x="0" y="469" transform="translate(559.3199999999999,0)" style="font-family: 'Open Sans', verdana, arial, sans-serif; font-size: 18px; fill: rgb(42, 63, 95); fill-opacity: 1; white-space: pre;">01/11</text></g><g class="xtick"><text text-anchor="middle" x="0" y="469" transform="translate(637.39,0)" style="font-family: 'Open Sans', verdana, arial, sans-serif; font-size: 18px; fill: rgb(42, 63, 95); fill-opacity: 1; white-space: pre;">01/01</text></g><g class="xtick"><text text-anchor="middle" x="0" y="469" transform="translate(712.89,0)" style="font-family: 'Open Sans', verdana, arial, sans-serif; font-size: 18px; fill: rgb(42, 63, 95); fill-opacity: 1; white-space: pre;">01/03</text></g></g><g class="yaxislayer-above"/><g class="overaxes-above"/></g></g><g class="polarlayer"/><g class="ternarylayer"/><g class="geolayer"/><g class="funnelarealayer"/><g class="pielayer"/><g class="treemaplayer"/><g class="sunburstlayer"/><g class="glimages"/><defs id="topdefs-426e83"><g class="clips"/></defs><g class="layer-above"><g class="imagelayer"/><g class="shapelayer"><path data-index="0" fill-rule="evenodd" d="M-669.2,445.42L266.27,445.42" clip-path="url('#clip426e83xy')" style="opacity: 1; stroke: rgb(255, 0, 0); stroke-opacity: 1; fill: rgb(0, 0, 0); fill-opacity: 0; stroke-dasharray: 3px, 3px; stroke-width: 1.5px;"/></g></g><g class="infolayer"><g class="g-gtitle"><text class="gtitle" x="375" y="25" text-anchor="middle" dy="0.7em" style="font-family: 'Open Sans', verdana, arial, sans-serif; font-size: 50px; fill: rgb(42, 63, 95); opacity: 1; font-weight: normal; white-space: pre;"><tspan style="font-weight:bold">Bouches-du-Rhône (13)</tspan></text></g><g class="g-xtitle"/><g class="annotation" data-index="0" style="opacity: 1;"><g class="annotation-text-g" transform="rotate(0,699.04,278.39)"><g class="cursor-pointer" transform="translate(627, 242)"><rect class="bg" x="0.5" y="0.5" width="143" height="71" style="stroke-width: 1px; stroke: rgb(0, 0, 0); stroke-opacity: 0; fill: rgb(255, 255, 255); fill-opacity: 0.6;"/><text class="annotation-text" text-anchor="middle" x="72.078125" y="55.5" style="font-family: 'Open Sans', verdana, arial, sans-serif; font-size: 50px; fill: rgb(8, 115, 191); fill-opacity: 1; white-space: pre;"> <tspan style="font-weight:bold">1218 </tspan></text></g></g><g class="annotation-arrow-g" style="opacity: 1;"><path d="M727.4399999999999,313.89L739.04,328.39" style="stroke-width: 1px; stroke: rgb(8, 115, 191); stroke-opacity: 1; stroke-dasharray: 0px, 0px, 18.569px, 18.569px;"/></g></g></g></svg>