<svg class="main-svg" xmlns="http://www.w3.org/2000/svg" xmlns:xlink="http://www.w3.org/1999/xlink" width="1125" height="750" style="" viewBox="0 0 750 500"><rect x="0" y="0" width="750" height="500" style="fill: rgb(0, 0, 0); fill-opacity: 0;"/><defs id="defs-8f2f6e"><g class="clips"><clipPath id="clip8f2f6exyplot" class="plotclip"><rect width="695" height="380"/></clipPath><clipPath class="axesclip" id="clip8f2f6ex"><rect x="50" y="0" width="695" height="500"/></clipPath><clipPath class="axesclip" id="clip8f2f6ey"><rect x="0" y="70" width="750" height="380"/></clipPath><clipPath class="axesclip" id="clip8f2f6exy"><rect x="50" y="70" width="695" height="380"/></clipPath></g><g class="gradients"/></defs><g class="bglayer"><rect class="bg" x="50" y="70" width="695" height="380" style="fill: rgb(0, 0, 0); fill-opacity: 0; stroke-width: 0;"/></g><g class="layer-below"><g class="imagelayer"/><g class="shapelayer"/></g><g class="cartesianlayer"><g class="subplot xy"><g class="layer-subplot"><g class="shapelayer"/><g class="imagelayer"/></g><g class="gridlayer"><g class="x"><path class="xgrid crisp" transform="translate(106.08,0)" d="M0,70v380" style="stroke: rgb(255, 255, 255); stroke-opacity: 1; stroke-width: 1px;"/><path class="xgrid crisp" transform="translate(209.73,0)" d="M0,70v380" style="stroke: rgb(255, 255, 255); stroke-opacity: 1; stroke-width: 1px;"/><path class="xgrid crisp" transform="translate(309.99,0)" d="M0,70v380" style="stroke: rgb(255, 255, 255); stroke-opacity: 1; stroke-width: 1px;"/><path class="xgrid crisp" transform="translate(413.64,0)" d="M0,70v380" style="stroke: rgb(255, 255, 255); stroke-opacity: 1; stroke-width: 1px;"/><path class="xgrid crisp" transform="translate(517.3,0)" d="M0,70v380" style="stroke: rgb(255, 255, 255); stroke-opacity: 1; stroke-width: 1px;"/><path class="xgrid crisp" transform="translate(622.65,0)" d="M0,70v380" style="stroke: rgb(255, 255, 255); stroke-opacity: 1; stroke-width: 1px;"/><path class="xgrid crisp" transform="translate(726.31,0)" d="M0,70v380" style="stroke: rgb(255, 255, 255); stroke-opacity: 1; stroke-width: 1px;"/></g><g class="y"/></g><g class="zerolinelayer"/><path class="xlines-below"/><path class="ylines-below"/><g class="overlines-below"/><g class="xaxislayer-below"/><g class="yaxislayer-below"/><g class="overaxes-below"/><g class="plot" transform="translate(50, 70)" clip-path="url('#clip8f2f6exyplot')"><g class="scatterlayer mlayer"><g class="trace scatter trace023891" style="stroke-miterlimit: 2;"><g class="fills"><g><path class="js-fill" d="M666.11,380L-231.1,380L-231.1,377.44L-207.31,378.75L-205.61,378.87L-164.83,377.86L-163.13,377.86L-137.64,379.11L-135.94,379.41L-120.65,377.98L-118.95,377.08L-110.45,376.37L-108.75,375.72L-95.16,376.19L-93.46,376.01L-84.96,375.12L-83.26,374.17L-78.17,374.23L-76.47,373.51L-66.27,367.74L-64.57,366.85L-59.47,361.26L-57.78,360.84L-56.08,360.84L-54.38,358.17L-50.98,355.31L-49.28,354.54L-44.18,352.51L-42.48,353.05L-39.08,351.98L-37.38,351.86L-33.99,350.37L-32.29,350.25L-30.59,348.59L-28.89,344.9L-27.19,339.78L-25.49,340.02L-23.79,339.84L-22.09,340.67L-18.69,340.08L-16.99,343.05L-15.29,346.15L-13.59,346.98L-10.2,348.47L-8.5,348.65L-6.8,350.61L-5.1,350.49L-3.4,350.85L-1.7,349.6L1.7,344.72L3.4,344.24L8.5,324.61L10.2,315.51L11.89,305.81L13.59,303.31L15.29,303.13L16.99,287.19L20.39,266.48L22.09,249.76L23.79,235.54L25.49,229.53L27.19,228.7L28.89,212.4L35.68,113.7L37.38,104.24L39.08,101.44L40.78,75.44L44.18,32.54L45.88,18.03L49.28,13.09L50.98,12.79L52.68,4.22L54.38,0L61.17,44.03L62.87,46.17L66.27,108.58L67.97,161.59L71.37,200.62L73.07,206.57L74.77,207.28L76.47,224.78L78.17,243.4L79.87,228.88L83.26,262.85L84.96,268.21L86.66,268.98L88.36,283.8L91.76,300.57L93.46,303.01L95.16,307.24L96.86,306.23L98.56,306.46L100.26,312.41L101.96,315.15L103.66,314.55L105.35,320.39L107.05,322.11L108.75,323.36L110.45,323.36L113.85,318.78L115.55,320.15L118.95,318.66L120.65,317.95L124.05,318.12L125.75,316.93L127.44,316.7L129.14,314.44L134.24,295.69L135.94,296.65L137.64,293.85L139.34,292.9L141.04,297.42L142.74,312.59L146.14,323.95L147.84,322.59L149.54,324.79L151.23,322.47L152.93,319.67L154.63,320.09L158.03,319.25L159.73,314.85L161.43,312.23L163.13,313.72L164.83,311.1L166.53,296.71L168.23,297.9L169.93,296.82L173.33,302.95L175.02,301.17L178.42,302.6L180.12,301.76L181.82,303.73L183.52,300.57L185.22,298.61L186.92,298.73L188.62,297.12L190.32,297L192.02,295.16L193.72,294.5L197.11,289.33L198.81,289.03L200.51,289.45L202.21,287.19L205.61,287.42L207.31,286.47L209.01,288.26L210.71,285.58L212.41,284.45L214.11,286.12L215.81,288.2L217.51,288.55L219.21,296.29L220.9,296.47L226,306.52L227.7,306.94L231.1,306.28L232.8,309.85L234.5,311.4L236.2,310.27L237.9,310.33L239.6,309.62L241.3,309.08L243,306.58L244.69,305.81L246.39,304.2L248.09,305.93L249.79,305.27L253.19,306.05L254.89,309.85L259.99,316.46L261.69,317.65L263.39,318.36L265.09,318.18L266.78,317.89L268.48,314.97L270.18,314.26L271.88,312.71L273.58,310.75L275.28,310.21L276.98,309.91L278.68,307.06L285.48,290.22L287.18,286.71L288.88,286.18L290.57,280.34L292.27,278.8L293.97,271.18L299.07,256.43L300.77,256.37L304.17,243.99L305.87,241.32L307.57,234.77L309.27,233.82L312.67,233.16L314.36,260.41L316.06,253.21L317.76,254.76L319.46,262.97L321.16,266.07L324.56,266.18L326.26,242.39L327.96,256.31L329.66,258.03L331.36,259.22L333.06,264.7L334.76,266.36L336.45,266.78L341.55,275.35L343.25,278.62L344.95,279.69L346.65,281.89L348.35,282.72L350.05,285.28L351.75,287.31L353.45,291.41L356.85,299.5L358.55,307.47L360.24,307.24L361.94,314.08L368.74,325.68L370.44,325.5L372.14,325.68L373.84,326.99L377.24,334.49L378.94,341.21L380.64,342.87L382.33,340.14L384.03,340.73L385.73,344.78L389.13,342.4L390.83,335.85L395.93,337.04L397.63,345.02L399.33,346.09L401.03,349.6L404.43,354.06L406.12,354.65L407.82,354.42L409.52,348.65L412.92,352.75L414.62,354.77L418.02,357.75L419.72,358.22L421.42,361.73L423.12,363.46L426.52,367.15L428.22,367.74L431.61,367.8L433.31,369.23L435.01,370.72L436.71,370.78L438.41,370.96L440.11,372.56L448.61,374.65L450.31,374.59L455.4,374.7L457.1,375.48L465.6,375.18L467.3,375.36L470.7,373.16L472.4,372.92L479.19,371.31L480.89,369.95L482.59,367.92L484.29,368.99L489.39,359.06L491.09,359L494.49,346.27L496.19,336.51L499.58,326.99L501.28,325.14L502.98,324.43L504.68,320.62L509.78,320.09L511.48,318.96L516.58,319.91L518.28,318.96L519.98,317.95L521.67,315.27L525.07,314.02L526.77,313.72L528.47,312.65L530.17,309.91L535.27,309.79L536.97,308.78L538.67,308.78L540.37,307.06L542.07,310.33L543.77,310.69L545.46,313.84L547.16,315.03L548.86,316.58L550.56,316.1L552.26,316.34L553.96,317.41L559.06,324.25L560.76,324.97L562.46,325.86L564.16,331.27L565.86,332.34L567.56,334.78L569.25,334.01L570.95,337.28L576.05,339.54L577.75,340.61L579.45,340.79L581.15,344.06L582.85,343.77L584.55,345.08L586.25,344.9L587.95,347.81L591.34,352.45L593.04,352.69L594.74,354.12L596.44,354.12L598.14,354.12L599.84,355.25L608.34,359.24L610.04,359.18L611.74,360.66L613.44,359.77L615.13,360.19L616.83,359.12L621.93,358.28L623.63,358.22L627.03,360.49L628.73,362.69L632.13,365.42L633.83,365.19L637.22,365.96L638.92,365.6L642.32,364.11L644.02,364.29L647.42,363.76L649.12,362.51L652.52,361.26L654.22,360.13L655.92,359.35L657.62,359.59L661.01,358.22L662.71,357.81L666.11,356.98" style="fill: rgb(8, 115, 191); fill-opacity: 0.2; stroke-width: 0;"/></g></g><g class="errorbars"/><g class="lines"><path class="js-line" d="M-231.1,377.44L-207.31,378.75L-205.61,378.87L-164.83,377.86L-163.13,377.86L-137.64,379.11L-135.94,379.41L-120.65,377.98L-118.95,377.08L-110.45,376.37L-108.75,375.72L-95.16,376.19L-93.46,376.01L-84.96,375.12L-83.26,374.17L-78.17,374.23L-76.47,373.51L-66.27,367.74L-64.57,366.85L-59.47,361.26L-57.78,360.84L-56.08,360.84L-54.38,358.17L-50.98,355.31L-49.28,354.54L-44.18,352.51L-42.48,353.05L-39.08,351.98L-37.38,351.86L-33.99,350.37L-32.29,350.25L-30.59,348.59L-28.89,344.9L-27.19,339.78L-25.49,340.02L-23.79,339.84L-22.09,340.67L-18.69,340.08L-16.99,343.05L-15.29,346.15L-13.59,346.98L-10.2,348.47L-8.5,348.65L-6.8,350.61L-5.1,350.49L-3.4,350.85L-1.7,349.6L1.7,344.72L3.4,344.24L8.5,324.61L10.2,315.51L11.89,305.81L13.59,303.31L15.29,303.13L16.99,287.19L20.39,266.48L22.09,249.76L23.79,235.54L25.49,229.53L27.19,228.7L28.89,212.4L35.68,113.7L37.38,104.24L39.08,101.44L40.78,75.44L44.18,32.54L45.88,18.03L49.28,13.09L50.98,12.79L52.68,4.22L54.38,0L61.17,44.03L62.87,46.17L66.27,108.58L67.97,161.59L71.37,200.62L73.07,206.57L74.77,207.28L76.47,224.78L78.17,243.4L79.87,228.88L83.26,262.85L84.96,268.21L86.66,268.98L88.36,283.8L91.76,300.57L93.46,303.01L95.16,307.24L96.86,306.23L98.56,306.46L100.26,312.41L101.96,315.15L103.66,314.55L105.35,320.39L107.05,322.11L108.75,323.36L110.45,323.36L113.85,318.78L115.55,320.15L118.95,318.66L120.65,317.95L124.05,318.12L125.75,316.93L127.44,316.7L129.14,314.44L134.24,295.69L135.94,296.65L137.64,293.85L139.34,292.9L141.04,297.42L142.74,312.59L146.14,323.95L147.84,322.59L149.54,324.79L151.23,322.47L152.93,319.67L154.63,320.09L158.03,319.25L159.73,314.85L161.43,312.23L163.13,313.72L164.83,311.1L166.53,296.71L168.23,297.9L169.93,296.82L173.33,302.95L175.02,301.17L178.42,302.6L180.12,301.76L181.82,303.73L183.52,300.57L185.22,298.61L186.92,298.73L188.62,297.12L190.32,297L192.02,295.16L193.72,294.5L197.11,289.33L198.81,289.03L200.51,289.45L202.21,287.19L205.61,287.42L207.31,286.47L209.01,288.26L210.71,285.58L212.41,284.45L214.11,286.12L215.81,288.2L217.51,288.55L219.21,296.29L220.9,296.47L226,306.52L227.7,306.94L231.1,306.28L232.8,309.85L234.5,311.4L236.2,310.27L237.9,310.33L239.6,309.62L241.3,309.08L243,306.58L244.69,305.81L246.39,304.2L248.09,305.93L249.79,305.27L253.19,306.05L254.89,309.85L259.99,316.46L261.69,317.65L263.39,318.36L265.09,318.18L266.78,317.89L268.48,314.97L270.18,314.26L271.88,312.71L273.58,310.75L275.28,310.21L276.98,309.91L278.68,307.06L285.48,290.22L287.18,286.71L288.88,286.18L290.57,280.34L292.27,278.8L293.97,271.18L299.07,256.43L300.77,256.37L304.17,243.99L305.87,241.32L307.57,234.77L309.27,233.82L312.67,233.16L314.36,260.41L316.06,253.21L317.76,254.76L319.46,262.97L321.16,266.07L324.56,266.18L326.26,242.39L327.96,256.31L329.66,258.03L331.36,259.22L333.06,264.7L334.76,266.36L336.45,266.78L341.55,275.35L343.25,278.62L344.95,279.69L346.65,281.89L348.35,282.72L350.05,285.28L351.75,287.31L353.45,291.41L356.85,299.5L358.55,307.47L360.24,307.24L361.94,314.08L368.74,325.68L370.44,325.5L372.14,325.68L373.84,326.99L377.24,334.49L378.94,341.21L380.64,342.87L382.33,340.14L384.03,340.73L385.73,344.78L389.13,342.4L390.83,335.85L395.93,337.04L397.63,345.02L399.33,346.09L401.03,349.6L404.43,354.06L406.12,354.65L407.82,354.42L409.52,348.65L412.92,352.75L414.62,354.77L418.02,357.75L419.72,358.22L421.42,361.73L423.12,363.46L426.52,367.15L428.22,367.74L431.61,367.8L433.31,369.23L435.01,370.72L436.71,370.78L438.41,370.96L440.11,372.56L448.61,374.65L450.31,374.59L455.4,374.7L457.1,375.48L465.6,375.18L467.3,375.36L470.7,373.16L472.4,372.92L479.19,371.31L480.89,369.95L482.59,367.92L484.29,368.99L489.39,359.06L491.09,359L494.49,346.27L496.19,336.51L499.58,326.99L501.28,325.14L502.98,324.43L504.68,320.62L509.78,320.09L511.48,318.96L516.58,319.91L518.28,318.96L519.98,317.95L521.67,315.27L525.07,314.02L526.77,313.72L528.47,312.65L530.17,309.91L535.27,309.79L536.97,308.78L538.67,308.78L540.37,307.06L542.07,310.33L543.77,310.69L545.46,313.84L547.16,315.03L548.86,316.58L550.56,316.1L552.26,316.34L553.96,317.41L559.06,324.25L560.76,324.97L562.46,325.86L564.16,331.27L565.86,332.34L567.56,334.78L569.25,334.01L570.95,337.28L576.05,339.54L577.75,340.61L579.45,340.79L581.15,344.06L582.85,343.77L584.55,345.08L586.25,344.9L587.95,347.81L591.34,352.45L593.04,352.69L594.74,354.12L596.44,354.12L598.14,354.12L599.84,355.25L608.34,359.24L610.04,359.18L611.74,360.66L613.44,359.77L615.13,360.19L616.83,359.12L621.93,358.28L623.63,358.22L627.03,360.49L628.73,362.69L632.13,365.42L633.83,365.19L637.22,365.96L638.92,365.6L642.32,364.11L644.02,364.29L647.42,363.76L649.12,362.51L652.52,361.26L654.22,360.13L655.92,359.35L657.62,359.59L661.01,358.22L662.71,357.81L666.11,356.98" style="vector-effect: non-scaling-stroke; fill: none; stroke: rgb(8, 115, 191); stroke-opacity: 1; stroke-width: 0.5px; opacity: 1;"/></g><g class="points"/><g class="text"/></g><g class="trace scatter tracef695c2" style="stroke-miterlimit: 2;"><g class="fills"><g><path class="js-fill" d="M683.11,380L666.11,380L666.11,356.98L667.81,355.55L669.51,355.31L671.21,359L672.91,354.71L674.61,352.63L676.31,352.27L678.01,350.55L679.71,350.67L681.41,350.73L683.11,344.66" style="fill: rgb(8, 115, 191); fill-opacity: 0.4; stroke-width: 0;"/></g></g><g class="errorbars"/><g class="lines"><path class="js-line" d="M666.11,356.98L667.81,355.55L669.51,355.31L671.21,359L672.91,354.71L674.61,352.63L676.31,352.27L678.01,350.55L679.71,350.67L681.41,350.73L683.11,344.66" style="vector-effect: non-scaling-stroke; fill: none; stroke: rgb(8, 115, 191); stroke-opacity: 1; stroke-width: 2px; opacity: 1;"/></g><g class="points"/><g class="text"/></g><g class="trace scatter traced65fd9" style="stroke-miterlimit: 2; opacity: 1;"><g class="fills"/><g class="errorbars"/><g class="lines"/><g class="points"><path class="point" transform="translate(683.11,344.66)" d="M15,0A15,15 0 1,1 0,-15A15,15 0 0,1 15,0Z" style="opacity: 1; stroke-width: 0px; fill: rgb(8, 115, 191); fill-opacity: 1;"/></g><g class="text"/></g></g></g><g class="overplot"/><path class="xlines-above crisp" style="fill: none; stroke-width: 1px; stroke: rgb(0, 0, 0); stroke-opacity: 0;" d=""/><path class="ylines-above crisp" style="fill: none;" d="M0,0"/><g class="overlines-above"/><g class="xaxislayer-above"><path class="xtick ticks crisp" d="M0,450v-5" transform="translate(106.08,0)" style="stroke: rgb(68, 68, 68); stroke-opacity: 1; stroke-width: 1px;"/><path class="xtick ticks crisp" d="M0,450v-5" transform="translate(209.73,0)" style="stroke: rgb(68, 68, 68); stroke-opacity: 1; stroke-width: 1px;"/><path class="xtick ticks crisp" d="M0,450v-5" transform="translate(309.99,0)" style="stroke: rgb(68, 68, 68); stroke-opacity: 1; stroke-width: 1px;"/><path class="xtick ticks crisp" d="M0,450v-5" transform="translate(413.64,0)" style="stroke: rgb(68, 68, 68); stroke-opacity: 1; stroke-width: 1px;"/><path class="xtick ticks crisp" d="M0,450v-5" transform="translate(517.3,0)" style="stroke: rgb(68, 68, 68); stroke-opacity: 1; stroke-width: 1px;"/><path class="xtick ticks crisp" d="M0,450v-5" transform="translate(622.65,0)" style="stroke: rgb(68, 68, 68); stroke-opacity: 1; stroke-width: 1px;"/><path class="xtick ticks crisp" d="M0,450v-5" transform="translate(726.31,0)" style="stroke: rgb(68, 68, 68); stroke-opacity: 1; stroke-width: 1px;"/><g class="xtick"><text text-anchor="middle" x="0" y="469" transform="translate(106.08,0)" style="font-family: 'Open Sans', verdana, arial, sans-serif; font-size: 18px; fill: rgb(42, 63, 95); fill-opacity: 1; white-space: pre;">01/11</text></g><g class="xtick"><text text-anchor="middle" x="0" y="469" transform="translate(209.73,0)" style="font-family: 'Open Sans', verdana, arial, sans-serif; font-size: 18px; fill: rgb(42, 63, 95); fill-opacity: 1; white-space: pre;">01/01</text></g><g class="xtick"><text text-anchor="middle" x="0" y="469" transform="translate(309.99,0)" style="font-family: 'Open Sans', verdana, arial, sans-serif; font-size: 18px; fill: rgb(42, 63, 95); fill-opacity: 1; white-space: pre;">01/03</text></g><g class="xtick"><text text-anchor="middle" x="0" y="469" transform="translate(413.64,0)" style="font-family: 'Open Sans', verdana, arial, sans-serif; font-size: 18px; fill: rgb(42, 63, 95); fill-opacity: 1; white-space: pre;">01/05</text></g><g class="xtick"><text text-anchor="middle" x="0" y="469" transform="translate(517.3,0)" style="font-family: 'Open Sans', verdana, arial, sans-serif; font-size: 18px; fill: rgb(42, 63, 95); fill-opacity: 1; white-space: pre;">01/07</text></g><g class="xtick"><text text-anchor="middle" x="0" y="469" transform="translate(622.65,0)" style="font-family: 'Open Sans', verdana, arial, sans-serif; font-size: 18px; fill: rgb(42, 63, 95); fill-opacity: 1; white-space: pre;">01/09</text></g><g class="xtick"><text text-anchor="middle" x="0" y="469" transform="translate(726.31,0)" style="font-family: 'Open Sans', verdana, arial, sans-serif; font-size: 18px; fill: rgb(42, 63, 95); fill-opacity: 1; white-space: pre;">01/11</text></g></g><g class="yaxislayer-above"/><g class="overaxes-above"/></g></g><g class="polarlayer"/><g class="ternarylayer"/><g class="geolayer"/><g class="funnelarealayer"/><g class="pielayer"/><g class="treemaplayer"/><g class="sunburstlayer"/><g class="glimages"/><defs id="topdefs-8f2f6e"><g class="clips"/></defs><g class="layer-above"><g class="imagelayer"/><g class="shapelayer"><path data-index="0" fill-rule="evenodd" d="M-904.99,430.46L337.18,430.46" clip-path="url('#clip8f2f6exy')" style="opacity: 1; stroke: rgb(255, 0, 0); stroke-opacity: 1; fill: rgb(0, 0, 0); fill-opacity: 0; stroke-dasharray: 3px, 3px; stroke-width: 1.5px;"/></g></g><g class="infolayer"><g class="g-gtitle"><text class="gtitle" x="375" y="25" text-anchor="middle" dy="0.7em" style="font-family: 'Open Sans', verdana, arial, sans-serif; font-size: 50px; fill: rgb(42, 63, 95); opacity: 1; font-weight: normal; white-space: pre;"><tspan style="font-weight:bold">Ain (01)</tspan></text></g><g class="g-xtitle"/><g class="annotation" data-index="0" style="opacity: 1;"><g class="annotation-text-g" transform="rotate(0,691.11,354.66)"><g class="cursor-pointer" transform="translate(648, 319)"><rect class="bg" x="0.5" y="0.5" width="86" height="71" style="stroke-width: 1px; stroke: rgb(0, 0, 0); stroke-opacity: 0; fill: rgb(255, 255, 255); fill-opacity: 0.6;"/><text class="annotation-text" text-anchor="middle" x="43.53125" y="55.5" style="font-family: 'Open Sans', verdana, arial, sans-serif; font-size: 50px; fill: rgb(8, 115, 191); fill-opacity: 1; white-space: pre;"> <tspan style="font-weight:bold">90 </tspan></text></g></g><g class="annotation-arrow-g" style="opacity: 1;"><path d="M719.51,390.16L731.11,404.66" style="stroke-width: 1px; stroke: rgb(8, 115, 191); stroke-opacity: 1; stroke-dasharray: 0px, 0px, 18.569px, 18.569px;"/></g></g></g></svg>