<svg class="main-svg" xmlns="http://www.w3.org/2000/svg" xmlns:xlink="http://www.w3.org/1999/xlink" width="1125" height="750" style="" viewBox="0 0 750 500"><rect x="0" y="0" width="750" height="500" style="fill: rgb(0, 0, 0); fill-opacity: 0;"/><defs id="defs-f7a874"><g class="clips"><clipPath id="clipf7a874xyplot" class="plotclip"><rect width="700" height="380"/></clipPath><clipPath class="axesclip" id="clipf7a874x"><rect x="50" y="0" width="700" height="500"/></clipPath><clipPath class="axesclip" id="clipf7a874y"><rect x="0" y="70" width="750" height="380"/></clipPath><clipPath class="axesclip" id="clipf7a874xy"><rect x="50" y="70" width="700" height="380"/></clipPath></g><g class="gradients"/></defs><g class="bglayer"><rect class="bg" x="50" y="70" width="700" height="380" style="fill: rgb(0, 0, 0); fill-opacity: 0; stroke-width: 0;"/></g><g class="layer-below"><g class="imagelayer"/><g class="shapelayer"/></g><g class="cartesianlayer"><g class="subplot xy"><g class="layer-subplot"><g class="shapelayer"/><g class="imagelayer"/></g><g class="gridlayer"><g class="x"><path class="xgrid crisp" transform="translate(106.07,0)" d="M0,70v380" style="stroke: rgb(255, 255, 255); stroke-opacity: 1; stroke-width: 1px;"/><path class="xgrid crisp" transform="translate(209.71,0)" d="M0,70v380" style="stroke: rgb(255, 255, 255); stroke-opacity: 1; stroke-width: 1px;"/><path class="xgrid crisp" transform="translate(309.95,0)" d="M0,70v380" style="stroke: rgb(255, 255, 255); stroke-opacity: 1; stroke-width: 1px;"/><path class="xgrid crisp" transform="translate(413.59,0)" d="M0,70v380" style="stroke: rgb(255, 255, 255); stroke-opacity: 1; stroke-width: 1px;"/><path class="xgrid crisp" transform="translate(517.23,0)" d="M0,70v380" style="stroke: rgb(255, 255, 255); stroke-opacity: 1; stroke-width: 1px;"/><path class="xgrid crisp" transform="translate(622.57,0)" d="M0,70v380" style="stroke: rgb(255, 255, 255); stroke-opacity: 1; stroke-width: 1px;"/><path class="xgrid crisp" transform="translate(726.21,0)" d="M0,70v380" style="stroke: rgb(255, 255, 255); stroke-opacity: 1; stroke-width: 1px;"/></g><g class="y"/></g><g class="zerolinelayer"/><path class="xlines-below"/><path class="ylines-below"/><g class="overlines-below"/><g class="xaxislayer-below"/><g class="yaxislayer-below"/><g class="overaxes-below"/><g class="plot" transform="translate(50, 70)" clip-path="url('#clipf7a874xyplot')"><g class="scatterlayer mlayer"><g class="trace scatter tracec0891a" style="stroke-miterlimit: 2;"><g class="fills"><g><path class="js-fill" d="M671.12,380L-231.07,380L-231.07,376.34L-210.68,377.95L-208.98,378.27L-141.02,377.21L-139.32,377.19L-130.83,377.69L-129.13,377.66L-115.53,375.7L-113.83,375.44L-100.24,376.11L-98.54,375.7L-91.75,374.74L-90.05,373.71L-79.85,367.91L-78.16,364.99L-73.06,357.83L-71.36,354.72L-66.26,351.84L-64.56,348.99L-59.47,343.49L-57.77,342.22L-56.07,342.02L-54.37,337.54L-47.57,323.98L-45.87,323.16L-44.17,323.46L-42.48,320.09L-37.38,307.61L-35.68,306.01L-27.18,299.65L-25.49,296.65L-23.79,294.74L-22.09,294.81L-20.39,294.72L-18.69,291.28L-16.99,288.56L-15.29,290.07L-13.59,290.18L-11.89,289.16L-8.5,290.55L-6.8,294.2L-5.1,297.94L-3.4,297.1L-1.7,297.84L0,295.15L3.4,294.29L5.1,284.95L10.19,253.82L11.89,240.85L13.59,236.93L15.29,236.02L23.79,154.77L25.49,149.4L27.18,148.6L28.88,128.82L37.38,42.54L39.08,41.14L42.48,12.11L44.17,10.49L45.87,13.69L47.57,12.13L49.27,11.01L50.97,10.88L54.37,1.99L56.07,0L57.77,5.8L59.47,15.77L61.17,25.59L62.86,26.6L64.56,54.61L66.26,95.16L67.96,153.82L69.66,178.32L71.36,206.33L73.06,215.95L74.76,217.25L76.46,243.66L78.16,257.39L79.85,246.47L83.25,279.19L84.95,283.97L86.65,284.99L88.35,299.76L90.05,308.09L91.75,312.05L93.45,314.68L95.15,315.27L108.74,313.84L110.44,313.49L113.83,311.42L115.53,310.99L120.63,309.15L122.33,309.69L129.13,299.78L130.83,293.27L134.22,282.76L135.92,283.06L137.62,284.17L139.32,283.39L141.02,288.95L142.72,307.2L146.12,317.5L147.82,318.6L149.51,315.72L151.21,316.85L152.91,314.88L154.61,314.97L158.01,314.6L159.71,307.5L163.11,305.92L164.81,303.39L166.5,290.53L168.2,290.83L169.9,290.83L171.6,296.15L173.3,298.25L175,298.51L176.7,299L178.4,297.77L181.8,296.69L183.5,293.96L190.29,289.64L191.99,289.66L193.69,289.7L195.39,288.15L197.09,289.06L198.79,289.03L200.49,289.03L202.18,290.18L203.88,291.15L205.58,291.17L207.28,291.76L208.98,290.76L210.68,289.53L212.38,289.77L214.08,289.53L215.78,287.5L217.48,287.82L219.17,290.42L220.87,292.82L222.57,296.56L224.27,297.88L225.97,300.39L227.67,302.62L229.37,302.31L231.07,303.98L232.77,303.61L234.47,301.17L236.17,300.26L239.56,296.17L241.26,295.87L244.66,291.65L246.36,291.15L248.06,290.46L249.76,291.46L254.85,292.54L256.55,294.12L258.25,295.37L259.95,294.59L261.65,294.55L263.35,293.34L265.05,293.23L266.75,291.78L268.45,289.66L270.15,285.68L271.84,282.48L273.54,276.88L275.24,274.2L276.94,273.18L282.04,253.54L283.74,247.72L287.14,235.72L288.83,234.79L293.93,207.61L295.63,199.54L297.33,194.37L299.03,192.1L300.73,192.25L302.43,184.14L304.13,179.86L305.83,179.16L310.92,175.25L312.62,175.51L314.32,212.19L316.02,204.73L317.72,205.51L319.42,210.27L322.82,218.2L324.51,218.18L326.21,190.35L327.91,206.93L331.31,219.41L333.01,222.83L334.71,224.22L336.41,224.32L339.81,233.56L341.5,235.61L344.9,241.54L346.6,243.94L348.3,244.85L350,248.61L351.7,250.49L353.4,255.64L355.1,259.12L356.8,264.9L358.5,274.52L360.19,274.98L363.59,289.18L365.29,293.53L368.69,301.21L370.39,301.64L372.09,301.71L373.79,305.9L377.18,310.12L378.88,319.83L380.58,322.38L382.28,319.72L389.08,320.48L390.78,314.04L392.48,317.02L394.17,317.19L395.87,317.93L397.57,331.68L399.27,330.82L400.97,332.16L402.67,332.81L404.37,334.47L406.07,336.64L407.77,336.74L409.47,330.84L411.17,337.22L414.56,344.14L416.26,346.43L419.66,347.86L421.36,350.63L426.46,356.62L428.16,358.48L431.55,359.95L433.25,362.57L434.95,365.03L436.65,365.81L438.35,367.15L440.05,367.52L445.15,369.19L446.84,369.03L451.94,370.59L453.64,370.72L467.23,369.55L468.93,369.42L472.33,367.93L474.03,366.63L477.43,364.54L479.13,364.25L480.83,360.88L482.52,355.73L484.22,356.64L485.92,347.88L489.32,335.43L491.02,333.52L496.12,284.51L497.82,278.67L499.51,269.5L501.21,265.48L502.91,264.68L504.61,257.54L506.31,253.72L508.01,252.89L509.71,249.58L511.41,250.25L514.81,249.71L516.5,253L518.2,255.86L519.9,256.44L521.6,258.24L523.3,257.05L525,258.17L526.7,257.8L530.1,252.29L531.8,252.63L535.19,253.54L536.89,252.7L538.59,251.44L540.29,255.34L541.99,258.43L543.69,263.21L547.09,267.86L548.79,269.37L552.18,273.96L553.88,278.37L555.58,280.12L557.28,283.52L560.68,292.19L562.38,292.8L564.08,299.39L565.78,302.27L567.48,305.45L569.17,306.05L570.87,308.04L572.57,308.11L574.27,308.69L575.97,313.84L582.77,330L584.47,332.64L586.17,333.26L587.86,336.98L592.96,344.55L594.66,345.63L598.06,346.89L599.76,348.9L603.16,351.62L604.85,352.14L606.55,354.11L608.25,354.87L618.45,355.97L620.15,356.38L621.84,356.36L623.54,357.85L626.94,358.61L628.64,359.09L635.44,359.97L637.14,359.63L638.83,359.76L640.53,358.07L649.03,358.5L650.73,358.29L652.43,359.58L654.13,358.7L662.62,358.5L664.32,358.31L667.72,357.16L669.42,356.45L671.12,360.06" style="fill: rgb(8, 115, 191); fill-opacity: 0.2; stroke-width: 0;"/></g></g><g class="errorbars"/><g class="lines"><path class="js-line" d="M-231.07,376.34L-210.68,377.95L-208.98,378.27L-141.02,377.21L-139.32,377.19L-130.83,377.69L-129.13,377.66L-115.53,375.7L-113.83,375.44L-100.24,376.11L-98.54,375.7L-91.75,374.74L-90.05,373.71L-79.85,367.91L-78.16,364.99L-73.06,357.83L-71.36,354.72L-66.26,351.84L-64.56,348.99L-59.47,343.49L-57.77,342.22L-56.07,342.02L-54.37,337.54L-47.57,323.98L-45.87,323.16L-44.17,323.46L-42.48,320.09L-37.38,307.61L-35.68,306.01L-27.18,299.65L-25.49,296.65L-23.79,294.74L-22.09,294.81L-20.39,294.72L-18.69,291.28L-16.99,288.56L-15.29,290.07L-13.59,290.18L-11.89,289.16L-8.5,290.55L-6.8,294.2L-5.1,297.94L-3.4,297.1L-1.7,297.84L0,295.15L3.4,294.29L5.1,284.95L10.19,253.82L11.89,240.85L13.59,236.93L15.29,236.02L23.79,154.77L25.49,149.4L27.18,148.6L28.88,128.82L37.38,42.54L39.08,41.14L42.48,12.11L44.17,10.49L45.87,13.69L47.57,12.13L49.27,11.01L50.97,10.88L54.37,1.99L56.07,0L57.77,5.8L59.47,15.77L61.17,25.59L62.86,26.6L64.56,54.61L66.26,95.16L67.96,153.82L69.66,178.32L71.36,206.33L73.06,215.95L74.76,217.25L76.46,243.66L78.16,257.39L79.85,246.47L83.25,279.19L84.95,283.97L86.65,284.99L88.35,299.76L90.05,308.09L91.75,312.05L93.45,314.68L95.15,315.27L108.74,313.84L110.44,313.49L113.83,311.42L115.53,310.99L120.63,309.15L122.33,309.69L129.13,299.78L130.83,293.27L134.22,282.76L135.92,283.06L137.62,284.17L139.32,283.39L141.02,288.95L142.72,307.2L146.12,317.5L147.82,318.6L149.51,315.72L151.21,316.85L152.91,314.88L154.61,314.97L158.01,314.6L159.71,307.5L163.11,305.92L164.81,303.39L166.5,290.53L168.2,290.83L169.9,290.83L171.6,296.15L173.3,298.25L175,298.51L176.7,299L178.4,297.77L181.8,296.69L183.5,293.96L190.29,289.64L191.99,289.66L193.69,289.7L195.39,288.15L197.09,289.06L198.79,289.03L200.49,289.03L202.18,290.18L203.88,291.15L205.58,291.17L207.28,291.76L208.98,290.76L210.68,289.53L212.38,289.77L214.08,289.53L215.78,287.5L217.48,287.82L219.17,290.42L220.87,292.82L222.57,296.56L224.27,297.88L225.97,300.39L227.67,302.62L229.37,302.31L231.07,303.98L232.77,303.61L234.47,301.17L236.17,300.26L239.56,296.17L241.26,295.87L244.66,291.65L246.36,291.15L248.06,290.46L249.76,291.46L254.85,292.54L256.55,294.12L258.25,295.37L259.95,294.59L261.65,294.55L263.35,293.34L265.05,293.23L266.75,291.78L268.45,289.66L270.15,285.68L271.84,282.48L273.54,276.88L275.24,274.2L276.94,273.18L282.04,253.54L283.74,247.72L287.14,235.72L288.83,234.79L293.93,207.61L295.63,199.54L297.33,194.37L299.03,192.1L300.73,192.25L302.43,184.14L304.13,179.86L305.83,179.16L310.92,175.25L312.62,175.51L314.32,212.19L316.02,204.73L317.72,205.51L319.42,210.27L322.82,218.2L324.51,218.18L326.21,190.35L327.91,206.93L331.31,219.41L333.01,222.83L334.71,224.22L336.41,224.32L339.81,233.56L341.5,235.61L344.9,241.54L346.6,243.94L348.3,244.85L350,248.61L351.7,250.49L353.4,255.64L355.1,259.12L356.8,264.9L358.5,274.52L360.19,274.98L363.59,289.18L365.29,293.53L368.69,301.21L370.39,301.64L372.09,301.71L373.79,305.9L377.18,310.12L378.88,319.83L380.58,322.38L382.28,319.72L389.08,320.48L390.78,314.04L392.48,317.02L394.17,317.19L395.87,317.93L397.57,331.68L399.27,330.82L400.97,332.16L402.67,332.81L404.37,334.47L406.07,336.64L407.77,336.74L409.47,330.84L411.17,337.22L414.56,344.14L416.26,346.43L419.66,347.86L421.36,350.63L426.46,356.62L428.16,358.48L431.55,359.95L433.25,362.57L434.95,365.03L436.65,365.81L438.35,367.15L440.05,367.52L445.15,369.19L446.84,369.03L451.94,370.59L453.64,370.72L467.23,369.55L468.93,369.42L472.33,367.93L474.03,366.63L477.43,364.54L479.13,364.25L480.83,360.88L482.52,355.73L484.22,356.64L485.92,347.88L489.32,335.43L491.02,333.52L496.12,284.51L497.82,278.67L499.51,269.5L501.21,265.48L502.91,264.68L504.61,257.54L506.31,253.72L508.01,252.89L509.71,249.58L511.41,250.25L514.81,249.71L516.5,253L518.2,255.86L519.9,256.44L521.6,258.24L523.3,257.05L525,258.17L526.7,257.8L530.1,252.29L531.8,252.63L535.19,253.54L536.89,252.7L538.59,251.44L540.29,255.34L541.99,258.43L543.69,263.21L547.09,267.86L548.79,269.37L552.18,273.96L553.88,278.37L555.58,280.12L557.28,283.52L560.68,292.19L562.38,292.8L564.08,299.39L565.78,302.27L567.48,305.45L569.17,306.05L570.87,308.04L572.57,308.11L574.27,308.69L575.97,313.84L582.77,330L584.47,332.64L586.17,333.26L587.86,336.98L592.96,344.55L594.66,345.63L598.06,346.89L599.76,348.9L603.16,351.62L604.85,352.14L606.55,354.11L608.25,354.87L618.45,355.97L620.15,356.38L621.84,356.36L623.54,357.85L626.94,358.61L628.64,359.09L635.44,359.97L637.14,359.63L638.83,359.76L640.53,358.07L649.03,358.5L650.73,358.29L652.43,359.58L654.13,358.7L662.62,358.5L664.32,358.31L667.72,357.16L669.42,356.45L671.12,360.06" style="vector-effect: non-scaling-stroke; fill: none; stroke: rgb(8, 115, 191); stroke-opacity: 1; stroke-width: 0.5px; opacity: 1;"/></g><g class="points"/><g class="text"/></g><g class="trace scatter trace1372c3" style="stroke-miterlimit: 2;"><g class="fills"><g><path class="js-fill" d="M688.11,380L671.12,380L671.12,360.06L672.82,356.23L674.51,354.48L681.31,349.89L683.01,341.72L684.71,341.07L686.41,337.91L688.11,340.92" style="fill: rgb(8, 115, 191); fill-opacity: 0.4; stroke-width: 0;"/></g></g><g class="errorbars"/><g class="lines"><path class="js-line" d="M671.12,360.06L672.82,356.23L674.51,354.48L681.31,349.89L683.01,341.72L684.71,341.07L686.41,337.91L688.11,340.92" style="vector-effect: non-scaling-stroke; fill: none; stroke: rgb(8, 115, 191); stroke-opacity: 1; stroke-width: 2px; opacity: 1;"/></g><g class="points"/><g class="text"/></g><g class="trace scatter tracee774c8" style="stroke-miterlimit: 2; opacity: 1;"><g class="fills"/><g class="errorbars"/><g class="lines"/><g class="points"><path class="point" transform="translate(688.11,340.92)" d="M15,0A15,15 0 1,1 0,-15A15,15 0 0,1 15,0Z" style="opacity: 1; stroke-width: 0px; fill: rgb(8, 115, 191); fill-opacity: 1;"/></g><g class="text"/></g></g></g><g class="overplot"/><path class="xlines-above crisp" style="fill: none; stroke-width: 1px; stroke: rgb(0, 0, 0); stroke-opacity: 0;" d=""/><path class="ylines-above crisp" style="fill: none;" d="M0,0"/><g class="overlines-above"/><g class="xaxislayer-above"><path class="xtick ticks crisp" d="M0,450v-5" transform="translate(106.07,0)" style="stroke: rgb(68, 68, 68); stroke-opacity: 1; stroke-width: 1px;"/><path class="xtick ticks crisp" d="M0,450v-5" transform="translate(209.71,0)" style="stroke: rgb(68, 68, 68); stroke-opacity: 1; stroke-width: 1px;"/><path class="xtick ticks crisp" d="M0,450v-5" transform="translate(309.95,0)" style="stroke: rgb(68, 68, 68); stroke-opacity: 1; stroke-width: 1px;"/><path class="xtick ticks crisp" d="M0,450v-5" transform="translate(413.59,0)" style="stroke: rgb(68, 68, 68); stroke-opacity: 1; stroke-width: 1px;"/><path class="xtick ticks crisp" d="M0,450v-5" transform="translate(517.23,0)" style="stroke: rgb(68, 68, 68); stroke-opacity: 1; stroke-width: 1px;"/><path class="xtick ticks crisp" d="M0,450v-5" transform="translate(622.57,0)" style="stroke: rgb(68, 68, 68); stroke-opacity: 1; stroke-width: 1px;"/><path class="xtick ticks crisp" d="M0,450v-5" transform="translate(726.21,0)" style="stroke: rgb(68, 68, 68); stroke-opacity: 1; stroke-width: 1px;"/><g class="xtick"><text text-anchor="middle" x="0" y="469" transform="translate(106.07,0)" style="font-family: 'Open Sans', verdana, arial, sans-serif; font-size: 18px; fill: rgb(42, 63, 95); fill-opacity: 1; white-space: pre;">01/11</text></g><g class="xtick"><text text-anchor="middle" x="0" y="469" transform="translate(209.71,0)" style="font-family: 'Open Sans', verdana, arial, sans-serif; font-size: 18px; fill: rgb(42, 63, 95); fill-opacity: 1; white-space: pre;">01/01</text></g><g class="xtick"><text text-anchor="middle" x="0" y="469" transform="translate(309.95,0)" style="font-family: 'Open Sans', verdana, arial, sans-serif; font-size: 18px; fill: rgb(42, 63, 95); fill-opacity: 1; white-space: pre;">01/03</text></g><g class="xtick"><text text-anchor="middle" x="0" y="469" transform="translate(413.59,0)" style="font-family: 'Open Sans', verdana, arial, sans-serif; font-size: 18px; fill: rgb(42, 63, 95); fill-opacity: 1; white-space: pre;">01/05</text></g><g class="xtick"><text text-anchor="middle" x="0" y="469" transform="translate(517.23,0)" style="font-family: 'Open Sans', verdana, arial, sans-serif; font-size: 18px; fill: rgb(42, 63, 95); fill-opacity: 1; white-space: pre;">01/07</text></g><g class="xtick"><text text-anchor="middle" x="0" y="469" transform="translate(622.57,0)" style="font-family: 'Open Sans', verdana, arial, sans-serif; font-size: 18px; fill: rgb(42, 63, 95); fill-opacity: 1; white-space: pre;">01/09</text></g><g class="xtick"><text text-anchor="middle" x="0" y="469" transform="translate(726.21,0)" style="font-family: 'Open Sans', verdana, arial, sans-serif; font-size: 18px; fill: rgb(42, 63, 95); fill-opacity: 1; white-space: pre;">01/11</text></g></g><g class="yaxislayer-above"/><g class="overaxes-above"/></g></g><g class="polarlayer"/><g class="ternarylayer"/><g class="geolayer"/><g class="funnelarealayer"/><g class="pielayer"/><g class="treemaplayer"/><g class="sunburstlayer"/><g class="glimages"/><defs id="topdefs-f7a874"><g class="clips"/></defs><g class="layer-above"><g class="imagelayer"/><g class="shapelayer"><path data-index="0" fill-rule="evenodd" d="M-904.85,429.71L337.14,429.71" clip-path="url('#clipf7a874xy')" style="opacity: 1; stroke: rgb(255, 0, 0); stroke-opacity: 1; fill: rgb(0, 0, 0); fill-opacity: 0; stroke-dasharray: 3px, 3px; stroke-width: 1.5px;"/></g></g><g class="infolayer"><g class="g-gtitle"><text class="gtitle" x="375" y="25" text-anchor="middle" dy="0.7em" style="font-family: 'Open Sans', verdana, arial, sans-serif; font-size: 50px; fill: rgb(42, 63, 95); opacity: 1; font-weight: normal; white-space: pre;"><tspan style="font-weight:bold">Rhône (69)</tspan></text></g><g class="g-xtitle"/><g class="annotation" data-index="0" style="opacity: 1;"><g class="annotation-text-g" transform="rotate(0,696.11,350.92)"><g class="cursor-pointer" transform="translate(653, 315)"><rect class="bg" x="0.5" y="0.5" width="86" height="71" style="stroke-width: 1px; stroke: rgb(0, 0, 0); stroke-opacity: 0; fill: rgb(255, 255, 255); fill-opacity: 0.6;"/><text class="annotation-text" text-anchor="middle" x="43.53125" y="55.5" style="font-family: 'Open Sans', verdana, arial, sans-serif; font-size: 50px; fill: rgb(8, 115, 191); fill-opacity: 1; white-space: pre;"> <tspan style="font-weight:bold">96 </tspan></text></g></g><g class="annotation-arrow-g" style="opacity: 1;"><path d="M724.51,386.42L736.11,400.92" style="stroke-width: 1px; stroke: rgb(8, 115, 191); stroke-opacity: 1; stroke-dasharray: 0px, 0px, 18.569px, 18.569px;"/></g></g></g></svg>