<svg class="main-svg" xmlns="http://www.w3.org/2000/svg" xmlns:xlink="http://www.w3.org/1999/xlink" width="1125" height="750" style="" viewBox="0 0 750 500"><rect x="0" y="0" width="750" height="500" style="fill: rgb(0, 0, 0); fill-opacity: 0;"/><defs id="defs-96968e"><g class="clips"><clipPath id="clip96968exyplot" class="plotclip"><rect width="700" height="380"/></clipPath><clipPath class="axesclip" id="clip96968ex"><rect x="50" y="0" width="700" height="500"/></clipPath><clipPath class="axesclip" id="clip96968ey"><rect x="0" y="70" width="750" height="380"/></clipPath><clipPath class="axesclip" id="clip96968exy"><rect x="50" y="70" width="700" height="380"/></clipPath></g><g class="gradients"/></defs><g class="bglayer"><rect class="bg" x="50" y="70" width="700" height="380" style="fill: rgb(0, 0, 0); fill-opacity: 0; stroke-width: 0;"/></g><g class="layer-below"><g class="imagelayer"/><g class="shapelayer"/></g><g class="cartesianlayer"><g class="subplot xy"><g class="layer-subplot"><g class="shapelayer"/><g class="imagelayer"/></g><g class="gridlayer"><g class="x"><path class="xgrid crisp" transform="translate(52.24,0)" d="M0,70v380" style="stroke: rgb(255, 255, 255); stroke-opacity: 1; stroke-width: 1px;"/><path class="xgrid crisp" transform="translate(155.11,0)" d="M0,70v380" style="stroke: rgb(255, 255, 255); stroke-opacity: 1; stroke-width: 1px;"/><path class="xgrid crisp" transform="translate(255.75,0)" d="M0,70v380" style="stroke: rgb(255, 255, 255); stroke-opacity: 1; stroke-width: 1px;"/><path class="xgrid crisp" transform="translate(357.51,0)" d="M0,70v380" style="stroke: rgb(255, 255, 255); stroke-opacity: 1; stroke-width: 1px;"/><path class="xgrid crisp" transform="translate(460.38,0)" d="M0,70v380" style="stroke: rgb(255, 255, 255); stroke-opacity: 1; stroke-width: 1px;"/><path class="xgrid crisp" transform="translate(563.26,0)" d="M0,70v380" style="stroke: rgb(255, 255, 255); stroke-opacity: 1; stroke-width: 1px;"/><path class="xgrid crisp" transform="translate(663.9,0)" d="M0,70v380" style="stroke: rgb(255, 255, 255); stroke-opacity: 1; stroke-width: 1px;"/></g><g class="y"/></g><g class="zerolinelayer"/><path class="xlines-below"/><path class="ylines-below"/><g class="overlines-below"/><g class="xaxislayer-below"/><g class="yaxislayer-below"/><g class="overaxes-below"/><g class="plot" transform="translate(50, 70)" clip-path="url('#clip96968exyplot')"><g class="scatterlayer mlayer"><g class="trace scatter trace937212" style="stroke-miterlimit: 2;"><g class="fills"><g><path class="js-fill" d="M680.99,380L-152.08,380L-152.08,379.81L-121.88,379.98L-120.77,379.98L-55.91,378.78L-54.79,378.42L-34.66,376.9L-33.55,377.01L-26.84,375.57L-25.72,374.7L-23.48,373.63L-22.36,373.5L-20.13,373.01L-19.01,372.37L-16.77,372.77L-15.65,372.39L-11.18,372.05L-10.06,371.43L-5.59,371.62L-4.47,370.53L4.47,368.78L5.59,367.37L6.71,366.32L7.83,363.6L10.06,363.24L11.18,361.55L13.42,359.01L14.54,357.55L17.89,357.45L19.01,355.78L21.25,350.82L22.36,347.93L23.48,345.26L24.6,345.11L25.72,344.85L26.84,342.37L30.19,341.35L31.31,342.52L33.55,342.74L34.66,343.59L35.78,342.48L36.9,344.55L38.02,345.13L39.14,344.66L41.37,344.6L42.49,347.76L46.96,360.31L48.08,360.76L49.2,360.95L50.32,363.22L51.44,365.8L52.56,364.74L54.79,369.1L55.91,369.35L58.15,369.87L59.27,370.66L61.5,370.94L62.62,371.3L64.86,371.34L65.97,370.36L71.57,371.64L72.68,371.66L73.8,372.92L74.92,372.65L80.51,372.2L81.63,371.92L83.87,370.81L84.98,370.66L87.22,369.99L88.34,369.93L89.46,368.67L90.58,369.2L91.69,368.97L92.81,367.37L93.93,369.33L95.05,369.2L98.4,368.33L99.52,367.04L101.76,367.49L102.88,367.09L105.11,366.32L106.23,365.55L108.47,366.66L109.58,364.93L111.82,365.04L112.94,364.61L115.18,363.41L116.29,360.31L118.53,359.09L119.65,359.05L123,356.46L124.12,356.98L126.36,356.38L127.48,356.53L129.71,357.32L130.83,355.91L133.07,355.86L134.19,355.52L137.54,354.82L138.66,355.35L142.01,357.68L143.13,357.98L145.37,360.37L146.49,362.68L148.72,365.01L149.84,365.04L150.96,365.08L152.08,366.75L155.43,367.64L156.55,368.56L162.14,369.91L163.26,369.5L168.85,369.33L169.97,368.56L172.2,368.39L173.32,367.66L176.68,367.47L177.8,368.5L181.15,367.92L182.27,368.11L188.98,365.85L190.1,365.72L191.21,365.31L192.33,363.58L196.81,359.46L197.92,359.48L200.16,355.61L201.28,354.88L204.63,353.41L205.75,353.19L206.87,358.96L207.99,357.49L211.34,357.66L212.46,357.83L213.58,358.07L214.7,353.88L215.81,356.65L216.93,357.38L218.05,358.58L219.17,358.51L221.41,359.05L222.52,358.99L224.76,360.95L225.88,360.37L228.12,361.74L229.23,361.68L231.47,362.23L232.59,362.41L235.94,364.74L237.06,364.84L239.3,365.89L240.42,366.85L243.77,368.93L244.89,368.84L249.36,372.77L250.48,373.2L252.72,372.88L253.83,373.39L256.07,373.29L257.19,372.03L260.54,372.47L261.66,374.12L268.37,373.69L269.49,372.5L277.32,375.06L278.43,375.85L281.79,377.01L282.91,377.09L288.5,377.8L289.62,378.01L300.8,378.38L301.92,378.57L309.74,378.52L310.86,378.25L316.45,377.11L317.57,376.3L318.69,376.71L319.81,375.36L322.04,373.5L323.16,373.5L327.64,364.91L328.75,362.92L329.87,361.29L330.99,360.99L333.23,356.98L334.35,355.46L336.58,353.85L337.7,354.47L339.94,354.09L341.05,353.88L343.29,352.7L344.41,352.66L347.76,353.66L348.88,354.3L350,355.99L351.12,356.01L352.24,357.17L353.35,357.15L354.47,357.23L355.59,358.56L357.83,359.26L358.95,361.06L367.89,367.13L369.01,367L371.25,368.07L372.36,369.35L376.84,371.34L377.96,371.19L379.07,371.98L380.19,371.73L386.9,374.21L388.02,375.38L392.49,376.24L393.61,376.39L404.79,376.52L405.91,376.88L409.27,377.43L410.38,377.65L415.97,377.99L417.09,377.95L422.68,376.81L423.8,376.81L429.39,376.09L430.51,375.77L440.58,375.43L441.69,376.19L445.05,374.59L446.17,374.33L448.4,374.04L449.52,372.45L452.88,374.16L453.99,373.82L457.35,373.67L458.47,373.24L460.7,371.6L461.82,370.7L464.06,370.14L465.18,368.84L470.77,362.92L471.88,362.9L474.12,359.86L475.24,359.46L478.59,355.33L479.71,355.12L480.83,354.45L481.95,352.87L484.19,351.65L485.3,351.1L487.54,350.99L488.66,350.37L489.78,350.26L490.89,348.81L495.37,349.02L496.49,348.32L499.84,343.14L500.96,340.41L502.08,342.2L503.19,342.05L508.79,304.19L509.9,303.42L511.02,301.86L512.14,284.7L515.5,248.82L516.61,239.37L517.73,225.39L518.85,223.87L521.09,201.17L522.2,190.48L525.56,156.87L526.68,152.09L533.39,43.89L534.5,40.34L536.74,4.15L537.86,0.06L538.98,0L540.1,1.54L542.33,12.19L543.45,31.43L549.04,106.98L550.16,109.74L553.51,176.31L554.63,194.93L556.87,217.97L557.99,222.1L560.22,258.04L561.34,268.81L564.7,292.39L565.81,293.23L568.05,311.08L569.17,316.27L571.41,323.24L572.52,324.65L573.64,325.4L574.76,328.33L580.35,335.83L581.47,335.62L584.82,334.53L585.94,332.84L588.18,329.97L589.3,330.1L594.89,315.27L596.01,314.33L597.12,314.24L598.24,308.45L603.83,291.28L604.95,290.72L607.19,279.67L608.31,276.61L609.42,274.33L610.54,274.24L611.66,276.08L612.78,276.14L613.9,278.47L615.02,277.94L617.25,277.51L618.37,273.15L619.49,269.6L620.61,268.64L621.73,265.9L622.84,266.31L623.96,267.85L625.08,271.23L627.32,279.69L628.43,280.78L629.55,305.65L630.67,300L634.03,311.1L635.14,313.02L636.26,314.18L637.38,305L638.5,320.59L639.62,324.97L641.85,332.6L642.97,335.51L644.09,335.43L645.21,338.95L650.8,351.87L651.92,352.17L655.27,359.26L656.39,360.91L657.51,362.02L658.63,362.04L659.74,361.89L660.86,362.64L663.1,363.86L664.22,364.24L667.57,365.01L668.69,365.91L670.93,366.6L672.04,368.37L673.16,367.49L674.28,367.71L677.64,367.56L678.75,366.68L679.87,364.8L680.99,365.42" style="fill: rgb(8, 115, 191); fill-opacity: 0.2; stroke-width: 0;"/></g></g><g class="errorbars"/><g class="lines"><path class="js-line" d="M-152.08,379.81L-121.88,379.98L-120.77,379.98L-55.91,378.78L-54.79,378.42L-34.66,376.9L-33.55,377.01L-26.84,375.57L-25.72,374.7L-23.48,373.63L-22.36,373.5L-20.13,373.01L-19.01,372.37L-16.77,372.77L-15.65,372.39L-11.18,372.05L-10.06,371.43L-5.59,371.62L-4.47,370.53L4.47,368.78L5.59,367.37L6.71,366.32L7.83,363.6L10.06,363.24L11.18,361.55L13.42,359.01L14.54,357.55L17.89,357.45L19.01,355.78L21.25,350.82L22.36,347.93L23.48,345.26L24.6,345.11L25.72,344.85L26.84,342.37L30.19,341.35L31.31,342.52L33.55,342.74L34.66,343.59L35.78,342.48L36.9,344.55L38.02,345.13L39.14,344.66L41.37,344.6L42.49,347.76L46.96,360.31L48.08,360.76L49.2,360.95L50.32,363.22L51.44,365.8L52.56,364.74L54.79,369.1L55.91,369.35L58.15,369.87L59.27,370.66L61.5,370.94L62.62,371.3L64.86,371.34L65.97,370.36L71.57,371.64L72.68,371.66L73.8,372.92L74.92,372.65L80.51,372.2L81.63,371.92L83.87,370.81L84.98,370.66L87.22,369.99L88.34,369.93L89.46,368.67L90.58,369.2L91.69,368.97L92.81,367.37L93.93,369.33L95.05,369.2L98.4,368.33L99.52,367.04L101.76,367.49L102.88,367.09L105.11,366.32L106.23,365.55L108.47,366.66L109.58,364.93L111.82,365.04L112.94,364.61L115.18,363.41L116.29,360.31L118.53,359.09L119.65,359.05L123,356.46L124.12,356.98L126.36,356.38L127.48,356.53L129.71,357.32L130.83,355.91L133.07,355.86L134.19,355.52L137.54,354.82L138.66,355.35L142.01,357.68L143.13,357.98L145.37,360.37L146.49,362.68L148.72,365.01L149.84,365.04L150.96,365.08L152.08,366.75L155.43,367.64L156.55,368.56L162.14,369.91L163.26,369.5L168.85,369.33L169.97,368.56L172.2,368.39L173.32,367.66L176.68,367.47L177.8,368.5L181.15,367.92L182.27,368.11L188.98,365.85L190.1,365.72L191.21,365.31L192.33,363.58L196.81,359.46L197.92,359.48L200.16,355.61L201.28,354.88L204.63,353.41L205.75,353.19L206.87,358.96L207.99,357.49L211.34,357.66L212.46,357.83L213.58,358.07L214.7,353.88L215.81,356.65L216.93,357.38L218.05,358.58L219.17,358.51L221.41,359.05L222.52,358.99L224.76,360.95L225.88,360.37L228.12,361.74L229.23,361.68L231.47,362.23L232.59,362.41L235.94,364.74L237.06,364.84L239.3,365.89L240.42,366.85L243.77,368.93L244.89,368.84L249.36,372.77L250.48,373.2L252.72,372.88L253.83,373.39L256.07,373.29L257.19,372.03L260.54,372.47L261.66,374.12L268.37,373.69L269.49,372.5L277.32,375.06L278.43,375.85L281.79,377.01L282.91,377.09L288.5,377.8L289.62,378.01L300.8,378.38L301.92,378.57L309.74,378.52L310.86,378.25L316.45,377.11L317.57,376.3L318.69,376.71L319.81,375.36L322.04,373.5L323.16,373.5L327.64,364.91L328.75,362.92L329.87,361.29L330.99,360.99L333.23,356.98L334.35,355.46L336.58,353.85L337.7,354.47L339.94,354.09L341.05,353.88L343.29,352.7L344.41,352.66L347.76,353.66L348.88,354.3L350,355.99L351.12,356.01L352.24,357.17L353.35,357.15L354.47,357.23L355.59,358.56L357.83,359.26L358.95,361.06L367.89,367.13L369.01,367L371.25,368.07L372.36,369.35L376.84,371.34L377.96,371.19L379.07,371.98L380.19,371.73L386.9,374.21L388.02,375.38L392.49,376.24L393.61,376.39L404.79,376.52L405.91,376.88L409.27,377.43L410.38,377.65L415.97,377.99L417.09,377.95L422.68,376.81L423.8,376.81L429.39,376.09L430.51,375.77L440.58,375.43L441.69,376.19L445.05,374.59L446.17,374.33L448.4,374.04L449.52,372.45L452.88,374.16L453.99,373.82L457.35,373.67L458.47,373.24L460.7,371.6L461.82,370.7L464.06,370.14L465.18,368.84L470.77,362.92L471.88,362.9L474.12,359.86L475.24,359.46L478.59,355.33L479.71,355.12L480.83,354.45L481.95,352.87L484.19,351.65L485.3,351.1L487.54,350.99L488.66,350.37L489.78,350.26L490.89,348.81L495.37,349.02L496.49,348.32L499.84,343.14L500.96,340.41L502.08,342.2L503.19,342.05L508.79,304.19L509.9,303.42L511.02,301.86L512.14,284.7L515.5,248.82L516.61,239.37L517.73,225.39L518.85,223.87L521.09,201.17L522.2,190.48L525.56,156.87L526.68,152.09L533.39,43.89L534.5,40.34L536.74,4.15L537.86,0.06L538.98,0L540.1,1.54L542.33,12.19L543.45,31.43L549.04,106.98L550.16,109.74L553.51,176.31L554.63,194.93L556.87,217.97L557.99,222.1L560.22,258.04L561.34,268.81L564.7,292.39L565.81,293.23L568.05,311.08L569.17,316.27L571.41,323.24L572.52,324.65L573.64,325.4L574.76,328.33L580.35,335.83L581.47,335.62L584.82,334.53L585.94,332.84L588.18,329.97L589.3,330.1L594.89,315.27L596.01,314.33L597.12,314.24L598.24,308.45L603.83,291.28L604.95,290.72L607.19,279.67L608.31,276.61L609.42,274.33L610.54,274.24L611.66,276.08L612.78,276.14L613.9,278.47L615.02,277.94L617.25,277.51L618.37,273.15L619.49,269.6L620.61,268.64L621.73,265.9L622.84,266.31L623.96,267.85L625.08,271.23L627.32,279.69L628.43,280.78L629.55,305.65L630.67,300L634.03,311.1L635.14,313.02L636.26,314.18L637.38,305L638.5,320.59L639.62,324.97L641.85,332.6L642.97,335.51L644.09,335.43L645.21,338.95L650.8,351.87L651.92,352.17L655.27,359.26L656.39,360.91L657.51,362.02L658.63,362.04L659.74,361.89L660.86,362.64L663.1,363.86L664.22,364.24L667.57,365.01L668.69,365.91L670.93,366.6L672.04,368.37L673.16,367.49L674.28,367.71L677.64,367.56L678.75,366.68L679.87,364.8L680.99,365.42" style="vector-effect: non-scaling-stroke; fill: none; stroke: rgb(8, 115, 191); stroke-opacity: 1; stroke-width: 0.5px; opacity: 1;"/></g><g class="points"/><g class="text"/></g><g class="trace scatter trace9b4150" style="stroke-miterlimit: 2;"><g class="fills"><g><path class="js-fill" d="M692.17,380L680.99,380L680.99,365.42L683.23,364.69L684.35,367.34L685.46,364.86L686.58,364.2L691.05,360.23L692.17,354.65" style="fill: rgb(8, 115, 191); fill-opacity: 0.4; stroke-width: 0;"/></g></g><g class="errorbars"/><g class="lines"><path class="js-line" d="M680.99,365.42L683.23,364.69L684.35,367.34L685.46,364.86L686.58,364.2L691.05,360.23L692.17,354.65" style="vector-effect: non-scaling-stroke; fill: none; stroke: rgb(8, 115, 191); stroke-opacity: 1; stroke-width: 2px; opacity: 1;"/></g><g class="points"/><g class="text"/></g><g class="trace scatter trace53917d" style="stroke-miterlimit: 2; opacity: 1;"><g class="fills"/><g class="errorbars"/><g class="lines"/><g class="points"><path class="point" transform="translate(692.17,354.65)" d="M15,0A15,15 0 1,1 0,-15A15,15 0 0,1 15,0Z" style="opacity: 1; stroke-width: 0px; fill: rgb(8, 115, 191); fill-opacity: 1;"/></g><g class="text"/></g></g></g><g class="overplot"/><path class="xlines-above crisp" style="fill: none; stroke-width: 1px; stroke: rgb(0, 0, 0); stroke-opacity: 0;" d=""/><path class="ylines-above crisp" style="fill: none;" d="M0,0"/><g class="overlines-above"/><g class="xaxislayer-above"><path class="xtick ticks crisp" d="M0,450v-5" transform="translate(52.24,0)" style="stroke: rgb(68, 68, 68); stroke-opacity: 1; stroke-width: 1px;"/><path class="xtick ticks crisp" d="M0,450v-5" transform="translate(155.11,0)" style="stroke: rgb(68, 68, 68); stroke-opacity: 1; stroke-width: 1px;"/><path class="xtick ticks crisp" d="M0,450v-5" transform="translate(255.75,0)" style="stroke: rgb(68, 68, 68); stroke-opacity: 1; stroke-width: 1px;"/><path class="xtick ticks crisp" d="M0,450v-5" transform="translate(357.51,0)" style="stroke: rgb(68, 68, 68); stroke-opacity: 1; stroke-width: 1px;"/><path class="xtick ticks crisp" d="M0,450v-5" transform="translate(460.38,0)" style="stroke: rgb(68, 68, 68); stroke-opacity: 1; stroke-width: 1px;"/><path class="xtick ticks crisp" d="M0,450v-5" transform="translate(563.26,0)" style="stroke: rgb(68, 68, 68); stroke-opacity: 1; stroke-width: 1px;"/><path class="xtick ticks crisp" d="M0,450v-5" transform="translate(663.9,0)" style="stroke: rgb(68, 68, 68); stroke-opacity: 1; stroke-width: 1px;"/><g class="xtick"><text text-anchor="middle" x="0" y="469" transform="translate(52.24,0)" style="font-family: 'Open Sans', verdana, arial, sans-serif; font-size: 18px; fill: rgb(42, 63, 95); fill-opacity: 1; white-space: pre;">01/10</text></g><g class="xtick"><text text-anchor="middle" x="0" y="469" transform="translate(155.11,0)" style="font-family: 'Open Sans', verdana, arial, sans-serif; font-size: 18px; fill: rgb(42, 63, 95); fill-opacity: 1; white-space: pre;">01/01</text></g><g class="xtick"><text text-anchor="middle" x="0" y="469" transform="translate(255.75,0)" style="font-family: 'Open Sans', verdana, arial, sans-serif; font-size: 18px; fill: rgb(42, 63, 95); fill-opacity: 1; white-space: pre;">01/04</text></g><g class="xtick"><text text-anchor="middle" x="0" y="469" transform="translate(357.51,0)" style="font-family: 'Open Sans', verdana, arial, sans-serif; font-size: 18px; fill: rgb(42, 63, 95); fill-opacity: 1; white-space: pre;">01/07</text></g><g class="xtick"><text text-anchor="middle" x="0" y="469" transform="translate(460.38,0)" style="font-family: 'Open Sans', verdana, arial, sans-serif; font-size: 18px; fill: rgb(42, 63, 95); fill-opacity: 1; white-space: pre;">01/10</text></g><g class="xtick"><text text-anchor="middle" x="0" y="469" transform="translate(563.26,0)" style="font-family: 'Open Sans', verdana, arial, sans-serif; font-size: 18px; fill: rgb(42, 63, 95); fill-opacity: 1; white-space: pre;">01/01</text></g><g class="xtick"><text text-anchor="middle" x="0" y="469" transform="translate(663.9,0)" style="font-family: 'Open Sans', verdana, arial, sans-serif; font-size: 18px; fill: rgb(42, 63, 95); fill-opacity: 1; white-space: pre;">01/04</text></g></g><g class="yaxislayer-above"/><g class="overaxes-above"/></g></g><g class="polarlayer"/><g class="ternarylayer"/><g class="geolayer"/><g class="funnelarealayer"/><g class="pielayer"/><g class="treemaplayer"/><g class="sunburstlayer"/><g class="glimages"/><defs id="topdefs-96968e"><g class="clips"/></defs><g class="layer-above"><g class="imagelayer"/><g class="shapelayer"><path data-index="0" fill-rule="evenodd" d="M-578.43,445.85L238.98,445.85" clip-path="url('#clip96968exy')" style="opacity: 1; stroke: rgb(255, 0, 0); stroke-opacity: 1; fill: rgb(0, 0, 0); fill-opacity: 0; stroke-dasharray: 3px, 3px; stroke-width: 1.5px;"/></g></g><g class="infolayer"><g class="g-gtitle"><text class="gtitle" x="375" y="25" text-anchor="middle" dy="0.7em" style="font-family: 'Open Sans', verdana, arial, sans-serif; font-size: 50px; fill: rgb(42, 63, 95); opacity: 1; font-weight: normal; white-space: pre;"><tspan style="font-weight:bold">Tarn (81)</tspan></text></g><g class="g-xtitle"/><g class="annotation" data-index="0" style="opacity: 1;"><g class="annotation-text-g" transform="rotate(0,700.17,364.65)"><g class="cursor-pointer" transform="translate(642, 329)"><rect class="bg" x="0.5" y="0.5" width="115" height="71" style="stroke-width: 1px; stroke: rgb(0, 0, 0); stroke-opacity: 0; fill: rgb(255, 255, 255); fill-opacity: 0.6;"/><text class="annotation-text" text-anchor="middle" x="57.8125" y="55.5" style="font-family: 'Open Sans', verdana, arial, sans-serif; font-size: 50px; fill: rgb(8, 115, 191); fill-opacity: 1; white-space: pre;"> <tspan style="font-weight:bold">305 </tspan></text></g></g><g class="annotation-arrow-g" style="opacity: 1;"><path d="M728.5699999999999,400.15L740.17,414.65" style="stroke-width: 1px; stroke: rgb(8, 115, 191); stroke-opacity: 1; stroke-dasharray: 0px, 0px, 18.569px, 18.569px;"/></g></g></g></svg>