<svg class="main-svg" xmlns="http://www.w3.org/2000/svg" xmlns:xlink="http://www.w3.org/1999/xlink" width="1125" height="750" style="" viewBox="0 0 750 500"><rect x="0" y="0" width="750" height="500" style="fill: rgb(0, 0, 0); fill-opacity: 0;"/><defs id="defs-a60c58"><g class="clips"><clipPath id="clipa60c58xyplot" class="plotclip"><rect width="700" height="380"/></clipPath><clipPath class="axesclip" id="clipa60c58x"><rect x="50" y="0" width="700" height="500"/></clipPath><clipPath class="axesclip" id="clipa60c58y"><rect x="0" y="70" width="750" height="380"/></clipPath><clipPath class="axesclip" id="clipa60c58xy"><rect x="50" y="70" width="700" height="380"/></clipPath></g><g class="gradients"/></defs><g class="bglayer"><rect class="bg" x="50" y="70" width="700" height="380" style="fill: rgb(0, 0, 0); fill-opacity: 0; stroke-width: 0;"/></g><g class="layer-below"><g class="imagelayer"/><g class="shapelayer"/></g><g class="cartesianlayer"><g class="subplot xy"><g class="layer-subplot"><g class="shapelayer"/><g class="imagelayer"/></g><g class="gridlayer"><g class="x"><path class="xgrid crisp" transform="translate(52.22,0)" d="M0,70v380" style="stroke: rgb(255, 255, 255); stroke-opacity: 1; stroke-width: 1px;"/><path class="xgrid crisp" transform="translate(154.44,0)" d="M0,70v380" style="stroke: rgb(255, 255, 255); stroke-opacity: 1; stroke-width: 1px;"/><path class="xgrid crisp" transform="translate(254.44,0)" d="M0,70v380" style="stroke: rgb(255, 255, 255); stroke-opacity: 1; stroke-width: 1px;"/><path class="xgrid crisp" transform="translate(355.56,0)" d="M0,70v380" style="stroke: rgb(255, 255, 255); stroke-opacity: 1; stroke-width: 1px;"/><path class="xgrid crisp" transform="translate(457.78,0)" d="M0,70v380" style="stroke: rgb(255, 255, 255); stroke-opacity: 1; stroke-width: 1px;"/><path class="xgrid crisp" transform="translate(560,0)" d="M0,70v380" style="stroke: rgb(255, 255, 255); stroke-opacity: 1; stroke-width: 1px;"/><path class="xgrid crisp" transform="translate(660,0)" d="M0,70v380" style="stroke: rgb(255, 255, 255); stroke-opacity: 1; stroke-width: 1px;"/></g><g class="y"/></g><g class="zerolinelayer"/><path class="xlines-below"/><path class="ylines-below"/><g class="overlines-below"/><g class="xaxislayer-below"/><g class="yaxislayer-below"/><g class="overaxes-below"/><g class="plot" transform="translate(50, 70)" clip-path="url('#clipa60c58xyplot')"><g class="scatterlayer mlayer"><g class="trace scatter trace2e8673" style="stroke-miterlimit: 2;"><g class="fills"><g><path class="js-fill" d="M681.11,380L-151.11,380L-151.11,378.82L-108.89,379.75L-107.78,379.72L-73.33,378.66L-72.22,378.44L-55.56,373.11L-54.44,371.85L-52.22,371.77L-51.11,370.33L-45.56,366.1L-44.44,365.96L-37.78,361.73L-36.67,361.73L-30,359.88L-28.89,359.8L-17.78,358L-16.67,358.06L-11.11,359.63L-10,360.08L-2.22,362.84L-1.11,362.8L1.11,361.86L2.22,361.84L4.44,359.82L5.56,359.41L11.11,357.21L12.22,355.99L14.44,352.91L15.56,351.22L17.78,350.41L18.89,346.3L24.44,328.85L25.56,328.45L27.78,324.06L28.89,323.05L32.22,324.16L33.33,324.22L35.56,325.46L36.67,327.17L40,333.9L41.11,334.1L43.33,342.36L44.44,349.65L47.78,353.57L48.89,353.94L51.11,358.34L52.22,356.57L54.44,361.58L55.56,361.68L56.67,361.74L57.78,363.96L60,365.92L61.11,366.73L68.89,367.7L70,368.46L73.33,368.14L74.44,368.29L76.67,368.15L77.78,367.37L80,367.39L81.11,366.74L86.67,364.03L87.78,363.93L92.22,362.7L93.33,365.49L96.67,365.13L97.78,364.54L102.22,362.21L103.33,362.01L105.56,360.46L106.67,360.64L107.78,360.22L108.89,356.79L111.11,357.64L112.22,356.92L114.44,355.98L115.56,355.25L121.11,352.1L122.22,351.28L125.56,347.96L126.67,347.92L131.11,347.68L132.22,348.2L134.44,348.48L135.56,348.05L137.78,347.11L138.89,347.18L141.11,347.76L142.22,347.9L147.78,353.16L148.89,353.78L151.11,354.75L152.22,355.21L154.44,355.23L155.56,354.96L161.11,355.36L162.22,355.89L164.44,356.12L165.56,356.21L168.89,357.67L170,358.06L173.33,357.93L174.44,357.22L184.44,354.94L185.56,354.38L188.89,353.28L190,351.83L195.56,343.62L196.67,343.34L200,338L201.11,337.12L202.22,335.85L203.33,335.75L204.44,335.58L205.56,343L206.67,341.1L207.78,341.62L210,343.5L211.11,343.49L212.22,343.42L213.33,336.42L214.44,339.8L215.56,340.61L217.78,341.1L218.89,341.67L224.44,342.5L225.56,343.53L227.78,344.01L228.89,346.12L230,347.04L231.11,349.41L234.44,356.37L235.56,356.7L238.89,361.96L240,362.74L241.11,364.01L242.22,363.96L243.33,364.21L244.44,365.93L247.78,369.5L248.89,369.87L251.11,369.58L252.22,370.39L254.44,370.83L255.56,369.76L258.89,370.3L260,371.76L262.22,371.58L263.33,371.7L266.67,372.22L267.78,371.26L270,372.81L271.11,373.32L278.89,375.83L280,376.25L292.22,378.29L293.33,378.29L297.78,378.6L298.89,378.5L310,375.76L311.11,375.36L313.33,374.91L314.44,373.81L315.56,372.44L316.67,372.51L320,365.24L321.11,364.12L325.56,346.92L326.67,343.01L328.89,339.68L330,335.11L334.44,325.71L335.56,324.74L336.67,324.32L337.78,321.78L343.33,317.08L344.44,316.73L346.67,316.24L347.78,315.88L354.44,315.93L355.56,317.13L357.78,317.9L358.89,318.43L360,318.05L361.11,318.72L364.44,320.63L365.56,322.56L373.33,335.45L374.44,336.2L375.56,336.73L376.67,340.44L380,346.24L381.11,348.05L390,358.46L391.11,358.95L393.33,362.96L394.44,364.12L397.78,366.49L398.89,366.88L405.56,369.5L406.67,369.46L410,371.31L411.11,371.37L414.44,371.52L415.56,371L420,369.99L421.11,370.3L425.56,371.45L426.67,371.87L430,371.08L431.11,370.62L435.56,370.56L436.67,370.59L437.78,370.47L438.89,371.84L441.11,370.13L442.22,369.7L445.56,369.01L446.67,366.65L447.78,367.21L448.89,366.63L450,367.48L451.11,365.64L453.33,364.39L454.44,362.14L460,353.47L461.11,353.32L466.67,338.58L467.78,336.77L468.89,335.83L470,332.65L475.56,322.31L476.67,321.84L480,312.48L481.11,310.52L483.33,307.78L484.44,307.4L486.67,303.28L487.78,301.46L490,299.31L491.11,297.45L493.33,295.38L494.44,292.35L495.56,288.15L496.67,281.07L497.78,274.97L498.89,280.09L500,276.27L501.11,258.64L505.56,208.73L506.67,206.99L507.78,202L508.89,178.23L511.11,154.49L512.22,147.47L513.33,138.4L514.44,117.32L515.56,117.29L516.67,115.82L517.78,115L518.89,106.86L521.11,91.38L522.22,81.37L523.33,76.27L524.44,58.52L527.78,15.42L528.89,7.99L530,3.6L531.11,2.99L532.22,0L533.33,3.85L535.56,22.81L536.67,34.52L538.89,48.31L540,72.74L544.44,145.54L545.56,158.19L546.67,164.58L547.78,192.76L552.22,251.53L553.33,259.41L554.44,261.98L555.56,273.29L560,300.47L561.11,304.56L562.22,305.99L563.33,310.9L568.89,322.55L570,323.63L572.22,326.53L573.33,326.08L577.78,325.53L578.89,323.75L581.11,321.75L582.22,319.98L584.44,315.19L585.56,314.21L588.89,301.8L590,298.6L592.22,293.95L593.33,293.55L597.78,274.74L598.89,270.57L601.11,266.65L602.22,260.77L604.44,255.62L605.56,254.49L606.67,253.76L607.78,254.08L608.89,254.27L610,256.05L611.11,256.86L612.22,256.47L615.56,254.09L616.67,254.48L618.89,258.51L620,262.25L623.33,269.99L624.44,270.8L625.56,292.23L626.67,288.29L630,302.52L631.11,307.16L632.22,308.05L633.33,298.27L635.56,316.13L636.67,320.12L638.89,326.37L640,327.85L642.22,335.88L643.33,337.95L645.56,341.21L646.67,342.34L647.78,342.4L648.89,343.68L652.22,345.47L653.33,346.73L655.56,347.58L656.67,349.16L662.22,356.02L663.33,356.34L665.56,359.88L666.67,360.94L667.78,363.62L668.89,364.02L672.22,364.61L673.33,364.42L674.44,364.25L675.56,362.15L678.89,361.56L680,364.32L681.11,361.91" style="fill: rgb(8, 115, 191); fill-opacity: 0.2; stroke-width: 0;"/></g></g><g class="errorbars"/><g class="lines"><path class="js-line" d="M-151.11,378.82L-108.89,379.75L-107.78,379.72L-73.33,378.66L-72.22,378.44L-55.56,373.11L-54.44,371.85L-52.22,371.77L-51.11,370.33L-45.56,366.1L-44.44,365.96L-37.78,361.73L-36.67,361.73L-30,359.88L-28.89,359.8L-17.78,358L-16.67,358.06L-11.11,359.63L-10,360.08L-2.22,362.84L-1.11,362.8L1.11,361.86L2.22,361.84L4.44,359.82L5.56,359.41L11.11,357.21L12.22,355.99L14.44,352.91L15.56,351.22L17.78,350.41L18.89,346.3L24.44,328.85L25.56,328.45L27.78,324.06L28.89,323.05L32.22,324.16L33.33,324.22L35.56,325.46L36.67,327.17L40,333.9L41.11,334.1L43.33,342.36L44.44,349.65L47.78,353.57L48.89,353.94L51.11,358.34L52.22,356.57L54.44,361.58L55.56,361.68L56.67,361.74L57.78,363.96L60,365.92L61.11,366.73L68.89,367.7L70,368.46L73.33,368.14L74.44,368.29L76.67,368.15L77.78,367.37L80,367.39L81.11,366.74L86.67,364.03L87.78,363.93L92.22,362.7L93.33,365.49L96.67,365.13L97.78,364.54L102.22,362.21L103.33,362.01L105.56,360.46L106.67,360.64L107.78,360.22L108.89,356.79L111.11,357.64L112.22,356.92L114.44,355.98L115.56,355.25L121.11,352.1L122.22,351.28L125.56,347.96L126.67,347.92L131.11,347.68L132.22,348.2L134.44,348.48L135.56,348.05L137.78,347.11L138.89,347.18L141.11,347.76L142.22,347.9L147.78,353.16L148.89,353.78L151.11,354.75L152.22,355.21L154.44,355.23L155.56,354.96L161.11,355.36L162.22,355.89L164.44,356.12L165.56,356.21L168.89,357.67L170,358.06L173.33,357.93L174.44,357.22L184.44,354.94L185.56,354.38L188.89,353.28L190,351.83L195.56,343.62L196.67,343.34L200,338L201.11,337.12L202.22,335.85L203.33,335.75L204.44,335.58L205.56,343L206.67,341.1L207.78,341.62L210,343.5L211.11,343.49L212.22,343.42L213.33,336.42L214.44,339.8L215.56,340.61L217.78,341.1L218.89,341.67L224.44,342.5L225.56,343.53L227.78,344.01L228.89,346.12L230,347.04L231.11,349.41L234.44,356.37L235.56,356.7L238.89,361.96L240,362.74L241.11,364.01L242.22,363.96L243.33,364.21L244.44,365.93L247.78,369.5L248.89,369.87L251.11,369.58L252.22,370.39L254.44,370.83L255.56,369.76L258.89,370.3L260,371.76L262.22,371.58L263.33,371.7L266.67,372.22L267.78,371.26L270,372.81L271.11,373.32L278.89,375.83L280,376.25L292.22,378.29L293.33,378.29L297.78,378.6L298.89,378.5L310,375.76L311.11,375.36L313.33,374.91L314.44,373.81L315.56,372.44L316.67,372.51L320,365.24L321.11,364.12L325.56,346.92L326.67,343.01L328.89,339.68L330,335.11L334.44,325.71L335.56,324.74L336.67,324.32L337.78,321.78L343.33,317.08L344.44,316.73L346.67,316.24L347.78,315.88L354.44,315.93L355.56,317.13L357.78,317.9L358.89,318.43L360,318.05L361.11,318.72L364.44,320.63L365.56,322.56L373.33,335.45L374.44,336.2L375.56,336.73L376.67,340.44L380,346.24L381.11,348.05L390,358.46L391.11,358.95L393.33,362.96L394.44,364.12L397.78,366.49L398.89,366.88L405.56,369.5L406.67,369.46L410,371.31L411.11,371.37L414.44,371.52L415.56,371L420,369.99L421.11,370.3L425.56,371.45L426.67,371.87L430,371.08L431.11,370.62L435.56,370.56L436.67,370.59L437.78,370.47L438.89,371.84L441.11,370.13L442.22,369.7L445.56,369.01L446.67,366.65L447.78,367.21L448.89,366.63L450,367.48L451.11,365.64L453.33,364.39L454.44,362.14L460,353.47L461.11,353.32L466.67,338.58L467.78,336.77L468.89,335.83L470,332.65L475.56,322.31L476.67,321.84L480,312.48L481.11,310.52L483.33,307.78L484.44,307.4L486.67,303.28L487.78,301.46L490,299.31L491.11,297.45L493.33,295.38L494.44,292.35L495.56,288.15L496.67,281.07L497.78,274.97L498.89,280.09L500,276.27L501.11,258.64L505.56,208.73L506.67,206.99L507.78,202L508.89,178.23L511.11,154.49L512.22,147.47L513.33,138.4L514.44,117.32L515.56,117.29L516.67,115.82L517.78,115L518.89,106.86L521.11,91.38L522.22,81.37L523.33,76.27L524.44,58.52L527.78,15.42L528.89,7.99L530,3.6L531.11,2.99L532.22,0L533.33,3.85L535.56,22.81L536.67,34.52L538.89,48.31L540,72.74L544.44,145.54L545.56,158.19L546.67,164.58L547.78,192.76L552.22,251.53L553.33,259.41L554.44,261.98L555.56,273.29L560,300.47L561.11,304.56L562.22,305.99L563.33,310.9L568.89,322.55L570,323.63L572.22,326.53L573.33,326.08L577.78,325.53L578.89,323.75L581.11,321.75L582.22,319.98L584.44,315.19L585.56,314.21L588.89,301.8L590,298.6L592.22,293.95L593.33,293.55L597.78,274.74L598.89,270.57L601.11,266.65L602.22,260.77L604.44,255.62L605.56,254.49L606.67,253.76L607.78,254.08L608.89,254.27L610,256.05L611.11,256.86L612.22,256.47L615.56,254.09L616.67,254.48L618.89,258.51L620,262.25L623.33,269.99L624.44,270.8L625.56,292.23L626.67,288.29L630,302.52L631.11,307.16L632.22,308.05L633.33,298.27L635.56,316.13L636.67,320.12L638.89,326.37L640,327.85L642.22,335.88L643.33,337.95L645.56,341.21L646.67,342.34L647.78,342.4L648.89,343.68L652.22,345.47L653.33,346.73L655.56,347.58L656.67,349.16L662.22,356.02L663.33,356.34L665.56,359.88L666.67,360.94L667.78,363.62L668.89,364.02L672.22,364.61L673.33,364.42L674.44,364.25L675.56,362.15L678.89,361.56L680,364.32L681.11,361.91" style="vector-effect: non-scaling-stroke; fill: none; stroke: rgb(8, 115, 191); stroke-opacity: 1; stroke-width: 0.5px; opacity: 1;"/></g><g class="points"/><g class="text"/></g><g class="trace scatter tracec97e43" style="stroke-miterlimit: 2;"><g class="fills"><g><path class="js-fill" d="M692.22,380L681.11,380L681.11,361.91L684.44,359.06L685.56,358.52L686.67,358.14L687.78,352.34L688.89,351.65L690,349.48L692.22,344.19" style="fill: rgb(8, 115, 191); fill-opacity: 0.4; stroke-width: 0;"/></g></g><g class="errorbars"/><g class="lines"><path class="js-line" d="M681.11,361.91L684.44,359.06L685.56,358.52L686.67,358.14L687.78,352.34L688.89,351.65L690,349.48L692.22,344.19" style="vector-effect: non-scaling-stroke; fill: none; stroke: rgb(8, 115, 191); stroke-opacity: 1; stroke-width: 2px; opacity: 1;"/></g><g class="points"/><g class="text"/></g><g class="trace scatter trace77c6be" style="stroke-miterlimit: 2; opacity: 1;"><g class="fills"/><g class="errorbars"/><g class="lines"/><g class="points"><path class="point" transform="translate(692.22,344.19)" d="M15,0A15,15 0 1,1 0,-15A15,15 0 0,1 15,0Z" style="opacity: 1; stroke-width: 0px; fill: rgb(8, 115, 191); fill-opacity: 1;"/></g><g class="text"/></g></g></g><g class="overplot"/><path class="xlines-above crisp" style="fill: none; stroke-width: 1px; stroke: rgb(0, 0, 0); stroke-opacity: 0;" d=""/><path class="ylines-above crisp" style="fill: none;" d="M0,0"/><g class="overlines-above"/><g class="xaxislayer-above"><path class="xtick ticks crisp" d="M0,450v-5" transform="translate(52.22,0)" style="stroke: rgb(68, 68, 68); stroke-opacity: 1; stroke-width: 1px;"/><path class="xtick ticks crisp" d="M0,450v-5" transform="translate(154.44,0)" style="stroke: rgb(68, 68, 68); stroke-opacity: 1; stroke-width: 1px;"/><path class="xtick ticks crisp" d="M0,450v-5" transform="translate(254.44,0)" style="stroke: rgb(68, 68, 68); stroke-opacity: 1; stroke-width: 1px;"/><path class="xtick ticks crisp" d="M0,450v-5" transform="translate(355.56,0)" style="stroke: rgb(68, 68, 68); stroke-opacity: 1; stroke-width: 1px;"/><path class="xtick ticks crisp" d="M0,450v-5" transform="translate(457.78,0)" style="stroke: rgb(68, 68, 68); stroke-opacity: 1; stroke-width: 1px;"/><path class="xtick ticks crisp" d="M0,450v-5" transform="translate(560,0)" style="stroke: rgb(68, 68, 68); stroke-opacity: 1; stroke-width: 1px;"/><path class="xtick ticks crisp" d="M0,450v-5" transform="translate(660,0)" style="stroke: rgb(68, 68, 68); stroke-opacity: 1; stroke-width: 1px;"/><g class="xtick"><text text-anchor="middle" x="0" y="469" transform="translate(52.22,0)" style="font-family: 'Open Sans', verdana, arial, sans-serif; font-size: 18px; fill: rgb(42, 63, 95); fill-opacity: 1; white-space: pre;">01/10</text></g><g class="xtick"><text text-anchor="middle" x="0" y="469" transform="translate(154.44,0)" style="font-family: 'Open Sans', verdana, arial, sans-serif; font-size: 18px; fill: rgb(42, 63, 95); fill-opacity: 1; white-space: pre;">01/01</text></g><g class="xtick"><text text-anchor="middle" x="0" y="469" transform="translate(254.44,0)" style="font-family: 'Open Sans', verdana, arial, sans-serif; font-size: 18px; fill: rgb(42, 63, 95); fill-opacity: 1; white-space: pre;">01/04</text></g><g class="xtick"><text text-anchor="middle" x="0" y="469" transform="translate(355.56,0)" style="font-family: 'Open Sans', verdana, arial, sans-serif; font-size: 18px; fill: rgb(42, 63, 95); fill-opacity: 1; white-space: pre;">01/07</text></g><g class="xtick"><text text-anchor="middle" x="0" y="469" transform="translate(457.78,0)" style="font-family: 'Open Sans', verdana, arial, sans-serif; font-size: 18px; fill: rgb(42, 63, 95); fill-opacity: 1; white-space: pre;">01/10</text></g><g class="xtick"><text text-anchor="middle" x="0" y="469" transform="translate(560,0)" style="font-family: 'Open Sans', verdana, arial, sans-serif; font-size: 18px; fill: rgb(42, 63, 95); fill-opacity: 1; white-space: pre;">01/01</text></g><g class="xtick"><text text-anchor="middle" x="0" y="469" transform="translate(660,0)" style="font-family: 'Open Sans', verdana, arial, sans-serif; font-size: 18px; fill: rgb(42, 63, 95); fill-opacity: 1; white-space: pre;">01/04</text></g></g><g class="yaxislayer-above"/><g class="overaxes-above"/></g></g><g class="polarlayer"/><g class="ternarylayer"/><g class="geolayer"/><g class="funnelarealayer"/><g class="pielayer"/><g class="treemaplayer"/><g class="sunburstlayer"/><g class="glimages"/><defs id="topdefs-a60c58"><g class="clips"/></defs><g class="layer-above"><g class="imagelayer"/><g class="shapelayer"><path data-index="0" fill-rule="evenodd" d="M-574.44,445.43L237.78,445.43" clip-path="url('#clipa60c58xy')" style="opacity: 1; stroke: rgb(255, 0, 0); stroke-opacity: 1; fill: rgb(0, 0, 0); fill-opacity: 0; stroke-dasharray: 3px, 3px; stroke-width: 1.5px;"/></g></g><g class="infolayer"><g class="g-gtitle"><text class="gtitle" x="375" y="25" text-anchor="middle" dy="0.7em" style="font-family: 'Open Sans', verdana, arial, sans-serif; font-size: 50px; fill: rgb(42, 63, 95); opacity: 1; font-weight: normal; white-space: pre;"><tspan style="font-weight:bold">Bouches-du-Rhône (13)</tspan></text></g><g class="g-xtitle"/><g class="annotation" data-index="0" style="opacity: 1;"><g class="annotation-text-g" transform="rotate(0,700.22,354.19)"><g class="cursor-pointer" transform="translate(642, 318)"><rect class="bg" x="0.5" y="0.5" width="115" height="71" style="stroke-width: 1px; stroke: rgb(0, 0, 0); stroke-opacity: 0; fill: rgb(255, 255, 255); fill-opacity: 0.6;"/><text class="annotation-text" text-anchor="middle" x="57.8125" y="55.5" style="font-family: 'Open Sans', verdana, arial, sans-serif; font-size: 50px; fill: rgb(8, 115, 191); fill-opacity: 1; white-space: pre;"> <tspan style="font-weight:bold">391 </tspan></text></g></g><g class="annotation-arrow-g" style="opacity: 1;"><path d="M728.62,389.69L740.22,404.19" style="stroke-width: 1px; stroke: rgb(8, 115, 191); stroke-opacity: 1; stroke-dasharray: 0px, 0px, 18.569px, 18.569px;"/></g></g></g></svg>