<svg class="main-svg" xmlns="http://www.w3.org/2000/svg" xmlns:xlink="http://www.w3.org/1999/xlink" width="1125" height="750" style="" viewBox="0 0 750 500"><rect x="0" y="0" width="750" height="500" style="fill: rgb(0, 0, 0); fill-opacity: 0;"/><defs id="defs-0f4cf6"><g class="clips"><clipPath id="clip0f4cf6xyplot" class="plotclip"><rect width="700" height="380"/></clipPath><clipPath class="axesclip" id="clip0f4cf6x"><rect x="50" y="0" width="700" height="500"/></clipPath><clipPath class="axesclip" id="clip0f4cf6y"><rect x="0" y="70" width="750" height="380"/></clipPath><clipPath class="axesclip" id="clip0f4cf6xy"><rect x="50" y="70" width="700" height="380"/></clipPath></g><g class="gradients"/></defs><g class="bglayer"><rect class="bg" x="50" y="70" width="700" height="380" style="fill: rgb(0, 0, 0); fill-opacity: 0; stroke-width: 0;"/></g><g class="layer-below"><g class="imagelayer"/><g class="shapelayer"/></g><g class="cartesianlayer"><g class="subplot xy"><g class="layer-subplot"><g class="shapelayer"/><g class="imagelayer"/></g><g class="gridlayer"><g class="x"><path class="xgrid crisp" transform="translate(105.93,0)" d="M0,70v380" style="stroke: rgb(255, 255, 255); stroke-opacity: 1; stroke-width: 1px;"/><path class="xgrid crisp" transform="translate(209.32,0)" d="M0,70v380" style="stroke: rgb(255, 255, 255); stroke-opacity: 1; stroke-width: 1px;"/><path class="xgrid crisp" transform="translate(309.32,0)" d="M0,70v380" style="stroke: rgb(255, 255, 255); stroke-opacity: 1; stroke-width: 1px;"/><path class="xgrid crisp" transform="translate(412.71,0)" d="M0,70v380" style="stroke: rgb(255, 255, 255); stroke-opacity: 1; stroke-width: 1px;"/><path class="xgrid crisp" transform="translate(516.1,0)" d="M0,70v380" style="stroke: rgb(255, 255, 255); stroke-opacity: 1; stroke-width: 1px;"/><path class="xgrid crisp" transform="translate(621.19,0)" d="M0,70v380" style="stroke: rgb(255, 255, 255); stroke-opacity: 1; stroke-width: 1px;"/><path class="xgrid crisp" transform="translate(724.58,0)" d="M0,70v380" style="stroke: rgb(255, 255, 255); stroke-opacity: 1; stroke-width: 1px;"/></g><g class="y"/></g><g class="zerolinelayer"/><path class="xlines-below"/><path class="ylines-below"/><g class="overlines-below"/><g class="xaxislayer-below"/><g class="yaxislayer-below"/><g class="overaxes-below"/><g class="plot" transform="translate(50, 70)" clip-path="url('#clip0f4cf6xyplot')"><g class="scatterlayer mlayer"><g class="trace scatter trace8bc2db" style="stroke-miterlimit: 2;"><g class="fills"><g><path class="js-fill" d="M671.19,380L-230.51,380L-230.51,365.91L-227.12,365L-225.42,378.18L-211.86,377.27L-210.17,377.27L-194.92,379.55L-193.22,378.64L-179.66,380L-177.97,379.55L-159.32,378.18L-157.63,374.55L-154.24,374.55L-152.54,371.36L-147.46,372.27L-145.76,375L-142.37,374.09L-140.68,377.27L-120.34,378.18L-118.64,379.09L-108.47,378.18L-106.78,378.18L-100,378.64L-98.31,378.18L-94.92,377.27L-93.22,376.36L-89.83,377.27L-88.14,375.45L-84.75,375.45L-83.05,375.91L-79.66,375.45L-77.97,374.09L-76.27,375L-74.58,374.09L-71.19,370.91L-69.49,371.82L-67.8,372.27L-66.1,369.09L-64.41,367.73L-62.71,368.64L-59.32,363.18L-57.63,360.45L-55.93,359.55L-54.24,360.91L-50.85,358.64L-49.15,354.55L-44.07,358.18L-42.37,355L-38.98,353.64L-37.29,356.82L-35.59,356.36L-33.9,347.73L-32.2,347.27L-30.51,344.55L-28.81,342.27L-27.12,325.91L-25.42,321.36L-23.73,320.45L-22.03,327.27L-20.34,328.18L-18.64,326.82L-16.95,328.64L-15.25,339.55L-13.56,344.09L-11.86,343.18L-10.17,345.45L-8.47,345L-6.78,350.45L-5.08,350.45L-3.39,354.09L-1.69,355.45L0,358.18L1.69,356.82L3.39,356.82L5.08,355.91L6.78,351.82L11.86,326.82L13.56,326.36L15.25,324.09L16.95,309.09L18.64,303.18L20.34,293.64L25.42,254.55L27.12,256.82L28.81,242.73L30.51,219.55L33.9,188.18L35.59,188.64L37.29,176.82L38.98,172.73L42.37,119.09L44.07,109.55L47.46,51.82L49.15,56.82L50.85,52.73L52.54,52.73L54.24,50L55.93,42.73L57.63,43.64L59.32,42.27L62.71,50.45L64.41,70.91L66.1,88.64L67.8,145.45L69.49,152.73L71.19,178.64L74.58,182.27L76.27,191.82L77.97,195.91L79.66,175.91L83.05,218.18L84.75,223.18L86.44,224.55L88.14,244.55L89.83,268.64L91.53,274.55L93.22,284.55L94.92,275.45L96.61,274.09L98.31,269.55L100,260L101.69,262.73L103.39,260.91L105.08,253.64L106.78,247.27L108.47,233.18L110.17,234.55L111.86,233.64L113.56,225.45L115.25,221.36L116.95,225L118.64,217.73L120.34,215L122.03,216.82L123.73,214.55L125.42,213.64L127.12,211.36L128.81,203.64L130.51,203.18L132.2,215.45L133.9,214.55L135.59,182.27L138.98,162.73L140.68,167.73L142.37,205.45L144.07,207.73L145.76,207.73L147.46,220.45L149.15,214.09L150.85,214.55L152.54,208.64L154.24,207.27L155.93,202.73L157.63,202.27L159.32,179.09L161.02,180.91L164.41,161.82L166.1,140.91L167.8,143.64L169.49,141.82L172.88,158.18L174.58,165L176.27,172.73L177.97,154.09L181.36,157.27L183.05,175.91L184.75,159.09L186.44,169.09L188.14,174.09L189.83,166.36L191.53,159.09L193.22,160L194.92,159.55L196.61,170L198.31,170.91L200,173.64L201.69,201.82L203.39,207.27L205.08,210.91L206.78,224.55L210.17,249.55L211.86,257.73L213.56,252.27L215.25,259.09L216.95,257.73L218.64,260.45L220.34,252.27L222.03,249.55L225.42,241.82L227.12,241.36L228.81,239.55L230.51,240L232.2,245.45L233.9,245.45L235.59,245.91L237.29,247.27L238.98,241.82L240.68,243.18L242.37,233.18L244.07,235.45L245.76,237.73L247.46,241.36L250.85,250.45L252.54,249.09L255.93,261.36L257.63,252.73L259.32,243.18L261.02,241.36L262.71,237.27L264.41,238.64L266.1,233.18L267.8,217.73L269.49,212.73L271.19,213.18L272.88,197.73L274.58,194.55L276.27,192.27L277.97,187.27L284.75,115L286.44,110.91L288.14,110.91L289.83,90.45L294.92,57.27L296.61,54.09L298.31,39.09L300,36.82L301.69,34.55L303.39,30L305.08,32.73L306.78,33.18L308.47,32.27L310.17,33.18L311.86,35.91L313.56,96.82L315.25,72.27L316.95,68.64L318.64,73.18L320.34,65.91L322.03,68.64L323.73,62.27L325.42,0L327.12,45.45L330.51,66.36L332.2,95L333.9,109.55L335.59,115.45L337.29,121.82L338.98,125L340.68,136.82L342.37,154.09L344.07,163.18L345.76,165.45L347.46,165.91L349.15,182.27L350.85,192.27L352.54,193.18L354.24,177.27L355.93,181.36L357.63,195.45L359.32,194.55L361.02,198.18L362.71,206.36L366.1,246.36L367.8,249.55L369.49,250.45L371.19,253.18L372.88,268.64L374.58,265.91L376.27,263.18L377.97,284.55L379.66,292.27L381.36,287.73L383.05,289.09L384.75,296.36L388.14,320.91L389.83,311.82L393.22,319.09L394.92,319.55L396.61,336.36L398.31,333.18L400,330.91L401.69,330.45L405.08,331.36L406.78,330.45L408.47,323.64L410.17,328.64L415.25,345.91L416.95,345.91L418.64,346.82L420.34,351.36L423.73,358.18L425.42,362.27L427.12,360.91L428.81,362.73L430.51,362.27L432.2,365.45L433.9,368.64L435.59,370L438.98,374.55L440.68,374.55L442.37,374.09L444.07,374.55L445.76,375L447.46,374.55L449.15,375L450.85,374.09L452.54,373.64L454.24,374.55L459.32,374.55L461.02,372.27L462.71,373.64L464.41,373.18L467.8,372.73L469.49,372.27L471.19,372.73L472.88,374.55L474.58,373.18L476.27,373.64L477.97,373.18L479.66,371.82L481.36,369.55L483.05,370.45L486.44,365.91L488.14,365.45L491.53,365.91L493.22,363.64L498.31,329.09L500,327.73L501.69,325.91L503.39,321.82L505.08,320.45L506.78,326.36L510.17,337.73L511.86,336.36L513.56,338.18L515.25,335L516.95,330.91L518.64,329.55L520.34,331.82L522.03,331.36L523.73,328.64L525.42,327.73L528.81,326.82L530.51,327.27L532.2,326.82L533.9,328.64L535.59,328.18L537.29,325.45L538.98,317.73L540.68,318.18L542.37,313.64L544.07,306.36L545.76,302.27L547.46,305L549.15,307.73L550.85,296.82L554.24,290.45L555.93,297.73L557.63,293.18L559.32,292.73L561.02,291.82L562.71,313.64L567.8,332.73L569.49,343.64L571.19,342.73L572.88,344.55L574.58,341.82L576.27,341.36L577.97,338.64L579.66,340.91L581.36,340.45L583.05,344.09L584.75,343.64L586.44,351.82L589.83,363.64L591.53,360.45L594.92,359.55L596.61,360L598.31,358.64L600,359.09L601.69,357.73L603.39,361.36L605.08,364.09L606.78,364.09L611.86,364.55L613.56,363.64L616.95,364.55L618.64,365.91L620.34,365.91L622.03,364.55L623.73,366.36L625.42,365.91L628.81,362.73L630.51,362.73L632.2,362.73L633.9,361.82L635.59,359.55L637.29,362.73L638.98,362.73L640.68,363.64L644.07,363.64L645.76,366.36L647.46,368.64L649.15,369.09L650.85,370.45L652.54,369.09L654.24,369.55L655.93,369.09L657.63,370.45L659.32,369.55L661.02,369.09L662.71,369.55L664.41,371.36L666.1,370.45L667.8,370.45L669.49,371.82L671.19,364.09" style="fill: rgb(8, 115, 191); fill-opacity: 0.2; stroke-width: 0;"/></g></g><g class="errorbars"/><g class="lines"><path class="js-line" d="M-230.51,365.91L-227.12,365L-225.42,378.18L-211.86,377.27L-210.17,377.27L-194.92,379.55L-193.22,378.64L-179.66,380L-177.97,379.55L-159.32,378.18L-157.63,374.55L-154.24,374.55L-152.54,371.36L-147.46,372.27L-145.76,375L-142.37,374.09L-140.68,377.27L-120.34,378.18L-118.64,379.09L-108.47,378.18L-106.78,378.18L-100,378.64L-98.31,378.18L-94.92,377.27L-93.22,376.36L-89.83,377.27L-88.14,375.45L-84.75,375.45L-83.05,375.91L-79.66,375.45L-77.97,374.09L-76.27,375L-74.58,374.09L-71.19,370.91L-69.49,371.82L-67.8,372.27L-66.1,369.09L-64.41,367.73L-62.71,368.64L-59.32,363.18L-57.63,360.45L-55.93,359.55L-54.24,360.91L-50.85,358.64L-49.15,354.55L-44.07,358.18L-42.37,355L-38.98,353.64L-37.29,356.82L-35.59,356.36L-33.9,347.73L-32.2,347.27L-30.51,344.55L-28.81,342.27L-27.12,325.91L-25.42,321.36L-23.73,320.45L-22.03,327.27L-20.34,328.18L-18.64,326.82L-16.95,328.64L-15.25,339.55L-13.56,344.09L-11.86,343.18L-10.17,345.45L-8.47,345L-6.78,350.45L-5.08,350.45L-3.39,354.09L-1.69,355.45L0,358.18L1.69,356.82L3.39,356.82L5.08,355.91L6.78,351.82L11.86,326.82L13.56,326.36L15.25,324.09L16.95,309.09L18.64,303.18L20.34,293.64L25.42,254.55L27.12,256.82L28.81,242.73L30.51,219.55L33.9,188.18L35.59,188.64L37.29,176.82L38.98,172.73L42.37,119.09L44.07,109.55L47.46,51.82L49.15,56.82L50.85,52.73L52.54,52.73L54.24,50L55.93,42.73L57.63,43.64L59.32,42.27L62.71,50.45L64.41,70.91L66.1,88.64L67.8,145.45L69.49,152.73L71.19,178.64L74.58,182.27L76.27,191.82L77.97,195.91L79.66,175.91L83.05,218.18L84.75,223.18L86.44,224.55L88.14,244.55L89.83,268.64L91.53,274.55L93.22,284.55L94.92,275.45L96.61,274.09L98.31,269.55L100,260L101.69,262.73L103.39,260.91L105.08,253.64L106.78,247.27L108.47,233.18L110.17,234.55L111.86,233.64L113.56,225.45L115.25,221.36L116.95,225L118.64,217.73L120.34,215L122.03,216.82L123.73,214.55L125.42,213.64L127.12,211.36L128.81,203.64L130.51,203.18L132.2,215.45L133.9,214.55L135.59,182.27L138.98,162.73L140.68,167.73L142.37,205.45L144.07,207.73L145.76,207.73L147.46,220.45L149.15,214.09L150.85,214.55L152.54,208.64L154.24,207.27L155.93,202.73L157.63,202.27L159.32,179.09L161.02,180.91L164.41,161.82L166.1,140.91L167.8,143.64L169.49,141.82L172.88,158.18L174.58,165L176.27,172.73L177.97,154.09L181.36,157.27L183.05,175.91L184.75,159.09L186.44,169.09L188.14,174.09L189.83,166.36L191.53,159.09L193.22,160L194.92,159.55L196.61,170L198.31,170.91L200,173.64L201.69,201.82L203.39,207.27L205.08,210.91L206.78,224.55L210.17,249.55L211.86,257.73L213.56,252.27L215.25,259.09L216.95,257.73L218.64,260.45L220.34,252.27L222.03,249.55L225.42,241.82L227.12,241.36L228.81,239.55L230.51,240L232.2,245.45L233.9,245.45L235.59,245.91L237.29,247.27L238.98,241.82L240.68,243.18L242.37,233.18L244.07,235.45L245.76,237.73L247.46,241.36L250.85,250.45L252.54,249.09L255.93,261.36L257.63,252.73L259.32,243.18L261.02,241.36L262.71,237.27L264.41,238.64L266.1,233.18L267.8,217.73L269.49,212.73L271.19,213.18L272.88,197.73L274.58,194.55L276.27,192.27L277.97,187.27L284.75,115L286.44,110.91L288.14,110.91L289.83,90.45L294.92,57.27L296.61,54.09L298.31,39.09L300,36.82L301.69,34.55L303.39,30L305.08,32.73L306.78,33.18L308.47,32.27L310.17,33.18L311.86,35.91L313.56,96.82L315.25,72.27L316.95,68.64L318.64,73.18L320.34,65.91L322.03,68.64L323.73,62.27L325.42,0L327.12,45.45L330.51,66.36L332.2,95L333.9,109.55L335.59,115.45L337.29,121.82L338.98,125L340.68,136.82L342.37,154.09L344.07,163.18L345.76,165.45L347.46,165.91L349.15,182.27L350.85,192.27L352.54,193.18L354.24,177.27L355.93,181.36L357.63,195.45L359.32,194.55L361.02,198.18L362.71,206.36L366.1,246.36L367.8,249.55L369.49,250.45L371.19,253.18L372.88,268.64L374.58,265.91L376.27,263.18L377.97,284.55L379.66,292.27L381.36,287.73L383.05,289.09L384.75,296.36L388.14,320.91L389.83,311.82L393.22,319.09L394.92,319.55L396.61,336.36L398.31,333.18L400,330.91L401.69,330.45L405.08,331.36L406.78,330.45L408.47,323.64L410.17,328.64L415.25,345.91L416.95,345.91L418.64,346.82L420.34,351.36L423.73,358.18L425.42,362.27L427.12,360.91L428.81,362.73L430.51,362.27L432.2,365.45L433.9,368.64L435.59,370L438.98,374.55L440.68,374.55L442.37,374.09L444.07,374.55L445.76,375L447.46,374.55L449.15,375L450.85,374.09L452.54,373.64L454.24,374.55L459.32,374.55L461.02,372.27L462.71,373.64L464.41,373.18L467.8,372.73L469.49,372.27L471.19,372.73L472.88,374.55L474.58,373.18L476.27,373.64L477.97,373.18L479.66,371.82L481.36,369.55L483.05,370.45L486.44,365.91L488.14,365.45L491.53,365.91L493.22,363.64L498.31,329.09L500,327.73L501.69,325.91L503.39,321.82L505.08,320.45L506.78,326.36L510.17,337.73L511.86,336.36L513.56,338.18L515.25,335L516.95,330.91L518.64,329.55L520.34,331.82L522.03,331.36L523.73,328.64L525.42,327.73L528.81,326.82L530.51,327.27L532.2,326.82L533.9,328.64L535.59,328.18L537.29,325.45L538.98,317.73L540.68,318.18L542.37,313.64L544.07,306.36L545.76,302.27L547.46,305L549.15,307.73L550.85,296.82L554.24,290.45L555.93,297.73L557.63,293.18L559.32,292.73L561.02,291.82L562.71,313.64L567.8,332.73L569.49,343.64L571.19,342.73L572.88,344.55L574.58,341.82L576.27,341.36L577.97,338.64L579.66,340.91L581.36,340.45L583.05,344.09L584.75,343.64L586.44,351.82L589.83,363.64L591.53,360.45L594.92,359.55L596.61,360L598.31,358.64L600,359.09L601.69,357.73L603.39,361.36L605.08,364.09L606.78,364.09L611.86,364.55L613.56,363.64L616.95,364.55L618.64,365.91L620.34,365.91L622.03,364.55L623.73,366.36L625.42,365.91L628.81,362.73L630.51,362.73L632.2,362.73L633.9,361.82L635.59,359.55L637.29,362.73L638.98,362.73L640.68,363.64L644.07,363.64L645.76,366.36L647.46,368.64L649.15,369.09L650.85,370.45L652.54,369.09L654.24,369.55L655.93,369.09L657.63,370.45L659.32,369.55L661.02,369.09L662.71,369.55L664.41,371.36L666.1,370.45L667.8,370.45L669.49,371.82L671.19,364.09" style="vector-effect: non-scaling-stroke; fill: none; stroke: rgb(8, 115, 191); stroke-opacity: 1; stroke-width: 0.5px; opacity: 1;"/></g><g class="points"/><g class="text"/></g><g class="trace scatter trace2ee4c9" style="stroke-miterlimit: 2;"><g class="fills"><g><path class="js-fill" d="M688.14,380L671.19,380L671.19,364.09L674.58,360.45L676.27,354.55L677.97,351.82L679.66,351.36L681.36,344.55L683.05,343.64L684.75,335.91L686.44,337.73L688.14,330.45" style="fill: rgb(8, 115, 191); fill-opacity: 0.4; stroke-width: 0;"/></g></g><g class="errorbars"/><g class="lines"><path class="js-line" d="M671.19,364.09L674.58,360.45L676.27,354.55L677.97,351.82L679.66,351.36L681.36,344.55L683.05,343.64L684.75,335.91L686.44,337.73L688.14,330.45" style="vector-effect: non-scaling-stroke; fill: none; stroke: rgb(8, 115, 191); stroke-opacity: 1; stroke-width: 2px; opacity: 1;"/></g><g class="points"/><g class="text"/></g><g class="trace scatter traceb1adbc" style="stroke-miterlimit: 2; opacity: 1;"><g class="fills"/><g class="errorbars"/><g class="lines"/><g class="points"><path class="point" transform="translate(688.14,330.45)" d="M15,0A15,15 0 1,1 0,-15A15,15 0 0,1 15,0Z" style="opacity: 1; stroke-width: 0px; fill: rgb(8, 115, 191); fill-opacity: 1;"/></g><g class="text"/></g></g></g><g class="overplot"/><path class="xlines-above crisp" style="fill: none; stroke-width: 1px; stroke: rgb(0, 0, 0); stroke-opacity: 0;" d=""/><path class="ylines-above crisp" style="fill: none;" d="M0,0"/><g class="overlines-above"/><g class="xaxislayer-above"><path class="xtick ticks crisp" d="M0,450v-5" transform="translate(105.93,0)" style="stroke: rgb(68, 68, 68); stroke-opacity: 1; stroke-width: 1px;"/><path class="xtick ticks crisp" d="M0,450v-5" transform="translate(209.32,0)" style="stroke: rgb(68, 68, 68); stroke-opacity: 1; stroke-width: 1px;"/><path class="xtick ticks crisp" d="M0,450v-5" transform="translate(309.32,0)" style="stroke: rgb(68, 68, 68); stroke-opacity: 1; stroke-width: 1px;"/><path class="xtick ticks crisp" d="M0,450v-5" transform="translate(412.71,0)" style="stroke: rgb(68, 68, 68); stroke-opacity: 1; stroke-width: 1px;"/><path class="xtick ticks crisp" d="M0,450v-5" transform="translate(516.1,0)" style="stroke: rgb(68, 68, 68); stroke-opacity: 1; stroke-width: 1px;"/><path class="xtick ticks crisp" d="M0,450v-5" transform="translate(621.19,0)" style="stroke: rgb(68, 68, 68); stroke-opacity: 1; stroke-width: 1px;"/><path class="xtick ticks crisp" d="M0,450v-5" transform="translate(724.58,0)" style="stroke: rgb(68, 68, 68); stroke-opacity: 1; stroke-width: 1px;"/><g class="xtick"><text text-anchor="middle" x="0" y="469" transform="translate(105.93,0)" style="font-family: 'Open Sans', verdana, arial, sans-serif; font-size: 18px; fill: rgb(42, 63, 95); fill-opacity: 1; white-space: pre;">01/11</text></g><g class="xtick"><text text-anchor="middle" x="0" y="469" transform="translate(209.32,0)" style="font-family: 'Open Sans', verdana, arial, sans-serif; font-size: 18px; fill: rgb(42, 63, 95); fill-opacity: 1; white-space: pre;">01/01</text></g><g class="xtick"><text text-anchor="middle" x="0" y="469" transform="translate(309.32,0)" style="font-family: 'Open Sans', verdana, arial, sans-serif; font-size: 18px; fill: rgb(42, 63, 95); fill-opacity: 1; white-space: pre;">01/03</text></g><g class="xtick"><text text-anchor="middle" x="0" y="469" transform="translate(412.71,0)" style="font-family: 'Open Sans', verdana, arial, sans-serif; font-size: 18px; fill: rgb(42, 63, 95); fill-opacity: 1; white-space: pre;">01/05</text></g><g class="xtick"><text text-anchor="middle" x="0" y="469" transform="translate(516.1,0)" style="font-family: 'Open Sans', verdana, arial, sans-serif; font-size: 18px; fill: rgb(42, 63, 95); fill-opacity: 1; white-space: pre;">01/07</text></g><g class="xtick"><text text-anchor="middle" x="0" y="469" transform="translate(621.19,0)" style="font-family: 'Open Sans', verdana, arial, sans-serif; font-size: 18px; fill: rgb(42, 63, 95); fill-opacity: 1; white-space: pre;">01/09</text></g><g class="xtick"><text text-anchor="middle" x="0" y="469" transform="translate(724.58,0)" style="font-family: 'Open Sans', verdana, arial, sans-serif; font-size: 18px; fill: rgb(42, 63, 95); fill-opacity: 1; white-space: pre;">01/11</text></g></g><g class="yaxislayer-above"/><g class="overaxes-above"/></g></g><g class="polarlayer"/><g class="ternarylayer"/><g class="geolayer"/><g class="funnelarealayer"/><g class="pielayer"/><g class="treemaplayer"/><g class="sunburstlayer"/><g class="glimages"/><defs id="topdefs-0f4cf6"><g class="clips"/></defs><g class="layer-above"><g class="imagelayer"/><g class="shapelayer"><path data-index="0" fill-rule="evenodd" d="M-902.54,404.64L336.44,404.64" clip-path="url('#clip0f4cf6xy')" style="opacity: 1; stroke: rgb(255, 0, 0); stroke-opacity: 1; fill: rgb(0, 0, 0); fill-opacity: 0; stroke-dasharray: 3px, 3px; stroke-width: 1.5px;"/></g></g><g class="infolayer"><g class="g-gtitle"><text class="gtitle" x="375" y="25" text-anchor="middle" dy="0.7em" style="font-family: 'Open Sans', verdana, arial, sans-serif; font-size: 50px; fill: rgb(42, 63, 95); opacity: 1; font-weight: normal; white-space: pre;"><tspan style="font-weight:bold">Nièvre (58)</tspan></text></g><g class="g-xtitle"/><g class="annotation" data-index="0" style="opacity: 1;"><g class="annotation-text-g" transform="rotate(0,696.14,340.45)"><g class="cursor-pointer" transform="translate(653, 304)"><rect class="bg" x="0.5" y="0.5" width="86" height="71" style="stroke-width: 1px; stroke: rgb(0, 0, 0); stroke-opacity: 0; fill: rgb(255, 255, 255); fill-opacity: 0.6;"/><text class="annotation-text" text-anchor="middle" x="43.53125" y="55.5" style="font-family: 'Open Sans', verdana, arial, sans-serif; font-size: 50px; fill: rgb(8, 115, 191); fill-opacity: 1; white-space: pre;"> <tspan style="font-weight:bold">54 </tspan></text></g></g><g class="annotation-arrow-g" style="opacity: 1;"><path d="M724.54,375.95L736.14,390.45" style="stroke-width: 1px; stroke: rgb(8, 115, 191); stroke-opacity: 1; stroke-dasharray: 0px, 0px, 18.5691px, 18.5691px;"/></g></g></g></svg>