<svg class="main-svg" xmlns="http://www.w3.org/2000/svg" xmlns:xlink="http://www.w3.org/1999/xlink" width="1125" height="750" style="" viewBox="0 0 750 500"><rect x="0" y="0" width="750" height="500" style="fill: rgb(0, 0, 0); fill-opacity: 0;"/><defs id="defs-283e58"><g class="clips"><clipPath id="clip283e58xyplot" class="plotclip"><rect width="677" height="380"/></clipPath><clipPath class="axesclip" id="clip283e58x"><rect x="50" y="0" width="677" height="500"/></clipPath><clipPath class="axesclip" id="clip283e58y"><rect x="0" y="70" width="750" height="380"/></clipPath><clipPath class="axesclip" id="clip283e58xy"><rect x="50" y="70" width="677" height="380"/></clipPath></g><g class="gradients"/></defs><g class="bglayer"><rect class="bg" x="50" y="70" width="677" height="380" style="fill: rgb(0, 0, 0); fill-opacity: 0; stroke-width: 0;"/></g><g class="layer-below"><g class="imagelayer"/><g class="shapelayer"/></g><g class="cartesianlayer"><g class="subplot xy"><g class="layer-subplot"><g class="shapelayer"/><g class="imagelayer"/></g><g class="gridlayer"><g class="x"><path class="xgrid crisp" transform="translate(52.11,0)" d="M0,70v380" style="stroke: rgb(255, 255, 255); stroke-opacity: 1; stroke-width: 1px;"/><path class="xgrid crisp" transform="translate(149.28,0)" d="M0,70v380" style="stroke: rgb(255, 255, 255); stroke-opacity: 1; stroke-width: 1px;"/><path class="xgrid crisp" transform="translate(244.33,0)" d="M0,70v380" style="stroke: rgb(255, 255, 255); stroke-opacity: 1; stroke-width: 1px;"/><path class="xgrid crisp" transform="translate(340.44,0)" d="M0,70v380" style="stroke: rgb(255, 255, 255); stroke-opacity: 1; stroke-width: 1px;"/><path class="xgrid crisp" transform="translate(437.61,0)" d="M0,70v380" style="stroke: rgb(255, 255, 255); stroke-opacity: 1; stroke-width: 1px;"/><path class="xgrid crisp" transform="translate(534.78,0)" d="M0,70v380" style="stroke: rgb(255, 255, 255); stroke-opacity: 1; stroke-width: 1px;"/><path class="xgrid crisp" transform="translate(629.83,0)" d="M0,70v380" style="stroke: rgb(255, 255, 255); stroke-opacity: 1; stroke-width: 1px;"/><path class="xgrid crisp" transform="translate(725.94,0)" d="M0,70v380" style="stroke: rgb(255, 255, 255); stroke-opacity: 1; stroke-width: 1px;"/></g><g class="y"/></g><g class="zerolinelayer"/><path class="xlines-below"/><path class="ylines-below"/><g class="overlines-below"/><g class="xaxislayer-below"/><g class="yaxislayer-below"/><g class="overaxes-below"/><g class="plot" transform="translate(50, 70)" clip-path="url('#clip283e58xyplot')"><g class="scatterlayer mlayer"><g class="trace scatter trace4d7ba4" style="stroke-miterlimit: 2;"><g class="fills"><g><path class="js-fill" d="M659.05,380L-143.64,380L-143.64,378.17L-137.3,377.51L-136.24,378.2L-126.74,379.61L-125.68,379.63L-101.39,379.88L-100.34,379.84L-62.31,379.33L-61.26,379.05L-31.68,378.11L-30.63,377.85L-25.35,377.69L-24.29,377.22L-7.39,375.72L-6.34,375.78L-2.11,376.86L-1.06,377.06L3.17,375.98L4.22,375.56L11.62,370.45L12.67,369.21L14.79,366.64L15.84,366.43L17.95,365.99L19.01,365.3L21.12,365.36L22.18,365.22L25.35,363.63L26.4,362.86L28.52,361.18L29.57,358.48L30.63,357.61L31.68,357.75L34.85,352.8L35.91,352.36L38.02,354L39.08,353.9L41.19,356.29L42.25,360.59L43.3,360.59L44.36,362.34L47.53,364.4L48.58,366.76L49.64,366.21L50.7,367.91L52.81,369.51L53.86,369.6L55.98,371.91L57.03,371.85L59.15,373.31L60.2,373.33L61.26,373.31L62.31,374.08L77.1,374.46L78.16,374.04L87.66,376.25L88.72,376.84L94,375.07L95.05,374.4L102.45,373.79L103.5,372.72L108.78,373.17L109.84,373.21L117.23,373L118.29,373.1L121.46,373.12L122.51,372.84L125.68,372.82L126.74,372.7L128.85,372.27L129.91,372.17L135.19,371.44L136.24,371.85L140.47,373.37L141.53,373.29L143.64,373.15L144.69,372.52L146.81,371.08L147.86,370.75L149.98,370.65L151.03,370.16L154.2,369.84L155.26,368.68L159.48,367.87L160.54,367.18L167.93,366.19L168.99,365.34L172.15,365.05L173.21,362.88L175.32,360.61L176.38,360.12L178.49,358.97L179.55,358.71L180.6,359.17L181.66,358.66L189.05,356.74L190.11,356.96L192.22,356.7L193.28,357.67L194.33,357.71L195.39,361.14L196.45,361.3L197.5,360.39L201.73,359.44L202.78,355.48L203.84,354.77L204.9,355.7L207.01,355.83L208.06,354.93L209.12,354.97L210.18,355.91L211.23,357.61L212.29,357.67L219.68,363.41L220.74,364.4L228.13,368.52L229.19,369.49L236.58,370.02L237.64,369.29L238.69,369.29L239.75,370.18L243.97,369.7L245.03,369.92L246.09,369.88L247.14,371.18L252.42,372.44L253.48,372.62L254.54,372.05L255.59,372.5L258.76,373.59L259.82,374.2L261.93,374.59L262.98,375.27L267.21,376.94L268.27,376.9L271.43,377.89L272.49,378.05L285.16,378.78L286.22,378.52L295.73,377.2L296.78,377.4L301.01,377.2L302.06,376.51L305.23,375.96L306.29,374.93L309.46,373.27L310.51,372.7L312.62,372.37L313.68,371.1L314.74,370.71L315.79,369.51L318.96,368.4L320.02,368.34L322.13,367.73L323.19,368.46L324.24,368.62L325.3,367.85L327.41,366.96L328.47,367.08L332.69,362.38L333.75,362.15L334.8,362.13L335.86,360.67L340.08,359.72L341.14,359.48L344.31,359.88L345.37,360.69L354.87,366.96L355.93,366.72L358.04,367.61L359.1,369.15L365.43,372.74L366.49,372.86L372.83,373.06L373.88,373.59L378.11,375.46L379.16,375.42L385.5,376L386.56,376.07L390.78,376.69L391.84,376.57L397.12,376.13L398.17,376.15L409.79,373.92L410.85,373.98L414.02,374.08L415.07,374.24L416.13,374.2L417.18,375.17L420.35,374L421.41,373.81L423.52,373.85L424.58,371.89L427.75,373.77L428.8,372.23L430.91,371.77L431.97,371.68L435.14,367.43L436.2,368.18L438.31,367.75L439.36,366.29L444.64,359.88L445.7,359.72L446.76,357.89L447.81,357.81L449.93,355.95L450.98,356.11L452.04,354.93L453.09,355.1L455.21,352.68L456.26,352.8L458.37,352.03L459.43,352.64L462.6,352.56L463.66,351.87L464.71,350.86L465.77,351.1L469.99,351.47L471.05,349.84L473.16,344.85L474.22,346.92L475.27,345.46L476.33,331.22L480.55,263.65L481.61,262.76L482.67,259.23L483.72,227.77L485.83,197.31L486.89,188.25L487.95,178.06L489,158.35L490.06,156.95L491.12,159.45L492.17,160.5L493.23,157.07L494.28,152.37L495.34,142.27L497.45,133.79L498.51,113L503.79,38.11L504.85,36.69L506.96,10.38L508.01,5.05L510.13,0.67L511.18,0.75L512.24,0L513.29,4.48L515.41,18.39L516.46,32.25L518.58,65.93L519.63,72.12L522.8,163.38L523.86,185.47L525.97,215.42L527.02,216.62L529.14,246.72L530.19,255.15L532.31,270.1L533.36,272.69L534.42,273.53L535.47,278.45L537.59,285.92L538.64,287.8L540.76,292.85L541.81,293.48L544.98,287.3L546.04,281.78L547.09,277.68L548.15,276.57L549.2,275.64L550.26,270.99L555.54,244.77L556.6,243.98L558.71,225.36L559.77,218.06L562.93,197.35L563.99,196.38L568.22,143.2L569.27,135.37L570.33,133.69L571.38,134.34L572.44,129.05L573.5,128.66L574.55,129.31L575.61,137.1L577.72,144.99L578.78,145.58L580.89,162.1L581.95,165.57L583,164.76L584.06,166.99L586.17,169.75L587.23,180.66L592.51,224.47L593.56,224.59L594.62,261.36L595.68,256.31L598.84,271.86L599.9,275.03L600.96,275.78L602.01,258.52L604.12,287.76L605.18,294.48L607.29,304.82L608.35,305.47L610.46,317.76L611.52,319.52L613.63,324.55L614.69,325.42L616.8,326.58L617.85,328.81L622.08,335.52L623.14,335.69L625.25,340.21L626.3,342.03L628.42,346.15L629.47,347L630.53,347.17L631.59,349.52L633.7,351.87L634.75,355.22L635.81,353.9L636.87,354.24L641.09,353.66L642.15,349.29L643.2,349.82L644.26,349.09L645.32,349.07L646.37,355.89L648.48,345.18L649.54,342.12L651.65,337.37L652.71,337.23L653.76,324.41L654.82,326.28L659.05,319.69" style="fill: rgb(8, 115, 191); fill-opacity: 0.2; stroke-width: 0;"/></g></g><g class="errorbars"/><g class="lines"><path class="js-line" d="M-143.64,378.17L-137.3,377.51L-136.24,378.2L-126.74,379.61L-125.68,379.63L-101.39,379.88L-100.34,379.84L-62.31,379.33L-61.26,379.05L-31.68,378.11L-30.63,377.85L-25.35,377.69L-24.29,377.22L-7.39,375.72L-6.34,375.78L-2.11,376.86L-1.06,377.06L3.17,375.98L4.22,375.56L11.62,370.45L12.67,369.21L14.79,366.64L15.84,366.43L17.95,365.99L19.01,365.3L21.12,365.36L22.18,365.22L25.35,363.63L26.4,362.86L28.52,361.18L29.57,358.48L30.63,357.61L31.68,357.75L34.85,352.8L35.91,352.36L38.02,354L39.08,353.9L41.19,356.29L42.25,360.59L43.3,360.59L44.36,362.34L47.53,364.4L48.58,366.76L49.64,366.21L50.7,367.91L52.81,369.51L53.86,369.6L55.98,371.91L57.03,371.85L59.15,373.31L60.2,373.33L61.26,373.31L62.31,374.08L77.1,374.46L78.16,374.04L87.66,376.25L88.72,376.84L94,375.07L95.05,374.4L102.45,373.79L103.5,372.72L108.78,373.17L109.84,373.21L117.23,373L118.29,373.1L121.46,373.12L122.51,372.84L125.68,372.82L126.74,372.7L128.85,372.27L129.91,372.17L135.19,371.44L136.24,371.85L140.47,373.37L141.53,373.29L143.64,373.15L144.69,372.52L146.81,371.08L147.86,370.75L149.98,370.65L151.03,370.16L154.2,369.84L155.26,368.68L159.48,367.87L160.54,367.18L167.93,366.19L168.99,365.34L172.15,365.05L173.21,362.88L175.32,360.61L176.38,360.12L178.49,358.97L179.55,358.71L180.6,359.17L181.66,358.66L189.05,356.74L190.11,356.96L192.22,356.7L193.28,357.67L194.33,357.71L195.39,361.14L196.45,361.3L197.5,360.39L201.73,359.44L202.78,355.48L203.84,354.77L204.9,355.7L207.01,355.83L208.06,354.93L209.12,354.97L210.18,355.91L211.23,357.61L212.29,357.67L219.68,363.41L220.74,364.4L228.13,368.52L229.19,369.49L236.58,370.02L237.64,369.29L238.69,369.29L239.75,370.18L243.97,369.7L245.03,369.92L246.09,369.88L247.14,371.18L252.42,372.44L253.48,372.62L254.54,372.05L255.59,372.5L258.76,373.59L259.82,374.2L261.93,374.59L262.98,375.27L267.21,376.94L268.27,376.9L271.43,377.89L272.49,378.05L285.16,378.78L286.22,378.52L295.73,377.2L296.78,377.4L301.01,377.2L302.06,376.51L305.23,375.96L306.29,374.93L309.46,373.27L310.51,372.7L312.62,372.37L313.68,371.1L314.74,370.71L315.79,369.51L318.96,368.4L320.02,368.34L322.13,367.73L323.19,368.46L324.24,368.62L325.3,367.85L327.41,366.96L328.47,367.08L332.69,362.38L333.75,362.15L334.8,362.13L335.86,360.67L340.08,359.72L341.14,359.48L344.31,359.88L345.37,360.69L354.87,366.96L355.93,366.72L358.04,367.61L359.1,369.15L365.43,372.74L366.49,372.86L372.83,373.06L373.88,373.59L378.11,375.46L379.16,375.42L385.5,376L386.56,376.07L390.78,376.69L391.84,376.57L397.12,376.13L398.17,376.15L409.79,373.92L410.85,373.98L414.02,374.08L415.07,374.24L416.13,374.2L417.18,375.17L420.35,374L421.41,373.81L423.52,373.85L424.58,371.89L427.75,373.77L428.8,372.23L430.91,371.77L431.97,371.68L435.14,367.43L436.2,368.18L438.31,367.75L439.36,366.29L444.64,359.88L445.7,359.72L446.76,357.89L447.81,357.81L449.93,355.95L450.98,356.11L452.04,354.93L453.09,355.1L455.21,352.68L456.26,352.8L458.37,352.03L459.43,352.64L462.6,352.56L463.66,351.87L464.71,350.86L465.77,351.1L469.99,351.47L471.05,349.84L473.16,344.85L474.22,346.92L475.27,345.46L476.33,331.22L480.55,263.65L481.61,262.76L482.67,259.23L483.72,227.77L485.83,197.31L486.89,188.25L487.95,178.06L489,158.35L490.06,156.95L491.12,159.45L492.17,160.5L493.23,157.07L494.28,152.37L495.34,142.27L497.45,133.79L498.51,113L503.79,38.11L504.85,36.69L506.96,10.38L508.01,5.05L510.13,0.67L511.18,0.75L512.24,0L513.29,4.48L515.41,18.39L516.46,32.25L518.58,65.93L519.63,72.12L522.8,163.38L523.86,185.47L525.97,215.42L527.02,216.62L529.14,246.72L530.19,255.15L532.31,270.1L533.36,272.69L534.42,273.53L535.47,278.45L537.59,285.92L538.64,287.8L540.76,292.85L541.81,293.48L544.98,287.3L546.04,281.78L547.09,277.68L548.15,276.57L549.2,275.64L550.26,270.99L555.54,244.77L556.6,243.98L558.71,225.36L559.77,218.06L562.93,197.35L563.99,196.38L568.22,143.2L569.27,135.37L570.33,133.69L571.38,134.34L572.44,129.05L573.5,128.66L574.55,129.31L575.61,137.1L577.72,144.99L578.78,145.58L580.89,162.1L581.95,165.57L583,164.76L584.06,166.99L586.17,169.75L587.23,180.66L592.51,224.47L593.56,224.59L594.62,261.36L595.68,256.31L598.84,271.86L599.9,275.03L600.96,275.78L602.01,258.52L604.12,287.76L605.18,294.48L607.29,304.82L608.35,305.47L610.46,317.76L611.52,319.52L613.63,324.55L614.69,325.42L616.8,326.58L617.85,328.81L622.08,335.52L623.14,335.69L625.25,340.21L626.3,342.03L628.42,346.15L629.47,347L630.53,347.17L631.59,349.52L633.7,351.87L634.75,355.22L635.81,353.9L636.87,354.24L641.09,353.66L642.15,349.29L643.2,349.82L644.26,349.09L645.32,349.07L646.37,355.89L648.48,345.18L649.54,342.12L651.65,337.37L652.71,337.23L653.76,324.41L654.82,326.28L659.05,319.69" style="vector-effect: non-scaling-stroke; fill: none; stroke: rgb(8, 115, 191); stroke-opacity: 1; stroke-width: 0.5px; opacity: 1;"/></g><g class="points"/><g class="text"/></g><g class="trace scatter trace8e3050" style="stroke-miterlimit: 2;"><g class="fills"><g><path class="js-fill" d="M669.61,380L659.05,380L659.05,319.69L660.1,319.46L661.16,315.06L666.44,293.62L667.49,292.87L669.61,278.13" style="fill: rgb(8, 115, 191); fill-opacity: 0.4; stroke-width: 0;"/></g></g><g class="errorbars"/><g class="lines"><path class="js-line" d="M659.05,319.69L660.1,319.46L661.16,315.06L666.44,293.62L667.49,292.87L669.61,278.13" style="vector-effect: non-scaling-stroke; fill: none; stroke: rgb(8, 115, 191); stroke-opacity: 1; stroke-width: 2px; opacity: 1;"/></g><g class="points"/><g class="text"/></g><g class="trace scatter trace489608" style="stroke-miterlimit: 2; opacity: 1;"><g class="fills"/><g class="errorbars"/><g class="lines"/><g class="points"><path class="point" transform="translate(669.61,278.13)" d="M15,0A15,15 0 1,1 0,-15A15,15 0 0,1 15,0Z" style="opacity: 1; stroke-width: 0px; fill: rgb(8, 115, 191); fill-opacity: 1;"/></g><g class="text"/></g></g></g><g class="overplot"/><path class="xlines-above crisp" style="fill: none; stroke-width: 1px; stroke: rgb(0, 0, 0); stroke-opacity: 0;" d=""/><path class="ylines-above crisp" style="fill: none;" d="M0,0"/><g class="overlines-above"/><g class="xaxislayer-above"><path class="xtick ticks crisp" d="M0,450v-5" transform="translate(52.11,0)" style="stroke: rgb(68, 68, 68); stroke-opacity: 1; stroke-width: 1px;"/><path class="xtick ticks crisp" d="M0,450v-5" transform="translate(149.28,0)" style="stroke: rgb(68, 68, 68); stroke-opacity: 1; stroke-width: 1px;"/><path class="xtick ticks crisp" d="M0,450v-5" transform="translate(244.33,0)" style="stroke: rgb(68, 68, 68); stroke-opacity: 1; stroke-width: 1px;"/><path class="xtick ticks crisp" d="M0,450v-5" transform="translate(340.44,0)" style="stroke: rgb(68, 68, 68); stroke-opacity: 1; stroke-width: 1px;"/><path class="xtick ticks crisp" d="M0,450v-5" transform="translate(437.61,0)" style="stroke: rgb(68, 68, 68); stroke-opacity: 1; stroke-width: 1px;"/><path class="xtick ticks crisp" d="M0,450v-5" transform="translate(534.78,0)" style="stroke: rgb(68, 68, 68); stroke-opacity: 1; stroke-width: 1px;"/><path class="xtick ticks crisp" d="M0,450v-5" transform="translate(629.83,0)" style="stroke: rgb(68, 68, 68); stroke-opacity: 1; stroke-width: 1px;"/><path class="xtick ticks crisp" d="M0,450v-5" transform="translate(725.94,0)" style="stroke: rgb(68, 68, 68); stroke-opacity: 1; stroke-width: 1px;"/><g class="xtick"><text text-anchor="middle" x="0" y="469" transform="translate(52.11,0)" style="font-family: 'Open Sans', verdana, arial, sans-serif; font-size: 18px; fill: rgb(42, 63, 95); fill-opacity: 1; white-space: pre;">01/10</text></g><g class="xtick"><text text-anchor="middle" x="0" y="469" transform="translate(149.28,0)" style="font-family: 'Open Sans', verdana, arial, sans-serif; font-size: 18px; fill: rgb(42, 63, 95); fill-opacity: 1; white-space: pre;">01/01</text></g><g class="xtick"><text text-anchor="middle" x="0" y="469" transform="translate(244.33,0)" style="font-family: 'Open Sans', verdana, arial, sans-serif; font-size: 18px; fill: rgb(42, 63, 95); fill-opacity: 1; white-space: pre;">01/04</text></g><g class="xtick"><text text-anchor="middle" x="0" y="469" transform="translate(340.44,0)" style="font-family: 'Open Sans', verdana, arial, sans-serif; font-size: 18px; fill: rgb(42, 63, 95); fill-opacity: 1; white-space: pre;">01/07</text></g><g class="xtick"><text text-anchor="middle" x="0" y="469" transform="translate(437.61,0)" style="font-family: 'Open Sans', verdana, arial, sans-serif; font-size: 18px; fill: rgb(42, 63, 95); fill-opacity: 1; white-space: pre;">01/10</text></g><g class="xtick"><text text-anchor="middle" x="0" y="469" transform="translate(534.78,0)" style="font-family: 'Open Sans', verdana, arial, sans-serif; font-size: 18px; fill: rgb(42, 63, 95); fill-opacity: 1; white-space: pre;">01/01</text></g><g class="xtick"><text text-anchor="middle" x="0" y="469" transform="translate(629.83,0)" style="font-family: 'Open Sans', verdana, arial, sans-serif; font-size: 18px; fill: rgb(42, 63, 95); fill-opacity: 1; white-space: pre;">01/04</text></g><g class="xtick"><text text-anchor="middle" x="0" y="469" transform="translate(725.94,0)" style="font-family: 'Open Sans', verdana, arial, sans-serif; font-size: 18px; fill: rgb(42, 63, 95); fill-opacity: 1; white-space: pre;">01/07</text></g></g><g class="yaxislayer-above"/><g class="overaxes-above"/></g></g><g class="polarlayer"/><g class="ternarylayer"/><g class="geolayer"/><g class="funnelarealayer"/><g class="pielayer"/><g class="treemaplayer"/><g class="sunburstlayer"/><g class="glimages"/><defs id="topdefs-283e58"><g class="clips"/></defs><g class="layer-above"><g class="imagelayer"/><g class="shapelayer"><path data-index="0" fill-rule="evenodd" d="M-543.56,443.95L228.49,443.95" clip-path="url('#clip283e58xy')" style="opacity: 1; stroke: rgb(255, 0, 0); stroke-opacity: 1; fill: rgb(0, 0, 0); fill-opacity: 0; stroke-dasharray: 3px, 3px; stroke-width: 1.5px;"/></g></g><g class="infolayer"><g class="g-gtitle"><text class="gtitle" x="375" y="25" text-anchor="middle" dy="0.7em" style="font-family: 'Open Sans', verdana, arial, sans-serif; font-size: 50px; fill: rgb(42, 63, 95); opacity: 1; font-weight: normal; white-space: pre;"><tspan style="font-weight:bold">Côtes-d'armor (22)</tspan></text></g><g class="g-xtitle"/><g class="annotation" data-index="0" style="opacity: 1;"><g class="annotation-text-g" transform="rotate(0,677.61,288.13)"><g class="cursor-pointer" transform="translate(620, 252)"><rect class="bg" x="0.5" y="0.5" width="115" height="71" style="stroke-width: 1px; stroke: rgb(0, 0, 0); stroke-opacity: 0; fill: rgb(255, 255, 255); fill-opacity: 0.6;"/><text class="annotation-text" text-anchor="middle" x="57.8125" y="55.5" style="font-family: 'Open Sans', verdana, arial, sans-serif; font-size: 50px; fill: rgb(8, 115, 191); fill-opacity: 1; white-space: pre;"> <tspan style="font-weight:bold">842 </tspan></text></g></g><g class="annotation-arrow-g" style="opacity: 1;"><path d="M706.01,323.63L717.61,338.13" style="stroke-width: 1px; stroke: rgb(8, 115, 191); stroke-opacity: 1; stroke-dasharray: 0px, 0px, 18.569px, 18.569px;"/></g></g></g></svg>