<svg class="main-svg" xmlns="http://www.w3.org/2000/svg" xmlns:xlink="http://www.w3.org/1999/xlink" width="1125" height="750" style="" viewBox="0 0 750 500"><rect x="0" y="0" width="750" height="500" style="fill: rgb(0, 0, 0); fill-opacity: 0;"/><defs id="defs-f510a6"><g class="clips"><clipPath id="clipf510a6xyplot" class="plotclip"><rect width="700" height="380"/></clipPath><clipPath class="axesclip" id="clipf510a6x"><rect x="50" y="0" width="700" height="500"/></clipPath><clipPath class="axesclip" id="clipf510a6y"><rect x="0" y="70" width="750" height="380"/></clipPath><clipPath class="axesclip" id="clipf510a6xy"><rect x="50" y="70" width="700" height="380"/></clipPath></g><g class="gradients"/></defs><g class="bglayer"><rect class="bg" x="50" y="70" width="700" height="380" style="fill: rgb(0, 0, 0); fill-opacity: 0; stroke-width: 0;"/></g><g class="layer-below"><g class="imagelayer"/><g class="shapelayer"/></g><g class="cartesianlayer"><g class="subplot xy"><g class="layer-subplot"><g class="shapelayer"/><g class="imagelayer"/></g><g class="gridlayer"><g class="x"><path class="xgrid crisp" transform="translate(92.62,0)" d="M0,70v380" style="stroke: rgb(255, 255, 255); stroke-opacity: 1; stroke-width: 1px;"/><path class="xgrid crisp" transform="translate(171.4,0)" d="M0,70v380" style="stroke: rgb(255, 255, 255); stroke-opacity: 1; stroke-width: 1px;"/><path class="xgrid crisp" transform="translate(247.6,0)" d="M0,70v380" style="stroke: rgb(255, 255, 255); stroke-opacity: 1; stroke-width: 1px;"/><path class="xgrid crisp" transform="translate(326.38,0)" d="M0,70v380" style="stroke: rgb(255, 255, 255); stroke-opacity: 1; stroke-width: 1px;"/><path class="xgrid crisp" transform="translate(405.17,0)" d="M0,70v380" style="stroke: rgb(255, 255, 255); stroke-opacity: 1; stroke-width: 1px;"/><path class="xgrid crisp" transform="translate(485.24,0)" d="M0,70v380" style="stroke: rgb(255, 255, 255); stroke-opacity: 1; stroke-width: 1px;"/><path class="xgrid crisp" transform="translate(564.02,0)" d="M0,70v380" style="stroke: rgb(255, 255, 255); stroke-opacity: 1; stroke-width: 1px;"/><path class="xgrid crisp" transform="translate(642.8,0)" d="M0,70v380" style="stroke: rgb(255, 255, 255); stroke-opacity: 1; stroke-width: 1px;"/><path class="xgrid crisp" transform="translate(719,0)" d="M0,70v380" style="stroke: rgb(255, 255, 255); stroke-opacity: 1; stroke-width: 1px;"/></g><g class="y"/></g><g class="zerolinelayer"/><path class="xlines-below"/><path class="ylines-below"/><g class="overlines-below"/><g class="xaxislayer-below"/><g class="yaxislayer-below"/><g class="overaxes-below"/><g class="plot" transform="translate(50, 70)" clip-path="url('#clipf510a6xyplot')"><g class="scatterlayer mlayer"><g class="trace scatter trace4db60e" style="stroke-miterlimit: 2;"><g class="fills"><g><path class="js-fill" d="M678.04,380L-175.65,380L-175.65,379.46L-161.44,379.25L-160.15,379.25L-136.9,379.82L-135.61,379.78L-85.24,379.68L-83.95,379.71L-59.41,377.81L-58.12,377.6L-54.24,377.2L-52.95,377.06L-31,377.03L-29.7,376.49L-23.25,375.2L-21.96,375.05L-18.08,375.52L-16.79,374.95L-10.33,374.45L-9.04,374.52L-5.17,374.7L-3.87,374.48L-1.29,374.45L0,373.44L2.58,372.94L3.87,371.51L5.17,370.75L6.46,368.93L10.33,364.52L11.62,364.55L14.21,363.26L15.5,362.58L19.37,359.65L20.66,359L27.12,342.3L28.41,340.04L29.7,339.65L31,336.24L34.87,326.71L36.16,327.5L37.45,328.76L38.75,328.97L42.62,331.98L43.91,335.31L46.49,336.96L47.79,337.14L50.37,343.77L51.66,350.61L52.95,349.68L54.24,351.62L55.54,352.73L56.83,352.8L58.12,352.84L59.41,353.91L60.7,351.37L61.99,354.84L65.87,355.67L67.16,357.71L69.74,359.65L71.03,361.26L72.32,363.12L73.62,363.26L76.2,363.91L77.49,365.52L81.37,366.1L82.66,366.63L86.53,366.06L87.82,365.38L91.7,365.31L92.99,365.31L95.57,364.23L96.86,363.91L100.74,360.79L102.03,360.76L103.32,361.4L104.61,359.75L105.9,358.14L107.2,358.75L108.49,362.23L109.78,362.05L112.36,361.83L113.65,363.26L114.94,364.2L116.24,363.52L117.53,363.26L118.82,361.83L123.99,360.86L125.28,361.44L126.57,358.39L127.86,359.65L130.44,360.43L131.73,361.47L133.03,362.37L134.32,361.87L138.19,363.55L139.48,363.16L144.65,362.51L145.94,362.12L148.52,362.58L149.82,361.26L152.4,360.29L153.69,360.51L156.27,359.93L157.56,359.9L158.86,360.15L160.15,359.5L161.44,360.29L162.73,358.25L165.31,358.75L166.61,358.14L167.9,358.61L169.19,360.33L171.77,362.66L173.06,362.19L176.94,362.87L178.23,362.33L179.52,362.19L180.81,363.34L183.39,362.94L184.69,363.19L187.27,361.65L188.56,358.57L191.14,355.78L192.44,355.24L198.89,351.08L200.18,350.61L201.48,350.4L202.77,348.72L209.23,345.45L210.52,345.38L213.1,341.33L214.39,341.33L216.97,338.61L218.27,337.32L219.56,337.1L220.85,335.89L227.31,331.19L228.6,331.08L231.18,327.68L232.47,327.5L235.06,329.01L236.35,329.62L237.64,330.51L238.93,340.62L241.51,344.31L242.8,346.64L245.39,350.11L246.68,349.61L247.97,344.09L249.26,347.46L251.85,348.25L253.14,349.04L257.01,351.62L258.3,351.12L259.59,351.58L260.89,353.09L262.18,353.73L263.47,352.8L266.05,353.66L267.34,355.63L271.22,358.03L272.51,361.51L273.8,361.4L275.09,362.51L280.26,367.28L281.55,367.1L282.84,367.28L284.13,368.6L286.72,369.46L288.01,370.97L291.88,370.15L293.17,370.25L295.76,370.29L297.05,368.89L300.92,370.18L302.21,372.37L306.09,373.51L307.38,374.34L309.96,374.3L311.25,373.51L313.84,374.55L315.13,375.05L319,376.34L320.3,376.63L322.88,377.28L324.17,377.96L331.92,379.18L333.21,379.14L346.13,379.18L347.42,379.18L369.37,378.35L370.66,377.81L374.54,376.99L375.83,376.27L379.7,374.37L381,373.8L382.29,373.84L383.58,372.98L386.16,372.08L387.45,371.87L393.91,371.58L395.2,371.72L404.24,370.4L405.54,369.07L413.28,367.71L414.58,368.82L432.66,370.79L433.95,370.54L444.28,374.41L445.57,374.3L449.45,375.56L450.74,375.34L458.49,374.23L459.78,374.41L463.65,375.16L464.94,375.02L473.99,375.23L475.28,375.7L480.44,377.06L481.73,376.92L485.61,376.99L486.9,377.06L490.77,377.28L492.07,377.13L503.69,377.46L504.98,376.85L508.86,376.56L510.15,376.81L519.19,376.99L520.48,376.56L523.06,375.7L524.35,375.2L528.23,373.05L529.52,371.97L533.39,366.42L534.69,365.13L535.98,364.91L537.27,361.97L543.73,353.8L545.02,353.7L547.6,346.96L548.89,344.99L552.77,338.25L554.06,338.32L555.35,338.07L556.64,336.82L557.93,336.89L559.23,337.96L561.81,339.47L563.1,338.79L566.97,341.33L568.27,340.87L570.85,343.38L572.14,343.16L573.43,344.02L574.72,343.3L577.31,339.22L578.6,333.88L579.89,335.74L581.18,333.84L586.35,275.18L587.64,260.85L590.22,253.46L591.51,223L594.1,188.67L595.39,181.58L596.68,173.48L597.97,154.92L600.55,150.98L601.85,150.22L607.01,102.49L608.3,97.19L612.18,46.84L613.47,30.14L616.05,16.88L617.34,15.09L618.63,0.22L619.93,0L622.51,13.62L623.8,14.73L626.38,23.29L627.68,42.61L631.55,77.4L632.84,95.61L634.13,109.19L635.42,112.56L639.3,188.42L640.59,206.77L643.17,234.97L644.46,238.74L647.05,264.18L648.34,273.03L652.21,292.67L653.51,295.82L657.38,310.94L658.67,314.85L661.25,319.47L662.55,319.94L663.84,323.45L665.13,324.56L667.71,325.53L669,327.14L670.3,324.92L671.59,324.71L674.17,321.98L675.46,320.05L678.04,315.57" style="fill: rgb(8, 115, 191); fill-opacity: 0.2; stroke-width: 0;"/></g></g><g class="errorbars"/><g class="lines"><path class="js-line" d="M-175.65,379.46L-161.44,379.25L-160.15,379.25L-136.9,379.82L-135.61,379.78L-85.24,379.68L-83.95,379.71L-59.41,377.81L-58.12,377.6L-54.24,377.2L-52.95,377.06L-31,377.03L-29.7,376.49L-23.25,375.2L-21.96,375.05L-18.08,375.52L-16.79,374.95L-10.33,374.45L-9.04,374.52L-5.17,374.7L-3.87,374.48L-1.29,374.45L0,373.44L2.58,372.94L3.87,371.51L5.17,370.75L6.46,368.93L10.33,364.52L11.62,364.55L14.21,363.26L15.5,362.58L19.37,359.65L20.66,359L27.12,342.3L28.41,340.04L29.7,339.65L31,336.24L34.87,326.71L36.16,327.5L37.45,328.76L38.75,328.97L42.62,331.98L43.91,335.31L46.49,336.96L47.79,337.14L50.37,343.77L51.66,350.61L52.95,349.68L54.24,351.62L55.54,352.73L56.83,352.8L58.12,352.84L59.41,353.91L60.7,351.37L61.99,354.84L65.87,355.67L67.16,357.71L69.74,359.65L71.03,361.26L72.32,363.12L73.62,363.26L76.2,363.91L77.49,365.52L81.37,366.1L82.66,366.63L86.53,366.06L87.82,365.38L91.7,365.31L92.99,365.31L95.57,364.23L96.86,363.91L100.74,360.79L102.03,360.76L103.32,361.4L104.61,359.75L105.9,358.14L107.2,358.75L108.49,362.23L109.78,362.05L112.36,361.83L113.65,363.26L114.94,364.2L116.24,363.52L117.53,363.26L118.82,361.83L123.99,360.86L125.28,361.44L126.57,358.39L127.86,359.65L130.44,360.43L131.73,361.47L133.03,362.37L134.32,361.87L138.19,363.55L139.48,363.16L144.65,362.51L145.94,362.12L148.52,362.58L149.82,361.26L152.4,360.29L153.69,360.51L156.27,359.93L157.56,359.9L158.86,360.15L160.15,359.5L161.44,360.29L162.73,358.25L165.31,358.75L166.61,358.14L167.9,358.61L169.19,360.33L171.77,362.66L173.06,362.19L176.94,362.87L178.23,362.33L179.52,362.19L180.81,363.34L183.39,362.94L184.69,363.19L187.27,361.65L188.56,358.57L191.14,355.78L192.44,355.24L198.89,351.08L200.18,350.61L201.48,350.4L202.77,348.72L209.23,345.45L210.52,345.38L213.1,341.33L214.39,341.33L216.97,338.61L218.27,337.32L219.56,337.1L220.85,335.89L227.31,331.19L228.6,331.08L231.18,327.68L232.47,327.5L235.06,329.01L236.35,329.62L237.64,330.51L238.93,340.62L241.51,344.31L242.8,346.64L245.39,350.11L246.68,349.61L247.97,344.09L249.26,347.46L251.85,348.25L253.14,349.04L257.01,351.62L258.3,351.12L259.59,351.58L260.89,353.09L262.18,353.73L263.47,352.8L266.05,353.66L267.34,355.63L271.22,358.03L272.51,361.51L273.8,361.4L275.09,362.51L280.26,367.28L281.55,367.1L282.84,367.28L284.13,368.6L286.72,369.46L288.01,370.97L291.88,370.15L293.17,370.25L295.76,370.29L297.05,368.89L300.92,370.18L302.21,372.37L306.09,373.51L307.38,374.34L309.96,374.3L311.25,373.51L313.84,374.55L315.13,375.05L319,376.34L320.3,376.63L322.88,377.28L324.17,377.96L331.92,379.18L333.21,379.14L346.13,379.18L347.42,379.18L369.37,378.35L370.66,377.81L374.54,376.99L375.83,376.27L379.7,374.37L381,373.8L382.29,373.84L383.58,372.98L386.16,372.08L387.45,371.87L393.91,371.58L395.2,371.72L404.24,370.4L405.54,369.07L413.28,367.71L414.58,368.82L432.66,370.79L433.95,370.54L444.28,374.41L445.57,374.3L449.45,375.56L450.74,375.34L458.49,374.23L459.78,374.41L463.65,375.16L464.94,375.02L473.99,375.23L475.28,375.7L480.44,377.06L481.73,376.92L485.61,376.99L486.9,377.06L490.77,377.28L492.07,377.13L503.69,377.46L504.98,376.85L508.86,376.56L510.15,376.81L519.19,376.99L520.48,376.56L523.06,375.7L524.35,375.2L528.23,373.05L529.52,371.97L533.39,366.42L534.69,365.13L535.98,364.91L537.27,361.97L543.73,353.8L545.02,353.7L547.6,346.96L548.89,344.99L552.77,338.25L554.06,338.32L555.35,338.07L556.64,336.82L557.93,336.89L559.23,337.96L561.81,339.47L563.1,338.79L566.97,341.33L568.27,340.87L570.85,343.38L572.14,343.16L573.43,344.02L574.72,343.3L577.31,339.22L578.6,333.88L579.89,335.74L581.18,333.84L586.35,275.18L587.64,260.85L590.22,253.46L591.51,223L594.1,188.67L595.39,181.58L596.68,173.48L597.97,154.92L600.55,150.98L601.85,150.22L607.01,102.49L608.3,97.19L612.18,46.84L613.47,30.14L616.05,16.88L617.34,15.09L618.63,0.22L619.93,0L622.51,13.62L623.8,14.73L626.38,23.29L627.68,42.61L631.55,77.4L632.84,95.61L634.13,109.19L635.42,112.56L639.3,188.42L640.59,206.77L643.17,234.97L644.46,238.74L647.05,264.18L648.34,273.03L652.21,292.67L653.51,295.82L657.38,310.94L658.67,314.85L661.25,319.47L662.55,319.94L663.84,323.45L665.13,324.56L667.71,325.53L669,327.14L670.3,324.92L671.59,324.71L674.17,321.98L675.46,320.05L678.04,315.57" style="vector-effect: non-scaling-stroke; fill: none; stroke: rgb(8, 115, 191); stroke-opacity: 1; stroke-width: 0.5px; opacity: 1;"/></g><g class="points"/><g class="text"/></g><g class="trace scatter tracecc0888" style="stroke-miterlimit: 2;"><g class="fills"><g><path class="js-fill" d="M690.96,380L678.04,380L678.04,315.57L680.63,315.14L681.92,309.55L687.08,288.69L688.38,281.85L689.67,279.84L690.96,266.15" style="fill: rgb(8, 115, 191); fill-opacity: 0.4; stroke-width: 0;"/></g></g><g class="errorbars"/><g class="lines"><path class="js-line" d="M678.04,315.57L680.63,315.14L681.92,309.55L687.08,288.69L688.38,281.85L689.67,279.84L690.96,266.15" style="vector-effect: non-scaling-stroke; fill: none; stroke: rgb(8, 115, 191); stroke-opacity: 1; stroke-width: 2px; opacity: 1;"/></g><g class="points"/><g class="text"/></g><g class="trace scatter trace39f4a5" style="stroke-miterlimit: 2; opacity: 1;"><g class="fills"/><g class="errorbars"/><g class="lines"/><g class="points"><path class="point" transform="translate(690.96,266.15)" d="M15,0A15,15 0 1,1 0,-15A15,15 0 0,1 15,0Z" style="opacity: 1; stroke-width: 0px; fill: rgb(8, 115, 191); fill-opacity: 1;"/></g><g class="text"/></g></g></g><g class="overplot"/><path class="xlines-above crisp" style="fill: none; stroke-width: 1px; stroke: rgb(0, 0, 0); stroke-opacity: 0;" d=""/><path class="ylines-above crisp" style="fill: none;" d="M0,0"/><g class="overlines-above"/><g class="xaxislayer-above"><path class="xtick ticks crisp" d="M0,450v-5" transform="translate(92.62,0)" style="stroke: rgb(68, 68, 68); stroke-opacity: 1; stroke-width: 1px;"/><path class="xtick ticks crisp" d="M0,450v-5" transform="translate(171.4,0)" style="stroke: rgb(68, 68, 68); stroke-opacity: 1; stroke-width: 1px;"/><path class="xtick ticks crisp" d="M0,450v-5" transform="translate(247.6,0)" style="stroke: rgb(68, 68, 68); stroke-opacity: 1; stroke-width: 1px;"/><path class="xtick ticks crisp" d="M0,450v-5" transform="translate(326.38,0)" style="stroke: rgb(68, 68, 68); stroke-opacity: 1; stroke-width: 1px;"/><path class="xtick ticks crisp" d="M0,450v-5" transform="translate(405.17,0)" style="stroke: rgb(68, 68, 68); stroke-opacity: 1; stroke-width: 1px;"/><path class="xtick ticks crisp" d="M0,450v-5" transform="translate(485.24,0)" style="stroke: rgb(68, 68, 68); stroke-opacity: 1; stroke-width: 1px;"/><path class="xtick ticks crisp" d="M0,450v-5" transform="translate(564.02,0)" style="stroke: rgb(68, 68, 68); stroke-opacity: 1; stroke-width: 1px;"/><path class="xtick ticks crisp" d="M0,450v-5" transform="translate(642.8,0)" style="stroke: rgb(68, 68, 68); stroke-opacity: 1; stroke-width: 1px;"/><path class="xtick ticks crisp" d="M0,450v-5" transform="translate(719,0)" style="stroke: rgb(68, 68, 68); stroke-opacity: 1; stroke-width: 1px;"/><g class="xtick"><text text-anchor="middle" x="0" y="469" transform="translate(92.62,0)" style="font-family: 'Open Sans', verdana, arial, sans-serif; font-size: 18px; fill: rgb(42, 63, 95); fill-opacity: 1; white-space: pre;">01/11</text></g><g class="xtick"><text text-anchor="middle" x="0" y="469" transform="translate(171.4,0)" style="font-family: 'Open Sans', verdana, arial, sans-serif; font-size: 18px; fill: rgb(42, 63, 95); fill-opacity: 1; white-space: pre;">01/01</text></g><g class="xtick"><text text-anchor="middle" x="0" y="469" transform="translate(247.6,0)" style="font-family: 'Open Sans', verdana, arial, sans-serif; font-size: 18px; fill: rgb(42, 63, 95); fill-opacity: 1; white-space: pre;">01/03</text></g><g class="xtick"><text text-anchor="middle" x="0" y="469" transform="translate(326.38,0)" style="font-family: 'Open Sans', verdana, arial, sans-serif; font-size: 18px; fill: rgb(42, 63, 95); fill-opacity: 1; white-space: pre;">01/05</text></g><g class="xtick"><text text-anchor="middle" x="0" y="469" transform="translate(405.17,0)" style="font-family: 'Open Sans', verdana, arial, sans-serif; font-size: 18px; fill: rgb(42, 63, 95); fill-opacity: 1; white-space: pre;">01/07</text></g><g class="xtick"><text text-anchor="middle" x="0" y="469" transform="translate(485.24,0)" style="font-family: 'Open Sans', verdana, arial, sans-serif; font-size: 18px; fill: rgb(42, 63, 95); fill-opacity: 1; white-space: pre;">01/09</text></g><g class="xtick"><text text-anchor="middle" x="0" y="469" transform="translate(564.02,0)" style="font-family: 'Open Sans', verdana, arial, sans-serif; font-size: 18px; fill: rgb(42, 63, 95); fill-opacity: 1; white-space: pre;">01/11</text></g><g class="xtick"><text text-anchor="middle" x="0" y="469" transform="translate(642.8,0)" style="font-family: 'Open Sans', verdana, arial, sans-serif; font-size: 18px; fill: rgb(42, 63, 95); fill-opacity: 1; white-space: pre;">01/01</text></g><g class="xtick"><text text-anchor="middle" x="0" y="469" transform="translate(719,0)" style="font-family: 'Open Sans', verdana, arial, sans-serif; font-size: 18px; fill: rgb(42, 63, 95); fill-opacity: 1; white-space: pre;">01/03</text></g></g><g class="yaxislayer-above"/><g class="overaxes-above"/></g></g><g class="polarlayer"/><g class="ternarylayer"/><g class="geolayer"/><g class="funnelarealayer"/><g class="pielayer"/><g class="treemaplayer"/><g class="sunburstlayer"/><g class="glimages"/><defs id="topdefs-f510a6"><g class="clips"/></defs><g class="layer-above"><g class="imagelayer"/><g class="shapelayer"><path data-index="0" fill-rule="evenodd" d="M-675.83,444.45L268.27,444.45" clip-path="url('#clipf510a6xy')" style="opacity: 1; stroke: rgb(255, 0, 0); stroke-opacity: 1; fill: rgb(0, 0, 0); fill-opacity: 0; stroke-dasharray: 3px, 3px; stroke-width: 1.5px;"/></g></g><g class="infolayer"><g class="g-gtitle"><text class="gtitle" x="375" y="25" text-anchor="middle" dy="0.7em" style="font-family: 'Open Sans', verdana, arial, sans-serif; font-size: 50px; fill: rgb(42, 63, 95); opacity: 1; font-weight: normal; white-space: pre;"><tspan style="font-weight:bold">Aube (10)</tspan></text></g><g class="g-xtitle"/><g class="annotation" data-index="0" style="opacity: 1;"><g class="annotation-text-g" transform="rotate(0,698.96,276.15)"><g class="cursor-pointer" transform="translate(627, 240)"><rect class="bg" x="0.5" y="0.5" width="143" height="71" style="stroke-width: 1px; stroke: rgb(0, 0, 0); stroke-opacity: 0; fill: rgb(255, 255, 255); fill-opacity: 0.6;"/><text class="annotation-text" text-anchor="middle" x="72.078125" y="55.5" style="font-family: 'Open Sans', verdana, arial, sans-serif; font-size: 50px; fill: rgb(8, 115, 191); fill-opacity: 1; white-space: pre;"> <tspan style="font-weight:bold">1025 </tspan></text></g></g><g class="annotation-arrow-g" style="opacity: 1;"><path d="M727.36,311.65L738.96,326.15" style="stroke-width: 1px; stroke: rgb(8, 115, 191); stroke-opacity: 1; stroke-dasharray: 0px, 0px, 18.5691px, 18.5691px;"/></g></g></g></svg>