<svg class="main-svg" xmlns="http://www.w3.org/2000/svg" xmlns:xlink="http://www.w3.org/1999/xlink" width="1125" height="750" style="" viewBox="0 0 750 500"><rect x="0" y="0" width="750" height="500" style="fill: rgb(0, 0, 0); fill-opacity: 0;"/><defs id="defs-c26a85"><g class="clips"><clipPath id="clipc26a85xyplot" class="plotclip"><rect width="700" height="380"/></clipPath><clipPath class="axesclip" id="clipc26a85x"><rect x="50" y="0" width="700" height="500"/></clipPath><clipPath class="axesclip" id="clipc26a85y"><rect x="0" y="70" width="750" height="380"/></clipPath><clipPath class="axesclip" id="clipc26a85xy"><rect x="50" y="70" width="700" height="380"/></clipPath></g><g class="gradients"/></defs><g class="bglayer"><rect class="bg" x="50" y="70" width="700" height="380" style="fill: rgb(0, 0, 0); fill-opacity: 0; stroke-width: 0;"/></g><g class="layer-below"><g class="imagelayer"/><g class="shapelayer"/></g><g class="cartesianlayer"><g class="subplot xy"><g class="layer-subplot"><g class="shapelayer"/><g class="imagelayer"/></g><g class="gridlayer"><g class="x"><path class="xgrid crisp" transform="translate(93.02000000000001,0)" d="M0,70v380" style="stroke: rgb(255, 255, 255); stroke-opacity: 1; stroke-width: 1px;"/><path class="xgrid crisp" transform="translate(172.53,0)" d="M0,70v380" style="stroke: rgb(255, 255, 255); stroke-opacity: 1; stroke-width: 1px;"/><path class="xgrid crisp" transform="translate(249.44,0)" d="M0,70v380" style="stroke: rgb(255, 255, 255); stroke-opacity: 1; stroke-width: 1px;"/><path class="xgrid crisp" transform="translate(328.96,0)" d="M0,70v380" style="stroke: rgb(255, 255, 255); stroke-opacity: 1; stroke-width: 1px;"/><path class="xgrid crisp" transform="translate(408.47,0)" d="M0,70v380" style="stroke: rgb(255, 255, 255); stroke-opacity: 1; stroke-width: 1px;"/><path class="xgrid crisp" transform="translate(489.29,0)" d="M0,70v380" style="stroke: rgb(255, 255, 255); stroke-opacity: 1; stroke-width: 1px;"/><path class="xgrid crisp" transform="translate(568.81,0)" d="M0,70v380" style="stroke: rgb(255, 255, 255); stroke-opacity: 1; stroke-width: 1px;"/><path class="xgrid crisp" transform="translate(648.32,0)" d="M0,70v380" style="stroke: rgb(255, 255, 255); stroke-opacity: 1; stroke-width: 1px;"/><path class="xgrid crisp" transform="translate(725.23,0)" d="M0,70v380" style="stroke: rgb(255, 255, 255); stroke-opacity: 1; stroke-width: 1px;"/></g><g class="y"/></g><g class="zerolinelayer"/><path class="xlines-below"/><path class="ylines-below"/><g class="overlines-below"/><g class="xaxislayer-below"/><g class="yaxislayer-below"/><g class="overaxes-below"/><g class="plot" transform="translate(50, 70)" clip-path="url('#clipc26a85xyplot')"><g class="scatterlayer mlayer"><g class="trace scatter tracee9b638" style="stroke-miterlimit: 2;"><g class="fills"><g><path class="js-fill" d="M677.84,380L-177.28,380L-177.28,377.96L-168.16,379.6L-166.85,379.74L-131.66,379.87L-130.35,379.87L-52.14,378.88L-50.84,378.42L-35.2,376.77L-33.89,376.84L-29.98,376.18L-28.68,376.64L-27.37,376.57L-26.07,375.32L-22.16,374.53L-20.86,372.16L-18.25,371.37L-16.95,372.36L-13.04,372.55L-11.73,374.14L-9.12,374.66L-7.82,374.99L-6.52,374.93L-5.21,375.72L-1.3,376.44L0,376.84L5.21,375.91L6.52,374.53L10.43,372.22L11.73,371.9L14.34,368.86L15.64,367.48L19.55,361.81L20.86,362.14L23.46,356.74L24.77,353.84L26.07,352.19L27.37,352.26L29.98,349.95L31.28,345.08L35.2,336.84L36.5,332.43L37.8,333.15L39.11,332.56L41.71,332.16L43.02,331.11L46.93,331.7L48.23,332.23L50.84,337.76L52.14,346L53.45,347.05L54.75,350.81L57.36,351.34L58.66,352.72L59.96,353.31L61.27,350.41L63.87,356.54L65.18,357.27L66.48,357.46L67.78,360.36L69.09,363.86L70.39,364.71L71.69,366.16L73,364.84L75.61,363.99L76.91,362.6L79.52,362.74L80.82,361.68L82.12,360.76L83.43,358.72L86.03,358.78L87.34,357.6L88.64,357L89.94,357.53L92.55,356.08L93.85,356.34L97.77,355.55L99.07,354.43L100.37,354.37L101.68,356.15L102.98,356.02L104.28,351.34L106.89,348.5L108.19,349.23L109.5,354.7L110.8,355.03L112.1,355.03L113.41,356.87L114.71,355.95L116.01,356.02L119.93,354.3L121.23,354.24L122.53,350.88L123.84,351.14L126.44,348.37L127.75,345.34L130.35,345.47L131.66,346.86L135.57,349.95L136.87,347.25L139.48,347.71L140.78,350.41L142.09,347.98L143.39,349.43L144.69,350.15L146,349.03L147.3,347.98L148.6,348.11L149.91,348.04L151.21,349.56L153.82,350.08L155.12,354.17L157.73,355.49L159.03,357.46L161.64,361.09L162.94,362.28L164.25,361.48L165.55,362.47L168.16,362.67L169.46,361.48L175.98,359.64L177.28,359.71L179.89,360.5L181.19,360.56L182.5,360.76L183.8,359.97L185.1,360.17L186.41,358.72L191.62,360.63L192.92,361.22L194.23,361.02L195.53,361.88L196.83,362.8L198.14,361.55L199.44,360.17L200.74,359.9L204.66,358.72L205.96,356.48L208.57,355.82L209.87,353.58L213.78,352.06L215.08,349.36L216.39,347.58L217.69,343.76L218.99,341.58L220.3,340.99L221.6,340.99L222.91,338.03L226.82,333.22L228.12,332.76L229.42,330.58L230.73,330.25L234.64,329.66L235.94,329.72L238.55,329.72L239.85,330.12L241.15,338.95L242.46,335.39L243.76,334.86L245.07,335.52L246.37,334.47L247.67,334.86L248.98,333.94L250.28,324.91L251.58,331.5L252.89,332.89L254.19,334.53L255.49,338.69L258.1,341.65L259.4,342.57L260.71,343.03L262.01,344.75L264.62,348.57L265.92,348.9L267.23,348.96L268.53,351.34L269.83,352.79L271.14,352.92L272.44,350.61L273.74,351.21L275.05,353.25L276.35,353.12L278.96,354.83L280.26,357.6L281.56,360.63L282.87,361.09L285.47,361.62L286.78,363.86L289.39,363.07L290.69,366.16L291.99,367.28L293.3,366.62L294.6,366.82L295.9,367.88L298.51,371.43L299.81,370.12L302.42,371.17L303.72,371.24L305.03,373.67L306.33,373.21L310.24,372.88L311.55,372.95L312.85,372.82L314.15,371.83L320.67,375.06L321.97,375.19L327.19,377.43L328.49,377.23L340.22,379.14L341.53,379.21L353.26,379.21L354.56,378.88L359.78,378.95L361.08,378.88L368.9,378.81L370.2,378.48L372.81,378.29L374.12,377.96L379.33,377.63L380.63,375.85L383.24,372.62L384.54,372.42L388.45,371.37L389.76,372.22L392.36,373.87L393.67,373.67L396.28,373.48L397.58,372.88L406.7,372.29L408.01,372.36L413.22,372.09L414.53,370.97L417.13,370.38L418.44,369.33L419.74,368.73L421.04,369.13L422.35,369.52L423.65,367.94L426.26,367.02L427.56,368.07L430.17,367.35L431.47,367.22L432.77,370.38L434.08,371.3L437.99,374.73L439.29,374.6L441.9,374.47L443.2,374.4L445.81,374.33L447.11,374.27L451.02,375.91L452.33,376.64L453.63,377.63L454.93,377.17L464.06,377.3L465.36,377.69L487.52,377.36L488.83,377.03L491.43,377.5L492.74,377.63L497.95,378.35L499.26,378.42L503.17,378.48L504.47,378.42L510.99,378.75L512.29,378.62L514.9,378.81L516.2,377.69L518.81,377.03L520.11,376.11L525.33,374.33L526.63,372.88L527.93,373.28L529.24,372.22L531.84,371.57L533.15,369.72L535.75,368.67L537.06,366.89L543.58,361.95L544.88,359.24L547.49,355.49L548.79,355.42L550.09,355.55L551.4,352.26L556.61,343.89L557.91,341.78L559.22,341.32L560.52,339.74L561.82,339.02L563.13,339.61L565.74,339.15L567.04,340.33L568.34,340.73L569.65,342.44L570.95,342.71L572.25,345.27L573.56,345.41L574.86,347.38L576.16,347.84L577.47,347.32L580.07,346.92L581.38,343.56L583.99,337.7L585.29,339.34L586.59,337.7L587.9,323.14L590.5,298.89L591.81,283.2L593.11,270.82L594.41,269.96L595.72,268.64L597.02,239.39L600.93,184.56L602.23,171.52L603.54,148.13L604.84,145.09L606.15,138.9L607.45,140.28L608.75,141.8L610.06,142L612.66,130.14L613.97,128.75L617.88,82.04L619.18,63.72L621.79,36.31L623.09,34.33L625.7,2.04L627,0L628.31,1.52L629.61,4.68L630.91,12.12L632.22,10.41L633.52,19.24L634.82,36.57L636.13,44.48L637.43,57.26L640.04,78.15L641.34,84.54L645.25,156.49L646.55,174.48L649.16,206.77L650.47,209.34L653.07,248.94L654.38,257.9L656.98,271.74L658.29,274.7L659.59,275.03L660.89,278.92L663.5,291.7L664.8,295.66L667.41,305.34L668.72,306.6L670.02,313.51L671.32,312.33L673.93,318.65L675.23,317.53L676.54,318.52L677.84,317.27" style="fill: rgb(8, 115, 191); fill-opacity: 0.2; stroke-width: 0;"/></g></g><g class="errorbars"/><g class="lines"><path class="js-line" d="M-177.28,377.96L-168.16,379.6L-166.85,379.74L-131.66,379.87L-130.35,379.87L-52.14,378.88L-50.84,378.42L-35.2,376.77L-33.89,376.84L-29.98,376.18L-28.68,376.64L-27.37,376.57L-26.07,375.32L-22.16,374.53L-20.86,372.16L-18.25,371.37L-16.95,372.36L-13.04,372.55L-11.73,374.14L-9.12,374.66L-7.82,374.99L-6.52,374.93L-5.21,375.72L-1.3,376.44L0,376.84L5.21,375.91L6.52,374.53L10.43,372.22L11.73,371.9L14.34,368.86L15.64,367.48L19.55,361.81L20.86,362.14L23.46,356.74L24.77,353.84L26.07,352.19L27.37,352.26L29.98,349.95L31.28,345.08L35.2,336.84L36.5,332.43L37.8,333.15L39.11,332.56L41.71,332.16L43.02,331.11L46.93,331.7L48.23,332.23L50.84,337.76L52.14,346L53.45,347.05L54.75,350.81L57.36,351.34L58.66,352.72L59.96,353.31L61.27,350.41L63.87,356.54L65.18,357.27L66.48,357.46L67.78,360.36L69.09,363.86L70.39,364.71L71.69,366.16L73,364.84L75.61,363.99L76.91,362.6L79.52,362.74L80.82,361.68L82.12,360.76L83.43,358.72L86.03,358.78L87.34,357.6L88.64,357L89.94,357.53L92.55,356.08L93.85,356.34L97.77,355.55L99.07,354.43L100.37,354.37L101.68,356.15L102.98,356.02L104.28,351.34L106.89,348.5L108.19,349.23L109.5,354.7L110.8,355.03L112.1,355.03L113.41,356.87L114.71,355.95L116.01,356.02L119.93,354.3L121.23,354.24L122.53,350.88L123.84,351.14L126.44,348.37L127.75,345.34L130.35,345.47L131.66,346.86L135.57,349.95L136.87,347.25L139.48,347.71L140.78,350.41L142.09,347.98L143.39,349.43L144.69,350.15L146,349.03L147.3,347.98L148.6,348.11L149.91,348.04L151.21,349.56L153.82,350.08L155.12,354.17L157.73,355.49L159.03,357.46L161.64,361.09L162.94,362.28L164.25,361.48L165.55,362.47L168.16,362.67L169.46,361.48L175.98,359.64L177.28,359.71L179.89,360.5L181.19,360.56L182.5,360.76L183.8,359.97L185.1,360.17L186.41,358.72L191.62,360.63L192.92,361.22L194.23,361.02L195.53,361.88L196.83,362.8L198.14,361.55L199.44,360.17L200.74,359.9L204.66,358.72L205.96,356.48L208.57,355.82L209.87,353.58L213.78,352.06L215.08,349.36L216.39,347.58L217.69,343.76L218.99,341.58L220.3,340.99L221.6,340.99L222.91,338.03L226.82,333.22L228.12,332.76L229.42,330.58L230.73,330.25L234.64,329.66L235.94,329.72L238.55,329.72L239.85,330.12L241.15,338.95L242.46,335.39L243.76,334.86L245.07,335.52L246.37,334.47L247.67,334.86L248.98,333.94L250.28,324.91L251.58,331.5L252.89,332.89L254.19,334.53L255.49,338.69L258.1,341.65L259.4,342.57L260.71,343.03L262.01,344.75L264.62,348.57L265.92,348.9L267.23,348.96L268.53,351.34L269.83,352.79L271.14,352.92L272.44,350.61L273.74,351.21L275.05,353.25L276.35,353.12L278.96,354.83L280.26,357.6L281.56,360.63L282.87,361.09L285.47,361.62L286.78,363.86L289.39,363.07L290.69,366.16L291.99,367.28L293.3,366.62L294.6,366.82L295.9,367.88L298.51,371.43L299.81,370.12L302.42,371.17L303.72,371.24L305.03,373.67L306.33,373.21L310.24,372.88L311.55,372.95L312.85,372.82L314.15,371.83L320.67,375.06L321.97,375.19L327.19,377.43L328.49,377.23L340.22,379.14L341.53,379.21L353.26,379.21L354.56,378.88L359.78,378.95L361.08,378.88L368.9,378.81L370.2,378.48L372.81,378.29L374.12,377.96L379.33,377.63L380.63,375.85L383.24,372.62L384.54,372.42L388.45,371.37L389.76,372.22L392.36,373.87L393.67,373.67L396.28,373.48L397.58,372.88L406.7,372.29L408.01,372.36L413.22,372.09L414.53,370.97L417.13,370.38L418.44,369.33L419.74,368.73L421.04,369.13L422.35,369.52L423.65,367.94L426.26,367.02L427.56,368.07L430.17,367.35L431.47,367.22L432.77,370.38L434.08,371.3L437.99,374.73L439.29,374.6L441.9,374.47L443.2,374.4L445.81,374.33L447.11,374.27L451.02,375.91L452.33,376.64L453.63,377.63L454.93,377.17L464.06,377.3L465.36,377.69L487.52,377.36L488.83,377.03L491.43,377.5L492.74,377.63L497.95,378.35L499.26,378.42L503.17,378.48L504.47,378.42L510.99,378.75L512.29,378.62L514.9,378.81L516.2,377.69L518.81,377.03L520.11,376.11L525.33,374.33L526.63,372.88L527.93,373.28L529.24,372.22L531.84,371.57L533.15,369.72L535.75,368.67L537.06,366.89L543.58,361.95L544.88,359.24L547.49,355.49L548.79,355.42L550.09,355.55L551.4,352.26L556.61,343.89L557.91,341.78L559.22,341.32L560.52,339.74L561.82,339.02L563.13,339.61L565.74,339.15L567.04,340.33L568.34,340.73L569.65,342.44L570.95,342.71L572.25,345.27L573.56,345.41L574.86,347.38L576.16,347.84L577.47,347.32L580.07,346.92L581.38,343.56L583.99,337.7L585.29,339.34L586.59,337.7L587.9,323.14L590.5,298.89L591.81,283.2L593.11,270.82L594.41,269.96L595.72,268.64L597.02,239.39L600.93,184.56L602.23,171.52L603.54,148.13L604.84,145.09L606.15,138.9L607.45,140.28L608.75,141.8L610.06,142L612.66,130.14L613.97,128.75L617.88,82.04L619.18,63.72L621.79,36.31L623.09,34.33L625.7,2.04L627,0L628.31,1.52L629.61,4.68L630.91,12.12L632.22,10.41L633.52,19.24L634.82,36.57L636.13,44.48L637.43,57.26L640.04,78.15L641.34,84.54L645.25,156.49L646.55,174.48L649.16,206.77L650.47,209.34L653.07,248.94L654.38,257.9L656.98,271.74L658.29,274.7L659.59,275.03L660.89,278.92L663.5,291.7L664.8,295.66L667.41,305.34L668.72,306.6L670.02,313.51L671.32,312.33L673.93,318.65L675.23,317.53L676.54,318.52L677.84,317.27" style="vector-effect: non-scaling-stroke; fill: none; stroke: rgb(8, 115, 191); stroke-opacity: 1; stroke-width: 0.5px; opacity: 1;"/></g><g class="points"/><g class="text"/></g><g class="trace scatter tracecd6cf9" style="stroke-miterlimit: 2;"><g class="fills"><g><path class="js-fill" d="M690.88,380L677.84,380L677.84,317.27L680.45,320.89L681.75,320.76L684.36,315.95L685.66,314.63L686.96,315.76L688.27,307.85L690.88,292.1" style="fill: rgb(8, 115, 191); fill-opacity: 0.4; stroke-width: 0;"/></g></g><g class="errorbars"/><g class="lines"><path class="js-line" d="M677.84,317.27L680.45,320.89L681.75,320.76L684.36,315.95L685.66,314.63L686.96,315.76L688.27,307.85L690.88,292.1" style="vector-effect: non-scaling-stroke; fill: none; stroke: rgb(8, 115, 191); stroke-opacity: 1; stroke-width: 2px; opacity: 1;"/></g><g class="points"/><g class="text"/></g><g class="trace scatter tracecc4353" style="stroke-miterlimit: 2; opacity: 1;"><g class="fills"/><g class="errorbars"/><g class="lines"/><g class="points"><path class="point" transform="translate(690.88,292.1)" d="M15,0A15,15 0 1,1 0,-15A15,15 0 0,1 15,0Z" style="opacity: 1; stroke-width: 0px; fill: rgb(8, 115, 191); fill-opacity: 1;"/></g><g class="text"/></g></g></g><g class="overplot"/><path class="xlines-above crisp" style="fill: none; stroke-width: 1px; stroke: rgb(0, 0, 0); stroke-opacity: 0;" d=""/><path class="ylines-above crisp" style="fill: none;" d="M0,0"/><g class="overlines-above"/><g class="xaxislayer-above"><path class="xtick ticks crisp" d="M0,450v-5" transform="translate(93.02000000000001,0)" style="stroke: rgb(68, 68, 68); stroke-opacity: 1; stroke-width: 1px;"/><path class="xtick ticks crisp" d="M0,450v-5" transform="translate(172.53,0)" style="stroke: rgb(68, 68, 68); stroke-opacity: 1; stroke-width: 1px;"/><path class="xtick ticks crisp" d="M0,450v-5" transform="translate(249.44,0)" style="stroke: rgb(68, 68, 68); stroke-opacity: 1; stroke-width: 1px;"/><path class="xtick ticks crisp" d="M0,450v-5" transform="translate(328.96,0)" style="stroke: rgb(68, 68, 68); stroke-opacity: 1; stroke-width: 1px;"/><path class="xtick ticks crisp" d="M0,450v-5" transform="translate(408.47,0)" style="stroke: rgb(68, 68, 68); stroke-opacity: 1; stroke-width: 1px;"/><path class="xtick ticks crisp" d="M0,450v-5" transform="translate(489.29,0)" style="stroke: rgb(68, 68, 68); stroke-opacity: 1; stroke-width: 1px;"/><path class="xtick ticks crisp" d="M0,450v-5" transform="translate(568.81,0)" style="stroke: rgb(68, 68, 68); stroke-opacity: 1; stroke-width: 1px;"/><path class="xtick ticks crisp" d="M0,450v-5" transform="translate(648.32,0)" style="stroke: rgb(68, 68, 68); stroke-opacity: 1; stroke-width: 1px;"/><path class="xtick ticks crisp" d="M0,450v-5" transform="translate(725.23,0)" style="stroke: rgb(68, 68, 68); stroke-opacity: 1; stroke-width: 1px;"/><g class="xtick"><text text-anchor="middle" x="0" y="469" transform="translate(93.02000000000001,0)" style="font-family: 'Open Sans', verdana, arial, sans-serif; font-size: 18px; fill: rgb(42, 63, 95); fill-opacity: 1; white-space: pre;">01/11</text></g><g class="xtick"><text text-anchor="middle" x="0" y="469" transform="translate(172.53,0)" style="font-family: 'Open Sans', verdana, arial, sans-serif; font-size: 18px; fill: rgb(42, 63, 95); fill-opacity: 1; white-space: pre;">01/01</text></g><g class="xtick"><text text-anchor="middle" x="0" y="469" transform="translate(249.44,0)" style="font-family: 'Open Sans', verdana, arial, sans-serif; font-size: 18px; fill: rgb(42, 63, 95); fill-opacity: 1; white-space: pre;">01/03</text></g><g class="xtick"><text text-anchor="middle" x="0" y="469" transform="translate(328.96,0)" style="font-family: 'Open Sans', verdana, arial, sans-serif; font-size: 18px; fill: rgb(42, 63, 95); fill-opacity: 1; white-space: pre;">01/05</text></g><g class="xtick"><text text-anchor="middle" x="0" y="469" transform="translate(408.47,0)" style="font-family: 'Open Sans', verdana, arial, sans-serif; font-size: 18px; fill: rgb(42, 63, 95); fill-opacity: 1; white-space: pre;">01/07</text></g><g class="xtick"><text text-anchor="middle" x="0" y="469" transform="translate(489.29,0)" style="font-family: 'Open Sans', verdana, arial, sans-serif; font-size: 18px; fill: rgb(42, 63, 95); fill-opacity: 1; white-space: pre;">01/09</text></g><g class="xtick"><text text-anchor="middle" x="0" y="469" transform="translate(568.81,0)" style="font-family: 'Open Sans', verdana, arial, sans-serif; font-size: 18px; fill: rgb(42, 63, 95); fill-opacity: 1; white-space: pre;">01/11</text></g><g class="xtick"><text text-anchor="middle" x="0" y="469" transform="translate(648.32,0)" style="font-family: 'Open Sans', verdana, arial, sans-serif; font-size: 18px; fill: rgb(42, 63, 95); fill-opacity: 1; white-space: pre;">01/01</text></g><g class="xtick"><text text-anchor="middle" x="0" y="469" transform="translate(725.23,0)" style="font-family: 'Open Sans', verdana, arial, sans-serif; font-size: 18px; fill: rgb(42, 63, 95); fill-opacity: 1; white-space: pre;">01/03</text></g></g><g class="yaxislayer-above"/><g class="overaxes-above"/></g></g><g class="polarlayer"/><g class="ternarylayer"/><g class="geolayer"/><g class="funnelarealayer"/><g class="pielayer"/><g class="treemaplayer"/><g class="sunburstlayer"/><g class="glimages"/><defs id="topdefs-c26a85"><g class="clips"/></defs><g class="layer-above"><g class="imagelayer"/><g class="shapelayer"><path data-index="0" fill-rule="evenodd" d="M-682.59,443.42L270.3,443.42" clip-path="url('#clipc26a85xy')" style="opacity: 1; stroke: rgb(255, 0, 0); stroke-opacity: 1; fill: rgb(0, 0, 0); fill-opacity: 0; stroke-dasharray: 3px, 3px; stroke-width: 1.5px;"/></g></g><g class="infolayer"><g class="g-gtitle"><text class="gtitle" x="375" y="25" text-anchor="middle" dy="0.7em" style="font-family: 'Open Sans', verdana, arial, sans-serif; font-size: 50px; fill: rgb(42, 63, 95); opacity: 1; font-weight: normal; white-space: pre;"><tspan style="font-weight:bold">Nièvre (58)</tspan></text></g><g class="g-xtitle"/><g class="annotation" data-index="0" style="opacity: 1;"><g class="annotation-text-g" transform="rotate(0,698.88,302.1)"><g class="cursor-pointer" transform="translate(641, 266)"><rect class="bg" x="0.5" y="0.5" width="115" height="71" style="stroke-width: 1px; stroke: rgb(0, 0, 0); stroke-opacity: 0; fill: rgb(255, 255, 255); fill-opacity: 0.6;"/><text class="annotation-text" text-anchor="middle" x="57.8125" y="55.5" style="font-family: 'Open Sans', verdana, arial, sans-serif; font-size: 50px; fill: rgb(8, 115, 191); fill-opacity: 1; white-space: pre;"> <tspan style="font-weight:bold">668 </tspan></text></g></g><g class="annotation-arrow-g" style="opacity: 1;"><path d="M727.28,337.6L738.88,352.1" style="stroke-width: 1px; stroke: rgb(8, 115, 191); stroke-opacity: 1; stroke-dasharray: 0px, 0px, 18.569px, 18.569px;"/></g></g></g></svg>