<svg class="main-svg" xmlns="http://www.w3.org/2000/svg" xmlns:xlink="http://www.w3.org/1999/xlink" width="1125" height="750" style="" viewBox="0 0 750 500"><rect x="0" y="0" width="750" height="500" style="fill: rgb(0, 0, 0); fill-opacity: 0;"/><defs id="defs-a4c15e"><g class="clips"><clipPath id="clipa4c15exyplot" class="plotclip"><rect width="700" height="380"/></clipPath><clipPath class="axesclip" id="clipa4c15ex"><rect x="50" y="0" width="700" height="500"/></clipPath><clipPath class="axesclip" id="clipa4c15ey"><rect x="0" y="70" width="750" height="380"/></clipPath><clipPath class="axesclip" id="clipa4c15exy"><rect x="50" y="70" width="700" height="380"/></clipPath></g><g class="gradients"/></defs><g class="bglayer"><rect class="bg" x="50" y="70" width="700" height="380" style="fill: rgb(0, 0, 0); fill-opacity: 0; stroke-width: 0;"/></g><g class="layer-below"><g class="imagelayer"/><g class="shapelayer"/></g><g class="cartesianlayer"><g class="subplot xy"><g class="layer-subplot"><g class="shapelayer"/><g class="imagelayer"/></g><g class="gridlayer"><g class="x"><path class="xgrid crisp" transform="translate(52.21,0)" d="M0,70v380" style="stroke: rgb(255, 255, 255); stroke-opacity: 1; stroke-width: 1px;"/><path class="xgrid crisp" transform="translate(153.79000000000002,0)" d="M0,70v380" style="stroke: rgb(255, 255, 255); stroke-opacity: 1; stroke-width: 1px;"/><path class="xgrid crisp" transform="translate(253.15,0)" d="M0,70v380" style="stroke: rgb(255, 255, 255); stroke-opacity: 1; stroke-width: 1px;"/><path class="xgrid crisp" transform="translate(353.63,0)" d="M0,70v380" style="stroke: rgb(255, 255, 255); stroke-opacity: 1; stroke-width: 1px;"/><path class="xgrid crisp" transform="translate(455.21,0)" d="M0,70v380" style="stroke: rgb(255, 255, 255); stroke-opacity: 1; stroke-width: 1px;"/><path class="xgrid crisp" transform="translate(556.78,0)" d="M0,70v380" style="stroke: rgb(255, 255, 255); stroke-opacity: 1; stroke-width: 1px;"/><path class="xgrid crisp" transform="translate(656.15,0)" d="M0,70v380" style="stroke: rgb(255, 255, 255); stroke-opacity: 1; stroke-width: 1px;"/></g><g class="y"/></g><g class="zerolinelayer"/><path class="xlines-below"/><path class="ylines-below"/><g class="overlines-below"/><g class="xaxislayer-below"/><g class="yaxislayer-below"/><g class="overaxes-below"/><g class="plot" transform="translate(50, 70)" clip-path="url('#clipa4c15exyplot')"><g class="scatterlayer mlayer"><g class="trace scatter traceb61486" style="stroke-miterlimit: 2;"><g class="fills"><g><path class="js-fill" d="M681.23,380L-150.16,380L-150.16,379.86L-119.24,379.86L-118.14,379.93L-77.29,379.86L-76.18,379.83L-41.96,378.89L-40.85,378.75L-24.29,376.4L-23.19,375.98L-9.94,375.01L-8.83,375.05L-6.62,375.12L-5.52,375.12L-3.31,373.97L-2.21,370.82L1.1,368.12L2.21,368.15L4.42,364.1L5.52,364.2L8.83,359.18L9.94,359.14L11.04,358.8L12.15,356.79L13.25,355.26L14.35,352.18L16.56,347.75L17.67,347.47L18.77,344.53L19.87,338.71L22.08,326.72L23.19,317.68L25.39,312.83L26.5,303.65L29.81,287.47L30.91,288.58L33.12,290.24L34.23,289.62L35.33,287.88L36.44,288.2L38.64,295.33L39.75,296.93L40.85,297.51L41.96,303.44L43.06,309.81L44.16,325.96L45.27,326.55L46.37,332.75L47.48,335.35L48.58,335.59L50.79,346.43L51.89,344.04L53,351.9L54.1,353.91L56.31,354.61L57.41,357.31L59.62,361.67L60.73,363.82L62.93,366.14L64.04,366.25L67.35,369.75L68.45,370.33L70.66,371.2L71.77,371.06L81.7,369.57L82.81,368.91L83.91,368.26L85.02,366.04L87.22,361.64L88.33,361.67L91.64,363.2L92.74,367.08L94.95,371.48L96.06,371.75L100.47,369.88L101.58,368.67L102.68,368.6L103.79,367.15L105.99,365L107.1,364.86L108.2,361.67L109.31,361.92L111.51,361.43L112.62,361.02L117.03,361.54L118.14,361.6L123.66,359.53L124.76,359.6L125.87,359.42L126.97,360.15L130.28,364.34L131.39,364.51L140.22,365.35L141.32,365.17L147.95,369.99L149.05,370.2L151.26,371.24L152.37,371.55L158.99,372.24L160.09,371.62L161.2,371.24L162.3,371.82L166.72,373.11L167.82,374.15L171.14,374.42L172.24,374.32L176.66,374.04L177.76,373.04L181.07,372.41L182.18,371.13L183.28,370.99L184.38,369.95L185.49,369.75L186.59,368.57L187.7,368.71L188.8,366.56L189.91,366.21L191.01,364.76L194.32,359.46L195.43,359.18L198.74,355.3L199.84,354.68L202.05,354.68L203.15,354.57L204.26,358.83L205.36,355.58L206.47,355.68L207.57,354.68L210.88,354.57L211.99,351.04L213.09,353.71L214.2,353.88L215.3,355.33L216.4,355.06L218.61,356.58L219.72,355.23L220.82,355.72L221.92,354.81L225.24,352.25L226.34,352.42L229.65,354.19L230.76,355.33L231.86,356.3L232.97,359.42L238.49,359.21L239.59,360.05L241.8,359.8L242.9,361.22L244.01,361.99L245.11,363.82L246.21,366.94L247.32,367.22L248.42,366.11L249.53,366.21L251.74,368.71L252.84,368.74L253.94,366.94L255.05,367.81L257.26,368.15L258.36,370.51L261.67,370.4L262.78,370.54L264.98,370.75L266.09,368.98L270.5,372.93L271.61,373.31L274.92,374.8L276.03,375.46L287.07,378.3L288.17,378.23L301.42,379.1L302.52,379L315.77,378.61L316.88,378.2L320.19,377.16L321.29,376.47L325.71,373.04L326.81,372.86L333.44,369.78L334.54,369.88L338.96,368.95L340.06,368.15L343.38,368.12L344.48,367.91L345.58,368.29L346.69,367.77L347.79,368.15L348.9,367.11L350,367.25L351.1,366.35L353.31,366.14L354.42,367.08L359.94,369.43L361.04,370.61L363.25,370.72L364.35,371.41L376.5,373.59L377.6,374.04L385.33,376.71L386.44,376.95L393.06,376.88L394.16,377.3L399.68,378.54L400.79,377.89L407.41,376.74L408.52,377.12L415.14,375.46L416.25,374.84L423.97,372.97L425.08,372.97L427.29,372.79L428.39,373.45L439.43,374.53L440.54,374.84L442.74,375.12L443.85,374.04L447.16,374.39L448.26,372.9L450.47,373.18L451.58,372L454.89,367.67L455.99,366.11L457.1,363.89L458.2,363.68L463.72,352.94L464.83,351.42L465.93,350.87L467.03,347.96L470.35,339.78L471.45,338.01L472.56,336.38L473.66,336.28L476.97,330.7L478.08,330.18L480.28,330.74L481.39,330.88L483.6,328.94L484.7,330.53L486.91,327.9L488.01,327.86L490.22,326.58L491.32,328.04L492.43,324.29L493.53,323.43L494.64,320.28L495.74,324.33L496.85,323.81L497.95,314.91L502.37,270.53L503.47,270.22L504.57,268.21L505.68,245L507.89,219.19L508.99,215.83L510.09,213.75L511.2,196.15L512.3,194.28L513.41,189.53L514.51,190.92L515.62,183.4L520.03,146.85L521.14,124.06L525.55,44.34L526.66,34.54L527.76,27.02L528.86,6.93L529.97,0L531.07,3.78L532.18,6.69L533.28,17.32L535.49,32.91L536.59,61.94L541.01,140.03L542.11,151.18L543.22,154.92L544.32,178.86L548.74,240.56L549.84,249.57L550.95,252.44L552.05,273.06L556.47,308.91L557.57,314.21L558.68,315.81L559.78,321.9L564.2,336.8L565.3,338.12L566.4,338.29L567.51,342.27L569.72,345.7L570.82,346.95L575.24,349.44L576.34,348.44L577.44,347.82L578.55,348.44L580.76,348.2L581.86,347.89L584.07,344.53L585.17,344.42L588.49,337.77L589.59,337.87L596.21,309.67L597.32,308.46L599.53,297.27L600.63,293.81L601.74,292.08L602.84,292.32L603.94,294.12L605.05,294.26L608.36,296.41L609.46,295.99L611.67,288.85L612.78,288.51L613.88,287.33L614.98,284.97L617.19,283.17L618.3,282.69L619.4,285.22L620.5,285.01L621.61,304.86L622.71,302.78L627.13,317.12L628.23,318.61L629.34,306.97L630.44,317.09L634.86,327.72L635.96,327.97L640.38,342.55L641.48,344.8L643.69,347.37L644.79,348.72L645.9,350.17L647,348.99L649.21,349.93L650.32,350.1L651.42,350.07L652.52,352.08L653.63,352.98L654.73,355.51L658.04,359.7L659.15,359.77L661.36,364.62L662.46,365.55L663.56,368.29L664.67,368.71L666.88,368.67L667.98,366.94L670.19,366.97L671.29,364.93L672.4,364.62L673.5,365.1L674.61,365.03L675.71,368.78L677.92,364.96L679.02,364.41L681.23,363.23" style="fill: rgb(8, 115, 191); fill-opacity: 0.2; stroke-width: 0;"/></g></g><g class="errorbars"/><g class="lines"><path class="js-line" d="M-150.16,379.86L-119.24,379.86L-118.14,379.93L-77.29,379.86L-76.18,379.83L-41.96,378.89L-40.85,378.75L-24.29,376.4L-23.19,375.98L-9.94,375.01L-8.83,375.05L-6.62,375.12L-5.52,375.12L-3.31,373.97L-2.21,370.82L1.1,368.12L2.21,368.15L4.42,364.1L5.52,364.2L8.83,359.18L9.94,359.14L11.04,358.8L12.15,356.79L13.25,355.26L14.35,352.18L16.56,347.75L17.67,347.47L18.77,344.53L19.87,338.71L22.08,326.72L23.19,317.68L25.39,312.83L26.5,303.65L29.81,287.47L30.91,288.58L33.12,290.24L34.23,289.62L35.33,287.88L36.44,288.2L38.64,295.33L39.75,296.93L40.85,297.51L41.96,303.44L43.06,309.81L44.16,325.96L45.27,326.55L46.37,332.75L47.48,335.35L48.58,335.59L50.79,346.43L51.89,344.04L53,351.9L54.1,353.91L56.31,354.61L57.41,357.31L59.62,361.67L60.73,363.82L62.93,366.14L64.04,366.25L67.35,369.75L68.45,370.33L70.66,371.2L71.77,371.06L81.7,369.57L82.81,368.91L83.91,368.26L85.02,366.04L87.22,361.64L88.33,361.67L91.64,363.2L92.74,367.08L94.95,371.48L96.06,371.75L100.47,369.88L101.58,368.67L102.68,368.6L103.79,367.15L105.99,365L107.1,364.86L108.2,361.67L109.31,361.92L111.51,361.43L112.62,361.02L117.03,361.54L118.14,361.6L123.66,359.53L124.76,359.6L125.87,359.42L126.97,360.15L130.28,364.34L131.39,364.51L140.22,365.35L141.32,365.17L147.95,369.99L149.05,370.2L151.26,371.24L152.37,371.55L158.99,372.24L160.09,371.62L161.2,371.24L162.3,371.82L166.72,373.11L167.82,374.15L171.14,374.42L172.24,374.32L176.66,374.04L177.76,373.04L181.07,372.41L182.18,371.13L183.28,370.99L184.38,369.95L185.49,369.75L186.59,368.57L187.7,368.71L188.8,366.56L189.91,366.21L191.01,364.76L194.32,359.46L195.43,359.18L198.74,355.3L199.84,354.68L202.05,354.68L203.15,354.57L204.26,358.83L205.36,355.58L206.47,355.68L207.57,354.68L210.88,354.57L211.99,351.04L213.09,353.71L214.2,353.88L215.3,355.33L216.4,355.06L218.61,356.58L219.72,355.23L220.82,355.72L221.92,354.81L225.24,352.25L226.34,352.42L229.65,354.19L230.76,355.33L231.86,356.3L232.97,359.42L238.49,359.21L239.59,360.05L241.8,359.8L242.9,361.22L244.01,361.99L245.11,363.82L246.21,366.94L247.32,367.22L248.42,366.11L249.53,366.21L251.74,368.71L252.84,368.74L253.94,366.94L255.05,367.81L257.26,368.15L258.36,370.51L261.67,370.4L262.78,370.54L264.98,370.75L266.09,368.98L270.5,372.93L271.61,373.31L274.92,374.8L276.03,375.46L287.07,378.3L288.17,378.23L301.42,379.1L302.52,379L315.77,378.61L316.88,378.2L320.19,377.16L321.29,376.47L325.71,373.04L326.81,372.86L333.44,369.78L334.54,369.88L338.96,368.95L340.06,368.15L343.38,368.12L344.48,367.91L345.58,368.29L346.69,367.77L347.79,368.15L348.9,367.11L350,367.25L351.1,366.35L353.31,366.14L354.42,367.08L359.94,369.43L361.04,370.61L363.25,370.72L364.35,371.41L376.5,373.59L377.6,374.04L385.33,376.71L386.44,376.95L393.06,376.88L394.16,377.3L399.68,378.54L400.79,377.89L407.41,376.74L408.52,377.12L415.14,375.46L416.25,374.84L423.97,372.97L425.08,372.97L427.29,372.79L428.39,373.45L439.43,374.53L440.54,374.84L442.74,375.12L443.85,374.04L447.16,374.39L448.26,372.9L450.47,373.18L451.58,372L454.89,367.67L455.99,366.11L457.1,363.89L458.2,363.68L463.72,352.94L464.83,351.42L465.93,350.87L467.03,347.96L470.35,339.78L471.45,338.01L472.56,336.38L473.66,336.28L476.97,330.7L478.08,330.18L480.28,330.74L481.39,330.88L483.6,328.94L484.7,330.53L486.91,327.9L488.01,327.86L490.22,326.58L491.32,328.04L492.43,324.29L493.53,323.43L494.64,320.28L495.74,324.33L496.85,323.81L497.95,314.91L502.37,270.53L503.47,270.22L504.57,268.21L505.68,245L507.89,219.19L508.99,215.83L510.09,213.75L511.2,196.15L512.3,194.28L513.41,189.53L514.51,190.92L515.62,183.4L520.03,146.85L521.14,124.06L525.55,44.34L526.66,34.54L527.76,27.02L528.86,6.93L529.97,0L531.07,3.78L532.18,6.69L533.28,17.32L535.49,32.91L536.59,61.94L541.01,140.03L542.11,151.18L543.22,154.92L544.32,178.86L548.74,240.56L549.84,249.57L550.95,252.44L552.05,273.06L556.47,308.91L557.57,314.21L558.68,315.81L559.78,321.9L564.2,336.8L565.3,338.12L566.4,338.29L567.51,342.27L569.72,345.7L570.82,346.95L575.24,349.44L576.34,348.44L577.44,347.82L578.55,348.44L580.76,348.2L581.86,347.89L584.07,344.53L585.17,344.42L588.49,337.77L589.59,337.87L596.21,309.67L597.32,308.46L599.53,297.27L600.63,293.81L601.74,292.08L602.84,292.32L603.94,294.12L605.05,294.26L608.36,296.41L609.46,295.99L611.67,288.85L612.78,288.51L613.88,287.33L614.98,284.97L617.19,283.17L618.3,282.69L619.4,285.22L620.5,285.01L621.61,304.86L622.71,302.78L627.13,317.12L628.23,318.61L629.34,306.97L630.44,317.09L634.86,327.72L635.96,327.97L640.38,342.55L641.48,344.8L643.69,347.37L644.79,348.72L645.9,350.17L647,348.99L649.21,349.93L650.32,350.1L651.42,350.07L652.52,352.08L653.63,352.98L654.73,355.51L658.04,359.7L659.15,359.77L661.36,364.62L662.46,365.55L663.56,368.29L664.67,368.71L666.88,368.67L667.98,366.94L670.19,366.97L671.29,364.93L672.4,364.62L673.5,365.1L674.61,365.03L675.71,368.78L677.92,364.96L679.02,364.41L681.23,363.23" style="vector-effect: non-scaling-stroke; fill: none; stroke: rgb(8, 115, 191); stroke-opacity: 1; stroke-width: 0.5px; opacity: 1;"/></g><g class="points"/><g class="text"/></g><g class="trace scatter trace633999" style="stroke-miterlimit: 2;"><g class="fills"><g><path class="js-fill" d="M692.27,380L681.23,380L681.23,363.23L682.33,363.2L683.44,358.9L684.54,359.77L685.65,357.76L692.27,351.28" style="fill: rgb(8, 115, 191); fill-opacity: 0.4; stroke-width: 0;"/></g></g><g class="errorbars"/><g class="lines"><path class="js-line" d="M681.23,363.23L682.33,363.2L683.44,358.9L684.54,359.77L685.65,357.76L692.27,351.28" style="vector-effect: non-scaling-stroke; fill: none; stroke: rgb(8, 115, 191); stroke-opacity: 1; stroke-width: 2px; opacity: 1;"/></g><g class="points"/><g class="text"/></g><g class="trace scatter trace5c1c58" style="stroke-miterlimit: 2; opacity: 1;"><g class="fills"/><g class="errorbars"/><g class="lines"/><g class="points"><path class="point" transform="translate(692.27,351.28)" d="M15,0A15,15 0 1,1 0,-15A15,15 0 0,1 15,0Z" style="opacity: 1; stroke-width: 0px; fill: rgb(8, 115, 191); fill-opacity: 1;"/></g><g class="text"/></g></g></g><g class="overplot"/><path class="xlines-above crisp" style="fill: none; stroke-width: 1px; stroke: rgb(0, 0, 0); stroke-opacity: 0;" d=""/><path class="ylines-above crisp" style="fill: none;" d="M0,0"/><g class="overlines-above"/><g class="xaxislayer-above"><path class="xtick ticks crisp" d="M0,450v-5" transform="translate(52.21,0)" style="stroke: rgb(68, 68, 68); stroke-opacity: 1; stroke-width: 1px;"/><path class="xtick ticks crisp" d="M0,450v-5" transform="translate(153.79000000000002,0)" style="stroke: rgb(68, 68, 68); stroke-opacity: 1; stroke-width: 1px;"/><path class="xtick ticks crisp" d="M0,450v-5" transform="translate(253.15,0)" style="stroke: rgb(68, 68, 68); stroke-opacity: 1; stroke-width: 1px;"/><path class="xtick ticks crisp" d="M0,450v-5" transform="translate(353.63,0)" style="stroke: rgb(68, 68, 68); stroke-opacity: 1; stroke-width: 1px;"/><path class="xtick ticks crisp" d="M0,450v-5" transform="translate(455.21,0)" style="stroke: rgb(68, 68, 68); stroke-opacity: 1; stroke-width: 1px;"/><path class="xtick ticks crisp" d="M0,450v-5" transform="translate(556.78,0)" style="stroke: rgb(68, 68, 68); stroke-opacity: 1; stroke-width: 1px;"/><path class="xtick ticks crisp" d="M0,450v-5" transform="translate(656.15,0)" style="stroke: rgb(68, 68, 68); stroke-opacity: 1; stroke-width: 1px;"/><g class="xtick"><text text-anchor="middle" x="0" y="469" transform="translate(52.21,0)" style="font-family: 'Open Sans', verdana, arial, sans-serif; font-size: 18px; fill: rgb(42, 63, 95); fill-opacity: 1; white-space: pre;">01/10</text></g><g class="xtick"><text text-anchor="middle" x="0" y="469" transform="translate(153.79000000000002,0)" style="font-family: 'Open Sans', verdana, arial, sans-serif; font-size: 18px; fill: rgb(42, 63, 95); fill-opacity: 1; white-space: pre;">01/01</text></g><g class="xtick"><text text-anchor="middle" x="0" y="469" transform="translate(253.15,0)" style="font-family: 'Open Sans', verdana, arial, sans-serif; font-size: 18px; fill: rgb(42, 63, 95); fill-opacity: 1; white-space: pre;">01/04</text></g><g class="xtick"><text text-anchor="middle" x="0" y="469" transform="translate(353.63,0)" style="font-family: 'Open Sans', verdana, arial, sans-serif; font-size: 18px; fill: rgb(42, 63, 95); fill-opacity: 1; white-space: pre;">01/07</text></g><g class="xtick"><text text-anchor="middle" x="0" y="469" transform="translate(455.21,0)" style="font-family: 'Open Sans', verdana, arial, sans-serif; font-size: 18px; fill: rgb(42, 63, 95); fill-opacity: 1; white-space: pre;">01/10</text></g><g class="xtick"><text text-anchor="middle" x="0" y="469" transform="translate(556.78,0)" style="font-family: 'Open Sans', verdana, arial, sans-serif; font-size: 18px; fill: rgb(42, 63, 95); fill-opacity: 1; white-space: pre;">01/01</text></g><g class="xtick"><text text-anchor="middle" x="0" y="469" transform="translate(656.15,0)" style="font-family: 'Open Sans', verdana, arial, sans-serif; font-size: 18px; fill: rgb(42, 63, 95); fill-opacity: 1; white-space: pre;">01/04</text></g></g><g class="yaxislayer-above"/><g class="overaxes-above"/></g></g><g class="polarlayer"/><g class="ternarylayer"/><g class="geolayer"/><g class="funnelarealayer"/><g class="pielayer"/><g class="treemaplayer"/><g class="sunburstlayer"/><g class="glimages"/><defs id="topdefs-a4c15e"><g class="clips"/></defs><g class="layer-above"><g class="imagelayer"/><g class="shapelayer"><path data-index="0" fill-rule="evenodd" d="M-570.5,446.07L236.59,446.07" clip-path="url('#clipa4c15exy')" style="opacity: 1; stroke: rgb(255, 0, 0); stroke-opacity: 1; fill: rgb(0, 0, 0); fill-opacity: 0; stroke-dasharray: 3px, 3px; stroke-width: 1.5px;"/></g></g><g class="infolayer"><g class="g-gtitle"><text class="gtitle" x="375" y="25" text-anchor="middle" dy="0.7em" style="font-family: 'Open Sans', verdana, arial, sans-serif; font-size: 50px; fill: rgb(42, 63, 95); opacity: 1; font-weight: normal; white-space: pre;"><tspan style="font-weight:bold">Haute-Loire (43)</tspan></text></g><g class="g-xtitle"/><g class="annotation" data-index="0" style="opacity: 1;"><g class="annotation-text-g" transform="rotate(0,700.27,361.28)"><g class="cursor-pointer" transform="translate(642, 325)"><rect class="bg" x="0.5" y="0.5" width="115" height="71" style="stroke-width: 1px; stroke: rgb(0, 0, 0); stroke-opacity: 0; fill: rgb(255, 255, 255); fill-opacity: 0.6;"/><text class="annotation-text" text-anchor="middle" x="57.8125" y="55.5" style="font-family: 'Open Sans', verdana, arial, sans-serif; font-size: 50px; fill: rgb(8, 115, 191); fill-opacity: 1; white-space: pre;"> <tspan style="font-weight:bold">365 </tspan></text></g></g><g class="annotation-arrow-g" style="opacity: 1;"><path d="M728.67,396.78L740.27,411.28" style="stroke-width: 1px; stroke: rgb(8, 115, 191); stroke-opacity: 1; stroke-dasharray: 0px, 0px, 18.5691px, 18.5691px;"/></g></g></g></svg>