<svg class="main-svg" xmlns="http://www.w3.org/2000/svg" xmlns:xlink="http://www.w3.org/1999/xlink" width="1125" height="750" style="" viewBox="0 0 750 500"><rect x="0" y="0" width="750" height="500" style="fill: rgb(0, 0, 0); fill-opacity: 0;"/><defs id="defs-56b8d0"><g class="clips"><clipPath id="clip56b8d0xyplot" class="plotclip"><rect width="700" height="380"/></clipPath><clipPath class="axesclip" id="clip56b8d0x"><rect x="50" y="0" width="700" height="500"/></clipPath><clipPath class="axesclip" id="clip56b8d0y"><rect x="0" y="70" width="750" height="380"/></clipPath><clipPath class="axesclip" id="clip56b8d0xy"><rect x="50" y="70" width="700" height="380"/></clipPath></g><g class="gradients"/></defs><g class="bglayer"><rect class="bg" x="50" y="70" width="700" height="380" style="fill: rgb(0, 0, 0); fill-opacity: 0; stroke-width: 0;"/></g><g class="layer-below"><g class="imagelayer"/><g class="shapelayer"/></g><g class="cartesianlayer"><g class="subplot xy"><g class="layer-subplot"><g class="shapelayer"/><g class="imagelayer"/></g><g class="gridlayer"><g class="x"><path class="xgrid crisp" transform="translate(101.78999999999999,0)" d="M0,70v380" style="stroke: rgb(255, 255, 255); stroke-opacity: 1; stroke-width: 1px;"/><path class="xgrid crisp" transform="translate(197.53,0)" d="M0,70v380" style="stroke: rgb(255, 255, 255); stroke-opacity: 1; stroke-width: 1px;"/><path class="xgrid crisp" transform="translate(290.13,0)" d="M0,70v380" style="stroke: rgb(255, 255, 255); stroke-opacity: 1; stroke-width: 1px;"/><path class="xgrid crisp" transform="translate(385.87,0)" d="M0,70v380" style="stroke: rgb(255, 255, 255); stroke-opacity: 1; stroke-width: 1px;"/><path class="xgrid crisp" transform="translate(481.61,0)" d="M0,70v380" style="stroke: rgb(255, 255, 255); stroke-opacity: 1; stroke-width: 1px;"/><path class="xgrid crisp" transform="translate(578.92,0)" d="M0,70v380" style="stroke: rgb(255, 255, 255); stroke-opacity: 1; stroke-width: 1px;"/><path class="xgrid crisp" transform="translate(674.66,0)" d="M0,70v380" style="stroke: rgb(255, 255, 255); stroke-opacity: 1; stroke-width: 1px;"/></g><g class="y"/></g><g class="zerolinelayer"/><path class="xlines-below"/><path class="ylines-below"/><g class="overlines-below"/><g class="xaxislayer-below"/><g class="yaxislayer-below"/><g class="overaxes-below"/><g class="plot" transform="translate(50, 70)" clip-path="url('#clip56b8d0xyplot')"><g class="scatterlayer mlayer"><g class="trace scatter tracefaf321" style="stroke-miterlimit: 2;"><g class="fills"><g><path class="js-fill" d="M673.32,380L-213.45,380L-213.45,378.15L-131.84,377.96L-130.27,377.36L-116.14,378.02L-114.57,377.56L-106.73,378.48L-105.16,378.22L-84.75,378.94L-83.18,378.35L-72.2,375.19L-70.63,373.54L-64.35,369.12L-62.78,369.52L-59.64,369.25L-58.07,369.19L-54.93,368.46L-53.36,367.67L-51.79,367.67L-50.22,366.09L-47.09,364.77L-45.52,364.77L-42.38,366.81L-40.81,366.42L-36.1,368.79L-34.53,368.46L-31.39,367.01L-29.82,367.14L-26.68,365.96L-25.11,363.52L-18.83,362.06L-17.26,362.53L-15.7,361.74L-14.13,363.12L-12.56,362.72L-10.99,360.68L-7.85,360.09L-6.28,357.65L-4.71,357.38L-3.14,355.08L0,351.12L1.57,350.39L3.14,349.8L4.71,346.57L9.42,332.92L10.99,326.85L12.56,324.88L14.13,325.01L18.83,310.04L20.4,302.72L23.54,292.04L25.11,291.25L31.39,227.16L32.96,205.53L36.1,198.47L37.67,174.93L39.24,164.71L40.81,147.9L42.38,138.54L43.95,133.85L45.52,132.14L47.09,133.46L48.65,133L50.22,126.14L53.36,135.04L54.93,147.7L56.5,151.06L58.07,151.46L61.21,191.55L62.78,230.39L64.35,237.77L65.92,251.62L67.49,256.37L69.06,258.15L70.63,266.26L72.2,279.58L73.77,271.14L75.34,291.05L76.91,299.29L78.48,301.8L80.04,302.52L81.61,314L83.18,321.18L84.75,322.96L87.89,327.38L89.46,327.45L94.17,325.27L95.74,326.52L98.88,326.85L100.45,325.87L102.02,325.8L103.59,328.83L105.16,326.85L106.73,327.05L108.3,325.47L109.87,322.5L113,323.69L114.57,320.85L116.14,320.13L117.71,318.55L119.28,318.48L120.85,315.78L123.99,303.18L125.56,301.34L127.13,299.03L128.7,298.3L130.27,299.29L131.84,312.81L134.98,324.88L136.55,327.71L138.12,327.98L139.69,325.4L141.26,323.1L142.83,323.23L144.39,319.14L145.96,318.94L147.53,310.96L149.1,307.34L150.67,306.35L152.24,306.48L153.81,292.04L155.38,294.48L156.95,294.35L158.52,297.31L160.09,301.47L161.66,300.81L164.8,296.26L166.37,295.47L167.94,296.06L169.51,290.32L171.08,287.29L172.65,286.57L174.22,282.87L175.78,281.55L180.49,278.85L182.06,276.87L183.63,276.48L185.2,281.49L186.77,285.25L188.34,286.63L189.91,286.17L191.48,292.1L194.62,299.95L196.19,300.08L197.76,303.78L199.33,301.47L200.9,301.86L202.47,305.82L204.04,304.63L205.61,306.74L207.17,310.57L208.74,309.97L210.31,312.81L211.88,313.01L213.45,311.62L215.02,314.06L216.59,313.2L218.16,311.36L221.3,309.12L222.87,309.05L226.01,310.83L227.58,309.51L229.15,307.73L230.72,309.97L232.29,311.89L233.86,311.82L240.13,325.47L241.7,326.13L246.41,325.67L247.98,325.67L251.12,323.89L252.69,324.55L254.26,323.56L255.83,324.61L258.97,318.68L260.54,316.24L263.68,309.12L265.25,308.46L268.39,306.87L269.96,301.8L271.52,297.38L273.09,296.39L276.23,290.72L277.8,290.19L279.37,285.84L280.94,283.8L282.51,284.46L284.08,283.34L285.65,284.06L287.22,283.14L288.79,283.4L290.36,303.18L291.93,295.4L293.5,291.58L295.07,292.1L296.64,293.62L298.21,296.13L299.78,296.26L301.35,278.32L302.91,291.71L306.05,298.9L307.62,298.76L309.19,297.31L310.76,297.12L313.9,297.78L315.47,300.41L318.61,303.51L320.18,304.5L321.75,304.76L323.32,308.72L326.46,310.3L328.03,314L331.17,325.8L332.74,326.26L335.87,331.54L337.44,336.48L342.15,340.31L343.72,340.5L346.86,346.24L348.43,347.89L350,353.03L351.57,353.56L353.14,351.71L354.71,351.78L357.85,354.42L359.42,355.54L360.99,352.83L362.56,355.01L365.7,354.81L367.26,361.41L371.97,361.67L373.54,362.06L376.68,362.46L378.25,359.82L379.82,362.99L381.39,363.65L382.96,363.58L384.53,365.16L386.1,366.61L387.67,366.61L390.81,367.87L392.38,369.32L393.95,371.23L395.52,371.63L398.65,371.82L400.22,373.87L408.07,376.83L409.64,377.03L415.92,376.31L417.49,376.44L422.2,376.77L423.77,377.23L428.48,376.57L430.04,376.51L436.32,375.19L437.89,374.4L441.03,372.02L442.6,372.22L445.74,369.19L447.31,369.71L450.45,365.36L452.02,364.31L453.59,363.98L455.16,359.95L456.73,355.08L458.3,345.91L463,327.71L464.57,326.79L466.14,318.08L467.71,314.33L470.85,310.77L472.42,310.7L475.56,310.9L477.13,307.47L478.7,307.53L480.27,308.59L484.98,301.67L486.55,300.87L488.12,300.68L489.69,295.27L491.26,291.58L492.83,289.99L494.39,286.9L495.96,287.75L497.53,288.74L499.1,286.83L500.67,285.64L502.24,286.57L503.81,288.87L505.38,293.62L506.95,295.34L508.52,294.94L513.23,308.52L514.8,312.22L516.37,315.71L517.94,316.44L519.51,316.63L521.08,321.38L524.22,329.43L525.78,332.26L527.35,332.85L528.92,335.82L530.49,335.89L532.06,338.59L535.2,340.37L536.77,341.76L538.34,344.13L539.91,341.76L541.48,342.35L543.05,341.76L544.62,343.01L546.19,341.82L547.76,342.81L549.33,342.15L550.9,344.53L552.47,344.46L554.04,348.68L555.61,350.53L557.17,352.64L558.74,352.31L560.31,354.09L561.88,354.22L563.45,354.61L565.02,352.9L566.59,354.09L568.16,354.15L569.73,355.34L571.3,357.52L572.87,358.9L574.44,358.57L576.01,361.74L577.58,362.79L579.15,364.9L580.72,365.49L593.27,363.78L594.84,363.85L596.41,363.98L597.98,365.3L605.83,361.41L607.4,361.21L608.97,360.48L610.54,360.94L615.25,362.39L616.82,362.46L618.39,362.53L619.96,365.1L623.09,359.89L624.66,358.5L629.37,356.13L630.94,348.02L632.51,347.95L634.08,346.37L635.65,349.4L637.22,345.58L640.36,344.86L641.93,340.96L645.07,334.04L646.64,325.8L649.78,316.83L651.35,315.64L654.48,298.04L656.05,287.16L659.19,258.61L660.76,247.33L662.33,246.21L663.9,217.4L670.18,111.7L671.75,98.71L673.32,97.52" style="fill: rgb(8, 115, 191); fill-opacity: 0.2; stroke-width: 0;"/></g></g><g class="errorbars"/><g class="lines"><path class="js-line" d="M-213.45,378.15L-131.84,377.96L-130.27,377.36L-116.14,378.02L-114.57,377.56L-106.73,378.48L-105.16,378.22L-84.75,378.94L-83.18,378.35L-72.2,375.19L-70.63,373.54L-64.35,369.12L-62.78,369.52L-59.64,369.25L-58.07,369.19L-54.93,368.46L-53.36,367.67L-51.79,367.67L-50.22,366.09L-47.09,364.77L-45.52,364.77L-42.38,366.81L-40.81,366.42L-36.1,368.79L-34.53,368.46L-31.39,367.01L-29.82,367.14L-26.68,365.96L-25.11,363.52L-18.83,362.06L-17.26,362.53L-15.7,361.74L-14.13,363.12L-12.56,362.72L-10.99,360.68L-7.85,360.09L-6.28,357.65L-4.71,357.38L-3.14,355.08L0,351.12L1.57,350.39L3.14,349.8L4.71,346.57L9.42,332.92L10.99,326.85L12.56,324.88L14.13,325.01L18.83,310.04L20.4,302.72L23.54,292.04L25.11,291.25L31.39,227.16L32.96,205.53L36.1,198.47L37.67,174.93L39.24,164.71L40.81,147.9L42.38,138.54L43.95,133.85L45.52,132.14L47.09,133.46L48.65,133L50.22,126.14L53.36,135.04L54.93,147.7L56.5,151.06L58.07,151.46L61.21,191.55L62.78,230.39L64.35,237.77L65.92,251.62L67.49,256.37L69.06,258.15L70.63,266.26L72.2,279.58L73.77,271.14L75.34,291.05L76.91,299.29L78.48,301.8L80.04,302.52L81.61,314L83.18,321.18L84.75,322.96L87.89,327.38L89.46,327.45L94.17,325.27L95.74,326.52L98.88,326.85L100.45,325.87L102.02,325.8L103.59,328.83L105.16,326.85L106.73,327.05L108.3,325.47L109.87,322.5L113,323.69L114.57,320.85L116.14,320.13L117.71,318.55L119.28,318.48L120.85,315.78L123.99,303.18L125.56,301.34L127.13,299.03L128.7,298.3L130.27,299.29L131.84,312.81L134.98,324.88L136.55,327.71L138.12,327.98L139.69,325.4L141.26,323.1L142.83,323.23L144.39,319.14L145.96,318.94L147.53,310.96L149.1,307.34L150.67,306.35L152.24,306.48L153.81,292.04L155.38,294.48L156.95,294.35L158.52,297.31L160.09,301.47L161.66,300.81L164.8,296.26L166.37,295.47L167.94,296.06L169.51,290.32L171.08,287.29L172.65,286.57L174.22,282.87L175.78,281.55L180.49,278.85L182.06,276.87L183.63,276.48L185.2,281.49L186.77,285.25L188.34,286.63L189.91,286.17L191.48,292.1L194.62,299.95L196.19,300.08L197.76,303.78L199.33,301.47L200.9,301.86L202.47,305.82L204.04,304.63L205.61,306.74L207.17,310.57L208.74,309.97L210.31,312.81L211.88,313.01L213.45,311.62L215.02,314.06L216.59,313.2L218.16,311.36L221.3,309.12L222.87,309.05L226.01,310.83L227.58,309.51L229.15,307.73L230.72,309.97L232.29,311.89L233.86,311.82L240.13,325.47L241.7,326.13L246.41,325.67L247.98,325.67L251.12,323.89L252.69,324.55L254.26,323.56L255.83,324.61L258.97,318.68L260.54,316.24L263.68,309.12L265.25,308.46L268.39,306.87L269.96,301.8L271.52,297.38L273.09,296.39L276.23,290.72L277.8,290.19L279.37,285.84L280.94,283.8L282.51,284.46L284.08,283.34L285.65,284.06L287.22,283.14L288.79,283.4L290.36,303.18L291.93,295.4L293.5,291.58L295.07,292.1L296.64,293.62L298.21,296.13L299.78,296.26L301.35,278.32L302.91,291.71L306.05,298.9L307.62,298.76L309.19,297.31L310.76,297.12L313.9,297.78L315.47,300.41L318.61,303.51L320.18,304.5L321.75,304.76L323.32,308.72L326.46,310.3L328.03,314L331.17,325.8L332.74,326.26L335.87,331.54L337.44,336.48L342.15,340.31L343.72,340.5L346.86,346.24L348.43,347.89L350,353.03L351.57,353.56L353.14,351.71L354.71,351.78L357.85,354.42L359.42,355.54L360.99,352.83L362.56,355.01L365.7,354.81L367.26,361.41L371.97,361.67L373.54,362.06L376.68,362.46L378.25,359.82L379.82,362.99L381.39,363.65L382.96,363.58L384.53,365.16L386.1,366.61L387.67,366.61L390.81,367.87L392.38,369.32L393.95,371.23L395.52,371.63L398.65,371.82L400.22,373.87L408.07,376.83L409.64,377.03L415.92,376.31L417.49,376.44L422.2,376.77L423.77,377.23L428.48,376.57L430.04,376.51L436.32,375.19L437.89,374.4L441.03,372.02L442.6,372.22L445.74,369.19L447.31,369.71L450.45,365.36L452.02,364.31L453.59,363.98L455.16,359.95L456.73,355.08L458.3,345.91L463,327.71L464.57,326.79L466.14,318.08L467.71,314.33L470.85,310.77L472.42,310.7L475.56,310.9L477.13,307.47L478.7,307.53L480.27,308.59L484.98,301.67L486.55,300.87L488.12,300.68L489.69,295.27L491.26,291.58L492.83,289.99L494.39,286.9L495.96,287.75L497.53,288.74L499.1,286.83L500.67,285.64L502.24,286.57L503.81,288.87L505.38,293.62L506.95,295.34L508.52,294.94L513.23,308.52L514.8,312.22L516.37,315.71L517.94,316.44L519.51,316.63L521.08,321.38L524.22,329.43L525.78,332.26L527.35,332.85L528.92,335.82L530.49,335.89L532.06,338.59L535.2,340.37L536.77,341.76L538.34,344.13L539.91,341.76L541.48,342.35L543.05,341.76L544.62,343.01L546.19,341.82L547.76,342.81L549.33,342.15L550.9,344.53L552.47,344.46L554.04,348.68L555.61,350.53L557.17,352.64L558.74,352.31L560.31,354.09L561.88,354.22L563.45,354.61L565.02,352.9L566.59,354.09L568.16,354.15L569.73,355.34L571.3,357.52L572.87,358.9L574.44,358.57L576.01,361.74L577.58,362.79L579.15,364.9L580.72,365.49L593.27,363.78L594.84,363.85L596.41,363.98L597.98,365.3L605.83,361.41L607.4,361.21L608.97,360.48L610.54,360.94L615.25,362.39L616.82,362.46L618.39,362.53L619.96,365.1L623.09,359.89L624.66,358.5L629.37,356.13L630.94,348.02L632.51,347.95L634.08,346.37L635.65,349.4L637.22,345.58L640.36,344.86L641.93,340.96L645.07,334.04L646.64,325.8L649.78,316.83L651.35,315.64L654.48,298.04L656.05,287.16L659.19,258.61L660.76,247.33L662.33,246.21L663.9,217.4L670.18,111.7L671.75,98.71L673.32,97.52" style="vector-effect: non-scaling-stroke; fill: none; stroke: rgb(8, 115, 191); stroke-opacity: 1; stroke-width: 0.5px; opacity: 1;"/></g><g class="points"/><g class="text"/></g><g class="trace scatter trace691f29" style="stroke-miterlimit: 2;"><g class="fills"><g><path class="js-fill" d="M689.01,380L673.32,380L673.32,97.52L676.46,57.76L678.03,48.46L679.6,41.87L681.17,30.73L682.74,26.51L684.3,25.25L685.87,12.99L687.44,6.73L689.01,0" style="fill: rgb(8, 115, 191); fill-opacity: 0.4; stroke-width: 0;"/></g></g><g class="errorbars"/><g class="lines"><path class="js-line" d="M673.32,97.52L676.46,57.76L678.03,48.46L679.6,41.87L681.17,30.73L682.74,26.51L684.3,25.25L685.87,12.99L687.44,6.73L689.01,0" style="vector-effect: non-scaling-stroke; fill: none; stroke: rgb(8, 115, 191); stroke-opacity: 1; stroke-width: 2px; opacity: 1;"/></g><g class="points"/><g class="text"/></g><g class="trace scatter trace3e91fd" style="stroke-miterlimit: 2; opacity: 1;"><g class="fills"/><g class="errorbars"/><g class="lines"/><g class="points"><path class="point" transform="translate(689.01,0)" d="M15,0A15,15 0 1,1 0,-15A15,15 0 0,1 15,0Z" style="opacity: 1; stroke-width: 0px; fill: rgb(8, 115, 191); fill-opacity: 1;"/></g><g class="text"/></g></g></g><g class="overplot"/><path class="xlines-above crisp" style="fill: none; stroke-width: 1px; stroke: rgb(0, 0, 0); stroke-opacity: 0;" d=""/><path class="ylines-above crisp" style="fill: none;" d="M0,0"/><g class="overlines-above"/><g class="xaxislayer-above"><path class="xtick ticks crisp" d="M0,450v-5" transform="translate(101.78999999999999,0)" style="stroke: rgb(68, 68, 68); stroke-opacity: 1; stroke-width: 1px;"/><path class="xtick ticks crisp" d="M0,450v-5" transform="translate(197.53,0)" style="stroke: rgb(68, 68, 68); stroke-opacity: 1; stroke-width: 1px;"/><path class="xtick ticks crisp" d="M0,450v-5" transform="translate(290.13,0)" style="stroke: rgb(68, 68, 68); stroke-opacity: 1; stroke-width: 1px;"/><path class="xtick ticks crisp" d="M0,450v-5" transform="translate(385.87,0)" style="stroke: rgb(68, 68, 68); stroke-opacity: 1; stroke-width: 1px;"/><path class="xtick ticks crisp" d="M0,450v-5" transform="translate(481.61,0)" style="stroke: rgb(68, 68, 68); stroke-opacity: 1; stroke-width: 1px;"/><path class="xtick ticks crisp" d="M0,450v-5" transform="translate(578.92,0)" style="stroke: rgb(68, 68, 68); stroke-opacity: 1; stroke-width: 1px;"/><path class="xtick ticks crisp" d="M0,450v-5" transform="translate(674.66,0)" style="stroke: rgb(68, 68, 68); stroke-opacity: 1; stroke-width: 1px;"/><g class="xtick"><text text-anchor="middle" x="0" y="469" transform="translate(101.78999999999999,0)" style="font-family: 'Open Sans', verdana, arial, sans-serif; font-size: 18px; fill: rgb(42, 63, 95); fill-opacity: 1; white-space: pre;">01/11</text></g><g class="xtick"><text text-anchor="middle" x="0" y="469" transform="translate(197.53,0)" style="font-family: 'Open Sans', verdana, arial, sans-serif; font-size: 18px; fill: rgb(42, 63, 95); fill-opacity: 1; white-space: pre;">01/01</text></g><g class="xtick"><text text-anchor="middle" x="0" y="469" transform="translate(290.13,0)" style="font-family: 'Open Sans', verdana, arial, sans-serif; font-size: 18px; fill: rgb(42, 63, 95); fill-opacity: 1; white-space: pre;">01/03</text></g><g class="xtick"><text text-anchor="middle" x="0" y="469" transform="translate(385.87,0)" style="font-family: 'Open Sans', verdana, arial, sans-serif; font-size: 18px; fill: rgb(42, 63, 95); fill-opacity: 1; white-space: pre;">01/05</text></g><g class="xtick"><text text-anchor="middle" x="0" y="469" transform="translate(481.61,0)" style="font-family: 'Open Sans', verdana, arial, sans-serif; font-size: 18px; fill: rgb(42, 63, 95); fill-opacity: 1; white-space: pre;">01/07</text></g><g class="xtick"><text text-anchor="middle" x="0" y="469" transform="translate(578.92,0)" style="font-family: 'Open Sans', verdana, arial, sans-serif; font-size: 18px; fill: rgb(42, 63, 95); fill-opacity: 1; white-space: pre;">01/09</text></g><g class="xtick"><text text-anchor="middle" x="0" y="469" transform="translate(674.66,0)" style="font-family: 'Open Sans', verdana, arial, sans-serif; font-size: 18px; fill: rgb(42, 63, 95); fill-opacity: 1; white-space: pre;">01/11</text></g></g><g class="yaxislayer-above"/><g class="overaxes-above"/></g></g><g class="polarlayer"/><g class="ternarylayer"/><g class="geolayer"/><g class="funnelarealayer"/><g class="pielayer"/><g class="treemaplayer"/><g class="sunburstlayer"/><g class="glimages"/><defs id="topdefs-56b8d0"><g class="clips"/></defs><g class="layer-above"><g class="imagelayer"/><g class="shapelayer"><path data-index="0" fill-rule="evenodd" d="M-832.06,432.84L315.25,432.84" clip-path="url('#clip56b8d0xy')" style="opacity: 1; stroke: rgb(255, 0, 0); stroke-opacity: 1; fill: rgb(0, 0, 0); fill-opacity: 0; stroke-dasharray: 3px, 3px; stroke-width: 1.5px;"/></g></g><g class="infolayer"><g class="g-gtitle"><text class="gtitle" x="375" y="25" text-anchor="middle" dy="0.7em" style="font-family: 'Open Sans', verdana, arial, sans-serif; font-size: 50px; fill: rgb(42, 63, 95); opacity: 1; font-weight: normal; white-space: pre;"><tspan style="font-weight:bold">Drôme (26)</tspan></text></g><g class="g-xtitle"/><g class="annotation" data-index="0" style="opacity: 1;"><g class="annotation-text-g" transform="rotate(0,697.01,10)"><g class="cursor-pointer" transform="translate(625, -26)"><rect class="bg" x="0.5" y="0.5" width="143" height="71" style="stroke-width: 1px; stroke: rgb(0, 0, 0); stroke-opacity: 0; fill: rgb(255, 255, 255); fill-opacity: 0.6;"/><text class="annotation-text" text-anchor="middle" x="72.078125" y="55.5" style="font-family: 'Open Sans', verdana, arial, sans-serif; font-size: 50px; fill: rgb(8, 115, 191); fill-opacity: 1; white-space: pre;"> <tspan style="font-weight:bold">1107 </tspan></text></g></g><g class="annotation-arrow-g" style="opacity: 1;"><path d="M725.41,45.5L737.01,60" style="stroke-width: 1px; stroke: rgb(8, 115, 191); stroke-opacity: 1; stroke-dasharray: 0px, 0px, 18.5691px, 18.5691px;"/></g></g></g></svg>