<svg class="main-svg" xmlns="http://www.w3.org/2000/svg" xmlns:xlink="http://www.w3.org/1999/xlink" width="1125" height="750" style="" viewBox="0 0 750 500"><rect x="0" y="0" width="750" height="500" style="fill: rgb(0, 0, 0); fill-opacity: 0;"/><defs id="defs-cd6d29"><g class="clips"><clipPath id="clipcd6d29xyplot" class="plotclip"><rect width="700" height="380"/></clipPath><clipPath class="axesclip" id="clipcd6d29x"><rect x="50" y="0" width="700" height="500"/></clipPath><clipPath class="axesclip" id="clipcd6d29y"><rect x="0" y="70" width="750" height="380"/></clipPath><clipPath class="axesclip" id="clipcd6d29xy"><rect x="50" y="70" width="700" height="380"/></clipPath></g><g class="gradients"/></defs><g class="bglayer"><rect class="bg" x="50" y="70" width="700" height="380" style="fill: rgb(0, 0, 0); fill-opacity: 0; stroke-width: 0;"/></g><g class="layer-below"><g class="imagelayer"/><g class="shapelayer"/></g><g class="cartesianlayer"><g class="subplot xy"><g class="layer-subplot"><g class="shapelayer"/><g class="imagelayer"/></g><g class="gridlayer"><g class="x"><path class="xgrid crisp" transform="translate(102.25999999999999,0)" d="M0,70v380" style="stroke: rgb(255, 255, 255); stroke-opacity: 1; stroke-width: 1px;"/><path class="xgrid crisp" transform="translate(198.87,0)" d="M0,70v380" style="stroke: rgb(255, 255, 255); stroke-opacity: 1; stroke-width: 1px;"/><path class="xgrid crisp" transform="translate(292.31,0)" d="M0,70v380" style="stroke: rgb(255, 255, 255); stroke-opacity: 1; stroke-width: 1px;"/><path class="xgrid crisp" transform="translate(388.91,0)" d="M0,70v380" style="stroke: rgb(255, 255, 255); stroke-opacity: 1; stroke-width: 1px;"/><path class="xgrid crisp" transform="translate(485.52,0)" d="M0,70v380" style="stroke: rgb(255, 255, 255); stroke-opacity: 1; stroke-width: 1px;"/><path class="xgrid crisp" transform="translate(583.71,0)" d="M0,70v380" style="stroke: rgb(255, 255, 255); stroke-opacity: 1; stroke-width: 1px;"/><path class="xgrid crisp" transform="translate(680.32,0)" d="M0,70v380" style="stroke: rgb(255, 255, 255); stroke-opacity: 1; stroke-width: 1px;"/></g><g class="y"/></g><g class="zerolinelayer"/><path class="xlines-below"/><path class="ylines-below"/><g class="overlines-below"/><g class="xaxislayer-below"/><g class="yaxislayer-below"/><g class="overaxes-below"/><g class="plot" transform="translate(50, 70)" clip-path="url('#clipcd6d29xyplot')"><g class="scatterlayer mlayer"><g class="trace scatter trace3d06f2" style="stroke-miterlimit: 2;"><g class="fills"><g><path class="js-fill" d="M673.08,380L-215.38,380L-215.38,362.75L-213.8,360.4L-212.22,362.67L-210.63,364.55L-205.88,367.69L-204.3,369.96L-202.71,373.88L-201.13,373.1L-199.55,373.33L-188.46,374.98L-186.88,375.3L-174.21,376.94L-172.62,377.26L-158.37,377.02L-156.79,377.41L-150.45,377.73L-148.87,378.04L-123.53,377.57L-121.95,376.31L-114.03,375.06L-112.44,375.22L-99.77,373.65L-98.19,373.33L-91.86,371.77L-90.27,369.65L-85.52,369.65L-83.94,369.73L-82.35,369.34L-80.77,366.98L-77.6,368.94L-76.02,369.18L-74.43,369.02L-72.85,366.51L-69.68,365.65L-68.1,365.02L-66.52,365.49L-64.93,363.92L-63.35,364.08L-61.76,362.28L-53.85,353.5L-52.26,353.26L-42.76,359.06L-41.18,359.14L-39.59,360.4L-38.01,360L-31.67,356.32L-30.09,355.93L-26.92,350.05L-25.34,349.5L-23.76,350.12L-22.17,349.18L-14.25,354.83L-12.67,354.28L-11.09,355.69L-9.5,355.69L-3.17,356.16L-1.58,354.44L1.58,350.05L3.17,350.12L4.75,346.6L6.33,340.64L9.5,330.36L11.09,323.23L12.67,319.15L14.25,318.21L15.84,306.45L17.42,302.06L22.17,272.18L23.76,267L25.34,265.98L26.92,246.85L30.09,203.8L31.67,172.67L33.26,136.52L34.84,121.7L36.43,120.29L38.01,85.32L41.18,51.05L42.76,44.62L44.34,34.58L45.93,32.7L47.51,32.62L49.1,21.09L50.68,0L52.26,0L53.85,2.82L55.43,19.68L57.01,27.13L58.6,27.29L61.76,67.59L63.35,124.29L64.93,130.25L66.52,142.01L68.1,147.42L69.68,149.3L72.85,186.24L74.43,161.14L77.6,199.96L79.19,205.21L80.77,205.37L82.35,218.94L85.52,239.79L87.1,242.7L88.69,248.42L90.27,251.01L91.86,250.69L93.44,252.81L95.02,257.75L96.61,257.28L98.19,258.38L99.77,253.75L101.36,249.05L102.94,248.18L104.52,245.6L106.11,239.09L112.44,221.29L114.03,219.95L117.19,202.94L118.78,196.9L121.95,191.49L123.53,186.78L125.11,187.57L126.7,184.67L128.28,177.69L129.86,175.89L131.45,183.57L133.03,211.33L134.62,228.03L136.2,227.64L137.78,223.33L139.37,224.03L142.53,219.17L144.12,220.58L145.7,194.94L147.29,195.1L148.87,197.14L150.45,197.61L152.04,205.13L153.62,203.8L155.2,179.49L156.79,191.02L158.37,191.33L159.95,199.49L163.12,218.54L164.71,220.03L167.87,226.54L169.46,227.17L171.04,227.64L172.62,226.38L175.79,215.8L177.38,209.53L178.96,206.39L180.54,205.21L183.71,183.88L185.29,179.34L186.88,175.57L188.46,166.87L191.63,166.95L193.21,167.73L194.8,167.73L196.38,165.93L197.96,166.08L199.55,167.97L201.13,161.77L202.71,160.99L204.3,157.93L205.88,159.03L207.47,158.56L209.05,161.38L210.63,168.91L212.22,172.36L218.55,165.77L220.14,155.89L221.72,147.34L223.3,149.85L228.05,154.4L229.64,159.81L231.22,168.12L232.81,169.53L234.39,167.18L235.97,168.04L237.56,175.57L239.14,178.24L242.31,186.16L243.89,191.41L247.06,191.57L248.64,193.61L250.23,193.53L251.81,188.9L254.98,178.47L256.56,180.04L258.14,176.59L259.73,168.67L261.31,166.32L262.9,165.85L264.48,162.16L266.06,160.99L267.65,155.58L269.23,157.07L270.81,157.93L272.4,156.75L273.98,157.46L275.57,155.97L278.73,150.01L280.32,149.3L283.48,132.99L285.07,129.93L286.65,131.42L288.24,161.85L289.82,154.32L291.4,156.05L292.99,206.78L294.57,189.06L296.15,185.61L297.74,187.65L299.32,158.56L300.9,168.83L302.49,168.04L304.07,127.5L305.66,158.4L307.24,171.49L308.82,176.51L310.41,188.04L311.99,197.06L313.57,198.47L316.74,214.54L318.33,217.13L319.91,225.99L321.49,230.54L323.08,230.85L324.66,232.34L329.41,249.83L331,254.22L332.58,255.87L334.16,267.71L335.75,267.4L337.33,275.32L338.91,278.37L340.5,283.71L342.08,288.33L343.67,295.47L346.83,296.72L348.42,301.11L350,303.62L351.58,304.25L353.17,313.82L354.75,312.48L356.33,308.56L357.92,309.98L359.5,315.46L361.09,316.95L362.67,321.03L364.25,313.27L365.84,320.25L367.42,319.23L369,319.15L370.59,331.3L372.17,327.46L373.76,326.6L376.92,326.21L378.51,328.72L380.09,328.48L381.67,320.33L383.26,330.05L384.84,332.87L388.01,341.18L389.59,342.36L391.18,342.91L392.76,348.56L394.34,350.2L395.93,353.57L397.51,354.44L399.1,357.02L400.68,358.98L402.26,359.22L405.43,364L407.01,365.65L408.6,368.55L410.18,368.87L411.76,370.04L413.35,369.96L414.93,370.35L416.52,371.77L418.1,372.16L419.68,371.69L421.27,372.32L422.85,372L426.02,370.98L427.6,369.73L433.94,363.77L435.52,364L440.27,355.93L441.86,356.16L443.44,354.83L445.02,354.67L446.61,353.65L448.19,351.38L449.77,348.32L451.36,352.16L452.94,345.11L454.52,343.54L456.11,340.4L457.69,340.17L460.86,328.48L462.44,315.86L464.03,311.94L465.61,304.02L467.19,297.59L468.78,297.04L470.36,282.37L471.95,274.92L476.7,257.36L478.28,256.97L479.86,256.81L481.45,254.46L483.03,253.75L484.62,254.38L487.78,253.75L489.37,251.79L490.95,251.24L492.53,246.54L498.87,231.4L500.45,228.58L502.04,228.66L503.62,227.17L505.2,225.52L506.79,225.68L508.37,228.58L509.95,233.13L511.54,236.11L513.12,236.58L519.46,257.75L521.04,258.53L522.62,260.57L524.21,260.65L525.79,268.26L527.38,270.45L528.96,268.02L530.54,269.36L533.71,272.81L535.29,272.65L538.46,277.04L540.05,282.37L543.21,288.25L544.8,288.8L546.38,289.98L547.96,293.04L549.55,298.37L551.13,300.96L552.71,303.86L554.3,309.82L555.88,313.11L557.47,313.03L559.05,317.58L560.63,317.97L563.8,323.46L565.38,321.66L566.97,323.07L568.55,323.46L571.72,330.36L573.3,330.52L574.89,333.03L576.47,337.89L579.64,338.52L581.22,341.26L582.81,342.44L584.39,345.26L585.97,346.75L587.56,346.2L592.31,347.22L593.89,347.46L595.48,347.77L597.06,344.32L600.23,346.52L601.81,346.67L604.98,345.97L606.56,344.24L608.14,344.09L609.73,342.36L611.31,340.64L612.9,340.32L616.06,337.5L617.65,337.34L619.23,337.97L620.81,334.99L623.98,332.64L625.57,339.62L628.73,325.11L630.32,322.29L633.48,316.33L635.07,316.72L636.65,298.06L638.24,302.06L639.82,300.49L641.4,307.39L642.99,298.84L644.57,296.57L646.15,295.94L647.74,286.22L650.9,263L652.49,233.68L655.66,215.33L657.24,213.76L661.99,172.43L663.57,168.04L666.74,147.97L668.33,145.3L669.91,125.23L671.49,116.05L673.08,107.43" style="fill: rgb(8, 115, 191); fill-opacity: 0.2; stroke-width: 0;"/></g></g><g class="errorbars"/><g class="lines"><path class="js-line" d="M-215.38,362.75L-213.8,360.4L-212.22,362.67L-210.63,364.55L-205.88,367.69L-204.3,369.96L-202.71,373.88L-201.13,373.1L-199.55,373.33L-188.46,374.98L-186.88,375.3L-174.21,376.94L-172.62,377.26L-158.37,377.02L-156.79,377.41L-150.45,377.73L-148.87,378.04L-123.53,377.57L-121.95,376.31L-114.03,375.06L-112.44,375.22L-99.77,373.65L-98.19,373.33L-91.86,371.77L-90.27,369.65L-85.52,369.65L-83.94,369.73L-82.35,369.34L-80.77,366.98L-77.6,368.94L-76.02,369.18L-74.43,369.02L-72.85,366.51L-69.68,365.65L-68.1,365.02L-66.52,365.49L-64.93,363.92L-63.35,364.08L-61.76,362.28L-53.85,353.5L-52.26,353.26L-42.76,359.06L-41.18,359.14L-39.59,360.4L-38.01,360L-31.67,356.32L-30.09,355.93L-26.92,350.05L-25.34,349.5L-23.76,350.12L-22.17,349.18L-14.25,354.83L-12.67,354.28L-11.09,355.69L-9.5,355.69L-3.17,356.16L-1.58,354.44L1.58,350.05L3.17,350.12L4.75,346.6L6.33,340.64L9.5,330.36L11.09,323.23L12.67,319.15L14.25,318.21L15.84,306.45L17.42,302.06L22.17,272.18L23.76,267L25.34,265.98L26.92,246.85L30.09,203.8L31.67,172.67L33.26,136.52L34.84,121.7L36.43,120.29L38.01,85.32L41.18,51.05L42.76,44.62L44.34,34.58L45.93,32.7L47.51,32.62L49.1,21.09L50.68,0L52.26,0L53.85,2.82L55.43,19.68L57.01,27.13L58.6,27.29L61.76,67.59L63.35,124.29L64.93,130.25L66.52,142.01L68.1,147.42L69.68,149.3L72.85,186.24L74.43,161.14L77.6,199.96L79.19,205.21L80.77,205.37L82.35,218.94L85.52,239.79L87.1,242.7L88.69,248.42L90.27,251.01L91.86,250.69L93.44,252.81L95.02,257.75L96.61,257.28L98.19,258.38L99.77,253.75L101.36,249.05L102.94,248.18L104.52,245.6L106.11,239.09L112.44,221.29L114.03,219.95L117.19,202.94L118.78,196.9L121.95,191.49L123.53,186.78L125.11,187.57L126.7,184.67L128.28,177.69L129.86,175.89L131.45,183.57L133.03,211.33L134.62,228.03L136.2,227.64L137.78,223.33L139.37,224.03L142.53,219.17L144.12,220.58L145.7,194.94L147.29,195.1L148.87,197.14L150.45,197.61L152.04,205.13L153.62,203.8L155.2,179.49L156.79,191.02L158.37,191.33L159.95,199.49L163.12,218.54L164.71,220.03L167.87,226.54L169.46,227.17L171.04,227.64L172.62,226.38L175.79,215.8L177.38,209.53L178.96,206.39L180.54,205.21L183.71,183.88L185.29,179.34L186.88,175.57L188.46,166.87L191.63,166.95L193.21,167.73L194.8,167.73L196.38,165.93L197.96,166.08L199.55,167.97L201.13,161.77L202.71,160.99L204.3,157.93L205.88,159.03L207.47,158.56L209.05,161.38L210.63,168.91L212.22,172.36L218.55,165.77L220.14,155.89L221.72,147.34L223.3,149.85L228.05,154.4L229.64,159.81L231.22,168.12L232.81,169.53L234.39,167.18L235.97,168.04L237.56,175.57L239.14,178.24L242.31,186.16L243.89,191.41L247.06,191.57L248.64,193.61L250.23,193.53L251.81,188.9L254.98,178.47L256.56,180.04L258.14,176.59L259.73,168.67L261.31,166.32L262.9,165.85L264.48,162.16L266.06,160.99L267.65,155.58L269.23,157.07L270.81,157.93L272.4,156.75L273.98,157.46L275.57,155.97L278.73,150.01L280.32,149.3L283.48,132.99L285.07,129.93L286.65,131.42L288.24,161.85L289.82,154.32L291.4,156.05L292.99,206.78L294.57,189.06L296.15,185.61L297.74,187.65L299.32,158.56L300.9,168.83L302.49,168.04L304.07,127.5L305.66,158.4L307.24,171.49L308.82,176.51L310.41,188.04L311.99,197.06L313.57,198.47L316.74,214.54L318.33,217.13L319.91,225.99L321.49,230.54L323.08,230.85L324.66,232.34L329.41,249.83L331,254.22L332.58,255.87L334.16,267.71L335.75,267.4L337.33,275.32L338.91,278.37L340.5,283.71L342.08,288.33L343.67,295.47L346.83,296.72L348.42,301.11L350,303.62L351.58,304.25L353.17,313.82L354.75,312.48L356.33,308.56L357.92,309.98L359.5,315.46L361.09,316.95L362.67,321.03L364.25,313.27L365.84,320.25L367.42,319.23L369,319.15L370.59,331.3L372.17,327.46L373.76,326.6L376.92,326.21L378.51,328.72L380.09,328.48L381.67,320.33L383.26,330.05L384.84,332.87L388.01,341.18L389.59,342.36L391.18,342.91L392.76,348.56L394.34,350.2L395.93,353.57L397.51,354.44L399.1,357.02L400.68,358.98L402.26,359.22L405.43,364L407.01,365.65L408.6,368.55L410.18,368.87L411.76,370.04L413.35,369.96L414.93,370.35L416.52,371.77L418.1,372.16L419.68,371.69L421.27,372.32L422.85,372L426.02,370.98L427.6,369.73L433.94,363.77L435.52,364L440.27,355.93L441.86,356.16L443.44,354.83L445.02,354.67L446.61,353.65L448.19,351.38L449.77,348.32L451.36,352.16L452.94,345.11L454.52,343.54L456.11,340.4L457.69,340.17L460.86,328.48L462.44,315.86L464.03,311.94L465.61,304.02L467.19,297.59L468.78,297.04L470.36,282.37L471.95,274.92L476.7,257.36L478.28,256.97L479.86,256.81L481.45,254.46L483.03,253.75L484.62,254.38L487.78,253.75L489.37,251.79L490.95,251.24L492.53,246.54L498.87,231.4L500.45,228.58L502.04,228.66L503.62,227.17L505.2,225.52L506.79,225.68L508.37,228.58L509.95,233.13L511.54,236.11L513.12,236.58L519.46,257.75L521.04,258.53L522.62,260.57L524.21,260.65L525.79,268.26L527.38,270.45L528.96,268.02L530.54,269.36L533.71,272.81L535.29,272.65L538.46,277.04L540.05,282.37L543.21,288.25L544.8,288.8L546.38,289.98L547.96,293.04L549.55,298.37L551.13,300.96L552.71,303.86L554.3,309.82L555.88,313.11L557.47,313.03L559.05,317.58L560.63,317.97L563.8,323.46L565.38,321.66L566.97,323.07L568.55,323.46L571.72,330.36L573.3,330.52L574.89,333.03L576.47,337.89L579.64,338.52L581.22,341.26L582.81,342.44L584.39,345.26L585.97,346.75L587.56,346.2L592.31,347.22L593.89,347.46L595.48,347.77L597.06,344.32L600.23,346.52L601.81,346.67L604.98,345.97L606.56,344.24L608.14,344.09L609.73,342.36L611.31,340.64L612.9,340.32L616.06,337.5L617.65,337.34L619.23,337.97L620.81,334.99L623.98,332.64L625.57,339.62L628.73,325.11L630.32,322.29L633.48,316.33L635.07,316.72L636.65,298.06L638.24,302.06L639.82,300.49L641.4,307.39L642.99,298.84L644.57,296.57L646.15,295.94L647.74,286.22L650.9,263L652.49,233.68L655.66,215.33L657.24,213.76L661.99,172.43L663.57,168.04L666.74,147.97L668.33,145.3L669.91,125.23L671.49,116.05L673.08,107.43" style="vector-effect: non-scaling-stroke; fill: none; stroke: rgb(8, 115, 191); stroke-opacity: 1; stroke-width: 0.5px; opacity: 1;"/></g><g class="points"/><g class="text"/></g><g class="trace scatter traceab3063" style="stroke-miterlimit: 2;"><g class="fills"><g><path class="js-fill" d="M688.91,380L673.08,380L673.08,107.43L676.24,84.22L677.83,79.98L679.41,81.32L681,73.08L682.58,71.12L684.16,63.36L685.75,66.42L687.33,73.63L688.91,73.95" style="fill: rgb(8, 115, 191); fill-opacity: 0.4; stroke-width: 0;"/></g></g><g class="errorbars"/><g class="lines"><path class="js-line" d="M673.08,107.43L676.24,84.22L677.83,79.98L679.41,81.32L681,73.08L682.58,71.12L684.16,63.36L685.75,66.42L687.33,73.63L688.91,73.95" style="vector-effect: non-scaling-stroke; fill: none; stroke: rgb(8, 115, 191); stroke-opacity: 1; stroke-width: 2px; opacity: 1;"/></g><g class="points"/><g class="text"/></g><g class="trace scatter trace889894" style="stroke-miterlimit: 2; opacity: 1;"><g class="fills"/><g class="errorbars"/><g class="lines"/><g class="points"><path class="point" transform="translate(688.91,73.95)" d="M15,0A15,15 0 1,1 0,-15A15,15 0 0,1 15,0Z" style="opacity: 1; stroke-width: 0px; fill: rgb(8, 115, 191); fill-opacity: 1;"/></g><g class="text"/></g></g></g><g class="overplot"/><path class="xlines-above crisp" style="fill: none; stroke-width: 1px; stroke: rgb(0, 0, 0); stroke-opacity: 0;" d=""/><path class="ylines-above crisp" style="fill: none;" d="M0,0"/><g class="overlines-above"/><g class="xaxislayer-above"><path class="xtick ticks crisp" d="M0,450v-5" transform="translate(102.25999999999999,0)" style="stroke: rgb(68, 68, 68); stroke-opacity: 1; stroke-width: 1px;"/><path class="xtick ticks crisp" d="M0,450v-5" transform="translate(198.87,0)" style="stroke: rgb(68, 68, 68); stroke-opacity: 1; stroke-width: 1px;"/><path class="xtick ticks crisp" d="M0,450v-5" transform="translate(292.31,0)" style="stroke: rgb(68, 68, 68); stroke-opacity: 1; stroke-width: 1px;"/><path class="xtick ticks crisp" d="M0,450v-5" transform="translate(388.91,0)" style="stroke: rgb(68, 68, 68); stroke-opacity: 1; stroke-width: 1px;"/><path class="xtick ticks crisp" d="M0,450v-5" transform="translate(485.52,0)" style="stroke: rgb(68, 68, 68); stroke-opacity: 1; stroke-width: 1px;"/><path class="xtick ticks crisp" d="M0,450v-5" transform="translate(583.71,0)" style="stroke: rgb(68, 68, 68); stroke-opacity: 1; stroke-width: 1px;"/><path class="xtick ticks crisp" d="M0,450v-5" transform="translate(680.32,0)" style="stroke: rgb(68, 68, 68); stroke-opacity: 1; stroke-width: 1px;"/><g class="xtick"><text text-anchor="middle" x="0" y="469" transform="translate(102.25999999999999,0)" style="font-family: 'Open Sans', verdana, arial, sans-serif; font-size: 18px; fill: rgb(42, 63, 95); fill-opacity: 1; white-space: pre;">01/11</text></g><g class="xtick"><text text-anchor="middle" x="0" y="469" transform="translate(198.87,0)" style="font-family: 'Open Sans', verdana, arial, sans-serif; font-size: 18px; fill: rgb(42, 63, 95); fill-opacity: 1; white-space: pre;">01/01</text></g><g class="xtick"><text text-anchor="middle" x="0" y="469" transform="translate(292.31,0)" style="font-family: 'Open Sans', verdana, arial, sans-serif; font-size: 18px; fill: rgb(42, 63, 95); fill-opacity: 1; white-space: pre;">01/03</text></g><g class="xtick"><text text-anchor="middle" x="0" y="469" transform="translate(388.91,0)" style="font-family: 'Open Sans', verdana, arial, sans-serif; font-size: 18px; fill: rgb(42, 63, 95); fill-opacity: 1; white-space: pre;">01/05</text></g><g class="xtick"><text text-anchor="middle" x="0" y="469" transform="translate(485.52,0)" style="font-family: 'Open Sans', verdana, arial, sans-serif; font-size: 18px; fill: rgb(42, 63, 95); fill-opacity: 1; white-space: pre;">01/07</text></g><g class="xtick"><text text-anchor="middle" x="0" y="469" transform="translate(583.71,0)" style="font-family: 'Open Sans', verdana, arial, sans-serif; font-size: 18px; fill: rgb(42, 63, 95); fill-opacity: 1; white-space: pre;">01/09</text></g><g class="xtick"><text text-anchor="middle" x="0" y="469" transform="translate(680.32,0)" style="font-family: 'Open Sans', verdana, arial, sans-serif; font-size: 18px; fill: rgb(42, 63, 95); fill-opacity: 1; white-space: pre;">01/11</text></g></g><g class="yaxislayer-above"/><g class="overaxes-above"/></g></g><g class="polarlayer"/><g class="ternarylayer"/><g class="geolayer"/><g class="funnelarealayer"/><g class="pielayer"/><g class="treemaplayer"/><g class="sunburstlayer"/><g class="glimages"/><defs id="topdefs-cd6d29"><g class="clips"/></defs><g class="layer-above"><g class="imagelayer"/><g class="shapelayer"><path data-index="0" fill-rule="evenodd" d="M-840.05,409.39L317.65,409.39" clip-path="url('#clipcd6d29xy')" style="opacity: 1; stroke: rgb(255, 0, 0); stroke-opacity: 1; fill: rgb(0, 0, 0); fill-opacity: 0; stroke-dasharray: 3px, 3px; stroke-width: 1.5px;"/></g></g><g class="infolayer"><g class="g-gtitle"><text class="gtitle" x="375" y="25" text-anchor="middle" dy="0.7em" style="font-family: 'Open Sans', verdana, arial, sans-serif; font-size: 50px; fill: rgb(42, 63, 95); opacity: 1; font-weight: normal; white-space: pre;"><tspan style="font-weight:bold">Moselle (57)</tspan></text></g><g class="g-xtitle"/><g class="annotation" data-index="0" style="opacity: 1;"><g class="annotation-text-g" transform="rotate(0,696.91,83.94999999999999)"><g class="cursor-pointer" transform="translate(639, 48)"><rect class="bg" x="0.5" y="0.5" width="115" height="71" style="stroke-width: 1px; stroke: rgb(0, 0, 0); stroke-opacity: 0; fill: rgb(255, 255, 255); fill-opacity: 0.6;"/><text class="annotation-text" text-anchor="middle" x="57.8125" y="55.5" style="font-family: 'Open Sans', verdana, arial, sans-serif; font-size: 50px; fill: rgb(8, 115, 191); fill-opacity: 1; white-space: pre;"> <tspan style="font-weight:bold">376 </tspan></text></g></g><g class="annotation-arrow-g" style="opacity: 1;"><path d="M725.31,119.44999999999999L736.91,133.95" style="stroke-width: 1px; stroke: rgb(8, 115, 191); stroke-opacity: 1; stroke-dasharray: 0px, 0px, 18.569px, 18.569px;"/></g></g></g></svg>