<svg class="main-svg" xmlns="http://www.w3.org/2000/svg" xmlns:xlink="http://www.w3.org/1999/xlink" width="1125" height="750" style="" viewBox="0 0 750 500"><rect x="0" y="0" width="750" height="500" style="fill: rgb(0, 0, 0); fill-opacity: 0;"/><defs id="defs-9d71c6"><g class="clips"><clipPath id="clip9d71c6xyplot" class="plotclip"><rect width="700" height="380"/></clipPath><clipPath class="axesclip" id="clip9d71c6x"><rect x="50" y="0" width="700" height="500"/></clipPath><clipPath class="axesclip" id="clip9d71c6y"><rect x="0" y="70" width="750" height="380"/></clipPath><clipPath class="axesclip" id="clip9d71c6xy"><rect x="50" y="70" width="700" height="380"/></clipPath></g><g class="gradients"/></defs><g class="bglayer"><rect class="bg" x="50" y="70" width="700" height="380" style="fill: rgb(0, 0, 0); fill-opacity: 0; stroke-width: 0;"/></g><g class="layer-below"><g class="imagelayer"/><g class="shapelayer"/></g><g class="cartesianlayer"><g class="subplot xy"><g class="layer-subplot"><g class="shapelayer"/><g class="imagelayer"/></g><g class="gridlayer"><g class="x"><path class="xgrid crisp" transform="translate(52.24,0)" d="M0,70v380" style="stroke: rgb(255, 255, 255); stroke-opacity: 1; stroke-width: 1px;"/><path class="xgrid crisp" transform="translate(155.11,0)" d="M0,70v380" style="stroke: rgb(255, 255, 255); stroke-opacity: 1; stroke-width: 1px;"/><path class="xgrid crisp" transform="translate(255.75,0)" d="M0,70v380" style="stroke: rgb(255, 255, 255); stroke-opacity: 1; stroke-width: 1px;"/><path class="xgrid crisp" transform="translate(357.51,0)" d="M0,70v380" style="stroke: rgb(255, 255, 255); stroke-opacity: 1; stroke-width: 1px;"/><path class="xgrid crisp" transform="translate(460.38,0)" d="M0,70v380" style="stroke: rgb(255, 255, 255); stroke-opacity: 1; stroke-width: 1px;"/><path class="xgrid crisp" transform="translate(563.26,0)" d="M0,70v380" style="stroke: rgb(255, 255, 255); stroke-opacity: 1; stroke-width: 1px;"/><path class="xgrid crisp" transform="translate(663.9,0)" d="M0,70v380" style="stroke: rgb(255, 255, 255); stroke-opacity: 1; stroke-width: 1px;"/></g><g class="y"/></g><g class="zerolinelayer"/><path class="xlines-below"/><path class="ylines-below"/><g class="overlines-below"/><g class="xaxislayer-below"/><g class="yaxislayer-below"/><g class="overaxes-below"/><g class="plot" transform="translate(50, 70)" clip-path="url('#clip9d71c6xyplot')"><g class="scatterlayer mlayer"><g class="trace scatter trace9849e8" style="stroke-miterlimit: 2;"><g class="fills"><g><path class="js-fill" d="M680.99,380L-152.08,380L-152.08,379.36L-112.94,379.77L-111.82,379.77L-43.61,378.96L-42.49,378.56L-38.02,376.71L-36.9,376.71L-23.48,377.86L-22.36,377.69L-17.89,376.3L-16.77,375.55L-14.54,375.09L-13.42,375.21L-12.3,374.69L-11.18,375.67L-3.35,376.65L-2.24,376.53L0,376.53L1.12,376.19L2.24,376.19L3.35,375.32L5.59,374.4L6.71,373.88L12.3,371.74L13.42,370.47L16.77,367.35L17.89,367.18L19.01,365.44L20.13,362.15L22.36,360.25L23.48,357.01L26.84,353.78L27.96,352.85L31.31,346.9L32.43,345.58L34.66,344.65L35.78,342.57L36.9,341.24L38.02,341.53L40.26,344.25L41.37,344.19L43.61,340.32L44.73,346.38L45.85,346.33L46.96,347.89L50.32,352.28L51.44,360.36L52.56,359.44L53.67,362.85L55.91,365.5L57.03,365.56L59.27,367.06L60.38,366.89L63.74,366.95L64.86,366.48L65.97,368.16L67.09,368.27L71.57,366.83L72.68,367.12L73.8,367.29L74.92,366.08L78.27,367.87L79.39,367.24L84.98,367.06L86.1,366.25L89.46,365.96L90.58,367L92.81,366.89L93.93,368.91L97.28,369.43L98.4,368.39L100.64,366.25L101.76,366.2L102.88,365.04L103.99,365.1L106.23,359.38L107.35,359.09L109.58,354.18L110.7,355.39L112.94,355.68L114.06,356.67L115.18,355.16L116.29,355.74L117.41,354.18L118.53,350.83L119.65,350.66L120.77,349.62L123,348.23L124.12,346.79L127.48,348.75L128.59,348.12L129.71,348.17L130.83,350.89L131.95,352.45L133.07,351.52L134.19,353.03L135.3,352.91L137.54,353.14L138.66,352.91L140.89,352.45L142.01,353.43L146.49,354.12L147.6,354.24L148.72,356.2L149.84,356.15L150.96,356.32L152.08,358.11L154.31,358.22L155.43,359.44L158.79,358.57L159.9,359.26L162.14,361.98L163.26,362.96L165.5,363.94L166.61,364L169.97,367.99L171.09,367.93L173.32,368.68L174.44,368.79L181.15,366.95L182.27,366.95L183.39,366.6L184.5,365.44L185.62,363.31L186.74,363.48L188.98,362.27L190.1,362.21L191.21,362.38L192.33,360.3L193.45,361.05L194.57,359.44L196.81,359.09L197.92,358.86L199.04,358.46L200.16,360.25L202.4,357.47L203.51,357.18L205.75,356.43L206.87,359.9L207.99,357.07L209.11,356.84L211.34,357.42L212.46,357.24L213.58,357.53L214.7,353.03L216.93,356.55L218.05,357.3L219.17,356.72L220.29,357.01L221.41,357.01L222.52,355.97L223.64,355.86L224.76,356.67L229.23,356.43L230.35,357.88L231.47,358.17L232.59,357.47L234.82,358.4L235.94,360.88L238.18,361.57L239.3,361.98L240.42,362.73L241.53,362.5L243.77,363.31L244.89,363.13L248.24,364.06L249.36,367.64L250.48,368.62L251.6,367.87L253.83,368.27L254.95,368.51L256.07,368.91L257.19,367.93L260.54,368.68L261.66,371.34L263.9,372.26L265.02,371.62L268.37,372.03L269.49,370.01L270.61,371.11L271.73,370.53L275.08,371.28L276.2,371.28L282.91,377.52L284.03,377.63L286.26,378.67L287.38,378.67L290.73,378.56L291.85,378.56L300.8,378.61L301.92,378.79L306.39,378.38L307.51,378.27L318.69,378.84L319.81,378.32L325.4,376.48L326.52,374.74L329.87,372.78L330.99,372.72L333.23,372.61L334.35,373.24L339.94,373.3L341.05,372.49L343.29,372.49L344.41,371.22L347.76,370.64L348.88,370.18L351.12,368.85L352.24,368.79L354.47,367.93L355.59,367.81L362.3,370.76L363.42,370.76L369.01,368.1L370.13,367.75L372.36,368.04L373.48,369.14L374.6,369.08L375.72,370.24L377.96,370.87L379.07,371.8L383.55,373.47L384.66,373.53L386.9,373.53L388.02,373.99L390.26,374.69L391.37,374.92L394.73,375.73L395.85,376.25L400.32,377.52L401.44,377.52L410.38,378.38L411.5,378.44L420.45,377.52L421.57,376.36L430.51,375.55L431.63,375.26L434.98,374.74L436.1,373.76L438.34,374.63L439.46,374.57L440.58,374.51L441.69,375.61L448.4,373.13L449.52,370.93L450.64,370.35L451.76,370.64L452.88,371.68L453.99,370.47L459.58,367.29L460.7,365.39L462.94,364L464.06,364.06L466.29,361.52L467.41,361.57L468.53,359.78L469.65,360.77L474.12,359.32L475.24,358.8L479.71,355.22L480.83,355.11L483.07,353.89L484.19,352.97L486.42,351.58L487.54,350.89L489.78,347.94L490.89,347.54L492.01,349.45L493.13,349.5L496.49,353.14L497.6,352.91L499.84,348.52L500.96,348.35L502.08,350.2L503.19,349.62L505.43,332.87L506.55,320.62L508.79,290.53L509.9,289.95L511.02,288.16L512.14,265.41L514.38,229.48L515.5,224.16L516.61,219.2L517.73,200.25L518.85,196.96L519.97,196.44L522.2,192.86L523.32,187.31L525.56,168.72L526.68,166.46L533.39,68.27L534.5,63.36L536.74,18.83L537.86,10.17L540.1,0L541.21,0.17L542.33,1.5L543.45,4.33L544.57,6.7L545.69,16.69L546.81,28.59L547.92,48.69L550.16,68.85L551.28,96.17L554.63,174.9L555.75,188.64L556.87,201.06L557.99,203.02L560.22,232.94L561.34,240.51L563.58,259.86L564.7,261.82L565.81,262L566.93,266.73L568.05,272.11L569.17,273.78L573.64,285.85L574.76,288.22L575.88,288.39L577,290.18L579.23,289.14L580.35,285.97L581.47,285.04L582.59,278.98L583.71,279.21L584.82,276.26L587.06,271.99L588.18,271.18L590.42,271.7L591.53,266.56L592.65,265.06L593.77,260.67L594.89,256.16L596.01,254.84L597.12,254.6L598.24,245.88L602.72,221.97L603.83,219.78L604.95,219.08L606.07,219.95L607.19,215.21L608.31,215.1L609.42,209.15L610.54,210.59L611.66,209.03L612.78,208.92L613.9,206.84L615.02,210.3L616.13,211.11L617.25,215.67L618.37,213.19L619.49,213.36L620.61,214.92L621.73,220.12L622.84,220.58L623.96,227.51L627.32,248.13L628.43,247.67L629.55,275.17L630.67,274.59L634.03,287.41L635.14,288.39L636.26,289.95L637.38,274.82L638.5,290.24L639.62,294.52L642.97,306.24L644.09,306.07L647.44,316.81L648.56,319.24L650.8,325.76L651.92,326.28L654.15,333.39L655.27,336.1L657.51,342.75L658.63,343.78L659.74,344.65L660.86,348.58L663.1,354.47L664.22,354.3L666.45,358.22L667.57,357.94L669.81,362.21L670.93,362.21L672.04,366.02L673.16,364.87L675.4,365.16L676.52,364.12L677.64,362.15L678.75,362.27L680.99,359.44" style="fill: rgb(8, 115, 191); fill-opacity: 0.2; stroke-width: 0;"/></g></g><g class="errorbars"/><g class="lines"><path class="js-line" d="M-152.08,379.36L-112.94,379.77L-111.82,379.77L-43.61,378.96L-42.49,378.56L-38.02,376.71L-36.9,376.71L-23.48,377.86L-22.36,377.69L-17.89,376.3L-16.77,375.55L-14.54,375.09L-13.42,375.21L-12.3,374.69L-11.18,375.67L-3.35,376.65L-2.24,376.53L0,376.53L1.12,376.19L2.24,376.19L3.35,375.32L5.59,374.4L6.71,373.88L12.3,371.74L13.42,370.47L16.77,367.35L17.89,367.18L19.01,365.44L20.13,362.15L22.36,360.25L23.48,357.01L26.84,353.78L27.96,352.85L31.31,346.9L32.43,345.58L34.66,344.65L35.78,342.57L36.9,341.24L38.02,341.53L40.26,344.25L41.37,344.19L43.61,340.32L44.73,346.38L45.85,346.33L46.96,347.89L50.32,352.28L51.44,360.36L52.56,359.44L53.67,362.85L55.91,365.5L57.03,365.56L59.27,367.06L60.38,366.89L63.74,366.95L64.86,366.48L65.97,368.16L67.09,368.27L71.57,366.83L72.68,367.12L73.8,367.29L74.92,366.08L78.27,367.87L79.39,367.24L84.98,367.06L86.1,366.25L89.46,365.96L90.58,367L92.81,366.89L93.93,368.91L97.28,369.43L98.4,368.39L100.64,366.25L101.76,366.2L102.88,365.04L103.99,365.1L106.23,359.38L107.35,359.09L109.58,354.18L110.7,355.39L112.94,355.68L114.06,356.67L115.18,355.16L116.29,355.74L117.41,354.18L118.53,350.83L119.65,350.66L120.77,349.62L123,348.23L124.12,346.79L127.48,348.75L128.59,348.12L129.71,348.17L130.83,350.89L131.95,352.45L133.07,351.52L134.19,353.03L135.3,352.91L137.54,353.14L138.66,352.91L140.89,352.45L142.01,353.43L146.49,354.12L147.6,354.24L148.72,356.2L149.84,356.15L150.96,356.32L152.08,358.11L154.31,358.22L155.43,359.44L158.79,358.57L159.9,359.26L162.14,361.98L163.26,362.96L165.5,363.94L166.61,364L169.97,367.99L171.09,367.93L173.32,368.68L174.44,368.79L181.15,366.95L182.27,366.95L183.39,366.6L184.5,365.44L185.62,363.31L186.74,363.48L188.98,362.27L190.1,362.21L191.21,362.38L192.33,360.3L193.45,361.05L194.57,359.44L196.81,359.09L197.92,358.86L199.04,358.46L200.16,360.25L202.4,357.47L203.51,357.18L205.75,356.43L206.87,359.9L207.99,357.07L209.11,356.84L211.34,357.42L212.46,357.24L213.58,357.53L214.7,353.03L216.93,356.55L218.05,357.3L219.17,356.72L220.29,357.01L221.41,357.01L222.52,355.97L223.64,355.86L224.76,356.67L229.23,356.43L230.35,357.88L231.47,358.17L232.59,357.47L234.82,358.4L235.94,360.88L238.18,361.57L239.3,361.98L240.42,362.73L241.53,362.5L243.77,363.31L244.89,363.13L248.24,364.06L249.36,367.64L250.48,368.62L251.6,367.87L253.83,368.27L254.95,368.51L256.07,368.91L257.19,367.93L260.54,368.68L261.66,371.34L263.9,372.26L265.02,371.62L268.37,372.03L269.49,370.01L270.61,371.11L271.73,370.53L275.08,371.28L276.2,371.28L282.91,377.52L284.03,377.63L286.26,378.67L287.38,378.67L290.73,378.56L291.85,378.56L300.8,378.61L301.92,378.79L306.39,378.38L307.51,378.27L318.69,378.84L319.81,378.32L325.4,376.48L326.52,374.74L329.87,372.78L330.99,372.72L333.23,372.61L334.35,373.24L339.94,373.3L341.05,372.49L343.29,372.49L344.41,371.22L347.76,370.64L348.88,370.18L351.12,368.85L352.24,368.79L354.47,367.93L355.59,367.81L362.3,370.76L363.42,370.76L369.01,368.1L370.13,367.75L372.36,368.04L373.48,369.14L374.6,369.08L375.72,370.24L377.96,370.87L379.07,371.8L383.55,373.47L384.66,373.53L386.9,373.53L388.02,373.99L390.26,374.69L391.37,374.92L394.73,375.73L395.85,376.25L400.32,377.52L401.44,377.52L410.38,378.38L411.5,378.44L420.45,377.52L421.57,376.36L430.51,375.55L431.63,375.26L434.98,374.74L436.1,373.76L438.34,374.63L439.46,374.57L440.58,374.51L441.69,375.61L448.4,373.13L449.52,370.93L450.64,370.35L451.76,370.64L452.88,371.68L453.99,370.47L459.58,367.29L460.7,365.39L462.94,364L464.06,364.06L466.29,361.52L467.41,361.57L468.53,359.78L469.65,360.77L474.12,359.32L475.24,358.8L479.71,355.22L480.83,355.11L483.07,353.89L484.19,352.97L486.42,351.58L487.54,350.89L489.78,347.94L490.89,347.54L492.01,349.45L493.13,349.5L496.49,353.14L497.6,352.91L499.84,348.52L500.96,348.35L502.08,350.2L503.19,349.62L505.43,332.87L506.55,320.62L508.79,290.53L509.9,289.95L511.02,288.16L512.14,265.41L514.38,229.48L515.5,224.16L516.61,219.2L517.73,200.25L518.85,196.96L519.97,196.44L522.2,192.86L523.32,187.31L525.56,168.72L526.68,166.46L533.39,68.27L534.5,63.36L536.74,18.83L537.86,10.17L540.1,0L541.21,0.17L542.33,1.5L543.45,4.33L544.57,6.7L545.69,16.69L546.81,28.59L547.92,48.69L550.16,68.85L551.28,96.17L554.63,174.9L555.75,188.64L556.87,201.06L557.99,203.02L560.22,232.94L561.34,240.51L563.58,259.86L564.7,261.82L565.81,262L566.93,266.73L568.05,272.11L569.17,273.78L573.64,285.85L574.76,288.22L575.88,288.39L577,290.18L579.23,289.14L580.35,285.97L581.47,285.04L582.59,278.98L583.71,279.21L584.82,276.26L587.06,271.99L588.18,271.18L590.42,271.7L591.53,266.56L592.65,265.06L593.77,260.67L594.89,256.16L596.01,254.84L597.12,254.6L598.24,245.88L602.72,221.97L603.83,219.78L604.95,219.08L606.07,219.95L607.19,215.21L608.31,215.1L609.42,209.15L610.54,210.59L611.66,209.03L612.78,208.92L613.9,206.84L615.02,210.3L616.13,211.11L617.25,215.67L618.37,213.19L619.49,213.36L620.61,214.92L621.73,220.12L622.84,220.58L623.96,227.51L627.32,248.13L628.43,247.67L629.55,275.17L630.67,274.59L634.03,287.41L635.14,288.39L636.26,289.95L637.38,274.82L638.5,290.24L639.62,294.52L642.97,306.24L644.09,306.07L647.44,316.81L648.56,319.24L650.8,325.76L651.92,326.28L654.15,333.39L655.27,336.1L657.51,342.75L658.63,343.78L659.74,344.65L660.86,348.58L663.1,354.47L664.22,354.3L666.45,358.22L667.57,357.94L669.81,362.21L670.93,362.21L672.04,366.02L673.16,364.87L675.4,365.16L676.52,364.12L677.64,362.15L678.75,362.27L680.99,359.44" style="vector-effect: non-scaling-stroke; fill: none; stroke: rgb(8, 115, 191); stroke-opacity: 1; stroke-width: 0.5px; opacity: 1;"/></g><g class="points"/><g class="text"/></g><g class="trace scatter traceef9589" style="stroke-miterlimit: 2;"><g class="fills"><g><path class="js-fill" d="M692.17,380L680.99,380L680.99,359.44L682.11,357.88L683.23,357.7L684.35,361.57L685.46,356.95L687.7,351.35L688.82,350.83L691.05,349.97L692.17,342.17" style="fill: rgb(8, 115, 191); fill-opacity: 0.4; stroke-width: 0;"/></g></g><g class="errorbars"/><g class="lines"><path class="js-line" d="M680.99,359.44L682.11,357.88L683.23,357.7L684.35,361.57L685.46,356.95L687.7,351.35L688.82,350.83L691.05,349.97L692.17,342.17" style="vector-effect: non-scaling-stroke; fill: none; stroke: rgb(8, 115, 191); stroke-opacity: 1; stroke-width: 2px; opacity: 1;"/></g><g class="points"/><g class="text"/></g><g class="trace scatter tracebcee64" style="stroke-miterlimit: 2; opacity: 1;"><g class="fills"/><g class="errorbars"/><g class="lines"/><g class="points"><path class="point" transform="translate(692.17,342.17)" d="M15,0A15,15 0 1,1 0,-15A15,15 0 0,1 15,0Z" style="opacity: 1; stroke-width: 0px; fill: rgb(8, 115, 191); fill-opacity: 1;"/></g><g class="text"/></g></g></g><g class="overplot"/><path class="xlines-above crisp" style="fill: none; stroke-width: 1px; stroke: rgb(0, 0, 0); stroke-opacity: 0;" d=""/><path class="ylines-above crisp" style="fill: none;" d="M0,0"/><g class="overlines-above"/><g class="xaxislayer-above"><path class="xtick ticks crisp" d="M0,450v-5" transform="translate(52.24,0)" style="stroke: rgb(68, 68, 68); stroke-opacity: 1; stroke-width: 1px;"/><path class="xtick ticks crisp" d="M0,450v-5" transform="translate(155.11,0)" style="stroke: rgb(68, 68, 68); stroke-opacity: 1; stroke-width: 1px;"/><path class="xtick ticks crisp" d="M0,450v-5" transform="translate(255.75,0)" style="stroke: rgb(68, 68, 68); stroke-opacity: 1; stroke-width: 1px;"/><path class="xtick ticks crisp" d="M0,450v-5" transform="translate(357.51,0)" style="stroke: rgb(68, 68, 68); stroke-opacity: 1; stroke-width: 1px;"/><path class="xtick ticks crisp" d="M0,450v-5" transform="translate(460.38,0)" style="stroke: rgb(68, 68, 68); stroke-opacity: 1; stroke-width: 1px;"/><path class="xtick ticks crisp" d="M0,450v-5" transform="translate(563.26,0)" style="stroke: rgb(68, 68, 68); stroke-opacity: 1; stroke-width: 1px;"/><path class="xtick ticks crisp" d="M0,450v-5" transform="translate(663.9,0)" style="stroke: rgb(68, 68, 68); stroke-opacity: 1; stroke-width: 1px;"/><g class="xtick"><text text-anchor="middle" x="0" y="469" transform="translate(52.24,0)" style="font-family: 'Open Sans', verdana, arial, sans-serif; font-size: 18px; fill: rgb(42, 63, 95); fill-opacity: 1; white-space: pre;">01/10</text></g><g class="xtick"><text text-anchor="middle" x="0" y="469" transform="translate(155.11,0)" style="font-family: 'Open Sans', verdana, arial, sans-serif; font-size: 18px; fill: rgb(42, 63, 95); fill-opacity: 1; white-space: pre;">01/01</text></g><g class="xtick"><text text-anchor="middle" x="0" y="469" transform="translate(255.75,0)" style="font-family: 'Open Sans', verdana, arial, sans-serif; font-size: 18px; fill: rgb(42, 63, 95); fill-opacity: 1; white-space: pre;">01/04</text></g><g class="xtick"><text text-anchor="middle" x="0" y="469" transform="translate(357.51,0)" style="font-family: 'Open Sans', verdana, arial, sans-serif; font-size: 18px; fill: rgb(42, 63, 95); fill-opacity: 1; white-space: pre;">01/07</text></g><g class="xtick"><text text-anchor="middle" x="0" y="469" transform="translate(460.38,0)" style="font-family: 'Open Sans', verdana, arial, sans-serif; font-size: 18px; fill: rgb(42, 63, 95); fill-opacity: 1; white-space: pre;">01/10</text></g><g class="xtick"><text text-anchor="middle" x="0" y="469" transform="translate(563.26,0)" style="font-family: 'Open Sans', verdana, arial, sans-serif; font-size: 18px; fill: rgb(42, 63, 95); fill-opacity: 1; white-space: pre;">01/01</text></g><g class="xtick"><text text-anchor="middle" x="0" y="469" transform="translate(663.9,0)" style="font-family: 'Open Sans', verdana, arial, sans-serif; font-size: 18px; fill: rgb(42, 63, 95); fill-opacity: 1; white-space: pre;">01/04</text></g></g><g class="yaxislayer-above"/><g class="overaxes-above"/></g></g><g class="polarlayer"/><g class="ternarylayer"/><g class="geolayer"/><g class="funnelarealayer"/><g class="pielayer"/><g class="treemaplayer"/><g class="sunburstlayer"/><g class="glimages"/><defs id="topdefs-9d71c6"><g class="clips"/></defs><g class="layer-above"><g class="imagelayer"/><g class="shapelayer"><path data-index="0" fill-rule="evenodd" d="M-578.43,443.73L238.98,443.73" clip-path="url('#clip9d71c6xy')" style="opacity: 1; stroke: rgb(255, 0, 0); stroke-opacity: 1; fill: rgb(0, 0, 0); fill-opacity: 0; stroke-dasharray: 3px, 3px; stroke-width: 1.5px;"/></g></g><g class="infolayer"><g class="g-gtitle"><text class="gtitle" x="375" y="25" text-anchor="middle" dy="0.7em" style="font-family: 'Open Sans', verdana, arial, sans-serif; font-size: 50px; fill: rgb(42, 63, 95); opacity: 1; font-weight: normal; white-space: pre;"><tspan style="font-weight:bold">Indre (36)</tspan></text></g><g class="g-xtitle"/><g class="annotation" data-index="0" style="opacity: 1;"><g class="annotation-text-g" transform="rotate(0,700.17,352.17)"><g class="cursor-pointer" transform="translate(642, 316)"><rect class="bg" x="0.5" y="0.5" width="115" height="71" style="stroke-width: 1px; stroke: rgb(0, 0, 0); stroke-opacity: 0; fill: rgb(255, 255, 255); fill-opacity: 0.6;"/><text class="annotation-text" text-anchor="middle" x="57.8125" y="55.5" style="font-family: 'Open Sans', verdana, arial, sans-serif; font-size: 50px; fill: rgb(8, 115, 191); fill-opacity: 1; white-space: pre;"> <tspan style="font-weight:bold">301 </tspan></text></g></g><g class="annotation-arrow-g" style="opacity: 1;"><path d="M728.5699999999999,387.67L740.17,402.17" style="stroke-width: 1px; stroke: rgb(8, 115, 191); stroke-opacity: 1; stroke-dasharray: 0px, 0px, 18.569px, 18.569px;"/></g></g></g></svg>