<svg class="main-svg" xmlns="http://www.w3.org/2000/svg" xmlns:xlink="http://www.w3.org/1999/xlink" width="1125" height="750" style="" viewBox="0 0 750 500"><rect x="0" y="0" width="750" height="500" style="fill: rgb(0, 0, 0); fill-opacity: 0;"/><defs id="defs-7d8951"><g class="clips"><clipPath id="clip7d8951xyplot" class="plotclip"><rect width="700" height="380"/></clipPath><clipPath class="axesclip" id="clip7d8951x"><rect x="50" y="0" width="700" height="500"/></clipPath><clipPath class="axesclip" id="clip7d8951y"><rect x="0" y="70" width="750" height="380"/></clipPath><clipPath class="axesclip" id="clip7d8951xy"><rect x="50" y="70" width="700" height="380"/></clipPath></g><g class="gradients"/></defs><g class="bglayer"><rect class="bg" x="50" y="70" width="700" height="380" style="fill: rgb(0, 0, 0); fill-opacity: 0; stroke-width: 0;"/></g><g class="layer-below"><g class="imagelayer"/><g class="shapelayer"/></g><g class="cartesianlayer"><g class="subplot xy"><g class="layer-subplot"><g class="shapelayer"/><g class="imagelayer"/></g><g class="gridlayer"><g class="x"><path class="xgrid crisp" transform="translate(103.97,0)" d="M0,70v380" style="stroke: rgb(255, 255, 255); stroke-opacity: 1; stroke-width: 1px;"/><path class="xgrid crisp" transform="translate(203.74,0)" d="M0,70v380" style="stroke: rgb(255, 255, 255); stroke-opacity: 1; stroke-width: 1px;"/><path class="xgrid crisp" transform="translate(300.23,0)" d="M0,70v380" style="stroke: rgb(255, 255, 255); stroke-opacity: 1; stroke-width: 1px;"/><path class="xgrid crisp" transform="translate(400,0)" d="M0,70v380" style="stroke: rgb(255, 255, 255); stroke-opacity: 1; stroke-width: 1px;"/><path class="xgrid crisp" transform="translate(499.77,0)" d="M0,70v380" style="stroke: rgb(255, 255, 255); stroke-opacity: 1; stroke-width: 1px;"/><path class="xgrid crisp" transform="translate(601.17,0)" d="M0,70v380" style="stroke: rgb(255, 255, 255); stroke-opacity: 1; stroke-width: 1px;"/><path class="xgrid crisp" transform="translate(700.93,0)" d="M0,70v380" style="stroke: rgb(255, 255, 255); stroke-opacity: 1; stroke-width: 1px;"/></g><g class="y"/></g><g class="zerolinelayer"/><path class="xlines-below"/><path class="ylines-below"/><g class="overlines-below"/><g class="xaxislayer-below"/><g class="yaxislayer-below"/><g class="overaxes-below"/><g class="plot" transform="translate(50, 70)" clip-path="url('#clip7d8951xyplot')"><g class="scatterlayer mlayer"><g class="trace scatter tracea57f0e" style="stroke-miterlimit: 2;"><g class="fills"><g><path class="js-fill" d="M672.2,380L-222.43,380L-222.43,369.95L-210.98,372.46L-209.35,373.9L-197.9,376.77L-196.26,376.41L-188.08,377.13L-186.45,377.13L-176.64,377.49L-175,376.41L-168.46,373.54L-166.82,373.54L-155.37,377.13L-153.74,377.13L-139.02,375.34L-137.38,376.77L-121.03,376.77L-119.39,376.05L-106.31,378.56L-104.67,378.56L-99.77,377.85L-98.13,377.85L-94.86,377.85L-93.22,377.13L-85.05,372.11L-83.41,370.31L-80.14,368.88L-78.5,369.95L-75.23,368.88L-73.6,370.31L-70.33,372.11L-68.69,372.82L-65.42,371.75L-63.79,373.18L-57.24,367.44L-55.61,368.16L-53.97,368.52L-52.34,367.44L-50.7,369.24L-49.07,368.88L-47.43,371.75L-45.79,369.95L-42.52,367.44L-40.89,367.8L-39.25,364.93L-37.62,364.93L-34.35,351.65L-32.71,353.09L-31.07,351.29L-29.44,340.17L-27.8,338.73L-26.17,332.63L-24.53,334.43L-22.9,331.2L-21.26,330.12L-19.63,331.92L-17.99,337.66L-16.36,334.43L-14.72,338.73L-13.08,338.38L-11.45,343.76L-9.81,339.81L-6.54,336.58L-4.91,332.28L-3.27,317.2L-1.64,312.18L0,312.9L1.64,314.69L3.27,313.62L4.91,303.93L6.54,289.22L8.18,294.96L9.81,290.65L11.45,279.53L13.08,279.89L14.72,282.04L16.36,283.47L17.99,298.9L19.63,300.7L21.26,293.52L22.9,294.6L24.53,289.58L26.17,287.78L27.8,280.6L31.07,255.85L32.71,252.26L34.35,223.91L35.98,209.92L37.62,203.46L39.25,166.5L44.16,76.07L45.79,61.36L49.07,53.82L50.7,51.67L52.34,43.78L53.97,61L55.61,62.8L57.24,69.61L58.88,68.18L60.51,72.48L63.79,92.22L65.42,129.9L67.06,122.72L68.69,141.02L70.33,136.71L71.96,137.43L73.6,145.68L75.23,163.98L76.87,137.79L78.5,162.19L80.14,164.7L81.78,183.36L83.41,182.64L85.05,190.18L88.32,213.5L89.95,211.35L91.59,221.76L93.22,225.34L94.86,230.73L96.5,245.8L98.13,245.44L99.77,246.52L101.4,254.77L103.04,255.13L104.67,255.85L106.31,253.33L109.58,226.06L111.21,214.94L112.85,198.79L114.49,192.69L117.76,188.74L119.39,183.72L121.03,187.67L122.66,198.43L124.3,200.23L125.93,188.39L127.57,184.8L129.21,186.95L130.84,190.54L132.48,187.31L134.11,181.93L135.75,187.67L137.38,224.27L139.02,213.5L140.65,214.58L142.29,212.43L145.56,193.05L147.2,189.1L148.83,190.54L150.47,196.28L152.1,193.41L153.74,197L155.37,189.46L157.01,195.56L158.64,205.25L160.28,180.13L161.92,188.39L163.55,188.03L165.19,189.46L166.82,197.36L168.46,196.28L170.09,183L171.73,183.36L173.36,176.9L175,177.98L176.64,172.6L179.91,185.51L181.54,203.1L183.18,197L184.81,202.74L186.45,202.38L188.08,210.99L189.72,209.56L191.36,205.97L192.99,197L194.63,207.4L196.26,205.97L197.9,208.12L199.53,199.15L201.17,200.59L204.44,219.6L206.07,221.76L207.71,224.99L209.35,226.42L212.62,255.13L214.25,260.87L215.89,271.63L217.52,271.63L219.16,274.15L220.79,274.5L222.43,292.45L224.07,292.45L225.7,297.83L227.34,293.16L228.97,291.01L230.61,287.06L232.24,287.06L233.88,274.5L235.51,274.86L237.15,268.05L238.79,260.87L240.42,259.07L243.69,259.79L245.33,248.31L246.96,231.8L248.6,229.29L250.23,233.24L251.87,221.76L253.5,225.34L255.14,223.19L258.41,235.39L260.05,230.01L261.68,219.24L263.32,221.4L264.95,210.63L266.59,211.35L273.13,147.84L274.77,140.66L276.4,138.51L278.04,133.84L279.67,118.77L281.31,96.17L282.94,92.58L284.58,86.48L287.85,66.74L289.49,67.46L291.12,59.92L292.76,63.51L294.39,59.21L296.03,73.92L299.3,90.42L300.93,87.2L302.57,148.2L304.21,115.54L307.48,93.65L309.11,70.69L310.75,65.67L312.38,66.02L314.02,0L315.65,40.55L317.29,36.24L318.93,38.39L320.56,54.18L322.2,53.47L323.83,54.18L325.47,73.2L327.1,79.3L328.74,105.14L332.01,123.08L333.64,123.44L336.92,131.69L338.55,152.5L340.19,160.4L341.82,172.96L343.46,181.57L345.09,205.97L346.73,207.04L348.36,218.53L350,217.45L351.64,221.4L354.91,212.07L356.54,214.22L358.18,212.43L359.81,203.81L361.45,197.71L363.08,183.72L364.72,209.2L366.36,211.71L367.99,197.36L369.63,200.23L371.26,207.76L372.9,204.53L374.53,214.22L376.17,197.36L377.8,205.61L379.44,207.76L381.07,207.04L382.71,240.06L384.35,233.6L385.98,235.03L387.62,236.83L389.25,241.13L390.89,247.95L392.52,249.03L394.16,232.16L395.79,265.17L399.07,289.58L400.7,296.39L402.34,300.34L403.97,301.42L405.61,312.54L407.24,316.13L408.88,320.43L410.51,329.41L412.15,338.38L413.79,339.81L415.42,340.53L417.06,345.55L418.69,344.12L420.33,346.63L421.96,348.06L423.6,350.93L425.23,353.45L426.87,353.81L431.78,366.72L433.41,367.44L436.68,364.93L438.32,365.29L439.95,365.29L441.59,366.72L443.22,365.65L444.86,365.65L446.5,367.8L448.13,368.16L449.77,368.16L451.4,369.24L454.67,371.03L456.31,370.31L457.94,369.95L459.58,371.03L461.21,371.39L462.85,368.52L464.49,363.14L466.12,362.42L469.39,347.35L471.03,339.09L472.66,337.66L474.3,331.56L477.57,317.56L479.21,320.43L482.48,325.1L484.11,322.59L485.75,317.56L487.38,316.85L489.02,317.2L490.65,316.13L492.29,313.98L493.93,315.05L495.56,317.92L497.2,316.49L498.83,314.33L500.47,316.49L502.1,308.95L503.74,306.8L505.37,295.32L507.01,295.32L508.64,293.16L510.28,292.45L513.55,280.25L515.19,278.45L516.82,287.78L518.46,285.99L521.73,294.24L523.36,296.03L526.64,308.95L528.27,306.44L529.91,308.23L531.54,308.59L533.18,307.52L534.81,310.03L536.45,311.1L538.08,308.59L539.72,309.67L541.36,308.59L542.99,307.88L544.63,313.98L546.26,316.85L547.9,322.23L549.53,324.74L551.17,329.76L552.8,330.84L554.44,335.86L557.71,338.73L559.35,341.61L564.25,347.35L565.89,354.52L567.52,355.24L569.16,357.39L570.79,357.03L572.43,358.83L575.7,356.32L577.34,353.81L578.97,356.32L580.61,356.32L583.88,361.34L585.51,361.7L588.79,363.85L590.42,363.85L595.33,358.11L596.96,359.91L598.6,359.91L600.23,358.83L601.87,355.24L603.5,355.6L608.41,349.86L610.05,349.5L611.68,344.83L613.32,345.91L616.59,350.93L618.22,352.01L621.5,352.37L623.13,358.47L624.77,361.7L626.4,360.62L631.31,358.83L632.94,359.19L634.58,358.47L636.21,354.88L639.49,349.5L641.12,343.4L642.76,345.55L644.39,345.19L646.03,347.71L647.66,345.19L650.93,339.09L652.57,340.17L654.21,330.48L655.84,330.84L657.48,318.64L659.11,317.56L660.75,308.23L662.38,316.13L664.02,296.75L665.65,291.73L667.29,287.06L668.93,262.3L672.2,241.49" style="fill: rgb(8, 115, 191); fill-opacity: 0.2; stroke-width: 0;"/></g></g><g class="errorbars"/><g class="lines"><path class="js-line" d="M-222.43,369.95L-210.98,372.46L-209.35,373.9L-197.9,376.77L-196.26,376.41L-188.08,377.13L-186.45,377.13L-176.64,377.49L-175,376.41L-168.46,373.54L-166.82,373.54L-155.37,377.13L-153.74,377.13L-139.02,375.34L-137.38,376.77L-121.03,376.77L-119.39,376.05L-106.31,378.56L-104.67,378.56L-99.77,377.85L-98.13,377.85L-94.86,377.85L-93.22,377.13L-85.05,372.11L-83.41,370.31L-80.14,368.88L-78.5,369.95L-75.23,368.88L-73.6,370.31L-70.33,372.11L-68.69,372.82L-65.42,371.75L-63.79,373.18L-57.24,367.44L-55.61,368.16L-53.97,368.52L-52.34,367.44L-50.7,369.24L-49.07,368.88L-47.43,371.75L-45.79,369.95L-42.52,367.44L-40.89,367.8L-39.25,364.93L-37.62,364.93L-34.35,351.65L-32.71,353.09L-31.07,351.29L-29.44,340.17L-27.8,338.73L-26.17,332.63L-24.53,334.43L-22.9,331.2L-21.26,330.12L-19.63,331.92L-17.99,337.66L-16.36,334.43L-14.72,338.73L-13.08,338.38L-11.45,343.76L-9.81,339.81L-6.54,336.58L-4.91,332.28L-3.27,317.2L-1.64,312.18L0,312.9L1.64,314.69L3.27,313.62L4.91,303.93L6.54,289.22L8.18,294.96L9.81,290.65L11.45,279.53L13.08,279.89L14.72,282.04L16.36,283.47L17.99,298.9L19.63,300.7L21.26,293.52L22.9,294.6L24.53,289.58L26.17,287.78L27.8,280.6L31.07,255.85L32.71,252.26L34.35,223.91L35.98,209.92L37.62,203.46L39.25,166.5L44.16,76.07L45.79,61.36L49.07,53.82L50.7,51.67L52.34,43.78L53.97,61L55.61,62.8L57.24,69.61L58.88,68.18L60.51,72.48L63.79,92.22L65.42,129.9L67.06,122.72L68.69,141.02L70.33,136.71L71.96,137.43L73.6,145.68L75.23,163.98L76.87,137.79L78.5,162.19L80.14,164.7L81.78,183.36L83.41,182.64L85.05,190.18L88.32,213.5L89.95,211.35L91.59,221.76L93.22,225.34L94.86,230.73L96.5,245.8L98.13,245.44L99.77,246.52L101.4,254.77L103.04,255.13L104.67,255.85L106.31,253.33L109.58,226.06L111.21,214.94L112.85,198.79L114.49,192.69L117.76,188.74L119.39,183.72L121.03,187.67L122.66,198.43L124.3,200.23L125.93,188.39L127.57,184.8L129.21,186.95L130.84,190.54L132.48,187.31L134.11,181.93L135.75,187.67L137.38,224.27L139.02,213.5L140.65,214.58L142.29,212.43L145.56,193.05L147.2,189.1L148.83,190.54L150.47,196.28L152.1,193.41L153.74,197L155.37,189.46L157.01,195.56L158.64,205.25L160.28,180.13L161.92,188.39L163.55,188.03L165.19,189.46L166.82,197.36L168.46,196.28L170.09,183L171.73,183.36L173.36,176.9L175,177.98L176.64,172.6L179.91,185.51L181.54,203.1L183.18,197L184.81,202.74L186.45,202.38L188.08,210.99L189.72,209.56L191.36,205.97L192.99,197L194.63,207.4L196.26,205.97L197.9,208.12L199.53,199.15L201.17,200.59L204.44,219.6L206.07,221.76L207.71,224.99L209.35,226.42L212.62,255.13L214.25,260.87L215.89,271.63L217.52,271.63L219.16,274.15L220.79,274.5L222.43,292.45L224.07,292.45L225.7,297.83L227.34,293.16L228.97,291.01L230.61,287.06L232.24,287.06L233.88,274.5L235.51,274.86L237.15,268.05L238.79,260.87L240.42,259.07L243.69,259.79L245.33,248.31L246.96,231.8L248.6,229.29L250.23,233.24L251.87,221.76L253.5,225.34L255.14,223.19L258.41,235.39L260.05,230.01L261.68,219.24L263.32,221.4L264.95,210.63L266.59,211.35L273.13,147.84L274.77,140.66L276.4,138.51L278.04,133.84L279.67,118.77L281.31,96.17L282.94,92.58L284.58,86.48L287.85,66.74L289.49,67.46L291.12,59.92L292.76,63.51L294.39,59.21L296.03,73.92L299.3,90.42L300.93,87.2L302.57,148.2L304.21,115.54L307.48,93.65L309.11,70.69L310.75,65.67L312.38,66.02L314.02,0L315.65,40.55L317.29,36.24L318.93,38.39L320.56,54.18L322.2,53.47L323.83,54.18L325.47,73.2L327.1,79.3L328.74,105.14L332.01,123.08L333.64,123.44L336.92,131.69L338.55,152.5L340.19,160.4L341.82,172.96L343.46,181.57L345.09,205.97L346.73,207.04L348.36,218.53L350,217.45L351.64,221.4L354.91,212.07L356.54,214.22L358.18,212.43L359.81,203.81L361.45,197.71L363.08,183.72L364.72,209.2L366.36,211.71L367.99,197.36L369.63,200.23L371.26,207.76L372.9,204.53L374.53,214.22L376.17,197.36L377.8,205.61L379.44,207.76L381.07,207.04L382.71,240.06L384.35,233.6L385.98,235.03L387.62,236.83L389.25,241.13L390.89,247.95L392.52,249.03L394.16,232.16L395.79,265.17L399.07,289.58L400.7,296.39L402.34,300.34L403.97,301.42L405.61,312.54L407.24,316.13L408.88,320.43L410.51,329.41L412.15,338.38L413.79,339.81L415.42,340.53L417.06,345.55L418.69,344.12L420.33,346.63L421.96,348.06L423.6,350.93L425.23,353.45L426.87,353.81L431.78,366.72L433.41,367.44L436.68,364.93L438.32,365.29L439.95,365.29L441.59,366.72L443.22,365.65L444.86,365.65L446.5,367.8L448.13,368.16L449.77,368.16L451.4,369.24L454.67,371.03L456.31,370.31L457.94,369.95L459.58,371.03L461.21,371.39L462.85,368.52L464.49,363.14L466.12,362.42L469.39,347.35L471.03,339.09L472.66,337.66L474.3,331.56L477.57,317.56L479.21,320.43L482.48,325.1L484.11,322.59L485.75,317.56L487.38,316.85L489.02,317.2L490.65,316.13L492.29,313.98L493.93,315.05L495.56,317.92L497.2,316.49L498.83,314.33L500.47,316.49L502.1,308.95L503.74,306.8L505.37,295.32L507.01,295.32L508.64,293.16L510.28,292.45L513.55,280.25L515.19,278.45L516.82,287.78L518.46,285.99L521.73,294.24L523.36,296.03L526.64,308.95L528.27,306.44L529.91,308.23L531.54,308.59L533.18,307.52L534.81,310.03L536.45,311.1L538.08,308.59L539.72,309.67L541.36,308.59L542.99,307.88L544.63,313.98L546.26,316.85L547.9,322.23L549.53,324.74L551.17,329.76L552.8,330.84L554.44,335.86L557.71,338.73L559.35,341.61L564.25,347.35L565.89,354.52L567.52,355.24L569.16,357.39L570.79,357.03L572.43,358.83L575.7,356.32L577.34,353.81L578.97,356.32L580.61,356.32L583.88,361.34L585.51,361.7L588.79,363.85L590.42,363.85L595.33,358.11L596.96,359.91L598.6,359.91L600.23,358.83L601.87,355.24L603.5,355.6L608.41,349.86L610.05,349.5L611.68,344.83L613.32,345.91L616.59,350.93L618.22,352.01L621.5,352.37L623.13,358.47L624.77,361.7L626.4,360.62L631.31,358.83L632.94,359.19L634.58,358.47L636.21,354.88L639.49,349.5L641.12,343.4L642.76,345.55L644.39,345.19L646.03,347.71L647.66,345.19L650.93,339.09L652.57,340.17L654.21,330.48L655.84,330.84L657.48,318.64L659.11,317.56L660.75,308.23L662.38,316.13L664.02,296.75L665.65,291.73L667.29,287.06L668.93,262.3L672.2,241.49" style="vector-effect: non-scaling-stroke; fill: none; stroke: rgb(8, 115, 191); stroke-opacity: 1; stroke-width: 0.5px; opacity: 1;"/></g><g class="points"/><g class="text"/></g><g class="trace scatter trace34e33f" style="stroke-miterlimit: 2;"><g class="fills"><g><path class="js-fill" d="M688.55,380L672.2,380L672.2,241.49L673.83,208.12L675.47,199.51L677.1,191.97L678.74,191.97L680.37,195.92L682.01,188.39L683.64,161.47L685.28,155.01L686.92,138.51L688.55,141.38" style="fill: rgb(8, 115, 191); fill-opacity: 0.4; stroke-width: 0;"/></g></g><g class="errorbars"/><g class="lines"><path class="js-line" d="M672.2,241.49L673.83,208.12L675.47,199.51L677.1,191.97L678.74,191.97L680.37,195.92L682.01,188.39L683.64,161.47L685.28,155.01L686.92,138.51L688.55,141.38" style="vector-effect: non-scaling-stroke; fill: none; stroke: rgb(8, 115, 191); stroke-opacity: 1; stroke-width: 2px; opacity: 1;"/></g><g class="points"/><g class="text"/></g><g class="trace scatter trace69d17a" style="stroke-miterlimit: 2; opacity: 1;"><g class="fills"/><g class="errorbars"/><g class="lines"/><g class="points"><path class="point" transform="translate(688.55,141.38)" d="M15,0A15,15 0 1,1 0,-15A15,15 0 0,1 15,0Z" style="opacity: 1; stroke-width: 0px; fill: rgb(8, 115, 191); fill-opacity: 1;"/></g><g class="text"/></g></g></g><g class="overplot"/><path class="xlines-above crisp" style="fill: none; stroke-width: 1px; stroke: rgb(0, 0, 0); stroke-opacity: 0;" d=""/><path class="ylines-above crisp" style="fill: none;" d="M0,0"/><g class="overlines-above"/><g class="xaxislayer-above"><path class="xtick ticks crisp" d="M0,450v-5" transform="translate(103.97,0)" style="stroke: rgb(68, 68, 68); stroke-opacity: 1; stroke-width: 1px;"/><path class="xtick ticks crisp" d="M0,450v-5" transform="translate(203.74,0)" style="stroke: rgb(68, 68, 68); stroke-opacity: 1; stroke-width: 1px;"/><path class="xtick ticks crisp" d="M0,450v-5" transform="translate(300.23,0)" style="stroke: rgb(68, 68, 68); stroke-opacity: 1; stroke-width: 1px;"/><path class="xtick ticks crisp" d="M0,450v-5" transform="translate(400,0)" style="stroke: rgb(68, 68, 68); stroke-opacity: 1; stroke-width: 1px;"/><path class="xtick ticks crisp" d="M0,450v-5" transform="translate(499.77,0)" style="stroke: rgb(68, 68, 68); stroke-opacity: 1; stroke-width: 1px;"/><path class="xtick ticks crisp" d="M0,450v-5" transform="translate(601.17,0)" style="stroke: rgb(68, 68, 68); stroke-opacity: 1; stroke-width: 1px;"/><path class="xtick ticks crisp" d="M0,450v-5" transform="translate(700.93,0)" style="stroke: rgb(68, 68, 68); stroke-opacity: 1; stroke-width: 1px;"/><g class="xtick"><text text-anchor="middle" x="0" y="469" transform="translate(103.97,0)" style="font-family: 'Open Sans', verdana, arial, sans-serif; font-size: 18px; fill: rgb(42, 63, 95); fill-opacity: 1; white-space: pre;">01/11</text></g><g class="xtick"><text text-anchor="middle" x="0" y="469" transform="translate(203.74,0)" style="font-family: 'Open Sans', verdana, arial, sans-serif; font-size: 18px; fill: rgb(42, 63, 95); fill-opacity: 1; white-space: pre;">01/01</text></g><g class="xtick"><text text-anchor="middle" x="0" y="469" transform="translate(300.23,0)" style="font-family: 'Open Sans', verdana, arial, sans-serif; font-size: 18px; fill: rgb(42, 63, 95); fill-opacity: 1; white-space: pre;">01/03</text></g><g class="xtick"><text text-anchor="middle" x="0" y="469" transform="translate(400,0)" style="font-family: 'Open Sans', verdana, arial, sans-serif; font-size: 18px; fill: rgb(42, 63, 95); fill-opacity: 1; white-space: pre;">01/05</text></g><g class="xtick"><text text-anchor="middle" x="0" y="469" transform="translate(499.77,0)" style="font-family: 'Open Sans', verdana, arial, sans-serif; font-size: 18px; fill: rgb(42, 63, 95); fill-opacity: 1; white-space: pre;">01/07</text></g><g class="xtick"><text text-anchor="middle" x="0" y="469" transform="translate(601.17,0)" style="font-family: 'Open Sans', verdana, arial, sans-serif; font-size: 18px; fill: rgb(42, 63, 95); fill-opacity: 1; white-space: pre;">01/09</text></g><g class="xtick"><text text-anchor="middle" x="0" y="469" transform="translate(700.93,0)" style="font-family: 'Open Sans', verdana, arial, sans-serif; font-size: 18px; fill: rgb(42, 63, 95); fill-opacity: 1; white-space: pre;">01/11</text></g></g><g class="yaxislayer-above"/><g class="overaxes-above"/></g></g><g class="polarlayer"/><g class="ternarylayer"/><g class="geolayer"/><g class="funnelarealayer"/><g class="pielayer"/><g class="treemaplayer"/><g class="sunburstlayer"/><g class="glimages"/><defs id="topdefs-7d8951"><g class="clips"/></defs><g class="layer-above"><g class="imagelayer"/><g class="shapelayer"><path data-index="0" fill-rule="evenodd" d="M-869.16,400.32L326.4,400.32" clip-path="url('#clip7d8951xy')" style="opacity: 1; stroke: rgb(255, 0, 0); stroke-opacity: 1; fill: rgb(0, 0, 0); fill-opacity: 0; stroke-dasharray: 3px, 3px; stroke-width: 1.5px;"/></g></g><g class="infolayer"><g class="g-gtitle"><text class="gtitle" x="375" y="25" text-anchor="middle" dy="0.7em" style="font-family: 'Open Sans', verdana, arial, sans-serif; font-size: 50px; fill: rgb(42, 63, 95); opacity: 1; font-weight: normal; white-space: pre;"><tspan style="font-weight:bold">Orne (61)</tspan></text></g><g class="g-xtitle"/><g class="annotation" data-index="0" style="opacity: 1;"><g class="annotation-text-g" transform="rotate(0,696.55,151.38)"><g class="cursor-pointer" transform="translate(639, 115)"><rect class="bg" x="0.5" y="0.5" width="115" height="71" style="stroke-width: 1px; stroke: rgb(0, 0, 0); stroke-opacity: 0; fill: rgb(255, 255, 255); fill-opacity: 0.6;"/><text class="annotation-text" text-anchor="middle" x="57.8125" y="55.5" style="font-family: 'Open Sans', verdana, arial, sans-serif; font-size: 50px; fill: rgb(8, 115, 191); fill-opacity: 1; white-space: pre;"> <tspan style="font-weight:bold">240 </tspan></text></g></g><g class="annotation-arrow-g" style="opacity: 1;"><path d="M724.9499999999999,186.88L736.55,201.38" style="stroke-width: 1px; stroke: rgb(8, 115, 191); stroke-opacity: 1; stroke-dasharray: 0px, 0px, 18.569px, 18.569px;"/></g></g></g></svg>