<svg class="main-svg" xmlns="http://www.w3.org/2000/svg" xmlns:xlink="http://www.w3.org/1999/xlink" width="1125" height="750" style="" viewBox="0 0 750 500"><rect x="0" y="0" width="750" height="500" style="fill: rgb(0, 0, 0); fill-opacity: 0;"/><defs id="defs-1ebf2b"><g class="clips"><clipPath id="clip1ebf2bxyplot" class="plotclip"><rect width="690" height="380"/></clipPath><clipPath class="axesclip" id="clip1ebf2bx"><rect x="50" y="0" width="690" height="500"/></clipPath><clipPath class="axesclip" id="clip1ebf2by"><rect x="0" y="70" width="750" height="380"/></clipPath><clipPath class="axesclip" id="clip1ebf2bxy"><rect x="50" y="70" width="690" height="380"/></clipPath></g><g class="gradients"/></defs><g class="bglayer"><rect class="bg" x="50" y="70" width="690" height="380" style="fill: rgb(0, 0, 0); fill-opacity: 0; stroke-width: 0;"/></g><g class="layer-below"><g class="imagelayer"/><g class="shapelayer"/></g><g class="cartesianlayer"><g class="subplot xy"><g class="layer-subplot"><g class="shapelayer"/><g class="imagelayer"/></g><g class="gridlayer"><g class="x"><path class="xgrid crisp" transform="translate(106.08,0)" d="M0,70v380" style="stroke: rgb(255, 255, 255); stroke-opacity: 1; stroke-width: 1px;"/><path class="xgrid crisp" transform="translate(209.75,0)" d="M0,70v380" style="stroke: rgb(255, 255, 255); stroke-opacity: 1; stroke-width: 1px;"/><path class="xgrid crisp" transform="translate(310.02,0)" d="M0,70v380" style="stroke: rgb(255, 255, 255); stroke-opacity: 1; stroke-width: 1px;"/><path class="xgrid crisp" transform="translate(413.69,0)" d="M0,70v380" style="stroke: rgb(255, 255, 255); stroke-opacity: 1; stroke-width: 1px;"/><path class="xgrid crisp" transform="translate(517.36,0)" d="M0,70v380" style="stroke: rgb(255, 255, 255); stroke-opacity: 1; stroke-width: 1px;"/><path class="xgrid crisp" transform="translate(622.73,0)" d="M0,70v380" style="stroke: rgb(255, 255, 255); stroke-opacity: 1; stroke-width: 1px;"/><path class="xgrid crisp" transform="translate(726.4,0)" d="M0,70v380" style="stroke: rgb(255, 255, 255); stroke-opacity: 1; stroke-width: 1px;"/></g><g class="y"/></g><g class="zerolinelayer"/><path class="xlines-below"/><path class="ylines-below"/><g class="overlines-below"/><g class="xaxislayer-below"/><g class="yaxislayer-below"/><g class="overaxes-below"/><g class="plot" transform="translate(50, 70)" clip-path="url('#clip1ebf2bxyplot')"><g class="scatterlayer mlayer"><g class="trace scatter trace6bbced" style="stroke-miterlimit: 2;"><g class="fills"><g><path class="js-fill" d="M661.11,380L-231.13,380L-231.13,362.75L-229.43,360.4L-227.73,362.67L-226.03,364.55L-220.94,367.69L-219.24,369.96L-217.54,373.88L-215.84,373.1L-214.14,373.33L-202.24,374.98L-200.54,375.3L-186.95,376.94L-185.25,377.26L-166.55,377.02L-164.85,377.18L-135.96,378.2L-134.26,377.96L-118.97,375.22L-117.27,375.45L-107.07,373.65L-105.37,373.33L-98.57,371.77L-96.87,369.65L-91.77,369.65L-90.07,369.73L-88.37,369.34L-86.67,366.98L-83.28,368.94L-81.58,369.18L-79.88,369.02L-78.18,366.51L-74.78,365.65L-73.08,365.02L-71.38,365.49L-69.68,363.92L-67.98,364.08L-66.28,362.28L-57.78,353.5L-56.08,353.26L-45.89,359.06L-44.19,359.14L-42.49,360.4L-40.79,360L-33.99,356.32L-32.29,355.93L-28.89,350.05L-27.19,349.5L-25.49,350.12L-23.79,349.18L-17,354.2L-15.3,354.83L-13.6,354.28L-11.9,355.69L-3.4,356.16L-1.7,354.44L1.7,350.05L3.4,350.12L5.1,346.6L6.8,340.64L10.2,330.36L11.9,323.23L13.6,319.15L15.3,318.21L17,306.45L18.69,302.06L23.79,272.18L25.49,267L27.19,265.98L28.89,246.85L32.29,203.8L33.99,172.67L35.69,136.52L37.39,121.7L39.09,120.29L40.79,85.32L44.19,51.05L45.89,44.62L47.59,34.58L49.29,32.7L50.99,32.62L52.68,21.09L54.38,0L56.08,0L57.78,2.82L59.48,19.68L61.18,27.13L62.88,27.29L66.28,67.59L67.98,124.29L69.68,130.25L71.38,142.01L73.08,147.42L74.78,149.3L78.18,186.24L79.88,161.14L83.28,199.96L84.98,205.21L86.67,205.37L88.37,218.94L90.07,232.58L91.77,239.79L93.47,242.7L95.17,248.42L96.87,251.01L98.57,250.69L100.27,252.81L101.97,257.75L103.67,257.28L105.37,258.38L108.77,249.05L110.47,248.18L112.17,245.6L113.87,239.09L120.67,221.29L122.36,219.95L125.76,202.94L127.46,196.9L130.86,191.49L132.56,186.78L134.26,187.57L135.96,184.67L137.66,177.69L139.36,175.89L141.06,183.57L142.76,211.33L144.46,228.03L146.16,227.64L147.86,223.33L149.56,224.03L152.96,219.17L154.66,220.58L156.35,194.94L158.05,195.1L159.75,197.14L161.45,197.61L163.15,205.13L164.85,203.8L166.55,179.49L168.25,191.02L169.95,191.33L171.65,199.49L175.05,218.54L176.75,220.03L180.15,226.54L181.85,227.17L183.55,227.64L185.25,226.38L188.65,215.8L190.34,209.53L192.04,206.39L193.74,205.21L197.14,183.88L198.84,179.34L200.54,175.57L202.24,166.87L205.64,166.95L207.34,167.73L209.04,167.73L210.74,165.93L212.44,166.08L214.14,167.97L215.84,161.77L217.54,160.99L219.24,157.93L220.94,159.03L222.64,158.56L224.33,161.38L226.03,168.91L227.73,172.36L234.53,165.77L236.23,155.89L237.93,147.34L239.63,149.85L244.73,154.4L246.43,159.81L248.13,168.12L249.83,169.53L251.53,167.18L253.23,168.04L254.93,175.57L256.63,178.24L258.33,181.37L260.02,186.16L261.72,191.41L263.42,191.49L265.12,191.57L266.82,193.61L268.52,193.53L270.22,188.9L273.62,178.47L275.32,180.04L277.02,176.59L278.72,168.67L280.42,166.32L282.12,165.85L283.82,162.16L285.52,160.99L287.22,155.58L288.92,157.07L290.62,157.93L292.32,156.75L294.01,157.46L295.71,155.97L299.11,150.01L300.81,149.3L304.21,132.99L305.91,129.93L307.61,131.42L309.31,161.85L311.01,154.32L312.71,156.05L314.41,206.78L316.11,189.06L317.81,185.61L319.51,187.65L321.21,158.56L322.91,168.83L324.61,168.04L326.31,127.5L328,158.4L329.7,171.49L331.4,176.51L333.1,188.04L334.8,197.06L336.5,198.47L338.2,209.05L339.9,214.54L341.6,217.13L343.3,225.99L345,230.54L346.7,230.85L348.4,232.34L350.1,238.93L355.2,254.22L356.9,255.87L358.6,267.71L360.3,267.4L362,275.32L363.69,278.37L368.79,295.47L370.49,296.41L372.19,296.72L373.89,301.11L375.59,303.62L377.29,304.25L378.99,313.82L380.69,312.48L382.39,308.56L384.09,309.98L385.79,315.46L387.49,316.95L389.19,321.03L390.89,313.27L392.59,320.25L394.29,319.23L395.99,319.15L397.68,331.3L399.38,327.46L401.08,326.6L404.48,326.21L406.18,328.72L407.88,328.48L409.58,320.33L411.28,330.05L412.98,332.87L416.38,341.18L418.08,342.36L419.78,342.91L421.48,348.56L423.18,350.2L424.88,353.57L426.58,354.44L428.28,357.02L429.98,358.98L431.67,359.22L435.07,364L436.77,365.65L438.47,368.55L440.17,368.87L441.87,370.04L443.57,369.96L445.27,370.35L446.97,371.77L448.67,372.16L450.37,371.69L452.07,372.32L453.77,372L457.17,370.98L458.87,369.73L465.67,363.77L467.36,364L472.46,355.93L474.16,356.16L475.86,354.83L477.56,354.67L479.26,353.65L480.96,351.38L482.66,348.32L484.36,352.16L486.06,345.11L487.76,343.54L489.46,340.4L491.16,340.17L494.56,328.48L496.26,315.86L497.96,311.94L499.66,304.02L501.35,297.59L503.05,297.04L504.75,282.37L506.45,274.92L511.55,257.36L513.25,256.97L514.95,256.81L516.65,254.46L518.35,253.75L520.05,254.38L523.45,253.75L525.15,251.79L526.85,251.24L528.55,246.54L535.34,231.4L537.04,228.58L538.74,228.66L540.44,227.17L542.14,225.52L543.84,225.68L545.54,228.58L547.24,233.13L548.94,236.11L550.64,236.58L557.44,257.75L559.14,258.53L560.84,260.57L562.54,260.65L564.24,268.26L565.94,270.45L567.64,268.02L569.33,269.36L572.73,272.81L574.43,272.65L577.83,277.04L579.53,282.37L582.93,288.25L584.63,288.8L586.33,289.98L588.03,293.04L589.73,298.37L591.43,300.96L593.13,303.86L594.83,309.82L596.53,313.11L598.23,313.03L599.93,317.58L601.63,317.97L605.02,323.46L606.72,321.66L608.42,323.07L610.12,323.46L613.52,330.36L615.22,330.52L616.92,333.03L618.62,337.89L622.02,338.52L623.72,341.26L625.42,342.44L627.12,345.26L628.82,346.75L630.52,346.2L635.62,347.22L637.32,347.46L639.01,347.77L640.71,344.4L644.11,346.6L645.81,346.75L649.21,346.05L650.91,344.32L652.61,344.09L654.31,342.36L656.01,340.64L657.71,340.32L661.11,337.5" style="fill: rgb(8, 115, 191); fill-opacity: 0.2; stroke-width: 0;"/></g></g><g class="errorbars"/><g class="lines"><path class="js-line" d="M-231.13,362.75L-229.43,360.4L-227.73,362.67L-226.03,364.55L-220.94,367.69L-219.24,369.96L-217.54,373.88L-215.84,373.1L-214.14,373.33L-202.24,374.98L-200.54,375.3L-186.95,376.94L-185.25,377.26L-166.55,377.02L-164.85,377.18L-135.96,378.2L-134.26,377.96L-118.97,375.22L-117.27,375.45L-107.07,373.65L-105.37,373.33L-98.57,371.77L-96.87,369.65L-91.77,369.65L-90.07,369.73L-88.37,369.34L-86.67,366.98L-83.28,368.94L-81.58,369.18L-79.88,369.02L-78.18,366.51L-74.78,365.65L-73.08,365.02L-71.38,365.49L-69.68,363.92L-67.98,364.08L-66.28,362.28L-57.78,353.5L-56.08,353.26L-45.89,359.06L-44.19,359.14L-42.49,360.4L-40.79,360L-33.99,356.32L-32.29,355.93L-28.89,350.05L-27.19,349.5L-25.49,350.12L-23.79,349.18L-17,354.2L-15.3,354.83L-13.6,354.28L-11.9,355.69L-3.4,356.16L-1.7,354.44L1.7,350.05L3.4,350.12L5.1,346.6L6.8,340.64L10.2,330.36L11.9,323.23L13.6,319.15L15.3,318.21L17,306.45L18.69,302.06L23.79,272.18L25.49,267L27.19,265.98L28.89,246.85L32.29,203.8L33.99,172.67L35.69,136.52L37.39,121.7L39.09,120.29L40.79,85.32L44.19,51.05L45.89,44.62L47.59,34.58L49.29,32.7L50.99,32.62L52.68,21.09L54.38,0L56.08,0L57.78,2.82L59.48,19.68L61.18,27.13L62.88,27.29L66.28,67.59L67.98,124.29L69.68,130.25L71.38,142.01L73.08,147.42L74.78,149.3L78.18,186.24L79.88,161.14L83.28,199.96L84.98,205.21L86.67,205.37L88.37,218.94L90.07,232.58L91.77,239.79L93.47,242.7L95.17,248.42L96.87,251.01L98.57,250.69L100.27,252.81L101.97,257.75L103.67,257.28L105.37,258.38L108.77,249.05L110.47,248.18L112.17,245.6L113.87,239.09L120.67,221.29L122.36,219.95L125.76,202.94L127.46,196.9L130.86,191.49L132.56,186.78L134.26,187.57L135.96,184.67L137.66,177.69L139.36,175.89L141.06,183.57L142.76,211.33L144.46,228.03L146.16,227.64L147.86,223.33L149.56,224.03L152.96,219.17L154.66,220.58L156.35,194.94L158.05,195.1L159.75,197.14L161.45,197.61L163.15,205.13L164.85,203.8L166.55,179.49L168.25,191.02L169.95,191.33L171.65,199.49L175.05,218.54L176.75,220.03L180.15,226.54L181.85,227.17L183.55,227.64L185.25,226.38L188.65,215.8L190.34,209.53L192.04,206.39L193.74,205.21L197.14,183.88L198.84,179.34L200.54,175.57L202.24,166.87L205.64,166.95L207.34,167.73L209.04,167.73L210.74,165.93L212.44,166.08L214.14,167.97L215.84,161.77L217.54,160.99L219.24,157.93L220.94,159.03L222.64,158.56L224.33,161.38L226.03,168.91L227.73,172.36L234.53,165.77L236.23,155.89L237.93,147.34L239.63,149.85L244.73,154.4L246.43,159.81L248.13,168.12L249.83,169.53L251.53,167.18L253.23,168.04L254.93,175.57L256.63,178.24L258.33,181.37L260.02,186.16L261.72,191.41L263.42,191.49L265.12,191.57L266.82,193.61L268.52,193.53L270.22,188.9L273.62,178.47L275.32,180.04L277.02,176.59L278.72,168.67L280.42,166.32L282.12,165.85L283.82,162.16L285.52,160.99L287.22,155.58L288.92,157.07L290.62,157.93L292.32,156.75L294.01,157.46L295.71,155.97L299.11,150.01L300.81,149.3L304.21,132.99L305.91,129.93L307.61,131.42L309.31,161.85L311.01,154.32L312.71,156.05L314.41,206.78L316.11,189.06L317.81,185.61L319.51,187.65L321.21,158.56L322.91,168.83L324.61,168.04L326.31,127.5L328,158.4L329.7,171.49L331.4,176.51L333.1,188.04L334.8,197.06L336.5,198.47L338.2,209.05L339.9,214.54L341.6,217.13L343.3,225.99L345,230.54L346.7,230.85L348.4,232.34L350.1,238.93L355.2,254.22L356.9,255.87L358.6,267.71L360.3,267.4L362,275.32L363.69,278.37L368.79,295.47L370.49,296.41L372.19,296.72L373.89,301.11L375.59,303.62L377.29,304.25L378.99,313.82L380.69,312.48L382.39,308.56L384.09,309.98L385.79,315.46L387.49,316.95L389.19,321.03L390.89,313.27L392.59,320.25L394.29,319.23L395.99,319.15L397.68,331.3L399.38,327.46L401.08,326.6L404.48,326.21L406.18,328.72L407.88,328.48L409.58,320.33L411.28,330.05L412.98,332.87L416.38,341.18L418.08,342.36L419.78,342.91L421.48,348.56L423.18,350.2L424.88,353.57L426.58,354.44L428.28,357.02L429.98,358.98L431.67,359.22L435.07,364L436.77,365.65L438.47,368.55L440.17,368.87L441.87,370.04L443.57,369.96L445.27,370.35L446.97,371.77L448.67,372.16L450.37,371.69L452.07,372.32L453.77,372L457.17,370.98L458.87,369.73L465.67,363.77L467.36,364L472.46,355.93L474.16,356.16L475.86,354.83L477.56,354.67L479.26,353.65L480.96,351.38L482.66,348.32L484.36,352.16L486.06,345.11L487.76,343.54L489.46,340.4L491.16,340.17L494.56,328.48L496.26,315.86L497.96,311.94L499.66,304.02L501.35,297.59L503.05,297.04L504.75,282.37L506.45,274.92L511.55,257.36L513.25,256.97L514.95,256.81L516.65,254.46L518.35,253.75L520.05,254.38L523.45,253.75L525.15,251.79L526.85,251.24L528.55,246.54L535.34,231.4L537.04,228.58L538.74,228.66L540.44,227.17L542.14,225.52L543.84,225.68L545.54,228.58L547.24,233.13L548.94,236.11L550.64,236.58L557.44,257.75L559.14,258.53L560.84,260.57L562.54,260.65L564.24,268.26L565.94,270.45L567.64,268.02L569.33,269.36L572.73,272.81L574.43,272.65L577.83,277.04L579.53,282.37L582.93,288.25L584.63,288.8L586.33,289.98L588.03,293.04L589.73,298.37L591.43,300.96L593.13,303.86L594.83,309.82L596.53,313.11L598.23,313.03L599.93,317.58L601.63,317.97L605.02,323.46L606.72,321.66L608.42,323.07L610.12,323.46L613.52,330.36L615.22,330.52L616.92,333.03L618.62,337.89L622.02,338.52L623.72,341.26L625.42,342.44L627.12,345.26L628.82,346.75L630.52,346.2L635.62,347.22L637.32,347.46L639.01,347.77L640.71,344.4L644.11,346.6L645.81,346.75L649.21,346.05L650.91,344.32L652.61,344.09L654.31,342.36L656.01,340.64L657.71,340.32L661.11,337.5" style="vector-effect: non-scaling-stroke; fill: none; stroke: rgb(8, 115, 191); stroke-opacity: 1; stroke-width: 0.5px; opacity: 1;"/></g><g class="points"/><g class="text"/></g><g class="trace scatter trace5f63f2" style="stroke-miterlimit: 2;"><g class="fills"><g><path class="js-fill" d="M678.1,380L661.11,380L661.11,337.5L662.81,337.26L664.51,337.89L666.21,334.91L667.91,333.5L669.61,332.56L671.31,339.54L674.7,325.19L676.4,322.44L678.1,318.84" style="fill: rgb(8, 115, 191); fill-opacity: 0.4; stroke-width: 0;"/></g></g><g class="errorbars"/><g class="lines"><path class="js-line" d="M661.11,337.5L662.81,337.26L664.51,337.89L666.21,334.91L667.91,333.5L669.61,332.56L671.31,339.54L674.7,325.19L676.4,322.44L678.1,318.84" style="vector-effect: non-scaling-stroke; fill: none; stroke: rgb(8, 115, 191); stroke-opacity: 1; stroke-width: 2px; opacity: 1;"/></g><g class="points"/><g class="text"/></g><g class="trace scatter tracebc03f9" style="stroke-miterlimit: 2; opacity: 1;"><g class="fills"/><g class="errorbars"/><g class="lines"/><g class="points"><path class="point" transform="translate(678.1,318.84)" d="M15,0A15,15 0 1,1 0,-15A15,15 0 0,1 15,0Z" style="opacity: 1; stroke-width: 0px; fill: rgb(8, 115, 191); fill-opacity: 1;"/></g><g class="text"/></g></g></g><g class="overplot"/><path class="xlines-above crisp" style="fill: none; stroke-width: 1px; stroke: rgb(0, 0, 0); stroke-opacity: 0;" d=""/><path class="ylines-above crisp" style="fill: none;" d="M0,0"/><g class="overlines-above"/><g class="xaxislayer-above"><path class="xtick ticks crisp" d="M0,450v-5" transform="translate(106.08,0)" style="stroke: rgb(68, 68, 68); stroke-opacity: 1; stroke-width: 1px;"/><path class="xtick ticks crisp" d="M0,450v-5" transform="translate(209.75,0)" style="stroke: rgb(68, 68, 68); stroke-opacity: 1; stroke-width: 1px;"/><path class="xtick ticks crisp" d="M0,450v-5" transform="translate(310.02,0)" style="stroke: rgb(68, 68, 68); stroke-opacity: 1; stroke-width: 1px;"/><path class="xtick ticks crisp" d="M0,450v-5" transform="translate(413.69,0)" style="stroke: rgb(68, 68, 68); stroke-opacity: 1; stroke-width: 1px;"/><path class="xtick ticks crisp" d="M0,450v-5" transform="translate(517.36,0)" style="stroke: rgb(68, 68, 68); stroke-opacity: 1; stroke-width: 1px;"/><path class="xtick ticks crisp" d="M0,450v-5" transform="translate(622.73,0)" style="stroke: rgb(68, 68, 68); stroke-opacity: 1; stroke-width: 1px;"/><path class="xtick ticks crisp" d="M0,450v-5" transform="translate(726.4,0)" style="stroke: rgb(68, 68, 68); stroke-opacity: 1; stroke-width: 1px;"/><g class="xtick"><text text-anchor="middle" x="0" y="469" transform="translate(106.08,0)" style="font-family: 'Open Sans', verdana, arial, sans-serif; font-size: 18px; fill: rgb(42, 63, 95); fill-opacity: 1; white-space: pre;">01/11</text></g><g class="xtick"><text text-anchor="middle" x="0" y="469" transform="translate(209.75,0)" style="font-family: 'Open Sans', verdana, arial, sans-serif; font-size: 18px; fill: rgb(42, 63, 95); fill-opacity: 1; white-space: pre;">01/01</text></g><g class="xtick"><text text-anchor="middle" x="0" y="469" transform="translate(310.02,0)" style="font-family: 'Open Sans', verdana, arial, sans-serif; font-size: 18px; fill: rgb(42, 63, 95); fill-opacity: 1; white-space: pre;">01/03</text></g><g class="xtick"><text text-anchor="middle" x="0" y="469" transform="translate(413.69,0)" style="font-family: 'Open Sans', verdana, arial, sans-serif; font-size: 18px; fill: rgb(42, 63, 95); fill-opacity: 1; white-space: pre;">01/05</text></g><g class="xtick"><text text-anchor="middle" x="0" y="469" transform="translate(517.36,0)" style="font-family: 'Open Sans', verdana, arial, sans-serif; font-size: 18px; fill: rgb(42, 63, 95); fill-opacity: 1; white-space: pre;">01/07</text></g><g class="xtick"><text text-anchor="middle" x="0" y="469" transform="translate(622.73,0)" style="font-family: 'Open Sans', verdana, arial, sans-serif; font-size: 18px; fill: rgb(42, 63, 95); fill-opacity: 1; white-space: pre;">01/09</text></g><g class="xtick"><text text-anchor="middle" x="0" y="469" transform="translate(726.4,0)" style="font-family: 'Open Sans', verdana, arial, sans-serif; font-size: 18px; fill: rgb(42, 63, 95); fill-opacity: 1; white-space: pre;">01/11</text></g></g><g class="yaxislayer-above"/><g class="overaxes-above"/></g></g><g class="polarlayer"/><g class="ternarylayer"/><g class="geolayer"/><g class="funnelarealayer"/><g class="pielayer"/><g class="treemaplayer"/><g class="sunburstlayer"/><g class="glimages"/><defs id="topdefs-1ebf2b"><g class="clips"/></defs><g class="layer-above"><g class="imagelayer"/><g class="shapelayer"><path data-index="0" fill-rule="evenodd" d="M-905.12,409.39L337.22,409.39" clip-path="url('#clip1ebf2bxy')" style="opacity: 1; stroke: rgb(255, 0, 0); stroke-opacity: 1; fill: rgb(0, 0, 0); fill-opacity: 0; stroke-dasharray: 3px, 3px; stroke-width: 1.5px;"/></g></g><g class="infolayer"><g class="g-gtitle"><text class="gtitle" x="375" y="25" text-anchor="middle" dy="0.7em" style="font-family: 'Open Sans', verdana, arial, sans-serif; font-size: 50px; fill: rgb(42, 63, 95); opacity: 1; font-weight: normal; white-space: pre;"><tspan style="font-weight:bold">Moselle (57)</tspan></text></g><g class="g-xtitle"/><g class="annotation" data-index="0" style="opacity: 1;"><g class="annotation-text-g" transform="rotate(0,686.1,328.84)"><g class="cursor-pointer" transform="translate(643, 293)"><rect class="bg" x="0.5" y="0.5" width="86" height="71" style="stroke-width: 1px; stroke: rgb(0, 0, 0); stroke-opacity: 0; fill: rgb(255, 255, 255); fill-opacity: 0.6;"/><text class="annotation-text" text-anchor="middle" x="43.53125" y="55.5" style="font-family: 'Open Sans', verdana, arial, sans-serif; font-size: 50px; fill: rgb(8, 115, 191); fill-opacity: 1; white-space: pre;"> <tspan style="font-weight:bold">75 </tspan></text></g></g><g class="annotation-arrow-g" style="opacity: 1;"><path d="M714.5,364.34L726.1,378.84" style="stroke-width: 1px; stroke: rgb(8, 115, 191); stroke-opacity: 1; stroke-dasharray: 0px, 0px, 18.569px, 18.569px;"/></g></g></g></svg>