<svg class="main-svg" xmlns="http://www.w3.org/2000/svg" xmlns:xlink="http://www.w3.org/1999/xlink" width="1125" height="750" style="" viewBox="0 0 750 500"><rect x="0" y="0" width="750" height="500" style="fill: rgb(0, 0, 0); fill-opacity: 0;"/><defs id="defs-018433"><g class="clips"><clipPath id="clip018433xyplot" class="plotclip"><rect width="700" height="380"/></clipPath><clipPath class="axesclip" id="clip018433x"><rect x="50" y="0" width="700" height="500"/></clipPath><clipPath class="axesclip" id="clip018433y"><rect x="0" y="70" width="750" height="380"/></clipPath><clipPath class="axesclip" id="clip018433xy"><rect x="50" y="70" width="700" height="380"/></clipPath></g><g class="gradients"/></defs><g class="bglayer"><rect class="bg" x="50" y="70" width="700" height="380" style="fill: rgb(0, 0, 0); fill-opacity: 0; stroke-width: 0;"/></g><g class="layer-below"><g class="imagelayer"/><g class="shapelayer"/></g><g class="cartesianlayer"><g class="subplot xy"><g class="layer-subplot"><g class="shapelayer"/><g class="imagelayer"/></g><g class="gridlayer"><g class="x"><path class="xgrid crisp" transform="translate(104.74000000000001,0)" d="M0,70v380" style="stroke: rgb(255, 255, 255); stroke-opacity: 1; stroke-width: 1px;"/><path class="xgrid crisp" transform="translate(205.92,0)" d="M0,70v380" style="stroke: rgb(255, 255, 255); stroke-opacity: 1; stroke-width: 1px;"/><path class="xgrid crisp" transform="translate(303.78999999999996,0)" d="M0,70v380" style="stroke: rgb(255, 255, 255); stroke-opacity: 1; stroke-width: 1px;"/><path class="xgrid crisp" transform="translate(404.98,0)" d="M0,70v380" style="stroke: rgb(255, 255, 255); stroke-opacity: 1; stroke-width: 1px;"/><path class="xgrid crisp" transform="translate(506.16,0)" d="M0,70v380" style="stroke: rgb(255, 255, 255); stroke-opacity: 1; stroke-width: 1px;"/><path class="xgrid crisp" transform="translate(609,0)" d="M0,70v380" style="stroke: rgb(255, 255, 255); stroke-opacity: 1; stroke-width: 1px;"/><path class="xgrid crisp" transform="translate(710.19,0)" d="M0,70v380" style="stroke: rgb(255, 255, 255); stroke-opacity: 1; stroke-width: 1px;"/></g><g class="y"/></g><g class="zerolinelayer"/><path class="xlines-below"/><path class="ylines-below"/><g class="overlines-below"/><g class="xaxislayer-below"/><g class="yaxislayer-below"/><g class="overaxes-below"/><g class="plot" transform="translate(50, 70)" clip-path="url('#clip018433xyplot')"><g class="scatterlayer mlayer"><g class="trace scatter traceafdc05" style="stroke-miterlimit: 2;"><g class="fills"><g><path class="js-fill" d="M671.8,380L-225.59,380L-225.59,373.27L-220.62,372.96L-218.96,372.8L-213.98,374.99L-212.32,377.18L-205.69,377.34L-204.03,377.81L-185.78,378.75L-184.12,378.75L-127.73,377.81L-126.07,377.34L-121.09,376.24L-119.43,374.37L-112.8,370.77L-111.14,370.77L-107.82,370.14L-106.16,370.3L-94.55,372.96L-92.89,373.27L-84.6,370.77L-82.94,369.67L-81.28,366.07L-79.62,366.54L-77.96,365.91L-76.3,362L-74.64,357.93L-72.99,358.25L-71.33,354.33L-69.67,354.8L-66.35,352.77L-64.69,353.39L-63.03,353.71L-61.37,349.64L-59.72,351.05L-58.06,348.7L-53.08,346.66L-51.42,344.16L-46.45,335.55L-44.79,335.55L-43.13,335.4L-41.47,332.58L-38.15,324.28L-36.49,321.15L-33.18,314.58L-31.52,314.11L-29.86,304.25L-28.2,302.37L-24.88,291.26L-23.22,291.57L-19.91,292.2L-18.25,290.63L-16.59,289.54L-14.93,295.02L-13.27,303.31L-11.61,305.5L-9.95,308.95L-8.29,309.88L-4.98,318.34L-3.32,317.71L0,305.97L1.66,302.37L3.32,300.49L4.98,294.55L8.29,281.4L9.95,273.57L11.61,269.04L13.27,260.27L14.93,260.27L16.59,249.47L19.91,226.47L21.56,221.61L23.22,209.56L24.88,204.87L26.54,202.21L28.2,185.46L31.52,139.6L33.18,105.64L34.83,83.42L36.49,71.37L38.15,72.15L39.81,41.94L43.13,18.31L44.79,17.22L48.1,2.35L49.76,0L51.42,8.45L53.08,12.52L54.74,18.47L56.4,32.4L59.72,75.91L61.37,77.16L64.69,128.02L66.35,177.48L68.01,176.7L69.67,189.69L71.33,200.49L72.99,203.46L76.3,239.61L77.96,228.34L79.62,262.46L81.28,274.98L82.94,278.74L84.6,279.99L86.26,295.49L87.91,299.09L91.23,311.14L92.89,310.98L94.55,311.29L96.21,310.82L97.87,307.22L99.53,310.82L101.18,313.01L102.84,311.29L104.5,312.39L106.16,309.1L107.82,307.85L109.48,308.63L112.8,307.22L114.45,302.84L116.11,305.5L117.77,305.66L119.43,307.22L121.09,305.5L122.75,302.37L124.41,289.07L126.07,289.85L127.73,284.37L129.38,283.9L131.04,281.71L132.7,283.75L134.36,279.05L136.02,280.3L137.68,283.75L139.34,297.21L141,299.56L142.65,300.34L144.31,293.76L147.63,300.81L149.29,294.08L150.95,294.7L152.61,290.32L154.27,290.63L155.92,286.57L157.58,272.17L159.24,266.69L160.9,258.71L162.56,235.54L164.22,232.57L165.88,231.94L167.54,221.61L169.19,225.84L170.85,227.56L172.51,224.9L174.17,217.55L175.83,216.76L177.49,218.01L179.15,216.61L180.81,214.57L182.46,209.25L184.12,210.82L185.78,214.42L187.44,213.16L189.1,213.16L192.42,203.15L194.08,199.55L197.39,194.7L199.05,195.32L200.71,194.85L202.37,203.3L205.69,212.85L207.35,214.26L210.66,214.73L212.32,213.63L217.3,225.53L218.96,234.45L220.62,240.55L222.27,242.12L223.93,243.37L225.59,245.72L227.25,248.53L228.91,243.53L232.23,235.7L233.89,236.64L235.55,237.27L237.2,228.97L238.86,217.08L240.52,218.48L242.18,210.19L243.84,209.88L245.5,207.84L247.16,207.22L252.13,217.7L253.79,218.01L257.11,211.29L258.77,209.88L260.43,195.16L262.09,193.6L263.74,189.22L265.4,190L267.06,186.09L268.72,185.62L270.38,186.71L272.04,192.03L278.67,135.38L280.33,130.37L281.99,130.06L283.65,127.87L285.31,126.3L286.97,127.4L290.28,108.93L291.94,106.11L293.6,103.92L295.26,79.35L298.58,58.53L300.24,59.32L301.9,57.91L303.55,48.52L305.21,49.3L306.87,109.71L311.85,97.5L313.51,100.79L315.17,99.07L316.82,99.38L318.48,34.9L320.14,51.33L323.46,72.93L325.12,76.53L326.78,86.24L328.44,87.49L330.09,102.36L331.75,106.11L333.41,109.87L335.07,115.82L338.39,128.96L340.05,130.37L343.36,155.57L345.02,163.86L348.34,190.47L350,206.43L351.66,204.09L353.32,208.78L354.98,215.04L356.64,224.28L363.27,236.8L364.93,250.57L368.25,259.33L369.91,279.99L371.56,285.31L373.22,281.71L374.88,280.77L376.54,282.65L378.2,288.76L379.86,290.48L381.52,276.71L383.18,276.71L384.83,275.92L386.49,276.86L388.15,299.09L389.81,294.39L391.47,294.55L393.13,300.18L394.79,309.26L396.45,312.08L398.1,312.23L399.76,304.41L403.08,328.04L404.74,331.48L408.06,333.2L409.72,333.52L411.37,336.49L413.03,335.86L416.35,341.66L418.01,346.35L419.67,349.64L421.33,349.32L426.3,361.22L427.96,363.88L429.62,365.91L431.28,366.07L432.94,366.23L434.6,367.48L439.57,368.26L441.23,370.14L444.55,370.14L446.21,368.26L451.18,368.42L452.84,367.17L456.16,367.64L457.82,369.67L459.48,369.98L461.14,369.04L462.8,369.2L464.45,366.54L469.43,361.85L471.09,358.25L472.75,359.34L474.41,352.61L477.73,350.42L479.38,351.2L481.04,345.1L482.7,342.28L484.36,333.83L486.02,329.45L489.34,322.56L491,321.31L492.65,311.76L494.31,307.07L495.97,302.84L497.63,300.81L499.29,293.76L500.95,291.89L502.61,292.2L504.27,290.16L505.92,286.72L507.58,286.57L509.24,285.63L510.9,285.94L512.56,282.97L514.22,283.43L515.88,281.09L517.54,274.36L520.85,267.16L522.51,266.38L525.83,262.62L527.49,263.71L529.15,267.16L530.81,268.41L532.46,271.54L534.12,271.85L535.78,275.92L537.44,276.55L542.42,291.73L544.08,294.23L545.73,295.8L547.39,296.11L549.05,297.36L550.71,301.59L552.37,305.19L554.03,304.56L557.35,314.58L559,316.77L562.32,315.36L563.98,317.87L565.64,321.47L567.3,322.56L570.62,328.67L572.27,329.6L575.59,336.65L577.25,338.06L580.57,339.93L582.23,337.9L583.89,338.21L585.55,340.25L587.2,338.68L588.86,342.13L592.18,345.88L593.84,348.86L595.5,348.7L597.16,351.67L598.82,356.68L600.47,357.93L602.13,359.97L603.79,360.59L608.77,363.41L610.43,360.28L613.74,361.38L615.4,360.91L618.72,360.59L620.38,359.18L622.04,359.18L623.7,356.99L628.67,347.45L630.33,347.29L631.99,341.81L633.65,339.15L636.97,326.63L638.63,324.91L641.94,325.07L643.6,326.47L645.26,326.32L646.92,327.57L648.58,328.67L650.24,327.88L653.55,324.44L655.21,332.73L658.53,316.61L660.19,312.39L661.85,305.35L663.51,301.59L665.17,302.69L666.82,282.03L668.48,287.03L670.14,287.19L671.8,299.87" style="fill: rgb(8, 115, 191); fill-opacity: 0.2; stroke-width: 0;"/></g></g><g class="errorbars"/><g class="lines"><path class="js-line" d="M-225.59,373.27L-220.62,372.96L-218.96,372.8L-213.98,374.99L-212.32,377.18L-205.69,377.34L-204.03,377.81L-185.78,378.75L-184.12,378.75L-127.73,377.81L-126.07,377.34L-121.09,376.24L-119.43,374.37L-112.8,370.77L-111.14,370.77L-107.82,370.14L-106.16,370.3L-94.55,372.96L-92.89,373.27L-84.6,370.77L-82.94,369.67L-81.28,366.07L-79.62,366.54L-77.96,365.91L-76.3,362L-74.64,357.93L-72.99,358.25L-71.33,354.33L-69.67,354.8L-66.35,352.77L-64.69,353.39L-63.03,353.71L-61.37,349.64L-59.72,351.05L-58.06,348.7L-53.08,346.66L-51.42,344.16L-46.45,335.55L-44.79,335.55L-43.13,335.4L-41.47,332.58L-38.15,324.28L-36.49,321.15L-33.18,314.58L-31.52,314.11L-29.86,304.25L-28.2,302.37L-24.88,291.26L-23.22,291.57L-19.91,292.2L-18.25,290.63L-16.59,289.54L-14.93,295.02L-13.27,303.31L-11.61,305.5L-9.95,308.95L-8.29,309.88L-4.98,318.34L-3.32,317.71L0,305.97L1.66,302.37L3.32,300.49L4.98,294.55L8.29,281.4L9.95,273.57L11.61,269.04L13.27,260.27L14.93,260.27L16.59,249.47L19.91,226.47L21.56,221.61L23.22,209.56L24.88,204.87L26.54,202.21L28.2,185.46L31.52,139.6L33.18,105.64L34.83,83.42L36.49,71.37L38.15,72.15L39.81,41.94L43.13,18.31L44.79,17.22L48.1,2.35L49.76,0L51.42,8.45L53.08,12.52L54.74,18.47L56.4,32.4L59.72,75.91L61.37,77.16L64.69,128.02L66.35,177.48L68.01,176.7L69.67,189.69L71.33,200.49L72.99,203.46L76.3,239.61L77.96,228.34L79.62,262.46L81.28,274.98L82.94,278.74L84.6,279.99L86.26,295.49L87.91,299.09L91.23,311.14L92.89,310.98L94.55,311.29L96.21,310.82L97.87,307.22L99.53,310.82L101.18,313.01L102.84,311.29L104.5,312.39L106.16,309.1L107.82,307.85L109.48,308.63L112.8,307.22L114.45,302.84L116.11,305.5L117.77,305.66L119.43,307.22L121.09,305.5L122.75,302.37L124.41,289.07L126.07,289.85L127.73,284.37L129.38,283.9L131.04,281.71L132.7,283.75L134.36,279.05L136.02,280.3L137.68,283.75L139.34,297.21L141,299.56L142.65,300.34L144.31,293.76L147.63,300.81L149.29,294.08L150.95,294.7L152.61,290.32L154.27,290.63L155.92,286.57L157.58,272.17L159.24,266.69L160.9,258.71L162.56,235.54L164.22,232.57L165.88,231.94L167.54,221.61L169.19,225.84L170.85,227.56L172.51,224.9L174.17,217.55L175.83,216.76L177.49,218.01L179.15,216.61L180.81,214.57L182.46,209.25L184.12,210.82L185.78,214.42L187.44,213.16L189.1,213.16L192.42,203.15L194.08,199.55L197.39,194.7L199.05,195.32L200.71,194.85L202.37,203.3L205.69,212.85L207.35,214.26L210.66,214.73L212.32,213.63L217.3,225.53L218.96,234.45L220.62,240.55L222.27,242.12L223.93,243.37L225.59,245.72L227.25,248.53L228.91,243.53L232.23,235.7L233.89,236.64L235.55,237.27L237.2,228.97L238.86,217.08L240.52,218.48L242.18,210.19L243.84,209.88L245.5,207.84L247.16,207.22L252.13,217.7L253.79,218.01L257.11,211.29L258.77,209.88L260.43,195.16L262.09,193.6L263.74,189.22L265.4,190L267.06,186.09L268.72,185.62L270.38,186.71L272.04,192.03L278.67,135.38L280.33,130.37L281.99,130.06L283.65,127.87L285.31,126.3L286.97,127.4L290.28,108.93L291.94,106.11L293.6,103.92L295.26,79.35L298.58,58.53L300.24,59.32L301.9,57.91L303.55,48.52L305.21,49.3L306.87,109.71L311.85,97.5L313.51,100.79L315.17,99.07L316.82,99.38L318.48,34.9L320.14,51.33L323.46,72.93L325.12,76.53L326.78,86.24L328.44,87.49L330.09,102.36L331.75,106.11L333.41,109.87L335.07,115.82L338.39,128.96L340.05,130.37L343.36,155.57L345.02,163.86L348.34,190.47L350,206.43L351.66,204.09L353.32,208.78L354.98,215.04L356.64,224.28L363.27,236.8L364.93,250.57L368.25,259.33L369.91,279.99L371.56,285.31L373.22,281.71L374.88,280.77L376.54,282.65L378.2,288.76L379.86,290.48L381.52,276.71L383.18,276.71L384.83,275.92L386.49,276.86L388.15,299.09L389.81,294.39L391.47,294.55L393.13,300.18L394.79,309.26L396.45,312.08L398.1,312.23L399.76,304.41L403.08,328.04L404.74,331.48L408.06,333.2L409.72,333.52L411.37,336.49L413.03,335.86L416.35,341.66L418.01,346.35L419.67,349.64L421.33,349.32L426.3,361.22L427.96,363.88L429.62,365.91L431.28,366.07L432.94,366.23L434.6,367.48L439.57,368.26L441.23,370.14L444.55,370.14L446.21,368.26L451.18,368.42L452.84,367.17L456.16,367.64L457.82,369.67L459.48,369.98L461.14,369.04L462.8,369.2L464.45,366.54L469.43,361.85L471.09,358.25L472.75,359.34L474.41,352.61L477.73,350.42L479.38,351.2L481.04,345.1L482.7,342.28L484.36,333.83L486.02,329.45L489.34,322.56L491,321.31L492.65,311.76L494.31,307.07L495.97,302.84L497.63,300.81L499.29,293.76L500.95,291.89L502.61,292.2L504.27,290.16L505.92,286.72L507.58,286.57L509.24,285.63L510.9,285.94L512.56,282.97L514.22,283.43L515.88,281.09L517.54,274.36L520.85,267.16L522.51,266.38L525.83,262.62L527.49,263.71L529.15,267.16L530.81,268.41L532.46,271.54L534.12,271.85L535.78,275.92L537.44,276.55L542.42,291.73L544.08,294.23L545.73,295.8L547.39,296.11L549.05,297.36L550.71,301.59L552.37,305.19L554.03,304.56L557.35,314.58L559,316.77L562.32,315.36L563.98,317.87L565.64,321.47L567.3,322.56L570.62,328.67L572.27,329.6L575.59,336.65L577.25,338.06L580.57,339.93L582.23,337.9L583.89,338.21L585.55,340.25L587.2,338.68L588.86,342.13L592.18,345.88L593.84,348.86L595.5,348.7L597.16,351.67L598.82,356.68L600.47,357.93L602.13,359.97L603.79,360.59L608.77,363.41L610.43,360.28L613.74,361.38L615.4,360.91L618.72,360.59L620.38,359.18L622.04,359.18L623.7,356.99L628.67,347.45L630.33,347.29L631.99,341.81L633.65,339.15L636.97,326.63L638.63,324.91L641.94,325.07L643.6,326.47L645.26,326.32L646.92,327.57L648.58,328.67L650.24,327.88L653.55,324.44L655.21,332.73L658.53,316.61L660.19,312.39L661.85,305.35L663.51,301.59L665.17,302.69L666.82,282.03L668.48,287.03L670.14,287.19L671.8,299.87" style="vector-effect: non-scaling-stroke; fill: none; stroke: rgb(8, 115, 191); stroke-opacity: 1; stroke-width: 0.5px; opacity: 1;"/></g><g class="points"/><g class="text"/></g><g class="trace scatter tracecc5920" style="stroke-miterlimit: 2;"><g class="fills"><g><path class="js-fill" d="M688.39,380L671.8,380L671.8,299.87L675.12,287.5L676.78,285.16L678.44,277.17L680.09,261.68L681.75,248.69L683.41,220.05L686.73,210.82L688.39,211.75" style="fill: rgb(8, 115, 191); fill-opacity: 0.4; stroke-width: 0;"/></g></g><g class="errorbars"/><g class="lines"><path class="js-line" d="M671.8,299.87L675.12,287.5L676.78,285.16L678.44,277.17L680.09,261.68L681.75,248.69L683.41,220.05L686.73,210.82L688.39,211.75" style="vector-effect: non-scaling-stroke; fill: none; stroke: rgb(8, 115, 191); stroke-opacity: 1; stroke-width: 2px; opacity: 1;"/></g><g class="points"/><g class="text"/></g><g class="trace scatter trace4af7df" style="stroke-miterlimit: 2; opacity: 1;"><g class="fills"/><g class="errorbars"/><g class="lines"/><g class="points"><path class="point" transform="translate(688.39,211.75)" d="M15,0A15,15 0 1,1 0,-15A15,15 0 0,1 15,0Z" style="opacity: 1; stroke-width: 0px; fill: rgb(8, 115, 191); fill-opacity: 1;"/></g><g class="text"/></g></g></g><g class="overplot"/><path class="xlines-above crisp" style="fill: none; stroke-width: 1px; stroke: rgb(0, 0, 0); stroke-opacity: 0;" d=""/><path class="ylines-above crisp" style="fill: none;" d="M0,0"/><g class="overlines-above"/><g class="xaxislayer-above"><path class="xtick ticks crisp" d="M0,450v-5" transform="translate(104.74000000000001,0)" style="stroke: rgb(68, 68, 68); stroke-opacity: 1; stroke-width: 1px;"/><path class="xtick ticks crisp" d="M0,450v-5" transform="translate(205.92,0)" style="stroke: rgb(68, 68, 68); stroke-opacity: 1; stroke-width: 1px;"/><path class="xtick ticks crisp" d="M0,450v-5" transform="translate(303.78999999999996,0)" style="stroke: rgb(68, 68, 68); stroke-opacity: 1; stroke-width: 1px;"/><path class="xtick ticks crisp" d="M0,450v-5" transform="translate(404.98,0)" style="stroke: rgb(68, 68, 68); stroke-opacity: 1; stroke-width: 1px;"/><path class="xtick ticks crisp" d="M0,450v-5" transform="translate(506.16,0)" style="stroke: rgb(68, 68, 68); stroke-opacity: 1; stroke-width: 1px;"/><path class="xtick ticks crisp" d="M0,450v-5" transform="translate(609,0)" style="stroke: rgb(68, 68, 68); stroke-opacity: 1; stroke-width: 1px;"/><path class="xtick ticks crisp" d="M0,450v-5" transform="translate(710.19,0)" style="stroke: rgb(68, 68, 68); stroke-opacity: 1; stroke-width: 1px;"/><g class="xtick"><text text-anchor="middle" x="0" y="469" transform="translate(104.74000000000001,0)" style="font-family: 'Open Sans', verdana, arial, sans-serif; font-size: 18px; fill: rgb(42, 63, 95); fill-opacity: 1; white-space: pre;">01/11</text></g><g class="xtick"><text text-anchor="middle" x="0" y="469" transform="translate(205.92,0)" style="font-family: 'Open Sans', verdana, arial, sans-serif; font-size: 18px; fill: rgb(42, 63, 95); fill-opacity: 1; white-space: pre;">01/01</text></g><g class="xtick"><text text-anchor="middle" x="0" y="469" transform="translate(303.78999999999996,0)" style="font-family: 'Open Sans', verdana, arial, sans-serif; font-size: 18px; fill: rgb(42, 63, 95); fill-opacity: 1; white-space: pre;">01/03</text></g><g class="xtick"><text text-anchor="middle" x="0" y="469" transform="translate(404.98,0)" style="font-family: 'Open Sans', verdana, arial, sans-serif; font-size: 18px; fill: rgb(42, 63, 95); fill-opacity: 1; white-space: pre;">01/05</text></g><g class="xtick"><text text-anchor="middle" x="0" y="469" transform="translate(506.16,0)" style="font-family: 'Open Sans', verdana, arial, sans-serif; font-size: 18px; fill: rgb(42, 63, 95); fill-opacity: 1; white-space: pre;">01/07</text></g><g class="xtick"><text text-anchor="middle" x="0" y="469" transform="translate(609,0)" style="font-family: 'Open Sans', verdana, arial, sans-serif; font-size: 18px; fill: rgb(42, 63, 95); fill-opacity: 1; white-space: pre;">01/09</text></g><g class="xtick"><text text-anchor="middle" x="0" y="469" transform="translate(710.19,0)" style="font-family: 'Open Sans', verdana, arial, sans-serif; font-size: 18px; fill: rgb(42, 63, 95); fill-opacity: 1; white-space: pre;">01/11</text></g></g><g class="yaxislayer-above"/><g class="overaxes-above"/></g></g><g class="polarlayer"/><g class="ternarylayer"/><g class="geolayer"/><g class="funnelarealayer"/><g class="pielayer"/><g class="treemaplayer"/><g class="sunburstlayer"/><g class="glimages"/><defs id="topdefs-018433"><g class="clips"/></defs><g class="layer-above"><g class="imagelayer"/><g class="shapelayer"><path data-index="0" fill-rule="evenodd" d="M-882.23,402.63L330.33,402.63" clip-path="url('#clip018433xy')" style="opacity: 1; stroke: rgb(255, 0, 0); stroke-opacity: 1; fill: rgb(0, 0, 0); fill-opacity: 0; stroke-dasharray: 3px, 3px; stroke-width: 1.5px;"/></g></g><g class="infolayer"><g class="g-gtitle"><text class="gtitle" x="375" y="25" text-anchor="middle" dy="0.7em" style="font-family: 'Open Sans', verdana, arial, sans-serif; font-size: 50px; fill: rgb(42, 63, 95); opacity: 1; font-weight: normal; white-space: pre;"><tspan style="font-weight:bold">Indre-et-Loire (37)</tspan></text></g><g class="g-xtitle"/><g class="annotation" data-index="0" style="opacity: 1;"><g class="annotation-text-g" transform="rotate(0,696.39,221.75)"><g class="cursor-pointer" transform="translate(638, 186)"><rect class="bg" x="0.5" y="0.5" width="115" height="71" style="stroke-width: 1px; stroke: rgb(0, 0, 0); stroke-opacity: 0; fill: rgb(255, 255, 255); fill-opacity: 0.6;"/><text class="annotation-text" text-anchor="middle" x="57.8125" y="55.5" style="font-family: 'Open Sans', verdana, arial, sans-serif; font-size: 50px; fill: rgb(8, 115, 191); fill-opacity: 1; white-space: pre;"> <tspan style="font-weight:bold">177 </tspan></text></g></g><g class="annotation-arrow-g" style="opacity: 1;"><path d="M724.79,257.25L736.39,271.75" style="stroke-width: 1px; stroke: rgb(8, 115, 191); stroke-opacity: 1; stroke-dasharray: 0px, 0px, 18.5691px, 18.5691px;"/></g></g></g></svg>