<svg class="main-svg" xmlns="http://www.w3.org/2000/svg" xmlns:xlink="http://www.w3.org/1999/xlink" width="1125" height="750" style="" viewBox="0 0 750 500"><rect x="0" y="0" width="750" height="500" style="fill: rgb(0, 0, 0); fill-opacity: 0;"/><defs id="defs-820251"><g class="clips"><clipPath id="clip820251xyplot" class="plotclip"><rect width="700" height="380"/></clipPath><clipPath class="axesclip" id="clip820251x"><rect x="50" y="0" width="700" height="500"/></clipPath><clipPath class="axesclip" id="clip820251y"><rect x="0" y="70" width="750" height="380"/></clipPath><clipPath class="axesclip" id="clip820251xy"><rect x="50" y="70" width="700" height="380"/></clipPath></g><g class="gradients"/></defs><g class="bglayer"><rect class="bg" x="50" y="70" width="700" height="380" style="fill: rgb(0, 0, 0); fill-opacity: 0; stroke-width: 0;"/></g><g class="layer-below"><g class="imagelayer"/><g class="shapelayer"/></g><g class="cartesianlayer"><g class="subplot xy"><g class="layer-subplot"><g class="shapelayer"/><g class="imagelayer"/></g><g class="gridlayer"><g class="x"><path class="xgrid crisp" transform="translate(52.28,0)" d="M0,70v380" style="stroke: rgb(255, 255, 255); stroke-opacity: 1; stroke-width: 1px;"/><path class="xgrid crisp" transform="translate(157.34,0)" d="M0,70v380" style="stroke: rgb(255, 255, 255); stroke-opacity: 1; stroke-width: 1px;"/><path class="xgrid crisp" transform="translate(260.11,0)" d="M0,70v380" style="stroke: rgb(255, 255, 255); stroke-opacity: 1; stroke-width: 1px;"/><path class="xgrid crisp" transform="translate(364.03,0)" d="M0,70v380" style="stroke: rgb(255, 255, 255); stroke-opacity: 1; stroke-width: 1px;"/><path class="xgrid crisp" transform="translate(469.09,0)" d="M0,70v380" style="stroke: rgb(255, 255, 255); stroke-opacity: 1; stroke-width: 1px;"/><path class="xgrid crisp" transform="translate(574.14,0)" d="M0,70v380" style="stroke: rgb(255, 255, 255); stroke-opacity: 1; stroke-width: 1px;"/><path class="xgrid crisp" transform="translate(676.92,0)" d="M0,70v380" style="stroke: rgb(255, 255, 255); stroke-opacity: 1; stroke-width: 1px;"/></g><g class="y"/></g><g class="zerolinelayer"/><path class="xlines-below"/><path class="ylines-below"/><g class="overlines-below"/><g class="xaxislayer-below"/><g class="yaxislayer-below"/><g class="overaxes-below"/><g class="plot" transform="translate(50, 70)" clip-path="url('#clip820251xyplot')"><g class="scatterlayer mlayer"><g class="trace scatter traceb1d08a" style="stroke-miterlimit: 2;"><g class="fills"><g><path class="js-fill" d="M684.01,380L-155.3,380L-155.3,378.89L-130.18,379.35L-129.04,379.39L-81.08,378.76L-79.93,378.71L-53.67,376.82L-52.53,376.69L-43.39,375.32L-42.25,375.1L-27.41,372.24L-26.26,372.12L-22.84,371.29L-21.7,371.25L-11.42,368.79L-10.28,368.18L-7.99,368.07L-6.85,367.99L-1.14,368.01L0,366.91L2.28,366.53L3.43,365.12L9.14,357.6L10.28,357.43L14.85,352.48L15.99,351.61L18.27,350.95L19.41,349.69L22.84,344.46L23.98,342.03L26.26,340.98L27.41,338.15L29.69,336.15L30.83,336.59L33.12,337.79L34.26,337.92L36.54,339.52L37.68,341.53L41.11,345.59L42.25,345.98L46.82,357.99L47.96,359.85L50.24,360.61L51.39,362.88L52.53,364.54L53.67,363.53L55.95,366.94L57.1,366.9L58.24,367.1L59.38,368.23L63.95,370.09L65.09,370.41L67.37,370.91L68.52,371.55L70.8,372.35L71.94,372.06L87.93,370.4L89.07,369.86L94.78,369.28L95.92,370.98L99.35,370.64L100.49,369.85L103.92,369.18L105.06,369.08L106.2,369.13L107.34,367.91L110.77,366.93L111.91,364.97L115.33,365.65L116.48,366.19L124.47,364.66L125.61,364.48L137.03,363.49L138.17,363.49L147.31,364.14L148.45,363.95L151.88,364.35L153.02,364.19L157.59,363.45L158.73,362.62L161.01,360.88L162.15,360.94L164.44,358.4L165.58,357.49L171.29,357.31L172.43,356.94L174.71,356.57L175.86,356.13L180.42,355.11L181.57,354.14L186.13,350.54L187.28,348.47L190.7,342.78L191.84,341.19L192.99,339.9L194.13,339.77L196.41,336.57L197.55,335.43L200.98,332.33L202.12,332.75L205.55,330.24L206.69,329.99L208.97,331.57L210.11,331.5L211.26,340.86L212.4,339.34L215.82,340.33L216.97,339.68L218.11,339.79L219.25,332.48L221.53,337.48L222.68,338.89L224.96,341.89L226.1,341.98L229.53,344.3L230.67,344.52L235.24,346.96L236.38,348.14L239.8,351.32L240.95,353.82L242.09,353.61L243.23,354.69L245.51,356.28L246.66,357.34L248.94,358.51L250.08,358.72L253.51,360.92L254.65,363.65L255.79,364.14L256.93,363.21L258.08,363.23L259.22,364.24L261.5,365.16L262.64,363.37L264.93,364.76L266.07,365.05L267.21,368.23L268.35,368.21L272.92,370.13L274.06,370.08L275.2,368.93L276.35,370.56L279.77,372.55L280.91,372.88L283.2,373.57L284.34,373.91L288.91,375.68L290.05,375.75L295.76,377.23L296.9,377.29L301.47,377.7L302.61,377.82L310.6,377.86L311.75,377.63L320.88,376.38L322.02,376.43L326.59,375.2L327.73,374.35L331.16,371.82L332.3,370.63L334.58,367.98L335.73,367.07L340.29,365.83L341.44,365.89L348.29,365.89L349.43,365.63L357.42,363.51L358.56,363.32L363.13,363.22L364.27,363.32L371.13,364.13L372.27,364.56L388.25,368.4L389.4,369.11L400.82,373.73L401.96,373.76L405.38,374.06L406.53,373.79L420.23,375.22L421.37,375.18L425.94,375.03L427.08,374.77L430.51,374.11L431.65,373.97L446.49,375.25L447.63,374.94L449.92,374.71L451.06,375.46L454.49,374.77L455.63,374.68L457.91,374.48L459.05,373.38L462.48,374.13L463.62,373.56L465.91,373.33L467.05,372.17L469.33,370.18L470.47,368.34L473.9,367.02L475.04,365.98L480.75,359.52L481.89,359.3L485.32,353.91L486.46,352.55L488.74,349.65L489.89,349.35L495.6,342.53L496.74,341.88L497.88,341.38L499.02,339.99L505.87,332.96L507.01,329.62L509.3,315.47L510.44,305.09L511.58,295.3L512.72,297.8L513.87,293.52L515.01,257.47L519.58,136.01L520.72,132.97L521.86,128.78L523,93.38L525.29,55.16L526.43,46.64L527.57,37.69L528.71,4.78L529.85,0L531,12.12L534.42,44.89L535.56,50.12L536.7,51.47L537.85,50.4L545.84,92.88L546.98,107.26L551.55,161.55L552.69,169.75L553.83,173.32L554.98,187.67L560.69,242.51L561.83,246.54L564.11,273.7L565.25,284.2L568.68,305.37L569.82,307.75L572.1,321.67L573.25,325.99L576.67,335.81L577.81,336.49L581.24,346.87L582.38,349.7L584.67,353.29L585.81,353.85L589.23,356.85L590.38,357L593.8,357.07L594.94,356.17L601.79,349.75L602.94,346.15L605.22,339.95L606.36,336.31L609.79,326.91L610.93,316.44L616.64,274.56L617.78,272.96L620.07,258.94L621.21,255.45L622.35,254.46L623.49,255.3L624.63,256.9L625.77,256.69L629.2,259.25L630.34,258.4L632.63,257.02L633.77,257.79L638.34,271.08L639.48,274.56L640.62,278.32L641.76,279.48L642.9,300.07L644.05,299.27L648.61,317.77L649.76,318.78L650.9,313.34L652.04,325.34L655.46,339.01L656.61,341.55L657.75,342.61L658.89,346.49L662.32,353.56L663.46,355.3L664.6,356.16L665.74,355.88L673.74,360.28L674.88,361.92L680.59,363.72L681.73,363.71L684.01,364.38" style="fill: rgb(8, 115, 191); fill-opacity: 0.2; stroke-width: 0;"/></g></g><g class="errorbars"/><g class="lines"><path class="js-line" d="M-155.3,378.89L-130.18,379.35L-129.04,379.39L-81.08,378.76L-79.93,378.71L-53.67,376.82L-52.53,376.69L-43.39,375.32L-42.25,375.1L-27.41,372.24L-26.26,372.12L-22.84,371.29L-21.7,371.25L-11.42,368.79L-10.28,368.18L-7.99,368.07L-6.85,367.99L-1.14,368.01L0,366.91L2.28,366.53L3.43,365.12L9.14,357.6L10.28,357.43L14.85,352.48L15.99,351.61L18.27,350.95L19.41,349.69L22.84,344.46L23.98,342.03L26.26,340.98L27.41,338.15L29.69,336.15L30.83,336.59L33.12,337.79L34.26,337.92L36.54,339.52L37.68,341.53L41.11,345.59L42.25,345.98L46.82,357.99L47.96,359.85L50.24,360.61L51.39,362.88L52.53,364.54L53.67,363.53L55.95,366.94L57.1,366.9L58.24,367.1L59.38,368.23L63.95,370.09L65.09,370.41L67.37,370.91L68.52,371.55L70.8,372.35L71.94,372.06L87.93,370.4L89.07,369.86L94.78,369.28L95.92,370.98L99.35,370.64L100.49,369.85L103.92,369.18L105.06,369.08L106.2,369.13L107.34,367.91L110.77,366.93L111.91,364.97L115.33,365.65L116.48,366.19L124.47,364.66L125.61,364.48L137.03,363.49L138.17,363.49L147.31,364.14L148.45,363.95L151.88,364.35L153.02,364.19L157.59,363.45L158.73,362.62L161.01,360.88L162.15,360.94L164.44,358.4L165.58,357.49L171.29,357.31L172.43,356.94L174.71,356.57L175.86,356.13L180.42,355.11L181.57,354.14L186.13,350.54L187.28,348.47L190.7,342.78L191.84,341.19L192.99,339.9L194.13,339.77L196.41,336.57L197.55,335.43L200.98,332.33L202.12,332.75L205.55,330.24L206.69,329.99L208.97,331.57L210.11,331.5L211.26,340.86L212.4,339.34L215.82,340.33L216.97,339.68L218.11,339.79L219.25,332.48L221.53,337.48L222.68,338.89L224.96,341.89L226.1,341.98L229.53,344.3L230.67,344.52L235.24,346.96L236.38,348.14L239.8,351.32L240.95,353.82L242.09,353.61L243.23,354.69L245.51,356.28L246.66,357.34L248.94,358.51L250.08,358.72L253.51,360.92L254.65,363.65L255.79,364.14L256.93,363.21L258.08,363.23L259.22,364.24L261.5,365.16L262.64,363.37L264.93,364.76L266.07,365.05L267.21,368.23L268.35,368.21L272.92,370.13L274.06,370.08L275.2,368.93L276.35,370.56L279.77,372.55L280.91,372.88L283.2,373.57L284.34,373.91L288.91,375.68L290.05,375.75L295.76,377.23L296.9,377.29L301.47,377.7L302.61,377.82L310.6,377.86L311.75,377.63L320.88,376.38L322.02,376.43L326.59,375.2L327.73,374.35L331.16,371.82L332.3,370.63L334.58,367.98L335.73,367.07L340.29,365.83L341.44,365.89L348.29,365.89L349.43,365.63L357.42,363.51L358.56,363.32L363.13,363.22L364.27,363.32L371.13,364.13L372.27,364.56L388.25,368.4L389.4,369.11L400.82,373.73L401.96,373.76L405.38,374.06L406.53,373.79L420.23,375.22L421.37,375.18L425.94,375.03L427.08,374.77L430.51,374.11L431.65,373.97L446.49,375.25L447.63,374.94L449.92,374.71L451.06,375.46L454.49,374.77L455.63,374.68L457.91,374.48L459.05,373.38L462.48,374.13L463.62,373.56L465.91,373.33L467.05,372.17L469.33,370.18L470.47,368.34L473.9,367.02L475.04,365.98L480.75,359.52L481.89,359.3L485.32,353.91L486.46,352.55L488.74,349.65L489.89,349.35L495.6,342.53L496.74,341.88L497.88,341.38L499.02,339.99L505.87,332.96L507.01,329.62L509.3,315.47L510.44,305.09L511.58,295.3L512.72,297.8L513.87,293.52L515.01,257.47L519.58,136.01L520.72,132.97L521.86,128.78L523,93.38L525.29,55.16L526.43,46.64L527.57,37.69L528.71,4.78L529.85,0L531,12.12L534.42,44.89L535.56,50.12L536.7,51.47L537.85,50.4L545.84,92.88L546.98,107.26L551.55,161.55L552.69,169.75L553.83,173.32L554.98,187.67L560.69,242.51L561.83,246.54L564.11,273.7L565.25,284.2L568.68,305.37L569.82,307.75L572.1,321.67L573.25,325.99L576.67,335.81L577.81,336.49L581.24,346.87L582.38,349.7L584.67,353.29L585.81,353.85L589.23,356.85L590.38,357L593.8,357.07L594.94,356.17L601.79,349.75L602.94,346.15L605.22,339.95L606.36,336.31L609.79,326.91L610.93,316.44L616.64,274.56L617.78,272.96L620.07,258.94L621.21,255.45L622.35,254.46L623.49,255.3L624.63,256.9L625.77,256.69L629.2,259.25L630.34,258.4L632.63,257.02L633.77,257.79L638.34,271.08L639.48,274.56L640.62,278.32L641.76,279.48L642.9,300.07L644.05,299.27L648.61,317.77L649.76,318.78L650.9,313.34L652.04,325.34L655.46,339.01L656.61,341.55L657.75,342.61L658.89,346.49L662.32,353.56L663.46,355.3L664.6,356.16L665.74,355.88L673.74,360.28L674.88,361.92L680.59,363.72L681.73,363.71L684.01,364.38" style="vector-effect: non-scaling-stroke; fill: none; stroke: rgb(8, 115, 191); stroke-opacity: 1; stroke-width: 0.5px; opacity: 1;"/></g><g class="points"/><g class="text"/></g><g class="trace scatter trace1e9158" style="stroke-miterlimit: 2;"><g class="fills"><g><path class="js-fill" d="M695.43,380L684.01,380L684.01,364.38L685.15,364.59L686.3,366.26L689.72,365.71L690.86,364.42L693.15,362.79L694.29,360.24L695.43,359.52" style="fill: rgb(8, 115, 191); fill-opacity: 0.4; stroke-width: 0;"/></g></g><g class="errorbars"/><g class="lines"><path class="js-line" d="M684.01,364.38L685.15,364.59L686.3,366.26L689.72,365.71L690.86,364.42L693.15,362.79L694.29,360.24L695.43,359.52" style="vector-effect: non-scaling-stroke; fill: none; stroke: rgb(8, 115, 191); stroke-opacity: 1; stroke-width: 2px; opacity: 1;"/></g><g class="points"/><g class="text"/></g><g class="trace scatter tracee90bd5" style="stroke-miterlimit: 2; opacity: 1;"><g class="fills"/><g class="errorbars"/><g class="lines"/><g class="points"><path class="point" transform="translate(695.43,359.52)" d="M15,0A15,15 0 1,1 0,-15A15,15 0 0,1 15,0Z" style="opacity: 1; stroke-width: 0px; fill: rgb(8, 115, 191); fill-opacity: 1;"/></g><g class="text"/></g></g></g><g class="overplot"/><path class="xlines-above crisp" style="fill: none; stroke-width: 1px; stroke: rgb(0, 0, 0); stroke-opacity: 0;" d=""/><path class="ylines-above crisp" style="fill: none;" d="M0,0"/><g class="overlines-above"/><g class="xaxislayer-above"><path class="xtick ticks crisp" d="M0,450v-5" transform="translate(52.28,0)" style="stroke: rgb(68, 68, 68); stroke-opacity: 1; stroke-width: 1px;"/><path class="xtick ticks crisp" d="M0,450v-5" transform="translate(157.34,0)" style="stroke: rgb(68, 68, 68); stroke-opacity: 1; stroke-width: 1px;"/><path class="xtick ticks crisp" d="M0,450v-5" transform="translate(260.11,0)" style="stroke: rgb(68, 68, 68); stroke-opacity: 1; stroke-width: 1px;"/><path class="xtick ticks crisp" d="M0,450v-5" transform="translate(364.03,0)" style="stroke: rgb(68, 68, 68); stroke-opacity: 1; stroke-width: 1px;"/><path class="xtick ticks crisp" d="M0,450v-5" transform="translate(469.09,0)" style="stroke: rgb(68, 68, 68); stroke-opacity: 1; stroke-width: 1px;"/><path class="xtick ticks crisp" d="M0,450v-5" transform="translate(574.14,0)" style="stroke: rgb(68, 68, 68); stroke-opacity: 1; stroke-width: 1px;"/><path class="xtick ticks crisp" d="M0,450v-5" transform="translate(676.92,0)" style="stroke: rgb(68, 68, 68); stroke-opacity: 1; stroke-width: 1px;"/><g class="xtick"><text text-anchor="middle" x="0" y="469" transform="translate(52.28,0)" style="font-family: 'Open Sans', verdana, arial, sans-serif; font-size: 18px; fill: rgb(42, 63, 95); fill-opacity: 1; white-space: pre;">01/10</text></g><g class="xtick"><text text-anchor="middle" x="0" y="469" transform="translate(157.34,0)" style="font-family: 'Open Sans', verdana, arial, sans-serif; font-size: 18px; fill: rgb(42, 63, 95); fill-opacity: 1; white-space: pre;">01/01</text></g><g class="xtick"><text text-anchor="middle" x="0" y="469" transform="translate(260.11,0)" style="font-family: 'Open Sans', verdana, arial, sans-serif; font-size: 18px; fill: rgb(42, 63, 95); fill-opacity: 1; white-space: pre;">01/04</text></g><g class="xtick"><text text-anchor="middle" x="0" y="469" transform="translate(364.03,0)" style="font-family: 'Open Sans', verdana, arial, sans-serif; font-size: 18px; fill: rgb(42, 63, 95); fill-opacity: 1; white-space: pre;">01/07</text></g><g class="xtick"><text text-anchor="middle" x="0" y="469" transform="translate(469.09,0)" style="font-family: 'Open Sans', verdana, arial, sans-serif; font-size: 18px; fill: rgb(42, 63, 95); fill-opacity: 1; white-space: pre;">01/10</text></g><g class="xtick"><text text-anchor="middle" x="0" y="469" transform="translate(574.14,0)" style="font-family: 'Open Sans', verdana, arial, sans-serif; font-size: 18px; fill: rgb(42, 63, 95); fill-opacity: 1; white-space: pre;">01/01</text></g><g class="xtick"><text text-anchor="middle" x="0" y="469" transform="translate(676.92,0)" style="font-family: 'Open Sans', verdana, arial, sans-serif; font-size: 18px; fill: rgb(42, 63, 95); fill-opacity: 1; white-space: pre;">01/04</text></g></g><g class="yaxislayer-above"/><g class="overaxes-above"/></g></g><g class="polarlayer"/><g class="ternarylayer"/><g class="geolayer"/><g class="funnelarealayer"/><g class="pielayer"/><g class="treemaplayer"/><g class="sunburstlayer"/><g class="glimages"/><defs id="topdefs-820251"><g class="clips"/></defs><g class="layer-above"><g class="imagelayer"/><g class="shapelayer"><path data-index="0" fill-rule="evenodd" d="M-591.76,445.64L242.99,445.64" clip-path="url('#clip820251xy')" style="opacity: 1; stroke: rgb(255, 0, 0); stroke-opacity: 1; fill: rgb(0, 0, 0); fill-opacity: 0; stroke-dasharray: 3px, 3px; stroke-width: 1.5px;"/></g></g><g class="infolayer"><g class="g-gtitle"><text class="gtitle" x="375" y="25" text-anchor="middle" dy="0.7em" style="font-family: 'Open Sans', verdana, arial, sans-serif; font-size: 50px; fill: rgb(42, 63, 95); opacity: 1; font-weight: normal; white-space: pre;"><tspan style="font-weight:bold">Essonne (91)</tspan></text></g><g class="g-xtitle"/><g class="annotation" data-index="0" style="opacity: 1;"><g class="annotation-text-g" transform="rotate(0,703.43,369.52)"><g class="cursor-pointer" transform="translate(645, 334)"><rect class="bg" x="0.5" y="0.5" width="115" height="71" style="stroke-width: 1px; stroke: rgb(0, 0, 0); stroke-opacity: 0; fill: rgb(255, 255, 255); fill-opacity: 0.6;"/><text class="annotation-text" text-anchor="middle" x="57.8125" y="55.5" style="font-family: 'Open Sans', verdana, arial, sans-serif; font-size: 50px; fill: rgb(8, 115, 191); fill-opacity: 1; white-space: pre;"> <tspan style="font-weight:bold">234 </tspan></text></g></g><g class="annotation-arrow-g" style="opacity: 1;"><path d="M731.8299999999999,405.02L743.43,419.52" style="stroke-width: 1px; stroke: rgb(8, 115, 191); stroke-opacity: 1; stroke-dasharray: 0px, 0px, 18.569px, 18.569px;"/></g></g></g></svg>