<svg class="main-svg" xmlns="http://www.w3.org/2000/svg" xmlns:xlink="http://www.w3.org/1999/xlink" width="1125" height="750" style="" viewBox="0 0 750 500"><rect x="0" y="0" width="750" height="500" style="fill: rgb(0, 0, 0); fill-opacity: 0;"/><defs id="defs-05207f"><g class="clips"><clipPath id="clip05207fxyplot" class="plotclip"><rect width="700" height="380"/></clipPath><clipPath class="axesclip" id="clip05207fx"><rect x="50" y="0" width="700" height="500"/></clipPath><clipPath class="axesclip" id="clip05207fy"><rect x="0" y="70" width="750" height="380"/></clipPath><clipPath class="axesclip" id="clip05207fxy"><rect x="50" y="70" width="700" height="380"/></clipPath></g><g class="gradients"/></defs><g class="bglayer"><rect class="bg" x="50" y="70" width="700" height="380" style="fill: rgb(0, 0, 0); fill-opacity: 0; stroke-width: 0;"/></g><g class="layer-below"><g class="imagelayer"/><g class="shapelayer"/></g><g class="cartesianlayer"><g class="subplot xy"><g class="layer-subplot"><g class="shapelayer"/><g class="imagelayer"/></g><g class="gridlayer"><g class="x"><path class="xgrid crisp" transform="translate(105.13,0)" d="M0,70v380" style="stroke: rgb(255, 255, 255); stroke-opacity: 1; stroke-width: 1px;"/><path class="xgrid crisp" transform="translate(207.04,0)" d="M0,70v380" style="stroke: rgb(255, 255, 255); stroke-opacity: 1; stroke-width: 1px;"/><path class="xgrid crisp" transform="translate(305.61,0)" d="M0,70v380" style="stroke: rgb(255, 255, 255); stroke-opacity: 1; stroke-width: 1px;"/><path class="xgrid crisp" transform="translate(407.52,0)" d="M0,70v380" style="stroke: rgb(255, 255, 255); stroke-opacity: 1; stroke-width: 1px;"/><path class="xgrid crisp" transform="translate(509.43,0)" d="M0,70v380" style="stroke: rgb(255, 255, 255); stroke-opacity: 1; stroke-width: 1px;"/><path class="xgrid crisp" transform="translate(613.01,0)" d="M0,70v380" style="stroke: rgb(255, 255, 255); stroke-opacity: 1; stroke-width: 1px;"/><path class="xgrid crisp" transform="translate(714.92,0)" d="M0,70v380" style="stroke: rgb(255, 255, 255); stroke-opacity: 1; stroke-width: 1px;"/></g><g class="y"/></g><g class="zerolinelayer"/><path class="xlines-below"/><path class="ylines-below"/><g class="overlines-below"/><g class="xaxislayer-below"/><g class="yaxislayer-below"/><g class="overaxes-below"/><g class="plot" transform="translate(50, 70)" clip-path="url('#clip05207fxyplot')"><g class="scatterlayer mlayer"><g class="trace scatter traceb6d013" style="stroke-miterlimit: 2;"><g class="fills"><g><path class="js-fill" d="M671.6,380L-227.21,380L-227.21,377.44L-205.49,378.81L-203.82,378.75L-170.41,378.57L-168.74,378.16L-138.66,379.05L-136.99,378.99L-120.29,378.33L-118.62,377.98L-111.93,376.49L-110.26,376.49L-75.18,373.51L-73.51,372.8L-61.81,365.19L-60.14,361.91L-55.13,360.84L-53.46,358.17L-50.12,355.31L-48.45,354.54L-43.44,352.51L-41.77,353.05L-38.42,351.98L-36.75,351.86L-33.41,350.37L-31.74,350.25L-30.07,348.59L-28.4,344.9L-26.73,339.78L-25.06,340.02L-23.39,339.84L-21.72,340.67L-18.38,340.08L-16.71,343.05L-15.04,346.15L-13.37,346.98L-10.02,348.47L-8.35,348.65L-6.68,350.61L-5.01,350.49L-3.34,350.85L-1.67,349.6L1.67,344.72L3.34,344.24L8.35,324.61L10.02,315.51L11.69,305.81L13.37,303.31L15.04,303.13L16.71,287.19L20.05,266.48L21.72,249.76L23.39,235.54L25.06,229.53L26.73,228.7L28.4,212.4L35.08,113.7L36.75,104.24L38.42,101.44L40.1,75.44L43.44,32.54L45.11,18.03L48.45,13.09L50.12,12.79L51.79,4.22L53.46,0L60.14,44.03L61.81,46.17L65.16,108.58L66.83,161.59L70.17,200.62L71.84,206.57L73.51,207.28L75.18,224.78L76.85,243.4L78.52,228.88L81.86,262.85L83.53,268.21L85.2,268.98L86.87,283.8L90.21,300.57L91.89,303.01L93.56,307.24L95.23,306.23L96.9,306.46L98.57,312.41L100.24,315.15L101.91,314.55L103.58,320.39L105.25,322.11L106.92,323.36L108.59,323.36L111.93,318.78L113.6,320.15L116.95,318.66L118.62,317.95L121.96,318.12L123.63,316.93L125.3,316.7L126.97,314.44L131.98,295.69L133.65,296.65L135.32,293.85L136.99,292.9L138.66,297.42L140.33,312.59L143.68,323.95L145.35,322.59L147.02,324.79L148.69,322.47L150.36,319.67L152.03,320.09L155.37,319.25L157.04,314.85L158.71,312.23L160.38,313.72L162.05,311.1L163.72,296.71L165.39,297.9L167.06,296.82L170.41,302.95L172.08,301.17L175.42,302.6L177.09,301.76L178.76,303.73L180.43,300.57L182.1,298.61L183.77,298.73L185.44,297.12L187.11,297L188.78,295.16L190.45,294.5L193.79,289.33L195.47,289.03L197.14,289.45L198.81,287.19L202.15,287.42L203.82,286.47L205.49,288.26L207.16,285.58L208.83,284.45L210.5,286.12L212.17,288.2L213.84,288.55L215.51,296.29L217.18,296.47L222.2,306.52L223.87,306.94L227.21,306.28L228.88,309.85L230.55,311.4L232.22,310.27L233.89,310.33L235.56,309.62L237.23,309.08L238.9,306.58L240.57,305.81L242.24,304.2L243.91,305.93L245.58,305.27L248.93,306.05L250.6,309.85L255.61,316.46L257.28,317.65L258.95,318.36L260.62,318.18L262.29,317.89L263.96,314.97L265.63,314.26L267.3,312.71L268.97,310.75L270.64,310.21L272.32,309.91L273.99,307.06L280.67,290.22L282.34,286.71L284.01,286.18L285.68,280.34L287.35,278.8L289.02,271.18L294.03,256.43L295.7,256.37L299.05,243.99L300.72,241.32L302.39,234.77L304.06,233.82L307.4,233.16L309.07,260.41L310.74,253.21L312.41,254.76L314.08,262.97L315.75,266.07L319.09,266.18L320.76,242.39L322.43,256.31L324.11,258.03L325.78,259.22L327.45,264.7L329.12,266.36L330.79,266.78L335.8,275.35L337.47,278.62L339.14,279.69L340.81,281.89L342.48,282.72L344.15,285.28L345.82,287.31L347.49,291.41L350.84,299.5L352.51,307.47L354.18,307.24L355.85,314.08L362.53,325.68L364.2,325.5L365.87,325.68L367.54,326.99L370.88,334.49L372.55,341.21L374.22,342.87L375.89,340.14L377.57,340.73L379.24,344.78L382.58,342.4L384.25,335.85L389.26,337.04L390.93,345.02L392.6,346.09L394.27,349.6L397.61,354.06L399.28,354.65L400.95,354.42L402.63,348.65L405.97,352.75L407.64,354.77L410.98,357.75L412.65,358.22L414.32,361.73L415.99,363.46L419.33,367.15L421,367.74L424.34,367.8L426.01,369.23L427.68,370.72L429.36,370.78L431.03,370.96L432.7,372.56L441.05,374.65L442.72,374.59L447.73,374.7L449.4,375.48L457.76,375.18L459.43,375.36L462.77,373.16L464.44,372.92L471.12,371.31L472.79,369.95L474.46,367.92L476.13,368.99L481.15,359.06L482.82,359L486.16,346.27L487.83,336.51L491.17,326.99L492.84,325.14L494.51,324.43L496.18,320.62L501.19,320.09L502.86,318.96L507.88,319.91L509.55,318.96L511.22,317.95L512.89,315.27L516.23,314.02L517.9,313.72L519.57,312.65L521.24,309.91L526.25,309.79L527.92,308.78L529.59,308.78L531.26,307.06L532.94,310.33L534.61,310.69L536.28,313.84L537.95,315.03L539.62,316.58L541.29,316.1L542.96,316.34L544.63,317.41L549.64,324.25L551.31,324.97L552.98,325.86L554.65,331.27L556.32,332.34L558,334.78L559.67,334.01L561.34,337.28L566.35,339.54L568.02,340.61L569.69,340.79L571.36,344.06L573.03,343.77L574.7,345.08L576.37,344.9L578.04,347.81L581.38,352.45L583.05,352.69L584.73,354.12L586.4,354.12L588.07,354.12L589.74,355.25L598.09,359.24L599.76,359.18L601.43,360.66L603.1,359.77L604.77,360.19L606.44,359.12L611.46,358.28L613.13,358.22L616.47,360.49L618.14,362.69L621.48,365.42L623.15,365.19L626.49,365.96L628.16,365.6L631.5,364.11L633.17,364.29L636.52,363.76L638.19,362.51L641.53,361.26L643.2,360.13L644.87,359.35L646.54,359.59L649.88,358.22L651.55,357.81L658.23,355.31L659.9,359L661.58,354.71L663.25,352.57L664.92,352.22L666.59,350.49L669.93,350.61L671.6,344.48" style="fill: rgb(8, 115, 191); fill-opacity: 0.2; stroke-width: 0;"/></g></g><g class="errorbars"/><g class="lines"><path class="js-line" d="M-227.21,377.44L-205.49,378.81L-203.82,378.75L-170.41,378.57L-168.74,378.16L-138.66,379.05L-136.99,378.99L-120.29,378.33L-118.62,377.98L-111.93,376.49L-110.26,376.49L-75.18,373.51L-73.51,372.8L-61.81,365.19L-60.14,361.91L-55.13,360.84L-53.46,358.17L-50.12,355.31L-48.45,354.54L-43.44,352.51L-41.77,353.05L-38.42,351.98L-36.75,351.86L-33.41,350.37L-31.74,350.25L-30.07,348.59L-28.4,344.9L-26.73,339.78L-25.06,340.02L-23.39,339.84L-21.72,340.67L-18.38,340.08L-16.71,343.05L-15.04,346.15L-13.37,346.98L-10.02,348.47L-8.35,348.65L-6.68,350.61L-5.01,350.49L-3.34,350.85L-1.67,349.6L1.67,344.72L3.34,344.24L8.35,324.61L10.02,315.51L11.69,305.81L13.37,303.31L15.04,303.13L16.71,287.19L20.05,266.48L21.72,249.76L23.39,235.54L25.06,229.53L26.73,228.7L28.4,212.4L35.08,113.7L36.75,104.24L38.42,101.44L40.1,75.44L43.44,32.54L45.11,18.03L48.45,13.09L50.12,12.79L51.79,4.22L53.46,0L60.14,44.03L61.81,46.17L65.16,108.58L66.83,161.59L70.17,200.62L71.84,206.57L73.51,207.28L75.18,224.78L76.85,243.4L78.52,228.88L81.86,262.85L83.53,268.21L85.2,268.98L86.87,283.8L90.21,300.57L91.89,303.01L93.56,307.24L95.23,306.23L96.9,306.46L98.57,312.41L100.24,315.15L101.91,314.55L103.58,320.39L105.25,322.11L106.92,323.36L108.59,323.36L111.93,318.78L113.6,320.15L116.95,318.66L118.62,317.95L121.96,318.12L123.63,316.93L125.3,316.7L126.97,314.44L131.98,295.69L133.65,296.65L135.32,293.85L136.99,292.9L138.66,297.42L140.33,312.59L143.68,323.95L145.35,322.59L147.02,324.79L148.69,322.47L150.36,319.67L152.03,320.09L155.37,319.25L157.04,314.85L158.71,312.23L160.38,313.72L162.05,311.1L163.72,296.71L165.39,297.9L167.06,296.82L170.41,302.95L172.08,301.17L175.42,302.6L177.09,301.76L178.76,303.73L180.43,300.57L182.1,298.61L183.77,298.73L185.44,297.12L187.11,297L188.78,295.16L190.45,294.5L193.79,289.33L195.47,289.03L197.14,289.45L198.81,287.19L202.15,287.42L203.82,286.47L205.49,288.26L207.16,285.58L208.83,284.45L210.5,286.12L212.17,288.2L213.84,288.55L215.51,296.29L217.18,296.47L222.2,306.52L223.87,306.94L227.21,306.28L228.88,309.85L230.55,311.4L232.22,310.27L233.89,310.33L235.56,309.62L237.23,309.08L238.9,306.58L240.57,305.81L242.24,304.2L243.91,305.93L245.58,305.27L248.93,306.05L250.6,309.85L255.61,316.46L257.28,317.65L258.95,318.36L260.62,318.18L262.29,317.89L263.96,314.97L265.63,314.26L267.3,312.71L268.97,310.75L270.64,310.21L272.32,309.91L273.99,307.06L280.67,290.22L282.34,286.71L284.01,286.18L285.68,280.34L287.35,278.8L289.02,271.18L294.03,256.43L295.7,256.37L299.05,243.99L300.72,241.32L302.39,234.77L304.06,233.82L307.4,233.16L309.07,260.41L310.74,253.21L312.41,254.76L314.08,262.97L315.75,266.07L319.09,266.18L320.76,242.39L322.43,256.31L324.11,258.03L325.78,259.22L327.45,264.7L329.12,266.36L330.79,266.78L335.8,275.35L337.47,278.62L339.14,279.69L340.81,281.89L342.48,282.72L344.15,285.28L345.82,287.31L347.49,291.41L350.84,299.5L352.51,307.47L354.18,307.24L355.85,314.08L362.53,325.68L364.2,325.5L365.87,325.68L367.54,326.99L370.88,334.49L372.55,341.21L374.22,342.87L375.89,340.14L377.57,340.73L379.24,344.78L382.58,342.4L384.25,335.85L389.26,337.04L390.93,345.02L392.6,346.09L394.27,349.6L397.61,354.06L399.28,354.65L400.95,354.42L402.63,348.65L405.97,352.75L407.64,354.77L410.98,357.75L412.65,358.22L414.32,361.73L415.99,363.46L419.33,367.15L421,367.74L424.34,367.8L426.01,369.23L427.68,370.72L429.36,370.78L431.03,370.96L432.7,372.56L441.05,374.65L442.72,374.59L447.73,374.7L449.4,375.48L457.76,375.18L459.43,375.36L462.77,373.16L464.44,372.92L471.12,371.31L472.79,369.95L474.46,367.92L476.13,368.99L481.15,359.06L482.82,359L486.16,346.27L487.83,336.51L491.17,326.99L492.84,325.14L494.51,324.43L496.18,320.62L501.19,320.09L502.86,318.96L507.88,319.91L509.55,318.96L511.22,317.95L512.89,315.27L516.23,314.02L517.9,313.72L519.57,312.65L521.24,309.91L526.25,309.79L527.92,308.78L529.59,308.78L531.26,307.06L532.94,310.33L534.61,310.69L536.28,313.84L537.95,315.03L539.62,316.58L541.29,316.1L542.96,316.34L544.63,317.41L549.64,324.25L551.31,324.97L552.98,325.86L554.65,331.27L556.32,332.34L558,334.78L559.67,334.01L561.34,337.28L566.35,339.54L568.02,340.61L569.69,340.79L571.36,344.06L573.03,343.77L574.7,345.08L576.37,344.9L578.04,347.81L581.38,352.45L583.05,352.69L584.73,354.12L586.4,354.12L588.07,354.12L589.74,355.25L598.09,359.24L599.76,359.18L601.43,360.66L603.1,359.77L604.77,360.19L606.44,359.12L611.46,358.28L613.13,358.22L616.47,360.49L618.14,362.69L621.48,365.42L623.15,365.19L626.49,365.96L628.16,365.6L631.5,364.11L633.17,364.29L636.52,363.76L638.19,362.51L641.53,361.26L643.2,360.13L644.87,359.35L646.54,359.59L649.88,358.22L651.55,357.81L658.23,355.31L659.9,359L661.58,354.71L663.25,352.57L664.92,352.22L666.59,350.49L669.93,350.61L671.6,344.48" style="vector-effect: non-scaling-stroke; fill: none; stroke: rgb(8, 115, 191); stroke-opacity: 1; stroke-width: 0.5px; opacity: 1;"/></g><g class="points"/><g class="text"/></g><g class="trace scatter trace75f2eb" style="stroke-miterlimit: 2;"><g class="fills"><g><path class="js-fill" d="M688.31,380L671.6,380L671.6,344.48L673.27,345.85L674.94,344.06L676.61,347.1L678.28,340.79L681.62,337.34L683.29,328.95L684.96,324.97L686.63,318.9L688.31,308.19" style="fill: rgb(8, 115, 191); fill-opacity: 0.4; stroke-width: 0;"/></g></g><g class="errorbars"/><g class="lines"><path class="js-line" d="M671.6,344.48L673.27,345.85L674.94,344.06L676.61,347.1L678.28,340.79L681.62,337.34L683.29,328.95L684.96,324.97L686.63,318.9L688.31,308.19" style="vector-effect: non-scaling-stroke; fill: none; stroke: rgb(8, 115, 191); stroke-opacity: 1; stroke-width: 2px; opacity: 1;"/></g><g class="points"/><g class="text"/></g><g class="trace scatter trace04c27d" style="stroke-miterlimit: 2; opacity: 1;"><g class="fills"/><g class="errorbars"/><g class="lines"/><g class="points"><path class="point" transform="translate(688.31,308.19)" d="M15,0A15,15 0 1,1 0,-15A15,15 0 0,1 15,0Z" style="opacity: 1; stroke-width: 0px; fill: rgb(8, 115, 191); fill-opacity: 1;"/></g><g class="text"/></g></g></g><g class="overplot"/><path class="xlines-above crisp" style="fill: none; stroke-width: 1px; stroke: rgb(0, 0, 0); stroke-opacity: 0;" d=""/><path class="ylines-above crisp" style="fill: none;" d="M0,0"/><g class="overlines-above"/><g class="xaxislayer-above"><path class="xtick ticks crisp" d="M0,450v-5" transform="translate(105.13,0)" style="stroke: rgb(68, 68, 68); stroke-opacity: 1; stroke-width: 1px;"/><path class="xtick ticks crisp" d="M0,450v-5" transform="translate(207.04,0)" style="stroke: rgb(68, 68, 68); stroke-opacity: 1; stroke-width: 1px;"/><path class="xtick ticks crisp" d="M0,450v-5" transform="translate(305.61,0)" style="stroke: rgb(68, 68, 68); stroke-opacity: 1; stroke-width: 1px;"/><path class="xtick ticks crisp" d="M0,450v-5" transform="translate(407.52,0)" style="stroke: rgb(68, 68, 68); stroke-opacity: 1; stroke-width: 1px;"/><path class="xtick ticks crisp" d="M0,450v-5" transform="translate(509.43,0)" style="stroke: rgb(68, 68, 68); stroke-opacity: 1; stroke-width: 1px;"/><path class="xtick ticks crisp" d="M0,450v-5" transform="translate(613.01,0)" style="stroke: rgb(68, 68, 68); stroke-opacity: 1; stroke-width: 1px;"/><path class="xtick ticks crisp" d="M0,450v-5" transform="translate(714.92,0)" style="stroke: rgb(68, 68, 68); stroke-opacity: 1; stroke-width: 1px;"/><g class="xtick"><text text-anchor="middle" x="0" y="469" transform="translate(105.13,0)" style="font-family: 'Open Sans', verdana, arial, sans-serif; font-size: 18px; fill: rgb(42, 63, 95); fill-opacity: 1; white-space: pre;">01/11</text></g><g class="xtick"><text text-anchor="middle" x="0" y="469" transform="translate(207.04,0)" style="font-family: 'Open Sans', verdana, arial, sans-serif; font-size: 18px; fill: rgb(42, 63, 95); fill-opacity: 1; white-space: pre;">01/01</text></g><g class="xtick"><text text-anchor="middle" x="0" y="469" transform="translate(305.61,0)" style="font-family: 'Open Sans', verdana, arial, sans-serif; font-size: 18px; fill: rgb(42, 63, 95); fill-opacity: 1; white-space: pre;">01/03</text></g><g class="xtick"><text text-anchor="middle" x="0" y="469" transform="translate(407.52,0)" style="font-family: 'Open Sans', verdana, arial, sans-serif; font-size: 18px; fill: rgb(42, 63, 95); fill-opacity: 1; white-space: pre;">01/05</text></g><g class="xtick"><text text-anchor="middle" x="0" y="469" transform="translate(509.43,0)" style="font-family: 'Open Sans', verdana, arial, sans-serif; font-size: 18px; fill: rgb(42, 63, 95); fill-opacity: 1; white-space: pre;">01/07</text></g><g class="xtick"><text text-anchor="middle" x="0" y="469" transform="translate(613.01,0)" style="font-family: 'Open Sans', verdana, arial, sans-serif; font-size: 18px; fill: rgb(42, 63, 95); fill-opacity: 1; white-space: pre;">01/09</text></g><g class="xtick"><text text-anchor="middle" x="0" y="469" transform="translate(714.92,0)" style="font-family: 'Open Sans', verdana, arial, sans-serif; font-size: 18px; fill: rgb(42, 63, 95); fill-opacity: 1; white-space: pre;">01/11</text></g></g><g class="yaxislayer-above"/><g class="overaxes-above"/></g></g><g class="polarlayer"/><g class="ternarylayer"/><g class="geolayer"/><g class="funnelarealayer"/><g class="pielayer"/><g class="treemaplayer"/><g class="sunburstlayer"/><g class="glimages"/><defs id="topdefs-05207f"><g class="clips"/></defs><g class="layer-above"><g class="imagelayer"/><g class="shapelayer"><path data-index="0" fill-rule="evenodd" d="M-888.9,430.46L332.34,430.46" clip-path="url('#clip05207fxy')" style="opacity: 1; stroke: rgb(255, 0, 0); stroke-opacity: 1; fill: rgb(0, 0, 0); fill-opacity: 0; stroke-dasharray: 3px, 3px; stroke-width: 1.5px;"/></g></g><g class="infolayer"><g class="g-gtitle"><text class="gtitle" x="375" y="25" text-anchor="middle" dy="0.7em" style="font-family: 'Open Sans', verdana, arial, sans-serif; font-size: 50px; fill: rgb(42, 63, 95); opacity: 1; font-weight: normal; white-space: pre;"><tspan style="font-weight:bold">Ain (01)</tspan></text></g><g class="g-xtitle"/><g class="annotation" data-index="0" style="opacity: 1;"><g class="annotation-text-g" transform="rotate(0,696.31,318.19)"><g class="cursor-pointer" transform="translate(638, 282)"><rect class="bg" x="0.5" y="0.5" width="115" height="71" style="stroke-width: 1px; stroke: rgb(0, 0, 0); stroke-opacity: 0; fill: rgb(255, 255, 255); fill-opacity: 0.6;"/><text class="annotation-text" text-anchor="middle" x="57.8125" y="55.5" style="font-family: 'Open Sans', verdana, arial, sans-serif; font-size: 50px; fill: rgb(8, 115, 191); fill-opacity: 1; white-space: pre;"> <tspan style="font-weight:bold">183 </tspan></text></g></g><g class="annotation-arrow-g" style="opacity: 1;"><path d="M724.7099999999999,353.69L736.31,368.19" style="stroke-width: 1px; stroke: rgb(8, 115, 191); stroke-opacity: 1; stroke-dasharray: 0px, 0px, 18.569px, 18.569px;"/></g></g></g></svg>