<svg class="main-svg" xmlns="http://www.w3.org/2000/svg" xmlns:xlink="http://www.w3.org/1999/xlink" width="1125" height="750" style="" viewBox="0 0 750 500"><rect x="0" y="0" width="750" height="500" style="fill: rgb(0, 0, 0); fill-opacity: 0;"/><defs id="defs-8f51ef"><g class="clips"><clipPath id="clip8f51efxyplot" class="plotclip"><rect width="700" height="380"/></clipPath><clipPath class="axesclip" id="clip8f51efx"><rect x="50" y="0" width="700" height="500"/></clipPath><clipPath class="axesclip" id="clip8f51efy"><rect x="0" y="70" width="750" height="380"/></clipPath><clipPath class="axesclip" id="clip8f51efxy"><rect x="50" y="70" width="700" height="380"/></clipPath></g><g class="gradients"/></defs><g class="bglayer"><rect class="bg" x="50" y="70" width="700" height="380" style="fill: rgb(0, 0, 0); fill-opacity: 0; stroke-width: 0;"/></g><g class="layer-below"><g class="imagelayer"/><g class="shapelayer"/></g><g class="cartesianlayer"><g class="subplot xy"><g class="layer-subplot"><g class="shapelayer"/><g class="imagelayer"/></g><g class="gridlayer"><g class="x"><path class="xgrid crisp" transform="translate(52.27,0)" d="M0,70v380" style="stroke: rgb(255, 255, 255); stroke-opacity: 1; stroke-width: 1px;"/><path class="xgrid crisp" transform="translate(156.65,0)" d="M0,70v380" style="stroke: rgb(255, 255, 255); stroke-opacity: 1; stroke-width: 1px;"/><path class="xgrid crisp" transform="translate(258.75,0)" d="M0,70v380" style="stroke: rgb(255, 255, 255); stroke-opacity: 1; stroke-width: 1px;"/><path class="xgrid crisp" transform="translate(361.99,0)" d="M0,70v380" style="stroke: rgb(255, 255, 255); stroke-opacity: 1; stroke-width: 1px;"/><path class="xgrid crisp" transform="translate(466.37,0)" d="M0,70v380" style="stroke: rgb(255, 255, 255); stroke-opacity: 1; stroke-width: 1px;"/><path class="xgrid crisp" transform="translate(570.75,0)" d="M0,70v380" style="stroke: rgb(255, 255, 255); stroke-opacity: 1; stroke-width: 1px;"/><path class="xgrid crisp" transform="translate(672.85,0)" d="M0,70v380" style="stroke: rgb(255, 255, 255); stroke-opacity: 1; stroke-width: 1px;"/></g><g class="y"/></g><g class="zerolinelayer"/><path class="xlines-below"/><path class="ylines-below"/><g class="overlines-below"/><g class="xaxislayer-below"/><g class="yaxislayer-below"/><g class="overaxes-below"/><g class="plot" transform="translate(50, 70)" clip-path="url('#clip8f51efxyplot')"><g class="scatterlayer mlayer"><g class="trace scatter tracea71961" style="stroke-miterlimit: 2;"><g class="fills"><g><path class="js-fill" d="M680.71,380L-154.29,380L-154.29,379.79L-86.22,379.95L-85.09,379.95L-53.32,379.19L-52.19,378.81L-44.25,377.61L-43.11,377.56L-35.17,375.05L-34.04,374.59L-26.09,372.33L-24.96,372.61L-20.42,371.52L-19.29,371.72L-15.88,372.08L-14.75,372.15L-4.54,370.84L-3.4,370.15L0,368.29L1.13,367.89L2.27,367.73L3.4,366.51L9.08,361.18L10.21,360.6L12.48,356.46L13.61,355.5L17.02,351.18L18.15,351.1L21.56,340.44L22.69,336.24L24.96,329.97L26.09,328.57L28.36,320.5L29.5,318.95L31.77,318.47L32.9,319.06L34.04,319.54L35.17,320.94L38.57,322.41L39.71,323.91L41.98,325.22L43.11,329.54L44.25,332.84L45.38,340.18L48.78,348.1L49.92,349.17L52.19,356.46L53.32,355.31L56.73,362.65L57.86,362.79L59,365.55L60.13,366.03L63.53,368.54L64.67,368.24L70.34,368.09L71.47,367.61L78.28,369L79.42,368.77L81.69,368.57L82.82,366.59L86.22,363.69L87.36,361.03L89.63,355.4L90.76,356.38L91.9,354.4L93.03,354.02L94.17,355.24L95.3,360.09L97.57,364.89L98.7,364.59L105.51,361.77L106.65,360.25L107.78,361.57L108.91,361.44L111.18,356.96L112.32,357.55L113.45,357.78L114.59,359.28L116.86,359.76L117.99,360.7L120.26,359.63L121.39,359.64L128.2,356.25L129.34,356.05L130.47,356.2L131.6,357.14L137.28,358.72L138.41,358.93L140.68,359.33L141.82,360.37L145.22,361.29L146.35,362.6L150.89,365.37L152.03,365.22L153.16,365.04L154.29,363.55L155.43,362.66L156.56,362.99L165.64,362.46L166.77,363.54L169.04,363.72L170.18,365.09L179.25,364.41L180.39,365.15L184.93,364.58L186.06,363.32L189.47,360.88L190.6,360.19L191.73,359L192.87,359.25L195.14,358.49L196.27,358.06L198.54,356.11L199.68,356.48L200.81,356.38L201.94,355.26L204.21,353.26L205.35,352.07L207.62,349.32L208.75,349.07L209.89,353L211.02,349.86L212.16,348.11L213.29,348.08L216.69,347.98L217.83,343.15L221.23,347.52L222.37,348.31L225.77,348.77L226.9,349.86L229.17,351.58L230.31,351.3L232.58,351.17L233.71,352.14L234.85,352.81L235.98,352.3L237.12,353.29L238.25,355.29L239.38,358.51L240.52,358.62L243.92,364.35L245.06,364.91L247.33,365.96L248.46,365.98L249.59,365.04L250.73,365.8L251.86,365.63L253,367.76L254.13,367.97L255.27,367.23L258.67,367.71L259.81,368.32L260.94,366.8L262.07,367.76L264.34,367.88L265.48,371.27L270.02,370.7L271.15,370.78L272.29,370.84L273.42,369.77L276.82,372.69L277.96,373.1L282.5,374.62L283.63,375L291.57,377L292.71,377.34L300.65,378.63L301.78,378.71L316.53,378.61L317.67,378.32L323.34,377.53L324.47,376.95L327.88,376.57L329.01,375.51L332.41,373.6L333.55,372.76L335.82,371.8L336.95,371.39L347.16,370.17L348.3,369.76L351.7,368.82L352.84,368.47L355.11,367.45L356.24,367.03L363.05,368.9L364.18,369.77L375.53,371.8L376.66,372.51L386.87,373.32L388.01,373.72L393.68,375.25L394.81,375.61L402.76,373.91L403.89,374.26L407.29,374.31L408.43,375.13L416.37,375.99L417.5,376.39L423.18,377.48L424.31,377.38L433.39,377.31L434.52,377.13L439.06,377.18L440.19,377.06L443.6,377.03L444.73,376.92L448.14,377.2L449.27,376.45L452.67,375.2L453.81,374.31L454.94,374.11L456.08,372.64L459.48,373.14L460.62,372.15L464.02,370.61L465.15,369.1L468.56,364.16L469.69,363.19L470.83,363.34L471.96,361.18L478.77,351.25L479.9,347.39L485.58,334.32L486.71,334.08L488.98,330.53L490.11,331.25L492.38,332.77L493.52,333.37L495.79,333.28L496.92,331.9L499.19,327.23L500.32,324.16L501.46,321.65L502.59,321.37L507.13,291.63L508.27,282.69L509.4,287.94L510.53,286.04L516.21,201.1L517.34,199.01L518.48,197.27L519.61,172.3L521.88,150.99L523.01,152.47L524.15,151.02L525.28,130.75L526.42,128.47L527.55,139.06L528.69,144.55L529.82,145.41L534.36,137.94L535.49,124.05L538.9,85.48L540.03,69.58L542.3,52.29L543.44,26.51L545.71,3L546.84,0L549.11,2.56L550.24,1.35L558.18,86.97L559.32,114.73L564.99,199.7L566.13,203.82L568.4,246.78L569.53,261.82L571.8,280.33L572.93,285.86L574.07,287.74L575.2,297.06L579.74,317.17L580.88,320.38L582.01,321.32L583.14,325.28L585.41,328.29L586.55,329.54L588.82,331.63L589.95,331.16L592.22,329.18L593.35,327.64L596.76,320.58L597.89,320.71L604.7,289.09L605.83,287.38L608.1,260.12L609.24,252.35L611.51,232.92L612.64,228.6L613.78,228.93L614.91,222.81L617.18,213.09L618.31,212.24L620.58,214.6L621.72,214.45L622.85,213.74L623.99,214.89L626.26,210.04L627.39,203.96L628.53,199.88L629.66,199.3L630.79,195.31L631.93,196.04L634.2,198.92L635.33,204.86L636.47,208.67L637.6,209.14L638.74,249.75L639.87,247.03L644.41,280.63L645.54,282.23L646.68,267.37L647.81,287.28L651.22,311.34L652.35,314.36L653.48,315.3L654.62,322.91L658.02,333.84L659.16,336.07L660.29,338.45L661.43,338.74L664.83,344.06L665.96,345.09L668.23,346.61L669.37,346.68L675.04,355.37L676.18,356.54L677.31,356.82L678.44,359.97L680.71,362.94" style="fill: rgb(8, 115, 191); fill-opacity: 0.2; stroke-width: 0;"/></g></g><g class="errorbars"/><g class="lines"><path class="js-line" d="M-154.29,379.79L-86.22,379.95L-85.09,379.95L-53.32,379.19L-52.19,378.81L-44.25,377.61L-43.11,377.56L-35.17,375.05L-34.04,374.59L-26.09,372.33L-24.96,372.61L-20.42,371.52L-19.29,371.72L-15.88,372.08L-14.75,372.15L-4.54,370.84L-3.4,370.15L0,368.29L1.13,367.89L2.27,367.73L3.4,366.51L9.08,361.18L10.21,360.6L12.48,356.46L13.61,355.5L17.02,351.18L18.15,351.1L21.56,340.44L22.69,336.24L24.96,329.97L26.09,328.57L28.36,320.5L29.5,318.95L31.77,318.47L32.9,319.06L34.04,319.54L35.17,320.94L38.57,322.41L39.71,323.91L41.98,325.22L43.11,329.54L44.25,332.84L45.38,340.18L48.78,348.1L49.92,349.17L52.19,356.46L53.32,355.31L56.73,362.65L57.86,362.79L59,365.55L60.13,366.03L63.53,368.54L64.67,368.24L70.34,368.09L71.47,367.61L78.28,369L79.42,368.77L81.69,368.57L82.82,366.59L86.22,363.69L87.36,361.03L89.63,355.4L90.76,356.38L91.9,354.4L93.03,354.02L94.17,355.24L95.3,360.09L97.57,364.89L98.7,364.59L105.51,361.77L106.65,360.25L107.78,361.57L108.91,361.44L111.18,356.96L112.32,357.55L113.45,357.78L114.59,359.28L116.86,359.76L117.99,360.7L120.26,359.63L121.39,359.64L128.2,356.25L129.34,356.05L130.47,356.2L131.6,357.14L137.28,358.72L138.41,358.93L140.68,359.33L141.82,360.37L145.22,361.29L146.35,362.6L150.89,365.37L152.03,365.22L153.16,365.04L154.29,363.55L155.43,362.66L156.56,362.99L165.64,362.46L166.77,363.54L169.04,363.72L170.18,365.09L179.25,364.41L180.39,365.15L184.93,364.58L186.06,363.32L189.47,360.88L190.6,360.19L191.73,359L192.87,359.25L195.14,358.49L196.27,358.06L198.54,356.11L199.68,356.48L200.81,356.38L201.94,355.26L204.21,353.26L205.35,352.07L207.62,349.32L208.75,349.07L209.89,353L211.02,349.86L212.16,348.11L213.29,348.08L216.69,347.98L217.83,343.15L221.23,347.52L222.37,348.31L225.77,348.77L226.9,349.86L229.17,351.58L230.31,351.3L232.58,351.17L233.71,352.14L234.85,352.81L235.98,352.3L237.12,353.29L238.25,355.29L239.38,358.51L240.52,358.62L243.92,364.35L245.06,364.91L247.33,365.96L248.46,365.98L249.59,365.04L250.73,365.8L251.86,365.63L253,367.76L254.13,367.97L255.27,367.23L258.67,367.71L259.81,368.32L260.94,366.8L262.07,367.76L264.34,367.88L265.48,371.27L270.02,370.7L271.15,370.78L272.29,370.84L273.42,369.77L276.82,372.69L277.96,373.1L282.5,374.62L283.63,375L291.57,377L292.71,377.34L300.65,378.63L301.78,378.71L316.53,378.61L317.67,378.32L323.34,377.53L324.47,376.95L327.88,376.57L329.01,375.51L332.41,373.6L333.55,372.76L335.82,371.8L336.95,371.39L347.16,370.17L348.3,369.76L351.7,368.82L352.84,368.47L355.11,367.45L356.24,367.03L363.05,368.9L364.18,369.77L375.53,371.8L376.66,372.51L386.87,373.32L388.01,373.72L393.68,375.25L394.81,375.61L402.76,373.91L403.89,374.26L407.29,374.31L408.43,375.13L416.37,375.99L417.5,376.39L423.18,377.48L424.31,377.38L433.39,377.31L434.52,377.13L439.06,377.18L440.19,377.06L443.6,377.03L444.73,376.92L448.14,377.2L449.27,376.45L452.67,375.2L453.81,374.31L454.94,374.11L456.08,372.64L459.48,373.14L460.62,372.15L464.02,370.61L465.15,369.1L468.56,364.16L469.69,363.19L470.83,363.34L471.96,361.18L478.77,351.25L479.9,347.39L485.58,334.32L486.71,334.08L488.98,330.53L490.11,331.25L492.38,332.77L493.52,333.37L495.79,333.28L496.92,331.9L499.19,327.23L500.32,324.16L501.46,321.65L502.59,321.37L507.13,291.63L508.27,282.69L509.4,287.94L510.53,286.04L516.21,201.1L517.34,199.01L518.48,197.27L519.61,172.3L521.88,150.99L523.01,152.47L524.15,151.02L525.28,130.75L526.42,128.47L527.55,139.06L528.69,144.55L529.82,145.41L534.36,137.94L535.49,124.05L538.9,85.48L540.03,69.58L542.3,52.29L543.44,26.51L545.71,3L546.84,0L549.11,2.56L550.24,1.35L558.18,86.97L559.32,114.73L564.99,199.7L566.13,203.82L568.4,246.78L569.53,261.82L571.8,280.33L572.93,285.86L574.07,287.74L575.2,297.06L579.74,317.17L580.88,320.38L582.01,321.32L583.14,325.28L585.41,328.29L586.55,329.54L588.82,331.63L589.95,331.16L592.22,329.18L593.35,327.64L596.76,320.58L597.89,320.71L604.7,289.09L605.83,287.38L608.1,260.12L609.24,252.35L611.51,232.92L612.64,228.6L613.78,228.93L614.91,222.81L617.18,213.09L618.31,212.24L620.58,214.6L621.72,214.45L622.85,213.74L623.99,214.89L626.26,210.04L627.39,203.96L628.53,199.88L629.66,199.3L630.79,195.31L631.93,196.04L634.2,198.92L635.33,204.86L636.47,208.67L637.6,209.14L638.74,249.75L639.87,247.03L644.41,280.63L645.54,282.23L646.68,267.37L647.81,287.28L651.22,311.34L652.35,314.36L653.48,315.3L654.62,322.91L658.02,333.84L659.16,336.07L660.29,338.45L661.43,338.74L664.83,344.06L665.96,345.09L668.23,346.61L669.37,346.68L675.04,355.37L676.18,356.54L677.31,356.82L678.44,359.97L680.71,362.94" style="vector-effect: non-scaling-stroke; fill: none; stroke: rgb(8, 115, 191); stroke-opacity: 1; stroke-width: 0.5px; opacity: 1;"/></g><g class="points"/><g class="text"/></g><g class="trace scatter traceeda48d" style="stroke-miterlimit: 2;"><g class="fills"><g><path class="js-fill" d="M692.06,380L680.71,380L680.71,362.94L681.85,365.47L682.98,365.24L685.25,365.17L686.39,364.38L688.65,362.93L689.79,360.32L692.06,360.29" style="fill: rgb(8, 115, 191); fill-opacity: 0.4; stroke-width: 0;"/></g></g><g class="errorbars"/><g class="lines"><path class="js-line" d="M680.71,362.94L681.85,365.47L682.98,365.24L685.25,365.17L686.39,364.38L688.65,362.93L689.79,360.32L692.06,360.29" style="vector-effect: non-scaling-stroke; fill: none; stroke: rgb(8, 115, 191); stroke-opacity: 1; stroke-width: 2px; opacity: 1;"/></g><g class="points"/><g class="text"/></g><g class="trace scatter trace37e298" style="stroke-miterlimit: 2; opacity: 1;"><g class="fills"/><g class="errorbars"/><g class="lines"/><g class="points"><path class="point" transform="translate(692.06,360.29)" d="M15,0A15,15 0 1,1 0,-15A15,15 0 0,1 15,0Z" style="opacity: 1; stroke-width: 0px; fill: rgb(8, 115, 191); fill-opacity: 1;"/></g><g class="text"/></g></g></g><g class="overplot"/><path class="xlines-above crisp" style="fill: none; stroke-width: 1px; stroke: rgb(0, 0, 0); stroke-opacity: 0;" d=""/><path class="ylines-above crisp" style="fill: none;" d="M0,0"/><g class="overlines-above"/><g class="xaxislayer-above"><path class="xtick ticks crisp" d="M0,450v-5" transform="translate(52.27,0)" style="stroke: rgb(68, 68, 68); stroke-opacity: 1; stroke-width: 1px;"/><path class="xtick ticks crisp" d="M0,450v-5" transform="translate(156.65,0)" style="stroke: rgb(68, 68, 68); stroke-opacity: 1; stroke-width: 1px;"/><path class="xtick ticks crisp" d="M0,450v-5" transform="translate(258.75,0)" style="stroke: rgb(68, 68, 68); stroke-opacity: 1; stroke-width: 1px;"/><path class="xtick ticks crisp" d="M0,450v-5" transform="translate(361.99,0)" style="stroke: rgb(68, 68, 68); stroke-opacity: 1; stroke-width: 1px;"/><path class="xtick ticks crisp" d="M0,450v-5" transform="translate(466.37,0)" style="stroke: rgb(68, 68, 68); stroke-opacity: 1; stroke-width: 1px;"/><path class="xtick ticks crisp" d="M0,450v-5" transform="translate(570.75,0)" style="stroke: rgb(68, 68, 68); stroke-opacity: 1; stroke-width: 1px;"/><path class="xtick ticks crisp" d="M0,450v-5" transform="translate(672.85,0)" style="stroke: rgb(68, 68, 68); stroke-opacity: 1; stroke-width: 1px;"/><g class="xtick"><text text-anchor="middle" x="0" y="469" transform="translate(52.27,0)" style="font-family: 'Open Sans', verdana, arial, sans-serif; font-size: 18px; fill: rgb(42, 63, 95); fill-opacity: 1; white-space: pre;">01/10</text></g><g class="xtick"><text text-anchor="middle" x="0" y="469" transform="translate(156.65,0)" style="font-family: 'Open Sans', verdana, arial, sans-serif; font-size: 18px; fill: rgb(42, 63, 95); fill-opacity: 1; white-space: pre;">01/01</text></g><g class="xtick"><text text-anchor="middle" x="0" y="469" transform="translate(258.75,0)" style="font-family: 'Open Sans', verdana, arial, sans-serif; font-size: 18px; fill: rgb(42, 63, 95); fill-opacity: 1; white-space: pre;">01/04</text></g><g class="xtick"><text text-anchor="middle" x="0" y="469" transform="translate(361.99,0)" style="font-family: 'Open Sans', verdana, arial, sans-serif; font-size: 18px; fill: rgb(42, 63, 95); fill-opacity: 1; white-space: pre;">01/07</text></g><g class="xtick"><text text-anchor="middle" x="0" y="469" transform="translate(466.37,0)" style="font-family: 'Open Sans', verdana, arial, sans-serif; font-size: 18px; fill: rgb(42, 63, 95); fill-opacity: 1; white-space: pre;">01/10</text></g><g class="xtick"><text text-anchor="middle" x="0" y="469" transform="translate(570.75,0)" style="font-family: 'Open Sans', verdana, arial, sans-serif; font-size: 18px; fill: rgb(42, 63, 95); fill-opacity: 1; white-space: pre;">01/01</text></g><g class="xtick"><text text-anchor="middle" x="0" y="469" transform="translate(672.85,0)" style="font-family: 'Open Sans', verdana, arial, sans-serif; font-size: 18px; fill: rgb(42, 63, 95); fill-opacity: 1; white-space: pre;">01/04</text></g></g><g class="yaxislayer-above"/><g class="overaxes-above"/></g></g><g class="polarlayer"/><g class="ternarylayer"/><g class="geolayer"/><g class="funnelarealayer"/><g class="pielayer"/><g class="treemaplayer"/><g class="sunburstlayer"/><g class="glimages"/><defs id="topdefs-8f51ef"><g class="clips"/></defs><g class="layer-above"><g class="imagelayer"/><g class="shapelayer"><path data-index="0" fill-rule="evenodd" d="M-587.6,444.55L241.73,444.55" clip-path="url('#clip8f51efxy')" style="opacity: 1; stroke: rgb(255, 0, 0); stroke-opacity: 1; fill: rgb(0, 0, 0); fill-opacity: 0; stroke-dasharray: 3px, 3px; stroke-width: 1.5px;"/></g></g><g class="infolayer"><g class="g-gtitle"><text class="gtitle" x="375" y="25" text-anchor="middle" dy="0.7em" style="font-family: 'Open Sans', verdana, arial, sans-serif; font-size: 50px; fill: rgb(42, 63, 95); opacity: 1; font-weight: normal; white-space: pre;"><tspan style="font-weight:bold">Puy-de-Dôme (63)</tspan></text></g><g class="g-xtitle"/><g class="annotation" data-index="0" style="opacity: 1;"><g class="annotation-text-g" transform="rotate(0,700.06,370.29)"><g class="cursor-pointer" transform="translate(642, 334)"><rect class="bg" x="0.5" y="0.5" width="115" height="71" style="stroke-width: 1px; stroke: rgb(0, 0, 0); stroke-opacity: 0; fill: rgb(255, 255, 255); fill-opacity: 0.6;"/><text class="annotation-text" text-anchor="middle" x="57.8125" y="55.5" style="font-family: 'Open Sans', verdana, arial, sans-serif; font-size: 50px; fill: rgb(8, 115, 191); fill-opacity: 1; white-space: pre;"> <tspan style="font-weight:bold">180 </tspan></text></g></g><g class="annotation-arrow-g" style="opacity: 1;"><path d="M728.4599999999999,405.79L740.06,420.29" style="stroke-width: 1px; stroke: rgb(8, 115, 191); stroke-opacity: 1; stroke-dasharray: 0px, 0px, 18.569px, 18.569px;"/></g></g></g></svg>