<svg class="main-svg" xmlns="http://www.w3.org/2000/svg" xmlns:xlink="http://www.w3.org/1999/xlink" width="1125" height="750" style="" viewBox="0 0 750 500"><rect x="0" y="0" width="750" height="500" style="fill: rgb(0, 0, 0); fill-opacity: 0;"/><defs id="defs-c26e91"><g class="clips"><clipPath id="clipc26e91xyplot" class="plotclip"><rect width="700" height="380"/></clipPath><clipPath class="axesclip" id="clipc26e91x"><rect x="50" y="0" width="700" height="500"/></clipPath><clipPath class="axesclip" id="clipc26e91y"><rect x="0" y="70" width="750" height="380"/></clipPath><clipPath class="axesclip" id="clipc26e91xy"><rect x="50" y="70" width="700" height="380"/></clipPath></g><g class="gradients"/></defs><g class="bglayer"><rect class="bg" x="50" y="70" width="700" height="380" style="fill: rgb(0, 0, 0); fill-opacity: 0; stroke-width: 0;"/></g><g class="layer-below"><g class="imagelayer"/><g class="shapelayer"/></g><g class="cartesianlayer"><g class="subplot xy"><g class="layer-subplot"><g class="shapelayer"/><g class="imagelayer"/></g><g class="gridlayer"><g class="x"><path class="xgrid crisp" transform="translate(102.03,0)" d="M0,70v380" style="stroke: rgb(255, 255, 255); stroke-opacity: 1; stroke-width: 1px;"/><path class="xgrid crisp" transform="translate(198.2,0)" d="M0,70v380" style="stroke: rgb(255, 255, 255); stroke-opacity: 1; stroke-width: 1px;"/><path class="xgrid crisp" transform="translate(291.22,0)" d="M0,70v380" style="stroke: rgb(255, 255, 255); stroke-opacity: 1; stroke-width: 1px;"/><path class="xgrid crisp" transform="translate(387.39,0)" d="M0,70v380" style="stroke: rgb(255, 255, 255); stroke-opacity: 1; stroke-width: 1px;"/><path class="xgrid crisp" transform="translate(483.56,0)" d="M0,70v380" style="stroke: rgb(255, 255, 255); stroke-opacity: 1; stroke-width: 1px;"/><path class="xgrid crisp" transform="translate(581.31,0)" d="M0,70v380" style="stroke: rgb(255, 255, 255); stroke-opacity: 1; stroke-width: 1px;"/><path class="xgrid crisp" transform="translate(677.48,0)" d="M0,70v380" style="stroke: rgb(255, 255, 255); stroke-opacity: 1; stroke-width: 1px;"/></g><g class="y"/></g><g class="zerolinelayer"/><path class="xlines-below"/><path class="ylines-below"/><g class="overlines-below"/><g class="xaxislayer-below"/><g class="yaxislayer-below"/><g class="overaxes-below"/><g class="plot" transform="translate(50, 70)" clip-path="url('#clipc26e91xyplot')"><g class="scatterlayer mlayer"><g class="trace scatter trace690c87" style="stroke-miterlimit: 2;"><g class="fills"><g><path class="js-fill" d="M673.2,380L-214.41,380L-214.41,376.34L-195.5,377.95L-193.92,378.27L-132.43,377.32L-130.86,377.21L-108.78,376.13L-107.21,375.7L-99.32,375.87L-97.75,376.24L-93.02,376.11L-91.44,375.7L-85.14,374.74L-83.56,373.71L-74.1,367.91L-72.52,364.99L-67.79,357.83L-66.22,354.72L-61.49,351.84L-59.91,348.99L-55.18,343.49L-53.6,342.22L-52.03,342.02L-50.45,337.54L-44.14,323.98L-42.57,323.16L-40.99,323.46L-39.41,320.09L-34.68,307.61L-33.11,306.01L-25.23,299.65L-23.65,296.65L-22.07,294.74L-20.5,294.81L-18.92,294.72L-17.34,291.28L-15.77,288.56L-14.19,290.07L-12.61,290.18L-11.04,289.16L-7.88,290.55L-6.31,294.2L-4.73,297.94L-3.15,297.1L-1.58,297.84L0,295.15L3.15,294.29L4.73,284.95L9.46,253.82L11.04,240.85L12.61,236.93L14.19,236.02L22.07,154.77L23.65,149.4L25.23,148.6L26.8,128.82L34.68,42.54L36.26,41.14L39.41,12.11L40.99,10.49L42.57,13.69L44.14,12.13L45.72,11.01L47.3,10.88L50.45,1.99L52.03,0L53.6,5.8L55.18,15.77L56.76,25.59L58.33,26.6L61.49,95.16L63.06,153.82L66.22,206.33L67.79,215.95L69.37,217.25L70.95,243.66L72.52,257.39L74.1,246.47L77.25,279.19L78.83,283.97L80.41,284.99L81.98,299.76L83.56,308.09L85.14,312.05L86.71,314.68L88.29,315.27L100.9,313.84L102.48,313.49L105.63,311.42L107.21,310.99L111.94,309.15L113.51,309.69L119.82,299.78L121.4,293.27L124.55,282.76L126.13,283.06L127.7,284.17L129.28,283.39L130.86,288.95L132.43,307.2L135.59,317.5L137.16,318.6L138.74,315.72L140.32,316.85L141.89,314.88L143.47,314.97L146.62,314.6L148.2,307.5L151.35,305.92L152.93,303.39L154.5,290.53L156.08,290.83L157.66,290.83L159.23,296.15L160.81,298.25L162.39,298.51L163.96,299L165.54,297.77L168.69,296.69L170.27,293.96L176.58,289.64L178.15,289.66L179.73,289.7L181.31,288.15L182.88,289.06L184.46,289.03L186.04,289.03L187.61,290.18L189.19,291.15L190.77,291.17L192.34,291.76L193.92,290.76L195.5,289.53L197.07,289.77L198.65,289.53L200.23,287.5L201.8,287.82L203.38,290.42L211.26,302.62L212.84,302.31L214.41,303.98L215.99,303.61L217.57,301.17L219.14,300.26L222.3,296.17L223.87,295.87L227.03,291.65L228.6,291.15L230.18,290.46L231.76,291.46L236.49,292.54L238.06,294.12L239.64,295.37L241.22,294.59L242.79,294.55L244.37,293.34L245.95,293.23L247.52,291.78L249.1,289.66L250.68,285.68L252.25,282.48L253.83,276.88L255.41,274.2L256.98,273.18L264.86,240.72L266.44,235.72L268.02,234.79L269.59,224.6L274.32,199.54L275.9,194.37L277.48,192.1L279.05,192.25L282.21,179.86L283.78,179.16L288.51,175.25L290.09,175.51L291.67,212.19L293.24,204.73L294.82,205.51L296.4,210.27L299.55,218.2L301.13,218.18L302.7,190.35L304.28,206.93L307.43,219.41L309.01,222.83L310.59,224.22L312.16,224.32L315.32,233.56L316.89,235.61L320.05,241.54L321.62,243.94L323.2,244.85L324.77,248.61L326.35,250.49L327.93,255.64L329.5,259.12L331.08,264.9L332.66,274.52L334.23,274.98L338.96,293.53L340.54,298.25L342.12,301.21L343.69,301.64L345.27,301.71L346.85,305.9L350,310.12L351.58,319.83L353.15,322.38L354.73,319.72L361.04,320.48L362.61,314.04L364.19,317.02L365.77,317.19L367.34,317.93L368.92,331.68L370.5,330.82L372.07,332.16L373.65,332.81L375.23,334.47L376.8,336.64L378.38,336.74L379.95,330.84L381.53,337.22L386.26,346.43L387.84,347.54L389.41,347.86L390.99,350.63L395.72,356.62L397.3,358.48L400.45,359.95L402.03,362.57L403.6,365.03L405.18,365.81L408.33,367.52L409.91,368.1L411.49,368.15L413.06,369.19L414.64,369.03L416.22,369.73L425.68,370.4L427.25,370.25L435.14,369.42L436.71,368.9L444.59,364.25L446.17,360.88L447.75,355.73L449.32,356.64L452.48,340.62L454.05,335.43L455.63,333.52L457.21,316.74L458.78,304.19L460.36,284.51L461.94,278.67L463.51,269.5L465.09,265.48L466.67,264.68L469.82,253.72L471.4,252.89L472.97,249.58L474.55,250.25L477.7,249.71L479.28,253L480.86,255.86L482.43,256.44L484.01,258.24L485.59,257.05L487.16,258.17L488.74,257.8L491.89,252.29L493.47,252.63L496.62,253.54L498.2,252.7L499.77,251.44L501.35,255.34L502.93,258.43L504.5,263.21L507.66,267.86L509.23,269.37L512.39,273.96L513.96,278.37L515.54,280.12L517.12,283.52L520.27,292.19L521.85,292.8L523.42,299.39L525,302.27L526.58,305.45L528.15,306.05L529.73,308.04L531.31,308.11L532.88,308.69L534.46,313.84L540.77,330L542.34,332.64L543.92,333.26L545.5,336.98L550.23,344.55L551.8,345.63L554.95,346.89L556.53,348.9L559.68,351.62L561.26,352.14L564.41,354.87L565.99,355.02L573.87,355.97L575.45,356.38L577.03,356.36L578.6,357.85L581.76,358.61L583.33,359.09L589.64,359.97L591.22,359.63L592.79,359.76L594.37,358.07L602.25,358.5L603.83,358.29L605.41,359.56L606.98,358.65L614.86,358.42L616.44,358.24L619.59,357.1L621.17,356.38L622.75,359.97L624.32,356.12L630.63,350.11L632.21,349.74L633.78,341.55L635.36,340.92L636.94,337.74L638.51,340.75L640.09,335.01L641.67,333.26L643.24,332.68L644.82,325.24L647.97,308.76L649.55,294.27L652.7,280.9L654.28,279.17L662.16,208.04L663.74,199.19L665.32,197.83L666.89,174.93L673.2,118.69" style="fill: rgb(8, 115, 191); fill-opacity: 0.2; stroke-width: 0;"/></g></g><g class="errorbars"/><g class="lines"><path class="js-line" d="M-214.41,376.34L-195.5,377.95L-193.92,378.27L-132.43,377.32L-130.86,377.21L-108.78,376.13L-107.21,375.7L-99.32,375.87L-97.75,376.24L-93.02,376.11L-91.44,375.7L-85.14,374.74L-83.56,373.71L-74.1,367.91L-72.52,364.99L-67.79,357.83L-66.22,354.72L-61.49,351.84L-59.91,348.99L-55.18,343.49L-53.6,342.22L-52.03,342.02L-50.45,337.54L-44.14,323.98L-42.57,323.16L-40.99,323.46L-39.41,320.09L-34.68,307.61L-33.11,306.01L-25.23,299.65L-23.65,296.65L-22.07,294.74L-20.5,294.81L-18.92,294.72L-17.34,291.28L-15.77,288.56L-14.19,290.07L-12.61,290.18L-11.04,289.16L-7.88,290.55L-6.31,294.2L-4.73,297.94L-3.15,297.1L-1.58,297.84L0,295.15L3.15,294.29L4.73,284.95L9.46,253.82L11.04,240.85L12.61,236.93L14.19,236.02L22.07,154.77L23.65,149.4L25.23,148.6L26.8,128.82L34.68,42.54L36.26,41.14L39.41,12.11L40.99,10.49L42.57,13.69L44.14,12.13L45.72,11.01L47.3,10.88L50.45,1.99L52.03,0L53.6,5.8L55.18,15.77L56.76,25.59L58.33,26.6L61.49,95.16L63.06,153.82L66.22,206.33L67.79,215.95L69.37,217.25L70.95,243.66L72.52,257.39L74.1,246.47L77.25,279.19L78.83,283.97L80.41,284.99L81.98,299.76L83.56,308.09L85.14,312.05L86.71,314.68L88.29,315.27L100.9,313.84L102.48,313.49L105.63,311.42L107.21,310.99L111.94,309.15L113.51,309.69L119.82,299.78L121.4,293.27L124.55,282.76L126.13,283.06L127.7,284.17L129.28,283.39L130.86,288.95L132.43,307.2L135.59,317.5L137.16,318.6L138.74,315.72L140.32,316.85L141.89,314.88L143.47,314.97L146.62,314.6L148.2,307.5L151.35,305.92L152.93,303.39L154.5,290.53L156.08,290.83L157.66,290.83L159.23,296.15L160.81,298.25L162.39,298.51L163.96,299L165.54,297.77L168.69,296.69L170.27,293.96L176.58,289.64L178.15,289.66L179.73,289.7L181.31,288.15L182.88,289.06L184.46,289.03L186.04,289.03L187.61,290.18L189.19,291.15L190.77,291.17L192.34,291.76L193.92,290.76L195.5,289.53L197.07,289.77L198.65,289.53L200.23,287.5L201.8,287.82L203.38,290.42L211.26,302.62L212.84,302.31L214.41,303.98L215.99,303.61L217.57,301.17L219.14,300.26L222.3,296.17L223.87,295.87L227.03,291.65L228.6,291.15L230.18,290.46L231.76,291.46L236.49,292.54L238.06,294.12L239.64,295.37L241.22,294.59L242.79,294.55L244.37,293.34L245.95,293.23L247.52,291.78L249.1,289.66L250.68,285.68L252.25,282.48L253.83,276.88L255.41,274.2L256.98,273.18L264.86,240.72L266.44,235.72L268.02,234.79L269.59,224.6L274.32,199.54L275.9,194.37L277.48,192.1L279.05,192.25L282.21,179.86L283.78,179.16L288.51,175.25L290.09,175.51L291.67,212.19L293.24,204.73L294.82,205.51L296.4,210.27L299.55,218.2L301.13,218.18L302.7,190.35L304.28,206.93L307.43,219.41L309.01,222.83L310.59,224.22L312.16,224.32L315.32,233.56L316.89,235.61L320.05,241.54L321.62,243.94L323.2,244.85L324.77,248.61L326.35,250.49L327.93,255.64L329.5,259.12L331.08,264.9L332.66,274.52L334.23,274.98L338.96,293.53L340.54,298.25L342.12,301.21L343.69,301.64L345.27,301.71L346.85,305.9L350,310.12L351.58,319.83L353.15,322.38L354.73,319.72L361.04,320.48L362.61,314.04L364.19,317.02L365.77,317.19L367.34,317.93L368.92,331.68L370.5,330.82L372.07,332.16L373.65,332.81L375.23,334.47L376.8,336.64L378.38,336.74L379.95,330.84L381.53,337.22L386.26,346.43L387.84,347.54L389.41,347.86L390.99,350.63L395.72,356.62L397.3,358.48L400.45,359.95L402.03,362.57L403.6,365.03L405.18,365.81L408.33,367.52L409.91,368.1L411.49,368.15L413.06,369.19L414.64,369.03L416.22,369.73L425.68,370.4L427.25,370.25L435.14,369.42L436.71,368.9L444.59,364.25L446.17,360.88L447.75,355.73L449.32,356.64L452.48,340.62L454.05,335.43L455.63,333.52L457.21,316.74L458.78,304.19L460.36,284.51L461.94,278.67L463.51,269.5L465.09,265.48L466.67,264.68L469.82,253.72L471.4,252.89L472.97,249.58L474.55,250.25L477.7,249.71L479.28,253L480.86,255.86L482.43,256.44L484.01,258.24L485.59,257.05L487.16,258.17L488.74,257.8L491.89,252.29L493.47,252.63L496.62,253.54L498.2,252.7L499.77,251.44L501.35,255.34L502.93,258.43L504.5,263.21L507.66,267.86L509.23,269.37L512.39,273.96L513.96,278.37L515.54,280.12L517.12,283.52L520.27,292.19L521.85,292.8L523.42,299.39L525,302.27L526.58,305.45L528.15,306.05L529.73,308.04L531.31,308.11L532.88,308.69L534.46,313.84L540.77,330L542.34,332.64L543.92,333.26L545.5,336.98L550.23,344.55L551.8,345.63L554.95,346.89L556.53,348.9L559.68,351.62L561.26,352.14L564.41,354.87L565.99,355.02L573.87,355.97L575.45,356.38L577.03,356.36L578.6,357.85L581.76,358.61L583.33,359.09L589.64,359.97L591.22,359.63L592.79,359.76L594.37,358.07L602.25,358.5L603.83,358.29L605.41,359.56L606.98,358.65L614.86,358.42L616.44,358.24L619.59,357.1L621.17,356.38L622.75,359.97L624.32,356.12L630.63,350.11L632.21,349.74L633.78,341.55L635.36,340.92L636.94,337.74L638.51,340.75L640.09,335.01L641.67,333.26L643.24,332.68L644.82,325.24L647.97,308.76L649.55,294.27L652.7,280.9L654.28,279.17L662.16,208.04L663.74,199.19L665.32,197.83L666.89,174.93L673.2,118.69" style="vector-effect: non-scaling-stroke; fill: none; stroke: rgb(8, 115, 191); stroke-opacity: 1; stroke-width: 0.5px; opacity: 1;"/></g><g class="points"/><g class="text"/></g><g class="trace scatter trace048c6b" style="stroke-miterlimit: 2;"><g class="fills"><g><path class="js-fill" d="M688.96,380L673.2,380L673.2,118.69L674.77,111.02L676.35,109.52L679.5,86.99L681.08,78.62L682.66,81.34L684.23,82.29L685.81,84.61L687.39,85.17L688.96,87.64" style="fill: rgb(8, 115, 191); fill-opacity: 0.4; stroke-width: 0;"/></g></g><g class="errorbars"/><g class="lines"><path class="js-line" d="M673.2,118.69L674.77,111.02L676.35,109.52L679.5,86.99L681.08,78.62L682.66,81.34L684.23,82.29L685.81,84.61L687.39,85.17L688.96,87.64" style="vector-effect: non-scaling-stroke; fill: none; stroke: rgb(8, 115, 191); stroke-opacity: 1; stroke-width: 2px; opacity: 1;"/></g><g class="points"/><g class="text"/></g><g class="trace scatter trace905686" style="stroke-miterlimit: 2; opacity: 1;"><g class="fills"/><g class="errorbars"/><g class="lines"/><g class="points"><path class="point" transform="translate(688.96,87.64)" d="M15,0A15,15 0 1,1 0,-15A15,15 0 0,1 15,0Z" style="opacity: 1; stroke-width: 0px; fill: rgb(8, 115, 191); fill-opacity: 1;"/></g><g class="text"/></g></g></g><g class="overplot"/><path class="xlines-above crisp" style="fill: none; stroke-width: 1px; stroke: rgb(0, 0, 0); stroke-opacity: 0;" d=""/><path class="ylines-above crisp" style="fill: none;" d="M0,0"/><g class="overlines-above"/><g class="xaxislayer-above"><path class="xtick ticks crisp" d="M0,450v-5" transform="translate(102.03,0)" style="stroke: rgb(68, 68, 68); stroke-opacity: 1; stroke-width: 1px;"/><path class="xtick ticks crisp" d="M0,450v-5" transform="translate(198.2,0)" style="stroke: rgb(68, 68, 68); stroke-opacity: 1; stroke-width: 1px;"/><path class="xtick ticks crisp" d="M0,450v-5" transform="translate(291.22,0)" style="stroke: rgb(68, 68, 68); stroke-opacity: 1; stroke-width: 1px;"/><path class="xtick ticks crisp" d="M0,450v-5" transform="translate(387.39,0)" style="stroke: rgb(68, 68, 68); stroke-opacity: 1; stroke-width: 1px;"/><path class="xtick ticks crisp" d="M0,450v-5" transform="translate(483.56,0)" style="stroke: rgb(68, 68, 68); stroke-opacity: 1; stroke-width: 1px;"/><path class="xtick ticks crisp" d="M0,450v-5" transform="translate(581.31,0)" style="stroke: rgb(68, 68, 68); stroke-opacity: 1; stroke-width: 1px;"/><path class="xtick ticks crisp" d="M0,450v-5" transform="translate(677.48,0)" style="stroke: rgb(68, 68, 68); stroke-opacity: 1; stroke-width: 1px;"/><g class="xtick"><text text-anchor="middle" x="0" y="469" transform="translate(102.03,0)" style="font-family: 'Open Sans', verdana, arial, sans-serif; font-size: 18px; fill: rgb(42, 63, 95); fill-opacity: 1; white-space: pre;">01/11</text></g><g class="xtick"><text text-anchor="middle" x="0" y="469" transform="translate(198.2,0)" style="font-family: 'Open Sans', verdana, arial, sans-serif; font-size: 18px; fill: rgb(42, 63, 95); fill-opacity: 1; white-space: pre;">01/01</text></g><g class="xtick"><text text-anchor="middle" x="0" y="469" transform="translate(291.22,0)" style="font-family: 'Open Sans', verdana, arial, sans-serif; font-size: 18px; fill: rgb(42, 63, 95); fill-opacity: 1; white-space: pre;">01/03</text></g><g class="xtick"><text text-anchor="middle" x="0" y="469" transform="translate(387.39,0)" style="font-family: 'Open Sans', verdana, arial, sans-serif; font-size: 18px; fill: rgb(42, 63, 95); fill-opacity: 1; white-space: pre;">01/05</text></g><g class="xtick"><text text-anchor="middle" x="0" y="469" transform="translate(483.56,0)" style="font-family: 'Open Sans', verdana, arial, sans-serif; font-size: 18px; fill: rgb(42, 63, 95); fill-opacity: 1; white-space: pre;">01/07</text></g><g class="xtick"><text text-anchor="middle" x="0" y="469" transform="translate(581.31,0)" style="font-family: 'Open Sans', verdana, arial, sans-serif; font-size: 18px; fill: rgb(42, 63, 95); fill-opacity: 1; white-space: pre;">01/09</text></g><g class="xtick"><text text-anchor="middle" x="0" y="469" transform="translate(677.48,0)" style="font-family: 'Open Sans', verdana, arial, sans-serif; font-size: 18px; fill: rgb(42, 63, 95); fill-opacity: 1; white-space: pre;">01/11</text></g></g><g class="yaxislayer-above"/><g class="overaxes-above"/></g></g><g class="polarlayer"/><g class="ternarylayer"/><g class="geolayer"/><g class="funnelarealayer"/><g class="pielayer"/><g class="treemaplayer"/><g class="sunburstlayer"/><g class="glimages"/><defs id="topdefs-c26e91"><g class="clips"/></defs><g class="layer-above"><g class="imagelayer"/><g class="shapelayer"><path data-index="0" fill-rule="evenodd" d="M-836.04,429.71L316.44,429.71" clip-path="url('#clipc26e91xy')" style="opacity: 1; stroke: rgb(255, 0, 0); stroke-opacity: 1; fill: rgb(0, 0, 0); fill-opacity: 0; stroke-dasharray: 3px, 3px; stroke-width: 1.5px;"/></g></g><g class="infolayer"><g class="g-gtitle"><text class="gtitle" x="375" y="25" text-anchor="middle" dy="0.7em" style="font-family: 'Open Sans', verdana, arial, sans-serif; font-size: 50px; fill: rgb(42, 63, 95); opacity: 1; font-weight: normal; white-space: pre;"><tspan style="font-weight:bold">Rhône (69)</tspan></text></g><g class="g-xtitle"/><g class="annotation" data-index="0" style="opacity: 1;"><g class="annotation-text-g" transform="rotate(0,696.96,97.63999999999999)"><g class="cursor-pointer" transform="translate(639, 62)"><rect class="bg" x="0.5" y="0.5" width="115" height="71" style="stroke-width: 1px; stroke: rgb(0, 0, 0); stroke-opacity: 0; fill: rgb(255, 255, 255); fill-opacity: 0.6;"/><text class="annotation-text" text-anchor="middle" x="57.8125" y="55.5" style="font-family: 'Open Sans', verdana, arial, sans-serif; font-size: 50px; fill: rgb(8, 115, 191); fill-opacity: 1; white-space: pre;"> <tspan style="font-weight:bold">720 </tspan></text></g></g><g class="annotation-arrow-g" style="opacity: 1;"><path d="M725.36,133.14L736.96,147.64" style="stroke-width: 1px; stroke: rgb(8, 115, 191); stroke-opacity: 1; stroke-dasharray: 0px, 0px, 18.5691px, 18.5691px;"/></g></g></g></svg>