<svg class="main-svg" xmlns="http://www.w3.org/2000/svg" xmlns:xlink="http://www.w3.org/1999/xlink" width="1125" height="750" style="" viewBox="0 0 750 500"><rect x="0" y="0" width="750" height="500" style="fill: rgb(0, 0, 0); fill-opacity: 0;"/><defs id="defs-fab26c"><g class="clips"><clipPath id="clipfab26cxyplot" class="plotclip"><rect width="693" height="380"/></clipPath><clipPath class="axesclip" id="clipfab26cx"><rect x="50" y="0" width="693" height="500"/></clipPath><clipPath class="axesclip" id="clipfab26cy"><rect x="0" y="70" width="750" height="380"/></clipPath><clipPath class="axesclip" id="clipfab26cxy"><rect x="50" y="70" width="693" height="380"/></clipPath></g><g class="gradients"/></defs><g class="bglayer"><rect class="bg" x="50" y="70" width="693" height="380" style="fill: rgb(0, 0, 0); fill-opacity: 0; stroke-width: 0;"/></g><g class="layer-below"><g class="imagelayer"/><g class="shapelayer"/></g><g class="cartesianlayer"><g class="subplot xy"><g class="layer-subplot"><g class="shapelayer"/><g class="imagelayer"/></g><g class="gridlayer"><g class="x"><path class="xgrid crisp" transform="translate(93.07,0)" d="M0,70v380" style="stroke: rgb(255, 255, 255); stroke-opacity: 1; stroke-width: 1px;"/><path class="xgrid crisp" transform="translate(172.68,0)" d="M0,70v380" style="stroke: rgb(255, 255, 255); stroke-opacity: 1; stroke-width: 1px;"/><path class="xgrid crisp" transform="translate(249.68,0)" d="M0,70v380" style="stroke: rgb(255, 255, 255); stroke-opacity: 1; stroke-width: 1px;"/><path class="xgrid crisp" transform="translate(329.29,0)" d="M0,70v380" style="stroke: rgb(255, 255, 255); stroke-opacity: 1; stroke-width: 1px;"/><path class="xgrid crisp" transform="translate(408.9,0)" d="M0,70v380" style="stroke: rgb(255, 255, 255); stroke-opacity: 1; stroke-width: 1px;"/><path class="xgrid crisp" transform="translate(489.81,0)" d="M0,70v380" style="stroke: rgb(255, 255, 255); stroke-opacity: 1; stroke-width: 1px;"/><path class="xgrid crisp" transform="translate(569.42,0)" d="M0,70v380" style="stroke: rgb(255, 255, 255); stroke-opacity: 1; stroke-width: 1px;"/><path class="xgrid crisp" transform="translate(649.03,0)" d="M0,70v380" style="stroke: rgb(255, 255, 255); stroke-opacity: 1; stroke-width: 1px;"/><path class="xgrid crisp" transform="translate(726.03,0)" d="M0,70v380" style="stroke: rgb(255, 255, 255); stroke-opacity: 1; stroke-width: 1px;"/></g><g class="y"/></g><g class="zerolinelayer"/><path class="xlines-below"/><path class="ylines-below"/><g class="overlines-below"/><g class="xaxislayer-below"/><g class="yaxislayer-below"/><g class="overaxes-below"/><g class="plot" transform="translate(50, 70)" clip-path="url('#clipfab26cxyplot')"><g class="scatterlayer mlayer"><g class="trace scatter trace8fcdea" style="stroke-miterlimit: 2;"><g class="fills"><g><path class="js-fill" d="M670.81,380L-177.49,380L-177.49,379.48L-142.25,379.93L-140.95,379.85L-74.39,379.36L-73.08,379.28L-46.98,377.64L-45.68,377.13L-30.02,374.3L-28.71,373.67L-24.8,373.45L-23.49,372.47L-18.27,371.7L-16.97,371.66L-14.36,371.88L-13.05,370.98L-6.53,370.6L-5.22,370.96L-2.61,372.33L-1.31,372.22L2.61,371.77L3.92,370.71L7.83,368.22L9.14,367.49L13.05,365.9L14.36,365.11L16.97,363.25L18.27,360.35L20.88,359.91L22.19,359.04L26.1,353.39L27.41,352.49L30.02,351.77L31.32,349.07L33.93,343.95L35.24,342.13L37.85,340.56L39.15,340.49L40.46,339.35L41.76,340.16L44.37,341.12L45.68,342.9L48.29,343.32L49.59,345.35L50.9,347.02L52.2,352.42L54.81,354.86L56.12,355.34L57.42,355.65L58.73,357.7L60.03,359.65L61.34,357.66L63.95,361.51L65.25,362.33L66.56,362.28L67.86,363.99L71.78,367.28L73.08,368.89L75.69,369.38L77,370.28L78.31,371.17L79.61,370.63L86.14,369.55L87.44,369.66L91.36,371.39L92.66,371.35L103.1,370.15L104.41,369.2L108.32,369.11L109.63,370.93L120.07,371.57L121.37,371.39L125.29,369.73L126.59,369.29L127.9,367.71L129.2,367.85L130.51,367.74L131.81,368.68L139.64,368.35L140.95,368.48L142.25,369.14L143.56,368.66L148.78,367.69L150.08,367.23L156.61,363.4L157.92,363.2L160.53,361.95L161.83,361.84L170.97,361.63L172.27,361.84L174.88,363.51L176.19,363.64L177.49,364.52L178.8,364.43L181.41,362.81L182.71,361.95L186.63,359.04L187.93,359.02L189.24,359.45L190.54,358.34L195.76,358.76L197.07,358.16L198.37,357.51L199.68,357.83L202.29,355.54L203.59,355.78L208.81,353.63L210.12,352.77L212.73,352.62L214.03,350.74L219.25,343.49L220.56,342.79L221.86,342.72L223.17,340.14L229.69,334.84L231,335.01L233.61,333.87L234.92,335.28L237.53,338.36L238.83,339L240.14,338.91L241.44,348.31L244.05,345.88L245.36,345.77L246.66,347.06L247.97,346.64L249.27,346.6L250.58,339.66L251.88,344.69L253.19,346.73L257.1,350.02L258.41,349.99L261.02,351L262.32,350.52L263.63,351.64L264.93,351.68L270.15,352.65L271.46,354.4L274.07,355.49L275.37,357.55L276.68,357.68L277.98,359.52L279.29,359.32L280.59,359.98L287.12,361.52L288.42,363.22L289.73,363.62L291.03,366.82L292.34,366.44L293.64,364.91L296.25,364.86L297.56,363.7L298.86,363.38L300.17,360.86L302.78,361.3L304.08,361.08L305.39,365.19L306.69,365.2L311.92,368.5L313.22,368.74L314.53,366.62L315.83,368.15L323.66,371.17L324.97,372.27L330.19,375.44L331.49,375.51L335.41,377.39L336.71,377.41L347.15,378.68L348.46,378.6L360.2,378.49L361.51,378.12L364.12,377.39L365.42,377.17L370.64,376.03L371.95,376.82L385,372.44L386.31,372.31L392.83,368.85L394.14,368.89L408.49,369.03L409.8,369.2L416.32,369.36L417.63,369L420.24,368.92L421.54,368.89L425.46,368.81L426.76,369.38L428.07,370.06L429.37,369.36L448.95,373.67L450.25,373.67L454.17,375.44L455.47,375.77L459.39,375.99L460.69,375.6L471.14,376.69L472.44,376.82L482.88,377.06L484.19,377.28L492.02,376.06L493.32,375.58L508.98,375.18L510.29,375.4L514.2,374.99L515.51,375.68L520.73,373.87L522.03,373.93L523.34,373.96L524.64,372.73L528.56,374.18L529.86,373.3L533.78,372.11L535.08,371.06L536.39,370.34L537.69,368.22L541.61,366.64L542.92,364.89L545.53,362.63L546.83,361.54L549.44,359.89L550.75,359.94L555.97,352.78L557.27,352.27L563.8,349.32L565.1,349.86L569.02,348.72L570.32,348.86L574.24,346.73L575.54,346.05L579.46,344.54L580.76,343.07L584.68,334.53L585.98,336.99L587.29,335.76L588.59,319.49L592.51,251.44L593.81,230.52L595.12,229.44L596.42,227.37L599.03,165.34L600.34,150.56L602.95,133.76L604.25,108.02L606.86,103.46L608.17,106.44L609.47,105.13L610.78,97.18L613.39,78.96L614.69,75.1L619.92,18.53L621.22,11.3L622.53,6.13L623.83,6.79L625.14,0L626.44,4.67L631.66,33.53L632.97,34.82L640.8,149.09L642.1,154.32L644.71,214.03L646.02,232.01L648.63,264.38L649.93,272.48L651.24,273.25L652.54,286.13L656.46,307.4L657.76,312.24L659.07,315.21L660.37,315.98L664.29,326.05L665.59,328.14L668.2,331.81L669.51,332.19L670.81,333.74" style="fill: rgb(8, 115, 191); fill-opacity: 0.2; stroke-width: 0;"/></g></g><g class="errorbars"/><g class="lines"><path class="js-line" d="M-177.49,379.48L-142.25,379.93L-140.95,379.85L-74.39,379.36L-73.08,379.28L-46.98,377.64L-45.68,377.13L-30.02,374.3L-28.71,373.67L-24.8,373.45L-23.49,372.47L-18.27,371.7L-16.97,371.66L-14.36,371.88L-13.05,370.98L-6.53,370.6L-5.22,370.96L-2.61,372.33L-1.31,372.22L2.61,371.77L3.92,370.71L7.83,368.22L9.14,367.49L13.05,365.9L14.36,365.11L16.97,363.25L18.27,360.35L20.88,359.91L22.19,359.04L26.1,353.39L27.41,352.49L30.02,351.77L31.32,349.07L33.93,343.95L35.24,342.13L37.85,340.56L39.15,340.49L40.46,339.35L41.76,340.16L44.37,341.12L45.68,342.9L48.29,343.32L49.59,345.35L50.9,347.02L52.2,352.42L54.81,354.86L56.12,355.34L57.42,355.65L58.73,357.7L60.03,359.65L61.34,357.66L63.95,361.51L65.25,362.33L66.56,362.28L67.86,363.99L71.78,367.28L73.08,368.89L75.69,369.38L77,370.28L78.31,371.17L79.61,370.63L86.14,369.55L87.44,369.66L91.36,371.39L92.66,371.35L103.1,370.15L104.41,369.2L108.32,369.11L109.63,370.93L120.07,371.57L121.37,371.39L125.29,369.73L126.59,369.29L127.9,367.71L129.2,367.85L130.51,367.74L131.81,368.68L139.64,368.35L140.95,368.48L142.25,369.14L143.56,368.66L148.78,367.69L150.08,367.23L156.61,363.4L157.92,363.2L160.53,361.95L161.83,361.84L170.97,361.63L172.27,361.84L174.88,363.51L176.19,363.64L177.49,364.52L178.8,364.43L181.41,362.81L182.71,361.95L186.63,359.04L187.93,359.02L189.24,359.45L190.54,358.34L195.76,358.76L197.07,358.16L198.37,357.51L199.68,357.83L202.29,355.54L203.59,355.78L208.81,353.63L210.12,352.77L212.73,352.62L214.03,350.74L219.25,343.49L220.56,342.79L221.86,342.72L223.17,340.14L229.69,334.84L231,335.01L233.61,333.87L234.92,335.28L237.53,338.36L238.83,339L240.14,338.91L241.44,348.31L244.05,345.88L245.36,345.77L246.66,347.06L247.97,346.64L249.27,346.6L250.58,339.66L251.88,344.69L253.19,346.73L257.1,350.02L258.41,349.99L261.02,351L262.32,350.52L263.63,351.64L264.93,351.68L270.15,352.65L271.46,354.4L274.07,355.49L275.37,357.55L276.68,357.68L277.98,359.52L279.29,359.32L280.59,359.98L287.12,361.52L288.42,363.22L289.73,363.62L291.03,366.82L292.34,366.44L293.64,364.91L296.25,364.86L297.56,363.7L298.86,363.38L300.17,360.86L302.78,361.3L304.08,361.08L305.39,365.19L306.69,365.2L311.92,368.5L313.22,368.74L314.53,366.62L315.83,368.15L323.66,371.17L324.97,372.27L330.19,375.44L331.49,375.51L335.41,377.39L336.71,377.41L347.15,378.68L348.46,378.6L360.2,378.49L361.51,378.12L364.12,377.39L365.42,377.17L370.64,376.03L371.95,376.82L385,372.44L386.31,372.31L392.83,368.85L394.14,368.89L408.49,369.03L409.8,369.2L416.32,369.36L417.63,369L420.24,368.92L421.54,368.89L425.46,368.81L426.76,369.38L428.07,370.06L429.37,369.36L448.95,373.67L450.25,373.67L454.17,375.44L455.47,375.77L459.39,375.99L460.69,375.6L471.14,376.69L472.44,376.82L482.88,377.06L484.19,377.28L492.02,376.06L493.32,375.58L508.98,375.18L510.29,375.4L514.2,374.99L515.51,375.68L520.73,373.87L522.03,373.93L523.34,373.96L524.64,372.73L528.56,374.18L529.86,373.3L533.78,372.11L535.08,371.06L536.39,370.34L537.69,368.22L541.61,366.64L542.92,364.89L545.53,362.63L546.83,361.54L549.44,359.89L550.75,359.94L555.97,352.78L557.27,352.27L563.8,349.32L565.1,349.86L569.02,348.72L570.32,348.86L574.24,346.73L575.54,346.05L579.46,344.54L580.76,343.07L584.68,334.53L585.98,336.99L587.29,335.76L588.59,319.49L592.51,251.44L593.81,230.52L595.12,229.44L596.42,227.37L599.03,165.34L600.34,150.56L602.95,133.76L604.25,108.02L606.86,103.46L608.17,106.44L609.47,105.13L610.78,97.18L613.39,78.96L614.69,75.1L619.92,18.53L621.22,11.3L622.53,6.13L623.83,6.79L625.14,0L626.44,4.67L631.66,33.53L632.97,34.82L640.8,149.09L642.1,154.32L644.71,214.03L646.02,232.01L648.63,264.38L649.93,272.48L651.24,273.25L652.54,286.13L656.46,307.4L657.76,312.24L659.07,315.21L660.37,315.98L664.29,326.05L665.59,328.14L668.2,331.81L669.51,332.19L670.81,333.74" style="vector-effect: non-scaling-stroke; fill: none; stroke: rgb(8, 115, 191); stroke-opacity: 1; stroke-width: 0.5px; opacity: 1;"/></g><g class="points"/><g class="text"/></g><g class="trace scatter tracef41bed" style="stroke-miterlimit: 2;"><g class="fills"><g><path class="js-fill" d="M683.86,380L670.81,380L670.81,333.74L673.42,334.05L674.73,332.28L677.34,331.33L678.64,331.51L679.95,330.52L681.25,327.3L683.86,322.73" style="fill: rgb(8, 115, 191); fill-opacity: 0.4; stroke-width: 0;"/></g></g><g class="errorbars"/><g class="lines"><path class="js-line" d="M670.81,333.74L673.42,334.05L674.73,332.28L677.34,331.33L678.64,331.51L679.95,330.52L681.25,327.3L683.86,322.73" style="vector-effect: non-scaling-stroke; fill: none; stroke: rgb(8, 115, 191); stroke-opacity: 1; stroke-width: 2px; opacity: 1;"/></g><g class="points"/><g class="text"/></g><g class="trace scatter trace7f602e" style="stroke-miterlimit: 2; opacity: 1;"><g class="fills"/><g class="errorbars"/><g class="lines"/><g class="points"><path class="point" transform="translate(683.86,322.73)" d="M15,0A15,15 0 1,1 0,-15A15,15 0 0,1 15,0Z" style="opacity: 1; stroke-width: 0px; fill: rgb(8, 115, 191); fill-opacity: 1;"/></g><g class="text"/></g></g></g><g class="overplot"/><path class="xlines-above crisp" style="fill: none; stroke-width: 1px; stroke: rgb(0, 0, 0); stroke-opacity: 0;" d=""/><path class="ylines-above crisp" style="fill: none;" d="M0,0"/><g class="overlines-above"/><g class="xaxislayer-above"><path class="xtick ticks crisp" d="M0,450v-5" transform="translate(93.07,0)" style="stroke: rgb(68, 68, 68); stroke-opacity: 1; stroke-width: 1px;"/><path class="xtick ticks crisp" d="M0,450v-5" transform="translate(172.68,0)" style="stroke: rgb(68, 68, 68); stroke-opacity: 1; stroke-width: 1px;"/><path class="xtick ticks crisp" d="M0,450v-5" transform="translate(249.68,0)" style="stroke: rgb(68, 68, 68); stroke-opacity: 1; stroke-width: 1px;"/><path class="xtick ticks crisp" d="M0,450v-5" transform="translate(329.29,0)" style="stroke: rgb(68, 68, 68); stroke-opacity: 1; stroke-width: 1px;"/><path class="xtick ticks crisp" d="M0,450v-5" transform="translate(408.9,0)" style="stroke: rgb(68, 68, 68); stroke-opacity: 1; stroke-width: 1px;"/><path class="xtick ticks crisp" d="M0,450v-5" transform="translate(489.81,0)" style="stroke: rgb(68, 68, 68); stroke-opacity: 1; stroke-width: 1px;"/><path class="xtick ticks crisp" d="M0,450v-5" transform="translate(569.42,0)" style="stroke: rgb(68, 68, 68); stroke-opacity: 1; stroke-width: 1px;"/><path class="xtick ticks crisp" d="M0,450v-5" transform="translate(649.03,0)" style="stroke: rgb(68, 68, 68); stroke-opacity: 1; stroke-width: 1px;"/><path class="xtick ticks crisp" d="M0,450v-5" transform="translate(726.03,0)" style="stroke: rgb(68, 68, 68); stroke-opacity: 1; stroke-width: 1px;"/><g class="xtick"><text text-anchor="middle" x="0" y="469" transform="translate(93.07,0)" style="font-family: 'Open Sans', verdana, arial, sans-serif; font-size: 18px; fill: rgb(42, 63, 95); fill-opacity: 1; white-space: pre;">01/11</text></g><g class="xtick"><text text-anchor="middle" x="0" y="469" transform="translate(172.68,0)" style="font-family: 'Open Sans', verdana, arial, sans-serif; font-size: 18px; fill: rgb(42, 63, 95); fill-opacity: 1; white-space: pre;">01/01</text></g><g class="xtick"><text text-anchor="middle" x="0" y="469" transform="translate(249.68,0)" style="font-family: 'Open Sans', verdana, arial, sans-serif; font-size: 18px; fill: rgb(42, 63, 95); fill-opacity: 1; white-space: pre;">01/03</text></g><g class="xtick"><text text-anchor="middle" x="0" y="469" transform="translate(329.29,0)" style="font-family: 'Open Sans', verdana, arial, sans-serif; font-size: 18px; fill: rgb(42, 63, 95); fill-opacity: 1; white-space: pre;">01/05</text></g><g class="xtick"><text text-anchor="middle" x="0" y="469" transform="translate(408.9,0)" style="font-family: 'Open Sans', verdana, arial, sans-serif; font-size: 18px; fill: rgb(42, 63, 95); fill-opacity: 1; white-space: pre;">01/07</text></g><g class="xtick"><text text-anchor="middle" x="0" y="469" transform="translate(489.81,0)" style="font-family: 'Open Sans', verdana, arial, sans-serif; font-size: 18px; fill: rgb(42, 63, 95); fill-opacity: 1; white-space: pre;">01/09</text></g><g class="xtick"><text text-anchor="middle" x="0" y="469" transform="translate(569.42,0)" style="font-family: 'Open Sans', verdana, arial, sans-serif; font-size: 18px; fill: rgb(42, 63, 95); fill-opacity: 1; white-space: pre;">01/11</text></g><g class="xtick"><text text-anchor="middle" x="0" y="469" transform="translate(649.03,0)" style="font-family: 'Open Sans', verdana, arial, sans-serif; font-size: 18px; fill: rgb(42, 63, 95); fill-opacity: 1; white-space: pre;">01/01</text></g><g class="xtick"><text text-anchor="middle" x="0" y="469" transform="translate(726.03,0)" style="font-family: 'Open Sans', verdana, arial, sans-serif; font-size: 18px; fill: rgb(42, 63, 95); fill-opacity: 1; white-space: pre;">01/03</text></g></g><g class="yaxislayer-above"/><g class="overaxes-above"/></g></g><g class="polarlayer"/><g class="ternarylayer"/><g class="geolayer"/><g class="funnelarealayer"/><g class="pielayer"/><g class="treemaplayer"/><g class="sunburstlayer"/><g class="glimages"/><defs id="topdefs-fab26c"><g class="clips"/></defs><g class="layer-above"><g class="imagelayer"/><g class="shapelayer"><path data-index="0" fill-rule="evenodd" d="M-683.46,444.47L270.56,444.47" clip-path="url('#clipfab26cxy')" style="opacity: 1; stroke: rgb(255, 0, 0); stroke-opacity: 1; fill: rgb(0, 0, 0); fill-opacity: 0; stroke-dasharray: 3px, 3px; stroke-width: 1.5px;"/></g></g><g class="infolayer"><g class="g-gtitle"><text class="gtitle" x="375" y="25" text-anchor="middle" dy="0.7em" style="font-family: 'Open Sans', verdana, arial, sans-serif; font-size: 50px; fill: rgb(42, 63, 95); opacity: 1; font-weight: normal; white-space: pre;"><tspan style="font-weight:bold">Eure (27)</tspan></text></g><g class="g-xtitle"/><g class="annotation" data-index="0" style="opacity: 1;"><g class="annotation-text-g" transform="rotate(0,691.86,332.73)"><g class="cursor-pointer" transform="translate(634, 297)"><rect class="bg" x="0.5" y="0.5" width="115" height="71" style="stroke-width: 1px; stroke: rgb(0, 0, 0); stroke-opacity: 0; fill: rgb(255, 255, 255); fill-opacity: 0.6;"/><text class="annotation-text" text-anchor="middle" x="57.8125" y="55.5" style="font-family: 'Open Sans', verdana, arial, sans-serif; font-size: 50px; fill: rgb(8, 115, 191); fill-opacity: 1; white-space: pre;"> <tspan style="font-weight:bold">518 </tspan></text></g></g><g class="annotation-arrow-g" style="opacity: 1;"><path d="M720.26,368.23L731.86,382.73" style="stroke-width: 1px; stroke: rgb(8, 115, 191); stroke-opacity: 1; stroke-dasharray: 0px, 0px, 18.569px, 18.569px;"/></g></g></g></svg>