<svg class="main-svg" xmlns="http://www.w3.org/2000/svg" xmlns:xlink="http://www.w3.org/1999/xlink" width="1125" height="750" style="" viewBox="0 0 750 500"><rect x="0" y="0" width="750" height="500" style="fill: rgb(0, 0, 0); fill-opacity: 0;"/><defs id="defs-3d1a8a"><g class="clips"><clipPath id="clip3d1a8axyplot" class="plotclip"><rect width="700" height="380"/></clipPath><clipPath class="axesclip" id="clip3d1a8ax"><rect x="50" y="0" width="700" height="500"/></clipPath><clipPath class="axesclip" id="clip3d1a8ay"><rect x="0" y="70" width="750" height="380"/></clipPath><clipPath class="axesclip" id="clip3d1a8axy"><rect x="50" y="70" width="700" height="380"/></clipPath></g><g class="gradients"/></defs><g class="bglayer"><rect class="bg" x="50" y="70" width="700" height="380" style="fill: rgb(0, 0, 0); fill-opacity: 0; stroke-width: 0;"/></g><g class="layer-below"><g class="imagelayer"/><g class="shapelayer"/></g><g class="cartesianlayer"><g class="subplot xy"><g class="layer-subplot"><g class="shapelayer"/><g class="imagelayer"/></g><g class="gridlayer"><g class="x"><path class="xgrid crisp" transform="translate(91.85,0)" d="M0,70v380" style="stroke: rgb(255, 255, 255); stroke-opacity: 1; stroke-width: 1px;"/><path class="xgrid crisp" transform="translate(169.2,0)" d="M0,70v380" style="stroke: rgb(255, 255, 255); stroke-opacity: 1; stroke-width: 1px;"/><path class="xgrid crisp" transform="translate(244.02,0)" d="M0,70v380" style="stroke: rgb(255, 255, 255); stroke-opacity: 1; stroke-width: 1px;"/><path class="xgrid crisp" transform="translate(321.38,0)" d="M0,70v380" style="stroke: rgb(255, 255, 255); stroke-opacity: 1; stroke-width: 1px;"/><path class="xgrid crisp" transform="translate(398.73,0)" d="M0,70v380" style="stroke: rgb(255, 255, 255); stroke-opacity: 1; stroke-width: 1px;"/><path class="xgrid crisp" transform="translate(477.36,0)" d="M0,70v380" style="stroke: rgb(255, 255, 255); stroke-opacity: 1; stroke-width: 1px;"/><path class="xgrid crisp" transform="translate(554.71,0)" d="M0,70v380" style="stroke: rgb(255, 255, 255); stroke-opacity: 1; stroke-width: 1px;"/><path class="xgrid crisp" transform="translate(632.07,0)" d="M0,70v380" style="stroke: rgb(255, 255, 255); stroke-opacity: 1; stroke-width: 1px;"/><path class="xgrid crisp" transform="translate(706.88,0)" d="M0,70v380" style="stroke: rgb(255, 255, 255); stroke-opacity: 1; stroke-width: 1px;"/></g><g class="y"/></g><g class="zerolinelayer"/><path class="xlines-below"/><path class="ylines-below"/><g class="overlines-below"/><g class="xaxislayer-below"/><g class="yaxislayer-below"/><g class="overaxes-below"/><g class="plot" transform="translate(50, 70)" clip-path="url('#clip3d1a8axyplot')"><g class="scatterlayer mlayer"><g class="trace scatter trace623e0c" style="stroke-miterlimit: 2;"><g class="fills"><g><path class="js-fill" d="M678.44,380L-172.46,380L-172.46,379.94L-128.08,380L-126.81,379.94L-55.8,378.87L-54.53,378.56L-48.19,377.74L-46.92,377.62L-35.51,376.49L-34.24,376.11L-22.83,375.55L-21.56,375.3L-16.49,371.03L-15.22,370.97L-12.68,369.53L-11.41,369.84L-7.61,369.97L-6.34,370.03L-2.54,371.03L-1.27,371.09L0,370.34L1.27,370.72L2.54,370.72L3.8,368.08L7.61,364.95L8.88,363.57L11.41,362L12.68,359.18L15.22,353.78L16.49,353.22L17.75,351.34L19.02,350.9L20.29,351.46L21.56,349.14L22.83,348.89L24.09,346.51L25.36,346.13L26.63,346.63L29.17,347.26L30.43,344.75L32.97,348.08L34.24,347.45L36.78,347.64L38.04,347.39L39.31,352.53L40.58,352.47L41.85,352.28L43.12,353.72L46.92,355.23L48.19,359.12L49.46,360.62L50.72,365.58L51.99,366.45L53.26,369.15L55.8,369.46L57.07,370.78L58.33,372.72L59.6,371.41L60.87,373.41L62.14,373.41L64.67,373.41L65.94,374.29L67.21,373.79L68.48,374.1L73.55,373.85L74.82,373.48L76.09,374.1L77.36,373.67L78.62,371.97L79.89,372.03L83.7,372.16L84.96,371.41L86.23,371.97L87.5,373.41L92.57,372.03L93.84,372.41L98.91,373.67L100.18,373.85L102.72,373.67L103.99,373.1L105.25,372.98L106.52,374.29L110.33,372.98L111.59,370.09L112.86,368.02L114.13,367.58L117.93,367.39L119.2,363.19L120.47,364.89L121.74,363.82L123.01,363L124.28,360.18L126.81,360.06L128.08,362.82L130.62,363.76L131.88,364.89L134.42,365.51L135.69,365.45L138.22,364.07L139.49,364.76L143.3,361.69L144.57,361.5L145.83,360.12L147.1,360.18L153.44,362.44L154.71,365.32L162.32,366.01L163.59,365.51L164.86,366.89L166.12,366.64L172.46,367.64L173.73,366.77L178.8,369.65L180.07,369.65L181.34,369.9L182.61,371.22L185.14,370.97L186.41,370.91L188.95,371.03L190.22,372.29L192.75,370.91L194.02,370.47L195.29,371.41L196.56,370.78L197.83,370.91L199.09,370.03L200.36,370.59L201.63,369.71L202.9,370.34L204.17,369.15L206.7,368.77L207.97,368.21L210.51,366.83L211.78,366.83L214.31,365.39L215.58,365.83L218.12,364.63L219.38,365.32L221.92,361.75L223.19,360.87L226.99,359.93L228.26,358.93L229.53,360.43L230.8,360.62L232.07,360.12L233.33,360.43L234.6,363.57L235.87,362.94L239.67,360.56L240.94,361.87L242.21,361.75L243.48,358.36L248.55,363.32L249.82,362.88L252.36,362.5L253.62,361.12L256.16,359.3L257.43,359.3L261.23,359.37L262.5,361.69L265.04,364.2L266.3,364.45L267.57,365.83L268.84,365.64L275.18,368.21L276.45,368.15L278.99,369.09L280.25,368.33L281.52,368.27L282.79,370.53L290.4,370.72L291.67,369.4L292.93,370.78L294.2,370.97L295.47,371.16L296.74,373.79L299.28,374.36L300.54,374.42L304.35,375.05L305.62,374.42L309.42,376.68L310.69,377.12L313.22,376.99L314.49,377.37L323.37,379.25L324.64,379.44L337.32,379.37L338.59,379.37L350,378.18L351.27,377.62L353.8,376.61L355.07,375.42L357.61,374.98L358.88,372.91L360.14,371.6L361.41,372.35L363.95,367.58L365.22,366.7L366.49,366.33L367.75,364.38L369.02,362.06L370.29,357.86L371.56,357.74L372.83,356.23L376.63,353.16L377.9,350.9L379.17,350.9L380.43,351.97L381.7,350.84L382.97,351.78L385.51,351.78L386.78,353.16L388.04,352.91L389.31,351.65L390.58,353.47L391.85,352.78L393.12,352.72L394.38,350.4L396.92,349.08L398.19,347.01L399.46,344.69L400.72,344.06L403.26,344.13L404.53,342.68L405.8,342.24L407.07,343.94L408.33,343.94L409.6,344.82L410.87,344.94L412.14,347.32L415.94,352.4L417.21,354.98L419.75,355.04L421.01,356.04L422.28,357.99L423.55,358.36L427.36,360.24L428.62,360.31L431.16,362.5L432.43,363.13L433.7,363.44L434.96,365.14L438.77,365.32L440.04,366.89L446.38,368.46L447.64,370.84L448.91,370.78L450.18,371.6L452.72,373.1L453.99,373.23L457.79,373.54L459.06,374.29L462.86,375.92L464.13,375.86L467.93,376.68L469.2,376.05L475.54,376.11L476.81,374.79L486.96,377.05L488.22,376.68L494.57,376.74L495.83,376.55L499.64,375.11L500.91,375.55L507.25,371.91L508.51,371.85L511.05,366.7L512.32,365.32L513.59,366.39L514.86,365.07L517.39,365.45L518.66,363.57L519.93,363.44L521.2,362L522.46,358.24L523.73,357.3L526.27,356.29L527.54,354.47L530.07,350.71L531.34,349.14L533.88,345.88L535.14,345.82L540.22,334.91L541.49,333.34L542.75,331.65L544.02,331.39L546.56,325.62L547.83,322.99L550.36,318.85L551.63,319.23L554.17,318.35L555.43,319.16L556.7,321.17L557.97,321.11L559.24,322.49L560.51,322.61L561.78,322.93L563.04,325.81L564.31,327.07L565.58,326.63L566.85,325L568.12,325.88L569.38,329.83L570.65,328.76L576.99,282.1L578.26,281.66L579.53,280.72L580.8,263.66L587.14,225.65L588.41,225.09L590.94,208.72L592.21,198.94L593.48,191.29L594.75,177.17L596.01,164.32L597.28,163.56L603.62,55.88L604.89,47.79L606.16,44.84L607.43,20.19L609.96,5.96L611.23,0L613.77,1.57L615.04,2.32L618.84,32.11L620.11,50.17L622.64,73.19L623.91,72.63L628.99,154.28L630.25,168.21L632.79,179.31L634.06,203.2L639.13,247.98L640.4,253.31L641.67,254.63L642.93,271.12L648.01,302.48L649.28,306.87L650.54,307.5L651.81,312.71L653.08,316.72L654.35,313.77L656.88,317.6L658.15,317.79L659.42,317.6L660.69,319.16L661.96,321.23L663.22,325.88L665.76,326.44L667.03,327.32L668.3,327.19L669.57,323.3L670.83,322.43L672.1,319.1L674.64,314.4L675.91,311.83L677.17,311.07L678.44,304.68" style="fill: rgb(8, 115, 191); fill-opacity: 0.2; stroke-width: 0;"/></g></g><g class="errorbars"/><g class="lines"><path class="js-line" d="M-172.46,379.94L-128.08,380L-126.81,379.94L-55.8,378.87L-54.53,378.56L-48.19,377.74L-46.92,377.62L-35.51,376.49L-34.24,376.11L-22.83,375.55L-21.56,375.3L-16.49,371.03L-15.22,370.97L-12.68,369.53L-11.41,369.84L-7.61,369.97L-6.34,370.03L-2.54,371.03L-1.27,371.09L0,370.34L1.27,370.72L2.54,370.72L3.8,368.08L7.61,364.95L8.88,363.57L11.41,362L12.68,359.18L15.22,353.78L16.49,353.22L17.75,351.34L19.02,350.9L20.29,351.46L21.56,349.14L22.83,348.89L24.09,346.51L25.36,346.13L26.63,346.63L29.17,347.26L30.43,344.75L32.97,348.08L34.24,347.45L36.78,347.64L38.04,347.39L39.31,352.53L40.58,352.47L41.85,352.28L43.12,353.72L46.92,355.23L48.19,359.12L49.46,360.62L50.72,365.58L51.99,366.45L53.26,369.15L55.8,369.46L57.07,370.78L58.33,372.72L59.6,371.41L60.87,373.41L62.14,373.41L64.67,373.41L65.94,374.29L67.21,373.79L68.48,374.1L73.55,373.85L74.82,373.48L76.09,374.1L77.36,373.67L78.62,371.97L79.89,372.03L83.7,372.16L84.96,371.41L86.23,371.97L87.5,373.41L92.57,372.03L93.84,372.41L98.91,373.67L100.18,373.85L102.72,373.67L103.99,373.1L105.25,372.98L106.52,374.29L110.33,372.98L111.59,370.09L112.86,368.02L114.13,367.58L117.93,367.39L119.2,363.19L120.47,364.89L121.74,363.82L123.01,363L124.28,360.18L126.81,360.06L128.08,362.82L130.62,363.76L131.88,364.89L134.42,365.51L135.69,365.45L138.22,364.07L139.49,364.76L143.3,361.69L144.57,361.5L145.83,360.12L147.1,360.18L153.44,362.44L154.71,365.32L162.32,366.01L163.59,365.51L164.86,366.89L166.12,366.64L172.46,367.64L173.73,366.77L178.8,369.65L180.07,369.65L181.34,369.9L182.61,371.22L185.14,370.97L186.41,370.91L188.95,371.03L190.22,372.29L192.75,370.91L194.02,370.47L195.29,371.41L196.56,370.78L197.83,370.91L199.09,370.03L200.36,370.59L201.63,369.71L202.9,370.34L204.17,369.15L206.7,368.77L207.97,368.21L210.51,366.83L211.78,366.83L214.31,365.39L215.58,365.83L218.12,364.63L219.38,365.32L221.92,361.75L223.19,360.87L226.99,359.93L228.26,358.93L229.53,360.43L230.8,360.62L232.07,360.12L233.33,360.43L234.6,363.57L235.87,362.94L239.67,360.56L240.94,361.87L242.21,361.75L243.48,358.36L248.55,363.32L249.82,362.88L252.36,362.5L253.62,361.12L256.16,359.3L257.43,359.3L261.23,359.37L262.5,361.69L265.04,364.2L266.3,364.45L267.57,365.83L268.84,365.64L275.18,368.21L276.45,368.15L278.99,369.09L280.25,368.33L281.52,368.27L282.79,370.53L290.4,370.72L291.67,369.4L292.93,370.78L294.2,370.97L295.47,371.16L296.74,373.79L299.28,374.36L300.54,374.42L304.35,375.05L305.62,374.42L309.42,376.68L310.69,377.12L313.22,376.99L314.49,377.37L323.37,379.25L324.64,379.44L337.32,379.37L338.59,379.37L350,378.18L351.27,377.62L353.8,376.61L355.07,375.42L357.61,374.98L358.88,372.91L360.14,371.6L361.41,372.35L363.95,367.58L365.22,366.7L366.49,366.33L367.75,364.38L369.02,362.06L370.29,357.86L371.56,357.74L372.83,356.23L376.63,353.16L377.9,350.9L379.17,350.9L380.43,351.97L381.7,350.84L382.97,351.78L385.51,351.78L386.78,353.16L388.04,352.91L389.31,351.65L390.58,353.47L391.85,352.78L393.12,352.72L394.38,350.4L396.92,349.08L398.19,347.01L399.46,344.69L400.72,344.06L403.26,344.13L404.53,342.68L405.8,342.24L407.07,343.94L408.33,343.94L409.6,344.82L410.87,344.94L412.14,347.32L415.94,352.4L417.21,354.98L419.75,355.04L421.01,356.04L422.28,357.99L423.55,358.36L427.36,360.24L428.62,360.31L431.16,362.5L432.43,363.13L433.7,363.44L434.96,365.14L438.77,365.32L440.04,366.89L446.38,368.46L447.64,370.84L448.91,370.78L450.18,371.6L452.72,373.1L453.99,373.23L457.79,373.54L459.06,374.29L462.86,375.92L464.13,375.86L467.93,376.68L469.2,376.05L475.54,376.11L476.81,374.79L486.96,377.05L488.22,376.68L494.57,376.74L495.83,376.55L499.64,375.11L500.91,375.55L507.25,371.91L508.51,371.85L511.05,366.7L512.32,365.32L513.59,366.39L514.86,365.07L517.39,365.45L518.66,363.57L519.93,363.44L521.2,362L522.46,358.24L523.73,357.3L526.27,356.29L527.54,354.47L530.07,350.71L531.34,349.14L533.88,345.88L535.14,345.82L540.22,334.91L541.49,333.34L542.75,331.65L544.02,331.39L546.56,325.62L547.83,322.99L550.36,318.85L551.63,319.23L554.17,318.35L555.43,319.16L556.7,321.17L557.97,321.11L559.24,322.49L560.51,322.61L561.78,322.93L563.04,325.81L564.31,327.07L565.58,326.63L566.85,325L568.12,325.88L569.38,329.83L570.65,328.76L576.99,282.1L578.26,281.66L579.53,280.72L580.8,263.66L587.14,225.65L588.41,225.09L590.94,208.72L592.21,198.94L593.48,191.29L594.75,177.17L596.01,164.32L597.28,163.56L603.62,55.88L604.89,47.79L606.16,44.84L607.43,20.19L609.96,5.96L611.23,0L613.77,1.57L615.04,2.32L618.84,32.11L620.11,50.17L622.64,73.19L623.91,72.63L628.99,154.28L630.25,168.21L632.79,179.31L634.06,203.2L639.13,247.98L640.4,253.31L641.67,254.63L642.93,271.12L648.01,302.48L649.28,306.87L650.54,307.5L651.81,312.71L653.08,316.72L654.35,313.77L656.88,317.6L658.15,317.79L659.42,317.6L660.69,319.16L661.96,321.23L663.22,325.88L665.76,326.44L667.03,327.32L668.3,327.19L669.57,323.3L670.83,322.43L672.1,319.1L674.64,314.4L675.91,311.83L677.17,311.07L678.44,304.68" style="vector-effect: non-scaling-stroke; fill: none; stroke: rgb(8, 115, 191); stroke-opacity: 1; stroke-width: 0.5px; opacity: 1;"/></g><g class="points"/><g class="text"/></g><g class="trace scatter tracee2d484" style="stroke-miterlimit: 2;"><g class="fills"><g><path class="js-fill" d="M691.12,380L678.44,380L678.44,304.68L680.98,289.63L682.25,283.23L684.78,275.7L686.05,276.08L687.32,267.11L688.59,265.98L691.12,261.72" style="fill: rgb(8, 115, 191); fill-opacity: 0.4; stroke-width: 0;"/></g></g><g class="errorbars"/><g class="lines"><path class="js-line" d="M678.44,304.68L680.98,289.63L682.25,283.23L684.78,275.7L686.05,276.08L687.32,267.11L688.59,265.98L691.12,261.72" style="vector-effect: non-scaling-stroke; fill: none; stroke: rgb(8, 115, 191); stroke-opacity: 1; stroke-width: 2px; opacity: 1;"/></g><g class="points"/><g class="text"/></g><g class="trace scatter trace5cbea7" style="stroke-miterlimit: 2; opacity: 1;"><g class="fills"/><g class="errorbars"/><g class="lines"/><g class="points"><path class="point" transform="translate(691.12,261.72)" d="M15,0A15,15 0 1,1 0,-15A15,15 0 0,1 15,0Z" style="opacity: 1; stroke-width: 0px; fill: rgb(8, 115, 191); fill-opacity: 1;"/></g><g class="text"/></g></g></g><g class="overplot"/><path class="xlines-above crisp" style="fill: none; stroke-width: 1px; stroke: rgb(0, 0, 0); stroke-opacity: 0;" d=""/><path class="ylines-above crisp" style="fill: none;" d="M0,0"/><g class="overlines-above"/><g class="xaxislayer-above"><path class="xtick ticks crisp" d="M0,450v-5" transform="translate(91.85,0)" style="stroke: rgb(68, 68, 68); stroke-opacity: 1; stroke-width: 1px;"/><path class="xtick ticks crisp" d="M0,450v-5" transform="translate(169.2,0)" style="stroke: rgb(68, 68, 68); stroke-opacity: 1; stroke-width: 1px;"/><path class="xtick ticks crisp" d="M0,450v-5" transform="translate(244.02,0)" style="stroke: rgb(68, 68, 68); stroke-opacity: 1; stroke-width: 1px;"/><path class="xtick ticks crisp" d="M0,450v-5" transform="translate(321.38,0)" style="stroke: rgb(68, 68, 68); stroke-opacity: 1; stroke-width: 1px;"/><path class="xtick ticks crisp" d="M0,450v-5" transform="translate(398.73,0)" style="stroke: rgb(68, 68, 68); stroke-opacity: 1; stroke-width: 1px;"/><path class="xtick ticks crisp" d="M0,450v-5" transform="translate(477.36,0)" style="stroke: rgb(68, 68, 68); stroke-opacity: 1; stroke-width: 1px;"/><path class="xtick ticks crisp" d="M0,450v-5" transform="translate(554.71,0)" style="stroke: rgb(68, 68, 68); stroke-opacity: 1; stroke-width: 1px;"/><path class="xtick ticks crisp" d="M0,450v-5" transform="translate(632.07,0)" style="stroke: rgb(68, 68, 68); stroke-opacity: 1; stroke-width: 1px;"/><path class="xtick ticks crisp" d="M0,450v-5" transform="translate(706.88,0)" style="stroke: rgb(68, 68, 68); stroke-opacity: 1; stroke-width: 1px;"/><g class="xtick"><text text-anchor="middle" x="0" y="469" transform="translate(91.85,0)" style="font-family: 'Open Sans', verdana, arial, sans-serif; font-size: 18px; fill: rgb(42, 63, 95); fill-opacity: 1; white-space: pre;">01/11</text></g><g class="xtick"><text text-anchor="middle" x="0" y="469" transform="translate(169.2,0)" style="font-family: 'Open Sans', verdana, arial, sans-serif; font-size: 18px; fill: rgb(42, 63, 95); fill-opacity: 1; white-space: pre;">01/01</text></g><g class="xtick"><text text-anchor="middle" x="0" y="469" transform="translate(244.02,0)" style="font-family: 'Open Sans', verdana, arial, sans-serif; font-size: 18px; fill: rgb(42, 63, 95); fill-opacity: 1; white-space: pre;">01/03</text></g><g class="xtick"><text text-anchor="middle" x="0" y="469" transform="translate(321.38,0)" style="font-family: 'Open Sans', verdana, arial, sans-serif; font-size: 18px; fill: rgb(42, 63, 95); fill-opacity: 1; white-space: pre;">01/05</text></g><g class="xtick"><text text-anchor="middle" x="0" y="469" transform="translate(398.73,0)" style="font-family: 'Open Sans', verdana, arial, sans-serif; font-size: 18px; fill: rgb(42, 63, 95); fill-opacity: 1; white-space: pre;">01/07</text></g><g class="xtick"><text text-anchor="middle" x="0" y="469" transform="translate(477.36,0)" style="font-family: 'Open Sans', verdana, arial, sans-serif; font-size: 18px; fill: rgb(42, 63, 95); fill-opacity: 1; white-space: pre;">01/09</text></g><g class="xtick"><text text-anchor="middle" x="0" y="469" transform="translate(554.71,0)" style="font-family: 'Open Sans', verdana, arial, sans-serif; font-size: 18px; fill: rgb(42, 63, 95); fill-opacity: 1; white-space: pre;">01/11</text></g><g class="xtick"><text text-anchor="middle" x="0" y="469" transform="translate(632.07,0)" style="font-family: 'Open Sans', verdana, arial, sans-serif; font-size: 18px; fill: rgb(42, 63, 95); fill-opacity: 1; white-space: pre;">01/01</text></g><g class="xtick"><text text-anchor="middle" x="0" y="469" transform="translate(706.88,0)" style="font-family: 'Open Sans', verdana, arial, sans-serif; font-size: 18px; fill: rgb(42, 63, 95); fill-opacity: 1; white-space: pre;">01/03</text></g></g><g class="yaxislayer-above"/><g class="overaxes-above"/></g></g><g class="polarlayer"/><g class="ternarylayer"/><g class="geolayer"/><g class="funnelarealayer"/><g class="pielayer"/><g class="treemaplayer"/><g class="sunburstlayer"/><g class="glimages"/><defs id="topdefs-3d1a8a"><g class="clips"/></defs><g class="layer-above"><g class="imagelayer"/><g class="shapelayer"><path data-index="0" fill-rule="evenodd" d="M-662.68,445.22L264.31,445.22" clip-path="url('#clip3d1a8axy')" style="opacity: 1; stroke: rgb(255, 0, 0); stroke-opacity: 1; fill: rgb(0, 0, 0); fill-opacity: 0; stroke-dasharray: 3px, 3px; stroke-width: 1.5px;"/></g></g><g class="infolayer"><g class="g-gtitle"><text class="gtitle" x="375" y="25" text-anchor="middle" dy="0.7em" style="font-family: 'Open Sans', verdana, arial, sans-serif; font-size: 50px; fill: rgb(42, 63, 95); opacity: 1; font-weight: normal; white-space: pre;"><tspan style="font-weight:bold">Ariège (09)</tspan></text></g><g class="g-xtitle"/><g class="annotation" data-index="0" style="opacity: 1;"><g class="annotation-text-g" transform="rotate(0,699.12,271.72)"><g class="cursor-pointer" transform="translate(627, 236)"><rect class="bg" x="0.5" y="0.5" width="143" height="71" style="stroke-width: 1px; stroke: rgb(0, 0, 0); stroke-opacity: 0; fill: rgb(255, 255, 255); fill-opacity: 0.6;"/><text class="annotation-text" text-anchor="middle" x="72.078125" y="55.5" style="font-family: 'Open Sans', verdana, arial, sans-serif; font-size: 50px; fill: rgb(8, 115, 191); fill-opacity: 1; white-space: pre;"> <tspan style="font-weight:bold">1237 </tspan></text></g></g><g class="annotation-arrow-g" style="opacity: 1;"><path d="M727.52,307.22L739.12,321.72" style="stroke-width: 1px; stroke: rgb(8, 115, 191); stroke-opacity: 1; stroke-dasharray: 0px, 0px, 18.569px, 18.569px;"/></g></g></g></svg>