<svg class="main-svg" xmlns="http://www.w3.org/2000/svg" xmlns:xlink="http://www.w3.org/1999/xlink" width="1125" height="750" style="" viewBox="0 0 750 500"><rect x="0" y="0" width="750" height="500" style="fill: rgb(0, 0, 0); fill-opacity: 0;"/><defs id="defs-ca7dd0"><g class="clips"><clipPath id="clipca7dd0xyplot" class="plotclip"><rect width="700" height="380"/></clipPath><clipPath class="axesclip" id="clipca7dd0x"><rect x="50" y="0" width="700" height="500"/></clipPath><clipPath class="axesclip" id="clipca7dd0y"><rect x="0" y="70" width="750" height="380"/></clipPath><clipPath class="axesclip" id="clipca7dd0xy"><rect x="50" y="70" width="700" height="380"/></clipPath></g><g class="gradients"/></defs><g class="bglayer"><rect class="bg" x="50" y="70" width="700" height="380" style="fill: rgb(0, 0, 0); fill-opacity: 0; stroke-width: 0;"/></g><g class="layer-below"><g class="imagelayer"/><g class="shapelayer"/></g><g class="cartesianlayer"><g class="subplot xy"><g class="layer-subplot"><g class="shapelayer"/><g class="imagelayer"/></g><g class="gridlayer"><g class="x"><path class="xgrid crisp" transform="translate(92.7,0)" d="M0,70v380" style="stroke: rgb(255, 255, 255); stroke-opacity: 1; stroke-width: 1px;"/><path class="xgrid crisp" transform="translate(171.63,0)" d="M0,70v380" style="stroke: rgb(255, 255, 255); stroke-opacity: 1; stroke-width: 1px;"/><path class="xgrid crisp" transform="translate(247.97,0)" d="M0,70v380" style="stroke: rgb(255, 255, 255); stroke-opacity: 1; stroke-width: 1px;"/><path class="xgrid crisp" transform="translate(326.89,0)" d="M0,70v380" style="stroke: rgb(255, 255, 255); stroke-opacity: 1; stroke-width: 1px;"/><path class="xgrid crisp" transform="translate(405.82,0)" d="M0,70v380" style="stroke: rgb(255, 255, 255); stroke-opacity: 1; stroke-width: 1px;"/><path class="xgrid crisp" transform="translate(486.04,0)" d="M0,70v380" style="stroke: rgb(255, 255, 255); stroke-opacity: 1; stroke-width: 1px;"/><path class="xgrid crisp" transform="translate(564.97,0)" d="M0,70v380" style="stroke: rgb(255, 255, 255); stroke-opacity: 1; stroke-width: 1px;"/><path class="xgrid crisp" transform="translate(643.9,0)" d="M0,70v380" style="stroke: rgb(255, 255, 255); stroke-opacity: 1; stroke-width: 1px;"/><path class="xgrid crisp" transform="translate(720.24,0)" d="M0,70v380" style="stroke: rgb(255, 255, 255); stroke-opacity: 1; stroke-width: 1px;"/></g><g class="y"/></g><g class="zerolinelayer"/><path class="xlines-below"/><path class="ylines-below"/><g class="overlines-below"/><g class="xaxislayer-below"/><g class="yaxislayer-below"/><g class="overaxes-below"/><g class="plot" transform="translate(50, 70)" clip-path="url('#clipca7dd0xyplot')"><g class="scatterlayer mlayer"><g class="trace scatter trace0c3394" style="stroke-miterlimit: 2;"><g class="fills"><g><path class="js-fill" d="M678,380L-175.97,380L-175.97,378.97L-81.52,377.31L-80.22,377.22L-73.75,375.64L-72.46,375.12L-62.11,373.22L-60.81,373.53L-49.17,369.19L-47.87,367.86L-43.99,365.82L-42.7,365.77L-38.82,364.45L-37.52,364.24L-28.47,361.38L-27.17,360.83L-24.58,360.9L-23.29,360.14L-10.35,354.53L-9.06,354.48L-2.59,355.51L-1.29,354.48L1.29,352.02L2.59,351.67L6.47,344.29L7.76,342.21L9.06,340.6L10.35,340.41L12.94,339.26L14.23,338.71L20.7,337.55L22,336.68L25.88,329.43L27.17,327.31L29.76,325.9L31.05,323.52L32.35,323.03L33.64,324.29L36.23,328.49L37.52,329.51L38.82,329.85L40.11,333.33L45.29,346.79L46.58,348.99L47.87,349.67L49.17,353.58L53.05,362.04L54.34,364.21L56.93,364.86L58.23,366.42L59.52,367.85L60.81,366.55L62.11,368.12L63.4,368.42L65.99,368.5L67.28,369.34L71.16,370.49L72.46,370.97L84.1,371.96L85.4,371.74L87.99,371.28L89.28,370.79L94.45,369.39L95.75,368.63L102.22,366.24L103.51,365.7L106.1,364.81L107.39,364.99L108.69,367.07L109.98,366.83L119.04,367.85L120.33,367.54L125.51,366.32L126.8,363.98L130.68,363.66L131.98,363.79L134.57,363.06L135.86,363.12L156.56,361.44L157.86,360.75L160.44,360.37L161.74,360.7L164.33,360.88L165.62,361.14L175.97,360.46L177.26,360.07L179.85,358.53L181.15,357.46L187.62,355.3L188.91,355.22L191.5,355.63L192.79,355.65L196.67,355.08L197.97,354.97L204.44,353.26L205.73,352.14L210.91,348.06L212.2,345.67L217.38,338.85L218.67,337.71L219.96,336.98L221.26,335.01L223.84,333.47L225.14,333.04L227.73,331.78L229.02,332.24L236.78,330.51L238.08,330.68L239.37,338.33L240.67,336.82L243.25,337.62L244.55,338.29L247.13,338.36L248.43,332.32L251.02,336.91L252.31,338.04L261.37,342.83L262.66,344.31L265.25,345.31L266.54,347.09L273.01,354.97L274.31,355.02L278.19,356.74L279.48,356.58L282.07,356.95L283.36,357.12L287.25,358.55L288.54,361.41L289.83,362.07L291.13,361.81L292.42,362.14L293.72,363.32L296.3,364.96L297.6,363.72L301.48,365.11L302.77,367.29L310.54,369.23L311.83,368.86L317.01,372.15L318.3,372.55L322.18,373.42L323.48,373.86L329.94,375.61L331.24,375.86L341.59,377.46L342.88,377.58L348.06,377.03L349.35,376.76L359.7,372.94L361,372.38L366.17,371.08L367.47,370.46L368.76,371.02L370.06,369.42L375.23,364.88L376.52,362.64L377.82,359.37L379.11,358.85L381.7,357.21L382.99,357.01L384.29,356.55L385.58,357.4L389.46,359.44L390.76,359.71L393.35,360.76L394.64,361.24L408.87,363.89L410.17,364.14L414.05,365.23L415.34,365.77L420.52,365.88L421.81,365.81L432.16,367.11L433.46,367.5L446.4,371.52L447.69,371.76L455.45,372.69L456.75,372.72L474.86,373.18L476.16,373.06L486.51,372.89L487.8,372.21L509.8,372.04L511.09,372.89L516.27,370.21L517.56,369.76L518.85,369.64L520.15,367.73L524.03,368.59L525.32,367.91L527.91,367.23L529.21,365.69L531.79,362.46L533.09,359.56L535.67,356.17L536.97,355.64L542.14,345.22L543.44,342.32L547.32,335.7L548.61,333.1L553.79,325.47L555.08,324.77L558.96,319.99L560.26,319.63L564.14,319.91L565.43,318.48L566.73,315.65L568.02,310.42L570.61,298.23L571.9,291.58L573.2,288.11L574.49,272.84L579.67,193.19L580.96,197.78L582.26,188.75L583.55,155.1L586.14,120.46L587.43,107.85L588.72,94.4L590.02,91.85L591.31,82.59L592.61,58.51L595.19,34.67L596.49,33.35L597.78,28.9L599.08,0L600.37,3.74L601.66,20.69L604.25,41.37L605.55,47.31L608.13,55.43L609.43,55.89L610.72,64.18L612.01,65.23L613.31,65.85L614.6,70.15L618.48,85.22L619.78,98.44L624.95,156.65L626.25,166.44L627.54,172.23L628.84,188.18L634.01,235.46L635.3,244.15L636.6,249.01L637.89,262.55L643.07,294.98L644.36,299.58L645.66,302.05L646.95,308.7L652.13,322.91L653.42,324.96L654.71,326.49L656.01,329.51L661.18,337.42L662.48,338.6L663.77,338.89L665.06,340.03L667.65,340.74L668.95,340.67L670.24,340.65L671.53,339.8L672.83,339.18L674.12,336.71L675.42,335.32L676.71,332.65L678,330.35" style="fill: rgb(8, 115, 191); fill-opacity: 0.2; stroke-width: 0;"/></g></g><g class="errorbars"/><g class="lines"><path class="js-line" d="M-175.97,378.97L-81.52,377.31L-80.22,377.22L-73.75,375.64L-72.46,375.12L-62.11,373.22L-60.81,373.53L-49.17,369.19L-47.87,367.86L-43.99,365.82L-42.7,365.77L-38.82,364.45L-37.52,364.24L-28.47,361.38L-27.17,360.83L-24.58,360.9L-23.29,360.14L-10.35,354.53L-9.06,354.48L-2.59,355.51L-1.29,354.48L1.29,352.02L2.59,351.67L6.47,344.29L7.76,342.21L9.06,340.6L10.35,340.41L12.94,339.26L14.23,338.71L20.7,337.55L22,336.68L25.88,329.43L27.17,327.31L29.76,325.9L31.05,323.52L32.35,323.03L33.64,324.29L36.23,328.49L37.52,329.51L38.82,329.85L40.11,333.33L45.29,346.79L46.58,348.99L47.87,349.67L49.17,353.58L53.05,362.04L54.34,364.21L56.93,364.86L58.23,366.42L59.52,367.85L60.81,366.55L62.11,368.12L63.4,368.42L65.99,368.5L67.28,369.34L71.16,370.49L72.46,370.97L84.1,371.96L85.4,371.74L87.99,371.28L89.28,370.79L94.45,369.39L95.75,368.63L102.22,366.24L103.51,365.7L106.1,364.81L107.39,364.99L108.69,367.07L109.98,366.83L119.04,367.85L120.33,367.54L125.51,366.32L126.8,363.98L130.68,363.66L131.98,363.79L134.57,363.06L135.86,363.12L156.56,361.44L157.86,360.75L160.44,360.37L161.74,360.7L164.33,360.88L165.62,361.14L175.97,360.46L177.26,360.07L179.85,358.53L181.15,357.46L187.62,355.3L188.91,355.22L191.5,355.63L192.79,355.65L196.67,355.08L197.97,354.97L204.44,353.26L205.73,352.14L210.91,348.06L212.2,345.67L217.38,338.85L218.67,337.71L219.96,336.98L221.26,335.01L223.84,333.47L225.14,333.04L227.73,331.78L229.02,332.24L236.78,330.51L238.08,330.68L239.37,338.33L240.67,336.82L243.25,337.62L244.55,338.29L247.13,338.36L248.43,332.32L251.02,336.91L252.31,338.04L261.37,342.83L262.66,344.31L265.25,345.31L266.54,347.09L273.01,354.97L274.31,355.02L278.19,356.74L279.48,356.58L282.07,356.95L283.36,357.12L287.25,358.55L288.54,361.41L289.83,362.07L291.13,361.81L292.42,362.14L293.72,363.32L296.3,364.96L297.6,363.72L301.48,365.11L302.77,367.29L310.54,369.23L311.83,368.86L317.01,372.15L318.3,372.55L322.18,373.42L323.48,373.86L329.94,375.61L331.24,375.86L341.59,377.46L342.88,377.58L348.06,377.03L349.35,376.76L359.7,372.94L361,372.38L366.17,371.08L367.47,370.46L368.76,371.02L370.06,369.42L375.23,364.88L376.52,362.64L377.82,359.37L379.11,358.85L381.7,357.21L382.99,357.01L384.29,356.55L385.58,357.4L389.46,359.44L390.76,359.71L393.35,360.76L394.64,361.24L408.87,363.89L410.17,364.14L414.05,365.23L415.34,365.77L420.52,365.88L421.81,365.81L432.16,367.11L433.46,367.5L446.4,371.52L447.69,371.76L455.45,372.69L456.75,372.72L474.86,373.18L476.16,373.06L486.51,372.89L487.8,372.21L509.8,372.04L511.09,372.89L516.27,370.21L517.56,369.76L518.85,369.64L520.15,367.73L524.03,368.59L525.32,367.91L527.91,367.23L529.21,365.69L531.79,362.46L533.09,359.56L535.67,356.17L536.97,355.64L542.14,345.22L543.44,342.32L547.32,335.7L548.61,333.1L553.79,325.47L555.08,324.77L558.96,319.99L560.26,319.63L564.14,319.91L565.43,318.48L566.73,315.65L568.02,310.42L570.61,298.23L571.9,291.58L573.2,288.11L574.49,272.84L579.67,193.19L580.96,197.78L582.26,188.75L583.55,155.1L586.14,120.46L587.43,107.85L588.72,94.4L590.02,91.85L591.31,82.59L592.61,58.51L595.19,34.67L596.49,33.35L597.78,28.9L599.08,0L600.37,3.74L601.66,20.69L604.25,41.37L605.55,47.31L608.13,55.43L609.43,55.89L610.72,64.18L612.01,65.23L613.31,65.85L614.6,70.15L618.48,85.22L619.78,98.44L624.95,156.65L626.25,166.44L627.54,172.23L628.84,188.18L634.01,235.46L635.3,244.15L636.6,249.01L637.89,262.55L643.07,294.98L644.36,299.58L645.66,302.05L646.95,308.7L652.13,322.91L653.42,324.96L654.71,326.49L656.01,329.51L661.18,337.42L662.48,338.6L663.77,338.89L665.06,340.03L667.65,340.74L668.95,340.67L670.24,340.65L671.53,339.8L672.83,339.18L674.12,336.71L675.42,335.32L676.71,332.65L678,330.35" style="vector-effect: non-scaling-stroke; fill: none; stroke: rgb(8, 115, 191); stroke-opacity: 1; stroke-width: 0.5px; opacity: 1;"/></g><g class="points"/><g class="text"/></g><g class="trace scatter trace8ed45c" style="stroke-miterlimit: 2;"><g class="fills"><g><path class="js-fill" d="M690.94,380L678,380L678,330.35L680.59,325.4L681.89,324.24L689.65,295.17L690.94,292.63" style="fill: rgb(8, 115, 191); fill-opacity: 0.4; stroke-width: 0;"/></g></g><g class="errorbars"/><g class="lines"><path class="js-line" d="M678,330.35L680.59,325.4L681.89,324.24L689.65,295.17L690.94,292.63" style="vector-effect: non-scaling-stroke; fill: none; stroke: rgb(8, 115, 191); stroke-opacity: 1; stroke-width: 2px; opacity: 1;"/></g><g class="points"/><g class="text"/></g><g class="trace scatter tracec6a82e" style="stroke-miterlimit: 2; opacity: 1;"><g class="fills"/><g class="errorbars"/><g class="lines"/><g class="points"><path class="point" transform="translate(690.94,292.63)" d="M15,0A15,15 0 1,1 0,-15A15,15 0 0,1 15,0Z" style="opacity: 1; stroke-width: 0px; fill: rgb(8, 115, 191); fill-opacity: 1;"/></g><g class="text"/></g></g></g><g class="overplot"/><path class="xlines-above crisp" style="fill: none; stroke-width: 1px; stroke: rgb(0, 0, 0); stroke-opacity: 0;" d=""/><path class="ylines-above crisp" style="fill: none;" d="M0,0"/><g class="overlines-above"/><g class="xaxislayer-above"><path class="xtick ticks crisp" d="M0,450v-5" transform="translate(92.7,0)" style="stroke: rgb(68, 68, 68); stroke-opacity: 1; stroke-width: 1px;"/><path class="xtick ticks crisp" d="M0,450v-5" transform="translate(171.63,0)" style="stroke: rgb(68, 68, 68); stroke-opacity: 1; stroke-width: 1px;"/><path class="xtick ticks crisp" d="M0,450v-5" transform="translate(247.97,0)" style="stroke: rgb(68, 68, 68); stroke-opacity: 1; stroke-width: 1px;"/><path class="xtick ticks crisp" d="M0,450v-5" transform="translate(326.89,0)" style="stroke: rgb(68, 68, 68); stroke-opacity: 1; stroke-width: 1px;"/><path class="xtick ticks crisp" d="M0,450v-5" transform="translate(405.82,0)" style="stroke: rgb(68, 68, 68); stroke-opacity: 1; stroke-width: 1px;"/><path class="xtick ticks crisp" d="M0,450v-5" transform="translate(486.04,0)" style="stroke: rgb(68, 68, 68); stroke-opacity: 1; stroke-width: 1px;"/><path class="xtick ticks crisp" d="M0,450v-5" transform="translate(564.97,0)" style="stroke: rgb(68, 68, 68); stroke-opacity: 1; stroke-width: 1px;"/><path class="xtick ticks crisp" d="M0,450v-5" transform="translate(643.9,0)" style="stroke: rgb(68, 68, 68); stroke-opacity: 1; stroke-width: 1px;"/><path class="xtick ticks crisp" d="M0,450v-5" transform="translate(720.24,0)" style="stroke: rgb(68, 68, 68); stroke-opacity: 1; stroke-width: 1px;"/><g class="xtick"><text text-anchor="middle" x="0" y="469" transform="translate(92.7,0)" style="font-family: 'Open Sans', verdana, arial, sans-serif; font-size: 18px; fill: rgb(42, 63, 95); fill-opacity: 1; white-space: pre;">01/11</text></g><g class="xtick"><text text-anchor="middle" x="0" y="469" transform="translate(171.63,0)" style="font-family: 'Open Sans', verdana, arial, sans-serif; font-size: 18px; fill: rgb(42, 63, 95); fill-opacity: 1; white-space: pre;">01/01</text></g><g class="xtick"><text text-anchor="middle" x="0" y="469" transform="translate(247.97,0)" style="font-family: 'Open Sans', verdana, arial, sans-serif; font-size: 18px; fill: rgb(42, 63, 95); fill-opacity: 1; white-space: pre;">01/03</text></g><g class="xtick"><text text-anchor="middle" x="0" y="469" transform="translate(326.89,0)" style="font-family: 'Open Sans', verdana, arial, sans-serif; font-size: 18px; fill: rgb(42, 63, 95); fill-opacity: 1; white-space: pre;">01/05</text></g><g class="xtick"><text text-anchor="middle" x="0" y="469" transform="translate(405.82,0)" style="font-family: 'Open Sans', verdana, arial, sans-serif; font-size: 18px; fill: rgb(42, 63, 95); fill-opacity: 1; white-space: pre;">01/07</text></g><g class="xtick"><text text-anchor="middle" x="0" y="469" transform="translate(486.04,0)" style="font-family: 'Open Sans', verdana, arial, sans-serif; font-size: 18px; fill: rgb(42, 63, 95); fill-opacity: 1; white-space: pre;">01/09</text></g><g class="xtick"><text text-anchor="middle" x="0" y="469" transform="translate(564.97,0)" style="font-family: 'Open Sans', verdana, arial, sans-serif; font-size: 18px; fill: rgb(42, 63, 95); fill-opacity: 1; white-space: pre;">01/11</text></g><g class="xtick"><text text-anchor="middle" x="0" y="469" transform="translate(643.9,0)" style="font-family: 'Open Sans', verdana, arial, sans-serif; font-size: 18px; fill: rgb(42, 63, 95); fill-opacity: 1; white-space: pre;">01/01</text></g><g class="xtick"><text text-anchor="middle" x="0" y="469" transform="translate(720.24,0)" style="font-family: 'Open Sans', verdana, arial, sans-serif; font-size: 18px; fill: rgb(42, 63, 95); fill-opacity: 1; white-space: pre;">01/03</text></g></g><g class="yaxislayer-above"/><g class="overaxes-above"/></g></g><g class="polarlayer"/><g class="ternarylayer"/><g class="geolayer"/><g class="funnelarealayer"/><g class="pielayer"/><g class="treemaplayer"/><g class="sunburstlayer"/><g class="glimages"/><defs id="topdefs-ca7dd0"><g class="clips"/></defs><g class="layer-above"><g class="imagelayer"/><g class="shapelayer"><path data-index="0" fill-rule="evenodd" d="M-677.17,445.45L268.66999999999996,445.45" clip-path="url('#clipca7dd0xy')" style="opacity: 1; stroke: rgb(255, 0, 0); stroke-opacity: 1; fill: rgb(0, 0, 0); fill-opacity: 0; stroke-dasharray: 3px, 3px; stroke-width: 1.5px;"/></g></g><g class="infolayer"><g class="g-gtitle"><text class="gtitle" x="375" y="25" text-anchor="middle" dy="0.7em" style="font-family: 'Open Sans', verdana, arial, sans-serif; font-size: 50px; fill: rgb(42, 63, 95); opacity: 1; font-weight: normal; white-space: pre;"><tspan style="font-weight:bold">Paris (75)</tspan></text></g><g class="g-xtitle"/><g class="annotation" data-index="0" style="opacity: 1;"><g class="annotation-text-g" transform="rotate(0,698.94,302.63)"><g class="cursor-pointer" transform="translate(641, 267)"><rect class="bg" x="0.5" y="0.5" width="115" height="71" style="stroke-width: 1px; stroke: rgb(0, 0, 0); stroke-opacity: 0; fill: rgb(255, 255, 255); fill-opacity: 0.6;"/><text class="annotation-text" text-anchor="middle" x="57.8125" y="55.5" style="font-family: 'Open Sans', verdana, arial, sans-serif; font-size: 50px; fill: rgb(8, 115, 191); fill-opacity: 1; white-space: pre;"> <tspan style="font-weight:bold">959 </tspan></text></g></g><g class="annotation-arrow-g" style="opacity: 1;"><path d="M727.34,338.13L738.94,352.63" style="stroke-width: 1px; stroke: rgb(8, 115, 191); stroke-opacity: 1; stroke-dasharray: 0px, 0px, 18.569px, 18.569px;"/></g></g></g></svg>