<svg class="main-svg" xmlns="http://www.w3.org/2000/svg" xmlns:xlink="http://www.w3.org/1999/xlink" width="1125" height="750" style="" viewBox="0 0 750 500"><rect x="0" y="0" width="750" height="500" style="fill: rgb(0, 0, 0); fill-opacity: 0;"/><defs id="defs-32c79d"><g class="clips"><clipPath id="clip32c79dxyplot" class="plotclip"><rect width="688" height="380"/></clipPath><clipPath class="axesclip" id="clip32c79dx"><rect x="50" y="0" width="688" height="500"/></clipPath><clipPath class="axesclip" id="clip32c79dy"><rect x="0" y="70" width="750" height="380"/></clipPath><clipPath class="axesclip" id="clip32c79dxy"><rect x="50" y="70" width="688" height="380"/></clipPath></g><g class="gradients"/></defs><g class="bglayer"><rect class="bg" x="50" y="70" width="688" height="380" style="fill: rgb(0, 0, 0); fill-opacity: 0; stroke-width: 0;"/></g><g class="layer-below"><g class="imagelayer"/><g class="shapelayer"/></g><g class="cartesianlayer"><g class="subplot xy"><g class="layer-subplot"><g class="shapelayer"/><g class="imagelayer"/></g><g class="gridlayer"><g class="x"><path class="xgrid crisp" transform="translate(52.11,0)" d="M0,70v380" style="stroke: rgb(255, 255, 255); stroke-opacity: 1; stroke-width: 1px;"/><path class="xgrid crisp" transform="translate(149.34,0)" d="M0,70v380" style="stroke: rgb(255, 255, 255); stroke-opacity: 1; stroke-width: 1px;"/><path class="xgrid crisp" transform="translate(244.46,0)" d="M0,70v380" style="stroke: rgb(255, 255, 255); stroke-opacity: 1; stroke-width: 1px;"/><path class="xgrid crisp" transform="translate(340.63,0)" d="M0,70v380" style="stroke: rgb(255, 255, 255); stroke-opacity: 1; stroke-width: 1px;"/><path class="xgrid crisp" transform="translate(437.86,0)" d="M0,70v380" style="stroke: rgb(255, 255, 255); stroke-opacity: 1; stroke-width: 1px;"/><path class="xgrid crisp" transform="translate(535.0899999999999,0)" d="M0,70v380" style="stroke: rgb(255, 255, 255); stroke-opacity: 1; stroke-width: 1px;"/><path class="xgrid crisp" transform="translate(630.2,0)" d="M0,70v380" style="stroke: rgb(255, 255, 255); stroke-opacity: 1; stroke-width: 1px;"/><path class="xgrid crisp" transform="translate(726.37,0)" d="M0,70v380" style="stroke: rgb(255, 255, 255); stroke-opacity: 1; stroke-width: 1px;"/></g><g class="y"/></g><g class="zerolinelayer"/><path class="xlines-below"/><path class="ylines-below"/><g class="overlines-below"/><g class="xaxislayer-below"/><g class="yaxislayer-below"/><g class="overaxes-below"/><g class="plot" transform="translate(50, 70)" clip-path="url('#clip32c79dxyplot')"><g class="scatterlayer mlayer"><g class="trace scatter trace752265" style="stroke-miterlimit: 2;"><g class="fills"><g><path class="js-fill" d="M664.75,380L-143.73,380L-143.73,379.07L-134.22,379.36L-133.16,379.22L-53.9,378.86L-52.84,378.65L-38.05,377.65L-36.99,377.51L-27.48,377.22L-26.42,377.15L-23.25,375.8L-22.19,374.44L-19.02,374.44L-17.97,373.94L-11.63,376.01L-10.57,376.44L-3.17,377.15L-2.11,375.87L1.06,375.65L2.11,375.65L4.23,375.3L5.28,376.51L10.57,375.51L11.63,375.58L13.74,375.01L14.8,373.52L16.91,372.87L17.97,371.09L22.19,360.98L23.25,359.62L24.31,359.41L25.36,352.85L30.65,336.75L31.71,336.32L32.76,335.11L33.82,330.19L35.93,327.98L36.99,328.13L39.1,329.2L40.16,331.55L41.22,334.4L42.27,341.67L43.33,342.59L44.39,340.03L45.44,341.67L46.5,341.74L47.56,341.17L48.61,345.44L49.67,341.24L50.73,344.16L51.78,350.5L52.84,351.14L53.9,351.07L54.96,355.84L57.07,360.33L58.13,362.76L60.24,364.54L61.3,364.25L63.41,366.53L64.47,367.03L67.64,365.61L68.69,366.18L71.86,362.47L72.92,363.4L76.09,362.97L77.15,361.4L78.21,360.05L79.26,360.33L82.43,353.56L83.49,353.56L85.6,351.93L86.66,350.64L87.72,351.64L88.77,356.13L91.94,353.56L93,352.21L94.06,350.29L95.12,351.43L96.17,351.07L97.23,352L98.29,352.07L99.34,351.28L100.4,352.78L101.46,352.42L102.51,350.71L103.57,346.65L107.8,346.8L108.85,350.07L109.91,350.86L110.97,350.14L113.08,350.64L114.14,352.78L115.2,352.07L116.25,352.35L121.54,354.13L122.59,356.27L124.71,354.35L125.76,355.06L128.93,355.92L129.99,355.49L134.22,362.76L135.27,362.97L138.45,367.6L139.5,368.1L141.62,369.38L142.67,369.45L146.9,373.3L147.96,373.02L154.3,373.09L155.35,372.8L159.58,372.87L160.64,372.09L162.75,373.16L163.81,372.59L164.87,372.66L165.92,370.67L170.15,367.6L171.21,366.46L173.32,365.96L174.38,364.04L177.55,361.55L178.61,362.04L179.66,362.33L180.72,361.76L181.78,361.69L182.83,359.55L184.95,356.56L186,354.56L187.06,354.49L188.12,352.5L190.23,350.93L191.29,350.86L192.34,349.93L193.4,350.64L194.46,350.43L195.51,356.06L197.63,352.64L198.69,352.78L200.8,351.28L201.86,351.28L202.91,343.38L203.97,346.23L207.14,351.71L208.2,352.57L209.25,352.92L210.31,355.27L211.37,354.7L212.42,355.2L213.48,356.41L214.54,355.42L215.59,355.77L216.65,355.27L217.71,353.99L218.76,355.49L220.88,354.7L221.94,356.49L222.99,358.41L224.05,358.69L226.16,363.11L227.22,364.47L228.28,365.96L229.33,365.61L232.5,366.89L233.56,366.25L234.62,366.46L235.67,367.96L236.73,367.67L237.79,365.96L242.02,365.82L243.07,364.47L245.19,367.46L246.24,367.39L247.3,370.74L248.36,370.74L250.47,373.66L251.53,373.23L253.64,372.8L254.7,371.45L255.75,372.66L256.81,372.3L261.04,373.44L262.1,374.37L268.44,376.86L269.49,376.86L271.61,376.79L272.66,377.08L274.78,377.51L275.83,377.51L279,379.36L280.06,379.22L288.52,379.22L289.57,379.36L293.8,379L294.86,378.79L299.08,378.15L300.14,377.58L301.2,377.58L302.25,376.58L305.43,374.73L306.48,372.23L307.54,371.24L308.6,369.03L311.77,363.47L312.82,363.54L313.88,362.97L314.94,361.4L315.99,360.69L317.05,361.4L318.11,360.48L319.16,361.12L320.22,360.41L321.28,358.34L324.45,356.7L325.51,357.27L327.62,357.7L328.68,357.27L330.79,356.06L331.85,354.28L332.9,353.49L333.96,350.22L336.07,349.22L337.13,350.07L343.47,359.91L344.53,360.41L345.59,359.91L346.64,360.62L347.7,360.62L348.76,361.55L351.93,363.11L352.98,364.04L357.21,365.89L358.27,365.54L360.38,366.18L361.44,365.32L363.55,365.75L364.61,365.54L366.72,368.24L367.78,368.81L369.89,371.24L370.95,372.3L373.06,373.16L374.12,373.8L377.29,375.37L378.35,375.3L380.46,375.44L381.52,375.8L385.75,376.51L386.8,376.58L389.97,377.72L391.03,378.08L395.26,377.58L396.31,377.29L399.48,377.51L400.54,377.51L404.77,378L405.82,377.43L409,377.36L410.05,377.51L412.17,376.72L413.22,377.08L417.45,375.8L418.51,374.44L421.68,373.8L422.73,373.87L423.79,374.01L424.85,372.38L425.9,372.8L426.96,372.23L428.02,372.66L429.08,372.23L431.19,371.73L432.25,368.96L434.36,364.61L435.42,361.97L437.53,357.34L438.59,357.2L439.64,354.78L440.7,354.42L441.76,354.7L442.81,353.92L444.93,348.43L445.98,348.43L449.16,337.18L450.21,332.97L454.44,329.91L455.5,329.98L457.61,326.13L458.67,327.06L459.72,325.42L460.78,325.42L462.89,324.99L463.95,326.27L465.01,327.34L466.06,326.06L467.12,327.2L468.18,326.92L469.24,326.77L470.29,325.13L471.35,324.92L472.41,323.92L473.46,324.78L474.52,328.77L475.58,326.92L476.63,313.23L480.86,270.13L481.92,269.48L482.97,268.84L484.03,246.18L489.31,133.46L490.37,130.61L492.49,142.08L493.54,153.27L494.6,158.47L495.66,149.06L497.77,139.8L498.83,118.42L502,70.61L503.05,57.22L504.11,45.96L505.17,43.25L507.28,9.41L508.34,1.78L509.39,0L510.45,4.92L511.51,8.48L512.57,7.91L514.68,29.36L515.74,42.61L519.96,83.58L521.02,112.23L525.25,190.89L526.3,202.01L527.36,204.5L528.42,227.94L531.59,263.29L532.65,269.34L533.7,275.61L534.76,276.75L540.04,314.45L541.1,317.79L542.16,319.08L543.21,327.2L546.38,334.33L547.44,334.54L550.61,336.61L551.67,335.75L553.78,333.26L554.84,330.62L555.9,328.34L556.95,328.41L559.07,319.22L560.12,314.37L563.29,299.34L564.35,299.27L567.52,262.07L568.58,252.38L570.69,242.12L571.75,240.7L572.8,237.92L573.86,239.06L574.92,237.85L575.98,238.42L577.03,239.91L578.09,239.91L579.15,240.84L580.2,243.98L584.43,255.3L585.49,256.73L586.54,256.66L587.6,258.72L588.66,258.01L589.71,260.65L590.77,261.86L591.83,264.78L592.88,268.06L593.94,268.34L595,296.49L596.06,292.07L600.28,311.31L601.34,311.88L602.4,297.91L603.45,313.66L605.57,321.43L606.62,325.78L607.68,326.99L608.74,327.06L610.85,332.54L611.91,331.83L615.08,336.11L616.14,336.25L618.25,341.02L619.31,343.59L620.36,346.87L621.42,347.01L622.48,349L623.53,349.08L625.65,355.2L626.7,356.2L627.76,356.77L628.82,359.05L630.93,359.76L631.99,361.69L633.04,362.54L634.1,365.04L635.16,367.53L636.22,366.46L637.27,366.89L638.33,366.32L640.44,363.9L641.5,363.83L642.56,362.26L643.61,362.69L644.67,361.76L645.73,362.12L646.78,365.75L647.84,362.9L651.01,355.56L652.07,355.27L653.12,355.27L654.18,348.58L655.24,349.29L656.29,348.22L659.47,344.52L660.52,344.59L664.75,336.61" style="fill: rgb(8, 115, 191); fill-opacity: 0.2; stroke-width: 0;"/></g></g><g class="errorbars"/><g class="lines"><path class="js-line" d="M-143.73,379.07L-134.22,379.36L-133.16,379.22L-53.9,378.86L-52.84,378.65L-38.05,377.65L-36.99,377.51L-27.48,377.22L-26.42,377.15L-23.25,375.8L-22.19,374.44L-19.02,374.44L-17.97,373.94L-11.63,376.01L-10.57,376.44L-3.17,377.15L-2.11,375.87L1.06,375.65L2.11,375.65L4.23,375.3L5.28,376.51L10.57,375.51L11.63,375.58L13.74,375.01L14.8,373.52L16.91,372.87L17.97,371.09L22.19,360.98L23.25,359.62L24.31,359.41L25.36,352.85L30.65,336.75L31.71,336.32L32.76,335.11L33.82,330.19L35.93,327.98L36.99,328.13L39.1,329.2L40.16,331.55L41.22,334.4L42.27,341.67L43.33,342.59L44.39,340.03L45.44,341.67L46.5,341.74L47.56,341.17L48.61,345.44L49.67,341.24L50.73,344.16L51.78,350.5L52.84,351.14L53.9,351.07L54.96,355.84L57.07,360.33L58.13,362.76L60.24,364.54L61.3,364.25L63.41,366.53L64.47,367.03L67.64,365.61L68.69,366.18L71.86,362.47L72.92,363.4L76.09,362.97L77.15,361.4L78.21,360.05L79.26,360.33L82.43,353.56L83.49,353.56L85.6,351.93L86.66,350.64L87.72,351.64L88.77,356.13L91.94,353.56L93,352.21L94.06,350.29L95.12,351.43L96.17,351.07L97.23,352L98.29,352.07L99.34,351.28L100.4,352.78L101.46,352.42L102.51,350.71L103.57,346.65L107.8,346.8L108.85,350.07L109.91,350.86L110.97,350.14L113.08,350.64L114.14,352.78L115.2,352.07L116.25,352.35L121.54,354.13L122.59,356.27L124.71,354.35L125.76,355.06L128.93,355.92L129.99,355.49L134.22,362.76L135.27,362.97L138.45,367.6L139.5,368.1L141.62,369.38L142.67,369.45L146.9,373.3L147.96,373.02L154.3,373.09L155.35,372.8L159.58,372.87L160.64,372.09L162.75,373.16L163.81,372.59L164.87,372.66L165.92,370.67L170.15,367.6L171.21,366.46L173.32,365.96L174.38,364.04L177.55,361.55L178.61,362.04L179.66,362.33L180.72,361.76L181.78,361.69L182.83,359.55L184.95,356.56L186,354.56L187.06,354.49L188.12,352.5L190.23,350.93L191.29,350.86L192.34,349.93L193.4,350.64L194.46,350.43L195.51,356.06L197.63,352.64L198.69,352.78L200.8,351.28L201.86,351.28L202.91,343.38L203.97,346.23L207.14,351.71L208.2,352.57L209.25,352.92L210.31,355.27L211.37,354.7L212.42,355.2L213.48,356.41L214.54,355.42L215.59,355.77L216.65,355.27L217.71,353.99L218.76,355.49L220.88,354.7L221.94,356.49L222.99,358.41L224.05,358.69L226.16,363.11L227.22,364.47L228.28,365.96L229.33,365.61L232.5,366.89L233.56,366.25L234.62,366.46L235.67,367.96L236.73,367.67L237.79,365.96L242.02,365.82L243.07,364.47L245.19,367.46L246.24,367.39L247.3,370.74L248.36,370.74L250.47,373.66L251.53,373.23L253.64,372.8L254.7,371.45L255.75,372.66L256.81,372.3L261.04,373.44L262.1,374.37L268.44,376.86L269.49,376.86L271.61,376.79L272.66,377.08L274.78,377.51L275.83,377.51L279,379.36L280.06,379.22L288.52,379.22L289.57,379.36L293.8,379L294.86,378.79L299.08,378.15L300.14,377.58L301.2,377.58L302.25,376.58L305.43,374.73L306.48,372.23L307.54,371.24L308.6,369.03L311.77,363.47L312.82,363.54L313.88,362.97L314.94,361.4L315.99,360.69L317.05,361.4L318.11,360.48L319.16,361.12L320.22,360.41L321.28,358.34L324.45,356.7L325.51,357.27L327.62,357.7L328.68,357.27L330.79,356.06L331.85,354.28L332.9,353.49L333.96,350.22L336.07,349.22L337.13,350.07L343.47,359.91L344.53,360.41L345.59,359.91L346.64,360.62L347.7,360.62L348.76,361.55L351.93,363.11L352.98,364.04L357.21,365.89L358.27,365.54L360.38,366.18L361.44,365.32L363.55,365.75L364.61,365.54L366.72,368.24L367.78,368.81L369.89,371.24L370.95,372.3L373.06,373.16L374.12,373.8L377.29,375.37L378.35,375.3L380.46,375.44L381.52,375.8L385.75,376.51L386.8,376.58L389.97,377.72L391.03,378.08L395.26,377.58L396.31,377.29L399.48,377.51L400.54,377.51L404.77,378L405.82,377.43L409,377.36L410.05,377.51L412.17,376.72L413.22,377.08L417.45,375.8L418.51,374.44L421.68,373.8L422.73,373.87L423.79,374.01L424.85,372.38L425.9,372.8L426.96,372.23L428.02,372.66L429.08,372.23L431.19,371.73L432.25,368.96L434.36,364.61L435.42,361.97L437.53,357.34L438.59,357.2L439.64,354.78L440.7,354.42L441.76,354.7L442.81,353.92L444.93,348.43L445.98,348.43L449.16,337.18L450.21,332.97L454.44,329.91L455.5,329.98L457.61,326.13L458.67,327.06L459.72,325.42L460.78,325.42L462.89,324.99L463.95,326.27L465.01,327.34L466.06,326.06L467.12,327.2L468.18,326.92L469.24,326.77L470.29,325.13L471.35,324.92L472.41,323.92L473.46,324.78L474.52,328.77L475.58,326.92L476.63,313.23L480.86,270.13L481.92,269.48L482.97,268.84L484.03,246.18L489.31,133.46L490.37,130.61L492.49,142.08L493.54,153.27L494.6,158.47L495.66,149.06L497.77,139.8L498.83,118.42L502,70.61L503.05,57.22L504.11,45.96L505.17,43.25L507.28,9.41L508.34,1.78L509.39,0L510.45,4.92L511.51,8.48L512.57,7.91L514.68,29.36L515.74,42.61L519.96,83.58L521.02,112.23L525.25,190.89L526.3,202.01L527.36,204.5L528.42,227.94L531.59,263.29L532.65,269.34L533.7,275.61L534.76,276.75L540.04,314.45L541.1,317.79L542.16,319.08L543.21,327.2L546.38,334.33L547.44,334.54L550.61,336.61L551.67,335.75L553.78,333.26L554.84,330.62L555.9,328.34L556.95,328.41L559.07,319.22L560.12,314.37L563.29,299.34L564.35,299.27L567.52,262.07L568.58,252.38L570.69,242.12L571.75,240.7L572.8,237.92L573.86,239.06L574.92,237.85L575.98,238.42L577.03,239.91L578.09,239.91L579.15,240.84L580.2,243.98L584.43,255.3L585.49,256.73L586.54,256.66L587.6,258.72L588.66,258.01L589.71,260.65L590.77,261.86L591.83,264.78L592.88,268.06L593.94,268.34L595,296.49L596.06,292.07L600.28,311.31L601.34,311.88L602.4,297.91L603.45,313.66L605.57,321.43L606.62,325.78L607.68,326.99L608.74,327.06L610.85,332.54L611.91,331.83L615.08,336.11L616.14,336.25L618.25,341.02L619.31,343.59L620.36,346.87L621.42,347.01L622.48,349L623.53,349.08L625.65,355.2L626.7,356.2L627.76,356.77L628.82,359.05L630.93,359.76L631.99,361.69L633.04,362.54L634.1,365.04L635.16,367.53L636.22,366.46L637.27,366.89L638.33,366.32L640.44,363.9L641.5,363.83L642.56,362.26L643.61,362.69L644.67,361.76L645.73,362.12L646.78,365.75L647.84,362.9L651.01,355.56L652.07,355.27L653.12,355.27L654.18,348.58L655.24,349.29L656.29,348.22L659.47,344.52L660.52,344.59L664.75,336.61" style="vector-effect: non-scaling-stroke; fill: none; stroke: rgb(8, 115, 191); stroke-opacity: 1; stroke-width: 0.5px; opacity: 1;"/></g><g class="points"/><g class="text"/></g><g class="trace scatter tracee5f8b5" style="stroke-miterlimit: 2;"><g class="fills"><g><path class="js-fill" d="M675.32,380L664.75,380L664.75,336.61L666.86,333.54L667.92,333.54L671.09,313.45L672.15,307.46L674.26,298.7L675.32,298.06" style="fill: rgb(8, 115, 191); fill-opacity: 0.4; stroke-width: 0;"/></g></g><g class="errorbars"/><g class="lines"><path class="js-line" d="M664.75,336.61L666.86,333.54L667.92,333.54L671.09,313.45L672.15,307.46L674.26,298.7L675.32,298.06" style="vector-effect: non-scaling-stroke; fill: none; stroke: rgb(8, 115, 191); stroke-opacity: 1; stroke-width: 2px; opacity: 1;"/></g><g class="points"/><g class="text"/></g><g class="trace scatter trace174eb8" style="stroke-miterlimit: 2; opacity: 1;"><g class="fills"/><g class="errorbars"/><g class="lines"/><g class="points"><path class="point" transform="translate(675.32,298.06)" d="M15,0A15,15 0 1,1 0,-15A15,15 0 0,1 15,0Z" style="opacity: 1; stroke-width: 0px; fill: rgb(8, 115, 191); fill-opacity: 1;"/></g><g class="text"/></g></g></g><g class="overplot"/><path class="xlines-above crisp" style="fill: none; stroke-width: 1px; stroke: rgb(0, 0, 0); stroke-opacity: 0;" d=""/><path class="ylines-above crisp" style="fill: none;" d="M0,0"/><g class="overlines-above"/><g class="xaxislayer-above"><path class="xtick ticks crisp" d="M0,450v-5" transform="translate(52.11,0)" style="stroke: rgb(68, 68, 68); stroke-opacity: 1; stroke-width: 1px;"/><path class="xtick ticks crisp" d="M0,450v-5" transform="translate(149.34,0)" style="stroke: rgb(68, 68, 68); stroke-opacity: 1; stroke-width: 1px;"/><path class="xtick ticks crisp" d="M0,450v-5" transform="translate(244.46,0)" style="stroke: rgb(68, 68, 68); stroke-opacity: 1; stroke-width: 1px;"/><path class="xtick ticks crisp" d="M0,450v-5" transform="translate(340.63,0)" style="stroke: rgb(68, 68, 68); stroke-opacity: 1; stroke-width: 1px;"/><path class="xtick ticks crisp" d="M0,450v-5" transform="translate(437.86,0)" style="stroke: rgb(68, 68, 68); stroke-opacity: 1; stroke-width: 1px;"/><path class="xtick ticks crisp" d="M0,450v-5" transform="translate(535.0899999999999,0)" style="stroke: rgb(68, 68, 68); stroke-opacity: 1; stroke-width: 1px;"/><path class="xtick ticks crisp" d="M0,450v-5" transform="translate(630.2,0)" style="stroke: rgb(68, 68, 68); stroke-opacity: 1; stroke-width: 1px;"/><path class="xtick ticks crisp" d="M0,450v-5" transform="translate(726.37,0)" style="stroke: rgb(68, 68, 68); stroke-opacity: 1; stroke-width: 1px;"/><g class="xtick"><text text-anchor="middle" x="0" y="469" transform="translate(52.11,0)" style="font-family: 'Open Sans', verdana, arial, sans-serif; font-size: 18px; fill: rgb(42, 63, 95); fill-opacity: 1; white-space: pre;">01/10</text></g><g class="xtick"><text text-anchor="middle" x="0" y="469" transform="translate(149.34,0)" style="font-family: 'Open Sans', verdana, arial, sans-serif; font-size: 18px; fill: rgb(42, 63, 95); fill-opacity: 1; white-space: pre;">01/01</text></g><g class="xtick"><text text-anchor="middle" x="0" y="469" transform="translate(244.46,0)" style="font-family: 'Open Sans', verdana, arial, sans-serif; font-size: 18px; fill: rgb(42, 63, 95); fill-opacity: 1; white-space: pre;">01/04</text></g><g class="xtick"><text text-anchor="middle" x="0" y="469" transform="translate(340.63,0)" style="font-family: 'Open Sans', verdana, arial, sans-serif; font-size: 18px; fill: rgb(42, 63, 95); fill-opacity: 1; white-space: pre;">01/07</text></g><g class="xtick"><text text-anchor="middle" x="0" y="469" transform="translate(437.86,0)" style="font-family: 'Open Sans', verdana, arial, sans-serif; font-size: 18px; fill: rgb(42, 63, 95); fill-opacity: 1; white-space: pre;">01/10</text></g><g class="xtick"><text text-anchor="middle" x="0" y="469" transform="translate(535.0899999999999,0)" style="font-family: 'Open Sans', verdana, arial, sans-serif; font-size: 18px; fill: rgb(42, 63, 95); fill-opacity: 1; white-space: pre;">01/01</text></g><g class="xtick"><text text-anchor="middle" x="0" y="469" transform="translate(630.2,0)" style="font-family: 'Open Sans', verdana, arial, sans-serif; font-size: 18px; fill: rgb(42, 63, 95); fill-opacity: 1; white-space: pre;">01/04</text></g><g class="xtick"><text text-anchor="middle" x="0" y="469" transform="translate(726.37,0)" style="font-family: 'Open Sans', verdana, arial, sans-serif; font-size: 18px; fill: rgb(42, 63, 95); fill-opacity: 1; white-space: pre;">01/07</text></g></g><g class="yaxislayer-above"/><g class="overaxes-above"/></g></g><g class="polarlayer"/><g class="ternarylayer"/><g class="geolayer"/><g class="funnelarealayer"/><g class="pielayer"/><g class="treemaplayer"/><g class="sunburstlayer"/><g class="glimages"/><defs id="topdefs-32c79d"><g class="clips"/></defs><g class="layer-above"><g class="imagelayer"/><g class="shapelayer"><path data-index="0" fill-rule="evenodd" d="M-543.94,445.01L228.61,445.01" clip-path="url('#clip32c79dxy')" style="opacity: 1; stroke: rgb(255, 0, 0); stroke-opacity: 1; fill: rgb(0, 0, 0); fill-opacity: 0; stroke-dasharray: 3px, 3px; stroke-width: 1.5px;"/></g></g><g class="infolayer"><g class="g-gtitle"><text class="gtitle" x="375" y="25" text-anchor="middle" dy="0.7em" style="font-family: 'Open Sans', verdana, arial, sans-serif; font-size: 50px; fill: rgb(42, 63, 95); opacity: 1; font-weight: normal; white-space: pre;"><tspan style="font-weight:bold">Territoire de Belfort (90)</tspan></text></g><g class="g-xtitle"/><g class="annotation" data-index="0" style="opacity: 1;"><g class="annotation-text-g" transform="rotate(0,683.32,308.06)"><g class="cursor-pointer" transform="translate(625, 272)"><rect class="bg" x="0.5" y="0.5" width="115" height="71" style="stroke-width: 1px; stroke: rgb(0, 0, 0); stroke-opacity: 0; fill: rgb(255, 255, 255); fill-opacity: 0.6;"/><text class="annotation-text" text-anchor="middle" x="57.8125" y="55.5" style="font-family: 'Open Sans', verdana, arial, sans-serif; font-size: 50px; fill: rgb(8, 115, 191); fill-opacity: 1; white-space: pre;"> <tspan style="font-weight:bold">820 </tspan></text></g></g><g class="annotation-arrow-g" style="opacity: 1;"><path d="M711.72,343.56L723.32,358.06" style="stroke-width: 1px; stroke: rgb(8, 115, 191); stroke-opacity: 1; stroke-dasharray: 0px, 0px, 18.5691px, 18.5691px;"/></g></g></g></svg>