<svg class="main-svg" xmlns="http://www.w3.org/2000/svg" xmlns:xlink="http://www.w3.org/1999/xlink" width="1125" height="750" style="" viewBox="0 0 750 500"><rect x="0" y="0" width="750" height="500" style="fill: rgb(0, 0, 0); fill-opacity: 0;"/><defs id="defs-a765ed"><g class="clips"><clipPath id="clipa765edxyplot" class="plotclip"><rect width="683" height="380"/></clipPath><clipPath class="axesclip" id="clipa765edx"><rect x="50" y="0" width="683" height="500"/></clipPath><clipPath class="axesclip" id="clipa765edy"><rect x="0" y="70" width="750" height="380"/></clipPath><clipPath class="axesclip" id="clipa765edxy"><rect x="50" y="70" width="683" height="380"/></clipPath></g><g class="gradients"/></defs><g class="bglayer"><rect class="bg" x="50" y="70" width="683" height="380" style="fill: rgb(0, 0, 0); fill-opacity: 0; stroke-width: 0;"/></g><g class="layer-below"><g class="imagelayer"/><g class="shapelayer"/></g><g class="cartesianlayer"><g class="subplot xy"><g class="layer-subplot"><g class="shapelayer"/><g class="imagelayer"/></g><g class="gridlayer"><g class="x"><path class="xgrid crisp" transform="translate(52.11,0)" d="M0,70v380" style="stroke: rgb(255, 255, 255); stroke-opacity: 1; stroke-width: 1px;"/><path class="xgrid crisp" transform="translate(149.38,0)" d="M0,70v380" style="stroke: rgb(255, 255, 255); stroke-opacity: 1; stroke-width: 1px;"/><path class="xgrid crisp" transform="translate(244.54,0)" d="M0,70v380" style="stroke: rgb(255, 255, 255); stroke-opacity: 1; stroke-width: 1px;"/><path class="xgrid crisp" transform="translate(340.75,0)" d="M0,70v380" style="stroke: rgb(255, 255, 255); stroke-opacity: 1; stroke-width: 1px;"/><path class="xgrid crisp" transform="translate(438.02,0)" d="M0,70v380" style="stroke: rgb(255, 255, 255); stroke-opacity: 1; stroke-width: 1px;"/><path class="xgrid crisp" transform="translate(535.29,0)" d="M0,70v380" style="stroke: rgb(255, 255, 255); stroke-opacity: 1; stroke-width: 1px;"/><path class="xgrid crisp" transform="translate(630.44,0)" d="M0,70v380" style="stroke: rgb(255, 255, 255); stroke-opacity: 1; stroke-width: 1px;"/><path class="xgrid crisp" transform="translate(726.66,0)" d="M0,70v380" style="stroke: rgb(255, 255, 255); stroke-opacity: 1; stroke-width: 1px;"/></g><g class="y"/></g><g class="zerolinelayer"/><path class="xlines-below"/><path class="ylines-below"/><g class="overlines-below"/><g class="xaxislayer-below"/><g class="yaxislayer-below"/><g class="overaxes-below"/><g class="plot" transform="translate(50, 70)" clip-path="url('#clipa765edxyplot')"><g class="scatterlayer mlayer"><g class="trace scatter trace407be9" style="stroke-miterlimit: 2;"><g class="fills"><g><path class="js-fill" d="M665.03,380L-143.79,380L-143.79,379.41L-119.47,379.76L-118.41,379.83L-66.61,378.51L-65.55,378.28L-59.21,376.9L-58.15,376.85L-52.86,376.43L-51.81,375.2L-47.58,372.72L-46.52,372.03L-44.41,372.62L-43.35,372.9L-41.23,373.73L-40.18,373.83L-35.95,375.5L-34.89,375.41L-25.37,374.35L-24.32,373.9L-19.03,374.23L-17.97,374.44L-12.69,373.71L-11.63,373.24L0,373.59L1.06,373.17L4.23,373.04L5.29,371.89L7.4,370.78L8.46,370.44L10.57,369.52L11.63,368.69L13.74,368.58L14.8,367.96L19.03,366.69L20.09,365.72L23.26,361.31L24.32,361.18L27.49,355.57L28.55,354.83L31.72,353.25L32.78,352.16L34.89,351.19L35.95,350.91L39.12,352.02L40.18,352.75L43.35,358.76L44.41,359.89L45.46,361.27L46.52,361.12L48.63,364.58L49.69,362.78L51.81,366.14L52.86,366.59L53.92,366.85L54.98,368.27L59.21,370.68L60.26,370.66L63.44,370.26L64.49,370.11L68.72,368.32L69.78,367.66L70.84,366.99L71.89,367.32L74.01,366.35L75.07,366.71L79.3,365.52L80.35,364.98L82.47,365.5L83.52,365.83L87.75,367.14L88.81,368.77L90.93,368.83L91.98,369.03L95.15,370.18L96.21,369.99L99.38,369.14L100.44,368.39L102.56,368.72L103.61,368.24L106.78,371.25L107.84,370.99L111.01,364.58L112.07,362.93L113.13,362.21L114.19,359.21L115.24,358.6L116.3,359.04L119.47,358.53L120.53,358.85L121.59,358.59L122.64,359.43L124.76,360.82L125.82,360.84L132.16,362.35L133.22,363.26L136.39,364.25L137.45,364.7L139.56,365.67L140.62,366.33L142.73,366.61L143.79,367.94L146.96,368.17L148.02,367.91L153.3,365.71L154.36,364.86L161.76,367.18L162.82,366.54L164.93,365.72L165.99,365.59L167.05,365.91L168.11,365.1L170.22,363.99L171.28,364.23L173.39,363.28L174.45,362.5L176.57,361.96L177.62,361.18L179.74,360.58L180.79,358.46L181.85,357.25L182.91,354.79L186.08,351.5L187.14,351.5L190.31,349.68L191.37,349.04L193.48,346.82L194.54,346.41L195.6,350.25L196.65,348.81L201.94,345.44L203,339.98L205.11,340.01L206.17,340.19L208.28,340.86L209.34,341.36L210.4,340.88L211.46,342.16L215.68,346.06L216.74,345.96L218.86,348.81L219.91,349.56L224.14,355.05L225.2,356.28L227.31,358.52L228.37,359.04L229.43,358.46L230.49,358.83L234.72,359.35L235.77,362.07L236.83,362.83L237.89,361.13L241.06,362.1L242.12,362.81L243.17,361.44L244.23,362.41L246.35,363.4L247.4,366.5L251.63,369.4L252.69,369.99L253.75,370.33L254.8,369.17L259.03,371.94L260.09,372.58L261.15,372.65L262.2,373.59L270.66,377.64L271.72,377.94L278.06,379.01L279.12,379.15L286.52,379.22L287.58,379.08L297.09,378.54L298.15,378.68L307.67,375.84L308.72,375.32L314.01,374.42L315.07,374.25L316.13,374.14L317.18,373.09L322.47,371.65L323.53,371.42L325.64,371.46L326.7,371.23L331.98,370.3L333.04,370.45L337.27,369.36L338.33,369.14L340.44,369.31L341.5,369.67L344.67,370.64L345.73,371.09L348.9,372.12L349.96,372.15L357.36,373.81L358.42,374.27L365.82,374.68L366.87,375.1L370.05,375.72L371.1,376.26L376.39,375.88L377.45,375.65L383.79,376.19L384.85,376.36L386.96,376.45L388.02,376.86L402.82,377L403.88,376.47L411.28,373.52L412.34,373.21L416.57,372.12L417.62,372.69L419.74,371.98L420.8,371.84L423.97,371.37L425.02,369.52L426.08,369.14L427.14,367.53L428.2,367.85L429.25,366.76L431.37,365.27L432.43,364.63L434.54,363.92L435.6,362.4L440.88,362.24L441.94,361.77L445.11,358.98L446.17,358.83L452.51,352.89L453.57,352.85L454.63,350.86L455.69,350.72L456.74,349.77L457.8,350.06L459.91,351.62L460.97,351.41L462.03,352.16L463.09,351.78L464.14,352.73L465.2,352.4L467.32,351.41L468.37,350.79L469.43,350.49L470.49,348.74L473.66,337.62L474.72,338.31L475.77,335.44L476.83,321.6L481.06,256.8L482.12,252.88L483.17,245.94L484.23,219.55L486.35,181.16L487.4,170.99L488.46,161.08L489.52,142.43L490.58,142.09L491.63,139.21L492.69,140.51L493.75,134.1L497.98,99.5L499.03,76.98L502.21,26.25L503.26,15.39L506.43,0L507.49,0.97L510.66,22.97L511.72,26.89L512.78,28.74L513.84,50.07L521.24,184.78L522.29,209.76L525.47,263.23L526.52,273.71L527.58,277.26L528.64,289.72L531.81,307.79L532.87,312.86L536.04,322.58L537.1,325.77L540.27,334.07L541.33,335.02L544.5,336.67L545.55,334.42L548.73,330.17L549.78,329.67L551.9,325.53L552.96,325.22L556.13,318.17L557.18,317.2L560.36,304.86L561.41,301.36L564.59,294.71L565.64,287.29L569.87,255.71L570.93,252.1L571.99,249.56L573.04,242.54L576.22,233.32L577.27,233.81L578.33,233.32L579.39,234.17L582.56,240.37L583.62,238.38L585.73,238.03L586.79,239.01L588.9,247.17L589.96,252.71L593.13,269.88L594.19,271.13L595.25,291.78L596.3,290.65L599.48,305.85L600.53,308.71L601.59,310.13L602.65,302.87L604.76,318.18L605.82,322.5L607.93,328.72L608.99,329.57L611.11,334.57L612.16,335.47L623.79,341.71L624.85,344.41L630.14,355.71L631.19,356.56L635.42,363.21L636.48,363.45L638.59,363.73L639.65,364.72L640.71,365L641.77,364.36L642.82,362.12L643.88,362.14L646,361.17L647.05,362.74L649.17,358.53L650.22,356.63L652.34,354.98L653.4,354.72L654.45,349.06L655.51,348.85L658.68,342.73L659.74,341.28L660.8,340.6L661.85,336.2L665.03,324.32" style="fill: rgb(8, 115, 191); fill-opacity: 0.2; stroke-width: 0;"/></g></g><g class="errorbars"/><g class="lines"><path class="js-line" d="M-143.79,379.41L-119.47,379.76L-118.41,379.83L-66.61,378.51L-65.55,378.28L-59.21,376.9L-58.15,376.85L-52.86,376.43L-51.81,375.2L-47.58,372.72L-46.52,372.03L-44.41,372.62L-43.35,372.9L-41.23,373.73L-40.18,373.83L-35.95,375.5L-34.89,375.41L-25.37,374.35L-24.32,373.9L-19.03,374.23L-17.97,374.44L-12.69,373.71L-11.63,373.24L0,373.59L1.06,373.17L4.23,373.04L5.29,371.89L7.4,370.78L8.46,370.44L10.57,369.52L11.63,368.69L13.74,368.58L14.8,367.96L19.03,366.69L20.09,365.72L23.26,361.31L24.32,361.18L27.49,355.57L28.55,354.83L31.72,353.25L32.78,352.16L34.89,351.19L35.95,350.91L39.12,352.02L40.18,352.75L43.35,358.76L44.41,359.89L45.46,361.27L46.52,361.12L48.63,364.58L49.69,362.78L51.81,366.14L52.86,366.59L53.92,366.85L54.98,368.27L59.21,370.68L60.26,370.66L63.44,370.26L64.49,370.11L68.72,368.32L69.78,367.66L70.84,366.99L71.89,367.32L74.01,366.35L75.07,366.71L79.3,365.52L80.35,364.98L82.47,365.5L83.52,365.83L87.75,367.14L88.81,368.77L90.93,368.83L91.98,369.03L95.15,370.18L96.21,369.99L99.38,369.14L100.44,368.39L102.56,368.72L103.61,368.24L106.78,371.25L107.84,370.99L111.01,364.58L112.07,362.93L113.13,362.21L114.19,359.21L115.24,358.6L116.3,359.04L119.47,358.53L120.53,358.85L121.59,358.59L122.64,359.43L124.76,360.82L125.82,360.84L132.16,362.35L133.22,363.26L136.39,364.25L137.45,364.7L139.56,365.67L140.62,366.33L142.73,366.61L143.79,367.94L146.96,368.17L148.02,367.91L153.3,365.71L154.36,364.86L161.76,367.18L162.82,366.54L164.93,365.72L165.99,365.59L167.05,365.91L168.11,365.1L170.22,363.99L171.28,364.23L173.39,363.28L174.45,362.5L176.57,361.96L177.62,361.18L179.74,360.58L180.79,358.46L181.85,357.25L182.91,354.79L186.08,351.5L187.14,351.5L190.31,349.68L191.37,349.04L193.48,346.82L194.54,346.41L195.6,350.25L196.65,348.81L201.94,345.44L203,339.98L205.11,340.01L206.17,340.19L208.28,340.86L209.34,341.36L210.4,340.88L211.46,342.16L215.68,346.06L216.74,345.96L218.86,348.81L219.91,349.56L224.14,355.05L225.2,356.28L227.31,358.52L228.37,359.04L229.43,358.46L230.49,358.83L234.72,359.35L235.77,362.07L236.83,362.83L237.89,361.13L241.06,362.1L242.12,362.81L243.17,361.44L244.23,362.41L246.35,363.4L247.4,366.5L251.63,369.4L252.69,369.99L253.75,370.33L254.8,369.17L259.03,371.94L260.09,372.58L261.15,372.65L262.2,373.59L270.66,377.64L271.72,377.94L278.06,379.01L279.12,379.15L286.52,379.22L287.58,379.08L297.09,378.54L298.15,378.68L307.67,375.84L308.72,375.32L314.01,374.42L315.07,374.25L316.13,374.14L317.18,373.09L322.47,371.65L323.53,371.42L325.64,371.46L326.7,371.23L331.98,370.3L333.04,370.45L337.27,369.36L338.33,369.14L340.44,369.31L341.5,369.67L344.67,370.64L345.73,371.09L348.9,372.12L349.96,372.15L357.36,373.81L358.42,374.27L365.82,374.68L366.87,375.1L370.05,375.72L371.1,376.26L376.39,375.88L377.45,375.65L383.79,376.19L384.85,376.36L386.96,376.45L388.02,376.86L402.82,377L403.88,376.47L411.28,373.52L412.34,373.21L416.57,372.12L417.62,372.69L419.74,371.98L420.8,371.84L423.97,371.37L425.02,369.52L426.08,369.14L427.14,367.53L428.2,367.85L429.25,366.76L431.37,365.27L432.43,364.63L434.54,363.92L435.6,362.4L440.88,362.24L441.94,361.77L445.11,358.98L446.17,358.83L452.51,352.89L453.57,352.85L454.63,350.86L455.69,350.72L456.74,349.77L457.8,350.06L459.91,351.62L460.97,351.41L462.03,352.16L463.09,351.78L464.14,352.73L465.2,352.4L467.32,351.41L468.37,350.79L469.43,350.49L470.49,348.74L473.66,337.62L474.72,338.31L475.77,335.44L476.83,321.6L481.06,256.8L482.12,252.88L483.17,245.94L484.23,219.55L486.35,181.16L487.4,170.99L488.46,161.08L489.52,142.43L490.58,142.09L491.63,139.21L492.69,140.51L493.75,134.1L497.98,99.5L499.03,76.98L502.21,26.25L503.26,15.39L506.43,0L507.49,0.97L510.66,22.97L511.72,26.89L512.78,28.74L513.84,50.07L521.24,184.78L522.29,209.76L525.47,263.23L526.52,273.71L527.58,277.26L528.64,289.72L531.81,307.79L532.87,312.86L536.04,322.58L537.1,325.77L540.27,334.07L541.33,335.02L544.5,336.67L545.55,334.42L548.73,330.17L549.78,329.67L551.9,325.53L552.96,325.22L556.13,318.17L557.18,317.2L560.36,304.86L561.41,301.36L564.59,294.71L565.64,287.29L569.87,255.71L570.93,252.1L571.99,249.56L573.04,242.54L576.22,233.32L577.27,233.81L578.33,233.32L579.39,234.17L582.56,240.37L583.62,238.38L585.73,238.03L586.79,239.01L588.9,247.17L589.96,252.71L593.13,269.88L594.19,271.13L595.25,291.78L596.3,290.65L599.48,305.85L600.53,308.71L601.59,310.13L602.65,302.87L604.76,318.18L605.82,322.5L607.93,328.72L608.99,329.57L611.11,334.57L612.16,335.47L623.79,341.71L624.85,344.41L630.14,355.71L631.19,356.56L635.42,363.21L636.48,363.45L638.59,363.73L639.65,364.72L640.71,365L641.77,364.36L642.82,362.12L643.88,362.14L646,361.17L647.05,362.74L649.17,358.53L650.22,356.63L652.34,354.98L653.4,354.72L654.45,349.06L655.51,348.85L658.68,342.73L659.74,341.28L660.8,340.6L661.85,336.2L665.03,324.32" style="vector-effect: non-scaling-stroke; fill: none; stroke: rgb(8, 115, 191); stroke-opacity: 1; stroke-width: 0.5px; opacity: 1;"/></g><g class="points"/><g class="text"/></g><g class="trace scatter tracee3da25" style="stroke-miterlimit: 2;"><g class="fills"><g><path class="js-fill" d="M675.6,380L665.03,380L665.03,324.32L667.14,317.09L668.2,316.78L675.6,281.68" style="fill: rgb(8, 115, 191); fill-opacity: 0.4; stroke-width: 0;"/></g></g><g class="errorbars"/><g class="lines"><path class="js-line" d="M665.03,324.32L667.14,317.09L668.2,316.78L675.6,281.68" style="vector-effect: non-scaling-stroke; fill: none; stroke: rgb(8, 115, 191); stroke-opacity: 1; stroke-width: 2px; opacity: 1;"/></g><g class="points"/><g class="text"/></g><g class="trace scatter tracef5e5d5" style="stroke-miterlimit: 2; opacity: 1;"><g class="fills"/><g class="errorbars"/><g class="lines"/><g class="points"><path class="point" transform="translate(675.6,281.68)" d="M15,0A15,15 0 1,1 0,-15A15,15 0 0,1 15,0Z" style="opacity: 1; stroke-width: 0px; fill: rgb(8, 115, 191); fill-opacity: 1;"/></g><g class="text"/></g></g></g><g class="overplot"/><path class="xlines-above crisp" style="fill: none; stroke-width: 1px; stroke: rgb(0, 0, 0); stroke-opacity: 0;" d=""/><path class="ylines-above crisp" style="fill: none;" d="M0,0"/><g class="overlines-above"/><g class="xaxislayer-above"><path class="xtick ticks crisp" d="M0,450v-5" transform="translate(52.11,0)" style="stroke: rgb(68, 68, 68); stroke-opacity: 1; stroke-width: 1px;"/><path class="xtick ticks crisp" d="M0,450v-5" transform="translate(149.38,0)" style="stroke: rgb(68, 68, 68); stroke-opacity: 1; stroke-width: 1px;"/><path class="xtick ticks crisp" d="M0,450v-5" transform="translate(244.54,0)" style="stroke: rgb(68, 68, 68); stroke-opacity: 1; stroke-width: 1px;"/><path class="xtick ticks crisp" d="M0,450v-5" transform="translate(340.75,0)" style="stroke: rgb(68, 68, 68); stroke-opacity: 1; stroke-width: 1px;"/><path class="xtick ticks crisp" d="M0,450v-5" transform="translate(438.02,0)" style="stroke: rgb(68, 68, 68); stroke-opacity: 1; stroke-width: 1px;"/><path class="xtick ticks crisp" d="M0,450v-5" transform="translate(535.29,0)" style="stroke: rgb(68, 68, 68); stroke-opacity: 1; stroke-width: 1px;"/><path class="xtick ticks crisp" d="M0,450v-5" transform="translate(630.44,0)" style="stroke: rgb(68, 68, 68); stroke-opacity: 1; stroke-width: 1px;"/><path class="xtick ticks crisp" d="M0,450v-5" transform="translate(726.66,0)" style="stroke: rgb(68, 68, 68); stroke-opacity: 1; stroke-width: 1px;"/><g class="xtick"><text text-anchor="middle" x="0" y="469" transform="translate(52.11,0)" style="font-family: 'Open Sans', verdana, arial, sans-serif; font-size: 18px; fill: rgb(42, 63, 95); fill-opacity: 1; white-space: pre;">01/10</text></g><g class="xtick"><text text-anchor="middle" x="0" y="469" transform="translate(149.38,0)" style="font-family: 'Open Sans', verdana, arial, sans-serif; font-size: 18px; fill: rgb(42, 63, 95); fill-opacity: 1; white-space: pre;">01/01</text></g><g class="xtick"><text text-anchor="middle" x="0" y="469" transform="translate(244.54,0)" style="font-family: 'Open Sans', verdana, arial, sans-serif; font-size: 18px; fill: rgb(42, 63, 95); fill-opacity: 1; white-space: pre;">01/04</text></g><g class="xtick"><text text-anchor="middle" x="0" y="469" transform="translate(340.75,0)" style="font-family: 'Open Sans', verdana, arial, sans-serif; font-size: 18px; fill: rgb(42, 63, 95); fill-opacity: 1; white-space: pre;">01/07</text></g><g class="xtick"><text text-anchor="middle" x="0" y="469" transform="translate(438.02,0)" style="font-family: 'Open Sans', verdana, arial, sans-serif; font-size: 18px; fill: rgb(42, 63, 95); fill-opacity: 1; white-space: pre;">01/10</text></g><g class="xtick"><text text-anchor="middle" x="0" y="469" transform="translate(535.29,0)" style="font-family: 'Open Sans', verdana, arial, sans-serif; font-size: 18px; fill: rgb(42, 63, 95); fill-opacity: 1; white-space: pre;">01/01</text></g><g class="xtick"><text text-anchor="middle" x="0" y="469" transform="translate(630.44,0)" style="font-family: 'Open Sans', verdana, arial, sans-serif; font-size: 18px; fill: rgb(42, 63, 95); fill-opacity: 1; white-space: pre;">01/04</text></g><g class="xtick"><text text-anchor="middle" x="0" y="469" transform="translate(726.66,0)" style="font-family: 'Open Sans', verdana, arial, sans-serif; font-size: 18px; fill: rgb(42, 63, 95); fill-opacity: 1; white-space: pre;">01/07</text></g></g><g class="yaxislayer-above"/><g class="overaxes-above"/></g></g><g class="polarlayer"/><g class="ternarylayer"/><g class="geolayer"/><g class="funnelarealayer"/><g class="pielayer"/><g class="treemaplayer"/><g class="sunburstlayer"/><g class="glimages"/><defs id="topdefs-a765ed"><g class="clips"/></defs><g class="layer-above"><g class="imagelayer"/><g class="shapelayer"><path data-index="0" fill-rule="evenodd" d="M-544.19,445.15L228.68,445.15" clip-path="url('#clipa765edxy')" style="opacity: 1; stroke: rgb(255, 0, 0); stroke-opacity: 1; fill: rgb(0, 0, 0); fill-opacity: 0; stroke-dasharray: 3px, 3px; stroke-width: 1.5px;"/></g></g><g class="infolayer"><g class="g-gtitle"><text class="gtitle" x="375" y="25" text-anchor="middle" dy="0.7em" style="font-family: 'Open Sans', verdana, arial, sans-serif; font-size: 50px; fill: rgb(42, 63, 95); opacity: 1; font-weight: normal; white-space: pre;"><tspan style="font-weight:bold">Sarthe (72)</tspan></text></g><g class="g-xtitle"/><g class="annotation" data-index="0" style="opacity: 1;"><g class="annotation-text-g" transform="rotate(0,683.6,291.68)"><g class="cursor-pointer" transform="translate(612, 256)"><rect class="bg" x="0.5" y="0.5" width="143" height="71" style="stroke-width: 1px; stroke: rgb(0, 0, 0); stroke-opacity: 0; fill: rgb(255, 255, 255); fill-opacity: 0.6;"/><text class="annotation-text" text-anchor="middle" x="72.078125" y="55.5" style="font-family: 'Open Sans', verdana, arial, sans-serif; font-size: 50px; fill: rgb(8, 115, 191); fill-opacity: 1; white-space: pre;"> <tspan style="font-weight:bold">1012 </tspan></text></g></g><g class="annotation-arrow-g" style="opacity: 1;"><path d="M712,327.18L723.6,341.68" style="stroke-width: 1px; stroke: rgb(8, 115, 191); stroke-opacity: 1; stroke-dasharray: 0px, 0px, 18.569px, 18.569px;"/></g></g></g></svg>