<svg class="main-svg" xmlns="http://www.w3.org/2000/svg" xmlns:xlink="http://www.w3.org/1999/xlink" width="1125" height="750" style="" viewBox="0 0 750 500"><rect x="0" y="0" width="750" height="500" style="fill: rgb(0, 0, 0); fill-opacity: 0;"/><defs id="defs-8a5b3c"><g class="clips"><clipPath id="clip8a5b3cxyplot" class="plotclip"><rect width="700" height="380"/></clipPath><clipPath class="axesclip" id="clip8a5b3cx"><rect x="50" y="0" width="700" height="500"/></clipPath><clipPath class="axesclip" id="clip8a5b3cy"><rect x="0" y="70" width="750" height="380"/></clipPath><clipPath class="axesclip" id="clip8a5b3cxy"><rect x="50" y="70" width="700" height="380"/></clipPath></g><g class="gradients"/></defs><g class="bglayer"><rect class="bg" x="50" y="70" width="700" height="380" style="fill: rgb(0, 0, 0); fill-opacity: 0; stroke-width: 0;"/></g><g class="layer-below"><g class="imagelayer"/><g class="shapelayer"/></g><g class="cartesianlayer"><g class="subplot xy"><g class="layer-subplot"><g class="shapelayer"/><g class="imagelayer"/></g><g class="gridlayer"><g class="x"><path class="xgrid crisp" transform="translate(52.21,0)" d="M0,70v380" style="stroke: rgb(255, 255, 255); stroke-opacity: 1; stroke-width: 1px;"/><path class="xgrid crisp" transform="translate(153.95,0)" d="M0,70v380" style="stroke: rgb(255, 255, 255); stroke-opacity: 1; stroke-width: 1px;"/><path class="xgrid crisp" transform="translate(253.48,0)" d="M0,70v380" style="stroke: rgb(255, 255, 255); stroke-opacity: 1; stroke-width: 1px;"/><path class="xgrid crisp" transform="translate(354.11,0)" d="M0,70v380" style="stroke: rgb(255, 255, 255); stroke-opacity: 1; stroke-width: 1px;"/><path class="xgrid crisp" transform="translate(455.85,0)" d="M0,70v380" style="stroke: rgb(255, 255, 255); stroke-opacity: 1; stroke-width: 1px;"/><path class="xgrid crisp" transform="translate(557.5799999999999,0)" d="M0,70v380" style="stroke: rgb(255, 255, 255); stroke-opacity: 1; stroke-width: 1px;"/><path class="xgrid crisp" transform="translate(657.11,0)" d="M0,70v380" style="stroke: rgb(255, 255, 255); stroke-opacity: 1; stroke-width: 1px;"/></g><g class="y"/></g><g class="zerolinelayer"/><path class="xlines-below"/><path class="ylines-below"/><g class="overlines-below"/><g class="xaxislayer-below"/><g class="yaxislayer-below"/><g class="overaxes-below"/><g class="plot" transform="translate(50, 70)" clip-path="url('#clip8a5b3cxyplot')"><g class="scatterlayer mlayer"><g class="trace scatter trace388c4f" style="stroke-miterlimit: 2;"><g class="fills"><g><path class="js-fill" d="M681.2,380L-150.39,380L-150.39,379.26L-39.81,379.06L-38.7,378.79L-30.96,377.74L-29.86,377.39L-16.59,376.22L-15.48,375.83L-12.16,375.87L-11.06,375.52L-1.11,376.8L0,375.87L3.32,373.92L4.42,373.06L8.85,368.85L9.95,368.58L15.48,360.74L16.59,360.11L17.69,360L18.8,357.66L24.33,343.04L25.43,342.02L30.96,327.67L32.07,327.75L33.18,328.06L34.28,324.05L35.39,322.92L36.49,323.04L38.7,327.29L39.81,328.26L40.92,328.53L42.02,332.43L43.13,333.95L44.23,341.95L45.34,338.75L46.45,341.36L48.66,341.79L49.76,344.28L50.87,347.4L51.97,344.01L53.08,348.85L54.19,349.98L57.5,352.39L58.61,353.64L60.82,356.29L61.93,356.45L63.03,356.14L64.14,356.61L66.35,357.54L67.46,357.11L69.67,358.01L70.77,356.64L71.88,356.33L72.99,354.15L77.41,345.45L78.52,345.88L84.04,345.73L85.15,346.86L87.36,345.73L88.47,345.57L90.68,342.65L91.79,344.67L92.89,350.09L94,350.68L95.1,350.87L96.21,349.16L97.31,350.99L98.42,351.23L102.84,350.99L103.95,351.42L105.06,352.24L106.16,355.28L107.27,355.36L108.37,351.3L109.48,351.97L110.58,351.11L112.8,355.16L113.9,354.66L119.43,357.27L120.54,357.23L121.64,358.48L122.75,357.81L124.96,357.11L126.07,357.5L129.38,359.18L130.49,360.47L132.7,363L133.81,362.69L134.91,363.43L136.02,362.49L138.23,363.23L139.34,362.18L140.44,361.67L141.55,362.1L143.76,363.9L144.87,365.65L145.97,366.43L147.08,368.54L151.5,371.19L152.61,370.37L155.92,368.54L157.03,368.5L161.45,367.41L162.56,367.41L170.3,367.52L171.41,366.16L172.51,366.08L173.62,364.44L178.04,360.62L179.15,360.58L180.25,360.74L181.36,359.02L183.57,357.35L184.68,355.83L185.78,353.64L186.89,353.37L189.1,352.12L190.21,350.48L193.52,351.26L194.63,350.91L196.84,350.25L197.95,349.08L200.16,345.65L201.26,345.73L203.48,345.88L204.58,351.97L205.69,351.26L206.79,352.55L209,352L210.11,351.73L211.22,351.93L212.32,346L213.43,348.14L214.53,347.6L216.75,349.51L217.85,349.28L221.17,347.83L222.27,349.24L224.49,349.2L225.59,350.29L228.91,351.15L230.02,351.85L232.23,353.1L233.33,355.44L234.44,355.79L235.55,357.19L237.76,360.23L238.86,361.52L239.97,362.81L241.07,362.88L242.18,362.92L243.29,364.36L244.39,365.34L245.5,364.99L247.71,367.02L248.82,365.89L251.03,366.47L252.13,367.09L253.24,368.19L254.34,366.98L257.66,368.34L258.77,370.99L262.09,369L263.19,369.59L265.4,368.89L266.51,367.45L269.83,371.62L270.93,372.16L275.36,373.96L276.46,374.54L281.99,377.08L283.1,377.27L287.52,377.97L288.63,378.05L295.26,378.05L296.37,378.09L304.11,377.7L305.21,377.35L309.64,377.54L310.74,377.5L321.8,377.39L322.91,377.19L327.33,377L328.44,376.49L330.65,374.85L331.75,374.07L335.07,373.96L336.18,373.92L337.28,374.46L338.39,373.49L341.71,373.14L342.81,372.71L345.02,371.5L346.13,371.77L351.66,370.95L352.76,370.29L356.08,370.6L357.19,370.45L361.61,370.95L362.72,370.76L368.25,372.32L369.35,371.31L375.99,372.28L377.09,373.53L378.2,374L379.3,373.64L389.26,376.49L390.36,376.57L405.85,377.15L406.95,376.84L410.27,376.22L411.37,376.18L416.9,375.87L418.01,376.1L421.33,375.87L422.43,375.48L423.54,375.28L424.64,374.27L429.07,372.47L430.17,372.44L433.49,371.15L434.6,370.72L435.7,370.49L436.81,371.81L440.13,369.28L441.23,369L443.44,369.36L444.55,367.52L446.76,366.16L447.87,368.54L451.18,365.42L452.29,362.69L454.5,361.09L455.61,358.01L456.71,355.98L457.82,357.07L458.93,356.72L460.03,354.42L465.56,345.18L466.67,345.18L468.88,338.01L469.98,337.54L471.09,336.21L472.2,336.06L473.3,334.03L474.41,333.76L475.51,334.93L476.62,337.38L477.73,336.37L478.83,337.11L479.94,337.62L481.04,339.76L482.15,339.76L483.25,341.05L484.36,340.19L485.47,340.54L486.57,340.93L487.68,340.42L488.78,339.72L489.89,340.23L491,341.67L492.1,341.48L493.21,341.75L494.31,338.63L495.42,336.56L496.52,339.84L497.63,337.62L498.74,323.54L503.16,261.94L504.27,260.69L505.37,256.56L506.48,223.88L508.69,193.59L509.79,185.44L510.9,179.39L512.01,160.02L513.11,161.3L514.22,165.71L515.32,166.14L516.43,162.43L517.54,157.91L518.64,145.08L520.85,133L521.96,111.82L526.38,48.89L527.49,42.58L528.59,41.64L529.7,24.06L531.91,9.32L533.02,6.32L535.23,0L536.33,1.56L537.44,9.12L538.55,24.49L540.76,58.68L541.86,81.84L542.97,98.45L544.08,101.76L546.29,163.8L547.39,186.18L549.61,217.68L550.71,227.04L551.82,228.72L552.92,244.78L556.24,264.2L557.35,270.05L560.66,277.92L561.77,283.26L563.98,290.4L565.09,292.31L566.19,291.34L567.3,291.57L568.4,288.37L569.51,287.71L570.62,287.32L571.72,284.9L572.83,284.79L573.93,285.8L575.04,284.86L576.15,279.4L578.36,268.1L579.46,258.55L581.67,241.74L582.78,240.88L584.99,231.56L586.1,227.16L589.42,231.02L590.52,230.82L593.84,209.65L594.94,203.41L597.16,192.69L598.26,192.89L599.37,194.56L600.47,193.74L602.69,197.33L603.79,200.14L604.9,202.94L606,203.02L607.11,204.86L608.21,204.23L610.43,202.59L611.53,202.32L612.64,204.15L613.74,204.43L615.96,220.37L617.06,223.8L618.17,230.39L619.27,232.19L621.48,233.86L622.59,263.42L623.7,262.41L624.8,272.89L628.12,297.11L629.23,298.59L630.33,285.06L631.44,300.42L635.86,316.29L636.97,316.64L639.18,320.34L640.28,322.49L642.5,323.85L643.6,325.53L644.71,325.34L645.81,328.57L648.03,332.04L649.13,333.6L651.34,336.33L652.45,336.95L657.98,350.37L659.08,351.77L660.19,351.69L661.3,354.38L663.51,358.71L664.61,362.53L667.93,363.39L669.04,363.39L670.14,362.69L671.25,361.05L672.35,358.32L673.46,358.79L675.67,358.91L676.78,362.96L677.88,361.48L678.99,362.38L680.09,362.53L681.2,361.52" style="fill: rgb(8, 115, 191); fill-opacity: 0.2; stroke-width: 0;"/></g></g><g class="errorbars"/><g class="lines"><path class="js-line" d="M-150.39,379.26L-39.81,379.06L-38.7,378.79L-30.96,377.74L-29.86,377.39L-16.59,376.22L-15.48,375.83L-12.16,375.87L-11.06,375.52L-1.11,376.8L0,375.87L3.32,373.92L4.42,373.06L8.85,368.85L9.95,368.58L15.48,360.74L16.59,360.11L17.69,360L18.8,357.66L24.33,343.04L25.43,342.02L30.96,327.67L32.07,327.75L33.18,328.06L34.28,324.05L35.39,322.92L36.49,323.04L38.7,327.29L39.81,328.26L40.92,328.53L42.02,332.43L43.13,333.95L44.23,341.95L45.34,338.75L46.45,341.36L48.66,341.79L49.76,344.28L50.87,347.4L51.97,344.01L53.08,348.85L54.19,349.98L57.5,352.39L58.61,353.64L60.82,356.29L61.93,356.45L63.03,356.14L64.14,356.61L66.35,357.54L67.46,357.11L69.67,358.01L70.77,356.64L71.88,356.33L72.99,354.15L77.41,345.45L78.52,345.88L84.04,345.73L85.15,346.86L87.36,345.73L88.47,345.57L90.68,342.65L91.79,344.67L92.89,350.09L94,350.68L95.1,350.87L96.21,349.16L97.31,350.99L98.42,351.23L102.84,350.99L103.95,351.42L105.06,352.24L106.16,355.28L107.27,355.36L108.37,351.3L109.48,351.97L110.58,351.11L112.8,355.16L113.9,354.66L119.43,357.27L120.54,357.23L121.64,358.48L122.75,357.81L124.96,357.11L126.07,357.5L129.38,359.18L130.49,360.47L132.7,363L133.81,362.69L134.91,363.43L136.02,362.49L138.23,363.23L139.34,362.18L140.44,361.67L141.55,362.1L143.76,363.9L144.87,365.65L145.97,366.43L147.08,368.54L151.5,371.19L152.61,370.37L155.92,368.54L157.03,368.5L161.45,367.41L162.56,367.41L170.3,367.52L171.41,366.16L172.51,366.08L173.62,364.44L178.04,360.62L179.15,360.58L180.25,360.74L181.36,359.02L183.57,357.35L184.68,355.83L185.78,353.64L186.89,353.37L189.1,352.12L190.21,350.48L193.52,351.26L194.63,350.91L196.84,350.25L197.95,349.08L200.16,345.65L201.26,345.73L203.48,345.88L204.58,351.97L205.69,351.26L206.79,352.55L209,352L210.11,351.73L211.22,351.93L212.32,346L213.43,348.14L214.53,347.6L216.75,349.51L217.85,349.28L221.17,347.83L222.27,349.24L224.49,349.2L225.59,350.29L228.91,351.15L230.02,351.85L232.23,353.1L233.33,355.44L234.44,355.79L235.55,357.19L237.76,360.23L238.86,361.52L239.97,362.81L241.07,362.88L242.18,362.92L243.29,364.36L244.39,365.34L245.5,364.99L247.71,367.02L248.82,365.89L251.03,366.47L252.13,367.09L253.24,368.19L254.34,366.98L257.66,368.34L258.77,370.99L262.09,369L263.19,369.59L265.4,368.89L266.51,367.45L269.83,371.62L270.93,372.16L275.36,373.96L276.46,374.54L281.99,377.08L283.1,377.27L287.52,377.97L288.63,378.05L295.26,378.05L296.37,378.09L304.11,377.7L305.21,377.35L309.64,377.54L310.74,377.5L321.8,377.39L322.91,377.19L327.33,377L328.44,376.49L330.65,374.85L331.75,374.07L335.07,373.96L336.18,373.92L337.28,374.46L338.39,373.49L341.71,373.14L342.81,372.71L345.02,371.5L346.13,371.77L351.66,370.95L352.76,370.29L356.08,370.6L357.19,370.45L361.61,370.95L362.72,370.76L368.25,372.32L369.35,371.31L375.99,372.28L377.09,373.53L378.2,374L379.3,373.64L389.26,376.49L390.36,376.57L405.85,377.15L406.95,376.84L410.27,376.22L411.37,376.18L416.9,375.87L418.01,376.1L421.33,375.87L422.43,375.48L423.54,375.28L424.64,374.27L429.07,372.47L430.17,372.44L433.49,371.15L434.6,370.72L435.7,370.49L436.81,371.81L440.13,369.28L441.23,369L443.44,369.36L444.55,367.52L446.76,366.16L447.87,368.54L451.18,365.42L452.29,362.69L454.5,361.09L455.61,358.01L456.71,355.98L457.82,357.07L458.93,356.72L460.03,354.42L465.56,345.18L466.67,345.18L468.88,338.01L469.98,337.54L471.09,336.21L472.2,336.06L473.3,334.03L474.41,333.76L475.51,334.93L476.62,337.38L477.73,336.37L478.83,337.11L479.94,337.62L481.04,339.76L482.15,339.76L483.25,341.05L484.36,340.19L485.47,340.54L486.57,340.93L487.68,340.42L488.78,339.72L489.89,340.23L491,341.67L492.1,341.48L493.21,341.75L494.31,338.63L495.42,336.56L496.52,339.84L497.63,337.62L498.74,323.54L503.16,261.94L504.27,260.69L505.37,256.56L506.48,223.88L508.69,193.59L509.79,185.44L510.9,179.39L512.01,160.02L513.11,161.3L514.22,165.71L515.32,166.14L516.43,162.43L517.54,157.91L518.64,145.08L520.85,133L521.96,111.82L526.38,48.89L527.49,42.58L528.59,41.64L529.7,24.06L531.91,9.32L533.02,6.32L535.23,0L536.33,1.56L537.44,9.12L538.55,24.49L540.76,58.68L541.86,81.84L542.97,98.45L544.08,101.76L546.29,163.8L547.39,186.18L549.61,217.68L550.71,227.04L551.82,228.72L552.92,244.78L556.24,264.2L557.35,270.05L560.66,277.92L561.77,283.26L563.98,290.4L565.09,292.31L566.19,291.34L567.3,291.57L568.4,288.37L569.51,287.71L570.62,287.32L571.72,284.9L572.83,284.79L573.93,285.8L575.04,284.86L576.15,279.4L578.36,268.1L579.46,258.55L581.67,241.74L582.78,240.88L584.99,231.56L586.1,227.16L589.42,231.02L590.52,230.82L593.84,209.65L594.94,203.41L597.16,192.69L598.26,192.89L599.37,194.56L600.47,193.74L602.69,197.33L603.79,200.14L604.9,202.94L606,203.02L607.11,204.86L608.21,204.23L610.43,202.59L611.53,202.32L612.64,204.15L613.74,204.43L615.96,220.37L617.06,223.8L618.17,230.39L619.27,232.19L621.48,233.86L622.59,263.42L623.7,262.41L624.8,272.89L628.12,297.11L629.23,298.59L630.33,285.06L631.44,300.42L635.86,316.29L636.97,316.64L639.18,320.34L640.28,322.49L642.5,323.85L643.6,325.53L644.71,325.34L645.81,328.57L648.03,332.04L649.13,333.6L651.34,336.33L652.45,336.95L657.98,350.37L659.08,351.77L660.19,351.69L661.3,354.38L663.51,358.71L664.61,362.53L667.93,363.39L669.04,363.39L670.14,362.69L671.25,361.05L672.35,358.32L673.46,358.79L675.67,358.91L676.78,362.96L677.88,361.48L678.99,362.38L680.09,362.53L681.2,361.52" style="vector-effect: non-scaling-stroke; fill: none; stroke: rgb(8, 115, 191); stroke-opacity: 1; stroke-width: 0.5px; opacity: 1;"/></g><g class="points"/><g class="text"/></g><g class="trace scatter trace5d9418" style="stroke-miterlimit: 2;"><g class="fills"><g><path class="js-fill" d="M692.26,380L681.2,380L681.2,361.52L682.31,360.15L683.41,360.08L684.52,353.33L685.62,353.49L688.94,347.87L690.05,347.44L691.15,347.09L692.26,343.47" style="fill: rgb(8, 115, 191); fill-opacity: 0.4; stroke-width: 0;"/></g></g><g class="errorbars"/><g class="lines"><path class="js-line" d="M681.2,361.52L682.31,360.15L683.41,360.08L684.52,353.33L685.62,353.49L688.94,347.87L690.05,347.44L691.15,347.09L692.26,343.47" style="vector-effect: non-scaling-stroke; fill: none; stroke: rgb(8, 115, 191); stroke-opacity: 1; stroke-width: 2px; opacity: 1;"/></g><g class="points"/><g class="text"/></g><g class="trace scatter traceda8d57" style="stroke-miterlimit: 2; opacity: 1;"><g class="fills"/><g class="errorbars"/><g class="lines"/><g class="points"><path class="point" transform="translate(692.26,343.47)" d="M15,0A15,15 0 1,1 0,-15A15,15 0 0,1 15,0Z" style="opacity: 1; stroke-width: 0px; fill: rgb(8, 115, 191); fill-opacity: 1;"/></g><g class="text"/></g></g></g><g class="overplot"/><path class="xlines-above crisp" style="fill: none; stroke-width: 1px; stroke: rgb(0, 0, 0); stroke-opacity: 0;" d=""/><path class="ylines-above crisp" style="fill: none;" d="M0,0"/><g class="overlines-above"/><g class="xaxislayer-above"><path class="xtick ticks crisp" d="M0,450v-5" transform="translate(52.21,0)" style="stroke: rgb(68, 68, 68); stroke-opacity: 1; stroke-width: 1px;"/><path class="xtick ticks crisp" d="M0,450v-5" transform="translate(153.95,0)" style="stroke: rgb(68, 68, 68); stroke-opacity: 1; stroke-width: 1px;"/><path class="xtick ticks crisp" d="M0,450v-5" transform="translate(253.48,0)" style="stroke: rgb(68, 68, 68); stroke-opacity: 1; stroke-width: 1px;"/><path class="xtick ticks crisp" d="M0,450v-5" transform="translate(354.11,0)" style="stroke: rgb(68, 68, 68); stroke-opacity: 1; stroke-width: 1px;"/><path class="xtick ticks crisp" d="M0,450v-5" transform="translate(455.85,0)" style="stroke: rgb(68, 68, 68); stroke-opacity: 1; stroke-width: 1px;"/><path class="xtick ticks crisp" d="M0,450v-5" transform="translate(557.5799999999999,0)" style="stroke: rgb(68, 68, 68); stroke-opacity: 1; stroke-width: 1px;"/><path class="xtick ticks crisp" d="M0,450v-5" transform="translate(657.11,0)" style="stroke: rgb(68, 68, 68); stroke-opacity: 1; stroke-width: 1px;"/><g class="xtick"><text text-anchor="middle" x="0" y="469" transform="translate(52.21,0)" style="font-family: 'Open Sans', verdana, arial, sans-serif; font-size: 18px; fill: rgb(42, 63, 95); fill-opacity: 1; white-space: pre;">01/10</text></g><g class="xtick"><text text-anchor="middle" x="0" y="469" transform="translate(153.95,0)" style="font-family: 'Open Sans', verdana, arial, sans-serif; font-size: 18px; fill: rgb(42, 63, 95); fill-opacity: 1; white-space: pre;">01/01</text></g><g class="xtick"><text text-anchor="middle" x="0" y="469" transform="translate(253.48,0)" style="font-family: 'Open Sans', verdana, arial, sans-serif; font-size: 18px; fill: rgb(42, 63, 95); fill-opacity: 1; white-space: pre;">01/04</text></g><g class="xtick"><text text-anchor="middle" x="0" y="469" transform="translate(354.11,0)" style="font-family: 'Open Sans', verdana, arial, sans-serif; font-size: 18px; fill: rgb(42, 63, 95); fill-opacity: 1; white-space: pre;">01/07</text></g><g class="xtick"><text text-anchor="middle" x="0" y="469" transform="translate(455.85,0)" style="font-family: 'Open Sans', verdana, arial, sans-serif; font-size: 18px; fill: rgb(42, 63, 95); fill-opacity: 1; white-space: pre;">01/10</text></g><g class="xtick"><text text-anchor="middle" x="0" y="469" transform="translate(557.5799999999999,0)" style="font-family: 'Open Sans', verdana, arial, sans-serif; font-size: 18px; fill: rgb(42, 63, 95); fill-opacity: 1; white-space: pre;">01/01</text></g><g class="xtick"><text text-anchor="middle" x="0" y="469" transform="translate(657.11,0)" style="font-family: 'Open Sans', verdana, arial, sans-serif; font-size: 18px; fill: rgb(42, 63, 95); fill-opacity: 1; white-space: pre;">01/04</text></g></g><g class="yaxislayer-above"/><g class="overaxes-above"/></g></g><g class="polarlayer"/><g class="ternarylayer"/><g class="geolayer"/><g class="funnelarealayer"/><g class="pielayer"/><g class="treemaplayer"/><g class="sunburstlayer"/><g class="glimages"/><defs id="topdefs-8a5b3c"><g class="clips"/></defs><g class="layer-above"><g class="imagelayer"/><g class="shapelayer"><path data-index="0" fill-rule="evenodd" d="M-571.48,444.82L236.89,444.82" clip-path="url('#clip8a5b3cxy')" style="opacity: 1; stroke: rgb(255, 0, 0); stroke-opacity: 1; fill: rgb(0, 0, 0); fill-opacity: 0; stroke-dasharray: 3px, 3px; stroke-width: 1.5px;"/></g></g><g class="infolayer"><g class="g-gtitle"><text class="gtitle" x="375" y="25" text-anchor="middle" dy="0.7em" style="font-family: 'Open Sans', verdana, arial, sans-serif; font-size: 50px; fill: rgb(42, 63, 95); opacity: 1; font-weight: normal; white-space: pre;"><tspan style="font-weight:bold">Ardennes (08)</tspan></text></g><g class="g-xtitle"/><g class="annotation" data-index="0" style="opacity: 1;"><g class="annotation-text-g" transform="rotate(0,700.26,353.47)"><g class="cursor-pointer" transform="translate(642, 317)"><rect class="bg" x="0.5" y="0.5" width="115" height="71" style="stroke-width: 1px; stroke: rgb(0, 0, 0); stroke-opacity: 0; fill: rgb(255, 255, 255); fill-opacity: 0.6;"/><text class="annotation-text" text-anchor="middle" x="57.8125" y="55.5" style="font-family: 'Open Sans', verdana, arial, sans-serif; font-size: 50px; fill: rgb(8, 115, 191); fill-opacity: 1; white-space: pre;"> <tspan style="font-weight:bold">352 </tspan></text></g></g><g class="annotation-arrow-g" style="opacity: 1;"><path d="M728.66,388.97L740.26,403.47" style="stroke-width: 1px; stroke: rgb(8, 115, 191); stroke-opacity: 1; stroke-dasharray: 0px, 0px, 18.5691px, 18.5691px;"/></g></g></g></svg>