<svg class="main-svg" xmlns="http://www.w3.org/2000/svg" xmlns:xlink="http://www.w3.org/1999/xlink" width="1125" height="750" style="" viewBox="0 0 750 500"><rect x="0" y="0" width="750" height="500" style="fill: rgb(0, 0, 0); fill-opacity: 0;"/><defs id="defs-e7735b"><g class="clips"><clipPath id="clipe7735bxyplot" class="plotclip"><rect width="696" height="380"/></clipPath><clipPath class="axesclip" id="clipe7735bx"><rect x="50" y="0" width="696" height="500"/></clipPath><clipPath class="axesclip" id="clipe7735by"><rect x="0" y="70" width="750" height="380"/></clipPath><clipPath class="axesclip" id="clipe7735bxy"><rect x="50" y="70" width="696" height="380"/></clipPath></g><g class="gradients"/></defs><g class="bglayer"><rect class="bg" x="50" y="70" width="696" height="380" style="fill: rgb(0, 0, 0); fill-opacity: 0; stroke-width: 0;"/></g><g class="layer-below"><g class="imagelayer"/><g class="shapelayer"/></g><g class="cartesianlayer"><g class="subplot xy"><g class="layer-subplot"><g class="shapelayer"/><g class="imagelayer"/></g><g class="gridlayer"><g class="x"><path class="xgrid crisp" transform="translate(93.09,0)" d="M0,70v380" style="stroke: rgb(255, 255, 255); stroke-opacity: 1; stroke-width: 1px;"/><path class="xgrid crisp" transform="translate(172.75,0)" d="M0,70v380" style="stroke: rgb(255, 255, 255); stroke-opacity: 1; stroke-width: 1px;"/><path class="xgrid crisp" transform="translate(249.79,0)" d="M0,70v380" style="stroke: rgb(255, 255, 255); stroke-opacity: 1; stroke-width: 1px;"/><path class="xgrid crisp" transform="translate(329.44,0)" d="M0,70v380" style="stroke: rgb(255, 255, 255); stroke-opacity: 1; stroke-width: 1px;"/><path class="xgrid crisp" transform="translate(409.1,0)" d="M0,70v380" style="stroke: rgb(255, 255, 255); stroke-opacity: 1; stroke-width: 1px;"/><path class="xgrid crisp" transform="translate(490.06,0)" d="M0,70v380" style="stroke: rgb(255, 255, 255); stroke-opacity: 1; stroke-width: 1px;"/><path class="xgrid crisp" transform="translate(569.71,0)" d="M0,70v380" style="stroke: rgb(255, 255, 255); stroke-opacity: 1; stroke-width: 1px;"/><path class="xgrid crisp" transform="translate(649.37,0)" d="M0,70v380" style="stroke: rgb(255, 255, 255); stroke-opacity: 1; stroke-width: 1px;"/><path class="xgrid crisp" transform="translate(726.41,0)" d="M0,70v380" style="stroke: rgb(255, 255, 255); stroke-opacity: 1; stroke-width: 1px;"/></g><g class="y"/></g><g class="zerolinelayer"/><path class="xlines-below"/><path class="ylines-below"/><g class="overlines-below"/><g class="xaxislayer-below"/><g class="yaxislayer-below"/><g class="overaxes-below"/><g class="plot" transform="translate(50, 70)" clip-path="url('#clipe7735bxyplot')"><g class="scatterlayer mlayer"><g class="trace scatter tracece2ce3" style="stroke-miterlimit: 2;"><g class="fills"><g><path class="js-fill" d="M673.8,380L-177.59,380L-177.59,379.64L-137.11,380L-135.8,380L-58.76,379.06L-57.46,378.38L-49.62,376.44L-48.32,376.63L-40.48,376.05L-39.17,375.82L-35.26,374.08L-33.95,374.08L-31.34,372.68L-30.03,372.52L-23.5,373.3L-22.2,373.36L-19.59,372.65L-18.28,371.52L-11.75,370.74L-10.45,370.48L-7.83,371.26L-6.53,371.42L-5.22,372.36L-3.92,372.16L-1.31,372.91L0,372.42L2.61,372.13L3.92,370.03L10.45,360.28L11.75,360.25L14.36,357.73L15.67,357.4L19.59,356.24L20.89,356.2L22.2,355.75L23.5,353.71L24.81,352.58L26.12,349.7L30.03,346.88L31.34,344.35L32.65,343.06L33.95,342.99L35.26,344.58L36.56,344.58L37.87,345.58L39.17,345.52L40.48,348.04L41.79,347.36L44.4,349.02L45.7,350.83L48.32,351.9L49.62,351.64L52.23,359.05L53.54,359.12L56.15,361.38L57.46,361.38L60.07,365.27L61.37,364.04L62.68,366.6L63.98,366.73L66.6,366.73L67.9,368.18L69.21,369.96L70.51,370.38L79.65,375.08L80.96,374.98L84.88,374.82L86.18,374.76L95.32,374.98L96.63,374.5L108.38,374.08L109.69,375.14L120.14,374.2L121.44,374.2L125.36,372.1L126.66,371.87L127.97,369.93L129.28,370.19L131.89,369.87L133.19,369.83L134.5,370.58L135.8,370.38L137.11,370.74L138.42,370.13L141.03,370.45L142.33,369.7L143.64,369.51L144.95,368.41L152.78,365.24L154.09,363.42L161.92,363.94L163.23,366.18L169.76,367.5L171.06,368.25L173.67,368.77L174.98,368.09L177.59,368.47L178.9,368.93L180.2,369.45L181.51,368.86L185.43,369.9L186.73,370.09L195.87,368.96L197.18,369.28L202.4,370.77L203.71,370.55L205.01,370.61L206.32,369.74L211.54,365.79L212.85,365.79L215.46,363.97L216.77,363.46L220.68,363.23L221.99,363.39L225.91,363.94L227.21,363.91L231.13,362.91L232.44,361.22L233.74,359.67L235.05,359.28L240.27,358.34L241.58,361.58L242.88,360.64L244.19,360.77L245.49,360.32L246.8,360.9L249.41,360.83L250.72,358.24L253.33,359.76L254.63,360.44L258.55,360.67L259.86,360.96L261.16,361.77L262.47,361.19L266.39,361.84L267.69,362.06L269,362.97L270.3,362.81L274.22,365.04L275.53,366.3L278.14,366.11L279.44,366.92L283.36,369.61L284.67,369.67L285.97,369.8L287.28,370.9L291.2,373.27L292.5,373.2L293.81,372.39L295.11,372.62L299.03,372.84L300.34,371.74L302.95,371.71L304.26,371.71L305.56,372.88L306.87,372.26L316.01,372.36L317.31,373.14L319.92,374.79L321.23,375.18L323.84,375.53L325.15,376.15L330.37,377.31L331.68,377.31L335.59,378.19L336.9,378.48L344.74,379L346.04,379.06L351.26,379.13L352.57,378.87L366.93,377.05L368.24,376.92L370.85,375.92L372.16,376.37L374.77,373.23L376.08,372.36L377.38,372.23L378.69,370.22L381.3,364.72L382.6,364.23L385.22,361L386.52,360.83L389.13,356.79L390.44,355.69L393.05,354.16L394.36,354.36L395.66,354.2L396.97,354.97L399.58,355.52L400.89,354.62L402.19,353.22L403.5,353.19L407.41,352.74L408.72,352.84L413.94,355.59L415.25,355.78L416.56,355.56L417.86,356.66L419.17,356.59L420.47,357.3L423.08,357.37L424.39,359.08L425.7,360.93L427,361.45L429.61,364.2L430.92,365.2L436.14,366.21L437.45,366.76L440.06,367.76L441.37,367.73L445.28,371.45L446.59,372.1L449.2,373.59L450.51,373.65L454.42,375.21L455.73,375.27L463.56,376.02L464.87,376.34L481.85,377.05L483.15,376.96L492.29,377.35L493.6,377.44L497.52,377.41L498.82,377.05L502.74,376.5L504.05,376.34L511.88,375.5L513.19,375.21L517.1,375.18L518.41,374.66L523.63,372.46L524.94,370.45L527.55,369.38L528.86,370.58L531.47,369.41L532.77,369.51L540.61,360.9L541.91,360.54L545.83,357.17L547.14,355.17L549.75,352.61L551.05,352.03L552.36,349.18L553.67,348.47L554.97,347.88L556.28,346.13L558.89,344.13L560.2,344.81L561.5,345L562.81,344.06L565.42,342.25L566.72,342.67L571.95,341.96L573.25,343.19L574.56,344.61L575.86,344.74L577.17,345.75L578.48,345.49L581.09,346.68L582.39,345.13L585.01,340.21L586.31,343.32L587.62,342.44L588.92,334.54L594.15,300.61L595.45,299.93L596.76,296.34L598.06,279.12L600.68,258.36L601.98,252.76L603.29,247.97L604.59,231.59L605.9,232.72L607.2,221.94L608.51,216.01L609.82,202.71L613.73,161.91L615.04,156.73L620.26,61.42L621.57,44.16L622.87,28.36L624.18,25.93L625.49,6.22L626.79,3.59L629.4,0L630.71,6.05L632.02,13.34L633.32,13.89L635.93,51.41L637.24,65.76L641.16,99.91L642.46,104.61L650.3,195.52L651.6,197.92L654.21,234.37L655.52,246.77L659.44,270.83L660.74,272.83L663.35,295.14L664.66,302.33L668.58,317.25L669.88,317.97L671.19,321.59L672.5,322.69L673.8,324.35" style="fill: rgb(8, 115, 191); fill-opacity: 0.2; stroke-width: 0;"/></g></g><g class="errorbars"/><g class="lines"><path class="js-line" d="M-177.59,379.64L-137.11,380L-135.8,380L-58.76,379.06L-57.46,378.38L-49.62,376.44L-48.32,376.63L-40.48,376.05L-39.17,375.82L-35.26,374.08L-33.95,374.08L-31.34,372.68L-30.03,372.52L-23.5,373.3L-22.2,373.36L-19.59,372.65L-18.28,371.52L-11.75,370.74L-10.45,370.48L-7.83,371.26L-6.53,371.42L-5.22,372.36L-3.92,372.16L-1.31,372.91L0,372.42L2.61,372.13L3.92,370.03L10.45,360.28L11.75,360.25L14.36,357.73L15.67,357.4L19.59,356.24L20.89,356.2L22.2,355.75L23.5,353.71L24.81,352.58L26.12,349.7L30.03,346.88L31.34,344.35L32.65,343.06L33.95,342.99L35.26,344.58L36.56,344.58L37.87,345.58L39.17,345.52L40.48,348.04L41.79,347.36L44.4,349.02L45.7,350.83L48.32,351.9L49.62,351.64L52.23,359.05L53.54,359.12L56.15,361.38L57.46,361.38L60.07,365.27L61.37,364.04L62.68,366.6L63.98,366.73L66.6,366.73L67.9,368.18L69.21,369.96L70.51,370.38L79.65,375.08L80.96,374.98L84.88,374.82L86.18,374.76L95.32,374.98L96.63,374.5L108.38,374.08L109.69,375.14L120.14,374.2L121.44,374.2L125.36,372.1L126.66,371.87L127.97,369.93L129.28,370.19L131.89,369.87L133.19,369.83L134.5,370.58L135.8,370.38L137.11,370.74L138.42,370.13L141.03,370.45L142.33,369.7L143.64,369.51L144.95,368.41L152.78,365.24L154.09,363.42L161.92,363.94L163.23,366.18L169.76,367.5L171.06,368.25L173.67,368.77L174.98,368.09L177.59,368.47L178.9,368.93L180.2,369.45L181.51,368.86L185.43,369.9L186.73,370.09L195.87,368.96L197.18,369.28L202.4,370.77L203.71,370.55L205.01,370.61L206.32,369.74L211.54,365.79L212.85,365.79L215.46,363.97L216.77,363.46L220.68,363.23L221.99,363.39L225.91,363.94L227.21,363.91L231.13,362.91L232.44,361.22L233.74,359.67L235.05,359.28L240.27,358.34L241.58,361.58L242.88,360.64L244.19,360.77L245.49,360.32L246.8,360.9L249.41,360.83L250.72,358.24L253.33,359.76L254.63,360.44L258.55,360.67L259.86,360.96L261.16,361.77L262.47,361.19L266.39,361.84L267.69,362.06L269,362.97L270.3,362.81L274.22,365.04L275.53,366.3L278.14,366.11L279.44,366.92L283.36,369.61L284.67,369.67L285.97,369.8L287.28,370.9L291.2,373.27L292.5,373.2L293.81,372.39L295.11,372.62L299.03,372.84L300.34,371.74L302.95,371.71L304.26,371.71L305.56,372.88L306.87,372.26L316.01,372.36L317.31,373.14L319.92,374.79L321.23,375.18L323.84,375.53L325.15,376.15L330.37,377.31L331.68,377.31L335.59,378.19L336.9,378.48L344.74,379L346.04,379.06L351.26,379.13L352.57,378.87L366.93,377.05L368.24,376.92L370.85,375.92L372.16,376.37L374.77,373.23L376.08,372.36L377.38,372.23L378.69,370.22L381.3,364.72L382.6,364.23L385.22,361L386.52,360.83L389.13,356.79L390.44,355.69L393.05,354.16L394.36,354.36L395.66,354.2L396.97,354.97L399.58,355.52L400.89,354.62L402.19,353.22L403.5,353.19L407.41,352.74L408.72,352.84L413.94,355.59L415.25,355.78L416.56,355.56L417.86,356.66L419.17,356.59L420.47,357.3L423.08,357.37L424.39,359.08L425.7,360.93L427,361.45L429.61,364.2L430.92,365.2L436.14,366.21L437.45,366.76L440.06,367.76L441.37,367.73L445.28,371.45L446.59,372.1L449.2,373.59L450.51,373.65L454.42,375.21L455.73,375.27L463.56,376.02L464.87,376.34L481.85,377.05L483.15,376.96L492.29,377.35L493.6,377.44L497.52,377.41L498.82,377.05L502.74,376.5L504.05,376.34L511.88,375.5L513.19,375.21L517.1,375.18L518.41,374.66L523.63,372.46L524.94,370.45L527.55,369.38L528.86,370.58L531.47,369.41L532.77,369.51L540.61,360.9L541.91,360.54L545.83,357.17L547.14,355.17L549.75,352.61L551.05,352.03L552.36,349.18L553.67,348.47L554.97,347.88L556.28,346.13L558.89,344.13L560.2,344.81L561.5,345L562.81,344.06L565.42,342.25L566.72,342.67L571.95,341.96L573.25,343.19L574.56,344.61L575.86,344.74L577.17,345.75L578.48,345.49L581.09,346.68L582.39,345.13L585.01,340.21L586.31,343.32L587.62,342.44L588.92,334.54L594.15,300.61L595.45,299.93L596.76,296.34L598.06,279.12L600.68,258.36L601.98,252.76L603.29,247.97L604.59,231.59L605.9,232.72L607.2,221.94L608.51,216.01L609.82,202.71L613.73,161.91L615.04,156.73L620.26,61.42L621.57,44.16L622.87,28.36L624.18,25.93L625.49,6.22L626.79,3.59L629.4,0L630.71,6.05L632.02,13.34L633.32,13.89L635.93,51.41L637.24,65.76L641.16,99.91L642.46,104.61L650.3,195.52L651.6,197.92L654.21,234.37L655.52,246.77L659.44,270.83L660.74,272.83L663.35,295.14L664.66,302.33L668.58,317.25L669.88,317.97L671.19,321.59L672.5,322.69L673.8,324.35" style="vector-effect: non-scaling-stroke; fill: none; stroke: rgb(8, 115, 191); stroke-opacity: 1; stroke-width: 0.5px; opacity: 1;"/></g><g class="points"/><g class="text"/></g><g class="trace scatter traceb59075" style="stroke-miterlimit: 2;"><g class="fills"><g><path class="js-fill" d="M686.86,380L673.8,380L673.8,324.35L680.33,326.29L681.64,325.41L684.25,322.37L685.55,319.78L686.86,317.25" style="fill: rgb(8, 115, 191); fill-opacity: 0.4; stroke-width: 0;"/></g></g><g class="errorbars"/><g class="lines"><path class="js-line" d="M673.8,324.35L680.33,326.29L681.64,325.41L684.25,322.37L685.55,319.78L686.86,317.25" style="vector-effect: non-scaling-stroke; fill: none; stroke: rgb(8, 115, 191); stroke-opacity: 1; stroke-width: 2px; opacity: 1;"/></g><g class="points"/><g class="text"/></g><g class="trace scatter trace94062f" style="stroke-miterlimit: 2; opacity: 1;"><g class="fills"/><g class="errorbars"/><g class="lines"/><g class="points"><path class="point" transform="translate(686.86,317.25)" d="M15,0A15,15 0 1,1 0,-15A15,15 0 0,1 15,0Z" style="opacity: 1; stroke-width: 0px; fill: rgb(8, 115, 191); fill-opacity: 1;"/></g><g class="text"/></g></g></g><g class="overplot"/><path class="xlines-above crisp" style="fill: none; stroke-width: 1px; stroke: rgb(0, 0, 0); stroke-opacity: 0;" d=""/><path class="ylines-above crisp" style="fill: none;" d="M0,0"/><g class="overlines-above"/><g class="xaxislayer-above"><path class="xtick ticks crisp" d="M0,450v-5" transform="translate(93.09,0)" style="stroke: rgb(68, 68, 68); stroke-opacity: 1; stroke-width: 1px;"/><path class="xtick ticks crisp" d="M0,450v-5" transform="translate(172.75,0)" style="stroke: rgb(68, 68, 68); stroke-opacity: 1; stroke-width: 1px;"/><path class="xtick ticks crisp" d="M0,450v-5" transform="translate(249.79,0)" style="stroke: rgb(68, 68, 68); stroke-opacity: 1; stroke-width: 1px;"/><path class="xtick ticks crisp" d="M0,450v-5" transform="translate(329.44,0)" style="stroke: rgb(68, 68, 68); stroke-opacity: 1; stroke-width: 1px;"/><path class="xtick ticks crisp" d="M0,450v-5" transform="translate(409.1,0)" style="stroke: rgb(68, 68, 68); stroke-opacity: 1; stroke-width: 1px;"/><path class="xtick ticks crisp" d="M0,450v-5" transform="translate(490.06,0)" style="stroke: rgb(68, 68, 68); stroke-opacity: 1; stroke-width: 1px;"/><path class="xtick ticks crisp" d="M0,450v-5" transform="translate(569.71,0)" style="stroke: rgb(68, 68, 68); stroke-opacity: 1; stroke-width: 1px;"/><path class="xtick ticks crisp" d="M0,450v-5" transform="translate(649.37,0)" style="stroke: rgb(68, 68, 68); stroke-opacity: 1; stroke-width: 1px;"/><path class="xtick ticks crisp" d="M0,450v-5" transform="translate(726.41,0)" style="stroke: rgb(68, 68, 68); stroke-opacity: 1; stroke-width: 1px;"/><g class="xtick"><text text-anchor="middle" x="0" y="469" transform="translate(93.09,0)" style="font-family: 'Open Sans', verdana, arial, sans-serif; font-size: 18px; fill: rgb(42, 63, 95); fill-opacity: 1; white-space: pre;">01/11</text></g><g class="xtick"><text text-anchor="middle" x="0" y="469" transform="translate(172.75,0)" style="font-family: 'Open Sans', verdana, arial, sans-serif; font-size: 18px; fill: rgb(42, 63, 95); fill-opacity: 1; white-space: pre;">01/01</text></g><g class="xtick"><text text-anchor="middle" x="0" y="469" transform="translate(249.79,0)" style="font-family: 'Open Sans', verdana, arial, sans-serif; font-size: 18px; fill: rgb(42, 63, 95); fill-opacity: 1; white-space: pre;">01/03</text></g><g class="xtick"><text text-anchor="middle" x="0" y="469" transform="translate(329.44,0)" style="font-family: 'Open Sans', verdana, arial, sans-serif; font-size: 18px; fill: rgb(42, 63, 95); fill-opacity: 1; white-space: pre;">01/05</text></g><g class="xtick"><text text-anchor="middle" x="0" y="469" transform="translate(409.1,0)" style="font-family: 'Open Sans', verdana, arial, sans-serif; font-size: 18px; fill: rgb(42, 63, 95); fill-opacity: 1; white-space: pre;">01/07</text></g><g class="xtick"><text text-anchor="middle" x="0" y="469" transform="translate(490.06,0)" style="font-family: 'Open Sans', verdana, arial, sans-serif; font-size: 18px; fill: rgb(42, 63, 95); fill-opacity: 1; white-space: pre;">01/09</text></g><g class="xtick"><text text-anchor="middle" x="0" y="469" transform="translate(569.71,0)" style="font-family: 'Open Sans', verdana, arial, sans-serif; font-size: 18px; fill: rgb(42, 63, 95); fill-opacity: 1; white-space: pre;">01/11</text></g><g class="xtick"><text text-anchor="middle" x="0" y="469" transform="translate(649.37,0)" style="font-family: 'Open Sans', verdana, arial, sans-serif; font-size: 18px; fill: rgb(42, 63, 95); fill-opacity: 1; white-space: pre;">01/01</text></g><g class="xtick"><text text-anchor="middle" x="0" y="469" transform="translate(726.41,0)" style="font-family: 'Open Sans', verdana, arial, sans-serif; font-size: 18px; fill: rgb(42, 63, 95); fill-opacity: 1; white-space: pre;">01/03</text></g></g><g class="yaxislayer-above"/><g class="overaxes-above"/></g></g><g class="polarlayer"/><g class="ternarylayer"/><g class="geolayer"/><g class="funnelarealayer"/><g class="pielayer"/><g class="treemaplayer"/><g class="sunburstlayer"/><g class="glimages"/><defs id="topdefs-e7735b"><g class="clips"/></defs><g class="layer-above"><g class="imagelayer"/><g class="shapelayer"><path data-index="0" fill-rule="evenodd" d="M-683.87,445.75L270.68,445.75" clip-path="url('#clipe7735bxy')" style="opacity: 1; stroke: rgb(255, 0, 0); stroke-opacity: 1; fill: rgb(0, 0, 0); fill-opacity: 0; stroke-dasharray: 3px, 3px; stroke-width: 1.5px;"/></g></g><g class="infolayer"><g class="g-gtitle"><text class="gtitle" x="375" y="25" text-anchor="middle" dy="0.7em" style="font-family: 'Open Sans', verdana, arial, sans-serif; font-size: 50px; fill: rgb(42, 63, 95); opacity: 1; font-weight: normal; white-space: pre;"><tspan style="font-weight:bold">Tarn-et-Garonne (82)</tspan></text></g><g class="g-xtitle"/><g class="annotation" data-index="0" style="opacity: 1;"><g class="annotation-text-g" transform="rotate(0,694.86,327.25)"><g class="cursor-pointer" transform="translate(637, 291)"><rect class="bg" x="0.5" y="0.5" width="115" height="71" style="stroke-width: 1px; stroke: rgb(0, 0, 0); stroke-opacity: 0; fill: rgb(255, 255, 255); fill-opacity: 0.6;"/><text class="annotation-text" text-anchor="middle" x="57.8125" y="55.5" style="font-family: 'Open Sans', verdana, arial, sans-serif; font-size: 50px; fill: rgb(8, 115, 191); fill-opacity: 1; white-space: pre;"> <tspan style="font-weight:bold">737 </tspan></text></g></g><g class="annotation-arrow-g" style="opacity: 1;"><path d="M723.26,362.75L734.86,377.25" style="stroke-width: 1px; stroke: rgb(8, 115, 191); stroke-opacity: 1; stroke-dasharray: 0px, 0px, 18.569px, 18.569px;"/></g></g></g></svg>