<svg class="main-svg" xmlns="http://www.w3.org/2000/svg" xmlns:xlink="http://www.w3.org/1999/xlink" width="1125" height="750" style="" viewBox="0 0 750 500"><rect x="0" y="0" width="750" height="500" style="fill: rgb(0, 0, 0); fill-opacity: 0;"/><defs id="defs-fee05f"><g class="clips"><clipPath id="clipfee05fxyplot" class="plotclip"><rect width="700" height="380"/></clipPath><clipPath class="axesclip" id="clipfee05fx"><rect x="50" y="0" width="700" height="500"/></clipPath><clipPath class="axesclip" id="clipfee05fy"><rect x="0" y="70" width="750" height="380"/></clipPath><clipPath class="axesclip" id="clipfee05fxy"><rect x="50" y="70" width="700" height="380"/></clipPath></g><g class="gradients"/></defs><g class="bglayer"><rect class="bg" x="50" y="70" width="700" height="380" style="fill: rgb(0, 0, 0); fill-opacity: 0; stroke-width: 0;"/></g><g class="layer-below"><g class="imagelayer"/><g class="shapelayer"/></g><g class="cartesianlayer"><g class="subplot xy"><g class="layer-subplot"><g class="shapelayer"/><g class="imagelayer"/></g><g class="gridlayer"><g class="x"><path class="xgrid crisp" transform="translate(102.38,0)" d="M0,70v380" style="stroke: rgb(255, 255, 255); stroke-opacity: 1; stroke-width: 1px;"/><path class="xgrid crisp" transform="translate(199.21,0)" d="M0,70v380" style="stroke: rgb(255, 255, 255); stroke-opacity: 1; stroke-width: 1px;"/><path class="xgrid crisp" transform="translate(292.86,0)" d="M0,70v380" style="stroke: rgb(255, 255, 255); stroke-opacity: 1; stroke-width: 1px;"/><path class="xgrid crisp" transform="translate(389.68,0)" d="M0,70v380" style="stroke: rgb(255, 255, 255); stroke-opacity: 1; stroke-width: 1px;"/><path class="xgrid crisp" transform="translate(486.51,0)" d="M0,70v380" style="stroke: rgb(255, 255, 255); stroke-opacity: 1; stroke-width: 1px;"/><path class="xgrid crisp" transform="translate(584.92,0)" d="M0,70v380" style="stroke: rgb(255, 255, 255); stroke-opacity: 1; stroke-width: 1px;"/><path class="xgrid crisp" transform="translate(681.75,0)" d="M0,70v380" style="stroke: rgb(255, 255, 255); stroke-opacity: 1; stroke-width: 1px;"/></g><g class="y"/></g><g class="zerolinelayer"/><path class="xlines-below"/><path class="ylines-below"/><g class="overlines-below"/><g class="xaxislayer-below"/><g class="yaxislayer-below"/><g class="overaxes-below"/><g class="plot" transform="translate(50, 70)" clip-path="url('#clipfee05fxyplot')"><g class="scatterlayer mlayer"><g class="trace scatter tracef49476" style="stroke-miterlimit: 2;"><g class="fills"><g><path class="js-fill" d="M673.02,380L-215.87,380L-215.87,343.68L-214.29,341.58L-212.7,345.79L-207.94,358.42L-206.35,365.26L-204.76,366.84L-203.17,374.74L-201.59,374.74L-200,371.58L-193.65,372.11L-192.06,367.37L-187.3,365.26L-185.71,364.74L-182.54,360.53L-180.95,364.74L-171.43,368.42L-169.84,370.53L-161.9,371.58L-160.32,373.68L-146.03,378.42L-144.44,378.42L-136.51,377.37L-134.92,377.89L-119.05,377.89L-117.46,377.37L-109.52,378.42L-107.94,378.42L-100,377.37L-98.41,377.37L-84.13,376.32L-82.54,374.74L-79.37,371.58L-77.78,370.53L-73.02,370L-71.43,371.58L-68.25,375.79L-66.67,376.32L-61.9,375.26L-60.32,374.74L-57.14,365.79L-55.56,364.74L-52.38,363.16L-50.79,364.74L-49.21,365.26L-47.62,368.95L-46.03,371.05L-44.44,371.05L-41.27,370L-39.68,367.89L-38.1,365.79L-36.51,360.53L-34.92,355.79L-33.33,355.26L-31.75,354.21L-30.16,354.74L-28.57,354.74L-26.98,348.42L-23.81,353.16L-22.22,351.05L-19.05,351.05L-17.46,349.47L-15.87,356.84L-14.29,355.79L-12.7,354.74L-11.11,355.79L-7.94,356.32L-6.35,354.74L-4.76,353.68L-3.17,344.21L-1.59,336.32L0,335.26L1.59,330.53L3.17,330L4.76,328.95L6.35,323.16L9.52,335.26L11.11,326.84L12.7,330L14.29,330L15.87,323.16L17.46,320.53L19.05,318.42L20.63,305.26L23.81,291.05L25.4,290.53L26.98,276.84L28.57,271.05L30.16,250L31.75,238.95L34.92,201.05L36.51,197.89L38.1,167.89L39.68,122.63L41.27,103.16L42.86,95.26L46.03,65.26L47.62,64.74L49.21,40L50.79,30L52.38,28.42L53.97,6.84L55.56,0L57.14,14.74L58.73,14.21L60.32,36.84L61.9,66.84L63.49,115.79L66.67,168.42L68.25,177.37L69.84,181.58L71.43,199.47L73.02,210L74.6,188.42L77.78,207.89L79.37,207.89L80.95,206.32L82.54,212.63L84.13,222.11L85.71,220L87.3,226.32L88.89,222.63L90.48,230L92.06,230.53L93.65,234.74L95.24,229.47L96.83,232.11L98.41,227.37L100,220L101.59,207.89L103.17,207.37L104.76,194.21L106.35,177.37L107.94,177.89L109.52,173.16L111.11,149.47L112.7,136.84L114.29,134.74L115.87,122.63L117.46,102.63L120.63,56.84L122.22,73.16L123.81,84.21L125.4,85.79L126.98,75.79L128.57,82.11L130.16,73.16L131.75,102.63L133.33,144.21L134.92,134.21L136.51,133.16L138.1,147.89L141.27,158.95L142.86,158.95L144.44,155.79L146.03,146.84L147.62,147.89L149.21,131.58L150.79,120L152.38,126.84L153.97,125.79L155.56,94.21L157.14,111.58L158.73,110.53L163.49,148.95L165.08,143.16L168.25,157.37L169.84,159.47L171.43,157.37L173.02,160L174.6,142.63L176.19,141.58L177.78,139.47L179.37,142.63L180.95,142.63L182.54,148.42L185.71,202.63L187.3,211.05L188.89,214.74L190.48,214.21L192.06,213.68L193.65,235.79L198.41,246.32L200,253.68L201.59,241.58L203.17,244.21L204.76,241.58L206.35,243.16L207.94,241.05L209.52,247.89L211.11,245.26L212.7,263.16L214.29,262.63L215.87,260L217.46,261.58L219.05,270.53L220.63,263.16L222.22,275.26L223.81,273.68L225.4,273.16L226.98,270.53L228.57,270.53L230.16,271.05L231.75,281.58L233.33,271.05L234.92,270L236.51,268.95L238.1,276.32L246.03,243.16L247.62,240L249.21,222.63L250.79,220L252.38,201.58L253.97,196.84L257.14,189.47L258.73,190.53L260.32,178.42L261.9,160.53L263.49,151.05L265.08,135.79L266.67,120.53L268.25,121.05L269.84,122.63L271.43,111.58L273.02,105.26L274.6,105.26L276.19,99.47L277.78,81.58L279.37,73.16L280.95,74.74L282.54,53.16L284.13,44.21L285.71,37.37L287.3,46.32L288.89,58.95L290.48,52.63L292.06,43.16L293.65,126.84L295.24,90L296.83,92.11L298.41,74.21L300,65.79L303.17,84.21L304.76,25.79L306.35,72.63L307.94,80L311.11,118.42L312.7,115.79L314.29,115.26L315.87,124.74L317.46,122.11L319.05,126.84L320.63,117.89L322.22,123.16L323.81,122.11L325.4,123.16L326.98,132.11L328.57,152.63L331.75,192.11L333.33,200.53L334.92,223.16L336.51,224.21L338.1,228.42L339.68,239.47L341.27,240.53L342.86,248.42L344.44,259.47L346.03,263.68L347.62,264.74L349.21,280L352.38,292.11L353.97,304.74L357.14,294.21L358.73,294.74L360.32,298.42L361.9,295.26L363.49,296.84L365.08,283.68L366.67,291.58L368.25,293.16L369.84,293.16L371.43,317.37L373.02,314.74L374.6,306.84L376.19,306.84L377.78,314.74L379.37,310.53L380.95,310.53L382.54,300L384.13,315.79L385.71,327.37L387.3,332.63L388.89,330L390.48,337.37L392.06,337.37L393.65,341.05L395.24,338.95L396.83,341.05L400,355.26L401.59,357.37L403.17,357.89L404.76,360L406.35,361.05L407.94,365.79L409.52,364.21L411.11,365.26L412.7,363.68L414.29,363.68L419.05,371.58L420.63,373.68L422.22,373.68L423.81,374.74L425.4,374.74L426.98,376.32L431.75,376.84L433.33,377.37L439.68,373.68L441.27,373.16L442.86,371.05L444.44,371.05L446.03,370.53L447.62,371.05L449.21,372.11L450.79,370.53L453.97,369.47L455.56,366.84L457.14,358.95L458.73,357.89L461.9,341.05L463.49,336.84L465.08,333.16L466.67,320L468.25,325.79L469.84,326.84L473.02,325.26L474.6,323.16L476.19,317.89L477.78,326.84L479.37,323.68L480.95,323.16L482.54,322.11L484.13,323.16L485.71,312.63L487.3,309.47L488.89,306.32L490.48,301.05L492.06,300L493.65,295.26L495.24,287.89L496.83,291.58L500,294.21L501.59,299.47L503.17,298.42L504.76,295.79L506.35,301.58L507.94,302.63L511.11,303.16L512.7,307.37L514.29,309.47L515.87,320L519.05,320.53L520.63,318.42L522.22,313.68L523.81,311.58L525.4,312.11L526.98,304.74L528.57,300L530.16,304.74L531.75,312.11L533.33,313.68L534.92,306.32L536.51,304.21L538.1,308.42L539.68,318.42L542.86,323.68L544.44,326.32L546.03,332.63L547.62,332.63L549.21,336.32L550.79,335.26L552.38,338.95L553.97,339.47L555.56,344.21L557.14,345.26L558.73,346.32L560.32,351.58L561.9,351.05L563.49,352.11L565.08,354.74L566.67,355.26L569.84,357.37L571.43,358.42L573.02,358.42L574.6,357.37L576.19,355.26L577.78,358.42L579.37,362.11L580.95,362.11L582.54,363.68L584.13,368.95L587.3,373.16L588.89,371.58L590.48,367.37L592.06,367.89L593.65,363.16L595.24,355.26L596.83,348.95L598.41,347.89L600,348.42L601.59,350L603.17,350L604.76,352.11L607.94,360L609.52,360L614.29,354.74L615.87,351.58L622.22,337.89L623.81,337.37L625.4,339.47L626.98,344.74L630.16,336.84L631.75,340L633.33,333.68L634.92,333.68L636.51,331.58L638.1,314.74L639.68,318.42L641.27,315.26L644.44,322.63L646.03,317.89L647.62,319.47L649.21,311.58L653.97,269.47L655.56,254.21L658.73,243.16L660.32,222.11L661.9,215.79L663.49,194.21L668.25,144.21L669.84,145.26L671.43,139.47L673.02,130" style="fill: rgb(8, 115, 191); fill-opacity: 0.2; stroke-width: 0;"/></g></g><g class="errorbars"/><g class="lines"><path class="js-line" d="M-215.87,343.68L-214.29,341.58L-212.7,345.79L-207.94,358.42L-206.35,365.26L-204.76,366.84L-203.17,374.74L-201.59,374.74L-200,371.58L-193.65,372.11L-192.06,367.37L-187.3,365.26L-185.71,364.74L-182.54,360.53L-180.95,364.74L-171.43,368.42L-169.84,370.53L-161.9,371.58L-160.32,373.68L-146.03,378.42L-144.44,378.42L-136.51,377.37L-134.92,377.89L-119.05,377.89L-117.46,377.37L-109.52,378.42L-107.94,378.42L-100,377.37L-98.41,377.37L-84.13,376.32L-82.54,374.74L-79.37,371.58L-77.78,370.53L-73.02,370L-71.43,371.58L-68.25,375.79L-66.67,376.32L-61.9,375.26L-60.32,374.74L-57.14,365.79L-55.56,364.74L-52.38,363.16L-50.79,364.74L-49.21,365.26L-47.62,368.95L-46.03,371.05L-44.44,371.05L-41.27,370L-39.68,367.89L-38.1,365.79L-36.51,360.53L-34.92,355.79L-33.33,355.26L-31.75,354.21L-30.16,354.74L-28.57,354.74L-26.98,348.42L-23.81,353.16L-22.22,351.05L-19.05,351.05L-17.46,349.47L-15.87,356.84L-14.29,355.79L-12.7,354.74L-11.11,355.79L-7.94,356.32L-6.35,354.74L-4.76,353.68L-3.17,344.21L-1.59,336.32L0,335.26L1.59,330.53L3.17,330L4.76,328.95L6.35,323.16L9.52,335.26L11.11,326.84L12.7,330L14.29,330L15.87,323.16L17.46,320.53L19.05,318.42L20.63,305.26L23.81,291.05L25.4,290.53L26.98,276.84L28.57,271.05L30.16,250L31.75,238.95L34.92,201.05L36.51,197.89L38.1,167.89L39.68,122.63L41.27,103.16L42.86,95.26L46.03,65.26L47.62,64.74L49.21,40L50.79,30L52.38,28.42L53.97,6.84L55.56,0L57.14,14.74L58.73,14.21L60.32,36.84L61.9,66.84L63.49,115.79L66.67,168.42L68.25,177.37L69.84,181.58L71.43,199.47L73.02,210L74.6,188.42L77.78,207.89L79.37,207.89L80.95,206.32L82.54,212.63L84.13,222.11L85.71,220L87.3,226.32L88.89,222.63L90.48,230L92.06,230.53L93.65,234.74L95.24,229.47L96.83,232.11L98.41,227.37L100,220L101.59,207.89L103.17,207.37L104.76,194.21L106.35,177.37L107.94,177.89L109.52,173.16L111.11,149.47L112.7,136.84L114.29,134.74L115.87,122.63L117.46,102.63L120.63,56.84L122.22,73.16L123.81,84.21L125.4,85.79L126.98,75.79L128.57,82.11L130.16,73.16L131.75,102.63L133.33,144.21L134.92,134.21L136.51,133.16L138.1,147.89L141.27,158.95L142.86,158.95L144.44,155.79L146.03,146.84L147.62,147.89L149.21,131.58L150.79,120L152.38,126.84L153.97,125.79L155.56,94.21L157.14,111.58L158.73,110.53L163.49,148.95L165.08,143.16L168.25,157.37L169.84,159.47L171.43,157.37L173.02,160L174.6,142.63L176.19,141.58L177.78,139.47L179.37,142.63L180.95,142.63L182.54,148.42L185.71,202.63L187.3,211.05L188.89,214.74L190.48,214.21L192.06,213.68L193.65,235.79L198.41,246.32L200,253.68L201.59,241.58L203.17,244.21L204.76,241.58L206.35,243.16L207.94,241.05L209.52,247.89L211.11,245.26L212.7,263.16L214.29,262.63L215.87,260L217.46,261.58L219.05,270.53L220.63,263.16L222.22,275.26L223.81,273.68L225.4,273.16L226.98,270.53L228.57,270.53L230.16,271.05L231.75,281.58L233.33,271.05L234.92,270L236.51,268.95L238.1,276.32L246.03,243.16L247.62,240L249.21,222.63L250.79,220L252.38,201.58L253.97,196.84L257.14,189.47L258.73,190.53L260.32,178.42L261.9,160.53L263.49,151.05L265.08,135.79L266.67,120.53L268.25,121.05L269.84,122.63L271.43,111.58L273.02,105.26L274.6,105.26L276.19,99.47L277.78,81.58L279.37,73.16L280.95,74.74L282.54,53.16L284.13,44.21L285.71,37.37L287.3,46.32L288.89,58.95L290.48,52.63L292.06,43.16L293.65,126.84L295.24,90L296.83,92.11L298.41,74.21L300,65.79L303.17,84.21L304.76,25.79L306.35,72.63L307.94,80L311.11,118.42L312.7,115.79L314.29,115.26L315.87,124.74L317.46,122.11L319.05,126.84L320.63,117.89L322.22,123.16L323.81,122.11L325.4,123.16L326.98,132.11L328.57,152.63L331.75,192.11L333.33,200.53L334.92,223.16L336.51,224.21L338.1,228.42L339.68,239.47L341.27,240.53L342.86,248.42L344.44,259.47L346.03,263.68L347.62,264.74L349.21,280L352.38,292.11L353.97,304.74L357.14,294.21L358.73,294.74L360.32,298.42L361.9,295.26L363.49,296.84L365.08,283.68L366.67,291.58L368.25,293.16L369.84,293.16L371.43,317.37L373.02,314.74L374.6,306.84L376.19,306.84L377.78,314.74L379.37,310.53L380.95,310.53L382.54,300L384.13,315.79L385.71,327.37L387.3,332.63L388.89,330L390.48,337.37L392.06,337.37L393.65,341.05L395.24,338.95L396.83,341.05L400,355.26L401.59,357.37L403.17,357.89L404.76,360L406.35,361.05L407.94,365.79L409.52,364.21L411.11,365.26L412.7,363.68L414.29,363.68L419.05,371.58L420.63,373.68L422.22,373.68L423.81,374.74L425.4,374.74L426.98,376.32L431.75,376.84L433.33,377.37L439.68,373.68L441.27,373.16L442.86,371.05L444.44,371.05L446.03,370.53L447.62,371.05L449.21,372.11L450.79,370.53L453.97,369.47L455.56,366.84L457.14,358.95L458.73,357.89L461.9,341.05L463.49,336.84L465.08,333.16L466.67,320L468.25,325.79L469.84,326.84L473.02,325.26L474.6,323.16L476.19,317.89L477.78,326.84L479.37,323.68L480.95,323.16L482.54,322.11L484.13,323.16L485.71,312.63L487.3,309.47L488.89,306.32L490.48,301.05L492.06,300L493.65,295.26L495.24,287.89L496.83,291.58L500,294.21L501.59,299.47L503.17,298.42L504.76,295.79L506.35,301.58L507.94,302.63L511.11,303.16L512.7,307.37L514.29,309.47L515.87,320L519.05,320.53L520.63,318.42L522.22,313.68L523.81,311.58L525.4,312.11L526.98,304.74L528.57,300L530.16,304.74L531.75,312.11L533.33,313.68L534.92,306.32L536.51,304.21L538.1,308.42L539.68,318.42L542.86,323.68L544.44,326.32L546.03,332.63L547.62,332.63L549.21,336.32L550.79,335.26L552.38,338.95L553.97,339.47L555.56,344.21L557.14,345.26L558.73,346.32L560.32,351.58L561.9,351.05L563.49,352.11L565.08,354.74L566.67,355.26L569.84,357.37L571.43,358.42L573.02,358.42L574.6,357.37L576.19,355.26L577.78,358.42L579.37,362.11L580.95,362.11L582.54,363.68L584.13,368.95L587.3,373.16L588.89,371.58L590.48,367.37L592.06,367.89L593.65,363.16L595.24,355.26L596.83,348.95L598.41,347.89L600,348.42L601.59,350L603.17,350L604.76,352.11L607.94,360L609.52,360L614.29,354.74L615.87,351.58L622.22,337.89L623.81,337.37L625.4,339.47L626.98,344.74L630.16,336.84L631.75,340L633.33,333.68L634.92,333.68L636.51,331.58L638.1,314.74L639.68,318.42L641.27,315.26L644.44,322.63L646.03,317.89L647.62,319.47L649.21,311.58L653.97,269.47L655.56,254.21L658.73,243.16L660.32,222.11L661.9,215.79L663.49,194.21L668.25,144.21L669.84,145.26L671.43,139.47L673.02,130" style="vector-effect: non-scaling-stroke; fill: none; stroke: rgb(8, 115, 191); stroke-opacity: 1; stroke-width: 0.5px; opacity: 1;"/></g><g class="points"/><g class="text"/></g><g class="trace scatter trace5ccb06" style="stroke-miterlimit: 2;"><g class="fills"><g><path class="js-fill" d="M688.89,380L673.02,380L673.02,130L674.6,134.21L676.19,128.42L677.78,125.79L679.37,126.84L680.95,129.47L682.54,106.32L685.71,89.47L687.3,85.79L688.89,84.21" style="fill: rgb(8, 115, 191); fill-opacity: 0.4; stroke-width: 0;"/></g></g><g class="errorbars"/><g class="lines"><path class="js-line" d="M673.02,130L674.6,134.21L676.19,128.42L677.78,125.79L679.37,126.84L680.95,129.47L682.54,106.32L685.71,89.47L687.3,85.79L688.89,84.21" style="vector-effect: non-scaling-stroke; fill: none; stroke: rgb(8, 115, 191); stroke-opacity: 1; stroke-width: 2px; opacity: 1;"/></g><g class="points"/><g class="text"/></g><g class="trace scatter trace31ac4c" style="stroke-miterlimit: 2; opacity: 1;"><g class="fills"/><g class="errorbars"/><g class="lines"/><g class="points"><path class="point" transform="translate(688.89,84.21)" d="M15,0A15,15 0 1,1 0,-15A15,15 0 0,1 15,0Z" style="opacity: 1; stroke-width: 0px; fill: rgb(8, 115, 191); fill-opacity: 1;"/></g><g class="text"/></g></g></g><g class="overplot"/><path class="xlines-above crisp" style="fill: none; stroke-width: 1px; stroke: rgb(0, 0, 0); stroke-opacity: 0;" d=""/><path class="ylines-above crisp" style="fill: none;" d="M0,0"/><g class="overlines-above"/><g class="xaxislayer-above"><path class="xtick ticks crisp" d="M0,450v-5" transform="translate(102.38,0)" style="stroke: rgb(68, 68, 68); stroke-opacity: 1; stroke-width: 1px;"/><path class="xtick ticks crisp" d="M0,450v-5" transform="translate(199.21,0)" style="stroke: rgb(68, 68, 68); stroke-opacity: 1; stroke-width: 1px;"/><path class="xtick ticks crisp" d="M0,450v-5" transform="translate(292.86,0)" style="stroke: rgb(68, 68, 68); stroke-opacity: 1; stroke-width: 1px;"/><path class="xtick ticks crisp" d="M0,450v-5" transform="translate(389.68,0)" style="stroke: rgb(68, 68, 68); stroke-opacity: 1; stroke-width: 1px;"/><path class="xtick ticks crisp" d="M0,450v-5" transform="translate(486.51,0)" style="stroke: rgb(68, 68, 68); stroke-opacity: 1; stroke-width: 1px;"/><path class="xtick ticks crisp" d="M0,450v-5" transform="translate(584.92,0)" style="stroke: rgb(68, 68, 68); stroke-opacity: 1; stroke-width: 1px;"/><path class="xtick ticks crisp" d="M0,450v-5" transform="translate(681.75,0)" style="stroke: rgb(68, 68, 68); stroke-opacity: 1; stroke-width: 1px;"/><g class="xtick"><text text-anchor="middle" x="0" y="469" transform="translate(102.38,0)" style="font-family: 'Open Sans', verdana, arial, sans-serif; font-size: 18px; fill: rgb(42, 63, 95); fill-opacity: 1; white-space: pre;">01/11</text></g><g class="xtick"><text text-anchor="middle" x="0" y="469" transform="translate(199.21,0)" style="font-family: 'Open Sans', verdana, arial, sans-serif; font-size: 18px; fill: rgb(42, 63, 95); fill-opacity: 1; white-space: pre;">01/01</text></g><g class="xtick"><text text-anchor="middle" x="0" y="469" transform="translate(292.86,0)" style="font-family: 'Open Sans', verdana, arial, sans-serif; font-size: 18px; fill: rgb(42, 63, 95); fill-opacity: 1; white-space: pre;">01/03</text></g><g class="xtick"><text text-anchor="middle" x="0" y="469" transform="translate(389.68,0)" style="font-family: 'Open Sans', verdana, arial, sans-serif; font-size: 18px; fill: rgb(42, 63, 95); fill-opacity: 1; white-space: pre;">01/05</text></g><g class="xtick"><text text-anchor="middle" x="0" y="469" transform="translate(486.51,0)" style="font-family: 'Open Sans', verdana, arial, sans-serif; font-size: 18px; fill: rgb(42, 63, 95); fill-opacity: 1; white-space: pre;">01/07</text></g><g class="xtick"><text text-anchor="middle" x="0" y="469" transform="translate(584.92,0)" style="font-family: 'Open Sans', verdana, arial, sans-serif; font-size: 18px; fill: rgb(42, 63, 95); fill-opacity: 1; white-space: pre;">01/09</text></g><g class="xtick"><text text-anchor="middle" x="0" y="469" transform="translate(681.75,0)" style="font-family: 'Open Sans', verdana, arial, sans-serif; font-size: 18px; fill: rgb(42, 63, 95); fill-opacity: 1; white-space: pre;">01/11</text></g></g><g class="yaxislayer-above"/><g class="overaxes-above"/></g></g><g class="polarlayer"/><g class="ternarylayer"/><g class="geolayer"/><g class="funnelarealayer"/><g class="pielayer"/><g class="treemaplayer"/><g class="sunburstlayer"/><g class="glimages"/><defs id="topdefs-fee05f"><g class="clips"/></defs><g class="layer-above"><g class="imagelayer"/><g class="shapelayer"><path data-index="0" fill-rule="evenodd" d="M-842.06,402.2L318.25,402.2" clip-path="url('#clipfee05fxy')" style="opacity: 1; stroke: rgb(255, 0, 0); stroke-opacity: 1; fill: rgb(0, 0, 0); fill-opacity: 0; stroke-dasharray: 3px, 3px; stroke-width: 1.5px;"/></g></g><g class="infolayer"><g class="g-gtitle"><text class="gtitle" x="375" y="25" text-anchor="middle" dy="0.7em" style="font-family: 'Open Sans', verdana, arial, sans-serif; font-size: 50px; fill: rgb(42, 63, 95); opacity: 1; font-weight: normal; white-space: pre;"><tspan style="font-weight:bold">Meuse (55)</tspan></text></g><g class="g-xtitle"/><g class="annotation" data-index="0" style="opacity: 1;"><g class="annotation-text-g" transform="rotate(0,696.89,94.20999999999998)"><g class="cursor-pointer" transform="translate(639, 58)"><rect class="bg" x="0.5" y="0.5" width="115" height="71" style="stroke-width: 1px; stroke: rgb(0, 0, 0); stroke-opacity: 0; fill: rgb(255, 255, 255); fill-opacity: 0.6;"/><text class="annotation-text" text-anchor="middle" x="57.8125" y="55.5" style="font-family: 'Open Sans', verdana, arial, sans-serif; font-size: 50px; fill: rgb(8, 115, 191); fill-opacity: 1; white-space: pre;"> <tspan style="font-weight:bold">309 </tspan></text></g></g><g class="annotation-arrow-g" style="opacity: 1;"><path d="M725.29,129.70999999999998L736.89,144.20999999999998" style="stroke-width: 1px; stroke: rgb(8, 115, 191); stroke-opacity: 1; stroke-dasharray: 0px, 0px, 18.5691px, 18.5691px;"/></g></g></g></svg>