<svg class="main-svg" xmlns="http://www.w3.org/2000/svg" xmlns:xlink="http://www.w3.org/1999/xlink" width="1125" height="750" style="" viewBox="0 0 750 500"><rect x="0" y="0" width="750" height="500" style="fill: rgb(0, 0, 0); fill-opacity: 0;"/><defs id="defs-eea4f7"><g class="clips"><clipPath id="clipeea4f7xyplot" class="plotclip"><rect width="700" height="380"/></clipPath><clipPath class="axesclip" id="clipeea4f7x"><rect x="50" y="0" width="700" height="500"/></clipPath><clipPath class="axesclip" id="clipeea4f7y"><rect x="0" y="70" width="750" height="380"/></clipPath><clipPath class="axesclip" id="clipeea4f7xy"><rect x="50" y="70" width="700" height="380"/></clipPath></g><g class="gradients"/></defs><g class="bglayer"><rect class="bg" x="50" y="70" width="700" height="380" style="fill: rgb(0, 0, 0); fill-opacity: 0; stroke-width: 0;"/></g><g class="layer-below"><g class="imagelayer"/><g class="shapelayer"/></g><g class="cartesianlayer"><g class="subplot xy"><g class="layer-subplot"><g class="shapelayer"/><g class="imagelayer"/></g><g class="gridlayer"><g class="x"><path class="xgrid crisp" transform="translate(102.86,0)" d="M0,70v380" style="stroke: rgb(255, 255, 255); stroke-opacity: 1; stroke-width: 1px;"/><path class="xgrid crisp" transform="translate(200.57,0)" d="M0,70v380" style="stroke: rgb(255, 255, 255); stroke-opacity: 1; stroke-width: 1px;"/><path class="xgrid crisp" transform="translate(295.08000000000004,0)" d="M0,70v380" style="stroke: rgb(255, 255, 255); stroke-opacity: 1; stroke-width: 1px;"/><path class="xgrid crisp" transform="translate(392.79,0)" d="M0,70v380" style="stroke: rgb(255, 255, 255); stroke-opacity: 1; stroke-width: 1px;"/><path class="xgrid crisp" transform="translate(490.5,0)" d="M0,70v380" style="stroke: rgb(255, 255, 255); stroke-opacity: 1; stroke-width: 1px;"/><path class="xgrid crisp" transform="translate(589.82,0)" d="M0,70v380" style="stroke: rgb(255, 255, 255); stroke-opacity: 1; stroke-width: 1px;"/><path class="xgrid crisp" transform="translate(687.53,0)" d="M0,70v380" style="stroke: rgb(255, 255, 255); stroke-opacity: 1; stroke-width: 1px;"/></g><g class="y"/></g><g class="zerolinelayer"/><path class="xlines-below"/><path class="ylines-below"/><g class="overlines-below"/><g class="xaxislayer-below"/><g class="yaxislayer-below"/><g class="overaxes-below"/><g class="plot" transform="translate(50, 70)" clip-path="url('#clipeea4f7xyplot')"><g class="scatterlayer mlayer"><g class="trace scatter trace85cb00" style="stroke-miterlimit: 2;"><g class="fills"><g><path class="js-fill" d="M672.77,380L-217.85,380L-217.85,377.72L-208.24,374.29L-206.64,374.86L-193.82,378.86L-192.22,379.05L-181.01,379.43L-179.41,378.86L-163.39,379.05L-161.78,379.62L-112.13,377.91L-110.53,377.15L-100.92,377.53L-99.31,378.29L-73.68,376.96L-72.08,376.77L-64.07,373.72L-62.47,373.72L-59.27,370.3L-57.67,371.06L-49.66,368.01L-48.05,368.39L-46.45,365.54L-44.85,365.54L-41.65,365.73L-40.05,363.64L-38.44,362.11L-36.84,362.49L-28.83,360.21L-27.23,362.11L-22.43,355.45L-20.82,355.45L-17.62,355.45L-16.02,354.31L-12.81,360.02L-11.21,359.64L-8.01,361.54L-6.41,362.49L-4.81,363.06L-3.2,362.11L-1.6,361.54L0,357.55L1.6,356.21L3.2,356.4L6.41,350.13L8.01,344.99L12.81,328.05L14.42,327.67L16.02,319.68L17.62,306.93L19.22,304.27L20.82,294.37L24.03,282.95L25.63,280.67L30.43,195.23L32.04,165.93L33.64,132.06L35.24,120.83L36.84,120.83L38.44,77.07L44.85,16.94L46.45,8.56L49.66,6.47L51.26,0L52.86,1.52L54.46,18.46L57.67,39.39L59.27,41.48L62.47,71.93L64.07,125.78L65.68,116.45L67.28,127.11L68.88,138.72L70.48,139.48L73.68,200.94L75.29,186.86L78.49,251.75L80.09,251.94L81.69,250.8L83.3,257.84L86.5,266.02L88.1,272.87L89.7,273.82L91.3,277.82L92.91,277.06L94.51,278.96L96.11,286L97.71,285.62L99.31,285.43L100.92,278.77L102.52,279.53L104.12,281.81L105.72,278.2L107.32,272.49L108.92,267.92L110.53,258.79L112.13,266.4L113.73,262.4L115.33,262.02L116.93,251.94L118.54,249.46L120.14,244.33L121.74,237.86L123.34,225.87L126.54,209.88L128.15,205.7L129.75,198.66L131.35,198.85L132.95,209.12L134.55,235.95L140.96,260.31L142.56,254.98L144.16,248.89L145.77,248.32L147.37,239.76L148.97,240.14L150.57,232.91L152.17,231.39L153.78,238.43L155.38,234.24L156.98,213.69L158.58,223.2L160.18,222.63L161.78,236.91L163.39,237.1L164.99,235.38L166.59,243.57L168.19,245.66L169.79,248.13L171.4,249.08L174.6,253.84L176.2,253.27L177.8,255.36L179.41,251.18L181.01,247.56L182.61,247.75L184.21,245.66L185.81,250.04L187.41,258.22L189.02,259.17L192.22,268.49L193.82,268.11L195.42,275.15L197.03,272.11L200.23,272.87L201.83,274.77L203.43,275.91L205.03,276.1L206.64,273.25L208.24,280.1L209.84,283.72L211.44,291.9L213.04,301.79L214.65,302.74L216.25,303.51L217.85,308.83L219.45,305.6L221.05,304.08L222.65,301.79L224.26,290.95L227.46,290.95L229.06,292.28L232.27,301.98L233.87,301.6L235.47,306.93L237.07,306.74L238.67,306.93L240.27,315.3L243.48,316.25L245.08,317.97L246.68,319.11L248.28,319.11L249.89,318.35L251.49,305.6L259.5,289.42L261.1,289.99L262.7,292.28L264.3,289.99L265.9,286.57L267.51,287.71L269.11,286.38L270.71,287.33L272.31,286.95L273.91,283.91L275.51,281.81L277.12,274.2L278.72,263.36L280.32,260.88L281.92,254.98L283.52,254.6L285.13,241.85L286.73,237.1L288.33,236.33L289.93,232.72L291.53,227.2L293.14,228.34L294.74,227.39L296.34,260.31L297.94,246.42L299.54,242.23L302.75,250.42L304.35,248.13L305.95,248.89L307.55,212.93L309.15,220.73L310.76,222.63L313.96,229.67L315.56,228.91L317.16,228.53L318.76,241.66L320.37,250.23L321.97,253.27L323.57,247.94L325.17,239.76L326.77,242.61L328.38,242.99L329.98,242.61L331.58,243.76L334.78,256.89L336.38,264.69L337.99,276.87L339.59,277.82L342.79,282.95L344.39,287.14L347.6,297.61L349.2,296.85L354,295.7L355.61,291.14L357.21,299.51L358.81,295.89L360.41,289.04L362.01,288.85L363.62,293.8L365.22,293.99L366.82,290.95L368.42,277.63L370.02,284.67L371.62,285.81L373.23,286.38L374.83,302.74L376.43,296.08L378.03,303.7L379.63,303.89L381.24,304.84L382.84,306.93L384.44,307.31L386.04,299.51L387.64,314.73L392.45,339.47L394.05,343.27L395.65,343.47L397.25,348.22L400.46,355.45L402.06,357.36L403.66,360.78L405.26,360.97L406.86,360.97L408.47,362.68L411.67,364.59L413.27,365.92L418.08,368.39L419.68,370.49L421.28,372.58L422.88,372.96L429.29,371.63L430.89,372.58L435.7,372.58L437.3,373.34L440.5,373.34L442.11,372.39L446.91,372.2L448.51,371.44L453.32,369.15L454.92,367.44L456.52,368.39L458.12,366.68L459.73,367.06L461.33,365.73L462.93,365.35L464.53,361.73L470.94,342.89L472.54,340.8L474.14,340.61L475.74,334.52L478.95,329.95L480.55,327.67L482.15,326.53L483.75,326.72L485.35,327.1L486.96,329L488.56,332.43L490.16,330.91L491.76,330.15L493.36,327.86L494.97,326.53L496.57,326.34L499.77,313.78L501.37,310.93L504.58,311.69L506.18,310.36L507.78,309.59L509.38,313.4L510.98,318.92L512.59,320.44L517.39,326.72L518.99,327.48L520.59,328.24L522.2,327.67L523.8,333.57L525.4,334.52L527,334.71L528.6,336.61L530.21,337L531.81,342.89L533.41,345.56L535.01,346.32L538.22,351.08L539.82,351.08L543.02,350.7L544.62,350.89L546.22,350.32L547.83,348.41L549.43,348.98L551.03,347.27L552.63,347.46L554.23,350.32L555.84,351.84L557.44,355.07L560.64,362.87L562.24,366.3L563.84,366.49L565.45,367.63L567.05,368.01L568.65,366.68L570.25,364.59L571.85,364.4L573.46,362.87L575.06,362.87L576.66,363.45L578.26,362.68L579.86,362.49L581.46,364.02L583.07,364.4L584.67,366.11L586.27,366.3L587.87,364.78L589.47,364.59L591.08,365.54L597.48,364.78L599.08,367.63L600.69,368.77L602.29,368.39L603.89,366.87L605.49,366.87L608.7,366.49L610.3,364.4L615.1,364.97L616.7,363.64L618.31,361.54L619.91,361.16L621.51,361.73L623.11,361.16L624.71,357.93L626.32,356.59L629.52,352.79L631.12,352.79L632.72,354.12L634.32,345.37L639.13,327.86L640.73,326.34L642.33,326.34L643.94,312.83L645.54,312.83L647.14,313.59L648.74,323.1L650.34,318.16L651.95,313.59L653.55,313.21L655.15,314.54L656.75,314.16L658.35,309.78L659.95,293.23L661.56,289.61L663.16,289.42L664.76,288.09L666.36,280.67L667.96,275.15L669.57,272.87L671.17,270.4L672.77,266.21" style="fill: rgb(8, 115, 191); fill-opacity: 0.2; stroke-width: 0;"/></g></g><g class="errorbars"/><g class="lines"><path class="js-line" d="M-217.85,377.72L-208.24,374.29L-206.64,374.86L-193.82,378.86L-192.22,379.05L-181.01,379.43L-179.41,378.86L-163.39,379.05L-161.78,379.62L-112.13,377.91L-110.53,377.15L-100.92,377.53L-99.31,378.29L-73.68,376.96L-72.08,376.77L-64.07,373.72L-62.47,373.72L-59.27,370.3L-57.67,371.06L-49.66,368.01L-48.05,368.39L-46.45,365.54L-44.85,365.54L-41.65,365.73L-40.05,363.64L-38.44,362.11L-36.84,362.49L-28.83,360.21L-27.23,362.11L-22.43,355.45L-20.82,355.45L-17.62,355.45L-16.02,354.31L-12.81,360.02L-11.21,359.64L-8.01,361.54L-6.41,362.49L-4.81,363.06L-3.2,362.11L-1.6,361.54L0,357.55L1.6,356.21L3.2,356.4L6.41,350.13L8.01,344.99L12.81,328.05L14.42,327.67L16.02,319.68L17.62,306.93L19.22,304.27L20.82,294.37L24.03,282.95L25.63,280.67L30.43,195.23L32.04,165.93L33.64,132.06L35.24,120.83L36.84,120.83L38.44,77.07L44.85,16.94L46.45,8.56L49.66,6.47L51.26,0L52.86,1.52L54.46,18.46L57.67,39.39L59.27,41.48L62.47,71.93L64.07,125.78L65.68,116.45L67.28,127.11L68.88,138.72L70.48,139.48L73.68,200.94L75.29,186.86L78.49,251.75L80.09,251.94L81.69,250.8L83.3,257.84L86.5,266.02L88.1,272.87L89.7,273.82L91.3,277.82L92.91,277.06L94.51,278.96L96.11,286L97.71,285.62L99.31,285.43L100.92,278.77L102.52,279.53L104.12,281.81L105.72,278.2L107.32,272.49L108.92,267.92L110.53,258.79L112.13,266.4L113.73,262.4L115.33,262.02L116.93,251.94L118.54,249.46L120.14,244.33L121.74,237.86L123.34,225.87L126.54,209.88L128.15,205.7L129.75,198.66L131.35,198.85L132.95,209.12L134.55,235.95L140.96,260.31L142.56,254.98L144.16,248.89L145.77,248.32L147.37,239.76L148.97,240.14L150.57,232.91L152.17,231.39L153.78,238.43L155.38,234.24L156.98,213.69L158.58,223.2L160.18,222.63L161.78,236.91L163.39,237.1L164.99,235.38L166.59,243.57L168.19,245.66L169.79,248.13L171.4,249.08L174.6,253.84L176.2,253.27L177.8,255.36L179.41,251.18L181.01,247.56L182.61,247.75L184.21,245.66L185.81,250.04L187.41,258.22L189.02,259.17L192.22,268.49L193.82,268.11L195.42,275.15L197.03,272.11L200.23,272.87L201.83,274.77L203.43,275.91L205.03,276.1L206.64,273.25L208.24,280.1L209.84,283.72L211.44,291.9L213.04,301.79L214.65,302.74L216.25,303.51L217.85,308.83L219.45,305.6L221.05,304.08L222.65,301.79L224.26,290.95L227.46,290.95L229.06,292.28L232.27,301.98L233.87,301.6L235.47,306.93L237.07,306.74L238.67,306.93L240.27,315.3L243.48,316.25L245.08,317.97L246.68,319.11L248.28,319.11L249.89,318.35L251.49,305.6L259.5,289.42L261.1,289.99L262.7,292.28L264.3,289.99L265.9,286.57L267.51,287.71L269.11,286.38L270.71,287.33L272.31,286.95L273.91,283.91L275.51,281.81L277.12,274.2L278.72,263.36L280.32,260.88L281.92,254.98L283.52,254.6L285.13,241.85L286.73,237.1L288.33,236.33L289.93,232.72L291.53,227.2L293.14,228.34L294.74,227.39L296.34,260.31L297.94,246.42L299.54,242.23L302.75,250.42L304.35,248.13L305.95,248.89L307.55,212.93L309.15,220.73L310.76,222.63L313.96,229.67L315.56,228.91L317.16,228.53L318.76,241.66L320.37,250.23L321.97,253.27L323.57,247.94L325.17,239.76L326.77,242.61L328.38,242.99L329.98,242.61L331.58,243.76L334.78,256.89L336.38,264.69L337.99,276.87L339.59,277.82L342.79,282.95L344.39,287.14L347.6,297.61L349.2,296.85L354,295.7L355.61,291.14L357.21,299.51L358.81,295.89L360.41,289.04L362.01,288.85L363.62,293.8L365.22,293.99L366.82,290.95L368.42,277.63L370.02,284.67L371.62,285.81L373.23,286.38L374.83,302.74L376.43,296.08L378.03,303.7L379.63,303.89L381.24,304.84L382.84,306.93L384.44,307.31L386.04,299.51L387.64,314.73L392.45,339.47L394.05,343.27L395.65,343.47L397.25,348.22L400.46,355.45L402.06,357.36L403.66,360.78L405.26,360.97L406.86,360.97L408.47,362.68L411.67,364.59L413.27,365.92L418.08,368.39L419.68,370.49L421.28,372.58L422.88,372.96L429.29,371.63L430.89,372.58L435.7,372.58L437.3,373.34L440.5,373.34L442.11,372.39L446.91,372.2L448.51,371.44L453.32,369.15L454.92,367.44L456.52,368.39L458.12,366.68L459.73,367.06L461.33,365.73L462.93,365.35L464.53,361.73L470.94,342.89L472.54,340.8L474.14,340.61L475.74,334.52L478.95,329.95L480.55,327.67L482.15,326.53L483.75,326.72L485.35,327.1L486.96,329L488.56,332.43L490.16,330.91L491.76,330.15L493.36,327.86L494.97,326.53L496.57,326.34L499.77,313.78L501.37,310.93L504.58,311.69L506.18,310.36L507.78,309.59L509.38,313.4L510.98,318.92L512.59,320.44L517.39,326.72L518.99,327.48L520.59,328.24L522.2,327.67L523.8,333.57L525.4,334.52L527,334.71L528.6,336.61L530.21,337L531.81,342.89L533.41,345.56L535.01,346.32L538.22,351.08L539.82,351.08L543.02,350.7L544.62,350.89L546.22,350.32L547.83,348.41L549.43,348.98L551.03,347.27L552.63,347.46L554.23,350.32L555.84,351.84L557.44,355.07L560.64,362.87L562.24,366.3L563.84,366.49L565.45,367.63L567.05,368.01L568.65,366.68L570.25,364.59L571.85,364.4L573.46,362.87L575.06,362.87L576.66,363.45L578.26,362.68L579.86,362.49L581.46,364.02L583.07,364.4L584.67,366.11L586.27,366.3L587.87,364.78L589.47,364.59L591.08,365.54L597.48,364.78L599.08,367.63L600.69,368.77L602.29,368.39L603.89,366.87L605.49,366.87L608.7,366.49L610.3,364.4L615.1,364.97L616.7,363.64L618.31,361.54L619.91,361.16L621.51,361.73L623.11,361.16L624.71,357.93L626.32,356.59L629.52,352.79L631.12,352.79L632.72,354.12L634.32,345.37L639.13,327.86L640.73,326.34L642.33,326.34L643.94,312.83L645.54,312.83L647.14,313.59L648.74,323.1L650.34,318.16L651.95,313.59L653.55,313.21L655.15,314.54L656.75,314.16L658.35,309.78L659.95,293.23L661.56,289.61L663.16,289.42L664.76,288.09L666.36,280.67L667.96,275.15L669.57,272.87L671.17,270.4L672.77,266.21" style="vector-effect: non-scaling-stroke; fill: none; stroke: rgb(8, 115, 191); stroke-opacity: 1; stroke-width: 0.5px; opacity: 1;"/></g><g class="points"/><g class="text"/></g><g class="trace scatter trace7230ac" style="stroke-miterlimit: 2;"><g class="fills"><g><path class="js-fill" d="M688.79,380L672.77,380L672.77,266.21L674.37,260.69L675.97,260.31L685.58,206.65L687.19,206.84L688.79,188.57" style="fill: rgb(8, 115, 191); fill-opacity: 0.4; stroke-width: 0;"/></g></g><g class="errorbars"/><g class="lines"><path class="js-line" d="M672.77,266.21L674.37,260.69L675.97,260.31L685.58,206.65L687.19,206.84L688.79,188.57" style="vector-effect: non-scaling-stroke; fill: none; stroke: rgb(8, 115, 191); stroke-opacity: 1; stroke-width: 2px; opacity: 1;"/></g><g class="points"/><g class="text"/></g><g class="trace scatter trace611860" style="stroke-miterlimit: 2; opacity: 1;"><g class="fills"/><g class="errorbars"/><g class="lines"/><g class="points"><path class="point" transform="translate(688.79,188.57)" d="M15,0A15,15 0 1,1 0,-15A15,15 0 0,1 15,0Z" style="opacity: 1; stroke-width: 0px; fill: rgb(8, 115, 191); fill-opacity: 1;"/></g><g class="text"/></g></g></g><g class="overplot"/><path class="xlines-above crisp" style="fill: none; stroke-width: 1px; stroke: rgb(0, 0, 0); stroke-opacity: 0;" d=""/><path class="ylines-above crisp" style="fill: none;" d="M0,0"/><g class="overlines-above"/><g class="xaxislayer-above"><path class="xtick ticks crisp" d="M0,450v-5" transform="translate(102.86,0)" style="stroke: rgb(68, 68, 68); stroke-opacity: 1; stroke-width: 1px;"/><path class="xtick ticks crisp" d="M0,450v-5" transform="translate(200.57,0)" style="stroke: rgb(68, 68, 68); stroke-opacity: 1; stroke-width: 1px;"/><path class="xtick ticks crisp" d="M0,450v-5" transform="translate(295.08000000000004,0)" style="stroke: rgb(68, 68, 68); stroke-opacity: 1; stroke-width: 1px;"/><path class="xtick ticks crisp" d="M0,450v-5" transform="translate(392.79,0)" style="stroke: rgb(68, 68, 68); stroke-opacity: 1; stroke-width: 1px;"/><path class="xtick ticks crisp" d="M0,450v-5" transform="translate(490.5,0)" style="stroke: rgb(68, 68, 68); stroke-opacity: 1; stroke-width: 1px;"/><path class="xtick ticks crisp" d="M0,450v-5" transform="translate(589.82,0)" style="stroke: rgb(68, 68, 68); stroke-opacity: 1; stroke-width: 1px;"/><path class="xtick ticks crisp" d="M0,450v-5" transform="translate(687.53,0)" style="stroke: rgb(68, 68, 68); stroke-opacity: 1; stroke-width: 1px;"/><g class="xtick"><text text-anchor="middle" x="0" y="469" transform="translate(102.86,0)" style="font-family: 'Open Sans', verdana, arial, sans-serif; font-size: 18px; fill: rgb(42, 63, 95); fill-opacity: 1; white-space: pre;">01/11</text></g><g class="xtick"><text text-anchor="middle" x="0" y="469" transform="translate(200.57,0)" style="font-family: 'Open Sans', verdana, arial, sans-serif; font-size: 18px; fill: rgb(42, 63, 95); fill-opacity: 1; white-space: pre;">01/01</text></g><g class="xtick"><text text-anchor="middle" x="0" y="469" transform="translate(295.08000000000004,0)" style="font-family: 'Open Sans', verdana, arial, sans-serif; font-size: 18px; fill: rgb(42, 63, 95); fill-opacity: 1; white-space: pre;">01/03</text></g><g class="xtick"><text text-anchor="middle" x="0" y="469" transform="translate(392.79,0)" style="font-family: 'Open Sans', verdana, arial, sans-serif; font-size: 18px; fill: rgb(42, 63, 95); fill-opacity: 1; white-space: pre;">01/05</text></g><g class="xtick"><text text-anchor="middle" x="0" y="469" transform="translate(490.5,0)" style="font-family: 'Open Sans', verdana, arial, sans-serif; font-size: 18px; fill: rgb(42, 63, 95); fill-opacity: 1; white-space: pre;">01/07</text></g><g class="xtick"><text text-anchor="middle" x="0" y="469" transform="translate(589.82,0)" style="font-family: 'Open Sans', verdana, arial, sans-serif; font-size: 18px; fill: rgb(42, 63, 95); fill-opacity: 1; white-space: pre;">01/09</text></g><g class="xtick"><text text-anchor="middle" x="0" y="469" transform="translate(687.53,0)" style="font-family: 'Open Sans', verdana, arial, sans-serif; font-size: 18px; fill: rgb(42, 63, 95); fill-opacity: 1; white-space: pre;">01/11</text></g></g><g class="yaxislayer-above"/><g class="overaxes-above"/></g></g><g class="polarlayer"/><g class="ternarylayer"/><g class="geolayer"/><g class="funnelarealayer"/><g class="pielayer"/><g class="treemaplayer"/><g class="sunburstlayer"/><g class="glimages"/><defs id="topdefs-eea4f7"><g class="clips"/></defs><g class="layer-above"><g class="imagelayer"/><g class="shapelayer"><path data-index="0" fill-rule="evenodd" d="M-850.23,418.48L320.71,418.48" clip-path="url('#clipeea4f7xy')" style="opacity: 1; stroke: rgb(255, 0, 0); stroke-opacity: 1; fill: rgb(0, 0, 0); fill-opacity: 0; stroke-dasharray: 3px, 3px; stroke-width: 1.5px;"/></g></g><g class="infolayer"><g class="g-gtitle"><text class="gtitle" x="375" y="25" text-anchor="middle" dy="0.7em" style="font-family: 'Open Sans', verdana, arial, sans-serif; font-size: 50px; fill: rgb(42, 63, 95); opacity: 1; font-weight: normal; white-space: pre;"><tspan style="font-weight:bold">Allier (03)</tspan></text></g><g class="g-xtitle"/><g class="annotation" data-index="0" style="opacity: 1;"><g class="annotation-text-g" transform="rotate(0,696.79,198.57)"><g class="cursor-pointer" transform="translate(639, 163)"><rect class="bg" x="0.5" y="0.5" width="115" height="71" style="stroke-width: 1px; stroke: rgb(0, 0, 0); stroke-opacity: 0; fill: rgb(255, 255, 255); fill-opacity: 0.6;"/><text class="annotation-text" text-anchor="middle" x="57.8125" y="55.5" style="font-family: 'Open Sans', verdana, arial, sans-serif; font-size: 50px; fill: rgb(8, 115, 191); fill-opacity: 1; white-space: pre;"> <tspan style="font-weight:bold">303 </tspan></text></g></g><g class="annotation-arrow-g" style="opacity: 1;"><path d="M725.1899999999999,234.07L736.79,248.57" style="stroke-width: 1px; stroke: rgb(8, 115, 191); stroke-opacity: 1; stroke-dasharray: 0px, 0px, 18.569px, 18.569px;"/></g></g></g></svg>