<svg class="main-svg" xmlns="http://www.w3.org/2000/svg" xmlns:xlink="http://www.w3.org/1999/xlink" width="1125" height="750" style="" viewBox="0 0 750 500"><rect x="0" y="0" width="750" height="500" style="fill: rgb(0, 0, 0); fill-opacity: 0;"/><defs id="defs-0c057a"><g class="clips"><clipPath id="clip0c057axyplot" class="plotclip"><rect width="695" height="380"/></clipPath><clipPath class="axesclip" id="clip0c057ax"><rect x="50" y="0" width="695" height="500"/></clipPath><clipPath class="axesclip" id="clip0c057ay"><rect x="0" y="70" width="750" height="380"/></clipPath><clipPath class="axesclip" id="clip0c057axy"><rect x="50" y="70" width="695" height="380"/></clipPath></g><g class="gradients"/></defs><g class="bglayer"><rect class="bg" x="50" y="70" width="695" height="380" style="fill: rgb(0, 0, 0); fill-opacity: 0; stroke-width: 0;"/></g><g class="layer-below"><g class="imagelayer"/><g class="shapelayer"/></g><g class="cartesianlayer"><g class="subplot xy"><g class="layer-subplot"><g class="shapelayer"/><g class="imagelayer"/></g><g class="gridlayer"><g class="x"><path class="xgrid crisp" transform="translate(106.08,0)" d="M0,70v380" style="stroke: rgb(255, 255, 255); stroke-opacity: 1; stroke-width: 1px;"/><path class="xgrid crisp" transform="translate(209.73,0)" d="M0,70v380" style="stroke: rgb(255, 255, 255); stroke-opacity: 1; stroke-width: 1px;"/><path class="xgrid crisp" transform="translate(309.99,0)" d="M0,70v380" style="stroke: rgb(255, 255, 255); stroke-opacity: 1; stroke-width: 1px;"/><path class="xgrid crisp" transform="translate(413.64,0)" d="M0,70v380" style="stroke: rgb(255, 255, 255); stroke-opacity: 1; stroke-width: 1px;"/><path class="xgrid crisp" transform="translate(517.3,0)" d="M0,70v380" style="stroke: rgb(255, 255, 255); stroke-opacity: 1; stroke-width: 1px;"/><path class="xgrid crisp" transform="translate(622.65,0)" d="M0,70v380" style="stroke: rgb(255, 255, 255); stroke-opacity: 1; stroke-width: 1px;"/><path class="xgrid crisp" transform="translate(726.31,0)" d="M0,70v380" style="stroke: rgb(255, 255, 255); stroke-opacity: 1; stroke-width: 1px;"/></g><g class="y"/></g><g class="zerolinelayer"/><path class="xlines-below"/><path class="ylines-below"/><g class="overlines-below"/><g class="xaxislayer-below"/><g class="yaxislayer-below"/><g class="overaxes-below"/><g class="plot" transform="translate(50, 70)" clip-path="url('#clip0c057axyplot')"><g class="scatterlayer mlayer"><g class="trace scatter trace12a423" style="stroke-miterlimit: 2;"><g class="fills"><g><path class="js-fill" d="M666.11,380L-231.1,380L-231.1,379.03L-103.66,378.42L-101.96,377.54L-98.56,374.55L-96.86,374.11L-91.76,373.94L-90.06,373.15L-86.66,372.09L-84.96,370.78L-81.56,369.11L-79.87,369.02L-76.47,366.12L-74.77,366.21L-67.97,364.63L-66.27,367L-64.57,367.61L-62.87,366.65L-59.47,368.32L-57.78,368.4L-56.08,368.4L-54.38,366.21L-50.98,364.63L-49.28,362.43L-45.88,361.03L-44.18,361.03L-40.78,363.22L-39.08,364.01L-30.59,363.22L-28.89,362.34L-22.09,363.93L-20.39,363.84L-16.99,362.7L-15.29,360.85L-10.2,355.84L-8.5,355.93L-5.1,351.98L-3.4,349.08L-1.7,349.61L0,351.36L3.4,351.01L5.1,349.17L6.8,348.38L8.5,348.64L11.89,339.94L13.59,337.92L15.29,337.66L16.99,335.82L20.39,331.78L22.09,331.51L23.79,328.79L25.49,330.37L27.19,330.37L28.89,326.42L32.29,319.74L33.99,313.94L37.38,311.13L39.08,310.78L40.78,311.22L42.48,310.61L44.18,310.69L45.88,313.33L47.58,314.03L49.28,313.77L50.98,313.94L52.68,325.19L61.17,332.21L62.87,332.65L64.57,323.43L66.27,326.42L67.97,336.96L69.67,340.03L71.37,345.13L73.07,346.71L74.77,346.62L76.47,353.03L78.17,356.46L79.87,354.44L83.26,360.76L84.96,359.88L86.66,360.06L88.36,361.9L90.06,364.54L91.76,365.59L96.86,370.69L98.56,370.86L100.26,371.3L101.96,372.97L107.05,374.99L108.75,375.08L124.05,374.03L125.75,374.38L129.14,372.36L130.84,372.01L134.24,371.57L135.94,372.01L137.64,372.18L139.34,373.24L141.04,374.11L142.74,375.96L149.54,375.96L151.23,375.08L152.93,373.24L154.63,373.15L161.43,372.01L163.13,373.32L164.83,373.94L166.53,373.41L173.33,374.47L175.02,374.29L176.72,375.34L178.42,374.64L185.22,374.38L186.92,373.59L200.51,373.59L202.21,373.5L212.41,374.03L214.11,374.64L219.21,374.64L220.9,374.29L231.1,373.59L232.8,374.64L236.2,375.43L237.9,375.17L243,374.03L244.69,372.88L249.79,369.81L251.49,369.81L258.29,369.63L259.99,370.6L261.69,371.66L263.39,371.48L270.18,369.2L271.88,367.09L275.28,361.03L276.98,361.29L282.08,350.84L283.78,348.64L285.48,346.44L287.18,347.06L288.88,347.41L290.57,344.69L295.67,334.23L297.37,332.57L299.07,330.46L300.77,329.84L305.87,317.46L307.57,315.26L309.27,321.32L310.97,319.83L312.67,319.74L314.36,330.63L316.06,325.98L317.76,324.66L319.46,319.48L321.16,306.3L322.86,307.36L324.56,307.44L326.26,297.78L327.96,303.31L329.66,305.95L331.36,313.24L333.06,318.6L334.76,320.36L336.45,320.18L338.15,318.6L339.85,318.77L341.55,323.52L346.65,327.73L348.35,328.09L351.75,337.48L353.45,340.03L356.85,349.87L358.55,351.28L360.24,351.19L361.94,355.4L365.34,361.9L367.04,362.87L370.44,365.07L372.14,365.77L375.54,367.61L377.24,367.35L378.94,369.63L380.64,370.25L384.03,369.81L385.73,371.13L387.43,371.13L389.13,372.09L390.83,370.51L392.53,371.3L395.93,371.66L397.63,373.76L399.33,372.62L401.03,372.62L404.43,372.97L406.12,372.8L407.82,372.88L409.52,371.48L412.92,373.24L414.62,373.68L418.02,373.85L419.72,373.85L428.22,373.85L429.91,373.85L433.31,373.76L435.01,373.06L440.11,372.09L441.81,372.36L445.21,371.66L446.91,371.22L450.31,369.99L452,370.69L455.4,370.25L457.1,367.97L460.5,358.57L462.2,352.24L465.6,344.16L467.3,343.81L472.4,322.9L474.1,313.5L475.79,299.1L477.49,293.3L479.19,291.72L480.89,268.18L482.59,245.95L484.29,256.76L487.69,197.12L489.39,184.47L491.09,181.39L492.79,158.99L494.49,127.9L496.19,78.53L499.58,59.47L501.28,59.82L502.98,60.61L504.68,50.86L506.38,53.76L508.08,49.02L511.48,39.09L513.18,37.95L514.88,35.31L516.58,22.84L518.28,12.47L519.98,9.31L521.67,11.77L523.37,8.7L526.77,5.09L528.47,6.32L530.17,10.45L531.87,2.28L533.57,0L535.27,12.82L536.97,13.35L538.67,15.46L542.07,39.97L543.77,56.48L547.16,84.94L548.86,93.9L550.56,95.57L552.26,117.44L555.66,150.56L557.36,161.19L559.06,171.82L560.76,174.98L562.46,175.24L564.16,186.57L565.86,197.2L567.56,214.86L570.95,241.12L572.65,246.39L574.35,247.1L576.05,257.37L582.85,284.69L584.55,287.06L586.25,288.91L587.95,294.97L589.65,301.47L591.34,304.11L593.04,305.86L594.74,310.43L596.44,309.73L598.14,310.17L601.54,316.67L603.24,321.5L604.94,325.54L606.64,325.8L608.34,329.14L610.04,328.79L613.44,338.19L615.13,338.1L616.83,337.75L618.53,338.19L621.93,337.31L623.63,334.06L625.33,330.63L627.03,330.55L632.13,329.58L633.83,330.98L635.53,331.86L637.22,334.32L638.92,333.09L640.62,335.82L642.32,339.42L644.02,340.12L645.72,339.24L647.42,340.03L649.12,338.8L650.82,339.15L655.92,336.61L657.62,337.4L662.71,343.02L664.41,342.23L666.11,343.46" style="fill: rgb(8, 115, 191); fill-opacity: 0.2; stroke-width: 0;"/></g></g><g class="errorbars"/><g class="lines"><path class="js-line" d="M-231.1,379.03L-103.66,378.42L-101.96,377.54L-98.56,374.55L-96.86,374.11L-91.76,373.94L-90.06,373.15L-86.66,372.09L-84.96,370.78L-81.56,369.11L-79.87,369.02L-76.47,366.12L-74.77,366.21L-67.97,364.63L-66.27,367L-64.57,367.61L-62.87,366.65L-59.47,368.32L-57.78,368.4L-56.08,368.4L-54.38,366.21L-50.98,364.63L-49.28,362.43L-45.88,361.03L-44.18,361.03L-40.78,363.22L-39.08,364.01L-30.59,363.22L-28.89,362.34L-22.09,363.93L-20.39,363.84L-16.99,362.7L-15.29,360.85L-10.2,355.84L-8.5,355.93L-5.1,351.98L-3.4,349.08L-1.7,349.61L0,351.36L3.4,351.01L5.1,349.17L6.8,348.38L8.5,348.64L11.89,339.94L13.59,337.92L15.29,337.66L16.99,335.82L20.39,331.78L22.09,331.51L23.79,328.79L25.49,330.37L27.19,330.37L28.89,326.42L32.29,319.74L33.99,313.94L37.38,311.13L39.08,310.78L40.78,311.22L42.48,310.61L44.18,310.69L45.88,313.33L47.58,314.03L49.28,313.77L50.98,313.94L52.68,325.19L61.17,332.21L62.87,332.65L64.57,323.43L66.27,326.42L67.97,336.96L69.67,340.03L71.37,345.13L73.07,346.71L74.77,346.62L76.47,353.03L78.17,356.46L79.87,354.44L83.26,360.76L84.96,359.88L86.66,360.06L88.36,361.9L90.06,364.54L91.76,365.59L96.86,370.69L98.56,370.86L100.26,371.3L101.96,372.97L107.05,374.99L108.75,375.08L124.05,374.03L125.75,374.38L129.14,372.36L130.84,372.01L134.24,371.57L135.94,372.01L137.64,372.18L139.34,373.24L141.04,374.11L142.74,375.96L149.54,375.96L151.23,375.08L152.93,373.24L154.63,373.15L161.43,372.01L163.13,373.32L164.83,373.94L166.53,373.41L173.33,374.47L175.02,374.29L176.72,375.34L178.42,374.64L185.22,374.38L186.92,373.59L200.51,373.59L202.21,373.5L212.41,374.03L214.11,374.64L219.21,374.64L220.9,374.29L231.1,373.59L232.8,374.64L236.2,375.43L237.9,375.17L243,374.03L244.69,372.88L249.79,369.81L251.49,369.81L258.29,369.63L259.99,370.6L261.69,371.66L263.39,371.48L270.18,369.2L271.88,367.09L275.28,361.03L276.98,361.29L282.08,350.84L283.78,348.64L285.48,346.44L287.18,347.06L288.88,347.41L290.57,344.69L295.67,334.23L297.37,332.57L299.07,330.46L300.77,329.84L305.87,317.46L307.57,315.26L309.27,321.32L310.97,319.83L312.67,319.74L314.36,330.63L316.06,325.98L317.76,324.66L319.46,319.48L321.16,306.3L322.86,307.36L324.56,307.44L326.26,297.78L327.96,303.31L329.66,305.95L331.36,313.24L333.06,318.6L334.76,320.36L336.45,320.18L338.15,318.6L339.85,318.77L341.55,323.52L346.65,327.73L348.35,328.09L351.75,337.48L353.45,340.03L356.85,349.87L358.55,351.28L360.24,351.19L361.94,355.4L365.34,361.9L367.04,362.87L370.44,365.07L372.14,365.77L375.54,367.61L377.24,367.35L378.94,369.63L380.64,370.25L384.03,369.81L385.73,371.13L387.43,371.13L389.13,372.09L390.83,370.51L392.53,371.3L395.93,371.66L397.63,373.76L399.33,372.62L401.03,372.62L404.43,372.97L406.12,372.8L407.82,372.88L409.52,371.48L412.92,373.24L414.62,373.68L418.02,373.85L419.72,373.85L428.22,373.85L429.91,373.85L433.31,373.76L435.01,373.06L440.11,372.09L441.81,372.36L445.21,371.66L446.91,371.22L450.31,369.99L452,370.69L455.4,370.25L457.1,367.97L460.5,358.57L462.2,352.24L465.6,344.16L467.3,343.81L472.4,322.9L474.1,313.5L475.79,299.1L477.49,293.3L479.19,291.72L480.89,268.18L482.59,245.95L484.29,256.76L487.69,197.12L489.39,184.47L491.09,181.39L492.79,158.99L494.49,127.9L496.19,78.53L499.58,59.47L501.28,59.82L502.98,60.61L504.68,50.86L506.38,53.76L508.08,49.02L511.48,39.09L513.18,37.95L514.88,35.31L516.58,22.84L518.28,12.47L519.98,9.31L521.67,11.77L523.37,8.7L526.77,5.09L528.47,6.32L530.17,10.45L531.87,2.28L533.57,0L535.27,12.82L536.97,13.35L538.67,15.46L542.07,39.97L543.77,56.48L547.16,84.94L548.86,93.9L550.56,95.57L552.26,117.44L555.66,150.56L557.36,161.19L559.06,171.82L560.76,174.98L562.46,175.24L564.16,186.57L565.86,197.2L567.56,214.86L570.95,241.12L572.65,246.39L574.35,247.1L576.05,257.37L582.85,284.69L584.55,287.06L586.25,288.91L587.95,294.97L589.65,301.47L591.34,304.11L593.04,305.86L594.74,310.43L596.44,309.73L598.14,310.17L601.54,316.67L603.24,321.5L604.94,325.54L606.64,325.8L608.34,329.14L610.04,328.79L613.44,338.19L615.13,338.1L616.83,337.75L618.53,338.19L621.93,337.31L623.63,334.06L625.33,330.63L627.03,330.55L632.13,329.58L633.83,330.98L635.53,331.86L637.22,334.32L638.92,333.09L640.62,335.82L642.32,339.42L644.02,340.12L645.72,339.24L647.42,340.03L649.12,338.8L650.82,339.15L655.92,336.61L657.62,337.4L662.71,343.02L664.41,342.23L666.11,343.46" style="vector-effect: non-scaling-stroke; fill: none; stroke: rgb(8, 115, 191); stroke-opacity: 1; stroke-width: 0.5px; opacity: 1;"/></g><g class="points"/><g class="text"/></g><g class="trace scatter trace18d791" style="stroke-miterlimit: 2;"><g class="fills"><g><path class="js-fill" d="M683.11,380L666.11,380L666.11,343.46L669.51,343.72L671.21,349.69L672.91,354.35L674.61,350.75L676.31,352.51L678.01,351.28L681.41,349.61L683.11,343.63" style="fill: rgb(8, 115, 191); fill-opacity: 0.4; stroke-width: 0;"/></g></g><g class="errorbars"/><g class="lines"><path class="js-line" d="M666.11,343.46L669.51,343.72L671.21,349.69L672.91,354.35L674.61,350.75L676.31,352.51L678.01,351.28L681.41,349.61L683.11,343.63" style="vector-effect: non-scaling-stroke; fill: none; stroke: rgb(8, 115, 191); stroke-opacity: 1; stroke-width: 2px; opacity: 1;"/></g><g class="points"/><g class="text"/></g><g class="trace scatter tracef8f616" style="stroke-miterlimit: 2; opacity: 1;"><g class="fills"/><g class="errorbars"/><g class="lines"/><g class="points"><path class="point" transform="translate(683.11,343.63)" d="M15,0A15,15 0 1,1 0,-15A15,15 0 0,1 15,0Z" style="opacity: 1; stroke-width: 0px; fill: rgb(8, 115, 191); fill-opacity: 1;"/></g><g class="text"/></g></g></g><g class="overplot"/><path class="xlines-above crisp" style="fill: none; stroke-width: 1px; stroke: rgb(0, 0, 0); stroke-opacity: 0;" d=""/><path class="ylines-above crisp" style="fill: none;" d="M0,0"/><g class="overlines-above"/><g class="xaxislayer-above"><path class="xtick ticks crisp" d="M0,450v-5" transform="translate(106.08,0)" style="stroke: rgb(68, 68, 68); stroke-opacity: 1; stroke-width: 1px;"/><path class="xtick ticks crisp" d="M0,450v-5" transform="translate(209.73,0)" style="stroke: rgb(68, 68, 68); stroke-opacity: 1; stroke-width: 1px;"/><path class="xtick ticks crisp" d="M0,450v-5" transform="translate(309.99,0)" style="stroke: rgb(68, 68, 68); stroke-opacity: 1; stroke-width: 1px;"/><path class="xtick ticks crisp" d="M0,450v-5" transform="translate(413.64,0)" style="stroke: rgb(68, 68, 68); stroke-opacity: 1; stroke-width: 1px;"/><path class="xtick ticks crisp" d="M0,450v-5" transform="translate(517.3,0)" style="stroke: rgb(68, 68, 68); stroke-opacity: 1; stroke-width: 1px;"/><path class="xtick ticks crisp" d="M0,450v-5" transform="translate(622.65,0)" style="stroke: rgb(68, 68, 68); stroke-opacity: 1; stroke-width: 1px;"/><path class="xtick ticks crisp" d="M0,450v-5" transform="translate(726.31,0)" style="stroke: rgb(68, 68, 68); stroke-opacity: 1; stroke-width: 1px;"/><g class="xtick"><text text-anchor="middle" x="0" y="469" transform="translate(106.08,0)" style="font-family: 'Open Sans', verdana, arial, sans-serif; font-size: 18px; fill: rgb(42, 63, 95); fill-opacity: 1; white-space: pre;">01/11</text></g><g class="xtick"><text text-anchor="middle" x="0" y="469" transform="translate(209.73,0)" style="font-family: 'Open Sans', verdana, arial, sans-serif; font-size: 18px; fill: rgb(42, 63, 95); fill-opacity: 1; white-space: pre;">01/01</text></g><g class="xtick"><text text-anchor="middle" x="0" y="469" transform="translate(309.99,0)" style="font-family: 'Open Sans', verdana, arial, sans-serif; font-size: 18px; fill: rgb(42, 63, 95); fill-opacity: 1; white-space: pre;">01/03</text></g><g class="xtick"><text text-anchor="middle" x="0" y="469" transform="translate(413.64,0)" style="font-family: 'Open Sans', verdana, arial, sans-serif; font-size: 18px; fill: rgb(42, 63, 95); fill-opacity: 1; white-space: pre;">01/05</text></g><g class="xtick"><text text-anchor="middle" x="0" y="469" transform="translate(517.3,0)" style="font-family: 'Open Sans', verdana, arial, sans-serif; font-size: 18px; fill: rgb(42, 63, 95); fill-opacity: 1; white-space: pre;">01/07</text></g><g class="xtick"><text text-anchor="middle" x="0" y="469" transform="translate(622.65,0)" style="font-family: 'Open Sans', verdana, arial, sans-serif; font-size: 18px; fill: rgb(42, 63, 95); fill-opacity: 1; white-space: pre;">01/09</text></g><g class="xtick"><text text-anchor="middle" x="0" y="469" transform="translate(726.31,0)" style="font-family: 'Open Sans', verdana, arial, sans-serif; font-size: 18px; fill: rgb(42, 63, 95); fill-opacity: 1; white-space: pre;">01/11</text></g></g><g class="yaxislayer-above"/><g class="overaxes-above"/></g></g><g class="polarlayer"/><g class="ternarylayer"/><g class="geolayer"/><g class="funnelarealayer"/><g class="pielayer"/><g class="treemaplayer"/><g class="sunburstlayer"/><g class="glimages"/><defs id="topdefs-0c057a"><g class="clips"/></defs><g class="layer-above"><g class="imagelayer"/><g class="shapelayer"><path data-index="0" fill-rule="evenodd" d="M-904.99,434.24L337.18,434.24" clip-path="url('#clip0c057axy')" style="opacity: 1; stroke: rgb(255, 0, 0); stroke-opacity: 1; fill: rgb(0, 0, 0); fill-opacity: 0; stroke-dasharray: 3px, 3px; stroke-width: 1.5px;"/></g></g><g class="infolayer"><g class="g-gtitle"><text class="gtitle" x="375" y="25" text-anchor="middle" dy="0.7em" style="font-family: 'Open Sans', verdana, arial, sans-serif; font-size: 50px; fill: rgb(42, 63, 95); opacity: 1; font-weight: normal; white-space: pre;"><tspan style="font-weight:bold">Martinique (972)</tspan></text></g><g class="g-xtitle"/><g class="annotation" data-index="0" style="opacity: 1;"><g class="annotation-text-g" transform="rotate(0,691.11,353.63)"><g class="cursor-pointer" transform="translate(633, 318)"><rect class="bg" x="0.5" y="0.5" width="115" height="71" style="stroke-width: 1px; stroke: rgb(0, 0, 0); stroke-opacity: 0; fill: rgb(255, 255, 255); fill-opacity: 0.6;"/><text class="annotation-text" text-anchor="middle" x="57.8125" y="55.5" style="font-family: 'Open Sans', verdana, arial, sans-serif; font-size: 50px; fill: rgb(8, 115, 191); fill-opacity: 1; white-space: pre;"> <tspan style="font-weight:bold">115 </tspan></text></g></g><g class="annotation-arrow-g" style="opacity: 1;"><path d="M719.51,389.13L731.11,403.63" style="stroke-width: 1px; stroke: rgb(8, 115, 191); stroke-opacity: 1; stroke-dasharray: 0px, 0px, 18.569px, 18.569px;"/></g></g></g></svg>