<svg class="main-svg" xmlns="http://www.w3.org/2000/svg" xmlns:xlink="http://www.w3.org/1999/xlink" width="1125" height="750" style="" viewBox="0 0 750 500"><rect x="0" y="0" width="750" height="500" style="fill: rgb(0, 0, 0); fill-opacity: 0;"/><defs id="defs-1ffd2f"><g class="clips"><clipPath id="clip1ffd2fxyplot" class="plotclip"><rect width="700" height="380"/></clipPath><clipPath class="axesclip" id="clip1ffd2fx"><rect x="50" y="0" width="700" height="500"/></clipPath><clipPath class="axesclip" id="clip1ffd2fy"><rect x="0" y="70" width="750" height="380"/></clipPath><clipPath class="axesclip" id="clip1ffd2fxy"><rect x="50" y="70" width="700" height="380"/></clipPath></g><g class="gradients"/></defs><g class="bglayer"><rect class="bg" x="50" y="70" width="700" height="380" style="fill: rgb(0, 0, 0); fill-opacity: 0; stroke-width: 0;"/></g><g class="layer-below"><g class="imagelayer"/><g class="shapelayer"/></g><g class="cartesianlayer"><g class="subplot xy"><g class="layer-subplot"><g class="shapelayer"/><g class="imagelayer"/></g><g class="gridlayer"><g class="x"><path class="xgrid crisp" transform="translate(91.47,0)" d="M0,70v380" style="stroke: rgb(255, 255, 255); stroke-opacity: 1; stroke-width: 1px;"/><path class="xgrid crisp" transform="translate(168.13,0)" d="M0,70v380" style="stroke: rgb(255, 255, 255); stroke-opacity: 1; stroke-width: 1px;"/><path class="xgrid crisp" transform="translate(242.28,0)" d="M0,70v380" style="stroke: rgb(255, 255, 255); stroke-opacity: 1; stroke-width: 1px;"/><path class="xgrid crisp" transform="translate(318.94,0)" d="M0,70v380" style="stroke: rgb(255, 255, 255); stroke-opacity: 1; stroke-width: 1px;"/><path class="xgrid crisp" transform="translate(395.6,0)" d="M0,70v380" style="stroke: rgb(255, 255, 255); stroke-opacity: 1; stroke-width: 1px;"/><path class="xgrid crisp" transform="translate(473.52,0)" d="M0,70v380" style="stroke: rgb(255, 255, 255); stroke-opacity: 1; stroke-width: 1px;"/><path class="xgrid crisp" transform="translate(550.1800000000001,0)" d="M0,70v380" style="stroke: rgb(255, 255, 255); stroke-opacity: 1; stroke-width: 1px;"/><path class="xgrid crisp" transform="translate(626.84,0)" d="M0,70v380" style="stroke: rgb(255, 255, 255); stroke-opacity: 1; stroke-width: 1px;"/><path class="xgrid crisp" transform="translate(700.99,0)" d="M0,70v380" style="stroke: rgb(255, 255, 255); stroke-opacity: 1; stroke-width: 1px;"/></g><g class="y"/></g><g class="zerolinelayer"/><path class="xlines-below"/><path class="ylines-below"/><g class="overlines-below"/><g class="xaxislayer-below"/><g class="yaxislayer-below"/><g class="overaxes-below"/><g class="plot" transform="translate(50, 70)" clip-path="url('#clip1ffd2fxyplot')"><g class="scatterlayer mlayer"><g class="trace scatter trace81fc6b" style="stroke-miterlimit: 2;"><g class="fills"><g><path class="js-fill" d="M678.64,380L-170.92,380L-170.92,379.7L-138.24,379.85L-136.98,379.89L-104.31,379.58L-103.05,379.62L-81.69,379.36L-80.43,379.51L-71.63,379.77L-70.38,379.55L-16.34,376.9L-15.08,377.09L-6.28,375.2L-5.03,375.35L0,375.47L1.26,374.86L5.03,374.45L6.28,373.66L7.54,373.16L8.8,371.39L11.31,370.79L12.57,368.93L18.85,356.25L20.11,355.91L22.62,345.9L23.88,340.35L27.65,325.13L28.9,324.11L31.42,315.99L32.68,314.74L33.93,310.62L35.19,311.15L36.45,309.42L37.7,309.45L38.96,306.58L40.22,307.94L41.47,306.58L42.73,310.51L43.99,310.7L45.24,314.36L46.5,314.59L47.76,318.59L49.01,321.43L50.27,332.26L54.04,339.78L55.3,340.69L57.81,349.56L59.07,346.8L61.58,354.81L62.84,356.13L64.09,356.13L65.35,358.7L67.86,361.42L69.12,361.87L72.89,360.74L74.15,360.74L76.66,360.1L77.92,360.81L82.94,360.36L84.2,358.55L90.48,357.15L91.74,355.94L98.03,350.62L99.28,350.77L100.54,349.83L101.8,350.58L103.05,351.22L104.31,350.84L105.57,354.81L106.82,354.73L108.08,355.04L109.34,354.13L111.85,351.26L113.11,349.94L114.36,349.79L115.62,347.94L116.88,347.79L118.13,346.77L119.39,345.97L120.65,348.01L121.9,348.81L123.16,344.31L124.42,345.71L125.67,345.86L128.19,349.15L129.44,349.75L130.7,349.52L131.96,350.28L135.73,351.03L136.98,351.71L140.75,350.66L142.01,351.3L145.78,350.5L147.04,351.34L150.81,351.68L152.06,351.71L154.58,351.37L155.83,351.71L158.35,353.83L159.61,354.55L160.86,354.43L162.12,357.42L168.4,358.93L169.66,359.12L177.2,360.85L178.46,360.48L180.97,359.76L182.23,360.29L186,362.44L187.25,362.85L191.02,366.9L192.28,367.84L194.79,368.33L196.05,368.37L198.56,368.41L199.82,367.5L203.59,364.29L204.85,364.25L208.62,358.96L209.87,358.66L211.13,357.08L212.39,357.15L214.9,356.7L216.16,355.07L218.67,354.43L219.93,352.51L221.18,351.22L222.44,351.15L223.7,349.56L224.96,349.41L226.21,348.88L227.47,346.95L228.73,347.79L229.98,347.26L231.24,347.26L232.5,353.26L233.75,351L235.01,350.66L238.78,353.11L240.04,352.85L241.29,347.52L242.55,349.67L243.81,351.79L245.06,352.39L246.32,353.68L247.58,353.87L250.09,354.55L251.35,356.85L253.86,355.87L255.12,356.02L261.4,359.64L262.66,361.49L265.17,364.82L266.43,364.78L268.94,365.5L270.2,366.48L272.71,367.31L273.97,367.27L275.22,367.31L276.48,368.75L278.99,369.73L280.25,371.69L284.02,370.22L285.28,370.18L287.79,370.86L289.05,368.93L292.82,369.46L294.08,371.8L296.59,370.94L297.85,371.62L299.1,373.09L300.36,373.35L301.62,373.32L302.87,372.26L304.13,373.28L305.39,373.28L309.16,374.34L310.41,374.22L312.93,373.96L314.18,374.75L317.95,375.17L319.21,375.35L325.49,378.23L326.75,378.23L334.29,377.77L335.55,377.62L355.66,377.66L356.91,377.32L358.17,377.21L359.43,376.3L361.94,374.11L363.2,373.88L365.71,372.33L366.97,370.41L373.25,368.59L374.51,367.99L378.28,369.05L379.53,368.63L383.3,369.46L384.56,368.33L390.84,367.88L392.1,367.65L393.36,368.18L394.61,366.29L398.38,365.76L399.64,365.31L402.15,365.08L403.41,366.22L407.18,366.86L408.44,367.31L409.69,366.78L410.95,367.31L417.24,366.56L418.49,367.42L421.01,368.75L422.26,370.07L427.29,372.33L428.55,373.09L431.06,373.77L432.32,374.41L441.11,374.22L442.37,374.07L447.4,373.77L448.65,373.2L454.94,372.9L456.19,372.98L458.71,373.54L459.96,373.54L467.5,376L468.76,376.03L470.02,376.26L471.27,375.69L482.59,377.28L483.84,376.49L488.87,375.17L490.13,373.81L493.9,371.01L495.15,370.9L496.41,371.77L497.67,369.95L503.95,369.88L505.21,368.52L508.98,371.69L510.23,370.11L512.75,369.35L514,366.44L516.52,363.12L517.77,358.96L520.29,355.72L521.54,355.53L525.31,343.1L526.57,339.29L529.08,332.34L530.34,331.74L535.37,317.72L536.62,315.91L539.14,315.31L540.39,310.47L541.65,309.19L542.91,309.64L544.17,310.21L545.42,311.72L547.94,312.21L549.19,316.97L550.45,322.03L551.71,323.58L555.48,329.51L556.73,329.39L557.99,331.55L559.25,332.08L560.5,333.4L561.76,332.57L563.02,330.53L564.27,334.79L565.53,333.59L566.79,323.05L571.81,276.14L573.07,275.2L574.33,274.22L575.58,250.46L578.1,214.47L579.35,204.69L580.61,198.04L581.87,179.09L583.12,178.25L584.38,169.64L585.64,168.4L586.89,161.03L589.41,142.72L590.66,131.01L591.92,129.57L593.18,106.8L598.2,33.5L599.46,24.21L600.72,22.13L601.97,4.27L603.23,0.6L604.49,0L607,8.87L608.26,15.97L609.52,17.67L610.77,33.46L617.06,99.89L618.31,101.4L623.34,185.13L624.6,200.95L625.85,213.64L627.11,215.61L629.62,253.75L630.88,263.53L634.65,283.62L635.91,284.45L638.42,303.37L639.68,310.74L642.19,322.26L643.45,325.88L644.7,325.92L645.96,329.09L654.76,335.32L656.01,334.95L658.53,335.85L659.78,334.87L661.04,331.81L662.3,331.66L664.81,319.76L666.07,314.59L669.84,299.56L671.1,298.12L677.38,260.13L678.64,258.51" style="fill: rgb(8, 115, 191); fill-opacity: 0.2; stroke-width: 0;"/></g></g><g class="errorbars"/><g class="lines"><path class="js-line" d="M-170.92,379.7L-138.24,379.85L-136.98,379.89L-104.31,379.58L-103.05,379.62L-81.69,379.36L-80.43,379.51L-71.63,379.77L-70.38,379.55L-16.34,376.9L-15.08,377.09L-6.28,375.2L-5.03,375.35L0,375.47L1.26,374.86L5.03,374.45L6.28,373.66L7.54,373.16L8.8,371.39L11.31,370.79L12.57,368.93L18.85,356.25L20.11,355.91L22.62,345.9L23.88,340.35L27.65,325.13L28.9,324.11L31.42,315.99L32.68,314.74L33.93,310.62L35.19,311.15L36.45,309.42L37.7,309.45L38.96,306.58L40.22,307.94L41.47,306.58L42.73,310.51L43.99,310.7L45.24,314.36L46.5,314.59L47.76,318.59L49.01,321.43L50.27,332.26L54.04,339.78L55.3,340.69L57.81,349.56L59.07,346.8L61.58,354.81L62.84,356.13L64.09,356.13L65.35,358.7L67.86,361.42L69.12,361.87L72.89,360.74L74.15,360.74L76.66,360.1L77.92,360.81L82.94,360.36L84.2,358.55L90.48,357.15L91.74,355.94L98.03,350.62L99.28,350.77L100.54,349.83L101.8,350.58L103.05,351.22L104.31,350.84L105.57,354.81L106.82,354.73L108.08,355.04L109.34,354.13L111.85,351.26L113.11,349.94L114.36,349.79L115.62,347.94L116.88,347.79L118.13,346.77L119.39,345.97L120.65,348.01L121.9,348.81L123.16,344.31L124.42,345.71L125.67,345.86L128.19,349.15L129.44,349.75L130.7,349.52L131.96,350.28L135.73,351.03L136.98,351.71L140.75,350.66L142.01,351.3L145.78,350.5L147.04,351.34L150.81,351.68L152.06,351.71L154.58,351.37L155.83,351.71L158.35,353.83L159.61,354.55L160.86,354.43L162.12,357.42L168.4,358.93L169.66,359.12L177.2,360.85L178.46,360.48L180.97,359.76L182.23,360.29L186,362.44L187.25,362.85L191.02,366.9L192.28,367.84L194.79,368.33L196.05,368.37L198.56,368.41L199.82,367.5L203.59,364.29L204.85,364.25L208.62,358.96L209.87,358.66L211.13,357.08L212.39,357.15L214.9,356.7L216.16,355.07L218.67,354.43L219.93,352.51L221.18,351.22L222.44,351.15L223.7,349.56L224.96,349.41L226.21,348.88L227.47,346.95L228.73,347.79L229.98,347.26L231.24,347.26L232.5,353.26L233.75,351L235.01,350.66L238.78,353.11L240.04,352.85L241.29,347.52L242.55,349.67L243.81,351.79L245.06,352.39L246.32,353.68L247.58,353.87L250.09,354.55L251.35,356.85L253.86,355.87L255.12,356.02L261.4,359.64L262.66,361.49L265.17,364.82L266.43,364.78L268.94,365.5L270.2,366.48L272.71,367.31L273.97,367.27L275.22,367.31L276.48,368.75L278.99,369.73L280.25,371.69L284.02,370.22L285.28,370.18L287.79,370.86L289.05,368.93L292.82,369.46L294.08,371.8L296.59,370.94L297.85,371.62L299.1,373.09L300.36,373.35L301.62,373.32L302.87,372.26L304.13,373.28L305.39,373.28L309.16,374.34L310.41,374.22L312.93,373.96L314.18,374.75L317.95,375.17L319.21,375.35L325.49,378.23L326.75,378.23L334.29,377.77L335.55,377.62L355.66,377.66L356.91,377.32L358.17,377.21L359.43,376.3L361.94,374.11L363.2,373.88L365.71,372.33L366.97,370.41L373.25,368.59L374.51,367.99L378.28,369.05L379.53,368.63L383.3,369.46L384.56,368.33L390.84,367.88L392.1,367.65L393.36,368.18L394.61,366.29L398.38,365.76L399.64,365.31L402.15,365.08L403.41,366.22L407.18,366.86L408.44,367.31L409.69,366.78L410.95,367.31L417.24,366.56L418.49,367.42L421.01,368.75L422.26,370.07L427.29,372.33L428.55,373.09L431.06,373.77L432.32,374.41L441.11,374.22L442.37,374.07L447.4,373.77L448.65,373.2L454.94,372.9L456.19,372.98L458.71,373.54L459.96,373.54L467.5,376L468.76,376.03L470.02,376.26L471.27,375.69L482.59,377.28L483.84,376.49L488.87,375.17L490.13,373.81L493.9,371.01L495.15,370.9L496.41,371.77L497.67,369.95L503.95,369.88L505.21,368.52L508.98,371.69L510.23,370.11L512.75,369.35L514,366.44L516.52,363.12L517.77,358.96L520.29,355.72L521.54,355.53L525.31,343.1L526.57,339.29L529.08,332.34L530.34,331.74L535.37,317.72L536.62,315.91L539.14,315.31L540.39,310.47L541.65,309.19L542.91,309.64L544.17,310.21L545.42,311.72L547.94,312.21L549.19,316.97L550.45,322.03L551.71,323.58L555.48,329.51L556.73,329.39L557.99,331.55L559.25,332.08L560.5,333.4L561.76,332.57L563.02,330.53L564.27,334.79L565.53,333.59L566.79,323.05L571.81,276.14L573.07,275.2L574.33,274.22L575.58,250.46L578.1,214.47L579.35,204.69L580.61,198.04L581.87,179.09L583.12,178.25L584.38,169.64L585.64,168.4L586.89,161.03L589.41,142.72L590.66,131.01L591.92,129.57L593.18,106.8L598.2,33.5L599.46,24.21L600.72,22.13L601.97,4.27L603.23,0.6L604.49,0L607,8.87L608.26,15.97L609.52,17.67L610.77,33.46L617.06,99.89L618.31,101.4L623.34,185.13L624.6,200.95L625.85,213.64L627.11,215.61L629.62,253.75L630.88,263.53L634.65,283.62L635.91,284.45L638.42,303.37L639.68,310.74L642.19,322.26L643.45,325.88L644.7,325.92L645.96,329.09L654.76,335.32L656.01,334.95L658.53,335.85L659.78,334.87L661.04,331.81L662.3,331.66L664.81,319.76L666.07,314.59L669.84,299.56L671.1,298.12L677.38,260.13L678.64,258.51" style="vector-effect: non-scaling-stroke; fill: none; stroke: rgb(8, 115, 191); stroke-opacity: 1; stroke-width: 0.5px; opacity: 1;"/></g><g class="points"/><g class="text"/></g><g class="trace scatter tracedebd29" style="stroke-miterlimit: 2;"><g class="fills"><g><path class="js-fill" d="M691.2,380L678.64,380L678.64,258.51L679.89,258.92L681.15,253.48L683.66,241.1L684.92,241.89L688.69,241.51L689.95,236.49L691.2,239.66" style="fill: rgb(8, 115, 191); fill-opacity: 0.4; stroke-width: 0;"/></g></g><g class="errorbars"/><g class="lines"><path class="js-line" d="M678.64,258.51L679.89,258.92L681.15,253.48L683.66,241.1L684.92,241.89L688.69,241.51L689.95,236.49L691.2,239.66" style="vector-effect: non-scaling-stroke; fill: none; stroke: rgb(8, 115, 191); stroke-opacity: 1; stroke-width: 2px; opacity: 1;"/></g><g class="points"/><g class="text"/></g><g class="trace scatter tracedd4d90" style="stroke-miterlimit: 2; opacity: 1;"><g class="fills"/><g class="errorbars"/><g class="lines"/><g class="points"><path class="point" transform="translate(691.2,239.66)" d="M15,0A15,15 0 1,1 0,-15A15,15 0 0,1 15,0Z" style="opacity: 1; stroke-width: 0px; fill: rgb(8, 115, 191); fill-opacity: 1;"/></g><g class="text"/></g></g></g><g class="overplot"/><path class="xlines-above crisp" style="fill: none; stroke-width: 1px; stroke: rgb(0, 0, 0); stroke-opacity: 0;" d=""/><path class="ylines-above crisp" style="fill: none;" d="M0,0"/><g class="overlines-above"/><g class="xaxislayer-above"><path class="xtick ticks crisp" d="M0,450v-5" transform="translate(91.47,0)" style="stroke: rgb(68, 68, 68); stroke-opacity: 1; stroke-width: 1px;"/><path class="xtick ticks crisp" d="M0,450v-5" transform="translate(168.13,0)" style="stroke: rgb(68, 68, 68); stroke-opacity: 1; stroke-width: 1px;"/><path class="xtick ticks crisp" d="M0,450v-5" transform="translate(242.28,0)" style="stroke: rgb(68, 68, 68); stroke-opacity: 1; stroke-width: 1px;"/><path class="xtick ticks crisp" d="M0,450v-5" transform="translate(318.94,0)" style="stroke: rgb(68, 68, 68); stroke-opacity: 1; stroke-width: 1px;"/><path class="xtick ticks crisp" d="M0,450v-5" transform="translate(395.6,0)" style="stroke: rgb(68, 68, 68); stroke-opacity: 1; stroke-width: 1px;"/><path class="xtick ticks crisp" d="M0,450v-5" transform="translate(473.52,0)" style="stroke: rgb(68, 68, 68); stroke-opacity: 1; stroke-width: 1px;"/><path class="xtick ticks crisp" d="M0,450v-5" transform="translate(550.1800000000001,0)" style="stroke: rgb(68, 68, 68); stroke-opacity: 1; stroke-width: 1px;"/><path class="xtick ticks crisp" d="M0,450v-5" transform="translate(626.84,0)" style="stroke: rgb(68, 68, 68); stroke-opacity: 1; stroke-width: 1px;"/><path class="xtick ticks crisp" d="M0,450v-5" transform="translate(700.99,0)" style="stroke: rgb(68, 68, 68); stroke-opacity: 1; stroke-width: 1px;"/><g class="xtick"><text text-anchor="middle" x="0" y="469" transform="translate(91.47,0)" style="font-family: 'Open Sans', verdana, arial, sans-serif; font-size: 18px; fill: rgb(42, 63, 95); fill-opacity: 1; white-space: pre;">01/11</text></g><g class="xtick"><text text-anchor="middle" x="0" y="469" transform="translate(168.13,0)" style="font-family: 'Open Sans', verdana, arial, sans-serif; font-size: 18px; fill: rgb(42, 63, 95); fill-opacity: 1; white-space: pre;">01/01</text></g><g class="xtick"><text text-anchor="middle" x="0" y="469" transform="translate(242.28,0)" style="font-family: 'Open Sans', verdana, arial, sans-serif; font-size: 18px; fill: rgb(42, 63, 95); fill-opacity: 1; white-space: pre;">01/03</text></g><g class="xtick"><text text-anchor="middle" x="0" y="469" transform="translate(318.94,0)" style="font-family: 'Open Sans', verdana, arial, sans-serif; font-size: 18px; fill: rgb(42, 63, 95); fill-opacity: 1; white-space: pre;">01/05</text></g><g class="xtick"><text text-anchor="middle" x="0" y="469" transform="translate(395.6,0)" style="font-family: 'Open Sans', verdana, arial, sans-serif; font-size: 18px; fill: rgb(42, 63, 95); fill-opacity: 1; white-space: pre;">01/07</text></g><g class="xtick"><text text-anchor="middle" x="0" y="469" transform="translate(473.52,0)" style="font-family: 'Open Sans', verdana, arial, sans-serif; font-size: 18px; fill: rgb(42, 63, 95); fill-opacity: 1; white-space: pre;">01/09</text></g><g class="xtick"><text text-anchor="middle" x="0" y="469" transform="translate(550.1800000000001,0)" style="font-family: 'Open Sans', verdana, arial, sans-serif; font-size: 18px; fill: rgb(42, 63, 95); fill-opacity: 1; white-space: pre;">01/11</text></g><g class="xtick"><text text-anchor="middle" x="0" y="469" transform="translate(626.84,0)" style="font-family: 'Open Sans', verdana, arial, sans-serif; font-size: 18px; fill: rgb(42, 63, 95); fill-opacity: 1; white-space: pre;">01/01</text></g><g class="xtick"><text text-anchor="middle" x="0" y="469" transform="translate(700.99,0)" style="font-family: 'Open Sans', verdana, arial, sans-serif; font-size: 18px; fill: rgb(42, 63, 95); fill-opacity: 1; white-space: pre;">01/03</text></g></g><g class="yaxislayer-above"/><g class="overaxes-above"/></g></g><g class="polarlayer"/><g class="ternarylayer"/><g class="geolayer"/><g class="funnelarealayer"/><g class="pielayer"/><g class="treemaplayer"/><g class="sunburstlayer"/><g class="glimages"/><defs id="topdefs-1ffd2f"><g class="clips"/></defs><g class="layer-above"><g class="imagelayer"/><g class="shapelayer"><path data-index="0" fill-rule="evenodd" d="M-656.28,445.13L262.39,445.13" clip-path="url('#clip1ffd2fxy')" style="opacity: 1; stroke: rgb(255, 0, 0); stroke-opacity: 1; fill: rgb(0, 0, 0); fill-opacity: 0; stroke-dasharray: 3px, 3px; stroke-width: 1.5px;"/></g></g><g class="infolayer"><g class="g-gtitle"><text class="gtitle" x="375" y="25" text-anchor="middle" dy="0.7em" style="font-family: 'Open Sans', verdana, arial, sans-serif; font-size: 50px; fill: rgb(42, 63, 95); opacity: 1; font-weight: normal; white-space: pre;"><tspan style="font-weight:bold">Jura (39)</tspan></text></g><g class="g-xtitle"/><g class="annotation" data-index="0" style="opacity: 1;"><g class="annotation-text-g" transform="rotate(0,699.2,249.65999999999997)"><g class="cursor-pointer" transform="translate(627, 214)"><rect class="bg" x="0.5" y="0.5" width="143" height="71" style="stroke-width: 1px; stroke: rgb(0, 0, 0); stroke-opacity: 0; fill: rgb(255, 255, 255); fill-opacity: 0.6;"/><text class="annotation-text" text-anchor="middle" x="72.078125" y="55.5" style="font-family: 'Open Sans', verdana, arial, sans-serif; font-size: 50px; fill: rgb(8, 115, 191); fill-opacity: 1; white-space: pre;"> <tspan style="font-weight:bold">1441 </tspan></text></g></g><g class="annotation-arrow-g" style="opacity: 1;"><path d="M727.6,285.15999999999997L739.2,299.65999999999997" style="stroke-width: 1px; stroke: rgb(8, 115, 191); stroke-opacity: 1; stroke-dasharray: 0px, 0px, 18.5691px, 18.5691px;"/></g></g></g></svg>