<svg class="main-svg" xmlns="http://www.w3.org/2000/svg" xmlns:xlink="http://www.w3.org/1999/xlink" width="1125" height="750" style="" viewBox="0 0 750 500"><rect x="0" y="0" width="750" height="500" style="fill: rgb(0, 0, 0); fill-opacity: 0;"/><defs id="defs-0f43c5"><g class="clips"><clipPath id="clip0f43c5xyplot" class="plotclip"><rect width="692" height="380"/></clipPath><clipPath class="axesclip" id="clip0f43c5x"><rect x="50" y="0" width="692" height="500"/></clipPath><clipPath class="axesclip" id="clip0f43c5y"><rect x="0" y="70" width="750" height="380"/></clipPath><clipPath class="axesclip" id="clip0f43c5xy"><rect x="50" y="70" width="692" height="380"/></clipPath></g><g class="gradients"/></defs><g class="bglayer"><rect class="bg" x="50" y="70" width="692" height="380" style="fill: rgb(0, 0, 0); fill-opacity: 0; stroke-width: 0;"/></g><g class="layer-below"><g class="imagelayer"/><g class="shapelayer"/></g><g class="cartesianlayer"><g class="subplot xy"><g class="layer-subplot"><g class="shapelayer"/><g class="imagelayer"/></g><g class="gridlayer"><g class="x"><path class="xgrid crisp" transform="translate(93.09,0)" d="M0,70v380" style="stroke: rgb(255, 255, 255); stroke-opacity: 1; stroke-width: 1px;"/><path class="xgrid crisp" transform="translate(172.73000000000002,0)" d="M0,70v380" style="stroke: rgb(255, 255, 255); stroke-opacity: 1; stroke-width: 1px;"/><path class="xgrid crisp" transform="translate(249.77,0)" d="M0,70v380" style="stroke: rgb(255, 255, 255); stroke-opacity: 1; stroke-width: 1px;"/><path class="xgrid crisp" transform="translate(329.41,0)" d="M0,70v380" style="stroke: rgb(255, 255, 255); stroke-opacity: 1; stroke-width: 1px;"/><path class="xgrid crisp" transform="translate(409.06,0)" d="M0,70v380" style="stroke: rgb(255, 255, 255); stroke-opacity: 1; stroke-width: 1px;"/><path class="xgrid crisp" transform="translate(490.01,0)" d="M0,70v380" style="stroke: rgb(255, 255, 255); stroke-opacity: 1; stroke-width: 1px;"/><path class="xgrid crisp" transform="translate(569.65,0)" d="M0,70v380" style="stroke: rgb(255, 255, 255); stroke-opacity: 1; stroke-width: 1px;"/><path class="xgrid crisp" transform="translate(649.3,0)" d="M0,70v380" style="stroke: rgb(255, 255, 255); stroke-opacity: 1; stroke-width: 1px;"/><path class="xgrid crisp" transform="translate(726.33,0)" d="M0,70v380" style="stroke: rgb(255, 255, 255); stroke-opacity: 1; stroke-width: 1px;"/></g><g class="y"/></g><g class="zerolinelayer"/><path class="xlines-below"/><path class="ylines-below"/><g class="overlines-below"/><g class="xaxislayer-below"/><g class="yaxislayer-below"/><g class="overaxes-below"/><g class="plot" transform="translate(50, 70)" clip-path="url('#clip0f43c5xyplot')"><g class="scatterlayer mlayer"><g class="trace scatter trace41a9a9" style="stroke-miterlimit: 2;"><g class="fills"><g><path class="js-fill" d="M669.8,380L-177.57,380L-177.57,379.36L-129.26,379.77L-127.95,379.71L-88.78,379.94L-87.48,379.77L-52.23,379.42L-50.92,378.96L-41.78,376.82L-40.48,376.82L-33.95,377.92L-32.64,378.09L-23.5,377.34L-22.2,376.53L-14.36,374.68L-13.06,375.67L-3.92,376.65L-2.61,376.53L0,376.53L1.31,376.19L2.61,376.19L3.92,375.32L6.53,374.4L7.83,373.88L14.36,371.74L15.67,370.47L19.58,367.35L20.89,367.17L22.2,365.44L23.5,362.15L26.11,360.24L27.42,357L28.72,355.62L30.03,355.39L33.95,350.65L35.25,347.93L39.17,345.45L40.48,344.64L43.09,341.23L44.39,341.52L47,344.24L48.31,344.18L50.92,340.31L52.23,346.37L53.53,346.32L54.84,347.88L58.75,352.27L60.06,360.36L61.37,359.43L62.67,362.84L63.98,364.92L65.28,365.56L66.59,365.61L67.89,366.88L71.81,367.17L73.12,367.06L75.73,366.48L77.03,368.16L79.65,367.81L80.95,367.69L83.56,366.83L84.87,367.12L86.17,367.29L87.48,366.08L91.4,367.87L92.7,367.23L99.23,367.06L100.54,366.25L104.45,365.96L105.76,367L108.37,366.88L109.68,368.91L113.59,369.43L114.9,368.39L117.51,366.25L118.82,366.19L120.12,365.04L121.43,365.09L124.04,359.37L125.34,359.08L127.95,354.17L129.26,355.39L131.87,355.68L133.18,356.66L134.48,355.16L135.79,355.73L137.09,354.17L138.4,350.82L139.71,350.65L141.01,349.61L143.62,348.22L144.93,346.78L148.85,348.74L150.15,348.11L151.46,348.16L152.76,350.88L154.07,352.44L155.37,351.52L156.68,353.02L157.98,352.9L160.6,353.13L161.9,352.9L164.51,352.44L165.82,353.42L169.74,353.77L171.04,354.12L172.35,354.23L173.65,356.2L176.26,356.31L177.57,358.1L180.18,358.22L181.49,359.43L185.4,358.56L186.71,359.26L189.32,361.97L190.63,362.96L193.24,363.94L194.54,364L198.46,367.98L199.77,367.92L202.38,368.68L203.68,368.79L211.52,366.94L212.82,366.94L214.13,366.6L215.43,365.44L216.74,363.3L218.05,363.48L220.66,362.26L221.96,362.2L223.27,362.38L224.57,360.3L225.88,361.05L227.18,359.43L229.8,359.08L231.1,358.85L232.41,358.45L233.71,360.24L236.32,357.47L237.63,357.18L240.24,356.43L241.55,359.89L242.85,357.06L244.16,356.83L246.77,357.41L248.08,357.29L249.38,357.58L250.69,353.08L253.3,356.6L254.6,357.35L257.22,357L258.52,357L261.13,355.85L262.44,356.66L267.66,356.43L268.97,357.87L270.27,358.16L271.58,357.47L272.88,358.39L274.19,358.39L275.49,360.88L276.8,360.93L280.72,362.72L282.02,362.49L284.63,363.3L285.94,363.13L289.86,364.05L291.16,367.64L292.47,368.62L293.77,367.92L296.38,368.33L297.69,368.56L299,368.96L300.3,367.98L304.22,368.68L305.52,371.33L308.14,372.26L309.44,371.62L313.36,372.03L314.66,370L315.97,371.1L317.28,370.52L321.19,371.28L322.5,371.28L330.33,377.52L331.64,377.63L334.25,378.67L335.55,378.67L339.47,378.56L340.78,378.56L351.22,378.67L352.53,378.84L357.75,378.38L359.06,378.27L372.11,378.84L373.42,378.32L379.95,376.48L381.25,374.74L385.17,372.78L386.48,372.72L389.09,372.6L390.39,373.24L396.92,373.36L398.23,372.55L400.84,372.49L402.14,371.22L406.06,370.64L407.37,370.18L409.98,368.85L411.28,368.79L413.89,367.92L415.2,367.81L423.03,370.76L424.34,370.76L429.56,368.04L430.87,368.1L433.48,367.75L434.78,368.04L436.09,369.14L437.4,369.08L438.7,370.24L440.01,370.35L447.84,373.47L449.15,373.53L451.76,373.53L453.06,373.99L455.68,374.68L456.98,374.92L460.9,375.72L462.2,376.24L467.43,377.52L468.73,377.52L479.18,378.38L480.48,378.44L490.93,377.52L492.23,376.36L502.68,375.55L503.98,375.26L507.9,374.74L509.21,373.76L511.82,374.63L513.12,374.57L514.43,374.51L515.74,375.61L523.57,373.18L524.88,370.99L526.18,370.47L527.49,370.76L528.79,371.8L530.1,370.58L536.63,367.29L537.93,365.38L540.54,364L541.85,364.05L544.46,361.63L545.77,361.74L547.07,359.95L548.38,360.93L553.6,359.37L554.91,358.85L560.13,355.33L561.43,355.16L564.05,353.94L565.35,353.02L567.96,351.57L569.27,350.88L571.88,347.99L573.18,347.64L574.49,349.44L575.8,349.61L579.71,353.31L581.02,352.73L584.94,347.36L586.24,349.15L587.55,348.51L588.85,341.46L591.46,320.26L592.77,304.54L594.08,290.85L595.38,290.33L596.69,288.54L597.99,265.83L600.6,229.49L601.91,224.18L603.22,219.03L604.52,200.2L605.83,196.9L607.13,196.27L609.74,192.86L611.05,187.43L613.66,168.82L614.97,166.63L622.8,68.64L624.11,63.67L626.72,19.12L628.02,10.46L630.63,0L631.94,0.23L633.25,1.56L634.55,4.39L635.86,6.7L637.16,16.64L638.47,28.54L639.77,48.71L642.38,68.81L643.69,96.14L647.61,174.89L648.91,188.7L650.22,201.12L651.52,203.09L654.14,233.07L655.44,240.64L658.05,259.82L659.36,261.79L660.66,261.96L661.97,266.7L663.28,272.07L664.58,273.75L668.5,284.49L669.8,285.94" style="fill: rgb(8, 115, 191); fill-opacity: 0.2; stroke-width: 0;"/></g></g><g class="errorbars"/><g class="lines"><path class="js-line" d="M-177.57,379.36L-129.26,379.77L-127.95,379.71L-88.78,379.94L-87.48,379.77L-52.23,379.42L-50.92,378.96L-41.78,376.82L-40.48,376.82L-33.95,377.92L-32.64,378.09L-23.5,377.34L-22.2,376.53L-14.36,374.68L-13.06,375.67L-3.92,376.65L-2.61,376.53L0,376.53L1.31,376.19L2.61,376.19L3.92,375.32L6.53,374.4L7.83,373.88L14.36,371.74L15.67,370.47L19.58,367.35L20.89,367.17L22.2,365.44L23.5,362.15L26.11,360.24L27.42,357L28.72,355.62L30.03,355.39L33.95,350.65L35.25,347.93L39.17,345.45L40.48,344.64L43.09,341.23L44.39,341.52L47,344.24L48.31,344.18L50.92,340.31L52.23,346.37L53.53,346.32L54.84,347.88L58.75,352.27L60.06,360.36L61.37,359.43L62.67,362.84L63.98,364.92L65.28,365.56L66.59,365.61L67.89,366.88L71.81,367.17L73.12,367.06L75.73,366.48L77.03,368.16L79.65,367.81L80.95,367.69L83.56,366.83L84.87,367.12L86.17,367.29L87.48,366.08L91.4,367.87L92.7,367.23L99.23,367.06L100.54,366.25L104.45,365.96L105.76,367L108.37,366.88L109.68,368.91L113.59,369.43L114.9,368.39L117.51,366.25L118.82,366.19L120.12,365.04L121.43,365.09L124.04,359.37L125.34,359.08L127.95,354.17L129.26,355.39L131.87,355.68L133.18,356.66L134.48,355.16L135.79,355.73L137.09,354.17L138.4,350.82L139.71,350.65L141.01,349.61L143.62,348.22L144.93,346.78L148.85,348.74L150.15,348.11L151.46,348.16L152.76,350.88L154.07,352.44L155.37,351.52L156.68,353.02L157.98,352.9L160.6,353.13L161.9,352.9L164.51,352.44L165.82,353.42L169.74,353.77L171.04,354.12L172.35,354.23L173.65,356.2L176.26,356.31L177.57,358.1L180.18,358.22L181.49,359.43L185.4,358.56L186.71,359.26L189.32,361.97L190.63,362.96L193.24,363.94L194.54,364L198.46,367.98L199.77,367.92L202.38,368.68L203.68,368.79L211.52,366.94L212.82,366.94L214.13,366.6L215.43,365.44L216.74,363.3L218.05,363.48L220.66,362.26L221.96,362.2L223.27,362.38L224.57,360.3L225.88,361.05L227.18,359.43L229.8,359.08L231.1,358.85L232.41,358.45L233.71,360.24L236.32,357.47L237.63,357.18L240.24,356.43L241.55,359.89L242.85,357.06L244.16,356.83L246.77,357.41L248.08,357.29L249.38,357.58L250.69,353.08L253.3,356.6L254.6,357.35L257.22,357L258.52,357L261.13,355.85L262.44,356.66L267.66,356.43L268.97,357.87L270.27,358.16L271.58,357.47L272.88,358.39L274.19,358.39L275.49,360.88L276.8,360.93L280.72,362.72L282.02,362.49L284.63,363.3L285.94,363.13L289.86,364.05L291.16,367.64L292.47,368.62L293.77,367.92L296.38,368.33L297.69,368.56L299,368.96L300.3,367.98L304.22,368.68L305.52,371.33L308.14,372.26L309.44,371.62L313.36,372.03L314.66,370L315.97,371.1L317.28,370.52L321.19,371.28L322.5,371.28L330.33,377.52L331.64,377.63L334.25,378.67L335.55,378.67L339.47,378.56L340.78,378.56L351.22,378.67L352.53,378.84L357.75,378.38L359.06,378.27L372.11,378.84L373.42,378.32L379.95,376.48L381.25,374.74L385.17,372.78L386.48,372.72L389.09,372.6L390.39,373.24L396.92,373.36L398.23,372.55L400.84,372.49L402.14,371.22L406.06,370.64L407.37,370.18L409.98,368.85L411.28,368.79L413.89,367.92L415.2,367.81L423.03,370.76L424.34,370.76L429.56,368.04L430.87,368.1L433.48,367.75L434.78,368.04L436.09,369.14L437.4,369.08L438.7,370.24L440.01,370.35L447.84,373.47L449.15,373.53L451.76,373.53L453.06,373.99L455.68,374.68L456.98,374.92L460.9,375.72L462.2,376.24L467.43,377.52L468.73,377.52L479.18,378.38L480.48,378.44L490.93,377.52L492.23,376.36L502.68,375.55L503.98,375.26L507.9,374.74L509.21,373.76L511.82,374.63L513.12,374.57L514.43,374.51L515.74,375.61L523.57,373.18L524.88,370.99L526.18,370.47L527.49,370.76L528.79,371.8L530.1,370.58L536.63,367.29L537.93,365.38L540.54,364L541.85,364.05L544.46,361.63L545.77,361.74L547.07,359.95L548.38,360.93L553.6,359.37L554.91,358.85L560.13,355.33L561.43,355.16L564.05,353.94L565.35,353.02L567.96,351.57L569.27,350.88L571.88,347.99L573.18,347.64L574.49,349.44L575.8,349.61L579.71,353.31L581.02,352.73L584.94,347.36L586.24,349.15L587.55,348.51L588.85,341.46L591.46,320.26L592.77,304.54L594.08,290.85L595.38,290.33L596.69,288.54L597.99,265.83L600.6,229.49L601.91,224.18L603.22,219.03L604.52,200.2L605.83,196.9L607.13,196.27L609.74,192.86L611.05,187.43L613.66,168.82L614.97,166.63L622.8,68.64L624.11,63.67L626.72,19.12L628.02,10.46L630.63,0L631.94,0.23L633.25,1.56L634.55,4.39L635.86,6.7L637.16,16.64L638.47,28.54L639.77,48.71L642.38,68.81L643.69,96.14L647.61,174.89L648.91,188.7L650.22,201.12L651.52,203.09L654.14,233.07L655.44,240.64L658.05,259.82L659.36,261.79L660.66,261.96L661.97,266.7L663.28,272.07L664.58,273.75L668.5,284.49L669.8,285.94" style="vector-effect: non-scaling-stroke; fill: none; stroke: rgb(8, 115, 191); stroke-opacity: 1; stroke-width: 0.5px; opacity: 1;"/></g><g class="points"/><g class="text"/></g><g class="trace scatter tracea84a0a" style="stroke-miterlimit: 2;"><g class="fills"><g><path class="js-fill" d="M682.86,380L669.8,380L669.8,285.94L671.11,288.37L672.42,288.54L673.72,290.33L675.03,290.1L676.33,289.29L677.64,286.05L678.94,285.13L680.25,279.06L681.55,279.29L682.86,276.46" style="fill: rgb(8, 115, 191); fill-opacity: 0.4; stroke-width: 0;"/></g></g><g class="errorbars"/><g class="lines"><path class="js-line" d="M669.8,285.94L671.11,288.37L672.42,288.54L673.72,290.33L675.03,290.1L676.33,289.29L677.64,286.05L678.94,285.13L680.25,279.06L681.55,279.29L682.86,276.46" style="vector-effect: non-scaling-stroke; fill: none; stroke: rgb(8, 115, 191); stroke-opacity: 1; stroke-width: 2px; opacity: 1;"/></g><g class="points"/><g class="text"/></g><g class="trace scatter tracece7a14" style="stroke-miterlimit: 2; opacity: 1;"><g class="fills"/><g class="errorbars"/><g class="lines"/><g class="points"><path class="point" transform="translate(682.86,276.46)" d="M15,0A15,15 0 1,1 0,-15A15,15 0 0,1 15,0Z" style="opacity: 1; stroke-width: 0px; fill: rgb(8, 115, 191); fill-opacity: 1;"/></g><g class="text"/></g></g></g><g class="overplot"/><path class="xlines-above crisp" style="fill: none; stroke-width: 1px; stroke: rgb(0, 0, 0); stroke-opacity: 0;" d=""/><path class="ylines-above crisp" style="fill: none;" d="M0,0"/><g class="overlines-above"/><g class="xaxislayer-above"><path class="xtick ticks crisp" d="M0,450v-5" transform="translate(93.09,0)" style="stroke: rgb(68, 68, 68); stroke-opacity: 1; stroke-width: 1px;"/><path class="xtick ticks crisp" d="M0,450v-5" transform="translate(172.73000000000002,0)" style="stroke: rgb(68, 68, 68); stroke-opacity: 1; stroke-width: 1px;"/><path class="xtick ticks crisp" d="M0,450v-5" transform="translate(249.77,0)" style="stroke: rgb(68, 68, 68); stroke-opacity: 1; stroke-width: 1px;"/><path class="xtick ticks crisp" d="M0,450v-5" transform="translate(329.41,0)" style="stroke: rgb(68, 68, 68); stroke-opacity: 1; stroke-width: 1px;"/><path class="xtick ticks crisp" d="M0,450v-5" transform="translate(409.06,0)" style="stroke: rgb(68, 68, 68); stroke-opacity: 1; stroke-width: 1px;"/><path class="xtick ticks crisp" d="M0,450v-5" transform="translate(490.01,0)" style="stroke: rgb(68, 68, 68); stroke-opacity: 1; stroke-width: 1px;"/><path class="xtick ticks crisp" d="M0,450v-5" transform="translate(569.65,0)" style="stroke: rgb(68, 68, 68); stroke-opacity: 1; stroke-width: 1px;"/><path class="xtick ticks crisp" d="M0,450v-5" transform="translate(649.3,0)" style="stroke: rgb(68, 68, 68); stroke-opacity: 1; stroke-width: 1px;"/><path class="xtick ticks crisp" d="M0,450v-5" transform="translate(726.33,0)" style="stroke: rgb(68, 68, 68); stroke-opacity: 1; stroke-width: 1px;"/><g class="xtick"><text text-anchor="middle" x="0" y="469" transform="translate(93.09,0)" style="font-family: 'Open Sans', verdana, arial, sans-serif; font-size: 18px; fill: rgb(42, 63, 95); fill-opacity: 1; white-space: pre;">01/11</text></g><g class="xtick"><text text-anchor="middle" x="0" y="469" transform="translate(172.73000000000002,0)" style="font-family: 'Open Sans', verdana, arial, sans-serif; font-size: 18px; fill: rgb(42, 63, 95); fill-opacity: 1; white-space: pre;">01/01</text></g><g class="xtick"><text text-anchor="middle" x="0" y="469" transform="translate(249.77,0)" style="font-family: 'Open Sans', verdana, arial, sans-serif; font-size: 18px; fill: rgb(42, 63, 95); fill-opacity: 1; white-space: pre;">01/03</text></g><g class="xtick"><text text-anchor="middle" x="0" y="469" transform="translate(329.41,0)" style="font-family: 'Open Sans', verdana, arial, sans-serif; font-size: 18px; fill: rgb(42, 63, 95); fill-opacity: 1; white-space: pre;">01/05</text></g><g class="xtick"><text text-anchor="middle" x="0" y="469" transform="translate(409.06,0)" style="font-family: 'Open Sans', verdana, arial, sans-serif; font-size: 18px; fill: rgb(42, 63, 95); fill-opacity: 1; white-space: pre;">01/07</text></g><g class="xtick"><text text-anchor="middle" x="0" y="469" transform="translate(490.01,0)" style="font-family: 'Open Sans', verdana, arial, sans-serif; font-size: 18px; fill: rgb(42, 63, 95); fill-opacity: 1; white-space: pre;">01/09</text></g><g class="xtick"><text text-anchor="middle" x="0" y="469" transform="translate(569.65,0)" style="font-family: 'Open Sans', verdana, arial, sans-serif; font-size: 18px; fill: rgb(42, 63, 95); fill-opacity: 1; white-space: pre;">01/11</text></g><g class="xtick"><text text-anchor="middle" x="0" y="469" transform="translate(649.3,0)" style="font-family: 'Open Sans', verdana, arial, sans-serif; font-size: 18px; fill: rgb(42, 63, 95); fill-opacity: 1; white-space: pre;">01/01</text></g><g class="xtick"><text text-anchor="middle" x="0" y="469" transform="translate(726.33,0)" style="font-family: 'Open Sans', verdana, arial, sans-serif; font-size: 18px; fill: rgb(42, 63, 95); fill-opacity: 1; white-space: pre;">01/03</text></g></g><g class="yaxislayer-above"/><g class="overaxes-above"/></g></g><g class="polarlayer"/><g class="ternarylayer"/><g class="geolayer"/><g class="funnelarealayer"/><g class="pielayer"/><g class="treemaplayer"/><g class="sunburstlayer"/><g class="glimages"/><defs id="topdefs-0f43c5"><g class="clips"/></defs><g class="layer-above"><g class="imagelayer"/><g class="shapelayer"><path data-index="0" fill-rule="evenodd" d="M-683.78,443.73L270.65999999999997,443.73" clip-path="url('#clip0f43c5xy')" style="opacity: 1; stroke: rgb(255, 0, 0); stroke-opacity: 1; fill: rgb(0, 0, 0); fill-opacity: 0; stroke-dasharray: 3px, 3px; stroke-width: 1.5px;"/></g></g><g class="infolayer"><g class="g-gtitle"><text class="gtitle" x="375" y="25" text-anchor="middle" dy="0.7em" style="font-family: 'Open Sans', verdana, arial, sans-serif; font-size: 50px; fill: rgb(42, 63, 95); opacity: 1; font-weight: normal; white-space: pre;"><tspan style="font-weight:bold">Indre (36)</tspan></text></g><g class="g-xtitle"/><g class="annotation" data-index="0" style="opacity: 1;"><g class="annotation-text-g" transform="rotate(0,690.86,286.46)"><g class="cursor-pointer" transform="translate(633, 250)"><rect class="bg" x="0.5" y="0.5" width="115" height="71" style="stroke-width: 1px; stroke: rgb(0, 0, 0); stroke-opacity: 0; fill: rgb(255, 255, 255); fill-opacity: 0.6;"/><text class="annotation-text" text-anchor="middle" x="57.8125" y="55.5" style="font-family: 'Open Sans', verdana, arial, sans-serif; font-size: 50px; fill: rgb(8, 115, 191); fill-opacity: 1; white-space: pre;"> <tspan style="font-weight:bold">825 </tspan></text></g></g><g class="annotation-arrow-g" style="opacity: 1;"><path d="M719.26,321.96L730.86,336.46" style="stroke-width: 1px; stroke: rgb(8, 115, 191); stroke-opacity: 1; stroke-dasharray: 0px, 0px, 18.569px, 18.569px;"/></g></g></g></svg>