<svg class="main-svg" xmlns="http://www.w3.org/2000/svg" xmlns:xlink="http://www.w3.org/1999/xlink" width="1125" height="750" style="" viewBox="0 0 750 500"><rect x="0" y="0" width="750" height="500" style="fill: rgb(0, 0, 0); fill-opacity: 0;"/><defs id="defs-41fc1b"><g class="clips"><clipPath id="clip41fc1bxyplot" class="plotclip"><rect width="700" height="380"/></clipPath><clipPath class="axesclip" id="clip41fc1bx"><rect x="50" y="0" width="700" height="500"/></clipPath><clipPath class="axesclip" id="clip41fc1by"><rect x="0" y="70" width="750" height="380"/></clipPath><clipPath class="axesclip" id="clip41fc1bxy"><rect x="50" y="70" width="700" height="380"/></clipPath></g><g class="gradients"/></defs><g class="bglayer"><rect class="bg" x="50" y="70" width="700" height="380" style="fill: rgb(0, 0, 0); fill-opacity: 0; stroke-width: 0;"/></g><g class="layer-below"><g class="imagelayer"/><g class="shapelayer"/></g><g class="cartesianlayer"><g class="subplot xy"><g class="layer-subplot"><g class="shapelayer"/><g class="imagelayer"/></g><g class="gridlayer"><g class="x"><path class="xgrid crisp" transform="translate(92.78,0)" d="M0,70v380" style="stroke: rgb(255, 255, 255); stroke-opacity: 1; stroke-width: 1px;"/><path class="xgrid crisp" transform="translate(171.85,0)" d="M0,70v380" style="stroke: rgb(255, 255, 255); stroke-opacity: 1; stroke-width: 1px;"/><path class="xgrid crisp" transform="translate(248.33,0)" d="M0,70v380" style="stroke: rgb(255, 255, 255); stroke-opacity: 1; stroke-width: 1px;"/><path class="xgrid crisp" transform="translate(327.41,0)" d="M0,70v380" style="stroke: rgb(255, 255, 255); stroke-opacity: 1; stroke-width: 1px;"/><path class="xgrid crisp" transform="translate(406.48,0)" d="M0,70v380" style="stroke: rgb(255, 255, 255); stroke-opacity: 1; stroke-width: 1px;"/><path class="xgrid crisp" transform="translate(486.85,0)" d="M0,70v380" style="stroke: rgb(255, 255, 255); stroke-opacity: 1; stroke-width: 1px;"/><path class="xgrid crisp" transform="translate(565.93,0)" d="M0,70v380" style="stroke: rgb(255, 255, 255); stroke-opacity: 1; stroke-width: 1px;"/><path class="xgrid crisp" transform="translate(645,0)" d="M0,70v380" style="stroke: rgb(255, 255, 255); stroke-opacity: 1; stroke-width: 1px;"/><path class="xgrid crisp" transform="translate(721.48,0)" d="M0,70v380" style="stroke: rgb(255, 255, 255); stroke-opacity: 1; stroke-width: 1px;"/></g><g class="y"/></g><g class="zerolinelayer"/><path class="xlines-below"/><path class="ylines-below"/><g class="overlines-below"/><g class="xaxislayer-below"/><g class="yaxislayer-below"/><g class="overaxes-below"/><g class="plot" transform="translate(50, 70)" clip-path="url('#clip41fc1bxyplot')"><g class="scatterlayer mlayer"><g class="trace scatter tracef24ce5" style="stroke-miterlimit: 2;"><g class="fills"><g><path class="js-fill" d="M677.96,380L-176.3,380L-176.3,379.64L-51.85,378.84L-50.56,378.63L-32.41,376.72L-31.11,377.01L-23.33,375.96L-22.04,375.27L-16.85,374.51L-15.56,374.39L-1.3,373.38L0,372.39L2.59,371.97L3.89,370.46L6.48,366.99L7.78,365.07L10.37,362.89L11.67,362.28L19.44,347.35L20.74,346.53L23.33,339.47L24.63,333.5L28.52,320.31L29.81,318.61L36.3,284.64L37.59,283.4L38.89,282.39L40.19,274.99L41.48,270.95L42.78,270.7L47.96,278.69L49.26,286.42L50.56,292.52L51.85,306.86L55.74,325.59L57.04,326.58L59.63,340.22L60.93,337.95L63.52,346.4L64.81,347.48L66.11,348.04L67.41,351.58L70,355.3L71.3,357.4L72.59,359.23L73.89,359.65L75.19,359.9L76.48,361.16L79.07,362.95L80.37,362.93L82.96,363.92L84.26,363.79L92.04,365.05L93.33,364.95L97.22,365.66L98.52,365.12L102.41,359.35L103.7,358.91L106.3,355.7L107.59,357L110.19,362.63L111.48,364.67L112.78,364.8L114.07,366.76L115.37,366.99L116.67,366.31L117.96,366.52L119.26,365.81L120.56,365.98L121.85,364.74L123.15,363.81L124.44,364.25L125.74,363.94L127.04,361.6L129.63,362.21L130.93,363.64L134.81,365.51L136.11,365.75L145.19,366.97L146.48,366.63L160.74,367.34L162.04,366.92L163.33,367.68L164.63,367.49L169.81,368.18L171.11,368.48L176.3,369.36L177.59,370.01L185.37,368.42L186.67,367.2L189.26,366.63L190.56,366.31L198.33,367.79L199.63,367.13L202.22,366.4L203.52,366.15L204.81,366.42L206.11,365.73L210,365.81L211.3,365.89L215.19,362.66L216.48,361.02L225.56,354.62L226.85,353.34L233.33,351.28L234.63,352.06L237.22,351.26L238.52,351.7L239.81,355.61L241.11,354.2L243.7,352.86L245,353.55L247.59,354.25L248.89,349.62L251.48,353.13L252.78,353.99L257.96,355.36L259.26,355.72L265.74,358.35L267.04,360.05L268.33,360.11L269.63,360.97L273.52,364.38L274.81,364.17L276.11,364.23L277.41,365.54L283.89,367.7L285.19,368.63L287.78,370.08L289.07,371.32L290.37,371.59L291.67,370.94L294.26,371.46L295.56,371.65L296.85,371.78L298.15,370.79L302.04,370.71L303.33,372.73L307.22,373.04L308.52,373.69L311.11,374.11L312.41,373.02L321.48,375.75L322.78,376.07L327.96,377.22L329.26,377.25L334.44,378.61L335.74,378.65L343.52,379.05L344.81,379.01L366.85,377.56L368.15,376.8L369.44,376.83L370.74,375.86L373.33,373.69L374.63,373.52L381.11,359L382.41,357.78L383.7,357.25L385,355.13L387.59,354.94L388.89,354.94L395.37,357.48L396.67,358.22L397.96,359L399.26,358.7L403.15,359.06L404.44,358.2L412.22,357.93L413.52,359.06L431.67,366.19L432.96,366.25L436.85,367.91L438.15,368.02L444.63,371.8L445.93,372.35L448.52,373.29L449.81,373.95L455,375.02L456.3,374.91L462.78,375.98L464.07,375.94L483.52,376.89L484.81,376.93L490,377.14L491.3,376.87L493.89,376.76L495.19,376.4L502.96,375.04L504.26,375.04L512.04,375.44L513.33,373.99L519.81,372.07L521.11,370.22L522.41,370.98L523.7,369.97L525,371.13L526.3,369.4L528.89,368.44L530.19,366.42L532.78,363.92L534.07,360.2L537.96,358.35L539.26,355.63L545.74,341.91L547.04,341.13L552.22,329.27L553.52,326.62L554.81,325.38L556.11,325.34L558.7,320.25L560,319.28L561.3,317.79L562.59,319.35L566.48,318.4L567.78,317.1L570.37,315.23L571.67,311.32L574.26,308.08L575.56,303.39L579.44,278.69L580.74,269.5L582.04,268.95L583.33,261.51L589.81,167.79L591.11,166.76L592.41,160.14L593.7,130.37L600.19,11.18L601.48,9.04L602.78,0L604.07,6.69L605.37,14.4L606.67,15.22L609.26,13.39L610.56,15.07L613.15,6.41L614.44,5.63L615.74,3.3L617.04,7.48L619.63,12.76L620.93,30.13L624.81,72.09L626.11,86.41L628.7,104.42L630,122.82L635.19,190.39L636.48,198.48L637.78,201.64L639.07,220.68L644.26,266.98L645.56,273.28L646.85,276.42L648.15,289.16L652.04,311.08L653.33,315.77L654.63,319.33L655.93,320.48L658.52,331.9L659.81,334.97L663.7,341.19L665,341.53L667.59,343.67L668.89,345.04L672.78,348.32L674.07,348.97L675.37,350.67L676.67,350.36L677.96,349.79" style="fill: rgb(8, 115, 191); fill-opacity: 0.2; stroke-width: 0;"/></g></g><g class="errorbars"/><g class="lines"><path class="js-line" d="M-176.3,379.64L-51.85,378.84L-50.56,378.63L-32.41,376.72L-31.11,377.01L-23.33,375.96L-22.04,375.27L-16.85,374.51L-15.56,374.39L-1.3,373.38L0,372.39L2.59,371.97L3.89,370.46L6.48,366.99L7.78,365.07L10.37,362.89L11.67,362.28L19.44,347.35L20.74,346.53L23.33,339.47L24.63,333.5L28.52,320.31L29.81,318.61L36.3,284.64L37.59,283.4L38.89,282.39L40.19,274.99L41.48,270.95L42.78,270.7L47.96,278.69L49.26,286.42L50.56,292.52L51.85,306.86L55.74,325.59L57.04,326.58L59.63,340.22L60.93,337.95L63.52,346.4L64.81,347.48L66.11,348.04L67.41,351.58L70,355.3L71.3,357.4L72.59,359.23L73.89,359.65L75.19,359.9L76.48,361.16L79.07,362.95L80.37,362.93L82.96,363.92L84.26,363.79L92.04,365.05L93.33,364.95L97.22,365.66L98.52,365.12L102.41,359.35L103.7,358.91L106.3,355.7L107.59,357L110.19,362.63L111.48,364.67L112.78,364.8L114.07,366.76L115.37,366.99L116.67,366.31L117.96,366.52L119.26,365.81L120.56,365.98L121.85,364.74L123.15,363.81L124.44,364.25L125.74,363.94L127.04,361.6L129.63,362.21L130.93,363.64L134.81,365.51L136.11,365.75L145.19,366.97L146.48,366.63L160.74,367.34L162.04,366.92L163.33,367.68L164.63,367.49L169.81,368.18L171.11,368.48L176.3,369.36L177.59,370.01L185.37,368.42L186.67,367.2L189.26,366.63L190.56,366.31L198.33,367.79L199.63,367.13L202.22,366.4L203.52,366.15L204.81,366.42L206.11,365.73L210,365.81L211.3,365.89L215.19,362.66L216.48,361.02L225.56,354.62L226.85,353.34L233.33,351.28L234.63,352.06L237.22,351.26L238.52,351.7L239.81,355.61L241.11,354.2L243.7,352.86L245,353.55L247.59,354.25L248.89,349.62L251.48,353.13L252.78,353.99L257.96,355.36L259.26,355.72L265.74,358.35L267.04,360.05L268.33,360.11L269.63,360.97L273.52,364.38L274.81,364.17L276.11,364.23L277.41,365.54L283.89,367.7L285.19,368.63L287.78,370.08L289.07,371.32L290.37,371.59L291.67,370.94L294.26,371.46L295.56,371.65L296.85,371.78L298.15,370.79L302.04,370.71L303.33,372.73L307.22,373.04L308.52,373.69L311.11,374.11L312.41,373.02L321.48,375.75L322.78,376.07L327.96,377.22L329.26,377.25L334.44,378.61L335.74,378.65L343.52,379.05L344.81,379.01L366.85,377.56L368.15,376.8L369.44,376.83L370.74,375.86L373.33,373.69L374.63,373.52L381.11,359L382.41,357.78L383.7,357.25L385,355.13L387.59,354.94L388.89,354.94L395.37,357.48L396.67,358.22L397.96,359L399.26,358.7L403.15,359.06L404.44,358.2L412.22,357.93L413.52,359.06L431.67,366.19L432.96,366.25L436.85,367.91L438.15,368.02L444.63,371.8L445.93,372.35L448.52,373.29L449.81,373.95L455,375.02L456.3,374.91L462.78,375.98L464.07,375.94L483.52,376.89L484.81,376.93L490,377.14L491.3,376.87L493.89,376.76L495.19,376.4L502.96,375.04L504.26,375.04L512.04,375.44L513.33,373.99L519.81,372.07L521.11,370.22L522.41,370.98L523.7,369.97L525,371.13L526.3,369.4L528.89,368.44L530.19,366.42L532.78,363.92L534.07,360.2L537.96,358.35L539.26,355.63L545.74,341.91L547.04,341.13L552.22,329.27L553.52,326.62L554.81,325.38L556.11,325.34L558.7,320.25L560,319.28L561.3,317.79L562.59,319.35L566.48,318.4L567.78,317.1L570.37,315.23L571.67,311.32L574.26,308.08L575.56,303.39L579.44,278.69L580.74,269.5L582.04,268.95L583.33,261.51L589.81,167.79L591.11,166.76L592.41,160.14L593.7,130.37L600.19,11.18L601.48,9.04L602.78,0L604.07,6.69L605.37,14.4L606.67,15.22L609.26,13.39L610.56,15.07L613.15,6.41L614.44,5.63L615.74,3.3L617.04,7.48L619.63,12.76L620.93,30.13L624.81,72.09L626.11,86.41L628.7,104.42L630,122.82L635.19,190.39L636.48,198.48L637.78,201.64L639.07,220.68L644.26,266.98L645.56,273.28L646.85,276.42L648.15,289.16L652.04,311.08L653.33,315.77L654.63,319.33L655.93,320.48L658.52,331.9L659.81,334.97L663.7,341.19L665,341.53L667.59,343.67L668.89,345.04L672.78,348.32L674.07,348.97L675.37,350.67L676.67,350.36L677.96,349.79" style="vector-effect: non-scaling-stroke; fill: none; stroke: rgb(8, 115, 191); stroke-opacity: 1; stroke-width: 0.5px; opacity: 1;"/></g><g class="points"/><g class="text"/></g><g class="trace scatter trace62c868" style="stroke-miterlimit: 2;"><g class="fills"><g><path class="js-fill" d="M690.93,380L677.96,380L677.96,349.79L680.56,348.61L681.85,347.56L683.15,346.64L684.44,342.33L687.04,337.22L688.33,333.43L690.93,329.02" style="fill: rgb(8, 115, 191); fill-opacity: 0.4; stroke-width: 0;"/></g></g><g class="errorbars"/><g class="lines"><path class="js-line" d="M677.96,349.79L680.56,348.61L681.85,347.56L683.15,346.64L684.44,342.33L687.04,337.22L688.33,333.43L690.93,329.02" style="vector-effect: non-scaling-stroke; fill: none; stroke: rgb(8, 115, 191); stroke-opacity: 1; stroke-width: 2px; opacity: 1;"/></g><g class="points"/><g class="text"/></g><g class="trace scatter traceb591d6" style="stroke-miterlimit: 2; opacity: 1;"><g class="fills"/><g class="errorbars"/><g class="lines"/><g class="points"><path class="point" transform="translate(690.93,329.02)" d="M15,0A15,15 0 1,1 0,-15A15,15 0 0,1 15,0Z" style="opacity: 1; stroke-width: 0px; fill: rgb(8, 115, 191); fill-opacity: 1;"/></g><g class="text"/></g></g></g><g class="overplot"/><path class="xlines-above crisp" style="fill: none; stroke-width: 1px; stroke: rgb(0, 0, 0); stroke-opacity: 0;" d=""/><path class="ylines-above crisp" style="fill: none;" d="M0,0"/><g class="overlines-above"/><g class="xaxislayer-above"><path class="xtick ticks crisp" d="M0,450v-5" transform="translate(92.78,0)" style="stroke: rgb(68, 68, 68); stroke-opacity: 1; stroke-width: 1px;"/><path class="xtick ticks crisp" d="M0,450v-5" transform="translate(171.85,0)" style="stroke: rgb(68, 68, 68); stroke-opacity: 1; stroke-width: 1px;"/><path class="xtick ticks crisp" d="M0,450v-5" transform="translate(248.33,0)" style="stroke: rgb(68, 68, 68); stroke-opacity: 1; stroke-width: 1px;"/><path class="xtick ticks crisp" d="M0,450v-5" transform="translate(327.41,0)" style="stroke: rgb(68, 68, 68); stroke-opacity: 1; stroke-width: 1px;"/><path class="xtick ticks crisp" d="M0,450v-5" transform="translate(406.48,0)" style="stroke: rgb(68, 68, 68); stroke-opacity: 1; stroke-width: 1px;"/><path class="xtick ticks crisp" d="M0,450v-5" transform="translate(486.85,0)" style="stroke: rgb(68, 68, 68); stroke-opacity: 1; stroke-width: 1px;"/><path class="xtick ticks crisp" d="M0,450v-5" transform="translate(565.93,0)" style="stroke: rgb(68, 68, 68); stroke-opacity: 1; stroke-width: 1px;"/><path class="xtick ticks crisp" d="M0,450v-5" transform="translate(645,0)" style="stroke: rgb(68, 68, 68); stroke-opacity: 1; stroke-width: 1px;"/><path class="xtick ticks crisp" d="M0,450v-5" transform="translate(721.48,0)" style="stroke: rgb(68, 68, 68); stroke-opacity: 1; stroke-width: 1px;"/><g class="xtick"><text text-anchor="middle" x="0" y="469" transform="translate(92.78,0)" style="font-family: 'Open Sans', verdana, arial, sans-serif; font-size: 18px; fill: rgb(42, 63, 95); fill-opacity: 1; white-space: pre;">01/11</text></g><g class="xtick"><text text-anchor="middle" x="0" y="469" transform="translate(171.85,0)" style="font-family: 'Open Sans', verdana, arial, sans-serif; font-size: 18px; fill: rgb(42, 63, 95); fill-opacity: 1; white-space: pre;">01/01</text></g><g class="xtick"><text text-anchor="middle" x="0" y="469" transform="translate(248.33,0)" style="font-family: 'Open Sans', verdana, arial, sans-serif; font-size: 18px; fill: rgb(42, 63, 95); fill-opacity: 1; white-space: pre;">01/03</text></g><g class="xtick"><text text-anchor="middle" x="0" y="469" transform="translate(327.41,0)" style="font-family: 'Open Sans', verdana, arial, sans-serif; font-size: 18px; fill: rgb(42, 63, 95); fill-opacity: 1; white-space: pre;">01/05</text></g><g class="xtick"><text text-anchor="middle" x="0" y="469" transform="translate(406.48,0)" style="font-family: 'Open Sans', verdana, arial, sans-serif; font-size: 18px; fill: rgb(42, 63, 95); fill-opacity: 1; white-space: pre;">01/07</text></g><g class="xtick"><text text-anchor="middle" x="0" y="469" transform="translate(486.85,0)" style="font-family: 'Open Sans', verdana, arial, sans-serif; font-size: 18px; fill: rgb(42, 63, 95); fill-opacity: 1; white-space: pre;">01/09</text></g><g class="xtick"><text text-anchor="middle" x="0" y="469" transform="translate(565.93,0)" style="font-family: 'Open Sans', verdana, arial, sans-serif; font-size: 18px; fill: rgb(42, 63, 95); fill-opacity: 1; white-space: pre;">01/11</text></g><g class="xtick"><text text-anchor="middle" x="0" y="469" transform="translate(645,0)" style="font-family: 'Open Sans', verdana, arial, sans-serif; font-size: 18px; fill: rgb(42, 63, 95); fill-opacity: 1; white-space: pre;">01/01</text></g><g class="xtick"><text text-anchor="middle" x="0" y="469" transform="translate(721.48,0)" style="font-family: 'Open Sans', verdana, arial, sans-serif; font-size: 18px; fill: rgb(42, 63, 95); fill-opacity: 1; white-space: pre;">01/03</text></g></g><g class="yaxislayer-above"/><g class="overaxes-above"/></g></g><g class="polarlayer"/><g class="ternarylayer"/><g class="geolayer"/><g class="funnelarealayer"/><g class="pielayer"/><g class="treemaplayer"/><g class="sunburstlayer"/><g class="glimages"/><defs id="topdefs-41fc1b"><g class="clips"/></defs><g class="layer-above"><g class="imagelayer"/><g class="shapelayer"><path data-index="0" fill-rule="evenodd" d="M-678.52,445.45L269.07,445.45" clip-path="url('#clip41fc1bxy')" style="opacity: 1; stroke: rgb(255, 0, 0); stroke-opacity: 1; fill: rgb(0, 0, 0); fill-opacity: 0; stroke-dasharray: 3px, 3px; stroke-width: 1.5px;"/></g></g><g class="infolayer"><g class="g-gtitle"><text class="gtitle" x="375" y="25" text-anchor="middle" dy="0.7em" style="font-family: 'Open Sans', verdana, arial, sans-serif; font-size: 50px; fill: rgb(42, 63, 95); opacity: 1; font-weight: normal; white-space: pre;"><tspan style="font-weight:bold">Savoie (73)</tspan></text></g><g class="g-xtitle"/><g class="annotation" data-index="0" style="opacity: 1;"><g class="annotation-text-g" transform="rotate(0,698.93,339.02)"><g class="cursor-pointer" transform="translate(641, 303)"><rect class="bg" x="0.5" y="0.5" width="115" height="71" style="stroke-width: 1px; stroke: rgb(0, 0, 0); stroke-opacity: 0; fill: rgb(255, 255, 255); fill-opacity: 0.6;"/><text class="annotation-text" text-anchor="middle" x="57.8125" y="55.5" style="font-family: 'Open Sans', verdana, arial, sans-serif; font-size: 50px; fill: rgb(8, 115, 191); fill-opacity: 1; white-space: pre;"> <tspan style="font-weight:bold">560 </tspan></text></g></g><g class="annotation-arrow-g" style="opacity: 1;"><path d="M727.3299999999999,374.52L738.93,389.02" style="stroke-width: 1px; stroke: rgb(8, 115, 191); stroke-opacity: 1; stroke-dasharray: 0px, 0px, 18.569px, 18.569px;"/></g></g></g></svg>