<svg class="main-svg" xmlns="http://www.w3.org/2000/svg" xmlns:xlink="http://www.w3.org/1999/xlink" width="1125" height="750" style="" viewBox="0 0 750 500"><rect x="0" y="0" width="750" height="500" style="fill: rgb(0, 0, 0); fill-opacity: 0;"/><defs id="defs-46dfb0"><g class="clips"><clipPath id="clip46dfb0xyplot" class="plotclip"><rect width="700" height="380"/></clipPath><clipPath class="axesclip" id="clip46dfb0x"><rect x="50" y="0" width="700" height="500"/></clipPath><clipPath class="axesclip" id="clip46dfb0y"><rect x="0" y="70" width="750" height="380"/></clipPath><clipPath class="axesclip" id="clip46dfb0xy"><rect x="50" y="70" width="700" height="380"/></clipPath></g><g class="gradients"/></defs><g class="bglayer"><rect class="bg" x="50" y="70" width="700" height="380" style="fill: rgb(0, 0, 0); fill-opacity: 0; stroke-width: 0;"/></g><g class="layer-below"><g class="imagelayer"/><g class="shapelayer"/></g><g class="cartesianlayer"><g class="subplot xy"><g class="layer-subplot"><g class="shapelayer"/><g class="imagelayer"/></g><g class="gridlayer"><g class="x"><path class="xgrid crisp" transform="translate(52.23,0)" d="M0,70v380" style="stroke: rgb(255, 255, 255); stroke-opacity: 1; stroke-width: 1px;"/><path class="xgrid crisp" transform="translate(154.94,0)" d="M0,70v380" style="stroke: rgb(255, 255, 255); stroke-opacity: 1; stroke-width: 1px;"/><path class="xgrid crisp" transform="translate(255.42,0)" d="M0,70v380" style="stroke: rgb(255, 255, 255); stroke-opacity: 1; stroke-width: 1px;"/><path class="xgrid crisp" transform="translate(357.02,0)" d="M0,70v380" style="stroke: rgb(255, 255, 255); stroke-opacity: 1; stroke-width: 1px;"/><path class="xgrid crisp" transform="translate(459.73,0)" d="M0,70v380" style="stroke: rgb(255, 255, 255); stroke-opacity: 1; stroke-width: 1px;"/><path class="xgrid crisp" transform="translate(562.44,0)" d="M0,70v380" style="stroke: rgb(255, 255, 255); stroke-opacity: 1; stroke-width: 1px;"/><path class="xgrid crisp" transform="translate(662.92,0)" d="M0,70v380" style="stroke: rgb(255, 255, 255); stroke-opacity: 1; stroke-width: 1px;"/></g><g class="y"/></g><g class="zerolinelayer"/><path class="xlines-below"/><path class="ylines-below"/><g class="overlines-below"/><g class="xaxislayer-below"/><g class="yaxislayer-below"/><g class="overaxes-below"/><g class="plot" transform="translate(50, 70)" clip-path="url('#clip46dfb0xyplot')"><g class="scatterlayer mlayer"><g class="trace scatter traced79b78" style="stroke-miterlimit: 2;"><g class="fills"><g><path class="js-fill" d="M681.02,380L-151.83,380L-151.83,378.61L-46.89,378.87L-45.77,378.57L-35.73,377.78L-34.61,377.37L-29.03,377.5L-27.91,377.39L-24.56,376.75L-23.44,376.19L-14.51,374.59L-13.4,374.7L-2.23,374.8L-1.12,374.42L1.12,374.16L2.23,374.25L7.81,369.29L8.93,368.41L10.05,368.39L11.16,367.21L16.75,360.48L17.86,360.44L24.56,347.48L25.68,347.39L27.91,345.56L29.03,343.67L31.26,344.21L32.38,343.55L33.49,343.42L34.61,342.43L35.73,342.84L36.84,342.43L41.31,342.5L42.42,343.57L43.54,344.34L44.66,350.3L48.01,355.37L49.12,355.37L51.36,360.42L52.47,357.7L56.94,361.95L58.05,362.21L63.64,366.02L64.75,365.91L65.87,366.72L66.99,366.29L69.22,367L70.33,366.12L73.68,363.67L74.8,363.71L77.03,361.42L78.15,360.03L80.38,360.03L81.5,358.38L82.62,356.95L83.73,354.3L84.85,351.8L85.96,351.52L89.31,350.52L90.43,350.88L91.55,352.42L92.66,356.35L93.78,360.99L94.9,361.23L97.13,362.06L98.25,361.38L99.36,362.06L100.48,361.38L103.83,360.86L104.94,361.63L106.06,363.11L107.18,363.28L108.29,363.17L109.41,359.45L111.64,359.58L112.76,358.19L116.11,356.37L117.22,356.61L120.57,356.07L121.69,355.58L126.16,353.06L127.27,352.95L130.62,351.73L131.74,352.23L138.44,352.44L139.55,351.78L144.02,351.41L145.14,351.26L151.83,355.69L152.95,357.06L155.18,358.15L156.3,357.68L158.53,356.93L159.65,357.64L161.88,355.43L163,355.45L166.35,355.35L167.46,355.73L169.7,357.68L170.81,356.69L174.16,355.97L175.28,354.34L177.51,351.61L178.63,351.73L180.86,350.79L181.98,350.62L183.09,349.36L184.21,349.47L188.68,343.78L189.79,343.8L192.03,339.18L193.14,338.03L195.37,335.76L196.49,336L197.61,336.04L198.72,335.21L200.96,332.79L202.07,332.73L203.19,333.86L204.31,333.9L205.42,333.86L206.54,343.48L207.66,341.86L208.77,342.22L209.89,342.95L211,342.35L212.12,342.88L213.24,342.54L214.35,334.65L215.47,338.95L216.59,339.76L217.7,339.57L221.05,340.49L222.17,341.77L224.4,342.24L225.52,343.87L226.63,345.77L227.75,346.05L231.1,346.71L232.22,348.83L234.45,349.55L235.57,352.55L236.68,352.38L237.8,353L241.15,354.98L242.26,355.99L244.5,356.27L245.61,357.66L247.85,357.83L248.96,361.23L252.31,358.08L253.43,357.02L255.66,358.68L256.78,357.17L259.01,360.67L260.13,361.08L261.24,367.11L262.36,366.53L264.59,367.06L265.71,367.3L267.94,367.68L269.06,366.23L271.29,370.31L272.41,371.68L274.64,373.2L275.76,373.24L280.22,375.81L281.34,376.37L288.04,378.8L289.15,378.95L311.48,378.46L312.6,378.5L322.65,376.9L323.76,375.3L328.23,372.82L329.35,372.73L334.93,372.82L336.04,372.15L341.63,371.62L342.74,370.59L347.21,370.61L348.33,370.23L349.44,369.61L350.56,370.27L352.79,369.82L353.91,369.78L356.14,369.48L357.26,369.82L365.07,370.36L366.19,370.23L369.54,369.91L370.65,370.34L372.89,371.55L374,372.24L376.24,373.99L377.35,374.06L382.93,376.26L384.05,376.37L389.63,376.84L390.75,376.96L408.61,377.56L409.73,377.93L417.54,378.08L418.66,378.03L423.13,377.93L424.24,377.99L428.71,377.41L429.82,376.96L437.64,376.07L438.76,375.85L442.11,375.87L443.22,375.19L447.69,373.69L448.8,372.28L449.92,372.37L451.04,371.55L452.15,372.28L453.27,371.77L456.62,369.95L457.74,369.14L458.85,368.2L459.97,365.7L467.78,359.75L468.9,358.58L471.13,357.87L472.25,355.48L475.6,350.11L476.71,348.31L481.18,346.56L482.3,347.01L483.41,346.5L484.53,347.31L490.11,347.03L491.23,347.82L493.46,348.46L494.58,348.42L495.69,349.87L496.81,349.36L500.16,342.39L501.28,345.02L502.39,344.47L503.51,331.38L506.86,284.02L507.97,268.69L509.09,267.71L510.21,264.89L512.44,211.26L513.56,199.08L515.79,182.85L516.91,159.8L518.02,157.34L519.14,158.43L520.26,158.28L521.37,151.61L522.49,145.86L523.6,135.34L524.72,126.38L525.84,123.86L529.19,59.72L530.3,41.14L532.54,17.02L533.65,14.05L534.77,3.44L535.89,1.18L537,0L538.12,5.6L540.35,12.38L541.47,12.98L543.7,35.51L544.82,50.22L545.93,60.27L547.05,77.89L549.28,101.05L550.4,138.46L554.86,226.12L555.98,237.48L557.1,239.23L558.21,257.68L561.56,286.42L562.68,292.34L567.15,304.63L568.26,308.95L569.38,311.95L570.49,317.87L571.61,321.84L572.73,322.14L574.96,328.39L576.08,329.63L577.19,329.95L578.31,327.81L580.54,327.6L581.66,325.52L583.89,321.07L585.01,317.08L586.12,315.05L587.24,310.11L588.36,309.1L589.47,300.23L595.06,273.27L596.17,273.12L602.87,231.08L603.99,231.06L606.22,215.9L607.34,211.65L610.69,213.19L611.8,212.67L612.92,215.3L614.04,215.67L615.15,217.76L616.27,217.14L617.38,216.99L618.5,219.26L619.62,219.86L620.73,226.89L626.32,248.4L627.43,248.66L628.55,277.09L629.67,271.17L633.01,288.32L634.13,292.7L635.25,293.49L636.36,277.29L638.6,301.94L639.71,307.65L641.95,316.41L643.06,317.2L644.18,323.3L645.3,324.9L649.76,329.43L650.88,329.33L653.11,333.56L654.23,335.1L656.46,340.25L657.58,341.04L658.69,341.24L659.81,344.64L663.16,349.9L664.27,351.39L666.51,352.72L667.62,354.86L669.86,357.49L670.97,361.04L672.09,360.93L673.21,362L676.56,361.72L677.67,361.04L678.79,358.11L679.9,358.92L681.02,357.85" style="fill: rgb(8, 115, 191); fill-opacity: 0.2; stroke-width: 0;"/></g></g><g class="errorbars"/><g class="lines"><path class="js-line" d="M-151.83,378.61L-46.89,378.87L-45.77,378.57L-35.73,377.78L-34.61,377.37L-29.03,377.5L-27.91,377.39L-24.56,376.75L-23.44,376.19L-14.51,374.59L-13.4,374.7L-2.23,374.8L-1.12,374.42L1.12,374.16L2.23,374.25L7.81,369.29L8.93,368.41L10.05,368.39L11.16,367.21L16.75,360.48L17.86,360.44L24.56,347.48L25.68,347.39L27.91,345.56L29.03,343.67L31.26,344.21L32.38,343.55L33.49,343.42L34.61,342.43L35.73,342.84L36.84,342.43L41.31,342.5L42.42,343.57L43.54,344.34L44.66,350.3L48.01,355.37L49.12,355.37L51.36,360.42L52.47,357.7L56.94,361.95L58.05,362.21L63.64,366.02L64.75,365.91L65.87,366.72L66.99,366.29L69.22,367L70.33,366.12L73.68,363.67L74.8,363.71L77.03,361.42L78.15,360.03L80.38,360.03L81.5,358.38L82.62,356.95L83.73,354.3L84.85,351.8L85.96,351.52L89.31,350.52L90.43,350.88L91.55,352.42L92.66,356.35L93.78,360.99L94.9,361.23L97.13,362.06L98.25,361.38L99.36,362.06L100.48,361.38L103.83,360.86L104.94,361.63L106.06,363.11L107.18,363.28L108.29,363.17L109.41,359.45L111.64,359.58L112.76,358.19L116.11,356.37L117.22,356.61L120.57,356.07L121.69,355.58L126.16,353.06L127.27,352.95L130.62,351.73L131.74,352.23L138.44,352.44L139.55,351.78L144.02,351.41L145.14,351.26L151.83,355.69L152.95,357.06L155.18,358.15L156.3,357.68L158.53,356.93L159.65,357.64L161.88,355.43L163,355.45L166.35,355.35L167.46,355.73L169.7,357.68L170.81,356.69L174.16,355.97L175.28,354.34L177.51,351.61L178.63,351.73L180.86,350.79L181.98,350.62L183.09,349.36L184.21,349.47L188.68,343.78L189.79,343.8L192.03,339.18L193.14,338.03L195.37,335.76L196.49,336L197.61,336.04L198.72,335.21L200.96,332.79L202.07,332.73L203.19,333.86L204.31,333.9L205.42,333.86L206.54,343.48L207.66,341.86L208.77,342.22L209.89,342.95L211,342.35L212.12,342.88L213.24,342.54L214.35,334.65L215.47,338.95L216.59,339.76L217.7,339.57L221.05,340.49L222.17,341.77L224.4,342.24L225.52,343.87L226.63,345.77L227.75,346.05L231.1,346.71L232.22,348.83L234.45,349.55L235.57,352.55L236.68,352.38L237.8,353L241.15,354.98L242.26,355.99L244.5,356.27L245.61,357.66L247.85,357.83L248.96,361.23L252.31,358.08L253.43,357.02L255.66,358.68L256.78,357.17L259.01,360.67L260.13,361.08L261.24,367.11L262.36,366.53L264.59,367.06L265.71,367.3L267.94,367.68L269.06,366.23L271.29,370.31L272.41,371.68L274.64,373.2L275.76,373.24L280.22,375.81L281.34,376.37L288.04,378.8L289.15,378.95L311.48,378.46L312.6,378.5L322.65,376.9L323.76,375.3L328.23,372.82L329.35,372.73L334.93,372.82L336.04,372.15L341.63,371.62L342.74,370.59L347.21,370.61L348.33,370.23L349.44,369.61L350.56,370.27L352.79,369.82L353.91,369.78L356.14,369.48L357.26,369.82L365.07,370.36L366.19,370.23L369.54,369.91L370.65,370.34L372.89,371.55L374,372.24L376.24,373.99L377.35,374.06L382.93,376.26L384.05,376.37L389.63,376.84L390.75,376.96L408.61,377.56L409.73,377.93L417.54,378.08L418.66,378.03L423.13,377.93L424.24,377.99L428.71,377.41L429.82,376.96L437.64,376.07L438.76,375.85L442.11,375.87L443.22,375.19L447.69,373.69L448.8,372.28L449.92,372.37L451.04,371.55L452.15,372.28L453.27,371.77L456.62,369.95L457.74,369.14L458.85,368.2L459.97,365.7L467.78,359.75L468.9,358.58L471.13,357.87L472.25,355.48L475.6,350.11L476.71,348.31L481.18,346.56L482.3,347.01L483.41,346.5L484.53,347.31L490.11,347.03L491.23,347.82L493.46,348.46L494.58,348.42L495.69,349.87L496.81,349.36L500.16,342.39L501.28,345.02L502.39,344.47L503.51,331.38L506.86,284.02L507.97,268.69L509.09,267.71L510.21,264.89L512.44,211.26L513.56,199.08L515.79,182.85L516.91,159.8L518.02,157.34L519.14,158.43L520.26,158.28L521.37,151.61L522.49,145.86L523.6,135.34L524.72,126.38L525.84,123.86L529.19,59.72L530.3,41.14L532.54,17.02L533.65,14.05L534.77,3.44L535.89,1.18L537,0L538.12,5.6L540.35,12.38L541.47,12.98L543.7,35.51L544.82,50.22L545.93,60.27L547.05,77.89L549.28,101.05L550.4,138.46L554.86,226.12L555.98,237.48L557.1,239.23L558.21,257.68L561.56,286.42L562.68,292.34L567.15,304.63L568.26,308.95L569.38,311.95L570.49,317.87L571.61,321.84L572.73,322.14L574.96,328.39L576.08,329.63L577.19,329.95L578.31,327.81L580.54,327.6L581.66,325.52L583.89,321.07L585.01,317.08L586.12,315.05L587.24,310.11L588.36,309.1L589.47,300.23L595.06,273.27L596.17,273.12L602.87,231.08L603.99,231.06L606.22,215.9L607.34,211.65L610.69,213.19L611.8,212.67L612.92,215.3L614.04,215.67L615.15,217.76L616.27,217.14L617.38,216.99L618.5,219.26L619.62,219.86L620.73,226.89L626.32,248.4L627.43,248.66L628.55,277.09L629.67,271.17L633.01,288.32L634.13,292.7L635.25,293.49L636.36,277.29L638.6,301.94L639.71,307.65L641.95,316.41L643.06,317.2L644.18,323.3L645.3,324.9L649.76,329.43L650.88,329.33L653.11,333.56L654.23,335.1L656.46,340.25L657.58,341.04L658.69,341.24L659.81,344.64L663.16,349.9L664.27,351.39L666.51,352.72L667.62,354.86L669.86,357.49L670.97,361.04L672.09,360.93L673.21,362L676.56,361.72L677.67,361.04L678.79,358.11L679.9,358.92L681.02,357.85" style="vector-effect: non-scaling-stroke; fill: none; stroke: rgb(8, 115, 191); stroke-opacity: 1; stroke-width: 0.5px; opacity: 1;"/></g><g class="points"/><g class="text"/></g><g class="trace scatter trace348bc9" style="stroke-miterlimit: 2;"><g class="fills"><g><path class="js-fill" d="M692.19,380L681.02,380L681.02,357.85L682.14,357.66L683.25,361.68L685.49,356.46L686.6,355.01L688.84,351.65L689.95,351.24L691.07,344.02L692.19,344.61" style="fill: rgb(8, 115, 191); fill-opacity: 0.4; stroke-width: 0;"/></g></g><g class="errorbars"/><g class="lines"><path class="js-line" d="M681.02,357.85L682.14,357.66L683.25,361.68L685.49,356.46L686.6,355.01L688.84,351.65L689.95,351.24L691.07,344.02L692.19,344.61" style="vector-effect: non-scaling-stroke; fill: none; stroke: rgb(8, 115, 191); stroke-opacity: 1; stroke-width: 2px; opacity: 1;"/></g><g class="points"/><g class="text"/></g><g class="trace scatter trace1a1543" style="stroke-miterlimit: 2; opacity: 1;"><g class="fills"/><g class="errorbars"/><g class="lines"/><g class="points"><path class="point" transform="translate(692.19,344.61)" d="M15,0A15,15 0 1,1 0,-15A15,15 0 0,1 15,0Z" style="opacity: 1; stroke-width: 0px; fill: rgb(8, 115, 191); fill-opacity: 1;"/></g><g class="text"/></g></g></g><g class="overplot"/><path class="xlines-above crisp" style="fill: none; stroke-width: 1px; stroke: rgb(0, 0, 0); stroke-opacity: 0;" d=""/><path class="ylines-above crisp" style="fill: none;" d="M0,0"/><g class="overlines-above"/><g class="xaxislayer-above"><path class="xtick ticks crisp" d="M0,450v-5" transform="translate(52.23,0)" style="stroke: rgb(68, 68, 68); stroke-opacity: 1; stroke-width: 1px;"/><path class="xtick ticks crisp" d="M0,450v-5" transform="translate(154.94,0)" style="stroke: rgb(68, 68, 68); stroke-opacity: 1; stroke-width: 1px;"/><path class="xtick ticks crisp" d="M0,450v-5" transform="translate(255.42,0)" style="stroke: rgb(68, 68, 68); stroke-opacity: 1; stroke-width: 1px;"/><path class="xtick ticks crisp" d="M0,450v-5" transform="translate(357.02,0)" style="stroke: rgb(68, 68, 68); stroke-opacity: 1; stroke-width: 1px;"/><path class="xtick ticks crisp" d="M0,450v-5" transform="translate(459.73,0)" style="stroke: rgb(68, 68, 68); stroke-opacity: 1; stroke-width: 1px;"/><path class="xtick ticks crisp" d="M0,450v-5" transform="translate(562.44,0)" style="stroke: rgb(68, 68, 68); stroke-opacity: 1; stroke-width: 1px;"/><path class="xtick ticks crisp" d="M0,450v-5" transform="translate(662.92,0)" style="stroke: rgb(68, 68, 68); stroke-opacity: 1; stroke-width: 1px;"/><g class="xtick"><text text-anchor="middle" x="0" y="469" transform="translate(52.23,0)" style="font-family: 'Open Sans', verdana, arial, sans-serif; font-size: 18px; fill: rgb(42, 63, 95); fill-opacity: 1; white-space: pre;">01/10</text></g><g class="xtick"><text text-anchor="middle" x="0" y="469" transform="translate(154.94,0)" style="font-family: 'Open Sans', verdana, arial, sans-serif; font-size: 18px; fill: rgb(42, 63, 95); fill-opacity: 1; white-space: pre;">01/01</text></g><g class="xtick"><text text-anchor="middle" x="0" y="469" transform="translate(255.42,0)" style="font-family: 'Open Sans', verdana, arial, sans-serif; font-size: 18px; fill: rgb(42, 63, 95); fill-opacity: 1; white-space: pre;">01/04</text></g><g class="xtick"><text text-anchor="middle" x="0" y="469" transform="translate(357.02,0)" style="font-family: 'Open Sans', verdana, arial, sans-serif; font-size: 18px; fill: rgb(42, 63, 95); fill-opacity: 1; white-space: pre;">01/07</text></g><g class="xtick"><text text-anchor="middle" x="0" y="469" transform="translate(459.73,0)" style="font-family: 'Open Sans', verdana, arial, sans-serif; font-size: 18px; fill: rgb(42, 63, 95); fill-opacity: 1; white-space: pre;">01/10</text></g><g class="xtick"><text text-anchor="middle" x="0" y="469" transform="translate(562.44,0)" style="font-family: 'Open Sans', verdana, arial, sans-serif; font-size: 18px; fill: rgb(42, 63, 95); fill-opacity: 1; white-space: pre;">01/01</text></g><g class="xtick"><text text-anchor="middle" x="0" y="469" transform="translate(662.92,0)" style="font-family: 'Open Sans', verdana, arial, sans-serif; font-size: 18px; fill: rgb(42, 63, 95); fill-opacity: 1; white-space: pre;">01/04</text></g></g><g class="yaxislayer-above"/><g class="overaxes-above"/></g></g><g class="polarlayer"/><g class="ternarylayer"/><g class="geolayer"/><g class="funnelarealayer"/><g class="pielayer"/><g class="treemaplayer"/><g class="sunburstlayer"/><g class="glimages"/><defs id="topdefs-46dfb0"><g class="clips"/></defs><g class="layer-above"><g class="imagelayer"/><g class="shapelayer"><path data-index="0" fill-rule="evenodd" d="M-577.43,444.38L238.68,444.38" clip-path="url('#clip46dfb0xy')" style="opacity: 1; stroke: rgb(255, 0, 0); stroke-opacity: 1; fill: rgb(0, 0, 0); fill-opacity: 0; stroke-dasharray: 3px, 3px; stroke-width: 1.5px;"/></g></g><g class="infolayer"><g class="g-gtitle"><text class="gtitle" x="375" y="25" text-anchor="middle" dy="0.7em" style="font-family: 'Open Sans', verdana, arial, sans-serif; font-size: 50px; fill: rgb(42, 63, 95); opacity: 1; font-weight: normal; white-space: pre;"><tspan style="font-weight:bold">Aisne (02)</tspan></text></g><g class="g-xtitle"/><g class="annotation" data-index="0" style="opacity: 1;"><g class="annotation-text-g" transform="rotate(0,700.19,354.61)"><g class="cursor-pointer" transform="translate(642, 319)"><rect class="bg" x="0.5" y="0.5" width="115" height="71" style="stroke-width: 1px; stroke: rgb(0, 0, 0); stroke-opacity: 0; fill: rgb(255, 255, 255); fill-opacity: 0.6;"/><text class="annotation-text" text-anchor="middle" x="57.8125" y="55.5" style="font-family: 'Open Sans', verdana, arial, sans-serif; font-size: 50px; fill: rgb(8, 115, 191); fill-opacity: 1; white-space: pre;"> <tspan style="font-weight:bold">314 </tspan></text></g></g><g class="annotation-arrow-g" style="opacity: 1;"><path d="M728.59,390.11L740.19,404.61" style="stroke-width: 1px; stroke: rgb(8, 115, 191); stroke-opacity: 1; stroke-dasharray: 0px, 0px, 18.569px, 18.569px;"/></g></g></g></svg>