<svg class="main-svg" xmlns="http://www.w3.org/2000/svg" xmlns:xlink="http://www.w3.org/1999/xlink" width="1125" height="750" style="" viewBox="0 0 750 500"><rect x="0" y="0" width="750" height="500" style="fill: rgb(0, 0, 0); fill-opacity: 0;"/><defs id="defs-1eacfa"><g class="clips"><clipPath id="clip1eacfaxyplot" class="plotclip"><rect width="700" height="380"/></clipPath><clipPath class="axesclip" id="clip1eacfax"><rect x="50" y="0" width="700" height="500"/></clipPath><clipPath class="axesclip" id="clip1eacfay"><rect x="0" y="70" width="750" height="380"/></clipPath><clipPath class="axesclip" id="clip1eacfaxy"><rect x="50" y="70" width="700" height="380"/></clipPath></g><g class="gradients"/></defs><g class="bglayer"><rect class="bg" x="50" y="70" width="700" height="380" style="fill: rgb(0, 0, 0); fill-opacity: 0; stroke-width: 0;"/></g><g class="layer-below"><g class="imagelayer"/><g class="shapelayer"/></g><g class="cartesianlayer"><g class="subplot xy"><g class="layer-subplot"><g class="shapelayer"/><g class="imagelayer"/></g><g class="gridlayer"><g class="x"><path class="xgrid crisp" transform="translate(52.25,0)" d="M0,70v380" style="stroke: rgb(255, 255, 255); stroke-opacity: 1; stroke-width: 1px;"/><path class="xgrid crisp" transform="translate(155.62,0)" d="M0,70v380" style="stroke: rgb(255, 255, 255); stroke-opacity: 1; stroke-width: 1px;"/><path class="xgrid crisp" transform="translate(256.74,0)" d="M0,70v380" style="stroke: rgb(255, 255, 255); stroke-opacity: 1; stroke-width: 1px;"/><path class="xgrid crisp" transform="translate(358.99,0)" d="M0,70v380" style="stroke: rgb(255, 255, 255); stroke-opacity: 1; stroke-width: 1px;"/><path class="xgrid crisp" transform="translate(462.36,0)" d="M0,70v380" style="stroke: rgb(255, 255, 255); stroke-opacity: 1; stroke-width: 1px;"/><path class="xgrid crisp" transform="translate(565.73,0)" d="M0,70v380" style="stroke: rgb(255, 255, 255); stroke-opacity: 1; stroke-width: 1px;"/><path class="xgrid crisp" transform="translate(666.85,0)" d="M0,70v380" style="stroke: rgb(255, 255, 255); stroke-opacity: 1; stroke-width: 1px;"/></g><g class="y"/></g><g class="zerolinelayer"/><path class="xlines-below"/><path class="ylines-below"/><g class="overlines-below"/><g class="xaxislayer-below"/><g class="yaxislayer-below"/><g class="overaxes-below"/><g class="plot" transform="translate(50, 70)" clip-path="url('#clip1eacfaxyplot')"><g class="scatterlayer mlayer"><g class="trace scatter trace4caadf" style="stroke-miterlimit: 2;"><g class="fills"><g><path class="js-fill" d="M680.9,380L-152.81,380L-152.81,379.14L-126.97,379.03L-125.84,379.15L-79.78,378.63L-78.65,378.52L-48.31,377.57L-47.19,377.55L-34.83,375.83L-33.71,374.8L-28.09,369.67L-26.97,368.31L-23.6,366.14L-22.47,366.25L-21.35,366.13L-20.22,364.94L-15.73,360.8L-14.61,360.68L-13.48,360.26L-12.36,361.13L-10.11,360.51L-8.99,361.16L-6.74,361.72L-5.62,362.12L-4.49,362.06L-3.37,363.43L-2.25,363.66L-1.12,363.01L4.49,358.62L5.62,356.7L13.48,341.26L14.61,338.76L16.85,336.31L17.98,335.05L21.35,326.34L22.47,322.93L24.72,315.3L25.84,313.93L28.09,306.32L29.21,306.16L30.34,306.32L31.46,307.42L34.83,311.12L35.96,312.72L41.57,327.32L42.7,333.13L46.07,346.88L47.19,349.68L50.56,353.91L51.69,356.34L52.81,355.22L53.93,358.59L56.18,361.5L57.3,361.67L59.55,365L60.67,365.92L65.17,368.06L66.29,368.56L78.65,369.74L79.78,369.65L88.76,369.25L89.89,368.79L92.13,367.95L93.26,368.08L94.38,369.76L95.51,369.64L102.25,369.8L103.37,369.33L107.87,367.76L108.99,367.09L110.11,365.03L111.24,365.3L117.98,365.47L119.1,365.41L124.72,365.02L125.84,364.65L140.45,362.94L141.57,362.98L143.82,362.56L144.94,362.81L151.69,361.47L152.81,360.57L159.55,356.36L160.67,354.96L162.92,353.96L164.04,353.89L167.42,353.97L168.54,354.81L175.28,355.14L176.4,354.45L179.78,352.74L180.9,351.91L183.15,351.35L184.27,349.65L187.64,347.51L188.76,346.59L193.26,344.08L194.38,343.14L196.63,341.61L197.75,341.5L202.25,341.45L203.37,342.1L205.62,343.11L206.74,343.14L207.87,349.56L208.99,348.29L214.61,348.86L215.73,343.78L216.85,346.78L217.98,347.48L226.97,350.94L228.09,351.92L235.96,356.16L237.08,358.33L238.2,358.13L239.33,358.95L243.82,361.53L244.94,361.45L249.44,361.94L250.56,364.26L251.69,364.45L252.81,363.68L255.06,364.7L256.18,365.09L257.3,365.37L258.43,363.94L260.67,364.94L261.8,364.96L262.92,367.49L264.04,367.47L267.42,368.93L268.54,369.28L269.66,369.51L270.79,368.42L273.03,370.48L274.16,371.15L282.02,375.17L283.15,375.65L296.63,378.38L297.75,378.48L306.74,378.54L307.87,378.48L321.35,377.18L322.47,376.71L326.97,374.41L328.09,373.03L333.71,369.97L334.83,369.97L338.2,369.31L339.33,368.87L341.57,368L342.7,367.36L350.56,364.88L351.69,364.14L355.06,363.1L356.18,363.26L358.43,362.94L359.55,363.34L371.91,365.81L373.03,366.91L380.9,369.63L382.02,369.76L387.64,370.82L388.76,371.72L396.63,374.67L397.75,374.96L410.11,376.63L411.24,376.58L432.58,375.25L433.71,374.99L444.94,373.42L446.07,372.92L449.44,371.21L450.56,371.07L451.69,369L452.81,368.79L453.93,368.13L455.06,369.22L457.3,367.93L458.43,367.83L461.8,364.67L462.92,361.58L467.42,356L468.54,354.17L473.03,346.53L474.16,346.06L477.53,338.74L478.65,336.97L480.9,334.07L482.02,333.27L484.27,331.11L485.39,331.14L488.76,331.95L489.89,331.78L492.13,331.32L493.26,331.21L497.75,333.33L498.88,334.94L501.12,335.47L502.25,333.58L503.37,331.82L504.49,334.86L505.62,331.74L506.74,320.07L511.24,267.7L512.36,265.62L513.48,258.53L514.61,231.52L516.85,198.57L517.98,192.4L519.1,182.65L520.22,164.09L521.35,163.82L522.47,161.53L523.6,160.52L524.72,150.01L526.97,127.53L528.09,114.73L529.21,107.56L530.34,84.22L533.71,29.19L534.83,16.27L538.2,0L539.33,4.77L544.94,40.98L546.07,62.29L552.81,161.79L553.93,193.56L558.43,261.42L559.55,269.27L560.67,272.23L561.8,283.18L566.29,307.14L567.42,310.34L568.54,311.82L569.66,316.33L575.28,328.29L576.4,329.35L577.53,331.24L578.65,331.48L579.78,331.25L580.9,329.8L582.02,329.42L583.15,328L584.27,327.3L585.39,323.84L588.76,313.67L589.89,309.23L592.13,304.18L593.26,297.33L596.63,288.38L597.75,286.51L600,283.55L601.12,276.5L606.74,248.49L607.87,247.86L610.11,241.22L611.24,240.9L612.36,241.8L613.48,244.47L615.73,245.62L616.85,247.99L617.98,250.6L619.1,251.28L622.47,252.71L623.6,253.91L626.97,269.89L628.09,274.38L631.46,283.16L632.58,301.62L633.71,300.41L634.83,306.42L638.2,319.38L639.33,320.04L640.45,312.34L641.57,322.17L646.07,336.42L647.19,337.55L649.44,342.55L650.56,343.39L656.18,343.64L657.3,344.25L660.67,347.61L661.8,349.04L662.92,349.6L664.04,352.27L669.66,358.55L670.79,358.8L675.28,365.79L676.4,365.67L679.78,366.03L680.9,365.81" style="fill: rgb(8, 115, 191); fill-opacity: 0.2; stroke-width: 0;"/></g></g><g class="errorbars"/><g class="lines"><path class="js-line" d="M-152.81,379.14L-126.97,379.03L-125.84,379.15L-79.78,378.63L-78.65,378.52L-48.31,377.57L-47.19,377.55L-34.83,375.83L-33.71,374.8L-28.09,369.67L-26.97,368.31L-23.6,366.14L-22.47,366.25L-21.35,366.13L-20.22,364.94L-15.73,360.8L-14.61,360.68L-13.48,360.26L-12.36,361.13L-10.11,360.51L-8.99,361.16L-6.74,361.72L-5.62,362.12L-4.49,362.06L-3.37,363.43L-2.25,363.66L-1.12,363.01L4.49,358.62L5.62,356.7L13.48,341.26L14.61,338.76L16.85,336.31L17.98,335.05L21.35,326.34L22.47,322.93L24.72,315.3L25.84,313.93L28.09,306.32L29.21,306.16L30.34,306.32L31.46,307.42L34.83,311.12L35.96,312.72L41.57,327.32L42.7,333.13L46.07,346.88L47.19,349.68L50.56,353.91L51.69,356.34L52.81,355.22L53.93,358.59L56.18,361.5L57.3,361.67L59.55,365L60.67,365.92L65.17,368.06L66.29,368.56L78.65,369.74L79.78,369.65L88.76,369.25L89.89,368.79L92.13,367.95L93.26,368.08L94.38,369.76L95.51,369.64L102.25,369.8L103.37,369.33L107.87,367.76L108.99,367.09L110.11,365.03L111.24,365.3L117.98,365.47L119.1,365.41L124.72,365.02L125.84,364.65L140.45,362.94L141.57,362.98L143.82,362.56L144.94,362.81L151.69,361.47L152.81,360.57L159.55,356.36L160.67,354.96L162.92,353.96L164.04,353.89L167.42,353.97L168.54,354.81L175.28,355.14L176.4,354.45L179.78,352.74L180.9,351.91L183.15,351.35L184.27,349.65L187.64,347.51L188.76,346.59L193.26,344.08L194.38,343.14L196.63,341.61L197.75,341.5L202.25,341.45L203.37,342.1L205.62,343.11L206.74,343.14L207.87,349.56L208.99,348.29L214.61,348.86L215.73,343.78L216.85,346.78L217.98,347.48L226.97,350.94L228.09,351.92L235.96,356.16L237.08,358.33L238.2,358.13L239.33,358.95L243.82,361.53L244.94,361.45L249.44,361.94L250.56,364.26L251.69,364.45L252.81,363.68L255.06,364.7L256.18,365.09L257.3,365.37L258.43,363.94L260.67,364.94L261.8,364.96L262.92,367.49L264.04,367.47L267.42,368.93L268.54,369.28L269.66,369.51L270.79,368.42L273.03,370.48L274.16,371.15L282.02,375.17L283.15,375.65L296.63,378.38L297.75,378.48L306.74,378.54L307.87,378.48L321.35,377.18L322.47,376.71L326.97,374.41L328.09,373.03L333.71,369.97L334.83,369.97L338.2,369.31L339.33,368.87L341.57,368L342.7,367.36L350.56,364.88L351.69,364.14L355.06,363.1L356.18,363.26L358.43,362.94L359.55,363.34L371.91,365.81L373.03,366.91L380.9,369.63L382.02,369.76L387.64,370.82L388.76,371.72L396.63,374.67L397.75,374.96L410.11,376.63L411.24,376.58L432.58,375.25L433.71,374.99L444.94,373.42L446.07,372.92L449.44,371.21L450.56,371.07L451.69,369L452.81,368.79L453.93,368.13L455.06,369.22L457.3,367.93L458.43,367.83L461.8,364.67L462.92,361.58L467.42,356L468.54,354.17L473.03,346.53L474.16,346.06L477.53,338.74L478.65,336.97L480.9,334.07L482.02,333.27L484.27,331.11L485.39,331.14L488.76,331.95L489.89,331.78L492.13,331.32L493.26,331.21L497.75,333.33L498.88,334.94L501.12,335.47L502.25,333.58L503.37,331.82L504.49,334.86L505.62,331.74L506.74,320.07L511.24,267.7L512.36,265.62L513.48,258.53L514.61,231.52L516.85,198.57L517.98,192.4L519.1,182.65L520.22,164.09L521.35,163.82L522.47,161.53L523.6,160.52L524.72,150.01L526.97,127.53L528.09,114.73L529.21,107.56L530.34,84.22L533.71,29.19L534.83,16.27L538.2,0L539.33,4.77L544.94,40.98L546.07,62.29L552.81,161.79L553.93,193.56L558.43,261.42L559.55,269.27L560.67,272.23L561.8,283.18L566.29,307.14L567.42,310.34L568.54,311.82L569.66,316.33L575.28,328.29L576.4,329.35L577.53,331.24L578.65,331.48L579.78,331.25L580.9,329.8L582.02,329.42L583.15,328L584.27,327.3L585.39,323.84L588.76,313.67L589.89,309.23L592.13,304.18L593.26,297.33L596.63,288.38L597.75,286.51L600,283.55L601.12,276.5L606.74,248.49L607.87,247.86L610.11,241.22L611.24,240.9L612.36,241.8L613.48,244.47L615.73,245.62L616.85,247.99L617.98,250.6L619.1,251.28L622.47,252.71L623.6,253.91L626.97,269.89L628.09,274.38L631.46,283.16L632.58,301.62L633.71,300.41L634.83,306.42L638.2,319.38L639.33,320.04L640.45,312.34L641.57,322.17L646.07,336.42L647.19,337.55L649.44,342.55L650.56,343.39L656.18,343.64L657.3,344.25L660.67,347.61L661.8,349.04L662.92,349.6L664.04,352.27L669.66,358.55L670.79,358.8L675.28,365.79L676.4,365.67L679.78,366.03L680.9,365.81" style="vector-effect: non-scaling-stroke; fill: none; stroke: rgb(8, 115, 191); stroke-opacity: 1; stroke-width: 0.5px; opacity: 1;"/></g><g class="points"/><g class="text"/></g><g class="trace scatter trace6fb3f6" style="stroke-miterlimit: 2;"><g class="fills"><g><path class="js-fill" d="M692.13,380L680.9,380L680.9,365.81L682.02,365.55L683.15,363.73L685.39,363.5L686.52,363.47L687.64,365.76L688.76,362.78L692.13,359.11" style="fill: rgb(8, 115, 191); fill-opacity: 0.4; stroke-width: 0;"/></g></g><g class="errorbars"/><g class="lines"><path class="js-line" d="M680.9,365.81L682.02,365.55L683.15,363.73L685.39,363.5L686.52,363.47L687.64,365.76L688.76,362.78L692.13,359.11" style="vector-effect: non-scaling-stroke; fill: none; stroke: rgb(8, 115, 191); stroke-opacity: 1; stroke-width: 2px; opacity: 1;"/></g><g class="points"/><g class="text"/></g><g class="trace scatter traceeb2ac8" style="stroke-miterlimit: 2; opacity: 1;"><g class="fills"/><g class="errorbars"/><g class="lines"/><g class="points"><path class="point" transform="translate(692.13,359.11)" d="M15,0A15,15 0 1,1 0,-15A15,15 0 0,1 15,0Z" style="opacity: 1; stroke-width: 0px; fill: rgb(8, 115, 191); fill-opacity: 1;"/></g><g class="text"/></g></g></g><g class="overplot"/><path class="xlines-above crisp" style="fill: none; stroke-width: 1px; stroke: rgb(0, 0, 0); stroke-opacity: 0;" d=""/><path class="ylines-above crisp" style="fill: none;" d="M0,0"/><g class="overlines-above"/><g class="xaxislayer-above"><path class="xtick ticks crisp" d="M0,450v-5" transform="translate(52.25,0)" style="stroke: rgb(68, 68, 68); stroke-opacity: 1; stroke-width: 1px;"/><path class="xtick ticks crisp" d="M0,450v-5" transform="translate(155.62,0)" style="stroke: rgb(68, 68, 68); stroke-opacity: 1; stroke-width: 1px;"/><path class="xtick ticks crisp" d="M0,450v-5" transform="translate(256.74,0)" style="stroke: rgb(68, 68, 68); stroke-opacity: 1; stroke-width: 1px;"/><path class="xtick ticks crisp" d="M0,450v-5" transform="translate(358.99,0)" style="stroke: rgb(68, 68, 68); stroke-opacity: 1; stroke-width: 1px;"/><path class="xtick ticks crisp" d="M0,450v-5" transform="translate(462.36,0)" style="stroke: rgb(68, 68, 68); stroke-opacity: 1; stroke-width: 1px;"/><path class="xtick ticks crisp" d="M0,450v-5" transform="translate(565.73,0)" style="stroke: rgb(68, 68, 68); stroke-opacity: 1; stroke-width: 1px;"/><path class="xtick ticks crisp" d="M0,450v-5" transform="translate(666.85,0)" style="stroke: rgb(68, 68, 68); stroke-opacity: 1; stroke-width: 1px;"/><g class="xtick"><text text-anchor="middle" x="0" y="469" transform="translate(52.25,0)" style="font-family: 'Open Sans', verdana, arial, sans-serif; font-size: 18px; fill: rgb(42, 63, 95); fill-opacity: 1; white-space: pre;">01/10</text></g><g class="xtick"><text text-anchor="middle" x="0" y="469" transform="translate(155.62,0)" style="font-family: 'Open Sans', verdana, arial, sans-serif; font-size: 18px; fill: rgb(42, 63, 95); fill-opacity: 1; white-space: pre;">01/01</text></g><g class="xtick"><text text-anchor="middle" x="0" y="469" transform="translate(256.74,0)" style="font-family: 'Open Sans', verdana, arial, sans-serif; font-size: 18px; fill: rgb(42, 63, 95); fill-opacity: 1; white-space: pre;">01/04</text></g><g class="xtick"><text text-anchor="middle" x="0" y="469" transform="translate(358.99,0)" style="font-family: 'Open Sans', verdana, arial, sans-serif; font-size: 18px; fill: rgb(42, 63, 95); fill-opacity: 1; white-space: pre;">01/07</text></g><g class="xtick"><text text-anchor="middle" x="0" y="469" transform="translate(462.36,0)" style="font-family: 'Open Sans', verdana, arial, sans-serif; font-size: 18px; fill: rgb(42, 63, 95); fill-opacity: 1; white-space: pre;">01/10</text></g><g class="xtick"><text text-anchor="middle" x="0" y="469" transform="translate(565.73,0)" style="font-family: 'Open Sans', verdana, arial, sans-serif; font-size: 18px; fill: rgb(42, 63, 95); fill-opacity: 1; white-space: pre;">01/01</text></g><g class="xtick"><text text-anchor="middle" x="0" y="469" transform="translate(666.85,0)" style="font-family: 'Open Sans', verdana, arial, sans-serif; font-size: 18px; fill: rgb(42, 63, 95); fill-opacity: 1; white-space: pre;">01/04</text></g></g><g class="yaxislayer-above"/><g class="overaxes-above"/></g></g><g class="polarlayer"/><g class="ternarylayer"/><g class="geolayer"/><g class="funnelarealayer"/><g class="pielayer"/><g class="treemaplayer"/><g class="sunburstlayer"/><g class="glimages"/><defs id="topdefs-1eacfa"><g class="clips"/></defs><g class="layer-above"><g class="imagelayer"/><g class="shapelayer"><path data-index="0" fill-rule="evenodd" d="M-581.46,445.62L239.89,445.62" clip-path="url('#clip1eacfaxy')" style="opacity: 1; stroke: rgb(255, 0, 0); stroke-opacity: 1; fill: rgb(0, 0, 0); fill-opacity: 0; stroke-dasharray: 3px, 3px; stroke-width: 1.5px;"/></g></g><g class="infolayer"><g class="g-gtitle"><text class="gtitle" x="375" y="25" text-anchor="middle" dy="0.7em" style="font-family: 'Open Sans', verdana, arial, sans-serif; font-size: 50px; fill: rgb(42, 63, 95); opacity: 1; font-weight: normal; white-space: pre;"><tspan style="font-weight:bold">Nord (59)</tspan></text></g><g class="g-xtitle"/><g class="annotation" data-index="0" style="opacity: 1;"><g class="annotation-text-g" transform="rotate(0,700.13,369.11)"><g class="cursor-pointer" transform="translate(642, 333)"><rect class="bg" x="0.5" y="0.5" width="115" height="71" style="stroke-width: 1px; stroke: rgb(0, 0, 0); stroke-opacity: 0; fill: rgb(255, 255, 255); fill-opacity: 0.6;"/><text class="annotation-text" text-anchor="middle" x="57.8125" y="55.5" style="font-family: 'Open Sans', verdana, arial, sans-serif; font-size: 50px; fill: rgb(8, 115, 191); fill-opacity: 1; white-space: pre;"> <tspan style="font-weight:bold">238 </tspan></text></g></g><g class="annotation-arrow-g" style="opacity: 1;"><path d="M728.53,404.61L740.13,419.11" style="stroke-width: 1px; stroke: rgb(8, 115, 191); stroke-opacity: 1; stroke-dasharray: 0px, 0px, 18.569px, 18.569px;"/></g></g></g></svg>