<svg class="main-svg" xmlns="http://www.w3.org/2000/svg" xmlns:xlink="http://www.w3.org/1999/xlink" width="1125" height="750" style="" viewBox="0 0 750 500"><rect x="0" y="0" width="750" height="500" style="fill: rgb(0, 0, 0); fill-opacity: 0;"/><defs id="defs-9106a9"><g class="clips"><clipPath id="clip9106a9xyplot" class="plotclip"><rect width="698" height="380"/></clipPath><clipPath class="axesclip" id="clip9106a9x"><rect x="50" y="0" width="698" height="500"/></clipPath><clipPath class="axesclip" id="clip9106a9y"><rect x="0" y="70" width="750" height="380"/></clipPath><clipPath class="axesclip" id="clip9106a9xy"><rect x="50" y="70" width="698" height="380"/></clipPath></g><g class="gradients"/></defs><g class="bglayer"><rect class="bg" x="50" y="70" width="698" height="380" style="fill: rgb(0, 0, 0); fill-opacity: 0; stroke-width: 0;"/></g><g class="layer-below"><g class="imagelayer"/><g class="shapelayer"/></g><g class="cartesianlayer"><g class="subplot xy"><g class="layer-subplot"><g class="shapelayer"/><g class="imagelayer"/></g><g class="gridlayer"><g class="x"><path class="xgrid crisp" transform="translate(106.03999999999999,0)" d="M0,70v380" style="stroke: rgb(255, 255, 255); stroke-opacity: 1; stroke-width: 1px;"/><path class="xgrid crisp" transform="translate(209.64,0)" d="M0,70v380" style="stroke: rgb(255, 255, 255); stroke-opacity: 1; stroke-width: 1px;"/><path class="xgrid crisp" transform="translate(309.84,0)" d="M0,70v380" style="stroke: rgb(255, 255, 255); stroke-opacity: 1; stroke-width: 1px;"/><path class="xgrid crisp" transform="translate(413.44,0)" d="M0,70v380" style="stroke: rgb(255, 255, 255); stroke-opacity: 1; stroke-width: 1px;"/><path class="xgrid crisp" transform="translate(517.03,0)" d="M0,70v380" style="stroke: rgb(255, 255, 255); stroke-opacity: 1; stroke-width: 1px;"/><path class="xgrid crisp" transform="translate(622.33,0)" d="M0,70v380" style="stroke: rgb(255, 255, 255); stroke-opacity: 1; stroke-width: 1px;"/><path class="xgrid crisp" transform="translate(725.92,0)" d="M0,70v380" style="stroke: rgb(255, 255, 255); stroke-opacity: 1; stroke-width: 1px;"/></g><g class="y"/></g><g class="zerolinelayer"/><path class="xlines-below"/><path class="ylines-below"/><g class="overlines-below"/><g class="xaxislayer-below"/><g class="yaxislayer-below"/><g class="overaxes-below"/><g class="plot" transform="translate(50, 70)" clip-path="url('#clip9106a9xyplot')"><g class="scatterlayer mlayer"><g class="trace scatter trace88b7c5" style="stroke-miterlimit: 2;"><g class="fills"><g><path class="js-fill" d="M669.13,380L-230.97,380L-230.97,377.74L-144.36,378.12L-142.66,376.61L-132.47,378.12L-130.77,379.25L-115.48,377.74L-113.79,376.99L-103.6,377.36L-101.9,376.23L-93.41,369.83L-91.71,369.83L-86.61,369.83L-84.91,368.33L-83.22,367.2L-81.52,369.08L-79.82,369.08L-78.12,366.82L-69.63,338.95L-67.93,338.57L-64.54,325.01L-62.84,321.63L-61.14,317.11L-59.44,319.37L-57.74,322.38L-56.04,320.5L-54.35,322.38L-52.65,318.24L-49.25,309.95L-47.55,300.16L-45.85,298.28L-44.16,300.16L-40.76,295.64L-39.06,297.9L-32.27,300.16L-30.57,302.79L-28.87,309.57L-27.17,309.95L-25.47,308.82L-23.78,312.59L-22.08,310.7L-20.38,311.83L-18.68,306.18L-16.98,296.39L-15.28,299.03L-13.59,298.65L-11.89,297.52L-10.19,299.78L-8.49,299.41L-6.79,300.16L-5.09,298.65L-3.4,295.64L-1.7,292.63L0,291.5L3.4,286.22L5.09,279.07L6.79,284.34L8.49,279.07L10.19,276.06L11.89,265.51L13.59,260.24L15.28,262.12L18.68,242.16L20.38,239.52L22.08,238.77L23.78,230.11L25.47,233.12L27.17,232.37L28.87,224.84L30.57,213.16L32.27,195.08L33.97,164.58L35.66,148.38L37.36,143.11L39.06,141.98L40.76,119.39L42.46,81.35L44.16,70.8L47.55,61.39L49.25,47.45L50.95,46.32L52.65,20.34L54.35,24.1L56.04,7.16L57.74,12.43L59.44,2.64L61.14,0L62.84,0.75L64.54,6.78L66.23,21.84L67.93,80.97L69.63,78.71L71.33,66.66L73.03,83.61L74.73,81.72L76.42,116.75L78.12,125.79L79.82,101.68L81.52,117.5L83.22,170.6L86.61,173.99L88.31,187.93L90.01,192.82L91.71,202.24L93.41,215.8L95.1,214.29L98.5,218.81L100.2,190.19L101.9,204.88L103.6,203.37L106.99,185.29L108.69,182.66L110.39,180.77L112.09,203.37L113.79,203.37L115.48,198.1L117.18,206.76L118.88,221.07L120.58,212.78L122.28,213.91L123.98,220.32L125.67,219.94L127.37,220.69L129.07,209.77L130.77,193.58L132.47,193.58L134.17,193.95L135.86,190.19L137.56,185.29L139.26,190.94L140.96,202.99L142.66,237.26L144.36,242.91L146.05,244.04L147.75,245.93L149.45,252.71L151.15,253.46L152.85,258.73L154.55,260.24L156.24,263.25L157.94,260.61L159.64,259.86L161.34,260.61L163.04,247.43L166.43,208.27L168.13,204.88L169.83,207.14L171.53,198.1L173.23,181.9L174.92,180.02L176.62,179.27L178.32,165.71L180.02,163.83L181.72,163.45L183.42,162.7L185.11,167.97L186.81,175.5L188.51,179.27L190.21,182.66L191.91,183.41L193.61,183.03L195.3,193.58L198.7,210.53L200.4,210.15L202.1,221.82L203.8,223.71L207.19,220.32L208.89,208.27L210.59,203.37L212.29,206.76L213.99,198.85L215.68,198.1L217.38,199.6L219.08,208.27L222.48,234.25L224.18,247.43L225.87,259.48L227.57,265.13L229.27,264L230.97,268.15L232.67,279.44L234.36,280.95L236.06,279.44L237.76,282.08L242.86,286.22L244.55,282.83L246.25,283.21L247.95,281.33L251.35,276.43L253.05,276.06L254.74,272.67L256.44,273.8L258.14,267.77L259.84,267.02L263.24,262.5L264.93,262.12L266.63,256.47L268.33,248.19L271.73,234.25L273.43,229.73L275.12,232.37L276.82,232.75L278.52,239.15L280.22,236.89L281.92,231.99L283.62,232.37L285.31,233.88L287.01,231.62L288.71,229.36L290.41,213.54L292.11,196.59L293.81,190.94L295.5,187.18L297.2,168.34L298.9,156.67L300.6,159.31L302.3,157.42L304,162.7L305.69,163.07L307.39,160.06L309.09,162.7L310.79,167.97L312.49,167.59L314.18,206.76L315.88,190.56L317.58,189.44L319.28,189.44L320.98,191.69L322.68,187.55L324.37,187.18L326.07,141.98L327.77,146.88L329.47,157.8L331.17,154.79L334.56,164.58L336.26,163.83L337.96,172.86L339.66,191.32L341.36,184.92L343.06,192.07L344.75,187.18L346.45,189.44L348.15,190.56L349.85,186.05L351.55,190.94L353.25,201.86L354.94,200.36L356.64,207.51L358.34,219.56L360.04,219.94L361.74,230.86L363.44,227.1L368.53,254.97L370.23,254.59L371.93,253.84L373.63,262.87L375.32,275.3L377.02,266.26L378.72,287.35L380.42,287.35L382.12,286.6L383.82,286.98L385.51,292.63L387.21,295.64L388.91,302.79L390.61,293L392.31,297.52L394,293.76L395.7,294.89L397.4,311.83L399.1,302.42L400.8,306.18L402.5,297.52L404.19,296.39L407.59,293.76L409.29,286.98L410.99,301.29L412.69,304.68L414.38,313.72L416.08,315.6L417.78,320.5L419.48,322.38L421.18,320.5L422.88,320.5L424.57,319.37L426.27,321.63L427.97,327.27L429.67,326.14L431.37,326.52L433.07,328.78L438.16,341.59L439.86,343.47L441.56,347.61L443.26,347.23L448.35,357.78L450.05,360.42L453.45,365.69L455.14,365.69L456.84,369.08L458.54,367.95L460.24,367.57L461.94,365.69L465.33,366.44L467.03,366.82L468.73,364.18L470.43,364.18L472.13,363.81L473.82,364.56L477.22,362.3L478.92,361.17L482.32,354.01L484.01,354.77L485.71,337.07L487.41,327.65L489.11,317.86L490.81,314.47L495.9,249.69L497.6,242.91L501,213.91L502.7,216.55L506.09,178.51L507.79,166.84L511.19,126.92L512.89,121.27L514.58,117.5L516.28,111.1L517.98,112.98L519.68,104.32L521.38,112.23L523.08,126.92L524.77,122.02L526.47,123.15L528.17,124.28L529.87,115.24L531.57,119.76L533.27,112.23L534.96,97.54L536.66,103.94L538.36,103.57L540.06,94.91L541.76,95.66L543.45,97.54L545.15,106.96L546.85,105.45L548.55,115.24L550.25,116L551.95,138.22L553.64,148.01L558.74,197.72L560.44,198.85L562.14,201.86L563.83,211.66L567.23,236.13L568.93,236.51L572.33,257.6L574.02,254.59L575.72,264L577.42,266.64L580.82,279.82L582.52,281.33L584.21,271.16L585.91,266.64L587.61,275.68L589.31,277.19L591.01,276.06L592.71,281.7L594.4,282.46L596.1,291.5L597.8,297.52L599.5,294.51L602.9,312.59L604.59,316.35L607.99,323.13L609.69,323.89L611.39,332.55L613.09,333.3L616.48,336.69L618.18,340.08L626.67,350.25L628.37,347.99L631.77,343.47L633.46,343.09L635.16,334.43L636.86,335.18L638.56,331.42L640.26,334.81L643.65,341.21L645.35,341.59L647.05,343.85L648.75,332.92L652.15,314.85L653.84,300.54L655.54,297.15L657.24,295.64L658.94,281.33L660.64,279.82L664.03,279.07L665.73,280.95L667.43,275.3L669.13,275.3" style="fill: rgb(8, 115, 191); fill-opacity: 0.2; stroke-width: 0;"/></g></g><g class="errorbars"/><g class="lines"><path class="js-line" d="M-230.97,377.74L-144.36,378.12L-142.66,376.61L-132.47,378.12L-130.77,379.25L-115.48,377.74L-113.79,376.99L-103.6,377.36L-101.9,376.23L-93.41,369.83L-91.71,369.83L-86.61,369.83L-84.91,368.33L-83.22,367.2L-81.52,369.08L-79.82,369.08L-78.12,366.82L-69.63,338.95L-67.93,338.57L-64.54,325.01L-62.84,321.63L-61.14,317.11L-59.44,319.37L-57.74,322.38L-56.04,320.5L-54.35,322.38L-52.65,318.24L-49.25,309.95L-47.55,300.16L-45.85,298.28L-44.16,300.16L-40.76,295.64L-39.06,297.9L-32.27,300.16L-30.57,302.79L-28.87,309.57L-27.17,309.95L-25.47,308.82L-23.78,312.59L-22.08,310.7L-20.38,311.83L-18.68,306.18L-16.98,296.39L-15.28,299.03L-13.59,298.65L-11.89,297.52L-10.19,299.78L-8.49,299.41L-6.79,300.16L-5.09,298.65L-3.4,295.64L-1.7,292.63L0,291.5L3.4,286.22L5.09,279.07L6.79,284.34L8.49,279.07L10.19,276.06L11.89,265.51L13.59,260.24L15.28,262.12L18.68,242.16L20.38,239.52L22.08,238.77L23.78,230.11L25.47,233.12L27.17,232.37L28.87,224.84L30.57,213.16L32.27,195.08L33.97,164.58L35.66,148.38L37.36,143.11L39.06,141.98L40.76,119.39L42.46,81.35L44.16,70.8L47.55,61.39L49.25,47.45L50.95,46.32L52.65,20.34L54.35,24.1L56.04,7.16L57.74,12.43L59.44,2.64L61.14,0L62.84,0.75L64.54,6.78L66.23,21.84L67.93,80.97L69.63,78.71L71.33,66.66L73.03,83.61L74.73,81.72L76.42,116.75L78.12,125.79L79.82,101.68L81.52,117.5L83.22,170.6L86.61,173.99L88.31,187.93L90.01,192.82L91.71,202.24L93.41,215.8L95.1,214.29L98.5,218.81L100.2,190.19L101.9,204.88L103.6,203.37L106.99,185.29L108.69,182.66L110.39,180.77L112.09,203.37L113.79,203.37L115.48,198.1L117.18,206.76L118.88,221.07L120.58,212.78L122.28,213.91L123.98,220.32L125.67,219.94L127.37,220.69L129.07,209.77L130.77,193.58L132.47,193.58L134.17,193.95L135.86,190.19L137.56,185.29L139.26,190.94L140.96,202.99L142.66,237.26L144.36,242.91L146.05,244.04L147.75,245.93L149.45,252.71L151.15,253.46L152.85,258.73L154.55,260.24L156.24,263.25L157.94,260.61L159.64,259.86L161.34,260.61L163.04,247.43L166.43,208.27L168.13,204.88L169.83,207.14L171.53,198.1L173.23,181.9L174.92,180.02L176.62,179.27L178.32,165.71L180.02,163.83L181.72,163.45L183.42,162.7L185.11,167.97L186.81,175.5L188.51,179.27L190.21,182.66L191.91,183.41L193.61,183.03L195.3,193.58L198.7,210.53L200.4,210.15L202.1,221.82L203.8,223.71L207.19,220.32L208.89,208.27L210.59,203.37L212.29,206.76L213.99,198.85L215.68,198.1L217.38,199.6L219.08,208.27L222.48,234.25L224.18,247.43L225.87,259.48L227.57,265.13L229.27,264L230.97,268.15L232.67,279.44L234.36,280.95L236.06,279.44L237.76,282.08L242.86,286.22L244.55,282.83L246.25,283.21L247.95,281.33L251.35,276.43L253.05,276.06L254.74,272.67L256.44,273.8L258.14,267.77L259.84,267.02L263.24,262.5L264.93,262.12L266.63,256.47L268.33,248.19L271.73,234.25L273.43,229.73L275.12,232.37L276.82,232.75L278.52,239.15L280.22,236.89L281.92,231.99L283.62,232.37L285.31,233.88L287.01,231.62L288.71,229.36L290.41,213.54L292.11,196.59L293.81,190.94L295.5,187.18L297.2,168.34L298.9,156.67L300.6,159.31L302.3,157.42L304,162.7L305.69,163.07L307.39,160.06L309.09,162.7L310.79,167.97L312.49,167.59L314.18,206.76L315.88,190.56L317.58,189.44L319.28,189.44L320.98,191.69L322.68,187.55L324.37,187.18L326.07,141.98L327.77,146.88L329.47,157.8L331.17,154.79L334.56,164.58L336.26,163.83L337.96,172.86L339.66,191.32L341.36,184.92L343.06,192.07L344.75,187.18L346.45,189.44L348.15,190.56L349.85,186.05L351.55,190.94L353.25,201.86L354.94,200.36L356.64,207.51L358.34,219.56L360.04,219.94L361.74,230.86L363.44,227.1L368.53,254.97L370.23,254.59L371.93,253.84L373.63,262.87L375.32,275.3L377.02,266.26L378.72,287.35L380.42,287.35L382.12,286.6L383.82,286.98L385.51,292.63L387.21,295.64L388.91,302.79L390.61,293L392.31,297.52L394,293.76L395.7,294.89L397.4,311.83L399.1,302.42L400.8,306.18L402.5,297.52L404.19,296.39L407.59,293.76L409.29,286.98L410.99,301.29L412.69,304.68L414.38,313.72L416.08,315.6L417.78,320.5L419.48,322.38L421.18,320.5L422.88,320.5L424.57,319.37L426.27,321.63L427.97,327.27L429.67,326.14L431.37,326.52L433.07,328.78L438.16,341.59L439.86,343.47L441.56,347.61L443.26,347.23L448.35,357.78L450.05,360.42L453.45,365.69L455.14,365.69L456.84,369.08L458.54,367.95L460.24,367.57L461.94,365.69L465.33,366.44L467.03,366.82L468.73,364.18L470.43,364.18L472.13,363.81L473.82,364.56L477.22,362.3L478.92,361.17L482.32,354.01L484.01,354.77L485.71,337.07L487.41,327.65L489.11,317.86L490.81,314.47L495.9,249.69L497.6,242.91L501,213.91L502.7,216.55L506.09,178.51L507.79,166.84L511.19,126.92L512.89,121.27L514.58,117.5L516.28,111.1L517.98,112.98L519.68,104.32L521.38,112.23L523.08,126.92L524.77,122.02L526.47,123.15L528.17,124.28L529.87,115.24L531.57,119.76L533.27,112.23L534.96,97.54L536.66,103.94L538.36,103.57L540.06,94.91L541.76,95.66L543.45,97.54L545.15,106.96L546.85,105.45L548.55,115.24L550.25,116L551.95,138.22L553.64,148.01L558.74,197.72L560.44,198.85L562.14,201.86L563.83,211.66L567.23,236.13L568.93,236.51L572.33,257.6L574.02,254.59L575.72,264L577.42,266.64L580.82,279.82L582.52,281.33L584.21,271.16L585.91,266.64L587.61,275.68L589.31,277.19L591.01,276.06L592.71,281.7L594.4,282.46L596.1,291.5L597.8,297.52L599.5,294.51L602.9,312.59L604.59,316.35L607.99,323.13L609.69,323.89L611.39,332.55L613.09,333.3L616.48,336.69L618.18,340.08L626.67,350.25L628.37,347.99L631.77,343.47L633.46,343.09L635.16,334.43L636.86,335.18L638.56,331.42L640.26,334.81L643.65,341.21L645.35,341.59L647.05,343.85L648.75,332.92L652.15,314.85L653.84,300.54L655.54,297.15L657.24,295.64L658.94,281.33L660.64,279.82L664.03,279.07L665.73,280.95L667.43,275.3L669.13,275.3" style="vector-effect: non-scaling-stroke; fill: none; stroke: rgb(8, 115, 191); stroke-opacity: 1; stroke-width: 0.5px; opacity: 1;"/></g><g class="points"/><g class="text"/></g><g class="trace scatter trace2a85fb" style="stroke-miterlimit: 2;"><g class="fills"><g><path class="js-fill" d="M686.11,380L669.13,380L669.13,275.3L670.83,294.89L672.53,289.99L674.22,284.72L675.92,272.67L677.62,262.87L679.32,258.35L681.02,259.11L682.72,229.73L684.41,224.08L686.11,211.28" style="fill: rgb(8, 115, 191); fill-opacity: 0.4; stroke-width: 0;"/></g></g><g class="errorbars"/><g class="lines"><path class="js-line" d="M669.13,275.3L670.83,294.89L672.53,289.99L674.22,284.72L675.92,272.67L677.62,262.87L679.32,258.35L681.02,259.11L682.72,229.73L684.41,224.08L686.11,211.28" style="vector-effect: non-scaling-stroke; fill: none; stroke: rgb(8, 115, 191); stroke-opacity: 1; stroke-width: 2px; opacity: 1;"/></g><g class="points"/><g class="text"/></g><g class="trace scatter trace8095bd" style="stroke-miterlimit: 2; opacity: 1;"><g class="fills"/><g class="errorbars"/><g class="lines"/><g class="points"><path class="point" transform="translate(686.11,211.28)" d="M15,0A15,15 0 1,1 0,-15A15,15 0 0,1 15,0Z" style="opacity: 1; stroke-width: 0px; fill: rgb(8, 115, 191); fill-opacity: 1;"/></g><g class="text"/></g></g></g><g class="overplot"/><path class="xlines-above crisp" style="fill: none; stroke-width: 1px; stroke: rgb(0, 0, 0); stroke-opacity: 0;" d=""/><path class="ylines-above crisp" style="fill: none;" d="M0,0"/><g class="overlines-above"/><g class="xaxislayer-above"><path class="xtick ticks crisp" d="M0,450v-5" transform="translate(106.03999999999999,0)" style="stroke: rgb(68, 68, 68); stroke-opacity: 1; stroke-width: 1px;"/><path class="xtick ticks crisp" d="M0,450v-5" transform="translate(209.64,0)" style="stroke: rgb(68, 68, 68); stroke-opacity: 1; stroke-width: 1px;"/><path class="xtick ticks crisp" d="M0,450v-5" transform="translate(309.84,0)" style="stroke: rgb(68, 68, 68); stroke-opacity: 1; stroke-width: 1px;"/><path class="xtick ticks crisp" d="M0,450v-5" transform="translate(413.44,0)" style="stroke: rgb(68, 68, 68); stroke-opacity: 1; stroke-width: 1px;"/><path class="xtick ticks crisp" d="M0,450v-5" transform="translate(517.03,0)" style="stroke: rgb(68, 68, 68); stroke-opacity: 1; stroke-width: 1px;"/><path class="xtick ticks crisp" d="M0,450v-5" transform="translate(622.33,0)" style="stroke: rgb(68, 68, 68); stroke-opacity: 1; stroke-width: 1px;"/><path class="xtick ticks crisp" d="M0,450v-5" transform="translate(725.92,0)" style="stroke: rgb(68, 68, 68); stroke-opacity: 1; stroke-width: 1px;"/><g class="xtick"><text text-anchor="middle" x="0" y="469" transform="translate(106.03999999999999,0)" style="font-family: 'Open Sans', verdana, arial, sans-serif; font-size: 18px; fill: rgb(42, 63, 95); fill-opacity: 1; white-space: pre;">01/11</text></g><g class="xtick"><text text-anchor="middle" x="0" y="469" transform="translate(209.64,0)" style="font-family: 'Open Sans', verdana, arial, sans-serif; font-size: 18px; fill: rgb(42, 63, 95); fill-opacity: 1; white-space: pre;">01/01</text></g><g class="xtick"><text text-anchor="middle" x="0" y="469" transform="translate(309.84,0)" style="font-family: 'Open Sans', verdana, arial, sans-serif; font-size: 18px; fill: rgb(42, 63, 95); fill-opacity: 1; white-space: pre;">01/03</text></g><g class="xtick"><text text-anchor="middle" x="0" y="469" transform="translate(413.44,0)" style="font-family: 'Open Sans', verdana, arial, sans-serif; font-size: 18px; fill: rgb(42, 63, 95); fill-opacity: 1; white-space: pre;">01/05</text></g><g class="xtick"><text text-anchor="middle" x="0" y="469" transform="translate(517.03,0)" style="font-family: 'Open Sans', verdana, arial, sans-serif; font-size: 18px; fill: rgb(42, 63, 95); fill-opacity: 1; white-space: pre;">01/07</text></g><g class="xtick"><text text-anchor="middle" x="0" y="469" transform="translate(622.33,0)" style="font-family: 'Open Sans', verdana, arial, sans-serif; font-size: 18px; fill: rgb(42, 63, 95); fill-opacity: 1; white-space: pre;">01/09</text></g><g class="xtick"><text text-anchor="middle" x="0" y="469" transform="translate(725.92,0)" style="font-family: 'Open Sans', verdana, arial, sans-serif; font-size: 18px; fill: rgb(42, 63, 95); fill-opacity: 1; white-space: pre;">01/11</text></g></g><g class="yaxislayer-above"/><g class="overaxes-above"/></g></g><g class="polarlayer"/><g class="ternarylayer"/><g class="geolayer"/><g class="funnelarealayer"/><g class="pielayer"/><g class="treemaplayer"/><g class="sunburstlayer"/><g class="glimages"/><defs id="topdefs-9106a9"><g class="clips"/></defs><g class="layer-above"><g class="imagelayer"/><g class="shapelayer"><path data-index="0" fill-rule="evenodd" d="M-904.44,387.8L337.01,387.8" clip-path="url('#clip9106a9xy')" style="opacity: 1; stroke: rgb(255, 0, 0); stroke-opacity: 1; fill: rgb(0, 0, 0); fill-opacity: 0; stroke-dasharray: 3px, 3px; stroke-width: 1.5px;"/></g></g><g class="infolayer"><g class="g-gtitle"><text class="gtitle" x="375" y="25" text-anchor="middle" dy="0.7em" style="font-family: 'Open Sans', verdana, arial, sans-serif; font-size: 50px; fill: rgb(42, 63, 95); opacity: 1; font-weight: normal; white-space: pre;"><tspan style="font-weight:bold">Lot-et-Garonne (47)</tspan></text></g><g class="g-xtitle"/><g class="annotation" data-index="0" style="opacity: 1;"><g class="annotation-text-g" transform="rotate(0,694.11,221.27999999999997)"><g class="cursor-pointer" transform="translate(636, 185)"><rect class="bg" x="0.5" y="0.5" width="115" height="71" style="stroke-width: 1px; stroke: rgb(0, 0, 0); stroke-opacity: 0; fill: rgb(255, 255, 255); fill-opacity: 0.6;"/><text class="annotation-text" text-anchor="middle" x="57.8125" y="55.5" style="font-family: 'Open Sans', verdana, arial, sans-serif; font-size: 50px; fill: rgb(8, 115, 191); fill-opacity: 1; white-space: pre;"> <tspan style="font-weight:bold">135 </tspan></text></g></g><g class="annotation-arrow-g" style="opacity: 1;"><path d="M722.51,256.78L734.11,271.28" style="stroke-width: 1px; stroke: rgb(8, 115, 191); stroke-opacity: 1; stroke-dasharray: 0px, 0px, 18.569px, 18.569px;"/></g></g></g></svg>