<svg class="main-svg" xmlns="http://www.w3.org/2000/svg" xmlns:xlink="http://www.w3.org/1999/xlink" width="1125" height="750" style="" viewBox="0 0 750 500"><rect x="0" y="0" width="750" height="500" style="fill: rgb(0, 0, 0); fill-opacity: 0;"/><defs id="defs-0e1e57"><g class="clips"><clipPath id="clip0e1e57xyplot" class="plotclip"><rect width="700" height="380"/></clipPath><clipPath class="axesclip" id="clip0e1e57x"><rect x="50" y="0" width="700" height="500"/></clipPath><clipPath class="axesclip" id="clip0e1e57y"><rect x="0" y="70" width="750" height="380"/></clipPath><clipPath class="axesclip" id="clip0e1e57xy"><rect x="50" y="70" width="700" height="380"/></clipPath></g><g class="gradients"/></defs><g class="bglayer"><rect class="bg" x="50" y="70" width="700" height="380" style="fill: rgb(0, 0, 0); fill-opacity: 0; stroke-width: 0;"/></g><g class="layer-below"><g class="imagelayer"/><g class="shapelayer"/></g><g class="cartesianlayer"><g class="subplot xy"><g class="layer-subplot"><g class="shapelayer"/><g class="imagelayer"/></g><g class="gridlayer"><g class="x"><path class="xgrid crisp" transform="translate(104.87,0)" d="M0,70v380" style="stroke: rgb(255, 255, 255); stroke-opacity: 1; stroke-width: 1px;"/><path class="xgrid crisp" transform="translate(206.29,0)" d="M0,70v380" style="stroke: rgb(255, 255, 255); stroke-opacity: 1; stroke-width: 1px;"/><path class="xgrid crisp" transform="translate(304.39,0)" d="M0,70v380" style="stroke: rgb(255, 255, 255); stroke-opacity: 1; stroke-width: 1px;"/><path class="xgrid crisp" transform="translate(405.82,0)" d="M0,70v380" style="stroke: rgb(255, 255, 255); stroke-opacity: 1; stroke-width: 1px;"/><path class="xgrid crisp" transform="translate(507.24,0)" d="M0,70v380" style="stroke: rgb(255, 255, 255); stroke-opacity: 1; stroke-width: 1px;"/><path class="xgrid crisp" transform="translate(610.33,0)" d="M0,70v380" style="stroke: rgb(255, 255, 255); stroke-opacity: 1; stroke-width: 1px;"/><path class="xgrid crisp" transform="translate(711.76,0)" d="M0,70v380" style="stroke: rgb(255, 255, 255); stroke-opacity: 1; stroke-width: 1px;"/></g><g class="y"/></g><g class="zerolinelayer"/><path class="xlines-below"/><path class="ylines-below"/><g class="overlines-below"/><g class="xaxislayer-below"/><g class="yaxislayer-below"/><g class="overaxes-below"/><g class="plot" transform="translate(50, 70)" clip-path="url('#clip0e1e57xyplot')"><g class="scatterlayer mlayer"><g class="trace scatter trace176667" style="stroke-miterlimit: 2;"><g class="fills"><g><path class="js-fill" d="M671.73,380L-226.13,380L-226.13,380L-116.39,378.76L-114.73,377.51L-108.08,376.15L-106.41,375.28L-103.09,376.15L-101.43,376.15L-96.44,377.51L-94.77,378.14L-78.15,375.77L-76.48,373.66L-71.5,370.18L-69.83,370.43L-66.51,368.81L-64.85,369.31L-61.52,367.32L-59.86,367.07L-56.53,362.22L-54.87,362.47L-51.54,355.26L-49.88,352.16L-46.56,339.6L-44.89,338.36L-43.23,338.23L-41.57,332.64L-39.9,330.53L-38.24,326.55L-36.58,328.54L-34.92,328.41L-33.25,326.18L-31.59,325.93L-29.93,329.53L-28.27,323.81L-26.6,325.06L-24.94,320.71L-21.62,323.81L-19.95,324.06L-18.29,319.09L-16.63,325.55L-14.96,325.43L-13.3,327.79L-9.98,329.66L-8.31,329.28L-6.65,336.87L-4.99,338.73L-1.66,339.97L0,337.61L1.66,335.25L3.33,335.62L6.65,317.85L8.31,305.04L13.3,272.97L14.96,272.97L18.29,246.62L19.95,241.4L21.62,229.96L23.28,226.73L24.94,226.86L26.6,226.23L28.27,221.64L29.93,210.2L34.92,166.32L36.58,162.96L38.24,160.85L39.9,143.07L41.57,139.22L43.23,140.71L44.89,150.28L46.56,154.39L48.22,159.23L49.88,159.23L53.21,187.2L54.87,195.41L56.53,205.6L58.19,208.71L59.86,209.45L61.52,211.94L63.18,218.53L64.85,235.31L66.51,265.27L68.17,276.33L69.83,293.98L71.5,300.82L73.16,300.57L74.82,314.12L76.48,321.95L78.15,317.72L81.47,334.38L83.14,337.61L84.8,338.61L86.46,348.18L89.79,354.52L91.45,354.52L93.11,357.75L94.77,357.87L96.44,357.87L98.1,354.14L99.76,350.91L101.43,349.92L108.08,350.42L109.74,355.01L111.4,358L113.06,357.87L118.05,355.64L119.71,355.39L121.38,352.78L123.04,352.03L126.37,348.55L128.03,347.31L129.69,344.82L131.35,344.57L134.68,334.75L136.34,332.89L138,330.9L139.67,336.37L144.66,336.37L146.32,332.89L149.64,324.68L151.31,324.56L152.97,319.96L154.63,319.21L157.96,303.3L159.62,299.08L161.28,298.95L162.95,282.79L166.27,282.05L167.93,280.31L169.6,275.58L171.26,273.22L176.25,254.08L177.91,254.82L181.24,239.66L182.9,233.32L184.56,231.33L186.22,228.1L187.89,224.74L189.55,224.62L192.87,221.14L194.54,222.01L196.2,221.76L197.86,225.49L199.52,228.97L201.19,228.35L206.18,256.69L207.84,260.92L211.16,274.22L212.83,274.84L216.15,299.7L217.81,307.41L221.14,324.81L222.8,328.91L227.79,330.28L229.45,333.14L234.44,332.52L236.1,331.65L237.77,332.02L239.43,335L241.09,334.5L242.76,336.37L244.42,339.73L246.08,338.48L247.74,339.85L249.41,343.21L252.73,344.2L254.39,343.7L256.06,339.6L257.72,341.84L259.38,341.71L261.05,339.1L262.71,337.61L264.37,338.73L266.03,337.74L267.7,337.98L271.02,337.61L272.68,329.41L276.01,311.88L277.67,307.78L281,297.59L282.66,296.96L284.32,281.67L285.99,277.82L287.65,274.09L289.31,259.05L290.97,245.13L292.64,237.55L294.3,236.43L295.96,234.07L297.62,218.53L299.29,210.32L300.95,205.6L302.61,207.34L305.94,209.45L307.6,241.4L309.26,238.54L310.93,239.54L312.59,243.64L314.25,245L317.58,247.37L319.24,217.66L320.9,238.04L322.57,246.25L325.89,265.89L327.55,269L329.22,269.37L330.88,280.06L332.54,277.7L334.2,277.45L337.53,274.84L339.19,277.45L340.86,276.45L342.52,273.22L344.18,271.85L345.84,277.45L349.17,284.16L350.83,290.62L352.49,289.63L354.16,293.73L355.82,301.81L357.48,299.95L359.14,300.32L360.81,307.16L364.13,310.02L365.8,317.47L369.12,324.81L370.78,336.12L374.11,330.4L375.77,330.78L377.43,331.52L379.1,333.26L380.76,332.52L382.42,328.54L384.09,333.63L385.75,332.64L387.41,332.76L389.07,343.33L390.74,342.83L392.4,345.57L397.39,341.71L399.05,341.09L400.71,331.02L402.38,330.9L404.04,331.65L405.7,334.01L409.03,339.85L410.69,340.35L415.68,352.53L417.34,353.03L419,355.26L420.67,355.51L422.33,355.76L423.99,359.37L425.65,361.73L427.32,361.48L430.64,362.6L432.3,364.21L433.97,364.34L435.63,365.58L438.95,368.69L440.62,368.94L443.94,371.55L445.61,371.55L447.27,372.91L448.93,372.54L450.59,371.3L452.26,371.42L455.58,362.97L457.24,362.72L460.57,347.81L462.23,335.37L467.22,287.27L468.88,285.9L472.21,226.36L473.87,232.2L477.2,172.78L478.86,156.5L480.52,154.39L482.19,110.01L483.85,84.65L485.51,32.69L487.17,24.12L488.84,11.06L490.5,0.12L492.16,0L495.49,5.47L497.15,19.39L502.14,60.29L503.8,60.41L505.46,63.27L507.13,78.68L508.79,70.61L510.45,80.18L512.11,86.52L513.78,89.38L515.44,88.51L517.1,111L518.76,111.13L520.43,125.55L523.75,129.4L525.42,135.49L527.08,136.24L528.74,145.19L533.73,177.38L535.39,188.32L537.05,193.05L538.72,192.8L542.04,220.39L543.71,236.18L545.37,245L547.03,258.55L548.69,265.14L550.36,267.63L553.68,281.55L555.34,285.03L560.33,299.2L562,299.33L563.66,309.64L565.32,312.13L566.98,316.11L568.65,322.07L570.31,325.18L571.97,326.55L573.63,327.54L575.3,333.26L576.96,341.59L578.62,339.73L580.29,340.47L581.95,344.57L583.61,346.56L585.27,346.81L586.94,348.3L588.6,346.44L590.26,351.16L591.92,350.29L595.25,348.43L596.91,348.55L598.57,347.93L600.24,349.55L601.9,351.53L603.56,354.89L605.23,357.25L606.89,357.63L608.55,357.75L610.21,359.99L613.54,362.22L615.2,363.47L616.86,362.97L618.53,364.21L621.85,363.47L623.52,360.86L626.84,355.76L628.5,355.76L630.17,356.38L631.83,356.13L633.49,356.01L635.15,358L636.82,357L638.48,357.63L641.81,353.27L643.47,352.65L645.13,352.03L646.79,348.68L650.12,342.46L651.78,341.34L653.44,338.61L655.11,338.98L656.77,343.21L658.43,342.21L660.1,343.08L661.76,340.97L663.42,338.73L665.08,339.6L666.75,339.6L668.41,328.79L670.07,326.67L671.73,325.8" style="fill: rgb(8, 115, 191); fill-opacity: 0.2; stroke-width: 0;"/></g></g><g class="errorbars"/><g class="lines"><path class="js-line" d="M-226.13,380L-116.39,378.76L-114.73,377.51L-108.08,376.15L-106.41,375.28L-103.09,376.15L-101.43,376.15L-96.44,377.51L-94.77,378.14L-78.15,375.77L-76.48,373.66L-71.5,370.18L-69.83,370.43L-66.51,368.81L-64.85,369.31L-61.52,367.32L-59.86,367.07L-56.53,362.22L-54.87,362.47L-51.54,355.26L-49.88,352.16L-46.56,339.6L-44.89,338.36L-43.23,338.23L-41.57,332.64L-39.9,330.53L-38.24,326.55L-36.58,328.54L-34.92,328.41L-33.25,326.18L-31.59,325.93L-29.93,329.53L-28.27,323.81L-26.6,325.06L-24.94,320.71L-21.62,323.81L-19.95,324.06L-18.29,319.09L-16.63,325.55L-14.96,325.43L-13.3,327.79L-9.98,329.66L-8.31,329.28L-6.65,336.87L-4.99,338.73L-1.66,339.97L0,337.61L1.66,335.25L3.33,335.62L6.65,317.85L8.31,305.04L13.3,272.97L14.96,272.97L18.29,246.62L19.95,241.4L21.62,229.96L23.28,226.73L24.94,226.86L26.6,226.23L28.27,221.64L29.93,210.2L34.92,166.32L36.58,162.96L38.24,160.85L39.9,143.07L41.57,139.22L43.23,140.71L44.89,150.28L46.56,154.39L48.22,159.23L49.88,159.23L53.21,187.2L54.87,195.41L56.53,205.6L58.19,208.71L59.86,209.45L61.52,211.94L63.18,218.53L64.85,235.31L66.51,265.27L68.17,276.33L69.83,293.98L71.5,300.82L73.16,300.57L74.82,314.12L76.48,321.95L78.15,317.72L81.47,334.38L83.14,337.61L84.8,338.61L86.46,348.18L89.79,354.52L91.45,354.52L93.11,357.75L94.77,357.87L96.44,357.87L98.1,354.14L99.76,350.91L101.43,349.92L108.08,350.42L109.74,355.01L111.4,358L113.06,357.87L118.05,355.64L119.71,355.39L121.38,352.78L123.04,352.03L126.37,348.55L128.03,347.31L129.69,344.82L131.35,344.57L134.68,334.75L136.34,332.89L138,330.9L139.67,336.37L144.66,336.37L146.32,332.89L149.64,324.68L151.31,324.56L152.97,319.96L154.63,319.21L157.96,303.3L159.62,299.08L161.28,298.95L162.95,282.79L166.27,282.05L167.93,280.31L169.6,275.58L171.26,273.22L176.25,254.08L177.91,254.82L181.24,239.66L182.9,233.32L184.56,231.33L186.22,228.1L187.89,224.74L189.55,224.62L192.87,221.14L194.54,222.01L196.2,221.76L197.86,225.49L199.52,228.97L201.19,228.35L206.18,256.69L207.84,260.92L211.16,274.22L212.83,274.84L216.15,299.7L217.81,307.41L221.14,324.81L222.8,328.91L227.79,330.28L229.45,333.14L234.44,332.52L236.1,331.65L237.77,332.02L239.43,335L241.09,334.5L242.76,336.37L244.42,339.73L246.08,338.48L247.74,339.85L249.41,343.21L252.73,344.2L254.39,343.7L256.06,339.6L257.72,341.84L259.38,341.71L261.05,339.1L262.71,337.61L264.37,338.73L266.03,337.74L267.7,337.98L271.02,337.61L272.68,329.41L276.01,311.88L277.67,307.78L281,297.59L282.66,296.96L284.32,281.67L285.99,277.82L287.65,274.09L289.31,259.05L290.97,245.13L292.64,237.55L294.3,236.43L295.96,234.07L297.62,218.53L299.29,210.32L300.95,205.6L302.61,207.34L305.94,209.45L307.6,241.4L309.26,238.54L310.93,239.54L312.59,243.64L314.25,245L317.58,247.37L319.24,217.66L320.9,238.04L322.57,246.25L325.89,265.89L327.55,269L329.22,269.37L330.88,280.06L332.54,277.7L334.2,277.45L337.53,274.84L339.19,277.45L340.86,276.45L342.52,273.22L344.18,271.85L345.84,277.45L349.17,284.16L350.83,290.62L352.49,289.63L354.16,293.73L355.82,301.81L357.48,299.95L359.14,300.32L360.81,307.16L364.13,310.02L365.8,317.47L369.12,324.81L370.78,336.12L374.11,330.4L375.77,330.78L377.43,331.52L379.1,333.26L380.76,332.52L382.42,328.54L384.09,333.63L385.75,332.64L387.41,332.76L389.07,343.33L390.74,342.83L392.4,345.57L397.39,341.71L399.05,341.09L400.71,331.02L402.38,330.9L404.04,331.65L405.7,334.01L409.03,339.85L410.69,340.35L415.68,352.53L417.34,353.03L419,355.26L420.67,355.51L422.33,355.76L423.99,359.37L425.65,361.73L427.32,361.48L430.64,362.6L432.3,364.21L433.97,364.34L435.63,365.58L438.95,368.69L440.62,368.94L443.94,371.55L445.61,371.55L447.27,372.91L448.93,372.54L450.59,371.3L452.26,371.42L455.58,362.97L457.24,362.72L460.57,347.81L462.23,335.37L467.22,287.27L468.88,285.9L472.21,226.36L473.87,232.2L477.2,172.78L478.86,156.5L480.52,154.39L482.19,110.01L483.85,84.65L485.51,32.69L487.17,24.12L488.84,11.06L490.5,0.12L492.16,0L495.49,5.47L497.15,19.39L502.14,60.29L503.8,60.41L505.46,63.27L507.13,78.68L508.79,70.61L510.45,80.18L512.11,86.52L513.78,89.38L515.44,88.51L517.1,111L518.76,111.13L520.43,125.55L523.75,129.4L525.42,135.49L527.08,136.24L528.74,145.19L533.73,177.38L535.39,188.32L537.05,193.05L538.72,192.8L542.04,220.39L543.71,236.18L545.37,245L547.03,258.55L548.69,265.14L550.36,267.63L553.68,281.55L555.34,285.03L560.33,299.2L562,299.33L563.66,309.64L565.32,312.13L566.98,316.11L568.65,322.07L570.31,325.18L571.97,326.55L573.63,327.54L575.3,333.26L576.96,341.59L578.62,339.73L580.29,340.47L581.95,344.57L583.61,346.56L585.27,346.81L586.94,348.3L588.6,346.44L590.26,351.16L591.92,350.29L595.25,348.43L596.91,348.55L598.57,347.93L600.24,349.55L601.9,351.53L603.56,354.89L605.23,357.25L606.89,357.63L608.55,357.75L610.21,359.99L613.54,362.22L615.2,363.47L616.86,362.97L618.53,364.21L621.85,363.47L623.52,360.86L626.84,355.76L628.5,355.76L630.17,356.38L631.83,356.13L633.49,356.01L635.15,358L636.82,357L638.48,357.63L641.81,353.27L643.47,352.65L645.13,352.03L646.79,348.68L650.12,342.46L651.78,341.34L653.44,338.61L655.11,338.98L656.77,343.21L658.43,342.21L660.1,343.08L661.76,340.97L663.42,338.73L665.08,339.6L666.75,339.6L668.41,328.79L670.07,326.67L671.73,325.8" style="vector-effect: non-scaling-stroke; fill: none; stroke: rgb(8, 115, 191); stroke-opacity: 1; stroke-width: 0.5px; opacity: 1;"/></g><g class="points"/><g class="text"/></g><g class="trace scatter trace197868" style="stroke-miterlimit: 2;"><g class="fills"><g><path class="js-fill" d="M688.36,380L671.73,380L671.73,325.8L673.4,332.64L675.06,320.96L676.72,316.98L678.38,315.98L681.71,302.19L683.37,296.72L685.04,281.05L686.7,282.67L688.36,277.7" style="fill: rgb(8, 115, 191); fill-opacity: 0.4; stroke-width: 0;"/></g></g><g class="errorbars"/><g class="lines"><path class="js-line" d="M671.73,325.8L673.4,332.64L675.06,320.96L676.72,316.98L678.38,315.98L681.71,302.19L683.37,296.72L685.04,281.05L686.7,282.67L688.36,277.7" style="vector-effect: non-scaling-stroke; fill: none; stroke: rgb(8, 115, 191); stroke-opacity: 1; stroke-width: 2px; opacity: 1;"/></g><g class="points"/><g class="text"/></g><g class="trace scatter trace47e9c0" style="stroke-miterlimit: 2; opacity: 1;"><g class="fills"/><g class="errorbars"/><g class="lines"/><g class="points"><path class="point" transform="translate(688.36,277.7)" d="M15,0A15,15 0 1,1 0,-15A15,15 0 0,1 15,0Z" style="opacity: 1; stroke-width: 0px; fill: rgb(8, 115, 191); fill-opacity: 1;"/></g><g class="text"/></g></g></g><g class="overplot"/><path class="xlines-above crisp" style="fill: none; stroke-width: 1px; stroke: rgb(0, 0, 0); stroke-opacity: 0;" d=""/><path class="ylines-above crisp" style="fill: none;" d="M0,0"/><g class="overlines-above"/><g class="xaxislayer-above"><path class="xtick ticks crisp" d="M0,450v-5" transform="translate(104.87,0)" style="stroke: rgb(68, 68, 68); stroke-opacity: 1; stroke-width: 1px;"/><path class="xtick ticks crisp" d="M0,450v-5" transform="translate(206.29,0)" style="stroke: rgb(68, 68, 68); stroke-opacity: 1; stroke-width: 1px;"/><path class="xtick ticks crisp" d="M0,450v-5" transform="translate(304.39,0)" style="stroke: rgb(68, 68, 68); stroke-opacity: 1; stroke-width: 1px;"/><path class="xtick ticks crisp" d="M0,450v-5" transform="translate(405.82,0)" style="stroke: rgb(68, 68, 68); stroke-opacity: 1; stroke-width: 1px;"/><path class="xtick ticks crisp" d="M0,450v-5" transform="translate(507.24,0)" style="stroke: rgb(68, 68, 68); stroke-opacity: 1; stroke-width: 1px;"/><path class="xtick ticks crisp" d="M0,450v-5" transform="translate(610.33,0)" style="stroke: rgb(68, 68, 68); stroke-opacity: 1; stroke-width: 1px;"/><path class="xtick ticks crisp" d="M0,450v-5" transform="translate(711.76,0)" style="stroke: rgb(68, 68, 68); stroke-opacity: 1; stroke-width: 1px;"/><g class="xtick"><text text-anchor="middle" x="0" y="469" transform="translate(104.87,0)" style="font-family: 'Open Sans', verdana, arial, sans-serif; font-size: 18px; fill: rgb(42, 63, 95); fill-opacity: 1; white-space: pre;">01/11</text></g><g class="xtick"><text text-anchor="middle" x="0" y="469" transform="translate(206.29,0)" style="font-family: 'Open Sans', verdana, arial, sans-serif; font-size: 18px; fill: rgb(42, 63, 95); fill-opacity: 1; white-space: pre;">01/01</text></g><g class="xtick"><text text-anchor="middle" x="0" y="469" transform="translate(304.39,0)" style="font-family: 'Open Sans', verdana, arial, sans-serif; font-size: 18px; fill: rgb(42, 63, 95); fill-opacity: 1; white-space: pre;">01/03</text></g><g class="xtick"><text text-anchor="middle" x="0" y="469" transform="translate(405.82,0)" style="font-family: 'Open Sans', verdana, arial, sans-serif; font-size: 18px; fill: rgb(42, 63, 95); fill-opacity: 1; white-space: pre;">01/05</text></g><g class="xtick"><text text-anchor="middle" x="0" y="469" transform="translate(507.24,0)" style="font-family: 'Open Sans', verdana, arial, sans-serif; font-size: 18px; fill: rgb(42, 63, 95); fill-opacity: 1; white-space: pre;">01/07</text></g><g class="xtick"><text text-anchor="middle" x="0" y="469" transform="translate(610.33,0)" style="font-family: 'Open Sans', verdana, arial, sans-serif; font-size: 18px; fill: rgb(42, 63, 95); fill-opacity: 1; white-space: pre;">01/09</text></g><g class="xtick"><text text-anchor="middle" x="0" y="469" transform="translate(711.76,0)" style="font-family: 'Open Sans', verdana, arial, sans-serif; font-size: 18px; fill: rgb(42, 63, 95); fill-opacity: 1; white-space: pre;">01/11</text></g></g><g class="yaxislayer-above"/><g class="overaxes-above"/></g></g><g class="polarlayer"/><g class="ternarylayer"/><g class="geolayer"/><g class="funnelarealayer"/><g class="pielayer"/><g class="treemaplayer"/><g class="sunburstlayer"/><g class="glimages"/><defs id="topdefs-0e1e57"><g class="clips"/></defs><g class="layer-above"><g class="imagelayer"/><g class="shapelayer"><path data-index="0" fill-rule="evenodd" d="M-884.44,420.23L331,420.23" clip-path="url('#clip0e1e57xy')" style="opacity: 1; stroke: rgb(255, 0, 0); stroke-opacity: 1; fill: rgb(0, 0, 0); fill-opacity: 0; stroke-dasharray: 3px, 3px; stroke-width: 1.5px;"/></g></g><g class="infolayer"><g class="g-gtitle"><text class="gtitle" x="375" y="25" text-anchor="middle" dy="0.7em" style="font-family: 'Open Sans', verdana, arial, sans-serif; font-size: 50px; fill: rgb(42, 63, 95); opacity: 1; font-weight: normal; white-space: pre;"><tspan style="font-weight:bold">Pyrénées-Orientales (66)</tspan></text></g><g class="g-xtitle"/><g class="annotation" data-index="0" style="opacity: 1;"><g class="annotation-text-g" transform="rotate(0,696.36,287.7)"><g class="cursor-pointer" transform="translate(638, 252)"><rect class="bg" x="0.5" y="0.5" width="115" height="71" style="stroke-width: 1px; stroke: rgb(0, 0, 0); stroke-opacity: 0; fill: rgb(255, 255, 255); fill-opacity: 0.6;"/><text class="annotation-text" text-anchor="middle" x="57.8125" y="55.5" style="font-family: 'Open Sans', verdana, arial, sans-serif; font-size: 50px; fill: rgb(8, 115, 191); fill-opacity: 1; white-space: pre;"> <tspan style="font-weight:bold">171 </tspan></text></g></g><g class="annotation-arrow-g" style="opacity: 1;"><path d="M724.76,323.2L736.36,337.7" style="stroke-width: 1px; stroke: rgb(8, 115, 191); stroke-opacity: 1; stroke-dasharray: 0px, 0px, 18.569px, 18.569px;"/></g></g></g></svg>