<svg class="main-svg" xmlns="http://www.w3.org/2000/svg" xmlns:xlink="http://www.w3.org/1999/xlink" width="1125" height="750" style="" viewBox="0 0 750 500"><rect x="0" y="0" width="750" height="500" style="fill: rgb(0, 0, 0); fill-opacity: 0;"/><defs id="defs-6bf673"><g class="clips"><clipPath id="clip6bf673xyplot" class="plotclip"><rect width="700" height="380"/></clipPath><clipPath class="axesclip" id="clip6bf673x"><rect x="50" y="0" width="700" height="500"/></clipPath><clipPath class="axesclip" id="clip6bf673y"><rect x="0" y="70" width="750" height="380"/></clipPath><clipPath class="axesclip" id="clip6bf673xy"><rect x="50" y="70" width="700" height="380"/></clipPath></g><g class="gradients"/></defs><g class="bglayer"><rect class="bg" x="50" y="70" width="700" height="380" style="fill: rgb(0, 0, 0); fill-opacity: 0; stroke-width: 0;"/></g><g class="layer-below"><g class="imagelayer"/><g class="shapelayer"/></g><g class="cartesianlayer"><g class="subplot xy"><g class="layer-subplot"><g class="shapelayer"/><g class="imagelayer"/></g><g class="gridlayer"><g class="x"><path class="xgrid crisp" transform="translate(102.25999999999999,0)" d="M0,70v380" style="stroke: rgb(255, 255, 255); stroke-opacity: 1; stroke-width: 1px;"/><path class="xgrid crisp" transform="translate(198.87,0)" d="M0,70v380" style="stroke: rgb(255, 255, 255); stroke-opacity: 1; stroke-width: 1px;"/><path class="xgrid crisp" transform="translate(292.31,0)" d="M0,70v380" style="stroke: rgb(255, 255, 255); stroke-opacity: 1; stroke-width: 1px;"/><path class="xgrid crisp" transform="translate(388.91,0)" d="M0,70v380" style="stroke: rgb(255, 255, 255); stroke-opacity: 1; stroke-width: 1px;"/><path class="xgrid crisp" transform="translate(485.52,0)" d="M0,70v380" style="stroke: rgb(255, 255, 255); stroke-opacity: 1; stroke-width: 1px;"/><path class="xgrid crisp" transform="translate(583.71,0)" d="M0,70v380" style="stroke: rgb(255, 255, 255); stroke-opacity: 1; stroke-width: 1px;"/><path class="xgrid crisp" transform="translate(680.32,0)" d="M0,70v380" style="stroke: rgb(255, 255, 255); stroke-opacity: 1; stroke-width: 1px;"/></g><g class="y"/></g><g class="zerolinelayer"/><path class="xlines-below"/><path class="ylines-below"/><g class="overlines-below"/><g class="xaxislayer-below"/><g class="yaxislayer-below"/><g class="overaxes-below"/><g class="plot" transform="translate(50, 70)" clip-path="url('#clip6bf673xyplot')"><g class="scatterlayer mlayer"><g class="trace scatter tracea86af8" style="stroke-miterlimit: 2;"><g class="fills"><g><path class="js-fill" d="M673.08,380L-215.38,380L-215.38,379.06L-213.8,379.06L-212.22,375.52L-202.71,340.61L-201.13,342.73L-199.55,344.15L-197.96,342.73L-196.38,345.8L-193.21,344.38L-191.63,342.5L-178.96,282.82L-177.38,260.17L-172.62,241.3L-171.04,218.66L-169.46,163.23L-167.87,147.42L-159.95,64.87L-158.37,70.06L-156.79,72.65L-155.2,92.46L-153.62,95.06L-152.04,76.9L-148.87,67.46L-147.29,81.85L-145.7,79.26L-144.12,55.9L-142.53,56.37L-140.95,74.3L-139.37,76.9L-137.78,95.29L-133.03,124.07L-131.45,145.07L-129.86,149.31L-128.28,163.94L-125.11,209.46L-123.53,200.73L-121.95,229.98L-120.36,234.23L-118.78,222.67L-117.19,230.45L-114.03,213.23L-112.44,226.44L-109.28,219.6L-107.69,221.25L-98.19,258.05L-96.61,271.97L-95.02,276.21L-93.44,273.15L-90.27,286.59L-88.69,291.07L-85.52,295.79L-83.94,294.85L-80.77,304.99L-79.19,300.27L-76.02,306.64L-74.43,308.29L-72.85,313.72L-71.27,312.77L-68.1,321.03L-66.52,319.14L-63.35,319.62L-61.76,320.79L-60.18,326.69L-58.6,321.97L-52.26,323.39L-50.68,316.08L-49.1,313.25L-47.51,317.96L-45.93,322.68L-44.34,322.45L-42.76,325.04L-41.18,322.21L-38.01,331.17L-36.43,328.11L-34.84,326.93L-33.26,330.7L-31.67,329.99L-30.09,334.24L-26.92,335.65L-25.34,340.37L-23.76,344.62L-22.17,342.26L-20.59,342.97L-19,342.5L-15.84,344.62L-14.25,343.2L-12.67,338.72L-11.09,341.08L-9.5,338.72L-7.92,338.01L-6.33,335.18L-4.75,335.65L-1.58,341.32L0,339.9L1.58,341.32L3.17,339.9L4.75,345.56L6.33,343.67L7.92,339.43L9.5,342.73L14.25,350.75L15.84,350.52L20.59,358.06L22.17,358.06L23.76,356.88L25.34,354.53L26.92,353.11L28.51,353.82L30.09,350.75L31.67,342.97L33.26,342.26L34.84,343.67L38.01,347.45L39.59,345.33L41.18,348.16L42.76,353.58L44.34,353.35L45.93,351.22L47.51,350.52L49.1,348.86L52.26,348.39L53.85,345.56L55.43,345.8L57.01,347.45L58.6,347.21L60.18,343.91L61.76,345.56L63.35,348.39L64.93,344.85L66.52,345.09L68.1,341.79L69.68,342.5L71.27,342.26L72.85,339.43L74.43,336.36L76.02,341.55L77.6,339.9L79.19,341.79L80.77,342.02L82.35,340.37L83.94,341.08L85.52,339.9L88.69,341.55L90.27,339.66L91.86,339.19L93.44,341.55L95.02,340.14L96.61,336.6L101.36,320.56L102.94,320.79L104.52,316.08L106.11,307.35L107.69,302.4L109.28,292.25L110.86,288.72L112.44,287.54L114.03,284L115.61,271.73L118.78,253.1L120.36,249.8L123.53,245.79L125.11,247.2L126.7,247.67L128.28,253.81L129.86,257.11L131.45,267.72L133.03,285.18L134.62,285.18L136.2,287.77L137.78,286.12L140.95,276.92L142.53,270.32L144.12,268.19L145.7,262.77L147.29,259.23L148.87,251.92L153.62,211.82L155.2,184.22L158.37,184.93L159.95,172.43L161.54,175.73L163.12,187.52L164.71,194.13L166.29,189.41L167.87,194.84L169.46,196.25L171.04,208.28L172.62,211.35L174.21,209.46L175.79,217.01L177.38,234.7L178.96,238.71L180.54,238.24L182.13,250.5L186.88,275.03L188.46,281.4L190.05,282.35L191.63,282.11L193.21,291.78L194.8,307.59L197.96,325.75L199.55,329.52L201.13,333.53L202.71,334.71L204.3,341.55L205.88,342.73L210.63,354.53L212.22,355.94L213.8,356.88L215.38,359.48L216.97,360.42L218.55,363.49L221.72,363.72L223.3,362.78L224.89,362.31L226.47,360.66L228.05,361.13L229.64,359.24L231.22,359.01L232.81,360.42L234.39,360.19L235.97,361.13L237.56,361.37L239.14,363.02L242.31,366.79L243.89,364.9L247.06,364.67L248.64,367.26L250.23,368.21L251.81,367.73L253.39,366.08L254.98,367.26L256.56,367.97L258.14,367.5L259.73,365.14L261.31,364.43L262.9,364.43L264.48,362.31L266.06,359.71L267.65,359.24L269.23,359.95L270.81,358.3L272.4,357.36L273.98,352.87L275.57,350.52L277.15,349.57L278.73,343.44L280.32,342.5L283.48,332.82L285.07,332.12L286.65,331.88L288.24,329.29L291.4,327.64L292.99,336.13L297.74,300.74L299.32,294.14L300.9,290.84L302.49,291.78L304.07,271.02L305.66,271.02L307.24,270.55L308.82,266.54L310.41,260.41L311.99,262.06L313.57,260.65L315.16,246.49L318.33,232.81L319.91,228.09L323.08,230.45L324.66,230.22L326.24,237.77L327.83,238.71L329.41,240.36L331,238.94L332.58,234.93L334.16,238.94L335.75,239.18L337.33,220.55L340.5,202.38L342.08,200.97L343.67,183.04L345.25,179.98L346.83,179.03L348.42,161.34L351.58,123.84L353.17,146.95L356.33,114.17L357.92,112.75L359.5,104.73L361.09,109.21L362.67,111.57L364.25,77.84L365.84,97.89L367.42,98.6L369,98.83L370.59,153.09L372.17,153.56L373.76,146.01L375.34,150.96L376.92,148.6L378.51,158.04L380.09,155.68L381.67,129.73L383.26,145.54L384.84,164.41L386.43,161.58L389.59,170.07L391.18,174.31L392.76,174.08L394.34,165.11L395.93,156.86L397.51,188.23L399.1,183.51L400.68,175.26L403.85,173.61L405.43,178.56L407.01,186.34L408.6,165.59L411.76,184.93L413.35,182.81L414.93,192.95L416.52,197.43L418.1,207.81L419.68,210.17L422.85,213.23L424.43,217.24L427.6,238.94L429.19,244.84L430.77,248.62L432.35,249.8L435.52,245.31L437.1,239.65L438.69,243.43L440.27,242.95L443.44,252.15L445.02,252.63L446.61,252.63L448.19,250.97L449.77,253.1L451.36,266.07L454.52,253.1L456.11,250.5L457.69,248.14L459.28,241.54L460.86,231.4L462.44,206.63L464.03,209.7L465.61,210.64L467.19,210.4L468.78,212.29L473.53,233.76L475.11,229.51L476.7,233.28L478.28,234.23L479.86,235.41L481.45,226.21L486.2,209.22L487.78,204.98L489.37,200.97L490.95,200.5L497.29,149.31L498.87,130.44L500.45,123.6L502.04,121.71L503.62,115.82L505.2,101.66L506.79,91.52L508.37,90.81L511.54,78.08L513.12,78.31L514.71,69.11L516.29,66.52L517.87,71.71L519.46,68.17L522.62,62.74L524.21,65.1L525.79,60.38L527.38,59.21L528.96,57.79L530.54,67.7L533.71,93.17L535.29,90.34L536.88,103.55L538.46,108.74L540.05,114.17L541.63,107.56L543.21,95.53L544.8,92.7L546.38,91.28L547.96,82.56L549.55,74.77L551.13,55.67L554.3,43.64L555.88,37.5L557.47,39.16L559.05,39.63L560.63,34.91L562.22,33.73L565.38,12.74L566.97,8.73L568.55,9.2L570.14,0L573.3,8.49L574.89,21.94L578.05,39.39L579.64,40.57L581.22,58.97L582.81,67.46L587.56,120.06L589.14,126.43L590.72,126.9L592.31,139.4L595.48,172.43L597.06,177.85L600.23,193.42L601.81,194.84L604.98,215.36L606.56,212.53L608.14,218.66L609.73,221.73L612.9,219.37L614.48,224.56L616.06,226.91L617.65,238.94L620.81,258.29L622.4,262.53L623.98,262.3L625.57,288.01L627.15,278.81L628.73,284.23L630.32,286.36L631.9,284L633.48,286.83L635.07,287.77L636.65,268.67L638.24,286.59L639.82,293.67L641.4,307.35L642.99,308.06L644.57,309.94L646.15,309.94L647.74,320.56L649.32,327.16L650.9,325.98L652.49,319.85L654.07,326.93L655.66,325.75L657.24,326.22L658.82,326.93L660.41,326.69L661.99,326.93L663.57,319.62L665.16,317.49L666.74,318.67L668.33,318.67L669.91,316.08L671.49,312.54L673.08,312.07" style="fill: rgb(8, 115, 191); fill-opacity: 0.2; stroke-width: 0;"/></g></g><g class="errorbars"/><g class="lines"><path class="js-line" d="M-215.38,379.06L-213.8,379.06L-212.22,375.52L-202.71,340.61L-201.13,342.73L-199.55,344.15L-197.96,342.73L-196.38,345.8L-193.21,344.38L-191.63,342.5L-178.96,282.82L-177.38,260.17L-172.62,241.3L-171.04,218.66L-169.46,163.23L-167.87,147.42L-159.95,64.87L-158.37,70.06L-156.79,72.65L-155.2,92.46L-153.62,95.06L-152.04,76.9L-148.87,67.46L-147.29,81.85L-145.7,79.26L-144.12,55.9L-142.53,56.37L-140.95,74.3L-139.37,76.9L-137.78,95.29L-133.03,124.07L-131.45,145.07L-129.86,149.31L-128.28,163.94L-125.11,209.46L-123.53,200.73L-121.95,229.98L-120.36,234.23L-118.78,222.67L-117.19,230.45L-114.03,213.23L-112.44,226.44L-109.28,219.6L-107.69,221.25L-98.19,258.05L-96.61,271.97L-95.02,276.21L-93.44,273.15L-90.27,286.59L-88.69,291.07L-85.52,295.79L-83.94,294.85L-80.77,304.99L-79.19,300.27L-76.02,306.64L-74.43,308.29L-72.85,313.72L-71.27,312.77L-68.1,321.03L-66.52,319.14L-63.35,319.62L-61.76,320.79L-60.18,326.69L-58.6,321.97L-52.26,323.39L-50.68,316.08L-49.1,313.25L-47.51,317.96L-45.93,322.68L-44.34,322.45L-42.76,325.04L-41.18,322.21L-38.01,331.17L-36.43,328.11L-34.84,326.93L-33.26,330.7L-31.67,329.99L-30.09,334.24L-26.92,335.65L-25.34,340.37L-23.76,344.62L-22.17,342.26L-20.59,342.97L-19,342.5L-15.84,344.62L-14.25,343.2L-12.67,338.72L-11.09,341.08L-9.5,338.72L-7.92,338.01L-6.33,335.18L-4.75,335.65L-1.58,341.32L0,339.9L1.58,341.32L3.17,339.9L4.75,345.56L6.33,343.67L7.92,339.43L9.5,342.73L14.25,350.75L15.84,350.52L20.59,358.06L22.17,358.06L23.76,356.88L25.34,354.53L26.92,353.11L28.51,353.82L30.09,350.75L31.67,342.97L33.26,342.26L34.84,343.67L38.01,347.45L39.59,345.33L41.18,348.16L42.76,353.58L44.34,353.35L45.93,351.22L47.51,350.52L49.1,348.86L52.26,348.39L53.85,345.56L55.43,345.8L57.01,347.45L58.6,347.21L60.18,343.91L61.76,345.56L63.35,348.39L64.93,344.85L66.52,345.09L68.1,341.79L69.68,342.5L71.27,342.26L72.85,339.43L74.43,336.36L76.02,341.55L77.6,339.9L79.19,341.79L80.77,342.02L82.35,340.37L83.94,341.08L85.52,339.9L88.69,341.55L90.27,339.66L91.86,339.19L93.44,341.55L95.02,340.14L96.61,336.6L101.36,320.56L102.94,320.79L104.52,316.08L106.11,307.35L107.69,302.4L109.28,292.25L110.86,288.72L112.44,287.54L114.03,284L115.61,271.73L118.78,253.1L120.36,249.8L123.53,245.79L125.11,247.2L126.7,247.67L128.28,253.81L129.86,257.11L131.45,267.72L133.03,285.18L134.62,285.18L136.2,287.77L137.78,286.12L140.95,276.92L142.53,270.32L144.12,268.19L145.7,262.77L147.29,259.23L148.87,251.92L153.62,211.82L155.2,184.22L158.37,184.93L159.95,172.43L161.54,175.73L163.12,187.52L164.71,194.13L166.29,189.41L167.87,194.84L169.46,196.25L171.04,208.28L172.62,211.35L174.21,209.46L175.79,217.01L177.38,234.7L178.96,238.71L180.54,238.24L182.13,250.5L186.88,275.03L188.46,281.4L190.05,282.35L191.63,282.11L193.21,291.78L194.8,307.59L197.96,325.75L199.55,329.52L201.13,333.53L202.71,334.71L204.3,341.55L205.88,342.73L210.63,354.53L212.22,355.94L213.8,356.88L215.38,359.48L216.97,360.42L218.55,363.49L221.72,363.72L223.3,362.78L224.89,362.31L226.47,360.66L228.05,361.13L229.64,359.24L231.22,359.01L232.81,360.42L234.39,360.19L235.97,361.13L237.56,361.37L239.14,363.02L242.31,366.79L243.89,364.9L247.06,364.67L248.64,367.26L250.23,368.21L251.81,367.73L253.39,366.08L254.98,367.26L256.56,367.97L258.14,367.5L259.73,365.14L261.31,364.43L262.9,364.43L264.48,362.31L266.06,359.71L267.65,359.24L269.23,359.95L270.81,358.3L272.4,357.36L273.98,352.87L275.57,350.52L277.15,349.57L278.73,343.44L280.32,342.5L283.48,332.82L285.07,332.12L286.65,331.88L288.24,329.29L291.4,327.64L292.99,336.13L297.74,300.74L299.32,294.14L300.9,290.84L302.49,291.78L304.07,271.02L305.66,271.02L307.24,270.55L308.82,266.54L310.41,260.41L311.99,262.06L313.57,260.65L315.16,246.49L318.33,232.81L319.91,228.09L323.08,230.45L324.66,230.22L326.24,237.77L327.83,238.71L329.41,240.36L331,238.94L332.58,234.93L334.16,238.94L335.75,239.18L337.33,220.55L340.5,202.38L342.08,200.97L343.67,183.04L345.25,179.98L346.83,179.03L348.42,161.34L351.58,123.84L353.17,146.95L356.33,114.17L357.92,112.75L359.5,104.73L361.09,109.21L362.67,111.57L364.25,77.84L365.84,97.89L367.42,98.6L369,98.83L370.59,153.09L372.17,153.56L373.76,146.01L375.34,150.96L376.92,148.6L378.51,158.04L380.09,155.68L381.67,129.73L383.26,145.54L384.84,164.41L386.43,161.58L389.59,170.07L391.18,174.31L392.76,174.08L394.34,165.11L395.93,156.86L397.51,188.23L399.1,183.51L400.68,175.26L403.85,173.61L405.43,178.56L407.01,186.34L408.6,165.59L411.76,184.93L413.35,182.81L414.93,192.95L416.52,197.43L418.1,207.81L419.68,210.17L422.85,213.23L424.43,217.24L427.6,238.94L429.19,244.84L430.77,248.62L432.35,249.8L435.52,245.31L437.1,239.65L438.69,243.43L440.27,242.95L443.44,252.15L445.02,252.63L446.61,252.63L448.19,250.97L449.77,253.1L451.36,266.07L454.52,253.1L456.11,250.5L457.69,248.14L459.28,241.54L460.86,231.4L462.44,206.63L464.03,209.7L465.61,210.64L467.19,210.4L468.78,212.29L473.53,233.76L475.11,229.51L476.7,233.28L478.28,234.23L479.86,235.41L481.45,226.21L486.2,209.22L487.78,204.98L489.37,200.97L490.95,200.5L497.29,149.31L498.87,130.44L500.45,123.6L502.04,121.71L503.62,115.82L505.2,101.66L506.79,91.52L508.37,90.81L511.54,78.08L513.12,78.31L514.71,69.11L516.29,66.52L517.87,71.71L519.46,68.17L522.62,62.74L524.21,65.1L525.79,60.38L527.38,59.21L528.96,57.79L530.54,67.7L533.71,93.17L535.29,90.34L536.88,103.55L538.46,108.74L540.05,114.17L541.63,107.56L543.21,95.53L544.8,92.7L546.38,91.28L547.96,82.56L549.55,74.77L551.13,55.67L554.3,43.64L555.88,37.5L557.47,39.16L559.05,39.63L560.63,34.91L562.22,33.73L565.38,12.74L566.97,8.73L568.55,9.2L570.14,0L573.3,8.49L574.89,21.94L578.05,39.39L579.64,40.57L581.22,58.97L582.81,67.46L587.56,120.06L589.14,126.43L590.72,126.9L592.31,139.4L595.48,172.43L597.06,177.85L600.23,193.42L601.81,194.84L604.98,215.36L606.56,212.53L608.14,218.66L609.73,221.73L612.9,219.37L614.48,224.56L616.06,226.91L617.65,238.94L620.81,258.29L622.4,262.53L623.98,262.3L625.57,288.01L627.15,278.81L628.73,284.23L630.32,286.36L631.9,284L633.48,286.83L635.07,287.77L636.65,268.67L638.24,286.59L639.82,293.67L641.4,307.35L642.99,308.06L644.57,309.94L646.15,309.94L647.74,320.56L649.32,327.16L650.9,325.98L652.49,319.85L654.07,326.93L655.66,325.75L657.24,326.22L658.82,326.93L660.41,326.69L661.99,326.93L663.57,319.62L665.16,317.49L666.74,318.67L668.33,318.67L669.91,316.08L671.49,312.54L673.08,312.07" style="vector-effect: non-scaling-stroke; fill: none; stroke: rgb(8, 115, 191); stroke-opacity: 1; stroke-width: 0.5px; opacity: 1;"/></g><g class="points"/><g class="text"/></g><g class="trace scatter tracebf7f72" style="stroke-miterlimit: 2;"><g class="fills"><g><path class="js-fill" d="M688.91,380L673.08,380L673.08,312.07L674.66,317.96L676.24,319.85L677.83,317.96L679.41,318.2L681,323.15L682.58,324.33L684.16,316.78L685.75,313.72L687.33,307.35L688.91,309.24" style="fill: rgb(8, 115, 191); fill-opacity: 0.4; stroke-width: 0;"/></g></g><g class="errorbars"/><g class="lines"><path class="js-line" d="M673.08,312.07L674.66,317.96L676.24,319.85L677.83,317.96L679.41,318.2L681,323.15L682.58,324.33L684.16,316.78L685.75,313.72L687.33,307.35L688.91,309.24" style="vector-effect: non-scaling-stroke; fill: none; stroke: rgb(8, 115, 191); stroke-opacity: 1; stroke-width: 2px; opacity: 1;"/></g><g class="points"/><g class="text"/></g><g class="trace scatter trace262d36" style="stroke-miterlimit: 2; opacity: 1;"><g class="fills"/><g class="errorbars"/><g class="lines"/><g class="points"><path class="point" transform="translate(688.91,309.24)" d="M15,0A15,15 0 1,1 0,-15A15,15 0 0,1 15,0Z" style="opacity: 1; stroke-width: 0px; fill: rgb(8, 115, 191); fill-opacity: 1;"/></g><g class="text"/></g></g></g><g class="overplot"/><path class="xlines-above crisp" style="fill: none; stroke-width: 1px; stroke: rgb(0, 0, 0); stroke-opacity: 0;" d=""/><path class="ylines-above crisp" style="fill: none;" d="M0,0"/><g class="overlines-above"/><g class="xaxislayer-above"><path class="xtick ticks crisp" d="M0,450v-5" transform="translate(102.25999999999999,0)" style="stroke: rgb(68, 68, 68); stroke-opacity: 1; stroke-width: 1px;"/><path class="xtick ticks crisp" d="M0,450v-5" transform="translate(198.87,0)" style="stroke: rgb(68, 68, 68); stroke-opacity: 1; stroke-width: 1px;"/><path class="xtick ticks crisp" d="M0,450v-5" transform="translate(292.31,0)" style="stroke: rgb(68, 68, 68); stroke-opacity: 1; stroke-width: 1px;"/><path class="xtick ticks crisp" d="M0,450v-5" transform="translate(388.91,0)" style="stroke: rgb(68, 68, 68); stroke-opacity: 1; stroke-width: 1px;"/><path class="xtick ticks crisp" d="M0,450v-5" transform="translate(485.52,0)" style="stroke: rgb(68, 68, 68); stroke-opacity: 1; stroke-width: 1px;"/><path class="xtick ticks crisp" d="M0,450v-5" transform="translate(583.71,0)" style="stroke: rgb(68, 68, 68); stroke-opacity: 1; stroke-width: 1px;"/><path class="xtick ticks crisp" d="M0,450v-5" transform="translate(680.32,0)" style="stroke: rgb(68, 68, 68); stroke-opacity: 1; stroke-width: 1px;"/><g class="xtick"><text text-anchor="middle" x="0" y="469" transform="translate(102.25999999999999,0)" style="font-family: 'Open Sans', verdana, arial, sans-serif; font-size: 18px; fill: rgb(42, 63, 95); fill-opacity: 1; white-space: pre;">01/11</text></g><g class="xtick"><text text-anchor="middle" x="0" y="469" transform="translate(198.87,0)" style="font-family: 'Open Sans', verdana, arial, sans-serif; font-size: 18px; fill: rgb(42, 63, 95); fill-opacity: 1; white-space: pre;">01/01</text></g><g class="xtick"><text text-anchor="middle" x="0" y="469" transform="translate(292.31,0)" style="font-family: 'Open Sans', verdana, arial, sans-serif; font-size: 18px; fill: rgb(42, 63, 95); fill-opacity: 1; white-space: pre;">01/03</text></g><g class="xtick"><text text-anchor="middle" x="0" y="469" transform="translate(388.91,0)" style="font-family: 'Open Sans', verdana, arial, sans-serif; font-size: 18px; fill: rgb(42, 63, 95); fill-opacity: 1; white-space: pre;">01/05</text></g><g class="xtick"><text text-anchor="middle" x="0" y="469" transform="translate(485.52,0)" style="font-family: 'Open Sans', verdana, arial, sans-serif; font-size: 18px; fill: rgb(42, 63, 95); fill-opacity: 1; white-space: pre;">01/07</text></g><g class="xtick"><text text-anchor="middle" x="0" y="469" transform="translate(583.71,0)" style="font-family: 'Open Sans', verdana, arial, sans-serif; font-size: 18px; fill: rgb(42, 63, 95); fill-opacity: 1; white-space: pre;">01/09</text></g><g class="xtick"><text text-anchor="middle" x="0" y="469" transform="translate(680.32,0)" style="font-family: 'Open Sans', verdana, arial, sans-serif; font-size: 18px; fill: rgb(42, 63, 95); fill-opacity: 1; white-space: pre;">01/11</text></g></g><g class="yaxislayer-above"/><g class="overaxes-above"/></g></g><g class="polarlayer"/><g class="ternarylayer"/><g class="geolayer"/><g class="funnelarealayer"/><g class="pielayer"/><g class="treemaplayer"/><g class="sunburstlayer"/><g class="glimages"/><defs id="topdefs-6bf673"><g class="clips"/></defs><g class="layer-above"><g class="imagelayer"/><g class="shapelayer"><path data-index="0" fill-rule="evenodd" d="M-840.05,415.72L317.65,415.72" clip-path="url('#clip6bf673xy')" style="opacity: 1; stroke: rgb(255, 0, 0); stroke-opacity: 1; fill: rgb(0, 0, 0); fill-opacity: 0; stroke-dasharray: 3px, 3px; stroke-width: 1.5px;"/></g></g><g class="infolayer"><g class="g-gtitle"><text class="gtitle" x="375" y="25" text-anchor="middle" dy="0.7em" style="font-family: 'Open Sans', verdana, arial, sans-serif; font-size: 50px; fill: rgb(42, 63, 95); opacity: 1; font-weight: normal; white-space: pre;"><tspan style="font-weight:bold">Guyane (973)</tspan></text></g><g class="g-xtitle"/><g class="annotation" data-index="0" style="opacity: 1;"><g class="annotation-text-g" transform="rotate(0,696.91,319.24)"><g class="cursor-pointer" transform="translate(639, 283)"><rect class="bg" x="0.5" y="0.5" width="115" height="71" style="stroke-width: 1px; stroke: rgb(0, 0, 0); stroke-opacity: 0; fill: rgb(255, 255, 255); fill-opacity: 0.6;"/><text class="annotation-text" text-anchor="middle" x="57.8125" y="55.5" style="font-family: 'Open Sans', verdana, arial, sans-serif; font-size: 50px; fill: rgb(8, 115, 191); fill-opacity: 1; white-space: pre;"> <tspan style="font-weight:bold">103 </tspan></text></g></g><g class="annotation-arrow-g" style="opacity: 1;"><path d="M725.31,354.74L736.91,369.24" style="stroke-width: 1px; stroke: rgb(8, 115, 191); stroke-opacity: 1; stroke-dasharray: 0px, 0px, 18.569px, 18.569px;"/></g></g></g></svg>