<svg class="main-svg" xmlns="http://www.w3.org/2000/svg" xmlns:xlink="http://www.w3.org/1999/xlink" width="1125" height="750" style="" viewBox="0 0 750 500"><rect x="0" y="0" width="750" height="500" style="fill: rgb(0, 0, 0); fill-opacity: 0;"/><defs id="defs-1b0be2"><g class="clips"><clipPath id="clip1b0be2xyplot" class="plotclip"><rect width="687" height="380"/></clipPath><clipPath class="axesclip" id="clip1b0be2x"><rect x="50" y="0" width="687" height="500"/></clipPath><clipPath class="axesclip" id="clip1b0be2y"><rect x="0" y="70" width="750" height="380"/></clipPath><clipPath class="axesclip" id="clip1b0be2xy"><rect x="50" y="70" width="687" height="380"/></clipPath></g><g class="gradients"/></defs><g class="bglayer"><rect class="bg" x="50" y="70" width="687" height="380" style="fill: rgb(0, 0, 0); fill-opacity: 0; stroke-width: 0;"/></g><g class="layer-below"><g class="imagelayer"/><g class="shapelayer"/></g><g class="cartesianlayer"><g class="subplot xy"><g class="layer-subplot"><g class="shapelayer"/><g class="imagelayer"/></g><g class="gridlayer"><g class="x"><path class="xgrid crisp" transform="translate(93.1,0)" d="M0,70v380" style="stroke: rgb(255, 255, 255); stroke-opacity: 1; stroke-width: 1px;"/><path class="xgrid crisp" transform="translate(172.76999999999998,0)" d="M0,70v380" style="stroke: rgb(255, 255, 255); stroke-opacity: 1; stroke-width: 1px;"/><path class="xgrid crisp" transform="translate(249.83,0)" d="M0,70v380" style="stroke: rgb(255, 255, 255); stroke-opacity: 1; stroke-width: 1px;"/><path class="xgrid crisp" transform="translate(329.5,0)" d="M0,70v380" style="stroke: rgb(255, 255, 255); stroke-opacity: 1; stroke-width: 1px;"/><path class="xgrid crisp" transform="translate(409.17,0)" d="M0,70v380" style="stroke: rgb(255, 255, 255); stroke-opacity: 1; stroke-width: 1px;"/><path class="xgrid crisp" transform="translate(490.15,0)" d="M0,70v380" style="stroke: rgb(255, 255, 255); stroke-opacity: 1; stroke-width: 1px;"/><path class="xgrid crisp" transform="translate(569.82,0)" d="M0,70v380" style="stroke: rgb(255, 255, 255); stroke-opacity: 1; stroke-width: 1px;"/><path class="xgrid crisp" transform="translate(649.49,0)" d="M0,70v380" style="stroke: rgb(255, 255, 255); stroke-opacity: 1; stroke-width: 1px;"/><path class="xgrid crisp" transform="translate(726.55,0)" d="M0,70v380" style="stroke: rgb(255, 255, 255); stroke-opacity: 1; stroke-width: 1px;"/></g><g class="y"/></g><g class="zerolinelayer"/><path class="xlines-below"/><path class="ylines-below"/><g class="overlines-below"/><g class="xaxislayer-below"/><g class="yaxislayer-below"/><g class="overaxes-below"/><g class="plot" transform="translate(50, 70)" clip-path="url('#clip1b0be2xyplot')"><g class="scatterlayer mlayer"><g class="trace scatter trace147a8f" style="stroke-miterlimit: 2;"><g class="fills"><g><path class="js-fill" d="M664.8,380L-177.63,380L-177.63,379.89L-103.18,378.32L-101.87,377.83L-83.59,379.61L-82.28,379.62L-60.08,378.15L-58.77,377.89L-50.94,377.85L-49.63,377.84L-33.96,377.09L-32.65,377.33L-26.12,377.25L-24.82,377.37L-15.67,376L-14.37,375.88L-2.61,376.39L-1.31,376.15L2.61,375.71L3.92,375.45L6.53,374.41L7.84,374.22L10.45,373.3L11.75,373.39L14.37,372.49L15.67,372L18.29,370.66L19.59,370.3L22.2,369.33L23.51,367.98L28.73,363.43L30.04,363.22L33.96,358.67L35.26,357.94L39.18,357.19L40.49,355.86L41.79,355.78L43.1,356.6L48.33,359.54L49.63,362.01L54.86,369.48L56.16,369.86L57.47,369.96L58.77,371.94L60.08,373.25L61.39,373.1L64,375.32L65.3,375.65L66.61,375.68L67.92,376.5L73.14,377.63L74.45,377.87L82.28,377.4L83.59,377.08L90.12,377.09L91.43,376.75L96.65,375.91L97.96,375.44L101.87,375.3L103.18,375.52L108.4,375.47L109.71,376.07L120.16,374.85L121.47,374.9L126.69,373.52L128,371.96L133.22,372.42L134.53,372.78L141.06,372.77L142.36,372.38L146.28,371.84L147.59,371.59L155.42,371.68L156.73,372.1L158.04,372.14L159.34,373L161.95,373.06L163.26,373.67L172.4,375.83L173.71,375.92L178.93,375.34L180.24,374.54L185.46,373.72L186.77,373.71L191.99,373.91L193.3,374.03L202.44,373.99L203.75,373.87L212.89,372.15L214.2,372.03L215.5,372.26L216.81,371.63L228.56,370.38L229.87,369.99L237.71,369.76L239.01,370L240.32,370.02L241.63,371.88L242.93,371.12L244.24,371.24L249.46,371.13L250.77,369.07L262.52,370.54L263.83,370.39L266.44,369.9L267.75,369.87L283.42,372.94L284.73,373L292.56,372.67L293.87,372.37L299.09,372.27L300.4,371.51L301.71,372.3L303.01,372.16L304.32,372.12L305.62,373.83L312.15,373.02L313.46,372.98L314.77,371.86L316.07,372.47L334.36,376.51L335.66,376.93L359.17,377.84L360.48,377.79L364.4,377.25L365.7,376.75L372.23,375.63L373.54,374.94L378.76,372.93L380.07,372.49L382.68,370.61L383.99,370.26L389.21,369.05L390.52,369.48L394.44,370.57L395.74,370.43L398.36,370.68L399.66,369.86L407.5,367.74L408.8,367.75L412.72,367.16L414.03,367.19L417.95,366.89L419.25,367.31L423.17,367.2L424.48,366.68L431.01,366.84L432.31,367.11L434.93,369.63L436.23,370.58L441.46,372.78L442.76,373.14L445.37,374.16L446.68,373.71L451.9,374.16L453.21,374.45L454.52,374.58L455.82,375.63L462.35,377.21L463.66,377.18L471.5,377.97L472.8,378.34L479.33,378.55L480.64,378.58L488.48,377.6L489.78,377.2L493.7,376.94L495.01,377.06L509.37,376.12L510.68,375.99L514.6,375.83L515.9,376.47L521.13,374.67L522.43,374.24L523.74,374.18L525.05,372.1L527.66,371.04L528.96,371.86L535.49,368.34L536.8,367.2L538.11,364.92L539.41,364.53L542.02,364.3L543.33,364.38L545.94,363.4L547.25,362.18L549.86,360.76L551.17,360.65L555.09,355.23L556.39,354.04L559,351.3L560.31,351.27L561.62,350.07L562.92,350.94L565.53,350.99L566.84,352.25L569.45,352.35L570.76,352.28L573.37,351.45L574.68,352.33L575.98,351.8L577.29,352.51L578.6,352.66L579.9,352.04L581.21,350.59L582.51,347.03L585.13,338.38L586.43,339.49L587.74,337.59L589.04,319.29L594.27,258.6L595.57,257.77L596.88,254.17L598.19,223.58L600.8,193.01L602.1,188.07L604.72,157.64L606.02,155.45L607.33,160.46L608.63,161.42L609.94,158.59L611.25,151.18L613.86,140.42L615.17,138.96L621.7,74.92L623,65.1L624.31,62.34L625.61,45.56L629.53,18.61L630.84,10.91L634.76,0L636.06,5.93L638.67,24.37L639.98,40.14L642.59,59.89L643.9,93.97L647.82,166.44L649.12,183.51L650.43,192.98L651.74,195.5L654.35,223.56L655.65,232.37L658.27,243.8L659.57,247.16L660.88,247.81L662.18,253.64L664.8,259.76" style="fill: rgb(8, 115, 191); fill-opacity: 0.2; stroke-width: 0;"/></g></g><g class="errorbars"/><g class="lines"><path class="js-line" d="M-177.63,379.89L-103.18,378.32L-101.87,377.83L-83.59,379.61L-82.28,379.62L-60.08,378.15L-58.77,377.89L-50.94,377.85L-49.63,377.84L-33.96,377.09L-32.65,377.33L-26.12,377.25L-24.82,377.37L-15.67,376L-14.37,375.88L-2.61,376.39L-1.31,376.15L2.61,375.71L3.92,375.45L6.53,374.41L7.84,374.22L10.45,373.3L11.75,373.39L14.37,372.49L15.67,372L18.29,370.66L19.59,370.3L22.2,369.33L23.51,367.98L28.73,363.43L30.04,363.22L33.96,358.67L35.26,357.94L39.18,357.19L40.49,355.86L41.79,355.78L43.1,356.6L48.33,359.54L49.63,362.01L54.86,369.48L56.16,369.86L57.47,369.96L58.77,371.94L60.08,373.25L61.39,373.1L64,375.32L65.3,375.65L66.61,375.68L67.92,376.5L73.14,377.63L74.45,377.87L82.28,377.4L83.59,377.08L90.12,377.09L91.43,376.75L96.65,375.91L97.96,375.44L101.87,375.3L103.18,375.52L108.4,375.47L109.71,376.07L120.16,374.85L121.47,374.9L126.69,373.52L128,371.96L133.22,372.42L134.53,372.78L141.06,372.77L142.36,372.38L146.28,371.84L147.59,371.59L155.42,371.68L156.73,372.1L158.04,372.14L159.34,373L161.95,373.06L163.26,373.67L172.4,375.83L173.71,375.92L178.93,375.34L180.24,374.54L185.46,373.72L186.77,373.71L191.99,373.91L193.3,374.03L202.44,373.99L203.75,373.87L212.89,372.15L214.2,372.03L215.5,372.26L216.81,371.63L228.56,370.38L229.87,369.99L237.71,369.76L239.01,370L240.32,370.02L241.63,371.88L242.93,371.12L244.24,371.24L249.46,371.13L250.77,369.07L262.52,370.54L263.83,370.39L266.44,369.9L267.75,369.87L283.42,372.94L284.73,373L292.56,372.67L293.87,372.37L299.09,372.27L300.4,371.51L301.71,372.3L303.01,372.16L304.32,372.12L305.62,373.83L312.15,373.02L313.46,372.98L314.77,371.86L316.07,372.47L334.36,376.51L335.66,376.93L359.17,377.84L360.48,377.79L364.4,377.25L365.7,376.75L372.23,375.63L373.54,374.94L378.76,372.93L380.07,372.49L382.68,370.61L383.99,370.26L389.21,369.05L390.52,369.48L394.44,370.57L395.74,370.43L398.36,370.68L399.66,369.86L407.5,367.74L408.8,367.75L412.72,367.16L414.03,367.19L417.95,366.89L419.25,367.31L423.17,367.2L424.48,366.68L431.01,366.84L432.31,367.11L434.93,369.63L436.23,370.58L441.46,372.78L442.76,373.14L445.37,374.16L446.68,373.71L451.9,374.16L453.21,374.45L454.52,374.58L455.82,375.63L462.35,377.21L463.66,377.18L471.5,377.97L472.8,378.34L479.33,378.55L480.64,378.58L488.48,377.6L489.78,377.2L493.7,376.94L495.01,377.06L509.37,376.12L510.68,375.99L514.6,375.83L515.9,376.47L521.13,374.67L522.43,374.24L523.74,374.18L525.05,372.1L527.66,371.04L528.96,371.86L535.49,368.34L536.8,367.2L538.11,364.92L539.41,364.53L542.02,364.3L543.33,364.38L545.94,363.4L547.25,362.18L549.86,360.76L551.17,360.65L555.09,355.23L556.39,354.04L559,351.3L560.31,351.27L561.62,350.07L562.92,350.94L565.53,350.99L566.84,352.25L569.45,352.35L570.76,352.28L573.37,351.45L574.68,352.33L575.98,351.8L577.29,352.51L578.6,352.66L579.9,352.04L581.21,350.59L582.51,347.03L585.13,338.38L586.43,339.49L587.74,337.59L589.04,319.29L594.27,258.6L595.57,257.77L596.88,254.17L598.19,223.58L600.8,193.01L602.1,188.07L604.72,157.64L606.02,155.45L607.33,160.46L608.63,161.42L609.94,158.59L611.25,151.18L613.86,140.42L615.17,138.96L621.7,74.92L623,65.1L624.31,62.34L625.61,45.56L629.53,18.61L630.84,10.91L634.76,0L636.06,5.93L638.67,24.37L639.98,40.14L642.59,59.89L643.9,93.97L647.82,166.44L649.12,183.51L650.43,192.98L651.74,195.5L654.35,223.56L655.65,232.37L658.27,243.8L659.57,247.16L660.88,247.81L662.18,253.64L664.8,259.76" style="vector-effect: non-scaling-stroke; fill: none; stroke: rgb(8, 115, 191); stroke-opacity: 1; stroke-width: 0.5px; opacity: 1;"/></g><g class="points"/><g class="text"/></g><g class="trace scatter tracea7ac10" style="stroke-miterlimit: 2;"><g class="fills"><g><path class="js-fill" d="M677.86,380L664.8,380L664.8,259.76L666.1,262.49L667.41,267.34L670.02,271.24L671.33,272.02L672.63,272.06L673.94,271.15L675.25,269.86L676.55,267.28L677.86,266.06" style="fill: rgb(8, 115, 191); fill-opacity: 0.4; stroke-width: 0;"/></g></g><g class="errorbars"/><g class="lines"><path class="js-line" d="M664.8,259.76L666.1,262.49L667.41,267.34L670.02,271.24L671.33,272.02L672.63,272.06L673.94,271.15L675.25,269.86L676.55,267.28L677.86,266.06" style="vector-effect: non-scaling-stroke; fill: none; stroke: rgb(8, 115, 191); stroke-opacity: 1; stroke-width: 2px; opacity: 1;"/></g><g class="points"/><g class="text"/></g><g class="trace scatter trace48f71e" style="stroke-miterlimit: 2; opacity: 1;"><g class="fills"/><g class="errorbars"/><g class="lines"/><g class="points"><path class="point" transform="translate(677.86,266.06)" d="M15,0A15,15 0 1,1 0,-15A15,15 0 0,1 15,0Z" style="opacity: 1; stroke-width: 0px; fill: rgb(8, 115, 191); fill-opacity: 1;"/></g><g class="text"/></g></g></g><g class="overplot"/><path class="xlines-above crisp" style="fill: none; stroke-width: 1px; stroke: rgb(0, 0, 0); stroke-opacity: 0;" d=""/><path class="ylines-above crisp" style="fill: none;" d="M0,0"/><g class="overlines-above"/><g class="xaxislayer-above"><path class="xtick ticks crisp" d="M0,450v-5" transform="translate(93.1,0)" style="stroke: rgb(68, 68, 68); stroke-opacity: 1; stroke-width: 1px;"/><path class="xtick ticks crisp" d="M0,450v-5" transform="translate(172.76999999999998,0)" style="stroke: rgb(68, 68, 68); stroke-opacity: 1; stroke-width: 1px;"/><path class="xtick ticks crisp" d="M0,450v-5" transform="translate(249.83,0)" style="stroke: rgb(68, 68, 68); stroke-opacity: 1; stroke-width: 1px;"/><path class="xtick ticks crisp" d="M0,450v-5" transform="translate(329.5,0)" style="stroke: rgb(68, 68, 68); stroke-opacity: 1; stroke-width: 1px;"/><path class="xtick ticks crisp" d="M0,450v-5" transform="translate(409.17,0)" style="stroke: rgb(68, 68, 68); stroke-opacity: 1; stroke-width: 1px;"/><path class="xtick ticks crisp" d="M0,450v-5" transform="translate(490.15,0)" style="stroke: rgb(68, 68, 68); stroke-opacity: 1; stroke-width: 1px;"/><path class="xtick ticks crisp" d="M0,450v-5" transform="translate(569.82,0)" style="stroke: rgb(68, 68, 68); stroke-opacity: 1; stroke-width: 1px;"/><path class="xtick ticks crisp" d="M0,450v-5" transform="translate(649.49,0)" style="stroke: rgb(68, 68, 68); stroke-opacity: 1; stroke-width: 1px;"/><path class="xtick ticks crisp" d="M0,450v-5" transform="translate(726.55,0)" style="stroke: rgb(68, 68, 68); stroke-opacity: 1; stroke-width: 1px;"/><g class="xtick"><text text-anchor="middle" x="0" y="469" transform="translate(93.1,0)" style="font-family: 'Open Sans', verdana, arial, sans-serif; font-size: 18px; fill: rgb(42, 63, 95); fill-opacity: 1; white-space: pre;">01/11</text></g><g class="xtick"><text text-anchor="middle" x="0" y="469" transform="translate(172.76999999999998,0)" style="font-family: 'Open Sans', verdana, arial, sans-serif; font-size: 18px; fill: rgb(42, 63, 95); fill-opacity: 1; white-space: pre;">01/01</text></g><g class="xtick"><text text-anchor="middle" x="0" y="469" transform="translate(249.83,0)" style="font-family: 'Open Sans', verdana, arial, sans-serif; font-size: 18px; fill: rgb(42, 63, 95); fill-opacity: 1; white-space: pre;">01/03</text></g><g class="xtick"><text text-anchor="middle" x="0" y="469" transform="translate(329.5,0)" style="font-family: 'Open Sans', verdana, arial, sans-serif; font-size: 18px; fill: rgb(42, 63, 95); fill-opacity: 1; white-space: pre;">01/05</text></g><g class="xtick"><text text-anchor="middle" x="0" y="469" transform="translate(409.17,0)" style="font-family: 'Open Sans', verdana, arial, sans-serif; font-size: 18px; fill: rgb(42, 63, 95); fill-opacity: 1; white-space: pre;">01/07</text></g><g class="xtick"><text text-anchor="middle" x="0" y="469" transform="translate(490.15,0)" style="font-family: 'Open Sans', verdana, arial, sans-serif; font-size: 18px; fill: rgb(42, 63, 95); fill-opacity: 1; white-space: pre;">01/09</text></g><g class="xtick"><text text-anchor="middle" x="0" y="469" transform="translate(569.82,0)" style="font-family: 'Open Sans', verdana, arial, sans-serif; font-size: 18px; fill: rgb(42, 63, 95); fill-opacity: 1; white-space: pre;">01/11</text></g><g class="xtick"><text text-anchor="middle" x="0" y="469" transform="translate(649.49,0)" style="font-family: 'Open Sans', verdana, arial, sans-serif; font-size: 18px; fill: rgb(42, 63, 95); fill-opacity: 1; white-space: pre;">01/01</text></g><g class="xtick"><text text-anchor="middle" x="0" y="469" transform="translate(726.55,0)" style="font-family: 'Open Sans', verdana, arial, sans-serif; font-size: 18px; fill: rgb(42, 63, 95); fill-opacity: 1; white-space: pre;">01/03</text></g></g><g class="yaxislayer-above"/><g class="overaxes-above"/></g></g><g class="polarlayer"/><g class="ternarylayer"/><g class="geolayer"/><g class="funnelarealayer"/><g class="pielayer"/><g class="treemaplayer"/><g class="sunburstlayer"/><g class="glimages"/><defs id="topdefs-1b0be2"><g class="clips"/></defs><g class="layer-above"><g class="imagelayer"/><g class="shapelayer"><path data-index="0" fill-rule="evenodd" d="M-684.02,443.92L270.73,443.92" clip-path="url('#clip1b0be2xy')" style="opacity: 1; stroke: rgb(255, 0, 0); stroke-opacity: 1; fill: rgb(0, 0, 0); fill-opacity: 0; stroke-dasharray: 3px, 3px; stroke-width: 1.5px;"/></g></g><g class="infolayer"><g class="g-gtitle"><text class="gtitle" x="375" y="25" text-anchor="middle" dy="0.7em" style="font-family: 'Open Sans', verdana, arial, sans-serif; font-size: 50px; fill: rgb(42, 63, 95); opacity: 1; font-weight: normal; white-space: pre;"><tspan style="font-weight:bold">Finistère (29)</tspan></text></g><g class="g-xtitle"/><g class="annotation" data-index="0" style="opacity: 1;"><g class="annotation-text-g" transform="rotate(0,685.86,276.06)"><g class="cursor-pointer" transform="translate(628, 240)"><rect class="bg" x="0.5" y="0.5" width="115" height="71" style="stroke-width: 1px; stroke: rgb(0, 0, 0); stroke-opacity: 0; fill: rgb(255, 255, 255); fill-opacity: 0.6;"/><text class="annotation-text" text-anchor="middle" x="57.8125" y="55.5" style="font-family: 'Open Sans', verdana, arial, sans-serif; font-size: 50px; fill: rgb(8, 115, 191); fill-opacity: 1; white-space: pre;"> <tspan style="font-weight:bold">936 </tspan></text></g></g><g class="annotation-arrow-g" style="opacity: 1;"><path d="M714.26,311.56L725.86,326.06" style="stroke-width: 1px; stroke: rgb(8, 115, 191); stroke-opacity: 1; stroke-dasharray: 0px, 0px, 18.569px, 18.569px;"/></g></g></g></svg>