<svg class="main-svg" xmlns="http://www.w3.org/2000/svg" xmlns:xlink="http://www.w3.org/1999/xlink" width="1125" height="750" style="" viewBox="0 0 750 500"><rect x="0" y="0" width="750" height="500" style="fill: rgb(0, 0, 0); fill-opacity: 0;"/><defs id="defs-2589ea"><g class="clips"><clipPath id="clip2589eaxyplot" class="plotclip"><rect width="700" height="380"/></clipPath><clipPath class="axesclip" id="clip2589eax"><rect x="50" y="0" width="700" height="500"/></clipPath><clipPath class="axesclip" id="clip2589eay"><rect x="0" y="70" width="750" height="380"/></clipPath><clipPath class="axesclip" id="clip2589eaxy"><rect x="50" y="70" width="700" height="380"/></clipPath></g><g class="gradients"/></defs><g class="bglayer"><rect class="bg" x="50" y="70" width="700" height="380" style="fill: rgb(0, 0, 0); fill-opacity: 0; stroke-width: 0;"/></g><g class="layer-below"><g class="imagelayer"/><g class="shapelayer"/></g><g class="cartesianlayer"><g class="subplot xy"><g class="layer-subplot"><g class="shapelayer"/><g class="imagelayer"/></g><g class="gridlayer"><g class="x"><path class="xgrid crisp" transform="translate(52.24,0)" d="M0,70v380" style="stroke: rgb(255, 255, 255); stroke-opacity: 1; stroke-width: 1px;"/><path class="xgrid crisp" transform="translate(155.28,0)" d="M0,70v380" style="stroke: rgb(255, 255, 255); stroke-opacity: 1; stroke-width: 1px;"/><path class="xgrid crisp" transform="translate(256.08000000000004,0)" d="M0,70v380" style="stroke: rgb(255, 255, 255); stroke-opacity: 1; stroke-width: 1px;"/><path class="xgrid crisp" transform="translate(358,0)" d="M0,70v380" style="stroke: rgb(255, 255, 255); stroke-opacity: 1; stroke-width: 1px;"/><path class="xgrid crisp" transform="translate(461.04,0)" d="M0,70v380" style="stroke: rgb(255, 255, 255); stroke-opacity: 1; stroke-width: 1px;"/><path class="xgrid crisp" transform="translate(564.08,0)" d="M0,70v380" style="stroke: rgb(255, 255, 255); stroke-opacity: 1; stroke-width: 1px;"/><path class="xgrid crisp" transform="translate(664.88,0)" d="M0,70v380" style="stroke: rgb(255, 255, 255); stroke-opacity: 1; stroke-width: 1px;"/></g><g class="y"/></g><g class="zerolinelayer"/><path class="xlines-below"/><path class="ylines-below"/><g class="overlines-below"/><g class="xaxislayer-below"/><g class="yaxislayer-below"/><g class="overaxes-below"/><g class="plot" transform="translate(50, 70)" clip-path="url('#clip2589eaxyplot')"><g class="scatterlayer mlayer"><g class="trace scatter trace694ab2" style="stroke-miterlimit: 2;"><g class="fills"><g><path class="js-fill" d="M680.96,380L-152.32,380L-152.32,379.58L-36.96,379.25L-35.84,378.83L-29.12,377.08L-28,376.91L-25.76,377.08L-24.64,376.16L-20.16,376.82L-19.04,376.57L-15.68,376.66L-14.56,376.66L-12.32,376.49L-11.2,375.99L-8.96,375.99L-7.84,375.91L-5.6,375.4L-4.48,375.32L0,374.23L1.12,373.07L2.24,372.56L3.36,370.06L4.48,369.89L5.6,368.64L7.84,364.88L8.96,364.63L10.08,364.96L11.2,364.29L12.32,364.04L13.44,364.71L14.56,366.55L15.68,366.13L17.92,365.13L19.04,365.38L24.64,348.92L25.76,348.92L26.88,344.41L28,343.57L30.24,339.31L31.36,339.98L32.48,341.15L33.6,341.06L34.72,341.48L35.84,340.56L38.08,341.73L39.2,342.9L40.32,344.57L41.44,344.66L43.68,348.17L44.8,352.01L47.04,356.27L48.16,356.94L49.28,356.61L50.4,353.93L51.52,356.19L52.64,356.27L56,361.79L57.12,362.2L58.24,367.8L59.36,366.8L62.72,368.47L63.84,368.39L64.96,368.39L66.08,369.89L69.44,370.73L70.56,369.72L72.8,369.97L73.92,368.22L76.16,368.89L77.28,367.88L79.52,366.46L80.64,365.21L84,359.53L85.12,358.94L87.36,355.69L88.48,355.77L91.84,359.28L92.96,358.78L94.08,363.62L95.2,365.04L97.44,367.05L98.56,366.72L99.68,365.63L100.8,367.63L107.52,367.3L108.64,364.38L109.76,362.79L110.88,363.62L112,363.29L113.12,362.12L114.24,362.2L115.36,363.54L116.48,365.04L117.6,365.13L119.84,364.04L120.96,364.63L122.08,364.12L123.2,361.95L126.56,360.11L127.68,360.2L128.8,357.69L129.92,357.11L131.04,356.1L132.16,356.44L134.4,355.02L135.52,355.35L136.64,357.11L137.76,356.69L138.88,359.78L140,360.45L141.12,359.11L142.24,361.12L144.48,361.79L145.6,362.96L146.72,364.21L147.84,364.29L148.96,365.46L150.08,364.46L151.2,364.12L152.32,365.8L154.56,364.79L155.68,365.21L160.16,366.72L161.28,367.88L164.64,370.31L165.76,370.64L166.88,370.47L168,371.48L171.36,371.98L172.48,372.06L174.72,371.23L175.84,371.06L178.08,369.89L179.2,369.05L182.56,368.97L183.68,368.39L185.92,368.97L187.04,368.64L189.28,369.22L190.4,368.97L192.64,368.39L193.76,367.47L194.88,366.46L196,363.96L197.12,362.37L198.24,362.54L199.36,362.29L200.48,360.28L201.6,358.69L202.72,358.44L204.96,360.28L206.08,359.78L207.2,361.95L208.32,360.45L210.56,358.78L211.68,358.19L213.92,357.94L215.04,354.1L217.28,355.69L218.4,356.52L219.52,357.19L220.64,356.61L222.88,356.61L224,358.19L226.24,359.45L227.36,357.94L229.6,359.03L230.72,361.53L235.2,363.12L236.32,364.96L237.44,365.13L238.56,363.71L239.68,363.04L240.8,363.87L241.92,364.79L243.04,366.8L245.28,366.8L246.4,368.47L248.64,370.98L249.76,372.73L252,373.07L253.12,373.07L256.48,373.98L257.6,372.98L260.96,373.15L262.08,373.98L263.2,373.98L264.32,373.15L266.56,373.4L267.68,373.32L269.92,372.9L271.04,373.98L274.4,376.49L275.52,375.99L282.24,376.82L283.36,377.66L292.32,378.5L293.44,379.16L299.04,379.75L300.16,379.75L312.48,379.16L313.6,378.91L321.44,378.58L322.56,377.49L325.92,376.99L327.04,376.24L329.28,374.32L330.4,375.07L332.64,375.49L333.76,374.57L334.88,373.98L336,374.49L338.24,374.23L339.36,373.98L340.48,372.9L341.6,372.9L343.84,372.15L344.96,371.48L348.32,370.98L349.44,369.64L351.68,366.13L352.8,365.71L355.04,364.71L356.16,364.21L357.28,364.29L358.4,365.55L360.64,367.97L361.76,368.64L362.88,368.55L364,369.72L365.12,369.72L366.24,370.56L368.48,370.47L369.6,370.98L371.84,371.14L372.96,372.9L377.44,374.82L378.56,375.15L384.16,373.57L385.28,374.15L386.4,373.98L387.52,375.32L394.24,378.08L395.36,377.91L397.6,377.83L398.72,377.74L402.08,377.91L403.2,376.99L404.32,375.57L405.44,375.74L409.92,376.07L411.04,376.91L413.28,378.41L414.4,378.91L425.6,378.33L426.72,379.08L430.08,379.67L431.2,379.33L441.28,377.08L442.4,377.66L445.76,376.32L446.88,376.07L449.12,375.32L450.24,373.32L452.48,370.81L453.6,370.98L454.72,369.56L455.84,370.06L458.08,369.64L459.2,370.39L460.32,371.06L461.44,369.39L462.56,369.89L463.68,367.63L464.8,367.47L465.92,365.55L470.4,356.69L471.52,356.69L474.88,357.94L476,357.44L477.12,357.11L478.24,355.52L481.6,355.44L482.72,353.35L483.84,352.51L484.96,353.76L487.2,356.77L488.32,356.77L489.44,354.01L490.56,354.1L491.68,355.1L492.8,353.76L496.16,350.76L497.28,350.34L498.4,347.83L499.52,340.81L501.76,322.52L502.88,325.02L504,322.52L505.12,308.31L508.48,264.86L509.6,250.41L510.72,249.74L511.84,247.74L514.08,215.23L515.2,209.38L517.44,207.46L518.56,185.66L519.68,187.41L520.8,200.95L521.92,195.51L523.04,195.1L526.4,182.06L527.52,178.89L528.64,157L529.76,154.74L532,131.93L533.12,122.82L536.48,87.31L537.6,63.17L539.84,22.39L540.96,6.27L542.08,0L543.2,2.42L544.32,3.43L545.44,9.27L547.68,38.02L548.8,49.38L549.92,60.66L551.04,60.16L554.4,98.84L555.52,118.65L557.76,150.31L558.88,154.82L562.24,219.24L563.36,228.1L565.6,245.73L566.72,247.57L568.96,263.69L570.08,266.62L571.2,271.38L572.32,272.63L573.44,274.97L574.56,273.64L575.68,279.65L576.8,280.4L579.04,287.42L580.16,289.34L582.4,292.1L583.52,288.84L584.64,290.93L585.76,286L590.24,270.04L591.36,260.18L595.84,213.48L596.96,209.47L598.08,210.22L599.2,195.77L601.44,186.91L602.56,185.57L603.68,182.73L604.8,183.32L605.92,181.9L607.04,184.65L608.16,180.64L609.28,183.65L613.76,199.44L614.88,201.7L616,200.86L617.12,196.1L620.48,174.63L621.6,172.2L622.72,170.03L623.84,171.53L624.96,172.7L626.08,178.14L628.32,194.93L629.44,196.18L630.56,235.12L631.68,234.53L635.04,260.94L636.16,266.45L637.28,267.45L638.4,251.75L639.52,273.05L640.64,279.74L642.88,294.27L644,296.86L645.12,298.62L646.24,302.3L651.84,327.03L652.96,326.78L654.08,336.39L655.2,339.14L657.44,343.4L658.56,345.41L660.8,348.75L661.92,349.5L665.28,358.28L666.4,359.28L668.64,358.61L669.76,361.37L673.12,365.21L674.24,365.46L676.48,366.46L677.6,365.21L680.96,360.78" style="fill: rgb(8, 115, 191); fill-opacity: 0.2; stroke-width: 0;"/></g></g><g class="errorbars"/><g class="lines"><path class="js-line" d="M-152.32,379.58L-36.96,379.25L-35.84,378.83L-29.12,377.08L-28,376.91L-25.76,377.08L-24.64,376.16L-20.16,376.82L-19.04,376.57L-15.68,376.66L-14.56,376.66L-12.32,376.49L-11.2,375.99L-8.96,375.99L-7.84,375.91L-5.6,375.4L-4.48,375.32L0,374.23L1.12,373.07L2.24,372.56L3.36,370.06L4.48,369.89L5.6,368.64L7.84,364.88L8.96,364.63L10.08,364.96L11.2,364.29L12.32,364.04L13.44,364.71L14.56,366.55L15.68,366.13L17.92,365.13L19.04,365.38L24.64,348.92L25.76,348.92L26.88,344.41L28,343.57L30.24,339.31L31.36,339.98L32.48,341.15L33.6,341.06L34.72,341.48L35.84,340.56L38.08,341.73L39.2,342.9L40.32,344.57L41.44,344.66L43.68,348.17L44.8,352.01L47.04,356.27L48.16,356.94L49.28,356.61L50.4,353.93L51.52,356.19L52.64,356.27L56,361.79L57.12,362.2L58.24,367.8L59.36,366.8L62.72,368.47L63.84,368.39L64.96,368.39L66.08,369.89L69.44,370.73L70.56,369.72L72.8,369.97L73.92,368.22L76.16,368.89L77.28,367.88L79.52,366.46L80.64,365.21L84,359.53L85.12,358.94L87.36,355.69L88.48,355.77L91.84,359.28L92.96,358.78L94.08,363.62L95.2,365.04L97.44,367.05L98.56,366.72L99.68,365.63L100.8,367.63L107.52,367.3L108.64,364.38L109.76,362.79L110.88,363.62L112,363.29L113.12,362.12L114.24,362.2L115.36,363.54L116.48,365.04L117.6,365.13L119.84,364.04L120.96,364.63L122.08,364.12L123.2,361.95L126.56,360.11L127.68,360.2L128.8,357.69L129.92,357.11L131.04,356.1L132.16,356.44L134.4,355.02L135.52,355.35L136.64,357.11L137.76,356.69L138.88,359.78L140,360.45L141.12,359.11L142.24,361.12L144.48,361.79L145.6,362.96L146.72,364.21L147.84,364.29L148.96,365.46L150.08,364.46L151.2,364.12L152.32,365.8L154.56,364.79L155.68,365.21L160.16,366.72L161.28,367.88L164.64,370.31L165.76,370.64L166.88,370.47L168,371.48L171.36,371.98L172.48,372.06L174.72,371.23L175.84,371.06L178.08,369.89L179.2,369.05L182.56,368.97L183.68,368.39L185.92,368.97L187.04,368.64L189.28,369.22L190.4,368.97L192.64,368.39L193.76,367.47L194.88,366.46L196,363.96L197.12,362.37L198.24,362.54L199.36,362.29L200.48,360.28L201.6,358.69L202.72,358.44L204.96,360.28L206.08,359.78L207.2,361.95L208.32,360.45L210.56,358.78L211.68,358.19L213.92,357.94L215.04,354.1L217.28,355.69L218.4,356.52L219.52,357.19L220.64,356.61L222.88,356.61L224,358.19L226.24,359.45L227.36,357.94L229.6,359.03L230.72,361.53L235.2,363.12L236.32,364.96L237.44,365.13L238.56,363.71L239.68,363.04L240.8,363.87L241.92,364.79L243.04,366.8L245.28,366.8L246.4,368.47L248.64,370.98L249.76,372.73L252,373.07L253.12,373.07L256.48,373.98L257.6,372.98L260.96,373.15L262.08,373.98L263.2,373.98L264.32,373.15L266.56,373.4L267.68,373.32L269.92,372.9L271.04,373.98L274.4,376.49L275.52,375.99L282.24,376.82L283.36,377.66L292.32,378.5L293.44,379.16L299.04,379.75L300.16,379.75L312.48,379.16L313.6,378.91L321.44,378.58L322.56,377.49L325.92,376.99L327.04,376.24L329.28,374.32L330.4,375.07L332.64,375.49L333.76,374.57L334.88,373.98L336,374.49L338.24,374.23L339.36,373.98L340.48,372.9L341.6,372.9L343.84,372.15L344.96,371.48L348.32,370.98L349.44,369.64L351.68,366.13L352.8,365.71L355.04,364.71L356.16,364.21L357.28,364.29L358.4,365.55L360.64,367.97L361.76,368.64L362.88,368.55L364,369.72L365.12,369.72L366.24,370.56L368.48,370.47L369.6,370.98L371.84,371.14L372.96,372.9L377.44,374.82L378.56,375.15L384.16,373.57L385.28,374.15L386.4,373.98L387.52,375.32L394.24,378.08L395.36,377.91L397.6,377.83L398.72,377.74L402.08,377.91L403.2,376.99L404.32,375.57L405.44,375.74L409.92,376.07L411.04,376.91L413.28,378.41L414.4,378.91L425.6,378.33L426.72,379.08L430.08,379.67L431.2,379.33L441.28,377.08L442.4,377.66L445.76,376.32L446.88,376.07L449.12,375.32L450.24,373.32L452.48,370.81L453.6,370.98L454.72,369.56L455.84,370.06L458.08,369.64L459.2,370.39L460.32,371.06L461.44,369.39L462.56,369.89L463.68,367.63L464.8,367.47L465.92,365.55L470.4,356.69L471.52,356.69L474.88,357.94L476,357.44L477.12,357.11L478.24,355.52L481.6,355.44L482.72,353.35L483.84,352.51L484.96,353.76L487.2,356.77L488.32,356.77L489.44,354.01L490.56,354.1L491.68,355.1L492.8,353.76L496.16,350.76L497.28,350.34L498.4,347.83L499.52,340.81L501.76,322.52L502.88,325.02L504,322.52L505.12,308.31L508.48,264.86L509.6,250.41L510.72,249.74L511.84,247.74L514.08,215.23L515.2,209.38L517.44,207.46L518.56,185.66L519.68,187.41L520.8,200.95L521.92,195.51L523.04,195.1L526.4,182.06L527.52,178.89L528.64,157L529.76,154.74L532,131.93L533.12,122.82L536.48,87.31L537.6,63.17L539.84,22.39L540.96,6.27L542.08,0L543.2,2.42L544.32,3.43L545.44,9.27L547.68,38.02L548.8,49.38L549.92,60.66L551.04,60.16L554.4,98.84L555.52,118.65L557.76,150.31L558.88,154.82L562.24,219.24L563.36,228.1L565.6,245.73L566.72,247.57L568.96,263.69L570.08,266.62L571.2,271.38L572.32,272.63L573.44,274.97L574.56,273.64L575.68,279.65L576.8,280.4L579.04,287.42L580.16,289.34L582.4,292.1L583.52,288.84L584.64,290.93L585.76,286L590.24,270.04L591.36,260.18L595.84,213.48L596.96,209.47L598.08,210.22L599.2,195.77L601.44,186.91L602.56,185.57L603.68,182.73L604.8,183.32L605.92,181.9L607.04,184.65L608.16,180.64L609.28,183.65L613.76,199.44L614.88,201.7L616,200.86L617.12,196.1L620.48,174.63L621.6,172.2L622.72,170.03L623.84,171.53L624.96,172.7L626.08,178.14L628.32,194.93L629.44,196.18L630.56,235.12L631.68,234.53L635.04,260.94L636.16,266.45L637.28,267.45L638.4,251.75L639.52,273.05L640.64,279.74L642.88,294.27L644,296.86L645.12,298.62L646.24,302.3L651.84,327.03L652.96,326.78L654.08,336.39L655.2,339.14L657.44,343.4L658.56,345.41L660.8,348.75L661.92,349.5L665.28,358.28L666.4,359.28L668.64,358.61L669.76,361.37L673.12,365.21L674.24,365.46L676.48,366.46L677.6,365.21L680.96,360.78" style="vector-effect: non-scaling-stroke; fill: none; stroke: rgb(8, 115, 191); stroke-opacity: 1; stroke-width: 0.5px; opacity: 1;"/></g><g class="points"/><g class="text"/></g><g class="trace scatter tracebe5aca" style="stroke-miterlimit: 2;"><g class="fills"><g><path class="js-fill" d="M692.16,380L680.96,380L680.96,360.78L684.32,360.62L685.44,364.54L686.56,360.78L687.68,360.36L688.8,360.53L689.92,358.53L691.04,355.85L692.16,356.19" style="fill: rgb(8, 115, 191); fill-opacity: 0.4; stroke-width: 0;"/></g></g><g class="errorbars"/><g class="lines"><path class="js-line" d="M680.96,360.78L684.32,360.62L685.44,364.54L686.56,360.78L687.68,360.36L688.8,360.53L689.92,358.53L691.04,355.85L692.16,356.19" style="vector-effect: non-scaling-stroke; fill: none; stroke: rgb(8, 115, 191); stroke-opacity: 1; stroke-width: 2px; opacity: 1;"/></g><g class="points"/><g class="text"/></g><g class="trace scatter trace4a00ef" style="stroke-miterlimit: 2; opacity: 1;"><g class="fills"/><g class="errorbars"/><g class="lines"/><g class="points"><path class="point" transform="translate(692.16,356.19)" d="M15,0A15,15 0 1,1 0,-15A15,15 0 0,1 15,0Z" style="opacity: 1; stroke-width: 0px; fill: rgb(8, 115, 191); fill-opacity: 1;"/></g><g class="text"/></g></g></g><g class="overplot"/><path class="xlines-above crisp" style="fill: none; stroke-width: 1px; stroke: rgb(0, 0, 0); stroke-opacity: 0;" d=""/><path class="ylines-above crisp" style="fill: none;" d="M0,0"/><g class="overlines-above"/><g class="xaxislayer-above"><path class="xtick ticks crisp" d="M0,450v-5" transform="translate(52.24,0)" style="stroke: rgb(68, 68, 68); stroke-opacity: 1; stroke-width: 1px;"/><path class="xtick ticks crisp" d="M0,450v-5" transform="translate(155.28,0)" style="stroke: rgb(68, 68, 68); stroke-opacity: 1; stroke-width: 1px;"/><path class="xtick ticks crisp" d="M0,450v-5" transform="translate(256.08000000000004,0)" style="stroke: rgb(68, 68, 68); stroke-opacity: 1; stroke-width: 1px;"/><path class="xtick ticks crisp" d="M0,450v-5" transform="translate(358,0)" style="stroke: rgb(68, 68, 68); stroke-opacity: 1; stroke-width: 1px;"/><path class="xtick ticks crisp" d="M0,450v-5" transform="translate(461.04,0)" style="stroke: rgb(68, 68, 68); stroke-opacity: 1; stroke-width: 1px;"/><path class="xtick ticks crisp" d="M0,450v-5" transform="translate(564.08,0)" style="stroke: rgb(68, 68, 68); stroke-opacity: 1; stroke-width: 1px;"/><path class="xtick ticks crisp" d="M0,450v-5" transform="translate(664.88,0)" style="stroke: rgb(68, 68, 68); stroke-opacity: 1; stroke-width: 1px;"/><g class="xtick"><text text-anchor="middle" x="0" y="469" transform="translate(52.24,0)" style="font-family: 'Open Sans', verdana, arial, sans-serif; font-size: 18px; fill: rgb(42, 63, 95); fill-opacity: 1; white-space: pre;">01/10</text></g><g class="xtick"><text text-anchor="middle" x="0" y="469" transform="translate(155.28,0)" style="font-family: 'Open Sans', verdana, arial, sans-serif; font-size: 18px; fill: rgb(42, 63, 95); fill-opacity: 1; white-space: pre;">01/01</text></g><g class="xtick"><text text-anchor="middle" x="0" y="469" transform="translate(256.08000000000004,0)" style="font-family: 'Open Sans', verdana, arial, sans-serif; font-size: 18px; fill: rgb(42, 63, 95); fill-opacity: 1; white-space: pre;">01/04</text></g><g class="xtick"><text text-anchor="middle" x="0" y="469" transform="translate(358,0)" style="font-family: 'Open Sans', verdana, arial, sans-serif; font-size: 18px; fill: rgb(42, 63, 95); fill-opacity: 1; white-space: pre;">01/07</text></g><g class="xtick"><text text-anchor="middle" x="0" y="469" transform="translate(461.04,0)" style="font-family: 'Open Sans', verdana, arial, sans-serif; font-size: 18px; fill: rgb(42, 63, 95); fill-opacity: 1; white-space: pre;">01/10</text></g><g class="xtick"><text text-anchor="middle" x="0" y="469" transform="translate(564.08,0)" style="font-family: 'Open Sans', verdana, arial, sans-serif; font-size: 18px; fill: rgb(42, 63, 95); fill-opacity: 1; white-space: pre;">01/01</text></g><g class="xtick"><text text-anchor="middle" x="0" y="469" transform="translate(664.88,0)" style="font-family: 'Open Sans', verdana, arial, sans-serif; font-size: 18px; fill: rgb(42, 63, 95); fill-opacity: 1; white-space: pre;">01/04</text></g></g><g class="yaxislayer-above"/><g class="overaxes-above"/></g></g><g class="polarlayer"/><g class="ternarylayer"/><g class="geolayer"/><g class="funnelarealayer"/><g class="pielayer"/><g class="treemaplayer"/><g class="sunburstlayer"/><g class="glimages"/><defs id="topdefs-2589ea"><g class="clips"/></defs><g class="layer-above"><g class="imagelayer"/><g class="shapelayer"><path data-index="0" fill-rule="evenodd" d="M-579.44,444.03L239.28,444.03" clip-path="url('#clip2589eaxy')" style="opacity: 1; stroke: rgb(255, 0, 0); stroke-opacity: 1; fill: rgb(0, 0, 0); fill-opacity: 0; stroke-dasharray: 3px, 3px; stroke-width: 1.5px;"/></g></g><g class="infolayer"><g class="g-gtitle"><text class="gtitle" x="375" y="25" text-anchor="middle" dy="0.7em" style="font-family: 'Open Sans', verdana, arial, sans-serif; font-size: 50px; fill: rgb(42, 63, 95); opacity: 1; font-weight: normal; white-space: pre;"><tspan style="font-weight:bold">Cantal (15)</tspan></text></g><g class="g-xtitle"/><g class="annotation" data-index="0" style="opacity: 1;"><g class="annotation-text-g" transform="rotate(0,700.16,366.19)"><g class="cursor-pointer" transform="translate(642, 330)"><rect class="bg" x="0.5" y="0.5" width="115" height="71" style="stroke-width: 1px; stroke: rgb(0, 0, 0); stroke-opacity: 0; fill: rgb(255, 255, 255); fill-opacity: 0.6;"/><text class="annotation-text" text-anchor="middle" x="57.8125" y="55.5" style="font-family: 'Open Sans', verdana, arial, sans-serif; font-size: 50px; fill: rgb(8, 115, 191); fill-opacity: 1; white-space: pre;"> <tspan style="font-weight:bold">199 </tspan></text></g></g><g class="annotation-arrow-g" style="opacity: 1;"><path d="M728.56,401.69L740.16,416.19" style="stroke-width: 1px; stroke: rgb(8, 115, 191); stroke-opacity: 1; stroke-dasharray: 0px, 0px, 18.569px, 18.569px;"/></g></g></g></svg>