<svg class="main-svg" xmlns="http://www.w3.org/2000/svg" xmlns:xlink="http://www.w3.org/1999/xlink" width="1125" height="750" style="" viewBox="0 0 750 500"><rect x="0" y="0" width="750" height="500" style="fill: rgb(0, 0, 0); fill-opacity: 0;"/><defs id="defs-446abb"><g class="clips"><clipPath id="clip446abbxyplot" class="plotclip"><rect width="700" height="380"/></clipPath><clipPath class="axesclip" id="clip446abbx"><rect x="50" y="0" width="700" height="500"/></clipPath><clipPath class="axesclip" id="clip446abby"><rect x="0" y="70" width="750" height="380"/></clipPath><clipPath class="axesclip" id="clip446abbxy"><rect x="50" y="70" width="700" height="380"/></clipPath></g><g class="gradients"/></defs><g class="bglayer"><rect class="bg" x="50" y="70" width="700" height="380" style="fill: rgb(0, 0, 0); fill-opacity: 0; stroke-width: 0;"/></g><g class="layer-below"><g class="imagelayer"/><g class="shapelayer"/></g><g class="cartesianlayer"><g class="subplot xy"><g class="layer-subplot"><g class="shapelayer"/><g class="imagelayer"/></g><g class="gridlayer"><g class="x"><path class="xgrid crisp" transform="translate(102.25999999999999,0)" d="M0,70v380" style="stroke: rgb(255, 255, 255); stroke-opacity: 1; stroke-width: 1px;"/><path class="xgrid crisp" transform="translate(198.87,0)" d="M0,70v380" style="stroke: rgb(255, 255, 255); stroke-opacity: 1; stroke-width: 1px;"/><path class="xgrid crisp" transform="translate(292.31,0)" d="M0,70v380" style="stroke: rgb(255, 255, 255); stroke-opacity: 1; stroke-width: 1px;"/><path class="xgrid crisp" transform="translate(388.91,0)" d="M0,70v380" style="stroke: rgb(255, 255, 255); stroke-opacity: 1; stroke-width: 1px;"/><path class="xgrid crisp" transform="translate(485.52,0)" d="M0,70v380" style="stroke: rgb(255, 255, 255); stroke-opacity: 1; stroke-width: 1px;"/><path class="xgrid crisp" transform="translate(583.71,0)" d="M0,70v380" style="stroke: rgb(255, 255, 255); stroke-opacity: 1; stroke-width: 1px;"/><path class="xgrid crisp" transform="translate(680.32,0)" d="M0,70v380" style="stroke: rgb(255, 255, 255); stroke-opacity: 1; stroke-width: 1px;"/></g><g class="y"/></g><g class="zerolinelayer"/><path class="xlines-below"/><path class="ylines-below"/><g class="overlines-below"/><g class="xaxislayer-below"/><g class="yaxislayer-below"/><g class="overaxes-below"/><g class="plot" transform="translate(50, 70)" clip-path="url('#clip446abbxyplot')"><g class="scatterlayer mlayer"><g class="trace scatter tracea239a1" style="stroke-miterlimit: 2;"><g class="fills"><g><path class="js-fill" d="M673.08,380L-215.38,380L-215.38,376.68L-164.71,378.74L-163.12,378.83L-101.36,377.13L-99.77,376.95L-80.77,375.69L-79.19,375.06L-76.02,373.9L-74.43,373.63L-68.1,371.57L-66.52,371.66L-60.18,371.3L-58.6,369.95L-49.1,362.77L-47.51,362.59L-45.93,363.31L-44.34,361.34L-41.18,360.35L-39.59,360.26L-34.84,354.97L-33.26,356.04L-30.09,356.04L-28.51,353.26L-26.92,352.18L-25.34,349.67L-22.17,345.19L-20.59,345.01L-17.42,345.99L-15.84,347.25L-12.67,348.51L-11.09,350.75L-4.75,353.26L-3.17,353.17L-1.58,355.5L0,355.68L1.58,354.34L3.17,354.34L7.92,352.27L9.5,348.42L12.67,341.78L14.25,340.97L22.17,302.65L23.76,294.31L25.34,293.68L26.92,278.25L28.51,264.88L30.09,243.88L33.26,201.44L34.84,196.51L36.43,194.71L38.01,169.77L41.18,130.64L42.76,115.39L45.93,67.66L47.51,67.48L50.68,8.79L52.26,1.17L53.85,0L55.43,14.63L57.01,29.34L58.6,29.16L61.76,73.58L63.35,128.94L64.93,129.66L66.52,133.96L68.1,147.87L69.68,149.13L72.85,195.16L74.43,176.77L77.6,224.95L79.19,227.19L80.77,227.55L82.35,243.07L83.94,254.38L85.52,258.24L87.1,266.04L88.69,268.47L91.86,269.45L93.44,271.79L95.02,270.35L96.61,270.62L101.36,267.48L102.94,267.57L104.52,258.42L106.11,260.75L109.28,252.41L110.86,254.11L112.44,250.16L114.03,249.53L115.61,253.57L117.19,245.05L120.36,240.2L121.95,231.95L123.53,232.58L125.11,231.95L128.28,221.99L129.86,222.62L131.45,225.85L133.03,252.23L134.62,247.29L136.2,249.18L137.78,251.42L139.37,251.69L140.95,242.81L142.53,239.4L144.12,239.4L145.7,238.32L147.29,237.78L148.87,228.27L150.45,228.81L152.04,238.86L153.62,237.15L155.2,213.02L156.79,221.9L158.37,221.9L161.54,245.95L163.12,249.36L166.29,260.93L167.87,257.43L169.46,257.79L171.04,258.96L172.62,253.39L174.21,254.29L175.79,250.7L177.38,249L178.96,252.05L180.54,252.32L183.71,261.65L185.29,266.22L186.88,272.06L188.46,274.39L191.63,273.49L193.21,277.53L201.13,295.39L202.71,296.46L205.88,305.17L207.47,305.53L209.05,306.6L210.63,309.29L215.38,309.2L216.97,306.69L220.14,304.99L221.72,305.53L223.3,306.6L224.89,306.06L226.47,305.08L228.05,301.85L229.64,301.13L231.22,297.63L232.81,295.66L234.39,291.08L235.97,291.62L237.56,290L239.14,291.8L240.72,288.3L242.31,287.94L243.89,284.89L245.48,286.5L247.06,286.23L250.23,276L251.81,273.04L253.39,270.08L254.98,265.06L256.56,262.01L258.14,261.83L259.73,260.12L261.31,259.58L264.48,260.3L266.06,260.93L267.65,258.15L269.23,258.06L272.4,235.9L273.98,229.35L277.15,208.44L278.73,204.22L280.32,203.5L281.9,196.6L285.07,174.61L286.65,173.45L288.24,169.59L289.82,168.42L291.4,167.34L292.99,206.91L294.57,198.93L296.15,202.61L297.74,201.17L299.32,201.62L302.49,202.43L304.07,170.04L307.24,198.57L308.82,204.13L311.99,218.31L313.57,219.48L315.16,221.54L316.74,222.35L318.33,223.87L319.91,233.56L321.49,235.99L323.08,233.56L324.66,233.92L326.24,240.29L327.83,252.59L329.41,255.1L331,256.53L332.58,264.97L334.16,279.86L335.75,279.86L337.33,280.94L338.91,279.77L340.5,283L342.08,284.35L343.67,287.85L345.25,288.3L346.83,287.94L348.42,298.62L351.58,309.56L353.17,324.64L354.75,324.28L356.33,317.82L361.09,320.69L362.67,319.79L364.25,312.26L365.84,314.77L367.42,316.47L369,316.38L370.59,332L372.17,328.68L378.51,336.48L380.09,336.03L381.67,328.23L383.26,336.84L384.84,340.79L386.43,342.13L388.01,346.35L389.59,347.88L391.18,348.6L392.76,352.18L397.51,359.36L399.1,359.9L400.68,360.8L402.26,360.62L403.85,364.21L405.43,364.66L411.76,372.73L413.35,373L416.52,374.89L418.1,374.44L421.27,374.8L422.85,374.98L429.19,376.23L430.77,375.6L433.94,374.89L435.52,374.8L438.69,373.9L440.27,373.63L441.86,374.26L443.44,373.9L448.19,372.37L449.77,371.03L451.36,371.83L452.94,370.58L457.69,365.82L459.28,361.34L460.86,355.23L462.44,344.83L465.61,332.26L467.19,328.23L468.78,328.32L470.36,321.41L473.53,317.1L475.11,315.22L476.7,310.28L478.28,310.37L481.45,309.2L483.03,310.64L484.62,307.77L486.2,306.87L487.78,307.32L489.37,304L490.95,303.64L492.53,300.95L494.12,296.28L495.7,295.03L497.29,291.71L498.87,291.08L502.04,289.28L503.62,285.87L505.2,284.98L506.79,290.81L508.37,293.14L509.95,293.77L511.54,296.91L513.12,297.54L514.71,300.68L516.29,302.03L521.04,309.38L522.62,313.06L524.21,313.69L525.79,318.18L527.38,324.73L528.96,324.28L532.13,329.93L533.71,329.12L535.29,329.57L536.88,332.98L538.46,333.43L540.05,335.49L541.63,337.83L543.21,338.01L544.8,340.25L546.38,340.88L555.88,353.08L557.47,352.54L559.05,354.88L560.63,354.52L562.22,355.32L563.8,354.25L565.38,356.22L566.97,355.15L570.14,355.5L571.72,358.38L574.89,360.08L576.47,360.89L578.05,362.5L579.64,362.77L581.22,364.03L582.81,364.21L585.97,366.54L587.56,366.36L592.31,366.09L593.89,364.84L595.48,363.13L597.06,362.77L601.81,361.79L603.39,362.59L604.98,362.95L606.56,364.3L608.14,362.77L609.73,363.13L611.31,363.76L612.9,363.58L614.48,361.7L616.06,361.79L617.65,361.34L619.23,361.79L620.81,360.35L622.4,357.39L623.98,357.39L625.57,360.8L628.73,351.38L630.32,348.24L631.9,344.65L633.48,342.94L635.07,342.58L636.65,333.79L638.24,334.69L639.82,334.33L641.4,340.52L642.99,339.08L646.15,336.57L647.74,330.47L650.9,317.01L652.49,301.67L655.66,285.61L657.24,284.62L666.74,196.06L668.33,194.71L673.08,124.9" style="fill: rgb(8, 115, 191); fill-opacity: 0.2; stroke-width: 0;"/></g></g><g class="errorbars"/><g class="lines"><path class="js-line" d="M-215.38,376.68L-164.71,378.74L-163.12,378.83L-101.36,377.13L-99.77,376.95L-80.77,375.69L-79.19,375.06L-76.02,373.9L-74.43,373.63L-68.1,371.57L-66.52,371.66L-60.18,371.3L-58.6,369.95L-49.1,362.77L-47.51,362.59L-45.93,363.31L-44.34,361.34L-41.18,360.35L-39.59,360.26L-34.84,354.97L-33.26,356.04L-30.09,356.04L-28.51,353.26L-26.92,352.18L-25.34,349.67L-22.17,345.19L-20.59,345.01L-17.42,345.99L-15.84,347.25L-12.67,348.51L-11.09,350.75L-4.75,353.26L-3.17,353.17L-1.58,355.5L0,355.68L1.58,354.34L3.17,354.34L7.92,352.27L9.5,348.42L12.67,341.78L14.25,340.97L22.17,302.65L23.76,294.31L25.34,293.68L26.92,278.25L28.51,264.88L30.09,243.88L33.26,201.44L34.84,196.51L36.43,194.71L38.01,169.77L41.18,130.64L42.76,115.39L45.93,67.66L47.51,67.48L50.68,8.79L52.26,1.17L53.85,0L55.43,14.63L57.01,29.34L58.6,29.16L61.76,73.58L63.35,128.94L64.93,129.66L66.52,133.96L68.1,147.87L69.68,149.13L72.85,195.16L74.43,176.77L77.6,224.95L79.19,227.19L80.77,227.55L82.35,243.07L83.94,254.38L85.52,258.24L87.1,266.04L88.69,268.47L91.86,269.45L93.44,271.79L95.02,270.35L96.61,270.62L101.36,267.48L102.94,267.57L104.52,258.42L106.11,260.75L109.28,252.41L110.86,254.11L112.44,250.16L114.03,249.53L115.61,253.57L117.19,245.05L120.36,240.2L121.95,231.95L123.53,232.58L125.11,231.95L128.28,221.99L129.86,222.62L131.45,225.85L133.03,252.23L134.62,247.29L136.2,249.18L137.78,251.42L139.37,251.69L140.95,242.81L142.53,239.4L144.12,239.4L145.7,238.32L147.29,237.78L148.87,228.27L150.45,228.81L152.04,238.86L153.62,237.15L155.2,213.02L156.79,221.9L158.37,221.9L161.54,245.95L163.12,249.36L166.29,260.93L167.87,257.43L169.46,257.79L171.04,258.96L172.62,253.39L174.21,254.29L175.79,250.7L177.38,249L178.96,252.05L180.54,252.32L183.71,261.65L185.29,266.22L186.88,272.06L188.46,274.39L191.63,273.49L193.21,277.53L201.13,295.39L202.71,296.46L205.88,305.17L207.47,305.53L209.05,306.6L210.63,309.29L215.38,309.2L216.97,306.69L220.14,304.99L221.72,305.53L223.3,306.6L224.89,306.06L226.47,305.08L228.05,301.85L229.64,301.13L231.22,297.63L232.81,295.66L234.39,291.08L235.97,291.62L237.56,290L239.14,291.8L240.72,288.3L242.31,287.94L243.89,284.89L245.48,286.5L247.06,286.23L250.23,276L251.81,273.04L253.39,270.08L254.98,265.06L256.56,262.01L258.14,261.83L259.73,260.12L261.31,259.58L264.48,260.3L266.06,260.93L267.65,258.15L269.23,258.06L272.4,235.9L273.98,229.35L277.15,208.44L278.73,204.22L280.32,203.5L281.9,196.6L285.07,174.61L286.65,173.45L288.24,169.59L289.82,168.42L291.4,167.34L292.99,206.91L294.57,198.93L296.15,202.61L297.74,201.17L299.32,201.62L302.49,202.43L304.07,170.04L307.24,198.57L308.82,204.13L311.99,218.31L313.57,219.48L315.16,221.54L316.74,222.35L318.33,223.87L319.91,233.56L321.49,235.99L323.08,233.56L324.66,233.92L326.24,240.29L327.83,252.59L329.41,255.1L331,256.53L332.58,264.97L334.16,279.86L335.75,279.86L337.33,280.94L338.91,279.77L340.5,283L342.08,284.35L343.67,287.85L345.25,288.3L346.83,287.94L348.42,298.62L351.58,309.56L353.17,324.64L354.75,324.28L356.33,317.82L361.09,320.69L362.67,319.79L364.25,312.26L365.84,314.77L367.42,316.47L369,316.38L370.59,332L372.17,328.68L378.51,336.48L380.09,336.03L381.67,328.23L383.26,336.84L384.84,340.79L386.43,342.13L388.01,346.35L389.59,347.88L391.18,348.6L392.76,352.18L397.51,359.36L399.1,359.9L400.68,360.8L402.26,360.62L403.85,364.21L405.43,364.66L411.76,372.73L413.35,373L416.52,374.89L418.1,374.44L421.27,374.8L422.85,374.98L429.19,376.23L430.77,375.6L433.94,374.89L435.52,374.8L438.69,373.9L440.27,373.63L441.86,374.26L443.44,373.9L448.19,372.37L449.77,371.03L451.36,371.83L452.94,370.58L457.69,365.82L459.28,361.34L460.86,355.23L462.44,344.83L465.61,332.26L467.19,328.23L468.78,328.32L470.36,321.41L473.53,317.1L475.11,315.22L476.7,310.28L478.28,310.37L481.45,309.2L483.03,310.64L484.62,307.77L486.2,306.87L487.78,307.32L489.37,304L490.95,303.64L492.53,300.95L494.12,296.28L495.7,295.03L497.29,291.71L498.87,291.08L502.04,289.28L503.62,285.87L505.2,284.98L506.79,290.81L508.37,293.14L509.95,293.77L511.54,296.91L513.12,297.54L514.71,300.68L516.29,302.03L521.04,309.38L522.62,313.06L524.21,313.69L525.79,318.18L527.38,324.73L528.96,324.28L532.13,329.93L533.71,329.12L535.29,329.57L536.88,332.98L538.46,333.43L540.05,335.49L541.63,337.83L543.21,338.01L544.8,340.25L546.38,340.88L555.88,353.08L557.47,352.54L559.05,354.88L560.63,354.52L562.22,355.32L563.8,354.25L565.38,356.22L566.97,355.15L570.14,355.5L571.72,358.38L574.89,360.08L576.47,360.89L578.05,362.5L579.64,362.77L581.22,364.03L582.81,364.21L585.97,366.54L587.56,366.36L592.31,366.09L593.89,364.84L595.48,363.13L597.06,362.77L601.81,361.79L603.39,362.59L604.98,362.95L606.56,364.3L608.14,362.77L609.73,363.13L611.31,363.76L612.9,363.58L614.48,361.7L616.06,361.79L617.65,361.34L619.23,361.79L620.81,360.35L622.4,357.39L623.98,357.39L625.57,360.8L628.73,351.38L630.32,348.24L631.9,344.65L633.48,342.94L635.07,342.58L636.65,333.79L638.24,334.69L639.82,334.33L641.4,340.52L642.99,339.08L646.15,336.57L647.74,330.47L650.9,317.01L652.49,301.67L655.66,285.61L657.24,284.62L666.74,196.06L668.33,194.71L673.08,124.9" style="vector-effect: non-scaling-stroke; fill: none; stroke: rgb(8, 115, 191); stroke-opacity: 1; stroke-width: 0.5px; opacity: 1;"/></g><g class="points"/><g class="text"/></g><g class="trace scatter trace4bcab2" style="stroke-miterlimit: 2;"><g class="fills"><g><path class="js-fill" d="M688.91,380L673.08,380L673.08,124.9L676.24,88.74L677.83,76.36L679.41,74.38L681,55.18L684.16,29.16L685.75,23.15L688.91,31.14" style="fill: rgb(8, 115, 191); fill-opacity: 0.4; stroke-width: 0;"/></g></g><g class="errorbars"/><g class="lines"><path class="js-line" d="M673.08,124.9L676.24,88.74L677.83,76.36L679.41,74.38L681,55.18L684.16,29.16L685.75,23.15L688.91,31.14" style="vector-effect: non-scaling-stroke; fill: none; stroke: rgb(8, 115, 191); stroke-opacity: 1; stroke-width: 2px; opacity: 1;"/></g><g class="points"/><g class="text"/></g><g class="trace scatter tracebab96d" style="stroke-miterlimit: 2; opacity: 1;"><g class="fills"/><g class="errorbars"/><g class="lines"/><g class="points"><path class="point" transform="translate(688.91,31.14)" d="M15,0A15,15 0 1,1 0,-15A15,15 0 0,1 15,0Z" style="opacity: 1; stroke-width: 0px; fill: rgb(8, 115, 191); fill-opacity: 1;"/></g><g class="text"/></g></g></g><g class="overplot"/><path class="xlines-above crisp" style="fill: none; stroke-width: 1px; stroke: rgb(0, 0, 0); stroke-opacity: 0;" d=""/><path class="ylines-above crisp" style="fill: none;" d="M0,0"/><g class="overlines-above"/><g class="xaxislayer-above"><path class="xtick ticks crisp" d="M0,450v-5" transform="translate(102.25999999999999,0)" style="stroke: rgb(68, 68, 68); stroke-opacity: 1; stroke-width: 1px;"/><path class="xtick ticks crisp" d="M0,450v-5" transform="translate(198.87,0)" style="stroke: rgb(68, 68, 68); stroke-opacity: 1; stroke-width: 1px;"/><path class="xtick ticks crisp" d="M0,450v-5" transform="translate(292.31,0)" style="stroke: rgb(68, 68, 68); stroke-opacity: 1; stroke-width: 1px;"/><path class="xtick ticks crisp" d="M0,450v-5" transform="translate(388.91,0)" style="stroke: rgb(68, 68, 68); stroke-opacity: 1; stroke-width: 1px;"/><path class="xtick ticks crisp" d="M0,450v-5" transform="translate(485.52,0)" style="stroke: rgb(68, 68, 68); stroke-opacity: 1; stroke-width: 1px;"/><path class="xtick ticks crisp" d="M0,450v-5" transform="translate(583.71,0)" style="stroke: rgb(68, 68, 68); stroke-opacity: 1; stroke-width: 1px;"/><path class="xtick ticks crisp" d="M0,450v-5" transform="translate(680.32,0)" style="stroke: rgb(68, 68, 68); stroke-opacity: 1; stroke-width: 1px;"/><g class="xtick"><text text-anchor="middle" x="0" y="469" transform="translate(102.25999999999999,0)" style="font-family: 'Open Sans', verdana, arial, sans-serif; font-size: 18px; fill: rgb(42, 63, 95); fill-opacity: 1; white-space: pre;">01/11</text></g><g class="xtick"><text text-anchor="middle" x="0" y="469" transform="translate(198.87,0)" style="font-family: 'Open Sans', verdana, arial, sans-serif; font-size: 18px; fill: rgb(42, 63, 95); fill-opacity: 1; white-space: pre;">01/01</text></g><g class="xtick"><text text-anchor="middle" x="0" y="469" transform="translate(292.31,0)" style="font-family: 'Open Sans', verdana, arial, sans-serif; font-size: 18px; fill: rgb(42, 63, 95); fill-opacity: 1; white-space: pre;">01/03</text></g><g class="xtick"><text text-anchor="middle" x="0" y="469" transform="translate(388.91,0)" style="font-family: 'Open Sans', verdana, arial, sans-serif; font-size: 18px; fill: rgb(42, 63, 95); fill-opacity: 1; white-space: pre;">01/05</text></g><g class="xtick"><text text-anchor="middle" x="0" y="469" transform="translate(485.52,0)" style="font-family: 'Open Sans', verdana, arial, sans-serif; font-size: 18px; fill: rgb(42, 63, 95); fill-opacity: 1; white-space: pre;">01/07</text></g><g class="xtick"><text text-anchor="middle" x="0" y="469" transform="translate(583.71,0)" style="font-family: 'Open Sans', verdana, arial, sans-serif; font-size: 18px; fill: rgb(42, 63, 95); fill-opacity: 1; white-space: pre;">01/09</text></g><g class="xtick"><text text-anchor="middle" x="0" y="469" transform="translate(680.32,0)" style="font-family: 'Open Sans', verdana, arial, sans-serif; font-size: 18px; fill: rgb(42, 63, 95); fill-opacity: 1; white-space: pre;">01/11</text></g></g><g class="yaxislayer-above"/><g class="overaxes-above"/></g></g><g class="polarlayer"/><g class="ternarylayer"/><g class="geolayer"/><g class="funnelarealayer"/><g class="pielayer"/><g class="treemaplayer"/><g class="sunburstlayer"/><g class="glimages"/><defs id="topdefs-446abb"><g class="clips"/></defs><g class="layer-above"><g class="imagelayer"/><g class="shapelayer"><path data-index="0" fill-rule="evenodd" d="M-840.05,425.8L317.65,425.8" clip-path="url('#clip446abbxy')" style="opacity: 1; stroke: rgb(255, 0, 0); stroke-opacity: 1; fill: rgb(0, 0, 0); fill-opacity: 0; stroke-dasharray: 3px, 3px; stroke-width: 1.5px;"/></g></g><g class="infolayer"><g class="g-gtitle"><text class="gtitle" x="375" y="25" text-anchor="middle" dy="0.7em" style="font-family: 'Open Sans', verdana, arial, sans-serif; font-size: 50px; fill: rgb(42, 63, 95); opacity: 1; font-weight: normal; white-space: pre;"><tspan style="font-weight:bold">Doubs (25)</tspan></text></g><g class="g-xtitle"/><g class="annotation" data-index="0" style="opacity: 1;"><g class="annotation-text-g" transform="rotate(0,696.91,41.14)"><g class="cursor-pointer" transform="translate(639, 5)"><rect class="bg" x="0.5" y="0.5" width="115" height="71" style="stroke-width: 1px; stroke: rgb(0, 0, 0); stroke-opacity: 0; fill: rgb(255, 255, 255); fill-opacity: 0.6;"/><text class="annotation-text" text-anchor="middle" x="57.8125" y="55.5" style="font-family: 'Open Sans', verdana, arial, sans-serif; font-size: 50px; fill: rgb(8, 115, 191); fill-opacity: 1; white-space: pre;"> <tspan style="font-weight:bold">720 </tspan></text></g></g><g class="annotation-arrow-g" style="opacity: 1;"><path d="M725.31,76.64L736.91,91.14" style="stroke-width: 1px; stroke: rgb(8, 115, 191); stroke-opacity: 1; stroke-dasharray: 0px, 0px, 18.569px, 18.569px;"/></g></g></g></svg>