<svg class="main-svg" xmlns="http://www.w3.org/2000/svg" xmlns:xlink="http://www.w3.org/1999/xlink" width="1125" height="750" style="" viewBox="0 0 750 500"><rect x="0" y="0" width="750" height="500" style="fill: rgb(0, 0, 0); fill-opacity: 0;"/><defs id="defs-5ba548"><g class="clips"><clipPath id="clip5ba548xyplot" class="plotclip"><rect width="700" height="380"/></clipPath><clipPath class="axesclip" id="clip5ba548x"><rect x="50" y="0" width="700" height="500"/></clipPath><clipPath class="axesclip" id="clip5ba548y"><rect x="0" y="70" width="750" height="380"/></clipPath><clipPath class="axesclip" id="clip5ba548xy"><rect x="50" y="70" width="700" height="380"/></clipPath></g><g class="gradients"/></defs><g class="bglayer"><rect class="bg" x="50" y="70" width="700" height="380" style="fill: rgb(0, 0, 0); fill-opacity: 0; stroke-width: 0;"/></g><g class="layer-below"><g class="imagelayer"/><g class="shapelayer"/></g><g class="cartesianlayer"><g class="subplot xy"><g class="layer-subplot"><g class="shapelayer"/><g class="imagelayer"/></g><g class="gridlayer"><g class="x"><path class="xgrid crisp" transform="translate(92.31,0)" d="M0,70v380" style="stroke: rgb(255, 255, 255); stroke-opacity: 1; stroke-width: 1px;"/><path class="xgrid crisp" transform="translate(170.51,0)" d="M0,70v380" style="stroke: rgb(255, 255, 255); stroke-opacity: 1; stroke-width: 1px;"/><path class="xgrid crisp" transform="translate(246.15,0)" d="M0,70v380" style="stroke: rgb(255, 255, 255); stroke-opacity: 1; stroke-width: 1px;"/><path class="xgrid crisp" transform="translate(324.36,0)" d="M0,70v380" style="stroke: rgb(255, 255, 255); stroke-opacity: 1; stroke-width: 1px;"/><path class="xgrid crisp" transform="translate(402.56,0)" d="M0,70v380" style="stroke: rgb(255, 255, 255); stroke-opacity: 1; stroke-width: 1px;"/><path class="xgrid crisp" transform="translate(482.05,0)" d="M0,70v380" style="stroke: rgb(255, 255, 255); stroke-opacity: 1; stroke-width: 1px;"/><path class="xgrid crisp" transform="translate(560.26,0)" d="M0,70v380" style="stroke: rgb(255, 255, 255); stroke-opacity: 1; stroke-width: 1px;"/><path class="xgrid crisp" transform="translate(638.46,0)" d="M0,70v380" style="stroke: rgb(255, 255, 255); stroke-opacity: 1; stroke-width: 1px;"/><path class="xgrid crisp" transform="translate(714.1,0)" d="M0,70v380" style="stroke: rgb(255, 255, 255); stroke-opacity: 1; stroke-width: 1px;"/></g><g class="y"/></g><g class="zerolinelayer"/><path class="xlines-below"/><path class="ylines-below"/><g class="overlines-below"/><g class="xaxislayer-below"/><g class="yaxislayer-below"/><g class="overaxes-below"/><g class="plot" transform="translate(50, 70)" clip-path="url('#clip5ba548xyplot')"><g class="scatterlayer mlayer"><g class="trace scatter trace07c6fa" style="stroke-miterlimit: 2;"><g class="fills"><g><path class="js-fill" d="M678.21,380L-174.36,380L-174.36,379.47L-157.69,378.82L-156.41,379.25L-144.87,379.79L-143.59,379.79L-66.67,379.15L-65.38,378.18L-58.97,376.9L-57.69,376.8L-50,378.82L-48.72,379.04L-33.33,378.93L-32.05,378.29L-23.08,378.93L-21.79,378.18L-15.38,377.86L-14.1,377.65L-11.54,377.86L-10.26,378.29L2.56,376.58L3.85,375.73L10.26,370.17L11.54,370.17L16.67,365.47L17.95,364.72L20.51,364.72L21.79,363.12L24.36,356.71L25.64,350.73L28.21,340.47L29.49,340.37L30.77,337.91L32.05,332.67L35.9,323.81L37.18,326.37L38.46,326.16L39.74,323.38L41.03,323.17L42.31,324.55L43.59,324.34L44.87,327.23L47.44,325.94L48.72,326.16L50,329.15L51.28,335.99L53.85,340.9L55.13,343.25L56.41,343.78L57.69,348.91L58.97,352.12L60.26,350.51L62.82,363.23L64.1,363.98L65.38,364.4L66.67,366.01L67.95,368.46L69.23,368.78L71.79,369.53L73.08,370.81L75.64,370.92L76.92,371.56L80.77,371.99L82.05,371.35L83.33,371.45L84.62,369.96L87.18,371.35L88.46,371.13L92.31,371.03L93.59,372.84L96.15,373.16L97.44,373.27L98.72,372.63L100,373.06L102.56,373.48L103.85,372.41L106.41,372.74L107.69,374.34L110.26,373.8L111.54,374.44L119.23,371.45L120.51,369.42L124.36,366.43L125.64,363.87L128.21,364.51L129.49,363.98L130.77,364.72L132.05,364.3L135.9,362.8L137.18,362.59L141.03,360.24L142.31,357.46L143.59,354.89L144.87,354.47L148.72,354.04L150,353.61L151.28,353.51L152.56,354.25L155.13,354.04L156.41,352.33L157.69,350.83L158.97,350.62L161.54,354.47L162.82,355.11L164.1,355.22L165.38,359.27L170.51,366.97L171.79,367.71L173.08,366.86L174.36,367.29L178.21,371.13L179.49,370.06L180.77,370.06L182.05,371.13L185.9,370.6L187.18,370.81L189.74,372.2L191.03,372.31L193.59,372.74L194.87,372.74L196.15,372.74L197.44,373.59L200,372.95L201.28,374.12L203.85,374.66L205.13,374.34L206.41,374.02L207.69,374.55L211.54,374.55L212.82,373.91L215.38,373.7L216.67,374.12L220.51,373.16L221.79,374.23L224.36,373.06L225.64,372.95L229.49,373.38L230.77,371.35L232.05,372.63L233.33,371.56L235.9,371.03L237.18,371.99L238.46,370.71L239.74,371.45L241.03,370.49L242.31,370.6L243.59,368.78L244.87,368.68L247.44,360.88L248.72,358.42L251.28,356.07L252.56,357.57L253.85,357.35L255.13,359.27L257.69,362.8L258.97,363.12L260.26,363.23L261.54,362.48L262.82,362.69L264.1,361.84L265.38,363.12L266.67,363.23L270.51,366.54L271.79,366.65L274.36,368.14L275.64,370.28L276.92,370.17L278.21,371.24L282.05,371.88L283.33,372.31L284.62,371.67L285.9,373.48L289.74,373.48L291.03,374.44L294.87,371.88L296.15,372.09L298.72,371.88L300,373.06L305.13,376.69L306.41,376.9L317.95,377.65L319.23,377.54L325.64,378.4L326.92,379.04L332.05,379.68L333.33,379.68L350,379.68L351.28,378.29L356.41,377.76L357.69,377.22L358.97,376.58L360.26,377.65L369.23,377.01L370.51,376.8L376.92,375.62L378.21,375.94L382.05,375.62L383.33,375.09L387.18,375.3L388.46,375.41L392.31,376.47L393.59,375.62L394.87,375.94L396.15,375.41L400,374.34L401.28,373.48L402.56,373.8L403.85,372.84L417.95,374.12L419.23,374.87L420.51,374.23L421.79,374.87L428.21,374.98L429.49,375.94L432.05,374.98L433.33,374.87L435.9,374.02L437.18,374.23L438.46,373.91L439.74,374.55L450,376.9L451.28,376.69L456.41,377.76L457.69,377.65L464.1,377.97L465.38,377.76L467.95,378.5L469.23,378.5L473.08,377.12L474.36,377.22L478.21,375.51L479.49,375.41L482.05,376.05L483.33,375.94L493.59,376.9L494.87,376.58L496.15,376.8L497.44,375.94L498.72,373.7L500,373.16L503.85,367.82L505.13,367.5L506.41,368.14L507.69,365.79L510.26,365.04L511.54,365.58L514.1,365.68L515.38,364.08L516.67,366.01L517.95,365.79L519.23,367.29L520.51,365.9L524.36,363.12L525.64,363.01L526.92,361.73L528.21,357.46L529.49,356.6L530.77,356.71L532.05,356.6L533.33,352.54L538.46,340.47L539.74,338.76L541.03,338.87L542.31,336.84L543.59,336.95L544.87,334.06L546.15,336.73L547.44,337.48L548.72,336.84L550,337.05L551.28,339.4L552.56,338.12L557.69,345.6L558.97,345.6L562.82,352.44L564.1,351.69L566.67,353.08L567.95,352.86L569.23,352.76L570.51,351.58L574.36,346.45L575.64,348.16L576.92,347.84L578.21,332.78L580.77,307.03L582.05,291.22L583.33,269.54L584.62,267.93L585.9,263.13L587.18,246.57L589.74,208.43L591.03,200.31L592.31,195.39L593.59,174.46L594.87,173.6L596.15,161.85L597.44,162.81L598.72,155.23L600,152.34L601.28,147.53L602.56,140.7L603.85,138.56L610.26,80.55L611.54,70.72L612.82,66.45L614.1,40.38L616.67,18.38L617.95,8.87L620.51,3.74L621.79,0L624.36,8.55L625.64,16.35L630.77,44.01L632.05,58.01L638.46,128.63L639.74,131.51L642.31,178.09L643.59,191.23L646.15,205.33L647.44,207.47L648.72,210.14L650,215.8L656.41,266.54L657.69,269.11L660.26,288.55L661.54,293.04L662.82,294.32L664.1,296.78L665.38,298.49L666.67,298.81L667.95,298.27L669.23,291.76L673.08,278.94L674.36,274.02L675.64,272.42L676.92,268.79L678.21,269.22" style="fill: rgb(8, 115, 191); fill-opacity: 0.2; stroke-width: 0;"/></g></g><g class="errorbars"/><g class="lines"><path class="js-line" d="M-174.36,379.47L-157.69,378.82L-156.41,379.25L-144.87,379.79L-143.59,379.79L-66.67,379.15L-65.38,378.18L-58.97,376.9L-57.69,376.8L-50,378.82L-48.72,379.04L-33.33,378.93L-32.05,378.29L-23.08,378.93L-21.79,378.18L-15.38,377.86L-14.1,377.65L-11.54,377.86L-10.26,378.29L2.56,376.58L3.85,375.73L10.26,370.17L11.54,370.17L16.67,365.47L17.95,364.72L20.51,364.72L21.79,363.12L24.36,356.71L25.64,350.73L28.21,340.47L29.49,340.37L30.77,337.91L32.05,332.67L35.9,323.81L37.18,326.37L38.46,326.16L39.74,323.38L41.03,323.17L42.31,324.55L43.59,324.34L44.87,327.23L47.44,325.94L48.72,326.16L50,329.15L51.28,335.99L53.85,340.9L55.13,343.25L56.41,343.78L57.69,348.91L58.97,352.12L60.26,350.51L62.82,363.23L64.1,363.98L65.38,364.4L66.67,366.01L67.95,368.46L69.23,368.78L71.79,369.53L73.08,370.81L75.64,370.92L76.92,371.56L80.77,371.99L82.05,371.35L83.33,371.45L84.62,369.96L87.18,371.35L88.46,371.13L92.31,371.03L93.59,372.84L96.15,373.16L97.44,373.27L98.72,372.63L100,373.06L102.56,373.48L103.85,372.41L106.41,372.74L107.69,374.34L110.26,373.8L111.54,374.44L119.23,371.45L120.51,369.42L124.36,366.43L125.64,363.87L128.21,364.51L129.49,363.98L130.77,364.72L132.05,364.3L135.9,362.8L137.18,362.59L141.03,360.24L142.31,357.46L143.59,354.89L144.87,354.47L148.72,354.04L150,353.61L151.28,353.51L152.56,354.25L155.13,354.04L156.41,352.33L157.69,350.83L158.97,350.62L161.54,354.47L162.82,355.11L164.1,355.22L165.38,359.27L170.51,366.97L171.79,367.71L173.08,366.86L174.36,367.29L178.21,371.13L179.49,370.06L180.77,370.06L182.05,371.13L185.9,370.6L187.18,370.81L189.74,372.2L191.03,372.31L193.59,372.74L194.87,372.74L196.15,372.74L197.44,373.59L200,372.95L201.28,374.12L203.85,374.66L205.13,374.34L206.41,374.02L207.69,374.55L211.54,374.55L212.82,373.91L215.38,373.7L216.67,374.12L220.51,373.16L221.79,374.23L224.36,373.06L225.64,372.95L229.49,373.38L230.77,371.35L232.05,372.63L233.33,371.56L235.9,371.03L237.18,371.99L238.46,370.71L239.74,371.45L241.03,370.49L242.31,370.6L243.59,368.78L244.87,368.68L247.44,360.88L248.72,358.42L251.28,356.07L252.56,357.57L253.85,357.35L255.13,359.27L257.69,362.8L258.97,363.12L260.26,363.23L261.54,362.48L262.82,362.69L264.1,361.84L265.38,363.12L266.67,363.23L270.51,366.54L271.79,366.65L274.36,368.14L275.64,370.28L276.92,370.17L278.21,371.24L282.05,371.88L283.33,372.31L284.62,371.67L285.9,373.48L289.74,373.48L291.03,374.44L294.87,371.88L296.15,372.09L298.72,371.88L300,373.06L305.13,376.69L306.41,376.9L317.95,377.65L319.23,377.54L325.64,378.4L326.92,379.04L332.05,379.68L333.33,379.68L350,379.68L351.28,378.29L356.41,377.76L357.69,377.22L358.97,376.58L360.26,377.65L369.23,377.01L370.51,376.8L376.92,375.62L378.21,375.94L382.05,375.62L383.33,375.09L387.18,375.3L388.46,375.41L392.31,376.47L393.59,375.62L394.87,375.94L396.15,375.41L400,374.34L401.28,373.48L402.56,373.8L403.85,372.84L417.95,374.12L419.23,374.87L420.51,374.23L421.79,374.87L428.21,374.98L429.49,375.94L432.05,374.98L433.33,374.87L435.9,374.02L437.18,374.23L438.46,373.91L439.74,374.55L450,376.9L451.28,376.69L456.41,377.76L457.69,377.65L464.1,377.97L465.38,377.76L467.95,378.5L469.23,378.5L473.08,377.12L474.36,377.22L478.21,375.51L479.49,375.41L482.05,376.05L483.33,375.94L493.59,376.9L494.87,376.58L496.15,376.8L497.44,375.94L498.72,373.7L500,373.16L503.85,367.82L505.13,367.5L506.41,368.14L507.69,365.79L510.26,365.04L511.54,365.58L514.1,365.68L515.38,364.08L516.67,366.01L517.95,365.79L519.23,367.29L520.51,365.9L524.36,363.12L525.64,363.01L526.92,361.73L528.21,357.46L529.49,356.6L530.77,356.71L532.05,356.6L533.33,352.54L538.46,340.47L539.74,338.76L541.03,338.87L542.31,336.84L543.59,336.95L544.87,334.06L546.15,336.73L547.44,337.48L548.72,336.84L550,337.05L551.28,339.4L552.56,338.12L557.69,345.6L558.97,345.6L562.82,352.44L564.1,351.69L566.67,353.08L567.95,352.86L569.23,352.76L570.51,351.58L574.36,346.45L575.64,348.16L576.92,347.84L578.21,332.78L580.77,307.03L582.05,291.22L583.33,269.54L584.62,267.93L585.9,263.13L587.18,246.57L589.74,208.43L591.03,200.31L592.31,195.39L593.59,174.46L594.87,173.6L596.15,161.85L597.44,162.81L598.72,155.23L600,152.34L601.28,147.53L602.56,140.7L603.85,138.56L610.26,80.55L611.54,70.72L612.82,66.45L614.1,40.38L616.67,18.38L617.95,8.87L620.51,3.74L621.79,0L624.36,8.55L625.64,16.35L630.77,44.01L632.05,58.01L638.46,128.63L639.74,131.51L642.31,178.09L643.59,191.23L646.15,205.33L647.44,207.47L648.72,210.14L650,215.8L656.41,266.54L657.69,269.11L660.26,288.55L661.54,293.04L662.82,294.32L664.1,296.78L665.38,298.49L666.67,298.81L667.95,298.27L669.23,291.76L673.08,278.94L674.36,274.02L675.64,272.42L676.92,268.79L678.21,269.22" style="vector-effect: non-scaling-stroke; fill: none; stroke: rgb(8, 115, 191); stroke-opacity: 1; stroke-width: 0.5px; opacity: 1;"/></g><g class="points"/><g class="text"/></g><g class="trace scatter trace06b660" style="stroke-miterlimit: 2;"><g class="fills"><g><path class="js-fill" d="M691.03,380L678.21,380L678.21,269.22L679.49,267.51L680.77,263.66L683.33,256.08L684.62,258.21L687.18,237.49L688.46,230.86L691.03,229.69" style="fill: rgb(8, 115, 191); fill-opacity: 0.4; stroke-width: 0;"/></g></g><g class="errorbars"/><g class="lines"><path class="js-line" d="M678.21,269.22L679.49,267.51L680.77,263.66L683.33,256.08L684.62,258.21L687.18,237.49L688.46,230.86L691.03,229.69" style="vector-effect: non-scaling-stroke; fill: none; stroke: rgb(8, 115, 191); stroke-opacity: 1; stroke-width: 2px; opacity: 1;"/></g><g class="points"/><g class="text"/></g><g class="trace scatter trace5b8bc7" style="stroke-miterlimit: 2; opacity: 1;"><g class="fills"/><g class="errorbars"/><g class="lines"/><g class="points"><path class="point" transform="translate(691.03,229.69)" d="M15,0A15,15 0 1,1 0,-15A15,15 0 0,1 15,0Z" style="opacity: 1; stroke-width: 0px; fill: rgb(8, 115, 191); fill-opacity: 1;"/></g><g class="text"/></g></g></g><g class="overplot"/><path class="xlines-above crisp" style="fill: none; stroke-width: 1px; stroke: rgb(0, 0, 0); stroke-opacity: 0;" d=""/><path class="ylines-above crisp" style="fill: none;" d="M0,0"/><g class="overlines-above"/><g class="xaxislayer-above"><path class="xtick ticks crisp" d="M0,450v-5" transform="translate(92.31,0)" style="stroke: rgb(68, 68, 68); stroke-opacity: 1; stroke-width: 1px;"/><path class="xtick ticks crisp" d="M0,450v-5" transform="translate(170.51,0)" style="stroke: rgb(68, 68, 68); stroke-opacity: 1; stroke-width: 1px;"/><path class="xtick ticks crisp" d="M0,450v-5" transform="translate(246.15,0)" style="stroke: rgb(68, 68, 68); stroke-opacity: 1; stroke-width: 1px;"/><path class="xtick ticks crisp" d="M0,450v-5" transform="translate(324.36,0)" style="stroke: rgb(68, 68, 68); stroke-opacity: 1; stroke-width: 1px;"/><path class="xtick ticks crisp" d="M0,450v-5" transform="translate(402.56,0)" style="stroke: rgb(68, 68, 68); stroke-opacity: 1; stroke-width: 1px;"/><path class="xtick ticks crisp" d="M0,450v-5" transform="translate(482.05,0)" style="stroke: rgb(68, 68, 68); stroke-opacity: 1; stroke-width: 1px;"/><path class="xtick ticks crisp" d="M0,450v-5" transform="translate(560.26,0)" style="stroke: rgb(68, 68, 68); stroke-opacity: 1; stroke-width: 1px;"/><path class="xtick ticks crisp" d="M0,450v-5" transform="translate(638.46,0)" style="stroke: rgb(68, 68, 68); stroke-opacity: 1; stroke-width: 1px;"/><path class="xtick ticks crisp" d="M0,450v-5" transform="translate(714.1,0)" style="stroke: rgb(68, 68, 68); stroke-opacity: 1; stroke-width: 1px;"/><g class="xtick"><text text-anchor="middle" x="0" y="469" transform="translate(92.31,0)" style="font-family: 'Open Sans', verdana, arial, sans-serif; font-size: 18px; fill: rgb(42, 63, 95); fill-opacity: 1; white-space: pre;">01/11</text></g><g class="xtick"><text text-anchor="middle" x="0" y="469" transform="translate(170.51,0)" style="font-family: 'Open Sans', verdana, arial, sans-serif; font-size: 18px; fill: rgb(42, 63, 95); fill-opacity: 1; white-space: pre;">01/01</text></g><g class="xtick"><text text-anchor="middle" x="0" y="469" transform="translate(246.15,0)" style="font-family: 'Open Sans', verdana, arial, sans-serif; font-size: 18px; fill: rgb(42, 63, 95); fill-opacity: 1; white-space: pre;">01/03</text></g><g class="xtick"><text text-anchor="middle" x="0" y="469" transform="translate(324.36,0)" style="font-family: 'Open Sans', verdana, arial, sans-serif; font-size: 18px; fill: rgb(42, 63, 95); fill-opacity: 1; white-space: pre;">01/05</text></g><g class="xtick"><text text-anchor="middle" x="0" y="469" transform="translate(402.56,0)" style="font-family: 'Open Sans', verdana, arial, sans-serif; font-size: 18px; fill: rgb(42, 63, 95); fill-opacity: 1; white-space: pre;">01/07</text></g><g class="xtick"><text text-anchor="middle" x="0" y="469" transform="translate(482.05,0)" style="font-family: 'Open Sans', verdana, arial, sans-serif; font-size: 18px; fill: rgb(42, 63, 95); fill-opacity: 1; white-space: pre;">01/09</text></g><g class="xtick"><text text-anchor="middle" x="0" y="469" transform="translate(560.26,0)" style="font-family: 'Open Sans', verdana, arial, sans-serif; font-size: 18px; fill: rgb(42, 63, 95); fill-opacity: 1; white-space: pre;">01/11</text></g><g class="xtick"><text text-anchor="middle" x="0" y="469" transform="translate(638.46,0)" style="font-family: 'Open Sans', verdana, arial, sans-serif; font-size: 18px; fill: rgb(42, 63, 95); fill-opacity: 1; white-space: pre;">01/01</text></g><g class="xtick"><text text-anchor="middle" x="0" y="469" transform="translate(714.1,0)" style="font-family: 'Open Sans', verdana, arial, sans-serif; font-size: 18px; fill: rgb(42, 63, 95); fill-opacity: 1; white-space: pre;">01/03</text></g></g><g class="yaxislayer-above"/><g class="overaxes-above"/></g></g><g class="polarlayer"/><g class="ternarylayer"/><g class="geolayer"/><g class="funnelarealayer"/><g class="pielayer"/><g class="treemaplayer"/><g class="sunburstlayer"/><g class="glimages"/><defs id="topdefs-5ba548"><g class="clips"/></defs><g class="layer-above"><g class="imagelayer"/><g class="shapelayer"><path data-index="0" fill-rule="evenodd" d="M-670.51,443.79L266.66999999999996,443.79" clip-path="url('#clip5ba548xy')" style="opacity: 1; stroke: rgb(255, 0, 0); stroke-opacity: 1; fill: rgb(0, 0, 0); fill-opacity: 0; stroke-dasharray: 3px, 3px; stroke-width: 1.5px;"/></g></g><g class="infolayer"><g class="g-gtitle"><text class="gtitle" x="375" y="25" text-anchor="middle" dy="0.7em" style="font-family: 'Open Sans', verdana, arial, sans-serif; font-size: 50px; fill: rgb(42, 63, 95); opacity: 1; font-weight: normal; white-space: pre;"><tspan style="font-weight:bold">Creuse (23)</tspan></text></g><g class="g-xtitle"/><g class="annotation" data-index="0" style="opacity: 1;"><g class="annotation-text-g" transform="rotate(0,699.03,239.69)"><g class="cursor-pointer" transform="translate(627, 204)"><rect class="bg" x="0.5" y="0.5" width="143" height="71" style="stroke-width: 1px; stroke: rgb(0, 0, 0); stroke-opacity: 0; fill: rgb(255, 255, 255); fill-opacity: 0.6;"/><text class="annotation-text" text-anchor="middle" x="72.078125" y="55.5" style="font-family: 'Open Sans', verdana, arial, sans-serif; font-size: 50px; fill: rgb(8, 115, 191); fill-opacity: 1; white-space: pre;"> <tspan style="font-weight:bold">1210 </tspan></text></g></g><g class="annotation-arrow-g" style="opacity: 1;"><path d="M727.43,275.19L739.03,289.69" style="stroke-width: 1px; stroke: rgb(8, 115, 191); stroke-opacity: 1; stroke-dasharray: 0px, 0px, 18.5691px, 18.5691px;"/></g></g></g></svg>