<svg class="main-svg" xmlns="http://www.w3.org/2000/svg" xmlns:xlink="http://www.w3.org/1999/xlink" width="1125" height="750" style="" viewBox="0 0 750 500"><rect x="0" y="0" width="750" height="500" style="fill: rgb(0, 0, 0); fill-opacity: 0;"/><defs id="defs-500379"><g class="clips"><clipPath id="clip500379xyplot" class="plotclip"><rect width="700" height="380"/></clipPath><clipPath class="axesclip" id="clip500379x"><rect x="50" y="0" width="700" height="500"/></clipPath><clipPath class="axesclip" id="clip500379y"><rect x="0" y="70" width="750" height="380"/></clipPath><clipPath class="axesclip" id="clip500379xy"><rect x="50" y="70" width="700" height="380"/></clipPath></g><g class="gradients"/></defs><g class="bglayer"><rect class="bg" x="50" y="70" width="700" height="380" style="fill: rgb(0, 0, 0); fill-opacity: 0; stroke-width: 0;"/></g><g class="layer-below"><g class="imagelayer"/><g class="shapelayer"/></g><g class="cartesianlayer"><g class="subplot xy"><g class="layer-subplot"><g class="shapelayer"/><g class="imagelayer"/></g><g class="gridlayer"><g class="x"><path class="xgrid crisp" transform="translate(52.21,0)" d="M0,70v380" style="stroke: rgb(255, 255, 255); stroke-opacity: 1; stroke-width: 1px;"/><path class="xgrid crisp" transform="translate(153.95,0)" d="M0,70v380" style="stroke: rgb(255, 255, 255); stroke-opacity: 1; stroke-width: 1px;"/><path class="xgrid crisp" transform="translate(253.48,0)" d="M0,70v380" style="stroke: rgb(255, 255, 255); stroke-opacity: 1; stroke-width: 1px;"/><path class="xgrid crisp" transform="translate(354.11,0)" d="M0,70v380" style="stroke: rgb(255, 255, 255); stroke-opacity: 1; stroke-width: 1px;"/><path class="xgrid crisp" transform="translate(455.85,0)" d="M0,70v380" style="stroke: rgb(255, 255, 255); stroke-opacity: 1; stroke-width: 1px;"/><path class="xgrid crisp" transform="translate(557.5799999999999,0)" d="M0,70v380" style="stroke: rgb(255, 255, 255); stroke-opacity: 1; stroke-width: 1px;"/><path class="xgrid crisp" transform="translate(657.11,0)" d="M0,70v380" style="stroke: rgb(255, 255, 255); stroke-opacity: 1; stroke-width: 1px;"/></g><g class="y"/></g><g class="zerolinelayer"/><path class="xlines-below"/><path class="ylines-below"/><g class="overlines-below"/><g class="xaxislayer-below"/><g class="yaxislayer-below"/><g class="overaxes-below"/><g class="plot" transform="translate(50, 70)" clip-path="url('#clip500379xyplot')"><g class="scatterlayer mlayer"><g class="trace scatter trace28d418" style="stroke-miterlimit: 2;"><g class="fills"><g><path class="js-fill" d="M681.2,380L-150.39,380L-150.39,379.71L-58.61,379.31L-57.5,379.34L-33.18,375.24L-32.07,374.5L-28.75,373.42L-27.65,372.71L-24.33,370.95L-23.22,370.8L-17.69,370.08L-16.59,369.33L-14.38,368.32L-13.27,368.24L-6.64,365.59L-5.53,365.64L-1.11,364.41L0,363.74L2.21,363.43L3.32,361.89L8.85,353.6L9.95,353.38L16.59,339.04L17.69,338.63L22.12,321.47L23.22,316.94L24.33,315.16L25.43,315.1L28.75,303.29L29.86,301.63L32.07,299.04L33.18,299.13L34.28,297.02L35.39,296.54L36.49,296.76L37.6,298.24L39.81,302.47L40.92,302.55L43.13,312.33L44.23,325.72L47.55,334.41L48.66,334.65L50.87,343.66L51.97,340.39L54.19,349.94L55.29,350.96L56.4,351.01L57.5,354.51L60.82,360.97L61.93,361.93L65.24,363.57L66.35,364.16L71.88,364.88L72.99,364.3L81.83,361.11L82.94,360.75L85.15,359.32L86.26,357.94L87.36,356L88.47,356.33L90.68,357.33L91.79,358.66L94,363.57L95.1,365.47L97.31,366.23L98.42,365.56L100.63,365.04L101.74,364.68L102.84,364.73L103.95,363.74L105.06,362.92L106.16,363.24L107.27,363.02L108.37,360.19L111.69,361.2L112.8,362.47L116.11,363.34L117.22,363.12L119.43,362.99L120.54,362.37L123.85,360.82L124.96,360.84L129.38,361.26L130.49,361.3L134.91,361.2L136.02,361.43L143.76,364.27L144.87,364.08L153.71,366.83L154.82,366.34L163.67,363.19L164.77,363.37L171.41,365.04L172.51,364.88L175.83,364.48L176.94,364.32L180.25,363.52L181.36,361.97L186.89,359.04L187.99,358.83L190.21,357.02L191.31,355.43L194.63,351.62L195.73,351.55L199.05,347.72L200.16,347.44L203.48,348.02L204.58,353.98L205.69,353.46L206.79,353.98L209,355.37L210.11,355.57L211.22,355.55L212.32,351.01L214.53,353.87L215.64,354.29L217.85,355.76L218.96,355.94L226.7,358.8L227.8,360.09L228.91,360.62L230.02,362.17L236.65,367.27L237.76,368.07L241.07,369.58L242.18,369.62L245.5,370.3L246.6,371.81L249.92,371.31L251.03,371.74L253.24,371.75L254.34,370.39L257.66,370.58L258.77,372.28L262.09,372.51L263.19,372.94L265.4,373.22L266.51,372.23L269.83,374.83L270.93,375.33L287.52,378.32L288.63,378.32L293.05,378.66L294.15,378.66L305.21,378.06L306.32,377.8L312.95,376.58L314.06,376.06L315.17,376.32L316.27,375.61L319.59,374.15L320.7,372.55L325.12,366.48L326.22,366.16L327.33,366.1L328.44,365.07L331.75,364.59L332.86,364.57L339.49,363.7L340.6,363.09L345.02,362.36L346.13,361.71L350.55,361.23L351.66,361.71L357.19,362.84L358.29,363L360.51,363.78L361.61,364.08L363.82,365.02L364.93,365.49L367.14,366.04L368.25,366.52L371.56,368.07L372.67,368.23L373.78,368.31L374.88,369.29L379.3,371.31L380.41,371.77L382.62,372.71L383.73,373L388.15,374.71L389.26,374.78L393.68,375.78L394.79,376.1L410.27,377.5L411.37,377.44L420.22,376.98L421.33,376.78L430.17,375.95L431.28,375.96L435.7,374.87L436.81,375.4L439.02,374.18L440.13,373.87L443.44,373.61L444.55,371.62L445.66,371.65L446.76,370.91L447.87,371.72L448.97,370.45L451.18,370.03L452.29,368.5L454.5,365.97L455.61,362.85L458.93,360.53L460.03,357.87L465.56,346.7L466.67,346.5L472.2,332.71L473.3,331.52L474.41,331.19L475.51,327.52L477.73,324.49L478.83,323.4L481.04,322.19L482.15,322.09L487.68,315.48L488.78,314.81L489.89,314.33L491,312.62L493.21,303.55L494.31,296.43L495.42,291.81L496.52,295.67L497.63,293.28L498.74,273.98L503.16,201.48L504.27,199.57L505.37,195.67L506.48,165.21L508.69,130.03L509.79,119.04L510.9,105.47L512.01,80.77L514.22,73.84L515.32,73.9L520.85,45.85L521.96,31.78L526.38,1.88L527.49,0L528.59,1.51L529.7,7.37L531.91,24.51L533.02,40.71L535.23,66.08L536.33,70.04L541.86,159.48L542.97,168.54L544.08,172.5L545.18,193.61L549.61,250.09L550.71,258.43L551.82,260.85L552.92,279.11L556.24,307.71L557.35,314.24L559.56,318.85L560.66,324.97L566.19,340.11L567.3,340.04L569.51,343.52L570.62,343.96L576.15,347.76L577.25,347.01L579.46,344.53L580.57,342.48L582.78,340.39L583.89,336.11L589.42,321.65L590.52,320.81L593.84,299.06L594.94,293.02L597.16,283.8L598.26,283.12L600.47,272.47L601.58,269.42L603.79,267.53L604.9,267.95L606,268.14L607.11,266.86L609.32,263.64L610.43,260.83L612.64,254.92L613.74,254.53L614.85,251.58L615.96,251.15L618.17,251.96L619.27,253.64L620.38,255.59L621.48,255.97L622.59,284.89L623.7,280.25L628.12,302.66L629.23,303.68L630.33,292.27L631.44,309.14L634.76,326.9L635.86,329.83L636.97,330.37L638.07,335.47L642.5,345.35L643.6,346.95L644.71,347.22L645.81,349.24L650.24,351.58L651.34,351.92L652.45,352.15L653.55,353.45L659.08,357.84L660.19,358.21L663.51,361.84L664.61,364.48L669.04,365.38L670.14,364.81L671.25,365.17L672.35,362.94L673.46,363.36L674.57,362.76L675.67,362.7L676.78,365.65L678.99,360.62L680.09,359.53L681.2,358.62" style="fill: rgb(8, 115, 191); fill-opacity: 0.2; stroke-width: 0;"/></g></g><g class="errorbars"/><g class="lines"><path class="js-line" d="M-150.39,379.71L-58.61,379.31L-57.5,379.34L-33.18,375.24L-32.07,374.5L-28.75,373.42L-27.65,372.71L-24.33,370.95L-23.22,370.8L-17.69,370.08L-16.59,369.33L-14.38,368.32L-13.27,368.24L-6.64,365.59L-5.53,365.64L-1.11,364.41L0,363.74L2.21,363.43L3.32,361.89L8.85,353.6L9.95,353.38L16.59,339.04L17.69,338.63L22.12,321.47L23.22,316.94L24.33,315.16L25.43,315.1L28.75,303.29L29.86,301.63L32.07,299.04L33.18,299.13L34.28,297.02L35.39,296.54L36.49,296.76L37.6,298.24L39.81,302.47L40.92,302.55L43.13,312.33L44.23,325.72L47.55,334.41L48.66,334.65L50.87,343.66L51.97,340.39L54.19,349.94L55.29,350.96L56.4,351.01L57.5,354.51L60.82,360.97L61.93,361.93L65.24,363.57L66.35,364.16L71.88,364.88L72.99,364.3L81.83,361.11L82.94,360.75L85.15,359.32L86.26,357.94L87.36,356L88.47,356.33L90.68,357.33L91.79,358.66L94,363.57L95.1,365.47L97.31,366.23L98.42,365.56L100.63,365.04L101.74,364.68L102.84,364.73L103.95,363.74L105.06,362.92L106.16,363.24L107.27,363.02L108.37,360.19L111.69,361.2L112.8,362.47L116.11,363.34L117.22,363.12L119.43,362.99L120.54,362.37L123.85,360.82L124.96,360.84L129.38,361.26L130.49,361.3L134.91,361.2L136.02,361.43L143.76,364.27L144.87,364.08L153.71,366.83L154.82,366.34L163.67,363.19L164.77,363.37L171.41,365.04L172.51,364.88L175.83,364.48L176.94,364.32L180.25,363.52L181.36,361.97L186.89,359.04L187.99,358.83L190.21,357.02L191.31,355.43L194.63,351.62L195.73,351.55L199.05,347.72L200.16,347.44L203.48,348.02L204.58,353.98L205.69,353.46L206.79,353.98L209,355.37L210.11,355.57L211.22,355.55L212.32,351.01L214.53,353.87L215.64,354.29L217.85,355.76L218.96,355.94L226.7,358.8L227.8,360.09L228.91,360.62L230.02,362.17L236.65,367.27L237.76,368.07L241.07,369.58L242.18,369.62L245.5,370.3L246.6,371.81L249.92,371.31L251.03,371.74L253.24,371.75L254.34,370.39L257.66,370.58L258.77,372.28L262.09,372.51L263.19,372.94L265.4,373.22L266.51,372.23L269.83,374.83L270.93,375.33L287.52,378.32L288.63,378.32L293.05,378.66L294.15,378.66L305.21,378.06L306.32,377.8L312.95,376.58L314.06,376.06L315.17,376.32L316.27,375.61L319.59,374.15L320.7,372.55L325.12,366.48L326.22,366.16L327.33,366.1L328.44,365.07L331.75,364.59L332.86,364.57L339.49,363.7L340.6,363.09L345.02,362.36L346.13,361.71L350.55,361.23L351.66,361.71L357.19,362.84L358.29,363L360.51,363.78L361.61,364.08L363.82,365.02L364.93,365.49L367.14,366.04L368.25,366.52L371.56,368.07L372.67,368.23L373.78,368.31L374.88,369.29L379.3,371.31L380.41,371.77L382.62,372.71L383.73,373L388.15,374.71L389.26,374.78L393.68,375.78L394.79,376.1L410.27,377.5L411.37,377.44L420.22,376.98L421.33,376.78L430.17,375.95L431.28,375.96L435.7,374.87L436.81,375.4L439.02,374.18L440.13,373.87L443.44,373.61L444.55,371.62L445.66,371.65L446.76,370.91L447.87,371.72L448.97,370.45L451.18,370.03L452.29,368.5L454.5,365.97L455.61,362.85L458.93,360.53L460.03,357.87L465.56,346.7L466.67,346.5L472.2,332.71L473.3,331.52L474.41,331.19L475.51,327.52L477.73,324.49L478.83,323.4L481.04,322.19L482.15,322.09L487.68,315.48L488.78,314.81L489.89,314.33L491,312.62L493.21,303.55L494.31,296.43L495.42,291.81L496.52,295.67L497.63,293.28L498.74,273.98L503.16,201.48L504.27,199.57L505.37,195.67L506.48,165.21L508.69,130.03L509.79,119.04L510.9,105.47L512.01,80.77L514.22,73.84L515.32,73.9L520.85,45.85L521.96,31.78L526.38,1.88L527.49,0L528.59,1.51L529.7,7.37L531.91,24.51L533.02,40.71L535.23,66.08L536.33,70.04L541.86,159.48L542.97,168.54L544.08,172.5L545.18,193.61L549.61,250.09L550.71,258.43L551.82,260.85L552.92,279.11L556.24,307.71L557.35,314.24L559.56,318.85L560.66,324.97L566.19,340.11L567.3,340.04L569.51,343.52L570.62,343.96L576.15,347.76L577.25,347.01L579.46,344.53L580.57,342.48L582.78,340.39L583.89,336.11L589.42,321.65L590.52,320.81L593.84,299.06L594.94,293.02L597.16,283.8L598.26,283.12L600.47,272.47L601.58,269.42L603.79,267.53L604.9,267.95L606,268.14L607.11,266.86L609.32,263.64L610.43,260.83L612.64,254.92L613.74,254.53L614.85,251.58L615.96,251.15L618.17,251.96L619.27,253.64L620.38,255.59L621.48,255.97L622.59,284.89L623.7,280.25L628.12,302.66L629.23,303.68L630.33,292.27L631.44,309.14L634.76,326.9L635.86,329.83L636.97,330.37L638.07,335.47L642.5,345.35L643.6,346.95L644.71,347.22L645.81,349.24L650.24,351.58L651.34,351.92L652.45,352.15L653.55,353.45L659.08,357.84L660.19,358.21L663.51,361.84L664.61,364.48L669.04,365.38L670.14,364.81L671.25,365.17L672.35,362.94L673.46,363.36L674.57,362.76L675.67,362.7L676.78,365.65L678.99,360.62L680.09,359.53L681.2,358.62" style="vector-effect: non-scaling-stroke; fill: none; stroke: rgb(8, 115, 191); stroke-opacity: 1; stroke-width: 0.5px; opacity: 1;"/></g><g class="points"/><g class="text"/></g><g class="trace scatter trace15a272" style="stroke-miterlimit: 2;"><g class="fills"><g><path class="js-fill" d="M692.26,380L681.2,380L681.2,358.62L683.41,357.77L684.52,351.03L685.62,350.96L686.73,349.24L690.05,343.66L691.15,343.55L692.26,339.7" style="fill: rgb(8, 115, 191); fill-opacity: 0.4; stroke-width: 0;"/></g></g><g class="errorbars"/><g class="lines"><path class="js-line" d="M681.2,358.62L683.41,357.77L684.52,351.03L685.62,350.96L686.73,349.24L690.05,343.66L691.15,343.55L692.26,339.7" style="vector-effect: non-scaling-stroke; fill: none; stroke: rgb(8, 115, 191); stroke-opacity: 1; stroke-width: 2px; opacity: 1;"/></g><g class="points"/><g class="text"/></g><g class="trace scatter tracef25bde" style="stroke-miterlimit: 2; opacity: 1;"><g class="fills"/><g class="errorbars"/><g class="lines"/><g class="points"><path class="point" transform="translate(692.26,339.7)" d="M15,0A15,15 0 1,1 0,-15A15,15 0 0,1 15,0Z" style="opacity: 1; stroke-width: 0px; fill: rgb(8, 115, 191); fill-opacity: 1;"/></g><g class="text"/></g></g></g><g class="overplot"/><path class="xlines-above crisp" style="fill: none; stroke-width: 1px; stroke: rgb(0, 0, 0); stroke-opacity: 0;" d=""/><path class="ylines-above crisp" style="fill: none;" d="M0,0"/><g class="overlines-above"/><g class="xaxislayer-above"><path class="xtick ticks crisp" d="M0,450v-5" transform="translate(52.21,0)" style="stroke: rgb(68, 68, 68); stroke-opacity: 1; stroke-width: 1px;"/><path class="xtick ticks crisp" d="M0,450v-5" transform="translate(153.95,0)" style="stroke: rgb(68, 68, 68); stroke-opacity: 1; stroke-width: 1px;"/><path class="xtick ticks crisp" d="M0,450v-5" transform="translate(253.48,0)" style="stroke: rgb(68, 68, 68); stroke-opacity: 1; stroke-width: 1px;"/><path class="xtick ticks crisp" d="M0,450v-5" transform="translate(354.11,0)" style="stroke: rgb(68, 68, 68); stroke-opacity: 1; stroke-width: 1px;"/><path class="xtick ticks crisp" d="M0,450v-5" transform="translate(455.85,0)" style="stroke: rgb(68, 68, 68); stroke-opacity: 1; stroke-width: 1px;"/><path class="xtick ticks crisp" d="M0,450v-5" transform="translate(557.5799999999999,0)" style="stroke: rgb(68, 68, 68); stroke-opacity: 1; stroke-width: 1px;"/><path class="xtick ticks crisp" d="M0,450v-5" transform="translate(657.11,0)" style="stroke: rgb(68, 68, 68); stroke-opacity: 1; stroke-width: 1px;"/><g class="xtick"><text text-anchor="middle" x="0" y="469" transform="translate(52.21,0)" style="font-family: 'Open Sans', verdana, arial, sans-serif; font-size: 18px; fill: rgb(42, 63, 95); fill-opacity: 1; white-space: pre;">01/10</text></g><g class="xtick"><text text-anchor="middle" x="0" y="469" transform="translate(153.95,0)" style="font-family: 'Open Sans', verdana, arial, sans-serif; font-size: 18px; fill: rgb(42, 63, 95); fill-opacity: 1; white-space: pre;">01/01</text></g><g class="xtick"><text text-anchor="middle" x="0" y="469" transform="translate(253.48,0)" style="font-family: 'Open Sans', verdana, arial, sans-serif; font-size: 18px; fill: rgb(42, 63, 95); fill-opacity: 1; white-space: pre;">01/04</text></g><g class="xtick"><text text-anchor="middle" x="0" y="469" transform="translate(354.11,0)" style="font-family: 'Open Sans', verdana, arial, sans-serif; font-size: 18px; fill: rgb(42, 63, 95); fill-opacity: 1; white-space: pre;">01/07</text></g><g class="xtick"><text text-anchor="middle" x="0" y="469" transform="translate(455.85,0)" style="font-family: 'Open Sans', verdana, arial, sans-serif; font-size: 18px; fill: rgb(42, 63, 95); fill-opacity: 1; white-space: pre;">01/10</text></g><g class="xtick"><text text-anchor="middle" x="0" y="469" transform="translate(557.5799999999999,0)" style="font-family: 'Open Sans', verdana, arial, sans-serif; font-size: 18px; fill: rgb(42, 63, 95); fill-opacity: 1; white-space: pre;">01/01</text></g><g class="xtick"><text text-anchor="middle" x="0" y="469" transform="translate(657.11,0)" style="font-family: 'Open Sans', verdana, arial, sans-serif; font-size: 18px; fill: rgb(42, 63, 95); fill-opacity: 1; white-space: pre;">01/04</text></g></g><g class="yaxislayer-above"/><g class="overaxes-above"/></g></g><g class="polarlayer"/><g class="ternarylayer"/><g class="geolayer"/><g class="funnelarealayer"/><g class="pielayer"/><g class="treemaplayer"/><g class="sunburstlayer"/><g class="glimages"/><defs id="topdefs-500379"><g class="clips"/></defs><g class="layer-above"><g class="imagelayer"/><g class="shapelayer"><path data-index="0" fill-rule="evenodd" d="M-571.48,445.53L236.89,445.53" clip-path="url('#clip500379xy')" style="opacity: 1; stroke: rgb(255, 0, 0); stroke-opacity: 1; fill: rgb(0, 0, 0); fill-opacity: 0; stroke-dasharray: 3px, 3px; stroke-width: 1.5px;"/></g></g><g class="infolayer"><g class="g-gtitle"><text class="gtitle" x="375" y="25" text-anchor="middle" dy="0.7em" style="font-family: 'Open Sans', verdana, arial, sans-serif; font-size: 50px; fill: rgb(42, 63, 95); opacity: 1; font-weight: normal; white-space: pre;"><tspan style="font-weight:bold">Isère (38)</tspan></text></g><g class="g-xtitle"/><g class="annotation" data-index="0" style="opacity: 1;"><g class="annotation-text-g" transform="rotate(0,700.26,349.7)"><g class="cursor-pointer" transform="translate(642, 314)"><rect class="bg" x="0.5" y="0.5" width="115" height="71" style="stroke-width: 1px; stroke: rgb(0, 0, 0); stroke-opacity: 0; fill: rgb(255, 255, 255); fill-opacity: 0.6;"/><text class="annotation-text" text-anchor="middle" x="57.8125" y="55.5" style="font-family: 'Open Sans', verdana, arial, sans-serif; font-size: 50px; fill: rgb(8, 115, 191); fill-opacity: 1; white-space: pre;"> <tspan style="font-weight:bold">450 </tspan></text></g></g><g class="annotation-arrow-g" style="opacity: 1;"><path d="M728.66,385.2L740.26,399.7" style="stroke-width: 1px; stroke: rgb(8, 115, 191); stroke-opacity: 1; stroke-dasharray: 0px, 0px, 18.5691px, 18.5691px;"/></g></g></g></svg>