<svg class="main-svg" xmlns="http://www.w3.org/2000/svg" xmlns:xlink="http://www.w3.org/1999/xlink" width="1125" height="750" style="" viewBox="0 0 750 500"><rect x="0" y="0" width="750" height="500" style="fill: rgb(0, 0, 0); fill-opacity: 0;"/><defs id="defs-bd1190"><g class="clips"><clipPath id="clipbd1190xyplot" class="plotclip"><rect width="700" height="380"/></clipPath><clipPath class="axesclip" id="clipbd1190x"><rect x="50" y="0" width="700" height="500"/></clipPath><clipPath class="axesclip" id="clipbd1190y"><rect x="0" y="70" width="750" height="380"/></clipPath><clipPath class="axesclip" id="clipbd1190xy"><rect x="50" y="70" width="700" height="380"/></clipPath></g><g class="gradients"/></defs><g class="bglayer"><rect class="bg" x="50" y="70" width="700" height="380" style="fill: rgb(0, 0, 0); fill-opacity: 0; stroke-width: 0;"/></g><g class="layer-below"><g class="imagelayer"/><g class="shapelayer"/></g><g class="cartesianlayer"><g class="subplot xy"><g class="layer-subplot"><g class="shapelayer"/><g class="imagelayer"/></g><g class="gridlayer"><g class="x"><path class="xgrid crisp" transform="translate(106.07,0)" d="M0,70v380" style="stroke: rgb(255, 255, 255); stroke-opacity: 1; stroke-width: 1px;"/><path class="xgrid crisp" transform="translate(209.71,0)" d="M0,70v380" style="stroke: rgb(255, 255, 255); stroke-opacity: 1; stroke-width: 1px;"/><path class="xgrid crisp" transform="translate(309.95,0)" d="M0,70v380" style="stroke: rgb(255, 255, 255); stroke-opacity: 1; stroke-width: 1px;"/><path class="xgrid crisp" transform="translate(413.59,0)" d="M0,70v380" style="stroke: rgb(255, 255, 255); stroke-opacity: 1; stroke-width: 1px;"/><path class="xgrid crisp" transform="translate(517.23,0)" d="M0,70v380" style="stroke: rgb(255, 255, 255); stroke-opacity: 1; stroke-width: 1px;"/><path class="xgrid crisp" transform="translate(622.57,0)" d="M0,70v380" style="stroke: rgb(255, 255, 255); stroke-opacity: 1; stroke-width: 1px;"/><path class="xgrid crisp" transform="translate(726.21,0)" d="M0,70v380" style="stroke: rgb(255, 255, 255); stroke-opacity: 1; stroke-width: 1px;"/></g><g class="y"/></g><g class="zerolinelayer"/><path class="xlines-below"/><path class="ylines-below"/><g class="overlines-below"/><g class="xaxislayer-below"/><g class="yaxislayer-below"/><g class="overaxes-below"/><g class="plot" transform="translate(50, 70)" clip-path="url('#clipbd1190xyplot')"><g class="scatterlayer mlayer"><g class="trace scatter trace85b60d" style="stroke-miterlimit: 2;"><g class="fills"><g><path class="js-fill" d="M671.12,380L-231.07,380L-231.07,371.56L-217.48,376.18L-215.78,375.58L-202.18,376.63L-200.49,375.93L-156.31,376.53L-154.61,374.22L-134.22,375.78L-132.52,375.38L-125.73,373.26L-124.03,371.46L-101.94,364.82L-100.24,363.31L-88.35,358.89L-86.65,358.08L-83.25,355.82L-81.55,356.02L-76.46,354.67L-74.76,352.81L-67.96,350.95L-66.26,347.08L-57.77,334.36L-56.07,334.36L-47.57,325.66L-45.87,324.91L-44.17,325.01L-42.48,323.15L-39.08,320.13L-37.38,316.01L-35.68,313.5L-33.98,313.8L-32.28,313.5L-30.58,311.34L-27.18,307.82L-25.49,308.78L-22.09,303.85L-20.39,303.95L-15.29,290.13L-13.59,287.26L-11.89,289.37L-10.19,288.72L-8.5,288.72L-6.8,290.58L-5.1,289.93L-3.4,292.64L-1.7,288.87L0,280.53L1.7,277.41L3.4,277.61L6.8,256.05L8.5,240.37L11.89,215.48L13.59,209.7L15.29,208.4L16.99,197.24L23.79,164.26L25.49,160.85L27.18,159.29L28.88,149.69L32.28,123.65L33.98,109.93L35.68,91.48L37.38,85.8L39.08,83.49L40.78,61.88L42.48,51.32L44.17,46.7L45.87,50.01L47.57,56.04L49.27,59.06L50.97,60.07L54.37,72.33L56.07,87.56L57.77,96.86L59.47,111.29L61.17,118.42L62.86,121.44L66.26,164.52L67.96,198.95L71.36,226.79L73.06,232.98L74.76,232.62L76.46,249.87L78.16,262.48L79.85,254.84L81.55,271.53L83.25,280.73L84.95,280.48L86.65,281.98L90.05,295.81L91.75,296.21L95.15,305.01L96.84,307.47L98.54,307.37L100.24,311.19L103.64,320.39L105.34,321.84L107.04,319.68L108.74,319.08L110.44,319.28L112.14,318.38L115.53,314.81L117.23,314.86L122.33,314.1L124.03,312.7L125.73,313.85L127.43,311.89L132.52,302.89L134.22,302.04L139.32,297.62L141.02,298.52L142.72,311.49L144.42,310.58L146.12,310.94L147.82,308.88L151.21,299.53L152.91,297.82L158.01,297.37L159.71,288.22L161.41,285.85L163.11,286.56L164.81,280.73L166.5,265.8L168.2,266.55L169.9,265.5L173.3,275L175,273.99L176.7,273.19L178.4,270.62L180.1,270.12L181.8,271.03L183.5,265.8L185.19,263.34L191.99,257.2L193.69,257.51L195.39,257.2L197.09,255.65L198.79,255.9L200.49,254.24L205.58,254.54L207.28,255.7L208.98,256.35L210.68,255.39L212.38,256.05L214.08,257.96L215.78,259.21L217.48,258.26L219.17,259.47L220.87,258.06L224.27,262.38L225.97,261.07L229.37,259.06L231.07,260.27L232.77,258.91L234.47,254.19L236.17,247.85L237.86,237.95L239.56,234.58L241.26,235.09L242.96,220.71L244.66,215.89L246.36,209L248.06,209L249.76,210.86L251.46,207.84L253.16,207.29L254.85,207.59L256.55,204.73L258.25,205.83L261.65,198.54L263.35,197.29L265.05,198.65L266.75,193.72L268.45,190.9L270.15,183.42L275.24,162.05L276.94,155.97L283.74,97.11L285.44,85.05L287.14,75.25L288.83,74.29L290.53,58.01L292.23,49.96L297.33,21.21L299.03,17.74L300.73,20.91L302.43,14.68L304.13,5.48L305.83,1.91L307.52,0L309.22,7.04L310.92,12.06L312.62,11.51L314.32,82.63L316.02,71.07L317.72,73.49L319.42,78.51L321.12,78.76L322.82,73.84L324.51,74.69L326.21,19.15L327.91,48L329.61,57.1L334.71,90.58L336.41,91.28L341.5,108.92L343.2,110.78L346.6,118.88L348.3,120.53L355.1,158.13L356.8,162.61L358.5,181.15L360.19,179.54L361.89,187.94L363.59,192.46L368.69,215.69L370.39,216.44L372.09,218L373.79,224.88L375.49,232.52L377.18,235.49L378.88,256.3L380.58,260.12L382.28,253.13L383.98,253.38L385.68,260.52L387.38,264.09L389.08,267.46L390.78,253.99L392.48,261.07L394.17,264.69L395.87,266.75L397.57,290.98L399.27,291.03L400.97,295.3L402.67,298.32L404.37,303.2L406.07,305.36L407.77,304.96L409.47,296.21L411.17,308.47L414.56,320.59L416.26,323.55L417.96,326.17L419.66,326.67L421.36,331.54L423.06,334.11L428.16,345.77L429.85,347.43L431.55,347.93L433.25,350.54L434.95,354.77L436.65,355.97L440.05,359.14L441.75,359.59L443.45,359.04L445.15,360.85L446.84,360.75L448.54,362.56L451.94,363.97L453.64,364.32L455.34,364.87L457.04,366.48L460.44,365.17L462.14,363.97L465.53,360.9L467.23,360.4L468.93,356.53L470.63,355.12L474.03,351.9L475.73,352.3L479.13,352.91L480.83,351.2L482.52,348.58L484.22,351.05L489.32,331.14L491.02,330.34L496.12,293.75L497.82,289.47L499.51,282.54L501.21,279.27L502.91,277.76L504.61,274.6L506.31,272.69L508.01,273.14L514.81,277.31L516.5,274.8L518.2,273.74L519.9,271.73L525,262.58L526.7,261.22L530.1,255.09L531.8,255.09L533.5,253.53L535.19,254.54L538.59,252.88L540.29,252.68L543.69,253.84L545.39,256.25L547.09,254.84L548.79,255.75L550.49,256.55L552.18,259.47L555.58,264.84L557.28,265.75L558.98,268.87L560.68,268.36L562.38,268.92L564.08,273.04L565.78,275.3L567.48,276.2L569.17,278.57L570.87,282.49L572.57,285.5L574.27,286.31L577.67,291.84L579.37,297.21L584.47,308.27L586.17,309.13L587.86,316.82L589.56,320.34L594.66,331.14L596.36,332.45L598.06,332.6L599.76,334.21L603.16,334.86L604.85,332.8L608.25,335.62L609.95,335.21L611.65,335.52L613.35,337.88L616.75,340.74L618.45,340.69L620.15,342.1L621.84,342.45L623.54,343.66L625.24,343.71L626.94,343.41L628.64,344.31L630.34,344.87L632.04,342.5L633.74,342.25L635.44,340.34L637.14,340.24L638.83,339.13L640.53,335.26L642.23,334.21L647.33,335.97L649.03,335.67L650.73,336.67L652.43,340.24L655.83,341.8L657.52,342.05L659.22,343.81L660.92,344.16L662.62,344.76L664.32,344.06L666.02,341.7L667.72,340.69L669.42,339.84L671.12,345.52" style="fill: rgb(8, 115, 191); fill-opacity: 0.2; stroke-width: 0;"/></g></g><g class="errorbars"/><g class="lines"><path class="js-line" d="M-231.07,371.56L-217.48,376.18L-215.78,375.58L-202.18,376.63L-200.49,375.93L-156.31,376.53L-154.61,374.22L-134.22,375.78L-132.52,375.38L-125.73,373.26L-124.03,371.46L-101.94,364.82L-100.24,363.31L-88.35,358.89L-86.65,358.08L-83.25,355.82L-81.55,356.02L-76.46,354.67L-74.76,352.81L-67.96,350.95L-66.26,347.08L-57.77,334.36L-56.07,334.36L-47.57,325.66L-45.87,324.91L-44.17,325.01L-42.48,323.15L-39.08,320.13L-37.38,316.01L-35.68,313.5L-33.98,313.8L-32.28,313.5L-30.58,311.34L-27.18,307.82L-25.49,308.78L-22.09,303.85L-20.39,303.95L-15.29,290.13L-13.59,287.26L-11.89,289.37L-10.19,288.72L-8.5,288.72L-6.8,290.58L-5.1,289.93L-3.4,292.64L-1.7,288.87L0,280.53L1.7,277.41L3.4,277.61L6.8,256.05L8.5,240.37L11.89,215.48L13.59,209.7L15.29,208.4L16.99,197.24L23.79,164.26L25.49,160.85L27.18,159.29L28.88,149.69L32.28,123.65L33.98,109.93L35.68,91.48L37.38,85.8L39.08,83.49L40.78,61.88L42.48,51.32L44.17,46.7L45.87,50.01L47.57,56.04L49.27,59.06L50.97,60.07L54.37,72.33L56.07,87.56L57.77,96.86L59.47,111.29L61.17,118.42L62.86,121.44L66.26,164.52L67.96,198.95L71.36,226.79L73.06,232.98L74.76,232.62L76.46,249.87L78.16,262.48L79.85,254.84L81.55,271.53L83.25,280.73L84.95,280.48L86.65,281.98L90.05,295.81L91.75,296.21L95.15,305.01L96.84,307.47L98.54,307.37L100.24,311.19L103.64,320.39L105.34,321.84L107.04,319.68L108.74,319.08L110.44,319.28L112.14,318.38L115.53,314.81L117.23,314.86L122.33,314.1L124.03,312.7L125.73,313.85L127.43,311.89L132.52,302.89L134.22,302.04L139.32,297.62L141.02,298.52L142.72,311.49L144.42,310.58L146.12,310.94L147.82,308.88L151.21,299.53L152.91,297.82L158.01,297.37L159.71,288.22L161.41,285.85L163.11,286.56L164.81,280.73L166.5,265.8L168.2,266.55L169.9,265.5L173.3,275L175,273.99L176.7,273.19L178.4,270.62L180.1,270.12L181.8,271.03L183.5,265.8L185.19,263.34L191.99,257.2L193.69,257.51L195.39,257.2L197.09,255.65L198.79,255.9L200.49,254.24L205.58,254.54L207.28,255.7L208.98,256.35L210.68,255.39L212.38,256.05L214.08,257.96L215.78,259.21L217.48,258.26L219.17,259.47L220.87,258.06L224.27,262.38L225.97,261.07L229.37,259.06L231.07,260.27L232.77,258.91L234.47,254.19L236.17,247.85L237.86,237.95L239.56,234.58L241.26,235.09L242.96,220.71L244.66,215.89L246.36,209L248.06,209L249.76,210.86L251.46,207.84L253.16,207.29L254.85,207.59L256.55,204.73L258.25,205.83L261.65,198.54L263.35,197.29L265.05,198.65L266.75,193.72L268.45,190.9L270.15,183.42L275.24,162.05L276.94,155.97L283.74,97.11L285.44,85.05L287.14,75.25L288.83,74.29L290.53,58.01L292.23,49.96L297.33,21.21L299.03,17.74L300.73,20.91L302.43,14.68L304.13,5.48L305.83,1.91L307.52,0L309.22,7.04L310.92,12.06L312.62,11.51L314.32,82.63L316.02,71.07L317.72,73.49L319.42,78.51L321.12,78.76L322.82,73.84L324.51,74.69L326.21,19.15L327.91,48L329.61,57.1L334.71,90.58L336.41,91.28L341.5,108.92L343.2,110.78L346.6,118.88L348.3,120.53L355.1,158.13L356.8,162.61L358.5,181.15L360.19,179.54L361.89,187.94L363.59,192.46L368.69,215.69L370.39,216.44L372.09,218L373.79,224.88L375.49,232.52L377.18,235.49L378.88,256.3L380.58,260.12L382.28,253.13L383.98,253.38L385.68,260.52L387.38,264.09L389.08,267.46L390.78,253.99L392.48,261.07L394.17,264.69L395.87,266.75L397.57,290.98L399.27,291.03L400.97,295.3L402.67,298.32L404.37,303.2L406.07,305.36L407.77,304.96L409.47,296.21L411.17,308.47L414.56,320.59L416.26,323.55L417.96,326.17L419.66,326.67L421.36,331.54L423.06,334.11L428.16,345.77L429.85,347.43L431.55,347.93L433.25,350.54L434.95,354.77L436.65,355.97L440.05,359.14L441.75,359.59L443.45,359.04L445.15,360.85L446.84,360.75L448.54,362.56L451.94,363.97L453.64,364.32L455.34,364.87L457.04,366.48L460.44,365.17L462.14,363.97L465.53,360.9L467.23,360.4L468.93,356.53L470.63,355.12L474.03,351.9L475.73,352.3L479.13,352.91L480.83,351.2L482.52,348.58L484.22,351.05L489.32,331.14L491.02,330.34L496.12,293.75L497.82,289.47L499.51,282.54L501.21,279.27L502.91,277.76L504.61,274.6L506.31,272.69L508.01,273.14L514.81,277.31L516.5,274.8L518.2,273.74L519.9,271.73L525,262.58L526.7,261.22L530.1,255.09L531.8,255.09L533.5,253.53L535.19,254.54L538.59,252.88L540.29,252.68L543.69,253.84L545.39,256.25L547.09,254.84L548.79,255.75L550.49,256.55L552.18,259.47L555.58,264.84L557.28,265.75L558.98,268.87L560.68,268.36L562.38,268.92L564.08,273.04L565.78,275.3L567.48,276.2L569.17,278.57L570.87,282.49L572.57,285.5L574.27,286.31L577.67,291.84L579.37,297.21L584.47,308.27L586.17,309.13L587.86,316.82L589.56,320.34L594.66,331.14L596.36,332.45L598.06,332.6L599.76,334.21L603.16,334.86L604.85,332.8L608.25,335.62L609.95,335.21L611.65,335.52L613.35,337.88L616.75,340.74L618.45,340.69L620.15,342.1L621.84,342.45L623.54,343.66L625.24,343.71L626.94,343.41L628.64,344.31L630.34,344.87L632.04,342.5L633.74,342.25L635.44,340.34L637.14,340.24L638.83,339.13L640.53,335.26L642.23,334.21L647.33,335.97L649.03,335.67L650.73,336.67L652.43,340.24L655.83,341.8L657.52,342.05L659.22,343.81L660.92,344.16L662.62,344.76L664.32,344.06L666.02,341.7L667.72,340.69L669.42,339.84L671.12,345.52" style="vector-effect: non-scaling-stroke; fill: none; stroke: rgb(8, 115, 191); stroke-opacity: 1; stroke-width: 0.5px; opacity: 1;"/></g><g class="points"/><g class="text"/></g><g class="trace scatter tracecb9848" style="stroke-miterlimit: 2;"><g class="fills"><g><path class="js-fill" d="M688.11,380L671.12,380L671.12,345.52L674.51,340.29L676.21,340.34L677.91,339.69L679.61,338.18L681.31,338.28L683.01,329.99L684.71,331.44L686.41,331.44L688.11,335.82" style="fill: rgb(8, 115, 191); fill-opacity: 0.4; stroke-width: 0;"/></g></g><g class="errorbars"/><g class="lines"><path class="js-line" d="M671.12,345.52L674.51,340.29L676.21,340.34L677.91,339.69L679.61,338.18L681.31,338.28L683.01,329.99L684.71,331.44L686.41,331.44L688.11,335.82" style="vector-effect: non-scaling-stroke; fill: none; stroke: rgb(8, 115, 191); stroke-opacity: 1; stroke-width: 2px; opacity: 1;"/></g><g class="points"/><g class="text"/></g><g class="trace scatter trace263ec8" style="stroke-miterlimit: 2; opacity: 1;"><g class="fills"/><g class="errorbars"/><g class="lines"/><g class="points"><path class="point" transform="translate(688.11,335.82)" d="M15,0A15,15 0 1,1 0,-15A15,15 0 0,1 15,0Z" style="opacity: 1; stroke-width: 0px; fill: rgb(8, 115, 191); fill-opacity: 1;"/></g><g class="text"/></g></g></g><g class="overplot"/><path class="xlines-above crisp" style="fill: none; stroke-width: 1px; stroke: rgb(0, 0, 0); stroke-opacity: 0;" d=""/><path class="ylines-above crisp" style="fill: none;" d="M0,0"/><g class="overlines-above"/><g class="xaxislayer-above"><path class="xtick ticks crisp" d="M0,450v-5" transform="translate(106.07,0)" style="stroke: rgb(68, 68, 68); stroke-opacity: 1; stroke-width: 1px;"/><path class="xtick ticks crisp" d="M0,450v-5" transform="translate(209.71,0)" style="stroke: rgb(68, 68, 68); stroke-opacity: 1; stroke-width: 1px;"/><path class="xtick ticks crisp" d="M0,450v-5" transform="translate(309.95,0)" style="stroke: rgb(68, 68, 68); stroke-opacity: 1; stroke-width: 1px;"/><path class="xtick ticks crisp" d="M0,450v-5" transform="translate(413.59,0)" style="stroke: rgb(68, 68, 68); stroke-opacity: 1; stroke-width: 1px;"/><path class="xtick ticks crisp" d="M0,450v-5" transform="translate(517.23,0)" style="stroke: rgb(68, 68, 68); stroke-opacity: 1; stroke-width: 1px;"/><path class="xtick ticks crisp" d="M0,450v-5" transform="translate(622.57,0)" style="stroke: rgb(68, 68, 68); stroke-opacity: 1; stroke-width: 1px;"/><path class="xtick ticks crisp" d="M0,450v-5" transform="translate(726.21,0)" style="stroke: rgb(68, 68, 68); stroke-opacity: 1; stroke-width: 1px;"/><g class="xtick"><text text-anchor="middle" x="0" y="469" transform="translate(106.07,0)" style="font-family: 'Open Sans', verdana, arial, sans-serif; font-size: 18px; fill: rgb(42, 63, 95); fill-opacity: 1; white-space: pre;">01/11</text></g><g class="xtick"><text text-anchor="middle" x="0" y="469" transform="translate(209.71,0)" style="font-family: 'Open Sans', verdana, arial, sans-serif; font-size: 18px; fill: rgb(42, 63, 95); fill-opacity: 1; white-space: pre;">01/01</text></g><g class="xtick"><text text-anchor="middle" x="0" y="469" transform="translate(309.95,0)" style="font-family: 'Open Sans', verdana, arial, sans-serif; font-size: 18px; fill: rgb(42, 63, 95); fill-opacity: 1; white-space: pre;">01/03</text></g><g class="xtick"><text text-anchor="middle" x="0" y="469" transform="translate(413.59,0)" style="font-family: 'Open Sans', verdana, arial, sans-serif; font-size: 18px; fill: rgb(42, 63, 95); fill-opacity: 1; white-space: pre;">01/05</text></g><g class="xtick"><text text-anchor="middle" x="0" y="469" transform="translate(517.23,0)" style="font-family: 'Open Sans', verdana, arial, sans-serif; font-size: 18px; fill: rgb(42, 63, 95); fill-opacity: 1; white-space: pre;">01/07</text></g><g class="xtick"><text text-anchor="middle" x="0" y="469" transform="translate(622.57,0)" style="font-family: 'Open Sans', verdana, arial, sans-serif; font-size: 18px; fill: rgb(42, 63, 95); fill-opacity: 1; white-space: pre;">01/09</text></g><g class="xtick"><text text-anchor="middle" x="0" y="469" transform="translate(726.21,0)" style="font-family: 'Open Sans', verdana, arial, sans-serif; font-size: 18px; fill: rgb(42, 63, 95); fill-opacity: 1; white-space: pre;">01/11</text></g></g><g class="yaxislayer-above"/><g class="overaxes-above"/></g></g><g class="polarlayer"/><g class="ternarylayer"/><g class="geolayer"/><g class="funnelarealayer"/><g class="pielayer"/><g class="treemaplayer"/><g class="sunburstlayer"/><g class="glimages"/><defs id="topdefs-bd1190"><g class="clips"/></defs><g class="layer-above"><g class="imagelayer"/><g class="shapelayer"><path data-index="0" fill-rule="evenodd" d="M-904.85,416.84L337.14,416.84" clip-path="url('#clipbd1190xy')" style="opacity: 1; stroke: rgb(255, 0, 0); stroke-opacity: 1; fill: rgb(0, 0, 0); fill-opacity: 0; stroke-dasharray: 3px, 3px; stroke-width: 1.5px;"/></g></g><g class="infolayer"><g class="g-gtitle"><text class="gtitle" x="375" y="25" text-anchor="middle" dy="0.7em" style="font-family: 'Open Sans', verdana, arial, sans-serif; font-size: 50px; fill: rgb(42, 63, 95); opacity: 1; font-weight: normal; white-space: pre;"><tspan style="font-weight:bold">Essonne (91)</tspan></text></g><g class="g-xtitle"/><g class="annotation" data-index="0" style="opacity: 1;"><g class="annotation-text-g" transform="rotate(0,696.11,345.82)"><g class="cursor-pointer" transform="translate(653, 310)"><rect class="bg" x="0.5" y="0.5" width="86" height="71" style="stroke-width: 1px; stroke: rgb(0, 0, 0); stroke-opacity: 0; fill: rgb(255, 255, 255); fill-opacity: 0.6;"/><text class="annotation-text" text-anchor="middle" x="43.53125" y="55.5" style="font-family: 'Open Sans', verdana, arial, sans-serif; font-size: 50px; fill: rgb(8, 115, 191); fill-opacity: 1; white-space: pre;"> <tspan style="font-weight:bold">66 </tspan></text></g></g><g class="annotation-arrow-g" style="opacity: 1;"><path d="M724.51,381.32L736.11,395.82" style="stroke-width: 1px; stroke: rgb(8, 115, 191); stroke-opacity: 1; stroke-dasharray: 0px, 0px, 18.569px, 18.569px;"/></g></g></g></svg>