<svg class="main-svg" xmlns="http://www.w3.org/2000/svg" xmlns:xlink="http://www.w3.org/1999/xlink" width="1125" height="750" style="" viewBox="0 0 750 500"><rect x="0" y="0" width="750" height="500" style="fill: rgb(0, 0, 0); fill-opacity: 0;"/><defs id="defs-725216"><g class="clips"><clipPath id="clip725216xyplot" class="plotclip"><rect width="678" height="380"/></clipPath><clipPath class="axesclip" id="clip725216x"><rect x="50" y="0" width="678" height="500"/></clipPath><clipPath class="axesclip" id="clip725216y"><rect x="0" y="70" width="750" height="380"/></clipPath><clipPath class="axesclip" id="clip725216xy"><rect x="50" y="70" width="678" height="380"/></clipPath></g><g class="gradients"/></defs><g class="bglayer"><rect class="bg" x="50" y="70" width="678" height="380" style="fill: rgb(0, 0, 0); fill-opacity: 0; stroke-width: 0;"/></g><g class="layer-below"><g class="imagelayer"/><g class="shapelayer"/></g><g class="cartesianlayer"><g class="subplot xy"><g class="layer-subplot"><g class="shapelayer"/><g class="imagelayer"/></g><g class="gridlayer"><g class="x"><path class="xgrid crisp" transform="translate(106.08,0)" d="M0,70v380" style="stroke: rgb(255, 255, 255); stroke-opacity: 1; stroke-width: 1px;"/><path class="xgrid crisp" transform="translate(209.73,0)" d="M0,70v380" style="stroke: rgb(255, 255, 255); stroke-opacity: 1; stroke-width: 1px;"/><path class="xgrid crisp" transform="translate(309.98,0)" d="M0,70v380" style="stroke: rgb(255, 255, 255); stroke-opacity: 1; stroke-width: 1px;"/><path class="xgrid crisp" transform="translate(413.64,0)" d="M0,70v380" style="stroke: rgb(255, 255, 255); stroke-opacity: 1; stroke-width: 1px;"/><path class="xgrid crisp" transform="translate(517.29,0)" d="M0,70v380" style="stroke: rgb(255, 255, 255); stroke-opacity: 1; stroke-width: 1px;"/><path class="xgrid crisp" transform="translate(622.65,0)" d="M0,70v380" style="stroke: rgb(255, 255, 255); stroke-opacity: 1; stroke-width: 1px;"/><path class="xgrid crisp" transform="translate(726.3,0)" d="M0,70v380" style="stroke: rgb(255, 255, 255); stroke-opacity: 1; stroke-width: 1px;"/></g><g class="y"/></g><g class="zerolinelayer"/><path class="xlines-below"/><path class="ylines-below"/><g class="overlines-below"/><g class="xaxislayer-below"/><g class="yaxislayer-below"/><g class="overaxes-below"/><g class="plot" transform="translate(50, 70)" clip-path="url('#clip725216xyplot')"><g class="scatterlayer mlayer"><g class="trace scatter traceaf44a0" style="stroke-miterlimit: 2;"><g class="fills"><g><path class="js-fill" d="M649.11,380L-231.1,380L-231.1,351.16L-227.7,352.6L-226,353.32L-222.6,354.76L-220.9,369.18L-219.2,374.23L-217.5,372.07L-215.8,369.18L-214.11,362.69L-212.41,363.42L-210.71,364.14L-207.31,365.58L-205.61,369.91L-200.51,377.84L-198.81,377.84L-181.82,378.56L-180.12,380L-127.44,378.56L-125.74,376.39L-122.35,374.23L-120.65,374.23L-117.25,375.67L-115.55,375.67L-113.85,377.12L-112.15,375.67L-107.05,373.51L-105.35,372.79L-101.95,372.79L-100.26,376.39L-91.76,377.12L-90.06,372.07L-84.96,365.58L-83.26,364.14L-79.86,362.69L-78.17,367.02L-73.07,355.48L-71.37,353.32L-67.97,351.88L-66.27,347.55L-64.57,351.16L-62.87,348.99L-61.17,349.72L-59.47,325.2L-54.38,322.31L-52.68,316.55L-50.98,317.27L-49.28,308.61L-47.58,324.48L-45.88,325.2L-44.18,324.48L-42.48,310.78L-35.68,257.42L-33.98,255.98L-32.29,255.26L-30.59,251.65L-28.89,255.26L-27.19,227.13L-25.49,224.25L-23.79,224.25L-22.09,224.97L-20.39,224.25L-18.69,207.67L-16.99,209.83L-15.29,255.26L-13.59,255.98L-11.89,256.7L-10.2,255.26L-8.5,256.7L-6.8,275.45L-5.1,278.33L-3.4,271.84L-1.7,266.79L0,274.72L3.4,276.89L5.1,269.68L6.8,268.96L8.5,258.14L10.2,265.35L11.89,242.28L13.59,235.79L15.29,233.62L18.69,192.52L20.39,196.13L22.09,190.36L23.79,193.97L25.49,192.52L27.19,194.69L28.89,170.17L30.59,165.84L32.29,156.47L33.98,124.74L35.68,113.93L37.38,96.62L40.78,93.02L42.48,74.27L44.18,46.87L45.88,53.36L47.58,54.08L49.28,59.85L50.98,59.85L52.68,38.22L54.38,31.01L56.08,32.45L57.77,25.24L59.47,0L61.17,7.21L62.87,6.49L66.27,65.62L67.97,121.14L69.67,115.37L71.37,149.26L73.07,153.59L74.77,153.59L76.47,160.8L78.17,173.78L79.86,160.8L81.56,202.62L83.26,218.48L84.96,225.69L86.66,228.58L88.36,266.79L90.06,264.63L91.76,227.13L93.46,227.86L95.16,226.41L98.56,222.09L100.26,209.83L101.95,193.24L103.65,201.18L105.35,187.48L107.05,181.71L108.75,178.82L110.45,178.1L112.15,184.59L113.85,204.06L115.55,222.09L117.25,231.46L118.95,232.9L120.65,230.02L122.35,230.02L124.05,215.6L125.74,206.22L127.44,217.04L129.14,230.02L130.84,234.35L132.54,241.56L134.24,244.44L135.94,250.93L137.64,227.13L141.04,219.92L142.74,239.39L146.14,235.07L147.83,241.56L149.53,259.58L151.23,252.37L152.93,247.32L154.63,246.6L158.03,235.79L159.73,206.22L164.83,189.64L166.53,164.4L168.23,166.57L169.92,171.61L171.62,188.2L173.32,216.32L175.02,225.69L176.72,216.32L178.42,208.39L180.12,206.94L181.82,205.5L183.52,173.06L186.92,132.68L188.62,139.17L190.32,135.56L192.02,145.65L193.71,144.93L195.41,152.14L197.11,155.03L198.81,147.1L200.51,139.89L202.21,148.54L205.61,134.12L207.31,144.93L209.01,151.42L210.71,152.14L212.41,162.96L214.11,161.52L215.8,165.84L217.5,173.78L219.2,188.92L220.9,194.69L222.6,212.71L224.3,221.37L226,243L227.7,248.77L229.4,249.49L231.1,265.35L234.5,289.15L236.2,289.87L239.59,284.1L241.29,276.89L244.69,268.24L246.39,270.4L248.09,272.56L249.79,268.24L251.49,266.07L253.19,271.84L254.89,286.26L256.59,292.03L258.29,284.82L259.98,283.38L261.68,284.82L263.38,283.38L265.08,284.82L266.78,284.1L268.48,283.38L270.18,290.59L271.88,303.57L273.58,304.29L275.28,305.73L276.98,305.73L278.68,299.96L280.38,301.4L282.08,297.8L283.77,286.26L285.47,280.49L287.17,278.33L288.87,277.61L290.57,261.75L293.97,213.43L295.67,207.67L297.37,186.03L299.07,178.82L300.77,177.38L302.47,159.35L304.17,153.59L305.86,157.19L307.56,149.98L309.26,151.42L310.96,145.65L312.66,144.21L314.36,192.52L316.06,173.06L317.76,180.99L319.46,162.24L321.16,170.89L322.86,188.2L324.56,190.36L326.26,156.47L327.95,201.18L329.65,217.76L331.35,246.6L333.05,248.05L334.75,245.16L336.45,245.16L338.15,245.16L339.85,231.46L343.25,222.09L344.95,237.95L346.65,243L348.35,244.44L351.74,289.87L353.44,302.13L355.14,316.55L356.84,310.78L358.54,308.61L360.24,303.57L361.94,291.31L363.64,288.43L365.34,283.38L367.04,284.1L372.14,299.96L373.83,310.06L375.53,320.87L377.23,320.87L378.93,329.53L380.63,332.41L382.33,328.8L384.03,328.8L385.73,331.69L387.43,321.59L389.13,317.27L390.83,308.61L392.53,311.5L394.23,311.5L395.92,309.34L397.62,321.59L399.32,320.87L401.02,317.99L402.72,319.43L404.42,317.99L406.12,313.66L407.82,312.94L409.52,299.24L411.22,303.57L412.92,310.78L414.62,302.13L416.32,301.4L418.02,304.29L419.71,305.01L421.41,308.61L424.81,314.38L426.51,322.31L429.91,328.8L431.61,330.97L433.31,330.25L435.01,336.74L436.71,341.06L438.41,347.55L440.11,354.76L441.8,356.93L443.5,356.93L445.2,367.02L446.9,363.42L448.6,362.69L450.3,362.69L452,361.25L455.4,360.53L457.1,356.93L462.2,367.02L463.89,365.58L467.29,363.42L468.99,359.81L470.69,355.48L472.39,341.78L475.79,326.64L477.49,323.04L479.19,323.76L480.89,318.71L482.59,312.94L484.29,327.36L485.98,300.68L487.68,288.43L489.38,279.05L491.08,275.45L496.18,158.63L497.88,160.08L501.28,142.77L502.98,141.33L504.68,112.49L506.38,116.81L508.08,114.65L509.77,107.44L511.47,105.28L513.17,116.81L514.87,119.7L516.57,139.89L518.27,143.49L519.97,134.84L521.67,134.84L523.37,121.86L525.07,104.55L526.77,98.06L528.47,101.67L530.17,94.46L531.86,114.65L533.56,110.32L536.96,112.49L538.66,116.81L543.76,134.84L545.46,150.7L548.86,175.22L550.56,178.82L552.26,179.54L553.95,186.76L557.35,209.11L559.05,221.37L560.75,230.74L562.45,230.02L564.15,237.95L565.85,253.81L569.25,271.84L570.95,266.07L572.65,258.14L574.35,258.14L576.05,269.68L577.74,267.51L579.44,270.4L581.14,271.12L584.54,293.47L586.24,294.19L587.94,305.73L589.64,311.5L591.34,313.66L593.04,309.34L594.74,315.1L596.44,316.55L599.83,316.55L601.53,321.59L604.93,319.43L606.63,310.06L608.33,313.66L610.03,313.66L611.73,307.89L613.43,312.22L615.13,313.66L616.83,325.92L618.53,335.29L620.23,334.57L621.92,334.57L623.62,351.16L625.32,345.39L627.02,348.99L628.72,337.46L630.42,333.13L632.12,330.25L633.82,329.53L635.52,328.08L637.22,330.25L638.92,331.69L640.62,328.08L642.32,330.25L644.02,330.97L645.71,332.41L647.41,330.97L649.11,330.97" style="fill: rgb(8, 115, 191); fill-opacity: 0.2; stroke-width: 0;"/></g></g><g class="errorbars"/><g class="lines"><path class="js-line" d="M-231.1,351.16L-227.7,352.6L-226,353.32L-222.6,354.76L-220.9,369.18L-219.2,374.23L-217.5,372.07L-215.8,369.18L-214.11,362.69L-212.41,363.42L-210.71,364.14L-207.31,365.58L-205.61,369.91L-200.51,377.84L-198.81,377.84L-181.82,378.56L-180.12,380L-127.44,378.56L-125.74,376.39L-122.35,374.23L-120.65,374.23L-117.25,375.67L-115.55,375.67L-113.85,377.12L-112.15,375.67L-107.05,373.51L-105.35,372.79L-101.95,372.79L-100.26,376.39L-91.76,377.12L-90.06,372.07L-84.96,365.58L-83.26,364.14L-79.86,362.69L-78.17,367.02L-73.07,355.48L-71.37,353.32L-67.97,351.88L-66.27,347.55L-64.57,351.16L-62.87,348.99L-61.17,349.72L-59.47,325.2L-54.38,322.31L-52.68,316.55L-50.98,317.27L-49.28,308.61L-47.58,324.48L-45.88,325.2L-44.18,324.48L-42.48,310.78L-35.68,257.42L-33.98,255.98L-32.29,255.26L-30.59,251.65L-28.89,255.26L-27.19,227.13L-25.49,224.25L-23.79,224.25L-22.09,224.97L-20.39,224.25L-18.69,207.67L-16.99,209.83L-15.29,255.26L-13.59,255.98L-11.89,256.7L-10.2,255.26L-8.5,256.7L-6.8,275.45L-5.1,278.33L-3.4,271.84L-1.7,266.79L0,274.72L3.4,276.89L5.1,269.68L6.8,268.96L8.5,258.14L10.2,265.35L11.89,242.28L13.59,235.79L15.29,233.62L18.69,192.52L20.39,196.13L22.09,190.36L23.79,193.97L25.49,192.52L27.19,194.69L28.89,170.17L30.59,165.84L32.29,156.47L33.98,124.74L35.68,113.93L37.38,96.62L40.78,93.02L42.48,74.27L44.18,46.87L45.88,53.36L47.58,54.08L49.28,59.85L50.98,59.85L52.68,38.22L54.38,31.01L56.08,32.45L57.77,25.24L59.47,0L61.17,7.21L62.87,6.49L66.27,65.62L67.97,121.14L69.67,115.37L71.37,149.26L73.07,153.59L74.77,153.59L76.47,160.8L78.17,173.78L79.86,160.8L81.56,202.62L83.26,218.48L84.96,225.69L86.66,228.58L88.36,266.79L90.06,264.63L91.76,227.13L93.46,227.86L95.16,226.41L98.56,222.09L100.26,209.83L101.95,193.24L103.65,201.18L105.35,187.48L107.05,181.71L108.75,178.82L110.45,178.1L112.15,184.59L113.85,204.06L115.55,222.09L117.25,231.46L118.95,232.9L120.65,230.02L122.35,230.02L124.05,215.6L125.74,206.22L127.44,217.04L129.14,230.02L130.84,234.35L132.54,241.56L134.24,244.44L135.94,250.93L137.64,227.13L141.04,219.92L142.74,239.39L146.14,235.07L147.83,241.56L149.53,259.58L151.23,252.37L152.93,247.32L154.63,246.6L158.03,235.79L159.73,206.22L164.83,189.64L166.53,164.4L168.23,166.57L169.92,171.61L171.62,188.2L173.32,216.32L175.02,225.69L176.72,216.32L178.42,208.39L180.12,206.94L181.82,205.5L183.52,173.06L186.92,132.68L188.62,139.17L190.32,135.56L192.02,145.65L193.71,144.93L195.41,152.14L197.11,155.03L198.81,147.1L200.51,139.89L202.21,148.54L205.61,134.12L207.31,144.93L209.01,151.42L210.71,152.14L212.41,162.96L214.11,161.52L215.8,165.84L217.5,173.78L219.2,188.92L220.9,194.69L222.6,212.71L224.3,221.37L226,243L227.7,248.77L229.4,249.49L231.1,265.35L234.5,289.15L236.2,289.87L239.59,284.1L241.29,276.89L244.69,268.24L246.39,270.4L248.09,272.56L249.79,268.24L251.49,266.07L253.19,271.84L254.89,286.26L256.59,292.03L258.29,284.82L259.98,283.38L261.68,284.82L263.38,283.38L265.08,284.82L266.78,284.1L268.48,283.38L270.18,290.59L271.88,303.57L273.58,304.29L275.28,305.73L276.98,305.73L278.68,299.96L280.38,301.4L282.08,297.8L283.77,286.26L285.47,280.49L287.17,278.33L288.87,277.61L290.57,261.75L293.97,213.43L295.67,207.67L297.37,186.03L299.07,178.82L300.77,177.38L302.47,159.35L304.17,153.59L305.86,157.19L307.56,149.98L309.26,151.42L310.96,145.65L312.66,144.21L314.36,192.52L316.06,173.06L317.76,180.99L319.46,162.24L321.16,170.89L322.86,188.2L324.56,190.36L326.26,156.47L327.95,201.18L329.65,217.76L331.35,246.6L333.05,248.05L334.75,245.16L336.45,245.16L338.15,245.16L339.85,231.46L343.25,222.09L344.95,237.95L346.65,243L348.35,244.44L351.74,289.87L353.44,302.13L355.14,316.55L356.84,310.78L358.54,308.61L360.24,303.57L361.94,291.31L363.64,288.43L365.34,283.38L367.04,284.1L372.14,299.96L373.83,310.06L375.53,320.87L377.23,320.87L378.93,329.53L380.63,332.41L382.33,328.8L384.03,328.8L385.73,331.69L387.43,321.59L389.13,317.27L390.83,308.61L392.53,311.5L394.23,311.5L395.92,309.34L397.62,321.59L399.32,320.87L401.02,317.99L402.72,319.43L404.42,317.99L406.12,313.66L407.82,312.94L409.52,299.24L411.22,303.57L412.92,310.78L414.62,302.13L416.32,301.4L418.02,304.29L419.71,305.01L421.41,308.61L424.81,314.38L426.51,322.31L429.91,328.8L431.61,330.97L433.31,330.25L435.01,336.74L436.71,341.06L438.41,347.55L440.11,354.76L441.8,356.93L443.5,356.93L445.2,367.02L446.9,363.42L448.6,362.69L450.3,362.69L452,361.25L455.4,360.53L457.1,356.93L462.2,367.02L463.89,365.58L467.29,363.42L468.99,359.81L470.69,355.48L472.39,341.78L475.79,326.64L477.49,323.04L479.19,323.76L480.89,318.71L482.59,312.94L484.29,327.36L485.98,300.68L487.68,288.43L489.38,279.05L491.08,275.45L496.18,158.63L497.88,160.08L501.28,142.77L502.98,141.33L504.68,112.49L506.38,116.81L508.08,114.65L509.77,107.44L511.47,105.28L513.17,116.81L514.87,119.7L516.57,139.89L518.27,143.49L519.97,134.84L521.67,134.84L523.37,121.86L525.07,104.55L526.77,98.06L528.47,101.67L530.17,94.46L531.86,114.65L533.56,110.32L536.96,112.49L538.66,116.81L543.76,134.84L545.46,150.7L548.86,175.22L550.56,178.82L552.26,179.54L553.95,186.76L557.35,209.11L559.05,221.37L560.75,230.74L562.45,230.02L564.15,237.95L565.85,253.81L569.25,271.84L570.95,266.07L572.65,258.14L574.35,258.14L576.05,269.68L577.74,267.51L579.44,270.4L581.14,271.12L584.54,293.47L586.24,294.19L587.94,305.73L589.64,311.5L591.34,313.66L593.04,309.34L594.74,315.1L596.44,316.55L599.83,316.55L601.53,321.59L604.93,319.43L606.63,310.06L608.33,313.66L610.03,313.66L611.73,307.89L613.43,312.22L615.13,313.66L616.83,325.92L618.53,335.29L620.23,334.57L621.92,334.57L623.62,351.16L625.32,345.39L627.02,348.99L628.72,337.46L630.42,333.13L632.12,330.25L633.82,329.53L635.52,328.08L637.22,330.25L638.92,331.69L640.62,328.08L642.32,330.25L644.02,330.97L645.71,332.41L647.41,330.97L649.11,330.97" style="vector-effect: non-scaling-stroke; fill: none; stroke: rgb(8, 115, 191); stroke-opacity: 1; stroke-width: 0.5px; opacity: 1;"/></g><g class="points"/><g class="text"/></g><g class="trace scatter trace5383c4" style="stroke-miterlimit: 2;"><g class="fills"><g><path class="js-fill" d="M666.11,380L649.11,380L649.11,330.97L650.81,330.25L652.51,338.9L655.91,328.8L657.61,328.08L659.31,322.31L661.01,324.48L662.71,317.99L664.41,307.89L666.11,308.61" style="fill: rgb(8, 115, 191); fill-opacity: 0.4; stroke-width: 0;"/></g></g><g class="errorbars"/><g class="lines"><path class="js-line" d="M649.11,330.97L650.81,330.25L652.51,338.9L655.91,328.8L657.61,328.08L659.31,322.31L661.01,324.48L662.71,317.99L664.41,307.89L666.11,308.61" style="vector-effect: non-scaling-stroke; fill: none; stroke: rgb(8, 115, 191); stroke-opacity: 1; stroke-width: 2px; opacity: 1;"/></g><g class="points"/><g class="text"/></g><g class="trace scatter trace4653c7" style="stroke-miterlimit: 2; opacity: 1;"><g class="fills"/><g class="errorbars"/><g class="lines"/><g class="points"><path class="point" transform="translate(666.11,308.61)" d="M15,0A15,15 0 1,1 0,-15A15,15 0 0,1 15,0Z" style="opacity: 1; stroke-width: 0px; fill: rgb(8, 115, 191); fill-opacity: 1;"/></g><g class="text"/></g></g></g><g class="overplot"/><path class="xlines-above crisp" style="fill: none; stroke-width: 1px; stroke: rgb(0, 0, 0); stroke-opacity: 0;" d=""/><path class="ylines-above crisp" style="fill: none;" d="M0,0"/><g class="overlines-above"/><g class="xaxislayer-above"><path class="xtick ticks crisp" d="M0,450v-5" transform="translate(106.08,0)" style="stroke: rgb(68, 68, 68); stroke-opacity: 1; stroke-width: 1px;"/><path class="xtick ticks crisp" d="M0,450v-5" transform="translate(209.73,0)" style="stroke: rgb(68, 68, 68); stroke-opacity: 1; stroke-width: 1px;"/><path class="xtick ticks crisp" d="M0,450v-5" transform="translate(309.98,0)" style="stroke: rgb(68, 68, 68); stroke-opacity: 1; stroke-width: 1px;"/><path class="xtick ticks crisp" d="M0,450v-5" transform="translate(413.64,0)" style="stroke: rgb(68, 68, 68); stroke-opacity: 1; stroke-width: 1px;"/><path class="xtick ticks crisp" d="M0,450v-5" transform="translate(517.29,0)" style="stroke: rgb(68, 68, 68); stroke-opacity: 1; stroke-width: 1px;"/><path class="xtick ticks crisp" d="M0,450v-5" transform="translate(622.65,0)" style="stroke: rgb(68, 68, 68); stroke-opacity: 1; stroke-width: 1px;"/><path class="xtick ticks crisp" d="M0,450v-5" transform="translate(726.3,0)" style="stroke: rgb(68, 68, 68); stroke-opacity: 1; stroke-width: 1px;"/><g class="xtick"><text text-anchor="middle" x="0" y="469" transform="translate(106.08,0)" style="font-family: 'Open Sans', verdana, arial, sans-serif; font-size: 18px; fill: rgb(42, 63, 95); fill-opacity: 1; white-space: pre;">01/11</text></g><g class="xtick"><text text-anchor="middle" x="0" y="469" transform="translate(209.73,0)" style="font-family: 'Open Sans', verdana, arial, sans-serif; font-size: 18px; fill: rgb(42, 63, 95); fill-opacity: 1; white-space: pre;">01/01</text></g><g class="xtick"><text text-anchor="middle" x="0" y="469" transform="translate(309.98,0)" style="font-family: 'Open Sans', verdana, arial, sans-serif; font-size: 18px; fill: rgb(42, 63, 95); fill-opacity: 1; white-space: pre;">01/03</text></g><g class="xtick"><text text-anchor="middle" x="0" y="469" transform="translate(413.64,0)" style="font-family: 'Open Sans', verdana, arial, sans-serif; font-size: 18px; fill: rgb(42, 63, 95); fill-opacity: 1; white-space: pre;">01/05</text></g><g class="xtick"><text text-anchor="middle" x="0" y="469" transform="translate(517.29,0)" style="font-family: 'Open Sans', verdana, arial, sans-serif; font-size: 18px; fill: rgb(42, 63, 95); fill-opacity: 1; white-space: pre;">01/07</text></g><g class="xtick"><text text-anchor="middle" x="0" y="469" transform="translate(622.65,0)" style="font-family: 'Open Sans', verdana, arial, sans-serif; font-size: 18px; fill: rgb(42, 63, 95); fill-opacity: 1; white-space: pre;">01/09</text></g><g class="xtick"><text text-anchor="middle" x="0" y="469" transform="translate(726.3,0)" style="font-family: 'Open Sans', verdana, arial, sans-serif; font-size: 18px; fill: rgb(42, 63, 95); fill-opacity: 1; white-space: pre;">01/11</text></g></g><g class="yaxislayer-above"/><g class="overaxes-above"/></g></g><g class="polarlayer"/><g class="ternarylayer"/><g class="geolayer"/><g class="funnelarealayer"/><g class="pielayer"/><g class="treemaplayer"/><g class="sunburstlayer"/><g class="glimages"/><defs id="topdefs-725216"><g class="clips"/></defs><g class="layer-above"><g class="imagelayer"/><g class="shapelayer"><path data-index="0" fill-rule="evenodd" d="M-904.98,381.48L337.17,381.48" clip-path="url('#clip725216xy')" style="opacity: 1; stroke: rgb(255, 0, 0); stroke-opacity: 1; fill: rgb(0, 0, 0); fill-opacity: 0; stroke-dasharray: 3px, 3px; stroke-width: 1.5px;"/></g></g><g class="infolayer"><g class="g-gtitle"><text class="gtitle" x="375" y="25" text-anchor="middle" dy="0.7em" style="font-family: 'Open Sans', verdana, arial, sans-serif; font-size: 50px; fill: rgb(42, 63, 95); opacity: 1; font-weight: normal; white-space: pre;"><tspan style="font-weight:bold">Gers (32)</tspan></text></g><g class="g-xtitle"/><g class="annotation" data-index="0" style="opacity: 1;"><g class="annotation-text-g" transform="rotate(0,674.11,318.61)"><g class="cursor-pointer" transform="translate(631, 283)"><rect class="bg" x="0.5" y="0.5" width="86" height="71" style="stroke-width: 1px; stroke: rgb(0, 0, 0); stroke-opacity: 0; fill: rgb(255, 255, 255); fill-opacity: 0.6;"/><text class="annotation-text" text-anchor="middle" x="43.53125" y="55.5" style="font-family: 'Open Sans', verdana, arial, sans-serif; font-size: 50px; fill: rgb(8, 115, 191); fill-opacity: 1; white-space: pre;"> <tspan style="font-weight:bold">52 </tspan></text></g></g><g class="annotation-arrow-g" style="opacity: 1;"><path d="M702.51,354.11L714.11,368.61" style="stroke-width: 1px; stroke: rgb(8, 115, 191); stroke-opacity: 1; stroke-dasharray: 0px, 0px, 18.569px, 18.569px;"/></g></g></g></svg>