<svg class="main-svg" xmlns="http://www.w3.org/2000/svg" xmlns:xlink="http://www.w3.org/1999/xlink" width="1125" height="750" style="" viewBox="0 0 750 500"><rect x="0" y="0" width="750" height="500" style="fill: rgb(0, 0, 0); fill-opacity: 0;"/><defs id="defs-21bb46"><g class="clips"><clipPath id="clip21bb46xyplot" class="plotclip"><rect width="700" height="380"/></clipPath><clipPath class="axesclip" id="clip21bb46x"><rect x="50" y="0" width="700" height="500"/></clipPath><clipPath class="axesclip" id="clip21bb46y"><rect x="0" y="70" width="750" height="380"/></clipPath><clipPath class="axesclip" id="clip21bb46xy"><rect x="50" y="70" width="700" height="380"/></clipPath></g><g class="gradients"/></defs><g class="bglayer"><rect class="bg" x="50" y="70" width="700" height="380" style="fill: rgb(0, 0, 0); fill-opacity: 0; stroke-width: 0;"/></g><g class="layer-below"><g class="imagelayer"/><g class="shapelayer"/></g><g class="cartesianlayer"><g class="subplot xy"><g class="layer-subplot"><g class="shapelayer"/><g class="imagelayer"/></g><g class="gridlayer"><g class="x"><path class="xgrid crisp" transform="translate(91.25,0)" d="M0,70v380" style="stroke: rgb(255, 255, 255); stroke-opacity: 1; stroke-width: 1px;"/><path class="xgrid crisp" transform="translate(167.5,0)" d="M0,70v380" style="stroke: rgb(255, 255, 255); stroke-opacity: 1; stroke-width: 1px;"/><path class="xgrid crisp" transform="translate(241.25,0)" d="M0,70v380" style="stroke: rgb(255, 255, 255); stroke-opacity: 1; stroke-width: 1px;"/><path class="xgrid crisp" transform="translate(317.5,0)" d="M0,70v380" style="stroke: rgb(255, 255, 255); stroke-opacity: 1; stroke-width: 1px;"/><path class="xgrid crisp" transform="translate(393.75,0)" d="M0,70v380" style="stroke: rgb(255, 255, 255); stroke-opacity: 1; stroke-width: 1px;"/><path class="xgrid crisp" transform="translate(471.25,0)" d="M0,70v380" style="stroke: rgb(255, 255, 255); stroke-opacity: 1; stroke-width: 1px;"/><path class="xgrid crisp" transform="translate(547.5,0)" d="M0,70v380" style="stroke: rgb(255, 255, 255); stroke-opacity: 1; stroke-width: 1px;"/><path class="xgrid crisp" transform="translate(623.75,0)" d="M0,70v380" style="stroke: rgb(255, 255, 255); stroke-opacity: 1; stroke-width: 1px;"/><path class="xgrid crisp" transform="translate(697.5,0)" d="M0,70v380" style="stroke: rgb(255, 255, 255); stroke-opacity: 1; stroke-width: 1px;"/></g><g class="y"/></g><g class="zerolinelayer"/><path class="xlines-below"/><path class="ylines-below"/><g class="overlines-below"/><g class="xaxislayer-below"/><g class="yaxislayer-below"/><g class="overaxes-below"/><g class="plot" transform="translate(50, 70)" clip-path="url('#clip21bb46xyplot')"><g class="scatterlayer mlayer"><g class="trace scatter traceddfa42" style="stroke-miterlimit: 2;"><g class="fills"><g><path class="js-fill" d="M678.75,380L-170,380L-170,379.91L-36.25,378.87L-35,378.84L-10,377.07L-8.75,377.4L-1.25,378.06L0,377.88L3.75,376.89L5,376.46L20,374.72L21.25,373.36L22.5,372.95L23.75,371.7L27.5,367.92L28.75,367.65L31.25,365.95L32.5,365.62L35,363.79L36.25,363.94L40,365.11L41.25,366.36L42.5,366.98L43.75,368.65L46.25,368.99L47.5,368.52L50,370.08L51.25,371.17L53.75,372.43L55,372.41L56.25,374.51L57.5,374.86L58.75,374.47L60,374.97L67.5,375.68L68.75,375.89L75,377.08L76.25,377.26L80,377.81L81.25,377.87L98.75,376.89L100,376.64L103.75,375.15L105,375.54L110,375.18L111.25,375.27L115,374.22L116.25,374.13L118.75,372.61L120,372.85L122.5,370.79L123.75,371.34L127.5,371.58L128.75,370.58L130,370.82L131.25,370.29L136.25,368.55L137.5,368.69L145,367.22L146.25,367.44L155,365.11L156.25,365.36L160,366.51L161.25,367.71L162.5,369.36L163.75,369.63L170,372.21L171.25,372.14L175,373.29L176.25,373.11L177.5,373.06L178.75,372.2L183.75,371.87L185,372L188.75,372.55L190,372.79L197.5,372.38L198.75,372.14L203.75,370.43L205,369.13L212.5,367.45L213.75,367.71L221.25,367.5L222.5,366.85L226.25,365.85L227.5,364.58L230,364.03L231.25,366.36L235,363.28L236.25,363.57L238.75,363.13L240,360.98L247.5,365.2L248.75,365.47L251.25,366.3L252.5,367.34L255,367.83L256.25,367.78L260,369.37L261.25,369.58L266.25,371.29L267.5,371.4L272.5,373.63L273.75,373.91L277.5,375.51L278.75,375.98L291.25,376.17L292.5,376.69L302.5,375.51L303.75,375.9L317.5,378.29L318.75,378.43L323.75,378.94L325,379.03L350,378.35L351.25,377.76L352.5,377.46L353.75,376.05L357.5,369.3L358.75,365.71L361.25,361.71L362.5,355.72L366.25,344.09L367.5,343.14L370,342.56L371.25,342.67L373.75,345.5L375,347.45L377.5,349.38L378.75,350.02L381.25,354.09L382.5,355.55L386.25,358.92L387.5,359.21L390,362.07L391.25,362.08L395,362.39L396.25,362.6L400,363.44L401.25,364.17L406.25,366.21L407.5,367.36L412.5,370.16L413.75,370.26L416.25,372.2L417.5,373.03L422.5,374.12L423.75,374.04L428.75,374.62L430,374.72L435,375.34L436.25,375.89L442.5,376.89L443.75,377.04L453.75,377.05L455,377.31L467.5,377.02L468.75,376.72L483.75,374.74L485,375.19L488.75,376.43L490,376.28L496.25,375.6L497.5,375.46L501.25,374.71L502.5,373.5L507.5,373.11L508.75,372.46L511.25,371.94L512.5,371.08L516.25,367.41L517.5,367.21L518.75,367.03L520,365.58L523.75,361.92L525,360.07L527.5,358.91L528.75,355.55L533.75,348.34L535,346.86L537.5,346.33L538.75,345.21L540,344.56L541.25,345.18L543.75,346.75L545,346.59L546.25,347.72L547.5,350.06L552.5,354.04L553.75,354.36L555,354.8L556.25,353.01L560,345.06L561.25,346.12L562.5,343.58L563.75,330.92L568.75,283.22L570,281.68L571.25,278.43L572.5,256.5L575,232.63L576.25,226.73L577.5,218.69L578.75,205.31L580,203.69L581.25,199.96L582.5,200.52L583.75,192.96L588.75,173.09L590,152.37L596.25,56.62L597.5,51.5L598.75,24.39L600,14.41L602.5,4.29L603.75,2.89L606.25,0L607.5,4.25L608.75,6.7L610,12L611.25,19.13L612.5,30.63L615,46.46L616.25,76.5L620,147.17L621.25,166.41L623.75,185.06L625,213.02L628.75,254.66L630,262.38L632.5,270.14L633.75,281.33L638.75,302.59L640,304.8L641.25,305.05L642.5,306.91L645,312.16L646.25,313.76L648.75,318.01L650,318.3L651.25,319.63L652.5,318.92L653.75,317.98L655,315.91L657.5,308.33L658.75,307.67L662.5,291.23L663.75,288.33L665,285.41L666.25,285.32L667.5,284.23L668.75,279.98L670,278.76L671.25,275.04L673.75,269.97L675,268.48L676.25,268.4L677.5,264.94L678.75,263.85" style="fill: rgb(8, 115, 191); fill-opacity: 0.2; stroke-width: 0;"/></g></g><g class="errorbars"/><g class="lines"><path class="js-line" d="M-170,379.91L-36.25,378.87L-35,378.84L-10,377.07L-8.75,377.4L-1.25,378.06L0,377.88L3.75,376.89L5,376.46L20,374.72L21.25,373.36L22.5,372.95L23.75,371.7L27.5,367.92L28.75,367.65L31.25,365.95L32.5,365.62L35,363.79L36.25,363.94L40,365.11L41.25,366.36L42.5,366.98L43.75,368.65L46.25,368.99L47.5,368.52L50,370.08L51.25,371.17L53.75,372.43L55,372.41L56.25,374.51L57.5,374.86L58.75,374.47L60,374.97L67.5,375.68L68.75,375.89L75,377.08L76.25,377.26L80,377.81L81.25,377.87L98.75,376.89L100,376.64L103.75,375.15L105,375.54L110,375.18L111.25,375.27L115,374.22L116.25,374.13L118.75,372.61L120,372.85L122.5,370.79L123.75,371.34L127.5,371.58L128.75,370.58L130,370.82L131.25,370.29L136.25,368.55L137.5,368.69L145,367.22L146.25,367.44L155,365.11L156.25,365.36L160,366.51L161.25,367.71L162.5,369.36L163.75,369.63L170,372.21L171.25,372.14L175,373.29L176.25,373.11L177.5,373.06L178.75,372.2L183.75,371.87L185,372L188.75,372.55L190,372.79L197.5,372.38L198.75,372.14L203.75,370.43L205,369.13L212.5,367.45L213.75,367.71L221.25,367.5L222.5,366.85L226.25,365.85L227.5,364.58L230,364.03L231.25,366.36L235,363.28L236.25,363.57L238.75,363.13L240,360.98L247.5,365.2L248.75,365.47L251.25,366.3L252.5,367.34L255,367.83L256.25,367.78L260,369.37L261.25,369.58L266.25,371.29L267.5,371.4L272.5,373.63L273.75,373.91L277.5,375.51L278.75,375.98L291.25,376.17L292.5,376.69L302.5,375.51L303.75,375.9L317.5,378.29L318.75,378.43L323.75,378.94L325,379.03L350,378.35L351.25,377.76L352.5,377.46L353.75,376.05L357.5,369.3L358.75,365.71L361.25,361.71L362.5,355.72L366.25,344.09L367.5,343.14L370,342.56L371.25,342.67L373.75,345.5L375,347.45L377.5,349.38L378.75,350.02L381.25,354.09L382.5,355.55L386.25,358.92L387.5,359.21L390,362.07L391.25,362.08L395,362.39L396.25,362.6L400,363.44L401.25,364.17L406.25,366.21L407.5,367.36L412.5,370.16L413.75,370.26L416.25,372.2L417.5,373.03L422.5,374.12L423.75,374.04L428.75,374.62L430,374.72L435,375.34L436.25,375.89L442.5,376.89L443.75,377.04L453.75,377.05L455,377.31L467.5,377.02L468.75,376.72L483.75,374.74L485,375.19L488.75,376.43L490,376.28L496.25,375.6L497.5,375.46L501.25,374.71L502.5,373.5L507.5,373.11L508.75,372.46L511.25,371.94L512.5,371.08L516.25,367.41L517.5,367.21L518.75,367.03L520,365.58L523.75,361.92L525,360.07L527.5,358.91L528.75,355.55L533.75,348.34L535,346.86L537.5,346.33L538.75,345.21L540,344.56L541.25,345.18L543.75,346.75L545,346.59L546.25,347.72L547.5,350.06L552.5,354.04L553.75,354.36L555,354.8L556.25,353.01L560,345.06L561.25,346.12L562.5,343.58L563.75,330.92L568.75,283.22L570,281.68L571.25,278.43L572.5,256.5L575,232.63L576.25,226.73L577.5,218.69L578.75,205.31L580,203.69L581.25,199.96L582.5,200.52L583.75,192.96L588.75,173.09L590,152.37L596.25,56.62L597.5,51.5L598.75,24.39L600,14.41L602.5,4.29L603.75,2.89L606.25,0L607.5,4.25L608.75,6.7L610,12L611.25,19.13L612.5,30.63L615,46.46L616.25,76.5L620,147.17L621.25,166.41L623.75,185.06L625,213.02L628.75,254.66L630,262.38L632.5,270.14L633.75,281.33L638.75,302.59L640,304.8L641.25,305.05L642.5,306.91L645,312.16L646.25,313.76L648.75,318.01L650,318.3L651.25,319.63L652.5,318.92L653.75,317.98L655,315.91L657.5,308.33L658.75,307.67L662.5,291.23L663.75,288.33L665,285.41L666.25,285.32L667.5,284.23L668.75,279.98L670,278.76L671.25,275.04L673.75,269.97L675,268.48L676.25,268.4L677.5,264.94L678.75,263.85" style="vector-effect: non-scaling-stroke; fill: none; stroke: rgb(8, 115, 191); stroke-opacity: 1; stroke-width: 0.5px; opacity: 1;"/></g><g class="points"/><g class="text"/></g><g class="trace scatter traced5f391" style="stroke-miterlimit: 2;"><g class="fills"><g><path class="js-fill" d="M691.25,380L678.75,380L678.75,263.85L682.5,267.5L683.75,267.71L685,268.01L686.25,271.68L688.75,270.4L690,268.28L691.25,266.98" style="fill: rgb(8, 115, 191); fill-opacity: 0.4; stroke-width: 0;"/></g></g><g class="errorbars"/><g class="lines"><path class="js-line" d="M678.75,263.85L682.5,267.5L683.75,267.71L685,268.01L686.25,271.68L688.75,270.4L690,268.28L691.25,266.98" style="vector-effect: non-scaling-stroke; fill: none; stroke: rgb(8, 115, 191); stroke-opacity: 1; stroke-width: 2px; opacity: 1;"/></g><g class="points"/><g class="text"/></g><g class="trace scatter trace07d10c" style="stroke-miterlimit: 2; opacity: 1;"><g class="fills"/><g class="errorbars"/><g class="lines"/><g class="points"><path class="point" transform="translate(691.25,266.98)" d="M15,0A15,15 0 1,1 0,-15A15,15 0 0,1 15,0Z" style="opacity: 1; stroke-width: 0px; fill: rgb(8, 115, 191); fill-opacity: 1;"/></g><g class="text"/></g></g></g><g class="overplot"/><path class="xlines-above crisp" style="fill: none; stroke-width: 1px; stroke: rgb(0, 0, 0); stroke-opacity: 0;" d=""/><path class="ylines-above crisp" style="fill: none;" d="M0,0"/><g class="overlines-above"/><g class="xaxislayer-above"><path class="xtick ticks crisp" d="M0,450v-5" transform="translate(91.25,0)" style="stroke: rgb(68, 68, 68); stroke-opacity: 1; stroke-width: 1px;"/><path class="xtick ticks crisp" d="M0,450v-5" transform="translate(167.5,0)" style="stroke: rgb(68, 68, 68); stroke-opacity: 1; stroke-width: 1px;"/><path class="xtick ticks crisp" d="M0,450v-5" transform="translate(241.25,0)" style="stroke: rgb(68, 68, 68); stroke-opacity: 1; stroke-width: 1px;"/><path class="xtick ticks crisp" d="M0,450v-5" transform="translate(317.5,0)" style="stroke: rgb(68, 68, 68); stroke-opacity: 1; stroke-width: 1px;"/><path class="xtick ticks crisp" d="M0,450v-5" transform="translate(393.75,0)" style="stroke: rgb(68, 68, 68); stroke-opacity: 1; stroke-width: 1px;"/><path class="xtick ticks crisp" d="M0,450v-5" transform="translate(471.25,0)" style="stroke: rgb(68, 68, 68); stroke-opacity: 1; stroke-width: 1px;"/><path class="xtick ticks crisp" d="M0,450v-5" transform="translate(547.5,0)" style="stroke: rgb(68, 68, 68); stroke-opacity: 1; stroke-width: 1px;"/><path class="xtick ticks crisp" d="M0,450v-5" transform="translate(623.75,0)" style="stroke: rgb(68, 68, 68); stroke-opacity: 1; stroke-width: 1px;"/><path class="xtick ticks crisp" d="M0,450v-5" transform="translate(697.5,0)" style="stroke: rgb(68, 68, 68); stroke-opacity: 1; stroke-width: 1px;"/><g class="xtick"><text text-anchor="middle" x="0" y="469" transform="translate(91.25,0)" style="font-family: 'Open Sans', verdana, arial, sans-serif; font-size: 18px; fill: rgb(42, 63, 95); fill-opacity: 1; white-space: pre;">01/11</text></g><g class="xtick"><text text-anchor="middle" x="0" y="469" transform="translate(167.5,0)" style="font-family: 'Open Sans', verdana, arial, sans-serif; font-size: 18px; fill: rgb(42, 63, 95); fill-opacity: 1; white-space: pre;">01/01</text></g><g class="xtick"><text text-anchor="middle" x="0" y="469" transform="translate(241.25,0)" style="font-family: 'Open Sans', verdana, arial, sans-serif; font-size: 18px; fill: rgb(42, 63, 95); fill-opacity: 1; white-space: pre;">01/03</text></g><g class="xtick"><text text-anchor="middle" x="0" y="469" transform="translate(317.5,0)" style="font-family: 'Open Sans', verdana, arial, sans-serif; font-size: 18px; fill: rgb(42, 63, 95); fill-opacity: 1; white-space: pre;">01/05</text></g><g class="xtick"><text text-anchor="middle" x="0" y="469" transform="translate(393.75,0)" style="font-family: 'Open Sans', verdana, arial, sans-serif; font-size: 18px; fill: rgb(42, 63, 95); fill-opacity: 1; white-space: pre;">01/07</text></g><g class="xtick"><text text-anchor="middle" x="0" y="469" transform="translate(471.25,0)" style="font-family: 'Open Sans', verdana, arial, sans-serif; font-size: 18px; fill: rgb(42, 63, 95); fill-opacity: 1; white-space: pre;">01/09</text></g><g class="xtick"><text text-anchor="middle" x="0" y="469" transform="translate(547.5,0)" style="font-family: 'Open Sans', verdana, arial, sans-serif; font-size: 18px; fill: rgb(42, 63, 95); fill-opacity: 1; white-space: pre;">01/11</text></g><g class="xtick"><text text-anchor="middle" x="0" y="469" transform="translate(623.75,0)" style="font-family: 'Open Sans', verdana, arial, sans-serif; font-size: 18px; fill: rgb(42, 63, 95); fill-opacity: 1; white-space: pre;">01/01</text></g><g class="xtick"><text text-anchor="middle" x="0" y="469" transform="translate(697.5,0)" style="font-family: 'Open Sans', verdana, arial, sans-serif; font-size: 18px; fill: rgb(42, 63, 95); fill-opacity: 1; white-space: pre;">01/03</text></g></g><g class="yaxislayer-above"/><g class="overaxes-above"/></g></g><g class="polarlayer"/><g class="ternarylayer"/><g class="geolayer"/><g class="funnelarealayer"/><g class="pielayer"/><g class="treemaplayer"/><g class="sunburstlayer"/><g class="glimages"/><defs id="topdefs-21bb46"><g class="clips"/></defs><g class="layer-above"><g class="imagelayer"/><g class="shapelayer"><path data-index="0" fill-rule="evenodd" d="M-652.5,445.11L261.25,445.11" clip-path="url('#clip21bb46xy')" style="opacity: 1; stroke: rgb(255, 0, 0); stroke-opacity: 1; fill: rgb(0, 0, 0); fill-opacity: 0; stroke-dasharray: 3px, 3px; stroke-width: 1.5px;"/></g></g><g class="infolayer"><g class="g-gtitle"><text class="gtitle" x="375" y="25" text-anchor="middle" dy="0.7em" style="font-family: 'Open Sans', verdana, arial, sans-serif; font-size: 50px; fill: rgb(42, 63, 95); opacity: 1; font-weight: normal; white-space: pre;"><tspan style="font-weight:bold">Charente-Maritime (17)</tspan></text></g><g class="g-xtitle"/><g class="annotation" data-index="0" style="opacity: 1;"><g class="annotation-text-g" transform="rotate(0,699.25,276.98)"><g class="cursor-pointer" transform="translate(627, 241)"><rect class="bg" x="0.5" y="0.5" width="143" height="71" style="stroke-width: 1px; stroke: rgb(0, 0, 0); stroke-opacity: 0; fill: rgb(255, 255, 255); fill-opacity: 0.6;"/><text class="annotation-text" text-anchor="middle" x="72.078125" y="55.5" style="font-family: 'Open Sans', verdana, arial, sans-serif; font-size: 50px; fill: rgb(8, 115, 191); fill-opacity: 1; white-space: pre;"> <tspan style="font-weight:bold">1155 </tspan></text></g></g><g class="annotation-arrow-g" style="opacity: 1;"><path d="M727.65,312.48L739.25,326.98" style="stroke-width: 1px; stroke: rgb(8, 115, 191); stroke-opacity: 1; stroke-dasharray: 0px, 0px, 18.569px, 18.569px;"/></g></g></g></svg>