<svg class="main-svg" xmlns="http://www.w3.org/2000/svg" xmlns:xlink="http://www.w3.org/1999/xlink" width="1125" height="750" style="" viewBox="0 0 750 500"><rect x="0" y="0" width="750" height="500" style="fill: rgb(0, 0, 0); fill-opacity: 0;"/><defs id="defs-404bf2"><g class="clips"><clipPath id="clip404bf2xyplot" class="plotclip"><rect width="700" height="380"/></clipPath><clipPath class="axesclip" id="clip404bf2x"><rect x="50" y="0" width="700" height="500"/></clipPath><clipPath class="axesclip" id="clip404bf2y"><rect x="0" y="70" width="750" height="380"/></clipPath><clipPath class="axesclip" id="clip404bf2xy"><rect x="50" y="70" width="700" height="380"/></clipPath></g><g class="gradients"/></defs><g class="bglayer"><rect class="bg" x="50" y="70" width="700" height="380" style="fill: rgb(0, 0, 0); fill-opacity: 0; stroke-width: 0;"/></g><g class="layer-below"><g class="imagelayer"/><g class="shapelayer"/></g><g class="cartesianlayer"><g class="subplot xy"><g class="layer-subplot"><g class="shapelayer"/><g class="imagelayer"/></g><g class="gridlayer"><g class="x"><path class="xgrid crisp" transform="translate(104.74000000000001,0)" d="M0,70v380" style="stroke: rgb(255, 255, 255); stroke-opacity: 1; stroke-width: 1px;"/><path class="xgrid crisp" transform="translate(205.92,0)" d="M0,70v380" style="stroke: rgb(255, 255, 255); stroke-opacity: 1; stroke-width: 1px;"/><path class="xgrid crisp" transform="translate(303.78999999999996,0)" d="M0,70v380" style="stroke: rgb(255, 255, 255); stroke-opacity: 1; stroke-width: 1px;"/><path class="xgrid crisp" transform="translate(404.98,0)" d="M0,70v380" style="stroke: rgb(255, 255, 255); stroke-opacity: 1; stroke-width: 1px;"/><path class="xgrid crisp" transform="translate(506.16,0)" d="M0,70v380" style="stroke: rgb(255, 255, 255); stroke-opacity: 1; stroke-width: 1px;"/><path class="xgrid crisp" transform="translate(609,0)" d="M0,70v380" style="stroke: rgb(255, 255, 255); stroke-opacity: 1; stroke-width: 1px;"/><path class="xgrid crisp" transform="translate(710.19,0)" d="M0,70v380" style="stroke: rgb(255, 255, 255); stroke-opacity: 1; stroke-width: 1px;"/></g><g class="y"/></g><g class="zerolinelayer"/><path class="xlines-below"/><path class="ylines-below"/><g class="overlines-below"/><g class="xaxislayer-below"/><g class="yaxislayer-below"/><g class="overaxes-below"/><g class="plot" transform="translate(50, 70)" clip-path="url('#clip404bf2xyplot')"><g class="scatterlayer mlayer"><g class="trace scatter tracec519f5" style="stroke-miterlimit: 2;"><g class="fills"><g><path class="js-fill" d="M671.8,380L-225.59,380L-225.59,375.15L-222.27,376.88L-220.62,376.88L-192.42,379.31L-190.76,380L-96.21,378.27L-94.55,377.23L-87.91,374.11L-86.26,374.11L-77.96,372.72L-76.3,370.99L-72.99,367.17L-71.33,368.91L-66.35,372.03L-64.69,372.37L-61.37,373.76L-59.72,369.95L-56.4,365.09L-54.74,365.09L-49.76,364.4L-48.1,365.44L-46.45,366.48L-44.79,365.78L-43.13,365.44L-41.47,360.93L-39.81,360.24L-38.15,356.77L-36.49,354L-34.83,355.38L-33.18,356.42L-31.52,356.08L-29.86,357.12L-28.2,354L-26.54,357.12L-24.88,357.81L-23.22,355.38L-21.56,355.38L-18.25,355.38L-16.59,353.3L-14.93,351.92L-13.27,352.26L-11.61,354.34L-9.95,354.34L-6.64,354.34L-4.98,360.24L-3.32,361.97L-1.66,360.24L0,342.9L1.66,342.55L4.98,332.15L6.64,322.45L9.95,308.23L11.61,308.92L13.27,304.07L14.93,303.38L16.59,287.08L18.25,281.53L19.91,270.09L21.56,252.41L23.22,238.19L24.88,233.34L28.2,220.16L29.86,202.14L33.18,159.49L34.83,154.98L36.49,135.57L38.15,136.61L39.81,114.07L41.47,78.36L43.13,36.06L44.79,17.68L46.45,0L48.1,15.6L49.76,12.48L51.42,2.43L53.08,2.43L54.74,25.31L56.4,12.14L58.06,8.32L61.37,21.84L63.03,18.72L64.69,34.32L66.35,87.72L69.67,159.14L71.33,161.92L72.99,159.49L74.64,179.95L76.3,202.14L77.96,178.56L81.28,202.14L82.94,203.18L84.6,210.8L86.26,232.99L92.89,272.17L94.55,271.82L96.21,273.21L97.87,283.27L101.18,302.68L102.84,305.46L104.5,315.51L106.16,314.12L109.48,316.2L111.14,314.82L112.8,315.51L114.45,314.47L116.11,312.04L117.77,314.12L121.09,308.23L122.75,308.58L124.41,305.8L126.07,298.52L129.38,289.16L131.04,287.43L134.36,274.95L136.02,260.04L137.68,249.98L139.34,260.73L141,253.45L142.65,254.84L145.97,232.3L147.63,231.26L150.95,236.81L152.61,242.01L154.27,239.58L155.92,239.93L157.58,251.02L159.24,254.14L160.9,259.34L162.56,242.01L164.22,242.35L165.88,245.47L167.54,253.8L169.19,253.8L172.51,262.12L174.17,253.1L175.83,253.1L177.49,254.84L179.15,250.33L180.81,253.8L182.46,252.41L184.12,248.59L187.44,263.5L189.1,261.08L190.76,273.56L192.42,276.33L194.08,276.33L195.73,278.07L197.39,283.61L199.05,280.84L200.71,281.53L202.37,277.37L204.03,269.4L205.69,274.95L207.35,276.33L209,273.21L212.32,271.82L213.98,269.74L215.64,271.13L217.3,275.99L218.96,278.07L220.62,274.25L223.93,273.91L225.59,280.49L227.25,285.35L228.91,286.39L232.23,297.14L233.89,291.59L235.55,290.89L237.2,287.08L238.86,283.61L240.52,270.44L242.18,261.77L243.84,260.38L245.5,266.28L247.16,268.7L250.47,273.56L252.13,280.84L253.79,287.43L255.45,288.12L257.11,285L258.77,285L260.43,278.41L262.09,278.41L263.74,279.11L265.4,277.37L267.06,270.09L268.72,271.48L270.38,270.78L272.04,272.52L273.7,272.17L275.36,275.29L277.01,272.17L278.67,275.64L280.33,272.17L281.99,272.86L283.65,266.97L285.31,253.8L288.63,226.06L290.28,211.84L291.94,203.18L293.6,200.4L295.26,185.84L296.92,184.8L300.24,200.4L301.9,205.6L303.55,218.43L305.21,218.78L306.87,258.65L308.53,265.93L311.85,253.8L313.51,261.42L315.17,255.18L316.82,256.92L318.48,235.42L320.14,238.89L323.46,262.81L325.12,264.89L326.78,272.17L328.44,271.82L330.09,275.29L331.75,281.88L335.07,284.31L336.73,284.31L338.39,285.69L340.05,286.04L341.71,296.09L343.36,287.77L345.02,289.16L346.68,293.67L350,303.03L351.66,303.72L353.32,298.18L354.98,308.92L356.64,310.31L358.29,315.16L359.95,322.1L361.61,323.49L363.27,321.75L364.93,329.73L366.59,330.42L368.25,334.23L369.91,340.13L371.56,340.47L373.22,337.35L374.88,340.13L378.2,348.8L379.86,349.84L381.52,341.86L383.18,340.47L384.83,341.17L386.49,340.47L388.15,346.02L389.81,344.64L391.47,340.47L393.13,345.68L394.79,348.1L396.45,348.1L398.1,349.14L399.76,345.68L403.08,354.34L404.74,352.26L408.06,354.34L409.72,354.34L413.03,355.38L414.69,357.12L416.35,361.28L418.01,363.01L419.67,365.44L421.33,365.44L424.64,372.03L426.3,373.41L427.96,373.41L429.62,374.8L436.26,373.07L437.91,373.76L439.57,375.84L441.23,375.84L447.87,376.88L449.53,377.92L452.84,377.23L454.5,376.19L457.82,373.41L459.48,370.29L462.8,367.52L464.45,365.09L467.77,363.01L469.43,360.58L471.09,359.89L472.75,360.24L474.41,352.96L476.07,350.18L477.73,348.1L479.38,348.8L481.04,345.68L482.7,335.97L484.36,327.65L486.02,324.87L487.68,313.43L489.34,308.58L491,308.92L492.65,291.59L495.97,270.44L497.63,271.13L499.29,273.91L500.95,270.78L504.27,262.46L505.92,265.24L507.58,263.5L509.24,256.57L514.22,249.64L515.88,253.45L519.19,244.78L520.85,239.58L522.51,230.91L524.17,231.26L525.83,235.07L527.49,230.22L529.15,236.46L530.81,234.38L532.46,239.58L534.12,240.97L535.78,240.97L537.44,244.09L539.1,242.35L540.76,235.42L542.42,244.78L544.08,246.17L545.73,253.1L547.39,255.18L549.05,254.84L550.71,265.58L552.37,278.76L554.03,277.72L555.69,279.45L557.35,288.81L559,293.32L560.66,293.67L565.64,317.24L567.3,329.03L568.96,329.73L570.62,331.81L572.27,330.07L573.93,331.81L575.59,332.85L577.25,336.66L578.91,335.97L580.57,337.01L583.89,342.55L585.55,342.9L587.2,346.37L588.86,347.06L590.52,344.98L592.18,347.41L595.5,348.1L597.16,352.26L600.47,356.08L602.13,360.58L603.79,362.32L605.45,360.24L607.11,360.24L608.77,365.44L613.74,366.82L615.4,366.82L617.06,369.95L618.72,369.95L623.7,369.25L625.36,367.17L627.01,365.09L628.67,364.74L630.33,364.74L631.99,361.28L640.28,344.98L641.94,342.9L643.6,337.35L645.26,339.78L646.92,341.17L648.58,345.68L650.24,348.45L651.9,345.68L653.55,346.02L655.21,354.34L656.87,349.49L658.53,349.84L661.85,342.55L663.51,342.55L665.17,343.59L666.82,333.89L668.48,334.58L670.14,331.11L671.8,334.58" style="fill: rgb(8, 115, 191); fill-opacity: 0.2; stroke-width: 0;"/></g></g><g class="errorbars"/><g class="lines"><path class="js-line" d="M-225.59,375.15L-222.27,376.88L-220.62,376.88L-192.42,379.31L-190.76,380L-96.21,378.27L-94.55,377.23L-87.91,374.11L-86.26,374.11L-77.96,372.72L-76.3,370.99L-72.99,367.17L-71.33,368.91L-66.35,372.03L-64.69,372.37L-61.37,373.76L-59.72,369.95L-56.4,365.09L-54.74,365.09L-49.76,364.4L-48.1,365.44L-46.45,366.48L-44.79,365.78L-43.13,365.44L-41.47,360.93L-39.81,360.24L-38.15,356.77L-36.49,354L-34.83,355.38L-33.18,356.42L-31.52,356.08L-29.86,357.12L-28.2,354L-26.54,357.12L-24.88,357.81L-23.22,355.38L-21.56,355.38L-18.25,355.38L-16.59,353.3L-14.93,351.92L-13.27,352.26L-11.61,354.34L-9.95,354.34L-6.64,354.34L-4.98,360.24L-3.32,361.97L-1.66,360.24L0,342.9L1.66,342.55L4.98,332.15L6.64,322.45L9.95,308.23L11.61,308.92L13.27,304.07L14.93,303.38L16.59,287.08L18.25,281.53L19.91,270.09L21.56,252.41L23.22,238.19L24.88,233.34L28.2,220.16L29.86,202.14L33.18,159.49L34.83,154.98L36.49,135.57L38.15,136.61L39.81,114.07L41.47,78.36L43.13,36.06L44.79,17.68L46.45,0L48.1,15.6L49.76,12.48L51.42,2.43L53.08,2.43L54.74,25.31L56.4,12.14L58.06,8.32L61.37,21.84L63.03,18.72L64.69,34.32L66.35,87.72L69.67,159.14L71.33,161.92L72.99,159.49L74.64,179.95L76.3,202.14L77.96,178.56L81.28,202.14L82.94,203.18L84.6,210.8L86.26,232.99L92.89,272.17L94.55,271.82L96.21,273.21L97.87,283.27L101.18,302.68L102.84,305.46L104.5,315.51L106.16,314.12L109.48,316.2L111.14,314.82L112.8,315.51L114.45,314.47L116.11,312.04L117.77,314.12L121.09,308.23L122.75,308.58L124.41,305.8L126.07,298.52L129.38,289.16L131.04,287.43L134.36,274.95L136.02,260.04L137.68,249.98L139.34,260.73L141,253.45L142.65,254.84L145.97,232.3L147.63,231.26L150.95,236.81L152.61,242.01L154.27,239.58L155.92,239.93L157.58,251.02L159.24,254.14L160.9,259.34L162.56,242.01L164.22,242.35L165.88,245.47L167.54,253.8L169.19,253.8L172.51,262.12L174.17,253.1L175.83,253.1L177.49,254.84L179.15,250.33L180.81,253.8L182.46,252.41L184.12,248.59L187.44,263.5L189.1,261.08L190.76,273.56L192.42,276.33L194.08,276.33L195.73,278.07L197.39,283.61L199.05,280.84L200.71,281.53L202.37,277.37L204.03,269.4L205.69,274.95L207.35,276.33L209,273.21L212.32,271.82L213.98,269.74L215.64,271.13L217.3,275.99L218.96,278.07L220.62,274.25L223.93,273.91L225.59,280.49L227.25,285.35L228.91,286.39L232.23,297.14L233.89,291.59L235.55,290.89L237.2,287.08L238.86,283.61L240.52,270.44L242.18,261.77L243.84,260.38L245.5,266.28L247.16,268.7L250.47,273.56L252.13,280.84L253.79,287.43L255.45,288.12L257.11,285L258.77,285L260.43,278.41L262.09,278.41L263.74,279.11L265.4,277.37L267.06,270.09L268.72,271.48L270.38,270.78L272.04,272.52L273.7,272.17L275.36,275.29L277.01,272.17L278.67,275.64L280.33,272.17L281.99,272.86L283.65,266.97L285.31,253.8L288.63,226.06L290.28,211.84L291.94,203.18L293.6,200.4L295.26,185.84L296.92,184.8L300.24,200.4L301.9,205.6L303.55,218.43L305.21,218.78L306.87,258.65L308.53,265.93L311.85,253.8L313.51,261.42L315.17,255.18L316.82,256.92L318.48,235.42L320.14,238.89L323.46,262.81L325.12,264.89L326.78,272.17L328.44,271.82L330.09,275.29L331.75,281.88L335.07,284.31L336.73,284.31L338.39,285.69L340.05,286.04L341.71,296.09L343.36,287.77L345.02,289.16L346.68,293.67L350,303.03L351.66,303.72L353.32,298.18L354.98,308.92L356.64,310.31L358.29,315.16L359.95,322.1L361.61,323.49L363.27,321.75L364.93,329.73L366.59,330.42L368.25,334.23L369.91,340.13L371.56,340.47L373.22,337.35L374.88,340.13L378.2,348.8L379.86,349.84L381.52,341.86L383.18,340.47L384.83,341.17L386.49,340.47L388.15,346.02L389.81,344.64L391.47,340.47L393.13,345.68L394.79,348.1L396.45,348.1L398.1,349.14L399.76,345.68L403.08,354.34L404.74,352.26L408.06,354.34L409.72,354.34L413.03,355.38L414.69,357.12L416.35,361.28L418.01,363.01L419.67,365.44L421.33,365.44L424.64,372.03L426.3,373.41L427.96,373.41L429.62,374.8L436.26,373.07L437.91,373.76L439.57,375.84L441.23,375.84L447.87,376.88L449.53,377.92L452.84,377.23L454.5,376.19L457.82,373.41L459.48,370.29L462.8,367.52L464.45,365.09L467.77,363.01L469.43,360.58L471.09,359.89L472.75,360.24L474.41,352.96L476.07,350.18L477.73,348.1L479.38,348.8L481.04,345.68L482.7,335.97L484.36,327.65L486.02,324.87L487.68,313.43L489.34,308.58L491,308.92L492.65,291.59L495.97,270.44L497.63,271.13L499.29,273.91L500.95,270.78L504.27,262.46L505.92,265.24L507.58,263.5L509.24,256.57L514.22,249.64L515.88,253.45L519.19,244.78L520.85,239.58L522.51,230.91L524.17,231.26L525.83,235.07L527.49,230.22L529.15,236.46L530.81,234.38L532.46,239.58L534.12,240.97L535.78,240.97L537.44,244.09L539.1,242.35L540.76,235.42L542.42,244.78L544.08,246.17L545.73,253.1L547.39,255.18L549.05,254.84L550.71,265.58L552.37,278.76L554.03,277.72L555.69,279.45L557.35,288.81L559,293.32L560.66,293.67L565.64,317.24L567.3,329.03L568.96,329.73L570.62,331.81L572.27,330.07L573.93,331.81L575.59,332.85L577.25,336.66L578.91,335.97L580.57,337.01L583.89,342.55L585.55,342.9L587.2,346.37L588.86,347.06L590.52,344.98L592.18,347.41L595.5,348.1L597.16,352.26L600.47,356.08L602.13,360.58L603.79,362.32L605.45,360.24L607.11,360.24L608.77,365.44L613.74,366.82L615.4,366.82L617.06,369.95L618.72,369.95L623.7,369.25L625.36,367.17L627.01,365.09L628.67,364.74L630.33,364.74L631.99,361.28L640.28,344.98L641.94,342.9L643.6,337.35L645.26,339.78L646.92,341.17L648.58,345.68L650.24,348.45L651.9,345.68L653.55,346.02L655.21,354.34L656.87,349.49L658.53,349.84L661.85,342.55L663.51,342.55L665.17,343.59L666.82,333.89L668.48,334.58L670.14,331.11L671.8,334.58" style="vector-effect: non-scaling-stroke; fill: none; stroke: rgb(8, 115, 191); stroke-opacity: 1; stroke-width: 0.5px; opacity: 1;"/></g><g class="points"/><g class="text"/></g><g class="trace scatter trace7b8d27" style="stroke-miterlimit: 2;"><g class="fills"><g><path class="js-fill" d="M688.39,380L671.8,380L671.8,334.58L673.46,322.45L675.12,324.53L676.78,322.45L678.44,315.86L680.09,307.54L681.75,305.11L683.41,289.85L685.07,296.09L686.73,286.39L688.39,286.04" style="fill: rgb(8, 115, 191); fill-opacity: 0.4; stroke-width: 0;"/></g></g><g class="errorbars"/><g class="lines"><path class="js-line" d="M671.8,334.58L673.46,322.45L675.12,324.53L676.78,322.45L678.44,315.86L680.09,307.54L681.75,305.11L683.41,289.85L685.07,296.09L686.73,286.39L688.39,286.04" style="vector-effect: non-scaling-stroke; fill: none; stroke: rgb(8, 115, 191); stroke-opacity: 1; stroke-width: 2px; opacity: 1;"/></g><g class="points"/><g class="text"/></g><g class="trace scatter trace4e1792" style="stroke-miterlimit: 2; opacity: 1;"><g class="fills"/><g class="errorbars"/><g class="lines"/><g class="points"><path class="point" transform="translate(688.39,286.04)" d="M15,0A15,15 0 1,1 0,-15A15,15 0 0,1 15,0Z" style="opacity: 1; stroke-width: 0px; fill: rgb(8, 115, 191); fill-opacity: 1;"/></g><g class="text"/></g></g></g><g class="overplot"/><path class="xlines-above crisp" style="fill: none; stroke-width: 1px; stroke: rgb(0, 0, 0); stroke-opacity: 0;" d=""/><path class="ylines-above crisp" style="fill: none;" d="M0,0"/><g class="overlines-above"/><g class="xaxislayer-above"><path class="xtick ticks crisp" d="M0,450v-5" transform="translate(104.74000000000001,0)" style="stroke: rgb(68, 68, 68); stroke-opacity: 1; stroke-width: 1px;"/><path class="xtick ticks crisp" d="M0,450v-5" transform="translate(205.92,0)" style="stroke: rgb(68, 68, 68); stroke-opacity: 1; stroke-width: 1px;"/><path class="xtick ticks crisp" d="M0,450v-5" transform="translate(303.78999999999996,0)" style="stroke: rgb(68, 68, 68); stroke-opacity: 1; stroke-width: 1px;"/><path class="xtick ticks crisp" d="M0,450v-5" transform="translate(404.98,0)" style="stroke: rgb(68, 68, 68); stroke-opacity: 1; stroke-width: 1px;"/><path class="xtick ticks crisp" d="M0,450v-5" transform="translate(506.16,0)" style="stroke: rgb(68, 68, 68); stroke-opacity: 1; stroke-width: 1px;"/><path class="xtick ticks crisp" d="M0,450v-5" transform="translate(609,0)" style="stroke: rgb(68, 68, 68); stroke-opacity: 1; stroke-width: 1px;"/><path class="xtick ticks crisp" d="M0,450v-5" transform="translate(710.19,0)" style="stroke: rgb(68, 68, 68); stroke-opacity: 1; stroke-width: 1px;"/><g class="xtick"><text text-anchor="middle" x="0" y="469" transform="translate(104.74000000000001,0)" style="font-family: 'Open Sans', verdana, arial, sans-serif; font-size: 18px; fill: rgb(42, 63, 95); fill-opacity: 1; white-space: pre;">01/11</text></g><g class="xtick"><text text-anchor="middle" x="0" y="469" transform="translate(205.92,0)" style="font-family: 'Open Sans', verdana, arial, sans-serif; font-size: 18px; fill: rgb(42, 63, 95); fill-opacity: 1; white-space: pre;">01/01</text></g><g class="xtick"><text text-anchor="middle" x="0" y="469" transform="translate(303.78999999999996,0)" style="font-family: 'Open Sans', verdana, arial, sans-serif; font-size: 18px; fill: rgb(42, 63, 95); fill-opacity: 1; white-space: pre;">01/03</text></g><g class="xtick"><text text-anchor="middle" x="0" y="469" transform="translate(404.98,0)" style="font-family: 'Open Sans', verdana, arial, sans-serif; font-size: 18px; fill: rgb(42, 63, 95); fill-opacity: 1; white-space: pre;">01/05</text></g><g class="xtick"><text text-anchor="middle" x="0" y="469" transform="translate(506.16,0)" style="font-family: 'Open Sans', verdana, arial, sans-serif; font-size: 18px; fill: rgb(42, 63, 95); fill-opacity: 1; white-space: pre;">01/07</text></g><g class="xtick"><text text-anchor="middle" x="0" y="469" transform="translate(609,0)" style="font-family: 'Open Sans', verdana, arial, sans-serif; font-size: 18px; fill: rgb(42, 63, 95); fill-opacity: 1; white-space: pre;">01/09</text></g><g class="xtick"><text text-anchor="middle" x="0" y="469" transform="translate(710.19,0)" style="font-family: 'Open Sans', verdana, arial, sans-serif; font-size: 18px; fill: rgb(42, 63, 95); fill-opacity: 1; white-space: pre;">01/11</text></g></g><g class="yaxislayer-above"/><g class="overaxes-above"/></g></g><g class="polarlayer"/><g class="ternarylayer"/><g class="geolayer"/><g class="funnelarealayer"/><g class="pielayer"/><g class="treemaplayer"/><g class="sunburstlayer"/><g class="glimages"/><defs id="topdefs-404bf2"><g class="clips"/></defs><g class="layer-above"><g class="imagelayer"/><g class="shapelayer"><path data-index="0" fill-rule="evenodd" d="M-882.23,425.43L330.33,425.43" clip-path="url('#clip404bf2xy')" style="opacity: 1; stroke: rgb(255, 0, 0); stroke-opacity: 1; fill: rgb(0, 0, 0); fill-opacity: 0; stroke-dasharray: 3px, 3px; stroke-width: 1.5px;"/></g></g><g class="infolayer"><g class="g-gtitle"><text class="gtitle" x="375" y="25" text-anchor="middle" dy="0.7em" style="font-family: 'Open Sans', verdana, arial, sans-serif; font-size: 50px; fill: rgb(42, 63, 95); opacity: 1; font-weight: normal; white-space: pre;"><tspan style="font-weight:bold">Hautes-Alpes (05)</tspan></text></g><g class="g-xtitle"/><g class="annotation" data-index="0" style="opacity: 1;"><g class="annotation-text-g" transform="rotate(0,696.39,296.04)"><g class="cursor-pointer" transform="translate(638, 260)"><rect class="bg" x="0.5" y="0.5" width="115" height="71" style="stroke-width: 1px; stroke: rgb(0, 0, 0); stroke-opacity: 0; fill: rgb(255, 255, 255); fill-opacity: 0.6;"/><text class="annotation-text" text-anchor="middle" x="57.8125" y="55.5" style="font-family: 'Open Sans', verdana, arial, sans-serif; font-size: 50px; fill: rgb(8, 115, 191); fill-opacity: 1; white-space: pre;"> <tspan style="font-weight:bold">191 </tspan></text></g></g><g class="annotation-arrow-g" style="opacity: 1;"><path d="M724.79,331.54L736.39,346.04" style="stroke-width: 1px; stroke: rgb(8, 115, 191); stroke-opacity: 1; stroke-dasharray: 0px, 0px, 18.5691px, 18.5691px;"/></g></g></g></svg>