<svg class="main-svg" xmlns="http://www.w3.org/2000/svg" xmlns:xlink="http://www.w3.org/1999/xlink" width="1125" height="750" style="" viewBox="0 0 750 500"><rect x="0" y="0" width="750" height="500" style="fill: rgb(0, 0, 0); fill-opacity: 0;"/><defs id="defs-28c9f7"><g class="clips"><clipPath id="clip28c9f7xyplot" class="plotclip"><rect width="700" height="380"/></clipPath><clipPath class="axesclip" id="clip28c9f7x"><rect x="50" y="0" width="700" height="500"/></clipPath><clipPath class="axesclip" id="clip28c9f7y"><rect x="0" y="70" width="750" height="380"/></clipPath><clipPath class="axesclip" id="clip28c9f7xy"><rect x="50" y="70" width="700" height="380"/></clipPath></g><g class="gradients"/></defs><g class="bglayer"><rect class="bg" x="50" y="70" width="700" height="380" style="fill: rgb(0, 0, 0); fill-opacity: 0; stroke-width: 0;"/></g><g class="layer-below"><g class="imagelayer"/><g class="shapelayer"/></g><g class="cartesianlayer"><g class="subplot xy"><g class="layer-subplot"><g class="shapelayer"/><g class="imagelayer"/></g><g class="gridlayer"><g class="x"><path class="xgrid crisp" transform="translate(91.7,0)" d="M0,70v380" style="stroke: rgb(255, 255, 255); stroke-opacity: 1; stroke-width: 1px;"/><path class="xgrid crisp" transform="translate(168.76999999999998,0)" d="M0,70v380" style="stroke: rgb(255, 255, 255); stroke-opacity: 1; stroke-width: 1px;"/><path class="xgrid crisp" transform="translate(243.32,0)" d="M0,70v380" style="stroke: rgb(255, 255, 255); stroke-opacity: 1; stroke-width: 1px;"/><path class="xgrid crisp" transform="translate(320.4,0)" d="M0,70v380" style="stroke: rgb(255, 255, 255); stroke-opacity: 1; stroke-width: 1px;"/><path class="xgrid crisp" transform="translate(397.47,0)" d="M0,70v380" style="stroke: rgb(255, 255, 255); stroke-opacity: 1; stroke-width: 1px;"/><path class="xgrid crisp" transform="translate(475.81,0)" d="M0,70v380" style="stroke: rgb(255, 255, 255); stroke-opacity: 1; stroke-width: 1px;"/><path class="xgrid crisp" transform="translate(552.89,0)" d="M0,70v380" style="stroke: rgb(255, 255, 255); stroke-opacity: 1; stroke-width: 1px;"/><path class="xgrid crisp" transform="translate(629.96,0)" d="M0,70v380" style="stroke: rgb(255, 255, 255); stroke-opacity: 1; stroke-width: 1px;"/><path class="xgrid crisp" transform="translate(704.51,0)" d="M0,70v380" style="stroke: rgb(255, 255, 255); stroke-opacity: 1; stroke-width: 1px;"/></g><g class="y"/></g><g class="zerolinelayer"/><path class="xlines-below"/><path class="ylines-below"/><g class="overlines-below"/><g class="xaxislayer-below"/><g class="yaxislayer-below"/><g class="overaxes-below"/><g class="plot" transform="translate(50, 70)" clip-path="url('#clip28c9f7xyplot')"><g class="scatterlayer mlayer"><g class="trace scatter tracebfbea6" style="stroke-miterlimit: 2;"><g class="fills"><g><path class="js-fill" d="M678.52,380L-171.84,380L-171.84,379.78L-50.54,378.79L-49.28,378.62L-31.59,375.87L-30.32,375.47L-26.53,373.75L-25.27,373.84L-21.48,373.1L-20.22,372.88L-16.43,372.05L-15.16,371.96L-12.64,371.43L-11.37,372.23L-5.05,372.68L-3.79,372.88L0,371.76L1.26,372.03L6.32,371.65L7.58,370.87L11.37,370.29L12.64,368.03L15.16,366.67L16.43,366.33L18.95,365.4L20.22,365.31L21.48,365.6L22.74,364.77L27.8,358.9L29.06,358.85L31.59,355.64L32.85,354.14L34.12,354.61L35.38,353.58L37.91,353.94L39.17,352.11L41.7,349.79L42.96,348.74L45.49,347.96L46.75,347.98L48.01,348.85L49.28,351.08L50.54,356.51L51.81,356.78L54.33,359.88L55.6,359.9L58.12,363.7L59.39,361.87L61.91,366.76L63.18,366.76L64.44,366.76L65.7,368.23L66.97,368.92L68.23,368.34L70.76,368.95L72.02,368.79L74.55,369.01L75.81,367.61L78.34,365.98L79.6,365.75L83.39,365.89L84.66,367.54L85.92,369.39L87.18,369.44L90.97,368.5L92.24,368.55L94.77,368.68L96.03,369.26L98.56,370.15L99.82,370.22L102.35,370.09L103.61,369.57L104.87,369.93L106.14,371.2L108.66,371.11L109.93,370.2L113.72,367.65L114.98,367.54L118.77,366.22L120.04,366.71L122.56,366.6L123.83,364.24L126.35,364.97L127.62,365.31L136.46,364.77L137.73,363.74L138.99,364.1L140.25,363.43L141.52,361.76L142.78,361.53L144.04,361.51L145.31,359.59L146.57,359.55L147.83,358.32L150.36,357.76L151.62,358.14L152.89,358.09L154.15,359.88L159.21,366.04L160.47,366.47L161.73,366.56L163,367.5L165.52,368.81L166.79,370.09L169.31,371.34L170.58,371.45L173.1,372.85L174.37,373.21L183.21,372.72L184.48,373.17L192.06,374.55L193.32,374.53L198.38,374.22L199.64,373.5L205.96,373.17L207.22,372.41L218.59,373.08L219.86,372.43L223.65,371.51L224.91,371.22L226.17,370.76L227.44,371.27L232.49,371.63L233.75,373.37L235.02,372.05L236.28,371.85L238.81,371.74L240.07,371.02L241.34,371.09L242.6,368.66L243.86,369.91L245.13,369.8L247.65,368.9L248.92,369.53L251.44,369.95L252.71,370.4L255.23,370.93L256.5,371.76L260.29,371.67L261.55,371.83L264.08,372.85L265.34,372.65L269.13,374.19L270.4,374.24L272.92,373.7L274.19,373.7L280.51,373.3L281.77,374.37L289.35,372.94L290.61,371.54L294.4,371.78L295.67,373.52L298.19,372.56L299.46,372.7L301.99,371.92L303.25,371.92L304.51,370.38L305.78,371.2L308.3,371.6L309.57,372.36L314.62,373.79L315.88,374.86L323.47,376.36L324.73,376.2L325.99,376.05L327.26,375.11L333.57,375.15L334.84,374.95L336.1,375.67L337.36,375.51L339.89,374.89L341.16,374.75L344.95,375.27L346.21,375.4L348.74,376.16L350,376.27L353.79,376.61L355.05,376.47L357.58,375.87L358.84,374.69L360.11,375L361.37,372.65L363.9,368.61L365.16,368.46L368.95,357.45L370.22,356.15L372.74,353.96L374.01,353.81L376.53,351.44L377.8,351.44L379.06,351.49L380.32,352.33L381.59,353.43L382.85,353.47L385.38,357.34L386.64,358.12L389.17,359.68L390.43,359.43L394.22,359.9L395.49,360.71L401.81,362.2L403.07,363.59L424.55,373.06L425.81,372.94L428.34,373.39L429.6,374.04L433.39,374.82L434.66,375.07L435.92,375.04L437.18,375.82L447.29,378.19L448.56,378.19L457.4,378.19L458.66,378.41L464.98,378.64L466.25,378.57L480.14,377.99L481.41,377.14L487.73,375.89L488.99,375.82L494.04,376.63L495.31,376.65L500.36,376.54L501.62,376L506.68,373.28L507.94,371.11L510.47,369.48L511.73,370.24L514.26,366.96L515.52,367.03L518.05,361.38L519.31,359.39L520.58,355.35L521.84,355.46L526.9,353.14L528.16,352.02L529.42,350.82L530.69,348.36L531.95,347.06L533.21,347L539.53,335.85L540.79,335.74L543.32,335.41L544.58,335.19L545.85,335.56L547.11,337.46L549.64,339.25L550.9,339.03L557.22,344.45L558.48,343.78L561.01,344.36L562.27,343.47L566.06,331.28L567.33,333.49L568.59,332.39L569.86,316.67L574.91,257.99L576.17,257.79L577.44,255.34L578.7,231.8L581.23,208.94L582.49,200.79L583.75,190.16L585.02,171.24L588.81,157.31L590.07,149.36L592.6,137.03L593.86,131.34L595.13,130.67L596.39,118.93L600.18,79.34L601.44,66.88L602.71,56.27L603.97,52.9L606.5,14.6L607.76,7.37L609.03,5.09L610.29,1.12L611.55,1.67L612.82,0L621.66,46.09L622.92,64.8L629.24,149.61L630.51,154.05L633.03,202.08L634.3,214.81L638.09,240.33L639.35,242.23L641.88,260.05L643.14,269.72L645.67,284.25L646.93,288.38L648.19,288.78L649.46,292.02L650.72,296.15L651.99,297.18L655.78,301.16L657.04,301.53L658.3,304.08L659.57,303.88L660.83,304.35L662.09,302.58L663.36,302.09L664.62,300.53L665.88,300.26L667.15,295.71L668.41,293.97L669.68,290.93L670.94,289.83L672.2,287.69L674.73,287.24L675.99,284.61L678.52,278.71" style="fill: rgb(8, 115, 191); fill-opacity: 0.2; stroke-width: 0;"/></g></g><g class="errorbars"/><g class="lines"><path class="js-line" d="M-171.84,379.78L-50.54,378.79L-49.28,378.62L-31.59,375.87L-30.32,375.47L-26.53,373.75L-25.27,373.84L-21.48,373.1L-20.22,372.88L-16.43,372.05L-15.16,371.96L-12.64,371.43L-11.37,372.23L-5.05,372.68L-3.79,372.88L0,371.76L1.26,372.03L6.32,371.65L7.58,370.87L11.37,370.29L12.64,368.03L15.16,366.67L16.43,366.33L18.95,365.4L20.22,365.31L21.48,365.6L22.74,364.77L27.8,358.9L29.06,358.85L31.59,355.64L32.85,354.14L34.12,354.61L35.38,353.58L37.91,353.94L39.17,352.11L41.7,349.79L42.96,348.74L45.49,347.96L46.75,347.98L48.01,348.85L49.28,351.08L50.54,356.51L51.81,356.78L54.33,359.88L55.6,359.9L58.12,363.7L59.39,361.87L61.91,366.76L63.18,366.76L64.44,366.76L65.7,368.23L66.97,368.92L68.23,368.34L70.76,368.95L72.02,368.79L74.55,369.01L75.81,367.61L78.34,365.98L79.6,365.75L83.39,365.89L84.66,367.54L85.92,369.39L87.18,369.44L90.97,368.5L92.24,368.55L94.77,368.68L96.03,369.26L98.56,370.15L99.82,370.22L102.35,370.09L103.61,369.57L104.87,369.93L106.14,371.2L108.66,371.11L109.93,370.2L113.72,367.65L114.98,367.54L118.77,366.22L120.04,366.71L122.56,366.6L123.83,364.24L126.35,364.97L127.62,365.31L136.46,364.77L137.73,363.74L138.99,364.1L140.25,363.43L141.52,361.76L142.78,361.53L144.04,361.51L145.31,359.59L146.57,359.55L147.83,358.32L150.36,357.76L151.62,358.14L152.89,358.09L154.15,359.88L159.21,366.04L160.47,366.47L161.73,366.56L163,367.5L165.52,368.81L166.79,370.09L169.31,371.34L170.58,371.45L173.1,372.85L174.37,373.21L183.21,372.72L184.48,373.17L192.06,374.55L193.32,374.53L198.38,374.22L199.64,373.5L205.96,373.17L207.22,372.41L218.59,373.08L219.86,372.43L223.65,371.51L224.91,371.22L226.17,370.76L227.44,371.27L232.49,371.63L233.75,373.37L235.02,372.05L236.28,371.85L238.81,371.74L240.07,371.02L241.34,371.09L242.6,368.66L243.86,369.91L245.13,369.8L247.65,368.9L248.92,369.53L251.44,369.95L252.71,370.4L255.23,370.93L256.5,371.76L260.29,371.67L261.55,371.83L264.08,372.85L265.34,372.65L269.13,374.19L270.4,374.24L272.92,373.7L274.19,373.7L280.51,373.3L281.77,374.37L289.35,372.94L290.61,371.54L294.4,371.78L295.67,373.52L298.19,372.56L299.46,372.7L301.99,371.92L303.25,371.92L304.51,370.38L305.78,371.2L308.3,371.6L309.57,372.36L314.62,373.79L315.88,374.86L323.47,376.36L324.73,376.2L325.99,376.05L327.26,375.11L333.57,375.15L334.84,374.95L336.1,375.67L337.36,375.51L339.89,374.89L341.16,374.75L344.95,375.27L346.21,375.4L348.74,376.16L350,376.27L353.79,376.61L355.05,376.47L357.58,375.87L358.84,374.69L360.11,375L361.37,372.65L363.9,368.61L365.16,368.46L368.95,357.45L370.22,356.15L372.74,353.96L374.01,353.81L376.53,351.44L377.8,351.44L379.06,351.49L380.32,352.33L381.59,353.43L382.85,353.47L385.38,357.34L386.64,358.12L389.17,359.68L390.43,359.43L394.22,359.9L395.49,360.71L401.81,362.2L403.07,363.59L424.55,373.06L425.81,372.94L428.34,373.39L429.6,374.04L433.39,374.82L434.66,375.07L435.92,375.04L437.18,375.82L447.29,378.19L448.56,378.19L457.4,378.19L458.66,378.41L464.98,378.64L466.25,378.57L480.14,377.99L481.41,377.14L487.73,375.89L488.99,375.82L494.04,376.63L495.31,376.65L500.36,376.54L501.62,376L506.68,373.28L507.94,371.11L510.47,369.48L511.73,370.24L514.26,366.96L515.52,367.03L518.05,361.38L519.31,359.39L520.58,355.35L521.84,355.46L526.9,353.14L528.16,352.02L529.42,350.82L530.69,348.36L531.95,347.06L533.21,347L539.53,335.85L540.79,335.74L543.32,335.41L544.58,335.19L545.85,335.56L547.11,337.46L549.64,339.25L550.9,339.03L557.22,344.45L558.48,343.78L561.01,344.36L562.27,343.47L566.06,331.28L567.33,333.49L568.59,332.39L569.86,316.67L574.91,257.99L576.17,257.79L577.44,255.34L578.7,231.8L581.23,208.94L582.49,200.79L583.75,190.16L585.02,171.24L588.81,157.31L590.07,149.36L592.6,137.03L593.86,131.34L595.13,130.67L596.39,118.93L600.18,79.34L601.44,66.88L602.71,56.27L603.97,52.9L606.5,14.6L607.76,7.37L609.03,5.09L610.29,1.12L611.55,1.67L612.82,0L621.66,46.09L622.92,64.8L629.24,149.61L630.51,154.05L633.03,202.08L634.3,214.81L638.09,240.33L639.35,242.23L641.88,260.05L643.14,269.72L645.67,284.25L646.93,288.38L648.19,288.78L649.46,292.02L650.72,296.15L651.99,297.18L655.78,301.16L657.04,301.53L658.3,304.08L659.57,303.88L660.83,304.35L662.09,302.58L663.36,302.09L664.62,300.53L665.88,300.26L667.15,295.71L668.41,293.97L669.68,290.93L670.94,289.83L672.2,287.69L674.73,287.24L675.99,284.61L678.52,278.71" style="vector-effect: non-scaling-stroke; fill: none; stroke: rgb(8, 115, 191); stroke-opacity: 1; stroke-width: 0.5px; opacity: 1;"/></g><g class="points"/><g class="text"/></g><g class="trace scatter trace1b57b2" style="stroke-miterlimit: 2;"><g class="fills"><g><path class="js-fill" d="M691.16,380L678.52,380L678.52,278.71L681.05,276.73L682.31,274.87L683.57,275.45L684.84,274.45L687.36,272.44L688.63,271.39L691.16,273.38" style="fill: rgb(8, 115, 191); fill-opacity: 0.4; stroke-width: 0;"/></g></g><g class="errorbars"/><g class="lines"><path class="js-line" d="M678.52,278.71L681.05,276.73L682.31,274.87L683.57,275.45L684.84,274.45L687.36,272.44L688.63,271.39L691.16,273.38" style="vector-effect: non-scaling-stroke; fill: none; stroke: rgb(8, 115, 191); stroke-opacity: 1; stroke-width: 2px; opacity: 1;"/></g><g class="points"/><g class="text"/></g><g class="trace scatter trace78534a" style="stroke-miterlimit: 2; opacity: 1;"><g class="fills"/><g class="errorbars"/><g class="lines"/><g class="points"><path class="point" transform="translate(691.16,273.38)" d="M15,0A15,15 0 1,1 0,-15A15,15 0 0,1 15,0Z" style="opacity: 1; stroke-width: 0px; fill: rgb(8, 115, 191); fill-opacity: 1;"/></g><g class="text"/></g></g></g><g class="overplot"/><path class="xlines-above crisp" style="fill: none; stroke-width: 1px; stroke: rgb(0, 0, 0); stroke-opacity: 0;" d=""/><path class="ylines-above crisp" style="fill: none;" d="M0,0"/><g class="overlines-above"/><g class="xaxislayer-above"><path class="xtick ticks crisp" d="M0,450v-5" transform="translate(91.7,0)" style="stroke: rgb(68, 68, 68); stroke-opacity: 1; stroke-width: 1px;"/><path class="xtick ticks crisp" d="M0,450v-5" transform="translate(168.76999999999998,0)" style="stroke: rgb(68, 68, 68); stroke-opacity: 1; stroke-width: 1px;"/><path class="xtick ticks crisp" d="M0,450v-5" transform="translate(243.32,0)" style="stroke: rgb(68, 68, 68); stroke-opacity: 1; stroke-width: 1px;"/><path class="xtick ticks crisp" d="M0,450v-5" transform="translate(320.4,0)" style="stroke: rgb(68, 68, 68); stroke-opacity: 1; stroke-width: 1px;"/><path class="xtick ticks crisp" d="M0,450v-5" transform="translate(397.47,0)" style="stroke: rgb(68, 68, 68); stroke-opacity: 1; stroke-width: 1px;"/><path class="xtick ticks crisp" d="M0,450v-5" transform="translate(475.81,0)" style="stroke: rgb(68, 68, 68); stroke-opacity: 1; stroke-width: 1px;"/><path class="xtick ticks crisp" d="M0,450v-5" transform="translate(552.89,0)" style="stroke: rgb(68, 68, 68); stroke-opacity: 1; stroke-width: 1px;"/><path class="xtick ticks crisp" d="M0,450v-5" transform="translate(629.96,0)" style="stroke: rgb(68, 68, 68); stroke-opacity: 1; stroke-width: 1px;"/><path class="xtick ticks crisp" d="M0,450v-5" transform="translate(704.51,0)" style="stroke: rgb(68, 68, 68); stroke-opacity: 1; stroke-width: 1px;"/><g class="xtick"><text text-anchor="middle" x="0" y="469" transform="translate(91.7,0)" style="font-family: 'Open Sans', verdana, arial, sans-serif; font-size: 18px; fill: rgb(42, 63, 95); fill-opacity: 1; white-space: pre;">01/11</text></g><g class="xtick"><text text-anchor="middle" x="0" y="469" transform="translate(168.76999999999998,0)" style="font-family: 'Open Sans', verdana, arial, sans-serif; font-size: 18px; fill: rgb(42, 63, 95); fill-opacity: 1; white-space: pre;">01/01</text></g><g class="xtick"><text text-anchor="middle" x="0" y="469" transform="translate(243.32,0)" style="font-family: 'Open Sans', verdana, arial, sans-serif; font-size: 18px; fill: rgb(42, 63, 95); fill-opacity: 1; white-space: pre;">01/03</text></g><g class="xtick"><text text-anchor="middle" x="0" y="469" transform="translate(320.4,0)" style="font-family: 'Open Sans', verdana, arial, sans-serif; font-size: 18px; fill: rgb(42, 63, 95); fill-opacity: 1; white-space: pre;">01/05</text></g><g class="xtick"><text text-anchor="middle" x="0" y="469" transform="translate(397.47,0)" style="font-family: 'Open Sans', verdana, arial, sans-serif; font-size: 18px; fill: rgb(42, 63, 95); fill-opacity: 1; white-space: pre;">01/07</text></g><g class="xtick"><text text-anchor="middle" x="0" y="469" transform="translate(475.81,0)" style="font-family: 'Open Sans', verdana, arial, sans-serif; font-size: 18px; fill: rgb(42, 63, 95); fill-opacity: 1; white-space: pre;">01/09</text></g><g class="xtick"><text text-anchor="middle" x="0" y="469" transform="translate(552.89,0)" style="font-family: 'Open Sans', verdana, arial, sans-serif; font-size: 18px; fill: rgb(42, 63, 95); fill-opacity: 1; white-space: pre;">01/11</text></g><g class="xtick"><text text-anchor="middle" x="0" y="469" transform="translate(629.96,0)" style="font-family: 'Open Sans', verdana, arial, sans-serif; font-size: 18px; fill: rgb(42, 63, 95); fill-opacity: 1; white-space: pre;">01/01</text></g><g class="xtick"><text text-anchor="middle" x="0" y="469" transform="translate(704.51,0)" style="font-family: 'Open Sans', verdana, arial, sans-serif; font-size: 18px; fill: rgb(42, 63, 95); fill-opacity: 1; white-space: pre;">01/03</text></g></g><g class="yaxislayer-above"/><g class="overaxes-above"/></g></g><g class="polarlayer"/><g class="ternarylayer"/><g class="geolayer"/><g class="funnelarealayer"/><g class="pielayer"/><g class="treemaplayer"/><g class="sunburstlayer"/><g class="glimages"/><defs id="topdefs-28c9f7"><g class="clips"/></defs><g class="layer-above"><g class="imagelayer"/><g class="shapelayer"><path data-index="0" fill-rule="evenodd" d="M-660.11,445.4L263.53999999999996,445.4" clip-path="url('#clip28c9f7xy')" style="opacity: 1; stroke: rgb(255, 0, 0); stroke-opacity: 1; fill: rgb(0, 0, 0); fill-opacity: 0; stroke-dasharray: 3px, 3px; stroke-width: 1.5px;"/></g></g><g class="infolayer"><g class="g-gtitle"><text class="gtitle" x="375" y="25" text-anchor="middle" dy="0.7em" style="font-family: 'Open Sans', verdana, arial, sans-serif; font-size: 50px; fill: rgb(42, 63, 95); opacity: 1; font-weight: normal; white-space: pre;"><tspan style="font-weight:bold">Landes (40)</tspan></text></g><g class="g-xtitle"/><g class="annotation" data-index="0" style="opacity: 1;"><g class="annotation-text-g" transform="rotate(0,699.16,283.38)"><g class="cursor-pointer" transform="translate(627, 247)"><rect class="bg" x="0.5" y="0.5" width="143" height="71" style="stroke-width: 1px; stroke: rgb(0, 0, 0); stroke-opacity: 0; fill: rgb(255, 255, 255); fill-opacity: 0.6;"/><text class="annotation-text" text-anchor="middle" x="72.078125" y="55.5" style="font-family: 'Open Sans', verdana, arial, sans-serif; font-size: 50px; fill: rgb(8, 115, 191); fill-opacity: 1; white-space: pre;"> <tspan style="font-weight:bold">1159 </tspan></text></g></g><g class="annotation-arrow-g" style="opacity: 1;"><path d="M727.56,318.88L739.16,333.38" style="stroke-width: 1px; stroke: rgb(8, 115, 191); stroke-opacity: 1; stroke-dasharray: 0px, 0px, 18.569px, 18.569px;"/></g></g></g></svg>