<svg class="main-svg" xmlns="http://www.w3.org/2000/svg" xmlns:xlink="http://www.w3.org/1999/xlink" width="1125" height="750" style="" viewBox="0 0 750 500"><rect x="0" y="0" width="750" height="500" style="fill: rgb(0, 0, 0); fill-opacity: 0;"/><defs id="defs-9700fc"><g class="clips"><clipPath id="clip9700fcxyplot" class="plotclip"><rect width="700" height="380"/></clipPath><clipPath class="axesclip" id="clip9700fcx"><rect x="50" y="0" width="700" height="500"/></clipPath><clipPath class="axesclip" id="clip9700fcy"><rect x="0" y="70" width="750" height="380"/></clipPath><clipPath class="axesclip" id="clip9700fcxy"><rect x="50" y="70" width="700" height="380"/></clipPath></g><g class="gradients"/></defs><g class="bglayer"><rect class="bg" x="50" y="70" width="700" height="380" style="fill: rgb(0, 0, 0); fill-opacity: 0; stroke-width: 0;"/></g><g class="layer-below"><g class="imagelayer"/><g class="shapelayer"/></g><g class="cartesianlayer"><g class="subplot xy"><g class="layer-subplot"><g class="shapelayer"/><g class="imagelayer"/></g><g class="gridlayer"><g class="x"><path class="xgrid crisp" transform="translate(101.78999999999999,0)" d="M0,70v380" style="stroke: rgb(255, 255, 255); stroke-opacity: 1; stroke-width: 1px;"/><path class="xgrid crisp" transform="translate(197.53,0)" d="M0,70v380" style="stroke: rgb(255, 255, 255); stroke-opacity: 1; stroke-width: 1px;"/><path class="xgrid crisp" transform="translate(290.13,0)" d="M0,70v380" style="stroke: rgb(255, 255, 255); stroke-opacity: 1; stroke-width: 1px;"/><path class="xgrid crisp" transform="translate(385.87,0)" d="M0,70v380" style="stroke: rgb(255, 255, 255); stroke-opacity: 1; stroke-width: 1px;"/><path class="xgrid crisp" transform="translate(481.61,0)" d="M0,70v380" style="stroke: rgb(255, 255, 255); stroke-opacity: 1; stroke-width: 1px;"/><path class="xgrid crisp" transform="translate(578.92,0)" d="M0,70v380" style="stroke: rgb(255, 255, 255); stroke-opacity: 1; stroke-width: 1px;"/><path class="xgrid crisp" transform="translate(674.66,0)" d="M0,70v380" style="stroke: rgb(255, 255, 255); stroke-opacity: 1; stroke-width: 1px;"/></g><g class="y"/></g><g class="zerolinelayer"/><path class="xlines-below"/><path class="ylines-below"/><g class="overlines-below"/><g class="xaxislayer-below"/><g class="yaxislayer-below"/><g class="overaxes-below"/><g class="plot" transform="translate(50, 70)" clip-path="url('#clip9700fcxyplot')"><g class="scatterlayer mlayer"><g class="trace scatter tracef4ed72" style="stroke-miterlimit: 2;"><g class="fills"><g><path class="js-fill" d="M673.32,380L-213.45,380L-213.45,376.61L-207.17,376.61L-205.61,376.98L-199.33,376.98L-197.76,376.98L-191.48,378.49L-189.91,375.48L-177.35,378.12L-175.78,378.49L-106.73,379.25L-105.16,379.25L-92.6,377.74L-91.03,377.36L-87.89,376.23L-86.32,376.61L-81.61,375.1L-80.04,373.97L-76.91,374.72L-75.34,374.35L-70.63,375.85L-69.06,376.23L-62.78,373.59L-61.21,370.95L-59.64,367.56L-58.07,367.56L-54.93,368.31L-53.36,367.18L-51.79,367.18L-50.22,365.67L-48.65,366.05L-47.09,363.79L-43.95,357.76L-42.38,358.89L-39.24,359.64L-37.67,356.63L-31.39,346.83L-29.82,345.69L-28.25,337.02L-26.68,340.79L-23.54,343.43L-21.97,342.3L-20.4,341.55L-18.83,342.68L-17.26,345.32L-15.7,339.29L-14.13,340.04L-12.56,335.52L-9.42,331.37L-7.85,330.62L-6.28,328.73L-4.71,328.35L-3.14,326.09L-1.57,327.22L0,330.24L1.57,327.98L4.71,329.11L6.28,326.85L7.85,320.81L9.42,321.57L12.56,317.8L14.13,317.8L15.7,316.29L17.26,321.19L18.83,322.7L20.4,321.57L21.97,320.06L23.54,323.45L25.11,322.32L26.68,313.65L29.82,271.05L31.39,246.55L34.53,218.27L36.1,216.39L39.24,176.81L40.81,162.48L42.38,148.91L43.95,123.27L45.52,117.62L47.09,118L48.65,95.38L50.22,96.51L51.79,96.51L53.36,94.25L54.93,78.04L56.5,85.95L58.07,87.08L59.64,97.64L61.21,92.36L62.78,139.48L64.35,150.04L65.92,182.08L67.49,187.36L69.06,188.49L72.2,235.24L73.77,220.16L76.91,269.92L78.48,269.92L80.04,269.54L81.61,288.39L83.18,299.7L84.75,302.34L86.32,300.83L87.89,309.13L89.46,313.65L91.03,313.65L92.6,314.4L94.17,317.8L95.74,324.21L97.31,323.45L98.88,317.04L100.45,315.16L102.02,315.16L103.59,319.68L106.73,320.44L108.3,324.96L109.87,332.12L111.43,334.01L113,334.01L114.57,330.99L116.14,332.12L117.71,330.62L122.42,312.9L123.99,313.27L125.56,311.01L127.13,304.23L128.7,302.72L130.27,305.73L131.84,320.06L133.41,322.32L136.55,320.44L138.12,320.44L141.26,308.37L142.83,308.37L144.39,301.96L145.96,302.72L147.53,287.64L149.1,280.1L150.67,280.85L152.24,280.48L153.81,263.51L155.38,268.04L156.95,267.66L158.52,274.44L160.09,267.28L161.66,266.15L166.37,258.99L167.94,258.23L169.51,237.88L171.08,231.47L174.22,220.16L175.78,223.17L177.35,217.14L178.92,216.77L180.49,222.42L182.06,232.6L183.63,227.7L185.2,225.44L186.77,225.06L188.34,221.67L189.91,216.39L191.48,222.8L193.05,203.57L194.62,204.33L196.19,210.73L197.76,199.8L200.9,208.47L202.47,213.75L204.04,234.48L205.61,234.48L207.17,241.27L208.74,254.09L210.31,252.2L211.88,254.84L213.45,252.2L215.02,253.71L216.59,254.46L218.16,252.96L221.3,236.75L222.87,234.86L227.58,208.47L229.15,193.77L230.72,193.02L232.29,200.18L233.86,202.44L235.43,216.39L238.57,242.02L240.13,250.32L241.7,247.68L243.27,246.92L244.84,248.43L246.41,251.07L247.98,242.78L249.55,247.68L251.12,244.66L252.69,247.3L254.26,246.17L255.83,243.91L257.4,234.86L258.97,233.73L260.54,227.7L262.11,229.96L263.68,224.68L265.25,223.17L266.82,224.68L268.39,214.13L273.09,183.21L274.66,182.08L276.23,179.44L277.8,178.31L279.37,183.21L280.94,156.83L284.08,165.87L285.65,163.23L287.22,165.87L288.79,164.37L290.36,195.28L291.93,205.08L293.5,212.24L295.07,201.31L296.64,211.49L298.21,210.73L299.78,212.62L301.35,172.66L302.91,193.39L304.48,183.59L306.05,186.61L307.62,174.92L309.19,170.77L310.76,168.89L313.9,177.94L315.47,185.48L320.18,208.47L321.75,209.23L324.89,218.65L326.46,231.85L328.03,238.25L329.6,248.43L331.17,260.5L332.74,257.48L334.3,271.05L335.87,274.44L337.44,274.82L339.01,281.98L343.72,292.92L345.29,290.65L346.86,295.93L348.43,292.92L350,305.36L351.57,303.1L353.14,297.82L354.71,297.44L357.85,313.65L359.42,320.44L360.99,312.52L362.56,320.06L365.7,320.81L367.26,332.5L368.83,328.35L370.4,332.12L371.97,332.5L373.54,334.38L375.11,327.6L376.68,326.09L378.25,312.14L379.82,320.06L382.96,324.96L384.53,324.21L386.1,330.24L387.67,333.25L389.24,337.78L390.81,336.27L392.38,337.78L393.95,337.78L397.09,347.2L398.65,347.2L401.79,360.77L403.36,360.02L404.93,363.79L406.5,365.3L408.07,367.18L409.64,367.18L412.78,369.07L414.35,372.84L415.92,374.72L417.49,374.35L420.63,373.21L422.2,373.21L423.77,373.59L425.34,371.71L426.91,369.82L428.48,372.08L431.61,372.08L433.18,369.82L434.75,369.07L436.32,366.81L437.89,366.43L439.46,364.92L441.03,361.9L442.6,361.9L444.17,361.9L445.74,358.13L447.31,362.28L448.88,358.89L450.45,354.74L452.02,353.61L453.59,353.23L455.16,348.33L456.73,345.69L458.3,336.65L459.87,332.5L461.43,323.45L463,318.17L464.57,317.04L469.28,283.87L470.85,278.97L473.99,270.67L475.56,268.41L477.13,267.28L478.7,275.2L483.41,261.63L484.98,263.51L486.55,263.51L488.12,258.23L489.69,248.43L491.26,246.17L492.83,239.38L494.39,246.55L495.96,240.89L497.53,241.65L499.1,240.89L500.67,242.78L503.81,254.09L505.38,253.71L506.95,262L508.52,262.76L510.09,265.4L511.66,269.54L513.23,272.56L514.8,278.59L516.37,277.46L517.94,277.46L519.51,278.59L521.08,288.77L525.78,312.9L527.35,326.09L528.92,330.24L530.49,329.48L535.2,344.19L536.77,343.81L538.34,343.81L539.91,346.07L541.48,347.96L543.05,354.74L544.62,358.51L546.19,359.27L547.76,361.53L549.33,361.53L552.47,360.4L554.04,357L555.61,354.74L557.17,357.38L560.31,358.89L561.88,362.28L563.45,362.28L565.02,366.43L566.59,366.05L568.16,364.17L569.73,365.3L571.3,364.54L574.44,363.04L576.01,364.54L577.58,365.3L579.15,367.94L580.72,369.07L582.29,371.33L585.43,372.46L587,370.58L590.13,366.05L591.7,361.9L593.27,360.77L594.84,355.87L596.41,355.12L597.98,349.09L602.69,324.21L604.26,312.9L605.83,313.27L607.4,311.77L608.97,304.98L610.54,305.73L613.68,302.34L615.25,303.85L618.39,300.83L619.96,311.39L623.09,292.16L624.66,291.41L627.8,285.75L629.37,288.39L630.94,273.31L632.51,276.33L635.65,302.72L637.22,298.57L640.36,288.02L641.93,275.95L645.07,261.63L646.64,245.79L648.21,239.38L649.78,242.78L651.35,246.55L652.91,244.66L654.48,245.04L656.05,240.89L659.19,223.17L660.76,205.83L662.33,205.08L663.9,185.85L667.04,153.06L668.61,121.01L670.18,100.28L671.75,92.74L673.32,91.23" style="fill: rgb(8, 115, 191); fill-opacity: 0.2; stroke-width: 0;"/></g></g><g class="errorbars"/><g class="lines"><path class="js-line" d="M-213.45,376.61L-207.17,376.61L-205.61,376.98L-199.33,376.98L-197.76,376.98L-191.48,378.49L-189.91,375.48L-177.35,378.12L-175.78,378.49L-106.73,379.25L-105.16,379.25L-92.6,377.74L-91.03,377.36L-87.89,376.23L-86.32,376.61L-81.61,375.1L-80.04,373.97L-76.91,374.72L-75.34,374.35L-70.63,375.85L-69.06,376.23L-62.78,373.59L-61.21,370.95L-59.64,367.56L-58.07,367.56L-54.93,368.31L-53.36,367.18L-51.79,367.18L-50.22,365.67L-48.65,366.05L-47.09,363.79L-43.95,357.76L-42.38,358.89L-39.24,359.64L-37.67,356.63L-31.39,346.83L-29.82,345.69L-28.25,337.02L-26.68,340.79L-23.54,343.43L-21.97,342.3L-20.4,341.55L-18.83,342.68L-17.26,345.32L-15.7,339.29L-14.13,340.04L-12.56,335.52L-9.42,331.37L-7.85,330.62L-6.28,328.73L-4.71,328.35L-3.14,326.09L-1.57,327.22L0,330.24L1.57,327.98L4.71,329.11L6.28,326.85L7.85,320.81L9.42,321.57L12.56,317.8L14.13,317.8L15.7,316.29L17.26,321.19L18.83,322.7L20.4,321.57L21.97,320.06L23.54,323.45L25.11,322.32L26.68,313.65L29.82,271.05L31.39,246.55L34.53,218.27L36.1,216.39L39.24,176.81L40.81,162.48L42.38,148.91L43.95,123.27L45.52,117.62L47.09,118L48.65,95.38L50.22,96.51L51.79,96.51L53.36,94.25L54.93,78.04L56.5,85.95L58.07,87.08L59.64,97.64L61.21,92.36L62.78,139.48L64.35,150.04L65.92,182.08L67.49,187.36L69.06,188.49L72.2,235.24L73.77,220.16L76.91,269.92L78.48,269.92L80.04,269.54L81.61,288.39L83.18,299.7L84.75,302.34L86.32,300.83L87.89,309.13L89.46,313.65L91.03,313.65L92.6,314.4L94.17,317.8L95.74,324.21L97.31,323.45L98.88,317.04L100.45,315.16L102.02,315.16L103.59,319.68L106.73,320.44L108.3,324.96L109.87,332.12L111.43,334.01L113,334.01L114.57,330.99L116.14,332.12L117.71,330.62L122.42,312.9L123.99,313.27L125.56,311.01L127.13,304.23L128.7,302.72L130.27,305.73L131.84,320.06L133.41,322.32L136.55,320.44L138.12,320.44L141.26,308.37L142.83,308.37L144.39,301.96L145.96,302.72L147.53,287.64L149.1,280.1L150.67,280.85L152.24,280.48L153.81,263.51L155.38,268.04L156.95,267.66L158.52,274.44L160.09,267.28L161.66,266.15L166.37,258.99L167.94,258.23L169.51,237.88L171.08,231.47L174.22,220.16L175.78,223.17L177.35,217.14L178.92,216.77L180.49,222.42L182.06,232.6L183.63,227.7L185.2,225.44L186.77,225.06L188.34,221.67L189.91,216.39L191.48,222.8L193.05,203.57L194.62,204.33L196.19,210.73L197.76,199.8L200.9,208.47L202.47,213.75L204.04,234.48L205.61,234.48L207.17,241.27L208.74,254.09L210.31,252.2L211.88,254.84L213.45,252.2L215.02,253.71L216.59,254.46L218.16,252.96L221.3,236.75L222.87,234.86L227.58,208.47L229.15,193.77L230.72,193.02L232.29,200.18L233.86,202.44L235.43,216.39L238.57,242.02L240.13,250.32L241.7,247.68L243.27,246.92L244.84,248.43L246.41,251.07L247.98,242.78L249.55,247.68L251.12,244.66L252.69,247.3L254.26,246.17L255.83,243.91L257.4,234.86L258.97,233.73L260.54,227.7L262.11,229.96L263.68,224.68L265.25,223.17L266.82,224.68L268.39,214.13L273.09,183.21L274.66,182.08L276.23,179.44L277.8,178.31L279.37,183.21L280.94,156.83L284.08,165.87L285.65,163.23L287.22,165.87L288.79,164.37L290.36,195.28L291.93,205.08L293.5,212.24L295.07,201.31L296.64,211.49L298.21,210.73L299.78,212.62L301.35,172.66L302.91,193.39L304.48,183.59L306.05,186.61L307.62,174.92L309.19,170.77L310.76,168.89L313.9,177.94L315.47,185.48L320.18,208.47L321.75,209.23L324.89,218.65L326.46,231.85L328.03,238.25L329.6,248.43L331.17,260.5L332.74,257.48L334.3,271.05L335.87,274.44L337.44,274.82L339.01,281.98L343.72,292.92L345.29,290.65L346.86,295.93L348.43,292.92L350,305.36L351.57,303.1L353.14,297.82L354.71,297.44L357.85,313.65L359.42,320.44L360.99,312.52L362.56,320.06L365.7,320.81L367.26,332.5L368.83,328.35L370.4,332.12L371.97,332.5L373.54,334.38L375.11,327.6L376.68,326.09L378.25,312.14L379.82,320.06L382.96,324.96L384.53,324.21L386.1,330.24L387.67,333.25L389.24,337.78L390.81,336.27L392.38,337.78L393.95,337.78L397.09,347.2L398.65,347.2L401.79,360.77L403.36,360.02L404.93,363.79L406.5,365.3L408.07,367.18L409.64,367.18L412.78,369.07L414.35,372.84L415.92,374.72L417.49,374.35L420.63,373.21L422.2,373.21L423.77,373.59L425.34,371.71L426.91,369.82L428.48,372.08L431.61,372.08L433.18,369.82L434.75,369.07L436.32,366.81L437.89,366.43L439.46,364.92L441.03,361.9L442.6,361.9L444.17,361.9L445.74,358.13L447.31,362.28L448.88,358.89L450.45,354.74L452.02,353.61L453.59,353.23L455.16,348.33L456.73,345.69L458.3,336.65L459.87,332.5L461.43,323.45L463,318.17L464.57,317.04L469.28,283.87L470.85,278.97L473.99,270.67L475.56,268.41L477.13,267.28L478.7,275.2L483.41,261.63L484.98,263.51L486.55,263.51L488.12,258.23L489.69,248.43L491.26,246.17L492.83,239.38L494.39,246.55L495.96,240.89L497.53,241.65L499.1,240.89L500.67,242.78L503.81,254.09L505.38,253.71L506.95,262L508.52,262.76L510.09,265.4L511.66,269.54L513.23,272.56L514.8,278.59L516.37,277.46L517.94,277.46L519.51,278.59L521.08,288.77L525.78,312.9L527.35,326.09L528.92,330.24L530.49,329.48L535.2,344.19L536.77,343.81L538.34,343.81L539.91,346.07L541.48,347.96L543.05,354.74L544.62,358.51L546.19,359.27L547.76,361.53L549.33,361.53L552.47,360.4L554.04,357L555.61,354.74L557.17,357.38L560.31,358.89L561.88,362.28L563.45,362.28L565.02,366.43L566.59,366.05L568.16,364.17L569.73,365.3L571.3,364.54L574.44,363.04L576.01,364.54L577.58,365.3L579.15,367.94L580.72,369.07L582.29,371.33L585.43,372.46L587,370.58L590.13,366.05L591.7,361.9L593.27,360.77L594.84,355.87L596.41,355.12L597.98,349.09L602.69,324.21L604.26,312.9L605.83,313.27L607.4,311.77L608.97,304.98L610.54,305.73L613.68,302.34L615.25,303.85L618.39,300.83L619.96,311.39L623.09,292.16L624.66,291.41L627.8,285.75L629.37,288.39L630.94,273.31L632.51,276.33L635.65,302.72L637.22,298.57L640.36,288.02L641.93,275.95L645.07,261.63L646.64,245.79L648.21,239.38L649.78,242.78L651.35,246.55L652.91,244.66L654.48,245.04L656.05,240.89L659.19,223.17L660.76,205.83L662.33,205.08L663.9,185.85L667.04,153.06L668.61,121.01L670.18,100.28L671.75,92.74L673.32,91.23" style="vector-effect: non-scaling-stroke; fill: none; stroke: rgb(8, 115, 191); stroke-opacity: 1; stroke-width: 0.5px; opacity: 1;"/></g><g class="points"/><g class="text"/></g><g class="trace scatter trace0e888b" style="stroke-miterlimit: 2;"><g class="fills"><g><path class="js-fill" d="M689.01,380L673.32,380L673.32,91.23L674.89,56.17L676.46,41.47L678.03,21.87L679.6,25.63L681.17,13.19L682.74,13.19L684.3,9.42L685.87,0L687.44,1.13L689.01,3.77" style="fill: rgb(8, 115, 191); fill-opacity: 0.4; stroke-width: 0;"/></g></g><g class="errorbars"/><g class="lines"><path class="js-line" d="M673.32,91.23L674.89,56.17L676.46,41.47L678.03,21.87L679.6,25.63L681.17,13.19L682.74,13.19L684.3,9.42L685.87,0L687.44,1.13L689.01,3.77" style="vector-effect: non-scaling-stroke; fill: none; stroke: rgb(8, 115, 191); stroke-opacity: 1; stroke-width: 2px; opacity: 1;"/></g><g class="points"/><g class="text"/></g><g class="trace scatter trace2f2e48" style="stroke-miterlimit: 2; opacity: 1;"><g class="fills"/><g class="errorbars"/><g class="lines"/><g class="points"><path class="point" transform="translate(689.01,3.77)" d="M15,0A15,15 0 1,1 0,-15A15,15 0 0,1 15,0Z" style="opacity: 1; stroke-width: 0px; fill: rgb(8, 115, 191); fill-opacity: 1;"/></g><g class="text"/></g></g></g><g class="overplot"/><path class="xlines-above crisp" style="fill: none; stroke-width: 1px; stroke: rgb(0, 0, 0); stroke-opacity: 0;" d=""/><path class="ylines-above crisp" style="fill: none;" d="M0,0"/><g class="overlines-above"/><g class="xaxislayer-above"><path class="xtick ticks crisp" d="M0,450v-5" transform="translate(101.78999999999999,0)" style="stroke: rgb(68, 68, 68); stroke-opacity: 1; stroke-width: 1px;"/><path class="xtick ticks crisp" d="M0,450v-5" transform="translate(197.53,0)" style="stroke: rgb(68, 68, 68); stroke-opacity: 1; stroke-width: 1px;"/><path class="xtick ticks crisp" d="M0,450v-5" transform="translate(290.13,0)" style="stroke: rgb(68, 68, 68); stroke-opacity: 1; stroke-width: 1px;"/><path class="xtick ticks crisp" d="M0,450v-5" transform="translate(385.87,0)" style="stroke: rgb(68, 68, 68); stroke-opacity: 1; stroke-width: 1px;"/><path class="xtick ticks crisp" d="M0,450v-5" transform="translate(481.61,0)" style="stroke: rgb(68, 68, 68); stroke-opacity: 1; stroke-width: 1px;"/><path class="xtick ticks crisp" d="M0,450v-5" transform="translate(578.92,0)" style="stroke: rgb(68, 68, 68); stroke-opacity: 1; stroke-width: 1px;"/><path class="xtick ticks crisp" d="M0,450v-5" transform="translate(674.66,0)" style="stroke: rgb(68, 68, 68); stroke-opacity: 1; stroke-width: 1px;"/><g class="xtick"><text text-anchor="middle" x="0" y="469" transform="translate(101.78999999999999,0)" style="font-family: 'Open Sans', verdana, arial, sans-serif; font-size: 18px; fill: rgb(42, 63, 95); fill-opacity: 1; white-space: pre;">01/11</text></g><g class="xtick"><text text-anchor="middle" x="0" y="469" transform="translate(197.53,0)" style="font-family: 'Open Sans', verdana, arial, sans-serif; font-size: 18px; fill: rgb(42, 63, 95); fill-opacity: 1; white-space: pre;">01/01</text></g><g class="xtick"><text text-anchor="middle" x="0" y="469" transform="translate(290.13,0)" style="font-family: 'Open Sans', verdana, arial, sans-serif; font-size: 18px; fill: rgb(42, 63, 95); fill-opacity: 1; white-space: pre;">01/03</text></g><g class="xtick"><text text-anchor="middle" x="0" y="469" transform="translate(385.87,0)" style="font-family: 'Open Sans', verdana, arial, sans-serif; font-size: 18px; fill: rgb(42, 63, 95); fill-opacity: 1; white-space: pre;">01/05</text></g><g class="xtick"><text text-anchor="middle" x="0" y="469" transform="translate(481.61,0)" style="font-family: 'Open Sans', verdana, arial, sans-serif; font-size: 18px; fill: rgb(42, 63, 95); fill-opacity: 1; white-space: pre;">01/07</text></g><g class="xtick"><text text-anchor="middle" x="0" y="469" transform="translate(578.92,0)" style="font-family: 'Open Sans', verdana, arial, sans-serif; font-size: 18px; fill: rgb(42, 63, 95); fill-opacity: 1; white-space: pre;">01/09</text></g><g class="xtick"><text text-anchor="middle" x="0" y="469" transform="translate(674.66,0)" style="font-family: 'Open Sans', verdana, arial, sans-serif; font-size: 18px; fill: rgb(42, 63, 95); fill-opacity: 1; white-space: pre;">01/11</text></g></g><g class="yaxislayer-above"/><g class="overaxes-above"/></g></g><g class="polarlayer"/><g class="ternarylayer"/><g class="geolayer"/><g class="funnelarealayer"/><g class="pielayer"/><g class="treemaplayer"/><g class="sunburstlayer"/><g class="glimages"/><defs id="topdefs-9700fc"><g class="clips"/></defs><g class="layer-above"><g class="imagelayer"/><g class="shapelayer"><path data-index="0" fill-rule="evenodd" d="M-832.06,404.7L315.25,404.7" clip-path="url('#clip9700fcxy')" style="opacity: 1; stroke: rgb(255, 0, 0); stroke-opacity: 1; fill: rgb(0, 0, 0); fill-opacity: 0; stroke-dasharray: 3px, 3px; stroke-width: 1.5px;"/></g></g><g class="infolayer"><g class="g-gtitle"><text class="gtitle" x="375" y="25" text-anchor="middle" dy="0.7em" style="font-family: 'Open Sans', verdana, arial, sans-serif; font-size: 50px; fill: rgb(42, 63, 95); opacity: 1; font-weight: normal; white-space: pre;"><tspan style="font-weight:bold">Corrèze (19)</tspan></text></g><g class="g-xtitle"/><g class="annotation" data-index="0" style="opacity: 1;"><g class="annotation-text-g" transform="rotate(0,697.01,13.769999999999996)"><g class="cursor-pointer" transform="translate(639, -22)"><rect class="bg" x="0.5" y="0.5" width="115" height="71" style="stroke-width: 1px; stroke: rgb(0, 0, 0); stroke-opacity: 0; fill: rgb(255, 255, 255); fill-opacity: 0.6;"/><text class="annotation-text" text-anchor="middle" x="57.8125" y="55.5" style="font-family: 'Open Sans', verdana, arial, sans-serif; font-size: 50px; fill: rgb(8, 115, 191); fill-opacity: 1; white-space: pre;"> <tspan style="font-weight:bold">415 </tspan></text></g></g><g class="annotation-arrow-g" style="opacity: 1;"><path d="M725.41,49.269999999999996L737.01,63.769999999999996" style="stroke-width: 1px; stroke: rgb(8, 115, 191); stroke-opacity: 1; stroke-dasharray: 0px, 0px, 18.5691px, 18.5691px;"/></g></g></g></svg>