<svg class="main-svg" xmlns="http://www.w3.org/2000/svg" xmlns:xlink="http://www.w3.org/1999/xlink" width="1125" height="750" style="" viewBox="0 0 750 500"><rect x="0" y="0" width="750" height="500" style="fill: rgb(0, 0, 0); fill-opacity: 0;"/><defs id="defs-167e18"><g class="clips"><clipPath id="clip167e18xyplot" class="plotclip"><rect width="682" height="380"/></clipPath><clipPath class="axesclip" id="clip167e18x"><rect x="50" y="0" width="682" height="500"/></clipPath><clipPath class="axesclip" id="clip167e18y"><rect x="0" y="70" width="750" height="380"/></clipPath><clipPath class="axesclip" id="clip167e18xy"><rect x="50" y="70" width="682" height="380"/></clipPath></g><g class="gradients"/></defs><g class="bglayer"><rect class="bg" x="50" y="70" width="682" height="380" style="fill: rgb(0, 0, 0); fill-opacity: 0; stroke-width: 0;"/></g><g class="layer-below"><g class="imagelayer"/><g class="shapelayer"/></g><g class="cartesianlayer"><g class="subplot xy"><g class="layer-subplot"><g class="shapelayer"/><g class="imagelayer"/></g><g class="gridlayer"><g class="x"><path class="xgrid crisp" transform="translate(52.11,0)" d="M0,70v380" style="stroke: rgb(255, 255, 255); stroke-opacity: 1; stroke-width: 1px;"/><path class="xgrid crisp" transform="translate(149.39,0)" d="M0,70v380" style="stroke: rgb(255, 255, 255); stroke-opacity: 1; stroke-width: 1px;"/><path class="xgrid crisp" transform="translate(244.56,0)" d="M0,70v380" style="stroke: rgb(255, 255, 255); stroke-opacity: 1; stroke-width: 1px;"/><path class="xgrid crisp" transform="translate(340.78,0)" d="M0,70v380" style="stroke: rgb(255, 255, 255); stroke-opacity: 1; stroke-width: 1px;"/><path class="xgrid crisp" transform="translate(438.05,0)" d="M0,70v380" style="stroke: rgb(255, 255, 255); stroke-opacity: 1; stroke-width: 1px;"/><path class="xgrid crisp" transform="translate(535.3299999999999,0)" d="M0,70v380" style="stroke: rgb(255, 255, 255); stroke-opacity: 1; stroke-width: 1px;"/><path class="xgrid crisp" transform="translate(630.49,0)" d="M0,70v380" style="stroke: rgb(255, 255, 255); stroke-opacity: 1; stroke-width: 1px;"/><path class="xgrid crisp" transform="translate(726.71,0)" d="M0,70v380" style="stroke: rgb(255, 255, 255); stroke-opacity: 1; stroke-width: 1px;"/></g><g class="y"/></g><g class="zerolinelayer"/><path class="xlines-below"/><path class="ylines-below"/><g class="overlines-below"/><g class="xaxislayer-below"/><g class="yaxislayer-below"/><g class="overaxes-below"/><g class="plot" transform="translate(50, 70)" clip-path="url('#clip167e18xyplot')"><g class="scatterlayer mlayer"><g class="trace scatter trace676589" style="stroke-miterlimit: 2;"><g class="fills"><g><path class="js-fill" d="M664.02,380L-143.8,380L-143.8,379.81L-48.64,378.91L-47.58,378.48L-38.07,374.88L-37.01,375.06L-33.84,375.31L-32.78,374.91L-25.38,373.11L-24.32,373.26L-14.8,374.41L-13.75,374.26L-11.63,373.88L-10.57,373.14L-6.34,373.42L-5.29,373.39L-2.11,373.04L-1.06,372.8L6.34,371.43L7.4,370.56L14.8,367.64L15.86,367.89L17.98,367.21L19.03,366.24L23.26,360.5L24.32,360.41L27.49,354.57L28.55,354.2L31.72,352.52L32.78,350.44L33.84,350.75L34.89,349.35L35.95,349.79L37.01,348.98L39.12,348.86L40.18,349.29L41.24,350.59L42.29,355.44L43.35,355.25L44.41,354.26L45.47,355.63L46.52,355.47L47.58,358.36L48.64,359.04L49.7,357.05L50.75,358.36L51.81,362.74L52.87,362.89L53.93,363.02L54.98,364.2L57.1,365.38L58.16,366.49L61.33,366.74L62.38,364.35L63.44,365.56L64.5,365.44L67.67,363.76L68.73,363.61L69.79,365.47L70.84,365.47L71.9,365.06L72.96,365.78L74.02,366.96L75.07,366.24L79.3,366.87L80.36,365.97L81.42,364.63L82.47,364.63L84.59,364.35L85.65,363.95L87.76,365.44L88.82,368.26L93.05,369.57L94.11,369.6L97.28,370.37L98.33,370.16L100.45,370.16L101.51,369.07L104.68,365.56L105.74,365.75L108.91,363.51L109.97,363.45L112.08,362.18L113.14,362.15L115.25,362.52L116.31,363.14L121.6,364.63L122.65,365.31L125.83,366.96L126.88,367.11L129,366.83L130.06,365.84L133.23,365.13L134.29,365.06L136.4,365.9L137.46,367.24L141.69,370.53L142.74,370.44L146.97,371.68L148.03,371.9L153.32,372.02L154.38,371.86L166.01,369.82L167.06,369.16L170.24,367.67L171.29,367.89L177.64,367.98L178.69,367.8L179.75,367.61L180.81,366.31L182.92,364.44L183.98,364.13L186.1,361.62L187.15,361.84L191.38,361.93L192.44,362.15L194.56,362.55L195.61,365.75L196.67,364.38L197.73,364.29L201.96,364.13L203.01,360.41L208.3,362.27L209.36,362.21L211.47,364.47L212.53,363.95L213.59,364.51L214.64,364.1L218.87,364.41L219.93,365.34L222.05,365.81L223.1,366.8L224.16,366.83L225.22,367.73L226.28,367.42L227.33,368.14L230.51,369.66L231.56,369.6L233.68,371.37L234.73,370.62L235.79,372.36L236.85,372.36L240.02,372.8L241.08,373.04L242.14,373.63L243.19,372.83L245.31,372.89L246.37,372.98L247.42,374.38L248.48,373.67L249.54,373.98L250.6,373.26L254.82,372.45L255.88,373.57L262.23,375.13L263.28,375.13L265.4,375.25L266.46,375.71L270.69,376.09L271.74,376.49L279.14,378.17L280.2,378.39L285.49,379.01L286.55,378.98L292.89,378.7L293.95,378.66L298.18,378.45L299.23,378.2L301.35,377.95L302.41,376.49L306.64,372.95L307.69,371.46L309.81,368.67L310.87,367.55L311.92,366.31L312.98,366.52L318.27,359.16L319.32,358.7L323.55,357.24L324.61,357.92L325.67,359.13L326.73,358.73L328.84,358.89L329.9,358.11L330.96,358.51L332.01,357.89L333.07,356.65L334.13,357.18L338.36,356.65L339.41,357.43L340.47,357.36L341.53,358.17L342.59,358.23L343.64,360.07L346.82,363.45L347.87,365L349.99,365.34L351.04,366.15L353.16,368.14L354.22,368.2L356.33,369.94L357.39,369.69L360.56,371.15L361.62,371.74L362.68,371.86L363.73,371.03L364.79,370.65L365.85,371.4L370.08,371.99L371.13,372.73L377.48,375.13L378.54,375.34L382.77,376.3L383.82,376.43L390.17,377.55L391.22,377.36L398.63,376.27L399.68,376.55L402.86,377.02L403.91,376.12L408.14,373.14L409.2,373.01L411.31,371.71L412.37,371.68L416.6,371.34L417.66,372.98L420.83,371.09L421.89,370.28L424,369.97L425.06,367.55L427.18,365.93L428.23,367.8L430.35,365.75L431.4,365.53L436.69,354.48L437.75,352.8L438.81,352.49L439.86,348.92L440.92,346.59L441.98,342.4L445.15,331.44L446.21,330.88L450.44,314.3L451.49,311.87L453.61,310.91L454.67,311.53L455.72,309.24L456.78,309.17L459.95,311.94L461.01,311.84L462.07,311.38L463.13,314.33L467.36,322.62L468.41,323.08L470.53,328.33L471.58,328.49L473.7,324.42L474.76,328.49L475.81,328.08L476.87,319.64L481.1,286.88L482.16,286.1L483.22,285.17L484.27,271.94L486.39,249.83L487.44,244.34L488.5,242.13L489.56,228.57L490.62,226.45L491.67,217.39L492.73,215.52L493.79,211.33L495.9,189.63L496.96,178.76L498.02,177.08L499.08,160.78L503.31,94.49L504.36,77.94L505.42,74.8L506.48,48.69L508.59,18.6L509.65,7.33L510.71,3.01L511.76,4.1L512.82,0L513.88,3.07L515.99,4.38L517.05,8.01L519.17,26.11L520.22,30.06L522.34,64.68L523.4,85.82L526.57,136.75L527.62,141L529.74,187.67L530.8,203.76L532.91,233.28L533.97,238L535.03,239.87L536.08,253.93L539.26,276.76L540.31,281.76L541.37,287.41L542.43,288.71L544.54,294.49L545.6,296.16L547.71,296.6L548.77,296.69L550.89,295.08L551.94,294.14L554.06,288.87L555.12,286.35L556.17,283.99L557.23,283.65L560.4,275.02L561.46,274.58L562.52,272.56L563.58,273L564.63,272.91L565.69,271.6L566.75,271.94L567.8,274.4L572.03,273.81L573.09,271.35L575.21,263.71L576.26,262.6L578.38,261.73L579.44,261.79L581.55,271.14L582.61,272.81L583.67,273.46L584.72,276.17L586.84,277.44L587.89,276.04L588.95,277.31L590.01,281.51L592.12,287.62L593.18,290.2L594.24,290.67L595.3,313.43L596.35,312.12L597.41,315.29L600.58,327L601.64,327.37L602.7,318.95L603.76,329.26L606.93,339.88L607.98,340.88L610.1,341.93L611.16,343.7L615.39,350L616.44,349.63L617.5,353.27L618.56,354.13L620.67,356.46L621.73,356.18L624.9,357.3L625.96,359.01L627.02,360.16L628.07,359.91L629.13,362.08L630.19,362.15L631.25,362.61L632.3,364.91L634.42,366.18L635.48,369.1L636.53,368.42L637.59,368.85L641.82,368.98L642.88,366.59L646.05,366.55L647.11,368.64L649.22,363.57L650.28,363.39L653.45,361.68L654.51,355.9L655.57,356.18L656.62,354.1L658.74,350.28L659.8,348.98L660.85,348.95L661.91,346.47L662.97,345.56L664.02,343.11" style="fill: rgb(8, 115, 191); fill-opacity: 0.2; stroke-width: 0;"/></g></g><g class="errorbars"/><g class="lines"><path class="js-line" d="M-143.8,379.81L-48.64,378.91L-47.58,378.48L-38.07,374.88L-37.01,375.06L-33.84,375.31L-32.78,374.91L-25.38,373.11L-24.32,373.26L-14.8,374.41L-13.75,374.26L-11.63,373.88L-10.57,373.14L-6.34,373.42L-5.29,373.39L-2.11,373.04L-1.06,372.8L6.34,371.43L7.4,370.56L14.8,367.64L15.86,367.89L17.98,367.21L19.03,366.24L23.26,360.5L24.32,360.41L27.49,354.57L28.55,354.2L31.72,352.52L32.78,350.44L33.84,350.75L34.89,349.35L35.95,349.79L37.01,348.98L39.12,348.86L40.18,349.29L41.24,350.59L42.29,355.44L43.35,355.25L44.41,354.26L45.47,355.63L46.52,355.47L47.58,358.36L48.64,359.04L49.7,357.05L50.75,358.36L51.81,362.74L52.87,362.89L53.93,363.02L54.98,364.2L57.1,365.38L58.16,366.49L61.33,366.74L62.38,364.35L63.44,365.56L64.5,365.44L67.67,363.76L68.73,363.61L69.79,365.47L70.84,365.47L71.9,365.06L72.96,365.78L74.02,366.96L75.07,366.24L79.3,366.87L80.36,365.97L81.42,364.63L82.47,364.63L84.59,364.35L85.65,363.95L87.76,365.44L88.82,368.26L93.05,369.57L94.11,369.6L97.28,370.37L98.33,370.16L100.45,370.16L101.51,369.07L104.68,365.56L105.74,365.75L108.91,363.51L109.97,363.45L112.08,362.18L113.14,362.15L115.25,362.52L116.31,363.14L121.6,364.63L122.65,365.31L125.83,366.96L126.88,367.11L129,366.83L130.06,365.84L133.23,365.13L134.29,365.06L136.4,365.9L137.46,367.24L141.69,370.53L142.74,370.44L146.97,371.68L148.03,371.9L153.32,372.02L154.38,371.86L166.01,369.82L167.06,369.16L170.24,367.67L171.29,367.89L177.64,367.98L178.69,367.8L179.75,367.61L180.81,366.31L182.92,364.44L183.98,364.13L186.1,361.62L187.15,361.84L191.38,361.93L192.44,362.15L194.56,362.55L195.61,365.75L196.67,364.38L197.73,364.29L201.96,364.13L203.01,360.41L208.3,362.27L209.36,362.21L211.47,364.47L212.53,363.95L213.59,364.51L214.64,364.1L218.87,364.41L219.93,365.34L222.05,365.81L223.1,366.8L224.16,366.83L225.22,367.73L226.28,367.42L227.33,368.14L230.51,369.66L231.56,369.6L233.68,371.37L234.73,370.62L235.79,372.36L236.85,372.36L240.02,372.8L241.08,373.04L242.14,373.63L243.19,372.83L245.31,372.89L246.37,372.98L247.42,374.38L248.48,373.67L249.54,373.98L250.6,373.26L254.82,372.45L255.88,373.57L262.23,375.13L263.28,375.13L265.4,375.25L266.46,375.71L270.69,376.09L271.74,376.49L279.14,378.17L280.2,378.39L285.49,379.01L286.55,378.98L292.89,378.7L293.95,378.66L298.18,378.45L299.23,378.2L301.35,377.95L302.41,376.49L306.64,372.95L307.69,371.46L309.81,368.67L310.87,367.55L311.92,366.31L312.98,366.52L318.27,359.16L319.32,358.7L323.55,357.24L324.61,357.92L325.67,359.13L326.73,358.73L328.84,358.89L329.9,358.11L330.96,358.51L332.01,357.89L333.07,356.65L334.13,357.18L338.36,356.65L339.41,357.43L340.47,357.36L341.53,358.17L342.59,358.23L343.64,360.07L346.82,363.45L347.87,365L349.99,365.34L351.04,366.15L353.16,368.14L354.22,368.2L356.33,369.94L357.39,369.69L360.56,371.15L361.62,371.74L362.68,371.86L363.73,371.03L364.79,370.65L365.85,371.4L370.08,371.99L371.13,372.73L377.48,375.13L378.54,375.34L382.77,376.3L383.82,376.43L390.17,377.55L391.22,377.36L398.63,376.27L399.68,376.55L402.86,377.02L403.91,376.12L408.14,373.14L409.2,373.01L411.31,371.71L412.37,371.68L416.6,371.34L417.66,372.98L420.83,371.09L421.89,370.28L424,369.97L425.06,367.55L427.18,365.93L428.23,367.8L430.35,365.75L431.4,365.53L436.69,354.48L437.75,352.8L438.81,352.49L439.86,348.92L440.92,346.59L441.98,342.4L445.15,331.44L446.21,330.88L450.44,314.3L451.49,311.87L453.61,310.91L454.67,311.53L455.72,309.24L456.78,309.17L459.95,311.94L461.01,311.84L462.07,311.38L463.13,314.33L467.36,322.62L468.41,323.08L470.53,328.33L471.58,328.49L473.7,324.42L474.76,328.49L475.81,328.08L476.87,319.64L481.1,286.88L482.16,286.1L483.22,285.17L484.27,271.94L486.39,249.83L487.44,244.34L488.5,242.13L489.56,228.57L490.62,226.45L491.67,217.39L492.73,215.52L493.79,211.33L495.9,189.63L496.96,178.76L498.02,177.08L499.08,160.78L503.31,94.49L504.36,77.94L505.42,74.8L506.48,48.69L508.59,18.6L509.65,7.33L510.71,3.01L511.76,4.1L512.82,0L513.88,3.07L515.99,4.38L517.05,8.01L519.17,26.11L520.22,30.06L522.34,64.68L523.4,85.82L526.57,136.75L527.62,141L529.74,187.67L530.8,203.76L532.91,233.28L533.97,238L535.03,239.87L536.08,253.93L539.26,276.76L540.31,281.76L541.37,287.41L542.43,288.71L544.54,294.49L545.6,296.16L547.71,296.6L548.77,296.69L550.89,295.08L551.94,294.14L554.06,288.87L555.12,286.35L556.17,283.99L557.23,283.65L560.4,275.02L561.46,274.58L562.52,272.56L563.58,273L564.63,272.91L565.69,271.6L566.75,271.94L567.8,274.4L572.03,273.81L573.09,271.35L575.21,263.71L576.26,262.6L578.38,261.73L579.44,261.79L581.55,271.14L582.61,272.81L583.67,273.46L584.72,276.17L586.84,277.44L587.89,276.04L588.95,277.31L590.01,281.51L592.12,287.62L593.18,290.2L594.24,290.67L595.3,313.43L596.35,312.12L597.41,315.29L600.58,327L601.64,327.37L602.7,318.95L603.76,329.26L606.93,339.88L607.98,340.88L610.1,341.93L611.16,343.7L615.39,350L616.44,349.63L617.5,353.27L618.56,354.13L620.67,356.46L621.73,356.18L624.9,357.3L625.96,359.01L627.02,360.16L628.07,359.91L629.13,362.08L630.19,362.15L631.25,362.61L632.3,364.91L634.42,366.18L635.48,369.1L636.53,368.42L637.59,368.85L641.82,368.98L642.88,366.59L646.05,366.55L647.11,368.64L649.22,363.57L650.28,363.39L653.45,361.68L654.51,355.9L655.57,356.18L656.62,354.1L658.74,350.28L659.8,348.98L660.85,348.95L661.91,346.47L662.97,345.56L664.02,343.11" style="vector-effect: non-scaling-stroke; fill: none; stroke: rgb(8, 115, 191); stroke-opacity: 1; stroke-width: 0.5px; opacity: 1;"/></g><g class="points"/><g class="text"/></g><g class="trace scatter trace2c4ca4" style="stroke-miterlimit: 2;"><g class="fills"><g><path class="js-fill" d="M674.6,380L664.02,380L664.02,343.11L668.25,335.88L669.31,330.13L673.54,302.59L674.6,298.96" style="fill: rgb(8, 115, 191); fill-opacity: 0.4; stroke-width: 0;"/></g></g><g class="errorbars"/><g class="lines"><path class="js-line" d="M664.02,343.11L668.25,335.88L669.31,330.13L673.54,302.59L674.6,298.96" style="vector-effect: non-scaling-stroke; fill: none; stroke: rgb(8, 115, 191); stroke-opacity: 1; stroke-width: 2px; opacity: 1;"/></g><g class="points"/><g class="text"/></g><g class="trace scatter tracea4a05c" style="stroke-miterlimit: 2; opacity: 1;"><g class="fills"/><g class="errorbars"/><g class="lines"/><g class="points"><path class="point" transform="translate(674.6,298.96)" d="M15,0A15,15 0 1,1 0,-15A15,15 0 0,1 15,0Z" style="opacity: 1; stroke-width: 0px; fill: rgb(8, 115, 191); fill-opacity: 1;"/></g><g class="text"/></g></g></g><g class="overplot"/><path class="xlines-above crisp" style="fill: none; stroke-width: 1px; stroke: rgb(0, 0, 0); stroke-opacity: 0;" d=""/><path class="ylines-above crisp" style="fill: none;" d="M0,0"/><g class="overlines-above"/><g class="xaxislayer-above"><path class="xtick ticks crisp" d="M0,450v-5" transform="translate(52.11,0)" style="stroke: rgb(68, 68, 68); stroke-opacity: 1; stroke-width: 1px;"/><path class="xtick ticks crisp" d="M0,450v-5" transform="translate(149.39,0)" style="stroke: rgb(68, 68, 68); stroke-opacity: 1; stroke-width: 1px;"/><path class="xtick ticks crisp" d="M0,450v-5" transform="translate(244.56,0)" style="stroke: rgb(68, 68, 68); stroke-opacity: 1; stroke-width: 1px;"/><path class="xtick ticks crisp" d="M0,450v-5" transform="translate(340.78,0)" style="stroke: rgb(68, 68, 68); stroke-opacity: 1; stroke-width: 1px;"/><path class="xtick ticks crisp" d="M0,450v-5" transform="translate(438.05,0)" style="stroke: rgb(68, 68, 68); stroke-opacity: 1; stroke-width: 1px;"/><path class="xtick ticks crisp" d="M0,450v-5" transform="translate(535.3299999999999,0)" style="stroke: rgb(68, 68, 68); stroke-opacity: 1; stroke-width: 1px;"/><path class="xtick ticks crisp" d="M0,450v-5" transform="translate(630.49,0)" style="stroke: rgb(68, 68, 68); stroke-opacity: 1; stroke-width: 1px;"/><path class="xtick ticks crisp" d="M0,450v-5" transform="translate(726.71,0)" style="stroke: rgb(68, 68, 68); stroke-opacity: 1; stroke-width: 1px;"/><g class="xtick"><text text-anchor="middle" x="0" y="469" transform="translate(52.11,0)" style="font-family: 'Open Sans', verdana, arial, sans-serif; font-size: 18px; fill: rgb(42, 63, 95); fill-opacity: 1; white-space: pre;">01/10</text></g><g class="xtick"><text text-anchor="middle" x="0" y="469" transform="translate(149.39,0)" style="font-family: 'Open Sans', verdana, arial, sans-serif; font-size: 18px; fill: rgb(42, 63, 95); fill-opacity: 1; white-space: pre;">01/01</text></g><g class="xtick"><text text-anchor="middle" x="0" y="469" transform="translate(244.56,0)" style="font-family: 'Open Sans', verdana, arial, sans-serif; font-size: 18px; fill: rgb(42, 63, 95); fill-opacity: 1; white-space: pre;">01/04</text></g><g class="xtick"><text text-anchor="middle" x="0" y="469" transform="translate(340.78,0)" style="font-family: 'Open Sans', verdana, arial, sans-serif; font-size: 18px; fill: rgb(42, 63, 95); fill-opacity: 1; white-space: pre;">01/07</text></g><g class="xtick"><text text-anchor="middle" x="0" y="469" transform="translate(438.05,0)" style="font-family: 'Open Sans', verdana, arial, sans-serif; font-size: 18px; fill: rgb(42, 63, 95); fill-opacity: 1; white-space: pre;">01/10</text></g><g class="xtick"><text text-anchor="middle" x="0" y="469" transform="translate(535.3299999999999,0)" style="font-family: 'Open Sans', verdana, arial, sans-serif; font-size: 18px; fill: rgb(42, 63, 95); fill-opacity: 1; white-space: pre;">01/01</text></g><g class="xtick"><text text-anchor="middle" x="0" y="469" transform="translate(630.49,0)" style="font-family: 'Open Sans', verdana, arial, sans-serif; font-size: 18px; fill: rgb(42, 63, 95); fill-opacity: 1; white-space: pre;">01/04</text></g><g class="xtick"><text text-anchor="middle" x="0" y="469" transform="translate(726.71,0)" style="font-family: 'Open Sans', verdana, arial, sans-serif; font-size: 18px; fill: rgb(42, 63, 95); fill-opacity: 1; white-space: pre;">01/07</text></g></g><g class="yaxislayer-above"/><g class="overaxes-above"/></g></g><g class="polarlayer"/><g class="ternarylayer"/><g class="geolayer"/><g class="funnelarealayer"/><g class="pielayer"/><g class="treemaplayer"/><g class="sunburstlayer"/><g class="glimages"/><defs id="topdefs-167e18"><g class="clips"/></defs><g class="layer-above"><g class="imagelayer"/><g class="shapelayer"><path data-index="0" fill-rule="evenodd" d="M-544.24,444.87L228.69,444.87" clip-path="url('#clip167e18xy')" style="opacity: 1; stroke: rgb(255, 0, 0); stroke-opacity: 1; fill: rgb(0, 0, 0); fill-opacity: 0; stroke-dasharray: 3px, 3px; stroke-width: 1.5px;"/></g></g><g class="infolayer"><g class="g-gtitle"><text class="gtitle" x="375" y="25" text-anchor="middle" dy="0.7em" style="font-family: 'Open Sans', verdana, arial, sans-serif; font-size: 50px; fill: rgb(42, 63, 95); opacity: 1; font-weight: normal; white-space: pre;"><tspan style="font-weight:bold">Lot-et-Garonne (47)</tspan></text></g><g class="g-xtitle"/><g class="annotation" data-index="0" style="opacity: 1;"><g class="annotation-text-g" transform="rotate(0,682.6,308.96)"><g class="cursor-pointer" transform="translate(625, 273)"><rect class="bg" x="0.5" y="0.5" width="115" height="71" style="stroke-width: 1px; stroke: rgb(0, 0, 0); stroke-opacity: 0; fill: rgb(255, 255, 255); fill-opacity: 0.6;"/><text class="annotation-text" text-anchor="middle" x="57.8125" y="55.5" style="font-family: 'Open Sans', verdana, arial, sans-serif; font-size: 50px; fill: rgb(8, 115, 191); fill-opacity: 1; white-space: pre;"> <tspan style="font-weight:bold">790 </tspan></text></g></g><g class="annotation-arrow-g" style="opacity: 1;"><path d="M711,344.46L722.6,358.96" style="stroke-width: 1px; stroke: rgb(8, 115, 191); stroke-opacity: 1; stroke-dasharray: 0px, 0px, 18.569px, 18.569px;"/></g></g></g></svg>