<svg class="main-svg" xmlns="http://www.w3.org/2000/svg" xmlns:xlink="http://www.w3.org/1999/xlink" width="1125" height="750" style="" viewBox="0 0 750 500"><rect x="0" y="0" width="750" height="500" style="fill: rgb(0, 0, 0); fill-opacity: 0;"/><defs id="defs-cfb5cf"><g class="clips"><clipPath id="clipcfb5cfxyplot" class="plotclip"><rect width="696" height="380"/></clipPath><clipPath class="axesclip" id="clipcfb5cfx"><rect x="50" y="0" width="696" height="500"/></clipPath><clipPath class="axesclip" id="clipcfb5cfy"><rect x="0" y="70" width="750" height="380"/></clipPath><clipPath class="axesclip" id="clipcfb5cfxy"><rect x="50" y="70" width="696" height="380"/></clipPath></g><g class="gradients"/></defs><g class="bglayer"><rect class="bg" x="50" y="70" width="696" height="380" style="fill: rgb(0, 0, 0); fill-opacity: 0; stroke-width: 0;"/></g><g class="layer-below"><g class="imagelayer"/><g class="shapelayer"/></g><g class="cartesianlayer"><g class="subplot xy"><g class="layer-subplot"><g class="shapelayer"/><g class="imagelayer"/></g><g class="gridlayer"><g class="x"><path class="xgrid crisp" transform="translate(93.09,0)" d="M0,70v380" style="stroke: rgb(255, 255, 255); stroke-opacity: 1; stroke-width: 1px;"/><path class="xgrid crisp" transform="translate(172.75,0)" d="M0,70v380" style="stroke: rgb(255, 255, 255); stroke-opacity: 1; stroke-width: 1px;"/><path class="xgrid crisp" transform="translate(249.79,0)" d="M0,70v380" style="stroke: rgb(255, 255, 255); stroke-opacity: 1; stroke-width: 1px;"/><path class="xgrid crisp" transform="translate(329.44,0)" d="M0,70v380" style="stroke: rgb(255, 255, 255); stroke-opacity: 1; stroke-width: 1px;"/><path class="xgrid crisp" transform="translate(409.1,0)" d="M0,70v380" style="stroke: rgb(255, 255, 255); stroke-opacity: 1; stroke-width: 1px;"/><path class="xgrid crisp" transform="translate(490.06,0)" d="M0,70v380" style="stroke: rgb(255, 255, 255); stroke-opacity: 1; stroke-width: 1px;"/><path class="xgrid crisp" transform="translate(569.71,0)" d="M0,70v380" style="stroke: rgb(255, 255, 255); stroke-opacity: 1; stroke-width: 1px;"/><path class="xgrid crisp" transform="translate(649.37,0)" d="M0,70v380" style="stroke: rgb(255, 255, 255); stroke-opacity: 1; stroke-width: 1px;"/><path class="xgrid crisp" transform="translate(726.41,0)" d="M0,70v380" style="stroke: rgb(255, 255, 255); stroke-opacity: 1; stroke-width: 1px;"/></g><g class="y"/></g><g class="zerolinelayer"/><path class="xlines-below"/><path class="ylines-below"/><g class="overlines-below"/><g class="xaxislayer-below"/><g class="yaxislayer-below"/><g class="overaxes-below"/><g class="plot" transform="translate(50, 70)" clip-path="url('#clipcfb5cfxyplot')"><g class="scatterlayer mlayer"><g class="trace scatter traceddaa79" style="stroke-miterlimit: 2;"><g class="fills"><g><path class="js-fill" d="M673.8,380L-177.59,380L-177.59,379.01L-159.31,379.57L-158,379.66L-143.64,378.16L-142.33,378.18L-131.89,379.33L-130.58,379.28L-116.22,379.43L-114.91,379.47L-101.85,379.78L-100.55,379.74L-66.6,377.66L-65.29,377.47L-57.46,375.97L-56.15,375.75L-40.48,374.27L-39.17,373.63L-35.26,372.45L-33.95,372.31L-18.28,370.08L-16.98,369.65L-14.36,368.7L-13.06,368.32L-5.22,368.6L-3.92,368.72L-2.61,368.93L-1.31,367.77L1.31,366.11L2.61,366.24L3.92,365.5L5.22,363.61L10.45,358.8L11.75,358.71L15.67,355.26L16.98,352.8L18.28,352.74L19.59,354.05L22.2,353.1L23.5,352.27L24.81,350.02L26.12,345.7L28.73,334.18L30.03,333.57L33.95,316.2L35.26,313.3L40.48,312.15L41.79,313.65L43.09,315.02L44.4,318.48L47.01,325.27L48.32,325.96L50.93,331.06L52.23,340.36L56.15,347.58L57.46,348.06L60.07,355.15L61.37,353.37L63.98,360.81L65.29,361.54L66.6,361.64L67.9,364.87L70.51,367.44L71.82,367.53L73.13,368.4L74.43,368.2L78.35,368.95L79.65,369.49L82.27,369.48L83.57,369.38L88.8,368.16L90.1,367.07L94.02,366.48L95.32,365.73L96.63,365.36L97.94,364.18L99.24,364.24L100.55,363.34L101.85,362.83L103.16,363.31L105.77,362.23L107.08,362.53L108.38,363.25L109.69,366.05L112.3,366.32L113.61,367L118.83,365.36L120.14,365.36L121.44,365.29L122.75,363.71L125.36,363.29L126.66,363.16L127.97,360.11L129.28,360.18L133.19,360.26L134.5,360.91L144.95,357.47L146.25,356.15L154.09,354.61L155.39,354.91L158,354.75L159.31,354.08L167.14,356.69L168.45,358.5L174.98,360.57L176.29,360.75L185.43,361.56L186.73,361.41L191.95,362.25L193.26,361.77L195.87,361.2L197.18,360.35L199.79,359.29L201.1,358.59L203.71,358.6L205.01,357.71L211.54,354.87L212.85,354.94L214.15,354.01L215.46,354.09L216.77,354.48L218.07,353.69L223.29,351.78L224.6,349.76L228.52,344.16L229.82,342.8L232.44,341.48L233.74,340.73L238.96,340.97L240.27,341.26L241.58,348.7L242.88,346.59L244.19,345.65L245.49,346.33L246.8,347.3L248.11,346.92L249.41,346.79L250.72,339.57L253.33,343.7L254.63,344.22L255.94,344.3L257.25,345.21L259.86,345.61L261.16,346.05L265.08,347.46L266.39,347.45L267.69,347.43L269,349.04L274.22,354.75L275.53,357.12L276.83,357.24L278.14,359.13L280.75,362.19L282.06,363.41L283.36,365.2L284.67,365.49L285.97,365.62L287.28,366.84L291.2,370.34L292.5,370.61L293.81,370.04L295.11,370.37L296.42,371.03L297.73,370.56L299.03,371.19L300.34,370.15L302.95,371.01L304.26,370.91L305.56,373L306.87,372.64L310.78,372.79L312.09,372.85L313.4,372.92L314.7,371.8L317.31,373.3L318.62,374L325.15,376.1L326.45,376.74L334.29,377.86L335.59,378.26L339.51,378.77L340.82,378.79L346.04,379.24L347.35,379.22L352.57,379.01L353.88,378.91L365.63,377L366.93,376.63L368.24,376.63L369.55,375.84L372.16,375.21L373.46,373.4L376.08,371.14L377.38,370.77L382.6,359.7L383.91,356.95L385.22,354.37L386.52,354.08L390.44,345.06L391.74,343.34L394.36,339.75L395.66,339.32L398.27,335.69L399.58,334.56L400.89,332.75L402.19,332.32L406.11,332.05L407.41,331.36L412.64,330.98L413.94,331L421.78,335.06L423.08,335.26L425.7,337.04L427,339.04L430.92,343.89L432.23,343.9L434.84,348.82L436.14,349.24L440.06,354.12L441.37,354.26L446.59,362.2L447.89,363.12L451.81,364.9L453.12,366.46L458.34,369.68L459.65,369.78L462.26,371.3L463.56,371.89L468.79,373.34L470.09,373.37L477.93,373.86L479.23,374.57L484.46,375.88L485.76,375.78L498.82,375.85L500.13,375.62L505.35,374.8L506.66,374.93L515.8,376.11L517.1,375.26L523.63,374.52L524.94,372.85L526.24,372.91L527.55,372.11L528.86,372.79L530.16,371.49L534.08,369.67L535.38,368.32L536.69,367.14L538,364.1L541.91,361.54L543.22,358.83L549.75,346.86L551.05,346.67L552.36,341.2L553.67,338.99L558.89,326.99L560.2,326.45L565.42,307.66L566.72,305.09L568.03,302.56L569.34,301.83L570.64,297.79L571.95,296.92L574.56,299.06L575.86,298.65L578.48,299.59L579.78,303.22L581.09,303.12L582.39,300.76L585.01,295.19L586.31,301.76L587.62,300.02L588.92,286.27L594.15,242.21L595.45,241.12L596.76,238.38L598.06,215.58L600.68,192.48L601.98,185.8L603.29,180.84L604.59,161.5L605.9,161.23L607.2,158.98L608.51,160.47L609.82,153.72L611.12,148.61L612.43,137.98L613.73,129.59L615.04,126.15L620.26,40.82L621.57,26.04L622.87,17.08L624.18,15.82L625.49,0L626.79,1.81L628.1,3.13L629.4,8.96L632.02,16.03L633.32,16.81L637.24,55.43L638.54,66.81L641.16,94.01L642.46,97.59L645.07,147.55L646.38,164.73L650.3,204.91L651.6,207.3L654.21,239.76L655.52,250.65L659.44,273.38L660.74,275.18L663.35,295.27L664.66,300.7L668.58,315.27L669.88,316.23L672.5,322.67L673.8,325.47" style="fill: rgb(8, 115, 191); fill-opacity: 0.2; stroke-width: 0;"/></g></g><g class="errorbars"/><g class="lines"><path class="js-line" d="M-177.59,379.01L-159.31,379.57L-158,379.66L-143.64,378.16L-142.33,378.18L-131.89,379.33L-130.58,379.28L-116.22,379.43L-114.91,379.47L-101.85,379.78L-100.55,379.74L-66.6,377.66L-65.29,377.47L-57.46,375.97L-56.15,375.75L-40.48,374.27L-39.17,373.63L-35.26,372.45L-33.95,372.31L-18.28,370.08L-16.98,369.65L-14.36,368.7L-13.06,368.32L-5.22,368.6L-3.92,368.72L-2.61,368.93L-1.31,367.77L1.31,366.11L2.61,366.24L3.92,365.5L5.22,363.61L10.45,358.8L11.75,358.71L15.67,355.26L16.98,352.8L18.28,352.74L19.59,354.05L22.2,353.1L23.5,352.27L24.81,350.02L26.12,345.7L28.73,334.18L30.03,333.57L33.95,316.2L35.26,313.3L40.48,312.15L41.79,313.65L43.09,315.02L44.4,318.48L47.01,325.27L48.32,325.96L50.93,331.06L52.23,340.36L56.15,347.58L57.46,348.06L60.07,355.15L61.37,353.37L63.98,360.81L65.29,361.54L66.6,361.64L67.9,364.87L70.51,367.44L71.82,367.53L73.13,368.4L74.43,368.2L78.35,368.95L79.65,369.49L82.27,369.48L83.57,369.38L88.8,368.16L90.1,367.07L94.02,366.48L95.32,365.73L96.63,365.36L97.94,364.18L99.24,364.24L100.55,363.34L101.85,362.83L103.16,363.31L105.77,362.23L107.08,362.53L108.38,363.25L109.69,366.05L112.3,366.32L113.61,367L118.83,365.36L120.14,365.36L121.44,365.29L122.75,363.71L125.36,363.29L126.66,363.16L127.97,360.11L129.28,360.18L133.19,360.26L134.5,360.91L144.95,357.47L146.25,356.15L154.09,354.61L155.39,354.91L158,354.75L159.31,354.08L167.14,356.69L168.45,358.5L174.98,360.57L176.29,360.75L185.43,361.56L186.73,361.41L191.95,362.25L193.26,361.77L195.87,361.2L197.18,360.35L199.79,359.29L201.1,358.59L203.71,358.6L205.01,357.71L211.54,354.87L212.85,354.94L214.15,354.01L215.46,354.09L216.77,354.48L218.07,353.69L223.29,351.78L224.6,349.76L228.52,344.16L229.82,342.8L232.44,341.48L233.74,340.73L238.96,340.97L240.27,341.26L241.58,348.7L242.88,346.59L244.19,345.65L245.49,346.33L246.8,347.3L248.11,346.92L249.41,346.79L250.72,339.57L253.33,343.7L254.63,344.22L255.94,344.3L257.25,345.21L259.86,345.61L261.16,346.05L265.08,347.46L266.39,347.45L267.69,347.43L269,349.04L274.22,354.75L275.53,357.12L276.83,357.24L278.14,359.13L280.75,362.19L282.06,363.41L283.36,365.2L284.67,365.49L285.97,365.62L287.28,366.84L291.2,370.34L292.5,370.61L293.81,370.04L295.11,370.37L296.42,371.03L297.73,370.56L299.03,371.19L300.34,370.15L302.95,371.01L304.26,370.91L305.56,373L306.87,372.64L310.78,372.79L312.09,372.85L313.4,372.92L314.7,371.8L317.31,373.3L318.62,374L325.15,376.1L326.45,376.74L334.29,377.86L335.59,378.26L339.51,378.77L340.82,378.79L346.04,379.24L347.35,379.22L352.57,379.01L353.88,378.91L365.63,377L366.93,376.63L368.24,376.63L369.55,375.84L372.16,375.21L373.46,373.4L376.08,371.14L377.38,370.77L382.6,359.7L383.91,356.95L385.22,354.37L386.52,354.08L390.44,345.06L391.74,343.34L394.36,339.75L395.66,339.32L398.27,335.69L399.58,334.56L400.89,332.75L402.19,332.32L406.11,332.05L407.41,331.36L412.64,330.98L413.94,331L421.78,335.06L423.08,335.26L425.7,337.04L427,339.04L430.92,343.89L432.23,343.9L434.84,348.82L436.14,349.24L440.06,354.12L441.37,354.26L446.59,362.2L447.89,363.12L451.81,364.9L453.12,366.46L458.34,369.68L459.65,369.78L462.26,371.3L463.56,371.89L468.79,373.34L470.09,373.37L477.93,373.86L479.23,374.57L484.46,375.88L485.76,375.78L498.82,375.85L500.13,375.62L505.35,374.8L506.66,374.93L515.8,376.11L517.1,375.26L523.63,374.52L524.94,372.85L526.24,372.91L527.55,372.11L528.86,372.79L530.16,371.49L534.08,369.67L535.38,368.32L536.69,367.14L538,364.1L541.91,361.54L543.22,358.83L549.75,346.86L551.05,346.67L552.36,341.2L553.67,338.99L558.89,326.99L560.2,326.45L565.42,307.66L566.72,305.09L568.03,302.56L569.34,301.83L570.64,297.79L571.95,296.92L574.56,299.06L575.86,298.65L578.48,299.59L579.78,303.22L581.09,303.12L582.39,300.76L585.01,295.19L586.31,301.76L587.62,300.02L588.92,286.27L594.15,242.21L595.45,241.12L596.76,238.38L598.06,215.58L600.68,192.48L601.98,185.8L603.29,180.84L604.59,161.5L605.9,161.23L607.2,158.98L608.51,160.47L609.82,153.72L611.12,148.61L612.43,137.98L613.73,129.59L615.04,126.15L620.26,40.82L621.57,26.04L622.87,17.08L624.18,15.82L625.49,0L626.79,1.81L628.1,3.13L629.4,8.96L632.02,16.03L633.32,16.81L637.24,55.43L638.54,66.81L641.16,94.01L642.46,97.59L645.07,147.55L646.38,164.73L650.3,204.91L651.6,207.3L654.21,239.76L655.52,250.65L659.44,273.38L660.74,275.18L663.35,295.27L664.66,300.7L668.58,315.27L669.88,316.23L672.5,322.67L673.8,325.47" style="vector-effect: non-scaling-stroke; fill: none; stroke: rgb(8, 115, 191); stroke-opacity: 1; stroke-width: 0.5px; opacity: 1;"/></g><g class="points"/><g class="text"/></g><g class="trace scatter tracee88539" style="stroke-miterlimit: 2;"><g class="fills"><g><path class="js-fill" d="M686.86,380L673.8,380L673.8,325.47L676.41,328.7L677.72,329.35L682.94,328.41L684.25,327.25L686.86,324.34" style="fill: rgb(8, 115, 191); fill-opacity: 0.4; stroke-width: 0;"/></g></g><g class="errorbars"/><g class="lines"><path class="js-line" d="M673.8,325.47L676.41,328.7L677.72,329.35L682.94,328.41L684.25,327.25L686.86,324.34" style="vector-effect: non-scaling-stroke; fill: none; stroke: rgb(8, 115, 191); stroke-opacity: 1; stroke-width: 2px; opacity: 1;"/></g><g class="points"/><g class="text"/></g><g class="trace scatter trace2365c2" style="stroke-miterlimit: 2; opacity: 1;"><g class="fills"/><g class="errorbars"/><g class="lines"/><g class="points"><path class="point" transform="translate(686.86,324.34)" d="M15,0A15,15 0 1,1 0,-15A15,15 0 0,1 15,0Z" style="opacity: 1; stroke-width: 0px; fill: rgb(8, 115, 191); fill-opacity: 1;"/></g><g class="text"/></g></g></g><g class="overplot"/><path class="xlines-above crisp" style="fill: none; stroke-width: 1px; stroke: rgb(0, 0, 0); stroke-opacity: 0;" d=""/><path class="ylines-above crisp" style="fill: none;" d="M0,0"/><g class="overlines-above"/><g class="xaxislayer-above"><path class="xtick ticks crisp" d="M0,450v-5" transform="translate(93.09,0)" style="stroke: rgb(68, 68, 68); stroke-opacity: 1; stroke-width: 1px;"/><path class="xtick ticks crisp" d="M0,450v-5" transform="translate(172.75,0)" style="stroke: rgb(68, 68, 68); stroke-opacity: 1; stroke-width: 1px;"/><path class="xtick ticks crisp" d="M0,450v-5" transform="translate(249.79,0)" style="stroke: rgb(68, 68, 68); stroke-opacity: 1; stroke-width: 1px;"/><path class="xtick ticks crisp" d="M0,450v-5" transform="translate(329.44,0)" style="stroke: rgb(68, 68, 68); stroke-opacity: 1; stroke-width: 1px;"/><path class="xtick ticks crisp" d="M0,450v-5" transform="translate(409.1,0)" style="stroke: rgb(68, 68, 68); stroke-opacity: 1; stroke-width: 1px;"/><path class="xtick ticks crisp" d="M0,450v-5" transform="translate(490.06,0)" style="stroke: rgb(68, 68, 68); stroke-opacity: 1; stroke-width: 1px;"/><path class="xtick ticks crisp" d="M0,450v-5" transform="translate(569.71,0)" style="stroke: rgb(68, 68, 68); stroke-opacity: 1; stroke-width: 1px;"/><path class="xtick ticks crisp" d="M0,450v-5" transform="translate(649.37,0)" style="stroke: rgb(68, 68, 68); stroke-opacity: 1; stroke-width: 1px;"/><path class="xtick ticks crisp" d="M0,450v-5" transform="translate(726.41,0)" style="stroke: rgb(68, 68, 68); stroke-opacity: 1; stroke-width: 1px;"/><g class="xtick"><text text-anchor="middle" x="0" y="469" transform="translate(93.09,0)" style="font-family: 'Open Sans', verdana, arial, sans-serif; font-size: 18px; fill: rgb(42, 63, 95); fill-opacity: 1; white-space: pre;">01/11</text></g><g class="xtick"><text text-anchor="middle" x="0" y="469" transform="translate(172.75,0)" style="font-family: 'Open Sans', verdana, arial, sans-serif; font-size: 18px; fill: rgb(42, 63, 95); fill-opacity: 1; white-space: pre;">01/01</text></g><g class="xtick"><text text-anchor="middle" x="0" y="469" transform="translate(249.79,0)" style="font-family: 'Open Sans', verdana, arial, sans-serif; font-size: 18px; fill: rgb(42, 63, 95); fill-opacity: 1; white-space: pre;">01/03</text></g><g class="xtick"><text text-anchor="middle" x="0" y="469" transform="translate(329.44,0)" style="font-family: 'Open Sans', verdana, arial, sans-serif; font-size: 18px; fill: rgb(42, 63, 95); fill-opacity: 1; white-space: pre;">01/05</text></g><g class="xtick"><text text-anchor="middle" x="0" y="469" transform="translate(409.1,0)" style="font-family: 'Open Sans', verdana, arial, sans-serif; font-size: 18px; fill: rgb(42, 63, 95); fill-opacity: 1; white-space: pre;">01/07</text></g><g class="xtick"><text text-anchor="middle" x="0" y="469" transform="translate(490.06,0)" style="font-family: 'Open Sans', verdana, arial, sans-serif; font-size: 18px; fill: rgb(42, 63, 95); fill-opacity: 1; white-space: pre;">01/09</text></g><g class="xtick"><text text-anchor="middle" x="0" y="469" transform="translate(569.71,0)" style="font-family: 'Open Sans', verdana, arial, sans-serif; font-size: 18px; fill: rgb(42, 63, 95); fill-opacity: 1; white-space: pre;">01/11</text></g><g class="xtick"><text text-anchor="middle" x="0" y="469" transform="translate(649.37,0)" style="font-family: 'Open Sans', verdana, arial, sans-serif; font-size: 18px; fill: rgb(42, 63, 95); fill-opacity: 1; white-space: pre;">01/01</text></g><g class="xtick"><text text-anchor="middle" x="0" y="469" transform="translate(726.41,0)" style="font-family: 'Open Sans', verdana, arial, sans-serif; font-size: 18px; fill: rgb(42, 63, 95); fill-opacity: 1; white-space: pre;">01/03</text></g></g><g class="yaxislayer-above"/><g class="overaxes-above"/></g></g><g class="polarlayer"/><g class="ternarylayer"/><g class="geolayer"/><g class="funnelarealayer"/><g class="pielayer"/><g class="treemaplayer"/><g class="sunburstlayer"/><g class="glimages"/><defs id="topdefs-cfb5cf"><g class="clips"/></defs><g class="layer-above"><g class="imagelayer"/><g class="shapelayer"><path data-index="0" fill-rule="evenodd" d="M-683.87,444.63L270.68,444.63" clip-path="url('#clipcfb5cfxy')" style="opacity: 1; stroke: rgb(255, 0, 0); stroke-opacity: 1; fill: rgb(0, 0, 0); fill-opacity: 0; stroke-dasharray: 3px, 3px; stroke-width: 1.5px;"/></g></g><g class="infolayer"><g class="g-gtitle"><text class="gtitle" x="375" y="25" text-anchor="middle" dy="0.7em" style="font-family: 'Open Sans', verdana, arial, sans-serif; font-size: 50px; fill: rgb(42, 63, 95); opacity: 1; font-weight: normal; white-space: pre;"><tspan style="font-weight:bold">Gard (30)</tspan></text></g><g class="g-xtitle"/><g class="annotation" data-index="0" style="opacity: 1;"><g class="annotation-text-g" transform="rotate(0,694.86,334.34)"><g class="cursor-pointer" transform="translate(637, 298)"><rect class="bg" x="0.5" y="0.5" width="115" height="71" style="stroke-width: 1px; stroke: rgb(0, 0, 0); stroke-opacity: 0; fill: rgb(255, 255, 255); fill-opacity: 0.6;"/><text class="annotation-text" text-anchor="middle" x="57.8125" y="55.5" style="font-family: 'Open Sans', verdana, arial, sans-serif; font-size: 50px; fill: rgb(8, 115, 191); fill-opacity: 1; white-space: pre;"> <tspan style="font-weight:bold">518 </tspan></text></g></g><g class="annotation-arrow-g" style="opacity: 1;"><path d="M723.26,369.84L734.86,384.34" style="stroke-width: 1px; stroke: rgb(8, 115, 191); stroke-opacity: 1; stroke-dasharray: 0px, 0px, 18.569px, 18.569px;"/></g></g></g></svg>