<svg class="main-svg" xmlns="http://www.w3.org/2000/svg" xmlns:xlink="http://www.w3.org/1999/xlink" width="1125" height="750" style="" viewBox="0 0 750 500"><rect x="0" y="0" width="750" height="500" style="fill: rgb(0, 0, 0); fill-opacity: 0;"/><defs id="defs-09cf88"><g class="clips"><clipPath id="clip09cf88xyplot" class="plotclip"><rect width="700" height="380"/></clipPath><clipPath class="axesclip" id="clip09cf88x"><rect x="50" y="0" width="700" height="500"/></clipPath><clipPath class="axesclip" id="clip09cf88y"><rect x="0" y="70" width="750" height="380"/></clipPath><clipPath class="axesclip" id="clip09cf88xy"><rect x="50" y="70" width="700" height="380"/></clipPath></g><g class="gradients"/></defs><g class="bglayer"><rect class="bg" x="50" y="70" width="700" height="380" style="fill: rgb(0, 0, 0); fill-opacity: 0; stroke-width: 0;"/></g><g class="layer-below"><g class="imagelayer"/><g class="shapelayer"/></g><g class="cartesianlayer"><g class="subplot xy"><g class="layer-subplot"><g class="shapelayer"/><g class="imagelayer"/></g><g class="gridlayer"><g class="x"><path class="xgrid crisp" transform="translate(108.19,0)" d="M0,70v380" style="stroke: rgb(255, 255, 255); stroke-opacity: 1; stroke-width: 1px;"/><path class="xgrid crisp" transform="translate(215.74,0)" d="M0,70v380" style="stroke: rgb(255, 255, 255); stroke-opacity: 1; stroke-width: 1px;"/><path class="xgrid crisp" transform="translate(319.77,0)" d="M0,70v380" style="stroke: rgb(255, 255, 255); stroke-opacity: 1; stroke-width: 1px;"/><path class="xgrid crisp" transform="translate(427.33,0)" d="M0,70v380" style="stroke: rgb(255, 255, 255); stroke-opacity: 1; stroke-width: 1px;"/><path class="xgrid crisp" transform="translate(534.89,0)" d="M0,70v380" style="stroke: rgb(255, 255, 255); stroke-opacity: 1; stroke-width: 1px;"/><path class="xgrid crisp" transform="translate(644.21,0)" d="M0,70v380" style="stroke: rgb(255, 255, 255); stroke-opacity: 1; stroke-width: 1px;"/></g><g class="y"/></g><g class="zerolinelayer"/><path class="xlines-below"/><path class="ylines-below"/><g class="overlines-below"/><g class="xaxislayer-below"/><g class="yaxislayer-below"/><g class="overaxes-below"/><g class="plot" transform="translate(50, 70)" clip-path="url('#clip09cf88xyplot')"><g class="scatterlayer mlayer"><g class="trace scatter traced3a626" style="stroke-miterlimit: 2;"><g class="fills"><g><path class="js-fill" d="M670.03,380L-239.8,380L-239.8,377.81L-139.29,377.81L-137.53,377.57L-128.72,378.3L-126.95,378.78L-118.14,379.27L-116.37,379.27L-89.92,378.54L-88.16,378.3L-84.63,377.32L-82.87,377.32L-74.06,376.11L-72.29,376.11L-70.53,376.11L-68.77,374.16L-65.24,370.02L-63.48,364.18L-61.71,359.8L-59.95,359.31L-58.19,358.58L-56.42,356.14L-52.9,350.06L-51.13,350.06L-47.61,343.97L-45.84,343.97L-44.08,335.7L-42.32,334.48L-38.79,335.21L-37.03,340.08L-33.5,339.1L-31.74,345.19L-21.16,352.49L-19.4,357.36L-17.63,360.53L-15.87,361.74L-14.11,364.66L-12.34,363.93L-7.05,364.91L-5.29,362.72L-3.53,363.93L-1.76,362.47L0,363.69L1.76,363.2L3.53,361.99L5.29,359.31L7.05,359.31L8.82,353.95L12.34,339.59L14.11,337.89L15.87,338.86L17.63,324.74L19.4,310.62L21.16,306L24.69,291.88L26.45,290.17L28.21,288.47L29.97,283.84L31.74,281.9L33.5,270.7L35.26,270.7L37.03,261.93L38.79,260.47L40.55,260.72L44.08,234.43L45.84,233.94L47.61,231.02L49.37,230.04L51.13,228.34L52.9,228.1L58.19,250.01L59.95,260.47L61.71,273.62L63.48,277.76L65.24,278.49L67,291.39L68.77,301.37L70.53,316.46L72.29,312.57L74.06,317.68L77.58,320.85L79.35,332.53L81.11,340.56L82.87,338.86L84.63,351.76L86.4,354.68L89.92,354.68L91.69,357.12L93.45,362.23L95.21,362.47L98.74,366.12L100.5,366.12L102.27,366.12L104.03,369.05L111.08,367.83L112.85,368.8L114.61,369.05L116.37,370.51L119.9,369.29L121.66,369.53L128.72,368.07L130.48,366.37L134.01,367.83L135.77,367.1L139.29,364.18L141.06,361.01L142.82,361.26L144.58,357.6L146.35,355.66L148.11,358.09L149.87,355.41L151.64,355.41L153.4,354.68L155.16,351.03L156.93,350.06L158.69,347.14L160.45,347.87L162.22,350.3L163.98,350.54L165.74,347.62L167.51,348.84L169.27,348.35L171.03,350.54L172.8,346.89L174.56,347.38L176.32,346.65L178.09,347.38L179.85,344.46L181.61,344.7L183.38,342.51L185.14,340.56L186.9,341.05L188.66,341.78L190.43,335.21L192.19,336.67L193.95,336.91L199.24,325.96L201.01,324.25L204.53,314.76L206.3,313.3L208.06,316.22L209.82,314.03L213.35,319.14L215.11,320.6L216.88,321.58L218.64,320.6L220.4,318.17L222.17,317.19L223.93,314.76L225.69,314.03L229.22,325.47L230.98,322.79L232.75,322.79L234.51,326.93L236.27,328.39L238.04,328.88L241.56,326.69L243.32,330.83L248.61,321.58L250.38,320.85L252.14,312.81L253.9,308.67L255.67,301.61L257.43,302.59L259.19,302.59L260.96,304.05L262.72,304.54L264.48,306.97L266.25,301.61L268.01,307.7L273.3,298.45L275.06,298.21L276.83,298.45L278.59,304.05L280.35,298.69L282.12,301.13L283.88,305.51L285.64,306.24L287.41,307.21L289.17,311.11L290.93,312.08L292.7,318.65L294.46,322.79L296.22,323.04L297.98,325.23L299.75,325.23L301.51,323.77L303.27,324.74L305.04,326.2L306.8,324.5L308.56,327.17L310.33,327.17L312.09,326.44L313.85,329.12L315.62,328.39L317.38,324.5L319.14,325.23L320.91,321.82L322.67,321.58L324.43,322.55L326.2,330.83L327.96,325.71L329.72,324.25L331.49,324.74L333.25,325.47L335.01,321.82L336.78,320.12L338.54,307.7L340.3,310.13L342.07,310.86L343.83,309.65L345.59,306.73L347.36,310.38L349.12,308.92L352.64,313.3L354.41,313.79L356.17,315L357.93,317.92L359.7,318.41L361.46,321.09L363.22,317.44L364.99,318.65L366.75,319.39L368.51,323.28L370.28,324.5L372.04,326.69L375.57,324.25L377.33,324.5L379.09,327.66L380.86,324.98L382.62,330.34L384.38,330.58L386.15,332.53L387.91,346.16L389.67,353.47L391.44,356.39L393.2,363.2L394.96,366.12L403.78,364.66L405.54,364.18L407.3,362.96L409.07,364.18L410.83,362.96L412.59,367.58L414.36,367.58L416.12,369.29L417.88,368.56L419.65,369.78L421.41,369.78L423.17,370.99L424.94,370.02L426.7,372.7L431.99,374.16L433.75,373.43L439.04,372.94L440.81,373.91L451.39,375.86L453.15,375.62L456.68,376.35L458.44,377.57L472.54,378.3L474.31,378.78L477.83,379.03L479.6,379.27L483.12,376.84L484.89,376.84L490.18,371.97L491.94,368.8L493.7,351.52L495.47,347.87L497.23,346.41L498.99,319.14L500.76,297.48L502.52,294.8L504.28,268.99L506.05,261.93L507.81,244.89L509.57,238.81L513.1,178.68L514.86,123.66L516.62,109.06L518.39,69.62L520.15,57.45L521.91,57.69L523.68,19.47L525.44,12.42L527.2,13.63L528.97,0L532.49,5.6L534.26,6.09L537.78,40.41L539.55,52.34L543.07,89.58L544.84,99.56L546.6,98.35L548.36,120.99L550.13,126.1L551.89,137.05L553.65,142.9L555.42,151.66L557.18,156.28L558.94,156.77L562.47,189.88L564.23,197.91L565.99,204.97L567.76,220.79L571.28,229.56L573.05,243.92L574.81,249.52L576.57,260.96L578.34,271.43L580.1,274.11L583.63,281.17L585.39,288.71L588.92,298.69L590.68,301.13L592.44,309.65L594.21,312.57L595.97,311.35L597.73,317.44L599.5,318.41L601.26,323.52L604.79,325.47L606.55,323.04L608.31,325.23L610.08,328.88L611.84,332.29L613.6,333.75L617.13,338.86L618.89,345.19L620.65,344.22L622.42,348.84L624.18,350.06L625.94,352.98L627.71,356.14L629.47,361.5L633,359.31L634.76,359.8L636.52,360.28L638.29,362.23L640.05,363.93L641.81,363.93L648.87,369.78L650.63,368.8L652.39,369.05L654.16,368.32L659.45,369.53L661.21,366.12L662.97,365.39L664.74,363.69L668.26,361.26L670.03,361.74" style="fill: rgb(8, 115, 191); fill-opacity: 0.2; stroke-width: 0;"/></g></g><g class="errorbars"/><g class="lines"><path class="js-line" d="M-239.8,377.81L-139.29,377.81L-137.53,377.57L-128.72,378.3L-126.95,378.78L-118.14,379.27L-116.37,379.27L-89.92,378.54L-88.16,378.3L-84.63,377.32L-82.87,377.32L-74.06,376.11L-72.29,376.11L-70.53,376.11L-68.77,374.16L-65.24,370.02L-63.48,364.18L-61.71,359.8L-59.95,359.31L-58.19,358.58L-56.42,356.14L-52.9,350.06L-51.13,350.06L-47.61,343.97L-45.84,343.97L-44.08,335.7L-42.32,334.48L-38.79,335.21L-37.03,340.08L-33.5,339.1L-31.74,345.19L-21.16,352.49L-19.4,357.36L-17.63,360.53L-15.87,361.74L-14.11,364.66L-12.34,363.93L-7.05,364.91L-5.29,362.72L-3.53,363.93L-1.76,362.47L0,363.69L1.76,363.2L3.53,361.99L5.29,359.31L7.05,359.31L8.82,353.95L12.34,339.59L14.11,337.89L15.87,338.86L17.63,324.74L19.4,310.62L21.16,306L24.69,291.88L26.45,290.17L28.21,288.47L29.97,283.84L31.74,281.9L33.5,270.7L35.26,270.7L37.03,261.93L38.79,260.47L40.55,260.72L44.08,234.43L45.84,233.94L47.61,231.02L49.37,230.04L51.13,228.34L52.9,228.1L58.19,250.01L59.95,260.47L61.71,273.62L63.48,277.76L65.24,278.49L67,291.39L68.77,301.37L70.53,316.46L72.29,312.57L74.06,317.68L77.58,320.85L79.35,332.53L81.11,340.56L82.87,338.86L84.63,351.76L86.4,354.68L89.92,354.68L91.69,357.12L93.45,362.23L95.21,362.47L98.74,366.12L100.5,366.12L102.27,366.12L104.03,369.05L111.08,367.83L112.85,368.8L114.61,369.05L116.37,370.51L119.9,369.29L121.66,369.53L128.72,368.07L130.48,366.37L134.01,367.83L135.77,367.1L139.29,364.18L141.06,361.01L142.82,361.26L144.58,357.6L146.35,355.66L148.11,358.09L149.87,355.41L151.64,355.41L153.4,354.68L155.16,351.03L156.93,350.06L158.69,347.14L160.45,347.87L162.22,350.3L163.98,350.54L165.74,347.62L167.51,348.84L169.27,348.35L171.03,350.54L172.8,346.89L174.56,347.38L176.32,346.65L178.09,347.38L179.85,344.46L181.61,344.7L183.38,342.51L185.14,340.56L186.9,341.05L188.66,341.78L190.43,335.21L192.19,336.67L193.95,336.91L199.24,325.96L201.01,324.25L204.53,314.76L206.3,313.3L208.06,316.22L209.82,314.03L213.35,319.14L215.11,320.6L216.88,321.58L218.64,320.6L220.4,318.17L222.17,317.19L223.93,314.76L225.69,314.03L229.22,325.47L230.98,322.79L232.75,322.79L234.51,326.93L236.27,328.39L238.04,328.88L241.56,326.69L243.32,330.83L248.61,321.58L250.38,320.85L252.14,312.81L253.9,308.67L255.67,301.61L257.43,302.59L259.19,302.59L260.96,304.05L262.72,304.54L264.48,306.97L266.25,301.61L268.01,307.7L273.3,298.45L275.06,298.21L276.83,298.45L278.59,304.05L280.35,298.69L282.12,301.13L283.88,305.51L285.64,306.24L287.41,307.21L289.17,311.11L290.93,312.08L292.7,318.65L294.46,322.79L296.22,323.04L297.98,325.23L299.75,325.23L301.51,323.77L303.27,324.74L305.04,326.2L306.8,324.5L308.56,327.17L310.33,327.17L312.09,326.44L313.85,329.12L315.62,328.39L317.38,324.5L319.14,325.23L320.91,321.82L322.67,321.58L324.43,322.55L326.2,330.83L327.96,325.71L329.72,324.25L331.49,324.74L333.25,325.47L335.01,321.82L336.78,320.12L338.54,307.7L340.3,310.13L342.07,310.86L343.83,309.65L345.59,306.73L347.36,310.38L349.12,308.92L352.64,313.3L354.41,313.79L356.17,315L357.93,317.92L359.7,318.41L361.46,321.09L363.22,317.44L364.99,318.65L366.75,319.39L368.51,323.28L370.28,324.5L372.04,326.69L375.57,324.25L377.33,324.5L379.09,327.66L380.86,324.98L382.62,330.34L384.38,330.58L386.15,332.53L387.91,346.16L389.67,353.47L391.44,356.39L393.2,363.2L394.96,366.12L403.78,364.66L405.54,364.18L407.3,362.96L409.07,364.18L410.83,362.96L412.59,367.58L414.36,367.58L416.12,369.29L417.88,368.56L419.65,369.78L421.41,369.78L423.17,370.99L424.94,370.02L426.7,372.7L431.99,374.16L433.75,373.43L439.04,372.94L440.81,373.91L451.39,375.86L453.15,375.62L456.68,376.35L458.44,377.57L472.54,378.3L474.31,378.78L477.83,379.03L479.6,379.27L483.12,376.84L484.89,376.84L490.18,371.97L491.94,368.8L493.7,351.52L495.47,347.87L497.23,346.41L498.99,319.14L500.76,297.48L502.52,294.8L504.28,268.99L506.05,261.93L507.81,244.89L509.57,238.81L513.1,178.68L514.86,123.66L516.62,109.06L518.39,69.62L520.15,57.45L521.91,57.69L523.68,19.47L525.44,12.42L527.2,13.63L528.97,0L532.49,5.6L534.26,6.09L537.78,40.41L539.55,52.34L543.07,89.58L544.84,99.56L546.6,98.35L548.36,120.99L550.13,126.1L551.89,137.05L553.65,142.9L555.42,151.66L557.18,156.28L558.94,156.77L562.47,189.88L564.23,197.91L565.99,204.97L567.76,220.79L571.28,229.56L573.05,243.92L574.81,249.52L576.57,260.96L578.34,271.43L580.1,274.11L583.63,281.17L585.39,288.71L588.92,298.69L590.68,301.13L592.44,309.65L594.21,312.57L595.97,311.35L597.73,317.44L599.5,318.41L601.26,323.52L604.79,325.47L606.55,323.04L608.31,325.23L610.08,328.88L611.84,332.29L613.6,333.75L617.13,338.86L618.89,345.19L620.65,344.22L622.42,348.84L624.18,350.06L625.94,352.98L627.71,356.14L629.47,361.5L633,359.31L634.76,359.8L636.52,360.28L638.29,362.23L640.05,363.93L641.81,363.93L648.87,369.78L650.63,368.8L652.39,369.05L654.16,368.32L659.45,369.53L661.21,366.12L662.97,365.39L664.74,363.69L668.26,361.26L670.03,361.74" style="vector-effect: non-scaling-stroke; fill: none; stroke: rgb(8, 115, 191); stroke-opacity: 1; stroke-width: 0.5px; opacity: 1;"/></g><g class="points"/><g class="text"/></g><g class="trace scatter trace0e4ceb" style="stroke-miterlimit: 2;"><g class="fills"><g><path class="js-fill" d="M687.66,380L670.03,380L670.03,361.74L671.79,361.01L673.55,361.99L675.31,362.23L677.08,360.53L682.37,357.12L684.13,352.74L687.66,347.38" style="fill: rgb(8, 115, 191); fill-opacity: 0.4; stroke-width: 0;"/></g></g><g class="errorbars"/><g class="lines"><path class="js-line" d="M670.03,361.74L671.79,361.01L673.55,361.99L675.31,362.23L677.08,360.53L682.37,357.12L684.13,352.74L687.66,347.38" style="vector-effect: non-scaling-stroke; fill: none; stroke: rgb(8, 115, 191); stroke-opacity: 1; stroke-width: 2px; opacity: 1;"/></g><g class="points"/><g class="text"/></g><g class="trace scatter trace8c0ebd" style="stroke-miterlimit: 2; opacity: 1;"><g class="fills"/><g class="errorbars"/><g class="lines"/><g class="points"><path class="point" transform="translate(687.66,347.38)" d="M15,0A15,15 0 1,1 0,-15A15,15 0 0,1 15,0Z" style="opacity: 1; stroke-width: 0px; fill: rgb(8, 115, 191); fill-opacity: 1;"/></g><g class="text"/></g></g></g><g class="overplot"/><path class="xlines-above crisp" style="fill: none; stroke-width: 1px; stroke: rgb(0, 0, 0); stroke-opacity: 0;" d=""/><path class="ylines-above crisp" style="fill: none;" d="M0,0"/><g class="overlines-above"/><g class="xaxislayer-above"><path class="xtick ticks crisp" d="M0,450v-5" transform="translate(108.19,0)" style="stroke: rgb(68, 68, 68); stroke-opacity: 1; stroke-width: 1px;"/><path class="xtick ticks crisp" d="M0,450v-5" transform="translate(215.74,0)" style="stroke: rgb(68, 68, 68); stroke-opacity: 1; stroke-width: 1px;"/><path class="xtick ticks crisp" d="M0,450v-5" transform="translate(319.77,0)" style="stroke: rgb(68, 68, 68); stroke-opacity: 1; stroke-width: 1px;"/><path class="xtick ticks crisp" d="M0,450v-5" transform="translate(427.33,0)" style="stroke: rgb(68, 68, 68); stroke-opacity: 1; stroke-width: 1px;"/><path class="xtick ticks crisp" d="M0,450v-5" transform="translate(534.89,0)" style="stroke: rgb(68, 68, 68); stroke-opacity: 1; stroke-width: 1px;"/><path class="xtick ticks crisp" d="M0,450v-5" transform="translate(644.21,0)" style="stroke: rgb(68, 68, 68); stroke-opacity: 1; stroke-width: 1px;"/><g class="xtick"><text text-anchor="middle" x="0" y="469" transform="translate(108.19,0)" style="font-family: 'Open Sans', verdana, arial, sans-serif; font-size: 18px; fill: rgb(42, 63, 95); fill-opacity: 1; white-space: pre;">01/11</text></g><g class="xtick"><text text-anchor="middle" x="0" y="469" transform="translate(215.74,0)" style="font-family: 'Open Sans', verdana, arial, sans-serif; font-size: 18px; fill: rgb(42, 63, 95); fill-opacity: 1; white-space: pre;">01/01</text></g><g class="xtick"><text text-anchor="middle" x="0" y="469" transform="translate(319.77,0)" style="font-family: 'Open Sans', verdana, arial, sans-serif; font-size: 18px; fill: rgb(42, 63, 95); fill-opacity: 1; white-space: pre;">01/03</text></g><g class="xtick"><text text-anchor="middle" x="0" y="469" transform="translate(427.33,0)" style="font-family: 'Open Sans', verdana, arial, sans-serif; font-size: 18px; fill: rgb(42, 63, 95); fill-opacity: 1; white-space: pre;">01/05</text></g><g class="xtick"><text text-anchor="middle" x="0" y="469" transform="translate(534.89,0)" style="font-family: 'Open Sans', verdana, arial, sans-serif; font-size: 18px; fill: rgb(42, 63, 95); fill-opacity: 1; white-space: pre;">01/07</text></g><g class="xtick"><text text-anchor="middle" x="0" y="469" transform="translate(644.21,0)" style="font-family: 'Open Sans', verdana, arial, sans-serif; font-size: 18px; fill: rgb(42, 63, 95); fill-opacity: 1; white-space: pre;">01/09</text></g></g><g class="yaxislayer-above"/><g class="overaxes-above"/></g></g><g class="polarlayer"/><g class="ternarylayer"/><g class="geolayer"/><g class="funnelarealayer"/><g class="pielayer"/><g class="treemaplayer"/><g class="sunburstlayer"/><g class="glimages"/><defs id="topdefs-09cf88"><g class="clips"/></defs><g class="layer-above"><g class="imagelayer"/><g class="shapelayer"><path data-index="0" fill-rule="evenodd" d="M-940.93,427.82L347.98,427.82" clip-path="url('#clip09cf88xy')" style="opacity: 1; stroke: rgb(255, 0, 0); stroke-opacity: 1; fill: rgb(0, 0, 0); fill-opacity: 0; stroke-dasharray: 3px, 3px; stroke-width: 1.5px;"/></g></g><g class="infolayer"><g class="g-gtitle"><text class="gtitle" x="375" y="25" text-anchor="middle" dy="0.7em" style="font-family: 'Open Sans', verdana, arial, sans-serif; font-size: 50px; fill: rgb(42, 63, 95); opacity: 1; font-weight: normal; white-space: pre;"><tspan style="font-weight:bold">Haute-Corse (2B)</tspan></text></g><g class="g-xtitle"/><g class="annotation" data-index="0" style="opacity: 1;"><g class="annotation-text-g" transform="rotate(0,695.66,357.38)"><g class="cursor-pointer" transform="translate(652, 321)"><rect class="bg" x="0.5" y="0.5" width="86" height="71" style="stroke-width: 1px; stroke: rgb(0, 0, 0); stroke-opacity: 0; fill: rgb(255, 255, 255); fill-opacity: 0.6;"/><text class="annotation-text" text-anchor="middle" x="43.53125" y="55.5" style="font-family: 'Open Sans', verdana, arial, sans-serif; font-size: 50px; fill: rgb(8, 115, 191); fill-opacity: 1; white-space: pre;"> <tspan style="font-weight:bold">73 </tspan></text></g></g><g class="annotation-arrow-g" style="opacity: 1;"><path d="M724.06,392.88L735.66,407.38" style="stroke-width: 1px; stroke: rgb(8, 115, 191); stroke-opacity: 1; stroke-dasharray: 0px, 0px, 18.569px, 18.569px;"/></g></g></g></svg>