<svg class="main-svg" xmlns="http://www.w3.org/2000/svg" xmlns:xlink="http://www.w3.org/1999/xlink" width="1125" height="750" style="" viewBox="0 0 750 500"><rect x="0" y="0" width="750" height="500" style="fill: rgb(0, 0, 0); fill-opacity: 0;"/><defs id="defs-06daee"><g class="clips"><clipPath id="clip06daeexyplot" class="plotclip"><rect width="700" height="380"/></clipPath><clipPath class="axesclip" id="clip06daeex"><rect x="50" y="0" width="700" height="500"/></clipPath><clipPath class="axesclip" id="clip06daeey"><rect x="0" y="70" width="750" height="380"/></clipPath><clipPath class="axesclip" id="clip06daeexy"><rect x="50" y="70" width="700" height="380"/></clipPath></g><g class="gradients"/></defs><g class="bglayer"><rect class="bg" x="50" y="70" width="700" height="380" style="fill: rgb(0, 0, 0); fill-opacity: 0; stroke-width: 0;"/></g><g class="layer-below"><g class="imagelayer"/><g class="shapelayer"/></g><g class="cartesianlayer"><g class="subplot xy"><g class="layer-subplot"><g class="shapelayer"/><g class="imagelayer"/></g><g class="gridlayer"><g class="x"><path class="xgrid crisp" transform="translate(91.55,0)" d="M0,70v380" style="stroke: rgb(255, 255, 255); stroke-opacity: 1; stroke-width: 1px;"/><path class="xgrid crisp" transform="translate(168.35,0)" d="M0,70v380" style="stroke: rgb(255, 255, 255); stroke-opacity: 1; stroke-width: 1px;"/><path class="xgrid crisp" transform="translate(242.63,0)" d="M0,70v380" style="stroke: rgb(255, 255, 255); stroke-opacity: 1; stroke-width: 1px;"/><path class="xgrid crisp" transform="translate(319.42,0)" d="M0,70v380" style="stroke: rgb(255, 255, 255); stroke-opacity: 1; stroke-width: 1px;"/><path class="xgrid crisp" transform="translate(396.22,0)" d="M0,70v380" style="stroke: rgb(255, 255, 255); stroke-opacity: 1; stroke-width: 1px;"/><path class="xgrid crisp" transform="translate(474.28,0)" d="M0,70v380" style="stroke: rgb(255, 255, 255); stroke-opacity: 1; stroke-width: 1px;"/><path class="xgrid crisp" transform="translate(551.0799999999999,0)" d="M0,70v380" style="stroke: rgb(255, 255, 255); stroke-opacity: 1; stroke-width: 1px;"/><path class="xgrid crisp" transform="translate(627.88,0)" d="M0,70v380" style="stroke: rgb(255, 255, 255); stroke-opacity: 1; stroke-width: 1px;"/><path class="xgrid crisp" transform="translate(702.16,0)" d="M0,70v380" style="stroke: rgb(255, 255, 255); stroke-opacity: 1; stroke-width: 1px;"/></g><g class="y"/></g><g class="zerolinelayer"/><path class="xlines-below"/><path class="ylines-below"/><g class="overlines-below"/><g class="xaxislayer-below"/><g class="yaxislayer-below"/><g class="overaxes-below"/><g class="plot" transform="translate(50, 70)" clip-path="url('#clip06daeexyplot')"><g class="scatterlayer mlayer"><g class="trace scatter tracea391ef" style="stroke-miterlimit: 2;"><g class="fills"><g><path class="js-fill" d="M678.6,380L-171.22,380L-171.22,378.59L-50.36,378.57L-49.1,378.52L-28.96,377.2L-27.7,376.75L-22.66,375.44L-21.4,375.21L-17.63,374.65L-16.37,374.59L-7.55,374.71L-6.29,374.57L-1.26,374.42L0,374.03L2.52,374.24L3.78,373.43L8.81,369.28L10.07,368.4L11.33,368.38L12.59,367.2L18.88,360.46L20.14,360.42L27.7,347.45L28.96,347.37L31.47,345.51L32.73,343.62L33.99,344.33L35.25,344.16L39.03,342.4L40.29,342.81L42.81,342.3L44.06,342.85L46.58,342.47L47.84,343.54L49.1,344.31L50.36,350.28L54.14,355.35L55.4,355.35L57.91,360.4L59.17,357.68L64.21,361.94L65.47,362.2L71.76,365.98L73.02,365.88L74.28,366.69L75.54,366.26L78.06,366.97L79.32,366.11L83.09,363.65L84.35,363.7L86.87,361.41L88.13,360.01L90.65,360.01L91.91,358.37L93.17,356.93L94.42,354.28L95.68,351.78L96.94,351.5L100.72,350.49L101.98,350.86L103.24,352.4L104.5,356.33L105.76,360.98L107.01,361.21L109.53,362.05L110.79,361.36L112.05,362.05L113.31,361.36L117.09,360.85L118.35,361.62L119.6,363.1L120.86,363.27L122.12,363.16L123.38,359.44L125.9,359.57L127.16,358.17L130.94,356.36L132.19,356.59L135.97,356.06L137.23,355.56L142.27,353.04L143.53,352.93L147.3,351.71L148.56,352.2L156.12,352.42L157.37,351.76L162.41,351.39L163.67,351.24L171.22,355.65L172.48,357.02L175,358.11L176.26,357.64L178.78,356.91L180.04,357.62L182.55,355.39L183.81,355.39L187.59,355.29L188.85,355.67L191.37,357.64L192.63,356.68L196.4,355.95L197.66,354.32L200.18,351.58L201.44,351.71L203.96,350.77L205.22,350.6L206.47,349.34L207.73,349.44L212.77,343.75L214.03,343.77L216.55,339.15L217.81,338L220.32,335.73L221.58,335.96L222.84,336.01L224.1,335.17L226.62,332.75L227.88,332.69L229.14,333.82L230.4,333.87L231.65,333.82L232.91,343.45L234.17,341.83L235.43,342.21L236.69,342.94L237.95,342.34L239.21,342.88L240.47,342.53L241.73,334.66L242.99,338.94L244.24,339.73L245.5,339.54L249.28,340.46L250.54,341.74L253.06,342.25L254.32,343.88L255.58,345.79L256.83,346.06L260.61,346.71L261.87,348.8L264.39,349.53L265.65,352.55L266.91,352.38L268.17,353L271.94,354.99L273.2,355.99L275.72,356.25L276.98,357.64L279.5,357.83L280.76,361.23L284.53,358.09L285.79,357.02L288.31,358.67L289.57,357.15L290.83,359.89L292.09,360.66L293.35,361.06L294.6,367.1L295.86,366.5L297.12,367.18L299.64,367.29L300.9,367.63L302.16,367.7L303.42,366.26L305.94,370.37L307.19,371.74L309.71,373.26L310.97,373.3L316.01,375.81L317.27,376.36L324.82,378.8L326.08,378.95L343.71,378.78L344.96,378.78L361.33,377.48L362.59,376.9L363.85,376.94L365.11,375.31L370.14,372.81L371.4,372.72L377.7,372.81L378.96,372.15L385.25,371.68L386.51,370.65L391.55,370.67L392.81,370.26L394.06,369.62L395.32,370.29L397.84,369.84L399.1,369.79L401.62,369.47L402.88,369.81L411.69,370.37L412.95,370.26L416.73,369.94L417.99,370.37L420.5,371.59L421.76,372.25L424.28,373.99L425.54,374.05L431.83,376.28L433.09,376.38L441.91,376.96L443.17,376.98L473.38,377.86L474.64,377.65L480.94,377.82L482.19,377.37L485.97,376.7L487.23,376.64L492.27,376.23L493.53,376.08L496.04,375.83L497.3,376.45L503.6,373.69L504.86,373.73L506.12,372.32L507.37,372.38L508.63,371.57L509.89,372.3L514.93,369.94L516.19,369.13L517.45,368.21L518.71,365.71L527.52,359.78L528.78,358.62L531.29,357.9L532.55,355.5L536.33,350.15L537.59,348.31L542.63,346.49L543.88,346.94L545.14,346.43L546.4,347.2L552.7,346.88L553.96,347.65L556.47,348.44L557.73,348.4L558.99,349.91L560.25,349.4L564.03,342.55L565.29,345.16L566.55,344.61L567.81,331.36L571.58,284.05L572.84,268.65L574.1,267.66L575.36,264.84L577.88,211.32L579.14,199.17L581.65,182.97L582.91,159.95L584.17,157.51L585.43,158.64L586.69,158.41L587.95,151.75L589.21,145.89L590.47,135.38L591.73,126.37L592.99,123.85L595.5,77.87L596.76,59.87L599.28,26.6L600.54,17.29L601.8,14.29L603.06,3.59L605.58,0L606.83,5.54L609.35,12.22L610.61,12.82L613.13,35.35L614.39,50.07L615.65,60.19L616.91,77.8L619.42,100.98L620.68,138.42L625.72,226.17L626.98,237.53L628.24,239.25L629.5,257.67L633.27,286.34L634.53,292.27L635.79,295.37L637.05,296.4L644.6,321.8L645.86,322.1L648.38,328.32L649.64,329.57L650.9,329.89L652.16,327.75L654.68,327.53L655.94,325.48L658.45,321.03L659.71,317.03L660.97,314.99L662.23,310.05L663.49,309.05L664.75,300.17L671.04,273.2L672.3,273.08L678.6,235.4" style="fill: rgb(8, 115, 191); fill-opacity: 0.2; stroke-width: 0;"/></g></g><g class="errorbars"/><g class="lines"><path class="js-line" d="M-171.22,378.59L-50.36,378.57L-49.1,378.52L-28.96,377.2L-27.7,376.75L-22.66,375.44L-21.4,375.21L-17.63,374.65L-16.37,374.59L-7.55,374.71L-6.29,374.57L-1.26,374.42L0,374.03L2.52,374.24L3.78,373.43L8.81,369.28L10.07,368.4L11.33,368.38L12.59,367.2L18.88,360.46L20.14,360.42L27.7,347.45L28.96,347.37L31.47,345.51L32.73,343.62L33.99,344.33L35.25,344.16L39.03,342.4L40.29,342.81L42.81,342.3L44.06,342.85L46.58,342.47L47.84,343.54L49.1,344.31L50.36,350.28L54.14,355.35L55.4,355.35L57.91,360.4L59.17,357.68L64.21,361.94L65.47,362.2L71.76,365.98L73.02,365.88L74.28,366.69L75.54,366.26L78.06,366.97L79.32,366.11L83.09,363.65L84.35,363.7L86.87,361.41L88.13,360.01L90.65,360.01L91.91,358.37L93.17,356.93L94.42,354.28L95.68,351.78L96.94,351.5L100.72,350.49L101.98,350.86L103.24,352.4L104.5,356.33L105.76,360.98L107.01,361.21L109.53,362.05L110.79,361.36L112.05,362.05L113.31,361.36L117.09,360.85L118.35,361.62L119.6,363.1L120.86,363.27L122.12,363.16L123.38,359.44L125.9,359.57L127.16,358.17L130.94,356.36L132.19,356.59L135.97,356.06L137.23,355.56L142.27,353.04L143.53,352.93L147.3,351.71L148.56,352.2L156.12,352.42L157.37,351.76L162.41,351.39L163.67,351.24L171.22,355.65L172.48,357.02L175,358.11L176.26,357.64L178.78,356.91L180.04,357.62L182.55,355.39L183.81,355.39L187.59,355.29L188.85,355.67L191.37,357.64L192.63,356.68L196.4,355.95L197.66,354.32L200.18,351.58L201.44,351.71L203.96,350.77L205.22,350.6L206.47,349.34L207.73,349.44L212.77,343.75L214.03,343.77L216.55,339.15L217.81,338L220.32,335.73L221.58,335.96L222.84,336.01L224.1,335.17L226.62,332.75L227.88,332.69L229.14,333.82L230.4,333.87L231.65,333.82L232.91,343.45L234.17,341.83L235.43,342.21L236.69,342.94L237.95,342.34L239.21,342.88L240.47,342.53L241.73,334.66L242.99,338.94L244.24,339.73L245.5,339.54L249.28,340.46L250.54,341.74L253.06,342.25L254.32,343.88L255.58,345.79L256.83,346.06L260.61,346.71L261.87,348.8L264.39,349.53L265.65,352.55L266.91,352.38L268.17,353L271.94,354.99L273.2,355.99L275.72,356.25L276.98,357.64L279.5,357.83L280.76,361.23L284.53,358.09L285.79,357.02L288.31,358.67L289.57,357.15L290.83,359.89L292.09,360.66L293.35,361.06L294.6,367.1L295.86,366.5L297.12,367.18L299.64,367.29L300.9,367.63L302.16,367.7L303.42,366.26L305.94,370.37L307.19,371.74L309.71,373.26L310.97,373.3L316.01,375.81L317.27,376.36L324.82,378.8L326.08,378.95L343.71,378.78L344.96,378.78L361.33,377.48L362.59,376.9L363.85,376.94L365.11,375.31L370.14,372.81L371.4,372.72L377.7,372.81L378.96,372.15L385.25,371.68L386.51,370.65L391.55,370.67L392.81,370.26L394.06,369.62L395.32,370.29L397.84,369.84L399.1,369.79L401.62,369.47L402.88,369.81L411.69,370.37L412.95,370.26L416.73,369.94L417.99,370.37L420.5,371.59L421.76,372.25L424.28,373.99L425.54,374.05L431.83,376.28L433.09,376.38L441.91,376.96L443.17,376.98L473.38,377.86L474.64,377.65L480.94,377.82L482.19,377.37L485.97,376.7L487.23,376.64L492.27,376.23L493.53,376.08L496.04,375.83L497.3,376.45L503.6,373.69L504.86,373.73L506.12,372.32L507.37,372.38L508.63,371.57L509.89,372.3L514.93,369.94L516.19,369.13L517.45,368.21L518.71,365.71L527.52,359.78L528.78,358.62L531.29,357.9L532.55,355.5L536.33,350.15L537.59,348.31L542.63,346.49L543.88,346.94L545.14,346.43L546.4,347.2L552.7,346.88L553.96,347.65L556.47,348.44L557.73,348.4L558.99,349.91L560.25,349.4L564.03,342.55L565.29,345.16L566.55,344.61L567.81,331.36L571.58,284.05L572.84,268.65L574.1,267.66L575.36,264.84L577.88,211.32L579.14,199.17L581.65,182.97L582.91,159.95L584.17,157.51L585.43,158.64L586.69,158.41L587.95,151.75L589.21,145.89L590.47,135.38L591.73,126.37L592.99,123.85L595.5,77.87L596.76,59.87L599.28,26.6L600.54,17.29L601.8,14.29L603.06,3.59L605.58,0L606.83,5.54L609.35,12.22L610.61,12.82L613.13,35.35L614.39,50.07L615.65,60.19L616.91,77.8L619.42,100.98L620.68,138.42L625.72,226.17L626.98,237.53L628.24,239.25L629.5,257.67L633.27,286.34L634.53,292.27L635.79,295.37L637.05,296.4L644.6,321.8L645.86,322.1L648.38,328.32L649.64,329.57L650.9,329.89L652.16,327.75L654.68,327.53L655.94,325.48L658.45,321.03L659.71,317.03L660.97,314.99L662.23,310.05L663.49,309.05L664.75,300.17L671.04,273.2L672.3,273.08L678.6,235.4" style="vector-effect: non-scaling-stroke; fill: none; stroke: rgb(8, 115, 191); stroke-opacity: 1; stroke-width: 0.5px; opacity: 1;"/></g><g class="points"/><g class="text"/></g><g class="trace scatter traced0fd54" style="stroke-miterlimit: 2;"><g class="fills"><g><path class="js-fill" d="M691.19,380L678.6,380L678.6,235.4L679.86,231.09L681.12,231.09L683.63,215.94L684.89,211.79L688.67,213.48L689.93,212.97L691.19,216.16" style="fill: rgb(8, 115, 191); fill-opacity: 0.4; stroke-width: 0;"/></g></g><g class="errorbars"/><g class="lines"><path class="js-line" d="M678.6,235.4L679.86,231.09L681.12,231.09L683.63,215.94L684.89,211.79L688.67,213.48L689.93,212.97L691.19,216.16" style="vector-effect: non-scaling-stroke; fill: none; stroke: rgb(8, 115, 191); stroke-opacity: 1; stroke-width: 2px; opacity: 1;"/></g><g class="points"/><g class="text"/></g><g class="trace scatter trace835357" style="stroke-miterlimit: 2; opacity: 1;"><g class="fills"/><g class="errorbars"/><g class="lines"/><g class="points"><path class="point" transform="translate(691.19,216.16)" d="M15,0A15,15 0 1,1 0,-15A15,15 0 0,1 15,0Z" style="opacity: 1; stroke-width: 0px; fill: rgb(8, 115, 191); fill-opacity: 1;"/></g><g class="text"/></g></g></g><g class="overplot"/><path class="xlines-above crisp" style="fill: none; stroke-width: 1px; stroke: rgb(0, 0, 0); stroke-opacity: 0;" d=""/><path class="ylines-above crisp" style="fill: none;" d="M0,0"/><g class="overlines-above"/><g class="xaxislayer-above"><path class="xtick ticks crisp" d="M0,450v-5" transform="translate(91.55,0)" style="stroke: rgb(68, 68, 68); stroke-opacity: 1; stroke-width: 1px;"/><path class="xtick ticks crisp" d="M0,450v-5" transform="translate(168.35,0)" style="stroke: rgb(68, 68, 68); stroke-opacity: 1; stroke-width: 1px;"/><path class="xtick ticks crisp" d="M0,450v-5" transform="translate(242.63,0)" style="stroke: rgb(68, 68, 68); stroke-opacity: 1; stroke-width: 1px;"/><path class="xtick ticks crisp" d="M0,450v-5" transform="translate(319.42,0)" style="stroke: rgb(68, 68, 68); stroke-opacity: 1; stroke-width: 1px;"/><path class="xtick ticks crisp" d="M0,450v-5" transform="translate(396.22,0)" style="stroke: rgb(68, 68, 68); stroke-opacity: 1; stroke-width: 1px;"/><path class="xtick ticks crisp" d="M0,450v-5" transform="translate(474.28,0)" style="stroke: rgb(68, 68, 68); stroke-opacity: 1; stroke-width: 1px;"/><path class="xtick ticks crisp" d="M0,450v-5" transform="translate(551.0799999999999,0)" style="stroke: rgb(68, 68, 68); stroke-opacity: 1; stroke-width: 1px;"/><path class="xtick ticks crisp" d="M0,450v-5" transform="translate(627.88,0)" style="stroke: rgb(68, 68, 68); stroke-opacity: 1; stroke-width: 1px;"/><path class="xtick ticks crisp" d="M0,450v-5" transform="translate(702.16,0)" style="stroke: rgb(68, 68, 68); stroke-opacity: 1; stroke-width: 1px;"/><g class="xtick"><text text-anchor="middle" x="0" y="469" transform="translate(91.55,0)" style="font-family: 'Open Sans', verdana, arial, sans-serif; font-size: 18px; fill: rgb(42, 63, 95); fill-opacity: 1; white-space: pre;">01/11</text></g><g class="xtick"><text text-anchor="middle" x="0" y="469" transform="translate(168.35,0)" style="font-family: 'Open Sans', verdana, arial, sans-serif; font-size: 18px; fill: rgb(42, 63, 95); fill-opacity: 1; white-space: pre;">01/01</text></g><g class="xtick"><text text-anchor="middle" x="0" y="469" transform="translate(242.63,0)" style="font-family: 'Open Sans', verdana, arial, sans-serif; font-size: 18px; fill: rgb(42, 63, 95); fill-opacity: 1; white-space: pre;">01/03</text></g><g class="xtick"><text text-anchor="middle" x="0" y="469" transform="translate(319.42,0)" style="font-family: 'Open Sans', verdana, arial, sans-serif; font-size: 18px; fill: rgb(42, 63, 95); fill-opacity: 1; white-space: pre;">01/05</text></g><g class="xtick"><text text-anchor="middle" x="0" y="469" transform="translate(396.22,0)" style="font-family: 'Open Sans', verdana, arial, sans-serif; font-size: 18px; fill: rgb(42, 63, 95); fill-opacity: 1; white-space: pre;">01/07</text></g><g class="xtick"><text text-anchor="middle" x="0" y="469" transform="translate(474.28,0)" style="font-family: 'Open Sans', verdana, arial, sans-serif; font-size: 18px; fill: rgb(42, 63, 95); fill-opacity: 1; white-space: pre;">01/09</text></g><g class="xtick"><text text-anchor="middle" x="0" y="469" transform="translate(551.0799999999999,0)" style="font-family: 'Open Sans', verdana, arial, sans-serif; font-size: 18px; fill: rgb(42, 63, 95); fill-opacity: 1; white-space: pre;">01/11</text></g><g class="xtick"><text text-anchor="middle" x="0" y="469" transform="translate(627.88,0)" style="font-family: 'Open Sans', verdana, arial, sans-serif; font-size: 18px; fill: rgb(42, 63, 95); fill-opacity: 1; white-space: pre;">01/01</text></g><g class="xtick"><text text-anchor="middle" x="0" y="469" transform="translate(702.16,0)" style="font-family: 'Open Sans', verdana, arial, sans-serif; font-size: 18px; fill: rgb(42, 63, 95); fill-opacity: 1; white-space: pre;">01/03</text></g></g><g class="yaxislayer-above"/><g class="overaxes-above"/></g></g><g class="polarlayer"/><g class="ternarylayer"/><g class="geolayer"/><g class="funnelarealayer"/><g class="pielayer"/><g class="treemaplayer"/><g class="sunburstlayer"/><g class="glimages"/><defs id="topdefs-06daee"><g class="clips"/></defs><g class="layer-above"><g class="imagelayer"/><g class="shapelayer"><path data-index="0" fill-rule="evenodd" d="M-657.55,444.37L262.77,444.37" clip-path="url('#clip06daeexy')" style="opacity: 1; stroke: rgb(255, 0, 0); stroke-opacity: 1; fill: rgb(0, 0, 0); fill-opacity: 0; stroke-dasharray: 3px, 3px; stroke-width: 1.5px;"/></g></g><g class="infolayer"><g class="g-gtitle"><text class="gtitle" x="375" y="25" text-anchor="middle" dy="0.7em" style="font-family: 'Open Sans', verdana, arial, sans-serif; font-size: 50px; fill: rgb(42, 63, 95); opacity: 1; font-weight: normal; white-space: pre;"><tspan style="font-weight:bold">Aisne (02)</tspan></text></g><g class="g-xtitle"/><g class="annotation" data-index="0" style="opacity: 1;"><g class="annotation-text-g" transform="rotate(0,699.19,226.15999999999997)"><g class="cursor-pointer" transform="translate(627, 190)"><rect class="bg" x="0.5" y="0.5" width="143" height="71" style="stroke-width: 1px; stroke: rgb(0, 0, 0); stroke-opacity: 0; fill: rgb(255, 255, 255); fill-opacity: 0.6;"/><text class="annotation-text" text-anchor="middle" x="72.078125" y="55.5" style="font-family: 'Open Sans', verdana, arial, sans-serif; font-size: 50px; fill: rgb(8, 115, 191); fill-opacity: 1; white-space: pre;"> <tspan style="font-weight:bold">1455 </tspan></text></g></g><g class="annotation-arrow-g" style="opacity: 1;"><path d="M727.59,261.65999999999997L739.19,276.15999999999997" style="stroke-width: 1px; stroke: rgb(8, 115, 191); stroke-opacity: 1; stroke-dasharray: 0px, 0px, 18.569px, 18.569px;"/></g></g></g></svg>