<svg class="main-svg" xmlns="http://www.w3.org/2000/svg" xmlns:xlink="http://www.w3.org/1999/xlink" width="1125" height="750" style="" viewBox="0 0 750 500"><rect x="0" y="0" width="750" height="500" style="fill: rgb(0, 0, 0); fill-opacity: 0;"/><defs id="defs-18881d"><g class="clips"><clipPath id="clip18881dxyplot" class="plotclip"><rect width="698" height="380"/></clipPath><clipPath class="axesclip" id="clip18881dx"><rect x="50" y="0" width="698" height="500"/></clipPath><clipPath class="axesclip" id="clip18881dy"><rect x="0" y="70" width="750" height="380"/></clipPath><clipPath class="axesclip" id="clip18881dxy"><rect x="50" y="70" width="698" height="380"/></clipPath></g><g class="gradients"/></defs><g class="bglayer"><rect class="bg" x="50" y="70" width="698" height="380" style="fill: rgb(0, 0, 0); fill-opacity: 0; stroke-width: 0;"/></g><g class="layer-below"><g class="imagelayer"/><g class="shapelayer"/></g><g class="cartesianlayer"><g class="subplot xy"><g class="layer-subplot"><g class="shapelayer"/><g class="imagelayer"/></g><g class="gridlayer"><g class="x"><path class="xgrid crisp" transform="translate(106.03999999999999,0)" d="M0,70v380" style="stroke: rgb(255, 255, 255); stroke-opacity: 1; stroke-width: 1px;"/><path class="xgrid crisp" transform="translate(209.64,0)" d="M0,70v380" style="stroke: rgb(255, 255, 255); stroke-opacity: 1; stroke-width: 1px;"/><path class="xgrid crisp" transform="translate(309.84,0)" d="M0,70v380" style="stroke: rgb(255, 255, 255); stroke-opacity: 1; stroke-width: 1px;"/><path class="xgrid crisp" transform="translate(413.44,0)" d="M0,70v380" style="stroke: rgb(255, 255, 255); stroke-opacity: 1; stroke-width: 1px;"/><path class="xgrid crisp" transform="translate(517.03,0)" d="M0,70v380" style="stroke: rgb(255, 255, 255); stroke-opacity: 1; stroke-width: 1px;"/><path class="xgrid crisp" transform="translate(622.33,0)" d="M0,70v380" style="stroke: rgb(255, 255, 255); stroke-opacity: 1; stroke-width: 1px;"/><path class="xgrid crisp" transform="translate(725.92,0)" d="M0,70v380" style="stroke: rgb(255, 255, 255); stroke-opacity: 1; stroke-width: 1px;"/></g><g class="y"/></g><g class="zerolinelayer"/><path class="xlines-below"/><path class="ylines-below"/><g class="overlines-below"/><g class="xaxislayer-below"/><g class="yaxislayer-below"/><g class="overaxes-below"/><g class="plot" transform="translate(50, 70)" clip-path="url('#clip18881dxyplot')"><g class="scatterlayer mlayer"><g class="trace scatter tracec59810" style="stroke-miterlimit: 2;"><g class="fills"><g><path class="js-fill" d="M669.13,380L-230.97,380L-230.97,373.13L-219.08,375.39L-217.38,375.42L-210.59,374.77L-208.89,375.11L-169.83,376.1L-168.13,376.35L-146.05,374.77L-144.36,374.29L-127.37,372.17L-125.67,372.28L-120.58,370.42L-118.88,369.74L-113.79,368.41L-112.09,366.46L-98.5,354.25L-96.8,350.92L-88.31,337.1L-86.61,335.06L-83.22,332.57L-81.52,334.78L-79.82,336.81L-78.12,334.21L-69.63,319.6L-67.93,318.58L-57.74,285.4L-56.04,285.06L-52.65,274.83L-50.95,276.27L-47.55,272.63L-45.85,269.86L-44.16,270.54L-42.46,268.81L-40.76,266.52L-39.06,260.84L-35.66,252.11L-33.97,253.63L-32.27,252.62L-30.57,247.53L-22.08,225.54L-20.38,224.27L-15.28,211.24L-13.59,210.08L-11.89,209.74L-10.19,211.61L-8.49,212.34L-6.79,215.34L-5.09,218.14L-3.4,216.67L1.7,193.38L3.4,191.06L6.79,154.6L8.49,141.8L11.89,117.21L13.59,115.94L15.28,114.3L16.98,108.28L18.68,104.57L20.38,103.47L22.08,103.7L23.78,99.8L25.47,96.75L27.17,96.83L28.87,91.01L30.57,77.92L35.66,28.52L37.36,20.72L39.06,19.16L40.76,3.28L42.46,0L44.16,8.37L47.55,36.37L49.25,43.24L50.95,45.48L52.65,68.71L59.44,158.5L61.14,173.14L62.84,177.66L64.54,203.75L66.23,222.57L67.93,251.97L69.63,260.22L71.33,274.66L73.03,278.03L74.73,278.99L78.12,298.94L79.82,290.26L81.52,300.75L83.22,302.76L86.61,303.32L88.31,308.92L90.01,313.07L91.71,315.11L93.41,316.55L95.1,319.77L96.8,320.68L98.5,320.11L100.2,322.26L101.9,322.63L103.6,325.45L105.29,325.59L110.39,326.38L112.09,324.91L113.79,324.66L115.48,321.81L118.88,316.52L120.58,314.88L122.28,313.78L123.98,309.2L127.37,299.87L129.07,296.93L132.47,289.81L134.17,288.2L137.56,280.43L139.26,278.68L140.96,279.89L142.66,293.77L144.36,292.13L146.05,293.83L147.75,293.68L149.45,295.86L151.15,297.81L152.85,298.15L154.55,298.01L156.24,298.97L164.73,288.74L166.43,273.14L168.13,271.38L169.83,271.53L171.53,270.99L173.23,271.89L174.92,268.36L176.62,267.03L178.32,267.4L180.02,266.75L186.81,267.77L188.51,266.3L190.21,262.48L191.91,263.89L195.3,265.05L197,263.61L200.4,260.28L202.1,260.56L205.49,256.21L207.19,251.6L208.89,248.63L210.59,249.08L212.29,251.29L213.99,250.02L217.38,254.17L219.08,254.09L220.78,254.37L222.48,251.37L225.87,251.94L227.57,250.84L229.27,249.79L230.97,249.65L234.36,244.45L236.06,236.76L237.76,229.67L239.46,226.19L241.16,225.4L242.86,217.49L244.55,214.07L246.25,215.22L247.95,214.69L249.65,218.14L253.05,217.54L254.74,217.77L256.44,216.33L258.14,213.78L259.84,213.05L261.54,210.9L263.24,208.92L264.93,209.15L266.63,206.46L268.33,201.6L275.12,170.82L276.82,166.95L281.92,123.76L283.62,114.52L287.01,97.93L288.71,93.07L290.41,79.93L292.11,72.83L295.5,66.76L297.2,61.33L298.9,58.36L300.6,61.44L304,56.44L305.69,55.76L307.39,50.34L309.09,48.7L312.49,51.02L314.18,102.03L315.88,91.94L317.58,92.93L320.98,101.75L322.68,103.27L324.37,102.26L326.07,61.95L327.77,83.86L329.47,92.56L332.87,105L334.56,109.49L336.26,110L337.96,118.03L343.06,132.05L344.75,141.91L346.45,146.69L348.15,148.58L354.94,191.26L356.64,198.07L358.34,213.02L360.04,213.36L361.74,218.28L363.44,220.82L365.13,224.83L366.83,223.79L368.53,227.29L370.23,226.25L371.93,227.41L373.63,230.54L377.02,236.93L378.72,255.98L380.42,260.39L382.12,258.64L383.82,260.87L385.51,268.76L388.91,279.67L390.61,271.41L392.31,276.16L394,278.39L395.7,280.65L397.4,295.21L404.19,306.01L405.89,307.62L407.59,308.15L409.29,305.67L412.69,316.69L414.38,322L416.08,327.66L417.78,330.28L419.48,331.13L421.18,333.25L427.97,344.22L429.67,346.11L431.37,346.93L433.07,350.75L441.56,358.32L443.26,358.69L448.35,363.07L450.05,363.89L451.75,364.03L453.45,363.3L455.14,362.36L456.84,360.16L460.24,355.78L461.94,353.07L465.33,346.51L467.03,344.67L472.13,332.91L473.82,329.18L477.22,325.79L478.92,325.68L482.32,316.38L484.01,320.11L487.41,301.51L489.11,294.53L490.81,291.17L492.51,279.16L494.2,264.18L495.9,242.36L497.6,238.91L499.3,231.14L501,227.97L502.7,226.62L504.39,223.59L506.09,229.27L507.79,235.55L509.49,238.94L511.19,242.84L512.89,244.68L514.58,246.2L516.28,251.68L519.68,256.91L521.38,257.9L524.77,261.49L526.47,261.72L528.17,264.49L529.87,264.94L534.96,271.72L536.66,272.57L540.06,275.54L541.76,279.41L543.45,281.5L545.15,285.06L548.55,288.03L550.25,287.1L553.64,285.35L555.34,286.19L558.74,285.97L560.44,287.3L562.14,287.89L563.83,291.39L567.23,294.02L568.93,296.65L570.63,299.85L572.33,300.21L574.02,302.13L575.72,307.9L580.82,318.1L582.52,320.53L584.21,322.91L585.91,323.45L592.71,330L594.4,330.51L601.2,331.73L602.9,332.12L606.29,332.94L607.99,333.62L609.69,333.93L611.39,335.26L614.78,337.77L616.48,337.07L618.18,337.92L619.88,337.83L621.58,336.67L623.27,334.5L626.67,333.68L628.37,334.86L631.77,333.73L633.46,334.61L635.16,335.2L636.86,334.02L638.56,332.55L640.26,328.02L645.35,328.31L647.05,328.93L648.75,328.56L650.45,327.03L652.15,329.04L653.84,327.88L655.54,326.87L657.24,327.18L660.64,325.65L662.34,326.89L665.73,328.59L667.43,327.97L669.13,326.98" style="fill: rgb(8, 115, 191); fill-opacity: 0.2; stroke-width: 0;"/></g></g><g class="errorbars"/><g class="lines"><path class="js-line" d="M-230.97,373.13L-219.08,375.39L-217.38,375.42L-210.59,374.77L-208.89,375.11L-169.83,376.1L-168.13,376.35L-146.05,374.77L-144.36,374.29L-127.37,372.17L-125.67,372.28L-120.58,370.42L-118.88,369.74L-113.79,368.41L-112.09,366.46L-98.5,354.25L-96.8,350.92L-88.31,337.1L-86.61,335.06L-83.22,332.57L-81.52,334.78L-79.82,336.81L-78.12,334.21L-69.63,319.6L-67.93,318.58L-57.74,285.4L-56.04,285.06L-52.65,274.83L-50.95,276.27L-47.55,272.63L-45.85,269.86L-44.16,270.54L-42.46,268.81L-40.76,266.52L-39.06,260.84L-35.66,252.11L-33.97,253.63L-32.27,252.62L-30.57,247.53L-22.08,225.54L-20.38,224.27L-15.28,211.24L-13.59,210.08L-11.89,209.74L-10.19,211.61L-8.49,212.34L-6.79,215.34L-5.09,218.14L-3.4,216.67L1.7,193.38L3.4,191.06L6.79,154.6L8.49,141.8L11.89,117.21L13.59,115.94L15.28,114.3L16.98,108.28L18.68,104.57L20.38,103.47L22.08,103.7L23.78,99.8L25.47,96.75L27.17,96.83L28.87,91.01L30.57,77.92L35.66,28.52L37.36,20.72L39.06,19.16L40.76,3.28L42.46,0L44.16,8.37L47.55,36.37L49.25,43.24L50.95,45.48L52.65,68.71L59.44,158.5L61.14,173.14L62.84,177.66L64.54,203.75L66.23,222.57L67.93,251.97L69.63,260.22L71.33,274.66L73.03,278.03L74.73,278.99L78.12,298.94L79.82,290.26L81.52,300.75L83.22,302.76L86.61,303.32L88.31,308.92L90.01,313.07L91.71,315.11L93.41,316.55L95.1,319.77L96.8,320.68L98.5,320.11L100.2,322.26L101.9,322.63L103.6,325.45L105.29,325.59L110.39,326.38L112.09,324.91L113.79,324.66L115.48,321.81L118.88,316.52L120.58,314.88L122.28,313.78L123.98,309.2L127.37,299.87L129.07,296.93L132.47,289.81L134.17,288.2L137.56,280.43L139.26,278.68L140.96,279.89L142.66,293.77L144.36,292.13L146.05,293.83L147.75,293.68L149.45,295.86L151.15,297.81L152.85,298.15L154.55,298.01L156.24,298.97L164.73,288.74L166.43,273.14L168.13,271.38L169.83,271.53L171.53,270.99L173.23,271.89L174.92,268.36L176.62,267.03L178.32,267.4L180.02,266.75L186.81,267.77L188.51,266.3L190.21,262.48L191.91,263.89L195.3,265.05L197,263.61L200.4,260.28L202.1,260.56L205.49,256.21L207.19,251.6L208.89,248.63L210.59,249.08L212.29,251.29L213.99,250.02L217.38,254.17L219.08,254.09L220.78,254.37L222.48,251.37L225.87,251.94L227.57,250.84L229.27,249.79L230.97,249.65L234.36,244.45L236.06,236.76L237.76,229.67L239.46,226.19L241.16,225.4L242.86,217.49L244.55,214.07L246.25,215.22L247.95,214.69L249.65,218.14L253.05,217.54L254.74,217.77L256.44,216.33L258.14,213.78L259.84,213.05L261.54,210.9L263.24,208.92L264.93,209.15L266.63,206.46L268.33,201.6L275.12,170.82L276.82,166.95L281.92,123.76L283.62,114.52L287.01,97.93L288.71,93.07L290.41,79.93L292.11,72.83L295.5,66.76L297.2,61.33L298.9,58.36L300.6,61.44L304,56.44L305.69,55.76L307.39,50.34L309.09,48.7L312.49,51.02L314.18,102.03L315.88,91.94L317.58,92.93L320.98,101.75L322.68,103.27L324.37,102.26L326.07,61.95L327.77,83.86L329.47,92.56L332.87,105L334.56,109.49L336.26,110L337.96,118.03L343.06,132.05L344.75,141.91L346.45,146.69L348.15,148.58L354.94,191.26L356.64,198.07L358.34,213.02L360.04,213.36L361.74,218.28L363.44,220.82L365.13,224.83L366.83,223.79L368.53,227.29L370.23,226.25L371.93,227.41L373.63,230.54L377.02,236.93L378.72,255.98L380.42,260.39L382.12,258.64L383.82,260.87L385.51,268.76L388.91,279.67L390.61,271.41L392.31,276.16L394,278.39L395.7,280.65L397.4,295.21L404.19,306.01L405.89,307.62L407.59,308.15L409.29,305.67L412.69,316.69L414.38,322L416.08,327.66L417.78,330.28L419.48,331.13L421.18,333.25L427.97,344.22L429.67,346.11L431.37,346.93L433.07,350.75L441.56,358.32L443.26,358.69L448.35,363.07L450.05,363.89L451.75,364.03L453.45,363.3L455.14,362.36L456.84,360.16L460.24,355.78L461.94,353.07L465.33,346.51L467.03,344.67L472.13,332.91L473.82,329.18L477.22,325.79L478.92,325.68L482.32,316.38L484.01,320.11L487.41,301.51L489.11,294.53L490.81,291.17L492.51,279.16L494.2,264.18L495.9,242.36L497.6,238.91L499.3,231.14L501,227.97L502.7,226.62L504.39,223.59L506.09,229.27L507.79,235.55L509.49,238.94L511.19,242.84L512.89,244.68L514.58,246.2L516.28,251.68L519.68,256.91L521.38,257.9L524.77,261.49L526.47,261.72L528.17,264.49L529.87,264.94L534.96,271.72L536.66,272.57L540.06,275.54L541.76,279.41L543.45,281.5L545.15,285.06L548.55,288.03L550.25,287.1L553.64,285.35L555.34,286.19L558.74,285.97L560.44,287.3L562.14,287.89L563.83,291.39L567.23,294.02L568.93,296.65L570.63,299.85L572.33,300.21L574.02,302.13L575.72,307.9L580.82,318.1L582.52,320.53L584.21,322.91L585.91,323.45L592.71,330L594.4,330.51L601.2,331.73L602.9,332.12L606.29,332.94L607.99,333.62L609.69,333.93L611.39,335.26L614.78,337.77L616.48,337.07L618.18,337.92L619.88,337.83L621.58,336.67L623.27,334.5L626.67,333.68L628.37,334.86L631.77,333.73L633.46,334.61L635.16,335.2L636.86,334.02L638.56,332.55L640.26,328.02L645.35,328.31L647.05,328.93L648.75,328.56L650.45,327.03L652.15,329.04L653.84,327.88L655.54,326.87L657.24,327.18L660.64,325.65L662.34,326.89L665.73,328.59L667.43,327.97L669.13,326.98" style="vector-effect: non-scaling-stroke; fill: none; stroke: rgb(8, 115, 191); stroke-opacity: 1; stroke-width: 0.5px; opacity: 1;"/></g><g class="points"/><g class="text"/></g><g class="trace scatter trace5562c1" style="stroke-miterlimit: 2;"><g class="fills"><g><path class="js-fill" d="M686.11,380L669.13,380L669.13,326.98L670.83,332.74L672.53,327.06L677.62,315.73L679.32,312.82L681.02,312.08L682.72,299.42L684.41,301.34L686.11,300.33" style="fill: rgb(8, 115, 191); fill-opacity: 0.4; stroke-width: 0;"/></g></g><g class="errorbars"/><g class="lines"><path class="js-line" d="M669.13,326.98L670.83,332.74L672.53,327.06L677.62,315.73L679.32,312.82L681.02,312.08L682.72,299.42L684.41,301.34L686.11,300.33" style="vector-effect: non-scaling-stroke; fill: none; stroke: rgb(8, 115, 191); stroke-opacity: 1; stroke-width: 2px; opacity: 1;"/></g><g class="points"/><g class="text"/></g><g class="trace scatter trace2481b2" style="stroke-miterlimit: 2; opacity: 1;"><g class="fills"/><g class="errorbars"/><g class="lines"/><g class="points"><path class="point" transform="translate(686.11,300.33)" d="M15,0A15,15 0 1,1 0,-15A15,15 0 0,1 15,0Z" style="opacity: 1; stroke-width: 0px; fill: rgb(8, 115, 191); fill-opacity: 1;"/></g><g class="text"/></g></g></g><g class="overplot"/><path class="xlines-above crisp" style="fill: none; stroke-width: 1px; stroke: rgb(0, 0, 0); stroke-opacity: 0;" d=""/><path class="ylines-above crisp" style="fill: none;" d="M0,0"/><g class="overlines-above"/><g class="xaxislayer-above"><path class="xtick ticks crisp" d="M0,450v-5" transform="translate(106.03999999999999,0)" style="stroke: rgb(68, 68, 68); stroke-opacity: 1; stroke-width: 1px;"/><path class="xtick ticks crisp" d="M0,450v-5" transform="translate(209.64,0)" style="stroke: rgb(68, 68, 68); stroke-opacity: 1; stroke-width: 1px;"/><path class="xtick ticks crisp" d="M0,450v-5" transform="translate(309.84,0)" style="stroke: rgb(68, 68, 68); stroke-opacity: 1; stroke-width: 1px;"/><path class="xtick ticks crisp" d="M0,450v-5" transform="translate(413.44,0)" style="stroke: rgb(68, 68, 68); stroke-opacity: 1; stroke-width: 1px;"/><path class="xtick ticks crisp" d="M0,450v-5" transform="translate(517.03,0)" style="stroke: rgb(68, 68, 68); stroke-opacity: 1; stroke-width: 1px;"/><path class="xtick ticks crisp" d="M0,450v-5" transform="translate(622.33,0)" style="stroke: rgb(68, 68, 68); stroke-opacity: 1; stroke-width: 1px;"/><path class="xtick ticks crisp" d="M0,450v-5" transform="translate(725.92,0)" style="stroke: rgb(68, 68, 68); stroke-opacity: 1; stroke-width: 1px;"/><g class="xtick"><text text-anchor="middle" x="0" y="469" transform="translate(106.03999999999999,0)" style="font-family: 'Open Sans', verdana, arial, sans-serif; font-size: 18px; fill: rgb(42, 63, 95); fill-opacity: 1; white-space: pre;">01/11</text></g><g class="xtick"><text text-anchor="middle" x="0" y="469" transform="translate(209.64,0)" style="font-family: 'Open Sans', verdana, arial, sans-serif; font-size: 18px; fill: rgb(42, 63, 95); fill-opacity: 1; white-space: pre;">01/01</text></g><g class="xtick"><text text-anchor="middle" x="0" y="469" transform="translate(309.84,0)" style="font-family: 'Open Sans', verdana, arial, sans-serif; font-size: 18px; fill: rgb(42, 63, 95); fill-opacity: 1; white-space: pre;">01/03</text></g><g class="xtick"><text text-anchor="middle" x="0" y="469" transform="translate(413.44,0)" style="font-family: 'Open Sans', verdana, arial, sans-serif; font-size: 18px; fill: rgb(42, 63, 95); fill-opacity: 1; white-space: pre;">01/05</text></g><g class="xtick"><text text-anchor="middle" x="0" y="469" transform="translate(517.03,0)" style="font-family: 'Open Sans', verdana, arial, sans-serif; font-size: 18px; fill: rgb(42, 63, 95); fill-opacity: 1; white-space: pre;">01/07</text></g><g class="xtick"><text text-anchor="middle" x="0" y="469" transform="translate(622.33,0)" style="font-family: 'Open Sans', verdana, arial, sans-serif; font-size: 18px; fill: rgb(42, 63, 95); fill-opacity: 1; white-space: pre;">01/09</text></g><g class="xtick"><text text-anchor="middle" x="0" y="469" transform="translate(725.92,0)" style="font-family: 'Open Sans', verdana, arial, sans-serif; font-size: 18px; fill: rgb(42, 63, 95); fill-opacity: 1; white-space: pre;">01/11</text></g></g><g class="yaxislayer-above"/><g class="overaxes-above"/></g></g><g class="polarlayer"/><g class="ternarylayer"/><g class="geolayer"/><g class="funnelarealayer"/><g class="pielayer"/><g class="treemaplayer"/><g class="sunburstlayer"/><g class="glimages"/><defs id="topdefs-18881d"><g class="clips"/></defs><g class="layer-above"><g class="imagelayer"/><g class="shapelayer"><path data-index="0" fill-rule="evenodd" d="M-904.44,419.64L337.01,419.64" clip-path="url('#clip18881dxy')" style="opacity: 1; stroke: rgb(255, 0, 0); stroke-opacity: 1; fill: rgb(0, 0, 0); fill-opacity: 0; stroke-dasharray: 3px, 3px; stroke-width: 1.5px;"/></g></g><g class="infolayer"><g class="g-gtitle"><text class="gtitle" x="375" y="25" text-anchor="middle" dy="0.7em" style="font-family: 'Open Sans', verdana, arial, sans-serif; font-size: 50px; fill: rgb(42, 63, 95); opacity: 1; font-weight: normal; white-space: pre;"><tspan style="font-weight:bold">Paris (75)</tspan></text></g><g class="g-xtitle"/><g class="annotation" data-index="0" style="opacity: 1;"><g class="annotation-text-g" transform="rotate(0,694.11,310.33)"><g class="cursor-pointer" transform="translate(636, 274)"><rect class="bg" x="0.5" y="0.5" width="115" height="71" style="stroke-width: 1px; stroke: rgb(0, 0, 0); stroke-opacity: 0; fill: rgb(255, 255, 255); fill-opacity: 0.6;"/><text class="annotation-text" text-anchor="middle" x="57.8125" y="55.5" style="font-family: 'Open Sans', verdana, arial, sans-serif; font-size: 50px; fill: rgb(8, 115, 191); fill-opacity: 1; white-space: pre;"> <tspan style="font-weight:bold">131 </tspan></text></g></g><g class="annotation-arrow-g" style="opacity: 1;"><path d="M722.51,345.83L734.11,360.33" style="stroke-width: 1px; stroke: rgb(8, 115, 191); stroke-opacity: 1; stroke-dasharray: 0px, 0px, 18.569px, 18.569px;"/></g></g></g></svg>