<svg class="main-svg" xmlns="http://www.w3.org/2000/svg" xmlns:xlink="http://www.w3.org/1999/xlink" width="1125" height="750" style="" viewBox="0 0 750 500"><rect x="0" y="0" width="750" height="500" style="fill: rgb(0, 0, 0); fill-opacity: 0;"/><defs id="defs-1b60ac"><g class="clips"><clipPath id="clip1b60acxyplot" class="plotclip"><rect width="700" height="380"/></clipPath><clipPath class="axesclip" id="clip1b60acx"><rect x="50" y="0" width="700" height="500"/></clipPath><clipPath class="axesclip" id="clip1b60acy"><rect x="0" y="70" width="750" height="380"/></clipPath><clipPath class="axesclip" id="clip1b60acxy"><rect x="50" y="70" width="700" height="380"/></clipPath></g><g class="gradients"/></defs><g class="bglayer"><rect class="bg" x="50" y="70" width="700" height="380" style="fill: rgb(0, 0, 0); fill-opacity: 0; stroke-width: 0;"/></g><g class="layer-below"><g class="imagelayer"/><g class="shapelayer"/></g><g class="cartesianlayer"><g class="subplot xy"><g class="layer-subplot"><g class="shapelayer"/><g class="imagelayer"/></g><g class="gridlayer"><g class="x"><path class="xgrid crisp" transform="translate(92.31,0)" d="M0,70v380" style="stroke: rgb(255, 255, 255); stroke-opacity: 1; stroke-width: 1px;"/><path class="xgrid crisp" transform="translate(170.51,0)" d="M0,70v380" style="stroke: rgb(255, 255, 255); stroke-opacity: 1; stroke-width: 1px;"/><path class="xgrid crisp" transform="translate(246.15,0)" d="M0,70v380" style="stroke: rgb(255, 255, 255); stroke-opacity: 1; stroke-width: 1px;"/><path class="xgrid crisp" transform="translate(324.36,0)" d="M0,70v380" style="stroke: rgb(255, 255, 255); stroke-opacity: 1; stroke-width: 1px;"/><path class="xgrid crisp" transform="translate(402.56,0)" d="M0,70v380" style="stroke: rgb(255, 255, 255); stroke-opacity: 1; stroke-width: 1px;"/><path class="xgrid crisp" transform="translate(482.05,0)" d="M0,70v380" style="stroke: rgb(255, 255, 255); stroke-opacity: 1; stroke-width: 1px;"/><path class="xgrid crisp" transform="translate(560.26,0)" d="M0,70v380" style="stroke: rgb(255, 255, 255); stroke-opacity: 1; stroke-width: 1px;"/><path class="xgrid crisp" transform="translate(638.46,0)" d="M0,70v380" style="stroke: rgb(255, 255, 255); stroke-opacity: 1; stroke-width: 1px;"/><path class="xgrid crisp" transform="translate(714.1,0)" d="M0,70v380" style="stroke: rgb(255, 255, 255); stroke-opacity: 1; stroke-width: 1px;"/></g><g class="y"/></g><g class="zerolinelayer"/><path class="xlines-below"/><path class="ylines-below"/><g class="overlines-below"/><g class="xaxislayer-below"/><g class="yaxislayer-below"/><g class="overaxes-below"/><g class="plot" transform="translate(50, 70)" clip-path="url('#clip1b60acxyplot')"><g class="scatterlayer mlayer"><g class="trace scatter tracead72b3" style="stroke-miterlimit: 2;"><g class="fills"><g><path class="js-fill" d="M678.21,380L-174.36,380L-174.36,378.63L-160.26,379.19L-158.97,379.18L-129.49,379.52L-128.21,379.48L-94.87,378.89L-93.59,378.64L-75.64,377.29L-74.36,377.06L-61.54,375.79L-60.26,375.75L-51.28,372.98L-50,372.3L-44.87,369.36L-43.59,369.36L-41.03,368.17L-39.74,367.83L-25.64,364.23L-24.36,364.29L-16.67,361.12L-15.38,360.99L-10.26,360.14L-8.97,360.34L-2.56,360.34L-1.28,359.67L1.28,357.56L2.56,357.37L8.97,348.2L10.26,347.85L11.54,347.67L12.82,345.65L17.95,341.05L19.23,340.64L20.51,340.49L21.79,339.48L24.36,335.93L25.64,333.5L28.21,329.88L29.49,329.83L32.05,325.44L33.33,325.59L37.18,327.9L38.46,327.87L42.31,336.02L43.59,339.23L46.15,344.55L47.44,345L51.28,357.87L52.56,359.02L55.13,361.41L56.41,361.65L58.97,365.42L60.26,363.88L62.82,367.46L64.1,367.77L65.38,367.73L66.67,368.86L69.23,369.94L70.51,369.95L83.33,371.92L84.62,371.66L87.18,371.57L88.46,371.25L101.28,368.14L102.56,368.15L106.41,367.39L107.69,369.36L119.23,368.03L120.51,367.29L124.36,365.45L125.64,363.22L129.49,363.43L130.77,363.45L134.62,362.14L135.9,362.12L147.44,361.53L148.72,360.96L157.69,358.9L158.97,359L162.82,359.36L164.1,359.3L167.95,360.01L169.23,360.28L175.64,361.75L176.92,361.06L182.05,359.48L183.33,357.93L185.9,357.29L187.18,357.19L193.59,356.54L194.87,356.07L201.28,354.72L202.56,353.99L208.97,349L210.26,346.09L214.1,340.76L215.38,339.26L219.23,337.16L220.51,335.9L225.64,331.45L226.92,331.63L228.21,330.77L229.49,330.83L233.33,332.41L234.62,333.25L235.9,333.09L237.18,342.25L238.46,339.99L239.74,339.46L243.59,339.3L244.87,339.36L246.15,331.92L247.44,335.64L252.56,341.58L253.85,341.88L257.69,345.63L258.97,346.03L264.1,348.28L265.38,349.16L269.23,352.68L270.51,355.44L271.79,355.36L273.08,356.12L279.49,358.37L280.77,358.63L283.33,360.66L284.62,361.05L285.9,363.71L287.18,363.79L288.46,362.87L289.74,362.9L292.31,365.16L293.59,365.99L294.87,364.43L296.15,365.81L298.72,366.38L300,368.87L302.56,369.11L303.85,369.67L307.69,369.87L308.97,368.41L311.54,370.52L312.82,370.87L315.38,372.22L316.67,372.34L320.51,374.15L321.79,374.77L335.9,377.66L337.18,377.78L348.72,377.43L350,377.05L353.85,376.18L355.13,375.6L360.26,374.36L361.54,374.21L364.1,372.97L365.38,373.47L369.23,369.81L370.51,369.53L375.64,363.3L376.92,362.36L383.33,360.99L384.62,360.9L389.74,361.13L391.03,360.95L394.87,361.76L396.15,361.94L400,362.38L401.28,362.73L408.97,363.32L410.26,363.47L416.67,365.42L417.95,365.16L421.79,365.63L423.08,365.74L429.49,366.52L430.77,366.91L434.62,367.67L435.9,368.46L439.74,369.79L441.03,370.05L447.44,371.6L448.72,371.88L461.54,374.02L462.82,374.03L473.08,374.17L474.36,374.16L482.05,374.25L483.33,374L496.15,374.03L497.44,373.99L505.13,373.38L506.41,374.16L510.26,373.1L511.54,372.65L514.1,372.19L515.38,370.54L517.95,370.05L519.23,370.92L521.79,370.04L523.08,369.82L526.92,366.19L528.21,363.45L532.05,360.67L533.33,358.46L537.18,352.19L538.46,349.57L541.03,347.02L542.31,342.42L546.15,334.88L547.44,333.74L548.72,332.11L550,332.09L556.41,328.57L557.69,328.59L558.97,328.39L560.26,326.55L564.1,317.86L565.38,314.13L567.95,308.5L569.23,297.38L571.79,270.17L573.08,252.28L574.36,237.95L575.64,241.61L576.92,234.59L578.21,196.09L583.33,96L584.62,93.36L585.9,86.01L587.18,57.24L589.74,36.67L591.03,36.02L592.31,31.98L593.59,0L594.87,1.6L596.15,18.68L597.44,30.22L598.72,34.13L600,37.86L601.28,37.99L605.13,30.54L606.41,28.96L607.69,27.17L608.97,27.33L612.82,40.88L614.1,54.83L620.51,129.65L621.79,135.68L624.36,172.45L625.64,187.23L629.49,224.86L630.77,230.42L633.33,258.9L634.62,270.28L638.46,294.63L639.74,296.72L642.31,310.92L643.59,315.06L647.44,325.05L648.72,326.2L651.28,333.93L652.56,337.65L656.41,344.39L657.69,344.68L660.26,346.43L661.54,346.38L664.1,346.76L665.38,346.21L666.67,345.72L667.95,343.1L670.51,339.49L671.79,336.19L674.36,331.14L675.64,330.68L678.21,319.91" style="fill: rgb(8, 115, 191); fill-opacity: 0.2; stroke-width: 0;"/></g></g><g class="errorbars"/><g class="lines"><path class="js-line" d="M-174.36,378.63L-160.26,379.19L-158.97,379.18L-129.49,379.52L-128.21,379.48L-94.87,378.89L-93.59,378.64L-75.64,377.29L-74.36,377.06L-61.54,375.79L-60.26,375.75L-51.28,372.98L-50,372.3L-44.87,369.36L-43.59,369.36L-41.03,368.17L-39.74,367.83L-25.64,364.23L-24.36,364.29L-16.67,361.12L-15.38,360.99L-10.26,360.14L-8.97,360.34L-2.56,360.34L-1.28,359.67L1.28,357.56L2.56,357.37L8.97,348.2L10.26,347.85L11.54,347.67L12.82,345.65L17.95,341.05L19.23,340.64L20.51,340.49L21.79,339.48L24.36,335.93L25.64,333.5L28.21,329.88L29.49,329.83L32.05,325.44L33.33,325.59L37.18,327.9L38.46,327.87L42.31,336.02L43.59,339.23L46.15,344.55L47.44,345L51.28,357.87L52.56,359.02L55.13,361.41L56.41,361.65L58.97,365.42L60.26,363.88L62.82,367.46L64.1,367.77L65.38,367.73L66.67,368.86L69.23,369.94L70.51,369.95L83.33,371.92L84.62,371.66L87.18,371.57L88.46,371.25L101.28,368.14L102.56,368.15L106.41,367.39L107.69,369.36L119.23,368.03L120.51,367.29L124.36,365.45L125.64,363.22L129.49,363.43L130.77,363.45L134.62,362.14L135.9,362.12L147.44,361.53L148.72,360.96L157.69,358.9L158.97,359L162.82,359.36L164.1,359.3L167.95,360.01L169.23,360.28L175.64,361.75L176.92,361.06L182.05,359.48L183.33,357.93L185.9,357.29L187.18,357.19L193.59,356.54L194.87,356.07L201.28,354.72L202.56,353.99L208.97,349L210.26,346.09L214.1,340.76L215.38,339.26L219.23,337.16L220.51,335.9L225.64,331.45L226.92,331.63L228.21,330.77L229.49,330.83L233.33,332.41L234.62,333.25L235.9,333.09L237.18,342.25L238.46,339.99L239.74,339.46L243.59,339.3L244.87,339.36L246.15,331.92L247.44,335.64L252.56,341.58L253.85,341.88L257.69,345.63L258.97,346.03L264.1,348.28L265.38,349.16L269.23,352.68L270.51,355.44L271.79,355.36L273.08,356.12L279.49,358.37L280.77,358.63L283.33,360.66L284.62,361.05L285.9,363.71L287.18,363.79L288.46,362.87L289.74,362.9L292.31,365.16L293.59,365.99L294.87,364.43L296.15,365.81L298.72,366.38L300,368.87L302.56,369.11L303.85,369.67L307.69,369.87L308.97,368.41L311.54,370.52L312.82,370.87L315.38,372.22L316.67,372.34L320.51,374.15L321.79,374.77L335.9,377.66L337.18,377.78L348.72,377.43L350,377.05L353.85,376.18L355.13,375.6L360.26,374.36L361.54,374.21L364.1,372.97L365.38,373.47L369.23,369.81L370.51,369.53L375.64,363.3L376.92,362.36L383.33,360.99L384.62,360.9L389.74,361.13L391.03,360.95L394.87,361.76L396.15,361.94L400,362.38L401.28,362.73L408.97,363.32L410.26,363.47L416.67,365.42L417.95,365.16L421.79,365.63L423.08,365.74L429.49,366.52L430.77,366.91L434.62,367.67L435.9,368.46L439.74,369.79L441.03,370.05L447.44,371.6L448.72,371.88L461.54,374.02L462.82,374.03L473.08,374.17L474.36,374.16L482.05,374.25L483.33,374L496.15,374.03L497.44,373.99L505.13,373.38L506.41,374.16L510.26,373.1L511.54,372.65L514.1,372.19L515.38,370.54L517.95,370.05L519.23,370.92L521.79,370.04L523.08,369.82L526.92,366.19L528.21,363.45L532.05,360.67L533.33,358.46L537.18,352.19L538.46,349.57L541.03,347.02L542.31,342.42L546.15,334.88L547.44,333.74L548.72,332.11L550,332.09L556.41,328.57L557.69,328.59L558.97,328.39L560.26,326.55L564.1,317.86L565.38,314.13L567.95,308.5L569.23,297.38L571.79,270.17L573.08,252.28L574.36,237.95L575.64,241.61L576.92,234.59L578.21,196.09L583.33,96L584.62,93.36L585.9,86.01L587.18,57.24L589.74,36.67L591.03,36.02L592.31,31.98L593.59,0L594.87,1.6L596.15,18.68L597.44,30.22L598.72,34.13L600,37.86L601.28,37.99L605.13,30.54L606.41,28.96L607.69,27.17L608.97,27.33L612.82,40.88L614.1,54.83L620.51,129.65L621.79,135.68L624.36,172.45L625.64,187.23L629.49,224.86L630.77,230.42L633.33,258.9L634.62,270.28L638.46,294.63L639.74,296.72L642.31,310.92L643.59,315.06L647.44,325.05L648.72,326.2L651.28,333.93L652.56,337.65L656.41,344.39L657.69,344.68L660.26,346.43L661.54,346.38L664.1,346.76L665.38,346.21L666.67,345.72L667.95,343.1L670.51,339.49L671.79,336.19L674.36,331.14L675.64,330.68L678.21,319.91" style="vector-effect: non-scaling-stroke; fill: none; stroke: rgb(8, 115, 191); stroke-opacity: 1; stroke-width: 0.5px; opacity: 1;"/></g><g class="points"/><g class="text"/></g><g class="trace scatter trace2d1228" style="stroke-miterlimit: 2;"><g class="fills"><g><path class="js-fill" d="M691.03,380L678.21,380L678.21,319.91L683.33,295.96L684.62,293.84L688.46,256.62L689.74,246.47L691.03,238.11" style="fill: rgb(8, 115, 191); fill-opacity: 0.4; stroke-width: 0;"/></g></g><g class="errorbars"/><g class="lines"><path class="js-line" d="M678.21,319.91L683.33,295.96L684.62,293.84L688.46,256.62L689.74,246.47L691.03,238.11" style="vector-effect: non-scaling-stroke; fill: none; stroke: rgb(8, 115, 191); stroke-opacity: 1; stroke-width: 2px; opacity: 1;"/></g><g class="points"/><g class="text"/></g><g class="trace scatter tracec77404" style="stroke-miterlimit: 2; opacity: 1;"><g class="fills"/><g class="errorbars"/><g class="lines"/><g class="points"><path class="point" transform="translate(691.03,238.11)" d="M15,0A15,15 0 1,1 0,-15A15,15 0 0,1 15,0Z" style="opacity: 1; stroke-width: 0px; fill: rgb(8, 115, 191); fill-opacity: 1;"/></g><g class="text"/></g></g></g><g class="overplot"/><path class="xlines-above crisp" style="fill: none; stroke-width: 1px; stroke: rgb(0, 0, 0); stroke-opacity: 0;" d=""/><path class="ylines-above crisp" style="fill: none;" d="M0,0"/><g class="overlines-above"/><g class="xaxislayer-above"><path class="xtick ticks crisp" d="M0,450v-5" transform="translate(92.31,0)" style="stroke: rgb(68, 68, 68); stroke-opacity: 1; stroke-width: 1px;"/><path class="xtick ticks crisp" d="M0,450v-5" transform="translate(170.51,0)" style="stroke: rgb(68, 68, 68); stroke-opacity: 1; stroke-width: 1px;"/><path class="xtick ticks crisp" d="M0,450v-5" transform="translate(246.15,0)" style="stroke: rgb(68, 68, 68); stroke-opacity: 1; stroke-width: 1px;"/><path class="xtick ticks crisp" d="M0,450v-5" transform="translate(324.36,0)" style="stroke: rgb(68, 68, 68); stroke-opacity: 1; stroke-width: 1px;"/><path class="xtick ticks crisp" d="M0,450v-5" transform="translate(402.56,0)" style="stroke: rgb(68, 68, 68); stroke-opacity: 1; stroke-width: 1px;"/><path class="xtick ticks crisp" d="M0,450v-5" transform="translate(482.05,0)" style="stroke: rgb(68, 68, 68); stroke-opacity: 1; stroke-width: 1px;"/><path class="xtick ticks crisp" d="M0,450v-5" transform="translate(560.26,0)" style="stroke: rgb(68, 68, 68); stroke-opacity: 1; stroke-width: 1px;"/><path class="xtick ticks crisp" d="M0,450v-5" transform="translate(638.46,0)" style="stroke: rgb(68, 68, 68); stroke-opacity: 1; stroke-width: 1px;"/><path class="xtick ticks crisp" d="M0,450v-5" transform="translate(714.1,0)" style="stroke: rgb(68, 68, 68); stroke-opacity: 1; stroke-width: 1px;"/><g class="xtick"><text text-anchor="middle" x="0" y="469" transform="translate(92.31,0)" style="font-family: 'Open Sans', verdana, arial, sans-serif; font-size: 18px; fill: rgb(42, 63, 95); fill-opacity: 1; white-space: pre;">01/11</text></g><g class="xtick"><text text-anchor="middle" x="0" y="469" transform="translate(170.51,0)" style="font-family: 'Open Sans', verdana, arial, sans-serif; font-size: 18px; fill: rgb(42, 63, 95); fill-opacity: 1; white-space: pre;">01/01</text></g><g class="xtick"><text text-anchor="middle" x="0" y="469" transform="translate(246.15,0)" style="font-family: 'Open Sans', verdana, arial, sans-serif; font-size: 18px; fill: rgb(42, 63, 95); fill-opacity: 1; white-space: pre;">01/03</text></g><g class="xtick"><text text-anchor="middle" x="0" y="469" transform="translate(324.36,0)" style="font-family: 'Open Sans', verdana, arial, sans-serif; font-size: 18px; fill: rgb(42, 63, 95); fill-opacity: 1; white-space: pre;">01/05</text></g><g class="xtick"><text text-anchor="middle" x="0" y="469" transform="translate(402.56,0)" style="font-family: 'Open Sans', verdana, arial, sans-serif; font-size: 18px; fill: rgb(42, 63, 95); fill-opacity: 1; white-space: pre;">01/07</text></g><g class="xtick"><text text-anchor="middle" x="0" y="469" transform="translate(482.05,0)" style="font-family: 'Open Sans', verdana, arial, sans-serif; font-size: 18px; fill: rgb(42, 63, 95); fill-opacity: 1; white-space: pre;">01/09</text></g><g class="xtick"><text text-anchor="middle" x="0" y="469" transform="translate(560.26,0)" style="font-family: 'Open Sans', verdana, arial, sans-serif; font-size: 18px; fill: rgb(42, 63, 95); fill-opacity: 1; white-space: pre;">01/11</text></g><g class="xtick"><text text-anchor="middle" x="0" y="469" transform="translate(638.46,0)" style="font-family: 'Open Sans', verdana, arial, sans-serif; font-size: 18px; fill: rgb(42, 63, 95); fill-opacity: 1; white-space: pre;">01/01</text></g><g class="xtick"><text text-anchor="middle" x="0" y="469" transform="translate(714.1,0)" style="font-family: 'Open Sans', verdana, arial, sans-serif; font-size: 18px; fill: rgb(42, 63, 95); fill-opacity: 1; white-space: pre;">01/03</text></g></g><g class="yaxislayer-above"/><g class="overaxes-above"/></g></g><g class="polarlayer"/><g class="ternarylayer"/><g class="geolayer"/><g class="funnelarealayer"/><g class="pielayer"/><g class="treemaplayer"/><g class="sunburstlayer"/><g class="glimages"/><defs id="topdefs-1b60ac"><g class="clips"/></defs><g class="layer-above"><g class="imagelayer"/><g class="shapelayer"><path data-index="0" fill-rule="evenodd" d="M-670.51,445.18L266.66999999999996,445.18" clip-path="url('#clip1b60acxy')" style="opacity: 1; stroke: rgb(255, 0, 0); stroke-opacity: 1; fill: rgb(0, 0, 0); fill-opacity: 0; stroke-dasharray: 3px, 3px; stroke-width: 1.5px;"/></g></g><g class="infolayer"><g class="g-gtitle"><text class="gtitle" x="375" y="25" text-anchor="middle" dy="0.7em" style="font-family: 'Open Sans', verdana, arial, sans-serif; font-size: 50px; fill: rgb(42, 63, 95); opacity: 1; font-weight: normal; white-space: pre;"><tspan style="font-weight:bold">Hauts-de-Seine (92)</tspan></text></g><g class="g-xtitle"/><g class="annotation" data-index="0" style="opacity: 1;"><g class="annotation-text-g" transform="rotate(0,699.03,248.11)"><g class="cursor-pointer" transform="translate(627, 212)"><rect class="bg" x="0.5" y="0.5" width="143" height="71" style="stroke-width: 1px; stroke: rgb(0, 0, 0); stroke-opacity: 0; fill: rgb(255, 255, 255); fill-opacity: 0.6;"/><text class="annotation-text" text-anchor="middle" x="72.078125" y="55.5" style="font-family: 'Open Sans', verdana, arial, sans-serif; font-size: 50px; fill: rgb(8, 115, 191); fill-opacity: 1; white-space: pre;"> <tspan style="font-weight:bold">1470 </tspan></text></g></g><g class="annotation-arrow-g" style="opacity: 1;"><path d="M727.43,283.61L739.03,298.11" style="stroke-width: 1px; stroke: rgb(8, 115, 191); stroke-opacity: 1; stroke-dasharray: 0px, 0px, 18.5691px, 18.5691px;"/></g></g></g></svg>