<svg class="main-svg" xmlns="http://www.w3.org/2000/svg" xmlns:xlink="http://www.w3.org/1999/xlink" width="1125" height="750" style="" viewBox="0 0 750 500"><rect x="0" y="0" width="750" height="500" style="fill: rgb(0, 0, 0); fill-opacity: 0;"/><defs id="defs-42e24d"><g class="clips"><clipPath id="clip42e24dxyplot" class="plotclip"><rect width="700" height="380"/></clipPath><clipPath class="axesclip" id="clip42e24dx"><rect x="50" y="0" width="700" height="500"/></clipPath><clipPath class="axesclip" id="clip42e24dy"><rect x="0" y="70" width="750" height="380"/></clipPath><clipPath class="axesclip" id="clip42e24dxy"><rect x="50" y="70" width="700" height="380"/></clipPath></g><g class="gradients"/></defs><g class="bglayer"><rect class="bg" x="50" y="70" width="700" height="380" style="fill: rgb(0, 0, 0); fill-opacity: 0; stroke-width: 0;"/></g><g class="layer-below"><g class="imagelayer"/><g class="shapelayer"/></g><g class="cartesianlayer"><g class="subplot xy"><g class="layer-subplot"><g class="shapelayer"/><g class="imagelayer"/></g><g class="gridlayer"><g class="x"><path class="xgrid crisp" transform="translate(52.24,0)" d="M0,70v380" style="stroke: rgb(255, 255, 255); stroke-opacity: 1; stroke-width: 1px;"/><path class="xgrid crisp" transform="translate(155.11,0)" d="M0,70v380" style="stroke: rgb(255, 255, 255); stroke-opacity: 1; stroke-width: 1px;"/><path class="xgrid crisp" transform="translate(255.75,0)" d="M0,70v380" style="stroke: rgb(255, 255, 255); stroke-opacity: 1; stroke-width: 1px;"/><path class="xgrid crisp" transform="translate(357.51,0)" d="M0,70v380" style="stroke: rgb(255, 255, 255); stroke-opacity: 1; stroke-width: 1px;"/><path class="xgrid crisp" transform="translate(460.38,0)" d="M0,70v380" style="stroke: rgb(255, 255, 255); stroke-opacity: 1; stroke-width: 1px;"/><path class="xgrid crisp" transform="translate(563.26,0)" d="M0,70v380" style="stroke: rgb(255, 255, 255); stroke-opacity: 1; stroke-width: 1px;"/><path class="xgrid crisp" transform="translate(663.9,0)" d="M0,70v380" style="stroke: rgb(255, 255, 255); stroke-opacity: 1; stroke-width: 1px;"/></g><g class="y"/></g><g class="zerolinelayer"/><path class="xlines-below"/><path class="ylines-below"/><g class="overlines-below"/><g class="xaxislayer-below"/><g class="yaxislayer-below"/><g class="overaxes-below"/><g class="plot" transform="translate(50, 70)" clip-path="url('#clip42e24dxyplot')"><g class="scatterlayer mlayer"><g class="trace scatter tracef8d98d" style="stroke-miterlimit: 2;"><g class="fills"><g><path class="js-fill" d="M680.99,380L-152.08,380L-152.08,379.01L-137.54,379.54L-136.42,379.57L-126.36,378.31L-125.24,378.08L-82.75,379.66L-81.63,379.41L-70.45,378.88L-69.33,378.87L-51.44,376.86L-50.32,376.36L-42.49,374.88L-41.37,374.95L-33.55,373.63L-32.43,372.98L-24.6,371.69L-23.48,371.43L-19.01,371.53L-17.89,370.79L-13.42,369.64L-12.3,368.72L-8.95,368.43L-7.83,368.84L-3.35,368.79L-2.24,368.98L1.12,366.14L2.24,366.27L3.35,365.54L4.47,363.64L8.95,358.83L10.06,358.75L13.42,355.28L14.54,352.85L15.65,352.79L16.77,354.09L19.01,353.15L20.13,352.32L21.25,350.12L22.36,345.76L24.6,334.27L25.72,333.65L29.07,316.3L30.19,313.43L34.66,312.26L35.78,313.73L36.9,315.11L38.02,318.56L40.26,325.36L41.37,326.05L43.61,331.13L44.73,340.41L48.08,347.63L49.2,348.12L51.44,355.19L52.56,353.42L54.79,360.83L55.91,361.56L57.03,361.66L58.15,364.89L60.38,367.46L61.5,367.54L62.62,368.42L63.74,368.22L67.09,368.95L68.21,369.5L70.45,369.48L71.57,369.38L76.04,368.16L77.16,367.07L80.51,366.48L81.63,365.74L84.98,364.26L86.1,363.35L87.22,362.87L88.34,363.34L90.58,362.26L91.69,362.57L92.81,363.27L93.93,366.07L96.17,366.33L97.28,367L101.76,365.38L102.88,365.38L103.99,365.31L105.11,363.73L107.35,363.33L108.47,363.21L109.58,360.15L110.7,360.23L114.06,360.31L115.18,360.96L120.77,359.39L121.88,359.12L126.36,355.95L127.48,355.78L130.83,354.64L131.95,354.62L135.3,354.76L136.42,354.07L143.13,356.68L144.25,358.5L149.84,360.57L150.96,360.76L158.79,361.6L159.9,361.46L164.38,362.25L165.5,361.78L167.73,361.2L168.85,360.37L171.09,359.31L172.2,358.65L174.44,358.66L175.56,357.79L181.15,354.9L182.27,354.99L183.39,354.06L184.5,354.14L185.62,354.53L186.74,353.74L191.21,351.79L192.33,349.82L195.69,344.2L196.81,342.85L199.04,341.53L200.16,340.73L204.63,340.98L205.75,341.27L206.87,348.69L207.99,346.61L209.11,345.69L210.22,346.38L211.34,347.34L212.46,346.95L213.58,346.82L214.7,339.62L216.93,343.72L218.05,344.24L219.17,344.34L220.29,345.22L222.52,345.65L223.64,346.08L227,347.48L228.12,347.5L229.23,347.48L230.35,349.11L234.82,354.85L235.94,357.21L237.06,357.33L238.18,359.22L241.53,363.46L242.65,365.23L244.89,365.65L246.01,366.84L249.36,370.34L250.48,370.62L251.6,370.04L252.72,370.37L253.83,371.03L254.95,370.54L256.07,371.19L257.19,370.17L259.42,371.05L260.54,370.95L261.66,373.03L262.78,372.68L266.13,372.8L267.25,372.85L268.37,372.93L269.49,371.81L271.73,373.3L272.84,373.99L278.43,376.1L279.55,376.74L286.26,377.85L287.38,378.25L290.73,378.75L291.85,378.78L296.33,379.24L297.44,379.23L301.92,379.01L303.04,378.91L313.1,376.97L314.22,376.58L315.34,376.58L316.45,375.8L318.69,375.15L319.81,373.34L322.04,371.07L323.16,370.69L327.64,359.62L328.75,356.87L329.87,354.29L330.99,354.01L334.35,345.06L335.46,343.34L337.7,339.78L338.82,339.35L341.05,335.67L342.17,334.56L344.41,332.29L345.53,332.37L347.76,332.02L348.88,331.26L353.35,330.9L354.47,330.91L361.18,335.09L362.3,335.27L364.54,337.07L365.65,339.03L369.01,343.84L370.13,343.87L372.36,348.79L373.48,349.22L376.84,354.11L377.96,354.26L382.43,362.22L383.55,363.14L386.9,364.93L388.02,366.48L392.49,369.73L393.61,369.83L395.85,371.32L396.96,371.89L401.44,373.33L402.56,373.37L409.27,373.87L410.38,374.58L414.86,375.88L415.97,375.78L427.16,375.85L428.27,375.62L432.75,374.78L433.87,374.91L440.58,375.41L441.69,376.1L443.93,375.11L445.05,374.78L448.4,374.46L449.52,372.8L450.64,372.9L451.76,372.11L452.88,372.8L453.99,371.48L457.35,369.64L458.47,368.29L459.58,367.11L460.7,364.03L464.06,361.49L465.18,358.78L470.77,346.72L471.88,346.54L474.12,338.83L475.24,335.76L478.59,326.92L479.71,326.35L484.19,307.69L485.3,305.07L488.66,297.68L489.78,296.85L492.01,299.04L493.13,298.62L495.37,299.61L496.49,303.36L497.6,303.29L498.72,300.95L500.96,295.07L502.08,301.57L503.19,299.83L504.31,286.14L508.79,242.17L509.9,241.11L511.02,238.33L512.14,215.36L514.38,192.17L515.5,185.44L516.61,180.44L517.73,161.07L518.85,160.84L519.97,158.62L521.09,160.14L522.2,153.39L523.32,148.37L524.44,137.73L526.68,125.86L527.8,101.65L532.27,25.96L533.39,17.09L534.5,15.83L535.62,0L537.86,3.01L538.98,8.72L541.21,15.77L542.33,16.54L547.92,82.87L549.04,94.12L550.16,97.66L551.28,128.7L555.75,194.98L556.87,204.98L557.99,207.41L559.11,227.42L562.46,259.01L563.58,268.06L565.81,275.16L566.93,287.79L570.29,306.27L571.41,311.3L572.52,315.23L573.64,316.19L575.88,322.62L577,325.43L579.23,328.56L580.35,329.16L584.82,327.95L585.94,326.81L588.18,323.61L589.3,323.09L596.01,285.97L597.12,285.29L599.36,258.27L600.48,248.23L603.83,226.46L604.95,225.59L607.19,208.84L608.31,203.01L609.42,199.59L610.54,200.07L611.66,200.5L612.78,200.1L615.02,209.77L616.13,215.24L617.25,217.01L618.37,214.95L620.61,217.39L621.73,219.86L625.08,231.3L626.2,238.21L627.32,240.68L628.43,240.71L629.55,273.61L630.67,265.76L634.03,283.92L635.14,289.77L636.26,291.32L637.38,279.63L638.5,301.75L639.62,308.94L642.97,324.18L644.09,324.55L646.33,334.7L647.44,338.82L650.8,346.95L651.92,346.91L655.27,351.14L656.39,352.16L659.74,354.2L660.86,355.94L666.45,361.13L667.57,361.16L669.81,362.84L670.93,363.02L672.04,365.39L673.16,364.47L676.52,363.96L677.64,362.85L678.75,362.58L679.87,359.29L680.99,359.06" style="fill: rgb(8, 115, 191); fill-opacity: 0.2; stroke-width: 0;"/></g></g><g class="errorbars"/><g class="lines"><path class="js-line" d="M-152.08,379.01L-137.54,379.54L-136.42,379.57L-126.36,378.31L-125.24,378.08L-82.75,379.66L-81.63,379.41L-70.45,378.88L-69.33,378.87L-51.44,376.86L-50.32,376.36L-42.49,374.88L-41.37,374.95L-33.55,373.63L-32.43,372.98L-24.6,371.69L-23.48,371.43L-19.01,371.53L-17.89,370.79L-13.42,369.64L-12.3,368.72L-8.95,368.43L-7.83,368.84L-3.35,368.79L-2.24,368.98L1.12,366.14L2.24,366.27L3.35,365.54L4.47,363.64L8.95,358.83L10.06,358.75L13.42,355.28L14.54,352.85L15.65,352.79L16.77,354.09L19.01,353.15L20.13,352.32L21.25,350.12L22.36,345.76L24.6,334.27L25.72,333.65L29.07,316.3L30.19,313.43L34.66,312.26L35.78,313.73L36.9,315.11L38.02,318.56L40.26,325.36L41.37,326.05L43.61,331.13L44.73,340.41L48.08,347.63L49.2,348.12L51.44,355.19L52.56,353.42L54.79,360.83L55.91,361.56L57.03,361.66L58.15,364.89L60.38,367.46L61.5,367.54L62.62,368.42L63.74,368.22L67.09,368.95L68.21,369.5L70.45,369.48L71.57,369.38L76.04,368.16L77.16,367.07L80.51,366.48L81.63,365.74L84.98,364.26L86.1,363.35L87.22,362.87L88.34,363.34L90.58,362.26L91.69,362.57L92.81,363.27L93.93,366.07L96.17,366.33L97.28,367L101.76,365.38L102.88,365.38L103.99,365.31L105.11,363.73L107.35,363.33L108.47,363.21L109.58,360.15L110.7,360.23L114.06,360.31L115.18,360.96L120.77,359.39L121.88,359.12L126.36,355.95L127.48,355.78L130.83,354.64L131.95,354.62L135.3,354.76L136.42,354.07L143.13,356.68L144.25,358.5L149.84,360.57L150.96,360.76L158.79,361.6L159.9,361.46L164.38,362.25L165.5,361.78L167.73,361.2L168.85,360.37L171.09,359.31L172.2,358.65L174.44,358.66L175.56,357.79L181.15,354.9L182.27,354.99L183.39,354.06L184.5,354.14L185.62,354.53L186.74,353.74L191.21,351.79L192.33,349.82L195.69,344.2L196.81,342.85L199.04,341.53L200.16,340.73L204.63,340.98L205.75,341.27L206.87,348.69L207.99,346.61L209.11,345.69L210.22,346.38L211.34,347.34L212.46,346.95L213.58,346.82L214.7,339.62L216.93,343.72L218.05,344.24L219.17,344.34L220.29,345.22L222.52,345.65L223.64,346.08L227,347.48L228.12,347.5L229.23,347.48L230.35,349.11L234.82,354.85L235.94,357.21L237.06,357.33L238.18,359.22L241.53,363.46L242.65,365.23L244.89,365.65L246.01,366.84L249.36,370.34L250.48,370.62L251.6,370.04L252.72,370.37L253.83,371.03L254.95,370.54L256.07,371.19L257.19,370.17L259.42,371.05L260.54,370.95L261.66,373.03L262.78,372.68L266.13,372.8L267.25,372.85L268.37,372.93L269.49,371.81L271.73,373.3L272.84,373.99L278.43,376.1L279.55,376.74L286.26,377.85L287.38,378.25L290.73,378.75L291.85,378.78L296.33,379.24L297.44,379.23L301.92,379.01L303.04,378.91L313.1,376.97L314.22,376.58L315.34,376.58L316.45,375.8L318.69,375.15L319.81,373.34L322.04,371.07L323.16,370.69L327.64,359.62L328.75,356.87L329.87,354.29L330.99,354.01L334.35,345.06L335.46,343.34L337.7,339.78L338.82,339.35L341.05,335.67L342.17,334.56L344.41,332.29L345.53,332.37L347.76,332.02L348.88,331.26L353.35,330.9L354.47,330.91L361.18,335.09L362.3,335.27L364.54,337.07L365.65,339.03L369.01,343.84L370.13,343.87L372.36,348.79L373.48,349.22L376.84,354.11L377.96,354.26L382.43,362.22L383.55,363.14L386.9,364.93L388.02,366.48L392.49,369.73L393.61,369.83L395.85,371.32L396.96,371.89L401.44,373.33L402.56,373.37L409.27,373.87L410.38,374.58L414.86,375.88L415.97,375.78L427.16,375.85L428.27,375.62L432.75,374.78L433.87,374.91L440.58,375.41L441.69,376.1L443.93,375.11L445.05,374.78L448.4,374.46L449.52,372.8L450.64,372.9L451.76,372.11L452.88,372.8L453.99,371.48L457.35,369.64L458.47,368.29L459.58,367.11L460.7,364.03L464.06,361.49L465.18,358.78L470.77,346.72L471.88,346.54L474.12,338.83L475.24,335.76L478.59,326.92L479.71,326.35L484.19,307.69L485.3,305.07L488.66,297.68L489.78,296.85L492.01,299.04L493.13,298.62L495.37,299.61L496.49,303.36L497.6,303.29L498.72,300.95L500.96,295.07L502.08,301.57L503.19,299.83L504.31,286.14L508.79,242.17L509.9,241.11L511.02,238.33L512.14,215.36L514.38,192.17L515.5,185.44L516.61,180.44L517.73,161.07L518.85,160.84L519.97,158.62L521.09,160.14L522.2,153.39L523.32,148.37L524.44,137.73L526.68,125.86L527.8,101.65L532.27,25.96L533.39,17.09L534.5,15.83L535.62,0L537.86,3.01L538.98,8.72L541.21,15.77L542.33,16.54L547.92,82.87L549.04,94.12L550.16,97.66L551.28,128.7L555.75,194.98L556.87,204.98L557.99,207.41L559.11,227.42L562.46,259.01L563.58,268.06L565.81,275.16L566.93,287.79L570.29,306.27L571.41,311.3L572.52,315.23L573.64,316.19L575.88,322.62L577,325.43L579.23,328.56L580.35,329.16L584.82,327.95L585.94,326.81L588.18,323.61L589.3,323.09L596.01,285.97L597.12,285.29L599.36,258.27L600.48,248.23L603.83,226.46L604.95,225.59L607.19,208.84L608.31,203.01L609.42,199.59L610.54,200.07L611.66,200.5L612.78,200.1L615.02,209.77L616.13,215.24L617.25,217.01L618.37,214.95L620.61,217.39L621.73,219.86L625.08,231.3L626.2,238.21L627.32,240.68L628.43,240.71L629.55,273.61L630.67,265.76L634.03,283.92L635.14,289.77L636.26,291.32L637.38,279.63L638.5,301.75L639.62,308.94L642.97,324.18L644.09,324.55L646.33,334.7L647.44,338.82L650.8,346.95L651.92,346.91L655.27,351.14L656.39,352.16L659.74,354.2L660.86,355.94L666.45,361.13L667.57,361.16L669.81,362.84L670.93,363.02L672.04,365.39L673.16,364.47L676.52,363.96L677.64,362.85L678.75,362.58L679.87,359.29L680.99,359.06" style="vector-effect: non-scaling-stroke; fill: none; stroke: rgb(8, 115, 191); stroke-opacity: 1; stroke-width: 0.5px; opacity: 1;"/></g><g class="points"/><g class="text"/></g><g class="trace scatter trace17b364" style="stroke-miterlimit: 2;"><g class="fills"><g><path class="js-fill" d="M692.17,380L680.99,380L680.99,359.06L683.23,357.79L684.35,361.2L687.7,348.36L688.82,345.17L691.05,342.66L692.17,331.05" style="fill: rgb(8, 115, 191); fill-opacity: 0.4; stroke-width: 0;"/></g></g><g class="errorbars"/><g class="lines"><path class="js-line" d="M680.99,359.06L683.23,357.79L684.35,361.2L687.7,348.36L688.82,345.17L691.05,342.66L692.17,331.05" style="vector-effect: non-scaling-stroke; fill: none; stroke: rgb(8, 115, 191); stroke-opacity: 1; stroke-width: 2px; opacity: 1;"/></g><g class="points"/><g class="text"/></g><g class="trace scatter trace4bcd18" style="stroke-miterlimit: 2; opacity: 1;"><g class="fills"/><g class="errorbars"/><g class="lines"/><g class="points"><path class="point" transform="translate(692.17,331.05)" d="M15,0A15,15 0 1,1 0,-15A15,15 0 0,1 15,0Z" style="opacity: 1; stroke-width: 0px; fill: rgb(8, 115, 191); fill-opacity: 1;"/></g><g class="text"/></g></g></g><g class="overplot"/><path class="xlines-above crisp" style="fill: none; stroke-width: 1px; stroke: rgb(0, 0, 0); stroke-opacity: 0;" d=""/><path class="ylines-above crisp" style="fill: none;" d="M0,0"/><g class="overlines-above"/><g class="xaxislayer-above"><path class="xtick ticks crisp" d="M0,450v-5" transform="translate(52.24,0)" style="stroke: rgb(68, 68, 68); stroke-opacity: 1; stroke-width: 1px;"/><path class="xtick ticks crisp" d="M0,450v-5" transform="translate(155.11,0)" style="stroke: rgb(68, 68, 68); stroke-opacity: 1; stroke-width: 1px;"/><path class="xtick ticks crisp" d="M0,450v-5" transform="translate(255.75,0)" style="stroke: rgb(68, 68, 68); stroke-opacity: 1; stroke-width: 1px;"/><path class="xtick ticks crisp" d="M0,450v-5" transform="translate(357.51,0)" style="stroke: rgb(68, 68, 68); stroke-opacity: 1; stroke-width: 1px;"/><path class="xtick ticks crisp" d="M0,450v-5" transform="translate(460.38,0)" style="stroke: rgb(68, 68, 68); stroke-opacity: 1; stroke-width: 1px;"/><path class="xtick ticks crisp" d="M0,450v-5" transform="translate(563.26,0)" style="stroke: rgb(68, 68, 68); stroke-opacity: 1; stroke-width: 1px;"/><path class="xtick ticks crisp" d="M0,450v-5" transform="translate(663.9,0)" style="stroke: rgb(68, 68, 68); stroke-opacity: 1; stroke-width: 1px;"/><g class="xtick"><text text-anchor="middle" x="0" y="469" transform="translate(52.24,0)" style="font-family: 'Open Sans', verdana, arial, sans-serif; font-size: 18px; fill: rgb(42, 63, 95); fill-opacity: 1; white-space: pre;">01/10</text></g><g class="xtick"><text text-anchor="middle" x="0" y="469" transform="translate(155.11,0)" style="font-family: 'Open Sans', verdana, arial, sans-serif; font-size: 18px; fill: rgb(42, 63, 95); fill-opacity: 1; white-space: pre;">01/01</text></g><g class="xtick"><text text-anchor="middle" x="0" y="469" transform="translate(255.75,0)" style="font-family: 'Open Sans', verdana, arial, sans-serif; font-size: 18px; fill: rgb(42, 63, 95); fill-opacity: 1; white-space: pre;">01/04</text></g><g class="xtick"><text text-anchor="middle" x="0" y="469" transform="translate(357.51,0)" style="font-family: 'Open Sans', verdana, arial, sans-serif; font-size: 18px; fill: rgb(42, 63, 95); fill-opacity: 1; white-space: pre;">01/07</text></g><g class="xtick"><text text-anchor="middle" x="0" y="469" transform="translate(460.38,0)" style="font-family: 'Open Sans', verdana, arial, sans-serif; font-size: 18px; fill: rgb(42, 63, 95); fill-opacity: 1; white-space: pre;">01/10</text></g><g class="xtick"><text text-anchor="middle" x="0" y="469" transform="translate(563.26,0)" style="font-family: 'Open Sans', verdana, arial, sans-serif; font-size: 18px; fill: rgb(42, 63, 95); fill-opacity: 1; white-space: pre;">01/01</text></g><g class="xtick"><text text-anchor="middle" x="0" y="469" transform="translate(663.9,0)" style="font-family: 'Open Sans', verdana, arial, sans-serif; font-size: 18px; fill: rgb(42, 63, 95); fill-opacity: 1; white-space: pre;">01/04</text></g></g><g class="yaxislayer-above"/><g class="overaxes-above"/></g></g><g class="polarlayer"/><g class="ternarylayer"/><g class="geolayer"/><g class="funnelarealayer"/><g class="pielayer"/><g class="treemaplayer"/><g class="sunburstlayer"/><g class="glimages"/><defs id="topdefs-42e24d"><g class="clips"/></defs><g class="layer-above"><g class="imagelayer"/><g class="shapelayer"><path data-index="0" fill-rule="evenodd" d="M-578.43,444.63L238.98,444.63" clip-path="url('#clip42e24dxy')" style="opacity: 1; stroke: rgb(255, 0, 0); stroke-opacity: 1; fill: rgb(0, 0, 0); fill-opacity: 0; stroke-dasharray: 3px, 3px; stroke-width: 1.5px;"/></g></g><g class="infolayer"><g class="g-gtitle"><text class="gtitle" x="375" y="25" text-anchor="middle" dy="0.7em" style="font-family: 'Open Sans', verdana, arial, sans-serif; font-size: 50px; fill: rgb(42, 63, 95); opacity: 1; font-weight: normal; white-space: pre;"><tspan style="font-weight:bold">Gard (30)</tspan></text></g><g class="g-xtitle"/><g class="annotation" data-index="0" style="opacity: 1;"><g class="annotation-text-g" transform="rotate(0,700.17,341.05)"><g class="cursor-pointer" transform="translate(642, 305)"><rect class="bg" x="0.5" y="0.5" width="115" height="71" style="stroke-width: 1px; stroke: rgb(0, 0, 0); stroke-opacity: 0; fill: rgb(255, 255, 255); fill-opacity: 0.6;"/><text class="annotation-text" text-anchor="middle" x="57.8125" y="55.5" style="font-family: 'Open Sans', verdana, arial, sans-serif; font-size: 50px; fill: rgb(8, 115, 191); fill-opacity: 1; white-space: pre;"> <tspan style="font-weight:bold">455 </tspan></text></g></g><g class="annotation-arrow-g" style="opacity: 1;"><path d="M728.5699999999999,376.55L740.17,391.05" style="stroke-width: 1px; stroke: rgb(8, 115, 191); stroke-opacity: 1; stroke-dasharray: 0px, 0px, 18.569px, 18.569px;"/></g></g></g></svg>