<svg class="main-svg" xmlns="http://www.w3.org/2000/svg" xmlns:xlink="http://www.w3.org/1999/xlink" width="1125" height="750" style="" viewBox="0 0 750 500"><rect x="0" y="0" width="750" height="500" style="fill: rgb(0, 0, 0); fill-opacity: 0;"/><defs id="defs-4609a8"><g class="clips"><clipPath id="clip4609a8xyplot" class="plotclip"><rect width="700" height="380"/></clipPath><clipPath class="axesclip" id="clip4609a8x"><rect x="50" y="0" width="700" height="500"/></clipPath><clipPath class="axesclip" id="clip4609a8y"><rect x="0" y="70" width="750" height="380"/></clipPath><clipPath class="axesclip" id="clip4609a8xy"><rect x="50" y="70" width="700" height="380"/></clipPath></g><g class="gradients"/></defs><g class="bglayer"><rect class="bg" x="50" y="70" width="700" height="380" style="fill: rgb(0, 0, 0); fill-opacity: 0; stroke-width: 0;"/></g><g class="layer-below"><g class="imagelayer"/><g class="shapelayer"/></g><g class="cartesianlayer"><g class="subplot xy"><g class="layer-subplot"><g class="shapelayer"/><g class="imagelayer"/></g><g class="gridlayer"><g class="x"><path class="xgrid crisp" transform="translate(91.7,0)" d="M0,70v380" style="stroke: rgb(255, 255, 255); stroke-opacity: 1; stroke-width: 1px;"/><path class="xgrid crisp" transform="translate(168.76999999999998,0)" d="M0,70v380" style="stroke: rgb(255, 255, 255); stroke-opacity: 1; stroke-width: 1px;"/><path class="xgrid crisp" transform="translate(243.32,0)" d="M0,70v380" style="stroke: rgb(255, 255, 255); stroke-opacity: 1; stroke-width: 1px;"/><path class="xgrid crisp" transform="translate(320.4,0)" d="M0,70v380" style="stroke: rgb(255, 255, 255); stroke-opacity: 1; stroke-width: 1px;"/><path class="xgrid crisp" transform="translate(397.47,0)" d="M0,70v380" style="stroke: rgb(255, 255, 255); stroke-opacity: 1; stroke-width: 1px;"/><path class="xgrid crisp" transform="translate(475.81,0)" d="M0,70v380" style="stroke: rgb(255, 255, 255); stroke-opacity: 1; stroke-width: 1px;"/><path class="xgrid crisp" transform="translate(552.89,0)" d="M0,70v380" style="stroke: rgb(255, 255, 255); stroke-opacity: 1; stroke-width: 1px;"/><path class="xgrid crisp" transform="translate(629.96,0)" d="M0,70v380" style="stroke: rgb(255, 255, 255); stroke-opacity: 1; stroke-width: 1px;"/><path class="xgrid crisp" transform="translate(704.51,0)" d="M0,70v380" style="stroke: rgb(255, 255, 255); stroke-opacity: 1; stroke-width: 1px;"/></g><g class="y"/></g><g class="zerolinelayer"/><path class="xlines-below"/><path class="ylines-below"/><g class="overlines-below"/><g class="xaxislayer-below"/><g class="yaxislayer-below"/><g class="overaxes-below"/><g class="plot" transform="translate(50, 70)" clip-path="url('#clip4609a8xyplot')"><g class="scatterlayer mlayer"><g class="trace scatter trace1b2340" style="stroke-miterlimit: 2;"><g class="fills"><g><path class="js-fill" d="M678.52,380L-171.84,380L-171.84,379.07L-157.94,379.22L-156.68,379.22L-130.14,379.57L-128.88,379.64L-60.65,378.72L-59.39,378.5L-50.54,377.86L-49.28,377.72L-45.49,377.65L-44.22,377.51L-32.85,377.22L-31.59,377.15L-27.8,375.8L-26.53,374.44L-22.74,374.44L-21.48,373.94L-13.9,376.01L-12.64,376.44L-3.79,377.15L-2.53,375.87L1.26,375.65L2.53,375.65L5.05,375.3L6.32,376.51L12.64,375.51L13.9,375.58L16.43,375.01L17.69,373.51L20.22,372.87L21.48,371.09L26.53,360.97L27.8,359.62L29.06,359.4L30.32,352.85L36.64,336.74L37.91,336.31L39.17,335.1L40.43,330.18L42.96,327.97L44.22,328.12L46.75,329.19L48.01,331.54L49.28,334.39L50.54,341.66L51.81,342.58L53.07,340.09L54.33,341.73L55.6,341.8L56.86,341.23L58.12,345.51L59.39,341.3L60.65,344.22L61.91,350.5L63.18,351.14L64.44,351.07L65.7,355.84L68.23,360.33L69.49,362.75L72.02,364.53L73.29,364.25L75.81,366.53L77.08,367.03L80.87,365.6L82.13,366.17L84.66,364.25L85.92,362.47L88.45,363.39L89.71,363.25L90.97,362.97L92.24,361.4L93.5,360.05L94.77,360.33L97.29,355.41L98.56,353.56L101.08,353.13L102.35,351.92L103.61,350.64L104.87,351.64L106.14,356.13L107.4,355.27L108.66,355.2L109.93,353.56L112.45,350.21L113.72,351.35L114.98,350.99L116.25,351.92L117.51,351.99L118.77,351.21L120.04,352.78L121.3,352.42L122.56,350.71L123.83,346.65L128.88,346.79L130.14,350.07L131.41,350.85L132.67,350.14L135.2,350.64L136.46,352.78L137.73,352.06L138.99,352.35L145.31,354.13L146.57,356.27L149.1,354.34L150.36,355.06L154.15,355.91L155.42,355.48L160.47,362.75L161.73,362.97L165.52,367.6L166.79,368.1L169.31,369.38L170.58,369.45L175.63,373.3L176.9,373.02L184.48,373.09L185.74,372.8L190.79,372.87L192.06,372.09L194.58,373.16L195.85,372.59L197.11,372.66L198.38,370.66L203.43,367.6L204.69,366.46L207.22,365.96L208.48,364.04L212.27,361.54L213.54,362.04L214.8,362.33L216.06,361.76L217.33,361.68L218.59,359.55L219.86,357.19L221.12,356.55L222.38,354.56L223.65,354.49L226.17,351.49L227.44,350.85L228.7,350.78L229.96,349.85L231.23,350.57L232.49,350.35L233.75,355.98L235.02,353.7L236.28,352.63L237.55,352.78L240.07,351.28L241.34,351.28L242.6,343.37L243.86,346.22L247.65,351.71L248.92,352.56L250.18,352.92L251.44,355.27L252.71,354.7L253.97,355.2L255.23,356.41L256.5,355.41L257.76,355.77L259.03,355.27L260.29,353.99L261.55,355.48L264.08,354.7L265.34,356.48L266.61,358.41L267.87,358.69L270.4,363.11L271.66,364.46L272.92,365.96L274.19,365.6L277.98,366.89L279.24,366.25L280.51,366.46L281.77,367.96L283.03,367.67L284.3,365.96L289.35,365.82L290.61,364.46L291.88,366.74L293.14,367.46L294.4,367.39L295.67,370.74L296.93,370.74L298.19,373.02L299.46,373.66L300.72,373.23L303.25,372.8L304.51,371.45L305.78,372.66L307.04,372.3L312.09,373.66L313.36,374.58L320.94,376.94L322.2,376.94L324.73,376.86L325.99,377.15L328.52,377.58L329.78,377.51L333.57,379.36L334.84,379.22L342.42,379.29L343.68,379.5L352.53,379L353.79,378.79L361.37,376.58L362.64,375.72L363.9,374.73L365.16,374.73L367.69,371.31L368.95,369.1L372.74,363.54L374.01,363.61L375.27,362.97L376.53,361.4L377.8,360.69L379.06,361.4L380.32,360.47L381.59,361.11L382.85,360.4L384.12,358.33L387.91,356.62L389.17,357.19L391.7,357.69L392.96,357.27L395.49,356.05L396.75,354.34L398.01,353.56L399.28,350.28L401.81,349.28L403.07,350.28L410.65,360.05L411.91,360.4L413.18,359.9L414.44,360.69L415.7,360.76L416.97,361.68L420.76,363.25L422.02,364.11L427.08,365.82L428.34,365.46L430.87,366.17L432.13,365.32L434.66,365.89L435.92,365.68L438.45,368.38L439.71,368.95L442.24,371.31L443.5,372.3L446.03,373.16L447.29,373.8L451.08,375.37L452.35,375.3L454.87,375.44L456.14,375.8L461.19,376.51L462.45,376.58L466.25,377.72L467.51,378.08L472.56,377.58L473.83,377.29L477.62,377.51L478.88,377.51L483.94,378L485.2,377.43L487.73,377.29L488.99,377.36L490.25,377.51L491.52,376.86L495.31,376.65L496.57,375.87L499.1,375.8L500.36,374.51L504.15,373.94L505.42,374.08L506.68,374.23L507.94,372.59L509.21,372.94L510.47,372.3L511.73,372.73L513,372.3L515.52,371.73L516.79,368.95L519.31,364.75L520.58,362.11L523.1,357.48L524.37,357.34L525.63,354.98L526.9,354.63L528.16,354.77L529.42,353.99L531.95,348.5L533.21,348.5L537,337.31L538.27,333.18L543.32,330.33L544.58,330.47L547.11,326.48L548.38,327.33L549.64,325.62L550.9,325.48L553.43,323.7L554.69,324.41L555.96,324.98L557.22,323.27L558.48,324.41L559.75,324.2L561.01,324.2L562.27,322.91L564.8,322.13L566.06,318.21L567.33,319.78L568.59,317.93L573.65,271.74L574.91,267.9L576.17,269.82L577.44,269.18L585.02,134.05L586.28,131.2L588.81,142.32L590.07,153.51L591.34,158.71L592.6,149.09L593.86,142.25L595.13,139.76L598.92,82.96L600.18,70.63L602.71,45.9L603.97,43.26L605.23,18.39L606.5,9.34L607.76,1.78L609.03,0L611.55,8.55L612.82,7.98L615.34,29.43L616.61,42.62L621.66,83.6L622.92,112.25L626.71,174.96L627.98,190.78L629.24,201.9L630.51,204.4L633.03,241.74L634.3,254.07L636.82,269.25L638.09,275.52L639.35,276.66L640.61,285.29L645.67,314.43L646.93,317.78L648.19,319.07L649.46,327.19L651.99,333.32L653.25,334.25L654.51,334.46L655.78,335.46L658.3,336.6L659.57,335.96L662.09,333.53L663.36,330.9L664.62,328.62L665.88,328.62L667.15,321.49L668.41,319.21L673.47,299.32L674.73,299.25L678.52,262.05" style="fill: rgb(8, 115, 191); fill-opacity: 0.2; stroke-width: 0;"/></g></g><g class="errorbars"/><g class="lines"><path class="js-line" d="M-171.84,379.07L-157.94,379.22L-156.68,379.22L-130.14,379.57L-128.88,379.64L-60.65,378.72L-59.39,378.5L-50.54,377.86L-49.28,377.72L-45.49,377.65L-44.22,377.51L-32.85,377.22L-31.59,377.15L-27.8,375.8L-26.53,374.44L-22.74,374.44L-21.48,373.94L-13.9,376.01L-12.64,376.44L-3.79,377.15L-2.53,375.87L1.26,375.65L2.53,375.65L5.05,375.3L6.32,376.51L12.64,375.51L13.9,375.58L16.43,375.01L17.69,373.51L20.22,372.87L21.48,371.09L26.53,360.97L27.8,359.62L29.06,359.4L30.32,352.85L36.64,336.74L37.91,336.31L39.17,335.1L40.43,330.18L42.96,327.97L44.22,328.12L46.75,329.19L48.01,331.54L49.28,334.39L50.54,341.66L51.81,342.58L53.07,340.09L54.33,341.73L55.6,341.8L56.86,341.23L58.12,345.51L59.39,341.3L60.65,344.22L61.91,350.5L63.18,351.14L64.44,351.07L65.7,355.84L68.23,360.33L69.49,362.75L72.02,364.53L73.29,364.25L75.81,366.53L77.08,367.03L80.87,365.6L82.13,366.17L84.66,364.25L85.92,362.47L88.45,363.39L89.71,363.25L90.97,362.97L92.24,361.4L93.5,360.05L94.77,360.33L97.29,355.41L98.56,353.56L101.08,353.13L102.35,351.92L103.61,350.64L104.87,351.64L106.14,356.13L107.4,355.27L108.66,355.2L109.93,353.56L112.45,350.21L113.72,351.35L114.98,350.99L116.25,351.92L117.51,351.99L118.77,351.21L120.04,352.78L121.3,352.42L122.56,350.71L123.83,346.65L128.88,346.79L130.14,350.07L131.41,350.85L132.67,350.14L135.2,350.64L136.46,352.78L137.73,352.06L138.99,352.35L145.31,354.13L146.57,356.27L149.1,354.34L150.36,355.06L154.15,355.91L155.42,355.48L160.47,362.75L161.73,362.97L165.52,367.6L166.79,368.1L169.31,369.38L170.58,369.45L175.63,373.3L176.9,373.02L184.48,373.09L185.74,372.8L190.79,372.87L192.06,372.09L194.58,373.16L195.85,372.59L197.11,372.66L198.38,370.66L203.43,367.6L204.69,366.46L207.22,365.96L208.48,364.04L212.27,361.54L213.54,362.04L214.8,362.33L216.06,361.76L217.33,361.68L218.59,359.55L219.86,357.19L221.12,356.55L222.38,354.56L223.65,354.49L226.17,351.49L227.44,350.85L228.7,350.78L229.96,349.85L231.23,350.57L232.49,350.35L233.75,355.98L235.02,353.7L236.28,352.63L237.55,352.78L240.07,351.28L241.34,351.28L242.6,343.37L243.86,346.22L247.65,351.71L248.92,352.56L250.18,352.92L251.44,355.27L252.71,354.7L253.97,355.2L255.23,356.41L256.5,355.41L257.76,355.77L259.03,355.27L260.29,353.99L261.55,355.48L264.08,354.7L265.34,356.48L266.61,358.41L267.87,358.69L270.4,363.11L271.66,364.46L272.92,365.96L274.19,365.6L277.98,366.89L279.24,366.25L280.51,366.46L281.77,367.96L283.03,367.67L284.3,365.96L289.35,365.82L290.61,364.46L291.88,366.74L293.14,367.46L294.4,367.39L295.67,370.74L296.93,370.74L298.19,373.02L299.46,373.66L300.72,373.23L303.25,372.8L304.51,371.45L305.78,372.66L307.04,372.3L312.09,373.66L313.36,374.58L320.94,376.94L322.2,376.94L324.73,376.86L325.99,377.15L328.52,377.58L329.78,377.51L333.57,379.36L334.84,379.22L342.42,379.29L343.68,379.5L352.53,379L353.79,378.79L361.37,376.58L362.64,375.72L363.9,374.73L365.16,374.73L367.69,371.31L368.95,369.1L372.74,363.54L374.01,363.61L375.27,362.97L376.53,361.4L377.8,360.69L379.06,361.4L380.32,360.47L381.59,361.11L382.85,360.4L384.12,358.33L387.91,356.62L389.17,357.19L391.7,357.69L392.96,357.27L395.49,356.05L396.75,354.34L398.01,353.56L399.28,350.28L401.81,349.28L403.07,350.28L410.65,360.05L411.91,360.4L413.18,359.9L414.44,360.69L415.7,360.76L416.97,361.68L420.76,363.25L422.02,364.11L427.08,365.82L428.34,365.46L430.87,366.17L432.13,365.32L434.66,365.89L435.92,365.68L438.45,368.38L439.71,368.95L442.24,371.31L443.5,372.3L446.03,373.16L447.29,373.8L451.08,375.37L452.35,375.3L454.87,375.44L456.14,375.8L461.19,376.51L462.45,376.58L466.25,377.72L467.51,378.08L472.56,377.58L473.83,377.29L477.62,377.51L478.88,377.51L483.94,378L485.2,377.43L487.73,377.29L488.99,377.36L490.25,377.51L491.52,376.86L495.31,376.65L496.57,375.87L499.1,375.8L500.36,374.51L504.15,373.94L505.42,374.08L506.68,374.23L507.94,372.59L509.21,372.94L510.47,372.3L511.73,372.73L513,372.3L515.52,371.73L516.79,368.95L519.31,364.75L520.58,362.11L523.1,357.48L524.37,357.34L525.63,354.98L526.9,354.63L528.16,354.77L529.42,353.99L531.95,348.5L533.21,348.5L537,337.31L538.27,333.18L543.32,330.33L544.58,330.47L547.11,326.48L548.38,327.33L549.64,325.62L550.9,325.48L553.43,323.7L554.69,324.41L555.96,324.98L557.22,323.27L558.48,324.41L559.75,324.2L561.01,324.2L562.27,322.91L564.8,322.13L566.06,318.21L567.33,319.78L568.59,317.93L573.65,271.74L574.91,267.9L576.17,269.82L577.44,269.18L585.02,134.05L586.28,131.2L588.81,142.32L590.07,153.51L591.34,158.71L592.6,149.09L593.86,142.25L595.13,139.76L598.92,82.96L600.18,70.63L602.71,45.9L603.97,43.26L605.23,18.39L606.5,9.34L607.76,1.78L609.03,0L611.55,8.55L612.82,7.98L615.34,29.43L616.61,42.62L621.66,83.6L622.92,112.25L626.71,174.96L627.98,190.78L629.24,201.9L630.51,204.4L633.03,241.74L634.3,254.07L636.82,269.25L638.09,275.52L639.35,276.66L640.61,285.29L645.67,314.43L646.93,317.78L648.19,319.07L649.46,327.19L651.99,333.32L653.25,334.25L654.51,334.46L655.78,335.46L658.3,336.6L659.57,335.96L662.09,333.53L663.36,330.9L664.62,328.62L665.88,328.62L667.15,321.49L668.41,319.21L673.47,299.32L674.73,299.25L678.52,262.05" style="vector-effect: non-scaling-stroke; fill: none; stroke: rgb(8, 115, 191); stroke-opacity: 1; stroke-width: 0.5px; opacity: 1;"/></g><g class="points"/><g class="text"/></g><g class="trace scatter traceebdf2b" style="stroke-miterlimit: 2;"><g class="fills"><g><path class="js-fill" d="M691.16,380L678.52,380L678.52,262.05L681.05,247.23L682.31,242.24L683.57,240.81L684.84,238.03L686.1,239.25L687.36,238.03L688.63,238.53L689.89,240.17L691.16,240.17" style="fill: rgb(8, 115, 191); fill-opacity: 0.4; stroke-width: 0;"/></g></g><g class="errorbars"/><g class="lines"><path class="js-line" d="M678.52,262.05L681.05,247.23L682.31,242.24L683.57,240.81L684.84,238.03L686.1,239.25L687.36,238.03L688.63,238.53L689.89,240.17L691.16,240.17" style="vector-effect: non-scaling-stroke; fill: none; stroke: rgb(8, 115, 191); stroke-opacity: 1; stroke-width: 2px; opacity: 1;"/></g><g class="points"/><g class="text"/></g><g class="trace scatter tracef89dc8" style="stroke-miterlimit: 2; opacity: 1;"><g class="fills"/><g class="errorbars"/><g class="lines"/><g class="points"><path class="point" transform="translate(691.16,240.17)" d="M15,0A15,15 0 1,1 0,-15A15,15 0 0,1 15,0Z" style="opacity: 1; stroke-width: 0px; fill: rgb(8, 115, 191); fill-opacity: 1;"/></g><g class="text"/></g></g></g><g class="overplot"/><path class="xlines-above crisp" style="fill: none; stroke-width: 1px; stroke: rgb(0, 0, 0); stroke-opacity: 0;" d=""/><path class="ylines-above crisp" style="fill: none;" d="M0,0"/><g class="overlines-above"/><g class="xaxislayer-above"><path class="xtick ticks crisp" d="M0,450v-5" transform="translate(91.7,0)" style="stroke: rgb(68, 68, 68); stroke-opacity: 1; stroke-width: 1px;"/><path class="xtick ticks crisp" d="M0,450v-5" transform="translate(168.76999999999998,0)" style="stroke: rgb(68, 68, 68); stroke-opacity: 1; stroke-width: 1px;"/><path class="xtick ticks crisp" d="M0,450v-5" transform="translate(243.32,0)" style="stroke: rgb(68, 68, 68); stroke-opacity: 1; stroke-width: 1px;"/><path class="xtick ticks crisp" d="M0,450v-5" transform="translate(320.4,0)" style="stroke: rgb(68, 68, 68); stroke-opacity: 1; stroke-width: 1px;"/><path class="xtick ticks crisp" d="M0,450v-5" transform="translate(397.47,0)" style="stroke: rgb(68, 68, 68); stroke-opacity: 1; stroke-width: 1px;"/><path class="xtick ticks crisp" d="M0,450v-5" transform="translate(475.81,0)" style="stroke: rgb(68, 68, 68); stroke-opacity: 1; stroke-width: 1px;"/><path class="xtick ticks crisp" d="M0,450v-5" transform="translate(552.89,0)" style="stroke: rgb(68, 68, 68); stroke-opacity: 1; stroke-width: 1px;"/><path class="xtick ticks crisp" d="M0,450v-5" transform="translate(629.96,0)" style="stroke: rgb(68, 68, 68); stroke-opacity: 1; stroke-width: 1px;"/><path class="xtick ticks crisp" d="M0,450v-5" transform="translate(704.51,0)" style="stroke: rgb(68, 68, 68); stroke-opacity: 1; stroke-width: 1px;"/><g class="xtick"><text text-anchor="middle" x="0" y="469" transform="translate(91.7,0)" style="font-family: 'Open Sans', verdana, arial, sans-serif; font-size: 18px; fill: rgb(42, 63, 95); fill-opacity: 1; white-space: pre;">01/11</text></g><g class="xtick"><text text-anchor="middle" x="0" y="469" transform="translate(168.76999999999998,0)" style="font-family: 'Open Sans', verdana, arial, sans-serif; font-size: 18px; fill: rgb(42, 63, 95); fill-opacity: 1; white-space: pre;">01/01</text></g><g class="xtick"><text text-anchor="middle" x="0" y="469" transform="translate(243.32,0)" style="font-family: 'Open Sans', verdana, arial, sans-serif; font-size: 18px; fill: rgb(42, 63, 95); fill-opacity: 1; white-space: pre;">01/03</text></g><g class="xtick"><text text-anchor="middle" x="0" y="469" transform="translate(320.4,0)" style="font-family: 'Open Sans', verdana, arial, sans-serif; font-size: 18px; fill: rgb(42, 63, 95); fill-opacity: 1; white-space: pre;">01/05</text></g><g class="xtick"><text text-anchor="middle" x="0" y="469" transform="translate(397.47,0)" style="font-family: 'Open Sans', verdana, arial, sans-serif; font-size: 18px; fill: rgb(42, 63, 95); fill-opacity: 1; white-space: pre;">01/07</text></g><g class="xtick"><text text-anchor="middle" x="0" y="469" transform="translate(475.81,0)" style="font-family: 'Open Sans', verdana, arial, sans-serif; font-size: 18px; fill: rgb(42, 63, 95); fill-opacity: 1; white-space: pre;">01/09</text></g><g class="xtick"><text text-anchor="middle" x="0" y="469" transform="translate(552.89,0)" style="font-family: 'Open Sans', verdana, arial, sans-serif; font-size: 18px; fill: rgb(42, 63, 95); fill-opacity: 1; white-space: pre;">01/11</text></g><g class="xtick"><text text-anchor="middle" x="0" y="469" transform="translate(629.96,0)" style="font-family: 'Open Sans', verdana, arial, sans-serif; font-size: 18px; fill: rgb(42, 63, 95); fill-opacity: 1; white-space: pre;">01/01</text></g><g class="xtick"><text text-anchor="middle" x="0" y="469" transform="translate(704.51,0)" style="font-family: 'Open Sans', verdana, arial, sans-serif; font-size: 18px; fill: rgb(42, 63, 95); fill-opacity: 1; white-space: pre;">01/03</text></g></g><g class="yaxislayer-above"/><g class="overaxes-above"/></g></g><g class="polarlayer"/><g class="ternarylayer"/><g class="geolayer"/><g class="funnelarealayer"/><g class="pielayer"/><g class="treemaplayer"/><g class="sunburstlayer"/><g class="glimages"/><defs id="topdefs-4609a8"><g class="clips"/></defs><g class="layer-above"><g class="imagelayer"/><g class="shapelayer"><path data-index="0" fill-rule="evenodd" d="M-660.11,445.01L263.53999999999996,445.01" clip-path="url('#clip4609a8xy')" style="opacity: 1; stroke: rgb(255, 0, 0); stroke-opacity: 1; fill: rgb(0, 0, 0); fill-opacity: 0; stroke-dasharray: 3px, 3px; stroke-width: 1.5px;"/></g></g><g class="infolayer"><g class="g-gtitle"><text class="gtitle" x="375" y="25" text-anchor="middle" dy="0.7em" style="font-family: 'Open Sans', verdana, arial, sans-serif; font-size: 50px; fill: rgb(42, 63, 95); opacity: 1; font-weight: normal; white-space: pre;"><tspan style="font-weight:bold">Territoire de Belfort (90)</tspan></text></g><g class="g-xtitle"/><g class="annotation" data-index="0" style="opacity: 1;"><g class="annotation-text-g" transform="rotate(0,699.16,250.16999999999996)"><g class="cursor-pointer" transform="translate(627, 214)"><rect class="bg" x="0.5" y="0.5" width="143" height="71" style="stroke-width: 1px; stroke: rgb(0, 0, 0); stroke-opacity: 0; fill: rgb(255, 255, 255); fill-opacity: 0.6;"/><text class="annotation-text" text-anchor="middle" x="72.078125" y="55.5" style="font-family: 'Open Sans', verdana, arial, sans-serif; font-size: 50px; fill: rgb(8, 115, 191); fill-opacity: 1; white-space: pre;"> <tspan style="font-weight:bold">1399 </tspan></text></g></g><g class="annotation-arrow-g" style="opacity: 1;"><path d="M727.56,285.66999999999996L739.16,300.16999999999996" style="stroke-width: 1px; stroke: rgb(8, 115, 191); stroke-opacity: 1; stroke-dasharray: 0px, 0px, 18.569px, 18.569px;"/></g></g></g></svg>