<svg class="main-svg" xmlns="http://www.w3.org/2000/svg" xmlns:xlink="http://www.w3.org/1999/xlink" width="1125" height="750" style="" viewBox="0 0 750 500"><rect x="0" y="0" width="750" height="500" style="fill: rgb(0, 0, 0); fill-opacity: 0;"/><defs id="defs-d567d5"><g class="clips"><clipPath id="clipd567d5xyplot" class="plotclip"><rect width="700" height="380"/></clipPath><clipPath class="axesclip" id="clipd567d5x"><rect x="50" y="0" width="700" height="500"/></clipPath><clipPath class="axesclip" id="clipd567d5y"><rect x="0" y="70" width="750" height="380"/></clipPath><clipPath class="axesclip" id="clipd567d5xy"><rect x="50" y="70" width="700" height="380"/></clipPath></g><g class="gradients"/></defs><g class="bglayer"><rect class="bg" x="50" y="70" width="700" height="380" style="fill: rgb(0, 0, 0); fill-opacity: 0; stroke-width: 0;"/></g><g class="layer-below"><g class="imagelayer"/><g class="shapelayer"/></g><g class="cartesianlayer"><g class="subplot xy"><g class="layer-subplot"><g class="shapelayer"/><g class="imagelayer"/></g><g class="gridlayer"><g class="x"><path class="xgrid crisp" transform="translate(52.23,0)" d="M0,70v380" style="stroke: rgb(255, 255, 255); stroke-opacity: 1; stroke-width: 1px;"/><path class="xgrid crisp" transform="translate(154.94,0)" d="M0,70v380" style="stroke: rgb(255, 255, 255); stroke-opacity: 1; stroke-width: 1px;"/><path class="xgrid crisp" transform="translate(255.42,0)" d="M0,70v380" style="stroke: rgb(255, 255, 255); stroke-opacity: 1; stroke-width: 1px;"/><path class="xgrid crisp" transform="translate(357.02,0)" d="M0,70v380" style="stroke: rgb(255, 255, 255); stroke-opacity: 1; stroke-width: 1px;"/><path class="xgrid crisp" transform="translate(459.73,0)" d="M0,70v380" style="stroke: rgb(255, 255, 255); stroke-opacity: 1; stroke-width: 1px;"/><path class="xgrid crisp" transform="translate(562.44,0)" d="M0,70v380" style="stroke: rgb(255, 255, 255); stroke-opacity: 1; stroke-width: 1px;"/><path class="xgrid crisp" transform="translate(662.92,0)" d="M0,70v380" style="stroke: rgb(255, 255, 255); stroke-opacity: 1; stroke-width: 1px;"/></g><g class="y"/></g><g class="zerolinelayer"/><path class="xlines-below"/><path class="ylines-below"/><g class="overlines-below"/><g class="xaxislayer-below"/><g class="yaxislayer-below"/><g class="overaxes-below"/><g class="plot" transform="translate(50, 70)" clip-path="url('#clipd567d5xyplot')"><g class="scatterlayer mlayer"><g class="trace scatter trace5a2b71" style="stroke-miterlimit: 2;"><g class="fills"><g><path class="js-fill" d="M681.02,380L-151.83,380L-151.83,378.97L-114.99,379.94L-113.88,379.88L-69.22,379.63L-68.1,379.6L-41.31,378.63L-40.19,378.38L-36.84,377.57L-35.73,377.45L-32.38,376.86L-31.26,377.14L-29.03,375.71L-27.91,375.12L-23.44,373.62L-22.33,374.71L-18.98,374.37L-17.86,373.78L-14.51,373.28L-13.4,373.25L-10.05,372.6L-8.93,372.97L-3.35,373.75L-2.23,374.03L2.23,373.59L3.35,372.41L5.58,369.83L6.7,368.37L7.81,363.95L8.93,363.98L10.05,363.98L11.16,359.88L14.51,355.68L15.63,356.21L17.86,355.12L18.98,354.71L22.33,347.93L23.44,345.35L25.68,344.85L26.79,343.42L31.26,336.49L32.38,335.65L33.49,335.83L34.61,334.96L37.96,340.06L39.07,345.16L41.31,345.79L42.42,349.77L43.54,352.38L44.66,357.57L48.01,361.87L49.12,362.08L51.36,366.66L52.47,365.6L54.7,369.21L55.82,369.74L56.94,369.86L58.05,370.86L59.17,371.79L60.29,371.73L61.4,372.19L62.52,371.79L68.1,373.16L69.22,373.9L74.8,375.09L75.92,374.99L77.03,374.59L78.15,375.49L80.38,375.55L81.5,374.56L83.73,374.49L84.85,373.34L90.43,372.44L91.55,371.23L93.78,373.56L94.9,372.88L101.59,372.13L102.71,372.57L104.94,372.66L106.06,371.91L108.29,372.13L109.41,371.14L113.88,369.14L114.99,369.55L117.22,367.4L118.34,367.65L119.46,367.99L120.57,367.37L122.81,366.56L123.92,366.72L126.16,367.25L127.27,366.97L130.62,368.3L131.74,368.74L137.32,367.59L138.44,367.12L141.79,367.4L142.9,367.4L149.6,370.17L150.72,370.05L152.95,371.17L154.07,371.2L156.3,370.26L157.42,370.67L160.77,371.48L161.88,372.26L164.11,373.84L165.23,373.75L170.81,373.16L171.93,372.47L181.98,370.23L183.09,368.93L186.44,366.91L187.56,364.42L189.79,364.7L190.91,364.45L194.26,360.47L195.37,360.47L196.49,359.16L197.61,359.28L200.96,356.45L202.07,355.93L204.31,355.68L205.42,355.4L206.54,360.09L207.66,358.1L213.24,358.54L214.35,354.25L216.59,359.04L217.7,360.78L218.82,362.83L219.94,362.95L221.05,362.95L222.17,363.73L225.52,364.76L226.63,364.91L229.98,367.22L231.1,367.06L232.22,367L233.33,366.03L236.68,367.22L237.8,367.4L242.26,368.86L243.38,368.93L247.85,370.64L248.96,372.38L250.08,372.97L251.2,372.13L253.43,372.19L254.55,372.57L255.66,372.72L256.78,371.7L260.13,372.35L261.24,373.97L262.36,372.78L263.48,373.09L267.94,374.28L269.06,373.65L270.18,375.46L271.29,375.8L276.87,376.36L277.99,376.36L282.46,377.33L283.57,377.26L286.92,377.92L288.04,377.79L307.02,379.44L308.13,379.38L318.18,378.07L319.3,376.98L322.65,375.71L323.76,373.19L329.35,365.23L330.46,365.23L331.58,364.73L332.7,363.27L336.04,362.05L337.16,362.61L339.39,362.4L340.51,363.86L341.63,362.83L342.74,363.27L346.09,361.84L347.21,361.84L348.33,360.12L349.44,360.25L355.02,360L356.14,360.68L361.72,364.04L362.84,365.54L367.3,368.4L368.42,368.09L370.65,368.3L371.77,369.3L375.12,370.39L376.24,371.04L379.59,371.7L380.7,372.69L391.87,375.74L392.98,375.8L396.33,376.36L397.45,376.61L400.8,376.58L401.91,376.92L403.03,376.36L404.15,376.67L413.08,377.45L414.19,377.33L417.54,376.58L418.66,375.3L422.01,373.87L423.13,373.59L428.71,372.69L429.82,371.73L432.06,371.17L433.17,371.63L439.87,372.57L440.99,373.72L446.57,370.51L447.69,370.64L448.8,368.9L449.92,369.21L451.04,368.21L452.15,369.7L455.5,368.4L456.62,366.44L457.74,364.6L458.85,364.35L459.97,361.37L461.08,360.68L463.32,359.47L464.43,356.95L465.55,356.17L466.67,354.31L468.9,352.29L470.02,352.07L472.25,352.6L473.37,351.7L477.83,346.13L478.95,345.69L481.18,339.04L482.3,336.8L486.76,333.53L487.88,331.29L489,329.11L490.11,329.14L491.23,328.49L492.34,329.74L494.58,330.14L495.69,334.15L496.81,336.42L497.93,336.86L500.16,333.47L501.28,337.45L502.39,336.92L503.51,324.76L507.97,284.76L509.09,283.98L510.21,281.46L511.32,257.39L513.56,233.5L514.67,223.64L515.79,214.37L516.91,196.49L518.02,196.21L519.14,191.29L520.26,189.21L521.37,179.5L522.49,176.86L523.6,167.37L525.84,153.34L526.95,134.34L532.54,45.72L533.65,41.52L535.89,4.14L537,1.46L538.12,0L539.23,1.52L541.47,8.52L542.58,20.72L544.82,47.5L545.93,57.54L548.17,77.08L549.28,79.5L553.75,155.3L554.86,170.02L555.98,183.92L557.1,186.91L559.33,221.49L560.45,233.72L563.8,259.35L564.91,260.56L567.15,282.99L568.26,288.93L570.49,299.5L571.61,302.36L572.73,302.83L573.84,308.3L576.08,316.42L577.19,317.45L580.54,319.41L581.66,318.2L583.89,316.64L585.01,316.58L586.12,317.51L587.24,316.05L588.36,315.96L589.47,313.06L591.71,306.72L592.82,302.95L595.06,296.11L596.17,295.61L601.75,264.01L602.87,259.35L603.99,258.63L605.1,250.33L607.34,243.73L608.45,242.67L609.57,244.14L610.69,247.5L611.8,248.27L612.92,254.49L615.15,258.13L616.27,260.72L618.5,259.07L619.62,258.48L620.73,257.36L621.85,259.41L622.97,259.53L624.08,263.33L626.32,269.14L627.43,270.14L628.55,296.11L629.67,290.42L631.9,300.56L633.01,305.13L635.25,308.27L636.36,297.17L637.48,313.31L638.6,317.29L641.95,328.52L643.06,328.86L645.3,336.52L646.41,339.6L648.64,344.79L649.76,344.91L650.88,345.07L651.99,347.47L653.11,348.49L654.23,350.92L656.46,354.4L657.58,356.73L658.69,356.95L659.81,359.13L663.16,362.33L664.27,363.11L667.62,364.76L668.74,365.72L669.86,366.28L670.97,369.05L676.56,368.52L677.67,368.02L678.79,366.44L679.9,366.78L681.02,366.75" style="fill: rgb(8, 115, 191); fill-opacity: 0.2; stroke-width: 0;"/></g></g><g class="errorbars"/><g class="lines"><path class="js-line" d="M-151.83,378.97L-114.99,379.94L-113.88,379.88L-69.22,379.63L-68.1,379.6L-41.31,378.63L-40.19,378.38L-36.84,377.57L-35.73,377.45L-32.38,376.86L-31.26,377.14L-29.03,375.71L-27.91,375.12L-23.44,373.62L-22.33,374.71L-18.98,374.37L-17.86,373.78L-14.51,373.28L-13.4,373.25L-10.05,372.6L-8.93,372.97L-3.35,373.75L-2.23,374.03L2.23,373.59L3.35,372.41L5.58,369.83L6.7,368.37L7.81,363.95L8.93,363.98L10.05,363.98L11.16,359.88L14.51,355.68L15.63,356.21L17.86,355.12L18.98,354.71L22.33,347.93L23.44,345.35L25.68,344.85L26.79,343.42L31.26,336.49L32.38,335.65L33.49,335.83L34.61,334.96L37.96,340.06L39.07,345.16L41.31,345.79L42.42,349.77L43.54,352.38L44.66,357.57L48.01,361.87L49.12,362.08L51.36,366.66L52.47,365.6L54.7,369.21L55.82,369.74L56.94,369.86L58.05,370.86L59.17,371.79L60.29,371.73L61.4,372.19L62.52,371.79L68.1,373.16L69.22,373.9L74.8,375.09L75.92,374.99L77.03,374.59L78.15,375.49L80.38,375.55L81.5,374.56L83.73,374.49L84.85,373.34L90.43,372.44L91.55,371.23L93.78,373.56L94.9,372.88L101.59,372.13L102.71,372.57L104.94,372.66L106.06,371.91L108.29,372.13L109.41,371.14L113.88,369.14L114.99,369.55L117.22,367.4L118.34,367.65L119.46,367.99L120.57,367.37L122.81,366.56L123.92,366.72L126.16,367.25L127.27,366.97L130.62,368.3L131.74,368.74L137.32,367.59L138.44,367.12L141.79,367.4L142.9,367.4L149.6,370.17L150.72,370.05L152.95,371.17L154.07,371.2L156.3,370.26L157.42,370.67L160.77,371.48L161.88,372.26L164.11,373.84L165.23,373.75L170.81,373.16L171.93,372.47L181.98,370.23L183.09,368.93L186.44,366.91L187.56,364.42L189.79,364.7L190.91,364.45L194.26,360.47L195.37,360.47L196.49,359.16L197.61,359.28L200.96,356.45L202.07,355.93L204.31,355.68L205.42,355.4L206.54,360.09L207.66,358.1L213.24,358.54L214.35,354.25L216.59,359.04L217.7,360.78L218.82,362.83L219.94,362.95L221.05,362.95L222.17,363.73L225.52,364.76L226.63,364.91L229.98,367.22L231.1,367.06L232.22,367L233.33,366.03L236.68,367.22L237.8,367.4L242.26,368.86L243.38,368.93L247.85,370.64L248.96,372.38L250.08,372.97L251.2,372.13L253.43,372.19L254.55,372.57L255.66,372.72L256.78,371.7L260.13,372.35L261.24,373.97L262.36,372.78L263.48,373.09L267.94,374.28L269.06,373.65L270.18,375.46L271.29,375.8L276.87,376.36L277.99,376.36L282.46,377.33L283.57,377.26L286.92,377.92L288.04,377.79L307.02,379.44L308.13,379.38L318.18,378.07L319.3,376.98L322.65,375.71L323.76,373.19L329.35,365.23L330.46,365.23L331.58,364.73L332.7,363.27L336.04,362.05L337.16,362.61L339.39,362.4L340.51,363.86L341.63,362.83L342.74,363.27L346.09,361.84L347.21,361.84L348.33,360.12L349.44,360.25L355.02,360L356.14,360.68L361.72,364.04L362.84,365.54L367.3,368.4L368.42,368.09L370.65,368.3L371.77,369.3L375.12,370.39L376.24,371.04L379.59,371.7L380.7,372.69L391.87,375.74L392.98,375.8L396.33,376.36L397.45,376.61L400.8,376.58L401.91,376.92L403.03,376.36L404.15,376.67L413.08,377.45L414.19,377.33L417.54,376.58L418.66,375.3L422.01,373.87L423.13,373.59L428.71,372.69L429.82,371.73L432.06,371.17L433.17,371.63L439.87,372.57L440.99,373.72L446.57,370.51L447.69,370.64L448.8,368.9L449.92,369.21L451.04,368.21L452.15,369.7L455.5,368.4L456.62,366.44L457.74,364.6L458.85,364.35L459.97,361.37L461.08,360.68L463.32,359.47L464.43,356.95L465.55,356.17L466.67,354.31L468.9,352.29L470.02,352.07L472.25,352.6L473.37,351.7L477.83,346.13L478.95,345.69L481.18,339.04L482.3,336.8L486.76,333.53L487.88,331.29L489,329.11L490.11,329.14L491.23,328.49L492.34,329.74L494.58,330.14L495.69,334.15L496.81,336.42L497.93,336.86L500.16,333.47L501.28,337.45L502.39,336.92L503.51,324.76L507.97,284.76L509.09,283.98L510.21,281.46L511.32,257.39L513.56,233.5L514.67,223.64L515.79,214.37L516.91,196.49L518.02,196.21L519.14,191.29L520.26,189.21L521.37,179.5L522.49,176.86L523.6,167.37L525.84,153.34L526.95,134.34L532.54,45.72L533.65,41.52L535.89,4.14L537,1.46L538.12,0L539.23,1.52L541.47,8.52L542.58,20.72L544.82,47.5L545.93,57.54L548.17,77.08L549.28,79.5L553.75,155.3L554.86,170.02L555.98,183.92L557.1,186.91L559.33,221.49L560.45,233.72L563.8,259.35L564.91,260.56L567.15,282.99L568.26,288.93L570.49,299.5L571.61,302.36L572.73,302.83L573.84,308.3L576.08,316.42L577.19,317.45L580.54,319.41L581.66,318.2L583.89,316.64L585.01,316.58L586.12,317.51L587.24,316.05L588.36,315.96L589.47,313.06L591.71,306.72L592.82,302.95L595.06,296.11L596.17,295.61L601.75,264.01L602.87,259.35L603.99,258.63L605.1,250.33L607.34,243.73L608.45,242.67L609.57,244.14L610.69,247.5L611.8,248.27L612.92,254.49L615.15,258.13L616.27,260.72L618.5,259.07L619.62,258.48L620.73,257.36L621.85,259.41L622.97,259.53L624.08,263.33L626.32,269.14L627.43,270.14L628.55,296.11L629.67,290.42L631.9,300.56L633.01,305.13L635.25,308.27L636.36,297.17L637.48,313.31L638.6,317.29L641.95,328.52L643.06,328.86L645.3,336.52L646.41,339.6L648.64,344.79L649.76,344.91L650.88,345.07L651.99,347.47L653.11,348.49L654.23,350.92L656.46,354.4L657.58,356.73L658.69,356.95L659.81,359.13L663.16,362.33L664.27,363.11L667.62,364.76L668.74,365.72L669.86,366.28L670.97,369.05L676.56,368.52L677.67,368.02L678.79,366.44L679.9,366.78L681.02,366.75" style="vector-effect: non-scaling-stroke; fill: none; stroke: rgb(8, 115, 191); stroke-opacity: 1; stroke-width: 0.5px; opacity: 1;"/></g><g class="points"/><g class="text"/></g><g class="trace scatter traced8e882" style="stroke-miterlimit: 2;"><g class="fills"><g><path class="js-fill" d="M692.19,380L681.02,380L681.02,366.75L682.14,366.56L683.25,369.58L684.37,367.12L685.49,366.56L687.72,364.95L688.84,364.76L689.95,364.82L691.07,359.97L692.19,360.47" style="fill: rgb(8, 115, 191); fill-opacity: 0.4; stroke-width: 0;"/></g></g><g class="errorbars"/><g class="lines"><path class="js-line" d="M681.02,366.75L682.14,366.56L683.25,369.58L684.37,367.12L685.49,366.56L687.72,364.95L688.84,364.76L689.95,364.82L691.07,359.97L692.19,360.47" style="vector-effect: non-scaling-stroke; fill: none; stroke: rgb(8, 115, 191); stroke-opacity: 1; stroke-width: 2px; opacity: 1;"/></g><g class="points"/><g class="text"/></g><g class="trace scatter trace87e57b" style="stroke-miterlimit: 2; opacity: 1;"><g class="fills"/><g class="errorbars"/><g class="lines"/><g class="points"><path class="point" transform="translate(692.19,360.47)" d="M15,0A15,15 0 1,1 0,-15A15,15 0 0,1 15,0Z" style="opacity: 1; stroke-width: 0px; fill: rgb(8, 115, 191); fill-opacity: 1;"/></g><g class="text"/></g></g></g><g class="overplot"/><path class="xlines-above crisp" style="fill: none; stroke-width: 1px; stroke: rgb(0, 0, 0); stroke-opacity: 0;" d=""/><path class="ylines-above crisp" style="fill: none;" d="M0,0"/><g class="overlines-above"/><g class="xaxislayer-above"><path class="xtick ticks crisp" d="M0,450v-5" transform="translate(52.23,0)" style="stroke: rgb(68, 68, 68); stroke-opacity: 1; stroke-width: 1px;"/><path class="xtick ticks crisp" d="M0,450v-5" transform="translate(154.94,0)" style="stroke: rgb(68, 68, 68); stroke-opacity: 1; stroke-width: 1px;"/><path class="xtick ticks crisp" d="M0,450v-5" transform="translate(255.42,0)" style="stroke: rgb(68, 68, 68); stroke-opacity: 1; stroke-width: 1px;"/><path class="xtick ticks crisp" d="M0,450v-5" transform="translate(357.02,0)" style="stroke: rgb(68, 68, 68); stroke-opacity: 1; stroke-width: 1px;"/><path class="xtick ticks crisp" d="M0,450v-5" transform="translate(459.73,0)" style="stroke: rgb(68, 68, 68); stroke-opacity: 1; stroke-width: 1px;"/><path class="xtick ticks crisp" d="M0,450v-5" transform="translate(562.44,0)" style="stroke: rgb(68, 68, 68); stroke-opacity: 1; stroke-width: 1px;"/><path class="xtick ticks crisp" d="M0,450v-5" transform="translate(662.92,0)" style="stroke: rgb(68, 68, 68); stroke-opacity: 1; stroke-width: 1px;"/><g class="xtick"><text text-anchor="middle" x="0" y="469" transform="translate(52.23,0)" style="font-family: 'Open Sans', verdana, arial, sans-serif; font-size: 18px; fill: rgb(42, 63, 95); fill-opacity: 1; white-space: pre;">01/10</text></g><g class="xtick"><text text-anchor="middle" x="0" y="469" transform="translate(154.94,0)" style="font-family: 'Open Sans', verdana, arial, sans-serif; font-size: 18px; fill: rgb(42, 63, 95); fill-opacity: 1; white-space: pre;">01/01</text></g><g class="xtick"><text text-anchor="middle" x="0" y="469" transform="translate(255.42,0)" style="font-family: 'Open Sans', verdana, arial, sans-serif; font-size: 18px; fill: rgb(42, 63, 95); fill-opacity: 1; white-space: pre;">01/04</text></g><g class="xtick"><text text-anchor="middle" x="0" y="469" transform="translate(357.02,0)" style="font-family: 'Open Sans', verdana, arial, sans-serif; font-size: 18px; fill: rgb(42, 63, 95); fill-opacity: 1; white-space: pre;">01/07</text></g><g class="xtick"><text text-anchor="middle" x="0" y="469" transform="translate(459.73,0)" style="font-family: 'Open Sans', verdana, arial, sans-serif; font-size: 18px; fill: rgb(42, 63, 95); fill-opacity: 1; white-space: pre;">01/10</text></g><g class="xtick"><text text-anchor="middle" x="0" y="469" transform="translate(562.44,0)" style="font-family: 'Open Sans', verdana, arial, sans-serif; font-size: 18px; fill: rgb(42, 63, 95); fill-opacity: 1; white-space: pre;">01/01</text></g><g class="xtick"><text text-anchor="middle" x="0" y="469" transform="translate(662.92,0)" style="font-family: 'Open Sans', verdana, arial, sans-serif; font-size: 18px; fill: rgb(42, 63, 95); fill-opacity: 1; white-space: pre;">01/04</text></g></g><g class="yaxislayer-above"/><g class="overaxes-above"/></g></g><g class="polarlayer"/><g class="ternarylayer"/><g class="geolayer"/><g class="funnelarealayer"/><g class="pielayer"/><g class="treemaplayer"/><g class="sunburstlayer"/><g class="glimages"/><defs id="topdefs-d567d5"><g class="clips"/></defs><g class="layer-above"><g class="imagelayer"/><g class="shapelayer"><path data-index="0" fill-rule="evenodd" d="M-577.43,445.67L238.68,445.67" clip-path="url('#clipd567d5xy')" style="opacity: 1; stroke: rgb(255, 0, 0); stroke-opacity: 1; fill: rgb(0, 0, 0); fill-opacity: 0; stroke-dasharray: 3px, 3px; stroke-width: 1.5px;"/></g></g><g class="infolayer"><g class="g-gtitle"><text class="gtitle" x="375" y="25" text-anchor="middle" dy="0.7em" style="font-family: 'Open Sans', verdana, arial, sans-serif; font-size: 50px; fill: rgb(42, 63, 95); opacity: 1; font-weight: normal; white-space: pre;"><tspan style="font-weight:bold">Aveyron (12)</tspan></text></g><g class="g-xtitle"/><g class="annotation" data-index="0" style="opacity: 1;"><g class="annotation-text-g" transform="rotate(0,700.19,370.47)"><g class="cursor-pointer" transform="translate(642, 334)"><rect class="bg" x="0.5" y="0.5" width="115" height="71" style="stroke-width: 1px; stroke: rgb(0, 0, 0); stroke-opacity: 0; fill: rgb(255, 255, 255); fill-opacity: 0.6;"/><text class="annotation-text" text-anchor="middle" x="57.8125" y="55.5" style="font-family: 'Open Sans', verdana, arial, sans-serif; font-size: 50px; fill: rgb(8, 115, 191); fill-opacity: 1; white-space: pre;"> <tspan style="font-weight:bold">225 </tspan></text></g></g><g class="annotation-arrow-g" style="opacity: 1;"><path d="M728.59,405.97L740.19,420.47" style="stroke-width: 1px; stroke: rgb(8, 115, 191); stroke-opacity: 1; stroke-dasharray: 0px, 0px, 18.569px, 18.569px;"/></g></g></g></svg>