<svg class="main-svg" xmlns="http://www.w3.org/2000/svg" xmlns:xlink="http://www.w3.org/1999/xlink" width="1125" height="750" style="" viewBox="0 0 750 500"><rect x="0" y="0" width="750" height="500" style="fill: rgb(0, 0, 0); fill-opacity: 0;"/><defs id="defs-b3e85f"><g class="clips"><clipPath id="clipb3e85fxyplot" class="plotclip"><rect width="680" height="380"/></clipPath><clipPath class="axesclip" id="clipb3e85fx"><rect x="50" y="0" width="680" height="500"/></clipPath><clipPath class="axesclip" id="clipb3e85fy"><rect x="0" y="70" width="750" height="380"/></clipPath><clipPath class="axesclip" id="clipb3e85fxy"><rect x="50" y="70" width="680" height="380"/></clipPath></g><g class="gradients"/></defs><g class="bglayer"><rect class="bg" x="50" y="70" width="680" height="380" style="fill: rgb(0, 0, 0); fill-opacity: 0; stroke-width: 0;"/></g><g class="layer-below"><g class="imagelayer"/><g class="shapelayer"/></g><g class="cartesianlayer"><g class="subplot xy"><g class="layer-subplot"><g class="shapelayer"/><g class="imagelayer"/></g><g class="gridlayer"><g class="x"><path class="xgrid crisp" transform="translate(52.11,0)" d="M0,70v380" style="stroke: rgb(255, 255, 255); stroke-opacity: 1; stroke-width: 1px;"/><path class="xgrid crisp" transform="translate(149.25,0)" d="M0,70v380" style="stroke: rgb(255, 255, 255); stroke-opacity: 1; stroke-width: 1px;"/><path class="xgrid crisp" transform="translate(244.29,0)" d="M0,70v380" style="stroke: rgb(255, 255, 255); stroke-opacity: 1; stroke-width: 1px;"/><path class="xgrid crisp" transform="translate(340.37,0)" d="M0,70v380" style="stroke: rgb(255, 255, 255); stroke-opacity: 1; stroke-width: 1px;"/><path class="xgrid crisp" transform="translate(437.52,0)" d="M0,70v380" style="stroke: rgb(255, 255, 255); stroke-opacity: 1; stroke-width: 1px;"/><path class="xgrid crisp" transform="translate(534.6600000000001,0)" d="M0,70v380" style="stroke: rgb(255, 255, 255); stroke-opacity: 1; stroke-width: 1px;"/><path class="xgrid crisp" transform="translate(629.69,0)" d="M0,70v380" style="stroke: rgb(255, 255, 255); stroke-opacity: 1; stroke-width: 1px;"/><path class="xgrid crisp" transform="translate(725.78,0)" d="M0,70v380" style="stroke: rgb(255, 255, 255); stroke-opacity: 1; stroke-width: 1px;"/></g><g class="y"/></g><g class="zerolinelayer"/><path class="xlines-below"/><path class="ylines-below"/><g class="overlines-below"/><g class="xaxislayer-below"/><g class="yaxislayer-below"/><g class="overaxes-below"/><g class="plot" transform="translate(50, 70)" clip-path="url('#clipb3e85fxyplot')"><g class="scatterlayer mlayer"><g class="trace scatter tracedfc5b1" style="stroke-miterlimit: 2;"><g class="fills"><g><path class="js-fill" d="M662.05,380L-143.6,380L-143.6,379.74L-140.43,378.55L-139.38,377.62L-134.1,374.62L-133.04,374.83L-123.54,371.97L-122.48,370.54L-119.32,365.98L-118.26,362.71L-114.04,356.72L-112.98,348.72L-106.65,334.52L-105.59,335.27L-104.53,335.64L-102.42,338.88L-101.37,336.26L-99.25,334.9L-98.2,336.97L-97.14,336.6L-96.09,333.19L-95.03,333.26L-93.98,335.85L-92.92,336.22L-91.86,338.88L-88.7,343.03L-87.64,346.06L-85.53,348.75L-84.47,352.15L-81.3,358.32L-80.25,358.93L-79.19,357.29L-78.14,358.42L-77.08,357.19L-76.02,355.93L-74.97,357.84L-71.8,357.09L-70.75,358.01L-61.24,366.21L-60.19,366.52L-53.85,369.17L-52.8,368.49L-48.57,370.43L-47.52,370.3L-44.35,371.22L-43.29,371.18L-34.84,371.83L-33.79,370.81L-31.68,371.08L-30.62,371.76L-26.4,372.58L-25.34,372.95L-23.23,372.34L-22.17,372.89L-19.01,373.5L-17.95,373.6L-14.78,374.55L-13.73,374.66L-5.28,373.94L-4.22,373.53L2.11,374.21L3.17,375.03L6.34,374.62L7.39,375.06L14.78,376.83L15.84,376.66L20.06,375.78L21.12,374.66L23.23,374.76L24.29,375.1L27.45,375.4L28.51,376.19L34.84,375.44L35.9,375.03L44.35,374.96L45.4,374.49L48.57,374.18L49.63,373.74L50.68,374.49L51.74,374.25L53.85,374.55L54.91,374.28L59.13,374.49L60.19,374.21L64.41,373.74L65.47,372.92L67.58,371.42L68.63,371.46L71.8,368.8L72.86,367.34L76.02,366.15L77.08,364.38L80.25,361.21L81.3,360.9L83.42,360.83L84.47,360.9L87.64,363.8L88.7,366.32L91.86,366.45L92.92,365.91L99.25,361.52L100.31,359.71L102.42,355.73L103.48,351.75L105.59,351.85L106.65,350.04L107.7,350.55L108.76,352.26L109.81,353.21L110.87,352.53L115.09,355.63L116.15,355.35L117.2,356.44L118.26,359L120.37,359.51L121.43,361.31L125.65,365.77L126.71,365.91L127.76,365.87L128.82,367.27L130.93,370.91L131.99,372.17L141.49,376.53L142.55,376.66L146.77,377.69L147.83,377.65L156.27,377.14L157.33,377.28L165.78,378.16L166.83,378.3L176.34,377.45L177.39,377.07L181.61,376.73L182.67,376.09L187.95,373.8L189.01,373.19L194.29,372.44L195.34,373.67L199.57,367.64L200.62,367.17L201.68,367.3L202.73,364.31L205.9,363.63L206.96,362.74L209.07,362.78L210.12,360.73L213.29,358.04L214.35,358.28L216.46,358.38L217.52,359.47L220.68,359.68L221.74,359.06L223.85,359.68L224.91,356.92L228.07,354.13L229.13,351.54L231.24,350.96L232.3,348.41L234.41,342.55L235.47,345.86L237.58,341.26L238.63,341.06L239.69,339.97L240.75,340.89L241.8,341.36L242.86,336.53L243.91,339.29L244.97,339.39L246.02,339.42L247.08,347.25L248.14,347.32L249.19,346.23L250.25,346.95L251.3,346.57L252.36,347.87L253.42,347.52L254.47,343.78L255.53,346.06L256.58,348.78L257.64,348.44L260.81,350.35L261.86,350.28L263.98,347.73L265.03,352.19L268.2,350.21L269.25,350.11L271.37,352.02L272.42,349.02L274.53,351.81L275.59,351.51L278.76,355.15L279.81,355.49L282.98,356.61L284.04,358.35L286.15,360.56L287.2,361.11L289.32,360.9L290.37,360.56L291.43,359.75L292.48,360.29L294.6,360.77L295.65,361.55L299.88,361.69L300.93,363.56L303.04,361.65L304.1,361.28L306.21,359.98L307.27,358.52L308.32,354.95L309.38,355.42L312.55,355.76L313.6,356.75L315.71,358.86L316.77,358.25L318.88,359L319.94,359.17L323.11,356.17L324.16,355.35L327.33,354.03L328.39,352.22L330.5,348.51L331.55,346.64L333.66,342.96L334.72,342.69L335.78,341.81L336.83,339.8L337.89,338.33L338.94,338.23L344.22,334.73L345.28,335.47L348.45,334.21L349.5,334.56L351.61,333.67L352.67,333.47L355.84,338.54L356.89,338.1L359.01,340.78L360.06,341.57L363.23,338.44L364.29,338.27L366.4,335.85L367.45,333.09L370.62,330.54L371.68,330.78L373.79,330.2L374.84,329.99L376.96,326.93L378.01,326.32L379.07,326.39L380.12,325.02L382.24,326.28L383.29,328.26L386.46,330.98L387.52,333.64L389.63,337.14L390.68,339.25L392.8,343.3L393.85,343.37L399.13,352.15L400.19,353.11L401.24,353.31L402.3,354.74L403.35,356.24L404.41,355.8L406.52,357.09L407.58,356.89L408.63,356.75L409.69,357.5L410.75,357.87L411.8,359.64L414.97,363.05L416.02,363.01L417.08,366.72L418.14,365.36L420.25,366.45L421.3,366.11L423.42,366.66L424.47,363.9L426.58,367.54L427.64,369.52L430.81,369.89L431.86,371.42L432.92,372.34L433.98,372.17L435.03,371.29L436.09,372.31L440.31,372.27L441.37,372.31L443.48,370.95L444.53,371.12L446.65,370.77L447.7,370.26L448.76,370.16L449.81,371.01L451.93,371.01L452.98,371.05L455.09,371.86L456.15,370.77L459.32,369.58L460.37,369.62L462.48,367.68L463.54,368.49L466.71,367.85L467.76,367.61L468.82,367.78L469.88,366.55L473.04,362.43L474.1,362.88L475.16,362.16L476.21,352.97L478.32,328.7L479.38,309.23L480.43,290.68L481.49,287.51L482.55,283.43L483.6,223.99L487.83,31.18L488.88,4.05L490.99,0L492.05,9.53L494.16,54.33L495.22,78.36L496.27,89.56L497.33,91.6L502.61,224.13L503.66,234.82L504.72,238.12L505.78,261.37L508.94,300.75L510,306.57L511.06,311.71L512.11,312.33L515.28,335.64L516.34,340.65L517.39,346.27L518.45,346.91L519.5,347.76L520.56,352.6L524.78,360.97L525.84,362.91L526.89,362.78L527.95,365.4L531.12,370.84L532.17,371.05L537.45,373.84L538.51,373.74L546.96,375.57L548.01,374.66L549.07,374.55L550.12,372.99L553.29,370.09L554.35,369.75L556.46,370.54L557.52,370.33L563.85,369.41L564.91,368.39L567.02,368.15L568.07,367.44L570.19,365.84L571.24,365.84L573.35,365.77L574.41,365.63L575.47,365.23L576.52,365.91L578.63,366.04L579.69,365.5L580.75,364.44L581.8,364.68L584.97,363.32L586.02,363.42L589.19,362.78L590.25,363.15L592.36,363.49L593.42,363.35L594.47,366.89L595.53,366.11L597.64,367.51L598.7,367.1L600.81,367.06L601.86,364L603.98,364.92L605.03,364.85L609.25,364.41L610.31,365.16L613.48,364.92L614.53,365.26L616.65,364.95L617.7,364.31L619.81,363.39L620.87,362.78L624.04,362.3L625.09,361.79L628.26,360.12L629.32,360.05L633.54,358.55L634.6,361.48L636.71,358.83L637.76,359.03L638.82,356.1L639.88,355.63L640.93,355.15L641.99,351.34L643.04,351.71L644.1,351.13L645.16,350.86L646.21,356.17L647.27,351.24L648.32,350.55L649.38,349.19L650.43,352.67L651.49,351.61L652.55,351.78L653.6,344.05L654.66,345.86L656.77,342.9L657.83,337.28L658.88,337.86L659.94,337.58L660.99,335.2L662.05,335.1" style="fill: rgb(8, 115, 191); fill-opacity: 0.2; stroke-width: 0;"/></g></g><g class="errorbars"/><g class="lines"><path class="js-line" d="M-143.6,379.74L-140.43,378.55L-139.38,377.62L-134.1,374.62L-133.04,374.83L-123.54,371.97L-122.48,370.54L-119.32,365.98L-118.26,362.71L-114.04,356.72L-112.98,348.72L-106.65,334.52L-105.59,335.27L-104.53,335.64L-102.42,338.88L-101.37,336.26L-99.25,334.9L-98.2,336.97L-97.14,336.6L-96.09,333.19L-95.03,333.26L-93.98,335.85L-92.92,336.22L-91.86,338.88L-88.7,343.03L-87.64,346.06L-85.53,348.75L-84.47,352.15L-81.3,358.32L-80.25,358.93L-79.19,357.29L-78.14,358.42L-77.08,357.19L-76.02,355.93L-74.97,357.84L-71.8,357.09L-70.75,358.01L-61.24,366.21L-60.19,366.52L-53.85,369.17L-52.8,368.49L-48.57,370.43L-47.52,370.3L-44.35,371.22L-43.29,371.18L-34.84,371.83L-33.79,370.81L-31.68,371.08L-30.62,371.76L-26.4,372.58L-25.34,372.95L-23.23,372.34L-22.17,372.89L-19.01,373.5L-17.95,373.6L-14.78,374.55L-13.73,374.66L-5.28,373.94L-4.22,373.53L2.11,374.21L3.17,375.03L6.34,374.62L7.39,375.06L14.78,376.83L15.84,376.66L20.06,375.78L21.12,374.66L23.23,374.76L24.29,375.1L27.45,375.4L28.51,376.19L34.84,375.44L35.9,375.03L44.35,374.96L45.4,374.49L48.57,374.18L49.63,373.74L50.68,374.49L51.74,374.25L53.85,374.55L54.91,374.28L59.13,374.49L60.19,374.21L64.41,373.74L65.47,372.92L67.58,371.42L68.63,371.46L71.8,368.8L72.86,367.34L76.02,366.15L77.08,364.38L80.25,361.21L81.3,360.9L83.42,360.83L84.47,360.9L87.64,363.8L88.7,366.32L91.86,366.45L92.92,365.91L99.25,361.52L100.31,359.71L102.42,355.73L103.48,351.75L105.59,351.85L106.65,350.04L107.7,350.55L108.76,352.26L109.81,353.21L110.87,352.53L115.09,355.63L116.15,355.35L117.2,356.44L118.26,359L120.37,359.51L121.43,361.31L125.65,365.77L126.71,365.91L127.76,365.87L128.82,367.27L130.93,370.91L131.99,372.17L141.49,376.53L142.55,376.66L146.77,377.69L147.83,377.65L156.27,377.14L157.33,377.28L165.78,378.16L166.83,378.3L176.34,377.45L177.39,377.07L181.61,376.73L182.67,376.09L187.95,373.8L189.01,373.19L194.29,372.44L195.34,373.67L199.57,367.64L200.62,367.17L201.68,367.3L202.73,364.31L205.9,363.63L206.96,362.74L209.07,362.78L210.12,360.73L213.29,358.04L214.35,358.28L216.46,358.38L217.52,359.47L220.68,359.68L221.74,359.06L223.85,359.68L224.91,356.92L228.07,354.13L229.13,351.54L231.24,350.96L232.3,348.41L234.41,342.55L235.47,345.86L237.58,341.26L238.63,341.06L239.69,339.97L240.75,340.89L241.8,341.36L242.86,336.53L243.91,339.29L244.97,339.39L246.02,339.42L247.08,347.25L248.14,347.32L249.19,346.23L250.25,346.95L251.3,346.57L252.36,347.87L253.42,347.52L254.47,343.78L255.53,346.06L256.58,348.78L257.64,348.44L260.81,350.35L261.86,350.28L263.98,347.73L265.03,352.19L268.2,350.21L269.25,350.11L271.37,352.02L272.42,349.02L274.53,351.81L275.59,351.51L278.76,355.15L279.81,355.49L282.98,356.61L284.04,358.35L286.15,360.56L287.2,361.11L289.32,360.9L290.37,360.56L291.43,359.75L292.48,360.29L294.6,360.77L295.65,361.55L299.88,361.69L300.93,363.56L303.04,361.65L304.1,361.28L306.21,359.98L307.27,358.52L308.32,354.95L309.38,355.42L312.55,355.76L313.6,356.75L315.71,358.86L316.77,358.25L318.88,359L319.94,359.17L323.11,356.17L324.16,355.35L327.33,354.03L328.39,352.22L330.5,348.51L331.55,346.64L333.66,342.96L334.72,342.69L335.78,341.81L336.83,339.8L337.89,338.33L338.94,338.23L344.22,334.73L345.28,335.47L348.45,334.21L349.5,334.56L351.61,333.67L352.67,333.47L355.84,338.54L356.89,338.1L359.01,340.78L360.06,341.57L363.23,338.44L364.29,338.27L366.4,335.85L367.45,333.09L370.62,330.54L371.68,330.78L373.79,330.2L374.84,329.99L376.96,326.93L378.01,326.32L379.07,326.39L380.12,325.02L382.24,326.28L383.29,328.26L386.46,330.98L387.52,333.64L389.63,337.14L390.68,339.25L392.8,343.3L393.85,343.37L399.13,352.15L400.19,353.11L401.24,353.31L402.3,354.74L403.35,356.24L404.41,355.8L406.52,357.09L407.58,356.89L408.63,356.75L409.69,357.5L410.75,357.87L411.8,359.64L414.97,363.05L416.02,363.01L417.08,366.72L418.14,365.36L420.25,366.45L421.3,366.11L423.42,366.66L424.47,363.9L426.58,367.54L427.64,369.52L430.81,369.89L431.86,371.42L432.92,372.34L433.98,372.17L435.03,371.29L436.09,372.31L440.31,372.27L441.37,372.31L443.48,370.95L444.53,371.12L446.65,370.77L447.7,370.26L448.76,370.16L449.81,371.01L451.93,371.01L452.98,371.05L455.09,371.86L456.15,370.77L459.32,369.58L460.37,369.62L462.48,367.68L463.54,368.49L466.71,367.85L467.76,367.61L468.82,367.78L469.88,366.55L473.04,362.43L474.1,362.88L475.16,362.16L476.21,352.97L478.32,328.7L479.38,309.23L480.43,290.68L481.49,287.51L482.55,283.43L483.6,223.99L487.83,31.18L488.88,4.05L490.99,0L492.05,9.53L494.16,54.33L495.22,78.36L496.27,89.56L497.33,91.6L502.61,224.13L503.66,234.82L504.72,238.12L505.78,261.37L508.94,300.75L510,306.57L511.06,311.71L512.11,312.33L515.28,335.64L516.34,340.65L517.39,346.27L518.45,346.91L519.5,347.76L520.56,352.6L524.78,360.97L525.84,362.91L526.89,362.78L527.95,365.4L531.12,370.84L532.17,371.05L537.45,373.84L538.51,373.74L546.96,375.57L548.01,374.66L549.07,374.55L550.12,372.99L553.29,370.09L554.35,369.75L556.46,370.54L557.52,370.33L563.85,369.41L564.91,368.39L567.02,368.15L568.07,367.44L570.19,365.84L571.24,365.84L573.35,365.77L574.41,365.63L575.47,365.23L576.52,365.91L578.63,366.04L579.69,365.5L580.75,364.44L581.8,364.68L584.97,363.32L586.02,363.42L589.19,362.78L590.25,363.15L592.36,363.49L593.42,363.35L594.47,366.89L595.53,366.11L597.64,367.51L598.7,367.1L600.81,367.06L601.86,364L603.98,364.92L605.03,364.85L609.25,364.41L610.31,365.16L613.48,364.92L614.53,365.26L616.65,364.95L617.7,364.31L619.81,363.39L620.87,362.78L624.04,362.3L625.09,361.79L628.26,360.12L629.32,360.05L633.54,358.55L634.6,361.48L636.71,358.83L637.76,359.03L638.82,356.1L639.88,355.63L640.93,355.15L641.99,351.34L643.04,351.71L644.1,351.13L645.16,350.86L646.21,356.17L647.27,351.24L648.32,350.55L649.38,349.19L650.43,352.67L651.49,351.61L652.55,351.78L653.6,344.05L654.66,345.86L656.77,342.9L657.83,337.28L658.88,337.86L659.94,337.58L660.99,335.2L662.05,335.1" style="vector-effect: non-scaling-stroke; fill: none; stroke: rgb(8, 115, 191); stroke-opacity: 1; stroke-width: 0.5px; opacity: 1;"/></g><g class="points"/><g class="text"/></g><g class="trace scatter tracef10f5c" style="stroke-miterlimit: 2;"><g class="fills"><g><path class="js-fill" d="M672.61,380L662.05,380L662.05,335.1L665.22,334.18L666.27,332.72L667.33,332.92L668.39,331.49L672.61,332" style="fill: rgb(8, 115, 191); fill-opacity: 0.4; stroke-width: 0;"/></g></g><g class="errorbars"/><g class="lines"><path class="js-line" d="M662.05,335.1L665.22,334.18L666.27,332.72L667.33,332.92L668.39,331.49L672.61,332" style="vector-effect: non-scaling-stroke; fill: none; stroke: rgb(8, 115, 191); stroke-opacity: 1; stroke-width: 2px; opacity: 1;"/></g><g class="points"/><g class="text"/></g><g class="trace scatter trace0f56e8" style="stroke-miterlimit: 2; opacity: 1;"><g class="fills"/><g class="errorbars"/><g class="lines"/><g class="points"><path class="point" transform="translate(672.61,332)" d="M15,0A15,15 0 1,1 0,-15A15,15 0 0,1 15,0Z" style="opacity: 1; stroke-width: 0px; fill: rgb(8, 115, 191); fill-opacity: 1;"/></g><g class="text"/></g></g></g><g class="overplot"/><path class="xlines-above crisp" style="fill: none; stroke-width: 1px; stroke: rgb(0, 0, 0); stroke-opacity: 0;" d=""/><path class="ylines-above crisp" style="fill: none;" d="M0,0"/><g class="overlines-above"/><g class="xaxislayer-above"><path class="xtick ticks crisp" d="M0,450v-5" transform="translate(52.11,0)" style="stroke: rgb(68, 68, 68); stroke-opacity: 1; stroke-width: 1px;"/><path class="xtick ticks crisp" d="M0,450v-5" transform="translate(149.25,0)" style="stroke: rgb(68, 68, 68); stroke-opacity: 1; stroke-width: 1px;"/><path class="xtick ticks crisp" d="M0,450v-5" transform="translate(244.29,0)" style="stroke: rgb(68, 68, 68); stroke-opacity: 1; stroke-width: 1px;"/><path class="xtick ticks crisp" d="M0,450v-5" transform="translate(340.37,0)" style="stroke: rgb(68, 68, 68); stroke-opacity: 1; stroke-width: 1px;"/><path class="xtick ticks crisp" d="M0,450v-5" transform="translate(437.52,0)" style="stroke: rgb(68, 68, 68); stroke-opacity: 1; stroke-width: 1px;"/><path class="xtick ticks crisp" d="M0,450v-5" transform="translate(534.6600000000001,0)" style="stroke: rgb(68, 68, 68); stroke-opacity: 1; stroke-width: 1px;"/><path class="xtick ticks crisp" d="M0,450v-5" transform="translate(629.69,0)" style="stroke: rgb(68, 68, 68); stroke-opacity: 1; stroke-width: 1px;"/><path class="xtick ticks crisp" d="M0,450v-5" transform="translate(725.78,0)" style="stroke: rgb(68, 68, 68); stroke-opacity: 1; stroke-width: 1px;"/><g class="xtick"><text text-anchor="middle" x="0" y="469" transform="translate(52.11,0)" style="font-family: 'Open Sans', verdana, arial, sans-serif; font-size: 18px; fill: rgb(42, 63, 95); fill-opacity: 1; white-space: pre;">01/10</text></g><g class="xtick"><text text-anchor="middle" x="0" y="469" transform="translate(149.25,0)" style="font-family: 'Open Sans', verdana, arial, sans-serif; font-size: 18px; fill: rgb(42, 63, 95); fill-opacity: 1; white-space: pre;">01/01</text></g><g class="xtick"><text text-anchor="middle" x="0" y="469" transform="translate(244.29,0)" style="font-family: 'Open Sans', verdana, arial, sans-serif; font-size: 18px; fill: rgb(42, 63, 95); fill-opacity: 1; white-space: pre;">01/04</text></g><g class="xtick"><text text-anchor="middle" x="0" y="469" transform="translate(340.37,0)" style="font-family: 'Open Sans', verdana, arial, sans-serif; font-size: 18px; fill: rgb(42, 63, 95); fill-opacity: 1; white-space: pre;">01/07</text></g><g class="xtick"><text text-anchor="middle" x="0" y="469" transform="translate(437.52,0)" style="font-family: 'Open Sans', verdana, arial, sans-serif; font-size: 18px; fill: rgb(42, 63, 95); fill-opacity: 1; white-space: pre;">01/10</text></g><g class="xtick"><text text-anchor="middle" x="0" y="469" transform="translate(534.6600000000001,0)" style="font-family: 'Open Sans', verdana, arial, sans-serif; font-size: 18px; fill: rgb(42, 63, 95); fill-opacity: 1; white-space: pre;">01/01</text></g><g class="xtick"><text text-anchor="middle" x="0" y="469" transform="translate(629.69,0)" style="font-family: 'Open Sans', verdana, arial, sans-serif; font-size: 18px; fill: rgb(42, 63, 95); fill-opacity: 1; white-space: pre;">01/04</text></g><g class="xtick"><text text-anchor="middle" x="0" y="469" transform="translate(725.78,0)" style="font-family: 'Open Sans', verdana, arial, sans-serif; font-size: 18px; fill: rgb(42, 63, 95); fill-opacity: 1; white-space: pre;">01/07</text></g></g><g class="yaxislayer-above"/><g class="overaxes-above"/></g></g><g class="polarlayer"/><g class="ternarylayer"/><g class="geolayer"/><g class="funnelarealayer"/><g class="pielayer"/><g class="treemaplayer"/><g class="sunburstlayer"/><g class="glimages"/><defs id="topdefs-b3e85f"><g class="clips"/></defs><g class="layer-above"><g class="imagelayer"/><g class="shapelayer"><path data-index="0" fill-rule="evenodd" d="M-543.42,445.05L228.45,445.05" clip-path="url('#clipb3e85fxy')" style="opacity: 1; stroke: rgb(255, 0, 0); stroke-opacity: 1; fill: rgb(0, 0, 0); fill-opacity: 0; stroke-dasharray: 3px, 3px; stroke-width: 1.5px;"/></g></g><g class="infolayer"><g class="g-gtitle"><text class="gtitle" x="375" y="25" text-anchor="middle" dy="0.7em" style="font-family: 'Open Sans', verdana, arial, sans-serif; font-size: 50px; fill: rgb(42, 63, 95); opacity: 1; font-weight: normal; white-space: pre;"><tspan style="font-weight:bold">Guyane (973)</tspan></text></g><g class="g-xtitle"/><g class="annotation" data-index="0" style="opacity: 1;"><g class="annotation-text-g" transform="rotate(0,680.61,342)"><g class="cursor-pointer" transform="translate(623, 306)"><rect class="bg" x="0.5" y="0.5" width="115" height="71" style="stroke-width: 1px; stroke: rgb(0, 0, 0); stroke-opacity: 0; fill: rgb(255, 255, 255); fill-opacity: 0.6;"/><text class="annotation-text" text-anchor="middle" x="57.8125" y="55.5" style="font-family: 'Open Sans', verdana, arial, sans-serif; font-size: 50px; fill: rgb(8, 115, 191); fill-opacity: 1; white-space: pre;"> <tspan style="font-weight:bold">485 </tspan></text></g></g><g class="annotation-arrow-g" style="opacity: 1;"><path d="M709.01,377.5L720.61,392" style="stroke-width: 1px; stroke: rgb(8, 115, 191); stroke-opacity: 1; stroke-dasharray: 0px, 0px, 18.569px, 18.569px;"/></g></g></g></svg>