<svg class="main-svg" xmlns="http://www.w3.org/2000/svg" xmlns:xlink="http://www.w3.org/1999/xlink" width="1125" height="750" style="" viewBox="0 0 750 500"><rect x="0" y="0" width="750" height="500" style="fill: rgb(0, 0, 0); fill-opacity: 0;"/><defs id="defs-322ef4"><g class="clips"><clipPath id="clip322ef4xyplot" class="plotclip"><rect width="700" height="380"/></clipPath><clipPath class="axesclip" id="clip322ef4x"><rect x="50" y="0" width="700" height="500"/></clipPath><clipPath class="axesclip" id="clip322ef4y"><rect x="0" y="70" width="750" height="380"/></clipPath><clipPath class="axesclip" id="clip322ef4xy"><rect x="50" y="70" width="700" height="380"/></clipPath></g><g class="gradients"/></defs><g class="bglayer"><rect class="bg" x="50" y="70" width="700" height="380" style="fill: rgb(0, 0, 0); fill-opacity: 0; stroke-width: 0;"/></g><g class="layer-below"><g class="imagelayer"/><g class="shapelayer"/></g><g class="cartesianlayer"><g class="subplot xy"><g class="layer-subplot"><g class="shapelayer"/><g class="imagelayer"/></g><g class="gridlayer"><g class="x"><path class="xgrid crisp" transform="translate(102.97999999999999,0)" d="M0,70v380" style="stroke: rgb(255, 255, 255); stroke-opacity: 1; stroke-width: 1px;"/><path class="xgrid crisp" transform="translate(200.92,0)" d="M0,70v380" style="stroke: rgb(255, 255, 255); stroke-opacity: 1; stroke-width: 1px;"/><path class="xgrid crisp" transform="translate(295.64,0)" d="M0,70v380" style="stroke: rgb(255, 255, 255); stroke-opacity: 1; stroke-width: 1px;"/><path class="xgrid crisp" transform="translate(393.58,0)" d="M0,70v380" style="stroke: rgb(255, 255, 255); stroke-opacity: 1; stroke-width: 1px;"/><path class="xgrid crisp" transform="translate(491.51,0)" d="M0,70v380" style="stroke: rgb(255, 255, 255); stroke-opacity: 1; stroke-width: 1px;"/><path class="xgrid crisp" transform="translate(591.06,0)" d="M0,70v380" style="stroke: rgb(255, 255, 255); stroke-opacity: 1; stroke-width: 1px;"/><path class="xgrid crisp" transform="translate(688.99,0)" d="M0,70v380" style="stroke: rgb(255, 255, 255); stroke-opacity: 1; stroke-width: 1px;"/></g><g class="y"/></g><g class="zerolinelayer"/><path class="xlines-below"/><path class="ylines-below"/><g class="overlines-below"/><g class="xaxislayer-below"/><g class="yaxislayer-below"/><g class="overaxes-below"/><g class="plot" transform="translate(50, 70)" clip-path="url('#clip322ef4xyplot')"><g class="scatterlayer mlayer"><g class="trace scatter tracef0ff62" style="stroke-miterlimit: 2;"><g class="fills"><g><path class="js-fill" d="M672.71,380L-218.35,380L-218.35,378.68L-186.24,379.32L-184.63,379.32L-158.94,379.55L-157.34,379.61L-118.81,378.68L-117.2,378.36L-93.12,377.62L-91.51,377.55L-86.7,376.75L-85.09,376.84L-81.88,376.1L-80.28,375.23L-73.85,372.88L-72.25,371.04L-64.22,367.63L-62.61,367.37L-52.98,363.99L-51.38,362.57L-43.35,350.36L-41.74,350.11L-36.93,339.57L-35.32,338.77L-32.11,338.06L-30.5,338.35L-28.9,336.19L-27.29,336.64L-25.69,334.8L-24.08,331.39L-22.48,327.94L-20.87,326.81L-19.27,326.46L-17.66,323.95L-16.06,320.53L-14.45,319.37L-11.24,314.8L-9.63,314.38L-8.03,314.6L-6.42,313.93L-4.82,312.96L-3.21,311.06L1.61,304.39L3.21,304.43L8.03,280.33L9.63,270.54L11.24,262.35L12.84,259.74L14.45,258.78L16.06,248.08L22.48,197.99L24.08,193.48L25.69,191.61L27.29,174.44L30.5,136.88L32.11,113.43L33.72,92.81L35.32,84.72L36.93,84.47L38.53,63.95L41.74,30.6L43.35,23.07L46.56,11.28L48.17,11.69L49.77,2.16L51.38,0L52.98,1.1L54.59,7.83L57.8,27.03L59.4,27.41L62.61,71.87L64.22,132.76L67.43,166.52L69.04,172.28L70.64,173.38L72.25,193.22L73.85,214.45L75.46,199.57L78.67,243.09L80.28,247.73L81.88,247.95L83.49,263.87L86.7,283.97L88.3,293.34L89.91,297.72L91.51,299.69L93.12,299.63L94.72,305.23L97.94,309.16L99.54,309.81L101.15,311L102.75,310.48L104.36,311.16L105.96,308.55L107.57,306.45L109.17,302.91L112.39,298.72L113.99,298.21L115.6,297.6L117.2,295.5L120.41,292.28L122.02,289.51L123.62,285.77L125.23,279.49L126.83,270.63L128.44,272.15L130.05,273.31L131.65,276.72L133.26,282.78L134.86,299.63L136.47,305.13L138.07,313.8L141.28,317.21L142.89,314.15L144.5,311.48L146.1,311.83L147.71,310.19L149.31,310.45L152.52,302.23L154.13,303.72L155.73,302.65L157.34,289.77L158.94,291.22L160.55,291.25L162.16,294.37L163.76,300.11L166.97,304.55L168.58,304.1L170.18,303.07L171.79,303.14L173.39,302.49L175,299.72L178.21,293.5L179.82,292.67L183.03,292.54L184.63,291.93L186.24,292.28L187.84,294.66L189.45,294.86L191.06,294.21L192.66,295.08L194.27,294.6L195.87,294.41L197.48,295.47L200.69,298.98L202.29,302.23L205.5,302.98L207.11,307.2L208.72,308.36L210.32,307.52L211.93,309L213.53,311.87L215.14,314.54L216.74,314.86L223.17,319.89L224.77,317.7L226.38,315.73L227.98,315.41L229.59,313.35L231.19,309L236.01,303.94L237.61,303.56L240.83,305.78L242.43,308.48L244.04,310.32L245.64,310.32L248.85,311.87L250.46,311.19L252.06,311.71L253.67,310.87L260.09,304.84L261.7,304.94L263.3,297.89L264.91,294.54L266.51,292.89L268.12,289.8L271.33,284.42L272.94,283.45L276.15,275.3L277.75,268.12L282.57,250.76L284.17,250.43L287.39,235.78L288.99,232.97L290.6,231.65L292.2,231.88L293.81,234.13L295.41,234.36L297.02,261.48L298.62,259.13L300.23,261.55L301.83,266.25L305.05,268.73L306.65,268.64L308.26,247.99L309.86,257.13L314.68,268.31L316.28,269.6L317.89,270.41L319.5,272.31L321.1,277.69L322.71,276.88L325.92,282.33L327.52,283.2L329.13,283.52L330.73,289.35L332.34,291.77L333.94,298.82L337.16,305.26L338.76,312.12L340.37,312.41L341.97,316.83L345.18,325.62L346.79,328.65L348.39,332.23L350,332.55L351.61,332.74L353.21,335L354.82,336.54L356.42,335.83L358.03,342.7L359.63,341.83L361.24,340.02L362.84,340.44L364.45,342.37L366.06,341.31L367.66,342.44L369.27,336.25L370.87,337.25L372.48,337.28L374.08,337.12L375.69,344.89L377.29,344.34L378.9,345.21L380.5,345.95L382.11,347.91L385.32,349.17L386.93,344.63L390.14,352.84L391.74,356.42L394.95,359.87L396.56,359.9L398.17,362.15L399.77,363.06L406.19,366.15L407.8,366.41L412.61,370.98L414.22,371.4L417.43,372.4L419.04,372.37L422.25,373.85L423.85,373.59L428.67,373.94L430.28,373.98L435.09,372.85L436.7,372.85L443.12,371.24L444.72,370.05L447.94,368.66L449.54,367.69L452.75,366.6L454.36,364.5L455.96,362.19L457.57,363.38L462.39,354.1L463.99,353.55L470.41,323.91L472.02,318.6L473.62,317.21L475.23,316.89L476.83,312.19L478.44,310.61L483.26,309.81L484.86,309.42L486.47,309.1L488.07,307.78L492.89,305.91L494.5,303.14L497.71,303.04L499.31,301.2L500.92,299.88L502.52,296.95L504.13,295.76L505.73,296.05L508.94,294.79L510.55,296.89L512.16,297.14L513.76,299.01L515.37,301.2L516.97,301.49L521.79,303.01L523.39,306.2L526.61,308.42L528.21,311.93L529.82,314.06L531.42,313.77L537.84,324.24L539.45,325.82L542.66,326.98L544.27,331.42L547.48,336.54L549.08,339.35L553.9,343.18L555.5,346.82L557.11,348.2L558.72,350.59L561.93,355.39L563.53,355.97L565.14,356.29L566.74,358.26L569.95,360.48L571.56,360.8L574.77,362.89L576.38,362.99L582.8,364.6L584.4,364.44L590.83,366.08L592.43,366.99L594.04,368.37L595.64,368.6L600.46,368.4L602.06,368.98L605.28,366.89L606.88,367.21L613.3,364.6L614.91,363.7L619.72,361.86L621.33,361.7L627.75,360.99L629.36,358.38L630.96,357.06L632.57,356.74L634.17,359.13L635.78,355.13L640.6,351.43L642.2,350.62L643.81,350.85L645.41,341.73L647.02,341.95L648.62,338.57L650.23,342.28L651.83,336.51L655.05,334.58L656.65,327.78L659.86,316.25L661.47,302.07L664.68,292.31L666.28,291.73L672.71,246.76" style="fill: rgb(8, 115, 191); fill-opacity: 0.2; stroke-width: 0;"/></g></g><g class="errorbars"/><g class="lines"><path class="js-line" d="M-218.35,378.68L-186.24,379.32L-184.63,379.32L-158.94,379.55L-157.34,379.61L-118.81,378.68L-117.2,378.36L-93.12,377.62L-91.51,377.55L-86.7,376.75L-85.09,376.84L-81.88,376.1L-80.28,375.23L-73.85,372.88L-72.25,371.04L-64.22,367.63L-62.61,367.37L-52.98,363.99L-51.38,362.57L-43.35,350.36L-41.74,350.11L-36.93,339.57L-35.32,338.77L-32.11,338.06L-30.5,338.35L-28.9,336.19L-27.29,336.64L-25.69,334.8L-24.08,331.39L-22.48,327.94L-20.87,326.81L-19.27,326.46L-17.66,323.95L-16.06,320.53L-14.45,319.37L-11.24,314.8L-9.63,314.38L-8.03,314.6L-6.42,313.93L-4.82,312.96L-3.21,311.06L1.61,304.39L3.21,304.43L8.03,280.33L9.63,270.54L11.24,262.35L12.84,259.74L14.45,258.78L16.06,248.08L22.48,197.99L24.08,193.48L25.69,191.61L27.29,174.44L30.5,136.88L32.11,113.43L33.72,92.81L35.32,84.72L36.93,84.47L38.53,63.95L41.74,30.6L43.35,23.07L46.56,11.28L48.17,11.69L49.77,2.16L51.38,0L52.98,1.1L54.59,7.83L57.8,27.03L59.4,27.41L62.61,71.87L64.22,132.76L67.43,166.52L69.04,172.28L70.64,173.38L72.25,193.22L73.85,214.45L75.46,199.57L78.67,243.09L80.28,247.73L81.88,247.95L83.49,263.87L86.7,283.97L88.3,293.34L89.91,297.72L91.51,299.69L93.12,299.63L94.72,305.23L97.94,309.16L99.54,309.81L101.15,311L102.75,310.48L104.36,311.16L105.96,308.55L107.57,306.45L109.17,302.91L112.39,298.72L113.99,298.21L115.6,297.6L117.2,295.5L120.41,292.28L122.02,289.51L123.62,285.77L125.23,279.49L126.83,270.63L128.44,272.15L130.05,273.31L131.65,276.72L133.26,282.78L134.86,299.63L136.47,305.13L138.07,313.8L141.28,317.21L142.89,314.15L144.5,311.48L146.1,311.83L147.71,310.19L149.31,310.45L152.52,302.23L154.13,303.72L155.73,302.65L157.34,289.77L158.94,291.22L160.55,291.25L162.16,294.37L163.76,300.11L166.97,304.55L168.58,304.1L170.18,303.07L171.79,303.14L173.39,302.49L175,299.72L178.21,293.5L179.82,292.67L183.03,292.54L184.63,291.93L186.24,292.28L187.84,294.66L189.45,294.86L191.06,294.21L192.66,295.08L194.27,294.6L195.87,294.41L197.48,295.47L200.69,298.98L202.29,302.23L205.5,302.98L207.11,307.2L208.72,308.36L210.32,307.52L211.93,309L213.53,311.87L215.14,314.54L216.74,314.86L223.17,319.89L224.77,317.7L226.38,315.73L227.98,315.41L229.59,313.35L231.19,309L236.01,303.94L237.61,303.56L240.83,305.78L242.43,308.48L244.04,310.32L245.64,310.32L248.85,311.87L250.46,311.19L252.06,311.71L253.67,310.87L260.09,304.84L261.7,304.94L263.3,297.89L264.91,294.54L266.51,292.89L268.12,289.8L271.33,284.42L272.94,283.45L276.15,275.3L277.75,268.12L282.57,250.76L284.17,250.43L287.39,235.78L288.99,232.97L290.6,231.65L292.2,231.88L293.81,234.13L295.41,234.36L297.02,261.48L298.62,259.13L300.23,261.55L301.83,266.25L305.05,268.73L306.65,268.64L308.26,247.99L309.86,257.13L314.68,268.31L316.28,269.6L317.89,270.41L319.5,272.31L321.1,277.69L322.71,276.88L325.92,282.33L327.52,283.2L329.13,283.52L330.73,289.35L332.34,291.77L333.94,298.82L337.16,305.26L338.76,312.12L340.37,312.41L341.97,316.83L345.18,325.62L346.79,328.65L348.39,332.23L350,332.55L351.61,332.74L353.21,335L354.82,336.54L356.42,335.83L358.03,342.7L359.63,341.83L361.24,340.02L362.84,340.44L364.45,342.37L366.06,341.31L367.66,342.44L369.27,336.25L370.87,337.25L372.48,337.28L374.08,337.12L375.69,344.89L377.29,344.34L378.9,345.21L380.5,345.95L382.11,347.91L385.32,349.17L386.93,344.63L390.14,352.84L391.74,356.42L394.95,359.87L396.56,359.9L398.17,362.15L399.77,363.06L406.19,366.15L407.8,366.41L412.61,370.98L414.22,371.4L417.43,372.4L419.04,372.37L422.25,373.85L423.85,373.59L428.67,373.94L430.28,373.98L435.09,372.85L436.7,372.85L443.12,371.24L444.72,370.05L447.94,368.66L449.54,367.69L452.75,366.6L454.36,364.5L455.96,362.19L457.57,363.38L462.39,354.1L463.99,353.55L470.41,323.91L472.02,318.6L473.62,317.21L475.23,316.89L476.83,312.19L478.44,310.61L483.26,309.81L484.86,309.42L486.47,309.1L488.07,307.78L492.89,305.91L494.5,303.14L497.71,303.04L499.31,301.2L500.92,299.88L502.52,296.95L504.13,295.76L505.73,296.05L508.94,294.79L510.55,296.89L512.16,297.14L513.76,299.01L515.37,301.2L516.97,301.49L521.79,303.01L523.39,306.2L526.61,308.42L528.21,311.93L529.82,314.06L531.42,313.77L537.84,324.24L539.45,325.82L542.66,326.98L544.27,331.42L547.48,336.54L549.08,339.35L553.9,343.18L555.5,346.82L557.11,348.2L558.72,350.59L561.93,355.39L563.53,355.97L565.14,356.29L566.74,358.26L569.95,360.48L571.56,360.8L574.77,362.89L576.38,362.99L582.8,364.6L584.4,364.44L590.83,366.08L592.43,366.99L594.04,368.37L595.64,368.6L600.46,368.4L602.06,368.98L605.28,366.89L606.88,367.21L613.3,364.6L614.91,363.7L619.72,361.86L621.33,361.7L627.75,360.99L629.36,358.38L630.96,357.06L632.57,356.74L634.17,359.13L635.78,355.13L640.6,351.43L642.2,350.62L643.81,350.85L645.41,341.73L647.02,341.95L648.62,338.57L650.23,342.28L651.83,336.51L655.05,334.58L656.65,327.78L659.86,316.25L661.47,302.07L664.68,292.31L666.28,291.73L672.71,246.76" style="vector-effect: non-scaling-stroke; fill: none; stroke: rgb(8, 115, 191); stroke-opacity: 1; stroke-width: 0.5px; opacity: 1;"/></g><g class="points"/><g class="text"/></g><g class="trace scatter tracec4b8f4" style="stroke-miterlimit: 2;"><g class="fills"><g><path class="js-fill" d="M688.76,380L672.71,380L672.71,246.76L675.92,229.08L677.52,228.11L685.55,167.9L687.16,162.68L688.76,161.23" style="fill: rgb(8, 115, 191); fill-opacity: 0.4; stroke-width: 0;"/></g></g><g class="errorbars"/><g class="lines"><path class="js-line" d="M672.71,246.76L675.92,229.08L677.52,228.11L685.55,167.9L687.16,162.68L688.76,161.23" style="vector-effect: non-scaling-stroke; fill: none; stroke: rgb(8, 115, 191); stroke-opacity: 1; stroke-width: 2px; opacity: 1;"/></g><g class="points"/><g class="text"/></g><g class="trace scatter trace3fbc0d" style="stroke-miterlimit: 2; opacity: 1;"><g class="fills"/><g class="errorbars"/><g class="lines"/><g class="points"><path class="point" transform="translate(688.76,161.23)" d="M15,0A15,15 0 1,1 0,-15A15,15 0 0,1 15,0Z" style="opacity: 1; stroke-width: 0px; fill: rgb(8, 115, 191); fill-opacity: 1;"/></g><g class="text"/></g></g></g><g class="overplot"/><path class="xlines-above crisp" style="fill: none; stroke-width: 1px; stroke: rgb(0, 0, 0); stroke-opacity: 0;" d=""/><path class="ylines-above crisp" style="fill: none;" d="M0,0"/><g class="overlines-above"/><g class="xaxislayer-above"><path class="xtick ticks crisp" d="M0,450v-5" transform="translate(102.97999999999999,0)" style="stroke: rgb(68, 68, 68); stroke-opacity: 1; stroke-width: 1px;"/><path class="xtick ticks crisp" d="M0,450v-5" transform="translate(200.92,0)" style="stroke: rgb(68, 68, 68); stroke-opacity: 1; stroke-width: 1px;"/><path class="xtick ticks crisp" d="M0,450v-5" transform="translate(295.64,0)" style="stroke: rgb(68, 68, 68); stroke-opacity: 1; stroke-width: 1px;"/><path class="xtick ticks crisp" d="M0,450v-5" transform="translate(393.58,0)" style="stroke: rgb(68, 68, 68); stroke-opacity: 1; stroke-width: 1px;"/><path class="xtick ticks crisp" d="M0,450v-5" transform="translate(491.51,0)" style="stroke: rgb(68, 68, 68); stroke-opacity: 1; stroke-width: 1px;"/><path class="xtick ticks crisp" d="M0,450v-5" transform="translate(591.06,0)" style="stroke: rgb(68, 68, 68); stroke-opacity: 1; stroke-width: 1px;"/><path class="xtick ticks crisp" d="M0,450v-5" transform="translate(688.99,0)" style="stroke: rgb(68, 68, 68); stroke-opacity: 1; stroke-width: 1px;"/><g class="xtick"><text text-anchor="middle" x="0" y="469" transform="translate(102.97999999999999,0)" style="font-family: 'Open Sans', verdana, arial, sans-serif; font-size: 18px; fill: rgb(42, 63, 95); fill-opacity: 1; white-space: pre;">01/11</text></g><g class="xtick"><text text-anchor="middle" x="0" y="469" transform="translate(200.92,0)" style="font-family: 'Open Sans', verdana, arial, sans-serif; font-size: 18px; fill: rgb(42, 63, 95); fill-opacity: 1; white-space: pre;">01/01</text></g><g class="xtick"><text text-anchor="middle" x="0" y="469" transform="translate(295.64,0)" style="font-family: 'Open Sans', verdana, arial, sans-serif; font-size: 18px; fill: rgb(42, 63, 95); fill-opacity: 1; white-space: pre;">01/03</text></g><g class="xtick"><text text-anchor="middle" x="0" y="469" transform="translate(393.58,0)" style="font-family: 'Open Sans', verdana, arial, sans-serif; font-size: 18px; fill: rgb(42, 63, 95); fill-opacity: 1; white-space: pre;">01/05</text></g><g class="xtick"><text text-anchor="middle" x="0" y="469" transform="translate(491.51,0)" style="font-family: 'Open Sans', verdana, arial, sans-serif; font-size: 18px; fill: rgb(42, 63, 95); fill-opacity: 1; white-space: pre;">01/07</text></g><g class="xtick"><text text-anchor="middle" x="0" y="469" transform="translate(591.06,0)" style="font-family: 'Open Sans', verdana, arial, sans-serif; font-size: 18px; fill: rgb(42, 63, 95); fill-opacity: 1; white-space: pre;">01/09</text></g><g class="xtick"><text text-anchor="middle" x="0" y="469" transform="translate(688.99,0)" style="font-family: 'Open Sans', verdana, arial, sans-serif; font-size: 18px; fill: rgb(42, 63, 95); fill-opacity: 1; white-space: pre;">01/11</text></g></g><g class="yaxislayer-above"/><g class="overaxes-above"/></g></g><g class="polarlayer"/><g class="ternarylayer"/><g class="geolayer"/><g class="funnelarealayer"/><g class="pielayer"/><g class="treemaplayer"/><g class="sunburstlayer"/><g class="glimages"/><defs id="topdefs-322ef4"><g class="clips"/></defs><g class="layer-above"><g class="imagelayer"/><g class="shapelayer"><path data-index="0" fill-rule="evenodd" d="M-852.29,429.62L321.33,429.62" clip-path="url('#clip322ef4xy')" style="opacity: 1; stroke: rgb(255, 0, 0); stroke-opacity: 1; fill: rgb(0, 0, 0); fill-opacity: 0; stroke-dasharray: 3px, 3px; stroke-width: 1.5px;"/></g></g><g class="infolayer"><g class="g-gtitle"><text class="gtitle" x="375" y="25" text-anchor="middle" dy="0.7em" style="font-family: 'Open Sans', verdana, arial, sans-serif; font-size: 50px; fill: rgb(42, 63, 95); opacity: 1; font-weight: normal; white-space: pre;"><tspan style="font-weight:bold">Isère (38)</tspan></text></g><g class="g-xtitle"/><g class="annotation" data-index="0" style="opacity: 1;"><g class="annotation-text-g" transform="rotate(0,696.76,171.23)"><g class="cursor-pointer" transform="translate(639, 135)"><rect class="bg" x="0.5" y="0.5" width="115" height="71" style="stroke-width: 1px; stroke: rgb(0, 0, 0); stroke-opacity: 0; fill: rgb(255, 255, 255); fill-opacity: 0.6;"/><text class="annotation-text" text-anchor="middle" x="57.8125" y="55.5" style="font-family: 'Open Sans', verdana, arial, sans-serif; font-size: 50px; fill: rgb(8, 115, 191); fill-opacity: 1; white-space: pre;"> <tspan style="font-weight:bold">536 </tspan></text></g></g><g class="annotation-arrow-g" style="opacity: 1;"><path d="M725.16,206.73L736.76,221.23" style="stroke-width: 1px; stroke: rgb(8, 115, 191); stroke-opacity: 1; stroke-dasharray: 0px, 0px, 18.5691px, 18.5691px;"/></g></g></g></svg>