<svg class="main-svg" xmlns="http://www.w3.org/2000/svg" xmlns:xlink="http://www.w3.org/1999/xlink" width="1125" height="750" style="" viewBox="0 0 750 500"><rect x="0" y="0" width="750" height="500" style="fill: rgb(0, 0, 0); fill-opacity: 0;"/><defs id="defs-611dad"><g class="clips"><clipPath id="clip611dadxyplot" class="plotclip"><rect width="700" height="380"/></clipPath><clipPath class="axesclip" id="clip611dadx"><rect x="50" y="0" width="700" height="500"/></clipPath><clipPath class="axesclip" id="clip611dady"><rect x="0" y="70" width="750" height="380"/></clipPath><clipPath class="axesclip" id="clip611dadxy"><rect x="50" y="70" width="700" height="380"/></clipPath></g><g class="gradients"/></defs><g class="bglayer"><rect class="bg" x="50" y="70" width="700" height="380" style="fill: rgb(0, 0, 0); fill-opacity: 0; stroke-width: 0;"/></g><g class="layer-below"><g class="imagelayer"/><g class="shapelayer"/></g><g class="cartesianlayer"><g class="subplot xy"><g class="layer-subplot"><g class="shapelayer"/><g class="imagelayer"/></g><g class="gridlayer"><g class="x"><path class="xgrid crisp" transform="translate(52.21,0)" d="M0,70v380" style="stroke: rgb(255, 255, 255); stroke-opacity: 1; stroke-width: 1px;"/><path class="xgrid crisp" transform="translate(153.95,0)" d="M0,70v380" style="stroke: rgb(255, 255, 255); stroke-opacity: 1; stroke-width: 1px;"/><path class="xgrid crisp" transform="translate(253.48,0)" d="M0,70v380" style="stroke: rgb(255, 255, 255); stroke-opacity: 1; stroke-width: 1px;"/><path class="xgrid crisp" transform="translate(354.11,0)" d="M0,70v380" style="stroke: rgb(255, 255, 255); stroke-opacity: 1; stroke-width: 1px;"/><path class="xgrid crisp" transform="translate(455.85,0)" d="M0,70v380" style="stroke: rgb(255, 255, 255); stroke-opacity: 1; stroke-width: 1px;"/><path class="xgrid crisp" transform="translate(557.5799999999999,0)" d="M0,70v380" style="stroke: rgb(255, 255, 255); stroke-opacity: 1; stroke-width: 1px;"/><path class="xgrid crisp" transform="translate(657.11,0)" d="M0,70v380" style="stroke: rgb(255, 255, 255); stroke-opacity: 1; stroke-width: 1px;"/></g><g class="y"/></g><g class="zerolinelayer"/><path class="xlines-below"/><path class="ylines-below"/><g class="overlines-below"/><g class="xaxislayer-below"/><g class="yaxislayer-below"/><g class="overaxes-below"/><g class="plot" transform="translate(50, 70)" clip-path="url('#clip611dadxyplot')"><g class="scatterlayer mlayer"><g class="trace scatter trace6493b6" style="stroke-miterlimit: 2;"><g class="fills"><g><path class="js-fill" d="M681.2,380L-150.39,380L-150.39,378.22L-131.6,379.97L-130.49,379.94L-54.19,378.7L-53.08,378.67L-40.92,377.68L-39.81,377.26L-27.65,374.51L-26.54,374.79L-22.12,375.45L-21.01,375.48L-16.59,374.39L-15.48,374.03L-9.95,373.31L-8.85,373.28L-6.64,372.61L-5.53,372.61L-3.32,372.64L-2.21,372.19L-1.11,371.47L0,371.77L3.32,371.29L4.42,369.9L9.95,368.3L11.06,366.77L12.16,366.68L13.27,365.71L15.48,364.78L16.59,364.39L17.69,364.23L18.8,362.31L23.22,352.57L24.33,352.12L25.43,352.12L26.54,348.41L27.65,347.56L28.75,345.36L30.96,342.8L32.07,343.4L34.28,343.25L35.39,341.96L37.6,343.13L38.7,343.83L40.92,342.74L42.02,345.58L43.13,348.14L44.23,353.86L45.34,354.83L46.45,358.81L48.66,360.13L49.76,363.9L50.87,366.98L51.97,365.74L54.19,369.75L55.29,370.26L56.4,370.44L57.5,372.31L60.82,374.09L61.93,374.42L64.14,374.6L65.24,374L71.88,373.1L72.99,373.4L76.3,373.19L77.41,373.46L84.04,372.52L85.15,371.65L88.47,370.66L89.57,369.03L91.79,367.61L92.89,369.72L97.31,368.21L98.42,365.59L100.63,365.65L101.74,364.99L102.84,365.2L103.95,362.79L105.06,362.7L106.16,364.51L107.27,363.45L108.37,360.56L111.69,361.67L112.8,362.85L113.9,360.92L115.01,361.1L118.33,361.76L119.43,361.01L120.54,359.62L121.64,360.68L133.81,356.88L134.91,357L137.12,358.42L138.23,358.45L141.55,358.99L142.65,360.8L147.08,362.67L148.18,362.79L150.39,363.03L151.5,364.39L153.71,366.47L154.82,367.22L158.14,368.94L159.24,368.33L166.98,368.45L168.09,369.03L174.72,370.32L175.83,369.69L180.25,368.79L181.36,367.1L183.57,366.1L184.68,365.77L187.99,364.93L189.1,364.14L191.31,362.55L192.42,361.52L194.63,359.14L195.73,359.17L200.16,352.93L201.26,352.6L203.48,351.85L204.58,357.69L205.69,355.91L206.79,355.91L207.9,356.55L209,356.19L211.22,356.97L212.32,351.54L214.53,355.79L215.64,356.34L217.85,357.3L218.96,357.15L221.17,356.34L222.27,355.61L225.59,354.26L226.7,354.38L232.23,359.5L233.33,361.58L234.44,361.64L235.55,362.91L239.97,366.22L241.07,366.25L242.18,366.1L243.29,366.98L244.39,368.06L245.5,367.82L247.71,370.66L248.82,369.87L249.92,370.02L251.03,371.41L252.13,371.38L253.24,372.22L254.34,371.2L255.45,371.83L257.66,372.28L258.77,373.76L259.87,372.8L260.98,373.37L265.4,373.37L266.51,371.86L267.61,373.52L268.72,373.55L273.14,374.48L274.25,375.54L283.1,378.13L284.2,378.16L287.52,378.58L288.63,378.58L290.84,378.79L291.94,378.61L304.11,378.46L305.21,377.74L308.53,375.87L309.64,375L311.85,374.42L312.95,372.67L314.06,370.87L315.17,371.35L318.48,362.73L319.59,362.64L322.91,342.17L324.01,338.97L326.22,331.74L327.33,331.32L329.54,326.01L330.65,326.4L332.86,326.61L333.97,327.76L335.07,327.58L336.18,329.72L338.39,332.13L339.49,331.44L341.71,331.8L342.81,331.8L343.92,330.74L345.02,331.77L347.24,334.18L348.34,336.2L350.55,335.54L351.66,338.07L353.87,338.58L354.98,339.88L358.29,343.59L359.4,346.9L363.82,355.64L364.93,355.49L366.03,355.64L367.14,357.33L372.67,362.46L373.78,362.55L379.3,367.58L380.41,368.27L381.52,368.15L382.62,369.6L383.73,370.75L384.83,370.69L392.58,373.88L393.68,373.28L397,373.49L398.1,372.34L400.32,372.1L401.42,372.4L403.63,372.46L404.74,372.58L406.95,374.18L408.06,373.94L413.59,374.66L414.69,374.42L421.33,375.69L422.43,375.18L429.07,373.19L430.17,373.61L434.6,374.15L435.7,374.15L436.81,375.9L437.91,375.51L443.44,374.72L444.55,372.52L446.76,371.8L447.87,372.8L448.97,371.14L450.08,371.35L451.18,371.2L452.29,370.08L454.5,368.36L455.61,365.38L456.71,365.14L457.82,363.93L460.03,363.3L461.14,361.64L465.56,356.19L466.67,356.01L468.88,348.38L469.98,344.94L472.2,338.91L473.3,336.56L474.41,336.2L475.51,331.59L477.73,325.14L478.83,324.72L479.94,321.88L481.04,321.85L482.15,321.52L483.25,318.96L484.36,317.03L485.47,317.12L486.57,316.58L487.68,317.45L488.78,315.97L489.89,315.88L491,317.18L492.1,317.27L493.21,313.92L494.31,307.17L495.42,303.28L496.52,307.59L497.63,306.33L498.74,286.55L503.16,231.75L504.27,231L505.37,229.28L506.48,199.31L508.69,172.67L509.79,165.46L510.9,157.66L512.01,137.28L513.11,138.15L514.22,140.92L515.32,146.38L516.43,140.17L517.54,138.03L518.64,131.79L520.85,122.93L521.96,107.74L527.49,28L528.59,25.23L530.81,4.13L531.91,0L533.02,0.18L534.12,5.43L535.23,7.23L536.33,6.84L538.55,29.81L539.65,44.82L542.97,82.69L544.08,86.82L546.29,126.82L547.39,139.75L550.71,170.56L551.82,172.88L554.03,207L555.13,221.23L557.35,243.63L558.45,248.66L559.56,251.43L560.66,263.13L565.09,290.47L566.19,296.2L567.3,296.14L568.4,305.21L572.83,317.09L573.93,318.32L576.15,318.75L577.25,320.92L578.36,320.46L579.46,320.83L580.57,319.17L581.67,318.93L582.78,318.6L583.89,316.43L587.2,306.12L588.31,305.45L589.42,302.08L590.52,301.93L596.05,258.7L597.16,251.62L598.26,250.95L599.37,237.15L601.58,228.65L602.69,226.96L603.79,226.69L604.9,231.06L606,231.21L607.11,236.36L609.32,242.36L610.43,242.42L611.53,241.37L612.64,238.11L613.74,237.99L614.85,234.25L617.06,230.91L618.17,230.39L620.38,234.19L621.48,233.74L622.59,268.38L623.7,252.82L627.01,265.93L628.12,270.85L629.23,272.35L630.33,254.6L631.44,282.81L632.54,290.17L634.76,303.22L635.86,305.6L636.97,305.78L638.07,314.65L639.18,317.63L640.28,323.06L643.6,335.96L644.71,336.56L646.92,342.86L648.03,343.83L650.24,345.09L651.34,345.33L652.45,345.67L653.55,347.66L656.87,351.63L657.98,352.42L661.3,353.74L662.4,354.89L663.51,356.07L664.61,359.35L667.93,359.11L669.04,359.53L671.25,358.63L672.35,355.16L675.67,355.37L676.78,359.44L677.88,355.25L678.99,354.17L680.09,353.74L681.2,351.94" style="fill: rgb(8, 115, 191); fill-opacity: 0.2; stroke-width: 0;"/></g></g><g class="errorbars"/><g class="lines"><path class="js-line" d="M-150.39,378.22L-131.6,379.97L-130.49,379.94L-54.19,378.7L-53.08,378.67L-40.92,377.68L-39.81,377.26L-27.65,374.51L-26.54,374.79L-22.12,375.45L-21.01,375.48L-16.59,374.39L-15.48,374.03L-9.95,373.31L-8.85,373.28L-6.64,372.61L-5.53,372.61L-3.32,372.64L-2.21,372.19L-1.11,371.47L0,371.77L3.32,371.29L4.42,369.9L9.95,368.3L11.06,366.77L12.16,366.68L13.27,365.71L15.48,364.78L16.59,364.39L17.69,364.23L18.8,362.31L23.22,352.57L24.33,352.12L25.43,352.12L26.54,348.41L27.65,347.56L28.75,345.36L30.96,342.8L32.07,343.4L34.28,343.25L35.39,341.96L37.6,343.13L38.7,343.83L40.92,342.74L42.02,345.58L43.13,348.14L44.23,353.86L45.34,354.83L46.45,358.81L48.66,360.13L49.76,363.9L50.87,366.98L51.97,365.74L54.19,369.75L55.29,370.26L56.4,370.44L57.5,372.31L60.82,374.09L61.93,374.42L64.14,374.6L65.24,374L71.88,373.1L72.99,373.4L76.3,373.19L77.41,373.46L84.04,372.52L85.15,371.65L88.47,370.66L89.57,369.03L91.79,367.61L92.89,369.72L97.31,368.21L98.42,365.59L100.63,365.65L101.74,364.99L102.84,365.2L103.95,362.79L105.06,362.7L106.16,364.51L107.27,363.45L108.37,360.56L111.69,361.67L112.8,362.85L113.9,360.92L115.01,361.1L118.33,361.76L119.43,361.01L120.54,359.62L121.64,360.68L133.81,356.88L134.91,357L137.12,358.42L138.23,358.45L141.55,358.99L142.65,360.8L147.08,362.67L148.18,362.79L150.39,363.03L151.5,364.39L153.71,366.47L154.82,367.22L158.14,368.94L159.24,368.33L166.98,368.45L168.09,369.03L174.72,370.32L175.83,369.69L180.25,368.79L181.36,367.1L183.57,366.1L184.68,365.77L187.99,364.93L189.1,364.14L191.31,362.55L192.42,361.52L194.63,359.14L195.73,359.17L200.16,352.93L201.26,352.6L203.48,351.85L204.58,357.69L205.69,355.91L206.79,355.91L207.9,356.55L209,356.19L211.22,356.97L212.32,351.54L214.53,355.79L215.64,356.34L217.85,357.3L218.96,357.15L221.17,356.34L222.27,355.61L225.59,354.26L226.7,354.38L232.23,359.5L233.33,361.58L234.44,361.64L235.55,362.91L239.97,366.22L241.07,366.25L242.18,366.1L243.29,366.98L244.39,368.06L245.5,367.82L247.71,370.66L248.82,369.87L249.92,370.02L251.03,371.41L252.13,371.38L253.24,372.22L254.34,371.2L255.45,371.83L257.66,372.28L258.77,373.76L259.87,372.8L260.98,373.37L265.4,373.37L266.51,371.86L267.61,373.52L268.72,373.55L273.14,374.48L274.25,375.54L283.1,378.13L284.2,378.16L287.52,378.58L288.63,378.58L290.84,378.79L291.94,378.61L304.11,378.46L305.21,377.74L308.53,375.87L309.64,375L311.85,374.42L312.95,372.67L314.06,370.87L315.17,371.35L318.48,362.73L319.59,362.64L322.91,342.17L324.01,338.97L326.22,331.74L327.33,331.32L329.54,326.01L330.65,326.4L332.86,326.61L333.97,327.76L335.07,327.58L336.18,329.72L338.39,332.13L339.49,331.44L341.71,331.8L342.81,331.8L343.92,330.74L345.02,331.77L347.24,334.18L348.34,336.2L350.55,335.54L351.66,338.07L353.87,338.58L354.98,339.88L358.29,343.59L359.4,346.9L363.82,355.64L364.93,355.49L366.03,355.64L367.14,357.33L372.67,362.46L373.78,362.55L379.3,367.58L380.41,368.27L381.52,368.15L382.62,369.6L383.73,370.75L384.83,370.69L392.58,373.88L393.68,373.28L397,373.49L398.1,372.34L400.32,372.1L401.42,372.4L403.63,372.46L404.74,372.58L406.95,374.18L408.06,373.94L413.59,374.66L414.69,374.42L421.33,375.69L422.43,375.18L429.07,373.19L430.17,373.61L434.6,374.15L435.7,374.15L436.81,375.9L437.91,375.51L443.44,374.72L444.55,372.52L446.76,371.8L447.87,372.8L448.97,371.14L450.08,371.35L451.18,371.2L452.29,370.08L454.5,368.36L455.61,365.38L456.71,365.14L457.82,363.93L460.03,363.3L461.14,361.64L465.56,356.19L466.67,356.01L468.88,348.38L469.98,344.94L472.2,338.91L473.3,336.56L474.41,336.2L475.51,331.59L477.73,325.14L478.83,324.72L479.94,321.88L481.04,321.85L482.15,321.52L483.25,318.96L484.36,317.03L485.47,317.12L486.57,316.58L487.68,317.45L488.78,315.97L489.89,315.88L491,317.18L492.1,317.27L493.21,313.92L494.31,307.17L495.42,303.28L496.52,307.59L497.63,306.33L498.74,286.55L503.16,231.75L504.27,231L505.37,229.28L506.48,199.31L508.69,172.67L509.79,165.46L510.9,157.66L512.01,137.28L513.11,138.15L514.22,140.92L515.32,146.38L516.43,140.17L517.54,138.03L518.64,131.79L520.85,122.93L521.96,107.74L527.49,28L528.59,25.23L530.81,4.13L531.91,0L533.02,0.18L534.12,5.43L535.23,7.23L536.33,6.84L538.55,29.81L539.65,44.82L542.97,82.69L544.08,86.82L546.29,126.82L547.39,139.75L550.71,170.56L551.82,172.88L554.03,207L555.13,221.23L557.35,243.63L558.45,248.66L559.56,251.43L560.66,263.13L565.09,290.47L566.19,296.2L567.3,296.14L568.4,305.21L572.83,317.09L573.93,318.32L576.15,318.75L577.25,320.92L578.36,320.46L579.46,320.83L580.57,319.17L581.67,318.93L582.78,318.6L583.89,316.43L587.2,306.12L588.31,305.45L589.42,302.08L590.52,301.93L596.05,258.7L597.16,251.62L598.26,250.95L599.37,237.15L601.58,228.65L602.69,226.96L603.79,226.69L604.9,231.06L606,231.21L607.11,236.36L609.32,242.36L610.43,242.42L611.53,241.37L612.64,238.11L613.74,237.99L614.85,234.25L617.06,230.91L618.17,230.39L620.38,234.19L621.48,233.74L622.59,268.38L623.7,252.82L627.01,265.93L628.12,270.85L629.23,272.35L630.33,254.6L631.44,282.81L632.54,290.17L634.76,303.22L635.86,305.6L636.97,305.78L638.07,314.65L639.18,317.63L640.28,323.06L643.6,335.96L644.71,336.56L646.92,342.86L648.03,343.83L650.24,345.09L651.34,345.33L652.45,345.67L653.55,347.66L656.87,351.63L657.98,352.42L661.3,353.74L662.4,354.89L663.51,356.07L664.61,359.35L667.93,359.11L669.04,359.53L671.25,358.63L672.35,355.16L675.67,355.37L676.78,359.44L677.88,355.25L678.99,354.17L680.09,353.74L681.2,351.94" style="vector-effect: non-scaling-stroke; fill: none; stroke: rgb(8, 115, 191); stroke-opacity: 1; stroke-width: 0.5px; opacity: 1;"/></g><g class="points"/><g class="text"/></g><g class="trace scatter tracec2685f" style="stroke-miterlimit: 2;"><g class="fills"><g><path class="js-fill" d="M692.26,380L681.2,380L681.2,351.94L682.31,350.64L683.41,350.52L684.52,342.92L685.62,343.4L687.84,338.55L688.94,337.86L691.15,335.69L692.26,329.15" style="fill: rgb(8, 115, 191); fill-opacity: 0.4; stroke-width: 0;"/></g></g><g class="errorbars"/><g class="lines"><path class="js-line" d="M681.2,351.94L682.31,350.64L683.41,350.52L684.52,342.92L685.62,343.4L687.84,338.55L688.94,337.86L691.15,335.69L692.26,329.15" style="vector-effect: non-scaling-stroke; fill: none; stroke: rgb(8, 115, 191); stroke-opacity: 1; stroke-width: 2px; opacity: 1;"/></g><g class="points"/><g class="text"/></g><g class="trace scatter tracefc44c8" style="stroke-miterlimit: 2; opacity: 1;"><g class="fills"/><g class="errorbars"/><g class="lines"/><g class="points"><path class="point" transform="translate(692.26,329.15)" d="M15,0A15,15 0 1,1 0,-15A15,15 0 0,1 15,0Z" style="opacity: 1; stroke-width: 0px; fill: rgb(8, 115, 191); fill-opacity: 1;"/></g><g class="text"/></g></g></g><g class="overplot"/><path class="xlines-above crisp" style="fill: none; stroke-width: 1px; stroke: rgb(0, 0, 0); stroke-opacity: 0;" d=""/><path class="ylines-above crisp" style="fill: none;" d="M0,0"/><g class="overlines-above"/><g class="xaxislayer-above"><path class="xtick ticks crisp" d="M0,450v-5" transform="translate(52.21,0)" style="stroke: rgb(68, 68, 68); stroke-opacity: 1; stroke-width: 1px;"/><path class="xtick ticks crisp" d="M0,450v-5" transform="translate(153.95,0)" style="stroke: rgb(68, 68, 68); stroke-opacity: 1; stroke-width: 1px;"/><path class="xtick ticks crisp" d="M0,450v-5" transform="translate(253.48,0)" style="stroke: rgb(68, 68, 68); stroke-opacity: 1; stroke-width: 1px;"/><path class="xtick ticks crisp" d="M0,450v-5" transform="translate(354.11,0)" style="stroke: rgb(68, 68, 68); stroke-opacity: 1; stroke-width: 1px;"/><path class="xtick ticks crisp" d="M0,450v-5" transform="translate(455.85,0)" style="stroke: rgb(68, 68, 68); stroke-opacity: 1; stroke-width: 1px;"/><path class="xtick ticks crisp" d="M0,450v-5" transform="translate(557.5799999999999,0)" style="stroke: rgb(68, 68, 68); stroke-opacity: 1; stroke-width: 1px;"/><path class="xtick ticks crisp" d="M0,450v-5" transform="translate(657.11,0)" style="stroke: rgb(68, 68, 68); stroke-opacity: 1; stroke-width: 1px;"/><g class="xtick"><text text-anchor="middle" x="0" y="469" transform="translate(52.21,0)" style="font-family: 'Open Sans', verdana, arial, sans-serif; font-size: 18px; fill: rgb(42, 63, 95); fill-opacity: 1; white-space: pre;">01/10</text></g><g class="xtick"><text text-anchor="middle" x="0" y="469" transform="translate(153.95,0)" style="font-family: 'Open Sans', verdana, arial, sans-serif; font-size: 18px; fill: rgb(42, 63, 95); fill-opacity: 1; white-space: pre;">01/01</text></g><g class="xtick"><text text-anchor="middle" x="0" y="469" transform="translate(253.48,0)" style="font-family: 'Open Sans', verdana, arial, sans-serif; font-size: 18px; fill: rgb(42, 63, 95); fill-opacity: 1; white-space: pre;">01/04</text></g><g class="xtick"><text text-anchor="middle" x="0" y="469" transform="translate(354.11,0)" style="font-family: 'Open Sans', verdana, arial, sans-serif; font-size: 18px; fill: rgb(42, 63, 95); fill-opacity: 1; white-space: pre;">01/07</text></g><g class="xtick"><text text-anchor="middle" x="0" y="469" transform="translate(455.85,0)" style="font-family: 'Open Sans', verdana, arial, sans-serif; font-size: 18px; fill: rgb(42, 63, 95); fill-opacity: 1; white-space: pre;">01/10</text></g><g class="xtick"><text text-anchor="middle" x="0" y="469" transform="translate(557.5799999999999,0)" style="font-family: 'Open Sans', verdana, arial, sans-serif; font-size: 18px; fill: rgb(42, 63, 95); fill-opacity: 1; white-space: pre;">01/01</text></g><g class="xtick"><text text-anchor="middle" x="0" y="469" transform="translate(657.11,0)" style="font-family: 'Open Sans', verdana, arial, sans-serif; font-size: 18px; fill: rgb(42, 63, 95); fill-opacity: 1; white-space: pre;">01/04</text></g></g><g class="yaxislayer-above"/><g class="overaxes-above"/></g></g><g class="polarlayer"/><g class="ternarylayer"/><g class="geolayer"/><g class="funnelarealayer"/><g class="pielayer"/><g class="treemaplayer"/><g class="sunburstlayer"/><g class="glimages"/><defs id="topdefs-611dad"><g class="clips"/></defs><g class="layer-above"><g class="imagelayer"/><g class="shapelayer"><path data-index="0" fill-rule="evenodd" d="M-571.48,444.38L236.89,444.38" clip-path="url('#clip611dadxy')" style="opacity: 1; stroke: rgb(255, 0, 0); stroke-opacity: 1; fill: rgb(0, 0, 0); fill-opacity: 0; stroke-dasharray: 3px, 3px; stroke-width: 1.5px;"/></g></g><g class="infolayer"><g class="g-gtitle"><text class="gtitle" x="375" y="25" text-anchor="middle" dy="0.7em" style="font-family: 'Open Sans', verdana, arial, sans-serif; font-size: 50px; fill: rgb(42, 63, 95); opacity: 1; font-weight: normal; white-space: pre;"><tspan style="font-weight:bold">Aude (11)</tspan></text></g><g class="g-xtitle"/><g class="annotation" data-index="0" style="opacity: 1;"><g class="annotation-text-g" transform="rotate(0,700.26,339.15)"><g class="cursor-pointer" transform="translate(642, 303)"><rect class="bg" x="0.5" y="0.5" width="115" height="71" style="stroke-width: 1px; stroke: rgb(0, 0, 0); stroke-opacity: 0; fill: rgb(255, 255, 255); fill-opacity: 0.6;"/><text class="annotation-text" text-anchor="middle" x="57.8125" y="55.5" style="font-family: 'Open Sans', verdana, arial, sans-serif; font-size: 50px; fill: rgb(8, 115, 191); fill-opacity: 1; white-space: pre;"> <tspan style="font-weight:bold">452 </tspan></text></g></g><g class="annotation-arrow-g" style="opacity: 1;"><path d="M728.66,374.65L740.26,389.15" style="stroke-width: 1px; stroke: rgb(8, 115, 191); stroke-opacity: 1; stroke-dasharray: 0px, 0px, 18.5691px, 18.5691px;"/></g></g></g></svg>