<svg class="main-svg" xmlns="http://www.w3.org/2000/svg" xmlns:xlink="http://www.w3.org/1999/xlink" width="1125" height="750" style="" viewBox="0 0 750 500"><rect x="0" y="0" width="750" height="500" style="fill: rgb(0, 0, 0); fill-opacity: 0;"/><defs id="defs-344299"><g class="clips"><clipPath id="clip344299xyplot" class="plotclip"><rect width="700" height="380"/></clipPath><clipPath class="axesclip" id="clip344299x"><rect x="50" y="0" width="700" height="500"/></clipPath><clipPath class="axesclip" id="clip344299y"><rect x="0" y="70" width="750" height="380"/></clipPath><clipPath class="axesclip" id="clip344299xy"><rect x="50" y="70" width="700" height="380"/></clipPath></g><g class="gradients"/></defs><g class="bglayer"><rect class="bg" x="50" y="70" width="700" height="380" style="fill: rgb(0, 0, 0); fill-opacity: 0; stroke-width: 0;"/></g><g class="layer-below"><g class="imagelayer"/><g class="shapelayer"/></g><g class="cartesianlayer"><g class="subplot xy"><g class="layer-subplot"><g class="shapelayer"/><g class="imagelayer"/></g><g class="gridlayer"><g class="x"><path class="xgrid crisp" transform="translate(105.93,0)" d="M0,70v380" style="stroke: rgb(255, 255, 255); stroke-opacity: 1; stroke-width: 1px;"/><path class="xgrid crisp" transform="translate(209.32,0)" d="M0,70v380" style="stroke: rgb(255, 255, 255); stroke-opacity: 1; stroke-width: 1px;"/><path class="xgrid crisp" transform="translate(309.32,0)" d="M0,70v380" style="stroke: rgb(255, 255, 255); stroke-opacity: 1; stroke-width: 1px;"/><path class="xgrid crisp" transform="translate(412.71,0)" d="M0,70v380" style="stroke: rgb(255, 255, 255); stroke-opacity: 1; stroke-width: 1px;"/><path class="xgrid crisp" transform="translate(516.1,0)" d="M0,70v380" style="stroke: rgb(255, 255, 255); stroke-opacity: 1; stroke-width: 1px;"/><path class="xgrid crisp" transform="translate(621.19,0)" d="M0,70v380" style="stroke: rgb(255, 255, 255); stroke-opacity: 1; stroke-width: 1px;"/><path class="xgrid crisp" transform="translate(724.58,0)" d="M0,70v380" style="stroke: rgb(255, 255, 255); stroke-opacity: 1; stroke-width: 1px;"/></g><g class="y"/></g><g class="zerolinelayer"/><path class="xlines-below"/><path class="ylines-below"/><g class="overlines-below"/><g class="xaxislayer-below"/><g class="yaxislayer-below"/><g class="overaxes-below"/><g class="plot" transform="translate(50, 70)" clip-path="url('#clip344299xyplot')"><g class="scatterlayer mlayer"><g class="trace scatter trace837c65" style="stroke-miterlimit: 2;"><g class="fills"><g><path class="js-fill" d="M671.19,380L-230.51,380L-230.51,378.03L-220.34,378.03L-218.64,378.03L-211.86,379.01L-210.17,379.01L-115.25,378.03L-113.56,377.54L-110.17,375.07L-108.47,375.56L-105.08,374.09L-103.39,374.09L-101.69,373.59L-100,376.06L-96.61,374.58L-94.92,372.11L-89.83,367.19L-88.14,362.26L-83.05,354.86L-81.36,356.34L-77.97,358.81L-76.27,357.33L-72.88,353.88L-71.19,354.86L-67.8,353.39L-66.1,343.04L-57.63,334.16L-55.93,334.66L-54.24,340.08L-52.54,341.06L-49.15,344.51L-47.46,344.51L-44.07,345.5L-42.37,341.56L-37.29,345.01L-35.59,345.5L-33.9,339.09L-32.2,338.6L-28.81,333.67L-27.12,328.74L-25.42,329.23L-23.73,328.25L-22.03,332.68L-20.34,332.19L-18.64,333.67L-16.95,329.23L-15.25,325.29L-13.56,317.41L-11.86,317.9L-10.17,316.91L-8.47,317.9L-6.78,320.86L-5.08,324.31L-3.39,331.21L-1.69,334.66L0,334.16L1.69,335.64L3.39,334.16L6.78,328.74L8.47,319.87L10.17,316.42L11.86,308.04L13.56,302.62L15.25,301.14L16.95,292.76L18.64,278.96L20.34,265.65L22.03,244.46L23.73,240.03L25.42,242.49L27.12,242.49L28.81,241.5L30.51,235.59L32.2,219.33L37.29,143.42L38.98,141.95L40.68,88.22L42.37,76.39L44.07,71.47L45.76,86.74L47.46,85.27L49.15,96.11L52.54,83.29L54.24,54.71L57.63,13.31L59.32,5.91L61.02,0L62.71,2.96L64.41,13.31L66.1,30.56L67.8,93.64L69.49,125.19L72.88,152.79L74.58,153.77L77.97,202.08L79.66,184.82L81.36,185.32L83.05,210.95L84.75,206.02L86.44,208.98L89.83,244.95L91.53,250.87L93.22,262.7L94.92,264.67L96.61,268.61L98.31,270.09L100,279.46L101.69,281.92L103.39,293.75L105.08,299.17L106.78,298.68L108.47,305.08L111.86,302.62L113.56,309.03L116.95,304.1L118.64,312.97L120.34,312.48L122.03,315.43L125.42,319.87L127.12,319.87L130.51,318.88L132.2,319.87L135.59,309.52L137.29,293.26L138.98,289.31L140.68,291.78L142.37,298.68L144.07,290.79L145.76,293.26L147.46,280.93L150.85,236.58L152.54,223.76L154.24,223.76L155.93,216.86L159.32,205.53L161.02,225.73L162.71,237.56L164.41,236.08L166.1,214.4L167.8,218.34L169.49,222.28L171.19,229.68L174.58,234.6L176.27,233.13L177.97,229.68L179.66,229.18L181.36,228.2L183.05,217.35L184.75,213.9L186.44,212.92L188.14,212.43L189.83,199.12L191.53,193.7L193.22,193.7L194.92,177.92L196.61,179.9L198.31,175.46L200,175.95L203.39,185.81L205.08,187.78L206.78,216.86L208.47,215.88L211.86,202.08L213.56,204.54L215.25,206.51L216.95,207L218.64,190.25L220.34,189.26L222.03,197.15L223.73,199.12L225.42,203.06L227.12,203.55L228.81,202.57L230.51,212.43L233.9,207.99L235.59,216.86L237.29,221.79L238.98,217.85L240.68,219.33L242.37,217.85L244.07,219.82L245.76,215.38L249.15,202.57L250.85,203.06L252.54,202.08L254.24,198.63L255.93,202.57L257.63,203.06L259.32,211.44L261.02,213.41L264.41,216.86L266.1,220.31L269.49,231.65L271.19,227.21L274.58,231.15L276.27,232.63L277.97,234.11L279.66,219.33L281.36,208.48L283.05,192.22L286.44,162.65L288.14,158.7L291.53,120.75L293.22,99.56L294.92,87.24L296.61,68.02L300,68.02L301.69,54.71L303.39,40.91L305.08,51.75L306.78,48.79L308.47,61.12L310.17,68.02L311.86,67.03L313.56,128.64L315.25,130.61L316.95,127.16L318.64,149.34L320.34,152.79L322.03,145.89L323.73,147.37L325.42,95.12L328.81,153.77L330.51,150.32L332.2,164.12L333.9,162.65L335.59,165.11L337.29,186.8L338.98,183.35L340.68,184.33L342.37,196.16L344.07,193.7L345.76,204.54L347.46,203.06L349.15,200.6L350.85,209.47L352.54,208.48L354.24,209.47L357.63,231.65L359.32,232.63L361.02,236.08L362.71,230.66L367.8,247.91L369.49,248.9L371.19,248.4L372.88,260.73L376.27,278.47L377.97,301.14L379.66,304.59L381.36,302.13L383.05,302.13L384.75,305.08L386.44,304.1L388.14,299.66L389.83,287.83L391.53,289.31L393.22,284.88L394.92,286.85L396.61,305.08L398.31,298.18L400,305.08L401.69,306.07L406.78,311L408.47,301.63L410.17,321.35L411.86,326.77L415.25,345.01L416.95,350.43L418.64,350.43L420.34,358.31L423.73,362.75L425.42,361.27L428.81,366.2L430.51,366.2L433.9,370.14L435.59,371.13L437.29,373.59L438.98,374.58L442.37,374.09L444.07,375.56L445.76,374.58L447.46,375.07L449.15,375.56L450.85,375.07L454.24,374.58L455.93,373.1L457.63,374.58L459.32,373.1L462.71,372.61L464.41,371.13L466.1,371.13L467.8,372.61L469.49,371.13L471.19,371.13L472.88,368.66L474.58,368.17L476.27,370.14L477.97,369.65L479.66,367.68L481.36,363.24L483.05,364.23L484.75,358.31L488.14,334.66L489.83,331.7L496.61,213.41L498.31,191.23L500,179.4L501.69,175.46L503.39,152.3L505.08,148.35L506.78,140.96L508.47,141.95L511.86,125.19L513.56,126.67L515.25,124.7L516.95,125.68L518.64,125.68L520.34,117.3L522.03,110.4L523.73,121.74L525.42,120.26L527.12,123.71L530.51,102.02L532.2,98.08L533.9,107.44L535.59,89.21L538.98,87.24L540.68,83.79L542.37,91.67L544.07,95.62L545.76,89.7L547.46,98.08L549.15,102.02L550.85,88.72L552.54,109.42L554.24,119.77L555.93,127.65L557.63,142.44L559.32,148.35L561.02,150.32L562.71,187.29L564.41,187.29L566.1,187.78L567.8,193.7L571.19,201.58L572.88,200.6L574.58,202.08L576.27,205.03L577.97,212.43L579.66,224.75L581.36,242.98L583.05,247.91L584.75,249.88L586.44,261.71L588.14,267.63L589.83,279.46L593.22,284.88L594.92,292.27L596.61,293.75L598.31,298.68L600,313.96L601.69,314.45L603.39,316.91L605.08,315.43L606.78,309.52L608.47,309.03L610.17,308.53L611.86,305.08L613.56,311L615.25,311.49L616.95,316.42L618.64,324.31L620.34,321.35L622.03,327.26L623.73,333.18L625.42,333.67L628.81,338.11L630.51,338.6L632.2,342.54L633.9,342.05L637.29,338.11L638.98,334.66L640.68,336.63L642.37,336.63L644.07,336.63L645.76,339.58L647.46,341.56L649.15,341.06L650.85,339.58L652.54,334.66L654.24,336.13L655.93,333.18L657.63,329.23L659.32,321.35L661.02,314.94L662.71,321.84L664.41,320.36L666.1,316.91L667.8,320.36L669.49,331.21L671.19,334.66" style="fill: rgb(8, 115, 191); fill-opacity: 0.2; stroke-width: 0;"/></g></g><g class="errorbars"/><g class="lines"><path class="js-line" d="M-230.51,378.03L-220.34,378.03L-218.64,378.03L-211.86,379.01L-210.17,379.01L-115.25,378.03L-113.56,377.54L-110.17,375.07L-108.47,375.56L-105.08,374.09L-103.39,374.09L-101.69,373.59L-100,376.06L-96.61,374.58L-94.92,372.11L-89.83,367.19L-88.14,362.26L-83.05,354.86L-81.36,356.34L-77.97,358.81L-76.27,357.33L-72.88,353.88L-71.19,354.86L-67.8,353.39L-66.1,343.04L-57.63,334.16L-55.93,334.66L-54.24,340.08L-52.54,341.06L-49.15,344.51L-47.46,344.51L-44.07,345.5L-42.37,341.56L-37.29,345.01L-35.59,345.5L-33.9,339.09L-32.2,338.6L-28.81,333.67L-27.12,328.74L-25.42,329.23L-23.73,328.25L-22.03,332.68L-20.34,332.19L-18.64,333.67L-16.95,329.23L-15.25,325.29L-13.56,317.41L-11.86,317.9L-10.17,316.91L-8.47,317.9L-6.78,320.86L-5.08,324.31L-3.39,331.21L-1.69,334.66L0,334.16L1.69,335.64L3.39,334.16L6.78,328.74L8.47,319.87L10.17,316.42L11.86,308.04L13.56,302.62L15.25,301.14L16.95,292.76L18.64,278.96L20.34,265.65L22.03,244.46L23.73,240.03L25.42,242.49L27.12,242.49L28.81,241.5L30.51,235.59L32.2,219.33L37.29,143.42L38.98,141.95L40.68,88.22L42.37,76.39L44.07,71.47L45.76,86.74L47.46,85.27L49.15,96.11L52.54,83.29L54.24,54.71L57.63,13.31L59.32,5.91L61.02,0L62.71,2.96L64.41,13.31L66.1,30.56L67.8,93.64L69.49,125.19L72.88,152.79L74.58,153.77L77.97,202.08L79.66,184.82L81.36,185.32L83.05,210.95L84.75,206.02L86.44,208.98L89.83,244.95L91.53,250.87L93.22,262.7L94.92,264.67L96.61,268.61L98.31,270.09L100,279.46L101.69,281.92L103.39,293.75L105.08,299.17L106.78,298.68L108.47,305.08L111.86,302.62L113.56,309.03L116.95,304.1L118.64,312.97L120.34,312.48L122.03,315.43L125.42,319.87L127.12,319.87L130.51,318.88L132.2,319.87L135.59,309.52L137.29,293.26L138.98,289.31L140.68,291.78L142.37,298.68L144.07,290.79L145.76,293.26L147.46,280.93L150.85,236.58L152.54,223.76L154.24,223.76L155.93,216.86L159.32,205.53L161.02,225.73L162.71,237.56L164.41,236.08L166.1,214.4L167.8,218.34L169.49,222.28L171.19,229.68L174.58,234.6L176.27,233.13L177.97,229.68L179.66,229.18L181.36,228.2L183.05,217.35L184.75,213.9L186.44,212.92L188.14,212.43L189.83,199.12L191.53,193.7L193.22,193.7L194.92,177.92L196.61,179.9L198.31,175.46L200,175.95L203.39,185.81L205.08,187.78L206.78,216.86L208.47,215.88L211.86,202.08L213.56,204.54L215.25,206.51L216.95,207L218.64,190.25L220.34,189.26L222.03,197.15L223.73,199.12L225.42,203.06L227.12,203.55L228.81,202.57L230.51,212.43L233.9,207.99L235.59,216.86L237.29,221.79L238.98,217.85L240.68,219.33L242.37,217.85L244.07,219.82L245.76,215.38L249.15,202.57L250.85,203.06L252.54,202.08L254.24,198.63L255.93,202.57L257.63,203.06L259.32,211.44L261.02,213.41L264.41,216.86L266.1,220.31L269.49,231.65L271.19,227.21L274.58,231.15L276.27,232.63L277.97,234.11L279.66,219.33L281.36,208.48L283.05,192.22L286.44,162.65L288.14,158.7L291.53,120.75L293.22,99.56L294.92,87.24L296.61,68.02L300,68.02L301.69,54.71L303.39,40.91L305.08,51.75L306.78,48.79L308.47,61.12L310.17,68.02L311.86,67.03L313.56,128.64L315.25,130.61L316.95,127.16L318.64,149.34L320.34,152.79L322.03,145.89L323.73,147.37L325.42,95.12L328.81,153.77L330.51,150.32L332.2,164.12L333.9,162.65L335.59,165.11L337.29,186.8L338.98,183.35L340.68,184.33L342.37,196.16L344.07,193.7L345.76,204.54L347.46,203.06L349.15,200.6L350.85,209.47L352.54,208.48L354.24,209.47L357.63,231.65L359.32,232.63L361.02,236.08L362.71,230.66L367.8,247.91L369.49,248.9L371.19,248.4L372.88,260.73L376.27,278.47L377.97,301.14L379.66,304.59L381.36,302.13L383.05,302.13L384.75,305.08L386.44,304.1L388.14,299.66L389.83,287.83L391.53,289.31L393.22,284.88L394.92,286.85L396.61,305.08L398.31,298.18L400,305.08L401.69,306.07L406.78,311L408.47,301.63L410.17,321.35L411.86,326.77L415.25,345.01L416.95,350.43L418.64,350.43L420.34,358.31L423.73,362.75L425.42,361.27L428.81,366.2L430.51,366.2L433.9,370.14L435.59,371.13L437.29,373.59L438.98,374.58L442.37,374.09L444.07,375.56L445.76,374.58L447.46,375.07L449.15,375.56L450.85,375.07L454.24,374.58L455.93,373.1L457.63,374.58L459.32,373.1L462.71,372.61L464.41,371.13L466.1,371.13L467.8,372.61L469.49,371.13L471.19,371.13L472.88,368.66L474.58,368.17L476.27,370.14L477.97,369.65L479.66,367.68L481.36,363.24L483.05,364.23L484.75,358.31L488.14,334.66L489.83,331.7L496.61,213.41L498.31,191.23L500,179.4L501.69,175.46L503.39,152.3L505.08,148.35L506.78,140.96L508.47,141.95L511.86,125.19L513.56,126.67L515.25,124.7L516.95,125.68L518.64,125.68L520.34,117.3L522.03,110.4L523.73,121.74L525.42,120.26L527.12,123.71L530.51,102.02L532.2,98.08L533.9,107.44L535.59,89.21L538.98,87.24L540.68,83.79L542.37,91.67L544.07,95.62L545.76,89.7L547.46,98.08L549.15,102.02L550.85,88.72L552.54,109.42L554.24,119.77L555.93,127.65L557.63,142.44L559.32,148.35L561.02,150.32L562.71,187.29L564.41,187.29L566.1,187.78L567.8,193.7L571.19,201.58L572.88,200.6L574.58,202.08L576.27,205.03L577.97,212.43L579.66,224.75L581.36,242.98L583.05,247.91L584.75,249.88L586.44,261.71L588.14,267.63L589.83,279.46L593.22,284.88L594.92,292.27L596.61,293.75L598.31,298.68L600,313.96L601.69,314.45L603.39,316.91L605.08,315.43L606.78,309.52L608.47,309.03L610.17,308.53L611.86,305.08L613.56,311L615.25,311.49L616.95,316.42L618.64,324.31L620.34,321.35L622.03,327.26L623.73,333.18L625.42,333.67L628.81,338.11L630.51,338.6L632.2,342.54L633.9,342.05L637.29,338.11L638.98,334.66L640.68,336.63L642.37,336.63L644.07,336.63L645.76,339.58L647.46,341.56L649.15,341.06L650.85,339.58L652.54,334.66L654.24,336.13L655.93,333.18L657.63,329.23L659.32,321.35L661.02,314.94L662.71,321.84L664.41,320.36L666.1,316.91L667.8,320.36L669.49,331.21L671.19,334.66" style="vector-effect: non-scaling-stroke; fill: none; stroke: rgb(8, 115, 191); stroke-opacity: 1; stroke-width: 0.5px; opacity: 1;"/></g><g class="points"/><g class="text"/></g><g class="trace scatter tracee3b495" style="stroke-miterlimit: 2;"><g class="fills"><g><path class="js-fill" d="M688.14,380L671.19,380L671.19,334.66L672.88,338.11L674.58,337.12L676.27,337.12L677.97,336.13L679.66,334.66L681.36,309.52L683.05,304.59L684.75,297.2L686.44,301.14L688.14,294.73" style="fill: rgb(8, 115, 191); fill-opacity: 0.4; stroke-width: 0;"/></g></g><g class="errorbars"/><g class="lines"><path class="js-line" d="M671.19,334.66L672.88,338.11L674.58,337.12L676.27,337.12L677.97,336.13L679.66,334.66L681.36,309.52L683.05,304.59L684.75,297.2L686.44,301.14L688.14,294.73" style="vector-effect: non-scaling-stroke; fill: none; stroke: rgb(8, 115, 191); stroke-opacity: 1; stroke-width: 2px; opacity: 1;"/></g><g class="points"/><g class="text"/></g><g class="trace scatter trace28bafa" style="stroke-miterlimit: 2; opacity: 1;"><g class="fills"/><g class="errorbars"/><g class="lines"/><g class="points"><path class="point" transform="translate(688.14,294.73)" d="M15,0A15,15 0 1,1 0,-15A15,15 0 0,1 15,0Z" style="opacity: 1; stroke-width: 0px; fill: rgb(8, 115, 191); fill-opacity: 1;"/></g><g class="text"/></g></g></g><g class="overplot"/><path class="xlines-above crisp" style="fill: none; stroke-width: 1px; stroke: rgb(0, 0, 0); stroke-opacity: 0;" d=""/><path class="ylines-above crisp" style="fill: none;" d="M0,0"/><g class="overlines-above"/><g class="xaxislayer-above"><path class="xtick ticks crisp" d="M0,450v-5" transform="translate(105.93,0)" style="stroke: rgb(68, 68, 68); stroke-opacity: 1; stroke-width: 1px;"/><path class="xtick ticks crisp" d="M0,450v-5" transform="translate(209.32,0)" style="stroke: rgb(68, 68, 68); stroke-opacity: 1; stroke-width: 1px;"/><path class="xtick ticks crisp" d="M0,450v-5" transform="translate(309.32,0)" style="stroke: rgb(68, 68, 68); stroke-opacity: 1; stroke-width: 1px;"/><path class="xtick ticks crisp" d="M0,450v-5" transform="translate(412.71,0)" style="stroke: rgb(68, 68, 68); stroke-opacity: 1; stroke-width: 1px;"/><path class="xtick ticks crisp" d="M0,450v-5" transform="translate(516.1,0)" style="stroke: rgb(68, 68, 68); stroke-opacity: 1; stroke-width: 1px;"/><path class="xtick ticks crisp" d="M0,450v-5" transform="translate(621.19,0)" style="stroke: rgb(68, 68, 68); stroke-opacity: 1; stroke-width: 1px;"/><path class="xtick ticks crisp" d="M0,450v-5" transform="translate(724.58,0)" style="stroke: rgb(68, 68, 68); stroke-opacity: 1; stroke-width: 1px;"/><g class="xtick"><text text-anchor="middle" x="0" y="469" transform="translate(105.93,0)" style="font-family: 'Open Sans', verdana, arial, sans-serif; font-size: 18px; fill: rgb(42, 63, 95); fill-opacity: 1; white-space: pre;">01/11</text></g><g class="xtick"><text text-anchor="middle" x="0" y="469" transform="translate(209.32,0)" style="font-family: 'Open Sans', verdana, arial, sans-serif; font-size: 18px; fill: rgb(42, 63, 95); fill-opacity: 1; white-space: pre;">01/01</text></g><g class="xtick"><text text-anchor="middle" x="0" y="469" transform="translate(309.32,0)" style="font-family: 'Open Sans', verdana, arial, sans-serif; font-size: 18px; fill: rgb(42, 63, 95); fill-opacity: 1; white-space: pre;">01/03</text></g><g class="xtick"><text text-anchor="middle" x="0" y="469" transform="translate(412.71,0)" style="font-family: 'Open Sans', verdana, arial, sans-serif; font-size: 18px; fill: rgb(42, 63, 95); fill-opacity: 1; white-space: pre;">01/05</text></g><g class="xtick"><text text-anchor="middle" x="0" y="469" transform="translate(516.1,0)" style="font-family: 'Open Sans', verdana, arial, sans-serif; font-size: 18px; fill: rgb(42, 63, 95); fill-opacity: 1; white-space: pre;">01/07</text></g><g class="xtick"><text text-anchor="middle" x="0" y="469" transform="translate(621.19,0)" style="font-family: 'Open Sans', verdana, arial, sans-serif; font-size: 18px; fill: rgb(42, 63, 95); fill-opacity: 1; white-space: pre;">01/09</text></g><g class="xtick"><text text-anchor="middle" x="0" y="469" transform="translate(724.58,0)" style="font-family: 'Open Sans', verdana, arial, sans-serif; font-size: 18px; fill: rgb(42, 63, 95); fill-opacity: 1; white-space: pre;">01/11</text></g></g><g class="yaxislayer-above"/><g class="overaxes-above"/></g></g><g class="polarlayer"/><g class="ternarylayer"/><g class="geolayer"/><g class="funnelarealayer"/><g class="pielayer"/><g class="treemaplayer"/><g class="sunburstlayer"/><g class="glimages"/><defs id="topdefs-344299"><g class="clips"/></defs><g class="layer-above"><g class="imagelayer"/><g class="shapelayer"><path data-index="0" fill-rule="evenodd" d="M-902.54,409.29L336.44,409.29" clip-path="url('#clip344299xy')" style="opacity: 1; stroke: rgb(255, 0, 0); stroke-opacity: 1; fill: rgb(0, 0, 0); fill-opacity: 0; stroke-dasharray: 3px, 3px; stroke-width: 1.5px;"/></g></g><g class="infolayer"><g class="g-gtitle"><text class="gtitle" x="375" y="25" text-anchor="middle" dy="0.7em" style="font-family: 'Open Sans', verdana, arial, sans-serif; font-size: 50px; fill: rgb(42, 63, 95); opacity: 1; font-weight: normal; white-space: pre;"><tspan style="font-weight:bold">Alpes-de-Haute-Provence (04)</tspan></text></g><g class="g-xtitle"/><g class="annotation" data-index="0" style="opacity: 1;"><g class="annotation-text-g" transform="rotate(0,696.14,304.73)"><g class="cursor-pointer" transform="translate(638, 269)"><rect class="bg" x="0.5" y="0.5" width="115" height="71" style="stroke-width: 1px; stroke: rgb(0, 0, 0); stroke-opacity: 0; fill: rgb(255, 255, 255); fill-opacity: 0.6;"/><text class="annotation-text" text-anchor="middle" x="57.8125" y="55.5" style="font-family: 'Open Sans', verdana, arial, sans-serif; font-size: 50px; fill: rgb(8, 115, 191); fill-opacity: 1; white-space: pre;"> <tspan style="font-weight:bold">104 </tspan></text></g></g><g class="annotation-arrow-g" style="opacity: 1;"><path d="M724.54,340.23L736.14,354.73" style="stroke-width: 1px; stroke: rgb(8, 115, 191); stroke-opacity: 1; stroke-dasharray: 0px, 0px, 18.5691px, 18.5691px;"/></g></g></g></svg>