<svg class="main-svg" xmlns="http://www.w3.org/2000/svg" xmlns:xlink="http://www.w3.org/1999/xlink" width="1125" height="750" style="" viewBox="0 0 750 500"><rect x="0" y="0" width="750" height="500" style="fill: rgb(0, 0, 0); fill-opacity: 0;"/><defs id="defs-1acd8a"><g class="clips"><clipPath id="clip1acd8axyplot" class="plotclip"><rect width="700" height="380"/></clipPath><clipPath class="axesclip" id="clip1acd8ax"><rect x="50" y="0" width="700" height="500"/></clipPath><clipPath class="axesclip" id="clip1acd8ay"><rect x="0" y="70" width="750" height="380"/></clipPath><clipPath class="axesclip" id="clip1acd8axy"><rect x="50" y="70" width="700" height="380"/></clipPath></g><g class="gradients"/></defs><g class="bglayer"><rect class="bg" x="50" y="70" width="700" height="380" style="fill: rgb(0, 0, 0); fill-opacity: 0; stroke-width: 0;"/></g><g class="layer-below"><g class="imagelayer"/><g class="shapelayer"/></g><g class="cartesianlayer"><g class="subplot xy"><g class="layer-subplot"><g class="shapelayer"/><g class="imagelayer"/></g><g class="gridlayer"><g class="x"><path class="xgrid crisp" transform="translate(90.96000000000001,0)" d="M0,70v380" style="stroke: rgb(255, 255, 255); stroke-opacity: 1; stroke-width: 1px;"/><path class="xgrid crisp" transform="translate(166.67000000000002,0)" d="M0,70v380" style="stroke: rgb(255, 255, 255); stroke-opacity: 1; stroke-width: 1px;"/><path class="xgrid crisp" transform="translate(239.89,0)" d="M0,70v380" style="stroke: rgb(255, 255, 255); stroke-opacity: 1; stroke-width: 1px;"/><path class="xgrid crisp" transform="translate(315.6,0)" d="M0,70v380" style="stroke: rgb(255, 255, 255); stroke-opacity: 1; stroke-width: 1px;"/><path class="xgrid crisp" transform="translate(391.31,0)" d="M0,70v380" style="stroke: rgb(255, 255, 255); stroke-opacity: 1; stroke-width: 1px;"/><path class="xgrid crisp" transform="translate(468.26,0)" d="M0,70v380" style="stroke: rgb(255, 255, 255); stroke-opacity: 1; stroke-width: 1px;"/><path class="xgrid crisp" transform="translate(543.97,0)" d="M0,70v380" style="stroke: rgb(255, 255, 255); stroke-opacity: 1; stroke-width: 1px;"/><path class="xgrid crisp" transform="translate(619.68,0)" d="M0,70v380" style="stroke: rgb(255, 255, 255); stroke-opacity: 1; stroke-width: 1px;"/><path class="xgrid crisp" transform="translate(692.91,0)" d="M0,70v380" style="stroke: rgb(255, 255, 255); stroke-opacity: 1; stroke-width: 1px;"/></g><g class="y"/></g><g class="zerolinelayer"/><path class="xlines-below"/><path class="ylines-below"/><g class="overlines-below"/><g class="xaxislayer-below"/><g class="yaxislayer-below"/><g class="overaxes-below"/><g class="plot" transform="translate(50, 70)" clip-path="url('#clip1acd8axyplot')"><g class="scatterlayer mlayer"><g class="trace scatter trace41d0b2" style="stroke-miterlimit: 2;"><g class="fills"><g><path class="js-fill" d="M678.9,380L-168.79,380L-168.79,379.79L-91.84,379.97L-90.6,379.95L-58.33,379.19L-57.09,378.81L-48.4,377.61L-47.16,377.56L-38.48,375.05L-37.23,374.59L-28.55,372.33L-27.3,372.61L-22.34,371.52L-21.1,371.72L-17.38,372.08L-16.13,372.15L-4.96,370.84L-3.72,370.12L0,368.24L1.24,367.84L2.48,367.68L3.72,366.46L11.17,360.6L12.41,358.24L17.38,352.07L18.62,351.18L19.86,351.1L21.1,348.11L24.82,336.21L26.06,331.94L28.55,328.53L29.79,323.51L32.27,318.89L33.51,318.36L35.99,318.99L37.23,319.47L39.72,321.42L40.96,322.19L42.2,322.32L43.44,323.84L45.92,325.14L47.16,329.47L48.4,332.8L49.65,340.16L53.37,348.11L54.61,349.18L57.09,356.47L58.33,355.32L62.06,362.64L63.3,362.79L64.54,365.55L65.78,366.03L69.5,368.52L70.74,368.22L76.95,368.06L78.19,367.59L85.64,369L86.88,368.76L89.36,368.57L90.6,366.59L94.33,363.68L95.57,361.03L98.05,355.4L99.29,356.37L100.53,354.41L101.77,354.03L103.01,355.25L104.26,360.1L106.74,364.9L107.98,364.59L115.43,361.75L116.67,360.24L117.91,361.56L119.15,361.41L121.63,356.9L122.87,357.5L124.11,357.73L125.35,359.25L127.84,359.71L129.08,360.65L131.56,359.59L132.8,359.61L139.01,356.33L140.25,356.21L142.73,356.16L143.97,357.13L150.18,358.72L151.42,358.92L153.9,359.29L155.14,360.33L158.87,361.26L160.11,362.58L165.07,365.37L166.31,365.22L167.55,365.04L168.79,363.53L170.04,362.64L171.28,362.97L181.21,362.46L182.45,363.53L184.93,363.72L186.17,365.09L196.1,364.38L197.34,365.12L202.3,364.56L203.55,363.3L207.27,360.86L208.51,360.17L209.75,358.98L210.99,359.23L213.48,358.47L214.72,358.04L217.2,356.04L218.44,356.41L219.68,356.31L220.92,355.17L223.4,353.19L224.65,352L227.13,349.25L228.37,349L229.61,352.93L230.85,349.79L232.09,348.04L233.33,348.01L237.06,347.91L238.3,343.08L242.02,347.43L243.26,348.26L246.99,348.72L248.23,349.83L250.71,351.51L251.95,351.24L254.43,351.11L255.67,352.09L256.91,352.76L258.16,352.25L259.4,353.27L260.64,355.27L261.88,358.52L263.12,358.64L266.84,364.36L268.09,364.92L270.57,365.96L271.81,365.98L273.05,365.02L274.29,365.78L275.53,365.61L276.77,367.74L278.01,367.96L279.26,367.21L282.98,367.71L284.22,368.32L285.46,366.82L286.7,367.77L289.18,367.87L290.43,371.27L295.39,370.68L296.63,370.78L297.87,370.84L299.11,369.77L302.84,372.72L304.08,373.14L309.04,374.64L310.28,375L331.38,378.8L332.62,378.78L351.24,377.95L352.48,377.49L356.21,376.9L357.45,376.7L358.69,376.6L359.93,375.56L363.65,373.68L364.89,372.82L367.38,371.85L368.62,371.44L379.79,370.23L381.03,369.77L384.75,368.81L385.99,368.45L388.48,367.48L389.72,367.08L397.16,368.93L398.4,369.8L410.82,371.78L412.06,372.48L423.23,373.3L424.47,373.7L430.67,375.27L431.91,375.63L440.6,373.91L441.84,374.26L445.57,374.31L446.81,375.13L455.5,375.96L456.74,376.35L462.94,377.44L464.18,377.38L474.11,377.33L475.35,377.15L480.32,377.18L481.56,377.06L485.28,377.03L486.52,376.91L490.25,377.2L491.49,376.49L495.21,375.25L496.45,374.37L497.7,374.19L498.94,372.72L502.66,373.19L503.9,372.18L507.62,370.61L508.87,369.09L512.59,364.16L513.83,363.2L515.07,363.35L516.31,361.23L520.04,355.3L521.28,353.39L523.76,351.38L525,347.52L531.21,334.4L532.45,334.14L534.93,330.52L536.17,331.25L538.65,332.83L539.89,333.43L542.38,333.34L543.62,331.99L546.1,327.35L547.34,324.29L548.58,321.81L549.82,321.55L554.79,291.92L556.03,283.6L557.27,288.9L558.51,287L564.72,201L565.96,198.8L567.2,197.07L568.44,172.29L570.92,151.16L572.16,153L573.4,151.65L574.65,131.44L575.89,129.15L577.13,139.66L578.37,145.03L579.61,145.83L583.33,139.57L584.57,138.11L592.02,56.77L593.26,52.41L595.74,15.18L596.99,3.12L598.23,0L599.47,0.99L600.71,2.57L601.95,1.37L610.64,86.53L611.88,114.27L616.84,187.35L618.09,199.61L619.33,203.73L620.57,230.1L624.29,272.55L625.53,280.3L626.77,285.83L628.01,287.71L630.5,302.44L631.74,308.3L635.46,320.34L636.7,321.28L639.18,327.22L640.43,328.25L644.15,331.63L645.39,331.15L647.87,329.17L649.11,327.64L652.84,320.56L654.08,320.69L661.52,289.05L662.77,287.33L665.25,260.08L666.49,252.3L668.97,232.89L670.21,228.53L671.45,228.86L672.7,222.72L675.18,213.02L676.42,212.15L678.9,214.51" style="fill: rgb(8, 115, 191); fill-opacity: 0.2; stroke-width: 0;"/></g></g><g class="errorbars"/><g class="lines"><path class="js-line" d="M-168.79,379.79L-91.84,379.97L-90.6,379.95L-58.33,379.19L-57.09,378.81L-48.4,377.61L-47.16,377.56L-38.48,375.05L-37.23,374.59L-28.55,372.33L-27.3,372.61L-22.34,371.52L-21.1,371.72L-17.38,372.08L-16.13,372.15L-4.96,370.84L-3.72,370.12L0,368.24L1.24,367.84L2.48,367.68L3.72,366.46L11.17,360.6L12.41,358.24L17.38,352.07L18.62,351.18L19.86,351.1L21.1,348.11L24.82,336.21L26.06,331.94L28.55,328.53L29.79,323.51L32.27,318.89L33.51,318.36L35.99,318.99L37.23,319.47L39.72,321.42L40.96,322.19L42.2,322.32L43.44,323.84L45.92,325.14L47.16,329.47L48.4,332.8L49.65,340.16L53.37,348.11L54.61,349.18L57.09,356.47L58.33,355.32L62.06,362.64L63.3,362.79L64.54,365.55L65.78,366.03L69.5,368.52L70.74,368.22L76.95,368.06L78.19,367.59L85.64,369L86.88,368.76L89.36,368.57L90.6,366.59L94.33,363.68L95.57,361.03L98.05,355.4L99.29,356.37L100.53,354.41L101.77,354.03L103.01,355.25L104.26,360.1L106.74,364.9L107.98,364.59L115.43,361.75L116.67,360.24L117.91,361.56L119.15,361.41L121.63,356.9L122.87,357.5L124.11,357.73L125.35,359.25L127.84,359.71L129.08,360.65L131.56,359.59L132.8,359.61L139.01,356.33L140.25,356.21L142.73,356.16L143.97,357.13L150.18,358.72L151.42,358.92L153.9,359.29L155.14,360.33L158.87,361.26L160.11,362.58L165.07,365.37L166.31,365.22L167.55,365.04L168.79,363.53L170.04,362.64L171.28,362.97L181.21,362.46L182.45,363.53L184.93,363.72L186.17,365.09L196.1,364.38L197.34,365.12L202.3,364.56L203.55,363.3L207.27,360.86L208.51,360.17L209.75,358.98L210.99,359.23L213.48,358.47L214.72,358.04L217.2,356.04L218.44,356.41L219.68,356.31L220.92,355.17L223.4,353.19L224.65,352L227.13,349.25L228.37,349L229.61,352.93L230.85,349.79L232.09,348.04L233.33,348.01L237.06,347.91L238.3,343.08L242.02,347.43L243.26,348.26L246.99,348.72L248.23,349.83L250.71,351.51L251.95,351.24L254.43,351.11L255.67,352.09L256.91,352.76L258.16,352.25L259.4,353.27L260.64,355.27L261.88,358.52L263.12,358.64L266.84,364.36L268.09,364.92L270.57,365.96L271.81,365.98L273.05,365.02L274.29,365.78L275.53,365.61L276.77,367.74L278.01,367.96L279.26,367.21L282.98,367.71L284.22,368.32L285.46,366.82L286.7,367.77L289.18,367.87L290.43,371.27L295.39,370.68L296.63,370.78L297.87,370.84L299.11,369.77L302.84,372.72L304.08,373.14L309.04,374.64L310.28,375L331.38,378.8L332.62,378.78L351.24,377.95L352.48,377.49L356.21,376.9L357.45,376.7L358.69,376.6L359.93,375.56L363.65,373.68L364.89,372.82L367.38,371.85L368.62,371.44L379.79,370.23L381.03,369.77L384.75,368.81L385.99,368.45L388.48,367.48L389.72,367.08L397.16,368.93L398.4,369.8L410.82,371.78L412.06,372.48L423.23,373.3L424.47,373.7L430.67,375.27L431.91,375.63L440.6,373.91L441.84,374.26L445.57,374.31L446.81,375.13L455.5,375.96L456.74,376.35L462.94,377.44L464.18,377.38L474.11,377.33L475.35,377.15L480.32,377.18L481.56,377.06L485.28,377.03L486.52,376.91L490.25,377.2L491.49,376.49L495.21,375.25L496.45,374.37L497.7,374.19L498.94,372.72L502.66,373.19L503.9,372.18L507.62,370.61L508.87,369.09L512.59,364.16L513.83,363.2L515.07,363.35L516.31,361.23L520.04,355.3L521.28,353.39L523.76,351.38L525,347.52L531.21,334.4L532.45,334.14L534.93,330.52L536.17,331.25L538.65,332.83L539.89,333.43L542.38,333.34L543.62,331.99L546.1,327.35L547.34,324.29L548.58,321.81L549.82,321.55L554.79,291.92L556.03,283.6L557.27,288.9L558.51,287L564.72,201L565.96,198.8L567.2,197.07L568.44,172.29L570.92,151.16L572.16,153L573.4,151.65L574.65,131.44L575.89,129.15L577.13,139.66L578.37,145.03L579.61,145.83L583.33,139.57L584.57,138.11L592.02,56.77L593.26,52.41L595.74,15.18L596.99,3.12L598.23,0L599.47,0.99L600.71,2.57L601.95,1.37L610.64,86.53L611.88,114.27L616.84,187.35L618.09,199.61L619.33,203.73L620.57,230.1L624.29,272.55L625.53,280.3L626.77,285.83L628.01,287.71L630.5,302.44L631.74,308.3L635.46,320.34L636.7,321.28L639.18,327.22L640.43,328.25L644.15,331.63L645.39,331.15L647.87,329.17L649.11,327.64L652.84,320.56L654.08,320.69L661.52,289.05L662.77,287.33L665.25,260.08L666.49,252.3L668.97,232.89L670.21,228.53L671.45,228.86L672.7,222.72L675.18,213.02L676.42,212.15L678.9,214.51" style="vector-effect: non-scaling-stroke; fill: none; stroke: rgb(8, 115, 191); stroke-opacity: 1; stroke-width: 0.5px; opacity: 1;"/></g><g class="points"/><g class="text"/></g><g class="trace scatter tracef9f1a7" style="stroke-miterlimit: 2;"><g class="fills"><g><path class="js-fill" d="M691.31,380L678.9,380L678.9,214.51L681.38,213.65L682.62,214.8L685.11,210L686.35,203.95L687.59,199.91L688.83,199.31L690.07,195.39L691.31,196.18" style="fill: rgb(8, 115, 191); fill-opacity: 0.4; stroke-width: 0;"/></g></g><g class="errorbars"/><g class="lines"><path class="js-line" d="M678.9,214.51L681.38,213.65L682.62,214.8L685.11,210L686.35,203.95L687.59,199.91L688.83,199.31L690.07,195.39L691.31,196.18" style="vector-effect: non-scaling-stroke; fill: none; stroke: rgb(8, 115, 191); stroke-opacity: 1; stroke-width: 2px; opacity: 1;"/></g><g class="points"/><g class="text"/></g><g class="trace scatter trace74df36" style="stroke-miterlimit: 2; opacity: 1;"><g class="fills"/><g class="errorbars"/><g class="lines"/><g class="points"><path class="point" transform="translate(691.31,196.18)" d="M15,0A15,15 0 1,1 0,-15A15,15 0 0,1 15,0Z" style="opacity: 1; stroke-width: 0px; fill: rgb(8, 115, 191); fill-opacity: 1;"/></g><g class="text"/></g></g></g><g class="overplot"/><path class="xlines-above crisp" style="fill: none; stroke-width: 1px; stroke: rgb(0, 0, 0); stroke-opacity: 0;" d=""/><path class="ylines-above crisp" style="fill: none;" d="M0,0"/><g class="overlines-above"/><g class="xaxislayer-above"><path class="xtick ticks crisp" d="M0,450v-5" transform="translate(90.96000000000001,0)" style="stroke: rgb(68, 68, 68); stroke-opacity: 1; stroke-width: 1px;"/><path class="xtick ticks crisp" d="M0,450v-5" transform="translate(166.67000000000002,0)" style="stroke: rgb(68, 68, 68); stroke-opacity: 1; stroke-width: 1px;"/><path class="xtick ticks crisp" d="M0,450v-5" transform="translate(239.89,0)" style="stroke: rgb(68, 68, 68); stroke-opacity: 1; stroke-width: 1px;"/><path class="xtick ticks crisp" d="M0,450v-5" transform="translate(315.6,0)" style="stroke: rgb(68, 68, 68); stroke-opacity: 1; stroke-width: 1px;"/><path class="xtick ticks crisp" d="M0,450v-5" transform="translate(391.31,0)" style="stroke: rgb(68, 68, 68); stroke-opacity: 1; stroke-width: 1px;"/><path class="xtick ticks crisp" d="M0,450v-5" transform="translate(468.26,0)" style="stroke: rgb(68, 68, 68); stroke-opacity: 1; stroke-width: 1px;"/><path class="xtick ticks crisp" d="M0,450v-5" transform="translate(543.97,0)" style="stroke: rgb(68, 68, 68); stroke-opacity: 1; stroke-width: 1px;"/><path class="xtick ticks crisp" d="M0,450v-5" transform="translate(619.68,0)" style="stroke: rgb(68, 68, 68); stroke-opacity: 1; stroke-width: 1px;"/><path class="xtick ticks crisp" d="M0,450v-5" transform="translate(692.91,0)" style="stroke: rgb(68, 68, 68); stroke-opacity: 1; stroke-width: 1px;"/><g class="xtick"><text text-anchor="middle" x="0" y="469" transform="translate(90.96000000000001,0)" style="font-family: 'Open Sans', verdana, arial, sans-serif; font-size: 18px; fill: rgb(42, 63, 95); fill-opacity: 1; white-space: pre;">01/11</text></g><g class="xtick"><text text-anchor="middle" x="0" y="469" transform="translate(166.67000000000002,0)" style="font-family: 'Open Sans', verdana, arial, sans-serif; font-size: 18px; fill: rgb(42, 63, 95); fill-opacity: 1; white-space: pre;">01/01</text></g><g class="xtick"><text text-anchor="middle" x="0" y="469" transform="translate(239.89,0)" style="font-family: 'Open Sans', verdana, arial, sans-serif; font-size: 18px; fill: rgb(42, 63, 95); fill-opacity: 1; white-space: pre;">01/03</text></g><g class="xtick"><text text-anchor="middle" x="0" y="469" transform="translate(315.6,0)" style="font-family: 'Open Sans', verdana, arial, sans-serif; font-size: 18px; fill: rgb(42, 63, 95); fill-opacity: 1; white-space: pre;">01/05</text></g><g class="xtick"><text text-anchor="middle" x="0" y="469" transform="translate(391.31,0)" style="font-family: 'Open Sans', verdana, arial, sans-serif; font-size: 18px; fill: rgb(42, 63, 95); fill-opacity: 1; white-space: pre;">01/07</text></g><g class="xtick"><text text-anchor="middle" x="0" y="469" transform="translate(468.26,0)" style="font-family: 'Open Sans', verdana, arial, sans-serif; font-size: 18px; fill: rgb(42, 63, 95); fill-opacity: 1; white-space: pre;">01/09</text></g><g class="xtick"><text text-anchor="middle" x="0" y="469" transform="translate(543.97,0)" style="font-family: 'Open Sans', verdana, arial, sans-serif; font-size: 18px; fill: rgb(42, 63, 95); fill-opacity: 1; white-space: pre;">01/11</text></g><g class="xtick"><text text-anchor="middle" x="0" y="469" transform="translate(619.68,0)" style="font-family: 'Open Sans', verdana, arial, sans-serif; font-size: 18px; fill: rgb(42, 63, 95); fill-opacity: 1; white-space: pre;">01/01</text></g><g class="xtick"><text text-anchor="middle" x="0" y="469" transform="translate(692.91,0)" style="font-family: 'Open Sans', verdana, arial, sans-serif; font-size: 18px; fill: rgb(42, 63, 95); fill-opacity: 1; white-space: pre;">01/03</text></g></g><g class="yaxislayer-above"/><g class="overaxes-above"/></g></g><g class="polarlayer"/><g class="ternarylayer"/><g class="geolayer"/><g class="funnelarealayer"/><g class="pielayer"/><g class="treemaplayer"/><g class="sunburstlayer"/><g class="glimages"/><defs id="topdefs-1acd8a"><g class="clips"/></defs><g class="layer-above"><g class="imagelayer"/><g class="shapelayer"><path data-index="0" fill-rule="evenodd" d="M-647.52,444.55L259.75,444.55" clip-path="url('#clip1acd8axy')" style="opacity: 1; stroke: rgb(255, 0, 0); stroke-opacity: 1; fill: rgb(0, 0, 0); fill-opacity: 0; stroke-dasharray: 3px, 3px; stroke-width: 1.5px;"/></g></g><g class="infolayer"><g class="g-gtitle"><text class="gtitle" x="375" y="25" text-anchor="middle" dy="0.7em" style="font-family: 'Open Sans', verdana, arial, sans-serif; font-size: 50px; fill: rgb(42, 63, 95); opacity: 1; font-weight: normal; white-space: pre;"><tspan style="font-weight:bold">Puy-de-Dôme (63)</tspan></text></g><g class="g-xtitle"/><g class="annotation" data-index="0" style="opacity: 1;"><g class="annotation-text-g" transform="rotate(0,699.31,206.18)"><g class="cursor-pointer" transform="translate(627, 170)"><rect class="bg" x="0.5" y="0.5" width="143" height="71" style="stroke-width: 1px; stroke: rgb(0, 0, 0); stroke-opacity: 0; fill: rgb(255, 255, 255); fill-opacity: 0.6;"/><text class="annotation-text" text-anchor="middle" x="72.078125" y="55.5" style="font-family: 'Open Sans', verdana, arial, sans-serif; font-size: 50px; fill: rgb(8, 115, 191); fill-opacity: 1; white-space: pre;"> <tspan style="font-weight:bold">1687 </tspan></text></g></g><g class="annotation-arrow-g" style="opacity: 1;"><path d="M727.7099999999999,241.68L739.31,256.18" style="stroke-width: 1px; stroke: rgb(8, 115, 191); stroke-opacity: 1; stroke-dasharray: 0px, 0px, 18.569px, 18.569px;"/></g></g></g></svg>