<svg class="main-svg" xmlns="http://www.w3.org/2000/svg" xmlns:xlink="http://www.w3.org/1999/xlink" width="1125" height="750" style="" viewBox="0 0 750 500"><rect x="0" y="0" width="750" height="500" style="fill: rgb(0, 0, 0); fill-opacity: 0;"/><defs id="defs-2665fd"><g class="clips"><clipPath id="clip2665fdxyplot" class="plotclip"><rect width="700" height="380"/></clipPath><clipPath class="axesclip" id="clip2665fdx"><rect x="50" y="0" width="700" height="500"/></clipPath><clipPath class="axesclip" id="clip2665fdy"><rect x="0" y="70" width="750" height="380"/></clipPath><clipPath class="axesclip" id="clip2665fdxy"><rect x="50" y="70" width="700" height="380"/></clipPath></g><g class="gradients"/></defs><g class="bglayer"><rect class="bg" x="50" y="70" width="700" height="380" style="fill: rgb(0, 0, 0); fill-opacity: 0; stroke-width: 0;"/></g><g class="layer-below"><g class="imagelayer"/><g class="shapelayer"/></g><g class="cartesianlayer"><g class="subplot xy"><g class="layer-subplot"><g class="shapelayer"/><g class="imagelayer"/></g><g class="gridlayer"><g class="x"><path class="xgrid crisp" transform="translate(92.53999999999999,0)" d="M0,70v380" style="stroke: rgb(255, 255, 255); stroke-opacity: 1; stroke-width: 1px;"/><path class="xgrid crisp" transform="translate(171.18,0)" d="M0,70v380" style="stroke: rgb(255, 255, 255); stroke-opacity: 1; stroke-width: 1px;"/><path class="xgrid crisp" transform="translate(247.24,0)" d="M0,70v380" style="stroke: rgb(255, 255, 255); stroke-opacity: 1; stroke-width: 1px;"/><path class="xgrid crisp" transform="translate(325.87,0)" d="M0,70v380" style="stroke: rgb(255, 255, 255); stroke-opacity: 1; stroke-width: 1px;"/><path class="xgrid crisp" transform="translate(404.51,0)" d="M0,70v380" style="stroke: rgb(255, 255, 255); stroke-opacity: 1; stroke-width: 1px;"/><path class="xgrid crisp" transform="translate(484.44,0)" d="M0,70v380" style="stroke: rgb(255, 255, 255); stroke-opacity: 1; stroke-width: 1px;"/><path class="xgrid crisp" transform="translate(563.08,0)" d="M0,70v380" style="stroke: rgb(255, 255, 255); stroke-opacity: 1; stroke-width: 1px;"/><path class="xgrid crisp" transform="translate(641.71,0)" d="M0,70v380" style="stroke: rgb(255, 255, 255); stroke-opacity: 1; stroke-width: 1px;"/><path class="xgrid crisp" transform="translate(717.77,0)" d="M0,70v380" style="stroke: rgb(255, 255, 255); stroke-opacity: 1; stroke-width: 1px;"/></g><g class="y"/></g><g class="zerolinelayer"/><path class="xlines-below"/><path class="ylines-below"/><g class="overlines-below"/><g class="xaxislayer-below"/><g class="yaxislayer-below"/><g class="overaxes-below"/><g class="plot" transform="translate(50, 70)" clip-path="url('#clip2665fdxyplot')"><g class="scatterlayer mlayer"><g class="trace scatter tracea58abd" style="stroke-miterlimit: 2;"><g class="fills"><g><path class="js-fill" d="M678.08,380L-175.32,380L-175.32,378.19L-152.12,379.94L-150.83,379.94L-60.59,378.67L-59.3,378.52L-39.96,375.93L-38.67,375.42L-29.65,374.72L-28.36,375.02L-23.2,375.39L-21.92,375.02L-15.47,373.61L-14.18,373L-5.16,372.79L-3.87,372.64L0,371.77L1.29,371.71L3.87,371.29L5.16,369.9L11.6,368.3L12.89,366.76L14.18,366.67L15.47,365.71L16.76,365.62L18.05,364.77L20.63,364.23L21.92,362.3L27.07,352.47L28.36,352.02L29.65,352.02L30.94,348.28L32.23,347.35L33.52,345.14L36.1,342.61L37.38,343.22L39.96,343.09L41.25,341.86L43.83,343.06L45.12,343.79L47.7,342.67L48.99,345.45L50.28,348.04L51.57,353.77L52.85,354.7L54.14,358.68L56.72,360.04L58.01,363.87L59.3,366.94L60.59,365.71L63.17,369.75L64.46,370.23L65.75,370.41L67.03,372.19L69.61,373.46L70.9,373.94L74.77,374.48L76.06,373.94L83.79,373.03L85.08,373.37L88.95,373.19L90.24,373.46L97.97,372.52L99.26,371.65L103.13,370.62L104.42,368.99L107,367.58L108.29,369.69L113.44,368.21L114.73,365.59L117.31,365.65L118.6,364.98L119.89,365.2L121.18,362.78L122.47,362.69L123.76,364.5L125.05,363.45L126.34,360.55L130.2,361.67L131.49,362.81L132.78,360.88L134.07,361.06L137.94,361.73L139.23,360.97L140.52,359.62L141.8,360.67L155.99,356.84L157.27,356.96L159.85,358.38L161.14,358.41L165.01,358.98L166.3,360.79L171.45,362.63L172.74,362.75L175.32,362.96L176.61,364.32L179.19,366.43L180.48,367.16L184.35,368.9L185.64,368.3L194.66,368.39L195.95,368.96L203.68,370.32L204.97,369.69L210.13,368.78L211.42,367.1L214,366.1L215.29,365.77L220.44,364.11L221.73,363.54L226.89,359.1L228.18,359.14L233.33,352.92L234.62,352.59L237.2,351.84L238.49,357.69L239.78,355.91L241.07,355.91L242.36,356.54L243.65,356.18L246.22,356.96L247.51,351.54L250.09,355.79L251.38,356.27L253.96,357.24L255.25,357.08L257.83,356.21L259.12,355.49L262.98,354.16L264.27,354.28L270.72,359.47L272.01,361.55L273.3,361.61L274.59,362.81L279.74,366.16L281.03,366.19L282.32,366.04L283.61,366.97L284.9,368.06L286.19,367.82L288.77,370.65L290.06,369.84L291.34,369.99L292.63,371.38L293.92,371.35L295.21,372.19L296.5,371.17L297.79,371.8L300.37,372.28L301.66,373.76L302.95,372.79L304.24,373.37L309.39,373.34L310.68,371.8L311.97,373.46L313.26,373.52L318.42,374.48L319.71,375.57L330.02,378.13L331.31,378.16L335.17,378.58L336.46,378.58L339.04,378.79L340.33,378.61L354.51,378.49L355.8,377.8L359.67,375.93L360.96,375.06L363.54,374.51L364.83,372.73L366.11,370.92L367.4,371.41L371.27,362.84L372.56,362.69L376.43,342.37L377.72,339.11L380.29,331.94L381.58,331.52L384.16,326.03L385.45,326.42L388.03,326.6L389.32,327.72L390.61,327.54L391.9,329.71L394.48,332.12L395.76,331.4L398.34,331.79L399.63,331.82L400.92,330.73L402.21,331.85L404.79,334.35L406.08,336.37L408.66,335.62L409.94,338.18L412.52,338.51L413.81,339.81L417.68,343.55L418.97,346.86L424.13,355.64L425.41,355.49L426.7,355.64L427.99,357.33L434.44,362.51L435.73,362.6L442.17,367.55L443.46,368.24L444.75,368.12L446.04,369.54L447.33,370.71L448.62,370.62L453.78,371.92L455.06,373.07L457.64,373.82L458.93,373.25L462.8,373.49L464.09,372.31L466.67,372.1L467.96,372.4L470.53,372.46L471.82,372.58L474.4,374.18L475.69,373.94L482.14,374.63L483.43,374.39L491.16,375.69L492.45,375.18L500.18,373.22L501.47,373.64L506.63,374.15L507.92,374.15L509.21,375.87L510.5,375.48L516.94,374.72L518.23,372.46L520.81,371.71L522.1,372.73L523.39,371.04L524.68,371.26L525.97,371.11L527.26,370.05L529.83,368.36L531.12,365.35L532.41,365.14L533.7,363.93L536.28,363.3L537.57,361.64L542.73,356.21L544.01,356.03L546.59,348.43L547.88,344.96L550.46,338.96L551.75,336.58L553.04,336.22L554.33,331.64L556.91,325.24L558.2,324.88L559.48,322.02L560.77,321.96L562.06,321.66L563.35,319L564.64,317.07L565.93,317.16L567.22,316.56L568.51,317.47L569.8,316.05L571.09,315.93L572.38,317.31L573.66,317.35L574.95,314.09L576.24,307.58L577.53,303.75L578.82,308.06L580.11,306.82L581.4,287.16L586.56,231.99L587.85,231.26L589.13,229.51L590.42,199.36L593,172.71L594.29,165.5L595.58,157.66L596.87,137.25L598.16,138.15L599.45,140.93L600.74,146.39L602.03,140.27L603.31,138.12L604.6,131.82L607.18,122.96L608.47,107.79L614.92,28.16L616.21,25.42L617.5,10.34L618.78,4.25L620.07,0L621.36,0.27L622.65,5.28L623.94,6.93L625.23,6.51L626.52,15.17L632.97,82.55L634.25,86.69L636.83,126.58L638.12,139.63L641.99,170.51L643.28,172.89L645.86,207.08L647.15,221.25L649.72,243.59L651.01,248.57L652.3,251.28L653.59,263.01L657.46,283.64L658.75,290.48L660.04,296.27L661.33,296.21L662.62,305.25L663.9,308.27L666.48,314.93L667.77,317.19L670.35,318.94L671.64,318.82L672.93,320.99L674.22,320.54L675.51,320.84L676.8,319.15L678.08,318.91" style="fill: rgb(8, 115, 191); fill-opacity: 0.2; stroke-width: 0;"/></g></g><g class="errorbars"/><g class="lines"><path class="js-line" d="M-175.32,378.19L-152.12,379.94L-150.83,379.94L-60.59,378.67L-59.3,378.52L-39.96,375.93L-38.67,375.42L-29.65,374.72L-28.36,375.02L-23.2,375.39L-21.92,375.02L-15.47,373.61L-14.18,373L-5.16,372.79L-3.87,372.64L0,371.77L1.29,371.71L3.87,371.29L5.16,369.9L11.6,368.3L12.89,366.76L14.18,366.67L15.47,365.71L16.76,365.62L18.05,364.77L20.63,364.23L21.92,362.3L27.07,352.47L28.36,352.02L29.65,352.02L30.94,348.28L32.23,347.35L33.52,345.14L36.1,342.61L37.38,343.22L39.96,343.09L41.25,341.86L43.83,343.06L45.12,343.79L47.7,342.67L48.99,345.45L50.28,348.04L51.57,353.77L52.85,354.7L54.14,358.68L56.72,360.04L58.01,363.87L59.3,366.94L60.59,365.71L63.17,369.75L64.46,370.23L65.75,370.41L67.03,372.19L69.61,373.46L70.9,373.94L74.77,374.48L76.06,373.94L83.79,373.03L85.08,373.37L88.95,373.19L90.24,373.46L97.97,372.52L99.26,371.65L103.13,370.62L104.42,368.99L107,367.58L108.29,369.69L113.44,368.21L114.73,365.59L117.31,365.65L118.6,364.98L119.89,365.2L121.18,362.78L122.47,362.69L123.76,364.5L125.05,363.45L126.34,360.55L130.2,361.67L131.49,362.81L132.78,360.88L134.07,361.06L137.94,361.73L139.23,360.97L140.52,359.62L141.8,360.67L155.99,356.84L157.27,356.96L159.85,358.38L161.14,358.41L165.01,358.98L166.3,360.79L171.45,362.63L172.74,362.75L175.32,362.96L176.61,364.32L179.19,366.43L180.48,367.16L184.35,368.9L185.64,368.3L194.66,368.39L195.95,368.96L203.68,370.32L204.97,369.69L210.13,368.78L211.42,367.1L214,366.1L215.29,365.77L220.44,364.11L221.73,363.54L226.89,359.1L228.18,359.14L233.33,352.92L234.62,352.59L237.2,351.84L238.49,357.69L239.78,355.91L241.07,355.91L242.36,356.54L243.65,356.18L246.22,356.96L247.51,351.54L250.09,355.79L251.38,356.27L253.96,357.24L255.25,357.08L257.83,356.21L259.12,355.49L262.98,354.16L264.27,354.28L270.72,359.47L272.01,361.55L273.3,361.61L274.59,362.81L279.74,366.16L281.03,366.19L282.32,366.04L283.61,366.97L284.9,368.06L286.19,367.82L288.77,370.65L290.06,369.84L291.34,369.99L292.63,371.38L293.92,371.35L295.21,372.19L296.5,371.17L297.79,371.8L300.37,372.28L301.66,373.76L302.95,372.79L304.24,373.37L309.39,373.34L310.68,371.8L311.97,373.46L313.26,373.52L318.42,374.48L319.71,375.57L330.02,378.13L331.31,378.16L335.17,378.58L336.46,378.58L339.04,378.79L340.33,378.61L354.51,378.49L355.8,377.8L359.67,375.93L360.96,375.06L363.54,374.51L364.83,372.73L366.11,370.92L367.4,371.41L371.27,362.84L372.56,362.69L376.43,342.37L377.72,339.11L380.29,331.94L381.58,331.52L384.16,326.03L385.45,326.42L388.03,326.6L389.32,327.72L390.61,327.54L391.9,329.71L394.48,332.12L395.76,331.4L398.34,331.79L399.63,331.82L400.92,330.73L402.21,331.85L404.79,334.35L406.08,336.37L408.66,335.62L409.94,338.18L412.52,338.51L413.81,339.81L417.68,343.55L418.97,346.86L424.13,355.64L425.41,355.49L426.7,355.64L427.99,357.33L434.44,362.51L435.73,362.6L442.17,367.55L443.46,368.24L444.75,368.12L446.04,369.54L447.33,370.71L448.62,370.62L453.78,371.92L455.06,373.07L457.64,373.82L458.93,373.25L462.8,373.49L464.09,372.31L466.67,372.1L467.96,372.4L470.53,372.46L471.82,372.58L474.4,374.18L475.69,373.94L482.14,374.63L483.43,374.39L491.16,375.69L492.45,375.18L500.18,373.22L501.47,373.64L506.63,374.15L507.92,374.15L509.21,375.87L510.5,375.48L516.94,374.72L518.23,372.46L520.81,371.71L522.1,372.73L523.39,371.04L524.68,371.26L525.97,371.11L527.26,370.05L529.83,368.36L531.12,365.35L532.41,365.14L533.7,363.93L536.28,363.3L537.57,361.64L542.73,356.21L544.01,356.03L546.59,348.43L547.88,344.96L550.46,338.96L551.75,336.58L553.04,336.22L554.33,331.64L556.91,325.24L558.2,324.88L559.48,322.02L560.77,321.96L562.06,321.66L563.35,319L564.64,317.07L565.93,317.16L567.22,316.56L568.51,317.47L569.8,316.05L571.09,315.93L572.38,317.31L573.66,317.35L574.95,314.09L576.24,307.58L577.53,303.75L578.82,308.06L580.11,306.82L581.4,287.16L586.56,231.99L587.85,231.26L589.13,229.51L590.42,199.36L593,172.71L594.29,165.5L595.58,157.66L596.87,137.25L598.16,138.15L599.45,140.93L600.74,146.39L602.03,140.27L603.31,138.12L604.6,131.82L607.18,122.96L608.47,107.79L614.92,28.16L616.21,25.42L617.5,10.34L618.78,4.25L620.07,0L621.36,0.27L622.65,5.28L623.94,6.93L625.23,6.51L626.52,15.17L632.97,82.55L634.25,86.69L636.83,126.58L638.12,139.63L641.99,170.51L643.28,172.89L645.86,207.08L647.15,221.25L649.72,243.59L651.01,248.57L652.3,251.28L653.59,263.01L657.46,283.64L658.75,290.48L660.04,296.27L661.33,296.21L662.62,305.25L663.9,308.27L666.48,314.93L667.77,317.19L670.35,318.94L671.64,318.82L672.93,320.99L674.22,320.54L675.51,320.84L676.8,319.15L678.08,318.91" style="vector-effect: non-scaling-stroke; fill: none; stroke: rgb(8, 115, 191); stroke-opacity: 1; stroke-width: 0.5px; opacity: 1;"/></g><g class="points"/><g class="text"/></g><g class="trace scatter tracef64b86" style="stroke-miterlimit: 2;"><g class="fills"><g><path class="js-fill" d="M690.98,380L678.08,380L678.08,318.91L679.37,318.58L680.66,316.44L684.53,306.1L685.82,305.47L687.11,302.09L688.4,302L690.98,285.75" style="fill: rgb(8, 115, 191); fill-opacity: 0.4; stroke-width: 0;"/></g></g><g class="errorbars"/><g class="lines"><path class="js-line" d="M678.08,318.91L679.37,318.58L680.66,316.44L684.53,306.1L685.82,305.47L687.11,302.09L688.4,302L690.98,285.75" style="vector-effect: non-scaling-stroke; fill: none; stroke: rgb(8, 115, 191); stroke-opacity: 1; stroke-width: 2px; opacity: 1;"/></g><g class="points"/><g class="text"/></g><g class="trace scatter trace47cb36" style="stroke-miterlimit: 2; opacity: 1;"><g class="fills"/><g class="errorbars"/><g class="lines"/><g class="points"><path class="point" transform="translate(690.98,285.75)" d="M15,0A15,15 0 1,1 0,-15A15,15 0 0,1 15,0Z" style="opacity: 1; stroke-width: 0px; fill: rgb(8, 115, 191); fill-opacity: 1;"/></g><g class="text"/></g></g></g><g class="overplot"/><path class="xlines-above crisp" style="fill: none; stroke-width: 1px; stroke: rgb(0, 0, 0); stroke-opacity: 0;" d=""/><path class="ylines-above crisp" style="fill: none;" d="M0,0"/><g class="overlines-above"/><g class="xaxislayer-above"><path class="xtick ticks crisp" d="M0,450v-5" transform="translate(92.53999999999999,0)" style="stroke: rgb(68, 68, 68); stroke-opacity: 1; stroke-width: 1px;"/><path class="xtick ticks crisp" d="M0,450v-5" transform="translate(171.18,0)" style="stroke: rgb(68, 68, 68); stroke-opacity: 1; stroke-width: 1px;"/><path class="xtick ticks crisp" d="M0,450v-5" transform="translate(247.24,0)" style="stroke: rgb(68, 68, 68); stroke-opacity: 1; stroke-width: 1px;"/><path class="xtick ticks crisp" d="M0,450v-5" transform="translate(325.87,0)" style="stroke: rgb(68, 68, 68); stroke-opacity: 1; stroke-width: 1px;"/><path class="xtick ticks crisp" d="M0,450v-5" transform="translate(404.51,0)" style="stroke: rgb(68, 68, 68); stroke-opacity: 1; stroke-width: 1px;"/><path class="xtick ticks crisp" d="M0,450v-5" transform="translate(484.44,0)" style="stroke: rgb(68, 68, 68); stroke-opacity: 1; stroke-width: 1px;"/><path class="xtick ticks crisp" d="M0,450v-5" transform="translate(563.08,0)" style="stroke: rgb(68, 68, 68); stroke-opacity: 1; stroke-width: 1px;"/><path class="xtick ticks crisp" d="M0,450v-5" transform="translate(641.71,0)" style="stroke: rgb(68, 68, 68); stroke-opacity: 1; stroke-width: 1px;"/><path class="xtick ticks crisp" d="M0,450v-5" transform="translate(717.77,0)" style="stroke: rgb(68, 68, 68); stroke-opacity: 1; stroke-width: 1px;"/><g class="xtick"><text text-anchor="middle" x="0" y="469" transform="translate(92.53999999999999,0)" style="font-family: 'Open Sans', verdana, arial, sans-serif; font-size: 18px; fill: rgb(42, 63, 95); fill-opacity: 1; white-space: pre;">01/11</text></g><g class="xtick"><text text-anchor="middle" x="0" y="469" transform="translate(171.18,0)" style="font-family: 'Open Sans', verdana, arial, sans-serif; font-size: 18px; fill: rgb(42, 63, 95); fill-opacity: 1; white-space: pre;">01/01</text></g><g class="xtick"><text text-anchor="middle" x="0" y="469" transform="translate(247.24,0)" style="font-family: 'Open Sans', verdana, arial, sans-serif; font-size: 18px; fill: rgb(42, 63, 95); fill-opacity: 1; white-space: pre;">01/03</text></g><g class="xtick"><text text-anchor="middle" x="0" y="469" transform="translate(325.87,0)" style="font-family: 'Open Sans', verdana, arial, sans-serif; font-size: 18px; fill: rgb(42, 63, 95); fill-opacity: 1; white-space: pre;">01/05</text></g><g class="xtick"><text text-anchor="middle" x="0" y="469" transform="translate(404.51,0)" style="font-family: 'Open Sans', verdana, arial, sans-serif; font-size: 18px; fill: rgb(42, 63, 95); fill-opacity: 1; white-space: pre;">01/07</text></g><g class="xtick"><text text-anchor="middle" x="0" y="469" transform="translate(484.44,0)" style="font-family: 'Open Sans', verdana, arial, sans-serif; font-size: 18px; fill: rgb(42, 63, 95); fill-opacity: 1; white-space: pre;">01/09</text></g><g class="xtick"><text text-anchor="middle" x="0" y="469" transform="translate(563.08,0)" style="font-family: 'Open Sans', verdana, arial, sans-serif; font-size: 18px; fill: rgb(42, 63, 95); fill-opacity: 1; white-space: pre;">01/11</text></g><g class="xtick"><text text-anchor="middle" x="0" y="469" transform="translate(641.71,0)" style="font-family: 'Open Sans', verdana, arial, sans-serif; font-size: 18px; fill: rgb(42, 63, 95); fill-opacity: 1; white-space: pre;">01/01</text></g><g class="xtick"><text text-anchor="middle" x="0" y="469" transform="translate(717.77,0)" style="font-family: 'Open Sans', verdana, arial, sans-serif; font-size: 18px; fill: rgb(42, 63, 95); fill-opacity: 1; white-space: pre;">01/03</text></g></g><g class="yaxislayer-above"/><g class="overaxes-above"/></g></g><g class="polarlayer"/><g class="ternarylayer"/><g class="geolayer"/><g class="funnelarealayer"/><g class="pielayer"/><g class="treemaplayer"/><g class="sunburstlayer"/><g class="glimages"/><defs id="topdefs-2665fd"><g class="clips"/></defs><g class="layer-above"><g class="imagelayer"/><g class="shapelayer"><path data-index="0" fill-rule="evenodd" d="M-674.49,444.38L267.86,444.38" clip-path="url('#clip2665fdxy')" style="opacity: 1; stroke: rgb(255, 0, 0); stroke-opacity: 1; fill: rgb(0, 0, 0); fill-opacity: 0; stroke-dasharray: 3px, 3px; stroke-width: 1.5px;"/></g></g><g class="infolayer"><g class="g-gtitle"><text class="gtitle" x="375" y="25" text-anchor="middle" dy="0.7em" style="font-family: 'Open Sans', verdana, arial, sans-serif; font-size: 50px; fill: rgb(42, 63, 95); opacity: 1; font-weight: normal; white-space: pre;"><tspan style="font-weight:bold">Aude (11)</tspan></text></g><g class="g-xtitle"/><g class="annotation" data-index="0" style="opacity: 1;"><g class="annotation-text-g" transform="rotate(0,698.98,295.75)"><g class="cursor-pointer" transform="translate(641, 260)"><rect class="bg" x="0.5" y="0.5" width="115" height="71" style="stroke-width: 1px; stroke: rgb(0, 0, 0); stroke-opacity: 0; fill: rgb(255, 255, 255); fill-opacity: 0.6;"/><text class="annotation-text" text-anchor="middle" x="57.8125" y="55.5" style="font-family: 'Open Sans', verdana, arial, sans-serif; font-size: 50px; fill: rgb(8, 115, 191); fill-opacity: 1; white-space: pre;"> <tspan style="font-weight:bold">838 </tspan></text></g></g><g class="annotation-arrow-g" style="opacity: 1;"><path d="M727.38,331.25L738.98,345.75" style="stroke-width: 1px; stroke: rgb(8, 115, 191); stroke-opacity: 1; stroke-dasharray: 0px, 0px, 18.569px, 18.569px;"/></g></g></g></svg>