<svg class="main-svg" xmlns="http://www.w3.org/2000/svg" xmlns:xlink="http://www.w3.org/1999/xlink" width="1125" height="750" style="" viewBox="0 0 750 500"><rect x="0" y="0" width="750" height="500" style="fill: rgb(0, 0, 0); fill-opacity: 0;"/><defs id="defs-9de444"><g class="clips"><clipPath id="clip9de444xyplot" class="plotclip"><rect width="692" height="380"/></clipPath><clipPath class="axesclip" id="clip9de444x"><rect x="50" y="0" width="692" height="500"/></clipPath><clipPath class="axesclip" id="clip9de444y"><rect x="0" y="70" width="750" height="380"/></clipPath><clipPath class="axesclip" id="clip9de444xy"><rect x="50" y="70" width="692" height="380"/></clipPath></g><g class="gradients"/></defs><g class="bglayer"><rect class="bg" x="50" y="70" width="692" height="380" style="fill: rgb(0, 0, 0); fill-opacity: 0; stroke-width: 0;"/></g><g class="layer-below"><g class="imagelayer"/><g class="shapelayer"/></g><g class="cartesianlayer"><g class="subplot xy"><g class="layer-subplot"><g class="shapelayer"/><g class="imagelayer"/></g><g class="gridlayer"><g class="x"><path class="xgrid crisp" transform="translate(93.09,0)" d="M0,70v380" style="stroke: rgb(255, 255, 255); stroke-opacity: 1; stroke-width: 1px;"/><path class="xgrid crisp" transform="translate(172.73000000000002,0)" d="M0,70v380" style="stroke: rgb(255, 255, 255); stroke-opacity: 1; stroke-width: 1px;"/><path class="xgrid crisp" transform="translate(249.77,0)" d="M0,70v380" style="stroke: rgb(255, 255, 255); stroke-opacity: 1; stroke-width: 1px;"/><path class="xgrid crisp" transform="translate(329.41,0)" d="M0,70v380" style="stroke: rgb(255, 255, 255); stroke-opacity: 1; stroke-width: 1px;"/><path class="xgrid crisp" transform="translate(409.06,0)" d="M0,70v380" style="stroke: rgb(255, 255, 255); stroke-opacity: 1; stroke-width: 1px;"/><path class="xgrid crisp" transform="translate(490.01,0)" d="M0,70v380" style="stroke: rgb(255, 255, 255); stroke-opacity: 1; stroke-width: 1px;"/><path class="xgrid crisp" transform="translate(569.65,0)" d="M0,70v380" style="stroke: rgb(255, 255, 255); stroke-opacity: 1; stroke-width: 1px;"/><path class="xgrid crisp" transform="translate(649.3,0)" d="M0,70v380" style="stroke: rgb(255, 255, 255); stroke-opacity: 1; stroke-width: 1px;"/><path class="xgrid crisp" transform="translate(726.33,0)" d="M0,70v380" style="stroke: rgb(255, 255, 255); stroke-opacity: 1; stroke-width: 1px;"/></g><g class="y"/></g><g class="zerolinelayer"/><path class="xlines-below"/><path class="ylines-below"/><g class="overlines-below"/><g class="xaxislayer-below"/><g class="yaxislayer-below"/><g class="overaxes-below"/><g class="plot" transform="translate(50, 70)" clip-path="url('#clip9de444xyplot')"><g class="scatterlayer mlayer"><g class="trace scatter tracec0795c" style="stroke-miterlimit: 2;"><g class="fills"><g><path class="js-fill" d="M669.8,380L-177.57,380L-177.57,376.08L-172.35,377.67L-171.04,377.67L-164.51,379.09L-163.21,379.03L-114.9,379.72L-113.59,379.72L-48.31,378.86L-47,378.47L-39.17,378.81L-37.86,379.03L-31.34,378.47L-30.03,377.9L-26.11,377.22L-24.81,377.27L-14.36,376.7L-13.06,377.5L-3.92,377.16L-2.61,376.14L0,375.17L1.31,374.66L6.53,374.55L7.83,375.17L9.14,374.26L10.45,374.6L13.06,373.86L14.36,373.58L15.67,373.35L16.97,371.93L19.58,370.4L20.89,370.34L26.11,364.77L27.42,362.39L28.72,360.68L30.03,360.34L33.95,350.11L35.25,349.26L37.86,346.02L39.17,345.97L41.78,342.22L43.09,342.05L44.39,339.72L45.7,338.98L47,340.57L48.31,340.51L50.92,346.19L52.23,351.48L56.14,358.13L57.45,358.58L60.06,361.65L61.37,359.32L63.98,361.42L65.28,361.42L66.59,361.25L67.89,361.93L69.2,362.95L70.51,362.73L71.81,363.41L73.12,363.01L75.73,363.86L77.03,364.32L78.34,363.75L79.65,364.03L82.26,362.73L83.56,361.42L84.87,361.36L86.17,359.94L87.48,358.13L88.78,358.18L90.09,357.67L91.4,355.11L92.7,353.75L94.01,353.52L96.62,350.06L97.92,347.78L99.23,345.11L100.54,346.88L101.84,348.07L103.15,348.24L104.45,347.16L105.76,347.84L107.06,346.88L108.37,350.06L109.68,354.55L110.98,353.47L112.29,353.35L113.59,354.94L117.51,356.14L118.82,355.8L120.12,354.83L121.43,354.94L124.04,351.93L125.34,352.67L126.65,352.56L127.95,349.15L129.26,351.02L130.57,350.91L134.48,355.06L135.79,354.43L139.71,356.19L141.01,355.97L142.32,356.25L143.62,354.38L148.85,354.38L150.15,355L152.76,360.85L154.07,361.76L156.68,362.1L157.98,362.05L159.29,364.43L160.6,364.83L163.21,365.57L164.51,366.36L165.82,365.06L167.12,365.34L171.04,365L172.35,365.74L173.65,365.45L174.96,367.39L178.88,367.22L180.18,368.18L181.49,367.39L182.79,368.69L189.32,368.24L190.63,369.38L191.93,368.24L193.24,368.13L194.54,368.01L195.85,368.81L203.68,364.89L204.99,363.01L206.29,362.73L207.6,360.74L211.52,359.43L212.82,359.55L219.35,351.99L220.66,352.05L221.96,352.22L223.27,351.02L227.18,349.72L228.49,347.78L229.8,346.88L231.1,347.05L233.71,343.75L235.02,343.01L237.63,345.34L238.94,344.66L240.24,343.64L241.55,352.67L242.85,348.69L244.16,348.92L246.77,346.08L248.08,347.33L249.38,348.07L250.69,341.76L251.99,346.82L253.3,347.61L255.91,351.76L257.22,351.48L258.52,351.42L259.83,352.44L261.13,352.16L262.44,352.67L263.74,351.7L265.05,352.27L267.66,352.27L268.97,353.24L272.88,359.72L274.19,360.63L275.49,363.07L276.8,363.18L282.02,365.8L283.33,366.99L285.94,367.56L287.25,369.2L291.16,371.88L292.47,371.25L295.08,370.8L296.38,371.19L299,371.02L300.3,369.6L302.91,370.63L304.22,370.63L305.52,373.24L306.83,372.95L309.44,372.1L310.75,372.95L314.66,371.36L315.97,373.07L318.58,374.89L319.89,374.6L322.5,375.4L323.8,375.8L326.42,375.8L327.72,376.53L330.33,377.56L331.64,377.61L338.17,378.41L339.47,378.24L343.39,378.92L344.69,379.09L351.22,379.6L352.53,379.6L370.81,378.98L372.11,378.92L374.72,378.58L376.03,377.73L377.34,377.61L378.64,376.53L383.86,373.52L385.17,374.15L390.39,373.86L391.7,373.3L393,374.26L394.31,373.92L398.23,373.86L399.53,372.73L408.67,370.45L409.98,370.63L421.73,372.16L423.03,372.39L424.34,373.52L425.65,373.58L429.56,372.84L430.87,372.61L432.17,372.67L433.48,371.88L434.78,371.36L436.09,371.88L438.7,372.84L440.01,372.05L442.62,372.27L443.92,373.35L467.43,377.5L468.73,377.56L479.18,378.24L480.48,378.81L484.4,379.09L485.71,378.64L488.32,378.18L489.62,377.33L492.23,376.53L493.54,376.59L502.68,377.67L503.98,377.5L514.43,375.63L515.74,376.19L518.35,375.34L519.65,375.68L522.26,375L523.57,374.77L524.88,372.95L526.18,373.35L528.79,373.35L530.1,373.81L534.02,372.61L535.32,371.19L537.93,368.07L539.24,366.42L541.85,365.23L543.15,362.95L544.46,362.22L545.77,359.83L549.68,354.38L550.99,354.49L553.6,352.84L554.91,353.3L557.52,352.33L558.82,352.44L560.13,352.67L561.43,350.17L564.05,348.35L565.35,347.95L569.27,347.27L570.57,346.88L571.88,348.01L573.18,347.61L578.41,348.01L579.71,349.15L583.63,345.4L584.94,344.83L586.24,347.22L587.55,346.25L590.16,331.7L591.46,317.9L594.08,296.65L595.38,296.88L596.69,294.03L597.99,260.45L599.3,243.01L600.6,235.74L603.22,224.49L604.52,207.61L605.83,209.32L607.13,213.98L608.44,218.64L609.74,218.35L613.66,196.7L614.97,195.57L620.19,116.19L621.49,99.77L622.8,82.56L624.11,78.52L625.41,46.02L626.72,33.35L629.33,7.78L630.63,3.07L631.94,0L633.25,1.53L635.86,14.89L637.16,31.59L641.08,71.65L642.38,73.69L645,140.45L646.3,165.23L648.91,202.22L650.22,212.44L651.52,214.49L652.83,235.63L658.05,263.69L659.36,268.41L660.66,268.18L661.97,274.89L667.19,294.09L668.5,296.65L669.8,297.56" style="fill: rgb(8, 115, 191); fill-opacity: 0.2; stroke-width: 0;"/></g></g><g class="errorbars"/><g class="lines"><path class="js-line" d="M-177.57,376.08L-172.35,377.67L-171.04,377.67L-164.51,379.09L-163.21,379.03L-114.9,379.72L-113.59,379.72L-48.31,378.86L-47,378.47L-39.17,378.81L-37.86,379.03L-31.34,378.47L-30.03,377.9L-26.11,377.22L-24.81,377.27L-14.36,376.7L-13.06,377.5L-3.92,377.16L-2.61,376.14L0,375.17L1.31,374.66L6.53,374.55L7.83,375.17L9.14,374.26L10.45,374.6L13.06,373.86L14.36,373.58L15.67,373.35L16.97,371.93L19.58,370.4L20.89,370.34L26.11,364.77L27.42,362.39L28.72,360.68L30.03,360.34L33.95,350.11L35.25,349.26L37.86,346.02L39.17,345.97L41.78,342.22L43.09,342.05L44.39,339.72L45.7,338.98L47,340.57L48.31,340.51L50.92,346.19L52.23,351.48L56.14,358.13L57.45,358.58L60.06,361.65L61.37,359.32L63.98,361.42L65.28,361.42L66.59,361.25L67.89,361.93L69.2,362.95L70.51,362.73L71.81,363.41L73.12,363.01L75.73,363.86L77.03,364.32L78.34,363.75L79.65,364.03L82.26,362.73L83.56,361.42L84.87,361.36L86.17,359.94L87.48,358.13L88.78,358.18L90.09,357.67L91.4,355.11L92.7,353.75L94.01,353.52L96.62,350.06L97.92,347.78L99.23,345.11L100.54,346.88L101.84,348.07L103.15,348.24L104.45,347.16L105.76,347.84L107.06,346.88L108.37,350.06L109.68,354.55L110.98,353.47L112.29,353.35L113.59,354.94L117.51,356.14L118.82,355.8L120.12,354.83L121.43,354.94L124.04,351.93L125.34,352.67L126.65,352.56L127.95,349.15L129.26,351.02L130.57,350.91L134.48,355.06L135.79,354.43L139.71,356.19L141.01,355.97L142.32,356.25L143.62,354.38L148.85,354.38L150.15,355L152.76,360.85L154.07,361.76L156.68,362.1L157.98,362.05L159.29,364.43L160.6,364.83L163.21,365.57L164.51,366.36L165.82,365.06L167.12,365.34L171.04,365L172.35,365.74L173.65,365.45L174.96,367.39L178.88,367.22L180.18,368.18L181.49,367.39L182.79,368.69L189.32,368.24L190.63,369.38L191.93,368.24L193.24,368.13L194.54,368.01L195.85,368.81L203.68,364.89L204.99,363.01L206.29,362.73L207.6,360.74L211.52,359.43L212.82,359.55L219.35,351.99L220.66,352.05L221.96,352.22L223.27,351.02L227.18,349.72L228.49,347.78L229.8,346.88L231.1,347.05L233.71,343.75L235.02,343.01L237.63,345.34L238.94,344.66L240.24,343.64L241.55,352.67L242.85,348.69L244.16,348.92L246.77,346.08L248.08,347.33L249.38,348.07L250.69,341.76L251.99,346.82L253.3,347.61L255.91,351.76L257.22,351.48L258.52,351.42L259.83,352.44L261.13,352.16L262.44,352.67L263.74,351.7L265.05,352.27L267.66,352.27L268.97,353.24L272.88,359.72L274.19,360.63L275.49,363.07L276.8,363.18L282.02,365.8L283.33,366.99L285.94,367.56L287.25,369.2L291.16,371.88L292.47,371.25L295.08,370.8L296.38,371.19L299,371.02L300.3,369.6L302.91,370.63L304.22,370.63L305.52,373.24L306.83,372.95L309.44,372.1L310.75,372.95L314.66,371.36L315.97,373.07L318.58,374.89L319.89,374.6L322.5,375.4L323.8,375.8L326.42,375.8L327.72,376.53L330.33,377.56L331.64,377.61L338.17,378.41L339.47,378.24L343.39,378.92L344.69,379.09L351.22,379.6L352.53,379.6L370.81,378.98L372.11,378.92L374.72,378.58L376.03,377.73L377.34,377.61L378.64,376.53L383.86,373.52L385.17,374.15L390.39,373.86L391.7,373.3L393,374.26L394.31,373.92L398.23,373.86L399.53,372.73L408.67,370.45L409.98,370.63L421.73,372.16L423.03,372.39L424.34,373.52L425.65,373.58L429.56,372.84L430.87,372.61L432.17,372.67L433.48,371.88L434.78,371.36L436.09,371.88L438.7,372.84L440.01,372.05L442.62,372.27L443.92,373.35L467.43,377.5L468.73,377.56L479.18,378.24L480.48,378.81L484.4,379.09L485.71,378.64L488.32,378.18L489.62,377.33L492.23,376.53L493.54,376.59L502.68,377.67L503.98,377.5L514.43,375.63L515.74,376.19L518.35,375.34L519.65,375.68L522.26,375L523.57,374.77L524.88,372.95L526.18,373.35L528.79,373.35L530.1,373.81L534.02,372.61L535.32,371.19L537.93,368.07L539.24,366.42L541.85,365.23L543.15,362.95L544.46,362.22L545.77,359.83L549.68,354.38L550.99,354.49L553.6,352.84L554.91,353.3L557.52,352.33L558.82,352.44L560.13,352.67L561.43,350.17L564.05,348.35L565.35,347.95L569.27,347.27L570.57,346.88L571.88,348.01L573.18,347.61L578.41,348.01L579.71,349.15L583.63,345.4L584.94,344.83L586.24,347.22L587.55,346.25L590.16,331.7L591.46,317.9L594.08,296.65L595.38,296.88L596.69,294.03L597.99,260.45L599.3,243.01L600.6,235.74L603.22,224.49L604.52,207.61L605.83,209.32L607.13,213.98L608.44,218.64L609.74,218.35L613.66,196.7L614.97,195.57L620.19,116.19L621.49,99.77L622.8,82.56L624.11,78.52L625.41,46.02L626.72,33.35L629.33,7.78L630.63,3.07L631.94,0L633.25,1.53L635.86,14.89L637.16,31.59L641.08,71.65L642.38,73.69L645,140.45L646.3,165.23L648.91,202.22L650.22,212.44L651.52,214.49L652.83,235.63L658.05,263.69L659.36,268.41L660.66,268.18L661.97,274.89L667.19,294.09L668.5,296.65L669.8,297.56" style="vector-effect: non-scaling-stroke; fill: none; stroke: rgb(8, 115, 191); stroke-opacity: 1; stroke-width: 0.5px; opacity: 1;"/></g><g class="points"/><g class="text"/></g><g class="trace scatter tracedd1f59" style="stroke-miterlimit: 2;"><g class="fills"><g><path class="js-fill" d="M682.86,380L669.8,380L669.8,297.56L671.11,303.01L672.42,304.03L673.72,304.49L675.03,302.73L676.33,299.2L677.64,298.35L678.94,297.73L680.25,289.66L681.55,287.78L682.86,280.85" style="fill: rgb(8, 115, 191); fill-opacity: 0.4; stroke-width: 0;"/></g></g><g class="errorbars"/><g class="lines"><path class="js-line" d="M669.8,297.56L671.11,303.01L672.42,304.03L673.72,304.49L675.03,302.73L676.33,299.2L677.64,298.35L678.94,297.73L680.25,289.66L681.55,287.78L682.86,280.85" style="vector-effect: non-scaling-stroke; fill: none; stroke: rgb(8, 115, 191); stroke-opacity: 1; stroke-width: 2px; opacity: 1;"/></g><g class="points"/><g class="text"/></g><g class="trace scatter trace381ba5" style="stroke-miterlimit: 2; opacity: 1;"><g class="fills"/><g class="errorbars"/><g class="lines"/><g class="points"><path class="point" transform="translate(682.86,280.85)" d="M15,0A15,15 0 1,1 0,-15A15,15 0 0,1 15,0Z" style="opacity: 1; stroke-width: 0px; fill: rgb(8, 115, 191); fill-opacity: 1;"/></g><g class="text"/></g></g></g><g class="overplot"/><path class="xlines-above crisp" style="fill: none; stroke-width: 1px; stroke: rgb(0, 0, 0); stroke-opacity: 0;" d=""/><path class="ylines-above crisp" style="fill: none;" d="M0,0"/><g class="overlines-above"/><g class="xaxislayer-above"><path class="xtick ticks crisp" d="M0,450v-5" transform="translate(93.09,0)" style="stroke: rgb(68, 68, 68); stroke-opacity: 1; stroke-width: 1px;"/><path class="xtick ticks crisp" d="M0,450v-5" transform="translate(172.73000000000002,0)" style="stroke: rgb(68, 68, 68); stroke-opacity: 1; stroke-width: 1px;"/><path class="xtick ticks crisp" d="M0,450v-5" transform="translate(249.77,0)" style="stroke: rgb(68, 68, 68); stroke-opacity: 1; stroke-width: 1px;"/><path class="xtick ticks crisp" d="M0,450v-5" transform="translate(329.41,0)" style="stroke: rgb(68, 68, 68); stroke-opacity: 1; stroke-width: 1px;"/><path class="xtick ticks crisp" d="M0,450v-5" transform="translate(409.06,0)" style="stroke: rgb(68, 68, 68); stroke-opacity: 1; stroke-width: 1px;"/><path class="xtick ticks crisp" d="M0,450v-5" transform="translate(490.01,0)" style="stroke: rgb(68, 68, 68); stroke-opacity: 1; stroke-width: 1px;"/><path class="xtick ticks crisp" d="M0,450v-5" transform="translate(569.65,0)" style="stroke: rgb(68, 68, 68); stroke-opacity: 1; stroke-width: 1px;"/><path class="xtick ticks crisp" d="M0,450v-5" transform="translate(649.3,0)" style="stroke: rgb(68, 68, 68); stroke-opacity: 1; stroke-width: 1px;"/><path class="xtick ticks crisp" d="M0,450v-5" transform="translate(726.33,0)" style="stroke: rgb(68, 68, 68); stroke-opacity: 1; stroke-width: 1px;"/><g class="xtick"><text text-anchor="middle" x="0" y="469" transform="translate(93.09,0)" style="font-family: 'Open Sans', verdana, arial, sans-serif; font-size: 18px; fill: rgb(42, 63, 95); fill-opacity: 1; white-space: pre;">01/11</text></g><g class="xtick"><text text-anchor="middle" x="0" y="469" transform="translate(172.73000000000002,0)" style="font-family: 'Open Sans', verdana, arial, sans-serif; font-size: 18px; fill: rgb(42, 63, 95); fill-opacity: 1; white-space: pre;">01/01</text></g><g class="xtick"><text text-anchor="middle" x="0" y="469" transform="translate(249.77,0)" style="font-family: 'Open Sans', verdana, arial, sans-serif; font-size: 18px; fill: rgb(42, 63, 95); fill-opacity: 1; white-space: pre;">01/03</text></g><g class="xtick"><text text-anchor="middle" x="0" y="469" transform="translate(329.41,0)" style="font-family: 'Open Sans', verdana, arial, sans-serif; font-size: 18px; fill: rgb(42, 63, 95); fill-opacity: 1; white-space: pre;">01/05</text></g><g class="xtick"><text text-anchor="middle" x="0" y="469" transform="translate(409.06,0)" style="font-family: 'Open Sans', verdana, arial, sans-serif; font-size: 18px; fill: rgb(42, 63, 95); fill-opacity: 1; white-space: pre;">01/07</text></g><g class="xtick"><text text-anchor="middle" x="0" y="469" transform="translate(490.01,0)" style="font-family: 'Open Sans', verdana, arial, sans-serif; font-size: 18px; fill: rgb(42, 63, 95); fill-opacity: 1; white-space: pre;">01/09</text></g><g class="xtick"><text text-anchor="middle" x="0" y="469" transform="translate(569.65,0)" style="font-family: 'Open Sans', verdana, arial, sans-serif; font-size: 18px; fill: rgb(42, 63, 95); fill-opacity: 1; white-space: pre;">01/11</text></g><g class="xtick"><text text-anchor="middle" x="0" y="469" transform="translate(649.3,0)" style="font-family: 'Open Sans', verdana, arial, sans-serif; font-size: 18px; fill: rgb(42, 63, 95); fill-opacity: 1; white-space: pre;">01/01</text></g><g class="xtick"><text text-anchor="middle" x="0" y="469" transform="translate(726.33,0)" style="font-family: 'Open Sans', verdana, arial, sans-serif; font-size: 18px; fill: rgb(42, 63, 95); fill-opacity: 1; white-space: pre;">01/03</text></g></g><g class="yaxislayer-above"/><g class="overaxes-above"/></g></g><g class="polarlayer"/><g class="ternarylayer"/><g class="geolayer"/><g class="funnelarealayer"/><g class="pielayer"/><g class="treemaplayer"/><g class="sunburstlayer"/><g class="glimages"/><defs id="topdefs-9de444"><g class="clips"/></defs><g class="layer-above"><g class="imagelayer"/><g class="shapelayer"><path data-index="0" fill-rule="evenodd" d="M-683.78,444.84L270.65999999999997,444.84" clip-path="url('#clip9de444xy')" style="opacity: 1; stroke: rgb(255, 0, 0); stroke-opacity: 1; fill: rgb(0, 0, 0); fill-opacity: 0; stroke-dasharray: 3px, 3px; stroke-width: 1.5px;"/></g></g><g class="infolayer"><g class="g-gtitle"><text class="gtitle" x="375" y="25" text-anchor="middle" dy="0.7em" style="font-family: 'Open Sans', verdana, arial, sans-serif; font-size: 50px; fill: rgb(42, 63, 95); opacity: 1; font-weight: normal; white-space: pre;"><tspan style="font-weight:bold">Meuse (55)</tspan></text></g><g class="g-xtitle"/><g class="annotation" data-index="0" style="opacity: 1;"><g class="annotation-text-g" transform="rotate(0,690.86,290.85)"><g class="cursor-pointer" transform="translate(633, 255)"><rect class="bg" x="0.5" y="0.5" width="115" height="71" style="stroke-width: 1px; stroke: rgb(0, 0, 0); stroke-opacity: 0; fill: rgb(255, 255, 255); fill-opacity: 0.6;"/><text class="annotation-text" text-anchor="middle" x="57.8125" y="55.5" style="font-family: 'Open Sans', verdana, arial, sans-serif; font-size: 50px; fill: rgb(8, 115, 191); fill-opacity: 1; white-space: pre;"> <tspan style="font-weight:bold">960 </tspan></text></g></g><g class="annotation-arrow-g" style="opacity: 1;"><path d="M719.26,326.35L730.86,340.85" style="stroke-width: 1px; stroke: rgb(8, 115, 191); stroke-opacity: 1; stroke-dasharray: 0px, 0px, 18.569px, 18.569px;"/></g></g></g></svg>