<svg class="main-svg" xmlns="http://www.w3.org/2000/svg" xmlns:xlink="http://www.w3.org/1999/xlink" width="1125" height="750" style="" viewBox="0 0 750 500"><rect x="0" y="0" width="750" height="500" style="fill: rgb(0, 0, 0); fill-opacity: 0;"/><defs id="defs-edce46"><g class="clips"><clipPath id="clipedce46xyplot" class="plotclip"><rect width="677" height="380"/></clipPath><clipPath class="axesclip" id="clipedce46x"><rect x="50" y="0" width="677" height="500"/></clipPath><clipPath class="axesclip" id="clipedce46y"><rect x="0" y="70" width="750" height="380"/></clipPath><clipPath class="axesclip" id="clipedce46xy"><rect x="50" y="70" width="677" height="380"/></clipPath></g><g class="gradients"/></defs><g class="bglayer"><rect class="bg" x="50" y="70" width="677" height="380" style="fill: rgb(0, 0, 0); fill-opacity: 0; stroke-width: 0;"/></g><g class="layer-below"><g class="imagelayer"/><g class="shapelayer"/></g><g class="cartesianlayer"><g class="subplot xy"><g class="layer-subplot"><g class="shapelayer"/><g class="imagelayer"/></g><g class="gridlayer"><g class="x"><path class="xgrid crisp" transform="translate(52.11,0)" d="M0,70v380" style="stroke: rgb(255, 255, 255); stroke-opacity: 1; stroke-width: 1px;"/><path class="xgrid crisp" transform="translate(149.28,0)" d="M0,70v380" style="stroke: rgb(255, 255, 255); stroke-opacity: 1; stroke-width: 1px;"/><path class="xgrid crisp" transform="translate(244.33,0)" d="M0,70v380" style="stroke: rgb(255, 255, 255); stroke-opacity: 1; stroke-width: 1px;"/><path class="xgrid crisp" transform="translate(340.44,0)" d="M0,70v380" style="stroke: rgb(255, 255, 255); stroke-opacity: 1; stroke-width: 1px;"/><path class="xgrid crisp" transform="translate(437.61,0)" d="M0,70v380" style="stroke: rgb(255, 255, 255); stroke-opacity: 1; stroke-width: 1px;"/><path class="xgrid crisp" transform="translate(534.78,0)" d="M0,70v380" style="stroke: rgb(255, 255, 255); stroke-opacity: 1; stroke-width: 1px;"/><path class="xgrid crisp" transform="translate(629.83,0)" d="M0,70v380" style="stroke: rgb(255, 255, 255); stroke-opacity: 1; stroke-width: 1px;"/><path class="xgrid crisp" transform="translate(725.94,0)" d="M0,70v380" style="stroke: rgb(255, 255, 255); stroke-opacity: 1; stroke-width: 1px;"/></g><g class="y"/></g><g class="zerolinelayer"/><path class="xlines-below"/><path class="ylines-below"/><g class="overlines-below"/><g class="xaxislayer-below"/><g class="yaxislayer-below"/><g class="overaxes-below"/><g class="plot" transform="translate(50, 70)" clip-path="url('#clipedce46xyplot')"><g class="scatterlayer mlayer"><g class="trace scatter trace1082ae" style="stroke-miterlimit: 2;"><g class="fills"><g><path class="js-fill" d="M659.05,380L-143.64,380L-143.64,379.84L-119.35,379.93L-118.29,379.91L-39.08,378.95L-38.02,378.69L-31.68,378.51L-30.63,378.53L-26.4,378.05L-25.35,377.64L-8.45,376.31L-7.39,376.66L2.11,376.66L3.17,375.81L7.39,372.9L8.45,372.93L11.62,372.1L12.67,371.62L15.84,368.9L16.9,368.6L23.24,358.48L24.29,358.8L25.35,358.48L26.4,356.74L28.52,356.6L29.57,357.13L30.63,357.75L31.68,357.24L33.8,355.23L34.85,354.49L39.08,356.23L40.13,358L41.19,359.85L42.25,363.61L43.3,363.81L44.36,365.23L46.47,365.8L47.53,366.15L48.58,367.25L49.64,365.99L51.75,368.14L52.81,368.44L53.86,368.44L54.92,370.52L57.03,371.99L58.09,372.35L60.2,373.7L61.26,373.84L63.37,374.89L64.43,374.89L66.54,376.15L67.59,376.2L70.76,375.4L71.82,375.58L77.1,375.03L78.16,375.12L81.32,374.67L82.38,374.37L83.44,374.37L84.49,373.36L86.61,372.03L87.66,371.55L88.72,372.81L89.77,372.7L91.89,372.31L92.94,370.86L96.11,369.83L97.17,368.6L98.22,368.71L99.28,367.48L101.39,366.31L102.45,365.32L103.5,362.53L104.56,362.76L107.73,361.52L108.78,360.7L111.95,358.89L113.01,358.64L115.12,354.22L116.18,353.78L118.29,353.46L119.35,352.39L120.4,352.82L121.46,354.45L123.57,357.06L124.63,357.38L126.74,358.78L127.8,358.78L129.91,359.76L130.96,360.2L133.08,360.9L134.13,361.75L136.24,362.62L137.3,363.93L140.47,366.38L141.53,366.63L143.64,367.06L144.69,367.54L147.86,368.25L148.92,368.3L155.26,368.9L156.31,369.63L160.54,369.7L161.59,369.86L164.76,369.1L165.82,369.33L170.04,369.47L171.1,369.26L174.27,368.12L175.32,367.36L178.49,365.85L179.55,365.83L184.83,360.42L185.88,358.75L186.94,358.89L188,357.93L190.11,355.16L191.17,355.23L194.33,354.79L195.39,359.14L196.45,356.85L197.5,357.13L199.61,356.33L200.67,356.17L201.73,356.1L202.78,350.56L204.9,354.36L205.95,354.45L209.12,354.81L210.18,355.71L213.34,353.88L214.4,354.4L217.57,355.8L218.63,356.67L222.85,362.16L223.91,362.21L228.13,361.98L229.19,362.74L234.47,362.48L235.52,364.84L236.58,364.71L237.64,363.79L239.75,364.16L240.8,364.98L241.86,366.38L242.92,364.43L245.03,364.91L246.09,365L247.14,368.37L248.2,368.39L253.48,369.77L254.54,367.87L256.65,369.74L257.7,370.86L259.82,372.19L260.87,372.35L262.98,373.89L264.04,374.37L267.21,375.83L268.27,375.9L271.43,377.46L272.49,377.6L288.33,379.29L289.39,379.22L295.73,378.58L296.78,378.31L298.89,377.48L299.95,376.89L301.01,377L302.06,376.22L307.34,373.15L308.4,372.17L312.62,371.46L313.68,372.26L317.9,370.98L318.96,370.59L321.07,369.56L322.13,368.64L325.3,367.68L326.35,367.66L328.47,367.02L329.52,366.81L331.63,367.43L332.69,367.68L335.86,368.96L336.92,369.51L337.97,369.06L339.03,369.47L343.25,370.34L344.31,371.12L348.53,372.93L349.59,372.95L354.87,374.62L355.93,374.92L356.98,374.85L358.04,375.63L364.38,376.68L365.43,376.61L369.66,377.23L370.71,377.41L398.17,378.67L399.23,378.44L410.85,377.21L411.9,376.89L416.13,376.47L417.18,377.18L419.3,376.79L420.35,376.57L426.69,374.57L427.75,375.24L429.86,372.93L430.91,372.86L436.2,368.99L437.25,369.17L438.31,369.1L439.36,367.61L444.64,360.68L445.7,360.7L447.81,358.62L448.87,358.25L450.98,358.25L452.04,357.26L454.15,356.69L455.21,355.73L457.32,354.15L458.37,354.22L460.49,353.88L461.54,352.8L465.77,354.97L466.82,355.02L468.94,354.36L469.99,352.23L472.1,347.21L473.16,342.75L474.22,344.58L475.27,343.16L478.44,298.86L479.5,281.21L480.55,265.96L481.61,264.81L482.67,262.29L483.72,237.84L485.83,212.77L486.89,210.34L487.95,207.14L489,189.37L490.06,187.68L491.12,184.01L492.17,184.08L493.23,179.2L497.45,143.42L498.51,120.64L502.73,50.99L503.79,41.37L504.85,38.53L505.9,22.48L506.96,12.18L508.01,11.2L510.13,0.46L511.18,0L512.24,1.17L513.29,4.12L515.41,23.86L516.46,38.97L518.58,74.3L519.63,81.49L521.74,153.68L522.8,178.38L525.97,225.84L527.02,227.1L529.14,246.22L530.19,253.75L532.31,263.35L533.36,268.34L534.42,269.37L535.47,275.37L537.59,283.54L538.64,286.43L539.7,289.95L540.76,290.82L541.81,292.7L542.87,292.81L547.09,284.71L548.15,283.17L550.26,280.36L551.32,277.45L553.43,269.67L554.49,265.02L555.54,261.49L556.6,261.01L558.71,245.95L559.77,240.7L562.93,229.64L563.99,227.03L569.27,168.79L570.33,163.61L571.38,164.99L572.44,154.41L574.55,147.61L575.61,148.34L577.72,155.35L578.78,155.87L581.95,175.63L583,178.36L584.06,178.04L585.11,179.55L586.17,180.81L587.23,190.95L590.39,215.06L591.45,223.03L592.51,227.31L593.56,228.18L594.62,262.91L595.68,257.46L599.9,281.53L600.96,281.66L602.01,266.69L603.07,288.1L605.18,302.34L606.24,308.59L607.29,312.96L608.35,314.15L610.46,322.74L611.52,323.93L614.69,327.89L615.74,328.14L617.85,331.03L618.91,334.16L622.08,339.36L623.14,339.68L625.25,344.33L626.3,344.88L629.47,349.02L630.53,349.32L634.75,360.38L635.81,360.03L637.92,360.33L638.98,359.67L640.03,360.03L641.09,359.28L642.15,355.52L643.2,356.39L645.32,356.33L646.37,361.52L648.48,354.52L649.54,351.43L651.65,346.53L652.71,346.14L653.76,336.38L654.82,336.73L655.88,333.54L656.93,333.13L659.05,330.32" style="fill: rgb(8, 115, 191); fill-opacity: 0.2; stroke-width: 0;"/></g></g><g class="errorbars"/><g class="lines"><path class="js-line" d="M-143.64,379.84L-119.35,379.93L-118.29,379.91L-39.08,378.95L-38.02,378.69L-31.68,378.51L-30.63,378.53L-26.4,378.05L-25.35,377.64L-8.45,376.31L-7.39,376.66L2.11,376.66L3.17,375.81L7.39,372.9L8.45,372.93L11.62,372.1L12.67,371.62L15.84,368.9L16.9,368.6L23.24,358.48L24.29,358.8L25.35,358.48L26.4,356.74L28.52,356.6L29.57,357.13L30.63,357.75L31.68,357.24L33.8,355.23L34.85,354.49L39.08,356.23L40.13,358L41.19,359.85L42.25,363.61L43.3,363.81L44.36,365.23L46.47,365.8L47.53,366.15L48.58,367.25L49.64,365.99L51.75,368.14L52.81,368.44L53.86,368.44L54.92,370.52L57.03,371.99L58.09,372.35L60.2,373.7L61.26,373.84L63.37,374.89L64.43,374.89L66.54,376.15L67.59,376.2L70.76,375.4L71.82,375.58L77.1,375.03L78.16,375.12L81.32,374.67L82.38,374.37L83.44,374.37L84.49,373.36L86.61,372.03L87.66,371.55L88.72,372.81L89.77,372.7L91.89,372.31L92.94,370.86L96.11,369.83L97.17,368.6L98.22,368.71L99.28,367.48L101.39,366.31L102.45,365.32L103.5,362.53L104.56,362.76L107.73,361.52L108.78,360.7L111.95,358.89L113.01,358.64L115.12,354.22L116.18,353.78L118.29,353.46L119.35,352.39L120.4,352.82L121.46,354.45L123.57,357.06L124.63,357.38L126.74,358.78L127.8,358.78L129.91,359.76L130.96,360.2L133.08,360.9L134.13,361.75L136.24,362.62L137.3,363.93L140.47,366.38L141.53,366.63L143.64,367.06L144.69,367.54L147.86,368.25L148.92,368.3L155.26,368.9L156.31,369.63L160.54,369.7L161.59,369.86L164.76,369.1L165.82,369.33L170.04,369.47L171.1,369.26L174.27,368.12L175.32,367.36L178.49,365.85L179.55,365.83L184.83,360.42L185.88,358.75L186.94,358.89L188,357.93L190.11,355.16L191.17,355.23L194.33,354.79L195.39,359.14L196.45,356.85L197.5,357.13L199.61,356.33L200.67,356.17L201.73,356.1L202.78,350.56L204.9,354.36L205.95,354.45L209.12,354.81L210.18,355.71L213.34,353.88L214.4,354.4L217.57,355.8L218.63,356.67L222.85,362.16L223.91,362.21L228.13,361.98L229.19,362.74L234.47,362.48L235.52,364.84L236.58,364.71L237.64,363.79L239.75,364.16L240.8,364.98L241.86,366.38L242.92,364.43L245.03,364.91L246.09,365L247.14,368.37L248.2,368.39L253.48,369.77L254.54,367.87L256.65,369.74L257.7,370.86L259.82,372.19L260.87,372.35L262.98,373.89L264.04,374.37L267.21,375.83L268.27,375.9L271.43,377.46L272.49,377.6L288.33,379.29L289.39,379.22L295.73,378.58L296.78,378.31L298.89,377.48L299.95,376.89L301.01,377L302.06,376.22L307.34,373.15L308.4,372.17L312.62,371.46L313.68,372.26L317.9,370.98L318.96,370.59L321.07,369.56L322.13,368.64L325.3,367.68L326.35,367.66L328.47,367.02L329.52,366.81L331.63,367.43L332.69,367.68L335.86,368.96L336.92,369.51L337.97,369.06L339.03,369.47L343.25,370.34L344.31,371.12L348.53,372.93L349.59,372.95L354.87,374.62L355.93,374.92L356.98,374.85L358.04,375.63L364.38,376.68L365.43,376.61L369.66,377.23L370.71,377.41L398.17,378.67L399.23,378.44L410.85,377.21L411.9,376.89L416.13,376.47L417.18,377.18L419.3,376.79L420.35,376.57L426.69,374.57L427.75,375.24L429.86,372.93L430.91,372.86L436.2,368.99L437.25,369.17L438.31,369.1L439.36,367.61L444.64,360.68L445.7,360.7L447.81,358.62L448.87,358.25L450.98,358.25L452.04,357.26L454.15,356.69L455.21,355.73L457.32,354.15L458.37,354.22L460.49,353.88L461.54,352.8L465.77,354.97L466.82,355.02L468.94,354.36L469.99,352.23L472.1,347.21L473.16,342.75L474.22,344.58L475.27,343.16L478.44,298.86L479.5,281.21L480.55,265.96L481.61,264.81L482.67,262.29L483.72,237.84L485.83,212.77L486.89,210.34L487.95,207.14L489,189.37L490.06,187.68L491.12,184.01L492.17,184.08L493.23,179.2L497.45,143.42L498.51,120.64L502.73,50.99L503.79,41.37L504.85,38.53L505.9,22.48L506.96,12.18L508.01,11.2L510.13,0.46L511.18,0L512.24,1.17L513.29,4.12L515.41,23.86L516.46,38.97L518.58,74.3L519.63,81.49L521.74,153.68L522.8,178.38L525.97,225.84L527.02,227.1L529.14,246.22L530.19,253.75L532.31,263.35L533.36,268.34L534.42,269.37L535.47,275.37L537.59,283.54L538.64,286.43L539.7,289.95L540.76,290.82L541.81,292.7L542.87,292.81L547.09,284.71L548.15,283.17L550.26,280.36L551.32,277.45L553.43,269.67L554.49,265.02L555.54,261.49L556.6,261.01L558.71,245.95L559.77,240.7L562.93,229.64L563.99,227.03L569.27,168.79L570.33,163.61L571.38,164.99L572.44,154.41L574.55,147.61L575.61,148.34L577.72,155.35L578.78,155.87L581.95,175.63L583,178.36L584.06,178.04L585.11,179.55L586.17,180.81L587.23,190.95L590.39,215.06L591.45,223.03L592.51,227.31L593.56,228.18L594.62,262.91L595.68,257.46L599.9,281.53L600.96,281.66L602.01,266.69L603.07,288.1L605.18,302.34L606.24,308.59L607.29,312.96L608.35,314.15L610.46,322.74L611.52,323.93L614.69,327.89L615.74,328.14L617.85,331.03L618.91,334.16L622.08,339.36L623.14,339.68L625.25,344.33L626.3,344.88L629.47,349.02L630.53,349.32L634.75,360.38L635.81,360.03L637.92,360.33L638.98,359.67L640.03,360.03L641.09,359.28L642.15,355.52L643.2,356.39L645.32,356.33L646.37,361.52L648.48,354.52L649.54,351.43L651.65,346.53L652.71,346.14L653.76,336.38L654.82,336.73L655.88,333.54L656.93,333.13L659.05,330.32" style="vector-effect: non-scaling-stroke; fill: none; stroke: rgb(8, 115, 191); stroke-opacity: 1; stroke-width: 0.5px; opacity: 1;"/></g><g class="points"/><g class="text"/></g><g class="trace scatter trace39dcdf" style="stroke-miterlimit: 2;"><g class="fills"><g><path class="js-fill" d="M669.61,380L659.05,380L659.05,330.32L660.1,330.25L661.16,325.76L666.44,306.3L667.49,305.77L669.61,294.78" style="fill: rgb(8, 115, 191); fill-opacity: 0.4; stroke-width: 0;"/></g></g><g class="errorbars"/><g class="lines"><path class="js-line" d="M659.05,330.32L660.1,330.25L661.16,325.76L666.44,306.3L667.49,305.77L669.61,294.78" style="vector-effect: non-scaling-stroke; fill: none; stroke: rgb(8, 115, 191); stroke-opacity: 1; stroke-width: 2px; opacity: 1;"/></g><g class="points"/><g class="text"/></g><g class="trace scatter trace49e126" style="stroke-miterlimit: 2; opacity: 1;"><g class="fills"/><g class="errorbars"/><g class="lines"/><g class="points"><path class="point" transform="translate(669.61,294.78)" d="M15,0A15,15 0 1,1 0,-15A15,15 0 0,1 15,0Z" style="opacity: 1; stroke-width: 0px; fill: rgb(8, 115, 191); fill-opacity: 1;"/></g><g class="text"/></g></g></g><g class="overplot"/><path class="xlines-above crisp" style="fill: none; stroke-width: 1px; stroke: rgb(0, 0, 0); stroke-opacity: 0;" d=""/><path class="ylines-above crisp" style="fill: none;" d="M0,0"/><g class="overlines-above"/><g class="xaxislayer-above"><path class="xtick ticks crisp" d="M0,450v-5" transform="translate(52.11,0)" style="stroke: rgb(68, 68, 68); stroke-opacity: 1; stroke-width: 1px;"/><path class="xtick ticks crisp" d="M0,450v-5" transform="translate(149.28,0)" style="stroke: rgb(68, 68, 68); stroke-opacity: 1; stroke-width: 1px;"/><path class="xtick ticks crisp" d="M0,450v-5" transform="translate(244.33,0)" style="stroke: rgb(68, 68, 68); stroke-opacity: 1; stroke-width: 1px;"/><path class="xtick ticks crisp" d="M0,450v-5" transform="translate(340.44,0)" style="stroke: rgb(68, 68, 68); stroke-opacity: 1; stroke-width: 1px;"/><path class="xtick ticks crisp" d="M0,450v-5" transform="translate(437.61,0)" style="stroke: rgb(68, 68, 68); stroke-opacity: 1; stroke-width: 1px;"/><path class="xtick ticks crisp" d="M0,450v-5" transform="translate(534.78,0)" style="stroke: rgb(68, 68, 68); stroke-opacity: 1; stroke-width: 1px;"/><path class="xtick ticks crisp" d="M0,450v-5" transform="translate(629.83,0)" style="stroke: rgb(68, 68, 68); stroke-opacity: 1; stroke-width: 1px;"/><path class="xtick ticks crisp" d="M0,450v-5" transform="translate(725.94,0)" style="stroke: rgb(68, 68, 68); stroke-opacity: 1; stroke-width: 1px;"/><g class="xtick"><text text-anchor="middle" x="0" y="469" transform="translate(52.11,0)" style="font-family: 'Open Sans', verdana, arial, sans-serif; font-size: 18px; fill: rgb(42, 63, 95); fill-opacity: 1; white-space: pre;">01/10</text></g><g class="xtick"><text text-anchor="middle" x="0" y="469" transform="translate(149.28,0)" style="font-family: 'Open Sans', verdana, arial, sans-serif; font-size: 18px; fill: rgb(42, 63, 95); fill-opacity: 1; white-space: pre;">01/01</text></g><g class="xtick"><text text-anchor="middle" x="0" y="469" transform="translate(244.33,0)" style="font-family: 'Open Sans', verdana, arial, sans-serif; font-size: 18px; fill: rgb(42, 63, 95); fill-opacity: 1; white-space: pre;">01/04</text></g><g class="xtick"><text text-anchor="middle" x="0" y="469" transform="translate(340.44,0)" style="font-family: 'Open Sans', verdana, arial, sans-serif; font-size: 18px; fill: rgb(42, 63, 95); fill-opacity: 1; white-space: pre;">01/07</text></g><g class="xtick"><text text-anchor="middle" x="0" y="469" transform="translate(437.61,0)" style="font-family: 'Open Sans', verdana, arial, sans-serif; font-size: 18px; fill: rgb(42, 63, 95); fill-opacity: 1; white-space: pre;">01/10</text></g><g class="xtick"><text text-anchor="middle" x="0" y="469" transform="translate(534.78,0)" style="font-family: 'Open Sans', verdana, arial, sans-serif; font-size: 18px; fill: rgb(42, 63, 95); fill-opacity: 1; white-space: pre;">01/01</text></g><g class="xtick"><text text-anchor="middle" x="0" y="469" transform="translate(629.83,0)" style="font-family: 'Open Sans', verdana, arial, sans-serif; font-size: 18px; fill: rgb(42, 63, 95); fill-opacity: 1; white-space: pre;">01/04</text></g><g class="xtick"><text text-anchor="middle" x="0" y="469" transform="translate(725.94,0)" style="font-family: 'Open Sans', verdana, arial, sans-serif; font-size: 18px; fill: rgb(42, 63, 95); fill-opacity: 1; white-space: pre;">01/07</text></g></g><g class="yaxislayer-above"/><g class="overaxes-above"/></g></g><g class="polarlayer"/><g class="ternarylayer"/><g class="geolayer"/><g class="funnelarealayer"/><g class="pielayer"/><g class="treemaplayer"/><g class="sunburstlayer"/><g class="glimages"/><defs id="topdefs-edce46"><g class="clips"/></defs><g class="layer-above"><g class="imagelayer"/><g class="shapelayer"><path data-index="0" fill-rule="evenodd" d="M-543.56,444.38L228.49,444.38" clip-path="url('#clipedce46xy')" style="opacity: 1; stroke: rgb(255, 0, 0); stroke-opacity: 1; fill: rgb(0, 0, 0); fill-opacity: 0; stroke-dasharray: 3px, 3px; stroke-width: 1.5px;"/></g></g><g class="infolayer"><g class="g-gtitle"><text class="gtitle" x="375" y="25" text-anchor="middle" dy="0.7em" style="font-family: 'Open Sans', verdana, arial, sans-serif; font-size: 50px; fill: rgb(42, 63, 95); opacity: 1; font-weight: normal; white-space: pre;"><tspan style="font-weight:bold">Manche (50)</tspan></text></g><g class="g-xtitle"/><g class="annotation" data-index="0" style="opacity: 1;"><g class="annotation-text-g" transform="rotate(0,677.61,304.78)"><g class="cursor-pointer" transform="translate(620, 269)"><rect class="bg" x="0.5" y="0.5" width="115" height="71" style="stroke-width: 1px; stroke: rgb(0, 0, 0); stroke-opacity: 0; fill: rgb(255, 255, 255); fill-opacity: 0.6;"/><text class="annotation-text" text-anchor="middle" x="57.8125" y="55.5" style="font-family: 'Open Sans', verdana, arial, sans-serif; font-size: 50px; fill: rgb(8, 115, 191); fill-opacity: 1; white-space: pre;"> <tspan style="font-weight:bold">758 </tspan></text></g></g><g class="annotation-arrow-g" style="opacity: 1;"><path d="M706.01,340.28L717.61,354.78" style="stroke-width: 1px; stroke: rgb(8, 115, 191); stroke-opacity: 1; stroke-dasharray: 0px, 0px, 18.569px, 18.569px;"/></g></g></g></svg>