<svg class="main-svg" xmlns="http://www.w3.org/2000/svg" xmlns:xlink="http://www.w3.org/1999/xlink" width="1125" height="750" style="" viewBox="0 0 750 500"><rect x="0" y="0" width="750" height="500" style="fill: rgb(0, 0, 0); fill-opacity: 0;"/><defs id="defs-189f4c"><g class="clips"><clipPath id="clip189f4cxyplot" class="plotclip"><rect width="700" height="380"/></clipPath><clipPath class="axesclip" id="clip189f4cx"><rect x="50" y="0" width="700" height="500"/></clipPath><clipPath class="axesclip" id="clip189f4cy"><rect x="0" y="70" width="750" height="380"/></clipPath><clipPath class="axesclip" id="clip189f4cxy"><rect x="50" y="70" width="700" height="380"/></clipPath></g><g class="gradients"/></defs><g class="bglayer"><rect class="bg" x="50" y="70" width="700" height="380" style="fill: rgb(0, 0, 0); fill-opacity: 0; stroke-width: 0;"/></g><g class="layer-below"><g class="imagelayer"/><g class="shapelayer"/></g><g class="cartesianlayer"><g class="subplot xy"><g class="layer-subplot"><g class="shapelayer"/><g class="imagelayer"/></g><g class="gridlayer"><g class="x"><path class="xgrid crisp" transform="translate(93.1,0)" d="M0,70v380" style="stroke: rgb(255, 255, 255); stroke-opacity: 1; stroke-width: 1px;"/><path class="xgrid crisp" transform="translate(172.76,0)" d="M0,70v380" style="stroke: rgb(255, 255, 255); stroke-opacity: 1; stroke-width: 1px;"/><path class="xgrid crisp" transform="translate(249.81,0)" d="M0,70v380" style="stroke: rgb(255, 255, 255); stroke-opacity: 1; stroke-width: 1px;"/><path class="xgrid crisp" transform="translate(329.48,0)" d="M0,70v380" style="stroke: rgb(255, 255, 255); stroke-opacity: 1; stroke-width: 1px;"/><path class="xgrid crisp" transform="translate(409.14,0)" d="M0,70v380" style="stroke: rgb(255, 255, 255); stroke-opacity: 1; stroke-width: 1px;"/><path class="xgrid crisp" transform="translate(490.11,0)" d="M0,70v380" style="stroke: rgb(255, 255, 255); stroke-opacity: 1; stroke-width: 1px;"/><path class="xgrid crisp" transform="translate(569.78,0)" d="M0,70v380" style="stroke: rgb(255, 255, 255); stroke-opacity: 1; stroke-width: 1px;"/><path class="xgrid crisp" transform="translate(649.44,0)" d="M0,70v380" style="stroke: rgb(255, 255, 255); stroke-opacity: 1; stroke-width: 1px;"/><path class="xgrid crisp" transform="translate(726.49,0)" d="M0,70v380" style="stroke: rgb(255, 255, 255); stroke-opacity: 1; stroke-width: 1px;"/></g><g class="y"/></g><g class="zerolinelayer"/><path class="xlines-below"/><path class="ylines-below"/><g class="overlines-below"/><g class="xaxislayer-below"/><g class="yaxislayer-below"/><g class="overaxes-below"/><g class="plot" transform="translate(50, 70)" clip-path="url('#clip189f4cxyplot')"><g class="scatterlayer mlayer"><g class="trace scatter trace7a3ec4" style="stroke-miterlimit: 2;"><g class="fills"><g><path class="js-fill" d="M677.8,380L-177.61,380L-177.61,379.09L-159.33,379.81L-158.02,379.87L-61.38,378.64L-60.07,378.32L-56.16,377.93L-54.85,378.19L-47.01,378.12L-45.71,377.35L-32.65,376.44L-31.34,376.31L-27.43,375.41L-26.12,375.6L-7.84,375.21L-6.53,375.15L-5.22,375.21L-3.92,376.31L-1.31,376.31L0,373.08L1.31,373.02L2.61,371.79L3.92,371.08L5.22,369.26L7.84,366.61L9.14,366.74L11.75,365.71L13.06,362.67L14.37,361.63L15.67,359.5L18.28,353.55L19.59,352.64L22.2,350.19L23.51,346.82L26.12,338.87L27.43,338.03L28.73,334.41L30.04,334.6L32.65,323.74L33.96,315.85L36.57,309.12L37.87,312.03L39.18,311.45L40.49,309.57L41.79,309.57L43.1,313.84L44.4,311.39L45.71,310.67L48.32,313.2L49.63,312.61L50.93,315.52L52.24,325.48L54.85,338.81L56.16,339.32L57.46,338.87L58.77,342.69L60.07,346.82L61.38,342.43L63.99,346.82L65.3,347.02L66.6,348.44L67.91,352.58L73.13,359.89L74.44,359.82L75.75,360.08L77.05,361.96L79.66,365.58L80.97,366.1L82.28,367.97L83.58,367.71L88.81,367.97L90.11,367.78L91.42,367.32L92.72,367.71L97.95,366.16L99.25,364.8L105.78,360.41L107.09,357.62L108.4,355.75L109.7,357.75L111.01,356.4L112.31,356.65L114.93,352.45L116.23,352.26L120.15,354.26L121.46,353.81L122.76,353.87L124.07,355.94L126.68,357.49L127.99,354.26L130.6,354.91L131.9,356.46L133.21,356.46L134.51,357.43L135.82,358.01L137.13,356.33L139.74,356.65L141.04,355.81L142.35,356.46L143.66,356.2L144.96,355.49L146.27,357.24L147.57,358.27L148.88,357.82L150.19,360.15L151.49,360.66L154.1,360.99L155.41,362.02L159.33,360.86L160.63,359.37L163.25,360.66L164.55,360.08L169.78,359.69L171.08,360.6L172.39,360.99L173.69,360.28L176.31,360.21L177.61,361.44L182.84,364.54L184.14,363.51L186.75,362.67L188.06,362.02L190.67,357.95L191.98,357.69L194.59,359.24L195.9,359.63L197.2,360.15L198.51,361.5L199.81,362.73L201.12,362.86L206.34,361.05L207.65,361.18L208.96,360.86L210.26,359.5L216.79,360.47L218.1,359.89L219.4,360.53L220.71,359.89L222.01,360.02L223.32,358.92L229.85,347.02L231.16,346.5L232.46,343.78L233.77,343.59L238.99,349.86L240.3,349.93L241.6,357.37L242.91,358.72L245.52,356.46L246.83,357.88L248.13,356.72L249.44,357.04L250.75,353.03L252.05,353.68L254.66,358.14L255.97,358.53L257.28,359.89L258.58,359.82L262.5,361.89L263.81,362.15L267.72,362.47L269.03,364.35L270.34,362.8L271.64,363.06L276.87,365.77L278.17,364.74L279.48,366.74L280.78,367L284.7,369.46L286.01,369.14L287.31,370.62L288.62,370.75L292.54,372.63L293.84,372.05L299.07,374.37L300.37,372.89L304.29,372.63L305.6,373.66L308.21,372.63L309.51,373.6L313.43,374.24L314.74,373.6L317.35,375.21L318.66,374.83L329.1,376.83L330.41,377.28L333.02,378L334.33,378.51L339.55,378.97L340.86,378.97L347.39,379.22L348.69,379.29L359.14,379.09L360.45,378.77L365.67,377.22L366.98,376.96L372.2,376.31L373.51,374.96L378.73,373.6L380.04,371.79L385.26,366.68L386.57,366.74L389.18,361.83L390.49,359.56L394.4,359.63L395.71,358.79L397.01,358.08L398.32,358.59L399.63,358.27L400.93,356.98L404.85,355.68L406.16,356.4L411.38,352.19L412.69,352.26L413.99,352.97L415.3,352.06L416.6,353.23L417.91,352.84L420.52,354.07L421.83,354.07L423.13,354.65L424.44,354.33L425.75,353.03L427.05,354.78L428.36,355.04L429.66,356.33L432.28,356.65L433.58,358.66L434.89,361.12L436.19,360.92L437.5,361.25L438.81,362.99L444.03,366.35L445.34,368.29L446.64,370.49L447.95,370.62L450.56,370.69L451.87,371.01L458.4,372.56L459.7,373.02L468.84,374.05L470.15,374.83L476.68,376.31L477.99,376.31L480.6,377.41L481.9,377.41L491.04,378L492.35,377.61L500.19,375.28L501.49,374.63L506.72,372.05L508.02,372.5L510.63,373.6L511.94,374.12L514.55,373.66L515.86,375.21L517.16,374.31L518.47,374.37L521.08,373.02L522.39,373.02L523.69,373.21L525,371.4L526.31,371.53L527.61,370.88L528.92,371.53L530.22,369.26L532.84,369.26L534.14,368.04L536.75,366.03L538.06,363.06L539.37,364.09L540.67,362.22L541.98,362.15L543.28,360.08L544.59,358.46L545.9,355.3L549.81,347.92L551.12,347.6L553.73,340.62L555.04,337.38L556.34,336.74L557.65,334.54L562.87,331.76L564.18,331.95L566.79,326.65L568.1,324.9L569.4,324.97L570.71,321.15L573.32,314.81L574.63,315.39L579.85,310.74L581.16,310.42L582.46,310.42L583.77,304.85L585.07,303.62L586.38,309.12L587.69,308.99L588.99,298.13L592.91,262.69L594.22,249.3L595.52,244.45L596.83,233.91L599.44,181.2L600.75,170.86L604.66,113.3L605.97,108.65L609.89,72.95L611.19,68.1L613.81,49.86L615.11,45.27L616.42,21.21L617.72,14.1L619.03,9.83L620.34,0L621.64,6.66L622.95,3.56L624.25,8.02L625.56,22.05L632.09,80.38L633.4,87.3L636.01,131.73L637.31,149.26L641.23,187.87L642.54,191.94L645.15,224.66L646.46,237.66L649.07,260.49L650.37,268.32L651.68,271.55L652.99,281.51L658.21,313L659.51,315.2L660.82,317.33L662.13,324L663.43,327.23L664.74,328.2L667.35,331.43L668.66,334.47L669.96,334.93L671.27,336.41L677.8,337.96" style="fill: rgb(8, 115, 191); fill-opacity: 0.2; stroke-width: 0;"/></g></g><g class="errorbars"/><g class="lines"><path class="js-line" d="M-177.61,379.09L-159.33,379.81L-158.02,379.87L-61.38,378.64L-60.07,378.32L-56.16,377.93L-54.85,378.19L-47.01,378.12L-45.71,377.35L-32.65,376.44L-31.34,376.31L-27.43,375.41L-26.12,375.6L-7.84,375.21L-6.53,375.15L-5.22,375.21L-3.92,376.31L-1.31,376.31L0,373.08L1.31,373.02L2.61,371.79L3.92,371.08L5.22,369.26L7.84,366.61L9.14,366.74L11.75,365.71L13.06,362.67L14.37,361.63L15.67,359.5L18.28,353.55L19.59,352.64L22.2,350.19L23.51,346.82L26.12,338.87L27.43,338.03L28.73,334.41L30.04,334.6L32.65,323.74L33.96,315.85L36.57,309.12L37.87,312.03L39.18,311.45L40.49,309.57L41.79,309.57L43.1,313.84L44.4,311.39L45.71,310.67L48.32,313.2L49.63,312.61L50.93,315.52L52.24,325.48L54.85,338.81L56.16,339.32L57.46,338.87L58.77,342.69L60.07,346.82L61.38,342.43L63.99,346.82L65.3,347.02L66.6,348.44L67.91,352.58L73.13,359.89L74.44,359.82L75.75,360.08L77.05,361.96L79.66,365.58L80.97,366.1L82.28,367.97L83.58,367.71L88.81,367.97L90.11,367.78L91.42,367.32L92.72,367.71L97.95,366.16L99.25,364.8L105.78,360.41L107.09,357.62L108.4,355.75L109.7,357.75L111.01,356.4L112.31,356.65L114.93,352.45L116.23,352.26L120.15,354.26L121.46,353.81L122.76,353.87L124.07,355.94L126.68,357.49L127.99,354.26L130.6,354.91L131.9,356.46L133.21,356.46L134.51,357.43L135.82,358.01L137.13,356.33L139.74,356.65L141.04,355.81L142.35,356.46L143.66,356.2L144.96,355.49L146.27,357.24L147.57,358.27L148.88,357.82L150.19,360.15L151.49,360.66L154.1,360.99L155.41,362.02L159.33,360.86L160.63,359.37L163.25,360.66L164.55,360.08L169.78,359.69L171.08,360.6L172.39,360.99L173.69,360.28L176.31,360.21L177.61,361.44L182.84,364.54L184.14,363.51L186.75,362.67L188.06,362.02L190.67,357.95L191.98,357.69L194.59,359.24L195.9,359.63L197.2,360.15L198.51,361.5L199.81,362.73L201.12,362.86L206.34,361.05L207.65,361.18L208.96,360.86L210.26,359.5L216.79,360.47L218.1,359.89L219.4,360.53L220.71,359.89L222.01,360.02L223.32,358.92L229.85,347.02L231.16,346.5L232.46,343.78L233.77,343.59L238.99,349.86L240.3,349.93L241.6,357.37L242.91,358.72L245.52,356.46L246.83,357.88L248.13,356.72L249.44,357.04L250.75,353.03L252.05,353.68L254.66,358.14L255.97,358.53L257.28,359.89L258.58,359.82L262.5,361.89L263.81,362.15L267.72,362.47L269.03,364.35L270.34,362.8L271.64,363.06L276.87,365.77L278.17,364.74L279.48,366.74L280.78,367L284.7,369.46L286.01,369.14L287.31,370.62L288.62,370.75L292.54,372.63L293.84,372.05L299.07,374.37L300.37,372.89L304.29,372.63L305.6,373.66L308.21,372.63L309.51,373.6L313.43,374.24L314.74,373.6L317.35,375.21L318.66,374.83L329.1,376.83L330.41,377.28L333.02,378L334.33,378.51L339.55,378.97L340.86,378.97L347.39,379.22L348.69,379.29L359.14,379.09L360.45,378.77L365.67,377.22L366.98,376.96L372.2,376.31L373.51,374.96L378.73,373.6L380.04,371.79L385.26,366.68L386.57,366.74L389.18,361.83L390.49,359.56L394.4,359.63L395.71,358.79L397.01,358.08L398.32,358.59L399.63,358.27L400.93,356.98L404.85,355.68L406.16,356.4L411.38,352.19L412.69,352.26L413.99,352.97L415.3,352.06L416.6,353.23L417.91,352.84L420.52,354.07L421.83,354.07L423.13,354.65L424.44,354.33L425.75,353.03L427.05,354.78L428.36,355.04L429.66,356.33L432.28,356.65L433.58,358.66L434.89,361.12L436.19,360.92L437.5,361.25L438.81,362.99L444.03,366.35L445.34,368.29L446.64,370.49L447.95,370.62L450.56,370.69L451.87,371.01L458.4,372.56L459.7,373.02L468.84,374.05L470.15,374.83L476.68,376.31L477.99,376.31L480.6,377.41L481.9,377.41L491.04,378L492.35,377.61L500.19,375.28L501.49,374.63L506.72,372.05L508.02,372.5L510.63,373.6L511.94,374.12L514.55,373.66L515.86,375.21L517.16,374.31L518.47,374.37L521.08,373.02L522.39,373.02L523.69,373.21L525,371.4L526.31,371.53L527.61,370.88L528.92,371.53L530.22,369.26L532.84,369.26L534.14,368.04L536.75,366.03L538.06,363.06L539.37,364.09L540.67,362.22L541.98,362.15L543.28,360.08L544.59,358.46L545.9,355.3L549.81,347.92L551.12,347.6L553.73,340.62L555.04,337.38L556.34,336.74L557.65,334.54L562.87,331.76L564.18,331.95L566.79,326.65L568.1,324.9L569.4,324.97L570.71,321.15L573.32,314.81L574.63,315.39L579.85,310.74L581.16,310.42L582.46,310.42L583.77,304.85L585.07,303.62L586.38,309.12L587.69,308.99L588.99,298.13L592.91,262.69L594.22,249.3L595.52,244.45L596.83,233.91L599.44,181.2L600.75,170.86L604.66,113.3L605.97,108.65L609.89,72.95L611.19,68.1L613.81,49.86L615.11,45.27L616.42,21.21L617.72,14.1L619.03,9.83L620.34,0L621.64,6.66L622.95,3.56L624.25,8.02L625.56,22.05L632.09,80.38L633.4,87.3L636.01,131.73L637.31,149.26L641.23,187.87L642.54,191.94L645.15,224.66L646.46,237.66L649.07,260.49L650.37,268.32L651.68,271.55L652.99,281.51L658.21,313L659.51,315.2L660.82,317.33L662.13,324L663.43,327.23L664.74,328.2L667.35,331.43L668.66,334.47L669.96,334.93L671.27,336.41L677.8,337.96" style="vector-effect: non-scaling-stroke; fill: none; stroke: rgb(8, 115, 191); stroke-opacity: 1; stroke-width: 0.5px; opacity: 1;"/></g><g class="points"/><g class="text"/></g><g class="trace scatter tracea0b80f" style="stroke-miterlimit: 2;"><g class="fills"><g><path class="js-fill" d="M690.86,380L677.8,380L677.8,337.96L679.1,337.64L680.41,338.09L681.72,337.51L683.02,338.68L686.94,339.45L688.25,338.81L690.86,335.83" style="fill: rgb(8, 115, 191); fill-opacity: 0.4; stroke-width: 0;"/></g></g><g class="errorbars"/><g class="lines"><path class="js-line" d="M677.8,337.96L679.1,337.64L680.41,338.09L681.72,337.51L683.02,338.68L686.94,339.45L688.25,338.81L690.86,335.83" style="vector-effect: non-scaling-stroke; fill: none; stroke: rgb(8, 115, 191); stroke-opacity: 1; stroke-width: 2px; opacity: 1;"/></g><g class="points"/><g class="text"/></g><g class="trace scatter trace617954" style="stroke-miterlimit: 2; opacity: 1;"><g class="fills"/><g class="errorbars"/><g class="lines"/><g class="points"><path class="point" transform="translate(690.86,335.83)" d="M15,0A15,15 0 1,1 0,-15A15,15 0 0,1 15,0Z" style="opacity: 1; stroke-width: 0px; fill: rgb(8, 115, 191); fill-opacity: 1;"/></g><g class="text"/></g></g></g><g class="overplot"/><path class="xlines-above crisp" style="fill: none; stroke-width: 1px; stroke: rgb(0, 0, 0); stroke-opacity: 0;" d=""/><path class="ylines-above crisp" style="fill: none;" d="M0,0"/><g class="overlines-above"/><g class="xaxislayer-above"><path class="xtick ticks crisp" d="M0,450v-5" transform="translate(93.1,0)" style="stroke: rgb(68, 68, 68); stroke-opacity: 1; stroke-width: 1px;"/><path class="xtick ticks crisp" d="M0,450v-5" transform="translate(172.76,0)" style="stroke: rgb(68, 68, 68); stroke-opacity: 1; stroke-width: 1px;"/><path class="xtick ticks crisp" d="M0,450v-5" transform="translate(249.81,0)" style="stroke: rgb(68, 68, 68); stroke-opacity: 1; stroke-width: 1px;"/><path class="xtick ticks crisp" d="M0,450v-5" transform="translate(329.48,0)" style="stroke: rgb(68, 68, 68); stroke-opacity: 1; stroke-width: 1px;"/><path class="xtick ticks crisp" d="M0,450v-5" transform="translate(409.14,0)" style="stroke: rgb(68, 68, 68); stroke-opacity: 1; stroke-width: 1px;"/><path class="xtick ticks crisp" d="M0,450v-5" transform="translate(490.11,0)" style="stroke: rgb(68, 68, 68); stroke-opacity: 1; stroke-width: 1px;"/><path class="xtick ticks crisp" d="M0,450v-5" transform="translate(569.78,0)" style="stroke: rgb(68, 68, 68); stroke-opacity: 1; stroke-width: 1px;"/><path class="xtick ticks crisp" d="M0,450v-5" transform="translate(649.44,0)" style="stroke: rgb(68, 68, 68); stroke-opacity: 1; stroke-width: 1px;"/><path class="xtick ticks crisp" d="M0,450v-5" transform="translate(726.49,0)" style="stroke: rgb(68, 68, 68); stroke-opacity: 1; stroke-width: 1px;"/><g class="xtick"><text text-anchor="middle" x="0" y="469" transform="translate(93.1,0)" style="font-family: 'Open Sans', verdana, arial, sans-serif; font-size: 18px; fill: rgb(42, 63, 95); fill-opacity: 1; white-space: pre;">01/11</text></g><g class="xtick"><text text-anchor="middle" x="0" y="469" transform="translate(172.76,0)" style="font-family: 'Open Sans', verdana, arial, sans-serif; font-size: 18px; fill: rgb(42, 63, 95); fill-opacity: 1; white-space: pre;">01/01</text></g><g class="xtick"><text text-anchor="middle" x="0" y="469" transform="translate(249.81,0)" style="font-family: 'Open Sans', verdana, arial, sans-serif; font-size: 18px; fill: rgb(42, 63, 95); fill-opacity: 1; white-space: pre;">01/03</text></g><g class="xtick"><text text-anchor="middle" x="0" y="469" transform="translate(329.48,0)" style="font-family: 'Open Sans', verdana, arial, sans-serif; font-size: 18px; fill: rgb(42, 63, 95); fill-opacity: 1; white-space: pre;">01/05</text></g><g class="xtick"><text text-anchor="middle" x="0" y="469" transform="translate(409.14,0)" style="font-family: 'Open Sans', verdana, arial, sans-serif; font-size: 18px; fill: rgb(42, 63, 95); fill-opacity: 1; white-space: pre;">01/07</text></g><g class="xtick"><text text-anchor="middle" x="0" y="469" transform="translate(490.11,0)" style="font-family: 'Open Sans', verdana, arial, sans-serif; font-size: 18px; fill: rgb(42, 63, 95); fill-opacity: 1; white-space: pre;">01/09</text></g><g class="xtick"><text text-anchor="middle" x="0" y="469" transform="translate(569.78,0)" style="font-family: 'Open Sans', verdana, arial, sans-serif; font-size: 18px; fill: rgb(42, 63, 95); fill-opacity: 1; white-space: pre;">01/11</text></g><g class="xtick"><text text-anchor="middle" x="0" y="469" transform="translate(649.44,0)" style="font-family: 'Open Sans', verdana, arial, sans-serif; font-size: 18px; fill: rgb(42, 63, 95); fill-opacity: 1; white-space: pre;">01/01</text></g><g class="xtick"><text text-anchor="middle" x="0" y="469" transform="translate(726.49,0)" style="font-family: 'Open Sans', verdana, arial, sans-serif; font-size: 18px; fill: rgb(42, 63, 95); fill-opacity: 1; white-space: pre;">01/03</text></g></g><g class="yaxislayer-above"/><g class="overaxes-above"/></g></g><g class="polarlayer"/><g class="ternarylayer"/><g class="geolayer"/><g class="funnelarealayer"/><g class="pielayer"/><g class="treemaplayer"/><g class="sunburstlayer"/><g class="glimages"/><defs id="topdefs-189f4c"><g class="clips"/></defs><g class="layer-above"><g class="imagelayer"/><g class="shapelayer"><path data-index="0" fill-rule="evenodd" d="M-683.96,445.42L270.71000000000004,445.42" clip-path="url('#clip189f4cxy')" style="opacity: 1; stroke: rgb(255, 0, 0); stroke-opacity: 1; fill: rgb(0, 0, 0); fill-opacity: 0; stroke-dasharray: 3px, 3px; stroke-width: 1.5px;"/></g></g><g class="infolayer"><g class="g-gtitle"><text class="gtitle" x="375" y="25" text-anchor="middle" dy="0.7em" style="font-family: 'Open Sans', verdana, arial, sans-serif; font-size: 50px; fill: rgb(42, 63, 95); opacity: 1; font-weight: normal; white-space: pre;"><tspan style="font-weight:bold">Hautes-Alpes (05)</tspan></text></g><g class="g-xtitle"/><g class="annotation" data-index="0" style="opacity: 1;"><g class="annotation-text-g" transform="rotate(0,698.86,345.83)"><g class="cursor-pointer" transform="translate(641, 310)"><rect class="bg" x="0.5" y="0.5" width="115" height="71" style="stroke-width: 1px; stroke: rgb(0, 0, 0); stroke-opacity: 0; fill: rgb(255, 255, 255); fill-opacity: 0.6;"/><text class="annotation-text" text-anchor="middle" x="57.8125" y="55.5" style="font-family: 'Open Sans', verdana, arial, sans-serif; font-size: 50px; fill: rgb(8, 115, 191); fill-opacity: 1; white-space: pre;"> <tspan style="font-weight:bold">481 </tspan></text></g></g><g class="annotation-arrow-g" style="opacity: 1;"><path d="M727.26,381.33L738.86,395.83" style="stroke-width: 1px; stroke: rgb(8, 115, 191); stroke-opacity: 1; stroke-dasharray: 0px, 0px, 18.569px, 18.569px;"/></g></g></g></svg>