<svg class="main-svg" xmlns="http://www.w3.org/2000/svg" xmlns:xlink="http://www.w3.org/1999/xlink" width="1125" height="750" style="" viewBox="0 0 750 500"><rect x="0" y="0" width="750" height="500" style="fill: rgb(0, 0, 0); fill-opacity: 0;"/><defs id="defs-1a9348"><g class="clips"><clipPath id="clip1a9348xyplot" class="plotclip"><rect width="700" height="380"/></clipPath><clipPath class="axesclip" id="clip1a9348x"><rect x="50" y="0" width="700" height="500"/></clipPath><clipPath class="axesclip" id="clip1a9348y"><rect x="0" y="70" width="750" height="380"/></clipPath><clipPath class="axesclip" id="clip1a9348xy"><rect x="50" y="70" width="700" height="380"/></clipPath></g><g class="gradients"/></defs><g class="bglayer"><rect class="bg" x="50" y="70" width="700" height="380" style="fill: rgb(0, 0, 0); fill-opacity: 0; stroke-width: 0;"/></g><g class="layer-below"><g class="imagelayer"/><g class="shapelayer"/></g><g class="cartesianlayer"><g class="subplot xy"><g class="layer-subplot"><g class="shapelayer"/><g class="imagelayer"/></g><g class="gridlayer"><g class="x"><path class="xgrid crisp" transform="translate(91.55,0)" d="M0,70v380" style="stroke: rgb(255, 255, 255); stroke-opacity: 1; stroke-width: 1px;"/><path class="xgrid crisp" transform="translate(168.35,0)" d="M0,70v380" style="stroke: rgb(255, 255, 255); stroke-opacity: 1; stroke-width: 1px;"/><path class="xgrid crisp" transform="translate(242.63,0)" d="M0,70v380" style="stroke: rgb(255, 255, 255); stroke-opacity: 1; stroke-width: 1px;"/><path class="xgrid crisp" transform="translate(319.42,0)" d="M0,70v380" style="stroke: rgb(255, 255, 255); stroke-opacity: 1; stroke-width: 1px;"/><path class="xgrid crisp" transform="translate(396.22,0)" d="M0,70v380" style="stroke: rgb(255, 255, 255); stroke-opacity: 1; stroke-width: 1px;"/><path class="xgrid crisp" transform="translate(474.28,0)" d="M0,70v380" style="stroke: rgb(255, 255, 255); stroke-opacity: 1; stroke-width: 1px;"/><path class="xgrid crisp" transform="translate(551.0799999999999,0)" d="M0,70v380" style="stroke: rgb(255, 255, 255); stroke-opacity: 1; stroke-width: 1px;"/><path class="xgrid crisp" transform="translate(627.88,0)" d="M0,70v380" style="stroke: rgb(255, 255, 255); stroke-opacity: 1; stroke-width: 1px;"/><path class="xgrid crisp" transform="translate(702.16,0)" d="M0,70v380" style="stroke: rgb(255, 255, 255); stroke-opacity: 1; stroke-width: 1px;"/></g><g class="y"/></g><g class="zerolinelayer"/><path class="xlines-below"/><path class="ylines-below"/><g class="overlines-below"/><g class="xaxislayer-below"/><g class="yaxislayer-below"/><g class="overaxes-below"/><g class="plot" transform="translate(50, 70)" clip-path="url('#clip1a9348xyplot')"><g class="scatterlayer mlayer"><g class="trace scatter trace78f221" style="stroke-miterlimit: 2;"><g class="fills"><g><path class="js-fill" d="M678.6,380L-171.22,380L-171.22,379.24L-156.12,379.55L-154.86,379.62L-120.86,379.77L-119.6,379.77L-54.14,378.72L-52.88,378.57L-47.84,376.3L-46.58,374.94L-42.81,371.62L-41.55,371.47L-35.25,367.01L-33.99,366.86L-31.47,366.71L-30.22,368.22L-28.96,368.37L-27.7,369.58L-23.92,369.2L-22.66,370.64L-18.88,371.24L-17.63,371.24L-15.11,371.84L-13.85,370.03L-12.59,369.88L-11.33,370.86L-10.07,369.65L-8.81,370.11L-6.29,370.79L-5.04,372.67L-2.52,373.58L-1.26,375.09L3.78,374.19L5.04,372.75L10.07,369.96L11.33,369.81L13.85,365.58L15.11,361.57L17.63,355.53L18.88,354.85L20.14,354.93L21.4,354.25L22.66,351.61L23.92,352.51L25.18,352.21L26.44,348.66L28.96,347.38L30.22,343.15L31.47,340.81L32.73,336.2L33.99,330.76L35.25,320.42L37.77,319.96L39.03,316.79L42.81,320.42L44.06,334.16L46.58,335.6L47.84,344.36L51.62,364.9L52.88,366.94L55.4,368.22L56.65,369.13L57.91,370.41L59.17,369.96L61.69,373.58L62.95,373.96L65.47,374.64L66.73,375.39L70.5,375.92L71.76,375.7L78.06,375.7L79.32,374.71L84.35,376.07L85.61,375.77L89.39,377.43L90.65,377.51L98.2,378.34L99.46,378.19L101.98,377.96L103.24,377.73L107.01,376L108.27,376.15L112.05,373.51L113.31,373.35L117.09,372.6L118.35,372L122.12,371.77L123.38,370.41L124.64,371.47L125.9,371.47L128.42,371.84L129.68,372.07L132.19,371.77L133.45,372.07L134.71,372.07L135.97,373.2L137.23,372.98L138.49,373.96L143.53,373.43L144.78,371.92L148.56,371.39L149.82,372.67L152.34,372.37L153.6,373.58L154.86,374.64L156.12,374.41L159.89,374.26L161.15,374.19L163.67,374.11L164.93,374.64L168.71,374.71L169.96,374.86L172.48,375.09L173.74,374.56L178.78,373.81L180.04,371.54L182.55,370.56L183.81,370.41L185.07,369.5L186.33,370.11L187.59,370.26L188.85,371.62L190.11,371.47L191.37,370.56L195.14,368.9L196.4,368.9L200.18,366.71L201.44,366.63L205.22,366.1L206.47,364.75L207.73,366.18L208.99,365.95L211.51,364.75L212.77,363.76L214.03,363.76L215.29,362.86L219.06,359.76L220.32,359.23L224.1,359.31L225.36,358.78L229.14,359.53L230.4,359.76L231.65,359.61L232.91,363.91L235.43,364.97L236.69,366.1L239.21,365.27L240.47,365.5L241.73,360.89L242.99,360.52L246.76,360.82L248.02,361.5L249.28,361.35L250.54,363.24L253.06,364.29L254.32,364.67L256.83,365.65L258.09,365.8L260.61,365.8L261.87,367.24L265.65,369.58L266.91,369.73L269.42,372.22L270.68,372.67L276.98,374.56L278.24,375.39L279.5,375.54L280.76,376.68L283.27,376.83L284.53,376.83L287.05,377.66L288.31,377.36L290.83,377.36L292.09,377.58L302.16,377.81L303.42,377.13L305.94,376.9L307.19,376.68L313.49,376.6L314.75,376.9L326.08,379.24L327.34,379.02L333.63,379.09L334.89,379.32L338.67,379.77L339.93,379.55L355.04,377.96L356.29,377.51L358.81,377.28L360.07,375.17L365.11,371.16L366.37,367.84L370.14,353.72L371.4,350.17L372.66,349.11L373.92,340.73L377.7,330.84L378.96,327.82L380.22,324.95L381.47,324.19L386.51,306.67L387.77,305.69L389.03,303.05L390.29,303.12L391.55,304.56L392.81,303.65L394.06,304.94L395.32,310.37L396.58,311.13L397.84,314.83L399.1,315.28L400.36,318.53L402.88,330.16L404.14,330.01L406.65,336.05L407.91,336.8L412.95,347.07L414.21,350.47L415.47,352.74L416.73,352.81L419.24,360.82L420.5,363.08L423.02,364.97L424.28,364.75L426.8,365.58L428.06,365.27L431.83,366.33L433.09,367.39L435.61,367.24L436.87,368.14L448.2,372.75L449.46,372.83L451.98,372.37L453.24,372.9L457.01,373.05L458.27,372.15L460.79,372.22L462.05,370.86L464.57,370.03L465.83,369.05L468.35,369.2L469.6,369.5L470.86,370.26L472.12,369.73L474.64,371.01L475.9,370.71L478.42,371.39L479.68,371.92L482.19,373.05L483.45,373.58L484.71,373.81L485.97,373.05L492.27,370.33L493.53,370.18L496.04,370.79L497.3,372.22L498.56,369.96L499.82,369.43L503.6,367.39L504.86,367.31L506.12,362.86L507.37,364.82L508.63,363.01L509.89,364.29L512.41,360.37L513.67,359.69L514.93,358.48L516.19,355.46L517.45,354.32L518.71,350.78L525,347.38L526.26,344.73L527.52,342.39L528.78,342.32L530.04,339.83L531.29,339.67L532.55,335.75L533.81,334.39L536.33,335.6L537.59,333.78L540.11,333.03L541.37,331.22L542.63,326.76L543.88,319.36L545.14,316.19L546.4,310.98L548.92,308.33L550.18,303.95L552.7,303.2L553.96,300.86L558.99,293L560.25,283.49L564.03,252.75L565.29,257.13L566.55,250.41L567.81,206.92L570.32,155.56L571.58,137.89L572.84,120.15L574.1,114.86L575.36,107.01L576.62,83.37L579.14,79.14L580.4,78.84L581.65,78.01L582.91,59.51L584.17,64.26L585.43,83.07L586.69,88.43L587.95,85.03L589.21,83.82L590.47,77.33L591.73,71.89L592.99,70.61L595.5,35.34L596.76,25.6L599.28,6.87L600.54,3.25L601.8,0L603.06,3.47L606.83,28.09L608.09,37L609.35,36.32L610.61,40.02L613.13,63.89L614.39,67.29L618.17,100.14L619.42,100.81L623.2,149.52L624.46,165.46L630.76,221.87L632.01,235.23L633.27,240.22L634.53,250.56L637.05,256.83L638.31,273.52L644.6,304.63L645.86,304.94L648.38,317.4L649.64,318.76L655.94,323.14L657.19,321.63L659.71,318.6L660.97,313.92L662.23,309.09L663.49,307.58L667.27,267.93L668.53,255.47L672.3,228.36L673.56,206.76L677.34,177.16L678.6,164.1" style="fill: rgb(8, 115, 191); fill-opacity: 0.2; stroke-width: 0;"/></g></g><g class="errorbars"/><g class="lines"><path class="js-line" d="M-171.22,379.24L-156.12,379.55L-154.86,379.62L-120.86,379.77L-119.6,379.77L-54.14,378.72L-52.88,378.57L-47.84,376.3L-46.58,374.94L-42.81,371.62L-41.55,371.47L-35.25,367.01L-33.99,366.86L-31.47,366.71L-30.22,368.22L-28.96,368.37L-27.7,369.58L-23.92,369.2L-22.66,370.64L-18.88,371.24L-17.63,371.24L-15.11,371.84L-13.85,370.03L-12.59,369.88L-11.33,370.86L-10.07,369.65L-8.81,370.11L-6.29,370.79L-5.04,372.67L-2.52,373.58L-1.26,375.09L3.78,374.19L5.04,372.75L10.07,369.96L11.33,369.81L13.85,365.58L15.11,361.57L17.63,355.53L18.88,354.85L20.14,354.93L21.4,354.25L22.66,351.61L23.92,352.51L25.18,352.21L26.44,348.66L28.96,347.38L30.22,343.15L31.47,340.81L32.73,336.2L33.99,330.76L35.25,320.42L37.77,319.96L39.03,316.79L42.81,320.42L44.06,334.16L46.58,335.6L47.84,344.36L51.62,364.9L52.88,366.94L55.4,368.22L56.65,369.13L57.91,370.41L59.17,369.96L61.69,373.58L62.95,373.96L65.47,374.64L66.73,375.39L70.5,375.92L71.76,375.7L78.06,375.7L79.32,374.71L84.35,376.07L85.61,375.77L89.39,377.43L90.65,377.51L98.2,378.34L99.46,378.19L101.98,377.96L103.24,377.73L107.01,376L108.27,376.15L112.05,373.51L113.31,373.35L117.09,372.6L118.35,372L122.12,371.77L123.38,370.41L124.64,371.47L125.9,371.47L128.42,371.84L129.68,372.07L132.19,371.77L133.45,372.07L134.71,372.07L135.97,373.2L137.23,372.98L138.49,373.96L143.53,373.43L144.78,371.92L148.56,371.39L149.82,372.67L152.34,372.37L153.6,373.58L154.86,374.64L156.12,374.41L159.89,374.26L161.15,374.19L163.67,374.11L164.93,374.64L168.71,374.71L169.96,374.86L172.48,375.09L173.74,374.56L178.78,373.81L180.04,371.54L182.55,370.56L183.81,370.41L185.07,369.5L186.33,370.11L187.59,370.26L188.85,371.62L190.11,371.47L191.37,370.56L195.14,368.9L196.4,368.9L200.18,366.71L201.44,366.63L205.22,366.1L206.47,364.75L207.73,366.18L208.99,365.95L211.51,364.75L212.77,363.76L214.03,363.76L215.29,362.86L219.06,359.76L220.32,359.23L224.1,359.31L225.36,358.78L229.14,359.53L230.4,359.76L231.65,359.61L232.91,363.91L235.43,364.97L236.69,366.1L239.21,365.27L240.47,365.5L241.73,360.89L242.99,360.52L246.76,360.82L248.02,361.5L249.28,361.35L250.54,363.24L253.06,364.29L254.32,364.67L256.83,365.65L258.09,365.8L260.61,365.8L261.87,367.24L265.65,369.58L266.91,369.73L269.42,372.22L270.68,372.67L276.98,374.56L278.24,375.39L279.5,375.54L280.76,376.68L283.27,376.83L284.53,376.83L287.05,377.66L288.31,377.36L290.83,377.36L292.09,377.58L302.16,377.81L303.42,377.13L305.94,376.9L307.19,376.68L313.49,376.6L314.75,376.9L326.08,379.24L327.34,379.02L333.63,379.09L334.89,379.32L338.67,379.77L339.93,379.55L355.04,377.96L356.29,377.51L358.81,377.28L360.07,375.17L365.11,371.16L366.37,367.84L370.14,353.72L371.4,350.17L372.66,349.11L373.92,340.73L377.7,330.84L378.96,327.82L380.22,324.95L381.47,324.19L386.51,306.67L387.77,305.69L389.03,303.05L390.29,303.12L391.55,304.56L392.81,303.65L394.06,304.94L395.32,310.37L396.58,311.13L397.84,314.83L399.1,315.28L400.36,318.53L402.88,330.16L404.14,330.01L406.65,336.05L407.91,336.8L412.95,347.07L414.21,350.47L415.47,352.74L416.73,352.81L419.24,360.82L420.5,363.08L423.02,364.97L424.28,364.75L426.8,365.58L428.06,365.27L431.83,366.33L433.09,367.39L435.61,367.24L436.87,368.14L448.2,372.75L449.46,372.83L451.98,372.37L453.24,372.9L457.01,373.05L458.27,372.15L460.79,372.22L462.05,370.86L464.57,370.03L465.83,369.05L468.35,369.2L469.6,369.5L470.86,370.26L472.12,369.73L474.64,371.01L475.9,370.71L478.42,371.39L479.68,371.92L482.19,373.05L483.45,373.58L484.71,373.81L485.97,373.05L492.27,370.33L493.53,370.18L496.04,370.79L497.3,372.22L498.56,369.96L499.82,369.43L503.6,367.39L504.86,367.31L506.12,362.86L507.37,364.82L508.63,363.01L509.89,364.29L512.41,360.37L513.67,359.69L514.93,358.48L516.19,355.46L517.45,354.32L518.71,350.78L525,347.38L526.26,344.73L527.52,342.39L528.78,342.32L530.04,339.83L531.29,339.67L532.55,335.75L533.81,334.39L536.33,335.6L537.59,333.78L540.11,333.03L541.37,331.22L542.63,326.76L543.88,319.36L545.14,316.19L546.4,310.98L548.92,308.33L550.18,303.95L552.7,303.2L553.96,300.86L558.99,293L560.25,283.49L564.03,252.75L565.29,257.13L566.55,250.41L567.81,206.92L570.32,155.56L571.58,137.89L572.84,120.15L574.1,114.86L575.36,107.01L576.62,83.37L579.14,79.14L580.4,78.84L581.65,78.01L582.91,59.51L584.17,64.26L585.43,83.07L586.69,88.43L587.95,85.03L589.21,83.82L590.47,77.33L591.73,71.89L592.99,70.61L595.5,35.34L596.76,25.6L599.28,6.87L600.54,3.25L601.8,0L603.06,3.47L606.83,28.09L608.09,37L609.35,36.32L610.61,40.02L613.13,63.89L614.39,67.29L618.17,100.14L619.42,100.81L623.2,149.52L624.46,165.46L630.76,221.87L632.01,235.23L633.27,240.22L634.53,250.56L637.05,256.83L638.31,273.52L644.6,304.63L645.86,304.94L648.38,317.4L649.64,318.76L655.94,323.14L657.19,321.63L659.71,318.6L660.97,313.92L662.23,309.09L663.49,307.58L667.27,267.93L668.53,255.47L672.3,228.36L673.56,206.76L677.34,177.16L678.6,164.1" style="vector-effect: non-scaling-stroke; fill: none; stroke: rgb(8, 115, 191); stroke-opacity: 1; stroke-width: 0.5px; opacity: 1;"/></g><g class="points"/><g class="text"/></g><g class="trace scatter tracec7e324" style="stroke-miterlimit: 2;"><g class="fills"><g><path class="js-fill" d="M691.19,380L678.6,380L678.6,164.1L679.86,162.59L681.12,164.17L682.37,158.66L683.63,149.45L686.15,133.51L687.41,129.74L689.93,129.06L691.19,125.36" style="fill: rgb(8, 115, 191); fill-opacity: 0.4; stroke-width: 0;"/></g></g><g class="errorbars"/><g class="lines"><path class="js-line" d="M678.6,164.1L679.86,162.59L681.12,164.17L682.37,158.66L683.63,149.45L686.15,133.51L687.41,129.74L689.93,129.06L691.19,125.36" style="vector-effect: non-scaling-stroke; fill: none; stroke: rgb(8, 115, 191); stroke-opacity: 1; stroke-width: 2px; opacity: 1;"/></g><g class="points"/><g class="text"/></g><g class="trace scatter trace2400eb" style="stroke-miterlimit: 2; opacity: 1;"><g class="fills"/><g class="errorbars"/><g class="lines"/><g class="points"><path class="point" transform="translate(691.19,125.36)" d="M15,0A15,15 0 1,1 0,-15A15,15 0 0,1 15,0Z" style="opacity: 1; stroke-width: 0px; fill: rgb(8, 115, 191); fill-opacity: 1;"/></g><g class="text"/></g></g></g><g class="overplot"/><path class="xlines-above crisp" style="fill: none; stroke-width: 1px; stroke: rgb(0, 0, 0); stroke-opacity: 0;" d=""/><path class="ylines-above crisp" style="fill: none;" d="M0,0"/><g class="overlines-above"/><g class="xaxislayer-above"><path class="xtick ticks crisp" d="M0,450v-5" transform="translate(91.55,0)" style="stroke: rgb(68, 68, 68); stroke-opacity: 1; stroke-width: 1px;"/><path class="xtick ticks crisp" d="M0,450v-5" transform="translate(168.35,0)" style="stroke: rgb(68, 68, 68); stroke-opacity: 1; stroke-width: 1px;"/><path class="xtick ticks crisp" d="M0,450v-5" transform="translate(242.63,0)" style="stroke: rgb(68, 68, 68); stroke-opacity: 1; stroke-width: 1px;"/><path class="xtick ticks crisp" d="M0,450v-5" transform="translate(319.42,0)" style="stroke: rgb(68, 68, 68); stroke-opacity: 1; stroke-width: 1px;"/><path class="xtick ticks crisp" d="M0,450v-5" transform="translate(396.22,0)" style="stroke: rgb(68, 68, 68); stroke-opacity: 1; stroke-width: 1px;"/><path class="xtick ticks crisp" d="M0,450v-5" transform="translate(474.28,0)" style="stroke: rgb(68, 68, 68); stroke-opacity: 1; stroke-width: 1px;"/><path class="xtick ticks crisp" d="M0,450v-5" transform="translate(551.0799999999999,0)" style="stroke: rgb(68, 68, 68); stroke-opacity: 1; stroke-width: 1px;"/><path class="xtick ticks crisp" d="M0,450v-5" transform="translate(627.88,0)" style="stroke: rgb(68, 68, 68); stroke-opacity: 1; stroke-width: 1px;"/><path class="xtick ticks crisp" d="M0,450v-5" transform="translate(702.16,0)" style="stroke: rgb(68, 68, 68); stroke-opacity: 1; stroke-width: 1px;"/><g class="xtick"><text text-anchor="middle" x="0" y="469" transform="translate(91.55,0)" style="font-family: 'Open Sans', verdana, arial, sans-serif; font-size: 18px; fill: rgb(42, 63, 95); fill-opacity: 1; white-space: pre;">01/11</text></g><g class="xtick"><text text-anchor="middle" x="0" y="469" transform="translate(168.35,0)" style="font-family: 'Open Sans', verdana, arial, sans-serif; font-size: 18px; fill: rgb(42, 63, 95); fill-opacity: 1; white-space: pre;">01/01</text></g><g class="xtick"><text text-anchor="middle" x="0" y="469" transform="translate(242.63,0)" style="font-family: 'Open Sans', verdana, arial, sans-serif; font-size: 18px; fill: rgb(42, 63, 95); fill-opacity: 1; white-space: pre;">01/03</text></g><g class="xtick"><text text-anchor="middle" x="0" y="469" transform="translate(319.42,0)" style="font-family: 'Open Sans', verdana, arial, sans-serif; font-size: 18px; fill: rgb(42, 63, 95); fill-opacity: 1; white-space: pre;">01/05</text></g><g class="xtick"><text text-anchor="middle" x="0" y="469" transform="translate(396.22,0)" style="font-family: 'Open Sans', verdana, arial, sans-serif; font-size: 18px; fill: rgb(42, 63, 95); fill-opacity: 1; white-space: pre;">01/07</text></g><g class="xtick"><text text-anchor="middle" x="0" y="469" transform="translate(474.28,0)" style="font-family: 'Open Sans', verdana, arial, sans-serif; font-size: 18px; fill: rgb(42, 63, 95); fill-opacity: 1; white-space: pre;">01/09</text></g><g class="xtick"><text text-anchor="middle" x="0" y="469" transform="translate(551.0799999999999,0)" style="font-family: 'Open Sans', verdana, arial, sans-serif; font-size: 18px; fill: rgb(42, 63, 95); fill-opacity: 1; white-space: pre;">01/11</text></g><g class="xtick"><text text-anchor="middle" x="0" y="469" transform="translate(627.88,0)" style="font-family: 'Open Sans', verdana, arial, sans-serif; font-size: 18px; fill: rgb(42, 63, 95); fill-opacity: 1; white-space: pre;">01/01</text></g><g class="xtick"><text text-anchor="middle" x="0" y="469" transform="translate(702.16,0)" style="font-family: 'Open Sans', verdana, arial, sans-serif; font-size: 18px; fill: rgb(42, 63, 95); fill-opacity: 1; white-space: pre;">01/03</text></g></g><g class="yaxislayer-above"/><g class="overaxes-above"/></g></g><g class="polarlayer"/><g class="ternarylayer"/><g class="geolayer"/><g class="funnelarealayer"/><g class="pielayer"/><g class="treemaplayer"/><g class="sunburstlayer"/><g class="glimages"/><defs id="topdefs-1a9348"><g class="clips"/></defs><g class="layer-above"><g class="imagelayer"/><g class="shapelayer"><path data-index="0" fill-rule="evenodd" d="M-657.55,443.87L262.77,443.87" clip-path="url('#clip1a9348xy')" style="opacity: 1; stroke: rgb(255, 0, 0); stroke-opacity: 1; fill: rgb(0, 0, 0); fill-opacity: 0; stroke-dasharray: 3px, 3px; stroke-width: 1.5px;"/></g></g><g class="infolayer"><g class="g-gtitle"><text class="gtitle" x="375" y="25" text-anchor="middle" dy="0.7em" style="font-family: 'Open Sans', verdana, arial, sans-serif; font-size: 50px; fill: rgb(42, 63, 95); opacity: 1; font-weight: normal; white-space: pre;"><tspan style="font-weight:bold">Corse-du-Sud (2A)</tspan></text></g><g class="g-xtitle"/><g class="annotation" data-index="0" style="opacity: 1;"><g class="annotation-text-g" transform="rotate(0,699.19,135.36)"><g class="cursor-pointer" transform="translate(627, 99)"><rect class="bg" x="0.5" y="0.5" width="143" height="71" style="stroke-width: 1px; stroke: rgb(0, 0, 0); stroke-opacity: 0; fill: rgb(255, 255, 255); fill-opacity: 0.6;"/><text class="annotation-text" text-anchor="middle" x="72.078125" y="55.5" style="font-family: 'Open Sans', verdana, arial, sans-serif; font-size: 50px; fill: rgb(8, 115, 191); fill-opacity: 1; white-space: pre;"> <tspan style="font-weight:bold">2076 </tspan></text></g></g><g class="annotation-arrow-g" style="opacity: 1;"><path d="M727.59,170.86L739.19,185.36" style="stroke-width: 1px; stroke: rgb(8, 115, 191); stroke-opacity: 1; stroke-dasharray: 0px, 0px, 18.569px, 18.569px;"/></g></g></g></svg>