<svg class="main-svg" xmlns="http://www.w3.org/2000/svg" xmlns:xlink="http://www.w3.org/1999/xlink" width="1125" height="750" style="" viewBox="0 0 750 500"><rect x="0" y="0" width="750" height="500" style="fill: rgb(0, 0, 0); fill-opacity: 0;"/><defs id="defs-8fc678"><g class="clips"><clipPath id="clip8fc678xyplot" class="plotclip"><rect width="695" height="380"/></clipPath><clipPath class="axesclip" id="clip8fc678x"><rect x="50" y="0" width="695" height="500"/></clipPath><clipPath class="axesclip" id="clip8fc678y"><rect x="0" y="70" width="750" height="380"/></clipPath><clipPath class="axesclip" id="clip8fc678xy"><rect x="50" y="70" width="695" height="380"/></clipPath></g><g class="gradients"/></defs><g class="bglayer"><rect class="bg" x="50" y="70" width="695" height="380" style="fill: rgb(0, 0, 0); fill-opacity: 0; stroke-width: 0;"/></g><g class="layer-below"><g class="imagelayer"/><g class="shapelayer"/></g><g class="cartesianlayer"><g class="subplot xy"><g class="layer-subplot"><g class="shapelayer"/><g class="imagelayer"/></g><g class="gridlayer"><g class="x"><path class="xgrid crisp" transform="translate(52.11,0)" d="M0,70v380" style="stroke: rgb(255, 255, 255); stroke-opacity: 1; stroke-width: 1px;"/><path class="xgrid crisp" transform="translate(149.29000000000002,0)" d="M0,70v380" style="stroke: rgb(255, 255, 255); stroke-opacity: 1; stroke-width: 1px;"/><path class="xgrid crisp" transform="translate(244.35,0)" d="M0,70v380" style="stroke: rgb(255, 255, 255); stroke-opacity: 1; stroke-width: 1px;"/><path class="xgrid crisp" transform="translate(340.46,0)" d="M0,70v380" style="stroke: rgb(255, 255, 255); stroke-opacity: 1; stroke-width: 1px;"/><path class="xgrid crisp" transform="translate(437.64,0)" d="M0,70v380" style="stroke: rgb(255, 255, 255); stroke-opacity: 1; stroke-width: 1px;"/><path class="xgrid crisp" transform="translate(534.81,0)" d="M0,70v380" style="stroke: rgb(255, 255, 255); stroke-opacity: 1; stroke-width: 1px;"/><path class="xgrid crisp" transform="translate(629.87,0)" d="M0,70v380" style="stroke: rgb(255, 255, 255); stroke-opacity: 1; stroke-width: 1px;"/><path class="xgrid crisp" transform="translate(725.99,0)" d="M0,70v380" style="stroke: rgb(255, 255, 255); stroke-opacity: 1; stroke-width: 1px;"/></g><g class="y"/></g><g class="zerolinelayer"/><path class="xlines-below"/><path class="ylines-below"/><g class="overlines-below"/><g class="xaxislayer-below"/><g class="yaxislayer-below"/><g class="overaxes-below"/><g class="plot" transform="translate(50, 70)" clip-path="url('#clip8fc678xyplot')"><g class="scatterlayer mlayer"><g class="trace scatter tracea20cdf" style="stroke-miterlimit: 2;"><g class="fills"><g><path class="js-fill" d="M677.04,380L-143.65,380L-143.65,379.26L-117.24,379.56L-116.19,379.54L-86.61,379.51L-85.55,379.16L-80.27,377.96L-79.22,377.96L-54.92,379.1L-53.87,378.96L-47.53,379.07L-46.47,378.96L-41.19,378.83L-40.14,378.77L-19.01,377.82L-17.96,377.68L-1.06,377.85L0,377.68L6.34,376.1L7.39,374.77L9.51,374.47L10.56,373.24L11.62,372.43L12.67,370.52L15.84,366.46L16.9,366.49L22.18,352.15L23.24,351.88L24.29,351.61L25.35,346.84L27.46,342.26L28.52,341.39L30.63,338.56L31.69,338.17L34.86,334.58L35.91,334.88L38.02,336.84L39.08,337.14L40.14,341.39L41.19,342.23L42.25,348.58L43.31,349.02L45.42,351.99L46.47,352.18L47.53,353.9L48.59,358.28L49.64,356.76L50.7,359.92L52.81,362.94L53.87,362.89L55.98,367.33L57.04,367.44L61.26,367.11L62.32,365.29L67.6,360.95L68.66,360.87L69.71,360.38L70.77,358.45L72.88,356.08L73.94,355.15L76.05,354.5L77.1,352.34L79.22,349.51L80.27,350.16L83.44,347.17L84.5,348.12L85.55,350.3L86.61,350.71L87.67,351.39L88.72,356.7L90.84,358.5L91.89,358.58L94,358.31L95.06,358.69L96.12,358.66L97.17,357.63L99.29,357.85L100.34,358.8L102.45,359.89L103.51,356.49L105.62,357.66L106.68,358.07L110.9,361.25L111.96,361.25L115.13,361.8L116.19,361.36L120.41,361.42L121.47,361.88L125.69,363.65L126.75,363.62L128.86,363.49L129.92,364.22L133.09,364.55L134.14,364.39L136.25,364.55L137.31,364.77L144.7,370.38L145.76,370.25L148.93,370.27L149.98,370.22L154.21,370.79L155.27,371.06L161.6,370.63L162.66,369.1L165.83,368.09L166.88,367.22L171.11,366.51L172.17,366.19L173.22,365.29L174.28,365.61L177.45,363.38L178.5,363.51L179.56,363.65L180.62,362.45L182.73,358.53L183.78,356.08L185.9,352.04L186.95,352.13L188.01,350.25L189.07,350.05L191.18,349.21L192.23,350.35L194.35,349.92L195.4,356.08L197.52,353.9L198.57,353.79L200.68,353.16L201.74,353.24L202.8,347.08L203.85,348.94L205.97,351.09L207.02,351.88L213.36,356.05L214.41,356.59L221.81,362.43L222.86,364.25L223.92,364.06L224.98,365.2L227.09,366.68L228.15,366.98L230.26,367.44L231.31,367.6L234.48,368.12L235.54,370.27L238.71,368.45L239.76,369.13L241.88,370L242.93,368.96L245.05,370.11L246.1,370.11L247.16,372.21L248.21,371.61L251.38,371.61L252.44,372.04L253.5,372.18L254.55,370.74L256.66,371.85L257.72,372.18L259.83,373.68L260.89,373.65L265.11,376.51L266.17,376.65L271.45,377.06L272.51,377.33L276.73,377.79L277.79,378.23L286.24,379.18L287.29,379.21L294.69,378.53L295.74,378.34L302.08,377.71L303.14,377.25L305.25,376.98L306.31,375.64L309.48,370.79L310.53,368.09L313.7,365.34L314.76,364.66L316.87,364.85L317.93,366.54L320.04,366.59L321.09,367.47L326.38,369.67L327.43,369.32L334.83,367.66L335.88,368.09L337.99,368.8L339.05,369.51L342.22,370.6L343.28,370.3L345.39,371.44L346.44,371.42L349.61,371.88L350.67,372.81L352.78,372.56L353.84,372.07L358.06,372.45L359.12,372.51L363.34,374.17L364.4,374.39L366.51,375.34L367.57,375.69L379.19,376.21L380.24,376.76L387.64,378.72L388.69,378.75L399.26,378.45L400.31,378.53L408.76,378.28L409.82,378.01L417.21,377.96L418.27,377.44L424.6,376.19L425.66,375.91L426.72,375.56L427.77,376.13L429.89,374.36L430.94,374.25L433.05,372.13L434.11,371.14L436.22,367.82L437.28,367.25L438.34,367.3L439.39,366.46L444.67,356.51L445.73,356.35L447.84,351.74L448.9,350.44L452.07,345.97L453.12,345.78L456.29,343.79L457.35,345.45L458.4,345.26L459.46,345.89L461.57,345.97L462.63,346.29L467.91,347.47L468.97,348.45L470.02,349.56L471.08,348.88L473.19,347.08L474.25,350.27L475.3,349.29L476.36,341.61L480.59,304.82L481.64,304.58L482.7,302.29L483.75,276.1L486.92,235.97L487.98,227.44L489.03,208.47L490.09,207.03L492.2,196.02L493.26,191.39L495.37,166.02L496.43,154.01L497.48,152.72L498.54,124.82L503.82,33.24L504.88,29.92L506.99,3.76L508.05,0L509.1,1.8L510.16,5.5L511.22,9.92L512.27,10.05L516.5,54.28L517.55,72.4L519.67,89.7L520.72,129.48L524.95,207.47L526,219.89L527.06,220.9L528.12,238.83L531.28,269.02L532.34,276.29L533.4,281.55L534.45,282.64L537.62,297.33L538.68,299.1L543.96,310.08L545.02,311.58L547.13,316.29L548.18,316.81L550.3,317.08L551.35,317.49L554.52,307.9L555.58,303.73L556.63,302.83L557.69,294.33L561.91,276.95L562.97,273.6L564.03,272.7L565.08,264.28L568.25,247.82L569.31,243.57L570.36,239.92L571.42,240.9L572.48,241.72L573.53,241.23L574.59,240.22L575.65,241.25L576.7,240.82L577.76,244.69L579.87,244.74L580.93,245.29L581.98,247.93L583.04,247.25L584.1,250L585.15,249.95L586.21,250.84L587.26,255.91L591.49,274.47L592.55,277.22L593.6,277L594.66,302.59L595.71,297.87L596.77,301.01L599.94,311.36L601,312.32L602.05,299.29L603.11,311.91L605.22,318.94L606.28,323L607.33,325.86L608.39,325.59L610.5,330.95L611.56,333.41L616.84,338.47L617.9,341.34L622.12,350.38L623.18,350.3L625.29,356.89L626.34,358.83L629.51,364.14L630.57,364.5L633.74,367.63L634.79,369.7L635.85,369.21L636.91,369.67L637.96,369.54L639.02,370.41L641.13,369.35L642.19,367.19L643.24,367.17L644.3,366.13L645.36,366.13L646.41,368.64L648.53,365.26L649.58,364.8L651.69,363.79L652.75,363.71L653.81,358.91L654.86,360.16L660.14,358.39L661.2,356.62L664.37,350.74L665.43,348.83L666.48,345.97L667.54,345.78L672.82,314.28L673.88,311.8L674.93,311.28L675.99,305.96L677.04,302.08" style="fill: rgb(8, 115, 191); fill-opacity: 0.2; stroke-width: 0;"/></g></g><g class="errorbars"/><g class="lines"><path class="js-line" d="M-143.65,379.26L-117.24,379.56L-116.19,379.54L-86.61,379.51L-85.55,379.16L-80.27,377.96L-79.22,377.96L-54.92,379.1L-53.87,378.96L-47.53,379.07L-46.47,378.96L-41.19,378.83L-40.14,378.77L-19.01,377.82L-17.96,377.68L-1.06,377.85L0,377.68L6.34,376.1L7.39,374.77L9.51,374.47L10.56,373.24L11.62,372.43L12.67,370.52L15.84,366.46L16.9,366.49L22.18,352.15L23.24,351.88L24.29,351.61L25.35,346.84L27.46,342.26L28.52,341.39L30.63,338.56L31.69,338.17L34.86,334.58L35.91,334.88L38.02,336.84L39.08,337.14L40.14,341.39L41.19,342.23L42.25,348.58L43.31,349.02L45.42,351.99L46.47,352.18L47.53,353.9L48.59,358.28L49.64,356.76L50.7,359.92L52.81,362.94L53.87,362.89L55.98,367.33L57.04,367.44L61.26,367.11L62.32,365.29L67.6,360.95L68.66,360.87L69.71,360.38L70.77,358.45L72.88,356.08L73.94,355.15L76.05,354.5L77.1,352.34L79.22,349.51L80.27,350.16L83.44,347.17L84.5,348.12L85.55,350.3L86.61,350.71L87.67,351.39L88.72,356.7L90.84,358.5L91.89,358.58L94,358.31L95.06,358.69L96.12,358.66L97.17,357.63L99.29,357.85L100.34,358.8L102.45,359.89L103.51,356.49L105.62,357.66L106.68,358.07L110.9,361.25L111.96,361.25L115.13,361.8L116.19,361.36L120.41,361.42L121.47,361.88L125.69,363.65L126.75,363.62L128.86,363.49L129.92,364.22L133.09,364.55L134.14,364.39L136.25,364.55L137.31,364.77L144.7,370.38L145.76,370.25L148.93,370.27L149.98,370.22L154.21,370.79L155.27,371.06L161.6,370.63L162.66,369.1L165.83,368.09L166.88,367.22L171.11,366.51L172.17,366.19L173.22,365.29L174.28,365.61L177.45,363.38L178.5,363.51L179.56,363.65L180.62,362.45L182.73,358.53L183.78,356.08L185.9,352.04L186.95,352.13L188.01,350.25L189.07,350.05L191.18,349.21L192.23,350.35L194.35,349.92L195.4,356.08L197.52,353.9L198.57,353.79L200.68,353.16L201.74,353.24L202.8,347.08L203.85,348.94L205.97,351.09L207.02,351.88L213.36,356.05L214.41,356.59L221.81,362.43L222.86,364.25L223.92,364.06L224.98,365.2L227.09,366.68L228.15,366.98L230.26,367.44L231.31,367.6L234.48,368.12L235.54,370.27L238.71,368.45L239.76,369.13L241.88,370L242.93,368.96L245.05,370.11L246.1,370.11L247.16,372.21L248.21,371.61L251.38,371.61L252.44,372.04L253.5,372.18L254.55,370.74L256.66,371.85L257.72,372.18L259.83,373.68L260.89,373.65L265.11,376.51L266.17,376.65L271.45,377.06L272.51,377.33L276.73,377.79L277.79,378.23L286.24,379.18L287.29,379.21L294.69,378.53L295.74,378.34L302.08,377.71L303.14,377.25L305.25,376.98L306.31,375.64L309.48,370.79L310.53,368.09L313.7,365.34L314.76,364.66L316.87,364.85L317.93,366.54L320.04,366.59L321.09,367.47L326.38,369.67L327.43,369.32L334.83,367.66L335.88,368.09L337.99,368.8L339.05,369.51L342.22,370.6L343.28,370.3L345.39,371.44L346.44,371.42L349.61,371.88L350.67,372.81L352.78,372.56L353.84,372.07L358.06,372.45L359.12,372.51L363.34,374.17L364.4,374.39L366.51,375.34L367.57,375.69L379.19,376.21L380.24,376.76L387.64,378.72L388.69,378.75L399.26,378.45L400.31,378.53L408.76,378.28L409.82,378.01L417.21,377.96L418.27,377.44L424.6,376.19L425.66,375.91L426.72,375.56L427.77,376.13L429.89,374.36L430.94,374.25L433.05,372.13L434.11,371.14L436.22,367.82L437.28,367.25L438.34,367.3L439.39,366.46L444.67,356.51L445.73,356.35L447.84,351.74L448.9,350.44L452.07,345.97L453.12,345.78L456.29,343.79L457.35,345.45L458.4,345.26L459.46,345.89L461.57,345.97L462.63,346.29L467.91,347.47L468.97,348.45L470.02,349.56L471.08,348.88L473.19,347.08L474.25,350.27L475.3,349.29L476.36,341.61L480.59,304.82L481.64,304.58L482.7,302.29L483.75,276.1L486.92,235.97L487.98,227.44L489.03,208.47L490.09,207.03L492.2,196.02L493.26,191.39L495.37,166.02L496.43,154.01L497.48,152.72L498.54,124.82L503.82,33.24L504.88,29.92L506.99,3.76L508.05,0L509.1,1.8L510.16,5.5L511.22,9.92L512.27,10.05L516.5,54.28L517.55,72.4L519.67,89.7L520.72,129.48L524.95,207.47L526,219.89L527.06,220.9L528.12,238.83L531.28,269.02L532.34,276.29L533.4,281.55L534.45,282.64L537.62,297.33L538.68,299.1L543.96,310.08L545.02,311.58L547.13,316.29L548.18,316.81L550.3,317.08L551.35,317.49L554.52,307.9L555.58,303.73L556.63,302.83L557.69,294.33L561.91,276.95L562.97,273.6L564.03,272.7L565.08,264.28L568.25,247.82L569.31,243.57L570.36,239.92L571.42,240.9L572.48,241.72L573.53,241.23L574.59,240.22L575.65,241.25L576.7,240.82L577.76,244.69L579.87,244.74L580.93,245.29L581.98,247.93L583.04,247.25L584.1,250L585.15,249.95L586.21,250.84L587.26,255.91L591.49,274.47L592.55,277.22L593.6,277L594.66,302.59L595.71,297.87L596.77,301.01L599.94,311.36L601,312.32L602.05,299.29L603.11,311.91L605.22,318.94L606.28,323L607.33,325.86L608.39,325.59L610.5,330.95L611.56,333.41L616.84,338.47L617.9,341.34L622.12,350.38L623.18,350.3L625.29,356.89L626.34,358.83L629.51,364.14L630.57,364.5L633.74,367.63L634.79,369.7L635.85,369.21L636.91,369.67L637.96,369.54L639.02,370.41L641.13,369.35L642.19,367.19L643.24,367.17L644.3,366.13L645.36,366.13L646.41,368.64L648.53,365.26L649.58,364.8L651.69,363.79L652.75,363.71L653.81,358.91L654.86,360.16L660.14,358.39L661.2,356.62L664.37,350.74L665.43,348.83L666.48,345.97L667.54,345.78L672.82,314.28L673.88,311.8L674.93,311.28L675.99,305.96L677.04,302.08" style="vector-effect: non-scaling-stroke; fill: none; stroke: rgb(8, 115, 191); stroke-opacity: 1; stroke-width: 0.5px; opacity: 1;"/></g><g class="points"/><g class="text"/></g><g class="trace scatter trace076d66" style="stroke-miterlimit: 2;"><g class="fills"><g><path class="js-fill" d="M687.61,380L677.04,380L677.04,302.08L680.21,297.1L681.27,294.86L682.33,294.23L683.38,290.73L684.44,290.62L685.49,289.06L686.55,301.2L687.61,296.53" style="fill: rgb(8, 115, 191); fill-opacity: 0.4; stroke-width: 0;"/></g></g><g class="errorbars"/><g class="lines"><path class="js-line" d="M677.04,302.08L680.21,297.1L681.27,294.86L682.33,294.23L683.38,290.73L684.44,290.62L685.49,289.06L686.55,301.2L687.61,296.53" style="vector-effect: non-scaling-stroke; fill: none; stroke: rgb(8, 115, 191); stroke-opacity: 1; stroke-width: 2px; opacity: 1;"/></g><g class="points"/><g class="text"/></g><g class="trace scatter trace4a3764" style="stroke-miterlimit: 2; opacity: 1;"><g class="fills"/><g class="errorbars"/><g class="lines"/><g class="points"><path class="point" transform="translate(687.61,296.53)" d="M15,0A15,15 0 1,1 0,-15A15,15 0 0,1 15,0Z" style="opacity: 1; stroke-width: 0px; fill: rgb(8, 115, 191); fill-opacity: 1;"/></g><g class="text"/></g></g></g><g class="overplot"/><path class="xlines-above crisp" style="fill: none; stroke-width: 1px; stroke: rgb(0, 0, 0); stroke-opacity: 0;" d=""/><path class="ylines-above crisp" style="fill: none;" d="M0,0"/><g class="overlines-above"/><g class="xaxislayer-above"><path class="xtick ticks crisp" d="M0,450v-5" transform="translate(52.11,0)" style="stroke: rgb(68, 68, 68); stroke-opacity: 1; stroke-width: 1px;"/><path class="xtick ticks crisp" d="M0,450v-5" transform="translate(149.29000000000002,0)" style="stroke: rgb(68, 68, 68); stroke-opacity: 1; stroke-width: 1px;"/><path class="xtick ticks crisp" d="M0,450v-5" transform="translate(244.35,0)" style="stroke: rgb(68, 68, 68); stroke-opacity: 1; stroke-width: 1px;"/><path class="xtick ticks crisp" d="M0,450v-5" transform="translate(340.46,0)" style="stroke: rgb(68, 68, 68); stroke-opacity: 1; stroke-width: 1px;"/><path class="xtick ticks crisp" d="M0,450v-5" transform="translate(437.64,0)" style="stroke: rgb(68, 68, 68); stroke-opacity: 1; stroke-width: 1px;"/><path class="xtick ticks crisp" d="M0,450v-5" transform="translate(534.81,0)" style="stroke: rgb(68, 68, 68); stroke-opacity: 1; stroke-width: 1px;"/><path class="xtick ticks crisp" d="M0,450v-5" transform="translate(629.87,0)" style="stroke: rgb(68, 68, 68); stroke-opacity: 1; stroke-width: 1px;"/><path class="xtick ticks crisp" d="M0,450v-5" transform="translate(725.99,0)" style="stroke: rgb(68, 68, 68); stroke-opacity: 1; stroke-width: 1px;"/><g class="xtick"><text text-anchor="middle" x="0" y="469" transform="translate(52.11,0)" style="font-family: 'Open Sans', verdana, arial, sans-serif; font-size: 18px; fill: rgb(42, 63, 95); fill-opacity: 1; white-space: pre;">01/10</text></g><g class="xtick"><text text-anchor="middle" x="0" y="469" transform="translate(149.29000000000002,0)" style="font-family: 'Open Sans', verdana, arial, sans-serif; font-size: 18px; fill: rgb(42, 63, 95); fill-opacity: 1; white-space: pre;">01/01</text></g><g class="xtick"><text text-anchor="middle" x="0" y="469" transform="translate(244.35,0)" style="font-family: 'Open Sans', verdana, arial, sans-serif; font-size: 18px; fill: rgb(42, 63, 95); fill-opacity: 1; white-space: pre;">01/04</text></g><g class="xtick"><text text-anchor="middle" x="0" y="469" transform="translate(340.46,0)" style="font-family: 'Open Sans', verdana, arial, sans-serif; font-size: 18px; fill: rgb(42, 63, 95); fill-opacity: 1; white-space: pre;">01/07</text></g><g class="xtick"><text text-anchor="middle" x="0" y="469" transform="translate(437.64,0)" style="font-family: 'Open Sans', verdana, arial, sans-serif; font-size: 18px; fill: rgb(42, 63, 95); fill-opacity: 1; white-space: pre;">01/10</text></g><g class="xtick"><text text-anchor="middle" x="0" y="469" transform="translate(534.81,0)" style="font-family: 'Open Sans', verdana, arial, sans-serif; font-size: 18px; fill: rgb(42, 63, 95); fill-opacity: 1; white-space: pre;">01/01</text></g><g class="xtick"><text text-anchor="middle" x="0" y="469" transform="translate(629.87,0)" style="font-family: 'Open Sans', verdana, arial, sans-serif; font-size: 18px; fill: rgb(42, 63, 95); fill-opacity: 1; white-space: pre;">01/04</text></g><g class="xtick"><text text-anchor="middle" x="0" y="469" transform="translate(725.99,0)" style="font-family: 'Open Sans', verdana, arial, sans-serif; font-size: 18px; fill: rgb(42, 63, 95); fill-opacity: 1; white-space: pre;">01/07</text></g></g><g class="yaxislayer-above"/><g class="overaxes-above"/></g></g><g class="polarlayer"/><g class="ternarylayer"/><g class="geolayer"/><g class="funnelarealayer"/><g class="pielayer"/><g class="treemaplayer"/><g class="sunburstlayer"/><g class="glimages"/><defs id="topdefs-8fc678"><g class="clips"/></defs><g class="layer-above"><g class="imagelayer"/><g class="shapelayer"><path data-index="0" fill-rule="evenodd" d="M-543.6,445.1L228.5,445.1" clip-path="url('#clip8fc678xy')" style="opacity: 1; stroke: rgb(255, 0, 0); stroke-opacity: 1; fill: rgb(0, 0, 0); fill-opacity: 0; stroke-dasharray: 3px, 3px; stroke-width: 1.5px;"/></g></g><g class="infolayer"><g class="g-gtitle"><text class="gtitle" x="375" y="25" text-anchor="middle" dy="0.7em" style="font-family: 'Open Sans', verdana, arial, sans-serif; font-size: 50px; fill: rgb(42, 63, 95); opacity: 1; font-weight: normal; white-space: pre;"><tspan style="font-weight:bold">Vosges (88)</tspan></text></g><g class="g-xtitle"/><g class="annotation" data-index="0" style="opacity: 1;"><g class="annotation-text-g" transform="rotate(0,695.61,306.53)"><g class="cursor-pointer" transform="translate(638, 271)"><rect class="bg" x="0.5" y="0.5" width="115" height="71" style="stroke-width: 1px; stroke: rgb(0, 0, 0); stroke-opacity: 0; fill: rgb(255, 255, 255); fill-opacity: 0.6;"/><text class="annotation-text" text-anchor="middle" x="57.8125" y="55.5" style="font-family: 'Open Sans', verdana, arial, sans-serif; font-size: 50px; fill: rgb(8, 115, 191); fill-opacity: 1; white-space: pre;"> <tspan style="font-weight:bold">852 </tspan></text></g></g><g class="annotation-arrow-g" style="opacity: 1;"><path d="M724.01,342.03L735.61,356.53" style="stroke-width: 1px; stroke: rgb(8, 115, 191); stroke-opacity: 1; stroke-dasharray: 0px, 0px, 18.569px, 18.569px;"/></g></g></g></svg>