<svg class="main-svg" xmlns="http://www.w3.org/2000/svg" xmlns:xlink="http://www.w3.org/1999/xlink" width="1125" height="750" style="" viewBox="0 0 750 500"><rect x="0" y="0" width="750" height="500" style="fill: rgb(0, 0, 0); fill-opacity: 0;"/><defs id="defs-e335ae"><g class="clips"><clipPath id="clipe335aexyplot" class="plotclip"><rect width="700" height="380"/></clipPath><clipPath class="axesclip" id="clipe335aex"><rect x="50" y="0" width="700" height="500"/></clipPath><clipPath class="axesclip" id="clipe335aey"><rect x="0" y="70" width="750" height="380"/></clipPath><clipPath class="axesclip" id="clipe335aexy"><rect x="50" y="70" width="700" height="380"/></clipPath></g><g class="gradients"/></defs><g class="bglayer"><rect class="bg" x="50" y="70" width="700" height="380" style="fill: rgb(0, 0, 0); fill-opacity: 0; stroke-width: 0;"/></g><g class="layer-below"><g class="imagelayer"/><g class="shapelayer"/></g><g class="cartesianlayer"><g class="subplot xy"><g class="layer-subplot"><g class="shapelayer"/><g class="imagelayer"/></g><g class="gridlayer"><g class="x"><path class="xgrid crisp" transform="translate(91.32,0)" d="M0,70v380" style="stroke: rgb(255, 255, 255); stroke-opacity: 1; stroke-width: 1px;"/><path class="xgrid crisp" transform="translate(167.70999999999998,0)" d="M0,70v380" style="stroke: rgb(255, 255, 255); stroke-opacity: 1; stroke-width: 1px;"/><path class="xgrid crisp" transform="translate(241.59,0)" d="M0,70v380" style="stroke: rgb(255, 255, 255); stroke-opacity: 1; stroke-width: 1px;"/><path class="xgrid crisp" transform="translate(317.98,0)" d="M0,70v380" style="stroke: rgb(255, 255, 255); stroke-opacity: 1; stroke-width: 1px;"/><path class="xgrid crisp" transform="translate(394.36,0)" d="M0,70v380" style="stroke: rgb(255, 255, 255); stroke-opacity: 1; stroke-width: 1px;"/><path class="xgrid crisp" transform="translate(472,0)" d="M0,70v380" style="stroke: rgb(255, 255, 255); stroke-opacity: 1; stroke-width: 1px;"/><path class="xgrid crisp" transform="translate(548.39,0)" d="M0,70v380" style="stroke: rgb(255, 255, 255); stroke-opacity: 1; stroke-width: 1px;"/><path class="xgrid crisp" transform="translate(624.78,0)" d="M0,70v380" style="stroke: rgb(255, 255, 255); stroke-opacity: 1; stroke-width: 1px;"/><path class="xgrid crisp" transform="translate(698.66,0)" d="M0,70v380" style="stroke: rgb(255, 255, 255); stroke-opacity: 1; stroke-width: 1px;"/></g><g class="y"/></g><g class="zerolinelayer"/><path class="xlines-below"/><path class="ylines-below"/><g class="overlines-below"/><g class="xaxislayer-below"/><g class="yaxislayer-below"/><g class="overaxes-below"/><g class="plot" transform="translate(50, 70)" clip-path="url('#clipe335aexyplot')"><g class="scatterlayer mlayer"><g class="trace scatter trace9b2ef5" style="stroke-miterlimit: 2;"><g class="fills"><g><path class="js-fill" d="M678.71,380L-170.3,380L-170.3,379.86L-165.3,377.64L-164.04,376.52L-156.53,374.6L-155.28,375.05L-150.27,373.51L-149.02,372.86L-144.01,369.51L-142.75,368.66L-137.75,360.77L-136.49,359.92L-126.48,334.37L-125.22,335.12L-123.97,335.5L-122.72,338.37L-121.47,338.74L-120.21,336.11L-117.71,334.75L-116.46,336.83L-115.21,336.45L-113.95,333.07L-112.7,333.14L-111.45,335.74L-110.2,336.11L-108.94,338.78L-105.19,342.94L-103.94,345.98L-101.43,348.71L-100.18,352.13L-96.42,358.28L-95.17,358.89L-93.92,357.22L-92.67,358.35L-91.41,357.12L-90.16,355.85L-88.91,357.77L-85.15,357.01L-83.9,357.94L-73.88,364.53L-72.63,366.17L-51.34,371.15L-50.09,371.26L-42.58,371.87L-41.32,371.8L-38.82,370.33L-37.57,371.02L-33.81,372.04L-32.56,371.63L-30.05,372.93L-28.8,372.49L-25.04,372.76L-23.79,373.37L-20.04,374.26L-18.78,374.88L-15.03,374.57L-13.77,374.74L-11.27,374.67L-10.02,374.02L-7.51,374.02L-6.26,373.92L-3.76,373.58L-2.5,374.13L1.25,374.4L2.5,374.19L3.76,375.01L5.01,374.74L6.26,374.13L7.51,374.6L13.77,376.04L15.03,376.45L17.53,376.82L18.78,376.65L23.79,375.76L25.04,374.64L28.8,375.08L30.05,375.29L32.56,375.39L33.81,376.17L41.32,375.42L42.58,375.01L52.59,374.95L53.85,374.47L57.6,374.13L58.86,373.68L60.11,374.43L61.36,374.19L63.86,374.5L65.12,374.26L71.38,374.16L72.63,374.09L75.13,374.23L76.39,373.72L80.14,371.39L81.4,371.43L85.15,368.76L86.4,367.29L90.16,366.1L91.41,364.32L95.17,361.15L96.42,360.84L98.93,360.77L100.18,360.84L103.94,363.74L105.19,366.27L108.94,366.41L110.2,365.86L117.71,361.45L118.96,359.64L121.47,355.65L122.72,351.65L125.22,351.75L126.48,349.94L127.73,350.42L128.98,352.13L130.23,353.09L131.48,352.4L133.99,353.39L135.24,355.14L139,356.4L140.25,358.96L142.75,359.47L144.01,361.25L149.02,365.72L150.27,365.86L151.52,365.83L152.77,367.23L155.28,370.88L156.53,372.14L167.8,376.52L169.05,376.65L174.06,377.68L175.31,377.64L185.33,377.13L186.58,377.27L196.6,378.16L197.85,378.29L209.12,377.44L210.38,377.06L215.38,376.72L216.64,376.07L221.65,374.57L222.9,373.78L225.4,373.07L226.65,373.03L230.41,372.42L231.66,373.65L236.67,367.57L237.92,367.09L239.18,367.23L240.43,364.22L244.19,363.57L245.44,362.68L247.94,362.72L249.19,360.67L251.7,358.69L252.95,358L256.71,358.31L257.96,359.4L261.72,359.58L262.97,359L265.47,359.61L266.73,356.91L270.48,354.08L271.74,351.48L274.24,350.9L275.49,348.34L278,342.91L279.25,346.26L281.75,341.51L283.01,341.3L284.26,340.14L285.51,340.79L286.76,341.13L288.01,336.25L289.27,339.15L290.52,339.25L291.77,339.29L293.02,347.14L294.28,347.21L295.53,346.12L296.78,346.84L298.03,346.49L299.28,347.86L300.54,347.52L301.79,343.76L303.04,346.05L304.29,348.78L305.55,348.37L309.3,350.22L310.55,350.18L313.06,347.69L314.31,352.23L318.07,350.25L319.32,350.12L321.82,351.96L323.08,348.95L325.58,351.75L326.83,351.45L330.59,355.07L331.84,355.41L335.6,356.43L336.85,358.18L339.36,360.43L340.61,360.98L343.11,360.84L344.36,360.5L345.62,359.68L346.87,360.22L349.37,360.7L350.63,361.49L355.64,361.63L356.89,363.5L359.39,361.63L360.64,361.25L363.15,359.95L364.4,358.48L365.65,354.9L366.91,355.34L370.66,355.72L371.91,356.71L374.42,358.82L375.67,358.21L379.43,359.06L380.68,357.73L386.94,354.08L388.19,354.01L393.2,346.6L394.45,343.86L398.21,341.75L399.46,339.7L400.72,338.23L401.97,338.13L408.23,334.61L409.48,335.36L413.24,334.06L414.49,334.4L416.99,333.55L418.25,333.35L422,338.47L423.26,338.06L425.76,340.72L427.01,341.51L430.77,338.4L432.02,338.2L434.53,335.8L435.78,333.04L439.53,330.41L440.79,330.65L442.04,330.72L443.29,330.03L444.54,329.86L445.8,328.12L448.3,326.24L449.55,326.31L450.81,324.98L452.06,325.69L453.31,326.21L454.56,328.15L457.07,330.68L458.32,330.85L460.82,334.75L462.08,337.03L465.83,343.28L467.08,343.35L472.09,350.73L473.35,352.03L477.1,354.62L478.35,356.16L479.61,355.75L480.86,356.64L483.36,356.88L484.62,356.74L487.12,357.83L488.37,359.58L492.13,362.99L493.38,362.96L494.63,366.68L495.89,365.35L498.39,366.44L499.64,366.1L502.15,366.65L503.4,363.88L505.9,367.5L507.16,369.48L510.91,369.86L512.16,371.39L513.42,372.35L514.67,372.18L515.92,371.29L517.17,372.32L522.18,372.21L523.43,372.25L525.94,370.88L527.19,371.05L529.7,370.74L530.95,370.23L532.2,370.13L533.45,370.95L535.96,370.98L537.21,370.98L539.71,371.77L540.97,370.74L544.72,369.82L545.97,369.89L548.48,368.15L549.73,369L552.24,368.9L553.49,368.25L555.99,368.08L557.25,366.75L561,362.34L562.25,362.96L563.51,362.24L564.76,353.05L567.26,328.94L568.52,309.61L569.77,291.06L571.02,287.85L572.27,283.75L573.52,224.39L578.53,31.39L579.79,4.03L582.29,0L583.54,9.22L586.05,53.72L587.3,77.97L588.55,89.28L589.8,91.29L596.06,223.98L597.32,234.67L598.57,237.99L599.82,261.28L602.33,290.99L603.58,300.66L606.08,311.66L607.33,312.27L609.84,329.59L611.09,335.53L613.6,346.19L614.85,346.84L616.1,347.69L617.35,352.54L621.11,358.89L622.36,360.91L623.61,362.85L624.87,362.72L627.37,367.29L628.62,368.56L629.87,370.81L631.13,371.12L637.39,373.89L638.64,373.78L648.66,375.56L649.91,374.64L651.16,374.54L652.42,373L656.17,370.1L657.42,369.75L659.93,370.54L661.18,370.3L668.69,369.38L669.95,368.35L672.45,368.11L673.7,367.4L676.21,365.86L677.46,365.86L678.71,366.24" style="fill: rgb(8, 115, 191); fill-opacity: 0.2; stroke-width: 0;"/></g></g><g class="errorbars"/><g class="lines"><path class="js-line" d="M-170.3,379.86L-165.3,377.64L-164.04,376.52L-156.53,374.6L-155.28,375.05L-150.27,373.51L-149.02,372.86L-144.01,369.51L-142.75,368.66L-137.75,360.77L-136.49,359.92L-126.48,334.37L-125.22,335.12L-123.97,335.5L-122.72,338.37L-121.47,338.74L-120.21,336.11L-117.71,334.75L-116.46,336.83L-115.21,336.45L-113.95,333.07L-112.7,333.14L-111.45,335.74L-110.2,336.11L-108.94,338.78L-105.19,342.94L-103.94,345.98L-101.43,348.71L-100.18,352.13L-96.42,358.28L-95.17,358.89L-93.92,357.22L-92.67,358.35L-91.41,357.12L-90.16,355.85L-88.91,357.77L-85.15,357.01L-83.9,357.94L-73.88,364.53L-72.63,366.17L-51.34,371.15L-50.09,371.26L-42.58,371.87L-41.32,371.8L-38.82,370.33L-37.57,371.02L-33.81,372.04L-32.56,371.63L-30.05,372.93L-28.8,372.49L-25.04,372.76L-23.79,373.37L-20.04,374.26L-18.78,374.88L-15.03,374.57L-13.77,374.74L-11.27,374.67L-10.02,374.02L-7.51,374.02L-6.26,373.92L-3.76,373.58L-2.5,374.13L1.25,374.4L2.5,374.19L3.76,375.01L5.01,374.74L6.26,374.13L7.51,374.6L13.77,376.04L15.03,376.45L17.53,376.82L18.78,376.65L23.79,375.76L25.04,374.64L28.8,375.08L30.05,375.29L32.56,375.39L33.81,376.17L41.32,375.42L42.58,375.01L52.59,374.95L53.85,374.47L57.6,374.13L58.86,373.68L60.11,374.43L61.36,374.19L63.86,374.5L65.12,374.26L71.38,374.16L72.63,374.09L75.13,374.23L76.39,373.72L80.14,371.39L81.4,371.43L85.15,368.76L86.4,367.29L90.16,366.1L91.41,364.32L95.17,361.15L96.42,360.84L98.93,360.77L100.18,360.84L103.94,363.74L105.19,366.27L108.94,366.41L110.2,365.86L117.71,361.45L118.96,359.64L121.47,355.65L122.72,351.65L125.22,351.75L126.48,349.94L127.73,350.42L128.98,352.13L130.23,353.09L131.48,352.4L133.99,353.39L135.24,355.14L139,356.4L140.25,358.96L142.75,359.47L144.01,361.25L149.02,365.72L150.27,365.86L151.52,365.83L152.77,367.23L155.28,370.88L156.53,372.14L167.8,376.52L169.05,376.65L174.06,377.68L175.31,377.64L185.33,377.13L186.58,377.27L196.6,378.16L197.85,378.29L209.12,377.44L210.38,377.06L215.38,376.72L216.64,376.07L221.65,374.57L222.9,373.78L225.4,373.07L226.65,373.03L230.41,372.42L231.66,373.65L236.67,367.57L237.92,367.09L239.18,367.23L240.43,364.22L244.19,363.57L245.44,362.68L247.94,362.72L249.19,360.67L251.7,358.69L252.95,358L256.71,358.31L257.96,359.4L261.72,359.58L262.97,359L265.47,359.61L266.73,356.91L270.48,354.08L271.74,351.48L274.24,350.9L275.49,348.34L278,342.91L279.25,346.26L281.75,341.51L283.01,341.3L284.26,340.14L285.51,340.79L286.76,341.13L288.01,336.25L289.27,339.15L290.52,339.25L291.77,339.29L293.02,347.14L294.28,347.21L295.53,346.12L296.78,346.84L298.03,346.49L299.28,347.86L300.54,347.52L301.79,343.76L303.04,346.05L304.29,348.78L305.55,348.37L309.3,350.22L310.55,350.18L313.06,347.69L314.31,352.23L318.07,350.25L319.32,350.12L321.82,351.96L323.08,348.95L325.58,351.75L326.83,351.45L330.59,355.07L331.84,355.41L335.6,356.43L336.85,358.18L339.36,360.43L340.61,360.98L343.11,360.84L344.36,360.5L345.62,359.68L346.87,360.22L349.37,360.7L350.63,361.49L355.64,361.63L356.89,363.5L359.39,361.63L360.64,361.25L363.15,359.95L364.4,358.48L365.65,354.9L366.91,355.34L370.66,355.72L371.91,356.71L374.42,358.82L375.67,358.21L379.43,359.06L380.68,357.73L386.94,354.08L388.19,354.01L393.2,346.6L394.45,343.86L398.21,341.75L399.46,339.7L400.72,338.23L401.97,338.13L408.23,334.61L409.48,335.36L413.24,334.06L414.49,334.4L416.99,333.55L418.25,333.35L422,338.47L423.26,338.06L425.76,340.72L427.01,341.51L430.77,338.4L432.02,338.2L434.53,335.8L435.78,333.04L439.53,330.41L440.79,330.65L442.04,330.72L443.29,330.03L444.54,329.86L445.8,328.12L448.3,326.24L449.55,326.31L450.81,324.98L452.06,325.69L453.31,326.21L454.56,328.15L457.07,330.68L458.32,330.85L460.82,334.75L462.08,337.03L465.83,343.28L467.08,343.35L472.09,350.73L473.35,352.03L477.1,354.62L478.35,356.16L479.61,355.75L480.86,356.64L483.36,356.88L484.62,356.74L487.12,357.83L488.37,359.58L492.13,362.99L493.38,362.96L494.63,366.68L495.89,365.35L498.39,366.44L499.64,366.1L502.15,366.65L503.4,363.88L505.9,367.5L507.16,369.48L510.91,369.86L512.16,371.39L513.42,372.35L514.67,372.18L515.92,371.29L517.17,372.32L522.18,372.21L523.43,372.25L525.94,370.88L527.19,371.05L529.7,370.74L530.95,370.23L532.2,370.13L533.45,370.95L535.96,370.98L537.21,370.98L539.71,371.77L540.97,370.74L544.72,369.82L545.97,369.89L548.48,368.15L549.73,369L552.24,368.9L553.49,368.25L555.99,368.08L557.25,366.75L561,362.34L562.25,362.96L563.51,362.24L564.76,353.05L567.26,328.94L568.52,309.61L569.77,291.06L571.02,287.85L572.27,283.75L573.52,224.39L578.53,31.39L579.79,4.03L582.29,0L583.54,9.22L586.05,53.72L587.3,77.97L588.55,89.28L589.8,91.29L596.06,223.98L597.32,234.67L598.57,237.99L599.82,261.28L602.33,290.99L603.58,300.66L606.08,311.66L607.33,312.27L609.84,329.59L611.09,335.53L613.6,346.19L614.85,346.84L616.1,347.69L617.35,352.54L621.11,358.89L622.36,360.91L623.61,362.85L624.87,362.72L627.37,367.29L628.62,368.56L629.87,370.81L631.13,371.12L637.39,373.89L638.64,373.78L648.66,375.56L649.91,374.64L651.16,374.54L652.42,373L656.17,370.1L657.42,369.75L659.93,370.54L661.18,370.3L668.69,369.38L669.95,368.35L672.45,368.11L673.7,367.4L676.21,365.86L677.46,365.86L678.71,366.24" style="vector-effect: non-scaling-stroke; fill: none; stroke: rgb(8, 115, 191); stroke-opacity: 1; stroke-width: 0.5px; opacity: 1;"/></g><g class="points"/><g class="text"/></g><g class="trace scatter trace282a84" style="stroke-miterlimit: 2;"><g class="fills"><g><path class="js-fill" d="M691.23,380L678.71,380L678.71,366.24L682.47,365.31L683.72,366L686.23,366.07L687.48,365.48L688.73,364.43L689.98,364.73L691.23,364.19" style="fill: rgb(8, 115, 191); fill-opacity: 0.4; stroke-width: 0;"/></g></g><g class="errorbars"/><g class="lines"><path class="js-line" d="M678.71,366.24L682.47,365.31L683.72,366L686.23,366.07L687.48,365.48L688.73,364.43L689.98,364.73L691.23,364.19" style="vector-effect: non-scaling-stroke; fill: none; stroke: rgb(8, 115, 191); stroke-opacity: 1; stroke-width: 2px; opacity: 1;"/></g><g class="points"/><g class="text"/></g><g class="trace scatter trace8e8a3a" style="stroke-miterlimit: 2; opacity: 1;"><g class="fills"/><g class="errorbars"/><g class="lines"/><g class="points"><path class="point" transform="translate(691.23,364.19)" d="M15,0A15,15 0 1,1 0,-15A15,15 0 0,1 15,0Z" style="opacity: 1; stroke-width: 0px; fill: rgb(8, 115, 191); fill-opacity: 1;"/></g><g class="text"/></g></g></g><g class="overplot"/><path class="xlines-above crisp" style="fill: none; stroke-width: 1px; stroke: rgb(0, 0, 0); stroke-opacity: 0;" d=""/><path class="ylines-above crisp" style="fill: none;" d="M0,0"/><g class="overlines-above"/><g class="xaxislayer-above"><path class="xtick ticks crisp" d="M0,450v-5" transform="translate(91.32,0)" style="stroke: rgb(68, 68, 68); stroke-opacity: 1; stroke-width: 1px;"/><path class="xtick ticks crisp" d="M0,450v-5" transform="translate(167.70999999999998,0)" style="stroke: rgb(68, 68, 68); stroke-opacity: 1; stroke-width: 1px;"/><path class="xtick ticks crisp" d="M0,450v-5" transform="translate(241.59,0)" style="stroke: rgb(68, 68, 68); stroke-opacity: 1; stroke-width: 1px;"/><path class="xtick ticks crisp" d="M0,450v-5" transform="translate(317.98,0)" style="stroke: rgb(68, 68, 68); stroke-opacity: 1; stroke-width: 1px;"/><path class="xtick ticks crisp" d="M0,450v-5" transform="translate(394.36,0)" style="stroke: rgb(68, 68, 68); stroke-opacity: 1; stroke-width: 1px;"/><path class="xtick ticks crisp" d="M0,450v-5" transform="translate(472,0)" style="stroke: rgb(68, 68, 68); stroke-opacity: 1; stroke-width: 1px;"/><path class="xtick ticks crisp" d="M0,450v-5" transform="translate(548.39,0)" style="stroke: rgb(68, 68, 68); stroke-opacity: 1; stroke-width: 1px;"/><path class="xtick ticks crisp" d="M0,450v-5" transform="translate(624.78,0)" style="stroke: rgb(68, 68, 68); stroke-opacity: 1; stroke-width: 1px;"/><path class="xtick ticks crisp" d="M0,450v-5" transform="translate(698.66,0)" style="stroke: rgb(68, 68, 68); stroke-opacity: 1; stroke-width: 1px;"/><g class="xtick"><text text-anchor="middle" x="0" y="469" transform="translate(91.32,0)" style="font-family: 'Open Sans', verdana, arial, sans-serif; font-size: 18px; fill: rgb(42, 63, 95); fill-opacity: 1; white-space: pre;">01/11</text></g><g class="xtick"><text text-anchor="middle" x="0" y="469" transform="translate(167.70999999999998,0)" style="font-family: 'Open Sans', verdana, arial, sans-serif; font-size: 18px; fill: rgb(42, 63, 95); fill-opacity: 1; white-space: pre;">01/01</text></g><g class="xtick"><text text-anchor="middle" x="0" y="469" transform="translate(241.59,0)" style="font-family: 'Open Sans', verdana, arial, sans-serif; font-size: 18px; fill: rgb(42, 63, 95); fill-opacity: 1; white-space: pre;">01/03</text></g><g class="xtick"><text text-anchor="middle" x="0" y="469" transform="translate(317.98,0)" style="font-family: 'Open Sans', verdana, arial, sans-serif; font-size: 18px; fill: rgb(42, 63, 95); fill-opacity: 1; white-space: pre;">01/05</text></g><g class="xtick"><text text-anchor="middle" x="0" y="469" transform="translate(394.36,0)" style="font-family: 'Open Sans', verdana, arial, sans-serif; font-size: 18px; fill: rgb(42, 63, 95); fill-opacity: 1; white-space: pre;">01/07</text></g><g class="xtick"><text text-anchor="middle" x="0" y="469" transform="translate(472,0)" style="font-family: 'Open Sans', verdana, arial, sans-serif; font-size: 18px; fill: rgb(42, 63, 95); fill-opacity: 1; white-space: pre;">01/09</text></g><g class="xtick"><text text-anchor="middle" x="0" y="469" transform="translate(548.39,0)" style="font-family: 'Open Sans', verdana, arial, sans-serif; font-size: 18px; fill: rgb(42, 63, 95); fill-opacity: 1; white-space: pre;">01/11</text></g><g class="xtick"><text text-anchor="middle" x="0" y="469" transform="translate(624.78,0)" style="font-family: 'Open Sans', verdana, arial, sans-serif; font-size: 18px; fill: rgb(42, 63, 95); fill-opacity: 1; white-space: pre;">01/01</text></g><g class="xtick"><text text-anchor="middle" x="0" y="469" transform="translate(698.66,0)" style="font-family: 'Open Sans', verdana, arial, sans-serif; font-size: 18px; fill: rgb(42, 63, 95); fill-opacity: 1; white-space: pre;">01/03</text></g></g><g class="yaxislayer-above"/><g class="overaxes-above"/></g></g><g class="polarlayer"/><g class="ternarylayer"/><g class="geolayer"/><g class="funnelarealayer"/><g class="pielayer"/><g class="treemaplayer"/><g class="sunburstlayer"/><g class="glimages"/><defs id="topdefs-e335ae"><g class="clips"/></defs><g class="layer-above"><g class="imagelayer"/><g class="shapelayer"><path data-index="0" fill-rule="evenodd" d="M-653.76,445.04L261.63,445.04" clip-path="url('#clipe335aexy')" style="opacity: 1; stroke: rgb(255, 0, 0); stroke-opacity: 1; fill: rgb(0, 0, 0); fill-opacity: 0; stroke-dasharray: 3px, 3px; stroke-width: 1.5px;"/></g></g><g class="infolayer"><g class="g-gtitle"><text class="gtitle" x="375" y="25" text-anchor="middle" dy="0.7em" style="font-family: 'Open Sans', verdana, arial, sans-serif; font-size: 50px; fill: rgb(42, 63, 95); opacity: 1; font-weight: normal; white-space: pre;"><tspan style="font-weight:bold">Guyane (973)</tspan></text></g><g class="g-xtitle"/><g class="annotation" data-index="0" style="opacity: 1;"><g class="annotation-text-g" transform="rotate(0,699.23,374.19)"><g class="cursor-pointer" transform="translate(641, 338)"><rect class="bg" x="0.5" y="0.5" width="115" height="71" style="stroke-width: 1px; stroke: rgb(0, 0, 0); stroke-opacity: 0; fill: rgb(255, 255, 255); fill-opacity: 0.6;"/><text class="annotation-text" text-anchor="middle" x="57.8125" y="55.5" style="font-family: 'Open Sans', verdana, arial, sans-serif; font-size: 50px; fill: rgb(8, 115, 191); fill-opacity: 1; white-space: pre;"> <tspan style="font-weight:bold">159 </tspan></text></g></g><g class="annotation-arrow-g" style="opacity: 1;"><path d="M727.63,409.69L739.23,424.19" style="stroke-width: 1px; stroke: rgb(8, 115, 191); stroke-opacity: 1; stroke-dasharray: 0px, 0px, 18.569px, 18.569px;"/></g></g></g></svg>