<svg class="main-svg" xmlns="http://www.w3.org/2000/svg" xmlns:xlink="http://www.w3.org/1999/xlink" width="1125" height="750" style="" viewBox="0 0 750 500"><rect x="0" y="0" width="750" height="500" style="fill: rgb(0, 0, 0); fill-opacity: 0;"/><defs id="defs-2f741a"><g class="clips"><clipPath id="clip2f741axyplot" class="plotclip"><rect width="700" height="380"/></clipPath><clipPath class="axesclip" id="clip2f741ax"><rect x="50" y="0" width="700" height="500"/></clipPath><clipPath class="axesclip" id="clip2f741ay"><rect x="0" y="70" width="750" height="380"/></clipPath><clipPath class="axesclip" id="clip2f741axy"><rect x="50" y="70" width="700" height="380"/></clipPath></g><g class="gradients"/></defs><g class="bglayer"><rect class="bg" x="50" y="70" width="700" height="380" style="fill: rgb(0, 0, 0); fill-opacity: 0; stroke-width: 0;"/></g><g class="layer-below"><g class="imagelayer"/><g class="shapelayer"/></g><g class="cartesianlayer"><g class="subplot xy"><g class="layer-subplot"><g class="shapelayer"/><g class="imagelayer"/></g><g class="gridlayer"><g class="x"><path class="xgrid crisp" transform="translate(92.7,0)" d="M0,70v380" style="stroke: rgb(255, 255, 255); stroke-opacity: 1; stroke-width: 1px;"/><path class="xgrid crisp" transform="translate(171.63,0)" d="M0,70v380" style="stroke: rgb(255, 255, 255); stroke-opacity: 1; stroke-width: 1px;"/><path class="xgrid crisp" transform="translate(247.97,0)" d="M0,70v380" style="stroke: rgb(255, 255, 255); stroke-opacity: 1; stroke-width: 1px;"/><path class="xgrid crisp" transform="translate(326.89,0)" d="M0,70v380" style="stroke: rgb(255, 255, 255); stroke-opacity: 1; stroke-width: 1px;"/><path class="xgrid crisp" transform="translate(405.82,0)" d="M0,70v380" style="stroke: rgb(255, 255, 255); stroke-opacity: 1; stroke-width: 1px;"/><path class="xgrid crisp" transform="translate(486.04,0)" d="M0,70v380" style="stroke: rgb(255, 255, 255); stroke-opacity: 1; stroke-width: 1px;"/><path class="xgrid crisp" transform="translate(564.97,0)" d="M0,70v380" style="stroke: rgb(255, 255, 255); stroke-opacity: 1; stroke-width: 1px;"/><path class="xgrid crisp" transform="translate(643.9,0)" d="M0,70v380" style="stroke: rgb(255, 255, 255); stroke-opacity: 1; stroke-width: 1px;"/><path class="xgrid crisp" transform="translate(720.24,0)" d="M0,70v380" style="stroke: rgb(255, 255, 255); stroke-opacity: 1; stroke-width: 1px;"/></g><g class="y"/></g><g class="zerolinelayer"/><path class="xlines-below"/><path class="ylines-below"/><g class="overlines-below"/><g class="xaxislayer-below"/><g class="yaxislayer-below"/><g class="overaxes-below"/><g class="plot" transform="translate(50, 70)" clip-path="url('#clip2f741axyplot')"><g class="scatterlayer mlayer"><g class="trace scatter trace1e0bd5" style="stroke-miterlimit: 2;"><g class="fills"><g><path class="js-fill" d="M678,380L-175.97,380L-175.97,379.86L-60.81,378.04L-59.52,377.75L-43.99,368.64L-42.7,368.59L-37.52,364.74L-36.23,364.13L-31.05,364.72L-29.76,365.63L-19.41,367.14L-18.11,367.12L-14.23,367.65L-12.94,368.68L-6.47,370.76L-5.18,370.84L-1.29,371.15L0,371.12L11.65,370.69L12.94,370.22L23.29,368.45L24.58,367.04L28.47,363.87L29.76,363.65L32.35,360.1L33.64,359.57L36.23,358.15L37.52,357.96L38.82,358.18L40.11,357.48L42.7,357.13L43.99,357.48L46.58,358.14L47.87,358.14L50.46,361.27L51.76,364.44L53.05,364.62L54.34,365.83L58.23,367.61L59.52,368.93L60.81,367.88L62.11,369.85L64.7,371.4L65.99,371.55L68.58,373.36L69.87,373.82L73.75,374.4L75.05,374.4L103.51,372.36L104.81,372.41L107.39,372.79L108.69,374.05L117.74,372.23L119.04,371.73L120.33,371.58L121.63,370.51L125.51,368.78L126.8,366.63L130.68,366.74L131.98,366.74L137.15,365.9L138.45,365.94L144.92,364.98L146.21,365.11L159.15,365.39L160.44,365.81L165.62,367.98L166.91,369.24L170.79,370.34L172.09,370.77L179.85,370.76L181.15,370.07L183.73,370.13L185.03,369.28L187.62,368.24L188.91,368.35L200.55,371L201.85,370.95L207.02,368.86L208.32,368.07L218.67,364.55L219.96,364.55L226.43,360.72L227.73,360.08L229.02,359.81L230.31,358.76L236.78,357.89L238.08,358.14L239.37,362.61L240.67,361.41L245.84,362.8L247.13,362.61L248.43,358.92L249.72,360.59L258.78,364.18L260.07,364.24L266.54,365.31L267.84,365.97L275.6,369.67L276.89,369.95L285.95,371.82L287.25,372.57L288.54,373.74L289.83,373.89L292.42,373.4L293.72,373.67L296.3,373.28L297.6,372.26L301.48,372.34L302.77,373.73L307.95,372.94L309.24,373.18L310.54,373.17L311.83,372.16L314.42,373.44L315.71,373.88L320.89,374.98L322.18,375.32L329.94,376.72L331.24,376.82L344.18,378.34L345.47,378.3L353.23,377.67L354.53,377.56L364.88,376.1L366.17,375.1L367.47,373.85L368.76,374.08L372.64,367.94L373.94,367.54L379.11,353.35L380.41,351.3L385.58,348L386.88,348.23L389.46,349.58L390.76,350.52L392.05,350.7L393.35,352.14L397.23,354.42L398.52,354.15L402.4,354.21L403.7,355.03L406.28,355.81L407.58,356.62L411.46,358.52L412.75,359.31L417.93,362.44L419.22,362.51L428.28,367.54L429.57,368.24L434.75,369.88L436.04,370.17L437.34,370.26L438.63,371.12L445.1,373.65L446.4,373.79L448.98,374.75L450.28,374.72L469.69,376.47L470.98,376.82L477.45,377.51L478.74,377.44L489.09,376.93L490.39,376.95L496.86,376.8L498.15,376.57L509.8,376.04L511.09,376.64L516.27,374.62L517.56,374.12L518.85,374.16L520.15,372.49L524.03,372.33L525.32,370.76L527.91,370.13L529.21,368.72L534.38,361.95L535.67,360.88L536.97,360.85L538.26,358.37L544.73,349.16L546.03,348.79L552.5,336.94L553.79,335.88L555.08,335.57L556.38,333.58L557.67,332.24L558.96,332.2L560.26,331.53L561.55,332.2L565.43,333.15L566.73,333.49L568.02,333.77L569.32,335.19L573.2,334.99L574.49,333.61L575.79,330.99L577.08,326.14L579.67,316.17L580.96,318.77L582.26,317.05L583.55,299.64L588.72,238.83L590.02,237.59L591.31,234.38L592.61,210.94L595.19,184.36L596.49,178.13L597.78,169.14L599.08,150.11L600.37,147.75L601.66,147.1L602.96,147.84L604.25,142.93L606.84,133.85L608.13,126.63L609.43,123.14L610.72,109.85L614.6,66.9L615.9,50.12L617.19,39.4L618.48,37.19L621.07,5.82L622.37,0.4L623.66,0L624.95,2.11L627.54,6.31L628.84,16.06L635.3,65.82L636.6,69.93L643.07,173.23L644.36,185.66L645.66,190.24L646.95,216.86L650.83,256.07L652.13,264.26L653.42,268.78L654.71,270.38L657.3,284.23L658.6,289.87L662.48,303.78L663.77,304.38L666.36,312.29L667.65,315.2L671.53,320.35L672.83,320.56L674.12,321.07L675.42,320.67L678,317.66" style="fill: rgb(8, 115, 191); fill-opacity: 0.2; stroke-width: 0;"/></g></g><g class="errorbars"/><g class="lines"><path class="js-line" d="M-175.97,379.86L-60.81,378.04L-59.52,377.75L-43.99,368.64L-42.7,368.59L-37.52,364.74L-36.23,364.13L-31.05,364.72L-29.76,365.63L-19.41,367.14L-18.11,367.12L-14.23,367.65L-12.94,368.68L-6.47,370.76L-5.18,370.84L-1.29,371.15L0,371.12L11.65,370.69L12.94,370.22L23.29,368.45L24.58,367.04L28.47,363.87L29.76,363.65L32.35,360.1L33.64,359.57L36.23,358.15L37.52,357.96L38.82,358.18L40.11,357.48L42.7,357.13L43.99,357.48L46.58,358.14L47.87,358.14L50.46,361.27L51.76,364.44L53.05,364.62L54.34,365.83L58.23,367.61L59.52,368.93L60.81,367.88L62.11,369.85L64.7,371.4L65.99,371.55L68.58,373.36L69.87,373.82L73.75,374.4L75.05,374.4L103.51,372.36L104.81,372.41L107.39,372.79L108.69,374.05L117.74,372.23L119.04,371.73L120.33,371.58L121.63,370.51L125.51,368.78L126.8,366.63L130.68,366.74L131.98,366.74L137.15,365.9L138.45,365.94L144.92,364.98L146.21,365.11L159.15,365.39L160.44,365.81L165.62,367.98L166.91,369.24L170.79,370.34L172.09,370.77L179.85,370.76L181.15,370.07L183.73,370.13L185.03,369.28L187.62,368.24L188.91,368.35L200.55,371L201.85,370.95L207.02,368.86L208.32,368.07L218.67,364.55L219.96,364.55L226.43,360.72L227.73,360.08L229.02,359.81L230.31,358.76L236.78,357.89L238.08,358.14L239.37,362.61L240.67,361.41L245.84,362.8L247.13,362.61L248.43,358.92L249.72,360.59L258.78,364.18L260.07,364.24L266.54,365.31L267.84,365.97L275.6,369.67L276.89,369.95L285.95,371.82L287.25,372.57L288.54,373.74L289.83,373.89L292.42,373.4L293.72,373.67L296.3,373.28L297.6,372.26L301.48,372.34L302.77,373.73L307.95,372.94L309.24,373.18L310.54,373.17L311.83,372.16L314.42,373.44L315.71,373.88L320.89,374.98L322.18,375.32L329.94,376.72L331.24,376.82L344.18,378.34L345.47,378.3L353.23,377.67L354.53,377.56L364.88,376.1L366.17,375.1L367.47,373.85L368.76,374.08L372.64,367.94L373.94,367.54L379.11,353.35L380.41,351.3L385.58,348L386.88,348.23L389.46,349.58L390.76,350.52L392.05,350.7L393.35,352.14L397.23,354.42L398.52,354.15L402.4,354.21L403.7,355.03L406.28,355.81L407.58,356.62L411.46,358.52L412.75,359.31L417.93,362.44L419.22,362.51L428.28,367.54L429.57,368.24L434.75,369.88L436.04,370.17L437.34,370.26L438.63,371.12L445.1,373.65L446.4,373.79L448.98,374.75L450.28,374.72L469.69,376.47L470.98,376.82L477.45,377.51L478.74,377.44L489.09,376.93L490.39,376.95L496.86,376.8L498.15,376.57L509.8,376.04L511.09,376.64L516.27,374.62L517.56,374.12L518.85,374.16L520.15,372.49L524.03,372.33L525.32,370.76L527.91,370.13L529.21,368.72L534.38,361.95L535.67,360.88L536.97,360.85L538.26,358.37L544.73,349.16L546.03,348.79L552.5,336.94L553.79,335.88L555.08,335.57L556.38,333.58L557.67,332.24L558.96,332.2L560.26,331.53L561.55,332.2L565.43,333.15L566.73,333.49L568.02,333.77L569.32,335.19L573.2,334.99L574.49,333.61L575.79,330.99L577.08,326.14L579.67,316.17L580.96,318.77L582.26,317.05L583.55,299.64L588.72,238.83L590.02,237.59L591.31,234.38L592.61,210.94L595.19,184.36L596.49,178.13L597.78,169.14L599.08,150.11L600.37,147.75L601.66,147.1L602.96,147.84L604.25,142.93L606.84,133.85L608.13,126.63L609.43,123.14L610.72,109.85L614.6,66.9L615.9,50.12L617.19,39.4L618.48,37.19L621.07,5.82L622.37,0.4L623.66,0L624.95,2.11L627.54,6.31L628.84,16.06L635.3,65.82L636.6,69.93L643.07,173.23L644.36,185.66L645.66,190.24L646.95,216.86L650.83,256.07L652.13,264.26L653.42,268.78L654.71,270.38L657.3,284.23L658.6,289.87L662.48,303.78L663.77,304.38L666.36,312.29L667.65,315.2L671.53,320.35L672.83,320.56L674.12,321.07L675.42,320.67L678,317.66" style="vector-effect: non-scaling-stroke; fill: none; stroke: rgb(8, 115, 191); stroke-opacity: 1; stroke-width: 0.5px; opacity: 1;"/></g><g class="points"/><g class="text"/></g><g class="trace scatter trace6d399d" style="stroke-miterlimit: 2;"><g class="fills"><g><path class="js-fill" d="M690.94,380L678,380L678,317.66L681.89,311.89L683.18,306.05L688.35,292.48L689.65,291.43L690.94,291.51" style="fill: rgb(8, 115, 191); fill-opacity: 0.4; stroke-width: 0;"/></g></g><g class="errorbars"/><g class="lines"><path class="js-line" d="M678,317.66L681.89,311.89L683.18,306.05L688.35,292.48L689.65,291.43L690.94,291.51" style="vector-effect: non-scaling-stroke; fill: none; stroke: rgb(8, 115, 191); stroke-opacity: 1; stroke-width: 2px; opacity: 1;"/></g><g class="points"/><g class="text"/></g><g class="trace scatter trace0959d9" style="stroke-miterlimit: 2; opacity: 1;"><g class="fills"/><g class="errorbars"/><g class="lines"/><g class="points"><path class="point" transform="translate(690.94,291.51)" d="M15,0A15,15 0 1,1 0,-15A15,15 0 0,1 15,0Z" style="opacity: 1; stroke-width: 0px; fill: rgb(8, 115, 191); fill-opacity: 1;"/></g><g class="text"/></g></g></g><g class="overplot"/><path class="xlines-above crisp" style="fill: none; stroke-width: 1px; stroke: rgb(0, 0, 0); stroke-opacity: 0;" d=""/><path class="ylines-above crisp" style="fill: none;" d="M0,0"/><g class="overlines-above"/><g class="xaxislayer-above"><path class="xtick ticks crisp" d="M0,450v-5" transform="translate(92.7,0)" style="stroke: rgb(68, 68, 68); stroke-opacity: 1; stroke-width: 1px;"/><path class="xtick ticks crisp" d="M0,450v-5" transform="translate(171.63,0)" style="stroke: rgb(68, 68, 68); stroke-opacity: 1; stroke-width: 1px;"/><path class="xtick ticks crisp" d="M0,450v-5" transform="translate(247.97,0)" style="stroke: rgb(68, 68, 68); stroke-opacity: 1; stroke-width: 1px;"/><path class="xtick ticks crisp" d="M0,450v-5" transform="translate(326.89,0)" style="stroke: rgb(68, 68, 68); stroke-opacity: 1; stroke-width: 1px;"/><path class="xtick ticks crisp" d="M0,450v-5" transform="translate(405.82,0)" style="stroke: rgb(68, 68, 68); stroke-opacity: 1; stroke-width: 1px;"/><path class="xtick ticks crisp" d="M0,450v-5" transform="translate(486.04,0)" style="stroke: rgb(68, 68, 68); stroke-opacity: 1; stroke-width: 1px;"/><path class="xtick ticks crisp" d="M0,450v-5" transform="translate(564.97,0)" style="stroke: rgb(68, 68, 68); stroke-opacity: 1; stroke-width: 1px;"/><path class="xtick ticks crisp" d="M0,450v-5" transform="translate(643.9,0)" style="stroke: rgb(68, 68, 68); stroke-opacity: 1; stroke-width: 1px;"/><path class="xtick ticks crisp" d="M0,450v-5" transform="translate(720.24,0)" style="stroke: rgb(68, 68, 68); stroke-opacity: 1; stroke-width: 1px;"/><g class="xtick"><text text-anchor="middle" x="0" y="469" transform="translate(92.7,0)" style="font-family: 'Open Sans', verdana, arial, sans-serif; font-size: 18px; fill: rgb(42, 63, 95); fill-opacity: 1; white-space: pre;">01/11</text></g><g class="xtick"><text text-anchor="middle" x="0" y="469" transform="translate(171.63,0)" style="font-family: 'Open Sans', verdana, arial, sans-serif; font-size: 18px; fill: rgb(42, 63, 95); fill-opacity: 1; white-space: pre;">01/01</text></g><g class="xtick"><text text-anchor="middle" x="0" y="469" transform="translate(247.97,0)" style="font-family: 'Open Sans', verdana, arial, sans-serif; font-size: 18px; fill: rgb(42, 63, 95); fill-opacity: 1; white-space: pre;">01/03</text></g><g class="xtick"><text text-anchor="middle" x="0" y="469" transform="translate(326.89,0)" style="font-family: 'Open Sans', verdana, arial, sans-serif; font-size: 18px; fill: rgb(42, 63, 95); fill-opacity: 1; white-space: pre;">01/05</text></g><g class="xtick"><text text-anchor="middle" x="0" y="469" transform="translate(405.82,0)" style="font-family: 'Open Sans', verdana, arial, sans-serif; font-size: 18px; fill: rgb(42, 63, 95); fill-opacity: 1; white-space: pre;">01/07</text></g><g class="xtick"><text text-anchor="middle" x="0" y="469" transform="translate(486.04,0)" style="font-family: 'Open Sans', verdana, arial, sans-serif; font-size: 18px; fill: rgb(42, 63, 95); fill-opacity: 1; white-space: pre;">01/09</text></g><g class="xtick"><text text-anchor="middle" x="0" y="469" transform="translate(564.97,0)" style="font-family: 'Open Sans', verdana, arial, sans-serif; font-size: 18px; fill: rgb(42, 63, 95); fill-opacity: 1; white-space: pre;">01/11</text></g><g class="xtick"><text text-anchor="middle" x="0" y="469" transform="translate(643.9,0)" style="font-family: 'Open Sans', verdana, arial, sans-serif; font-size: 18px; fill: rgb(42, 63, 95); fill-opacity: 1; white-space: pre;">01/01</text></g><g class="xtick"><text text-anchor="middle" x="0" y="469" transform="translate(720.24,0)" style="font-family: 'Open Sans', verdana, arial, sans-serif; font-size: 18px; fill: rgb(42, 63, 95); fill-opacity: 1; white-space: pre;">01/03</text></g></g><g class="yaxislayer-above"/><g class="overaxes-above"/></g></g><g class="polarlayer"/><g class="ternarylayer"/><g class="geolayer"/><g class="funnelarealayer"/><g class="pielayer"/><g class="treemaplayer"/><g class="sunburstlayer"/><g class="glimages"/><defs id="topdefs-2f741a"><g class="clips"/></defs><g class="layer-above"><g class="imagelayer"/><g class="shapelayer"><path data-index="0" fill-rule="evenodd" d="M-677.17,445.47L268.66999999999996,445.47" clip-path="url('#clip2f741axy')" style="opacity: 1; stroke: rgb(255, 0, 0); stroke-opacity: 1; fill: rgb(0, 0, 0); fill-opacity: 0; stroke-dasharray: 3px, 3px; stroke-width: 1.5px;"/></g></g><g class="infolayer"><g class="g-gtitle"><text class="gtitle" x="375" y="25" text-anchor="middle" dy="0.7em" style="font-family: 'Open Sans', verdana, arial, sans-serif; font-size: 50px; fill: rgb(42, 63, 95); opacity: 1; font-weight: normal; white-space: pre;"><tspan style="font-weight:bold">Gironde (33)</tspan></text></g><g class="g-xtitle"/><g class="annotation" data-index="0" style="opacity: 1;"><g class="annotation-text-g" transform="rotate(0,698.94,301.51)"><g class="cursor-pointer" transform="translate(641, 266)"><rect class="bg" x="0.5" y="0.5" width="115" height="71" style="stroke-width: 1px; stroke: rgb(0, 0, 0); stroke-opacity: 0; fill: rgb(255, 255, 255); fill-opacity: 0.6;"/><text class="annotation-text" text-anchor="middle" x="57.8125" y="55.5" style="font-family: 'Open Sans', verdana, arial, sans-serif; font-size: 50px; fill: rgb(8, 115, 191); fill-opacity: 1; white-space: pre;"> <tspan style="font-weight:bold">977 </tspan></text></g></g><g class="annotation-arrow-g" style="opacity: 1;"><path d="M727.34,337.01L738.94,351.51" style="stroke-width: 1px; stroke: rgb(8, 115, 191); stroke-opacity: 1; stroke-dasharray: 0px, 0px, 18.569px, 18.569px;"/></g></g></g></svg>