<svg class="main-svg" xmlns="http://www.w3.org/2000/svg" xmlns:xlink="http://www.w3.org/1999/xlink" width="1125" height="750" style="" viewBox="0 0 750 500"><rect x="0" y="0" width="750" height="500" style="fill: rgb(0, 0, 0); fill-opacity: 0;"/><defs id="defs-9fdffb"><g class="clips"><clipPath id="clip9fdffbxyplot" class="plotclip"><rect width="700" height="380"/></clipPath><clipPath class="axesclip" id="clip9fdffbx"><rect x="50" y="0" width="700" height="500"/></clipPath><clipPath class="axesclip" id="clip9fdffby"><rect x="0" y="70" width="750" height="380"/></clipPath><clipPath class="axesclip" id="clip9fdffbxy"><rect x="50" y="70" width="700" height="380"/></clipPath></g><g class="gradients"/></defs><g class="bglayer"><rect class="bg" x="50" y="70" width="700" height="380" style="fill: rgb(0, 0, 0); fill-opacity: 0; stroke-width: 0;"/></g><g class="layer-below"><g class="imagelayer"/><g class="shapelayer"/></g><g class="cartesianlayer"><g class="subplot xy"><g class="layer-subplot"><g class="shapelayer"/><g class="imagelayer"/></g><g class="gridlayer"><g class="x"><path class="xgrid crisp" transform="translate(92.53999999999999,0)" d="M0,70v380" style="stroke: rgb(255, 255, 255); stroke-opacity: 1; stroke-width: 1px;"/><path class="xgrid crisp" transform="translate(171.18,0)" d="M0,70v380" style="stroke: rgb(255, 255, 255); stroke-opacity: 1; stroke-width: 1px;"/><path class="xgrid crisp" transform="translate(247.24,0)" d="M0,70v380" style="stroke: rgb(255, 255, 255); stroke-opacity: 1; stroke-width: 1px;"/><path class="xgrid crisp" transform="translate(325.87,0)" d="M0,70v380" style="stroke: rgb(255, 255, 255); stroke-opacity: 1; stroke-width: 1px;"/><path class="xgrid crisp" transform="translate(404.51,0)" d="M0,70v380" style="stroke: rgb(255, 255, 255); stroke-opacity: 1; stroke-width: 1px;"/><path class="xgrid crisp" transform="translate(484.44,0)" d="M0,70v380" style="stroke: rgb(255, 255, 255); stroke-opacity: 1; stroke-width: 1px;"/><path class="xgrid crisp" transform="translate(563.08,0)" d="M0,70v380" style="stroke: rgb(255, 255, 255); stroke-opacity: 1; stroke-width: 1px;"/><path class="xgrid crisp" transform="translate(641.71,0)" d="M0,70v380" style="stroke: rgb(255, 255, 255); stroke-opacity: 1; stroke-width: 1px;"/><path class="xgrid crisp" transform="translate(717.77,0)" d="M0,70v380" style="stroke: rgb(255, 255, 255); stroke-opacity: 1; stroke-width: 1px;"/></g><g class="y"/></g><g class="zerolinelayer"/><path class="xlines-below"/><path class="ylines-below"/><g class="overlines-below"/><g class="xaxislayer-below"/><g class="yaxislayer-below"/><g class="overaxes-below"/><g class="plot" transform="translate(50, 70)" clip-path="url('#clip9fdffbxyplot')"><g class="scatterlayer mlayer"><g class="trace scatter tracea714af" style="stroke-miterlimit: 2;"><g class="fills"><g><path class="js-fill" d="M678.08,380L-175.32,380L-175.32,379.6L-140.52,379.82L-139.23,379.87L-119.89,379.91L-118.6,379.82L-60.59,379.33L-59.3,379.38L-51.57,379.24L-50.28,378.93L-45.12,378.62L-43.83,378.49L-34.81,377.51L-33.52,377.51L-29.65,376.93L-28.36,376.48L-21.92,375.37L-20.63,375.55L-14.18,375.9L-12.89,375.19L-10.31,374.75L-9.02,374.48L-1.29,373.77L0,374.12L10.31,372.65L11.6,372.65L12.89,372.47L14.18,373.05L19.34,373.32L20.63,373.19L21.92,372.16L23.2,369.89L27.07,362.1L28.36,360.9L29.65,360.67L30.94,357.91L37.38,349.01L38.67,349.05L39.96,346.38L41.25,346.52L43.83,346.25L45.12,344.33L48.99,346.65L50.28,346.03L51.57,351.59L52.85,352.84L54.14,356.62L55.43,357.25L56.72,357.38L58.01,360.23L59.3,362.9L60.59,361.12L63.17,367L64.46,367L65.75,366.95L67.03,369.18L69.61,370.83L70.9,370.65L73.48,372.16L74.77,372.16L77.35,372.65L78.64,373.41L81.22,372.56L82.5,372.34L87.66,372.96L88.95,373.5L91.53,374.57L92.82,374.57L97.97,373.37L99.26,372.65L101.84,372.12L103.13,371.85L105.71,370.87L107,371.23L108.29,372.92L109.58,373.19L114.73,372.16L116.02,371.54L117.31,371.54L118.6,370.78L119.89,370.87L121.18,369.09L122.47,368.2L123.76,368.29L125.05,368.24L126.34,366.24L130.2,367.53L131.49,366.69L137.94,365.62L139.23,363.21L143.09,361.12L144.38,361.48L146.96,360.72L148.25,361.39L149.54,362.59L150.83,362.01L155.99,360.67L157.27,361.43L158.56,359.16L159.85,359.25L161.14,360.01L162.43,358.72L166.3,360.36L167.59,362.81L168.88,362.81L170.17,363.61L171.45,365.13L172.74,364.91L176.61,365.08L177.9,365.17L179.19,364.99L180.48,363.79L185.64,360.67L186.92,359.74L188.21,358L189.5,357.91L193.37,360.67L194.66,362.37L197.24,364.68L198.53,364.37L202.39,364.77L203.68,363.79L204.97,364.37L206.26,364.01L208.84,364.19L210.13,363.93L212.71,362.72L214,362.01L215.29,362.28L216.57,361.65L219.15,361.65L220.44,360.41L224.31,356.76L225.6,356.62L228.18,356.18L229.47,356.76L230.76,353.64L232.04,354.13L233.33,354.71L234.62,354.4L237.2,354.53L238.49,358.18L241.07,360.19L242.36,358.89L243.65,360.1L244.94,360.01L246.22,360.23L247.51,355.51L248.8,357.96L250.09,356.8L251.38,357.16L252.67,355.78L255.25,355.06L256.54,355.55L260.41,357.83L261.69,358.89L264.27,359.83L265.56,360.54L266.85,360.94L268.14,362.5L270.72,364.46L272.01,365.88L273.3,365.53L274.59,367.13L284.9,370.07L286.19,369.71L287.48,371.18L288.77,370.92L291.34,370.25L292.63,371.45L295.21,372.96L296.5,372.03L299.08,373.01L300.37,373.01L301.66,374.39L302.95,373.9L306.81,374.61L308.1,373.81L309.39,373.63L310.68,371.99L313.26,373.19L314.55,373.5L315.84,373.41L317.13,374.12L322.28,375.01L323.57,375.01L330.02,377.73L331.31,377.64L335.17,378.49L336.46,378.49L346.78,379.2L348.07,379.24L353.22,379.02L354.51,379.06L363.54,377.86L364.83,377.86L366.11,377.42L367.4,377.91L376.43,374.88L377.72,374.39L380.29,372.7L381.58,372.56L385.45,368.65L386.74,368.07L390.61,366.82L391.9,366.69L393.19,367.62L394.48,367.04L397.05,366.02L398.34,366.24L400.92,365.62L402.21,364.46L404.79,363.39L406.08,364.24L408.66,363.66L409.94,363.57L412.52,364.37L413.81,365.13L415.1,365.08L416.39,366.06L420.26,366.95L421.55,367.31L424.13,367.89L425.41,367.89L426.7,368.02L427.99,369.22L434.44,374.12L435.73,374.03L439.59,375.77L440.88,375.73L444.75,376.22L446.04,377.02L449.91,377.82L451.2,377.82L458.93,377.42L460.22,377.51L465.38,378.35L466.67,378.13L480.85,379.11L482.14,378.89L491.16,376.35L492.45,375.37L496.32,372.07L497.61,372.12L507.92,370.65L509.21,371.9L511.79,369.63L513.08,369.54L516.94,369.18L518.23,367.4L519.52,367.75L520.81,369.27L522.1,370.87L523.39,370.38L525.97,369.14L527.26,367.71L529.83,366.02L531.12,364.15L532.41,363.39L533.7,363.79L536.28,364.01L537.57,364.06L538.86,363.57L540.15,362.23L541.44,361.48L542.73,359.43L544.01,359.34L545.3,357.07L547.88,353.19L549.17,349.41L551.75,346.03L553.04,345.85L555.62,339.97L556.91,337.7L558.2,338.14L559.48,336.63L562.06,336.27L563.35,335.12L565.93,335.38L567.22,336.54L569.8,337.7L571.09,337.57L572.38,341.44L573.66,340.9L574.95,339.48L576.24,336.36L577.53,331.91L578.82,334.85L580.11,333.65L581.4,320.91L586.56,269.21L587.85,268.24L589.13,264.54L590.42,244.68L593,215.83L594.29,209.59L595.58,205.18L596.87,185.86L598.16,183.94L599.45,179.63L600.74,176.55L602.03,170.85L603.31,167.2L604.6,155.85L605.89,142.44L607.18,139.33L611.05,88.92L612.34,70.89L614.92,49.38L616.21,43.37L618.78,12.29L620.07,6.55L622.65,0L623.94,5.25L625.23,7.75L626.52,15.01L631.68,65.1L632.97,70.67L634.25,74.14L635.54,93.86L641.99,162.97L643.28,167.91L645.86,206.03L647.15,213.64L649.72,228.78L651.01,233.33L652.3,234.66L653.59,246.06L658.75,274.87L660.04,277.68L661.33,278.65L662.62,285.07L665.19,293.53L666.48,295.4L669.06,303.19L670.35,303.77L674.22,295.13L675.51,292.37L678.08,286.85" style="fill: rgb(8, 115, 191); fill-opacity: 0.2; stroke-width: 0;"/></g></g><g class="errorbars"/><g class="lines"><path class="js-line" d="M-175.32,379.6L-140.52,379.82L-139.23,379.87L-119.89,379.91L-118.6,379.82L-60.59,379.33L-59.3,379.38L-51.57,379.24L-50.28,378.93L-45.12,378.62L-43.83,378.49L-34.81,377.51L-33.52,377.51L-29.65,376.93L-28.36,376.48L-21.92,375.37L-20.63,375.55L-14.18,375.9L-12.89,375.19L-10.31,374.75L-9.02,374.48L-1.29,373.77L0,374.12L10.31,372.65L11.6,372.65L12.89,372.47L14.18,373.05L19.34,373.32L20.63,373.19L21.92,372.16L23.2,369.89L27.07,362.1L28.36,360.9L29.65,360.67L30.94,357.91L37.38,349.01L38.67,349.05L39.96,346.38L41.25,346.52L43.83,346.25L45.12,344.33L48.99,346.65L50.28,346.03L51.57,351.59L52.85,352.84L54.14,356.62L55.43,357.25L56.72,357.38L58.01,360.23L59.3,362.9L60.59,361.12L63.17,367L64.46,367L65.75,366.95L67.03,369.18L69.61,370.83L70.9,370.65L73.48,372.16L74.77,372.16L77.35,372.65L78.64,373.41L81.22,372.56L82.5,372.34L87.66,372.96L88.95,373.5L91.53,374.57L92.82,374.57L97.97,373.37L99.26,372.65L101.84,372.12L103.13,371.85L105.71,370.87L107,371.23L108.29,372.92L109.58,373.19L114.73,372.16L116.02,371.54L117.31,371.54L118.6,370.78L119.89,370.87L121.18,369.09L122.47,368.2L123.76,368.29L125.05,368.24L126.34,366.24L130.2,367.53L131.49,366.69L137.94,365.62L139.23,363.21L143.09,361.12L144.38,361.48L146.96,360.72L148.25,361.39L149.54,362.59L150.83,362.01L155.99,360.67L157.27,361.43L158.56,359.16L159.85,359.25L161.14,360.01L162.43,358.72L166.3,360.36L167.59,362.81L168.88,362.81L170.17,363.61L171.45,365.13L172.74,364.91L176.61,365.08L177.9,365.17L179.19,364.99L180.48,363.79L185.64,360.67L186.92,359.74L188.21,358L189.5,357.91L193.37,360.67L194.66,362.37L197.24,364.68L198.53,364.37L202.39,364.77L203.68,363.79L204.97,364.37L206.26,364.01L208.84,364.19L210.13,363.93L212.71,362.72L214,362.01L215.29,362.28L216.57,361.65L219.15,361.65L220.44,360.41L224.31,356.76L225.6,356.62L228.18,356.18L229.47,356.76L230.76,353.64L232.04,354.13L233.33,354.71L234.62,354.4L237.2,354.53L238.49,358.18L241.07,360.19L242.36,358.89L243.65,360.1L244.94,360.01L246.22,360.23L247.51,355.51L248.8,357.96L250.09,356.8L251.38,357.16L252.67,355.78L255.25,355.06L256.54,355.55L260.41,357.83L261.69,358.89L264.27,359.83L265.56,360.54L266.85,360.94L268.14,362.5L270.72,364.46L272.01,365.88L273.3,365.53L274.59,367.13L284.9,370.07L286.19,369.71L287.48,371.18L288.77,370.92L291.34,370.25L292.63,371.45L295.21,372.96L296.5,372.03L299.08,373.01L300.37,373.01L301.66,374.39L302.95,373.9L306.81,374.61L308.1,373.81L309.39,373.63L310.68,371.99L313.26,373.19L314.55,373.5L315.84,373.41L317.13,374.12L322.28,375.01L323.57,375.01L330.02,377.73L331.31,377.64L335.17,378.49L336.46,378.49L346.78,379.2L348.07,379.24L353.22,379.02L354.51,379.06L363.54,377.86L364.83,377.86L366.11,377.42L367.4,377.91L376.43,374.88L377.72,374.39L380.29,372.7L381.58,372.56L385.45,368.65L386.74,368.07L390.61,366.82L391.9,366.69L393.19,367.62L394.48,367.04L397.05,366.02L398.34,366.24L400.92,365.62L402.21,364.46L404.79,363.39L406.08,364.24L408.66,363.66L409.94,363.57L412.52,364.37L413.81,365.13L415.1,365.08L416.39,366.06L420.26,366.95L421.55,367.31L424.13,367.89L425.41,367.89L426.7,368.02L427.99,369.22L434.44,374.12L435.73,374.03L439.59,375.77L440.88,375.73L444.75,376.22L446.04,377.02L449.91,377.82L451.2,377.82L458.93,377.42L460.22,377.51L465.38,378.35L466.67,378.13L480.85,379.11L482.14,378.89L491.16,376.35L492.45,375.37L496.32,372.07L497.61,372.12L507.92,370.65L509.21,371.9L511.79,369.63L513.08,369.54L516.94,369.18L518.23,367.4L519.52,367.75L520.81,369.27L522.1,370.87L523.39,370.38L525.97,369.14L527.26,367.71L529.83,366.02L531.12,364.15L532.41,363.39L533.7,363.79L536.28,364.01L537.57,364.06L538.86,363.57L540.15,362.23L541.44,361.48L542.73,359.43L544.01,359.34L545.3,357.07L547.88,353.19L549.17,349.41L551.75,346.03L553.04,345.85L555.62,339.97L556.91,337.7L558.2,338.14L559.48,336.63L562.06,336.27L563.35,335.12L565.93,335.38L567.22,336.54L569.8,337.7L571.09,337.57L572.38,341.44L573.66,340.9L574.95,339.48L576.24,336.36L577.53,331.91L578.82,334.85L580.11,333.65L581.4,320.91L586.56,269.21L587.85,268.24L589.13,264.54L590.42,244.68L593,215.83L594.29,209.59L595.58,205.18L596.87,185.86L598.16,183.94L599.45,179.63L600.74,176.55L602.03,170.85L603.31,167.2L604.6,155.85L605.89,142.44L607.18,139.33L611.05,88.92L612.34,70.89L614.92,49.38L616.21,43.37L618.78,12.29L620.07,6.55L622.65,0L623.94,5.25L625.23,7.75L626.52,15.01L631.68,65.1L632.97,70.67L634.25,74.14L635.54,93.86L641.99,162.97L643.28,167.91L645.86,206.03L647.15,213.64L649.72,228.78L651.01,233.33L652.3,234.66L653.59,246.06L658.75,274.87L660.04,277.68L661.33,278.65L662.62,285.07L665.19,293.53L666.48,295.4L669.06,303.19L670.35,303.77L674.22,295.13L675.51,292.37L678.08,286.85" style="vector-effect: non-scaling-stroke; fill: none; stroke: rgb(8, 115, 191); stroke-opacity: 1; stroke-width: 0.5px; opacity: 1;"/></g><g class="points"/><g class="text"/></g><g class="trace scatter trace08bcf9" style="stroke-miterlimit: 2;"><g class="fills"><g><path class="js-fill" d="M690.98,380L678.08,380L678.08,286.85L679.37,286.18L680.66,278.34L681.95,274.69L683.24,273.8L685.82,269.17L687.11,265.7L688.4,265.83L689.69,262.76L690.98,260.89" style="fill: rgb(8, 115, 191); fill-opacity: 0.4; stroke-width: 0;"/></g></g><g class="errorbars"/><g class="lines"><path class="js-line" d="M678.08,286.85L679.37,286.18L680.66,278.34L681.95,274.69L683.24,273.8L685.82,269.17L687.11,265.7L688.4,265.83L689.69,262.76L690.98,260.89" style="vector-effect: non-scaling-stroke; fill: none; stroke: rgb(8, 115, 191); stroke-opacity: 1; stroke-width: 2px; opacity: 1;"/></g><g class="points"/><g class="text"/></g><g class="trace scatter trace21af53" style="stroke-miterlimit: 2; opacity: 1;"><g class="fills"/><g class="errorbars"/><g class="lines"/><g class="points"><path class="point" transform="translate(690.98,260.89)" d="M15,0A15,15 0 1,1 0,-15A15,15 0 0,1 15,0Z" style="opacity: 1; stroke-width: 0px; fill: rgb(8, 115, 191); fill-opacity: 1;"/></g><g class="text"/></g></g></g><g class="overplot"/><path class="xlines-above crisp" style="fill: none; stroke-width: 1px; stroke: rgb(0, 0, 0); stroke-opacity: 0;" d=""/><path class="ylines-above crisp" style="fill: none;" d="M0,0"/><g class="overlines-above"/><g class="xaxislayer-above"><path class="xtick ticks crisp" d="M0,450v-5" transform="translate(92.53999999999999,0)" style="stroke: rgb(68, 68, 68); stroke-opacity: 1; stroke-width: 1px;"/><path class="xtick ticks crisp" d="M0,450v-5" transform="translate(171.18,0)" style="stroke: rgb(68, 68, 68); stroke-opacity: 1; stroke-width: 1px;"/><path class="xtick ticks crisp" d="M0,450v-5" transform="translate(247.24,0)" style="stroke: rgb(68, 68, 68); stroke-opacity: 1; stroke-width: 1px;"/><path class="xtick ticks crisp" d="M0,450v-5" transform="translate(325.87,0)" style="stroke: rgb(68, 68, 68); stroke-opacity: 1; stroke-width: 1px;"/><path class="xtick ticks crisp" d="M0,450v-5" transform="translate(404.51,0)" style="stroke: rgb(68, 68, 68); stroke-opacity: 1; stroke-width: 1px;"/><path class="xtick ticks crisp" d="M0,450v-5" transform="translate(484.44,0)" style="stroke: rgb(68, 68, 68); stroke-opacity: 1; stroke-width: 1px;"/><path class="xtick ticks crisp" d="M0,450v-5" transform="translate(563.08,0)" style="stroke: rgb(68, 68, 68); stroke-opacity: 1; stroke-width: 1px;"/><path class="xtick ticks crisp" d="M0,450v-5" transform="translate(641.71,0)" style="stroke: rgb(68, 68, 68); stroke-opacity: 1; stroke-width: 1px;"/><path class="xtick ticks crisp" d="M0,450v-5" transform="translate(717.77,0)" style="stroke: rgb(68, 68, 68); stroke-opacity: 1; stroke-width: 1px;"/><g class="xtick"><text text-anchor="middle" x="0" y="469" transform="translate(92.53999999999999,0)" style="font-family: 'Open Sans', verdana, arial, sans-serif; font-size: 18px; fill: rgb(42, 63, 95); fill-opacity: 1; white-space: pre;">01/11</text></g><g class="xtick"><text text-anchor="middle" x="0" y="469" transform="translate(171.18,0)" style="font-family: 'Open Sans', verdana, arial, sans-serif; font-size: 18px; fill: rgb(42, 63, 95); fill-opacity: 1; white-space: pre;">01/01</text></g><g class="xtick"><text text-anchor="middle" x="0" y="469" transform="translate(247.24,0)" style="font-family: 'Open Sans', verdana, arial, sans-serif; font-size: 18px; fill: rgb(42, 63, 95); fill-opacity: 1; white-space: pre;">01/03</text></g><g class="xtick"><text text-anchor="middle" x="0" y="469" transform="translate(325.87,0)" style="font-family: 'Open Sans', verdana, arial, sans-serif; font-size: 18px; fill: rgb(42, 63, 95); fill-opacity: 1; white-space: pre;">01/05</text></g><g class="xtick"><text text-anchor="middle" x="0" y="469" transform="translate(404.51,0)" style="font-family: 'Open Sans', verdana, arial, sans-serif; font-size: 18px; fill: rgb(42, 63, 95); fill-opacity: 1; white-space: pre;">01/07</text></g><g class="xtick"><text text-anchor="middle" x="0" y="469" transform="translate(484.44,0)" style="font-family: 'Open Sans', verdana, arial, sans-serif; font-size: 18px; fill: rgb(42, 63, 95); fill-opacity: 1; white-space: pre;">01/09</text></g><g class="xtick"><text text-anchor="middle" x="0" y="469" transform="translate(563.08,0)" style="font-family: 'Open Sans', verdana, arial, sans-serif; font-size: 18px; fill: rgb(42, 63, 95); fill-opacity: 1; white-space: pre;">01/11</text></g><g class="xtick"><text text-anchor="middle" x="0" y="469" transform="translate(641.71,0)" style="font-family: 'Open Sans', verdana, arial, sans-serif; font-size: 18px; fill: rgb(42, 63, 95); fill-opacity: 1; white-space: pre;">01/01</text></g><g class="xtick"><text text-anchor="middle" x="0" y="469" transform="translate(717.77,0)" style="font-family: 'Open Sans', verdana, arial, sans-serif; font-size: 18px; fill: rgb(42, 63, 95); fill-opacity: 1; white-space: pre;">01/03</text></g></g><g class="yaxislayer-above"/><g class="overaxes-above"/></g></g><g class="polarlayer"/><g class="ternarylayer"/><g class="geolayer"/><g class="funnelarealayer"/><g class="pielayer"/><g class="treemaplayer"/><g class="sunburstlayer"/><g class="glimages"/><defs id="topdefs-9fdffb"><g class="clips"/></defs><g class="layer-above"><g class="imagelayer"/><g class="shapelayer"><path data-index="0" fill-rule="evenodd" d="M-674.49,444.65L267.86,444.65" clip-path="url('#clip9fdffbxy')" style="opacity: 1; stroke: rgb(255, 0, 0); stroke-opacity: 1; fill: rgb(0, 0, 0); fill-opacity: 0; stroke-dasharray: 3px, 3px; stroke-width: 1.5px;"/></g></g><g class="infolayer"><g class="g-gtitle"><text class="gtitle" x="375" y="25" text-anchor="middle" dy="0.7em" style="font-family: 'Open Sans', verdana, arial, sans-serif; font-size: 50px; fill: rgb(42, 63, 95); opacity: 1; font-weight: normal; white-space: pre;"><tspan style="font-weight:bold">Corrèze (19)</tspan></text></g><g class="g-xtitle"/><g class="annotation" data-index="0" style="opacity: 1;"><g class="annotation-text-g" transform="rotate(0,698.98,270.89)"><g class="cursor-pointer" transform="translate(627, 235)"><rect class="bg" x="0.5" y="0.5" width="143" height="71" style="stroke-width: 1px; stroke: rgb(0, 0, 0); stroke-opacity: 0; fill: rgb(255, 255, 255); fill-opacity: 0.6;"/><text class="annotation-text" text-anchor="middle" x="72.078125" y="55.5" style="font-family: 'Open Sans', verdana, arial, sans-serif; font-size: 50px; fill: rgb(8, 115, 191); fill-opacity: 1; white-space: pre;"> <tspan style="font-weight:bold">1113 </tspan></text></g></g><g class="annotation-arrow-g" style="opacity: 1;"><path d="M727.38,306.39L738.98,320.89" style="stroke-width: 1px; stroke: rgb(8, 115, 191); stroke-opacity: 1; stroke-dasharray: 0px, 0px, 18.569px, 18.569px;"/></g></g></g></svg>