<svg class="main-svg" xmlns="http://www.w3.org/2000/svg" xmlns:xlink="http://www.w3.org/1999/xlink" width="1125" height="750" style="" viewBox="0 0 750 500"><rect x="0" y="0" width="750" height="500" style="fill: rgb(0, 0, 0); fill-opacity: 0;"/><defs id="defs-2e2623"><g class="clips"><clipPath id="clip2e2623xyplot" class="plotclip"><rect width="700" height="380"/></clipPath><clipPath class="axesclip" id="clip2e2623x"><rect x="50" y="0" width="700" height="500"/></clipPath><clipPath class="axesclip" id="clip2e2623y"><rect x="0" y="70" width="750" height="380"/></clipPath><clipPath class="axesclip" id="clip2e2623xy"><rect x="50" y="70" width="700" height="380"/></clipPath></g><g class="gradients"/></defs><g class="bglayer"><rect class="bg" x="50" y="70" width="700" height="380" style="fill: rgb(0, 0, 0); fill-opacity: 0; stroke-width: 0;"/></g><g class="layer-below"><g class="imagelayer"/><g class="shapelayer"/></g><g class="cartesianlayer"><g class="subplot xy"><g class="layer-subplot"><g class="shapelayer"/><g class="imagelayer"/></g><g class="gridlayer"><g class="x"><path class="xgrid crisp" transform="translate(112.94,0)" d="M0,70v380" style="stroke: rgb(255, 255, 255); stroke-opacity: 1; stroke-width: 1px;"/><path class="xgrid crisp" transform="translate(229.29,0)" d="M0,70v380" style="stroke: rgb(255, 255, 255); stroke-opacity: 1; stroke-width: 1px;"/><path class="xgrid crisp" transform="translate(341.83,0)" d="M0,70v380" style="stroke: rgb(255, 255, 255); stroke-opacity: 1; stroke-width: 1px;"/><path class="xgrid crisp" transform="translate(458.17,0)" d="M0,70v380" style="stroke: rgb(255, 255, 255); stroke-opacity: 1; stroke-width: 1px;"/><path class="xgrid crisp" transform="translate(574.52,0)" d="M0,70v380" style="stroke: rgb(255, 255, 255); stroke-opacity: 1; stroke-width: 1px;"/><path class="xgrid crisp" transform="translate(692.78,0)" d="M0,70v380" style="stroke: rgb(255, 255, 255); stroke-opacity: 1; stroke-width: 1px;"/></g><g class="y"/></g><g class="zerolinelayer"/><path class="xlines-below"/><path class="ylines-below"/><g class="overlines-below"/><g class="xaxislayer-below"/><g class="yaxislayer-below"/><g class="overaxes-below"/><g class="plot" transform="translate(50, 70)" clip-path="url('#clip2e2623xyplot')"><g class="scatterlayer mlayer"><g class="trace scatter trace98863b" style="stroke-miterlimit: 2;"><g class="fills"><g><path class="js-fill" d="M667.57,380L-259.4,380L-259.4,367.26L-257.49,368.54L-255.59,375.75L-247.96,376.39L-246.05,377.03L-238.42,379.15L-236.51,379.36L-223.16,379.58L-221.25,379.58L-112.53,378.51L-110.63,377.66L-99.18,375.12L-97.28,373.21L-91.55,370.66L-89.65,370.66L-82.02,368.11L-80.11,368.11L-70.57,363.65L-68.66,360.68L-66.76,358.35L-64.85,358.56L-62.94,358.56L-61.04,355.59L-57.22,347.73L-55.31,346.46L-51.5,340.94L-49.59,340.94L-47.68,341.36L-45.78,343.27L-43.87,342.85L-41.96,344.97L-38.15,347.73L-36.24,347.94L-34.33,347.52L-32.43,344.97L-30.52,343.7L-28.61,339.88L-24.8,335.42L-22.89,334.99L-20.98,330.75L-19.07,330.96L-17.17,332.66L-15.26,332.45L-13.35,328.2L-11.44,327.99L-9.54,327.99L-7.63,329.26L-5.72,328.2L-3.81,325.02L-1.91,319.92L0,322.04L3.81,321.83L5.72,318.65L7.63,308.88L9.54,305.91L11.44,305.06L13.35,300.82L15.26,297.84L17.17,297.63L19.07,286.8L20.98,286.17L22.89,279.37L24.8,278.74L26.7,272.79L28.61,270.03L30.52,268.97L32.43,255.39L34.33,237.34L36.24,226.94L38.15,211.87L40.05,186.18L41.96,182.99L43.87,182.99L45.78,156.67L47.68,150.09L51.5,122.28L53.41,116.76L55.31,121.01L57.22,122.07L59.13,120.16L61.04,111.45L62.94,113.58L64.85,119.94L66.76,125.04L68.66,119.94L70.57,117.18L72.48,136.72L74.39,154.97L76.29,195.31L78.2,201.89L80.11,229.91L82.02,237.34L83.92,239.46L87.74,288.08L89.65,279.37L91.55,299.33L93.46,307.82L95.37,311.22L97.28,312.49L99.18,325.02L101.09,331.39L108.72,341.36L110.63,341.15L112.53,337.33L114.44,335.84L116.35,337.54L118.26,336.06L120.16,332.66L122.07,330.96L123.98,330.96L125.89,333.3L127.79,331.6L129.7,331.39L131.61,332.02L133.51,333.93L139.24,330.54L141.14,329.05L143.05,330.54L144.96,327.35L146.87,321.2L148.77,319.92L150.68,319.71L152.59,313.98L156.4,295.3L158.31,292.54L160.22,307.4L162.13,305.06L164.03,303.58L165.94,300.82L167.85,296.99L169.75,278.53L171.66,279.59L173.57,278.95L175.48,274.28L177.38,275.77L179.29,258.78L181.2,258.15L183.11,270.88L185.01,263.45L186.92,243.07L188.83,245.2L190.74,244.77L192.64,250.93L194.55,258.99L196.46,245.41L198.37,246.68L200.27,249.87L202.18,251.56L204.09,251.35L205.99,246.04L207.9,236.49L209.81,243.92L211.72,241.16L215.53,236.49L217.44,235.85L219.35,233.73L221.25,229.7L223.16,227.58L225.07,222.48L226.98,220.78L228.88,216.96L230.79,216.96L232.7,217.81L234.6,224.39L236.51,227.79L238.42,228L240.33,230.55L242.23,232.03L244.14,232.03L246.05,244.77L247.96,249.02L249.86,250.29L251.77,257.08L255.59,258.57L257.49,258.15L259.4,260.06L261.31,269.61L263.22,279.37L265.12,284.47L268.94,294.87L270.84,296.99L272.75,301.88L274.66,297.63L276.57,297.21L278.47,298.69L282.29,299.54L284.2,298.48L286.1,295.3L288.01,298.27L289.92,302.3L291.83,303.79L293.73,306.12L295.64,306.76L297.55,308.03L299.46,313.55L301.36,311.85L303.27,307.4L307.08,303.36L308.99,302.09L310.9,301.03L312.81,289.14L314.71,283.62L316.62,282.13L320.44,278.1L322.34,274.49L324.25,273.64L326.16,268.12L328.07,264.09L329.97,256.87L331.88,249.44L333.79,236.49L335.69,232.88L337.6,233.09L343.32,199.55L345.23,189.36L347.14,187.03L349.05,182.57L350.95,181.72L352.86,222.91L354.77,210.38L356.68,210.38L358.58,214.84L360.49,212.29L362.4,216.11L364.31,217.81L366.21,179.6L368.12,199.77L370.03,209.53L371.93,212.93L373.84,217.6L375.75,219.72L379.56,216.75L381.47,212.5L385.29,203.16L387.19,200.61L389.1,198.07L391.01,198.92L394.82,212.29L396.73,216.32L398.64,228.64L400.54,235.43L402.45,250.08L404.36,250.5L410.08,276.19L411.99,278.53L413.9,282.56L415.8,282.77L417.71,281.71L419.62,288.29L421.53,295.93L423.43,294.23L425.34,308.03L427.25,314.19L429.16,308.46L431.06,309.52L432.97,319.28L434.88,319.07L436.78,325.02L438.69,317.8L442.51,325.02L444.41,325.65L446.32,336.06L448.23,329.26L450.14,333.3L452.04,333.93L453.95,335.21L455.86,334.15L457.77,333.08L459.67,322.26L461.58,333.93L463.49,334.36L467.3,337.33L469.21,340.51L471.12,341.15L473.02,348.79L474.93,351.34L476.84,356.01L480.65,361.11L482.56,362.59L484.47,363.02L486.38,364.5L488.28,366.84L490.19,367.05L494.01,371.08L495.91,370.02L497.82,370.02L499.73,372.15L505.45,370.23L507.36,370.45L513.08,370.45L514.99,371.3L516.89,371.72L518.8,370.02L520.71,368.96L522.62,369.39L524.52,369.39L526.43,364.5L528.34,361.11L530.25,356.01L535.97,342L537.87,341.36L541.69,316.1L543.6,319.5L547.41,274.7L549.32,259.21L551.23,258.15L553.13,206.13L555.04,174.08L556.95,115.06L558.86,92.13L560.76,60.08L562.67,41.61L564.58,38.64L568.39,0L570.3,2.76L574.11,4.03L576.02,11.89L577.93,10.61L579.84,25.9L583.65,42.88L585.56,37.79L587.47,36.73L589.37,40.55L591.28,40.76L593.19,33.12L598.91,58.59L600.82,72.82L602.72,67.08L604.63,67.51L606.54,85.55L608.45,85.98L610.35,87.89L612.26,97.02L614.17,105.51L616.08,120.79L617.98,123.34L619.89,146.69L621.8,160.28L623.71,180.45L627.52,208.47L629.43,207.41L631.34,208.47L633.24,220.36L635.15,228.21L637.06,232.46L638.96,245.2L640.87,252.84L642.78,256.87L644.69,257.51L652.32,289.14L654.22,292.32L656.13,297.21L658.04,296.36L661.85,314.83L663.76,314.19L667.57,320.13" style="fill: rgb(8, 115, 191); fill-opacity: 0.2; stroke-width: 0;"/></g></g><g class="errorbars"/><g class="lines"><path class="js-line" d="M-259.4,367.26L-257.49,368.54L-255.59,375.75L-247.96,376.39L-246.05,377.03L-238.42,379.15L-236.51,379.36L-223.16,379.58L-221.25,379.58L-112.53,378.51L-110.63,377.66L-99.18,375.12L-97.28,373.21L-91.55,370.66L-89.65,370.66L-82.02,368.11L-80.11,368.11L-70.57,363.65L-68.66,360.68L-66.76,358.35L-64.85,358.56L-62.94,358.56L-61.04,355.59L-57.22,347.73L-55.31,346.46L-51.5,340.94L-49.59,340.94L-47.68,341.36L-45.78,343.27L-43.87,342.85L-41.96,344.97L-38.15,347.73L-36.24,347.94L-34.33,347.52L-32.43,344.97L-30.52,343.7L-28.61,339.88L-24.8,335.42L-22.89,334.99L-20.98,330.75L-19.07,330.96L-17.17,332.66L-15.26,332.45L-13.35,328.2L-11.44,327.99L-9.54,327.99L-7.63,329.26L-5.72,328.2L-3.81,325.02L-1.91,319.92L0,322.04L3.81,321.83L5.72,318.65L7.63,308.88L9.54,305.91L11.44,305.06L13.35,300.82L15.26,297.84L17.17,297.63L19.07,286.8L20.98,286.17L22.89,279.37L24.8,278.74L26.7,272.79L28.61,270.03L30.52,268.97L32.43,255.39L34.33,237.34L36.24,226.94L38.15,211.87L40.05,186.18L41.96,182.99L43.87,182.99L45.78,156.67L47.68,150.09L51.5,122.28L53.41,116.76L55.31,121.01L57.22,122.07L59.13,120.16L61.04,111.45L62.94,113.58L64.85,119.94L66.76,125.04L68.66,119.94L70.57,117.18L72.48,136.72L74.39,154.97L76.29,195.31L78.2,201.89L80.11,229.91L82.02,237.34L83.92,239.46L87.74,288.08L89.65,279.37L91.55,299.33L93.46,307.82L95.37,311.22L97.28,312.49L99.18,325.02L101.09,331.39L108.72,341.36L110.63,341.15L112.53,337.33L114.44,335.84L116.35,337.54L118.26,336.06L120.16,332.66L122.07,330.96L123.98,330.96L125.89,333.3L127.79,331.6L129.7,331.39L131.61,332.02L133.51,333.93L139.24,330.54L141.14,329.05L143.05,330.54L144.96,327.35L146.87,321.2L148.77,319.92L150.68,319.71L152.59,313.98L156.4,295.3L158.31,292.54L160.22,307.4L162.13,305.06L164.03,303.58L165.94,300.82L167.85,296.99L169.75,278.53L171.66,279.59L173.57,278.95L175.48,274.28L177.38,275.77L179.29,258.78L181.2,258.15L183.11,270.88L185.01,263.45L186.92,243.07L188.83,245.2L190.74,244.77L192.64,250.93L194.55,258.99L196.46,245.41L198.37,246.68L200.27,249.87L202.18,251.56L204.09,251.35L205.99,246.04L207.9,236.49L209.81,243.92L211.72,241.16L215.53,236.49L217.44,235.85L219.35,233.73L221.25,229.7L223.16,227.58L225.07,222.48L226.98,220.78L228.88,216.96L230.79,216.96L232.7,217.81L234.6,224.39L236.51,227.79L238.42,228L240.33,230.55L242.23,232.03L244.14,232.03L246.05,244.77L247.96,249.02L249.86,250.29L251.77,257.08L255.59,258.57L257.49,258.15L259.4,260.06L261.31,269.61L263.22,279.37L265.12,284.47L268.94,294.87L270.84,296.99L272.75,301.88L274.66,297.63L276.57,297.21L278.47,298.69L282.29,299.54L284.2,298.48L286.1,295.3L288.01,298.27L289.92,302.3L291.83,303.79L293.73,306.12L295.64,306.76L297.55,308.03L299.46,313.55L301.36,311.85L303.27,307.4L307.08,303.36L308.99,302.09L310.9,301.03L312.81,289.14L314.71,283.62L316.62,282.13L320.44,278.1L322.34,274.49L324.25,273.64L326.16,268.12L328.07,264.09L329.97,256.87L331.88,249.44L333.79,236.49L335.69,232.88L337.6,233.09L343.32,199.55L345.23,189.36L347.14,187.03L349.05,182.57L350.95,181.72L352.86,222.91L354.77,210.38L356.68,210.38L358.58,214.84L360.49,212.29L362.4,216.11L364.31,217.81L366.21,179.6L368.12,199.77L370.03,209.53L371.93,212.93L373.84,217.6L375.75,219.72L379.56,216.75L381.47,212.5L385.29,203.16L387.19,200.61L389.1,198.07L391.01,198.92L394.82,212.29L396.73,216.32L398.64,228.64L400.54,235.43L402.45,250.08L404.36,250.5L410.08,276.19L411.99,278.53L413.9,282.56L415.8,282.77L417.71,281.71L419.62,288.29L421.53,295.93L423.43,294.23L425.34,308.03L427.25,314.19L429.16,308.46L431.06,309.52L432.97,319.28L434.88,319.07L436.78,325.02L438.69,317.8L442.51,325.02L444.41,325.65L446.32,336.06L448.23,329.26L450.14,333.3L452.04,333.93L453.95,335.21L455.86,334.15L457.77,333.08L459.67,322.26L461.58,333.93L463.49,334.36L467.3,337.33L469.21,340.51L471.12,341.15L473.02,348.79L474.93,351.34L476.84,356.01L480.65,361.11L482.56,362.59L484.47,363.02L486.38,364.5L488.28,366.84L490.19,367.05L494.01,371.08L495.91,370.02L497.82,370.02L499.73,372.15L505.45,370.23L507.36,370.45L513.08,370.45L514.99,371.3L516.89,371.72L518.8,370.02L520.71,368.96L522.62,369.39L524.52,369.39L526.43,364.5L528.34,361.11L530.25,356.01L535.97,342L537.87,341.36L541.69,316.1L543.6,319.5L547.41,274.7L549.32,259.21L551.23,258.15L553.13,206.13L555.04,174.08L556.95,115.06L558.86,92.13L560.76,60.08L562.67,41.61L564.58,38.64L568.39,0L570.3,2.76L574.11,4.03L576.02,11.89L577.93,10.61L579.84,25.9L583.65,42.88L585.56,37.79L587.47,36.73L589.37,40.55L591.28,40.76L593.19,33.12L598.91,58.59L600.82,72.82L602.72,67.08L604.63,67.51L606.54,85.55L608.45,85.98L610.35,87.89L612.26,97.02L614.17,105.51L616.08,120.79L617.98,123.34L619.89,146.69L621.8,160.28L623.71,180.45L627.52,208.47L629.43,207.41L631.34,208.47L633.24,220.36L635.15,228.21L637.06,232.46L638.96,245.2L640.87,252.84L642.78,256.87L644.69,257.51L652.32,289.14L654.22,292.32L656.13,297.21L658.04,296.36L661.85,314.83L663.76,314.19L667.57,320.13" style="vector-effect: non-scaling-stroke; fill: none; stroke: rgb(8, 115, 191); stroke-opacity: 1; stroke-width: 0.5px; opacity: 1;"/></g><g class="points"/><g class="text"/></g><g class="trace scatter trace0b88d0" style="stroke-miterlimit: 2;"><g class="fills"><g><path class="js-fill" d="M686.65,380L667.57,380L667.57,320.13L669.48,322.47L671.39,323.53L673.3,331.39L675.2,333.51L677.11,336.69L679.02,332.45L680.93,332.02L682.83,334.78L684.74,334.15L686.65,325.87" style="fill: rgb(8, 115, 191); fill-opacity: 0.4; stroke-width: 0;"/></g></g><g class="errorbars"/><g class="lines"><path class="js-line" d="M667.57,320.13L669.48,322.47L671.39,323.53L673.3,331.39L675.2,333.51L677.11,336.69L679.02,332.45L680.93,332.02L682.83,334.78L684.74,334.15L686.65,325.87" style="vector-effect: non-scaling-stroke; fill: none; stroke: rgb(8, 115, 191); stroke-opacity: 1; stroke-width: 2px; opacity: 1;"/></g><g class="points"/><g class="text"/></g><g class="trace scatter trace630d2d" style="stroke-miterlimit: 2; opacity: 1;"><g class="fills"/><g class="errorbars"/><g class="lines"/><g class="points"><path class="point" transform="translate(686.65,325.87)" d="M15,0A15,15 0 1,1 0,-15A15,15 0 0,1 15,0Z" style="opacity: 1; stroke-width: 0px; fill: rgb(8, 115, 191); fill-opacity: 1;"/></g><g class="text"/></g></g></g><g class="overplot"/><path class="xlines-above crisp" style="fill: none; stroke-width: 1px; stroke: rgb(0, 0, 0); stroke-opacity: 0;" d=""/><path class="ylines-above crisp" style="fill: none;" d="M0,0"/><g class="overlines-above"/><g class="xaxislayer-above"><path class="xtick ticks crisp" d="M0,450v-5" transform="translate(112.94,0)" style="stroke: rgb(68, 68, 68); stroke-opacity: 1; stroke-width: 1px;"/><path class="xtick ticks crisp" d="M0,450v-5" transform="translate(229.29,0)" style="stroke: rgb(68, 68, 68); stroke-opacity: 1; stroke-width: 1px;"/><path class="xtick ticks crisp" d="M0,450v-5" transform="translate(341.83,0)" style="stroke: rgb(68, 68, 68); stroke-opacity: 1; stroke-width: 1px;"/><path class="xtick ticks crisp" d="M0,450v-5" transform="translate(458.17,0)" style="stroke: rgb(68, 68, 68); stroke-opacity: 1; stroke-width: 1px;"/><path class="xtick ticks crisp" d="M0,450v-5" transform="translate(574.52,0)" style="stroke: rgb(68, 68, 68); stroke-opacity: 1; stroke-width: 1px;"/><path class="xtick ticks crisp" d="M0,450v-5" transform="translate(692.78,0)" style="stroke: rgb(68, 68, 68); stroke-opacity: 1; stroke-width: 1px;"/><g class="xtick"><text text-anchor="middle" x="0" y="469" transform="translate(112.94,0)" style="font-family: 'Open Sans', verdana, arial, sans-serif; font-size: 18px; fill: rgb(42, 63, 95); fill-opacity: 1; white-space: pre;">01/11</text></g><g class="xtick"><text text-anchor="middle" x="0" y="469" transform="translate(229.29,0)" style="font-family: 'Open Sans', verdana, arial, sans-serif; font-size: 18px; fill: rgb(42, 63, 95); fill-opacity: 1; white-space: pre;">01/01</text></g><g class="xtick"><text text-anchor="middle" x="0" y="469" transform="translate(341.83,0)" style="font-family: 'Open Sans', verdana, arial, sans-serif; font-size: 18px; fill: rgb(42, 63, 95); fill-opacity: 1; white-space: pre;">01/03</text></g><g class="xtick"><text text-anchor="middle" x="0" y="469" transform="translate(458.17,0)" style="font-family: 'Open Sans', verdana, arial, sans-serif; font-size: 18px; fill: rgb(42, 63, 95); fill-opacity: 1; white-space: pre;">01/05</text></g><g class="xtick"><text text-anchor="middle" x="0" y="469" transform="translate(574.52,0)" style="font-family: 'Open Sans', verdana, arial, sans-serif; font-size: 18px; fill: rgb(42, 63, 95); fill-opacity: 1; white-space: pre;">01/07</text></g><g class="xtick"><text text-anchor="middle" x="0" y="469" transform="translate(692.78,0)" style="font-family: 'Open Sans', verdana, arial, sans-serif; font-size: 18px; fill: rgb(42, 63, 95); fill-opacity: 1; white-space: pre;">01/09</text></g></g><g class="yaxislayer-above"/><g class="overaxes-above"/></g></g><g class="polarlayer"/><g class="ternarylayer"/><g class="geolayer"/><g class="funnelarealayer"/><g class="pielayer"/><g class="treemaplayer"/><g class="sunburstlayer"/><g class="glimages"/><defs id="topdefs-2e2623"><g class="clips"/></defs><g class="layer-above"><g class="imagelayer"/><g class="shapelayer"><path data-index="0" fill-rule="evenodd" d="M-1021.9300000000001,410.44L372.34,410.44" clip-path="url('#clip2e2623xy')" style="opacity: 1; stroke: rgb(255, 0, 0); stroke-opacity: 1; fill: rgb(0, 0, 0); fill-opacity: 0; stroke-dasharray: 3px, 3px; stroke-width: 1.5px;"/></g></g><g class="infolayer"><g class="g-gtitle"><text class="gtitle" x="375" y="25" text-anchor="middle" dy="0.7em" style="font-family: 'Open Sans', verdana, arial, sans-serif; font-size: 50px; fill: rgb(42, 63, 95); opacity: 1; font-weight: normal; white-space: pre;"><tspan style="font-weight:bold">Aude (11)</tspan></text></g><g class="g-xtitle"/><g class="annotation" data-index="0" style="opacity: 1;"><g class="annotation-text-g" transform="rotate(0,694.65,335.87)"><g class="cursor-pointer" transform="translate(651, 300)"><rect class="bg" x="0.5" y="0.5" width="86" height="71" style="stroke-width: 1px; stroke: rgb(0, 0, 0); stroke-opacity: 0; fill: rgb(255, 255, 255); fill-opacity: 0.6;"/><text class="annotation-text" text-anchor="middle" x="43.53125" y="55.5" style="font-family: 'Open Sans', verdana, arial, sans-serif; font-size: 50px; fill: rgb(8, 115, 191); fill-opacity: 1; white-space: pre;"> <tspan style="font-weight:bold">68 </tspan></text></g></g><g class="annotation-arrow-g" style="opacity: 1;"><path d="M723.05,371.37L734.65,385.87" style="stroke-width: 1px; stroke: rgb(8, 115, 191); stroke-opacity: 1; stroke-dasharray: 0px, 0px, 18.5691px, 18.5691px;"/></g></g></g></svg>