<svg class="main-svg" xmlns="http://www.w3.org/2000/svg" xmlns:xlink="http://www.w3.org/1999/xlink" width="1125" height="750" style="" viewBox="0 0 750 500"><rect x="0" y="0" width="750" height="500" style="fill: rgb(0, 0, 0); fill-opacity: 0;"/><defs id="defs-192c47"><g class="clips"><clipPath id="clip192c47xyplot" class="plotclip"><rect width="700" height="380"/></clipPath><clipPath class="axesclip" id="clip192c47x"><rect x="50" y="0" width="700" height="500"/></clipPath><clipPath class="axesclip" id="clip192c47y"><rect x="0" y="70" width="750" height="380"/></clipPath><clipPath class="axesclip" id="clip192c47xy"><rect x="50" y="70" width="700" height="380"/></clipPath></g><g class="gradients"/></defs><g class="bglayer"><rect class="bg" x="50" y="70" width="700" height="380" style="fill: rgb(0, 0, 0); fill-opacity: 0; stroke-width: 0;"/></g><g class="layer-below"><g class="imagelayer"/><g class="shapelayer"/></g><g class="cartesianlayer"><g class="subplot xy"><g class="layer-subplot"><g class="shapelayer"/><g class="imagelayer"/></g><g class="gridlayer"><g class="x"><path class="xgrid crisp" transform="translate(52.26,0)" d="M0,70v380" style="stroke: rgb(255, 255, 255); stroke-opacity: 1; stroke-width: 1px;"/><path class="xgrid crisp" transform="translate(156.13,0)" d="M0,70v380" style="stroke: rgb(255, 255, 255); stroke-opacity: 1; stroke-width: 1px;"/><path class="xgrid crisp" transform="translate(257.74,0)" d="M0,70v380" style="stroke: rgb(255, 255, 255); stroke-opacity: 1; stroke-width: 1px;"/><path class="xgrid crisp" transform="translate(360.48,0)" d="M0,70v380" style="stroke: rgb(255, 255, 255); stroke-opacity: 1; stroke-width: 1px;"/><path class="xgrid crisp" transform="translate(464.35,0)" d="M0,70v380" style="stroke: rgb(255, 255, 255); stroke-opacity: 1; stroke-width: 1px;"/><path class="xgrid crisp" transform="translate(568.23,0)" d="M0,70v380" style="stroke: rgb(255, 255, 255); stroke-opacity: 1; stroke-width: 1px;"/><path class="xgrid crisp" transform="translate(669.84,0)" d="M0,70v380" style="stroke: rgb(255, 255, 255); stroke-opacity: 1; stroke-width: 1px;"/></g><g class="y"/></g><g class="zerolinelayer"/><path class="xlines-below"/><path class="ylines-below"/><g class="overlines-below"/><g class="xaxislayer-below"/><g class="yaxislayer-below"/><g class="overaxes-below"/><g class="plot" transform="translate(50, 70)" clip-path="url('#clip192c47xyplot')"><g class="scatterlayer mlayer"><g class="trace scatter traceef2f26" style="stroke-miterlimit: 2;"><g class="fills"><g><path class="js-fill" d="M680.81,380L-153.55,380L-153.55,379.31L-144.52,379.51L-143.39,379.51L-108.39,379.79L-107.26,379.8L-60.97,379.15L-59.84,379.08L-38.39,377.84L-37.26,377.84L-28.23,374.68L-27.1,374.17L-23.71,373.49L-22.58,373.55L-9.03,373.55L-7.9,373.85L-4.52,374.17L-3.39,374.69L-1.13,374.95L0,374.78L3.39,373.66L4.52,372.84L7.9,370.36L9.03,369.91L10.16,369.85L11.29,368.76L16.94,363.96L18.06,363.96L22.58,354.69L23.71,351.4L25.97,350.01L27.1,346.1L29.35,343.75L30.48,342.92L32.74,341.96L33.87,342.1L36.13,342.37L37.26,342.12L40.65,346.58L41.77,346.56L44.03,350.84L45.16,356.77L46.29,356.63L47.42,358.84L49.68,359.69L50.81,363.15L51.94,365.64L53.06,364.09L55.32,369.3L56.45,369.92L57.58,369.95L58.71,371.64L63.23,373.11L64.35,373.19L68.87,372.81L70,372.57L84.68,371.44L85.81,371.56L90.32,371.04L91.45,370.56L93.71,370.63L94.84,371.94L97.1,371.61L98.23,371.7L100.48,370.68L101.61,370.77L105,370.43L106.13,369.78L109.52,370.75L110.65,369.14L114.03,370.83L115.16,370.49L119.68,368.92L120.81,368.9L123.06,367.81L124.19,367.38L134.35,364.65L135.48,364.74L138.87,364.78L140,365.84L142.26,366.45L143.39,366.14L145.65,366.83L146.77,367.33L153.55,367.67L154.68,367.29L158.06,366.06L159.19,365.76L171.61,365.17L172.74,364.95L179.52,363.53L180.65,363.73L187.42,363.27L188.55,362.69L193.06,361.05L194.19,360.82L197.58,358.34L198.71,357.58L199.84,357.41L200.97,355.76L203.23,354.6L204.35,354L207.74,354.48L208.87,359.37L211.13,358.69L212.26,359.06L215.65,358.7L216.77,354.66L219.03,356.97L220.16,357.55L222.42,359.42L223.55,359.41L225.81,360.77L226.94,360.56L229.19,360.68L230.32,360.97L232.58,361.77L233.71,362.59L238.23,366.78L239.35,366.57L243.87,369.14L245,369.43L248.39,369.8L249.52,370.12L250.65,370.32L251.77,371.63L252.9,371.91L254.03,371.26L257.42,370.87L258.55,370.68L259.68,369.4L260.81,369.51L263.06,369.97L264.19,371.73L267.58,371.58L268.71,371.96L270.97,371.96L272.1,371.04L275.48,373.91L276.61,374.34L292.42,378.77L293.55,378.78L311.61,378.54L312.74,378.37L320.65,377.28L321.77,377.57L325.16,376.79L326.29,376.8L333.06,374.97L334.19,374.85L338.71,373.34L339.84,373.01L344.35,372.92L345.48,372.83L348.87,373.15L350,373.01L353.39,370.93L354.52,370.3L359.03,369.56L360.16,369.86L368.06,369.27L369.19,369.86L380.48,373.19L381.61,373.13L386.13,375.13L387.26,375.21L395.16,376.37L396.29,376.29L405.32,376.05L406.45,375.87L422.26,375.84L423.39,375.53L431.29,374.9L432.42,374.27L435.81,372.61L436.94,372.52L444.84,370.84L445.97,371.94L448.23,370.15L449.35,370.06L451.61,369.35L452.74,369.23L453.87,367.3L455,367.81L456.13,367.09L457.26,368.14L460.65,367.14L461.77,365.23L464.03,363.04L465.16,360.08L467.42,358.26L468.55,358.06L470.81,356.74L471.94,355.46L476.45,353.53L477.58,351.99L479.84,350.29L480.97,348.97L483.23,347.73L484.35,347.72L488.87,344.85L490,345.27L492.26,345.32L493.39,345.12L494.52,345.27L495.65,346.5L497.9,347.96L499.03,347.7L500.16,347.58L501.29,349.05L502.42,349.44L503.55,347.66L505.81,342.51L506.94,344.9L508.06,343.82L509.19,331.19L513.71,274.38L514.84,273.75L515.97,269.16L517.1,247.62L520.48,213.25L521.61,201.12L522.74,183.96L523.87,184.45L526.13,174.91L527.26,164.94L531.77,129.64L532.9,107.61L537.42,34.08L538.55,22.94L539.68,19.72L540.81,5.17L543.06,0L544.19,4.97L546.45,15.86L547.58,18.36L549.84,45.99L550.97,66.53L554.35,125.08L555.48,130.61L558.87,220.63L560,240.87L562.26,265.71L563.39,267.72L565.65,291.83L566.77,299.37L570.16,314.7L571.29,315.72L573.55,324.2L574.68,326.37L576.94,332.28L578.06,333.21L579.19,333.99L580.32,337.09L582.58,337.75L583.71,336.88L587.1,335.67L588.23,333.17L591.61,328.98L592.74,326.01L595,323.21L596.13,318.67L599.52,311.09L600.65,308.42L602.9,306.7L604.03,301.88L608.55,282.72L609.68,280.08L610.81,279.04L611.94,274.18L614.19,267.65L615.32,265.84L617.58,263.8L618.71,263.56L619.84,262.52L620.97,263.14L623.23,260.37L624.35,258.61L625.48,257.49L626.61,257.78L630,268.1L631.13,273.16L633.39,281.42L634.52,282.98L635.65,302.09L636.77,300.08L640.16,314.02L641.29,316.44L642.42,317.08L643.55,308L644.68,318.98L645.81,322.3L649.19,331.17L650.32,331.86L651.45,335.3L652.58,336.14L655.97,339.46L657.1,339.53L658.23,339.56L659.35,340.9L661.61,344.41L662.74,345.01L671.77,356.91L672.9,357.28L674.03,357.73L675.16,359.31L678.55,364.06L679.68,363.98L680.81,364.55" style="fill: rgb(8, 115, 191); fill-opacity: 0.2; stroke-width: 0;"/></g></g><g class="errorbars"/><g class="lines"><path class="js-line" d="M-153.55,379.31L-144.52,379.51L-143.39,379.51L-108.39,379.79L-107.26,379.8L-60.97,379.15L-59.84,379.08L-38.39,377.84L-37.26,377.84L-28.23,374.68L-27.1,374.17L-23.71,373.49L-22.58,373.55L-9.03,373.55L-7.9,373.85L-4.52,374.17L-3.39,374.69L-1.13,374.95L0,374.78L3.39,373.66L4.52,372.84L7.9,370.36L9.03,369.91L10.16,369.85L11.29,368.76L16.94,363.96L18.06,363.96L22.58,354.69L23.71,351.4L25.97,350.01L27.1,346.1L29.35,343.75L30.48,342.92L32.74,341.96L33.87,342.1L36.13,342.37L37.26,342.12L40.65,346.58L41.77,346.56L44.03,350.84L45.16,356.77L46.29,356.63L47.42,358.84L49.68,359.69L50.81,363.15L51.94,365.64L53.06,364.09L55.32,369.3L56.45,369.92L57.58,369.95L58.71,371.64L63.23,373.11L64.35,373.19L68.87,372.81L70,372.57L84.68,371.44L85.81,371.56L90.32,371.04L91.45,370.56L93.71,370.63L94.84,371.94L97.1,371.61L98.23,371.7L100.48,370.68L101.61,370.77L105,370.43L106.13,369.78L109.52,370.75L110.65,369.14L114.03,370.83L115.16,370.49L119.68,368.92L120.81,368.9L123.06,367.81L124.19,367.38L134.35,364.65L135.48,364.74L138.87,364.78L140,365.84L142.26,366.45L143.39,366.14L145.65,366.83L146.77,367.33L153.55,367.67L154.68,367.29L158.06,366.06L159.19,365.76L171.61,365.17L172.74,364.95L179.52,363.53L180.65,363.73L187.42,363.27L188.55,362.69L193.06,361.05L194.19,360.82L197.58,358.34L198.71,357.58L199.84,357.41L200.97,355.76L203.23,354.6L204.35,354L207.74,354.48L208.87,359.37L211.13,358.69L212.26,359.06L215.65,358.7L216.77,354.66L219.03,356.97L220.16,357.55L222.42,359.42L223.55,359.41L225.81,360.77L226.94,360.56L229.19,360.68L230.32,360.97L232.58,361.77L233.71,362.59L238.23,366.78L239.35,366.57L243.87,369.14L245,369.43L248.39,369.8L249.52,370.12L250.65,370.32L251.77,371.63L252.9,371.91L254.03,371.26L257.42,370.87L258.55,370.68L259.68,369.4L260.81,369.51L263.06,369.97L264.19,371.73L267.58,371.58L268.71,371.96L270.97,371.96L272.1,371.04L275.48,373.91L276.61,374.34L292.42,378.77L293.55,378.78L311.61,378.54L312.74,378.37L320.65,377.28L321.77,377.57L325.16,376.79L326.29,376.8L333.06,374.97L334.19,374.85L338.71,373.34L339.84,373.01L344.35,372.92L345.48,372.83L348.87,373.15L350,373.01L353.39,370.93L354.52,370.3L359.03,369.56L360.16,369.86L368.06,369.27L369.19,369.86L380.48,373.19L381.61,373.13L386.13,375.13L387.26,375.21L395.16,376.37L396.29,376.29L405.32,376.05L406.45,375.87L422.26,375.84L423.39,375.53L431.29,374.9L432.42,374.27L435.81,372.61L436.94,372.52L444.84,370.84L445.97,371.94L448.23,370.15L449.35,370.06L451.61,369.35L452.74,369.23L453.87,367.3L455,367.81L456.13,367.09L457.26,368.14L460.65,367.14L461.77,365.23L464.03,363.04L465.16,360.08L467.42,358.26L468.55,358.06L470.81,356.74L471.94,355.46L476.45,353.53L477.58,351.99L479.84,350.29L480.97,348.97L483.23,347.73L484.35,347.72L488.87,344.85L490,345.27L492.26,345.32L493.39,345.12L494.52,345.27L495.65,346.5L497.9,347.96L499.03,347.7L500.16,347.58L501.29,349.05L502.42,349.44L503.55,347.66L505.81,342.51L506.94,344.9L508.06,343.82L509.19,331.19L513.71,274.38L514.84,273.75L515.97,269.16L517.1,247.62L520.48,213.25L521.61,201.12L522.74,183.96L523.87,184.45L526.13,174.91L527.26,164.94L531.77,129.64L532.9,107.61L537.42,34.08L538.55,22.94L539.68,19.72L540.81,5.17L543.06,0L544.19,4.97L546.45,15.86L547.58,18.36L549.84,45.99L550.97,66.53L554.35,125.08L555.48,130.61L558.87,220.63L560,240.87L562.26,265.71L563.39,267.72L565.65,291.83L566.77,299.37L570.16,314.7L571.29,315.72L573.55,324.2L574.68,326.37L576.94,332.28L578.06,333.21L579.19,333.99L580.32,337.09L582.58,337.75L583.71,336.88L587.1,335.67L588.23,333.17L591.61,328.98L592.74,326.01L595,323.21L596.13,318.67L599.52,311.09L600.65,308.42L602.9,306.7L604.03,301.88L608.55,282.72L609.68,280.08L610.81,279.04L611.94,274.18L614.19,267.65L615.32,265.84L617.58,263.8L618.71,263.56L619.84,262.52L620.97,263.14L623.23,260.37L624.35,258.61L625.48,257.49L626.61,257.78L630,268.1L631.13,273.16L633.39,281.42L634.52,282.98L635.65,302.09L636.77,300.08L640.16,314.02L641.29,316.44L642.42,317.08L643.55,308L644.68,318.98L645.81,322.3L649.19,331.17L650.32,331.86L651.45,335.3L652.58,336.14L655.97,339.46L657.1,339.53L658.23,339.56L659.35,340.9L661.61,344.41L662.74,345.01L671.77,356.91L672.9,357.28L674.03,357.73L675.16,359.31L678.55,364.06L679.68,363.98L680.81,364.55" style="vector-effect: non-scaling-stroke; fill: none; stroke: rgb(8, 115, 191); stroke-opacity: 1; stroke-width: 0.5px; opacity: 1;"/></g><g class="points"/><g class="text"/></g><g class="trace scatter tracea98605" style="stroke-miterlimit: 2;"><g class="fills"><g><path class="js-fill" d="M692.1,380L680.81,380L680.81,364.55L684.19,364.27L685.32,363.71L686.45,361.81L687.58,362.02L689.84,361.84L690.97,364.78L692.1,362.05" style="fill: rgb(8, 115, 191); fill-opacity: 0.4; stroke-width: 0;"/></g></g><g class="errorbars"/><g class="lines"><path class="js-line" d="M680.81,364.55L684.19,364.27L685.32,363.71L686.45,361.81L687.58,362.02L689.84,361.84L690.97,364.78L692.1,362.05" style="vector-effect: non-scaling-stroke; fill: none; stroke: rgb(8, 115, 191); stroke-opacity: 1; stroke-width: 2px; opacity: 1;"/></g><g class="points"/><g class="text"/></g><g class="trace scatter trace8bd405" style="stroke-miterlimit: 2; opacity: 1;"><g class="fills"/><g class="errorbars"/><g class="lines"/><g class="points"><path class="point" transform="translate(692.1,362.05)" d="M15,0A15,15 0 1,1 0,-15A15,15 0 0,1 15,0Z" style="opacity: 1; stroke-width: 0px; fill: rgb(8, 115, 191); fill-opacity: 1;"/></g><g class="text"/></g></g></g><g class="overplot"/><path class="xlines-above crisp" style="fill: none; stroke-width: 1px; stroke: rgb(0, 0, 0); stroke-opacity: 0;" d=""/><path class="ylines-above crisp" style="fill: none;" d="M0,0"/><g class="overlines-above"/><g class="xaxislayer-above"><path class="xtick ticks crisp" d="M0,450v-5" transform="translate(52.26,0)" style="stroke: rgb(68, 68, 68); stroke-opacity: 1; stroke-width: 1px;"/><path class="xtick ticks crisp" d="M0,450v-5" transform="translate(156.13,0)" style="stroke: rgb(68, 68, 68); stroke-opacity: 1; stroke-width: 1px;"/><path class="xtick ticks crisp" d="M0,450v-5" transform="translate(257.74,0)" style="stroke: rgb(68, 68, 68); stroke-opacity: 1; stroke-width: 1px;"/><path class="xtick ticks crisp" d="M0,450v-5" transform="translate(360.48,0)" style="stroke: rgb(68, 68, 68); stroke-opacity: 1; stroke-width: 1px;"/><path class="xtick ticks crisp" d="M0,450v-5" transform="translate(464.35,0)" style="stroke: rgb(68, 68, 68); stroke-opacity: 1; stroke-width: 1px;"/><path class="xtick ticks crisp" d="M0,450v-5" transform="translate(568.23,0)" style="stroke: rgb(68, 68, 68); stroke-opacity: 1; stroke-width: 1px;"/><path class="xtick ticks crisp" d="M0,450v-5" transform="translate(669.84,0)" style="stroke: rgb(68, 68, 68); stroke-opacity: 1; stroke-width: 1px;"/><g class="xtick"><text text-anchor="middle" x="0" y="469" transform="translate(52.26,0)" style="font-family: 'Open Sans', verdana, arial, sans-serif; font-size: 18px; fill: rgb(42, 63, 95); fill-opacity: 1; white-space: pre;">01/10</text></g><g class="xtick"><text text-anchor="middle" x="0" y="469" transform="translate(156.13,0)" style="font-family: 'Open Sans', verdana, arial, sans-serif; font-size: 18px; fill: rgb(42, 63, 95); fill-opacity: 1; white-space: pre;">01/01</text></g><g class="xtick"><text text-anchor="middle" x="0" y="469" transform="translate(257.74,0)" style="font-family: 'Open Sans', verdana, arial, sans-serif; font-size: 18px; fill: rgb(42, 63, 95); fill-opacity: 1; white-space: pre;">01/04</text></g><g class="xtick"><text text-anchor="middle" x="0" y="469" transform="translate(360.48,0)" style="font-family: 'Open Sans', verdana, arial, sans-serif; font-size: 18px; fill: rgb(42, 63, 95); fill-opacity: 1; white-space: pre;">01/07</text></g><g class="xtick"><text text-anchor="middle" x="0" y="469" transform="translate(464.35,0)" style="font-family: 'Open Sans', verdana, arial, sans-serif; font-size: 18px; fill: rgb(42, 63, 95); fill-opacity: 1; white-space: pre;">01/10</text></g><g class="xtick"><text text-anchor="middle" x="0" y="469" transform="translate(568.23,0)" style="font-family: 'Open Sans', verdana, arial, sans-serif; font-size: 18px; fill: rgb(42, 63, 95); fill-opacity: 1; white-space: pre;">01/01</text></g><g class="xtick"><text text-anchor="middle" x="0" y="469" transform="translate(669.84,0)" style="font-family: 'Open Sans', verdana, arial, sans-serif; font-size: 18px; fill: rgb(42, 63, 95); fill-opacity: 1; white-space: pre;">01/04</text></g></g><g class="yaxislayer-above"/><g class="overaxes-above"/></g></g><g class="polarlayer"/><g class="ternarylayer"/><g class="geolayer"/><g class="funnelarealayer"/><g class="pielayer"/><g class="treemaplayer"/><g class="sunburstlayer"/><g class="glimages"/><defs id="topdefs-192c47"><g class="clips"/></defs><g class="layer-above"><g class="imagelayer"/><g class="shapelayer"><path data-index="0" fill-rule="evenodd" d="M-584.52,445.68L240.81,445.68" clip-path="url('#clip192c47xy')" style="opacity: 1; stroke: rgb(255, 0, 0); stroke-opacity: 1; fill: rgb(0, 0, 0); fill-opacity: 0; stroke-dasharray: 3px, 3px; stroke-width: 1.5px;"/></g></g><g class="infolayer"><g class="g-gtitle"><text class="gtitle" x="375" y="25" text-anchor="middle" dy="0.7em" style="font-family: 'Open Sans', verdana, arial, sans-serif; font-size: 50px; fill: rgb(42, 63, 95); opacity: 1; font-weight: normal; white-space: pre;"><tspan style="font-weight:bold">Maine-et-Loire (49)</tspan></text></g><g class="g-xtitle"/><g class="annotation" data-index="0" style="opacity: 1;"><g class="annotation-text-g" transform="rotate(0,700.1,372.05)"><g class="cursor-pointer" transform="translate(642, 336)"><rect class="bg" x="0.5" y="0.5" width="115" height="71" style="stroke-width: 1px; stroke: rgb(0, 0, 0); stroke-opacity: 0; fill: rgb(255, 255, 255); fill-opacity: 0.6;"/><text class="annotation-text" text-anchor="middle" x="57.8125" y="55.5" style="font-family: 'Open Sans', verdana, arial, sans-serif; font-size: 50px; fill: rgb(8, 115, 191); fill-opacity: 1; white-space: pre;"> <tspan style="font-weight:bold">207 </tspan></text></g></g><g class="annotation-arrow-g" style="opacity: 1;"><path d="M728.5,407.55L740.1,422.05" style="stroke-width: 1px; stroke: rgb(8, 115, 191); stroke-opacity: 1; stroke-dasharray: 0px, 0px, 18.569px, 18.569px;"/></g></g></g></svg>