<svg class="main-svg" xmlns="http://www.w3.org/2000/svg" xmlns:xlink="http://www.w3.org/1999/xlink" width="1125" height="750" style="" viewBox="0 0 750 500"><rect x="0" y="0" width="750" height="500" style="fill: rgb(0, 0, 0); fill-opacity: 0;"/><defs id="defs-270b1d"><g class="clips"><clipPath id="clip270b1dxyplot" class="plotclip"><rect width="700" height="380"/></clipPath><clipPath class="axesclip" id="clip270b1dx"><rect x="50" y="0" width="700" height="500"/></clipPath><clipPath class="axesclip" id="clip270b1dy"><rect x="0" y="70" width="750" height="380"/></clipPath><clipPath class="axesclip" id="clip270b1dxy"><rect x="50" y="70" width="700" height="380"/></clipPath></g><g class="gradients"/></defs><g class="bglayer"><rect class="bg" x="50" y="70" width="700" height="380" style="fill: rgb(0, 0, 0); fill-opacity: 0; stroke-width: 0;"/></g><g class="layer-below"><g class="imagelayer"/><g class="shapelayer"/></g><g class="cartesianlayer"><g class="subplot xy"><g class="layer-subplot"><g class="shapelayer"/><g class="imagelayer"/></g><g class="gridlayer"><g class="x"><path class="xgrid crisp" transform="translate(92.53999999999999,0)" d="M0,70v380" style="stroke: rgb(255, 255, 255); stroke-opacity: 1; stroke-width: 1px;"/><path class="xgrid crisp" transform="translate(171.18,0)" d="M0,70v380" style="stroke: rgb(255, 255, 255); stroke-opacity: 1; stroke-width: 1px;"/><path class="xgrid crisp" transform="translate(247.24,0)" d="M0,70v380" style="stroke: rgb(255, 255, 255); stroke-opacity: 1; stroke-width: 1px;"/><path class="xgrid crisp" transform="translate(325.87,0)" d="M0,70v380" style="stroke: rgb(255, 255, 255); stroke-opacity: 1; stroke-width: 1px;"/><path class="xgrid crisp" transform="translate(404.51,0)" d="M0,70v380" style="stroke: rgb(255, 255, 255); stroke-opacity: 1; stroke-width: 1px;"/><path class="xgrid crisp" transform="translate(484.44,0)" d="M0,70v380" style="stroke: rgb(255, 255, 255); stroke-opacity: 1; stroke-width: 1px;"/><path class="xgrid crisp" transform="translate(563.08,0)" d="M0,70v380" style="stroke: rgb(255, 255, 255); stroke-opacity: 1; stroke-width: 1px;"/><path class="xgrid crisp" transform="translate(641.71,0)" d="M0,70v380" style="stroke: rgb(255, 255, 255); stroke-opacity: 1; stroke-width: 1px;"/><path class="xgrid crisp" transform="translate(717.77,0)" d="M0,70v380" style="stroke: rgb(255, 255, 255); stroke-opacity: 1; stroke-width: 1px;"/></g><g class="y"/></g><g class="zerolinelayer"/><path class="xlines-below"/><path class="ylines-below"/><g class="overlines-below"/><g class="xaxislayer-below"/><g class="yaxislayer-below"/><g class="overaxes-below"/><g class="plot" transform="translate(50, 70)" clip-path="url('#clip270b1dxyplot')"><g class="scatterlayer mlayer"><g class="trace scatter trace5887e1" style="stroke-miterlimit: 2;"><g class="fills"><g><path class="js-fill" d="M678.08,380L-175.32,380L-175.32,379.81L-59.3,378.91L-58.01,378.47L-46.41,374.8L-45.12,374.99L-39.96,374.9L-38.67,374.55L-30.94,373.03L-29.65,373.21L-14.18,373.9L-12.89,373.09L-7.73,373.37L-6.45,373.34L-2.58,373.03L-1.29,372.78L2.58,372.25L3.87,371.66L5.16,372.09L6.45,371.66L9.02,370.54L10.31,370.1L11.6,370.26L12.89,369.45L15.47,368.39L16.76,368.33L18.05,367.61L19.34,367.86L21.92,367.18L23.2,366.21L27.07,360.86L28.36,360.42L29.65,360.33L30.94,358.46L32.23,355.32L33.52,354.45L36.1,353.67L37.38,352.52L38.67,352.42L39.96,350.28L41.25,350.59L42.54,349.19L43.83,349.62L45.12,348.81L47.7,348.66L48.99,349.16L50.28,350.4L51.57,355.29L52.85,355.1L54.14,354.1L55.43,355.5L56.72,355.35L58.01,358.24L59.3,358.99L60.59,357L61.88,358.31L63.17,362.69L64.46,362.85L65.75,362.97L67.03,364.13L69.61,365.31L70.9,366.43L74.77,366.68L76.06,364.31L77.35,365.53L78.64,365.4L82.5,363.69L83.79,363.54L85.08,365.4L86.37,365.4L87.66,364.97L88.95,365.68L90.24,366.87L91.53,366.18L96.69,366.83L97.97,365.93L99.26,364.59L100.55,364.59L103.13,364.31L104.42,363.91L107,365.37L108.29,368.2L113.44,369.48L114.73,369.54L118.6,370.35L119.89,370.13L122.47,370.13L123.76,369.04L126.34,365.81L127.62,365.53L128.91,365.71L130.2,364.97L131.49,363.63L132.78,363.47L134.07,363.41L135.36,362.29L139.23,362.04L140.52,362.48L144.38,363.69L145.67,363.75L146.96,363.72L148.25,364.59L153.41,366.93L154.7,367.08L157.27,366.8L158.56,365.81L162.43,365.03L163.72,364.97L166.3,365.81L167.59,367.15L172.74,370.51L174.03,370.41L179.19,371.69L180.48,371.91L186.92,372L188.21,371.85L202.39,369.79L203.68,369.11L207.55,367.58L208.84,367.8L216.57,367.92L217.86,367.74L219.15,367.55L220.44,366.24L223.02,364.38L224.31,364.06L226.89,361.54L228.18,361.76L230.76,362.04L232.04,362.07L234.62,362.04L235.91,362.48L237.2,362.45L238.49,365.68L239.78,364.34L241.07,364.25L246.22,364.06L247.51,360.33L253.96,362.2L255.25,362.13L257.83,364.41L259.12,363.88L260.41,364.47L261.69,364.06L266.85,364.38L268.14,365.28L270.72,365.74L272.01,366.74L273.3,366.77L274.59,367.67L275.87,367.36L277.16,368.11L281.03,369.64L282.32,369.57L284.9,371.35L286.19,370.6L287.48,372.34L288.77,372.34L292.63,372.78L293.92,373.03L295.21,373.62L296.5,372.81L299.08,372.87L300.37,372.97L301.66,374.37L302.95,373.59L304.24,373.9L305.52,373.18L310.68,372.31L311.97,373.49L319.71,375.08L320.99,375.08L323.57,375.18L324.86,375.64L328.73,375.77L330.02,376.08L335.17,377.32L336.46,377.29L344.2,378.82L345.49,378.82L349.36,378.97L350.64,378.82L360.96,378.6L362.25,378.54L367.4,377.91L368.69,376.45L373.85,372.93L375.14,371.47L376.43,369.23L377.72,368.67L380.29,366.27L381.58,366.49L386.74,360.45L388.03,359.08L394.48,357.22L395.76,357.87L397.05,359.08L398.34,358.68L400.92,358.87L402.21,358.12L403.5,358.49L404.79,357.87L406.08,356.66L407.37,357.19L412.52,356.66L413.81,357.43L415.1,357.31L416.39,358.12L417.68,358.18L418.97,360.02L421.55,362.04L422.84,363.35L424.13,364.94L425.41,365.03L427.99,366.09L429.28,367.24L434.44,369.88L435.73,369.64L439.59,371.1L440.88,371.72L442.17,371.85L443.46,371L444.75,370.63L446.04,371.38L451.2,371.94L452.49,372.69L460.22,375.08L461.51,375.3L465.38,376.14L466.67,376.3L478.27,377.14L479.56,376.98L483.43,376.3L484.71,375.98L491.16,377.01L492.45,376.11L497.61,373.15L498.9,373.03L500.18,371.81L501.47,371.69L507.92,371.32L509.21,372.97L513.08,371.1L514.36,370.26L516.94,369.95L518.23,367.52L520.81,365.9L522.1,367.77L524.68,365.71L525.97,365.5L528.55,360.92L529.83,359.96L531.12,355.85L532.41,354.51L533.7,352.86L534.99,352.55L542.73,331.41L544.01,330.85L547.88,318.03L549.17,314.14L551.75,310.72L553.04,310.75L554.33,311.46L555.62,309.1L556.91,309.13L558.2,310.41L560.77,311.99L562.06,311.93L563.35,311.4L564.64,314.45L569.8,322.64L571.09,323.07L573.66,328.33L574.95,328.43L577.53,324.57L578.82,328.64L580.11,328.24L581.4,319.71L586.56,286.78L587.85,285.97L589.13,285.07L590.42,272.06L593,249.68L594.29,244.11L595.58,241.93L596.87,228.36L598.16,226.21L599.45,216.91L600.74,215.29L602.03,211.09L604.6,189.46L605.89,178.5L607.18,176.82L608.47,160.48L613.63,94.18L614.92,77.62L616.21,74.85L617.5,48.96L620.07,19.27L621.36,7.81L622.65,3.39L623.94,4.45L625.23,0L626.52,2.93L627.81,3.86L629.1,3.73L630.39,7.35L631.68,17.83L634.25,29.38L635.54,43.23L641.99,136.33L643.28,140.59L645.86,187.21L647.15,203.31L649.72,232.94L651.01,237.67L652.3,239.53L653.59,253.67L657.46,276.48L658.75,281.49L660.04,287.16L661.33,288.46L663.9,294.38L665.19,296.09L667.77,296.59L669.06,296.68L671.64,295.19L672.93,294.22L674.22,292.35L675.51,288.93L678.08,283.98" style="fill: rgb(8, 115, 191); fill-opacity: 0.2; stroke-width: 0;"/></g></g><g class="errorbars"/><g class="lines"><path class="js-line" d="M-175.32,379.81L-59.3,378.91L-58.01,378.47L-46.41,374.8L-45.12,374.99L-39.96,374.9L-38.67,374.55L-30.94,373.03L-29.65,373.21L-14.18,373.9L-12.89,373.09L-7.73,373.37L-6.45,373.34L-2.58,373.03L-1.29,372.78L2.58,372.25L3.87,371.66L5.16,372.09L6.45,371.66L9.02,370.54L10.31,370.1L11.6,370.26L12.89,369.45L15.47,368.39L16.76,368.33L18.05,367.61L19.34,367.86L21.92,367.18L23.2,366.21L27.07,360.86L28.36,360.42L29.65,360.33L30.94,358.46L32.23,355.32L33.52,354.45L36.1,353.67L37.38,352.52L38.67,352.42L39.96,350.28L41.25,350.59L42.54,349.19L43.83,349.62L45.12,348.81L47.7,348.66L48.99,349.16L50.28,350.4L51.57,355.29L52.85,355.1L54.14,354.1L55.43,355.5L56.72,355.35L58.01,358.24L59.3,358.99L60.59,357L61.88,358.31L63.17,362.69L64.46,362.85L65.75,362.97L67.03,364.13L69.61,365.31L70.9,366.43L74.77,366.68L76.06,364.31L77.35,365.53L78.64,365.4L82.5,363.69L83.79,363.54L85.08,365.4L86.37,365.4L87.66,364.97L88.95,365.68L90.24,366.87L91.53,366.18L96.69,366.83L97.97,365.93L99.26,364.59L100.55,364.59L103.13,364.31L104.42,363.91L107,365.37L108.29,368.2L113.44,369.48L114.73,369.54L118.6,370.35L119.89,370.13L122.47,370.13L123.76,369.04L126.34,365.81L127.62,365.53L128.91,365.71L130.2,364.97L131.49,363.63L132.78,363.47L134.07,363.41L135.36,362.29L139.23,362.04L140.52,362.48L144.38,363.69L145.67,363.75L146.96,363.72L148.25,364.59L153.41,366.93L154.7,367.08L157.27,366.8L158.56,365.81L162.43,365.03L163.72,364.97L166.3,365.81L167.59,367.15L172.74,370.51L174.03,370.41L179.19,371.69L180.48,371.91L186.92,372L188.21,371.85L202.39,369.79L203.68,369.11L207.55,367.58L208.84,367.8L216.57,367.92L217.86,367.74L219.15,367.55L220.44,366.24L223.02,364.38L224.31,364.06L226.89,361.54L228.18,361.76L230.76,362.04L232.04,362.07L234.62,362.04L235.91,362.48L237.2,362.45L238.49,365.68L239.78,364.34L241.07,364.25L246.22,364.06L247.51,360.33L253.96,362.2L255.25,362.13L257.83,364.41L259.12,363.88L260.41,364.47L261.69,364.06L266.85,364.38L268.14,365.28L270.72,365.74L272.01,366.74L273.3,366.77L274.59,367.67L275.87,367.36L277.16,368.11L281.03,369.64L282.32,369.57L284.9,371.35L286.19,370.6L287.48,372.34L288.77,372.34L292.63,372.78L293.92,373.03L295.21,373.62L296.5,372.81L299.08,372.87L300.37,372.97L301.66,374.37L302.95,373.59L304.24,373.9L305.52,373.18L310.68,372.31L311.97,373.49L319.71,375.08L320.99,375.08L323.57,375.18L324.86,375.64L328.73,375.77L330.02,376.08L335.17,377.32L336.46,377.29L344.2,378.82L345.49,378.82L349.36,378.97L350.64,378.82L360.96,378.6L362.25,378.54L367.4,377.91L368.69,376.45L373.85,372.93L375.14,371.47L376.43,369.23L377.72,368.67L380.29,366.27L381.58,366.49L386.74,360.45L388.03,359.08L394.48,357.22L395.76,357.87L397.05,359.08L398.34,358.68L400.92,358.87L402.21,358.12L403.5,358.49L404.79,357.87L406.08,356.66L407.37,357.19L412.52,356.66L413.81,357.43L415.1,357.31L416.39,358.12L417.68,358.18L418.97,360.02L421.55,362.04L422.84,363.35L424.13,364.94L425.41,365.03L427.99,366.09L429.28,367.24L434.44,369.88L435.73,369.64L439.59,371.1L440.88,371.72L442.17,371.85L443.46,371L444.75,370.63L446.04,371.38L451.2,371.94L452.49,372.69L460.22,375.08L461.51,375.3L465.38,376.14L466.67,376.3L478.27,377.14L479.56,376.98L483.43,376.3L484.71,375.98L491.16,377.01L492.45,376.11L497.61,373.15L498.9,373.03L500.18,371.81L501.47,371.69L507.92,371.32L509.21,372.97L513.08,371.1L514.36,370.26L516.94,369.95L518.23,367.52L520.81,365.9L522.1,367.77L524.68,365.71L525.97,365.5L528.55,360.92L529.83,359.96L531.12,355.85L532.41,354.51L533.7,352.86L534.99,352.55L542.73,331.41L544.01,330.85L547.88,318.03L549.17,314.14L551.75,310.72L553.04,310.75L554.33,311.46L555.62,309.1L556.91,309.13L558.2,310.41L560.77,311.99L562.06,311.93L563.35,311.4L564.64,314.45L569.8,322.64L571.09,323.07L573.66,328.33L574.95,328.43L577.53,324.57L578.82,328.64L580.11,328.24L581.4,319.71L586.56,286.78L587.85,285.97L589.13,285.07L590.42,272.06L593,249.68L594.29,244.11L595.58,241.93L596.87,228.36L598.16,226.21L599.45,216.91L600.74,215.29L602.03,211.09L604.6,189.46L605.89,178.5L607.18,176.82L608.47,160.48L613.63,94.18L614.92,77.62L616.21,74.85L617.5,48.96L620.07,19.27L621.36,7.81L622.65,3.39L623.94,4.45L625.23,0L626.52,2.93L627.81,3.86L629.1,3.73L630.39,7.35L631.68,17.83L634.25,29.38L635.54,43.23L641.99,136.33L643.28,140.59L645.86,187.21L647.15,203.31L649.72,232.94L651.01,237.67L652.3,239.53L653.59,253.67L657.46,276.48L658.75,281.49L660.04,287.16L661.33,288.46L663.9,294.38L665.19,296.09L667.77,296.59L669.06,296.68L671.64,295.19L672.93,294.22L674.22,292.35L675.51,288.93L678.08,283.98" style="vector-effect: non-scaling-stroke; fill: none; stroke: rgb(8, 115, 191); stroke-opacity: 1; stroke-width: 0.5px; opacity: 1;"/></g><g class="points"/><g class="text"/></g><g class="trace scatter trace6c1653" style="stroke-miterlimit: 2;"><g class="fills"><g><path class="js-fill" d="M690.98,380L678.08,380L678.08,283.98L679.37,283.64L680.66,280.09L683.24,274.83L684.53,274.49L685.82,272.46L687.11,272.9L688.4,272.84L689.69,271.62L690.98,272" style="fill: rgb(8, 115, 191); fill-opacity: 0.4; stroke-width: 0;"/></g></g><g class="errorbars"/><g class="lines"><path class="js-line" d="M678.08,283.98L679.37,283.64L680.66,280.09L683.24,274.83L684.53,274.49L685.82,272.46L687.11,272.9L688.4,272.84L689.69,271.62L690.98,272" style="vector-effect: non-scaling-stroke; fill: none; stroke: rgb(8, 115, 191); stroke-opacity: 1; stroke-width: 2px; opacity: 1;"/></g><g class="points"/><g class="text"/></g><g class="trace scatter tracee36eff" style="stroke-miterlimit: 2; opacity: 1;"><g class="fills"/><g class="errorbars"/><g class="lines"/><g class="points"><path class="point" transform="translate(690.98,272)" d="M15,0A15,15 0 1,1 0,-15A15,15 0 0,1 15,0Z" style="opacity: 1; stroke-width: 0px; fill: rgb(8, 115, 191); fill-opacity: 1;"/></g><g class="text"/></g></g></g><g class="overplot"/><path class="xlines-above crisp" style="fill: none; stroke-width: 1px; stroke: rgb(0, 0, 0); stroke-opacity: 0;" d=""/><path class="ylines-above crisp" style="fill: none;" d="M0,0"/><g class="overlines-above"/><g class="xaxislayer-above"><path class="xtick ticks crisp" d="M0,450v-5" transform="translate(92.53999999999999,0)" style="stroke: rgb(68, 68, 68); stroke-opacity: 1; stroke-width: 1px;"/><path class="xtick ticks crisp" d="M0,450v-5" transform="translate(171.18,0)" style="stroke: rgb(68, 68, 68); stroke-opacity: 1; stroke-width: 1px;"/><path class="xtick ticks crisp" d="M0,450v-5" transform="translate(247.24,0)" style="stroke: rgb(68, 68, 68); stroke-opacity: 1; stroke-width: 1px;"/><path class="xtick ticks crisp" d="M0,450v-5" transform="translate(325.87,0)" style="stroke: rgb(68, 68, 68); stroke-opacity: 1; stroke-width: 1px;"/><path class="xtick ticks crisp" d="M0,450v-5" transform="translate(404.51,0)" style="stroke: rgb(68, 68, 68); stroke-opacity: 1; stroke-width: 1px;"/><path class="xtick ticks crisp" d="M0,450v-5" transform="translate(484.44,0)" style="stroke: rgb(68, 68, 68); stroke-opacity: 1; stroke-width: 1px;"/><path class="xtick ticks crisp" d="M0,450v-5" transform="translate(563.08,0)" style="stroke: rgb(68, 68, 68); stroke-opacity: 1; stroke-width: 1px;"/><path class="xtick ticks crisp" d="M0,450v-5" transform="translate(641.71,0)" style="stroke: rgb(68, 68, 68); stroke-opacity: 1; stroke-width: 1px;"/><path class="xtick ticks crisp" d="M0,450v-5" transform="translate(717.77,0)" style="stroke: rgb(68, 68, 68); stroke-opacity: 1; stroke-width: 1px;"/><g class="xtick"><text text-anchor="middle" x="0" y="469" transform="translate(92.53999999999999,0)" style="font-family: 'Open Sans', verdana, arial, sans-serif; font-size: 18px; fill: rgb(42, 63, 95); fill-opacity: 1; white-space: pre;">01/11</text></g><g class="xtick"><text text-anchor="middle" x="0" y="469" transform="translate(171.18,0)" style="font-family: 'Open Sans', verdana, arial, sans-serif; font-size: 18px; fill: rgb(42, 63, 95); fill-opacity: 1; white-space: pre;">01/01</text></g><g class="xtick"><text text-anchor="middle" x="0" y="469" transform="translate(247.24,0)" style="font-family: 'Open Sans', verdana, arial, sans-serif; font-size: 18px; fill: rgb(42, 63, 95); fill-opacity: 1; white-space: pre;">01/03</text></g><g class="xtick"><text text-anchor="middle" x="0" y="469" transform="translate(325.87,0)" style="font-family: 'Open Sans', verdana, arial, sans-serif; font-size: 18px; fill: rgb(42, 63, 95); fill-opacity: 1; white-space: pre;">01/05</text></g><g class="xtick"><text text-anchor="middle" x="0" y="469" transform="translate(404.51,0)" style="font-family: 'Open Sans', verdana, arial, sans-serif; font-size: 18px; fill: rgb(42, 63, 95); fill-opacity: 1; white-space: pre;">01/07</text></g><g class="xtick"><text text-anchor="middle" x="0" y="469" transform="translate(484.44,0)" style="font-family: 'Open Sans', verdana, arial, sans-serif; font-size: 18px; fill: rgb(42, 63, 95); fill-opacity: 1; white-space: pre;">01/09</text></g><g class="xtick"><text text-anchor="middle" x="0" y="469" transform="translate(563.08,0)" style="font-family: 'Open Sans', verdana, arial, sans-serif; font-size: 18px; fill: rgb(42, 63, 95); fill-opacity: 1; white-space: pre;">01/11</text></g><g class="xtick"><text text-anchor="middle" x="0" y="469" transform="translate(641.71,0)" style="font-family: 'Open Sans', verdana, arial, sans-serif; font-size: 18px; fill: rgb(42, 63, 95); fill-opacity: 1; white-space: pre;">01/01</text></g><g class="xtick"><text text-anchor="middle" x="0" y="469" transform="translate(717.77,0)" style="font-family: 'Open Sans', verdana, arial, sans-serif; font-size: 18px; fill: rgb(42, 63, 95); fill-opacity: 1; white-space: pre;">01/03</text></g></g><g class="yaxislayer-above"/><g class="overaxes-above"/></g></g><g class="polarlayer"/><g class="ternarylayer"/><g class="geolayer"/><g class="funnelarealayer"/><g class="pielayer"/><g class="treemaplayer"/><g class="sunburstlayer"/><g class="glimages"/><defs id="topdefs-270b1d"><g class="clips"/></defs><g class="layer-above"><g class="imagelayer"/><g class="shapelayer"><path data-index="0" fill-rule="evenodd" d="M-674.49,444.86L267.86,444.86" clip-path="url('#clip270b1dxy')" style="opacity: 1; stroke: rgb(255, 0, 0); stroke-opacity: 1; fill: rgb(0, 0, 0); fill-opacity: 0; stroke-dasharray: 3px, 3px; stroke-width: 1.5px;"/></g></g><g class="infolayer"><g class="g-gtitle"><text class="gtitle" x="375" y="25" text-anchor="middle" dy="0.7em" style="font-family: 'Open Sans', verdana, arial, sans-serif; font-size: 50px; fill: rgb(42, 63, 95); opacity: 1; font-weight: normal; white-space: pre;"><tspan style="font-weight:bold">Lot-et-Garonne (47)</tspan></text></g><g class="g-xtitle"/><g class="annotation" data-index="0" style="opacity: 1;"><g class="annotation-text-g" transform="rotate(0,698.98,282)"><g class="cursor-pointer" transform="translate(627, 246)"><rect class="bg" x="0.5" y="0.5" width="143" height="71" style="stroke-width: 1px; stroke: rgb(0, 0, 0); stroke-opacity: 0; fill: rgb(255, 255, 255); fill-opacity: 0.6;"/><text class="annotation-text" text-anchor="middle" x="72.078125" y="55.5" style="font-family: 'Open Sans', verdana, arial, sans-serif; font-size: 50px; fill: rgb(8, 115, 191); fill-opacity: 1; white-space: pre;"> <tspan style="font-weight:bold">1050 </tspan></text></g></g><g class="annotation-arrow-g" style="opacity: 1;"><path d="M727.38,317.5L738.98,332" style="stroke-width: 1px; stroke: rgb(8, 115, 191); stroke-opacity: 1; stroke-dasharray: 0px, 0px, 18.569px, 18.569px;"/></g></g></g></svg>