<svg class="main-svg" xmlns="http://www.w3.org/2000/svg" xmlns:xlink="http://www.w3.org/1999/xlink" width="1125" height="750" style="" viewBox="0 0 750 500"><rect x="0" y="0" width="750" height="500" style="fill: rgb(0, 0, 0); fill-opacity: 0;"/><defs id="defs-3ccdd4"><g class="clips"><clipPath id="clip3ccdd4xyplot" class="plotclip"><rect width="700" height="380"/></clipPath><clipPath class="axesclip" id="clip3ccdd4x"><rect x="50" y="0" width="700" height="500"/></clipPath><clipPath class="axesclip" id="clip3ccdd4y"><rect x="0" y="70" width="750" height="380"/></clipPath><clipPath class="axesclip" id="clip3ccdd4xy"><rect x="50" y="70" width="700" height="380"/></clipPath></g><g class="gradients"/></defs><g class="bglayer"><rect class="bg" x="50" y="70" width="700" height="380" style="fill: rgb(0, 0, 0); fill-opacity: 0; stroke-width: 0;"/></g><g class="layer-below"><g class="imagelayer"/><g class="shapelayer"/></g><g class="cartesianlayer"><g class="subplot xy"><g class="layer-subplot"><g class="shapelayer"/><g class="imagelayer"/></g><g class="gridlayer"><g class="x"><path class="xgrid crisp" transform="translate(52.19,0)" d="M0,70v380" style="stroke: rgb(255, 255, 255); stroke-opacity: 1; stroke-width: 1px;"/><path class="xgrid crisp" transform="translate(152.97,0)" d="M0,70v380" style="stroke: rgb(255, 255, 255); stroke-opacity: 1; stroke-width: 1px;"/><path class="xgrid crisp" transform="translate(251.56,0)" d="M0,70v380" style="stroke: rgb(255, 255, 255); stroke-opacity: 1; stroke-width: 1px;"/><path class="xgrid crisp" transform="translate(351.25,0)" d="M0,70v380" style="stroke: rgb(255, 255, 255); stroke-opacity: 1; stroke-width: 1px;"/><path class="xgrid crisp" transform="translate(452.03,0)" d="M0,70v380" style="stroke: rgb(255, 255, 255); stroke-opacity: 1; stroke-width: 1px;"/><path class="xgrid crisp" transform="translate(552.8199999999999,0)" d="M0,70v380" style="stroke: rgb(255, 255, 255); stroke-opacity: 1; stroke-width: 1px;"/><path class="xgrid crisp" transform="translate(651.41,0)" d="M0,70v380" style="stroke: rgb(255, 255, 255); stroke-opacity: 1; stroke-width: 1px;"/></g><g class="y"/></g><g class="zerolinelayer"/><path class="xlines-below"/><path class="ylines-below"/><g class="overlines-below"/><g class="xaxislayer-below"/><g class="yaxislayer-below"/><g class="overaxes-below"/><g class="plot" transform="translate(50, 70)" clip-path="url('#clip3ccdd4xyplot')"><g class="scatterlayer mlayer"><g class="trace scatter trace73c50d" style="stroke-miterlimit: 2;"><g class="fills"><g><path class="js-fill" d="M681.38,380L-148.98,380L-148.98,379.58L-36.15,379.25L-35.05,378.83L-28.48,377.08L-27.39,376.91L-25.2,377.08L-24.1,376.16L-19.72,376.82L-18.62,376.57L-15.34,376.66L-14.24,376.66L-12.05,376.49L-10.95,375.99L-8.76,375.99L-7.67,375.91L-5.48,375.4L-4.38,375.32L0,374.23L1.1,373.07L2.19,372.56L3.29,370.06L4.38,369.89L5.48,368.64L7.67,364.88L8.76,364.63L9.86,364.96L10.95,364.29L12.05,364.04L13.15,364.71L14.24,366.55L15.34,366.13L17.53,365.13L18.62,365.38L24.1,348.92L25.2,348.92L26.29,344.41L27.39,343.57L29.58,339.31L30.67,339.98L31.77,341.15L32.86,341.06L33.96,341.48L35.05,340.56L37.25,341.73L38.34,342.9L39.44,344.57L40.53,344.66L42.72,348.17L43.82,352.01L46.01,356.27L47.1,356.94L48.2,356.61L49.3,353.93L50.39,356.19L51.49,356.27L54.77,361.79L55.87,362.2L56.96,367.8L58.06,366.8L61.35,368.47L62.44,368.39L63.54,368.39L64.63,369.89L67.92,370.73L69.01,369.72L71.21,369.97L72.3,368.22L74.49,368.89L75.59,367.88L77.78,366.46L78.87,365.21L82.16,359.53L83.26,358.94L85.45,355.69L86.54,355.77L89.83,359.28L90.92,358.78L93.11,365.04L94.21,365.96L95.31,367.05L96.4,366.72L97.5,365.63L98.59,367.63L105.16,367.3L106.26,364.38L107.36,362.79L108.45,363.62L109.55,363.29L110.64,362.12L111.74,362.2L112.83,363.54L113.93,365.04L115.02,365.13L117.21,364.04L118.31,364.63L119.41,364.12L120.5,361.95L123.79,360.11L124.88,360.2L125.98,357.69L127.07,357.11L128.17,356.1L129.26,356.44L131.46,355.02L132.55,355.35L133.65,357.11L134.74,356.69L135.84,359.78L136.93,360.45L138.03,359.11L139.12,361.12L141.31,361.79L142.41,362.96L143.51,364.21L144.6,364.29L145.7,365.46L146.79,364.46L147.89,364.12L148.98,365.8L151.17,364.79L152.27,365.21L156.65,366.72L157.75,367.88L161.03,370.31L162.13,370.64L163.22,370.47L164.32,371.48L167.61,371.98L168.7,372.06L170.89,371.23L171.99,371.06L174.18,369.89L175.27,369.05L178.56,368.97L179.66,368.39L181.85,368.97L182.94,368.64L185.13,369.22L186.23,368.97L188.42,368.39L189.51,367.47L190.61,366.46L191.71,363.96L192.8,362.37L193.9,362.54L194.99,362.29L196.09,360.28L197.18,358.69L198.28,358.44L200.47,360.28L201.56,359.78L202.66,361.95L203.76,360.45L205.95,358.78L207.04,358.19L209.23,357.94L210.33,354.1L212.52,355.69L213.62,356.52L214.71,357.19L215.81,356.61L218,356.61L219.09,358.19L221.28,359.45L222.38,357.94L224.57,359.03L225.67,361.53L230.05,363.12L231.14,364.96L232.24,365.13L233.33,363.71L234.43,363.04L235.52,363.87L236.62,364.79L237.72,366.8L239.91,366.8L241,368.47L243.19,370.98L244.29,372.73L246.48,373.07L247.57,373.07L250.86,373.98L251.96,372.98L255.24,373.15L256.34,373.98L257.43,373.98L258.53,373.15L260.72,373.4L261.82,373.32L264.01,372.9L265.1,373.98L268.39,376.49L269.48,375.99L276.06,376.82L277.15,377.66L285.92,378.5L287.01,379.16L292.49,379.75L293.58,379.75L305.63,379.16L306.73,378.91L314.4,378.58L315.49,377.49L318.78,376.99L319.87,376.24L322.07,374.32L323.16,375.07L325.35,375.49L326.45,374.57L327.54,373.98L328.64,374.49L330.83,374.23L331.92,373.98L333.02,372.9L334.12,372.9L336.31,372.15L337.4,371.48L340.69,370.98L341.78,369.64L343.97,366.13L345.07,365.71L347.26,364.71L348.36,364.21L349.45,364.29L350.55,365.55L352.74,367.97L353.83,368.64L354.93,368.55L356.03,369.72L357.12,369.72L358.22,370.56L360.41,370.47L361.5,370.98L363.69,371.14L364.79,372.9L369.17,374.82L370.27,375.15L375.74,373.57L376.84,374.15L377.93,373.98L379.03,375.32L385.6,378.08L386.7,377.91L388.89,377.83L389.98,377.74L393.27,377.91L394.37,376.99L395.46,375.57L396.56,375.74L400.94,376.07L402.03,376.91L404.23,378.41L405.32,378.91L416.28,378.33L417.37,379.08L420.66,379.67L421.75,379.33L431.61,377.08L432.71,377.66L435.99,376.32L437.09,376.07L439.28,375.32L440.38,373.32L442.57,370.81L443.66,370.98L444.76,369.56L445.85,370.06L448.04,369.64L449.14,370.39L450.23,371.06L451.33,369.39L452.43,369.89L453.52,367.63L454.62,367.47L455.71,365.55L460.09,356.69L461.19,356.69L464.48,357.94L465.57,357.44L466.67,357.11L467.76,355.52L471.05,355.44L472.14,353.35L473.24,352.51L474.33,353.76L476.53,356.77L477.62,356.77L478.72,354.01L479.81,354.1L480.91,355.1L482,353.76L485.29,350.76L486.38,350.34L487.48,347.83L488.58,340.81L490.77,322.52L491.86,325.02L492.96,322.52L494.05,308.31L497.34,264.86L498.44,250.41L499.53,249.74L500.63,247.74L502.82,215.23L503.91,209.38L506.1,207.46L507.2,185.66L508.29,187.41L509.39,200.95L510.49,195.51L511.58,195.1L514.87,182.06L515.96,178.89L517.06,157L518.15,154.74L520.34,131.93L521.44,122.82L524.73,87.31L525.82,63.17L529.11,6.27L530.2,0L532.39,3.43L533.49,9.27L535.68,38.02L536.78,49.38L537.87,60.66L538.97,60.16L542.25,98.84L543.35,118.65L545.54,150.31L546.64,154.82L549.92,219.24L551.02,228.1L553.21,245.73L554.3,247.57L556.49,263.69L557.59,266.62L558.69,271.38L559.78,272.63L560.88,274.97L561.97,273.64L563.07,279.65L564.16,280.4L566.35,287.42L567.45,289.34L569.64,292.1L570.74,288.84L571.83,290.93L572.93,286L577.31,270.04L578.4,260.18L582.79,213.48L583.88,209.47L584.98,210.22L586.07,195.77L588.26,186.91L589.36,185.57L590.45,182.73L591.55,183.32L592.64,181.9L593.74,184.65L594.84,180.64L595.93,183.65L600.31,199.44L601.41,201.7L602.5,200.86L603.6,196.1L606.89,174.63L607.98,172.2L609.08,170.03L610.17,171.53L611.27,172.7L612.36,178.14L614.55,194.93L615.65,196.18L616.74,235.12L617.84,234.53L621.13,260.94L622.22,266.45L623.32,267.45L624.41,251.75L626.6,279.74L627.7,288.09L629.89,296.86L630.99,298.62L633.18,307.56L634.27,313.66L637.56,327.03L638.65,326.78L639.75,336.39L640.85,339.14L643.04,343.4L644.13,345.41L646.32,348.75L647.42,349.5L650.7,358.28L651.8,359.28L653.99,358.61L655.09,361.37L658.37,365.21L659.47,365.46L661.66,366.46L662.75,365.21L667.14,360.62L668.23,360.87L669.33,360.53L670.42,364.46L671.52,360.62L672.61,360.2L673.71,360.36L674.8,358.28L675.9,355.6L677,355.94L678.09,348.08L679.19,349L681.38,340.81" style="fill: rgb(8, 115, 191); fill-opacity: 0.2; stroke-width: 0;"/></g></g><g class="errorbars"/><g class="lines"><path class="js-line" d="M-148.98,379.58L-36.15,379.25L-35.05,378.83L-28.48,377.08L-27.39,376.91L-25.2,377.08L-24.1,376.16L-19.72,376.82L-18.62,376.57L-15.34,376.66L-14.24,376.66L-12.05,376.49L-10.95,375.99L-8.76,375.99L-7.67,375.91L-5.48,375.4L-4.38,375.32L0,374.23L1.1,373.07L2.19,372.56L3.29,370.06L4.38,369.89L5.48,368.64L7.67,364.88L8.76,364.63L9.86,364.96L10.95,364.29L12.05,364.04L13.15,364.71L14.24,366.55L15.34,366.13L17.53,365.13L18.62,365.38L24.1,348.92L25.2,348.92L26.29,344.41L27.39,343.57L29.58,339.31L30.67,339.98L31.77,341.15L32.86,341.06L33.96,341.48L35.05,340.56L37.25,341.73L38.34,342.9L39.44,344.57L40.53,344.66L42.72,348.17L43.82,352.01L46.01,356.27L47.1,356.94L48.2,356.61L49.3,353.93L50.39,356.19L51.49,356.27L54.77,361.79L55.87,362.2L56.96,367.8L58.06,366.8L61.35,368.47L62.44,368.39L63.54,368.39L64.63,369.89L67.92,370.73L69.01,369.72L71.21,369.97L72.3,368.22L74.49,368.89L75.59,367.88L77.78,366.46L78.87,365.21L82.16,359.53L83.26,358.94L85.45,355.69L86.54,355.77L89.83,359.28L90.92,358.78L93.11,365.04L94.21,365.96L95.31,367.05L96.4,366.72L97.5,365.63L98.59,367.63L105.16,367.3L106.26,364.38L107.36,362.79L108.45,363.62L109.55,363.29L110.64,362.12L111.74,362.2L112.83,363.54L113.93,365.04L115.02,365.13L117.21,364.04L118.31,364.63L119.41,364.12L120.5,361.95L123.79,360.11L124.88,360.2L125.98,357.69L127.07,357.11L128.17,356.1L129.26,356.44L131.46,355.02L132.55,355.35L133.65,357.11L134.74,356.69L135.84,359.78L136.93,360.45L138.03,359.11L139.12,361.12L141.31,361.79L142.41,362.96L143.51,364.21L144.6,364.29L145.7,365.46L146.79,364.46L147.89,364.12L148.98,365.8L151.17,364.79L152.27,365.21L156.65,366.72L157.75,367.88L161.03,370.31L162.13,370.64L163.22,370.47L164.32,371.48L167.61,371.98L168.7,372.06L170.89,371.23L171.99,371.06L174.18,369.89L175.27,369.05L178.56,368.97L179.66,368.39L181.85,368.97L182.94,368.64L185.13,369.22L186.23,368.97L188.42,368.39L189.51,367.47L190.61,366.46L191.71,363.96L192.8,362.37L193.9,362.54L194.99,362.29L196.09,360.28L197.18,358.69L198.28,358.44L200.47,360.28L201.56,359.78L202.66,361.95L203.76,360.45L205.95,358.78L207.04,358.19L209.23,357.94L210.33,354.1L212.52,355.69L213.62,356.52L214.71,357.19L215.81,356.61L218,356.61L219.09,358.19L221.28,359.45L222.38,357.94L224.57,359.03L225.67,361.53L230.05,363.12L231.14,364.96L232.24,365.13L233.33,363.71L234.43,363.04L235.52,363.87L236.62,364.79L237.72,366.8L239.91,366.8L241,368.47L243.19,370.98L244.29,372.73L246.48,373.07L247.57,373.07L250.86,373.98L251.96,372.98L255.24,373.15L256.34,373.98L257.43,373.98L258.53,373.15L260.72,373.4L261.82,373.32L264.01,372.9L265.1,373.98L268.39,376.49L269.48,375.99L276.06,376.82L277.15,377.66L285.92,378.5L287.01,379.16L292.49,379.75L293.58,379.75L305.63,379.16L306.73,378.91L314.4,378.58L315.49,377.49L318.78,376.99L319.87,376.24L322.07,374.32L323.16,375.07L325.35,375.49L326.45,374.57L327.54,373.98L328.64,374.49L330.83,374.23L331.92,373.98L333.02,372.9L334.12,372.9L336.31,372.15L337.4,371.48L340.69,370.98L341.78,369.64L343.97,366.13L345.07,365.71L347.26,364.71L348.36,364.21L349.45,364.29L350.55,365.55L352.74,367.97L353.83,368.64L354.93,368.55L356.03,369.72L357.12,369.72L358.22,370.56L360.41,370.47L361.5,370.98L363.69,371.14L364.79,372.9L369.17,374.82L370.27,375.15L375.74,373.57L376.84,374.15L377.93,373.98L379.03,375.32L385.6,378.08L386.7,377.91L388.89,377.83L389.98,377.74L393.27,377.91L394.37,376.99L395.46,375.57L396.56,375.74L400.94,376.07L402.03,376.91L404.23,378.41L405.32,378.91L416.28,378.33L417.37,379.08L420.66,379.67L421.75,379.33L431.61,377.08L432.71,377.66L435.99,376.32L437.09,376.07L439.28,375.32L440.38,373.32L442.57,370.81L443.66,370.98L444.76,369.56L445.85,370.06L448.04,369.64L449.14,370.39L450.23,371.06L451.33,369.39L452.43,369.89L453.52,367.63L454.62,367.47L455.71,365.55L460.09,356.69L461.19,356.69L464.48,357.94L465.57,357.44L466.67,357.11L467.76,355.52L471.05,355.44L472.14,353.35L473.24,352.51L474.33,353.76L476.53,356.77L477.62,356.77L478.72,354.01L479.81,354.1L480.91,355.1L482,353.76L485.29,350.76L486.38,350.34L487.48,347.83L488.58,340.81L490.77,322.52L491.86,325.02L492.96,322.52L494.05,308.31L497.34,264.86L498.44,250.41L499.53,249.74L500.63,247.74L502.82,215.23L503.91,209.38L506.1,207.46L507.2,185.66L508.29,187.41L509.39,200.95L510.49,195.51L511.58,195.1L514.87,182.06L515.96,178.89L517.06,157L518.15,154.74L520.34,131.93L521.44,122.82L524.73,87.31L525.82,63.17L529.11,6.27L530.2,0L532.39,3.43L533.49,9.27L535.68,38.02L536.78,49.38L537.87,60.66L538.97,60.16L542.25,98.84L543.35,118.65L545.54,150.31L546.64,154.82L549.92,219.24L551.02,228.1L553.21,245.73L554.3,247.57L556.49,263.69L557.59,266.62L558.69,271.38L559.78,272.63L560.88,274.97L561.97,273.64L563.07,279.65L564.16,280.4L566.35,287.42L567.45,289.34L569.64,292.1L570.74,288.84L571.83,290.93L572.93,286L577.31,270.04L578.4,260.18L582.79,213.48L583.88,209.47L584.98,210.22L586.07,195.77L588.26,186.91L589.36,185.57L590.45,182.73L591.55,183.32L592.64,181.9L593.74,184.65L594.84,180.64L595.93,183.65L600.31,199.44L601.41,201.7L602.5,200.86L603.6,196.1L606.89,174.63L607.98,172.2L609.08,170.03L610.17,171.53L611.27,172.7L612.36,178.14L614.55,194.93L615.65,196.18L616.74,235.12L617.84,234.53L621.13,260.94L622.22,266.45L623.32,267.45L624.41,251.75L626.6,279.74L627.7,288.09L629.89,296.86L630.99,298.62L633.18,307.56L634.27,313.66L637.56,327.03L638.65,326.78L639.75,336.39L640.85,339.14L643.04,343.4L644.13,345.41L646.32,348.75L647.42,349.5L650.7,358.28L651.8,359.28L653.99,358.61L655.09,361.37L658.37,365.21L659.47,365.46L661.66,366.46L662.75,365.21L667.14,360.62L668.23,360.87L669.33,360.53L670.42,364.46L671.52,360.62L672.61,360.2L673.71,360.36L674.8,358.28L675.9,355.6L677,355.94L678.09,348.08L679.19,349L681.38,340.81" style="vector-effect: non-scaling-stroke; fill: none; stroke: rgb(8, 115, 191); stroke-opacity: 1; stroke-width: 0.5px; opacity: 1;"/></g><g class="points"/><g class="text"/></g><g class="trace scatter traceb7c851" style="stroke-miterlimit: 2;"><g class="fills"><g><path class="js-fill" d="M692.33,380L681.38,380L681.38,340.81L683.57,337.81L684.66,337.72L690.14,328.95L691.24,328.61L692.33,328.78" style="fill: rgb(8, 115, 191); fill-opacity: 0.4; stroke-width: 0;"/></g></g><g class="errorbars"/><g class="lines"><path class="js-line" d="M681.38,340.81L683.57,337.81L684.66,337.72L690.14,328.95L691.24,328.61L692.33,328.78" style="vector-effect: non-scaling-stroke; fill: none; stroke: rgb(8, 115, 191); stroke-opacity: 1; stroke-width: 2px; opacity: 1;"/></g><g class="points"/><g class="text"/></g><g class="trace scatter trace762dc5" style="stroke-miterlimit: 2; opacity: 1;"><g class="fills"/><g class="errorbars"/><g class="lines"/><g class="points"><path class="point" transform="translate(692.33,328.78)" d="M15,0A15,15 0 1,1 0,-15A15,15 0 0,1 15,0Z" style="opacity: 1; stroke-width: 0px; fill: rgb(8, 115, 191); fill-opacity: 1;"/></g><g class="text"/></g></g></g><g class="overplot"/><path class="xlines-above crisp" style="fill: none; stroke-width: 1px; stroke: rgb(0, 0, 0); stroke-opacity: 0;" d=""/><path class="ylines-above crisp" style="fill: none;" d="M0,0"/><g class="overlines-above"/><g class="xaxislayer-above"><path class="xtick ticks crisp" d="M0,450v-5" transform="translate(52.19,0)" style="stroke: rgb(68, 68, 68); stroke-opacity: 1; stroke-width: 1px;"/><path class="xtick ticks crisp" d="M0,450v-5" transform="translate(152.97,0)" style="stroke: rgb(68, 68, 68); stroke-opacity: 1; stroke-width: 1px;"/><path class="xtick ticks crisp" d="M0,450v-5" transform="translate(251.56,0)" style="stroke: rgb(68, 68, 68); stroke-opacity: 1; stroke-width: 1px;"/><path class="xtick ticks crisp" d="M0,450v-5" transform="translate(351.25,0)" style="stroke: rgb(68, 68, 68); stroke-opacity: 1; stroke-width: 1px;"/><path class="xtick ticks crisp" d="M0,450v-5" transform="translate(452.03,0)" style="stroke: rgb(68, 68, 68); stroke-opacity: 1; stroke-width: 1px;"/><path class="xtick ticks crisp" d="M0,450v-5" transform="translate(552.8199999999999,0)" style="stroke: rgb(68, 68, 68); stroke-opacity: 1; stroke-width: 1px;"/><path class="xtick ticks crisp" d="M0,450v-5" transform="translate(651.41,0)" style="stroke: rgb(68, 68, 68); stroke-opacity: 1; stroke-width: 1px;"/><g class="xtick"><text text-anchor="middle" x="0" y="469" transform="translate(52.19,0)" style="font-family: 'Open Sans', verdana, arial, sans-serif; font-size: 18px; fill: rgb(42, 63, 95); fill-opacity: 1; white-space: pre;">01/10</text></g><g class="xtick"><text text-anchor="middle" x="0" y="469" transform="translate(152.97,0)" style="font-family: 'Open Sans', verdana, arial, sans-serif; font-size: 18px; fill: rgb(42, 63, 95); fill-opacity: 1; white-space: pre;">01/01</text></g><g class="xtick"><text text-anchor="middle" x="0" y="469" transform="translate(251.56,0)" style="font-family: 'Open Sans', verdana, arial, sans-serif; font-size: 18px; fill: rgb(42, 63, 95); fill-opacity: 1; white-space: pre;">01/04</text></g><g class="xtick"><text text-anchor="middle" x="0" y="469" transform="translate(351.25,0)" style="font-family: 'Open Sans', verdana, arial, sans-serif; font-size: 18px; fill: rgb(42, 63, 95); fill-opacity: 1; white-space: pre;">01/07</text></g><g class="xtick"><text text-anchor="middle" x="0" y="469" transform="translate(452.03,0)" style="font-family: 'Open Sans', verdana, arial, sans-serif; font-size: 18px; fill: rgb(42, 63, 95); fill-opacity: 1; white-space: pre;">01/10</text></g><g class="xtick"><text text-anchor="middle" x="0" y="469" transform="translate(552.8199999999999,0)" style="font-family: 'Open Sans', verdana, arial, sans-serif; font-size: 18px; fill: rgb(42, 63, 95); fill-opacity: 1; white-space: pre;">01/01</text></g><g class="xtick"><text text-anchor="middle" x="0" y="469" transform="translate(651.41,0)" style="font-family: 'Open Sans', verdana, arial, sans-serif; font-size: 18px; fill: rgb(42, 63, 95); fill-opacity: 1; white-space: pre;">01/04</text></g></g><g class="yaxislayer-above"/><g class="overaxes-above"/></g></g><g class="polarlayer"/><g class="ternarylayer"/><g class="geolayer"/><g class="funnelarealayer"/><g class="pielayer"/><g class="treemaplayer"/><g class="sunburstlayer"/><g class="glimages"/><defs id="topdefs-3ccdd4"><g class="clips"/></defs><g class="layer-above"><g class="imagelayer"/><g class="shapelayer"><path data-index="0" fill-rule="evenodd" d="M-565.65,444.03L235.13,444.03" clip-path="url('#clip3ccdd4xy')" style="opacity: 1; stroke: rgb(255, 0, 0); stroke-opacity: 1; fill: rgb(0, 0, 0); fill-opacity: 0; stroke-dasharray: 3px, 3px; stroke-width: 1.5px;"/></g></g><g class="infolayer"><g class="g-gtitle"><text class="gtitle" x="375" y="25" text-anchor="middle" dy="0.7em" style="font-family: 'Open Sans', verdana, arial, sans-serif; font-size: 50px; fill: rgb(42, 63, 95); opacity: 1; font-weight: normal; white-space: pre;"><tspan style="font-weight:bold">Cantal (15)</tspan></text></g><g class="g-xtitle"/><g class="annotation" data-index="0" style="opacity: 1;"><g class="annotation-text-g" transform="rotate(0,700.33,338.78)"><g class="cursor-pointer" transform="translate(642, 303)"><rect class="bg" x="0.5" y="0.5" width="115" height="71" style="stroke-width: 1px; stroke: rgb(0, 0, 0); stroke-opacity: 0; fill: rgb(255, 255, 255); fill-opacity: 0.6;"/><text class="annotation-text" text-anchor="middle" x="57.8125" y="55.5" style="font-family: 'Open Sans', verdana, arial, sans-serif; font-size: 50px; fill: rgb(8, 115, 191); fill-opacity: 1; white-space: pre;"> <tspan style="font-weight:bold">429 </tspan></text></g></g><g class="annotation-arrow-g" style="opacity: 1;"><path d="M728.73,374.28L740.33,388.78" style="stroke-width: 1px; stroke: rgb(8, 115, 191); stroke-opacity: 1; stroke-dasharray: 0px, 0px, 18.5691px, 18.5691px;"/></g></g></g></svg>