<svg class="main-svg" xmlns="http://www.w3.org/2000/svg" xmlns:xlink="http://www.w3.org/1999/xlink" width="1125" height="750" style="" viewBox="0 0 750 500"><rect x="0" y="0" width="750" height="500" style="fill: rgb(0, 0, 0); fill-opacity: 0;"/><defs id="defs-e9f6fd"><g class="clips"><clipPath id="clipe9f6fdxyplot" class="plotclip"><rect width="700" height="380"/></clipPath><clipPath class="axesclip" id="clipe9f6fdx"><rect x="50" y="0" width="700" height="500"/></clipPath><clipPath class="axesclip" id="clipe9f6fdy"><rect x="0" y="70" width="750" height="380"/></clipPath><clipPath class="axesclip" id="clipe9f6fdxy"><rect x="50" y="70" width="700" height="380"/></clipPath></g><g class="gradients"/></defs><g class="bglayer"><rect class="bg" x="50" y="70" width="700" height="380" style="fill: rgb(0, 0, 0); fill-opacity: 0; stroke-width: 0;"/></g><g class="layer-below"><g class="imagelayer"/><g class="shapelayer"/></g><g class="cartesianlayer"><g class="subplot xy"><g class="layer-subplot"><g class="shapelayer"/><g class="imagelayer"/></g><g class="gridlayer"><g class="x"><path class="xgrid crisp" transform="translate(52.25,0)" d="M0,70v380" style="stroke: rgb(255, 255, 255); stroke-opacity: 1; stroke-width: 1px;"/><path class="xgrid crisp" transform="translate(155.62,0)" d="M0,70v380" style="stroke: rgb(255, 255, 255); stroke-opacity: 1; stroke-width: 1px;"/><path class="xgrid crisp" transform="translate(256.74,0)" d="M0,70v380" style="stroke: rgb(255, 255, 255); stroke-opacity: 1; stroke-width: 1px;"/><path class="xgrid crisp" transform="translate(358.99,0)" d="M0,70v380" style="stroke: rgb(255, 255, 255); stroke-opacity: 1; stroke-width: 1px;"/><path class="xgrid crisp" transform="translate(462.36,0)" d="M0,70v380" style="stroke: rgb(255, 255, 255); stroke-opacity: 1; stroke-width: 1px;"/><path class="xgrid crisp" transform="translate(565.73,0)" d="M0,70v380" style="stroke: rgb(255, 255, 255); stroke-opacity: 1; stroke-width: 1px;"/><path class="xgrid crisp" transform="translate(666.85,0)" d="M0,70v380" style="stroke: rgb(255, 255, 255); stroke-opacity: 1; stroke-width: 1px;"/></g><g class="y"/></g><g class="zerolinelayer"/><path class="xlines-below"/><path class="ylines-below"/><g class="overlines-below"/><g class="xaxislayer-below"/><g class="yaxislayer-below"/><g class="overaxes-below"/><g class="plot" transform="translate(50, 70)" clip-path="url('#clipe9f6fdxyplot')"><g class="scatterlayer mlayer"><g class="trace scatter traceda7d0e" style="stroke-miterlimit: 2;"><g class="fills"><g><path class="js-fill" d="M680.9,380L-152.81,380L-152.81,379.42L-119.1,379.61L-117.98,379.55L-46.07,378.78L-44.94,378.52L-38.2,378.01L-37.08,378.2L-33.71,377.49L-32.58,377.23L-28.09,375.69L-26.97,374.14L-21.35,372.86L-20.22,374.14L-15.73,376.78L-14.61,376.98L-7.87,377.36L-6.74,377.36L-4.49,377.1L-3.37,376.78L2.25,375.43L3.37,374.14L5.62,372.79L6.74,370.93L8.99,369.38L10.11,369.32L11.24,369.32L12.36,367.77L14.61,368.09L15.73,366.68L17.98,366.74L19.1,362.88L21.35,357.67L22.47,353.87L24.72,348.02L25.84,347.31L29.21,335.34L30.34,333.22L32.58,326.65L33.71,326.78L34.83,324.14L35.96,319.51L37.08,316.87L38.2,316.36L39.33,316.36L40.45,319.7L42.7,320.09L43.82,324.08L44.94,334.12L46.07,331.86L47.19,332.83L48.31,332.64L49.44,332.57L50.56,337.85L51.69,343.9L52.81,341.97L55.06,354.71L56.18,356.45L57.3,356.64L58.43,360.05L59.55,359.34L60.67,359.79L64.04,364.3L65.17,364.17L67.42,365.71L68.54,364.17L71.91,361.02L73.03,361.08L74.16,358.83L75.28,358.57L76.4,357.73L77.53,355.48L79.78,352.97L80.9,352.97L83.15,349.75L84.27,347.05L85.39,344.93L86.52,344.73L87.64,343.25L88.76,343.13L92.13,345.64L93.26,348.72L94.38,353.74L95.51,353.94L97.75,354.07L98.88,351.3L101.12,352.26L102.25,352.26L105.62,348.34L106.74,346.86L107.87,347.82L108.99,347.5L110.11,342.61L111.24,344.41L112.36,344.41L113.48,346.67L115.73,353.23L116.85,353.17L119.1,355.03L120.22,355.03L123.6,352.07L124.72,352.39L126.97,352.2L128.09,352.59L129.21,355.35L130.34,354.45L134.83,357.61L135.96,357.35L137.08,357.22L138.2,360.69L141.57,363.27L142.7,362.88L143.82,363.01L144.94,364.36L147.19,364.62L148.31,365.07L150.56,364.56L151.69,364.62L153.93,364.3L155.06,362.95L156.18,361.72L157.3,362.37L159.55,363.08L160.67,363.53L161.8,364.17L162.92,367.13L165.17,369.32L166.29,369.32L168.54,369.38L169.66,368.48L171.91,366.94L173.03,366.49L175.28,365.91L176.4,366.68L179.78,364.88L180.9,364.81L183.15,363.4L184.27,361.6L185.39,362.37L186.52,361.6L187.64,360.95L188.76,359.28L189.89,358.89L191.01,359.41L193.26,353.74L194.38,353.1L196.63,349.69L197.75,347.18L200,345.89L201.12,345.19L202.25,342.23L203.37,343.19L205.62,344.61L206.74,345.12L207.87,351.88L208.99,348.72L210.11,349.63L211.24,348.34L212.36,348.15L213.48,347.05L214.61,346.34L215.73,338.75L216.85,343.32L217.98,344.67L220.22,344.54L221.35,346.34L222.47,346.34L223.6,347.5L224.72,346.28L225.84,343.51L228.09,341.71L229.21,342.16L232.58,342.8L233.71,344.86L237.08,351.56L238.2,351.62L240.45,354.77L241.57,357.93L242.7,358.7L243.82,361.27L246.07,361.4L247.19,362.75L248.31,363.4L249.44,362.62L250.56,365.91L251.69,366.16L252.81,364.62L253.93,364.49L255.06,365.91L256.18,365.84L257.3,366.55L258.43,364.49L261.8,365.97L262.92,368.8L267.42,371.83L268.54,372.15L269.66,372.34L270.79,371.51L273.03,373.5L274.16,374.02L278.65,374.47L279.78,375.11L283.15,377.17L284.27,378.2L289.89,378.78L291.01,378.26L296.63,378.71L297.75,379.03L300,379.49L301.12,379.55L306.74,379.1L307.87,379.23L313.48,378.58L314.61,378.39L317.98,378.52L319.1,378.65L321.35,378.58L322.47,378.33L328.09,376.52L329.21,376.65L331.46,376.01L332.58,376.01L339.33,374.85L340.45,374.98L343.82,374.02L344.94,373.76L348.31,372.73L349.44,371.51L351.69,369.77L352.81,367.77L355.06,367.84L356.18,368.09L358.43,368.16L359.55,369.19L360.67,370.6L361.8,370.22L364.04,369.45L365.17,369L371.91,366.94L373.03,368.29L377.53,372.99L378.65,373.05L379.78,372.99L380.9,371.83L382.02,371.51L383.15,372.21L385.39,370.99L386.52,372.15L387.64,372.28L388.76,373.82L391.01,373.56L392.13,374.53L393.26,375.17L394.38,374.92L397.75,375.75L398.88,376.2L402.25,377.43L403.37,377.36L404.49,376.91L405.62,377.43L411.24,375.95L412.36,376.4L419.1,376.4L420.22,375.82L423.6,374.59L424.72,374.53L431.46,375.56L432.58,376.2L438.2,376.27L439.33,375.69L442.7,374.72L443.82,375.37L448.31,373.69L449.44,373.05L450.56,373.11L451.69,371.57L453.93,370.09L455.06,370.99L456.18,370.15L457.3,370.48L458.43,369.96L459.55,368.55L461.8,366.87L462.92,364.23L465.17,363.27L466.29,363.65L468.54,361.08L469.66,361.6L471.91,362.24L473.03,360.63L474.16,360.76L475.28,359.86L480.9,350.33L482.02,350.08L483.15,346.86L484.27,346.34L486.52,344.03L487.64,342.23L491.01,343.96L492.13,343.51L494.38,341.9L495.51,343L496.63,341.77L497.75,341.84L498.88,340.23L500,340.23L503.37,338.49L504.49,342.55L505.62,341.71L506.74,333.09L510.11,303.03L511.24,289.78L512.36,289.52L513.48,288.23L515.73,241.26L516.85,228.97L519.1,216.42L520.22,201.29L521.35,200.2L522.47,204.38L523.6,209.21L524.72,205.41L525.84,202.19L526.97,193.06L528.09,180.51L529.21,177.42L534.83,76.32L535.96,62.49L537.08,58.37L538.2,37.58L542.7,0L543.82,4.96L546.07,5.86L547.19,18.86L551.69,89.58L552.81,94.53L555.06,154.32L556.18,173.62L559.55,220.21L560.67,222.92L562.92,252.52L564.04,263.07L566.29,280.7L567.42,285.47L568.54,286.24L569.66,293.51L570.79,299.3L571.91,300.52L573.03,302.46L574.16,307.28L575.28,310.05L576.4,310.69L579.78,315.97L580.9,315.78L582.02,315.07L583.15,312.88L584.27,313.59L585.39,313.27L591.01,288.43L592.13,286.5L593.26,275.75L594.38,274.85L596.63,265.26L597.75,263.07L598.88,260.24L600,261.14L605.62,229.09L606.74,227.1L607.87,227.16L608.99,223.04L611.24,218.73L612.36,218.93L614.61,226.52L615.73,226.33L619.1,230.7L620.22,229.93L622.47,227.23L623.6,227.23L624.72,235.27L625.84,236.56L629.21,247.05L630.34,250.07L631.46,250.33L632.58,278.9L633.71,277.55L634.83,284.31L637.08,296.47L638.2,299.82L639.33,299.56L640.45,281.03L641.57,296.41L642.7,300.78L646.07,311.53L647.19,312.62L649.44,321.5L650.56,322.02L652.81,326.91L653.93,328.9L655.06,329.29L656.18,332.77L657.3,333.41L658.43,337.33L660.67,342.42L661.8,343.71L662.92,343.96L664.04,349.3L666.29,353.81L667.42,355.29L669.66,359.21L670.79,359.02L674.16,363.91L675.28,366.29L677.53,366.55L678.65,367L680.9,367.52" style="fill: rgb(8, 115, 191); fill-opacity: 0.2; stroke-width: 0;"/></g></g><g class="errorbars"/><g class="lines"><path class="js-line" d="M-152.81,379.42L-119.1,379.61L-117.98,379.55L-46.07,378.78L-44.94,378.52L-38.2,378.01L-37.08,378.2L-33.71,377.49L-32.58,377.23L-28.09,375.69L-26.97,374.14L-21.35,372.86L-20.22,374.14L-15.73,376.78L-14.61,376.98L-7.87,377.36L-6.74,377.36L-4.49,377.1L-3.37,376.78L2.25,375.43L3.37,374.14L5.62,372.79L6.74,370.93L8.99,369.38L10.11,369.32L11.24,369.32L12.36,367.77L14.61,368.09L15.73,366.68L17.98,366.74L19.1,362.88L21.35,357.67L22.47,353.87L24.72,348.02L25.84,347.31L29.21,335.34L30.34,333.22L32.58,326.65L33.71,326.78L34.83,324.14L35.96,319.51L37.08,316.87L38.2,316.36L39.33,316.36L40.45,319.7L42.7,320.09L43.82,324.08L44.94,334.12L46.07,331.86L47.19,332.83L48.31,332.64L49.44,332.57L50.56,337.85L51.69,343.9L52.81,341.97L55.06,354.71L56.18,356.45L57.3,356.64L58.43,360.05L59.55,359.34L60.67,359.79L64.04,364.3L65.17,364.17L67.42,365.71L68.54,364.17L71.91,361.02L73.03,361.08L74.16,358.83L75.28,358.57L76.4,357.73L77.53,355.48L79.78,352.97L80.9,352.97L83.15,349.75L84.27,347.05L85.39,344.93L86.52,344.73L87.64,343.25L88.76,343.13L92.13,345.64L93.26,348.72L94.38,353.74L95.51,353.94L97.75,354.07L98.88,351.3L101.12,352.26L102.25,352.26L105.62,348.34L106.74,346.86L107.87,347.82L108.99,347.5L110.11,342.61L111.24,344.41L112.36,344.41L113.48,346.67L115.73,353.23L116.85,353.17L119.1,355.03L120.22,355.03L123.6,352.07L124.72,352.39L126.97,352.2L128.09,352.59L129.21,355.35L130.34,354.45L134.83,357.61L135.96,357.35L137.08,357.22L138.2,360.69L141.57,363.27L142.7,362.88L143.82,363.01L144.94,364.36L147.19,364.62L148.31,365.07L150.56,364.56L151.69,364.62L153.93,364.3L155.06,362.95L156.18,361.72L157.3,362.37L159.55,363.08L160.67,363.53L161.8,364.17L162.92,367.13L165.17,369.32L166.29,369.32L168.54,369.38L169.66,368.48L171.91,366.94L173.03,366.49L175.28,365.91L176.4,366.68L179.78,364.88L180.9,364.81L183.15,363.4L184.27,361.6L185.39,362.37L186.52,361.6L187.64,360.95L188.76,359.28L189.89,358.89L191.01,359.41L193.26,353.74L194.38,353.1L196.63,349.69L197.75,347.18L200,345.89L201.12,345.19L202.25,342.23L203.37,343.19L205.62,344.61L206.74,345.12L207.87,351.88L208.99,348.72L210.11,349.63L211.24,348.34L212.36,348.15L213.48,347.05L214.61,346.34L215.73,338.75L216.85,343.32L217.98,344.67L220.22,344.54L221.35,346.34L222.47,346.34L223.6,347.5L224.72,346.28L225.84,343.51L228.09,341.71L229.21,342.16L232.58,342.8L233.71,344.86L237.08,351.56L238.2,351.62L240.45,354.77L241.57,357.93L242.7,358.7L243.82,361.27L246.07,361.4L247.19,362.75L248.31,363.4L249.44,362.62L250.56,365.91L251.69,366.16L252.81,364.62L253.93,364.49L255.06,365.91L256.18,365.84L257.3,366.55L258.43,364.49L261.8,365.97L262.92,368.8L267.42,371.83L268.54,372.15L269.66,372.34L270.79,371.51L273.03,373.5L274.16,374.02L278.65,374.47L279.78,375.11L283.15,377.17L284.27,378.2L289.89,378.78L291.01,378.26L296.63,378.71L297.75,379.03L300,379.49L301.12,379.55L306.74,379.1L307.87,379.23L313.48,378.58L314.61,378.39L317.98,378.52L319.1,378.65L321.35,378.58L322.47,378.33L328.09,376.52L329.21,376.65L331.46,376.01L332.58,376.01L339.33,374.85L340.45,374.98L343.82,374.02L344.94,373.76L348.31,372.73L349.44,371.51L351.69,369.77L352.81,367.77L355.06,367.84L356.18,368.09L358.43,368.16L359.55,369.19L360.67,370.6L361.8,370.22L364.04,369.45L365.17,369L371.91,366.94L373.03,368.29L377.53,372.99L378.65,373.05L379.78,372.99L380.9,371.83L382.02,371.51L383.15,372.21L385.39,370.99L386.52,372.15L387.64,372.28L388.76,373.82L391.01,373.56L392.13,374.53L393.26,375.17L394.38,374.92L397.75,375.75L398.88,376.2L402.25,377.43L403.37,377.36L404.49,376.91L405.62,377.43L411.24,375.95L412.36,376.4L419.1,376.4L420.22,375.82L423.6,374.59L424.72,374.53L431.46,375.56L432.58,376.2L438.2,376.27L439.33,375.69L442.7,374.72L443.82,375.37L448.31,373.69L449.44,373.05L450.56,373.11L451.69,371.57L453.93,370.09L455.06,370.99L456.18,370.15L457.3,370.48L458.43,369.96L459.55,368.55L461.8,366.87L462.92,364.23L465.17,363.27L466.29,363.65L468.54,361.08L469.66,361.6L471.91,362.24L473.03,360.63L474.16,360.76L475.28,359.86L480.9,350.33L482.02,350.08L483.15,346.86L484.27,346.34L486.52,344.03L487.64,342.23L491.01,343.96L492.13,343.51L494.38,341.9L495.51,343L496.63,341.77L497.75,341.84L498.88,340.23L500,340.23L503.37,338.49L504.49,342.55L505.62,341.71L506.74,333.09L510.11,303.03L511.24,289.78L512.36,289.52L513.48,288.23L515.73,241.26L516.85,228.97L519.1,216.42L520.22,201.29L521.35,200.2L522.47,204.38L523.6,209.21L524.72,205.41L525.84,202.19L526.97,193.06L528.09,180.51L529.21,177.42L534.83,76.32L535.96,62.49L537.08,58.37L538.2,37.58L542.7,0L543.82,4.96L546.07,5.86L547.19,18.86L551.69,89.58L552.81,94.53L555.06,154.32L556.18,173.62L559.55,220.21L560.67,222.92L562.92,252.52L564.04,263.07L566.29,280.7L567.42,285.47L568.54,286.24L569.66,293.51L570.79,299.3L571.91,300.52L573.03,302.46L574.16,307.28L575.28,310.05L576.4,310.69L579.78,315.97L580.9,315.78L582.02,315.07L583.15,312.88L584.27,313.59L585.39,313.27L591.01,288.43L592.13,286.5L593.26,275.75L594.38,274.85L596.63,265.26L597.75,263.07L598.88,260.24L600,261.14L605.62,229.09L606.74,227.1L607.87,227.16L608.99,223.04L611.24,218.73L612.36,218.93L614.61,226.52L615.73,226.33L619.1,230.7L620.22,229.93L622.47,227.23L623.6,227.23L624.72,235.27L625.84,236.56L629.21,247.05L630.34,250.07L631.46,250.33L632.58,278.9L633.71,277.55L634.83,284.31L637.08,296.47L638.2,299.82L639.33,299.56L640.45,281.03L641.57,296.41L642.7,300.78L646.07,311.53L647.19,312.62L649.44,321.5L650.56,322.02L652.81,326.91L653.93,328.9L655.06,329.29L656.18,332.77L657.3,333.41L658.43,337.33L660.67,342.42L661.8,343.71L662.92,343.96L664.04,349.3L666.29,353.81L667.42,355.29L669.66,359.21L670.79,359.02L674.16,363.91L675.28,366.29L677.53,366.55L678.65,367L680.9,367.52" style="vector-effect: non-scaling-stroke; fill: none; stroke: rgb(8, 115, 191); stroke-opacity: 1; stroke-width: 0.5px; opacity: 1;"/></g><g class="points"/><g class="text"/></g><g class="trace scatter tracea08efa" style="stroke-miterlimit: 2;"><g class="fills"><g><path class="js-fill" d="M692.13,380L680.9,380L680.9,367.52L682.02,366.68L683.15,364.68L684.27,365.2L685.39,364.43L686.52,363.98L687.64,367.58L688.76,363.46L689.89,362.43L692.13,361.27" style="fill: rgb(8, 115, 191); fill-opacity: 0.4; stroke-width: 0;"/></g></g><g class="errorbars"/><g class="lines"><path class="js-line" d="M680.9,367.52L682.02,366.68L683.15,364.68L684.27,365.2L685.39,364.43L686.52,363.98L687.64,367.58L688.76,363.46L689.89,362.43L692.13,361.27" style="vector-effect: non-scaling-stroke; fill: none; stroke: rgb(8, 115, 191); stroke-opacity: 1; stroke-width: 2px; opacity: 1;"/></g><g class="points"/><g class="text"/></g><g class="trace scatter trace9a96f3" style="stroke-miterlimit: 2; opacity: 1;"><g class="fills"/><g class="errorbars"/><g class="lines"/><g class="points"><path class="point" transform="translate(692.13,361.27)" d="M15,0A15,15 0 1,1 0,-15A15,15 0 0,1 15,0Z" style="opacity: 1; stroke-width: 0px; fill: rgb(8, 115, 191); fill-opacity: 1;"/></g><g class="text"/></g></g></g><g class="overplot"/><path class="xlines-above crisp" style="fill: none; stroke-width: 1px; stroke: rgb(0, 0, 0); stroke-opacity: 0;" d=""/><path class="ylines-above crisp" style="fill: none;" d="M0,0"/><g class="overlines-above"/><g class="xaxislayer-above"><path class="xtick ticks crisp" d="M0,450v-5" transform="translate(52.25,0)" style="stroke: rgb(68, 68, 68); stroke-opacity: 1; stroke-width: 1px;"/><path class="xtick ticks crisp" d="M0,450v-5" transform="translate(155.62,0)" style="stroke: rgb(68, 68, 68); stroke-opacity: 1; stroke-width: 1px;"/><path class="xtick ticks crisp" d="M0,450v-5" transform="translate(256.74,0)" style="stroke: rgb(68, 68, 68); stroke-opacity: 1; stroke-width: 1px;"/><path class="xtick ticks crisp" d="M0,450v-5" transform="translate(358.99,0)" style="stroke: rgb(68, 68, 68); stroke-opacity: 1; stroke-width: 1px;"/><path class="xtick ticks crisp" d="M0,450v-5" transform="translate(462.36,0)" style="stroke: rgb(68, 68, 68); stroke-opacity: 1; stroke-width: 1px;"/><path class="xtick ticks crisp" d="M0,450v-5" transform="translate(565.73,0)" style="stroke: rgb(68, 68, 68); stroke-opacity: 1; stroke-width: 1px;"/><path class="xtick ticks crisp" d="M0,450v-5" transform="translate(666.85,0)" style="stroke: rgb(68, 68, 68); stroke-opacity: 1; stroke-width: 1px;"/><g class="xtick"><text text-anchor="middle" x="0" y="469" transform="translate(52.25,0)" style="font-family: 'Open Sans', verdana, arial, sans-serif; font-size: 18px; fill: rgb(42, 63, 95); fill-opacity: 1; white-space: pre;">01/10</text></g><g class="xtick"><text text-anchor="middle" x="0" y="469" transform="translate(155.62,0)" style="font-family: 'Open Sans', verdana, arial, sans-serif; font-size: 18px; fill: rgb(42, 63, 95); fill-opacity: 1; white-space: pre;">01/01</text></g><g class="xtick"><text text-anchor="middle" x="0" y="469" transform="translate(256.74,0)" style="font-family: 'Open Sans', verdana, arial, sans-serif; font-size: 18px; fill: rgb(42, 63, 95); fill-opacity: 1; white-space: pre;">01/04</text></g><g class="xtick"><text text-anchor="middle" x="0" y="469" transform="translate(358.99,0)" style="font-family: 'Open Sans', verdana, arial, sans-serif; font-size: 18px; fill: rgb(42, 63, 95); fill-opacity: 1; white-space: pre;">01/07</text></g><g class="xtick"><text text-anchor="middle" x="0" y="469" transform="translate(462.36,0)" style="font-family: 'Open Sans', verdana, arial, sans-serif; font-size: 18px; fill: rgb(42, 63, 95); fill-opacity: 1; white-space: pre;">01/10</text></g><g class="xtick"><text text-anchor="middle" x="0" y="469" transform="translate(565.73,0)" style="font-family: 'Open Sans', verdana, arial, sans-serif; font-size: 18px; fill: rgb(42, 63, 95); fill-opacity: 1; white-space: pre;">01/01</text></g><g class="xtick"><text text-anchor="middle" x="0" y="469" transform="translate(666.85,0)" style="font-family: 'Open Sans', verdana, arial, sans-serif; font-size: 18px; fill: rgb(42, 63, 95); fill-opacity: 1; white-space: pre;">01/04</text></g></g><g class="yaxislayer-above"/><g class="overaxes-above"/></g></g><g class="polarlayer"/><g class="ternarylayer"/><g class="geolayer"/><g class="funnelarealayer"/><g class="pielayer"/><g class="treemaplayer"/><g class="sunburstlayer"/><g class="glimages"/><defs id="topdefs-e9f6fd"><g class="clips"/></defs><g class="layer-above"><g class="imagelayer"/><g class="shapelayer"><path data-index="0" fill-rule="evenodd" d="M-581.46,444.55L239.89,444.55" clip-path="url('#clipe9f6fdxy')" style="opacity: 1; stroke: rgb(255, 0, 0); stroke-opacity: 1; fill: rgb(0, 0, 0); fill-opacity: 0; stroke-dasharray: 3px, 3px; stroke-width: 1.5px;"/></g></g><g class="infolayer"><g class="g-gtitle"><text class="gtitle" x="375" y="25" text-anchor="middle" dy="0.7em" style="font-family: 'Open Sans', verdana, arial, sans-serif; font-size: 50px; fill: rgb(42, 63, 95); opacity: 1; font-weight: normal; white-space: pre;"><tspan style="font-weight:bold">Haute-Marne (52)</tspan></text></g><g class="g-xtitle"/><g class="annotation" data-index="0" style="opacity: 1;"><g class="annotation-text-g" transform="rotate(0,700.13,371.27)"><g class="cursor-pointer" transform="translate(642, 335)"><rect class="bg" x="0.5" y="0.5" width="115" height="71" style="stroke-width: 1px; stroke: rgb(0, 0, 0); stroke-opacity: 0; fill: rgb(255, 255, 255); fill-opacity: 0.6;"/><text class="annotation-text" text-anchor="middle" x="57.8125" y="55.5" style="font-family: 'Open Sans', verdana, arial, sans-serif; font-size: 50px; fill: rgb(8, 115, 191); fill-opacity: 1; white-space: pre;"> <tspan style="font-weight:bold">171 </tspan></text></g></g><g class="annotation-arrow-g" style="opacity: 1;"><path d="M728.53,406.77L740.13,421.27" style="stroke-width: 1px; stroke: rgb(8, 115, 191); stroke-opacity: 1; stroke-dasharray: 0px, 0px, 18.569px, 18.569px;"/></g></g></g></svg>