<svg class="main-svg" xmlns="http://www.w3.org/2000/svg" xmlns:xlink="http://www.w3.org/1999/xlink" width="1125" height="750" style="" viewBox="0 0 750 500"><rect x="0" y="0" width="750" height="500" style="fill: rgb(0, 0, 0); fill-opacity: 0;"/><defs id="defs-31d132"><g class="clips"><clipPath id="clip31d132xyplot" class="plotclip"><rect width="700" height="380"/></clipPath><clipPath class="axesclip" id="clip31d132x"><rect x="50" y="0" width="700" height="500"/></clipPath><clipPath class="axesclip" id="clip31d132y"><rect x="0" y="70" width="750" height="380"/></clipPath><clipPath class="axesclip" id="clip31d132xy"><rect x="50" y="70" width="700" height="380"/></clipPath></g><g class="gradients"/></defs><g class="bglayer"><rect class="bg" x="50" y="70" width="700" height="380" style="fill: rgb(0, 0, 0); fill-opacity: 0; stroke-width: 0;"/></g><g class="layer-below"><g class="imagelayer"/><g class="shapelayer"/></g><g class="cartesianlayer"><g class="subplot xy"><g class="layer-subplot"><g class="shapelayer"/><g class="imagelayer"/></g><g class="gridlayer"><g class="x"><path class="xgrid crisp" transform="translate(92.78,0)" d="M0,70v380" style="stroke: rgb(255, 255, 255); stroke-opacity: 1; stroke-width: 1px;"/><path class="xgrid crisp" transform="translate(171.85,0)" d="M0,70v380" style="stroke: rgb(255, 255, 255); stroke-opacity: 1; stroke-width: 1px;"/><path class="xgrid crisp" transform="translate(248.33,0)" d="M0,70v380" style="stroke: rgb(255, 255, 255); stroke-opacity: 1; stroke-width: 1px;"/><path class="xgrid crisp" transform="translate(327.41,0)" d="M0,70v380" style="stroke: rgb(255, 255, 255); stroke-opacity: 1; stroke-width: 1px;"/><path class="xgrid crisp" transform="translate(406.48,0)" d="M0,70v380" style="stroke: rgb(255, 255, 255); stroke-opacity: 1; stroke-width: 1px;"/><path class="xgrid crisp" transform="translate(486.85,0)" d="M0,70v380" style="stroke: rgb(255, 255, 255); stroke-opacity: 1; stroke-width: 1px;"/><path class="xgrid crisp" transform="translate(565.93,0)" d="M0,70v380" style="stroke: rgb(255, 255, 255); stroke-opacity: 1; stroke-width: 1px;"/><path class="xgrid crisp" transform="translate(645,0)" d="M0,70v380" style="stroke: rgb(255, 255, 255); stroke-opacity: 1; stroke-width: 1px;"/><path class="xgrid crisp" transform="translate(721.48,0)" d="M0,70v380" style="stroke: rgb(255, 255, 255); stroke-opacity: 1; stroke-width: 1px;"/></g><g class="y"/></g><g class="zerolinelayer"/><path class="xlines-below"/><path class="ylines-below"/><g class="overlines-below"/><g class="xaxislayer-below"/><g class="yaxislayer-below"/><g class="overaxes-below"/><g class="plot" transform="translate(50, 70)" clip-path="url('#clip31d132xyplot')"><g class="scatterlayer mlayer"><g class="trace scatter trace289e51" style="stroke-miterlimit: 2;"><g class="fills"><g><path class="js-fill" d="M677.96,380L-176.3,380L-176.3,379.54L-145.19,379.86L-143.89,379.87L-68.7,378.15L-67.41,377.7L-55.74,372.22L-54.44,371.63L-50.56,370.88L-49.26,370.72L-36.3,370.33L-35,370.46L-19.44,369.87L-18.15,369.35L-11.67,369.62L-10.37,369.97L-7.78,370.08L-6.48,370.11L-3.89,370.25L-2.59,369.68L2.59,366.97L3.89,365.59L9.07,360.32L10.37,359.74L11.67,359.79L12.96,358.15L18.15,354.43L19.44,354.23L22.04,352.55L23.33,350.95L28.52,339.23L29.81,338.87L32.41,332.15L33.7,331.1L35,329.6L36.3,330.54L38.89,332.52L40.19,332.06L44.07,337.44L45.37,338.32L46.67,338.94L47.96,338.59L50.56,343.2L51.85,349.62L55.74,356.25L57.04,356.77L59.63,363.69L60.93,362.52L63.52,367.32L64.81,368L66.11,368.15L67.41,369.87L73.89,372.19L75.19,372.22L81.67,373.11L82.96,373.13L93.33,372.94L94.63,372.49L98.52,371.2L99.81,370.96L106.3,370.24L107.59,370.25L108.89,371.83L110.19,371.85L114.07,371.04L115.37,370.79L120.56,369.9L121.85,368.62L125.74,366.09L127.04,362.98L134.81,363.22L136.11,363.63L142.59,364.18L143.89,363.72L156.85,363.91L158.15,364.48L175,365.79L176.3,366.19L181.48,367.07L182.78,366.77L185.37,366.06L186.67,365.71L190.56,364.16L191.85,364.24L195.74,364.52L197.04,365.16L198.33,364.97L199.63,365.62L202.22,365.46L203.52,365.97L207.41,365.28L208.7,364.85L211.3,364.64L212.59,363.52L217.78,359.64L219.07,359.22L220.37,359.15L221.67,357.47L228.15,351.53L229.44,351.58L232.04,348.74L233.33,348.04L237.22,346.71L238.52,346.65L239.81,352.86L241.11,351.14L243.7,351.43L245,352.98L247.59,352.69L248.89,346.97L250.19,349.57L251.48,349.78L255.37,351.01L256.67,351.11L261.85,354.1L263.15,354.54L270.93,358.5L272.22,359.74L273.52,361.27L274.81,361.55L277.41,363.99L278.7,365.71L281.3,367.89L282.59,367.98L283.89,367.99L285.19,369.3L290.37,371.99L291.67,371.58L296.85,371.72L298.15,370.69L302.04,370.95L303.33,372.78L304.63,371.87L305.93,372.16L308.52,372.39L309.81,372.48L312.41,371.69L313.7,372.88L321.48,374.07L322.78,374.66L326.67,376.5L327.96,376.75L331.85,377.48L333.15,377.7L342.22,378.56L343.52,378.68L348.7,378.77L350,378.55L359.07,376.44L360.37,375.69L365.56,373.13L366.85,371.01L368.15,368.53L369.44,368.72L373.33,359.33L374.63,358.56L379.81,334.94L381.11,330.32L382.41,327.28L383.7,326.46L385,321.51L386.3,319.65L390.19,317.4L391.48,317.9L397.96,318.98L399.26,318.81L401.85,318.8L403.15,318.49L407.04,319.93L408.33,321.28L410.93,321.35L412.22,323.62L416.11,330.06L417.41,331.12L418.7,332.26L420,332.39L421.3,335.22L422.59,335.71L426.48,342.98L427.78,344.6L429.07,345.19L430.37,348.78L431.67,351.99L432.96,353.07L436.85,357.22L438.15,357.79L443.33,362.78L444.63,363.68L448.52,366.43L449.81,367.69L455,371.55L456.3,371.7L458.89,373.27L460.19,373.54L465.37,374.36L466.67,374.31L478.33,376.4L479.63,376.44L487.41,376.06L488.7,375.56L499.07,375.9L500.37,375.63L512.04,375.57L513.33,374.74L519.81,373.57L521.11,371.91L523.7,371L525,372L527.59,369.55L528.89,369.39L532.78,362.44L534.07,359.04L537.96,355.23L539.26,351.72L545.74,337.82L547.04,337.77L549.63,330.02L550.93,327.32L554.81,320.7L556.11,319.65L560,314.45L561.3,313.93L565.19,313.04L566.48,310.85L571.67,310.54L572.96,309.32L575.56,308.8L576.85,306.18L579.44,296.1L580.74,290.21L582.04,295.65L583.33,293.24L587.22,246.05L588.52,233.26L589.81,222.29L591.11,221.35L592.41,218.8L593.7,191.49L596.3,161.07L597.59,152.43L598.89,142.04L600.19,120.16L602.78,119.67L604.07,124.47L605.37,122.71L606.67,119.37L607.96,115.07L609.26,107.83L610.56,103.91L611.85,87.72L617.04,22.54L618.33,15.55L619.63,15.42L620.93,2.39L622.22,0L623.52,3.72L626.11,19.61L627.41,24.59L628.7,24.66L630,41.32L635.19,94.72L636.48,105.35L637.78,109.26L639.07,135.78L644.26,204.39L645.56,213.89L646.85,216.9L648.15,238.09L653.33,273.96L654.63,279.28L655.93,281.4L657.22,292.16L659.81,304.15L661.11,307.07L663.7,312.69L665,312.75L667.59,319.27L668.89,322.15L671.48,326.29L672.78,326.79L677.96,327.91" style="fill: rgb(8, 115, 191); fill-opacity: 0.2; stroke-width: 0;"/></g></g><g class="errorbars"/><g class="lines"><path class="js-line" d="M-176.3,379.54L-145.19,379.86L-143.89,379.87L-68.7,378.15L-67.41,377.7L-55.74,372.22L-54.44,371.63L-50.56,370.88L-49.26,370.72L-36.3,370.33L-35,370.46L-19.44,369.87L-18.15,369.35L-11.67,369.62L-10.37,369.97L-7.78,370.08L-6.48,370.11L-3.89,370.25L-2.59,369.68L2.59,366.97L3.89,365.59L9.07,360.32L10.37,359.74L11.67,359.79L12.96,358.15L18.15,354.43L19.44,354.23L22.04,352.55L23.33,350.95L28.52,339.23L29.81,338.87L32.41,332.15L33.7,331.1L35,329.6L36.3,330.54L38.89,332.52L40.19,332.06L44.07,337.44L45.37,338.32L46.67,338.94L47.96,338.59L50.56,343.2L51.85,349.62L55.74,356.25L57.04,356.77L59.63,363.69L60.93,362.52L63.52,367.32L64.81,368L66.11,368.15L67.41,369.87L73.89,372.19L75.19,372.22L81.67,373.11L82.96,373.13L93.33,372.94L94.63,372.49L98.52,371.2L99.81,370.96L106.3,370.24L107.59,370.25L108.89,371.83L110.19,371.85L114.07,371.04L115.37,370.79L120.56,369.9L121.85,368.62L125.74,366.09L127.04,362.98L134.81,363.22L136.11,363.63L142.59,364.18L143.89,363.72L156.85,363.91L158.15,364.48L175,365.79L176.3,366.19L181.48,367.07L182.78,366.77L185.37,366.06L186.67,365.71L190.56,364.16L191.85,364.24L195.74,364.52L197.04,365.16L198.33,364.97L199.63,365.62L202.22,365.46L203.52,365.97L207.41,365.28L208.7,364.85L211.3,364.64L212.59,363.52L217.78,359.64L219.07,359.22L220.37,359.15L221.67,357.47L228.15,351.53L229.44,351.58L232.04,348.74L233.33,348.04L237.22,346.71L238.52,346.65L239.81,352.86L241.11,351.14L243.7,351.43L245,352.98L247.59,352.69L248.89,346.97L250.19,349.57L251.48,349.78L255.37,351.01L256.67,351.11L261.85,354.1L263.15,354.54L270.93,358.5L272.22,359.74L273.52,361.27L274.81,361.55L277.41,363.99L278.7,365.71L281.3,367.89L282.59,367.98L283.89,367.99L285.19,369.3L290.37,371.99L291.67,371.58L296.85,371.72L298.15,370.69L302.04,370.95L303.33,372.78L304.63,371.87L305.93,372.16L308.52,372.39L309.81,372.48L312.41,371.69L313.7,372.88L321.48,374.07L322.78,374.66L326.67,376.5L327.96,376.75L331.85,377.48L333.15,377.7L342.22,378.56L343.52,378.68L348.7,378.77L350,378.55L359.07,376.44L360.37,375.69L365.56,373.13L366.85,371.01L368.15,368.53L369.44,368.72L373.33,359.33L374.63,358.56L379.81,334.94L381.11,330.32L382.41,327.28L383.7,326.46L385,321.51L386.3,319.65L390.19,317.4L391.48,317.9L397.96,318.98L399.26,318.81L401.85,318.8L403.15,318.49L407.04,319.93L408.33,321.28L410.93,321.35L412.22,323.62L416.11,330.06L417.41,331.12L418.7,332.26L420,332.39L421.3,335.22L422.59,335.71L426.48,342.98L427.78,344.6L429.07,345.19L430.37,348.78L431.67,351.99L432.96,353.07L436.85,357.22L438.15,357.79L443.33,362.78L444.63,363.68L448.52,366.43L449.81,367.69L455,371.55L456.3,371.7L458.89,373.27L460.19,373.54L465.37,374.36L466.67,374.31L478.33,376.4L479.63,376.44L487.41,376.06L488.7,375.56L499.07,375.9L500.37,375.63L512.04,375.57L513.33,374.74L519.81,373.57L521.11,371.91L523.7,371L525,372L527.59,369.55L528.89,369.39L532.78,362.44L534.07,359.04L537.96,355.23L539.26,351.72L545.74,337.82L547.04,337.77L549.63,330.02L550.93,327.32L554.81,320.7L556.11,319.65L560,314.45L561.3,313.93L565.19,313.04L566.48,310.85L571.67,310.54L572.96,309.32L575.56,308.8L576.85,306.18L579.44,296.1L580.74,290.21L582.04,295.65L583.33,293.24L587.22,246.05L588.52,233.26L589.81,222.29L591.11,221.35L592.41,218.8L593.7,191.49L596.3,161.07L597.59,152.43L598.89,142.04L600.19,120.16L602.78,119.67L604.07,124.47L605.37,122.71L606.67,119.37L607.96,115.07L609.26,107.83L610.56,103.91L611.85,87.72L617.04,22.54L618.33,15.55L619.63,15.42L620.93,2.39L622.22,0L623.52,3.72L626.11,19.61L627.41,24.59L628.7,24.66L630,41.32L635.19,94.72L636.48,105.35L637.78,109.26L639.07,135.78L644.26,204.39L645.56,213.89L646.85,216.9L648.15,238.09L653.33,273.96L654.63,279.28L655.93,281.4L657.22,292.16L659.81,304.15L661.11,307.07L663.7,312.69L665,312.75L667.59,319.27L668.89,322.15L671.48,326.29L672.78,326.79L677.96,327.91" style="vector-effect: non-scaling-stroke; fill: none; stroke: rgb(8, 115, 191); stroke-opacity: 1; stroke-width: 0.5px; opacity: 1;"/></g><g class="points"/><g class="text"/></g><g class="trace scatter trace243683" style="stroke-miterlimit: 2;"><g class="fills"><g><path class="js-fill" d="M690.93,380L677.96,380L677.96,327.91L681.85,326.16L683.15,325.95L690.93,302.92" style="fill: rgb(8, 115, 191); fill-opacity: 0.4; stroke-width: 0;"/></g></g><g class="errorbars"/><g class="lines"><path class="js-line" d="M677.96,327.91L681.85,326.16L683.15,325.95L690.93,302.92" style="vector-effect: non-scaling-stroke; fill: none; stroke: rgb(8, 115, 191); stroke-opacity: 1; stroke-width: 2px; opacity: 1;"/></g><g class="points"/><g class="text"/></g><g class="trace scatter trace230add" style="stroke-miterlimit: 2; opacity: 1;"><g class="fills"/><g class="errorbars"/><g class="lines"/><g class="points"><path class="point" transform="translate(690.93,302.92)" d="M15,0A15,15 0 1,1 0,-15A15,15 0 0,1 15,0Z" style="opacity: 1; stroke-width: 0px; fill: rgb(8, 115, 191); fill-opacity: 1;"/></g><g class="text"/></g></g></g><g class="overplot"/><path class="xlines-above crisp" style="fill: none; stroke-width: 1px; stroke: rgb(0, 0, 0); stroke-opacity: 0;" d=""/><path class="ylines-above crisp" style="fill: none;" d="M0,0"/><g class="overlines-above"/><g class="xaxislayer-above"><path class="xtick ticks crisp" d="M0,450v-5" transform="translate(92.78,0)" style="stroke: rgb(68, 68, 68); stroke-opacity: 1; stroke-width: 1px;"/><path class="xtick ticks crisp" d="M0,450v-5" transform="translate(171.85,0)" style="stroke: rgb(68, 68, 68); stroke-opacity: 1; stroke-width: 1px;"/><path class="xtick ticks crisp" d="M0,450v-5" transform="translate(248.33,0)" style="stroke: rgb(68, 68, 68); stroke-opacity: 1; stroke-width: 1px;"/><path class="xtick ticks crisp" d="M0,450v-5" transform="translate(327.41,0)" style="stroke: rgb(68, 68, 68); stroke-opacity: 1; stroke-width: 1px;"/><path class="xtick ticks crisp" d="M0,450v-5" transform="translate(406.48,0)" style="stroke: rgb(68, 68, 68); stroke-opacity: 1; stroke-width: 1px;"/><path class="xtick ticks crisp" d="M0,450v-5" transform="translate(486.85,0)" style="stroke: rgb(68, 68, 68); stroke-opacity: 1; stroke-width: 1px;"/><path class="xtick ticks crisp" d="M0,450v-5" transform="translate(565.93,0)" style="stroke: rgb(68, 68, 68); stroke-opacity: 1; stroke-width: 1px;"/><path class="xtick ticks crisp" d="M0,450v-5" transform="translate(645,0)" style="stroke: rgb(68, 68, 68); stroke-opacity: 1; stroke-width: 1px;"/><path class="xtick ticks crisp" d="M0,450v-5" transform="translate(721.48,0)" style="stroke: rgb(68, 68, 68); stroke-opacity: 1; stroke-width: 1px;"/><g class="xtick"><text text-anchor="middle" x="0" y="469" transform="translate(92.78,0)" style="font-family: 'Open Sans', verdana, arial, sans-serif; font-size: 18px; fill: rgb(42, 63, 95); fill-opacity: 1; white-space: pre;">01/11</text></g><g class="xtick"><text text-anchor="middle" x="0" y="469" transform="translate(171.85,0)" style="font-family: 'Open Sans', verdana, arial, sans-serif; font-size: 18px; fill: rgb(42, 63, 95); fill-opacity: 1; white-space: pre;">01/01</text></g><g class="xtick"><text text-anchor="middle" x="0" y="469" transform="translate(248.33,0)" style="font-family: 'Open Sans', verdana, arial, sans-serif; font-size: 18px; fill: rgb(42, 63, 95); fill-opacity: 1; white-space: pre;">01/03</text></g><g class="xtick"><text text-anchor="middle" x="0" y="469" transform="translate(327.41,0)" style="font-family: 'Open Sans', verdana, arial, sans-serif; font-size: 18px; fill: rgb(42, 63, 95); fill-opacity: 1; white-space: pre;">01/05</text></g><g class="xtick"><text text-anchor="middle" x="0" y="469" transform="translate(406.48,0)" style="font-family: 'Open Sans', verdana, arial, sans-serif; font-size: 18px; fill: rgb(42, 63, 95); fill-opacity: 1; white-space: pre;">01/07</text></g><g class="xtick"><text text-anchor="middle" x="0" y="469" transform="translate(486.85,0)" style="font-family: 'Open Sans', verdana, arial, sans-serif; font-size: 18px; fill: rgb(42, 63, 95); fill-opacity: 1; white-space: pre;">01/09</text></g><g class="xtick"><text text-anchor="middle" x="0" y="469" transform="translate(565.93,0)" style="font-family: 'Open Sans', verdana, arial, sans-serif; font-size: 18px; fill: rgb(42, 63, 95); fill-opacity: 1; white-space: pre;">01/11</text></g><g class="xtick"><text text-anchor="middle" x="0" y="469" transform="translate(645,0)" style="font-family: 'Open Sans', verdana, arial, sans-serif; font-size: 18px; fill: rgb(42, 63, 95); fill-opacity: 1; white-space: pre;">01/01</text></g><g class="xtick"><text text-anchor="middle" x="0" y="469" transform="translate(721.48,0)" style="font-family: 'Open Sans', verdana, arial, sans-serif; font-size: 18px; fill: rgb(42, 63, 95); fill-opacity: 1; white-space: pre;">01/03</text></g></g><g class="yaxislayer-above"/><g class="overaxes-above"/></g></g><g class="polarlayer"/><g class="ternarylayer"/><g class="geolayer"/><g class="funnelarealayer"/><g class="pielayer"/><g class="treemaplayer"/><g class="sunburstlayer"/><g class="glimages"/><defs id="topdefs-31d132"><g class="clips"/></defs><g class="layer-above"><g class="imagelayer"/><g class="shapelayer"><path data-index="0" fill-rule="evenodd" d="M-678.52,444.94L269.07,444.94" clip-path="url('#clip31d132xy')" style="opacity: 1; stroke: rgb(255, 0, 0); stroke-opacity: 1; fill: rgb(0, 0, 0); fill-opacity: 0; stroke-dasharray: 3px, 3px; stroke-width: 1.5px;"/></g></g><g class="infolayer"><g class="g-gtitle"><text class="gtitle" x="375" y="25" text-anchor="middle" dy="0.7em" style="font-family: 'Open Sans', verdana, arial, sans-serif; font-size: 50px; fill: rgb(42, 63, 95); opacity: 1; font-weight: normal; white-space: pre;"><tspan style="font-weight:bold">Hérault (34)</tspan></text></g><g class="g-xtitle"/><g class="annotation" data-index="0" style="opacity: 1;"><g class="annotation-text-g" transform="rotate(0,698.93,312.92)"><g class="cursor-pointer" transform="translate(641, 277)"><rect class="bg" x="0.5" y="0.5" width="115" height="71" style="stroke-width: 1px; stroke: rgb(0, 0, 0); stroke-opacity: 0; fill: rgb(255, 255, 255); fill-opacity: 0.6;"/><text class="annotation-text" text-anchor="middle" x="57.8125" y="55.5" style="font-family: 'Open Sans', verdana, arial, sans-serif; font-size: 50px; fill: rgb(8, 115, 191); fill-opacity: 1; white-space: pre;"> <tspan style="font-weight:bold">761 </tspan></text></g></g><g class="annotation-arrow-g" style="opacity: 1;"><path d="M727.3299999999999,348.42L738.93,362.92" style="stroke-width: 1px; stroke: rgb(8, 115, 191); stroke-opacity: 1; stroke-dasharray: 0px, 0px, 18.569px, 18.569px;"/></g></g></g></svg>