<svg class="main-svg" xmlns="http://www.w3.org/2000/svg" xmlns:xlink="http://www.w3.org/1999/xlink" width="1125" height="750" style="" viewBox="0 0 750 500"><rect x="0" y="0" width="750" height="500" style="fill: rgb(0, 0, 0); fill-opacity: 0;"/><defs id="defs-fa1434"><g class="clips"><clipPath id="clipfa1434xyplot" class="plotclip"><rect width="682" height="380"/></clipPath><clipPath class="axesclip" id="clipfa1434x"><rect x="50" y="0" width="682" height="500"/></clipPath><clipPath class="axesclip" id="clipfa1434y"><rect x="0" y="70" width="750" height="380"/></clipPath><clipPath class="axesclip" id="clipfa1434xy"><rect x="50" y="70" width="682" height="380"/></clipPath></g><g class="gradients"/></defs><g class="bglayer"><rect class="bg" x="50" y="70" width="682" height="380" style="fill: rgb(0, 0, 0); fill-opacity: 0; stroke-width: 0;"/></g><g class="layer-below"><g class="imagelayer"/><g class="shapelayer"/></g><g class="cartesianlayer"><g class="subplot xy"><g class="layer-subplot"><g class="shapelayer"/><g class="imagelayer"/></g><g class="gridlayer"><g class="x"><path class="xgrid crisp" transform="translate(52.11,0)" d="M0,70v380" style="stroke: rgb(255, 255, 255); stroke-opacity: 1; stroke-width: 1px;"/><path class="xgrid crisp" transform="translate(149.39,0)" d="M0,70v380" style="stroke: rgb(255, 255, 255); stroke-opacity: 1; stroke-width: 1px;"/><path class="xgrid crisp" transform="translate(244.56,0)" d="M0,70v380" style="stroke: rgb(255, 255, 255); stroke-opacity: 1; stroke-width: 1px;"/><path class="xgrid crisp" transform="translate(340.78,0)" d="M0,70v380" style="stroke: rgb(255, 255, 255); stroke-opacity: 1; stroke-width: 1px;"/><path class="xgrid crisp" transform="translate(438.05,0)" d="M0,70v380" style="stroke: rgb(255, 255, 255); stroke-opacity: 1; stroke-width: 1px;"/><path class="xgrid crisp" transform="translate(535.3299999999999,0)" d="M0,70v380" style="stroke: rgb(255, 255, 255); stroke-opacity: 1; stroke-width: 1px;"/><path class="xgrid crisp" transform="translate(630.49,0)" d="M0,70v380" style="stroke: rgb(255, 255, 255); stroke-opacity: 1; stroke-width: 1px;"/><path class="xgrid crisp" transform="translate(726.71,0)" d="M0,70v380" style="stroke: rgb(255, 255, 255); stroke-opacity: 1; stroke-width: 1px;"/></g><g class="y"/></g><g class="zerolinelayer"/><path class="xlines-below"/><path class="ylines-below"/><g class="overlines-below"/><g class="xaxislayer-below"/><g class="yaxislayer-below"/><g class="overaxes-below"/><g class="plot" transform="translate(50, 70)" clip-path="url('#clipfa1434xyplot')"><g class="scatterlayer mlayer"><g class="trace scatter trace5da3f4" style="stroke-miterlimit: 2;"><g class="fills"><g><path class="js-fill" d="M664.02,380L-143.8,380L-143.8,379.81L-46.52,378.87L-45.47,378.67L-35.95,377.35L-34.89,377.27L-20.09,375.58L-19.03,374.86L-16.92,374.67L-15.86,374.53L-10.57,375.14L-9.52,375.39L-7.4,375.47L-6.34,375.72L4.23,375.53L5.29,375.17L13.75,370.31L14.8,369.34L16.92,368.71L17.98,366.58L19.03,365.17L20.09,362.27L23.26,356.37L24.32,356.17L27.49,347.01L28.55,346.23L29.61,344.6L30.66,344.8L31.72,344.88L32.78,343.47L34.89,345.71L35.95,345.43L38.07,347.25L39.12,346.92L41.24,351.45L42.29,356.39L45.47,361.25L46.52,361.58L48.64,365.56L49.7,364.84L51.81,368.65L52.87,369.15L53.93,369.18L54.98,370.86L56.04,372.3L57.1,372.08L59.21,372.24L60.27,372.43L61.33,372.43L62.38,371.66L65.56,371.85L66.61,372.66L76.13,373.68L77.19,374.09L79.3,374.34L80.36,373.95L83.53,373.37L84.59,373.93L86.7,373.4L87.76,374.28L89.88,375.58L90.93,375.55L93.05,374.42L94.11,374.51L96.22,373.73L97.28,373.21L98.33,373.21L99.39,372.3L102.56,370.75L103.62,368.96L105.74,369.04L106.79,367.58L108.91,366.89L109.97,365.7L112.08,364.4L113.14,364.29L114.2,364.59L115.25,362.74L117.37,361.31L118.42,360.98L120.54,359.98L121.6,357.83L122.65,357.39L123.71,355.68L125.83,349.85L126.88,349.88L127.94,349.96L129,348.75L130.06,348.19L131.11,349.44L134.29,353.77L135.34,353.83L137.46,357.28L138.51,357.69L140.63,360.89L141.69,360.89L142.74,360.84L143.8,362.27L145.92,364.51L146.97,365.01L151.2,364.29L152.26,365.15L153.32,366.14L154.38,365.53L156.49,366.89L157.55,366.8L158.6,368.85L159.66,369.04L163.89,370.86L164.95,370.83L167.06,368.76L168.12,368.54L170.24,367.66L171.29,366.69L173.41,366.22L174.47,365.23L177.64,360.78L178.69,360.42L179.75,360.42L180.81,358.6L183.98,352.33L185.04,350.29L186.1,348.72L187.15,348.66L189.27,347.17L190.33,346.65L192.44,347.17L193.5,348.63L194.56,348.61L195.61,355.29L196.67,354.99L197.73,355.73L201.96,356.61L203.01,352.25L204.07,353.74L205.13,353.91L206.19,354.68L207.24,356.5L209.36,356.7L210.42,357.66L212.53,358.88L213.59,359.6L214.64,358.55L215.7,359.13L217.82,359.49L218.87,360.65L223.1,365.89L224.16,365.86L229.45,371.66L230.51,371.69L234.73,372.41L235.79,373.82L237.91,373.57L238.96,373.59L242.14,373.95L243.19,372.96L245.31,372.66L246.37,372.77L248.48,374.42L249.54,374.37L254.82,372.82L255.88,373.07L261.17,374.86L262.23,374.92L267.51,377.57L268.57,377.57L271.74,378.62L272.8,378.79L277.03,379.2L278.09,379.12L286.55,379.48L287.6,379.48L301.35,377.68L302.41,376.58L306.64,374.37L307.69,373.24L309.81,371.03L310.87,369.98L312.98,369.34L314.04,367.49L316.15,365.62L317.21,364.57L319.32,363.71L320.38,363.54L322.5,363.07L323.55,362.63L327.78,362.11L328.84,361.58L330.96,360.04L332.01,360.42L334.13,360.29L335.18,360.45L337.3,363.1L338.36,363.88L339.41,363.52L340.47,364.18L345.76,364.29L346.82,364.84L347.87,364.54L348.93,365.2L349.99,365.28L351.04,366.42L356.33,369.84L357.39,369.78L360.56,371.22L361.62,371.5L363.73,372.6L364.79,372.66L369.02,376.05L370.08,376.41L373.25,376.49L374.31,376.38L382.77,377.13L383.82,377.13L393.34,375.72L394.4,375.72L402.86,374.45L403.91,374.56L412.37,374.48L413.43,374.81L416.6,374.4L417.66,375.06L422.95,373.07L424,373.04L425.06,371.14L426.12,371.14L427.18,370.78L428.23,371.88L430.35,370.72L431.4,370.67L432.46,370.17L433.52,368.54L434.58,367.3L435.63,364.57L436.69,364.43L437.75,363.27L438.81,363.07L439.86,361.11L443.04,356.45L444.09,354.21L445.15,352.53L446.21,352.42L448.32,343.58L449.38,341.48L452.55,334.47L453.61,334.33L456.78,329.72L457.84,330.25L458.9,331.07L459.95,330.91L461.01,331.19L462.07,332.65L464.18,336.82L465.24,337.26L467.36,338.86L468.41,338.75L469.47,339.36L470.53,337.48L473.7,328.78L474.76,332.4L475.81,331.6L476.87,317.66L481.1,262.08L482.16,261.3L483.22,258.71L484.27,234.52L486.39,207.38L487.44,203.35L488.5,197.5L489.56,180.18L490.62,178.69L491.67,182.67L492.73,189.21L493.79,188.63L494.85,186.92L495.9,182.14L498.02,173.59L499.08,157.38L504.36,72.86L505.42,68.69L507.53,24.1L508.59,18.44L511.76,0L512.82,0.19L514.94,7.07L515.99,12.2L517.05,17.59L518.11,29.85L520.22,42.33L521.28,63.64L526.57,146.42L527.62,150.72L529.74,196.97L530.8,211.25L533.97,241.34L535.03,242.92L538.2,271.55L539.26,278.89L541.37,291.07L542.43,291.45L544.54,303.33L545.6,307.41L548.77,314.51L549.83,314.76L550.89,316.22L551.94,316.25L557.23,306.78L558.29,302.03L560.4,293.39L561.46,291.48L563.58,285.93L564.63,286.29L566.75,281.1L567.8,276.65L570.98,267.05L572.03,266.8L573.09,260.06L574.15,258.46L575.21,258.6L576.26,257.58L577.32,259.12L578.38,259.18L579.44,259.48L580.49,260.56L582.61,261.41L583.67,258.65L585.78,250.26L586.84,250.26L588.95,241.78L590.01,239.77L591.07,241.87L592.12,246.59L593.18,250.54L594.24,250.01L595.3,278.97L596.35,275.58L599.53,291.43L600.58,295.1L601.64,295.76L602.7,284.97L604.81,307.88L605.87,315.01L607.98,322.13L609.04,322.9L612.21,337.07L613.27,340.41L615.39,345.85L616.44,346.21L619.62,350.68L620.67,350.35L621.73,351.45L622.79,350.73L623.84,350.98L624.9,352.14L625.96,352.22L627.02,353.33L634.42,361L635.48,364.21L637.59,363.63L638.65,363.27L640.76,360.84L641.82,361.06L642.88,357.69L643.93,357.39L646.05,356.14L647.11,360.95L651.34,351.64L652.39,349.88L653.45,350.15L654.51,340.96L655.57,340.21L656.62,338.31L658.74,334.22L659.8,332.84L660.85,332.37L661.91,328.34L664.02,321.16" style="fill: rgb(8, 115, 191); fill-opacity: 0.2; stroke-width: 0;"/></g></g><g class="errorbars"/><g class="lines"><path class="js-line" d="M-143.8,379.81L-46.52,378.87L-45.47,378.67L-35.95,377.35L-34.89,377.27L-20.09,375.58L-19.03,374.86L-16.92,374.67L-15.86,374.53L-10.57,375.14L-9.52,375.39L-7.4,375.47L-6.34,375.72L4.23,375.53L5.29,375.17L13.75,370.31L14.8,369.34L16.92,368.71L17.98,366.58L19.03,365.17L20.09,362.27L23.26,356.37L24.32,356.17L27.49,347.01L28.55,346.23L29.61,344.6L30.66,344.8L31.72,344.88L32.78,343.47L34.89,345.71L35.95,345.43L38.07,347.25L39.12,346.92L41.24,351.45L42.29,356.39L45.47,361.25L46.52,361.58L48.64,365.56L49.7,364.84L51.81,368.65L52.87,369.15L53.93,369.18L54.98,370.86L56.04,372.3L57.1,372.08L59.21,372.24L60.27,372.43L61.33,372.43L62.38,371.66L65.56,371.85L66.61,372.66L76.13,373.68L77.19,374.09L79.3,374.34L80.36,373.95L83.53,373.37L84.59,373.93L86.7,373.4L87.76,374.28L89.88,375.58L90.93,375.55L93.05,374.42L94.11,374.51L96.22,373.73L97.28,373.21L98.33,373.21L99.39,372.3L102.56,370.75L103.62,368.96L105.74,369.04L106.79,367.58L108.91,366.89L109.97,365.7L112.08,364.4L113.14,364.29L114.2,364.59L115.25,362.74L117.37,361.31L118.42,360.98L120.54,359.98L121.6,357.83L122.65,357.39L123.71,355.68L125.83,349.85L126.88,349.88L127.94,349.96L129,348.75L130.06,348.19L131.11,349.44L134.29,353.77L135.34,353.83L137.46,357.28L138.51,357.69L140.63,360.89L141.69,360.89L142.74,360.84L143.8,362.27L145.92,364.51L146.97,365.01L151.2,364.29L152.26,365.15L153.32,366.14L154.38,365.53L156.49,366.89L157.55,366.8L158.6,368.85L159.66,369.04L163.89,370.86L164.95,370.83L167.06,368.76L168.12,368.54L170.24,367.66L171.29,366.69L173.41,366.22L174.47,365.23L177.64,360.78L178.69,360.42L179.75,360.42L180.81,358.6L183.98,352.33L185.04,350.29L186.1,348.72L187.15,348.66L189.27,347.17L190.33,346.65L192.44,347.17L193.5,348.63L194.56,348.61L195.61,355.29L196.67,354.99L197.73,355.73L201.96,356.61L203.01,352.25L204.07,353.74L205.13,353.91L206.19,354.68L207.24,356.5L209.36,356.7L210.42,357.66L212.53,358.88L213.59,359.6L214.64,358.55L215.7,359.13L217.82,359.49L218.87,360.65L223.1,365.89L224.16,365.86L229.45,371.66L230.51,371.69L234.73,372.41L235.79,373.82L237.91,373.57L238.96,373.59L242.14,373.95L243.19,372.96L245.31,372.66L246.37,372.77L248.48,374.42L249.54,374.37L254.82,372.82L255.88,373.07L261.17,374.86L262.23,374.92L267.51,377.57L268.57,377.57L271.74,378.62L272.8,378.79L277.03,379.2L278.09,379.12L286.55,379.48L287.6,379.48L301.35,377.68L302.41,376.58L306.64,374.37L307.69,373.24L309.81,371.03L310.87,369.98L312.98,369.34L314.04,367.49L316.15,365.62L317.21,364.57L319.32,363.71L320.38,363.54L322.5,363.07L323.55,362.63L327.78,362.11L328.84,361.58L330.96,360.04L332.01,360.42L334.13,360.29L335.18,360.45L337.3,363.1L338.36,363.88L339.41,363.52L340.47,364.18L345.76,364.29L346.82,364.84L347.87,364.54L348.93,365.2L349.99,365.28L351.04,366.42L356.33,369.84L357.39,369.78L360.56,371.22L361.62,371.5L363.73,372.6L364.79,372.66L369.02,376.05L370.08,376.41L373.25,376.49L374.31,376.38L382.77,377.13L383.82,377.13L393.34,375.72L394.4,375.72L402.86,374.45L403.91,374.56L412.37,374.48L413.43,374.81L416.6,374.4L417.66,375.06L422.95,373.07L424,373.04L425.06,371.14L426.12,371.14L427.18,370.78L428.23,371.88L430.35,370.72L431.4,370.67L432.46,370.17L433.52,368.54L434.58,367.3L435.63,364.57L436.69,364.43L437.75,363.27L438.81,363.07L439.86,361.11L443.04,356.45L444.09,354.21L445.15,352.53L446.21,352.42L448.32,343.58L449.38,341.48L452.55,334.47L453.61,334.33L456.78,329.72L457.84,330.25L458.9,331.07L459.95,330.91L461.01,331.19L462.07,332.65L464.18,336.82L465.24,337.26L467.36,338.86L468.41,338.75L469.47,339.36L470.53,337.48L473.7,328.78L474.76,332.4L475.81,331.6L476.87,317.66L481.1,262.08L482.16,261.3L483.22,258.71L484.27,234.52L486.39,207.38L487.44,203.35L488.5,197.5L489.56,180.18L490.62,178.69L491.67,182.67L492.73,189.21L493.79,188.63L494.85,186.92L495.9,182.14L498.02,173.59L499.08,157.38L504.36,72.86L505.42,68.69L507.53,24.1L508.59,18.44L511.76,0L512.82,0.19L514.94,7.07L515.99,12.2L517.05,17.59L518.11,29.85L520.22,42.33L521.28,63.64L526.57,146.42L527.62,150.72L529.74,196.97L530.8,211.25L533.97,241.34L535.03,242.92L538.2,271.55L539.26,278.89L541.37,291.07L542.43,291.45L544.54,303.33L545.6,307.41L548.77,314.51L549.83,314.76L550.89,316.22L551.94,316.25L557.23,306.78L558.29,302.03L560.4,293.39L561.46,291.48L563.58,285.93L564.63,286.29L566.75,281.1L567.8,276.65L570.98,267.05L572.03,266.8L573.09,260.06L574.15,258.46L575.21,258.6L576.26,257.58L577.32,259.12L578.38,259.18L579.44,259.48L580.49,260.56L582.61,261.41L583.67,258.65L585.78,250.26L586.84,250.26L588.95,241.78L590.01,239.77L591.07,241.87L592.12,246.59L593.18,250.54L594.24,250.01L595.3,278.97L596.35,275.58L599.53,291.43L600.58,295.1L601.64,295.76L602.7,284.97L604.81,307.88L605.87,315.01L607.98,322.13L609.04,322.9L612.21,337.07L613.27,340.41L615.39,345.85L616.44,346.21L619.62,350.68L620.67,350.35L621.73,351.45L622.79,350.73L623.84,350.98L624.9,352.14L625.96,352.22L627.02,353.33L634.42,361L635.48,364.21L637.59,363.63L638.65,363.27L640.76,360.84L641.82,361.06L642.88,357.69L643.93,357.39L646.05,356.14L647.11,360.95L651.34,351.64L652.39,349.88L653.45,350.15L654.51,340.96L655.57,340.21L656.62,338.31L658.74,334.22L659.8,332.84L660.85,332.37L661.91,328.34L664.02,321.16" style="vector-effect: non-scaling-stroke; fill: none; stroke: rgb(8, 115, 191); stroke-opacity: 1; stroke-width: 0.5px; opacity: 1;"/></g><g class="points"/><g class="text"/></g><g class="trace scatter trace98db73" style="stroke-miterlimit: 2;"><g class="fills"><g><path class="js-fill" d="M674.6,380L664.02,380L664.02,321.16L667.2,308.24L668.25,307.91L674.6,258.4" style="fill: rgb(8, 115, 191); fill-opacity: 0.4; stroke-width: 0;"/></g></g><g class="errorbars"/><g class="lines"><path class="js-line" d="M664.02,321.16L667.2,308.24L668.25,307.91L674.6,258.4" style="vector-effect: non-scaling-stroke; fill: none; stroke: rgb(8, 115, 191); stroke-opacity: 1; stroke-width: 2px; opacity: 1;"/></g><g class="points"/><g class="text"/></g><g class="trace scatter trace419a37" style="stroke-miterlimit: 2; opacity: 1;"><g class="fills"/><g class="errorbars"/><g class="lines"/><g class="points"><path class="point" transform="translate(674.6,258.4)" d="M15,0A15,15 0 1,1 0,-15A15,15 0 0,1 15,0Z" style="opacity: 1; stroke-width: 0px; fill: rgb(8, 115, 191); fill-opacity: 1;"/></g><g class="text"/></g></g></g><g class="overplot"/><path class="xlines-above crisp" style="fill: none; stroke-width: 1px; stroke: rgb(0, 0, 0); stroke-opacity: 0;" d=""/><path class="ylines-above crisp" style="fill: none;" d="M0,0"/><g class="overlines-above"/><g class="xaxislayer-above"><path class="xtick ticks crisp" d="M0,450v-5" transform="translate(52.11,0)" style="stroke: rgb(68, 68, 68); stroke-opacity: 1; stroke-width: 1px;"/><path class="xtick ticks crisp" d="M0,450v-5" transform="translate(149.39,0)" style="stroke: rgb(68, 68, 68); stroke-opacity: 1; stroke-width: 1px;"/><path class="xtick ticks crisp" d="M0,450v-5" transform="translate(244.56,0)" style="stroke: rgb(68, 68, 68); stroke-opacity: 1; stroke-width: 1px;"/><path class="xtick ticks crisp" d="M0,450v-5" transform="translate(340.78,0)" style="stroke: rgb(68, 68, 68); stroke-opacity: 1; stroke-width: 1px;"/><path class="xtick ticks crisp" d="M0,450v-5" transform="translate(438.05,0)" style="stroke: rgb(68, 68, 68); stroke-opacity: 1; stroke-width: 1px;"/><path class="xtick ticks crisp" d="M0,450v-5" transform="translate(535.3299999999999,0)" style="stroke: rgb(68, 68, 68); stroke-opacity: 1; stroke-width: 1px;"/><path class="xtick ticks crisp" d="M0,450v-5" transform="translate(630.49,0)" style="stroke: rgb(68, 68, 68); stroke-opacity: 1; stroke-width: 1px;"/><path class="xtick ticks crisp" d="M0,450v-5" transform="translate(726.71,0)" style="stroke: rgb(68, 68, 68); stroke-opacity: 1; stroke-width: 1px;"/><g class="xtick"><text text-anchor="middle" x="0" y="469" transform="translate(52.11,0)" style="font-family: 'Open Sans', verdana, arial, sans-serif; font-size: 18px; fill: rgb(42, 63, 95); fill-opacity: 1; white-space: pre;">01/10</text></g><g class="xtick"><text text-anchor="middle" x="0" y="469" transform="translate(149.39,0)" style="font-family: 'Open Sans', verdana, arial, sans-serif; font-size: 18px; fill: rgb(42, 63, 95); fill-opacity: 1; white-space: pre;">01/01</text></g><g class="xtick"><text text-anchor="middle" x="0" y="469" transform="translate(244.56,0)" style="font-family: 'Open Sans', verdana, arial, sans-serif; font-size: 18px; fill: rgb(42, 63, 95); fill-opacity: 1; white-space: pre;">01/04</text></g><g class="xtick"><text text-anchor="middle" x="0" y="469" transform="translate(340.78,0)" style="font-family: 'Open Sans', verdana, arial, sans-serif; font-size: 18px; fill: rgb(42, 63, 95); fill-opacity: 1; white-space: pre;">01/07</text></g><g class="xtick"><text text-anchor="middle" x="0" y="469" transform="translate(438.05,0)" style="font-family: 'Open Sans', verdana, arial, sans-serif; font-size: 18px; fill: rgb(42, 63, 95); fill-opacity: 1; white-space: pre;">01/10</text></g><g class="xtick"><text text-anchor="middle" x="0" y="469" transform="translate(535.3299999999999,0)" style="font-family: 'Open Sans', verdana, arial, sans-serif; font-size: 18px; fill: rgb(42, 63, 95); fill-opacity: 1; white-space: pre;">01/01</text></g><g class="xtick"><text text-anchor="middle" x="0" y="469" transform="translate(630.49,0)" style="font-family: 'Open Sans', verdana, arial, sans-serif; font-size: 18px; fill: rgb(42, 63, 95); fill-opacity: 1; white-space: pre;">01/04</text></g><g class="xtick"><text text-anchor="middle" x="0" y="469" transform="translate(726.71,0)" style="font-family: 'Open Sans', verdana, arial, sans-serif; font-size: 18px; fill: rgb(42, 63, 95); fill-opacity: 1; white-space: pre;">01/07</text></g></g><g class="yaxislayer-above"/><g class="overaxes-above"/></g></g><g class="polarlayer"/><g class="ternarylayer"/><g class="geolayer"/><g class="funnelarealayer"/><g class="pielayer"/><g class="treemaplayer"/><g class="sunburstlayer"/><g class="glimages"/><defs id="topdefs-fa1434"><g class="clips"/></defs><g class="layer-above"><g class="imagelayer"/><g class="shapelayer"><path data-index="0" fill-rule="evenodd" d="M-544.24,444.36L228.69,444.36" clip-path="url('#clipfa1434xy')" style="opacity: 1; stroke: rgb(255, 0, 0); stroke-opacity: 1; fill: rgb(0, 0, 0); fill-opacity: 0; stroke-dasharray: 3px, 3px; stroke-width: 1.5px;"/></g></g><g class="infolayer"><g class="g-gtitle"><text class="gtitle" x="375" y="25" text-anchor="middle" dy="0.7em" style="font-family: 'Open Sans', verdana, arial, sans-serif; font-size: 50px; fill: rgb(42, 63, 95); opacity: 1; font-weight: normal; white-space: pre;"><tspan style="font-weight:bold">Dordogne (24)</tspan></text></g><g class="g-xtitle"/><g class="annotation" data-index="0" style="opacity: 1;"><g class="annotation-text-g" transform="rotate(0,682.6,268.4)"><g class="cursor-pointer" transform="translate(611, 232)"><rect class="bg" x="0.5" y="0.5" width="143" height="71" style="stroke-width: 1px; stroke: rgb(0, 0, 0); stroke-opacity: 0; fill: rgb(255, 255, 255); fill-opacity: 0.6;"/><text class="annotation-text" text-anchor="middle" x="72.078125" y="55.5" style="font-family: 'Open Sans', verdana, arial, sans-serif; font-size: 50px; fill: rgb(8, 115, 191); fill-opacity: 1; white-space: pre;"> <tspan style="font-weight:bold">1078 </tspan></text></g></g><g class="annotation-arrow-g" style="opacity: 1;"><path d="M711,303.9L722.6,318.4" style="stroke-width: 1px; stroke: rgb(8, 115, 191); stroke-opacity: 1; stroke-dasharray: 0px, 0px, 18.569px, 18.569px;"/></g></g></g></svg>