<svg class="main-svg" xmlns="http://www.w3.org/2000/svg" xmlns:xlink="http://www.w3.org/1999/xlink" width="1125" height="750" style="" viewBox="0 0 750 500"><rect x="0" y="0" width="750" height="500" style="fill: rgb(0, 0, 0); fill-opacity: 0;"/><defs id="defs-afb71d"><g class="clips"><clipPath id="clipafb71dxyplot" class="plotclip"><rect width="700" height="380"/></clipPath><clipPath class="axesclip" id="clipafb71dx"><rect x="50" y="0" width="700" height="500"/></clipPath><clipPath class="axesclip" id="clipafb71dy"><rect x="0" y="70" width="750" height="380"/></clipPath><clipPath class="axesclip" id="clipafb71dxy"><rect x="50" y="70" width="700" height="380"/></clipPath></g><g class="gradients"/></defs><g class="bglayer"><rect class="bg" x="50" y="70" width="700" height="380" style="fill: rgb(0, 0, 0); fill-opacity: 0; stroke-width: 0;"/></g><g class="layer-below"><g class="imagelayer"/><g class="shapelayer"/></g><g class="cartesianlayer"><g class="subplot xy"><g class="layer-subplot"><g class="shapelayer"/><g class="imagelayer"/></g><g class="gridlayer"><g class="x"><path class="xgrid crisp" transform="translate(108.33,0)" d="M0,70v380" style="stroke: rgb(255, 255, 255); stroke-opacity: 1; stroke-width: 1px;"/><path class="xgrid crisp" transform="translate(216.16,0)" d="M0,70v380" style="stroke: rgb(255, 255, 255); stroke-opacity: 1; stroke-width: 1px;"/><path class="xgrid crisp" transform="translate(320.45,0)" d="M0,70v380" style="stroke: rgb(255, 255, 255); stroke-opacity: 1; stroke-width: 1px;"/><path class="xgrid crisp" transform="translate(428.28,0)" d="M0,70v380" style="stroke: rgb(255, 255, 255); stroke-opacity: 1; stroke-width: 1px;"/><path class="xgrid crisp" transform="translate(536.11,0)" d="M0,70v380" style="stroke: rgb(255, 255, 255); stroke-opacity: 1; stroke-width: 1px;"/><path class="xgrid crisp" transform="translate(645.71,0)" d="M0,70v380" style="stroke: rgb(255, 255, 255); stroke-opacity: 1; stroke-width: 1px;"/></g><g class="y"/></g><g class="zerolinelayer"/><path class="xlines-below"/><path class="ylines-below"/><g class="overlines-below"/><g class="xaxislayer-below"/><g class="yaxislayer-below"/><g class="overaxes-below"/><g class="plot" transform="translate(50, 70)" clip-path="url('#clipafb71dxyplot')"><g class="scatterlayer mlayer"><g class="trace scatter trace0b5ca2" style="stroke-miterlimit: 2;"><g class="fills"><g><path class="js-fill" d="M669.95,380L-240.4,380L-240.4,367.26L-238.64,368.54L-236.87,375.75L-229.8,376.39L-228.03,377.03L-220.96,379.15L-219.19,379.36L-206.82,379.58L-205.05,379.58L-109.6,379.15L-107.83,379.36L-104.29,378.51L-102.53,377.66L-91.92,375.12L-90.15,373.21L-84.85,370.66L-83.08,370.66L-76.01,368.11L-74.24,368.11L-65.4,363.65L-63.64,360.68L-61.87,358.35L-60.1,358.56L-58.33,358.56L-56.57,355.59L-53.03,347.73L-51.26,346.46L-47.73,340.94L-45.96,340.94L-44.19,341.36L-42.42,343.27L-40.66,342.85L-38.89,344.97L-35.35,347.73L-33.59,347.94L-31.82,347.52L-30.05,344.97L-28.28,343.7L-26.52,339.88L-22.98,335.42L-21.21,334.99L-19.44,330.75L-17.68,330.96L-15.91,332.66L-14.14,332.45L-12.37,328.2L-10.61,327.99L-8.84,327.99L-7.07,329.26L-5.3,328.2L-3.54,325.02L-1.77,319.92L0,322.04L3.54,321.83L5.3,318.65L7.07,308.88L8.84,305.91L10.61,305.06L12.37,300.82L14.14,297.84L15.91,297.63L17.68,286.8L19.44,286.17L21.21,279.37L22.98,278.74L24.75,272.79L26.52,270.03L28.28,268.97L30.05,255.39L33.59,226.94L35.35,211.87L37.12,186.18L38.89,182.99L40.66,182.99L42.42,156.67L44.19,150.09L45.96,134.59L47.73,122.28L49.49,116.76L51.26,121.01L53.03,122.07L54.8,120.16L56.57,111.45L58.33,113.58L60.1,119.94L61.87,125.04L63.64,119.94L65.4,117.18L67.17,136.72L68.94,154.97L70.71,195.31L72.47,201.89L74.24,229.91L76.01,237.34L77.78,239.46L81.31,288.08L83.08,279.37L84.85,299.33L86.62,307.82L88.38,311.22L90.15,312.49L91.92,325.02L93.69,331.39L100.76,341.36L102.53,341.15L104.29,337.33L106.06,335.84L107.83,337.54L109.6,336.06L111.36,332.66L113.13,330.96L114.9,330.96L116.67,333.3L118.43,331.6L120.2,331.39L121.97,332.02L123.74,333.93L129.04,330.54L130.81,329.05L132.58,330.54L134.34,327.35L136.11,321.2L137.88,319.92L139.65,319.71L141.41,313.98L144.95,295.3L146.72,292.54L148.48,307.4L150.25,305.06L152.02,303.58L153.79,300.82L155.56,296.99L157.32,278.53L159.09,279.59L160.86,278.95L162.63,274.28L164.39,275.77L166.16,258.78L167.93,258.15L169.7,270.88L171.46,263.45L173.23,243.07L175,245.2L176.77,244.77L178.54,250.93L180.3,258.99L182.07,245.41L183.84,246.68L185.61,249.87L187.37,251.56L189.14,251.35L190.91,246.04L192.68,236.49L194.44,243.92L196.21,241.16L199.75,236.49L201.52,235.85L203.28,233.73L205.05,229.7L206.82,227.58L208.59,222.48L210.35,220.78L212.12,216.96L213.89,216.96L215.66,217.81L217.42,224.39L219.19,227.79L220.96,228L222.73,230.55L224.49,232.03L226.26,232.03L228.03,244.77L229.8,249.02L231.57,250.29L233.33,257.08L236.87,258.57L238.64,258.15L240.4,260.06L242.17,269.61L243.94,279.37L245.71,284.47L249.24,294.87L251.01,296.99L252.78,301.88L254.55,297.63L256.31,297.21L258.08,298.69L261.62,299.54L263.38,298.48L265.15,295.3L266.92,298.27L268.69,302.3L270.45,303.79L272.22,306.12L273.99,306.76L275.76,308.03L277.53,313.55L279.29,311.85L281.06,307.4L284.6,303.36L286.36,302.09L288.13,301.03L289.9,289.14L291.67,283.62L293.43,282.13L296.97,278.1L298.74,274.49L300.51,273.64L302.27,268.12L304.04,264.09L305.81,256.87L307.58,249.44L309.34,236.49L311.11,232.88L312.88,233.09L318.18,199.55L319.95,189.36L321.72,187.03L323.48,182.57L325.25,181.72L327.02,222.91L328.79,210.38L330.56,210.38L332.32,214.84L334.09,212.29L335.86,216.11L337.63,217.81L339.39,179.6L341.16,199.77L342.93,209.53L344.7,212.93L346.46,217.6L348.23,219.72L351.77,216.75L353.54,212.5L357.07,203.16L358.84,200.61L360.61,198.07L362.37,198.92L367.68,216.32L369.44,228.64L371.21,235.43L372.98,250.08L374.75,250.5L376.52,258.99L378.28,264.94L380.05,276.19L381.82,278.53L383.59,282.56L385.35,282.77L387.12,281.71L390.66,295.93L392.42,294.23L394.19,308.03L395.96,314.19L397.73,308.46L399.49,309.52L401.26,319.28L403.03,319.07L404.8,325.02L406.57,317.8L410.1,325.02L411.87,325.65L413.64,336.06L415.4,329.26L417.17,333.3L418.94,333.93L420.71,335.21L422.47,334.15L424.24,333.08L426.01,322.26L427.78,333.93L429.55,334.36L433.08,337.33L434.85,340.51L436.62,341.15L438.38,348.79L440.15,351.34L441.92,356.01L445.45,361.11L447.22,362.59L448.99,363.02L450.76,364.5L452.53,366.84L454.29,367.05L457.83,371.08L459.6,370.02L461.36,370.02L463.13,372.15L468.43,370.23L470.2,370.45L475.51,370.45L477.27,371.3L479.04,371.72L480.81,370.02L482.58,368.96L484.34,369.39L486.11,369.39L487.88,364.5L489.65,361.11L491.41,356.01L496.72,342L498.48,341.36L502.02,316.1L503.79,319.5L507.32,274.7L509.09,259.21L510.86,258.15L512.63,206.13L514.39,174.08L516.16,115.06L521.46,41.61L523.23,38.64L526.77,0L528.54,2.76L532.07,4.03L533.84,11.89L535.61,10.61L537.37,25.9L540.91,42.88L542.68,37.79L544.44,36.73L546.21,40.55L547.98,40.76L549.75,33.12L555.05,58.59L556.82,72.82L558.59,67.08L560.35,67.51L562.12,85.55L563.89,85.98L565.66,87.89L567.42,97.02L569.19,105.51L570.96,120.79L572.73,123.34L574.49,146.69L576.26,160.28L578.03,180.45L581.57,208.47L583.33,207.41L585.1,208.47L586.87,220.36L588.64,228.21L590.4,232.46L593.94,252.84L595.71,256.87L597.47,257.51L599.24,265.36L604.55,289.14L606.31,292.32L608.08,297.21L609.85,296.36L613.38,314.61L615.15,313.98L620.45,322.04L622.22,323.11L623.99,331.17L625.76,333.3L627.53,336.48L629.29,332.45L631.06,332.02L632.83,334.78L634.6,334.15L636.36,325.87L638.13,323.11L639.9,324.38L643.43,329.05L645.2,326.93L646.97,327.78L648.74,334.57L650.51,339.03L652.27,337.33L654.04,338.82L655.81,338.18L657.58,341.15L659.34,341.15L661.11,342.21L662.88,340.73L666.41,345.18L668.18,348.79L669.95,350.49" style="fill: rgb(8, 115, 191); fill-opacity: 0.2; stroke-width: 0;"/></g></g><g class="errorbars"/><g class="lines"><path class="js-line" d="M-240.4,367.26L-238.64,368.54L-236.87,375.75L-229.8,376.39L-228.03,377.03L-220.96,379.15L-219.19,379.36L-206.82,379.58L-205.05,379.58L-109.6,379.15L-107.83,379.36L-104.29,378.51L-102.53,377.66L-91.92,375.12L-90.15,373.21L-84.85,370.66L-83.08,370.66L-76.01,368.11L-74.24,368.11L-65.4,363.65L-63.64,360.68L-61.87,358.35L-60.1,358.56L-58.33,358.56L-56.57,355.59L-53.03,347.73L-51.26,346.46L-47.73,340.94L-45.96,340.94L-44.19,341.36L-42.42,343.27L-40.66,342.85L-38.89,344.97L-35.35,347.73L-33.59,347.94L-31.82,347.52L-30.05,344.97L-28.28,343.7L-26.52,339.88L-22.98,335.42L-21.21,334.99L-19.44,330.75L-17.68,330.96L-15.91,332.66L-14.14,332.45L-12.37,328.2L-10.61,327.99L-8.84,327.99L-7.07,329.26L-5.3,328.2L-3.54,325.02L-1.77,319.92L0,322.04L3.54,321.83L5.3,318.65L7.07,308.88L8.84,305.91L10.61,305.06L12.37,300.82L14.14,297.84L15.91,297.63L17.68,286.8L19.44,286.17L21.21,279.37L22.98,278.74L24.75,272.79L26.52,270.03L28.28,268.97L30.05,255.39L33.59,226.94L35.35,211.87L37.12,186.18L38.89,182.99L40.66,182.99L42.42,156.67L44.19,150.09L45.96,134.59L47.73,122.28L49.49,116.76L51.26,121.01L53.03,122.07L54.8,120.16L56.57,111.45L58.33,113.58L60.1,119.94L61.87,125.04L63.64,119.94L65.4,117.18L67.17,136.72L68.94,154.97L70.71,195.31L72.47,201.89L74.24,229.91L76.01,237.34L77.78,239.46L81.31,288.08L83.08,279.37L84.85,299.33L86.62,307.82L88.38,311.22L90.15,312.49L91.92,325.02L93.69,331.39L100.76,341.36L102.53,341.15L104.29,337.33L106.06,335.84L107.83,337.54L109.6,336.06L111.36,332.66L113.13,330.96L114.9,330.96L116.67,333.3L118.43,331.6L120.2,331.39L121.97,332.02L123.74,333.93L129.04,330.54L130.81,329.05L132.58,330.54L134.34,327.35L136.11,321.2L137.88,319.92L139.65,319.71L141.41,313.98L144.95,295.3L146.72,292.54L148.48,307.4L150.25,305.06L152.02,303.58L153.79,300.82L155.56,296.99L157.32,278.53L159.09,279.59L160.86,278.95L162.63,274.28L164.39,275.77L166.16,258.78L167.93,258.15L169.7,270.88L171.46,263.45L173.23,243.07L175,245.2L176.77,244.77L178.54,250.93L180.3,258.99L182.07,245.41L183.84,246.68L185.61,249.87L187.37,251.56L189.14,251.35L190.91,246.04L192.68,236.49L194.44,243.92L196.21,241.16L199.75,236.49L201.52,235.85L203.28,233.73L205.05,229.7L206.82,227.58L208.59,222.48L210.35,220.78L212.12,216.96L213.89,216.96L215.66,217.81L217.42,224.39L219.19,227.79L220.96,228L222.73,230.55L224.49,232.03L226.26,232.03L228.03,244.77L229.8,249.02L231.57,250.29L233.33,257.08L236.87,258.57L238.64,258.15L240.4,260.06L242.17,269.61L243.94,279.37L245.71,284.47L249.24,294.87L251.01,296.99L252.78,301.88L254.55,297.63L256.31,297.21L258.08,298.69L261.62,299.54L263.38,298.48L265.15,295.3L266.92,298.27L268.69,302.3L270.45,303.79L272.22,306.12L273.99,306.76L275.76,308.03L277.53,313.55L279.29,311.85L281.06,307.4L284.6,303.36L286.36,302.09L288.13,301.03L289.9,289.14L291.67,283.62L293.43,282.13L296.97,278.1L298.74,274.49L300.51,273.64L302.27,268.12L304.04,264.09L305.81,256.87L307.58,249.44L309.34,236.49L311.11,232.88L312.88,233.09L318.18,199.55L319.95,189.36L321.72,187.03L323.48,182.57L325.25,181.72L327.02,222.91L328.79,210.38L330.56,210.38L332.32,214.84L334.09,212.29L335.86,216.11L337.63,217.81L339.39,179.6L341.16,199.77L342.93,209.53L344.7,212.93L346.46,217.6L348.23,219.72L351.77,216.75L353.54,212.5L357.07,203.16L358.84,200.61L360.61,198.07L362.37,198.92L367.68,216.32L369.44,228.64L371.21,235.43L372.98,250.08L374.75,250.5L376.52,258.99L378.28,264.94L380.05,276.19L381.82,278.53L383.59,282.56L385.35,282.77L387.12,281.71L390.66,295.93L392.42,294.23L394.19,308.03L395.96,314.19L397.73,308.46L399.49,309.52L401.26,319.28L403.03,319.07L404.8,325.02L406.57,317.8L410.1,325.02L411.87,325.65L413.64,336.06L415.4,329.26L417.17,333.3L418.94,333.93L420.71,335.21L422.47,334.15L424.24,333.08L426.01,322.26L427.78,333.93L429.55,334.36L433.08,337.33L434.85,340.51L436.62,341.15L438.38,348.79L440.15,351.34L441.92,356.01L445.45,361.11L447.22,362.59L448.99,363.02L450.76,364.5L452.53,366.84L454.29,367.05L457.83,371.08L459.6,370.02L461.36,370.02L463.13,372.15L468.43,370.23L470.2,370.45L475.51,370.45L477.27,371.3L479.04,371.72L480.81,370.02L482.58,368.96L484.34,369.39L486.11,369.39L487.88,364.5L489.65,361.11L491.41,356.01L496.72,342L498.48,341.36L502.02,316.1L503.79,319.5L507.32,274.7L509.09,259.21L510.86,258.15L512.63,206.13L514.39,174.08L516.16,115.06L521.46,41.61L523.23,38.64L526.77,0L528.54,2.76L532.07,4.03L533.84,11.89L535.61,10.61L537.37,25.9L540.91,42.88L542.68,37.79L544.44,36.73L546.21,40.55L547.98,40.76L549.75,33.12L555.05,58.59L556.82,72.82L558.59,67.08L560.35,67.51L562.12,85.55L563.89,85.98L565.66,87.89L567.42,97.02L569.19,105.51L570.96,120.79L572.73,123.34L574.49,146.69L576.26,160.28L578.03,180.45L581.57,208.47L583.33,207.41L585.1,208.47L586.87,220.36L588.64,228.21L590.4,232.46L593.94,252.84L595.71,256.87L597.47,257.51L599.24,265.36L604.55,289.14L606.31,292.32L608.08,297.21L609.85,296.36L613.38,314.61L615.15,313.98L620.45,322.04L622.22,323.11L623.99,331.17L625.76,333.3L627.53,336.48L629.29,332.45L631.06,332.02L632.83,334.78L634.6,334.15L636.36,325.87L638.13,323.11L639.9,324.38L643.43,329.05L645.2,326.93L646.97,327.78L648.74,334.57L650.51,339.03L652.27,337.33L654.04,338.82L655.81,338.18L657.58,341.15L659.34,341.15L661.11,342.21L662.88,340.73L666.41,345.18L668.18,348.79L669.95,350.49" style="vector-effect: non-scaling-stroke; fill: none; stroke: rgb(8, 115, 191); stroke-opacity: 1; stroke-width: 0.5px; opacity: 1;"/></g><g class="points"/><g class="text"/></g><g class="trace scatter traced0a734" style="stroke-miterlimit: 2;"><g class="fills"><g><path class="js-fill" d="M687.63,380L669.95,380L669.95,350.49L671.72,351.13L673.48,349.85L677.02,343.06L678.79,340.73L680.56,336.27L682.32,336.06L684.09,335.42L685.86,332.23L687.63,335.21" style="fill: rgb(8, 115, 191); fill-opacity: 0.4; stroke-width: 0;"/></g></g><g class="errorbars"/><g class="lines"><path class="js-line" d="M669.95,350.49L671.72,351.13L673.48,349.85L677.02,343.06L678.79,340.73L680.56,336.27L682.32,336.06L684.09,335.42L685.86,332.23L687.63,335.21" style="vector-effect: non-scaling-stroke; fill: none; stroke: rgb(8, 115, 191); stroke-opacity: 1; stroke-width: 2px; opacity: 1;"/></g><g class="points"/><g class="text"/></g><g class="trace scatter tracedf82e9" style="stroke-miterlimit: 2; opacity: 1;"><g class="fills"/><g class="errorbars"/><g class="lines"/><g class="points"><path class="point" transform="translate(687.63,335.21)" d="M15,0A15,15 0 1,1 0,-15A15,15 0 0,1 15,0Z" style="opacity: 1; stroke-width: 0px; fill: rgb(8, 115, 191); fill-opacity: 1;"/></g><g class="text"/></g></g></g><g class="overplot"/><path class="xlines-above crisp" style="fill: none; stroke-width: 1px; stroke: rgb(0, 0, 0); stroke-opacity: 0;" d=""/><path class="ylines-above crisp" style="fill: none;" d="M0,0"/><g class="overlines-above"/><g class="xaxislayer-above"><path class="xtick ticks crisp" d="M0,450v-5" transform="translate(108.33,0)" style="stroke: rgb(68, 68, 68); stroke-opacity: 1; stroke-width: 1px;"/><path class="xtick ticks crisp" d="M0,450v-5" transform="translate(216.16,0)" style="stroke: rgb(68, 68, 68); stroke-opacity: 1; stroke-width: 1px;"/><path class="xtick ticks crisp" d="M0,450v-5" transform="translate(320.45,0)" style="stroke: rgb(68, 68, 68); stroke-opacity: 1; stroke-width: 1px;"/><path class="xtick ticks crisp" d="M0,450v-5" transform="translate(428.28,0)" style="stroke: rgb(68, 68, 68); stroke-opacity: 1; stroke-width: 1px;"/><path class="xtick ticks crisp" d="M0,450v-5" transform="translate(536.11,0)" style="stroke: rgb(68, 68, 68); stroke-opacity: 1; stroke-width: 1px;"/><path class="xtick ticks crisp" d="M0,450v-5" transform="translate(645.71,0)" style="stroke: rgb(68, 68, 68); stroke-opacity: 1; stroke-width: 1px;"/><g class="xtick"><text text-anchor="middle" x="0" y="469" transform="translate(108.33,0)" style="font-family: 'Open Sans', verdana, arial, sans-serif; font-size: 18px; fill: rgb(42, 63, 95); fill-opacity: 1; white-space: pre;">01/11</text></g><g class="xtick"><text text-anchor="middle" x="0" y="469" transform="translate(216.16,0)" style="font-family: 'Open Sans', verdana, arial, sans-serif; font-size: 18px; fill: rgb(42, 63, 95); fill-opacity: 1; white-space: pre;">01/01</text></g><g class="xtick"><text text-anchor="middle" x="0" y="469" transform="translate(320.45,0)" style="font-family: 'Open Sans', verdana, arial, sans-serif; font-size: 18px; fill: rgb(42, 63, 95); fill-opacity: 1; white-space: pre;">01/03</text></g><g class="xtick"><text text-anchor="middle" x="0" y="469" transform="translate(428.28,0)" style="font-family: 'Open Sans', verdana, arial, sans-serif; font-size: 18px; fill: rgb(42, 63, 95); fill-opacity: 1; white-space: pre;">01/05</text></g><g class="xtick"><text text-anchor="middle" x="0" y="469" transform="translate(536.11,0)" style="font-family: 'Open Sans', verdana, arial, sans-serif; font-size: 18px; fill: rgb(42, 63, 95); fill-opacity: 1; white-space: pre;">01/07</text></g><g class="xtick"><text text-anchor="middle" x="0" y="469" transform="translate(645.71,0)" style="font-family: 'Open Sans', verdana, arial, sans-serif; font-size: 18px; fill: rgb(42, 63, 95); fill-opacity: 1; white-space: pre;">01/09</text></g></g><g class="yaxislayer-above"/><g class="overaxes-above"/></g></g><g class="polarlayer"/><g class="ternarylayer"/><g class="geolayer"/><g class="funnelarealayer"/><g class="pielayer"/><g class="treemaplayer"/><g class="sunburstlayer"/><g class="glimages"/><defs id="topdefs-afb71d"><g class="clips"/></defs><g class="layer-above"><g class="imagelayer"/><g class="shapelayer"><path data-index="0" fill-rule="evenodd" d="M-943.43,410.44L348.74,410.44" clip-path="url('#clipafb71dxy')" style="opacity: 1; stroke: rgb(255, 0, 0); stroke-opacity: 1; fill: rgb(0, 0, 0); fill-opacity: 0; stroke-dasharray: 3px, 3px; stroke-width: 1.5px;"/></g></g><g class="infolayer"><g class="g-gtitle"><text class="gtitle" x="375" y="25" text-anchor="middle" dy="0.7em" style="font-family: 'Open Sans', verdana, arial, sans-serif; font-size: 50px; fill: rgb(42, 63, 95); opacity: 1; font-weight: normal; white-space: pre;"><tspan style="font-weight:bold">Aude (11)</tspan></text></g><g class="g-xtitle"/><g class="annotation" data-index="0" style="opacity: 1;"><g class="annotation-text-g" transform="rotate(0,695.63,345.21)"><g class="cursor-pointer" transform="translate(652, 309)"><rect class="bg" x="0.5" y="0.5" width="86" height="71" style="stroke-width: 1px; stroke: rgb(0, 0, 0); stroke-opacity: 0; fill: rgb(255, 255, 255); fill-opacity: 0.6;"/><text class="annotation-text" text-anchor="middle" x="43.53125" y="55.5" style="font-family: 'Open Sans', verdana, arial, sans-serif; font-size: 50px; fill: rgb(8, 115, 191); fill-opacity: 1; white-space: pre;"> <tspan style="font-weight:bold">56 </tspan></text></g></g><g class="annotation-arrow-g" style="opacity: 1;"><path d="M724.03,380.71L735.63,395.21" style="stroke-width: 1px; stroke: rgb(8, 115, 191); stroke-opacity: 1; stroke-dasharray: 0px, 0px, 18.569px, 18.569px;"/></g></g></g></svg>