<svg class="main-svg" xmlns="http://www.w3.org/2000/svg" xmlns:xlink="http://www.w3.org/1999/xlink" width="1125" height="750" style="" viewBox="0 0 750 500"><rect x="0" y="0" width="750" height="500" style="fill: rgb(0, 0, 0); fill-opacity: 0;"/><defs id="defs-4859e4"><g class="clips"><clipPath id="clip4859e4xyplot" class="plotclip"><rect width="700" height="380"/></clipPath><clipPath class="axesclip" id="clip4859e4x"><rect x="50" y="0" width="700" height="500"/></clipPath><clipPath class="axesclip" id="clip4859e4y"><rect x="0" y="70" width="750" height="380"/></clipPath><clipPath class="axesclip" id="clip4859e4xy"><rect x="50" y="70" width="700" height="380"/></clipPath></g><g class="gradients"/></defs><g class="bglayer"><rect class="bg" x="50" y="70" width="700" height="380" style="fill: rgb(0, 0, 0); fill-opacity: 0; stroke-width: 0;"/></g><g class="layer-below"><g class="imagelayer"/><g class="shapelayer"/></g><g class="cartesianlayer"><g class="subplot xy"><g class="layer-subplot"><g class="shapelayer"/><g class="imagelayer"/></g><g class="gridlayer"><g class="x"><path class="xgrid crisp" transform="translate(91.55,0)" d="M0,70v380" style="stroke: rgb(255, 255, 255); stroke-opacity: 1; stroke-width: 1px;"/><path class="xgrid crisp" transform="translate(168.35,0)" d="M0,70v380" style="stroke: rgb(255, 255, 255); stroke-opacity: 1; stroke-width: 1px;"/><path class="xgrid crisp" transform="translate(242.63,0)" d="M0,70v380" style="stroke: rgb(255, 255, 255); stroke-opacity: 1; stroke-width: 1px;"/><path class="xgrid crisp" transform="translate(319.42,0)" d="M0,70v380" style="stroke: rgb(255, 255, 255); stroke-opacity: 1; stroke-width: 1px;"/><path class="xgrid crisp" transform="translate(396.22,0)" d="M0,70v380" style="stroke: rgb(255, 255, 255); stroke-opacity: 1; stroke-width: 1px;"/><path class="xgrid crisp" transform="translate(474.28,0)" d="M0,70v380" style="stroke: rgb(255, 255, 255); stroke-opacity: 1; stroke-width: 1px;"/><path class="xgrid crisp" transform="translate(551.0799999999999,0)" d="M0,70v380" style="stroke: rgb(255, 255, 255); stroke-opacity: 1; stroke-width: 1px;"/><path class="xgrid crisp" transform="translate(627.88,0)" d="M0,70v380" style="stroke: rgb(255, 255, 255); stroke-opacity: 1; stroke-width: 1px;"/><path class="xgrid crisp" transform="translate(702.16,0)" d="M0,70v380" style="stroke: rgb(255, 255, 255); stroke-opacity: 1; stroke-width: 1px;"/></g><g class="y"/></g><g class="zerolinelayer"/><path class="xlines-below"/><path class="ylines-below"/><g class="overlines-below"/><g class="xaxislayer-below"/><g class="yaxislayer-below"/><g class="overaxes-below"/><g class="plot" transform="translate(50, 70)" clip-path="url('#clip4859e4xyplot')"><g class="scatterlayer mlayer"><g class="trace scatter trace18e4b4" style="stroke-miterlimit: 2;"><g class="fills"><g><path class="js-fill" d="M678.6,380L-171.22,380L-171.22,378.78L-143.53,379.43L-142.27,379.5L-59.17,376.98L-57.91,376.48L-45.32,374.64L-44.06,374.01L-28.96,370.82L-27.7,370.16L-22.66,369.04L-21.4,369.01L-16.37,368.07L-15.11,367.91L-7.55,367.3L-6.29,367.5L-1.26,367.32L0,366.58L2.52,366.17L3.78,364.3L6.29,360.8L7.55,359.1L10.07,356.89L11.33,356.82L17.63,350.47L18.88,350.39L20.14,350.3L21.4,348.47L27.7,336.1L28.96,335.71L31.47,331.25L32.73,330.48L36.51,331.74L37.77,331.89L40.29,334.83L41.55,337.9L45.32,344.38L46.58,344.36L50.36,355.13L51.62,357.07L54.14,359.81L55.4,360.19L57.91,363.55L59.17,362.41L61.69,365.49L62.95,365.7L64.21,365.81L65.47,367.12L67.99,368.54L69.24,369.1L75.54,370.1L76.8,370.18L80.58,370.03L81.83,370.03L84.35,369.75L85.61,369.94L89.39,369.3L90.65,369.3L91.91,369.51L93.17,368.88L99.46,367.87L100.72,367.67L104.5,367.47L105.76,369.48L115.83,367.41L117.09,367.38L119.6,366.48L120.86,366.75L122.12,366.61L123.38,364.43L125.9,365.15L127.16,365.68L132.19,366.04L133.45,365.8L137.23,364.95L138.49,363.99L141.01,363.29L142.27,363.23L147.3,362.69L148.56,362.3L157.37,361.33L158.63,360.79L164.93,360.58L166.19,361.25L171.22,361.62L172.48,361.26L176.26,359.34L177.52,358.68L178.78,358.64L180.04,357.4L183.81,356.92L185.07,357.24L192.63,357.55L193.88,357.51L198.92,356.49L200.18,355.92L203.96,351.55L205.22,351.11L210.25,340.13L211.51,337.21L217.81,331.18L219.06,330.21L221.58,329.46L222.84,329.63L224.1,329.27L225.36,327.86L226.62,326.57L227.88,326.82L231.65,329.34L232.91,338.46L234.17,337.23L235.43,338.65L237.95,339.42L239.21,339.47L240.47,339.36L241.73,332.63L244.24,339.39L245.5,341.44L248.02,343.42L249.28,343.24L254.32,345.34L255.58,346.51L258.09,347.2L259.35,348.13L264.39,354.12L265.65,356.99L266.91,356.72L268.17,358.27L273.2,359.37L274.46,359.33L275.72,359.32L276.98,360.12L279.5,360.8L280.76,363.6L282.01,363.57L283.27,362.67L288.31,364.63L289.57,362.89L292.09,364.36L293.35,364.46L294.6,367.75L295.86,367.96L302.16,369.22L303.42,367.94L305.94,369.93L307.19,370.66L309.71,371.9L310.97,372.01L318.53,375.49L319.78,375.56L323.56,376.6L324.82,376.84L333.63,377.64L334.89,377.92L341.19,377.74L342.45,377.52L346.22,376.49L347.48,376.05L358.81,374.97L360.07,373.64L362.59,371.95L363.85,371.75L367.63,366.18L368.88,365.86L375.18,363.52L376.44,363.57L381.47,363.66L382.73,363.62L386.51,363L387.77,363.01L392.81,361.67L394.06,360.75L400.36,360.27L401.62,360.8L405.4,361.11L406.65,361L409.17,361.3L410.43,361.66L417.99,364.01L419.24,364.16L426.8,367.03L428.06,367.96L434.35,370.09L435.61,370.45L444.42,370.78L445.68,371.18L453.24,372.84L454.5,372.83L459.53,373.6L460.79,373.71L469.6,373.86L470.86,373.46L479.68,372.33L480.94,372.29L489.75,371.99L491.01,372.08L496.04,371.33L497.3,372.39L499.82,371.36L501.08,371.31L504.86,371.65L506.12,369.87L507.37,370.27L508.63,369.84L509.89,370.73L511.15,370.23L513.67,370.14L514.93,369.05L517.45,367.29L518.71,364.87L523.74,359.21L525,356.61L528.78,350.22L530.04,348.45L531.29,348.69L532.55,346.2L542.63,332.81L543.88,332.39L547.66,333.19L548.92,333.93L551.44,332.94L552.7,331.58L557.73,322.76L558.99,316.72L564.03,276.69L565.29,281.25L566.55,277.31L567.81,241.42L572.84,129.04L574.1,125.63L575.36,119.93L576.62,87.93L577.88,71.18L579.14,67.5L580.4,63.48L581.65,54.85L582.91,21.16L584.17,18.01L585.43,29.21L586.69,33L587.95,29.12L589.21,30.32L592.99,16.27L594.24,7.66L595.5,6.66L596.76,2.52L598.02,0L599.28,4.82L601.8,13.62L603.06,25.9L609.35,101.53L610.61,106.08L614.39,161.55L615.65,174.46L618.17,200.19L619.42,205.01L621.94,237L623.2,249.91L626.98,278.52L628.24,281.23L630.76,298.29L632.01,303.88L635.79,317.15L637.05,318.32L639.57,329.33L640.83,334.51L644.6,342.11L645.86,342.38L649.64,346.17L650.9,346.82L653.42,347.02L654.68,346.96L662.23,335.31L663.49,334.77L671.04,302.78L672.3,300.95L676.08,263.53L677.34,252.61L678.6,243.54" style="fill: rgb(8, 115, 191); fill-opacity: 0.2; stroke-width: 0;"/></g></g><g class="errorbars"/><g class="lines"><path class="js-line" d="M-171.22,378.78L-143.53,379.43L-142.27,379.5L-59.17,376.98L-57.91,376.48L-45.32,374.64L-44.06,374.01L-28.96,370.82L-27.7,370.16L-22.66,369.04L-21.4,369.01L-16.37,368.07L-15.11,367.91L-7.55,367.3L-6.29,367.5L-1.26,367.32L0,366.58L2.52,366.17L3.78,364.3L6.29,360.8L7.55,359.1L10.07,356.89L11.33,356.82L17.63,350.47L18.88,350.39L20.14,350.3L21.4,348.47L27.7,336.1L28.96,335.71L31.47,331.25L32.73,330.48L36.51,331.74L37.77,331.89L40.29,334.83L41.55,337.9L45.32,344.38L46.58,344.36L50.36,355.13L51.62,357.07L54.14,359.81L55.4,360.19L57.91,363.55L59.17,362.41L61.69,365.49L62.95,365.7L64.21,365.81L65.47,367.12L67.99,368.54L69.24,369.1L75.54,370.1L76.8,370.18L80.58,370.03L81.83,370.03L84.35,369.75L85.61,369.94L89.39,369.3L90.65,369.3L91.91,369.51L93.17,368.88L99.46,367.87L100.72,367.67L104.5,367.47L105.76,369.48L115.83,367.41L117.09,367.38L119.6,366.48L120.86,366.75L122.12,366.61L123.38,364.43L125.9,365.15L127.16,365.68L132.19,366.04L133.45,365.8L137.23,364.95L138.49,363.99L141.01,363.29L142.27,363.23L147.3,362.69L148.56,362.3L157.37,361.33L158.63,360.79L164.93,360.58L166.19,361.25L171.22,361.62L172.48,361.26L176.26,359.34L177.52,358.68L178.78,358.64L180.04,357.4L183.81,356.92L185.07,357.24L192.63,357.55L193.88,357.51L198.92,356.49L200.18,355.92L203.96,351.55L205.22,351.11L210.25,340.13L211.51,337.21L217.81,331.18L219.06,330.21L221.58,329.46L222.84,329.63L224.1,329.27L225.36,327.86L226.62,326.57L227.88,326.82L231.65,329.34L232.91,338.46L234.17,337.23L235.43,338.65L237.95,339.42L239.21,339.47L240.47,339.36L241.73,332.63L244.24,339.39L245.5,341.44L248.02,343.42L249.28,343.24L254.32,345.34L255.58,346.51L258.09,347.2L259.35,348.13L264.39,354.12L265.65,356.99L266.91,356.72L268.17,358.27L273.2,359.37L274.46,359.33L275.72,359.32L276.98,360.12L279.5,360.8L280.76,363.6L282.01,363.57L283.27,362.67L288.31,364.63L289.57,362.89L292.09,364.36L293.35,364.46L294.6,367.75L295.86,367.96L302.16,369.22L303.42,367.94L305.94,369.93L307.19,370.66L309.71,371.9L310.97,372.01L318.53,375.49L319.78,375.56L323.56,376.6L324.82,376.84L333.63,377.64L334.89,377.92L341.19,377.74L342.45,377.52L346.22,376.49L347.48,376.05L358.81,374.97L360.07,373.64L362.59,371.95L363.85,371.75L367.63,366.18L368.88,365.86L375.18,363.52L376.44,363.57L381.47,363.66L382.73,363.62L386.51,363L387.77,363.01L392.81,361.67L394.06,360.75L400.36,360.27L401.62,360.8L405.4,361.11L406.65,361L409.17,361.3L410.43,361.66L417.99,364.01L419.24,364.16L426.8,367.03L428.06,367.96L434.35,370.09L435.61,370.45L444.42,370.78L445.68,371.18L453.24,372.84L454.5,372.83L459.53,373.6L460.79,373.71L469.6,373.86L470.86,373.46L479.68,372.33L480.94,372.29L489.75,371.99L491.01,372.08L496.04,371.33L497.3,372.39L499.82,371.36L501.08,371.31L504.86,371.65L506.12,369.87L507.37,370.27L508.63,369.84L509.89,370.73L511.15,370.23L513.67,370.14L514.93,369.05L517.45,367.29L518.71,364.87L523.74,359.21L525,356.61L528.78,350.22L530.04,348.45L531.29,348.69L532.55,346.2L542.63,332.81L543.88,332.39L547.66,333.19L548.92,333.93L551.44,332.94L552.7,331.58L557.73,322.76L558.99,316.72L564.03,276.69L565.29,281.25L566.55,277.31L567.81,241.42L572.84,129.04L574.1,125.63L575.36,119.93L576.62,87.93L577.88,71.18L579.14,67.5L580.4,63.48L581.65,54.85L582.91,21.16L584.17,18.01L585.43,29.21L586.69,33L587.95,29.12L589.21,30.32L592.99,16.27L594.24,7.66L595.5,6.66L596.76,2.52L598.02,0L599.28,4.82L601.8,13.62L603.06,25.9L609.35,101.53L610.61,106.08L614.39,161.55L615.65,174.46L618.17,200.19L619.42,205.01L621.94,237L623.2,249.91L626.98,278.52L628.24,281.23L630.76,298.29L632.01,303.88L635.79,317.15L637.05,318.32L639.57,329.33L640.83,334.51L644.6,342.11L645.86,342.38L649.64,346.17L650.9,346.82L653.42,347.02L654.68,346.96L662.23,335.31L663.49,334.77L671.04,302.78L672.3,300.95L676.08,263.53L677.34,252.61L678.6,243.54" style="vector-effect: non-scaling-stroke; fill: none; stroke: rgb(8, 115, 191); stroke-opacity: 1; stroke-width: 0.5px; opacity: 1;"/></g><g class="points"/><g class="text"/></g><g class="trace scatter trace716f65" style="stroke-miterlimit: 2;"><g class="fills"><g><path class="js-fill" d="M691.19,380L678.6,380L678.6,243.54L679.86,235.88L681.12,234.54L683.63,217.2L684.89,213.97L686.15,213.59L687.41,214.25L688.67,216.59L689.93,216.84L691.19,221.82" style="fill: rgb(8, 115, 191); fill-opacity: 0.4; stroke-width: 0;"/></g></g><g class="errorbars"/><g class="lines"><path class="js-line" d="M678.6,243.54L679.86,235.88L681.12,234.54L683.63,217.2L684.89,213.97L686.15,213.59L687.41,214.25L688.67,216.59L689.93,216.84L691.19,221.82" style="vector-effect: non-scaling-stroke; fill: none; stroke: rgb(8, 115, 191); stroke-opacity: 1; stroke-width: 2px; opacity: 1;"/></g><g class="points"/><g class="text"/></g><g class="trace scatter tracecc67fe" style="stroke-miterlimit: 2; opacity: 1;"><g class="fills"/><g class="errorbars"/><g class="lines"/><g class="points"><path class="point" transform="translate(691.19,221.82)" d="M15,0A15,15 0 1,1 0,-15A15,15 0 0,1 15,0Z" style="opacity: 1; stroke-width: 0px; fill: rgb(8, 115, 191); fill-opacity: 1;"/></g><g class="text"/></g></g></g><g class="overplot"/><path class="xlines-above crisp" style="fill: none; stroke-width: 1px; stroke: rgb(0, 0, 0); stroke-opacity: 0;" d=""/><path class="ylines-above crisp" style="fill: none;" d="M0,0"/><g class="overlines-above"/><g class="xaxislayer-above"><path class="xtick ticks crisp" d="M0,450v-5" transform="translate(91.55,0)" style="stroke: rgb(68, 68, 68); stroke-opacity: 1; stroke-width: 1px;"/><path class="xtick ticks crisp" d="M0,450v-5" transform="translate(168.35,0)" style="stroke: rgb(68, 68, 68); stroke-opacity: 1; stroke-width: 1px;"/><path class="xtick ticks crisp" d="M0,450v-5" transform="translate(242.63,0)" style="stroke: rgb(68, 68, 68); stroke-opacity: 1; stroke-width: 1px;"/><path class="xtick ticks crisp" d="M0,450v-5" transform="translate(319.42,0)" style="stroke: rgb(68, 68, 68); stroke-opacity: 1; stroke-width: 1px;"/><path class="xtick ticks crisp" d="M0,450v-5" transform="translate(396.22,0)" style="stroke: rgb(68, 68, 68); stroke-opacity: 1; stroke-width: 1px;"/><path class="xtick ticks crisp" d="M0,450v-5" transform="translate(474.28,0)" style="stroke: rgb(68, 68, 68); stroke-opacity: 1; stroke-width: 1px;"/><path class="xtick ticks crisp" d="M0,450v-5" transform="translate(551.0799999999999,0)" style="stroke: rgb(68, 68, 68); stroke-opacity: 1; stroke-width: 1px;"/><path class="xtick ticks crisp" d="M0,450v-5" transform="translate(627.88,0)" style="stroke: rgb(68, 68, 68); stroke-opacity: 1; stroke-width: 1px;"/><path class="xtick ticks crisp" d="M0,450v-5" transform="translate(702.16,0)" style="stroke: rgb(68, 68, 68); stroke-opacity: 1; stroke-width: 1px;"/><g class="xtick"><text text-anchor="middle" x="0" y="469" transform="translate(91.55,0)" style="font-family: 'Open Sans', verdana, arial, sans-serif; font-size: 18px; fill: rgb(42, 63, 95); fill-opacity: 1; white-space: pre;">01/11</text></g><g class="xtick"><text text-anchor="middle" x="0" y="469" transform="translate(168.35,0)" style="font-family: 'Open Sans', verdana, arial, sans-serif; font-size: 18px; fill: rgb(42, 63, 95); fill-opacity: 1; white-space: pre;">01/01</text></g><g class="xtick"><text text-anchor="middle" x="0" y="469" transform="translate(242.63,0)" style="font-family: 'Open Sans', verdana, arial, sans-serif; font-size: 18px; fill: rgb(42, 63, 95); fill-opacity: 1; white-space: pre;">01/03</text></g><g class="xtick"><text text-anchor="middle" x="0" y="469" transform="translate(319.42,0)" style="font-family: 'Open Sans', verdana, arial, sans-serif; font-size: 18px; fill: rgb(42, 63, 95); fill-opacity: 1; white-space: pre;">01/05</text></g><g class="xtick"><text text-anchor="middle" x="0" y="469" transform="translate(396.22,0)" style="font-family: 'Open Sans', verdana, arial, sans-serif; font-size: 18px; fill: rgb(42, 63, 95); fill-opacity: 1; white-space: pre;">01/07</text></g><g class="xtick"><text text-anchor="middle" x="0" y="469" transform="translate(474.28,0)" style="font-family: 'Open Sans', verdana, arial, sans-serif; font-size: 18px; fill: rgb(42, 63, 95); fill-opacity: 1; white-space: pre;">01/09</text></g><g class="xtick"><text text-anchor="middle" x="0" y="469" transform="translate(551.0799999999999,0)" style="font-family: 'Open Sans', verdana, arial, sans-serif; font-size: 18px; fill: rgb(42, 63, 95); fill-opacity: 1; white-space: pre;">01/11</text></g><g class="xtick"><text text-anchor="middle" x="0" y="469" transform="translate(627.88,0)" style="font-family: 'Open Sans', verdana, arial, sans-serif; font-size: 18px; fill: rgb(42, 63, 95); fill-opacity: 1; white-space: pre;">01/01</text></g><g class="xtick"><text text-anchor="middle" x="0" y="469" transform="translate(702.16,0)" style="font-family: 'Open Sans', verdana, arial, sans-serif; font-size: 18px; fill: rgb(42, 63, 95); fill-opacity: 1; white-space: pre;">01/03</text></g></g><g class="yaxislayer-above"/><g class="overaxes-above"/></g></g><g class="polarlayer"/><g class="ternarylayer"/><g class="geolayer"/><g class="funnelarealayer"/><g class="pielayer"/><g class="treemaplayer"/><g class="sunburstlayer"/><g class="glimages"/><defs id="topdefs-4859e4"><g class="clips"/></defs><g class="layer-above"><g class="imagelayer"/><g class="shapelayer"><path data-index="0" fill-rule="evenodd" d="M-657.55,445.02L262.77,445.02" clip-path="url('#clip4859e4xy')" style="opacity: 1; stroke: rgb(255, 0, 0); stroke-opacity: 1; fill: rgb(0, 0, 0); fill-opacity: 0; stroke-dasharray: 3px, 3px; stroke-width: 1.5px;"/></g></g><g class="infolayer"><g class="g-gtitle"><text class="gtitle" x="375" y="25" text-anchor="middle" dy="0.7em" style="font-family: 'Open Sans', verdana, arial, sans-serif; font-size: 50px; fill: rgb(42, 63, 95); opacity: 1; font-weight: normal; white-space: pre;"><tspan style="font-weight:bold">Yvelines (78)</tspan></text></g><g class="g-xtitle"/><g class="annotation" data-index="0" style="opacity: 1;"><g class="annotation-text-g" transform="rotate(0,699.19,231.82)"><g class="cursor-pointer" transform="translate(627, 196)"><rect class="bg" x="0.5" y="0.5" width="143" height="71" style="stroke-width: 1px; stroke: rgb(0, 0, 0); stroke-opacity: 0; fill: rgb(255, 255, 255); fill-opacity: 0.6;"/><text class="annotation-text" text-anchor="middle" x="72.078125" y="55.5" style="font-family: 'Open Sans', verdana, arial, sans-serif; font-size: 50px; fill: rgb(8, 115, 191); fill-opacity: 1; white-space: pre;"> <tspan style="font-weight:bold">1587 </tspan></text></g></g><g class="annotation-arrow-g" style="opacity: 1;"><path d="M727.59,267.32L739.19,281.82" style="stroke-width: 1px; stroke: rgb(8, 115, 191); stroke-opacity: 1; stroke-dasharray: 0px, 0px, 18.569px, 18.569px;"/></g></g></g></svg>