<svg class="main-svg" xmlns="http://www.w3.org/2000/svg" xmlns:xlink="http://www.w3.org/1999/xlink" width="1125" height="750" style="" viewBox="0 0 750 500"><rect x="0" y="0" width="750" height="500" style="fill: rgb(0, 0, 0); fill-opacity: 0;"/><defs id="defs-db0a24"><g class="clips"><clipPath id="clipdb0a24xyplot" class="plotclip"><rect width="700" height="380"/></clipPath><clipPath class="axesclip" id="clipdb0a24x"><rect x="50" y="0" width="700" height="500"/></clipPath><clipPath class="axesclip" id="clipdb0a24y"><rect x="0" y="70" width="750" height="380"/></clipPath><clipPath class="axesclip" id="clipdb0a24xy"><rect x="50" y="70" width="700" height="380"/></clipPath></g><g class="gradients"/></defs><g class="bglayer"><rect class="bg" x="50" y="70" width="700" height="380" style="fill: rgb(0, 0, 0); fill-opacity: 0; stroke-width: 0;"/></g><g class="layer-below"><g class="imagelayer"/><g class="shapelayer"/></g><g class="cartesianlayer"><g class="subplot xy"><g class="layer-subplot"><g class="shapelayer"/><g class="imagelayer"/></g><g class="gridlayer"><g class="x"><path class="xgrid crisp" transform="translate(52.23,0)" d="M0,70v380" style="stroke: rgb(255, 255, 255); stroke-opacity: 1; stroke-width: 1px;"/><path class="xgrid crisp" transform="translate(154.94,0)" d="M0,70v380" style="stroke: rgb(255, 255, 255); stroke-opacity: 1; stroke-width: 1px;"/><path class="xgrid crisp" transform="translate(255.42,0)" d="M0,70v380" style="stroke: rgb(255, 255, 255); stroke-opacity: 1; stroke-width: 1px;"/><path class="xgrid crisp" transform="translate(357.02,0)" d="M0,70v380" style="stroke: rgb(255, 255, 255); stroke-opacity: 1; stroke-width: 1px;"/><path class="xgrid crisp" transform="translate(459.73,0)" d="M0,70v380" style="stroke: rgb(255, 255, 255); stroke-opacity: 1; stroke-width: 1px;"/><path class="xgrid crisp" transform="translate(562.44,0)" d="M0,70v380" style="stroke: rgb(255, 255, 255); stroke-opacity: 1; stroke-width: 1px;"/><path class="xgrid crisp" transform="translate(662.92,0)" d="M0,70v380" style="stroke: rgb(255, 255, 255); stroke-opacity: 1; stroke-width: 1px;"/></g><g class="y"/></g><g class="zerolinelayer"/><path class="xlines-below"/><path class="ylines-below"/><g class="overlines-below"/><g class="xaxislayer-below"/><g class="yaxislayer-below"/><g class="overaxes-below"/><g class="plot" transform="translate(50, 70)" clip-path="url('#clipdb0a24xyplot')"><g class="scatterlayer mlayer"><g class="trace scatter tracebf2f34" style="stroke-miterlimit: 2;"><g class="fills"><g><path class="js-fill" d="M681.02,380L-151.83,380L-151.83,379.43L-99.36,379.73L-98.25,379.79L-60.29,379.12L-59.17,378.94L-48.01,378.15L-46.89,377.82L-29.03,373.82L-27.91,373.94L-18.98,372.11L-17.86,370.96L-11.16,371.68L-10.05,372.38L-2.23,373.45L-1.12,373.17L2.23,371.96L3.35,370.47L5.58,367.55L6.7,365.51L8.93,362.76L10.05,362.72L12.28,356.8L13.4,354.49L15.63,347.54L16.75,346.19L17.86,346L18.98,342.33L23.44,320.11L24.56,317.99L25.68,317.36L26.79,311.51L30.14,298.61L31.26,298.02L33.49,297.46L34.61,295.54L35.73,294.59L36.84,297.14L40.19,304.49L41.31,304.98L43.54,319L44.66,330.92L46.89,339.69L48.01,341.02L49.12,341.18L50.24,345.12L51.36,349.3L52.47,346.04L54.7,353.67L55.82,354.88L56.94,355.05L58.05,358.38L60.29,362.15L61.4,362.7L62.52,363.65L63.64,363.42L64.75,363.47L65.87,364.81L71.45,367.27L72.57,367.27L75.92,366.55L77.03,366.28L84.85,365.27L85.96,363.93L88.2,361.05L89.31,361.27L91.55,360.43L92.66,361.44L94.9,366L96.01,367.38L97.13,367.07L98.25,367.57L101.59,366.52L102.71,366.44L103.83,366.35L104.94,365.36L106.06,364.77L107.18,365.1L108.29,364.52L109.41,361.28L112.76,362.03L113.88,362.68L116.11,362.38L117.22,362.6L120.57,362.15L121.69,361.71L125.04,361.35L126.16,360.93L128.39,360.22L129.51,359.62L140.67,358.89L141.79,359.36L142.9,359.44L144.02,361.17L146.25,362.02L147.37,362.82L149.6,363.58L150.72,363.57L151.83,363.43L152.95,364.24L155.18,364.33L156.3,364.34L165.23,363.22L166.35,363.38L169.7,365.37L170.81,365.72L175.28,366.04L176.4,365.39L181.98,364.25L183.09,363.61L188.68,359.03L189.79,358.91L195.37,352.84L196.49,352.23L197.61,352.22L198.72,350.82L202.07,347.36L203.19,347.15L205.42,347L206.54,353.12L207.66,351.51L208.77,351.84L211,354.39L212.12,354.42L213.24,354.42L214.35,349.07L215.47,352.19L216.59,352.59L217.7,352.86L218.82,354.07L223.29,355.64L224.4,356.48L227.75,357.95L228.87,358.14L233.33,360.97L234.45,361.9L235.57,363.69L236.68,363.63L238.92,365.84L240.03,366.42L242.26,367.79L243.38,367.75L245.61,368.09L246.73,369.04L250.08,371.66L251.2,371.04L252.31,371.18L253.43,372.08L255.66,371.55L256.78,370.07L260.13,370.33L261.24,372.12L263.48,373.1L264.59,373.66L266.83,374.24L267.94,374.18L269.06,372.89L270.18,373.5L282.46,377.25L283.57,377.25L289.15,378.33L290.27,378.44L311.48,378.3L312.6,378.14L318.18,377.5L319.3,376.67L323.76,373.77L324.88,372.41L327.11,369.1L328.23,368.07L333.81,366.52L334.93,366.54L338.28,366.44L339.39,366.52L350.56,364.13L351.67,364.16L355.02,363.51L356.14,364.28L358.37,365.08L359.49,365.35L362.84,365.68L363.96,365.89L372.89,369.81L374,369.65L376.24,370.53L377.35,370.63L386.28,372.77L387.4,373.42L391.87,374.2L392.98,374.2L401.91,375.65L403.03,375.45L406.38,375.23L407.5,375.05L411.96,375.6L413.08,376.1L416.43,376.66L417.54,376.83L425.36,376.32L426.48,376.04L439.87,374.45L440.99,375.27L443.22,373.76L444.34,373.68L446.57,373.26L447.69,373.23L448.8,371.87L449.92,372.23L451.04,371.82L452.15,372.5L454.39,370.57L455.5,370.32L457.74,367.48L458.85,366.12L461.08,363.02L462.2,362.23L463.32,362.34L464.43,360.2L470.02,346.16L471.13,345.36L475.6,329.2L476.71,326.41L478.95,325.17L480.06,321.61L482.3,318.41L483.41,317.88L485.65,316.8L486.76,316.97L489,318.2L490.11,318.4L493.46,320.54L494.58,320.47L496.81,319.14L497.93,316.69L500.16,308.72L501.28,312.8L502.39,311.88L503.51,299.01L507.97,242.47L509.09,241.67L510.21,237.88L511.32,211.01L513.56,177.71L514.67,168.85L518.02,132.71L519.14,128.27L520.26,126.22L521.37,118.89L525.84,87.14L526.95,68.73L530.3,23.25L531.42,13.97L532.54,5.92L533.65,4.32L534.77,0L535.89,5.04L538.12,24.54L539.23,36.92L541.47,54.5L542.58,74.86L547.05,150.86L548.17,161.23L549.28,165.62L550.4,192.26L554.86,258.33L555.98,266.29L557.1,269.45L558.21,287.86L561.56,313.43L562.68,318.31L569.38,338.42L570.49,340.57L571.61,342.16L572.73,342.36L576.08,345.94L577.19,346.41L579.43,349.26L580.54,349.42L582.78,348.67L583.89,346.96L588.36,340.45L589.47,336.73L595.06,321.5L596.17,320.91L599.52,302.11L600.64,296.91L602.87,288.77L603.99,288.92L607.34,276.47L608.45,274.56L611.8,274.18L612.92,271.11L614.04,270.28L615.15,267.26L617.38,261.28L618.5,258.02L619.62,257.55L620.73,255.18L621.85,252.91L622.97,254.88L624.08,256.09L625.2,258.85L627.43,262.16L628.55,289.67L629.67,289.2L630.78,294.73L634.13,309.66L635.25,310.32L636.36,299.27L637.48,312.45L640.83,327.87L641.95,330.54L643.06,331L644.18,336.16L646.41,341.8L647.53,343.64L649.76,346.59L650.88,346.8L657.58,353.98L658.69,353.89L660.93,356.09L662.04,356.79L665.39,359.42L666.51,359.61L668.74,363.59L669.86,364.56L670.97,367.1L672.09,367.61L676.56,368.39L677.67,368.21L678.79,366.43L679.9,366.42L681.02,366.36" style="fill: rgb(8, 115, 191); fill-opacity: 0.2; stroke-width: 0;"/></g></g><g class="errorbars"/><g class="lines"><path class="js-line" d="M-151.83,379.43L-99.36,379.73L-98.25,379.79L-60.29,379.12L-59.17,378.94L-48.01,378.15L-46.89,377.82L-29.03,373.82L-27.91,373.94L-18.98,372.11L-17.86,370.96L-11.16,371.68L-10.05,372.38L-2.23,373.45L-1.12,373.17L2.23,371.96L3.35,370.47L5.58,367.55L6.7,365.51L8.93,362.76L10.05,362.72L12.28,356.8L13.4,354.49L15.63,347.54L16.75,346.19L17.86,346L18.98,342.33L23.44,320.11L24.56,317.99L25.68,317.36L26.79,311.51L30.14,298.61L31.26,298.02L33.49,297.46L34.61,295.54L35.73,294.59L36.84,297.14L40.19,304.49L41.31,304.98L43.54,319L44.66,330.92L46.89,339.69L48.01,341.02L49.12,341.18L50.24,345.12L51.36,349.3L52.47,346.04L54.7,353.67L55.82,354.88L56.94,355.05L58.05,358.38L60.29,362.15L61.4,362.7L62.52,363.65L63.64,363.42L64.75,363.47L65.87,364.81L71.45,367.27L72.57,367.27L75.92,366.55L77.03,366.28L84.85,365.27L85.96,363.93L88.2,361.05L89.31,361.27L91.55,360.43L92.66,361.44L94.9,366L96.01,367.38L97.13,367.07L98.25,367.57L101.59,366.52L102.71,366.44L103.83,366.35L104.94,365.36L106.06,364.77L107.18,365.1L108.29,364.52L109.41,361.28L112.76,362.03L113.88,362.68L116.11,362.38L117.22,362.6L120.57,362.15L121.69,361.71L125.04,361.35L126.16,360.93L128.39,360.22L129.51,359.62L140.67,358.89L141.79,359.36L142.9,359.44L144.02,361.17L146.25,362.02L147.37,362.82L149.6,363.58L150.72,363.57L151.83,363.43L152.95,364.24L155.18,364.33L156.3,364.34L165.23,363.22L166.35,363.38L169.7,365.37L170.81,365.72L175.28,366.04L176.4,365.39L181.98,364.25L183.09,363.61L188.68,359.03L189.79,358.91L195.37,352.84L196.49,352.23L197.61,352.22L198.72,350.82L202.07,347.36L203.19,347.15L205.42,347L206.54,353.12L207.66,351.51L208.77,351.84L211,354.39L212.12,354.42L213.24,354.42L214.35,349.07L215.47,352.19L216.59,352.59L217.7,352.86L218.82,354.07L223.29,355.64L224.4,356.48L227.75,357.95L228.87,358.14L233.33,360.97L234.45,361.9L235.57,363.69L236.68,363.63L238.92,365.84L240.03,366.42L242.26,367.79L243.38,367.75L245.61,368.09L246.73,369.04L250.08,371.66L251.2,371.04L252.31,371.18L253.43,372.08L255.66,371.55L256.78,370.07L260.13,370.33L261.24,372.12L263.48,373.1L264.59,373.66L266.83,374.24L267.94,374.18L269.06,372.89L270.18,373.5L282.46,377.25L283.57,377.25L289.15,378.33L290.27,378.44L311.48,378.3L312.6,378.14L318.18,377.5L319.3,376.67L323.76,373.77L324.88,372.41L327.11,369.1L328.23,368.07L333.81,366.52L334.93,366.54L338.28,366.44L339.39,366.52L350.56,364.13L351.67,364.16L355.02,363.51L356.14,364.28L358.37,365.08L359.49,365.35L362.84,365.68L363.96,365.89L372.89,369.81L374,369.65L376.24,370.53L377.35,370.63L386.28,372.77L387.4,373.42L391.87,374.2L392.98,374.2L401.91,375.65L403.03,375.45L406.38,375.23L407.5,375.05L411.96,375.6L413.08,376.1L416.43,376.66L417.54,376.83L425.36,376.32L426.48,376.04L439.87,374.45L440.99,375.27L443.22,373.76L444.34,373.68L446.57,373.26L447.69,373.23L448.8,371.87L449.92,372.23L451.04,371.82L452.15,372.5L454.39,370.57L455.5,370.32L457.74,367.48L458.85,366.12L461.08,363.02L462.2,362.23L463.32,362.34L464.43,360.2L470.02,346.16L471.13,345.36L475.6,329.2L476.71,326.41L478.95,325.17L480.06,321.61L482.3,318.41L483.41,317.88L485.65,316.8L486.76,316.97L489,318.2L490.11,318.4L493.46,320.54L494.58,320.47L496.81,319.14L497.93,316.69L500.16,308.72L501.28,312.8L502.39,311.88L503.51,299.01L507.97,242.47L509.09,241.67L510.21,237.88L511.32,211.01L513.56,177.71L514.67,168.85L518.02,132.71L519.14,128.27L520.26,126.22L521.37,118.89L525.84,87.14L526.95,68.73L530.3,23.25L531.42,13.97L532.54,5.92L533.65,4.32L534.77,0L535.89,5.04L538.12,24.54L539.23,36.92L541.47,54.5L542.58,74.86L547.05,150.86L548.17,161.23L549.28,165.62L550.4,192.26L554.86,258.33L555.98,266.29L557.1,269.45L558.21,287.86L561.56,313.43L562.68,318.31L569.38,338.42L570.49,340.57L571.61,342.16L572.73,342.36L576.08,345.94L577.19,346.41L579.43,349.26L580.54,349.42L582.78,348.67L583.89,346.96L588.36,340.45L589.47,336.73L595.06,321.5L596.17,320.91L599.52,302.11L600.64,296.91L602.87,288.77L603.99,288.92L607.34,276.47L608.45,274.56L611.8,274.18L612.92,271.11L614.04,270.28L615.15,267.26L617.38,261.28L618.5,258.02L619.62,257.55L620.73,255.18L621.85,252.91L622.97,254.88L624.08,256.09L625.2,258.85L627.43,262.16L628.55,289.67L629.67,289.2L630.78,294.73L634.13,309.66L635.25,310.32L636.36,299.27L637.48,312.45L640.83,327.87L641.95,330.54L643.06,331L644.18,336.16L646.41,341.8L647.53,343.64L649.76,346.59L650.88,346.8L657.58,353.98L658.69,353.89L660.93,356.09L662.04,356.79L665.39,359.42L666.51,359.61L668.74,363.59L669.86,364.56L670.97,367.1L672.09,367.61L676.56,368.39L677.67,368.21L678.79,366.43L679.9,366.42L681.02,366.36" style="vector-effect: non-scaling-stroke; fill: none; stroke: rgb(8, 115, 191); stroke-opacity: 1; stroke-width: 0.5px; opacity: 1;"/></g><g class="points"/><g class="text"/></g><g class="trace scatter tracedb1d74" style="stroke-miterlimit: 2;"><g class="fills"><g><path class="js-fill" d="M692.19,380L681.02,380L681.02,366.36L682.14,366.36L683.25,368.92L684.37,365.4L685.49,364.54L688.84,361.48L689.95,361.23L691.07,354.82L692.19,354.73" style="fill: rgb(8, 115, 191); fill-opacity: 0.4; stroke-width: 0;"/></g></g><g class="errorbars"/><g class="lines"><path class="js-line" d="M681.02,366.36L682.14,366.36L683.25,368.92L684.37,365.4L685.49,364.54L688.84,361.48L689.95,361.23L691.07,354.82L692.19,354.73" style="vector-effect: non-scaling-stroke; fill: none; stroke: rgb(8, 115, 191); stroke-opacity: 1; stroke-width: 2px; opacity: 1;"/></g><g class="points"/><g class="text"/></g><g class="trace scatter trace076dc2" style="stroke-miterlimit: 2; opacity: 1;"><g class="fills"/><g class="errorbars"/><g class="lines"/><g class="points"><path class="point" transform="translate(692.19,354.73)" d="M15,0A15,15 0 1,1 0,-15A15,15 0 0,1 15,0Z" style="opacity: 1; stroke-width: 0px; fill: rgb(8, 115, 191); fill-opacity: 1;"/></g><g class="text"/></g></g></g><g class="overplot"/><path class="xlines-above crisp" style="fill: none; stroke-width: 1px; stroke: rgb(0, 0, 0); stroke-opacity: 0;" d=""/><path class="ylines-above crisp" style="fill: none;" d="M0,0"/><g class="overlines-above"/><g class="xaxislayer-above"><path class="xtick ticks crisp" d="M0,450v-5" transform="translate(52.23,0)" style="stroke: rgb(68, 68, 68); stroke-opacity: 1; stroke-width: 1px;"/><path class="xtick ticks crisp" d="M0,450v-5" transform="translate(154.94,0)" style="stroke: rgb(68, 68, 68); stroke-opacity: 1; stroke-width: 1px;"/><path class="xtick ticks crisp" d="M0,450v-5" transform="translate(255.42,0)" style="stroke: rgb(68, 68, 68); stroke-opacity: 1; stroke-width: 1px;"/><path class="xtick ticks crisp" d="M0,450v-5" transform="translate(357.02,0)" style="stroke: rgb(68, 68, 68); stroke-opacity: 1; stroke-width: 1px;"/><path class="xtick ticks crisp" d="M0,450v-5" transform="translate(459.73,0)" style="stroke: rgb(68, 68, 68); stroke-opacity: 1; stroke-width: 1px;"/><path class="xtick ticks crisp" d="M0,450v-5" transform="translate(562.44,0)" style="stroke: rgb(68, 68, 68); stroke-opacity: 1; stroke-width: 1px;"/><path class="xtick ticks crisp" d="M0,450v-5" transform="translate(662.92,0)" style="stroke: rgb(68, 68, 68); stroke-opacity: 1; stroke-width: 1px;"/><g class="xtick"><text text-anchor="middle" x="0" y="469" transform="translate(52.23,0)" style="font-family: 'Open Sans', verdana, arial, sans-serif; font-size: 18px; fill: rgb(42, 63, 95); fill-opacity: 1; white-space: pre;">01/10</text></g><g class="xtick"><text text-anchor="middle" x="0" y="469" transform="translate(154.94,0)" style="font-family: 'Open Sans', verdana, arial, sans-serif; font-size: 18px; fill: rgb(42, 63, 95); fill-opacity: 1; white-space: pre;">01/01</text></g><g class="xtick"><text text-anchor="middle" x="0" y="469" transform="translate(255.42,0)" style="font-family: 'Open Sans', verdana, arial, sans-serif; font-size: 18px; fill: rgb(42, 63, 95); fill-opacity: 1; white-space: pre;">01/04</text></g><g class="xtick"><text text-anchor="middle" x="0" y="469" transform="translate(357.02,0)" style="font-family: 'Open Sans', verdana, arial, sans-serif; font-size: 18px; fill: rgb(42, 63, 95); fill-opacity: 1; white-space: pre;">01/07</text></g><g class="xtick"><text text-anchor="middle" x="0" y="469" transform="translate(459.73,0)" style="font-family: 'Open Sans', verdana, arial, sans-serif; font-size: 18px; fill: rgb(42, 63, 95); fill-opacity: 1; white-space: pre;">01/10</text></g><g class="xtick"><text text-anchor="middle" x="0" y="469" transform="translate(562.44,0)" style="font-family: 'Open Sans', verdana, arial, sans-serif; font-size: 18px; fill: rgb(42, 63, 95); fill-opacity: 1; white-space: pre;">01/01</text></g><g class="xtick"><text text-anchor="middle" x="0" y="469" transform="translate(662.92,0)" style="font-family: 'Open Sans', verdana, arial, sans-serif; font-size: 18px; fill: rgb(42, 63, 95); fill-opacity: 1; white-space: pre;">01/04</text></g></g><g class="yaxislayer-above"/><g class="overaxes-above"/></g></g><g class="polarlayer"/><g class="ternarylayer"/><g class="geolayer"/><g class="funnelarealayer"/><g class="pielayer"/><g class="treemaplayer"/><g class="sunburstlayer"/><g class="glimages"/><defs id="topdefs-db0a24"><g class="clips"/></defs><g class="layer-above"><g class="imagelayer"/><g class="shapelayer"><path data-index="0" fill-rule="evenodd" d="M-577.43,445.61L238.68,445.61" clip-path="url('#clipdb0a24xy')" style="opacity: 1; stroke: rgb(255, 0, 0); stroke-opacity: 1; fill: rgb(0, 0, 0); fill-opacity: 0; stroke-dasharray: 3px, 3px; stroke-width: 1.5px;"/></g></g><g class="infolayer"><g class="g-gtitle"><text class="gtitle" x="375" y="25" text-anchor="middle" dy="0.7em" style="font-family: 'Open Sans', verdana, arial, sans-serif; font-size: 50px; fill: rgb(42, 63, 95); opacity: 1; font-weight: normal; white-space: pre;"><tspan style="font-weight:bold">Ain (01)</tspan></text></g><g class="g-xtitle"/><g class="annotation" data-index="0" style="opacity: 1;"><g class="annotation-text-g" transform="rotate(0,700.19,364.73)"><g class="cursor-pointer" transform="translate(642, 329)"><rect class="bg" x="0.5" y="0.5" width="115" height="71" style="stroke-width: 1px; stroke: rgb(0, 0, 0); stroke-opacity: 0; fill: rgb(255, 255, 255); fill-opacity: 0.6;"/><text class="annotation-text" text-anchor="middle" x="57.8125" y="55.5" style="font-family: 'Open Sans', verdana, arial, sans-serif; font-size: 50px; fill: rgb(8, 115, 191); fill-opacity: 1; white-space: pre;"> <tspan style="font-weight:bold">287 </tspan></text></g></g><g class="annotation-arrow-g" style="opacity: 1;"><path d="M728.59,400.23L740.19,414.73" style="stroke-width: 1px; stroke: rgb(8, 115, 191); stroke-opacity: 1; stroke-dasharray: 0px, 0px, 18.569px, 18.569px;"/></g></g></g></svg>