<svg class="main-svg" xmlns="http://www.w3.org/2000/svg" xmlns:xlink="http://www.w3.org/1999/xlink" width="1125" height="750" style="" viewBox="0 0 750 500"><rect x="0" y="0" width="750" height="500" style="fill: rgb(0, 0, 0); fill-opacity: 0;"/><defs id="defs-bd190c"><g class="clips"><clipPath id="clipbd190cxyplot" class="plotclip"><rect width="700" height="380"/></clipPath><clipPath class="axesclip" id="clipbd190cx"><rect x="50" y="0" width="700" height="500"/></clipPath><clipPath class="axesclip" id="clipbd190cy"><rect x="0" y="70" width="750" height="380"/></clipPath><clipPath class="axesclip" id="clipbd190cxy"><rect x="50" y="70" width="700" height="380"/></clipPath></g><g class="gradients"/></defs><g class="bglayer"><rect class="bg" x="50" y="70" width="700" height="380" style="fill: rgb(0, 0, 0); fill-opacity: 0; stroke-width: 0;"/></g><g class="layer-below"><g class="imagelayer"/><g class="shapelayer"/></g><g class="cartesianlayer"><g class="subplot xy"><g class="layer-subplot"><g class="shapelayer"/><g class="imagelayer"/></g><g class="gridlayer"><g class="x"><path class="xgrid crisp" transform="translate(90.81,0)" d="M0,70v380" style="stroke: rgb(255, 255, 255); stroke-opacity: 1; stroke-width: 1px;"/><path class="xgrid crisp" transform="translate(166.25,0)" d="M0,70v380" style="stroke: rgb(255, 255, 255); stroke-opacity: 1; stroke-width: 1px;"/><path class="xgrid crisp" transform="translate(239.22,0)" d="M0,70v380" style="stroke: rgb(255, 255, 255); stroke-opacity: 1; stroke-width: 1px;"/><path class="xgrid crisp" transform="translate(314.66,0)" d="M0,70v380" style="stroke: rgb(255, 255, 255); stroke-opacity: 1; stroke-width: 1px;"/><path class="xgrid crisp" transform="translate(390.11,0)" d="M0,70v380" style="stroke: rgb(255, 255, 255); stroke-opacity: 1; stroke-width: 1px;"/><path class="xgrid crisp" transform="translate(466.78,0)" d="M0,70v380" style="stroke: rgb(255, 255, 255); stroke-opacity: 1; stroke-width: 1px;"/><path class="xgrid crisp" transform="translate(542.23,0)" d="M0,70v380" style="stroke: rgb(255, 255, 255); stroke-opacity: 1; stroke-width: 1px;"/><path class="xgrid crisp" transform="translate(617.67,0)" d="M0,70v380" style="stroke: rgb(255, 255, 255); stroke-opacity: 1; stroke-width: 1px;"/><path class="xgrid crisp" transform="translate(690.64,0)" d="M0,70v380" style="stroke: rgb(255, 255, 255); stroke-opacity: 1; stroke-width: 1px;"/></g><g class="y"/></g><g class="zerolinelayer"/><path class="xlines-below"/><path class="ylines-below"/><g class="overlines-below"/><g class="xaxislayer-below"/><g class="yaxislayer-below"/><g class="overaxes-below"/><g class="plot" transform="translate(50, 70)" clip-path="url('#clipbd190cxyplot')"><g class="scatterlayer mlayer"><g class="trace scatter trace155238" style="stroke-miterlimit: 2;"><g class="fills"><g><path class="js-fill" d="M678.98,380L-168.2,380L-168.2,379.27L-100.18,379.37L-98.94,379.42L-80.39,379.12L-79.15,379.07L-65.55,378.74L-64.31,378.56L-53.18,375.55L-51.94,374.92L-44.52,372.93L-43.29,372.67L-38.34,370.67L-37.1,370.2L-33.39,368.58L-32.16,368.64L-24.73,364.89L-23.5,364.84L-16.08,362.89L-14.84,362.87L-12.37,361.63L-11.13,361.93L-6.18,362.03L-4.95,362.76L-3.71,363.52L-2.47,363.35L0,362.96L1.24,362.86L2.47,362.78L3.71,360.9L9.89,351.26L11.13,351.08L17.31,334.75L18.55,333.68L19.79,333.52L21.02,329.54L27.21,312.21L28.45,311.93L30.92,306.1L32.16,305.77L33.39,306.41L34.63,306.1L37.1,305.85L38.34,304.81L40.81,303.66L42.05,304.83L44.52,308.8L45.76,309.01L48.23,322.78L49.47,334.56L53.18,347.04L54.42,347.31L56.89,355.37L58.13,353.18L60.6,359.75L61.84,360.71L63.07,360.91L64.31,363.88L66.78,366.35L68.02,366.88L75.44,366.9L76.68,366.86L90.28,365.38L91.52,364.94L93.99,363.89L95.23,362.58L97.7,360.47L98.94,360.53L101.41,360.59L102.65,361.71L103.89,365.38L105.12,366.38L107.6,367.67L108.83,367.09L111.31,366.92L112.54,366.94L115.02,366.86L116.25,365.44L119.96,364.61L121.2,362.03L123.67,362.09L124.91,363.16L128.62,363.73L129.86,363.48L144.7,361.73L145.94,361.73L150.88,362.27L152.12,362.07L158.3,361.48L159.54,362L166.96,364.39L168.2,364.73L171.91,363.98L173.14,363.51L180.57,362.01L181.8,362.21L192.93,362.57L194.17,362.28L197.88,360.41L199.12,359.28L201.59,358.54L202.83,357.09L209.01,351.02L210.25,350.83L215.19,343.75L216.43,342.71L218.9,342.28L220.14,340.65L222.61,339.65L223.85,339.35L227.56,338.92L228.8,346.29L230.04,344.79L231.27,344.95L234.98,347.5L236.22,347.49L237.46,341.9L238.69,345.23L241.17,347.74L242.4,348.43L244.88,348.73L246.11,349.84L252.3,352.67L253.53,352.85L259.72,356.88L260.95,358.81L262.19,358.9L263.43,360.37L267.14,363.58L268.37,364.17L272.08,365.11L273.32,365.57L274.56,365.96L275.8,367.91L277.03,368.43L278.27,367.89L283.22,368.04L284.45,366.75L286.93,367.38L288.16,367.53L289.4,370.29L290.64,370.12L296.82,371.31L298.06,370.12L300.53,372.14L301.77,372.8L310.42,375.3L311.66,375.68L326.5,377.94L327.74,377.96L333.92,378.07L335.16,378.04L345.05,377.31L346.29,377.06L350,376.16L351.24,375.13L352.47,375.31L353.71,373.55L356.18,371.05L357.42,370.66L361.13,360.82L362.37,359.64L364.84,356.99L366.08,356.83L368.55,354.63L369.79,354.47L372.26,353.94L373.5,353.85L375.97,354.49L377.21,355.06L383.39,355.45L384.63,354.76L387.1,354.41L388.34,354.54L393.29,354.96L394.52,355.58L397,357.07L398.23,357.47L401.94,358.7L403.18,359.58L405.65,360.62L406.89,361.71L414.31,365.15L415.55,365.54L418.02,365.68L419.26,366.71L425.44,370.48L426.68,370.61L431.63,372.88L432.86,373.1L440.28,374.4L441.52,374.8L451.41,375.26L452.65,375.25L457.6,375.8L458.83,375.87L472.44,375.68L473.67,375.64L477.39,375.72L478.62,375.76L487.28,375.26L488.52,375.98L490.99,374.86L492.23,374.63L495.94,373.92L497.17,372.27L500.88,372.11L502.12,370.96L504.59,370.49L505.83,369L512.01,360.09L513.25,359.74L520.67,343.68L521.91,343.4L524.38,336.12L525.62,333.61L529.33,325.88L530.57,325.58L533.04,321.11L534.28,319.45L540.46,321.21L541.7,321.48L542.93,321.76L544.17,320.95L545.41,321.31L546.64,320.34L547.88,319.7L549.12,317.58L551.59,306.56L552.83,299.21L554.06,294.54L555.3,298.47L556.54,295.68L557.77,274.58L562.72,210.71L563.96,208.03L565.19,202.11L566.43,177.37L568.9,142.8L570.14,132.3L572.61,91.58L573.85,88.55L581.27,42.11L582.51,37.79L586.22,7.42L587.46,1.57L588.69,0L589.93,0.97L591.17,2.8L592.4,10.68L598.59,89.01L599.82,94.57L602.3,140.56L603.53,158.18L607.24,201.12L608.48,205.77L610.95,242.33L612.19,256.28L615.9,283.63L617.14,286.61L619.61,308.55L620.85,316.7L624.56,331.66L625.8,332.82L628.27,340.22L629.51,342.66L633.22,347.94L634.45,348.24L636.93,350.19L638.16,350.56L643.11,352.69L644.35,352.5L646.82,351.79L648.06,350.67L651.77,347.49L653,344.16L659.19,332.16L660.42,331.63L665.37,309.81L666.61,304.55L667.84,301.49L669.08,300.55L671.55,290.08L672.79,286.88L674.03,285.05L675.27,284.61L677.74,283.81L678.98,283.72" style="fill: rgb(8, 115, 191); fill-opacity: 0.2; stroke-width: 0;"/></g></g><g class="errorbars"/><g class="lines"><path class="js-line" d="M-168.2,379.27L-100.18,379.37L-98.94,379.42L-80.39,379.12L-79.15,379.07L-65.55,378.74L-64.31,378.56L-53.18,375.55L-51.94,374.92L-44.52,372.93L-43.29,372.67L-38.34,370.67L-37.1,370.2L-33.39,368.58L-32.16,368.64L-24.73,364.89L-23.5,364.84L-16.08,362.89L-14.84,362.87L-12.37,361.63L-11.13,361.93L-6.18,362.03L-4.95,362.76L-3.71,363.52L-2.47,363.35L0,362.96L1.24,362.86L2.47,362.78L3.71,360.9L9.89,351.26L11.13,351.08L17.31,334.75L18.55,333.68L19.79,333.52L21.02,329.54L27.21,312.21L28.45,311.93L30.92,306.1L32.16,305.77L33.39,306.41L34.63,306.1L37.1,305.85L38.34,304.81L40.81,303.66L42.05,304.83L44.52,308.8L45.76,309.01L48.23,322.78L49.47,334.56L53.18,347.04L54.42,347.31L56.89,355.37L58.13,353.18L60.6,359.75L61.84,360.71L63.07,360.91L64.31,363.88L66.78,366.35L68.02,366.88L75.44,366.9L76.68,366.86L90.28,365.38L91.52,364.94L93.99,363.89L95.23,362.58L97.7,360.47L98.94,360.53L101.41,360.59L102.65,361.71L103.89,365.38L105.12,366.38L107.6,367.67L108.83,367.09L111.31,366.92L112.54,366.94L115.02,366.86L116.25,365.44L119.96,364.61L121.2,362.03L123.67,362.09L124.91,363.16L128.62,363.73L129.86,363.48L144.7,361.73L145.94,361.73L150.88,362.27L152.12,362.07L158.3,361.48L159.54,362L166.96,364.39L168.2,364.73L171.91,363.98L173.14,363.51L180.57,362.01L181.8,362.21L192.93,362.57L194.17,362.28L197.88,360.41L199.12,359.28L201.59,358.54L202.83,357.09L209.01,351.02L210.25,350.83L215.19,343.75L216.43,342.71L218.9,342.28L220.14,340.65L222.61,339.65L223.85,339.35L227.56,338.92L228.8,346.29L230.04,344.79L231.27,344.95L234.98,347.5L236.22,347.49L237.46,341.9L238.69,345.23L241.17,347.74L242.4,348.43L244.88,348.73L246.11,349.84L252.3,352.67L253.53,352.85L259.72,356.88L260.95,358.81L262.19,358.9L263.43,360.37L267.14,363.58L268.37,364.17L272.08,365.11L273.32,365.57L274.56,365.96L275.8,367.91L277.03,368.43L278.27,367.89L283.22,368.04L284.45,366.75L286.93,367.38L288.16,367.53L289.4,370.29L290.64,370.12L296.82,371.31L298.06,370.12L300.53,372.14L301.77,372.8L310.42,375.3L311.66,375.68L326.5,377.94L327.74,377.96L333.92,378.07L335.16,378.04L345.05,377.31L346.29,377.06L350,376.16L351.24,375.13L352.47,375.31L353.71,373.55L356.18,371.05L357.42,370.66L361.13,360.82L362.37,359.64L364.84,356.99L366.08,356.83L368.55,354.63L369.79,354.47L372.26,353.94L373.5,353.85L375.97,354.49L377.21,355.06L383.39,355.45L384.63,354.76L387.1,354.41L388.34,354.54L393.29,354.96L394.52,355.58L397,357.07L398.23,357.47L401.94,358.7L403.18,359.58L405.65,360.62L406.89,361.71L414.31,365.15L415.55,365.54L418.02,365.68L419.26,366.71L425.44,370.48L426.68,370.61L431.63,372.88L432.86,373.1L440.28,374.4L441.52,374.8L451.41,375.26L452.65,375.25L457.6,375.8L458.83,375.87L472.44,375.68L473.67,375.64L477.39,375.72L478.62,375.76L487.28,375.26L488.52,375.98L490.99,374.86L492.23,374.63L495.94,373.92L497.17,372.27L500.88,372.11L502.12,370.96L504.59,370.49L505.83,369L512.01,360.09L513.25,359.74L520.67,343.68L521.91,343.4L524.38,336.12L525.62,333.61L529.33,325.88L530.57,325.58L533.04,321.11L534.28,319.45L540.46,321.21L541.7,321.48L542.93,321.76L544.17,320.95L545.41,321.31L546.64,320.34L547.88,319.7L549.12,317.58L551.59,306.56L552.83,299.21L554.06,294.54L555.3,298.47L556.54,295.68L557.77,274.58L562.72,210.71L563.96,208.03L565.19,202.11L566.43,177.37L568.9,142.8L570.14,132.3L572.61,91.58L573.85,88.55L581.27,42.11L582.51,37.79L586.22,7.42L587.46,1.57L588.69,0L589.93,0.97L591.17,2.8L592.4,10.68L598.59,89.01L599.82,94.57L602.3,140.56L603.53,158.18L607.24,201.12L608.48,205.77L610.95,242.33L612.19,256.28L615.9,283.63L617.14,286.61L619.61,308.55L620.85,316.7L624.56,331.66L625.8,332.82L628.27,340.22L629.51,342.66L633.22,347.94L634.45,348.24L636.93,350.19L638.16,350.56L643.11,352.69L644.35,352.5L646.82,351.79L648.06,350.67L651.77,347.49L653,344.16L659.19,332.16L660.42,331.63L665.37,309.81L666.61,304.55L667.84,301.49L669.08,300.55L671.55,290.08L672.79,286.88L674.03,285.05L675.27,284.61L677.74,283.81L678.98,283.72" style="vector-effect: non-scaling-stroke; fill: none; stroke: rgb(8, 115, 191); stroke-opacity: 1; stroke-width: 0.5px; opacity: 1;"/></g><g class="points"/><g class="text"/></g><g class="trace scatter tracef01778" style="stroke-miterlimit: 2;"><g class="fills"><g><path class="js-fill" d="M691.34,380L678.98,380L678.98,283.72L682.69,280.53L683.92,278.04L685.16,276.62L686.4,276.47L687.63,274.86L688.87,275.03L691.34,277.02" style="fill: rgb(8, 115, 191); fill-opacity: 0.4; stroke-width: 0;"/></g></g><g class="errorbars"/><g class="lines"><path class="js-line" d="M678.98,283.72L682.69,280.53L683.92,278.04L685.16,276.62L686.4,276.47L687.63,274.86L688.87,275.03L691.34,277.02" style="vector-effect: non-scaling-stroke; fill: none; stroke: rgb(8, 115, 191); stroke-opacity: 1; stroke-width: 2px; opacity: 1;"/></g><g class="points"/><g class="text"/></g><g class="trace scatter tracec70cf8" style="stroke-miterlimit: 2; opacity: 1;"><g class="fills"/><g class="errorbars"/><g class="lines"/><g class="points"><path class="point" transform="translate(691.34,277.02)" d="M15,0A15,15 0 1,1 0,-15A15,15 0 0,1 15,0Z" style="opacity: 1; stroke-width: 0px; fill: rgb(8, 115, 191); fill-opacity: 1;"/></g><g class="text"/></g></g></g><g class="overplot"/><path class="xlines-above crisp" style="fill: none; stroke-width: 1px; stroke: rgb(0, 0, 0); stroke-opacity: 0;" d=""/><path class="ylines-above crisp" style="fill: none;" d="M0,0"/><g class="overlines-above"/><g class="xaxislayer-above"><path class="xtick ticks crisp" d="M0,450v-5" transform="translate(90.81,0)" style="stroke: rgb(68, 68, 68); stroke-opacity: 1; stroke-width: 1px;"/><path class="xtick ticks crisp" d="M0,450v-5" transform="translate(166.25,0)" style="stroke: rgb(68, 68, 68); stroke-opacity: 1; stroke-width: 1px;"/><path class="xtick ticks crisp" d="M0,450v-5" transform="translate(239.22,0)" style="stroke: rgb(68, 68, 68); stroke-opacity: 1; stroke-width: 1px;"/><path class="xtick ticks crisp" d="M0,450v-5" transform="translate(314.66,0)" style="stroke: rgb(68, 68, 68); stroke-opacity: 1; stroke-width: 1px;"/><path class="xtick ticks crisp" d="M0,450v-5" transform="translate(390.11,0)" style="stroke: rgb(68, 68, 68); stroke-opacity: 1; stroke-width: 1px;"/><path class="xtick ticks crisp" d="M0,450v-5" transform="translate(466.78,0)" style="stroke: rgb(68, 68, 68); stroke-opacity: 1; stroke-width: 1px;"/><path class="xtick ticks crisp" d="M0,450v-5" transform="translate(542.23,0)" style="stroke: rgb(68, 68, 68); stroke-opacity: 1; stroke-width: 1px;"/><path class="xtick ticks crisp" d="M0,450v-5" transform="translate(617.67,0)" style="stroke: rgb(68, 68, 68); stroke-opacity: 1; stroke-width: 1px;"/><path class="xtick ticks crisp" d="M0,450v-5" transform="translate(690.64,0)" style="stroke: rgb(68, 68, 68); stroke-opacity: 1; stroke-width: 1px;"/><g class="xtick"><text text-anchor="middle" x="0" y="469" transform="translate(90.81,0)" style="font-family: 'Open Sans', verdana, arial, sans-serif; font-size: 18px; fill: rgb(42, 63, 95); fill-opacity: 1; white-space: pre;">01/11</text></g><g class="xtick"><text text-anchor="middle" x="0" y="469" transform="translate(166.25,0)" style="font-family: 'Open Sans', verdana, arial, sans-serif; font-size: 18px; fill: rgb(42, 63, 95); fill-opacity: 1; white-space: pre;">01/01</text></g><g class="xtick"><text text-anchor="middle" x="0" y="469" transform="translate(239.22,0)" style="font-family: 'Open Sans', verdana, arial, sans-serif; font-size: 18px; fill: rgb(42, 63, 95); fill-opacity: 1; white-space: pre;">01/03</text></g><g class="xtick"><text text-anchor="middle" x="0" y="469" transform="translate(314.66,0)" style="font-family: 'Open Sans', verdana, arial, sans-serif; font-size: 18px; fill: rgb(42, 63, 95); fill-opacity: 1; white-space: pre;">01/05</text></g><g class="xtick"><text text-anchor="middle" x="0" y="469" transform="translate(390.11,0)" style="font-family: 'Open Sans', verdana, arial, sans-serif; font-size: 18px; fill: rgb(42, 63, 95); fill-opacity: 1; white-space: pre;">01/07</text></g><g class="xtick"><text text-anchor="middle" x="0" y="469" transform="translate(466.78,0)" style="font-family: 'Open Sans', verdana, arial, sans-serif; font-size: 18px; fill: rgb(42, 63, 95); fill-opacity: 1; white-space: pre;">01/09</text></g><g class="xtick"><text text-anchor="middle" x="0" y="469" transform="translate(542.23,0)" style="font-family: 'Open Sans', verdana, arial, sans-serif; font-size: 18px; fill: rgb(42, 63, 95); fill-opacity: 1; white-space: pre;">01/11</text></g><g class="xtick"><text text-anchor="middle" x="0" y="469" transform="translate(617.67,0)" style="font-family: 'Open Sans', verdana, arial, sans-serif; font-size: 18px; fill: rgb(42, 63, 95); fill-opacity: 1; white-space: pre;">01/01</text></g><g class="xtick"><text text-anchor="middle" x="0" y="469" transform="translate(690.64,0)" style="font-family: 'Open Sans', verdana, arial, sans-serif; font-size: 18px; fill: rgb(42, 63, 95); fill-opacity: 1; white-space: pre;">01/03</text></g></g><g class="yaxislayer-above"/><g class="overaxes-above"/></g></g><g class="polarlayer"/><g class="ternarylayer"/><g class="geolayer"/><g class="funnelarealayer"/><g class="pielayer"/><g class="treemaplayer"/><g class="sunburstlayer"/><g class="glimages"/><defs id="topdefs-bd190c"><g class="clips"/></defs><g class="layer-above"><g class="imagelayer"/><g class="shapelayer"><path data-index="0" fill-rule="evenodd" d="M-645.05,445.92L259.01,445.92" clip-path="url('#clipbd190cxy')" style="opacity: 1; stroke: rgb(255, 0, 0); stroke-opacity: 1; fill: rgb(0, 0, 0); fill-opacity: 0; stroke-dasharray: 3px, 3px; stroke-width: 1.5px;"/></g></g><g class="infolayer"><g class="g-gtitle"><text class="gtitle" x="375" y="25" text-anchor="middle" dy="0.7em" style="font-family: 'Open Sans', verdana, arial, sans-serif; font-size: 50px; fill: rgb(42, 63, 95); opacity: 1; font-weight: normal; white-space: pre;"><tspan style="font-weight:bold">Rhône (69)</tspan></text></g><g class="g-xtitle"/><g class="annotation" data-index="0" style="opacity: 1;"><g class="annotation-text-g" transform="rotate(0,699.34,287.02)"><g class="cursor-pointer" transform="translate(627, 251)"><rect class="bg" x="0.5" y="0.5" width="143" height="71" style="stroke-width: 1px; stroke: rgb(0, 0, 0); stroke-opacity: 0; fill: rgb(255, 255, 255); fill-opacity: 0.6;"/><text class="annotation-text" text-anchor="middle" x="72.078125" y="55.5" style="font-family: 'Open Sans', verdana, arial, sans-serif; font-size: 50px; fill: rgb(8, 115, 191); fill-opacity: 1; white-space: pre;"> <tspan style="font-weight:bold">1263 </tspan></text></g></g><g class="annotation-arrow-g" style="opacity: 1;"><path d="M727.74,322.52L739.34,337.02" style="stroke-width: 1px; stroke: rgb(8, 115, 191); stroke-opacity: 1; stroke-dasharray: 0px, 0px, 18.5691px, 18.5691px;"/></g></g></g></svg>