<svg class="main-svg" xmlns="http://www.w3.org/2000/svg" xmlns:xlink="http://www.w3.org/1999/xlink" width="1125" height="750" style="" viewBox="0 0 750 500"><rect x="0" y="0" width="750" height="500" style="fill: rgb(0, 0, 0); fill-opacity: 0;"/><defs id="defs-0c654b"><g class="clips"><clipPath id="clip0c654bxyplot" class="plotclip"><rect width="700" height="380"/></clipPath><clipPath class="axesclip" id="clip0c654bx"><rect x="50" y="0" width="700" height="500"/></clipPath><clipPath class="axesclip" id="clip0c654by"><rect x="0" y="70" width="750" height="380"/></clipPath><clipPath class="axesclip" id="clip0c654bxy"><rect x="50" y="70" width="700" height="380"/></clipPath></g><g class="gradients"/></defs><g class="bglayer"><rect class="bg" x="50" y="70" width="700" height="380" style="fill: rgb(0, 0, 0); fill-opacity: 0; stroke-width: 0;"/></g><g class="layer-below"><g class="imagelayer"/><g class="shapelayer"/></g><g class="cartesianlayer"><g class="subplot xy"><g class="layer-subplot"><g class="shapelayer"/><g class="imagelayer"/></g><g class="gridlayer"><g class="x"><path class="xgrid crisp" transform="translate(52.19,0)" d="M0,70v380" style="stroke: rgb(255, 255, 255); stroke-opacity: 1; stroke-width: 1px;"/><path class="xgrid crisp" transform="translate(153.13,0)" d="M0,70v380" style="stroke: rgb(255, 255, 255); stroke-opacity: 1; stroke-width: 1px;"/><path class="xgrid crisp" transform="translate(251.88,0)" d="M0,70v380" style="stroke: rgb(255, 255, 255); stroke-opacity: 1; stroke-width: 1px;"/><path class="xgrid crisp" transform="translate(351.72,0)" d="M0,70v380" style="stroke: rgb(255, 255, 255); stroke-opacity: 1; stroke-width: 1px;"/><path class="xgrid crisp" transform="translate(452.66,0)" d="M0,70v380" style="stroke: rgb(255, 255, 255); stroke-opacity: 1; stroke-width: 1px;"/><path class="xgrid crisp" transform="translate(553.61,0)" d="M0,70v380" style="stroke: rgb(255, 255, 255); stroke-opacity: 1; stroke-width: 1px;"/><path class="xgrid crisp" transform="translate(652.35,0)" d="M0,70v380" style="stroke: rgb(255, 255, 255); stroke-opacity: 1; stroke-width: 1px;"/></g><g class="y"/></g><g class="zerolinelayer"/><path class="xlines-below"/><path class="ylines-below"/><g class="overlines-below"/><g class="xaxislayer-below"/><g class="yaxislayer-below"/><g class="overaxes-below"/><g class="plot" transform="translate(50, 70)" clip-path="url('#clip0c654bxyplot')"><g class="scatterlayer mlayer"><g class="trace scatter traceba5cab" style="stroke-miterlimit: 2;"><g class="fills"><g><path class="js-fill" d="M681.35,380L-149.22,380L-149.22,379.65L-72.41,379.04L-71.32,378.93L-63.64,379.05L-62.54,379.17L-49.37,378.59L-48.28,378.44L-39.5,376.93L-38.4,376.55L-27.43,374.87L-26.33,373.84L-17.55,369.08L-16.46,368.84L-14.26,368.06L-13.17,368.03L-10.97,367.09L-9.87,367.08L-5.49,366.36L-4.39,366.34L-3.29,365.89L-2.19,364.41L-1.1,363.71L0,361.84L2.19,360.55L3.29,358.13L8.78,346.03L9.87,345.46L16.46,323.08L17.55,322.49L21.94,299.78L23.04,293.15L25.24,289.53L26.33,283.39L27.43,279.7L28.53,278.71L29.62,278.4L30.72,279.52L32.92,280.13L34.01,281.28L35.11,281.37L36.21,282.41L39.5,293.27L40.6,294.25L42.79,307.31L43.89,320.86L44.98,322.95L46.08,327.68L48.28,330.52L49.37,337.54L50.47,343.1L51.57,341.18L53.76,353.13L54.86,354.35L55.96,354.7L57.05,357.09L59.25,360.83L60.34,362.01L62.54,363.98L63.64,363.91L65.83,365.86L66.93,366.54L70.22,366.95L71.32,367.02L73.51,367.58L74.61,367.06L82.29,366.04L83.39,365.16L84.48,364.04L85.58,361.69L86.68,360.27L87.77,360.52L89.97,359.78L91.07,360.76L93.26,365.96L94.36,367.27L96.55,366.95L97.65,366.6L102.04,365.87L103.13,365.02L106.43,364.42L107.52,361.66L109.72,362.45L110.82,362.7L114.11,361.96L115.2,361.81L121.79,359.58L122.88,359.35L125.08,359.2L126.18,359.32L138.24,362.37L139.34,362.46L141.54,363.03L142.63,363.37L147.02,365.18L148.12,365.15L150.31,366.03L151.41,365.95L153.61,366.13L154.7,366.16L156.9,365.71L157.99,365.66L164.58,366.79L165.67,366.93L171.16,367.45L172.26,366.91L175.55,366.52L176.65,365.34L178.84,364.85L179.94,363.71L185.42,358.4L186.52,358.27L192.01,350.63L193.1,349.87L194.2,349.7L195.3,348.06L199.69,345.65L200.78,345.76L201.88,345.44L202.98,351.7L204.08,348.74L205.17,348.16L209.56,347.57L210.66,341.71L212.85,346.52L213.95,347.49L216.14,349.02L217.24,348.94L219.44,349.41L220.53,348.91L221.63,349.97L222.73,349.5L224.92,350.37L226.02,351.97L228.21,354.5L229.31,354.9L231.5,358.89L232.6,359.07L239.18,361.69L240.28,361.56L243.57,363.65L244.67,366.4L247.96,364.99L249.06,365.2L251.25,365.81L252.35,363.88L254.55,365.05L255.64,365.13L256.74,368.33L257.84,367.26L261.13,366.89L262.23,366.84L263.32,366.88L264.42,364.74L266.61,368.13L267.71,368.83L276.49,374.69L277.59,374.92L279.78,375.88L280.88,376.2L291.85,378.64L292.95,378.6L312.7,378.42L313.79,378L317.08,376.75L318.18,375.23L322.57,370.42L323.67,369.77L325.86,368.94L326.96,368.49L330.25,367.03L331.35,366.95L333.54,366.11L334.64,365.89L341.22,364.32L342.32,363.72L344.51,363.21L345.61,362.41L350,362.54L351.1,363.15L354.39,365.09L355.49,365.09L358.78,366.6L359.87,367.12L362.07,367.09L363.17,367.24L366.46,368.51L367.55,368.93L369.75,370.2L370.85,370.2L377.43,372.3L378.53,372.51L384.01,374.7L385.11,374.93L387.3,375.41L388.4,375.92L399.37,377.12L400.47,377.24L408.15,377.68L409.25,377.58L427.9,376.11L429,376.2L437.77,375.7L438.87,375.24L439.97,375.08L441.07,373.43L443.26,372.31L444.36,372.88L446.55,370.52L447.65,370.48L450.94,366.85L452.04,363.82L455.33,360.9L456.43,358.41L461.91,345.93L463.01,345.34L465.2,339.07L466.3,337.42L469.59,331.81L470.69,331.6L473.98,326.23L475.08,325.8L477.27,326.2L478.37,326.28L479.47,324.71L480.56,324.65L487.15,322.41L488.24,322.54L490.44,315.48L491.54,311.97L492.63,315.99L493.73,314.06L499.22,234.11L500.31,232.35L501.41,227.26L502.51,199.02L504.7,171.24L505.8,162.89L506.9,151.63L507.99,126.85L509.09,124.68L510.19,117.85L511.29,111.24L512.38,99.4L516.77,63.96L517.87,46.63L522.26,7.24L523.35,3.68L525.55,0L526.65,3.13L528.84,25.73L529.94,39.87L532.13,58.88L533.23,83.62L536.52,139.54L537.62,154.9L539.81,170.1L540.91,197.06L545.3,257.68L546.39,267.59L547.49,270.92L548.59,287.18L552.98,319.33L554.08,323.29L555.17,324.98L556.27,331.7L559.56,342.36L560.66,345.31L562.85,347.66L563.95,349.28L572.73,357.32L573.82,356.81L578.21,355.03L579.31,352.25L583.7,342.84L584.8,341.48L585.89,341.07L586.99,337.45L590.28,326.55L591.38,321.94L592.48,318.45L593.57,317.99L595.77,308.46L596.87,305.21L599.06,302.13L600.16,302.35L601.25,302.49L602.35,300.21L604.55,299.82L605.64,298.43L607.84,293.42L608.93,292.58L612.23,283.71L613.32,282.89L616.61,281.3L617.71,300.54L618.81,295L619.91,298.93L623.2,308.64L624.29,309.69L625.39,299.5L626.49,313.09L630.88,329.29L631.97,330.07L635.27,339.07L636.36,341.02L638.56,344.45L639.66,344.48L641.85,347.61L642.95,347.47L646.24,349.88L647.34,350.11L651.72,357.24L652.82,358.14L658.31,364.41L659.4,366.95L661.6,367.75L662.7,367.75L665.99,367.77L667.08,365.49L670.38,365.22L671.47,367.69L673.67,364.52L674.76,363.78L678.06,362.54L679.15,357.53L680.25,357.68L681.35,355.76" style="fill: rgb(8, 115, 191); fill-opacity: 0.2; stroke-width: 0;"/></g></g><g class="errorbars"/><g class="lines"><path class="js-line" d="M-149.22,379.65L-72.41,379.04L-71.32,378.93L-63.64,379.05L-62.54,379.17L-49.37,378.59L-48.28,378.44L-39.5,376.93L-38.4,376.55L-27.43,374.87L-26.33,373.84L-17.55,369.08L-16.46,368.84L-14.26,368.06L-13.17,368.03L-10.97,367.09L-9.87,367.08L-5.49,366.36L-4.39,366.34L-3.29,365.89L-2.19,364.41L-1.1,363.71L0,361.84L2.19,360.55L3.29,358.13L8.78,346.03L9.87,345.46L16.46,323.08L17.55,322.49L21.94,299.78L23.04,293.15L25.24,289.53L26.33,283.39L27.43,279.7L28.53,278.71L29.62,278.4L30.72,279.52L32.92,280.13L34.01,281.28L35.11,281.37L36.21,282.41L39.5,293.27L40.6,294.25L42.79,307.31L43.89,320.86L44.98,322.95L46.08,327.68L48.28,330.52L49.37,337.54L50.47,343.1L51.57,341.18L53.76,353.13L54.86,354.35L55.96,354.7L57.05,357.09L59.25,360.83L60.34,362.01L62.54,363.98L63.64,363.91L65.83,365.86L66.93,366.54L70.22,366.95L71.32,367.02L73.51,367.58L74.61,367.06L82.29,366.04L83.39,365.16L84.48,364.04L85.58,361.69L86.68,360.27L87.77,360.52L89.97,359.78L91.07,360.76L93.26,365.96L94.36,367.27L96.55,366.95L97.65,366.6L102.04,365.87L103.13,365.02L106.43,364.42L107.52,361.66L109.72,362.45L110.82,362.7L114.11,361.96L115.2,361.81L121.79,359.58L122.88,359.35L125.08,359.2L126.18,359.32L138.24,362.37L139.34,362.46L141.54,363.03L142.63,363.37L147.02,365.18L148.12,365.15L150.31,366.03L151.41,365.95L153.61,366.13L154.7,366.16L156.9,365.71L157.99,365.66L164.58,366.79L165.67,366.93L171.16,367.45L172.26,366.91L175.55,366.52L176.65,365.34L178.84,364.85L179.94,363.71L185.42,358.4L186.52,358.27L192.01,350.63L193.1,349.87L194.2,349.7L195.3,348.06L199.69,345.65L200.78,345.76L201.88,345.44L202.98,351.7L204.08,348.74L205.17,348.16L209.56,347.57L210.66,341.71L212.85,346.52L213.95,347.49L216.14,349.02L217.24,348.94L219.44,349.41L220.53,348.91L221.63,349.97L222.73,349.5L224.92,350.37L226.02,351.97L228.21,354.5L229.31,354.9L231.5,358.89L232.6,359.07L239.18,361.69L240.28,361.56L243.57,363.65L244.67,366.4L247.96,364.99L249.06,365.2L251.25,365.81L252.35,363.88L254.55,365.05L255.64,365.13L256.74,368.33L257.84,367.26L261.13,366.89L262.23,366.84L263.32,366.88L264.42,364.74L266.61,368.13L267.71,368.83L276.49,374.69L277.59,374.92L279.78,375.88L280.88,376.2L291.85,378.64L292.95,378.6L312.7,378.42L313.79,378L317.08,376.75L318.18,375.23L322.57,370.42L323.67,369.77L325.86,368.94L326.96,368.49L330.25,367.03L331.35,366.95L333.54,366.11L334.64,365.89L341.22,364.32L342.32,363.72L344.51,363.21L345.61,362.41L350,362.54L351.1,363.15L354.39,365.09L355.49,365.09L358.78,366.6L359.87,367.12L362.07,367.09L363.17,367.24L366.46,368.51L367.55,368.93L369.75,370.2L370.85,370.2L377.43,372.3L378.53,372.51L384.01,374.7L385.11,374.93L387.3,375.41L388.4,375.92L399.37,377.12L400.47,377.24L408.15,377.68L409.25,377.58L427.9,376.11L429,376.2L437.77,375.7L438.87,375.24L439.97,375.08L441.07,373.43L443.26,372.31L444.36,372.88L446.55,370.52L447.65,370.48L450.94,366.85L452.04,363.82L455.33,360.9L456.43,358.41L461.91,345.93L463.01,345.34L465.2,339.07L466.3,337.42L469.59,331.81L470.69,331.6L473.98,326.23L475.08,325.8L477.27,326.2L478.37,326.28L479.47,324.71L480.56,324.65L487.15,322.41L488.24,322.54L490.44,315.48L491.54,311.97L492.63,315.99L493.73,314.06L499.22,234.11L500.31,232.35L501.41,227.26L502.51,199.02L504.7,171.24L505.8,162.89L506.9,151.63L507.99,126.85L509.09,124.68L510.19,117.85L511.29,111.24L512.38,99.4L516.77,63.96L517.87,46.63L522.26,7.24L523.35,3.68L525.55,0L526.65,3.13L528.84,25.73L529.94,39.87L532.13,58.88L533.23,83.62L536.52,139.54L537.62,154.9L539.81,170.1L540.91,197.06L545.3,257.68L546.39,267.59L547.49,270.92L548.59,287.18L552.98,319.33L554.08,323.29L555.17,324.98L556.27,331.7L559.56,342.36L560.66,345.31L562.85,347.66L563.95,349.28L572.73,357.32L573.82,356.81L578.21,355.03L579.31,352.25L583.7,342.84L584.8,341.48L585.89,341.07L586.99,337.45L590.28,326.55L591.38,321.94L592.48,318.45L593.57,317.99L595.77,308.46L596.87,305.21L599.06,302.13L600.16,302.35L601.25,302.49L602.35,300.21L604.55,299.82L605.64,298.43L607.84,293.42L608.93,292.58L612.23,283.71L613.32,282.89L616.61,281.3L617.71,300.54L618.81,295L619.91,298.93L623.2,308.64L624.29,309.69L625.39,299.5L626.49,313.09L630.88,329.29L631.97,330.07L635.27,339.07L636.36,341.02L638.56,344.45L639.66,344.48L641.85,347.61L642.95,347.47L646.24,349.88L647.34,350.11L651.72,357.24L652.82,358.14L658.31,364.41L659.4,366.95L661.6,367.75L662.7,367.75L665.99,367.77L667.08,365.49L670.38,365.22L671.47,367.69L673.67,364.52L674.76,363.78L678.06,362.54L679.15,357.53L680.25,357.68L681.35,355.76" style="vector-effect: non-scaling-stroke; fill: none; stroke: rgb(8, 115, 191); stroke-opacity: 1; stroke-width: 0.5px; opacity: 1;"/></g><g class="points"/><g class="text"/></g><g class="trace scatter trace337b4c" style="stroke-miterlimit: 2;"><g class="fills"><g><path class="js-fill" d="M692.32,380L681.35,380L681.35,355.76L685.74,351.39L686.83,348.79L690.13,343.28L691.22,340.24L692.32,337.71" style="fill: rgb(8, 115, 191); fill-opacity: 0.4; stroke-width: 0;"/></g></g><g class="errorbars"/><g class="lines"><path class="js-line" d="M681.35,355.76L685.74,351.39L686.83,348.79L690.13,343.28L691.22,340.24L692.32,337.71" style="vector-effect: non-scaling-stroke; fill: none; stroke: rgb(8, 115, 191); stroke-opacity: 1; stroke-width: 2px; opacity: 1;"/></g><g class="points"/><g class="text"/></g><g class="trace scatter tracecc7244" style="stroke-miterlimit: 2; opacity: 1;"><g class="fills"/><g class="errorbars"/><g class="lines"/><g class="points"><path class="point" transform="translate(692.32,337.71)" d="M15,0A15,15 0 1,1 0,-15A15,15 0 0,1 15,0Z" style="opacity: 1; stroke-width: 0px; fill: rgb(8, 115, 191); fill-opacity: 1;"/></g><g class="text"/></g></g></g><g class="overplot"/><path class="xlines-above crisp" style="fill: none; stroke-width: 1px; stroke: rgb(0, 0, 0); stroke-opacity: 0;" d=""/><path class="ylines-above crisp" style="fill: none;" d="M0,0"/><g class="overlines-above"/><g class="xaxislayer-above"><path class="xtick ticks crisp" d="M0,450v-5" transform="translate(52.19,0)" style="stroke: rgb(68, 68, 68); stroke-opacity: 1; stroke-width: 1px;"/><path class="xtick ticks crisp" d="M0,450v-5" transform="translate(153.13,0)" style="stroke: rgb(68, 68, 68); stroke-opacity: 1; stroke-width: 1px;"/><path class="xtick ticks crisp" d="M0,450v-5" transform="translate(251.88,0)" style="stroke: rgb(68, 68, 68); stroke-opacity: 1; stroke-width: 1px;"/><path class="xtick ticks crisp" d="M0,450v-5" transform="translate(351.72,0)" style="stroke: rgb(68, 68, 68); stroke-opacity: 1; stroke-width: 1px;"/><path class="xtick ticks crisp" d="M0,450v-5" transform="translate(452.66,0)" style="stroke: rgb(68, 68, 68); stroke-opacity: 1; stroke-width: 1px;"/><path class="xtick ticks crisp" d="M0,450v-5" transform="translate(553.61,0)" style="stroke: rgb(68, 68, 68); stroke-opacity: 1; stroke-width: 1px;"/><path class="xtick ticks crisp" d="M0,450v-5" transform="translate(652.35,0)" style="stroke: rgb(68, 68, 68); stroke-opacity: 1; stroke-width: 1px;"/><g class="xtick"><text text-anchor="middle" x="0" y="469" transform="translate(52.19,0)" style="font-family: 'Open Sans', verdana, arial, sans-serif; font-size: 18px; fill: rgb(42, 63, 95); fill-opacity: 1; white-space: pre;">01/10</text></g><g class="xtick"><text text-anchor="middle" x="0" y="469" transform="translate(153.13,0)" style="font-family: 'Open Sans', verdana, arial, sans-serif; font-size: 18px; fill: rgb(42, 63, 95); fill-opacity: 1; white-space: pre;">01/01</text></g><g class="xtick"><text text-anchor="middle" x="0" y="469" transform="translate(251.88,0)" style="font-family: 'Open Sans', verdana, arial, sans-serif; font-size: 18px; fill: rgb(42, 63, 95); fill-opacity: 1; white-space: pre;">01/04</text></g><g class="xtick"><text text-anchor="middle" x="0" y="469" transform="translate(351.72,0)" style="font-family: 'Open Sans', verdana, arial, sans-serif; font-size: 18px; fill: rgb(42, 63, 95); fill-opacity: 1; white-space: pre;">01/07</text></g><g class="xtick"><text text-anchor="middle" x="0" y="469" transform="translate(452.66,0)" style="font-family: 'Open Sans', verdana, arial, sans-serif; font-size: 18px; fill: rgb(42, 63, 95); fill-opacity: 1; white-space: pre;">01/10</text></g><g class="xtick"><text text-anchor="middle" x="0" y="469" transform="translate(553.61,0)" style="font-family: 'Open Sans', verdana, arial, sans-serif; font-size: 18px; fill: rgb(42, 63, 95); fill-opacity: 1; white-space: pre;">01/01</text></g><g class="xtick"><text text-anchor="middle" x="0" y="469" transform="translate(652.35,0)" style="font-family: 'Open Sans', verdana, arial, sans-serif; font-size: 18px; fill: rgb(42, 63, 95); fill-opacity: 1; white-space: pre;">01/04</text></g></g><g class="yaxislayer-above"/><g class="overaxes-above"/></g></g><g class="polarlayer"/><g class="ternarylayer"/><g class="geolayer"/><g class="funnelarealayer"/><g class="pielayer"/><g class="treemaplayer"/><g class="sunburstlayer"/><g class="glimages"/><defs id="topdefs-0c654b"><g class="clips"/></defs><g class="layer-above"><g class="imagelayer"/><g class="shapelayer"><path data-index="0" fill-rule="evenodd" d="M-566.61,445.81L235.42,445.81" clip-path="url('#clip0c654bxy')" style="opacity: 1; stroke: rgb(255, 0, 0); stroke-opacity: 1; fill: rgb(0, 0, 0); fill-opacity: 0; stroke-dasharray: 3px, 3px; stroke-width: 1.5px;"/></g></g><g class="infolayer"><g class="g-gtitle"><text class="gtitle" x="375" y="25" text-anchor="middle" dy="0.7em" style="font-family: 'Open Sans', verdana, arial, sans-serif; font-size: 50px; fill: rgb(42, 63, 95); opacity: 1; font-weight: normal; white-space: pre;"><tspan style="font-weight:bold">Loire (42)</tspan></text></g><g class="g-xtitle"/><g class="annotation" data-index="0" style="opacity: 1;"><g class="annotation-text-g" transform="rotate(0,700.32,347.71)"><g class="cursor-pointer" transform="translate(642, 312)"><rect class="bg" x="0.5" y="0.5" width="115" height="71" style="stroke-width: 1px; stroke: rgb(0, 0, 0); stroke-opacity: 0; fill: rgb(255, 255, 255); fill-opacity: 0.6;"/><text class="annotation-text" text-anchor="middle" x="57.8125" y="55.5" style="font-family: 'Open Sans', verdana, arial, sans-serif; font-size: 50px; fill: rgb(8, 115, 191); fill-opacity: 1; white-space: pre;"> <tspan style="font-weight:bold">504 </tspan></text></g></g><g class="annotation-arrow-g" style="opacity: 1;"><path d="M728.72,383.21L740.32,397.71" style="stroke-width: 1px; stroke: rgb(8, 115, 191); stroke-opacity: 1; stroke-dasharray: 0px, 0px, 18.5691px, 18.5691px;"/></g></g></g></svg>