<svg class="main-svg" xmlns="http://www.w3.org/2000/svg" xmlns:xlink="http://www.w3.org/1999/xlink" width="1125" height="750" style="" viewBox="0 0 750 500"><rect x="0" y="0" width="750" height="500" style="fill: rgb(0, 0, 0); fill-opacity: 0;"/><defs id="defs-0721bb"><g class="clips"><clipPath id="clip0721bbxyplot" class="plotclip"><rect width="696" height="380"/></clipPath><clipPath class="axesclip" id="clip0721bbx"><rect x="50" y="0" width="696" height="500"/></clipPath><clipPath class="axesclip" id="clip0721bby"><rect x="0" y="70" width="750" height="380"/></clipPath><clipPath class="axesclip" id="clip0721bbxy"><rect x="50" y="70" width="696" height="380"/></clipPath></g><g class="gradients"/></defs><g class="bglayer"><rect class="bg" x="50" y="70" width="696" height="380" style="fill: rgb(0, 0, 0); fill-opacity: 0; stroke-width: 0;"/></g><g class="layer-below"><g class="imagelayer"/><g class="shapelayer"/></g><g class="cartesianlayer"><g class="subplot xy"><g class="layer-subplot"><g class="shapelayer"/><g class="imagelayer"/></g><g class="gridlayer"><g class="x"><path class="xgrid crisp" transform="translate(93.09,0)" d="M0,70v380" style="stroke: rgb(255, 255, 255); stroke-opacity: 1; stroke-width: 1px;"/><path class="xgrid crisp" transform="translate(172.75,0)" d="M0,70v380" style="stroke: rgb(255, 255, 255); stroke-opacity: 1; stroke-width: 1px;"/><path class="xgrid crisp" transform="translate(249.79,0)" d="M0,70v380" style="stroke: rgb(255, 255, 255); stroke-opacity: 1; stroke-width: 1px;"/><path class="xgrid crisp" transform="translate(329.44,0)" d="M0,70v380" style="stroke: rgb(255, 255, 255); stroke-opacity: 1; stroke-width: 1px;"/><path class="xgrid crisp" transform="translate(409.1,0)" d="M0,70v380" style="stroke: rgb(255, 255, 255); stroke-opacity: 1; stroke-width: 1px;"/><path class="xgrid crisp" transform="translate(490.06,0)" d="M0,70v380" style="stroke: rgb(255, 255, 255); stroke-opacity: 1; stroke-width: 1px;"/><path class="xgrid crisp" transform="translate(569.71,0)" d="M0,70v380" style="stroke: rgb(255, 255, 255); stroke-opacity: 1; stroke-width: 1px;"/><path class="xgrid crisp" transform="translate(649.37,0)" d="M0,70v380" style="stroke: rgb(255, 255, 255); stroke-opacity: 1; stroke-width: 1px;"/><path class="xgrid crisp" transform="translate(726.41,0)" d="M0,70v380" style="stroke: rgb(255, 255, 255); stroke-opacity: 1; stroke-width: 1px;"/></g><g class="y"/></g><g class="zerolinelayer"/><path class="xlines-below"/><path class="ylines-below"/><g class="overlines-below"/><g class="xaxislayer-below"/><g class="yaxislayer-below"/><g class="overaxes-below"/><g class="plot" transform="translate(50, 70)" clip-path="url('#clip0721bbxyplot')"><g class="scatterlayer mlayer"><g class="trace scatter trace0f73a1" style="stroke-miterlimit: 2;"><g class="fills"><g><path class="js-fill" d="M673.8,380L-177.59,380L-177.59,379.36L-52.23,378.86L-50.93,378.29L-48.32,377.08L-47.01,375.36L-44.4,373.94L-43.09,373.72L-33.95,369.44L-32.65,367.02L-28.73,366.87L-27.42,368.3L-24.81,368.02L-23.5,369.8L-15.67,371.94L-14.36,373.37L-10.45,375.51L-9.14,375.29L-5.22,375.58L-3.92,374.94L-1.31,374.86L0,375.22L2.61,374.72L3.92,373.94L5.22,373.94L6.53,372.37L9.14,368.16L10.45,367.66L11.75,367.94L13.06,363.81L14.36,359.67L15.67,358.31L18.28,354.18L19.59,353.68L20.89,353.18L22.2,351.82L23.5,351.25L24.81,347.97L26.12,347.97L27.42,345.4L30.03,345.05L31.34,340.41L32.65,337.34L33.95,337.2L36.56,336.06L37.87,335.56L39.17,335.49L40.48,337.56L43.09,341.91L44.4,344.97L45.7,348.83L47.01,350.04L48.32,350.25L49.62,354.03L52.23,361.38L53.54,360.24L56.15,362.31L57.46,362.67L60.07,368.44L61.37,367.94L62.68,371.73L63.98,372.58L67.9,373.29L69.21,374.79L71.82,375.29L73.13,375.93L75.74,375.93L77.04,376.79L83.57,376.72L84.88,376.79L87.49,377L88.8,376.86L95.32,376.5L96.63,376.01L100.55,376.22L101.85,375.65L105.77,374.51L107.08,373.44L108.38,372.87L109.69,373.58L112.3,372.8L113.61,372.58L116.22,371.23L117.52,370.37L121.44,371.37L122.75,370.51L126.66,371.37L127.97,370.3L131.89,370.44L133.19,369.59L135.8,369.01L137.11,368.44L139.72,368.8L141.03,366.87L143.64,367.37L144.95,366.23L150.17,362.45L151.47,360.88L152.78,360.45L154.09,361.31L155.39,360.67L156.7,361.6L160.62,362.88L161.92,362.59L165.84,360.88L167.14,360.67L169.76,364.02L171.06,363.24L172.37,363.24L173.67,364.45L176.29,365.02L177.59,364.81L178.9,364.38L180.2,365.59L185.43,362.67L186.73,360.31L189.34,357.03L190.65,357.32L194.57,357.89L195.87,358.6L197.18,357.03L198.48,358.81L202.4,356.1L203.71,356.03L205.01,356.1L206.32,357.74L207.62,356.17L208.93,356.89L210.24,358.17L211.54,358.39L212.85,358.67L214.15,359.81L215.46,360.1L216.77,362.02L218.07,363.24L219.38,363.31L221.99,363.95L223.29,363.52L225.91,364.24L227.21,363.74L229.82,364.52L231.13,364.31L232.44,365.09L233.74,364.88L235.05,363.74L236.35,363.95L238.96,362.88L240.27,363.17L241.58,365.59L242.88,364.09L245.49,363.81L246.8,364.02L249.41,362.45L250.72,358.81L253.33,359.74L254.63,359.38L255.94,358.53L257.25,359.6L258.55,359.17L259.86,359.81L265.08,361.81L266.39,361.95L267.69,362.74L269,361.67L271.61,362.24L272.92,363.38L275.53,364.38L276.83,363.95L279.44,363.74L280.75,364.66L282.06,363.88L283.36,365.45L285.97,366.09L287.28,370.08L291.2,375.08L292.5,375.93L304.26,375.01L305.56,376.36L312.09,377L313.4,377.36L314.7,377.08L316.01,377.86L321.23,378.07L322.54,378.07L325.15,377.93L326.45,378.22L356.49,379.5L357.79,379.07L361.71,378.36L363.02,377.65L364.32,376.72L365.63,371.65L368.24,370.16L369.55,362.17L370.85,355.82L372.16,355.03L373.46,347.47L374.77,345.4L376.08,340.41L377.38,338.63L379.99,321.01L381.3,304.88L382.6,300.6L383.91,289.05L385.22,285.48L386.52,285.55L387.83,274.35L389.13,272.28L390.44,272.64L391.74,268.65L394.36,270.29L395.66,270.43L398.27,280.49L399.58,283.98L402.19,294.9L403.5,297.82L404.8,297.47L406.11,304.1L407.41,305.6L408.72,308.81L412.64,314.44L413.94,314.59L417.86,326.64L419.17,328.71L420.47,333.35L421.78,334.85L423.08,335.92L424.39,340.12L425.7,341.76L427,345.12L428.31,348.18L429.61,348.97L433.53,353.25L434.84,355.1L437.45,356.89L438.75,359.38L440.06,360.24L441.37,359.88L442.67,361.67L443.98,361.95L445.28,363.45L446.59,363.74L447.89,364.02L449.2,363.31L457.04,367.94L458.34,369.8L459.65,369.51L460.95,370.87L463.56,372.08L464.87,373.01L466.18,374.58L467.48,374.15L471.4,374.22L472.71,374.79L480.54,377L481.85,376.72L488.38,376.93L489.68,375.93L497.52,374.44L498.82,374.72L501.43,374.29L502.74,373.94L505.35,373.29L506.66,372.08L510.57,369.73L511.88,367.94L513.19,366.38L514.49,366.52L515.8,367.66L517.1,365.38L519.71,364.45L521.02,365.09L523.63,364.09L524.94,359.03L526.24,359.17L527.55,356.67L528.86,358.39L530.16,353.11L532.77,352.89L534.08,349.47L536.69,343.98L538,337.27L539.3,336.7L540.61,334.63L541.91,334.06L543.22,330.57L544.53,327.71L545.83,326.93L551.05,322.86L552.36,319.37L553.67,320.86L554.97,319.08L557.58,316.01L558.89,315.37L560.2,314.51L561.5,311.02L566.72,293.83L568.03,292.4L569.34,291.62L570.64,292.69L571.95,291.83L573.25,295.9L574.56,297.32L575.86,296.75L578.48,298.96L579.78,297.68L581.09,293.9L582.39,285.91L585.01,264.37L586.31,266.93L587.62,259.73L588.92,210.29L594.15,59.35L595.45,56.35L596.76,50.58L598.06,11.13L600.68,0L601.98,14.12L603.29,28.53L604.59,5.85L605.9,11.13L607.2,52.57L609.82,97.44L611.12,110.57L612.43,113.21L613.73,110.85L616.35,106.07L617.65,95.02L618.96,90.74L620.26,78.75L621.57,73.9L622.87,73.83L624.18,74.83L625.49,73.69L626.79,80.54L628.1,83.32L629.4,86.96L630.71,84.39L632.02,84.96L633.32,82.96L635.93,89.17L637.24,95.3L641.16,129.54L642.46,135.25L643.77,159.36L645.07,166.71L650.3,204.52L651.6,205.59L656.83,243.32L658.13,249.24L660.74,258.59L662.05,273.35L667.27,298.54L668.58,301.32L669.88,302.03L671.19,306.03L673.8,314.16" style="fill: rgb(8, 115, 191); fill-opacity: 0.2; stroke-width: 0;"/></g></g><g class="errorbars"/><g class="lines"><path class="js-line" d="M-177.59,379.36L-52.23,378.86L-50.93,378.29L-48.32,377.08L-47.01,375.36L-44.4,373.94L-43.09,373.72L-33.95,369.44L-32.65,367.02L-28.73,366.87L-27.42,368.3L-24.81,368.02L-23.5,369.8L-15.67,371.94L-14.36,373.37L-10.45,375.51L-9.14,375.29L-5.22,375.58L-3.92,374.94L-1.31,374.86L0,375.22L2.61,374.72L3.92,373.94L5.22,373.94L6.53,372.37L9.14,368.16L10.45,367.66L11.75,367.94L13.06,363.81L14.36,359.67L15.67,358.31L18.28,354.18L19.59,353.68L20.89,353.18L22.2,351.82L23.5,351.25L24.81,347.97L26.12,347.97L27.42,345.4L30.03,345.05L31.34,340.41L32.65,337.34L33.95,337.2L36.56,336.06L37.87,335.56L39.17,335.49L40.48,337.56L43.09,341.91L44.4,344.97L45.7,348.83L47.01,350.04L48.32,350.25L49.62,354.03L52.23,361.38L53.54,360.24L56.15,362.31L57.46,362.67L60.07,368.44L61.37,367.94L62.68,371.73L63.98,372.58L67.9,373.29L69.21,374.79L71.82,375.29L73.13,375.93L75.74,375.93L77.04,376.79L83.57,376.72L84.88,376.79L87.49,377L88.8,376.86L95.32,376.5L96.63,376.01L100.55,376.22L101.85,375.65L105.77,374.51L107.08,373.44L108.38,372.87L109.69,373.58L112.3,372.8L113.61,372.58L116.22,371.23L117.52,370.37L121.44,371.37L122.75,370.51L126.66,371.37L127.97,370.3L131.89,370.44L133.19,369.59L135.8,369.01L137.11,368.44L139.72,368.8L141.03,366.87L143.64,367.37L144.95,366.23L150.17,362.45L151.47,360.88L152.78,360.45L154.09,361.31L155.39,360.67L156.7,361.6L160.62,362.88L161.92,362.59L165.84,360.88L167.14,360.67L169.76,364.02L171.06,363.24L172.37,363.24L173.67,364.45L176.29,365.02L177.59,364.81L178.9,364.38L180.2,365.59L185.43,362.67L186.73,360.31L189.34,357.03L190.65,357.32L194.57,357.89L195.87,358.6L197.18,357.03L198.48,358.81L202.4,356.1L203.71,356.03L205.01,356.1L206.32,357.74L207.62,356.17L208.93,356.89L210.24,358.17L211.54,358.39L212.85,358.67L214.15,359.81L215.46,360.1L216.77,362.02L218.07,363.24L219.38,363.31L221.99,363.95L223.29,363.52L225.91,364.24L227.21,363.74L229.82,364.52L231.13,364.31L232.44,365.09L233.74,364.88L235.05,363.74L236.35,363.95L238.96,362.88L240.27,363.17L241.58,365.59L242.88,364.09L245.49,363.81L246.8,364.02L249.41,362.45L250.72,358.81L253.33,359.74L254.63,359.38L255.94,358.53L257.25,359.6L258.55,359.17L259.86,359.81L265.08,361.81L266.39,361.95L267.69,362.74L269,361.67L271.61,362.24L272.92,363.38L275.53,364.38L276.83,363.95L279.44,363.74L280.75,364.66L282.06,363.88L283.36,365.45L285.97,366.09L287.28,370.08L291.2,375.08L292.5,375.93L304.26,375.01L305.56,376.36L312.09,377L313.4,377.36L314.7,377.08L316.01,377.86L321.23,378.07L322.54,378.07L325.15,377.93L326.45,378.22L356.49,379.5L357.79,379.07L361.71,378.36L363.02,377.65L364.32,376.72L365.63,371.65L368.24,370.16L369.55,362.17L370.85,355.82L372.16,355.03L373.46,347.47L374.77,345.4L376.08,340.41L377.38,338.63L379.99,321.01L381.3,304.88L382.6,300.6L383.91,289.05L385.22,285.48L386.52,285.55L387.83,274.35L389.13,272.28L390.44,272.64L391.74,268.65L394.36,270.29L395.66,270.43L398.27,280.49L399.58,283.98L402.19,294.9L403.5,297.82L404.8,297.47L406.11,304.1L407.41,305.6L408.72,308.81L412.64,314.44L413.94,314.59L417.86,326.64L419.17,328.71L420.47,333.35L421.78,334.85L423.08,335.92L424.39,340.12L425.7,341.76L427,345.12L428.31,348.18L429.61,348.97L433.53,353.25L434.84,355.1L437.45,356.89L438.75,359.38L440.06,360.24L441.37,359.88L442.67,361.67L443.98,361.95L445.28,363.45L446.59,363.74L447.89,364.02L449.2,363.31L457.04,367.94L458.34,369.8L459.65,369.51L460.95,370.87L463.56,372.08L464.87,373.01L466.18,374.58L467.48,374.15L471.4,374.22L472.71,374.79L480.54,377L481.85,376.72L488.38,376.93L489.68,375.93L497.52,374.44L498.82,374.72L501.43,374.29L502.74,373.94L505.35,373.29L506.66,372.08L510.57,369.73L511.88,367.94L513.19,366.38L514.49,366.52L515.8,367.66L517.1,365.38L519.71,364.45L521.02,365.09L523.63,364.09L524.94,359.03L526.24,359.17L527.55,356.67L528.86,358.39L530.16,353.11L532.77,352.89L534.08,349.47L536.69,343.98L538,337.27L539.3,336.7L540.61,334.63L541.91,334.06L543.22,330.57L544.53,327.71L545.83,326.93L551.05,322.86L552.36,319.37L553.67,320.86L554.97,319.08L557.58,316.01L558.89,315.37L560.2,314.51L561.5,311.02L566.72,293.83L568.03,292.4L569.34,291.62L570.64,292.69L571.95,291.83L573.25,295.9L574.56,297.32L575.86,296.75L578.48,298.96L579.78,297.68L581.09,293.9L582.39,285.91L585.01,264.37L586.31,266.93L587.62,259.73L588.92,210.29L594.15,59.35L595.45,56.35L596.76,50.58L598.06,11.13L600.68,0L601.98,14.12L603.29,28.53L604.59,5.85L605.9,11.13L607.2,52.57L609.82,97.44L611.12,110.57L612.43,113.21L613.73,110.85L616.35,106.07L617.65,95.02L618.96,90.74L620.26,78.75L621.57,73.9L622.87,73.83L624.18,74.83L625.49,73.69L626.79,80.54L628.1,83.32L629.4,86.96L630.71,84.39L632.02,84.96L633.32,82.96L635.93,89.17L637.24,95.3L641.16,129.54L642.46,135.25L643.77,159.36L645.07,166.71L650.3,204.52L651.6,205.59L656.83,243.32L658.13,249.24L660.74,258.59L662.05,273.35L667.27,298.54L668.58,301.32L669.88,302.03L671.19,306.03L673.8,314.16" style="vector-effect: non-scaling-stroke; fill: none; stroke: rgb(8, 115, 191); stroke-opacity: 1; stroke-width: 0.5px; opacity: 1;"/></g><g class="points"/><g class="text"/></g><g class="trace scatter trace946852" style="stroke-miterlimit: 2;"><g class="fills"><g><path class="js-fill" d="M686.86,380L673.8,380L673.8,314.16L675.11,313.59L676.41,314.8L677.72,316.01L679.02,315.23L680.33,314.09L681.64,311.73L684.25,303.03L685.55,297.68L686.86,291.26" style="fill: rgb(8, 115, 191); fill-opacity: 0.4; stroke-width: 0;"/></g></g><g class="errorbars"/><g class="lines"><path class="js-line" d="M673.8,314.16L675.11,313.59L676.41,314.8L677.72,316.01L679.02,315.23L680.33,314.09L681.64,311.73L684.25,303.03L685.55,297.68L686.86,291.26" style="vector-effect: non-scaling-stroke; fill: none; stroke: rgb(8, 115, 191); stroke-opacity: 1; stroke-width: 2px; opacity: 1;"/></g><g class="points"/><g class="text"/></g><g class="trace scatter trace67f22c" style="stroke-miterlimit: 2; opacity: 1;"><g class="fills"/><g class="errorbars"/><g class="lines"/><g class="points"><path class="point" transform="translate(686.86,291.26)" d="M15,0A15,15 0 1,1 0,-15A15,15 0 0,1 15,0Z" style="opacity: 1; stroke-width: 0px; fill: rgb(8, 115, 191); fill-opacity: 1;"/></g><g class="text"/></g></g></g><g class="overplot"/><path class="xlines-above crisp" style="fill: none; stroke-width: 1px; stroke: rgb(0, 0, 0); stroke-opacity: 0;" d=""/><path class="ylines-above crisp" style="fill: none;" d="M0,0"/><g class="overlines-above"/><g class="xaxislayer-above"><path class="xtick ticks crisp" d="M0,450v-5" transform="translate(93.09,0)" style="stroke: rgb(68, 68, 68); stroke-opacity: 1; stroke-width: 1px;"/><path class="xtick ticks crisp" d="M0,450v-5" transform="translate(172.75,0)" style="stroke: rgb(68, 68, 68); stroke-opacity: 1; stroke-width: 1px;"/><path class="xtick ticks crisp" d="M0,450v-5" transform="translate(249.79,0)" style="stroke: rgb(68, 68, 68); stroke-opacity: 1; stroke-width: 1px;"/><path class="xtick ticks crisp" d="M0,450v-5" transform="translate(329.44,0)" style="stroke: rgb(68, 68, 68); stroke-opacity: 1; stroke-width: 1px;"/><path class="xtick ticks crisp" d="M0,450v-5" transform="translate(409.1,0)" style="stroke: rgb(68, 68, 68); stroke-opacity: 1; stroke-width: 1px;"/><path class="xtick ticks crisp" d="M0,450v-5" transform="translate(490.06,0)" style="stroke: rgb(68, 68, 68); stroke-opacity: 1; stroke-width: 1px;"/><path class="xtick ticks crisp" d="M0,450v-5" transform="translate(569.71,0)" style="stroke: rgb(68, 68, 68); stroke-opacity: 1; stroke-width: 1px;"/><path class="xtick ticks crisp" d="M0,450v-5" transform="translate(649.37,0)" style="stroke: rgb(68, 68, 68); stroke-opacity: 1; stroke-width: 1px;"/><path class="xtick ticks crisp" d="M0,450v-5" transform="translate(726.41,0)" style="stroke: rgb(68, 68, 68); stroke-opacity: 1; stroke-width: 1px;"/><g class="xtick"><text text-anchor="middle" x="0" y="469" transform="translate(93.09,0)" style="font-family: 'Open Sans', verdana, arial, sans-serif; font-size: 18px; fill: rgb(42, 63, 95); fill-opacity: 1; white-space: pre;">01/11</text></g><g class="xtick"><text text-anchor="middle" x="0" y="469" transform="translate(172.75,0)" style="font-family: 'Open Sans', verdana, arial, sans-serif; font-size: 18px; fill: rgb(42, 63, 95); fill-opacity: 1; white-space: pre;">01/01</text></g><g class="xtick"><text text-anchor="middle" x="0" y="469" transform="translate(249.79,0)" style="font-family: 'Open Sans', verdana, arial, sans-serif; font-size: 18px; fill: rgb(42, 63, 95); fill-opacity: 1; white-space: pre;">01/03</text></g><g class="xtick"><text text-anchor="middle" x="0" y="469" transform="translate(329.44,0)" style="font-family: 'Open Sans', verdana, arial, sans-serif; font-size: 18px; fill: rgb(42, 63, 95); fill-opacity: 1; white-space: pre;">01/05</text></g><g class="xtick"><text text-anchor="middle" x="0" y="469" transform="translate(409.1,0)" style="font-family: 'Open Sans', verdana, arial, sans-serif; font-size: 18px; fill: rgb(42, 63, 95); fill-opacity: 1; white-space: pre;">01/07</text></g><g class="xtick"><text text-anchor="middle" x="0" y="469" transform="translate(490.06,0)" style="font-family: 'Open Sans', verdana, arial, sans-serif; font-size: 18px; fill: rgb(42, 63, 95); fill-opacity: 1; white-space: pre;">01/09</text></g><g class="xtick"><text text-anchor="middle" x="0" y="469" transform="translate(569.71,0)" style="font-family: 'Open Sans', verdana, arial, sans-serif; font-size: 18px; fill: rgb(42, 63, 95); fill-opacity: 1; white-space: pre;">01/11</text></g><g class="xtick"><text text-anchor="middle" x="0" y="469" transform="translate(649.37,0)" style="font-family: 'Open Sans', verdana, arial, sans-serif; font-size: 18px; fill: rgb(42, 63, 95); fill-opacity: 1; white-space: pre;">01/01</text></g><g class="xtick"><text text-anchor="middle" x="0" y="469" transform="translate(726.41,0)" style="font-family: 'Open Sans', verdana, arial, sans-serif; font-size: 18px; fill: rgb(42, 63, 95); fill-opacity: 1; white-space: pre;">01/03</text></g></g><g class="yaxislayer-above"/><g class="overaxes-above"/></g></g><g class="polarlayer"/><g class="ternarylayer"/><g class="geolayer"/><g class="funnelarealayer"/><g class="pielayer"/><g class="treemaplayer"/><g class="sunburstlayer"/><g class="glimages"/><defs id="topdefs-0721bb"><g class="clips"/></defs><g class="layer-above"><g class="imagelayer"/><g class="shapelayer"><path data-index="0" fill-rule="evenodd" d="M-683.87,443.5L270.68,443.5" clip-path="url('#clip0721bbxy')" style="opacity: 1; stroke: rgb(255, 0, 0); stroke-opacity: 1; fill: rgb(0, 0, 0); fill-opacity: 0; stroke-dasharray: 3px, 3px; stroke-width: 1.5px;"/></g></g><g class="infolayer"><g class="g-gtitle"><text class="gtitle" x="375" y="25" text-anchor="middle" dy="0.7em" style="font-family: 'Open Sans', verdana, arial, sans-serif; font-size: 50px; fill: rgb(42, 63, 95); opacity: 1; font-weight: normal; white-space: pre;"><tspan style="font-weight:bold">Haute-Corse (2B)</tspan></text></g><g class="g-xtitle"/><g class="annotation" data-index="0" style="opacity: 1;"><g class="annotation-text-g" transform="rotate(0,694.86,301.26)"><g class="cursor-pointer" transform="translate(637, 265)"><rect class="bg" x="0.5" y="0.5" width="115" height="71" style="stroke-width: 1px; stroke: rgb(0, 0, 0); stroke-opacity: 0; fill: rgb(255, 255, 255); fill-opacity: 0.6;"/><text class="annotation-text" text-anchor="middle" x="57.8125" y="55.5" style="font-family: 'Open Sans', verdana, arial, sans-serif; font-size: 50px; fill: rgb(8, 115, 191); fill-opacity: 1; white-space: pre;"> <tspan style="font-weight:bold">682 </tspan></text></g></g><g class="annotation-arrow-g" style="opacity: 1;"><path d="M723.26,336.76L734.86,351.26" style="stroke-width: 1px; stroke: rgb(8, 115, 191); stroke-opacity: 1; stroke-dasharray: 0px, 0px, 18.569px, 18.569px;"/></g></g></g></svg>