<svg class="main-svg" xmlns="http://www.w3.org/2000/svg" xmlns:xlink="http://www.w3.org/1999/xlink" width="1125" height="750" style="" viewBox="0 0 750 500"><rect x="0" y="0" width="750" height="500" style="fill: rgb(0, 0, 0); fill-opacity: 0;"/><defs id="defs-23696b"><g class="clips"><clipPath id="clip23696bxyplot" class="plotclip"><rect width="700" height="380"/></clipPath><clipPath class="axesclip" id="clip23696bx"><rect x="50" y="0" width="700" height="500"/></clipPath><clipPath class="axesclip" id="clip23696by"><rect x="0" y="70" width="750" height="380"/></clipPath><clipPath class="axesclip" id="clip23696bxy"><rect x="50" y="70" width="700" height="380"/></clipPath></g><g class="gradients"/></defs><g class="bglayer"><rect class="bg" x="50" y="70" width="700" height="380" style="fill: rgb(0, 0, 0); fill-opacity: 0; stroke-width: 0;"/></g><g class="layer-below"><g class="imagelayer"/><g class="shapelayer"/></g><g class="cartesianlayer"><g class="subplot xy"><g class="layer-subplot"><g class="shapelayer"/><g class="imagelayer"/></g><g class="gridlayer"><g class="x"><path class="xgrid crisp" transform="translate(102.03,0)" d="M0,70v380" style="stroke: rgb(255, 255, 255); stroke-opacity: 1; stroke-width: 1px;"/><path class="xgrid crisp" transform="translate(198.2,0)" d="M0,70v380" style="stroke: rgb(255, 255, 255); stroke-opacity: 1; stroke-width: 1px;"/><path class="xgrid crisp" transform="translate(291.22,0)" d="M0,70v380" style="stroke: rgb(255, 255, 255); stroke-opacity: 1; stroke-width: 1px;"/><path class="xgrid crisp" transform="translate(387.39,0)" d="M0,70v380" style="stroke: rgb(255, 255, 255); stroke-opacity: 1; stroke-width: 1px;"/><path class="xgrid crisp" transform="translate(483.56,0)" d="M0,70v380" style="stroke: rgb(255, 255, 255); stroke-opacity: 1; stroke-width: 1px;"/><path class="xgrid crisp" transform="translate(581.31,0)" d="M0,70v380" style="stroke: rgb(255, 255, 255); stroke-opacity: 1; stroke-width: 1px;"/><path class="xgrid crisp" transform="translate(677.48,0)" d="M0,70v380" style="stroke: rgb(255, 255, 255); stroke-opacity: 1; stroke-width: 1px;"/></g><g class="y"/></g><g class="zerolinelayer"/><path class="xlines-below"/><path class="ylines-below"/><g class="overlines-below"/><g class="xaxislayer-below"/><g class="yaxislayer-below"/><g class="overaxes-below"/><g class="plot" transform="translate(50, 70)" clip-path="url('#clip23696bxyplot')"><g class="scatterlayer mlayer"><g class="trace scatter trace015ef3" style="stroke-miterlimit: 2;"><g class="fills"><g><path class="js-fill" d="M673.2,380L-214.41,380L-214.41,378.9L-200.23,378.9L-198.65,379.17L-184.46,379.72L-182.88,379.17L-105.63,378.62L-104.05,377.24L-89.86,376.97L-88.29,375.59L-83.56,372.84L-81.98,370.08L-77.25,365.95L-75.68,366.77L-70.95,367.32L-69.37,366.22L-66.22,365.95L-64.64,365.4L-63.06,365.12L-61.49,359.33L-53.6,354.37L-52.03,354.65L-48.87,358.23L-47.3,359.88L-40.99,360.71L-39.41,358.51L-33.11,360.71L-31.53,357.13L-29.95,356.85L-28.38,355.47L-26.8,354.1L-25.23,351.34L-22.07,351.07L-20.5,353.55L-18.92,353.27L-17.34,354.1L-14.19,349.41L-12.61,345L-7.88,345.28L-6.31,346.93L-4.73,348.86L-3.15,352.72L-1.58,354.65L0,354.37L1.58,355.2L3.15,354.37L6.31,351.34L7.88,346.38L9.46,344.45L11.04,339.77L12.61,336.74L14.19,335.91L15.77,331.23L17.34,323.51L18.92,316.07L20.5,304.22L22.07,301.74L23.65,303.12L26.8,302.57L28.38,299.26L29.95,290.17L31.53,276.11L34.68,247.73L36.26,246.9L37.84,216.87L39.41,210.25L40.99,207.5L42.57,216.04L44.14,215.21L45.72,221.28L48.87,214.11L50.45,198.13L53.6,174.98L55.18,170.85L56.76,167.54L58.33,169.2L59.91,174.98L61.49,184.63L63.06,219.9L64.64,237.53L67.79,252.97L69.37,253.52L72.52,280.52L74.1,270.88L75.68,271.15L77.25,285.48L78.83,282.73L80.41,284.38L83.56,304.5L85.14,307.8L86.71,314.42L88.29,315.52L89.86,317.72L91.44,318.55L93.02,323.79L94.59,325.16L96.17,331.78L97.75,334.81L99.32,334.53L100.9,338.11L104.05,336.74L105.63,340.32L108.78,337.56L110.36,342.52L111.94,342.25L113.51,343.9L116.67,346.38L118.24,346.38L121.4,345.83L122.97,346.38L126.13,340.59L127.7,331.5L129.28,329.3L130.86,330.67L132.43,334.53L134.01,330.12L135.59,331.5L137.16,324.61L140.32,299.81L141.89,292.65L143.47,292.65L145.05,288.79L148.2,282.45L149.77,293.75L151.35,300.36L152.93,299.54L154.5,287.41L156.08,289.62L157.66,291.82L159.23,295.95L162.39,298.71L163.96,297.88L165.54,295.95L167.12,295.68L168.69,295.13L170.27,289.06L171.85,287.14L173.42,286.58L175,286.31L176.58,278.87L178.15,275.84L179.73,275.84L181.31,267.02L182.88,268.12L184.46,265.64L186.04,265.92L190.77,272.53L192.34,288.79L193.92,288.24L195.5,284.93L197.07,280.52L198.65,281.9L201.8,283.28L203.38,273.91L204.95,273.36L206.53,277.77L208.11,278.87L209.68,281.07L211.26,281.35L212.84,280.8L214.41,286.31L215.99,285.21L217.57,283.83L219.14,288.79L220.72,291.54L222.3,289.34L223.87,290.17L225.45,289.34L227.03,290.44L228.6,287.96L231.76,280.8L233.33,281.07L234.91,280.52L236.49,278.59L238.06,280.8L239.64,281.07L241.22,285.76L242.79,286.86L247.52,290.72L249.1,294.02L250.68,297.06L252.25,294.58L255.41,296.78L256.98,297.61L258.56,298.43L260.14,290.17L263.29,275.01L264.86,265.37L266.44,258.48L268.02,256.27L271.17,235.05L272.75,223.21L274.32,216.32L275.9,205.57L279.05,205.57L280.63,198.13L282.21,190.41L283.78,196.48L285.36,194.82L286.94,201.71L288.51,205.57L290.09,205.02L291.67,239.46L293.24,240.57L294.82,238.64L296.4,251.04L297.97,252.97L299.55,249.11L301.13,249.93L302.7,220.73L305.86,253.52L307.43,251.59L309.01,259.3L310.59,258.48L312.16,259.85L313.74,271.98L315.32,270.05L316.89,270.6L318.47,277.22L320.05,275.84L321.62,281.9L323.2,281.07L324.77,279.7L326.35,284.66L327.93,284.1L329.5,284.66L332.66,297.06L334.23,297.61L335.81,299.54L337.39,296.5L342.12,306.15L343.69,306.7L345.27,306.42L346.85,313.31L350,323.23L351.58,335.91L353.15,337.84L354.73,336.46L356.31,336.46L357.88,338.11L359.46,337.56L361.04,335.08L362.61,328.47L364.19,329.3L365.77,326.82L367.34,327.92L368.92,338.11L370.5,334.26L372.07,338.11L373.65,338.67L378.38,341.42L379.95,336.19L381.53,347.21L383.11,350.24L387.84,363.47L389.41,363.47L390.99,367.88L392.57,369.25L394.14,370.36L395.72,369.53L398.87,372.28L400.45,372.28L403.6,374.49L405.18,375.04L408.33,376.97L409.91,376.97L411.49,376.69L413.06,377.52L414.64,376.97L416.22,377.24L419.37,377.24L420.95,376.97L422.52,376.97L424.1,376.14L425.68,376.97L427.25,376.14L433.56,375.04L435.14,375.87L439.86,373.66L441.44,373.39L443.02,374.49L444.59,374.21L446.17,373.11L447.75,370.63L449.32,371.18L450.9,367.88L454.05,354.65L455.63,352.99L461.94,286.86L463.51,274.46L465.09,267.85L466.67,265.64L468.24,252.69L469.82,250.49L471.4,246.35L472.97,246.9L476.13,237.53L477.7,238.36L479.28,237.26L480.86,237.81L482.43,237.81L484.01,233.13L485.59,229.27L487.16,235.61L488.74,234.78L490.32,236.71L493.47,224.58L495.05,222.38L496.62,227.61L498.2,217.42L501.35,216.32L502.93,214.39L504.5,218.8L506.08,221L507.66,217.69L509.23,222.38L510.81,224.58L512.39,217.14L513.96,228.72L515.54,234.5L517.12,238.91L518.69,247.18L520.27,250.49L521.85,251.59L523.42,272.26L525,272.26L526.58,272.53L528.15,275.84L531.31,280.25L532.88,279.7L536.04,282.18L537.61,286.31L540.77,303.39L542.34,306.15L543.92,307.25L545.5,313.87L547.07,317.17L548.65,323.79L551.8,326.82L553.38,330.95L554.95,331.78L556.53,334.53L558.11,343.07L559.68,343.35L561.26,344.73L562.84,343.9L564.41,340.59L565.99,340.32L567.57,340.04L569.14,338.11L570.72,341.42L572.3,341.7L573.87,344.45L575.45,348.86L577.03,347.21L578.6,350.51L580.18,353.82L581.76,354.1L584.91,356.58L586.49,356.85L588.06,359.06L589.64,358.78L592.79,356.58L594.37,354.65L595.95,355.75L597.52,355.75L599.1,355.75L600.68,357.4L602.25,358.51L603.83,358.23L605.41,357.4L606.98,354.65L608.56,355.47L610.14,353.82L611.71,351.62L613.29,347.21L614.86,343.63L616.44,347.48L618.02,346.66L619.59,344.73L621.17,346.66L622.75,352.72L625.9,356.58L627.48,356.03L630.63,355.47L632.21,354.65L633.78,340.59L635.36,337.84L636.94,333.71L638.51,336.19L641.67,328.47L643.24,327.64L644.82,328.75L646.4,325.44L647.97,324.06L649.55,311.94L652.7,301.46L654.28,300.36L659.01,236.98L660.59,222.38L662.16,198.4L663.74,186.56L665.32,186.28L666.89,163.68L673.2,78.26" style="fill: rgb(8, 115, 191); fill-opacity: 0.2; stroke-width: 0;"/></g></g><g class="errorbars"/><g class="lines"><path class="js-line" d="M-214.41,378.9L-200.23,378.9L-198.65,379.17L-184.46,379.72L-182.88,379.17L-105.63,378.62L-104.05,377.24L-89.86,376.97L-88.29,375.59L-83.56,372.84L-81.98,370.08L-77.25,365.95L-75.68,366.77L-70.95,367.32L-69.37,366.22L-66.22,365.95L-64.64,365.4L-63.06,365.12L-61.49,359.33L-53.6,354.37L-52.03,354.65L-48.87,358.23L-47.3,359.88L-40.99,360.71L-39.41,358.51L-33.11,360.71L-31.53,357.13L-29.95,356.85L-28.38,355.47L-26.8,354.1L-25.23,351.34L-22.07,351.07L-20.5,353.55L-18.92,353.27L-17.34,354.1L-14.19,349.41L-12.61,345L-7.88,345.28L-6.31,346.93L-4.73,348.86L-3.15,352.72L-1.58,354.65L0,354.37L1.58,355.2L3.15,354.37L6.31,351.34L7.88,346.38L9.46,344.45L11.04,339.77L12.61,336.74L14.19,335.91L15.77,331.23L17.34,323.51L18.92,316.07L20.5,304.22L22.07,301.74L23.65,303.12L26.8,302.57L28.38,299.26L29.95,290.17L31.53,276.11L34.68,247.73L36.26,246.9L37.84,216.87L39.41,210.25L40.99,207.5L42.57,216.04L44.14,215.21L45.72,221.28L48.87,214.11L50.45,198.13L53.6,174.98L55.18,170.85L56.76,167.54L58.33,169.2L59.91,174.98L61.49,184.63L63.06,219.9L64.64,237.53L67.79,252.97L69.37,253.52L72.52,280.52L74.1,270.88L75.68,271.15L77.25,285.48L78.83,282.73L80.41,284.38L83.56,304.5L85.14,307.8L86.71,314.42L88.29,315.52L89.86,317.72L91.44,318.55L93.02,323.79L94.59,325.16L96.17,331.78L97.75,334.81L99.32,334.53L100.9,338.11L104.05,336.74L105.63,340.32L108.78,337.56L110.36,342.52L111.94,342.25L113.51,343.9L116.67,346.38L118.24,346.38L121.4,345.83L122.97,346.38L126.13,340.59L127.7,331.5L129.28,329.3L130.86,330.67L132.43,334.53L134.01,330.12L135.59,331.5L137.16,324.61L140.32,299.81L141.89,292.65L143.47,292.65L145.05,288.79L148.2,282.45L149.77,293.75L151.35,300.36L152.93,299.54L154.5,287.41L156.08,289.62L157.66,291.82L159.23,295.95L162.39,298.71L163.96,297.88L165.54,295.95L167.12,295.68L168.69,295.13L170.27,289.06L171.85,287.14L173.42,286.58L175,286.31L176.58,278.87L178.15,275.84L179.73,275.84L181.31,267.02L182.88,268.12L184.46,265.64L186.04,265.92L190.77,272.53L192.34,288.79L193.92,288.24L195.5,284.93L197.07,280.52L198.65,281.9L201.8,283.28L203.38,273.91L204.95,273.36L206.53,277.77L208.11,278.87L209.68,281.07L211.26,281.35L212.84,280.8L214.41,286.31L215.99,285.21L217.57,283.83L219.14,288.79L220.72,291.54L222.3,289.34L223.87,290.17L225.45,289.34L227.03,290.44L228.6,287.96L231.76,280.8L233.33,281.07L234.91,280.52L236.49,278.59L238.06,280.8L239.64,281.07L241.22,285.76L242.79,286.86L247.52,290.72L249.1,294.02L250.68,297.06L252.25,294.58L255.41,296.78L256.98,297.61L258.56,298.43L260.14,290.17L263.29,275.01L264.86,265.37L266.44,258.48L268.02,256.27L271.17,235.05L272.75,223.21L274.32,216.32L275.9,205.57L279.05,205.57L280.63,198.13L282.21,190.41L283.78,196.48L285.36,194.82L286.94,201.71L288.51,205.57L290.09,205.02L291.67,239.46L293.24,240.57L294.82,238.64L296.4,251.04L297.97,252.97L299.55,249.11L301.13,249.93L302.7,220.73L305.86,253.52L307.43,251.59L309.01,259.3L310.59,258.48L312.16,259.85L313.74,271.98L315.32,270.05L316.89,270.6L318.47,277.22L320.05,275.84L321.62,281.9L323.2,281.07L324.77,279.7L326.35,284.66L327.93,284.1L329.5,284.66L332.66,297.06L334.23,297.61L335.81,299.54L337.39,296.5L342.12,306.15L343.69,306.7L345.27,306.42L346.85,313.31L350,323.23L351.58,335.91L353.15,337.84L354.73,336.46L356.31,336.46L357.88,338.11L359.46,337.56L361.04,335.08L362.61,328.47L364.19,329.3L365.77,326.82L367.34,327.92L368.92,338.11L370.5,334.26L372.07,338.11L373.65,338.67L378.38,341.42L379.95,336.19L381.53,347.21L383.11,350.24L387.84,363.47L389.41,363.47L390.99,367.88L392.57,369.25L394.14,370.36L395.72,369.53L398.87,372.28L400.45,372.28L403.6,374.49L405.18,375.04L408.33,376.97L409.91,376.97L411.49,376.69L413.06,377.52L414.64,376.97L416.22,377.24L419.37,377.24L420.95,376.97L422.52,376.97L424.1,376.14L425.68,376.97L427.25,376.14L433.56,375.04L435.14,375.87L439.86,373.66L441.44,373.39L443.02,374.49L444.59,374.21L446.17,373.11L447.75,370.63L449.32,371.18L450.9,367.88L454.05,354.65L455.63,352.99L461.94,286.86L463.51,274.46L465.09,267.85L466.67,265.64L468.24,252.69L469.82,250.49L471.4,246.35L472.97,246.9L476.13,237.53L477.7,238.36L479.28,237.26L480.86,237.81L482.43,237.81L484.01,233.13L485.59,229.27L487.16,235.61L488.74,234.78L490.32,236.71L493.47,224.58L495.05,222.38L496.62,227.61L498.2,217.42L501.35,216.32L502.93,214.39L504.5,218.8L506.08,221L507.66,217.69L509.23,222.38L510.81,224.58L512.39,217.14L513.96,228.72L515.54,234.5L517.12,238.91L518.69,247.18L520.27,250.49L521.85,251.59L523.42,272.26L525,272.26L526.58,272.53L528.15,275.84L531.31,280.25L532.88,279.7L536.04,282.18L537.61,286.31L540.77,303.39L542.34,306.15L543.92,307.25L545.5,313.87L547.07,317.17L548.65,323.79L551.8,326.82L553.38,330.95L554.95,331.78L556.53,334.53L558.11,343.07L559.68,343.35L561.26,344.73L562.84,343.9L564.41,340.59L565.99,340.32L567.57,340.04L569.14,338.11L570.72,341.42L572.3,341.7L573.87,344.45L575.45,348.86L577.03,347.21L578.6,350.51L580.18,353.82L581.76,354.1L584.91,356.58L586.49,356.85L588.06,359.06L589.64,358.78L592.79,356.58L594.37,354.65L595.95,355.75L597.52,355.75L599.1,355.75L600.68,357.4L602.25,358.51L603.83,358.23L605.41,357.4L606.98,354.65L608.56,355.47L610.14,353.82L611.71,351.62L613.29,347.21L614.86,343.63L616.44,347.48L618.02,346.66L619.59,344.73L621.17,346.66L622.75,352.72L625.9,356.58L627.48,356.03L630.63,355.47L632.21,354.65L633.78,340.59L635.36,337.84L636.94,333.71L638.51,336.19L641.67,328.47L643.24,327.64L644.82,328.75L646.4,325.44L647.97,324.06L649.55,311.94L652.7,301.46L654.28,300.36L659.01,236.98L660.59,222.38L662.16,198.4L663.74,186.56L665.32,186.28L666.89,163.68L673.2,78.26" style="vector-effect: non-scaling-stroke; fill: none; stroke: rgb(8, 115, 191); stroke-opacity: 1; stroke-width: 0.5px; opacity: 1;"/></g><g class="points"/><g class="text"/></g><g class="trace scatter trace20b331" style="stroke-miterlimit: 2;"><g class="fills"><g><path class="js-fill" d="M688.96,380L673.2,380L673.2,78.26L674.77,62.83L676.35,57.59L677.93,32.79L679.5,23.42L682.66,3.58L684.23,6.61L685.81,4.13L687.39,0L688.96,4.96" style="fill: rgb(8, 115, 191); fill-opacity: 0.4; stroke-width: 0;"/></g></g><g class="errorbars"/><g class="lines"><path class="js-line" d="M673.2,78.26L674.77,62.83L676.35,57.59L677.93,32.79L679.5,23.42L682.66,3.58L684.23,6.61L685.81,4.13L687.39,0L688.96,4.96" style="vector-effect: non-scaling-stroke; fill: none; stroke: rgb(8, 115, 191); stroke-opacity: 1; stroke-width: 2px; opacity: 1;"/></g><g class="points"/><g class="text"/></g><g class="trace scatter tracec14e3a" style="stroke-miterlimit: 2; opacity: 1;"><g class="fills"/><g class="errorbars"/><g class="lines"/><g class="points"><path class="point" transform="translate(688.96,4.96)" d="M15,0A15,15 0 1,1 0,-15A15,15 0 0,1 15,0Z" style="opacity: 1; stroke-width: 0px; fill: rgb(8, 115, 191); fill-opacity: 1;"/></g><g class="text"/></g></g></g><g class="overplot"/><path class="xlines-above crisp" style="fill: none; stroke-width: 1px; stroke: rgb(0, 0, 0); stroke-opacity: 0;" d=""/><path class="ylines-above crisp" style="fill: none;" d="M0,0"/><g class="overlines-above"/><g class="xaxislayer-above"><path class="xtick ticks crisp" d="M0,450v-5" transform="translate(102.03,0)" style="stroke: rgb(68, 68, 68); stroke-opacity: 1; stroke-width: 1px;"/><path class="xtick ticks crisp" d="M0,450v-5" transform="translate(198.2,0)" style="stroke: rgb(68, 68, 68); stroke-opacity: 1; stroke-width: 1px;"/><path class="xtick ticks crisp" d="M0,450v-5" transform="translate(291.22,0)" style="stroke: rgb(68, 68, 68); stroke-opacity: 1; stroke-width: 1px;"/><path class="xtick ticks crisp" d="M0,450v-5" transform="translate(387.39,0)" style="stroke: rgb(68, 68, 68); stroke-opacity: 1; stroke-width: 1px;"/><path class="xtick ticks crisp" d="M0,450v-5" transform="translate(483.56,0)" style="stroke: rgb(68, 68, 68); stroke-opacity: 1; stroke-width: 1px;"/><path class="xtick ticks crisp" d="M0,450v-5" transform="translate(581.31,0)" style="stroke: rgb(68, 68, 68); stroke-opacity: 1; stroke-width: 1px;"/><path class="xtick ticks crisp" d="M0,450v-5" transform="translate(677.48,0)" style="stroke: rgb(68, 68, 68); stroke-opacity: 1; stroke-width: 1px;"/><g class="xtick"><text text-anchor="middle" x="0" y="469" transform="translate(102.03,0)" style="font-family: 'Open Sans', verdana, arial, sans-serif; font-size: 18px; fill: rgb(42, 63, 95); fill-opacity: 1; white-space: pre;">01/11</text></g><g class="xtick"><text text-anchor="middle" x="0" y="469" transform="translate(198.2,0)" style="font-family: 'Open Sans', verdana, arial, sans-serif; font-size: 18px; fill: rgb(42, 63, 95); fill-opacity: 1; white-space: pre;">01/01</text></g><g class="xtick"><text text-anchor="middle" x="0" y="469" transform="translate(291.22,0)" style="font-family: 'Open Sans', verdana, arial, sans-serif; font-size: 18px; fill: rgb(42, 63, 95); fill-opacity: 1; white-space: pre;">01/03</text></g><g class="xtick"><text text-anchor="middle" x="0" y="469" transform="translate(387.39,0)" style="font-family: 'Open Sans', verdana, arial, sans-serif; font-size: 18px; fill: rgb(42, 63, 95); fill-opacity: 1; white-space: pre;">01/05</text></g><g class="xtick"><text text-anchor="middle" x="0" y="469" transform="translate(483.56,0)" style="font-family: 'Open Sans', verdana, arial, sans-serif; font-size: 18px; fill: rgb(42, 63, 95); fill-opacity: 1; white-space: pre;">01/07</text></g><g class="xtick"><text text-anchor="middle" x="0" y="469" transform="translate(581.31,0)" style="font-family: 'Open Sans', verdana, arial, sans-serif; font-size: 18px; fill: rgb(42, 63, 95); fill-opacity: 1; white-space: pre;">01/09</text></g><g class="xtick"><text text-anchor="middle" x="0" y="469" transform="translate(677.48,0)" style="font-family: 'Open Sans', verdana, arial, sans-serif; font-size: 18px; fill: rgb(42, 63, 95); fill-opacity: 1; white-space: pre;">01/11</text></g></g><g class="yaxislayer-above"/><g class="overaxes-above"/></g></g><g class="polarlayer"/><g class="ternarylayer"/><g class="geolayer"/><g class="funnelarealayer"/><g class="pielayer"/><g class="treemaplayer"/><g class="sunburstlayer"/><g class="glimages"/><defs id="topdefs-23696b"><g class="clips"/></defs><g class="layer-above"><g class="imagelayer"/><g class="shapelayer"><path data-index="0" fill-rule="evenodd" d="M-836.04,427.24L316.44,427.24" clip-path="url('#clip23696bxy')" style="opacity: 1; stroke: rgb(255, 0, 0); stroke-opacity: 1; fill: rgb(0, 0, 0); fill-opacity: 0; stroke-dasharray: 3px, 3px; stroke-width: 1.5px;"/></g></g><g class="infolayer"><g class="g-gtitle"><text class="gtitle" x="375" y="25" text-anchor="middle" dy="0.7em" style="font-family: 'Open Sans', verdana, arial, sans-serif; font-size: 50px; fill: rgb(42, 63, 95); opacity: 1; font-weight: normal; white-space: pre;"><tspan style="font-weight:bold">Alpes-de-Haute-Provence (04)</tspan></text></g><g class="g-xtitle"/><g class="annotation" data-index="0" style="opacity: 1;"><g class="annotation-text-g" transform="rotate(0,696.96,14.959999999999994)"><g class="cursor-pointer" transform="translate(639, -21)"><rect class="bg" x="0.5" y="0.5" width="115" height="71" style="stroke-width: 1px; stroke: rgb(0, 0, 0); stroke-opacity: 0; fill: rgb(255, 255, 255); fill-opacity: 0.6;"/><text class="annotation-text" text-anchor="middle" x="57.8125" y="55.5" style="font-family: 'Open Sans', verdana, arial, sans-serif; font-size: 50px; fill: rgb(8, 115, 191); fill-opacity: 1; white-space: pre;"> <tspan style="font-weight:bold">823 </tspan></text></g></g><g class="annotation-arrow-g" style="opacity: 1;"><path d="M725.36,50.459999999999994L736.96,64.96" style="stroke-width: 1px; stroke: rgb(8, 115, 191); stroke-opacity: 1; stroke-dasharray: 0px, 0px, 18.5691px, 18.5691px;"/></g></g></g></svg>