<svg class="main-svg" xmlns="http://www.w3.org/2000/svg" xmlns:xlink="http://www.w3.org/1999/xlink" width="1125" height="750" style="" viewBox="0 0 750 500"><rect x="0" y="0" width="750" height="500" style="fill: rgb(0, 0, 0); fill-opacity: 0;"/><defs id="defs-d3aa01"><g class="clips"><clipPath id="clipd3aa01xyplot" class="plotclip"><rect width="700" height="380"/></clipPath><clipPath class="axesclip" id="clipd3aa01x"><rect x="50" y="0" width="700" height="500"/></clipPath><clipPath class="axesclip" id="clipd3aa01y"><rect x="0" y="70" width="750" height="380"/></clipPath><clipPath class="axesclip" id="clipd3aa01xy"><rect x="50" y="70" width="700" height="380"/></clipPath></g><g class="gradients"/></defs><g class="bglayer"><rect class="bg" x="50" y="70" width="700" height="380" style="fill: rgb(0, 0, 0); fill-opacity: 0; stroke-width: 0;"/></g><g class="layer-below"><g class="imagelayer"/><g class="shapelayer"/></g><g class="cartesianlayer"><g class="subplot xy"><g class="layer-subplot"><g class="shapelayer"/><g class="imagelayer"/></g><g class="gridlayer"><g class="x"><path class="xgrid crisp" transform="translate(52.27,0)" d="M0,70v380" style="stroke: rgb(255, 255, 255); stroke-opacity: 1; stroke-width: 1px;"/><path class="xgrid crisp" transform="translate(156.47,0)" d="M0,70v380" style="stroke: rgb(255, 255, 255); stroke-opacity: 1; stroke-width: 1px;"/><path class="xgrid crisp" transform="translate(258.40999999999997,0)" d="M0,70v380" style="stroke: rgb(255, 255, 255); stroke-opacity: 1; stroke-width: 1px;"/><path class="xgrid crisp" transform="translate(361.49,0)" d="M0,70v380" style="stroke: rgb(255, 255, 255); stroke-opacity: 1; stroke-width: 1px;"/><path class="xgrid crisp" transform="translate(465.7,0)" d="M0,70v380" style="stroke: rgb(255, 255, 255); stroke-opacity: 1; stroke-width: 1px;"/><path class="xgrid crisp" transform="translate(569.9,0)" d="M0,70v380" style="stroke: rgb(255, 255, 255); stroke-opacity: 1; stroke-width: 1px;"/><path class="xgrid crisp" transform="translate(671.84,0)" d="M0,70v380" style="stroke: rgb(255, 255, 255); stroke-opacity: 1; stroke-width: 1px;"/></g><g class="y"/></g><g class="zerolinelayer"/><path class="xlines-below"/><path class="ylines-below"/><g class="overlines-below"/><g class="xaxislayer-below"/><g class="yaxislayer-below"/><g class="overaxes-below"/><g class="plot" transform="translate(50, 70)" clip-path="url('#clipd3aa01xyplot')"><g class="scatterlayer mlayer"><g class="trace scatter trace147691" style="stroke-miterlimit: 2;"><g class="fills"><g><path class="js-fill" d="M680.74,380L-154.05,380L-154.05,379.41L-126.86,379.83L-125.73,379.83L-75.89,378.96L-74.76,378.77L-56.63,376.43L-55.5,375.2L-50.97,372.72L-49.84,372.03L-47.57,372.62L-46.44,372.9L-40.78,375.48L-39.64,375.69L-31.72,375.41L-30.58,375.32L-28.32,375.2L-27.18,374.35L-23.79,373.64L-22.65,373.73L-20.39,374.23L-19.26,374.44L-13.59,373.71L-12.46,373.24L0,373.59L1.13,373.17L4.53,373.04L5.66,371.89L7.93,370.78L9.06,370.44L11.33,369.52L12.46,368.69L14.72,368.58L15.86,367.96L20.39,366.69L21.52,365.72L24.92,361.31L26.05,361.18L29.45,355.57L30.58,354.83L33.98,353.25L35.11,352.16L36.25,351.17L37.38,351.19L39.64,351.05L40.78,351.57L43.04,352.75L44.17,354.77L46.44,358.76L47.57,359.89L48.71,361.27L49.84,361.12L52.1,364.58L53.24,362.78L55.5,366.14L56.63,366.59L57.77,366.85L58.9,368.27L63.43,370.68L64.56,370.66L67.96,370.26L69.09,370.11L73.62,368.32L74.76,367.66L75.89,366.99L77.02,367.32L79.29,366.35L80.42,366.71L84.95,365.52L86.08,364.98L87.22,365.69L88.35,365.5L94.01,367.14L95.15,368.77L97.41,368.83L98.54,369.03L101.94,370.18L103.07,369.99L106.47,369.14L107.61,368.39L109.87,368.72L111,368.24L114.4,371.25L115.53,370.99L118.93,364.58L120.06,362.93L121.2,362.21L122.33,359.21L123.46,358.6L124.6,359.04L127.99,358.53L129.13,358.85L130.26,358.59L131.39,359.43L133.66,360.82L134.79,360.84L141.59,362.35L142.72,363.26L146.12,364.25L147.25,364.7L149.51,365.67L150.65,366.33L152.91,366.61L154.05,367.94L157.44,368.17L158.58,367.91L164.24,365.71L165.37,364.86L173.3,367.18L174.43,366.54L176.7,365.72L177.83,365.59L178.96,365.91L180.1,365.1L182.36,363.99L183.5,364.23L185.76,363.28L186.89,362.5L189.16,361.96L190.29,361.18L192.56,360.58L193.69,358.46L194.82,357.25L195.95,354.79L199.35,351.5L200.49,351.5L203.88,349.68L205.02,349.04L207.28,346.82L208.41,346.41L209.55,350.25L210.68,348.81L216.34,345.44L217.48,339.98L219.74,340.01L220.87,340.19L223.14,340.86L224.27,341.36L225.4,340.88L226.54,342.16L231.07,346.06L232.2,345.96L234.47,348.81L235.6,349.56L239,354.81L240.13,355.05L243.53,358.52L244.66,359.04L245.79,358.46L246.93,358.83L251.46,359.35L252.59,362.07L253.72,362.83L254.85,361.13L258.25,362.1L259.39,362.81L260.52,361.44L261.65,362.41L263.92,363.4L265.05,366.5L269.58,369.4L270.71,369.99L271.84,370.33L272.98,369.17L277.51,371.94L278.64,372.58L279.77,372.65L280.91,373.59L289.97,377.64L291.1,377.94L297.9,379.01L299.03,379.15L306.96,379.22L308.09,379.08L318.28,378.54L319.42,378.68L329.61,375.84L330.74,375.32L336.41,374.42L337.54,374.25L338.67,374.14L339.81,373.09L342.07,372.62L343.2,372.58L346.6,371.42L347.73,371.84L352.27,370.97L353.4,371.03L363.59,369.05L364.72,369.31L374.92,372.15L376.05,372.32L388.51,374.46L389.64,374.32L391.91,374.68L393.04,375.1L396.44,375.72L397.57,376.26L403.24,375.88L404.37,375.65L411.17,376.19L412.3,376.36L414.56,376.45L415.7,376.86L431.55,377L432.69,376.47L439.48,373.75L440.61,373.52L446.28,372.12L447.41,372.69L449.68,371.98L450.81,371.84L454.21,371.37L455.34,369.52L456.47,369.14L457.61,367.53L458.74,367.85L459.87,366.76L462.14,365.27L463.27,364.63L465.53,363.92L466.67,362.4L472.33,362.24L473.46,361.77L476.86,358.98L477.99,358.83L484.79,352.89L485.92,352.85L487.06,350.86L488.19,350.72L489.32,349.77L490.45,350.06L492.72,351.62L493.85,351.41L494.98,352.16L496.12,351.78L497.25,352.73L498.38,352.4L500.65,351.41L501.78,350.79L502.91,350.49L504.05,348.74L507.44,337.62L508.58,338.31L509.71,335.44L510.84,321.6L515.37,256.8L516.5,252.88L517.64,245.94L518.77,219.55L521.04,181.16L522.17,170.99L523.3,161.08L524.43,142.43L525.57,142.09L526.7,139.21L527.83,140.51L528.96,134.1L533.5,99.5L534.63,76.98L538.03,26.25L539.16,15.39L542.56,0L543.69,0.97L547.09,22.97L548.22,26.89L549.35,28.74L550.49,50.07L558.41,184.78L559.55,209.76L562.94,263.23L564.08,273.71L565.21,277.26L566.34,289.72L569.74,307.79L570.87,312.86L574.27,322.58L575.4,325.77L578.8,334.07L579.94,335.02L583.33,336.67L584.47,334.42L587.86,330.17L589,329.67L591.26,325.53L592.39,325.22L595.79,318.17L596.93,317.2L600.32,304.86L601.46,301.36L604.85,294.71L605.99,287.29L610.52,255.71L611.65,252.1L612.78,249.56L613.92,242.54L616.18,234.52L617.31,233.32L618.45,233.81L619.58,233.32L620.71,234.17L621.84,236.04L624.11,240.37L625.24,238.38L627.51,238.03L628.64,239.01L630.91,247.17L632.04,252.71L634.3,265.01L635.44,269.88L636.57,271.13L637.7,291.78L638.83,290.65L639.97,296.28L643.37,308.71L644.5,310.13L645.63,302.87L646.76,312.97L650.16,326.05L651.29,328.72L652.43,329.57L653.56,332.74L655.83,335.53L656.96,336.1L660.36,337.6L661.49,338.02L664.89,339.91L666.02,340.79L668.28,341.73L669.42,344.43L675.08,355.73L676.21,356.56L680.74,363.21" style="fill: rgb(8, 115, 191); fill-opacity: 0.2; stroke-width: 0;"/></g></g><g class="errorbars"/><g class="lines"><path class="js-line" d="M-154.05,379.41L-126.86,379.83L-125.73,379.83L-75.89,378.96L-74.76,378.77L-56.63,376.43L-55.5,375.2L-50.97,372.72L-49.84,372.03L-47.57,372.62L-46.44,372.9L-40.78,375.48L-39.64,375.69L-31.72,375.41L-30.58,375.32L-28.32,375.2L-27.18,374.35L-23.79,373.64L-22.65,373.73L-20.39,374.23L-19.26,374.44L-13.59,373.71L-12.46,373.24L0,373.59L1.13,373.17L4.53,373.04L5.66,371.89L7.93,370.78L9.06,370.44L11.33,369.52L12.46,368.69L14.72,368.58L15.86,367.96L20.39,366.69L21.52,365.72L24.92,361.31L26.05,361.18L29.45,355.57L30.58,354.83L33.98,353.25L35.11,352.16L36.25,351.17L37.38,351.19L39.64,351.05L40.78,351.57L43.04,352.75L44.17,354.77L46.44,358.76L47.57,359.89L48.71,361.27L49.84,361.12L52.1,364.58L53.24,362.78L55.5,366.14L56.63,366.59L57.77,366.85L58.9,368.27L63.43,370.68L64.56,370.66L67.96,370.26L69.09,370.11L73.62,368.32L74.76,367.66L75.89,366.99L77.02,367.32L79.29,366.35L80.42,366.71L84.95,365.52L86.08,364.98L87.22,365.69L88.35,365.5L94.01,367.14L95.15,368.77L97.41,368.83L98.54,369.03L101.94,370.18L103.07,369.99L106.47,369.14L107.61,368.39L109.87,368.72L111,368.24L114.4,371.25L115.53,370.99L118.93,364.58L120.06,362.93L121.2,362.21L122.33,359.21L123.46,358.6L124.6,359.04L127.99,358.53L129.13,358.85L130.26,358.59L131.39,359.43L133.66,360.82L134.79,360.84L141.59,362.35L142.72,363.26L146.12,364.25L147.25,364.7L149.51,365.67L150.65,366.33L152.91,366.61L154.05,367.94L157.44,368.17L158.58,367.91L164.24,365.71L165.37,364.86L173.3,367.18L174.43,366.54L176.7,365.72L177.83,365.59L178.96,365.91L180.1,365.1L182.36,363.99L183.5,364.23L185.76,363.28L186.89,362.5L189.16,361.96L190.29,361.18L192.56,360.58L193.69,358.46L194.82,357.25L195.95,354.79L199.35,351.5L200.49,351.5L203.88,349.68L205.02,349.04L207.28,346.82L208.41,346.41L209.55,350.25L210.68,348.81L216.34,345.44L217.48,339.98L219.74,340.01L220.87,340.19L223.14,340.86L224.27,341.36L225.4,340.88L226.54,342.16L231.07,346.06L232.2,345.96L234.47,348.81L235.6,349.56L239,354.81L240.13,355.05L243.53,358.52L244.66,359.04L245.79,358.46L246.93,358.83L251.46,359.35L252.59,362.07L253.72,362.83L254.85,361.13L258.25,362.1L259.39,362.81L260.52,361.44L261.65,362.41L263.92,363.4L265.05,366.5L269.58,369.4L270.71,369.99L271.84,370.33L272.98,369.17L277.51,371.94L278.64,372.58L279.77,372.65L280.91,373.59L289.97,377.64L291.1,377.94L297.9,379.01L299.03,379.15L306.96,379.22L308.09,379.08L318.28,378.54L319.42,378.68L329.61,375.84L330.74,375.32L336.41,374.42L337.54,374.25L338.67,374.14L339.81,373.09L342.07,372.62L343.2,372.58L346.6,371.42L347.73,371.84L352.27,370.97L353.4,371.03L363.59,369.05L364.72,369.31L374.92,372.15L376.05,372.32L388.51,374.46L389.64,374.32L391.91,374.68L393.04,375.1L396.44,375.72L397.57,376.26L403.24,375.88L404.37,375.65L411.17,376.19L412.3,376.36L414.56,376.45L415.7,376.86L431.55,377L432.69,376.47L439.48,373.75L440.61,373.52L446.28,372.12L447.41,372.69L449.68,371.98L450.81,371.84L454.21,371.37L455.34,369.52L456.47,369.14L457.61,367.53L458.74,367.85L459.87,366.76L462.14,365.27L463.27,364.63L465.53,363.92L466.67,362.4L472.33,362.24L473.46,361.77L476.86,358.98L477.99,358.83L484.79,352.89L485.92,352.85L487.06,350.86L488.19,350.72L489.32,349.77L490.45,350.06L492.72,351.62L493.85,351.41L494.98,352.16L496.12,351.78L497.25,352.73L498.38,352.4L500.65,351.41L501.78,350.79L502.91,350.49L504.05,348.74L507.44,337.62L508.58,338.31L509.71,335.44L510.84,321.6L515.37,256.8L516.5,252.88L517.64,245.94L518.77,219.55L521.04,181.16L522.17,170.99L523.3,161.08L524.43,142.43L525.57,142.09L526.7,139.21L527.83,140.51L528.96,134.1L533.5,99.5L534.63,76.98L538.03,26.25L539.16,15.39L542.56,0L543.69,0.97L547.09,22.97L548.22,26.89L549.35,28.74L550.49,50.07L558.41,184.78L559.55,209.76L562.94,263.23L564.08,273.71L565.21,277.26L566.34,289.72L569.74,307.79L570.87,312.86L574.27,322.58L575.4,325.77L578.8,334.07L579.94,335.02L583.33,336.67L584.47,334.42L587.86,330.17L589,329.67L591.26,325.53L592.39,325.22L595.79,318.17L596.93,317.2L600.32,304.86L601.46,301.36L604.85,294.71L605.99,287.29L610.52,255.71L611.65,252.1L612.78,249.56L613.92,242.54L616.18,234.52L617.31,233.32L618.45,233.81L619.58,233.32L620.71,234.17L621.84,236.04L624.11,240.37L625.24,238.38L627.51,238.03L628.64,239.01L630.91,247.17L632.04,252.71L634.3,265.01L635.44,269.88L636.57,271.13L637.7,291.78L638.83,290.65L639.97,296.28L643.37,308.71L644.5,310.13L645.63,302.87L646.76,312.97L650.16,326.05L651.29,328.72L652.43,329.57L653.56,332.74L655.83,335.53L656.96,336.1L660.36,337.6L661.49,338.02L664.89,339.91L666.02,340.79L668.28,341.73L669.42,344.43L675.08,355.73L676.21,356.56L680.74,363.21" style="vector-effect: non-scaling-stroke; fill: none; stroke: rgb(8, 115, 191); stroke-opacity: 1; stroke-width: 0.5px; opacity: 1;"/></g><g class="points"/><g class="text"/></g><g class="trace scatter trace230bf4" style="stroke-miterlimit: 2;"><g class="fills"><g><path class="js-fill" d="M692.07,380L680.74,380L680.74,363.21L684.14,363.73L685.28,364.72L686.41,365L687.54,364.39L688.67,362.15L689.81,362.17L692.07,361.24" style="fill: rgb(8, 115, 191); fill-opacity: 0.4; stroke-width: 0;"/></g></g><g class="errorbars"/><g class="lines"><path class="js-line" d="M680.74,363.21L684.14,363.73L685.28,364.72L686.41,365L687.54,364.39L688.67,362.15L689.81,362.17L692.07,361.24" style="vector-effect: non-scaling-stroke; fill: none; stroke: rgb(8, 115, 191); stroke-opacity: 1; stroke-width: 2px; opacity: 1;"/></g><g class="points"/><g class="text"/></g><g class="trace scatter trace023abb" style="stroke-miterlimit: 2; opacity: 1;"><g class="fills"/><g class="errorbars"/><g class="lines"/><g class="points"><path class="point" transform="translate(692.07,361.24)" d="M15,0A15,15 0 1,1 0,-15A15,15 0 0,1 15,0Z" style="opacity: 1; stroke-width: 0px; fill: rgb(8, 115, 191); fill-opacity: 1;"/></g><g class="text"/></g></g></g><g class="overplot"/><path class="xlines-above crisp" style="fill: none; stroke-width: 1px; stroke: rgb(0, 0, 0); stroke-opacity: 0;" d=""/><path class="ylines-above crisp" style="fill: none;" d="M0,0"/><g class="overlines-above"/><g class="xaxislayer-above"><path class="xtick ticks crisp" d="M0,450v-5" transform="translate(52.27,0)" style="stroke: rgb(68, 68, 68); stroke-opacity: 1; stroke-width: 1px;"/><path class="xtick ticks crisp" d="M0,450v-5" transform="translate(156.47,0)" style="stroke: rgb(68, 68, 68); stroke-opacity: 1; stroke-width: 1px;"/><path class="xtick ticks crisp" d="M0,450v-5" transform="translate(258.40999999999997,0)" style="stroke: rgb(68, 68, 68); stroke-opacity: 1; stroke-width: 1px;"/><path class="xtick ticks crisp" d="M0,450v-5" transform="translate(361.49,0)" style="stroke: rgb(68, 68, 68); stroke-opacity: 1; stroke-width: 1px;"/><path class="xtick ticks crisp" d="M0,450v-5" transform="translate(465.7,0)" style="stroke: rgb(68, 68, 68); stroke-opacity: 1; stroke-width: 1px;"/><path class="xtick ticks crisp" d="M0,450v-5" transform="translate(569.9,0)" style="stroke: rgb(68, 68, 68); stroke-opacity: 1; stroke-width: 1px;"/><path class="xtick ticks crisp" d="M0,450v-5" transform="translate(671.84,0)" style="stroke: rgb(68, 68, 68); stroke-opacity: 1; stroke-width: 1px;"/><g class="xtick"><text text-anchor="middle" x="0" y="469" transform="translate(52.27,0)" style="font-family: 'Open Sans', verdana, arial, sans-serif; font-size: 18px; fill: rgb(42, 63, 95); fill-opacity: 1; white-space: pre;">01/10</text></g><g class="xtick"><text text-anchor="middle" x="0" y="469" transform="translate(156.47,0)" style="font-family: 'Open Sans', verdana, arial, sans-serif; font-size: 18px; fill: rgb(42, 63, 95); fill-opacity: 1; white-space: pre;">01/01</text></g><g class="xtick"><text text-anchor="middle" x="0" y="469" transform="translate(258.40999999999997,0)" style="font-family: 'Open Sans', verdana, arial, sans-serif; font-size: 18px; fill: rgb(42, 63, 95); fill-opacity: 1; white-space: pre;">01/04</text></g><g class="xtick"><text text-anchor="middle" x="0" y="469" transform="translate(361.49,0)" style="font-family: 'Open Sans', verdana, arial, sans-serif; font-size: 18px; fill: rgb(42, 63, 95); fill-opacity: 1; white-space: pre;">01/07</text></g><g class="xtick"><text text-anchor="middle" x="0" y="469" transform="translate(465.7,0)" style="font-family: 'Open Sans', verdana, arial, sans-serif; font-size: 18px; fill: rgb(42, 63, 95); fill-opacity: 1; white-space: pre;">01/10</text></g><g class="xtick"><text text-anchor="middle" x="0" y="469" transform="translate(569.9,0)" style="font-family: 'Open Sans', verdana, arial, sans-serif; font-size: 18px; fill: rgb(42, 63, 95); fill-opacity: 1; white-space: pre;">01/01</text></g><g class="xtick"><text text-anchor="middle" x="0" y="469" transform="translate(671.84,0)" style="font-family: 'Open Sans', verdana, arial, sans-serif; font-size: 18px; fill: rgb(42, 63, 95); fill-opacity: 1; white-space: pre;">01/04</text></g></g><g class="yaxislayer-above"/><g class="overaxes-above"/></g></g><g class="polarlayer"/><g class="ternarylayer"/><g class="geolayer"/><g class="funnelarealayer"/><g class="pielayer"/><g class="treemaplayer"/><g class="sunburstlayer"/><g class="glimages"/><defs id="topdefs-d3aa01"><g class="clips"/></defs><g class="layer-above"><g class="imagelayer"/><g class="shapelayer"><path data-index="0" fill-rule="evenodd" d="M-586.57,445.15L241.42,445.15" clip-path="url('#clipd3aa01xy')" style="opacity: 1; stroke: rgb(255, 0, 0); stroke-opacity: 1; fill: rgb(0, 0, 0); fill-opacity: 0; stroke-dasharray: 3px, 3px; stroke-width: 1.5px;"/></g></g><g class="infolayer"><g class="g-gtitle"><text class="gtitle" x="375" y="25" text-anchor="middle" dy="0.7em" style="font-family: 'Open Sans', verdana, arial, sans-serif; font-size: 50px; fill: rgb(42, 63, 95); opacity: 1; font-weight: normal; white-space: pre;"><tspan style="font-weight:bold">Sarthe (72)</tspan></text></g><g class="g-xtitle"/><g class="annotation" data-index="0" style="opacity: 1;"><g class="annotation-text-g" transform="rotate(0,700.07,371.24)"><g class="cursor-pointer" transform="translate(642, 335)"><rect class="bg" x="0.5" y="0.5" width="115" height="71" style="stroke-width: 1px; stroke: rgb(0, 0, 0); stroke-opacity: 0; fill: rgb(255, 255, 255); fill-opacity: 0.6;"/><text class="annotation-text" text-anchor="middle" x="57.8125" y="55.5" style="font-family: 'Open Sans', verdana, arial, sans-serif; font-size: 50px; fill: rgb(8, 115, 191); fill-opacity: 1; white-space: pre;"> <tspan style="font-weight:bold">193 </tspan></text></g></g><g class="annotation-arrow-g" style="opacity: 1;"><path d="M728.47,406.74L740.07,421.24" style="stroke-width: 1px; stroke: rgb(8, 115, 191); stroke-opacity: 1; stroke-dasharray: 0px, 0px, 18.5691px, 18.5691px;"/></g></g></g></svg>