<svg class="main-svg" xmlns="http://www.w3.org/2000/svg" xmlns:xlink="http://www.w3.org/1999/xlink" width="1125" height="750" style="" viewBox="0 0 750 500"><rect x="0" y="0" width="750" height="500" style="fill: rgb(0, 0, 0); fill-opacity: 0;"/><defs id="defs-e1d6fc"><g class="clips"><clipPath id="clipe1d6fcxyplot" class="plotclip"><rect width="700" height="380"/></clipPath><clipPath class="axesclip" id="clipe1d6fcx"><rect x="50" y="0" width="700" height="500"/></clipPath><clipPath class="axesclip" id="clipe1d6fcy"><rect x="0" y="70" width="750" height="380"/></clipPath><clipPath class="axesclip" id="clipe1d6fcxy"><rect x="50" y="70" width="700" height="380"/></clipPath></g><g class="gradients"/></defs><g class="bglayer"><rect class="bg" x="50" y="70" width="700" height="380" style="fill: rgb(0, 0, 0); fill-opacity: 0; stroke-width: 0;"/></g><g class="layer-below"><g class="imagelayer"/><g class="shapelayer"/></g><g class="cartesianlayer"><g class="subplot xy"><g class="layer-subplot"><g class="shapelayer"/><g class="imagelayer"/></g><g class="gridlayer"><g class="x"><path class="xgrid crisp" transform="translate(104.74000000000001,0)" d="M0,70v380" style="stroke: rgb(255, 255, 255); stroke-opacity: 1; stroke-width: 1px;"/><path class="xgrid crisp" transform="translate(205.92,0)" d="M0,70v380" style="stroke: rgb(255, 255, 255); stroke-opacity: 1; stroke-width: 1px;"/><path class="xgrid crisp" transform="translate(303.78999999999996,0)" d="M0,70v380" style="stroke: rgb(255, 255, 255); stroke-opacity: 1; stroke-width: 1px;"/><path class="xgrid crisp" transform="translate(404.98,0)" d="M0,70v380" style="stroke: rgb(255, 255, 255); stroke-opacity: 1; stroke-width: 1px;"/><path class="xgrid crisp" transform="translate(506.16,0)" d="M0,70v380" style="stroke: rgb(255, 255, 255); stroke-opacity: 1; stroke-width: 1px;"/><path class="xgrid crisp" transform="translate(609,0)" d="M0,70v380" style="stroke: rgb(255, 255, 255); stroke-opacity: 1; stroke-width: 1px;"/><path class="xgrid crisp" transform="translate(710.19,0)" d="M0,70v380" style="stroke: rgb(255, 255, 255); stroke-opacity: 1; stroke-width: 1px;"/></g><g class="y"/></g><g class="zerolinelayer"/><path class="xlines-below"/><path class="ylines-below"/><g class="overlines-below"/><g class="xaxislayer-below"/><g class="yaxislayer-below"/><g class="overaxes-below"/><g class="plot" transform="translate(50, 70)" clip-path="url('#clipe1d6fcxyplot')"><g class="scatterlayer mlayer"><g class="trace scatter traced302eb" style="stroke-miterlimit: 2;"><g class="fills"><g><path class="js-fill" d="M671.8,380L-225.59,380L-225.59,379.17L-199.05,378.55L-197.39,378.55L-160.9,378.44L-159.24,378.34L-145.97,377.93L-144.31,377.93L-136.02,375.33L-134.36,374.61L-106.16,377.93L-104.5,377.2L-91.23,375.75L-89.57,375.23L-87.91,373.99L-86.26,370.56L-82.94,365.07L-81.28,360.09L-77.96,356.15L-76.3,353.56L-74.64,352.73L-72.99,349L-68.01,339.46L-66.35,341.02L-63.03,333.55L-61.37,331.79L-58.06,329.82L-56.4,333.14L-54.74,331.79L-53.08,328.57L-49.76,317.27L-48.1,316.13L-44.79,310.95L-43.13,312.19L-39.81,317.58L-38.15,318.31L-33.18,319.24L-31.52,318.41L-29.86,314.89L-28.2,317.17L-26.54,319.14L-24.88,317.79L-23.22,320.59L-21.56,321.21L-19.91,323.08L-18.25,322.77L-16.59,321.42L-14.93,323.6L-13.27,327.12L-11.61,326.08L-9.95,327.74L-8.29,325.77L-4.98,332.62L-3.32,332.72L-1.66,333.03L0,336.66L1.66,336.25L3.32,338.53L4.98,341.22L6.64,342.26L9.95,346.51L11.61,345.78L14.93,345.99L16.59,348.07L18.25,347.13L19.91,347.75L21.56,347.65L23.22,348.89L24.88,348.07L26.54,346.41L28.2,342.78L29.86,341.33L36.49,328.78L38.15,328.88L41.47,320.38L43.13,319.86L44.79,319.24L46.45,316.03L49.76,317.79L51.42,317.17L54.74,312.5L56.4,309.39L58.06,309.39L59.72,307.32L64.69,307.63L66.35,317.06L72.99,317.79L74.64,320.17L76.3,323.6L77.96,314.37L79.62,317.17L81.28,316.86L82.94,320.49L84.6,319.76L87.91,325.67L89.57,332.41L92.89,342.67L94.55,343.5L96.21,345.37L97.87,348.48L99.53,350.55L101.18,350.97L102.84,350.24L104.5,352.73L106.16,353.98L107.82,353.46L109.48,352.94L111.14,354.7L112.8,355.32L114.45,357.09L117.77,354.8L119.43,355.01L121.09,356.05L122.75,353.15L124.41,351.38L126.07,351.9L127.73,353.04L129.38,353.25L131.04,353.25L132.7,354.8L139.34,365.59L141,365.9L145.97,365.8L147.63,364.03L149.29,360.92L150.95,360.92L152.61,358.54L154.27,358.95L155.92,356.46L157.58,356.77L159.24,355.63L160.9,355.63L162.56,351.38L164.22,352.42L165.88,352.32L167.54,353.25L169.19,354.18L170.85,357.4L175.83,358.95L177.49,358.12L179.15,357.29L180.81,353.35L182.46,348.69L184.12,347.55L187.44,345.06L189.1,345.78L190.76,345.37L192.42,346.72L194.08,349.62L195.73,348.48L200.71,343.61L202.37,339.05L205.69,330.96L207.35,327.33L209,324.22L210.66,324.53L212.32,324.22L213.98,325.15L217.3,320.17L218.96,321.73L220.62,319.14L222.27,319.55L223.93,319.35L225.59,315.3L228.91,309.29L230.57,306.07L232.23,304.83L233.89,300.79L235.55,300.47L237.2,299.02L238.86,300.37L240.52,299.54L242.18,299.75L243.84,295.81L245.5,295.81L247.16,294.46L248.82,288.34L250.47,285.65L253.79,276.21L255.45,279.22L257.11,278.39L258.77,278.49L260.43,280.05L262.09,283.26L263.74,288.14L265.4,286.37L270.38,286.06L272.04,286.89L275.36,277.46L277.01,282.95L278.67,284.2L280.33,283.57L281.99,283.89L283.65,280.46L285.31,277.56L286.97,276.63L288.63,276.52L290.28,272.89L291.94,274.55L293.6,274.86L295.26,277.15L296.92,284.4L298.58,288.97L300.24,287.83L301.9,285.96L303.55,285.44L305.21,285.13L306.87,301.51L310.19,285.03L311.85,284.61L313.51,285.03L315.17,284.51L316.82,284.51L318.48,267.61L321.8,285.13L323.46,287.1L326.78,290.21L328.44,289.69L330.09,289.69L331.75,283.47L333.41,280.15L335.07,274.97L336.73,274.55L338.39,275.07L340.05,273.52L341.71,269.58L345.02,270.82L346.68,269.06L348.34,267.71L350,271.44L351.66,269.27L353.32,269.58L356.64,259.31L358.29,257.55L359.95,258.17L361.61,256.31L364.93,262.42L366.59,269.06L368.25,271.34L369.91,287.62L373.22,276.63L374.88,275.18L376.54,266.67L378.2,262.32L379.86,255.99L381.52,240.03L383.18,243.14L384.83,244.49L386.49,243.66L388.15,261.49L389.81,252.99L391.47,257.86L393.13,260.25L394.79,256.72L396.45,255.06L398.1,256.72L399.76,247.18L401.42,260.76L403.08,258.69L404.74,254.23L406.4,253.61L408.06,254.54L413.03,246.77L414.69,250.81L418.01,258.17L419.67,259.83L421.33,261.39L422.99,266.16L424.64,264.5L426.3,264.91L427.96,263.87L429.62,265.95L431.28,266.57L432.94,269.27L434.6,267.19L436.26,268.54L441.23,258.59L442.89,258.17L444.55,254.75L446.21,253.3L449.53,246.77L451.18,245.73L452.84,246.56L454.5,240.44L456.16,239.41L457.82,233.5L459.48,230.59L461.14,229.35L462.8,228.52L464.45,228.83L467.77,231.11L469.43,230.18L471.09,227.9L472.75,244.07L474.41,236.19L476.07,220.74L479.38,206.33L481.04,187.98L482.7,165.89L484.36,125.66L487.68,99.85L489.34,94.87L491,91.45L492.65,71.33L495.97,61.17L497.63,51.22L499.29,42.1L500.95,27.17L502.61,27.68L504.27,15.14L505.92,3.73L507.58,0L510.9,12.23L512.56,21.05L514.22,25.61L515.88,37.02L524.17,90.41L525.83,90.41L529.15,135.31L530.81,151.27L534.12,180.72L535.78,182.38L537.44,182.59L539.1,188.7L542.42,198.76L544.08,201.35L545.73,202.08L547.39,208.92L554.03,235.26L555.69,237.44L559,238.26L560.66,238.06L562.32,244.07L563.98,254.23L565.64,259.73L567.3,271.13L570.62,290.31L572.27,293.63L577.25,313.95L578.91,314.16L582.23,319.24L583.89,318.93L587.2,325.88L588.86,328.16L593.84,336.87L595.5,336.66L597.16,342.47L598.82,344.23L603.79,349.62L605.45,349.52L607.11,350.86L608.77,350.66L610.43,353.15L612.09,352.11L615.4,354.39L617.06,354.6L620.38,355.22L622.04,354.6L623.7,355.12L625.36,354.29L627.01,353.77L628.67,354.49L630.33,354.49L631.99,353.66L636.97,356.57L638.63,355.32L640.28,351.59L641.94,350.45L643.6,347.24L645.26,341.95L646.92,335L648.58,332.2L650.24,327.74L651.9,325.67L653.55,325.77L655.21,332.51L656.87,323.39L658.53,319.03L661.85,296.43L663.51,290L665.17,287.2L666.82,257.55L668.48,249.36L670.14,236.71L671.8,248.01" style="fill: rgb(8, 115, 191); fill-opacity: 0.2; stroke-width: 0;"/></g></g><g class="errorbars"/><g class="lines"><path class="js-line" d="M-225.59,379.17L-199.05,378.55L-197.39,378.55L-160.9,378.44L-159.24,378.34L-145.97,377.93L-144.31,377.93L-136.02,375.33L-134.36,374.61L-106.16,377.93L-104.5,377.2L-91.23,375.75L-89.57,375.23L-87.91,373.99L-86.26,370.56L-82.94,365.07L-81.28,360.09L-77.96,356.15L-76.3,353.56L-74.64,352.73L-72.99,349L-68.01,339.46L-66.35,341.02L-63.03,333.55L-61.37,331.79L-58.06,329.82L-56.4,333.14L-54.74,331.79L-53.08,328.57L-49.76,317.27L-48.1,316.13L-44.79,310.95L-43.13,312.19L-39.81,317.58L-38.15,318.31L-33.18,319.24L-31.52,318.41L-29.86,314.89L-28.2,317.17L-26.54,319.14L-24.88,317.79L-23.22,320.59L-21.56,321.21L-19.91,323.08L-18.25,322.77L-16.59,321.42L-14.93,323.6L-13.27,327.12L-11.61,326.08L-9.95,327.74L-8.29,325.77L-4.98,332.62L-3.32,332.72L-1.66,333.03L0,336.66L1.66,336.25L3.32,338.53L4.98,341.22L6.64,342.26L9.95,346.51L11.61,345.78L14.93,345.99L16.59,348.07L18.25,347.13L19.91,347.75L21.56,347.65L23.22,348.89L24.88,348.07L26.54,346.41L28.2,342.78L29.86,341.33L36.49,328.78L38.15,328.88L41.47,320.38L43.13,319.86L44.79,319.24L46.45,316.03L49.76,317.79L51.42,317.17L54.74,312.5L56.4,309.39L58.06,309.39L59.72,307.32L64.69,307.63L66.35,317.06L72.99,317.79L74.64,320.17L76.3,323.6L77.96,314.37L79.62,317.17L81.28,316.86L82.94,320.49L84.6,319.76L87.91,325.67L89.57,332.41L92.89,342.67L94.55,343.5L96.21,345.37L97.87,348.48L99.53,350.55L101.18,350.97L102.84,350.24L104.5,352.73L106.16,353.98L107.82,353.46L109.48,352.94L111.14,354.7L112.8,355.32L114.45,357.09L117.77,354.8L119.43,355.01L121.09,356.05L122.75,353.15L124.41,351.38L126.07,351.9L127.73,353.04L129.38,353.25L131.04,353.25L132.7,354.8L139.34,365.59L141,365.9L145.97,365.8L147.63,364.03L149.29,360.92L150.95,360.92L152.61,358.54L154.27,358.95L155.92,356.46L157.58,356.77L159.24,355.63L160.9,355.63L162.56,351.38L164.22,352.42L165.88,352.32L167.54,353.25L169.19,354.18L170.85,357.4L175.83,358.95L177.49,358.12L179.15,357.29L180.81,353.35L182.46,348.69L184.12,347.55L187.44,345.06L189.1,345.78L190.76,345.37L192.42,346.72L194.08,349.62L195.73,348.48L200.71,343.61L202.37,339.05L205.69,330.96L207.35,327.33L209,324.22L210.66,324.53L212.32,324.22L213.98,325.15L217.3,320.17L218.96,321.73L220.62,319.14L222.27,319.55L223.93,319.35L225.59,315.3L228.91,309.29L230.57,306.07L232.23,304.83L233.89,300.79L235.55,300.47L237.2,299.02L238.86,300.37L240.52,299.54L242.18,299.75L243.84,295.81L245.5,295.81L247.16,294.46L248.82,288.34L250.47,285.65L253.79,276.21L255.45,279.22L257.11,278.39L258.77,278.49L260.43,280.05L262.09,283.26L263.74,288.14L265.4,286.37L270.38,286.06L272.04,286.89L275.36,277.46L277.01,282.95L278.67,284.2L280.33,283.57L281.99,283.89L283.65,280.46L285.31,277.56L286.97,276.63L288.63,276.52L290.28,272.89L291.94,274.55L293.6,274.86L295.26,277.15L296.92,284.4L298.58,288.97L300.24,287.83L301.9,285.96L303.55,285.44L305.21,285.13L306.87,301.51L310.19,285.03L311.85,284.61L313.51,285.03L315.17,284.51L316.82,284.51L318.48,267.61L321.8,285.13L323.46,287.1L326.78,290.21L328.44,289.69L330.09,289.69L331.75,283.47L333.41,280.15L335.07,274.97L336.73,274.55L338.39,275.07L340.05,273.52L341.71,269.58L345.02,270.82L346.68,269.06L348.34,267.71L350,271.44L351.66,269.27L353.32,269.58L356.64,259.31L358.29,257.55L359.95,258.17L361.61,256.31L364.93,262.42L366.59,269.06L368.25,271.34L369.91,287.62L373.22,276.63L374.88,275.18L376.54,266.67L378.2,262.32L379.86,255.99L381.52,240.03L383.18,243.14L384.83,244.49L386.49,243.66L388.15,261.49L389.81,252.99L391.47,257.86L393.13,260.25L394.79,256.72L396.45,255.06L398.1,256.72L399.76,247.18L401.42,260.76L403.08,258.69L404.74,254.23L406.4,253.61L408.06,254.54L413.03,246.77L414.69,250.81L418.01,258.17L419.67,259.83L421.33,261.39L422.99,266.16L424.64,264.5L426.3,264.91L427.96,263.87L429.62,265.95L431.28,266.57L432.94,269.27L434.6,267.19L436.26,268.54L441.23,258.59L442.89,258.17L444.55,254.75L446.21,253.3L449.53,246.77L451.18,245.73L452.84,246.56L454.5,240.44L456.16,239.41L457.82,233.5L459.48,230.59L461.14,229.35L462.8,228.52L464.45,228.83L467.77,231.11L469.43,230.18L471.09,227.9L472.75,244.07L474.41,236.19L476.07,220.74L479.38,206.33L481.04,187.98L482.7,165.89L484.36,125.66L487.68,99.85L489.34,94.87L491,91.45L492.65,71.33L495.97,61.17L497.63,51.22L499.29,42.1L500.95,27.17L502.61,27.68L504.27,15.14L505.92,3.73L507.58,0L510.9,12.23L512.56,21.05L514.22,25.61L515.88,37.02L524.17,90.41L525.83,90.41L529.15,135.31L530.81,151.27L534.12,180.72L535.78,182.38L537.44,182.59L539.1,188.7L542.42,198.76L544.08,201.35L545.73,202.08L547.39,208.92L554.03,235.26L555.69,237.44L559,238.26L560.66,238.06L562.32,244.07L563.98,254.23L565.64,259.73L567.3,271.13L570.62,290.31L572.27,293.63L577.25,313.95L578.91,314.16L582.23,319.24L583.89,318.93L587.2,325.88L588.86,328.16L593.84,336.87L595.5,336.66L597.16,342.47L598.82,344.23L603.79,349.62L605.45,349.52L607.11,350.86L608.77,350.66L610.43,353.15L612.09,352.11L615.4,354.39L617.06,354.6L620.38,355.22L622.04,354.6L623.7,355.12L625.36,354.29L627.01,353.77L628.67,354.49L630.33,354.49L631.99,353.66L636.97,356.57L638.63,355.32L640.28,351.59L641.94,350.45L643.6,347.24L645.26,341.95L646.92,335L648.58,332.2L650.24,327.74L651.9,325.67L653.55,325.77L655.21,332.51L656.87,323.39L658.53,319.03L661.85,296.43L663.51,290L665.17,287.2L666.82,257.55L668.48,249.36L670.14,236.71L671.8,248.01" style="vector-effect: non-scaling-stroke; fill: none; stroke: rgb(8, 115, 191); stroke-opacity: 1; stroke-width: 0.5px; opacity: 1;"/></g><g class="points"/><g class="text"/></g><g class="trace scatter tracea67b83" style="stroke-miterlimit: 2;"><g class="fills"><g><path class="js-fill" d="M688.39,380L671.8,380L671.8,248.01L673.46,233.5L675.12,226.44L676.78,225.3L678.44,217.32L680.09,206.74L681.75,203.95L683.41,180.82L685.07,182.28L686.73,183.31L688.39,181.34" style="fill: rgb(8, 115, 191); fill-opacity: 0.4; stroke-width: 0;"/></g></g><g class="errorbars"/><g class="lines"><path class="js-line" d="M671.8,248.01L673.46,233.5L675.12,226.44L676.78,225.3L678.44,217.32L680.09,206.74L681.75,203.95L683.41,180.82L685.07,182.28L686.73,183.31L688.39,181.34" style="vector-effect: non-scaling-stroke; fill: none; stroke: rgb(8, 115, 191); stroke-opacity: 1; stroke-width: 2px; opacity: 1;"/></g><g class="points"/><g class="text"/></g><g class="trace scatter trace06c5d9" style="stroke-miterlimit: 2; opacity: 1;"><g class="fills"/><g class="errorbars"/><g class="lines"/><g class="points"><path class="point" transform="translate(688.39,181.34)" d="M15,0A15,15 0 1,1 0,-15A15,15 0 0,1 15,0Z" style="opacity: 1; stroke-width: 0px; fill: rgb(8, 115, 191); fill-opacity: 1;"/></g><g class="text"/></g></g></g><g class="overplot"/><path class="xlines-above crisp" style="fill: none; stroke-width: 1px; stroke: rgb(0, 0, 0); stroke-opacity: 0;" d=""/><path class="ylines-above crisp" style="fill: none;" d="M0,0"/><g class="overlines-above"/><g class="xaxislayer-above"><path class="xtick ticks crisp" d="M0,450v-5" transform="translate(104.74000000000001,0)" style="stroke: rgb(68, 68, 68); stroke-opacity: 1; stroke-width: 1px;"/><path class="xtick ticks crisp" d="M0,450v-5" transform="translate(205.92,0)" style="stroke: rgb(68, 68, 68); stroke-opacity: 1; stroke-width: 1px;"/><path class="xtick ticks crisp" d="M0,450v-5" transform="translate(303.78999999999996,0)" style="stroke: rgb(68, 68, 68); stroke-opacity: 1; stroke-width: 1px;"/><path class="xtick ticks crisp" d="M0,450v-5" transform="translate(404.98,0)" style="stroke: rgb(68, 68, 68); stroke-opacity: 1; stroke-width: 1px;"/><path class="xtick ticks crisp" d="M0,450v-5" transform="translate(506.16,0)" style="stroke: rgb(68, 68, 68); stroke-opacity: 1; stroke-width: 1px;"/><path class="xtick ticks crisp" d="M0,450v-5" transform="translate(609,0)" style="stroke: rgb(68, 68, 68); stroke-opacity: 1; stroke-width: 1px;"/><path class="xtick ticks crisp" d="M0,450v-5" transform="translate(710.19,0)" style="stroke: rgb(68, 68, 68); stroke-opacity: 1; stroke-width: 1px;"/><g class="xtick"><text text-anchor="middle" x="0" y="469" transform="translate(104.74000000000001,0)" style="font-family: 'Open Sans', verdana, arial, sans-serif; font-size: 18px; fill: rgb(42, 63, 95); fill-opacity: 1; white-space: pre;">01/11</text></g><g class="xtick"><text text-anchor="middle" x="0" y="469" transform="translate(205.92,0)" style="font-family: 'Open Sans', verdana, arial, sans-serif; font-size: 18px; fill: rgb(42, 63, 95); fill-opacity: 1; white-space: pre;">01/01</text></g><g class="xtick"><text text-anchor="middle" x="0" y="469" transform="translate(303.78999999999996,0)" style="font-family: 'Open Sans', verdana, arial, sans-serif; font-size: 18px; fill: rgb(42, 63, 95); fill-opacity: 1; white-space: pre;">01/03</text></g><g class="xtick"><text text-anchor="middle" x="0" y="469" transform="translate(404.98,0)" style="font-family: 'Open Sans', verdana, arial, sans-serif; font-size: 18px; fill: rgb(42, 63, 95); fill-opacity: 1; white-space: pre;">01/05</text></g><g class="xtick"><text text-anchor="middle" x="0" y="469" transform="translate(506.16,0)" style="font-family: 'Open Sans', verdana, arial, sans-serif; font-size: 18px; fill: rgb(42, 63, 95); fill-opacity: 1; white-space: pre;">01/07</text></g><g class="xtick"><text text-anchor="middle" x="0" y="469" transform="translate(609,0)" style="font-family: 'Open Sans', verdana, arial, sans-serif; font-size: 18px; fill: rgb(42, 63, 95); fill-opacity: 1; white-space: pre;">01/09</text></g><g class="xtick"><text text-anchor="middle" x="0" y="469" transform="translate(710.19,0)" style="font-family: 'Open Sans', verdana, arial, sans-serif; font-size: 18px; fill: rgb(42, 63, 95); fill-opacity: 1; white-space: pre;">01/11</text></g></g><g class="yaxislayer-above"/><g class="overaxes-above"/></g></g><g class="polarlayer"/><g class="ternarylayer"/><g class="geolayer"/><g class="funnelarealayer"/><g class="pielayer"/><g class="treemaplayer"/><g class="sunburstlayer"/><g class="glimages"/><defs id="topdefs-e1d6fc"><g class="clips"/></defs><g class="layer-above"><g class="imagelayer"/><g class="shapelayer"><path data-index="0" fill-rule="evenodd" d="M-882.23,405.42L330.33,405.42" clip-path="url('#clipe1d6fcxy')" style="opacity: 1; stroke: rgb(255, 0, 0); stroke-opacity: 1; fill: rgb(0, 0, 0); fill-opacity: 0; stroke-dasharray: 3px, 3px; stroke-width: 1.5px;"/></g></g><g class="infolayer"><g class="g-gtitle"><text class="gtitle" x="375" y="25" text-anchor="middle" dy="0.7em" style="font-family: 'Open Sans', verdana, arial, sans-serif; font-size: 50px; fill: rgb(42, 63, 95); opacity: 1; font-weight: normal; white-space: pre;"><tspan style="font-weight:bold">La Réunion (974)</tspan></text></g><g class="g-xtitle"/><g class="annotation" data-index="0" style="opacity: 1;"><g class="annotation-text-g" transform="rotate(0,696.39,191.34)"><g class="cursor-pointer" transform="translate(638, 155)"><rect class="bg" x="0.5" y="0.5" width="115" height="71" style="stroke-width: 1px; stroke: rgb(0, 0, 0); stroke-opacity: 0; fill: rgb(255, 255, 255); fill-opacity: 0.6;"/><text class="annotation-text" text-anchor="middle" x="57.8125" y="55.5" style="font-family: 'Open Sans', verdana, arial, sans-serif; font-size: 50px; fill: rgb(8, 115, 191); fill-opacity: 1; white-space: pre;"> <tspan style="font-weight:bold">222 </tspan></text></g></g><g class="annotation-arrow-g" style="opacity: 1;"><path d="M724.79,226.84L736.39,241.34" style="stroke-width: 1px; stroke: rgb(8, 115, 191); stroke-opacity: 1; stroke-dasharray: 0px, 0px, 18.5691px, 18.5691px;"/></g></g></g></svg>