<svg class="main-svg" xmlns="http://www.w3.org/2000/svg" xmlns:xlink="http://www.w3.org/1999/xlink" width="1125" height="750" style="" viewBox="0 0 750 500"><rect x="0" y="0" width="750" height="500" style="fill: rgb(0, 0, 0); fill-opacity: 0;"/><defs id="defs-59ce6d"><g class="clips"><clipPath id="clip59ce6dxyplot" class="plotclip"><rect width="697" height="380"/></clipPath><clipPath class="axesclip" id="clip59ce6dx"><rect x="50" y="0" width="697" height="500"/></clipPath><clipPath class="axesclip" id="clip59ce6dy"><rect x="0" y="70" width="750" height="380"/></clipPath><clipPath class="axesclip" id="clip59ce6dxy"><rect x="50" y="70" width="697" height="380"/></clipPath></g><g class="gradients"/></defs><g class="bglayer"><rect class="bg" x="50" y="70" width="697" height="380" style="fill: rgb(0, 0, 0); fill-opacity: 0; stroke-width: 0;"/></g><g class="layer-below"><g class="imagelayer"/><g class="shapelayer"/></g><g class="cartesianlayer"><g class="subplot xy"><g class="layer-subplot"><g class="shapelayer"/><g class="imagelayer"/></g><g class="gridlayer"><g class="x"><path class="xgrid crisp" transform="translate(93.07,0)" d="M0,70v380" style="stroke: rgb(255, 255, 255); stroke-opacity: 1; stroke-width: 1px;"/><path class="xgrid crisp" transform="translate(172.69,0)" d="M0,70v380" style="stroke: rgb(255, 255, 255); stroke-opacity: 1; stroke-width: 1px;"/><path class="xgrid crisp" transform="translate(249.7,0)" d="M0,70v380" style="stroke: rgb(255, 255, 255); stroke-opacity: 1; stroke-width: 1px;"/><path class="xgrid crisp" transform="translate(329.32,0)" d="M0,70v380" style="stroke: rgb(255, 255, 255); stroke-opacity: 1; stroke-width: 1px;"/><path class="xgrid crisp" transform="translate(408.94,0)" d="M0,70v380" style="stroke: rgb(255, 255, 255); stroke-opacity: 1; stroke-width: 1px;"/><path class="xgrid crisp" transform="translate(489.87,0)" d="M0,70v380" style="stroke: rgb(255, 255, 255); stroke-opacity: 1; stroke-width: 1px;"/><path class="xgrid crisp" transform="translate(569.49,0)" d="M0,70v380" style="stroke: rgb(255, 255, 255); stroke-opacity: 1; stroke-width: 1px;"/><path class="xgrid crisp" transform="translate(649.11,0)" d="M0,70v380" style="stroke: rgb(255, 255, 255); stroke-opacity: 1; stroke-width: 1px;"/><path class="xgrid crisp" transform="translate(726.12,0)" d="M0,70v380" style="stroke: rgb(255, 255, 255); stroke-opacity: 1; stroke-width: 1px;"/></g><g class="y"/></g><g class="zerolinelayer"/><path class="xlines-below"/><path class="ylines-below"/><g class="overlines-below"/><g class="xaxislayer-below"/><g class="yaxislayer-below"/><g class="overaxes-below"/><g class="plot" transform="translate(50, 70)" clip-path="url('#clip59ce6dxyplot')"><g class="scatterlayer mlayer"><g class="trace scatter trace10ed99" style="stroke-miterlimit: 2;"><g class="fills"><g><path class="js-fill" d="M674.81,380L-177.51,380L-177.51,379.8L-116.17,379.91L-114.86,379.91L-58.74,379.12L-57.43,379.07L-39.16,377.13L-37.85,376.57L-35.24,375.82L-33.94,375.81L-14.36,375.05L-13.05,375.19L-7.83,376.19L-6.53,376.27L7.83,375.51L9.14,375L13.05,373.78L14.36,373.65L22.19,370.21L23.49,368.93L28.72,365.02L30.02,364.64L33.94,362.24L35.24,361.71L37.85,359.99L39.16,360.21L41.77,358.73L43.07,358.71L48.29,359.75L49.6,361.59L50.9,362.28L52.21,364.86L54.82,366.24L56.13,367.21L58.74,367.58L60.04,368.9L61.35,368.41L62.65,370.21L69.18,373.97L70.48,374.3L80.93,376.46L82.23,376.38L90.06,376.21L91.37,375.57L104.42,374.98L105.72,374.58L108.34,374.47L109.64,375.24L113.56,375.24L114.86,375.19L125.3,373.44L126.61,373.82L127.91,372.81L129.22,373.15L134.44,372.01L135.75,371.47L138.36,370.63L139.66,370.69L140.97,370.77L142.27,370.06L148.8,370.4L150.1,370.13L151.41,370.67L152.71,370.39L155.32,369.24L156.63,369.06L159.24,368.82L160.54,368.14L163.16,368.82L164.46,369.04L168.38,369.79L169.68,370.79L173.6,371.82L174.9,371.94L177.51,371.38L178.82,370.89L184.04,369.21L185.34,369.2L190.57,367.43L191.87,368.17L194.48,368.23L195.79,369.16L202.31,370.21L203.62,370.23L206.23,368.56L207.53,368.32L210.14,367.71L211.45,367.33L215.37,367.63L216.67,366.78L225.81,364.13L227.11,363.49L231.03,362.51L232.33,361.74L237.55,359.17L238.86,359.82L240.16,359.88L241.47,363.03L242.78,362.14L244.08,362.63L245.39,362.39L246.69,362.94L249.3,362.56L250.61,359.86L251.91,361.01L253.22,361.11L254.52,361.93L255.83,361.67L263.66,360.65L264.96,361.02L267.57,361.21L268.88,362.39L275.41,367.74L276.71,367.85L280.63,367.72L281.93,367.37L288.46,368.01L289.76,368.37L291.07,370.01L292.37,370.13L294.99,369.35L296.29,369.87L298.9,370.64L300.21,369.58L302.82,370.32L304.12,370.46L305.43,372.19L306.73,371.44L313.26,373.42L314.56,372.79L317.17,374.34L318.48,374.36L332.84,377.39L334.14,377.59L352.42,378.66L353.72,378.47L360.25,377.73L361.55,377.77L369.38,377.17L370.69,376.58L371.99,376.92L373.3,376.26L378.52,373.55L379.83,372.4L382.44,370.14L383.74,369.54L400.71,366.85L402.01,366.08L405.93,364.78L407.24,364.53L411.15,364.49L412.46,364.44L416.37,365.32L417.68,365.02L424.2,366.56L425.51,366.48L435.95,370.16L437.26,370.73L447.7,373.32L449,373.27L454.22,374.28L455.53,374.55L465.97,376.78L467.28,376.63L490.77,377.76L492.08,377.42L501.21,376.65L502.52,376.17L507.74,375.25L509.04,375.05L510.35,375.23L511.66,374.62L516.88,374L518.18,373.31L520.79,372.59L522.1,372.35L523.4,372.38L524.71,370.27L527.32,369.78L528.62,371.02L531.23,369.52L532.54,369.36L537.76,365.02L539.07,365.01L544.29,362.74L545.59,360.8L546.9,359.46L548.2,356.25L549.51,355.02L550.81,354.95L554.73,346.46L556.03,343.99L562.56,340.67L563.87,340.88L566.48,342.13L567.78,341.62L569.09,341.81L570.39,342.88L571.7,343.16L573,344.22L575.61,345.23L576.92,346.6L578.22,346.45L579.53,347.31L580.83,346.37L582.14,344.09L584.75,337.24L586.05,339.19L587.36,337.75L588.66,321.54L593.89,253.53L595.19,252.77L596.5,250.41L597.8,219.76L600.41,192.66L601.72,188.28L603.02,183.13L604.33,162.19L605.63,158.7L606.94,159.4L608.24,156.89L609.55,147.56L613.46,115.68L614.77,115.06L617.38,73.68L618.69,60L622.6,22.81L623.91,20.05L625.21,4.54L626.52,3.46L627.82,0L629.13,0.87L630.43,0.31L631.74,2.3L633.04,2.39L634.35,11.14L636.96,36.37L638.26,51.09L640.87,88.01L642.18,94.59L644.79,166.61L646.1,191.74L648.71,230.5L650.01,242.01L651.32,242.74L652.62,259.95L656.54,288.13L657.84,295.06L659.15,299.14L660.45,300.48L661.76,306.43L663.06,308.36L666.98,314.22L668.28,315.33L669.59,316.07L670.9,318.23L672.2,319.31L673.51,317.81L674.81,316.12" style="fill: rgb(8, 115, 191); fill-opacity: 0.2; stroke-width: 0;"/></g></g><g class="errorbars"/><g class="lines"><path class="js-line" d="M-177.51,379.8L-116.17,379.91L-114.86,379.91L-58.74,379.12L-57.43,379.07L-39.16,377.13L-37.85,376.57L-35.24,375.82L-33.94,375.81L-14.36,375.05L-13.05,375.19L-7.83,376.19L-6.53,376.27L7.83,375.51L9.14,375L13.05,373.78L14.36,373.65L22.19,370.21L23.49,368.93L28.72,365.02L30.02,364.64L33.94,362.24L35.24,361.71L37.85,359.99L39.16,360.21L41.77,358.73L43.07,358.71L48.29,359.75L49.6,361.59L50.9,362.28L52.21,364.86L54.82,366.24L56.13,367.21L58.74,367.58L60.04,368.9L61.35,368.41L62.65,370.21L69.18,373.97L70.48,374.3L80.93,376.46L82.23,376.38L90.06,376.21L91.37,375.57L104.42,374.98L105.72,374.58L108.34,374.47L109.64,375.24L113.56,375.24L114.86,375.19L125.3,373.44L126.61,373.82L127.91,372.81L129.22,373.15L134.44,372.01L135.75,371.47L138.36,370.63L139.66,370.69L140.97,370.77L142.27,370.06L148.8,370.4L150.1,370.13L151.41,370.67L152.71,370.39L155.32,369.24L156.63,369.06L159.24,368.82L160.54,368.14L163.16,368.82L164.46,369.04L168.38,369.79L169.68,370.79L173.6,371.82L174.9,371.94L177.51,371.38L178.82,370.89L184.04,369.21L185.34,369.2L190.57,367.43L191.87,368.17L194.48,368.23L195.79,369.16L202.31,370.21L203.62,370.23L206.23,368.56L207.53,368.32L210.14,367.71L211.45,367.33L215.37,367.63L216.67,366.78L225.81,364.13L227.11,363.49L231.03,362.51L232.33,361.74L237.55,359.17L238.86,359.82L240.16,359.88L241.47,363.03L242.78,362.14L244.08,362.63L245.39,362.39L246.69,362.94L249.3,362.56L250.61,359.86L251.91,361.01L253.22,361.11L254.52,361.93L255.83,361.67L263.66,360.65L264.96,361.02L267.57,361.21L268.88,362.39L275.41,367.74L276.71,367.85L280.63,367.72L281.93,367.37L288.46,368.01L289.76,368.37L291.07,370.01L292.37,370.13L294.99,369.35L296.29,369.87L298.9,370.64L300.21,369.58L302.82,370.32L304.12,370.46L305.43,372.19L306.73,371.44L313.26,373.42L314.56,372.79L317.17,374.34L318.48,374.36L332.84,377.39L334.14,377.59L352.42,378.66L353.72,378.47L360.25,377.73L361.55,377.77L369.38,377.17L370.69,376.58L371.99,376.92L373.3,376.26L378.52,373.55L379.83,372.4L382.44,370.14L383.74,369.54L400.71,366.85L402.01,366.08L405.93,364.78L407.24,364.53L411.15,364.49L412.46,364.44L416.37,365.32L417.68,365.02L424.2,366.56L425.51,366.48L435.95,370.16L437.26,370.73L447.7,373.32L449,373.27L454.22,374.28L455.53,374.55L465.97,376.78L467.28,376.63L490.77,377.76L492.08,377.42L501.21,376.65L502.52,376.17L507.74,375.25L509.04,375.05L510.35,375.23L511.66,374.62L516.88,374L518.18,373.31L520.79,372.59L522.1,372.35L523.4,372.38L524.71,370.27L527.32,369.78L528.62,371.02L531.23,369.52L532.54,369.36L537.76,365.02L539.07,365.01L544.29,362.74L545.59,360.8L546.9,359.46L548.2,356.25L549.51,355.02L550.81,354.95L554.73,346.46L556.03,343.99L562.56,340.67L563.87,340.88L566.48,342.13L567.78,341.62L569.09,341.81L570.39,342.88L571.7,343.16L573,344.22L575.61,345.23L576.92,346.6L578.22,346.45L579.53,347.31L580.83,346.37L582.14,344.09L584.75,337.24L586.05,339.19L587.36,337.75L588.66,321.54L593.89,253.53L595.19,252.77L596.5,250.41L597.8,219.76L600.41,192.66L601.72,188.28L603.02,183.13L604.33,162.19L605.63,158.7L606.94,159.4L608.24,156.89L609.55,147.56L613.46,115.68L614.77,115.06L617.38,73.68L618.69,60L622.6,22.81L623.91,20.05L625.21,4.54L626.52,3.46L627.82,0L629.13,0.87L630.43,0.31L631.74,2.3L633.04,2.39L634.35,11.14L636.96,36.37L638.26,51.09L640.87,88.01L642.18,94.59L644.79,166.61L646.1,191.74L648.71,230.5L650.01,242.01L651.32,242.74L652.62,259.95L656.54,288.13L657.84,295.06L659.15,299.14L660.45,300.48L661.76,306.43L663.06,308.36L666.98,314.22L668.28,315.33L669.59,316.07L670.9,318.23L672.2,319.31L673.51,317.81L674.81,316.12" style="vector-effect: non-scaling-stroke; fill: none; stroke: rgb(8, 115, 191); stroke-opacity: 1; stroke-width: 0.5px; opacity: 1;"/></g><g class="points"/><g class="text"/></g><g class="trace scatter trace61ebcc" style="stroke-miterlimit: 2;"><g class="fills"><g><path class="js-fill" d="M687.86,380L674.81,380L674.81,316.12L677.42,315.93L678.73,315.33L681.34,313.46L682.64,312.57L683.95,311.24L685.25,307.23L686.56,304.85L687.86,304.55" style="fill: rgb(8, 115, 191); fill-opacity: 0.4; stroke-width: 0;"/></g></g><g class="errorbars"/><g class="lines"><path class="js-line" d="M674.81,316.12L677.42,315.93L678.73,315.33L681.34,313.46L682.64,312.57L683.95,311.24L685.25,307.23L686.56,304.85L687.86,304.55" style="vector-effect: non-scaling-stroke; fill: none; stroke: rgb(8, 115, 191); stroke-opacity: 1; stroke-width: 2px; opacity: 1;"/></g><g class="points"/><g class="text"/></g><g class="trace scatter trace79e5e6" style="stroke-miterlimit: 2; opacity: 1;"><g class="fills"/><g class="errorbars"/><g class="lines"/><g class="points"><path class="point" transform="translate(687.86,304.55)" d="M15,0A15,15 0 1,1 0,-15A15,15 0 0,1 15,0Z" style="opacity: 1; stroke-width: 0px; fill: rgb(8, 115, 191); fill-opacity: 1;"/></g><g class="text"/></g></g></g><g class="overplot"/><path class="xlines-above crisp" style="fill: none; stroke-width: 1px; stroke: rgb(0, 0, 0); stroke-opacity: 0;" d=""/><path class="ylines-above crisp" style="fill: none;" d="M0,0"/><g class="overlines-above"/><g class="xaxislayer-above"><path class="xtick ticks crisp" d="M0,450v-5" transform="translate(93.07,0)" style="stroke: rgb(68, 68, 68); stroke-opacity: 1; stroke-width: 1px;"/><path class="xtick ticks crisp" d="M0,450v-5" transform="translate(172.69,0)" style="stroke: rgb(68, 68, 68); stroke-opacity: 1; stroke-width: 1px;"/><path class="xtick ticks crisp" d="M0,450v-5" transform="translate(249.7,0)" style="stroke: rgb(68, 68, 68); stroke-opacity: 1; stroke-width: 1px;"/><path class="xtick ticks crisp" d="M0,450v-5" transform="translate(329.32,0)" style="stroke: rgb(68, 68, 68); stroke-opacity: 1; stroke-width: 1px;"/><path class="xtick ticks crisp" d="M0,450v-5" transform="translate(408.94,0)" style="stroke: rgb(68, 68, 68); stroke-opacity: 1; stroke-width: 1px;"/><path class="xtick ticks crisp" d="M0,450v-5" transform="translate(489.87,0)" style="stroke: rgb(68, 68, 68); stroke-opacity: 1; stroke-width: 1px;"/><path class="xtick ticks crisp" d="M0,450v-5" transform="translate(569.49,0)" style="stroke: rgb(68, 68, 68); stroke-opacity: 1; stroke-width: 1px;"/><path class="xtick ticks crisp" d="M0,450v-5" transform="translate(649.11,0)" style="stroke: rgb(68, 68, 68); stroke-opacity: 1; stroke-width: 1px;"/><path class="xtick ticks crisp" d="M0,450v-5" transform="translate(726.12,0)" style="stroke: rgb(68, 68, 68); stroke-opacity: 1; stroke-width: 1px;"/><g class="xtick"><text text-anchor="middle" x="0" y="469" transform="translate(93.07,0)" style="font-family: 'Open Sans', verdana, arial, sans-serif; font-size: 18px; fill: rgb(42, 63, 95); fill-opacity: 1; white-space: pre;">01/11</text></g><g class="xtick"><text text-anchor="middle" x="0" y="469" transform="translate(172.69,0)" style="font-family: 'Open Sans', verdana, arial, sans-serif; font-size: 18px; fill: rgb(42, 63, 95); fill-opacity: 1; white-space: pre;">01/01</text></g><g class="xtick"><text text-anchor="middle" x="0" y="469" transform="translate(249.7,0)" style="font-family: 'Open Sans', verdana, arial, sans-serif; font-size: 18px; fill: rgb(42, 63, 95); fill-opacity: 1; white-space: pre;">01/03</text></g><g class="xtick"><text text-anchor="middle" x="0" y="469" transform="translate(329.32,0)" style="font-family: 'Open Sans', verdana, arial, sans-serif; font-size: 18px; fill: rgb(42, 63, 95); fill-opacity: 1; white-space: pre;">01/05</text></g><g class="xtick"><text text-anchor="middle" x="0" y="469" transform="translate(408.94,0)" style="font-family: 'Open Sans', verdana, arial, sans-serif; font-size: 18px; fill: rgb(42, 63, 95); fill-opacity: 1; white-space: pre;">01/07</text></g><g class="xtick"><text text-anchor="middle" x="0" y="469" transform="translate(489.87,0)" style="font-family: 'Open Sans', verdana, arial, sans-serif; font-size: 18px; fill: rgb(42, 63, 95); fill-opacity: 1; white-space: pre;">01/09</text></g><g class="xtick"><text text-anchor="middle" x="0" y="469" transform="translate(569.49,0)" style="font-family: 'Open Sans', verdana, arial, sans-serif; font-size: 18px; fill: rgb(42, 63, 95); fill-opacity: 1; white-space: pre;">01/11</text></g><g class="xtick"><text text-anchor="middle" x="0" y="469" transform="translate(649.11,0)" style="font-family: 'Open Sans', verdana, arial, sans-serif; font-size: 18px; fill: rgb(42, 63, 95); fill-opacity: 1; white-space: pre;">01/01</text></g><g class="xtick"><text text-anchor="middle" x="0" y="469" transform="translate(726.12,0)" style="font-family: 'Open Sans', verdana, arial, sans-serif; font-size: 18px; fill: rgb(42, 63, 95); fill-opacity: 1; white-space: pre;">01/03</text></g></g><g class="yaxislayer-above"/><g class="overaxes-above"/></g></g><g class="polarlayer"/><g class="ternarylayer"/><g class="geolayer"/><g class="funnelarealayer"/><g class="pielayer"/><g class="treemaplayer"/><g class="sunburstlayer"/><g class="glimages"/><defs id="topdefs-59ce6d"><g class="clips"/></defs><g class="layer-above"><g class="imagelayer"/><g class="shapelayer"><path data-index="0" fill-rule="evenodd" d="M-683.55,444.89L270.59000000000003,444.89" clip-path="url('#clip59ce6dxy')" style="opacity: 1; stroke: rgb(255, 0, 0); stroke-opacity: 1; fill: rgb(0, 0, 0); fill-opacity: 0; stroke-dasharray: 3px, 3px; stroke-width: 1.5px;"/></g></g><g class="infolayer"><g class="g-gtitle"><text class="gtitle" x="375" y="25" text-anchor="middle" dy="0.7em" style="font-family: 'Open Sans', verdana, arial, sans-serif; font-size: 50px; fill: rgb(42, 63, 95); opacity: 1; font-weight: normal; white-space: pre;"><tspan style="font-weight:bold">Morbihan (56)</tspan></text></g><g class="g-xtitle"/><g class="annotation" data-index="0" style="opacity: 1;"><g class="annotation-text-g" transform="rotate(0,695.86,314.55)"><g class="cursor-pointer" transform="translate(638, 279)"><rect class="bg" x="0.5" y="0.5" width="115" height="71" style="stroke-width: 1px; stroke: rgb(0, 0, 0); stroke-opacity: 0; fill: rgb(255, 255, 255); fill-opacity: 0.6;"/><text class="annotation-text" text-anchor="middle" x="57.8125" y="55.5" style="font-family: 'Open Sans', verdana, arial, sans-serif; font-size: 50px; fill: rgb(8, 115, 191); fill-opacity: 1; white-space: pre;"> <tspan style="font-weight:bold">738 </tspan></text></g></g><g class="annotation-arrow-g" style="opacity: 1;"><path d="M724.26,350.05L735.86,364.55" style="stroke-width: 1px; stroke: rgb(8, 115, 191); stroke-opacity: 1; stroke-dasharray: 0px, 0px, 18.569px, 18.569px;"/></g></g></g></svg>