<svg class="main-svg" xmlns="http://www.w3.org/2000/svg" xmlns:xlink="http://www.w3.org/1999/xlink" width="1125" height="750" style="" viewBox="0 0 750 500"><rect x="0" y="0" width="750" height="500" style="fill: rgb(0, 0, 0); fill-opacity: 0;"/><defs id="defs-8b0f21"><g class="clips"><clipPath id="clip8b0f21xyplot" class="plotclip"><rect width="696" height="380"/></clipPath><clipPath class="axesclip" id="clip8b0f21x"><rect x="50" y="0" width="696" height="500"/></clipPath><clipPath class="axesclip" id="clip8b0f21y"><rect x="0" y="70" width="750" height="380"/></clipPath><clipPath class="axesclip" id="clip8b0f21xy"><rect x="50" y="70" width="696" height="380"/></clipPath></g><g class="gradients"/></defs><g class="bglayer"><rect class="bg" x="50" y="70" width="696" height="380" style="fill: rgb(0, 0, 0); fill-opacity: 0; stroke-width: 0;"/></g><g class="layer-below"><g class="imagelayer"/><g class="shapelayer"/></g><g class="cartesianlayer"><g class="subplot xy"><g class="layer-subplot"><g class="shapelayer"/><g class="imagelayer"/></g><g class="gridlayer"><g class="x"><path class="xgrid crisp" transform="translate(93.09,0)" d="M0,70v380" style="stroke: rgb(255, 255, 255); stroke-opacity: 1; stroke-width: 1px;"/><path class="xgrid crisp" transform="translate(172.75,0)" d="M0,70v380" style="stroke: rgb(255, 255, 255); stroke-opacity: 1; stroke-width: 1px;"/><path class="xgrid crisp" transform="translate(249.79,0)" d="M0,70v380" style="stroke: rgb(255, 255, 255); stroke-opacity: 1; stroke-width: 1px;"/><path class="xgrid crisp" transform="translate(329.44,0)" d="M0,70v380" style="stroke: rgb(255, 255, 255); stroke-opacity: 1; stroke-width: 1px;"/><path class="xgrid crisp" transform="translate(409.1,0)" d="M0,70v380" style="stroke: rgb(255, 255, 255); stroke-opacity: 1; stroke-width: 1px;"/><path class="xgrid crisp" transform="translate(490.06,0)" d="M0,70v380" style="stroke: rgb(255, 255, 255); stroke-opacity: 1; stroke-width: 1px;"/><path class="xgrid crisp" transform="translate(569.71,0)" d="M0,70v380" style="stroke: rgb(255, 255, 255); stroke-opacity: 1; stroke-width: 1px;"/><path class="xgrid crisp" transform="translate(649.37,0)" d="M0,70v380" style="stroke: rgb(255, 255, 255); stroke-opacity: 1; stroke-width: 1px;"/><path class="xgrid crisp" transform="translate(726.41,0)" d="M0,70v380" style="stroke: rgb(255, 255, 255); stroke-opacity: 1; stroke-width: 1px;"/></g><g class="y"/></g><g class="zerolinelayer"/><path class="xlines-below"/><path class="ylines-below"/><g class="overlines-below"/><g class="xaxislayer-below"/><g class="yaxislayer-below"/><g class="overaxes-below"/><g class="plot" transform="translate(50, 70)" clip-path="url('#clip8b0f21xyplot')"><g class="scatterlayer mlayer"><g class="trace scatter trace06183a" style="stroke-miterlimit: 2;"><g class="fills"><g><path class="js-fill" d="M673.8,380L-177.59,380L-177.59,379.2L-95.32,379.71L-94.02,379.71L-57.46,377.99L-56.15,377.5L-49.62,374.97L-48.32,374.4L-44.4,373.67L-43.09,373.65L-39.17,373.46L-37.87,373.35L-33.95,373.24L-32.65,372.03L-28.73,370.27L-27.42,369.95L-24.81,369.45L-23.5,370.12L-19.59,371.23L-18.28,370.8L-13.06,369.77L-11.75,369.13L-9.14,369.11L-7.83,368.95L-5.22,369.5L-3.92,369.77L0,369.89L1.31,370.28L2.61,370.41L3.92,369.77L6.53,369.18L7.83,368.66L11.75,366.67L13.06,365.86L16.98,362.37L18.28,361.19L22.2,358.23L23.5,356.33L28.73,345.15L30.03,343.81L32.65,333.77L33.95,332.74L37.87,329.73L39.17,330.24L41.79,327.18L43.09,325.49L45.7,325L47.01,326.79L48.32,327L49.62,331.87L50.93,335.59L52.23,343.12L56.15,349.8L57.46,350.62L60.07,357.06L61.37,355.74L63.98,360.93L65.29,361.98L66.6,362.3L67.9,364.06L70.51,366.08L71.82,366.24L74.43,366.99L75.74,367L79.65,365.27L80.96,366.02L86.18,366.68L87.49,366.04L90.1,365.44L91.41,364.67L100.55,359.29L101.85,359.14L104.47,358.88L105.77,359.2L108.38,359L109.69,362.05L113.61,362.6L114.91,361.92L116.22,362.14L117.52,361.58L118.83,361.32L120.14,359.82L125.36,358.18L126.66,358.47L127.97,355.02L129.28,355.86L131.89,357.09L133.19,358.27L137.11,360.12L138.42,360.68L144.95,361.05L146.25,360.85L148.86,360.91L150.17,360.16L152.78,361.57L154.09,361.76L163.23,362.44L164.53,363.05L167.14,363.87L168.45,363.24L169.76,363.99L171.06,363.37L176.29,364.94L177.59,366.99L178.9,367.57L180.2,369.25L182.81,369.5L184.12,369.05L188.04,368.56L189.34,368.39L190.65,367.63L191.95,367.97L197.18,369.71L198.48,369.7L201.1,370.98L202.4,370.93L207.62,369.66L208.93,368.95L221.99,368.06L223.29,367.18L229.82,360.37L231.13,360.23L233.74,357.4L235.05,357.04L237.66,356.91L238.96,357.18L240.27,357.06L241.58,361.35L242.88,359.25L244.19,358.82L249.41,358.7L250.72,354.7L252.02,357.45L253.33,357.79L259.86,359.75L261.16,358.68L266.39,356.97L267.69,357L272.92,361.1L274.22,361.71L275.53,363.72L276.83,363.92L278.14,363.94L279.44,365.01L282.06,365.93L283.36,366.04L289.89,365.24L291.2,367.49L292.5,367.47L293.81,366.2L297.73,366.49L299.03,366.43L300.34,364.08L301.64,364.67L304.26,364.81L305.56,367.38L309.48,365.86L310.78,365.26L313.4,365.08L314.7,363.06L317.31,365.93L318.62,367.18L321.23,369.61L322.54,369.98L327.76,374.54L329.07,375.04L344.74,378.81L346.04,378.79L355.18,379.09L356.49,379.13L364.32,378.56L365.63,378.36L373.46,377.02L374.77,376.27L377.38,375.79L378.69,374.6L379.99,374.1L381.3,372.44L393.05,368.84L394.36,368.86L398.27,368.57L399.58,368.36L407.41,368.77L408.72,369.29L413.94,368.97L415.25,368.91L417.86,368.66L419.17,369.43L423.08,369.57L424.39,369.64L433.53,370.18L434.84,370.85L441.37,372.66L442.67,372.99L449.2,374.01L450.51,374.06L454.42,374.85L455.73,374.99L459.65,375.94L460.95,376.19L468.79,376.63L470.09,376.4L487.07,377.4L488.38,377.11L497.52,377.36L498.82,377.24L514.49,376.27L515.8,376.84L521.02,375.35L522.33,375.24L523.63,375.36L524.94,374.15L528.86,375.24L530.16,374.53L535.38,373.19L536.69,372.08L539.3,369.3L540.61,368.68L541.91,368.48L543.22,366.36L547.14,361.17L548.44,358.96L549.75,356.95L551.05,356.61L554.97,345.01L556.28,342.17L558.89,337.68L560.2,337.5L562.81,331.33L564.11,329.53L568.03,328.5L569.34,328.41L571.95,331.4L573.25,332.6L574.56,332.62L575.86,334.31L579.78,333.86L581.09,332.17L585.01,321.55L586.31,324.72L587.62,324.01L588.92,312.11L594.15,264.86L595.45,264.12L596.76,261.24L598.06,229.91L600.68,197.65L601.98,186.72L603.29,172.8L604.59,150.55L605.9,148.57L607.2,143.47L608.51,139.5L609.82,126.61L613.73,96.3L615.04,92.86L618.96,41.09L620.26,28.27L622.87,7.31L624.18,6.36L625.49,0L626.79,2.51L632.02,48.2L633.32,51.45L637.24,104.93L638.54,119.8L641.16,143.65L642.46,145.9L645.07,187.29L646.38,203.21L650.3,240.65L651.6,243.69L654.21,275.73L655.52,284.36L658.13,296.93L659.44,301.31L660.74,302.33L662.05,308.41L667.27,325.57L668.58,327.73L669.88,328.02L671.19,331.47L673.8,334.31" style="fill: rgb(8, 115, 191); fill-opacity: 0.2; stroke-width: 0;"/></g></g><g class="errorbars"/><g class="lines"><path class="js-line" d="M-177.59,379.2L-95.32,379.71L-94.02,379.71L-57.46,377.99L-56.15,377.5L-49.62,374.97L-48.32,374.4L-44.4,373.67L-43.09,373.65L-39.17,373.46L-37.87,373.35L-33.95,373.24L-32.65,372.03L-28.73,370.27L-27.42,369.95L-24.81,369.45L-23.5,370.12L-19.59,371.23L-18.28,370.8L-13.06,369.77L-11.75,369.13L-9.14,369.11L-7.83,368.95L-5.22,369.5L-3.92,369.77L0,369.89L1.31,370.28L2.61,370.41L3.92,369.77L6.53,369.18L7.83,368.66L11.75,366.67L13.06,365.86L16.98,362.37L18.28,361.19L22.2,358.23L23.5,356.33L28.73,345.15L30.03,343.81L32.65,333.77L33.95,332.74L37.87,329.73L39.17,330.24L41.79,327.18L43.09,325.49L45.7,325L47.01,326.79L48.32,327L49.62,331.87L50.93,335.59L52.23,343.12L56.15,349.8L57.46,350.62L60.07,357.06L61.37,355.74L63.98,360.93L65.29,361.98L66.6,362.3L67.9,364.06L70.51,366.08L71.82,366.24L74.43,366.99L75.74,367L79.65,365.27L80.96,366.02L86.18,366.68L87.49,366.04L90.1,365.44L91.41,364.67L100.55,359.29L101.85,359.14L104.47,358.88L105.77,359.2L108.38,359L109.69,362.05L113.61,362.6L114.91,361.92L116.22,362.14L117.52,361.58L118.83,361.32L120.14,359.82L125.36,358.18L126.66,358.47L127.97,355.02L129.28,355.86L131.89,357.09L133.19,358.27L137.11,360.12L138.42,360.68L144.95,361.05L146.25,360.85L148.86,360.91L150.17,360.16L152.78,361.57L154.09,361.76L163.23,362.44L164.53,363.05L167.14,363.87L168.45,363.24L169.76,363.99L171.06,363.37L176.29,364.94L177.59,366.99L178.9,367.57L180.2,369.25L182.81,369.5L184.12,369.05L188.04,368.56L189.34,368.39L190.65,367.63L191.95,367.97L197.18,369.71L198.48,369.7L201.1,370.98L202.4,370.93L207.62,369.66L208.93,368.95L221.99,368.06L223.29,367.18L229.82,360.37L231.13,360.23L233.74,357.4L235.05,357.04L237.66,356.91L238.96,357.18L240.27,357.06L241.58,361.35L242.88,359.25L244.19,358.82L249.41,358.7L250.72,354.7L252.02,357.45L253.33,357.79L259.86,359.75L261.16,358.68L266.39,356.97L267.69,357L272.92,361.1L274.22,361.71L275.53,363.72L276.83,363.92L278.14,363.94L279.44,365.01L282.06,365.93L283.36,366.04L289.89,365.24L291.2,367.49L292.5,367.47L293.81,366.2L297.73,366.49L299.03,366.43L300.34,364.08L301.64,364.67L304.26,364.81L305.56,367.38L309.48,365.86L310.78,365.26L313.4,365.08L314.7,363.06L317.31,365.93L318.62,367.18L321.23,369.61L322.54,369.98L327.76,374.54L329.07,375.04L344.74,378.81L346.04,378.79L355.18,379.09L356.49,379.13L364.32,378.56L365.63,378.36L373.46,377.02L374.77,376.27L377.38,375.79L378.69,374.6L379.99,374.1L381.3,372.44L393.05,368.84L394.36,368.86L398.27,368.57L399.58,368.36L407.41,368.77L408.72,369.29L413.94,368.97L415.25,368.91L417.86,368.66L419.17,369.43L423.08,369.57L424.39,369.64L433.53,370.18L434.84,370.85L441.37,372.66L442.67,372.99L449.2,374.01L450.51,374.06L454.42,374.85L455.73,374.99L459.65,375.94L460.95,376.19L468.79,376.63L470.09,376.4L487.07,377.4L488.38,377.11L497.52,377.36L498.82,377.24L514.49,376.27L515.8,376.84L521.02,375.35L522.33,375.24L523.63,375.36L524.94,374.15L528.86,375.24L530.16,374.53L535.38,373.19L536.69,372.08L539.3,369.3L540.61,368.68L541.91,368.48L543.22,366.36L547.14,361.17L548.44,358.96L549.75,356.95L551.05,356.61L554.97,345.01L556.28,342.17L558.89,337.68L560.2,337.5L562.81,331.33L564.11,329.53L568.03,328.5L569.34,328.41L571.95,331.4L573.25,332.6L574.56,332.62L575.86,334.31L579.78,333.86L581.09,332.17L585.01,321.55L586.31,324.72L587.62,324.01L588.92,312.11L594.15,264.86L595.45,264.12L596.76,261.24L598.06,229.91L600.68,197.65L601.98,186.72L603.29,172.8L604.59,150.55L605.9,148.57L607.2,143.47L608.51,139.5L609.82,126.61L613.73,96.3L615.04,92.86L618.96,41.09L620.26,28.27L622.87,7.31L624.18,6.36L625.49,0L626.79,2.51L632.02,48.2L633.32,51.45L637.24,104.93L638.54,119.8L641.16,143.65L642.46,145.9L645.07,187.29L646.38,203.21L650.3,240.65L651.6,243.69L654.21,275.73L655.52,284.36L658.13,296.93L659.44,301.31L660.74,302.33L662.05,308.41L667.27,325.57L668.58,327.73L669.88,328.02L671.19,331.47L673.8,334.31" style="vector-effect: non-scaling-stroke; fill: none; stroke: rgb(8, 115, 191); stroke-opacity: 1; stroke-width: 0.5px; opacity: 1;"/></g><g class="points"/><g class="text"/></g><g class="trace scatter trace074579" style="stroke-miterlimit: 2;"><g class="fills"><g><path class="js-fill" d="M686.86,380L673.8,380L673.8,334.31L676.41,336.07L677.72,337.32L681.64,337.32L682.94,336.11L686.86,328.14" style="fill: rgb(8, 115, 191); fill-opacity: 0.4; stroke-width: 0;"/></g></g><g class="errorbars"/><g class="lines"><path class="js-line" d="M673.8,334.31L676.41,336.07L677.72,337.32L681.64,337.32L682.94,336.11L686.86,328.14" style="vector-effect: non-scaling-stroke; fill: none; stroke: rgb(8, 115, 191); stroke-opacity: 1; stroke-width: 2px; opacity: 1;"/></g><g class="points"/><g class="text"/></g><g class="trace scatter traced1a9d7" style="stroke-miterlimit: 2; opacity: 1;"><g class="fills"/><g class="errorbars"/><g class="lines"/><g class="points"><path class="point" transform="translate(686.86,328.14)" d="M15,0A15,15 0 1,1 0,-15A15,15 0 0,1 15,0Z" style="opacity: 1; stroke-width: 0px; fill: rgb(8, 115, 191); fill-opacity: 1;"/></g><g class="text"/></g></g></g><g class="overplot"/><path class="xlines-above crisp" style="fill: none; stroke-width: 1px; stroke: rgb(0, 0, 0); stroke-opacity: 0;" d=""/><path class="ylines-above crisp" style="fill: none;" d="M0,0"/><g class="overlines-above"/><g class="xaxislayer-above"><path class="xtick ticks crisp" d="M0,450v-5" transform="translate(93.09,0)" style="stroke: rgb(68, 68, 68); stroke-opacity: 1; stroke-width: 1px;"/><path class="xtick ticks crisp" d="M0,450v-5" transform="translate(172.75,0)" style="stroke: rgb(68, 68, 68); stroke-opacity: 1; stroke-width: 1px;"/><path class="xtick ticks crisp" d="M0,450v-5" transform="translate(249.79,0)" style="stroke: rgb(68, 68, 68); stroke-opacity: 1; stroke-width: 1px;"/><path class="xtick ticks crisp" d="M0,450v-5" transform="translate(329.44,0)" style="stroke: rgb(68, 68, 68); stroke-opacity: 1; stroke-width: 1px;"/><path class="xtick ticks crisp" d="M0,450v-5" transform="translate(409.1,0)" style="stroke: rgb(68, 68, 68); stroke-opacity: 1; stroke-width: 1px;"/><path class="xtick ticks crisp" d="M0,450v-5" transform="translate(490.06,0)" style="stroke: rgb(68, 68, 68); stroke-opacity: 1; stroke-width: 1px;"/><path class="xtick ticks crisp" d="M0,450v-5" transform="translate(569.71,0)" style="stroke: rgb(68, 68, 68); stroke-opacity: 1; stroke-width: 1px;"/><path class="xtick ticks crisp" d="M0,450v-5" transform="translate(649.37,0)" style="stroke: rgb(68, 68, 68); stroke-opacity: 1; stroke-width: 1px;"/><path class="xtick ticks crisp" d="M0,450v-5" transform="translate(726.41,0)" style="stroke: rgb(68, 68, 68); stroke-opacity: 1; stroke-width: 1px;"/><g class="xtick"><text text-anchor="middle" x="0" y="469" transform="translate(93.09,0)" style="font-family: 'Open Sans', verdana, arial, sans-serif; font-size: 18px; fill: rgb(42, 63, 95); fill-opacity: 1; white-space: pre;">01/11</text></g><g class="xtick"><text text-anchor="middle" x="0" y="469" transform="translate(172.75,0)" style="font-family: 'Open Sans', verdana, arial, sans-serif; font-size: 18px; fill: rgb(42, 63, 95); fill-opacity: 1; white-space: pre;">01/01</text></g><g class="xtick"><text text-anchor="middle" x="0" y="469" transform="translate(249.79,0)" style="font-family: 'Open Sans', verdana, arial, sans-serif; font-size: 18px; fill: rgb(42, 63, 95); fill-opacity: 1; white-space: pre;">01/03</text></g><g class="xtick"><text text-anchor="middle" x="0" y="469" transform="translate(329.44,0)" style="font-family: 'Open Sans', verdana, arial, sans-serif; font-size: 18px; fill: rgb(42, 63, 95); fill-opacity: 1; white-space: pre;">01/05</text></g><g class="xtick"><text text-anchor="middle" x="0" y="469" transform="translate(409.1,0)" style="font-family: 'Open Sans', verdana, arial, sans-serif; font-size: 18px; fill: rgb(42, 63, 95); fill-opacity: 1; white-space: pre;">01/07</text></g><g class="xtick"><text text-anchor="middle" x="0" y="469" transform="translate(490.06,0)" style="font-family: 'Open Sans', verdana, arial, sans-serif; font-size: 18px; fill: rgb(42, 63, 95); fill-opacity: 1; white-space: pre;">01/09</text></g><g class="xtick"><text text-anchor="middle" x="0" y="469" transform="translate(569.71,0)" style="font-family: 'Open Sans', verdana, arial, sans-serif; font-size: 18px; fill: rgb(42, 63, 95); fill-opacity: 1; white-space: pre;">01/11</text></g><g class="xtick"><text text-anchor="middle" x="0" y="469" transform="translate(649.37,0)" style="font-family: 'Open Sans', verdana, arial, sans-serif; font-size: 18px; fill: rgb(42, 63, 95); fill-opacity: 1; white-space: pre;">01/01</text></g><g class="xtick"><text text-anchor="middle" x="0" y="469" transform="translate(726.41,0)" style="font-family: 'Open Sans', verdana, arial, sans-serif; font-size: 18px; fill: rgb(42, 63, 95); fill-opacity: 1; white-space: pre;">01/03</text></g></g><g class="yaxislayer-above"/><g class="overaxes-above"/></g></g><g class="polarlayer"/><g class="ternarylayer"/><g class="geolayer"/><g class="funnelarealayer"/><g class="pielayer"/><g class="treemaplayer"/><g class="sunburstlayer"/><g class="glimages"/><defs id="topdefs-8b0f21"><g class="clips"/></defs><g class="layer-above"><g class="imagelayer"/><g class="shapelayer"><path data-index="0" fill-rule="evenodd" d="M-683.87,445.25L270.68,445.25" clip-path="url('#clip8b0f21xy')" style="opacity: 1; stroke: rgb(255, 0, 0); stroke-opacity: 1; fill: rgb(0, 0, 0); fill-opacity: 0; stroke-dasharray: 3px, 3px; stroke-width: 1.5px;"/></g></g><g class="infolayer"><g class="g-gtitle"><text class="gtitle" x="375" y="25" text-anchor="middle" dy="0.7em" style="font-family: 'Open Sans', verdana, arial, sans-serif; font-size: 50px; fill: rgb(42, 63, 95); opacity: 1; font-weight: normal; white-space: pre;"><tspan style="font-weight:bold">Côte-d'or (21)</tspan></text></g><g class="g-xtitle"/><g class="annotation" data-index="0" style="opacity: 1;"><g class="annotation-text-g" transform="rotate(0,694.86,338.14)"><g class="cursor-pointer" transform="translate(637, 302)"><rect class="bg" x="0.5" y="0.5" width="115" height="71" style="stroke-width: 1px; stroke: rgb(0, 0, 0); stroke-opacity: 0; fill: rgb(255, 255, 255); fill-opacity: 0.6;"/><text class="annotation-text" text-anchor="middle" x="57.8125" y="55.5" style="font-family: 'Open Sans', verdana, arial, sans-serif; font-size: 50px; fill: rgb(8, 115, 191); fill-opacity: 1; white-space: pre;"> <tspan style="font-weight:bold">545 </tspan></text></g></g><g class="annotation-arrow-g" style="opacity: 1;"><path d="M723.26,373.64L734.86,388.14" style="stroke-width: 1px; stroke: rgb(8, 115, 191); stroke-opacity: 1; stroke-dasharray: 0px, 0px, 18.569px, 18.569px;"/></g></g></g></svg>