<svg class="main-svg" xmlns="http://www.w3.org/2000/svg" xmlns:xlink="http://www.w3.org/1999/xlink" width="1125" height="750" style="" viewBox="0 0 750 500"><rect x="0" y="0" width="750" height="500" style="fill: rgb(0, 0, 0); fill-opacity: 0;"/><defs id="defs-344691"><g class="clips"><clipPath id="clip344691xyplot" class="plotclip"><rect width="700" height="380"/></clipPath><clipPath class="axesclip" id="clip344691x"><rect x="50" y="0" width="700" height="500"/></clipPath><clipPath class="axesclip" id="clip344691y"><rect x="0" y="70" width="750" height="380"/></clipPath><clipPath class="axesclip" id="clip344691xy"><rect x="50" y="70" width="700" height="380"/></clipPath></g><g class="gradients"/></defs><g class="bglayer"><rect class="bg" x="50" y="70" width="700" height="380" style="fill: rgb(0, 0, 0); fill-opacity: 0; stroke-width: 0;"/></g><g class="layer-below"><g class="imagelayer"/><g class="shapelayer"/></g><g class="cartesianlayer"><g class="subplot xy"><g class="layer-subplot"><g class="shapelayer"/><g class="imagelayer"/></g><g class="gridlayer"><g class="x"><path class="xgrid crisp" transform="translate(52.26,0)" d="M0,70v380" style="stroke: rgb(255, 255, 255); stroke-opacity: 1; stroke-width: 1px;"/><path class="xgrid crisp" transform="translate(156.3,0)" d="M0,70v380" style="stroke: rgb(255, 255, 255); stroke-opacity: 1; stroke-width: 1px;"/><path class="xgrid crisp" transform="translate(258.08000000000004,0)" d="M0,70v380" style="stroke: rgb(255, 255, 255); stroke-opacity: 1; stroke-width: 1px;"/><path class="xgrid crisp" transform="translate(360.99,0)" d="M0,70v380" style="stroke: rgb(255, 255, 255); stroke-opacity: 1; stroke-width: 1px;"/><path class="xgrid crisp" transform="translate(465.02,0)" d="M0,70v380" style="stroke: rgb(255, 255, 255); stroke-opacity: 1; stroke-width: 1px;"/><path class="xgrid crisp" transform="translate(569.06,0)" d="M0,70v380" style="stroke: rgb(255, 255, 255); stroke-opacity: 1; stroke-width: 1px;"/><path class="xgrid crisp" transform="translate(670.84,0)" d="M0,70v380" style="stroke: rgb(255, 255, 255); stroke-opacity: 1; stroke-width: 1px;"/></g><g class="y"/></g><g class="zerolinelayer"/><path class="xlines-below"/><path class="ylines-below"/><g class="overlines-below"/><g class="xaxislayer-below"/><g class="yaxislayer-below"/><g class="overaxes-below"/><g class="plot" transform="translate(50, 70)" clip-path="url('#clip344691xyplot')"><g class="scatterlayer mlayer"><g class="trace scatter traceead280" style="stroke-miterlimit: 2;"><g class="fills"><g><path class="js-fill" d="M680.78,380L-153.8,380L-153.8,379.7L-66.72,378.51L-65.59,378.29L-53.15,376.56L-52.02,375.68L-41.84,375.82L-40.71,376.18L-36.19,375.68L-35.06,375.52L-29.4,374L-28.27,374.58L-20.36,374.72L-19.22,374.44L-12.44,374.88L-11.31,374.58L-6.79,372.44L-5.65,372.46L-1.13,370.48L0,371.03L3.39,370.35L4.52,370.1L5.65,370.18L6.79,368.89L9.05,366.83L10.18,366.74L15.83,363.97L16.96,364.46L18.09,364.46L19.22,363.22L21.49,361.13L22.62,359.32L26.01,358.33L27.14,358.47L29.4,358.3L30.53,359.13L33.93,359.32L35.06,362.84L41.84,365.18L42.97,362.29L44.1,363.22L45.23,366.52L48.63,369.58L49.76,369.55L52.02,372.63L53.15,372L55.41,373.98L56.54,373.7L58.8,374.33L59.94,375.16L71.24,378.43L72.37,378.46L92.73,377.88L93.86,378.16L96.12,378.76L97.25,378.82L108.56,377.91L109.69,378.1L113.09,378.13L114.22,378.27L161.71,378.13L162.84,377.77L167.37,376.81L168.5,376.81L177.54,377.06L178.68,376.67L180.94,375.96L182.07,374.77L186.59,372L187.72,370.87L189.98,369.49L191.11,369.69L192.25,369.8L193.38,368.94L199.03,364.49L200.16,364.3L204.68,359.73L205.82,361.63L208.08,361.13L209.21,364.54L212.6,361.05L213.73,356.93L215.99,357.28L217.12,354.26L221.65,360.78L222.78,361.33L226.17,360.83L227.3,362.32L231.83,363.75L232.96,365.29L238.61,370.98L239.74,370.95L243.13,374.36L244.26,374.66L247.66,375.54L248.79,375.76L254.44,376.81L255.57,376.78L258.97,377.52L260.1,377.03L265.75,377.69L266.88,377.69L271.41,377.8L272.54,377.36L275.93,378.05L277.06,378.13L303.07,376.95L304.2,376.23L307.59,371.28L308.72,369.63L310.99,368.61L312.12,366.61L315.51,359.1L316.64,354.62L318.9,352.31L320.03,344.94L321.16,337.95L322.29,341.33L325.69,318.65L326.82,317.66L329.08,300.88L330.21,285.4L332.47,279.38L333.6,279.49L334.73,279.76L335.86,276.71L337,277.56L338.13,276.08L341.52,272.42L342.65,271.48L344.91,264.2L346.04,263.12L347.17,263.89L348.3,262.93L350.57,262.02L351.7,262.52L352.83,263.84L353.96,261.28L355.09,260.48L356.22,264.55L358.48,265.41L359.61,268.93L365.27,289.96L366.4,290.51L369.79,307.78L370.92,311.22L372.05,314.38L373.18,315.26L374.31,315.29L375.44,318.73L377.71,327.75L378.84,332.42L381.1,337.9L382.23,338.14L384.49,343.64L385.62,345.65L389.01,350.85L390.15,351.45L393.54,356.1L394.67,356.65L395.8,358.08L396.93,357.86L398.06,358L399.19,359.07L404.85,364.05L405.98,363.94L408.24,366.88L409.37,366.85L413.89,366.55L415.02,365.56L416.16,364.49L417.29,364.46L421.81,364.57L422.94,364.85L424.07,365.62L425.2,365.23L428.59,367.46L429.73,367.21L433.12,367.13L434.25,366.85L436.51,366.36L437.64,366.58L442.16,368.09L443.3,368.39L445.56,368.48L446.69,370.29L447.82,371.75L448.95,370.62L450.08,371.23L451.21,370.81L453.47,370.29L454.6,368.48L455.74,367.24L456.87,368.17L458,369.47L459.13,368.28L462.52,367.29L463.65,366.8L464.78,366.36L465.91,364.41L468.17,363.8L469.31,363.69L472.7,363.94L473.83,364.3L474.96,365.53L476.09,365.2L479.48,363.72L480.61,363.09L482.88,362.18L484.01,362.45L486.27,362.45L487.4,362.23L490.79,363.66L491.92,362.92L497.58,363.11L498.71,361.22L502.1,360.47L503.23,358.08L505.49,355.55L506.62,355.72L507.75,356.62L508.89,355.41L512.28,334.27L513.41,320.85L514.54,310.67L515.67,309.05L516.8,305.28L517.93,277.64L523.59,156.48L524.72,151.88L526.98,121.41L528.11,107.11L529.24,103.92L530.37,96.91L532.63,87.92L533.76,80L536.03,75.87L537.16,71.23L538.29,71.58L539.42,69.88L540.55,68.64L541.68,69.52L545.07,95.7L546.2,98.51L547.33,102.63L548.47,103.7L550.73,116.63L551.86,121.14L554.12,130.65L555.25,131.01L556.38,132.77L557.51,138.93L562.04,165.91L563.17,175.07L564.3,178.56L565.43,194.57L569.95,235.65L571.08,240.24L572.21,243.71L573.34,256.99L577.87,286.09L579,289.17L580.13,291.17L581.26,299.34L583.52,312.46L584.65,289.25L588.05,173.64L589.18,90.97L591.44,2.83L592.57,0L593.7,11.66L594.83,45.76L595.96,63.75L597.09,112.78L600.48,177.79L601.62,196.3L605.01,231.8L606.14,244.34L608.4,262.16L609.53,266.37L617.45,301.29L618.58,305.01L619.71,306.57L620.84,312.68L623.1,316.69L624.23,317.88L627.63,322.14L628.76,325.74L631.02,328.79L632.15,328.68L633.28,334.95L634.41,332.78L635.54,332.18L636.67,340.21L638.93,333.17L640.06,332.7L641.2,325.69L642.33,327.09L643.46,326.65L644.59,316.89L646.85,324.09L647.98,323.71L649.11,324.15L650.24,323.51L651.37,323.24L652.5,317.22L657.03,291.5L658.16,287.05L659.29,286.61L660.42,277.73L662.68,265.38L663.81,258.15L666.07,246.38L667.21,243.68L669.47,232.27L670.6,230.73L671.73,229.9L672.86,231.42L677.38,232.6L678.51,230.62L679.64,247.78L680.78,238.07" style="fill: rgb(8, 115, 191); fill-opacity: 0.2; stroke-width: 0;"/></g></g><g class="errorbars"/><g class="lines"><path class="js-line" d="M-153.8,379.7L-66.72,378.51L-65.59,378.29L-53.15,376.56L-52.02,375.68L-41.84,375.82L-40.71,376.18L-36.19,375.68L-35.06,375.52L-29.4,374L-28.27,374.58L-20.36,374.72L-19.22,374.44L-12.44,374.88L-11.31,374.58L-6.79,372.44L-5.65,372.46L-1.13,370.48L0,371.03L3.39,370.35L4.52,370.1L5.65,370.18L6.79,368.89L9.05,366.83L10.18,366.74L15.83,363.97L16.96,364.46L18.09,364.46L19.22,363.22L21.49,361.13L22.62,359.32L26.01,358.33L27.14,358.47L29.4,358.3L30.53,359.13L33.93,359.32L35.06,362.84L41.84,365.18L42.97,362.29L44.1,363.22L45.23,366.52L48.63,369.58L49.76,369.55L52.02,372.63L53.15,372L55.41,373.98L56.54,373.7L58.8,374.33L59.94,375.16L71.24,378.43L72.37,378.46L92.73,377.88L93.86,378.16L96.12,378.76L97.25,378.82L108.56,377.91L109.69,378.1L113.09,378.13L114.22,378.27L161.71,378.13L162.84,377.77L167.37,376.81L168.5,376.81L177.54,377.06L178.68,376.67L180.94,375.96L182.07,374.77L186.59,372L187.72,370.87L189.98,369.49L191.11,369.69L192.25,369.8L193.38,368.94L199.03,364.49L200.16,364.3L204.68,359.73L205.82,361.63L208.08,361.13L209.21,364.54L212.6,361.05L213.73,356.93L215.99,357.28L217.12,354.26L221.65,360.78L222.78,361.33L226.17,360.83L227.3,362.32L231.83,363.75L232.96,365.29L238.61,370.98L239.74,370.95L243.13,374.36L244.26,374.66L247.66,375.54L248.79,375.76L254.44,376.81L255.57,376.78L258.97,377.52L260.1,377.03L265.75,377.69L266.88,377.69L271.41,377.8L272.54,377.36L275.93,378.05L277.06,378.13L303.07,376.95L304.2,376.23L307.59,371.28L308.72,369.63L310.99,368.61L312.12,366.61L315.51,359.1L316.64,354.62L318.9,352.31L320.03,344.94L321.16,337.95L322.29,341.33L325.69,318.65L326.82,317.66L329.08,300.88L330.21,285.4L332.47,279.38L333.6,279.49L334.73,279.76L335.86,276.71L337,277.56L338.13,276.08L341.52,272.42L342.65,271.48L344.91,264.2L346.04,263.12L347.17,263.89L348.3,262.93L350.57,262.02L351.7,262.52L352.83,263.84L353.96,261.28L355.09,260.48L356.22,264.55L358.48,265.41L359.61,268.93L365.27,289.96L366.4,290.51L369.79,307.78L370.92,311.22L372.05,314.38L373.18,315.26L374.31,315.29L375.44,318.73L377.71,327.75L378.84,332.42L381.1,337.9L382.23,338.14L384.49,343.64L385.62,345.65L389.01,350.85L390.15,351.45L393.54,356.1L394.67,356.65L395.8,358.08L396.93,357.86L398.06,358L399.19,359.07L404.85,364.05L405.98,363.94L408.24,366.88L409.37,366.85L413.89,366.55L415.02,365.56L416.16,364.49L417.29,364.46L421.81,364.57L422.94,364.85L424.07,365.62L425.2,365.23L428.59,367.46L429.73,367.21L433.12,367.13L434.25,366.85L436.51,366.36L437.64,366.58L442.16,368.09L443.3,368.39L445.56,368.48L446.69,370.29L447.82,371.75L448.95,370.62L450.08,371.23L451.21,370.81L453.47,370.29L454.6,368.48L455.74,367.24L456.87,368.17L458,369.47L459.13,368.28L462.52,367.29L463.65,366.8L464.78,366.36L465.91,364.41L468.17,363.8L469.31,363.69L472.7,363.94L473.83,364.3L474.96,365.53L476.09,365.2L479.48,363.72L480.61,363.09L482.88,362.18L484.01,362.45L486.27,362.45L487.4,362.23L490.79,363.66L491.92,362.92L497.58,363.11L498.71,361.22L502.1,360.47L503.23,358.08L505.49,355.55L506.62,355.72L507.75,356.62L508.89,355.41L512.28,334.27L513.41,320.85L514.54,310.67L515.67,309.05L516.8,305.28L517.93,277.64L523.59,156.48L524.72,151.88L526.98,121.41L528.11,107.11L529.24,103.92L530.37,96.91L532.63,87.92L533.76,80L536.03,75.87L537.16,71.23L538.29,71.58L539.42,69.88L540.55,68.64L541.68,69.52L545.07,95.7L546.2,98.51L547.33,102.63L548.47,103.7L550.73,116.63L551.86,121.14L554.12,130.65L555.25,131.01L556.38,132.77L557.51,138.93L562.04,165.91L563.17,175.07L564.3,178.56L565.43,194.57L569.95,235.65L571.08,240.24L572.21,243.71L573.34,256.99L577.87,286.09L579,289.17L580.13,291.17L581.26,299.34L583.52,312.46L584.65,289.25L588.05,173.64L589.18,90.97L591.44,2.83L592.57,0L593.7,11.66L594.83,45.76L595.96,63.75L597.09,112.78L600.48,177.79L601.62,196.3L605.01,231.8L606.14,244.34L608.4,262.16L609.53,266.37L617.45,301.29L618.58,305.01L619.71,306.57L620.84,312.68L623.1,316.69L624.23,317.88L627.63,322.14L628.76,325.74L631.02,328.79L632.15,328.68L633.28,334.95L634.41,332.78L635.54,332.18L636.67,340.21L638.93,333.17L640.06,332.7L641.2,325.69L642.33,327.09L643.46,326.65L644.59,316.89L646.85,324.09L647.98,323.71L649.11,324.15L650.24,323.51L651.37,323.24L652.5,317.22L657.03,291.5L658.16,287.05L659.29,286.61L660.42,277.73L662.68,265.38L663.81,258.15L666.07,246.38L667.21,243.68L669.47,232.27L670.6,230.73L671.73,229.9L672.86,231.42L677.38,232.6L678.51,230.62L679.64,247.78L680.78,238.07" style="vector-effect: non-scaling-stroke; fill: none; stroke: rgb(8, 115, 191); stroke-opacity: 1; stroke-width: 0.5px; opacity: 1;"/></g><g class="points"/><g class="text"/></g><g class="trace scatter traceeacbdb" style="stroke-miterlimit: 2;"><g class="fills"><g><path class="js-fill" d="M692.08,380L680.78,380L680.78,238.07L683.04,230.84L684.17,215.88L686.43,192.12L687.56,163.9L688.69,163.54L689.82,159.75L690.95,158.51L692.08,197.37" style="fill: rgb(8, 115, 191); fill-opacity: 0.4; stroke-width: 0;"/></g></g><g class="errorbars"/><g class="lines"><path class="js-line" d="M680.78,238.07L683.04,230.84L684.17,215.88L686.43,192.12L687.56,163.9L688.69,163.54L689.82,159.75L690.95,158.51L692.08,197.37" style="vector-effect: non-scaling-stroke; fill: none; stroke: rgb(8, 115, 191); stroke-opacity: 1; stroke-width: 2px; opacity: 1;"/></g><g class="points"/><g class="text"/></g><g class="trace scatter tracef47d72" style="stroke-miterlimit: 2; opacity: 1;"><g class="fills"/><g class="errorbars"/><g class="lines"/><g class="points"><path class="point" transform="translate(692.08,197.37)" d="M15,0A15,15 0 1,1 0,-15A15,15 0 0,1 15,0Z" style="opacity: 1; stroke-width: 0px; fill: rgb(8, 115, 191); fill-opacity: 1;"/></g><g class="text"/></g></g></g><g class="overplot"/><path class="xlines-above crisp" style="fill: none; stroke-width: 1px; stroke: rgb(0, 0, 0); stroke-opacity: 0;" d=""/><path class="ylines-above crisp" style="fill: none;" d="M0,0"/><g class="overlines-above"/><g class="xaxislayer-above"><path class="xtick ticks crisp" d="M0,450v-5" transform="translate(52.26,0)" style="stroke: rgb(68, 68, 68); stroke-opacity: 1; stroke-width: 1px;"/><path class="xtick ticks crisp" d="M0,450v-5" transform="translate(156.3,0)" style="stroke: rgb(68, 68, 68); stroke-opacity: 1; stroke-width: 1px;"/><path class="xtick ticks crisp" d="M0,450v-5" transform="translate(258.08000000000004,0)" style="stroke: rgb(68, 68, 68); stroke-opacity: 1; stroke-width: 1px;"/><path class="xtick ticks crisp" d="M0,450v-5" transform="translate(360.99,0)" style="stroke: rgb(68, 68, 68); stroke-opacity: 1; stroke-width: 1px;"/><path class="xtick ticks crisp" d="M0,450v-5" transform="translate(465.02,0)" style="stroke: rgb(68, 68, 68); stroke-opacity: 1; stroke-width: 1px;"/><path class="xtick ticks crisp" d="M0,450v-5" transform="translate(569.06,0)" style="stroke: rgb(68, 68, 68); stroke-opacity: 1; stroke-width: 1px;"/><path class="xtick ticks crisp" d="M0,450v-5" transform="translate(670.84,0)" style="stroke: rgb(68, 68, 68); stroke-opacity: 1; stroke-width: 1px;"/><g class="xtick"><text text-anchor="middle" x="0" y="469" transform="translate(52.26,0)" style="font-family: 'Open Sans', verdana, arial, sans-serif; font-size: 18px; fill: rgb(42, 63, 95); fill-opacity: 1; white-space: pre;">01/10</text></g><g class="xtick"><text text-anchor="middle" x="0" y="469" transform="translate(156.3,0)" style="font-family: 'Open Sans', verdana, arial, sans-serif; font-size: 18px; fill: rgb(42, 63, 95); fill-opacity: 1; white-space: pre;">01/01</text></g><g class="xtick"><text text-anchor="middle" x="0" y="469" transform="translate(258.08000000000004,0)" style="font-family: 'Open Sans', verdana, arial, sans-serif; font-size: 18px; fill: rgb(42, 63, 95); fill-opacity: 1; white-space: pre;">01/04</text></g><g class="xtick"><text text-anchor="middle" x="0" y="469" transform="translate(360.99,0)" style="font-family: 'Open Sans', verdana, arial, sans-serif; font-size: 18px; fill: rgb(42, 63, 95); fill-opacity: 1; white-space: pre;">01/07</text></g><g class="xtick"><text text-anchor="middle" x="0" y="469" transform="translate(465.02,0)" style="font-family: 'Open Sans', verdana, arial, sans-serif; font-size: 18px; fill: rgb(42, 63, 95); fill-opacity: 1; white-space: pre;">01/10</text></g><g class="xtick"><text text-anchor="middle" x="0" y="469" transform="translate(569.06,0)" style="font-family: 'Open Sans', verdana, arial, sans-serif; font-size: 18px; fill: rgb(42, 63, 95); fill-opacity: 1; white-space: pre;">01/01</text></g><g class="xtick"><text text-anchor="middle" x="0" y="469" transform="translate(670.84,0)" style="font-family: 'Open Sans', verdana, arial, sans-serif; font-size: 18px; fill: rgb(42, 63, 95); fill-opacity: 1; white-space: pre;">01/04</text></g></g><g class="yaxislayer-above"/><g class="overaxes-above"/></g></g><g class="polarlayer"/><g class="ternarylayer"/><g class="geolayer"/><g class="funnelarealayer"/><g class="pielayer"/><g class="treemaplayer"/><g class="sunburstlayer"/><g class="glimages"/><defs id="topdefs-344691"><g class="clips"/></defs><g class="layer-above"><g class="imagelayer"/><g class="shapelayer"><path data-index="0" fill-rule="evenodd" d="M-585.54,445.07L241.11,445.07" clip-path="url('#clip344691xy')" style="opacity: 1; stroke: rgb(255, 0, 0); stroke-opacity: 1; fill: rgb(0, 0, 0); fill-opacity: 0; stroke-dasharray: 3px, 3px; stroke-width: 1.5px;"/></g></g><g class="infolayer"><g class="g-gtitle"><text class="gtitle" x="375" y="25" text-anchor="middle" dy="0.7em" style="font-family: 'Open Sans', verdana, arial, sans-serif; font-size: 50px; fill: rgb(42, 63, 95); opacity: 1; font-weight: normal; white-space: pre;"><tspan style="font-weight:bold">Martinique (972)</tspan></text></g><g class="g-xtitle"/><g class="annotation" data-index="0" style="opacity: 1;"><g class="annotation-text-g" transform="rotate(0,700.08,207.37)"><g class="cursor-pointer" transform="translate(628, 171)"><rect class="bg" x="0.5" y="0.5" width="143" height="71" style="stroke-width: 1px; stroke: rgb(0, 0, 0); stroke-opacity: 0; fill: rgb(255, 255, 255); fill-opacity: 0.6;"/><text class="annotation-text" text-anchor="middle" x="72.078125" y="55.5" style="font-family: 'Open Sans', verdana, arial, sans-serif; font-size: 50px; fill: rgb(8, 115, 191); fill-opacity: 1; white-space: pre;"> <tspan style="font-weight:bold">1851 </tspan></text></g></g><g class="annotation-arrow-g" style="opacity: 1;"><path d="M728.48,242.87L740.08,257.37" style="stroke-width: 1px; stroke: rgb(8, 115, 191); stroke-opacity: 1; stroke-dasharray: 0px, 0px, 18.5691px, 18.5691px;"/></g></g></g></svg>