<svg class="main-svg" xmlns="http://www.w3.org/2000/svg" xmlns:xlink="http://www.w3.org/1999/xlink" width="1125" height="750" style="" viewBox="0 0 750 500"><rect x="0" y="0" width="750" height="500" style="fill: rgb(0, 0, 0); fill-opacity: 0;"/><defs id="defs-5c7044"><g class="clips"><clipPath id="clip5c7044xyplot" class="plotclip"><rect width="700" height="380"/></clipPath><clipPath class="axesclip" id="clip5c7044x"><rect x="50" y="0" width="700" height="500"/></clipPath><clipPath class="axesclip" id="clip5c7044y"><rect x="0" y="70" width="750" height="380"/></clipPath><clipPath class="axesclip" id="clip5c7044xy"><rect x="50" y="70" width="700" height="380"/></clipPath></g><g class="gradients"/></defs><g class="bglayer"><rect class="bg" x="50" y="70" width="700" height="380" style="fill: rgb(0, 0, 0); fill-opacity: 0; stroke-width: 0;"/></g><g class="layer-below"><g class="imagelayer"/><g class="shapelayer"/></g><g class="cartesianlayer"><g class="subplot xy"><g class="layer-subplot"><g class="shapelayer"/><g class="imagelayer"/></g><g class="gridlayer"><g class="x"><path class="xgrid crisp" transform="translate(90.96000000000001,0)" d="M0,70v380" style="stroke: rgb(255, 255, 255); stroke-opacity: 1; stroke-width: 1px;"/><path class="xgrid crisp" transform="translate(166.67000000000002,0)" d="M0,70v380" style="stroke: rgb(255, 255, 255); stroke-opacity: 1; stroke-width: 1px;"/><path class="xgrid crisp" transform="translate(239.89,0)" d="M0,70v380" style="stroke: rgb(255, 255, 255); stroke-opacity: 1; stroke-width: 1px;"/><path class="xgrid crisp" transform="translate(315.6,0)" d="M0,70v380" style="stroke: rgb(255, 255, 255); stroke-opacity: 1; stroke-width: 1px;"/><path class="xgrid crisp" transform="translate(391.31,0)" d="M0,70v380" style="stroke: rgb(255, 255, 255); stroke-opacity: 1; stroke-width: 1px;"/><path class="xgrid crisp" transform="translate(468.26,0)" d="M0,70v380" style="stroke: rgb(255, 255, 255); stroke-opacity: 1; stroke-width: 1px;"/><path class="xgrid crisp" transform="translate(543.97,0)" d="M0,70v380" style="stroke: rgb(255, 255, 255); stroke-opacity: 1; stroke-width: 1px;"/><path class="xgrid crisp" transform="translate(619.68,0)" d="M0,70v380" style="stroke: rgb(255, 255, 255); stroke-opacity: 1; stroke-width: 1px;"/><path class="xgrid crisp" transform="translate(692.91,0)" d="M0,70v380" style="stroke: rgb(255, 255, 255); stroke-opacity: 1; stroke-width: 1px;"/></g><g class="y"/></g><g class="zerolinelayer"/><path class="xlines-below"/><path class="ylines-below"/><g class="overlines-below"/><g class="xaxislayer-below"/><g class="yaxislayer-below"/><g class="overaxes-below"/><g class="plot" transform="translate(50, 70)" clip-path="url('#clip5c7044xyplot')"><g class="scatterlayer mlayer"><g class="trace scatter trace7fee92" style="stroke-miterlimit: 2;"><g class="fills"><g><path class="js-fill" d="M678.9,380L-168.79,380L-168.79,379.27L-100.53,379.37L-99.29,379.42L-80.67,379.12L-79.43,379.07L-65.78,378.74L-64.54,378.56L-53.37,375.55L-52.13,374.92L-44.68,372.93L-43.44,372.67L-38.48,370.67L-37.23,370.2L-33.51,368.58L-32.27,368.64L-24.82,364.89L-23.58,364.84L-16.13,362.89L-14.89,362.87L-12.41,361.63L-11.17,361.93L-6.21,362.03L-4.96,362.76L-3.72,363.52L-2.48,363.35L0,362.96L1.24,362.86L2.48,362.78L3.72,360.9L9.93,351.26L11.17,351.08L17.38,334.75L18.62,333.68L19.86,333.52L21.1,329.54L27.3,312.21L28.55,311.93L31.03,306.1L32.27,305.77L33.51,306.41L34.75,306.1L37.23,305.85L38.48,304.81L40.96,303.66L42.2,304.83L44.68,308.8L45.92,309.01L48.4,322.78L49.65,334.56L53.37,347.04L54.61,347.31L57.09,355.37L58.33,353.18L60.82,359.75L62.06,360.71L63.3,360.91L64.54,363.88L67.02,366.35L68.26,366.88L75.71,366.9L76.95,366.86L90.6,365.38L91.84,364.94L94.33,363.89L95.57,362.58L98.05,360.47L99.29,360.53L101.77,360.59L103.01,361.71L104.26,365.38L105.5,366.38L107.98,367.67L109.22,367.09L111.7,366.92L112.94,366.94L115.43,366.86L116.67,365.44L120.39,364.61L121.63,362.03L124.11,362.09L125.35,363.16L129.08,363.73L130.32,363.48L145.21,361.73L146.45,361.73L151.42,362.27L152.66,362.07L158.87,361.48L160.11,362L166.31,364.45L167.55,364.39L170.04,364.65L171.28,364.16L177.48,362.59L178.72,362.25L184.93,362.26L186.17,362.43L189.89,362.84L191.13,362.83L196.1,361.85L197.34,361.05L203.55,357.09L204.79,355.8L209.75,351.02L210.99,350.83L215.96,343.75L217.2,342.71L219.68,342.28L220.92,340.65L223.4,339.65L224.65,339.35L228.37,338.92L229.61,346.29L230.85,344.79L232.09,344.95L235.82,347.5L237.06,347.49L238.3,341.9L239.54,345.23L242.02,347.74L243.26,348.43L245.74,348.73L246.99,349.84L253.19,352.67L254.43,352.85L260.64,356.88L261.88,358.81L263.12,358.9L264.36,360.37L268.09,363.58L269.33,364.17L273.05,365.11L274.29,365.57L275.53,365.96L276.77,367.91L278.01,368.43L279.26,367.89L284.22,368.04L285.46,366.75L287.94,367.38L289.18,367.53L290.43,370.29L291.67,370.12L297.87,371.31L299.11,370.12L301.6,372.14L302.84,372.8L311.52,375.3L312.77,375.68L327.66,377.94L328.9,377.96L335.11,378.07L336.35,378.04L346.28,377.31L347.52,377.06L351.24,376.16L352.48,375.13L353.72,375.31L354.96,373.55L357.45,371.05L358.69,370.66L362.41,360.82L363.65,359.64L366.13,356.99L367.38,356.83L369.86,354.63L371.1,354.47L373.58,353.94L374.82,353.85L377.3,354.49L378.55,355.06L384.75,355.45L385.99,354.76L388.48,354.41L389.72,354.54L394.68,354.96L395.92,355.58L398.4,357.07L399.65,357.47L403.37,358.7L404.61,359.58L407.09,360.62L408.33,361.71L415.78,365.15L417.02,365.54L419.5,365.68L420.74,366.71L426.95,370.48L428.19,370.61L433.16,372.88L434.4,373.1L441.84,374.4L443.09,374.8L453.01,375.26L454.26,375.25L459.22,375.8L460.46,375.87L474.11,375.68L475.35,375.64L479.08,375.72L480.32,375.76L489.01,375.26L490.25,375.98L492.73,374.86L493.97,374.63L497.7,373.92L498.94,372.27L502.66,372.11L503.9,370.96L506.38,370.49L507.62,369L513.83,360.09L515.07,359.74L521.28,345.45L522.52,343.68L523.76,343.4L525,338.78L531.21,325.88L532.45,325.58L534.93,321.11L536.17,319.45L542.38,321.21L543.62,321.48L544.86,321.76L546.1,320.95L547.34,321.31L548.58,320.34L549.82,319.7L551.06,317.58L553.55,306.56L554.79,299.21L556.03,294.54L557.27,298.47L558.51,295.68L559.75,274.58L564.72,210.71L565.96,208.03L567.2,202.11L568.44,177.37L570.92,142.8L572.16,132.3L574.65,91.58L575.89,88.55L583.33,42.11L584.57,37.79L588.3,7.42L589.54,1.57L590.78,0L592.02,0.97L593.26,2.8L594.5,10.68L600.71,89.01L601.95,94.57L604.43,140.56L605.67,158.18L609.4,201.12L610.64,205.77L613.12,242.33L614.36,256.28L618.09,283.63L619.33,286.61L621.81,308.55L623.05,316.7L626.77,331.66L628.01,332.82L630.5,340.22L631.74,342.66L635.46,347.94L636.7,348.24L639.18,350.19L640.43,350.56L645.39,352.69L646.63,352.5L649.11,351.79L650.35,350.67L654.08,347.49L655.32,344.16L661.52,332.16L662.77,331.63L667.73,309.81L668.97,304.55L670.21,301.49L671.45,300.55L673.94,290.08L675.18,286.89L676.42,285.05L677.66,284.61L678.9,284" style="fill: rgb(8, 115, 191); fill-opacity: 0.2; stroke-width: 0;"/></g></g><g class="errorbars"/><g class="lines"><path class="js-line" d="M-168.79,379.27L-100.53,379.37L-99.29,379.42L-80.67,379.12L-79.43,379.07L-65.78,378.74L-64.54,378.56L-53.37,375.55L-52.13,374.92L-44.68,372.93L-43.44,372.67L-38.48,370.67L-37.23,370.2L-33.51,368.58L-32.27,368.64L-24.82,364.89L-23.58,364.84L-16.13,362.89L-14.89,362.87L-12.41,361.63L-11.17,361.93L-6.21,362.03L-4.96,362.76L-3.72,363.52L-2.48,363.35L0,362.96L1.24,362.86L2.48,362.78L3.72,360.9L9.93,351.26L11.17,351.08L17.38,334.75L18.62,333.68L19.86,333.52L21.1,329.54L27.3,312.21L28.55,311.93L31.03,306.1L32.27,305.77L33.51,306.41L34.75,306.1L37.23,305.85L38.48,304.81L40.96,303.66L42.2,304.83L44.68,308.8L45.92,309.01L48.4,322.78L49.65,334.56L53.37,347.04L54.61,347.31L57.09,355.37L58.33,353.18L60.82,359.75L62.06,360.71L63.3,360.91L64.54,363.88L67.02,366.35L68.26,366.88L75.71,366.9L76.95,366.86L90.6,365.38L91.84,364.94L94.33,363.89L95.57,362.58L98.05,360.47L99.29,360.53L101.77,360.59L103.01,361.71L104.26,365.38L105.5,366.38L107.98,367.67L109.22,367.09L111.7,366.92L112.94,366.94L115.43,366.86L116.67,365.44L120.39,364.61L121.63,362.03L124.11,362.09L125.35,363.16L129.08,363.73L130.32,363.48L145.21,361.73L146.45,361.73L151.42,362.27L152.66,362.07L158.87,361.48L160.11,362L166.31,364.45L167.55,364.39L170.04,364.65L171.28,364.16L177.48,362.59L178.72,362.25L184.93,362.26L186.17,362.43L189.89,362.84L191.13,362.83L196.1,361.85L197.34,361.05L203.55,357.09L204.79,355.8L209.75,351.02L210.99,350.83L215.96,343.75L217.2,342.71L219.68,342.28L220.92,340.65L223.4,339.65L224.65,339.35L228.37,338.92L229.61,346.29L230.85,344.79L232.09,344.95L235.82,347.5L237.06,347.49L238.3,341.9L239.54,345.23L242.02,347.74L243.26,348.43L245.74,348.73L246.99,349.84L253.19,352.67L254.43,352.85L260.64,356.88L261.88,358.81L263.12,358.9L264.36,360.37L268.09,363.58L269.33,364.17L273.05,365.11L274.29,365.57L275.53,365.96L276.77,367.91L278.01,368.43L279.26,367.89L284.22,368.04L285.46,366.75L287.94,367.38L289.18,367.53L290.43,370.29L291.67,370.12L297.87,371.31L299.11,370.12L301.6,372.14L302.84,372.8L311.52,375.3L312.77,375.68L327.66,377.94L328.9,377.96L335.11,378.07L336.35,378.04L346.28,377.31L347.52,377.06L351.24,376.16L352.48,375.13L353.72,375.31L354.96,373.55L357.45,371.05L358.69,370.66L362.41,360.82L363.65,359.64L366.13,356.99L367.38,356.83L369.86,354.63L371.1,354.47L373.58,353.94L374.82,353.85L377.3,354.49L378.55,355.06L384.75,355.45L385.99,354.76L388.48,354.41L389.72,354.54L394.68,354.96L395.92,355.58L398.4,357.07L399.65,357.47L403.37,358.7L404.61,359.58L407.09,360.62L408.33,361.71L415.78,365.15L417.02,365.54L419.5,365.68L420.74,366.71L426.95,370.48L428.19,370.61L433.16,372.88L434.4,373.1L441.84,374.4L443.09,374.8L453.01,375.26L454.26,375.25L459.22,375.8L460.46,375.87L474.11,375.68L475.35,375.64L479.08,375.72L480.32,375.76L489.01,375.26L490.25,375.98L492.73,374.86L493.97,374.63L497.7,373.92L498.94,372.27L502.66,372.11L503.9,370.96L506.38,370.49L507.62,369L513.83,360.09L515.07,359.74L521.28,345.45L522.52,343.68L523.76,343.4L525,338.78L531.21,325.88L532.45,325.58L534.93,321.11L536.17,319.45L542.38,321.21L543.62,321.48L544.86,321.76L546.1,320.95L547.34,321.31L548.58,320.34L549.82,319.7L551.06,317.58L553.55,306.56L554.79,299.21L556.03,294.54L557.27,298.47L558.51,295.68L559.75,274.58L564.72,210.71L565.96,208.03L567.2,202.11L568.44,177.37L570.92,142.8L572.16,132.3L574.65,91.58L575.89,88.55L583.33,42.11L584.57,37.79L588.3,7.42L589.54,1.57L590.78,0L592.02,0.97L593.26,2.8L594.5,10.68L600.71,89.01L601.95,94.57L604.43,140.56L605.67,158.18L609.4,201.12L610.64,205.77L613.12,242.33L614.36,256.28L618.09,283.63L619.33,286.61L621.81,308.55L623.05,316.7L626.77,331.66L628.01,332.82L630.5,340.22L631.74,342.66L635.46,347.94L636.7,348.24L639.18,350.19L640.43,350.56L645.39,352.69L646.63,352.5L649.11,351.79L650.35,350.67L654.08,347.49L655.32,344.16L661.52,332.16L662.77,331.63L667.73,309.81L668.97,304.55L670.21,301.49L671.45,300.55L673.94,290.08L675.18,286.89L676.42,285.05L677.66,284.61L678.9,284" style="vector-effect: non-scaling-stroke; fill: none; stroke: rgb(8, 115, 191); stroke-opacity: 1; stroke-width: 0.5px; opacity: 1;"/></g><g class="points"/><g class="text"/></g><g class="trace scatter trace6161a6" style="stroke-miterlimit: 2;"><g class="fills"><g><path class="js-fill" d="M691.31,380L678.9,380L678.9,284L682.62,282.98L683.87,282.06L687.59,276.65L688.83,276.51L690.07,274.92L691.31,275.08" style="fill: rgb(8, 115, 191); fill-opacity: 0.4; stroke-width: 0;"/></g></g><g class="errorbars"/><g class="lines"><path class="js-line" d="M678.9,284L682.62,282.98L683.87,282.06L687.59,276.65L688.83,276.51L690.07,274.92L691.31,275.08" style="vector-effect: non-scaling-stroke; fill: none; stroke: rgb(8, 115, 191); stroke-opacity: 1; stroke-width: 2px; opacity: 1;"/></g><g class="points"/><g class="text"/></g><g class="trace scatter trace01a650" style="stroke-miterlimit: 2; opacity: 1;"><g class="fills"/><g class="errorbars"/><g class="lines"/><g class="points"><path class="point" transform="translate(691.31,275.08)" d="M15,0A15,15 0 1,1 0,-15A15,15 0 0,1 15,0Z" style="opacity: 1; stroke-width: 0px; fill: rgb(8, 115, 191); fill-opacity: 1;"/></g><g class="text"/></g></g></g><g class="overplot"/><path class="xlines-above crisp" style="fill: none; stroke-width: 1px; stroke: rgb(0, 0, 0); stroke-opacity: 0;" d=""/><path class="ylines-above crisp" style="fill: none;" d="M0,0"/><g class="overlines-above"/><g class="xaxislayer-above"><path class="xtick ticks crisp" d="M0,450v-5" transform="translate(90.96000000000001,0)" style="stroke: rgb(68, 68, 68); stroke-opacity: 1; stroke-width: 1px;"/><path class="xtick ticks crisp" d="M0,450v-5" transform="translate(166.67000000000002,0)" style="stroke: rgb(68, 68, 68); stroke-opacity: 1; stroke-width: 1px;"/><path class="xtick ticks crisp" d="M0,450v-5" transform="translate(239.89,0)" style="stroke: rgb(68, 68, 68); stroke-opacity: 1; stroke-width: 1px;"/><path class="xtick ticks crisp" d="M0,450v-5" transform="translate(315.6,0)" style="stroke: rgb(68, 68, 68); stroke-opacity: 1; stroke-width: 1px;"/><path class="xtick ticks crisp" d="M0,450v-5" transform="translate(391.31,0)" style="stroke: rgb(68, 68, 68); stroke-opacity: 1; stroke-width: 1px;"/><path class="xtick ticks crisp" d="M0,450v-5" transform="translate(468.26,0)" style="stroke: rgb(68, 68, 68); stroke-opacity: 1; stroke-width: 1px;"/><path class="xtick ticks crisp" d="M0,450v-5" transform="translate(543.97,0)" style="stroke: rgb(68, 68, 68); stroke-opacity: 1; stroke-width: 1px;"/><path class="xtick ticks crisp" d="M0,450v-5" transform="translate(619.68,0)" style="stroke: rgb(68, 68, 68); stroke-opacity: 1; stroke-width: 1px;"/><path class="xtick ticks crisp" d="M0,450v-5" transform="translate(692.91,0)" style="stroke: rgb(68, 68, 68); stroke-opacity: 1; stroke-width: 1px;"/><g class="xtick"><text text-anchor="middle" x="0" y="469" transform="translate(90.96000000000001,0)" style="font-family: 'Open Sans', verdana, arial, sans-serif; font-size: 18px; fill: rgb(42, 63, 95); fill-opacity: 1; white-space: pre;">01/11</text></g><g class="xtick"><text text-anchor="middle" x="0" y="469" transform="translate(166.67000000000002,0)" style="font-family: 'Open Sans', verdana, arial, sans-serif; font-size: 18px; fill: rgb(42, 63, 95); fill-opacity: 1; white-space: pre;">01/01</text></g><g class="xtick"><text text-anchor="middle" x="0" y="469" transform="translate(239.89,0)" style="font-family: 'Open Sans', verdana, arial, sans-serif; font-size: 18px; fill: rgb(42, 63, 95); fill-opacity: 1; white-space: pre;">01/03</text></g><g class="xtick"><text text-anchor="middle" x="0" y="469" transform="translate(315.6,0)" style="font-family: 'Open Sans', verdana, arial, sans-serif; font-size: 18px; fill: rgb(42, 63, 95); fill-opacity: 1; white-space: pre;">01/05</text></g><g class="xtick"><text text-anchor="middle" x="0" y="469" transform="translate(391.31,0)" style="font-family: 'Open Sans', verdana, arial, sans-serif; font-size: 18px; fill: rgb(42, 63, 95); fill-opacity: 1; white-space: pre;">01/07</text></g><g class="xtick"><text text-anchor="middle" x="0" y="469" transform="translate(468.26,0)" style="font-family: 'Open Sans', verdana, arial, sans-serif; font-size: 18px; fill: rgb(42, 63, 95); fill-opacity: 1; white-space: pre;">01/09</text></g><g class="xtick"><text text-anchor="middle" x="0" y="469" transform="translate(543.97,0)" style="font-family: 'Open Sans', verdana, arial, sans-serif; font-size: 18px; fill: rgb(42, 63, 95); fill-opacity: 1; white-space: pre;">01/11</text></g><g class="xtick"><text text-anchor="middle" x="0" y="469" transform="translate(619.68,0)" style="font-family: 'Open Sans', verdana, arial, sans-serif; font-size: 18px; fill: rgb(42, 63, 95); fill-opacity: 1; white-space: pre;">01/01</text></g><g class="xtick"><text text-anchor="middle" x="0" y="469" transform="translate(692.91,0)" style="font-family: 'Open Sans', verdana, arial, sans-serif; font-size: 18px; fill: rgb(42, 63, 95); fill-opacity: 1; white-space: pre;">01/03</text></g></g><g class="yaxislayer-above"/><g class="overaxes-above"/></g></g><g class="polarlayer"/><g class="ternarylayer"/><g class="geolayer"/><g class="funnelarealayer"/><g class="pielayer"/><g class="treemaplayer"/><g class="sunburstlayer"/><g class="glimages"/><defs id="topdefs-5c7044"><g class="clips"/></defs><g class="layer-above"><g class="imagelayer"/><g class="shapelayer"><path data-index="0" fill-rule="evenodd" d="M-647.52,445.92L259.75,445.92" clip-path="url('#clip5c7044xy')" style="opacity: 1; stroke: rgb(255, 0, 0); stroke-opacity: 1; fill: rgb(0, 0, 0); fill-opacity: 0; stroke-dasharray: 3px, 3px; stroke-width: 1.5px;"/></g></g><g class="infolayer"><g class="g-gtitle"><text class="gtitle" x="375" y="25" text-anchor="middle" dy="0.7em" style="font-family: 'Open Sans', verdana, arial, sans-serif; font-size: 50px; fill: rgb(42, 63, 95); opacity: 1; font-weight: normal; white-space: pre;"><tspan style="font-weight:bold">Rhône (69)</tspan></text></g><g class="g-xtitle"/><g class="annotation" data-index="0" style="opacity: 1;"><g class="annotation-text-g" transform="rotate(0,699.31,285.08)"><g class="cursor-pointer" transform="translate(627, 249)"><rect class="bg" x="0.5" y="0.5" width="143" height="71" style="stroke-width: 1px; stroke: rgb(0, 0, 0); stroke-opacity: 0; fill: rgb(255, 255, 255); fill-opacity: 0.6;"/><text class="annotation-text" text-anchor="middle" x="72.078125" y="55.5" style="font-family: 'Open Sans', verdana, arial, sans-serif; font-size: 50px; fill: rgb(8, 115, 191); fill-opacity: 1; white-space: pre;"> <tspan style="font-weight:bold">1287 </tspan></text></g></g><g class="annotation-arrow-g" style="opacity: 1;"><path d="M727.7099999999999,320.58L739.31,335.08" style="stroke-width: 1px; stroke: rgb(8, 115, 191); stroke-opacity: 1; stroke-dasharray: 0px, 0px, 18.569px, 18.569px;"/></g></g></g></svg>