<svg class="main-svg" xmlns="http://www.w3.org/2000/svg" xmlns:xlink="http://www.w3.org/1999/xlink" width="1125" height="750" style="" viewBox="0 0 750 500"><rect x="0" y="0" width="750" height="500" style="fill: rgb(0, 0, 0); fill-opacity: 0;"/><defs id="defs-f45fab"><g class="clips"><clipPath id="clipf45fabxyplot" class="plotclip"><rect width="700" height="380"/></clipPath><clipPath class="axesclip" id="clipf45fabx"><rect x="50" y="0" width="700" height="500"/></clipPath><clipPath class="axesclip" id="clipf45faby"><rect x="0" y="70" width="750" height="380"/></clipPath><clipPath class="axesclip" id="clipf45fabxy"><rect x="50" y="70" width="700" height="380"/></clipPath></g><g class="gradients"/></defs><g class="bglayer"><rect class="bg" x="50" y="70" width="700" height="380" style="fill: rgb(0, 0, 0); fill-opacity: 0; stroke-width: 0;"/></g><g class="layer-below"><g class="imagelayer"/><g class="shapelayer"/></g><g class="cartesianlayer"><g class="subplot xy"><g class="layer-subplot"><g class="shapelayer"/><g class="imagelayer"/></g><g class="gridlayer"><g class="x"><path class="xgrid crisp" transform="translate(92.46000000000001,0)" d="M0,70v380" style="stroke: rgb(255, 255, 255); stroke-opacity: 1; stroke-width: 1px;"/><path class="xgrid crisp" transform="translate(170.95999999999998,0)" d="M0,70v380" style="stroke: rgb(255, 255, 255); stroke-opacity: 1; stroke-width: 1px;"/><path class="xgrid crisp" transform="translate(246.88,0)" d="M0,70v380" style="stroke: rgb(255, 255, 255); stroke-opacity: 1; stroke-width: 1px;"/><path class="xgrid crisp" transform="translate(325.37,0)" d="M0,70v380" style="stroke: rgb(255, 255, 255); stroke-opacity: 1; stroke-width: 1px;"/><path class="xgrid crisp" transform="translate(403.86,0)" d="M0,70v380" style="stroke: rgb(255, 255, 255); stroke-opacity: 1; stroke-width: 1px;"/><path class="xgrid crisp" transform="translate(483.64,0)" d="M0,70v380" style="stroke: rgb(255, 255, 255); stroke-opacity: 1; stroke-width: 1px;"/><path class="xgrid crisp" transform="translate(562.13,0)" d="M0,70v380" style="stroke: rgb(255, 255, 255); stroke-opacity: 1; stroke-width: 1px;"/><path class="xgrid crisp" transform="translate(640.63,0)" d="M0,70v380" style="stroke: rgb(255, 255, 255); stroke-opacity: 1; stroke-width: 1px;"/><path class="xgrid crisp" transform="translate(716.54,0)" d="M0,70v380" style="stroke: rgb(255, 255, 255); stroke-opacity: 1; stroke-width: 1px;"/></g><g class="y"/></g><g class="zerolinelayer"/><path class="xlines-below"/><path class="ylines-below"/><g class="overlines-below"/><g class="xaxislayer-below"/><g class="yaxislayer-below"/><g class="overaxes-below"/><g class="plot" transform="translate(50, 70)" clip-path="url('#clipf45fabxyplot')"><g class="scatterlayer mlayer"><g class="trace scatter trace575ba4" style="stroke-miterlimit: 2;"><g class="fills"><g><path class="js-fill" d="M678.13,380L-175,380L-175,379.42L-60.48,378.92L-59.19,378.49L-51.47,376.71L-50.18,376.48L-42.46,376.13L-41.18,375.63L-37.32,375.22L-36.03,375.63L-28.31,376.38L-27.02,376.09L-12.87,374.26L-11.58,374.7L-6.43,373.75L-5.15,372.98L-2.57,372.17L-1.29,371.53L3.86,369.5L5.15,368.15L10.29,362.69L11.58,362.73L16.73,355.73L18.01,353.64L20.59,352.13L21.88,347.34L27.02,325.21L28.31,323.88L29.6,322.99L30.88,315.6L32.17,312.39L33.46,307.11L36.03,302.7L37.32,302.16L39.89,302.43L41.18,300.27L43.75,303.07L45.04,307.04L47.61,308.22L48.9,314.33L50.18,320.82L51.47,333.01L52.76,335.33L54.04,339.68L57.9,344.28L59.19,348.46L60.48,345.81L61.76,352.06L63.05,354.65L64.34,355.44L65.63,355.67L66.91,359.27L68.2,361.53L69.49,362.09L72.06,363.47L73.35,363.5L78.49,363.21L79.78,363.35L83.64,362.98L84.93,363.93L90.07,361.94L91.36,362.13L92.65,362.31L93.93,361.42L99.08,359.83L100.37,357.78L102.94,355.29L104.23,354.57L106.8,354.65L108.09,358.9L111.95,363.58L113.24,363.66L115.81,362.13L117.1,362.17L118.38,360.89L119.67,360.82L122.24,357.18L123.53,356.87L124.82,356.91L126.1,352.37L131.25,355.34L132.54,355.13L135.11,353.7L136.4,353.45L137.68,353.64L138.97,351.84L142.83,349.5L144.12,349.08L150.55,347.49L151.84,349.06L154.41,350.68L155.7,350.53L159.56,354.86L160.85,354.9L162.13,356.06L163.42,355.34L164.71,355.46L165.99,356.7L167.28,356.33L168.57,356.99L169.85,358.19L171.14,358.01L173.71,358.96L175,358.53L176.29,359.29L177.57,359.02L181.43,357.74L182.72,357.72L186.58,357.86L187.87,357.3L194.3,360.66L195.59,362L198.16,363.08L199.45,363L208.46,362.27L209.74,362.6L216.18,357.74L217.46,357.53L220.04,357.03L221.32,355.44L223.9,353.74L225.18,352.58L231.62,349.99L232.9,349.64L236.76,349.66L238.05,355.87L240.63,352.23L241.91,352.4L245.77,353.7L247.06,348.07L248.35,352.27L249.63,353.43L250.92,354.53L252.21,354.49L254.78,353.97L256.07,354.01L258.64,355L259.93,355.56L263.79,356.37L265.07,357.61L267.65,358.11L268.93,359.27L271.51,362.98L272.79,363.12L279.23,367.41L280.51,367.53L281.8,367.6L283.09,368.59L288.24,371.7L289.52,371.12L292.1,371.68L293.38,371.97L294.67,372.32L295.96,371.47L298.53,372.17L299.82,372.09L301.1,374.16L302.39,374.12L308.82,374.49L310.11,373.66L312.68,374.86L313.97,374.84L317.83,375.8L319.12,375.96L335.85,379.07L337.13,378.96L346.14,378.99L347.43,379.13L364.15,377.04L365.44,376.6L366.73,376.77L368.01,376.04L370.59,375.07L371.88,374.97L374.45,372.17L375.74,369.29L379.6,363.58L380.88,363.29L383.46,359.37L384.74,358.61L388.6,358.19L389.89,358.3L391.18,357.22L392.46,357.24L393.75,357.57L395.04,356.77L400.18,355.09L401.47,353.39L405.33,350.76L406.62,351.03L407.9,351.34L409.19,350.74L411.76,350.66L413.05,351.38L415.63,353.41L416.91,353.29L422.06,358.71L423.35,359.81L425.92,360.1L427.21,361.59L431.07,365.01L432.35,365.19L434.93,366.15L436.21,367L440.07,367.99L441.36,368.73L442.65,367.99L443.93,368.18L447.79,368.01L449.08,368.32L450.37,368.11L451.65,368.86L452.94,368.84L454.23,370.16L459.38,371.86L460.66,371.9L467.1,372.26L468.38,372.94L477.39,375.36L478.68,375.32L492.83,375.03L494.12,374.68L499.26,373.87L500.55,374.02L508.27,375.32L509.56,374.47L512.13,373.25L513.42,373L515.99,372.5L517.28,369.96L519.85,369.44L521.14,370.39L523.71,369L525,368.96L528.86,365.57L530.15,362.98L535.29,357.43L536.58,354.26L539.15,345.75L540.44,341.81L541.73,338.23L543.01,337.82L549.45,295.59L550.74,291.53L552.02,291.22L553.31,283.11L555.88,275.75L557.17,273.64L559.74,268.71L561.03,268.32L563.6,262.36L564.89,260.16L566.18,258.83L567.46,258.92L570.04,258.13L571.32,259.87L572.61,259.97L573.9,257.97L575.18,253.37L576.47,255.23L577.76,265.57L579.04,264.36L584.19,205.32L585.48,191.43L586.76,190.37L588.05,188.3L590.63,156.51L591.91,153.18L593.2,149.14L594.49,139.95L595.77,115.66L597.06,113.36L598.35,115.41L599.63,114.93L602.21,103.73L603.49,97.74L604.78,90.29L606.07,88.76L609.93,45.93L611.21,32.68L613.79,17.5L615.07,16.65L616.36,2.88L617.65,0.17L618.93,0L620.22,2.98L622.79,13.61L624.08,15.01L630.51,96.73L631.8,107.89L633.09,110.4L634.38,141.42L639.52,219.59L640.81,231.77L642.1,234.88L643.38,256.43L647.24,288.03L648.53,294.78L649.82,299.4L651.1,300.38L654.96,318.27L656.25,322.24L658.82,327.86L660.11,328.39L663.97,333.01L665.26,333.57L669.12,334.98L670.4,336.89L671.69,336.97L672.98,336.28L675.55,334.81L676.84,333.1L678.13,332.6" style="fill: rgb(8, 115, 191); fill-opacity: 0.2; stroke-width: 0;"/></g></g><g class="errorbars"/><g class="lines"><path class="js-line" d="M-175,379.42L-60.48,378.92L-59.19,378.49L-51.47,376.71L-50.18,376.48L-42.46,376.13L-41.18,375.63L-37.32,375.22L-36.03,375.63L-28.31,376.38L-27.02,376.09L-12.87,374.26L-11.58,374.7L-6.43,373.75L-5.15,372.98L-2.57,372.17L-1.29,371.53L3.86,369.5L5.15,368.15L10.29,362.69L11.58,362.73L16.73,355.73L18.01,353.64L20.59,352.13L21.88,347.34L27.02,325.21L28.31,323.88L29.6,322.99L30.88,315.6L32.17,312.39L33.46,307.11L36.03,302.7L37.32,302.16L39.89,302.43L41.18,300.27L43.75,303.07L45.04,307.04L47.61,308.22L48.9,314.33L50.18,320.82L51.47,333.01L52.76,335.33L54.04,339.68L57.9,344.28L59.19,348.46L60.48,345.81L61.76,352.06L63.05,354.65L64.34,355.44L65.63,355.67L66.91,359.27L68.2,361.53L69.49,362.09L72.06,363.47L73.35,363.5L78.49,363.21L79.78,363.35L83.64,362.98L84.93,363.93L90.07,361.94L91.36,362.13L92.65,362.31L93.93,361.42L99.08,359.83L100.37,357.78L102.94,355.29L104.23,354.57L106.8,354.65L108.09,358.9L111.95,363.58L113.24,363.66L115.81,362.13L117.1,362.17L118.38,360.89L119.67,360.82L122.24,357.18L123.53,356.87L124.82,356.91L126.1,352.37L131.25,355.34L132.54,355.13L135.11,353.7L136.4,353.45L137.68,353.64L138.97,351.84L142.83,349.5L144.12,349.08L150.55,347.49L151.84,349.06L154.41,350.68L155.7,350.53L159.56,354.86L160.85,354.9L162.13,356.06L163.42,355.34L164.71,355.46L165.99,356.7L167.28,356.33L168.57,356.99L169.85,358.19L171.14,358.01L173.71,358.96L175,358.53L176.29,359.29L177.57,359.02L181.43,357.74L182.72,357.72L186.58,357.86L187.87,357.3L194.3,360.66L195.59,362L198.16,363.08L199.45,363L208.46,362.27L209.74,362.6L216.18,357.74L217.46,357.53L220.04,357.03L221.32,355.44L223.9,353.74L225.18,352.58L231.62,349.99L232.9,349.64L236.76,349.66L238.05,355.87L240.63,352.23L241.91,352.4L245.77,353.7L247.06,348.07L248.35,352.27L249.63,353.43L250.92,354.53L252.21,354.49L254.78,353.97L256.07,354.01L258.64,355L259.93,355.56L263.79,356.37L265.07,357.61L267.65,358.11L268.93,359.27L271.51,362.98L272.79,363.12L279.23,367.41L280.51,367.53L281.8,367.6L283.09,368.59L288.24,371.7L289.52,371.12L292.1,371.68L293.38,371.97L294.67,372.32L295.96,371.47L298.53,372.17L299.82,372.09L301.1,374.16L302.39,374.12L308.82,374.49L310.11,373.66L312.68,374.86L313.97,374.84L317.83,375.8L319.12,375.96L335.85,379.07L337.13,378.96L346.14,378.99L347.43,379.13L364.15,377.04L365.44,376.6L366.73,376.77L368.01,376.04L370.59,375.07L371.88,374.97L374.45,372.17L375.74,369.29L379.6,363.58L380.88,363.29L383.46,359.37L384.74,358.61L388.6,358.19L389.89,358.3L391.18,357.22L392.46,357.24L393.75,357.57L395.04,356.77L400.18,355.09L401.47,353.39L405.33,350.76L406.62,351.03L407.9,351.34L409.19,350.74L411.76,350.66L413.05,351.38L415.63,353.41L416.91,353.29L422.06,358.71L423.35,359.81L425.92,360.1L427.21,361.59L431.07,365.01L432.35,365.19L434.93,366.15L436.21,367L440.07,367.99L441.36,368.73L442.65,367.99L443.93,368.18L447.79,368.01L449.08,368.32L450.37,368.11L451.65,368.86L452.94,368.84L454.23,370.16L459.38,371.86L460.66,371.9L467.1,372.26L468.38,372.94L477.39,375.36L478.68,375.32L492.83,375.03L494.12,374.68L499.26,373.87L500.55,374.02L508.27,375.32L509.56,374.47L512.13,373.25L513.42,373L515.99,372.5L517.28,369.96L519.85,369.44L521.14,370.39L523.71,369L525,368.96L528.86,365.57L530.15,362.98L535.29,357.43L536.58,354.26L539.15,345.75L540.44,341.81L541.73,338.23L543.01,337.82L549.45,295.59L550.74,291.53L552.02,291.22L553.31,283.11L555.88,275.75L557.17,273.64L559.74,268.71L561.03,268.32L563.6,262.36L564.89,260.16L566.18,258.83L567.46,258.92L570.04,258.13L571.32,259.87L572.61,259.97L573.9,257.97L575.18,253.37L576.47,255.23L577.76,265.57L579.04,264.36L584.19,205.32L585.48,191.43L586.76,190.37L588.05,188.3L590.63,156.51L591.91,153.18L593.2,149.14L594.49,139.95L595.77,115.66L597.06,113.36L598.35,115.41L599.63,114.93L602.21,103.73L603.49,97.74L604.78,90.29L606.07,88.76L609.93,45.93L611.21,32.68L613.79,17.5L615.07,16.65L616.36,2.88L617.65,0.17L618.93,0L620.22,2.98L622.79,13.61L624.08,15.01L630.51,96.73L631.8,107.89L633.09,110.4L634.38,141.42L639.52,219.59L640.81,231.77L642.1,234.88L643.38,256.43L647.24,288.03L648.53,294.78L649.82,299.4L651.1,300.38L654.96,318.27L656.25,322.24L658.82,327.86L660.11,328.39L663.97,333.01L665.26,333.57L669.12,334.98L670.4,336.89L671.69,336.97L672.98,336.28L675.55,334.81L676.84,333.1L678.13,332.6" style="vector-effect: non-scaling-stroke; fill: none; stroke: rgb(8, 115, 191); stroke-opacity: 1; stroke-width: 0.5px; opacity: 1;"/></g><g class="points"/><g class="text"/></g><g class="trace scatter trace2f8d53" style="stroke-miterlimit: 2;"><g class="fills"><g><path class="js-fill" d="M690.99,380L678.13,380L678.13,332.6L681.99,320.57L683.27,318.54L685.85,312.08L687.13,312.2L690.99,290.5" style="fill: rgb(8, 115, 191); fill-opacity: 0.4; stroke-width: 0;"/></g></g><g class="errorbars"/><g class="lines"><path class="js-line" d="M678.13,332.6L681.99,320.57L683.27,318.54L685.85,312.08L687.13,312.2L690.99,290.5" style="vector-effect: non-scaling-stroke; fill: none; stroke: rgb(8, 115, 191); stroke-opacity: 1; stroke-width: 2px; opacity: 1;"/></g><g class="points"/><g class="text"/></g><g class="trace scatter trace5ca92d" style="stroke-miterlimit: 2; opacity: 1;"><g class="fills"/><g class="errorbars"/><g class="lines"/><g class="points"><path class="point" transform="translate(690.99,290.5)" d="M15,0A15,15 0 1,1 0,-15A15,15 0 0,1 15,0Z" style="opacity: 1; stroke-width: 0px; fill: rgb(8, 115, 191); fill-opacity: 1;"/></g><g class="text"/></g></g></g><g class="overplot"/><path class="xlines-above crisp" style="fill: none; stroke-width: 1px; stroke: rgb(0, 0, 0); stroke-opacity: 0;" d=""/><path class="ylines-above crisp" style="fill: none;" d="M0,0"/><g class="overlines-above"/><g class="xaxislayer-above"><path class="xtick ticks crisp" d="M0,450v-5" transform="translate(92.46000000000001,0)" style="stroke: rgb(68, 68, 68); stroke-opacity: 1; stroke-width: 1px;"/><path class="xtick ticks crisp" d="M0,450v-5" transform="translate(170.95999999999998,0)" style="stroke: rgb(68, 68, 68); stroke-opacity: 1; stroke-width: 1px;"/><path class="xtick ticks crisp" d="M0,450v-5" transform="translate(246.88,0)" style="stroke: rgb(68, 68, 68); stroke-opacity: 1; stroke-width: 1px;"/><path class="xtick ticks crisp" d="M0,450v-5" transform="translate(325.37,0)" style="stroke: rgb(68, 68, 68); stroke-opacity: 1; stroke-width: 1px;"/><path class="xtick ticks crisp" d="M0,450v-5" transform="translate(403.86,0)" style="stroke: rgb(68, 68, 68); stroke-opacity: 1; stroke-width: 1px;"/><path class="xtick ticks crisp" d="M0,450v-5" transform="translate(483.64,0)" style="stroke: rgb(68, 68, 68); stroke-opacity: 1; stroke-width: 1px;"/><path class="xtick ticks crisp" d="M0,450v-5" transform="translate(562.13,0)" style="stroke: rgb(68, 68, 68); stroke-opacity: 1; stroke-width: 1px;"/><path class="xtick ticks crisp" d="M0,450v-5" transform="translate(640.63,0)" style="stroke: rgb(68, 68, 68); stroke-opacity: 1; stroke-width: 1px;"/><path class="xtick ticks crisp" d="M0,450v-5" transform="translate(716.54,0)" style="stroke: rgb(68, 68, 68); stroke-opacity: 1; stroke-width: 1px;"/><g class="xtick"><text text-anchor="middle" x="0" y="469" transform="translate(92.46000000000001,0)" style="font-family: 'Open Sans', verdana, arial, sans-serif; font-size: 18px; fill: rgb(42, 63, 95); fill-opacity: 1; white-space: pre;">01/11</text></g><g class="xtick"><text text-anchor="middle" x="0" y="469" transform="translate(170.95999999999998,0)" style="font-family: 'Open Sans', verdana, arial, sans-serif; font-size: 18px; fill: rgb(42, 63, 95); fill-opacity: 1; white-space: pre;">01/01</text></g><g class="xtick"><text text-anchor="middle" x="0" y="469" transform="translate(246.88,0)" style="font-family: 'Open Sans', verdana, arial, sans-serif; font-size: 18px; fill: rgb(42, 63, 95); fill-opacity: 1; white-space: pre;">01/03</text></g><g class="xtick"><text text-anchor="middle" x="0" y="469" transform="translate(325.37,0)" style="font-family: 'Open Sans', verdana, arial, sans-serif; font-size: 18px; fill: rgb(42, 63, 95); fill-opacity: 1; white-space: pre;">01/05</text></g><g class="xtick"><text text-anchor="middle" x="0" y="469" transform="translate(403.86,0)" style="font-family: 'Open Sans', verdana, arial, sans-serif; font-size: 18px; fill: rgb(42, 63, 95); fill-opacity: 1; white-space: pre;">01/07</text></g><g class="xtick"><text text-anchor="middle" x="0" y="469" transform="translate(483.64,0)" style="font-family: 'Open Sans', verdana, arial, sans-serif; font-size: 18px; fill: rgb(42, 63, 95); fill-opacity: 1; white-space: pre;">01/09</text></g><g class="xtick"><text text-anchor="middle" x="0" y="469" transform="translate(562.13,0)" style="font-family: 'Open Sans', verdana, arial, sans-serif; font-size: 18px; fill: rgb(42, 63, 95); fill-opacity: 1; white-space: pre;">01/11</text></g><g class="xtick"><text text-anchor="middle" x="0" y="469" transform="translate(640.63,0)" style="font-family: 'Open Sans', verdana, arial, sans-serif; font-size: 18px; fill: rgb(42, 63, 95); fill-opacity: 1; white-space: pre;">01/01</text></g><g class="xtick"><text text-anchor="middle" x="0" y="469" transform="translate(716.54,0)" style="font-family: 'Open Sans', verdana, arial, sans-serif; font-size: 18px; fill: rgb(42, 63, 95); fill-opacity: 1; white-space: pre;">01/03</text></g></g><g class="yaxislayer-above"/><g class="overaxes-above"/></g></g><g class="polarlayer"/><g class="ternarylayer"/><g class="geolayer"/><g class="funnelarealayer"/><g class="pielayer"/><g class="treemaplayer"/><g class="sunburstlayer"/><g class="glimages"/><defs id="topdefs-f45fab"><g class="clips"/></defs><g class="layer-above"><g class="imagelayer"/><g class="shapelayer"><path data-index="0" fill-rule="evenodd" d="M-673.16,444.61L267.46000000000004,444.61" clip-path="url('#clipf45fabxy')" style="opacity: 1; stroke: rgb(255, 0, 0); stroke-opacity: 1; fill: rgb(0, 0, 0); fill-opacity: 0; stroke-dasharray: 3px, 3px; stroke-width: 1.5px;"/></g></g><g class="infolayer"><g class="g-gtitle"><text class="gtitle" x="375" y="25" text-anchor="middle" dy="0.7em" style="font-family: 'Open Sans', verdana, arial, sans-serif; font-size: 50px; fill: rgb(42, 63, 95); opacity: 1; font-weight: normal; white-space: pre;"><tspan style="font-weight:bold">Drôme (26)</tspan></text></g><g class="g-xtitle"/><g class="annotation" data-index="0" style="opacity: 1;"><g class="annotation-text-g" transform="rotate(0,698.99,300.5)"><g class="cursor-pointer" transform="translate(641, 265)"><rect class="bg" x="0.5" y="0.5" width="115" height="71" style="stroke-width: 1px; stroke: rgb(0, 0, 0); stroke-opacity: 0; fill: rgb(255, 255, 255); fill-opacity: 0.6;"/><text class="annotation-text" text-anchor="middle" x="57.8125" y="55.5" style="font-family: 'Open Sans', verdana, arial, sans-serif; font-size: 50px; fill: rgb(8, 115, 191); fill-opacity: 1; white-space: pre;"> <tspan style="font-weight:bold">830 </tspan></text></g></g><g class="annotation-arrow-g" style="opacity: 1;"><path d="M727.39,336L738.99,350.5" style="stroke-width: 1px; stroke: rgb(8, 115, 191); stroke-opacity: 1; stroke-dasharray: 0px, 0px, 18.569px, 18.569px;"/></g></g></g></svg>