<svg class="main-svg" xmlns="http://www.w3.org/2000/svg" xmlns:xlink="http://www.w3.org/1999/xlink" width="1125" height="750" style="" viewBox="0 0 750 500"><rect x="0" y="0" width="750" height="500" style="fill: rgb(0, 0, 0); fill-opacity: 0;"/><defs id="defs-33a28f"><g class="clips"><clipPath id="clip33a28fxyplot" class="plotclip"><rect width="700" height="380"/></clipPath><clipPath class="axesclip" id="clip33a28fx"><rect x="50" y="0" width="700" height="500"/></clipPath><clipPath class="axesclip" id="clip33a28fy"><rect x="0" y="70" width="750" height="380"/></clipPath><clipPath class="axesclip" id="clip33a28fxy"><rect x="50" y="70" width="700" height="380"/></clipPath></g><g class="gradients"/></defs><g class="bglayer"><rect class="bg" x="50" y="70" width="700" height="380" style="fill: rgb(0, 0, 0); fill-opacity: 0; stroke-width: 0;"/></g><g class="layer-below"><g class="imagelayer"/><g class="shapelayer"/></g><g class="cartesianlayer"><g class="subplot xy"><g class="layer-subplot"><g class="shapelayer"/><g class="imagelayer"/></g><g class="gridlayer"><g class="x"><path class="xgrid crisp" transform="translate(52.26,0)" d="M0,70v380" style="stroke: rgb(255, 255, 255); stroke-opacity: 1; stroke-width: 1px;"/><path class="xgrid crisp" transform="translate(156.3,0)" d="M0,70v380" style="stroke: rgb(255, 255, 255); stroke-opacity: 1; stroke-width: 1px;"/><path class="xgrid crisp" transform="translate(258.08000000000004,0)" d="M0,70v380" style="stroke: rgb(255, 255, 255); stroke-opacity: 1; stroke-width: 1px;"/><path class="xgrid crisp" transform="translate(360.99,0)" d="M0,70v380" style="stroke: rgb(255, 255, 255); stroke-opacity: 1; stroke-width: 1px;"/><path class="xgrid crisp" transform="translate(465.02,0)" d="M0,70v380" style="stroke: rgb(255, 255, 255); stroke-opacity: 1; stroke-width: 1px;"/><path class="xgrid crisp" transform="translate(569.06,0)" d="M0,70v380" style="stroke: rgb(255, 255, 255); stroke-opacity: 1; stroke-width: 1px;"/><path class="xgrid crisp" transform="translate(670.84,0)" d="M0,70v380" style="stroke: rgb(255, 255, 255); stroke-opacity: 1; stroke-width: 1px;"/></g><g class="y"/></g><g class="zerolinelayer"/><path class="xlines-below"/><path class="ylines-below"/><g class="overlines-below"/><g class="xaxislayer-below"/><g class="yaxislayer-below"/><g class="overaxes-below"/><g class="plot" transform="translate(50, 70)" clip-path="url('#clip33a28fxyplot')"><g class="scatterlayer mlayer"><g class="trace scatter trace22f125" style="stroke-miterlimit: 2;"><g class="fills"><g><path class="js-fill" d="M680.78,380L-153.8,380L-153.8,378.82L-110.82,379.75L-109.69,379.72L-74.64,378.66L-73.51,378.44L-56.54,373.11L-55.41,371.85L-53.15,371.77L-52.02,370.33L-46.37,366.1L-45.23,365.96L-38.45,361.73L-37.32,361.73L-30.53,359.88L-29.4,359.8L-18.09,358L-16.96,358.06L-11.31,359.63L-10.18,360.08L-2.26,362.84L-1.13,362.8L1.13,361.86L2.26,361.84L4.52,359.82L5.65,359.41L11.31,357.21L12.44,355.99L14.7,352.91L15.83,351.22L18.09,350.41L19.22,346.3L24.88,328.85L26.01,328.45L28.27,324.06L29.4,323.05L32.79,324.16L33.93,324.22L36.19,325.46L37.32,327.17L40.71,333.9L41.84,334.1L44.1,342.36L45.23,349.65L48.63,353.57L49.76,353.94L52.02,358.34L53.15,356.57L55.41,361.58L56.54,361.68L57.67,361.74L58.8,363.96L61.07,365.92L62.2,366.73L70.11,367.7L71.24,368.46L74.64,368.14L75.77,368.29L78.03,368.15L79.16,367.37L81.42,367.39L82.55,366.74L88.21,364.03L89.34,363.93L93.86,362.7L94.99,365.49L98.38,365.13L99.52,364.54L104.04,362.21L105.17,362.01L107.43,360.46L108.56,360.64L109.69,360.22L110.82,356.79L113.09,357.64L114.22,356.92L116.48,355.98L117.61,355.25L123.26,352.1L124.39,351.28L127.79,347.96L128.92,347.92L133.44,347.68L134.57,348.2L136.83,348.48L137.96,348.05L140.23,347.11L141.36,347.18L143.62,347.76L144.75,347.9L150.4,353.16L151.53,353.78L153.8,354.75L154.93,355.21L157.19,355.23L158.32,354.96L163.97,355.36L165.11,355.89L167.37,356.12L168.5,356.21L171.89,357.67L173.02,358.06L176.41,357.93L177.54,357.22L187.72,354.94L188.85,354.38L192.25,353.28L193.38,351.83L199.03,343.62L200.16,343.34L203.55,338L204.68,337.12L205.82,335.85L206.95,335.75L208.08,335.58L209.21,343L210.34,341.1L211.47,341.62L213.73,343.5L214.86,343.49L215.99,343.42L217.12,336.42L218.26,339.8L219.39,340.61L221.65,341.1L222.78,341.67L228.43,342.5L229.56,343.53L231.83,344.01L232.96,346.12L234.09,347.04L235.22,349.41L238.61,356.37L239.74,356.7L243.13,361.96L244.26,362.74L245.4,364.01L246.53,363.96L247.66,364.21L248.79,365.93L252.18,369.5L253.31,369.87L255.57,369.58L256.7,370.39L258.97,370.83L260.1,369.76L263.49,370.3L264.62,371.76L266.88,371.58L268.01,371.7L271.41,372.22L272.54,371.26L274.8,372.81L275.93,373.32L283.84,375.83L284.98,376.25L297.42,378.29L298.55,378.29L303.07,378.6L304.2,378.5L315.51,375.76L316.64,375.36L318.9,374.91L320.03,373.81L321.16,372.44L322.29,372.51L325.69,365.24L326.82,364.12L331.34,346.92L332.47,343.01L334.73,339.68L335.86,335.11L340.39,325.71L341.52,324.74L342.65,324.32L343.78,321.78L349.43,317.08L350.57,316.73L352.83,316.24L353.96,315.88L360.74,315.93L361.87,317.13L364.14,317.9L365.27,318.43L366.4,318.05L367.53,318.72L370.92,320.63L372.05,322.56L379.97,335.45L381.1,336.2L382.23,336.73L383.36,340.44L386.75,346.24L387.88,348.05L396.93,358.46L398.06,358.95L400.32,362.96L401.45,364.12L404.85,366.49L405.98,366.88L412.76,369.5L413.89,369.46L417.29,371.31L418.42,371.37L421.81,371.52L422.94,371L427.46,369.99L428.59,370.3L433.12,371.45L434.25,371.87L437.64,371.08L438.77,370.62L443.3,370.56L444.43,370.59L445.56,370.47L446.69,371.84L448.95,370.13L450.08,369.7L453.47,369.01L454.6,366.65L455.74,367.21L456.87,366.63L458,367.48L459.13,365.64L461.39,364.39L462.52,362.14L467.04,354.76L468.17,353.47L469.31,353.32L470.44,350.15L476.09,336.77L477.22,335.83L479.48,330.78L480.61,328.99L484.01,322.31L485.14,321.84L488.53,312.48L489.66,310.52L491.92,307.78L493.05,307.4L495.32,303.28L496.45,301.46L498.71,299.31L499.84,297.45L502.1,295.38L503.23,292.35L505.49,281.07L506.62,274.97L507.75,280.09L508.89,276.27L512.28,231.06L513.41,218.9L514.54,208.73L515.67,206.99L516.8,202L517.93,178.23L520.19,154.49L521.32,147.47L522.46,138.4L523.59,117.32L524.72,117.29L525.85,115.82L526.98,115L528.11,106.86L530.37,91.38L531.5,81.37L532.63,76.27L533.76,58.52L537.16,15.42L538.29,7.99L539.42,3.6L540.55,2.99L541.68,0L542.81,3.85L545.07,22.81L546.2,34.52L548.47,48.31L549.6,72.74L554.12,145.54L555.25,158.19L556.38,164.58L557.51,192.76L562.04,251.53L563.17,259.41L564.3,261.98L565.43,273.29L569.95,300.47L571.08,304.56L572.21,305.99L573.34,310.9L579,322.55L580.13,323.63L582.39,326.53L583.52,326.08L588.05,325.53L589.18,323.75L591.44,321.75L592.57,319.98L594.83,315.19L595.96,314.21L599.35,301.8L600.48,298.6L602.75,293.95L603.88,293.55L608.4,274.74L609.53,270.57L611.79,266.65L612.92,260.77L615.19,255.62L616.32,254.49L617.45,253.76L618.58,254.08L619.71,254.27L620.84,256.05L621.97,256.86L623.1,256.47L626.49,254.09L627.63,254.48L629.89,258.51L631.02,262.25L634.41,269.99L635.54,270.8L636.67,292.23L637.8,288.29L641.2,302.52L642.33,307.16L643.46,308.05L644.59,298.27L646.85,316.13L647.98,320.12L650.24,326.37L651.37,327.85L653.63,335.89L654.77,337.96L657.03,341.22L658.16,342.35L659.29,342.42L660.42,343.69L663.81,345.48L664.94,346.73L667.21,347.59L668.34,349.18L673.99,356.03L675.12,356.35L677.38,359.88L678.51,360.95L679.64,363.63L680.78,364.03" style="fill: rgb(8, 115, 191); fill-opacity: 0.2; stroke-width: 0;"/></g></g><g class="errorbars"/><g class="lines"><path class="js-line" d="M-153.8,378.82L-110.82,379.75L-109.69,379.72L-74.64,378.66L-73.51,378.44L-56.54,373.11L-55.41,371.85L-53.15,371.77L-52.02,370.33L-46.37,366.1L-45.23,365.96L-38.45,361.73L-37.32,361.73L-30.53,359.88L-29.4,359.8L-18.09,358L-16.96,358.06L-11.31,359.63L-10.18,360.08L-2.26,362.84L-1.13,362.8L1.13,361.86L2.26,361.84L4.52,359.82L5.65,359.41L11.31,357.21L12.44,355.99L14.7,352.91L15.83,351.22L18.09,350.41L19.22,346.3L24.88,328.85L26.01,328.45L28.27,324.06L29.4,323.05L32.79,324.16L33.93,324.22L36.19,325.46L37.32,327.17L40.71,333.9L41.84,334.1L44.1,342.36L45.23,349.65L48.63,353.57L49.76,353.94L52.02,358.34L53.15,356.57L55.41,361.58L56.54,361.68L57.67,361.74L58.8,363.96L61.07,365.92L62.2,366.73L70.11,367.7L71.24,368.46L74.64,368.14L75.77,368.29L78.03,368.15L79.16,367.37L81.42,367.39L82.55,366.74L88.21,364.03L89.34,363.93L93.86,362.7L94.99,365.49L98.38,365.13L99.52,364.54L104.04,362.21L105.17,362.01L107.43,360.46L108.56,360.64L109.69,360.22L110.82,356.79L113.09,357.64L114.22,356.92L116.48,355.98L117.61,355.25L123.26,352.1L124.39,351.28L127.79,347.96L128.92,347.92L133.44,347.68L134.57,348.2L136.83,348.48L137.96,348.05L140.23,347.11L141.36,347.18L143.62,347.76L144.75,347.9L150.4,353.16L151.53,353.78L153.8,354.75L154.93,355.21L157.19,355.23L158.32,354.96L163.97,355.36L165.11,355.89L167.37,356.12L168.5,356.21L171.89,357.67L173.02,358.06L176.41,357.93L177.54,357.22L187.72,354.94L188.85,354.38L192.25,353.28L193.38,351.83L199.03,343.62L200.16,343.34L203.55,338L204.68,337.12L205.82,335.85L206.95,335.75L208.08,335.58L209.21,343L210.34,341.1L211.47,341.62L213.73,343.5L214.86,343.49L215.99,343.42L217.12,336.42L218.26,339.8L219.39,340.61L221.65,341.1L222.78,341.67L228.43,342.5L229.56,343.53L231.83,344.01L232.96,346.12L234.09,347.04L235.22,349.41L238.61,356.37L239.74,356.7L243.13,361.96L244.26,362.74L245.4,364.01L246.53,363.96L247.66,364.21L248.79,365.93L252.18,369.5L253.31,369.87L255.57,369.58L256.7,370.39L258.97,370.83L260.1,369.76L263.49,370.3L264.62,371.76L266.88,371.58L268.01,371.7L271.41,372.22L272.54,371.26L274.8,372.81L275.93,373.32L283.84,375.83L284.98,376.25L297.42,378.29L298.55,378.29L303.07,378.6L304.2,378.5L315.51,375.76L316.64,375.36L318.9,374.91L320.03,373.81L321.16,372.44L322.29,372.51L325.69,365.24L326.82,364.12L331.34,346.92L332.47,343.01L334.73,339.68L335.86,335.11L340.39,325.71L341.52,324.74L342.65,324.32L343.78,321.78L349.43,317.08L350.57,316.73L352.83,316.24L353.96,315.88L360.74,315.93L361.87,317.13L364.14,317.9L365.27,318.43L366.4,318.05L367.53,318.72L370.92,320.63L372.05,322.56L379.97,335.45L381.1,336.2L382.23,336.73L383.36,340.44L386.75,346.24L387.88,348.05L396.93,358.46L398.06,358.95L400.32,362.96L401.45,364.12L404.85,366.49L405.98,366.88L412.76,369.5L413.89,369.46L417.29,371.31L418.42,371.37L421.81,371.52L422.94,371L427.46,369.99L428.59,370.3L433.12,371.45L434.25,371.87L437.64,371.08L438.77,370.62L443.3,370.56L444.43,370.59L445.56,370.47L446.69,371.84L448.95,370.13L450.08,369.7L453.47,369.01L454.6,366.65L455.74,367.21L456.87,366.63L458,367.48L459.13,365.64L461.39,364.39L462.52,362.14L467.04,354.76L468.17,353.47L469.31,353.32L470.44,350.15L476.09,336.77L477.22,335.83L479.48,330.78L480.61,328.99L484.01,322.31L485.14,321.84L488.53,312.48L489.66,310.52L491.92,307.78L493.05,307.4L495.32,303.28L496.45,301.46L498.71,299.31L499.84,297.45L502.1,295.38L503.23,292.35L505.49,281.07L506.62,274.97L507.75,280.09L508.89,276.27L512.28,231.06L513.41,218.9L514.54,208.73L515.67,206.99L516.8,202L517.93,178.23L520.19,154.49L521.32,147.47L522.46,138.4L523.59,117.32L524.72,117.29L525.85,115.82L526.98,115L528.11,106.86L530.37,91.38L531.5,81.37L532.63,76.27L533.76,58.52L537.16,15.42L538.29,7.99L539.42,3.6L540.55,2.99L541.68,0L542.81,3.85L545.07,22.81L546.2,34.52L548.47,48.31L549.6,72.74L554.12,145.54L555.25,158.19L556.38,164.58L557.51,192.76L562.04,251.53L563.17,259.41L564.3,261.98L565.43,273.29L569.95,300.47L571.08,304.56L572.21,305.99L573.34,310.9L579,322.55L580.13,323.63L582.39,326.53L583.52,326.08L588.05,325.53L589.18,323.75L591.44,321.75L592.57,319.98L594.83,315.19L595.96,314.21L599.35,301.8L600.48,298.6L602.75,293.95L603.88,293.55L608.4,274.74L609.53,270.57L611.79,266.65L612.92,260.77L615.19,255.62L616.32,254.49L617.45,253.76L618.58,254.08L619.71,254.27L620.84,256.05L621.97,256.86L623.1,256.47L626.49,254.09L627.63,254.48L629.89,258.51L631.02,262.25L634.41,269.99L635.54,270.8L636.67,292.23L637.8,288.29L641.2,302.52L642.33,307.16L643.46,308.05L644.59,298.27L646.85,316.13L647.98,320.12L650.24,326.37L651.37,327.85L653.63,335.89L654.77,337.96L657.03,341.22L658.16,342.35L659.29,342.42L660.42,343.69L663.81,345.48L664.94,346.73L667.21,347.59L668.34,349.18L673.99,356.03L675.12,356.35L677.38,359.88L678.51,360.95L679.64,363.63L680.78,364.03" style="vector-effect: non-scaling-stroke; fill: none; stroke: rgb(8, 115, 191); stroke-opacity: 1; stroke-width: 0.5px; opacity: 1;"/></g><g class="points"/><g class="text"/></g><g class="trace scatter trace0c1ec8" style="stroke-miterlimit: 2;"><g class="fills"><g><path class="js-fill" d="M692.08,380L680.78,380L680.78,364.03L684.17,364.63L685.3,364.45L686.43,364.29L687.56,362.19L690.95,361.62L692.08,364.41" style="fill: rgb(8, 115, 191); fill-opacity: 0.4; stroke-width: 0;"/></g></g><g class="errorbars"/><g class="lines"><path class="js-line" d="M680.78,364.03L684.17,364.63L685.3,364.45L686.43,364.29L687.56,362.19L690.95,361.62L692.08,364.41" style="vector-effect: non-scaling-stroke; fill: none; stroke: rgb(8, 115, 191); stroke-opacity: 1; stroke-width: 2px; opacity: 1;"/></g><g class="points"/><g class="text"/></g><g class="trace scatter tracea194b9" style="stroke-miterlimit: 2; opacity: 1;"><g class="fills"/><g class="errorbars"/><g class="lines"/><g class="points"><path class="point" transform="translate(692.08,364.41)" d="M15,0A15,15 0 1,1 0,-15A15,15 0 0,1 15,0Z" style="opacity: 1; stroke-width: 0px; fill: rgb(8, 115, 191); fill-opacity: 1;"/></g><g class="text"/></g></g></g><g class="overplot"/><path class="xlines-above crisp" style="fill: none; stroke-width: 1px; stroke: rgb(0, 0, 0); stroke-opacity: 0;" d=""/><path class="ylines-above crisp" style="fill: none;" d="M0,0"/><g class="overlines-above"/><g class="xaxislayer-above"><path class="xtick ticks crisp" d="M0,450v-5" transform="translate(52.26,0)" style="stroke: rgb(68, 68, 68); stroke-opacity: 1; stroke-width: 1px;"/><path class="xtick ticks crisp" d="M0,450v-5" transform="translate(156.3,0)" style="stroke: rgb(68, 68, 68); stroke-opacity: 1; stroke-width: 1px;"/><path class="xtick ticks crisp" d="M0,450v-5" transform="translate(258.08000000000004,0)" style="stroke: rgb(68, 68, 68); stroke-opacity: 1; stroke-width: 1px;"/><path class="xtick ticks crisp" d="M0,450v-5" transform="translate(360.99,0)" style="stroke: rgb(68, 68, 68); stroke-opacity: 1; stroke-width: 1px;"/><path class="xtick ticks crisp" d="M0,450v-5" transform="translate(465.02,0)" style="stroke: rgb(68, 68, 68); stroke-opacity: 1; stroke-width: 1px;"/><path class="xtick ticks crisp" d="M0,450v-5" transform="translate(569.06,0)" style="stroke: rgb(68, 68, 68); stroke-opacity: 1; stroke-width: 1px;"/><path class="xtick ticks crisp" d="M0,450v-5" transform="translate(670.84,0)" style="stroke: rgb(68, 68, 68); stroke-opacity: 1; stroke-width: 1px;"/><g class="xtick"><text text-anchor="middle" x="0" y="469" transform="translate(52.26,0)" style="font-family: 'Open Sans', verdana, arial, sans-serif; font-size: 18px; fill: rgb(42, 63, 95); fill-opacity: 1; white-space: pre;">01/10</text></g><g class="xtick"><text text-anchor="middle" x="0" y="469" transform="translate(156.3,0)" style="font-family: 'Open Sans', verdana, arial, sans-serif; font-size: 18px; fill: rgb(42, 63, 95); fill-opacity: 1; white-space: pre;">01/01</text></g><g class="xtick"><text text-anchor="middle" x="0" y="469" transform="translate(258.08000000000004,0)" style="font-family: 'Open Sans', verdana, arial, sans-serif; font-size: 18px; fill: rgb(42, 63, 95); fill-opacity: 1; white-space: pre;">01/04</text></g><g class="xtick"><text text-anchor="middle" x="0" y="469" transform="translate(360.99,0)" style="font-family: 'Open Sans', verdana, arial, sans-serif; font-size: 18px; fill: rgb(42, 63, 95); fill-opacity: 1; white-space: pre;">01/07</text></g><g class="xtick"><text text-anchor="middle" x="0" y="469" transform="translate(465.02,0)" style="font-family: 'Open Sans', verdana, arial, sans-serif; font-size: 18px; fill: rgb(42, 63, 95); fill-opacity: 1; white-space: pre;">01/10</text></g><g class="xtick"><text text-anchor="middle" x="0" y="469" transform="translate(569.06,0)" style="font-family: 'Open Sans', verdana, arial, sans-serif; font-size: 18px; fill: rgb(42, 63, 95); fill-opacity: 1; white-space: pre;">01/01</text></g><g class="xtick"><text text-anchor="middle" x="0" y="469" transform="translate(670.84,0)" style="font-family: 'Open Sans', verdana, arial, sans-serif; font-size: 18px; fill: rgb(42, 63, 95); fill-opacity: 1; white-space: pre;">01/04</text></g></g><g class="yaxislayer-above"/><g class="overaxes-above"/></g></g><g class="polarlayer"/><g class="ternarylayer"/><g class="geolayer"/><g class="funnelarealayer"/><g class="pielayer"/><g class="treemaplayer"/><g class="sunburstlayer"/><g class="glimages"/><defs id="topdefs-33a28f"><g class="clips"/></defs><g class="layer-above"><g class="imagelayer"/><g class="shapelayer"><path data-index="0" fill-rule="evenodd" d="M-585.54,445.43L241.11,445.43" clip-path="url('#clip33a28fxy')" style="opacity: 1; stroke: rgb(255, 0, 0); stroke-opacity: 1; fill: rgb(0, 0, 0); fill-opacity: 0; stroke-dasharray: 3px, 3px; stroke-width: 1.5px;"/></g></g><g class="infolayer"><g class="g-gtitle"><text class="gtitle" x="375" y="25" text-anchor="middle" dy="0.7em" style="font-family: 'Open Sans', verdana, arial, sans-serif; font-size: 50px; fill: rgb(42, 63, 95); opacity: 1; font-weight: normal; white-space: pre;"><tspan style="font-weight:bold">Bouches-du-Rhône (13)</tspan></text></g><g class="g-xtitle"/><g class="annotation" data-index="0" style="opacity: 1;"><g class="annotation-text-g" transform="rotate(0,700.08,374.41)"><g class="cursor-pointer" transform="translate(642, 338)"><rect class="bg" x="0.5" y="0.5" width="115" height="71" style="stroke-width: 1px; stroke: rgb(0, 0, 0); stroke-opacity: 0; fill: rgb(255, 255, 255); fill-opacity: 0.6;"/><text class="annotation-text" text-anchor="middle" x="57.8125" y="55.5" style="font-family: 'Open Sans', verdana, arial, sans-serif; font-size: 50px; fill: rgb(8, 115, 191); fill-opacity: 1; white-space: pre;"> <tspan style="font-weight:bold">170 </tspan></text></g></g><g class="annotation-arrow-g" style="opacity: 1;"><path d="M728.48,409.91L740.08,424.41" style="stroke-width: 1px; stroke: rgb(8, 115, 191); stroke-opacity: 1; stroke-dasharray: 0px, 0px, 18.5691px, 18.5691px;"/></g></g></g></svg>