<svg class="main-svg" xmlns="http://www.w3.org/2000/svg" xmlns:xlink="http://www.w3.org/1999/xlink" width="1125" height="750" style="" viewBox="0 0 750 500"><rect x="0" y="0" width="750" height="500" style="fill: rgb(0, 0, 0); fill-opacity: 0;"/><defs id="defs-73f383"><g class="clips"><clipPath id="clip73f383xyplot" class="plotclip"><rect width="700" height="380"/></clipPath><clipPath class="axesclip" id="clip73f383x"><rect x="50" y="0" width="700" height="500"/></clipPath><clipPath class="axesclip" id="clip73f383y"><rect x="0" y="70" width="750" height="380"/></clipPath><clipPath class="axesclip" id="clip73f383xy"><rect x="50" y="70" width="700" height="380"/></clipPath></g><g class="gradients"/></defs><g class="bglayer"><rect class="bg" x="50" y="70" width="700" height="380" style="fill: rgb(0, 0, 0); fill-opacity: 0; stroke-width: 0;"/></g><g class="layer-below"><g class="imagelayer"/><g class="shapelayer"/></g><g class="cartesianlayer"><g class="subplot xy"><g class="layer-subplot"><g class="shapelayer"/><g class="imagelayer"/></g><g class="gridlayer"><g class="x"><path class="xgrid crisp" transform="translate(105.13,0)" d="M0,70v380" style="stroke: rgb(255, 255, 255); stroke-opacity: 1; stroke-width: 1px;"/><path class="xgrid crisp" transform="translate(207.04,0)" d="M0,70v380" style="stroke: rgb(255, 255, 255); stroke-opacity: 1; stroke-width: 1px;"/><path class="xgrid crisp" transform="translate(305.61,0)" d="M0,70v380" style="stroke: rgb(255, 255, 255); stroke-opacity: 1; stroke-width: 1px;"/><path class="xgrid crisp" transform="translate(407.52,0)" d="M0,70v380" style="stroke: rgb(255, 255, 255); stroke-opacity: 1; stroke-width: 1px;"/><path class="xgrid crisp" transform="translate(509.43,0)" d="M0,70v380" style="stroke: rgb(255, 255, 255); stroke-opacity: 1; stroke-width: 1px;"/><path class="xgrid crisp" transform="translate(613.01,0)" d="M0,70v380" style="stroke: rgb(255, 255, 255); stroke-opacity: 1; stroke-width: 1px;"/><path class="xgrid crisp" transform="translate(714.92,0)" d="M0,70v380" style="stroke: rgb(255, 255, 255); stroke-opacity: 1; stroke-width: 1px;"/></g><g class="y"/></g><g class="zerolinelayer"/><path class="xlines-below"/><path class="ylines-below"/><g class="overlines-below"/><g class="xaxislayer-below"/><g class="yaxislayer-below"/><g class="overaxes-below"/><g class="plot" transform="translate(50, 70)" clip-path="url('#clip73f383xyplot')"><g class="scatterlayer mlayer"><g class="trace scatter tracebd8039" style="stroke-miterlimit: 2;"><g class="fills"><g><path class="js-fill" d="M671.6,380L-227.21,380L-227.21,377.23L-218.85,376.97L-217.18,377.6L-207.16,379.27L-205.49,379.43L-182.1,379.01L-180.43,379.01L-165.39,379.37L-163.72,379.06L-106.92,375.14L-105.25,373.88L-98.57,373.47L-96.9,373.1L-88.54,368.76L-86.87,366.04L-81.86,354.49L-80.19,354.91L-78.52,355.07L-76.85,347.59L-71.84,332.75L-70.17,329.19L-66.83,324.49L-65.16,324.65L-61.81,322.82L-60.14,323.65L-58.47,320.83L-56.8,321.46L-53.46,319.99L-51.79,321.46L-46.78,321.3L-45.11,322.09L-43.44,322.24L-41.77,320.83L-38.42,318.74L-36.75,318.58L-35.08,320.46L-33.41,319.79L-31.74,320.15L-30.07,319.26L-28.4,318.48L-26.73,319.16L-25.06,318.53L-23.39,315.34L-20.05,314.19L-18.38,314.61L-13.37,319.11L-11.69,321.56L-10.02,319.79L-8.35,319.94L-6.68,322.03L-5.01,320.83L-1.67,313.62L0,306.67L1.67,301.23L3.34,300.92L6.68,285.08L8.35,272.64L11.69,260.51L13.37,257.01L15.04,257.32L16.71,247.34L23.39,224.76L25.06,223.56L26.73,219.79L28.4,213.36L30.07,203.64L31.74,185.19L33.41,170.61L35.08,146.67L36.75,132.5L38.42,130.36L41.77,89.54L43.44,83.16L45.11,74.07L46.78,79.76L50.12,91.79L51.79,89.02L56.8,121.63L58.47,127.02L60.14,130.78L61.81,128.64L65.16,156.6L66.83,195.59L70.17,224.97L71.84,235.84L73.51,238.98L75.18,261.3L76.85,281L78.52,273.89L81.86,303.06L83.53,307.14L85.2,308.08L86.87,318.53L91.89,327.57L93.56,332.07L96.9,332.8L98.57,334.47L100.24,336.51L101.91,335.78L103.58,335.73L105.25,338.18L108.59,338.03L110.26,339.02L111.93,338.39L113.6,339.13L115.27,340.28L116.95,337.61L120.29,337.14L121.96,334.42L123.63,333.32L125.3,328.25L130.31,323.34L131.98,323.18L135.32,319L136.99,320.78L138.66,320.83L140.33,330.4L143.68,330.4L145.35,328.72L147.02,325.59L148.69,324.12L152.03,322.71L153.7,319.89L155.37,318.69L157.04,310.95L162.05,295.58L163.72,276.72L168.74,276.72L170.41,279.22L172.08,277.55L173.75,278.13L177.09,281.89L178.76,281.47L180.43,282.94L182.1,282.73L183.77,283.98L185.44,281.16L187.11,281.37L188.78,280.37L190.45,281.47L192.12,279.54L193.79,279.59L195.47,281.42L198.81,282.78L200.48,283.04L202.15,282.36L203.82,285.81L205.49,286.28L207.16,284.97L208.83,289.47L210.5,290.15L212.17,289.42L213.84,290.36L215.51,288.48L217.18,289.57L218.85,291.3L220.53,290.2L222.2,290.41L223.87,293.6L225.54,293.76L227.21,296.16L230.55,298.83L232.22,301.54L233.89,301.49L235.56,299.71L237.23,299.19L238.9,295.38L240.57,293.28L242.24,289.26L245.58,283.82L247.26,284.35L248.93,283.67L250.6,284.5L252.27,286.02L253.94,289.94L255.61,288.79L257.28,292.71L258.95,291.35L260.62,291.72L262.29,294.85L263.96,294.75L265.63,291.4L267.3,290.67L268.97,288.06L270.64,287.33L272.32,286.75L273.99,279.96L277.33,267.67L279,264.54L280.67,256.43L282.34,253.87L284.01,253.46L285.68,243.26L292.36,213.16L294.03,207.2L295.7,207.51L297.37,197.58L300.72,186.03L302.39,183.47L304.06,177.04L305.73,177.93L307.4,177.56L309.07,215.25L310.74,204.79L312.41,205.63L314.08,206.57L315.75,215.98L317.42,215.51L319.09,214.25L320.76,179.49L322.43,195.28L324.11,196.59L325.78,200.3L329.12,204.01L330.79,204.64L334.13,214.2L335.8,217.6L337.47,222.77L339.14,225.44L340.81,229.57L342.48,230.2L344.15,238.04L345.82,241.85L349.16,249.48L350.84,257.01L352.51,266.31L354.18,267.99L357.52,282.83L359.19,293.23L360.86,302.01L362.53,306.51L365.87,307.08L367.54,315.03L369.21,320.41L370.88,322.24L372.55,330.03L374.22,331.39L375.89,328.88L377.57,328.72L380.91,330.5L382.58,329.77L384.25,323.5L385.92,324.75L389.26,325.06L390.93,336.2L392.6,330.66L394.27,332.38L395.94,331.44L397.61,333.79L399.28,334.37L400.95,334.06L402.63,329.56L404.3,336.77L405.97,337.35L407.64,339.13L412.65,343.1L414.32,343.99L421,358.78L422.67,360.24L424.34,360.24L426.01,363.33L432.7,367.87L434.37,367.72L436.04,367.98L437.71,369.65L442.72,372L444.39,372.89L446.06,373.83L447.73,373.57L454.42,368.61L456.09,366.62L457.76,364.69L459.43,364.69L464.44,353.87L466.11,348.64L469.45,339.75L471.12,338.29L474.46,310.38L476.13,311.53L479.47,269.76L481.15,254.5L482.82,249.85L484.49,211.33L486.16,178.76L487.83,128.01L492.84,59.95L494.51,54.99L496.18,24.93L497.85,13.69L499.52,10.24L501.19,2.2L502.86,0L504.53,3.03L507.88,7.47L509.55,10.24L512.89,9.62L514.56,8.57L516.23,9.57L517.9,8.52L519.57,6.64L521.24,8.47L524.58,15.37L526.25,23.57L527.92,24.88L529.59,23.99L536.28,76.84L537.95,83.27L539.62,90.22L541.29,91L542.96,108.2L544.63,111.18L549.64,155.29L551.31,165.12L552.98,168.67L554.65,190.47L556.32,209.97L558,216.5L561.34,236.94L563.01,241.75L564.68,245.2L566.35,254.24L568.02,259.78L569.69,268.67L574.7,285.97L576.37,287.33L579.71,305.31L581.38,312.21L586.4,328.72L588.07,329.61L589.74,336.3L591.41,339.13L594.75,342.63L596.42,345.5L598.09,345.08L599.76,345.76L601.43,345.45L603.1,347.33L606.44,350.1L608.11,350.94L609.79,352.35L611.46,352.61L614.8,357.21L616.47,358.15L621.48,358.2L623.15,357.89L628.16,356.11L629.83,353.03L636.52,355.64L638.19,355.07L639.86,353.97L641.53,356.69L644.87,353.5L646.54,353.34L648.21,352.45L649.88,352.82L651.55,352.87L653.22,351.62L656.56,349.74L658.23,349.32L659.9,353.13L661.58,348.06L663.25,346.02L664.92,342.73L666.59,341.01L668.26,340.9L669.93,341.06L671.6,330.92" style="fill: rgb(8, 115, 191); fill-opacity: 0.2; stroke-width: 0;"/></g></g><g class="errorbars"/><g class="lines"><path class="js-line" d="M-227.21,377.23L-218.85,376.97L-217.18,377.6L-207.16,379.27L-205.49,379.43L-182.1,379.01L-180.43,379.01L-165.39,379.37L-163.72,379.06L-106.92,375.14L-105.25,373.88L-98.57,373.47L-96.9,373.1L-88.54,368.76L-86.87,366.04L-81.86,354.49L-80.19,354.91L-78.52,355.07L-76.85,347.59L-71.84,332.75L-70.17,329.19L-66.83,324.49L-65.16,324.65L-61.81,322.82L-60.14,323.65L-58.47,320.83L-56.8,321.46L-53.46,319.99L-51.79,321.46L-46.78,321.3L-45.11,322.09L-43.44,322.24L-41.77,320.83L-38.42,318.74L-36.75,318.58L-35.08,320.46L-33.41,319.79L-31.74,320.15L-30.07,319.26L-28.4,318.48L-26.73,319.16L-25.06,318.53L-23.39,315.34L-20.05,314.19L-18.38,314.61L-13.37,319.11L-11.69,321.56L-10.02,319.79L-8.35,319.94L-6.68,322.03L-5.01,320.83L-1.67,313.62L0,306.67L1.67,301.23L3.34,300.92L6.68,285.08L8.35,272.64L11.69,260.51L13.37,257.01L15.04,257.32L16.71,247.34L23.39,224.76L25.06,223.56L26.73,219.79L28.4,213.36L30.07,203.64L31.74,185.19L33.41,170.61L35.08,146.67L36.75,132.5L38.42,130.36L41.77,89.54L43.44,83.16L45.11,74.07L46.78,79.76L50.12,91.79L51.79,89.02L56.8,121.63L58.47,127.02L60.14,130.78L61.81,128.64L65.16,156.6L66.83,195.59L70.17,224.97L71.84,235.84L73.51,238.98L75.18,261.3L76.85,281L78.52,273.89L81.86,303.06L83.53,307.14L85.2,308.08L86.87,318.53L91.89,327.57L93.56,332.07L96.9,332.8L98.57,334.47L100.24,336.51L101.91,335.78L103.58,335.73L105.25,338.18L108.59,338.03L110.26,339.02L111.93,338.39L113.6,339.13L115.27,340.28L116.95,337.61L120.29,337.14L121.96,334.42L123.63,333.32L125.3,328.25L130.31,323.34L131.98,323.18L135.32,319L136.99,320.78L138.66,320.83L140.33,330.4L143.68,330.4L145.35,328.72L147.02,325.59L148.69,324.12L152.03,322.71L153.7,319.89L155.37,318.69L157.04,310.95L162.05,295.58L163.72,276.72L168.74,276.72L170.41,279.22L172.08,277.55L173.75,278.13L177.09,281.89L178.76,281.47L180.43,282.94L182.1,282.73L183.77,283.98L185.44,281.16L187.11,281.37L188.78,280.37L190.45,281.47L192.12,279.54L193.79,279.59L195.47,281.42L198.81,282.78L200.48,283.04L202.15,282.36L203.82,285.81L205.49,286.28L207.16,284.97L208.83,289.47L210.5,290.15L212.17,289.42L213.84,290.36L215.51,288.48L217.18,289.57L218.85,291.3L220.53,290.2L222.2,290.41L223.87,293.6L225.54,293.76L227.21,296.16L230.55,298.83L232.22,301.54L233.89,301.49L235.56,299.71L237.23,299.19L238.9,295.38L240.57,293.28L242.24,289.26L245.58,283.82L247.26,284.35L248.93,283.67L250.6,284.5L252.27,286.02L253.94,289.94L255.61,288.79L257.28,292.71L258.95,291.35L260.62,291.72L262.29,294.85L263.96,294.75L265.63,291.4L267.3,290.67L268.97,288.06L270.64,287.33L272.32,286.75L273.99,279.96L277.33,267.67L279,264.54L280.67,256.43L282.34,253.87L284.01,253.46L285.68,243.26L292.36,213.16L294.03,207.2L295.7,207.51L297.37,197.58L300.72,186.03L302.39,183.47L304.06,177.04L305.73,177.93L307.4,177.56L309.07,215.25L310.74,204.79L312.41,205.63L314.08,206.57L315.75,215.98L317.42,215.51L319.09,214.25L320.76,179.49L322.43,195.28L324.11,196.59L325.78,200.3L329.12,204.01L330.79,204.64L334.13,214.2L335.8,217.6L337.47,222.77L339.14,225.44L340.81,229.57L342.48,230.2L344.15,238.04L345.82,241.85L349.16,249.48L350.84,257.01L352.51,266.31L354.18,267.99L357.52,282.83L359.19,293.23L360.86,302.01L362.53,306.51L365.87,307.08L367.54,315.03L369.21,320.41L370.88,322.24L372.55,330.03L374.22,331.39L375.89,328.88L377.57,328.72L380.91,330.5L382.58,329.77L384.25,323.5L385.92,324.75L389.26,325.06L390.93,336.2L392.6,330.66L394.27,332.38L395.94,331.44L397.61,333.79L399.28,334.37L400.95,334.06L402.63,329.56L404.3,336.77L405.97,337.35L407.64,339.13L412.65,343.1L414.32,343.99L421,358.78L422.67,360.24L424.34,360.24L426.01,363.33L432.7,367.87L434.37,367.72L436.04,367.98L437.71,369.65L442.72,372L444.39,372.89L446.06,373.83L447.73,373.57L454.42,368.61L456.09,366.62L457.76,364.69L459.43,364.69L464.44,353.87L466.11,348.64L469.45,339.75L471.12,338.29L474.46,310.38L476.13,311.53L479.47,269.76L481.15,254.5L482.82,249.85L484.49,211.33L486.16,178.76L487.83,128.01L492.84,59.95L494.51,54.99L496.18,24.93L497.85,13.69L499.52,10.24L501.19,2.2L502.86,0L504.53,3.03L507.88,7.47L509.55,10.24L512.89,9.62L514.56,8.57L516.23,9.57L517.9,8.52L519.57,6.64L521.24,8.47L524.58,15.37L526.25,23.57L527.92,24.88L529.59,23.99L536.28,76.84L537.95,83.27L539.62,90.22L541.29,91L542.96,108.2L544.63,111.18L549.64,155.29L551.31,165.12L552.98,168.67L554.65,190.47L556.32,209.97L558,216.5L561.34,236.94L563.01,241.75L564.68,245.2L566.35,254.24L568.02,259.78L569.69,268.67L574.7,285.97L576.37,287.33L579.71,305.31L581.38,312.21L586.4,328.72L588.07,329.61L589.74,336.3L591.41,339.13L594.75,342.63L596.42,345.5L598.09,345.08L599.76,345.76L601.43,345.45L603.1,347.33L606.44,350.1L608.11,350.94L609.79,352.35L611.46,352.61L614.8,357.21L616.47,358.15L621.48,358.2L623.15,357.89L628.16,356.11L629.83,353.03L636.52,355.64L638.19,355.07L639.86,353.97L641.53,356.69L644.87,353.5L646.54,353.34L648.21,352.45L649.88,352.82L651.55,352.87L653.22,351.62L656.56,349.74L658.23,349.32L659.9,353.13L661.58,348.06L663.25,346.02L664.92,342.73L666.59,341.01L668.26,340.9L669.93,341.06L671.6,330.92" style="vector-effect: non-scaling-stroke; fill: none; stroke: rgb(8, 115, 191); stroke-opacity: 1; stroke-width: 0.5px; opacity: 1;"/></g><g class="points"/><g class="text"/></g><g class="trace scatter tracee9728d" style="stroke-miterlimit: 2;"><g class="fills"><g><path class="js-fill" d="M688.31,380L671.6,380L671.6,330.92L673.27,330.34L674.94,325.48L676.61,331.49L678.28,321.04L679.95,316.7L681.62,315.76L686.63,273.79L688.31,253.46" style="fill: rgb(8, 115, 191); fill-opacity: 0.4; stroke-width: 0;"/></g></g><g class="errorbars"/><g class="lines"><path class="js-line" d="M671.6,330.92L673.27,330.34L674.94,325.48L676.61,331.49L678.28,321.04L679.95,316.7L681.62,315.76L686.63,273.79L688.31,253.46" style="vector-effect: non-scaling-stroke; fill: none; stroke: rgb(8, 115, 191); stroke-opacity: 1; stroke-width: 2px; opacity: 1;"/></g><g class="points"/><g class="text"/></g><g class="trace scatter traced93f08" style="stroke-miterlimit: 2; opacity: 1;"><g class="fills"/><g class="errorbars"/><g class="lines"/><g class="points"><path class="point" transform="translate(688.31,253.46)" d="M15,0A15,15 0 1,1 0,-15A15,15 0 0,1 15,0Z" style="opacity: 1; stroke-width: 0px; fill: rgb(8, 115, 191); fill-opacity: 1;"/></g><g class="text"/></g></g></g><g class="overplot"/><path class="xlines-above crisp" style="fill: none; stroke-width: 1px; stroke: rgb(0, 0, 0); stroke-opacity: 0;" d=""/><path class="ylines-above crisp" style="fill: none;" d="M0,0"/><g class="overlines-above"/><g class="xaxislayer-above"><path class="xtick ticks crisp" d="M0,450v-5" transform="translate(105.13,0)" style="stroke: rgb(68, 68, 68); stroke-opacity: 1; stroke-width: 1px;"/><path class="xtick ticks crisp" d="M0,450v-5" transform="translate(207.04,0)" style="stroke: rgb(68, 68, 68); stroke-opacity: 1; stroke-width: 1px;"/><path class="xtick ticks crisp" d="M0,450v-5" transform="translate(305.61,0)" style="stroke: rgb(68, 68, 68); stroke-opacity: 1; stroke-width: 1px;"/><path class="xtick ticks crisp" d="M0,450v-5" transform="translate(407.52,0)" style="stroke: rgb(68, 68, 68); stroke-opacity: 1; stroke-width: 1px;"/><path class="xtick ticks crisp" d="M0,450v-5" transform="translate(509.43,0)" style="stroke: rgb(68, 68, 68); stroke-opacity: 1; stroke-width: 1px;"/><path class="xtick ticks crisp" d="M0,450v-5" transform="translate(613.01,0)" style="stroke: rgb(68, 68, 68); stroke-opacity: 1; stroke-width: 1px;"/><path class="xtick ticks crisp" d="M0,450v-5" transform="translate(714.92,0)" style="stroke: rgb(68, 68, 68); stroke-opacity: 1; stroke-width: 1px;"/><g class="xtick"><text text-anchor="middle" x="0" y="469" transform="translate(105.13,0)" style="font-family: 'Open Sans', verdana, arial, sans-serif; font-size: 18px; fill: rgb(42, 63, 95); fill-opacity: 1; white-space: pre;">01/11</text></g><g class="xtick"><text text-anchor="middle" x="0" y="469" transform="translate(207.04,0)" style="font-family: 'Open Sans', verdana, arial, sans-serif; font-size: 18px; fill: rgb(42, 63, 95); fill-opacity: 1; white-space: pre;">01/01</text></g><g class="xtick"><text text-anchor="middle" x="0" y="469" transform="translate(305.61,0)" style="font-family: 'Open Sans', verdana, arial, sans-serif; font-size: 18px; fill: rgb(42, 63, 95); fill-opacity: 1; white-space: pre;">01/03</text></g><g class="xtick"><text text-anchor="middle" x="0" y="469" transform="translate(407.52,0)" style="font-family: 'Open Sans', verdana, arial, sans-serif; font-size: 18px; fill: rgb(42, 63, 95); fill-opacity: 1; white-space: pre;">01/05</text></g><g class="xtick"><text text-anchor="middle" x="0" y="469" transform="translate(509.43,0)" style="font-family: 'Open Sans', verdana, arial, sans-serif; font-size: 18px; fill: rgb(42, 63, 95); fill-opacity: 1; white-space: pre;">01/07</text></g><g class="xtick"><text text-anchor="middle" x="0" y="469" transform="translate(613.01,0)" style="font-family: 'Open Sans', verdana, arial, sans-serif; font-size: 18px; fill: rgb(42, 63, 95); fill-opacity: 1; white-space: pre;">01/09</text></g><g class="xtick"><text text-anchor="middle" x="0" y="469" transform="translate(714.92,0)" style="font-family: 'Open Sans', verdana, arial, sans-serif; font-size: 18px; fill: rgb(42, 63, 95); fill-opacity: 1; white-space: pre;">01/11</text></g></g><g class="yaxislayer-above"/><g class="overaxes-above"/></g></g><g class="polarlayer"/><g class="ternarylayer"/><g class="geolayer"/><g class="funnelarealayer"/><g class="pielayer"/><g class="treemaplayer"/><g class="sunburstlayer"/><g class="glimages"/><defs id="topdefs-73f383"><g class="clips"/></defs><g class="layer-above"><g class="imagelayer"/><g class="shapelayer"><path data-index="0" fill-rule="evenodd" d="M-888.9,419.26L332.34,419.26" clip-path="url('#clip73f383xy')" style="opacity: 1; stroke: rgb(255, 0, 0); stroke-opacity: 1; fill: rgb(0, 0, 0); fill-opacity: 0; stroke-dasharray: 3px, 3px; stroke-width: 1.5px;"/></g></g><g class="infolayer"><g class="g-gtitle"><text class="gtitle" x="375" y="25" text-anchor="middle" dy="0.7em" style="font-family: 'Open Sans', verdana, arial, sans-serif; font-size: 50px; fill: rgb(42, 63, 95); opacity: 1; font-weight: normal; white-space: pre;"><tspan style="font-weight:bold">Hérault (34)</tspan></text></g><g class="g-xtitle"/><g class="annotation" data-index="0" style="opacity: 1;"><g class="annotation-text-g" transform="rotate(0,696.31,263.46000000000004)"><g class="cursor-pointer" transform="translate(638, 227)"><rect class="bg" x="0.5" y="0.5" width="115" height="71" style="stroke-width: 1px; stroke: rgb(0, 0, 0); stroke-opacity: 0; fill: rgb(255, 255, 255); fill-opacity: 0.6;"/><text class="annotation-text" text-anchor="middle" x="57.8125" y="55.5" style="font-family: 'Open Sans', verdana, arial, sans-serif; font-size: 50px; fill: rgb(8, 115, 191); fill-opacity: 1; white-space: pre;"> <tspan style="font-weight:bold">205 </tspan></text></g></g><g class="annotation-arrow-g" style="opacity: 1;"><path d="M724.7099999999999,298.96000000000004L736.31,313.46000000000004" style="stroke-width: 1px; stroke: rgb(8, 115, 191); stroke-opacity: 1; stroke-dasharray: 0px, 0px, 18.569px, 18.569px;"/></g></g></g></svg>