<svg class="main-svg" xmlns="http://www.w3.org/2000/svg" xmlns:xlink="http://www.w3.org/1999/xlink" width="1125" height="750" style="" viewBox="0 0 750 500"><rect x="0" y="0" width="750" height="500" style="fill: rgb(0, 0, 0); fill-opacity: 0;"/><defs id="defs-89522d"><g class="clips"><clipPath id="clip89522dxyplot" class="plotclip"><rect width="700" height="380"/></clipPath><clipPath class="axesclip" id="clip89522dx"><rect x="50" y="0" width="700" height="500"/></clipPath><clipPath class="axesclip" id="clip89522dy"><rect x="0" y="70" width="750" height="380"/></clipPath><clipPath class="axesclip" id="clip89522dxy"><rect x="50" y="70" width="700" height="380"/></clipPath></g><g class="gradients"/></defs><g class="bglayer"><rect class="bg" x="50" y="70" width="700" height="380" style="fill: rgb(0, 0, 0); fill-opacity: 0; stroke-width: 0;"/></g><g class="layer-below"><g class="imagelayer"/><g class="shapelayer"/></g><g class="cartesianlayer"><g class="subplot xy"><g class="layer-subplot"><g class="shapelayer"/><g class="imagelayer"/></g><g class="gridlayer"><g class="x"><path class="xgrid crisp" transform="translate(104.74000000000001,0)" d="M0,70v380" style="stroke: rgb(255, 255, 255); stroke-opacity: 1; stroke-width: 1px;"/><path class="xgrid crisp" transform="translate(205.92,0)" d="M0,70v380" style="stroke: rgb(255, 255, 255); stroke-opacity: 1; stroke-width: 1px;"/><path class="xgrid crisp" transform="translate(303.78999999999996,0)" d="M0,70v380" style="stroke: rgb(255, 255, 255); stroke-opacity: 1; stroke-width: 1px;"/><path class="xgrid crisp" transform="translate(404.98,0)" d="M0,70v380" style="stroke: rgb(255, 255, 255); stroke-opacity: 1; stroke-width: 1px;"/><path class="xgrid crisp" transform="translate(506.16,0)" d="M0,70v380" style="stroke: rgb(255, 255, 255); stroke-opacity: 1; stroke-width: 1px;"/><path class="xgrid crisp" transform="translate(609,0)" d="M0,70v380" style="stroke: rgb(255, 255, 255); stroke-opacity: 1; stroke-width: 1px;"/><path class="xgrid crisp" transform="translate(710.19,0)" d="M0,70v380" style="stroke: rgb(255, 255, 255); stroke-opacity: 1; stroke-width: 1px;"/></g><g class="y"/></g><g class="zerolinelayer"/><path class="xlines-below"/><path class="ylines-below"/><g class="overlines-below"/><g class="xaxislayer-below"/><g class="yaxislayer-below"/><g class="overaxes-below"/><g class="plot" transform="translate(50, 70)" clip-path="url('#clip89522dxyplot')"><g class="scatterlayer mlayer"><g class="trace scatter traceae0765" style="stroke-miterlimit: 2;"><g class="fills"><g><path class="js-fill" d="M671.8,380L-225.59,380L-225.59,377.52L-212.32,378.61L-210.66,378.3L-202.37,376.9L-200.71,377.21L-189.1,377.37L-187.44,376.13L-175.83,375.2L-174.17,375.67L-165.88,377.99L-164.22,378.92L-144.31,379.07L-142.65,378.45L-127.73,377.52L-126.07,377.99L-89.57,377.37L-87.91,376.9L-81.28,374.74L-79.62,374.89L-74.64,374.27L-72.99,373.81L-66.35,372.73L-64.69,373.03L-61.37,371.33L-59.72,371.18L-56.4,368.55L-54.74,368.24L-48.1,363.75L-46.45,364.52L-41.47,364.99L-39.81,363.75L-38.15,363.13L-36.49,364.21L-29.86,363.9L-28.2,364.68L-21.56,361.58L-19.91,361.74L-18.25,360.34L-16.59,360.81L-14.93,363.13L-13.27,363.59L-11.61,364.06L-9.95,363.59L-8.29,363.28L-6.64,360.81L-4.98,360.19L-3.32,355.85L-1.66,354.31L0,350.44L3.32,349.97L4.98,344.09L8.29,328.3L9.95,313.29L13.27,292.55L14.93,289.3L19.91,242.86L21.56,232.18L23.22,214.22L24.88,213.91L26.54,215.15L28.2,188.99L34.83,64.7L36.49,54.48L38.15,50.92L39.81,18.88L41.47,6.97L43.13,5.73L44.79,0L46.45,5.73L48.1,4.95L49.76,6.04L56.4,50L58.06,67.64L59.72,77.86L61.37,77.86L64.69,121.66L66.35,163.76L68.01,171.35L69.67,186.21L71.33,185.74L72.99,186.83L74.64,212.52L76.3,222.74L77.96,217.16L79.62,247.04L82.94,269.02L84.6,271.34L87.91,297.96L89.57,301.68L91.23,304.46L92.89,305.39L94.55,304.77L96.21,303.23L97.87,299.2L99.53,301.06L101.18,302.14L102.84,302.3L104.5,308.18L106.16,306.48L109.48,311.58L111.14,315.76L114.45,305.24L116.11,304L117.77,305.7L119.43,304.31L121.09,299.36L122.75,285.27L126.07,286.82L127.73,274.9L131.04,249.21L132.7,252.61L134.36,258.34L136.02,255.09L137.68,255.86L139.34,279.08L142.65,302.45L144.31,304L145.97,303.69L147.63,306.63L149.29,305.7L150.95,305.7L152.61,302.45L154.27,301.68L155.92,294.71L157.58,296.57L159.24,292.39L160.9,290.69L162.56,274.9L164.22,277.69L165.88,278.31L167.54,280.16L170.85,270.1L172.51,270.88L177.49,266.23L179.15,260.35L180.81,261.9L182.46,267.32L187.44,248.12L189.1,249.36L190.76,252.46L192.42,252.15L194.08,244.1L195.73,246.42L197.39,251.84L199.05,253.85L202.37,252.61L204.03,253.08L205.69,255.09L207.35,251.37L209,250.44L210.66,253.23L212.32,255.09L213.98,255.55L217.3,271.19L218.96,275.52L220.62,284.34L222.27,285.12L223.93,285.27L225.59,297.81L227.25,296.73L228.91,300.13L230.57,306.01L232.23,299.67L233.89,301.37L235.55,301.99L237.2,295.64L238.86,294.56L242.18,286.2L243.84,291.46L245.5,294.25L247.16,293.78L253.79,318.7L255.45,321.65L257.11,319.79L258.77,319.63L260.43,317.62L262.09,319.94L263.74,320.25L265.4,317.31L267.06,314.84L268.72,314.68L270.38,315.3L272.04,311.89L273.7,311.58L275.36,308.49L278.67,292.55L280.33,294.25L281.99,293.78L283.65,295.8L285.31,293.78L286.97,290.07L290.28,299.67L291.94,296.73L293.6,296.42L295.26,293.16L296.92,286.66L298.58,287.59L301.9,282.02L303.55,281.09L305.21,280.78L306.87,297.65L311.85,272.73L313.51,266.54L315.17,263.6L316.82,264.07L318.48,243.01L320.14,252.15L321.8,256.79L323.46,265.46L325.12,271.65L326.78,271.96L328.44,271.65L330.09,272.42L331.75,271.8L333.41,273.97L335.07,273.04L336.73,275.05L338.39,276.29L340.05,276.45L343.36,282.18L345.02,285.27L346.68,292.24L348.34,292.55L350,301.99L351.66,302.61L356.64,316.85L358.29,319.32L359.95,327.22L361.61,325.82L363.27,325.21L364.93,330.93L368.25,335.42L369.91,341.77L373.22,340.84L374.88,341.61L376.54,344.4L378.2,341.92L379.86,343.47L381.52,339.29L383.18,341.77L384.83,341.46L386.49,341.46L388.15,348.27L389.81,350.75L391.47,351.83L396.45,355.23L398.1,355.23L399.76,350.59L401.42,353.07L403.08,354.15L404.74,353.22L411.37,356.16L413.03,358.64L416.35,364.52L418.01,365.76L419.67,366.84L421.33,366.84L422.99,368.7L424.64,369.32L427.96,369.01L429.62,370.4L431.28,371.49L432.94,371.64L439.57,377.06L441.23,377.06L444.55,376.75L446.21,377.68L456.16,376.59L457.82,374.89L466.11,369.32L467.77,369.16L469.43,368.08L471.09,366.07L472.75,367.62L474.41,365.14L476.07,361.12L477.73,359.41L479.38,358.02L481.04,352.29L486.02,335.89L487.68,333.72L491,333.25L492.65,325.98L497.63,313.44L499.29,311.43L500.95,308.95L502.61,309.26L505.92,310.35L507.58,308.8L509.24,308.18L510.9,305.86L512.56,303.23L514.22,303.38L522.51,287.59L524.17,285.12L525.83,283.41L527.49,273.66L529.15,266.23L530.81,264.99L532.46,268.09L534.12,264.99L535.78,262.98L537.44,264.37L540.76,278.46L542.42,281.71L544.08,278.15L545.73,282.02L547.39,287.28L549.05,287.28L552.37,297.19L554.03,301.68L555.69,310.97L557.35,314.06L559,316.38L560.66,317L562.32,320.1L563.98,321.34L565.64,324.43L567.3,325.05L568.96,327.53L570.62,328.46L572.27,327.84L573.93,328.61L575.59,331.86L577.25,333.1L578.91,334.03L580.57,332.17L582.23,334.65L583.89,335.73L585.55,342.85L587.2,343.47L588.86,347.49L590.52,347.19L592.18,353.07L593.84,351.98L595.5,351.98L597.16,349.51L598.82,350.28L600.47,349.2L602.13,351.83L603.79,350.44L605.45,349.04L607.11,349.04L610.43,347.65L612.09,348.27L613.74,345.95L615.4,346.41L617.06,348.73L618.72,348.73L622.04,353.84L623.7,353.53L625.36,354.46L627.01,357.71L630.33,358.02L631.99,360.03L635.31,356.16L636.97,356.94L638.63,355.54L640.28,352.6L641.94,351.98L643.6,348.73L646.92,349.2L648.58,348.27L650.24,344.86L651.9,343.78L653.55,343.32L655.21,348.73L658.53,336.97L660.19,330.16L661.85,321.96L663.51,319.32L665.17,319.01L666.82,301.52L668.48,298.43L670.14,292.7L671.8,301.21" style="fill: rgb(8, 115, 191); fill-opacity: 0.2; stroke-width: 0;"/></g></g><g class="errorbars"/><g class="lines"><path class="js-line" d="M-225.59,377.52L-212.32,378.61L-210.66,378.3L-202.37,376.9L-200.71,377.21L-189.1,377.37L-187.44,376.13L-175.83,375.2L-174.17,375.67L-165.88,377.99L-164.22,378.92L-144.31,379.07L-142.65,378.45L-127.73,377.52L-126.07,377.99L-89.57,377.37L-87.91,376.9L-81.28,374.74L-79.62,374.89L-74.64,374.27L-72.99,373.81L-66.35,372.73L-64.69,373.03L-61.37,371.33L-59.72,371.18L-56.4,368.55L-54.74,368.24L-48.1,363.75L-46.45,364.52L-41.47,364.99L-39.81,363.75L-38.15,363.13L-36.49,364.21L-29.86,363.9L-28.2,364.68L-21.56,361.58L-19.91,361.74L-18.25,360.34L-16.59,360.81L-14.93,363.13L-13.27,363.59L-11.61,364.06L-9.95,363.59L-8.29,363.28L-6.64,360.81L-4.98,360.19L-3.32,355.85L-1.66,354.31L0,350.44L3.32,349.97L4.98,344.09L8.29,328.3L9.95,313.29L13.27,292.55L14.93,289.3L19.91,242.86L21.56,232.18L23.22,214.22L24.88,213.91L26.54,215.15L28.2,188.99L34.83,64.7L36.49,54.48L38.15,50.92L39.81,18.88L41.47,6.97L43.13,5.73L44.79,0L46.45,5.73L48.1,4.95L49.76,6.04L56.4,50L58.06,67.64L59.72,77.86L61.37,77.86L64.69,121.66L66.35,163.76L68.01,171.35L69.67,186.21L71.33,185.74L72.99,186.83L74.64,212.52L76.3,222.74L77.96,217.16L79.62,247.04L82.94,269.02L84.6,271.34L87.91,297.96L89.57,301.68L91.23,304.46L92.89,305.39L94.55,304.77L96.21,303.23L97.87,299.2L99.53,301.06L101.18,302.14L102.84,302.3L104.5,308.18L106.16,306.48L109.48,311.58L111.14,315.76L114.45,305.24L116.11,304L117.77,305.7L119.43,304.31L121.09,299.36L122.75,285.27L126.07,286.82L127.73,274.9L131.04,249.21L132.7,252.61L134.36,258.34L136.02,255.09L137.68,255.86L139.34,279.08L142.65,302.45L144.31,304L145.97,303.69L147.63,306.63L149.29,305.7L150.95,305.7L152.61,302.45L154.27,301.68L155.92,294.71L157.58,296.57L159.24,292.39L160.9,290.69L162.56,274.9L164.22,277.69L165.88,278.31L167.54,280.16L170.85,270.1L172.51,270.88L177.49,266.23L179.15,260.35L180.81,261.9L182.46,267.32L187.44,248.12L189.1,249.36L190.76,252.46L192.42,252.15L194.08,244.1L195.73,246.42L197.39,251.84L199.05,253.85L202.37,252.61L204.03,253.08L205.69,255.09L207.35,251.37L209,250.44L210.66,253.23L212.32,255.09L213.98,255.55L217.3,271.19L218.96,275.52L220.62,284.34L222.27,285.12L223.93,285.27L225.59,297.81L227.25,296.73L228.91,300.13L230.57,306.01L232.23,299.67L233.89,301.37L235.55,301.99L237.2,295.64L238.86,294.56L242.18,286.2L243.84,291.46L245.5,294.25L247.16,293.78L253.79,318.7L255.45,321.65L257.11,319.79L258.77,319.63L260.43,317.62L262.09,319.94L263.74,320.25L265.4,317.31L267.06,314.84L268.72,314.68L270.38,315.3L272.04,311.89L273.7,311.58L275.36,308.49L278.67,292.55L280.33,294.25L281.99,293.78L283.65,295.8L285.31,293.78L286.97,290.07L290.28,299.67L291.94,296.73L293.6,296.42L295.26,293.16L296.92,286.66L298.58,287.59L301.9,282.02L303.55,281.09L305.21,280.78L306.87,297.65L311.85,272.73L313.51,266.54L315.17,263.6L316.82,264.07L318.48,243.01L320.14,252.15L321.8,256.79L323.46,265.46L325.12,271.65L326.78,271.96L328.44,271.65L330.09,272.42L331.75,271.8L333.41,273.97L335.07,273.04L336.73,275.05L338.39,276.29L340.05,276.45L343.36,282.18L345.02,285.27L346.68,292.24L348.34,292.55L350,301.99L351.66,302.61L356.64,316.85L358.29,319.32L359.95,327.22L361.61,325.82L363.27,325.21L364.93,330.93L368.25,335.42L369.91,341.77L373.22,340.84L374.88,341.61L376.54,344.4L378.2,341.92L379.86,343.47L381.52,339.29L383.18,341.77L384.83,341.46L386.49,341.46L388.15,348.27L389.81,350.75L391.47,351.83L396.45,355.23L398.1,355.23L399.76,350.59L401.42,353.07L403.08,354.15L404.74,353.22L411.37,356.16L413.03,358.64L416.35,364.52L418.01,365.76L419.67,366.84L421.33,366.84L422.99,368.7L424.64,369.32L427.96,369.01L429.62,370.4L431.28,371.49L432.94,371.64L439.57,377.06L441.23,377.06L444.55,376.75L446.21,377.68L456.16,376.59L457.82,374.89L466.11,369.32L467.77,369.16L469.43,368.08L471.09,366.07L472.75,367.62L474.41,365.14L476.07,361.12L477.73,359.41L479.38,358.02L481.04,352.29L486.02,335.89L487.68,333.72L491,333.25L492.65,325.98L497.63,313.44L499.29,311.43L500.95,308.95L502.61,309.26L505.92,310.35L507.58,308.8L509.24,308.18L510.9,305.86L512.56,303.23L514.22,303.38L522.51,287.59L524.17,285.12L525.83,283.41L527.49,273.66L529.15,266.23L530.81,264.99L532.46,268.09L534.12,264.99L535.78,262.98L537.44,264.37L540.76,278.46L542.42,281.71L544.08,278.15L545.73,282.02L547.39,287.28L549.05,287.28L552.37,297.19L554.03,301.68L555.69,310.97L557.35,314.06L559,316.38L560.66,317L562.32,320.1L563.98,321.34L565.64,324.43L567.3,325.05L568.96,327.53L570.62,328.46L572.27,327.84L573.93,328.61L575.59,331.86L577.25,333.1L578.91,334.03L580.57,332.17L582.23,334.65L583.89,335.73L585.55,342.85L587.2,343.47L588.86,347.49L590.52,347.19L592.18,353.07L593.84,351.98L595.5,351.98L597.16,349.51L598.82,350.28L600.47,349.2L602.13,351.83L603.79,350.44L605.45,349.04L607.11,349.04L610.43,347.65L612.09,348.27L613.74,345.95L615.4,346.41L617.06,348.73L618.72,348.73L622.04,353.84L623.7,353.53L625.36,354.46L627.01,357.71L630.33,358.02L631.99,360.03L635.31,356.16L636.97,356.94L638.63,355.54L640.28,352.6L641.94,351.98L643.6,348.73L646.92,349.2L648.58,348.27L650.24,344.86L651.9,343.78L653.55,343.32L655.21,348.73L658.53,336.97L660.19,330.16L661.85,321.96L663.51,319.32L665.17,319.01L666.82,301.52L668.48,298.43L670.14,292.7L671.8,301.21" style="vector-effect: non-scaling-stroke; fill: none; stroke: rgb(8, 115, 191); stroke-opacity: 1; stroke-width: 0.5px; opacity: 1;"/></g><g class="points"/><g class="text"/></g><g class="trace scatter trace645b8f" style="stroke-miterlimit: 2;"><g class="fills"><g><path class="js-fill" d="M688.39,380L671.8,380L671.8,301.21L675.12,277.22L676.78,274.9L681.75,227.38L683.41,197.51L685.07,185.9L686.73,180.64L688.39,180.95" style="fill: rgb(8, 115, 191); fill-opacity: 0.4; stroke-width: 0;"/></g></g><g class="errorbars"/><g class="lines"><path class="js-line" d="M671.8,301.21L675.12,277.22L676.78,274.9L681.75,227.38L683.41,197.51L685.07,185.9L686.73,180.64L688.39,180.95" style="vector-effect: non-scaling-stroke; fill: none; stroke: rgb(8, 115, 191); stroke-opacity: 1; stroke-width: 2px; opacity: 1;"/></g><g class="points"/><g class="text"/></g><g class="trace scatter trace2d08ce" style="stroke-miterlimit: 2; opacity: 1;"><g class="fills"/><g class="errorbars"/><g class="lines"/><g class="points"><path class="point" transform="translate(688.39,180.95)" d="M15,0A15,15 0 1,1 0,-15A15,15 0 0,1 15,0Z" style="opacity: 1; stroke-width: 0px; fill: rgb(8, 115, 191); fill-opacity: 1;"/></g><g class="text"/></g></g></g><g class="overplot"/><path class="xlines-above crisp" style="fill: none; stroke-width: 1px; stroke: rgb(0, 0, 0); stroke-opacity: 0;" d=""/><path class="ylines-above crisp" style="fill: none;" d="M0,0"/><g class="overlines-above"/><g class="xaxislayer-above"><path class="xtick ticks crisp" d="M0,450v-5" transform="translate(104.74000000000001,0)" style="stroke: rgb(68, 68, 68); stroke-opacity: 1; stroke-width: 1px;"/><path class="xtick ticks crisp" d="M0,450v-5" transform="translate(205.92,0)" style="stroke: rgb(68, 68, 68); stroke-opacity: 1; stroke-width: 1px;"/><path class="xtick ticks crisp" d="M0,450v-5" transform="translate(303.78999999999996,0)" style="stroke: rgb(68, 68, 68); stroke-opacity: 1; stroke-width: 1px;"/><path class="xtick ticks crisp" d="M0,450v-5" transform="translate(404.98,0)" style="stroke: rgb(68, 68, 68); stroke-opacity: 1; stroke-width: 1px;"/><path class="xtick ticks crisp" d="M0,450v-5" transform="translate(506.16,0)" style="stroke: rgb(68, 68, 68); stroke-opacity: 1; stroke-width: 1px;"/><path class="xtick ticks crisp" d="M0,450v-5" transform="translate(609,0)" style="stroke: rgb(68, 68, 68); stroke-opacity: 1; stroke-width: 1px;"/><path class="xtick ticks crisp" d="M0,450v-5" transform="translate(710.19,0)" style="stroke: rgb(68, 68, 68); stroke-opacity: 1; stroke-width: 1px;"/><g class="xtick"><text text-anchor="middle" x="0" y="469" transform="translate(104.74000000000001,0)" style="font-family: 'Open Sans', verdana, arial, sans-serif; font-size: 18px; fill: rgb(42, 63, 95); fill-opacity: 1; white-space: pre;">01/11</text></g><g class="xtick"><text text-anchor="middle" x="0" y="469" transform="translate(205.92,0)" style="font-family: 'Open Sans', verdana, arial, sans-serif; font-size: 18px; fill: rgb(42, 63, 95); fill-opacity: 1; white-space: pre;">01/01</text></g><g class="xtick"><text text-anchor="middle" x="0" y="469" transform="translate(303.78999999999996,0)" style="font-family: 'Open Sans', verdana, arial, sans-serif; font-size: 18px; fill: rgb(42, 63, 95); fill-opacity: 1; white-space: pre;">01/03</text></g><g class="xtick"><text text-anchor="middle" x="0" y="469" transform="translate(404.98,0)" style="font-family: 'Open Sans', verdana, arial, sans-serif; font-size: 18px; fill: rgb(42, 63, 95); fill-opacity: 1; white-space: pre;">01/05</text></g><g class="xtick"><text text-anchor="middle" x="0" y="469" transform="translate(506.16,0)" style="font-family: 'Open Sans', verdana, arial, sans-serif; font-size: 18px; fill: rgb(42, 63, 95); fill-opacity: 1; white-space: pre;">01/07</text></g><g class="xtick"><text text-anchor="middle" x="0" y="469" transform="translate(609,0)" style="font-family: 'Open Sans', verdana, arial, sans-serif; font-size: 18px; fill: rgb(42, 63, 95); fill-opacity: 1; white-space: pre;">01/09</text></g><g class="xtick"><text text-anchor="middle" x="0" y="469" transform="translate(710.19,0)" style="font-family: 'Open Sans', verdana, arial, sans-serif; font-size: 18px; fill: rgb(42, 63, 95); fill-opacity: 1; white-space: pre;">01/11</text></g></g><g class="yaxislayer-above"/><g class="overaxes-above"/></g></g><g class="polarlayer"/><g class="ternarylayer"/><g class="geolayer"/><g class="funnelarealayer"/><g class="pielayer"/><g class="treemaplayer"/><g class="sunburstlayer"/><g class="glimages"/><defs id="topdefs-89522d"><g class="clips"/></defs><g class="layer-above"><g class="imagelayer"/><g class="shapelayer"><path data-index="0" fill-rule="evenodd" d="M-882.23,424.7L330.33,424.7" clip-path="url('#clip89522dxy')" style="opacity: 1; stroke: rgb(255, 0, 0); stroke-opacity: 1; fill: rgb(0, 0, 0); fill-opacity: 0; stroke-dasharray: 3px, 3px; stroke-width: 1.5px;"/></g></g><g class="infolayer"><g class="g-gtitle"><text class="gtitle" x="375" y="25" text-anchor="middle" dy="0.7em" style="font-family: 'Open Sans', verdana, arial, sans-serif; font-size: 50px; fill: rgb(42, 63, 95); opacity: 1; font-weight: normal; white-space: pre;"><tspan style="font-weight:bold">Ardèche (07)</tspan></text></g><g class="g-xtitle"/><g class="annotation" data-index="0" style="opacity: 1;"><g class="annotation-text-g" transform="rotate(0,696.39,190.95)"><g class="cursor-pointer" transform="translate(638, 155)"><rect class="bg" x="0.5" y="0.5" width="115" height="71" style="stroke-width: 1px; stroke: rgb(0, 0, 0); stroke-opacity: 0; fill: rgb(255, 255, 255); fill-opacity: 0.6;"/><text class="annotation-text" text-anchor="middle" x="57.8125" y="55.5" style="font-family: 'Open Sans', verdana, arial, sans-serif; font-size: 50px; fill: rgb(8, 115, 191); fill-opacity: 1; white-space: pre;"> <tspan style="font-weight:bold">393 </tspan></text></g></g><g class="annotation-arrow-g" style="opacity: 1;"><path d="M724.79,226.45L736.39,240.95" style="stroke-width: 1px; stroke: rgb(8, 115, 191); stroke-opacity: 1; stroke-dasharray: 0px, 0px, 18.5691px, 18.5691px;"/></g></g></g></svg>