<svg class="main-svg" xmlns="http://www.w3.org/2000/svg" xmlns:xlink="http://www.w3.org/1999/xlink" width="1125" height="750" style="" viewBox="0 0 750 500"><rect x="0" y="0" width="750" height="500" style="fill: rgb(0, 0, 0); fill-opacity: 0;"/><defs id="defs-93401c"><g class="clips"><clipPath id="clip93401cxyplot" class="plotclip"><rect width="700" height="380"/></clipPath><clipPath class="axesclip" id="clip93401cx"><rect x="50" y="0" width="700" height="500"/></clipPath><clipPath class="axesclip" id="clip93401cy"><rect x="0" y="70" width="750" height="380"/></clipPath><clipPath class="axesclip" id="clip93401cxy"><rect x="50" y="70" width="700" height="380"/></clipPath></g><g class="gradients"/></defs><g class="bglayer"><rect class="bg" x="50" y="70" width="700" height="380" style="fill: rgb(0, 0, 0); fill-opacity: 0; stroke-width: 0;"/></g><g class="layer-below"><g class="imagelayer"/><g class="shapelayer"/></g><g class="cartesianlayer"><g class="subplot xy"><g class="layer-subplot"><g class="shapelayer"/><g class="imagelayer"/></g><g class="gridlayer"><g class="x"><path class="xgrid crisp" transform="translate(105.66,0)" d="M0,70v380" style="stroke: rgb(255, 255, 255); stroke-opacity: 1; stroke-width: 1px;"/><path class="xgrid crisp" transform="translate(208.55,0)" d="M0,70v380" style="stroke: rgb(255, 255, 255); stroke-opacity: 1; stroke-width: 1px;"/><path class="xgrid crisp" transform="translate(308.07,0)" d="M0,70v380" style="stroke: rgb(255, 255, 255); stroke-opacity: 1; stroke-width: 1px;"/><path class="xgrid crisp" transform="translate(410.96,0)" d="M0,70v380" style="stroke: rgb(255, 255, 255); stroke-opacity: 1; stroke-width: 1px;"/><path class="xgrid crisp" transform="translate(513.86,0)" d="M0,70v380" style="stroke: rgb(255, 255, 255); stroke-opacity: 1; stroke-width: 1px;"/><path class="xgrid crisp" transform="translate(618.43,0)" d="M0,70v380" style="stroke: rgb(255, 255, 255); stroke-opacity: 1; stroke-width: 1px;"/><path class="xgrid crisp" transform="translate(721.33,0)" d="M0,70v380" style="stroke: rgb(255, 255, 255); stroke-opacity: 1; stroke-width: 1px;"/></g><g class="y"/></g><g class="zerolinelayer"/><path class="xlines-below"/><path class="ylines-below"/><g class="overlines-below"/><g class="xaxislayer-below"/><g class="yaxislayer-below"/><g class="overaxes-below"/><g class="plot" transform="translate(50, 70)" clip-path="url('#clip93401cxyplot')"><g class="scatterlayer mlayer"><g class="trace scatter tracede2fbd" style="stroke-miterlimit: 2;"><g class="fills"><g><path class="js-fill" d="M671.33,380L-229.4,380L-229.4,369.14L-226.02,370.81L-224.34,376.66L-220.96,376.66L-219.28,380L-214.22,378.33L-212.53,378.33L-119.76,378.33L-118.07,376.66L-107.95,378.33L-106.27,380L-94.46,374.99L-92.77,375.82L-86.02,374.99L-84.34,373.32L-80.96,369.98L-79.28,369.98L-75.9,364.13L-74.22,361.63L-72.53,358.29L-70.84,360.79L-69.16,357.45L-67.47,357.45L-64.1,356.62L-62.41,358.29L-59.04,363.3L-57.35,366.64L-55.66,366.64L-53.98,370.81L-50.6,369.14L-48.92,365.8L-47.23,362.46L-45.54,362.46L-43.86,360.79L-42.17,361.63L-40.48,358.29L-38.8,351.6L-35.42,344.09L-33.73,342.42L-32.05,344.09L-30.36,329.89L-23.61,315.69L-21.93,316.53L-18.55,314.02L-16.87,302.33L-13.49,301.49L-11.81,304L-10.12,299.82L-8.43,300.66L-5.06,315.69L-3.37,318.2L-1.69,320.7L0,319.03L1.69,322.37L3.37,320.7L5.06,309.01L6.75,307.34L11.81,273.1L13.49,272.26L15.18,273.93L16.87,265.58L18.55,258.07L20.24,257.23L21.93,261.41L23.61,251.38L25.3,251.38L26.99,248.88L32.05,202.95L33.73,172.88L37.11,147.82L38.8,147.82L43.86,101.05L45.54,113.58L47.23,102.73L48.92,99.38L50.6,96.88L52.29,78.51L53.98,76L55.66,75.16L57.35,56.79L59.04,73.49L60.72,71.82L62.41,75.16L65.78,86.86L67.47,136.97L70.84,121.1L72.53,123.6L74.22,121.93L75.9,141.98L77.59,168.7L79.28,140.31L82.65,207.12L84.34,212.13L86.02,215.47L87.71,243.03L89.4,257.23L91.08,280.62L92.77,298.15L94.46,290.64L96.14,298.15L97.83,295.65L99.52,288.13L101.2,291.47L102.89,290.64L104.58,283.12L106.27,293.98L107.95,287.3L109.64,288.13L111.33,292.31L113.01,273.1L114.7,272.26L116.39,281.45L118.07,273.93L119.76,273.93L121.45,274.77L123.13,275.6L124.82,296.48L126.51,290.64L128.19,294.81L131.57,306.51L133.25,307.34L134.94,314.86L136.63,309.85L138.31,318.2L140,298.99L141.69,309.85L143.37,302.33L145.06,301.49L146.75,304.84L150.12,271.43L151.81,280.62L153.49,283.96L155.18,281.45L156.87,278.95L158.55,250.55L160.24,248.04L161.93,253.05L163.61,245.54L165.3,217.14L166.99,222.99L168.67,222.99L170.36,233.85L172.05,238.86L173.73,235.52L175.42,228.84L177.11,231.34L178.8,212.97L180.48,213.8L182.17,196.26L183.86,193.76L185.54,205.45L187.23,216.31L188.92,214.64L190.6,226.33L192.29,227.16L195.66,235.52L197.35,228L199.04,212.97L200.72,207.96L202.41,198.77L204.1,197.93L205.78,195.43L207.47,187.91L209.16,185.41L210.84,186.24L212.53,182.9L214.22,197.1L215.9,194.59L217.59,197.1L219.28,203.78L220.96,201.27L222.65,207.96L224.34,221.32L227.71,227.16L229.4,247.21L231.08,248.04L232.77,250.55L234.46,254.73L236.14,256.4L237.83,257.23L239.52,258.9L241.2,255.56L242.89,265.58L246.27,292.31L247.95,298.99L251.33,298.99L253.01,302.33L254.7,302.33L256.39,298.15L258.07,296.48L259.76,298.99L261.45,294.81L263.13,294.81L266.51,304.84L268.19,308.18L273.25,288.13L274.94,287.3L276.63,278.95L278.31,262.24L283.37,212.97L285.06,209.63L286.75,210.46L288.43,194.59L290.12,188.75L291.81,196.26L293.49,194.59L295.18,199.6L296.87,198.77L298.55,196.26L300.24,187.08L301.93,182.9L303.61,162.02L305.3,155.34L306.99,154.51L308.67,157.01L310.36,157.85L312.05,202.11L313.73,172.88L315.42,185.41L317.11,174.55L318.8,171.21L320.48,174.55L322.17,175.38L323.86,110.24L325.54,126.95L327.23,121.1L328.92,144.48L330.6,149.49L332.29,133.63L333.98,125.27L335.66,138.64L337.35,148.66L339.04,152.84L340.72,150.33L342.41,146.15L344.1,167.87L345.78,175.38L349.16,202.95L350.84,212.13L352.53,218.81L354.22,238.86L355.9,247.21L357.59,246.37L360.96,264.75L362.65,268.09L364.34,279.78L366.02,273.1L367.71,272.26L369.4,273.1L372.77,279.78L374.46,279.78L377.83,296.48L379.52,284.79L381.2,284.79L382.89,293.98L384.58,287.3L386.27,286.46L389.64,258.07L391.33,263.08L393.01,264.75L394.7,281.45L396.39,262.24L398.07,274.77L401.45,286.46L403.13,286.46L404.82,285.63L406.51,277.27L408.19,307.34L409.88,304L411.57,307.34L413.25,319.03L414.94,324.04L416.63,324.88L418.31,322.37L420,330.73L423.37,345.76L425.06,341.58L426.75,344.92L428.43,343.25L430.12,353.27L431.81,354.11L433.49,354.11L435.18,353.27L436.87,358.29L438.55,359.12L440.24,359.96L441.93,363.3L443.61,364.97L445.3,368.31L446.99,369.14L448.67,372.48L450.36,372.48L452.05,373.32L453.73,370.81L455.42,370.81L457.11,369.14L458.8,369.98L460.48,367.47L462.17,366.64L463.86,365.8L465.54,366.64L468.92,355.78L470.6,354.11L472.29,350.77L473.98,349.1L475.66,349.1L477.35,339.08L479.04,324.04L480.72,326.55L484.1,306.51L485.78,288.13L487.47,286.46L489.16,258.07L490.84,247.21L492.53,224.66L494.22,216.31L495.9,199.6L497.59,196.26L499.28,197.93L500.96,193.76L502.65,180.4L504.34,155.34L506.02,146.99L507.71,143.65L509.4,141.98L511.08,139.47L512.77,127.78L514.46,126.95L516.14,124.44L517.83,104.4L519.52,93.54L521.2,75.16L522.89,76.84L526.27,34.24L527.95,42.59L529.64,40.92L531.33,27.56L533.01,24.22L534.7,15.87L536.39,0L538.07,6.68L539.76,2.51L541.45,14.2L544.82,70.99L546.51,76L551.57,139.47L553.25,150.33L556.63,160.35L558.31,161.19L560,188.75L561.69,190.42L563.37,194.59L565.06,205.45L566.75,201.27L568.43,204.62L570.12,203.78L571.81,210.46L573.49,226.33L575.18,231.34L576.87,235.52L578.55,253.89L580.24,256.4L581.93,257.23L585.3,288.13L586.99,299.82L588.67,306.51L590.36,303.16L592.05,305.67L593.73,309.85L595.42,305.67L597.11,306.51L598.8,303.16L600.48,304L602.17,307.34L603.86,306.51L605.54,305.67L607.23,309.85L608.92,310.68L610.6,313.19L612.29,310.68L613.98,312.35L615.66,319.03L617.35,319.03L620.72,328.22L622.41,333.23L624.1,341.58L625.78,341.58L627.47,338.24L629.16,337.41L632.53,343.25L634.22,342.42L635.9,344.09L637.59,347.43L639.28,345.76L640.96,346.59L646.02,350.77L647.71,342.42L649.4,335.74L651.08,334.9L652.77,333.23L654.46,329.89L656.14,321.54L657.83,309.01L659.52,303.16L661.2,300.66L662.89,301.49L664.58,303.16L666.27,309.01L667.95,291.47L669.64,294.81L671.33,292.31" style="fill: rgb(8, 115, 191); fill-opacity: 0.2; stroke-width: 0;"/></g></g><g class="errorbars"/><g class="lines"><path class="js-line" d="M-229.4,369.14L-226.02,370.81L-224.34,376.66L-220.96,376.66L-219.28,380L-214.22,378.33L-212.53,378.33L-119.76,378.33L-118.07,376.66L-107.95,378.33L-106.27,380L-94.46,374.99L-92.77,375.82L-86.02,374.99L-84.34,373.32L-80.96,369.98L-79.28,369.98L-75.9,364.13L-74.22,361.63L-72.53,358.29L-70.84,360.79L-69.16,357.45L-67.47,357.45L-64.1,356.62L-62.41,358.29L-59.04,363.3L-57.35,366.64L-55.66,366.64L-53.98,370.81L-50.6,369.14L-48.92,365.8L-47.23,362.46L-45.54,362.46L-43.86,360.79L-42.17,361.63L-40.48,358.29L-38.8,351.6L-35.42,344.09L-33.73,342.42L-32.05,344.09L-30.36,329.89L-23.61,315.69L-21.93,316.53L-18.55,314.02L-16.87,302.33L-13.49,301.49L-11.81,304L-10.12,299.82L-8.43,300.66L-5.06,315.69L-3.37,318.2L-1.69,320.7L0,319.03L1.69,322.37L3.37,320.7L5.06,309.01L6.75,307.34L11.81,273.1L13.49,272.26L15.18,273.93L16.87,265.58L18.55,258.07L20.24,257.23L21.93,261.41L23.61,251.38L25.3,251.38L26.99,248.88L32.05,202.95L33.73,172.88L37.11,147.82L38.8,147.82L43.86,101.05L45.54,113.58L47.23,102.73L48.92,99.38L50.6,96.88L52.29,78.51L53.98,76L55.66,75.16L57.35,56.79L59.04,73.49L60.72,71.82L62.41,75.16L65.78,86.86L67.47,136.97L70.84,121.1L72.53,123.6L74.22,121.93L75.9,141.98L77.59,168.7L79.28,140.31L82.65,207.12L84.34,212.13L86.02,215.47L87.71,243.03L89.4,257.23L91.08,280.62L92.77,298.15L94.46,290.64L96.14,298.15L97.83,295.65L99.52,288.13L101.2,291.47L102.89,290.64L104.58,283.12L106.27,293.98L107.95,287.3L109.64,288.13L111.33,292.31L113.01,273.1L114.7,272.26L116.39,281.45L118.07,273.93L119.76,273.93L121.45,274.77L123.13,275.6L124.82,296.48L126.51,290.64L128.19,294.81L131.57,306.51L133.25,307.34L134.94,314.86L136.63,309.85L138.31,318.2L140,298.99L141.69,309.85L143.37,302.33L145.06,301.49L146.75,304.84L150.12,271.43L151.81,280.62L153.49,283.96L155.18,281.45L156.87,278.95L158.55,250.55L160.24,248.04L161.93,253.05L163.61,245.54L165.3,217.14L166.99,222.99L168.67,222.99L170.36,233.85L172.05,238.86L173.73,235.52L175.42,228.84L177.11,231.34L178.8,212.97L180.48,213.8L182.17,196.26L183.86,193.76L185.54,205.45L187.23,216.31L188.92,214.64L190.6,226.33L192.29,227.16L195.66,235.52L197.35,228L199.04,212.97L200.72,207.96L202.41,198.77L204.1,197.93L205.78,195.43L207.47,187.91L209.16,185.41L210.84,186.24L212.53,182.9L214.22,197.1L215.9,194.59L217.59,197.1L219.28,203.78L220.96,201.27L222.65,207.96L224.34,221.32L227.71,227.16L229.4,247.21L231.08,248.04L232.77,250.55L234.46,254.73L236.14,256.4L237.83,257.23L239.52,258.9L241.2,255.56L242.89,265.58L246.27,292.31L247.95,298.99L251.33,298.99L253.01,302.33L254.7,302.33L256.39,298.15L258.07,296.48L259.76,298.99L261.45,294.81L263.13,294.81L266.51,304.84L268.19,308.18L273.25,288.13L274.94,287.3L276.63,278.95L278.31,262.24L283.37,212.97L285.06,209.63L286.75,210.46L288.43,194.59L290.12,188.75L291.81,196.26L293.49,194.59L295.18,199.6L296.87,198.77L298.55,196.26L300.24,187.08L301.93,182.9L303.61,162.02L305.3,155.34L306.99,154.51L308.67,157.01L310.36,157.85L312.05,202.11L313.73,172.88L315.42,185.41L317.11,174.55L318.8,171.21L320.48,174.55L322.17,175.38L323.86,110.24L325.54,126.95L327.23,121.1L328.92,144.48L330.6,149.49L332.29,133.63L333.98,125.27L335.66,138.64L337.35,148.66L339.04,152.84L340.72,150.33L342.41,146.15L344.1,167.87L345.78,175.38L349.16,202.95L350.84,212.13L352.53,218.81L354.22,238.86L355.9,247.21L357.59,246.37L360.96,264.75L362.65,268.09L364.34,279.78L366.02,273.1L367.71,272.26L369.4,273.1L372.77,279.78L374.46,279.78L377.83,296.48L379.52,284.79L381.2,284.79L382.89,293.98L384.58,287.3L386.27,286.46L389.64,258.07L391.33,263.08L393.01,264.75L394.7,281.45L396.39,262.24L398.07,274.77L401.45,286.46L403.13,286.46L404.82,285.63L406.51,277.27L408.19,307.34L409.88,304L411.57,307.34L413.25,319.03L414.94,324.04L416.63,324.88L418.31,322.37L420,330.73L423.37,345.76L425.06,341.58L426.75,344.92L428.43,343.25L430.12,353.27L431.81,354.11L433.49,354.11L435.18,353.27L436.87,358.29L438.55,359.12L440.24,359.96L441.93,363.3L443.61,364.97L445.3,368.31L446.99,369.14L448.67,372.48L450.36,372.48L452.05,373.32L453.73,370.81L455.42,370.81L457.11,369.14L458.8,369.98L460.48,367.47L462.17,366.64L463.86,365.8L465.54,366.64L468.92,355.78L470.6,354.11L472.29,350.77L473.98,349.1L475.66,349.1L477.35,339.08L479.04,324.04L480.72,326.55L484.1,306.51L485.78,288.13L487.47,286.46L489.16,258.07L490.84,247.21L492.53,224.66L494.22,216.31L495.9,199.6L497.59,196.26L499.28,197.93L500.96,193.76L502.65,180.4L504.34,155.34L506.02,146.99L507.71,143.65L509.4,141.98L511.08,139.47L512.77,127.78L514.46,126.95L516.14,124.44L517.83,104.4L519.52,93.54L521.2,75.16L522.89,76.84L526.27,34.24L527.95,42.59L529.64,40.92L531.33,27.56L533.01,24.22L534.7,15.87L536.39,0L538.07,6.68L539.76,2.51L541.45,14.2L544.82,70.99L546.51,76L551.57,139.47L553.25,150.33L556.63,160.35L558.31,161.19L560,188.75L561.69,190.42L563.37,194.59L565.06,205.45L566.75,201.27L568.43,204.62L570.12,203.78L571.81,210.46L573.49,226.33L575.18,231.34L576.87,235.52L578.55,253.89L580.24,256.4L581.93,257.23L585.3,288.13L586.99,299.82L588.67,306.51L590.36,303.16L592.05,305.67L593.73,309.85L595.42,305.67L597.11,306.51L598.8,303.16L600.48,304L602.17,307.34L603.86,306.51L605.54,305.67L607.23,309.85L608.92,310.68L610.6,313.19L612.29,310.68L613.98,312.35L615.66,319.03L617.35,319.03L620.72,328.22L622.41,333.23L624.1,341.58L625.78,341.58L627.47,338.24L629.16,337.41L632.53,343.25L634.22,342.42L635.9,344.09L637.59,347.43L639.28,345.76L640.96,346.59L646.02,350.77L647.71,342.42L649.4,335.74L651.08,334.9L652.77,333.23L654.46,329.89L656.14,321.54L657.83,309.01L659.52,303.16L661.2,300.66L662.89,301.49L664.58,303.16L666.27,309.01L667.95,291.47L669.64,294.81L671.33,292.31" style="vector-effect: non-scaling-stroke; fill: none; stroke: rgb(8, 115, 191); stroke-opacity: 1; stroke-width: 0.5px; opacity: 1;"/></g><g class="points"/><g class="text"/></g><g class="trace scatter trace99129e" style="stroke-miterlimit: 2;"><g class="fills"><g><path class="js-fill" d="M688.19,380L671.33,380L671.33,292.31L674.7,281.45L676.39,280.62L678.07,257.23L679.76,268.92L681.45,250.55L683.13,263.08L684.82,241.36L686.51,238.86L688.19,237.19" style="fill: rgb(8, 115, 191); fill-opacity: 0.4; stroke-width: 0;"/></g></g><g class="errorbars"/><g class="lines"><path class="js-line" d="M671.33,292.31L674.7,281.45L676.39,280.62L678.07,257.23L679.76,268.92L681.45,250.55L683.13,263.08L684.82,241.36L686.51,238.86L688.19,237.19" style="vector-effect: non-scaling-stroke; fill: none; stroke: rgb(8, 115, 191); stroke-opacity: 1; stroke-width: 2px; opacity: 1;"/></g><g class="points"/><g class="text"/></g><g class="trace scatter trace84337a" style="stroke-miterlimit: 2; opacity: 1;"><g class="fills"/><g class="errorbars"/><g class="lines"/><g class="points"><path class="point" transform="translate(688.19,237.19)" d="M15,0A15,15 0 1,1 0,-15A15,15 0 0,1 15,0Z" style="opacity: 1; stroke-width: 0px; fill: rgb(8, 115, 191); fill-opacity: 1;"/></g><g class="text"/></g></g></g><g class="overplot"/><path class="xlines-above crisp" style="fill: none; stroke-width: 1px; stroke: rgb(0, 0, 0); stroke-opacity: 0;" d=""/><path class="ylines-above crisp" style="fill: none;" d="M0,0"/><g class="overlines-above"/><g class="xaxislayer-above"><path class="xtick ticks crisp" d="M0,450v-5" transform="translate(105.66,0)" style="stroke: rgb(68, 68, 68); stroke-opacity: 1; stroke-width: 1px;"/><path class="xtick ticks crisp" d="M0,450v-5" transform="translate(208.55,0)" style="stroke: rgb(68, 68, 68); stroke-opacity: 1; stroke-width: 1px;"/><path class="xtick ticks crisp" d="M0,450v-5" transform="translate(308.07,0)" style="stroke: rgb(68, 68, 68); stroke-opacity: 1; stroke-width: 1px;"/><path class="xtick ticks crisp" d="M0,450v-5" transform="translate(410.96,0)" style="stroke: rgb(68, 68, 68); stroke-opacity: 1; stroke-width: 1px;"/><path class="xtick ticks crisp" d="M0,450v-5" transform="translate(513.86,0)" style="stroke: rgb(68, 68, 68); stroke-opacity: 1; stroke-width: 1px;"/><path class="xtick ticks crisp" d="M0,450v-5" transform="translate(618.43,0)" style="stroke: rgb(68, 68, 68); stroke-opacity: 1; stroke-width: 1px;"/><path class="xtick ticks crisp" d="M0,450v-5" transform="translate(721.33,0)" style="stroke: rgb(68, 68, 68); stroke-opacity: 1; stroke-width: 1px;"/><g class="xtick"><text text-anchor="middle" x="0" y="469" transform="translate(105.66,0)" style="font-family: 'Open Sans', verdana, arial, sans-serif; font-size: 18px; fill: rgb(42, 63, 95); fill-opacity: 1; white-space: pre;">01/11</text></g><g class="xtick"><text text-anchor="middle" x="0" y="469" transform="translate(208.55,0)" style="font-family: 'Open Sans', verdana, arial, sans-serif; font-size: 18px; fill: rgb(42, 63, 95); fill-opacity: 1; white-space: pre;">01/01</text></g><g class="xtick"><text text-anchor="middle" x="0" y="469" transform="translate(308.07,0)" style="font-family: 'Open Sans', verdana, arial, sans-serif; font-size: 18px; fill: rgb(42, 63, 95); fill-opacity: 1; white-space: pre;">01/03</text></g><g class="xtick"><text text-anchor="middle" x="0" y="469" transform="translate(410.96,0)" style="font-family: 'Open Sans', verdana, arial, sans-serif; font-size: 18px; fill: rgb(42, 63, 95); fill-opacity: 1; white-space: pre;">01/05</text></g><g class="xtick"><text text-anchor="middle" x="0" y="469" transform="translate(513.86,0)" style="font-family: 'Open Sans', verdana, arial, sans-serif; font-size: 18px; fill: rgb(42, 63, 95); fill-opacity: 1; white-space: pre;">01/07</text></g><g class="xtick"><text text-anchor="middle" x="0" y="469" transform="translate(618.43,0)" style="font-family: 'Open Sans', verdana, arial, sans-serif; font-size: 18px; fill: rgb(42, 63, 95); fill-opacity: 1; white-space: pre;">01/09</text></g><g class="xtick"><text text-anchor="middle" x="0" y="469" transform="translate(721.33,0)" style="font-family: 'Open Sans', verdana, arial, sans-serif; font-size: 18px; fill: rgb(42, 63, 95); fill-opacity: 1; white-space: pre;">01/11</text></g></g><g class="yaxislayer-above"/><g class="overaxes-above"/></g></g><g class="polarlayer"/><g class="ternarylayer"/><g class="geolayer"/><g class="funnelarealayer"/><g class="pielayer"/><g class="treemaplayer"/><g class="sunburstlayer"/><g class="glimages"/><defs id="topdefs-93401c"><g class="clips"/></defs><g class="layer-above"><g class="imagelayer"/><g class="shapelayer"><path data-index="0" fill-rule="evenodd" d="M-897.95,377.69L335.06,377.69" clip-path="url('#clip93401cxy')" style="opacity: 1; stroke: rgb(255, 0, 0); stroke-opacity: 1; fill: rgb(0, 0, 0); fill-opacity: 0; stroke-dasharray: 3px, 3px; stroke-width: 1.5px;"/></g></g><g class="infolayer"><g class="g-gtitle"><text class="gtitle" x="375" y="25" text-anchor="middle" dy="0.7em" style="font-family: 'Open Sans', verdana, arial, sans-serif; font-size: 50px; fill: rgb(42, 63, 95); opacity: 1; font-weight: normal; white-space: pre;"><tspan style="font-weight:bold">Lot (46)</tspan></text></g><g class="g-xtitle"/><g class="annotation" data-index="0" style="opacity: 1;"><g class="annotation-text-g" transform="rotate(0,696.19,247.19)"><g class="cursor-pointer" transform="translate(653, 211)"><rect class="bg" x="0.5" y="0.5" width="86" height="71" style="stroke-width: 1px; stroke: rgb(0, 0, 0); stroke-opacity: 0; fill: rgb(255, 255, 255); fill-opacity: 0.6;"/><text class="annotation-text" text-anchor="middle" x="43.53125" y="55.5" style="font-family: 'Open Sans', verdana, arial, sans-serif; font-size: 50px; fill: rgb(8, 115, 191); fill-opacity: 1; white-space: pre;"> <tspan style="font-weight:bold">98 </tspan></text></g></g><g class="annotation-arrow-g" style="opacity: 1;"><path d="M724.59,282.69L736.19,297.19" style="stroke-width: 1px; stroke: rgb(8, 115, 191); stroke-opacity: 1; stroke-dasharray: 0px, 0px, 18.569px, 18.569px;"/></g></g></g></svg>