<svg class="main-svg" xmlns="http://www.w3.org/2000/svg" xmlns:xlink="http://www.w3.org/1999/xlink" width="1125" height="750" style="" viewBox="0 0 750 500"><rect x="0" y="0" width="750" height="500" style="fill: rgb(0, 0, 0); fill-opacity: 0;"/><defs id="defs-2ee31d"><g class="clips"><clipPath id="clip2ee31dxyplot" class="plotclip"><rect width="700" height="380"/></clipPath><clipPath class="axesclip" id="clip2ee31dx"><rect x="50" y="0" width="700" height="500"/></clipPath><clipPath class="axesclip" id="clip2ee31dy"><rect x="0" y="70" width="750" height="380"/></clipPath><clipPath class="axesclip" id="clip2ee31dxy"><rect x="50" y="70" width="700" height="380"/></clipPath></g><g class="gradients"/></defs><g class="bglayer"><rect class="bg" x="50" y="70" width="700" height="380" style="fill: rgb(0, 0, 0); fill-opacity: 0; stroke-width: 0;"/></g><g class="layer-below"><g class="imagelayer"/><g class="shapelayer"/></g><g class="cartesianlayer"><g class="subplot xy"><g class="layer-subplot"><g class="shapelayer"/><g class="imagelayer"/></g><g class="gridlayer"><g class="x"><path class="xgrid crisp" transform="translate(103.72,0)" d="M0,70v380" style="stroke: rgb(255, 255, 255); stroke-opacity: 1; stroke-width: 1px;"/><path class="xgrid crisp" transform="translate(203.02,0)" d="M0,70v380" style="stroke: rgb(255, 255, 255); stroke-opacity: 1; stroke-width: 1px;"/><path class="xgrid crisp" transform="translate(299.07,0)" d="M0,70v380" style="stroke: rgb(255, 255, 255); stroke-opacity: 1; stroke-width: 1px;"/><path class="xgrid crisp" transform="translate(398.37,0)" d="M0,70v380" style="stroke: rgb(255, 255, 255); stroke-opacity: 1; stroke-width: 1px;"/><path class="xgrid crisp" transform="translate(497.67,0)" d="M0,70v380" style="stroke: rgb(255, 255, 255); stroke-opacity: 1; stroke-width: 1px;"/><path class="xgrid crisp" transform="translate(598.6,0)" d="M0,70v380" style="stroke: rgb(255, 255, 255); stroke-opacity: 1; stroke-width: 1px;"/><path class="xgrid crisp" transform="translate(697.91,0)" d="M0,70v380" style="stroke: rgb(255, 255, 255); stroke-opacity: 1; stroke-width: 1px;"/></g><g class="y"/></g><g class="zerolinelayer"/><path class="xlines-below"/><path class="ylines-below"/><g class="overlines-below"/><g class="xaxislayer-below"/><g class="yaxislayer-below"/><g class="overaxes-below"/><g class="plot" transform="translate(50, 70)" clip-path="url('#clip2ee31dxyplot')"><g class="scatterlayer mlayer"><g class="trace scatter tracef3e25e" style="stroke-miterlimit: 2;"><g class="fills"><g><path class="js-fill" d="M672.33,380L-221.4,380L-221.4,379.06L-219.77,379.06L-218.14,375.52L-208.37,340.61L-206.74,342.73L-205.12,344.15L-203.49,342.73L-201.86,345.8L-198.6,344.38L-196.98,342.5L-183.95,282.82L-182.33,260.17L-177.44,241.3L-175.81,218.66L-174.19,163.23L-172.56,147.42L-164.42,64.87L-162.79,70.06L-161.16,72.65L-159.53,92.46L-157.91,95.06L-156.28,76.9L-153.02,67.46L-151.4,81.85L-149.77,79.26L-148.14,55.9L-146.51,56.37L-144.88,74.3L-143.26,76.9L-141.63,95.29L-136.74,124.07L-135.12,145.07L-133.49,149.31L-131.86,163.94L-128.6,209.46L-126.98,200.73L-125.35,229.98L-123.72,234.23L-122.09,222.67L-120.47,230.45L-117.21,213.23L-115.58,226.44L-112.33,219.6L-110.7,221.25L-100.93,258.05L-99.3,271.97L-97.67,276.21L-96.05,273.15L-92.79,286.59L-91.16,291.07L-87.91,295.79L-86.28,294.85L-83.02,304.99L-81.4,300.27L-78.14,306.64L-76.51,308.29L-74.88,313.72L-73.26,312.77L-70,321.03L-68.37,319.14L-65.12,319.62L-63.49,320.79L-61.86,326.69L-60.23,321.97L-53.72,323.39L-52.09,316.08L-50.47,313.25L-48.84,317.96L-47.21,322.68L-45.58,322.45L-43.95,325.04L-42.33,322.21L-39.07,331.17L-37.44,328.11L-35.81,326.93L-34.19,330.7L-32.56,329.99L-30.93,334.24L-27.67,335.65L-26.05,340.37L-24.42,344.62L-22.79,342.26L-21.16,342.97L-19.53,342.5L-16.28,344.62L-14.65,343.2L-13.02,338.72L-11.4,341.08L-9.77,338.72L-8.14,338.01L-6.51,335.18L-4.88,335.65L-1.63,341.32L0,339.9L1.63,341.32L3.26,339.9L4.88,345.56L6.51,343.67L8.14,339.43L9.77,342.73L14.65,350.75L16.28,350.52L21.16,358.06L22.79,358.06L24.42,356.88L26.05,354.53L27.67,353.11L29.3,353.82L30.93,350.75L32.56,342.97L34.19,342.26L35.81,343.67L39.07,347.45L40.7,345.33L42.33,348.16L43.95,353.58L45.58,353.35L47.21,351.22L48.84,350.52L50.47,348.86L53.72,348.39L55.35,345.56L56.98,345.8L58.6,347.45L60.23,347.21L61.86,343.91L63.49,345.56L65.12,348.39L66.74,344.85L68.37,345.09L70,341.79L71.63,342.5L73.26,342.26L74.88,339.43L76.51,336.36L78.14,341.55L79.77,339.9L81.4,341.79L83.02,342.02L84.65,340.37L86.28,341.08L87.91,339.9L91.16,341.55L92.79,339.66L94.42,339.19L96.05,341.55L97.67,340.14L99.3,336.6L104.19,320.56L105.81,320.79L107.44,316.08L109.07,307.35L110.7,302.4L112.33,292.25L113.95,288.72L115.58,287.54L117.21,284L118.84,271.73L122.09,253.1L123.72,249.8L126.98,245.79L128.6,247.2L130.23,247.67L131.86,253.81L133.49,257.11L135.12,267.72L136.74,285.18L138.37,285.18L140,287.77L141.63,286.12L144.88,276.92L146.51,270.32L148.14,268.19L149.77,262.77L151.4,259.23L153.02,251.92L157.91,211.82L159.53,184.22L162.79,184.93L164.42,172.43L166.05,175.73L167.67,187.52L169.3,194.13L170.93,189.41L172.56,194.84L174.19,196.25L175.81,208.28L177.44,211.35L179.07,209.46L180.7,217.01L182.33,234.7L183.95,238.71L185.58,238.24L187.21,250.5L192.09,275.03L193.72,281.4L195.35,282.35L196.98,282.11L198.6,291.78L200.23,307.59L203.49,325.75L205.12,329.52L206.74,333.53L208.37,334.71L210,341.55L211.63,342.73L216.51,354.53L218.14,355.94L219.77,356.88L221.4,359.48L223.02,360.42L224.65,363.49L227.91,363.72L229.53,362.78L231.16,362.31L232.79,360.66L234.42,361.13L236.05,359.24L237.67,359.01L239.3,360.42L240.93,360.19L242.56,361.13L244.19,361.37L245.81,363.02L249.07,366.79L250.7,364.9L253.95,364.67L255.58,367.26L257.21,368.21L258.84,367.73L260.47,366.08L262.09,367.26L263.72,367.97L265.35,367.5L266.98,365.14L268.6,364.43L270.23,364.43L271.86,362.31L273.49,359.71L275.12,359.24L276.74,359.95L278.37,358.3L280,357.36L281.63,352.87L283.26,350.52L284.88,349.57L286.51,343.44L288.14,342.5L291.4,332.82L293.02,332.12L294.65,331.88L296.28,329.29L299.53,327.64L301.16,336.13L306.05,300.74L307.67,294.14L309.3,290.84L310.93,291.78L312.56,271.02L314.19,271.02L315.81,270.55L317.44,266.54L319.07,260.41L320.7,262.06L322.33,260.65L323.95,246.49L327.21,232.81L328.84,228.09L332.09,230.45L333.72,230.22L335.35,237.77L336.98,238.71L338.6,240.36L340.23,238.94L341.86,234.93L343.49,238.94L345.12,239.18L346.74,220.55L350,202.38L351.63,200.97L353.26,183.04L354.88,179.98L356.51,179.03L358.14,161.34L361.4,123.84L363.02,146.95L366.28,114.17L367.91,112.75L369.53,104.73L371.16,109.21L372.79,111.57L374.42,77.84L376.05,97.89L377.67,98.6L379.3,98.83L380.93,153.09L382.56,153.56L384.19,146.01L385.81,150.96L387.44,148.6L389.07,158.04L390.7,155.68L392.33,129.73L393.95,145.54L395.58,164.41L397.21,161.58L400.47,170.07L402.09,174.31L403.72,174.08L405.35,165.11L406.98,156.86L408.6,188.23L410.23,183.51L411.86,175.26L415.12,173.61L416.74,178.56L418.37,186.34L420,165.59L423.26,184.93L424.88,182.81L426.51,192.95L428.14,197.43L429.77,207.81L431.4,210.17L434.65,213.23L436.28,217.24L439.53,238.94L441.16,244.84L442.79,248.62L444.42,249.8L447.67,245.31L449.3,239.65L450.93,243.43L452.56,242.95L455.81,252.15L457.44,252.63L459.07,252.63L460.7,250.97L462.33,253.1L463.95,266.07L467.21,253.1L468.84,250.5L470.47,248.14L472.09,241.54L473.72,231.4L475.35,206.63L476.98,209.7L478.6,210.64L480.23,210.4L481.86,212.29L486.74,233.76L488.37,229.51L490,233.28L491.63,234.23L493.26,235.41L494.88,226.21L499.77,209.22L501.4,204.98L503.02,200.97L504.65,200.5L511.16,149.31L512.79,130.44L514.42,123.6L516.05,121.71L517.67,115.82L519.3,101.66L520.93,91.52L522.56,90.81L525.81,78.08L527.44,78.31L529.07,69.11L530.7,66.52L532.33,71.71L533.95,68.17L537.21,62.74L538.84,65.1L540.47,60.38L542.09,59.21L543.72,57.79L545.35,67.7L548.6,93.17L550.23,90.34L551.86,103.55L553.49,108.74L555.12,114.17L556.74,107.56L558.37,95.53L560,92.7L561.63,91.28L563.26,82.56L564.88,74.77L566.51,55.67L569.77,43.64L571.4,37.5L573.02,39.16L574.65,39.63L576.28,34.91L577.91,33.73L581.16,12.74L582.79,8.73L584.42,9.2L586.05,0L589.3,8.49L590.93,21.94L594.19,39.39L595.81,40.57L597.44,58.97L599.07,67.46L603.95,120.06L605.58,126.43L607.21,126.9L608.84,139.4L612.09,172.43L613.72,177.85L616.98,193.42L618.6,194.84L621.86,215.36L623.49,212.53L625.12,218.66L626.74,221.73L630,219.37L631.63,224.56L633.26,226.91L634.88,238.94L638.14,258.29L639.77,262.53L641.4,262.3L643.02,288.01L644.65,278.81L646.28,284.23L647.91,286.36L649.53,284L651.16,286.83L652.79,287.77L654.42,268.67L656.05,286.59L657.67,293.67L659.3,307.35L660.93,308.06L662.56,309.94L664.19,309.94L665.81,320.56L667.44,327.16L669.07,325.98L670.7,319.85L672.33,326.93" style="fill: rgb(8, 115, 191); fill-opacity: 0.2; stroke-width: 0;"/></g></g><g class="errorbars"/><g class="lines"><path class="js-line" d="M-221.4,379.06L-219.77,379.06L-218.14,375.52L-208.37,340.61L-206.74,342.73L-205.12,344.15L-203.49,342.73L-201.86,345.8L-198.6,344.38L-196.98,342.5L-183.95,282.82L-182.33,260.17L-177.44,241.3L-175.81,218.66L-174.19,163.23L-172.56,147.42L-164.42,64.87L-162.79,70.06L-161.16,72.65L-159.53,92.46L-157.91,95.06L-156.28,76.9L-153.02,67.46L-151.4,81.85L-149.77,79.26L-148.14,55.9L-146.51,56.37L-144.88,74.3L-143.26,76.9L-141.63,95.29L-136.74,124.07L-135.12,145.07L-133.49,149.31L-131.86,163.94L-128.6,209.46L-126.98,200.73L-125.35,229.98L-123.72,234.23L-122.09,222.67L-120.47,230.45L-117.21,213.23L-115.58,226.44L-112.33,219.6L-110.7,221.25L-100.93,258.05L-99.3,271.97L-97.67,276.21L-96.05,273.15L-92.79,286.59L-91.16,291.07L-87.91,295.79L-86.28,294.85L-83.02,304.99L-81.4,300.27L-78.14,306.64L-76.51,308.29L-74.88,313.72L-73.26,312.77L-70,321.03L-68.37,319.14L-65.12,319.62L-63.49,320.79L-61.86,326.69L-60.23,321.97L-53.72,323.39L-52.09,316.08L-50.47,313.25L-48.84,317.96L-47.21,322.68L-45.58,322.45L-43.95,325.04L-42.33,322.21L-39.07,331.17L-37.44,328.11L-35.81,326.93L-34.19,330.7L-32.56,329.99L-30.93,334.24L-27.67,335.65L-26.05,340.37L-24.42,344.62L-22.79,342.26L-21.16,342.97L-19.53,342.5L-16.28,344.62L-14.65,343.2L-13.02,338.72L-11.4,341.08L-9.77,338.72L-8.14,338.01L-6.51,335.18L-4.88,335.65L-1.63,341.32L0,339.9L1.63,341.32L3.26,339.9L4.88,345.56L6.51,343.67L8.14,339.43L9.77,342.73L14.65,350.75L16.28,350.52L21.16,358.06L22.79,358.06L24.42,356.88L26.05,354.53L27.67,353.11L29.3,353.82L30.93,350.75L32.56,342.97L34.19,342.26L35.81,343.67L39.07,347.45L40.7,345.33L42.33,348.16L43.95,353.58L45.58,353.35L47.21,351.22L48.84,350.52L50.47,348.86L53.72,348.39L55.35,345.56L56.98,345.8L58.6,347.45L60.23,347.21L61.86,343.91L63.49,345.56L65.12,348.39L66.74,344.85L68.37,345.09L70,341.79L71.63,342.5L73.26,342.26L74.88,339.43L76.51,336.36L78.14,341.55L79.77,339.9L81.4,341.79L83.02,342.02L84.65,340.37L86.28,341.08L87.91,339.9L91.16,341.55L92.79,339.66L94.42,339.19L96.05,341.55L97.67,340.14L99.3,336.6L104.19,320.56L105.81,320.79L107.44,316.08L109.07,307.35L110.7,302.4L112.33,292.25L113.95,288.72L115.58,287.54L117.21,284L118.84,271.73L122.09,253.1L123.72,249.8L126.98,245.79L128.6,247.2L130.23,247.67L131.86,253.81L133.49,257.11L135.12,267.72L136.74,285.18L138.37,285.18L140,287.77L141.63,286.12L144.88,276.92L146.51,270.32L148.14,268.19L149.77,262.77L151.4,259.23L153.02,251.92L157.91,211.82L159.53,184.22L162.79,184.93L164.42,172.43L166.05,175.73L167.67,187.52L169.3,194.13L170.93,189.41L172.56,194.84L174.19,196.25L175.81,208.28L177.44,211.35L179.07,209.46L180.7,217.01L182.33,234.7L183.95,238.71L185.58,238.24L187.21,250.5L192.09,275.03L193.72,281.4L195.35,282.35L196.98,282.11L198.6,291.78L200.23,307.59L203.49,325.75L205.12,329.52L206.74,333.53L208.37,334.71L210,341.55L211.63,342.73L216.51,354.53L218.14,355.94L219.77,356.88L221.4,359.48L223.02,360.42L224.65,363.49L227.91,363.72L229.53,362.78L231.16,362.31L232.79,360.66L234.42,361.13L236.05,359.24L237.67,359.01L239.3,360.42L240.93,360.19L242.56,361.13L244.19,361.37L245.81,363.02L249.07,366.79L250.7,364.9L253.95,364.67L255.58,367.26L257.21,368.21L258.84,367.73L260.47,366.08L262.09,367.26L263.72,367.97L265.35,367.5L266.98,365.14L268.6,364.43L270.23,364.43L271.86,362.31L273.49,359.71L275.12,359.24L276.74,359.95L278.37,358.3L280,357.36L281.63,352.87L283.26,350.52L284.88,349.57L286.51,343.44L288.14,342.5L291.4,332.82L293.02,332.12L294.65,331.88L296.28,329.29L299.53,327.64L301.16,336.13L306.05,300.74L307.67,294.14L309.3,290.84L310.93,291.78L312.56,271.02L314.19,271.02L315.81,270.55L317.44,266.54L319.07,260.41L320.7,262.06L322.33,260.65L323.95,246.49L327.21,232.81L328.84,228.09L332.09,230.45L333.72,230.22L335.35,237.77L336.98,238.71L338.6,240.36L340.23,238.94L341.86,234.93L343.49,238.94L345.12,239.18L346.74,220.55L350,202.38L351.63,200.97L353.26,183.04L354.88,179.98L356.51,179.03L358.14,161.34L361.4,123.84L363.02,146.95L366.28,114.17L367.91,112.75L369.53,104.73L371.16,109.21L372.79,111.57L374.42,77.84L376.05,97.89L377.67,98.6L379.3,98.83L380.93,153.09L382.56,153.56L384.19,146.01L385.81,150.96L387.44,148.6L389.07,158.04L390.7,155.68L392.33,129.73L393.95,145.54L395.58,164.41L397.21,161.58L400.47,170.07L402.09,174.31L403.72,174.08L405.35,165.11L406.98,156.86L408.6,188.23L410.23,183.51L411.86,175.26L415.12,173.61L416.74,178.56L418.37,186.34L420,165.59L423.26,184.93L424.88,182.81L426.51,192.95L428.14,197.43L429.77,207.81L431.4,210.17L434.65,213.23L436.28,217.24L439.53,238.94L441.16,244.84L442.79,248.62L444.42,249.8L447.67,245.31L449.3,239.65L450.93,243.43L452.56,242.95L455.81,252.15L457.44,252.63L459.07,252.63L460.7,250.97L462.33,253.1L463.95,266.07L467.21,253.1L468.84,250.5L470.47,248.14L472.09,241.54L473.72,231.4L475.35,206.63L476.98,209.7L478.6,210.64L480.23,210.4L481.86,212.29L486.74,233.76L488.37,229.51L490,233.28L491.63,234.23L493.26,235.41L494.88,226.21L499.77,209.22L501.4,204.98L503.02,200.97L504.65,200.5L511.16,149.31L512.79,130.44L514.42,123.6L516.05,121.71L517.67,115.82L519.3,101.66L520.93,91.52L522.56,90.81L525.81,78.08L527.44,78.31L529.07,69.11L530.7,66.52L532.33,71.71L533.95,68.17L537.21,62.74L538.84,65.1L540.47,60.38L542.09,59.21L543.72,57.79L545.35,67.7L548.6,93.17L550.23,90.34L551.86,103.55L553.49,108.74L555.12,114.17L556.74,107.56L558.37,95.53L560,92.7L561.63,91.28L563.26,82.56L564.88,74.77L566.51,55.67L569.77,43.64L571.4,37.5L573.02,39.16L574.65,39.63L576.28,34.91L577.91,33.73L581.16,12.74L582.79,8.73L584.42,9.2L586.05,0L589.3,8.49L590.93,21.94L594.19,39.39L595.81,40.57L597.44,58.97L599.07,67.46L603.95,120.06L605.58,126.43L607.21,126.9L608.84,139.4L612.09,172.43L613.72,177.85L616.98,193.42L618.6,194.84L621.86,215.36L623.49,212.53L625.12,218.66L626.74,221.73L630,219.37L631.63,224.56L633.26,226.91L634.88,238.94L638.14,258.29L639.77,262.53L641.4,262.3L643.02,288.01L644.65,278.81L646.28,284.23L647.91,286.36L649.53,284L651.16,286.83L652.79,287.77L654.42,268.67L656.05,286.59L657.67,293.67L659.3,307.35L660.93,308.06L662.56,309.94L664.19,309.94L665.81,320.56L667.44,327.16L669.07,325.98L670.7,319.85L672.33,326.93" style="vector-effect: non-scaling-stroke; fill: none; stroke: rgb(8, 115, 191); stroke-opacity: 1; stroke-width: 0.5px; opacity: 1;"/></g><g class="points"/><g class="text"/></g><g class="trace scatter traceb4c806" style="stroke-miterlimit: 2;"><g class="fills"><g><path class="js-fill" d="M688.6,380L672.33,380L672.33,326.93L673.95,325.75L675.58,326.22L677.21,326.93L678.84,326.69L680.47,326.93L682.09,319.62L683.72,317.49L685.35,318.67L686.98,318.67L688.6,316.31" style="fill: rgb(8, 115, 191); fill-opacity: 0.4; stroke-width: 0;"/></g></g><g class="errorbars"/><g class="lines"><path class="js-line" d="M672.33,326.93L673.95,325.75L675.58,326.22L677.21,326.93L678.84,326.69L680.47,326.93L682.09,319.62L683.72,317.49L685.35,318.67L686.98,318.67L688.6,316.31" style="vector-effect: non-scaling-stroke; fill: none; stroke: rgb(8, 115, 191); stroke-opacity: 1; stroke-width: 2px; opacity: 1;"/></g><g class="points"/><g class="text"/></g><g class="trace scatter traceb3210c" style="stroke-miterlimit: 2; opacity: 1;"><g class="fills"/><g class="errorbars"/><g class="lines"/><g class="points"><path class="point" transform="translate(688.6,316.31)" d="M15,0A15,15 0 1,1 0,-15A15,15 0 0,1 15,0Z" style="opacity: 1; stroke-width: 0px; fill: rgb(8, 115, 191); fill-opacity: 1;"/></g><g class="text"/></g></g></g><g class="overplot"/><path class="xlines-above crisp" style="fill: none; stroke-width: 1px; stroke: rgb(0, 0, 0); stroke-opacity: 0;" d=""/><path class="ylines-above crisp" style="fill: none;" d="M0,0"/><g class="overlines-above"/><g class="xaxislayer-above"><path class="xtick ticks crisp" d="M0,450v-5" transform="translate(103.72,0)" style="stroke: rgb(68, 68, 68); stroke-opacity: 1; stroke-width: 1px;"/><path class="xtick ticks crisp" d="M0,450v-5" transform="translate(203.02,0)" style="stroke: rgb(68, 68, 68); stroke-opacity: 1; stroke-width: 1px;"/><path class="xtick ticks crisp" d="M0,450v-5" transform="translate(299.07,0)" style="stroke: rgb(68, 68, 68); stroke-opacity: 1; stroke-width: 1px;"/><path class="xtick ticks crisp" d="M0,450v-5" transform="translate(398.37,0)" style="stroke: rgb(68, 68, 68); stroke-opacity: 1; stroke-width: 1px;"/><path class="xtick ticks crisp" d="M0,450v-5" transform="translate(497.67,0)" style="stroke: rgb(68, 68, 68); stroke-opacity: 1; stroke-width: 1px;"/><path class="xtick ticks crisp" d="M0,450v-5" transform="translate(598.6,0)" style="stroke: rgb(68, 68, 68); stroke-opacity: 1; stroke-width: 1px;"/><path class="xtick ticks crisp" d="M0,450v-5" transform="translate(697.91,0)" style="stroke: rgb(68, 68, 68); stroke-opacity: 1; stroke-width: 1px;"/><g class="xtick"><text text-anchor="middle" x="0" y="469" transform="translate(103.72,0)" style="font-family: 'Open Sans', verdana, arial, sans-serif; font-size: 18px; fill: rgb(42, 63, 95); fill-opacity: 1; white-space: pre;">01/11</text></g><g class="xtick"><text text-anchor="middle" x="0" y="469" transform="translate(203.02,0)" style="font-family: 'Open Sans', verdana, arial, sans-serif; font-size: 18px; fill: rgb(42, 63, 95); fill-opacity: 1; white-space: pre;">01/01</text></g><g class="xtick"><text text-anchor="middle" x="0" y="469" transform="translate(299.07,0)" style="font-family: 'Open Sans', verdana, arial, sans-serif; font-size: 18px; fill: rgb(42, 63, 95); fill-opacity: 1; white-space: pre;">01/03</text></g><g class="xtick"><text text-anchor="middle" x="0" y="469" transform="translate(398.37,0)" style="font-family: 'Open Sans', verdana, arial, sans-serif; font-size: 18px; fill: rgb(42, 63, 95); fill-opacity: 1; white-space: pre;">01/05</text></g><g class="xtick"><text text-anchor="middle" x="0" y="469" transform="translate(497.67,0)" style="font-family: 'Open Sans', verdana, arial, sans-serif; font-size: 18px; fill: rgb(42, 63, 95); fill-opacity: 1; white-space: pre;">01/07</text></g><g class="xtick"><text text-anchor="middle" x="0" y="469" transform="translate(598.6,0)" style="font-family: 'Open Sans', verdana, arial, sans-serif; font-size: 18px; fill: rgb(42, 63, 95); fill-opacity: 1; white-space: pre;">01/09</text></g><g class="xtick"><text text-anchor="middle" x="0" y="469" transform="translate(697.91,0)" style="font-family: 'Open Sans', verdana, arial, sans-serif; font-size: 18px; fill: rgb(42, 63, 95); fill-opacity: 1; white-space: pre;">01/11</text></g></g><g class="yaxislayer-above"/><g class="overaxes-above"/></g></g><g class="polarlayer"/><g class="ternarylayer"/><g class="geolayer"/><g class="funnelarealayer"/><g class="pielayer"/><g class="treemaplayer"/><g class="sunburstlayer"/><g class="glimages"/><defs id="topdefs-2ee31d"><g class="clips"/></defs><g class="layer-above"><g class="imagelayer"/><g class="shapelayer"><path data-index="0" fill-rule="evenodd" d="M-864.88,415.72L325.12,415.72" clip-path="url('#clip2ee31dxy')" style="opacity: 1; stroke: rgb(255, 0, 0); stroke-opacity: 1; fill: rgb(0, 0, 0); fill-opacity: 0; stroke-dasharray: 3px, 3px; stroke-width: 1.5px;"/></g></g><g class="infolayer"><g class="g-gtitle"><text class="gtitle" x="375" y="25" text-anchor="middle" dy="0.7em" style="font-family: 'Open Sans', verdana, arial, sans-serif; font-size: 50px; fill: rgb(42, 63, 95); opacity: 1; font-weight: normal; white-space: pre;"><tspan style="font-weight:bold">Guyane (973)</tspan></text></g><g class="g-xtitle"/><g class="annotation" data-index="0" style="opacity: 1;"><g class="annotation-text-g" transform="rotate(0,696.6,326.31)"><g class="cursor-pointer" transform="translate(653, 290)"><rect class="bg" x="0.5" y="0.5" width="86" height="71" style="stroke-width: 1px; stroke: rgb(0, 0, 0); stroke-opacity: 0; fill: rgb(255, 255, 255); fill-opacity: 0.6;"/><text class="annotation-text" text-anchor="middle" x="43.53125" y="55.5" style="font-family: 'Open Sans', verdana, arial, sans-serif; font-size: 50px; fill: rgb(8, 115, 191); fill-opacity: 1; white-space: pre;"> <tspan style="font-weight:bold">92 </tspan></text></g></g><g class="annotation-arrow-g" style="opacity: 1;"><path d="M725,361.81L736.6,376.31" style="stroke-width: 1px; stroke: rgb(8, 115, 191); stroke-opacity: 1; stroke-dasharray: 0px, 0px, 18.569px, 18.569px;"/></g></g></g></svg>