<svg class="main-svg" xmlns="http://www.w3.org/2000/svg" xmlns:xlink="http://www.w3.org/1999/xlink" width="1125" height="750" style="" viewBox="0 0 750 500"><rect x="0" y="0" width="750" height="500" style="fill: rgb(0, 0, 0); fill-opacity: 0;"/><defs id="defs-5d7085"><g class="clips"><clipPath id="clip5d7085xyplot" class="plotclip"><rect width="700" height="380"/></clipPath><clipPath class="axesclip" id="clip5d7085x"><rect x="50" y="0" width="700" height="500"/></clipPath><clipPath class="axesclip" id="clip5d7085y"><rect x="0" y="70" width="750" height="380"/></clipPath><clipPath class="axesclip" id="clip5d7085xy"><rect x="50" y="70" width="700" height="380"/></clipPath></g><g class="gradients"/></defs><g class="bglayer"><rect class="bg" x="50" y="70" width="700" height="380" style="fill: rgb(0, 0, 0); fill-opacity: 0; stroke-width: 0;"/></g><g class="layer-below"><g class="imagelayer"/><g class="shapelayer"/></g><g class="cartesianlayer"><g class="subplot xy"><g class="layer-subplot"><g class="shapelayer"/><g class="imagelayer"/></g><g class="gridlayer"><g class="x"><path class="xgrid crisp" transform="translate(102.38,0)" d="M0,70v380" style="stroke: rgb(255, 255, 255); stroke-opacity: 1; stroke-width: 1px;"/><path class="xgrid crisp" transform="translate(199.21,0)" d="M0,70v380" style="stroke: rgb(255, 255, 255); stroke-opacity: 1; stroke-width: 1px;"/><path class="xgrid crisp" transform="translate(292.86,0)" d="M0,70v380" style="stroke: rgb(255, 255, 255); stroke-opacity: 1; stroke-width: 1px;"/><path class="xgrid crisp" transform="translate(389.68,0)" d="M0,70v380" style="stroke: rgb(255, 255, 255); stroke-opacity: 1; stroke-width: 1px;"/><path class="xgrid crisp" transform="translate(486.51,0)" d="M0,70v380" style="stroke: rgb(255, 255, 255); stroke-opacity: 1; stroke-width: 1px;"/><path class="xgrid crisp" transform="translate(584.92,0)" d="M0,70v380" style="stroke: rgb(255, 255, 255); stroke-opacity: 1; stroke-width: 1px;"/><path class="xgrid crisp" transform="translate(681.75,0)" d="M0,70v380" style="stroke: rgb(255, 255, 255); stroke-opacity: 1; stroke-width: 1px;"/></g><g class="y"/></g><g class="zerolinelayer"/><path class="xlines-below"/><path class="ylines-below"/><g class="overlines-below"/><g class="xaxislayer-below"/><g class="yaxislayer-below"/><g class="overaxes-below"/><g class="plot" transform="translate(50, 70)" clip-path="url('#clip5d7085xyplot')"><g class="scatterlayer mlayer"><g class="trace scatter trace089acd" style="stroke-miterlimit: 2;"><g class="fills"><g><path class="js-fill" d="M673.02,380L-215.87,380L-215.87,371.66L-204.76,374.9L-203.17,373.2L-196.83,373.97L-195.24,374.59L-188.89,376.91L-187.3,376.91L-161.9,378.3L-160.32,378.76L-139.68,378.61L-138.1,378.45L-122.22,378.76L-120.63,379.07L-103.17,377.68L-101.59,377.22L-96.83,376.6L-95.24,376.14L-90.48,374.44L-88.89,375.05L-74.6,376.6L-73.02,376.29L-65.08,372.12L-63.49,372.27L-55.56,367.33L-53.97,366.86L-49.21,365.78L-47.62,361.15L-42.86,349.56L-41.27,349.09L-34.92,334.1L-33.33,337.35L-30.16,337.04L-28.57,333.33L-23.81,319.73L-22.22,314.94L-19.05,314.32L-17.46,308.76L-15.87,300.72L-14.29,301.96L-12.7,301.81L-11.11,298.41L-7.94,298.71L-6.35,296.71L-4.76,304.9L-3.17,305.21L-1.59,305.36L0,303.2L1.59,301.81L3.17,301.5L4.76,298.71L6.35,293.77L11.11,281.87L12.7,280.02L14.29,280.17L15.87,275.53L17.46,269.82L19.05,267.5L20.63,265.34L22.22,265.49L26.98,258.38L28.57,247.72L31.75,221.29L33.33,205.69L34.92,196.57L36.51,197.34L42.86,128.42L44.44,126.41L46.03,120.54L47.62,117.76L49.21,104.47L50.79,101.22L52.38,105.86L53.97,118.99L55.56,117.45L57.14,117.91L58.73,117.6L60.32,133.98L61.9,153.61L63.49,190.39L65.08,193.32L66.67,198.73L68.25,209.08L69.84,212.18L73.02,240.3L74.6,226.7L77.78,253.59L79.37,261.63L80.95,260.85L82.54,269.82L85.71,290.06L87.3,291.3L88.89,299.64L90.48,298.1L93.65,300.11L95.24,298.25L96.83,299.18L98.41,303.35L100,305.21L101.59,305.21L103.17,303.35L104.76,304.12L107.94,295.32L109.52,293.77L111.11,284.19L112.7,282.8L114.29,284.81L115.87,280.48L119.05,266.26L120.63,256.22L123.81,251.12L125.4,249.88L126.98,247.41L128.57,239.68L130.16,231.65L131.75,239.06L133.33,263.17L134.92,261.16L136.51,262.09L138.1,259.77L139.68,255.75L141.27,258.85L142.86,252.51L144.44,251.27L146.03,237.52L147.62,235.05L149.21,220.83L150.79,223.46L152.38,218.2L153.97,217.12L155.56,185.9L157.14,191.62L158.73,192.24L160.32,181.58L161.9,182.35L163.49,182.04L165.08,166.9L166.67,161.8L168.25,165.51L169.84,163.65L171.43,169.52L173.02,164.58L174.6,159.79L176.19,165.51L177.78,163.81L179.37,160.1L182.54,158.09L184.13,166.9L187.3,186.52L188.89,182.2L190.48,178.18L192.06,177.71L196.83,144.64L198.41,140.32L200,147.89L201.59,149.28L203.17,153.14L204.76,169.68L206.35,176.63L207.94,177.41L209.52,183.12L211.11,185.6L212.7,190.7L214.29,187.91L215.87,187.3L217.46,184.36L219.05,182.2L220.63,162.72L222.22,157.63L223.81,148.51L225.4,147.73L226.98,138.62L230.16,127.65L231.75,131.2L233.33,125.64L234.92,125.64L236.51,125.95L238.1,122.85L239.68,126.1L241.27,132.44L246.03,155.93L247.62,157.63L250.79,165.35L252.38,161.95L253.97,153.76L255.56,141.09L257.14,134.91L258.73,132.75L261.9,93.03L263.49,84.22L266.67,60.73L268.25,57.64L269.84,57.8L271.43,39.1L274.6,18.54L276.19,14.22L279.37,3.09L280.95,0L282.54,9.12L284.13,24.73L287.3,15.76L288.89,9.58L292.06,12.05L293.65,69.85L295.24,64.29L296.83,75.41L298.41,83.91L300,107.56L301.59,110.18L303.17,110.65L304.76,70L306.35,88.7L307.94,91.02L309.52,101.84L311.11,104L312.7,108.95L314.29,109.26L315.87,115.9L317.46,113.89L319.05,122.85L322.22,138.62L323.81,137.84L325.4,141.55L326.98,137.23L330.16,153.3L331.75,157.01L333.33,166.74L334.92,188.69L336.51,183.59L338.1,200.89L339.68,204.76L341.27,211.87L342.86,216.5L344.44,218.2L346.03,216.5L347.62,220.06L349.21,222.84L350.79,228.56L352.38,224.23L353.97,248.18L355.56,247.25L357.14,243.39L358.73,245.25L360.32,255.14L361.9,252.82L363.49,257.61L365.08,241.85L366.67,252.2L368.25,252.05L369.84,254.21L371.43,274.45L373.02,279.86L374.6,281.72L376.19,285.58L377.78,287.12L379.37,290.52L380.95,289.6L382.54,279.71L387.3,311.85L388.89,321.12L392.06,327.15L393.65,338.28L395.24,341.37L396.83,346.47L401.59,352.18L403.17,352.18L404.76,353.42L406.35,356.51L407.94,357.13L409.52,358.67L411.11,362.54L412.7,360.53L414.29,360.37L415.87,363L417.46,363.31L419.05,362.23L422.22,357.75L423.81,357.75L425.4,357.75L426.98,354.81L428.57,352.96L430.16,353.11L431.75,355.12L433.33,353.88L434.92,352.8L436.51,352.8L439.68,348.78L441.27,346.47L444.44,343.99L446.03,345.54L447.62,344.46L449.21,340.28L450.79,338.28L452.38,343.38L460.32,331.48L461.9,331.94L465.08,318.8L466.67,316.33L468.25,313.24L469.84,315.56L471.43,317.72L473.02,316.18L474.6,313.86L476.19,318.34L479.37,322.36L480.95,321.9L484.13,314.48L485.71,313.24L488.89,305.21L490.48,305.05L492.06,306.44L493.65,306.6L495.24,309.53L496.83,310L501.59,309.53L503.17,304.59L504.76,303.97L506.35,300.88L509.52,308.61L511.11,310.77L512.7,308.91L514.29,311.23L517.46,315.87L519.05,311.08L522.22,314.01L523.81,317.72L526.98,319.73L528.57,324.52L531.75,332.71L533.33,337.04L534.92,339.98L536.51,341.06L538.1,346.78L539.68,348.94L544.44,352.8L546.03,352.49L547.62,352.18L549.21,356.51L550.79,357.75L552.38,360.99L553.97,358.83L555.56,360.37L558.73,361.3L560.32,360.07L561.9,359.14L563.49,359.29L565.08,361.61L566.67,361.61L569.84,362.38L571.43,361.61L574.6,363.77L576.19,363.16L579.37,365.01L580.95,364.55L582.54,365.47L584.13,365.01L587.3,361.92L588.89,361.61L590.48,359.14L592.06,359.91L593.65,358.52L595.24,359.14L598.41,361.3L600,360.22L601.59,361.3L603.17,360.99L604.76,361.15L606.35,358.83L607.94,356.67L609.52,357.75L612.7,354.97L614.29,355.12L617.46,357.75L619.05,360.07L620.63,357.75L622.22,357.59L625.4,356.51L626.98,358.52L628.57,354.04L630.16,352.49L631.75,351.87L633.33,350.17L634.92,346.62L636.51,346.47L638.1,339.82L639.68,341.21L641.27,338.12L642.86,342.14L644.44,334.72L646.03,333.33L647.62,333.33L649.21,324.21L652.38,306.91L653.97,287.74L657.14,272.91L658.73,272.6L666.67,206.61L668.25,198.11L669.84,195.95L671.43,181.11L673.02,175.55" style="fill: rgb(8, 115, 191); fill-opacity: 0.2; stroke-width: 0;"/></g></g><g class="errorbars"/><g class="lines"><path class="js-line" d="M-215.87,371.66L-204.76,374.9L-203.17,373.2L-196.83,373.97L-195.24,374.59L-188.89,376.91L-187.3,376.91L-161.9,378.3L-160.32,378.76L-139.68,378.61L-138.1,378.45L-122.22,378.76L-120.63,379.07L-103.17,377.68L-101.59,377.22L-96.83,376.6L-95.24,376.14L-90.48,374.44L-88.89,375.05L-74.6,376.6L-73.02,376.29L-65.08,372.12L-63.49,372.27L-55.56,367.33L-53.97,366.86L-49.21,365.78L-47.62,361.15L-42.86,349.56L-41.27,349.09L-34.92,334.1L-33.33,337.35L-30.16,337.04L-28.57,333.33L-23.81,319.73L-22.22,314.94L-19.05,314.32L-17.46,308.76L-15.87,300.72L-14.29,301.96L-12.7,301.81L-11.11,298.41L-7.94,298.71L-6.35,296.71L-4.76,304.9L-3.17,305.21L-1.59,305.36L0,303.2L1.59,301.81L3.17,301.5L4.76,298.71L6.35,293.77L11.11,281.87L12.7,280.02L14.29,280.17L15.87,275.53L17.46,269.82L19.05,267.5L20.63,265.34L22.22,265.49L26.98,258.38L28.57,247.72L31.75,221.29L33.33,205.69L34.92,196.57L36.51,197.34L42.86,128.42L44.44,126.41L46.03,120.54L47.62,117.76L49.21,104.47L50.79,101.22L52.38,105.86L53.97,118.99L55.56,117.45L57.14,117.91L58.73,117.6L60.32,133.98L61.9,153.61L63.49,190.39L65.08,193.32L66.67,198.73L68.25,209.08L69.84,212.18L73.02,240.3L74.6,226.7L77.78,253.59L79.37,261.63L80.95,260.85L82.54,269.82L85.71,290.06L87.3,291.3L88.89,299.64L90.48,298.1L93.65,300.11L95.24,298.25L96.83,299.18L98.41,303.35L100,305.21L101.59,305.21L103.17,303.35L104.76,304.12L107.94,295.32L109.52,293.77L111.11,284.19L112.7,282.8L114.29,284.81L115.87,280.48L119.05,266.26L120.63,256.22L123.81,251.12L125.4,249.88L126.98,247.41L128.57,239.68L130.16,231.65L131.75,239.06L133.33,263.17L134.92,261.16L136.51,262.09L138.1,259.77L139.68,255.75L141.27,258.85L142.86,252.51L144.44,251.27L146.03,237.52L147.62,235.05L149.21,220.83L150.79,223.46L152.38,218.2L153.97,217.12L155.56,185.9L157.14,191.62L158.73,192.24L160.32,181.58L161.9,182.35L163.49,182.04L165.08,166.9L166.67,161.8L168.25,165.51L169.84,163.65L171.43,169.52L173.02,164.58L174.6,159.79L176.19,165.51L177.78,163.81L179.37,160.1L182.54,158.09L184.13,166.9L187.3,186.52L188.89,182.2L190.48,178.18L192.06,177.71L196.83,144.64L198.41,140.32L200,147.89L201.59,149.28L203.17,153.14L204.76,169.68L206.35,176.63L207.94,177.41L209.52,183.12L211.11,185.6L212.7,190.7L214.29,187.91L215.87,187.3L217.46,184.36L219.05,182.2L220.63,162.72L222.22,157.63L223.81,148.51L225.4,147.73L226.98,138.62L230.16,127.65L231.75,131.2L233.33,125.64L234.92,125.64L236.51,125.95L238.1,122.85L239.68,126.1L241.27,132.44L246.03,155.93L247.62,157.63L250.79,165.35L252.38,161.95L253.97,153.76L255.56,141.09L257.14,134.91L258.73,132.75L261.9,93.03L263.49,84.22L266.67,60.73L268.25,57.64L269.84,57.8L271.43,39.1L274.6,18.54L276.19,14.22L279.37,3.09L280.95,0L282.54,9.12L284.13,24.73L287.3,15.76L288.89,9.58L292.06,12.05L293.65,69.85L295.24,64.29L296.83,75.41L298.41,83.91L300,107.56L301.59,110.18L303.17,110.65L304.76,70L306.35,88.7L307.94,91.02L309.52,101.84L311.11,104L312.7,108.95L314.29,109.26L315.87,115.9L317.46,113.89L319.05,122.85L322.22,138.62L323.81,137.84L325.4,141.55L326.98,137.23L330.16,153.3L331.75,157.01L333.33,166.74L334.92,188.69L336.51,183.59L338.1,200.89L339.68,204.76L341.27,211.87L342.86,216.5L344.44,218.2L346.03,216.5L347.62,220.06L349.21,222.84L350.79,228.56L352.38,224.23L353.97,248.18L355.56,247.25L357.14,243.39L358.73,245.25L360.32,255.14L361.9,252.82L363.49,257.61L365.08,241.85L366.67,252.2L368.25,252.05L369.84,254.21L371.43,274.45L373.02,279.86L374.6,281.72L376.19,285.58L377.78,287.12L379.37,290.52L380.95,289.6L382.54,279.71L387.3,311.85L388.89,321.12L392.06,327.15L393.65,338.28L395.24,341.37L396.83,346.47L401.59,352.18L403.17,352.18L404.76,353.42L406.35,356.51L407.94,357.13L409.52,358.67L411.11,362.54L412.7,360.53L414.29,360.37L415.87,363L417.46,363.31L419.05,362.23L422.22,357.75L423.81,357.75L425.4,357.75L426.98,354.81L428.57,352.96L430.16,353.11L431.75,355.12L433.33,353.88L434.92,352.8L436.51,352.8L439.68,348.78L441.27,346.47L444.44,343.99L446.03,345.54L447.62,344.46L449.21,340.28L450.79,338.28L452.38,343.38L460.32,331.48L461.9,331.94L465.08,318.8L466.67,316.33L468.25,313.24L469.84,315.56L471.43,317.72L473.02,316.18L474.6,313.86L476.19,318.34L479.37,322.36L480.95,321.9L484.13,314.48L485.71,313.24L488.89,305.21L490.48,305.05L492.06,306.44L493.65,306.6L495.24,309.53L496.83,310L501.59,309.53L503.17,304.59L504.76,303.97L506.35,300.88L509.52,308.61L511.11,310.77L512.7,308.91L514.29,311.23L517.46,315.87L519.05,311.08L522.22,314.01L523.81,317.72L526.98,319.73L528.57,324.52L531.75,332.71L533.33,337.04L534.92,339.98L536.51,341.06L538.1,346.78L539.68,348.94L544.44,352.8L546.03,352.49L547.62,352.18L549.21,356.51L550.79,357.75L552.38,360.99L553.97,358.83L555.56,360.37L558.73,361.3L560.32,360.07L561.9,359.14L563.49,359.29L565.08,361.61L566.67,361.61L569.84,362.38L571.43,361.61L574.6,363.77L576.19,363.16L579.37,365.01L580.95,364.55L582.54,365.47L584.13,365.01L587.3,361.92L588.89,361.61L590.48,359.14L592.06,359.91L593.65,358.52L595.24,359.14L598.41,361.3L600,360.22L601.59,361.3L603.17,360.99L604.76,361.15L606.35,358.83L607.94,356.67L609.52,357.75L612.7,354.97L614.29,355.12L617.46,357.75L619.05,360.07L620.63,357.75L622.22,357.59L625.4,356.51L626.98,358.52L628.57,354.04L630.16,352.49L631.75,351.87L633.33,350.17L634.92,346.62L636.51,346.47L638.1,339.82L639.68,341.21L641.27,338.12L642.86,342.14L644.44,334.72L646.03,333.33L647.62,333.33L649.21,324.21L652.38,306.91L653.97,287.74L657.14,272.91L658.73,272.6L666.67,206.61L668.25,198.11L669.84,195.95L671.43,181.11L673.02,175.55" style="vector-effect: non-scaling-stroke; fill: none; stroke: rgb(8, 115, 191); stroke-opacity: 1; stroke-width: 0.5px; opacity: 1;"/></g><g class="points"/><g class="text"/></g><g class="trace scatter tracee89339" style="stroke-miterlimit: 2;"><g class="fills"><g><path class="js-fill" d="M688.89,380L673.02,380L673.02,175.55L674.6,162.57L676.19,156.08L679.37,139.85L680.95,135.53L684.13,102.46L685.71,99.21L687.3,97.2L688.89,91.79" style="fill: rgb(8, 115, 191); fill-opacity: 0.4; stroke-width: 0;"/></g></g><g class="errorbars"/><g class="lines"><path class="js-line" d="M673.02,175.55L674.6,162.57L676.19,156.08L679.37,139.85L680.95,135.53L684.13,102.46L685.71,99.21L687.3,97.2L688.89,91.79" style="vector-effect: non-scaling-stroke; fill: none; stroke: rgb(8, 115, 191); stroke-opacity: 1; stroke-width: 2px; opacity: 1;"/></g><g class="points"/><g class="text"/></g><g class="trace scatter trace90290a" style="stroke-miterlimit: 2; opacity: 1;"><g class="fills"/><g class="errorbars"/><g class="lines"/><g class="points"><path class="point" transform="translate(688.89,91.79)" d="M15,0A15,15 0 1,1 0,-15A15,15 0 0,1 15,0Z" style="opacity: 1; stroke-width: 0px; fill: rgb(8, 115, 191); fill-opacity: 1;"/></g><g class="text"/></g></g></g><g class="overplot"/><path class="xlines-above crisp" style="fill: none; stroke-width: 1px; stroke: rgb(0, 0, 0); stroke-opacity: 0;" d=""/><path class="ylines-above crisp" style="fill: none;" d="M0,0"/><g class="overlines-above"/><g class="xaxislayer-above"><path class="xtick ticks crisp" d="M0,450v-5" transform="translate(102.38,0)" style="stroke: rgb(68, 68, 68); stroke-opacity: 1; stroke-width: 1px;"/><path class="xtick ticks crisp" d="M0,450v-5" transform="translate(199.21,0)" style="stroke: rgb(68, 68, 68); stroke-opacity: 1; stroke-width: 1px;"/><path class="xtick ticks crisp" d="M0,450v-5" transform="translate(292.86,0)" style="stroke: rgb(68, 68, 68); stroke-opacity: 1; stroke-width: 1px;"/><path class="xtick ticks crisp" d="M0,450v-5" transform="translate(389.68,0)" style="stroke: rgb(68, 68, 68); stroke-opacity: 1; stroke-width: 1px;"/><path class="xtick ticks crisp" d="M0,450v-5" transform="translate(486.51,0)" style="stroke: rgb(68, 68, 68); stroke-opacity: 1; stroke-width: 1px;"/><path class="xtick ticks crisp" d="M0,450v-5" transform="translate(584.92,0)" style="stroke: rgb(68, 68, 68); stroke-opacity: 1; stroke-width: 1px;"/><path class="xtick ticks crisp" d="M0,450v-5" transform="translate(681.75,0)" style="stroke: rgb(68, 68, 68); stroke-opacity: 1; stroke-width: 1px;"/><g class="xtick"><text text-anchor="middle" x="0" y="469" transform="translate(102.38,0)" style="font-family: 'Open Sans', verdana, arial, sans-serif; font-size: 18px; fill: rgb(42, 63, 95); fill-opacity: 1; white-space: pre;">01/11</text></g><g class="xtick"><text text-anchor="middle" x="0" y="469" transform="translate(199.21,0)" style="font-family: 'Open Sans', verdana, arial, sans-serif; font-size: 18px; fill: rgb(42, 63, 95); fill-opacity: 1; white-space: pre;">01/01</text></g><g class="xtick"><text text-anchor="middle" x="0" y="469" transform="translate(292.86,0)" style="font-family: 'Open Sans', verdana, arial, sans-serif; font-size: 18px; fill: rgb(42, 63, 95); fill-opacity: 1; white-space: pre;">01/03</text></g><g class="xtick"><text text-anchor="middle" x="0" y="469" transform="translate(389.68,0)" style="font-family: 'Open Sans', verdana, arial, sans-serif; font-size: 18px; fill: rgb(42, 63, 95); fill-opacity: 1; white-space: pre;">01/05</text></g><g class="xtick"><text text-anchor="middle" x="0" y="469" transform="translate(486.51,0)" style="font-family: 'Open Sans', verdana, arial, sans-serif; font-size: 18px; fill: rgb(42, 63, 95); fill-opacity: 1; white-space: pre;">01/07</text></g><g class="xtick"><text text-anchor="middle" x="0" y="469" transform="translate(584.92,0)" style="font-family: 'Open Sans', verdana, arial, sans-serif; font-size: 18px; fill: rgb(42, 63, 95); fill-opacity: 1; white-space: pre;">01/09</text></g><g class="xtick"><text text-anchor="middle" x="0" y="469" transform="translate(681.75,0)" style="font-family: 'Open Sans', verdana, arial, sans-serif; font-size: 18px; fill: rgb(42, 63, 95); fill-opacity: 1; white-space: pre;">01/11</text></g></g><g class="yaxislayer-above"/><g class="overaxes-above"/></g></g><g class="polarlayer"/><g class="ternarylayer"/><g class="geolayer"/><g class="funnelarealayer"/><g class="pielayer"/><g class="treemaplayer"/><g class="sunburstlayer"/><g class="glimages"/><defs id="topdefs-5d7085"><g class="clips"/></defs><g class="layer-above"><g class="imagelayer"/><g class="shapelayer"><path data-index="0" fill-rule="evenodd" d="M-842.06,405.98L318.25,405.98" clip-path="url('#clip5d7085xy')" style="opacity: 1; stroke: rgb(255, 0, 0); stroke-opacity: 1; fill: rgb(0, 0, 0); fill-opacity: 0; stroke-dasharray: 3px, 3px; stroke-width: 1.5px;"/></g></g><g class="infolayer"><g class="g-gtitle"><text class="gtitle" x="375" y="25" text-anchor="middle" dy="0.7em" style="font-family: 'Open Sans', verdana, arial, sans-serif; font-size: 50px; fill: rgb(42, 63, 95); opacity: 1; font-weight: normal; white-space: pre;"><tspan style="font-weight:bold">Somme (80)</tspan></text></g><g class="g-xtitle"/><g class="annotation" data-index="0" style="opacity: 1;"><g class="annotation-text-g" transform="rotate(0,696.89,101.79000000000002)"><g class="cursor-pointer" transform="translate(639, 66)"><rect class="bg" x="0.5" y="0.5" width="115" height="71" style="stroke-width: 1px; stroke: rgb(0, 0, 0); stroke-opacity: 0; fill: rgb(255, 255, 255); fill-opacity: 0.6;"/><text class="annotation-text" text-anchor="middle" x="57.8125" y="55.5" style="font-family: 'Open Sans', verdana, arial, sans-serif; font-size: 50px; fill: rgb(8, 115, 191); fill-opacity: 1; white-space: pre;"> <tspan style="font-weight:bold">327 </tspan></text></g></g><g class="annotation-arrow-g" style="opacity: 1;"><path d="M725.29,137.29000000000002L736.89,151.79000000000002" style="stroke-width: 1px; stroke: rgb(8, 115, 191); stroke-opacity: 1; stroke-dasharray: 0px, 0px, 18.5691px, 18.5691px;"/></g></g></g></svg>