<svg class="main-svg" xmlns="http://www.w3.org/2000/svg" xmlns:xlink="http://www.w3.org/1999/xlink" width="1125" height="750" style="" viewBox="0 0 750 500"><rect x="0" y="0" width="750" height="500" style="fill: rgb(0, 0, 0); fill-opacity: 0;"/><defs id="defs-e611b0"><g class="clips"><clipPath id="clipe611b0xyplot" class="plotclip"><rect width="678" height="380"/></clipPath><clipPath class="axesclip" id="clipe611b0x"><rect x="50" y="0" width="678" height="500"/></clipPath><clipPath class="axesclip" id="clipe611b0y"><rect x="0" y="70" width="750" height="380"/></clipPath><clipPath class="axesclip" id="clipe611b0xy"><rect x="50" y="70" width="678" height="380"/></clipPath></g><g class="gradients"/></defs><g class="bglayer"><rect class="bg" x="50" y="70" width="678" height="380" style="fill: rgb(0, 0, 0); fill-opacity: 0; stroke-width: 0;"/></g><g class="layer-below"><g class="imagelayer"/><g class="shapelayer"/></g><g class="cartesianlayer"><g class="subplot xy"><g class="layer-subplot"><g class="shapelayer"/><g class="imagelayer"/></g><g class="gridlayer"><g class="x"><path class="xgrid crisp" transform="translate(106.08,0)" d="M0,70v380" style="stroke: rgb(255, 255, 255); stroke-opacity: 1; stroke-width: 1px;"/><path class="xgrid crisp" transform="translate(209.73,0)" d="M0,70v380" style="stroke: rgb(255, 255, 255); stroke-opacity: 1; stroke-width: 1px;"/><path class="xgrid crisp" transform="translate(309.98,0)" d="M0,70v380" style="stroke: rgb(255, 255, 255); stroke-opacity: 1; stroke-width: 1px;"/><path class="xgrid crisp" transform="translate(413.64,0)" d="M0,70v380" style="stroke: rgb(255, 255, 255); stroke-opacity: 1; stroke-width: 1px;"/><path class="xgrid crisp" transform="translate(517.29,0)" d="M0,70v380" style="stroke: rgb(255, 255, 255); stroke-opacity: 1; stroke-width: 1px;"/><path class="xgrid crisp" transform="translate(622.65,0)" d="M0,70v380" style="stroke: rgb(255, 255, 255); stroke-opacity: 1; stroke-width: 1px;"/><path class="xgrid crisp" transform="translate(726.3,0)" d="M0,70v380" style="stroke: rgb(255, 255, 255); stroke-opacity: 1; stroke-width: 1px;"/></g><g class="y"/></g><g class="zerolinelayer"/><path class="xlines-below"/><path class="ylines-below"/><g class="overlines-below"/><g class="xaxislayer-below"/><g class="yaxislayer-below"/><g class="overaxes-below"/><g class="plot" transform="translate(50, 70)" clip-path="url('#clipe611b0xyplot')"><g class="scatterlayer mlayer"><g class="trace scatter trace83c227" style="stroke-miterlimit: 2;"><g class="fills"><g><path class="js-fill" d="M649.11,380L-231.1,380L-231.1,370.46L-227.7,370.96L-226,372.46L-209.01,375L-207.31,375.71L-202.21,376.42L-200.51,376.21L-186.92,377.58L-185.22,378L-173.32,376.34L-171.62,376.63L-147.83,375.38L-146.14,375.5L-141.04,374.09L-139.34,374.25L-127.44,373.38L-125.74,372.26L-120.65,370.01L-118.95,369.63L-108.75,366.43L-107.05,364.93L-93.46,357.43L-91.76,357.31L-88.36,354.1L-86.66,353.35L-81.56,350.64L-79.86,350.39L-76.47,346.15L-74.77,342.11L-71.37,335.15L-69.67,332.24L-67.97,331.12L-66.27,326.37L-59.47,305.88L-57.77,305.88L-56.08,305.13L-54.38,297.64L-45.88,285.27L-44.18,286.02L-37.38,271.99L-35.68,269.03L-32.29,270.57L-30.59,265.74L-23.79,251.96L-22.09,248.5L-20.39,247.63L-18.69,245.63L-15.29,240.43L-13.59,241.67L-11.89,243.09L-10.2,243.17L-5.1,245.13L-3.4,243.09L-1.7,238.38L0,230.39L1.7,223.73L3.4,222.35L10.2,169.51L11.89,158.52L15.29,154.86L16.99,140.78L18.69,131.41L20.39,126.29L23.79,108.72L25.49,105.85L27.19,104.81L28.89,97.77L32.29,73.08L33.98,56.17L37.38,30.94L39.08,30.56L40.78,9.54L42.48,0L44.18,1.08L45.88,6.25L49.28,17.11L50.98,16.95L54.38,54.55L56.08,73.66L59.47,121.59L61.17,133.12L62.87,136.2L64.57,169.47L66.27,189.79L67.97,225.89L69.67,233.89L71.37,246.05L73.07,250.54L74.77,252.17L78.17,278.48L79.86,267.74L83.26,292.68L84.96,294.85L86.66,294.56L88.36,302.43L90.06,307.88L91.76,309.92L93.46,310L95.16,311.42L100.26,316.71L101.95,316.96L105.35,323.79L107.05,324L110.45,323.7L112.15,321.91L113.85,322.87L115.55,321.29L120.65,315.42L122.35,315.04L125.74,305.26L127.44,303.76L129.14,302.34L130.84,299.89L134.24,297.39L135.94,297.47L137.64,296.06L139.34,292.72L141.04,292.14L142.74,305.88L144.44,304.72L146.14,305.3L147.83,302.68L149.53,303.26L151.23,303.43L152.93,302.38L154.63,301.39L156.33,298.18L158.03,296.64L159.73,291.47L161.43,285.9L163.13,283.44L164.83,278.69L166.53,263.16L169.92,265.53L171.62,264.58L173.32,264.74L175.02,260.7L176.72,259.33L178.42,255.62L181.82,255.17L183.52,253.13L185.22,253.33L186.92,254.42L192.02,252.17L193.71,251.92L195.41,251.38L197.11,247.42L198.81,245.55L200.51,241.01L202.21,237.01L203.91,236.14L205.61,236.05L207.31,232.72L210.71,233.72L212.41,236.09L214.11,237.47L215.8,236.26L217.5,235.8L219.2,239.13L220.9,239.47L222.6,240.76L229.4,247.13L231.1,250.54L232.8,252.88L234.5,248.09L237.89,240.18L239.59,238.43L241.29,237.09L242.99,226.27L244.69,221.1L246.39,221.85L249.79,220.69L251.49,217.15L253.19,216.94L254.89,217.94L256.59,216.61L258.29,213.36L259.98,212.19L261.68,210.03L265.08,209.61L266.78,203.91L270.18,191.71L271.88,180.8L275.28,167.14L276.98,164.1L280.38,128.08L282.08,116.17L287.17,90.65L288.87,90.52L293.97,66.33L295.67,59.38L299.07,41.85L300.77,43.1L302.47,37.1L304.17,37.52L305.86,40.56L307.56,40.93L310.96,54.38L312.66,53.26L314.36,117.09L316.06,101.35L317.76,97.64L319.46,98.98L322.86,96.56L324.56,96.94L326.26,45.14L327.95,71.04L333.05,107.1L334.75,112.38L336.45,114.51L338.15,125.33L341.55,140.66L343.25,143.41L346.65,151.9L348.35,151.57L356.84,189.71L358.54,208.95L360.24,208.4L361.94,213.69L367.04,224.1L368.74,230.31L370.44,229.35L372.14,231.18L375.53,245.3L377.23,248.05L378.93,266.53L380.63,267.07L382.33,260.7L384.03,260.87L385.73,271.74L387.43,276.61L389.13,282.4L390.83,271.53L392.53,281.15L394.23,284.1L395.92,285.15L397.62,302.47L399.32,302.26L401.02,304.13L402.72,308.09L404.42,309.01L407.82,309.46L409.52,299.26L411.22,309.09L412.92,314L414.62,316.42L416.32,322.2L418.02,325.83L419.71,326.66L423.11,335.82L424.81,339.28L426.51,343.61L428.21,345.86L429.91,347.77L431.61,348.52L435.01,354.52L436.71,357.35L441.8,361.76L443.5,361.43L445.2,363.68L446.9,364.55L450.3,364.93L452,365.55L457.1,365.43L458.8,364.88L462.2,362.1L463.89,359.47L467.29,357.97L468.99,353.39L472.39,346.31L474.09,343.82L479.19,339.69L480.89,335.82L482.59,331.03L484.29,334.53L489.38,309.01L491.08,307.05L494.48,287.14L496.18,268.24L501.28,254.46L502.98,253.92L504.68,248.75L506.38,247.71L509.77,246.96L511.47,248.17L514.87,248.63L516.57,248.59L518.27,247.3L519.97,250.96L523.37,252.96L525.07,254.25L526.77,253.5L528.47,254.71L531.86,259.7L533.56,259.7L535.26,258.91L536.96,259.45L540.36,260.87L542.06,263.83L543.76,264.87L545.46,267.66L547.16,272.28L548.86,273.86L550.56,274.03L552.26,278.44L553.95,276.61L555.65,276.11L557.35,279.19L559.05,279.94L564.15,281.98L565.85,284.98L569.25,286.15L570.95,288.85L574.35,289.93L576.05,294.1L579.44,303.93L581.14,306.34L584.54,310.67L586.24,311.92L587.94,315.33L589.64,316.33L593.04,321.5L594.74,323.41L596.44,325.16L598.14,325.24L601.53,332.57L603.23,333.16L604.93,335.07L606.63,334.74L608.33,336.7L610.03,337.49L613.43,338.4L615.13,339.11L616.83,338.9L618.53,340.48L623.62,339.24L625.32,338.94L630.42,340.32L632.12,339.98L633.82,339.61L635.52,340.36L638.92,339.94L640.62,338.24L645.71,339.9L647.41,339.69L649.11,339.69" style="fill: rgb(8, 115, 191); fill-opacity: 0.2; stroke-width: 0;"/></g></g><g class="errorbars"/><g class="lines"><path class="js-line" d="M-231.1,370.46L-227.7,370.96L-226,372.46L-209.01,375L-207.31,375.71L-202.21,376.42L-200.51,376.21L-186.92,377.58L-185.22,378L-173.32,376.34L-171.62,376.63L-147.83,375.38L-146.14,375.5L-141.04,374.09L-139.34,374.25L-127.44,373.38L-125.74,372.26L-120.65,370.01L-118.95,369.63L-108.75,366.43L-107.05,364.93L-93.46,357.43L-91.76,357.31L-88.36,354.1L-86.66,353.35L-81.56,350.64L-79.86,350.39L-76.47,346.15L-74.77,342.11L-71.37,335.15L-69.67,332.24L-67.97,331.12L-66.27,326.37L-59.47,305.88L-57.77,305.88L-56.08,305.13L-54.38,297.64L-45.88,285.27L-44.18,286.02L-37.38,271.99L-35.68,269.03L-32.29,270.57L-30.59,265.74L-23.79,251.96L-22.09,248.5L-20.39,247.63L-18.69,245.63L-15.29,240.43L-13.59,241.67L-11.89,243.09L-10.2,243.17L-5.1,245.13L-3.4,243.09L-1.7,238.38L0,230.39L1.7,223.73L3.4,222.35L10.2,169.51L11.89,158.52L15.29,154.86L16.99,140.78L18.69,131.41L20.39,126.29L23.79,108.72L25.49,105.85L27.19,104.81L28.89,97.77L32.29,73.08L33.98,56.17L37.38,30.94L39.08,30.56L40.78,9.54L42.48,0L44.18,1.08L45.88,6.25L49.28,17.11L50.98,16.95L54.38,54.55L56.08,73.66L59.47,121.59L61.17,133.12L62.87,136.2L64.57,169.47L66.27,189.79L67.97,225.89L69.67,233.89L71.37,246.05L73.07,250.54L74.77,252.17L78.17,278.48L79.86,267.74L83.26,292.68L84.96,294.85L86.66,294.56L88.36,302.43L90.06,307.88L91.76,309.92L93.46,310L95.16,311.42L100.26,316.71L101.95,316.96L105.35,323.79L107.05,324L110.45,323.7L112.15,321.91L113.85,322.87L115.55,321.29L120.65,315.42L122.35,315.04L125.74,305.26L127.44,303.76L129.14,302.34L130.84,299.89L134.24,297.39L135.94,297.47L137.64,296.06L139.34,292.72L141.04,292.14L142.74,305.88L144.44,304.72L146.14,305.3L147.83,302.68L149.53,303.26L151.23,303.43L152.93,302.38L154.63,301.39L156.33,298.18L158.03,296.64L159.73,291.47L161.43,285.9L163.13,283.44L164.83,278.69L166.53,263.16L169.92,265.53L171.62,264.58L173.32,264.74L175.02,260.7L176.72,259.33L178.42,255.62L181.82,255.17L183.52,253.13L185.22,253.33L186.92,254.42L192.02,252.17L193.71,251.92L195.41,251.38L197.11,247.42L198.81,245.55L200.51,241.01L202.21,237.01L203.91,236.14L205.61,236.05L207.31,232.72L210.71,233.72L212.41,236.09L214.11,237.47L215.8,236.26L217.5,235.8L219.2,239.13L220.9,239.47L222.6,240.76L229.4,247.13L231.1,250.54L232.8,252.88L234.5,248.09L237.89,240.18L239.59,238.43L241.29,237.09L242.99,226.27L244.69,221.1L246.39,221.85L249.79,220.69L251.49,217.15L253.19,216.94L254.89,217.94L256.59,216.61L258.29,213.36L259.98,212.19L261.68,210.03L265.08,209.61L266.78,203.91L270.18,191.71L271.88,180.8L275.28,167.14L276.98,164.1L280.38,128.08L282.08,116.17L287.17,90.65L288.87,90.52L293.97,66.33L295.67,59.38L299.07,41.85L300.77,43.1L302.47,37.1L304.17,37.52L305.86,40.56L307.56,40.93L310.96,54.38L312.66,53.26L314.36,117.09L316.06,101.35L317.76,97.64L319.46,98.98L322.86,96.56L324.56,96.94L326.26,45.14L327.95,71.04L333.05,107.1L334.75,112.38L336.45,114.51L338.15,125.33L341.55,140.66L343.25,143.41L346.65,151.9L348.35,151.57L356.84,189.71L358.54,208.95L360.24,208.4L361.94,213.69L367.04,224.1L368.74,230.31L370.44,229.35L372.14,231.18L375.53,245.3L377.23,248.05L378.93,266.53L380.63,267.07L382.33,260.7L384.03,260.87L385.73,271.74L387.43,276.61L389.13,282.4L390.83,271.53L392.53,281.15L394.23,284.1L395.92,285.15L397.62,302.47L399.32,302.26L401.02,304.13L402.72,308.09L404.42,309.01L407.82,309.46L409.52,299.26L411.22,309.09L412.92,314L414.62,316.42L416.32,322.2L418.02,325.83L419.71,326.66L423.11,335.82L424.81,339.28L426.51,343.61L428.21,345.86L429.91,347.77L431.61,348.52L435.01,354.52L436.71,357.35L441.8,361.76L443.5,361.43L445.2,363.68L446.9,364.55L450.3,364.93L452,365.55L457.1,365.43L458.8,364.88L462.2,362.1L463.89,359.47L467.29,357.97L468.99,353.39L472.39,346.31L474.09,343.82L479.19,339.69L480.89,335.82L482.59,331.03L484.29,334.53L489.38,309.01L491.08,307.05L494.48,287.14L496.18,268.24L501.28,254.46L502.98,253.92L504.68,248.75L506.38,247.71L509.77,246.96L511.47,248.17L514.87,248.63L516.57,248.59L518.27,247.3L519.97,250.96L523.37,252.96L525.07,254.25L526.77,253.5L528.47,254.71L531.86,259.7L533.56,259.7L535.26,258.91L536.96,259.45L540.36,260.87L542.06,263.83L543.76,264.87L545.46,267.66L547.16,272.28L548.86,273.86L550.56,274.03L552.26,278.44L553.95,276.61L555.65,276.11L557.35,279.19L559.05,279.94L564.15,281.98L565.85,284.98L569.25,286.15L570.95,288.85L574.35,289.93L576.05,294.1L579.44,303.93L581.14,306.34L584.54,310.67L586.24,311.92L587.94,315.33L589.64,316.33L593.04,321.5L594.74,323.41L596.44,325.16L598.14,325.24L601.53,332.57L603.23,333.16L604.93,335.07L606.63,334.74L608.33,336.7L610.03,337.49L613.43,338.4L615.13,339.11L616.83,338.9L618.53,340.48L623.62,339.24L625.32,338.94L630.42,340.32L632.12,339.98L633.82,339.61L635.52,340.36L638.92,339.94L640.62,338.24L645.71,339.9L647.41,339.69L649.11,339.69" style="vector-effect: non-scaling-stroke; fill: none; stroke: rgb(8, 115, 191); stroke-opacity: 1; stroke-width: 0.5px; opacity: 1;"/></g><g class="points"/><g class="text"/></g><g class="trace scatter trace460ff9" style="stroke-miterlimit: 2;"><g class="fills"><g><path class="js-fill" d="M666.11,380L649.11,380L649.11,339.69L650.81,338.99L652.51,340.32L654.21,339.03L655.91,338.74L662.71,338.78L664.41,337.53L666.11,336.36" style="fill: rgb(8, 115, 191); fill-opacity: 0.4; stroke-width: 0;"/></g></g><g class="errorbars"/><g class="lines"><path class="js-line" d="M649.11,339.69L650.81,338.99L652.51,340.32L654.21,339.03L655.91,338.74L662.71,338.78L664.41,337.53L666.11,336.36" style="vector-effect: non-scaling-stroke; fill: none; stroke: rgb(8, 115, 191); stroke-opacity: 1; stroke-width: 2px; opacity: 1;"/></g><g class="points"/><g class="text"/></g><g class="trace scatter tracefed61b" style="stroke-miterlimit: 2; opacity: 1;"><g class="fills"/><g class="errorbars"/><g class="lines"/><g class="points"><path class="point" transform="translate(666.11,336.36)" d="M15,0A15,15 0 1,1 0,-15A15,15 0 0,1 15,0Z" style="opacity: 1; stroke-width: 0px; fill: rgb(8, 115, 191); fill-opacity: 1;"/></g><g class="text"/></g></g></g><g class="overplot"/><path class="xlines-above crisp" style="fill: none; stroke-width: 1px; stroke: rgb(0, 0, 0); stroke-opacity: 0;" d=""/><path class="ylines-above crisp" style="fill: none;" d="M0,0"/><g class="overlines-above"/><g class="xaxislayer-above"><path class="xtick ticks crisp" d="M0,450v-5" transform="translate(106.08,0)" style="stroke: rgb(68, 68, 68); stroke-opacity: 1; stroke-width: 1px;"/><path class="xtick ticks crisp" d="M0,450v-5" transform="translate(209.73,0)" style="stroke: rgb(68, 68, 68); stroke-opacity: 1; stroke-width: 1px;"/><path class="xtick ticks crisp" d="M0,450v-5" transform="translate(309.98,0)" style="stroke: rgb(68, 68, 68); stroke-opacity: 1; stroke-width: 1px;"/><path class="xtick ticks crisp" d="M0,450v-5" transform="translate(413.64,0)" style="stroke: rgb(68, 68, 68); stroke-opacity: 1; stroke-width: 1px;"/><path class="xtick ticks crisp" d="M0,450v-5" transform="translate(517.29,0)" style="stroke: rgb(68, 68, 68); stroke-opacity: 1; stroke-width: 1px;"/><path class="xtick ticks crisp" d="M0,450v-5" transform="translate(622.65,0)" style="stroke: rgb(68, 68, 68); stroke-opacity: 1; stroke-width: 1px;"/><path class="xtick ticks crisp" d="M0,450v-5" transform="translate(726.3,0)" style="stroke: rgb(68, 68, 68); stroke-opacity: 1; stroke-width: 1px;"/><g class="xtick"><text text-anchor="middle" x="0" y="469" transform="translate(106.08,0)" style="font-family: 'Open Sans', verdana, arial, sans-serif; font-size: 18px; fill: rgb(42, 63, 95); fill-opacity: 1; white-space: pre;">01/11</text></g><g class="xtick"><text text-anchor="middle" x="0" y="469" transform="translate(209.73,0)" style="font-family: 'Open Sans', verdana, arial, sans-serif; font-size: 18px; fill: rgb(42, 63, 95); fill-opacity: 1; white-space: pre;">01/01</text></g><g class="xtick"><text text-anchor="middle" x="0" y="469" transform="translate(309.98,0)" style="font-family: 'Open Sans', verdana, arial, sans-serif; font-size: 18px; fill: rgb(42, 63, 95); fill-opacity: 1; white-space: pre;">01/03</text></g><g class="xtick"><text text-anchor="middle" x="0" y="469" transform="translate(413.64,0)" style="font-family: 'Open Sans', verdana, arial, sans-serif; font-size: 18px; fill: rgb(42, 63, 95); fill-opacity: 1; white-space: pre;">01/05</text></g><g class="xtick"><text text-anchor="middle" x="0" y="469" transform="translate(517.29,0)" style="font-family: 'Open Sans', verdana, arial, sans-serif; font-size: 18px; fill: rgb(42, 63, 95); fill-opacity: 1; white-space: pre;">01/07</text></g><g class="xtick"><text text-anchor="middle" x="0" y="469" transform="translate(622.65,0)" style="font-family: 'Open Sans', verdana, arial, sans-serif; font-size: 18px; fill: rgb(42, 63, 95); fill-opacity: 1; white-space: pre;">01/09</text></g><g class="xtick"><text text-anchor="middle" x="0" y="469" transform="translate(726.3,0)" style="font-family: 'Open Sans', verdana, arial, sans-serif; font-size: 18px; fill: rgb(42, 63, 95); fill-opacity: 1; white-space: pre;">01/11</text></g></g><g class="yaxislayer-above"/><g class="overaxes-above"/></g></g><g class="polarlayer"/><g class="ternarylayer"/><g class="geolayer"/><g class="funnelarealayer"/><g class="pielayer"/><g class="treemaplayer"/><g class="sunburstlayer"/><g class="glimages"/><defs id="topdefs-e611b0"><g class="clips"/></defs><g class="layer-above"><g class="imagelayer"/><g class="shapelayer"><path data-index="0" fill-rule="evenodd" d="M-904.98,416.4L337.17,416.4" clip-path="url('#clipe611b0xy')" style="opacity: 1; stroke: rgb(255, 0, 0); stroke-opacity: 1; fill: rgb(0, 0, 0); fill-opacity: 0; stroke-dasharray: 3px, 3px; stroke-width: 1.5px;"/></g></g><g class="infolayer"><g class="g-gtitle"><text class="gtitle" x="375" y="25" text-anchor="middle" dy="0.7em" style="font-family: 'Open Sans', verdana, arial, sans-serif; font-size: 50px; fill: rgb(42, 63, 95); opacity: 1; font-weight: normal; white-space: pre;"><tspan style="font-weight:bold">Hauts-de-Seine (92)</tspan></text></g><g class="g-xtitle"/><g class="annotation" data-index="0" style="opacity: 1;"><g class="annotation-text-g" transform="rotate(0,674.11,346.36)"><g class="cursor-pointer" transform="translate(631, 310)"><rect class="bg" x="0.5" y="0.5" width="86" height="71" style="stroke-width: 1px; stroke: rgb(0, 0, 0); stroke-opacity: 0; fill: rgb(255, 255, 255); fill-opacity: 0.6;"/><text class="annotation-text" text-anchor="middle" x="43.53125" y="55.5" style="font-family: 'Open Sans', verdana, arial, sans-serif; font-size: 50px; fill: rgb(8, 115, 191); fill-opacity: 1; white-space: pre;"> <tspan style="font-weight:bold">64 </tspan></text></g></g><g class="annotation-arrow-g" style="opacity: 1;"><path d="M702.51,381.86L714.11,396.36" style="stroke-width: 1px; stroke: rgb(8, 115, 191); stroke-opacity: 1; stroke-dasharray: 0px, 0px, 18.569px, 18.569px;"/></g></g></g></svg>