<svg class="main-svg" xmlns="http://www.w3.org/2000/svg" xmlns:xlink="http://www.w3.org/1999/xlink" width="1125" height="750" style="" viewBox="0 0 750 500"><rect x="0" y="0" width="750" height="500" style="fill: rgb(0, 0, 0); fill-opacity: 0;"/><defs id="defs-d9e64f"><g class="clips"><clipPath id="clipd9e64fxyplot" class="plotclip"><rect width="700" height="380"/></clipPath><clipPath class="axesclip" id="clipd9e64fx"><rect x="50" y="0" width="700" height="500"/></clipPath><clipPath class="axesclip" id="clipd9e64fy"><rect x="0" y="70" width="750" height="380"/></clipPath><clipPath class="axesclip" id="clipd9e64fxy"><rect x="50" y="70" width="700" height="380"/></clipPath></g><g class="gradients"/></defs><g class="bglayer"><rect class="bg" x="50" y="70" width="700" height="380" style="fill: rgb(0, 0, 0); fill-opacity: 0; stroke-width: 0;"/></g><g class="layer-below"><g class="imagelayer"/><g class="shapelayer"/></g><g class="cartesianlayer"><g class="subplot xy"><g class="layer-subplot"><g class="shapelayer"/><g class="imagelayer"/></g><g class="gridlayer"><g class="x"><path class="xgrid crisp" transform="translate(52.24,0)" d="M0,70v380" style="stroke: rgb(255, 255, 255); stroke-opacity: 1; stroke-width: 1px;"/><path class="xgrid crisp" transform="translate(155.28,0)" d="M0,70v380" style="stroke: rgb(255, 255, 255); stroke-opacity: 1; stroke-width: 1px;"/><path class="xgrid crisp" transform="translate(256.08000000000004,0)" d="M0,70v380" style="stroke: rgb(255, 255, 255); stroke-opacity: 1; stroke-width: 1px;"/><path class="xgrid crisp" transform="translate(358,0)" d="M0,70v380" style="stroke: rgb(255, 255, 255); stroke-opacity: 1; stroke-width: 1px;"/><path class="xgrid crisp" transform="translate(461.04,0)" d="M0,70v380" style="stroke: rgb(255, 255, 255); stroke-opacity: 1; stroke-width: 1px;"/><path class="xgrid crisp" transform="translate(564.08,0)" d="M0,70v380" style="stroke: rgb(255, 255, 255); stroke-opacity: 1; stroke-width: 1px;"/><path class="xgrid crisp" transform="translate(664.88,0)" d="M0,70v380" style="stroke: rgb(255, 255, 255); stroke-opacity: 1; stroke-width: 1px;"/></g><g class="y"/></g><g class="zerolinelayer"/><path class="xlines-below"/><path class="ylines-below"/><g class="overlines-below"/><g class="xaxislayer-below"/><g class="yaxislayer-below"/><g class="overaxes-below"/><g class="plot" transform="translate(50, 70)" clip-path="url('#clipd9e64fxyplot')"><g class="scatterlayer mlayer"><g class="trace scatter traceeceb6d" style="stroke-miterlimit: 2;"><g class="fills"><g><path class="js-fill" d="M680.96,380L-152.32,380L-152.32,379.43L-98.56,379.79L-97.44,379.81L-51.52,378.7L-50.4,378.54L-38.08,375.69L-36.96,375.69L-32.48,374.28L-31.36,374.05L-22.4,373.34L-21.28,373.31L-19.04,372.11L-17.92,370.96L-11.2,371.68L-10.08,372.38L-2.24,373.45L-1.12,373.17L2.24,371.96L3.36,370.47L5.6,367.55L6.72,365.51L8.96,362.76L10.08,362.72L14.56,350.73L15.68,347.54L17.92,346L19.04,342.33L23.52,320.11L24.64,317.99L25.76,317.36L26.88,311.51L30.24,298.61L31.36,298.02L33.6,297.46L34.72,295.54L35.84,294.59L36.96,297.14L40.32,304.49L41.44,304.98L43.68,319L44.8,330.92L47.04,339.69L48.16,341.02L49.28,341.18L50.4,345.12L51.52,349.3L52.64,346.04L54.88,353.67L56,354.88L57.12,355.05L58.24,358.38L60.48,362.15L61.6,362.7L62.72,363.65L63.84,363.42L64.96,363.47L66.08,364.81L71.68,367.27L72.8,367.27L76.16,366.55L77.28,366.28L85.12,365.27L86.24,363.93L88.48,361.05L89.6,361.27L91.84,360.43L92.96,361.44L95.2,366L96.32,367.38L97.44,367.07L98.56,367.57L101.92,366.52L103.04,366.44L104.16,366.35L105.28,365.36L106.4,364.77L107.52,365.1L108.64,364.52L109.76,361.28L113.12,362.03L114.24,362.68L116.48,362.38L117.6,362.6L120.96,362.15L122.08,361.71L125.44,361.35L126.56,360.93L128.8,360.22L129.92,359.62L141.12,358.89L142.24,359.36L143.36,359.44L144.48,361.17L146.72,362.02L147.84,362.82L150.08,363.58L151.2,363.57L152.32,363.43L153.44,364.24L155.68,364.33L156.8,364.34L165.76,363.22L166.88,363.38L170.24,365.37L171.36,365.72L175.84,366.04L176.96,365.39L182.56,364.25L183.68,363.61L189.28,359.03L190.4,358.91L196,352.84L197.12,352.23L198.24,352.22L199.36,350.82L202.72,347.36L203.84,347.15L206.08,347L207.2,353.12L208.32,351.51L209.44,351.84L211.68,354.39L212.8,354.42L213.92,354.42L215.04,349.07L216.16,352.19L217.28,352.59L218.4,352.86L219.52,354.07L224,355.64L225.12,356.48L228.48,357.95L229.6,358.14L234.08,360.97L235.2,361.9L236.32,363.69L237.44,363.63L239.68,365.84L240.8,366.42L243.04,367.79L244.16,367.75L246.4,368.09L247.52,369.04L250.88,371.66L252,371.04L253.12,371.18L254.24,372.08L256.48,371.55L257.6,370.07L260.96,370.33L262.08,372.12L264.32,373.1L265.44,373.66L267.68,374.24L268.8,374.18L269.92,372.89L271.04,373.5L283.36,377.25L284.48,377.25L290.08,378.33L291.2,378.44L312.48,378.3L313.6,378.14L319.2,377.5L320.32,376.67L324.8,373.77L325.92,372.41L328.16,369.1L329.28,368.07L334.88,366.52L336,366.54L339.36,366.44L340.48,366.52L351.68,364.13L352.8,364.16L356.16,363.51L357.28,364.28L359.52,365.08L360.64,365.35L364,365.68L365.12,365.89L374.08,369.81L375.2,369.65L377.44,370.53L378.56,370.63L387.52,372.77L388.64,373.42L393.12,374.2L394.24,374.2L403.2,375.65L404.32,375.45L407.68,375.23L408.8,375.05L413.28,375.6L414.4,376.1L417.76,376.66L418.88,376.83L426.72,376.32L427.84,376.04L441.28,374.45L442.4,375.27L444.64,373.76L445.76,373.68L448,373.26L449.12,373.23L450.24,371.87L451.36,372.23L452.48,371.82L453.6,372.5L455.84,370.57L456.96,370.32L459.2,367.48L460.32,366.12L462.56,363.02L463.68,362.23L464.8,362.34L465.92,360.2L471.52,346.16L472.64,345.36L477.12,329.2L478.24,326.41L480.48,325.17L481.6,321.61L483.84,318.41L484.96,317.88L487.2,316.8L488.32,316.97L490.56,318.2L491.68,318.4L493.92,320.39L495.04,320.54L496.16,320.47L497.28,319.48L498.4,319.14L499.52,316.69L501.76,308.72L502.88,312.8L504,311.88L505.12,299.01L509.6,242.47L510.72,241.67L511.84,237.88L512.96,211.01L515.2,177.71L516.32,168.85L518.56,136.72L519.68,132.71L523.04,118.89L524.16,110.16L526.4,91.68L527.52,87.14L532,23.25L533.12,13.97L534.24,5.92L535.36,4.32L536.48,0L537.6,5.04L539.84,24.54L540.96,36.92L543.2,54.5L544.32,74.86L548.8,150.86L549.92,161.23L551.04,165.62L552.16,192.26L556.64,258.33L557.76,266.29L558.88,269.45L560,287.86L563.36,313.43L564.48,318.31L571.2,338.42L572.32,340.57L573.44,342.16L574.56,342.36L577.92,345.94L579.04,346.41L581.28,349.26L582.4,349.42L584.64,348.67L585.76,346.96L590.24,340.45L591.36,336.73L596.96,321.5L598.08,320.91L601.44,302.11L602.56,296.91L604.8,288.77L605.92,288.92L609.28,276.47L610.4,274.56L613.76,274.18L614.88,271.11L616,270.28L617.12,267.26L619.36,261.28L620.48,258.02L621.6,257.55L622.72,255.18L623.84,252.91L624.96,254.88L626.08,256.09L627.2,258.85L629.44,262.16L630.56,289.67L631.68,289.2L632.8,294.73L636.16,309.66L637.28,310.32L638.4,299.27L639.52,312.45L642.88,327.87L644,330.54L645.12,331L646.24,336.16L648.48,341.8L649.6,343.64L651.84,346.59L652.96,346.8L659.68,353.98L660.8,353.89L663.04,356.09L664.16,356.79L667.52,359.42L668.64,359.61L670.88,363.59L672,364.56L673.12,367.1L674.24,367.61L678.72,368.39L679.84,368.21L680.96,366.43" style="fill: rgb(8, 115, 191); fill-opacity: 0.2; stroke-width: 0;"/></g></g><g class="errorbars"/><g class="lines"><path class="js-line" d="M-152.32,379.43L-98.56,379.79L-97.44,379.81L-51.52,378.7L-50.4,378.54L-38.08,375.69L-36.96,375.69L-32.48,374.28L-31.36,374.05L-22.4,373.34L-21.28,373.31L-19.04,372.11L-17.92,370.96L-11.2,371.68L-10.08,372.38L-2.24,373.45L-1.12,373.17L2.24,371.96L3.36,370.47L5.6,367.55L6.72,365.51L8.96,362.76L10.08,362.72L14.56,350.73L15.68,347.54L17.92,346L19.04,342.33L23.52,320.11L24.64,317.99L25.76,317.36L26.88,311.51L30.24,298.61L31.36,298.02L33.6,297.46L34.72,295.54L35.84,294.59L36.96,297.14L40.32,304.49L41.44,304.98L43.68,319L44.8,330.92L47.04,339.69L48.16,341.02L49.28,341.18L50.4,345.12L51.52,349.3L52.64,346.04L54.88,353.67L56,354.88L57.12,355.05L58.24,358.38L60.48,362.15L61.6,362.7L62.72,363.65L63.84,363.42L64.96,363.47L66.08,364.81L71.68,367.27L72.8,367.27L76.16,366.55L77.28,366.28L85.12,365.27L86.24,363.93L88.48,361.05L89.6,361.27L91.84,360.43L92.96,361.44L95.2,366L96.32,367.38L97.44,367.07L98.56,367.57L101.92,366.52L103.04,366.44L104.16,366.35L105.28,365.36L106.4,364.77L107.52,365.1L108.64,364.52L109.76,361.28L113.12,362.03L114.24,362.68L116.48,362.38L117.6,362.6L120.96,362.15L122.08,361.71L125.44,361.35L126.56,360.93L128.8,360.22L129.92,359.62L141.12,358.89L142.24,359.36L143.36,359.44L144.48,361.17L146.72,362.02L147.84,362.82L150.08,363.58L151.2,363.57L152.32,363.43L153.44,364.24L155.68,364.33L156.8,364.34L165.76,363.22L166.88,363.38L170.24,365.37L171.36,365.72L175.84,366.04L176.96,365.39L182.56,364.25L183.68,363.61L189.28,359.03L190.4,358.91L196,352.84L197.12,352.23L198.24,352.22L199.36,350.82L202.72,347.36L203.84,347.15L206.08,347L207.2,353.12L208.32,351.51L209.44,351.84L211.68,354.39L212.8,354.42L213.92,354.42L215.04,349.07L216.16,352.19L217.28,352.59L218.4,352.86L219.52,354.07L224,355.64L225.12,356.48L228.48,357.95L229.6,358.14L234.08,360.97L235.2,361.9L236.32,363.69L237.44,363.63L239.68,365.84L240.8,366.42L243.04,367.79L244.16,367.75L246.4,368.09L247.52,369.04L250.88,371.66L252,371.04L253.12,371.18L254.24,372.08L256.48,371.55L257.6,370.07L260.96,370.33L262.08,372.12L264.32,373.1L265.44,373.66L267.68,374.24L268.8,374.18L269.92,372.89L271.04,373.5L283.36,377.25L284.48,377.25L290.08,378.33L291.2,378.44L312.48,378.3L313.6,378.14L319.2,377.5L320.32,376.67L324.8,373.77L325.92,372.41L328.16,369.1L329.28,368.07L334.88,366.52L336,366.54L339.36,366.44L340.48,366.52L351.68,364.13L352.8,364.16L356.16,363.51L357.28,364.28L359.52,365.08L360.64,365.35L364,365.68L365.12,365.89L374.08,369.81L375.2,369.65L377.44,370.53L378.56,370.63L387.52,372.77L388.64,373.42L393.12,374.2L394.24,374.2L403.2,375.65L404.32,375.45L407.68,375.23L408.8,375.05L413.28,375.6L414.4,376.1L417.76,376.66L418.88,376.83L426.72,376.32L427.84,376.04L441.28,374.45L442.4,375.27L444.64,373.76L445.76,373.68L448,373.26L449.12,373.23L450.24,371.87L451.36,372.23L452.48,371.82L453.6,372.5L455.84,370.57L456.96,370.32L459.2,367.48L460.32,366.12L462.56,363.02L463.68,362.23L464.8,362.34L465.92,360.2L471.52,346.16L472.64,345.36L477.12,329.2L478.24,326.41L480.48,325.17L481.6,321.61L483.84,318.41L484.96,317.88L487.2,316.8L488.32,316.97L490.56,318.2L491.68,318.4L493.92,320.39L495.04,320.54L496.16,320.47L497.28,319.48L498.4,319.14L499.52,316.69L501.76,308.72L502.88,312.8L504,311.88L505.12,299.01L509.6,242.47L510.72,241.67L511.84,237.88L512.96,211.01L515.2,177.71L516.32,168.85L518.56,136.72L519.68,132.71L523.04,118.89L524.16,110.16L526.4,91.68L527.52,87.14L532,23.25L533.12,13.97L534.24,5.92L535.36,4.32L536.48,0L537.6,5.04L539.84,24.54L540.96,36.92L543.2,54.5L544.32,74.86L548.8,150.86L549.92,161.23L551.04,165.62L552.16,192.26L556.64,258.33L557.76,266.29L558.88,269.45L560,287.86L563.36,313.43L564.48,318.31L571.2,338.42L572.32,340.57L573.44,342.16L574.56,342.36L577.92,345.94L579.04,346.41L581.28,349.26L582.4,349.42L584.64,348.67L585.76,346.96L590.24,340.45L591.36,336.73L596.96,321.5L598.08,320.91L601.44,302.11L602.56,296.91L604.8,288.77L605.92,288.92L609.28,276.47L610.4,274.56L613.76,274.18L614.88,271.11L616,270.28L617.12,267.26L619.36,261.28L620.48,258.02L621.6,257.55L622.72,255.18L623.84,252.91L624.96,254.88L626.08,256.09L627.2,258.85L629.44,262.16L630.56,289.67L631.68,289.2L632.8,294.73L636.16,309.66L637.28,310.32L638.4,299.27L639.52,312.45L642.88,327.87L644,330.54L645.12,331L646.24,336.16L648.48,341.8L649.6,343.64L651.84,346.59L652.96,346.8L659.68,353.98L660.8,353.89L663.04,356.09L664.16,356.79L667.52,359.42L668.64,359.61L670.88,363.59L672,364.56L673.12,367.1L674.24,367.61L678.72,368.39L679.84,368.21L680.96,366.43" style="vector-effect: non-scaling-stroke; fill: none; stroke: rgb(8, 115, 191); stroke-opacity: 1; stroke-width: 0.5px; opacity: 1;"/></g><g class="points"/><g class="text"/></g><g class="trace scatter trace0ab31d" style="stroke-miterlimit: 2;"><g class="fills"><g><path class="js-fill" d="M692.16,380L680.96,380L680.96,366.43L684.32,366.4L685.44,368.96L686.56,365.47L687.68,364.62L691.04,361.53L692.16,361.28" style="fill: rgb(8, 115, 191); fill-opacity: 0.4; stroke-width: 0;"/></g></g><g class="errorbars"/><g class="lines"><path class="js-line" d="M680.96,366.43L684.32,366.4L685.44,368.96L686.56,365.47L687.68,364.62L691.04,361.53L692.16,361.28" style="vector-effect: non-scaling-stroke; fill: none; stroke: rgb(8, 115, 191); stroke-opacity: 1; stroke-width: 2px; opacity: 1;"/></g><g class="points"/><g class="text"/></g><g class="trace scatter traceef289d" style="stroke-miterlimit: 2; opacity: 1;"><g class="fills"/><g class="errorbars"/><g class="lines"/><g class="points"><path class="point" transform="translate(692.16,361.28)" d="M15,0A15,15 0 1,1 0,-15A15,15 0 0,1 15,0Z" style="opacity: 1; stroke-width: 0px; fill: rgb(8, 115, 191); fill-opacity: 1;"/></g><g class="text"/></g></g></g><g class="overplot"/><path class="xlines-above crisp" style="fill: none; stroke-width: 1px; stroke: rgb(0, 0, 0); stroke-opacity: 0;" d=""/><path class="ylines-above crisp" style="fill: none;" d="M0,0"/><g class="overlines-above"/><g class="xaxislayer-above"><path class="xtick ticks crisp" d="M0,450v-5" transform="translate(52.24,0)" style="stroke: rgb(68, 68, 68); stroke-opacity: 1; stroke-width: 1px;"/><path class="xtick ticks crisp" d="M0,450v-5" transform="translate(155.28,0)" style="stroke: rgb(68, 68, 68); stroke-opacity: 1; stroke-width: 1px;"/><path class="xtick ticks crisp" d="M0,450v-5" transform="translate(256.08000000000004,0)" style="stroke: rgb(68, 68, 68); stroke-opacity: 1; stroke-width: 1px;"/><path class="xtick ticks crisp" d="M0,450v-5" transform="translate(358,0)" style="stroke: rgb(68, 68, 68); stroke-opacity: 1; stroke-width: 1px;"/><path class="xtick ticks crisp" d="M0,450v-5" transform="translate(461.04,0)" style="stroke: rgb(68, 68, 68); stroke-opacity: 1; stroke-width: 1px;"/><path class="xtick ticks crisp" d="M0,450v-5" transform="translate(564.08,0)" style="stroke: rgb(68, 68, 68); stroke-opacity: 1; stroke-width: 1px;"/><path class="xtick ticks crisp" d="M0,450v-5" transform="translate(664.88,0)" style="stroke: rgb(68, 68, 68); stroke-opacity: 1; stroke-width: 1px;"/><g class="xtick"><text text-anchor="middle" x="0" y="469" transform="translate(52.24,0)" style="font-family: 'Open Sans', verdana, arial, sans-serif; font-size: 18px; fill: rgb(42, 63, 95); fill-opacity: 1; white-space: pre;">01/10</text></g><g class="xtick"><text text-anchor="middle" x="0" y="469" transform="translate(155.28,0)" style="font-family: 'Open Sans', verdana, arial, sans-serif; font-size: 18px; fill: rgb(42, 63, 95); fill-opacity: 1; white-space: pre;">01/01</text></g><g class="xtick"><text text-anchor="middle" x="0" y="469" transform="translate(256.08000000000004,0)" style="font-family: 'Open Sans', verdana, arial, sans-serif; font-size: 18px; fill: rgb(42, 63, 95); fill-opacity: 1; white-space: pre;">01/04</text></g><g class="xtick"><text text-anchor="middle" x="0" y="469" transform="translate(358,0)" style="font-family: 'Open Sans', verdana, arial, sans-serif; font-size: 18px; fill: rgb(42, 63, 95); fill-opacity: 1; white-space: pre;">01/07</text></g><g class="xtick"><text text-anchor="middle" x="0" y="469" transform="translate(461.04,0)" style="font-family: 'Open Sans', verdana, arial, sans-serif; font-size: 18px; fill: rgb(42, 63, 95); fill-opacity: 1; white-space: pre;">01/10</text></g><g class="xtick"><text text-anchor="middle" x="0" y="469" transform="translate(564.08,0)" style="font-family: 'Open Sans', verdana, arial, sans-serif; font-size: 18px; fill: rgb(42, 63, 95); fill-opacity: 1; white-space: pre;">01/01</text></g><g class="xtick"><text text-anchor="middle" x="0" y="469" transform="translate(664.88,0)" style="font-family: 'Open Sans', verdana, arial, sans-serif; font-size: 18px; fill: rgb(42, 63, 95); fill-opacity: 1; white-space: pre;">01/04</text></g></g><g class="yaxislayer-above"/><g class="overaxes-above"/></g></g><g class="polarlayer"/><g class="ternarylayer"/><g class="geolayer"/><g class="funnelarealayer"/><g class="pielayer"/><g class="treemaplayer"/><g class="sunburstlayer"/><g class="glimages"/><defs id="topdefs-d9e64f"><g class="clips"/></defs><g class="layer-above"><g class="imagelayer"/><g class="shapelayer"><path data-index="0" fill-rule="evenodd" d="M-579.44,445.61L239.28,445.61" clip-path="url('#clipd9e64fxy')" style="opacity: 1; stroke: rgb(255, 0, 0); stroke-opacity: 1; fill: rgb(0, 0, 0); fill-opacity: 0; stroke-dasharray: 3px, 3px; stroke-width: 1.5px;"/></g></g><g class="infolayer"><g class="g-gtitle"><text class="gtitle" x="375" y="25" text-anchor="middle" dy="0.7em" style="font-family: 'Open Sans', verdana, arial, sans-serif; font-size: 50px; fill: rgb(42, 63, 95); opacity: 1; font-weight: normal; white-space: pre;"><tspan style="font-weight:bold">Ain (01)</tspan></text></g><g class="g-xtitle"/><g class="annotation" data-index="0" style="opacity: 1;"><g class="annotation-text-g" transform="rotate(0,700.16,371.28)"><g class="cursor-pointer" transform="translate(642, 335)"><rect class="bg" x="0.5" y="0.5" width="115" height="71" style="stroke-width: 1px; stroke: rgb(0, 0, 0); stroke-opacity: 0; fill: rgb(255, 255, 255); fill-opacity: 0.6;"/><text class="annotation-text" text-anchor="middle" x="57.8125" y="55.5" style="font-family: 'Open Sans', verdana, arial, sans-serif; font-size: 50px; fill: rgb(8, 115, 191); fill-opacity: 1; white-space: pre;"> <tspan style="font-weight:bold">213 </tspan></text></g></g><g class="annotation-arrow-g" style="opacity: 1;"><path d="M728.56,406.78L740.16,421.28" style="stroke-width: 1px; stroke: rgb(8, 115, 191); stroke-opacity: 1; stroke-dasharray: 0px, 0px, 18.569px, 18.569px;"/></g></g></g></svg>