<svg class="main-svg" xmlns="http://www.w3.org/2000/svg" xmlns:xlink="http://www.w3.org/1999/xlink" width="1125" height="750" style="" viewBox="0 0 750 500"><rect x="0" y="0" width="750" height="500" style="fill: rgb(0, 0, 0); fill-opacity: 0;"/><defs id="defs-08ee0c"><g class="clips"><clipPath id="clip08ee0cxyplot" class="plotclip"><rect width="692" height="380"/></clipPath><clipPath class="axesclip" id="clip08ee0cx"><rect x="50" y="0" width="692" height="500"/></clipPath><clipPath class="axesclip" id="clip08ee0cy"><rect x="0" y="70" width="750" height="380"/></clipPath><clipPath class="axesclip" id="clip08ee0cxy"><rect x="50" y="70" width="692" height="380"/></clipPath></g><g class="gradients"/></defs><g class="bglayer"><rect class="bg" x="50" y="70" width="692" height="380" style="fill: rgb(0, 0, 0); fill-opacity: 0; stroke-width: 0;"/></g><g class="layer-below"><g class="imagelayer"/><g class="shapelayer"/></g><g class="cartesianlayer"><g class="subplot xy"><g class="layer-subplot"><g class="shapelayer"/><g class="imagelayer"/></g><g class="gridlayer"><g class="x"><path class="xgrid crisp" transform="translate(106.11,0)" d="M0,70v380" style="stroke: rgb(255, 255, 255); stroke-opacity: 1; stroke-width: 1px;"/><path class="xgrid crisp" transform="translate(209.82,0)" d="M0,70v380" style="stroke: rgb(255, 255, 255); stroke-opacity: 1; stroke-width: 1px;"/><path class="xgrid crisp" transform="translate(310.14,0)" d="M0,70v380" style="stroke: rgb(255, 255, 255); stroke-opacity: 1; stroke-width: 1px;"/><path class="xgrid crisp" transform="translate(413.85,0)" d="M0,70v380" style="stroke: rgb(255, 255, 255); stroke-opacity: 1; stroke-width: 1px;"/><path class="xgrid crisp" transform="translate(517.5699999999999,0)" d="M0,70v380" style="stroke: rgb(255, 255, 255); stroke-opacity: 1; stroke-width: 1px;"/><path class="xgrid crisp" transform="translate(622.98,0)" d="M0,70v380" style="stroke: rgb(255, 255, 255); stroke-opacity: 1; stroke-width: 1px;"/><path class="xgrid crisp" transform="translate(726.7,0)" d="M0,70v380" style="stroke: rgb(255, 255, 255); stroke-opacity: 1; stroke-width: 1px;"/></g><g class="y"/></g><g class="zerolinelayer"/><path class="xlines-below"/><path class="ylines-below"/><g class="overlines-below"/><g class="xaxislayer-below"/><g class="yaxislayer-below"/><g class="overaxes-below"/><g class="plot" transform="translate(50, 70)" clip-path="url('#clip08ee0cxyplot')"><g class="scatterlayer mlayer"><g class="trace scatter tracecd8db9" style="stroke-miterlimit: 2;"><g class="fills"><g><path class="js-fill" d="M663.1,380L-231.23,380L-231.23,372.96L-226.13,371.52L-224.43,371.88L-205.73,372.24L-204.03,373.86L-200.63,373.86L-198.93,373.86L-197.23,372.24L-195.53,375.13L-188.73,377.11L-187.03,377.11L-181.93,377.29L-180.23,377.65L-173.43,376.57L-171.72,377.29L-164.92,378.19L-163.22,378.19L-151.32,378.01L-149.62,378.01L-122.42,376.93L-120.72,375.67L-108.82,376.75L-107.12,376.39L-86.71,375.31L-85.01,374.22L-68.01,370.25L-66.31,370.79L-61.21,369.89L-59.51,369.17L-56.11,368.09L-54.41,365.02L-51.01,360.14L-49.31,360.32L-45.91,358.52L-44.21,358.34L-39.11,354.73L-37.41,351.66L-35.71,353.1L-34,350.76L-28.9,351.12L-27.2,348.05L-23.8,342.45L-22.1,342.27L-20.4,341.73L-18.7,335.23L-17,333.24L-15.3,324.4L-13.6,324.22L-11.9,322.41L-8.5,323.32L-6.8,327.11L-5.1,328.73L-3.4,339.92L-1.7,337.94L0,337.22L1.7,332.7L3.4,332.88L5.1,325.3L6.8,321.87L10.2,309.05L11.9,302.19L13.6,298.58L15.3,297.86L17,284.86L18.7,277.82L20.4,265.19L22.1,260.13L23.8,254.72L25.5,252.19L27.2,251.65L28.9,242.08L34,177.27L35.71,146.22L37.41,128.89L39.11,126.91L42.51,62.64L44.21,29.79L47.61,6.14L49.31,7.94L51.01,7.76L52.71,5.24L54.41,0L56.11,9.75L57.81,15.16L59.51,17.87L61.21,18.77L62.91,20.76L64.61,37.19L66.31,63.72L68.01,124.74L69.71,134.31L73.11,168.61L74.81,167.34L76.51,190.81L78.21,201.1L79.91,181.43L81.61,209.77L83.31,234.86L85.01,242.44L86.71,244.07L88.41,265.01L91.81,288.29L93.51,294.97L95.21,297.5L96.91,298.22L98.61,298.04L100.31,298.95L103.71,308.15L105.42,310.14L107.12,308.33L108.82,310.14L110.52,310.14L112.22,313.21L115.62,313.03L117.32,303.64L119.02,302.92L120.72,299.67L122.42,299.31L124.12,292.81L127.52,279.27L129.22,283.06L130.92,283.42L132.62,282.34L137.72,282.52L139.42,280.35L141.12,286.13L142.82,299.85L144.52,299.67L146.22,297.5L153.02,278.19L154.72,278.73L156.42,265.91L158.12,267.17L161.52,245.87L163.22,244.25L164.92,235.76L166.62,213.38L168.32,224.39L170.02,223.49L171.72,229.81L173.43,229.44L175.13,215.18L176.83,212.48L180.23,201.82L181.93,202.73L183.63,194.06L185.33,192.26L187.03,196.23L188.73,194.24L190.43,192.26L192.13,189.01L195.53,182.51L197.23,184.86L200.63,199.84L202.33,199.48L204.03,199.48L205.73,202L207.43,209.59L209.13,212.11L210.83,212.84L212.53,207.78L215.93,222.22L217.63,219.7L222.73,231.79L224.43,233.96L226.13,239.37L227.83,241.72L229.53,243.16L231.23,250.57L232.93,248.94L234.63,240.28L236.33,237.57L238.03,229.99L239.73,224.93L241.43,224.93L244.84,213.38L246.54,220.24L249.94,227.1L251.64,222.04L253.34,222.76L255.04,224.93L260.14,229.81L261.84,227.1L263.54,234.5L265.24,233.42L268.64,237.03L270.34,236.48L273.74,226.56L275.44,217.17L277.14,215.72L278.84,207.78L282.24,198.39L283.94,187.02L285.64,175.11L287.34,171.32L289.04,171.5L290.74,161.57L292.44,149.29L294.14,130.52L295.84,118.96L297.54,93.87L299.24,81.05L300.94,77.44L304.34,40.44L306.04,28.88L307.74,17.87L309.44,21.66L311.14,27.08L312.85,29.97L314.55,85.39L316.25,73.29L321.35,86.29L323.05,80.87L324.75,79.61L326.45,26.9L328.15,45.13L329.85,50.19L334.95,76.18L336.65,77.44L338.35,83.94L340.05,95.5L343.45,111.92L345.15,115.17L346.85,118.42L348.55,119.69L350.25,132.86L351.95,140.09L355.35,166.44L357.05,185.4L358.75,203.63L360.45,203.45L363.85,224.75L365.55,228.9L367.25,236.67L368.95,238.65L370.65,239.19L372.35,241L375.75,248.76L377.45,252.73L379.15,268.44L380.86,266.27L382.56,258.87L384.26,256.88L387.66,265.55L389.36,265.73L391.06,254.36L392.76,264.1L394.46,268.62L396.16,270.24L397.86,289.02L399.56,287.75L401.26,289.02L402.96,287.75L404.66,291.72L406.36,292.27L408.06,294.43L409.76,285.23L413.16,304.36L414.86,311.58L418.26,323.14L419.96,323.5L421.66,332.52L423.36,336.67L425.06,339.38L426.76,346.78L430.16,352.92L431.86,353.1L436.96,365.74L438.66,367.36L440.36,371.88L442.06,372.96L445.46,374.22L447.16,374.76L450.57,373.5L452.27,371.7L455.67,370.97L457.37,371.88L462.47,373.14L464.17,373.68L467.57,371.52L469.27,366.64L472.67,356.53L474.37,348.77L476.07,342.09L477.77,339.02L479.47,338.3L481.17,333.43L482.87,324.4L484.57,324.4L487.97,299.31L489.67,290.82L491.37,288.66L493.07,276.74L494.77,272.95L496.47,252.37L498.17,258.69L499.87,252.55L503.27,247.5L504.97,236.48L506.67,229.44L508.37,233.24L510.07,226.01L511.77,228.72L513.47,228.72L515.17,230.53L516.87,230.17L518.57,232.87L521.98,241.36L523.68,242.98L525.38,247.14L527.08,247.32L528.78,251.11L530.48,244.07L535.58,234.32L537.28,232.51L538.98,232.69L540.68,230.53L542.38,233.96L544.08,230.89L549.18,241.9L550.88,241L554.28,252.01L555.98,261.04L557.68,265.55L559.38,264.65L561.08,265.01L562.78,266.63L564.48,273.67L566.18,275.84L567.88,276.74L569.58,279.09L571.28,285.95L572.98,289.56L574.68,289.38L576.38,295.88L583.18,322.95L584.88,322.59L586.58,323.5L588.29,329.45L589.99,335.59L591.69,337.58L593.39,337.58L595.09,341.73L596.79,345.16L598.49,345.7L600.19,345.16L601.89,346.42L605.29,351.12L606.99,350.76L608.69,352.38L610.39,352.56L612.09,353.28L613.79,352.02L615.49,353.1L617.19,351.84L618.89,350.21L620.59,351.84L622.29,352.2L623.99,354.91L625.69,354.37L627.39,349.49L629.09,349.13L630.79,346.96L632.49,342.27L634.19,342.27L637.59,332.16L639.29,331.44L640.99,325.12L642.69,315.19L644.39,312.12L646.09,310.86L647.79,300.21L649.49,294.43L652.89,277.1L654.59,274.03L656.29,270.06L658,270.42L659.7,263.92L661.4,265.01L663.1,264.83" style="fill: rgb(8, 115, 191); fill-opacity: 0.2; stroke-width: 0;"/></g></g><g class="errorbars"/><g class="lines"><path class="js-line" d="M-231.23,372.96L-226.13,371.52L-224.43,371.88L-205.73,372.24L-204.03,373.86L-200.63,373.86L-198.93,373.86L-197.23,372.24L-195.53,375.13L-188.73,377.11L-187.03,377.11L-181.93,377.29L-180.23,377.65L-173.43,376.57L-171.72,377.29L-164.92,378.19L-163.22,378.19L-151.32,378.01L-149.62,378.01L-122.42,376.93L-120.72,375.67L-108.82,376.75L-107.12,376.39L-86.71,375.31L-85.01,374.22L-68.01,370.25L-66.31,370.79L-61.21,369.89L-59.51,369.17L-56.11,368.09L-54.41,365.02L-51.01,360.14L-49.31,360.32L-45.91,358.52L-44.21,358.34L-39.11,354.73L-37.41,351.66L-35.71,353.1L-34,350.76L-28.9,351.12L-27.2,348.05L-23.8,342.45L-22.1,342.27L-20.4,341.73L-18.7,335.23L-17,333.24L-15.3,324.4L-13.6,324.22L-11.9,322.41L-8.5,323.32L-6.8,327.11L-5.1,328.73L-3.4,339.92L-1.7,337.94L0,337.22L1.7,332.7L3.4,332.88L5.1,325.3L6.8,321.87L10.2,309.05L11.9,302.19L13.6,298.58L15.3,297.86L17,284.86L18.7,277.82L20.4,265.19L22.1,260.13L23.8,254.72L25.5,252.19L27.2,251.65L28.9,242.08L34,177.27L35.71,146.22L37.41,128.89L39.11,126.91L42.51,62.64L44.21,29.79L47.61,6.14L49.31,7.94L51.01,7.76L52.71,5.24L54.41,0L56.11,9.75L57.81,15.16L59.51,17.87L61.21,18.77L62.91,20.76L64.61,37.19L66.31,63.72L68.01,124.74L69.71,134.31L73.11,168.61L74.81,167.34L76.51,190.81L78.21,201.1L79.91,181.43L81.61,209.77L83.31,234.86L85.01,242.44L86.71,244.07L88.41,265.01L91.81,288.29L93.51,294.97L95.21,297.5L96.91,298.22L98.61,298.04L100.31,298.95L103.71,308.15L105.42,310.14L107.12,308.33L108.82,310.14L110.52,310.14L112.22,313.21L115.62,313.03L117.32,303.64L119.02,302.92L120.72,299.67L122.42,299.31L124.12,292.81L127.52,279.27L129.22,283.06L130.92,283.42L132.62,282.34L137.72,282.52L139.42,280.35L141.12,286.13L142.82,299.85L144.52,299.67L146.22,297.5L153.02,278.19L154.72,278.73L156.42,265.91L158.12,267.17L161.52,245.87L163.22,244.25L164.92,235.76L166.62,213.38L168.32,224.39L170.02,223.49L171.72,229.81L173.43,229.44L175.13,215.18L176.83,212.48L180.23,201.82L181.93,202.73L183.63,194.06L185.33,192.26L187.03,196.23L188.73,194.24L190.43,192.26L192.13,189.01L195.53,182.51L197.23,184.86L200.63,199.84L202.33,199.48L204.03,199.48L205.73,202L207.43,209.59L209.13,212.11L210.83,212.84L212.53,207.78L215.93,222.22L217.63,219.7L222.73,231.79L224.43,233.96L226.13,239.37L227.83,241.72L229.53,243.16L231.23,250.57L232.93,248.94L234.63,240.28L236.33,237.57L238.03,229.99L239.73,224.93L241.43,224.93L244.84,213.38L246.54,220.24L249.94,227.1L251.64,222.04L253.34,222.76L255.04,224.93L260.14,229.81L261.84,227.1L263.54,234.5L265.24,233.42L268.64,237.03L270.34,236.48L273.74,226.56L275.44,217.17L277.14,215.72L278.84,207.78L282.24,198.39L283.94,187.02L285.64,175.11L287.34,171.32L289.04,171.5L290.74,161.57L292.44,149.29L294.14,130.52L295.84,118.96L297.54,93.87L299.24,81.05L300.94,77.44L304.34,40.44L306.04,28.88L307.74,17.87L309.44,21.66L311.14,27.08L312.85,29.97L314.55,85.39L316.25,73.29L321.35,86.29L323.05,80.87L324.75,79.61L326.45,26.9L328.15,45.13L329.85,50.19L334.95,76.18L336.65,77.44L338.35,83.94L340.05,95.5L343.45,111.92L345.15,115.17L346.85,118.42L348.55,119.69L350.25,132.86L351.95,140.09L355.35,166.44L357.05,185.4L358.75,203.63L360.45,203.45L363.85,224.75L365.55,228.9L367.25,236.67L368.95,238.65L370.65,239.19L372.35,241L375.75,248.76L377.45,252.73L379.15,268.44L380.86,266.27L382.56,258.87L384.26,256.88L387.66,265.55L389.36,265.73L391.06,254.36L392.76,264.1L394.46,268.62L396.16,270.24L397.86,289.02L399.56,287.75L401.26,289.02L402.96,287.75L404.66,291.72L406.36,292.27L408.06,294.43L409.76,285.23L413.16,304.36L414.86,311.58L418.26,323.14L419.96,323.5L421.66,332.52L423.36,336.67L425.06,339.38L426.76,346.78L430.16,352.92L431.86,353.1L436.96,365.74L438.66,367.36L440.36,371.88L442.06,372.96L445.46,374.22L447.16,374.76L450.57,373.5L452.27,371.7L455.67,370.97L457.37,371.88L462.47,373.14L464.17,373.68L467.57,371.52L469.27,366.64L472.67,356.53L474.37,348.77L476.07,342.09L477.77,339.02L479.47,338.3L481.17,333.43L482.87,324.4L484.57,324.4L487.97,299.31L489.67,290.82L491.37,288.66L493.07,276.74L494.77,272.95L496.47,252.37L498.17,258.69L499.87,252.55L503.27,247.5L504.97,236.48L506.67,229.44L508.37,233.24L510.07,226.01L511.77,228.72L513.47,228.72L515.17,230.53L516.87,230.17L518.57,232.87L521.98,241.36L523.68,242.98L525.38,247.14L527.08,247.32L528.78,251.11L530.48,244.07L535.58,234.32L537.28,232.51L538.98,232.69L540.68,230.53L542.38,233.96L544.08,230.89L549.18,241.9L550.88,241L554.28,252.01L555.98,261.04L557.68,265.55L559.38,264.65L561.08,265.01L562.78,266.63L564.48,273.67L566.18,275.84L567.88,276.74L569.58,279.09L571.28,285.95L572.98,289.56L574.68,289.38L576.38,295.88L583.18,322.95L584.88,322.59L586.58,323.5L588.29,329.45L589.99,335.59L591.69,337.58L593.39,337.58L595.09,341.73L596.79,345.16L598.49,345.7L600.19,345.16L601.89,346.42L605.29,351.12L606.99,350.76L608.69,352.38L610.39,352.56L612.09,353.28L613.79,352.02L615.49,353.1L617.19,351.84L618.89,350.21L620.59,351.84L622.29,352.2L623.99,354.91L625.69,354.37L627.39,349.49L629.09,349.13L630.79,346.96L632.49,342.27L634.19,342.27L637.59,332.16L639.29,331.44L640.99,325.12L642.69,315.19L644.39,312.12L646.09,310.86L647.79,300.21L649.49,294.43L652.89,277.1L654.59,274.03L656.29,270.06L658,270.42L659.7,263.92L661.4,265.01L663.1,264.83" style="vector-effect: non-scaling-stroke; fill: none; stroke: rgb(8, 115, 191); stroke-opacity: 1; stroke-width: 0.5px; opacity: 1;"/></g><g class="points"/><g class="text"/></g><g class="trace scatter trace3615b0" style="stroke-miterlimit: 2;"><g class="fills"><g><path class="js-fill" d="M680.1,380L663.1,380L663.1,264.83L664.8,268.44L666.5,266.09L669.9,260.49L671.6,283.6L673.3,269.52L675,265.01L676.7,257.43L678.4,255.98L680.1,254.72" style="fill: rgb(8, 115, 191); fill-opacity: 0.4; stroke-width: 0;"/></g></g><g class="errorbars"/><g class="lines"><path class="js-line" d="M663.1,264.83L664.8,268.44L666.5,266.09L669.9,260.49L671.6,283.6L673.3,269.52L675,265.01L676.7,257.43L678.4,255.98L680.1,254.72" style="vector-effect: non-scaling-stroke; fill: none; stroke: rgb(8, 115, 191); stroke-opacity: 1; stroke-width: 2px; opacity: 1;"/></g><g class="points"/><g class="text"/></g><g class="trace scatter trace9daf93" style="stroke-miterlimit: 2; opacity: 1;"><g class="fills"/><g class="errorbars"/><g class="lines"/><g class="points"><path class="point" transform="translate(680.1,254.72)" d="M15,0A15,15 0 1,1 0,-15A15,15 0 0,1 15,0Z" style="opacity: 1; stroke-width: 0px; fill: rgb(8, 115, 191); fill-opacity: 1;"/></g><g class="text"/></g></g></g><g class="overplot"/><path class="xlines-above crisp" style="fill: none; stroke-width: 1px; stroke: rgb(0, 0, 0); stroke-opacity: 0;" d=""/><path class="ylines-above crisp" style="fill: none;" d="M0,0"/><g class="overlines-above"/><g class="xaxislayer-above"><path class="xtick ticks crisp" d="M0,450v-5" transform="translate(106.11,0)" style="stroke: rgb(68, 68, 68); stroke-opacity: 1; stroke-width: 1px;"/><path class="xtick ticks crisp" d="M0,450v-5" transform="translate(209.82,0)" style="stroke: rgb(68, 68, 68); stroke-opacity: 1; stroke-width: 1px;"/><path class="xtick ticks crisp" d="M0,450v-5" transform="translate(310.14,0)" style="stroke: rgb(68, 68, 68); stroke-opacity: 1; stroke-width: 1px;"/><path class="xtick ticks crisp" d="M0,450v-5" transform="translate(413.85,0)" style="stroke: rgb(68, 68, 68); stroke-opacity: 1; stroke-width: 1px;"/><path class="xtick ticks crisp" d="M0,450v-5" transform="translate(517.5699999999999,0)" style="stroke: rgb(68, 68, 68); stroke-opacity: 1; stroke-width: 1px;"/><path class="xtick ticks crisp" d="M0,450v-5" transform="translate(622.98,0)" style="stroke: rgb(68, 68, 68); stroke-opacity: 1; stroke-width: 1px;"/><path class="xtick ticks crisp" d="M0,450v-5" transform="translate(726.7,0)" style="stroke: rgb(68, 68, 68); stroke-opacity: 1; stroke-width: 1px;"/><g class="xtick"><text text-anchor="middle" x="0" y="469" transform="translate(106.11,0)" style="font-family: 'Open Sans', verdana, arial, sans-serif; font-size: 18px; fill: rgb(42, 63, 95); fill-opacity: 1; white-space: pre;">01/11</text></g><g class="xtick"><text text-anchor="middle" x="0" y="469" transform="translate(209.82,0)" style="font-family: 'Open Sans', verdana, arial, sans-serif; font-size: 18px; fill: rgb(42, 63, 95); fill-opacity: 1; white-space: pre;">01/01</text></g><g class="xtick"><text text-anchor="middle" x="0" y="469" transform="translate(310.14,0)" style="font-family: 'Open Sans', verdana, arial, sans-serif; font-size: 18px; fill: rgb(42, 63, 95); fill-opacity: 1; white-space: pre;">01/03</text></g><g class="xtick"><text text-anchor="middle" x="0" y="469" transform="translate(413.85,0)" style="font-family: 'Open Sans', verdana, arial, sans-serif; font-size: 18px; fill: rgb(42, 63, 95); fill-opacity: 1; white-space: pre;">01/05</text></g><g class="xtick"><text text-anchor="middle" x="0" y="469" transform="translate(517.5699999999999,0)" style="font-family: 'Open Sans', verdana, arial, sans-serif; font-size: 18px; fill: rgb(42, 63, 95); fill-opacity: 1; white-space: pre;">01/07</text></g><g class="xtick"><text text-anchor="middle" x="0" y="469" transform="translate(622.98,0)" style="font-family: 'Open Sans', verdana, arial, sans-serif; font-size: 18px; fill: rgb(42, 63, 95); fill-opacity: 1; white-space: pre;">01/09</text></g><g class="xtick"><text text-anchor="middle" x="0" y="469" transform="translate(726.7,0)" style="font-family: 'Open Sans', verdana, arial, sans-serif; font-size: 18px; fill: rgb(42, 63, 95); fill-opacity: 1; white-space: pre;">01/11</text></g></g><g class="yaxislayer-above"/><g class="overaxes-above"/></g></g><g class="polarlayer"/><g class="ternarylayer"/><g class="geolayer"/><g class="funnelarealayer"/><g class="pielayer"/><g class="treemaplayer"/><g class="sunburstlayer"/><g class="glimages"/><defs id="topdefs-08ee0c"><g class="clips"/></defs><g class="layer-above"><g class="imagelayer"/><g class="shapelayer"><path data-index="0" fill-rule="evenodd" d="M-905.54,388.33L337.34,388.33" clip-path="url('#clip08ee0cxy')" style="opacity: 1; stroke: rgb(255, 0, 0); stroke-opacity: 1; fill: rgb(0, 0, 0); fill-opacity: 0; stroke-dasharray: 3px, 3px; stroke-width: 1.5px;"/></g></g><g class="infolayer"><g class="g-gtitle"><text class="gtitle" x="375" y="25" text-anchor="middle" dy="0.7em" style="font-family: 'Open Sans', verdana, arial, sans-serif; font-size: 50px; fill: rgb(42, 63, 95); opacity: 1; font-weight: normal; white-space: pre;"><tspan style="font-weight:bold">Vendée (85)</tspan></text></g><g class="g-xtitle"/><g class="annotation" data-index="0" style="opacity: 1;"><g class="annotation-text-g" transform="rotate(0,688.1,264.72)"><g class="cursor-pointer" transform="translate(630, 229)"><rect class="bg" x="0.5" y="0.5" width="115" height="71" style="stroke-width: 1px; stroke: rgb(0, 0, 0); stroke-opacity: 0; fill: rgb(255, 255, 255); fill-opacity: 0.6;"/><text class="annotation-text" text-anchor="middle" x="57.8125" y="55.5" style="font-family: 'Open Sans', verdana, arial, sans-serif; font-size: 50px; fill: rgb(8, 115, 191); fill-opacity: 1; white-space: pre;"> <tspan style="font-weight:bold">101 </tspan></text></g></g><g class="annotation-arrow-g" style="opacity: 1;"><path d="M716.5,300.22L728.1,314.72" style="stroke-width: 1px; stroke: rgb(8, 115, 191); stroke-opacity: 1; stroke-dasharray: 0px, 0px, 18.569px, 18.569px;"/></g></g></g></svg>