<svg class="main-svg" xmlns="http://www.w3.org/2000/svg" xmlns:xlink="http://www.w3.org/1999/xlink" width="1125" height="750" style="" viewBox="0 0 750 500"><rect x="0" y="0" width="750" height="500" style="fill: rgb(0, 0, 0); fill-opacity: 0;"/><defs id="defs-74381e"><g class="clips"><clipPath id="clip74381exyplot" class="plotclip"><rect width="695" height="380"/></clipPath><clipPath class="axesclip" id="clip74381ex"><rect x="50" y="0" width="695" height="500"/></clipPath><clipPath class="axesclip" id="clip74381ey"><rect x="0" y="70" width="750" height="380"/></clipPath><clipPath class="axesclip" id="clip74381exy"><rect x="50" y="70" width="695" height="380"/></clipPath></g><g class="gradients"/></defs><g class="bglayer"><rect class="bg" x="50" y="70" width="695" height="380" style="fill: rgb(0, 0, 0); fill-opacity: 0; stroke-width: 0;"/></g><g class="layer-below"><g class="imagelayer"/><g class="shapelayer"/></g><g class="cartesianlayer"><g class="subplot xy"><g class="layer-subplot"><g class="shapelayer"/><g class="imagelayer"/></g><g class="gridlayer"><g class="x"><path class="xgrid crisp" transform="translate(106.08,0)" d="M0,70v380" style="stroke: rgb(255, 255, 255); stroke-opacity: 1; stroke-width: 1px;"/><path class="xgrid crisp" transform="translate(209.73,0)" d="M0,70v380" style="stroke: rgb(255, 255, 255); stroke-opacity: 1; stroke-width: 1px;"/><path class="xgrid crisp" transform="translate(309.99,0)" d="M0,70v380" style="stroke: rgb(255, 255, 255); stroke-opacity: 1; stroke-width: 1px;"/><path class="xgrid crisp" transform="translate(413.64,0)" d="M0,70v380" style="stroke: rgb(255, 255, 255); stroke-opacity: 1; stroke-width: 1px;"/><path class="xgrid crisp" transform="translate(517.3,0)" d="M0,70v380" style="stroke: rgb(255, 255, 255); stroke-opacity: 1; stroke-width: 1px;"/><path class="xgrid crisp" transform="translate(622.65,0)" d="M0,70v380" style="stroke: rgb(255, 255, 255); stroke-opacity: 1; stroke-width: 1px;"/><path class="xgrid crisp" transform="translate(726.31,0)" d="M0,70v380" style="stroke: rgb(255, 255, 255); stroke-opacity: 1; stroke-width: 1px;"/></g><g class="y"/></g><g class="zerolinelayer"/><path class="xlines-below"/><path class="ylines-below"/><g class="overlines-below"/><g class="xaxislayer-below"/><g class="yaxislayer-below"/><g class="overaxes-below"/><g class="plot" transform="translate(50, 70)" clip-path="url('#clip74381exyplot')"><g class="scatterlayer mlayer"><g class="trace scatter trace7fff21" style="stroke-miterlimit: 2;"><g class="fills"><g><path class="js-fill" d="M666.11,380L-231.1,380L-231.1,374.99L-220.9,376.94L-219.21,377.13L-203.91,379.17L-202.21,378.89L-161.43,378.98L-159.73,378.52L-88.36,377.87L-86.66,377.77L-81.56,376.48L-79.87,376.11L-73.07,372.3L-71.37,372.21L-64.57,371.01L-62.87,371.84L-59.47,369.52L-57.78,369.43L-54.38,368.78L-52.68,367.39L-42.48,356.54L-40.78,356.17L-37.38,355.24L-35.68,353.02L-33.99,354.04L-32.29,353.67L-30.59,350.88L-28.89,350.33L-27.19,348.38L-25.49,344.67L-23.79,346.53L-22.09,346.9L-18.69,347.73L-16.99,345.41L-13.59,347.27L-11.89,345.88L-10.2,344.76L-8.5,344.67L-5.1,344.95L-3.4,341.15L-1.7,336.88L0,329.83L1.7,327.89L3.4,327.98L8.5,304.06L10.2,299.14L11.89,287.55L13.59,285.42L15.29,285.42L16.99,268.63L20.39,241.37L22.09,225.61L23.79,211.79L25.49,206.97L27.19,205.67L28.89,194.54L30.59,178.87L32.29,152.91L35.68,103.02L37.38,88.28L39.08,83.46L40.78,46.46L42.48,10.57L44.18,0L45.88,4.64L47.58,4.82L50.98,9.27L52.68,6.03L54.38,15.58L56.08,15.3L57.78,9.83L59.47,15.11L61.17,18.27L62.87,19.19L66.27,72.33L67.97,133.53L73.07,181.28L74.77,183.05L78.17,222.27L79.87,205.58L83.26,249.72L84.96,253.15L86.66,253.61L88.36,265.3L90.06,277.16L91.76,282.17L93.46,284.3L95.16,289.31L98.56,290.98L100.26,294.41L103.66,302.39L105.35,302.85L107.05,299.79L108.75,298.4L110.45,297.56L112.15,300.72L115.55,293.02L117.25,292.19L118.95,292.09L120.65,290.05L122.35,289.59L124.05,284.4L125.75,280.32L127.44,279.3L129.14,271.97L130.84,270.67L132.54,268.73L134.24,269.56L135.94,264.46L137.64,262.7L139.34,263.35L141.04,270.49L142.74,285.97L144.44,289.22L146.14,288.38L147.84,292.37L149.54,292.65L151.23,291.17L152.93,287.74L154.63,287.55L156.33,280.69L158.03,280.69L159.73,273.08L161.43,271.42L163.13,268.63L164.83,268.08L166.53,247.4L168.23,250.64L169.93,251.66L171.63,251.57L173.33,257.51L175.02,259.36L180.12,262.05L181.82,261.22L183.52,262.61L185.22,255.56L186.92,251.02L188.62,248.98L190.32,249.62L192.02,247.68L193.72,248.42L195.42,253.89L200.51,265.94L202.21,266.13L203.91,268.82L205.61,269.47L207.31,267.89L209.01,270.67L210.71,273.18L212.41,273.27L214.11,279.3L215.81,279.58L217.51,279.3L219.21,285.88L220.9,291.07L222.6,293.86L224.3,300.53L226,303.87L227.7,306.47L229.4,306.47L231.1,308.6L232.8,308.32L236.2,310.64L237.9,311.38L239.6,309.25L241.3,309.16L243,309.53L244.69,311.47L248.09,308.69L249.79,310.27L251.49,313.14L253.19,313.7L256.59,318.61L258.29,323.06L259.99,329.09L261.69,330.02L263.39,331.41L265.09,331.78L266.78,335.58L268.48,332.71L270.18,331.32L271.88,327.7L273.58,326.31L275.28,323.25L276.98,322.6L278.68,315L280.38,314.9L282.08,311.47L285.48,302.02L287.18,300.25L288.88,300.62L290.57,297.47L293.97,283.47L295.67,280.6L299.07,268.36L300.77,266.78L304.17,258.9L305.87,258.43L307.57,250.46L309.27,247.49L310.97,246.38L312.67,246.47L314.36,268.08L316.06,258.62L317.76,258.8L319.46,263.81L321.16,266.87L322.86,266.22L324.56,267.52L326.26,247.77L327.96,258.62L329.66,256.58L331.36,256.49L333.06,258.71L334.76,259.36L336.45,259.08L338.15,254.82L339.85,258.9L343.25,264.65L344.95,265.39L346.65,270.58L348.35,270.49L350.05,278.93L351.75,281.15L355.15,288.66L356.85,295.06L358.55,301.55L360.24,302.39L367.04,323.34L368.74,325.48L372.14,326.68L373.84,329.37L375.54,328.63L377.24,330.48L378.94,338.46L380.64,340.31L382.33,335.77L384.03,335.31L387.43,339.29L389.13,339.57L390.83,333.36L392.53,333.45L395.93,334.38L397.63,343L399.33,340.41L401.03,341.52L402.73,340.68L404.43,341.89L406.12,343.74L407.82,343.37L409.52,334.19L411.22,338.18L412.92,339.01L414.62,343L418.02,344.95L419.72,345.13L421.42,349.49L423.12,351.63L429.91,360.81L431.61,361.55L436.71,369.06L438.41,371.01L441.81,371.56L443.51,371.1L446.91,373.05L448.61,373.05L457.1,374.62L458.8,374.07L462.2,373.97L463.9,373.88L472.4,373.97L474.1,373.23L477.49,372.67L479.19,372.3L482.59,370.08L484.29,371.01L487.69,366.28L489.39,365.63L491.09,365.35L492.79,361.92L494.49,359.14L496.19,351.9L497.89,350.51L499.58,346.9L501.28,345.51L502.98,345.32L506.38,343L508.08,343.19L509.78,339.01L511.48,341.7L513.18,341.33L514.88,341.8L519.98,337.9L521.67,339.39L523.37,335.21L525.07,333.64L526.77,332.52L528.47,328.44L531.87,321.12L533.57,318.43L535.27,316.67L536.97,317.32L538.67,317.22L540.37,319.36L542.07,320L543.77,324.18L545.46,326.12L547.16,330.2L552.26,333.45L553.96,335.77L555.66,336.7L557.36,339.01L559.06,339.57L560.76,338.74L565.86,338.27L567.56,336.7L569.25,337.25L570.95,339.2L572.65,340.03L574.35,339.57L579.45,351.72L581.15,353.85L584.55,357.93L586.25,358.49L593.04,366L594.74,365.91L598.14,366.18L599.84,367.2L603.24,368.97L604.94,369.06L608.34,368.41L610.04,368.32L615.13,366.74L616.83,367.2L621.93,368.41L623.63,367.76L627.03,368.13L628.73,368.32L630.43,368.97L632.13,368.04L633.83,367.48L635.53,368.13L638.92,365.63L640.62,361.92L642.32,361.27L644.02,361.92L645.72,362.2L647.42,361.55L650.82,362.38L652.52,364.61L655.92,363.31L657.62,363.49L661.01,364.7L662.71,363.77L666.11,362.66" style="fill: rgb(8, 115, 191); fill-opacity: 0.2; stroke-width: 0;"/></g></g><g class="errorbars"/><g class="lines"><path class="js-line" d="M-231.1,374.99L-220.9,376.94L-219.21,377.13L-203.91,379.17L-202.21,378.89L-161.43,378.98L-159.73,378.52L-88.36,377.87L-86.66,377.77L-81.56,376.48L-79.87,376.11L-73.07,372.3L-71.37,372.21L-64.57,371.01L-62.87,371.84L-59.47,369.52L-57.78,369.43L-54.38,368.78L-52.68,367.39L-42.48,356.54L-40.78,356.17L-37.38,355.24L-35.68,353.02L-33.99,354.04L-32.29,353.67L-30.59,350.88L-28.89,350.33L-27.19,348.38L-25.49,344.67L-23.79,346.53L-22.09,346.9L-18.69,347.73L-16.99,345.41L-13.59,347.27L-11.89,345.88L-10.2,344.76L-8.5,344.67L-5.1,344.95L-3.4,341.15L-1.7,336.88L0,329.83L1.7,327.89L3.4,327.98L8.5,304.06L10.2,299.14L11.89,287.55L13.59,285.42L15.29,285.42L16.99,268.63L20.39,241.37L22.09,225.61L23.79,211.79L25.49,206.97L27.19,205.67L28.89,194.54L30.59,178.87L32.29,152.91L35.68,103.02L37.38,88.28L39.08,83.46L40.78,46.46L42.48,10.57L44.18,0L45.88,4.64L47.58,4.82L50.98,9.27L52.68,6.03L54.38,15.58L56.08,15.3L57.78,9.83L59.47,15.11L61.17,18.27L62.87,19.19L66.27,72.33L67.97,133.53L73.07,181.28L74.77,183.05L78.17,222.27L79.87,205.58L83.26,249.72L84.96,253.15L86.66,253.61L88.36,265.3L90.06,277.16L91.76,282.17L93.46,284.3L95.16,289.31L98.56,290.98L100.26,294.41L103.66,302.39L105.35,302.85L107.05,299.79L108.75,298.4L110.45,297.56L112.15,300.72L115.55,293.02L117.25,292.19L118.95,292.09L120.65,290.05L122.35,289.59L124.05,284.4L125.75,280.32L127.44,279.3L129.14,271.97L130.84,270.67L132.54,268.73L134.24,269.56L135.94,264.46L137.64,262.7L139.34,263.35L141.04,270.49L142.74,285.97L144.44,289.22L146.14,288.38L147.84,292.37L149.54,292.65L151.23,291.17L152.93,287.74L154.63,287.55L156.33,280.69L158.03,280.69L159.73,273.08L161.43,271.42L163.13,268.63L164.83,268.08L166.53,247.4L168.23,250.64L169.93,251.66L171.63,251.57L173.33,257.51L175.02,259.36L180.12,262.05L181.82,261.22L183.52,262.61L185.22,255.56L186.92,251.02L188.62,248.98L190.32,249.62L192.02,247.68L193.72,248.42L195.42,253.89L200.51,265.94L202.21,266.13L203.91,268.82L205.61,269.47L207.31,267.89L209.01,270.67L210.71,273.18L212.41,273.27L214.11,279.3L215.81,279.58L217.51,279.3L219.21,285.88L220.9,291.07L222.6,293.86L224.3,300.53L226,303.87L227.7,306.47L229.4,306.47L231.1,308.6L232.8,308.32L236.2,310.64L237.9,311.38L239.6,309.25L241.3,309.16L243,309.53L244.69,311.47L248.09,308.69L249.79,310.27L251.49,313.14L253.19,313.7L256.59,318.61L258.29,323.06L259.99,329.09L261.69,330.02L263.39,331.41L265.09,331.78L266.78,335.58L268.48,332.71L270.18,331.32L271.88,327.7L273.58,326.31L275.28,323.25L276.98,322.6L278.68,315L280.38,314.9L282.08,311.47L285.48,302.02L287.18,300.25L288.88,300.62L290.57,297.47L293.97,283.47L295.67,280.6L299.07,268.36L300.77,266.78L304.17,258.9L305.87,258.43L307.57,250.46L309.27,247.49L310.97,246.38L312.67,246.47L314.36,268.08L316.06,258.62L317.76,258.8L319.46,263.81L321.16,266.87L322.86,266.22L324.56,267.52L326.26,247.77L327.96,258.62L329.66,256.58L331.36,256.49L333.06,258.71L334.76,259.36L336.45,259.08L338.15,254.82L339.85,258.9L343.25,264.65L344.95,265.39L346.65,270.58L348.35,270.49L350.05,278.93L351.75,281.15L355.15,288.66L356.85,295.06L358.55,301.55L360.24,302.39L367.04,323.34L368.74,325.48L372.14,326.68L373.84,329.37L375.54,328.63L377.24,330.48L378.94,338.46L380.64,340.31L382.33,335.77L384.03,335.31L387.43,339.29L389.13,339.57L390.83,333.36L392.53,333.45L395.93,334.38L397.63,343L399.33,340.41L401.03,341.52L402.73,340.68L404.43,341.89L406.12,343.74L407.82,343.37L409.52,334.19L411.22,338.18L412.92,339.01L414.62,343L418.02,344.95L419.72,345.13L421.42,349.49L423.12,351.63L429.91,360.81L431.61,361.55L436.71,369.06L438.41,371.01L441.81,371.56L443.51,371.1L446.91,373.05L448.61,373.05L457.1,374.62L458.8,374.07L462.2,373.97L463.9,373.88L472.4,373.97L474.1,373.23L477.49,372.67L479.19,372.3L482.59,370.08L484.29,371.01L487.69,366.28L489.39,365.63L491.09,365.35L492.79,361.92L494.49,359.14L496.19,351.9L497.89,350.51L499.58,346.9L501.28,345.51L502.98,345.32L506.38,343L508.08,343.19L509.78,339.01L511.48,341.7L513.18,341.33L514.88,341.8L519.98,337.9L521.67,339.39L523.37,335.21L525.07,333.64L526.77,332.52L528.47,328.44L531.87,321.12L533.57,318.43L535.27,316.67L536.97,317.32L538.67,317.22L540.37,319.36L542.07,320L543.77,324.18L545.46,326.12L547.16,330.2L552.26,333.45L553.96,335.77L555.66,336.7L557.36,339.01L559.06,339.57L560.76,338.74L565.86,338.27L567.56,336.7L569.25,337.25L570.95,339.2L572.65,340.03L574.35,339.57L579.45,351.72L581.15,353.85L584.55,357.93L586.25,358.49L593.04,366L594.74,365.91L598.14,366.18L599.84,367.2L603.24,368.97L604.94,369.06L608.34,368.41L610.04,368.32L615.13,366.74L616.83,367.2L621.93,368.41L623.63,367.76L627.03,368.13L628.73,368.32L630.43,368.97L632.13,368.04L633.83,367.48L635.53,368.13L638.92,365.63L640.62,361.92L642.32,361.27L644.02,361.92L645.72,362.2L647.42,361.55L650.82,362.38L652.52,364.61L655.92,363.31L657.62,363.49L661.01,364.7L662.71,363.77L666.11,362.66" style="vector-effect: non-scaling-stroke; fill: none; stroke: rgb(8, 115, 191); stroke-opacity: 1; stroke-width: 0.5px; opacity: 1;"/></g><g class="points"/><g class="text"/></g><g class="trace scatter trace0d9130" style="stroke-miterlimit: 2;"><g class="fills"><g><path class="js-fill" d="M683.11,380L666.11,380L666.11,362.66L667.81,360.62L669.51,360.16L671.21,361.92L672.91,357.19L678.01,350.05L679.71,350.33L681.41,350.14L683.11,342.54" style="fill: rgb(8, 115, 191); fill-opacity: 0.4; stroke-width: 0;"/></g></g><g class="errorbars"/><g class="lines"><path class="js-line" d="M666.11,362.66L667.81,360.62L669.51,360.16L671.21,361.92L672.91,357.19L678.01,350.05L679.71,350.33L681.41,350.14L683.11,342.54" style="vector-effect: non-scaling-stroke; fill: none; stroke: rgb(8, 115, 191); stroke-opacity: 1; stroke-width: 2px; opacity: 1;"/></g><g class="points"/><g class="text"/></g><g class="trace scatter traced66d21" style="stroke-miterlimit: 2; opacity: 1;"><g class="fills"/><g class="errorbars"/><g class="lines"/><g class="points"><path class="point" transform="translate(683.11,342.54)" d="M15,0A15,15 0 1,1 0,-15A15,15 0 0,1 15,0Z" style="opacity: 1; stroke-width: 0px; fill: rgb(8, 115, 191); fill-opacity: 1;"/></g><g class="text"/></g></g></g><g class="overplot"/><path class="xlines-above crisp" style="fill: none; stroke-width: 1px; stroke: rgb(0, 0, 0); stroke-opacity: 0;" d=""/><path class="ylines-above crisp" style="fill: none;" d="M0,0"/><g class="overlines-above"/><g class="xaxislayer-above"><path class="xtick ticks crisp" d="M0,450v-5" transform="translate(106.08,0)" style="stroke: rgb(68, 68, 68); stroke-opacity: 1; stroke-width: 1px;"/><path class="xtick ticks crisp" d="M0,450v-5" transform="translate(209.73,0)" style="stroke: rgb(68, 68, 68); stroke-opacity: 1; stroke-width: 1px;"/><path class="xtick ticks crisp" d="M0,450v-5" transform="translate(309.99,0)" style="stroke: rgb(68, 68, 68); stroke-opacity: 1; stroke-width: 1px;"/><path class="xtick ticks crisp" d="M0,450v-5" transform="translate(413.64,0)" style="stroke: rgb(68, 68, 68); stroke-opacity: 1; stroke-width: 1px;"/><path class="xtick ticks crisp" d="M0,450v-5" transform="translate(517.3,0)" style="stroke: rgb(68, 68, 68); stroke-opacity: 1; stroke-width: 1px;"/><path class="xtick ticks crisp" d="M0,450v-5" transform="translate(622.65,0)" style="stroke: rgb(68, 68, 68); stroke-opacity: 1; stroke-width: 1px;"/><path class="xtick ticks crisp" d="M0,450v-5" transform="translate(726.31,0)" style="stroke: rgb(68, 68, 68); stroke-opacity: 1; stroke-width: 1px;"/><g class="xtick"><text text-anchor="middle" x="0" y="469" transform="translate(106.08,0)" style="font-family: 'Open Sans', verdana, arial, sans-serif; font-size: 18px; fill: rgb(42, 63, 95); fill-opacity: 1; white-space: pre;">01/11</text></g><g class="xtick"><text text-anchor="middle" x="0" y="469" transform="translate(209.73,0)" style="font-family: 'Open Sans', verdana, arial, sans-serif; font-size: 18px; fill: rgb(42, 63, 95); fill-opacity: 1; white-space: pre;">01/01</text></g><g class="xtick"><text text-anchor="middle" x="0" y="469" transform="translate(309.99,0)" style="font-family: 'Open Sans', verdana, arial, sans-serif; font-size: 18px; fill: rgb(42, 63, 95); fill-opacity: 1; white-space: pre;">01/03</text></g><g class="xtick"><text text-anchor="middle" x="0" y="469" transform="translate(413.64,0)" style="font-family: 'Open Sans', verdana, arial, sans-serif; font-size: 18px; fill: rgb(42, 63, 95); fill-opacity: 1; white-space: pre;">01/05</text></g><g class="xtick"><text text-anchor="middle" x="0" y="469" transform="translate(517.3,0)" style="font-family: 'Open Sans', verdana, arial, sans-serif; font-size: 18px; fill: rgb(42, 63, 95); fill-opacity: 1; white-space: pre;">01/07</text></g><g class="xtick"><text text-anchor="middle" x="0" y="469" transform="translate(622.65,0)" style="font-family: 'Open Sans', verdana, arial, sans-serif; font-size: 18px; fill: rgb(42, 63, 95); fill-opacity: 1; white-space: pre;">01/09</text></g><g class="xtick"><text text-anchor="middle" x="0" y="469" transform="translate(726.31,0)" style="font-family: 'Open Sans', verdana, arial, sans-serif; font-size: 18px; fill: rgb(42, 63, 95); fill-opacity: 1; white-space: pre;">01/11</text></g></g><g class="yaxislayer-above"/><g class="overaxes-above"/></g></g><g class="polarlayer"/><g class="ternarylayer"/><g class="geolayer"/><g class="funnelarealayer"/><g class="pielayer"/><g class="treemaplayer"/><g class="sunburstlayer"/><g class="glimages"/><defs id="topdefs-74381e"><g class="clips"/></defs><g class="layer-above"><g class="imagelayer"/><g class="shapelayer"><path data-index="0" fill-rule="evenodd" d="M-904.99,424.6L337.18,424.6" clip-path="url('#clip74381exy')" style="opacity: 1; stroke: rgb(255, 0, 0); stroke-opacity: 1; fill: rgb(0, 0, 0); fill-opacity: 0; stroke-dasharray: 3px, 3px; stroke-width: 1.5px;"/></g></g><g class="infolayer"><g class="g-gtitle"><text class="gtitle" x="375" y="25" text-anchor="middle" dy="0.7em" style="font-family: 'Open Sans', verdana, arial, sans-serif; font-size: 50px; fill: rgb(42, 63, 95); opacity: 1; font-weight: normal; white-space: pre;"><tspan style="font-weight:bold">Saône-et-Loire (71)</tspan></text></g><g class="g-xtitle"/><g class="annotation" data-index="0" style="opacity: 1;"><g class="annotation-text-g" transform="rotate(0,691.11,352.54)"><g class="cursor-pointer" transform="translate(648, 317)"><rect class="bg" x="0.5" y="0.5" width="86" height="71" style="stroke-width: 1px; stroke: rgb(0, 0, 0); stroke-opacity: 0; fill: rgb(255, 255, 255); fill-opacity: 0.6;"/><text class="annotation-text" text-anchor="middle" x="43.53125" y="55.5" style="font-family: 'Open Sans', verdana, arial, sans-serif; font-size: 50px; fill: rgb(8, 115, 191); fill-opacity: 1; white-space: pre;"> <tspan style="font-weight:bold">73 </tspan></text></g></g><g class="annotation-arrow-g" style="opacity: 1;"><path d="M719.51,388.04L731.11,402.54" style="stroke-width: 1px; stroke: rgb(8, 115, 191); stroke-opacity: 1; stroke-dasharray: 0px, 0px, 18.569px, 18.569px;"/></g></g></g></svg>