<svg class="main-svg" xmlns="http://www.w3.org/2000/svg" xmlns:xlink="http://www.w3.org/1999/xlink" width="1125" height="750" style="" viewBox="0 0 750 500"><rect x="0" y="0" width="750" height="500" style="fill: rgb(0, 0, 0); fill-opacity: 0;"/><defs id="defs-3d8ba8"><g class="clips"><clipPath id="clip3d8ba8xyplot" class="plotclip"><rect width="700" height="380"/></clipPath><clipPath class="axesclip" id="clip3d8ba8x"><rect x="50" y="0" width="700" height="500"/></clipPath><clipPath class="axesclip" id="clip3d8ba8y"><rect x="0" y="70" width="750" height="380"/></clipPath><clipPath class="axesclip" id="clip3d8ba8xy"><rect x="50" y="70" width="700" height="380"/></clipPath></g><g class="gradients"/></defs><g class="bglayer"><rect class="bg" x="50" y="70" width="700" height="380" style="fill: rgb(0, 0, 0); fill-opacity: 0; stroke-width: 0;"/></g><g class="layer-below"><g class="imagelayer"/><g class="shapelayer"/></g><g class="cartesianlayer"><g class="subplot xy"><g class="layer-subplot"><g class="shapelayer"/><g class="imagelayer"/></g><g class="gridlayer"><g class="x"><path class="xgrid crisp" transform="translate(52.22,0)" d="M0,70v380" style="stroke: rgb(255, 255, 255); stroke-opacity: 1; stroke-width: 1px;"/><path class="xgrid crisp" transform="translate(154.44,0)" d="M0,70v380" style="stroke: rgb(255, 255, 255); stroke-opacity: 1; stroke-width: 1px;"/><path class="xgrid crisp" transform="translate(254.44,0)" d="M0,70v380" style="stroke: rgb(255, 255, 255); stroke-opacity: 1; stroke-width: 1px;"/><path class="xgrid crisp" transform="translate(355.56,0)" d="M0,70v380" style="stroke: rgb(255, 255, 255); stroke-opacity: 1; stroke-width: 1px;"/><path class="xgrid crisp" transform="translate(457.78,0)" d="M0,70v380" style="stroke: rgb(255, 255, 255); stroke-opacity: 1; stroke-width: 1px;"/><path class="xgrid crisp" transform="translate(560,0)" d="M0,70v380" style="stroke: rgb(255, 255, 255); stroke-opacity: 1; stroke-width: 1px;"/><path class="xgrid crisp" transform="translate(660,0)" d="M0,70v380" style="stroke: rgb(255, 255, 255); stroke-opacity: 1; stroke-width: 1px;"/></g><g class="y"/></g><g class="zerolinelayer"/><path class="xlines-below"/><path class="ylines-below"/><g class="overlines-below"/><g class="xaxislayer-below"/><g class="yaxislayer-below"/><g class="overaxes-below"/><g class="plot" transform="translate(50, 70)" clip-path="url('#clip3d8ba8xyplot')"><g class="scatterlayer mlayer"><g class="trace scatter tracefc2109" style="stroke-miterlimit: 2;"><g class="fills"><g><path class="js-fill" d="M681.11,380L-151.11,380L-151.11,378.94L-135.56,379.73L-134.44,379.66L-104.44,379.73L-103.33,379.74L-80,379.64L-78.89,379.64L-60,378.78L-58.89,378.77L-37.78,377.09L-36.67,377.04L-28.89,375.16L-27.78,374.58L-12.22,371.64L-11.11,370.96L-10,368.88L-8.89,369.28L-3.33,369.56L-2.22,371.26L3.33,366.79L4.44,365.35L6.67,363.25L7.78,363.04L10,362.75L11.11,360.75L14.44,356.73L15.56,354.26L18.89,351.71L20,349.39L21.11,346.36L22.22,346.14L24.44,344.86L25.56,344.65L27.78,340.46L28.89,339.44L32.22,331.23L33.33,331.47L34.44,328.69L35.56,328.13L36.67,327.62L37.78,328.47L40,332.57L41.11,332.69L43.33,339.96L44.44,347.68L47.78,354.13L48.89,354.27L51.11,359.5L52.22,357.38L54.44,361.76L55.56,362.42L56.67,362.45L57.78,364.61L63.33,367.88L64.44,367.98L67.78,370.13L68.89,370.6L71.11,370.87L72.22,370.17L75.56,369.17L76.67,368.53L78.89,367.78L80,368.4L84.44,367.96L85.56,367.76L88.89,367.62L90,366.69L92.22,367.07L93.33,369.15L98.89,368.97L100,368.68L101.11,368.63L102.22,367.45L104.44,366.91L105.56,366.12L107.78,363.5L108.89,360.83L111.11,360.72L112.22,360L115.56,358.22L116.67,356.58L118.89,356.68L120,355.44L122.22,355.1L123.33,355.13L126.67,355.76L127.78,355.43L131.11,355.33L132.22,354.99L134.44,354.62L135.56,355.19L136.67,354.49L137.78,355.22L141.11,356.52L142.22,356.6L144.44,358.9L145.56,358.48L148.89,359.09L150,359L152.22,357.44L153.33,357.09L156.67,354.8L157.78,354.74L161.11,352.44L162.22,352.26L164.44,351.73L165.56,351.69L168.89,353.12L170,352.27L172.22,351.64L173.33,351.69L174.44,351.29L175.56,349.75L177.78,346.98L178.89,346.15L181.11,345.56L182.22,343.37L183.33,343.1L184.44,342.04L187.78,337.34L188.89,336.97L194.44,327.75L195.56,325.91L196.67,325.94L197.78,325.16L200,322.28L201.11,321.8L202.22,322.5L203.33,322.31L204.44,322.21L205.56,332.62L206.67,330.86L207.78,331.85L208.89,333.58L210,333.63L211.11,335.09L212.22,335.3L213.33,325.64L214.44,330.62L216.67,334.01L217.78,334.82L221.11,336.92L222.22,336.72L223.33,336.04L224.44,336.41L226.67,338.28L227.78,338.25L234.44,351.67L235.56,351.62L241.11,354.88L242.22,354.2L243.33,354.26L244.44,356.11L246.67,356.91L247.78,359.64L251.11,358.76L252.22,359.07L254.44,360.25L255.56,357.87L256.67,359.6L257.78,359.78L258.89,359.84L260,364.21L262.22,365.18L263.33,366.03L266.67,367.45L267.78,365.93L270,369.11L271.11,370.27L273.33,372.14L274.44,372.24L280,375.78L281.11,376.16L283.33,376.96L284.44,377.35L300,378.85L301.11,378.58L314.44,377.36L315.56,377.08L316.67,377.36L317.78,376.79L323.33,373.91L324.44,372.59L328.89,371.39L330,370.2L333.33,369.52L334.44,369.42L341.11,367.7L342.22,367.07L344.44,367.34L345.56,366.7L350,366.5L351.11,365.62L354.44,365.9L355.56,366.34L357.78,366.48L358.89,366.86L367.78,366.28L368.89,366.79L372.22,368.84L373.33,369.25L381.11,371.27L382.22,371.27L386.67,371.58L387.78,371.9L394.44,373.53L395.56,374.12L403.33,375.76L404.44,375.95L411.11,376.56L412.22,376.65L418.89,376.83L420,376.77L425.56,375.24L426.67,374.96L430,374.18L431.11,373.83L437.78,374L438.89,374.98L441.11,374.59L442.22,374.4L445.56,374.02L446.67,372.52L448.89,372.45L450,373.29L455.56,370.25L456.67,369.23L457.78,367.13L458.89,366.77L463.33,363.94L464.44,362.86L465.56,361.52L466.67,358.72L467.78,357.42L468.89,357.39L473.33,348.44L474.44,348.18L477.78,345.87L478.89,344.56L480,343.46L481.11,344.16L483.33,342.18L484.44,341.91L486.67,338.93L487.78,337.99L492.22,335.55L493.33,333.17L494.44,330.4L495.56,324.42L497.78,311.53L498.89,314.89L500,312.78L501.11,287.3L505.56,182.74L506.67,181.06L507.78,176.88L508.89,135.3L511.11,99.27L512.22,92.17L513.33,75.52L514.44,42.44L515.56,38.1L516.67,42.35L517.78,43.69L518.89,38.66L521.11,31.12L522.22,25.56L524.44,15.73L525.56,7.86L527.78,0L528.89,0.84L530,0.88L531.11,3.49L532.22,1.05L533.33,12.79L537.78,49.52L538.89,53.3L543.33,130.59L544.44,150.19L545.56,167.38L546.67,172.64L548.89,226.02L550,242.3L552.22,269.31L553.33,277.49L554.44,279.32L555.56,289.95L558.89,309.69L560,314.66L561.11,317.58L562.22,317.81L564.44,324.75L565.56,326.6L568.89,334.21L570,335.11L572.22,338.96L573.33,339.88L574.44,340.78L575.56,340.45L578.89,340.55L580,339.67L582.22,337.29L583.33,335.25L584.44,332.48L585.56,331.92L587.78,323.17L588.89,319.55L592.22,309.99L593.33,308.89L600,272.3L601.11,271.95L603.33,256.48L604.44,251.91L606.67,247.26L607.78,245.6L608.89,245.41L610,243.77L612.22,241.55L613.33,240.13L614.44,238.66L615.56,238.46L616.67,238.98L617.78,243.68L622.22,260.14L623.33,264.12L624.44,264.59L625.56,289.79L626.67,285.35L627.78,290.99L631.11,306.59L632.22,307.08L633.33,293.7L634.44,308.48L638.89,324.42L640,325.33L642.22,331.29L643.33,331.86L646.67,333.11L647.78,333.08L653.33,338.59L654.44,339.72L655.56,339.68L656.67,342.76L660,348.53L661.11,350.52L664.44,355.67L665.56,356.65L666.67,358.41L667.78,361.89L668.89,360.87L670,360.96L671.11,360.94L672.22,360.11L674.44,359.06L675.56,356.01L676.67,356.68L677.78,355.62L678.89,355.41L680,359.41L681.11,353.72" style="fill: rgb(8, 115, 191); fill-opacity: 0.2; stroke-width: 0;"/></g></g><g class="errorbars"/><g class="lines"><path class="js-line" d="M-151.11,378.94L-135.56,379.73L-134.44,379.66L-104.44,379.73L-103.33,379.74L-80,379.64L-78.89,379.64L-60,378.78L-58.89,378.77L-37.78,377.09L-36.67,377.04L-28.89,375.16L-27.78,374.58L-12.22,371.64L-11.11,370.96L-10,368.88L-8.89,369.28L-3.33,369.56L-2.22,371.26L3.33,366.79L4.44,365.35L6.67,363.25L7.78,363.04L10,362.75L11.11,360.75L14.44,356.73L15.56,354.26L18.89,351.71L20,349.39L21.11,346.36L22.22,346.14L24.44,344.86L25.56,344.65L27.78,340.46L28.89,339.44L32.22,331.23L33.33,331.47L34.44,328.69L35.56,328.13L36.67,327.62L37.78,328.47L40,332.57L41.11,332.69L43.33,339.96L44.44,347.68L47.78,354.13L48.89,354.27L51.11,359.5L52.22,357.38L54.44,361.76L55.56,362.42L56.67,362.45L57.78,364.61L63.33,367.88L64.44,367.98L67.78,370.13L68.89,370.6L71.11,370.87L72.22,370.17L75.56,369.17L76.67,368.53L78.89,367.78L80,368.4L84.44,367.96L85.56,367.76L88.89,367.62L90,366.69L92.22,367.07L93.33,369.15L98.89,368.97L100,368.68L101.11,368.63L102.22,367.45L104.44,366.91L105.56,366.12L107.78,363.5L108.89,360.83L111.11,360.72L112.22,360L115.56,358.22L116.67,356.58L118.89,356.68L120,355.44L122.22,355.1L123.33,355.13L126.67,355.76L127.78,355.43L131.11,355.33L132.22,354.99L134.44,354.62L135.56,355.19L136.67,354.49L137.78,355.22L141.11,356.52L142.22,356.6L144.44,358.9L145.56,358.48L148.89,359.09L150,359L152.22,357.44L153.33,357.09L156.67,354.8L157.78,354.74L161.11,352.44L162.22,352.26L164.44,351.73L165.56,351.69L168.89,353.12L170,352.27L172.22,351.64L173.33,351.69L174.44,351.29L175.56,349.75L177.78,346.98L178.89,346.15L181.11,345.56L182.22,343.37L183.33,343.1L184.44,342.04L187.78,337.34L188.89,336.97L194.44,327.75L195.56,325.91L196.67,325.94L197.78,325.16L200,322.28L201.11,321.8L202.22,322.5L203.33,322.31L204.44,322.21L205.56,332.62L206.67,330.86L207.78,331.85L208.89,333.58L210,333.63L211.11,335.09L212.22,335.3L213.33,325.64L214.44,330.62L216.67,334.01L217.78,334.82L221.11,336.92L222.22,336.72L223.33,336.04L224.44,336.41L226.67,338.28L227.78,338.25L234.44,351.67L235.56,351.62L241.11,354.88L242.22,354.2L243.33,354.26L244.44,356.11L246.67,356.91L247.78,359.64L251.11,358.76L252.22,359.07L254.44,360.25L255.56,357.87L256.67,359.6L257.78,359.78L258.89,359.84L260,364.21L262.22,365.18L263.33,366.03L266.67,367.45L267.78,365.93L270,369.11L271.11,370.27L273.33,372.14L274.44,372.24L280,375.78L281.11,376.16L283.33,376.96L284.44,377.35L300,378.85L301.11,378.58L314.44,377.36L315.56,377.08L316.67,377.36L317.78,376.79L323.33,373.91L324.44,372.59L328.89,371.39L330,370.2L333.33,369.52L334.44,369.42L341.11,367.7L342.22,367.07L344.44,367.34L345.56,366.7L350,366.5L351.11,365.62L354.44,365.9L355.56,366.34L357.78,366.48L358.89,366.86L367.78,366.28L368.89,366.79L372.22,368.84L373.33,369.25L381.11,371.27L382.22,371.27L386.67,371.58L387.78,371.9L394.44,373.53L395.56,374.12L403.33,375.76L404.44,375.95L411.11,376.56L412.22,376.65L418.89,376.83L420,376.77L425.56,375.24L426.67,374.96L430,374.18L431.11,373.83L437.78,374L438.89,374.98L441.11,374.59L442.22,374.4L445.56,374.02L446.67,372.52L448.89,372.45L450,373.29L455.56,370.25L456.67,369.23L457.78,367.13L458.89,366.77L463.33,363.94L464.44,362.86L465.56,361.52L466.67,358.72L467.78,357.42L468.89,357.39L473.33,348.44L474.44,348.18L477.78,345.87L478.89,344.56L480,343.46L481.11,344.16L483.33,342.18L484.44,341.91L486.67,338.93L487.78,337.99L492.22,335.55L493.33,333.17L494.44,330.4L495.56,324.42L497.78,311.53L498.89,314.89L500,312.78L501.11,287.3L505.56,182.74L506.67,181.06L507.78,176.88L508.89,135.3L511.11,99.27L512.22,92.17L513.33,75.52L514.44,42.44L515.56,38.1L516.67,42.35L517.78,43.69L518.89,38.66L521.11,31.12L522.22,25.56L524.44,15.73L525.56,7.86L527.78,0L528.89,0.84L530,0.88L531.11,3.49L532.22,1.05L533.33,12.79L537.78,49.52L538.89,53.3L543.33,130.59L544.44,150.19L545.56,167.38L546.67,172.64L548.89,226.02L550,242.3L552.22,269.31L553.33,277.49L554.44,279.32L555.56,289.95L558.89,309.69L560,314.66L561.11,317.58L562.22,317.81L564.44,324.75L565.56,326.6L568.89,334.21L570,335.11L572.22,338.96L573.33,339.88L574.44,340.78L575.56,340.45L578.89,340.55L580,339.67L582.22,337.29L583.33,335.25L584.44,332.48L585.56,331.92L587.78,323.17L588.89,319.55L592.22,309.99L593.33,308.89L600,272.3L601.11,271.95L603.33,256.48L604.44,251.91L606.67,247.26L607.78,245.6L608.89,245.41L610,243.77L612.22,241.55L613.33,240.13L614.44,238.66L615.56,238.46L616.67,238.98L617.78,243.68L622.22,260.14L623.33,264.12L624.44,264.59L625.56,289.79L626.67,285.35L627.78,290.99L631.11,306.59L632.22,307.08L633.33,293.7L634.44,308.48L638.89,324.42L640,325.33L642.22,331.29L643.33,331.86L646.67,333.11L647.78,333.08L653.33,338.59L654.44,339.72L655.56,339.68L656.67,342.76L660,348.53L661.11,350.52L664.44,355.67L665.56,356.65L666.67,358.41L667.78,361.89L668.89,360.87L670,360.96L671.11,360.94L672.22,360.11L674.44,359.06L675.56,356.01L676.67,356.68L677.78,355.62L678.89,355.41L680,359.41L681.11,353.72" style="vector-effect: non-scaling-stroke; fill: none; stroke: rgb(8, 115, 191); stroke-opacity: 1; stroke-width: 0.5px; opacity: 1;"/></g><g class="points"/><g class="text"/></g><g class="trace scatter tracef5aca3" style="stroke-miterlimit: 2;"><g class="fills"><g><path class="js-fill" d="M692.22,380L681.11,380L681.11,353.72L685.56,344.97L686.67,344.86L687.78,335.69L688.89,337.71L692.22,333.8" style="fill: rgb(8, 115, 191); fill-opacity: 0.4; stroke-width: 0;"/></g></g><g class="errorbars"/><g class="lines"><path class="js-line" d="M681.11,353.72L685.56,344.97L686.67,344.86L687.78,335.69L688.89,337.71L692.22,333.8" style="vector-effect: non-scaling-stroke; fill: none; stroke: rgb(8, 115, 191); stroke-opacity: 1; stroke-width: 2px; opacity: 1;"/></g><g class="points"/><g class="text"/></g><g class="trace scatter trace8b49d5" style="stroke-miterlimit: 2; opacity: 1;"><g class="fills"/><g class="errorbars"/><g class="lines"/><g class="points"><path class="point" transform="translate(692.22,333.8)" d="M15,0A15,15 0 1,1 0,-15A15,15 0 0,1 15,0Z" style="opacity: 1; stroke-width: 0px; fill: rgb(8, 115, 191); fill-opacity: 1;"/></g><g class="text"/></g></g></g><g class="overplot"/><path class="xlines-above crisp" style="fill: none; stroke-width: 1px; stroke: rgb(0, 0, 0); stroke-opacity: 0;" d=""/><path class="ylines-above crisp" style="fill: none;" d="M0,0"/><g class="overlines-above"/><g class="xaxislayer-above"><path class="xtick ticks crisp" d="M0,450v-5" transform="translate(52.22,0)" style="stroke: rgb(68, 68, 68); stroke-opacity: 1; stroke-width: 1px;"/><path class="xtick ticks crisp" d="M0,450v-5" transform="translate(154.44,0)" style="stroke: rgb(68, 68, 68); stroke-opacity: 1; stroke-width: 1px;"/><path class="xtick ticks crisp" d="M0,450v-5" transform="translate(254.44,0)" style="stroke: rgb(68, 68, 68); stroke-opacity: 1; stroke-width: 1px;"/><path class="xtick ticks crisp" d="M0,450v-5" transform="translate(355.56,0)" style="stroke: rgb(68, 68, 68); stroke-opacity: 1; stroke-width: 1px;"/><path class="xtick ticks crisp" d="M0,450v-5" transform="translate(457.78,0)" style="stroke: rgb(68, 68, 68); stroke-opacity: 1; stroke-width: 1px;"/><path class="xtick ticks crisp" d="M0,450v-5" transform="translate(560,0)" style="stroke: rgb(68, 68, 68); stroke-opacity: 1; stroke-width: 1px;"/><path class="xtick ticks crisp" d="M0,450v-5" transform="translate(660,0)" style="stroke: rgb(68, 68, 68); stroke-opacity: 1; stroke-width: 1px;"/><g class="xtick"><text text-anchor="middle" x="0" y="469" transform="translate(52.22,0)" style="font-family: 'Open Sans', verdana, arial, sans-serif; font-size: 18px; fill: rgb(42, 63, 95); fill-opacity: 1; white-space: pre;">01/10</text></g><g class="xtick"><text text-anchor="middle" x="0" y="469" transform="translate(154.44,0)" style="font-family: 'Open Sans', verdana, arial, sans-serif; font-size: 18px; fill: rgb(42, 63, 95); fill-opacity: 1; white-space: pre;">01/01</text></g><g class="xtick"><text text-anchor="middle" x="0" y="469" transform="translate(254.44,0)" style="font-family: 'Open Sans', verdana, arial, sans-serif; font-size: 18px; fill: rgb(42, 63, 95); fill-opacity: 1; white-space: pre;">01/04</text></g><g class="xtick"><text text-anchor="middle" x="0" y="469" transform="translate(355.56,0)" style="font-family: 'Open Sans', verdana, arial, sans-serif; font-size: 18px; fill: rgb(42, 63, 95); fill-opacity: 1; white-space: pre;">01/07</text></g><g class="xtick"><text text-anchor="middle" x="0" y="469" transform="translate(457.78,0)" style="font-family: 'Open Sans', verdana, arial, sans-serif; font-size: 18px; fill: rgb(42, 63, 95); fill-opacity: 1; white-space: pre;">01/10</text></g><g class="xtick"><text text-anchor="middle" x="0" y="469" transform="translate(560,0)" style="font-family: 'Open Sans', verdana, arial, sans-serif; font-size: 18px; fill: rgb(42, 63, 95); fill-opacity: 1; white-space: pre;">01/01</text></g><g class="xtick"><text text-anchor="middle" x="0" y="469" transform="translate(660,0)" style="font-family: 'Open Sans', verdana, arial, sans-serif; font-size: 18px; fill: rgb(42, 63, 95); fill-opacity: 1; white-space: pre;">01/04</text></g></g><g class="yaxislayer-above"/><g class="overaxes-above"/></g></g><g class="polarlayer"/><g class="ternarylayer"/><g class="geolayer"/><g class="funnelarealayer"/><g class="pielayer"/><g class="treemaplayer"/><g class="sunburstlayer"/><g class="glimages"/><defs id="topdefs-3d8ba8"><g class="clips"/></defs><g class="layer-above"><g class="imagelayer"/><g class="shapelayer"><path data-index="0" fill-rule="evenodd" d="M-574.44,444.66L237.78,444.66" clip-path="url('#clip3d8ba8xy')" style="opacity: 1; stroke: rgb(255, 0, 0); stroke-opacity: 1; fill: rgb(0, 0, 0); fill-opacity: 0; stroke-dasharray: 3px, 3px; stroke-width: 1.5px;"/></g></g><g class="infolayer"><g class="g-gtitle"><text class="gtitle" x="375" y="25" text-anchor="middle" dy="0.7em" style="font-family: 'Open Sans', verdana, arial, sans-serif; font-size: 50px; fill: rgb(42, 63, 95); opacity: 1; font-weight: normal; white-space: pre;"><tspan style="font-weight:bold">Oise (60)</tspan></text></g><g class="g-xtitle"/><g class="annotation" data-index="0" style="opacity: 1;"><g class="annotation-text-g" transform="rotate(0,700.22,343.8)"><g class="cursor-pointer" transform="translate(642, 308)"><rect class="bg" x="0.5" y="0.5" width="115" height="71" style="stroke-width: 1px; stroke: rgb(0, 0, 0); stroke-opacity: 0; fill: rgb(255, 255, 255); fill-opacity: 0.6;"/><text class="annotation-text" text-anchor="middle" x="57.8125" y="55.5" style="font-family: 'Open Sans', verdana, arial, sans-serif; font-size: 50px; fill: rgb(8, 115, 191); fill-opacity: 1; white-space: pre;"> <tspan style="font-weight:bold">432 </tspan></text></g></g><g class="annotation-arrow-g" style="opacity: 1;"><path d="M728.62,379.3L740.22,393.8" style="stroke-width: 1px; stroke: rgb(8, 115, 191); stroke-opacity: 1; stroke-dasharray: 0px, 0px, 18.569px, 18.569px;"/></g></g></g></svg>