<svg class="main-svg" xmlns="http://www.w3.org/2000/svg" xmlns:xlink="http://www.w3.org/1999/xlink" width="1125" height="750" style="" viewBox="0 0 750 500"><rect x="0" y="0" width="750" height="500" style="fill: rgb(0, 0, 0); fill-opacity: 0;"/><defs id="defs-709b8e"><g class="clips"><clipPath id="clip709b8exyplot" class="plotclip"><rect width="700" height="380"/></clipPath><clipPath class="axesclip" id="clip709b8ex"><rect x="50" y="0" width="700" height="500"/></clipPath><clipPath class="axesclip" id="clip709b8ey"><rect x="0" y="70" width="750" height="380"/></clipPath><clipPath class="axesclip" id="clip709b8exy"><rect x="50" y="70" width="700" height="380"/></clipPath></g><g class="gradients"/></defs><g class="bglayer"><rect class="bg" x="50" y="70" width="700" height="380" style="fill: rgb(0, 0, 0); fill-opacity: 0; stroke-width: 0;"/></g><g class="layer-below"><g class="imagelayer"/><g class="shapelayer"/></g><g class="cartesianlayer"><g class="subplot xy"><g class="layer-subplot"><g class="shapelayer"/><g class="imagelayer"/></g><g class="gridlayer"><g class="x"><path class="xgrid crisp" transform="translate(52.27,0)" d="M0,70v380" style="stroke: rgb(255, 255, 255); stroke-opacity: 1; stroke-width: 1px;"/><path class="xgrid crisp" transform="translate(156.47,0)" d="M0,70v380" style="stroke: rgb(255, 255, 255); stroke-opacity: 1; stroke-width: 1px;"/><path class="xgrid crisp" transform="translate(258.40999999999997,0)" d="M0,70v380" style="stroke: rgb(255, 255, 255); stroke-opacity: 1; stroke-width: 1px;"/><path class="xgrid crisp" transform="translate(361.49,0)" d="M0,70v380" style="stroke: rgb(255, 255, 255); stroke-opacity: 1; stroke-width: 1px;"/><path class="xgrid crisp" transform="translate(465.7,0)" d="M0,70v380" style="stroke: rgb(255, 255, 255); stroke-opacity: 1; stroke-width: 1px;"/><path class="xgrid crisp" transform="translate(569.9,0)" d="M0,70v380" style="stroke: rgb(255, 255, 255); stroke-opacity: 1; stroke-width: 1px;"/><path class="xgrid crisp" transform="translate(671.84,0)" d="M0,70v380" style="stroke: rgb(255, 255, 255); stroke-opacity: 1; stroke-width: 1px;"/></g><g class="y"/></g><g class="zerolinelayer"/><path class="xlines-below"/><path class="ylines-below"/><g class="overlines-below"/><g class="xaxislayer-below"/><g class="yaxislayer-below"/><g class="overaxes-below"/><g class="plot" transform="translate(50, 70)" clip-path="url('#clip709b8exyplot')"><g class="scatterlayer mlayer"><g class="trace scatter tracea413c0" style="stroke-miterlimit: 2;"><g class="fills"><g><path class="js-fill" d="M680.74,380L-154.05,380L-154.05,378.22L-134.79,379.97L-133.66,379.94L-54.37,378.67L-53.24,378.67L-35.11,375.93L-33.98,375.42L-26.05,374.72L-24.92,375.03L-20.39,375.42L-19.26,375.06L-13.59,373.7L-12.46,373.1L-6.8,372.61L-5.66,372.61L-3.4,372.64L-2.27,372.19L-1.13,371.47L0,371.77L3.4,371.29L4.53,369.9L10.19,368.3L11.33,366.77L12.46,366.68L13.59,365.71L15.86,364.78L16.99,364.39L18.12,364.23L19.26,362.31L23.79,352.57L24.92,352.12L26.05,352.12L27.18,348.41L28.32,347.56L29.45,345.36L31.72,342.8L32.85,343.4L35.11,343.25L36.25,341.96L38.51,343.13L39.64,343.83L41.91,342.74L43.04,345.58L44.17,348.14L45.31,353.86L46.44,354.83L47.57,358.81L49.84,360.13L50.97,363.9L52.1,366.98L53.24,365.74L55.5,369.75L56.63,370.26L57.77,370.44L58.9,372.31L62.3,374.09L63.43,374.42L65.7,374.6L66.83,374L73.62,373.1L74.76,373.4L78.16,373.19L79.29,373.46L86.08,372.52L87.22,371.65L90.61,370.66L91.75,369.03L94.01,367.61L95.15,369.72L99.68,368.21L100.81,365.59L103.07,365.65L104.21,364.99L105.34,365.2L106.47,362.79L107.61,362.7L108.74,364.51L109.87,363.45L111,360.56L114.4,361.67L115.53,362.85L116.67,360.92L117.8,361.1L121.2,361.76L122.33,361.01L123.46,359.62L124.6,360.68L137.06,356.88L138.19,357L140.45,358.42L141.59,358.45L144.98,358.99L146.12,360.8L150.65,362.67L151.78,362.79L154.05,363.03L155.18,364.39L157.44,366.47L158.58,367.22L161.97,368.94L163.11,368.33L171.04,368.45L172.17,369.03L178.96,370.32L180.1,369.69L184.63,368.79L185.76,367.1L188.03,366.1L189.16,365.77L192.56,364.93L193.69,364.14L195.95,362.55L197.09,361.52L199.35,359.14L200.49,359.17L205.02,352.93L206.15,352.6L208.41,351.85L209.55,357.69L210.68,355.91L211.81,355.91L212.94,356.55L214.08,356.19L216.34,356.97L217.48,351.54L219.74,355.79L220.87,356.34L223.14,357.3L224.27,357.15L226.54,356.34L227.67,355.61L231.07,354.26L232.2,354.38L237.86,359.5L239,361.58L240.13,361.64L241.26,362.91L245.79,366.22L246.93,366.25L248.06,366.1L249.19,366.98L250.32,368.06L251.46,367.82L253.72,370.66L254.85,369.87L255.99,370.02L257.12,371.41L258.25,371.38L259.39,372.22L260.52,371.2L261.65,371.83L263.92,372.28L265.05,373.76L266.18,372.8L267.31,373.37L271.84,373.37L272.98,371.86L274.11,373.52L275.24,373.55L279.77,374.48L280.91,375.54L289.97,378.13L291.1,378.16L294.5,378.58L295.63,378.58L297.9,378.79L299.03,378.61L311.49,378.46L312.62,377.74L316.02,375.87L317.15,375L319.42,374.42L320.55,372.67L321.68,370.87L322.82,371.35L326.21,362.73L327.35,362.64L330.74,342.17L331.88,338.97L334.14,331.74L335.28,331.32L337.54,326.01L338.67,326.4L340.94,326.61L342.07,327.76L343.2,327.58L344.34,329.72L346.6,332.13L347.73,331.44L350,331.8L351.13,331.8L352.27,330.74L353.4,331.77L355.66,334.18L356.8,336.2L359.06,335.54L360.19,338.07L362.46,338.58L363.59,339.88L366.99,343.59L368.12,346.9L372.65,355.64L373.79,355.49L374.92,355.64L376.05,357.33L381.72,362.46L382.85,362.55L388.51,367.58L389.64,368.27L390.78,368.15L391.91,369.6L393.04,370.75L394.17,370.69L402.1,373.88L403.24,373.28L406.63,373.49L407.77,372.34L410.03,372.1L411.17,372.4L413.43,372.46L414.56,372.58L416.83,374.18L417.96,373.94L423.62,374.66L424.76,374.42L431.55,375.69L432.69,375.18L439.48,373.19L440.61,373.61L445.15,374.15L446.28,374.15L447.41,375.9L448.54,375.51L454.21,374.72L455.34,372.52L457.61,371.8L458.74,372.8L459.87,371.14L461,371.35L462.14,371.2L463.27,370.08L465.53,368.36L466.67,365.38L467.8,365.14L468.93,363.93L471.2,363.3L472.33,361.64L476.86,356.19L477.99,356.01L480.26,348.38L481.39,344.94L483.66,338.91L484.79,336.56L485.92,336.2L487.06,331.59L489.32,325.14L490.45,324.72L491.59,321.88L492.72,321.85L493.85,321.52L494.98,318.96L496.12,317.03L497.25,317.12L498.38,316.58L499.51,317.45L500.65,315.97L501.78,315.88L502.91,317.18L504.05,317.27L505.18,313.92L506.31,307.17L507.44,303.28L508.58,307.59L509.71,306.33L510.84,286.55L515.37,231.75L516.5,231L517.64,229.28L518.77,199.31L521.04,172.67L522.17,165.46L523.3,157.66L524.43,137.28L525.57,138.15L526.7,140.92L527.83,146.38L528.96,140.17L530.1,138.03L531.23,131.79L533.5,122.93L534.63,107.74L540.29,28L541.42,25.23L543.69,4.13L544.82,0L545.95,0.18L547.09,5.43L548.22,7.23L549.35,6.84L550.49,15.43L551.62,29.81L556.15,82.69L557.28,86.82L559.55,126.82L560.68,139.75L564.08,170.56L565.21,172.88L567.48,207L568.61,221.23L570.87,243.63L572.01,248.66L573.14,251.43L574.27,263.13L578.8,290.47L579.94,296.2L581.07,296.14L582.2,305.21L586.73,317.09L587.86,318.32L590.13,318.75L591.26,320.92L592.39,320.46L593.53,320.83L594.66,319.17L595.79,318.93L596.93,318.6L598.06,316.43L601.46,306.12L602.59,305.45L603.72,302.08L604.85,301.93L610.52,258.7L611.65,251.62L612.78,250.95L613.92,237.15L616.18,228.65L617.31,226.96L618.45,226.69L619.58,231.06L620.71,231.21L621.84,236.36L624.11,242.36L625.24,242.42L626.38,241.37L627.51,238.11L628.64,237.99L629.77,234.25L632.04,230.91L633.17,230.39L635.44,234.19L636.57,233.74L637.7,268.38L638.83,252.82L642.23,265.93L643.37,270.85L644.5,272.35L645.63,254.6L646.76,282.81L647.9,290.17L650.16,303.22L651.29,305.6L652.43,305.78L653.56,314.68L654.69,317.69L655.83,323.12L659.22,336.02L660.36,336.62L662.62,342.83L663.75,343.8L666.02,345.09L667.15,345.33L668.28,345.67L669.42,347.66L672.82,351.57L673.95,352.36L677.35,353.68L678.48,354.86L679.61,356.04L680.74,359.35" style="fill: rgb(8, 115, 191); fill-opacity: 0.2; stroke-width: 0;"/></g></g><g class="errorbars"/><g class="lines"><path class="js-line" d="M-154.05,378.22L-134.79,379.97L-133.66,379.94L-54.37,378.67L-53.24,378.67L-35.11,375.93L-33.98,375.42L-26.05,374.72L-24.92,375.03L-20.39,375.42L-19.26,375.06L-13.59,373.7L-12.46,373.1L-6.8,372.61L-5.66,372.61L-3.4,372.64L-2.27,372.19L-1.13,371.47L0,371.77L3.4,371.29L4.53,369.9L10.19,368.3L11.33,366.77L12.46,366.68L13.59,365.71L15.86,364.78L16.99,364.39L18.12,364.23L19.26,362.31L23.79,352.57L24.92,352.12L26.05,352.12L27.18,348.41L28.32,347.56L29.45,345.36L31.72,342.8L32.85,343.4L35.11,343.25L36.25,341.96L38.51,343.13L39.64,343.83L41.91,342.74L43.04,345.58L44.17,348.14L45.31,353.86L46.44,354.83L47.57,358.81L49.84,360.13L50.97,363.9L52.1,366.98L53.24,365.74L55.5,369.75L56.63,370.26L57.77,370.44L58.9,372.31L62.3,374.09L63.43,374.42L65.7,374.6L66.83,374L73.62,373.1L74.76,373.4L78.16,373.19L79.29,373.46L86.08,372.52L87.22,371.65L90.61,370.66L91.75,369.03L94.01,367.61L95.15,369.72L99.68,368.21L100.81,365.59L103.07,365.65L104.21,364.99L105.34,365.2L106.47,362.79L107.61,362.7L108.74,364.51L109.87,363.45L111,360.56L114.4,361.67L115.53,362.85L116.67,360.92L117.8,361.1L121.2,361.76L122.33,361.01L123.46,359.62L124.6,360.68L137.06,356.88L138.19,357L140.45,358.42L141.59,358.45L144.98,358.99L146.12,360.8L150.65,362.67L151.78,362.79L154.05,363.03L155.18,364.39L157.44,366.47L158.58,367.22L161.97,368.94L163.11,368.33L171.04,368.45L172.17,369.03L178.96,370.32L180.1,369.69L184.63,368.79L185.76,367.1L188.03,366.1L189.16,365.77L192.56,364.93L193.69,364.14L195.95,362.55L197.09,361.52L199.35,359.14L200.49,359.17L205.02,352.93L206.15,352.6L208.41,351.85L209.55,357.69L210.68,355.91L211.81,355.91L212.94,356.55L214.08,356.19L216.34,356.97L217.48,351.54L219.74,355.79L220.87,356.34L223.14,357.3L224.27,357.15L226.54,356.34L227.67,355.61L231.07,354.26L232.2,354.38L237.86,359.5L239,361.58L240.13,361.64L241.26,362.91L245.79,366.22L246.93,366.25L248.06,366.1L249.19,366.98L250.32,368.06L251.46,367.82L253.72,370.66L254.85,369.87L255.99,370.02L257.12,371.41L258.25,371.38L259.39,372.22L260.52,371.2L261.65,371.83L263.92,372.28L265.05,373.76L266.18,372.8L267.31,373.37L271.84,373.37L272.98,371.86L274.11,373.52L275.24,373.55L279.77,374.48L280.91,375.54L289.97,378.13L291.1,378.16L294.5,378.58L295.63,378.58L297.9,378.79L299.03,378.61L311.49,378.46L312.62,377.74L316.02,375.87L317.15,375L319.42,374.42L320.55,372.67L321.68,370.87L322.82,371.35L326.21,362.73L327.35,362.64L330.74,342.17L331.88,338.97L334.14,331.74L335.28,331.32L337.54,326.01L338.67,326.4L340.94,326.61L342.07,327.76L343.2,327.58L344.34,329.72L346.6,332.13L347.73,331.44L350,331.8L351.13,331.8L352.27,330.74L353.4,331.77L355.66,334.18L356.8,336.2L359.06,335.54L360.19,338.07L362.46,338.58L363.59,339.88L366.99,343.59L368.12,346.9L372.65,355.64L373.79,355.49L374.92,355.64L376.05,357.33L381.72,362.46L382.85,362.55L388.51,367.58L389.64,368.27L390.78,368.15L391.91,369.6L393.04,370.75L394.17,370.69L402.1,373.88L403.24,373.28L406.63,373.49L407.77,372.34L410.03,372.1L411.17,372.4L413.43,372.46L414.56,372.58L416.83,374.18L417.96,373.94L423.62,374.66L424.76,374.42L431.55,375.69L432.69,375.18L439.48,373.19L440.61,373.61L445.15,374.15L446.28,374.15L447.41,375.9L448.54,375.51L454.21,374.72L455.34,372.52L457.61,371.8L458.74,372.8L459.87,371.14L461,371.35L462.14,371.2L463.27,370.08L465.53,368.36L466.67,365.38L467.8,365.14L468.93,363.93L471.2,363.3L472.33,361.64L476.86,356.19L477.99,356.01L480.26,348.38L481.39,344.94L483.66,338.91L484.79,336.56L485.92,336.2L487.06,331.59L489.32,325.14L490.45,324.72L491.59,321.88L492.72,321.85L493.85,321.52L494.98,318.96L496.12,317.03L497.25,317.12L498.38,316.58L499.51,317.45L500.65,315.97L501.78,315.88L502.91,317.18L504.05,317.27L505.18,313.92L506.31,307.17L507.44,303.28L508.58,307.59L509.71,306.33L510.84,286.55L515.37,231.75L516.5,231L517.64,229.28L518.77,199.31L521.04,172.67L522.17,165.46L523.3,157.66L524.43,137.28L525.57,138.15L526.7,140.92L527.83,146.38L528.96,140.17L530.1,138.03L531.23,131.79L533.5,122.93L534.63,107.74L540.29,28L541.42,25.23L543.69,4.13L544.82,0L545.95,0.18L547.09,5.43L548.22,7.23L549.35,6.84L550.49,15.43L551.62,29.81L556.15,82.69L557.28,86.82L559.55,126.82L560.68,139.75L564.08,170.56L565.21,172.88L567.48,207L568.61,221.23L570.87,243.63L572.01,248.66L573.14,251.43L574.27,263.13L578.8,290.47L579.94,296.2L581.07,296.14L582.2,305.21L586.73,317.09L587.86,318.32L590.13,318.75L591.26,320.92L592.39,320.46L593.53,320.83L594.66,319.17L595.79,318.93L596.93,318.6L598.06,316.43L601.46,306.12L602.59,305.45L603.72,302.08L604.85,301.93L610.52,258.7L611.65,251.62L612.78,250.95L613.92,237.15L616.18,228.65L617.31,226.96L618.45,226.69L619.58,231.06L620.71,231.21L621.84,236.36L624.11,242.36L625.24,242.42L626.38,241.37L627.51,238.11L628.64,237.99L629.77,234.25L632.04,230.91L633.17,230.39L635.44,234.19L636.57,233.74L637.7,268.38L638.83,252.82L642.23,265.93L643.37,270.85L644.5,272.35L645.63,254.6L646.76,282.81L647.9,290.17L650.16,303.22L651.29,305.6L652.43,305.78L653.56,314.68L654.69,317.69L655.83,323.12L659.22,336.02L660.36,336.62L662.62,342.83L663.75,343.8L666.02,345.09L667.15,345.33L668.28,345.67L669.42,347.66L672.82,351.57L673.95,352.36L677.35,353.68L678.48,354.86L679.61,356.04L680.74,359.35" style="vector-effect: non-scaling-stroke; fill: none; stroke: rgb(8, 115, 191); stroke-opacity: 1; stroke-width: 0.5px; opacity: 1;"/></g><g class="points"/><g class="text"/></g><g class="trace scatter traceeb5038" style="stroke-miterlimit: 2;"><g class="fills"><g><path class="js-fill" d="M692.07,380L680.74,380L680.74,359.35L684.14,359.11L685.28,359.62L687.54,358.75L688.67,355.28L692.07,355.58" style="fill: rgb(8, 115, 191); fill-opacity: 0.4; stroke-width: 0;"/></g></g><g class="errorbars"/><g class="lines"><path class="js-line" d="M680.74,359.35L684.14,359.11L685.28,359.62L687.54,358.75L688.67,355.28L692.07,355.58" style="vector-effect: non-scaling-stroke; fill: none; stroke: rgb(8, 115, 191); stroke-opacity: 1; stroke-width: 2px; opacity: 1;"/></g><g class="points"/><g class="text"/></g><g class="trace scatter tracea22795" style="stroke-miterlimit: 2; opacity: 1;"><g class="fills"/><g class="errorbars"/><g class="lines"/><g class="points"><path class="point" transform="translate(692.07,355.58)" d="M15,0A15,15 0 1,1 0,-15A15,15 0 0,1 15,0Z" style="opacity: 1; stroke-width: 0px; fill: rgb(8, 115, 191); fill-opacity: 1;"/></g><g class="text"/></g></g></g><g class="overplot"/><path class="xlines-above crisp" style="fill: none; stroke-width: 1px; stroke: rgb(0, 0, 0); stroke-opacity: 0;" d=""/><path class="ylines-above crisp" style="fill: none;" d="M0,0"/><g class="overlines-above"/><g class="xaxislayer-above"><path class="xtick ticks crisp" d="M0,450v-5" transform="translate(52.27,0)" style="stroke: rgb(68, 68, 68); stroke-opacity: 1; stroke-width: 1px;"/><path class="xtick ticks crisp" d="M0,450v-5" transform="translate(156.47,0)" style="stroke: rgb(68, 68, 68); stroke-opacity: 1; stroke-width: 1px;"/><path class="xtick ticks crisp" d="M0,450v-5" transform="translate(258.40999999999997,0)" style="stroke: rgb(68, 68, 68); stroke-opacity: 1; stroke-width: 1px;"/><path class="xtick ticks crisp" d="M0,450v-5" transform="translate(361.49,0)" style="stroke: rgb(68, 68, 68); stroke-opacity: 1; stroke-width: 1px;"/><path class="xtick ticks crisp" d="M0,450v-5" transform="translate(465.7,0)" style="stroke: rgb(68, 68, 68); stroke-opacity: 1; stroke-width: 1px;"/><path class="xtick ticks crisp" d="M0,450v-5" transform="translate(569.9,0)" style="stroke: rgb(68, 68, 68); stroke-opacity: 1; stroke-width: 1px;"/><path class="xtick ticks crisp" d="M0,450v-5" transform="translate(671.84,0)" style="stroke: rgb(68, 68, 68); stroke-opacity: 1; stroke-width: 1px;"/><g class="xtick"><text text-anchor="middle" x="0" y="469" transform="translate(52.27,0)" style="font-family: 'Open Sans', verdana, arial, sans-serif; font-size: 18px; fill: rgb(42, 63, 95); fill-opacity: 1; white-space: pre;">01/10</text></g><g class="xtick"><text text-anchor="middle" x="0" y="469" transform="translate(156.47,0)" style="font-family: 'Open Sans', verdana, arial, sans-serif; font-size: 18px; fill: rgb(42, 63, 95); fill-opacity: 1; white-space: pre;">01/01</text></g><g class="xtick"><text text-anchor="middle" x="0" y="469" transform="translate(258.40999999999997,0)" style="font-family: 'Open Sans', verdana, arial, sans-serif; font-size: 18px; fill: rgb(42, 63, 95); fill-opacity: 1; white-space: pre;">01/04</text></g><g class="xtick"><text text-anchor="middle" x="0" y="469" transform="translate(361.49,0)" style="font-family: 'Open Sans', verdana, arial, sans-serif; font-size: 18px; fill: rgb(42, 63, 95); fill-opacity: 1; white-space: pre;">01/07</text></g><g class="xtick"><text text-anchor="middle" x="0" y="469" transform="translate(465.7,0)" style="font-family: 'Open Sans', verdana, arial, sans-serif; font-size: 18px; fill: rgb(42, 63, 95); fill-opacity: 1; white-space: pre;">01/10</text></g><g class="xtick"><text text-anchor="middle" x="0" y="469" transform="translate(569.9,0)" style="font-family: 'Open Sans', verdana, arial, sans-serif; font-size: 18px; fill: rgb(42, 63, 95); fill-opacity: 1; white-space: pre;">01/01</text></g><g class="xtick"><text text-anchor="middle" x="0" y="469" transform="translate(671.84,0)" style="font-family: 'Open Sans', verdana, arial, sans-serif; font-size: 18px; fill: rgb(42, 63, 95); fill-opacity: 1; white-space: pre;">01/04</text></g></g><g class="yaxislayer-above"/><g class="overaxes-above"/></g></g><g class="polarlayer"/><g class="ternarylayer"/><g class="geolayer"/><g class="funnelarealayer"/><g class="pielayer"/><g class="treemaplayer"/><g class="sunburstlayer"/><g class="glimages"/><defs id="topdefs-709b8e"><g class="clips"/></defs><g class="layer-above"><g class="imagelayer"/><g class="shapelayer"><path data-index="0" fill-rule="evenodd" d="M-586.57,444.38L241.42,444.38" clip-path="url('#clip709b8exy')" style="opacity: 1; stroke: rgb(255, 0, 0); stroke-opacity: 1; fill: rgb(0, 0, 0); fill-opacity: 0; stroke-dasharray: 3px, 3px; stroke-width: 1.5px;"/></g></g><g class="infolayer"><g class="g-gtitle"><text class="gtitle" x="375" y="25" text-anchor="middle" dy="0.7em" style="font-family: 'Open Sans', verdana, arial, sans-serif; font-size: 50px; fill: rgb(42, 63, 95); opacity: 1; font-weight: normal; white-space: pre;"><tspan style="font-weight:bold">Aude (11)</tspan></text></g><g class="g-xtitle"/><g class="annotation" data-index="0" style="opacity: 1;"><g class="annotation-text-g" transform="rotate(0,700.07,365.58)"><g class="cursor-pointer" transform="translate(642, 330)"><rect class="bg" x="0.5" y="0.5" width="115" height="71" style="stroke-width: 1px; stroke: rgb(0, 0, 0); stroke-opacity: 0; fill: rgb(255, 255, 255); fill-opacity: 0.6;"/><text class="annotation-text" text-anchor="middle" x="57.8125" y="55.5" style="font-family: 'Open Sans', verdana, arial, sans-serif; font-size: 50px; fill: rgb(8, 115, 191); fill-opacity: 1; white-space: pre;"> <tspan style="font-weight:bold">217 </tspan></text></g></g><g class="annotation-arrow-g" style="opacity: 1;"><path d="M728.47,401.08L740.07,415.58" style="stroke-width: 1px; stroke: rgb(8, 115, 191); stroke-opacity: 1; stroke-dasharray: 0px, 0px, 18.5691px, 18.5691px;"/></g></g></g></svg>