<svg class="main-svg" xmlns="http://www.w3.org/2000/svg" xmlns:xlink="http://www.w3.org/1999/xlink" width="1125" height="750" style="" viewBox="0 0 750 500"><rect x="0" y="0" width="750" height="500" style="fill: rgb(0, 0, 0); fill-opacity: 0;"/><defs id="defs-060b25"><g class="clips"><clipPath id="clip060b25xyplot" class="plotclip"><rect width="697" height="380"/></clipPath><clipPath class="axesclip" id="clip060b25x"><rect x="50" y="0" width="697" height="500"/></clipPath><clipPath class="axesclip" id="clip060b25y"><rect x="0" y="70" width="750" height="380"/></clipPath><clipPath class="axesclip" id="clip060b25xy"><rect x="50" y="70" width="697" height="380"/></clipPath></g><g class="gradients"/></defs><g class="bglayer"><rect class="bg" x="50" y="70" width="697" height="380" style="fill: rgb(0, 0, 0); fill-opacity: 0; stroke-width: 0;"/></g><g class="layer-below"><g class="imagelayer"/><g class="shapelayer"/></g><g class="cartesianlayer"><g class="subplot xy"><g class="layer-subplot"><g class="shapelayer"/><g class="imagelayer"/></g><g class="gridlayer"><g class="x"><path class="xgrid crisp" transform="translate(52.11,0)" d="M0,70v380" style="stroke: rgb(255, 255, 255); stroke-opacity: 1; stroke-width: 1px;"/><path class="xgrid crisp" transform="translate(149.26999999999998,0)" d="M0,70v380" style="stroke: rgb(255, 255, 255); stroke-opacity: 1; stroke-width: 1px;"/><path class="xgrid crisp" transform="translate(244.32,0)" d="M0,70v380" style="stroke: rgb(255, 255, 255); stroke-opacity: 1; stroke-width: 1px;"/><path class="xgrid crisp" transform="translate(340.42,0)" d="M0,70v380" style="stroke: rgb(255, 255, 255); stroke-opacity: 1; stroke-width: 1px;"/><path class="xgrid crisp" transform="translate(437.57,0)" d="M0,70v380" style="stroke: rgb(255, 255, 255); stroke-opacity: 1; stroke-width: 1px;"/><path class="xgrid crisp" transform="translate(534.73,0)" d="M0,70v380" style="stroke: rgb(255, 255, 255); stroke-opacity: 1; stroke-width: 1px;"/><path class="xgrid crisp" transform="translate(629.78,0)" d="M0,70v380" style="stroke: rgb(255, 255, 255); stroke-opacity: 1; stroke-width: 1px;"/><path class="xgrid crisp" transform="translate(725.88,0)" d="M0,70v380" style="stroke: rgb(255, 255, 255); stroke-opacity: 1; stroke-width: 1px;"/></g><g class="y"/></g><g class="zerolinelayer"/><path class="xlines-below"/><path class="ylines-below"/><g class="overlines-below"/><g class="xaxislayer-below"/><g class="yaxislayer-below"/><g class="overaxes-below"/><g class="plot" transform="translate(50, 70)" clip-path="url('#clip060b25xyplot')"><g class="scatterlayer mlayer"><g class="trace scatter tracebbd40f" style="stroke-miterlimit: 2;"><g class="fills"><g><path class="js-fill" d="M679.05,380L-143.62,380L-143.62,378.95L-120.39,379.69L-119.33,379.73L-84.48,379.77L-83.43,379.71L-70.76,378.95L-69.7,378.93L-55.97,376.51L-54.92,376.18L-47.52,373.83L-46.47,372.37L-36.96,368.45L-35.91,368.47L-27.46,367.88L-26.4,367.64L-22.18,365.98L-21.12,366.11L-16.9,366.61L-15.84,367.08L-8.45,371.32L-7.39,372.07L-5.28,372.1L-4.22,372.97L2.11,373.2L3.17,372.39L10.56,368.53L11.62,367.82L14.78,365.07L15.84,365.07L17.95,364.63L19.01,363.88L21.12,360.93L22.18,359.31L24.29,358.44L25.35,356.29L27.46,352.5L28.51,351.39L30.63,349.76L31.68,349.58L34.85,347.11L35.91,347.23L39.07,347.56L40.13,348.62L41.19,350.8L42.24,356.14L43.3,356.98L44.35,359.46L46.47,359.99L47.52,361.41L48.58,362.8L49.63,360.5L51.75,364.2L52.8,364.25L53.86,364.23L54.92,366.04L58.08,367.36L59.14,367.51L61.25,367.7L62.31,367.32L64.42,367.21L65.48,367.05L67.59,366.33L68.64,366.39L73.92,366.15L74.98,365.62L76.04,365.49L77.09,364.31L84.48,353.66L85.54,351.46L86.6,349.87L87.65,349.79L88.71,354.01L89.77,353.74L92.93,352.98L93.99,351.67L98.21,350.63L99.27,349.31L100.33,348.63L101.38,349.08L102.44,347.36L103.49,340.94L109.83,343.24L110.89,343.83L114.05,344.81L115.11,343.92L119.33,343.33L120.39,342.96L121.45,342.43L122.5,343.23L127.78,342.69L128.84,343.14L132.01,342.58L133.06,342.39L136.23,342.29L137.29,341.19L139.4,339.83L140.46,340.48L145.74,340.57L146.79,339.77L148.9,337.22L149.96,337.31L151.02,335.86L152.07,336.14L153.13,335.72L154.18,337.03L156.3,340.15L157.35,340.19L160.52,343.3L161.58,344.32L162.63,345.04L163.69,344.47L164.75,344.1L165.8,345.29L167.91,345.66L168.97,345.46L170.03,344.75L171.08,345.5L172.14,346.08L173.19,345.39L175.31,346.54L176.36,347.36L178.47,347.91L179.53,347.63L181.64,347.54L182.7,346.07L184.81,343.66L185.87,342.96L187.98,342.84L189.03,342.32L193.26,347.26L194.32,347.23L195.37,354.75L196.43,354.57L201.71,359.01L202.76,356.03L204.88,361.56L205.93,362.52L208.04,364.15L209.1,364.32L212.27,366.32L213.32,366.74L221.77,370.11L222.83,370.96L224.94,371.37L226,371.82L233.39,374.27L234.45,374.72L236.56,375.57L237.61,375.4L246.06,375.95L247.12,376.78L258.73,377.44L259.79,377.46L265.07,378.04L266.13,378.2L276.69,378.48L277.74,378.56L286.19,378L287.25,377.86L293.58,375.21L294.64,374.39L298.87,372.1L299.92,371.03L300.98,370.88L302.03,367.91L304.15,362.89L305.2,362.21L311.54,328.38L312.59,327.37L314.71,316.64L315.76,314.67L317.87,312.75L318.93,314.14L319.99,314.47L321.04,315.82L325.27,324.16L326.32,324.35L327.38,324.31L328.43,325.59L330.55,326.48L331.6,327.07L334.77,328.97L335.83,331.8L340.05,339.52L341.11,340.5L343.22,342.17L344.28,344.21L348.5,351.12L349.56,351.27L351.67,354.61L352.72,355.61L355.89,359.11L356.95,359.37L360.12,363.34L361.17,363.98L366.45,367.86L367.51,368.48L370.68,370.37L371.73,370.56L372.79,370.58L373.85,371.37L378.07,372.07L379.13,372.05L386.52,372.59L387.57,373.2L397.08,374.64L398.13,374.45L416.09,374.07L417.14,374.78L420.31,373.64L421.37,373.27L423.48,372.64L424.54,370.85L427.7,370.45L428.76,369.03L431.93,366.34L432.98,364.98L434.04,363.47L435.1,360.6L438.27,359.19L439.32,356.83L444.6,346.07L445.66,345.75L449.88,336.34L450.94,333.86L453.05,331.27L454.11,326.79L458.33,315.93L459.39,314.57L460.44,313.95L461.5,309.94L464.67,300.8L465.72,297.36L469.95,293.03L471,289.61L473.12,283.41L474.17,289.18L475.23,287.19L476.28,273.57L480.51,230.46L481.56,228.42L482.62,224.35L483.68,199.15L485.79,168.05L486.84,158.29L488.96,120.63L490.01,119.58L494.24,90.7L495.29,78.41L498.46,42.56L499.52,24.62L501.63,1.19L502.68,0L504.8,1.53L505.85,7.63L511.13,80.5L512.19,85.7L515.36,149.94L516.41,166.58L518.53,195.61L519.58,200.87L521.69,238.31L522.75,251.13L525.92,276.36L526.97,278.03L529.09,294.73L530.14,301.02L533.31,312.45L534.37,313.25L538.59,322.99L539.65,325.08L543.87,330.13L544.93,330.2L547.04,328.71L548.1,329.04L549.15,328.81L550.21,326.96L553.38,323.94L554.43,322.22L555.49,320.05L556.54,319.85L559.71,308.52L560.77,305.3L562.88,300.61L563.94,299.98L567.1,287.3L568.16,284.12L570.27,277.2L571.33,276.32L573.44,267.75L574.5,264.9L575.55,263.34L576.61,264.04L580.83,268.57L581.89,269.5L582.95,269.73L584,268.61L586.11,268.2L587.17,269.68L592.45,285.55L593.51,286.3L594.56,307.08L595.62,303.37L599.84,317.58L600.9,318.17L601.95,308.53L603.01,319.09L606.18,328.95L607.23,330.74L608.29,331.42L609.35,336.32L614.63,344.83L615.68,344.91L617.8,346.37L618.85,347.07L622.02,348.18L623.08,348.27L626.24,351.47L627.3,352.41L631.52,355.47L632.58,356.76L633.64,358.43L634.69,361.49L639.97,362.49L641.03,361.52L642.08,358.69L643.14,358.78L645.25,358.08L646.31,360.82L648.42,354.47L649.48,352.92L651.59,350.11L652.65,349.7L653.7,342.88L654.76,343.85L660.04,336.71L661.09,332.53L665.32,312.54L666.37,307.54L667.43,306.09L668.49,292.42L672.71,262.57L673.77,258.73L675.88,255.84L676.93,253.54L679.05,253.41" style="fill: rgb(8, 115, 191); fill-opacity: 0.2; stroke-width: 0;"/></g></g><g class="errorbars"/><g class="lines"><path class="js-line" d="M-143.62,378.95L-120.39,379.69L-119.33,379.73L-84.48,379.77L-83.43,379.71L-70.76,378.95L-69.7,378.93L-55.97,376.51L-54.92,376.18L-47.52,373.83L-46.47,372.37L-36.96,368.45L-35.91,368.47L-27.46,367.88L-26.4,367.64L-22.18,365.98L-21.12,366.11L-16.9,366.61L-15.84,367.08L-8.45,371.32L-7.39,372.07L-5.28,372.1L-4.22,372.97L2.11,373.2L3.17,372.39L10.56,368.53L11.62,367.82L14.78,365.07L15.84,365.07L17.95,364.63L19.01,363.88L21.12,360.93L22.18,359.31L24.29,358.44L25.35,356.29L27.46,352.5L28.51,351.39L30.63,349.76L31.68,349.58L34.85,347.11L35.91,347.23L39.07,347.56L40.13,348.62L41.19,350.8L42.24,356.14L43.3,356.98L44.35,359.46L46.47,359.99L47.52,361.41L48.58,362.8L49.63,360.5L51.75,364.2L52.8,364.25L53.86,364.23L54.92,366.04L58.08,367.36L59.14,367.51L61.25,367.7L62.31,367.32L64.42,367.21L65.48,367.05L67.59,366.33L68.64,366.39L73.92,366.15L74.98,365.62L76.04,365.49L77.09,364.31L84.48,353.66L85.54,351.46L86.6,349.87L87.65,349.79L88.71,354.01L89.77,353.74L92.93,352.98L93.99,351.67L98.21,350.63L99.27,349.31L100.33,348.63L101.38,349.08L102.44,347.36L103.49,340.94L109.83,343.24L110.89,343.83L114.05,344.81L115.11,343.92L119.33,343.33L120.39,342.96L121.45,342.43L122.5,343.23L127.78,342.69L128.84,343.14L132.01,342.58L133.06,342.39L136.23,342.29L137.29,341.19L139.4,339.83L140.46,340.48L145.74,340.57L146.79,339.77L148.9,337.22L149.96,337.31L151.02,335.86L152.07,336.14L153.13,335.72L154.18,337.03L156.3,340.15L157.35,340.19L160.52,343.3L161.58,344.32L162.63,345.04L163.69,344.47L164.75,344.1L165.8,345.29L167.91,345.66L168.97,345.46L170.03,344.75L171.08,345.5L172.14,346.08L173.19,345.39L175.31,346.54L176.36,347.36L178.47,347.91L179.53,347.63L181.64,347.54L182.7,346.07L184.81,343.66L185.87,342.96L187.98,342.84L189.03,342.32L193.26,347.26L194.32,347.23L195.37,354.75L196.43,354.57L201.71,359.01L202.76,356.03L204.88,361.56L205.93,362.52L208.04,364.15L209.1,364.32L212.27,366.32L213.32,366.74L221.77,370.11L222.83,370.96L224.94,371.37L226,371.82L233.39,374.27L234.45,374.72L236.56,375.57L237.61,375.4L246.06,375.95L247.12,376.78L258.73,377.44L259.79,377.46L265.07,378.04L266.13,378.2L276.69,378.48L277.74,378.56L286.19,378L287.25,377.86L293.58,375.21L294.64,374.39L298.87,372.1L299.92,371.03L300.98,370.88L302.03,367.91L304.15,362.89L305.2,362.21L311.54,328.38L312.59,327.37L314.71,316.64L315.76,314.67L317.87,312.75L318.93,314.14L319.99,314.47L321.04,315.82L325.27,324.16L326.32,324.35L327.38,324.31L328.43,325.59L330.55,326.48L331.6,327.07L334.77,328.97L335.83,331.8L340.05,339.52L341.11,340.5L343.22,342.17L344.28,344.21L348.5,351.12L349.56,351.27L351.67,354.61L352.72,355.61L355.89,359.11L356.95,359.37L360.12,363.34L361.17,363.98L366.45,367.86L367.51,368.48L370.68,370.37L371.73,370.56L372.79,370.58L373.85,371.37L378.07,372.07L379.13,372.05L386.52,372.59L387.57,373.2L397.08,374.64L398.13,374.45L416.09,374.07L417.14,374.78L420.31,373.64L421.37,373.27L423.48,372.64L424.54,370.85L427.7,370.45L428.76,369.03L431.93,366.34L432.98,364.98L434.04,363.47L435.1,360.6L438.27,359.19L439.32,356.83L444.6,346.07L445.66,345.75L449.88,336.34L450.94,333.86L453.05,331.27L454.11,326.79L458.33,315.93L459.39,314.57L460.44,313.95L461.5,309.94L464.67,300.8L465.72,297.36L469.95,293.03L471,289.61L473.12,283.41L474.17,289.18L475.23,287.19L476.28,273.57L480.51,230.46L481.56,228.42L482.62,224.35L483.68,199.15L485.79,168.05L486.84,158.29L488.96,120.63L490.01,119.58L494.24,90.7L495.29,78.41L498.46,42.56L499.52,24.62L501.63,1.19L502.68,0L504.8,1.53L505.85,7.63L511.13,80.5L512.19,85.7L515.36,149.94L516.41,166.58L518.53,195.61L519.58,200.87L521.69,238.31L522.75,251.13L525.92,276.36L526.97,278.03L529.09,294.73L530.14,301.02L533.31,312.45L534.37,313.25L538.59,322.99L539.65,325.08L543.87,330.13L544.93,330.2L547.04,328.71L548.1,329.04L549.15,328.81L550.21,326.96L553.38,323.94L554.43,322.22L555.49,320.05L556.54,319.85L559.71,308.52L560.77,305.3L562.88,300.61L563.94,299.98L567.1,287.3L568.16,284.12L570.27,277.2L571.33,276.32L573.44,267.75L574.5,264.9L575.55,263.34L576.61,264.04L580.83,268.57L581.89,269.5L582.95,269.73L584,268.61L586.11,268.2L587.17,269.68L592.45,285.55L593.51,286.3L594.56,307.08L595.62,303.37L599.84,317.58L600.9,318.17L601.95,308.53L603.01,319.09L606.18,328.95L607.23,330.74L608.29,331.42L609.35,336.32L614.63,344.83L615.68,344.91L617.8,346.37L618.85,347.07L622.02,348.18L623.08,348.27L626.24,351.47L627.3,352.41L631.52,355.47L632.58,356.76L633.64,358.43L634.69,361.49L639.97,362.49L641.03,361.52L642.08,358.69L643.14,358.78L645.25,358.08L646.31,360.82L648.42,354.47L649.48,352.92L651.59,350.11L652.65,349.7L653.7,342.88L654.76,343.85L660.04,336.71L661.09,332.53L665.32,312.54L666.37,307.54L667.43,306.09L668.49,292.42L672.71,262.57L673.77,258.73L675.88,255.84L676.93,253.54L679.05,253.41" style="vector-effect: non-scaling-stroke; fill: none; stroke: rgb(8, 115, 191); stroke-opacity: 1; stroke-width: 0.5px; opacity: 1;"/></g><g class="points"/><g class="text"/></g><g class="trace scatter trace506363" style="stroke-miterlimit: 2;"><g class="fills"><g><path class="js-fill" d="M689.61,380L679.05,380L679.05,253.41L682.22,255.95L683.27,259.94L685.38,266.95L686.44,281.18L687.5,280.03L688.55,283.36L689.61,283.8" style="fill: rgb(8, 115, 191); fill-opacity: 0.4; stroke-width: 0;"/></g></g><g class="errorbars"/><g class="lines"><path class="js-line" d="M679.05,253.41L682.22,255.95L683.27,259.94L685.38,266.95L686.44,281.18L687.5,280.03L688.55,283.36L689.61,283.8" style="vector-effect: non-scaling-stroke; fill: none; stroke: rgb(8, 115, 191); stroke-opacity: 1; stroke-width: 2px; opacity: 1;"/></g><g class="points"/><g class="text"/></g><g class="trace scatter tracecf88f2" style="stroke-miterlimit: 2; opacity: 1;"><g class="fills"/><g class="errorbars"/><g class="lines"/><g class="points"><path class="point" transform="translate(689.61,283.8)" d="M15,0A15,15 0 1,1 0,-15A15,15 0 0,1 15,0Z" style="opacity: 1; stroke-width: 0px; fill: rgb(8, 115, 191); fill-opacity: 1;"/></g><g class="text"/></g></g></g><g class="overplot"/><path class="xlines-above crisp" style="fill: none; stroke-width: 1px; stroke: rgb(0, 0, 0); stroke-opacity: 0;" d=""/><path class="ylines-above crisp" style="fill: none;" d="M0,0"/><g class="overlines-above"/><g class="xaxislayer-above"><path class="xtick ticks crisp" d="M0,450v-5" transform="translate(52.11,0)" style="stroke: rgb(68, 68, 68); stroke-opacity: 1; stroke-width: 1px;"/><path class="xtick ticks crisp" d="M0,450v-5" transform="translate(149.26999999999998,0)" style="stroke: rgb(68, 68, 68); stroke-opacity: 1; stroke-width: 1px;"/><path class="xtick ticks crisp" d="M0,450v-5" transform="translate(244.32,0)" style="stroke: rgb(68, 68, 68); stroke-opacity: 1; stroke-width: 1px;"/><path class="xtick ticks crisp" d="M0,450v-5" transform="translate(340.42,0)" style="stroke: rgb(68, 68, 68); stroke-opacity: 1; stroke-width: 1px;"/><path class="xtick ticks crisp" d="M0,450v-5" transform="translate(437.57,0)" style="stroke: rgb(68, 68, 68); stroke-opacity: 1; stroke-width: 1px;"/><path class="xtick ticks crisp" d="M0,450v-5" transform="translate(534.73,0)" style="stroke: rgb(68, 68, 68); stroke-opacity: 1; stroke-width: 1px;"/><path class="xtick ticks crisp" d="M0,450v-5" transform="translate(629.78,0)" style="stroke: rgb(68, 68, 68); stroke-opacity: 1; stroke-width: 1px;"/><path class="xtick ticks crisp" d="M0,450v-5" transform="translate(725.88,0)" style="stroke: rgb(68, 68, 68); stroke-opacity: 1; stroke-width: 1px;"/><g class="xtick"><text text-anchor="middle" x="0" y="469" transform="translate(52.11,0)" style="font-family: 'Open Sans', verdana, arial, sans-serif; font-size: 18px; fill: rgb(42, 63, 95); fill-opacity: 1; white-space: pre;">01/10</text></g><g class="xtick"><text text-anchor="middle" x="0" y="469" transform="translate(149.26999999999998,0)" style="font-family: 'Open Sans', verdana, arial, sans-serif; font-size: 18px; fill: rgb(42, 63, 95); fill-opacity: 1; white-space: pre;">01/01</text></g><g class="xtick"><text text-anchor="middle" x="0" y="469" transform="translate(244.32,0)" style="font-family: 'Open Sans', verdana, arial, sans-serif; font-size: 18px; fill: rgb(42, 63, 95); fill-opacity: 1; white-space: pre;">01/04</text></g><g class="xtick"><text text-anchor="middle" x="0" y="469" transform="translate(340.42,0)" style="font-family: 'Open Sans', verdana, arial, sans-serif; font-size: 18px; fill: rgb(42, 63, 95); fill-opacity: 1; white-space: pre;">01/07</text></g><g class="xtick"><text text-anchor="middle" x="0" y="469" transform="translate(437.57,0)" style="font-family: 'Open Sans', verdana, arial, sans-serif; font-size: 18px; fill: rgb(42, 63, 95); fill-opacity: 1; white-space: pre;">01/10</text></g><g class="xtick"><text text-anchor="middle" x="0" y="469" transform="translate(534.73,0)" style="font-family: 'Open Sans', verdana, arial, sans-serif; font-size: 18px; fill: rgb(42, 63, 95); fill-opacity: 1; white-space: pre;">01/01</text></g><g class="xtick"><text text-anchor="middle" x="0" y="469" transform="translate(629.78,0)" style="font-family: 'Open Sans', verdana, arial, sans-serif; font-size: 18px; fill: rgb(42, 63, 95); fill-opacity: 1; white-space: pre;">01/04</text></g><g class="xtick"><text text-anchor="middle" x="0" y="469" transform="translate(725.88,0)" style="font-family: 'Open Sans', verdana, arial, sans-serif; font-size: 18px; fill: rgb(42, 63, 95); fill-opacity: 1; white-space: pre;">01/07</text></g></g><g class="yaxislayer-above"/><g class="overaxes-above"/></g></g><g class="polarlayer"/><g class="ternarylayer"/><g class="geolayer"/><g class="funnelarealayer"/><g class="pielayer"/><g class="treemaplayer"/><g class="sunburstlayer"/><g class="glimages"/><defs id="topdefs-060b25"><g class="clips"/></defs><g class="layer-above"><g class="imagelayer"/><g class="shapelayer"><path data-index="0" fill-rule="evenodd" d="M-543.51,445.58L228.47,445.58" clip-path="url('#clip060b25xy')" style="opacity: 1; stroke: rgb(255, 0, 0); stroke-opacity: 1; fill: rgb(0, 0, 0); fill-opacity: 0; stroke-dasharray: 3px, 3px; stroke-width: 1.5px;"/></g></g><g class="infolayer"><g class="g-gtitle"><text class="gtitle" x="375" y="25" text-anchor="middle" dy="0.7em" style="font-family: 'Open Sans', verdana, arial, sans-serif; font-size: 50px; fill: rgb(42, 63, 95); opacity: 1; font-weight: normal; white-space: pre;"><tspan style="font-weight:bold">Alpes-Maritimes (06)</tspan></text></g><g class="g-xtitle"/><g class="annotation" data-index="0" style="opacity: 1;"><g class="annotation-text-g" transform="rotate(0,697.61,293.8)"><g class="cursor-pointer" transform="translate(626, 258)"><rect class="bg" x="0.5" y="0.5" width="143" height="71" style="stroke-width: 1px; stroke: rgb(0, 0, 0); stroke-opacity: 0; fill: rgb(255, 255, 255); fill-opacity: 0.6;"/><text class="annotation-text" text-anchor="middle" x="72.078125" y="55.5" style="font-family: 'Open Sans', verdana, arial, sans-serif; font-size: 50px; fill: rgb(8, 115, 191); fill-opacity: 1; white-space: pre;"> <tspan style="font-weight:bold">1087 </tspan></text></g></g><g class="annotation-arrow-g" style="opacity: 1;"><path d="M726.01,329.3L737.61,343.8" style="stroke-width: 1px; stroke: rgb(8, 115, 191); stroke-opacity: 1; stroke-dasharray: 0px, 0px, 18.569px, 18.569px;"/></g></g></g></svg>