<svg class="main-svg" xmlns="http://www.w3.org/2000/svg" xmlns:xlink="http://www.w3.org/1999/xlink" width="1125" height="750" style="" viewBox="0 0 750 500"><rect x="0" y="0" width="750" height="500" style="fill: rgb(0, 0, 0); fill-opacity: 0;"/><defs id="defs-45a22e"><g class="clips"><clipPath id="clip45a22exyplot" class="plotclip"><rect width="698" height="380"/></clipPath><clipPath class="axesclip" id="clip45a22ex"><rect x="50" y="0" width="698" height="500"/></clipPath><clipPath class="axesclip" id="clip45a22ey"><rect x="0" y="70" width="750" height="380"/></clipPath><clipPath class="axesclip" id="clip45a22exy"><rect x="50" y="70" width="698" height="380"/></clipPath></g><g class="gradients"/></defs><g class="bglayer"><rect class="bg" x="50" y="70" width="698" height="380" style="fill: rgb(0, 0, 0); fill-opacity: 0; stroke-width: 0;"/></g><g class="layer-below"><g class="imagelayer"/><g class="shapelayer"/></g><g class="cartesianlayer"><g class="subplot xy"><g class="layer-subplot"><g class="shapelayer"/><g class="imagelayer"/></g><g class="gridlayer"><g class="x"><path class="xgrid crisp" transform="translate(52.11,0)" d="M0,70v380" style="stroke: rgb(255, 255, 255); stroke-opacity: 1; stroke-width: 1px;"/><path class="xgrid crisp" transform="translate(149.26,0)" d="M0,70v380" style="stroke: rgb(255, 255, 255); stroke-opacity: 1; stroke-width: 1px;"/><path class="xgrid crisp" transform="translate(244.3,0)" d="M0,70v380" style="stroke: rgb(255, 255, 255); stroke-opacity: 1; stroke-width: 1px;"/><path class="xgrid crisp" transform="translate(340.39,0)" d="M0,70v380" style="stroke: rgb(255, 255, 255); stroke-opacity: 1; stroke-width: 1px;"/><path class="xgrid crisp" transform="translate(437.54,0)" d="M0,70v380" style="stroke: rgb(255, 255, 255); stroke-opacity: 1; stroke-width: 1px;"/><path class="xgrid crisp" transform="translate(534.69,0)" d="M0,70v380" style="stroke: rgb(255, 255, 255); stroke-opacity: 1; stroke-width: 1px;"/><path class="xgrid crisp" transform="translate(629.73,0)" d="M0,70v380" style="stroke: rgb(255, 255, 255); stroke-opacity: 1; stroke-width: 1px;"/><path class="xgrid crisp" transform="translate(725.82,0)" d="M0,70v380" style="stroke: rgb(255, 255, 255); stroke-opacity: 1; stroke-width: 1px;"/></g><g class="y"/></g><g class="zerolinelayer"/><path class="xlines-below"/><path class="ylines-below"/><g class="overlines-below"/><g class="xaxislayer-below"/><g class="yaxislayer-below"/><g class="overaxes-below"/><g class="plot" transform="translate(50, 70)" clip-path="url('#clip45a22exyplot')"><g class="scatterlayer mlayer"><g class="trace scatter trace024dfc" style="stroke-miterlimit: 2;"><g class="fills"><g><path class="js-fill" d="M680.05,380L-143.61,380L-143.61,379.26L-117.21,379.56L-116.16,379.54L-86.59,379.51L-85.53,379.16L-80.25,377.96L-79.2,377.96L-54.91,379.1L-53.85,378.96L-47.52,379.07L-46.46,378.96L-41.18,378.83L-40.13,378.77L-19.01,377.82L-17.95,377.68L-1.06,377.85L0,377.68L6.34,376.1L7.39,374.77L9.5,374.47L10.56,373.24L11.62,372.43L12.67,370.52L15.84,366.46L16.9,366.49L22.18,352.15L23.23,351.88L24.29,351.61L25.34,346.84L27.46,342.26L28.51,341.39L30.62,338.56L31.68,338.17L34.85,334.58L35.9,334.88L38.02,336.84L39.07,337.14L40.13,341.39L41.18,342.23L42.24,348.58L43.3,349.02L45.41,351.99L46.46,352.18L47.52,353.9L48.57,358.28L49.63,356.76L50.69,359.92L52.8,362.94L53.85,362.89L55.97,367.33L57.02,367.44L61.25,367.11L62.3,365.29L67.58,360.95L68.64,360.87L69.69,360.38L70.75,358.45L72.86,356.08L73.92,355.15L76.03,354.5L77.09,352.34L79.2,349.51L80.25,350.16L83.42,347.17L84.48,348.12L85.53,350.3L86.59,350.71L87.65,351.39L88.7,356.7L90.81,358.5L91.87,358.58L93.98,358.31L95.04,358.69L96.09,358.66L97.15,357.63L99.26,357.85L100.32,358.8L102.43,359.89L103.49,356.49L105.6,357.66L106.65,358.07L110.88,361.25L111.93,361.25L115.1,361.8L116.16,361.36L120.38,361.42L121.44,361.88L125.66,363.65L126.72,363.62L128.83,363.49L129.89,364.22L133.05,364.55L134.11,364.39L136.22,364.55L137.28,364.77L144.67,370.38L145.72,370.25L148.89,370.27L149.95,370.22L154.17,370.79L155.23,371.06L161.56,370.63L162.62,369.1L165.79,368.09L166.84,367.22L171.07,366.51L172.12,366.19L173.18,365.29L174.24,365.61L177.4,363.38L178.46,363.51L179.52,363.65L180.57,362.45L182.68,358.53L183.74,356.08L185.85,352.04L186.91,352.13L187.96,350.25L189.02,350.05L191.13,349.21L192.19,350.35L194.3,349.92L195.36,356.08L197.47,353.9L198.52,353.79L200.64,353.16L201.69,353.24L202.75,347.08L203.8,348.94L205.92,351.09L206.97,351.88L213.31,356.05L214.36,356.59L221.75,362.43L222.81,364.25L223.87,364.06L224.92,365.2L227.03,366.68L228.09,366.98L230.2,367.44L231.26,367.6L234.43,368.12L235.48,370.27L238.65,368.45L239.71,369.13L241.82,370L242.87,368.96L244.99,370.11L246.04,370.11L247.1,372.21L248.15,371.61L251.32,371.61L252.38,372.04L253.43,372.18L254.49,370.74L256.6,371.85L257.66,372.18L259.77,373.68L260.83,373.65L265.05,376.51L266.11,376.65L271.39,377.06L272.44,377.33L276.67,377.79L277.72,378.23L287.23,379.21L288.28,379.21L293.56,378.77L294.62,378.53L299.9,378.23L300.95,378.39L304.12,377.08L305.18,376.98L309.4,370.79L310.46,368.09L313.62,365.34L314.68,364.66L316.79,364.85L317.85,366.54L319.96,366.59L321.02,367.47L326.3,369.67L327.35,369.32L334.74,367.66L335.8,368.09L337.91,368.8L338.97,369.51L342.14,370.6L343.19,370.3L345.3,371.44L346.36,371.42L349.53,371.88L350.58,372.81L352.7,372.56L353.75,372.07L357.98,372.45L359.03,372.51L363.26,374.17L364.31,374.39L366.42,375.34L367.48,375.69L379.1,376.21L380.15,376.76L387.54,378.72L388.6,378.75L399.16,378.45L400.21,378.53L408.66,378.28L409.72,378.01L417.11,377.96L418.17,377.44L424.5,376.19L425.56,375.91L426.61,375.56L427.67,376.13L429.78,374.36L430.84,374.25L432.95,372.13L434.01,371.14L436.12,367.82L437.17,367.25L438.23,367.3L439.29,366.46L444.57,356.51L445.62,356.35L447.73,351.74L448.79,350.44L451.96,345.97L453.01,345.78L456.18,343.79L457.24,345.45L458.29,345.26L459.35,345.89L461.46,345.97L462.52,346.29L467.8,347.47L468.85,348.45L469.91,349.56L470.97,348.88L473.08,347.08L474.13,350.27L475.19,349.29L476.25,341.61L480.47,304.82L481.52,304.58L482.58,302.29L483.64,276.1L486.8,235.97L487.86,227.44L488.92,208.47L489.97,207.03L492.08,196.02L493.14,191.39L495.25,166.02L496.31,154.01L497.36,152.72L498.42,124.82L503.7,33.24L504.76,29.92L506.87,3.76L507.92,0L508.98,1.8L510.04,5.5L511.09,9.92L512.15,10.05L516.37,54.28L517.43,72.4L519.54,89.7L520.6,129.48L524.82,207.47L525.88,219.89L526.93,220.9L527.99,238.83L531.16,269.02L532.21,276.29L533.27,281.55L534.32,282.64L537.49,297.33L538.55,299.1L543.83,310.08L544.88,311.58L547,316.29L548.05,316.81L550.16,317.08L551.22,317.49L554.39,307.9L555.44,303.73L556.5,302.83L557.56,294.33L561.78,276.95L562.84,273.6L563.89,272.7L564.95,264.28L568.11,247.82L569.17,243.57L570.23,239.92L571.28,240.9L572.34,241.72L573.39,241.23L574.45,240.22L575.51,241.25L576.56,240.82L577.62,244.69L579.73,244.74L580.79,245.29L581.84,247.93L582.9,247.25L583.95,250L585.01,249.95L586.07,250.84L587.12,255.91L591.35,274.47L592.4,277.22L593.46,277L594.51,302.59L595.57,297.87L596.63,301.01L599.79,311.36L600.85,312.32L601.91,299.29L602.96,311.91L605.07,318.94L606.13,323L607.19,325.86L608.24,325.59L610.35,330.95L611.41,333.41L616.69,338.47L617.75,341.34L621.97,350.38L623.03,350.3L625.14,356.89L626.19,358.83L629.36,364.14L630.42,364.5L633.59,367.63L634.64,369.7L635.7,369.21L636.75,369.67L637.81,369.54L638.87,370.41L640.98,369.35L642.03,367.19L643.09,367.17L644.15,366.13L645.2,366.13L646.26,368.64L648.37,365.26L649.43,364.8L651.54,363.79L652.59,363.71L653.65,358.91L654.7,360.16L659.98,358.39L661.04,356.62L664.21,350.74L665.26,348.83L666.32,345.97L667.38,345.78L672.66,314.28L673.71,311.8L674.77,311.28L675.82,305.96L677.94,300.74L678.99,299.1L680.05,297.05" style="fill: rgb(8, 115, 191); fill-opacity: 0.2; stroke-width: 0;"/></g></g><g class="errorbars"/><g class="lines"><path class="js-line" d="M-143.61,379.26L-117.21,379.56L-116.16,379.54L-86.59,379.51L-85.53,379.16L-80.25,377.96L-79.2,377.96L-54.91,379.1L-53.85,378.96L-47.52,379.07L-46.46,378.96L-41.18,378.83L-40.13,378.77L-19.01,377.82L-17.95,377.68L-1.06,377.85L0,377.68L6.34,376.1L7.39,374.77L9.5,374.47L10.56,373.24L11.62,372.43L12.67,370.52L15.84,366.46L16.9,366.49L22.18,352.15L23.23,351.88L24.29,351.61L25.34,346.84L27.46,342.26L28.51,341.39L30.62,338.56L31.68,338.17L34.85,334.58L35.9,334.88L38.02,336.84L39.07,337.14L40.13,341.39L41.18,342.23L42.24,348.58L43.3,349.02L45.41,351.99L46.46,352.18L47.52,353.9L48.57,358.28L49.63,356.76L50.69,359.92L52.8,362.94L53.85,362.89L55.97,367.33L57.02,367.44L61.25,367.11L62.3,365.29L67.58,360.95L68.64,360.87L69.69,360.38L70.75,358.45L72.86,356.08L73.92,355.15L76.03,354.5L77.09,352.34L79.2,349.51L80.25,350.16L83.42,347.17L84.48,348.12L85.53,350.3L86.59,350.71L87.65,351.39L88.7,356.7L90.81,358.5L91.87,358.58L93.98,358.31L95.04,358.69L96.09,358.66L97.15,357.63L99.26,357.85L100.32,358.8L102.43,359.89L103.49,356.49L105.6,357.66L106.65,358.07L110.88,361.25L111.93,361.25L115.1,361.8L116.16,361.36L120.38,361.42L121.44,361.88L125.66,363.65L126.72,363.62L128.83,363.49L129.89,364.22L133.05,364.55L134.11,364.39L136.22,364.55L137.28,364.77L144.67,370.38L145.72,370.25L148.89,370.27L149.95,370.22L154.17,370.79L155.23,371.06L161.56,370.63L162.62,369.1L165.79,368.09L166.84,367.22L171.07,366.51L172.12,366.19L173.18,365.29L174.24,365.61L177.4,363.38L178.46,363.51L179.52,363.65L180.57,362.45L182.68,358.53L183.74,356.08L185.85,352.04L186.91,352.13L187.96,350.25L189.02,350.05L191.13,349.21L192.19,350.35L194.3,349.92L195.36,356.08L197.47,353.9L198.52,353.79L200.64,353.16L201.69,353.24L202.75,347.08L203.8,348.94L205.92,351.09L206.97,351.88L213.31,356.05L214.36,356.59L221.75,362.43L222.81,364.25L223.87,364.06L224.92,365.2L227.03,366.68L228.09,366.98L230.2,367.44L231.26,367.6L234.43,368.12L235.48,370.27L238.65,368.45L239.71,369.13L241.82,370L242.87,368.96L244.99,370.11L246.04,370.11L247.1,372.21L248.15,371.61L251.32,371.61L252.38,372.04L253.43,372.18L254.49,370.74L256.6,371.85L257.66,372.18L259.77,373.68L260.83,373.65L265.05,376.51L266.11,376.65L271.39,377.06L272.44,377.33L276.67,377.79L277.72,378.23L287.23,379.21L288.28,379.21L293.56,378.77L294.62,378.53L299.9,378.23L300.95,378.39L304.12,377.08L305.18,376.98L309.4,370.79L310.46,368.09L313.62,365.34L314.68,364.66L316.79,364.85L317.85,366.54L319.96,366.59L321.02,367.47L326.3,369.67L327.35,369.32L334.74,367.66L335.8,368.09L337.91,368.8L338.97,369.51L342.14,370.6L343.19,370.3L345.3,371.44L346.36,371.42L349.53,371.88L350.58,372.81L352.7,372.56L353.75,372.07L357.98,372.45L359.03,372.51L363.26,374.17L364.31,374.39L366.42,375.34L367.48,375.69L379.1,376.21L380.15,376.76L387.54,378.72L388.6,378.75L399.16,378.45L400.21,378.53L408.66,378.28L409.72,378.01L417.11,377.96L418.17,377.44L424.5,376.19L425.56,375.91L426.61,375.56L427.67,376.13L429.78,374.36L430.84,374.25L432.95,372.13L434.01,371.14L436.12,367.82L437.17,367.25L438.23,367.3L439.29,366.46L444.57,356.51L445.62,356.35L447.73,351.74L448.79,350.44L451.96,345.97L453.01,345.78L456.18,343.79L457.24,345.45L458.29,345.26L459.35,345.89L461.46,345.97L462.52,346.29L467.8,347.47L468.85,348.45L469.91,349.56L470.97,348.88L473.08,347.08L474.13,350.27L475.19,349.29L476.25,341.61L480.47,304.82L481.52,304.58L482.58,302.29L483.64,276.1L486.8,235.97L487.86,227.44L488.92,208.47L489.97,207.03L492.08,196.02L493.14,191.39L495.25,166.02L496.31,154.01L497.36,152.72L498.42,124.82L503.7,33.24L504.76,29.92L506.87,3.76L507.92,0L508.98,1.8L510.04,5.5L511.09,9.92L512.15,10.05L516.37,54.28L517.43,72.4L519.54,89.7L520.6,129.48L524.82,207.47L525.88,219.89L526.93,220.9L527.99,238.83L531.16,269.02L532.21,276.29L533.27,281.55L534.32,282.64L537.49,297.33L538.55,299.1L543.83,310.08L544.88,311.58L547,316.29L548.05,316.81L550.16,317.08L551.22,317.49L554.39,307.9L555.44,303.73L556.5,302.83L557.56,294.33L561.78,276.95L562.84,273.6L563.89,272.7L564.95,264.28L568.11,247.82L569.17,243.57L570.23,239.92L571.28,240.9L572.34,241.72L573.39,241.23L574.45,240.22L575.51,241.25L576.56,240.82L577.62,244.69L579.73,244.74L580.79,245.29L581.84,247.93L582.9,247.25L583.95,250L585.01,249.95L586.07,250.84L587.12,255.91L591.35,274.47L592.4,277.22L593.46,277L594.51,302.59L595.57,297.87L596.63,301.01L599.79,311.36L600.85,312.32L601.91,299.29L602.96,311.91L605.07,318.94L606.13,323L607.19,325.86L608.24,325.59L610.35,330.95L611.41,333.41L616.69,338.47L617.75,341.34L621.97,350.38L623.03,350.3L625.14,356.89L626.19,358.83L629.36,364.14L630.42,364.5L633.59,367.63L634.64,369.7L635.7,369.21L636.75,369.67L637.81,369.54L638.87,370.41L640.98,369.35L642.03,367.19L643.09,367.17L644.15,366.13L645.2,366.13L646.26,368.64L648.37,365.26L649.43,364.8L651.54,363.79L652.59,363.71L653.65,358.91L654.7,360.16L659.98,358.39L661.04,356.62L664.21,350.74L665.26,348.83L666.32,345.97L667.38,345.78L672.66,314.28L673.71,311.8L674.77,311.28L675.82,305.96L677.94,300.74L678.99,299.1L680.05,297.05" style="vector-effect: non-scaling-stroke; fill: none; stroke: rgb(8, 115, 191); stroke-opacity: 1; stroke-width: 0.5px; opacity: 1;"/></g><g class="points"/><g class="text"/></g><g class="trace scatter trace74443d" style="stroke-miterlimit: 2;"><g class="fills"><g><path class="js-fill" d="M690.61,380L680.05,380L680.05,297.05L683.22,290.67L684.27,290.56L685.33,288.98L686.38,301.12L687.44,296.31L688.5,296.44L690.61,296.28" style="fill: rgb(8, 115, 191); fill-opacity: 0.4; stroke-width: 0;"/></g></g><g class="errorbars"/><g class="lines"><path class="js-line" d="M680.05,297.05L683.22,290.67L684.27,290.56L685.33,288.98L686.38,301.12L687.44,296.31L688.5,296.44L690.61,296.28" style="vector-effect: non-scaling-stroke; fill: none; stroke: rgb(8, 115, 191); stroke-opacity: 1; stroke-width: 2px; opacity: 1;"/></g><g class="points"/><g class="text"/></g><g class="trace scatter tracea70666" style="stroke-miterlimit: 2; opacity: 1;"><g class="fills"/><g class="errorbars"/><g class="lines"/><g class="points"><path class="point" transform="translate(690.61,296.28)" d="M15,0A15,15 0 1,1 0,-15A15,15 0 0,1 15,0Z" style="opacity: 1; stroke-width: 0px; fill: rgb(8, 115, 191); fill-opacity: 1;"/></g><g class="text"/></g></g></g><g class="overplot"/><path class="xlines-above crisp" style="fill: none; stroke-width: 1px; stroke: rgb(0, 0, 0); stroke-opacity: 0;" d=""/><path class="ylines-above crisp" style="fill: none;" d="M0,0"/><g class="overlines-above"/><g class="xaxislayer-above"><path class="xtick ticks crisp" d="M0,450v-5" transform="translate(52.11,0)" style="stroke: rgb(68, 68, 68); stroke-opacity: 1; stroke-width: 1px;"/><path class="xtick ticks crisp" d="M0,450v-5" transform="translate(149.26,0)" style="stroke: rgb(68, 68, 68); stroke-opacity: 1; stroke-width: 1px;"/><path class="xtick ticks crisp" d="M0,450v-5" transform="translate(244.3,0)" style="stroke: rgb(68, 68, 68); stroke-opacity: 1; stroke-width: 1px;"/><path class="xtick ticks crisp" d="M0,450v-5" transform="translate(340.39,0)" style="stroke: rgb(68, 68, 68); stroke-opacity: 1; stroke-width: 1px;"/><path class="xtick ticks crisp" d="M0,450v-5" transform="translate(437.54,0)" style="stroke: rgb(68, 68, 68); stroke-opacity: 1; stroke-width: 1px;"/><path class="xtick ticks crisp" d="M0,450v-5" transform="translate(534.69,0)" style="stroke: rgb(68, 68, 68); stroke-opacity: 1; stroke-width: 1px;"/><path class="xtick ticks crisp" d="M0,450v-5" transform="translate(629.73,0)" style="stroke: rgb(68, 68, 68); stroke-opacity: 1; stroke-width: 1px;"/><path class="xtick ticks crisp" d="M0,450v-5" transform="translate(725.82,0)" style="stroke: rgb(68, 68, 68); stroke-opacity: 1; stroke-width: 1px;"/><g class="xtick"><text text-anchor="middle" x="0" y="469" transform="translate(52.11,0)" style="font-family: 'Open Sans', verdana, arial, sans-serif; font-size: 18px; fill: rgb(42, 63, 95); fill-opacity: 1; white-space: pre;">01/10</text></g><g class="xtick"><text text-anchor="middle" x="0" y="469" transform="translate(149.26,0)" style="font-family: 'Open Sans', verdana, arial, sans-serif; font-size: 18px; fill: rgb(42, 63, 95); fill-opacity: 1; white-space: pre;">01/01</text></g><g class="xtick"><text text-anchor="middle" x="0" y="469" transform="translate(244.3,0)" style="font-family: 'Open Sans', verdana, arial, sans-serif; font-size: 18px; fill: rgb(42, 63, 95); fill-opacity: 1; white-space: pre;">01/04</text></g><g class="xtick"><text text-anchor="middle" x="0" y="469" transform="translate(340.39,0)" style="font-family: 'Open Sans', verdana, arial, sans-serif; font-size: 18px; fill: rgb(42, 63, 95); fill-opacity: 1; white-space: pre;">01/07</text></g><g class="xtick"><text text-anchor="middle" x="0" y="469" transform="translate(437.54,0)" style="font-family: 'Open Sans', verdana, arial, sans-serif; font-size: 18px; fill: rgb(42, 63, 95); fill-opacity: 1; white-space: pre;">01/10</text></g><g class="xtick"><text text-anchor="middle" x="0" y="469" transform="translate(534.69,0)" style="font-family: 'Open Sans', verdana, arial, sans-serif; font-size: 18px; fill: rgb(42, 63, 95); fill-opacity: 1; white-space: pre;">01/01</text></g><g class="xtick"><text text-anchor="middle" x="0" y="469" transform="translate(629.73,0)" style="font-family: 'Open Sans', verdana, arial, sans-serif; font-size: 18px; fill: rgb(42, 63, 95); fill-opacity: 1; white-space: pre;">01/04</text></g><g class="xtick"><text text-anchor="middle" x="0" y="469" transform="translate(725.82,0)" style="font-family: 'Open Sans', verdana, arial, sans-serif; font-size: 18px; fill: rgb(42, 63, 95); fill-opacity: 1; white-space: pre;">01/07</text></g></g><g class="yaxislayer-above"/><g class="overaxes-above"/></g></g><g class="polarlayer"/><g class="ternarylayer"/><g class="geolayer"/><g class="funnelarealayer"/><g class="pielayer"/><g class="treemaplayer"/><g class="sunburstlayer"/><g class="glimages"/><defs id="topdefs-45a22e"><g class="clips"/></defs><g class="layer-above"><g class="imagelayer"/><g class="shapelayer"><path data-index="0" fill-rule="evenodd" d="M-543.46,445.1L228.46,445.1" clip-path="url('#clip45a22exy')" style="opacity: 1; stroke: rgb(255, 0, 0); stroke-opacity: 1; fill: rgb(0, 0, 0); fill-opacity: 0; stroke-dasharray: 3px, 3px; stroke-width: 1.5px;"/></g></g><g class="infolayer"><g class="g-gtitle"><text class="gtitle" x="375" y="25" text-anchor="middle" dy="0.7em" style="font-family: 'Open Sans', verdana, arial, sans-serif; font-size: 50px; fill: rgb(42, 63, 95); opacity: 1; font-weight: normal; white-space: pre;"><tspan style="font-weight:bold">Vosges (88)</tspan></text></g><g class="g-xtitle"/><g class="annotation" data-index="0" style="opacity: 1;"><g class="annotation-text-g" transform="rotate(0,698.61,306.28)"><g class="cursor-pointer" transform="translate(641, 270)"><rect class="bg" x="0.5" y="0.5" width="115" height="71" style="stroke-width: 1px; stroke: rgb(0, 0, 0); stroke-opacity: 0; fill: rgb(255, 255, 255); fill-opacity: 0.6;"/><text class="annotation-text" text-anchor="middle" x="57.8125" y="55.5" style="font-family: 'Open Sans', verdana, arial, sans-serif; font-size: 50px; fill: rgb(8, 115, 191); fill-opacity: 1; white-space: pre;"> <tspan style="font-weight:bold">854 </tspan></text></g></g><g class="annotation-arrow-g" style="opacity: 1;"><path d="M727.01,341.78L738.61,356.28" style="stroke-width: 1px; stroke: rgb(8, 115, 191); stroke-opacity: 1; stroke-dasharray: 0px, 0px, 18.569px, 18.569px;"/></g></g></g></svg>