<svg class="main-svg" xmlns="http://www.w3.org/2000/svg" xmlns:xlink="http://www.w3.org/1999/xlink" width="1125" height="750" style="" viewBox="0 0 750 500"><rect x="0" y="0" width="750" height="500" style="fill: rgb(0, 0, 0); fill-opacity: 0;"/><defs id="defs-96566d"><g class="clips"><clipPath id="clip96566dxyplot" class="plotclip"><rect width="689" height="380"/></clipPath><clipPath class="axesclip" id="clip96566dx"><rect x="50" y="0" width="689" height="500"/></clipPath><clipPath class="axesclip" id="clip96566dy"><rect x="0" y="70" width="750" height="380"/></clipPath><clipPath class="axesclip" id="clip96566dxy"><rect x="50" y="70" width="689" height="380"/></clipPath></g><g class="gradients"/></defs><g class="bglayer"><rect class="bg" x="50" y="70" width="689" height="380" style="fill: rgb(0, 0, 0); fill-opacity: 0; stroke-width: 0;"/></g><g class="layer-below"><g class="imagelayer"/><g class="shapelayer"/></g><g class="cartesianlayer"><g class="subplot xy"><g class="layer-subplot"><g class="shapelayer"/><g class="imagelayer"/></g><g class="gridlayer"><g class="x"><path class="xgrid crisp" transform="translate(93.06,0)" d="M0,70v380" style="stroke: rgb(255, 255, 255); stroke-opacity: 1; stroke-width: 1px;"/><path class="xgrid crisp" transform="translate(172.66,0)" d="M0,70v380" style="stroke: rgb(255, 255, 255); stroke-opacity: 1; stroke-width: 1px;"/><path class="xgrid crisp" transform="translate(249.65,0)" d="M0,70v380" style="stroke: rgb(255, 255, 255); stroke-opacity: 1; stroke-width: 1px;"/><path class="xgrid crisp" transform="translate(329.25,0)" d="M0,70v380" style="stroke: rgb(255, 255, 255); stroke-opacity: 1; stroke-width: 1px;"/><path class="xgrid crisp" transform="translate(408.85,0)" d="M0,70v380" style="stroke: rgb(255, 255, 255); stroke-opacity: 1; stroke-width: 1px;"/><path class="xgrid crisp" transform="translate(489.76,0)" d="M0,70v380" style="stroke: rgb(255, 255, 255); stroke-opacity: 1; stroke-width: 1px;"/><path class="xgrid crisp" transform="translate(569.36,0)" d="M0,70v380" style="stroke: rgb(255, 255, 255); stroke-opacity: 1; stroke-width: 1px;"/><path class="xgrid crisp" transform="translate(648.96,0)" d="M0,70v380" style="stroke: rgb(255, 255, 255); stroke-opacity: 1; stroke-width: 1px;"/><path class="xgrid crisp" transform="translate(725.95,0)" d="M0,70v380" style="stroke: rgb(255, 255, 255); stroke-opacity: 1; stroke-width: 1px;"/></g><g class="y"/></g><g class="zerolinelayer"/><path class="xlines-below"/><path class="ylines-below"/><g class="overlines-below"/><g class="xaxislayer-below"/><g class="yaxislayer-below"/><g class="overaxes-below"/><g class="plot" transform="translate(50, 70)" clip-path="url('#clip96566dxyplot')"><g class="scatterlayer mlayer"><g class="trace scatter trace5b37f1" style="stroke-miterlimit: 2;"><g class="fills"><g><path class="js-fill" d="M666.82,380L-177.47,380L-177.47,377.87L-156.59,379.41L-155.29,379.89L-108.31,380L-107,380L-58.72,378.67L-57.42,378.4L-46.98,377.76L-45.67,375.95L-37.84,374.73L-36.54,375.9L-33.93,375.9L-32.62,374.89L-27.4,370.95L-26.1,370.84L-22.18,370.79L-20.88,368.71L-15.66,368.5L-14.35,367.27L-13.05,367.43L-11.74,370.79L-6.52,370.89L-5.22,372.28L-2.61,372.01L-1.3,371.64L1.3,372.28L2.61,372.39L6.52,371L7.83,371.53L10.44,369.35L11.74,369.19L14.35,366.15L15.66,366.42L18.27,366.26L19.57,366.15L20.88,366.31L22.18,364.5L24.79,363.49L26.1,361.15L30.01,358.91L31.32,358.81L33.93,355.4L35.23,355.88L39.15,356.36L40.45,354.76L44.37,353.8L45.67,351.94L48.28,352.42L49.59,354.49L50.89,356.78L52.2,360.88L53.5,360.46L54.81,362.96L58.72,363.81L60.03,364.77L61.33,363.81L62.64,366.9L65.25,368.6L66.55,368.82L67.86,371.64L69.16,371.48L70.47,368.71L71.77,368.76L75.69,368.34L76.99,367.43L78.3,366.21L79.6,366.79L82.21,365.36L83.52,365.14L86.13,365.57L87.43,367.01L90.04,369.03L91.34,369.14L93.95,368.92L95.26,367.86L96.56,367.17L97.87,367.97L100.48,369.24L101.78,369.78L104.39,370.47L105.7,368.71L108.31,368.18L109.61,369.62L112.22,369.3L113.53,369.78L114.83,371.11L116.14,370.57L121.36,369.35L122.66,367.17L126.58,365.94L127.88,364.08L130.49,364.61L131.8,365.84L134.41,368.6L135.71,367.91L138.32,367.22L139.63,367.11L142.24,362.91L143.54,361.73L147.46,362.69L148.76,362.64L151.37,363.39L152.68,362.8L153.98,362.27L155.29,362.91L157.9,361.84L159.2,362.64L164.42,363.86L165.73,364.18L169.64,366.31L170.95,367.65L172.25,368.28L173.55,369.88L177.47,371.53L178.77,372.33L181.38,373.34L182.69,373.13L193.13,371.59L194.43,372.01L197.04,373.5L198.35,372.97L206.18,372.86L207.48,373.4L210.09,374.41L211.4,374.52L216.62,373.93L217.92,373.08L223.14,371.27L224.45,369.51L225.75,367.7L227.06,367.27L229.67,365.14L230.97,365.04L233.58,363.28L234.89,363.55L238.8,362.69L240.11,362.59L241.41,366.15L242.72,364.72L244.02,365.3L245.33,363.92L249.24,365.99L250.55,363.49L251.85,366.79L253.16,368.02L254.46,370.15L255.77,370.26L259.68,370.04L260.98,369.03L263.59,368.34L264.9,369.51L267.51,369.99L268.81,371.96L272.73,375.31L274.03,374.89L276.64,374.36L277.95,373.45L281.86,372.92L283.17,373.29L287.08,374.83L288.39,375.63L291,376.27L292.3,376.49L298.83,375.37L300.13,374.73L307.96,375.42L309.27,375.53L313.18,375.05L314.49,374.04L317.1,374.89L318.4,374.25L323.62,374.73L324.93,374.94L335.37,377.12L336.67,377.6L339.28,378.3L340.59,378.3L341.89,379.04L343.2,378.78L353.63,378.83L354.94,379.04L361.46,378.19L362.77,377.18L366.68,375.79L367.99,375.85L370.6,375.05L371.9,376.11L374.51,373.24L375.82,372.54L377.12,372.28L378.43,369.72L381.04,363.65L382.34,363.76L386.26,362.37L387.56,360.24L390.17,360.4L391.48,359.87L392.78,359.71L394.09,360.56L395.39,360.78L396.7,362.27L398,362.53L399.31,361.89L400.61,361.89L401.92,360.94L404.53,359.18L405.83,359.45L407.14,358.91L408.44,360.4L411.05,360.19L412.36,360.24L417.58,361.89L418.88,363.07L421.49,364.88L422.8,365.14L425.41,365.73L426.71,366.42L430.63,368.98L431.93,368.92L437.15,372.01L438.45,371.59L441.06,371L442.37,371.85L446.28,371.96L447.59,372.97L452.81,374.94L454.11,375.1L456.72,375.21L458.03,375.31L464.55,375.53L465.86,374.83L468.47,375.1L469.77,374.67L473.69,376.01L474.99,376.7L477.6,376.65L478.91,377.87L485.43,376.38L486.74,376.33L494.57,376.38L495.87,376.49L499.79,376.33L501.09,376.96L506.31,375.74L507.62,375.85L511.53,374.67L512.84,374.46L514.14,374.41L515.45,375.31L518.05,373.4L519.36,373.82L521.97,373.56L523.27,373.66L524.58,371.27L525.88,371.69L527.19,371.43L528.49,372.23L533.71,371.21L535.02,370.36L536.32,369.62L537.63,366.9L541.54,364.98L542.85,363.23L545.46,358.91L546.76,354.81L548.07,350.5L549.37,349.01L550.68,348.42L551.98,342.62L554.59,335.11L555.9,334.1L558.51,328.99L559.81,328.72L561.12,325.84L562.42,325.04L565.03,324.25L566.34,324.51L568.95,325.1L570.25,329.15L572.86,331.54L574.17,334.42L576.78,340.38L578.08,340.86L579.39,342.19L580.69,342.3L582,343.52L583.3,341.18L584.61,338.57L585.91,340.75L587.22,339.64L588.52,331.54L591.13,310.24L592.44,299.27L593.74,288.99L595.05,289.1L596.35,287.66L597.66,266.63L600.27,245.43L601.57,238.19L602.88,230.79L604.18,217.26L605.48,214.5L606.79,206.35L608.09,206.99L609.4,196.98L610.7,190.69L612.01,179.88L613.31,169.92L614.62,167.58L617.23,125.3L618.53,106.93L622.45,62.36L623.75,58.31L626.36,17.68L627.67,8.84L628.97,0L630.28,0.75L631.58,0.16L632.89,3.04L636.8,28.49L638.11,41.27L640.72,54.8L642.02,57.09L647.24,127.75L648.55,142.07L649.85,151.39L651.16,153.52L653.77,192.88L655.07,205.98L658.99,236.43L660.29,238.67L662.9,260.56L664.21,267.91L666.82,278.5" style="fill: rgb(8, 115, 191); fill-opacity: 0.2; stroke-width: 0;"/></g></g><g class="errorbars"/><g class="lines"><path class="js-line" d="M-177.47,377.87L-156.59,379.41L-155.29,379.89L-108.31,380L-107,380L-58.72,378.67L-57.42,378.4L-46.98,377.76L-45.67,375.95L-37.84,374.73L-36.54,375.9L-33.93,375.9L-32.62,374.89L-27.4,370.95L-26.1,370.84L-22.18,370.79L-20.88,368.71L-15.66,368.5L-14.35,367.27L-13.05,367.43L-11.74,370.79L-6.52,370.89L-5.22,372.28L-2.61,372.01L-1.3,371.64L1.3,372.28L2.61,372.39L6.52,371L7.83,371.53L10.44,369.35L11.74,369.19L14.35,366.15L15.66,366.42L18.27,366.26L19.57,366.15L20.88,366.31L22.18,364.5L24.79,363.49L26.1,361.15L30.01,358.91L31.32,358.81L33.93,355.4L35.23,355.88L39.15,356.36L40.45,354.76L44.37,353.8L45.67,351.94L48.28,352.42L49.59,354.49L50.89,356.78L52.2,360.88L53.5,360.46L54.81,362.96L58.72,363.81L60.03,364.77L61.33,363.81L62.64,366.9L65.25,368.6L66.55,368.82L67.86,371.64L69.16,371.48L70.47,368.71L71.77,368.76L75.69,368.34L76.99,367.43L78.3,366.21L79.6,366.79L82.21,365.36L83.52,365.14L86.13,365.57L87.43,367.01L90.04,369.03L91.34,369.14L93.95,368.92L95.26,367.86L96.56,367.17L97.87,367.97L100.48,369.24L101.78,369.78L104.39,370.47L105.7,368.71L108.31,368.18L109.61,369.62L112.22,369.3L113.53,369.78L114.83,371.11L116.14,370.57L121.36,369.35L122.66,367.17L126.58,365.94L127.88,364.08L130.49,364.61L131.8,365.84L134.41,368.6L135.71,367.91L138.32,367.22L139.63,367.11L142.24,362.91L143.54,361.73L147.46,362.69L148.76,362.64L151.37,363.39L152.68,362.8L153.98,362.27L155.29,362.91L157.9,361.84L159.2,362.64L164.42,363.86L165.73,364.18L169.64,366.31L170.95,367.65L172.25,368.28L173.55,369.88L177.47,371.53L178.77,372.33L181.38,373.34L182.69,373.13L193.13,371.59L194.43,372.01L197.04,373.5L198.35,372.97L206.18,372.86L207.48,373.4L210.09,374.41L211.4,374.52L216.62,373.93L217.92,373.08L223.14,371.27L224.45,369.51L225.75,367.7L227.06,367.27L229.67,365.14L230.97,365.04L233.58,363.28L234.89,363.55L238.8,362.69L240.11,362.59L241.41,366.15L242.72,364.72L244.02,365.3L245.33,363.92L249.24,365.99L250.55,363.49L251.85,366.79L253.16,368.02L254.46,370.15L255.77,370.26L259.68,370.04L260.98,369.03L263.59,368.34L264.9,369.51L267.51,369.99L268.81,371.96L272.73,375.31L274.03,374.89L276.64,374.36L277.95,373.45L281.86,372.92L283.17,373.29L287.08,374.83L288.39,375.63L291,376.27L292.3,376.49L298.83,375.37L300.13,374.73L307.96,375.42L309.27,375.53L313.18,375.05L314.49,374.04L317.1,374.89L318.4,374.25L323.62,374.73L324.93,374.94L335.37,377.12L336.67,377.6L339.28,378.3L340.59,378.3L341.89,379.04L343.2,378.78L353.63,378.83L354.94,379.04L361.46,378.19L362.77,377.18L366.68,375.79L367.99,375.85L370.6,375.05L371.9,376.11L374.51,373.24L375.82,372.54L377.12,372.28L378.43,369.72L381.04,363.65L382.34,363.76L386.26,362.37L387.56,360.24L390.17,360.4L391.48,359.87L392.78,359.71L394.09,360.56L395.39,360.78L396.7,362.27L398,362.53L399.31,361.89L400.61,361.89L401.92,360.94L404.53,359.18L405.83,359.45L407.14,358.91L408.44,360.4L411.05,360.19L412.36,360.24L417.58,361.89L418.88,363.07L421.49,364.88L422.8,365.14L425.41,365.73L426.71,366.42L430.63,368.98L431.93,368.92L437.15,372.01L438.45,371.59L441.06,371L442.37,371.85L446.28,371.96L447.59,372.97L452.81,374.94L454.11,375.1L456.72,375.21L458.03,375.31L464.55,375.53L465.86,374.83L468.47,375.1L469.77,374.67L473.69,376.01L474.99,376.7L477.6,376.65L478.91,377.87L485.43,376.38L486.74,376.33L494.57,376.38L495.87,376.49L499.79,376.33L501.09,376.96L506.31,375.74L507.62,375.85L511.53,374.67L512.84,374.46L514.14,374.41L515.45,375.31L518.05,373.4L519.36,373.82L521.97,373.56L523.27,373.66L524.58,371.27L525.88,371.69L527.19,371.43L528.49,372.23L533.71,371.21L535.02,370.36L536.32,369.62L537.63,366.9L541.54,364.98L542.85,363.23L545.46,358.91L546.76,354.81L548.07,350.5L549.37,349.01L550.68,348.42L551.98,342.62L554.59,335.11L555.9,334.1L558.51,328.99L559.81,328.72L561.12,325.84L562.42,325.04L565.03,324.25L566.34,324.51L568.95,325.1L570.25,329.15L572.86,331.54L574.17,334.42L576.78,340.38L578.08,340.86L579.39,342.19L580.69,342.3L582,343.52L583.3,341.18L584.61,338.57L585.91,340.75L587.22,339.64L588.52,331.54L591.13,310.24L592.44,299.27L593.74,288.99L595.05,289.1L596.35,287.66L597.66,266.63L600.27,245.43L601.57,238.19L602.88,230.79L604.18,217.26L605.48,214.5L606.79,206.35L608.09,206.99L609.4,196.98L610.7,190.69L612.01,179.88L613.31,169.92L614.62,167.58L617.23,125.3L618.53,106.93L622.45,62.36L623.75,58.31L626.36,17.68L627.67,8.84L628.97,0L630.28,0.75L631.58,0.16L632.89,3.04L636.8,28.49L638.11,41.27L640.72,54.8L642.02,57.09L647.24,127.75L648.55,142.07L649.85,151.39L651.16,153.52L653.77,192.88L655.07,205.98L658.99,236.43L660.29,238.67L662.9,260.56L664.21,267.91L666.82,278.5" style="vector-effect: non-scaling-stroke; fill: none; stroke: rgb(8, 115, 191); stroke-opacity: 1; stroke-width: 0.5px; opacity: 1;"/></g><g class="points"/><g class="text"/></g><g class="trace scatter tracea148c0" style="stroke-miterlimit: 2;"><g class="fills"><g><path class="js-fill" d="M679.87,380L666.82,380L666.82,278.5L668.12,281.43L669.43,282.23L672.04,293.04L673.34,297.19L675.95,302.04L677.26,302.15L679.87,301.88" style="fill: rgb(8, 115, 191); fill-opacity: 0.4; stroke-width: 0;"/></g></g><g class="errorbars"/><g class="lines"><path class="js-line" d="M666.82,278.5L668.12,281.43L669.43,282.23L672.04,293.04L673.34,297.19L675.95,302.04L677.26,302.15L679.87,301.88" style="vector-effect: non-scaling-stroke; fill: none; stroke: rgb(8, 115, 191); stroke-opacity: 1; stroke-width: 2px; opacity: 1;"/></g><g class="points"/><g class="text"/></g><g class="trace scatter trace602c03" style="stroke-miterlimit: 2; opacity: 1;"><g class="fills"/><g class="errorbars"/><g class="lines"/><g class="points"><path class="point" transform="translate(679.87,301.88)" d="M15,0A15,15 0 1,1 0,-15A15,15 0 0,1 15,0Z" style="opacity: 1; stroke-width: 0px; fill: rgb(8, 115, 191); fill-opacity: 1;"/></g><g class="text"/></g></g></g><g class="overplot"/><path class="xlines-above crisp" style="fill: none; stroke-width: 1px; stroke: rgb(0, 0, 0); stroke-opacity: 0;" d=""/><path class="ylines-above crisp" style="fill: none;" d="M0,0"/><g class="overlines-above"/><g class="xaxislayer-above"><path class="xtick ticks crisp" d="M0,450v-5" transform="translate(93.06,0)" style="stroke: rgb(68, 68, 68); stroke-opacity: 1; stroke-width: 1px;"/><path class="xtick ticks crisp" d="M0,450v-5" transform="translate(172.66,0)" style="stroke: rgb(68, 68, 68); stroke-opacity: 1; stroke-width: 1px;"/><path class="xtick ticks crisp" d="M0,450v-5" transform="translate(249.65,0)" style="stroke: rgb(68, 68, 68); stroke-opacity: 1; stroke-width: 1px;"/><path class="xtick ticks crisp" d="M0,450v-5" transform="translate(329.25,0)" style="stroke: rgb(68, 68, 68); stroke-opacity: 1; stroke-width: 1px;"/><path class="xtick ticks crisp" d="M0,450v-5" transform="translate(408.85,0)" style="stroke: rgb(68, 68, 68); stroke-opacity: 1; stroke-width: 1px;"/><path class="xtick ticks crisp" d="M0,450v-5" transform="translate(489.76,0)" style="stroke: rgb(68, 68, 68); stroke-opacity: 1; stroke-width: 1px;"/><path class="xtick ticks crisp" d="M0,450v-5" transform="translate(569.36,0)" style="stroke: rgb(68, 68, 68); stroke-opacity: 1; stroke-width: 1px;"/><path class="xtick ticks crisp" d="M0,450v-5" transform="translate(648.96,0)" style="stroke: rgb(68, 68, 68); stroke-opacity: 1; stroke-width: 1px;"/><path class="xtick ticks crisp" d="M0,450v-5" transform="translate(725.95,0)" style="stroke: rgb(68, 68, 68); stroke-opacity: 1; stroke-width: 1px;"/><g class="xtick"><text text-anchor="middle" x="0" y="469" transform="translate(93.06,0)" style="font-family: 'Open Sans', verdana, arial, sans-serif; font-size: 18px; fill: rgb(42, 63, 95); fill-opacity: 1; white-space: pre;">01/11</text></g><g class="xtick"><text text-anchor="middle" x="0" y="469" transform="translate(172.66,0)" style="font-family: 'Open Sans', verdana, arial, sans-serif; font-size: 18px; fill: rgb(42, 63, 95); fill-opacity: 1; white-space: pre;">01/01</text></g><g class="xtick"><text text-anchor="middle" x="0" y="469" transform="translate(249.65,0)" style="font-family: 'Open Sans', verdana, arial, sans-serif; font-size: 18px; fill: rgb(42, 63, 95); fill-opacity: 1; white-space: pre;">01/03</text></g><g class="xtick"><text text-anchor="middle" x="0" y="469" transform="translate(329.25,0)" style="font-family: 'Open Sans', verdana, arial, sans-serif; font-size: 18px; fill: rgb(42, 63, 95); fill-opacity: 1; white-space: pre;">01/05</text></g><g class="xtick"><text text-anchor="middle" x="0" y="469" transform="translate(408.85,0)" style="font-family: 'Open Sans', verdana, arial, sans-serif; font-size: 18px; fill: rgb(42, 63, 95); fill-opacity: 1; white-space: pre;">01/07</text></g><g class="xtick"><text text-anchor="middle" x="0" y="469" transform="translate(489.76,0)" style="font-family: 'Open Sans', verdana, arial, sans-serif; font-size: 18px; fill: rgb(42, 63, 95); fill-opacity: 1; white-space: pre;">01/09</text></g><g class="xtick"><text text-anchor="middle" x="0" y="469" transform="translate(569.36,0)" style="font-family: 'Open Sans', verdana, arial, sans-serif; font-size: 18px; fill: rgb(42, 63, 95); fill-opacity: 1; white-space: pre;">01/11</text></g><g class="xtick"><text text-anchor="middle" x="0" y="469" transform="translate(648.96,0)" style="font-family: 'Open Sans', verdana, arial, sans-serif; font-size: 18px; fill: rgb(42, 63, 95); fill-opacity: 1; white-space: pre;">01/01</text></g><g class="xtick"><text text-anchor="middle" x="0" y="469" transform="translate(725.95,0)" style="font-family: 'Open Sans', verdana, arial, sans-serif; font-size: 18px; fill: rgb(42, 63, 95); fill-opacity: 1; white-space: pre;">01/03</text></g></g><g class="yaxislayer-above"/><g class="overaxes-above"/></g></g><g class="polarlayer"/><g class="ternarylayer"/><g class="geolayer"/><g class="funnelarealayer"/><g class="pielayer"/><g class="treemaplayer"/><g class="sunburstlayer"/><g class="glimages"/><defs id="topdefs-96566d"><g class="clips"/></defs><g class="layer-above"><g class="imagelayer"/><g class="shapelayer"><path data-index="0" fill-rule="evenodd" d="M-683.37,444.94L270.53,444.94" clip-path="url('#clip96566dxy')" style="opacity: 1; stroke: rgb(255, 0, 0); stroke-opacity: 1; fill: rgb(0, 0, 0); fill-opacity: 0; stroke-dasharray: 3px, 3px; stroke-width: 1.5px;"/></g></g><g class="infolayer"><g class="g-gtitle"><text class="gtitle" x="375" y="25" text-anchor="middle" dy="0.7em" style="font-family: 'Open Sans', verdana, arial, sans-serif; font-size: 50px; fill: rgb(42, 63, 95); opacity: 1; font-weight: normal; white-space: pre;"><tspan style="font-weight:bold">Gers (32)</tspan></text></g><g class="g-xtitle"/><g class="annotation" data-index="0" style="opacity: 1;"><g class="annotation-text-g" transform="rotate(0,687.87,311.88)"><g class="cursor-pointer" transform="translate(630, 276)"><rect class="bg" x="0.5" y="0.5" width="115" height="71" style="stroke-width: 1px; stroke: rgb(0, 0, 0); stroke-opacity: 0; fill: rgb(255, 255, 255); fill-opacity: 0.6;"/><text class="annotation-text" text-anchor="middle" x="57.8125" y="55.5" style="font-family: 'Open Sans', verdana, arial, sans-serif; font-size: 50px; fill: rgb(8, 115, 191); fill-opacity: 1; white-space: pre;"> <tspan style="font-weight:bold">771 </tspan></text></g></g><g class="annotation-arrow-g" style="opacity: 1;"><path d="M716.27,347.38L727.87,361.88" style="stroke-width: 1px; stroke: rgb(8, 115, 191); stroke-opacity: 1; stroke-dasharray: 0px, 0px, 18.569px, 18.569px;"/></g></g></g></svg>