<svg class="main-svg" xmlns="http://www.w3.org/2000/svg" xmlns:xlink="http://www.w3.org/1999/xlink" width="1125" height="750" style="" viewBox="0 0 750 500"><rect x="0" y="0" width="750" height="500" style="fill: rgb(0, 0, 0); fill-opacity: 0;"/><defs id="defs-3c26f0"><g class="clips"><clipPath id="clip3c26f0xyplot" class="plotclip"><rect width="679" height="380"/></clipPath><clipPath class="axesclip" id="clip3c26f0x"><rect x="50" y="0" width="679" height="500"/></clipPath><clipPath class="axesclip" id="clip3c26f0y"><rect x="0" y="70" width="750" height="380"/></clipPath><clipPath class="axesclip" id="clip3c26f0xy"><rect x="50" y="70" width="679" height="380"/></clipPath></g><g class="gradients"/></defs><g class="bglayer"><rect class="bg" x="50" y="70" width="679" height="380" style="fill: rgb(0, 0, 0); fill-opacity: 0; stroke-width: 0;"/></g><g class="layer-below"><g class="imagelayer"/><g class="shapelayer"/></g><g class="cartesianlayer"><g class="subplot xy"><g class="layer-subplot"><g class="shapelayer"/><g class="imagelayer"/></g><g class="gridlayer"><g class="x"><path class="xgrid crisp" transform="translate(88.57,0)" d="M0,70v380" style="stroke: rgb(255, 255, 255); stroke-opacity: 1; stroke-width: 1px;"/><path class="xgrid crisp" transform="translate(159.86,0)" d="M0,70v380" style="stroke: rgb(255, 255, 255); stroke-opacity: 1; stroke-width: 1px;"/><path class="xgrid crisp" transform="translate(228.81,0)" d="M0,70v380" style="stroke: rgb(255, 255, 255); stroke-opacity: 1; stroke-width: 1px;"/><path class="xgrid crisp" transform="translate(300.1,0)" d="M0,70v380" style="stroke: rgb(255, 255, 255); stroke-opacity: 1; stroke-width: 1px;"/><path class="xgrid crisp" transform="translate(371.39,0)" d="M0,70v380" style="stroke: rgb(255, 255, 255); stroke-opacity: 1; stroke-width: 1px;"/><path class="xgrid crisp" transform="translate(443.84,0)" d="M0,70v380" style="stroke: rgb(255, 255, 255); stroke-opacity: 1; stroke-width: 1px;"/><path class="xgrid crisp" transform="translate(515.13,0)" d="M0,70v380" style="stroke: rgb(255, 255, 255); stroke-opacity: 1; stroke-width: 1px;"/><path class="xgrid crisp" transform="translate(586.42,0)" d="M0,70v380" style="stroke: rgb(255, 255, 255); stroke-opacity: 1; stroke-width: 1px;"/><path class="xgrid crisp" transform="translate(655.37,0)" d="M0,70v380" style="stroke: rgb(255, 255, 255); stroke-opacity: 1; stroke-width: 1px;"/><path class="xgrid crisp" transform="translate(726.66,0)" d="M0,70v380" style="stroke: rgb(255, 255, 255); stroke-opacity: 1; stroke-width: 1px;"/></g><g class="y"/></g><g class="zerolinelayer"/><path class="xlines-below"/><path class="ylines-below"/><g class="overlines-below"/><g class="xaxislayer-below"/><g class="yaxislayer-below"/><g class="overaxes-below"/><g class="plot" transform="translate(50, 70)" clip-path="url('#clip3c26f0xyplot')"><g class="scatterlayer mlayer"><g class="trace scatter trace0af42e" style="stroke-miterlimit: 2;"><g class="fills"><g><path class="js-fill" d="M659.13,380L-158.94,380L-158.94,379.5L-142.58,379.87L-141.41,379.92L-46.75,379L-45.58,378.62L-39.73,378.04L-38.57,378L-32.72,378L-31.55,377.75L-23.37,376.24L-22.2,376.45L-19.87,374.28L-18.7,374.4L-15.19,374.49L-14.02,374.53L-12.86,376.33L-11.69,375.82L-9.35,375.53L-8.18,376.41L-1.17,375.99L0,375.49L2.34,375.28L3.51,373.69L12.86,366.64L14.02,365.09L16.36,360.29L17.53,359.58L18.7,359.2L19.87,356.57L25.71,339.33L26.88,339.33L30.39,325.76L31.55,324.63L33.89,325.96L35.06,325.76L36.23,322.46L37.4,324.63L38.57,325.05L39.73,324.17L40.9,324.67L42.07,326.17L43.24,326.38L44.41,331.73L45.58,333.61L46.75,342.33L47.92,342.84L49.08,345.22L52.59,348.14L53.76,350.69L54.93,347.3L56.1,354.49L58.43,358.45L59.6,358.58L63.11,366.43L64.28,366.85L66.61,367.39L67.78,367.31L70.12,368.47L71.29,368.43L74.8,366.85L75.96,366.85L79.47,360.71L80.64,359.91L82.98,356.74L84.14,356.28L85.31,356.57L86.48,354.95L87.65,352.98L88.82,352.52L89.99,353.69L91.16,353.48L92.33,353.98L93.49,353.32L94.66,352.23L95.83,354.24L97,353.86L98.17,357.16L101.67,357.91L102.84,359.41L104.01,355.65L105.18,355.36L106.35,355.24L107.52,354.36L108.69,354.03L109.86,350.23L111.02,348.31L112.19,350.39L113.36,349.18L114.53,344.84L116.87,346.59L118.04,349.68L119.2,352.44L120.37,352.65L122.71,354.07L123.88,354.03L125.05,354.03L126.22,353.15L129.72,353.53L130.89,354.95L133.23,354.61L134.4,355.99L135.57,357.2L136.73,359.75L139.07,357.87L140.24,358.29L143.75,359.75L144.92,359.12L148.42,361.29L149.59,361.17L155.43,366.51L156.6,365.84L157.77,365.89L158.94,365.13L167.12,364.67L168.29,364.47L171.8,362.67L172.96,363.09L176.47,363.38L177.64,364.59L178.81,365.05L179.98,363.46L182.31,363.17L183.48,364.3L185.82,362.96L186.99,362.84L188.16,364.84L189.33,364.93L190.49,365.01L191.66,363.59L192.83,363.05L194,361.21L196.34,358.75L197.51,357.87L198.67,357.74L199.84,355.11L204.52,346.01L205.69,345.72L208.02,345.93L209.19,344L210.36,342.88L211.53,345.13L213.87,343.34L215.04,343L216.2,348.68L217.37,349.98L218.54,352.11L219.71,352.19L223.22,353.61L224.39,347.64L226.72,350.02L227.89,348.51L232.57,349.1L233.73,348.97L234.9,349.35L236.07,351.15L237.24,352.4L238.41,352.31L239.58,352.56L240.75,353.61L243.08,355.74L244.25,357.16L245.42,357.62L246.59,359.66L247.76,359.41L248.93,361L250.1,362.63L251.27,362.84L253.6,365.47L254.77,365.72L255.94,365.89L257.11,366.93L259.45,367.81L260.61,369.35L261.78,370.1L262.95,369.06L265.29,369.85L266.46,370.52L267.63,371.56L268.8,370.52L272.3,371.19L273.47,373.4L275.81,372.36L276.98,372.07L280.48,371.9L281.65,370.02L283.99,371.15L285.16,371.69L287.49,373.24L288.66,373.24L293.34,375.87L294.51,376.24L296.84,376.07L298.01,377.08L302.69,377.95L303.86,378.16L321.39,379.21L322.55,379.04L330.73,377.75L331.9,377.2L334.24,376.58L335.41,376.24L340.08,375.57L341.25,374.49L345.93,373.32L347.1,371.9L350.6,370.44L351.77,369.98L357.61,370.56L358.78,370.27L361.12,368.56L362.29,368.39L366.96,365.64L368.13,366.26L372.81,365.89L373.98,366.18L376.31,365.8L377.48,365.26L378.65,365.3L379.82,364.51L383.33,362.84L384.49,363.46L389.17,365.76L390.34,367.14L392.67,368.6L393.84,369.18L396.18,369.35L397.35,369.98L400.86,371.44L402.02,371.15L403.19,371.19L404.36,372.02L406.7,371.65L407.87,371.15L411.37,371.65L412.54,371.48L414.88,372.9L416.05,373.53L419.55,373.61L420.72,372.61L423.06,373.24L424.23,373.61L427.73,374.36L428.9,375.74L432.41,374.53L433.58,374.32L438.25,374.7L439.42,374.86L448.77,373.57L449.94,374.36L455.78,373.61L456.95,373.95L460.46,372.98L461.63,373.95L462.8,372.73L463.96,372.78L466.3,372.07L467.47,371.9L468.64,371.69L469.81,369.14L470.98,369.02L472.14,368.02L473.31,368.47L474.48,366.26L475.65,364.97L476.82,364.93L480.33,361L481.49,357.49L485,357.07L486.17,354.82L489.67,351.44L490.84,351.02L493.18,350.48L494.35,348.93L495.52,344.92L496.69,344.51L500.19,335.03L501.36,335.11L502.53,333.23L503.7,334.32L507.2,332.48L508.37,334.48L509.54,334.48L510.71,336.03L511.88,336.11L513.05,337.03L515.39,339.49L516.55,339.41L517.72,339.45L518.89,340.29L520.06,339.08L521.23,336.03L523.57,328.8L524.73,331.77L525.9,330.85L527.07,316.44L529.41,287.3L530.58,268.25L531.75,253.89L532.92,253.31L534.08,251.34L535.25,229.67L537.59,199.85L538.76,193.76L539.93,184.4L541.1,163.57L542.27,162.15L543.43,156.89L544.6,155.59L545.77,150.54L546.94,148.91L548.11,142.69L551.61,117.42L552.78,101.14L557.46,44.72L558.63,43.8L560.96,12.99L562.13,9.44L564.47,0L565.64,0.75L566.81,0.08L567.98,0.29L571.48,36.79L572.65,55.71L573.82,71.07L574.99,75.83L578.49,173L579.66,197.27L582,227.5L583.17,229.59L585.51,255.64L586.67,264.25L590.18,278.44L591.35,279.49L596.02,299.49L597.19,303.08L598.36,306.21L599.53,306.55L601.87,311.27L603.04,312.35L604.2,313.94L605.37,312.69L607.71,312.35L608.88,308.84L614.72,295.15L615.89,294.27L618.23,281.74L619.4,274.56L621.73,257.4L622.9,253.01L624.07,252.76L625.24,239.4L631.08,210.04L632.25,210.5L634.59,200.4L635.76,198.31L639.27,204.49L640.43,204.45L641.6,210.84L642.77,210.59L643.94,212.67L645.11,211.17L646.28,207.96L647.45,208.16L648.61,207.08L649.78,209.58L650.95,212.47L652.12,212.67L654.46,223.62L655.63,225.33L656.8,226.87L657.96,258.86L659.13,259.19" style="fill: rgb(8, 115, 191); fill-opacity: 0.2; stroke-width: 0;"/></g></g><g class="errorbars"/><g class="lines"><path class="js-line" d="M-158.94,379.5L-142.58,379.87L-141.41,379.92L-46.75,379L-45.58,378.62L-39.73,378.04L-38.57,378L-32.72,378L-31.55,377.75L-23.37,376.24L-22.2,376.45L-19.87,374.28L-18.7,374.4L-15.19,374.49L-14.02,374.53L-12.86,376.33L-11.69,375.82L-9.35,375.53L-8.18,376.41L-1.17,375.99L0,375.49L2.34,375.28L3.51,373.69L12.86,366.64L14.02,365.09L16.36,360.29L17.53,359.58L18.7,359.2L19.87,356.57L25.71,339.33L26.88,339.33L30.39,325.76L31.55,324.63L33.89,325.96L35.06,325.76L36.23,322.46L37.4,324.63L38.57,325.05L39.73,324.17L40.9,324.67L42.07,326.17L43.24,326.38L44.41,331.73L45.58,333.61L46.75,342.33L47.92,342.84L49.08,345.22L52.59,348.14L53.76,350.69L54.93,347.3L56.1,354.49L58.43,358.45L59.6,358.58L63.11,366.43L64.28,366.85L66.61,367.39L67.78,367.31L70.12,368.47L71.29,368.43L74.8,366.85L75.96,366.85L79.47,360.71L80.64,359.91L82.98,356.74L84.14,356.28L85.31,356.57L86.48,354.95L87.65,352.98L88.82,352.52L89.99,353.69L91.16,353.48L92.33,353.98L93.49,353.32L94.66,352.23L95.83,354.24L97,353.86L98.17,357.16L101.67,357.91L102.84,359.41L104.01,355.65L105.18,355.36L106.35,355.24L107.52,354.36L108.69,354.03L109.86,350.23L111.02,348.31L112.19,350.39L113.36,349.18L114.53,344.84L116.87,346.59L118.04,349.68L119.2,352.44L120.37,352.65L122.71,354.07L123.88,354.03L125.05,354.03L126.22,353.15L129.72,353.53L130.89,354.95L133.23,354.61L134.4,355.99L135.57,357.2L136.73,359.75L139.07,357.87L140.24,358.29L143.75,359.75L144.92,359.12L148.42,361.29L149.59,361.17L155.43,366.51L156.6,365.84L157.77,365.89L158.94,365.13L167.12,364.67L168.29,364.47L171.8,362.67L172.96,363.09L176.47,363.38L177.64,364.59L178.81,365.05L179.98,363.46L182.31,363.17L183.48,364.3L185.82,362.96L186.99,362.84L188.16,364.84L189.33,364.93L190.49,365.01L191.66,363.59L192.83,363.05L194,361.21L196.34,358.75L197.51,357.87L198.67,357.74L199.84,355.11L204.52,346.01L205.69,345.72L208.02,345.93L209.19,344L210.36,342.88L211.53,345.13L213.87,343.34L215.04,343L216.2,348.68L217.37,349.98L218.54,352.11L219.71,352.19L223.22,353.61L224.39,347.64L226.72,350.02L227.89,348.51L232.57,349.1L233.73,348.97L234.9,349.35L236.07,351.15L237.24,352.4L238.41,352.31L239.58,352.56L240.75,353.61L243.08,355.74L244.25,357.16L245.42,357.62L246.59,359.66L247.76,359.41L248.93,361L250.1,362.63L251.27,362.84L253.6,365.47L254.77,365.72L255.94,365.89L257.11,366.93L259.45,367.81L260.61,369.35L261.78,370.1L262.95,369.06L265.29,369.85L266.46,370.52L267.63,371.56L268.8,370.52L272.3,371.19L273.47,373.4L275.81,372.36L276.98,372.07L280.48,371.9L281.65,370.02L283.99,371.15L285.16,371.69L287.49,373.24L288.66,373.24L293.34,375.87L294.51,376.24L296.84,376.07L298.01,377.08L302.69,377.95L303.86,378.16L321.39,379.21L322.55,379.04L330.73,377.75L331.9,377.2L334.24,376.58L335.41,376.24L340.08,375.57L341.25,374.49L345.93,373.32L347.1,371.9L350.6,370.44L351.77,369.98L357.61,370.56L358.78,370.27L361.12,368.56L362.29,368.39L366.96,365.64L368.13,366.26L372.81,365.89L373.98,366.18L376.31,365.8L377.48,365.26L378.65,365.3L379.82,364.51L383.33,362.84L384.49,363.46L389.17,365.76L390.34,367.14L392.67,368.6L393.84,369.18L396.18,369.35L397.35,369.98L400.86,371.44L402.02,371.15L403.19,371.19L404.36,372.02L406.7,371.65L407.87,371.15L411.37,371.65L412.54,371.48L414.88,372.9L416.05,373.53L419.55,373.61L420.72,372.61L423.06,373.24L424.23,373.61L427.73,374.36L428.9,375.74L432.41,374.53L433.58,374.32L438.25,374.7L439.42,374.86L448.77,373.57L449.94,374.36L455.78,373.61L456.95,373.95L460.46,372.98L461.63,373.95L462.8,372.73L463.96,372.78L466.3,372.07L467.47,371.9L468.64,371.69L469.81,369.14L470.98,369.02L472.14,368.02L473.31,368.47L474.48,366.26L475.65,364.97L476.82,364.93L480.33,361L481.49,357.49L485,357.07L486.17,354.82L489.67,351.44L490.84,351.02L493.18,350.48L494.35,348.93L495.52,344.92L496.69,344.51L500.19,335.03L501.36,335.11L502.53,333.23L503.7,334.32L507.2,332.48L508.37,334.48L509.54,334.48L510.71,336.03L511.88,336.11L513.05,337.03L515.39,339.49L516.55,339.41L517.72,339.45L518.89,340.29L520.06,339.08L521.23,336.03L523.57,328.8L524.73,331.77L525.9,330.85L527.07,316.44L529.41,287.3L530.58,268.25L531.75,253.89L532.92,253.31L534.08,251.34L535.25,229.67L537.59,199.85L538.76,193.76L539.93,184.4L541.1,163.57L542.27,162.15L543.43,156.89L544.6,155.59L545.77,150.54L546.94,148.91L548.11,142.69L551.61,117.42L552.78,101.14L557.46,44.72L558.63,43.8L560.96,12.99L562.13,9.44L564.47,0L565.64,0.75L566.81,0.08L567.98,0.29L571.48,36.79L572.65,55.71L573.82,71.07L574.99,75.83L578.49,173L579.66,197.27L582,227.5L583.17,229.59L585.51,255.64L586.67,264.25L590.18,278.44L591.35,279.49L596.02,299.49L597.19,303.08L598.36,306.21L599.53,306.55L601.87,311.27L603.04,312.35L604.2,313.94L605.37,312.69L607.71,312.35L608.88,308.84L614.72,295.15L615.89,294.27L618.23,281.74L619.4,274.56L621.73,257.4L622.9,253.01L624.07,252.76L625.24,239.4L631.08,210.04L632.25,210.5L634.59,200.4L635.76,198.31L639.27,204.49L640.43,204.45L641.6,210.84L642.77,210.59L643.94,212.67L645.11,211.17L646.28,207.96L647.45,208.16L648.61,207.08L649.78,209.58L650.95,212.47L652.12,212.67L654.46,223.62L655.63,225.33L656.8,226.87L657.96,258.86L659.13,259.19" style="vector-effect: non-scaling-stroke; fill: none; stroke: rgb(8, 115, 191); stroke-opacity: 1; stroke-width: 0.5px; opacity: 1;"/></g><g class="points"/><g class="text"/></g><g class="trace scatter tracee525fb" style="stroke-miterlimit: 2;"><g class="fills"><g><path class="js-fill" d="M670.82,380L659.13,380L659.13,259.19L663.81,283.83L664.98,284.16L666.14,265.12L667.31,275.6L669.65,283.33L670.82,285.63" style="fill: rgb(8, 115, 191); fill-opacity: 0.4; stroke-width: 0;"/></g></g><g class="errorbars"/><g class="lines"><path class="js-line" d="M659.13,259.19L663.81,283.83L664.98,284.16L666.14,265.12L667.31,275.6L669.65,283.33L670.82,285.63" style="vector-effect: non-scaling-stroke; fill: none; stroke: rgb(8, 115, 191); stroke-opacity: 1; stroke-width: 2px; opacity: 1;"/></g><g class="points"/><g class="text"/></g><g class="trace scatter trace3c29f8" style="stroke-miterlimit: 2; opacity: 1;"><g class="fills"/><g class="errorbars"/><g class="lines"/><g class="points"><path class="point" transform="translate(670.82,285.63)" d="M15,0A15,15 0 1,1 0,-15A15,15 0 0,1 15,0Z" style="opacity: 1; stroke-width: 0px; fill: rgb(8, 115, 191); fill-opacity: 1;"/></g><g class="text"/></g></g></g><g class="overplot"/><path class="xlines-above crisp" style="fill: none; stroke-width: 1px; stroke: rgb(0, 0, 0); stroke-opacity: 0;" d=""/><path class="ylines-above crisp" style="fill: none;" d="M0,0"/><g class="overlines-above"/><g class="xaxislayer-above"><path class="xtick ticks crisp" d="M0,450v-5" transform="translate(88.57,0)" style="stroke: rgb(68, 68, 68); stroke-opacity: 1; stroke-width: 1px;"/><path class="xtick ticks crisp" d="M0,450v-5" transform="translate(159.86,0)" style="stroke: rgb(68, 68, 68); stroke-opacity: 1; stroke-width: 1px;"/><path class="xtick ticks crisp" d="M0,450v-5" transform="translate(228.81,0)" style="stroke: rgb(68, 68, 68); stroke-opacity: 1; stroke-width: 1px;"/><path class="xtick ticks crisp" d="M0,450v-5" transform="translate(300.1,0)" style="stroke: rgb(68, 68, 68); stroke-opacity: 1; stroke-width: 1px;"/><path class="xtick ticks crisp" d="M0,450v-5" transform="translate(371.39,0)" style="stroke: rgb(68, 68, 68); stroke-opacity: 1; stroke-width: 1px;"/><path class="xtick ticks crisp" d="M0,450v-5" transform="translate(443.84,0)" style="stroke: rgb(68, 68, 68); stroke-opacity: 1; stroke-width: 1px;"/><path class="xtick ticks crisp" d="M0,450v-5" transform="translate(515.13,0)" style="stroke: rgb(68, 68, 68); stroke-opacity: 1; stroke-width: 1px;"/><path class="xtick ticks crisp" d="M0,450v-5" transform="translate(586.42,0)" style="stroke: rgb(68, 68, 68); stroke-opacity: 1; stroke-width: 1px;"/><path class="xtick ticks crisp" d="M0,450v-5" transform="translate(655.37,0)" style="stroke: rgb(68, 68, 68); stroke-opacity: 1; stroke-width: 1px;"/><path class="xtick ticks crisp" d="M0,450v-5" transform="translate(726.66,0)" style="stroke: rgb(68, 68, 68); stroke-opacity: 1; stroke-width: 1px;"/><g class="xtick"><text text-anchor="middle" x="0" y="469" transform="translate(88.57,0)" style="font-family: 'Open Sans', verdana, arial, sans-serif; font-size: 18px; fill: rgb(42, 63, 95); fill-opacity: 1; white-space: pre;">01/11</text></g><g class="xtick"><text text-anchor="middle" x="0" y="469" transform="translate(159.86,0)" style="font-family: 'Open Sans', verdana, arial, sans-serif; font-size: 18px; fill: rgb(42, 63, 95); fill-opacity: 1; white-space: pre;">01/01</text></g><g class="xtick"><text text-anchor="middle" x="0" y="469" transform="translate(228.81,0)" style="font-family: 'Open Sans', verdana, arial, sans-serif; font-size: 18px; fill: rgb(42, 63, 95); fill-opacity: 1; white-space: pre;">01/03</text></g><g class="xtick"><text text-anchor="middle" x="0" y="469" transform="translate(300.1,0)" style="font-family: 'Open Sans', verdana, arial, sans-serif; font-size: 18px; fill: rgb(42, 63, 95); fill-opacity: 1; white-space: pre;">01/05</text></g><g class="xtick"><text text-anchor="middle" x="0" y="469" transform="translate(371.39,0)" style="font-family: 'Open Sans', verdana, arial, sans-serif; font-size: 18px; fill: rgb(42, 63, 95); fill-opacity: 1; white-space: pre;">01/07</text></g><g class="xtick"><text text-anchor="middle" x="0" y="469" transform="translate(443.84,0)" style="font-family: 'Open Sans', verdana, arial, sans-serif; font-size: 18px; fill: rgb(42, 63, 95); fill-opacity: 1; white-space: pre;">01/09</text></g><g class="xtick"><text text-anchor="middle" x="0" y="469" transform="translate(515.13,0)" style="font-family: 'Open Sans', verdana, arial, sans-serif; font-size: 18px; fill: rgb(42, 63, 95); fill-opacity: 1; white-space: pre;">01/11</text></g><g class="xtick"><text text-anchor="middle" x="0" y="469" transform="translate(586.42,0)" style="font-family: 'Open Sans', verdana, arial, sans-serif; font-size: 18px; fill: rgb(42, 63, 95); fill-opacity: 1; white-space: pre;">01/01</text></g><g class="xtick"><text text-anchor="middle" x="0" y="469" transform="translate(655.37,0)" style="font-family: 'Open Sans', verdana, arial, sans-serif; font-size: 18px; fill: rgb(42, 63, 95); fill-opacity: 1; white-space: pre;">01/03</text></g><g class="xtick"><text text-anchor="middle" x="0" y="469" transform="translate(726.66,0)" style="font-family: 'Open Sans', verdana, arial, sans-serif; font-size: 18px; fill: rgb(42, 63, 95); fill-opacity: 1; white-space: pre;">01/05</text></g></g><g class="yaxislayer-above"/><g class="overaxes-above"/></g></g><g class="polarlayer"/><g class="ternarylayer"/><g class="geolayer"/><g class="funnelarealayer"/><g class="pielayer"/><g class="treemaplayer"/><g class="sunburstlayer"/><g class="glimages"/><defs id="topdefs-3c26f0"><g class="clips"/></defs><g class="layer-above"><g class="imagelayer"/><g class="shapelayer"><path data-index="0" fill-rule="evenodd" d="M-606.8,443.81L247.51,443.81" clip-path="url('#clip3c26f0xy')" style="opacity: 1; stroke: rgb(255, 0, 0); stroke-opacity: 1; fill: rgb(0, 0, 0); fill-opacity: 0; stroke-dasharray: 3px, 3px; stroke-width: 1.5px;"/></g></g><g class="infolayer"><g class="g-gtitle"><text class="gtitle" x="375" y="25" text-anchor="middle" dy="0.7em" style="font-family: 'Open Sans', verdana, arial, sans-serif; font-size: 50px; fill: rgb(42, 63, 95); opacity: 1; font-weight: normal; white-space: pre;"><tspan style="font-weight:bold">Cher (18)</tspan></text></g><g class="g-xtitle"/><g class="annotation" data-index="0" style="opacity: 1;"><g class="annotation-text-g" transform="rotate(0,678.82,295.63)"><g class="cursor-pointer" transform="translate(621, 260)"><rect class="bg" x="0.5" y="0.5" width="115" height="71" style="stroke-width: 1px; stroke: rgb(0, 0, 0); stroke-opacity: 0; fill: rgb(255, 255, 255); fill-opacity: 0.6;"/><text class="annotation-text" text-anchor="middle" x="57.8125" y="55.5" style="font-family: 'Open Sans', verdana, arial, sans-serif; font-size: 50px; fill: rgb(8, 115, 191); fill-opacity: 1; white-space: pre;"> <tspan style="font-weight:bold">762 </tspan></text></g></g><g class="annotation-arrow-g" style="opacity: 1;"><path d="M707.22,331.13L718.82,345.63" style="stroke-width: 1px; stroke: rgb(8, 115, 191); stroke-opacity: 1; stroke-dasharray: 0px, 0px, 18.5691px, 18.5691px;"/></g></g></g></svg>