<svg class="main-svg" xmlns="http://www.w3.org/2000/svg" xmlns:xlink="http://www.w3.org/1999/xlink" width="1125" height="750" style="" viewBox="0 0 750 500"><rect x="0" y="0" width="750" height="500" style="fill: rgb(0, 0, 0); fill-opacity: 0;"/><defs id="defs-ba6bb6"><g class="clips"><clipPath id="clipba6bb6xyplot" class="plotclip"><rect width="695" height="380"/></clipPath><clipPath class="axesclip" id="clipba6bb6x"><rect x="50" y="0" width="695" height="500"/></clipPath><clipPath class="axesclip" id="clipba6bb6y"><rect x="0" y="70" width="750" height="380"/></clipPath><clipPath class="axesclip" id="clipba6bb6xy"><rect x="50" y="70" width="695" height="380"/></clipPath></g><g class="gradients"/></defs><g class="bglayer"><rect class="bg" x="50" y="70" width="695" height="380" style="fill: rgb(0, 0, 0); fill-opacity: 0; stroke-width: 0;"/></g><g class="layer-below"><g class="imagelayer"/><g class="shapelayer"/></g><g class="cartesianlayer"><g class="subplot xy"><g class="layer-subplot"><g class="shapelayer"/><g class="imagelayer"/></g><g class="gridlayer"><g class="x"><path class="xgrid crisp" transform="translate(52.11,0)" d="M0,70v380" style="stroke: rgb(255, 255, 255); stroke-opacity: 1; stroke-width: 1px;"/><path class="xgrid crisp" transform="translate(149.29000000000002,0)" d="M0,70v380" style="stroke: rgb(255, 255, 255); stroke-opacity: 1; stroke-width: 1px;"/><path class="xgrid crisp" transform="translate(244.35,0)" d="M0,70v380" style="stroke: rgb(255, 255, 255); stroke-opacity: 1; stroke-width: 1px;"/><path class="xgrid crisp" transform="translate(340.46,0)" d="M0,70v380" style="stroke: rgb(255, 255, 255); stroke-opacity: 1; stroke-width: 1px;"/><path class="xgrid crisp" transform="translate(437.64,0)" d="M0,70v380" style="stroke: rgb(255, 255, 255); stroke-opacity: 1; stroke-width: 1px;"/><path class="xgrid crisp" transform="translate(534.81,0)" d="M0,70v380" style="stroke: rgb(255, 255, 255); stroke-opacity: 1; stroke-width: 1px;"/><path class="xgrid crisp" transform="translate(629.87,0)" d="M0,70v380" style="stroke: rgb(255, 255, 255); stroke-opacity: 1; stroke-width: 1px;"/><path class="xgrid crisp" transform="translate(725.99,0)" d="M0,70v380" style="stroke: rgb(255, 255, 255); stroke-opacity: 1; stroke-width: 1px;"/></g><g class="y"/></g><g class="zerolinelayer"/><path class="xlines-below"/><path class="ylines-below"/><g class="overlines-below"/><g class="xaxislayer-below"/><g class="yaxislayer-below"/><g class="overaxes-below"/><g class="plot" transform="translate(50, 70)" clip-path="url('#clipba6bb6xyplot')"><g class="scatterlayer mlayer"><g class="trace scatter trace8ea455" style="stroke-miterlimit: 2;"><g class="fills"><g><path class="js-fill" d="M677.04,380L-143.65,380L-143.65,378.94L-129.92,379.64L-128.86,379.73L-100.34,379.68L-99.29,379.73L-60.21,378.82L-59.15,378.65L-48.59,378.72L-47.53,378.63L-27.46,375.16L-26.41,374.58L-11.62,371.64L-10.56,370.96L-9.51,368.88L-8.45,369.28L-3.17,369.56L-2.11,371.26L3.17,366.79L4.22,365.35L6.34,363.25L7.39,363.04L9.51,362.75L10.56,360.75L13.73,356.73L14.79,354.26L17.96,351.71L19.01,349.39L20.07,346.36L21.12,346.14L23.24,344.86L24.29,344.65L26.41,340.46L27.46,339.44L30.63,331.23L31.69,331.47L32.74,328.69L33.8,328.13L34.86,327.62L35.91,328.47L38.02,332.57L39.08,332.69L41.19,339.96L42.25,347.68L45.42,354.13L46.47,354.27L48.59,359.5L49.64,357.38L51.76,361.76L52.81,362.42L53.87,362.45L54.92,364.61L60.21,367.88L61.26,367.98L64.43,370.13L65.49,370.6L67.6,370.87L68.66,370.17L71.82,369.17L72.88,368.53L74.99,367.78L76.05,368.4L80.27,367.96L81.33,367.76L84.5,367.62L85.55,366.69L87.67,367.07L88.72,369.15L94,368.97L95.06,368.68L96.12,368.63L97.17,367.45L99.29,366.91L100.34,366.12L102.45,363.5L103.51,360.83L105.62,360.72L106.68,360L109.85,358.22L110.9,356.58L113.02,356.68L114.07,355.44L116.19,355.1L117.24,355.13L120.41,355.76L121.47,355.43L124.64,355.33L125.69,354.99L127.8,354.62L128.86,355.19L129.92,354.49L130.97,355.22L134.14,356.52L135.2,356.6L137.31,358.9L138.37,358.48L141.53,359.09L142.59,359L144.7,357.44L145.76,357.09L148.93,354.8L149.98,354.74L153.15,352.44L154.21,352.26L156.32,351.73L157.38,351.69L160.55,353.12L161.6,352.27L163.72,351.64L164.77,351.69L165.83,351.29L166.88,349.75L169,346.98L170.05,346.15L172.17,345.56L173.22,343.37L174.28,343.1L175.33,342.04L178.5,337.34L179.56,336.97L185.9,325.91L186.95,325.94L188.01,325.16L189.07,323.4L191.18,321.8L192.23,322.5L194.35,322.21L195.4,332.62L196.46,330.86L197.52,331.85L198.57,333.58L199.63,333.63L201.74,335.3L202.8,325.64L204.91,332.92L205.97,334.01L210.19,336.92L211.25,336.72L212.3,336.04L213.36,336.41L215.47,338.28L216.53,338.25L222.86,351.67L223.92,351.62L229.2,354.88L230.26,354.2L231.31,354.26L232.37,356.11L234.48,356.91L235.54,359.64L238.71,358.76L239.76,359.07L241.88,360.25L242.93,357.87L243.99,359.6L245.05,359.78L246.1,359.84L247.16,364.21L249.27,365.18L250.33,366.03L253.5,367.45L254.55,365.93L256.66,369.11L257.72,370.27L259.83,372.14L260.89,372.24L266.17,375.78L267.23,376.16L269.34,376.96L270.4,377.35L285.18,378.85L286.24,378.58L298.91,377.36L299.97,377.08L301.03,377.36L302.08,376.79L307.36,373.91L308.42,372.59L312.64,371.39L313.7,370.2L316.87,369.52L317.93,369.42L324.26,367.7L325.32,367.07L327.43,367.34L328.49,366.7L332.71,366.5L333.77,365.62L336.94,365.9L337.99,366.34L340.11,366.48L341.16,366.86L349.61,366.28L350.67,366.79L353.84,368.84L354.89,369.25L362.29,371.27L363.34,371.27L367.57,371.58L368.62,371.9L374.96,373.53L376.02,374.12L383.41,375.76L384.47,375.95L390.81,376.56L391.86,376.65L398.2,376.83L399.26,376.77L404.54,375.24L405.59,374.96L408.76,374.18L409.82,373.83L416.16,374L417.21,374.98L419.32,374.59L420.38,374.4L423.55,374.02L424.6,372.52L426.72,372.45L427.77,373.29L433.05,370.25L434.11,369.23L435.17,367.13L436.22,366.77L440.45,363.94L441.5,362.86L442.56,361.52L443.62,358.72L444.67,357.42L445.73,357.39L449.95,348.44L451.01,348.18L454.18,345.87L455.24,344.56L456.29,343.46L457.35,344.16L459.46,342.18L460.52,341.91L462.63,338.93L463.69,337.99L467.91,335.55L468.97,333.17L470.02,330.4L471.08,324.42L473.19,311.53L474.25,314.89L475.3,312.78L476.36,287.3L480.59,182.74L481.64,181.06L482.7,176.88L483.75,135.3L485.87,99.27L486.92,92.17L487.98,75.52L489.03,42.44L490.09,38.1L491.15,42.35L492.2,43.69L493.26,38.66L495.37,31.12L496.43,25.56L498.54,15.73L499.6,7.86L501.71,0L502.77,0.84L503.82,0.88L504.88,3.49L505.93,1.05L506.99,12.79L511.22,49.52L512.27,53.3L516.5,130.59L517.55,150.19L519.67,172.64L520.72,205.68L523.89,257.76L524.95,269.31L526,277.49L527.06,279.32L530.23,305.1L531.28,309.69L533.4,317.58L534.45,317.81L536.57,324.75L537.62,326.6L542.9,337.64L543.96,338.96L546.07,340.78L547.13,340.45L550.3,340.55L551.35,339.67L553.47,337.29L554.52,335.25L555.58,332.48L556.63,331.92L558.75,323.17L559.8,319.55L562.97,309.99L564.03,308.89L570.36,272.3L571.42,271.95L573.53,256.48L574.59,251.91L576.7,247.26L577.76,245.6L578.81,245.41L579.87,243.77L581.98,241.55L583.04,240.13L585.15,238.46L586.21,238.98L592.55,264.12L593.6,264.59L594.66,289.79L595.71,285.35L599.94,306.59L601,307.08L602.05,293.7L603.11,308.48L607.33,324.42L608.39,325.33L610.5,331.29L611.56,331.86L614.73,333.11L615.78,333.08L621.06,338.59L622.12,339.72L623.18,339.68L624.23,342.76L627.4,348.53L628.46,350.52L631.63,355.67L632.68,356.65L633.74,358.41L634.79,361.89L635.85,360.87L636.91,360.96L637.96,360.94L639.02,360.11L641.13,359.06L642.19,355.99L643.24,356.67L644.3,355.59L645.36,355.39L646.41,359.38L648.53,351L649.58,348.52L651.69,344.88L652.75,344.75L653.81,335.6L654.86,337.6L659.09,332.89L660.14,332.56L664.37,317.49L665.43,311.98L666.48,307.03L667.54,306.43L670.71,281.25L671.76,274.92L673.88,266.87L674.93,265.35L677.04,253.83" style="fill: rgb(8, 115, 191); fill-opacity: 0.2; stroke-width: 0;"/></g></g><g class="errorbars"/><g class="lines"><path class="js-line" d="M-143.65,378.94L-129.92,379.64L-128.86,379.73L-100.34,379.68L-99.29,379.73L-60.21,378.82L-59.15,378.65L-48.59,378.72L-47.53,378.63L-27.46,375.16L-26.41,374.58L-11.62,371.64L-10.56,370.96L-9.51,368.88L-8.45,369.28L-3.17,369.56L-2.11,371.26L3.17,366.79L4.22,365.35L6.34,363.25L7.39,363.04L9.51,362.75L10.56,360.75L13.73,356.73L14.79,354.26L17.96,351.71L19.01,349.39L20.07,346.36L21.12,346.14L23.24,344.86L24.29,344.65L26.41,340.46L27.46,339.44L30.63,331.23L31.69,331.47L32.74,328.69L33.8,328.13L34.86,327.62L35.91,328.47L38.02,332.57L39.08,332.69L41.19,339.96L42.25,347.68L45.42,354.13L46.47,354.27L48.59,359.5L49.64,357.38L51.76,361.76L52.81,362.42L53.87,362.45L54.92,364.61L60.21,367.88L61.26,367.98L64.43,370.13L65.49,370.6L67.6,370.87L68.66,370.17L71.82,369.17L72.88,368.53L74.99,367.78L76.05,368.4L80.27,367.96L81.33,367.76L84.5,367.62L85.55,366.69L87.67,367.07L88.72,369.15L94,368.97L95.06,368.68L96.12,368.63L97.17,367.45L99.29,366.91L100.34,366.12L102.45,363.5L103.51,360.83L105.62,360.72L106.68,360L109.85,358.22L110.9,356.58L113.02,356.68L114.07,355.44L116.19,355.1L117.24,355.13L120.41,355.76L121.47,355.43L124.64,355.33L125.69,354.99L127.8,354.62L128.86,355.19L129.92,354.49L130.97,355.22L134.14,356.52L135.2,356.6L137.31,358.9L138.37,358.48L141.53,359.09L142.59,359L144.7,357.44L145.76,357.09L148.93,354.8L149.98,354.74L153.15,352.44L154.21,352.26L156.32,351.73L157.38,351.69L160.55,353.12L161.6,352.27L163.72,351.64L164.77,351.69L165.83,351.29L166.88,349.75L169,346.98L170.05,346.15L172.17,345.56L173.22,343.37L174.28,343.1L175.33,342.04L178.5,337.34L179.56,336.97L185.9,325.91L186.95,325.94L188.01,325.16L189.07,323.4L191.18,321.8L192.23,322.5L194.35,322.21L195.4,332.62L196.46,330.86L197.52,331.85L198.57,333.58L199.63,333.63L201.74,335.3L202.8,325.64L204.91,332.92L205.97,334.01L210.19,336.92L211.25,336.72L212.3,336.04L213.36,336.41L215.47,338.28L216.53,338.25L222.86,351.67L223.92,351.62L229.2,354.88L230.26,354.2L231.31,354.26L232.37,356.11L234.48,356.91L235.54,359.64L238.71,358.76L239.76,359.07L241.88,360.25L242.93,357.87L243.99,359.6L245.05,359.78L246.1,359.84L247.16,364.21L249.27,365.18L250.33,366.03L253.5,367.45L254.55,365.93L256.66,369.11L257.72,370.27L259.83,372.14L260.89,372.24L266.17,375.78L267.23,376.16L269.34,376.96L270.4,377.35L285.18,378.85L286.24,378.58L298.91,377.36L299.97,377.08L301.03,377.36L302.08,376.79L307.36,373.91L308.42,372.59L312.64,371.39L313.7,370.2L316.87,369.52L317.93,369.42L324.26,367.7L325.32,367.07L327.43,367.34L328.49,366.7L332.71,366.5L333.77,365.62L336.94,365.9L337.99,366.34L340.11,366.48L341.16,366.86L349.61,366.28L350.67,366.79L353.84,368.84L354.89,369.25L362.29,371.27L363.34,371.27L367.57,371.58L368.62,371.9L374.96,373.53L376.02,374.12L383.41,375.76L384.47,375.95L390.81,376.56L391.86,376.65L398.2,376.83L399.26,376.77L404.54,375.24L405.59,374.96L408.76,374.18L409.82,373.83L416.16,374L417.21,374.98L419.32,374.59L420.38,374.4L423.55,374.02L424.6,372.52L426.72,372.45L427.77,373.29L433.05,370.25L434.11,369.23L435.17,367.13L436.22,366.77L440.45,363.94L441.5,362.86L442.56,361.52L443.62,358.72L444.67,357.42L445.73,357.39L449.95,348.44L451.01,348.18L454.18,345.87L455.24,344.56L456.29,343.46L457.35,344.16L459.46,342.18L460.52,341.91L462.63,338.93L463.69,337.99L467.91,335.55L468.97,333.17L470.02,330.4L471.08,324.42L473.19,311.53L474.25,314.89L475.3,312.78L476.36,287.3L480.59,182.74L481.64,181.06L482.7,176.88L483.75,135.3L485.87,99.27L486.92,92.17L487.98,75.52L489.03,42.44L490.09,38.1L491.15,42.35L492.2,43.69L493.26,38.66L495.37,31.12L496.43,25.56L498.54,15.73L499.6,7.86L501.71,0L502.77,0.84L503.82,0.88L504.88,3.49L505.93,1.05L506.99,12.79L511.22,49.52L512.27,53.3L516.5,130.59L517.55,150.19L519.67,172.64L520.72,205.68L523.89,257.76L524.95,269.31L526,277.49L527.06,279.32L530.23,305.1L531.28,309.69L533.4,317.58L534.45,317.81L536.57,324.75L537.62,326.6L542.9,337.64L543.96,338.96L546.07,340.78L547.13,340.45L550.3,340.55L551.35,339.67L553.47,337.29L554.52,335.25L555.58,332.48L556.63,331.92L558.75,323.17L559.8,319.55L562.97,309.99L564.03,308.89L570.36,272.3L571.42,271.95L573.53,256.48L574.59,251.91L576.7,247.26L577.76,245.6L578.81,245.41L579.87,243.77L581.98,241.55L583.04,240.13L585.15,238.46L586.21,238.98L592.55,264.12L593.6,264.59L594.66,289.79L595.71,285.35L599.94,306.59L601,307.08L602.05,293.7L603.11,308.48L607.33,324.42L608.39,325.33L610.5,331.29L611.56,331.86L614.73,333.11L615.78,333.08L621.06,338.59L622.12,339.72L623.18,339.68L624.23,342.76L627.4,348.53L628.46,350.52L631.63,355.67L632.68,356.65L633.74,358.41L634.79,361.89L635.85,360.87L636.91,360.96L637.96,360.94L639.02,360.11L641.13,359.06L642.19,355.99L643.24,356.67L644.3,355.59L645.36,355.39L646.41,359.38L648.53,351L649.58,348.52L651.69,344.88L652.75,344.75L653.81,335.6L654.86,337.6L659.09,332.89L660.14,332.56L664.37,317.49L665.43,311.98L666.48,307.03L667.54,306.43L670.71,281.25L671.76,274.92L673.88,266.87L674.93,265.35L677.04,253.83" style="vector-effect: non-scaling-stroke; fill: none; stroke: rgb(8, 115, 191); stroke-opacity: 1; stroke-width: 0.5px; opacity: 1;"/></g><g class="points"/><g class="text"/></g><g class="trace scatter trace3e00b4" style="stroke-miterlimit: 2;"><g class="fills"><g><path class="js-fill" d="M687.61,380L677.04,380L677.04,253.83L679.16,248.86L680.21,247.5L682.33,247.72L683.38,252.51L685.49,263.43L686.55,281.2L687.61,282.2" style="fill: rgb(8, 115, 191); fill-opacity: 0.4; stroke-width: 0;"/></g></g><g class="errorbars"/><g class="lines"><path class="js-line" d="M677.04,253.83L679.16,248.86L680.21,247.5L682.33,247.72L683.38,252.51L685.49,263.43L686.55,281.2L687.61,282.2" style="vector-effect: non-scaling-stroke; fill: none; stroke: rgb(8, 115, 191); stroke-opacity: 1; stroke-width: 2px; opacity: 1;"/></g><g class="points"/><g class="text"/></g><g class="trace scatter tracebbaeee" style="stroke-miterlimit: 2; opacity: 1;"><g class="fills"/><g class="errorbars"/><g class="lines"/><g class="points"><path class="point" transform="translate(687.61,282.2)" d="M15,0A15,15 0 1,1 0,-15A15,15 0 0,1 15,0Z" style="opacity: 1; stroke-width: 0px; fill: rgb(8, 115, 191); fill-opacity: 1;"/></g><g class="text"/></g></g></g><g class="overplot"/><path class="xlines-above crisp" style="fill: none; stroke-width: 1px; stroke: rgb(0, 0, 0); stroke-opacity: 0;" d=""/><path class="ylines-above crisp" style="fill: none;" d="M0,0"/><g class="overlines-above"/><g class="xaxislayer-above"><path class="xtick ticks crisp" d="M0,450v-5" transform="translate(52.11,0)" style="stroke: rgb(68, 68, 68); stroke-opacity: 1; stroke-width: 1px;"/><path class="xtick ticks crisp" d="M0,450v-5" transform="translate(149.29000000000002,0)" style="stroke: rgb(68, 68, 68); stroke-opacity: 1; stroke-width: 1px;"/><path class="xtick ticks crisp" d="M0,450v-5" transform="translate(244.35,0)" style="stroke: rgb(68, 68, 68); stroke-opacity: 1; stroke-width: 1px;"/><path class="xtick ticks crisp" d="M0,450v-5" transform="translate(340.46,0)" style="stroke: rgb(68, 68, 68); stroke-opacity: 1; stroke-width: 1px;"/><path class="xtick ticks crisp" d="M0,450v-5" transform="translate(437.64,0)" style="stroke: rgb(68, 68, 68); stroke-opacity: 1; stroke-width: 1px;"/><path class="xtick ticks crisp" d="M0,450v-5" transform="translate(534.81,0)" style="stroke: rgb(68, 68, 68); stroke-opacity: 1; stroke-width: 1px;"/><path class="xtick ticks crisp" d="M0,450v-5" transform="translate(629.87,0)" style="stroke: rgb(68, 68, 68); stroke-opacity: 1; stroke-width: 1px;"/><path class="xtick ticks crisp" d="M0,450v-5" transform="translate(725.99,0)" style="stroke: rgb(68, 68, 68); stroke-opacity: 1; stroke-width: 1px;"/><g class="xtick"><text text-anchor="middle" x="0" y="469" transform="translate(52.11,0)" style="font-family: 'Open Sans', verdana, arial, sans-serif; font-size: 18px; fill: rgb(42, 63, 95); fill-opacity: 1; white-space: pre;">01/10</text></g><g class="xtick"><text text-anchor="middle" x="0" y="469" transform="translate(149.29000000000002,0)" style="font-family: 'Open Sans', verdana, arial, sans-serif; font-size: 18px; fill: rgb(42, 63, 95); fill-opacity: 1; white-space: pre;">01/01</text></g><g class="xtick"><text text-anchor="middle" x="0" y="469" transform="translate(244.35,0)" style="font-family: 'Open Sans', verdana, arial, sans-serif; font-size: 18px; fill: rgb(42, 63, 95); fill-opacity: 1; white-space: pre;">01/04</text></g><g class="xtick"><text text-anchor="middle" x="0" y="469" transform="translate(340.46,0)" style="font-family: 'Open Sans', verdana, arial, sans-serif; font-size: 18px; fill: rgb(42, 63, 95); fill-opacity: 1; white-space: pre;">01/07</text></g><g class="xtick"><text text-anchor="middle" x="0" y="469" transform="translate(437.64,0)" style="font-family: 'Open Sans', verdana, arial, sans-serif; font-size: 18px; fill: rgb(42, 63, 95); fill-opacity: 1; white-space: pre;">01/10</text></g><g class="xtick"><text text-anchor="middle" x="0" y="469" transform="translate(534.81,0)" style="font-family: 'Open Sans', verdana, arial, sans-serif; font-size: 18px; fill: rgb(42, 63, 95); fill-opacity: 1; white-space: pre;">01/01</text></g><g class="xtick"><text text-anchor="middle" x="0" y="469" transform="translate(629.87,0)" style="font-family: 'Open Sans', verdana, arial, sans-serif; font-size: 18px; fill: rgb(42, 63, 95); fill-opacity: 1; white-space: pre;">01/04</text></g><g class="xtick"><text text-anchor="middle" x="0" y="469" transform="translate(725.99,0)" style="font-family: 'Open Sans', verdana, arial, sans-serif; font-size: 18px; fill: rgb(42, 63, 95); fill-opacity: 1; white-space: pre;">01/07</text></g></g><g class="yaxislayer-above"/><g class="overaxes-above"/></g></g><g class="polarlayer"/><g class="ternarylayer"/><g class="geolayer"/><g class="funnelarealayer"/><g class="pielayer"/><g class="treemaplayer"/><g class="sunburstlayer"/><g class="glimages"/><defs id="topdefs-ba6bb6"><g class="clips"/></defs><g class="layer-above"><g class="imagelayer"/><g class="shapelayer"><path data-index="0" fill-rule="evenodd" d="M-543.6,444.66L228.5,444.66" clip-path="url('#clipba6bb6xy')" style="opacity: 1; stroke: rgb(255, 0, 0); stroke-opacity: 1; fill: rgb(0, 0, 0); fill-opacity: 0; stroke-dasharray: 3px, 3px; stroke-width: 1.5px;"/></g></g><g class="infolayer"><g class="g-gtitle"><text class="gtitle" x="375" y="25" text-anchor="middle" dy="0.7em" style="font-family: 'Open Sans', verdana, arial, sans-serif; font-size: 50px; fill: rgb(42, 63, 95); opacity: 1; font-weight: normal; white-space: pre;"><tspan style="font-weight:bold">Oise (60)</tspan></text></g><g class="g-xtitle"/><g class="annotation" data-index="0" style="opacity: 1;"><g class="annotation-text-g" transform="rotate(0,695.61,292.2)"><g class="cursor-pointer" transform="translate(638, 256)"><rect class="bg" x="0.5" y="0.5" width="115" height="71" style="stroke-width: 1px; stroke: rgb(0, 0, 0); stroke-opacity: 0; fill: rgb(255, 255, 255); fill-opacity: 0.6;"/><text class="annotation-text" text-anchor="middle" x="57.8125" y="55.5" style="font-family: 'Open Sans', verdana, arial, sans-serif; font-size: 50px; fill: rgb(8, 115, 191); fill-opacity: 1; white-space: pre;"> <tspan style="font-weight:bold">916 </tspan></text></g></g><g class="annotation-arrow-g" style="opacity: 1;"><path d="M724.01,327.7L735.61,342.2" style="stroke-width: 1px; stroke: rgb(8, 115, 191); stroke-opacity: 1; stroke-dasharray: 0px, 0px, 18.569px, 18.569px;"/></g></g></g></svg>