<svg class="main-svg" xmlns="http://www.w3.org/2000/svg" xmlns:xlink="http://www.w3.org/1999/xlink" width="1125" height="750" style="" viewBox="0 0 750 500"><rect x="0" y="0" width="750" height="500" style="fill: rgb(0, 0, 0); fill-opacity: 0;"/><defs id="defs-f1ec44"><g class="clips"><clipPath id="clipf1ec44xyplot" class="plotclip"><rect width="700" height="380"/></clipPath><clipPath class="axesclip" id="clipf1ec44x"><rect x="50" y="0" width="700" height="500"/></clipPath><clipPath class="axesclip" id="clipf1ec44y"><rect x="0" y="70" width="750" height="380"/></clipPath><clipPath class="axesclip" id="clipf1ec44xy"><rect x="50" y="70" width="700" height="380"/></clipPath></g><g class="gradients"/></defs><g class="bglayer"><rect class="bg" x="50" y="70" width="700" height="380" style="fill: rgb(0, 0, 0); fill-opacity: 0; stroke-width: 0;"/></g><g class="layer-below"><g class="imagelayer"/><g class="shapelayer"/></g><g class="cartesianlayer"><g class="subplot xy"><g class="layer-subplot"><g class="shapelayer"/><g class="imagelayer"/></g><g class="gridlayer"><g class="x"><path class="xgrid crisp" transform="translate(90.53,0)" d="M0,70v380" style="stroke: rgb(255, 255, 255); stroke-opacity: 1; stroke-width: 1px;"/><path class="xgrid crisp" transform="translate(165.44,0)" d="M0,70v380" style="stroke: rgb(255, 255, 255); stroke-opacity: 1; stroke-width: 1px;"/><path class="xgrid crisp" transform="translate(237.89,0)" d="M0,70v380" style="stroke: rgb(255, 255, 255); stroke-opacity: 1; stroke-width: 1px;"/><path class="xgrid crisp" transform="translate(312.81,0)" d="M0,70v380" style="stroke: rgb(255, 255, 255); stroke-opacity: 1; stroke-width: 1px;"/><path class="xgrid crisp" transform="translate(387.72,0)" d="M0,70v380" style="stroke: rgb(255, 255, 255); stroke-opacity: 1; stroke-width: 1px;"/><path class="xgrid crisp" transform="translate(463.86,0)" d="M0,70v380" style="stroke: rgb(255, 255, 255); stroke-opacity: 1; stroke-width: 1px;"/><path class="xgrid crisp" transform="translate(538.77,0)" d="M0,70v380" style="stroke: rgb(255, 255, 255); stroke-opacity: 1; stroke-width: 1px;"/><path class="xgrid crisp" transform="translate(613.68,0)" d="M0,70v380" style="stroke: rgb(255, 255, 255); stroke-opacity: 1; stroke-width: 1px;"/><path class="xgrid crisp" transform="translate(686.14,0)" d="M0,70v380" style="stroke: rgb(255, 255, 255); stroke-opacity: 1; stroke-width: 1px;"/></g><g class="y"/></g><g class="zerolinelayer"/><path class="xlines-below"/><path class="ylines-below"/><g class="overlines-below"/><g class="xaxislayer-below"/><g class="yaxislayer-below"/><g class="overaxes-below"/><g class="plot" transform="translate(50, 70)" clip-path="url('#clipf1ec44xyplot')"><g class="scatterlayer mlayer"><g class="trace scatter trace1de914" style="stroke-miterlimit: 2;"><g class="fills"><g><path class="js-fill" d="M679.12,380L-167.02,380L-167.02,379.28L-151.05,379.77L-149.82,379.8L-87.19,379.24L-85.96,379.1L-54.04,377.69L-52.81,377.27L-41.75,376.57L-40.53,376.57L-30.7,374.96L-29.47,374.38L-19.65,371.19L-18.42,370.57L-11.05,370.97L-9.82,371.85L-2.46,373.38L-1.23,372.72L12.28,366.13L13.51,364.95L17.19,361.89L18.42,361.39L19.65,361.11L20.88,359.33L27.02,347.21L28.25,347.29L30.7,342.6L31.93,341.57L34.39,340.64L35.61,339.87L36.84,339.62L38.07,340.52L40.53,341.58L41.75,343.06L44.21,347.69L45.44,347.82L47.89,353.23L49.12,358.48L50.35,358.4L51.58,359.78L55.26,362.94L56.49,365.08L57.72,363.89L58.95,367.51L61.4,369.24L62.63,369.37L63.86,371.02L65.09,371.4L68.77,372.67L70,372.7L90.88,371.75L92.11,370.34L94.56,369.84L95.79,369.79L100.7,369.41L101.93,369.77L103.16,371.2L104.39,371.45L105.61,371.54L106.84,370.84L109.3,371.59L110.53,370.87L114.21,370.5L115.44,370.07L117.89,367.96L119.12,367.11L120.35,364.65L121.58,364.33L122.81,364.27L124.04,363.17L126.49,363.8L127.72,363.52L130.18,362.65L131.4,362.79L136.32,362.02L137.54,362.41L141.23,361.59L142.46,361.21L147.37,360.38L148.6,360.33L152.28,362.24L153.51,362.39L159.65,363.12L160.88,363.59L163.33,365.18L164.56,365.35L169.47,365.5L170.7,365.07L173.16,364.77L174.39,364.83L176.84,362.69L178.07,362.84L180.53,361.92L181.75,361.71L184.21,361.99L185.44,362.51L187.89,362.79L189.12,362.44L191.58,361.92L192.81,360.36L200.18,359.46L201.4,360.03L206.32,354.01L207.54,353.47L212.46,353.16L213.68,352.26L216.14,350.9L217.37,350.66L219.82,346.71L221.05,345.84L223.51,345.78L224.74,344.78L225.96,344.86L227.19,351.28L230.88,349.98L232.11,350.33L234.56,350.18L235.79,343.33L239.47,347.37L240.7,347.75L244.39,350.5L245.61,350.9L249.3,352.66L250.53,353.33L251.75,353.47L252.98,355.05L257.89,359.86L259.12,361.56L261.58,361.81L262.81,362.47L265.26,363.79L266.49,364.22L268.95,364.78L270.18,366.25L272.63,367.18L273.86,369.37L275.09,369.94L276.32,369.56L278.77,369.66L280,370.3L281.23,370.49L282.46,369.02L286.14,369.04L287.37,371.4L289.82,370.92L291.05,371.52L293.51,372.78L294.74,372.8L295.96,371.97L297.19,373.45L299.65,374.84L300.88,374.98L308.25,375.93L309.47,376.42L319.3,378.52L320.53,378.54L329.12,378.95L330.35,378.75L346.32,378.32L347.54,378.07L353.68,376.86L354.91,376.94L361.05,374.21L362.28,373.9L363.51,373.76L364.74,372.75L370.88,370.64L372.11,370.67L384.39,368.38L385.61,368.01L391.75,368.01L392.98,368.14L408.95,372.05L410.18,371.98L413.86,373.28L415.09,373.16L418.77,373.78L420,373.9L429.82,375.74L431.05,375.53L438.42,376.37L439.65,376.69L442.11,376.99L443.33,377.52L451.93,377.9L453.16,377.95L460.53,377.79L461.75,377.56L474.04,374.18L475.26,374.16L481.4,374.46L482.63,374.23L483.86,374.1L485.09,374.98L487.54,373.26L488.77,372.82L491.23,371.67L492.46,371.78L493.68,369.57L494.91,370.11L496.14,370.12L497.37,371.47L502.28,369.04L503.51,367.39L504.74,366.01L505.96,362.97L508.42,361.99L509.65,362.09L517.02,356.44L518.25,356.44L520.7,352.53L521.93,351.53L524.39,348.88L525.61,347.62L526.84,347.52L528.07,346.32L530.53,344.96L531.75,345.28L532.98,344.98L534.21,345.84L535.44,345.38L536.67,346.24L540.35,347.35L541.58,347.5L544.04,346.76L545.26,347.32L546.49,346.46L547.72,344.16L550.18,337.38L551.4,340.12L552.63,338.24L553.86,320.93L558.77,258.07L560,257.98L561.23,254.89L562.46,225.39L564.91,189.95L566.14,182.08L567.37,169.56L568.6,148.47L571.05,147.44L572.28,149.34L573.51,145.81L574.74,137.17L577.19,116.96L578.42,109.78L583.33,29.07L584.56,16.56L585.79,8.55L587.02,9.01L588.25,0L589.47,1L594.39,37.8L595.61,40.49L602.98,137.9L604.21,143.34L606.67,201.81L607.89,220.65L610.35,249.05L611.58,256.75L612.81,258.97L614.04,272.1L620.18,300.69L621.4,301.22L623.86,311.63L625.09,314.01L628.77,323.81L630,324.85L631.23,326.98L632.46,326.53L634.91,323.79L636.14,320.68L638.6,318.65L639.82,313.3L643.51,298.65L644.74,293.14L645.96,288.8L647.19,288.45L649.65,271.17L650.88,265.4L654.56,251.75L655.79,250.72L658.25,235.58L659.47,229.98L661.93,218.55L663.16,216.29L664.39,216.08L665.61,213.3L666.84,209.56L668.07,208.23L672.98,212.45L674.21,216.99L677.89,222.65L679.12,223.04" style="fill: rgb(8, 115, 191); fill-opacity: 0.2; stroke-width: 0;"/></g></g><g class="errorbars"/><g class="lines"><path class="js-line" d="M-167.02,379.28L-151.05,379.77L-149.82,379.8L-87.19,379.24L-85.96,379.1L-54.04,377.69L-52.81,377.27L-41.75,376.57L-40.53,376.57L-30.7,374.96L-29.47,374.38L-19.65,371.19L-18.42,370.57L-11.05,370.97L-9.82,371.85L-2.46,373.38L-1.23,372.72L12.28,366.13L13.51,364.95L17.19,361.89L18.42,361.39L19.65,361.11L20.88,359.33L27.02,347.21L28.25,347.29L30.7,342.6L31.93,341.57L34.39,340.64L35.61,339.87L36.84,339.62L38.07,340.52L40.53,341.58L41.75,343.06L44.21,347.69L45.44,347.82L47.89,353.23L49.12,358.48L50.35,358.4L51.58,359.78L55.26,362.94L56.49,365.08L57.72,363.89L58.95,367.51L61.4,369.24L62.63,369.37L63.86,371.02L65.09,371.4L68.77,372.67L70,372.7L90.88,371.75L92.11,370.34L94.56,369.84L95.79,369.79L100.7,369.41L101.93,369.77L103.16,371.2L104.39,371.45L105.61,371.54L106.84,370.84L109.3,371.59L110.53,370.87L114.21,370.5L115.44,370.07L117.89,367.96L119.12,367.11L120.35,364.65L121.58,364.33L122.81,364.27L124.04,363.17L126.49,363.8L127.72,363.52L130.18,362.65L131.4,362.79L136.32,362.02L137.54,362.41L141.23,361.59L142.46,361.21L147.37,360.38L148.6,360.33L152.28,362.24L153.51,362.39L159.65,363.12L160.88,363.59L163.33,365.18L164.56,365.35L169.47,365.5L170.7,365.07L173.16,364.77L174.39,364.83L176.84,362.69L178.07,362.84L180.53,361.92L181.75,361.71L184.21,361.99L185.44,362.51L187.89,362.79L189.12,362.44L191.58,361.92L192.81,360.36L200.18,359.46L201.4,360.03L206.32,354.01L207.54,353.47L212.46,353.16L213.68,352.26L216.14,350.9L217.37,350.66L219.82,346.71L221.05,345.84L223.51,345.78L224.74,344.78L225.96,344.86L227.19,351.28L230.88,349.98L232.11,350.33L234.56,350.18L235.79,343.33L239.47,347.37L240.7,347.75L244.39,350.5L245.61,350.9L249.3,352.66L250.53,353.33L251.75,353.47L252.98,355.05L257.89,359.86L259.12,361.56L261.58,361.81L262.81,362.47L265.26,363.79L266.49,364.22L268.95,364.78L270.18,366.25L272.63,367.18L273.86,369.37L275.09,369.94L276.32,369.56L278.77,369.66L280,370.3L281.23,370.49L282.46,369.02L286.14,369.04L287.37,371.4L289.82,370.92L291.05,371.52L293.51,372.78L294.74,372.8L295.96,371.97L297.19,373.45L299.65,374.84L300.88,374.98L308.25,375.93L309.47,376.42L319.3,378.52L320.53,378.54L329.12,378.95L330.35,378.75L346.32,378.32L347.54,378.07L353.68,376.86L354.91,376.94L361.05,374.21L362.28,373.9L363.51,373.76L364.74,372.75L370.88,370.64L372.11,370.67L384.39,368.38L385.61,368.01L391.75,368.01L392.98,368.14L408.95,372.05L410.18,371.98L413.86,373.28L415.09,373.16L418.77,373.78L420,373.9L429.82,375.74L431.05,375.53L438.42,376.37L439.65,376.69L442.11,376.99L443.33,377.52L451.93,377.9L453.16,377.95L460.53,377.79L461.75,377.56L474.04,374.18L475.26,374.16L481.4,374.46L482.63,374.23L483.86,374.1L485.09,374.98L487.54,373.26L488.77,372.82L491.23,371.67L492.46,371.78L493.68,369.57L494.91,370.11L496.14,370.12L497.37,371.47L502.28,369.04L503.51,367.39L504.74,366.01L505.96,362.97L508.42,361.99L509.65,362.09L517.02,356.44L518.25,356.44L520.7,352.53L521.93,351.53L524.39,348.88L525.61,347.62L526.84,347.52L528.07,346.32L530.53,344.96L531.75,345.28L532.98,344.98L534.21,345.84L535.44,345.38L536.67,346.24L540.35,347.35L541.58,347.5L544.04,346.76L545.26,347.32L546.49,346.46L547.72,344.16L550.18,337.38L551.4,340.12L552.63,338.24L553.86,320.93L558.77,258.07L560,257.98L561.23,254.89L562.46,225.39L564.91,189.95L566.14,182.08L567.37,169.56L568.6,148.47L571.05,147.44L572.28,149.34L573.51,145.81L574.74,137.17L577.19,116.96L578.42,109.78L583.33,29.07L584.56,16.56L585.79,8.55L587.02,9.01L588.25,0L589.47,1L594.39,37.8L595.61,40.49L602.98,137.9L604.21,143.34L606.67,201.81L607.89,220.65L610.35,249.05L611.58,256.75L612.81,258.97L614.04,272.1L620.18,300.69L621.4,301.22L623.86,311.63L625.09,314.01L628.77,323.81L630,324.85L631.23,326.98L632.46,326.53L634.91,323.79L636.14,320.68L638.6,318.65L639.82,313.3L643.51,298.65L644.74,293.14L645.96,288.8L647.19,288.45L649.65,271.17L650.88,265.4L654.56,251.75L655.79,250.72L658.25,235.58L659.47,229.98L661.93,218.55L663.16,216.29L664.39,216.08L665.61,213.3L666.84,209.56L668.07,208.23L672.98,212.45L674.21,216.99L677.89,222.65L679.12,223.04" style="vector-effect: non-scaling-stroke; fill: none; stroke: rgb(8, 115, 191); stroke-opacity: 1; stroke-width: 0.5px; opacity: 1;"/></g><g class="points"/><g class="text"/></g><g class="trace scatter trace9d5815" style="stroke-miterlimit: 2;"><g class="fills"><g><path class="js-fill" d="M691.4,380L679.12,380L679.12,223.04L681.58,224.18L682.81,231.26L688.95,259.91L690.18,259.91L691.4,287.94" style="fill: rgb(8, 115, 191); fill-opacity: 0.4; stroke-width: 0;"/></g></g><g class="errorbars"/><g class="lines"><path class="js-line" d="M679.12,223.04L681.58,224.18L682.81,231.26L688.95,259.91L690.18,259.91L691.4,287.94" style="vector-effect: non-scaling-stroke; fill: none; stroke: rgb(8, 115, 191); stroke-opacity: 1; stroke-width: 2px; opacity: 1;"/></g><g class="points"/><g class="text"/></g><g class="trace scatter tracee607b8" style="stroke-miterlimit: 2; opacity: 1;"><g class="fills"/><g class="errorbars"/><g class="lines"/><g class="points"><path class="point" transform="translate(691.4,287.94)" d="M15,0A15,15 0 1,1 0,-15A15,15 0 0,1 15,0Z" style="opacity: 1; stroke-width: 0px; fill: rgb(8, 115, 191); fill-opacity: 1;"/></g><g class="text"/></g></g></g><g class="overplot"/><path class="xlines-above crisp" style="fill: none; stroke-width: 1px; stroke: rgb(0, 0, 0); stroke-opacity: 0;" d=""/><path class="ylines-above crisp" style="fill: none;" d="M0,0"/><g class="overlines-above"/><g class="xaxislayer-above"><path class="xtick ticks crisp" d="M0,450v-5" transform="translate(90.53,0)" style="stroke: rgb(68, 68, 68); stroke-opacity: 1; stroke-width: 1px;"/><path class="xtick ticks crisp" d="M0,450v-5" transform="translate(165.44,0)" style="stroke: rgb(68, 68, 68); stroke-opacity: 1; stroke-width: 1px;"/><path class="xtick ticks crisp" d="M0,450v-5" transform="translate(237.89,0)" style="stroke: rgb(68, 68, 68); stroke-opacity: 1; stroke-width: 1px;"/><path class="xtick ticks crisp" d="M0,450v-5" transform="translate(312.81,0)" style="stroke: rgb(68, 68, 68); stroke-opacity: 1; stroke-width: 1px;"/><path class="xtick ticks crisp" d="M0,450v-5" transform="translate(387.72,0)" style="stroke: rgb(68, 68, 68); stroke-opacity: 1; stroke-width: 1px;"/><path class="xtick ticks crisp" d="M0,450v-5" transform="translate(463.86,0)" style="stroke: rgb(68, 68, 68); stroke-opacity: 1; stroke-width: 1px;"/><path class="xtick ticks crisp" d="M0,450v-5" transform="translate(538.77,0)" style="stroke: rgb(68, 68, 68); stroke-opacity: 1; stroke-width: 1px;"/><path class="xtick ticks crisp" d="M0,450v-5" transform="translate(613.68,0)" style="stroke: rgb(68, 68, 68); stroke-opacity: 1; stroke-width: 1px;"/><path class="xtick ticks crisp" d="M0,450v-5" transform="translate(686.14,0)" style="stroke: rgb(68, 68, 68); stroke-opacity: 1; stroke-width: 1px;"/><g class="xtick"><text text-anchor="middle" x="0" y="469" transform="translate(90.53,0)" style="font-family: 'Open Sans', verdana, arial, sans-serif; font-size: 18px; fill: rgb(42, 63, 95); fill-opacity: 1; white-space: pre;">01/11</text></g><g class="xtick"><text text-anchor="middle" x="0" y="469" transform="translate(165.44,0)" style="font-family: 'Open Sans', verdana, arial, sans-serif; font-size: 18px; fill: rgb(42, 63, 95); fill-opacity: 1; white-space: pre;">01/01</text></g><g class="xtick"><text text-anchor="middle" x="0" y="469" transform="translate(237.89,0)" style="font-family: 'Open Sans', verdana, arial, sans-serif; font-size: 18px; fill: rgb(42, 63, 95); fill-opacity: 1; white-space: pre;">01/03</text></g><g class="xtick"><text text-anchor="middle" x="0" y="469" transform="translate(312.81,0)" style="font-family: 'Open Sans', verdana, arial, sans-serif; font-size: 18px; fill: rgb(42, 63, 95); fill-opacity: 1; white-space: pre;">01/05</text></g><g class="xtick"><text text-anchor="middle" x="0" y="469" transform="translate(387.72,0)" style="font-family: 'Open Sans', verdana, arial, sans-serif; font-size: 18px; fill: rgb(42, 63, 95); fill-opacity: 1; white-space: pre;">01/07</text></g><g class="xtick"><text text-anchor="middle" x="0" y="469" transform="translate(463.86,0)" style="font-family: 'Open Sans', verdana, arial, sans-serif; font-size: 18px; fill: rgb(42, 63, 95); fill-opacity: 1; white-space: pre;">01/09</text></g><g class="xtick"><text text-anchor="middle" x="0" y="469" transform="translate(538.77,0)" style="font-family: 'Open Sans', verdana, arial, sans-serif; font-size: 18px; fill: rgb(42, 63, 95); fill-opacity: 1; white-space: pre;">01/11</text></g><g class="xtick"><text text-anchor="middle" x="0" y="469" transform="translate(613.68,0)" style="font-family: 'Open Sans', verdana, arial, sans-serif; font-size: 18px; fill: rgb(42, 63, 95); fill-opacity: 1; white-space: pre;">01/01</text></g><g class="xtick"><text text-anchor="middle" x="0" y="469" transform="translate(686.14,0)" style="font-family: 'Open Sans', verdana, arial, sans-serif; font-size: 18px; fill: rgb(42, 63, 95); fill-opacity: 1; white-space: pre;">01/03</text></g></g><g class="yaxislayer-above"/><g class="overaxes-above"/></g></g><g class="polarlayer"/><g class="ternarylayer"/><g class="geolayer"/><g class="funnelarealayer"/><g class="pielayer"/><g class="treemaplayer"/><g class="sunburstlayer"/><g class="glimages"/><defs id="topdefs-f1ec44"><g class="clips"/></defs><g class="layer-above"><g class="imagelayer"/><g class="shapelayer"><path data-index="0" fill-rule="evenodd" d="M-640.18,444.97L257.53999999999996,444.97" clip-path="url('#clipf1ec44xy')" style="opacity: 1; stroke: rgb(255, 0, 0); stroke-opacity: 1; fill: rgb(0, 0, 0); fill-opacity: 0; stroke-dasharray: 3px, 3px; stroke-width: 1.5px;"/></g></g><g class="infolayer"><g class="g-gtitle"><text class="gtitle" x="375" y="25" text-anchor="middle" dy="0.7em" style="font-family: 'Open Sans', verdana, arial, sans-serif; font-size: 50px; fill: rgb(42, 63, 95); opacity: 1; font-weight: normal; white-space: pre;"><tspan style="font-weight:bold">Indre-et-Loire (37)</tspan></text></g><g class="g-xtitle"/><g class="annotation" data-index="0" style="opacity: 1;"><g class="annotation-text-g" transform="rotate(0,699.4,297.94)"><g class="cursor-pointer" transform="translate(641, 262)"><rect class="bg" x="0.5" y="0.5" width="115" height="71" style="stroke-width: 1px; stroke: rgb(0, 0, 0); stroke-opacity: 0; fill: rgb(255, 255, 255); fill-opacity: 0.6;"/><text class="annotation-text" text-anchor="middle" x="57.8125" y="55.5" style="font-family: 'Open Sans', verdana, arial, sans-serif; font-size: 50px; fill: rgb(8, 115, 191); fill-opacity: 1; white-space: pre;"> <tspan style="font-weight:bold">914 </tspan></text></g></g><g class="annotation-arrow-g" style="opacity: 1;"><path d="M727.8,333.44L739.4,347.94" style="stroke-width: 1px; stroke: rgb(8, 115, 191); stroke-opacity: 1; stroke-dasharray: 0px, 0px, 18.5691px, 18.5691px;"/></g></g></g></svg>