<svg class="main-svg" xmlns="http://www.w3.org/2000/svg" xmlns:xlink="http://www.w3.org/1999/xlink" width="1125" height="750" style="" viewBox="0 0 750 500"><rect x="0" y="0" width="750" height="500" style="fill: rgb(0, 0, 0); fill-opacity: 0;"/><defs id="defs-2b184f"><g class="clips"><clipPath id="clip2b184fxyplot" class="plotclip"><rect width="698" height="380"/></clipPath><clipPath class="axesclip" id="clip2b184fx"><rect x="50" y="0" width="698" height="500"/></clipPath><clipPath class="axesclip" id="clip2b184fy"><rect x="0" y="70" width="750" height="380"/></clipPath><clipPath class="axesclip" id="clip2b184fxy"><rect x="50" y="70" width="698" height="380"/></clipPath></g><g class="gradients"/></defs><g class="bglayer"><rect class="bg" x="50" y="70" width="698" height="380" style="fill: rgb(0, 0, 0); fill-opacity: 0; stroke-width: 0;"/></g><g class="layer-below"><g class="imagelayer"/><g class="shapelayer"/></g><g class="cartesianlayer"><g class="subplot xy"><g class="layer-subplot"><g class="shapelayer"/><g class="imagelayer"/></g><g class="gridlayer"><g class="x"><path class="xgrid crisp" transform="translate(52.11,0)" d="M0,70v380" style="stroke: rgb(255, 255, 255); stroke-opacity: 1; stroke-width: 1px;"/><path class="xgrid crisp" transform="translate(149.26,0)" d="M0,70v380" style="stroke: rgb(255, 255, 255); stroke-opacity: 1; stroke-width: 1px;"/><path class="xgrid crisp" transform="translate(244.3,0)" d="M0,70v380" style="stroke: rgb(255, 255, 255); stroke-opacity: 1; stroke-width: 1px;"/><path class="xgrid crisp" transform="translate(340.39,0)" d="M0,70v380" style="stroke: rgb(255, 255, 255); stroke-opacity: 1; stroke-width: 1px;"/><path class="xgrid crisp" transform="translate(437.54,0)" d="M0,70v380" style="stroke: rgb(255, 255, 255); stroke-opacity: 1; stroke-width: 1px;"/><path class="xgrid crisp" transform="translate(534.69,0)" d="M0,70v380" style="stroke: rgb(255, 255, 255); stroke-opacity: 1; stroke-width: 1px;"/><path class="xgrid crisp" transform="translate(629.73,0)" d="M0,70v380" style="stroke: rgb(255, 255, 255); stroke-opacity: 1; stroke-width: 1px;"/><path class="xgrid crisp" transform="translate(725.82,0)" d="M0,70v380" style="stroke: rgb(255, 255, 255); stroke-opacity: 1; stroke-width: 1px;"/></g><g class="y"/></g><g class="zerolinelayer"/><path class="xlines-below"/><path class="ylines-below"/><g class="overlines-below"/><g class="xaxislayer-below"/><g class="yaxislayer-below"/><g class="overaxes-below"/><g class="plot" transform="translate(50, 70)" clip-path="url('#clip2b184fxyplot')"><g class="scatterlayer mlayer"><g class="trace scatter tracec323a6" style="stroke-miterlimit: 2;"><g class="fills"><g><path class="js-fill" d="M680.05,380L-143.61,380L-143.61,379.89L-84.48,378.89L-83.42,378.32L-79.2,378.11L-78.14,378.52L-52.8,378.58L-51.74,378.16L-41.18,377.85L-40.13,377.84L-28.51,377.17L-27.46,377.09L-24.29,376.94L-23.23,376.82L-19.01,377.05L-17.95,376.65L-13.73,376.15L-12.67,376L-6.34,375.95L-5.28,376.03L2.11,375.71L3.17,375.45L5.28,374.41L6.34,374.22L8.45,373.31L9.5,373.39L11.62,372.49L12.67,372L14.78,370.68L15.84,370.31L17.95,369.33L19.01,367.98L23.23,363.42L24.29,363.2L27.46,358.67L28.51,357.94L31.68,357.19L32.74,355.85L33.79,355.77L34.85,356.59L39.07,359.53L40.13,362.01L44.35,369.48L45.41,369.86L46.46,369.96L47.52,371.94L48.57,373.25L49.63,373.1L51.74,375.32L52.8,375.65L53.85,375.68L54.91,376.5L59.13,377.63L60.19,377.87L66.53,377.4L67.58,377.09L72.86,377.1L73.92,376.77L78.14,375.89L79.2,375.43L82.37,375.29L83.42,375.51L87.65,375.47L88.7,376.07L97.15,374.85L98.21,374.9L102.43,373.52L103.49,371.96L107.71,372.42L108.77,372.78L114.05,372.76L115.1,372.37L118.27,371.84L119.33,371.59L125.66,371.68L126.72,372.1L127.77,372.14L128.83,373L130.94,373.06L132,373.67L139.39,375.83L140.44,375.92L144.67,375.34L145.72,374.54L149.95,373.72L151,373.71L155.23,373.92L156.28,374.04L164.73,373.87L165.79,373.61L170.01,371.91L171.07,372.07L174.24,372.26L175.29,371.63L184.8,370.38L185.85,369.99L192.19,369.76L193.24,370L194.3,370.02L195.36,371.88L197.47,371.24L198.52,371.25L201.69,371.13L202.75,369.07L212.25,370.57L213.31,370.42L215.42,369.91L216.48,369.88L230.2,373L231.26,373.05L236.54,372.67L237.59,372.37L241.82,372.27L242.87,371.49L243.93,372.29L244.99,372.15L246.04,372.11L247.1,373.82L252.38,373.01L253.43,372.97L254.49,371.84L255.55,372.45L275.61,377.42L276.67,377.37L281.95,377.67L283,377.57L293.56,377.71L294.62,377.25L297.79,376.51L298.84,376.23L302.01,374.93L303.07,374.57L307.29,372.49L308.34,371.19L311.51,369.8L312.57,369.84L314.68,369.03L315.74,369.47L318.9,370.57L319.96,370.43L322.07,370.69L323.13,369.86L329.46,367.72L330.52,367.74L333.69,367.15L334.74,367.17L337.91,366.87L338.97,367.29L342.14,367.19L343.19,366.68L348.47,366.85L349.53,367.12L351.64,369.62L352.7,370.57L356.92,372.77L357.98,373.13L360.09,374.15L361.14,373.69L365.37,374.16L366.42,374.45L367.48,374.58L368.54,375.63L373.82,377.21L374.87,377.2L381.21,377.99L382.26,378.34L387.54,378.54L388.6,378.56L394.93,377.6L395.99,377.2L399.16,376.94L400.21,377.06L406.55,376.48L407.61,376.22L413.94,375.79L415,375.79L418.17,375.8L419.22,375.55L423.45,374.15L424.5,372.07L426.61,371.01L427.67,371.83L434.01,367.13L435.06,364.85L438.23,364.26L439.29,364.34L441.4,363.39L442.45,362.13L444.57,360.71L445.62,360.6L448.79,355.19L449.85,354.04L451.96,351.26L453.01,351.24L454.07,349.99L455.13,350.81L457.24,350.79L458.29,352.05L460.41,352.17L461.46,352.15L463.57,351.28L464.63,352.17L465.69,351.62L466.74,352.34L467.8,352.47L468.85,351.83L469.91,350.5L470.97,347.02L473.08,338.41L474.13,339.55L475.19,337.69L476.25,319.41L480.47,258.13L481.52,257.23L482.58,253.59L483.64,222.68L485.75,192.05L486.8,187.17L488.92,156.7L489.97,154.5L491.03,159.71L492.08,160.79L493.14,158.08L494.2,150.72L496.31,140.04L497.36,138.55L503.7,64.44L504.76,61.7L506.87,34.67L507.92,25.06L511.09,6.56L512.15,4.23L513.2,0L514.26,5.9L516.37,24.54L517.43,40.33L519.54,60.08L520.6,94.13L523.76,166.32L524.82,183.36L525.88,192.84L526.93,195.35L529.04,223.37L530.1,232.21L533.27,247.03L534.32,247.7L536.44,256.54L537.49,259.54L541.72,270.97L542.77,271.7L543.83,271.74L544.88,270.85L545.94,269.52L547,266.79L549.11,264.37L550.16,258.41L553.33,240.24L554.39,233.12L555.44,227.94L556.5,226.6L558.61,209.16L559.67,203.34L562.84,188.5L563.89,187.72L567.06,153.68L568.11,145.65L570.23,136.87L571.28,137.68L572.34,135.54L573.39,136.83L575.51,143.81L576.56,151.37L577.62,155.95L578.67,156.85L580.79,172.75L581.84,176.32L582.9,176.58L583.95,174.25L586.07,175.59L587.12,179.36L589.23,189.99L590.29,198.33L592.4,211.94L593.46,212.36L594.51,251.04L595.57,246.23L598.74,270.4L599.79,272.83L600.85,273.93L601.91,255.55L604.02,284.34L605.07,290.88L607.19,302.23L608.24,303.23L610.35,313.75L611.41,314.97L614.58,316.07L615.63,316.34L617.75,319.49L618.8,320.41L621.97,327.65L623.03,327.95L626.19,336.75L627.25,338.52L629.36,340.18L630.42,340.42L633.59,346.27L634.64,350.73L635.7,349.1L636.75,349.26L638.87,348.9L639.92,348.15L640.98,347.83L642.03,343.01L643.09,344.74L644.15,344.63L645.2,344.21L646.26,351.48L648.37,343.07L649.43,341.7L651.54,337.63L652.59,337.36L653.65,325.66L654.7,327.92L658.93,320.58L659.98,320.61L666.32,281.69L667.38,280.47L672.66,228.87L673.71,221.57L674.77,219.94L675.82,207.03L677.94,191.75L678.99,186.82L680.05,186.82" style="fill: rgb(8, 115, 191); fill-opacity: 0.2; stroke-width: 0;"/></g></g><g class="errorbars"/><g class="lines"><path class="js-line" d="M-143.61,379.89L-84.48,378.89L-83.42,378.32L-79.2,378.11L-78.14,378.52L-52.8,378.58L-51.74,378.16L-41.18,377.85L-40.13,377.84L-28.51,377.17L-27.46,377.09L-24.29,376.94L-23.23,376.82L-19.01,377.05L-17.95,376.65L-13.73,376.15L-12.67,376L-6.34,375.95L-5.28,376.03L2.11,375.71L3.17,375.45L5.28,374.41L6.34,374.22L8.45,373.31L9.5,373.39L11.62,372.49L12.67,372L14.78,370.68L15.84,370.31L17.95,369.33L19.01,367.98L23.23,363.42L24.29,363.2L27.46,358.67L28.51,357.94L31.68,357.19L32.74,355.85L33.79,355.77L34.85,356.59L39.07,359.53L40.13,362.01L44.35,369.48L45.41,369.86L46.46,369.96L47.52,371.94L48.57,373.25L49.63,373.1L51.74,375.32L52.8,375.65L53.85,375.68L54.91,376.5L59.13,377.63L60.19,377.87L66.53,377.4L67.58,377.09L72.86,377.1L73.92,376.77L78.14,375.89L79.2,375.43L82.37,375.29L83.42,375.51L87.65,375.47L88.7,376.07L97.15,374.85L98.21,374.9L102.43,373.52L103.49,371.96L107.71,372.42L108.77,372.78L114.05,372.76L115.1,372.37L118.27,371.84L119.33,371.59L125.66,371.68L126.72,372.1L127.77,372.14L128.83,373L130.94,373.06L132,373.67L139.39,375.83L140.44,375.92L144.67,375.34L145.72,374.54L149.95,373.72L151,373.71L155.23,373.92L156.28,374.04L164.73,373.87L165.79,373.61L170.01,371.91L171.07,372.07L174.24,372.26L175.29,371.63L184.8,370.38L185.85,369.99L192.19,369.76L193.24,370L194.3,370.02L195.36,371.88L197.47,371.24L198.52,371.25L201.69,371.13L202.75,369.07L212.25,370.57L213.31,370.42L215.42,369.91L216.48,369.88L230.2,373L231.26,373.05L236.54,372.67L237.59,372.37L241.82,372.27L242.87,371.49L243.93,372.29L244.99,372.15L246.04,372.11L247.1,373.82L252.38,373.01L253.43,372.97L254.49,371.84L255.55,372.45L275.61,377.42L276.67,377.37L281.95,377.67L283,377.57L293.56,377.71L294.62,377.25L297.79,376.51L298.84,376.23L302.01,374.93L303.07,374.57L307.29,372.49L308.34,371.19L311.51,369.8L312.57,369.84L314.68,369.03L315.74,369.47L318.9,370.57L319.96,370.43L322.07,370.69L323.13,369.86L329.46,367.72L330.52,367.74L333.69,367.15L334.74,367.17L337.91,366.87L338.97,367.29L342.14,367.19L343.19,366.68L348.47,366.85L349.53,367.12L351.64,369.62L352.7,370.57L356.92,372.77L357.98,373.13L360.09,374.15L361.14,373.69L365.37,374.16L366.42,374.45L367.48,374.58L368.54,375.63L373.82,377.21L374.87,377.2L381.21,377.99L382.26,378.34L387.54,378.54L388.6,378.56L394.93,377.6L395.99,377.2L399.16,376.94L400.21,377.06L406.55,376.48L407.61,376.22L413.94,375.79L415,375.79L418.17,375.8L419.22,375.55L423.45,374.15L424.5,372.07L426.61,371.01L427.67,371.83L434.01,367.13L435.06,364.85L438.23,364.26L439.29,364.34L441.4,363.39L442.45,362.13L444.57,360.71L445.62,360.6L448.79,355.19L449.85,354.04L451.96,351.26L453.01,351.24L454.07,349.99L455.13,350.81L457.24,350.79L458.29,352.05L460.41,352.17L461.46,352.15L463.57,351.28L464.63,352.17L465.69,351.62L466.74,352.34L467.8,352.47L468.85,351.83L469.91,350.5L470.97,347.02L473.08,338.41L474.13,339.55L475.19,337.69L476.25,319.41L480.47,258.13L481.52,257.23L482.58,253.59L483.64,222.68L485.75,192.05L486.8,187.17L488.92,156.7L489.97,154.5L491.03,159.71L492.08,160.79L493.14,158.08L494.2,150.72L496.31,140.04L497.36,138.55L503.7,64.44L504.76,61.7L506.87,34.67L507.92,25.06L511.09,6.56L512.15,4.23L513.2,0L514.26,5.9L516.37,24.54L517.43,40.33L519.54,60.08L520.6,94.13L523.76,166.32L524.82,183.36L525.88,192.84L526.93,195.35L529.04,223.37L530.1,232.21L533.27,247.03L534.32,247.7L536.44,256.54L537.49,259.54L541.72,270.97L542.77,271.7L543.83,271.74L544.88,270.85L545.94,269.52L547,266.79L549.11,264.37L550.16,258.41L553.33,240.24L554.39,233.12L555.44,227.94L556.5,226.6L558.61,209.16L559.67,203.34L562.84,188.5L563.89,187.72L567.06,153.68L568.11,145.65L570.23,136.87L571.28,137.68L572.34,135.54L573.39,136.83L575.51,143.81L576.56,151.37L577.62,155.95L578.67,156.85L580.79,172.75L581.84,176.32L582.9,176.58L583.95,174.25L586.07,175.59L587.12,179.36L589.23,189.99L590.29,198.33L592.4,211.94L593.46,212.36L594.51,251.04L595.57,246.23L598.74,270.4L599.79,272.83L600.85,273.93L601.91,255.55L604.02,284.34L605.07,290.88L607.19,302.23L608.24,303.23L610.35,313.75L611.41,314.97L614.58,316.07L615.63,316.34L617.75,319.49L618.8,320.41L621.97,327.65L623.03,327.95L626.19,336.75L627.25,338.52L629.36,340.18L630.42,340.42L633.59,346.27L634.64,350.73L635.7,349.1L636.75,349.26L638.87,348.9L639.92,348.15L640.98,347.83L642.03,343.01L643.09,344.74L644.15,344.63L645.2,344.21L646.26,351.48L648.37,343.07L649.43,341.7L651.54,337.63L652.59,337.36L653.65,325.66L654.7,327.92L658.93,320.58L659.98,320.61L666.32,281.69L667.38,280.47L672.66,228.87L673.71,221.57L674.77,219.94L675.82,207.03L677.94,191.75L678.99,186.82L680.05,186.82" style="vector-effect: non-scaling-stroke; fill: none; stroke: rgb(8, 115, 191); stroke-opacity: 1; stroke-width: 0.5px; opacity: 1;"/></g><g class="points"/><g class="text"/></g><g class="trace scatter trace58cf5e" style="stroke-miterlimit: 2;"><g class="fills"><g><path class="js-fill" d="M690.61,380L680.05,380L680.05,186.82L682.16,189.57L683.22,199.45L685.33,224.74L686.38,251.97L687.44,253.79L688.5,258.07L689.55,259.17L690.61,272.54" style="fill: rgb(8, 115, 191); fill-opacity: 0.4; stroke-width: 0;"/></g></g><g class="errorbars"/><g class="lines"><path class="js-line" d="M680.05,186.82L682.16,189.57L683.22,199.45L685.33,224.74L686.38,251.97L687.44,253.79L688.5,258.07L689.55,259.17L690.61,272.54" style="vector-effect: non-scaling-stroke; fill: none; stroke: rgb(8, 115, 191); stroke-opacity: 1; stroke-width: 2px; opacity: 1;"/></g><g class="points"/><g class="text"/></g><g class="trace scatter tracec8311d" style="stroke-miterlimit: 2; opacity: 1;"><g class="fills"/><g class="errorbars"/><g class="lines"/><g class="points"><path class="point" transform="translate(690.61,272.54)" d="M15,0A15,15 0 1,1 0,-15A15,15 0 0,1 15,0Z" style="opacity: 1; stroke-width: 0px; fill: rgb(8, 115, 191); fill-opacity: 1;"/></g><g class="text"/></g></g></g><g class="overplot"/><path class="xlines-above crisp" style="fill: none; stroke-width: 1px; stroke: rgb(0, 0, 0); stroke-opacity: 0;" d=""/><path class="ylines-above crisp" style="fill: none;" d="M0,0"/><g class="overlines-above"/><g class="xaxislayer-above"><path class="xtick ticks crisp" d="M0,450v-5" transform="translate(52.11,0)" style="stroke: rgb(68, 68, 68); stroke-opacity: 1; stroke-width: 1px;"/><path class="xtick ticks crisp" d="M0,450v-5" transform="translate(149.26,0)" style="stroke: rgb(68, 68, 68); stroke-opacity: 1; stroke-width: 1px;"/><path class="xtick ticks crisp" d="M0,450v-5" transform="translate(244.3,0)" style="stroke: rgb(68, 68, 68); stroke-opacity: 1; stroke-width: 1px;"/><path class="xtick ticks crisp" d="M0,450v-5" transform="translate(340.39,0)" style="stroke: rgb(68, 68, 68); stroke-opacity: 1; stroke-width: 1px;"/><path class="xtick ticks crisp" d="M0,450v-5" transform="translate(437.54,0)" style="stroke: rgb(68, 68, 68); stroke-opacity: 1; stroke-width: 1px;"/><path class="xtick ticks crisp" d="M0,450v-5" transform="translate(534.69,0)" style="stroke: rgb(68, 68, 68); stroke-opacity: 1; stroke-width: 1px;"/><path class="xtick ticks crisp" d="M0,450v-5" transform="translate(629.73,0)" style="stroke: rgb(68, 68, 68); stroke-opacity: 1; stroke-width: 1px;"/><path class="xtick ticks crisp" d="M0,450v-5" transform="translate(725.82,0)" style="stroke: rgb(68, 68, 68); stroke-opacity: 1; stroke-width: 1px;"/><g class="xtick"><text text-anchor="middle" x="0" y="469" transform="translate(52.11,0)" style="font-family: 'Open Sans', verdana, arial, sans-serif; font-size: 18px; fill: rgb(42, 63, 95); fill-opacity: 1; white-space: pre;">01/10</text></g><g class="xtick"><text text-anchor="middle" x="0" y="469" transform="translate(149.26,0)" style="font-family: 'Open Sans', verdana, arial, sans-serif; font-size: 18px; fill: rgb(42, 63, 95); fill-opacity: 1; white-space: pre;">01/01</text></g><g class="xtick"><text text-anchor="middle" x="0" y="469" transform="translate(244.3,0)" style="font-family: 'Open Sans', verdana, arial, sans-serif; font-size: 18px; fill: rgb(42, 63, 95); fill-opacity: 1; white-space: pre;">01/04</text></g><g class="xtick"><text text-anchor="middle" x="0" y="469" transform="translate(340.39,0)" style="font-family: 'Open Sans', verdana, arial, sans-serif; font-size: 18px; fill: rgb(42, 63, 95); fill-opacity: 1; white-space: pre;">01/07</text></g><g class="xtick"><text text-anchor="middle" x="0" y="469" transform="translate(437.54,0)" style="font-family: 'Open Sans', verdana, arial, sans-serif; font-size: 18px; fill: rgb(42, 63, 95); fill-opacity: 1; white-space: pre;">01/10</text></g><g class="xtick"><text text-anchor="middle" x="0" y="469" transform="translate(534.69,0)" style="font-family: 'Open Sans', verdana, arial, sans-serif; font-size: 18px; fill: rgb(42, 63, 95); fill-opacity: 1; white-space: pre;">01/01</text></g><g class="xtick"><text text-anchor="middle" x="0" y="469" transform="translate(629.73,0)" style="font-family: 'Open Sans', verdana, arial, sans-serif; font-size: 18px; fill: rgb(42, 63, 95); fill-opacity: 1; white-space: pre;">01/04</text></g><g class="xtick"><text text-anchor="middle" x="0" y="469" transform="translate(725.82,0)" style="font-family: 'Open Sans', verdana, arial, sans-serif; font-size: 18px; fill: rgb(42, 63, 95); fill-opacity: 1; white-space: pre;">01/07</text></g></g><g class="yaxislayer-above"/><g class="overaxes-above"/></g></g><g class="polarlayer"/><g class="ternarylayer"/><g class="geolayer"/><g class="funnelarealayer"/><g class="pielayer"/><g class="treemaplayer"/><g class="sunburstlayer"/><g class="glimages"/><defs id="topdefs-2b184f"><g class="clips"/></defs><g class="layer-above"><g class="imagelayer"/><g class="shapelayer"><path data-index="0" fill-rule="evenodd" d="M-543.46,443.92L228.46,443.92" clip-path="url('#clip2b184fxy')" style="opacity: 1; stroke: rgb(255, 0, 0); stroke-opacity: 1; fill: rgb(0, 0, 0); fill-opacity: 0; stroke-dasharray: 3px, 3px; stroke-width: 1.5px;"/></g></g><g class="infolayer"><g class="g-gtitle"><text class="gtitle" x="375" y="25" text-anchor="middle" dy="0.7em" style="font-family: 'Open Sans', verdana, arial, sans-serif; font-size: 50px; fill: rgb(42, 63, 95); opacity: 1; font-weight: normal; white-space: pre;"><tspan style="font-weight:bold">Finistère (29)</tspan></text></g><g class="g-xtitle"/><g class="annotation" data-index="0" style="opacity: 1;"><g class="annotation-text-g" transform="rotate(0,698.61,282.54)"><g class="cursor-pointer" transform="translate(641, 247)"><rect class="bg" x="0.5" y="0.5" width="115" height="71" style="stroke-width: 1px; stroke: rgb(0, 0, 0); stroke-opacity: 0; fill: rgb(255, 255, 255); fill-opacity: 0.6;"/><text class="annotation-text" text-anchor="middle" x="57.8125" y="55.5" style="font-family: 'Open Sans', verdana, arial, sans-serif; font-size: 50px; fill: rgb(8, 115, 191); fill-opacity: 1; white-space: pre;"> <tspan style="font-weight:bold">883 </tspan></text></g></g><g class="annotation-arrow-g" style="opacity: 1;"><path d="M727.01,318.04L738.61,332.54" style="stroke-width: 1px; stroke: rgb(8, 115, 191); stroke-opacity: 1; stroke-dasharray: 0px, 0px, 18.569px, 18.569px;"/></g></g></g></svg>