<svg class="main-svg" xmlns="http://www.w3.org/2000/svg" xmlns:xlink="http://www.w3.org/1999/xlink" width="1125" height="750" style="" viewBox="0 0 750 500"><rect x="0" y="0" width="750" height="500" style="fill: rgb(0, 0, 0); fill-opacity: 0;"/><defs id="defs-c0ab6a"><g class="clips"><clipPath id="clipc0ab6axyplot" class="plotclip"><rect width="700" height="380"/></clipPath><clipPath class="axesclip" id="clipc0ab6ax"><rect x="50" y="0" width="700" height="500"/></clipPath><clipPath class="axesclip" id="clipc0ab6ay"><rect x="0" y="70" width="750" height="380"/></clipPath><clipPath class="axesclip" id="clipc0ab6axy"><rect x="50" y="70" width="700" height="380"/></clipPath></g><g class="gradients"/></defs><g class="bglayer"><rect class="bg" x="50" y="70" width="700" height="380" style="fill: rgb(0, 0, 0); fill-opacity: 0; stroke-width: 0;"/></g><g class="layer-below"><g class="imagelayer"/><g class="shapelayer"/></g><g class="cartesianlayer"><g class="subplot xy"><g class="layer-subplot"><g class="shapelayer"/><g class="imagelayer"/></g><g class="gridlayer"><g class="x"><path class="xgrid crisp" transform="translate(91.03,0)" d="M0,70v380" style="stroke: rgb(255, 255, 255); stroke-opacity: 1; stroke-width: 1px;"/><path class="xgrid crisp" transform="translate(166.87,0)" d="M0,70v380" style="stroke: rgb(255, 255, 255); stroke-opacity: 1; stroke-width: 1px;"/><path class="xgrid crisp" transform="translate(240.23,0)" d="M0,70v380" style="stroke: rgb(255, 255, 255); stroke-opacity: 1; stroke-width: 1px;"/><path class="xgrid crisp" transform="translate(316.07,0)" d="M0,70v380" style="stroke: rgb(255, 255, 255); stroke-opacity: 1; stroke-width: 1px;"/><path class="xgrid crisp" transform="translate(391.92,0)" d="M0,70v380" style="stroke: rgb(255, 255, 255); stroke-opacity: 1; stroke-width: 1px;"/><path class="xgrid crisp" transform="translate(469.01,0)" d="M0,70v380" style="stroke: rgb(255, 255, 255); stroke-opacity: 1; stroke-width: 1px;"/><path class="xgrid crisp" transform="translate(544.85,0)" d="M0,70v380" style="stroke: rgb(255, 255, 255); stroke-opacity: 1; stroke-width: 1px;"/><path class="xgrid crisp" transform="translate(620.69,0)" d="M0,70v380" style="stroke: rgb(255, 255, 255); stroke-opacity: 1; stroke-width: 1px;"/><path class="xgrid crisp" transform="translate(694.05,0)" d="M0,70v380" style="stroke: rgb(255, 255, 255); stroke-opacity: 1; stroke-width: 1px;"/></g><g class="y"/></g><g class="zerolinelayer"/><path class="xlines-below"/><path class="ylines-below"/><g class="overlines-below"/><g class="xaxislayer-below"/><g class="yaxislayer-below"/><g class="overaxes-below"/><g class="plot" transform="translate(50, 70)" clip-path="url('#clipc0ab6axyplot')"><g class="scatterlayer mlayer"><g class="trace scatter traced27c1b" style="stroke-miterlimit: 2;"><g class="fills"><g><path class="js-fill" d="M678.86,380L-169.09,380L-169.09,379.46L-156.66,379.25L-155.42,379.25L-58.44,378.64L-57.19,377.81L-49.73,377.06L-48.49,377.56L-28.6,376.49L-27.35,376.06L-22.38,375.2L-21.14,375.05L-17.41,375.52L-16.16,374.95L-9.95,374.45L-8.7,374.52L-4.97,374.7L-3.73,374.48L-1.24,374.45L0,373.44L2.49,372.94L3.73,371.51L4.97,370.75L6.22,368.93L9.95,364.52L11.19,364.55L13.68,363.26L14.92,362.58L18.65,359.65L19.89,359L26.11,342.3L27.35,340.04L28.6,339.65L29.84,336.24L33.57,326.71L34.81,327.5L37.3,328.97L38.54,329.79L41.03,331.98L42.27,335.31L44.76,336.96L46,337.14L48.49,343.77L49.73,350.61L50.98,349.68L52.22,351.62L53.46,352.73L54.71,352.8L55.95,352.84L57.19,353.91L58.44,351.37L59.68,354.84L63.41,355.67L64.65,357.71L67.14,359.65L68.38,361.26L69.63,363.12L70.87,363.26L73.36,363.91L74.6,365.52L78.33,366.1L79.57,366.63L83.3,366.06L84.55,365.38L88.28,365.31L89.52,365.31L92.01,364.23L93.25,363.91L96.98,360.79L98.22,360.76L99.47,361.4L100.71,359.75L101.95,358.14L103.2,358.75L104.44,362.23L105.68,362.05L108.17,361.83L109.41,363.26L110.66,364.2L111.9,363.52L113.14,363.26L114.39,361.83L119.36,360.86L120.6,361.44L121.85,358.39L123.09,359.65L125.58,360.43L126.82,361.47L128.06,362.37L129.31,361.87L133.04,363.55L134.28,363.16L139.25,362.51L140.5,362.12L142.98,362.58L144.23,361.26L146.71,360.29L147.96,360.51L150.44,359.93L151.69,359.9L152.93,360.15L154.17,359.5L155.42,360.29L156.66,358.25L159.15,358.75L160.39,358.14L161.63,358.61L162.88,360.33L165.36,362.66L166.61,362.19L170.34,362.87L171.58,362.33L172.82,362.19L174.07,363.34L176.55,362.94L177.8,363.19L180.28,361.65L181.53,358.57L184.01,355.78L185.26,355.24L191.47,351.08L192.72,350.61L193.96,350.4L195.2,348.72L201.42,345.45L202.66,345.38L205.15,341.33L206.39,341.33L208.88,338.61L210.12,337.32L211.37,337.1L212.61,335.89L218.83,331.19L220.07,331.08L222.56,327.68L223.8,327.5L226.29,329.01L227.53,329.62L228.77,330.51L230.02,340.62L232.5,344.31L233.75,346.64L236.23,350.11L237.48,349.61L238.72,344.09L239.96,347.46L244.94,350.04L246.18,350.26L247.42,351.62L248.67,351.12L249.91,351.58L251.15,353.09L252.4,353.73L253.64,352.8L256.13,353.66L257.37,355.63L261.1,358.03L262.34,361.51L263.59,361.4L264.83,362.51L269.8,367.28L271.05,367.1L272.29,367.28L273.53,368.6L276.02,369.46L277.26,370.97L280.99,370.15L282.24,370.25L284.72,370.29L285.97,368.89L289.7,370.18L290.94,372.37L294.67,373.51L295.91,374.34L298.4,374.3L299.64,373.51L302.13,374.55L303.37,375.05L307.1,376.34L308.35,376.63L310.83,377.28L312.08,377.96L319.54,379.18L320.78,379.14L333.21,379.18L334.46,379.18L355.6,378.35L356.84,377.81L360.57,376.99L361.81,376.27L365.54,374.37L366.79,373.8L368.03,373.84L369.27,372.98L371.76,372.08L373,371.87L379.22,371.58L380.46,371.72L389.17,370.4L390.41,369.07L397.87,367.71L399.11,368.82L416.52,370.79L417.76,370.54L427.71,374.41L428.95,374.3L432.68,375.56L433.93,375.34L441.39,374.23L442.63,374.41L446.36,375.16L447.6,375.02L456.31,375.23L457.55,375.7L462.52,377.06L463.77,376.92L467.5,376.99L468.74,377.06L472.47,377.28L473.71,377.13L484.9,377.46L486.15,376.85L489.88,376.56L491.12,376.81L499.82,376.99L501.07,376.56L503.55,375.7L504.8,375.2L509.77,371.97L511.01,370.11L513.5,366.42L514.74,365.13L515.99,364.91L517.23,361.97L523.45,353.8L524.69,353.7L527.18,346.96L528.42,344.99L532.15,338.25L533.39,338.32L534.64,338.07L535.88,336.82L537.12,336.89L538.37,337.96L540.85,339.47L542.1,338.79L545.83,341.33L547.07,340.87L549.56,343.38L550.8,343.16L552.04,344.02L553.29,343.3L555.77,339.22L557.02,333.88L558.26,335.74L559.5,333.84L564.48,275.18L565.72,260.85L568.21,253.46L569.45,223L571.94,188.67L573.18,181.58L574.42,173.48L575.67,154.92L578.15,150.98L579.4,150.22L584.37,102.49L585.61,97.19L589.34,46.84L590.59,30.14L593.07,16.88L594.32,15.09L595.56,0.22L596.8,0L599.29,13.62L600.53,14.73L603.02,23.29L604.26,42.61L607.99,77.4L609.24,95.61L610.48,109.19L611.72,112.56L615.45,188.42L616.7,206.77L619.18,234.97L620.43,238.74L622.91,264.18L624.16,273.03L627.89,292.67L629.13,295.82L632.86,310.94L634.1,314.85L636.59,319.47L637.83,319.94L639.08,323.42L640.32,324.53L642.81,325.49L644.05,327.11L645.29,324.88L646.54,324.67L649.02,321.98L650.27,320.01L652.75,315.5L654,315.28L655.24,315.07L656.48,309.48L661.46,288.51L662.7,281.63L663.94,279.59L665.19,265.86L670.16,226.7L671.4,224.65L672.65,224.19L673.89,222L675.13,222.43L676.38,223.94L677.62,224.98L678.86,231.68" style="fill: rgb(8, 115, 191); fill-opacity: 0.2; stroke-width: 0;"/></g></g><g class="errorbars"/><g class="lines"><path class="js-line" d="M-169.09,379.46L-156.66,379.25L-155.42,379.25L-58.44,378.64L-57.19,377.81L-49.73,377.06L-48.49,377.56L-28.6,376.49L-27.35,376.06L-22.38,375.2L-21.14,375.05L-17.41,375.52L-16.16,374.95L-9.95,374.45L-8.7,374.52L-4.97,374.7L-3.73,374.48L-1.24,374.45L0,373.44L2.49,372.94L3.73,371.51L4.97,370.75L6.22,368.93L9.95,364.52L11.19,364.55L13.68,363.26L14.92,362.58L18.65,359.65L19.89,359L26.11,342.3L27.35,340.04L28.6,339.65L29.84,336.24L33.57,326.71L34.81,327.5L37.3,328.97L38.54,329.79L41.03,331.98L42.27,335.31L44.76,336.96L46,337.14L48.49,343.77L49.73,350.61L50.98,349.68L52.22,351.62L53.46,352.73L54.71,352.8L55.95,352.84L57.19,353.91L58.44,351.37L59.68,354.84L63.41,355.67L64.65,357.71L67.14,359.65L68.38,361.26L69.63,363.12L70.87,363.26L73.36,363.91L74.6,365.52L78.33,366.1L79.57,366.63L83.3,366.06L84.55,365.38L88.28,365.31L89.52,365.31L92.01,364.23L93.25,363.91L96.98,360.79L98.22,360.76L99.47,361.4L100.71,359.75L101.95,358.14L103.2,358.75L104.44,362.23L105.68,362.05L108.17,361.83L109.41,363.26L110.66,364.2L111.9,363.52L113.14,363.26L114.39,361.83L119.36,360.86L120.6,361.44L121.85,358.39L123.09,359.65L125.58,360.43L126.82,361.47L128.06,362.37L129.31,361.87L133.04,363.55L134.28,363.16L139.25,362.51L140.5,362.12L142.98,362.58L144.23,361.26L146.71,360.29L147.96,360.51L150.44,359.93L151.69,359.9L152.93,360.15L154.17,359.5L155.42,360.29L156.66,358.25L159.15,358.75L160.39,358.14L161.63,358.61L162.88,360.33L165.36,362.66L166.61,362.19L170.34,362.87L171.58,362.33L172.82,362.19L174.07,363.34L176.55,362.94L177.8,363.19L180.28,361.65L181.53,358.57L184.01,355.78L185.26,355.24L191.47,351.08L192.72,350.61L193.96,350.4L195.2,348.72L201.42,345.45L202.66,345.38L205.15,341.33L206.39,341.33L208.88,338.61L210.12,337.32L211.37,337.1L212.61,335.89L218.83,331.19L220.07,331.08L222.56,327.68L223.8,327.5L226.29,329.01L227.53,329.62L228.77,330.51L230.02,340.62L232.5,344.31L233.75,346.64L236.23,350.11L237.48,349.61L238.72,344.09L239.96,347.46L244.94,350.04L246.18,350.26L247.42,351.62L248.67,351.12L249.91,351.58L251.15,353.09L252.4,353.73L253.64,352.8L256.13,353.66L257.37,355.63L261.1,358.03L262.34,361.51L263.59,361.4L264.83,362.51L269.8,367.28L271.05,367.1L272.29,367.28L273.53,368.6L276.02,369.46L277.26,370.97L280.99,370.15L282.24,370.25L284.72,370.29L285.97,368.89L289.7,370.18L290.94,372.37L294.67,373.51L295.91,374.34L298.4,374.3L299.64,373.51L302.13,374.55L303.37,375.05L307.1,376.34L308.35,376.63L310.83,377.28L312.08,377.96L319.54,379.18L320.78,379.14L333.21,379.18L334.46,379.18L355.6,378.35L356.84,377.81L360.57,376.99L361.81,376.27L365.54,374.37L366.79,373.8L368.03,373.84L369.27,372.98L371.76,372.08L373,371.87L379.22,371.58L380.46,371.72L389.17,370.4L390.41,369.07L397.87,367.71L399.11,368.82L416.52,370.79L417.76,370.54L427.71,374.41L428.95,374.3L432.68,375.56L433.93,375.34L441.39,374.23L442.63,374.41L446.36,375.16L447.6,375.02L456.31,375.23L457.55,375.7L462.52,377.06L463.77,376.92L467.5,376.99L468.74,377.06L472.47,377.28L473.71,377.13L484.9,377.46L486.15,376.85L489.88,376.56L491.12,376.81L499.82,376.99L501.07,376.56L503.55,375.7L504.8,375.2L509.77,371.97L511.01,370.11L513.5,366.42L514.74,365.13L515.99,364.91L517.23,361.97L523.45,353.8L524.69,353.7L527.18,346.96L528.42,344.99L532.15,338.25L533.39,338.32L534.64,338.07L535.88,336.82L537.12,336.89L538.37,337.96L540.85,339.47L542.1,338.79L545.83,341.33L547.07,340.87L549.56,343.38L550.8,343.16L552.04,344.02L553.29,343.3L555.77,339.22L557.02,333.88L558.26,335.74L559.5,333.84L564.48,275.18L565.72,260.85L568.21,253.46L569.45,223L571.94,188.67L573.18,181.58L574.42,173.48L575.67,154.92L578.15,150.98L579.4,150.22L584.37,102.49L585.61,97.19L589.34,46.84L590.59,30.14L593.07,16.88L594.32,15.09L595.56,0.22L596.8,0L599.29,13.62L600.53,14.73L603.02,23.29L604.26,42.61L607.99,77.4L609.24,95.61L610.48,109.19L611.72,112.56L615.45,188.42L616.7,206.77L619.18,234.97L620.43,238.74L622.91,264.18L624.16,273.03L627.89,292.67L629.13,295.82L632.86,310.94L634.1,314.85L636.59,319.47L637.83,319.94L639.08,323.42L640.32,324.53L642.81,325.49L644.05,327.11L645.29,324.88L646.54,324.67L649.02,321.98L650.27,320.01L652.75,315.5L654,315.28L655.24,315.07L656.48,309.48L661.46,288.51L662.7,281.63L663.94,279.59L665.19,265.86L670.16,226.7L671.4,224.65L672.65,224.19L673.89,222L675.13,222.43L676.38,223.94L677.62,224.98L678.86,231.68" style="vector-effect: non-scaling-stroke; fill: none; stroke: rgb(8, 115, 191); stroke-opacity: 1; stroke-width: 0.5px; opacity: 1;"/></g><g class="points"/><g class="text"/></g><g class="trace scatter traceb1e45f" style="stroke-miterlimit: 2;"><g class="fills"><g><path class="js-fill" d="M691.3,380L678.86,380L678.86,231.68L681.35,234.69L682.59,239.95L683.84,242.32L685.08,242.53L686.32,244.4L687.57,244.33L688.81,244.15L690.05,244.76L691.3,247.66" style="fill: rgb(8, 115, 191); fill-opacity: 0.4; stroke-width: 0;"/></g></g><g class="errorbars"/><g class="lines"><path class="js-line" d="M678.86,231.68L681.35,234.69L682.59,239.95L683.84,242.32L685.08,242.53L686.32,244.4L687.57,244.33L688.81,244.15L690.05,244.76L691.3,247.66" style="vector-effect: non-scaling-stroke; fill: none; stroke: rgb(8, 115, 191); stroke-opacity: 1; stroke-width: 2px; opacity: 1;"/></g><g class="points"/><g class="text"/></g><g class="trace scatter tracea29e0c" style="stroke-miterlimit: 2; opacity: 1;"><g class="fills"/><g class="errorbars"/><g class="lines"/><g class="points"><path class="point" transform="translate(691.3,247.66)" d="M15,0A15,15 0 1,1 0,-15A15,15 0 0,1 15,0Z" style="opacity: 1; stroke-width: 0px; fill: rgb(8, 115, 191); fill-opacity: 1;"/></g><g class="text"/></g></g></g><g class="overplot"/><path class="xlines-above crisp" style="fill: none; stroke-width: 1px; stroke: rgb(0, 0, 0); stroke-opacity: 0;" d=""/><path class="ylines-above crisp" style="fill: none;" d="M0,0"/><g class="overlines-above"/><g class="xaxislayer-above"><path class="xtick ticks crisp" d="M0,450v-5" transform="translate(91.03,0)" style="stroke: rgb(68, 68, 68); stroke-opacity: 1; stroke-width: 1px;"/><path class="xtick ticks crisp" d="M0,450v-5" transform="translate(166.87,0)" style="stroke: rgb(68, 68, 68); stroke-opacity: 1; stroke-width: 1px;"/><path class="xtick ticks crisp" d="M0,450v-5" transform="translate(240.23,0)" style="stroke: rgb(68, 68, 68); stroke-opacity: 1; stroke-width: 1px;"/><path class="xtick ticks crisp" d="M0,450v-5" transform="translate(316.07,0)" style="stroke: rgb(68, 68, 68); stroke-opacity: 1; stroke-width: 1px;"/><path class="xtick ticks crisp" d="M0,450v-5" transform="translate(391.92,0)" style="stroke: rgb(68, 68, 68); stroke-opacity: 1; stroke-width: 1px;"/><path class="xtick ticks crisp" d="M0,450v-5" transform="translate(469.01,0)" style="stroke: rgb(68, 68, 68); stroke-opacity: 1; stroke-width: 1px;"/><path class="xtick ticks crisp" d="M0,450v-5" transform="translate(544.85,0)" style="stroke: rgb(68, 68, 68); stroke-opacity: 1; stroke-width: 1px;"/><path class="xtick ticks crisp" d="M0,450v-5" transform="translate(620.69,0)" style="stroke: rgb(68, 68, 68); stroke-opacity: 1; stroke-width: 1px;"/><path class="xtick ticks crisp" d="M0,450v-5" transform="translate(694.05,0)" style="stroke: rgb(68, 68, 68); stroke-opacity: 1; stroke-width: 1px;"/><g class="xtick"><text text-anchor="middle" x="0" y="469" transform="translate(91.03,0)" style="font-family: 'Open Sans', verdana, arial, sans-serif; font-size: 18px; fill: rgb(42, 63, 95); fill-opacity: 1; white-space: pre;">01/11</text></g><g class="xtick"><text text-anchor="middle" x="0" y="469" transform="translate(166.87,0)" style="font-family: 'Open Sans', verdana, arial, sans-serif; font-size: 18px; fill: rgb(42, 63, 95); fill-opacity: 1; white-space: pre;">01/01</text></g><g class="xtick"><text text-anchor="middle" x="0" y="469" transform="translate(240.23,0)" style="font-family: 'Open Sans', verdana, arial, sans-serif; font-size: 18px; fill: rgb(42, 63, 95); fill-opacity: 1; white-space: pre;">01/03</text></g><g class="xtick"><text text-anchor="middle" x="0" y="469" transform="translate(316.07,0)" style="font-family: 'Open Sans', verdana, arial, sans-serif; font-size: 18px; fill: rgb(42, 63, 95); fill-opacity: 1; white-space: pre;">01/05</text></g><g class="xtick"><text text-anchor="middle" x="0" y="469" transform="translate(391.92,0)" style="font-family: 'Open Sans', verdana, arial, sans-serif; font-size: 18px; fill: rgb(42, 63, 95); fill-opacity: 1; white-space: pre;">01/07</text></g><g class="xtick"><text text-anchor="middle" x="0" y="469" transform="translate(469.01,0)" style="font-family: 'Open Sans', verdana, arial, sans-serif; font-size: 18px; fill: rgb(42, 63, 95); fill-opacity: 1; white-space: pre;">01/09</text></g><g class="xtick"><text text-anchor="middle" x="0" y="469" transform="translate(544.85,0)" style="font-family: 'Open Sans', verdana, arial, sans-serif; font-size: 18px; fill: rgb(42, 63, 95); fill-opacity: 1; white-space: pre;">01/11</text></g><g class="xtick"><text text-anchor="middle" x="0" y="469" transform="translate(620.69,0)" style="font-family: 'Open Sans', verdana, arial, sans-serif; font-size: 18px; fill: rgb(42, 63, 95); fill-opacity: 1; white-space: pre;">01/01</text></g><g class="xtick"><text text-anchor="middle" x="0" y="469" transform="translate(694.05,0)" style="font-family: 'Open Sans', verdana, arial, sans-serif; font-size: 18px; fill: rgb(42, 63, 95); fill-opacity: 1; white-space: pre;">01/03</text></g></g><g class="yaxislayer-above"/><g class="overaxes-above"/></g></g><g class="polarlayer"/><g class="ternarylayer"/><g class="geolayer"/><g class="funnelarealayer"/><g class="pielayer"/><g class="treemaplayer"/><g class="sunburstlayer"/><g class="glimages"/><defs id="topdefs-c0ab6a"><g class="clips"/></defs><g class="layer-above"><g class="imagelayer"/><g class="shapelayer"><path data-index="0" fill-rule="evenodd" d="M-648.76,444.45L260.12,444.45" clip-path="url('#clipc0ab6axy')" style="opacity: 1; stroke: rgb(255, 0, 0); stroke-opacity: 1; fill: rgb(0, 0, 0); fill-opacity: 0; stroke-dasharray: 3px, 3px; stroke-width: 1.5px;"/></g></g><g class="infolayer"><g class="g-gtitle"><text class="gtitle" x="375" y="25" text-anchor="middle" dy="0.7em" style="font-family: 'Open Sans', verdana, arial, sans-serif; font-size: 50px; fill: rgb(42, 63, 95); opacity: 1; font-weight: normal; white-space: pre;"><tspan style="font-weight:bold">Aube (10)</tspan></text></g><g class="g-xtitle"/><g class="annotation" data-index="0" style="opacity: 1;"><g class="annotation-text-g" transform="rotate(0,699.3,257.65999999999997)"><g class="cursor-pointer" transform="translate(627, 222)"><rect class="bg" x="0.5" y="0.5" width="143" height="71" style="stroke-width: 1px; stroke: rgb(0, 0, 0); stroke-opacity: 0; fill: rgb(255, 255, 255); fill-opacity: 0.6;"/><text class="annotation-text" text-anchor="middle" x="72.078125" y="55.5" style="font-family: 'Open Sans', verdana, arial, sans-serif; font-size: 50px; fill: rgb(8, 115, 191); fill-opacity: 1; white-space: pre;"> <tspan style="font-weight:bold">1191 </tspan></text></g></g><g class="annotation-arrow-g" style="opacity: 1;"><path d="M727.6999999999999,293.15999999999997L739.3,307.65999999999997" style="stroke-width: 1px; stroke: rgb(8, 115, 191); stroke-opacity: 1; stroke-dasharray: 0px, 0px, 18.569px, 18.569px;"/></g></g></g></svg>