<svg class="main-svg" xmlns="http://www.w3.org/2000/svg" xmlns:xlink="http://www.w3.org/1999/xlink" width="1125" height="750" style="" viewBox="0 0 750 500"><rect x="0" y="0" width="750" height="500" style="fill: rgb(0, 0, 0); fill-opacity: 0;"/><defs id="defs-3511c7"><g class="clips"><clipPath id="clip3511c7xyplot" class="plotclip"><rect width="700" height="380"/></clipPath><clipPath class="axesclip" id="clip3511c7x"><rect x="50" y="0" width="700" height="500"/></clipPath><clipPath class="axesclip" id="clip3511c7y"><rect x="0" y="70" width="750" height="380"/></clipPath><clipPath class="axesclip" id="clip3511c7xy"><rect x="50" y="70" width="700" height="380"/></clipPath></g><g class="gradients"/></defs><g class="bglayer"><rect class="bg" x="50" y="70" width="700" height="380" style="fill: rgb(0, 0, 0); fill-opacity: 0; stroke-width: 0;"/></g><g class="layer-below"><g class="imagelayer"/><g class="shapelayer"/></g><g class="cartesianlayer"><g class="subplot xy"><g class="layer-subplot"><g class="shapelayer"/><g class="imagelayer"/></g><g class="gridlayer"><g class="x"><path class="xgrid crisp" transform="translate(90.88,0)" d="M0,70v380" style="stroke: rgb(255, 255, 255); stroke-opacity: 1; stroke-width: 1px;"/><path class="xgrid crisp" transform="translate(166.45999999999998,0)" d="M0,70v380" style="stroke: rgb(255, 255, 255); stroke-opacity: 1; stroke-width: 1px;"/><path class="xgrid crisp" transform="translate(239.56,0)" d="M0,70v380" style="stroke: rgb(255, 255, 255); stroke-opacity: 1; stroke-width: 1px;"/><path class="xgrid crisp" transform="translate(315.13,0)" d="M0,70v380" style="stroke: rgb(255, 255, 255); stroke-opacity: 1; stroke-width: 1px;"/><path class="xgrid crisp" transform="translate(390.71,0)" d="M0,70v380" style="stroke: rgb(255, 255, 255); stroke-opacity: 1; stroke-width: 1px;"/><path class="xgrid crisp" transform="translate(467.52,0)" d="M0,70v380" style="stroke: rgb(255, 255, 255); stroke-opacity: 1; stroke-width: 1px;"/><path class="xgrid crisp" transform="translate(543.1,0)" d="M0,70v380" style="stroke: rgb(255, 255, 255); stroke-opacity: 1; stroke-width: 1px;"/><path class="xgrid crisp" transform="translate(618.67,0)" d="M0,70v380" style="stroke: rgb(255, 255, 255); stroke-opacity: 1; stroke-width: 1px;"/><path class="xgrid crisp" transform="translate(691.77,0)" d="M0,70v380" style="stroke: rgb(255, 255, 255); stroke-opacity: 1; stroke-width: 1px;"/></g><g class="y"/></g><g class="zerolinelayer"/><path class="xlines-below"/><path class="ylines-below"/><g class="overlines-below"/><g class="xaxislayer-below"/><g class="yaxislayer-below"/><g class="overaxes-below"/><g class="plot" transform="translate(50, 70)" clip-path="url('#clip3511c7xyplot')"><g class="scatterlayer mlayer"><g class="trace scatter trace8fac89" style="stroke-miterlimit: 2;"><g class="fills"><g><path class="js-fill" d="M678.94,380L-168.5,380L-168.5,379.51L-146.19,379.57L-144.96,379.57L-125.13,379.81L-123.89,379.79L-39.65,378.96L-38.41,378.72L-12.39,376.76L-11.15,376.14L-3.72,376.44L-2.48,377.22L6.19,375.59L7.43,375.08L13.63,372.91L14.87,372.04L21.06,370.43L22.3,369.04L24.78,365.94L26.02,363.78L27.26,362.58L28.5,362.44L32.21,355.7L33.45,354.84L34.69,354.06L35.93,354.19L40.88,354.31L42.12,354.69L45.84,355.08L47.08,356.22L48.32,358.06L49.56,362.29L52.04,364.41L53.27,365.34L54.51,365.25L55.75,366.88L56.99,367.59L58.23,366.22L60.71,369.93L61.95,370.46L63.19,370.57L64.42,372.02L66.9,373.64L68.14,374.1L81.77,375.37L83.01,375.34L86.73,374.65L87.96,374.43L90.44,373.95L91.68,373.45L94.16,373.27L95.4,373.3L102.83,373.49L104.07,374.44L107.79,373.91L109.03,373.64L120.18,369.99L121.42,368.44L123.89,369.14L125.13,369.58L126.37,369.56L127.61,368.57L142.48,366.3L143.72,366.46L147.43,367.48L148.67,367.48L163.54,369.87L164.78,370.24L169.73,370.91L170.97,370.31L179.65,368.92L180.88,369.13L183.36,369.04L184.6,369.09L196.99,370.04L198.23,369.74L206.9,366.61L208.14,365.79L211.86,364.85L213.1,363.99L218.05,359.26L219.29,359.01L223.01,355.64L224.25,354.88L227.96,355.72L229.2,359.56L230.44,358.72L231.68,359.02L235.4,359.25L236.64,359.16L237.88,355.5L239.12,356.77L246.55,359.46L247.79,360.26L251.5,361.63L252.74,361.85L253.98,361.94L255.22,362.86L257.7,364.13L258.94,365.18L261.42,367.76L262.65,367.75L265.13,369.23L266.37,369.52L268.85,370.19L270.09,370.23L275.04,371.17L276.28,372.26L281.24,371.83L282.48,372.06L283.72,372.07L284.96,371.28L287.43,372.27L288.67,372.39L289.91,373.69L291.15,373.6L299.82,374.15L301.06,374.75L308.5,376.99L309.73,377.18L313.45,378.12L314.69,378.13L323.36,379.57L324.6,379.6L340.71,379.41L341.95,379.07L353.1,376.14L354.34,375.07L361.77,371.15L363.01,371.58L371.68,369.32L372.92,369.51L379.12,370.08L380.35,370.38L386.55,370.57L387.79,370.31L393.98,369.63L395.22,369.87L397.7,369.93L398.94,370.21L403.89,371.12L405.13,371.75L408.85,372.02L410.09,372.14L413.81,372.84L415.04,373L424.96,376.04L426.19,376.02L429.91,376.92L431.15,377.06L438.58,377.67L439.82,377.86L448.5,378.13L449.73,378.05L454.69,378.26L455.93,378.22L460.88,377.38L462.12,377.38L474.51,373.54L475.75,372.86L483.19,372.01L484.42,372.25L488.14,371.68L489.38,373.27L491.86,371.98L493.1,371.47L496.81,371.16L498.05,369.23L499.29,369.59L500.53,368.89L501.77,369.97L503.01,368.49L506.73,366.79L507.96,365.74L509.2,365.18L510.44,362.92L512.92,362.81L514.16,362.6L520.35,359.31L521.59,358.62L522.83,358.46L524.07,355.99L527.79,350.63L529.03,348.74L531.5,347.14L532.74,346.37L536.46,345.44L537.7,346.24L540.18,346.06L541.42,347.1L545.13,350.93L546.37,351.63L550.09,353.48L551.33,352.79L552.57,351.78L553.81,349.27L555.04,347L556.28,349.71L557.52,348.43L558.76,337.13L563.72,293.44L564.96,292.67L566.19,289.36L567.43,268.83L569.91,248.27L571.15,243.04L572.39,237.43L573.63,221.95L576.11,219.84L577.35,216.78L583.54,172.39L584.78,149.23L590.97,44.66L592.21,39.3L593.45,15.3L594.69,5.94L595.93,0L597.17,0.25L599.65,3.19L600.88,4.75L603.36,29.05L604.6,50.03L608.32,110.18L609.56,118.27L612.04,188.14L613.27,210.75L616.99,258.35L618.23,260.36L621.95,291.67L623.19,297.65L625.66,304.17L626.9,305.9L629.38,314.43L630.62,317.19L634.34,325.89L635.58,326.81L638.05,330.22L639.29,330.03L643.01,331.18L644.25,330.93L646.73,329.51L647.96,327.76L652.92,317.8L654.16,311.62L659.12,296.18L660.35,293.35L661.59,292.9L662.83,283.01L667.79,254.6L669.03,250.96L670.27,250.07L671.5,243.12L673.98,238.81L675.22,238.94L676.46,241.01L677.7,241.55L678.94,241.85" style="fill: rgb(8, 115, 191); fill-opacity: 0.2; stroke-width: 0;"/></g></g><g class="errorbars"/><g class="lines"><path class="js-line" d="M-168.5,379.51L-146.19,379.57L-144.96,379.57L-125.13,379.81L-123.89,379.79L-39.65,378.96L-38.41,378.72L-12.39,376.76L-11.15,376.14L-3.72,376.44L-2.48,377.22L6.19,375.59L7.43,375.08L13.63,372.91L14.87,372.04L21.06,370.43L22.3,369.04L24.78,365.94L26.02,363.78L27.26,362.58L28.5,362.44L32.21,355.7L33.45,354.84L34.69,354.06L35.93,354.19L40.88,354.31L42.12,354.69L45.84,355.08L47.08,356.22L48.32,358.06L49.56,362.29L52.04,364.41L53.27,365.34L54.51,365.25L55.75,366.88L56.99,367.59L58.23,366.22L60.71,369.93L61.95,370.46L63.19,370.57L64.42,372.02L66.9,373.64L68.14,374.1L81.77,375.37L83.01,375.34L86.73,374.65L87.96,374.43L90.44,373.95L91.68,373.45L94.16,373.27L95.4,373.3L102.83,373.49L104.07,374.44L107.79,373.91L109.03,373.64L120.18,369.99L121.42,368.44L123.89,369.14L125.13,369.58L126.37,369.56L127.61,368.57L142.48,366.3L143.72,366.46L147.43,367.48L148.67,367.48L163.54,369.87L164.78,370.24L169.73,370.91L170.97,370.31L179.65,368.92L180.88,369.13L183.36,369.04L184.6,369.09L196.99,370.04L198.23,369.74L206.9,366.61L208.14,365.79L211.86,364.85L213.1,363.99L218.05,359.26L219.29,359.01L223.01,355.64L224.25,354.88L227.96,355.72L229.2,359.56L230.44,358.72L231.68,359.02L235.4,359.25L236.64,359.16L237.88,355.5L239.12,356.77L246.55,359.46L247.79,360.26L251.5,361.63L252.74,361.85L253.98,361.94L255.22,362.86L257.7,364.13L258.94,365.18L261.42,367.76L262.65,367.75L265.13,369.23L266.37,369.52L268.85,370.19L270.09,370.23L275.04,371.17L276.28,372.26L281.24,371.83L282.48,372.06L283.72,372.07L284.96,371.28L287.43,372.27L288.67,372.39L289.91,373.69L291.15,373.6L299.82,374.15L301.06,374.75L308.5,376.99L309.73,377.18L313.45,378.12L314.69,378.13L323.36,379.57L324.6,379.6L340.71,379.41L341.95,379.07L353.1,376.14L354.34,375.07L361.77,371.15L363.01,371.58L371.68,369.32L372.92,369.51L379.12,370.08L380.35,370.38L386.55,370.57L387.79,370.31L393.98,369.63L395.22,369.87L397.7,369.93L398.94,370.21L403.89,371.12L405.13,371.75L408.85,372.02L410.09,372.14L413.81,372.84L415.04,373L424.96,376.04L426.19,376.02L429.91,376.92L431.15,377.06L438.58,377.67L439.82,377.86L448.5,378.13L449.73,378.05L454.69,378.26L455.93,378.22L460.88,377.38L462.12,377.38L474.51,373.54L475.75,372.86L483.19,372.01L484.42,372.25L488.14,371.68L489.38,373.27L491.86,371.98L493.1,371.47L496.81,371.16L498.05,369.23L499.29,369.59L500.53,368.89L501.77,369.97L503.01,368.49L506.73,366.79L507.96,365.74L509.2,365.18L510.44,362.92L512.92,362.81L514.16,362.6L520.35,359.31L521.59,358.62L522.83,358.46L524.07,355.99L527.79,350.63L529.03,348.74L531.5,347.14L532.74,346.37L536.46,345.44L537.7,346.24L540.18,346.06L541.42,347.1L545.13,350.93L546.37,351.63L550.09,353.48L551.33,352.79L552.57,351.78L553.81,349.27L555.04,347L556.28,349.71L557.52,348.43L558.76,337.13L563.72,293.44L564.96,292.67L566.19,289.36L567.43,268.83L569.91,248.27L571.15,243.04L572.39,237.43L573.63,221.95L576.11,219.84L577.35,216.78L583.54,172.39L584.78,149.23L590.97,44.66L592.21,39.3L593.45,15.3L594.69,5.94L595.93,0L597.17,0.25L599.65,3.19L600.88,4.75L603.36,29.05L604.6,50.03L608.32,110.18L609.56,118.27L612.04,188.14L613.27,210.75L616.99,258.35L618.23,260.36L621.95,291.67L623.19,297.65L625.66,304.17L626.9,305.9L629.38,314.43L630.62,317.19L634.34,325.89L635.58,326.81L638.05,330.22L639.29,330.03L643.01,331.18L644.25,330.93L646.73,329.51L647.96,327.76L652.92,317.8L654.16,311.62L659.12,296.18L660.35,293.35L661.59,292.9L662.83,283.01L667.79,254.6L669.03,250.96L670.27,250.07L671.5,243.12L673.98,238.81L675.22,238.94L676.46,241.01L677.7,241.55L678.94,241.85" style="vector-effect: non-scaling-stroke; fill: none; stroke: rgb(8, 115, 191); stroke-opacity: 1; stroke-width: 0.5px; opacity: 1;"/></g><g class="points"/><g class="text"/></g><g class="trace scatter tracefe4aba" style="stroke-miterlimit: 2;"><g class="fills"><g><path class="js-fill" d="M691.33,380L678.94,380L678.94,241.85L680.18,244.33L681.42,244.4L683.89,242.19L685.13,240.43L686.37,239.92L687.61,240.24L691.33,255.88" style="fill: rgb(8, 115, 191); fill-opacity: 0.4; stroke-width: 0;"/></g></g><g class="errorbars"/><g class="lines"><path class="js-line" d="M678.94,241.85L680.18,244.33L681.42,244.4L683.89,242.19L685.13,240.43L686.37,239.92L687.61,240.24L691.33,255.88" style="vector-effect: non-scaling-stroke; fill: none; stroke: rgb(8, 115, 191); stroke-opacity: 1; stroke-width: 2px; opacity: 1;"/></g><g class="points"/><g class="text"/></g><g class="trace scatter trace1c7158" style="stroke-miterlimit: 2; opacity: 1;"><g class="fills"/><g class="errorbars"/><g class="lines"/><g class="points"><path class="point" transform="translate(691.33,255.88)" d="M15,0A15,15 0 1,1 0,-15A15,15 0 0,1 15,0Z" style="opacity: 1; stroke-width: 0px; fill: rgb(8, 115, 191); fill-opacity: 1;"/></g><g class="text"/></g></g></g><g class="overplot"/><path class="xlines-above crisp" style="fill: none; stroke-width: 1px; stroke: rgb(0, 0, 0); stroke-opacity: 0;" d=""/><path class="ylines-above crisp" style="fill: none;" d="M0,0"/><g class="overlines-above"/><g class="xaxislayer-above"><path class="xtick ticks crisp" d="M0,450v-5" transform="translate(90.88,0)" style="stroke: rgb(68, 68, 68); stroke-opacity: 1; stroke-width: 1px;"/><path class="xtick ticks crisp" d="M0,450v-5" transform="translate(166.45999999999998,0)" style="stroke: rgb(68, 68, 68); stroke-opacity: 1; stroke-width: 1px;"/><path class="xtick ticks crisp" d="M0,450v-5" transform="translate(239.56,0)" style="stroke: rgb(68, 68, 68); stroke-opacity: 1; stroke-width: 1px;"/><path class="xtick ticks crisp" d="M0,450v-5" transform="translate(315.13,0)" style="stroke: rgb(68, 68, 68); stroke-opacity: 1; stroke-width: 1px;"/><path class="xtick ticks crisp" d="M0,450v-5" transform="translate(390.71,0)" style="stroke: rgb(68, 68, 68); stroke-opacity: 1; stroke-width: 1px;"/><path class="xtick ticks crisp" d="M0,450v-5" transform="translate(467.52,0)" style="stroke: rgb(68, 68, 68); stroke-opacity: 1; stroke-width: 1px;"/><path class="xtick ticks crisp" d="M0,450v-5" transform="translate(543.1,0)" style="stroke: rgb(68, 68, 68); stroke-opacity: 1; stroke-width: 1px;"/><path class="xtick ticks crisp" d="M0,450v-5" transform="translate(618.67,0)" style="stroke: rgb(68, 68, 68); stroke-opacity: 1; stroke-width: 1px;"/><path class="xtick ticks crisp" d="M0,450v-5" transform="translate(691.77,0)" style="stroke: rgb(68, 68, 68); stroke-opacity: 1; stroke-width: 1px;"/><g class="xtick"><text text-anchor="middle" x="0" y="469" transform="translate(90.88,0)" style="font-family: 'Open Sans', verdana, arial, sans-serif; font-size: 18px; fill: rgb(42, 63, 95); fill-opacity: 1; white-space: pre;">01/11</text></g><g class="xtick"><text text-anchor="middle" x="0" y="469" transform="translate(166.45999999999998,0)" style="font-family: 'Open Sans', verdana, arial, sans-serif; font-size: 18px; fill: rgb(42, 63, 95); fill-opacity: 1; white-space: pre;">01/01</text></g><g class="xtick"><text text-anchor="middle" x="0" y="469" transform="translate(239.56,0)" style="font-family: 'Open Sans', verdana, arial, sans-serif; font-size: 18px; fill: rgb(42, 63, 95); fill-opacity: 1; white-space: pre;">01/03</text></g><g class="xtick"><text text-anchor="middle" x="0" y="469" transform="translate(315.13,0)" style="font-family: 'Open Sans', verdana, arial, sans-serif; font-size: 18px; fill: rgb(42, 63, 95); fill-opacity: 1; white-space: pre;">01/05</text></g><g class="xtick"><text text-anchor="middle" x="0" y="469" transform="translate(390.71,0)" style="font-family: 'Open Sans', verdana, arial, sans-serif; font-size: 18px; fill: rgb(42, 63, 95); fill-opacity: 1; white-space: pre;">01/07</text></g><g class="xtick"><text text-anchor="middle" x="0" y="469" transform="translate(467.52,0)" style="font-family: 'Open Sans', verdana, arial, sans-serif; font-size: 18px; fill: rgb(42, 63, 95); fill-opacity: 1; white-space: pre;">01/09</text></g><g class="xtick"><text text-anchor="middle" x="0" y="469" transform="translate(543.1,0)" style="font-family: 'Open Sans', verdana, arial, sans-serif; font-size: 18px; fill: rgb(42, 63, 95); fill-opacity: 1; white-space: pre;">01/11</text></g><g class="xtick"><text text-anchor="middle" x="0" y="469" transform="translate(618.67,0)" style="font-family: 'Open Sans', verdana, arial, sans-serif; font-size: 18px; fill: rgb(42, 63, 95); fill-opacity: 1; white-space: pre;">01/01</text></g><g class="xtick"><text text-anchor="middle" x="0" y="469" transform="translate(691.77,0)" style="font-family: 'Open Sans', verdana, arial, sans-serif; font-size: 18px; fill: rgb(42, 63, 95); fill-opacity: 1; white-space: pre;">01/03</text></g></g><g class="yaxislayer-above"/><g class="overaxes-above"/></g></g><g class="polarlayer"/><g class="ternarylayer"/><g class="geolayer"/><g class="funnelarealayer"/><g class="pielayer"/><g class="treemaplayer"/><g class="sunburstlayer"/><g class="glimages"/><defs id="topdefs-3511c7"><g class="clips"/></defs><g class="layer-above"><g class="imagelayer"/><g class="shapelayer"><path data-index="0" fill-rule="evenodd" d="M-646.28,445.72L259.38,445.72" clip-path="url('#clip3511c7xy')" style="opacity: 1; stroke: rgb(255, 0, 0); stroke-opacity: 1; fill: rgb(0, 0, 0); fill-opacity: 0; stroke-dasharray: 3px, 3px; stroke-width: 1.5px;"/></g></g><g class="infolayer"><g class="g-gtitle"><text class="gtitle" x="375" y="25" text-anchor="middle" dy="0.7em" style="font-family: 'Open Sans', verdana, arial, sans-serif; font-size: 50px; fill: rgb(42, 63, 95); opacity: 1; font-weight: normal; white-space: pre;"><tspan style="font-weight:bold">Vendée (85)</tspan></text></g><g class="g-xtitle"/><g class="annotation" data-index="0" style="opacity: 1;"><g class="annotation-text-g" transform="rotate(0,699.33,265.88)"><g class="cursor-pointer" transform="translate(627, 230)"><rect class="bg" x="0.5" y="0.5" width="143" height="71" style="stroke-width: 1px; stroke: rgb(0, 0, 0); stroke-opacity: 0; fill: rgb(255, 255, 255); fill-opacity: 0.6;"/><text class="annotation-text" text-anchor="middle" x="72.078125" y="55.5" style="font-family: 'Open Sans', verdana, arial, sans-serif; font-size: 50px; fill: rgb(8, 115, 191); fill-opacity: 1; white-space: pre;"> <tspan style="font-weight:bold">1450 </tspan></text></g></g><g class="annotation-arrow-g" style="opacity: 1;"><path d="M727.73,301.38L739.33,315.88" style="stroke-width: 1px; stroke: rgb(8, 115, 191); stroke-opacity: 1; stroke-dasharray: 0px, 0px, 18.5691px, 18.5691px;"/></g></g></g></svg>