<svg class="main-svg" xmlns="http://www.w3.org/2000/svg" xmlns:xlink="http://www.w3.org/1999/xlink" width="1125" height="750" style="" viewBox="0 0 750 500"><rect x="0" y="0" width="750" height="500" style="fill: rgb(0, 0, 0); fill-opacity: 0;"/><defs id="defs-64f4ef"><g class="clips"><clipPath id="clip64f4efxyplot" class="plotclip"><rect width="700" height="380"/></clipPath><clipPath class="axesclip" id="clip64f4efx"><rect x="50" y="0" width="700" height="500"/></clipPath><clipPath class="axesclip" id="clip64f4efy"><rect x="0" y="70" width="750" height="380"/></clipPath><clipPath class="axesclip" id="clip64f4efxy"><rect x="50" y="70" width="700" height="380"/></clipPath></g><g class="gradients"/></defs><g class="bglayer"><rect class="bg" x="50" y="70" width="700" height="380" style="fill: rgb(0, 0, 0); fill-opacity: 0; stroke-width: 0;"/></g><g class="layer-below"><g class="imagelayer"/><g class="shapelayer"/></g><g class="cartesianlayer"><g class="subplot xy"><g class="layer-subplot"><g class="shapelayer"/><g class="imagelayer"/></g><g class="gridlayer"><g class="x"><path class="xgrid crisp" transform="translate(90.53,0)" d="M0,70v380" style="stroke: rgb(255, 255, 255); stroke-opacity: 1; stroke-width: 1px;"/><path class="xgrid crisp" transform="translate(165.44,0)" d="M0,70v380" style="stroke: rgb(255, 255, 255); stroke-opacity: 1; stroke-width: 1px;"/><path class="xgrid crisp" transform="translate(237.89,0)" d="M0,70v380" style="stroke: rgb(255, 255, 255); stroke-opacity: 1; stroke-width: 1px;"/><path class="xgrid crisp" transform="translate(312.81,0)" d="M0,70v380" style="stroke: rgb(255, 255, 255); stroke-opacity: 1; stroke-width: 1px;"/><path class="xgrid crisp" transform="translate(387.72,0)" d="M0,70v380" style="stroke: rgb(255, 255, 255); stroke-opacity: 1; stroke-width: 1px;"/><path class="xgrid crisp" transform="translate(463.86,0)" d="M0,70v380" style="stroke: rgb(255, 255, 255); stroke-opacity: 1; stroke-width: 1px;"/><path class="xgrid crisp" transform="translate(538.77,0)" d="M0,70v380" style="stroke: rgb(255, 255, 255); stroke-opacity: 1; stroke-width: 1px;"/><path class="xgrid crisp" transform="translate(613.68,0)" d="M0,70v380" style="stroke: rgb(255, 255, 255); stroke-opacity: 1; stroke-width: 1px;"/><path class="xgrid crisp" transform="translate(686.14,0)" d="M0,70v380" style="stroke: rgb(255, 255, 255); stroke-opacity: 1; stroke-width: 1px;"/></g><g class="y"/></g><g class="zerolinelayer"/><path class="xlines-below"/><path class="ylines-below"/><g class="overlines-below"/><g class="xaxislayer-below"/><g class="yaxislayer-below"/><g class="overaxes-below"/><g class="plot" transform="translate(50, 70)" clip-path="url('#clip64f4efxyplot')"><g class="scatterlayer mlayer"><g class="trace scatter tracecce1f6" style="stroke-miterlimit: 2;"><g class="fills"><g><path class="js-fill" d="M679.12,380L-167.02,380L-167.02,379.56L-151.05,379.78L-149.82,379.78L-47.89,378.78L-46.67,378.56L-41.75,377.86L-40.53,377.86L-28.25,376.61L-27.02,376.5L-18.42,375.76L-17.19,375.25L-11.05,375.61L-9.82,376.13L-4.91,376.61L-3.68,376.72L2.46,375.43L3.68,374.84L6.14,373.22L7.37,372.04L9.82,369.94L11.05,369.86L17.19,362.23L18.42,361.2L19.65,360.76L20.88,355.9L23.33,344.21L24.56,338.54L25.79,331.97L27.02,329.8L28.25,329.8L29.47,321.32L34.39,309.68L35.61,308.05L38.07,307.65L39.3,306.4L40.53,306.69L41.75,309.97L44.21,314.03L45.44,314.43L47.89,320.33L49.12,330.76L50.35,328.95L51.58,331.02L52.81,333.26L54.04,333.41L56.49,345.32L57.72,342.59L60.18,355.16L61.4,355.19L62.63,354.97L63.86,356.34L66.32,357.92L67.54,359.25L72.46,360.43L73.68,361.79L76.14,361.68L77.37,360.39L79.82,360.98L81.05,360.28L84.74,356.52L85.96,358L88.42,357.15L89.65,355.19L92.11,353.72L93.33,352.47L97.02,347.05L98.25,346.24L99.47,344.87L100.7,344.91L101.93,346.9L103.16,352.1L108.07,356.82L109.3,355.78L110.53,354.61L111.75,354.49L112.98,352.84L114.21,352.91L116.67,351.21L117.89,352.58L119.12,351.77L120.35,347.79L121.58,349.63L122.81,349.52L124.04,352.28L125.26,352.32L126.49,351.99L127.72,353.57L136.32,355.86L137.54,355.05L140,354.38L141.23,353.98L147.37,358.4L148.6,358.33L149.82,359.69L151.05,359.1L158.42,359.32L159.65,360.65L160.88,361.35L162.11,362.94L163.33,364.85L164.56,365.04L165.79,365.18L167.02,366.22L170.7,364.85L171.93,362.75L175.61,363.01L176.84,364.15L180.53,365.85L181.75,365.81L182.98,365.85L184.21,367.47L191.58,368.06L192.81,365.59L200.18,362.57L201.4,363.01L205.09,362.12L206.32,361.87L208.77,361.98L210,361.39L211.23,360.98L212.46,359.51L213.68,357.41L214.91,356.93L216.14,355.78L217.37,355.71L219.82,352.32L221.05,352.17L223.51,350.4L224.74,350.62L225.96,350.44L227.19,356.82L228.42,354.13L229.65,353.32L232.11,354.9L233.33,354.46L234.56,354.61L235.79,347.64L238.25,349.52L239.47,350.33L241.93,350.74L243.16,350.66L245.61,354.86L246.84,355.45L249.3,352.84L250.53,353.39L254.21,353.61L255.44,354.72L259.12,360.02L260.35,360.21L264.04,362.01L265.26,363.27L266.49,364.04L267.72,363.89L271.4,363.67L272.63,362.79L273.86,364.41L275.09,363.71L276.32,362.38L277.54,362.35L280,363.34L281.23,362.75L282.46,360.17L283.68,361.53L286.14,361.87L287.37,365.04L288.6,363.75L289.82,365.22L294.74,365.92L295.96,364.41L298.42,368.87L299.65,371.08L302.11,372.89L303.33,372.92L307.02,375.25L308.25,375.61L310.7,376.31L311.93,376.31L319.3,377.71L320.53,377.75L324.21,378.64L325.44,378.56L331.58,378.56L332.81,378.64L354.91,377.16L356.14,376.46L362.28,372.41L363.51,372.37L365.96,370.6L367.19,370.31L370.88,369.68L372.11,369.75L375.79,370.49L377.02,370.34L380.7,369.61L381.93,368.32L384.39,366.62L385.61,366.69L390.53,367.1L391.75,368.17L400.35,369.86L401.58,371.01L406.49,371.67L407.72,372.81L412.63,374.4L413.86,374.4L424.91,374.25L426.14,374.55L432.28,377.38L433.51,377.6L435.96,377.42L437.19,377.01L447.02,376.98L448.25,377.31L466.67,377.38L467.89,376.98L477.72,376.35L478.95,375.72L485.09,374.99L486.32,373.29L491.23,369.61L492.46,369.61L493.68,366.99L494.91,366.99L496.14,367.14L497.37,368.98L499.82,367.14L501.05,367.06L503.51,367.25L504.74,366.4L505.96,363.16L507.19,362.46L509.65,362.2L510.88,360.76L513.33,359.25L514.56,358.81L518.25,356.82L519.47,354.94L525.61,346.2L526.84,346.24L529.3,341.3L530.53,339.97L536.67,338.06L537.89,337.69L541.58,337.25L542.81,338.06L546.49,337.32L547.72,334.67L550.18,328.88L551.4,332.16L552.63,331.83L553.86,319.92L556.32,291.69L557.54,270.42L558.77,254.17L560,252.73L561.23,250.63L562.46,222.88L564.91,194.31L566.14,194.05L567.37,193.06L568.6,175.59L569.82,174.23L571.05,176.84L572.28,179.68L573.51,173.64L574.74,169.03L575.96,161.4L577.19,150.34L578.42,148.65L580.88,109.76L582.11,94.54L585.79,46.62L587.02,44.45L589.47,9.18L590.7,1.7L591.93,0L593.16,1.55L594.39,6.12L595.61,6.49L596.84,13.31L598.07,26.02L602.98,70.51L604.21,73.2L606.67,122.66L607.89,143.56L611.58,193.54L612.81,195.6L615.26,238.39L616.49,251.26L620.18,272.89L621.4,274.07L623.86,289.74L625.09,294.42L627.54,304.81L628.77,306.32L630,307.21L631.23,310.41L633.68,313.14L634.91,314.43L636.14,315.39L637.37,317.49L639.82,317.19L641.05,315.65L642.28,315.57L643.51,309.64L645.96,299.65L647.19,298.47L650.88,264.27L652.11,257.71L654.56,245.21L655.79,244.95L658.25,217.24L659.47,209.94L663.16,183.55L664.39,183.4L665.61,175.63L666.84,173.78L668.07,168.7L669.3,169.58L671.75,178.28L672.98,178.54L675.44,185.1L676.67,184.62L677.89,184.4L679.12,175.74" style="fill: rgb(8, 115, 191); fill-opacity: 0.2; stroke-width: 0;"/></g></g><g class="errorbars"/><g class="lines"><path class="js-line" d="M-167.02,379.56L-151.05,379.78L-149.82,379.78L-47.89,378.78L-46.67,378.56L-41.75,377.86L-40.53,377.86L-28.25,376.61L-27.02,376.5L-18.42,375.76L-17.19,375.25L-11.05,375.61L-9.82,376.13L-4.91,376.61L-3.68,376.72L2.46,375.43L3.68,374.84L6.14,373.22L7.37,372.04L9.82,369.94L11.05,369.86L17.19,362.23L18.42,361.2L19.65,360.76L20.88,355.9L23.33,344.21L24.56,338.54L25.79,331.97L27.02,329.8L28.25,329.8L29.47,321.32L34.39,309.68L35.61,308.05L38.07,307.65L39.3,306.4L40.53,306.69L41.75,309.97L44.21,314.03L45.44,314.43L47.89,320.33L49.12,330.76L50.35,328.95L51.58,331.02L52.81,333.26L54.04,333.41L56.49,345.32L57.72,342.59L60.18,355.16L61.4,355.19L62.63,354.97L63.86,356.34L66.32,357.92L67.54,359.25L72.46,360.43L73.68,361.79L76.14,361.68L77.37,360.39L79.82,360.98L81.05,360.28L84.74,356.52L85.96,358L88.42,357.15L89.65,355.19L92.11,353.72L93.33,352.47L97.02,347.05L98.25,346.24L99.47,344.87L100.7,344.91L101.93,346.9L103.16,352.1L108.07,356.82L109.3,355.78L110.53,354.61L111.75,354.49L112.98,352.84L114.21,352.91L116.67,351.21L117.89,352.58L119.12,351.77L120.35,347.79L121.58,349.63L122.81,349.52L124.04,352.28L125.26,352.32L126.49,351.99L127.72,353.57L136.32,355.86L137.54,355.05L140,354.38L141.23,353.98L147.37,358.4L148.6,358.33L149.82,359.69L151.05,359.1L158.42,359.32L159.65,360.65L160.88,361.35L162.11,362.94L163.33,364.85L164.56,365.04L165.79,365.18L167.02,366.22L170.7,364.85L171.93,362.75L175.61,363.01L176.84,364.15L180.53,365.85L181.75,365.81L182.98,365.85L184.21,367.47L191.58,368.06L192.81,365.59L200.18,362.57L201.4,363.01L205.09,362.12L206.32,361.87L208.77,361.98L210,361.39L211.23,360.98L212.46,359.51L213.68,357.41L214.91,356.93L216.14,355.78L217.37,355.71L219.82,352.32L221.05,352.17L223.51,350.4L224.74,350.62L225.96,350.44L227.19,356.82L228.42,354.13L229.65,353.32L232.11,354.9L233.33,354.46L234.56,354.61L235.79,347.64L238.25,349.52L239.47,350.33L241.93,350.74L243.16,350.66L245.61,354.86L246.84,355.45L249.3,352.84L250.53,353.39L254.21,353.61L255.44,354.72L259.12,360.02L260.35,360.21L264.04,362.01L265.26,363.27L266.49,364.04L267.72,363.89L271.4,363.67L272.63,362.79L273.86,364.41L275.09,363.71L276.32,362.38L277.54,362.35L280,363.34L281.23,362.75L282.46,360.17L283.68,361.53L286.14,361.87L287.37,365.04L288.6,363.75L289.82,365.22L294.74,365.92L295.96,364.41L298.42,368.87L299.65,371.08L302.11,372.89L303.33,372.92L307.02,375.25L308.25,375.61L310.7,376.31L311.93,376.31L319.3,377.71L320.53,377.75L324.21,378.64L325.44,378.56L331.58,378.56L332.81,378.64L354.91,377.16L356.14,376.46L362.28,372.41L363.51,372.37L365.96,370.6L367.19,370.31L370.88,369.68L372.11,369.75L375.79,370.49L377.02,370.34L380.7,369.61L381.93,368.32L384.39,366.62L385.61,366.69L390.53,367.1L391.75,368.17L400.35,369.86L401.58,371.01L406.49,371.67L407.72,372.81L412.63,374.4L413.86,374.4L424.91,374.25L426.14,374.55L432.28,377.38L433.51,377.6L435.96,377.42L437.19,377.01L447.02,376.98L448.25,377.31L466.67,377.38L467.89,376.98L477.72,376.35L478.95,375.72L485.09,374.99L486.32,373.29L491.23,369.61L492.46,369.61L493.68,366.99L494.91,366.99L496.14,367.14L497.37,368.98L499.82,367.14L501.05,367.06L503.51,367.25L504.74,366.4L505.96,363.16L507.19,362.46L509.65,362.2L510.88,360.76L513.33,359.25L514.56,358.81L518.25,356.82L519.47,354.94L525.61,346.2L526.84,346.24L529.3,341.3L530.53,339.97L536.67,338.06L537.89,337.69L541.58,337.25L542.81,338.06L546.49,337.32L547.72,334.67L550.18,328.88L551.4,332.16L552.63,331.83L553.86,319.92L556.32,291.69L557.54,270.42L558.77,254.17L560,252.73L561.23,250.63L562.46,222.88L564.91,194.31L566.14,194.05L567.37,193.06L568.6,175.59L569.82,174.23L571.05,176.84L572.28,179.68L573.51,173.64L574.74,169.03L575.96,161.4L577.19,150.34L578.42,148.65L580.88,109.76L582.11,94.54L585.79,46.62L587.02,44.45L589.47,9.18L590.7,1.7L591.93,0L593.16,1.55L594.39,6.12L595.61,6.49L596.84,13.31L598.07,26.02L602.98,70.51L604.21,73.2L606.67,122.66L607.89,143.56L611.58,193.54L612.81,195.6L615.26,238.39L616.49,251.26L620.18,272.89L621.4,274.07L623.86,289.74L625.09,294.42L627.54,304.81L628.77,306.32L630,307.21L631.23,310.41L633.68,313.14L634.91,314.43L636.14,315.39L637.37,317.49L639.82,317.19L641.05,315.65L642.28,315.57L643.51,309.64L645.96,299.65L647.19,298.47L650.88,264.27L652.11,257.71L654.56,245.21L655.79,244.95L658.25,217.24L659.47,209.94L663.16,183.55L664.39,183.4L665.61,175.63L666.84,173.78L668.07,168.7L669.3,169.58L671.75,178.28L672.98,178.54L675.44,185.1L676.67,184.62L677.89,184.4L679.12,175.74" style="vector-effect: non-scaling-stroke; fill: none; stroke: rgb(8, 115, 191); stroke-opacity: 1; stroke-width: 0.5px; opacity: 1;"/></g><g class="points"/><g class="text"/></g><g class="trace scatter trace7364e9" style="stroke-miterlimit: 2;"><g class="fills"><g><path class="js-fill" d="M691.4,380L679.12,380L679.12,175.74L680.35,172.35L681.58,172.2L684.04,176.03L685.26,180.6L686.49,183.14L687.72,195.23L688.95,199.51L690.18,199.32L691.4,243.77" style="fill: rgb(8, 115, 191); fill-opacity: 0.4; stroke-width: 0;"/></g></g><g class="errorbars"/><g class="lines"><path class="js-line" d="M679.12,175.74L680.35,172.35L681.58,172.2L684.04,176.03L685.26,180.6L686.49,183.14L687.72,195.23L688.95,199.51L690.18,199.32L691.4,243.77" style="vector-effect: non-scaling-stroke; fill: none; stroke: rgb(8, 115, 191); stroke-opacity: 1; stroke-width: 2px; opacity: 1;"/></g><g class="points"/><g class="text"/></g><g class="trace scatter trace472f01" style="stroke-miterlimit: 2; opacity: 1;"><g class="fills"/><g class="errorbars"/><g class="lines"/><g class="points"><path class="point" transform="translate(691.4,243.77)" d="M15,0A15,15 0 1,1 0,-15A15,15 0 0,1 15,0Z" style="opacity: 1; stroke-width: 0px; fill: rgb(8, 115, 191); fill-opacity: 1;"/></g><g class="text"/></g></g></g><g class="overplot"/><path class="xlines-above crisp" style="fill: none; stroke-width: 1px; stroke: rgb(0, 0, 0); stroke-opacity: 0;" d=""/><path class="ylines-above crisp" style="fill: none;" d="M0,0"/><g class="overlines-above"/><g class="xaxislayer-above"><path class="xtick ticks crisp" d="M0,450v-5" transform="translate(90.53,0)" style="stroke: rgb(68, 68, 68); stroke-opacity: 1; stroke-width: 1px;"/><path class="xtick ticks crisp" d="M0,450v-5" transform="translate(165.44,0)" style="stroke: rgb(68, 68, 68); stroke-opacity: 1; stroke-width: 1px;"/><path class="xtick ticks crisp" d="M0,450v-5" transform="translate(237.89,0)" style="stroke: rgb(68, 68, 68); stroke-opacity: 1; stroke-width: 1px;"/><path class="xtick ticks crisp" d="M0,450v-5" transform="translate(312.81,0)" style="stroke: rgb(68, 68, 68); stroke-opacity: 1; stroke-width: 1px;"/><path class="xtick ticks crisp" d="M0,450v-5" transform="translate(387.72,0)" style="stroke: rgb(68, 68, 68); stroke-opacity: 1; stroke-width: 1px;"/><path class="xtick ticks crisp" d="M0,450v-5" transform="translate(463.86,0)" style="stroke: rgb(68, 68, 68); stroke-opacity: 1; stroke-width: 1px;"/><path class="xtick ticks crisp" d="M0,450v-5" transform="translate(538.77,0)" style="stroke: rgb(68, 68, 68); stroke-opacity: 1; stroke-width: 1px;"/><path class="xtick ticks crisp" d="M0,450v-5" transform="translate(613.68,0)" style="stroke: rgb(68, 68, 68); stroke-opacity: 1; stroke-width: 1px;"/><path class="xtick ticks crisp" d="M0,450v-5" transform="translate(686.14,0)" style="stroke: rgb(68, 68, 68); stroke-opacity: 1; stroke-width: 1px;"/><g class="xtick"><text text-anchor="middle" x="0" y="469" transform="translate(90.53,0)" style="font-family: 'Open Sans', verdana, arial, sans-serif; font-size: 18px; fill: rgb(42, 63, 95); fill-opacity: 1; white-space: pre;">01/11</text></g><g class="xtick"><text text-anchor="middle" x="0" y="469" transform="translate(165.44,0)" style="font-family: 'Open Sans', verdana, arial, sans-serif; font-size: 18px; fill: rgb(42, 63, 95); fill-opacity: 1; white-space: pre;">01/01</text></g><g class="xtick"><text text-anchor="middle" x="0" y="469" transform="translate(237.89,0)" style="font-family: 'Open Sans', verdana, arial, sans-serif; font-size: 18px; fill: rgb(42, 63, 95); fill-opacity: 1; white-space: pre;">01/03</text></g><g class="xtick"><text text-anchor="middle" x="0" y="469" transform="translate(312.81,0)" style="font-family: 'Open Sans', verdana, arial, sans-serif; font-size: 18px; fill: rgb(42, 63, 95); fill-opacity: 1; white-space: pre;">01/05</text></g><g class="xtick"><text text-anchor="middle" x="0" y="469" transform="translate(387.72,0)" style="font-family: 'Open Sans', verdana, arial, sans-serif; font-size: 18px; fill: rgb(42, 63, 95); fill-opacity: 1; white-space: pre;">01/07</text></g><g class="xtick"><text text-anchor="middle" x="0" y="469" transform="translate(463.86,0)" style="font-family: 'Open Sans', verdana, arial, sans-serif; font-size: 18px; fill: rgb(42, 63, 95); fill-opacity: 1; white-space: pre;">01/09</text></g><g class="xtick"><text text-anchor="middle" x="0" y="469" transform="translate(538.77,0)" style="font-family: 'Open Sans', verdana, arial, sans-serif; font-size: 18px; fill: rgb(42, 63, 95); fill-opacity: 1; white-space: pre;">01/11</text></g><g class="xtick"><text text-anchor="middle" x="0" y="469" transform="translate(613.68,0)" style="font-family: 'Open Sans', verdana, arial, sans-serif; font-size: 18px; fill: rgb(42, 63, 95); fill-opacity: 1; white-space: pre;">01/01</text></g><g class="xtick"><text text-anchor="middle" x="0" y="469" transform="translate(686.14,0)" style="font-family: 'Open Sans', verdana, arial, sans-serif; font-size: 18px; fill: rgb(42, 63, 95); fill-opacity: 1; white-space: pre;">01/03</text></g></g><g class="yaxislayer-above"/><g class="overaxes-above"/></g></g><g class="polarlayer"/><g class="ternarylayer"/><g class="geolayer"/><g class="funnelarealayer"/><g class="pielayer"/><g class="treemaplayer"/><g class="sunburstlayer"/><g class="glimages"/><defs id="topdefs-64f4ef"><g class="clips"/></defs><g class="layer-above"><g class="imagelayer"/><g class="shapelayer"><path data-index="0" fill-rule="evenodd" d="M-640.18,443.89L257.53999999999996,443.89" clip-path="url('#clip64f4efxy')" style="opacity: 1; stroke: rgb(255, 0, 0); stroke-opacity: 1; fill: rgb(0, 0, 0); fill-opacity: 0; stroke-dasharray: 3px, 3px; stroke-width: 1.5px;"/></g></g><g class="infolayer"><g class="g-gtitle"><text class="gtitle" x="375" y="25" text-anchor="middle" dy="0.7em" style="font-family: 'Open Sans', verdana, arial, sans-serif; font-size: 50px; fill: rgb(42, 63, 95); opacity: 1; font-weight: normal; white-space: pre;"><tspan style="font-weight:bold">Allier (03)</tspan></text></g><g class="g-xtitle"/><g class="annotation" data-index="0" style="opacity: 1;"><g class="annotation-text-g" transform="rotate(0,699.4,253.76999999999998)"><g class="cursor-pointer" transform="translate(627, 218)"><rect class="bg" x="0.5" y="0.5" width="143" height="71" style="stroke-width: 1px; stroke: rgb(0, 0, 0); stroke-opacity: 0; fill: rgb(255, 255, 255); fill-opacity: 0.6;"/><text class="annotation-text" text-anchor="middle" x="72.078125" y="55.5" style="font-family: 'Open Sans', verdana, arial, sans-serif; font-size: 50px; fill: rgb(8, 115, 191); fill-opacity: 1; white-space: pre;"> <tspan style="font-weight:bold">1115 </tspan></text></g></g><g class="annotation-arrow-g" style="opacity: 1;"><path d="M727.8,289.27L739.4,303.77" style="stroke-width: 1px; stroke: rgb(8, 115, 191); stroke-opacity: 1; stroke-dasharray: 0px, 0px, 18.5691px, 18.5691px;"/></g></g></g></svg>