<svg class="main-svg" xmlns="http://www.w3.org/2000/svg" xmlns:xlink="http://www.w3.org/1999/xlink" width="1125" height="750" style="" viewBox="0 0 750 500"><rect x="0" y="0" width="750" height="500" style="fill: rgb(0, 0, 0); fill-opacity: 0;"/><defs id="defs-3af3ed"><g class="clips"><clipPath id="clip3af3edxyplot" class="plotclip"><rect width="700" height="380"/></clipPath><clipPath class="axesclip" id="clip3af3edx"><rect x="50" y="0" width="700" height="500"/></clipPath><clipPath class="axesclip" id="clip3af3edy"><rect x="0" y="70" width="750" height="380"/></clipPath><clipPath class="axesclip" id="clip3af3edxy"><rect x="50" y="70" width="700" height="380"/></clipPath></g><g class="gradients"/></defs><g class="bglayer"><rect class="bg" x="50" y="70" width="700" height="380" style="fill: rgb(0, 0, 0); fill-opacity: 0; stroke-width: 0;"/></g><g class="layer-below"><g class="imagelayer"/><g class="shapelayer"/></g><g class="cartesianlayer"><g class="subplot xy"><g class="layer-subplot"><g class="shapelayer"/><g class="imagelayer"/></g><g class="gridlayer"><g class="x"><path class="xgrid crisp" transform="translate(112.43,0)" d="M0,70v380" style="stroke: rgb(255, 255, 255); stroke-opacity: 1; stroke-width: 1px;"/><path class="xgrid crisp" transform="translate(227.84,0)" d="M0,70v380" style="stroke: rgb(255, 255, 255); stroke-opacity: 1; stroke-width: 1px;"/><path class="xgrid crisp" transform="translate(339.46,0)" d="M0,70v380" style="stroke: rgb(255, 255, 255); stroke-opacity: 1; stroke-width: 1px;"/><path class="xgrid crisp" transform="translate(454.86,0)" d="M0,70v380" style="stroke: rgb(255, 255, 255); stroke-opacity: 1; stroke-width: 1px;"/><path class="xgrid crisp" transform="translate(570.27,0)" d="M0,70v380" style="stroke: rgb(255, 255, 255); stroke-opacity: 1; stroke-width: 1px;"/><path class="xgrid crisp" transform="translate(687.57,0)" d="M0,70v380" style="stroke: rgb(255, 255, 255); stroke-opacity: 1; stroke-width: 1px;"/></g><g class="y"/></g><g class="zerolinelayer"/><path class="xlines-below"/><path class="ylines-below"/><g class="overlines-below"/><g class="xaxislayer-below"/><g class="yaxislayer-below"/><g class="overaxes-below"/><g class="plot" transform="translate(50, 70)" clip-path="url('#clip3af3edxyplot')"><g class="scatterlayer mlayer"><g class="trace scatter trace60d3d9" style="stroke-miterlimit: 2;"><g class="fills"><g><path class="js-fill" d="M667.84,380L-257.3,380L-257.3,371.56L-242.16,376.18L-240.27,375.58L-225.14,376.63L-223.24,375.93L-174.05,376.53L-172.16,374.22L-149.46,375.78L-147.57,375.38L-140,373.26L-138.11,371.46L-113.51,364.82L-111.62,363.31L-98.38,358.89L-96.49,358.08L-92.7,355.82L-90.81,356.02L-85.14,354.67L-83.24,352.81L-75.68,350.95L-73.78,347.08L-64.32,334.36L-62.43,334.36L-52.97,325.66L-51.08,324.91L-49.19,325.01L-47.3,323.15L-43.51,320.13L-41.62,316.01L-39.73,313.5L-37.84,313.8L-35.95,313.5L-34.05,311.34L-30.27,307.82L-28.38,308.78L-26.49,305.16L-24.59,303.85L-22.7,303.95L-20.81,298.62L-15.14,287.26L-13.24,289.37L-9.46,288.72L-7.57,290.58L-5.68,289.93L-3.78,292.64L-1.89,288.87L0,280.53L1.89,277.41L3.78,277.61L7.57,256.05L9.46,240.37L13.24,215.48L15.14,209.7L17.03,208.4L18.92,197.24L26.49,164.26L28.38,160.85L30.27,159.29L32.16,149.69L34.05,138.88L35.95,123.65L39.73,91.48L41.62,85.8L43.51,83.49L45.41,61.88L47.3,51.32L49.19,46.7L51.08,50.01L52.97,56.04L54.86,59.06L56.76,60.07L60.54,72.33L62.43,87.56L64.32,96.86L66.22,111.29L68.11,118.42L70,121.44L73.78,164.52L75.68,198.95L79.46,226.79L81.35,232.98L83.24,232.62L85.14,249.87L87.03,262.48L88.92,254.84L90.81,271.53L92.7,280.73L94.59,280.48L96.49,281.98L100.27,295.81L102.16,296.21L105.95,305.01L107.84,307.47L109.73,307.37L111.62,311.19L115.41,320.39L117.3,321.84L119.19,319.68L121.08,319.08L122.97,319.28L124.86,318.38L128.65,314.81L130.54,314.86L136.22,314.1L138.11,312.7L140,313.85L141.89,311.89L143.78,308.72L145.68,307.02L147.57,302.89L149.46,302.04L155.14,297.62L157.03,298.52L158.92,311.49L160.81,310.58L162.7,310.94L164.59,308.88L166.49,302.84L168.38,299.53L170.27,297.82L172.16,297.77L174.05,297.01L175.95,297.37L177.84,288.22L179.73,285.85L181.62,286.56L183.51,280.73L185.41,265.8L187.3,266.55L189.19,265.5L191.08,270.88L192.97,275L194.86,273.99L196.76,273.19L198.65,270.62L200.54,270.12L202.43,271.03L204.32,265.8L206.22,263.34L211.89,258.76L213.78,257.2L217.57,257.2L219.46,255.65L221.35,255.9L223.24,254.24L228.92,254.54L230.81,255.7L232.7,256.35L234.59,255.39L236.49,256.05L238.38,257.96L240.27,259.21L242.16,258.26L244.05,259.47L245.95,258.06L249.73,262.38L251.62,261.07L255.41,259.06L257.3,260.27L259.19,258.91L261.08,254.19L262.97,247.85L264.86,237.95L266.76,234.58L268.65,235.09L270.54,220.71L272.43,215.89L274.32,209L276.22,209L278.11,210.86L280,207.84L281.89,207.29L283.78,207.59L285.68,204.73L287.57,205.83L291.35,198.54L293.24,197.29L295.14,198.65L297.03,193.72L298.92,190.9L300.81,183.42L306.49,162.05L308.38,155.97L315.95,97.11L317.84,85.05L319.73,75.25L321.62,74.29L323.51,58.01L325.41,49.96L329.19,33.73L331.08,21.21L332.97,17.74L334.86,20.91L336.76,14.68L338.65,5.48L340.54,1.91L342.43,0L346.22,12.06L348.11,11.51L350,82.63L351.89,71.07L353.78,73.49L355.68,78.51L357.57,78.76L359.46,73.84L361.35,74.69L363.24,19.15L365.14,48L367.03,57.1L372.7,90.58L374.59,91.28L380.27,108.92L382.16,110.78L385.95,118.88L387.84,120.53L395.41,158.13L397.3,162.61L399.19,181.15L401.08,179.54L402.97,187.94L404.86,192.46L410.54,215.69L412.43,216.44L414.32,218L416.22,224.88L418.11,232.52L420,235.49L421.89,256.3L423.78,260.12L425.68,253.13L427.57,253.38L429.46,260.52L431.35,264.09L433.24,267.46L435.14,253.99L437.03,261.07L438.92,264.69L440.81,266.75L442.7,290.98L444.59,291.03L446.49,295.3L448.38,298.32L450.27,303.2L452.16,305.36L454.05,304.96L455.95,296.21L457.84,308.47L461.62,320.59L463.51,323.55L465.41,326.17L467.3,326.67L469.19,331.54L471.08,334.11L476.76,345.77L478.65,347.43L480.54,347.93L482.43,350.54L484.32,354.77L486.22,355.97L490,359.14L491.89,359.59L493.78,359.04L495.68,360.85L497.57,360.75L499.46,362.56L503.24,363.97L505.14,364.32L507.03,364.87L508.92,366.48L512.7,365.17L514.59,363.97L518.38,360.9L520.27,360.4L522.16,356.53L524.05,355.12L527.84,351.9L529.73,352.3L533.51,352.91L535.41,351.2L537.3,348.58L539.19,351.05L544.86,331.14L546.76,330.34L552.43,293.75L554.32,289.47L556.22,282.54L558.11,279.27L560,277.76L561.89,274.6L563.78,272.69L565.68,273.14L573.24,277.31L575.14,274.8L577.03,273.74L578.92,271.73L584.59,262.58L586.49,261.22L590.27,255.09L592.16,255.09L594.05,253.53L595.95,254.54L599.73,252.88L601.62,252.68L605.41,253.84L607.3,256.25L609.19,254.84L611.08,255.75L612.97,256.55L614.86,259.47L618.65,264.84L620.54,265.75L622.43,268.87L624.32,268.36L626.22,268.92L628.11,273.04L630,275.3L631.89,276.2L633.78,278.57L635.68,282.49L637.57,285.5L639.46,286.31L643.24,291.84L645.14,297.21L650.81,308.27L652.7,309.13L654.59,316.82L656.49,320.34L662.16,331.14L664.05,332.45L665.95,332.6L667.84,334.16" style="fill: rgb(8, 115, 191); fill-opacity: 0.2; stroke-width: 0;"/></g></g><g class="errorbars"/><g class="lines"><path class="js-line" d="M-257.3,371.56L-242.16,376.18L-240.27,375.58L-225.14,376.63L-223.24,375.93L-174.05,376.53L-172.16,374.22L-149.46,375.78L-147.57,375.38L-140,373.26L-138.11,371.46L-113.51,364.82L-111.62,363.31L-98.38,358.89L-96.49,358.08L-92.7,355.82L-90.81,356.02L-85.14,354.67L-83.24,352.81L-75.68,350.95L-73.78,347.08L-64.32,334.36L-62.43,334.36L-52.97,325.66L-51.08,324.91L-49.19,325.01L-47.3,323.15L-43.51,320.13L-41.62,316.01L-39.73,313.5L-37.84,313.8L-35.95,313.5L-34.05,311.34L-30.27,307.82L-28.38,308.78L-26.49,305.16L-24.59,303.85L-22.7,303.95L-20.81,298.62L-15.14,287.26L-13.24,289.37L-9.46,288.72L-7.57,290.58L-5.68,289.93L-3.78,292.64L-1.89,288.87L0,280.53L1.89,277.41L3.78,277.61L7.57,256.05L9.46,240.37L13.24,215.48L15.14,209.7L17.03,208.4L18.92,197.24L26.49,164.26L28.38,160.85L30.27,159.29L32.16,149.69L34.05,138.88L35.95,123.65L39.73,91.48L41.62,85.8L43.51,83.49L45.41,61.88L47.3,51.32L49.19,46.7L51.08,50.01L52.97,56.04L54.86,59.06L56.76,60.07L60.54,72.33L62.43,87.56L64.32,96.86L66.22,111.29L68.11,118.42L70,121.44L73.78,164.52L75.68,198.95L79.46,226.79L81.35,232.98L83.24,232.62L85.14,249.87L87.03,262.48L88.92,254.84L90.81,271.53L92.7,280.73L94.59,280.48L96.49,281.98L100.27,295.81L102.16,296.21L105.95,305.01L107.84,307.47L109.73,307.37L111.62,311.19L115.41,320.39L117.3,321.84L119.19,319.68L121.08,319.08L122.97,319.28L124.86,318.38L128.65,314.81L130.54,314.86L136.22,314.1L138.11,312.7L140,313.85L141.89,311.89L143.78,308.72L145.68,307.02L147.57,302.89L149.46,302.04L155.14,297.62L157.03,298.52L158.92,311.49L160.81,310.58L162.7,310.94L164.59,308.88L166.49,302.84L168.38,299.53L170.27,297.82L172.16,297.77L174.05,297.01L175.95,297.37L177.84,288.22L179.73,285.85L181.62,286.56L183.51,280.73L185.41,265.8L187.3,266.55L189.19,265.5L191.08,270.88L192.97,275L194.86,273.99L196.76,273.19L198.65,270.62L200.54,270.12L202.43,271.03L204.32,265.8L206.22,263.34L211.89,258.76L213.78,257.2L217.57,257.2L219.46,255.65L221.35,255.9L223.24,254.24L228.92,254.54L230.81,255.7L232.7,256.35L234.59,255.39L236.49,256.05L238.38,257.96L240.27,259.21L242.16,258.26L244.05,259.47L245.95,258.06L249.73,262.38L251.62,261.07L255.41,259.06L257.3,260.27L259.19,258.91L261.08,254.19L262.97,247.85L264.86,237.95L266.76,234.58L268.65,235.09L270.54,220.71L272.43,215.89L274.32,209L276.22,209L278.11,210.86L280,207.84L281.89,207.29L283.78,207.59L285.68,204.73L287.57,205.83L291.35,198.54L293.24,197.29L295.14,198.65L297.03,193.72L298.92,190.9L300.81,183.42L306.49,162.05L308.38,155.97L315.95,97.11L317.84,85.05L319.73,75.25L321.62,74.29L323.51,58.01L325.41,49.96L329.19,33.73L331.08,21.21L332.97,17.74L334.86,20.91L336.76,14.68L338.65,5.48L340.54,1.91L342.43,0L346.22,12.06L348.11,11.51L350,82.63L351.89,71.07L353.78,73.49L355.68,78.51L357.57,78.76L359.46,73.84L361.35,74.69L363.24,19.15L365.14,48L367.03,57.1L372.7,90.58L374.59,91.28L380.27,108.92L382.16,110.78L385.95,118.88L387.84,120.53L395.41,158.13L397.3,162.61L399.19,181.15L401.08,179.54L402.97,187.94L404.86,192.46L410.54,215.69L412.43,216.44L414.32,218L416.22,224.88L418.11,232.52L420,235.49L421.89,256.3L423.78,260.12L425.68,253.13L427.57,253.38L429.46,260.52L431.35,264.09L433.24,267.46L435.14,253.99L437.03,261.07L438.92,264.69L440.81,266.75L442.7,290.98L444.59,291.03L446.49,295.3L448.38,298.32L450.27,303.2L452.16,305.36L454.05,304.96L455.95,296.21L457.84,308.47L461.62,320.59L463.51,323.55L465.41,326.17L467.3,326.67L469.19,331.54L471.08,334.11L476.76,345.77L478.65,347.43L480.54,347.93L482.43,350.54L484.32,354.77L486.22,355.97L490,359.14L491.89,359.59L493.78,359.04L495.68,360.85L497.57,360.75L499.46,362.56L503.24,363.97L505.14,364.32L507.03,364.87L508.92,366.48L512.7,365.17L514.59,363.97L518.38,360.9L520.27,360.4L522.16,356.53L524.05,355.12L527.84,351.9L529.73,352.3L533.51,352.91L535.41,351.2L537.3,348.58L539.19,351.05L544.86,331.14L546.76,330.34L552.43,293.75L554.32,289.47L556.22,282.54L558.11,279.27L560,277.76L561.89,274.6L563.78,272.69L565.68,273.14L573.24,277.31L575.14,274.8L577.03,273.74L578.92,271.73L584.59,262.58L586.49,261.22L590.27,255.09L592.16,255.09L594.05,253.53L595.95,254.54L599.73,252.88L601.62,252.68L605.41,253.84L607.3,256.25L609.19,254.84L611.08,255.75L612.97,256.55L614.86,259.47L618.65,264.84L620.54,265.75L622.43,268.87L624.32,268.36L626.22,268.92L628.11,273.04L630,275.3L631.89,276.2L633.78,278.57L635.68,282.49L637.57,285.5L639.46,286.31L643.24,291.84L645.14,297.21L650.81,308.27L652.7,309.13L654.59,316.82L656.49,320.34L662.16,331.14L664.05,332.45L665.95,332.6L667.84,334.16" style="vector-effect: non-scaling-stroke; fill: none; stroke: rgb(8, 115, 191); stroke-opacity: 1; stroke-width: 0.5px; opacity: 1;"/></g><g class="points"/><g class="text"/></g><g class="trace scatter trace7e4f86" style="stroke-miterlimit: 2;"><g class="fills"><g><path class="js-fill" d="M686.76,380L667.84,380L667.84,334.16L671.62,334.86L673.51,332.85L677.3,335.67L679.19,335.26L681.08,335.62L682.97,338.08L686.76,340.84" style="fill: rgb(8, 115, 191); fill-opacity: 0.4; stroke-width: 0;"/></g></g><g class="errorbars"/><g class="lines"><path class="js-line" d="M667.84,334.16L671.62,334.86L673.51,332.85L677.3,335.67L679.19,335.26L681.08,335.62L682.97,338.08L686.76,340.84" style="vector-effect: non-scaling-stroke; fill: none; stroke: rgb(8, 115, 191); stroke-opacity: 1; stroke-width: 2px; opacity: 1;"/></g><g class="points"/><g class="text"/></g><g class="trace scatter trace5e3a9a" style="stroke-miterlimit: 2; opacity: 1;"><g class="fills"/><g class="errorbars"/><g class="lines"/><g class="points"><path class="point" transform="translate(686.76,340.84)" d="M15,0A15,15 0 1,1 0,-15A15,15 0 0,1 15,0Z" style="opacity: 1; stroke-width: 0px; fill: rgb(8, 115, 191); fill-opacity: 1;"/></g><g class="text"/></g></g></g><g class="overplot"/><path class="xlines-above crisp" style="fill: none; stroke-width: 1px; stroke: rgb(0, 0, 0); stroke-opacity: 0;" d=""/><path class="ylines-above crisp" style="fill: none;" d="M0,0"/><g class="overlines-above"/><g class="xaxislayer-above"><path class="xtick ticks crisp" d="M0,450v-5" transform="translate(112.43,0)" style="stroke: rgb(68, 68, 68); stroke-opacity: 1; stroke-width: 1px;"/><path class="xtick ticks crisp" d="M0,450v-5" transform="translate(227.84,0)" style="stroke: rgb(68, 68, 68); stroke-opacity: 1; stroke-width: 1px;"/><path class="xtick ticks crisp" d="M0,450v-5" transform="translate(339.46,0)" style="stroke: rgb(68, 68, 68); stroke-opacity: 1; stroke-width: 1px;"/><path class="xtick ticks crisp" d="M0,450v-5" transform="translate(454.86,0)" style="stroke: rgb(68, 68, 68); stroke-opacity: 1; stroke-width: 1px;"/><path class="xtick ticks crisp" d="M0,450v-5" transform="translate(570.27,0)" style="stroke: rgb(68, 68, 68); stroke-opacity: 1; stroke-width: 1px;"/><path class="xtick ticks crisp" d="M0,450v-5" transform="translate(687.57,0)" style="stroke: rgb(68, 68, 68); stroke-opacity: 1; stroke-width: 1px;"/><g class="xtick"><text text-anchor="middle" x="0" y="469" transform="translate(112.43,0)" style="font-family: 'Open Sans', verdana, arial, sans-serif; font-size: 18px; fill: rgb(42, 63, 95); fill-opacity: 1; white-space: pre;">01/11</text></g><g class="xtick"><text text-anchor="middle" x="0" y="469" transform="translate(227.84,0)" style="font-family: 'Open Sans', verdana, arial, sans-serif; font-size: 18px; fill: rgb(42, 63, 95); fill-opacity: 1; white-space: pre;">01/01</text></g><g class="xtick"><text text-anchor="middle" x="0" y="469" transform="translate(339.46,0)" style="font-family: 'Open Sans', verdana, arial, sans-serif; font-size: 18px; fill: rgb(42, 63, 95); fill-opacity: 1; white-space: pre;">01/03</text></g><g class="xtick"><text text-anchor="middle" x="0" y="469" transform="translate(454.86,0)" style="font-family: 'Open Sans', verdana, arial, sans-serif; font-size: 18px; fill: rgb(42, 63, 95); fill-opacity: 1; white-space: pre;">01/05</text></g><g class="xtick"><text text-anchor="middle" x="0" y="469" transform="translate(570.27,0)" style="font-family: 'Open Sans', verdana, arial, sans-serif; font-size: 18px; fill: rgb(42, 63, 95); fill-opacity: 1; white-space: pre;">01/07</text></g><g class="xtick"><text text-anchor="middle" x="0" y="469" transform="translate(687.57,0)" style="font-family: 'Open Sans', verdana, arial, sans-serif; font-size: 18px; fill: rgb(42, 63, 95); fill-opacity: 1; white-space: pre;">01/09</text></g></g><g class="yaxislayer-above"/><g class="overaxes-above"/></g></g><g class="polarlayer"/><g class="ternarylayer"/><g class="geolayer"/><g class="funnelarealayer"/><g class="pielayer"/><g class="treemaplayer"/><g class="sunburstlayer"/><g class="glimages"/><defs id="topdefs-3af3ed"><g class="clips"/></defs><g class="layer-above"><g class="imagelayer"/><g class="shapelayer"><path data-index="0" fill-rule="evenodd" d="M-1013.24,416.84L369.73,416.84" clip-path="url('#clip3af3edxy')" style="opacity: 1; stroke: rgb(255, 0, 0); stroke-opacity: 1; fill: rgb(0, 0, 0); fill-opacity: 0; stroke-dasharray: 3px, 3px; stroke-width: 1.5px;"/></g></g><g class="infolayer"><g class="g-gtitle"><text class="gtitle" x="375" y="25" text-anchor="middle" dy="0.7em" style="font-family: 'Open Sans', verdana, arial, sans-serif; font-size: 50px; fill: rgb(42, 63, 95); opacity: 1; font-weight: normal; white-space: pre;"><tspan style="font-weight:bold">Essonne (91)</tspan></text></g><g class="g-xtitle"/><g class="annotation" data-index="0" style="opacity: 1;"><g class="annotation-text-g" transform="rotate(0,694.76,350.84)"><g class="cursor-pointer" transform="translate(651, 315)"><rect class="bg" x="0.5" y="0.5" width="86" height="71" style="stroke-width: 1px; stroke: rgb(0, 0, 0); stroke-opacity: 0; fill: rgb(255, 255, 255); fill-opacity: 0.6;"/><text class="annotation-text" text-anchor="middle" x="43.53125" y="55.5" style="font-family: 'Open Sans', verdana, arial, sans-serif; font-size: 50px; fill: rgb(8, 115, 191); fill-opacity: 1; white-space: pre;"> <tspan style="font-weight:bold">59 </tspan></text></g></g><g class="annotation-arrow-g" style="opacity: 1;"><path d="M723.16,386.34L734.76,400.84" style="stroke-width: 1px; stroke: rgb(8, 115, 191); stroke-opacity: 1; stroke-dasharray: 0px, 0px, 18.5691px, 18.5691px;"/></g></g></g></svg>