<svg class="main-svg" xmlns="http://www.w3.org/2000/svg" xmlns:xlink="http://www.w3.org/1999/xlink" width="1125" height="750" style="" viewBox="0 0 750 500"><rect x="0" y="0" width="750" height="500" style="fill: rgb(0, 0, 0); fill-opacity: 0;"/><defs id="defs-247b38"><g class="clips"><clipPath id="clip247b38xyplot" class="plotclip"><rect width="700" height="380"/></clipPath><clipPath class="axesclip" id="clip247b38x"><rect x="50" y="0" width="700" height="500"/></clipPath><clipPath class="axesclip" id="clip247b38y"><rect x="0" y="70" width="750" height="380"/></clipPath><clipPath class="axesclip" id="clip247b38xy"><rect x="50" y="70" width="700" height="380"/></clipPath></g><g class="gradients"/></defs><g class="bglayer"><rect class="bg" x="50" y="70" width="700" height="380" style="fill: rgb(0, 0, 0); fill-opacity: 0; stroke-width: 0;"/></g><g class="layer-below"><g class="imagelayer"/><g class="shapelayer"/></g><g class="cartesianlayer"><g class="subplot xy"><g class="layer-subplot"><g class="shapelayer"/><g class="imagelayer"/></g><g class="gridlayer"><g class="x"><path class="xgrid crisp" transform="translate(91.85,0)" d="M0,70v380" style="stroke: rgb(255, 255, 255); stroke-opacity: 1; stroke-width: 1px;"/><path class="xgrid crisp" transform="translate(169.2,0)" d="M0,70v380" style="stroke: rgb(255, 255, 255); stroke-opacity: 1; stroke-width: 1px;"/><path class="xgrid crisp" transform="translate(244.02,0)" d="M0,70v380" style="stroke: rgb(255, 255, 255); stroke-opacity: 1; stroke-width: 1px;"/><path class="xgrid crisp" transform="translate(321.38,0)" d="M0,70v380" style="stroke: rgb(255, 255, 255); stroke-opacity: 1; stroke-width: 1px;"/><path class="xgrid crisp" transform="translate(398.73,0)" d="M0,70v380" style="stroke: rgb(255, 255, 255); stroke-opacity: 1; stroke-width: 1px;"/><path class="xgrid crisp" transform="translate(477.36,0)" d="M0,70v380" style="stroke: rgb(255, 255, 255); stroke-opacity: 1; stroke-width: 1px;"/><path class="xgrid crisp" transform="translate(554.71,0)" d="M0,70v380" style="stroke: rgb(255, 255, 255); stroke-opacity: 1; stroke-width: 1px;"/><path class="xgrid crisp" transform="translate(632.07,0)" d="M0,70v380" style="stroke: rgb(255, 255, 255); stroke-opacity: 1; stroke-width: 1px;"/><path class="xgrid crisp" transform="translate(706.88,0)" d="M0,70v380" style="stroke: rgb(255, 255, 255); stroke-opacity: 1; stroke-width: 1px;"/></g><g class="y"/></g><g class="zerolinelayer"/><path class="xlines-below"/><path class="ylines-below"/><g class="overlines-below"/><g class="xaxislayer-below"/><g class="yaxislayer-below"/><g class="overaxes-below"/><g class="plot" transform="translate(50, 70)" clip-path="url('#clip247b38xyplot')"><g class="scatterlayer mlayer"><g class="trace scatter tracea56ace" style="stroke-miterlimit: 2;"><g class="fills"><g><path class="js-fill" d="M678.44,380L-172.46,380L-172.46,379.58L-40.58,378.83L-39.31,378.41L-31.7,376.91L-30.43,377.07L-16.49,376.66L-15.22,376.74L-6.34,375.4L-5.07,375.32L0,374.23L1.27,373.06L2.54,372.56L3.8,370.05L5.07,369.89L6.34,368.63L8.88,364.87L10.14,364.62L11.41,364.95L12.68,364.29L13.95,364.03L15.22,364.7L16.49,366.54L17.75,366.12L20.29,365.12L21.56,365.37L25.36,355.84L26.63,351.41L27.9,348.82L29.17,348.82L30.43,344.31L31.7,343.47L34.24,339.29L35.51,339.96L36.78,341.13L38.04,341.05L39.31,341.47L40.58,340.55L43.12,341.72L44.38,342.89L45.65,344.56L46.92,344.64L49.46,348.15L50.72,352L53.26,356.26L54.53,356.93L55.8,356.59L57.07,353.92L58.33,356.18L59.6,356.26L63.41,361.78L64.67,362.2L65.94,367.8L67.21,366.79L71.01,368.46L72.28,368.38L73.55,368.38L74.82,369.89L78.62,370.72L79.89,369.72L82.43,369.97L83.7,368.21L86.23,368.88L87.5,367.88L90.04,366.46L91.3,365.2L95.11,359.52L96.38,358.94L98.91,355.68L100.18,355.76L103.99,359.27L105.25,358.77L106.52,363.62L107.79,365.04L110.33,367.04L111.59,366.71L112.86,365.62L114.13,367.63L121.74,367.29L123.01,364.37L124.28,362.78L125.54,363.62L126.81,363.28L128.08,362.11L129.35,362.2L130.62,363.53L131.88,365.04L133.15,365.12L135.69,364.03L136.96,364.62L138.22,364.12L139.49,361.86L143.3,360.02L144.57,360.11L145.83,357.6L147.1,357.01L148.37,356.09L149.64,356.43L152.17,355.01L153.44,355.34L154.71,357.1L155.98,356.68L157.25,359.77L158.51,360.44L159.78,359.1L161.05,361.11L163.59,361.78L164.86,362.95L166.12,364.2L167.39,364.29L168.66,365.46L169.93,364.45L171.2,364.12L172.46,365.79L175,364.79L176.27,365.2L181.34,366.71L182.61,367.88L186.41,370.3L187.68,370.64L188.95,370.47L190.22,371.47L194.02,371.98L195.29,372.06L197.83,371.22L199.09,371.06L201.63,369.89L202.9,369.05L206.7,368.97L207.97,368.38L210.51,368.97L211.78,368.63L214.31,369.22L215.58,368.97L218.12,368.38L219.38,367.46L220.65,366.46L221.92,363.95L223.19,362.36L224.46,362.53L225.72,362.28L226.99,360.27L228.26,358.68L229.53,358.43L232.07,360.27L233.33,359.77L234.6,361.94L235.87,360.44L238.41,358.77L239.67,358.18L242.21,357.93L243.48,354.09L246.01,355.68L247.28,356.51L248.55,357.18L249.82,356.59L252.36,356.59L253.62,358.18L256.16,359.44L257.43,357.93L259.96,359.02L261.23,361.53L266.3,363.11L267.57,364.95L268.84,365.12L270.11,363.7L271.38,363.03L272.64,363.87L273.91,364.79L275.18,366.79L277.72,366.79L278.99,368.46L280.25,370.47L281.52,370.97L284.06,373.31L285.33,373.06L289.13,373.06L290.4,373.98L292.93,372.89L294.2,373.15L295.47,373.15L296.74,373.98L298.01,373.98L299.28,373.15L301.81,373.4L303.08,373.31L305.62,372.89L306.88,373.98L310.69,376.49L311.96,376.07L319.57,376.91L320.83,377.66L330.98,378.5L332.25,379.16L338.59,379.75L339.86,379.75L353.8,379.16L355.07,378.91L363.95,378.58L365.22,377.49L369.02,376.99L370.29,376.24L372.83,374.32L374.09,375.07L376.63,375.49L377.9,374.57L379.17,373.98L380.43,374.48L382.97,374.23L384.24,373.98L385.51,372.89L386.78,372.89L389.31,372.14L390.58,371.47L394.38,370.97L395.65,369.63L398.19,366.12L399.46,365.71L401.99,364.62L403.26,364.12L404.53,364.2L405.8,365.46L408.33,367.88L409.6,368.63L410.87,368.55L412.14,369.72L413.41,369.72L414.67,370.55L417.21,370.47L418.48,370.97L421.01,371.14L422.28,372.89L427.36,374.9L428.62,375.24L434.96,373.65L436.23,374.15L437.5,373.98L438.77,375.32L446.38,378.08L447.64,377.91L450.18,377.83L451.45,377.74L455.25,377.91L456.52,376.99L457.79,375.57L459.06,375.74L464.13,376.07L465.4,376.91L467.93,378.41L469.2,378.91L481.88,378.33L483.15,379.08L486.96,379.67L488.22,379.33L499.64,377.07L500.91,377.66L504.71,376.32L505.98,376.07L508.51,375.32L509.78,373.31L512.32,370.81L513.59,370.97L514.86,369.55L516.12,370.05L518.66,369.63L519.93,370.39L521.2,371.06L522.46,369.38L523.73,369.89L525,367.63L526.27,367.46L527.54,365.54L532.61,356.76L533.88,356.76L537.68,358.02L538.95,357.43L540.22,357.1L541.49,355.51L545.29,355.42L546.56,353.33L547.83,352.42L549.09,353.67L551.63,356.51L552.9,356.51L554.17,353.84L555.43,354L556.7,355.17L557.97,353.84L561.78,350.83L563.04,350.58L564.31,348.15L565.58,341.38L568.12,323.41L569.38,326.08L570.65,323.58L571.92,309.12L575.72,264.9L576.99,250.35L578.26,249.6L579.53,247.59L580.8,223.27L582.07,214.74L583.33,209.06L584.6,207.97L585.87,207.22L587.14,185.4L588.41,187.16L589.67,200.62L590.94,195.52L592.21,195.18L596.01,182.14L597.28,178.97L598.55,156.98L599.82,154.64L602.36,131.65L603.62,122.63L604.89,110.34L606.16,105.82L608.7,63.19L609.96,38.7L612.5,6.27L613.77,0L616.3,3.26L617.57,9.11L620.11,37.87L621.38,49.23L622.64,60.52L623.91,60.02L627.72,98.72L628.99,118.53L631.52,150.13L632.79,154.64L636.59,219.01L637.86,227.87L640.4,245.59L641.67,247.43L644.2,263.64L645.47,266.65L646.74,271.33L648.01,272.5L649.28,274.84L650.54,273.51L651.81,279.52L653.08,280.28L655.62,287.3L656.88,289.3L659.42,292.06L660.69,288.89L661.96,290.98L663.22,286.04L665.76,279.02L667.03,272.25L668.3,270.08L669.57,260.3L674.64,213.57L675.91,209.56L677.17,210.31L678.44,195.68" style="fill: rgb(8, 115, 191); fill-opacity: 0.2; stroke-width: 0;"/></g></g><g class="errorbars"/><g class="lines"><path class="js-line" d="M-172.46,379.58L-40.58,378.83L-39.31,378.41L-31.7,376.91L-30.43,377.07L-16.49,376.66L-15.22,376.74L-6.34,375.4L-5.07,375.32L0,374.23L1.27,373.06L2.54,372.56L3.8,370.05L5.07,369.89L6.34,368.63L8.88,364.87L10.14,364.62L11.41,364.95L12.68,364.29L13.95,364.03L15.22,364.7L16.49,366.54L17.75,366.12L20.29,365.12L21.56,365.37L25.36,355.84L26.63,351.41L27.9,348.82L29.17,348.82L30.43,344.31L31.7,343.47L34.24,339.29L35.51,339.96L36.78,341.13L38.04,341.05L39.31,341.47L40.58,340.55L43.12,341.72L44.38,342.89L45.65,344.56L46.92,344.64L49.46,348.15L50.72,352L53.26,356.26L54.53,356.93L55.8,356.59L57.07,353.92L58.33,356.18L59.6,356.26L63.41,361.78L64.67,362.2L65.94,367.8L67.21,366.79L71.01,368.46L72.28,368.38L73.55,368.38L74.82,369.89L78.62,370.72L79.89,369.72L82.43,369.97L83.7,368.21L86.23,368.88L87.5,367.88L90.04,366.46L91.3,365.2L95.11,359.52L96.38,358.94L98.91,355.68L100.18,355.76L103.99,359.27L105.25,358.77L106.52,363.62L107.79,365.04L110.33,367.04L111.59,366.71L112.86,365.62L114.13,367.63L121.74,367.29L123.01,364.37L124.28,362.78L125.54,363.62L126.81,363.28L128.08,362.11L129.35,362.2L130.62,363.53L131.88,365.04L133.15,365.12L135.69,364.03L136.96,364.62L138.22,364.12L139.49,361.86L143.3,360.02L144.57,360.11L145.83,357.6L147.1,357.01L148.37,356.09L149.64,356.43L152.17,355.01L153.44,355.34L154.71,357.1L155.98,356.68L157.25,359.77L158.51,360.44L159.78,359.1L161.05,361.11L163.59,361.78L164.86,362.95L166.12,364.2L167.39,364.29L168.66,365.46L169.93,364.45L171.2,364.12L172.46,365.79L175,364.79L176.27,365.2L181.34,366.71L182.61,367.88L186.41,370.3L187.68,370.64L188.95,370.47L190.22,371.47L194.02,371.98L195.29,372.06L197.83,371.22L199.09,371.06L201.63,369.89L202.9,369.05L206.7,368.97L207.97,368.38L210.51,368.97L211.78,368.63L214.31,369.22L215.58,368.97L218.12,368.38L219.38,367.46L220.65,366.46L221.92,363.95L223.19,362.36L224.46,362.53L225.72,362.28L226.99,360.27L228.26,358.68L229.53,358.43L232.07,360.27L233.33,359.77L234.6,361.94L235.87,360.44L238.41,358.77L239.67,358.18L242.21,357.93L243.48,354.09L246.01,355.68L247.28,356.51L248.55,357.18L249.82,356.59L252.36,356.59L253.62,358.18L256.16,359.44L257.43,357.93L259.96,359.02L261.23,361.53L266.3,363.11L267.57,364.95L268.84,365.12L270.11,363.7L271.38,363.03L272.64,363.87L273.91,364.79L275.18,366.79L277.72,366.79L278.99,368.46L280.25,370.47L281.52,370.97L284.06,373.31L285.33,373.06L289.13,373.06L290.4,373.98L292.93,372.89L294.2,373.15L295.47,373.15L296.74,373.98L298.01,373.98L299.28,373.15L301.81,373.4L303.08,373.31L305.62,372.89L306.88,373.98L310.69,376.49L311.96,376.07L319.57,376.91L320.83,377.66L330.98,378.5L332.25,379.16L338.59,379.75L339.86,379.75L353.8,379.16L355.07,378.91L363.95,378.58L365.22,377.49L369.02,376.99L370.29,376.24L372.83,374.32L374.09,375.07L376.63,375.49L377.9,374.57L379.17,373.98L380.43,374.48L382.97,374.23L384.24,373.98L385.51,372.89L386.78,372.89L389.31,372.14L390.58,371.47L394.38,370.97L395.65,369.63L398.19,366.12L399.46,365.71L401.99,364.62L403.26,364.12L404.53,364.2L405.8,365.46L408.33,367.88L409.6,368.63L410.87,368.55L412.14,369.72L413.41,369.72L414.67,370.55L417.21,370.47L418.48,370.97L421.01,371.14L422.28,372.89L427.36,374.9L428.62,375.24L434.96,373.65L436.23,374.15L437.5,373.98L438.77,375.32L446.38,378.08L447.64,377.91L450.18,377.83L451.45,377.74L455.25,377.91L456.52,376.99L457.79,375.57L459.06,375.74L464.13,376.07L465.4,376.91L467.93,378.41L469.2,378.91L481.88,378.33L483.15,379.08L486.96,379.67L488.22,379.33L499.64,377.07L500.91,377.66L504.71,376.32L505.98,376.07L508.51,375.32L509.78,373.31L512.32,370.81L513.59,370.97L514.86,369.55L516.12,370.05L518.66,369.63L519.93,370.39L521.2,371.06L522.46,369.38L523.73,369.89L525,367.63L526.27,367.46L527.54,365.54L532.61,356.76L533.88,356.76L537.68,358.02L538.95,357.43L540.22,357.1L541.49,355.51L545.29,355.42L546.56,353.33L547.83,352.42L549.09,353.67L551.63,356.51L552.9,356.51L554.17,353.84L555.43,354L556.7,355.17L557.97,353.84L561.78,350.83L563.04,350.58L564.31,348.15L565.58,341.38L568.12,323.41L569.38,326.08L570.65,323.58L571.92,309.12L575.72,264.9L576.99,250.35L578.26,249.6L579.53,247.59L580.8,223.27L582.07,214.74L583.33,209.06L584.6,207.97L585.87,207.22L587.14,185.4L588.41,187.16L589.67,200.62L590.94,195.52L592.21,195.18L596.01,182.14L597.28,178.97L598.55,156.98L599.82,154.64L602.36,131.65L603.62,122.63L604.89,110.34L606.16,105.82L608.7,63.19L609.96,38.7L612.5,6.27L613.77,0L616.3,3.26L617.57,9.11L620.11,37.87L621.38,49.23L622.64,60.52L623.91,60.02L627.72,98.72L628.99,118.53L631.52,150.13L632.79,154.64L636.59,219.01L637.86,227.87L640.4,245.59L641.67,247.43L644.2,263.64L645.47,266.65L646.74,271.33L648.01,272.5L649.28,274.84L650.54,273.51L651.81,279.52L653.08,280.28L655.62,287.3L656.88,289.3L659.42,292.06L660.69,288.89L661.96,290.98L663.22,286.04L665.76,279.02L667.03,272.25L668.3,270.08L669.57,260.3L674.64,213.57L675.91,209.56L677.17,210.31L678.44,195.68" style="vector-effect: non-scaling-stroke; fill: none; stroke: rgb(8, 115, 191); stroke-opacity: 1; stroke-width: 0.5px; opacity: 1;"/></g><g class="points"/><g class="text"/></g><g class="trace scatter trace30f6f6" style="stroke-miterlimit: 2;"><g class="fills"><g><path class="js-fill" d="M691.12,380L678.44,380L678.44,195.68L680.98,186.82L682.25,185.49L683.51,182.73L684.78,183.48L686.05,182.06L687.32,184.98L688.59,181.06L689.86,184.32L691.12,188.75" style="fill: rgb(8, 115, 191); fill-opacity: 0.4; stroke-width: 0;"/></g></g><g class="errorbars"/><g class="lines"><path class="js-line" d="M678.44,195.68L680.98,186.82L682.25,185.49L683.51,182.73L684.78,183.48L686.05,182.06L687.32,184.98L688.59,181.06L689.86,184.32L691.12,188.75" style="vector-effect: non-scaling-stroke; fill: none; stroke: rgb(8, 115, 191); stroke-opacity: 1; stroke-width: 2px; opacity: 1;"/></g><g class="points"/><g class="text"/></g><g class="trace scatter trace98e338" style="stroke-miterlimit: 2; opacity: 1;"><g class="fills"/><g class="errorbars"/><g class="lines"/><g class="points"><path class="point" transform="translate(691.12,188.75)" d="M15,0A15,15 0 1,1 0,-15A15,15 0 0,1 15,0Z" style="opacity: 1; stroke-width: 0px; fill: rgb(8, 115, 191); fill-opacity: 1;"/></g><g class="text"/></g></g></g><g class="overplot"/><path class="xlines-above crisp" style="fill: none; stroke-width: 1px; stroke: rgb(0, 0, 0); stroke-opacity: 0;" d=""/><path class="ylines-above crisp" style="fill: none;" d="M0,0"/><g class="overlines-above"/><g class="xaxislayer-above"><path class="xtick ticks crisp" d="M0,450v-5" transform="translate(91.85,0)" style="stroke: rgb(68, 68, 68); stroke-opacity: 1; stroke-width: 1px;"/><path class="xtick ticks crisp" d="M0,450v-5" transform="translate(169.2,0)" style="stroke: rgb(68, 68, 68); stroke-opacity: 1; stroke-width: 1px;"/><path class="xtick ticks crisp" d="M0,450v-5" transform="translate(244.02,0)" style="stroke: rgb(68, 68, 68); stroke-opacity: 1; stroke-width: 1px;"/><path class="xtick ticks crisp" d="M0,450v-5" transform="translate(321.38,0)" style="stroke: rgb(68, 68, 68); stroke-opacity: 1; stroke-width: 1px;"/><path class="xtick ticks crisp" d="M0,450v-5" transform="translate(398.73,0)" style="stroke: rgb(68, 68, 68); stroke-opacity: 1; stroke-width: 1px;"/><path class="xtick ticks crisp" d="M0,450v-5" transform="translate(477.36,0)" style="stroke: rgb(68, 68, 68); stroke-opacity: 1; stroke-width: 1px;"/><path class="xtick ticks crisp" d="M0,450v-5" transform="translate(554.71,0)" style="stroke: rgb(68, 68, 68); stroke-opacity: 1; stroke-width: 1px;"/><path class="xtick ticks crisp" d="M0,450v-5" transform="translate(632.07,0)" style="stroke: rgb(68, 68, 68); stroke-opacity: 1; stroke-width: 1px;"/><path class="xtick ticks crisp" d="M0,450v-5" transform="translate(706.88,0)" style="stroke: rgb(68, 68, 68); stroke-opacity: 1; stroke-width: 1px;"/><g class="xtick"><text text-anchor="middle" x="0" y="469" transform="translate(91.85,0)" style="font-family: 'Open Sans', verdana, arial, sans-serif; font-size: 18px; fill: rgb(42, 63, 95); fill-opacity: 1; white-space: pre;">01/11</text></g><g class="xtick"><text text-anchor="middle" x="0" y="469" transform="translate(169.2,0)" style="font-family: 'Open Sans', verdana, arial, sans-serif; font-size: 18px; fill: rgb(42, 63, 95); fill-opacity: 1; white-space: pre;">01/01</text></g><g class="xtick"><text text-anchor="middle" x="0" y="469" transform="translate(244.02,0)" style="font-family: 'Open Sans', verdana, arial, sans-serif; font-size: 18px; fill: rgb(42, 63, 95); fill-opacity: 1; white-space: pre;">01/03</text></g><g class="xtick"><text text-anchor="middle" x="0" y="469" transform="translate(321.38,0)" style="font-family: 'Open Sans', verdana, arial, sans-serif; font-size: 18px; fill: rgb(42, 63, 95); fill-opacity: 1; white-space: pre;">01/05</text></g><g class="xtick"><text text-anchor="middle" x="0" y="469" transform="translate(398.73,0)" style="font-family: 'Open Sans', verdana, arial, sans-serif; font-size: 18px; fill: rgb(42, 63, 95); fill-opacity: 1; white-space: pre;">01/07</text></g><g class="xtick"><text text-anchor="middle" x="0" y="469" transform="translate(477.36,0)" style="font-family: 'Open Sans', verdana, arial, sans-serif; font-size: 18px; fill: rgb(42, 63, 95); fill-opacity: 1; white-space: pre;">01/09</text></g><g class="xtick"><text text-anchor="middle" x="0" y="469" transform="translate(554.71,0)" style="font-family: 'Open Sans', verdana, arial, sans-serif; font-size: 18px; fill: rgb(42, 63, 95); fill-opacity: 1; white-space: pre;">01/11</text></g><g class="xtick"><text text-anchor="middle" x="0" y="469" transform="translate(632.07,0)" style="font-family: 'Open Sans', verdana, arial, sans-serif; font-size: 18px; fill: rgb(42, 63, 95); fill-opacity: 1; white-space: pre;">01/01</text></g><g class="xtick"><text text-anchor="middle" x="0" y="469" transform="translate(706.88,0)" style="font-family: 'Open Sans', verdana, arial, sans-serif; font-size: 18px; fill: rgb(42, 63, 95); fill-opacity: 1; white-space: pre;">01/03</text></g></g><g class="yaxislayer-above"/><g class="overaxes-above"/></g></g><g class="polarlayer"/><g class="ternarylayer"/><g class="geolayer"/><g class="funnelarealayer"/><g class="pielayer"/><g class="treemaplayer"/><g class="sunburstlayer"/><g class="glimages"/><defs id="topdefs-247b38"><g class="clips"/></defs><g class="layer-above"><g class="imagelayer"/><g class="shapelayer"><path data-index="0" fill-rule="evenodd" d="M-662.68,444.03L264.31,444.03" clip-path="url('#clip247b38xy')" style="opacity: 1; stroke: rgb(255, 0, 0); stroke-opacity: 1; fill: rgb(0, 0, 0); fill-opacity: 0; stroke-dasharray: 3px, 3px; stroke-width: 1.5px;"/></g></g><g class="infolayer"><g class="g-gtitle"><text class="gtitle" x="375" y="25" text-anchor="middle" dy="0.7em" style="font-family: 'Open Sans', verdana, arial, sans-serif; font-size: 50px; fill: rgb(42, 63, 95); opacity: 1; font-weight: normal; white-space: pre;"><tspan style="font-weight:bold">Cantal (15)</tspan></text></g><g class="g-xtitle"/><g class="annotation" data-index="0" style="opacity: 1;"><g class="annotation-text-g" transform="rotate(0,699.12,198.75)"><g class="cursor-pointer" transform="translate(627, 163)"><rect class="bg" x="0.5" y="0.5" width="143" height="71" style="stroke-width: 1px; stroke: rgb(0, 0, 0); stroke-opacity: 0; fill: rgb(255, 255, 255); fill-opacity: 0.6;"/><text class="annotation-text" text-anchor="middle" x="72.078125" y="55.5" style="font-family: 'Open Sans', verdana, arial, sans-serif; font-size: 50px; fill: rgb(8, 115, 191); fill-opacity: 1; white-space: pre;"> <tspan style="font-weight:bold">1602 </tspan></text></g></g><g class="annotation-arrow-g" style="opacity: 1;"><path d="M727.52,234.25L739.12,248.75" style="stroke-width: 1px; stroke: rgb(8, 115, 191); stroke-opacity: 1; stroke-dasharray: 0px, 0px, 18.569px, 18.569px;"/></g></g></g></svg>