<svg class="main-svg" xmlns="http://www.w3.org/2000/svg" xmlns:xlink="http://www.w3.org/1999/xlink" width="1125" height="750" style="" viewBox="0 0 750 500"><rect x="0" y="0" width="750" height="500" style="fill: rgb(0, 0, 0); fill-opacity: 0;"/><defs id="defs-75ab29"><g class="clips"><clipPath id="clip75ab29xyplot" class="plotclip"><rect width="700" height="380"/></clipPath><clipPath class="axesclip" id="clip75ab29x"><rect x="50" y="0" width="700" height="500"/></clipPath><clipPath class="axesclip" id="clip75ab29y"><rect x="0" y="70" width="750" height="380"/></clipPath><clipPath class="axesclip" id="clip75ab29xy"><rect x="50" y="70" width="700" height="380"/></clipPath></g><g class="gradients"/></defs><g class="bglayer"><rect class="bg" x="50" y="70" width="700" height="380" style="fill: rgb(0, 0, 0); fill-opacity: 0; stroke-width: 0;"/></g><g class="layer-below"><g class="imagelayer"/><g class="shapelayer"/></g><g class="cartesianlayer"><g class="subplot xy"><g class="layer-subplot"><g class="shapelayer"/><g class="imagelayer"/></g><g class="gridlayer"><g class="x"><path class="xgrid crisp" transform="translate(110.78999999999999,0)" d="M0,70v380" style="stroke: rgb(255, 255, 255); stroke-opacity: 1; stroke-width: 1px;"/><path class="xgrid crisp" transform="translate(223.16,0)" d="M0,70v380" style="stroke: rgb(255, 255, 255); stroke-opacity: 1; stroke-width: 1px;"/><path class="xgrid crisp" transform="translate(331.84,0)" d="M0,70v380" style="stroke: rgb(255, 255, 255); stroke-opacity: 1; stroke-width: 1px;"/><path class="xgrid crisp" transform="translate(444.21,0)" d="M0,70v380" style="stroke: rgb(255, 255, 255); stroke-opacity: 1; stroke-width: 1px;"/><path class="xgrid crisp" transform="translate(556.5799999999999,0)" d="M0,70v380" style="stroke: rgb(255, 255, 255); stroke-opacity: 1; stroke-width: 1px;"/><path class="xgrid crisp" transform="translate(670.79,0)" d="M0,70v380" style="stroke: rgb(255, 255, 255); stroke-opacity: 1; stroke-width: 1px;"/></g><g class="y"/></g><g class="zerolinelayer"/><path class="xlines-below"/><path class="ylines-below"/><g class="overlines-below"/><g class="xaxislayer-below"/><g class="yaxislayer-below"/><g class="overaxes-below"/><g class="plot" transform="translate(50, 70)" clip-path="url('#clip75ab29xyplot')"><g class="scatterlayer mlayer"><g class="trace scatter traceed9cae" style="stroke-miterlimit: 2;"><g class="fills"><g><path class="js-fill" d="M668.68,380L-250.53,380L-250.53,371.56L-235.79,376.18L-233.95,375.58L-219.21,376.63L-217.37,375.93L-169.47,376.53L-167.63,374.22L-145.53,375.78L-143.68,375.38L-136.32,373.26L-134.47,371.46L-110.53,364.82L-108.68,363.31L-95.79,358.89L-93.95,358.08L-90.26,355.82L-88.42,356.02L-82.89,354.67L-81.05,352.81L-73.68,350.95L-71.84,347.08L-62.63,334.36L-60.79,334.36L-51.58,325.66L-49.74,324.91L-47.89,325.01L-46.05,323.15L-42.37,320.13L-40.53,316.01L-38.68,313.5L-36.84,313.8L-35,313.5L-33.16,311.34L-29.47,307.82L-27.63,308.78L-25.79,305.16L-23.95,303.85L-22.11,303.95L-20.26,298.62L-14.74,287.26L-12.89,289.37L-9.21,288.72L-7.37,290.58L-5.53,289.93L-3.68,292.64L-1.84,288.87L0,280.53L1.84,277.41L3.68,277.61L7.37,256.05L9.21,240.37L12.89,215.48L14.74,209.7L16.58,208.4L18.42,197.24L25.79,164.26L27.63,160.85L29.47,159.29L31.32,149.69L35,123.65L36.84,109.93L38.68,91.48L40.53,85.8L42.37,83.49L44.21,61.88L46.05,51.32L47.89,46.7L49.74,50.01L51.58,56.04L53.42,59.06L55.26,60.07L58.95,72.33L60.79,87.56L62.63,96.86L64.47,111.29L66.32,118.42L68.16,121.44L71.84,164.52L73.68,198.95L77.37,226.79L79.21,232.98L81.05,232.62L82.89,249.87L84.74,262.48L86.58,254.84L88.42,271.53L90.26,280.73L92.11,280.48L93.95,281.98L97.63,295.81L99.47,296.21L103.16,305.01L105,307.47L106.84,307.37L108.68,311.19L112.37,320.39L114.21,321.84L116.05,319.68L117.89,319.08L119.74,319.28L121.58,318.38L125.26,314.81L127.11,314.86L132.63,314.1L134.47,312.7L136.32,313.85L138.16,311.89L143.68,302.89L145.53,302.04L151.05,297.62L152.89,298.52L154.74,311.49L156.58,310.58L158.42,310.94L160.26,308.88L162.11,302.84L163.95,299.53L165.79,297.82L167.63,297.77L169.47,297.01L171.32,297.37L173.16,288.22L175,285.85L176.84,286.56L178.68,280.73L180.53,265.8L182.37,266.55L184.21,265.5L186.05,270.88L187.89,275L189.74,273.99L191.58,273.19L193.42,270.62L195.26,270.12L197.11,271.03L198.95,265.8L200.79,263.34L208.16,257.2L210,257.51L211.84,257.2L213.68,255.65L215.53,255.9L217.37,254.24L222.89,254.54L224.74,255.7L226.58,256.35L228.42,255.39L230.26,256.05L232.11,257.96L233.95,259.21L235.79,258.26L237.63,259.47L239.47,258.06L243.16,262.38L245,261.07L248.68,259.06L250.53,260.27L252.37,258.91L254.21,254.19L256.05,247.85L257.89,237.95L259.74,234.58L261.58,235.09L263.42,220.71L265.26,215.89L267.11,209L268.95,209L270.79,210.86L272.63,207.84L274.47,207.29L276.32,207.59L278.16,204.73L280,205.83L283.68,198.54L285.53,197.29L287.37,198.65L289.21,193.72L291.05,190.9L292.89,183.42L298.42,162.05L300.26,155.97L307.63,97.11L309.47,85.05L311.32,75.25L313.16,74.29L315,58.01L316.84,49.96L320.53,33.73L322.37,21.21L324.21,17.74L326.05,20.91L327.89,14.68L329.74,5.48L331.58,1.91L333.42,0L337.11,12.06L338.95,11.51L340.79,82.63L342.63,71.07L344.47,73.49L346.32,78.51L348.16,78.76L350,73.84L351.84,74.69L353.68,19.15L355.53,48L357.37,57.1L362.89,90.58L364.74,91.28L370.26,108.92L372.11,110.78L375.79,118.88L377.63,120.53L385,158.13L386.84,162.61L388.68,181.15L390.53,179.54L392.37,187.94L394.21,192.46L399.74,215.69L401.58,216.44L403.42,218L405.26,224.88L407.11,232.52L408.95,235.49L410.79,256.3L412.63,260.12L414.47,253.13L416.32,253.38L418.16,260.52L420,264.09L421.84,267.46L423.68,253.99L425.53,261.07L427.37,264.69L429.21,266.75L431.05,290.98L432.89,291.03L434.74,295.3L436.58,298.32L438.42,303.2L440.26,305.36L442.11,304.96L443.95,296.21L445.79,308.47L449.47,320.59L451.32,323.55L453.16,326.17L455,326.67L456.84,331.54L458.68,334.11L464.21,345.77L466.05,347.43L467.89,347.93L469.74,350.54L471.58,354.77L473.42,355.97L477.11,359.14L478.95,359.59L480.79,359.04L482.63,360.85L484.47,360.75L486.32,362.56L490,363.97L491.84,364.32L493.68,364.87L495.53,366.48L499.21,365.17L501.05,363.97L504.74,360.9L506.58,360.4L508.42,356.53L510.26,355.12L513.95,351.9L515.79,352.3L519.47,352.91L521.32,351.2L523.16,348.58L525,351.05L530.53,331.14L532.37,330.34L537.89,293.75L539.74,289.47L541.58,282.54L543.42,279.27L545.26,277.76L547.11,274.6L548.95,272.69L550.79,273.14L558.16,277.31L560,274.8L561.84,273.74L563.68,271.73L569.21,262.58L571.05,261.22L574.74,255.09L576.58,255.09L578.42,253.53L580.26,254.54L583.95,252.88L585.79,252.68L589.47,253.84L591.32,256.25L593.16,254.84L595,255.75L596.84,256.55L598.68,259.47L602.37,264.84L604.21,265.75L606.05,268.87L607.89,268.36L609.74,268.92L611.58,273.04L613.42,275.3L615.26,276.2L617.11,278.57L618.95,282.49L620.79,285.5L622.63,286.31L626.32,291.84L628.16,297.21L633.68,308.27L635.53,309.13L637.37,316.82L639.21,320.34L644.74,331.14L646.58,332.45L648.42,332.6L650.26,334.16L653.95,334.81L655.79,332.75L659.47,335.57L661.32,335.16L663.16,335.52L665,337.88L668.68,340.74" style="fill: rgb(8, 115, 191); fill-opacity: 0.2; stroke-width: 0;"/></g></g><g class="errorbars"/><g class="lines"><path class="js-line" d="M-250.53,371.56L-235.79,376.18L-233.95,375.58L-219.21,376.63L-217.37,375.93L-169.47,376.53L-167.63,374.22L-145.53,375.78L-143.68,375.38L-136.32,373.26L-134.47,371.46L-110.53,364.82L-108.68,363.31L-95.79,358.89L-93.95,358.08L-90.26,355.82L-88.42,356.02L-82.89,354.67L-81.05,352.81L-73.68,350.95L-71.84,347.08L-62.63,334.36L-60.79,334.36L-51.58,325.66L-49.74,324.91L-47.89,325.01L-46.05,323.15L-42.37,320.13L-40.53,316.01L-38.68,313.5L-36.84,313.8L-35,313.5L-33.16,311.34L-29.47,307.82L-27.63,308.78L-25.79,305.16L-23.95,303.85L-22.11,303.95L-20.26,298.62L-14.74,287.26L-12.89,289.37L-9.21,288.72L-7.37,290.58L-5.53,289.93L-3.68,292.64L-1.84,288.87L0,280.53L1.84,277.41L3.68,277.61L7.37,256.05L9.21,240.37L12.89,215.48L14.74,209.7L16.58,208.4L18.42,197.24L25.79,164.26L27.63,160.85L29.47,159.29L31.32,149.69L35,123.65L36.84,109.93L38.68,91.48L40.53,85.8L42.37,83.49L44.21,61.88L46.05,51.32L47.89,46.7L49.74,50.01L51.58,56.04L53.42,59.06L55.26,60.07L58.95,72.33L60.79,87.56L62.63,96.86L64.47,111.29L66.32,118.42L68.16,121.44L71.84,164.52L73.68,198.95L77.37,226.79L79.21,232.98L81.05,232.62L82.89,249.87L84.74,262.48L86.58,254.84L88.42,271.53L90.26,280.73L92.11,280.48L93.95,281.98L97.63,295.81L99.47,296.21L103.16,305.01L105,307.47L106.84,307.37L108.68,311.19L112.37,320.39L114.21,321.84L116.05,319.68L117.89,319.08L119.74,319.28L121.58,318.38L125.26,314.81L127.11,314.86L132.63,314.1L134.47,312.7L136.32,313.85L138.16,311.89L143.68,302.89L145.53,302.04L151.05,297.62L152.89,298.52L154.74,311.49L156.58,310.58L158.42,310.94L160.26,308.88L162.11,302.84L163.95,299.53L165.79,297.82L167.63,297.77L169.47,297.01L171.32,297.37L173.16,288.22L175,285.85L176.84,286.56L178.68,280.73L180.53,265.8L182.37,266.55L184.21,265.5L186.05,270.88L187.89,275L189.74,273.99L191.58,273.19L193.42,270.62L195.26,270.12L197.11,271.03L198.95,265.8L200.79,263.34L208.16,257.2L210,257.51L211.84,257.2L213.68,255.65L215.53,255.9L217.37,254.24L222.89,254.54L224.74,255.7L226.58,256.35L228.42,255.39L230.26,256.05L232.11,257.96L233.95,259.21L235.79,258.26L237.63,259.47L239.47,258.06L243.16,262.38L245,261.07L248.68,259.06L250.53,260.27L252.37,258.91L254.21,254.19L256.05,247.85L257.89,237.95L259.74,234.58L261.58,235.09L263.42,220.71L265.26,215.89L267.11,209L268.95,209L270.79,210.86L272.63,207.84L274.47,207.29L276.32,207.59L278.16,204.73L280,205.83L283.68,198.54L285.53,197.29L287.37,198.65L289.21,193.72L291.05,190.9L292.89,183.42L298.42,162.05L300.26,155.97L307.63,97.11L309.47,85.05L311.32,75.25L313.16,74.29L315,58.01L316.84,49.96L320.53,33.73L322.37,21.21L324.21,17.74L326.05,20.91L327.89,14.68L329.74,5.48L331.58,1.91L333.42,0L337.11,12.06L338.95,11.51L340.79,82.63L342.63,71.07L344.47,73.49L346.32,78.51L348.16,78.76L350,73.84L351.84,74.69L353.68,19.15L355.53,48L357.37,57.1L362.89,90.58L364.74,91.28L370.26,108.92L372.11,110.78L375.79,118.88L377.63,120.53L385,158.13L386.84,162.61L388.68,181.15L390.53,179.54L392.37,187.94L394.21,192.46L399.74,215.69L401.58,216.44L403.42,218L405.26,224.88L407.11,232.52L408.95,235.49L410.79,256.3L412.63,260.12L414.47,253.13L416.32,253.38L418.16,260.52L420,264.09L421.84,267.46L423.68,253.99L425.53,261.07L427.37,264.69L429.21,266.75L431.05,290.98L432.89,291.03L434.74,295.3L436.58,298.32L438.42,303.2L440.26,305.36L442.11,304.96L443.95,296.21L445.79,308.47L449.47,320.59L451.32,323.55L453.16,326.17L455,326.67L456.84,331.54L458.68,334.11L464.21,345.77L466.05,347.43L467.89,347.93L469.74,350.54L471.58,354.77L473.42,355.97L477.11,359.14L478.95,359.59L480.79,359.04L482.63,360.85L484.47,360.75L486.32,362.56L490,363.97L491.84,364.32L493.68,364.87L495.53,366.48L499.21,365.17L501.05,363.97L504.74,360.9L506.58,360.4L508.42,356.53L510.26,355.12L513.95,351.9L515.79,352.3L519.47,352.91L521.32,351.2L523.16,348.58L525,351.05L530.53,331.14L532.37,330.34L537.89,293.75L539.74,289.47L541.58,282.54L543.42,279.27L545.26,277.76L547.11,274.6L548.95,272.69L550.79,273.14L558.16,277.31L560,274.8L561.84,273.74L563.68,271.73L569.21,262.58L571.05,261.22L574.74,255.09L576.58,255.09L578.42,253.53L580.26,254.54L583.95,252.88L585.79,252.68L589.47,253.84L591.32,256.25L593.16,254.84L595,255.75L596.84,256.55L598.68,259.47L602.37,264.84L604.21,265.75L606.05,268.87L607.89,268.36L609.74,268.92L611.58,273.04L613.42,275.3L615.26,276.2L617.11,278.57L618.95,282.49L620.79,285.5L622.63,286.31L626.32,291.84L628.16,297.21L633.68,308.27L635.53,309.13L637.37,316.82L639.21,320.34L644.74,331.14L646.58,332.45L648.42,332.6L650.26,334.16L653.95,334.81L655.79,332.75L659.47,335.57L661.32,335.16L663.16,335.52L665,337.88L668.68,340.74" style="vector-effect: non-scaling-stroke; fill: none; stroke: rgb(8, 115, 191); stroke-opacity: 1; stroke-width: 0.5px; opacity: 1;"/></g><g class="points"/><g class="text"/></g><g class="trace scatter tracea47cb6" style="stroke-miterlimit: 2;"><g class="fills"><g><path class="js-fill" d="M687.11,380L668.68,380L668.68,340.74L670.53,340.74L672.37,342.15L674.21,342.5L676.05,343.71L683.42,345.22L685.26,342.85L687.11,342.65" style="fill: rgb(8, 115, 191); fill-opacity: 0.4; stroke-width: 0;"/></g></g><g class="errorbars"/><g class="lines"><path class="js-line" d="M668.68,340.74L670.53,340.74L672.37,342.15L674.21,342.5L676.05,343.71L683.42,345.22L685.26,342.85L687.11,342.65" style="vector-effect: non-scaling-stroke; fill: none; stroke: rgb(8, 115, 191); stroke-opacity: 1; stroke-width: 2px; opacity: 1;"/></g><g class="points"/><g class="text"/></g><g class="trace scatter trace1f7325" style="stroke-miterlimit: 2; opacity: 1;"><g class="fills"/><g class="errorbars"/><g class="lines"/><g class="points"><path class="point" transform="translate(687.11,342.65)" d="M15,0A15,15 0 1,1 0,-15A15,15 0 0,1 15,0Z" style="opacity: 1; stroke-width: 0px; fill: rgb(8, 115, 191); fill-opacity: 1;"/></g><g class="text"/></g></g></g><g class="overplot"/><path class="xlines-above crisp" style="fill: none; stroke-width: 1px; stroke: rgb(0, 0, 0); stroke-opacity: 0;" d=""/><path class="ylines-above crisp" style="fill: none;" d="M0,0"/><g class="overlines-above"/><g class="xaxislayer-above"><path class="xtick ticks crisp" d="M0,450v-5" transform="translate(110.78999999999999,0)" style="stroke: rgb(68, 68, 68); stroke-opacity: 1; stroke-width: 1px;"/><path class="xtick ticks crisp" d="M0,450v-5" transform="translate(223.16,0)" style="stroke: rgb(68, 68, 68); stroke-opacity: 1; stroke-width: 1px;"/><path class="xtick ticks crisp" d="M0,450v-5" transform="translate(331.84,0)" style="stroke: rgb(68, 68, 68); stroke-opacity: 1; stroke-width: 1px;"/><path class="xtick ticks crisp" d="M0,450v-5" transform="translate(444.21,0)" style="stroke: rgb(68, 68, 68); stroke-opacity: 1; stroke-width: 1px;"/><path class="xtick ticks crisp" d="M0,450v-5" transform="translate(556.5799999999999,0)" style="stroke: rgb(68, 68, 68); stroke-opacity: 1; stroke-width: 1px;"/><path class="xtick ticks crisp" d="M0,450v-5" transform="translate(670.79,0)" style="stroke: rgb(68, 68, 68); stroke-opacity: 1; stroke-width: 1px;"/><g class="xtick"><text text-anchor="middle" x="0" y="469" transform="translate(110.78999999999999,0)" style="font-family: 'Open Sans', verdana, arial, sans-serif; font-size: 18px; fill: rgb(42, 63, 95); fill-opacity: 1; white-space: pre;">01/11</text></g><g class="xtick"><text text-anchor="middle" x="0" y="469" transform="translate(223.16,0)" style="font-family: 'Open Sans', verdana, arial, sans-serif; font-size: 18px; fill: rgb(42, 63, 95); fill-opacity: 1; white-space: pre;">01/01</text></g><g class="xtick"><text text-anchor="middle" x="0" y="469" transform="translate(331.84,0)" style="font-family: 'Open Sans', verdana, arial, sans-serif; font-size: 18px; fill: rgb(42, 63, 95); fill-opacity: 1; white-space: pre;">01/03</text></g><g class="xtick"><text text-anchor="middle" x="0" y="469" transform="translate(444.21,0)" style="font-family: 'Open Sans', verdana, arial, sans-serif; font-size: 18px; fill: rgb(42, 63, 95); fill-opacity: 1; white-space: pre;">01/05</text></g><g class="xtick"><text text-anchor="middle" x="0" y="469" transform="translate(556.5799999999999,0)" style="font-family: 'Open Sans', verdana, arial, sans-serif; font-size: 18px; fill: rgb(42, 63, 95); fill-opacity: 1; white-space: pre;">01/07</text></g><g class="xtick"><text text-anchor="middle" x="0" y="469" transform="translate(670.79,0)" style="font-family: 'Open Sans', verdana, arial, sans-serif; font-size: 18px; fill: rgb(42, 63, 95); fill-opacity: 1; white-space: pre;">01/09</text></g></g><g class="yaxislayer-above"/><g class="overaxes-above"/></g></g><g class="polarlayer"/><g class="ternarylayer"/><g class="geolayer"/><g class="funnelarealayer"/><g class="pielayer"/><g class="treemaplayer"/><g class="sunburstlayer"/><g class="glimages"/><defs id="topdefs-75ab29"><g class="clips"/></defs><g class="layer-above"><g class="imagelayer"/><g class="shapelayer"><path data-index="0" fill-rule="evenodd" d="M-985.26,416.84L361.32,416.84" clip-path="url('#clip75ab29xy')" style="opacity: 1; stroke: rgb(255, 0, 0); stroke-opacity: 1; fill: rgb(0, 0, 0); fill-opacity: 0; stroke-dasharray: 3px, 3px; stroke-width: 1.5px;"/></g></g><g class="infolayer"><g class="g-gtitle"><text class="gtitle" x="375" y="25" text-anchor="middle" dy="0.7em" style="font-family: 'Open Sans', verdana, arial, sans-serif; font-size: 50px; fill: rgb(42, 63, 95); opacity: 1; font-weight: normal; white-space: pre;"><tspan style="font-weight:bold">Essonne (91)</tspan></text></g><g class="g-xtitle"/><g class="annotation" data-index="0" style="opacity: 1;"><g class="annotation-text-g" transform="rotate(0,695.11,352.65)"><g class="cursor-pointer" transform="translate(652, 317)"><rect class="bg" x="0.5" y="0.5" width="86" height="71" style="stroke-width: 1px; stroke: rgb(0, 0, 0); stroke-opacity: 0; fill: rgb(255, 255, 255); fill-opacity: 0.6;"/><text class="annotation-text" text-anchor="middle" x="43.53125" y="55.5" style="font-family: 'Open Sans', verdana, arial, sans-serif; font-size: 50px; fill: rgb(8, 115, 191); fill-opacity: 1; white-space: pre;"> <tspan style="font-weight:bold">56 </tspan></text></g></g><g class="annotation-arrow-g" style="opacity: 1;"><path d="M723.51,388.15L735.11,402.65" style="stroke-width: 1px; stroke: rgb(8, 115, 191); stroke-opacity: 1; stroke-dasharray: 0px, 0px, 18.569px, 18.569px;"/></g></g></g></svg>