<svg class="main-svg" xmlns="http://www.w3.org/2000/svg" xmlns:xlink="http://www.w3.org/1999/xlink" width="1125" height="750" style="" viewBox="0 0 750 500"><rect x="0" y="0" width="750" height="500" style="fill: rgb(0, 0, 0); fill-opacity: 0;"/><defs id="defs-9e8f32"><g class="clips"><clipPath id="clip9e8f32xyplot" class="plotclip"><rect width="677" height="380"/></clipPath><clipPath class="axesclip" id="clip9e8f32x"><rect x="50" y="0" width="677" height="500"/></clipPath><clipPath class="axesclip" id="clip9e8f32y"><rect x="0" y="70" width="750" height="380"/></clipPath><clipPath class="axesclip" id="clip9e8f32xy"><rect x="50" y="70" width="677" height="380"/></clipPath></g><g class="gradients"/></defs><g class="bglayer"><rect class="bg" x="50" y="70" width="677" height="380" style="fill: rgb(0, 0, 0); fill-opacity: 0; stroke-width: 0;"/></g><g class="layer-below"><g class="imagelayer"/><g class="shapelayer"/></g><g class="cartesianlayer"><g class="subplot xy"><g class="layer-subplot"><g class="shapelayer"/><g class="imagelayer"/></g><g class="gridlayer"><g class="x"><path class="xgrid crisp" transform="translate(88.52000000000001,0)" d="M0,70v380" style="stroke: rgb(255, 255, 255); stroke-opacity: 1; stroke-width: 1px;"/><path class="xgrid crisp" transform="translate(159.72,0)" d="M0,70v380" style="stroke: rgb(255, 255, 255); stroke-opacity: 1; stroke-width: 1px;"/><path class="xgrid crisp" transform="translate(228.59,0)" d="M0,70v380" style="stroke: rgb(255, 255, 255); stroke-opacity: 1; stroke-width: 1px;"/><path class="xgrid crisp" transform="translate(299.78999999999996,0)" d="M0,70v380" style="stroke: rgb(255, 255, 255); stroke-opacity: 1; stroke-width: 1px;"/><path class="xgrid crisp" transform="translate(370.99,0)" d="M0,70v380" style="stroke: rgb(255, 255, 255); stroke-opacity: 1; stroke-width: 1px;"/><path class="xgrid crisp" transform="translate(443.36,0)" d="M0,70v380" style="stroke: rgb(255, 255, 255); stroke-opacity: 1; stroke-width: 1px;"/><path class="xgrid crisp" transform="translate(514.56,0)" d="M0,70v380" style="stroke: rgb(255, 255, 255); stroke-opacity: 1; stroke-width: 1px;"/><path class="xgrid crisp" transform="translate(585.76,0)" d="M0,70v380" style="stroke: rgb(255, 255, 255); stroke-opacity: 1; stroke-width: 1px;"/><path class="xgrid crisp" transform="translate(654.63,0)" d="M0,70v380" style="stroke: rgb(255, 255, 255); stroke-opacity: 1; stroke-width: 1px;"/><path class="xgrid crisp" transform="translate(725.83,0)" d="M0,70v380" style="stroke: rgb(255, 255, 255); stroke-opacity: 1; stroke-width: 1px;"/></g><g class="y"/></g><g class="zerolinelayer"/><path class="xlines-below"/><path class="ylines-below"/><g class="overlines-below"/><g class="xaxislayer-below"/><g class="yaxislayer-below"/><g class="overaxes-below"/><g class="plot" transform="translate(50, 70)" clip-path="url('#clip9e8f32xyplot')"><g class="scatterlayer mlayer"><g class="trace scatter trace385875" style="stroke-miterlimit: 2;"><g class="fills"><g><path class="js-fill" d="M657.16,380L-158.74,380L-158.74,379.94L-117.89,380L-116.72,379.94L-51.36,378.87L-50.19,378.56L-44.36,377.74L-43.19,377.62L-32.68,376.49L-31.52,376.11L-21.01,375.55L-19.84,375.3L-15.17,371.03L-14.01,370.97L-11.67,369.53L-10.51,369.84L-7,369.97L-5.84,370.03L-2.33,371.03L-1.17,371.09L0,370.34L1.17,370.72L2.33,370.72L3.5,368.08L7,364.95L8.17,363.57L10.51,362L11.67,359.18L14.01,353.78L15.17,353.22L16.34,351.34L17.51,350.9L18.68,351.46L19.84,349.14L21.01,348.89L22.18,346.51L23.34,346.13L24.51,346.63L26.85,347.26L28.01,344.75L30.35,348.08L31.52,347.45L33.85,347.64L35.02,347.39L36.18,352.53L37.35,352.47L38.52,352.28L39.69,353.72L43.19,355.23L44.36,359.12L45.52,360.62L46.69,365.58L47.86,366.45L49.02,369.15L51.36,369.46L52.53,370.78L53.69,372.72L54.86,371.41L56.03,373.41L57.19,373.41L59.53,373.41L60.7,374.29L63.03,374.1L64.2,374.17L71.2,373.67L72.37,371.97L77.04,372.16L78.21,371.41L79.37,371.97L80.54,373.41L85.21,372.03L86.38,372.41L91.04,373.67L92.21,373.85L94.55,373.67L95.71,373.1L96.88,372.98L98.05,374.29L101.55,372.98L102.72,370.09L103.88,368.02L105.05,367.58L108.55,367.39L109.72,363.19L110.89,364.89L112.06,363.82L113.22,363L114.39,360.18L116.72,360.06L117.89,362.82L120.23,363.76L121.39,364.89L123.73,365.51L124.89,365.45L127.23,364.07L128.4,364.76L131.9,361.69L133.07,361.5L134.23,360.12L135.4,360.18L141.24,362.44L142.4,365.32L149.41,366.01L150.57,365.51L151.74,366.89L152.91,366.64L158.74,367.64L159.91,366.77L164.58,369.65L165.75,369.65L166.92,369.9L168.08,371.22L170.42,370.97L171.58,370.91L173.92,371.03L175.09,372.29L177.42,370.91L178.59,370.47L179.76,371.41L180.92,370.78L182.09,370.91L183.26,370.03L184.42,370.59L185.59,369.71L186.76,370.34L187.93,369.15L190.26,368.77L191.43,368.21L193.76,366.83L194.93,366.83L197.26,365.39L198.43,365.83L200.77,364.63L201.93,365.32L204.27,361.75L205.43,360.87L208.94,359.93L210.1,358.93L211.27,360.43L212.44,360.62L214.77,360.43L215.94,363.57L220.61,360.56L221.78,361.87L222.94,361.75L224.11,358.36L228.78,363.32L229.95,362.88L232.28,362.5L233.45,361.12L235.78,359.3L236.95,359.3L240.45,359.37L241.62,361.69L243.95,364.2L245.12,364.45L246.29,365.83L247.46,365.64L253.29,368.21L254.46,368.15L256.79,369.09L257.96,368.33L259.13,368.27L260.29,370.53L267.3,370.72L268.47,369.4L269.63,370.78L270.8,370.97L271.97,371.16L273.13,373.79L275.47,374.36L276.64,374.42L280.14,375.05L281.31,374.42L284.81,376.68L285.97,377.12L288.31,376.99L289.48,377.37L297.65,379.25L298.81,379.44L310.49,379.37L311.65,379.37L322.16,378.18L323.33,377.62L325.66,376.61L326.83,375.42L329.16,374.98L330.33,372.91L331.5,371.6L332.66,372.35L335,367.58L336.17,366.7L337.33,366.33L338.5,364.38L339.67,362.06L340.83,357.86L342,357.74L343.17,356.23L346.67,353.16L347.84,350.9L349.01,350.9L350.17,351.97L351.34,350.84L352.51,351.78L354.84,351.78L356.01,353.16L357.18,352.91L358.34,351.65L359.51,353.47L360.68,352.78L361.84,352.72L363.01,350.4L365.35,349.08L366.51,347.01L367.68,344.69L368.85,344.06L371.18,344.13L372.35,342.68L373.52,342.24L374.68,343.94L375.85,343.94L377.02,344.82L378.19,344.94L379.35,347.32L382.86,352.4L384.02,354.98L386.36,355.04L387.52,356.04L388.69,357.99L389.86,358.36L393.36,360.24L394.53,360.31L396.86,362.5L398.03,363.13L399.2,363.44L400.36,365.14L403.87,365.32L405.03,366.89L410.87,368.46L412.04,370.84L413.2,370.78L414.37,371.6L416.71,373.1L417.87,373.23L421.37,373.54L422.54,374.29L426.04,375.92L427.21,375.86L430.71,376.68L431.88,376.05L437.72,376.11L438.88,374.79L448.22,377.05L449.39,376.68L455.22,376.74L456.39,376.55L459.89,375.11L461.06,375.55L466.9,371.91L468.06,371.85L470.4,366.7L471.57,365.32L472.73,366.39L473.9,365.07L476.23,365.45L477.4,363.57L478.57,363.44L479.74,362L480.9,358.24L482.07,357.3L484.41,356.29L485.57,354.47L487.91,350.71L489.07,349.14L491.41,345.88L492.58,345.82L497.24,334.91L498.41,333.34L499.58,331.65L500.75,331.39L503.08,325.62L504.25,322.99L506.58,318.85L507.75,319.23L510.08,318.35L511.25,319.16L512.42,321.17L513.59,321.11L514.75,322.49L515.92,322.61L517.09,322.93L518.26,325.81L519.42,327.07L520.59,326.63L521.76,325L522.92,325.88L524.09,329.83L525.26,328.76L531.09,282.1L532.26,281.66L533.43,280.72L534.6,263.66L540.43,225.65L541.6,225.09L543.93,208.72L545.1,198.94L546.27,191.29L547.44,177.17L548.6,164.32L549.77,163.56L555.61,55.88L556.77,47.79L557.94,44.84L559.11,20.19L561.44,5.96L562.61,0L564.94,1.57L566.11,2.32L569.61,32.11L570.78,50.17L573.12,73.19L574.28,72.63L578.95,154.28L580.12,168.21L582.45,179.31L583.62,203.2L588.29,247.98L589.46,253.31L590.62,254.63L591.79,271.12L596.46,302.48L597.63,306.87L598.79,307.5L599.96,312.71L601.13,316.72L602.3,313.77L604.63,317.6L605.8,317.79L606.97,317.6L608.13,319.16L609.3,321.23L610.47,325.88L612.8,326.44L613.97,327.32L615.14,327.19L616.3,323.3L617.47,322.43L618.64,319.1L623.31,311.01L624.47,304.61L626.81,289.56L627.98,283.23L630.31,275.58L631.48,275.95L632.64,266.92L633.81,265.73L636.15,261.28L637.31,261.72L639.65,261.59L640.82,266.55L641.98,262.78L643.15,264.6L645.48,256.2L646.65,255.26L647.82,255.44L648.99,250.11L650.15,250.74L651.32,252.25L653.66,259.02L654.82,259.02L655.99,258.33L657.16,289.12" style="fill: rgb(8, 115, 191); fill-opacity: 0.2; stroke-width: 0;"/></g></g><g class="errorbars"/><g class="lines"><path class="js-line" d="M-158.74,379.94L-117.89,380L-116.72,379.94L-51.36,378.87L-50.19,378.56L-44.36,377.74L-43.19,377.62L-32.68,376.49L-31.52,376.11L-21.01,375.55L-19.84,375.3L-15.17,371.03L-14.01,370.97L-11.67,369.53L-10.51,369.84L-7,369.97L-5.84,370.03L-2.33,371.03L-1.17,371.09L0,370.34L1.17,370.72L2.33,370.72L3.5,368.08L7,364.95L8.17,363.57L10.51,362L11.67,359.18L14.01,353.78L15.17,353.22L16.34,351.34L17.51,350.9L18.68,351.46L19.84,349.14L21.01,348.89L22.18,346.51L23.34,346.13L24.51,346.63L26.85,347.26L28.01,344.75L30.35,348.08L31.52,347.45L33.85,347.64L35.02,347.39L36.18,352.53L37.35,352.47L38.52,352.28L39.69,353.72L43.19,355.23L44.36,359.12L45.52,360.62L46.69,365.58L47.86,366.45L49.02,369.15L51.36,369.46L52.53,370.78L53.69,372.72L54.86,371.41L56.03,373.41L57.19,373.41L59.53,373.41L60.7,374.29L63.03,374.1L64.2,374.17L71.2,373.67L72.37,371.97L77.04,372.16L78.21,371.41L79.37,371.97L80.54,373.41L85.21,372.03L86.38,372.41L91.04,373.67L92.21,373.85L94.55,373.67L95.71,373.1L96.88,372.98L98.05,374.29L101.55,372.98L102.72,370.09L103.88,368.02L105.05,367.58L108.55,367.39L109.72,363.19L110.89,364.89L112.06,363.82L113.22,363L114.39,360.18L116.72,360.06L117.89,362.82L120.23,363.76L121.39,364.89L123.73,365.51L124.89,365.45L127.23,364.07L128.4,364.76L131.9,361.69L133.07,361.5L134.23,360.12L135.4,360.18L141.24,362.44L142.4,365.32L149.41,366.01L150.57,365.51L151.74,366.89L152.91,366.64L158.74,367.64L159.91,366.77L164.58,369.65L165.75,369.65L166.92,369.9L168.08,371.22L170.42,370.97L171.58,370.91L173.92,371.03L175.09,372.29L177.42,370.91L178.59,370.47L179.76,371.41L180.92,370.78L182.09,370.91L183.26,370.03L184.42,370.59L185.59,369.71L186.76,370.34L187.93,369.15L190.26,368.77L191.43,368.21L193.76,366.83L194.93,366.83L197.26,365.39L198.43,365.83L200.77,364.63L201.93,365.32L204.27,361.75L205.43,360.87L208.94,359.93L210.1,358.93L211.27,360.43L212.44,360.62L214.77,360.43L215.94,363.57L220.61,360.56L221.78,361.87L222.94,361.75L224.11,358.36L228.78,363.32L229.95,362.88L232.28,362.5L233.45,361.12L235.78,359.3L236.95,359.3L240.45,359.37L241.62,361.69L243.95,364.2L245.12,364.45L246.29,365.83L247.46,365.64L253.29,368.21L254.46,368.15L256.79,369.09L257.96,368.33L259.13,368.27L260.29,370.53L267.3,370.72L268.47,369.4L269.63,370.78L270.8,370.97L271.97,371.16L273.13,373.79L275.47,374.36L276.64,374.42L280.14,375.05L281.31,374.42L284.81,376.68L285.97,377.12L288.31,376.99L289.48,377.37L297.65,379.25L298.81,379.44L310.49,379.37L311.65,379.37L322.16,378.18L323.33,377.62L325.66,376.61L326.83,375.42L329.16,374.98L330.33,372.91L331.5,371.6L332.66,372.35L335,367.58L336.17,366.7L337.33,366.33L338.5,364.38L339.67,362.06L340.83,357.86L342,357.74L343.17,356.23L346.67,353.16L347.84,350.9L349.01,350.9L350.17,351.97L351.34,350.84L352.51,351.78L354.84,351.78L356.01,353.16L357.18,352.91L358.34,351.65L359.51,353.47L360.68,352.78L361.84,352.72L363.01,350.4L365.35,349.08L366.51,347.01L367.68,344.69L368.85,344.06L371.18,344.13L372.35,342.68L373.52,342.24L374.68,343.94L375.85,343.94L377.02,344.82L378.19,344.94L379.35,347.32L382.86,352.4L384.02,354.98L386.36,355.04L387.52,356.04L388.69,357.99L389.86,358.36L393.36,360.24L394.53,360.31L396.86,362.5L398.03,363.13L399.2,363.44L400.36,365.14L403.87,365.32L405.03,366.89L410.87,368.46L412.04,370.84L413.2,370.78L414.37,371.6L416.71,373.1L417.87,373.23L421.37,373.54L422.54,374.29L426.04,375.92L427.21,375.86L430.71,376.68L431.88,376.05L437.72,376.11L438.88,374.79L448.22,377.05L449.39,376.68L455.22,376.74L456.39,376.55L459.89,375.11L461.06,375.55L466.9,371.91L468.06,371.85L470.4,366.7L471.57,365.32L472.73,366.39L473.9,365.07L476.23,365.45L477.4,363.57L478.57,363.44L479.74,362L480.9,358.24L482.07,357.3L484.41,356.29L485.57,354.47L487.91,350.71L489.07,349.14L491.41,345.88L492.58,345.82L497.24,334.91L498.41,333.34L499.58,331.65L500.75,331.39L503.08,325.62L504.25,322.99L506.58,318.85L507.75,319.23L510.08,318.35L511.25,319.16L512.42,321.17L513.59,321.11L514.75,322.49L515.92,322.61L517.09,322.93L518.26,325.81L519.42,327.07L520.59,326.63L521.76,325L522.92,325.88L524.09,329.83L525.26,328.76L531.09,282.1L532.26,281.66L533.43,280.72L534.6,263.66L540.43,225.65L541.6,225.09L543.93,208.72L545.1,198.94L546.27,191.29L547.44,177.17L548.6,164.32L549.77,163.56L555.61,55.88L556.77,47.79L557.94,44.84L559.11,20.19L561.44,5.96L562.61,0L564.94,1.57L566.11,2.32L569.61,32.11L570.78,50.17L573.12,73.19L574.28,72.63L578.95,154.28L580.12,168.21L582.45,179.31L583.62,203.2L588.29,247.98L589.46,253.31L590.62,254.63L591.79,271.12L596.46,302.48L597.63,306.87L598.79,307.5L599.96,312.71L601.13,316.72L602.3,313.77L604.63,317.6L605.8,317.79L606.97,317.6L608.13,319.16L609.3,321.23L610.47,325.88L612.8,326.44L613.97,327.32L615.14,327.19L616.3,323.3L617.47,322.43L618.64,319.1L623.31,311.01L624.47,304.61L626.81,289.56L627.98,283.23L630.31,275.58L631.48,275.95L632.64,266.92L633.81,265.73L636.15,261.28L637.31,261.72L639.65,261.59L640.82,266.55L641.98,262.78L643.15,264.6L645.48,256.2L646.65,255.26L647.82,255.44L648.99,250.11L650.15,250.74L651.32,252.25L653.66,259.02L654.82,259.02L655.99,258.33L657.16,289.12" style="vector-effect: non-scaling-stroke; fill: none; stroke: rgb(8, 115, 191); stroke-opacity: 1; stroke-width: 0.5px; opacity: 1;"/></g><g class="points"/><g class="text"/></g><g class="trace scatter trace9bda29" style="stroke-miterlimit: 2;"><g class="fills"><g><path class="js-fill" d="M668.83,380L657.16,380L657.16,289.12L658.32,284.11L659.49,285.86L661.83,296.71L662.99,301.92L664.16,303.17L665.33,287.18L667.66,308.75L668.83,313.83" style="fill: rgb(8, 115, 191); fill-opacity: 0.4; stroke-width: 0;"/></g></g><g class="errorbars"/><g class="lines"><path class="js-line" d="M657.16,289.12L658.32,284.11L659.49,285.86L661.83,296.71L662.99,301.92L664.16,303.17L665.33,287.18L667.66,308.75L668.83,313.83" style="vector-effect: non-scaling-stroke; fill: none; stroke: rgb(8, 115, 191); stroke-opacity: 1; stroke-width: 2px; opacity: 1;"/></g><g class="points"/><g class="text"/></g><g class="trace scatter trace0dedb6" style="stroke-miterlimit: 2; opacity: 1;"><g class="fills"/><g class="errorbars"/><g class="lines"/><g class="points"><path class="point" transform="translate(668.83,313.83)" d="M15,0A15,15 0 1,1 0,-15A15,15 0 0,1 15,0Z" style="opacity: 1; stroke-width: 0px; fill: rgb(8, 115, 191); fill-opacity: 1;"/></g><g class="text"/></g></g></g><g class="overplot"/><path class="xlines-above crisp" style="fill: none; stroke-width: 1px; stroke: rgb(0, 0, 0); stroke-opacity: 0;" d=""/><path class="ylines-above crisp" style="fill: none;" d="M0,0"/><g class="overlines-above"/><g class="xaxislayer-above"><path class="xtick ticks crisp" d="M0,450v-5" transform="translate(88.52000000000001,0)" style="stroke: rgb(68, 68, 68); stroke-opacity: 1; stroke-width: 1px;"/><path class="xtick ticks crisp" d="M0,450v-5" transform="translate(159.72,0)" style="stroke: rgb(68, 68, 68); stroke-opacity: 1; stroke-width: 1px;"/><path class="xtick ticks crisp" d="M0,450v-5" transform="translate(228.59,0)" style="stroke: rgb(68, 68, 68); stroke-opacity: 1; stroke-width: 1px;"/><path class="xtick ticks crisp" d="M0,450v-5" transform="translate(299.78999999999996,0)" style="stroke: rgb(68, 68, 68); stroke-opacity: 1; stroke-width: 1px;"/><path class="xtick ticks crisp" d="M0,450v-5" transform="translate(370.99,0)" style="stroke: rgb(68, 68, 68); stroke-opacity: 1; stroke-width: 1px;"/><path class="xtick ticks crisp" d="M0,450v-5" transform="translate(443.36,0)" style="stroke: rgb(68, 68, 68); stroke-opacity: 1; stroke-width: 1px;"/><path class="xtick ticks crisp" d="M0,450v-5" transform="translate(514.56,0)" style="stroke: rgb(68, 68, 68); stroke-opacity: 1; stroke-width: 1px;"/><path class="xtick ticks crisp" d="M0,450v-5" transform="translate(585.76,0)" style="stroke: rgb(68, 68, 68); stroke-opacity: 1; stroke-width: 1px;"/><path class="xtick ticks crisp" d="M0,450v-5" transform="translate(654.63,0)" style="stroke: rgb(68, 68, 68); stroke-opacity: 1; stroke-width: 1px;"/><path class="xtick ticks crisp" d="M0,450v-5" transform="translate(725.83,0)" style="stroke: rgb(68, 68, 68); stroke-opacity: 1; stroke-width: 1px;"/><g class="xtick"><text text-anchor="middle" x="0" y="469" transform="translate(88.52000000000001,0)" style="font-family: 'Open Sans', verdana, arial, sans-serif; font-size: 18px; fill: rgb(42, 63, 95); fill-opacity: 1; white-space: pre;">01/11</text></g><g class="xtick"><text text-anchor="middle" x="0" y="469" transform="translate(159.72,0)" style="font-family: 'Open Sans', verdana, arial, sans-serif; font-size: 18px; fill: rgb(42, 63, 95); fill-opacity: 1; white-space: pre;">01/01</text></g><g class="xtick"><text text-anchor="middle" x="0" y="469" transform="translate(228.59,0)" style="font-family: 'Open Sans', verdana, arial, sans-serif; font-size: 18px; fill: rgb(42, 63, 95); fill-opacity: 1; white-space: pre;">01/03</text></g><g class="xtick"><text text-anchor="middle" x="0" y="469" transform="translate(299.78999999999996,0)" style="font-family: 'Open Sans', verdana, arial, sans-serif; font-size: 18px; fill: rgb(42, 63, 95); fill-opacity: 1; white-space: pre;">01/05</text></g><g class="xtick"><text text-anchor="middle" x="0" y="469" transform="translate(370.99,0)" style="font-family: 'Open Sans', verdana, arial, sans-serif; font-size: 18px; fill: rgb(42, 63, 95); fill-opacity: 1; white-space: pre;">01/07</text></g><g class="xtick"><text text-anchor="middle" x="0" y="469" transform="translate(443.36,0)" style="font-family: 'Open Sans', verdana, arial, sans-serif; font-size: 18px; fill: rgb(42, 63, 95); fill-opacity: 1; white-space: pre;">01/09</text></g><g class="xtick"><text text-anchor="middle" x="0" y="469" transform="translate(514.56,0)" style="font-family: 'Open Sans', verdana, arial, sans-serif; font-size: 18px; fill: rgb(42, 63, 95); fill-opacity: 1; white-space: pre;">01/11</text></g><g class="xtick"><text text-anchor="middle" x="0" y="469" transform="translate(585.76,0)" style="font-family: 'Open Sans', verdana, arial, sans-serif; font-size: 18px; fill: rgb(42, 63, 95); fill-opacity: 1; white-space: pre;">01/01</text></g><g class="xtick"><text text-anchor="middle" x="0" y="469" transform="translate(654.63,0)" style="font-family: 'Open Sans', verdana, arial, sans-serif; font-size: 18px; fill: rgb(42, 63, 95); fill-opacity: 1; white-space: pre;">01/03</text></g><g class="xtick"><text text-anchor="middle" x="0" y="469" transform="translate(725.83,0)" style="font-family: 'Open Sans', verdana, arial, sans-serif; font-size: 18px; fill: rgb(42, 63, 95); fill-opacity: 1; white-space: pre;">01/05</text></g></g><g class="yaxislayer-above"/><g class="overaxes-above"/></g></g><g class="polarlayer"/><g class="ternarylayer"/><g class="geolayer"/><g class="funnelarealayer"/><g class="pielayer"/><g class="treemaplayer"/><g class="sunburstlayer"/><g class="glimages"/><defs id="topdefs-9e8f32"><g class="clips"/></defs><g class="layer-above"><g class="imagelayer"/><g class="shapelayer"><path data-index="0" fill-rule="evenodd" d="M-605.99,445.22L247.26,445.22" clip-path="url('#clip9e8f32xy')" style="opacity: 1; stroke: rgb(255, 0, 0); stroke-opacity: 1; fill: rgb(0, 0, 0); fill-opacity: 0; stroke-dasharray: 3px, 3px; stroke-width: 1.5px;"/></g></g><g class="infolayer"><g class="g-gtitle"><text class="gtitle" x="375" y="25" text-anchor="middle" dy="0.7em" style="font-family: 'Open Sans', verdana, arial, sans-serif; font-size: 50px; fill: rgb(42, 63, 95); opacity: 1; font-weight: normal; white-space: pre;"><tspan style="font-weight:bold">Ariège (09)</tspan></text></g><g class="g-xtitle"/><g class="annotation" data-index="0" style="opacity: 1;"><g class="annotation-text-g" transform="rotate(0,676.83,323.83)"><g class="cursor-pointer" transform="translate(619, 288)"><rect class="bg" x="0.5" y="0.5" width="115" height="71" style="stroke-width: 1px; stroke: rgb(0, 0, 0); stroke-opacity: 0; fill: rgb(255, 255, 255); fill-opacity: 0.6;"/><text class="annotation-text" text-anchor="middle" x="57.8125" y="55.5" style="font-family: 'Open Sans', verdana, arial, sans-serif; font-size: 50px; fill: rgb(8, 115, 191); fill-opacity: 1; white-space: pre;"> <tspan style="font-weight:bold">692 </tspan></text></g></g><g class="annotation-arrow-g" style="opacity: 1;"><path d="M705.23,359.33L716.83,373.83" style="stroke-width: 1px; stroke: rgb(8, 115, 191); stroke-opacity: 1; stroke-dasharray: 0px, 0px, 18.5691px, 18.5691px;"/></g></g></g></svg>