<svg class="main-svg" xmlns="http://www.w3.org/2000/svg" xmlns:xlink="http://www.w3.org/1999/xlink" width="1125" height="750" style="" viewBox="0 0 750 500"><rect x="0" y="0" width="750" height="500" style="fill: rgb(0, 0, 0); fill-opacity: 0;"/><defs id="defs-60dd16"><g class="clips"><clipPath id="clip60dd16xyplot" class="plotclip"><rect width="677" height="380"/></clipPath><clipPath class="axesclip" id="clip60dd16x"><rect x="50" y="0" width="677" height="500"/></clipPath><clipPath class="axesclip" id="clip60dd16y"><rect x="0" y="70" width="750" height="380"/></clipPath><clipPath class="axesclip" id="clip60dd16xy"><rect x="50" y="70" width="677" height="380"/></clipPath></g><g class="gradients"/></defs><g class="bglayer"><rect class="bg" x="50" y="70" width="677" height="380" style="fill: rgb(0, 0, 0); fill-opacity: 0; stroke-width: 0;"/></g><g class="layer-below"><g class="imagelayer"/><g class="shapelayer"/></g><g class="cartesianlayer"><g class="subplot xy"><g class="layer-subplot"><g class="shapelayer"/><g class="imagelayer"/></g><g class="gridlayer"><g class="x"><path class="xgrid crisp" transform="translate(88.52000000000001,0)" d="M0,70v380" style="stroke: rgb(255, 255, 255); stroke-opacity: 1; stroke-width: 1px;"/><path class="xgrid crisp" transform="translate(159.72,0)" d="M0,70v380" style="stroke: rgb(255, 255, 255); stroke-opacity: 1; stroke-width: 1px;"/><path class="xgrid crisp" transform="translate(228.59,0)" d="M0,70v380" style="stroke: rgb(255, 255, 255); stroke-opacity: 1; stroke-width: 1px;"/><path class="xgrid crisp" transform="translate(299.78999999999996,0)" d="M0,70v380" style="stroke: rgb(255, 255, 255); stroke-opacity: 1; stroke-width: 1px;"/><path class="xgrid crisp" transform="translate(370.99,0)" d="M0,70v380" style="stroke: rgb(255, 255, 255); stroke-opacity: 1; stroke-width: 1px;"/><path class="xgrid crisp" transform="translate(443.36,0)" d="M0,70v380" style="stroke: rgb(255, 255, 255); stroke-opacity: 1; stroke-width: 1px;"/><path class="xgrid crisp" transform="translate(514.56,0)" d="M0,70v380" style="stroke: rgb(255, 255, 255); stroke-opacity: 1; stroke-width: 1px;"/><path class="xgrid crisp" transform="translate(585.76,0)" d="M0,70v380" style="stroke: rgb(255, 255, 255); stroke-opacity: 1; stroke-width: 1px;"/><path class="xgrid crisp" transform="translate(654.63,0)" d="M0,70v380" style="stroke: rgb(255, 255, 255); stroke-opacity: 1; stroke-width: 1px;"/><path class="xgrid crisp" transform="translate(725.83,0)" d="M0,70v380" style="stroke: rgb(255, 255, 255); stroke-opacity: 1; stroke-width: 1px;"/></g><g class="y"/></g><g class="zerolinelayer"/><path class="xlines-below"/><path class="ylines-below"/><g class="overlines-below"/><g class="xaxislayer-below"/><g class="yaxislayer-below"/><g class="overaxes-below"/><g class="plot" transform="translate(50, 70)" clip-path="url('#clip60dd16xyplot')"><g class="scatterlayer mlayer"><g class="trace scatter tracec820d0" style="stroke-miterlimit: 2;"><g class="fills"><g><path class="js-fill" d="M657.16,380L-158.74,380L-158.74,379.26L-127.23,379.59L-126.06,379.65L-77.04,379.05L-75.87,379.29L-40.85,378.61L-39.69,378.47L-15.17,378.06L-14.01,378.09L-2.33,378.17L-1.17,377.85L5.84,376.59L7,376.07L9.34,374.52L10.51,374.44L14.01,370.51L15.17,368.76L18.68,366.47L19.84,363.34L23.34,355.84L24.51,352.13L26.85,351.58L28.01,346.81L30.35,342.23L31.52,341.35L33.85,338.52L35.02,338.14L38.52,334.54L39.69,334.84L42.02,336.8L43.19,337.1L44.36,341.35L45.52,342.2L46.69,348.55L47.86,348.99L50.19,351.96L51.36,352.15L52.53,353.87L53.69,358.26L54.86,356.74L56.03,359.9L57.19,362.33L58.36,362.93L59.53,362.87L60.7,365.98L61.86,367.32L63.03,367.43L67.7,367.1L68.87,365.27L74.7,360.91L75.87,360.83L77.04,360.34L78.21,358.43L80.54,356.05L81.71,355.13L84.04,354.47L85.21,352.32L87.54,349.48L88.71,350.14L91.04,347.79L92.21,347.14L93.38,348.09L94.55,350.27L96.88,351.36L98.05,356.68L100.38,358.48L101.55,358.56L103.88,358.29L105.05,358.67L106.22,358.64L107.39,357.61L109.72,357.83L110.89,358.78L113.22,359.87L114.39,356.46L116.72,357.64L117.89,358.04L122.56,361.15L123.73,361.15L127.23,361.7L128.4,361.21L133.07,361.35L134.23,361.81L138.9,363.64L140.07,363.61L142.4,363.47L143.57,364.21L147.07,364.54L148.24,364.37L150.57,364.54L151.74,364.75L159.91,370.37L161.08,370.21L164.58,370.24L165.75,370.18L170.42,370.75L171.58,371.03L175.09,371.08L176.25,371.11L178.59,370.62L179.76,369.09L183.26,368.08L184.42,367.21L189.09,366.5L190.26,366.17L191.43,365.27L192.59,365.6L196.1,363.36L197.26,363.5L198.43,363.64L199.6,362.44L200.77,359.35L201.93,358.51L205.43,352.02L206.6,352.1L207.77,350.22L208.94,350.03L211.27,349.18L212.44,350.33L214.77,349.89L215.94,356.05L218.27,353.87L219.44,353.76L221.78,353.14L222.94,353.22L224.11,347.05L225.28,348.91L227.61,351.06L228.78,351.85L235.78,356L236.95,356.54L245.12,362.41L246.29,364.24L247.46,364.05L248.62,365.19L250.96,366.66L252.12,366.96L254.46,367.43L255.63,367.59L259.13,368.08L260.29,370.24L263.8,368.41L264.96,369.12L267.3,369.99L268.47,368.95L270.8,370.1L271.97,370.1L273.13,372.2L274.3,371.6L277.8,371.63L278.97,372.06L280.14,372.2L281.31,370.81L283.64,371.93L284.81,372.25L287.14,373.73L288.31,373.7L292.98,376.43L294.14,376.56L299.98,377.05L301.15,377.33L305.82,377.79L306.98,378.23L320.99,379.24L322.16,379.15L333.83,377.71L335,377.25L337.33,377L338.5,375.66L342,370.89L343.17,368.19L346.67,365.41L347.84,364.75L350.17,364.92L351.34,366.61L353.67,366.66L354.84,367.54L360.68,369.66L361.84,369.31L370.02,367.73L371.18,368.16L373.52,368.85L374.68,369.5L377.02,370.4L378.19,370.59L379.35,370.29L380.52,371.03L384.02,371.55L385.19,371.9L386.36,371.93L387.52,372.85L389.86,372.58L391.03,372.09L395.69,372.42L396.86,372.47L401.53,374.16L402.7,374.38L405.03,375.34L406.2,375.69L419.04,376.21L420.21,376.75L428.38,378.72L429.54,378.75L441.22,378.45L442.38,378.53L451.72,378.28L452.89,378.01L461.06,378.04L462.23,377.52L469.23,376.21L470.4,375.94L471.57,375.58L472.73,376.15L475.07,374.38L476.23,374.27L478.57,372.15L479.74,371.14L482.07,367.81L483.24,367.24L484.41,367.29L485.57,366.5L491.41,356.57L492.58,356.41L494.91,351.8L496.08,350.52L499.58,346.02L500.75,345.83L503.08,343.78L504.25,343.81L505.42,345.5L506.58,345.25L508.92,345.64L510.08,345.94L517.09,347.14L518.26,348.09L519.42,349.18L520.59,348.42L522.92,346.4L524.09,349.26L525.26,348.28L526.43,340.67L531.09,304.59L532.26,304.67L533.43,302.38L534.6,276.17L538.1,236.02L539.27,227.46L540.43,208.48L541.6,207L543.93,195.9L545.1,191.38L547.44,166.01L548.6,153.99L549.77,152.73L550.94,124.86L556.77,33.44L557.94,30.11L560.28,3.68L561.44,0L562.61,1.69L563.78,5.4L564.94,9.79L566.11,10.06L570.78,54.16L571.95,72.25L574.28,89.43L575.45,129.28L580.12,207.39L581.29,219.85L582.45,220.86L583.62,238.81L587.12,269.02L588.29,276.28L589.46,281.52L590.62,282.61L594.13,297.2L595.29,298.97L601.13,309.99L602.3,311.49L604.63,316.21L605.8,316.73L608.13,317.03L609.3,317.43L612.8,307.83L613.97,303.66L615.14,302.76L616.3,294.33L620.97,276.93L622.14,273.58L623.31,272.76L624.47,264.28L627.98,247.81L629.14,243.55L630.31,239.9L631.48,240.8L632.64,241.37L633.81,240.85L634.98,239.76L636.15,240.82L637.31,240.41L638.48,244.29L640.82,244.56L641.98,245.16L643.15,247.89L644.32,247.18L645.48,249.91L646.65,249.85L647.82,250.78L648.99,255.85L653.66,274.42L654.82,277.18L655.99,276.96L657.16,302.6" style="fill: rgb(8, 115, 191); fill-opacity: 0.2; stroke-width: 0;"/></g></g><g class="errorbars"/><g class="lines"><path class="js-line" d="M-158.74,379.26L-127.23,379.59L-126.06,379.65L-77.04,379.05L-75.87,379.29L-40.85,378.61L-39.69,378.47L-15.17,378.06L-14.01,378.09L-2.33,378.17L-1.17,377.85L5.84,376.59L7,376.07L9.34,374.52L10.51,374.44L14.01,370.51L15.17,368.76L18.68,366.47L19.84,363.34L23.34,355.84L24.51,352.13L26.85,351.58L28.01,346.81L30.35,342.23L31.52,341.35L33.85,338.52L35.02,338.14L38.52,334.54L39.69,334.84L42.02,336.8L43.19,337.1L44.36,341.35L45.52,342.2L46.69,348.55L47.86,348.99L50.19,351.96L51.36,352.15L52.53,353.87L53.69,358.26L54.86,356.74L56.03,359.9L57.19,362.33L58.36,362.93L59.53,362.87L60.7,365.98L61.86,367.32L63.03,367.43L67.7,367.1L68.87,365.27L74.7,360.91L75.87,360.83L77.04,360.34L78.21,358.43L80.54,356.05L81.71,355.13L84.04,354.47L85.21,352.32L87.54,349.48L88.71,350.14L91.04,347.79L92.21,347.14L93.38,348.09L94.55,350.27L96.88,351.36L98.05,356.68L100.38,358.48L101.55,358.56L103.88,358.29L105.05,358.67L106.22,358.64L107.39,357.61L109.72,357.83L110.89,358.78L113.22,359.87L114.39,356.46L116.72,357.64L117.89,358.04L122.56,361.15L123.73,361.15L127.23,361.7L128.4,361.21L133.07,361.35L134.23,361.81L138.9,363.64L140.07,363.61L142.4,363.47L143.57,364.21L147.07,364.54L148.24,364.37L150.57,364.54L151.74,364.75L159.91,370.37L161.08,370.21L164.58,370.24L165.75,370.18L170.42,370.75L171.58,371.03L175.09,371.08L176.25,371.11L178.59,370.62L179.76,369.09L183.26,368.08L184.42,367.21L189.09,366.5L190.26,366.17L191.43,365.27L192.59,365.6L196.1,363.36L197.26,363.5L198.43,363.64L199.6,362.44L200.77,359.35L201.93,358.51L205.43,352.02L206.6,352.1L207.77,350.22L208.94,350.03L211.27,349.18L212.44,350.33L214.77,349.89L215.94,356.05L218.27,353.87L219.44,353.76L221.78,353.14L222.94,353.22L224.11,347.05L225.28,348.91L227.61,351.06L228.78,351.85L235.78,356L236.95,356.54L245.12,362.41L246.29,364.24L247.46,364.05L248.62,365.19L250.96,366.66L252.12,366.96L254.46,367.43L255.63,367.59L259.13,368.08L260.29,370.24L263.8,368.41L264.96,369.12L267.3,369.99L268.47,368.95L270.8,370.1L271.97,370.1L273.13,372.2L274.3,371.6L277.8,371.63L278.97,372.06L280.14,372.2L281.31,370.81L283.64,371.93L284.81,372.25L287.14,373.73L288.31,373.7L292.98,376.43L294.14,376.56L299.98,377.05L301.15,377.33L305.82,377.79L306.98,378.23L320.99,379.24L322.16,379.15L333.83,377.71L335,377.25L337.33,377L338.5,375.66L342,370.89L343.17,368.19L346.67,365.41L347.84,364.75L350.17,364.92L351.34,366.61L353.67,366.66L354.84,367.54L360.68,369.66L361.84,369.31L370.02,367.73L371.18,368.16L373.52,368.85L374.68,369.5L377.02,370.4L378.19,370.59L379.35,370.29L380.52,371.03L384.02,371.55L385.19,371.9L386.36,371.93L387.52,372.85L389.86,372.58L391.03,372.09L395.69,372.42L396.86,372.47L401.53,374.16L402.7,374.38L405.03,375.34L406.2,375.69L419.04,376.21L420.21,376.75L428.38,378.72L429.54,378.75L441.22,378.45L442.38,378.53L451.72,378.28L452.89,378.01L461.06,378.04L462.23,377.52L469.23,376.21L470.4,375.94L471.57,375.58L472.73,376.15L475.07,374.38L476.23,374.27L478.57,372.15L479.74,371.14L482.07,367.81L483.24,367.24L484.41,367.29L485.57,366.5L491.41,356.57L492.58,356.41L494.91,351.8L496.08,350.52L499.58,346.02L500.75,345.83L503.08,343.78L504.25,343.81L505.42,345.5L506.58,345.25L508.92,345.64L510.08,345.94L517.09,347.14L518.26,348.09L519.42,349.18L520.59,348.42L522.92,346.4L524.09,349.26L525.26,348.28L526.43,340.67L531.09,304.59L532.26,304.67L533.43,302.38L534.6,276.17L538.1,236.02L539.27,227.46L540.43,208.48L541.6,207L543.93,195.9L545.1,191.38L547.44,166.01L548.6,153.99L549.77,152.73L550.94,124.86L556.77,33.44L557.94,30.11L560.28,3.68L561.44,0L562.61,1.69L563.78,5.4L564.94,9.79L566.11,10.06L570.78,54.16L571.95,72.25L574.28,89.43L575.45,129.28L580.12,207.39L581.29,219.85L582.45,220.86L583.62,238.81L587.12,269.02L588.29,276.28L589.46,281.52L590.62,282.61L594.13,297.2L595.29,298.97L601.13,309.99L602.3,311.49L604.63,316.21L605.8,316.73L608.13,317.03L609.3,317.43L612.8,307.83L613.97,303.66L615.14,302.76L616.3,294.33L620.97,276.93L622.14,273.58L623.31,272.76L624.47,264.28L627.98,247.81L629.14,243.55L630.31,239.9L631.48,240.8L632.64,241.37L633.81,240.85L634.98,239.76L636.15,240.82L637.31,240.41L638.48,244.29L640.82,244.56L641.98,245.16L643.15,247.89L644.32,247.18L645.48,249.91L646.65,249.85L647.82,250.78L648.99,255.85L653.66,274.42L654.82,277.18L655.99,276.96L657.16,302.6" style="vector-effect: non-scaling-stroke; fill: none; stroke: rgb(8, 115, 191); stroke-opacity: 1; stroke-width: 0.5px; opacity: 1;"/></g><g class="points"/><g class="text"/></g><g class="trace scatter trace943c52" style="stroke-miterlimit: 2;"><g class="fills"><g><path class="js-fill" d="M668.83,380L657.16,380L657.16,302.6L658.32,297.88L659.49,301.07L662.99,311.46L664.16,312.39L665.33,299.33L666.49,311.95L668.83,319.02" style="fill: rgb(8, 115, 191); fill-opacity: 0.4; stroke-width: 0;"/></g></g><g class="errorbars"/><g class="lines"><path class="js-line" d="M657.16,302.6L658.32,297.88L659.49,301.07L662.99,311.46L664.16,312.39L665.33,299.33L666.49,311.95L668.83,319.02" style="vector-effect: non-scaling-stroke; fill: none; stroke: rgb(8, 115, 191); stroke-opacity: 1; stroke-width: 2px; opacity: 1;"/></g><g class="points"/><g class="text"/></g><g class="trace scatter tracedd28c9" style="stroke-miterlimit: 2; opacity: 1;"><g class="fills"/><g class="errorbars"/><g class="lines"/><g class="points"><path class="point" transform="translate(668.83,319.02)" d="M15,0A15,15 0 1,1 0,-15A15,15 0 0,1 15,0Z" style="opacity: 1; stroke-width: 0px; fill: rgb(8, 115, 191); fill-opacity: 1;"/></g><g class="text"/></g></g></g><g class="overplot"/><path class="xlines-above crisp" style="fill: none; stroke-width: 1px; stroke: rgb(0, 0, 0); stroke-opacity: 0;" d=""/><path class="ylines-above crisp" style="fill: none;" d="M0,0"/><g class="overlines-above"/><g class="xaxislayer-above"><path class="xtick ticks crisp" d="M0,450v-5" transform="translate(88.52000000000001,0)" style="stroke: rgb(68, 68, 68); stroke-opacity: 1; stroke-width: 1px;"/><path class="xtick ticks crisp" d="M0,450v-5" transform="translate(159.72,0)" style="stroke: rgb(68, 68, 68); stroke-opacity: 1; stroke-width: 1px;"/><path class="xtick ticks crisp" d="M0,450v-5" transform="translate(228.59,0)" style="stroke: rgb(68, 68, 68); stroke-opacity: 1; stroke-width: 1px;"/><path class="xtick ticks crisp" d="M0,450v-5" transform="translate(299.78999999999996,0)" style="stroke: rgb(68, 68, 68); stroke-opacity: 1; stroke-width: 1px;"/><path class="xtick ticks crisp" d="M0,450v-5" transform="translate(370.99,0)" style="stroke: rgb(68, 68, 68); stroke-opacity: 1; stroke-width: 1px;"/><path class="xtick ticks crisp" d="M0,450v-5" transform="translate(443.36,0)" style="stroke: rgb(68, 68, 68); stroke-opacity: 1; stroke-width: 1px;"/><path class="xtick ticks crisp" d="M0,450v-5" transform="translate(514.56,0)" style="stroke: rgb(68, 68, 68); stroke-opacity: 1; stroke-width: 1px;"/><path class="xtick ticks crisp" d="M0,450v-5" transform="translate(585.76,0)" style="stroke: rgb(68, 68, 68); stroke-opacity: 1; stroke-width: 1px;"/><path class="xtick ticks crisp" d="M0,450v-5" transform="translate(654.63,0)" style="stroke: rgb(68, 68, 68); stroke-opacity: 1; stroke-width: 1px;"/><path class="xtick ticks crisp" d="M0,450v-5" transform="translate(725.83,0)" style="stroke: rgb(68, 68, 68); stroke-opacity: 1; stroke-width: 1px;"/><g class="xtick"><text text-anchor="middle" x="0" y="469" transform="translate(88.52000000000001,0)" style="font-family: 'Open Sans', verdana, arial, sans-serif; font-size: 18px; fill: rgb(42, 63, 95); fill-opacity: 1; white-space: pre;">01/11</text></g><g class="xtick"><text text-anchor="middle" x="0" y="469" transform="translate(159.72,0)" style="font-family: 'Open Sans', verdana, arial, sans-serif; font-size: 18px; fill: rgb(42, 63, 95); fill-opacity: 1; white-space: pre;">01/01</text></g><g class="xtick"><text text-anchor="middle" x="0" y="469" transform="translate(228.59,0)" style="font-family: 'Open Sans', verdana, arial, sans-serif; font-size: 18px; fill: rgb(42, 63, 95); fill-opacity: 1; white-space: pre;">01/03</text></g><g class="xtick"><text text-anchor="middle" x="0" y="469" transform="translate(299.78999999999996,0)" style="font-family: 'Open Sans', verdana, arial, sans-serif; font-size: 18px; fill: rgb(42, 63, 95); fill-opacity: 1; white-space: pre;">01/05</text></g><g class="xtick"><text text-anchor="middle" x="0" y="469" transform="translate(370.99,0)" style="font-family: 'Open Sans', verdana, arial, sans-serif; font-size: 18px; fill: rgb(42, 63, 95); fill-opacity: 1; white-space: pre;">01/07</text></g><g class="xtick"><text text-anchor="middle" x="0" y="469" transform="translate(443.36,0)" style="font-family: 'Open Sans', verdana, arial, sans-serif; font-size: 18px; fill: rgb(42, 63, 95); fill-opacity: 1; white-space: pre;">01/09</text></g><g class="xtick"><text text-anchor="middle" x="0" y="469" transform="translate(514.56,0)" style="font-family: 'Open Sans', verdana, arial, sans-serif; font-size: 18px; fill: rgb(42, 63, 95); fill-opacity: 1; white-space: pre;">01/11</text></g><g class="xtick"><text text-anchor="middle" x="0" y="469" transform="translate(585.76,0)" style="font-family: 'Open Sans', verdana, arial, sans-serif; font-size: 18px; fill: rgb(42, 63, 95); fill-opacity: 1; white-space: pre;">01/01</text></g><g class="xtick"><text text-anchor="middle" x="0" y="469" transform="translate(654.63,0)" style="font-family: 'Open Sans', verdana, arial, sans-serif; font-size: 18px; fill: rgb(42, 63, 95); fill-opacity: 1; white-space: pre;">01/03</text></g><g class="xtick"><text text-anchor="middle" x="0" y="469" transform="translate(725.83,0)" style="font-family: 'Open Sans', verdana, arial, sans-serif; font-size: 18px; fill: rgb(42, 63, 95); fill-opacity: 1; white-space: pre;">01/05</text></g></g><g class="yaxislayer-above"/><g class="overaxes-above"/></g></g><g class="polarlayer"/><g class="ternarylayer"/><g class="geolayer"/><g class="funnelarealayer"/><g class="pielayer"/><g class="treemaplayer"/><g class="sunburstlayer"/><g class="glimages"/><defs id="topdefs-60dd16"><g class="clips"/></defs><g class="layer-above"><g class="imagelayer"/><g class="shapelayer"><path data-index="0" fill-rule="evenodd" d="M-605.99,445.1L247.26,445.1" clip-path="url('#clip60dd16xy')" style="opacity: 1; stroke: rgb(255, 0, 0); stroke-opacity: 1; fill: rgb(0, 0, 0); fill-opacity: 0; stroke-dasharray: 3px, 3px; stroke-width: 1.5px;"/></g></g><g class="infolayer"><g class="g-gtitle"><text class="gtitle" x="375" y="25" text-anchor="middle" dy="0.7em" style="font-family: 'Open Sans', verdana, arial, sans-serif; font-size: 50px; fill: rgb(42, 63, 95); opacity: 1; font-weight: normal; white-space: pre;"><tspan style="font-weight:bold">Vosges (88)</tspan></text></g><g class="g-xtitle"/><g class="annotation" data-index="0" style="opacity: 1;"><g class="annotation-text-g" transform="rotate(0,676.83,329.02)"><g class="cursor-pointer" transform="translate(619, 293)"><rect class="bg" x="0.5" y="0.5" width="115" height="71" style="stroke-width: 1px; stroke: rgb(0, 0, 0); stroke-opacity: 0; fill: rgb(255, 255, 255); fill-opacity: 0.6;"/><text class="annotation-text" text-anchor="middle" x="57.8125" y="55.5" style="font-family: 'Open Sans', verdana, arial, sans-serif; font-size: 50px; fill: rgb(8, 115, 191); fill-opacity: 1; white-space: pre;"> <tspan style="font-weight:bold">621 </tspan></text></g></g><g class="annotation-arrow-g" style="opacity: 1;"><path d="M705.23,364.52L716.83,379.02" style="stroke-width: 1px; stroke: rgb(8, 115, 191); stroke-opacity: 1; stroke-dasharray: 0px, 0px, 18.5691px, 18.5691px;"/></g></g></g></svg>