<svg class="main-svg" xmlns="http://www.w3.org/2000/svg" xmlns:xlink="http://www.w3.org/1999/xlink" width="1125" height="750" style="" viewBox="0 0 750 500"><rect x="0" y="0" width="750" height="500" style="fill: rgb(0, 0, 0); fill-opacity: 0;"/><defs id="defs-2095a0"><g class="clips"><clipPath id="clip2095a0xyplot" class="plotclip"><rect width="700" height="380"/></clipPath><clipPath class="axesclip" id="clip2095a0x"><rect x="50" y="0" width="700" height="500"/></clipPath><clipPath class="axesclip" id="clip2095a0y"><rect x="0" y="70" width="750" height="380"/></clipPath><clipPath class="axesclip" id="clip2095a0xy"><rect x="50" y="70" width="700" height="380"/></clipPath></g><g class="gradients"/></defs><g class="bglayer"><rect class="bg" x="50" y="70" width="700" height="380" style="fill: rgb(0, 0, 0); fill-opacity: 0; stroke-width: 0;"/></g><g class="layer-below"><g class="imagelayer"/><g class="shapelayer"/></g><g class="cartesianlayer"><g class="subplot xy"><g class="layer-subplot"><g class="shapelayer"/><g class="imagelayer"/></g><g class="gridlayer"><g class="x"><path class="xgrid crisp" transform="translate(90.67,0)" d="M0,70v380" style="stroke: rgb(255, 255, 255); stroke-opacity: 1; stroke-width: 1px;"/><path class="xgrid crisp" transform="translate(165.85,0)" d="M0,70v380" style="stroke: rgb(255, 255, 255); stroke-opacity: 1; stroke-width: 1px;"/><path class="xgrid crisp" transform="translate(238.56,0)" d="M0,70v380" style="stroke: rgb(255, 255, 255); stroke-opacity: 1; stroke-width: 1px;"/><path class="xgrid crisp" transform="translate(313.73,0)" d="M0,70v380" style="stroke: rgb(255, 255, 255); stroke-opacity: 1; stroke-width: 1px;"/><path class="xgrid crisp" transform="translate(388.91,0)" d="M0,70v380" style="stroke: rgb(255, 255, 255); stroke-opacity: 1; stroke-width: 1px;"/><path class="xgrid crisp" transform="translate(465.32,0)" d="M0,70v380" style="stroke: rgb(255, 255, 255); stroke-opacity: 1; stroke-width: 1px;"/><path class="xgrid crisp" transform="translate(540.49,0)" d="M0,70v380" style="stroke: rgb(255, 255, 255); stroke-opacity: 1; stroke-width: 1px;"/><path class="xgrid crisp" transform="translate(615.67,0)" d="M0,70v380" style="stroke: rgb(255, 255, 255); stroke-opacity: 1; stroke-width: 1px;"/><path class="xgrid crisp" transform="translate(688.38,0)" d="M0,70v380" style="stroke: rgb(255, 255, 255); stroke-opacity: 1; stroke-width: 1px;"/></g><g class="y"/></g><g class="zerolinelayer"/><path class="xlines-below"/><path class="ylines-below"/><g class="overlines-below"/><g class="xaxislayer-below"/><g class="yaxislayer-below"/><g class="overaxes-below"/><g class="plot" transform="translate(50, 70)" clip-path="url('#clip2095a0xyplot')"><g class="scatterlayer mlayer"><g class="trace scatter trace5becf2" style="stroke-miterlimit: 2;"><g class="fills"><g><path class="js-fill" d="M679.05,380L-167.61,380L-167.61,379.7L-72.71,378.51L-71.48,378.29L-57.92,376.56L-56.69,375.68L-44.37,376.18L-43.13,376.34L-38.2,375.52L-36.97,375.19L-33.27,374.06L-32.04,374.06L-28.35,374.99L-27.11,374.97L-22.18,374.75L-20.95,374.47L-13.56,374.88L-12.32,374.58L-7.39,372.44L-6.16,372.46L-1.23,370.48L0,371.03L3.7,370.35L4.93,370.1L6.16,370.18L7.39,368.89L9.86,366.82L11.09,366.74L17.25,363.96L18.49,364.46L19.72,364.46L20.95,363.22L23.42,361.13L24.65,359.32L28.35,358.33L29.58,358.46L32.04,358.3L33.27,359.12L36.97,359.32L38.2,362.84L45.6,365.17L46.83,362.29L48.06,363.22L49.3,366.52L52.99,369.58L54.23,369.55L56.69,372.63L57.92,372L60.39,373.98L61.62,373.7L64.08,374.33L65.32,375.16L77.64,378.43L78.87,378.46L101.06,377.88L102.29,378.16L104.75,378.76L105.99,378.82L118.31,377.91L119.54,378.1L123.24,378.13L124.47,378.27L176.23,378.13L177.46,377.77L182.39,376.81L183.63,376.81L193.49,377.06L194.72,376.67L197.18,375.96L198.42,374.77L203.35,372L204.58,370.87L207.04,369.49L208.27,369.69L209.51,369.8L210.74,368.94L216.9,364.49L218.13,364.29L223.06,359.73L224.3,361.63L226.76,361.13L227.99,364.54L231.69,361.05L232.92,356.92L235.39,357.28L236.62,354.25L241.55,360.77L242.78,361.32L246.48,360.83L247.71,362.31L252.64,363.74L253.87,365.28L258.8,370.57L260.04,371.01L261.27,370.98L262.5,372.3L264.96,374.33L266.2,374.64L269.89,375.54L271.13,375.79L277.29,376.86L278.52,376.81L282.22,377.52L283.45,377.03L289.61,377.69L290.85,377.69L295.77,377.77L297.01,377.33L300.7,378.02L301.94,378.13L330.28,376.95L331.51,376.23L335.21,371.31L336.44,369.69L338.91,368.67L340.14,366.66L343.84,359.18L345.07,354.67L346.3,352.85L347.54,352.36L350,338.03L351.23,341.41L353.7,322.73L354.93,318.77L356.16,317.81L357.39,310.79L359.86,285.6L361.09,282.71L362.32,279.63L363.56,279.74L364.79,279.99L366.02,276.93L367.25,277.84L368.49,276.36L370.95,273.25L372.18,272.89L373.42,272.07L374.65,268.16L375.88,264.91L377.11,263.92L378.35,264.69L379.58,263.73L382.04,262.6L383.27,262.99L384.51,264.28L385.74,261.72L386.97,261.01L388.2,265.02L390.67,265.85L391.9,269.34L398.06,290.41L399.3,290.93L402.99,308.15L404.23,311.48L405.46,314.81L406.69,315.8L407.92,315.88L409.15,319.43L410.39,322.76L411.62,328.29L414.08,336.51L415.32,338.16L416.55,338.38L417.78,341.6L422.71,350.16L423.94,350.9L425.18,351.48L426.41,353.37L428.87,356.23L430.11,356.78L431.34,358.21L432.57,357.99L433.8,358.13L435.04,359.12L439.96,363.03L441.2,364.07L442.43,363.96L443.66,365.78L444.89,366.91L446.13,366.88L451.06,366.63L452.29,365.61L453.52,364.54L454.75,364.51L459.68,364.65L460.92,364.93L462.15,365.7L463.38,365.31L467.08,367.51L468.31,367.24L470.77,367.1L472.01,367.18L476.94,366.63L478.17,367.13L480.63,368.42L481.87,368.12L485.56,368.58L486.8,370.46L488.03,371.91L489.26,370.79L490.49,371.39L491.73,370.9L494.19,370.35L495.42,368.47L496.65,367.21L497.89,368.17L499.12,369.47L500.35,368.28L504.05,367.32L505.28,366.85L506.51,366.38L507.75,364.46L510.21,363.83L511.44,363.74L513.91,363.8L515.14,364.05L516.37,364.43L517.61,365.67L522.54,363.77L523.77,363.11L526.23,362.18L527.46,362.42L533.63,362.53L534.86,363.47L537.32,362.84L538.56,363.28L542.25,363.06L543.49,361.32L547.18,360.72L548.42,358.41L550.88,355.41L552.11,355.6L553.35,356.45L554.58,355.24L558.27,333.9L559.51,320.94L560.74,310.71L561.97,309.14L563.2,305.46L564.44,278.12L569.37,179.45L570.6,157.83L571.83,153.24L573.06,132.94L575.53,108.26L576.76,104.88L579.23,93.14L580.46,88.63L581.69,80.81L582.92,78.42L584.15,76.55L585.39,71.87L586.62,72.18L587.85,70.42L589.08,69.18L590.32,69.89L594.01,96.05L595.25,98.91L596.48,103.07L597.71,104.08L600.18,116.96L601.41,121.52L603.87,130.96L605.11,131.29L606.34,133.08L607.57,139.24L608.8,146.14L610.04,148.37L614.96,178.76L616.2,194.77L621.13,235.7L622.36,240.3L623.59,243.76L624.82,257.02L629.75,286.07L630.99,289.15L632.22,291.15L633.45,299.32L635.92,312.47L637.15,289.28L640.85,173.65L642.08,90.96L644.54,2.83L645.77,0L647.01,11.66L648.24,45.77L649.47,63.76L650.7,112.86L654.4,177.77L655.63,196.29L658.1,213.42L659.33,231.8L663.03,262.19L664.26,266.4L674.12,305.07L675.35,306.64L676.58,312.83L677.82,315.14L679.05,316.87" style="fill: rgb(8, 115, 191); fill-opacity: 0.2; stroke-width: 0;"/></g></g><g class="errorbars"/><g class="lines"><path class="js-line" d="M-167.61,379.7L-72.71,378.51L-71.48,378.29L-57.92,376.56L-56.69,375.68L-44.37,376.18L-43.13,376.34L-38.2,375.52L-36.97,375.19L-33.27,374.06L-32.04,374.06L-28.35,374.99L-27.11,374.97L-22.18,374.75L-20.95,374.47L-13.56,374.88L-12.32,374.58L-7.39,372.44L-6.16,372.46L-1.23,370.48L0,371.03L3.7,370.35L4.93,370.1L6.16,370.18L7.39,368.89L9.86,366.82L11.09,366.74L17.25,363.96L18.49,364.46L19.72,364.46L20.95,363.22L23.42,361.13L24.65,359.32L28.35,358.33L29.58,358.46L32.04,358.3L33.27,359.12L36.97,359.32L38.2,362.84L45.6,365.17L46.83,362.29L48.06,363.22L49.3,366.52L52.99,369.58L54.23,369.55L56.69,372.63L57.92,372L60.39,373.98L61.62,373.7L64.08,374.33L65.32,375.16L77.64,378.43L78.87,378.46L101.06,377.88L102.29,378.16L104.75,378.76L105.99,378.82L118.31,377.91L119.54,378.1L123.24,378.13L124.47,378.27L176.23,378.13L177.46,377.77L182.39,376.81L183.63,376.81L193.49,377.06L194.72,376.67L197.18,375.96L198.42,374.77L203.35,372L204.58,370.87L207.04,369.49L208.27,369.69L209.51,369.8L210.74,368.94L216.9,364.49L218.13,364.29L223.06,359.73L224.3,361.63L226.76,361.13L227.99,364.54L231.69,361.05L232.92,356.92L235.39,357.28L236.62,354.25L241.55,360.77L242.78,361.32L246.48,360.83L247.71,362.31L252.64,363.74L253.87,365.28L258.8,370.57L260.04,371.01L261.27,370.98L262.5,372.3L264.96,374.33L266.2,374.64L269.89,375.54L271.13,375.79L277.29,376.86L278.52,376.81L282.22,377.52L283.45,377.03L289.61,377.69L290.85,377.69L295.77,377.77L297.01,377.33L300.7,378.02L301.94,378.13L330.28,376.95L331.51,376.23L335.21,371.31L336.44,369.69L338.91,368.67L340.14,366.66L343.84,359.18L345.07,354.67L346.3,352.85L347.54,352.36L350,338.03L351.23,341.41L353.7,322.73L354.93,318.77L356.16,317.81L357.39,310.79L359.86,285.6L361.09,282.71L362.32,279.63L363.56,279.74L364.79,279.99L366.02,276.93L367.25,277.84L368.49,276.36L370.95,273.25L372.18,272.89L373.42,272.07L374.65,268.16L375.88,264.91L377.11,263.92L378.35,264.69L379.58,263.73L382.04,262.6L383.27,262.99L384.51,264.28L385.74,261.72L386.97,261.01L388.2,265.02L390.67,265.85L391.9,269.34L398.06,290.41L399.3,290.93L402.99,308.15L404.23,311.48L405.46,314.81L406.69,315.8L407.92,315.88L409.15,319.43L410.39,322.76L411.62,328.29L414.08,336.51L415.32,338.16L416.55,338.38L417.78,341.6L422.71,350.16L423.94,350.9L425.18,351.48L426.41,353.37L428.87,356.23L430.11,356.78L431.34,358.21L432.57,357.99L433.8,358.13L435.04,359.12L439.96,363.03L441.2,364.07L442.43,363.96L443.66,365.78L444.89,366.91L446.13,366.88L451.06,366.63L452.29,365.61L453.52,364.54L454.75,364.51L459.68,364.65L460.92,364.93L462.15,365.7L463.38,365.31L467.08,367.51L468.31,367.24L470.77,367.1L472.01,367.18L476.94,366.63L478.17,367.13L480.63,368.42L481.87,368.12L485.56,368.58L486.8,370.46L488.03,371.91L489.26,370.79L490.49,371.39L491.73,370.9L494.19,370.35L495.42,368.47L496.65,367.21L497.89,368.17L499.12,369.47L500.35,368.28L504.05,367.32L505.28,366.85L506.51,366.38L507.75,364.46L510.21,363.83L511.44,363.74L513.91,363.8L515.14,364.05L516.37,364.43L517.61,365.67L522.54,363.77L523.77,363.11L526.23,362.18L527.46,362.42L533.63,362.53L534.86,363.47L537.32,362.84L538.56,363.28L542.25,363.06L543.49,361.32L547.18,360.72L548.42,358.41L550.88,355.41L552.11,355.6L553.35,356.45L554.58,355.24L558.27,333.9L559.51,320.94L560.74,310.71L561.97,309.14L563.2,305.46L564.44,278.12L569.37,179.45L570.6,157.83L571.83,153.24L573.06,132.94L575.53,108.26L576.76,104.88L579.23,93.14L580.46,88.63L581.69,80.81L582.92,78.42L584.15,76.55L585.39,71.87L586.62,72.18L587.85,70.42L589.08,69.18L590.32,69.89L594.01,96.05L595.25,98.91L596.48,103.07L597.71,104.08L600.18,116.96L601.41,121.52L603.87,130.96L605.11,131.29L606.34,133.08L607.57,139.24L608.8,146.14L610.04,148.37L614.96,178.76L616.2,194.77L621.13,235.7L622.36,240.3L623.59,243.76L624.82,257.02L629.75,286.07L630.99,289.15L632.22,291.15L633.45,299.32L635.92,312.47L637.15,289.28L640.85,173.65L642.08,90.96L644.54,2.83L645.77,0L647.01,11.66L648.24,45.77L649.47,63.76L650.7,112.86L654.4,177.77L655.63,196.29L658.1,213.42L659.33,231.8L663.03,262.19L664.26,266.4L674.12,305.07L675.35,306.64L676.58,312.83L677.82,315.14L679.05,316.87" style="vector-effect: non-scaling-stroke; fill: none; stroke: rgb(8, 115, 191); stroke-opacity: 1; stroke-width: 0.5px; opacity: 1;"/></g><g class="points"/><g class="text"/></g><g class="trace scatter tracef0b28b" style="stroke-miterlimit: 2;"><g class="fills"><g><path class="js-fill" d="M691.37,380L679.05,380L679.05,316.87L683.98,322.32L685.21,325.84L688.91,329.75L690.14,335.99L691.37,334.17" style="fill: rgb(8, 115, 191); fill-opacity: 0.4; stroke-width: 0;"/></g></g><g class="errorbars"/><g class="lines"><path class="js-line" d="M679.05,316.87L683.98,322.32L685.21,325.84L688.91,329.75L690.14,335.99L691.37,334.17" style="vector-effect: non-scaling-stroke; fill: none; stroke: rgb(8, 115, 191); stroke-opacity: 1; stroke-width: 2px; opacity: 1;"/></g><g class="points"/><g class="text"/></g><g class="trace scatter trace45a7fb" style="stroke-miterlimit: 2; opacity: 1;"><g class="fills"/><g class="errorbars"/><g class="lines"/><g class="points"><path class="point" transform="translate(691.37,334.17)" d="M15,0A15,15 0 1,1 0,-15A15,15 0 0,1 15,0Z" style="opacity: 1; stroke-width: 0px; fill: rgb(8, 115, 191); fill-opacity: 1;"/></g><g class="text"/></g></g></g><g class="overplot"/><path class="xlines-above crisp" style="fill: none; stroke-width: 1px; stroke: rgb(0, 0, 0); stroke-opacity: 0;" d=""/><path class="ylines-above crisp" style="fill: none;" d="M0,0"/><g class="overlines-above"/><g class="xaxislayer-above"><path class="xtick ticks crisp" d="M0,450v-5" transform="translate(90.67,0)" style="stroke: rgb(68, 68, 68); stroke-opacity: 1; stroke-width: 1px;"/><path class="xtick ticks crisp" d="M0,450v-5" transform="translate(165.85,0)" style="stroke: rgb(68, 68, 68); stroke-opacity: 1; stroke-width: 1px;"/><path class="xtick ticks crisp" d="M0,450v-5" transform="translate(238.56,0)" style="stroke: rgb(68, 68, 68); stroke-opacity: 1; stroke-width: 1px;"/><path class="xtick ticks crisp" d="M0,450v-5" transform="translate(313.73,0)" style="stroke: rgb(68, 68, 68); stroke-opacity: 1; stroke-width: 1px;"/><path class="xtick ticks crisp" d="M0,450v-5" transform="translate(388.91,0)" style="stroke: rgb(68, 68, 68); stroke-opacity: 1; stroke-width: 1px;"/><path class="xtick ticks crisp" d="M0,450v-5" transform="translate(465.32,0)" style="stroke: rgb(68, 68, 68); stroke-opacity: 1; stroke-width: 1px;"/><path class="xtick ticks crisp" d="M0,450v-5" transform="translate(540.49,0)" style="stroke: rgb(68, 68, 68); stroke-opacity: 1; stroke-width: 1px;"/><path class="xtick ticks crisp" d="M0,450v-5" transform="translate(615.67,0)" style="stroke: rgb(68, 68, 68); stroke-opacity: 1; stroke-width: 1px;"/><path class="xtick ticks crisp" d="M0,450v-5" transform="translate(688.38,0)" style="stroke: rgb(68, 68, 68); stroke-opacity: 1; stroke-width: 1px;"/><g class="xtick"><text text-anchor="middle" x="0" y="469" transform="translate(90.67,0)" style="font-family: 'Open Sans', verdana, arial, sans-serif; font-size: 18px; fill: rgb(42, 63, 95); fill-opacity: 1; white-space: pre;">01/11</text></g><g class="xtick"><text text-anchor="middle" x="0" y="469" transform="translate(165.85,0)" style="font-family: 'Open Sans', verdana, arial, sans-serif; font-size: 18px; fill: rgb(42, 63, 95); fill-opacity: 1; white-space: pre;">01/01</text></g><g class="xtick"><text text-anchor="middle" x="0" y="469" transform="translate(238.56,0)" style="font-family: 'Open Sans', verdana, arial, sans-serif; font-size: 18px; fill: rgb(42, 63, 95); fill-opacity: 1; white-space: pre;">01/03</text></g><g class="xtick"><text text-anchor="middle" x="0" y="469" transform="translate(313.73,0)" style="font-family: 'Open Sans', verdana, arial, sans-serif; font-size: 18px; fill: rgb(42, 63, 95); fill-opacity: 1; white-space: pre;">01/05</text></g><g class="xtick"><text text-anchor="middle" x="0" y="469" transform="translate(388.91,0)" style="font-family: 'Open Sans', verdana, arial, sans-serif; font-size: 18px; fill: rgb(42, 63, 95); fill-opacity: 1; white-space: pre;">01/07</text></g><g class="xtick"><text text-anchor="middle" x="0" y="469" transform="translate(465.32,0)" style="font-family: 'Open Sans', verdana, arial, sans-serif; font-size: 18px; fill: rgb(42, 63, 95); fill-opacity: 1; white-space: pre;">01/09</text></g><g class="xtick"><text text-anchor="middle" x="0" y="469" transform="translate(540.49,0)" style="font-family: 'Open Sans', verdana, arial, sans-serif; font-size: 18px; fill: rgb(42, 63, 95); fill-opacity: 1; white-space: pre;">01/11</text></g><g class="xtick"><text text-anchor="middle" x="0" y="469" transform="translate(615.67,0)" style="font-family: 'Open Sans', verdana, arial, sans-serif; font-size: 18px; fill: rgb(42, 63, 95); fill-opacity: 1; white-space: pre;">01/01</text></g><g class="xtick"><text text-anchor="middle" x="0" y="469" transform="translate(688.38,0)" style="font-family: 'Open Sans', verdana, arial, sans-serif; font-size: 18px; fill: rgb(42, 63, 95); fill-opacity: 1; white-space: pre;">01/03</text></g></g><g class="yaxislayer-above"/><g class="overaxes-above"/></g></g><g class="polarlayer"/><g class="ternarylayer"/><g class="geolayer"/><g class="funnelarealayer"/><g class="pielayer"/><g class="treemaplayer"/><g class="sunburstlayer"/><g class="glimages"/><defs id="topdefs-2095a0"><g class="clips"/></defs><g class="layer-above"><g class="imagelayer"/><g class="shapelayer"><path data-index="0" fill-rule="evenodd" d="M-642.61,445.07L258.27,445.07" clip-path="url('#clip2095a0xy')" style="opacity: 1; stroke: rgb(255, 0, 0); stroke-opacity: 1; fill: rgb(0, 0, 0); fill-opacity: 0; stroke-dasharray: 3px, 3px; stroke-width: 1.5px;"/></g></g><g class="infolayer"><g class="g-gtitle"><text class="gtitle" x="375" y="25" text-anchor="middle" dy="0.7em" style="font-family: 'Open Sans', verdana, arial, sans-serif; font-size: 50px; fill: rgb(42, 63, 95); opacity: 1; font-weight: normal; white-space: pre;"><tspan style="font-weight:bold">Martinique (972)</tspan></text></g><g class="g-xtitle"/><g class="annotation" data-index="0" style="opacity: 1;"><g class="annotation-text-g" transform="rotate(0,699.37,344.17)"><g class="cursor-pointer" transform="translate(641, 308)"><rect class="bg" x="0.5" y="0.5" width="115" height="71" style="stroke-width: 1px; stroke: rgb(0, 0, 0); stroke-opacity: 0; fill: rgb(255, 255, 255); fill-opacity: 0.6;"/><text class="annotation-text" text-anchor="middle" x="57.8125" y="55.5" style="font-family: 'Open Sans', verdana, arial, sans-serif; font-size: 50px; fill: rgb(8, 115, 191); fill-opacity: 1; white-space: pre;"> <tspan style="font-weight:bold">464 </tspan></text></g></g><g class="annotation-arrow-g" style="opacity: 1;"><path d="M727.77,379.67L739.37,394.17" style="stroke-width: 1px; stroke: rgb(8, 115, 191); stroke-opacity: 1; stroke-dasharray: 0px, 0px, 18.569px, 18.569px;"/></g></g></g></svg>