<svg class="main-svg" xmlns="http://www.w3.org/2000/svg" xmlns:xlink="http://www.w3.org/1999/xlink" width="1125" height="750" style="" viewBox="0 0 750 500"><rect x="0" y="0" width="750" height="500" style="fill: rgb(0, 0, 0); fill-opacity: 0;"/><defs id="defs-681fb8"><g class="clips"><clipPath id="clip681fb8xyplot" class="plotclip"><rect width="700" height="380"/></clipPath><clipPath class="axesclip" id="clip681fb8x"><rect x="50" y="0" width="700" height="500"/></clipPath><clipPath class="axesclip" id="clip681fb8y"><rect x="0" y="70" width="750" height="380"/></clipPath><clipPath class="axesclip" id="clip681fb8xy"><rect x="50" y="70" width="700" height="380"/></clipPath></g><g class="gradients"/></defs><g class="bglayer"><rect class="bg" x="50" y="70" width="700" height="380" style="fill: rgb(0, 0, 0); fill-opacity: 0; stroke-width: 0;"/></g><g class="layer-below"><g class="imagelayer"/><g class="shapelayer"/></g><g class="cartesianlayer"><g class="subplot xy"><g class="layer-subplot"><g class="shapelayer"/><g class="imagelayer"/></g><g class="gridlayer"><g class="x"><path class="xgrid crisp" transform="translate(109.69,0)" d="M0,70v380" style="stroke: rgb(255, 255, 255); stroke-opacity: 1; stroke-width: 1px;"/><path class="xgrid crisp" transform="translate(220.03,0)" d="M0,70v380" style="stroke: rgb(255, 255, 255); stroke-opacity: 1; stroke-width: 1px;"/><path class="xgrid crisp" transform="translate(326.74,0)" d="M0,70v380" style="stroke: rgb(255, 255, 255); stroke-opacity: 1; stroke-width: 1px;"/><path class="xgrid crisp" transform="translate(437.08,0)" d="M0,70v380" style="stroke: rgb(255, 255, 255); stroke-opacity: 1; stroke-width: 1px;"/><path class="xgrid crisp" transform="translate(547.4200000000001,0)" d="M0,70v380" style="stroke: rgb(255, 255, 255); stroke-opacity: 1; stroke-width: 1px;"/><path class="xgrid crisp" transform="translate(659.56,0)" d="M0,70v380" style="stroke: rgb(255, 255, 255); stroke-opacity: 1; stroke-width: 1px;"/></g><g class="y"/></g><g class="zerolinelayer"/><path class="xlines-below"/><path class="ylines-below"/><g class="overlines-below"/><g class="xaxislayer-below"/><g class="yaxislayer-below"/><g class="overaxes-below"/><g class="plot" transform="translate(50, 70)" clip-path="url('#clip681fb8xyplot')"><g class="scatterlayer mlayer"><g class="trace scatter trace0c4e77" style="stroke-miterlimit: 2;"><g class="fills"><g><path class="js-fill" d="M669.25,380L-245.99,380L-245.99,379.24L-217.05,380L-215.25,380L-94.06,379.24L-92.25,377.71L-90.44,377.71L-88.63,375.41L-79.59,375.41L-77.78,373.12L-72.35,374.65L-70.54,372.35L-66.93,370.06L-65.12,371.59L-61.5,370.06L-59.69,370.06L-57.88,367L-56.07,367L-54.26,367L-52.45,361.65L-50.65,357.06L-48.84,356.3L-47.03,356.3L-45.22,359.36L-43.41,357.06L-41.6,357.06L-39.79,360.12L-37.98,365.47L-34.37,363.94L-32.56,350.95L-30.75,351.71L-28.94,350.95L-27.13,347.89L-25.32,341.77L-23.51,343.3L-21.71,343.3L-19.9,344.83L-18.09,338.71L-16.28,335.65L-14.47,336.42L-12.66,338.71L-10.85,338.71L-9.04,339.48L-7.24,345.59L-5.43,347.89L-3.62,342.54L0,349.42L1.81,347.89L3.62,347.12L5.43,315.01L7.24,308.89L9.04,312.72L12.66,283.66L14.47,277.55L16.28,276.78L18.09,300.48L19.9,279.07L21.71,278.31L23.51,276.02L25.32,282.13L27.13,285.19L28.94,285.19L30.75,285.19L32.56,233.2L36.18,166.68L37.98,81.81L39.79,65.75L41.6,63.46L43.41,29.05L45.22,46.64L47.03,41.29L48.84,28.29L50.65,70.34L52.45,72.64L54.26,75.69L56.07,3.82L57.88,17.59L59.69,0L63.31,18.35L65.12,16.82L66.93,16.06L68.73,60.4L70.54,87.93L72.35,149.09L74.16,167.44L75.97,162.86L77.78,169.74L79.59,168.97L81.4,194.21L83.2,182.74L85.01,175.86L86.82,201.09L88.63,224.02L90.44,230.14L92.25,230.91L94.06,233.2L97.67,230.91L99.48,222.49L101.29,232.43L103.1,226.32L104.91,226.32L106.72,257.67L108.53,264.55L110.34,256.14L112.14,263.02L113.95,256.14L115.76,263.02L117.57,262.25L119.38,250.02L121.19,262.25L123,257.67L124.81,265.31L126.61,272.96L128.42,276.02L130.23,277.55L132.04,292.84L133.85,304.31L135.66,321.89L137.47,323.42L139.28,313.48L141.09,305.07L142.89,305.07L144.7,297.42L146.51,281.37L148.32,278.31L150.13,278.31L151.94,298.95L153.75,308.89L155.56,307.36L157.36,320.36L159.17,329.54L160.98,325.71L162.79,310.42L164.6,312.72L166.41,304.31L168.22,302.01L170.03,291.31L171.83,289.78L173.64,273.72L175.45,272.19L177.26,256.9L179.07,253.84L180.88,254.61L182.69,252.31L184.5,246.96L186.3,262.25L188.11,263.02L189.92,242.37L191.73,247.73L193.54,247.73L198.97,216.38L200.78,195.73L202.58,197.26L204.39,194.97L206.2,197.26L208.01,194.97L209.82,200.32L211.63,201.85L215.25,240.85L217.05,244.67L218.86,245.43L220.67,251.55L222.48,259.2L224.29,263.02L227.91,254.61L229.72,252.31L231.52,250.78L233.33,256.9L235.14,256.9L236.95,261.49L238.76,272.19L240.57,276.02L244.19,280.6L245.99,293.6L247.8,297.42L249.61,305.07L251.42,305.84L253.23,317.3L255.04,319.6L256.85,318.83L258.66,318.83L260.47,321.89L262.27,325.71L264.08,322.66L265.89,319.6L267.7,318.83L269.51,318.07L271.32,292.07L273.13,289.78L274.94,284.43L276.74,288.25L278.55,285.19L280.36,288.25L282.17,288.25L283.98,306.6L285.79,305.07L287.6,308.89L289.41,305.84L291.21,302.78L293.02,295.13L294.83,292.84L296.64,292.84L298.45,290.54L300.26,271.43L302.07,260.72L303.88,237.79L305.68,232.43L307.49,230.14L309.3,205.67L311.11,199.56L312.92,197.26L314.73,191.15L316.54,172.8L318.35,181.21L321.96,188.85L323.77,183.5L325.58,176.62L327.39,163.62L329.2,194.21L331.01,181.21L332.82,178.91L334.63,199.56L336.43,173.56L338.24,167.44L340.05,165.15L341.86,159.03L343.67,162.86L345.48,163.62L347.29,153.68L349.1,164.39L350.9,179.68L352.71,201.85L354.52,212.56L356.33,212.56L358.14,212.56L359.95,209.5L361.76,230.14L363.57,229.38L367.18,244.67L368.99,247.73L370.8,250.02L372.61,259.2L374.42,266.84L376.23,282.9L378.04,283.66L379.84,279.07L381.65,289.01L383.46,289.01L387.08,285.96L388.89,282.13L390.7,271.43L392.51,275.25L394.32,272.96L396.12,272.19L397.93,263.78L399.74,266.84L401.55,265.31L403.36,284.43L405.17,284.43L406.98,283.66L408.79,285.19L410.59,294.37L414.21,311.95L416.02,309.66L417.83,318.07L419.64,320.36L421.45,319.6L423.26,343.3L425.06,343.3L426.87,344.83L432.3,352.47L434.11,352.47L435.92,347.12L437.73,352.47L443.15,364.71L444.96,362.41L446.77,362.41L448.58,367.77L450.39,364.71L452.2,365.47L454.01,363.18L455.81,365.47L457.62,367.77L459.43,368.53L461.24,370.06L463.05,374.65L464.86,375.41L466.67,378.47L470.28,377.71L472.09,377.71L475.71,376.94L477.52,376.94L481.14,371.59L482.95,370.82L488.37,370.82L490.18,371.59L493.8,376.18L495.61,376.18L497.42,375.41L499.22,376.18L502.84,376.18L504.65,375.41L506.46,373.12L508.27,373.88L510.08,373.88L511.89,373.12L515.5,372.35L517.31,367L519.12,364.71L520.93,357.83L522.74,355.53L524.55,350.95L526.36,343.3L528.17,331.07L529.97,326.48L531.78,311.95L533.59,302.78L535.4,303.54L537.21,271.43L539.02,262.25L540.83,250.78L542.64,227.85L544.44,227.08L546.25,228.61L548.06,227.08L549.87,246.96L551.68,247.73L553.49,253.84L555.3,256.9L557.11,252.31L558.91,253.08L560.72,252.31L562.53,239.32L564.34,234.73L566.15,233.2L567.96,237.02L569.77,225.55L571.58,224.79L573.39,225.55L575.19,220.2L578.81,225.55L580.62,242.37L582.43,260.72L584.24,269.9L586.05,273.72L587.86,291.31L591.47,308.89L593.28,311.95L595.09,320.36L596.9,320.36L598.71,318.83L600.52,328.01L602.33,331.83L604.13,326.48L605.94,332.6L607.75,331.83L609.56,334.12L611.37,334.89L613.18,336.42L614.99,336.42L616.8,344.83L618.6,345.59L620.41,352.47L622.22,354.77L624.03,354.77L625.84,353.24L627.65,357.06L629.46,355.53L631.27,350.18L633.07,351.71L636.69,353.24L638.5,361.65L640.31,360.12L642.12,362.41L643.93,365.47L645.74,363.18L647.55,363.94L649.35,363.18L651.16,360.89L652.97,360.12L654.78,358.59L656.59,360.12L658.4,363.94L660.21,363.18L662.02,363.18L663.82,351.71L665.63,342.54L667.44,339.48L669.25,327.24" style="fill: rgb(8, 115, 191); fill-opacity: 0.2; stroke-width: 0;"/></g></g><g class="errorbars"/><g class="lines"><path class="js-line" d="M-245.99,379.24L-217.05,380L-215.25,380L-94.06,379.24L-92.25,377.71L-90.44,377.71L-88.63,375.41L-79.59,375.41L-77.78,373.12L-72.35,374.65L-70.54,372.35L-66.93,370.06L-65.12,371.59L-61.5,370.06L-59.69,370.06L-57.88,367L-56.07,367L-54.26,367L-52.45,361.65L-50.65,357.06L-48.84,356.3L-47.03,356.3L-45.22,359.36L-43.41,357.06L-41.6,357.06L-39.79,360.12L-37.98,365.47L-34.37,363.94L-32.56,350.95L-30.75,351.71L-28.94,350.95L-27.13,347.89L-25.32,341.77L-23.51,343.3L-21.71,343.3L-19.9,344.83L-18.09,338.71L-16.28,335.65L-14.47,336.42L-12.66,338.71L-10.85,338.71L-9.04,339.48L-7.24,345.59L-5.43,347.89L-3.62,342.54L0,349.42L1.81,347.89L3.62,347.12L5.43,315.01L7.24,308.89L9.04,312.72L12.66,283.66L14.47,277.55L16.28,276.78L18.09,300.48L19.9,279.07L21.71,278.31L23.51,276.02L25.32,282.13L27.13,285.19L28.94,285.19L30.75,285.19L32.56,233.2L36.18,166.68L37.98,81.81L39.79,65.75L41.6,63.46L43.41,29.05L45.22,46.64L47.03,41.29L48.84,28.29L50.65,70.34L52.45,72.64L54.26,75.69L56.07,3.82L57.88,17.59L59.69,0L63.31,18.35L65.12,16.82L66.93,16.06L68.73,60.4L70.54,87.93L72.35,149.09L74.16,167.44L75.97,162.86L77.78,169.74L79.59,168.97L81.4,194.21L83.2,182.74L85.01,175.86L86.82,201.09L88.63,224.02L90.44,230.14L92.25,230.91L94.06,233.2L97.67,230.91L99.48,222.49L101.29,232.43L103.1,226.32L104.91,226.32L106.72,257.67L108.53,264.55L110.34,256.14L112.14,263.02L113.95,256.14L115.76,263.02L117.57,262.25L119.38,250.02L121.19,262.25L123,257.67L124.81,265.31L126.61,272.96L128.42,276.02L130.23,277.55L132.04,292.84L133.85,304.31L135.66,321.89L137.47,323.42L139.28,313.48L141.09,305.07L142.89,305.07L144.7,297.42L146.51,281.37L148.32,278.31L150.13,278.31L151.94,298.95L153.75,308.89L155.56,307.36L157.36,320.36L159.17,329.54L160.98,325.71L162.79,310.42L164.6,312.72L166.41,304.31L168.22,302.01L170.03,291.31L171.83,289.78L173.64,273.72L175.45,272.19L177.26,256.9L179.07,253.84L180.88,254.61L182.69,252.31L184.5,246.96L186.3,262.25L188.11,263.02L189.92,242.37L191.73,247.73L193.54,247.73L198.97,216.38L200.78,195.73L202.58,197.26L204.39,194.97L206.2,197.26L208.01,194.97L209.82,200.32L211.63,201.85L215.25,240.85L217.05,244.67L218.86,245.43L220.67,251.55L222.48,259.2L224.29,263.02L227.91,254.61L229.72,252.31L231.52,250.78L233.33,256.9L235.14,256.9L236.95,261.49L238.76,272.19L240.57,276.02L244.19,280.6L245.99,293.6L247.8,297.42L249.61,305.07L251.42,305.84L253.23,317.3L255.04,319.6L256.85,318.83L258.66,318.83L260.47,321.89L262.27,325.71L264.08,322.66L265.89,319.6L267.7,318.83L269.51,318.07L271.32,292.07L273.13,289.78L274.94,284.43L276.74,288.25L278.55,285.19L280.36,288.25L282.17,288.25L283.98,306.6L285.79,305.07L287.6,308.89L289.41,305.84L291.21,302.78L293.02,295.13L294.83,292.84L296.64,292.84L298.45,290.54L300.26,271.43L302.07,260.72L303.88,237.79L305.68,232.43L307.49,230.14L309.3,205.67L311.11,199.56L312.92,197.26L314.73,191.15L316.54,172.8L318.35,181.21L321.96,188.85L323.77,183.5L325.58,176.62L327.39,163.62L329.2,194.21L331.01,181.21L332.82,178.91L334.63,199.56L336.43,173.56L338.24,167.44L340.05,165.15L341.86,159.03L343.67,162.86L345.48,163.62L347.29,153.68L349.1,164.39L350.9,179.68L352.71,201.85L354.52,212.56L356.33,212.56L358.14,212.56L359.95,209.5L361.76,230.14L363.57,229.38L367.18,244.67L368.99,247.73L370.8,250.02L372.61,259.2L374.42,266.84L376.23,282.9L378.04,283.66L379.84,279.07L381.65,289.01L383.46,289.01L387.08,285.96L388.89,282.13L390.7,271.43L392.51,275.25L394.32,272.96L396.12,272.19L397.93,263.78L399.74,266.84L401.55,265.31L403.36,284.43L405.17,284.43L406.98,283.66L408.79,285.19L410.59,294.37L414.21,311.95L416.02,309.66L417.83,318.07L419.64,320.36L421.45,319.6L423.26,343.3L425.06,343.3L426.87,344.83L432.3,352.47L434.11,352.47L435.92,347.12L437.73,352.47L443.15,364.71L444.96,362.41L446.77,362.41L448.58,367.77L450.39,364.71L452.2,365.47L454.01,363.18L455.81,365.47L457.62,367.77L459.43,368.53L461.24,370.06L463.05,374.65L464.86,375.41L466.67,378.47L470.28,377.71L472.09,377.71L475.71,376.94L477.52,376.94L481.14,371.59L482.95,370.82L488.37,370.82L490.18,371.59L493.8,376.18L495.61,376.18L497.42,375.41L499.22,376.18L502.84,376.18L504.65,375.41L506.46,373.12L508.27,373.88L510.08,373.88L511.89,373.12L515.5,372.35L517.31,367L519.12,364.71L520.93,357.83L522.74,355.53L524.55,350.95L526.36,343.3L528.17,331.07L529.97,326.48L531.78,311.95L533.59,302.78L535.4,303.54L537.21,271.43L539.02,262.25L540.83,250.78L542.64,227.85L544.44,227.08L546.25,228.61L548.06,227.08L549.87,246.96L551.68,247.73L553.49,253.84L555.3,256.9L557.11,252.31L558.91,253.08L560.72,252.31L562.53,239.32L564.34,234.73L566.15,233.2L567.96,237.02L569.77,225.55L571.58,224.79L573.39,225.55L575.19,220.2L578.81,225.55L580.62,242.37L582.43,260.72L584.24,269.9L586.05,273.72L587.86,291.31L591.47,308.89L593.28,311.95L595.09,320.36L596.9,320.36L598.71,318.83L600.52,328.01L602.33,331.83L604.13,326.48L605.94,332.6L607.75,331.83L609.56,334.12L611.37,334.89L613.18,336.42L614.99,336.42L616.8,344.83L618.6,345.59L620.41,352.47L622.22,354.77L624.03,354.77L625.84,353.24L627.65,357.06L629.46,355.53L631.27,350.18L633.07,351.71L636.69,353.24L638.5,361.65L640.31,360.12L642.12,362.41L643.93,365.47L645.74,363.18L647.55,363.94L649.35,363.18L651.16,360.89L652.97,360.12L654.78,358.59L656.59,360.12L658.4,363.94L660.21,363.18L662.02,363.18L663.82,351.71L665.63,342.54L667.44,339.48L669.25,327.24" style="vector-effect: non-scaling-stroke; fill: none; stroke: rgb(8, 115, 191); stroke-opacity: 1; stroke-width: 0.5px; opacity: 1;"/></g><g class="points"/><g class="text"/></g><g class="trace scatter trace26932f" style="stroke-miterlimit: 2;"><g class="fills"><g><path class="js-fill" d="M687.34,380L669.25,380L669.25,327.24L671.06,320.36L672.87,318.07L676.49,320.36L678.29,325.71L680.1,328.77L681.91,333.36L683.72,334.12L685.53,332.6L687.34,331.83" style="fill: rgb(8, 115, 191); fill-opacity: 0.4; stroke-width: 0;"/></g></g><g class="errorbars"/><g class="lines"><path class="js-line" d="M669.25,327.24L671.06,320.36L672.87,318.07L676.49,320.36L678.29,325.71L680.1,328.77L681.91,333.36L683.72,334.12L685.53,332.6L687.34,331.83" style="vector-effect: non-scaling-stroke; fill: none; stroke: rgb(8, 115, 191); stroke-opacity: 1; stroke-width: 2px; opacity: 1;"/></g><g class="points"/><g class="text"/></g><g class="trace scatter trace9b2e08" style="stroke-miterlimit: 2; opacity: 1;"><g class="fills"/><g class="errorbars"/><g class="lines"/><g class="points"><path class="point" transform="translate(687.34,331.83)" d="M15,0A15,15 0 1,1 0,-15A15,15 0 0,1 15,0Z" style="opacity: 1; stroke-width: 0px; fill: rgb(8, 115, 191); fill-opacity: 1;"/></g><g class="text"/></g></g></g><g class="overplot"/><path class="xlines-above crisp" style="fill: none; stroke-width: 1px; stroke: rgb(0, 0, 0); stroke-opacity: 0;" d=""/><path class="ylines-above crisp" style="fill: none;" d="M0,0"/><g class="overlines-above"/><g class="xaxislayer-above"><path class="xtick ticks crisp" d="M0,450v-5" transform="translate(109.69,0)" style="stroke: rgb(68, 68, 68); stroke-opacity: 1; stroke-width: 1px;"/><path class="xtick ticks crisp" d="M0,450v-5" transform="translate(220.03,0)" style="stroke: rgb(68, 68, 68); stroke-opacity: 1; stroke-width: 1px;"/><path class="xtick ticks crisp" d="M0,450v-5" transform="translate(326.74,0)" style="stroke: rgb(68, 68, 68); stroke-opacity: 1; stroke-width: 1px;"/><path class="xtick ticks crisp" d="M0,450v-5" transform="translate(437.08,0)" style="stroke: rgb(68, 68, 68); stroke-opacity: 1; stroke-width: 1px;"/><path class="xtick ticks crisp" d="M0,450v-5" transform="translate(547.4200000000001,0)" style="stroke: rgb(68, 68, 68); stroke-opacity: 1; stroke-width: 1px;"/><path class="xtick ticks crisp" d="M0,450v-5" transform="translate(659.56,0)" style="stroke: rgb(68, 68, 68); stroke-opacity: 1; stroke-width: 1px;"/><g class="xtick"><text text-anchor="middle" x="0" y="469" transform="translate(109.69,0)" style="font-family: 'Open Sans', verdana, arial, sans-serif; font-size: 18px; fill: rgb(42, 63, 95); fill-opacity: 1; white-space: pre;">01/11</text></g><g class="xtick"><text text-anchor="middle" x="0" y="469" transform="translate(220.03,0)" style="font-family: 'Open Sans', verdana, arial, sans-serif; font-size: 18px; fill: rgb(42, 63, 95); fill-opacity: 1; white-space: pre;">01/01</text></g><g class="xtick"><text text-anchor="middle" x="0" y="469" transform="translate(326.74,0)" style="font-family: 'Open Sans', verdana, arial, sans-serif; font-size: 18px; fill: rgb(42, 63, 95); fill-opacity: 1; white-space: pre;">01/03</text></g><g class="xtick"><text text-anchor="middle" x="0" y="469" transform="translate(437.08,0)" style="font-family: 'Open Sans', verdana, arial, sans-serif; font-size: 18px; fill: rgb(42, 63, 95); fill-opacity: 1; white-space: pre;">01/05</text></g><g class="xtick"><text text-anchor="middle" x="0" y="469" transform="translate(547.4200000000001,0)" style="font-family: 'Open Sans', verdana, arial, sans-serif; font-size: 18px; fill: rgb(42, 63, 95); fill-opacity: 1; white-space: pre;">01/07</text></g><g class="xtick"><text text-anchor="middle" x="0" y="469" transform="translate(659.56,0)" style="font-family: 'Open Sans', verdana, arial, sans-serif; font-size: 18px; fill: rgb(42, 63, 95); fill-opacity: 1; white-space: pre;">01/09</text></g></g><g class="yaxislayer-above"/><g class="overaxes-above"/></g></g><g class="polarlayer"/><g class="ternarylayer"/><g class="geolayer"/><g class="funnelarealayer"/><g class="pielayer"/><g class="treemaplayer"/><g class="sunburstlayer"/><g class="glimages"/><defs id="topdefs-681fb8"><g class="clips"/></defs><g class="layer-above"><g class="imagelayer"/><g class="shapelayer"><path data-index="0" fill-rule="evenodd" d="M-966.54,420.84L355.68,420.84" clip-path="url('#clip681fb8xy')" style="opacity: 1; stroke: rgb(255, 0, 0); stroke-opacity: 1; fill: rgb(0, 0, 0); fill-opacity: 0; stroke-dasharray: 3px, 3px; stroke-width: 1.5px;"/></g></g><g class="infolayer"><g class="g-gtitle"><text class="gtitle" x="375" y="25" text-anchor="middle" dy="0.7em" style="font-family: 'Open Sans', verdana, arial, sans-serif; font-size: 50px; fill: rgb(42, 63, 95); opacity: 1; font-weight: normal; white-space: pre;"><tspan style="font-weight:bold">Lozère (48)</tspan></text></g><g class="g-xtitle"/><g class="annotation" data-index="0" style="opacity: 1;"><g class="annotation-text-g" transform="rotate(0,695.34,341.83)"><g class="cursor-pointer" transform="translate(652, 306)"><rect class="bg" x="0.5" y="0.5" width="86" height="71" style="stroke-width: 1px; stroke: rgb(0, 0, 0); stroke-opacity: 0; fill: rgb(255, 255, 255); fill-opacity: 0.6;"/><text class="annotation-text" text-anchor="middle" x="43.53125" y="55.5" style="font-family: 'Open Sans', verdana, arial, sans-serif; font-size: 50px; fill: rgb(8, 115, 191); fill-opacity: 1; white-space: pre;"> <tspan style="font-weight:bold">82 </tspan></text></g></g><g class="annotation-arrow-g" style="opacity: 1;"><path d="M723.74,377.33L735.34,391.83" style="stroke-width: 1px; stroke: rgb(8, 115, 191); stroke-opacity: 1; stroke-dasharray: 0px, 0px, 18.5691px, 18.5691px;"/></g></g></g></svg>