<svg class="main-svg" xmlns="http://www.w3.org/2000/svg" xmlns:xlink="http://www.w3.org/1999/xlink" width="1125" height="750" style="" viewBox="0 0 750 500"><rect x="0" y="0" width="750" height="500" style="fill: rgb(0, 0, 0); fill-opacity: 0;"/><defs id="defs-8d98b2"><g class="clips"><clipPath id="clip8d98b2xyplot" class="plotclip"><rect width="700" height="380"/></clipPath><clipPath class="axesclip" id="clip8d98b2x"><rect x="50" y="0" width="700" height="500"/></clipPath><clipPath class="axesclip" id="clip8d98b2y"><rect x="0" y="70" width="750" height="380"/></clipPath><clipPath class="axesclip" id="clip8d98b2xy"><rect x="50" y="70" width="700" height="380"/></clipPath></g><g class="gradients"/></defs><g class="bglayer"><rect class="bg" x="50" y="70" width="700" height="380" style="fill: rgb(0, 0, 0); fill-opacity: 0; stroke-width: 0;"/></g><g class="layer-below"><g class="imagelayer"/><g class="shapelayer"/></g><g class="cartesianlayer"><g class="subplot xy"><g class="layer-subplot"><g class="shapelayer"/><g class="imagelayer"/></g><g class="gridlayer"><g class="x"><path class="xgrid crisp" transform="translate(90.74000000000001,0)" d="M0,70v380" style="stroke: rgb(255, 255, 255); stroke-opacity: 1; stroke-width: 1px;"/><path class="xgrid crisp" transform="translate(166.05,0)" d="M0,70v380" style="stroke: rgb(255, 255, 255); stroke-opacity: 1; stroke-width: 1px;"/><path class="xgrid crisp" transform="translate(238.89,0)" d="M0,70v380" style="stroke: rgb(255, 255, 255); stroke-opacity: 1; stroke-width: 1px;"/><path class="xgrid crisp" transform="translate(314.2,0)" d="M0,70v380" style="stroke: rgb(255, 255, 255); stroke-opacity: 1; stroke-width: 1px;"/><path class="xgrid crisp" transform="translate(389.51,0)" d="M0,70v380" style="stroke: rgb(255, 255, 255); stroke-opacity: 1; stroke-width: 1px;"/><path class="xgrid crisp" transform="translate(466.05,0)" d="M0,70v380" style="stroke: rgb(255, 255, 255); stroke-opacity: 1; stroke-width: 1px;"/><path class="xgrid crisp" transform="translate(541.36,0)" d="M0,70v380" style="stroke: rgb(255, 255, 255); stroke-opacity: 1; stroke-width: 1px;"/><path class="xgrid crisp" transform="translate(616.67,0)" d="M0,70v380" style="stroke: rgb(255, 255, 255); stroke-opacity: 1; stroke-width: 1px;"/><path class="xgrid crisp" transform="translate(689.51,0)" d="M0,70v380" style="stroke: rgb(255, 255, 255); stroke-opacity: 1; stroke-width: 1px;"/></g><g class="y"/></g><g class="zerolinelayer"/><path class="xlines-below"/><path class="ylines-below"/><g class="overlines-below"/><g class="xaxislayer-below"/><g class="yaxislayer-below"/><g class="overaxes-below"/><g class="plot" transform="translate(50, 70)" clip-path="url('#clip8d98b2xyplot')"><g class="scatterlayer mlayer"><g class="trace scatter trace5ef5a8" style="stroke-miterlimit: 2;"><g class="fills"><g><path class="js-fill" d="M679.01,380L-167.9,380L-167.9,378.89L-139.51,379.39L-138.27,379.41L-119.75,379.55L-118.52,379.57L-65.43,377.37L-64.2,377.22L-44.44,374.82L-43.21,374.18L-12.35,368.76L-11.11,368.15L-8.64,368.05L-7.41,367.96L-1.23,367.98L0,366.88L2.47,366.49L3.7,365.08L9.88,357.54L11.11,357.36L16.05,352.42L17.28,351.54L19.75,350.89L20.99,349.62L24.69,344.38L25.93,341.94L28.4,340.89L29.63,338.04L32.1,336.03L33.33,336.47L35.8,337.67L37.04,337.8L39.51,339.42L40.74,341.43L44.44,345.5L45.68,345.89L50.62,357.93L51.85,359.79L54.32,360.56L55.56,362.83L56.79,364.5L58.02,363.49L60.49,366.91L61.73,366.87L62.96,367.07L64.2,368.21L69.14,370.11L70.37,370.43L72.84,370.92L74.07,371.55L76.54,372.33L77.78,372.04L95.06,370.37L96.3,369.83L102.47,369.25L103.7,370.96L107.41,370.62L108.64,369.82L112.35,369.15L113.58,369.05L114.81,369.1L116.05,367.89L119.75,366.91L120.99,364.94L124.69,365.61L125.93,366.15L133.33,364.94L134.57,364.61L146.91,363.42L148.15,363.45L160.49,363.91L161.73,364.21L164.2,364.31L165.43,364.15L170.37,363.4L171.6,362.57L174.07,360.82L175.31,360.88L177.78,358.35L179.01,357.44L185.19,357.26L186.42,356.88L188.89,356.51L190.12,356.06L195.06,355.06L196.3,354.07L201.23,350.45L202.47,348.37L206.17,342.68L207.41,341.09L208.64,339.8L209.88,339.67L212.35,336.47L213.58,335.32L217.28,332.22L218.52,332.63L222.22,330.13L223.46,329.88L225.93,331.47L227.16,331.39L228.4,340.78L229.63,339.25L233.33,340.26L234.57,339.62L235.8,339.73L237.04,332.4L238.27,336.21L239.51,337.41L243.21,341.82L244.44,341.92L248.15,344.24L249.38,344.49L254.32,346.95L255.56,348.11L259.26,351.32L260.49,353.77L261.73,353.56L262.96,354.67L265.43,356.25L266.67,357.27L269.14,358.43L270.37,358.63L274.07,360.94L275.31,363.68L276.54,364.19L277.78,363.27L279.01,363.3L280.25,364.24L282.72,365.15L283.95,363.38L286.42,364.79L287.65,365.06L288.89,368.26L290.12,368.26L295.06,370.15L296.3,370.1L297.53,368.95L298.77,370.57L303.7,372.9L304.94,372.97L311.11,375.48L312.35,375.7L314.81,376.11L316.05,376.67L332.1,378.22L333.33,378.17L351.85,376.18L353.09,375.21L358.02,371.87L359.26,370.69L360.49,368.62L361.73,368.06L364.2,366.71L365.43,366.51L369.14,365.9L370.37,366.04L374.07,366.45L375.31,366.12L380.25,364.83L381.48,364.51L391.36,363.23L392.59,363.21L402.47,364.53L403.7,364.81L412.35,366.31L413.58,366.62L418.52,368.06L419.75,368.37L424.69,370.54L425.93,370.65L428.4,372.13L429.63,372.62L432.1,373.56L433.33,373.73L445.68,374.44L446.91,374.65L456.79,375.29L458.02,375.37L462.96,374.76L464.2,374.61L466.67,373.96L467.9,374.07L485.19,374.82L486.42,374.71L487.65,375.46L488.89,375.04L493.83,374.48L495.06,374.49L496.3,373.38L497.53,373.58L503.7,373.34L504.94,372.19L507.41,370.21L508.64,368.35L512.35,367.02L513.58,365.96L519.75,359.48L520.99,359.27L524.69,353.94L525.93,352.57L528.4,349.7L529.63,349.4L535.8,342.34L537.04,341.65L538.27,341.14L539.51,339.58L546.91,332.3L548.15,329.05L550.62,314.99L551.85,304.6L553.09,293.91L554.32,295.44L555.56,291.25L556.79,255.39L561.73,135.17L562.96,133.14L564.2,128.88L565.43,93.41L567.9,55.18L569.14,46.68L570.37,37.76L571.6,4.8L572.84,0L574.07,12.11L577.78,44.87L579.01,50.03L580.25,51.4L581.48,50.32L590.12,92.56L591.36,106.84L596.3,161.14L597.53,169.37L598.77,172.94L600,187.29L604.94,232.64L606.17,241.83L607.41,245.88L608.64,262.86L613.58,299.79L614.81,305.22L616.05,307.6L617.28,316.12L620.99,329.44L622.22,332.91L623.46,335.7L624.69,336.39L627.16,343.79L628.4,346.79L630.86,351.87L632.1,353.23L634.57,354.92L635.8,356.15L638.27,356.97L639.51,357.23L643.21,356.2L644.44,355.22L650.62,349.72L651.85,346.07L654.32,339.87L655.56,336.22L658.02,328.14L659.26,326.79L664.2,288.96L665.43,281.04L666.67,274.31L667.9,272.72L670.37,258.69L671.6,255.21L672.84,254.22L674.07,255.09L675.31,256.72L676.54,256.52L679.01,257.92" style="fill: rgb(8, 115, 191); fill-opacity: 0.2; stroke-width: 0;"/></g></g><g class="errorbars"/><g class="lines"><path class="js-line" d="M-167.9,378.89L-139.51,379.39L-138.27,379.41L-119.75,379.55L-118.52,379.57L-65.43,377.37L-64.2,377.22L-44.44,374.82L-43.21,374.18L-12.35,368.76L-11.11,368.15L-8.64,368.05L-7.41,367.96L-1.23,367.98L0,366.88L2.47,366.49L3.7,365.08L9.88,357.54L11.11,357.36L16.05,352.42L17.28,351.54L19.75,350.89L20.99,349.62L24.69,344.38L25.93,341.94L28.4,340.89L29.63,338.04L32.1,336.03L33.33,336.47L35.8,337.67L37.04,337.8L39.51,339.42L40.74,341.43L44.44,345.5L45.68,345.89L50.62,357.93L51.85,359.79L54.32,360.56L55.56,362.83L56.79,364.5L58.02,363.49L60.49,366.91L61.73,366.87L62.96,367.07L64.2,368.21L69.14,370.11L70.37,370.43L72.84,370.92L74.07,371.55L76.54,372.33L77.78,372.04L95.06,370.37L96.3,369.83L102.47,369.25L103.7,370.96L107.41,370.62L108.64,369.82L112.35,369.15L113.58,369.05L114.81,369.1L116.05,367.89L119.75,366.91L120.99,364.94L124.69,365.61L125.93,366.15L133.33,364.94L134.57,364.61L146.91,363.42L148.15,363.45L160.49,363.91L161.73,364.21L164.2,364.31L165.43,364.15L170.37,363.4L171.6,362.57L174.07,360.82L175.31,360.88L177.78,358.35L179.01,357.44L185.19,357.26L186.42,356.88L188.89,356.51L190.12,356.06L195.06,355.06L196.3,354.07L201.23,350.45L202.47,348.37L206.17,342.68L207.41,341.09L208.64,339.8L209.88,339.67L212.35,336.47L213.58,335.32L217.28,332.22L218.52,332.63L222.22,330.13L223.46,329.88L225.93,331.47L227.16,331.39L228.4,340.78L229.63,339.25L233.33,340.26L234.57,339.62L235.8,339.73L237.04,332.4L238.27,336.21L239.51,337.41L243.21,341.82L244.44,341.92L248.15,344.24L249.38,344.49L254.32,346.95L255.56,348.11L259.26,351.32L260.49,353.77L261.73,353.56L262.96,354.67L265.43,356.25L266.67,357.27L269.14,358.43L270.37,358.63L274.07,360.94L275.31,363.68L276.54,364.19L277.78,363.27L279.01,363.3L280.25,364.24L282.72,365.15L283.95,363.38L286.42,364.79L287.65,365.06L288.89,368.26L290.12,368.26L295.06,370.15L296.3,370.1L297.53,368.95L298.77,370.57L303.7,372.9L304.94,372.97L311.11,375.48L312.35,375.7L314.81,376.11L316.05,376.67L332.1,378.22L333.33,378.17L351.85,376.18L353.09,375.21L358.02,371.87L359.26,370.69L360.49,368.62L361.73,368.06L364.2,366.71L365.43,366.51L369.14,365.9L370.37,366.04L374.07,366.45L375.31,366.12L380.25,364.83L381.48,364.51L391.36,363.23L392.59,363.21L402.47,364.53L403.7,364.81L412.35,366.31L413.58,366.62L418.52,368.06L419.75,368.37L424.69,370.54L425.93,370.65L428.4,372.13L429.63,372.62L432.1,373.56L433.33,373.73L445.68,374.44L446.91,374.65L456.79,375.29L458.02,375.37L462.96,374.76L464.2,374.61L466.67,373.96L467.9,374.07L485.19,374.82L486.42,374.71L487.65,375.46L488.89,375.04L493.83,374.48L495.06,374.49L496.3,373.38L497.53,373.58L503.7,373.34L504.94,372.19L507.41,370.21L508.64,368.35L512.35,367.02L513.58,365.96L519.75,359.48L520.99,359.27L524.69,353.94L525.93,352.57L528.4,349.7L529.63,349.4L535.8,342.34L537.04,341.65L538.27,341.14L539.51,339.58L546.91,332.3L548.15,329.05L550.62,314.99L551.85,304.6L553.09,293.91L554.32,295.44L555.56,291.25L556.79,255.39L561.73,135.17L562.96,133.14L564.2,128.88L565.43,93.41L567.9,55.18L569.14,46.68L570.37,37.76L571.6,4.8L572.84,0L574.07,12.11L577.78,44.87L579.01,50.03L580.25,51.4L581.48,50.32L590.12,92.56L591.36,106.84L596.3,161.14L597.53,169.37L598.77,172.94L600,187.29L604.94,232.64L606.17,241.83L607.41,245.88L608.64,262.86L613.58,299.79L614.81,305.22L616.05,307.6L617.28,316.12L620.99,329.44L622.22,332.91L623.46,335.7L624.69,336.39L627.16,343.79L628.4,346.79L630.86,351.87L632.1,353.23L634.57,354.92L635.8,356.15L638.27,356.97L639.51,357.23L643.21,356.2L644.44,355.22L650.62,349.72L651.85,346.07L654.32,339.87L655.56,336.22L658.02,328.14L659.26,326.79L664.2,288.96L665.43,281.04L666.67,274.31L667.9,272.72L670.37,258.69L671.6,255.21L672.84,254.22L674.07,255.09L675.31,256.72L676.54,256.52L679.01,257.92" style="vector-effect: non-scaling-stroke; fill: none; stroke: rgb(8, 115, 191); stroke-opacity: 1; stroke-width: 0.5px; opacity: 1;"/></g><g class="points"/><g class="text"/></g><g class="trace scatter trace2938a3" style="stroke-miterlimit: 2;"><g class="fills"><g><path class="js-fill" d="M691.36,380L679.01,380L679.01,257.92L680.25,259.3L681.48,258.55L683.95,257.36L685.19,258.12L690.12,271.64L691.36,275.2" style="fill: rgb(8, 115, 191); fill-opacity: 0.4; stroke-width: 0;"/></g></g><g class="errorbars"/><g class="lines"><path class="js-line" d="M679.01,257.92L680.25,259.3L681.48,258.55L683.95,257.36L685.19,258.12L690.12,271.64L691.36,275.2" style="vector-effect: non-scaling-stroke; fill: none; stroke: rgb(8, 115, 191); stroke-opacity: 1; stroke-width: 2px; opacity: 1;"/></g><g class="points"/><g class="text"/></g><g class="trace scatter trace2aac09" style="stroke-miterlimit: 2; opacity: 1;"><g class="fills"/><g class="errorbars"/><g class="lines"/><g class="points"><path class="point" transform="translate(691.36,275.2)" d="M15,0A15,15 0 1,1 0,-15A15,15 0 0,1 15,0Z" style="opacity: 1; stroke-width: 0px; fill: rgb(8, 115, 191); fill-opacity: 1;"/></g><g class="text"/></g></g></g><g class="overplot"/><path class="xlines-above crisp" style="fill: none; stroke-width: 1px; stroke: rgb(0, 0, 0); stroke-opacity: 0;" d=""/><path class="ylines-above crisp" style="fill: none;" d="M0,0"/><g class="overlines-above"/><g class="xaxislayer-above"><path class="xtick ticks crisp" d="M0,450v-5" transform="translate(90.74000000000001,0)" style="stroke: rgb(68, 68, 68); stroke-opacity: 1; stroke-width: 1px;"/><path class="xtick ticks crisp" d="M0,450v-5" transform="translate(166.05,0)" style="stroke: rgb(68, 68, 68); stroke-opacity: 1; stroke-width: 1px;"/><path class="xtick ticks crisp" d="M0,450v-5" transform="translate(238.89,0)" style="stroke: rgb(68, 68, 68); stroke-opacity: 1; stroke-width: 1px;"/><path class="xtick ticks crisp" d="M0,450v-5" transform="translate(314.2,0)" style="stroke: rgb(68, 68, 68); stroke-opacity: 1; stroke-width: 1px;"/><path class="xtick ticks crisp" d="M0,450v-5" transform="translate(389.51,0)" style="stroke: rgb(68, 68, 68); stroke-opacity: 1; stroke-width: 1px;"/><path class="xtick ticks crisp" d="M0,450v-5" transform="translate(466.05,0)" style="stroke: rgb(68, 68, 68); stroke-opacity: 1; stroke-width: 1px;"/><path class="xtick ticks crisp" d="M0,450v-5" transform="translate(541.36,0)" style="stroke: rgb(68, 68, 68); stroke-opacity: 1; stroke-width: 1px;"/><path class="xtick ticks crisp" d="M0,450v-5" transform="translate(616.67,0)" style="stroke: rgb(68, 68, 68); stroke-opacity: 1; stroke-width: 1px;"/><path class="xtick ticks crisp" d="M0,450v-5" transform="translate(689.51,0)" style="stroke: rgb(68, 68, 68); stroke-opacity: 1; stroke-width: 1px;"/><g class="xtick"><text text-anchor="middle" x="0" y="469" transform="translate(90.74000000000001,0)" style="font-family: 'Open Sans', verdana, arial, sans-serif; font-size: 18px; fill: rgb(42, 63, 95); fill-opacity: 1; white-space: pre;">01/11</text></g><g class="xtick"><text text-anchor="middle" x="0" y="469" transform="translate(166.05,0)" style="font-family: 'Open Sans', verdana, arial, sans-serif; font-size: 18px; fill: rgb(42, 63, 95); fill-opacity: 1; white-space: pre;">01/01</text></g><g class="xtick"><text text-anchor="middle" x="0" y="469" transform="translate(238.89,0)" style="font-family: 'Open Sans', verdana, arial, sans-serif; font-size: 18px; fill: rgb(42, 63, 95); fill-opacity: 1; white-space: pre;">01/03</text></g><g class="xtick"><text text-anchor="middle" x="0" y="469" transform="translate(314.2,0)" style="font-family: 'Open Sans', verdana, arial, sans-serif; font-size: 18px; fill: rgb(42, 63, 95); fill-opacity: 1; white-space: pre;">01/05</text></g><g class="xtick"><text text-anchor="middle" x="0" y="469" transform="translate(389.51,0)" style="font-family: 'Open Sans', verdana, arial, sans-serif; font-size: 18px; fill: rgb(42, 63, 95); fill-opacity: 1; white-space: pre;">01/07</text></g><g class="xtick"><text text-anchor="middle" x="0" y="469" transform="translate(466.05,0)" style="font-family: 'Open Sans', verdana, arial, sans-serif; font-size: 18px; fill: rgb(42, 63, 95); fill-opacity: 1; white-space: pre;">01/09</text></g><g class="xtick"><text text-anchor="middle" x="0" y="469" transform="translate(541.36,0)" style="font-family: 'Open Sans', verdana, arial, sans-serif; font-size: 18px; fill: rgb(42, 63, 95); fill-opacity: 1; white-space: pre;">01/11</text></g><g class="xtick"><text text-anchor="middle" x="0" y="469" transform="translate(616.67,0)" style="font-family: 'Open Sans', verdana, arial, sans-serif; font-size: 18px; fill: rgb(42, 63, 95); fill-opacity: 1; white-space: pre;">01/01</text></g><g class="xtick"><text text-anchor="middle" x="0" y="469" transform="translate(689.51,0)" style="font-family: 'Open Sans', verdana, arial, sans-serif; font-size: 18px; fill: rgb(42, 63, 95); fill-opacity: 1; white-space: pre;">01/03</text></g></g><g class="yaxislayer-above"/><g class="overaxes-above"/></g></g><g class="polarlayer"/><g class="ternarylayer"/><g class="geolayer"/><g class="funnelarealayer"/><g class="pielayer"/><g class="treemaplayer"/><g class="sunburstlayer"/><g class="glimages"/><defs id="topdefs-8d98b2"><g class="clips"/></defs><g class="layer-above"><g class="imagelayer"/><g class="shapelayer"><path data-index="0" fill-rule="evenodd" d="M-643.83,445.63L258.64,445.63" clip-path="url('#clip8d98b2xy')" style="opacity: 1; stroke: rgb(255, 0, 0); stroke-opacity: 1; fill: rgb(0, 0, 0); fill-opacity: 0; stroke-dasharray: 3px, 3px; stroke-width: 1.5px;"/></g></g><g class="infolayer"><g class="g-gtitle"><text class="gtitle" x="375" y="25" text-anchor="middle" dy="0.7em" style="font-family: 'Open Sans', verdana, arial, sans-serif; font-size: 50px; fill: rgb(42, 63, 95); opacity: 1; font-weight: normal; white-space: pre;"><tspan style="font-weight:bold">Essonne (91)</tspan></text></g><g class="g-xtitle"/><g class="annotation" data-index="0" style="opacity: 1;"><g class="annotation-text-g" transform="rotate(0,699.36,285.2)"><g class="cursor-pointer" transform="translate(627, 249)"><rect class="bg" x="0.5" y="0.5" width="143" height="71" style="stroke-width: 1px; stroke: rgb(0, 0, 0); stroke-opacity: 0; fill: rgb(255, 255, 255); fill-opacity: 0.6;"/><text class="annotation-text" text-anchor="middle" x="72.078125" y="55.5" style="font-family: 'Open Sans', verdana, arial, sans-serif; font-size: 50px; fill: rgb(8, 115, 191); fill-opacity: 1; white-space: pre;"> <tspan style="font-weight:bold">1198 </tspan></text></g></g><g class="annotation-arrow-g" style="opacity: 1;"><path d="M727.76,320.7L739.36,335.2" style="stroke-width: 1px; stroke: rgb(8, 115, 191); stroke-opacity: 1; stroke-dasharray: 0px, 0px, 18.569px, 18.569px;"/></g></g></g></svg>