<svg class="main-svg" xmlns="http://www.w3.org/2000/svg" xmlns:xlink="http://www.w3.org/1999/xlink" width="1125" height="750" style="" viewBox="0 0 750 500"><rect x="0" y="0" width="750" height="500" style="fill: rgb(0, 0, 0); fill-opacity: 0;"/><defs id="defs-def513"><g class="clips"><clipPath id="clipdef513xyplot" class="plotclip"><rect width="676" height="380"/></clipPath><clipPath class="axesclip" id="clipdef513x"><rect x="50" y="0" width="676" height="500"/></clipPath><clipPath class="axesclip" id="clipdef513y"><rect x="0" y="70" width="750" height="380"/></clipPath><clipPath class="axesclip" id="clipdef513xy"><rect x="50" y="70" width="676" height="380"/></clipPath></g><g class="gradients"/></defs><g class="bglayer"><rect class="bg" x="50" y="70" width="676" height="380" style="fill: rgb(0, 0, 0); fill-opacity: 0; stroke-width: 0;"/></g><g class="layer-below"><g class="imagelayer"/><g class="shapelayer"/></g><g class="cartesianlayer"><g class="subplot xy"><g class="layer-subplot"><g class="shapelayer"/><g class="imagelayer"/></g><g class="gridlayer"><g class="x"><path class="xgrid crisp" transform="translate(88.53,0)" d="M0,70v380" style="stroke: rgb(255, 255, 255); stroke-opacity: 1; stroke-width: 1px;"/><path class="xgrid crisp" transform="translate(159.75,0)" d="M0,70v380" style="stroke: rgb(255, 255, 255); stroke-opacity: 1; stroke-width: 1px;"/><path class="xgrid crisp" transform="translate(228.63,0)" d="M0,70v380" style="stroke: rgb(255, 255, 255); stroke-opacity: 1; stroke-width: 1px;"/><path class="xgrid crisp" transform="translate(299.85,0)" d="M0,70v380" style="stroke: rgb(255, 255, 255); stroke-opacity: 1; stroke-width: 1px;"/><path class="xgrid crisp" transform="translate(371.07,0)" d="M0,70v380" style="stroke: rgb(255, 255, 255); stroke-opacity: 1; stroke-width: 1px;"/><path class="xgrid crisp" transform="translate(443.46,0)" d="M0,70v380" style="stroke: rgb(255, 255, 255); stroke-opacity: 1; stroke-width: 1px;"/><path class="xgrid crisp" transform="translate(514.6800000000001,0)" d="M0,70v380" style="stroke: rgb(255, 255, 255); stroke-opacity: 1; stroke-width: 1px;"/><path class="xgrid crisp" transform="translate(585.9,0)" d="M0,70v380" style="stroke: rgb(255, 255, 255); stroke-opacity: 1; stroke-width: 1px;"/><path class="xgrid crisp" transform="translate(654.78,0)" d="M0,70v380" style="stroke: rgb(255, 255, 255); stroke-opacity: 1; stroke-width: 1px;"/></g><g class="y"/></g><g class="zerolinelayer"/><path class="xlines-below"/><path class="ylines-below"/><g class="overlines-below"/><g class="xaxislayer-below"/><g class="yaxislayer-below"/><g class="overaxes-below"/><g class="plot" transform="translate(50, 70)" clip-path="url('#clipdef513xyplot')"><g class="scatterlayer mlayer"><g class="trace scatter trace009d3a" style="stroke-miterlimit: 2;"><g class="fills"><g><path class="js-fill" d="M656.15,380L-158.78,380L-158.78,379.2L-92.23,379.71L-91.07,379.8L-59.54,379.32L-58.38,379.32L-50.2,377.5L-49.04,376.7L-39.7,373.67L-38.53,373.65L-35.03,373.46L-33.86,373.35L-30.36,373.24L-29.19,372.03L-25.69,370.27L-24.52,369.95L-22.18,369.45L-21.02,370.12L-17.51,371.23L-16.35,370.8L-11.68,369.77L-10.51,369.13L-8.17,369.11L-7.01,368.95L-4.67,369.5L-3.5,369.77L0,369.89L1.17,370.28L2.34,370.41L3.5,369.77L5.84,369.18L7.01,368.66L10.51,366.67L11.68,365.86L15.18,362.37L16.35,361.19L19.85,358.23L21.02,356.33L25.69,345.15L26.85,343.81L29.19,333.77L30.36,332.74L33.86,329.73L35.03,330.24L37.36,327.18L38.53,325.49L40.86,325L42.03,326.79L43.2,327L44.37,331.87L45.53,335.59L46.7,343.12L50.2,349.8L51.37,350.62L53.71,357.06L54.87,355.74L57.21,360.93L58.38,361.98L59.54,362.3L60.71,364.06L63.05,366.08L64.21,366.24L66.55,366.99L67.72,367L71.22,365.27L72.39,366.02L77.06,366.68L78.22,366.04L80.56,365.44L81.73,364.67L89.9,359.29L91.07,359.14L93.4,358.88L94.57,359.2L96.91,359L98.07,362.05L101.58,362.6L102.74,361.92L103.91,362.14L105.08,361.58L106.25,361.32L107.41,359.82L112.08,358.18L113.25,358.47L114.42,355.02L115.59,355.86L117.92,357.09L119.09,358.27L122.59,360.12L123.76,360.68L129.6,361.05L130.76,360.85L133.1,360.91L134.27,360.16L136.6,361.57L137.77,361.76L145.94,362.44L147.11,363.05L149.44,363.87L150.61,363.24L151.78,363.99L152.95,363.37L157.62,364.94L158.78,366.99L159.95,367.57L161.12,369.25L163.45,369.5L164.62,369.05L168.12,368.56L169.29,368.39L170.46,367.63L171.63,367.97L176.3,369.71L177.46,369.7L179.8,370.98L180.97,370.93L185.64,369.66L186.8,368.95L198.48,368.06L199.65,367.18L208.99,357.4L210.16,357.04L212.49,356.91L213.66,357.18L214.83,357.06L215.99,361.35L217.16,359.25L218.33,358.82L223,358.7L224.17,354.7L225.33,357.45L226.5,357.79L232.34,359.75L233.51,358.68L238.18,356.97L239.34,357L244.01,361.1L245.18,361.71L246.35,363.72L247.52,363.92L248.68,363.94L249.85,365.01L252.19,365.93L253.35,366.04L259.19,365.24L260.36,367.49L261.53,367.47L262.69,366.2L266.2,366.49L267.36,366.43L268.53,364.08L269.7,364.67L272.03,364.81L273.2,367.38L276.7,365.86L277.87,365.26L280.21,365.08L281.37,363.06L283.71,365.93L284.88,367.18L287.21,369.61L288.38,369.98L293.05,374.54L294.22,375.04L308.23,378.81L309.4,378.79L317.57,379.09L318.74,379.13L325.74,378.56L326.91,378.36L333.91,377.02L335.08,376.27L337.42,375.79L338.58,374.6L339.75,374.1L340.92,372.44L351.43,368.84L352.59,368.86L356.1,368.57L357.26,368.36L364.27,368.77L365.44,369.29L370.11,368.97L371.27,368.91L373.61,368.66L374.78,369.43L378.28,369.57L379.45,369.64L387.62,370.18L388.79,370.85L394.63,372.66L395.79,372.99L401.63,374.01L402.8,374.06L406.3,374.85L407.47,374.99L410.97,375.94L412.14,376.19L419.14,376.63L420.31,376.4L435.49,377.4L436.66,377.11L444.83,377.36L446,377.24L460.01,376.27L461.17,376.84L465.84,375.35L467.01,375.24L468.18,375.36L469.35,374.15L472.85,375.24L474.02,374.53L478.69,373.19L479.85,372.08L482.19,369.3L483.36,368.68L484.53,368.48L485.69,366.36L490.36,358.96L491.53,356.95L492.7,356.61L493.87,352.1L498.54,339L499.7,337.68L500.87,337.5L502.04,333.65L504.37,329.53L505.54,329.03L509.04,328.41L510.21,329.46L512.55,332.6L513.71,332.62L514.88,334.31L516.05,334.36L518.38,333.86L519.55,332.17L523.05,321.55L524.22,324.72L525.39,324.01L526.56,312.11L531.23,264.86L532.39,264.12L533.56,261.24L534.73,229.91L537.06,197.65L538.23,186.72L540.57,150.55L541.73,148.57L544.07,139.5L545.24,126.61L548.74,96.3L549.91,92.86L553.41,41.09L554.58,28.27L556.91,7.31L558.08,6.36L559.25,0L560.41,2.51L565.08,48.2L566.25,51.45L569.75,104.93L570.92,119.8L573.26,143.65L574.42,145.9L577.93,203.21L579.09,218.1L581.43,240.65L582.6,243.69L584.93,275.73L586.1,284.34L589.6,301.29L590.77,302.31L594.27,317.66L595.44,320.78L597.78,327.71L598.94,327.98L601.28,332.92L602.45,334.27L605.95,337.29L607.12,337.39L609.45,337.27L610.62,335.97L615.29,327.16L616.46,319.17L621.13,302.08L622.29,298.92L623.46,297.98L624.63,288.8L630.47,254.78L631.63,255.03L633.97,241.93L635.14,235.35L637.47,231.47L638.64,231.63L639.81,232.5L640.97,231.11L642.14,228.58L643.31,229.33L644.48,227.95L645.64,225.14L647.98,225.17L649.15,222.98L652.65,232.36L653.82,237.26L656.15,238.72" style="fill: rgb(8, 115, 191); fill-opacity: 0.2; stroke-width: 0;"/></g></g><g class="errorbars"/><g class="lines"><path class="js-line" d="M-158.78,379.2L-92.23,379.71L-91.07,379.8L-59.54,379.32L-58.38,379.32L-50.2,377.5L-49.04,376.7L-39.7,373.67L-38.53,373.65L-35.03,373.46L-33.86,373.35L-30.36,373.24L-29.19,372.03L-25.69,370.27L-24.52,369.95L-22.18,369.45L-21.02,370.12L-17.51,371.23L-16.35,370.8L-11.68,369.77L-10.51,369.13L-8.17,369.11L-7.01,368.95L-4.67,369.5L-3.5,369.77L0,369.89L1.17,370.28L2.34,370.41L3.5,369.77L5.84,369.18L7.01,368.66L10.51,366.67L11.68,365.86L15.18,362.37L16.35,361.19L19.85,358.23L21.02,356.33L25.69,345.15L26.85,343.81L29.19,333.77L30.36,332.74L33.86,329.73L35.03,330.24L37.36,327.18L38.53,325.49L40.86,325L42.03,326.79L43.2,327L44.37,331.87L45.53,335.59L46.7,343.12L50.2,349.8L51.37,350.62L53.71,357.06L54.87,355.74L57.21,360.93L58.38,361.98L59.54,362.3L60.71,364.06L63.05,366.08L64.21,366.24L66.55,366.99L67.72,367L71.22,365.27L72.39,366.02L77.06,366.68L78.22,366.04L80.56,365.44L81.73,364.67L89.9,359.29L91.07,359.14L93.4,358.88L94.57,359.2L96.91,359L98.07,362.05L101.58,362.6L102.74,361.92L103.91,362.14L105.08,361.58L106.25,361.32L107.41,359.82L112.08,358.18L113.25,358.47L114.42,355.02L115.59,355.86L117.92,357.09L119.09,358.27L122.59,360.12L123.76,360.68L129.6,361.05L130.76,360.85L133.1,360.91L134.27,360.16L136.6,361.57L137.77,361.76L145.94,362.44L147.11,363.05L149.44,363.87L150.61,363.24L151.78,363.99L152.95,363.37L157.62,364.94L158.78,366.99L159.95,367.57L161.12,369.25L163.45,369.5L164.62,369.05L168.12,368.56L169.29,368.39L170.46,367.63L171.63,367.97L176.3,369.71L177.46,369.7L179.8,370.98L180.97,370.93L185.64,369.66L186.8,368.95L198.48,368.06L199.65,367.18L208.99,357.4L210.16,357.04L212.49,356.91L213.66,357.18L214.83,357.06L215.99,361.35L217.16,359.25L218.33,358.82L223,358.7L224.17,354.7L225.33,357.45L226.5,357.79L232.34,359.75L233.51,358.68L238.18,356.97L239.34,357L244.01,361.1L245.18,361.71L246.35,363.72L247.52,363.92L248.68,363.94L249.85,365.01L252.19,365.93L253.35,366.04L259.19,365.24L260.36,367.49L261.53,367.47L262.69,366.2L266.2,366.49L267.36,366.43L268.53,364.08L269.7,364.67L272.03,364.81L273.2,367.38L276.7,365.86L277.87,365.26L280.21,365.08L281.37,363.06L283.71,365.93L284.88,367.18L287.21,369.61L288.38,369.98L293.05,374.54L294.22,375.04L308.23,378.81L309.4,378.79L317.57,379.09L318.74,379.13L325.74,378.56L326.91,378.36L333.91,377.02L335.08,376.27L337.42,375.79L338.58,374.6L339.75,374.1L340.92,372.44L351.43,368.84L352.59,368.86L356.1,368.57L357.26,368.36L364.27,368.77L365.44,369.29L370.11,368.97L371.27,368.91L373.61,368.66L374.78,369.43L378.28,369.57L379.45,369.64L387.62,370.18L388.79,370.85L394.63,372.66L395.79,372.99L401.63,374.01L402.8,374.06L406.3,374.85L407.47,374.99L410.97,375.94L412.14,376.19L419.14,376.63L420.31,376.4L435.49,377.4L436.66,377.11L444.83,377.36L446,377.24L460.01,376.27L461.17,376.84L465.84,375.35L467.01,375.24L468.18,375.36L469.35,374.15L472.85,375.24L474.02,374.53L478.69,373.19L479.85,372.08L482.19,369.3L483.36,368.68L484.53,368.48L485.69,366.36L490.36,358.96L491.53,356.95L492.7,356.61L493.87,352.1L498.54,339L499.7,337.68L500.87,337.5L502.04,333.65L504.37,329.53L505.54,329.03L509.04,328.41L510.21,329.46L512.55,332.6L513.71,332.62L514.88,334.31L516.05,334.36L518.38,333.86L519.55,332.17L523.05,321.55L524.22,324.72L525.39,324.01L526.56,312.11L531.23,264.86L532.39,264.12L533.56,261.24L534.73,229.91L537.06,197.65L538.23,186.72L540.57,150.55L541.73,148.57L544.07,139.5L545.24,126.61L548.74,96.3L549.91,92.86L553.41,41.09L554.58,28.27L556.91,7.31L558.08,6.36L559.25,0L560.41,2.51L565.08,48.2L566.25,51.45L569.75,104.93L570.92,119.8L573.26,143.65L574.42,145.9L577.93,203.21L579.09,218.1L581.43,240.65L582.6,243.69L584.93,275.73L586.1,284.34L589.6,301.29L590.77,302.31L594.27,317.66L595.44,320.78L597.78,327.71L598.94,327.98L601.28,332.92L602.45,334.27L605.95,337.29L607.12,337.39L609.45,337.27L610.62,335.97L615.29,327.16L616.46,319.17L621.13,302.08L622.29,298.92L623.46,297.98L624.63,288.8L630.47,254.78L631.63,255.03L633.97,241.93L635.14,235.35L637.47,231.47L638.64,231.63L639.81,232.5L640.97,231.11L642.14,228.58L643.31,229.33L644.48,227.95L645.64,225.14L647.98,225.17L649.15,222.98L652.65,232.36L653.82,237.26L656.15,238.72" style="vector-effect: non-scaling-stroke; fill: none; stroke: rgb(8, 115, 191); stroke-opacity: 1; stroke-width: 0.5px; opacity: 1;"/></g><g class="points"/><g class="text"/></g><g class="trace scatter trace11ada5" style="stroke-miterlimit: 2;"><g class="fills"><g><path class="js-fill" d="M667.83,380L656.15,380L656.15,238.72L657.32,275.66L658.49,270.92L663.16,293.63L664.32,293.98L665.49,278.21L666.66,296.09L667.83,303.18" style="fill: rgb(8, 115, 191); fill-opacity: 0.4; stroke-width: 0;"/></g></g><g class="errorbars"/><g class="lines"><path class="js-line" d="M656.15,238.72L657.32,275.66L658.49,270.92L663.16,293.63L664.32,293.98L665.49,278.21L666.66,296.09L667.83,303.18" style="vector-effect: non-scaling-stroke; fill: none; stroke: rgb(8, 115, 191); stroke-opacity: 1; stroke-width: 2px; opacity: 1;"/></g><g class="points"/><g class="text"/></g><g class="trace scatter trace24487f" style="stroke-miterlimit: 2; opacity: 1;"><g class="fills"/><g class="errorbars"/><g class="lines"/><g class="points"><path class="point" transform="translate(667.83,303.18)" d="M15,0A15,15 0 1,1 0,-15A15,15 0 0,1 15,0Z" style="opacity: 1; stroke-width: 0px; fill: rgb(8, 115, 191); fill-opacity: 1;"/></g><g class="text"/></g></g></g><g class="overplot"/><path class="xlines-above crisp" style="fill: none; stroke-width: 1px; stroke: rgb(0, 0, 0); stroke-opacity: 0;" d=""/><path class="ylines-above crisp" style="fill: none;" d="M0,0"/><g class="overlines-above"/><g class="xaxislayer-above"><path class="xtick ticks crisp" d="M0,450v-5" transform="translate(88.53,0)" style="stroke: rgb(68, 68, 68); stroke-opacity: 1; stroke-width: 1px;"/><path class="xtick ticks crisp" d="M0,450v-5" transform="translate(159.75,0)" style="stroke: rgb(68, 68, 68); stroke-opacity: 1; stroke-width: 1px;"/><path class="xtick ticks crisp" d="M0,450v-5" transform="translate(228.63,0)" style="stroke: rgb(68, 68, 68); stroke-opacity: 1; stroke-width: 1px;"/><path class="xtick ticks crisp" d="M0,450v-5" transform="translate(299.85,0)" style="stroke: rgb(68, 68, 68); stroke-opacity: 1; stroke-width: 1px;"/><path class="xtick ticks crisp" d="M0,450v-5" transform="translate(371.07,0)" style="stroke: rgb(68, 68, 68); stroke-opacity: 1; stroke-width: 1px;"/><path class="xtick ticks crisp" d="M0,450v-5" transform="translate(443.46,0)" style="stroke: rgb(68, 68, 68); stroke-opacity: 1; stroke-width: 1px;"/><path class="xtick ticks crisp" d="M0,450v-5" transform="translate(514.6800000000001,0)" style="stroke: rgb(68, 68, 68); stroke-opacity: 1; stroke-width: 1px;"/><path class="xtick ticks crisp" d="M0,450v-5" transform="translate(585.9,0)" style="stroke: rgb(68, 68, 68); stroke-opacity: 1; stroke-width: 1px;"/><path class="xtick ticks crisp" d="M0,450v-5" transform="translate(654.78,0)" style="stroke: rgb(68, 68, 68); stroke-opacity: 1; stroke-width: 1px;"/><g class="xtick"><text text-anchor="middle" x="0" y="469" transform="translate(88.53,0)" style="font-family: 'Open Sans', verdana, arial, sans-serif; font-size: 18px; fill: rgb(42, 63, 95); fill-opacity: 1; white-space: pre;">01/11</text></g><g class="xtick"><text text-anchor="middle" x="0" y="469" transform="translate(159.75,0)" style="font-family: 'Open Sans', verdana, arial, sans-serif; font-size: 18px; fill: rgb(42, 63, 95); fill-opacity: 1; white-space: pre;">01/01</text></g><g class="xtick"><text text-anchor="middle" x="0" y="469" transform="translate(228.63,0)" style="font-family: 'Open Sans', verdana, arial, sans-serif; font-size: 18px; fill: rgb(42, 63, 95); fill-opacity: 1; white-space: pre;">01/03</text></g><g class="xtick"><text text-anchor="middle" x="0" y="469" transform="translate(299.85,0)" style="font-family: 'Open Sans', verdana, arial, sans-serif; font-size: 18px; fill: rgb(42, 63, 95); fill-opacity: 1; white-space: pre;">01/05</text></g><g class="xtick"><text text-anchor="middle" x="0" y="469" transform="translate(371.07,0)" style="font-family: 'Open Sans', verdana, arial, sans-serif; font-size: 18px; fill: rgb(42, 63, 95); fill-opacity: 1; white-space: pre;">01/07</text></g><g class="xtick"><text text-anchor="middle" x="0" y="469" transform="translate(443.46,0)" style="font-family: 'Open Sans', verdana, arial, sans-serif; font-size: 18px; fill: rgb(42, 63, 95); fill-opacity: 1; white-space: pre;">01/09</text></g><g class="xtick"><text text-anchor="middle" x="0" y="469" transform="translate(514.6800000000001,0)" style="font-family: 'Open Sans', verdana, arial, sans-serif; font-size: 18px; fill: rgb(42, 63, 95); fill-opacity: 1; white-space: pre;">01/11</text></g><g class="xtick"><text text-anchor="middle" x="0" y="469" transform="translate(585.9,0)" style="font-family: 'Open Sans', verdana, arial, sans-serif; font-size: 18px; fill: rgb(42, 63, 95); fill-opacity: 1; white-space: pre;">01/01</text></g><g class="xtick"><text text-anchor="middle" x="0" y="469" transform="translate(654.78,0)" style="font-family: 'Open Sans', verdana, arial, sans-serif; font-size: 18px; fill: rgb(42, 63, 95); fill-opacity: 1; white-space: pre;">01/03</text></g><g class="xtick"><text text-anchor="middle" x="0" y="469" transform="translate(726,0)" style="font-family: 'Open Sans', verdana, arial, sans-serif; font-size: 18px; fill: rgb(42, 63, 95); fill-opacity: 1; white-space: pre;">01/05</text></g></g><g class="yaxislayer-above"/><g class="overaxes-above"/></g></g><g class="polarlayer"/><g class="ternarylayer"/><g class="geolayer"/><g class="funnelarealayer"/><g class="pielayer"/><g class="treemaplayer"/><g class="sunburstlayer"/><g class="glimages"/><defs id="topdefs-def513"><g class="clips"/></defs><g class="layer-above"><g class="imagelayer"/><g class="shapelayer"><path data-index="0" fill-rule="evenodd" d="M-606.15,445.25L247.31,445.25" clip-path="url('#clipdef513xy')" style="opacity: 1; stroke: rgb(255, 0, 0); stroke-opacity: 1; fill: rgb(0, 0, 0); fill-opacity: 0; stroke-dasharray: 3px, 3px; stroke-width: 1.5px;"/></g></g><g class="infolayer"><g class="g-gtitle"><text class="gtitle" x="375" y="25" text-anchor="middle" dy="0.7em" style="font-family: 'Open Sans', verdana, arial, sans-serif; font-size: 50px; fill: rgb(42, 63, 95); opacity: 1; font-weight: normal; white-space: pre;"><tspan style="font-weight:bold">Côte-d'or (21)</tspan></text></g><g class="g-xtitle"/><g class="annotation" data-index="0" style="opacity: 1;"><g class="annotation-text-g" transform="rotate(0,675.83,313.18)"><g class="cursor-pointer" transform="translate(618, 277)"><rect class="bg" x="0.5" y="0.5" width="115" height="71" style="stroke-width: 1px; stroke: rgb(0, 0, 0); stroke-opacity: 0; fill: rgb(255, 255, 255); fill-opacity: 0.6;"/><text class="annotation-text" text-anchor="middle" x="57.8125" y="55.5" style="font-family: 'Open Sans', verdana, arial, sans-serif; font-size: 50px; fill: rgb(8, 115, 191); fill-opacity: 1; white-space: pre;"> <tspan style="font-weight:bold">808 </tspan></text></g></g><g class="annotation-arrow-g" style="opacity: 1;"><path d="M704.23,348.68L715.83,363.18" style="stroke-width: 1px; stroke: rgb(8, 115, 191); stroke-opacity: 1; stroke-dasharray: 0px, 0px, 18.5691px, 18.5691px;"/></g></g></g></svg>