<svg class="main-svg" xmlns="http://www.w3.org/2000/svg" xmlns:xlink="http://www.w3.org/1999/xlink" width="1125" height="750" style="" viewBox="0 0 750 500"><rect x="0" y="0" width="750" height="500" style="fill: rgb(0, 0, 0); fill-opacity: 0;"/><defs id="defs-9f0399"><g class="clips"><clipPath id="clip9f0399xyplot" class="plotclip"><rect width="700" height="380"/></clipPath><clipPath class="axesclip" id="clip9f0399x"><rect x="50" y="0" width="700" height="500"/></clipPath><clipPath class="axesclip" id="clip9f0399y"><rect x="0" y="70" width="750" height="380"/></clipPath><clipPath class="axesclip" id="clip9f0399xy"><rect x="50" y="70" width="700" height="380"/></clipPath></g><g class="gradients"/></defs><g class="bglayer"><rect class="bg" x="50" y="70" width="700" height="380" style="fill: rgb(0, 0, 0); fill-opacity: 0; stroke-width: 0;"/></g><g class="layer-below"><g class="imagelayer"/><g class="shapelayer"/></g><g class="cartesianlayer"><g class="subplot xy"><g class="layer-subplot"><g class="shapelayer"/><g class="imagelayer"/></g><g class="gridlayer"><g class="x"><path class="xgrid crisp" transform="translate(91.77000000000001,0)" d="M0,70v380" style="stroke: rgb(255, 255, 255); stroke-opacity: 1; stroke-width: 1px;"/><path class="xgrid crisp" transform="translate(168.99,0)" d="M0,70v380" style="stroke: rgb(255, 255, 255); stroke-opacity: 1; stroke-width: 1px;"/><path class="xgrid crisp" transform="translate(243.67,0)" d="M0,70v380" style="stroke: rgb(255, 255, 255); stroke-opacity: 1; stroke-width: 1px;"/><path class="xgrid crisp" transform="translate(320.89,0)" d="M0,70v380" style="stroke: rgb(255, 255, 255); stroke-opacity: 1; stroke-width: 1px;"/><path class="xgrid crisp" transform="translate(398.1,0)" d="M0,70v380" style="stroke: rgb(255, 255, 255); stroke-opacity: 1; stroke-width: 1px;"/><path class="xgrid crisp" transform="translate(476.58,0)" d="M0,70v380" style="stroke: rgb(255, 255, 255); stroke-opacity: 1; stroke-width: 1px;"/><path class="xgrid crisp" transform="translate(553.8,0)" d="M0,70v380" style="stroke: rgb(255, 255, 255); stroke-opacity: 1; stroke-width: 1px;"/><path class="xgrid crisp" transform="translate(631.01,0)" d="M0,70v380" style="stroke: rgb(255, 255, 255); stroke-opacity: 1; stroke-width: 1px;"/><path class="xgrid crisp" transform="translate(705.7,0)" d="M0,70v380" style="stroke: rgb(255, 255, 255); stroke-opacity: 1; stroke-width: 1px;"/></g><g class="y"/></g><g class="zerolinelayer"/><path class="xlines-below"/><path class="ylines-below"/><g class="overlines-below"/><g class="xaxislayer-below"/><g class="yaxislayer-below"/><g class="overaxes-below"/><g class="plot" transform="translate(50, 70)" clip-path="url('#clip9f0399xyplot')"><g class="scatterlayer mlayer"><g class="trace scatter tracefae93e" style="stroke-miterlimit: 2;"><g class="fills"><g><path class="js-fill" d="M678.48,380L-172.15,380L-172.15,379.74L-65.82,379.26L-64.56,379.15L-35.44,375.14L-34.18,374.78L-31.65,373.91L-30.38,373.46L-25.32,373.15L-24.05,373.15L-18.99,372.76L-17.72,372.86L-10.13,372.76L-8.86,372.82L0,373.17L1.27,373.03L3.8,372.37L5.06,371.95L8.86,370.27L10.13,369.86L11.39,369.86L12.66,368.49L16.46,364.88L17.72,362.79L20.25,361.89L21.52,359.46L27.85,349.01L29.11,348.69L32.91,339.69L34.18,338.72L35.44,337.04L36.71,337.34L37.97,337.29L39.24,336.42L40.51,336.35L41.77,337.31L44.3,341.33L45.57,341.28L46.84,341.3L48.1,345.08L49.37,348.29L50.63,354.41L51.9,354.88L53.16,357.19L56.96,360.6L58.23,362.86L59.49,361.34L60.76,364.26L63.29,366.12L64.56,366.07L67.09,368.36L68.35,368.86L74.68,369.38L75.95,370.01L82.28,369.73L83.54,369.42L86.08,368.77L87.34,369.04L89.87,368.87L91.14,369L93.67,369.68L94.94,369.75L98.73,370.93L100,370.96L103.8,371.5L105.06,371.47L106.33,372.83L107.59,372.57L117.72,371.87L118.99,371.28L122.78,370.36L124.05,368.8L131.65,370.23L132.91,369.95L135.44,369.91L136.71,369.33L140.51,368.52L141.77,368.8L144.3,368.79L145.57,369.54L149.37,369.96L150.63,369.61L154.43,369.91L155.7,370.31L160.76,373.4L162.03,373.57L164.56,374.85L165.82,374.89L169.62,375.42L170.89,375.35L179.75,375.88L181.01,376L201.27,376.61L202.53,376.33L220.25,373.9L221.52,373.96L231.65,372.09L232.91,372.05L234.18,373.71L235.44,373.03L237.97,373.18L239.24,373.5L241.77,373.59L243.04,371.88L245.57,372.5L246.84,372.44L250.63,372.41L251.9,373.15L256.96,373.3L258.23,373.03L265.82,373.24L267.09,373.8L281.01,374.52L282.28,375.09L292.41,373.88L293.67,373.4L294.94,373.47L296.2,374.32L298.73,372.41L300,371.71L302.53,371.17L303.8,371.16L305.06,369.84L306.33,371.31L308.86,372.52L310.13,373.47L317.72,375.31L318.99,375.38L324.05,376.17L325.32,376.62L334.18,377.76L335.44,377.91L340.51,377.96L341.77,377.84L350.63,376.02L351.9,375.52L359.49,373.62L360.76,374.26L364.56,370.87L365.82,370.67L372.15,358.38L373.42,357.55L374.68,357.52L375.95,355.93L378.48,355.69L379.75,356L389.87,358.1L391.14,357.32L393.67,357.64L394.94,358.51L403.8,358.5L405.06,359.24L407.59,361.13L408.86,362.1L410.13,362.12L411.39,363.29L416.46,368.16L417.72,368.63L418.99,368.83L420.25,370.19L422.78,371.21L424.05,371.21L429.11,371.96L430.38,372.16L435.44,373.49L436.71,373.5L448.1,375.53L449.37,375.94L455.7,376.21L456.96,376.2L464.56,377.03L465.82,377.29L477.22,376.01L478.48,375.82L487.34,373.1L488.61,373.33L496.2,373.47L497.47,372.95L498.73,372.7L500,373.62L502.53,372.95L503.8,372.89L507.59,373.38L508.86,371.56L512.66,372.02L513.92,370.62L517.72,368.33L518.99,367.08L522.78,361.07L524.05,360.09L525.32,359.84L526.58,357.29L532.91,344.69L534.18,344.35L536.71,338.31L537.97,336.95L541.77,331.55L543.04,331.42L544.3,329.41L545.57,329.1L548.1,330.22L549.37,333.06L553.16,336.12L554.43,337.1L555.7,337.37L556.96,338.77L559.49,339.2L560.76,338.83L562.03,340.41L563.29,339.64L565.82,330.59L567.09,325.38L568.35,327.19L569.62,325.32L574.68,269.8L575.95,258.31L577.22,257.32L578.48,254.68L582.28,196.19L583.54,182.96L586.08,147.25L587.34,143.9L588.61,134.52L589.87,132.99L593.67,118.11L594.94,113.36L596.2,111.24L597.47,97.86L603.8,35.27L605.06,32.85L607.59,6.49L608.86,0L611.39,2.37L612.66,5.7L613.92,7.44L615.19,17.88L621.52,76.87L622.78,80.2L626.58,141.28L627.85,159.19L630.38,189.4L631.65,193.59L634.18,234.89L635.44,246.84L639.24,273.67L640.51,275.31L643.04,294.71L644.3,301.5L648.1,312.09L649.37,312.62L651.9,316.33L653.16,317.1L655.7,320.49L656.96,319.88L663.29,320.55L664.56,319.08L667.09,319.39L668.35,317.97L669.62,316.47L670.89,316.48L672.15,315.11L673.42,314.91L674.68,314.12L675.95,314.27L678.48,309.11" style="fill: rgb(8, 115, 191); fill-opacity: 0.2; stroke-width: 0;"/></g></g><g class="errorbars"/><g class="lines"><path class="js-line" d="M-172.15,379.74L-65.82,379.26L-64.56,379.15L-35.44,375.14L-34.18,374.78L-31.65,373.91L-30.38,373.46L-25.32,373.15L-24.05,373.15L-18.99,372.76L-17.72,372.86L-10.13,372.76L-8.86,372.82L0,373.17L1.27,373.03L3.8,372.37L5.06,371.95L8.86,370.27L10.13,369.86L11.39,369.86L12.66,368.49L16.46,364.88L17.72,362.79L20.25,361.89L21.52,359.46L27.85,349.01L29.11,348.69L32.91,339.69L34.18,338.72L35.44,337.04L36.71,337.34L37.97,337.29L39.24,336.42L40.51,336.35L41.77,337.31L44.3,341.33L45.57,341.28L46.84,341.3L48.1,345.08L49.37,348.29L50.63,354.41L51.9,354.88L53.16,357.19L56.96,360.6L58.23,362.86L59.49,361.34L60.76,364.26L63.29,366.12L64.56,366.07L67.09,368.36L68.35,368.86L74.68,369.38L75.95,370.01L82.28,369.73L83.54,369.42L86.08,368.77L87.34,369.04L89.87,368.87L91.14,369L93.67,369.68L94.94,369.75L98.73,370.93L100,370.96L103.8,371.5L105.06,371.47L106.33,372.83L107.59,372.57L117.72,371.87L118.99,371.28L122.78,370.36L124.05,368.8L131.65,370.23L132.91,369.95L135.44,369.91L136.71,369.33L140.51,368.52L141.77,368.8L144.3,368.79L145.57,369.54L149.37,369.96L150.63,369.61L154.43,369.91L155.7,370.31L160.76,373.4L162.03,373.57L164.56,374.85L165.82,374.89L169.62,375.42L170.89,375.35L179.75,375.88L181.01,376L201.27,376.61L202.53,376.33L220.25,373.9L221.52,373.96L231.65,372.09L232.91,372.05L234.18,373.71L235.44,373.03L237.97,373.18L239.24,373.5L241.77,373.59L243.04,371.88L245.57,372.5L246.84,372.44L250.63,372.41L251.9,373.15L256.96,373.3L258.23,373.03L265.82,373.24L267.09,373.8L281.01,374.52L282.28,375.09L292.41,373.88L293.67,373.4L294.94,373.47L296.2,374.32L298.73,372.41L300,371.71L302.53,371.17L303.8,371.16L305.06,369.84L306.33,371.31L308.86,372.52L310.13,373.47L317.72,375.31L318.99,375.38L324.05,376.17L325.32,376.62L334.18,377.76L335.44,377.91L340.51,377.96L341.77,377.84L350.63,376.02L351.9,375.52L359.49,373.62L360.76,374.26L364.56,370.87L365.82,370.67L372.15,358.38L373.42,357.55L374.68,357.52L375.95,355.93L378.48,355.69L379.75,356L389.87,358.1L391.14,357.32L393.67,357.64L394.94,358.51L403.8,358.5L405.06,359.24L407.59,361.13L408.86,362.1L410.13,362.12L411.39,363.29L416.46,368.16L417.72,368.63L418.99,368.83L420.25,370.19L422.78,371.21L424.05,371.21L429.11,371.96L430.38,372.16L435.44,373.49L436.71,373.5L448.1,375.53L449.37,375.94L455.7,376.21L456.96,376.2L464.56,377.03L465.82,377.29L477.22,376.01L478.48,375.82L487.34,373.1L488.61,373.33L496.2,373.47L497.47,372.95L498.73,372.7L500,373.62L502.53,372.95L503.8,372.89L507.59,373.38L508.86,371.56L512.66,372.02L513.92,370.62L517.72,368.33L518.99,367.08L522.78,361.07L524.05,360.09L525.32,359.84L526.58,357.29L532.91,344.69L534.18,344.35L536.71,338.31L537.97,336.95L541.77,331.55L543.04,331.42L544.3,329.41L545.57,329.1L548.1,330.22L549.37,333.06L553.16,336.12L554.43,337.1L555.7,337.37L556.96,338.77L559.49,339.2L560.76,338.83L562.03,340.41L563.29,339.64L565.82,330.59L567.09,325.38L568.35,327.19L569.62,325.32L574.68,269.8L575.95,258.31L577.22,257.32L578.48,254.68L582.28,196.19L583.54,182.96L586.08,147.25L587.34,143.9L588.61,134.52L589.87,132.99L593.67,118.11L594.94,113.36L596.2,111.24L597.47,97.86L603.8,35.27L605.06,32.85L607.59,6.49L608.86,0L611.39,2.37L612.66,5.7L613.92,7.44L615.19,17.88L621.52,76.87L622.78,80.2L626.58,141.28L627.85,159.19L630.38,189.4L631.65,193.59L634.18,234.89L635.44,246.84L639.24,273.67L640.51,275.31L643.04,294.71L644.3,301.5L648.1,312.09L649.37,312.62L651.9,316.33L653.16,317.1L655.7,320.49L656.96,319.88L663.29,320.55L664.56,319.08L667.09,319.39L668.35,317.97L669.62,316.47L670.89,316.48L672.15,315.11L673.42,314.91L674.68,314.12L675.95,314.27L678.48,309.11" style="vector-effect: non-scaling-stroke; fill: none; stroke: rgb(8, 115, 191); stroke-opacity: 1; stroke-width: 0.5px; opacity: 1;"/></g><g class="points"/><g class="text"/></g><g class="trace scatter tracee7c5ff" style="stroke-miterlimit: 2;"><g class="fills"><g><path class="js-fill" d="M691.14,380L678.48,380L678.48,309.11L681.01,304.51L682.28,302.84L684.81,302.77L686.08,303.66L689.87,308.04L691.14,311.02" style="fill: rgb(8, 115, 191); fill-opacity: 0.4; stroke-width: 0;"/></g></g><g class="errorbars"/><g class="lines"><path class="js-line" d="M678.48,309.11L681.01,304.51L682.28,302.84L684.81,302.77L686.08,303.66L689.87,308.04L691.14,311.02" style="vector-effect: non-scaling-stroke; fill: none; stroke: rgb(8, 115, 191); stroke-opacity: 1; stroke-width: 2px; opacity: 1;"/></g><g class="points"/><g class="text"/></g><g class="trace scatter trace747305" style="stroke-miterlimit: 2; opacity: 1;"><g class="fills"/><g class="errorbars"/><g class="lines"/><g class="points"><path class="point" transform="translate(691.14,311.02)" d="M15,0A15,15 0 1,1 0,-15A15,15 0 0,1 15,0Z" style="opacity: 1; stroke-width: 0px; fill: rgb(8, 115, 191); fill-opacity: 1;"/></g><g class="text"/></g></g></g><g class="overplot"/><path class="xlines-above crisp" style="fill: none; stroke-width: 1px; stroke: rgb(0, 0, 0); stroke-opacity: 0;" d=""/><path class="ylines-above crisp" style="fill: none;" d="M0,0"/><g class="overlines-above"/><g class="xaxislayer-above"><path class="xtick ticks crisp" d="M0,450v-5" transform="translate(91.77000000000001,0)" style="stroke: rgb(68, 68, 68); stroke-opacity: 1; stroke-width: 1px;"/><path class="xtick ticks crisp" d="M0,450v-5" transform="translate(168.99,0)" style="stroke: rgb(68, 68, 68); stroke-opacity: 1; stroke-width: 1px;"/><path class="xtick ticks crisp" d="M0,450v-5" transform="translate(243.67,0)" style="stroke: rgb(68, 68, 68); stroke-opacity: 1; stroke-width: 1px;"/><path class="xtick ticks crisp" d="M0,450v-5" transform="translate(320.89,0)" style="stroke: rgb(68, 68, 68); stroke-opacity: 1; stroke-width: 1px;"/><path class="xtick ticks crisp" d="M0,450v-5" transform="translate(398.1,0)" style="stroke: rgb(68, 68, 68); stroke-opacity: 1; stroke-width: 1px;"/><path class="xtick ticks crisp" d="M0,450v-5" transform="translate(476.58,0)" style="stroke: rgb(68, 68, 68); stroke-opacity: 1; stroke-width: 1px;"/><path class="xtick ticks crisp" d="M0,450v-5" transform="translate(553.8,0)" style="stroke: rgb(68, 68, 68); stroke-opacity: 1; stroke-width: 1px;"/><path class="xtick ticks crisp" d="M0,450v-5" transform="translate(631.01,0)" style="stroke: rgb(68, 68, 68); stroke-opacity: 1; stroke-width: 1px;"/><path class="xtick ticks crisp" d="M0,450v-5" transform="translate(705.7,0)" style="stroke: rgb(68, 68, 68); stroke-opacity: 1; stroke-width: 1px;"/><g class="xtick"><text text-anchor="middle" x="0" y="469" transform="translate(91.77000000000001,0)" style="font-family: 'Open Sans', verdana, arial, sans-serif; font-size: 18px; fill: rgb(42, 63, 95); fill-opacity: 1; white-space: pre;">01/11</text></g><g class="xtick"><text text-anchor="middle" x="0" y="469" transform="translate(168.99,0)" style="font-family: 'Open Sans', verdana, arial, sans-serif; font-size: 18px; fill: rgb(42, 63, 95); fill-opacity: 1; white-space: pre;">01/01</text></g><g class="xtick"><text text-anchor="middle" x="0" y="469" transform="translate(243.67,0)" style="font-family: 'Open Sans', verdana, arial, sans-serif; font-size: 18px; fill: rgb(42, 63, 95); fill-opacity: 1; white-space: pre;">01/03</text></g><g class="xtick"><text text-anchor="middle" x="0" y="469" transform="translate(320.89,0)" style="font-family: 'Open Sans', verdana, arial, sans-serif; font-size: 18px; fill: rgb(42, 63, 95); fill-opacity: 1; white-space: pre;">01/05</text></g><g class="xtick"><text text-anchor="middle" x="0" y="469" transform="translate(398.1,0)" style="font-family: 'Open Sans', verdana, arial, sans-serif; font-size: 18px; fill: rgb(42, 63, 95); fill-opacity: 1; white-space: pre;">01/07</text></g><g class="xtick"><text text-anchor="middle" x="0" y="469" transform="translate(476.58,0)" style="font-family: 'Open Sans', verdana, arial, sans-serif; font-size: 18px; fill: rgb(42, 63, 95); fill-opacity: 1; white-space: pre;">01/09</text></g><g class="xtick"><text text-anchor="middle" x="0" y="469" transform="translate(553.8,0)" style="font-family: 'Open Sans', verdana, arial, sans-serif; font-size: 18px; fill: rgb(42, 63, 95); fill-opacity: 1; white-space: pre;">01/11</text></g><g class="xtick"><text text-anchor="middle" x="0" y="469" transform="translate(631.01,0)" style="font-family: 'Open Sans', verdana, arial, sans-serif; font-size: 18px; fill: rgb(42, 63, 95); fill-opacity: 1; white-space: pre;">01/01</text></g><g class="xtick"><text text-anchor="middle" x="0" y="469" transform="translate(705.7,0)" style="font-family: 'Open Sans', verdana, arial, sans-serif; font-size: 18px; fill: rgb(42, 63, 95); fill-opacity: 1; white-space: pre;">01/03</text></g></g><g class="yaxislayer-above"/><g class="overaxes-above"/></g></g><g class="polarlayer"/><g class="ternarylayer"/><g class="geolayer"/><g class="funnelarealayer"/><g class="pielayer"/><g class="treemaplayer"/><g class="sunburstlayer"/><g class="glimages"/><defs id="topdefs-9f0399"><g class="clips"/></defs><g class="layer-above"><g class="imagelayer"/><g class="shapelayer"><path data-index="0" fill-rule="evenodd" d="M-661.39,445.99L263.91999999999996,445.99" clip-path="url('#clip9f0399xy')" style="opacity: 1; stroke: rgb(255, 0, 0); stroke-opacity: 1; fill: rgb(0, 0, 0); fill-opacity: 0; stroke-dasharray: 3px, 3px; stroke-width: 1.5px;"/></g></g><g class="infolayer"><g class="g-gtitle"><text class="gtitle" x="375" y="25" text-anchor="middle" dy="0.7em" style="font-family: 'Open Sans', verdana, arial, sans-serif; font-size: 50px; fill: rgb(42, 63, 95); opacity: 1; font-weight: normal; white-space: pre;"><tspan style="font-weight:bold">Pyrénées-Atlantiques (64)</tspan></text></g><g class="g-xtitle"/><g class="annotation" data-index="0" style="opacity: 1;"><g class="annotation-text-g" transform="rotate(0,699.14,321.02)"><g class="cursor-pointer" transform="translate(641, 285)"><rect class="bg" x="0.5" y="0.5" width="115" height="71" style="stroke-width: 1px; stroke: rgb(0, 0, 0); stroke-opacity: 0; fill: rgb(255, 255, 255); fill-opacity: 0.6;"/><text class="annotation-text" text-anchor="middle" x="57.8125" y="55.5" style="font-family: 'Open Sans', verdana, arial, sans-serif; font-size: 50px; fill: rgb(8, 115, 191); fill-opacity: 1; white-space: pre;"> <tspan style="font-weight:bold">860 </tspan></text></g></g><g class="annotation-arrow-g" style="opacity: 1;"><path d="M727.54,356.52L739.14,371.02" style="stroke-width: 1px; stroke: rgb(8, 115, 191); stroke-opacity: 1; stroke-dasharray: 0px, 0px, 18.5691px, 18.5691px;"/></g></g></g></svg>