<svg class="main-svg" xmlns="http://www.w3.org/2000/svg" xmlns:xlink="http://www.w3.org/1999/xlink" width="1125" height="750" style="" viewBox="0 0 750 500"><rect x="0" y="0" width="750" height="500" style="fill: rgb(0, 0, 0); fill-opacity: 0;"/><defs id="defs-90a007"><g class="clips"><clipPath id="clip90a007xyplot" class="plotclip"><rect width="684" height="380"/></clipPath><clipPath class="axesclip" id="clip90a007x"><rect x="50" y="0" width="684" height="500"/></clipPath><clipPath class="axesclip" id="clip90a007y"><rect x="0" y="70" width="750" height="380"/></clipPath><clipPath class="axesclip" id="clip90a007xy"><rect x="50" y="70" width="684" height="380"/></clipPath></g><g class="gradients"/></defs><g class="bglayer"><rect class="bg" x="50" y="70" width="684" height="380" style="fill: rgb(0, 0, 0); fill-opacity: 0; stroke-width: 0;"/></g><g class="layer-below"><g class="imagelayer"/><g class="shapelayer"/></g><g class="cartesianlayer"><g class="subplot xy"><g class="layer-subplot"><g class="shapelayer"/><g class="imagelayer"/></g><g class="gridlayer"><g class="x"><path class="xgrid crisp" transform="translate(93.08,0)" d="M0,70v380" style="stroke: rgb(255, 255, 255); stroke-opacity: 1; stroke-width: 1px;"/><path class="xgrid crisp" transform="translate(172.7,0)" d="M0,70v380" style="stroke: rgb(255, 255, 255); stroke-opacity: 1; stroke-width: 1px;"/><path class="xgrid crisp" transform="translate(249.72,0)" d="M0,70v380" style="stroke: rgb(255, 255, 255); stroke-opacity: 1; stroke-width: 1px;"/><path class="xgrid crisp" transform="translate(329.34,0)" d="M0,70v380" style="stroke: rgb(255, 255, 255); stroke-opacity: 1; stroke-width: 1px;"/><path class="xgrid crisp" transform="translate(408.97,0)" d="M0,70v380" style="stroke: rgb(255, 255, 255); stroke-opacity: 1; stroke-width: 1px;"/><path class="xgrid crisp" transform="translate(489.9,0)" d="M0,70v380" style="stroke: rgb(255, 255, 255); stroke-opacity: 1; stroke-width: 1px;"/><path class="xgrid crisp" transform="translate(569.53,0)" d="M0,70v380" style="stroke: rgb(255, 255, 255); stroke-opacity: 1; stroke-width: 1px;"/><path class="xgrid crisp" transform="translate(649.15,0)" d="M0,70v380" style="stroke: rgb(255, 255, 255); stroke-opacity: 1; stroke-width: 1px;"/><path class="xgrid crisp" transform="translate(726.17,0)" d="M0,70v380" style="stroke: rgb(255, 255, 255); stroke-opacity: 1; stroke-width: 1px;"/></g><g class="y"/></g><g class="zerolinelayer"/><path class="xlines-below"/><path class="ylines-below"/><g class="overlines-below"/><g class="xaxislayer-below"/><g class="yaxislayer-below"/><g class="overaxes-below"/><g class="plot" transform="translate(50, 70)" clip-path="url('#clip90a007xyplot')"><g class="scatterlayer mlayer"><g class="trace scatter trace817377" style="stroke-miterlimit: 2;"><g class="fills"><g><path class="js-fill" d="M661.81,380L-177.53,380L-177.53,379.75L-107.04,379.41L-105.73,379.55L-86.15,379.21L-84.85,379.19L-61.35,377.62L-60.05,377.24L-44.38,373.86L-43.08,373.83L-37.85,371.16L-36.55,370.52L-32.63,370.05L-31.33,370.46L-28.72,371.2L-27.41,371.82L-15.66,371.75L-14.36,371.86L-11.75,371.95L-10.44,372.3L-1.31,371.2L0,370.68L3.92,369.78L5.22,368.9L7.83,367.04L9.14,365.38L11.75,364.14L13.05,362.19L15.66,358.72L16.97,356.27L20.89,356.16L22.19,354.7L23.5,353.26L24.8,350.35L28.72,336.19L30.02,335.85L32.63,317.13L33.94,312.51L35.24,308.31L36.55,307.86L39.16,306.97L40.47,307.5L43.08,309.83L44.38,312.37L45.69,312.89L46.99,315.06L48.3,315.56L49.6,321.3L50.91,324.63L52.21,334.2L56.13,343.35L57.44,343.26L60.05,352.26L61.35,350.53L63.96,358.61L65.27,359.63L66.57,359.89L67.88,362.41L69.18,364.16L70.49,364.39L73.1,366.22L74.4,365.9L77.02,366.08L78.32,366.69L80.93,366.43L82.24,366.22L86.15,366.4L87.46,366.09L91.37,365.52L92.68,364.72L93.98,364.66L95.29,362.69L97.9,361.64L99.21,361.62L101.82,360.8L103.12,360.74L104.43,361.03L105.73,360.48L108.34,359.42L109.65,362.52L116.18,363.97L117.48,363.71L118.79,363.71L120.09,362.52L121.4,362.44L122.7,359.99L125.31,358.26L126.62,356.88L127.92,353.44L129.23,354.16L131.84,355.07L133.15,355.29L134.45,356.23L135.76,355.86L140.98,353.78L142.28,352.69L143.59,351.99L144.89,352.73L148.81,352.67L150.11,354.12L152.73,355.55L154.03,355.7L157.95,356.02L159.25,356.81L167.08,358.29L168.39,357.45L169.69,357.4L171,358.26L173.61,359.42L174.92,359.21L176.22,359.31L177.53,360.58L180.14,360.99L181.44,360.92L185.36,361.01L186.66,360.05L195.8,360.62L197.11,360.78L201.02,360.87L202.33,360.64L204.94,360.46L206.24,359.72L215.38,357.43L216.69,355.66L220.6,351.99L221.91,351.72L224.52,347.11L225.82,345.66L229.74,341.94L231.05,341.83L233.66,338.25L234.96,338.28L237.57,338.55L238.88,338.25L240.18,338.14L241.49,346.61L244.1,342.99L245.4,342.9L246.71,344.62L248.02,344.78L249.32,344.67L250.63,337.91L253.24,344.08L254.54,344.53L255.85,343.99L257.15,344.41L261.07,346.48L262.37,346.27L263.68,346.3L264.98,347.88L266.29,348.68L267.6,348.4L270.21,350.4L271.51,352.3L272.82,354.32L274.12,354.03L275.43,355.95L276.73,356.04L280.65,360.42L281.95,361.39L283.26,364.07L284.56,364.14L285.87,364.22L287.18,365.93L291.09,370.21L292.4,370.37L295.01,370.12L296.31,370.93L298.92,370.96L300.23,370.03L302.84,370.87L304.15,371.05L305.45,373.09L306.76,372.72L309.37,373.58L310.67,373.79L313.28,374.04L314.59,373.18L317.2,374.74L318.5,374.92L338.08,378.85L339.39,378.84L360.27,378.37L361.58,378.23L365.5,377.78L366.8,377.75L369.41,377.12L370.72,376.24L372.02,376.03L373.33,374.43L375.94,372.04L377.24,371.88L385.08,356.02L386.38,355.38L388.99,347.32L390.3,345.53L394.21,339.07L395.52,339.18L400.74,335.01L402.05,334.49L404.66,334.28L405.96,333.42L407.27,332L408.57,332.47L411.18,331.77L412.49,331.07L416.4,331.61L417.71,330.61L419.02,331.57L420.32,331.05L421.63,331.79L422.93,331.5L425.54,334.46L426.85,336.84L430.76,342.99L432.07,343.47L434.68,347.66L435.98,348.83L437.29,349.79L438.6,351.81L441.21,353.21L442.51,356L445.12,359.74L446.43,361.1L449.04,363.12L450.34,363.03L454.26,366.35L455.56,367.28L459.48,367.96L460.79,368.9L466.01,372.18L467.31,372.7L479.06,373.31L480.37,373.65L485.59,374.97L486.89,375.08L489.5,375.6L490.81,375.65L496.03,375.97L497.34,375.87L505.17,374.83L506.47,375.15L509.08,374.9L510.39,374.74L515.61,374.88L516.92,374.09L523.44,372.81L524.75,370.75L527.36,369.96L528.66,370.71L531.27,369.48L532.58,369.41L535.19,365.84L536.5,364.68L539.11,360.26L540.41,359.87L541.72,359.72L543.02,357.84L546.94,350.31L548.24,347.23L549.55,344.26L550.85,343.92L553.47,334.4L554.77,330.43L558.69,320.53L559.99,319.23L563.91,304.68L565.21,300.38L567.82,295.26L569.13,295.51L570.44,291.67L571.74,290.41L575.66,288.75L576.96,289.93L578.27,289.41L579.57,291.88L580.88,292.15L582.18,291.2L584.79,288.21L586.1,295.01L587.4,294.4L588.71,281.75L593.93,242.65L595.24,242.2L596.54,239.95L597.85,216.32L600.46,195.67L601.76,192.56L603.07,183.77L604.37,161.98L605.68,161.62L606.98,158.9L608.29,154.24L609.6,144.81L613.51,121.26L614.82,117.2L621.34,36.01L622.65,25.97L623.95,25.13L625.26,4.69L626.56,0L627.87,2.11L629.18,4.19L630.48,10.54L631.79,14.87L633.09,16.18L640.92,121.89L642.23,126.2L644.84,184.24L646.15,204.76L648.76,234.02L650.06,243.01L651.37,244.28L652.67,258.88L657.89,292.02L659.2,296.64L660.5,298.07L661.81,304.86" style="fill: rgb(8, 115, 191); fill-opacity: 0.2; stroke-width: 0;"/></g></g><g class="errorbars"/><g class="lines"><path class="js-line" d="M-177.53,379.75L-107.04,379.41L-105.73,379.55L-86.15,379.21L-84.85,379.19L-61.35,377.62L-60.05,377.24L-44.38,373.86L-43.08,373.83L-37.85,371.16L-36.55,370.52L-32.63,370.05L-31.33,370.46L-28.72,371.2L-27.41,371.82L-15.66,371.75L-14.36,371.86L-11.75,371.95L-10.44,372.3L-1.31,371.2L0,370.68L3.92,369.78L5.22,368.9L7.83,367.04L9.14,365.38L11.75,364.14L13.05,362.19L15.66,358.72L16.97,356.27L20.89,356.16L22.19,354.7L23.5,353.26L24.8,350.35L28.72,336.19L30.02,335.85L32.63,317.13L33.94,312.51L35.24,308.31L36.55,307.86L39.16,306.97L40.47,307.5L43.08,309.83L44.38,312.37L45.69,312.89L46.99,315.06L48.3,315.56L49.6,321.3L50.91,324.63L52.21,334.2L56.13,343.35L57.44,343.26L60.05,352.26L61.35,350.53L63.96,358.61L65.27,359.63L66.57,359.89L67.88,362.41L69.18,364.16L70.49,364.39L73.1,366.22L74.4,365.9L77.02,366.08L78.32,366.69L80.93,366.43L82.24,366.22L86.15,366.4L87.46,366.09L91.37,365.52L92.68,364.72L93.98,364.66L95.29,362.69L97.9,361.64L99.21,361.62L101.82,360.8L103.12,360.74L104.43,361.03L105.73,360.48L108.34,359.42L109.65,362.52L116.18,363.97L117.48,363.71L118.79,363.71L120.09,362.52L121.4,362.44L122.7,359.99L125.31,358.26L126.62,356.88L127.92,353.44L129.23,354.16L131.84,355.07L133.15,355.29L134.45,356.23L135.76,355.86L140.98,353.78L142.28,352.69L143.59,351.99L144.89,352.73L148.81,352.67L150.11,354.12L152.73,355.55L154.03,355.7L157.95,356.02L159.25,356.81L167.08,358.29L168.39,357.45L169.69,357.4L171,358.26L173.61,359.42L174.92,359.21L176.22,359.31L177.53,360.58L180.14,360.99L181.44,360.92L185.36,361.01L186.66,360.05L195.8,360.62L197.11,360.78L201.02,360.87L202.33,360.64L204.94,360.46L206.24,359.72L215.38,357.43L216.69,355.66L220.6,351.99L221.91,351.72L224.52,347.11L225.82,345.66L229.74,341.94L231.05,341.83L233.66,338.25L234.96,338.28L237.57,338.55L238.88,338.25L240.18,338.14L241.49,346.61L244.1,342.99L245.4,342.9L246.71,344.62L248.02,344.78L249.32,344.67L250.63,337.91L253.24,344.08L254.54,344.53L255.85,343.99L257.15,344.41L261.07,346.48L262.37,346.27L263.68,346.3L264.98,347.88L266.29,348.68L267.6,348.4L270.21,350.4L271.51,352.3L272.82,354.32L274.12,354.03L275.43,355.95L276.73,356.04L280.65,360.42L281.95,361.39L283.26,364.07L284.56,364.14L285.87,364.22L287.18,365.93L291.09,370.21L292.4,370.37L295.01,370.12L296.31,370.93L298.92,370.96L300.23,370.03L302.84,370.87L304.15,371.05L305.45,373.09L306.76,372.72L309.37,373.58L310.67,373.79L313.28,374.04L314.59,373.18L317.2,374.74L318.5,374.92L338.08,378.85L339.39,378.84L360.27,378.37L361.58,378.23L365.5,377.78L366.8,377.75L369.41,377.12L370.72,376.24L372.02,376.03L373.33,374.43L375.94,372.04L377.24,371.88L385.08,356.02L386.38,355.38L388.99,347.32L390.3,345.53L394.21,339.07L395.52,339.18L400.74,335.01L402.05,334.49L404.66,334.28L405.96,333.42L407.27,332L408.57,332.47L411.18,331.77L412.49,331.07L416.4,331.61L417.71,330.61L419.02,331.57L420.32,331.05L421.63,331.79L422.93,331.5L425.54,334.46L426.85,336.84L430.76,342.99L432.07,343.47L434.68,347.66L435.98,348.83L437.29,349.79L438.6,351.81L441.21,353.21L442.51,356L445.12,359.74L446.43,361.1L449.04,363.12L450.34,363.03L454.26,366.35L455.56,367.28L459.48,367.96L460.79,368.9L466.01,372.18L467.31,372.7L479.06,373.31L480.37,373.65L485.59,374.97L486.89,375.08L489.5,375.6L490.81,375.65L496.03,375.97L497.34,375.87L505.17,374.83L506.47,375.15L509.08,374.9L510.39,374.74L515.61,374.88L516.92,374.09L523.44,372.81L524.75,370.75L527.36,369.96L528.66,370.71L531.27,369.48L532.58,369.41L535.19,365.84L536.5,364.68L539.11,360.26L540.41,359.87L541.72,359.72L543.02,357.84L546.94,350.31L548.24,347.23L549.55,344.26L550.85,343.92L553.47,334.4L554.77,330.43L558.69,320.53L559.99,319.23L563.91,304.68L565.21,300.38L567.82,295.26L569.13,295.51L570.44,291.67L571.74,290.41L575.66,288.75L576.96,289.93L578.27,289.41L579.57,291.88L580.88,292.15L582.18,291.2L584.79,288.21L586.1,295.01L587.4,294.4L588.71,281.75L593.93,242.65L595.24,242.2L596.54,239.95L597.85,216.32L600.46,195.67L601.76,192.56L603.07,183.77L604.37,161.98L605.68,161.62L606.98,158.9L608.29,154.24L609.6,144.81L613.51,121.26L614.82,117.2L621.34,36.01L622.65,25.97L623.95,25.13L625.26,4.69L626.56,0L627.87,2.11L629.18,4.19L630.48,10.54L631.79,14.87L633.09,16.18L640.92,121.89L642.23,126.2L644.84,184.24L646.15,204.76L648.76,234.02L650.06,243.01L651.37,244.28L652.67,258.88L657.89,292.02L659.2,296.64L660.5,298.07L661.81,304.86" style="vector-effect: non-scaling-stroke; fill: none; stroke: rgb(8, 115, 191); stroke-opacity: 1; stroke-width: 0.5px; opacity: 1;"/></g><g class="points"/><g class="text"/></g><g class="trace scatter trace2f0d4a" style="stroke-miterlimit: 2;"><g class="fills"><g><path class="js-fill" d="M674.86,380L661.81,380L661.81,304.86L665.73,317.35L667.03,319.98L669.64,323.13L670.95,327.01L672.25,327.6L673.56,326.44L674.86,325.63" style="fill: rgb(8, 115, 191); fill-opacity: 0.4; stroke-width: 0;"/></g></g><g class="errorbars"/><g class="lines"><path class="js-line" d="M661.81,304.86L665.73,317.35L667.03,319.98L669.64,323.13L670.95,327.01L672.25,327.6L673.56,326.44L674.86,325.63" style="vector-effect: non-scaling-stroke; fill: none; stroke: rgb(8, 115, 191); stroke-opacity: 1; stroke-width: 2px; opacity: 1;"/></g><g class="points"/><g class="text"/></g><g class="trace scatter trace5782f2" style="stroke-miterlimit: 2; opacity: 1;"><g class="fills"/><g class="errorbars"/><g class="lines"/><g class="points"><path class="point" transform="translate(674.86,325.63)" d="M15,0A15,15 0 1,1 0,-15A15,15 0 0,1 15,0Z" style="opacity: 1; stroke-width: 0px; fill: rgb(8, 115, 191); fill-opacity: 1;"/></g><g class="text"/></g></g></g><g class="overplot"/><path class="xlines-above crisp" style="fill: none; stroke-width: 1px; stroke: rgb(0, 0, 0); stroke-opacity: 0;" d=""/><path class="ylines-above crisp" style="fill: none;" d="M0,0"/><g class="overlines-above"/><g class="xaxislayer-above"><path class="xtick ticks crisp" d="M0,450v-5" transform="translate(93.08,0)" style="stroke: rgb(68, 68, 68); stroke-opacity: 1; stroke-width: 1px;"/><path class="xtick ticks crisp" d="M0,450v-5" transform="translate(172.7,0)" style="stroke: rgb(68, 68, 68); stroke-opacity: 1; stroke-width: 1px;"/><path class="xtick ticks crisp" d="M0,450v-5" transform="translate(249.72,0)" style="stroke: rgb(68, 68, 68); stroke-opacity: 1; stroke-width: 1px;"/><path class="xtick ticks crisp" d="M0,450v-5" transform="translate(329.34,0)" style="stroke: rgb(68, 68, 68); stroke-opacity: 1; stroke-width: 1px;"/><path class="xtick ticks crisp" d="M0,450v-5" transform="translate(408.97,0)" style="stroke: rgb(68, 68, 68); stroke-opacity: 1; stroke-width: 1px;"/><path class="xtick ticks crisp" d="M0,450v-5" transform="translate(489.9,0)" style="stroke: rgb(68, 68, 68); stroke-opacity: 1; stroke-width: 1px;"/><path class="xtick ticks crisp" d="M0,450v-5" transform="translate(569.53,0)" style="stroke: rgb(68, 68, 68); stroke-opacity: 1; stroke-width: 1px;"/><path class="xtick ticks crisp" d="M0,450v-5" transform="translate(649.15,0)" style="stroke: rgb(68, 68, 68); stroke-opacity: 1; stroke-width: 1px;"/><path class="xtick ticks crisp" d="M0,450v-5" transform="translate(726.17,0)" style="stroke: rgb(68, 68, 68); stroke-opacity: 1; stroke-width: 1px;"/><g class="xtick"><text text-anchor="middle" x="0" y="469" transform="translate(93.08,0)" style="font-family: 'Open Sans', verdana, arial, sans-serif; font-size: 18px; fill: rgb(42, 63, 95); fill-opacity: 1; white-space: pre;">01/11</text></g><g class="xtick"><text text-anchor="middle" x="0" y="469" transform="translate(172.7,0)" style="font-family: 'Open Sans', verdana, arial, sans-serif; font-size: 18px; fill: rgb(42, 63, 95); fill-opacity: 1; white-space: pre;">01/01</text></g><g class="xtick"><text text-anchor="middle" x="0" y="469" transform="translate(249.72,0)" style="font-family: 'Open Sans', verdana, arial, sans-serif; font-size: 18px; fill: rgb(42, 63, 95); fill-opacity: 1; white-space: pre;">01/03</text></g><g class="xtick"><text text-anchor="middle" x="0" y="469" transform="translate(329.34,0)" style="font-family: 'Open Sans', verdana, arial, sans-serif; font-size: 18px; fill: rgb(42, 63, 95); fill-opacity: 1; white-space: pre;">01/05</text></g><g class="xtick"><text text-anchor="middle" x="0" y="469" transform="translate(408.97,0)" style="font-family: 'Open Sans', verdana, arial, sans-serif; font-size: 18px; fill: rgb(42, 63, 95); fill-opacity: 1; white-space: pre;">01/07</text></g><g class="xtick"><text text-anchor="middle" x="0" y="469" transform="translate(489.9,0)" style="font-family: 'Open Sans', verdana, arial, sans-serif; font-size: 18px; fill: rgb(42, 63, 95); fill-opacity: 1; white-space: pre;">01/09</text></g><g class="xtick"><text text-anchor="middle" x="0" y="469" transform="translate(569.53,0)" style="font-family: 'Open Sans', verdana, arial, sans-serif; font-size: 18px; fill: rgb(42, 63, 95); fill-opacity: 1; white-space: pre;">01/11</text></g><g class="xtick"><text text-anchor="middle" x="0" y="469" transform="translate(649.15,0)" style="font-family: 'Open Sans', verdana, arial, sans-serif; font-size: 18px; fill: rgb(42, 63, 95); fill-opacity: 1; white-space: pre;">01/01</text></g><g class="xtick"><text text-anchor="middle" x="0" y="469" transform="translate(726.17,0)" style="font-family: 'Open Sans', verdana, arial, sans-serif; font-size: 18px; fill: rgb(42, 63, 95); fill-opacity: 1; white-space: pre;">01/03</text></g></g><g class="yaxislayer-above"/><g class="overaxes-above"/></g></g><g class="polarlayer"/><g class="ternarylayer"/><g class="geolayer"/><g class="funnelarealayer"/><g class="pielayer"/><g class="treemaplayer"/><g class="sunburstlayer"/><g class="glimages"/><defs id="topdefs-90a007"><g class="clips"/></defs><g class="layer-above"><g class="imagelayer"/><g class="shapelayer"><path data-index="0" fill-rule="evenodd" d="M-683.6,444.98L270.6,444.98" clip-path="url('#clip90a007xy')" style="opacity: 1; stroke: rgb(255, 0, 0); stroke-opacity: 1; fill: rgb(0, 0, 0); fill-opacity: 0; stroke-dasharray: 3px, 3px; stroke-width: 1.5px;"/></g></g><g class="infolayer"><g class="g-gtitle"><text class="gtitle" x="375" y="25" text-anchor="middle" dy="0.7em" style="font-family: 'Open Sans', verdana, arial, sans-serif; font-size: 50px; fill: rgb(42, 63, 95); opacity: 1; font-weight: normal; white-space: pre;"><tspan style="font-weight:bold">Vaucluse (84)</tspan></text></g><g class="g-xtitle"/><g class="annotation" data-index="0" style="opacity: 1;"><g class="annotation-text-g" transform="rotate(0,682.86,335.63)"><g class="cursor-pointer" transform="translate(625, 300)"><rect class="bg" x="0.5" y="0.5" width="115" height="71" style="stroke-width: 1px; stroke: rgb(0, 0, 0); stroke-opacity: 0; fill: rgb(255, 255, 255); fill-opacity: 0.6;"/><text class="annotation-text" text-anchor="middle" x="57.8125" y="55.5" style="font-family: 'Open Sans', verdana, arial, sans-serif; font-size: 50px; fill: rgb(8, 115, 191); fill-opacity: 1; white-space: pre;"> <tspan style="font-weight:bold">541 </tspan></text></g></g><g class="annotation-arrow-g" style="opacity: 1;"><path d="M711.26,371.13L722.86,385.63" style="stroke-width: 1px; stroke: rgb(8, 115, 191); stroke-opacity: 1; stroke-dasharray: 0px, 0px, 18.569px, 18.569px;"/></g></g></g></svg>