<svg class="main-svg" xmlns="http://www.w3.org/2000/svg" xmlns:xlink="http://www.w3.org/1999/xlink" width="1125" height="750" style="" viewBox="0 0 750 500"><rect x="0" y="0" width="750" height="500" style="fill: rgb(0, 0, 0); fill-opacity: 0;"/><defs id="defs-af640a"><g class="clips"><clipPath id="clipaf640axyplot" class="plotclip"><rect width="700" height="380"/></clipPath><clipPath class="axesclip" id="clipaf640ax"><rect x="50" y="0" width="700" height="500"/></clipPath><clipPath class="axesclip" id="clipaf640ay"><rect x="0" y="70" width="750" height="380"/></clipPath><clipPath class="axesclip" id="clipaf640axy"><rect x="50" y="70" width="700" height="380"/></clipPath></g><g class="gradients"/></defs><g class="bglayer"><rect class="bg" x="50" y="70" width="700" height="380" style="fill: rgb(0, 0, 0); fill-opacity: 0; stroke-width: 0;"/></g><g class="layer-below"><g class="imagelayer"/><g class="shapelayer"/></g><g class="cartesianlayer"><g class="subplot xy"><g class="layer-subplot"><g class="shapelayer"/><g class="imagelayer"/></g><g class="gridlayer"><g class="x"><path class="xgrid crisp" transform="translate(90.6,0)" d="M0,70v380" style="stroke: rgb(255, 255, 255); stroke-opacity: 1; stroke-width: 1px;"/><path class="xgrid crisp" transform="translate(165.64,0)" d="M0,70v380" style="stroke: rgb(255, 255, 255); stroke-opacity: 1; stroke-width: 1px;"/><path class="xgrid crisp" transform="translate(238.22,0)" d="M0,70v380" style="stroke: rgb(255, 255, 255); stroke-opacity: 1; stroke-width: 1px;"/><path class="xgrid crisp" transform="translate(313.27,0)" d="M0,70v380" style="stroke: rgb(255, 255, 255); stroke-opacity: 1; stroke-width: 1px;"/><path class="xgrid crisp" transform="translate(388.31,0)" d="M0,70v380" style="stroke: rgb(255, 255, 255); stroke-opacity: 1; stroke-width: 1px;"/><path class="xgrid crisp" transform="translate(464.59,0)" d="M0,70v380" style="stroke: rgb(255, 255, 255); stroke-opacity: 1; stroke-width: 1px;"/><path class="xgrid crisp" transform="translate(539.63,0)" d="M0,70v380" style="stroke: rgb(255, 255, 255); stroke-opacity: 1; stroke-width: 1px;"/><path class="xgrid crisp" transform="translate(614.67,0)" d="M0,70v380" style="stroke: rgb(255, 255, 255); stroke-opacity: 1; stroke-width: 1px;"/><path class="xgrid crisp" transform="translate(687.26,0)" d="M0,70v380" style="stroke: rgb(255, 255, 255); stroke-opacity: 1; stroke-width: 1px;"/></g><g class="y"/></g><g class="zerolinelayer"/><path class="xlines-below"/><path class="ylines-below"/><g class="overlines-below"/><g class="xaxislayer-below"/><g class="yaxislayer-below"/><g class="overaxes-below"/><g class="plot" transform="translate(50, 70)" clip-path="url('#clipaf640axyplot')"><g class="scatterlayer mlayer"><g class="trace scatter trace4bef4f" style="stroke-miterlimit: 2;"><g class="fills"><g><path class="js-fill" d="M679.09,380L-167.31,380L-167.31,377.87L-148.86,379.25L-147.63,379.41L-141.48,379.84L-140.25,379.79L-107.03,379.95L-105.8,380L-55.36,378.67L-54.13,378.4L-44.29,377.76L-43.06,375.95L-35.68,374.73L-34.45,375.9L-31.99,375.9L-30.76,374.89L-25.83,370.95L-24.6,370.84L-20.91,370.79L-19.68,368.71L-14.76,368.5L-13.53,367.27L-12.3,367.43L-11.07,370.79L-6.15,370.89L-4.92,372.28L-2.46,372.01L-1.23,371.64L1.23,372.28L2.46,372.39L6.15,371L7.38,371.53L9.84,369.35L11.07,369.19L13.53,366.15L14.76,366.42L17.22,366.26L18.45,366.15L19.68,366.31L20.91,364.5L23.37,363.49L24.6,361.15L28.3,358.91L29.53,358.81L31.99,355.4L33.22,355.88L36.91,356.36L38.14,354.76L41.83,353.8L43.06,351.94L45.52,352.42L46.75,354.49L47.98,356.78L49.21,360.88L50.44,360.46L51.67,362.96L55.36,363.81L56.59,364.77L57.82,363.81L59.05,366.9L61.51,368.6L62.74,368.82L63.97,371.64L65.2,371.48L66.43,368.71L67.66,368.76L71.35,368.34L72.58,367.43L73.81,366.21L75.04,366.79L77.5,365.36L78.73,365.14L81.2,365.57L82.43,367.01L84.89,369.03L86.12,369.14L88.58,368.92L89.81,367.86L91.04,367.17L92.27,367.97L94.73,369.24L95.96,369.78L98.42,370.47L99.65,368.71L102.11,368.18L103.34,369.62L105.8,369.3L107.03,369.78L108.26,371.11L109.49,370.57L114.41,369.35L115.64,367.17L119.33,365.94L120.56,364.08L123.02,364.61L124.25,365.84L126.71,368.6L127.94,367.91L130.4,367.22L131.63,367.11L134.09,362.91L135.33,361.73L139.02,362.69L140.25,362.64L142.71,363.39L143.94,362.8L145.17,362.27L146.4,362.91L148.86,361.84L150.09,362.64L155.01,363.86L156.24,364.18L159.93,366.31L161.16,367.65L162.39,368.28L163.62,369.88L167.31,371.53L168.54,372.33L171,373.34L172.23,373.13L182.07,371.59L183.3,372.01L185.76,373.5L186.99,372.97L194.38,372.86L195.61,373.4L198.07,374.41L199.3,374.52L204.22,373.93L205.45,373.08L210.37,371.27L211.6,369.51L212.83,367.7L214.06,367.27L216.52,365.14L217.75,365.04L220.21,363.28L221.44,363.55L225.13,362.69L226.36,362.59L227.59,366.15L228.82,364.72L230.05,365.3L231.28,363.92L234.97,365.99L236.2,363.49L238.66,368.02L239.89,370.15L244.82,370.04L246.05,369.03L248.51,368.34L249.74,369.51L252.2,369.99L253.43,371.96L257.12,375.31L258.35,374.89L260.81,374.36L262.04,373.45L265.73,372.92L266.96,373.29L270.65,374.83L271.88,375.63L274.34,376.27L275.57,376.49L281.72,375.37L282.95,374.73L290.33,375.42L291.56,375.53L295.25,375.05L296.49,374.04L298.95,374.89L300.18,374.25L305.1,374.73L306.33,374.94L316.17,377.12L317.4,377.6L319.86,378.3L321.09,378.3L322.32,379.04L323.55,378.78L333.39,378.83L334.62,379.04L340.77,378.19L342,377.18L345.69,375.79L346.92,375.85L349.38,375.05L350.62,376.11L353.08,373.24L354.31,372.54L355.54,372.28L356.77,369.72L359.23,363.65L360.46,363.76L364.15,362.37L365.38,360.24L367.84,360.4L369.07,359.87L370.3,359.71L371.53,360.56L372.76,360.78L373.99,362.27L375.22,362.53L376.45,361.89L377.68,361.89L378.91,360.94L381.37,359.18L382.6,359.45L383.83,358.91L385.06,360.4L387.52,360.19L388.75,360.24L393.67,361.89L394.9,363.07L397.36,364.88L398.59,365.14L401.05,365.73L402.28,366.42L405.98,368.98L407.21,368.92L412.13,372.01L413.36,371.59L415.82,371L417.05,371.85L420.74,371.96L421.97,372.97L426.89,374.94L428.12,375.1L430.58,375.21L431.81,375.31L437.96,375.53L439.19,374.83L441.65,375.1L442.88,374.67L446.57,376.01L447.8,376.7L450.26,376.65L451.49,377.87L457.64,376.38L458.88,376.33L466.26,376.38L467.49,376.49L471.18,376.33L472.41,376.96L477.33,375.74L478.56,375.85L483.48,374.46L484.71,374.41L485.94,375.31L487.17,373.88L488.4,373.4L489.63,373.82L492.09,373.56L493.32,373.66L494.55,371.27L495.78,371.69L497.01,371.43L498.24,372.23L503.16,371.21L504.39,370.36L505.62,369.62L506.85,366.9L510.54,364.98L511.78,363.23L514.24,358.91L515.47,354.81L516.7,350.5L517.93,349.01L519.16,348.42L520.39,342.62L522.85,335.11L524.08,334.1L526.54,328.99L527.77,328.72L529,325.84L530.23,325.04L532.69,324.25L533.92,324.51L536.38,325.1L537.61,329.15L541.3,334.42L542.53,338.52L543.76,340.38L544.99,340.86L546.22,342.19L547.45,342.3L548.68,343.52L549.91,341.18L551.14,338.57L552.37,340.75L553.6,339.64L554.83,331.54L557.29,310.24L558.52,299.27L559.75,288.99L560.98,289.1L562.21,287.66L563.44,266.63L565.91,245.43L567.14,238.19L568.37,230.79L569.6,217.26L570.83,214.5L572.06,206.35L573.29,206.99L574.52,196.98L575.75,190.69L576.98,179.88L578.21,169.92L579.44,167.58L581.9,125.3L583.13,106.93L586.82,62.36L588.05,58.31L590.51,17.68L591.74,8.84L592.97,0L594.2,0.75L595.43,0.16L596.66,3.04L600.35,28.49L601.58,41.27L604.04,54.8L605.27,57.09L610.19,127.75L611.42,142.07L612.65,151.39L613.88,153.52L616.34,192.88L617.57,205.92L621.27,236.38L622.5,238.62L624.96,260.45L626.19,267.85L629.88,281.33L631.11,282.12L633.57,292.88L634.8,297.03L637.26,301.83L638.49,301.88L642.18,301.67L643.41,299.86L644.64,300.39L645.87,299.59L647.1,301.29L648.33,300.82L655.71,274.24L656.94,273.07L659.4,254.11L660.63,249.64L661.86,248.47L663.09,243.46L665.55,243.68L666.78,246.23L669.24,251.61L670.47,253.1L671.7,256.88L672.93,257.31L674.17,258L675.4,261.25L677.86,262.42L679.09,261.57" style="fill: rgb(8, 115, 191); fill-opacity: 0.2; stroke-width: 0;"/></g></g><g class="errorbars"/><g class="lines"><path class="js-line" d="M-167.31,377.87L-148.86,379.25L-147.63,379.41L-141.48,379.84L-140.25,379.79L-107.03,379.95L-105.8,380L-55.36,378.67L-54.13,378.4L-44.29,377.76L-43.06,375.95L-35.68,374.73L-34.45,375.9L-31.99,375.9L-30.76,374.89L-25.83,370.95L-24.6,370.84L-20.91,370.79L-19.68,368.71L-14.76,368.5L-13.53,367.27L-12.3,367.43L-11.07,370.79L-6.15,370.89L-4.92,372.28L-2.46,372.01L-1.23,371.64L1.23,372.28L2.46,372.39L6.15,371L7.38,371.53L9.84,369.35L11.07,369.19L13.53,366.15L14.76,366.42L17.22,366.26L18.45,366.15L19.68,366.31L20.91,364.5L23.37,363.49L24.6,361.15L28.3,358.91L29.53,358.81L31.99,355.4L33.22,355.88L36.91,356.36L38.14,354.76L41.83,353.8L43.06,351.94L45.52,352.42L46.75,354.49L47.98,356.78L49.21,360.88L50.44,360.46L51.67,362.96L55.36,363.81L56.59,364.77L57.82,363.81L59.05,366.9L61.51,368.6L62.74,368.82L63.97,371.64L65.2,371.48L66.43,368.71L67.66,368.76L71.35,368.34L72.58,367.43L73.81,366.21L75.04,366.79L77.5,365.36L78.73,365.14L81.2,365.57L82.43,367.01L84.89,369.03L86.12,369.14L88.58,368.92L89.81,367.86L91.04,367.17L92.27,367.97L94.73,369.24L95.96,369.78L98.42,370.47L99.65,368.71L102.11,368.18L103.34,369.62L105.8,369.3L107.03,369.78L108.26,371.11L109.49,370.57L114.41,369.35L115.64,367.17L119.33,365.94L120.56,364.08L123.02,364.61L124.25,365.84L126.71,368.6L127.94,367.91L130.4,367.22L131.63,367.11L134.09,362.91L135.33,361.73L139.02,362.69L140.25,362.64L142.71,363.39L143.94,362.8L145.17,362.27L146.4,362.91L148.86,361.84L150.09,362.64L155.01,363.86L156.24,364.18L159.93,366.31L161.16,367.65L162.39,368.28L163.62,369.88L167.31,371.53L168.54,372.33L171,373.34L172.23,373.13L182.07,371.59L183.3,372.01L185.76,373.5L186.99,372.97L194.38,372.86L195.61,373.4L198.07,374.41L199.3,374.52L204.22,373.93L205.45,373.08L210.37,371.27L211.6,369.51L212.83,367.7L214.06,367.27L216.52,365.14L217.75,365.04L220.21,363.28L221.44,363.55L225.13,362.69L226.36,362.59L227.59,366.15L228.82,364.72L230.05,365.3L231.28,363.92L234.97,365.99L236.2,363.49L238.66,368.02L239.89,370.15L244.82,370.04L246.05,369.03L248.51,368.34L249.74,369.51L252.2,369.99L253.43,371.96L257.12,375.31L258.35,374.89L260.81,374.36L262.04,373.45L265.73,372.92L266.96,373.29L270.65,374.83L271.88,375.63L274.34,376.27L275.57,376.49L281.72,375.37L282.95,374.73L290.33,375.42L291.56,375.53L295.25,375.05L296.49,374.04L298.95,374.89L300.18,374.25L305.1,374.73L306.33,374.94L316.17,377.12L317.4,377.6L319.86,378.3L321.09,378.3L322.32,379.04L323.55,378.78L333.39,378.83L334.62,379.04L340.77,378.19L342,377.18L345.69,375.79L346.92,375.85L349.38,375.05L350.62,376.11L353.08,373.24L354.31,372.54L355.54,372.28L356.77,369.72L359.23,363.65L360.46,363.76L364.15,362.37L365.38,360.24L367.84,360.4L369.07,359.87L370.3,359.71L371.53,360.56L372.76,360.78L373.99,362.27L375.22,362.53L376.45,361.89L377.68,361.89L378.91,360.94L381.37,359.18L382.6,359.45L383.83,358.91L385.06,360.4L387.52,360.19L388.75,360.24L393.67,361.89L394.9,363.07L397.36,364.88L398.59,365.14L401.05,365.73L402.28,366.42L405.98,368.98L407.21,368.92L412.13,372.01L413.36,371.59L415.82,371L417.05,371.85L420.74,371.96L421.97,372.97L426.89,374.94L428.12,375.1L430.58,375.21L431.81,375.31L437.96,375.53L439.19,374.83L441.65,375.1L442.88,374.67L446.57,376.01L447.8,376.7L450.26,376.65L451.49,377.87L457.64,376.38L458.88,376.33L466.26,376.38L467.49,376.49L471.18,376.33L472.41,376.96L477.33,375.74L478.56,375.85L483.48,374.46L484.71,374.41L485.94,375.31L487.17,373.88L488.4,373.4L489.63,373.82L492.09,373.56L493.32,373.66L494.55,371.27L495.78,371.69L497.01,371.43L498.24,372.23L503.16,371.21L504.39,370.36L505.62,369.62L506.85,366.9L510.54,364.98L511.78,363.23L514.24,358.91L515.47,354.81L516.7,350.5L517.93,349.01L519.16,348.42L520.39,342.62L522.85,335.11L524.08,334.1L526.54,328.99L527.77,328.72L529,325.84L530.23,325.04L532.69,324.25L533.92,324.51L536.38,325.1L537.61,329.15L541.3,334.42L542.53,338.52L543.76,340.38L544.99,340.86L546.22,342.19L547.45,342.3L548.68,343.52L549.91,341.18L551.14,338.57L552.37,340.75L553.6,339.64L554.83,331.54L557.29,310.24L558.52,299.27L559.75,288.99L560.98,289.1L562.21,287.66L563.44,266.63L565.91,245.43L567.14,238.19L568.37,230.79L569.6,217.26L570.83,214.5L572.06,206.35L573.29,206.99L574.52,196.98L575.75,190.69L576.98,179.88L578.21,169.92L579.44,167.58L581.9,125.3L583.13,106.93L586.82,62.36L588.05,58.31L590.51,17.68L591.74,8.84L592.97,0L594.2,0.75L595.43,0.16L596.66,3.04L600.35,28.49L601.58,41.27L604.04,54.8L605.27,57.09L610.19,127.75L611.42,142.07L612.65,151.39L613.88,153.52L616.34,192.88L617.57,205.92L621.27,236.38L622.5,238.62L624.96,260.45L626.19,267.85L629.88,281.33L631.11,282.12L633.57,292.88L634.8,297.03L637.26,301.83L638.49,301.88L642.18,301.67L643.41,299.86L644.64,300.39L645.87,299.59L647.1,301.29L648.33,300.82L655.71,274.24L656.94,273.07L659.4,254.11L660.63,249.64L661.86,248.47L663.09,243.46L665.55,243.68L666.78,246.23L669.24,251.61L670.47,253.1L671.7,256.88L672.93,257.31L674.17,258L675.4,261.25L677.86,262.42L679.09,261.57" style="vector-effect: non-scaling-stroke; fill: none; stroke: rgb(8, 115, 191); stroke-opacity: 1; stroke-width: 0.5px; opacity: 1;"/></g><g class="points"/><g class="text"/></g><g class="trace scatter trace3e8ef4" style="stroke-miterlimit: 2;"><g class="fills"><g><path class="js-fill" d="M691.39,380L679.09,380L679.09,261.57L680.32,257.9L681.55,256.83L684.01,254.81L685.24,253.26L686.47,252.41L687.7,253.37L688.93,258.64L690.16,259.65L691.39,260.88" style="fill: rgb(8, 115, 191); fill-opacity: 0.4; stroke-width: 0;"/></g></g><g class="errorbars"/><g class="lines"><path class="js-line" d="M679.09,261.57L680.32,257.9L681.55,256.83L684.01,254.81L685.24,253.26L686.47,252.41L687.7,253.37L688.93,258.64L690.16,259.65L691.39,260.88" style="vector-effect: non-scaling-stroke; fill: none; stroke: rgb(8, 115, 191); stroke-opacity: 1; stroke-width: 2px; opacity: 1;"/></g><g class="points"/><g class="text"/></g><g class="trace scatter trace7eb432" style="stroke-miterlimit: 2; opacity: 1;"><g class="fills"/><g class="errorbars"/><g class="lines"/><g class="points"><path class="point" transform="translate(691.39,260.88)" d="M15,0A15,15 0 1,1 0,-15A15,15 0 0,1 15,0Z" style="opacity: 1; stroke-width: 0px; fill: rgb(8, 115, 191); fill-opacity: 1;"/></g><g class="text"/></g></g></g><g class="overplot"/><path class="xlines-above crisp" style="fill: none; stroke-width: 1px; stroke: rgb(0, 0, 0); stroke-opacity: 0;" d=""/><path class="ylines-above crisp" style="fill: none;" d="M0,0"/><g class="overlines-above"/><g class="xaxislayer-above"><path class="xtick ticks crisp" d="M0,450v-5" transform="translate(90.6,0)" style="stroke: rgb(68, 68, 68); stroke-opacity: 1; stroke-width: 1px;"/><path class="xtick ticks crisp" d="M0,450v-5" transform="translate(165.64,0)" style="stroke: rgb(68, 68, 68); stroke-opacity: 1; stroke-width: 1px;"/><path class="xtick ticks crisp" d="M0,450v-5" transform="translate(238.22,0)" style="stroke: rgb(68, 68, 68); stroke-opacity: 1; stroke-width: 1px;"/><path class="xtick ticks crisp" d="M0,450v-5" transform="translate(313.27,0)" style="stroke: rgb(68, 68, 68); stroke-opacity: 1; stroke-width: 1px;"/><path class="xtick ticks crisp" d="M0,450v-5" transform="translate(388.31,0)" style="stroke: rgb(68, 68, 68); stroke-opacity: 1; stroke-width: 1px;"/><path class="xtick ticks crisp" d="M0,450v-5" transform="translate(464.59,0)" style="stroke: rgb(68, 68, 68); stroke-opacity: 1; stroke-width: 1px;"/><path class="xtick ticks crisp" d="M0,450v-5" transform="translate(539.63,0)" style="stroke: rgb(68, 68, 68); stroke-opacity: 1; stroke-width: 1px;"/><path class="xtick ticks crisp" d="M0,450v-5" transform="translate(614.67,0)" style="stroke: rgb(68, 68, 68); stroke-opacity: 1; stroke-width: 1px;"/><path class="xtick ticks crisp" d="M0,450v-5" transform="translate(687.26,0)" style="stroke: rgb(68, 68, 68); stroke-opacity: 1; stroke-width: 1px;"/><g class="xtick"><text text-anchor="middle" x="0" y="469" transform="translate(90.6,0)" style="font-family: 'Open Sans', verdana, arial, sans-serif; font-size: 18px; fill: rgb(42, 63, 95); fill-opacity: 1; white-space: pre;">01/11</text></g><g class="xtick"><text text-anchor="middle" x="0" y="469" transform="translate(165.64,0)" style="font-family: 'Open Sans', verdana, arial, sans-serif; font-size: 18px; fill: rgb(42, 63, 95); fill-opacity: 1; white-space: pre;">01/01</text></g><g class="xtick"><text text-anchor="middle" x="0" y="469" transform="translate(238.22,0)" style="font-family: 'Open Sans', verdana, arial, sans-serif; font-size: 18px; fill: rgb(42, 63, 95); fill-opacity: 1; white-space: pre;">01/03</text></g><g class="xtick"><text text-anchor="middle" x="0" y="469" transform="translate(313.27,0)" style="font-family: 'Open Sans', verdana, arial, sans-serif; font-size: 18px; fill: rgb(42, 63, 95); fill-opacity: 1; white-space: pre;">01/05</text></g><g class="xtick"><text text-anchor="middle" x="0" y="469" transform="translate(388.31,0)" style="font-family: 'Open Sans', verdana, arial, sans-serif; font-size: 18px; fill: rgb(42, 63, 95); fill-opacity: 1; white-space: pre;">01/07</text></g><g class="xtick"><text text-anchor="middle" x="0" y="469" transform="translate(464.59,0)" style="font-family: 'Open Sans', verdana, arial, sans-serif; font-size: 18px; fill: rgb(42, 63, 95); fill-opacity: 1; white-space: pre;">01/09</text></g><g class="xtick"><text text-anchor="middle" x="0" y="469" transform="translate(539.63,0)" style="font-family: 'Open Sans', verdana, arial, sans-serif; font-size: 18px; fill: rgb(42, 63, 95); fill-opacity: 1; white-space: pre;">01/11</text></g><g class="xtick"><text text-anchor="middle" x="0" y="469" transform="translate(614.67,0)" style="font-family: 'Open Sans', verdana, arial, sans-serif; font-size: 18px; fill: rgb(42, 63, 95); fill-opacity: 1; white-space: pre;">01/01</text></g><g class="xtick"><text text-anchor="middle" x="0" y="469" transform="translate(687.26,0)" style="font-family: 'Open Sans', verdana, arial, sans-serif; font-size: 18px; fill: rgb(42, 63, 95); fill-opacity: 1; white-space: pre;">01/03</text></g></g><g class="yaxislayer-above"/><g class="overaxes-above"/></g></g><g class="polarlayer"/><g class="ternarylayer"/><g class="geolayer"/><g class="funnelarealayer"/><g class="pielayer"/><g class="treemaplayer"/><g class="sunburstlayer"/><g class="glimages"/><defs id="topdefs-af640a"><g class="clips"/></defs><g class="layer-above"><g class="imagelayer"/><g class="shapelayer"><path data-index="0" fill-rule="evenodd" d="M-641.39,444.94L257.90999999999997,444.94" clip-path="url('#clipaf640axy')" style="opacity: 1; stroke: rgb(255, 0, 0); stroke-opacity: 1; fill: rgb(0, 0, 0); fill-opacity: 0; stroke-dasharray: 3px, 3px; stroke-width: 1.5px;"/></g></g><g class="infolayer"><g class="g-gtitle"><text class="gtitle" x="375" y="25" text-anchor="middle" dy="0.7em" style="font-family: 'Open Sans', verdana, arial, sans-serif; font-size: 50px; fill: rgb(42, 63, 95); opacity: 1; font-weight: normal; white-space: pre;"><tspan style="font-weight:bold">Gers (32)</tspan></text></g><g class="g-xtitle"/><g class="annotation" data-index="0" style="opacity: 1;"><g class="annotation-text-g" transform="rotate(0,699.39,270.88)"><g class="cursor-pointer" transform="translate(627, 235)"><rect class="bg" x="0.5" y="0.5" width="143" height="71" style="stroke-width: 1px; stroke: rgb(0, 0, 0); stroke-opacity: 0; fill: rgb(255, 255, 255); fill-opacity: 0.6;"/><text class="annotation-text" text-anchor="middle" x="72.078125" y="55.5" style="font-family: 'Open Sans', verdana, arial, sans-serif; font-size: 50px; fill: rgb(8, 115, 191); fill-opacity: 1; white-space: pre;"> <tspan style="font-weight:bold">1177 </tspan></text></g></g><g class="annotation-arrow-g" style="opacity: 1;"><path d="M727.79,306.38L739.39,320.88" style="stroke-width: 1px; stroke: rgb(8, 115, 191); stroke-opacity: 1; stroke-dasharray: 0px, 0px, 18.5691px, 18.5691px;"/></g></g></g></svg>