<svg class="main-svg" xmlns="http://www.w3.org/2000/svg" xmlns:xlink="http://www.w3.org/1999/xlink" width="1125" height="750" style="" viewBox="0 0 750 500"><rect x="0" y="0" width="750" height="500" style="fill: rgb(0, 0, 0); fill-opacity: 0;"/><defs id="defs-8a4c63"><g class="clips"><clipPath id="clip8a4c63xyplot" class="plotclip"><rect width="700" height="380"/></clipPath><clipPath class="axesclip" id="clip8a4c63x"><rect x="50" y="0" width="700" height="500"/></clipPath><clipPath class="axesclip" id="clip8a4c63y"><rect x="0" y="70" width="750" height="380"/></clipPath><clipPath class="axesclip" id="clip8a4c63xy"><rect x="50" y="70" width="700" height="380"/></clipPath></g><g class="gradients"/></defs><g class="bglayer"><rect class="bg" x="50" y="70" width="700" height="380" style="fill: rgb(0, 0, 0); fill-opacity: 0; stroke-width: 0;"/></g><g class="layer-below"><g class="imagelayer"/><g class="shapelayer"/></g><g class="cartesianlayer"><g class="subplot xy"><g class="layer-subplot"><g class="shapelayer"/><g class="imagelayer"/></g><g class="gridlayer"><g class="x"><path class="xgrid crisp" transform="translate(90.46000000000001,0)" d="M0,70v380" style="stroke: rgb(255, 255, 255); stroke-opacity: 1; stroke-width: 1px;"/><path class="xgrid crisp" transform="translate(165.24,0)" d="M0,70v380" style="stroke: rgb(255, 255, 255); stroke-opacity: 1; stroke-width: 1px;"/><path class="xgrid crisp" transform="translate(237.57,0)" d="M0,70v380" style="stroke: rgb(255, 255, 255); stroke-opacity: 1; stroke-width: 1px;"/><path class="xgrid crisp" transform="translate(312.35,0)" d="M0,70v380" style="stroke: rgb(255, 255, 255); stroke-opacity: 1; stroke-width: 1px;"/><path class="xgrid crisp" transform="translate(387.13,0)" d="M0,70v380" style="stroke: rgb(255, 255, 255); stroke-opacity: 1; stroke-width: 1px;"/><path class="xgrid crisp" transform="translate(463.13,0)" d="M0,70v380" style="stroke: rgb(255, 255, 255); stroke-opacity: 1; stroke-width: 1px;"/><path class="xgrid crisp" transform="translate(537.9200000000001,0)" d="M0,70v380" style="stroke: rgb(255, 255, 255); stroke-opacity: 1; stroke-width: 1px;"/><path class="xgrid crisp" transform="translate(612.7,0)" d="M0,70v380" style="stroke: rgb(255, 255, 255); stroke-opacity: 1; stroke-width: 1px;"/><path class="xgrid crisp" transform="translate(685.03,0)" d="M0,70v380" style="stroke: rgb(255, 255, 255); stroke-opacity: 1; stroke-width: 1px;"/></g><g class="y"/></g><g class="zerolinelayer"/><path class="xlines-below"/><path class="ylines-below"/><g class="overlines-below"/><g class="xaxislayer-below"/><g class="yaxislayer-below"/><g class="overaxes-below"/><g class="plot" transform="translate(50, 70)" clip-path="url('#clip8a4c63xyplot')"><g class="scatterlayer mlayer"><g class="trace scatter tracef0fc85" style="stroke-miterlimit: 2;"><g class="fills"><g><path class="js-fill" d="M679.16,380L-166.73,380L-166.73,379.01L-150.79,379.54L-149.56,379.57L-138.53,378.32L-137.3,378.09L-90.72,379.66L-89.49,379.41L-77.23,378.88L-76.01,378.87L-56.39,376.86L-55.17,376.35L-46.58,374.89L-45.36,374.96L-36.78,373.63L-35.55,372.98L-26.97,371.68L-25.74,371.43L-20.84,371.5L-19.61,370.76L-14.71,369.61L-13.49,368.7L-9.81,368.37L-8.58,368.78L-3.68,368.72L-2.45,368.93L1.23,366.11L2.45,366.24L3.68,365.5L4.9,363.61L9.81,358.8L11.03,358.71L14.71,355.26L15.94,352.8L17.16,352.74L18.39,354.05L20.84,353.1L22.07,352.27L23.29,350.02L24.52,345.7L26.97,334.18L28.2,333.57L31.87,316.2L33.1,313.3L38,312.15L39.23,313.65L40.46,315.02L41.68,318.48L44.13,325.27L45.36,325.96L47.81,331.06L49.04,340.36L52.71,347.58L53.94,348.06L56.39,355.15L57.62,353.37L60.07,360.81L61.3,361.54L62.52,361.64L63.75,364.87L66.2,367.44L67.43,367.53L68.65,368.4L69.88,368.2L73.56,368.95L74.78,369.49L77.23,369.48L78.46,369.38L83.36,368.16L84.59,367.07L88.27,366.48L89.49,365.73L90.72,365.36L91.94,364.18L93.17,364.24L94.4,363.34L95.62,362.83L96.85,363.31L99.3,362.23L100.53,362.53L101.75,363.25L102.98,366.05L105.43,366.32L106.65,367L111.56,365.36L112.78,365.36L114.01,365.29L115.24,363.71L117.69,363.29L118.91,363.16L120.14,360.11L121.37,360.18L125.04,360.26L126.27,360.91L136.08,357.47L137.3,356.15L144.66,354.61L145.88,354.91L148.34,354.75L149.56,354.08L156.92,356.69L158.14,358.5L164.27,360.57L165.5,360.75L174.08,361.56L175.31,361.41L180.21,362.25L181.44,361.77L183.89,361.2L185.11,360.35L187.57,359.29L188.79,358.59L191.24,358.6L192.47,357.71L198.6,354.87L199.82,354.94L201.05,354.01L202.28,354.09L203.5,354.48L204.73,353.69L209.63,351.78L210.86,349.76L214.54,344.16L215.76,342.8L218.21,341.48L219.44,340.73L224.34,340.97L225.57,341.26L226.8,348.7L228.02,346.59L229.25,345.65L230.47,346.33L231.7,347.3L232.92,346.92L234.15,346.79L235.38,339.57L237.83,343.7L239.05,344.22L240.28,344.3L241.51,345.21L243.96,345.61L245.18,346.05L248.86,347.46L250.09,347.45L251.31,347.43L252.54,349.04L257.44,354.75L258.67,357.12L259.89,357.24L261.12,359.13L264.8,363.41L266.02,365.2L268.48,365.62L269.7,366.84L273.38,370.34L274.61,370.61L275.83,370.04L277.06,370.37L278.28,371.03L279.51,370.56L280.74,371.19L281.96,370.15L284.41,371.01L285.64,370.91L286.87,373L288.09,372.64L291.77,372.79L292.99,372.85L294.22,372.92L295.45,371.8L297.9,373.3L299.12,374L305.25,376.1L306.48,376.74L313.84,377.86L315.06,378.26L318.74,378.77L319.96,378.79L324.87,379.24L326.09,379.22L331,379.01L332.22,378.91L343.26,377L344.48,376.63L345.71,376.63L346.94,375.84L349.39,375.21L350.61,373.4L353.06,371.14L354.29,370.77L359.19,359.7L360.42,356.95L361.65,354.37L362.87,354.08L366.55,345.06L367.78,343.34L370.23,339.75L371.45,339.32L373.91,335.69L375.13,334.56L376.36,332.75L377.58,332.32L381.26,332.05L382.49,331.36L387.39,330.98L388.62,331L395.97,335.06L397.2,335.26L399.65,337.04L400.88,339.04L404.55,343.89L405.78,343.9L408.23,348.82L409.46,349.24L413.13,354.12L414.36,354.26L419.26,362.2L420.49,363.12L424.17,364.9L425.39,366.46L430.3,369.68L431.52,369.78L433.98,371.3L435.2,371.89L440.11,373.34L441.33,373.37L448.69,373.86L449.91,374.57L454.82,375.88L456.04,375.78L468.3,375.85L469.53,375.62L474.43,374.8L475.66,374.93L484.24,376.11L485.46,375.26L491.59,374.52L492.82,372.85L494.05,372.91L495.27,372.11L496.5,372.79L497.72,371.49L501.4,369.67L502.63,368.32L503.85,367.14L505.08,364.1L508.76,361.54L509.98,358.83L516.11,346.86L517.34,346.67L519.79,338.99L521.02,335.92L524.69,326.99L525.92,326.45L530.82,307.66L532.05,305.09L533.27,302.56L534.5,301.83L535.73,297.79L536.95,296.92L539.4,299.06L540.63,298.65L543.08,299.59L544.31,303.22L545.53,303.12L546.76,300.76L549.21,295.19L550.44,301.76L551.66,300.02L552.89,286.27L557.79,242.21L559.02,241.12L560.25,238.38L561.47,215.58L563.92,192.48L565.15,185.8L566.37,180.84L567.6,161.5L568.83,161.23L570.05,158.98L571.28,160.47L572.5,153.72L573.73,148.61L574.96,137.98L577.41,126.15L578.63,101.89L582.31,40.82L583.54,26.04L584.76,17.08L585.99,15.82L587.22,0L588.44,1.81L589.67,3.13L590.89,8.96L593.35,16.03L594.57,16.81L600.7,82.75L601.93,94.01L603.15,97.59L604.38,128.59L609.28,194.89L610.51,204.91L611.73,207.3L612.96,227.35L616.64,259.05L617.86,268.09L619.09,273.38L620.32,275.18L622.77,295.27L623.99,300.66L627.67,315.21L628.9,316.17L631.35,322.59L632.57,325.41L635.03,328.64L636.25,329.25L641.16,328.01L642.38,326.78L644.83,323.56L646.06,323.06L653.42,285.96L654.64,285.27L657.09,258.24L658.32,248.19L662,226.44L663.22,225.56L665.67,208.8L666.9,202.97L668.13,199.51L669.35,200L670.58,200.46L671.8,200.05L673.03,207.26L674.26,209.76L675.48,215.23L676.71,217.03L677.93,214.95L679.16,216.23" style="fill: rgb(8, 115, 191); fill-opacity: 0.2; stroke-width: 0;"/></g></g><g class="errorbars"/><g class="lines"><path class="js-line" d="M-166.73,379.01L-150.79,379.54L-149.56,379.57L-138.53,378.32L-137.3,378.09L-90.72,379.66L-89.49,379.41L-77.23,378.88L-76.01,378.87L-56.39,376.86L-55.17,376.35L-46.58,374.89L-45.36,374.96L-36.78,373.63L-35.55,372.98L-26.97,371.68L-25.74,371.43L-20.84,371.5L-19.61,370.76L-14.71,369.61L-13.49,368.7L-9.81,368.37L-8.58,368.78L-3.68,368.72L-2.45,368.93L1.23,366.11L2.45,366.24L3.68,365.5L4.9,363.61L9.81,358.8L11.03,358.71L14.71,355.26L15.94,352.8L17.16,352.74L18.39,354.05L20.84,353.1L22.07,352.27L23.29,350.02L24.52,345.7L26.97,334.18L28.2,333.57L31.87,316.2L33.1,313.3L38,312.15L39.23,313.65L40.46,315.02L41.68,318.48L44.13,325.27L45.36,325.96L47.81,331.06L49.04,340.36L52.71,347.58L53.94,348.06L56.39,355.15L57.62,353.37L60.07,360.81L61.3,361.54L62.52,361.64L63.75,364.87L66.2,367.44L67.43,367.53L68.65,368.4L69.88,368.2L73.56,368.95L74.78,369.49L77.23,369.48L78.46,369.38L83.36,368.16L84.59,367.07L88.27,366.48L89.49,365.73L90.72,365.36L91.94,364.18L93.17,364.24L94.4,363.34L95.62,362.83L96.85,363.31L99.3,362.23L100.53,362.53L101.75,363.25L102.98,366.05L105.43,366.32L106.65,367L111.56,365.36L112.78,365.36L114.01,365.29L115.24,363.71L117.69,363.29L118.91,363.16L120.14,360.11L121.37,360.18L125.04,360.26L126.27,360.91L136.08,357.47L137.3,356.15L144.66,354.61L145.88,354.91L148.34,354.75L149.56,354.08L156.92,356.69L158.14,358.5L164.27,360.57L165.5,360.75L174.08,361.56L175.31,361.41L180.21,362.25L181.44,361.77L183.89,361.2L185.11,360.35L187.57,359.29L188.79,358.59L191.24,358.6L192.47,357.71L198.6,354.87L199.82,354.94L201.05,354.01L202.28,354.09L203.5,354.48L204.73,353.69L209.63,351.78L210.86,349.76L214.54,344.16L215.76,342.8L218.21,341.48L219.44,340.73L224.34,340.97L225.57,341.26L226.8,348.7L228.02,346.59L229.25,345.65L230.47,346.33L231.7,347.3L232.92,346.92L234.15,346.79L235.38,339.57L237.83,343.7L239.05,344.22L240.28,344.3L241.51,345.21L243.96,345.61L245.18,346.05L248.86,347.46L250.09,347.45L251.31,347.43L252.54,349.04L257.44,354.75L258.67,357.12L259.89,357.24L261.12,359.13L264.8,363.41L266.02,365.2L268.48,365.62L269.7,366.84L273.38,370.34L274.61,370.61L275.83,370.04L277.06,370.37L278.28,371.03L279.51,370.56L280.74,371.19L281.96,370.15L284.41,371.01L285.64,370.91L286.87,373L288.09,372.64L291.77,372.79L292.99,372.85L294.22,372.92L295.45,371.8L297.9,373.3L299.12,374L305.25,376.1L306.48,376.74L313.84,377.86L315.06,378.26L318.74,378.77L319.96,378.79L324.87,379.24L326.09,379.22L331,379.01L332.22,378.91L343.26,377L344.48,376.63L345.71,376.63L346.94,375.84L349.39,375.21L350.61,373.4L353.06,371.14L354.29,370.77L359.19,359.7L360.42,356.95L361.65,354.37L362.87,354.08L366.55,345.06L367.78,343.34L370.23,339.75L371.45,339.32L373.91,335.69L375.13,334.56L376.36,332.75L377.58,332.32L381.26,332.05L382.49,331.36L387.39,330.98L388.62,331L395.97,335.06L397.2,335.26L399.65,337.04L400.88,339.04L404.55,343.89L405.78,343.9L408.23,348.82L409.46,349.24L413.13,354.12L414.36,354.26L419.26,362.2L420.49,363.12L424.17,364.9L425.39,366.46L430.3,369.68L431.52,369.78L433.98,371.3L435.2,371.89L440.11,373.34L441.33,373.37L448.69,373.86L449.91,374.57L454.82,375.88L456.04,375.78L468.3,375.85L469.53,375.62L474.43,374.8L475.66,374.93L484.24,376.11L485.46,375.26L491.59,374.52L492.82,372.85L494.05,372.91L495.27,372.11L496.5,372.79L497.72,371.49L501.4,369.67L502.63,368.32L503.85,367.14L505.08,364.1L508.76,361.54L509.98,358.83L516.11,346.86L517.34,346.67L519.79,338.99L521.02,335.92L524.69,326.99L525.92,326.45L530.82,307.66L532.05,305.09L533.27,302.56L534.5,301.83L535.73,297.79L536.95,296.92L539.4,299.06L540.63,298.65L543.08,299.59L544.31,303.22L545.53,303.12L546.76,300.76L549.21,295.19L550.44,301.76L551.66,300.02L552.89,286.27L557.79,242.21L559.02,241.12L560.25,238.38L561.47,215.58L563.92,192.48L565.15,185.8L566.37,180.84L567.6,161.5L568.83,161.23L570.05,158.98L571.28,160.47L572.5,153.72L573.73,148.61L574.96,137.98L577.41,126.15L578.63,101.89L582.31,40.82L583.54,26.04L584.76,17.08L585.99,15.82L587.22,0L588.44,1.81L589.67,3.13L590.89,8.96L593.35,16.03L594.57,16.81L600.7,82.75L601.93,94.01L603.15,97.59L604.38,128.59L609.28,194.89L610.51,204.91L611.73,207.3L612.96,227.35L616.64,259.05L617.86,268.09L619.09,273.38L620.32,275.18L622.77,295.27L623.99,300.66L627.67,315.21L628.9,316.17L631.35,322.59L632.57,325.41L635.03,328.64L636.25,329.25L641.16,328.01L642.38,326.78L644.83,323.56L646.06,323.06L653.42,285.96L654.64,285.27L657.09,258.24L658.32,248.19L662,226.44L663.22,225.56L665.67,208.8L666.9,202.97L668.13,199.51L669.35,200L670.58,200.46L671.8,200.05L673.03,207.26L674.26,209.76L675.48,215.23L676.71,217.03L677.93,214.95L679.16,216.23" style="vector-effect: non-scaling-stroke; fill: none; stroke: rgb(8, 115, 191); stroke-opacity: 1; stroke-width: 0.5px; opacity: 1;"/></g><g class="points"/><g class="text"/></g><g class="trace scatter trace9a035e" style="stroke-miterlimit: 2;"><g class="fills"><g><path class="js-fill" d="M691.42,380L679.16,380L679.16,216.23L680.39,217.38L681.61,219.93L685.29,231.4L686.51,238.39L687.74,240.85L688.97,240.96L690.19,273.82L691.42,266.12" style="fill: rgb(8, 115, 191); fill-opacity: 0.4; stroke-width: 0;"/></g></g><g class="errorbars"/><g class="lines"><path class="js-line" d="M679.16,216.23L680.39,217.38L681.61,219.93L685.29,231.4L686.51,238.39L687.74,240.85L688.97,240.96L690.19,273.82L691.42,266.12" style="vector-effect: non-scaling-stroke; fill: none; stroke: rgb(8, 115, 191); stroke-opacity: 1; stroke-width: 2px; opacity: 1;"/></g><g class="points"/><g class="text"/></g><g class="trace scatter trace568eb2" style="stroke-miterlimit: 2; opacity: 1;"><g class="fills"/><g class="errorbars"/><g class="lines"/><g class="points"><path class="point" transform="translate(691.42,266.12)" d="M15,0A15,15 0 1,1 0,-15A15,15 0 0,1 15,0Z" style="opacity: 1; stroke-width: 0px; fill: rgb(8, 115, 191); fill-opacity: 1;"/></g><g class="text"/></g></g></g><g class="overplot"/><path class="xlines-above crisp" style="fill: none; stroke-width: 1px; stroke: rgb(0, 0, 0); stroke-opacity: 0;" d=""/><path class="ylines-above crisp" style="fill: none;" d="M0,0"/><g class="overlines-above"/><g class="xaxislayer-above"><path class="xtick ticks crisp" d="M0,450v-5" transform="translate(90.46000000000001,0)" style="stroke: rgb(68, 68, 68); stroke-opacity: 1; stroke-width: 1px;"/><path class="xtick ticks crisp" d="M0,450v-5" transform="translate(165.24,0)" style="stroke: rgb(68, 68, 68); stroke-opacity: 1; stroke-width: 1px;"/><path class="xtick ticks crisp" d="M0,450v-5" transform="translate(237.57,0)" style="stroke: rgb(68, 68, 68); stroke-opacity: 1; stroke-width: 1px;"/><path class="xtick ticks crisp" d="M0,450v-5" transform="translate(312.35,0)" style="stroke: rgb(68, 68, 68); stroke-opacity: 1; stroke-width: 1px;"/><path class="xtick ticks crisp" d="M0,450v-5" transform="translate(387.13,0)" style="stroke: rgb(68, 68, 68); stroke-opacity: 1; stroke-width: 1px;"/><path class="xtick ticks crisp" d="M0,450v-5" transform="translate(463.13,0)" style="stroke: rgb(68, 68, 68); stroke-opacity: 1; stroke-width: 1px;"/><path class="xtick ticks crisp" d="M0,450v-5" transform="translate(537.9200000000001,0)" style="stroke: rgb(68, 68, 68); stroke-opacity: 1; stroke-width: 1px;"/><path class="xtick ticks crisp" d="M0,450v-5" transform="translate(612.7,0)" style="stroke: rgb(68, 68, 68); stroke-opacity: 1; stroke-width: 1px;"/><path class="xtick ticks crisp" d="M0,450v-5" transform="translate(685.03,0)" style="stroke: rgb(68, 68, 68); stroke-opacity: 1; stroke-width: 1px;"/><g class="xtick"><text text-anchor="middle" x="0" y="469" transform="translate(90.46000000000001,0)" style="font-family: 'Open Sans', verdana, arial, sans-serif; font-size: 18px; fill: rgb(42, 63, 95); fill-opacity: 1; white-space: pre;">01/11</text></g><g class="xtick"><text text-anchor="middle" x="0" y="469" transform="translate(165.24,0)" style="font-family: 'Open Sans', verdana, arial, sans-serif; font-size: 18px; fill: rgb(42, 63, 95); fill-opacity: 1; white-space: pre;">01/01</text></g><g class="xtick"><text text-anchor="middle" x="0" y="469" transform="translate(237.57,0)" style="font-family: 'Open Sans', verdana, arial, sans-serif; font-size: 18px; fill: rgb(42, 63, 95); fill-opacity: 1; white-space: pre;">01/03</text></g><g class="xtick"><text text-anchor="middle" x="0" y="469" transform="translate(312.35,0)" style="font-family: 'Open Sans', verdana, arial, sans-serif; font-size: 18px; fill: rgb(42, 63, 95); fill-opacity: 1; white-space: pre;">01/05</text></g><g class="xtick"><text text-anchor="middle" x="0" y="469" transform="translate(387.13,0)" style="font-family: 'Open Sans', verdana, arial, sans-serif; font-size: 18px; fill: rgb(42, 63, 95); fill-opacity: 1; white-space: pre;">01/07</text></g><g class="xtick"><text text-anchor="middle" x="0" y="469" transform="translate(463.13,0)" style="font-family: 'Open Sans', verdana, arial, sans-serif; font-size: 18px; fill: rgb(42, 63, 95); fill-opacity: 1; white-space: pre;">01/09</text></g><g class="xtick"><text text-anchor="middle" x="0" y="469" transform="translate(537.9200000000001,0)" style="font-family: 'Open Sans', verdana, arial, sans-serif; font-size: 18px; fill: rgb(42, 63, 95); fill-opacity: 1; white-space: pre;">01/11</text></g><g class="xtick"><text text-anchor="middle" x="0" y="469" transform="translate(612.7,0)" style="font-family: 'Open Sans', verdana, arial, sans-serif; font-size: 18px; fill: rgb(42, 63, 95); fill-opacity: 1; white-space: pre;">01/01</text></g><g class="xtick"><text text-anchor="middle" x="0" y="469" transform="translate(685.03,0)" style="font-family: 'Open Sans', verdana, arial, sans-serif; font-size: 18px; fill: rgb(42, 63, 95); fill-opacity: 1; white-space: pre;">01/03</text></g></g><g class="yaxislayer-above"/><g class="overaxes-above"/></g></g><g class="polarlayer"/><g class="ternarylayer"/><g class="geolayer"/><g class="funnelarealayer"/><g class="pielayer"/><g class="treemaplayer"/><g class="sunburstlayer"/><g class="glimages"/><defs id="topdefs-8a4c63"><g class="clips"/></defs><g class="layer-above"><g class="imagelayer"/><g class="shapelayer"><path data-index="0" fill-rule="evenodd" d="M-638.97,444.63L257.18,444.63" clip-path="url('#clip8a4c63xy')" style="opacity: 1; stroke: rgb(255, 0, 0); stroke-opacity: 1; fill: rgb(0, 0, 0); fill-opacity: 0; stroke-dasharray: 3px, 3px; stroke-width: 1.5px;"/></g></g><g class="infolayer"><g class="g-gtitle"><text class="gtitle" x="375" y="25" text-anchor="middle" dy="0.7em" style="font-family: 'Open Sans', verdana, arial, sans-serif; font-size: 50px; fill: rgb(42, 63, 95); opacity: 1; font-weight: normal; white-space: pre;"><tspan style="font-weight:bold">Gard (30)</tspan></text></g><g class="g-xtitle"/><g class="annotation" data-index="0" style="opacity: 1;"><g class="annotation-text-g" transform="rotate(0,699.42,276.12)"><g class="cursor-pointer" transform="translate(627, 240)"><rect class="bg" x="0.5" y="0.5" width="143" height="71" style="stroke-width: 1px; stroke: rgb(0, 0, 0); stroke-opacity: 0; fill: rgb(255, 255, 255); fill-opacity: 0.6;"/><text class="annotation-text" text-anchor="middle" x="72.078125" y="55.5" style="font-family: 'Open Sans', verdana, arial, sans-serif; font-size: 50px; fill: rgb(8, 115, 191); fill-opacity: 1; white-space: pre;"> <tspan style="font-weight:bold">1060 </tspan></text></g></g><g class="annotation-arrow-g" style="opacity: 1;"><path d="M727.8199999999999,311.62L739.42,326.12" style="stroke-width: 1px; stroke: rgb(8, 115, 191); stroke-opacity: 1; stroke-dasharray: 0px, 0px, 18.569px, 18.569px;"/></g></g></g></svg>