<svg class="main-svg" xmlns="http://www.w3.org/2000/svg" xmlns:xlink="http://www.w3.org/1999/xlink" width="1125" height="750" style="" viewBox="0 0 750 500"><rect x="0" y="0" width="750" height="500" style="fill: rgb(0, 0, 0); fill-opacity: 0;"/><defs id="defs-94b648"><g class="clips"><clipPath id="clip94b648xyplot" class="plotclip"><rect width="687" height="380"/></clipPath><clipPath class="axesclip" id="clip94b648x"><rect x="50" y="0" width="687" height="500"/></clipPath><clipPath class="axesclip" id="clip94b648y"><rect x="0" y="70" width="750" height="380"/></clipPath><clipPath class="axesclip" id="clip94b648xy"><rect x="50" y="70" width="687" height="380"/></clipPath></g><g class="gradients"/></defs><g class="bglayer"><rect class="bg" x="50" y="70" width="687" height="380" style="fill: rgb(0, 0, 0); fill-opacity: 0; stroke-width: 0;"/></g><g class="layer-below"><g class="imagelayer"/><g class="shapelayer"/></g><g class="cartesianlayer"><g class="subplot xy"><g class="layer-subplot"><g class="shapelayer"/><g class="imagelayer"/></g><g class="gridlayer"><g class="x"><path class="xgrid crisp" transform="translate(93.1,0)" d="M0,70v380" style="stroke: rgb(255, 255, 255); stroke-opacity: 1; stroke-width: 1px;"/><path class="xgrid crisp" transform="translate(172.76999999999998,0)" d="M0,70v380" style="stroke: rgb(255, 255, 255); stroke-opacity: 1; stroke-width: 1px;"/><path class="xgrid crisp" transform="translate(249.83,0)" d="M0,70v380" style="stroke: rgb(255, 255, 255); stroke-opacity: 1; stroke-width: 1px;"/><path class="xgrid crisp" transform="translate(329.5,0)" d="M0,70v380" style="stroke: rgb(255, 255, 255); stroke-opacity: 1; stroke-width: 1px;"/><path class="xgrid crisp" transform="translate(409.17,0)" d="M0,70v380" style="stroke: rgb(255, 255, 255); stroke-opacity: 1; stroke-width: 1px;"/><path class="xgrid crisp" transform="translate(490.15,0)" d="M0,70v380" style="stroke: rgb(255, 255, 255); stroke-opacity: 1; stroke-width: 1px;"/><path class="xgrid crisp" transform="translate(569.82,0)" d="M0,70v380" style="stroke: rgb(255, 255, 255); stroke-opacity: 1; stroke-width: 1px;"/><path class="xgrid crisp" transform="translate(649.49,0)" d="M0,70v380" style="stroke: rgb(255, 255, 255); stroke-opacity: 1; stroke-width: 1px;"/><path class="xgrid crisp" transform="translate(726.55,0)" d="M0,70v380" style="stroke: rgb(255, 255, 255); stroke-opacity: 1; stroke-width: 1px;"/></g><g class="y"/></g><g class="zerolinelayer"/><path class="xlines-below"/><path class="ylines-below"/><g class="overlines-below"/><g class="xaxislayer-below"/><g class="yaxislayer-below"/><g class="overaxes-below"/><g class="plot" transform="translate(50, 70)" clip-path="url('#clip94b648xyplot')"><g class="scatterlayer mlayer"><g class="trace scatter trace2d0947" style="stroke-miterlimit: 2;"><g class="fills"><g><path class="js-fill" d="M664.8,380L-177.63,380L-177.63,378.78L-147.59,379.5L-146.28,379.46L-78.37,377.88L-77.06,377.48L-50.94,376.07L-49.63,375.43L-19.59,368.31L-18.29,368.26L-7.84,367.3L-6.53,367.5L-1.31,367.32L0,366.58L2.61,366.17L3.92,364.3L6.53,360.8L7.84,359.1L10.45,356.89L11.75,356.82L18.29,350.47L19.59,350.39L20.9,350.3L22.2,348.47L28.73,336.1L30.04,335.71L31.35,332.46L32.65,331.25L33.96,330.48L35.26,331.1L40.49,332.96L41.79,334.83L45.71,342.78L47.02,344.38L48.33,344.36L49.63,348.15L50.94,350.75L52.24,355.13L56.16,359.81L57.47,360.19L60.08,363.55L61.39,362.41L64,365.49L65.3,365.7L66.61,365.81L67.92,367.12L70.53,368.54L71.83,369.1L78.37,370.1L79.67,370.18L83.59,370.03L84.9,370.03L87.51,369.75L88.81,369.94L92.73,369.3L94.04,369.3L95.34,369.51L96.65,368.88L104.49,367.67L105.79,367.62L108.4,367.47L109.71,369.48L120.16,367.41L121.47,367.38L124.08,366.48L125.38,366.75L126.69,366.61L128,364.43L130.61,365.15L131.91,365.68L137.14,366.04L138.44,365.8L142.36,364.95L143.67,363.99L146.28,363.29L147.59,363.23L152.81,362.69L154.12,362.3L163.26,361.33L164.57,360.79L171.1,360.58L172.4,361.25L177.63,361.62L178.93,361.26L182.85,359.34L184.16,358.68L185.46,358.64L186.77,357.4L190.69,356.92L191.99,357.24L199.83,357.55L201.14,357.51L206.36,356.49L207.67,355.92L211.59,351.55L212.89,351.11L218.12,340.13L219.42,337.21L225.95,331.18L227.26,330.21L229.87,329.46L231.18,329.63L232.48,329.27L233.79,327.86L235.1,326.57L236.4,326.82L240.32,329.34L241.63,338.46L242.93,337.23L244.24,338.65L246.85,339.42L248.16,339.47L249.46,339.36L250.77,332.63L252.07,337.46L253.38,339.39L255.99,342.62L257.3,343.42L259.91,343.59L261.22,343.96L266.44,346.65L267.75,347.2L270.36,349.72L271.67,351.49L274.28,354.12L275.58,356.99L276.89,356.72L278.2,358.27L283.42,359.37L284.73,359.33L286.03,359.32L287.34,360.12L289.95,360.8L291.26,363.6L292.56,363.57L293.87,362.67L299.09,364.63L300.4,362.89L303.01,364.36L304.32,364.46L305.62,367.75L306.93,367.96L313.46,369.22L314.77,367.94L317.38,369.93L318.68,370.66L321.3,371.9L322.6,372.01L330.44,375.49L331.75,375.56L335.66,376.6L336.97,376.84L346.11,377.64L347.42,377.92L353.95,377.74L355.25,377.52L359.17,376.49L360.48,376.05L372.23,374.97L373.54,373.64L376.15,371.95L377.46,371.75L381.38,366.18L382.68,365.86L389.21,363.52L390.52,363.57L395.74,363.66L397.05,363.62L400.97,363L402.27,363.01L407.5,361.67L408.8,360.75L415.33,360.27L416.64,360.8L420.56,361.11L421.87,361L424.48,361.3L425.78,361.66L433.62,364.01L434.93,364.16L442.76,367.03L444.07,367.96L450.6,370.09L451.9,370.45L461.05,370.78L462.35,371.18L470.19,372.84L471.5,372.83L476.72,373.6L478.03,373.71L487.17,373.86L488.48,373.46L497.62,372.33L498.92,372.29L508.07,371.99L509.37,372.08L514.6,371.33L515.9,372.39L518.52,371.36L519.82,371.31L523.74,371.65L525.05,369.87L526.35,370.27L527.66,369.84L528.96,370.73L530.27,370.23L532.88,370.14L534.19,369.05L536.8,367.29L538.11,364.87L543.33,359.21L544.64,356.61L548.56,350.22L549.86,348.45L551.17,348.69L552.47,346.2L562.92,332.81L564.23,332.39L568.15,333.19L569.45,333.93L572.06,332.94L573.37,331.58L578.6,322.76L579.9,316.72L585.13,276.69L586.43,281.25L587.74,277.31L589.04,241.42L594.27,129.04L595.57,125.63L596.88,119.93L598.19,87.93L599.49,71.18L600.8,67.5L602.1,63.48L603.41,54.85L604.72,21.16L606.02,18.01L607.33,29.21L608.63,33L609.94,29.12L611.25,30.32L615.17,16.27L616.47,7.66L617.78,6.66L619.08,2.52L620.39,0L621.7,4.82L624.31,13.62L625.61,25.9L632.14,101.53L633.45,106.08L637.37,161.55L638.67,174.46L641.29,200.19L642.59,205.01L645.21,237L646.51,249.91L650.43,278.52L651.74,281.23L654.35,298.29L655.65,303.88L659.57,317.15L660.88,318.33L663.49,329.37L664.8,334.55" style="fill: rgb(8, 115, 191); fill-opacity: 0.2; stroke-width: 0;"/></g></g><g class="errorbars"/><g class="lines"><path class="js-line" d="M-177.63,378.78L-147.59,379.5L-146.28,379.46L-78.37,377.88L-77.06,377.48L-50.94,376.07L-49.63,375.43L-19.59,368.31L-18.29,368.26L-7.84,367.3L-6.53,367.5L-1.31,367.32L0,366.58L2.61,366.17L3.92,364.3L6.53,360.8L7.84,359.1L10.45,356.89L11.75,356.82L18.29,350.47L19.59,350.39L20.9,350.3L22.2,348.47L28.73,336.1L30.04,335.71L31.35,332.46L32.65,331.25L33.96,330.48L35.26,331.1L40.49,332.96L41.79,334.83L45.71,342.78L47.02,344.38L48.33,344.36L49.63,348.15L50.94,350.75L52.24,355.13L56.16,359.81L57.47,360.19L60.08,363.55L61.39,362.41L64,365.49L65.3,365.7L66.61,365.81L67.92,367.12L70.53,368.54L71.83,369.1L78.37,370.1L79.67,370.18L83.59,370.03L84.9,370.03L87.51,369.75L88.81,369.94L92.73,369.3L94.04,369.3L95.34,369.51L96.65,368.88L104.49,367.67L105.79,367.62L108.4,367.47L109.71,369.48L120.16,367.41L121.47,367.38L124.08,366.48L125.38,366.75L126.69,366.61L128,364.43L130.61,365.15L131.91,365.68L137.14,366.04L138.44,365.8L142.36,364.95L143.67,363.99L146.28,363.29L147.59,363.23L152.81,362.69L154.12,362.3L163.26,361.33L164.57,360.79L171.1,360.58L172.4,361.25L177.63,361.62L178.93,361.26L182.85,359.34L184.16,358.68L185.46,358.64L186.77,357.4L190.69,356.92L191.99,357.24L199.83,357.55L201.14,357.51L206.36,356.49L207.67,355.92L211.59,351.55L212.89,351.11L218.12,340.13L219.42,337.21L225.95,331.18L227.26,330.21L229.87,329.46L231.18,329.63L232.48,329.27L233.79,327.86L235.1,326.57L236.4,326.82L240.32,329.34L241.63,338.46L242.93,337.23L244.24,338.65L246.85,339.42L248.16,339.47L249.46,339.36L250.77,332.63L252.07,337.46L253.38,339.39L255.99,342.62L257.3,343.42L259.91,343.59L261.22,343.96L266.44,346.65L267.75,347.2L270.36,349.72L271.67,351.49L274.28,354.12L275.58,356.99L276.89,356.72L278.2,358.27L283.42,359.37L284.73,359.33L286.03,359.32L287.34,360.12L289.95,360.8L291.26,363.6L292.56,363.57L293.87,362.67L299.09,364.63L300.4,362.89L303.01,364.36L304.32,364.46L305.62,367.75L306.93,367.96L313.46,369.22L314.77,367.94L317.38,369.93L318.68,370.66L321.3,371.9L322.6,372.01L330.44,375.49L331.75,375.56L335.66,376.6L336.97,376.84L346.11,377.64L347.42,377.92L353.95,377.74L355.25,377.52L359.17,376.49L360.48,376.05L372.23,374.97L373.54,373.64L376.15,371.95L377.46,371.75L381.38,366.18L382.68,365.86L389.21,363.52L390.52,363.57L395.74,363.66L397.05,363.62L400.97,363L402.27,363.01L407.5,361.67L408.8,360.75L415.33,360.27L416.64,360.8L420.56,361.11L421.87,361L424.48,361.3L425.78,361.66L433.62,364.01L434.93,364.16L442.76,367.03L444.07,367.96L450.6,370.09L451.9,370.45L461.05,370.78L462.35,371.18L470.19,372.84L471.5,372.83L476.72,373.6L478.03,373.71L487.17,373.86L488.48,373.46L497.62,372.33L498.92,372.29L508.07,371.99L509.37,372.08L514.6,371.33L515.9,372.39L518.52,371.36L519.82,371.31L523.74,371.65L525.05,369.87L526.35,370.27L527.66,369.84L528.96,370.73L530.27,370.23L532.88,370.14L534.19,369.05L536.8,367.29L538.11,364.87L543.33,359.21L544.64,356.61L548.56,350.22L549.86,348.45L551.17,348.69L552.47,346.2L562.92,332.81L564.23,332.39L568.15,333.19L569.45,333.93L572.06,332.94L573.37,331.58L578.6,322.76L579.9,316.72L585.13,276.69L586.43,281.25L587.74,277.31L589.04,241.42L594.27,129.04L595.57,125.63L596.88,119.93L598.19,87.93L599.49,71.18L600.8,67.5L602.1,63.48L603.41,54.85L604.72,21.16L606.02,18.01L607.33,29.21L608.63,33L609.94,29.12L611.25,30.32L615.17,16.27L616.47,7.66L617.78,6.66L619.08,2.52L620.39,0L621.7,4.82L624.31,13.62L625.61,25.9L632.14,101.53L633.45,106.08L637.37,161.55L638.67,174.46L641.29,200.19L642.59,205.01L645.21,237L646.51,249.91L650.43,278.52L651.74,281.23L654.35,298.29L655.65,303.88L659.57,317.15L660.88,318.33L663.49,329.37L664.8,334.55" style="vector-effect: non-scaling-stroke; fill: none; stroke: rgb(8, 115, 191); stroke-opacity: 1; stroke-width: 0.5px; opacity: 1;"/></g><g class="points"/><g class="text"/></g><g class="trace scatter trace1f9a10" style="stroke-miterlimit: 2;"><g class="fills"><g><path class="js-fill" d="M677.86,380L664.8,380L664.8,334.55L668.71,342.21L670.02,342.49L673.94,346.33L675.25,346.98L677.86,347.26" style="fill: rgb(8, 115, 191); fill-opacity: 0.4; stroke-width: 0;"/></g></g><g class="errorbars"/><g class="lines"><path class="js-line" d="M664.8,334.55L668.71,342.21L670.02,342.49L673.94,346.33L675.25,346.98L677.86,347.26" style="vector-effect: non-scaling-stroke; fill: none; stroke: rgb(8, 115, 191); stroke-opacity: 1; stroke-width: 2px; opacity: 1;"/></g><g class="points"/><g class="text"/></g><g class="trace scatter trace8e7217" style="stroke-miterlimit: 2; opacity: 1;"><g class="fills"/><g class="errorbars"/><g class="lines"/><g class="points"><path class="point" transform="translate(677.86,347.26)" d="M15,0A15,15 0 1,1 0,-15A15,15 0 0,1 15,0Z" style="opacity: 1; stroke-width: 0px; fill: rgb(8, 115, 191); fill-opacity: 1;"/></g><g class="text"/></g></g></g><g class="overplot"/><path class="xlines-above crisp" style="fill: none; stroke-width: 1px; stroke: rgb(0, 0, 0); stroke-opacity: 0;" d=""/><path class="ylines-above crisp" style="fill: none;" d="M0,0"/><g class="overlines-above"/><g class="xaxislayer-above"><path class="xtick ticks crisp" d="M0,450v-5" transform="translate(93.1,0)" style="stroke: rgb(68, 68, 68); stroke-opacity: 1; stroke-width: 1px;"/><path class="xtick ticks crisp" d="M0,450v-5" transform="translate(172.76999999999998,0)" style="stroke: rgb(68, 68, 68); stroke-opacity: 1; stroke-width: 1px;"/><path class="xtick ticks crisp" d="M0,450v-5" transform="translate(249.83,0)" style="stroke: rgb(68, 68, 68); stroke-opacity: 1; stroke-width: 1px;"/><path class="xtick ticks crisp" d="M0,450v-5" transform="translate(329.5,0)" style="stroke: rgb(68, 68, 68); stroke-opacity: 1; stroke-width: 1px;"/><path class="xtick ticks crisp" d="M0,450v-5" transform="translate(409.17,0)" style="stroke: rgb(68, 68, 68); stroke-opacity: 1; stroke-width: 1px;"/><path class="xtick ticks crisp" d="M0,450v-5" transform="translate(490.15,0)" style="stroke: rgb(68, 68, 68); stroke-opacity: 1; stroke-width: 1px;"/><path class="xtick ticks crisp" d="M0,450v-5" transform="translate(569.82,0)" style="stroke: rgb(68, 68, 68); stroke-opacity: 1; stroke-width: 1px;"/><path class="xtick ticks crisp" d="M0,450v-5" transform="translate(649.49,0)" style="stroke: rgb(68, 68, 68); stroke-opacity: 1; stroke-width: 1px;"/><path class="xtick ticks crisp" d="M0,450v-5" transform="translate(726.55,0)" style="stroke: rgb(68, 68, 68); stroke-opacity: 1; stroke-width: 1px;"/><g class="xtick"><text text-anchor="middle" x="0" y="469" transform="translate(93.1,0)" style="font-family: 'Open Sans', verdana, arial, sans-serif; font-size: 18px; fill: rgb(42, 63, 95); fill-opacity: 1; white-space: pre;">01/11</text></g><g class="xtick"><text text-anchor="middle" x="0" y="469" transform="translate(172.76999999999998,0)" style="font-family: 'Open Sans', verdana, arial, sans-serif; font-size: 18px; fill: rgb(42, 63, 95); fill-opacity: 1; white-space: pre;">01/01</text></g><g class="xtick"><text text-anchor="middle" x="0" y="469" transform="translate(249.83,0)" style="font-family: 'Open Sans', verdana, arial, sans-serif; font-size: 18px; fill: rgb(42, 63, 95); fill-opacity: 1; white-space: pre;">01/03</text></g><g class="xtick"><text text-anchor="middle" x="0" y="469" transform="translate(329.5,0)" style="font-family: 'Open Sans', verdana, arial, sans-serif; font-size: 18px; fill: rgb(42, 63, 95); fill-opacity: 1; white-space: pre;">01/05</text></g><g class="xtick"><text text-anchor="middle" x="0" y="469" transform="translate(409.17,0)" style="font-family: 'Open Sans', verdana, arial, sans-serif; font-size: 18px; fill: rgb(42, 63, 95); fill-opacity: 1; white-space: pre;">01/07</text></g><g class="xtick"><text text-anchor="middle" x="0" y="469" transform="translate(490.15,0)" style="font-family: 'Open Sans', verdana, arial, sans-serif; font-size: 18px; fill: rgb(42, 63, 95); fill-opacity: 1; white-space: pre;">01/09</text></g><g class="xtick"><text text-anchor="middle" x="0" y="469" transform="translate(569.82,0)" style="font-family: 'Open Sans', verdana, arial, sans-serif; font-size: 18px; fill: rgb(42, 63, 95); fill-opacity: 1; white-space: pre;">01/11</text></g><g class="xtick"><text text-anchor="middle" x="0" y="469" transform="translate(649.49,0)" style="font-family: 'Open Sans', verdana, arial, sans-serif; font-size: 18px; fill: rgb(42, 63, 95); fill-opacity: 1; white-space: pre;">01/01</text></g><g class="xtick"><text text-anchor="middle" x="0" y="469" transform="translate(726.55,0)" style="font-family: 'Open Sans', verdana, arial, sans-serif; font-size: 18px; fill: rgb(42, 63, 95); fill-opacity: 1; white-space: pre;">01/03</text></g></g><g class="yaxislayer-above"/><g class="overaxes-above"/></g></g><g class="polarlayer"/><g class="ternarylayer"/><g class="geolayer"/><g class="funnelarealayer"/><g class="pielayer"/><g class="treemaplayer"/><g class="sunburstlayer"/><g class="glimages"/><defs id="topdefs-94b648"><g class="clips"/></defs><g class="layer-above"><g class="imagelayer"/><g class="shapelayer"><path data-index="0" fill-rule="evenodd" d="M-684.02,445.02L270.73,445.02" clip-path="url('#clip94b648xy')" style="opacity: 1; stroke: rgb(255, 0, 0); stroke-opacity: 1; fill: rgb(0, 0, 0); fill-opacity: 0; stroke-dasharray: 3px, 3px; stroke-width: 1.5px;"/></g></g><g class="infolayer"><g class="g-gtitle"><text class="gtitle" x="375" y="25" text-anchor="middle" dy="0.7em" style="font-family: 'Open Sans', verdana, arial, sans-serif; font-size: 50px; fill: rgb(42, 63, 95); opacity: 1; font-weight: normal; white-space: pre;"><tspan style="font-weight:bold">Yvelines (78)</tspan></text></g><g class="g-xtitle"/><g class="annotation" data-index="0" style="opacity: 1;"><g class="annotation-text-g" transform="rotate(0,685.86,357.26)"><g class="cursor-pointer" transform="translate(628, 321)"><rect class="bg" x="0.5" y="0.5" width="115" height="71" style="stroke-width: 1px; stroke: rgb(0, 0, 0); stroke-opacity: 0; fill: rgb(255, 255, 255); fill-opacity: 0.6;"/><text class="annotation-text" text-anchor="middle" x="57.8125" y="55.5" style="font-family: 'Open Sans', verdana, arial, sans-serif; font-size: 50px; fill: rgb(8, 115, 191); fill-opacity: 1; white-space: pre;"> <tspan style="font-weight:bold">328 </tspan></text></g></g><g class="annotation-arrow-g" style="opacity: 1;"><path d="M714.26,392.76L725.86,407.26" style="stroke-width: 1px; stroke: rgb(8, 115, 191); stroke-opacity: 1; stroke-dasharray: 0px, 0px, 18.569px, 18.569px;"/></g></g></g></svg>