<svg class="main-svg" xmlns="http://www.w3.org/2000/svg" xmlns:xlink="http://www.w3.org/1999/xlink" width="1125" height="750" style="" viewBox="0 0 750 500"><rect x="0" y="0" width="750" height="500" style="fill: rgb(0, 0, 0); fill-opacity: 0;"/><defs id="defs-da69d7"><g class="clips"><clipPath id="clipda69d7xyplot" class="plotclip"><rect width="700" height="380"/></clipPath><clipPath class="axesclip" id="clipda69d7x"><rect x="50" y="0" width="700" height="500"/></clipPath><clipPath class="axesclip" id="clipda69d7y"><rect x="0" y="70" width="750" height="380"/></clipPath><clipPath class="axesclip" id="clipda69d7xy"><rect x="50" y="70" width="700" height="380"/></clipPath></g><g class="gradients"/></defs><g class="bglayer"><rect class="bg" x="50" y="70" width="700" height="380" style="fill: rgb(0, 0, 0); fill-opacity: 0; stroke-width: 0;"/></g><g class="layer-below"><g class="imagelayer"/><g class="shapelayer"/></g><g class="cartesianlayer"><g class="subplot xy"><g class="layer-subplot"><g class="shapelayer"/><g class="imagelayer"/></g><g class="gridlayer"><g class="x"><path class="xgrid crisp" transform="translate(90.81,0)" d="M0,70v380" style="stroke: rgb(255, 255, 255); stroke-opacity: 1; stroke-width: 1px;"/><path class="xgrid crisp" transform="translate(166.25,0)" d="M0,70v380" style="stroke: rgb(255, 255, 255); stroke-opacity: 1; stroke-width: 1px;"/><path class="xgrid crisp" transform="translate(239.22,0)" d="M0,70v380" style="stroke: rgb(255, 255, 255); stroke-opacity: 1; stroke-width: 1px;"/><path class="xgrid crisp" transform="translate(314.66,0)" d="M0,70v380" style="stroke: rgb(255, 255, 255); stroke-opacity: 1; stroke-width: 1px;"/><path class="xgrid crisp" transform="translate(390.11,0)" d="M0,70v380" style="stroke: rgb(255, 255, 255); stroke-opacity: 1; stroke-width: 1px;"/><path class="xgrid crisp" transform="translate(466.78,0)" d="M0,70v380" style="stroke: rgb(255, 255, 255); stroke-opacity: 1; stroke-width: 1px;"/><path class="xgrid crisp" transform="translate(542.23,0)" d="M0,70v380" style="stroke: rgb(255, 255, 255); stroke-opacity: 1; stroke-width: 1px;"/><path class="xgrid crisp" transform="translate(617.67,0)" d="M0,70v380" style="stroke: rgb(255, 255, 255); stroke-opacity: 1; stroke-width: 1px;"/><path class="xgrid crisp" transform="translate(690.64,0)" d="M0,70v380" style="stroke: rgb(255, 255, 255); stroke-opacity: 1; stroke-width: 1px;"/></g><g class="y"/></g><g class="zerolinelayer"/><path class="xlines-below"/><path class="ylines-below"/><g class="overlines-below"/><g class="xaxislayer-below"/><g class="yaxislayer-below"/><g class="overaxes-below"/><g class="plot" transform="translate(50, 70)" clip-path="url('#clipda69d7xyplot')"><g class="scatterlayer mlayer"><g class="trace scatter trace8dc2f0" style="stroke-miterlimit: 2;"><g class="fills"><g><path class="js-fill" d="M678.98,380L-168.2,380L-168.2,378.95L-137.28,379.8L-136.04,379.81L-87.81,379.34L-86.57,379.07L-70.49,377.34L-69.26,377.02L-64.31,376.2L-63.07,375.93L-53.18,371.93L-51.94,371.04L-43.29,368.44L-42.05,368.47L-32.16,367.86L-30.92,367.62L-25.97,365.97L-24.73,366.1L-19.79,366.61L-18.55,367.08L-9.89,371.32L-8.66,372.07L-6.18,372.1L-4.95,372.97L2.47,373.2L3.71,372.39L12.37,368.53L13.6,367.79L17.31,365.04L18.55,365.04L21.02,364.6L22.26,363.87L24.73,360.92L25.97,359.29L28.45,358.41L29.68,356.27L32.16,352.47L33.39,351.36L35.87,349.73L37.1,349.56L40.81,347.08L42.05,347.2L45.76,347.53L47,348.58L48.23,350.77L49.47,356.12L50.71,356.97L51.94,359.46L54.42,359.98L55.65,361.42L56.89,362.79L58.13,360.49L60.6,364.19L61.84,364.24L63.07,364.22L64.31,366.03L68.02,367.36L69.26,367.51L71.73,367.69L72.97,367.33L75.44,367.22L76.68,367.06L79.15,366.33L80.39,366.4L86.57,366.15L87.81,365.61L89.05,365.49L90.28,364.31L96.47,356.62L97.7,356.09L101.41,349.86L102.65,349.78L103.89,354L105.12,353.74L108.83,352.97L110.07,351.65L115.02,350.61L116.25,349.3L117.49,348.62L118.73,349.06L119.96,347.35L121.2,340.92L123.67,341.74L124.91,341.34L127.39,342.86L128.62,343.21L133.57,344.78L134.81,343.9L139.75,343.3L140.99,342.93L142.23,342.4L143.46,343.2L149.65,342.66L150.88,343.11L154.59,342.55L155.83,342.36L159.54,342.26L160.78,341.16L163.25,339.8L164.49,340.44L170.67,340.54L171.91,339.74L174.38,337.18L175.62,337.27L176.86,335.82L178.09,336.11L179.33,335.68L180.57,336.99L183.04,340.12L184.28,340.16L186.75,342.18L187.99,343.27L190.46,345.02L191.7,344.45L192.93,344.08L194.17,345.27L197.88,345.43L199.12,344.72L201.59,346.04L202.83,345.36L205.3,346.5L206.54,347.32L209.01,347.88L210.25,347.6L212.72,347.52L213.96,346.04L216.43,343.64L217.67,342.94L220.14,342.82L221.38,342.3L226.33,347.24L227.56,347.22L228.8,354.74L230.04,354.57L236.22,359.01L237.46,356.02L239.93,361.55L241.17,362.51L243.64,364.14L244.88,364.31L248.59,366.34L249.82,366.74L259.72,370.2L260.95,371.06L263.43,371.45L264.66,371.9L272.08,373.97L273.32,374.33L277.03,375.62L278.27,375.46L288.16,375.99L289.4,376.82L304.24,377.48L305.48,377.46L314.13,378.28L315.37,378.51L336.4,377.9L337.63,377.52L341.34,376.45L342.58,375.7L348.76,373.17L350,372.15L352.47,370.96L353.71,367.98L356.18,362.96L357.42,362.3L364.84,328.72L366.08,327.7L368.55,316.88L369.79,314.86L372.26,312.88L373.5,314.24L374.73,314.59L375.97,315.95L379.68,321.93L380.92,324.26L383.39,324.39L384.63,325.66L385.87,326.56L387.1,326.51L392.05,329.03L393.29,331.85L398.23,339.55L399.47,340.52L401.94,342.17L403.18,344.21L408.13,351.17L409.36,351.32L411.84,354.68L413.07,355.68L416.78,359.14L418.02,359.4L420.49,362.33L421.73,363.37L430.39,368.51L431.63,369.24L434.1,370.39L435.34,370.58L436.57,370.59L437.81,371.39L442.76,372.07L443.99,372.07L452.65,372.62L453.89,373.24L465.02,374.64L466.25,374.46L487.28,374.08L488.52,374.79L492.23,373.68L493.46,373.3L495.94,372.67L497.17,370.89L500.88,370.49L502.12,369.07L505.83,366.4L507.07,365.01L508.3,363.51L509.54,360.67L513.25,359.26L514.49,356.9L520.67,346.13L521.91,345.81L525.62,338.36L526.86,336.43L529.33,331.89L530.57,331.37L533.04,324.11L534.28,321.56L536.75,316.03L537.99,314.65L539.22,314.02L540.46,310.06L542.93,302.87L544.17,300.98L545.41,297.58L546.64,296.42L550.35,293.28L551.59,289.9L554.06,284.06L555.3,289.9L556.54,287.91L557.77,274.27L562.72,230.83L563.96,228.71L565.19,224.68L566.43,199.52L568.9,168.44L570.14,158.66L571.38,144.42L572.61,120.9L573.85,119.87L575.09,112.46L576.33,109.69L577.56,99.9L580.04,78.62L581.27,66.49L582.51,60.54L583.75,42.62L586.22,12.06L587.46,1.19L588.69,0L589.93,0.58L591.17,1.43L592.4,7.51L598.59,80.41L599.82,85.61L602.3,131.72L603.53,149.82L607.24,195.45L608.48,200.71L610.95,238.13L612.19,251.02L615.9,276.29L617.14,277.96L619.61,294.67L620.85,300.96L623.32,309.54L624.56,312.37L625.8,313.16L627.03,315.99L631.98,324.98L633.22,326.18L636.93,330.04L638.16,330.13L640.64,328.66L641.87,329.02L643.11,328.8L644.35,326.98L648.06,323.96L649.29,322.23L650.53,320.02L651.77,319.83L655.48,308.44L656.71,305.21L659.19,300.51L660.42,299.86L664.13,287.17L665.37,283.99L667.84,277.04L669.08,276.16L671.55,267.61L672.79,264.76L674.03,263.19L675.27,263.91L678.98,267.83" style="fill: rgb(8, 115, 191); fill-opacity: 0.2; stroke-width: 0;"/></g></g><g class="errorbars"/><g class="lines"><path class="js-line" d="M-168.2,378.95L-137.28,379.8L-136.04,379.81L-87.81,379.34L-86.57,379.07L-70.49,377.34L-69.26,377.02L-64.31,376.2L-63.07,375.93L-53.18,371.93L-51.94,371.04L-43.29,368.44L-42.05,368.47L-32.16,367.86L-30.92,367.62L-25.97,365.97L-24.73,366.1L-19.79,366.61L-18.55,367.08L-9.89,371.32L-8.66,372.07L-6.18,372.1L-4.95,372.97L2.47,373.2L3.71,372.39L12.37,368.53L13.6,367.79L17.31,365.04L18.55,365.04L21.02,364.6L22.26,363.87L24.73,360.92L25.97,359.29L28.45,358.41L29.68,356.27L32.16,352.47L33.39,351.36L35.87,349.73L37.1,349.56L40.81,347.08L42.05,347.2L45.76,347.53L47,348.58L48.23,350.77L49.47,356.12L50.71,356.97L51.94,359.46L54.42,359.98L55.65,361.42L56.89,362.79L58.13,360.49L60.6,364.19L61.84,364.24L63.07,364.22L64.31,366.03L68.02,367.36L69.26,367.51L71.73,367.69L72.97,367.33L75.44,367.22L76.68,367.06L79.15,366.33L80.39,366.4L86.57,366.15L87.81,365.61L89.05,365.49L90.28,364.31L96.47,356.62L97.7,356.09L101.41,349.86L102.65,349.78L103.89,354L105.12,353.74L108.83,352.97L110.07,351.65L115.02,350.61L116.25,349.3L117.49,348.62L118.73,349.06L119.96,347.35L121.2,340.92L123.67,341.74L124.91,341.34L127.39,342.86L128.62,343.21L133.57,344.78L134.81,343.9L139.75,343.3L140.99,342.93L142.23,342.4L143.46,343.2L149.65,342.66L150.88,343.11L154.59,342.55L155.83,342.36L159.54,342.26L160.78,341.16L163.25,339.8L164.49,340.44L170.67,340.54L171.91,339.74L174.38,337.18L175.62,337.27L176.86,335.82L178.09,336.11L179.33,335.68L180.57,336.99L183.04,340.12L184.28,340.16L186.75,342.18L187.99,343.27L190.46,345.02L191.7,344.45L192.93,344.08L194.17,345.27L197.88,345.43L199.12,344.72L201.59,346.04L202.83,345.36L205.3,346.5L206.54,347.32L209.01,347.88L210.25,347.6L212.72,347.52L213.96,346.04L216.43,343.64L217.67,342.94L220.14,342.82L221.38,342.3L226.33,347.24L227.56,347.22L228.8,354.74L230.04,354.57L236.22,359.01L237.46,356.02L239.93,361.55L241.17,362.51L243.64,364.14L244.88,364.31L248.59,366.34L249.82,366.74L259.72,370.2L260.95,371.06L263.43,371.45L264.66,371.9L272.08,373.97L273.32,374.33L277.03,375.62L278.27,375.46L288.16,375.99L289.4,376.82L304.24,377.48L305.48,377.46L314.13,378.28L315.37,378.51L336.4,377.9L337.63,377.52L341.34,376.45L342.58,375.7L348.76,373.17L350,372.15L352.47,370.96L353.71,367.98L356.18,362.96L357.42,362.3L364.84,328.72L366.08,327.7L368.55,316.88L369.79,314.86L372.26,312.88L373.5,314.24L374.73,314.59L375.97,315.95L379.68,321.93L380.92,324.26L383.39,324.39L384.63,325.66L385.87,326.56L387.1,326.51L392.05,329.03L393.29,331.85L398.23,339.55L399.47,340.52L401.94,342.17L403.18,344.21L408.13,351.17L409.36,351.32L411.84,354.68L413.07,355.68L416.78,359.14L418.02,359.4L420.49,362.33L421.73,363.37L430.39,368.51L431.63,369.24L434.1,370.39L435.34,370.58L436.57,370.59L437.81,371.39L442.76,372.07L443.99,372.07L452.65,372.62L453.89,373.24L465.02,374.64L466.25,374.46L487.28,374.08L488.52,374.79L492.23,373.68L493.46,373.3L495.94,372.67L497.17,370.89L500.88,370.49L502.12,369.07L505.83,366.4L507.07,365.01L508.3,363.51L509.54,360.67L513.25,359.26L514.49,356.9L520.67,346.13L521.91,345.81L525.62,338.36L526.86,336.43L529.33,331.89L530.57,331.37L533.04,324.11L534.28,321.56L536.75,316.03L537.99,314.65L539.22,314.02L540.46,310.06L542.93,302.87L544.17,300.98L545.41,297.58L546.64,296.42L550.35,293.28L551.59,289.9L554.06,284.06L555.3,289.9L556.54,287.91L557.77,274.27L562.72,230.83L563.96,228.71L565.19,224.68L566.43,199.52L568.9,168.44L570.14,158.66L571.38,144.42L572.61,120.9L573.85,119.87L575.09,112.46L576.33,109.69L577.56,99.9L580.04,78.62L581.27,66.49L582.51,60.54L583.75,42.62L586.22,12.06L587.46,1.19L588.69,0L589.93,0.58L591.17,1.43L592.4,7.51L598.59,80.41L599.82,85.61L602.3,131.72L603.53,149.82L607.24,195.45L608.48,200.71L610.95,238.13L612.19,251.02L615.9,276.29L617.14,277.96L619.61,294.67L620.85,300.96L623.32,309.54L624.56,312.37L625.8,313.16L627.03,315.99L631.98,324.98L633.22,326.18L636.93,330.04L638.16,330.13L640.64,328.66L641.87,329.02L643.11,328.8L644.35,326.98L648.06,323.96L649.29,322.23L650.53,320.02L651.77,319.83L655.48,308.44L656.71,305.21L659.19,300.51L660.42,299.86L664.13,287.17L665.37,283.99L667.84,277.04L669.08,276.16L671.55,267.61L672.79,264.76L674.03,263.19L675.27,263.91L678.98,267.83" style="vector-effect: non-scaling-stroke; fill: none; stroke: rgb(8, 115, 191); stroke-opacity: 1; stroke-width: 0.5px; opacity: 1;"/></g><g class="points"/><g class="text"/></g><g class="trace scatter tracefb740f" style="stroke-miterlimit: 2;"><g class="fills"><g><path class="js-fill" d="M691.34,380L678.98,380L678.98,267.83L682.69,269.77L683.92,268.69L686.4,268.28L687.63,269.82L691.34,280.06" style="fill: rgb(8, 115, 191); fill-opacity: 0.4; stroke-width: 0;"/></g></g><g class="errorbars"/><g class="lines"><path class="js-line" d="M678.98,267.83L682.69,269.77L683.92,268.69L686.4,268.28L687.63,269.82L691.34,280.06" style="vector-effect: non-scaling-stroke; fill: none; stroke: rgb(8, 115, 191); stroke-opacity: 1; stroke-width: 2px; opacity: 1;"/></g><g class="points"/><g class="text"/></g><g class="trace scatter traceb970cf" style="stroke-miterlimit: 2; opacity: 1;"><g class="fills"/><g class="errorbars"/><g class="lines"/><g class="points"><path class="point" transform="translate(691.34,280.06)" d="M15,0A15,15 0 1,1 0,-15A15,15 0 0,1 15,0Z" style="opacity: 1; stroke-width: 0px; fill: rgb(8, 115, 191); fill-opacity: 1;"/></g><g class="text"/></g></g></g><g class="overplot"/><path class="xlines-above crisp" style="fill: none; stroke-width: 1px; stroke: rgb(0, 0, 0); stroke-opacity: 0;" d=""/><path class="ylines-above crisp" style="fill: none;" d="M0,0"/><g class="overlines-above"/><g class="xaxislayer-above"><path class="xtick ticks crisp" d="M0,450v-5" transform="translate(90.81,0)" style="stroke: rgb(68, 68, 68); stroke-opacity: 1; stroke-width: 1px;"/><path class="xtick ticks crisp" d="M0,450v-5" transform="translate(166.25,0)" style="stroke: rgb(68, 68, 68); stroke-opacity: 1; stroke-width: 1px;"/><path class="xtick ticks crisp" d="M0,450v-5" transform="translate(239.22,0)" style="stroke: rgb(68, 68, 68); stroke-opacity: 1; stroke-width: 1px;"/><path class="xtick ticks crisp" d="M0,450v-5" transform="translate(314.66,0)" style="stroke: rgb(68, 68, 68); stroke-opacity: 1; stroke-width: 1px;"/><path class="xtick ticks crisp" d="M0,450v-5" transform="translate(390.11,0)" style="stroke: rgb(68, 68, 68); stroke-opacity: 1; stroke-width: 1px;"/><path class="xtick ticks crisp" d="M0,450v-5" transform="translate(466.78,0)" style="stroke: rgb(68, 68, 68); stroke-opacity: 1; stroke-width: 1px;"/><path class="xtick ticks crisp" d="M0,450v-5" transform="translate(542.23,0)" style="stroke: rgb(68, 68, 68); stroke-opacity: 1; stroke-width: 1px;"/><path class="xtick ticks crisp" d="M0,450v-5" transform="translate(617.67,0)" style="stroke: rgb(68, 68, 68); stroke-opacity: 1; stroke-width: 1px;"/><path class="xtick ticks crisp" d="M0,450v-5" transform="translate(690.64,0)" style="stroke: rgb(68, 68, 68); stroke-opacity: 1; stroke-width: 1px;"/><g class="xtick"><text text-anchor="middle" x="0" y="469" transform="translate(90.81,0)" style="font-family: 'Open Sans', verdana, arial, sans-serif; font-size: 18px; fill: rgb(42, 63, 95); fill-opacity: 1; white-space: pre;">01/11</text></g><g class="xtick"><text text-anchor="middle" x="0" y="469" transform="translate(166.25,0)" style="font-family: 'Open Sans', verdana, arial, sans-serif; font-size: 18px; fill: rgb(42, 63, 95); fill-opacity: 1; white-space: pre;">01/01</text></g><g class="xtick"><text text-anchor="middle" x="0" y="469" transform="translate(239.22,0)" style="font-family: 'Open Sans', verdana, arial, sans-serif; font-size: 18px; fill: rgb(42, 63, 95); fill-opacity: 1; white-space: pre;">01/03</text></g><g class="xtick"><text text-anchor="middle" x="0" y="469" transform="translate(314.66,0)" style="font-family: 'Open Sans', verdana, arial, sans-serif; font-size: 18px; fill: rgb(42, 63, 95); fill-opacity: 1; white-space: pre;">01/05</text></g><g class="xtick"><text text-anchor="middle" x="0" y="469" transform="translate(390.11,0)" style="font-family: 'Open Sans', verdana, arial, sans-serif; font-size: 18px; fill: rgb(42, 63, 95); fill-opacity: 1; white-space: pre;">01/07</text></g><g class="xtick"><text text-anchor="middle" x="0" y="469" transform="translate(466.78,0)" style="font-family: 'Open Sans', verdana, arial, sans-serif; font-size: 18px; fill: rgb(42, 63, 95); fill-opacity: 1; white-space: pre;">01/09</text></g><g class="xtick"><text text-anchor="middle" x="0" y="469" transform="translate(542.23,0)" style="font-family: 'Open Sans', verdana, arial, sans-serif; font-size: 18px; fill: rgb(42, 63, 95); fill-opacity: 1; white-space: pre;">01/11</text></g><g class="xtick"><text text-anchor="middle" x="0" y="469" transform="translate(617.67,0)" style="font-family: 'Open Sans', verdana, arial, sans-serif; font-size: 18px; fill: rgb(42, 63, 95); fill-opacity: 1; white-space: pre;">01/01</text></g><g class="xtick"><text text-anchor="middle" x="0" y="469" transform="translate(690.64,0)" style="font-family: 'Open Sans', verdana, arial, sans-serif; font-size: 18px; fill: rgb(42, 63, 95); fill-opacity: 1; white-space: pre;">01/03</text></g></g><g class="yaxislayer-above"/><g class="overaxes-above"/></g></g><g class="polarlayer"/><g class="ternarylayer"/><g class="geolayer"/><g class="funnelarealayer"/><g class="pielayer"/><g class="treemaplayer"/><g class="sunburstlayer"/><g class="glimages"/><defs id="topdefs-da69d7"><g class="clips"/></defs><g class="layer-above"><g class="imagelayer"/><g class="shapelayer"><path data-index="0" fill-rule="evenodd" d="M-645.05,445.58L259.01,445.58" clip-path="url('#clipda69d7xy')" style="opacity: 1; stroke: rgb(255, 0, 0); stroke-opacity: 1; fill: rgb(0, 0, 0); fill-opacity: 0; stroke-dasharray: 3px, 3px; stroke-width: 1.5px;"/></g></g><g class="infolayer"><g class="g-gtitle"><text class="gtitle" x="375" y="25" text-anchor="middle" dy="0.7em" style="font-family: 'Open Sans', verdana, arial, sans-serif; font-size: 50px; fill: rgb(42, 63, 95); opacity: 1; font-weight: normal; white-space: pre;"><tspan style="font-weight:bold">Alpes-Maritimes (06)</tspan></text></g><g class="g-xtitle"/><g class="annotation" data-index="0" style="opacity: 1;"><g class="annotation-text-g" transform="rotate(0,699.34,290.06)"><g class="cursor-pointer" transform="translate(627, 254)"><rect class="bg" x="0.5" y="0.5" width="143" height="71" style="stroke-width: 1px; stroke: rgb(0, 0, 0); stroke-opacity: 0; fill: rgb(255, 255, 255); fill-opacity: 0.6;"/><text class="annotation-text" text-anchor="middle" x="72.078125" y="55.5" style="font-family: 'Open Sans', verdana, arial, sans-serif; font-size: 50px; fill: rgb(8, 115, 191); fill-opacity: 1; white-space: pre;"> <tspan style="font-weight:bold">1129 </tspan></text></g></g><g class="annotation-arrow-g" style="opacity: 1;"><path d="M727.74,325.56L739.34,340.06" style="stroke-width: 1px; stroke: rgb(8, 115, 191); stroke-opacity: 1; stroke-dasharray: 0px, 0px, 18.5691px, 18.5691px;"/></g></g></g></svg>