<svg class="main-svg" xmlns="http://www.w3.org/2000/svg" xmlns:xlink="http://www.w3.org/1999/xlink" width="1125" height="750" style="" viewBox="0 0 750 500"><rect x="0" y="0" width="750" height="500" style="fill: rgb(0, 0, 0); fill-opacity: 0;"/><defs id="defs-15d7e1"><g class="clips"><clipPath id="clip15d7e1xyplot" class="plotclip"><rect width="700" height="380"/></clipPath><clipPath class="axesclip" id="clip15d7e1x"><rect x="50" y="0" width="700" height="500"/></clipPath><clipPath class="axesclip" id="clip15d7e1y"><rect x="0" y="70" width="750" height="380"/></clipPath><clipPath class="axesclip" id="clip15d7e1xy"><rect x="50" y="70" width="700" height="380"/></clipPath></g><g class="gradients"/></defs><g class="bglayer"><rect class="bg" x="50" y="70" width="700" height="380" style="fill: rgb(0, 0, 0); fill-opacity: 0; stroke-width: 0;"/></g><g class="layer-below"><g class="imagelayer"/><g class="shapelayer"/></g><g class="cartesianlayer"><g class="subplot xy"><g class="layer-subplot"><g class="shapelayer"/><g class="imagelayer"/></g><g class="gridlayer"><g class="x"><path class="xgrid crisp" transform="translate(108.78,0)" d="M0,70v380" style="stroke: rgb(255, 255, 255); stroke-opacity: 1; stroke-width: 1px;"/><path class="xgrid crisp" transform="translate(217.43,0)" d="M0,70v380" style="stroke: rgb(255, 255, 255); stroke-opacity: 1; stroke-width: 1px;"/><path class="xgrid crisp" transform="translate(322.52,0)" d="M0,70v380" style="stroke: rgb(255, 255, 255); stroke-opacity: 1; stroke-width: 1px;"/><path class="xgrid crisp" transform="translate(431.17,0)" d="M0,70v380" style="stroke: rgb(255, 255, 255); stroke-opacity: 1; stroke-width: 1px;"/><path class="xgrid crisp" transform="translate(539.8199999999999,0)" d="M0,70v380" style="stroke: rgb(255, 255, 255); stroke-opacity: 1; stroke-width: 1px;"/><path class="xgrid crisp" transform="translate(650.25,0)" d="M0,70v380" style="stroke: rgb(255, 255, 255); stroke-opacity: 1; stroke-width: 1px;"/></g><g class="y"/></g><g class="zerolinelayer"/><path class="xlines-below"/><path class="ylines-below"/><g class="overlines-below"/><g class="xaxislayer-below"/><g class="yaxislayer-below"/><g class="overaxes-below"/><g class="plot" transform="translate(50, 70)" clip-path="url('#clip15d7e1xyplot')"><g class="scatterlayer mlayer"><g class="trace scatter trace7fcab5" style="stroke-miterlimit: 2;"><g class="fills"><g><path class="js-fill" d="M669.72,380L-242.24,380L-242.24,372.89L-219.08,376.66L-217.3,376.71L-195.93,374.67L-194.15,374.62L-170.99,378.44L-169.21,377.91L-153.18,376.42L-151.4,375.36L-126.46,374.72L-124.68,374.19L-117.56,372.31L-115.78,371.04L-110.43,366.58L-108.65,366.45L-99.75,354.92L-97.96,354.04L-96.18,353.99L-94.4,350.28L-90.84,345.24L-89.06,340.44L-87.28,333.04L-85.5,333.6L-83.72,332.57L-81.93,324.08L-74.81,303.29L-73.03,299.26L-71.25,298.47L-69.47,293.56L-65.9,285.64L-64.12,282.4L-60.56,276.01L-58.78,276.01L-51.65,265.14L-49.87,260.9L-48.09,262.89L-46.31,262.41L-39.19,255.3L-37.4,256.42L-33.84,251.54L-32.06,251.83L-30.28,250.85L-28.5,251.46L-24.94,253.42L-23.16,255.89L-21.37,257.72L-19.59,256.97L-16.03,264.74L-14.25,266.55L-10.69,271.88L-8.91,272.49L-7.12,279.03L-5.34,279.67L-3.56,280.28L-1.78,279.99L0,275.4L1.78,274.61L3.56,274.47L5.34,267.55L8.91,259.84L10.69,257.43L14.25,252.02L16.03,251.65L19.59,239.24L21.37,232.13L24.94,211.24L26.72,207.9L28.5,206.52L30.28,182.28L37.4,86.91L39.19,79.44L40.97,76.97L42.75,58.76L46.31,46.08L48.09,49.61L51.65,53.45L53.44,54.06L55.22,58.3L57,60.13L60.56,83.17L62.34,102.69L64.12,109.26L65.9,110.33L69.47,159.46L71.25,202.33L74.81,221.13L76.59,225.32L78.37,227.49L80.15,243.43L81.93,249.55L83.72,238.71L87.28,267.9L89.06,268.46L90.84,268.91L92.62,282.08L94.4,294.86L96.18,297.62L97.96,302.31L99.75,302.98L101.53,302.23L103.31,302.55L105.09,302.1L106.87,304.43L110.43,307.56L112.21,312.15L113.99,310.16L115.78,309.55L121.12,311.22L122.9,310.4L124.68,305.81L126.46,306.58L128.24,306L130.03,302.23L137.15,288.63L138.93,286.67L140.71,286.17L142.49,283.46L146.06,277.68L147.84,278.48L149.62,294.81L151.4,294.15L153.18,294.86L154.96,292.42L160.31,280.2L162.09,279.62L163.87,275L165.65,273.86L169.21,264.74L170.99,265.86L172.77,263.36L174.55,243.08L176.34,247.48L178.12,248.17L179.9,243.85L181.68,242.58L188.8,227.15L190.59,224.42L192.37,218.66L194.15,215.45L195.93,210.6L197.71,202.81L199.49,193.58L201.27,191.14L203.05,190.9L204.83,189.76L206.62,189.05L208.4,189.84L210.18,189.5L211.96,192.49L213.74,194.03L215.52,194.16L217.3,191.62L219.08,187.56L220.87,186.26L222.65,186.63L224.43,189.97L226.21,190.05L227.99,190.87L229.77,198.17L233.33,208.53L235.11,217.6L238.68,225.45L240.46,226.7L244.02,234.01L245.8,236.43L249.36,232.85L251.15,233.14L254.71,232.42L256.49,233.38L258.27,235.23L260.05,238.41L261.83,240.46L263.61,239.61L265.39,240.06L267.18,243.93L268.96,248.09L270.74,248.44L272.52,250.72L274.3,250.9L277.86,250.16L279.64,246.13L281.42,244.96L283.21,242.47L286.77,237.67L288.55,237.41L292.11,237.14L293.89,234.84L295.67,232.61L297.46,229.13L301.02,223.25L302.8,222.53L308.14,193.74L309.92,183.95L313.49,165.47L315.27,163.83L318.83,138.8L320.61,132.36L322.39,127.27L324.17,119.82L327.74,118.28L329.52,162.08L331.3,150.89L333.08,153.89L336.64,164.79L338.42,164.79L340.2,164.36L341.98,123.05L343.77,143.04L345.55,147.82L347.33,148L349.11,150.89L350.89,154.31L352.67,154.47L356.23,157.71L358.02,157.28L359.8,159.54L361.58,165.47L365.14,168.15L366.92,180.35L368.7,185.76L370.48,199.89L375.83,240.91L377.61,242.84L381.17,266.57L382.95,273.6L384.73,278.24L386.51,285.69L388.3,285.37L390.08,286.83L393.64,304.65L395.42,306.85L397.2,318.25L398.98,320.48L400.76,318.06L402.54,318.83L404.33,323.52L406.11,323.71L407.89,326.1L409.67,319.79L411.45,322.25L413.23,322.7L415.01,322.99L416.79,331.61L418.58,330.02L420.36,330.6L422.14,331.29L423.92,333.65L427.48,334.32L429.26,328.67L431.04,335.56L432.82,337.84L436.39,342.51L438.17,344.92L439.95,345.27L441.73,348.93L447.07,355.58L448.85,358.05L452.42,360.11L454.2,362.58L461.32,367.75L463.1,368.1L464.89,368.02L466.67,369.1L468.45,369.95L470.23,369.82L473.79,371.49L475.57,371.52L477.35,371.67L479.13,371.04L491.6,362.37L493.38,360.38L500.51,351.23L502.29,350.33L505.85,335.69L507.63,336.07L512.98,293.3L514.76,286.78L520.1,199.33L521.88,185.6L525.45,147.31L527.23,142.91L530.79,99.61L532.57,86.22L534.35,69.79L536.13,60.48L537.91,54.73L539.69,52.26L541.48,37.41L543.26,31.63L545.04,26.86L546.82,18.8L550.38,9.89L552.16,7.87L553.94,8.43L555.73,4.83L557.51,2.55L559.29,2.33L562.85,0L564.63,0.77L566.41,0.27L568.19,2.92L571.76,15.17L573.54,14.61L575.32,17.63L577.1,15.35L580.66,23.76L582.44,25.06L584.22,30.33L586.01,41.73L587.79,53.37L589.57,58.57L593.13,83.44L594.91,92.22L598.47,117.51L600.25,121.91L602.04,124.99L603.82,146.97L607.38,175.5L609.16,181.22L612.72,200.42L614.5,203.36L623.41,248.04L625.19,253.29L626.97,256.18L628.75,270.66L632.32,286.51L634.1,292.16L635.88,298.12L637.66,300.35L644.78,310.51L646.56,313.56L650.13,318.2L651.91,317.96L653.69,323.29L655.47,326.1L657.25,328.85L659.03,329.25L660.81,330.5L662.6,329.84L664.38,330.02L666.16,326.87L667.94,325.54L669.72,322.78" style="fill: rgb(8, 115, 191); fill-opacity: 0.2; stroke-width: 0;"/></g></g><g class="errorbars"/><g class="lines"><path class="js-line" d="M-242.24,372.89L-219.08,376.66L-217.3,376.71L-195.93,374.67L-194.15,374.62L-170.99,378.44L-169.21,377.91L-153.18,376.42L-151.4,375.36L-126.46,374.72L-124.68,374.19L-117.56,372.31L-115.78,371.04L-110.43,366.58L-108.65,366.45L-99.75,354.92L-97.96,354.04L-96.18,353.99L-94.4,350.28L-90.84,345.24L-89.06,340.44L-87.28,333.04L-85.5,333.6L-83.72,332.57L-81.93,324.08L-74.81,303.29L-73.03,299.26L-71.25,298.47L-69.47,293.56L-65.9,285.64L-64.12,282.4L-60.56,276.01L-58.78,276.01L-51.65,265.14L-49.87,260.9L-48.09,262.89L-46.31,262.41L-39.19,255.3L-37.4,256.42L-33.84,251.54L-32.06,251.83L-30.28,250.85L-28.5,251.46L-24.94,253.42L-23.16,255.89L-21.37,257.72L-19.59,256.97L-16.03,264.74L-14.25,266.55L-10.69,271.88L-8.91,272.49L-7.12,279.03L-5.34,279.67L-3.56,280.28L-1.78,279.99L0,275.4L1.78,274.61L3.56,274.47L5.34,267.55L8.91,259.84L10.69,257.43L14.25,252.02L16.03,251.65L19.59,239.24L21.37,232.13L24.94,211.24L26.72,207.9L28.5,206.52L30.28,182.28L37.4,86.91L39.19,79.44L40.97,76.97L42.75,58.76L46.31,46.08L48.09,49.61L51.65,53.45L53.44,54.06L55.22,58.3L57,60.13L60.56,83.17L62.34,102.69L64.12,109.26L65.9,110.33L69.47,159.46L71.25,202.33L74.81,221.13L76.59,225.32L78.37,227.49L80.15,243.43L81.93,249.55L83.72,238.71L87.28,267.9L89.06,268.46L90.84,268.91L92.62,282.08L94.4,294.86L96.18,297.62L97.96,302.31L99.75,302.98L101.53,302.23L103.31,302.55L105.09,302.1L106.87,304.43L110.43,307.56L112.21,312.15L113.99,310.16L115.78,309.55L121.12,311.22L122.9,310.4L124.68,305.81L126.46,306.58L128.24,306L130.03,302.23L137.15,288.63L138.93,286.67L140.71,286.17L142.49,283.46L146.06,277.68L147.84,278.48L149.62,294.81L151.4,294.15L153.18,294.86L154.96,292.42L160.31,280.2L162.09,279.62L163.87,275L165.65,273.86L169.21,264.74L170.99,265.86L172.77,263.36L174.55,243.08L176.34,247.48L178.12,248.17L179.9,243.85L181.68,242.58L188.8,227.15L190.59,224.42L192.37,218.66L194.15,215.45L195.93,210.6L197.71,202.81L199.49,193.58L201.27,191.14L203.05,190.9L204.83,189.76L206.62,189.05L208.4,189.84L210.18,189.5L211.96,192.49L213.74,194.03L215.52,194.16L217.3,191.62L219.08,187.56L220.87,186.26L222.65,186.63L224.43,189.97L226.21,190.05L227.99,190.87L229.77,198.17L233.33,208.53L235.11,217.6L238.68,225.45L240.46,226.7L244.02,234.01L245.8,236.43L249.36,232.85L251.15,233.14L254.71,232.42L256.49,233.38L258.27,235.23L260.05,238.41L261.83,240.46L263.61,239.61L265.39,240.06L267.18,243.93L268.96,248.09L270.74,248.44L272.52,250.72L274.3,250.9L277.86,250.16L279.64,246.13L281.42,244.96L283.21,242.47L286.77,237.67L288.55,237.41L292.11,237.14L293.89,234.84L295.67,232.61L297.46,229.13L301.02,223.25L302.8,222.53L308.14,193.74L309.92,183.95L313.49,165.47L315.27,163.83L318.83,138.8L320.61,132.36L322.39,127.27L324.17,119.82L327.74,118.28L329.52,162.08L331.3,150.89L333.08,153.89L336.64,164.79L338.42,164.79L340.2,164.36L341.98,123.05L343.77,143.04L345.55,147.82L347.33,148L349.11,150.89L350.89,154.31L352.67,154.47L356.23,157.71L358.02,157.28L359.8,159.54L361.58,165.47L365.14,168.15L366.92,180.35L368.7,185.76L370.48,199.89L375.83,240.91L377.61,242.84L381.17,266.57L382.95,273.6L384.73,278.24L386.51,285.69L388.3,285.37L390.08,286.83L393.64,304.65L395.42,306.85L397.2,318.25L398.98,320.48L400.76,318.06L402.54,318.83L404.33,323.52L406.11,323.71L407.89,326.1L409.67,319.79L411.45,322.25L413.23,322.7L415.01,322.99L416.79,331.61L418.58,330.02L420.36,330.6L422.14,331.29L423.92,333.65L427.48,334.32L429.26,328.67L431.04,335.56L432.82,337.84L436.39,342.51L438.17,344.92L439.95,345.27L441.73,348.93L447.07,355.58L448.85,358.05L452.42,360.11L454.2,362.58L461.32,367.75L463.1,368.1L464.89,368.02L466.67,369.1L468.45,369.95L470.23,369.82L473.79,371.49L475.57,371.52L477.35,371.67L479.13,371.04L491.6,362.37L493.38,360.38L500.51,351.23L502.29,350.33L505.85,335.69L507.63,336.07L512.98,293.3L514.76,286.78L520.1,199.33L521.88,185.6L525.45,147.31L527.23,142.91L530.79,99.61L532.57,86.22L534.35,69.79L536.13,60.48L537.91,54.73L539.69,52.26L541.48,37.41L543.26,31.63L545.04,26.86L546.82,18.8L550.38,9.89L552.16,7.87L553.94,8.43L555.73,4.83L557.51,2.55L559.29,2.33L562.85,0L564.63,0.77L566.41,0.27L568.19,2.92L571.76,15.17L573.54,14.61L575.32,17.63L577.1,15.35L580.66,23.76L582.44,25.06L584.22,30.33L586.01,41.73L587.79,53.37L589.57,58.57L593.13,83.44L594.91,92.22L598.47,117.51L600.25,121.91L602.04,124.99L603.82,146.97L607.38,175.5L609.16,181.22L612.72,200.42L614.5,203.36L623.41,248.04L625.19,253.29L626.97,256.18L628.75,270.66L632.32,286.51L634.1,292.16L635.88,298.12L637.66,300.35L644.78,310.51L646.56,313.56L650.13,318.2L651.91,317.96L653.69,323.29L655.47,326.1L657.25,328.85L659.03,329.25L660.81,330.5L662.6,329.84L664.38,330.02L666.16,326.87L667.94,325.54L669.72,322.78" style="vector-effect: non-scaling-stroke; fill: none; stroke: rgb(8, 115, 191); stroke-opacity: 1; stroke-width: 0.5px; opacity: 1;"/></g><g class="points"/><g class="text"/></g><g class="trace scatter trace73c970" style="stroke-miterlimit: 2;"><g class="fills"><g><path class="js-fill" d="M687.53,380L669.72,380L669.72,322.78L671.5,319.65L673.28,320.71L675.06,322.57L676.84,323.31L678.63,327.18L680.41,328.88L682.19,330.05L683.97,332.54L685.75,329.44L687.53,328.3" style="fill: rgb(8, 115, 191); fill-opacity: 0.4; stroke-width: 0;"/></g></g><g class="errorbars"/><g class="lines"><path class="js-line" d="M669.72,322.78L671.5,319.65L673.28,320.71L675.06,322.57L676.84,323.31L678.63,327.18L680.41,328.88L682.19,330.05L683.97,332.54L685.75,329.44L687.53,328.3" style="vector-effect: non-scaling-stroke; fill: none; stroke: rgb(8, 115, 191); stroke-opacity: 1; stroke-width: 2px; opacity: 1;"/></g><g class="points"/><g class="text"/></g><g class="trace scatter trace297e10" style="stroke-miterlimit: 2; opacity: 1;"><g class="fills"/><g class="errorbars"/><g class="lines"/><g class="points"><path class="point" transform="translate(687.53,328.3)" d="M15,0A15,15 0 1,1 0,-15A15,15 0 0,1 15,0Z" style="opacity: 1; stroke-width: 0px; fill: rgb(8, 115, 191); fill-opacity: 1;"/></g><g class="text"/></g></g></g><g class="overplot"/><path class="xlines-above crisp" style="fill: none; stroke-width: 1px; stroke: rgb(0, 0, 0); stroke-opacity: 0;" d=""/><path class="ylines-above crisp" style="fill: none;" d="M0,0"/><g class="overlines-above"/><g class="xaxislayer-above"><path class="xtick ticks crisp" d="M0,450v-5" transform="translate(108.78,0)" style="stroke: rgb(68, 68, 68); stroke-opacity: 1; stroke-width: 1px;"/><path class="xtick ticks crisp" d="M0,450v-5" transform="translate(217.43,0)" style="stroke: rgb(68, 68, 68); stroke-opacity: 1; stroke-width: 1px;"/><path class="xtick ticks crisp" d="M0,450v-5" transform="translate(322.52,0)" style="stroke: rgb(68, 68, 68); stroke-opacity: 1; stroke-width: 1px;"/><path class="xtick ticks crisp" d="M0,450v-5" transform="translate(431.17,0)" style="stroke: rgb(68, 68, 68); stroke-opacity: 1; stroke-width: 1px;"/><path class="xtick ticks crisp" d="M0,450v-5" transform="translate(539.8199999999999,0)" style="stroke: rgb(68, 68, 68); stroke-opacity: 1; stroke-width: 1px;"/><path class="xtick ticks crisp" d="M0,450v-5" transform="translate(650.25,0)" style="stroke: rgb(68, 68, 68); stroke-opacity: 1; stroke-width: 1px;"/><g class="xtick"><text text-anchor="middle" x="0" y="469" transform="translate(108.78,0)" style="font-family: 'Open Sans', verdana, arial, sans-serif; font-size: 18px; fill: rgb(42, 63, 95); fill-opacity: 1; white-space: pre;">01/11</text></g><g class="xtick"><text text-anchor="middle" x="0" y="469" transform="translate(217.43,0)" style="font-family: 'Open Sans', verdana, arial, sans-serif; font-size: 18px; fill: rgb(42, 63, 95); fill-opacity: 1; white-space: pre;">01/01</text></g><g class="xtick"><text text-anchor="middle" x="0" y="469" transform="translate(322.52,0)" style="font-family: 'Open Sans', verdana, arial, sans-serif; font-size: 18px; fill: rgb(42, 63, 95); fill-opacity: 1; white-space: pre;">01/03</text></g><g class="xtick"><text text-anchor="middle" x="0" y="469" transform="translate(431.17,0)" style="font-family: 'Open Sans', verdana, arial, sans-serif; font-size: 18px; fill: rgb(42, 63, 95); fill-opacity: 1; white-space: pre;">01/05</text></g><g class="xtick"><text text-anchor="middle" x="0" y="469" transform="translate(539.8199999999999,0)" style="font-family: 'Open Sans', verdana, arial, sans-serif; font-size: 18px; fill: rgb(42, 63, 95); fill-opacity: 1; white-space: pre;">01/07</text></g><g class="xtick"><text text-anchor="middle" x="0" y="469" transform="translate(650.25,0)" style="font-family: 'Open Sans', verdana, arial, sans-serif; font-size: 18px; fill: rgb(42, 63, 95); fill-opacity: 1; white-space: pre;">01/09</text></g></g><g class="yaxislayer-above"/><g class="overaxes-above"/></g></g><g class="polarlayer"/><g class="ternarylayer"/><g class="geolayer"/><g class="funnelarealayer"/><g class="pielayer"/><g class="treemaplayer"/><g class="sunburstlayer"/><g class="glimages"/><defs id="topdefs-15d7e1"><g class="clips"/></defs><g class="layer-above"><g class="imagelayer"/><g class="shapelayer"><path data-index="0" fill-rule="evenodd" d="M-951.02,423.03L351.02,423.03" clip-path="url('#clip15d7e1xy')" style="opacity: 1; stroke: rgb(255, 0, 0); stroke-opacity: 1; fill: rgb(0, 0, 0); fill-opacity: 0; stroke-dasharray: 3px, 3px; stroke-width: 1.5px;"/></g></g><g class="infolayer"><g class="g-gtitle"><text class="gtitle" x="375" y="25" text-anchor="middle" dy="0.7em" style="font-family: 'Open Sans', verdana, arial, sans-serif; font-size: 50px; fill: rgb(42, 63, 95); opacity: 1; font-weight: normal; white-space: pre;"><tspan style="font-weight:bold">Bouches-du-Rhône (13)</tspan></text></g><g class="g-xtitle"/><g class="annotation" data-index="0" style="opacity: 1;"><g class="annotation-text-g" transform="rotate(0,695.53,338.3)"><g class="cursor-pointer" transform="translate(652, 302)"><rect class="bg" x="0.5" y="0.5" width="86" height="71" style="stroke-width: 1px; stroke: rgb(0, 0, 0); stroke-opacity: 0; fill: rgb(255, 255, 255); fill-opacity: 0.6;"/><text class="annotation-text" text-anchor="middle" x="43.53125" y="55.5" style="font-family: 'Open Sans', verdana, arial, sans-serif; font-size: 50px; fill: rgb(8, 115, 191); fill-opacity: 1; white-space: pre;"> <tspan style="font-weight:bold">95 </tspan></text></g></g><g class="annotation-arrow-g" style="opacity: 1;"><path d="M723.93,373.8L735.53,388.3" style="stroke-width: 1px; stroke: rgb(8, 115, 191); stroke-opacity: 1; stroke-dasharray: 0px, 0px, 18.5691px, 18.5691px;"/></g></g></g></svg>