<svg class="main-svg" xmlns="http://www.w3.org/2000/svg" xmlns:xlink="http://www.w3.org/1999/xlink" width="1125" height="750" style="" viewBox="0 0 750 500"><rect x="0" y="0" width="750" height="500" style="fill: rgb(0, 0, 0); fill-opacity: 0;"/><defs id="defs-b8b7e9"><g class="clips"><clipPath id="clipb8b7e9xyplot" class="plotclip"><rect width="700" height="380"/></clipPath><clipPath class="axesclip" id="clipb8b7e9x"><rect x="50" y="0" width="700" height="500"/></clipPath><clipPath class="axesclip" id="clipb8b7e9y"><rect x="0" y="70" width="750" height="380"/></clipPath><clipPath class="axesclip" id="clipb8b7e9xy"><rect x="50" y="70" width="700" height="380"/></clipPath></g><g class="gradients"/></defs><g class="bglayer"><rect class="bg" x="50" y="70" width="700" height="380" style="fill: rgb(0, 0, 0); fill-opacity: 0; stroke-width: 0;"/></g><g class="layer-below"><g class="imagelayer"/><g class="shapelayer"/></g><g class="cartesianlayer"><g class="subplot xy"><g class="layer-subplot"><g class="shapelayer"/><g class="imagelayer"/></g><g class="gridlayer"><g class="x"><path class="xgrid crisp" transform="translate(52.11,0)" d="M0,70v380" style="stroke: rgb(255, 255, 255); stroke-opacity: 1; stroke-width: 1px;"/><path class="xgrid crisp" transform="translate(149.4,0)" d="M0,70v380" style="stroke: rgb(255, 255, 255); stroke-opacity: 1; stroke-width: 1px;"/><path class="xgrid crisp" transform="translate(244.56,0)" d="M0,70v380" style="stroke: rgb(255, 255, 255); stroke-opacity: 1; stroke-width: 1px;"/><path class="xgrid crisp" transform="translate(340.79,0)" d="M0,70v380" style="stroke: rgb(255, 255, 255); stroke-opacity: 1; stroke-width: 1px;"/><path class="xgrid crisp" transform="translate(438.07,0)" d="M0,70v380" style="stroke: rgb(255, 255, 255); stroke-opacity: 1; stroke-width: 1px;"/><path class="xgrid crisp" transform="translate(535.35,0)" d="M0,70v380" style="stroke: rgb(255, 255, 255); stroke-opacity: 1; stroke-width: 1px;"/><path class="xgrid crisp" transform="translate(630.51,0)" d="M0,70v380" style="stroke: rgb(255, 255, 255); stroke-opacity: 1; stroke-width: 1px;"/><path class="xgrid crisp" transform="translate(726.74,0)" d="M0,70v380" style="stroke: rgb(255, 255, 255); stroke-opacity: 1; stroke-width: 1px;"/></g><g class="y"/></g><g class="zerolinelayer"/><path class="xlines-below"/><path class="ylines-below"/><g class="overlines-below"/><g class="xaxislayer-below"/><g class="yaxislayer-below"/><g class="overaxes-below"/><g class="plot" transform="translate(50, 70)" clip-path="url('#clipb8b7e9xyplot')"><g class="scatterlayer mlayer"><g class="trace scatter trace695e68" style="stroke-miterlimit: 2;"><g class="fills"><g><path class="js-fill" d="M682.02,380L-143.81,380L-143.81,379.6L-118.43,379.82L-117.37,379.82L-41.24,378.93L-40.18,378.53L-30.66,377.78L-29.61,377.38L-25.38,377.24L-24.32,376.93L-19.03,374.93L-17.98,375.37L-11.63,375.91L-10.57,375.24L-8.46,374.79L-7.4,374.57L-1.06,373.82L0,374.13L8.46,372.66L9.52,372.66L10.57,372.48L11.63,373.06L15.86,373.33L16.92,373.19L17.98,372.17L19.03,369.9L22.21,362.11L23.26,360.91L24.32,360.69L25.38,357.93L30.66,349.03L31.72,349.08L32.78,346.41L33.84,346.54L35.95,346.28L37.01,344.36L40.18,346.68L41.24,346.05L42.3,351.61L43.35,352.86L44.41,356.64L45.47,357.26L46.53,357.4L47.58,360.25L48.64,362.92L49.7,361.14L51.81,367.01L52.87,367.01L53.93,366.96L54.98,369.19L57.1,370.83L58.16,370.66L60.27,372.17L61.33,372.17L63.44,372.66L64.5,373.42L66.62,372.57L67.67,372.35L71.9,372.97L72.96,373.5L75.08,374.57L76.13,374.57L80.36,373.37L81.42,372.66L83.53,372.13L84.59,371.86L86.71,370.88L87.76,371.24L88.82,372.93L89.88,373.19L94.11,372.17L95.17,371.55L96.22,371.55L97.28,370.79L98.34,370.88L99.4,369.1L100.45,368.21L101.51,368.3L102.57,368.25L103.63,366.25L106.8,367.54L107.85,366.7L113.14,365.72L114.2,363.32L117.37,361.31L118.43,361.58L120.54,360.82L121.6,361.49L122.66,362.69L123.72,362.03L127.95,360.69L129,361.45L130.06,359.18L131.12,359.27L132.18,360.02L133.23,358.73L136.4,360.38L137.46,362.83L138.52,362.83L139.58,363.63L140.63,365.14L141.69,364.92L144.86,365.1L145.92,365.18L146.98,365.01L148.04,363.81L152.27,360.69L153.32,359.76L154.38,358.02L155.44,357.93L158.61,360.69L159.67,362.38L161.78,364.7L162.84,364.38L166.01,364.78L167.07,363.81L168.13,364.38L169.18,364.03L171.3,364.21L172.36,363.94L174.47,362.74L175.53,362.03L176.59,362.29L177.64,361.67L179.76,361.67L180.82,360.42L183.99,356.78L185.05,356.64L187.16,356.2L188.22,356.73L189.27,353.62L190.33,354.11L191.39,354.68L192.45,354.37L194.56,354.51L195.62,358.2L197.73,360.2L198.79,358.91L199.85,360.16L200.91,360.07L201.96,360.29L203.02,355.57L204.08,358.02L205.14,356.86L206.19,357.22L207.25,355.8L209.37,355.08L210.42,355.57L213.6,357.84L214.65,358.91L217.82,360.56L218.88,360.96L223.11,365.9L224.17,365.54L226.28,367.54L227.34,367.59L230.51,369.19L231.57,369.72L232.63,369.46L233.69,370.08L234.74,369.72L235.8,371.19L238.97,370.26L240.03,371.46L242.15,372.97L243.2,372.04L245.32,373.01L246.37,373.01L247.43,374.39L248.49,373.9L251.66,374.62L252.72,373.77L253.78,373.59L254.83,371.95L256.95,373.15L258.01,373.46L259.06,373.37L260.12,374.13L264.35,375.02L265.41,375.02L271.75,377.64L272.81,378.09L283.38,379.2L284.44,379.2L292.9,378.71L293.96,378.44L299.24,377.86L300.3,377.42L301.36,377.86L302.42,377.46L306.65,376.22L307.7,375.91L311.93,372.66L312.99,372.53L316.16,368.52L317.22,367.94L320.39,366.74L321.45,366.65L322.51,367.59L323.56,367.05L325.68,366.03L326.74,366.25L328.85,365.63L329.91,364.47L332.02,363.4L333.08,364.25L335.2,363.67L336.25,363.58L338.37,364.38L339.43,365.14L340.48,365.1L341.54,366.07L344.71,366.96L345.77,367.32L347.89,367.9L348.94,367.9L350,368.03L351.06,369.23L356.34,374.13L357.4,374.04L360.57,375.77L361.63,375.73L364.8,376.22L365.86,377.02L369.03,377.82L370.09,377.82L376.44,377.46L377.49,377.55L381.72,378.35L382.78,378.13L394.41,379.11L395.47,378.89L402.87,376.35L403.93,375.37L408.16,372.08L409.21,371.9L411.33,371.15L412.39,370.88L416.62,370.61L417.67,371.86L420.85,369.54L421.9,369.28L424.02,369.19L425.08,367.41L426.13,367.76L427.19,369.28L428.25,370.88L429.31,370.39L431.42,369.14L432.48,367.72L434.59,366.03L435.65,364.16L436.71,363.4L437.76,363.81L439.88,364.03L440.94,364.07L441.99,363.58L443.05,362.25L444.11,361.49L445.17,359.4L446.22,359.31L447.28,357.04L449.4,353.17L450.45,349.39L452.57,346.05L453.63,345.88L455.74,339.96L456.8,337.64L457.85,338.09L458.91,336.58L461.03,336.18L462.08,335.02L464.2,335.38L465.26,336.49L467.37,337.64L468.43,337.51L469.49,341.38L470.54,340.8L471.6,339.38L472.66,336.27L473.72,331.77L474.77,334.71L475.83,333.51L476.89,320.65L481.12,268.82L482.18,267.88L483.23,264.14L484.29,244.44L486.4,215.6L487.46,209.38L488.52,204.97L489.58,185.62L490.63,183.7L491.69,179.39L492.75,176.41L493.81,170.58L494.86,166.98L495.92,155.45L496.98,142.11L498.04,138.95L502.27,70.7L503.32,56.68L505.44,43.42L506.5,23.45L508.61,6.67L509.67,2.71L510.73,0L511.78,5.25L512.84,7.79L513.9,15.08L518.13,65.36L519.18,70.87L520.24,74.34L521.3,94.05L526.59,163.24L527.64,168.18L529.76,206.26L530.82,213.83L533.99,233.49L535.05,234.82L538.22,263.12L539.27,271.17L541.39,277.76L542.45,278.74L545.62,293.55L546.68,295.42L548.79,303.21L549.85,303.79L554.08,292.4L555.14,289.37L557.25,286.21L558.31,278.38L559.37,274.73L560.42,273.84L563.6,265.61L564.65,265.7L567.82,255.51L568.88,250.17L571,245.1L572.05,243.86L575.23,230.51L576.28,230.82L577.34,231.13L578.4,234.65L579.46,235.76L580.51,234.96L581.57,238.61L582.63,235.67L584.74,225.3L585.8,219.83L586.86,220.19L587.92,219.34L588.97,217.3L590.03,220.01L593.2,238.34L594.26,237.94L595.32,270.82L596.37,270.55L598.49,285.86L599.55,290.39L601.66,298.67L602.72,288.21L604.83,308.24L605.89,315.93L608.01,326.34L609.06,326.08L612.24,336.13L613.29,337.73L614.35,340.54L615.41,341.2L616.47,341.43L617.52,343.21L620.69,345.74L621.75,345.7L628.1,354.55L629.15,356.78L631.27,357.71L632.33,360.29L635.5,364.87L636.56,364.07L638.67,364.03L639.73,361.14L641.84,356.2L642.9,350.86L646.07,345.12L647.13,349.39L649.24,337.73L650.3,336.4L652.42,333.46L653.47,333.6L654.53,321.89L655.59,324.34L657.7,318.2L658.76,317.31L665.11,300.72L666.16,296.53L667.22,294.71L668.28,294.62L672.51,266.55L673.56,261.39L675.68,255.51L676.74,242.82L678.85,229.64L679.91,230.36L682.02,228.29" style="fill: rgb(8, 115, 191); fill-opacity: 0.2; stroke-width: 0;"/></g></g><g class="errorbars"/><g class="lines"><path class="js-line" d="M-143.81,379.6L-118.43,379.82L-117.37,379.82L-41.24,378.93L-40.18,378.53L-30.66,377.78L-29.61,377.38L-25.38,377.24L-24.32,376.93L-19.03,374.93L-17.98,375.37L-11.63,375.91L-10.57,375.24L-8.46,374.79L-7.4,374.57L-1.06,373.82L0,374.13L8.46,372.66L9.52,372.66L10.57,372.48L11.63,373.06L15.86,373.33L16.92,373.19L17.98,372.17L19.03,369.9L22.21,362.11L23.26,360.91L24.32,360.69L25.38,357.93L30.66,349.03L31.72,349.08L32.78,346.41L33.84,346.54L35.95,346.28L37.01,344.36L40.18,346.68L41.24,346.05L42.3,351.61L43.35,352.86L44.41,356.64L45.47,357.26L46.53,357.4L47.58,360.25L48.64,362.92L49.7,361.14L51.81,367.01L52.87,367.01L53.93,366.96L54.98,369.19L57.1,370.83L58.16,370.66L60.27,372.17L61.33,372.17L63.44,372.66L64.5,373.42L66.62,372.57L67.67,372.35L71.9,372.97L72.96,373.5L75.08,374.57L76.13,374.57L80.36,373.37L81.42,372.66L83.53,372.13L84.59,371.86L86.71,370.88L87.76,371.24L88.82,372.93L89.88,373.19L94.11,372.17L95.17,371.55L96.22,371.55L97.28,370.79L98.34,370.88L99.4,369.1L100.45,368.21L101.51,368.3L102.57,368.25L103.63,366.25L106.8,367.54L107.85,366.7L113.14,365.72L114.2,363.32L117.37,361.31L118.43,361.58L120.54,360.82L121.6,361.49L122.66,362.69L123.72,362.03L127.95,360.69L129,361.45L130.06,359.18L131.12,359.27L132.18,360.02L133.23,358.73L136.4,360.38L137.46,362.83L138.52,362.83L139.58,363.63L140.63,365.14L141.69,364.92L144.86,365.1L145.92,365.18L146.98,365.01L148.04,363.81L152.27,360.69L153.32,359.76L154.38,358.02L155.44,357.93L158.61,360.69L159.67,362.38L161.78,364.7L162.84,364.38L166.01,364.78L167.07,363.81L168.13,364.38L169.18,364.03L171.3,364.21L172.36,363.94L174.47,362.74L175.53,362.03L176.59,362.29L177.64,361.67L179.76,361.67L180.82,360.42L183.99,356.78L185.05,356.64L187.16,356.2L188.22,356.73L189.27,353.62L190.33,354.11L191.39,354.68L192.45,354.37L194.56,354.51L195.62,358.2L197.73,360.2L198.79,358.91L199.85,360.16L200.91,360.07L201.96,360.29L203.02,355.57L204.08,358.02L205.14,356.86L206.19,357.22L207.25,355.8L209.37,355.08L210.42,355.57L213.6,357.84L214.65,358.91L217.82,360.56L218.88,360.96L223.11,365.9L224.17,365.54L226.28,367.54L227.34,367.59L230.51,369.19L231.57,369.72L232.63,369.46L233.69,370.08L234.74,369.72L235.8,371.19L238.97,370.26L240.03,371.46L242.15,372.97L243.2,372.04L245.32,373.01L246.37,373.01L247.43,374.39L248.49,373.9L251.66,374.62L252.72,373.77L253.78,373.59L254.83,371.95L256.95,373.15L258.01,373.46L259.06,373.37L260.12,374.13L264.35,375.02L265.41,375.02L271.75,377.64L272.81,378.09L283.38,379.2L284.44,379.2L292.9,378.71L293.96,378.44L299.24,377.86L300.3,377.42L301.36,377.86L302.42,377.46L306.65,376.22L307.7,375.91L311.93,372.66L312.99,372.53L316.16,368.52L317.22,367.94L320.39,366.74L321.45,366.65L322.51,367.59L323.56,367.05L325.68,366.03L326.74,366.25L328.85,365.63L329.91,364.47L332.02,363.4L333.08,364.25L335.2,363.67L336.25,363.58L338.37,364.38L339.43,365.14L340.48,365.1L341.54,366.07L344.71,366.96L345.77,367.32L347.89,367.9L348.94,367.9L350,368.03L351.06,369.23L356.34,374.13L357.4,374.04L360.57,375.77L361.63,375.73L364.8,376.22L365.86,377.02L369.03,377.82L370.09,377.82L376.44,377.46L377.49,377.55L381.72,378.35L382.78,378.13L394.41,379.11L395.47,378.89L402.87,376.35L403.93,375.37L408.16,372.08L409.21,371.9L411.33,371.15L412.39,370.88L416.62,370.61L417.67,371.86L420.85,369.54L421.9,369.28L424.02,369.19L425.08,367.41L426.13,367.76L427.19,369.28L428.25,370.88L429.31,370.39L431.42,369.14L432.48,367.72L434.59,366.03L435.65,364.16L436.71,363.4L437.76,363.81L439.88,364.03L440.94,364.07L441.99,363.58L443.05,362.25L444.11,361.49L445.17,359.4L446.22,359.31L447.28,357.04L449.4,353.17L450.45,349.39L452.57,346.05L453.63,345.88L455.74,339.96L456.8,337.64L457.85,338.09L458.91,336.58L461.03,336.18L462.08,335.02L464.2,335.38L465.26,336.49L467.37,337.64L468.43,337.51L469.49,341.38L470.54,340.8L471.6,339.38L472.66,336.27L473.72,331.77L474.77,334.71L475.83,333.51L476.89,320.65L481.12,268.82L482.18,267.88L483.23,264.14L484.29,244.44L486.4,215.6L487.46,209.38L488.52,204.97L489.58,185.62L490.63,183.7L491.69,179.39L492.75,176.41L493.81,170.58L494.86,166.98L495.92,155.45L496.98,142.11L498.04,138.95L502.27,70.7L503.32,56.68L505.44,43.42L506.5,23.45L508.61,6.67L509.67,2.71L510.73,0L511.78,5.25L512.84,7.79L513.9,15.08L518.13,65.36L519.18,70.87L520.24,74.34L521.3,94.05L526.59,163.24L527.64,168.18L529.76,206.26L530.82,213.83L533.99,233.49L535.05,234.82L538.22,263.12L539.27,271.17L541.39,277.76L542.45,278.74L545.62,293.55L546.68,295.42L548.79,303.21L549.85,303.79L554.08,292.4L555.14,289.37L557.25,286.21L558.31,278.38L559.37,274.73L560.42,273.84L563.6,265.61L564.65,265.7L567.82,255.51L568.88,250.17L571,245.1L572.05,243.86L575.23,230.51L576.28,230.82L577.34,231.13L578.4,234.65L579.46,235.76L580.51,234.96L581.57,238.61L582.63,235.67L584.74,225.3L585.8,219.83L586.86,220.19L587.92,219.34L588.97,217.3L590.03,220.01L593.2,238.34L594.26,237.94L595.32,270.82L596.37,270.55L598.49,285.86L599.55,290.39L601.66,298.67L602.72,288.21L604.83,308.24L605.89,315.93L608.01,326.34L609.06,326.08L612.24,336.13L613.29,337.73L614.35,340.54L615.41,341.2L616.47,341.43L617.52,343.21L620.69,345.74L621.75,345.7L628.1,354.55L629.15,356.78L631.27,357.71L632.33,360.29L635.5,364.87L636.56,364.07L638.67,364.03L639.73,361.14L641.84,356.2L642.9,350.86L646.07,345.12L647.13,349.39L649.24,337.73L650.3,336.4L652.42,333.46L653.47,333.6L654.53,321.89L655.59,324.34L657.7,318.2L658.76,317.31L665.11,300.72L666.16,296.53L667.22,294.71L668.28,294.62L672.51,266.55L673.56,261.39L675.68,255.51L676.74,242.82L678.85,229.64L679.91,230.36L682.02,228.29" style="vector-effect: non-scaling-stroke; fill: none; stroke: rgb(8, 115, 191); stroke-opacity: 1; stroke-width: 0.5px; opacity: 1;"/></g><g class="points"/><g class="text"/></g><g class="trace scatter trace2dfa13" style="stroke-miterlimit: 2;"><g class="fills"><g><path class="js-fill" d="M692.6,380L682.02,380L682.02,228.29L683.08,228.92L684.14,240.98L686.25,259.64L687.31,278.29L688.37,277.93L689.43,281.93L691.54,287.26L692.6,291.97" style="fill: rgb(8, 115, 191); fill-opacity: 0.4; stroke-width: 0;"/></g></g><g class="errorbars"/><g class="lines"><path class="js-line" d="M682.02,228.29L683.08,228.92L684.14,240.98L686.25,259.64L687.31,278.29L688.37,277.93L689.43,281.93L691.54,287.26L692.6,291.97" style="vector-effect: non-scaling-stroke; fill: none; stroke: rgb(8, 115, 191); stroke-opacity: 1; stroke-width: 2px; opacity: 1;"/></g><g class="points"/><g class="text"/></g><g class="trace scatter tracecc8021" style="stroke-miterlimit: 2; opacity: 1;"><g class="fills"/><g class="errorbars"/><g class="lines"/><g class="points"><path class="point" transform="translate(692.6,291.97)" d="M15,0A15,15 0 1,1 0,-15A15,15 0 0,1 15,0Z" style="opacity: 1; stroke-width: 0px; fill: rgb(8, 115, 191); fill-opacity: 1;"/></g><g class="text"/></g></g></g><g class="overplot"/><path class="xlines-above crisp" style="fill: none; stroke-width: 1px; stroke: rgb(0, 0, 0); stroke-opacity: 0;" d=""/><path class="ylines-above crisp" style="fill: none;" d="M0,0"/><g class="overlines-above"/><g class="xaxislayer-above"><path class="xtick ticks crisp" d="M0,450v-5" transform="translate(52.11,0)" style="stroke: rgb(68, 68, 68); stroke-opacity: 1; stroke-width: 1px;"/><path class="xtick ticks crisp" d="M0,450v-5" transform="translate(149.4,0)" style="stroke: rgb(68, 68, 68); stroke-opacity: 1; stroke-width: 1px;"/><path class="xtick ticks crisp" d="M0,450v-5" transform="translate(244.56,0)" style="stroke: rgb(68, 68, 68); stroke-opacity: 1; stroke-width: 1px;"/><path class="xtick ticks crisp" d="M0,450v-5" transform="translate(340.79,0)" style="stroke: rgb(68, 68, 68); stroke-opacity: 1; stroke-width: 1px;"/><path class="xtick ticks crisp" d="M0,450v-5" transform="translate(438.07,0)" style="stroke: rgb(68, 68, 68); stroke-opacity: 1; stroke-width: 1px;"/><path class="xtick ticks crisp" d="M0,450v-5" transform="translate(535.35,0)" style="stroke: rgb(68, 68, 68); stroke-opacity: 1; stroke-width: 1px;"/><path class="xtick ticks crisp" d="M0,450v-5" transform="translate(630.51,0)" style="stroke: rgb(68, 68, 68); stroke-opacity: 1; stroke-width: 1px;"/><path class="xtick ticks crisp" d="M0,450v-5" transform="translate(726.74,0)" style="stroke: rgb(68, 68, 68); stroke-opacity: 1; stroke-width: 1px;"/><g class="xtick"><text text-anchor="middle" x="0" y="469" transform="translate(52.11,0)" style="font-family: 'Open Sans', verdana, arial, sans-serif; font-size: 18px; fill: rgb(42, 63, 95); fill-opacity: 1; white-space: pre;">01/10</text></g><g class="xtick"><text text-anchor="middle" x="0" y="469" transform="translate(149.4,0)" style="font-family: 'Open Sans', verdana, arial, sans-serif; font-size: 18px; fill: rgb(42, 63, 95); fill-opacity: 1; white-space: pre;">01/01</text></g><g class="xtick"><text text-anchor="middle" x="0" y="469" transform="translate(244.56,0)" style="font-family: 'Open Sans', verdana, arial, sans-serif; font-size: 18px; fill: rgb(42, 63, 95); fill-opacity: 1; white-space: pre;">01/04</text></g><g class="xtick"><text text-anchor="middle" x="0" y="469" transform="translate(340.79,0)" style="font-family: 'Open Sans', verdana, arial, sans-serif; font-size: 18px; fill: rgb(42, 63, 95); fill-opacity: 1; white-space: pre;">01/07</text></g><g class="xtick"><text text-anchor="middle" x="0" y="469" transform="translate(438.07,0)" style="font-family: 'Open Sans', verdana, arial, sans-serif; font-size: 18px; fill: rgb(42, 63, 95); fill-opacity: 1; white-space: pre;">01/10</text></g><g class="xtick"><text text-anchor="middle" x="0" y="469" transform="translate(535.35,0)" style="font-family: 'Open Sans', verdana, arial, sans-serif; font-size: 18px; fill: rgb(42, 63, 95); fill-opacity: 1; white-space: pre;">01/01</text></g><g class="xtick"><text text-anchor="middle" x="0" y="469" transform="translate(630.51,0)" style="font-family: 'Open Sans', verdana, arial, sans-serif; font-size: 18px; fill: rgb(42, 63, 95); fill-opacity: 1; white-space: pre;">01/04</text></g><g class="xtick"><text text-anchor="middle" x="0" y="469" transform="translate(726.74,0)" style="font-family: 'Open Sans', verdana, arial, sans-serif; font-size: 18px; fill: rgb(42, 63, 95); fill-opacity: 1; white-space: pre;">01/07</text></g></g><g class="yaxislayer-above"/><g class="overaxes-above"/></g></g><g class="polarlayer"/><g class="ternarylayer"/><g class="geolayer"/><g class="funnelarealayer"/><g class="pielayer"/><g class="treemaplayer"/><g class="sunburstlayer"/><g class="glimages"/><defs id="topdefs-b8b7e9"><g class="clips"/></defs><g class="layer-above"><g class="imagelayer"/><g class="shapelayer"><path data-index="0" fill-rule="evenodd" d="M-544.26,444.65L228.7,444.65" clip-path="url('#clipb8b7e9xy')" style="opacity: 1; stroke: rgb(255, 0, 0); stroke-opacity: 1; fill: rgb(0, 0, 0); fill-opacity: 0; stroke-dasharray: 3px, 3px; stroke-width: 1.5px;"/></g></g><g class="infolayer"><g class="g-gtitle"><text class="gtitle" x="375" y="25" text-anchor="middle" dy="0.7em" style="font-family: 'Open Sans', verdana, arial, sans-serif; font-size: 50px; fill: rgb(42, 63, 95); opacity: 1; font-weight: normal; white-space: pre;"><tspan style="font-weight:bold">Corrèze (19)</tspan></text></g><g class="g-xtitle"/><g class="annotation" data-index="0" style="opacity: 1;"><g class="annotation-text-g" transform="rotate(0,700.6,301.97)"><g class="cursor-pointer" transform="translate(643, 266)"><rect class="bg" x="0.5" y="0.5" width="115" height="71" style="stroke-width: 1px; stroke: rgb(0, 0, 0); stroke-opacity: 0; fill: rgb(255, 255, 255); fill-opacity: 0.6;"/><text class="annotation-text" text-anchor="middle" x="57.8125" y="55.5" style="font-family: 'Open Sans', verdana, arial, sans-serif; font-size: 50px; fill: rgb(8, 115, 191); fill-opacity: 1; white-space: pre;"> <tspan style="font-weight:bold">823 </tspan></text></g></g><g class="annotation-arrow-g" style="opacity: 1;"><path d="M729,337.47L740.6,351.97" style="stroke-width: 1px; stroke: rgb(8, 115, 191); stroke-opacity: 1; stroke-dasharray: 0px, 0px, 18.569px, 18.569px;"/></g></g></g></svg>