<svg class="main-svg" xmlns="http://www.w3.org/2000/svg" xmlns:xlink="http://www.w3.org/1999/xlink" width="1125" height="750" style="" viewBox="0 0 750 500"><rect x="0" y="0" width="750" height="500" style="fill: rgb(0, 0, 0); fill-opacity: 0;"/><defs id="defs-2c1db0"><g class="clips"><clipPath id="clip2c1db0xyplot" class="plotclip"><rect width="700" height="380"/></clipPath><clipPath class="axesclip" id="clip2c1db0x"><rect x="50" y="0" width="700" height="500"/></clipPath><clipPath class="axesclip" id="clip2c1db0y"><rect x="0" y="70" width="750" height="380"/></clipPath><clipPath class="axesclip" id="clip2c1db0xy"><rect x="50" y="70" width="700" height="380"/></clipPath></g><g class="gradients"/></defs><g class="bglayer"><rect class="bg" x="50" y="70" width="700" height="380" style="fill: rgb(0, 0, 0); fill-opacity: 0; stroke-width: 0;"/></g><g class="layer-below"><g class="imagelayer"/><g class="shapelayer"/></g><g class="cartesianlayer"><g class="subplot xy"><g class="layer-subplot"><g class="shapelayer"/><g class="imagelayer"/></g><g class="gridlayer"><g class="x"><path class="xgrid crisp" transform="translate(90.6,0)" d="M0,70v380" style="stroke: rgb(255, 255, 255); stroke-opacity: 1; stroke-width: 1px;"/><path class="xgrid crisp" transform="translate(165.64,0)" d="M0,70v380" style="stroke: rgb(255, 255, 255); stroke-opacity: 1; stroke-width: 1px;"/><path class="xgrid crisp" transform="translate(238.22,0)" d="M0,70v380" style="stroke: rgb(255, 255, 255); stroke-opacity: 1; stroke-width: 1px;"/><path class="xgrid crisp" transform="translate(313.27,0)" d="M0,70v380" style="stroke: rgb(255, 255, 255); stroke-opacity: 1; stroke-width: 1px;"/><path class="xgrid crisp" transform="translate(388.31,0)" d="M0,70v380" style="stroke: rgb(255, 255, 255); stroke-opacity: 1; stroke-width: 1px;"/><path class="xgrid crisp" transform="translate(464.59,0)" d="M0,70v380" style="stroke: rgb(255, 255, 255); stroke-opacity: 1; stroke-width: 1px;"/><path class="xgrid crisp" transform="translate(539.63,0)" d="M0,70v380" style="stroke: rgb(255, 255, 255); stroke-opacity: 1; stroke-width: 1px;"/><path class="xgrid crisp" transform="translate(614.67,0)" d="M0,70v380" style="stroke: rgb(255, 255, 255); stroke-opacity: 1; stroke-width: 1px;"/><path class="xgrid crisp" transform="translate(687.26,0)" d="M0,70v380" style="stroke: rgb(255, 255, 255); stroke-opacity: 1; stroke-width: 1px;"/></g><g class="y"/></g><g class="zerolinelayer"/><path class="xlines-below"/><path class="ylines-below"/><g class="overlines-below"/><g class="xaxislayer-below"/><g class="yaxislayer-below"/><g class="overaxes-below"/><g class="plot" transform="translate(50, 70)" clip-path="url('#clip2c1db0xyplot')"><g class="scatterlayer mlayer"><g class="trace scatter tracee71586" style="stroke-miterlimit: 2;"><g class="fills"><g><path class="js-fill" d="M679.09,380L-167.31,380L-167.31,379.71L-116.87,378.25L-115.64,377.28L-109.49,375.62L-108.26,376.4L-104.57,376.79L-103.34,375.46L-95.96,373.06L-94.73,373.1L-91.04,371.28L-89.81,368.2L-86.12,364.76L-84.89,365.06L-82.43,366.58L-81.2,368.85L-75.04,375.3L-73.81,375.69L-68.89,377.15L-67.66,377.34L-50.44,377.73L-49.21,377.89L-36.91,377.41L-35.68,377.12L-33.22,376.37L-31.99,376.5L-25.83,375.62L-24.6,375.66L-8.61,374.81L-7.38,374.23L-1.23,373.81L0,372.77L9.84,371.86L11.07,371.15L14.76,368.88L15.99,368.04L19.68,366.61L20.91,365.19L25.83,360.68L27.07,360.88L28.3,361.33L29.53,359.64L34.45,342.46L35.68,340.55L38.14,339.06L39.37,340.88L41.83,345.54L43.06,347.33L45.52,348.72L46.75,348.82L47.98,348.14L49.21,353.03L50.44,353.32L51.67,354.91L52.9,355.01L54.13,354.2L56.59,359.16L57.82,357.86L61.51,363.82L62.74,364.47L68.89,369.95L70.12,369.72L73.81,370.44L75.04,370.31L77.5,369.56L78.73,370.02L82.43,370.37L83.66,369.11L84.89,369.27L86.12,368.49L91.04,367.81L92.27,368.23L94.73,367.78L95.96,367.97L99.65,367.71L100.88,368.33L102.11,368.65L103.34,370.83L105.8,371.28L107.03,372.16L108.26,372.61L109.49,371.86L113.18,371.83L114.41,370.7L116.87,368.3L118.1,368.53L119.33,367.55L120.56,365.48L121.79,365.02L123.02,365.74L125.48,366.03L126.71,364.34L127.94,363.37L129.17,363.4L134.09,363.37L135.33,365.19L136.56,366.77L137.79,366.94L140.25,367.13L141.48,366L148.86,363.05L150.09,363.86L152.55,365.38L153.78,365.67L159.93,367.84L161.16,368.62L164.85,371.12L166.08,371.54L169.77,371.51L171,370.21L178.38,370.08L179.61,371.18L185.76,371.12L186.99,370.5L189.46,369.3L190.69,368.91L193.15,369.04L194.38,368.23L198.07,368.01L199.3,367.71L200.53,367.75L201.76,366.35L205.45,365.51L206.68,364.57L211.6,362.92L212.83,361.56L214.06,360.29L215.29,360.32L218.98,361.39L220.21,359.94L222.67,360.68L223.9,359.61L226.36,359.48L227.59,362.46L230.05,362.46L231.28,362.59L232.51,363.08L233.74,362.17L234.97,362.27L236.2,357.7L237.43,357.86L238.66,356.86L244.82,356.11L246.05,356.99L248.51,356.63L249.74,357.41L252.2,357.47L253.43,358.48L255.89,360.29L257.12,361.85L258.35,361.23L259.58,364.02L260.81,363.89L262.04,364.54L265.73,365.35L266.96,366.22L269.42,366.32L270.65,367.62L271.88,368.14L273.11,367.75L274.34,369.82L275.57,369.92L278.03,368.49L279.26,368.3L281.72,368.46L282.95,367L284.18,367.81L285.41,367.62L286.64,367.81L287.87,369.95L290.33,369.53L291.56,369.69L292.79,369.08L294.02,369.4L295.25,369.47L296.49,367.23L302.64,371.02L303.87,370.89L306.33,373.42L307.56,374.33L316.17,376.76L317.4,377.18L328.47,378.28L329.7,378.28L332.16,378.06L333.39,378.31L342,377.99L343.23,378.09L345.69,378.28L346.92,378.22L356.77,376.66L358,376.63L360.46,376.08L361.69,376.11L367.84,375.46L369.07,375.11L371.53,374.68L372.76,374.85L381.37,373.94L382.6,372.74L388.75,369.82L389.98,369.53L393.67,367.39L394.9,367.78L398.59,367.94L399.82,369.21L404.75,371.9L405.98,372.32L412.13,373.35L413.36,373.91L421.97,375.72L423.2,375.69L430.58,375.53L431.81,375.4L444.11,374.29L445.34,374.1L460.11,374.36L461.34,375.04L465.03,375.79L466.26,375.92L469.95,375.62L471.18,374.65L476.1,374.81L477.33,375.33L481.02,376.79L482.25,376.5L487.17,376.92L488.4,376.6L493.32,375.98L494.55,374.75L501.93,375.33L503.16,373.97L506.85,371.57L508.08,371.86L514.24,370.28L515.47,368.17L517.93,365.48L519.16,365.61L521.62,364.44L522.85,362.53L524.08,362.07L525.31,360.03L527.77,358.61L529,356.08L530.23,353.19L531.46,352.45L533.92,351.05L535.15,350.92L540.07,350.96L541.3,351.77L544.99,352.93L546.22,353.58L547.45,352.87L548.68,350.96L551.14,343.82L552.37,345.22L553.6,344.67L554.83,329.53L559.75,263.08L560.98,262.46L562.21,260.45L563.44,235.01L565.91,203.4L567.14,197.6L568.37,192.06L569.6,174.17L570.83,169.95L572.06,169.59L573.29,170.73L574.52,163.47L578.21,133.81L579.44,132.74L583.13,81.88L584.36,68.27L586.82,44.08L588.05,43.14L590.51,10.7L591.74,3.27L594.2,0L595.43,4.05L596.66,5.09L597.89,12.64L601.58,57.96L602.81,81.36L604.04,94.2L605.27,98.83L607.73,170.73L608.96,194.33L611.42,231.93L612.65,240.78L613.88,242.07L615.11,257.02L618.8,285.8L620.04,290.57L621.27,294.52L622.5,294.39L623.73,297.34L624.96,303.47L626.19,305.41L627.42,308.98L628.65,313.55L629.88,314.81L631.11,316.08L632.34,322.95L634.8,322.5L636.03,321.33L638.49,319.29L639.72,319L640.95,316.24L642.18,315.66L644.64,313.45L645.87,310.96L647.1,308.78L648.33,308.59L654.48,276.79L655.71,273.45L656.94,273.03L658.17,262.56L660.63,244.67L661.86,238.93L663.09,233.29L664.32,231.54L665.55,231.38L666.78,226.03L668.01,226.52L669.24,225.71L670.47,224.93L671.7,227.81L674.17,229.24L675.4,234.65L679.09,239" style="fill: rgb(8, 115, 191); fill-opacity: 0.2; stroke-width: 0;"/></g></g><g class="errorbars"/><g class="lines"><path class="js-line" d="M-167.31,379.71L-116.87,378.25L-115.64,377.28L-109.49,375.62L-108.26,376.4L-104.57,376.79L-103.34,375.46L-95.96,373.06L-94.73,373.1L-91.04,371.28L-89.81,368.2L-86.12,364.76L-84.89,365.06L-82.43,366.58L-81.2,368.85L-75.04,375.3L-73.81,375.69L-68.89,377.15L-67.66,377.34L-50.44,377.73L-49.21,377.89L-36.91,377.41L-35.68,377.12L-33.22,376.37L-31.99,376.5L-25.83,375.62L-24.6,375.66L-8.61,374.81L-7.38,374.23L-1.23,373.81L0,372.77L9.84,371.86L11.07,371.15L14.76,368.88L15.99,368.04L19.68,366.61L20.91,365.19L25.83,360.68L27.07,360.88L28.3,361.33L29.53,359.64L34.45,342.46L35.68,340.55L38.14,339.06L39.37,340.88L41.83,345.54L43.06,347.33L45.52,348.72L46.75,348.82L47.98,348.14L49.21,353.03L50.44,353.32L51.67,354.91L52.9,355.01L54.13,354.2L56.59,359.16L57.82,357.86L61.51,363.82L62.74,364.47L68.89,369.95L70.12,369.72L73.81,370.44L75.04,370.31L77.5,369.56L78.73,370.02L82.43,370.37L83.66,369.11L84.89,369.27L86.12,368.49L91.04,367.81L92.27,368.23L94.73,367.78L95.96,367.97L99.65,367.71L100.88,368.33L102.11,368.65L103.34,370.83L105.8,371.28L107.03,372.16L108.26,372.61L109.49,371.86L113.18,371.83L114.41,370.7L116.87,368.3L118.1,368.53L119.33,367.55L120.56,365.48L121.79,365.02L123.02,365.74L125.48,366.03L126.71,364.34L127.94,363.37L129.17,363.4L134.09,363.37L135.33,365.19L136.56,366.77L137.79,366.94L140.25,367.13L141.48,366L148.86,363.05L150.09,363.86L152.55,365.38L153.78,365.67L159.93,367.84L161.16,368.62L164.85,371.12L166.08,371.54L169.77,371.51L171,370.21L178.38,370.08L179.61,371.18L185.76,371.12L186.99,370.5L189.46,369.3L190.69,368.91L193.15,369.04L194.38,368.23L198.07,368.01L199.3,367.71L200.53,367.75L201.76,366.35L205.45,365.51L206.68,364.57L211.6,362.92L212.83,361.56L214.06,360.29L215.29,360.32L218.98,361.39L220.21,359.94L222.67,360.68L223.9,359.61L226.36,359.48L227.59,362.46L230.05,362.46L231.28,362.59L232.51,363.08L233.74,362.17L234.97,362.27L236.2,357.7L237.43,357.86L238.66,356.86L244.82,356.11L246.05,356.99L248.51,356.63L249.74,357.41L252.2,357.47L253.43,358.48L255.89,360.29L257.12,361.85L258.35,361.23L259.58,364.02L260.81,363.89L262.04,364.54L265.73,365.35L266.96,366.22L269.42,366.32L270.65,367.62L271.88,368.14L273.11,367.75L274.34,369.82L275.57,369.92L278.03,368.49L279.26,368.3L281.72,368.46L282.95,367L284.18,367.81L285.41,367.62L286.64,367.81L287.87,369.95L290.33,369.53L291.56,369.69L292.79,369.08L294.02,369.4L295.25,369.47L296.49,367.23L302.64,371.02L303.87,370.89L306.33,373.42L307.56,374.33L316.17,376.76L317.4,377.18L328.47,378.28L329.7,378.28L332.16,378.06L333.39,378.31L342,377.99L343.23,378.09L345.69,378.28L346.92,378.22L356.77,376.66L358,376.63L360.46,376.08L361.69,376.11L367.84,375.46L369.07,375.11L371.53,374.68L372.76,374.85L381.37,373.94L382.6,372.74L388.75,369.82L389.98,369.53L393.67,367.39L394.9,367.78L398.59,367.94L399.82,369.21L404.75,371.9L405.98,372.32L412.13,373.35L413.36,373.91L421.97,375.72L423.2,375.69L430.58,375.53L431.81,375.4L444.11,374.29L445.34,374.1L460.11,374.36L461.34,375.04L465.03,375.79L466.26,375.92L469.95,375.62L471.18,374.65L476.1,374.81L477.33,375.33L481.02,376.79L482.25,376.5L487.17,376.92L488.4,376.6L493.32,375.98L494.55,374.75L501.93,375.33L503.16,373.97L506.85,371.57L508.08,371.86L514.24,370.28L515.47,368.17L517.93,365.48L519.16,365.61L521.62,364.44L522.85,362.53L524.08,362.07L525.31,360.03L527.77,358.61L529,356.08L530.23,353.19L531.46,352.45L533.92,351.05L535.15,350.92L540.07,350.96L541.3,351.77L544.99,352.93L546.22,353.58L547.45,352.87L548.68,350.96L551.14,343.82L552.37,345.22L553.6,344.67L554.83,329.53L559.75,263.08L560.98,262.46L562.21,260.45L563.44,235.01L565.91,203.4L567.14,197.6L568.37,192.06L569.6,174.17L570.83,169.95L572.06,169.59L573.29,170.73L574.52,163.47L578.21,133.81L579.44,132.74L583.13,81.88L584.36,68.27L586.82,44.08L588.05,43.14L590.51,10.7L591.74,3.27L594.2,0L595.43,4.05L596.66,5.09L597.89,12.64L601.58,57.96L602.81,81.36L604.04,94.2L605.27,98.83L607.73,170.73L608.96,194.33L611.42,231.93L612.65,240.78L613.88,242.07L615.11,257.02L618.8,285.8L620.04,290.57L621.27,294.52L622.5,294.39L623.73,297.34L624.96,303.47L626.19,305.41L627.42,308.98L628.65,313.55L629.88,314.81L631.11,316.08L632.34,322.95L634.8,322.5L636.03,321.33L638.49,319.29L639.72,319L640.95,316.24L642.18,315.66L644.64,313.45L645.87,310.96L647.1,308.78L648.33,308.59L654.48,276.79L655.71,273.45L656.94,273.03L658.17,262.56L660.63,244.67L661.86,238.93L663.09,233.29L664.32,231.54L665.55,231.38L666.78,226.03L668.01,226.52L669.24,225.71L670.47,224.93L671.7,227.81L674.17,229.24L675.4,234.65L679.09,239" style="vector-effect: non-scaling-stroke; fill: none; stroke: rgb(8, 115, 191); stroke-opacity: 1; stroke-width: 0.5px; opacity: 1;"/></g><g class="points"/><g class="text"/></g><g class="trace scatter tracee67461" style="stroke-miterlimit: 2;"><g class="fills"><g><path class="js-fill" d="M691.39,380L679.09,380L679.09,239L680.32,238.02L681.55,239.12L682.78,239.06L684.01,245.64L685.24,249.82L686.47,257.76L688.93,268.1L690.16,269.56L691.39,269.95" style="fill: rgb(8, 115, 191); fill-opacity: 0.4; stroke-width: 0;"/></g></g><g class="errorbars"/><g class="lines"><path class="js-line" d="M679.09,239L680.32,238.02L681.55,239.12L682.78,239.06L684.01,245.64L685.24,249.82L686.47,257.76L688.93,268.1L690.16,269.56L691.39,269.95" style="vector-effect: non-scaling-stroke; fill: none; stroke: rgb(8, 115, 191); stroke-opacity: 1; stroke-width: 2px; opacity: 1;"/></g><g class="points"/><g class="text"/></g><g class="trace scatter trace18bfd9" style="stroke-miterlimit: 2; opacity: 1;"><g class="fills"/><g class="errorbars"/><g class="lines"/><g class="points"><path class="point" transform="translate(691.39,269.95)" d="M15,0A15,15 0 1,1 0,-15A15,15 0 0,1 15,0Z" style="opacity: 1; stroke-width: 0px; fill: rgb(8, 115, 191); fill-opacity: 1;"/></g><g class="text"/></g></g></g><g class="overplot"/><path class="xlines-above crisp" style="fill: none; stroke-width: 1px; stroke: rgb(0, 0, 0); stroke-opacity: 0;" d=""/><path class="ylines-above crisp" style="fill: none;" d="M0,0"/><g class="overlines-above"/><g class="xaxislayer-above"><path class="xtick ticks crisp" d="M0,450v-5" transform="translate(90.6,0)" style="stroke: rgb(68, 68, 68); stroke-opacity: 1; stroke-width: 1px;"/><path class="xtick ticks crisp" d="M0,450v-5" transform="translate(165.64,0)" style="stroke: rgb(68, 68, 68); stroke-opacity: 1; stroke-width: 1px;"/><path class="xtick ticks crisp" d="M0,450v-5" transform="translate(238.22,0)" style="stroke: rgb(68, 68, 68); stroke-opacity: 1; stroke-width: 1px;"/><path class="xtick ticks crisp" d="M0,450v-5" transform="translate(313.27,0)" style="stroke: rgb(68, 68, 68); stroke-opacity: 1; stroke-width: 1px;"/><path class="xtick ticks crisp" d="M0,450v-5" transform="translate(388.31,0)" style="stroke: rgb(68, 68, 68); stroke-opacity: 1; stroke-width: 1px;"/><path class="xtick ticks crisp" d="M0,450v-5" transform="translate(464.59,0)" style="stroke: rgb(68, 68, 68); stroke-opacity: 1; stroke-width: 1px;"/><path class="xtick ticks crisp" d="M0,450v-5" transform="translate(539.63,0)" style="stroke: rgb(68, 68, 68); stroke-opacity: 1; stroke-width: 1px;"/><path class="xtick ticks crisp" d="M0,450v-5" transform="translate(614.67,0)" style="stroke: rgb(68, 68, 68); stroke-opacity: 1; stroke-width: 1px;"/><path class="xtick ticks crisp" d="M0,450v-5" transform="translate(687.26,0)" style="stroke: rgb(68, 68, 68); stroke-opacity: 1; stroke-width: 1px;"/><g class="xtick"><text text-anchor="middle" x="0" y="469" transform="translate(90.6,0)" style="font-family: 'Open Sans', verdana, arial, sans-serif; font-size: 18px; fill: rgb(42, 63, 95); fill-opacity: 1; white-space: pre;">01/11</text></g><g class="xtick"><text text-anchor="middle" x="0" y="469" transform="translate(165.64,0)" style="font-family: 'Open Sans', verdana, arial, sans-serif; font-size: 18px; fill: rgb(42, 63, 95); fill-opacity: 1; white-space: pre;">01/01</text></g><g class="xtick"><text text-anchor="middle" x="0" y="469" transform="translate(238.22,0)" style="font-family: 'Open Sans', verdana, arial, sans-serif; font-size: 18px; fill: rgb(42, 63, 95); fill-opacity: 1; white-space: pre;">01/03</text></g><g class="xtick"><text text-anchor="middle" x="0" y="469" transform="translate(313.27,0)" style="font-family: 'Open Sans', verdana, arial, sans-serif; font-size: 18px; fill: rgb(42, 63, 95); fill-opacity: 1; white-space: pre;">01/05</text></g><g class="xtick"><text text-anchor="middle" x="0" y="469" transform="translate(388.31,0)" style="font-family: 'Open Sans', verdana, arial, sans-serif; font-size: 18px; fill: rgb(42, 63, 95); fill-opacity: 1; white-space: pre;">01/07</text></g><g class="xtick"><text text-anchor="middle" x="0" y="469" transform="translate(464.59,0)" style="font-family: 'Open Sans', verdana, arial, sans-serif; font-size: 18px; fill: rgb(42, 63, 95); fill-opacity: 1; white-space: pre;">01/09</text></g><g class="xtick"><text text-anchor="middle" x="0" y="469" transform="translate(539.63,0)" style="font-family: 'Open Sans', verdana, arial, sans-serif; font-size: 18px; fill: rgb(42, 63, 95); fill-opacity: 1; white-space: pre;">01/11</text></g><g class="xtick"><text text-anchor="middle" x="0" y="469" transform="translate(614.67,0)" style="font-family: 'Open Sans', verdana, arial, sans-serif; font-size: 18px; fill: rgb(42, 63, 95); fill-opacity: 1; white-space: pre;">01/01</text></g><g class="xtick"><text text-anchor="middle" x="0" y="469" transform="translate(687.26,0)" style="font-family: 'Open Sans', verdana, arial, sans-serif; font-size: 18px; fill: rgb(42, 63, 95); fill-opacity: 1; white-space: pre;">01/03</text></g></g><g class="yaxislayer-above"/><g class="overaxes-above"/></g></g><g class="polarlayer"/><g class="ternarylayer"/><g class="geolayer"/><g class="funnelarealayer"/><g class="pielayer"/><g class="treemaplayer"/><g class="sunburstlayer"/><g class="glimages"/><defs id="topdefs-2c1db0"><g class="clips"/></defs><g class="layer-above"><g class="imagelayer"/><g class="shapelayer"><path data-index="0" fill-rule="evenodd" d="M-641.39,445.05L257.90999999999997,445.05" clip-path="url('#clip2c1db0xy')" style="opacity: 1; stroke: rgb(255, 0, 0); stroke-opacity: 1; fill: rgb(0, 0, 0); fill-opacity: 0; stroke-dasharray: 3px, 3px; stroke-width: 1.5px;"/></g></g><g class="infolayer"><g class="g-gtitle"><text class="gtitle" x="375" y="25" text-anchor="middle" dy="0.7em" style="font-family: 'Open Sans', verdana, arial, sans-serif; font-size: 50px; fill: rgb(42, 63, 95); opacity: 1; font-weight: normal; white-space: pre;"><tspan style="font-weight:bold">Mayenne (53)</tspan></text></g><g class="g-xtitle"/><g class="annotation" data-index="0" style="opacity: 1;"><g class="annotation-text-g" transform="rotate(0,699.39,279.95)"><g class="cursor-pointer" transform="translate(627, 244)"><rect class="bg" x="0.5" y="0.5" width="143" height="71" style="stroke-width: 1px; stroke: rgb(0, 0, 0); stroke-opacity: 0; fill: rgb(255, 255, 255); fill-opacity: 0.6;"/><text class="annotation-text" text-anchor="middle" x="72.078125" y="55.5" style="font-family: 'Open Sans', verdana, arial, sans-serif; font-size: 50px; fill: rgb(8, 115, 191); fill-opacity: 1; white-space: pre;"> <tspan style="font-weight:bold">1111 </tspan></text></g></g><g class="annotation-arrow-g" style="opacity: 1;"><path d="M727.79,315.45L739.39,329.95" style="stroke-width: 1px; stroke: rgb(8, 115, 191); stroke-opacity: 1; stroke-dasharray: 0px, 0px, 18.5691px, 18.5691px;"/></g></g></g></svg>