<svg class="main-svg" xmlns="http://www.w3.org/2000/svg" xmlns:xlink="http://www.w3.org/1999/xlink" width="1125" height="750" style="" viewBox="0 0 750 500"><rect x="0" y="0" width="750" height="500" style="fill: rgb(0, 0, 0); fill-opacity: 0;"/><defs id="defs-2a1de4"><g class="clips"><clipPath id="clip2a1de4xyplot" class="plotclip"><rect width="700" height="380"/></clipPath><clipPath class="axesclip" id="clip2a1de4x"><rect x="50" y="0" width="700" height="500"/></clipPath><clipPath class="axesclip" id="clip2a1de4y"><rect x="0" y="70" width="750" height="380"/></clipPath><clipPath class="axesclip" id="clip2a1de4xy"><rect x="50" y="70" width="700" height="380"/></clipPath></g><g class="gradients"/></defs><g class="bglayer"><rect class="bg" x="50" y="70" width="700" height="380" style="fill: rgb(0, 0, 0); fill-opacity: 0; stroke-width: 0;"/></g><g class="layer-below"><g class="imagelayer"/><g class="shapelayer"/></g><g class="cartesianlayer"><g class="subplot xy"><g class="layer-subplot"><g class="shapelayer"/><g class="imagelayer"/></g><g class="gridlayer"><g class="x"><path class="xgrid crisp" transform="translate(112.6,0)" d="M0,70v380" style="stroke: rgb(255, 255, 255); stroke-opacity: 1; stroke-width: 1px;"/><path class="xgrid crisp" transform="translate(228.32,0)" d="M0,70v380" style="stroke: rgb(255, 255, 255); stroke-opacity: 1; stroke-width: 1px;"/><path class="xgrid crisp" transform="translate(340.24,0)" d="M0,70v380" style="stroke: rgb(255, 255, 255); stroke-opacity: 1; stroke-width: 1px;"/><path class="xgrid crisp" transform="translate(455.96,0)" d="M0,70v380" style="stroke: rgb(255, 255, 255); stroke-opacity: 1; stroke-width: 1px;"/><path class="xgrid crisp" transform="translate(571.68,0)" d="M0,70v380" style="stroke: rgb(255, 255, 255); stroke-opacity: 1; stroke-width: 1px;"/><path class="xgrid crisp" transform="translate(689.3,0)" d="M0,70v380" style="stroke: rgb(255, 255, 255); stroke-opacity: 1; stroke-width: 1px;"/></g><g class="y"/></g><g class="zerolinelayer"/><path class="xlines-below"/><path class="ylines-below"/><g class="overlines-below"/><g class="xaxislayer-below"/><g class="yaxislayer-below"/><g class="overaxes-below"/><g class="plot" transform="translate(50, 70)" clip-path="url('#clip2a1de4xyplot')"><g class="scatterlayer mlayer"><g class="trace scatter trace83b00c" style="stroke-miterlimit: 2;"><g class="fills"><g><path class="js-fill" d="M667.75,380L-257.99,380L-257.99,377.52L-242.82,378.61L-240.92,378.3L-231.44,376.9L-229.54,377.21L-216.26,377.37L-214.36,376.13L-201.08,375.2L-199.19,375.67L-189.7,377.99L-187.8,378.92L-163.14,378.45L-161.25,378.3L-153.66,376.44L-151.76,376.75L-138.48,377.68L-136.59,377.99L-100.54,376.9L-98.64,375.98L-87.26,373.81L-85.37,374.27L-75.88,372.73L-73.98,373.03L-70.19,371.33L-68.29,371.18L-64.5,368.55L-62.6,368.24L-55.01,363.75L-53.12,364.52L-47.43,364.99L-45.53,363.75L-43.63,363.13L-41.73,364.21L-34.15,363.9L-32.25,364.68L-24.66,361.58L-22.76,361.74L-20.87,360.34L-18.97,360.81L-17.07,363.13L-15.18,363.59L-13.28,364.06L-11.38,363.59L-9.49,363.28L-7.59,360.81L-5.69,360.19L-3.79,355.85L-1.9,354.31L0,350.44L3.79,349.97L5.69,344.09L9.49,328.3L11.38,313.29L15.18,292.55L17.07,289.3L22.76,242.86L24.66,232.18L26.56,214.22L28.46,213.91L30.35,215.15L32.25,188.99L39.84,64.7L41.73,54.48L43.63,50.92L45.53,18.88L47.43,6.97L49.32,5.73L51.22,0L53.12,5.73L55.01,4.95L56.91,6.04L64.5,50L66.4,67.64L68.29,77.86L70.19,77.86L73.98,121.66L75.88,163.76L77.78,171.35L79.67,186.21L81.57,185.74L83.47,186.83L85.37,212.52L87.26,222.74L89.16,217.16L91.06,247.04L94.85,269.02L96.75,271.34L100.54,297.96L102.44,301.68L104.34,304.46L106.23,305.39L108.13,304.77L110.03,303.23L111.92,299.2L113.82,301.06L115.72,302.14L117.62,302.3L119.51,308.18L121.41,306.48L125.2,311.58L127.1,315.76L130.89,305.24L132.79,304L134.69,305.7L136.59,304.31L138.48,299.36L140.38,285.27L144.17,286.82L146.07,274.9L149.86,249.21L151.76,252.61L153.66,258.34L155.56,255.09L157.45,255.86L159.35,279.08L163.14,302.45L165.04,304L166.94,303.69L168.83,306.63L170.73,305.7L172.63,305.7L174.53,302.45L176.42,301.68L178.32,294.71L180.22,296.57L182.11,292.39L184.01,290.69L185.91,274.9L187.8,277.69L189.7,278.31L191.6,280.16L195.39,270.1L197.29,270.88L202.98,266.23L204.88,260.35L206.78,261.9L208.67,267.32L214.36,248.12L216.26,249.36L218.16,252.46L220.05,252.15L221.95,244.1L223.85,246.42L225.75,251.84L227.64,253.85L231.44,252.61L233.33,253.08L235.23,255.09L237.13,251.37L239.02,250.44L240.92,253.23L242.82,255.09L244.72,255.55L248.51,271.19L250.41,275.52L252.3,284.34L254.2,285.12L256.1,285.27L257.99,297.81L259.89,296.73L261.79,300.13L263.69,306.01L265.58,299.67L267.48,301.37L269.38,301.99L271.27,295.64L273.17,294.56L276.96,286.2L278.86,291.46L280.76,294.25L282.66,293.78L290.24,318.7L292.14,321.65L294.04,319.79L295.93,319.63L297.83,317.62L299.73,319.94L301.63,320.25L303.52,317.31L305.42,314.84L307.32,314.68L309.21,315.3L311.11,311.89L313.01,311.58L314.91,308.49L318.7,292.55L320.6,294.25L322.49,293.78L324.39,295.8L326.29,293.78L328.18,290.07L331.98,299.67L333.88,296.73L335.77,296.42L337.67,293.16L339.57,286.66L341.46,287.59L345.26,282.02L347.15,281.09L349.05,280.78L350.95,297.65L356.64,272.73L358.54,266.54L360.43,263.6L362.33,264.07L364.23,243.01L366.12,252.15L368.02,256.79L369.92,265.46L371.82,271.65L373.71,271.96L375.61,271.65L377.51,272.42L379.4,271.8L381.3,273.97L383.2,273.04L385.09,275.05L386.99,276.29L388.89,276.45L392.68,282.18L394.58,285.27L396.48,292.24L398.37,292.55L400.27,301.99L402.17,302.61L407.86,316.85L409.76,319.32L411.65,327.22L413.55,325.82L415.45,325.21L417.34,330.93L419.24,333.87L421.14,335.42L423.04,341.77L424.93,341.3L426.83,340.84L428.73,341.61L430.62,344.4L432.52,341.92L434.42,343.47L436.31,339.29L438.21,341.77L440.11,341.46L442.01,341.46L443.9,348.27L445.8,350.75L447.7,351.83L453.39,355.23L455.28,355.23L457.18,350.59L459.08,353.07L460.98,354.15L462.87,353.22L470.46,356.16L472.36,358.64L476.15,364.52L478.05,365.76L479.95,366.84L481.84,366.84L483.74,368.7L485.64,369.32L489.43,369.01L491.33,370.4L493.22,371.49L495.12,371.64L502.71,377.06L504.61,377.06L508.4,376.75L510.3,377.68L521.68,376.59L523.58,374.89L533.06,369.32L534.96,369.16L536.86,368.08L538.75,366.07L540.65,367.62L542.55,365.14L544.44,361.12L546.34,359.41L548.24,358.02L550.14,352.29L555.83,335.89L557.72,333.72L561.52,333.25L563.41,325.98L569.11,313.44L571,311.43L572.9,308.95L574.8,309.26L578.59,310.35L580.49,308.8L582.38,308.18L584.28,305.86L586.18,303.23L588.08,303.38L595.66,289.3L597.56,287.59L601.36,283.41L603.25,273.66L605.15,266.23L607.05,264.99L608.94,268.09L610.84,264.99L612.74,262.98L614.63,264.37L618.43,278.46L620.33,281.71L622.22,278.15L624.12,282.02L626.02,287.28L627.91,287.28L631.71,297.19L633.6,301.68L635.5,310.97L637.4,314.06L639.3,316.38L641.19,317L643.09,320.1L644.99,321.34L646.88,324.43L648.78,325.05L650.68,327.53L652.57,328.46L654.47,327.84L656.37,328.61L658.27,331.86L660.16,333.1L662.06,334.03L663.96,332.17L665.85,334.65L667.75,335.73" style="fill: rgb(8, 115, 191); fill-opacity: 0.2; stroke-width: 0;"/></g></g><g class="errorbars"/><g class="lines"><path class="js-line" d="M-257.99,377.52L-242.82,378.61L-240.92,378.3L-231.44,376.9L-229.54,377.21L-216.26,377.37L-214.36,376.13L-201.08,375.2L-199.19,375.67L-189.7,377.99L-187.8,378.92L-163.14,378.45L-161.25,378.3L-153.66,376.44L-151.76,376.75L-138.48,377.68L-136.59,377.99L-100.54,376.9L-98.64,375.98L-87.26,373.81L-85.37,374.27L-75.88,372.73L-73.98,373.03L-70.19,371.33L-68.29,371.18L-64.5,368.55L-62.6,368.24L-55.01,363.75L-53.12,364.52L-47.43,364.99L-45.53,363.75L-43.63,363.13L-41.73,364.21L-34.15,363.9L-32.25,364.68L-24.66,361.58L-22.76,361.74L-20.87,360.34L-18.97,360.81L-17.07,363.13L-15.18,363.59L-13.28,364.06L-11.38,363.59L-9.49,363.28L-7.59,360.81L-5.69,360.19L-3.79,355.85L-1.9,354.31L0,350.44L3.79,349.97L5.69,344.09L9.49,328.3L11.38,313.29L15.18,292.55L17.07,289.3L22.76,242.86L24.66,232.18L26.56,214.22L28.46,213.91L30.35,215.15L32.25,188.99L39.84,64.7L41.73,54.48L43.63,50.92L45.53,18.88L47.43,6.97L49.32,5.73L51.22,0L53.12,5.73L55.01,4.95L56.91,6.04L64.5,50L66.4,67.64L68.29,77.86L70.19,77.86L73.98,121.66L75.88,163.76L77.78,171.35L79.67,186.21L81.57,185.74L83.47,186.83L85.37,212.52L87.26,222.74L89.16,217.16L91.06,247.04L94.85,269.02L96.75,271.34L100.54,297.96L102.44,301.68L104.34,304.46L106.23,305.39L108.13,304.77L110.03,303.23L111.92,299.2L113.82,301.06L115.72,302.14L117.62,302.3L119.51,308.18L121.41,306.48L125.2,311.58L127.1,315.76L130.89,305.24L132.79,304L134.69,305.7L136.59,304.31L138.48,299.36L140.38,285.27L144.17,286.82L146.07,274.9L149.86,249.21L151.76,252.61L153.66,258.34L155.56,255.09L157.45,255.86L159.35,279.08L163.14,302.45L165.04,304L166.94,303.69L168.83,306.63L170.73,305.7L172.63,305.7L174.53,302.45L176.42,301.68L178.32,294.71L180.22,296.57L182.11,292.39L184.01,290.69L185.91,274.9L187.8,277.69L189.7,278.31L191.6,280.16L195.39,270.1L197.29,270.88L202.98,266.23L204.88,260.35L206.78,261.9L208.67,267.32L214.36,248.12L216.26,249.36L218.16,252.46L220.05,252.15L221.95,244.1L223.85,246.42L225.75,251.84L227.64,253.85L231.44,252.61L233.33,253.08L235.23,255.09L237.13,251.37L239.02,250.44L240.92,253.23L242.82,255.09L244.72,255.55L248.51,271.19L250.41,275.52L252.3,284.34L254.2,285.12L256.1,285.27L257.99,297.81L259.89,296.73L261.79,300.13L263.69,306.01L265.58,299.67L267.48,301.37L269.38,301.99L271.27,295.64L273.17,294.56L276.96,286.2L278.86,291.46L280.76,294.25L282.66,293.78L290.24,318.7L292.14,321.65L294.04,319.79L295.93,319.63L297.83,317.62L299.73,319.94L301.63,320.25L303.52,317.31L305.42,314.84L307.32,314.68L309.21,315.3L311.11,311.89L313.01,311.58L314.91,308.49L318.7,292.55L320.6,294.25L322.49,293.78L324.39,295.8L326.29,293.78L328.18,290.07L331.98,299.67L333.88,296.73L335.77,296.42L337.67,293.16L339.57,286.66L341.46,287.59L345.26,282.02L347.15,281.09L349.05,280.78L350.95,297.65L356.64,272.73L358.54,266.54L360.43,263.6L362.33,264.07L364.23,243.01L366.12,252.15L368.02,256.79L369.92,265.46L371.82,271.65L373.71,271.96L375.61,271.65L377.51,272.42L379.4,271.8L381.3,273.97L383.2,273.04L385.09,275.05L386.99,276.29L388.89,276.45L392.68,282.18L394.58,285.27L396.48,292.24L398.37,292.55L400.27,301.99L402.17,302.61L407.86,316.85L409.76,319.32L411.65,327.22L413.55,325.82L415.45,325.21L417.34,330.93L419.24,333.87L421.14,335.42L423.04,341.77L424.93,341.3L426.83,340.84L428.73,341.61L430.62,344.4L432.52,341.92L434.42,343.47L436.31,339.29L438.21,341.77L440.11,341.46L442.01,341.46L443.9,348.27L445.8,350.75L447.7,351.83L453.39,355.23L455.28,355.23L457.18,350.59L459.08,353.07L460.98,354.15L462.87,353.22L470.46,356.16L472.36,358.64L476.15,364.52L478.05,365.76L479.95,366.84L481.84,366.84L483.74,368.7L485.64,369.32L489.43,369.01L491.33,370.4L493.22,371.49L495.12,371.64L502.71,377.06L504.61,377.06L508.4,376.75L510.3,377.68L521.68,376.59L523.58,374.89L533.06,369.32L534.96,369.16L536.86,368.08L538.75,366.07L540.65,367.62L542.55,365.14L544.44,361.12L546.34,359.41L548.24,358.02L550.14,352.29L555.83,335.89L557.72,333.72L561.52,333.25L563.41,325.98L569.11,313.44L571,311.43L572.9,308.95L574.8,309.26L578.59,310.35L580.49,308.8L582.38,308.18L584.28,305.86L586.18,303.23L588.08,303.38L595.66,289.3L597.56,287.59L601.36,283.41L603.25,273.66L605.15,266.23L607.05,264.99L608.94,268.09L610.84,264.99L612.74,262.98L614.63,264.37L618.43,278.46L620.33,281.71L622.22,278.15L624.12,282.02L626.02,287.28L627.91,287.28L631.71,297.19L633.6,301.68L635.5,310.97L637.4,314.06L639.3,316.38L641.19,317L643.09,320.1L644.99,321.34L646.88,324.43L648.78,325.05L650.68,327.53L652.57,328.46L654.47,327.84L656.37,328.61L658.27,331.86L660.16,333.1L662.06,334.03L663.96,332.17L665.85,334.65L667.75,335.73" style="vector-effect: non-scaling-stroke; fill: none; stroke: rgb(8, 115, 191); stroke-opacity: 1; stroke-width: 0.5px; opacity: 1;"/></g><g class="points"/><g class="text"/></g><g class="trace scatter trace398343" style="stroke-miterlimit: 2;"><g class="fills"><g><path class="js-fill" d="M686.72,380L667.75,380L667.75,335.73L669.65,342.85L671.54,343.47L673.44,347.49L675.34,347.19L677.24,353.07L679.13,351.98L681.03,351.98L682.93,349.66L684.82,350.44L686.72,349.51" style="fill: rgb(8, 115, 191); fill-opacity: 0.4; stroke-width: 0;"/></g></g><g class="errorbars"/><g class="lines"><path class="js-line" d="M667.75,335.73L669.65,342.85L671.54,343.47L673.44,347.49L675.34,347.19L677.24,353.07L679.13,351.98L681.03,351.98L682.93,349.66L684.82,350.44L686.72,349.51" style="vector-effect: non-scaling-stroke; fill: none; stroke: rgb(8, 115, 191); stroke-opacity: 1; stroke-width: 2px; opacity: 1;"/></g><g class="points"/><g class="text"/></g><g class="trace scatter trace1b61b0" style="stroke-miterlimit: 2; opacity: 1;"><g class="fills"/><g class="errorbars"/><g class="lines"/><g class="points"><path class="point" transform="translate(686.72,349.51)" d="M15,0A15,15 0 1,1 0,-15A15,15 0 0,1 15,0Z" style="opacity: 1; stroke-width: 0px; fill: rgb(8, 115, 191); fill-opacity: 1;"/></g><g class="text"/></g></g></g><g class="overplot"/><path class="xlines-above crisp" style="fill: none; stroke-width: 1px; stroke: rgb(0, 0, 0); stroke-opacity: 0;" d=""/><path class="ylines-above crisp" style="fill: none;" d="M0,0"/><g class="overlines-above"/><g class="xaxislayer-above"><path class="xtick ticks crisp" d="M0,450v-5" transform="translate(112.6,0)" style="stroke: rgb(68, 68, 68); stroke-opacity: 1; stroke-width: 1px;"/><path class="xtick ticks crisp" d="M0,450v-5" transform="translate(228.32,0)" style="stroke: rgb(68, 68, 68); stroke-opacity: 1; stroke-width: 1px;"/><path class="xtick ticks crisp" d="M0,450v-5" transform="translate(340.24,0)" style="stroke: rgb(68, 68, 68); stroke-opacity: 1; stroke-width: 1px;"/><path class="xtick ticks crisp" d="M0,450v-5" transform="translate(455.96,0)" style="stroke: rgb(68, 68, 68); stroke-opacity: 1; stroke-width: 1px;"/><path class="xtick ticks crisp" d="M0,450v-5" transform="translate(571.68,0)" style="stroke: rgb(68, 68, 68); stroke-opacity: 1; stroke-width: 1px;"/><path class="xtick ticks crisp" d="M0,450v-5" transform="translate(689.3,0)" style="stroke: rgb(68, 68, 68); stroke-opacity: 1; stroke-width: 1px;"/><g class="xtick"><text text-anchor="middle" x="0" y="469" transform="translate(112.6,0)" style="font-family: 'Open Sans', verdana, arial, sans-serif; font-size: 18px; fill: rgb(42, 63, 95); fill-opacity: 1; white-space: pre;">01/11</text></g><g class="xtick"><text text-anchor="middle" x="0" y="469" transform="translate(228.32,0)" style="font-family: 'Open Sans', verdana, arial, sans-serif; font-size: 18px; fill: rgb(42, 63, 95); fill-opacity: 1; white-space: pre;">01/01</text></g><g class="xtick"><text text-anchor="middle" x="0" y="469" transform="translate(340.24,0)" style="font-family: 'Open Sans', verdana, arial, sans-serif; font-size: 18px; fill: rgb(42, 63, 95); fill-opacity: 1; white-space: pre;">01/03</text></g><g class="xtick"><text text-anchor="middle" x="0" y="469" transform="translate(455.96,0)" style="font-family: 'Open Sans', verdana, arial, sans-serif; font-size: 18px; fill: rgb(42, 63, 95); fill-opacity: 1; white-space: pre;">01/05</text></g><g class="xtick"><text text-anchor="middle" x="0" y="469" transform="translate(571.68,0)" style="font-family: 'Open Sans', verdana, arial, sans-serif; font-size: 18px; fill: rgb(42, 63, 95); fill-opacity: 1; white-space: pre;">01/07</text></g><g class="xtick"><text text-anchor="middle" x="0" y="469" transform="translate(689.3,0)" style="font-family: 'Open Sans', verdana, arial, sans-serif; font-size: 18px; fill: rgb(42, 63, 95); fill-opacity: 1; white-space: pre;">01/09</text></g></g><g class="yaxislayer-above"/><g class="overaxes-above"/></g></g><g class="polarlayer"/><g class="ternarylayer"/><g class="geolayer"/><g class="funnelarealayer"/><g class="pielayer"/><g class="treemaplayer"/><g class="sunburstlayer"/><g class="glimages"/><defs id="topdefs-2a1de4"><g class="clips"/></defs><g class="layer-above"><g class="imagelayer"/><g class="shapelayer"><path data-index="0" fill-rule="evenodd" d="M-1016.1199999999999,424.7L370.6,424.7" clip-path="url('#clip2a1de4xy')" style="opacity: 1; stroke: rgb(255, 0, 0); stroke-opacity: 1; fill: rgb(0, 0, 0); fill-opacity: 0; stroke-dasharray: 3px, 3px; stroke-width: 1.5px;"/></g></g><g class="infolayer"><g class="g-gtitle"><text class="gtitle" x="375" y="25" text-anchor="middle" dy="0.7em" style="font-family: 'Open Sans', verdana, arial, sans-serif; font-size: 50px; fill: rgb(42, 63, 95); opacity: 1; font-weight: normal; white-space: pre;"><tspan style="font-weight:bold">Ardèche (07)</tspan></text></g><g class="g-xtitle"/><g class="annotation" data-index="0" style="opacity: 1;"><g class="annotation-text-g" transform="rotate(0,694.72,359.51)"><g class="cursor-pointer" transform="translate(651, 324)"><rect class="bg" x="0.5" y="0.5" width="86" height="71" style="stroke-width: 1px; stroke: rgb(0, 0, 0); stroke-opacity: 0; fill: rgb(255, 255, 255); fill-opacity: 0.6;"/><text class="annotation-text" text-anchor="middle" x="43.53125" y="55.5" style="font-family: 'Open Sans', verdana, arial, sans-serif; font-size: 50px; fill: rgb(8, 115, 191); fill-opacity: 1; white-space: pre;"> <tspan style="font-weight:bold">60 </tspan></text></g></g><g class="annotation-arrow-g" style="opacity: 1;"><path d="M723.12,395.01L734.72,409.51" style="stroke-width: 1px; stroke: rgb(8, 115, 191); stroke-opacity: 1; stroke-dasharray: 0px, 0px, 18.569px, 18.569px;"/></g></g></g></svg>