<svg class="main-svg" xmlns="http://www.w3.org/2000/svg" xmlns:xlink="http://www.w3.org/1999/xlink" width="1125" height="750" style="" viewBox="0 0 750 500"><rect x="0" y="0" width="750" height="500" style="fill: rgb(0, 0, 0); fill-opacity: 0;"/><defs id="defs-939433"><g class="clips"><clipPath id="clip939433xyplot" class="plotclip"><rect width="700" height="380"/></clipPath><clipPath class="axesclip" id="clip939433x"><rect x="50" y="0" width="700" height="500"/></clipPath><clipPath class="axesclip" id="clip939433y"><rect x="0" y="70" width="750" height="380"/></clipPath><clipPath class="axesclip" id="clip939433xy"><rect x="50" y="70" width="700" height="380"/></clipPath></g><g class="gradients"/></defs><g class="bglayer"><rect class="bg" x="50" y="70" width="700" height="380" style="fill: rgb(0, 0, 0); fill-opacity: 0; stroke-width: 0;"/></g><g class="layer-below"><g class="imagelayer"/><g class="shapelayer"/></g><g class="cartesianlayer"><g class="subplot xy"><g class="layer-subplot"><g class="shapelayer"/><g class="imagelayer"/></g><g class="gridlayer"><g class="x"><path class="xgrid crisp" transform="translate(90.1,0)" d="M0,70v380" style="stroke: rgb(255, 255, 255); stroke-opacity: 1; stroke-width: 1px;"/><path class="xgrid crisp" transform="translate(164.24,0)" d="M0,70v380" style="stroke: rgb(255, 255, 255); stroke-opacity: 1; stroke-width: 1px;"/><path class="xgrid crisp" transform="translate(235.94,0)" d="M0,70v380" style="stroke: rgb(255, 255, 255); stroke-opacity: 1; stroke-width: 1px;"/><path class="xgrid crisp" transform="translate(310.07,0)" d="M0,70v380" style="stroke: rgb(255, 255, 255); stroke-opacity: 1; stroke-width: 1px;"/><path class="xgrid crisp" transform="translate(384.2,0)" d="M0,70v380" style="stroke: rgb(255, 255, 255); stroke-opacity: 1; stroke-width: 1px;"/><path class="xgrid crisp" transform="translate(459.55,0)" d="M0,70v380" style="stroke: rgb(255, 255, 255); stroke-opacity: 1; stroke-width: 1px;"/><path class="xgrid crisp" transform="translate(533.6800000000001,0)" d="M0,70v380" style="stroke: rgb(255, 255, 255); stroke-opacity: 1; stroke-width: 1px;"/><path class="xgrid crisp" transform="translate(607.81,0)" d="M0,70v380" style="stroke: rgb(255, 255, 255); stroke-opacity: 1; stroke-width: 1px;"/><path class="xgrid crisp" transform="translate(679.51,0)" d="M0,70v380" style="stroke: rgb(255, 255, 255); stroke-opacity: 1; stroke-width: 1px;"/></g><g class="y"/></g><g class="zerolinelayer"/><path class="xlines-below"/><path class="ylines-below"/><g class="overlines-below"/><g class="xaxislayer-below"/><g class="yaxislayer-below"/><g class="overaxes-below"/><g class="plot" transform="translate(50, 70)" clip-path="url('#clip939433xyplot')"><g class="scatterlayer mlayer"><g class="trace scatter trace8fb8f4" style="stroke-miterlimit: 2;"><g class="fills"><g><path class="js-fill" d="M679.34,380L-165.28,380L-165.28,379.86L-160.42,377.64L-159.2,376.52L-151.91,374.6L-150.69,375.05L-145.83,373.51L-144.62,372.86L-139.76,369.51L-138.54,368.66L-133.68,360.77L-132.47,359.92L-122.74,334.37L-121.53,335.12L-120.31,335.5L-119.1,338.37L-117.88,338.74L-116.67,336.11L-114.24,334.75L-113.02,336.83L-111.81,336.45L-110.59,333.07L-109.37,333.14L-108.16,335.74L-106.94,336.11L-105.73,338.78L-102.08,342.94L-100.87,345.98L-98.44,348.71L-97.22,352.13L-93.58,358.28L-92.36,358.89L-91.15,357.22L-89.93,358.35L-88.72,357.12L-87.5,355.85L-86.28,357.77L-82.64,357.01L-81.42,357.94L-71.7,364.53L-70.49,366.17L-61.98,369.14L-60.76,368.46L-55.9,370.4L-54.69,370.27L-51.04,371.19L-49.83,371.15L-40.1,371.8L-38.89,370.74L-36.46,371.02L-35.24,371.7L-30.38,372.55L-29.17,372.93L-26.74,372.32L-25.52,372.86L-21.87,373.48L-20.66,373.58L-18.23,374.88L-17.01,374.54L-10.94,374.67L-9.72,374.02L-7.29,374.02L-6.08,373.92L-3.65,373.58L-2.43,374.13L1.22,374.4L2.43,374.19L3.65,375.01L4.86,374.74L6.08,374.13L7.29,374.6L12.15,375.73L13.37,376.04L17.01,376.82L18.23,376.65L23.09,375.76L24.31,374.64L27.95,375.08L29.17,375.29L31.6,375.39L32.81,376.17L40.1,375.42L41.32,375.01L51.04,374.95L52.26,374.47L55.9,374.13L57.12,373.68L58.33,374.43L59.55,374.19L61.98,374.5L63.19,374.26L69.27,374.16L70.49,374.09L72.92,374.23L74.13,373.72L77.78,371.39L78.99,371.43L82.64,368.76L83.85,367.29L87.5,366.1L88.72,364.32L92.36,361.15L93.58,360.84L96.01,360.77L97.22,360.84L100.87,363.74L102.08,366.27L105.73,366.41L106.94,365.86L114.24,361.45L115.45,359.64L117.88,355.65L119.1,351.65L121.53,351.75L122.74,349.94L123.96,350.42L125.17,352.13L126.39,353.09L127.6,352.4L130.03,353.39L131.25,355.14L134.9,356.4L136.11,358.96L138.54,359.47L139.76,361.25L144.62,365.72L145.83,365.86L147.05,365.83L148.26,367.23L150.69,370.88L151.91,372.14L162.85,376.52L164.06,376.65L168.92,377.68L170.14,377.64L179.86,377.13L181.08,377.27L199.31,377.85L200.52,377.75L204.17,377.06L205.38,376.99L209.03,376.72L210.24,376.07L215.1,374.57L216.32,373.78L218.75,373.07L219.97,373.03L223.61,372.42L224.83,373.65L229.69,367.57L230.9,367.09L232.12,367.23L233.33,364.22L236.98,363.57L238.19,362.68L240.63,362.72L241.84,360.67L244.27,358.69L245.49,358L249.13,358.31L250.35,359.4L253.99,359.58L255.21,359L257.64,359.61L258.85,356.91L262.5,354.08L263.72,351.48L266.15,350.9L267.36,348.34L269.79,342.91L271.01,346.26L273.44,341.51L274.65,341.3L275.87,340.14L277.08,340.79L278.3,341.13L279.51,336.25L280.73,339.15L281.94,339.25L283.16,339.29L284.38,347.14L285.59,347.21L286.81,346.12L288.02,346.84L289.24,346.49L290.45,347.86L291.67,347.52L292.88,343.76L294.1,346.05L295.31,348.78L296.53,348.37L300.17,350.22L301.39,350.18L303.82,347.69L305.03,352.23L308.68,350.25L309.9,350.12L312.33,351.96L313.54,348.95L315.97,351.75L317.19,351.45L320.83,355.07L322.05,355.41L325.69,356.43L326.91,358.18L329.34,360.43L330.56,360.98L332.99,360.84L334.2,360.5L335.42,359.68L336.63,360.22L339.06,360.7L340.28,361.49L345.14,361.63L346.35,363.5L348.78,361.63L350,361.25L352.43,359.95L353.65,358.48L354.86,354.9L356.08,355.34L359.72,355.72L360.94,356.71L363.37,358.82L364.58,358.21L368.23,359.06L369.44,357.73L375.52,354.08L376.74,354.01L381.6,346.6L382.81,343.86L386.46,341.75L387.67,339.7L388.89,338.23L390.1,338.13L396.18,334.61L397.4,335.36L401.04,334.06L402.26,334.4L404.69,333.55L405.9,333.35L409.55,338.47L410.76,338.06L413.19,340.72L414.41,341.51L418.06,338.4L419.27,338.2L421.7,335.8L422.92,333.04L426.56,330.41L427.78,330.65L428.99,330.72L430.21,330.03L431.42,329.86L432.64,328.12L435.07,326.24L436.28,326.31L437.5,324.98L438.72,325.69L439.93,326.21L441.15,328.15L444.79,330.85L446.01,333.52L448.44,337.03L449.65,339.19L450.87,342.36L452.08,343.28L453.3,343.35L454.51,345.16L456.94,349.94L458.16,350.73L460.59,352.98L461.81,353.19L464.24,356.16L465.45,355.75L467.88,357.08L469.1,356.88L470.31,356.74L471.53,357.49L472.74,357.83L473.96,359.58L477.6,362.99L478.82,362.96L480.03,366.68L481.25,365.35L483.68,366.44L484.9,366.1L487.33,366.65L488.54,363.88L490.97,367.5L492.19,369.48L495.83,369.86L497.05,371.39L498.26,372.35L499.48,372.18L500.69,371.29L501.91,372.32L506.77,372.21L507.99,372.25L510.42,370.88L511.63,371.05L514.06,370.74L515.28,370.23L516.49,370.13L517.71,370.95L520.14,370.98L521.35,370.98L523.78,371.77L525,370.74L528.65,369.82L529.86,369.89L532.29,368.15L533.51,369L535.94,368.9L537.15,368.25L539.58,368.08L540.8,366.75L544.44,362.34L545.66,362.96L546.88,362.24L548.09,353.05L550.52,328.94L551.74,309.61L552.95,291.06L554.17,287.85L555.38,283.75L556.6,224.39L561.46,31.39L562.67,4.03L565.1,0L566.32,9.22L568.75,53.72L569.97,77.97L571.18,89.28L572.4,91.29L577.26,200.79L578.47,223.98L579.69,234.67L580.9,237.99L583.33,277.95L584.55,290.99L586.98,306.53L588.19,311.66L589.41,312.27L590.63,322.42L594.27,340.59L595.49,346.19L597.92,347.69L599.13,352.54L603.99,360.91L605.21,362.85L606.42,362.72L607.64,365.35L611.28,370.81L612.5,371.12L618.58,373.89L619.79,373.78L629.51,375.56L630.73,374.64L631.94,374.54L633.16,373L636.81,370.1L638.02,369.75L640.45,370.54L641.67,370.3L648.96,369.38L650.17,368.35L652.6,368.11L653.82,367.4L656.25,365.79L657.47,365.79L659.9,365.72L661.11,365.59L662.33,365.18L663.54,365.86L665.97,366L667.19,365.45L668.4,364.39L669.62,364.63L673.26,363.23L674.48,363.33L678.13,362.72L679.34,363.13" style="fill: rgb(8, 115, 191); fill-opacity: 0.2; stroke-width: 0;"/></g></g><g class="errorbars"/><g class="lines"><path class="js-line" d="M-165.28,379.86L-160.42,377.64L-159.2,376.52L-151.91,374.6L-150.69,375.05L-145.83,373.51L-144.62,372.86L-139.76,369.51L-138.54,368.66L-133.68,360.77L-132.47,359.92L-122.74,334.37L-121.53,335.12L-120.31,335.5L-119.1,338.37L-117.88,338.74L-116.67,336.11L-114.24,334.75L-113.02,336.83L-111.81,336.45L-110.59,333.07L-109.37,333.14L-108.16,335.74L-106.94,336.11L-105.73,338.78L-102.08,342.94L-100.87,345.98L-98.44,348.71L-97.22,352.13L-93.58,358.28L-92.36,358.89L-91.15,357.22L-89.93,358.35L-88.72,357.12L-87.5,355.85L-86.28,357.77L-82.64,357.01L-81.42,357.94L-71.7,364.53L-70.49,366.17L-61.98,369.14L-60.76,368.46L-55.9,370.4L-54.69,370.27L-51.04,371.19L-49.83,371.15L-40.1,371.8L-38.89,370.74L-36.46,371.02L-35.24,371.7L-30.38,372.55L-29.17,372.93L-26.74,372.32L-25.52,372.86L-21.87,373.48L-20.66,373.58L-18.23,374.88L-17.01,374.54L-10.94,374.67L-9.72,374.02L-7.29,374.02L-6.08,373.92L-3.65,373.58L-2.43,374.13L1.22,374.4L2.43,374.19L3.65,375.01L4.86,374.74L6.08,374.13L7.29,374.6L12.15,375.73L13.37,376.04L17.01,376.82L18.23,376.65L23.09,375.76L24.31,374.64L27.95,375.08L29.17,375.29L31.6,375.39L32.81,376.17L40.1,375.42L41.32,375.01L51.04,374.95L52.26,374.47L55.9,374.13L57.12,373.68L58.33,374.43L59.55,374.19L61.98,374.5L63.19,374.26L69.27,374.16L70.49,374.09L72.92,374.23L74.13,373.72L77.78,371.39L78.99,371.43L82.64,368.76L83.85,367.29L87.5,366.1L88.72,364.32L92.36,361.15L93.58,360.84L96.01,360.77L97.22,360.84L100.87,363.74L102.08,366.27L105.73,366.41L106.94,365.86L114.24,361.45L115.45,359.64L117.88,355.65L119.1,351.65L121.53,351.75L122.74,349.94L123.96,350.42L125.17,352.13L126.39,353.09L127.6,352.4L130.03,353.39L131.25,355.14L134.9,356.4L136.11,358.96L138.54,359.47L139.76,361.25L144.62,365.72L145.83,365.86L147.05,365.83L148.26,367.23L150.69,370.88L151.91,372.14L162.85,376.52L164.06,376.65L168.92,377.68L170.14,377.64L179.86,377.13L181.08,377.27L199.31,377.85L200.52,377.75L204.17,377.06L205.38,376.99L209.03,376.72L210.24,376.07L215.1,374.57L216.32,373.78L218.75,373.07L219.97,373.03L223.61,372.42L224.83,373.65L229.69,367.57L230.9,367.09L232.12,367.23L233.33,364.22L236.98,363.57L238.19,362.68L240.63,362.72L241.84,360.67L244.27,358.69L245.49,358L249.13,358.31L250.35,359.4L253.99,359.58L255.21,359L257.64,359.61L258.85,356.91L262.5,354.08L263.72,351.48L266.15,350.9L267.36,348.34L269.79,342.91L271.01,346.26L273.44,341.51L274.65,341.3L275.87,340.14L277.08,340.79L278.3,341.13L279.51,336.25L280.73,339.15L281.94,339.25L283.16,339.29L284.38,347.14L285.59,347.21L286.81,346.12L288.02,346.84L289.24,346.49L290.45,347.86L291.67,347.52L292.88,343.76L294.1,346.05L295.31,348.78L296.53,348.37L300.17,350.22L301.39,350.18L303.82,347.69L305.03,352.23L308.68,350.25L309.9,350.12L312.33,351.96L313.54,348.95L315.97,351.75L317.19,351.45L320.83,355.07L322.05,355.41L325.69,356.43L326.91,358.18L329.34,360.43L330.56,360.98L332.99,360.84L334.2,360.5L335.42,359.68L336.63,360.22L339.06,360.7L340.28,361.49L345.14,361.63L346.35,363.5L348.78,361.63L350,361.25L352.43,359.95L353.65,358.48L354.86,354.9L356.08,355.34L359.72,355.72L360.94,356.71L363.37,358.82L364.58,358.21L368.23,359.06L369.44,357.73L375.52,354.08L376.74,354.01L381.6,346.6L382.81,343.86L386.46,341.75L387.67,339.7L388.89,338.23L390.1,338.13L396.18,334.61L397.4,335.36L401.04,334.06L402.26,334.4L404.69,333.55L405.9,333.35L409.55,338.47L410.76,338.06L413.19,340.72L414.41,341.51L418.06,338.4L419.27,338.2L421.7,335.8L422.92,333.04L426.56,330.41L427.78,330.65L428.99,330.72L430.21,330.03L431.42,329.86L432.64,328.12L435.07,326.24L436.28,326.31L437.5,324.98L438.72,325.69L439.93,326.21L441.15,328.15L444.79,330.85L446.01,333.52L448.44,337.03L449.65,339.19L450.87,342.36L452.08,343.28L453.3,343.35L454.51,345.16L456.94,349.94L458.16,350.73L460.59,352.98L461.81,353.19L464.24,356.16L465.45,355.75L467.88,357.08L469.1,356.88L470.31,356.74L471.53,357.49L472.74,357.83L473.96,359.58L477.6,362.99L478.82,362.96L480.03,366.68L481.25,365.35L483.68,366.44L484.9,366.1L487.33,366.65L488.54,363.88L490.97,367.5L492.19,369.48L495.83,369.86L497.05,371.39L498.26,372.35L499.48,372.18L500.69,371.29L501.91,372.32L506.77,372.21L507.99,372.25L510.42,370.88L511.63,371.05L514.06,370.74L515.28,370.23L516.49,370.13L517.71,370.95L520.14,370.98L521.35,370.98L523.78,371.77L525,370.74L528.65,369.82L529.86,369.89L532.29,368.15L533.51,369L535.94,368.9L537.15,368.25L539.58,368.08L540.8,366.75L544.44,362.34L545.66,362.96L546.88,362.24L548.09,353.05L550.52,328.94L551.74,309.61L552.95,291.06L554.17,287.85L555.38,283.75L556.6,224.39L561.46,31.39L562.67,4.03L565.1,0L566.32,9.22L568.75,53.72L569.97,77.97L571.18,89.28L572.4,91.29L577.26,200.79L578.47,223.98L579.69,234.67L580.9,237.99L583.33,277.95L584.55,290.99L586.98,306.53L588.19,311.66L589.41,312.27L590.63,322.42L594.27,340.59L595.49,346.19L597.92,347.69L599.13,352.54L603.99,360.91L605.21,362.85L606.42,362.72L607.64,365.35L611.28,370.81L612.5,371.12L618.58,373.89L619.79,373.78L629.51,375.56L630.73,374.64L631.94,374.54L633.16,373L636.81,370.1L638.02,369.75L640.45,370.54L641.67,370.3L648.96,369.38L650.17,368.35L652.6,368.11L653.82,367.4L656.25,365.79L657.47,365.79L659.9,365.72L661.11,365.59L662.33,365.18L663.54,365.86L665.97,366L667.19,365.45L668.4,364.39L669.62,364.63L673.26,363.23L674.48,363.33L678.13,362.72L679.34,363.13" style="vector-effect: non-scaling-stroke; fill: none; stroke: rgb(8, 115, 191); stroke-opacity: 1; stroke-width: 0.5px; opacity: 1;"/></g><g class="points"/><g class="text"/></g><g class="trace scatter trace535bbf" style="stroke-miterlimit: 2;"><g class="fills"><g><path class="js-fill" d="M691.49,380L679.34,380L679.34,363.13L681.77,363.5L682.99,363.37L684.2,366.92L685.42,366.1L687.85,367.5L689.06,367.12L691.49,367.26" style="fill: rgb(8, 115, 191); fill-opacity: 0.4; stroke-width: 0;"/></g></g><g class="errorbars"/><g class="lines"><path class="js-line" d="M679.34,363.13L681.77,363.5L682.99,363.37L684.2,366.92L685.42,366.1L687.85,367.5L689.06,367.12L691.49,367.26" style="vector-effect: non-scaling-stroke; fill: none; stroke: rgb(8, 115, 191); stroke-opacity: 1; stroke-width: 2px; opacity: 1;"/></g><g class="points"/><g class="text"/></g><g class="trace scatter tracef7cf59" style="stroke-miterlimit: 2; opacity: 1;"><g class="fills"/><g class="errorbars"/><g class="lines"/><g class="points"><path class="point" transform="translate(691.49,367.26)" d="M15,0A15,15 0 1,1 0,-15A15,15 0 0,1 15,0Z" style="opacity: 1; stroke-width: 0px; fill: rgb(8, 115, 191); fill-opacity: 1;"/></g><g class="text"/></g></g></g><g class="overplot"/><path class="xlines-above crisp" style="fill: none; stroke-width: 1px; stroke: rgb(0, 0, 0); stroke-opacity: 0;" d=""/><path class="ylines-above crisp" style="fill: none;" d="M0,0"/><g class="overlines-above"/><g class="xaxislayer-above"><path class="xtick ticks crisp" d="M0,450v-5" transform="translate(90.1,0)" style="stroke: rgb(68, 68, 68); stroke-opacity: 1; stroke-width: 1px;"/><path class="xtick ticks crisp" d="M0,450v-5" transform="translate(164.24,0)" style="stroke: rgb(68, 68, 68); stroke-opacity: 1; stroke-width: 1px;"/><path class="xtick ticks crisp" d="M0,450v-5" transform="translate(235.94,0)" style="stroke: rgb(68, 68, 68); stroke-opacity: 1; stroke-width: 1px;"/><path class="xtick ticks crisp" d="M0,450v-5" transform="translate(310.07,0)" style="stroke: rgb(68, 68, 68); stroke-opacity: 1; stroke-width: 1px;"/><path class="xtick ticks crisp" d="M0,450v-5" transform="translate(384.2,0)" style="stroke: rgb(68, 68, 68); stroke-opacity: 1; stroke-width: 1px;"/><path class="xtick ticks crisp" d="M0,450v-5" transform="translate(459.55,0)" style="stroke: rgb(68, 68, 68); stroke-opacity: 1; stroke-width: 1px;"/><path class="xtick ticks crisp" d="M0,450v-5" transform="translate(533.6800000000001,0)" style="stroke: rgb(68, 68, 68); stroke-opacity: 1; stroke-width: 1px;"/><path class="xtick ticks crisp" d="M0,450v-5" transform="translate(607.81,0)" style="stroke: rgb(68, 68, 68); stroke-opacity: 1; stroke-width: 1px;"/><path class="xtick ticks crisp" d="M0,450v-5" transform="translate(679.51,0)" style="stroke: rgb(68, 68, 68); stroke-opacity: 1; stroke-width: 1px;"/><g class="xtick"><text text-anchor="middle" x="0" y="469" transform="translate(90.1,0)" style="font-family: 'Open Sans', verdana, arial, sans-serif; font-size: 18px; fill: rgb(42, 63, 95); fill-opacity: 1; white-space: pre;">01/11</text></g><g class="xtick"><text text-anchor="middle" x="0" y="469" transform="translate(164.24,0)" style="font-family: 'Open Sans', verdana, arial, sans-serif; font-size: 18px; fill: rgb(42, 63, 95); fill-opacity: 1; white-space: pre;">01/01</text></g><g class="xtick"><text text-anchor="middle" x="0" y="469" transform="translate(235.94,0)" style="font-family: 'Open Sans', verdana, arial, sans-serif; font-size: 18px; fill: rgb(42, 63, 95); fill-opacity: 1; white-space: pre;">01/03</text></g><g class="xtick"><text text-anchor="middle" x="0" y="469" transform="translate(310.07,0)" style="font-family: 'Open Sans', verdana, arial, sans-serif; font-size: 18px; fill: rgb(42, 63, 95); fill-opacity: 1; white-space: pre;">01/05</text></g><g class="xtick"><text text-anchor="middle" x="0" y="469" transform="translate(384.2,0)" style="font-family: 'Open Sans', verdana, arial, sans-serif; font-size: 18px; fill: rgb(42, 63, 95); fill-opacity: 1; white-space: pre;">01/07</text></g><g class="xtick"><text text-anchor="middle" x="0" y="469" transform="translate(459.55,0)" style="font-family: 'Open Sans', verdana, arial, sans-serif; font-size: 18px; fill: rgb(42, 63, 95); fill-opacity: 1; white-space: pre;">01/09</text></g><g class="xtick"><text text-anchor="middle" x="0" y="469" transform="translate(533.6800000000001,0)" style="font-family: 'Open Sans', verdana, arial, sans-serif; font-size: 18px; fill: rgb(42, 63, 95); fill-opacity: 1; white-space: pre;">01/11</text></g><g class="xtick"><text text-anchor="middle" x="0" y="469" transform="translate(607.81,0)" style="font-family: 'Open Sans', verdana, arial, sans-serif; font-size: 18px; fill: rgb(42, 63, 95); fill-opacity: 1; white-space: pre;">01/01</text></g><g class="xtick"><text text-anchor="middle" x="0" y="469" transform="translate(679.51,0)" style="font-family: 'Open Sans', verdana, arial, sans-serif; font-size: 18px; fill: rgb(42, 63, 95); fill-opacity: 1; white-space: pre;">01/03</text></g></g><g class="yaxislayer-above"/><g class="overaxes-above"/></g></g><g class="polarlayer"/><g class="ternarylayer"/><g class="geolayer"/><g class="funnelarealayer"/><g class="pielayer"/><g class="treemaplayer"/><g class="sunburstlayer"/><g class="glimages"/><defs id="topdefs-939433"><g class="clips"/></defs><g class="layer-above"><g class="imagelayer"/><g class="shapelayer"><path data-index="0" fill-rule="evenodd" d="M-632.99,445.04L255.38,445.04" clip-path="url('#clip939433xy')" style="opacity: 1; stroke: rgb(255, 0, 0); stroke-opacity: 1; fill: rgb(0, 0, 0); fill-opacity: 0; stroke-dasharray: 3px, 3px; stroke-width: 1.5px;"/></g></g><g class="infolayer"><g class="g-gtitle"><text class="gtitle" x="375" y="25" text-anchor="middle" dy="0.7em" style="font-family: 'Open Sans', verdana, arial, sans-serif; font-size: 50px; fill: rgb(42, 63, 95); opacity: 1; font-weight: normal; white-space: pre;"><tspan style="font-weight:bold">Guyane (973)</tspan></text></g><g class="g-xtitle"/><g class="annotation" data-index="0" style="opacity: 1;"><g class="annotation-text-g" transform="rotate(0,699.49,377.26)"><g class="cursor-pointer" transform="translate(641, 341)"><rect class="bg" x="0.5" y="0.5" width="115" height="71" style="stroke-width: 1px; stroke: rgb(0, 0, 0); stroke-opacity: 0; fill: rgb(255, 255, 255); fill-opacity: 0.6;"/><text class="annotation-text" text-anchor="middle" x="57.8125" y="55.5" style="font-family: 'Open Sans', verdana, arial, sans-serif; font-size: 50px; fill: rgb(8, 115, 191); fill-opacity: 1; white-space: pre;"> <tspan style="font-weight:bold">128 </tspan></text></g></g><g class="annotation-arrow-g" style="opacity: 1;"><path d="M727.89,412.76L739.49,427.26" style="stroke-width: 1px; stroke: rgb(8, 115, 191); stroke-opacity: 1; stroke-dasharray: 0px, 0px, 18.569px, 18.569px;"/></g></g></g></svg>