<svg class="main-svg" xmlns="http://www.w3.org/2000/svg" xmlns:xlink="http://www.w3.org/1999/xlink" width="1125" height="750" style="" viewBox="0 0 750 500"><rect x="0" y="0" width="750" height="500" style="fill: rgb(0, 0, 0); fill-opacity: 0;"/><defs id="defs-ade2b0"><g class="clips"><clipPath id="clipade2b0xyplot" class="plotclip"><rect width="700" height="380"/></clipPath><clipPath class="axesclip" id="clipade2b0x"><rect x="50" y="0" width="700" height="500"/></clipPath><clipPath class="axesclip" id="clipade2b0y"><rect x="0" y="70" width="750" height="380"/></clipPath><clipPath class="axesclip" id="clipade2b0xy"><rect x="50" y="70" width="700" height="380"/></clipPath></g><g class="gradients"/></defs><g class="bglayer"><rect class="bg" x="50" y="70" width="700" height="380" style="fill: rgb(0, 0, 0); fill-opacity: 0; stroke-width: 0;"/></g><g class="layer-below"><g class="imagelayer"/><g class="shapelayer"/></g><g class="cartesianlayer"><g class="subplot xy"><g class="layer-subplot"><g class="shapelayer"/><g class="imagelayer"/></g><g class="gridlayer"><g class="x"><path class="xgrid crisp" transform="translate(90.24000000000001,0)" d="M0,70v380" style="stroke: rgb(255, 255, 255); stroke-opacity: 1; stroke-width: 1px;"/><path class="xgrid crisp" transform="translate(164.63,0)" d="M0,70v380" style="stroke: rgb(255, 255, 255); stroke-opacity: 1; stroke-width: 1px;"/><path class="xgrid crisp" transform="translate(236.59,0)" d="M0,70v380" style="stroke: rgb(255, 255, 255); stroke-opacity: 1; stroke-width: 1px;"/><path class="xgrid crisp" transform="translate(310.98,0)" d="M0,70v380" style="stroke: rgb(255, 255, 255); stroke-opacity: 1; stroke-width: 1px;"/><path class="xgrid crisp" transform="translate(385.37,0)" d="M0,70v380" style="stroke: rgb(255, 255, 255); stroke-opacity: 1; stroke-width: 1px;"/><path class="xgrid crisp" transform="translate(460.98,0)" d="M0,70v380" style="stroke: rgb(255, 255, 255); stroke-opacity: 1; stroke-width: 1px;"/><path class="xgrid crisp" transform="translate(535.37,0)" d="M0,70v380" style="stroke: rgb(255, 255, 255); stroke-opacity: 1; stroke-width: 1px;"/><path class="xgrid crisp" transform="translate(609.76,0)" d="M0,70v380" style="stroke: rgb(255, 255, 255); stroke-opacity: 1; stroke-width: 1px;"/><path class="xgrid crisp" transform="translate(681.71,0)" d="M0,70v380" style="stroke: rgb(255, 255, 255); stroke-opacity: 1; stroke-width: 1px;"/></g><g class="y"/></g><g class="zerolinelayer"/><path class="xlines-below"/><path class="ylines-below"/><g class="overlines-below"/><g class="xaxislayer-below"/><g class="yaxislayer-below"/><g class="overaxes-below"/><g class="plot" transform="translate(50, 70)" clip-path="url('#clipade2b0xyplot')"><g class="scatterlayer mlayer"><g class="trace scatter traceadeb6a" style="stroke-miterlimit: 2;"><g class="fills"><g><path class="js-fill" d="M679.27,380L-165.85,380L-165.85,379.28L-150,379.77L-148.78,379.8L-86.59,379.24L-85.37,379.1L-53.66,377.69L-52.44,377.27L-41.46,376.57L-40.24,376.57L-30.49,374.96L-29.27,374.38L-19.51,371.19L-18.29,370.57L-10.98,370.97L-9.76,371.85L-2.44,373.38L-1.22,372.72L12.2,366.13L13.41,364.95L17.07,361.89L18.29,361.39L19.51,361.11L20.73,359.33L26.83,347.21L28.05,347.29L30.49,342.6L31.71,341.57L34.15,340.64L35.37,339.87L36.59,339.62L37.8,340.52L40.24,341.58L41.46,343.06L43.9,347.69L45.12,347.82L47.56,353.23L48.78,358.48L50,358.4L51.22,359.78L54.88,362.94L56.1,365.08L57.32,363.89L58.54,367.51L60.98,369.24L62.2,369.37L63.41,371.02L64.63,371.4L68.29,372.67L69.51,372.7L90.24,371.75L91.46,370.34L93.9,369.84L95.12,369.79L100,369.41L101.22,369.77L102.44,371.2L103.66,371.45L104.88,371.54L106.1,370.84L108.54,371.59L109.76,370.87L113.41,370.5L114.63,370.07L117.07,367.96L118.29,367.11L119.51,364.65L120.73,364.33L121.95,364.27L123.17,363.17L125.61,363.8L126.83,363.52L129.27,362.65L130.49,362.79L135.37,362.02L136.59,362.41L140.24,361.59L141.46,361.21L146.34,360.38L147.56,360.33L151.22,362.24L152.44,362.39L158.54,363.12L159.76,363.59L162.2,365.18L163.41,365.35L168.29,365.5L169.51,365.07L171.95,364.77L173.17,364.83L175.61,362.69L176.83,362.84L179.27,361.92L180.49,361.71L182.93,361.99L184.15,362.51L186.59,362.79L187.8,362.44L190.24,361.92L191.46,360.36L198.78,359.46L200,360.03L204.88,354.01L206.1,353.47L210.98,353.16L212.2,352.26L214.63,350.9L215.85,350.66L218.29,346.71L219.51,345.84L221.95,345.78L223.17,344.78L224.39,344.86L225.61,351.28L229.27,349.98L230.49,350.33L232.93,350.18L234.15,343.33L237.8,347.37L239.02,347.75L242.68,350.5L243.9,350.9L247.56,352.66L248.78,353.33L250,353.47L251.22,355.05L256.1,359.86L257.32,361.56L259.76,361.81L260.98,362.47L263.41,363.79L264.63,364.22L267.07,364.78L268.29,366.25L270.73,367.18L271.95,369.37L273.17,369.94L274.39,369.56L276.83,369.66L278.05,370.3L279.27,370.49L280.49,369.02L284.15,369.04L285.37,371.4L287.8,370.92L289.02,371.52L291.46,372.78L292.68,372.8L293.9,371.97L295.12,373.45L297.56,374.84L298.78,374.98L306.1,375.93L307.32,376.42L317.07,378.52L318.29,378.54L326.83,378.95L328.05,378.75L343.9,378.32L345.12,378.07L351.22,376.86L352.44,376.94L358.54,374.21L359.76,373.9L360.98,373.76L362.2,372.75L368.29,370.64L369.51,370.67L381.71,368.38L382.93,368.01L389.02,368.01L390.24,368.14L406.1,372.05L407.32,371.98L410.98,373.28L412.2,373.16L415.85,373.78L417.07,373.9L426.83,375.74L428.05,375.53L435.37,376.37L436.59,376.69L439.02,376.99L440.24,377.52L448.78,377.9L450,377.95L457.32,377.79L458.54,377.56L470.73,374.18L471.95,374.16L478.05,374.46L479.27,374.23L480.49,374.1L481.71,374.98L484.15,373.26L485.37,372.82L487.8,371.67L489.02,371.78L490.24,369.57L491.46,370.11L492.68,370.12L493.9,371.47L498.78,369.04L500,367.39L501.22,366.01L502.44,362.97L504.88,361.99L506.1,362.09L513.41,356.44L514.63,356.44L517.07,352.53L518.29,351.53L520.73,348.88L521.95,347.62L523.17,347.52L524.39,346.32L526.83,344.96L528.05,345.28L529.27,344.98L530.49,345.84L531.71,345.38L532.93,346.24L536.59,347.35L537.8,347.5L540.24,346.76L541.46,347.32L542.68,346.46L543.9,344.16L546.34,337.38L547.56,340.12L548.78,338.24L550,320.93L554.88,258.07L556.1,257.98L557.32,254.89L558.54,225.39L560.98,189.95L562.2,182.08L563.41,169.56L564.63,148.47L567.07,147.44L568.29,149.34L569.51,145.81L570.73,137.17L573.17,116.96L574.39,109.78L579.27,29.07L580.49,16.56L581.71,8.55L582.93,9.01L584.15,0L585.37,1L590.24,37.8L591.46,40.49L598.78,137.9L600,143.34L602.44,201.81L603.66,220.65L606.1,249.05L607.32,256.75L608.54,258.97L609.76,272.1L615.85,300.69L617.07,301.22L619.51,311.63L620.73,314.01L624.39,323.81L625.61,324.85L626.83,326.98L628.05,326.53L630.49,323.79L631.71,320.68L634.15,318.65L635.37,313.3L639.02,298.65L640.24,293.14L641.46,288.8L642.68,288.45L645.12,271.17L646.34,265.4L650,251.75L651.22,250.72L653.66,235.58L654.88,229.98L657.32,218.55L658.54,216.29L659.76,216.08L660.98,213.3L663.41,208.23L664.63,209.16L667.07,211.75L668.29,212.43L670.73,218.72L671.95,221.35L674.39,222.99L675.61,223.98L676.83,224.08L678.05,231.18L679.27,237.75" style="fill: rgb(8, 115, 191); fill-opacity: 0.2; stroke-width: 0;"/></g></g><g class="errorbars"/><g class="lines"><path class="js-line" d="M-165.85,379.28L-150,379.77L-148.78,379.8L-86.59,379.24L-85.37,379.1L-53.66,377.69L-52.44,377.27L-41.46,376.57L-40.24,376.57L-30.49,374.96L-29.27,374.38L-19.51,371.19L-18.29,370.57L-10.98,370.97L-9.76,371.85L-2.44,373.38L-1.22,372.72L12.2,366.13L13.41,364.95L17.07,361.89L18.29,361.39L19.51,361.11L20.73,359.33L26.83,347.21L28.05,347.29L30.49,342.6L31.71,341.57L34.15,340.64L35.37,339.87L36.59,339.62L37.8,340.52L40.24,341.58L41.46,343.06L43.9,347.69L45.12,347.82L47.56,353.23L48.78,358.48L50,358.4L51.22,359.78L54.88,362.94L56.1,365.08L57.32,363.89L58.54,367.51L60.98,369.24L62.2,369.37L63.41,371.02L64.63,371.4L68.29,372.67L69.51,372.7L90.24,371.75L91.46,370.34L93.9,369.84L95.12,369.79L100,369.41L101.22,369.77L102.44,371.2L103.66,371.45L104.88,371.54L106.1,370.84L108.54,371.59L109.76,370.87L113.41,370.5L114.63,370.07L117.07,367.96L118.29,367.11L119.51,364.65L120.73,364.33L121.95,364.27L123.17,363.17L125.61,363.8L126.83,363.52L129.27,362.65L130.49,362.79L135.37,362.02L136.59,362.41L140.24,361.59L141.46,361.21L146.34,360.38L147.56,360.33L151.22,362.24L152.44,362.39L158.54,363.12L159.76,363.59L162.2,365.18L163.41,365.35L168.29,365.5L169.51,365.07L171.95,364.77L173.17,364.83L175.61,362.69L176.83,362.84L179.27,361.92L180.49,361.71L182.93,361.99L184.15,362.51L186.59,362.79L187.8,362.44L190.24,361.92L191.46,360.36L198.78,359.46L200,360.03L204.88,354.01L206.1,353.47L210.98,353.16L212.2,352.26L214.63,350.9L215.85,350.66L218.29,346.71L219.51,345.84L221.95,345.78L223.17,344.78L224.39,344.86L225.61,351.28L229.27,349.98L230.49,350.33L232.93,350.18L234.15,343.33L237.8,347.37L239.02,347.75L242.68,350.5L243.9,350.9L247.56,352.66L248.78,353.33L250,353.47L251.22,355.05L256.1,359.86L257.32,361.56L259.76,361.81L260.98,362.47L263.41,363.79L264.63,364.22L267.07,364.78L268.29,366.25L270.73,367.18L271.95,369.37L273.17,369.94L274.39,369.56L276.83,369.66L278.05,370.3L279.27,370.49L280.49,369.02L284.15,369.04L285.37,371.4L287.8,370.92L289.02,371.52L291.46,372.78L292.68,372.8L293.9,371.97L295.12,373.45L297.56,374.84L298.78,374.98L306.1,375.93L307.32,376.42L317.07,378.52L318.29,378.54L326.83,378.95L328.05,378.75L343.9,378.32L345.12,378.07L351.22,376.86L352.44,376.94L358.54,374.21L359.76,373.9L360.98,373.76L362.2,372.75L368.29,370.64L369.51,370.67L381.71,368.38L382.93,368.01L389.02,368.01L390.24,368.14L406.1,372.05L407.32,371.98L410.98,373.28L412.2,373.16L415.85,373.78L417.07,373.9L426.83,375.74L428.05,375.53L435.37,376.37L436.59,376.69L439.02,376.99L440.24,377.52L448.78,377.9L450,377.95L457.32,377.79L458.54,377.56L470.73,374.18L471.95,374.16L478.05,374.46L479.27,374.23L480.49,374.1L481.71,374.98L484.15,373.26L485.37,372.82L487.8,371.67L489.02,371.78L490.24,369.57L491.46,370.11L492.68,370.12L493.9,371.47L498.78,369.04L500,367.39L501.22,366.01L502.44,362.97L504.88,361.99L506.1,362.09L513.41,356.44L514.63,356.44L517.07,352.53L518.29,351.53L520.73,348.88L521.95,347.62L523.17,347.52L524.39,346.32L526.83,344.96L528.05,345.28L529.27,344.98L530.49,345.84L531.71,345.38L532.93,346.24L536.59,347.35L537.8,347.5L540.24,346.76L541.46,347.32L542.68,346.46L543.9,344.16L546.34,337.38L547.56,340.12L548.78,338.24L550,320.93L554.88,258.07L556.1,257.98L557.32,254.89L558.54,225.39L560.98,189.95L562.2,182.08L563.41,169.56L564.63,148.47L567.07,147.44L568.29,149.34L569.51,145.81L570.73,137.17L573.17,116.96L574.39,109.78L579.27,29.07L580.49,16.56L581.71,8.55L582.93,9.01L584.15,0L585.37,1L590.24,37.8L591.46,40.49L598.78,137.9L600,143.34L602.44,201.81L603.66,220.65L606.1,249.05L607.32,256.75L608.54,258.97L609.76,272.1L615.85,300.69L617.07,301.22L619.51,311.63L620.73,314.01L624.39,323.81L625.61,324.85L626.83,326.98L628.05,326.53L630.49,323.79L631.71,320.68L634.15,318.65L635.37,313.3L639.02,298.65L640.24,293.14L641.46,288.8L642.68,288.45L645.12,271.17L646.34,265.4L650,251.75L651.22,250.72L653.66,235.58L654.88,229.98L657.32,218.55L658.54,216.29L659.76,216.08L660.98,213.3L663.41,208.23L664.63,209.16L667.07,211.75L668.29,212.43L670.73,218.72L671.95,221.35L674.39,222.99L675.61,223.98L676.83,224.08L678.05,231.18L679.27,237.75" style="vector-effect: non-scaling-stroke; fill: none; stroke: rgb(8, 115, 191); stroke-opacity: 1; stroke-width: 0.5px; opacity: 1;"/></g><g class="points"/><g class="text"/></g><g class="trace scatter trace15afa9" style="stroke-miterlimit: 2;"><g class="fills"><g><path class="js-fill" d="M691.46,380L679.27,380L679.27,237.75L684.15,259.78L685.37,259.83L686.59,287.8L687.8,285.29L691.46,304.83" style="fill: rgb(8, 115, 191); fill-opacity: 0.4; stroke-width: 0;"/></g></g><g class="errorbars"/><g class="lines"><path class="js-line" d="M679.27,237.75L684.15,259.78L685.37,259.83L686.59,287.8L687.8,285.29L691.46,304.83" style="vector-effect: non-scaling-stroke; fill: none; stroke: rgb(8, 115, 191); stroke-opacity: 1; stroke-width: 2px; opacity: 1;"/></g><g class="points"/><g class="text"/></g><g class="trace scatter trace3fe01e" style="stroke-miterlimit: 2; opacity: 1;"><g class="fills"/><g class="errorbars"/><g class="lines"/><g class="points"><path class="point" transform="translate(691.46,304.83)" d="M15,0A15,15 0 1,1 0,-15A15,15 0 0,1 15,0Z" style="opacity: 1; stroke-width: 0px; fill: rgb(8, 115, 191); fill-opacity: 1;"/></g><g class="text"/></g></g></g><g class="overplot"/><path class="xlines-above crisp" style="fill: none; stroke-width: 1px; stroke: rgb(0, 0, 0); stroke-opacity: 0;" d=""/><path class="ylines-above crisp" style="fill: none;" d="M0,0"/><g class="overlines-above"/><g class="xaxislayer-above"><path class="xtick ticks crisp" d="M0,450v-5" transform="translate(90.24000000000001,0)" style="stroke: rgb(68, 68, 68); stroke-opacity: 1; stroke-width: 1px;"/><path class="xtick ticks crisp" d="M0,450v-5" transform="translate(164.63,0)" style="stroke: rgb(68, 68, 68); stroke-opacity: 1; stroke-width: 1px;"/><path class="xtick ticks crisp" d="M0,450v-5" transform="translate(236.59,0)" style="stroke: rgb(68, 68, 68); stroke-opacity: 1; stroke-width: 1px;"/><path class="xtick ticks crisp" d="M0,450v-5" transform="translate(310.98,0)" style="stroke: rgb(68, 68, 68); stroke-opacity: 1; stroke-width: 1px;"/><path class="xtick ticks crisp" d="M0,450v-5" transform="translate(385.37,0)" style="stroke: rgb(68, 68, 68); stroke-opacity: 1; stroke-width: 1px;"/><path class="xtick ticks crisp" d="M0,450v-5" transform="translate(460.98,0)" style="stroke: rgb(68, 68, 68); stroke-opacity: 1; stroke-width: 1px;"/><path class="xtick ticks crisp" d="M0,450v-5" transform="translate(535.37,0)" style="stroke: rgb(68, 68, 68); stroke-opacity: 1; stroke-width: 1px;"/><path class="xtick ticks crisp" d="M0,450v-5" transform="translate(609.76,0)" style="stroke: rgb(68, 68, 68); stroke-opacity: 1; stroke-width: 1px;"/><path class="xtick ticks crisp" d="M0,450v-5" transform="translate(681.71,0)" style="stroke: rgb(68, 68, 68); stroke-opacity: 1; stroke-width: 1px;"/><g class="xtick"><text text-anchor="middle" x="0" y="469" transform="translate(90.24000000000001,0)" style="font-family: 'Open Sans', verdana, arial, sans-serif; font-size: 18px; fill: rgb(42, 63, 95); fill-opacity: 1; white-space: pre;">01/11</text></g><g class="xtick"><text text-anchor="middle" x="0" y="469" transform="translate(164.63,0)" style="font-family: 'Open Sans', verdana, arial, sans-serif; font-size: 18px; fill: rgb(42, 63, 95); fill-opacity: 1; white-space: pre;">01/01</text></g><g class="xtick"><text text-anchor="middle" x="0" y="469" transform="translate(236.59,0)" style="font-family: 'Open Sans', verdana, arial, sans-serif; font-size: 18px; fill: rgb(42, 63, 95); fill-opacity: 1; white-space: pre;">01/03</text></g><g class="xtick"><text text-anchor="middle" x="0" y="469" transform="translate(310.98,0)" style="font-family: 'Open Sans', verdana, arial, sans-serif; font-size: 18px; fill: rgb(42, 63, 95); fill-opacity: 1; white-space: pre;">01/05</text></g><g class="xtick"><text text-anchor="middle" x="0" y="469" transform="translate(385.37,0)" style="font-family: 'Open Sans', verdana, arial, sans-serif; font-size: 18px; fill: rgb(42, 63, 95); fill-opacity: 1; white-space: pre;">01/07</text></g><g class="xtick"><text text-anchor="middle" x="0" y="469" transform="translate(460.98,0)" style="font-family: 'Open Sans', verdana, arial, sans-serif; font-size: 18px; fill: rgb(42, 63, 95); fill-opacity: 1; white-space: pre;">01/09</text></g><g class="xtick"><text text-anchor="middle" x="0" y="469" transform="translate(535.37,0)" style="font-family: 'Open Sans', verdana, arial, sans-serif; font-size: 18px; fill: rgb(42, 63, 95); fill-opacity: 1; white-space: pre;">01/11</text></g><g class="xtick"><text text-anchor="middle" x="0" y="469" transform="translate(609.76,0)" style="font-family: 'Open Sans', verdana, arial, sans-serif; font-size: 18px; fill: rgb(42, 63, 95); fill-opacity: 1; white-space: pre;">01/01</text></g><g class="xtick"><text text-anchor="middle" x="0" y="469" transform="translate(681.71,0)" style="font-family: 'Open Sans', verdana, arial, sans-serif; font-size: 18px; fill: rgb(42, 63, 95); fill-opacity: 1; white-space: pre;">01/03</text></g></g><g class="yaxislayer-above"/><g class="overaxes-above"/></g></g><g class="polarlayer"/><g class="ternarylayer"/><g class="geolayer"/><g class="funnelarealayer"/><g class="pielayer"/><g class="treemaplayer"/><g class="sunburstlayer"/><g class="glimages"/><defs id="topdefs-ade2b0"><g class="clips"/></defs><g class="layer-above"><g class="imagelayer"/><g class="shapelayer"><path data-index="0" fill-rule="evenodd" d="M-635.37,444.97L256.1,444.97" clip-path="url('#clipade2b0xy')" style="opacity: 1; stroke: rgb(255, 0, 0); stroke-opacity: 1; fill: rgb(0, 0, 0); fill-opacity: 0; stroke-dasharray: 3px, 3px; stroke-width: 1.5px;"/></g></g><g class="infolayer"><g class="g-gtitle"><text class="gtitle" x="375" y="25" text-anchor="middle" dy="0.7em" style="font-family: 'Open Sans', verdana, arial, sans-serif; font-size: 50px; fill: rgb(42, 63, 95); opacity: 1; font-weight: normal; white-space: pre;"><tspan style="font-weight:bold">Indre-et-Loire (37)</tspan></text></g><g class="g-xtitle"/><g class="annotation" data-index="0" style="opacity: 1;"><g class="annotation-text-g" transform="rotate(0,699.46,314.83)"><g class="cursor-pointer" transform="translate(641, 279)"><rect class="bg" x="0.5" y="0.5" width="115" height="71" style="stroke-width: 1px; stroke: rgb(0, 0, 0); stroke-opacity: 0; fill: rgb(255, 255, 255); fill-opacity: 0.6;"/><text class="annotation-text" text-anchor="middle" x="57.8125" y="55.5" style="font-family: 'Open Sans', verdana, arial, sans-serif; font-size: 50px; fill: rgb(8, 115, 191); fill-opacity: 1; white-space: pre;"> <tspan style="font-weight:bold">746 </tspan></text></g></g><g class="annotation-arrow-g" style="opacity: 1;"><path d="M727.86,350.33L739.46,364.83" style="stroke-width: 1px; stroke: rgb(8, 115, 191); stroke-opacity: 1; stroke-dasharray: 0px, 0px, 18.5691px, 18.5691px;"/></g></g></g></svg>