<svg class="main-svg" xmlns="http://www.w3.org/2000/svg" xmlns:xlink="http://www.w3.org/1999/xlink" width="1125" height="750" style="" viewBox="0 0 750 500"><rect x="0" y="0" width="750" height="500" style="fill: rgb(0, 0, 0); fill-opacity: 0;"/><defs id="defs-0dae96"><g class="clips"><clipPath id="clip0dae96xyplot" class="plotclip"><rect width="700" height="380"/></clipPath><clipPath class="axesclip" id="clip0dae96x"><rect x="50" y="0" width="700" height="500"/></clipPath><clipPath class="axesclip" id="clip0dae96y"><rect x="0" y="70" width="750" height="380"/></clipPath><clipPath class="axesclip" id="clip0dae96xy"><rect x="50" y="70" width="700" height="380"/></clipPath></g><g class="gradients"/></defs><g class="bglayer"><rect class="bg" x="50" y="70" width="700" height="380" style="fill: rgb(0, 0, 0); fill-opacity: 0; stroke-width: 0;"/></g><g class="layer-below"><g class="imagelayer"/><g class="shapelayer"/></g><g class="cartesianlayer"><g class="subplot xy"><g class="layer-subplot"><g class="shapelayer"/><g class="imagelayer"/></g><g class="gridlayer"><g class="x"><path class="xgrid crisp" transform="translate(90.74000000000001,0)" d="M0,70v380" style="stroke: rgb(255, 255, 255); stroke-opacity: 1; stroke-width: 1px;"/><path class="xgrid crisp" transform="translate(166.05,0)" d="M0,70v380" style="stroke: rgb(255, 255, 255); stroke-opacity: 1; stroke-width: 1px;"/><path class="xgrid crisp" transform="translate(238.89,0)" d="M0,70v380" style="stroke: rgb(255, 255, 255); stroke-opacity: 1; stroke-width: 1px;"/><path class="xgrid crisp" transform="translate(314.2,0)" d="M0,70v380" style="stroke: rgb(255, 255, 255); stroke-opacity: 1; stroke-width: 1px;"/><path class="xgrid crisp" transform="translate(389.51,0)" d="M0,70v380" style="stroke: rgb(255, 255, 255); stroke-opacity: 1; stroke-width: 1px;"/><path class="xgrid crisp" transform="translate(466.05,0)" d="M0,70v380" style="stroke: rgb(255, 255, 255); stroke-opacity: 1; stroke-width: 1px;"/><path class="xgrid crisp" transform="translate(541.36,0)" d="M0,70v380" style="stroke: rgb(255, 255, 255); stroke-opacity: 1; stroke-width: 1px;"/><path class="xgrid crisp" transform="translate(616.67,0)" d="M0,70v380" style="stroke: rgb(255, 255, 255); stroke-opacity: 1; stroke-width: 1px;"/><path class="xgrid crisp" transform="translate(689.51,0)" d="M0,70v380" style="stroke: rgb(255, 255, 255); stroke-opacity: 1; stroke-width: 1px;"/></g><g class="y"/></g><g class="zerolinelayer"/><path class="xlines-below"/><path class="ylines-below"/><g class="overlines-below"/><g class="xaxislayer-below"/><g class="yaxislayer-below"/><g class="overaxes-below"/><g class="plot" transform="translate(50, 70)" clip-path="url('#clip0dae96xyplot')"><g class="scatterlayer mlayer"><g class="trace scatter trace197531" style="stroke-miterlimit: 2;"><g class="fills"><g><path class="js-fill" d="M679.01,380L-167.9,380L-167.9,379.09L-151.85,379.87L-150.62,379.81L-107.41,380L-106.17,380L-58.02,378.64L-56.79,378.32L-53.09,377.93L-51.85,378.19L-44.44,378.12L-43.21,377.35L-33.33,377.35L-32.1,377.28L-27.16,375.15L-25.93,375.41L-22.22,375.73L-20.99,375.15L-18.52,375.86L-17.28,375.41L-4.94,375.21L-3.7,376.31L-1.23,376.31L0,373.08L1.23,373.02L2.47,371.79L3.7,371.08L4.94,369.26L7.41,366.61L8.64,366.74L11.11,365.71L12.35,362.67L13.58,361.63L14.81,359.5L17.28,353.55L18.52,352.64L20.99,350.19L22.22,346.82L24.69,338.87L25.93,338.03L27.16,334.41L28.4,334.6L30.86,323.74L32.1,315.85L34.57,309.12L35.8,312.03L37.04,311.45L38.27,309.57L39.51,309.57L40.74,313.84L41.98,311.39L43.21,310.67L45.68,313.2L46.91,312.61L48.15,315.52L49.38,325.48L51.85,338.81L53.09,339.32L54.32,338.87L55.56,342.69L56.79,346.82L58.02,342.43L60.49,346.82L61.73,347.02L62.96,348.44L64.2,352.58L69.14,359.89L70.37,359.82L71.6,360.08L72.84,361.96L77.78,367.97L79.01,367.71L83.95,367.97L85.19,367.78L86.42,367.32L87.65,367.71L92.59,366.16L93.83,364.8L100,360.41L101.23,357.62L102.47,355.75L103.7,357.75L104.94,356.4L106.17,356.65L108.64,352.45L109.88,352.26L113.58,354.26L114.81,353.81L116.05,353.87L117.28,355.94L119.75,357.49L120.99,354.26L123.46,354.91L124.69,356.46L125.93,356.46L127.16,357.43L128.4,358.01L129.63,356.33L132.1,356.65L133.33,355.81L134.57,356.46L135.8,356.2L137.04,355.49L138.27,357.24L139.51,358.27L140.74,357.82L141.98,360.15L143.21,360.66L145.68,360.99L146.91,362.02L150.62,360.86L151.85,359.37L154.32,360.66L155.56,360.08L160.49,359.69L161.73,360.6L162.96,360.99L164.2,360.28L166.67,360.21L167.9,361.44L172.84,364.54L174.07,363.51L176.54,362.67L177.78,362.02L180.25,357.95L181.48,357.69L183.95,359.24L185.19,359.63L186.42,360.15L187.65,361.5L188.89,362.73L190.12,362.86L195.06,361.05L196.3,361.18L197.53,360.86L198.77,359.5L204.94,360.47L206.17,359.89L207.41,360.53L208.64,359.89L209.88,360.02L211.11,358.92L217.28,347.02L218.52,346.5L219.75,343.78L220.99,343.59L225.93,349.86L227.16,349.93L228.4,357.37L229.63,358.72L232.1,356.46L233.33,357.88L234.57,356.72L235.8,357.04L237.04,353.03L238.27,353.68L240.74,358.14L241.98,358.53L243.21,359.89L244.44,359.82L249.38,362.15L250.62,362.15L253.09,362.47L254.32,364.35L255.56,362.8L256.79,363.06L261.73,365.77L262.96,364.74L264.2,366.74L265.43,367L269.14,369.46L270.37,369.14L271.6,370.62L272.84,370.75L276.54,372.63L277.78,372.05L282.72,374.37L283.95,372.89L287.65,372.63L288.89,373.66L291.36,372.63L292.59,373.6L296.3,374.24L297.53,373.6L300,375.21L301.23,374.83L311.11,376.83L312.35,377.28L314.81,378L316.05,378.51L320.99,378.97L322.22,378.97L328.4,379.22L329.63,379.29L339.51,379.09L340.74,378.77L345.68,377.22L346.91,376.96L351.85,376.31L353.09,374.96L358.02,373.6L359.26,371.79L364.2,366.68L365.43,366.74L367.9,361.83L369.14,359.56L372.84,359.63L374.07,358.79L375.31,358.08L376.54,358.59L377.78,358.27L379.01,356.98L382.72,355.68L383.95,356.4L388.89,352.19L390.12,352.26L391.36,352.97L392.59,352.06L393.83,353.23L395.06,352.84L397.53,354.07L398.77,354.07L400,354.65L401.23,354.33L402.47,353.03L403.7,354.78L404.94,355.04L406.17,356.33L408.64,356.65L409.88,358.66L411.11,361.12L412.35,360.92L413.58,361.25L414.81,362.99L419.75,366.35L420.99,368.29L422.22,370.49L423.46,370.62L427.16,371.01L428.4,371.2L430.86,371.79L432.1,371.98L437.04,373.73L438.27,373.86L439.51,373.47L440.74,373.92L443.21,374.05L444.44,374.83L450.62,376.31L451.85,376.31L454.32,377.41L455.56,377.41L464.2,378L465.43,377.61L472.84,375.28L474.07,374.63L479.01,372.05L480.25,372.5L482.72,373.6L483.95,374.12L486.42,373.66L487.65,375.21L488.89,374.31L490.12,374.37L492.59,373.02L493.83,373.02L495.06,373.21L496.3,371.4L497.53,371.53L498.77,370.88L500,371.53L501.23,369.26L503.7,369.26L504.94,368.04L507.41,366.03L508.64,363.06L509.88,364.09L511.11,362.22L512.35,362.15L513.58,360.08L514.81,358.46L516.05,355.3L519.75,347.92L520.99,347.6L523.46,340.62L524.69,337.38L525.93,336.74L527.16,334.54L532.1,331.76L533.33,331.95L535.8,326.65L537.04,324.9L538.27,324.97L539.51,321.15L541.98,314.81L543.21,315.39L548.15,310.74L549.38,310.42L550.62,310.42L551.85,304.85L553.09,303.62L554.32,309.12L555.56,308.99L556.79,298.13L560.49,262.69L561.73,249.3L562.96,244.45L564.2,233.91L567.9,170.86L569.14,154.75L571.6,113.3L572.84,108.65L576.54,72.95L577.78,68.1L580.25,49.86L581.48,45.27L582.72,21.21L583.95,14.1L585.19,9.83L586.42,0L587.65,6.66L588.89,3.56L590.12,8.02L591.36,22.05L597.53,80.38L598.77,87.3L601.23,131.73L602.47,149.26L606.17,187.87L607.41,191.94L609.88,224.66L611.11,237.66L613.58,260.49L614.81,268.32L616.05,271.55L617.28,281.51L622.22,313L623.46,315.2L624.69,317.33L625.93,324L627.16,327.23L628.4,328.13L630.86,331.43L632.1,334.47L633.33,334.93L634.57,336.41L640.74,337.96L641.98,337.64L643.21,338.09L644.44,337.51L646.91,338.87L648.15,338.74L649.38,339.45L650.62,338.74L653.09,335.64L654.32,330.85L655.56,329.04L656.79,324.71L658.02,321.41L659.26,320.44L664.2,291.08L665.43,285.32L666.67,283.32L667.9,283.58L670.37,275.43L671.6,272.58L672.84,272.13L674.07,272.65L677.78,269.61L679.01,270.77" style="fill: rgb(8, 115, 191); fill-opacity: 0.2; stroke-width: 0;"/></g></g><g class="errorbars"/><g class="lines"><path class="js-line" d="M-167.9,379.09L-151.85,379.87L-150.62,379.81L-107.41,380L-106.17,380L-58.02,378.64L-56.79,378.32L-53.09,377.93L-51.85,378.19L-44.44,378.12L-43.21,377.35L-33.33,377.35L-32.1,377.28L-27.16,375.15L-25.93,375.41L-22.22,375.73L-20.99,375.15L-18.52,375.86L-17.28,375.41L-4.94,375.21L-3.7,376.31L-1.23,376.31L0,373.08L1.23,373.02L2.47,371.79L3.7,371.08L4.94,369.26L7.41,366.61L8.64,366.74L11.11,365.71L12.35,362.67L13.58,361.63L14.81,359.5L17.28,353.55L18.52,352.64L20.99,350.19L22.22,346.82L24.69,338.87L25.93,338.03L27.16,334.41L28.4,334.6L30.86,323.74L32.1,315.85L34.57,309.12L35.8,312.03L37.04,311.45L38.27,309.57L39.51,309.57L40.74,313.84L41.98,311.39L43.21,310.67L45.68,313.2L46.91,312.61L48.15,315.52L49.38,325.48L51.85,338.81L53.09,339.32L54.32,338.87L55.56,342.69L56.79,346.82L58.02,342.43L60.49,346.82L61.73,347.02L62.96,348.44L64.2,352.58L69.14,359.89L70.37,359.82L71.6,360.08L72.84,361.96L77.78,367.97L79.01,367.71L83.95,367.97L85.19,367.78L86.42,367.32L87.65,367.71L92.59,366.16L93.83,364.8L100,360.41L101.23,357.62L102.47,355.75L103.7,357.75L104.94,356.4L106.17,356.65L108.64,352.45L109.88,352.26L113.58,354.26L114.81,353.81L116.05,353.87L117.28,355.94L119.75,357.49L120.99,354.26L123.46,354.91L124.69,356.46L125.93,356.46L127.16,357.43L128.4,358.01L129.63,356.33L132.1,356.65L133.33,355.81L134.57,356.46L135.8,356.2L137.04,355.49L138.27,357.24L139.51,358.27L140.74,357.82L141.98,360.15L143.21,360.66L145.68,360.99L146.91,362.02L150.62,360.86L151.85,359.37L154.32,360.66L155.56,360.08L160.49,359.69L161.73,360.6L162.96,360.99L164.2,360.28L166.67,360.21L167.9,361.44L172.84,364.54L174.07,363.51L176.54,362.67L177.78,362.02L180.25,357.95L181.48,357.69L183.95,359.24L185.19,359.63L186.42,360.15L187.65,361.5L188.89,362.73L190.12,362.86L195.06,361.05L196.3,361.18L197.53,360.86L198.77,359.5L204.94,360.47L206.17,359.89L207.41,360.53L208.64,359.89L209.88,360.02L211.11,358.92L217.28,347.02L218.52,346.5L219.75,343.78L220.99,343.59L225.93,349.86L227.16,349.93L228.4,357.37L229.63,358.72L232.1,356.46L233.33,357.88L234.57,356.72L235.8,357.04L237.04,353.03L238.27,353.68L240.74,358.14L241.98,358.53L243.21,359.89L244.44,359.82L249.38,362.15L250.62,362.15L253.09,362.47L254.32,364.35L255.56,362.8L256.79,363.06L261.73,365.77L262.96,364.74L264.2,366.74L265.43,367L269.14,369.46L270.37,369.14L271.6,370.62L272.84,370.75L276.54,372.63L277.78,372.05L282.72,374.37L283.95,372.89L287.65,372.63L288.89,373.66L291.36,372.63L292.59,373.6L296.3,374.24L297.53,373.6L300,375.21L301.23,374.83L311.11,376.83L312.35,377.28L314.81,378L316.05,378.51L320.99,378.97L322.22,378.97L328.4,379.22L329.63,379.29L339.51,379.09L340.74,378.77L345.68,377.22L346.91,376.96L351.85,376.31L353.09,374.96L358.02,373.6L359.26,371.79L364.2,366.68L365.43,366.74L367.9,361.83L369.14,359.56L372.84,359.63L374.07,358.79L375.31,358.08L376.54,358.59L377.78,358.27L379.01,356.98L382.72,355.68L383.95,356.4L388.89,352.19L390.12,352.26L391.36,352.97L392.59,352.06L393.83,353.23L395.06,352.84L397.53,354.07L398.77,354.07L400,354.65L401.23,354.33L402.47,353.03L403.7,354.78L404.94,355.04L406.17,356.33L408.64,356.65L409.88,358.66L411.11,361.12L412.35,360.92L413.58,361.25L414.81,362.99L419.75,366.35L420.99,368.29L422.22,370.49L423.46,370.62L427.16,371.01L428.4,371.2L430.86,371.79L432.1,371.98L437.04,373.73L438.27,373.86L439.51,373.47L440.74,373.92L443.21,374.05L444.44,374.83L450.62,376.31L451.85,376.31L454.32,377.41L455.56,377.41L464.2,378L465.43,377.61L472.84,375.28L474.07,374.63L479.01,372.05L480.25,372.5L482.72,373.6L483.95,374.12L486.42,373.66L487.65,375.21L488.89,374.31L490.12,374.37L492.59,373.02L493.83,373.02L495.06,373.21L496.3,371.4L497.53,371.53L498.77,370.88L500,371.53L501.23,369.26L503.7,369.26L504.94,368.04L507.41,366.03L508.64,363.06L509.88,364.09L511.11,362.22L512.35,362.15L513.58,360.08L514.81,358.46L516.05,355.3L519.75,347.92L520.99,347.6L523.46,340.62L524.69,337.38L525.93,336.74L527.16,334.54L532.1,331.76L533.33,331.95L535.8,326.65L537.04,324.9L538.27,324.97L539.51,321.15L541.98,314.81L543.21,315.39L548.15,310.74L549.38,310.42L550.62,310.42L551.85,304.85L553.09,303.62L554.32,309.12L555.56,308.99L556.79,298.13L560.49,262.69L561.73,249.3L562.96,244.45L564.2,233.91L567.9,170.86L569.14,154.75L571.6,113.3L572.84,108.65L576.54,72.95L577.78,68.1L580.25,49.86L581.48,45.27L582.72,21.21L583.95,14.1L585.19,9.83L586.42,0L587.65,6.66L588.89,3.56L590.12,8.02L591.36,22.05L597.53,80.38L598.77,87.3L601.23,131.73L602.47,149.26L606.17,187.87L607.41,191.94L609.88,224.66L611.11,237.66L613.58,260.49L614.81,268.32L616.05,271.55L617.28,281.51L622.22,313L623.46,315.2L624.69,317.33L625.93,324L627.16,327.23L628.4,328.13L630.86,331.43L632.1,334.47L633.33,334.93L634.57,336.41L640.74,337.96L641.98,337.64L643.21,338.09L644.44,337.51L646.91,338.87L648.15,338.74L649.38,339.45L650.62,338.74L653.09,335.64L654.32,330.85L655.56,329.04L656.79,324.71L658.02,321.41L659.26,320.44L664.2,291.08L665.43,285.32L666.67,283.32L667.9,283.58L670.37,275.43L671.6,272.58L672.84,272.13L674.07,272.65L677.78,269.61L679.01,270.77" style="vector-effect: non-scaling-stroke; fill: none; stroke: rgb(8, 115, 191); stroke-opacity: 1; stroke-width: 0.5px; opacity: 1;"/></g><g class="points"/><g class="text"/></g><g class="trace scatter trace20c3c1" style="stroke-miterlimit: 2;"><g class="fills"><g><path class="js-fill" d="M691.36,380L679.01,380L679.01,270.77L683.95,273.62L685.19,275.56L687.65,280.28L688.89,284.42L691.36,284.81" style="fill: rgb(8, 115, 191); fill-opacity: 0.4; stroke-width: 0;"/></g></g><g class="errorbars"/><g class="lines"><path class="js-line" d="M679.01,270.77L683.95,273.62L685.19,275.56L687.65,280.28L688.89,284.42L691.36,284.81" style="vector-effect: non-scaling-stroke; fill: none; stroke: rgb(8, 115, 191); stroke-opacity: 1; stroke-width: 2px; opacity: 1;"/></g><g class="points"/><g class="text"/></g><g class="trace scatter trace469b1b" style="stroke-miterlimit: 2; opacity: 1;"><g class="fills"/><g class="errorbars"/><g class="lines"/><g class="points"><path class="point" transform="translate(691.36,284.81)" d="M15,0A15,15 0 1,1 0,-15A15,15 0 0,1 15,0Z" style="opacity: 1; stroke-width: 0px; fill: rgb(8, 115, 191); fill-opacity: 1;"/></g><g class="text"/></g></g></g><g class="overplot"/><path class="xlines-above crisp" style="fill: none; stroke-width: 1px; stroke: rgb(0, 0, 0); stroke-opacity: 0;" d=""/><path class="ylines-above crisp" style="fill: none;" d="M0,0"/><g class="overlines-above"/><g class="xaxislayer-above"><path class="xtick ticks crisp" d="M0,450v-5" transform="translate(90.74000000000001,0)" style="stroke: rgb(68, 68, 68); stroke-opacity: 1; stroke-width: 1px;"/><path class="xtick ticks crisp" d="M0,450v-5" transform="translate(166.05,0)" style="stroke: rgb(68, 68, 68); stroke-opacity: 1; stroke-width: 1px;"/><path class="xtick ticks crisp" d="M0,450v-5" transform="translate(238.89,0)" style="stroke: rgb(68, 68, 68); stroke-opacity: 1; stroke-width: 1px;"/><path class="xtick ticks crisp" d="M0,450v-5" transform="translate(314.2,0)" style="stroke: rgb(68, 68, 68); stroke-opacity: 1; stroke-width: 1px;"/><path class="xtick ticks crisp" d="M0,450v-5" transform="translate(389.51,0)" style="stroke: rgb(68, 68, 68); stroke-opacity: 1; stroke-width: 1px;"/><path class="xtick ticks crisp" d="M0,450v-5" transform="translate(466.05,0)" style="stroke: rgb(68, 68, 68); stroke-opacity: 1; stroke-width: 1px;"/><path class="xtick ticks crisp" d="M0,450v-5" transform="translate(541.36,0)" style="stroke: rgb(68, 68, 68); stroke-opacity: 1; stroke-width: 1px;"/><path class="xtick ticks crisp" d="M0,450v-5" transform="translate(616.67,0)" style="stroke: rgb(68, 68, 68); stroke-opacity: 1; stroke-width: 1px;"/><path class="xtick ticks crisp" d="M0,450v-5" transform="translate(689.51,0)" style="stroke: rgb(68, 68, 68); stroke-opacity: 1; stroke-width: 1px;"/><g class="xtick"><text text-anchor="middle" x="0" y="469" transform="translate(90.74000000000001,0)" style="font-family: 'Open Sans', verdana, arial, sans-serif; font-size: 18px; fill: rgb(42, 63, 95); fill-opacity: 1; white-space: pre;">01/11</text></g><g class="xtick"><text text-anchor="middle" x="0" y="469" transform="translate(166.05,0)" style="font-family: 'Open Sans', verdana, arial, sans-serif; font-size: 18px; fill: rgb(42, 63, 95); fill-opacity: 1; white-space: pre;">01/01</text></g><g class="xtick"><text text-anchor="middle" x="0" y="469" transform="translate(238.89,0)" style="font-family: 'Open Sans', verdana, arial, sans-serif; font-size: 18px; fill: rgb(42, 63, 95); fill-opacity: 1; white-space: pre;">01/03</text></g><g class="xtick"><text text-anchor="middle" x="0" y="469" transform="translate(314.2,0)" style="font-family: 'Open Sans', verdana, arial, sans-serif; font-size: 18px; fill: rgb(42, 63, 95); fill-opacity: 1; white-space: pre;">01/05</text></g><g class="xtick"><text text-anchor="middle" x="0" y="469" transform="translate(389.51,0)" style="font-family: 'Open Sans', verdana, arial, sans-serif; font-size: 18px; fill: rgb(42, 63, 95); fill-opacity: 1; white-space: pre;">01/07</text></g><g class="xtick"><text text-anchor="middle" x="0" y="469" transform="translate(466.05,0)" style="font-family: 'Open Sans', verdana, arial, sans-serif; font-size: 18px; fill: rgb(42, 63, 95); fill-opacity: 1; white-space: pre;">01/09</text></g><g class="xtick"><text text-anchor="middle" x="0" y="469" transform="translate(541.36,0)" style="font-family: 'Open Sans', verdana, arial, sans-serif; font-size: 18px; fill: rgb(42, 63, 95); fill-opacity: 1; white-space: pre;">01/11</text></g><g class="xtick"><text text-anchor="middle" x="0" y="469" transform="translate(616.67,0)" style="font-family: 'Open Sans', verdana, arial, sans-serif; font-size: 18px; fill: rgb(42, 63, 95); fill-opacity: 1; white-space: pre;">01/01</text></g><g class="xtick"><text text-anchor="middle" x="0" y="469" transform="translate(689.51,0)" style="font-family: 'Open Sans', verdana, arial, sans-serif; font-size: 18px; fill: rgb(42, 63, 95); fill-opacity: 1; white-space: pre;">01/03</text></g></g><g class="yaxislayer-above"/><g class="overaxes-above"/></g></g><g class="polarlayer"/><g class="ternarylayer"/><g class="geolayer"/><g class="funnelarealayer"/><g class="pielayer"/><g class="treemaplayer"/><g class="sunburstlayer"/><g class="glimages"/><defs id="topdefs-0dae96"><g class="clips"/></defs><g class="layer-above"><g class="imagelayer"/><g class="shapelayer"><path data-index="0" fill-rule="evenodd" d="M-643.83,445.42L258.64,445.42" clip-path="url('#clip0dae96xy')" style="opacity: 1; stroke: rgb(255, 0, 0); stroke-opacity: 1; fill: rgb(0, 0, 0); fill-opacity: 0; stroke-dasharray: 3px, 3px; stroke-width: 1.5px;"/></g></g><g class="infolayer"><g class="g-gtitle"><text class="gtitle" x="375" y="25" text-anchor="middle" dy="0.7em" style="font-family: 'Open Sans', verdana, arial, sans-serif; font-size: 50px; fill: rgb(42, 63, 95); opacity: 1; font-weight: normal; white-space: pre;"><tspan style="font-weight:bold">Hautes-Alpes (05)</tspan></text></g><g class="g-xtitle"/><g class="annotation" data-index="0" style="opacity: 1;"><g class="annotation-text-g" transform="rotate(0,699.36,294.81)"><g class="cursor-pointer" transform="translate(627, 259)"><rect class="bg" x="0.5" y="0.5" width="143" height="71" style="stroke-width: 1px; stroke: rgb(0, 0, 0); stroke-opacity: 0; fill: rgb(255, 255, 255); fill-opacity: 0.6;"/><text class="annotation-text" text-anchor="middle" x="72.078125" y="55.5" style="font-family: 'Open Sans', verdana, arial, sans-serif; font-size: 50px; fill: rgb(8, 115, 191); fill-opacity: 1; white-space: pre;"> <tspan style="font-weight:bold">1038 </tspan></text></g></g><g class="annotation-arrow-g" style="opacity: 1;"><path d="M727.76,330.31L739.36,344.81" style="stroke-width: 1px; stroke: rgb(8, 115, 191); stroke-opacity: 1; stroke-dasharray: 0px, 0px, 18.569px, 18.569px;"/></g></g></g></svg>