<svg class="main-svg" xmlns="http://www.w3.org/2000/svg" xmlns:xlink="http://www.w3.org/1999/xlink" width="1125" height="750" style="" viewBox="0 0 750 500"><rect x="0" y="0" width="750" height="500" style="fill: rgb(0, 0, 0); fill-opacity: 0;"/><defs id="defs-dee1e3"><g class="clips"><clipPath id="clipdee1e3xyplot" class="plotclip"><rect width="700" height="380"/></clipPath><clipPath class="axesclip" id="clipdee1e3x"><rect x="50" y="0" width="700" height="500"/></clipPath><clipPath class="axesclip" id="clipdee1e3y"><rect x="0" y="70" width="750" height="380"/></clipPath><clipPath class="axesclip" id="clipdee1e3xy"><rect x="50" y="70" width="700" height="380"/></clipPath></g><g class="gradients"/></defs><g class="bglayer"><rect class="bg" x="50" y="70" width="700" height="380" style="fill: rgb(0, 0, 0); fill-opacity: 0; stroke-width: 0;"/></g><g class="layer-below"><g class="imagelayer"/><g class="shapelayer"/></g><g class="cartesianlayer"><g class="subplot xy"><g class="layer-subplot"><g class="shapelayer"/><g class="imagelayer"/></g><g class="gridlayer"><g class="x"><path class="xgrid crisp" transform="translate(90.31,0)" d="M0,70v380" style="stroke: rgb(255, 255, 255); stroke-opacity: 1; stroke-width: 1px;"/><path class="xgrid crisp" transform="translate(164.82999999999998,0)" d="M0,70v380" style="stroke: rgb(255, 255, 255); stroke-opacity: 1; stroke-width: 1px;"/><path class="xgrid crisp" transform="translate(236.91,0)" d="M0,70v380" style="stroke: rgb(255, 255, 255); stroke-opacity: 1; stroke-width: 1px;"/><path class="xgrid crisp" transform="translate(311.43,0)" d="M0,70v380" style="stroke: rgb(255, 255, 255); stroke-opacity: 1; stroke-width: 1px;"/><path class="xgrid crisp" transform="translate(385.95,0)" d="M0,70v380" style="stroke: rgb(255, 255, 255); stroke-opacity: 1; stroke-width: 1px;"/><path class="xgrid crisp" transform="translate(461.69,0)" d="M0,70v380" style="stroke: rgb(255, 255, 255); stroke-opacity: 1; stroke-width: 1px;"/><path class="xgrid crisp" transform="translate(536.21,0)" d="M0,70v380" style="stroke: rgb(255, 255, 255); stroke-opacity: 1; stroke-width: 1px;"/><path class="xgrid crisp" transform="translate(610.73,0)" d="M0,70v380" style="stroke: rgb(255, 255, 255); stroke-opacity: 1; stroke-width: 1px;"/><path class="xgrid crisp" transform="translate(682.81,0)" d="M0,70v380" style="stroke: rgb(255, 255, 255); stroke-opacity: 1; stroke-width: 1px;"/></g><g class="y"/></g><g class="zerolinelayer"/><path class="xlines-below"/><path class="ylines-below"/><g class="overlines-below"/><g class="xaxislayer-below"/><g class="yaxislayer-below"/><g class="overaxes-below"/><g class="plot" transform="translate(50, 70)" clip-path="url('#clipdee1e3xyplot')"><g class="scatterlayer mlayer"><g class="trace scatter trace61c915" style="stroke-miterlimit: 2;"><g class="fills"><g><path class="js-fill" d="M679.23,380L-166.14,380L-166.14,379.49L-122.16,379.71L-120.94,379.69L-85.51,379.59L-84.29,379.63L-45.2,378.58L-43.98,378.33L-39.09,377.45L-37.87,376.72L-28.1,369.41L-26.88,369.18L-20.77,369.66L-19.55,369.3L-13.44,368.51L-12.22,368.89L-4.89,370.03L-3.66,369.95L-1.22,369.42L0,368.75L2.44,368.51L3.66,367.39L12.22,362.19L13.44,361.21L18.32,355.88L19.55,355.71L23.21,349.19L24.43,345.9L26.88,339.2L28.1,338.89L31.76,327.23L32.98,325.48L36.65,324.06L37.87,321.76L39.09,321.28L40.31,322.4L41.54,323.4L42.76,325.73L43.98,327.35L45.2,327.71L48.87,342.88L50.09,344.03L52.53,346.82L53.75,346.98L56.2,352.26L57.42,350.17L59.86,357.87L61.08,359.24L62.3,359.37L63.53,362.84L65.97,365.88L67.19,366.63L69.63,367.68L70.86,367.74L85.51,367.59L86.74,367.13L92.84,366.71L94.07,365.77L100.17,365.16L101.4,365.55L102.62,368.37L103.84,368.49L107.5,368.05L108.73,367.72L116.06,367.54L117.28,367.72L118.5,366.83L119.72,364.42L130.72,363.95L131.94,363.01L139.27,362.21L140.49,362.67L147.82,363.35L149.04,362.77L158.81,360.35L160.03,359.77L166.14,356.61L167.36,355.24L171.03,350L172.25,349.36L173.47,349.17L174.69,347.56L177.14,345.98L178.36,345.58L184.47,345.65L185.69,346.18L188.13,346L189.35,345.79L190.58,345.9L191.8,344.89L194.24,343.98L195.46,344.28L197.91,344.86L199.13,344.79L206.46,337.07L207.68,336.99L210.12,334.8L211.34,334.65L212.57,332.84L213.79,332.79L216.23,332.03L217.45,332.81L221.12,334.86L222.34,336.29L224.78,337.29L226,346.6L227.23,344.68L228.45,345.39L233.33,346.22L234.55,339.67L235.78,344.06L237,345.07L240.66,347.88L241.88,348.02L247.99,351.19L249.21,351.47L250.44,351.51L251.66,353.29L254.1,354.11L255.32,354.99L256.54,355.57L257.77,358.08L261.43,358.7L262.65,359.46L268.76,360.8L269.98,361.85L271.2,361.99L272.43,364.79L273.65,365.01L274.87,364.14L278.53,364.61L279.76,365.25L280.98,363.89L282.2,364.58L284.64,364.85L285.86,368.25L289.53,368.97L290.75,369.42L293.19,369.75L294.42,368.23L296.86,370.78L298.08,371.61L300.52,373.01L301.75,373.12L304.19,374.53L305.41,375.03L312.74,377.66L313.96,377.81L321.29,378.31L322.51,378.41L344.5,378.86L345.72,378.65L350.61,377.61L351.83,377.22L353.05,377.18L354.28,376.35L359.16,374.14L360.38,373.95L378.71,371.04L379.93,370.27L387.26,369.17L388.48,369.48L393.37,369.5L394.59,369.85L404.36,371.08L405.58,371.46L420.24,374.99L421.47,375.09L427.57,376.91L428.8,377.05L438.57,377.83L439.79,377.92L447.12,378.32L448.34,378.23L464.22,377.32L465.45,377.34L475.22,376.95L476.44,376.99L484.99,375.58L486.21,375.25L489.88,374.63L491.1,373.25L493.54,372.14L494.76,372.77L497.21,370.96L498.43,370.86L502.09,367.8L503.32,365.02L506.98,362.63L508.2,360.3L514.31,352.35L515.53,352.05L520.42,345.1L521.64,344.24L524.08,343.36L525.31,340.36L527.75,338.8L528.97,338.81L531.41,338.19L532.64,338.05L538.74,341.7L539.97,342.64L541.19,343.05L542.41,346.06L543.63,348.16L544.85,348.24L547.29,347.84L548.52,350.43L549.74,349.34L550.96,340.22L555.85,293.76L557.07,292L558.29,288.96L559.51,263.68L561.95,236.47L563.18,231.65L564.4,220.99L565.62,203.33L566.84,202.04L568.06,197.24L569.28,195.43L570.51,184.37L575.39,141.59L576.61,114.14L581.5,34.26L582.72,24.03L583.94,21.42L585.17,4.1L586.39,0L587.61,0.06L590.05,6.02L591.27,9.83L592.5,11.65L593.72,27.34L598.6,98.29L599.83,114.81L601.05,121.42L602.27,160.74L605.93,224.52L607.16,239.04L608.38,248.8L609.6,250.68L612.04,270.54L613.26,277.87L616.93,292.02L618.15,292.7L620.59,301.82L621.82,304.98L626.7,314.61L627.92,317.2L630.37,317.13L631.59,316.08L635.25,312.97L636.47,308.28L638.92,300.12L640.14,295.41L642.58,285.3L643.8,284.08L646.25,269.36L647.47,265.16L651.13,255.92L652.36,255.34L659.69,212.21L660.91,211.52L663.35,201.37L664.57,198.6L665.79,200.68L667.02,205.61L668.24,207.92L669.46,208.46L674.35,223.77L675.57,223.71L678.01,227.8L679.23,238.95" style="fill: rgb(8, 115, 191); fill-opacity: 0.2; stroke-width: 0;"/></g></g><g class="errorbars"/><g class="lines"><path class="js-line" d="M-166.14,379.49L-122.16,379.71L-120.94,379.69L-85.51,379.59L-84.29,379.63L-45.2,378.58L-43.98,378.33L-39.09,377.45L-37.87,376.72L-28.1,369.41L-26.88,369.18L-20.77,369.66L-19.55,369.3L-13.44,368.51L-12.22,368.89L-4.89,370.03L-3.66,369.95L-1.22,369.42L0,368.75L2.44,368.51L3.66,367.39L12.22,362.19L13.44,361.21L18.32,355.88L19.55,355.71L23.21,349.19L24.43,345.9L26.88,339.2L28.1,338.89L31.76,327.23L32.98,325.48L36.65,324.06L37.87,321.76L39.09,321.28L40.31,322.4L41.54,323.4L42.76,325.73L43.98,327.35L45.2,327.71L48.87,342.88L50.09,344.03L52.53,346.82L53.75,346.98L56.2,352.26L57.42,350.17L59.86,357.87L61.08,359.24L62.3,359.37L63.53,362.84L65.97,365.88L67.19,366.63L69.63,367.68L70.86,367.74L85.51,367.59L86.74,367.13L92.84,366.71L94.07,365.77L100.17,365.16L101.4,365.55L102.62,368.37L103.84,368.49L107.5,368.05L108.73,367.72L116.06,367.54L117.28,367.72L118.5,366.83L119.72,364.42L130.72,363.95L131.94,363.01L139.27,362.21L140.49,362.67L147.82,363.35L149.04,362.77L158.81,360.35L160.03,359.77L166.14,356.61L167.36,355.24L171.03,350L172.25,349.36L173.47,349.17L174.69,347.56L177.14,345.98L178.36,345.58L184.47,345.65L185.69,346.18L188.13,346L189.35,345.79L190.58,345.9L191.8,344.89L194.24,343.98L195.46,344.28L197.91,344.86L199.13,344.79L206.46,337.07L207.68,336.99L210.12,334.8L211.34,334.65L212.57,332.84L213.79,332.79L216.23,332.03L217.45,332.81L221.12,334.86L222.34,336.29L224.78,337.29L226,346.6L227.23,344.68L228.45,345.39L233.33,346.22L234.55,339.67L235.78,344.06L237,345.07L240.66,347.88L241.88,348.02L247.99,351.19L249.21,351.47L250.44,351.51L251.66,353.29L254.1,354.11L255.32,354.99L256.54,355.57L257.77,358.08L261.43,358.7L262.65,359.46L268.76,360.8L269.98,361.85L271.2,361.99L272.43,364.79L273.65,365.01L274.87,364.14L278.53,364.61L279.76,365.25L280.98,363.89L282.2,364.58L284.64,364.85L285.86,368.25L289.53,368.97L290.75,369.42L293.19,369.75L294.42,368.23L296.86,370.78L298.08,371.61L300.52,373.01L301.75,373.12L304.19,374.53L305.41,375.03L312.74,377.66L313.96,377.81L321.29,378.31L322.51,378.41L344.5,378.86L345.72,378.65L350.61,377.61L351.83,377.22L353.05,377.18L354.28,376.35L359.16,374.14L360.38,373.95L378.71,371.04L379.93,370.27L387.26,369.17L388.48,369.48L393.37,369.5L394.59,369.85L404.36,371.08L405.58,371.46L420.24,374.99L421.47,375.09L427.57,376.91L428.8,377.05L438.57,377.83L439.79,377.92L447.12,378.32L448.34,378.23L464.22,377.32L465.45,377.34L475.22,376.95L476.44,376.99L484.99,375.58L486.21,375.25L489.88,374.63L491.1,373.25L493.54,372.14L494.76,372.77L497.21,370.96L498.43,370.86L502.09,367.8L503.32,365.02L506.98,362.63L508.2,360.3L514.31,352.35L515.53,352.05L520.42,345.1L521.64,344.24L524.08,343.36L525.31,340.36L527.75,338.8L528.97,338.81L531.41,338.19L532.64,338.05L538.74,341.7L539.97,342.64L541.19,343.05L542.41,346.06L543.63,348.16L544.85,348.24L547.29,347.84L548.52,350.43L549.74,349.34L550.96,340.22L555.85,293.76L557.07,292L558.29,288.96L559.51,263.68L561.95,236.47L563.18,231.65L564.4,220.99L565.62,203.33L566.84,202.04L568.06,197.24L569.28,195.43L570.51,184.37L575.39,141.59L576.61,114.14L581.5,34.26L582.72,24.03L583.94,21.42L585.17,4.1L586.39,0L587.61,0.06L590.05,6.02L591.27,9.83L592.5,11.65L593.72,27.34L598.6,98.29L599.83,114.81L601.05,121.42L602.27,160.74L605.93,224.52L607.16,239.04L608.38,248.8L609.6,250.68L612.04,270.54L613.26,277.87L616.93,292.02L618.15,292.7L620.59,301.82L621.82,304.98L626.7,314.61L627.92,317.2L630.37,317.13L631.59,316.08L635.25,312.97L636.47,308.28L638.92,300.12L640.14,295.41L642.58,285.3L643.8,284.08L646.25,269.36L647.47,265.16L651.13,255.92L652.36,255.34L659.69,212.21L660.91,211.52L663.35,201.37L664.57,198.6L665.79,200.68L667.02,205.61L668.24,207.92L669.46,208.46L674.35,223.77L675.57,223.71L678.01,227.8L679.23,238.95" style="vector-effect: non-scaling-stroke; fill: none; stroke: rgb(8, 115, 191); stroke-opacity: 1; stroke-width: 0.5px; opacity: 1;"/></g><g class="points"/><g class="text"/></g><g class="trace scatter trace95259f" style="stroke-miterlimit: 2;"><g class="fills"><g><path class="js-fill" d="M691.45,380L679.23,380L679.23,238.95L685.34,269.69L686.56,270.27L687.78,293.74L689.01,290.72L691.45,301.05" style="fill: rgb(8, 115, 191); fill-opacity: 0.4; stroke-width: 0;"/></g></g><g class="errorbars"/><g class="lines"><path class="js-line" d="M679.23,238.95L685.34,269.69L686.56,270.27L687.78,293.74L689.01,290.72L691.45,301.05" style="vector-effect: non-scaling-stroke; fill: none; stroke: rgb(8, 115, 191); stroke-opacity: 1; stroke-width: 2px; opacity: 1;"/></g><g class="points"/><g class="text"/></g><g class="trace scatter tracea21072" style="stroke-miterlimit: 2; opacity: 1;"><g class="fills"/><g class="errorbars"/><g class="lines"/><g class="points"><path class="point" transform="translate(691.45,301.05)" d="M15,0A15,15 0 1,1 0,-15A15,15 0 0,1 15,0Z" style="opacity: 1; stroke-width: 0px; fill: rgb(8, 115, 191); fill-opacity: 1;"/></g><g class="text"/></g></g></g><g class="overplot"/><path class="xlines-above crisp" style="fill: none; stroke-width: 1px; stroke: rgb(0, 0, 0); stroke-opacity: 0;" d=""/><path class="ylines-above crisp" style="fill: none;" d="M0,0"/><g class="overlines-above"/><g class="xaxislayer-above"><path class="xtick ticks crisp" d="M0,450v-5" transform="translate(90.31,0)" style="stroke: rgb(68, 68, 68); stroke-opacity: 1; stroke-width: 1px;"/><path class="xtick ticks crisp" d="M0,450v-5" transform="translate(164.82999999999998,0)" style="stroke: rgb(68, 68, 68); stroke-opacity: 1; stroke-width: 1px;"/><path class="xtick ticks crisp" d="M0,450v-5" transform="translate(236.91,0)" style="stroke: rgb(68, 68, 68); stroke-opacity: 1; stroke-width: 1px;"/><path class="xtick ticks crisp" d="M0,450v-5" transform="translate(311.43,0)" style="stroke: rgb(68, 68, 68); stroke-opacity: 1; stroke-width: 1px;"/><path class="xtick ticks crisp" d="M0,450v-5" transform="translate(385.95,0)" style="stroke: rgb(68, 68, 68); stroke-opacity: 1; stroke-width: 1px;"/><path class="xtick ticks crisp" d="M0,450v-5" transform="translate(461.69,0)" style="stroke: rgb(68, 68, 68); stroke-opacity: 1; stroke-width: 1px;"/><path class="xtick ticks crisp" d="M0,450v-5" transform="translate(536.21,0)" style="stroke: rgb(68, 68, 68); stroke-opacity: 1; stroke-width: 1px;"/><path class="xtick ticks crisp" d="M0,450v-5" transform="translate(610.73,0)" style="stroke: rgb(68, 68, 68); stroke-opacity: 1; stroke-width: 1px;"/><path class="xtick ticks crisp" d="M0,450v-5" transform="translate(682.81,0)" style="stroke: rgb(68, 68, 68); stroke-opacity: 1; stroke-width: 1px;"/><g class="xtick"><text text-anchor="middle" x="0" y="469" transform="translate(90.31,0)" style="font-family: 'Open Sans', verdana, arial, sans-serif; font-size: 18px; fill: rgb(42, 63, 95); fill-opacity: 1; white-space: pre;">01/11</text></g><g class="xtick"><text text-anchor="middle" x="0" y="469" transform="translate(164.82999999999998,0)" style="font-family: 'Open Sans', verdana, arial, sans-serif; font-size: 18px; fill: rgb(42, 63, 95); fill-opacity: 1; white-space: pre;">01/01</text></g><g class="xtick"><text text-anchor="middle" x="0" y="469" transform="translate(236.91,0)" style="font-family: 'Open Sans', verdana, arial, sans-serif; font-size: 18px; fill: rgb(42, 63, 95); fill-opacity: 1; white-space: pre;">01/03</text></g><g class="xtick"><text text-anchor="middle" x="0" y="469" transform="translate(311.43,0)" style="font-family: 'Open Sans', verdana, arial, sans-serif; font-size: 18px; fill: rgb(42, 63, 95); fill-opacity: 1; white-space: pre;">01/05</text></g><g class="xtick"><text text-anchor="middle" x="0" y="469" transform="translate(385.95,0)" style="font-family: 'Open Sans', verdana, arial, sans-serif; font-size: 18px; fill: rgb(42, 63, 95); fill-opacity: 1; white-space: pre;">01/07</text></g><g class="xtick"><text text-anchor="middle" x="0" y="469" transform="translate(461.69,0)" style="font-family: 'Open Sans', verdana, arial, sans-serif; font-size: 18px; fill: rgb(42, 63, 95); fill-opacity: 1; white-space: pre;">01/09</text></g><g class="xtick"><text text-anchor="middle" x="0" y="469" transform="translate(536.21,0)" style="font-family: 'Open Sans', verdana, arial, sans-serif; font-size: 18px; fill: rgb(42, 63, 95); fill-opacity: 1; white-space: pre;">01/11</text></g><g class="xtick"><text text-anchor="middle" x="0" y="469" transform="translate(610.73,0)" style="font-family: 'Open Sans', verdana, arial, sans-serif; font-size: 18px; fill: rgb(42, 63, 95); fill-opacity: 1; white-space: pre;">01/01</text></g><g class="xtick"><text text-anchor="middle" x="0" y="469" transform="translate(682.81,0)" style="font-family: 'Open Sans', verdana, arial, sans-serif; font-size: 18px; fill: rgb(42, 63, 95); fill-opacity: 1; white-space: pre;">01/03</text></g></g><g class="yaxislayer-above"/><g class="overaxes-above"/></g></g><g class="polarlayer"/><g class="ternarylayer"/><g class="geolayer"/><g class="funnelarealayer"/><g class="pielayer"/><g class="treemaplayer"/><g class="sunburstlayer"/><g class="glimages"/><defs id="topdefs-dee1e3"><g class="clips"/></defs><g class="layer-above"><g class="imagelayer"/><g class="shapelayer"><path data-index="0" fill-rule="evenodd" d="M-636.56,445.14L256.46000000000004,445.14" clip-path="url('#clipdee1e3xy')" style="opacity: 1; stroke: rgb(255, 0, 0); stroke-opacity: 1; fill: rgb(0, 0, 0); fill-opacity: 0; stroke-dasharray: 3px, 3px; stroke-width: 1.5px;"/></g></g><g class="infolayer"><g class="g-gtitle"><text class="gtitle" x="375" y="25" text-anchor="middle" dy="0.7em" style="font-family: 'Open Sans', verdana, arial, sans-serif; font-size: 50px; fill: rgb(42, 63, 95); opacity: 1; font-weight: normal; white-space: pre;"><tspan style="font-weight:bold">Pas-de-Calais (62)</tspan></text></g><g class="g-xtitle"/><g class="annotation" data-index="0" style="opacity: 1;"><g class="annotation-text-g" transform="rotate(0,699.45,311.05)"><g class="cursor-pointer" transform="translate(641, 275)"><rect class="bg" x="0.5" y="0.5" width="115" height="71" style="stroke-width: 1px; stroke: rgb(0, 0, 0); stroke-opacity: 0; fill: rgb(255, 255, 255); fill-opacity: 0.6;"/><text class="annotation-text" text-anchor="middle" x="57.8125" y="55.5" style="font-family: 'Open Sans', verdana, arial, sans-serif; font-size: 50px; fill: rgb(8, 115, 191); fill-opacity: 1; white-space: pre;"> <tspan style="font-weight:bold">811 </tspan></text></g></g><g class="annotation-arrow-g" style="opacity: 1;"><path d="M727.85,346.55L739.45,361.05" style="stroke-width: 1px; stroke: rgb(8, 115, 191); stroke-opacity: 1; stroke-dasharray: 0px, 0px, 18.5691px, 18.5691px;"/></g></g></g></svg>