<svg class="main-svg" xmlns="http://www.w3.org/2000/svg" xmlns:xlink="http://www.w3.org/1999/xlink" width="1125" height="750" style="" viewBox="0 0 750 500"><rect x="0" y="0" width="750" height="500" style="fill: rgb(0, 0, 0); fill-opacity: 0;"/><defs id="defs-590cb5"><g class="clips"><clipPath id="clip590cb5xyplot" class="plotclip"><rect width="700" height="380"/></clipPath><clipPath class="axesclip" id="clip590cb5x"><rect x="50" y="0" width="700" height="500"/></clipPath><clipPath class="axesclip" id="clip590cb5y"><rect x="0" y="70" width="750" height="380"/></clipPath><clipPath class="axesclip" id="clip590cb5xy"><rect x="50" y="70" width="700" height="380"/></clipPath></g><g class="gradients"/></defs><g class="bglayer"><rect class="bg" x="50" y="70" width="700" height="380" style="fill: rgb(0, 0, 0); fill-opacity: 0; stroke-width: 0;"/></g><g class="layer-below"><g class="imagelayer"/><g class="shapelayer"/></g><g class="cartesianlayer"><g class="subplot xy"><g class="layer-subplot"><g class="shapelayer"/><g class="imagelayer"/></g><g class="gridlayer"><g class="x"><path class="xgrid crisp" transform="translate(91.47,0)" d="M0,70v380" style="stroke: rgb(255, 255, 255); stroke-opacity: 1; stroke-width: 1px;"/><path class="xgrid crisp" transform="translate(168.13,0)" d="M0,70v380" style="stroke: rgb(255, 255, 255); stroke-opacity: 1; stroke-width: 1px;"/><path class="xgrid crisp" transform="translate(242.28,0)" d="M0,70v380" style="stroke: rgb(255, 255, 255); stroke-opacity: 1; stroke-width: 1px;"/><path class="xgrid crisp" transform="translate(318.94,0)" d="M0,70v380" style="stroke: rgb(255, 255, 255); stroke-opacity: 1; stroke-width: 1px;"/><path class="xgrid crisp" transform="translate(395.6,0)" d="M0,70v380" style="stroke: rgb(255, 255, 255); stroke-opacity: 1; stroke-width: 1px;"/><path class="xgrid crisp" transform="translate(473.52,0)" d="M0,70v380" style="stroke: rgb(255, 255, 255); stroke-opacity: 1; stroke-width: 1px;"/><path class="xgrid crisp" transform="translate(550.1800000000001,0)" d="M0,70v380" style="stroke: rgb(255, 255, 255); stroke-opacity: 1; stroke-width: 1px;"/><path class="xgrid crisp" transform="translate(626.84,0)" d="M0,70v380" style="stroke: rgb(255, 255, 255); stroke-opacity: 1; stroke-width: 1px;"/><path class="xgrid crisp" transform="translate(700.99,0)" d="M0,70v380" style="stroke: rgb(255, 255, 255); stroke-opacity: 1; stroke-width: 1px;"/></g><g class="y"/></g><g class="zerolinelayer"/><path class="xlines-below"/><path class="ylines-below"/><g class="overlines-below"/><g class="xaxislayer-below"/><g class="yaxislayer-below"/><g class="overaxes-below"/><g class="plot" transform="translate(50, 70)" clip-path="url('#clip590cb5xyplot')"><g class="scatterlayer mlayer"><g class="trace scatter trace0c25de" style="stroke-miterlimit: 2;"><g class="fills"><g><path class="js-fill" d="M678.64,380L-170.92,380L-170.92,379.89L-99.28,378.32L-98.03,377.83L-80.43,379.61L-79.17,379.62L-57.81,378.15L-56.55,377.89L-49.01,377.85L-47.76,377.84L-33.93,377.17L-32.68,377.09L-28.9,376.94L-27.65,376.82L-22.62,377.05L-21.36,376.65L-16.34,376.15L-15.08,376L-7.54,375.95L-6.28,376.03L2.51,375.71L3.77,375.45L6.28,374.41L7.54,374.22L10.05,373.3L11.31,373.39L13.82,372.49L15.08,372L17.59,370.66L18.85,370.3L21.36,369.33L22.62,367.98L27.65,363.43L28.9,363.22L32.68,358.67L33.93,357.94L37.7,357.19L38.96,355.86L40.22,355.78L41.47,356.6L46.5,359.54L47.76,362.01L52.78,369.48L54.04,369.86L55.3,369.96L56.55,371.94L57.81,373.25L59.07,373.1L61.58,375.32L62.84,375.65L64.09,375.68L65.35,376.5L70.38,377.63L71.63,377.87L79.17,377.4L80.43,377.08L86.71,377.09L87.97,376.75L93,375.91L94.25,375.44L98.03,375.3L99.28,375.52L104.31,375.47L105.57,376.07L115.62,374.85L116.88,374.9L121.9,373.52L123.16,371.96L128.19,372.42L129.44,372.78L135.73,372.77L136.98,372.38L140.75,371.84L142.01,371.59L149.55,371.68L150.81,372.1L152.06,372.14L153.32,373L155.83,373.06L157.09,373.67L165.89,375.83L167.15,375.92L172.17,375.34L173.43,374.54L178.46,373.72L179.71,373.71L184.74,373.91L186,374.03L194.79,373.99L196.05,373.87L204.85,372.15L206.1,372.03L207.36,372.26L208.62,371.63L219.93,370.38L221.18,369.99L228.73,369.76L229.98,370L231.24,370.02L232.5,371.88L233.75,371.12L235.01,371.24L240.04,371.13L241.29,369.07L252.6,370.54L253.86,370.39L256.37,369.9L257.63,369.87L272.71,372.94L273.97,373L281.51,372.67L282.76,372.37L287.79,372.27L289.05,371.51L290.31,372.3L291.56,372.16L292.82,372.12L294.08,373.83L300.36,373.02L301.62,372.98L302.87,371.86L304.13,372.47L321.72,376.51L322.98,376.93L345.6,377.84L346.86,377.79L350.63,377.25L351.89,376.75L358.17,375.63L359.43,374.94L364.45,372.93L365.71,372.49L368.22,370.61L369.48,370.26L374.51,369.05L375.76,369.48L379.53,370.57L380.79,370.43L383.3,370.68L384.56,369.86L392.1,367.74L393.36,367.75L397.13,367.16L398.38,367.19L402.15,366.89L403.41,367.31L407.18,367.2L408.44,366.68L414.72,366.84L415.98,367.11L418.49,369.63L419.75,370.58L424.78,372.78L426.03,373.14L428.55,374.16L429.8,373.71L434.83,374.16L436.09,374.45L437.34,374.58L438.6,375.63L444.88,377.21L446.14,377.18L453.68,377.97L454.94,378.34L461.22,378.55L462.48,378.58L470.02,377.6L471.27,377.2L475.04,376.94L476.3,377.06L483.84,376.48L485.1,376.22L493.9,375.83L495.15,375.83L496.41,376.47L497.67,375.84L503.95,374.18L505.21,372.1L507.72,371.04L508.98,371.86L516.52,367.2L517.77,364.92L521.54,364.3L522.8,364.38L525.31,363.4L526.57,362.18L529.08,360.76L530.34,360.65L534.11,355.23L535.37,354.04L537.88,351.3L539.14,351.27L540.39,350.07L541.65,350.94L544.17,350.99L545.42,352.25L547.94,352.35L549.19,352.28L551.71,351.45L552.96,352.33L554.22,351.8L555.48,352.51L556.73,352.66L557.99,352.04L559.25,350.59L560.5,347.03L563.02,338.38L564.27,339.49L565.53,337.59L566.79,319.29L571.81,258.6L573.07,257.77L574.33,254.17L575.58,223.58L578.1,193.01L579.35,188.07L581.87,157.64L583.12,155.45L584.38,160.46L585.64,161.42L586.89,158.59L588.15,151.18L590.66,140.42L591.92,138.96L598.2,74.92L599.46,65.1L600.72,62.34L601.97,45.56L605.75,18.61L607,10.91L610.77,0L612.03,5.93L614.54,24.37L615.8,40.14L618.31,59.89L619.57,93.96L623.34,166.35L624.6,183.39L625.85,192.84L627.11,195.35L629.62,223.4L630.88,232.24L633.39,243.7L634.65,247.06L635.91,247.73L637.16,253.53L643.45,269.25L644.7,270.93L647.22,271.74L648.47,270.84L649.73,269.54L650.99,266.87L653.5,264.45L654.76,258.52L657.27,247.56L658.53,240.35L661.04,228.04L662.3,226.68L664.81,209.32L666.07,203.51L669.84,188.71L671.1,187.95L674.87,153.96L676.12,145.99L678.64,137.42" style="fill: rgb(8, 115, 191); fill-opacity: 0.2; stroke-width: 0;"/></g></g><g class="errorbars"/><g class="lines"><path class="js-line" d="M-170.92,379.89L-99.28,378.32L-98.03,377.83L-80.43,379.61L-79.17,379.62L-57.81,378.15L-56.55,377.89L-49.01,377.85L-47.76,377.84L-33.93,377.17L-32.68,377.09L-28.9,376.94L-27.65,376.82L-22.62,377.05L-21.36,376.65L-16.34,376.15L-15.08,376L-7.54,375.95L-6.28,376.03L2.51,375.71L3.77,375.45L6.28,374.41L7.54,374.22L10.05,373.3L11.31,373.39L13.82,372.49L15.08,372L17.59,370.66L18.85,370.3L21.36,369.33L22.62,367.98L27.65,363.43L28.9,363.22L32.68,358.67L33.93,357.94L37.7,357.19L38.96,355.86L40.22,355.78L41.47,356.6L46.5,359.54L47.76,362.01L52.78,369.48L54.04,369.86L55.3,369.96L56.55,371.94L57.81,373.25L59.07,373.1L61.58,375.32L62.84,375.65L64.09,375.68L65.35,376.5L70.38,377.63L71.63,377.87L79.17,377.4L80.43,377.08L86.71,377.09L87.97,376.75L93,375.91L94.25,375.44L98.03,375.3L99.28,375.52L104.31,375.47L105.57,376.07L115.62,374.85L116.88,374.9L121.9,373.52L123.16,371.96L128.19,372.42L129.44,372.78L135.73,372.77L136.98,372.38L140.75,371.84L142.01,371.59L149.55,371.68L150.81,372.1L152.06,372.14L153.32,373L155.83,373.06L157.09,373.67L165.89,375.83L167.15,375.92L172.17,375.34L173.43,374.54L178.46,373.72L179.71,373.71L184.74,373.91L186,374.03L194.79,373.99L196.05,373.87L204.85,372.15L206.1,372.03L207.36,372.26L208.62,371.63L219.93,370.38L221.18,369.99L228.73,369.76L229.98,370L231.24,370.02L232.5,371.88L233.75,371.12L235.01,371.24L240.04,371.13L241.29,369.07L252.6,370.54L253.86,370.39L256.37,369.9L257.63,369.87L272.71,372.94L273.97,373L281.51,372.67L282.76,372.37L287.79,372.27L289.05,371.51L290.31,372.3L291.56,372.16L292.82,372.12L294.08,373.83L300.36,373.02L301.62,372.98L302.87,371.86L304.13,372.47L321.72,376.51L322.98,376.93L345.6,377.84L346.86,377.79L350.63,377.25L351.89,376.75L358.17,375.63L359.43,374.94L364.45,372.93L365.71,372.49L368.22,370.61L369.48,370.26L374.51,369.05L375.76,369.48L379.53,370.57L380.79,370.43L383.3,370.68L384.56,369.86L392.1,367.74L393.36,367.75L397.13,367.16L398.38,367.19L402.15,366.89L403.41,367.31L407.18,367.2L408.44,366.68L414.72,366.84L415.98,367.11L418.49,369.63L419.75,370.58L424.78,372.78L426.03,373.14L428.55,374.16L429.8,373.71L434.83,374.16L436.09,374.45L437.34,374.58L438.6,375.63L444.88,377.21L446.14,377.18L453.68,377.97L454.94,378.34L461.22,378.55L462.48,378.58L470.02,377.6L471.27,377.2L475.04,376.94L476.3,377.06L483.84,376.48L485.1,376.22L493.9,375.83L495.15,375.83L496.41,376.47L497.67,375.84L503.95,374.18L505.21,372.1L507.72,371.04L508.98,371.86L516.52,367.2L517.77,364.92L521.54,364.3L522.8,364.38L525.31,363.4L526.57,362.18L529.08,360.76L530.34,360.65L534.11,355.23L535.37,354.04L537.88,351.3L539.14,351.27L540.39,350.07L541.65,350.94L544.17,350.99L545.42,352.25L547.94,352.35L549.19,352.28L551.71,351.45L552.96,352.33L554.22,351.8L555.48,352.51L556.73,352.66L557.99,352.04L559.25,350.59L560.5,347.03L563.02,338.38L564.27,339.49L565.53,337.59L566.79,319.29L571.81,258.6L573.07,257.77L574.33,254.17L575.58,223.58L578.1,193.01L579.35,188.07L581.87,157.64L583.12,155.45L584.38,160.46L585.64,161.42L586.89,158.59L588.15,151.18L590.66,140.42L591.92,138.96L598.2,74.92L599.46,65.1L600.72,62.34L601.97,45.56L605.75,18.61L607,10.91L610.77,0L612.03,5.93L614.54,24.37L615.8,40.14L618.31,59.89L619.57,93.96L623.34,166.35L624.6,183.39L625.85,192.84L627.11,195.35L629.62,223.4L630.88,232.24L633.39,243.7L634.65,247.06L635.91,247.73L637.16,253.53L643.45,269.25L644.7,270.93L647.22,271.74L648.47,270.84L649.73,269.54L650.99,266.87L653.5,264.45L654.76,258.52L657.27,247.56L658.53,240.35L661.04,228.04L662.3,226.68L664.81,209.32L666.07,203.51L669.84,188.71L671.1,187.95L674.87,153.96L676.12,145.99L678.64,137.42" style="vector-effect: non-scaling-stroke; fill: none; stroke: rgb(8, 115, 191); stroke-opacity: 1; stroke-width: 0.5px; opacity: 1;"/></g><g class="points"/><g class="text"/></g><g class="trace scatter trace351347" style="stroke-miterlimit: 2;"><g class="fills"><g><path class="js-fill" d="M691.2,380L678.64,380L678.64,137.42L679.89,138.21L681.15,136.17L682.41,137.67L683.66,140.88L684.92,144.78L686.18,152.23L687.43,156.78L688.69,157.73L691.2,174.32" style="fill: rgb(8, 115, 191); fill-opacity: 0.4; stroke-width: 0;"/></g></g><g class="errorbars"/><g class="lines"><path class="js-line" d="M678.64,137.42L679.89,138.21L681.15,136.17L682.41,137.67L683.66,140.88L684.92,144.78L686.18,152.23L687.43,156.78L688.69,157.73L691.2,174.32" style="vector-effect: non-scaling-stroke; fill: none; stroke: rgb(8, 115, 191); stroke-opacity: 1; stroke-width: 2px; opacity: 1;"/></g><g class="points"/><g class="text"/></g><g class="trace scatter trace94e401" style="stroke-miterlimit: 2; opacity: 1;"><g class="fills"/><g class="errorbars"/><g class="lines"/><g class="points"><path class="point" transform="translate(691.2,174.32)" d="M15,0A15,15 0 1,1 0,-15A15,15 0 0,1 15,0Z" style="opacity: 1; stroke-width: 0px; fill: rgb(8, 115, 191); fill-opacity: 1;"/></g><g class="text"/></g></g></g><g class="overplot"/><path class="xlines-above crisp" style="fill: none; stroke-width: 1px; stroke: rgb(0, 0, 0); stroke-opacity: 0;" d=""/><path class="ylines-above crisp" style="fill: none;" d="M0,0"/><g class="overlines-above"/><g class="xaxislayer-above"><path class="xtick ticks crisp" d="M0,450v-5" transform="translate(91.47,0)" style="stroke: rgb(68, 68, 68); stroke-opacity: 1; stroke-width: 1px;"/><path class="xtick ticks crisp" d="M0,450v-5" transform="translate(168.13,0)" style="stroke: rgb(68, 68, 68); stroke-opacity: 1; stroke-width: 1px;"/><path class="xtick ticks crisp" d="M0,450v-5" transform="translate(242.28,0)" style="stroke: rgb(68, 68, 68); stroke-opacity: 1; stroke-width: 1px;"/><path class="xtick ticks crisp" d="M0,450v-5" transform="translate(318.94,0)" style="stroke: rgb(68, 68, 68); stroke-opacity: 1; stroke-width: 1px;"/><path class="xtick ticks crisp" d="M0,450v-5" transform="translate(395.6,0)" style="stroke: rgb(68, 68, 68); stroke-opacity: 1; stroke-width: 1px;"/><path class="xtick ticks crisp" d="M0,450v-5" transform="translate(473.52,0)" style="stroke: rgb(68, 68, 68); stroke-opacity: 1; stroke-width: 1px;"/><path class="xtick ticks crisp" d="M0,450v-5" transform="translate(550.1800000000001,0)" style="stroke: rgb(68, 68, 68); stroke-opacity: 1; stroke-width: 1px;"/><path class="xtick ticks crisp" d="M0,450v-5" transform="translate(626.84,0)" style="stroke: rgb(68, 68, 68); stroke-opacity: 1; stroke-width: 1px;"/><path class="xtick ticks crisp" d="M0,450v-5" transform="translate(700.99,0)" style="stroke: rgb(68, 68, 68); stroke-opacity: 1; stroke-width: 1px;"/><g class="xtick"><text text-anchor="middle" x="0" y="469" transform="translate(91.47,0)" style="font-family: 'Open Sans', verdana, arial, sans-serif; font-size: 18px; fill: rgb(42, 63, 95); fill-opacity: 1; white-space: pre;">01/11</text></g><g class="xtick"><text text-anchor="middle" x="0" y="469" transform="translate(168.13,0)" style="font-family: 'Open Sans', verdana, arial, sans-serif; font-size: 18px; fill: rgb(42, 63, 95); fill-opacity: 1; white-space: pre;">01/01</text></g><g class="xtick"><text text-anchor="middle" x="0" y="469" transform="translate(242.28,0)" style="font-family: 'Open Sans', verdana, arial, sans-serif; font-size: 18px; fill: rgb(42, 63, 95); fill-opacity: 1; white-space: pre;">01/03</text></g><g class="xtick"><text text-anchor="middle" x="0" y="469" transform="translate(318.94,0)" style="font-family: 'Open Sans', verdana, arial, sans-serif; font-size: 18px; fill: rgb(42, 63, 95); fill-opacity: 1; white-space: pre;">01/05</text></g><g class="xtick"><text text-anchor="middle" x="0" y="469" transform="translate(395.6,0)" style="font-family: 'Open Sans', verdana, arial, sans-serif; font-size: 18px; fill: rgb(42, 63, 95); fill-opacity: 1; white-space: pre;">01/07</text></g><g class="xtick"><text text-anchor="middle" x="0" y="469" transform="translate(473.52,0)" style="font-family: 'Open Sans', verdana, arial, sans-serif; font-size: 18px; fill: rgb(42, 63, 95); fill-opacity: 1; white-space: pre;">01/09</text></g><g class="xtick"><text text-anchor="middle" x="0" y="469" transform="translate(550.1800000000001,0)" style="font-family: 'Open Sans', verdana, arial, sans-serif; font-size: 18px; fill: rgb(42, 63, 95); fill-opacity: 1; white-space: pre;">01/11</text></g><g class="xtick"><text text-anchor="middle" x="0" y="469" transform="translate(626.84,0)" style="font-family: 'Open Sans', verdana, arial, sans-serif; font-size: 18px; fill: rgb(42, 63, 95); fill-opacity: 1; white-space: pre;">01/01</text></g><g class="xtick"><text text-anchor="middle" x="0" y="469" transform="translate(700.99,0)" style="font-family: 'Open Sans', verdana, arial, sans-serif; font-size: 18px; fill: rgb(42, 63, 95); fill-opacity: 1; white-space: pre;">01/03</text></g></g><g class="yaxislayer-above"/><g class="overaxes-above"/></g></g><g class="polarlayer"/><g class="ternarylayer"/><g class="geolayer"/><g class="funnelarealayer"/><g class="pielayer"/><g class="treemaplayer"/><g class="sunburstlayer"/><g class="glimages"/><defs id="topdefs-590cb5"><g class="clips"/></defs><g class="layer-above"><g class="imagelayer"/><g class="shapelayer"><path data-index="0" fill-rule="evenodd" d="M-656.28,443.92L262.39,443.92" clip-path="url('#clip590cb5xy')" style="opacity: 1; stroke: rgb(255, 0, 0); stroke-opacity: 1; fill: rgb(0, 0, 0); fill-opacity: 0; stroke-dasharray: 3px, 3px; stroke-width: 1.5px;"/></g></g><g class="infolayer"><g class="g-gtitle"><text class="gtitle" x="375" y="25" text-anchor="middle" dy="0.7em" style="font-family: 'Open Sans', verdana, arial, sans-serif; font-size: 50px; fill: rgb(42, 63, 95); opacity: 1; font-weight: normal; white-space: pre;"><tspan style="font-weight:bold">Finistère (29)</tspan></text></g><g class="g-xtitle"/><g class="annotation" data-index="0" style="opacity: 1;"><g class="annotation-text-g" transform="rotate(0,699.2,184.32)"><g class="cursor-pointer" transform="translate(627, 148)"><rect class="bg" x="0.5" y="0.5" width="143" height="71" style="stroke-width: 1px; stroke: rgb(0, 0, 0); stroke-opacity: 0; fill: rgb(255, 255, 255); fill-opacity: 0.6;"/><text class="annotation-text" text-anchor="middle" x="72.078125" y="55.5" style="font-family: 'Open Sans', verdana, arial, sans-serif; font-size: 50px; fill: rgb(8, 115, 191); fill-opacity: 1; white-space: pre;"> <tspan style="font-weight:bold">1691 </tspan></text></g></g><g class="annotation-arrow-g" style="opacity: 1;"><path d="M727.6,219.82L739.2,234.32" style="stroke-width: 1px; stroke: rgb(8, 115, 191); stroke-opacity: 1; stroke-dasharray: 0px, 0px, 18.5691px, 18.5691px;"/></g></g></g></svg>