<svg class="main-svg" xmlns="http://www.w3.org/2000/svg" xmlns:xlink="http://www.w3.org/1999/xlink" width="1125" height="750" style="" viewBox="0 0 750 500"><rect x="0" y="0" width="750" height="500" style="fill: rgb(0, 0, 0); fill-opacity: 0;"/><defs id="defs-5bb502"><g class="clips"><clipPath id="clip5bb502xyplot" class="plotclip"><rect width="700" height="380"/></clipPath><clipPath class="axesclip" id="clip5bb502x"><rect x="50" y="0" width="700" height="500"/></clipPath><clipPath class="axesclip" id="clip5bb502y"><rect x="0" y="70" width="750" height="380"/></clipPath><clipPath class="axesclip" id="clip5bb502xy"><rect x="50" y="70" width="700" height="380"/></clipPath></g><g class="gradients"/></defs><g class="bglayer"><rect class="bg" x="50" y="70" width="700" height="380" style="fill: rgb(0, 0, 0); fill-opacity: 0; stroke-width: 0;"/></g><g class="layer-below"><g class="imagelayer"/><g class="shapelayer"/></g><g class="cartesianlayer"><g class="subplot xy"><g class="layer-subplot"><g class="shapelayer"/><g class="imagelayer"/></g><g class="gridlayer"><g class="x"><path class="xgrid crisp" transform="translate(113.11,0)" d="M0,70v380" style="stroke: rgb(255, 255, 255); stroke-opacity: 1; stroke-width: 1px;"/><path class="xgrid crisp" transform="translate(229.78,0)" d="M0,70v380" style="stroke: rgb(255, 255, 255); stroke-opacity: 1; stroke-width: 1px;"/><path class="xgrid crisp" transform="translate(342.62,0)" d="M0,70v380" style="stroke: rgb(255, 255, 255); stroke-opacity: 1; stroke-width: 1px;"/><path class="xgrid crisp" transform="translate(459.29,0)" d="M0,70v380" style="stroke: rgb(255, 255, 255); stroke-opacity: 1; stroke-width: 1px;"/><path class="xgrid crisp" transform="translate(575.96,0)" d="M0,70v380" style="stroke: rgb(255, 255, 255); stroke-opacity: 1; stroke-width: 1px;"/><path class="xgrid crisp" transform="translate(694.54,0)" d="M0,70v380" style="stroke: rgb(255, 255, 255); stroke-opacity: 1; stroke-width: 1px;"/></g><g class="y"/></g><g class="zerolinelayer"/><path class="xlines-below"/><path class="ylines-below"/><g class="overlines-below"/><g class="xaxislayer-below"/><g class="yaxislayer-below"/><g class="overaxes-below"/><g class="plot" transform="translate(50, 70)" clip-path="url('#clip5bb502xyplot')"><g class="scatterlayer mlayer"><g class="trace scatter trace990dbc" style="stroke-miterlimit: 2;"><g class="fills"><g><path class="js-fill" d="M667.49,380L-260.11,380L-260.11,369.86L-256.28,370.08L-254.37,376.66L-240.98,377.95L-239.07,378.06L-221.86,378.71L-219.95,379.03L-170.22,379.35L-168.31,379.35L-156.83,376.87L-154.92,375.47L-143.44,375.15L-141.53,374.82L-135.79,369.54L-133.88,366.09L-124.32,357.57L-122.4,357.57L-118.58,358.65L-116.67,358.65L-109.02,356.92L-107.1,359.51L-101.37,362.21L-99.45,364.9L-95.63,366.52L-93.72,364.69L-89.89,363.83L-87.98,362.1L-80.33,350.99L-78.42,348.51L-76.5,349.38L-74.59,348.41L-72.68,348.3L-70.77,345.39L-63.11,340.53L-61.2,336.44L-57.38,326.84L-55.46,315.09L-51.64,305.81L-49.73,304.95L-45.9,285.75L-43.99,278.42L-38.25,269.69L-36.34,268.5L-34.43,272.06L-32.51,268.18L-28.69,255.45L-26.78,244.99L-24.86,240.79L-22.95,240.47L-19.13,224.83L-17.21,226.34L-13.39,239.82L-11.48,242.08L-9.56,244.02L-7.65,248.66L-5.74,255.56L-3.83,259.12L-1.91,257.5L0,254.05L1.91,250.93L3.83,252.54L5.74,246.83L7.65,246.72L11.48,245.86L13.39,244.24L15.3,236.91L17.21,234.53L19.13,223.97L21.04,220.95L26.78,193.45L28.69,191.19L30.6,189.25L32.51,181.27L34.43,152.69L36.34,136.73L38.25,121.63L40.16,94.78L42.08,81.84L43.99,80.33L45.9,51.65L47.81,38.06L53.55,0L55.46,6.47L59.29,6.69L61.2,0.22L63.11,0.86L65.03,18.98L66.94,38.06L68.85,37.2L70.77,39.57L72.68,63.73L74.59,96.19L76.5,147.19L78.42,154.74L80.33,174.9L82.24,190.22L84.15,188.38L87.98,241.87L89.89,236.69L93.72,280.47L95.63,288.99L97.54,293.52L99.45,306.14L101.37,308.62L103.28,308.83L105.19,314.87L107.1,318L110.93,317.35L112.84,313.47L114.75,311.74L116.67,311.85L118.58,311.1L120.49,308.08L122.4,306.78L124.32,308.29L126.23,314.33L128.14,316.38L130.05,312.39L131.97,311.42L133.88,315.09L135.79,314.22L137.7,312.17L139.62,301.39L145.36,294.81L147.27,292.33L149.18,295.35L151.09,296.43L153.01,304.52L154.92,304.73L156.83,309.48L158.74,309.48L160.66,321.77L162.57,317.67L164.48,317.24L166.39,310.34L170.22,303.65L172.13,299.88L177.87,297.08L179.78,291.47L183.61,271.2L185.52,265.05L187.43,246.94L189.34,239.82L191.26,238.63L193.17,226.45L195.08,225.05L196.99,219.65L198.91,215.02L200.82,204.67L202.73,209.73L204.64,209.73L206.56,213.4L208.47,214.59L210.38,213.62L212.3,210.06L214.21,214.37L216.12,212.43L218.03,213.83L219.95,213.94L223.77,219.87L225.68,214.26L227.6,204.88L229.51,200.35L231.42,198.73L233.33,187.52L237.16,170.59L239.07,173.5L240.98,172.1L242.9,173.72L244.81,175.12L246.72,183.42L248.63,184.5L250.55,195.82L254.37,214.37L256.28,215.77L258.2,216.63L260.11,219.55L262.02,227.74L263.93,223.32L265.85,216.42L267.76,213.51L269.67,214.8L271.58,213.29L273.5,211.03L275.41,212L277.32,214.69L279.23,219.44L281.15,222.24L283.06,219.55L284.97,220.19L286.89,222.89L292.62,213.94L294.54,209.63L298.36,202.94L300.27,202.29L306.01,185.69L307.92,182.88L309.84,181.27L311.75,183.21L315.57,159.81L317.49,152.47L321.31,127.89L323.22,128L325.14,124.98L327.05,115.49L330.87,99.21L332.79,97.05L336.61,80.44L338.52,82.71L342.35,68.15L344.26,62.97L346.17,57.8L348.09,55.53L350,48.96L351.91,47.34L353.83,100.18L355.74,83.14L357.65,80.01L359.56,80.23L363.39,92.84L365.3,92.84L367.21,36.45L369.13,53.05L372.95,68.69L374.86,72.68L376.78,63.62L378.69,63.41L382.51,88.75L384.43,93.27L388.25,103.2L390.16,113.12L392.08,112.15L393.99,119.05L395.9,126.92L397.81,144.49L401.64,161.42L403.55,181.05L405.46,184.5L407.38,194.74L409.29,202.29L411.2,202.08L415.03,203.26L416.94,203.16L418.85,202.4L420.77,208.01L422.68,207.47L424.59,207.79L426.5,232.92L428.42,234.97L430.33,228.17L432.24,228.5L436.07,233.78L437.98,239.17L439.89,223.97L441.8,234.21L445.63,235.4L447.54,261.6L449.45,262.36L451.37,265.16L455.19,269.15L457.1,274.22L459.02,276.7L460.93,265.27L462.84,280.26L464.75,288.56L468.58,306.67L470.49,308.72L472.4,309.26L474.32,316.81L483.88,335.36L485.79,336L493.44,360.05L495.36,364.58L497.27,365.66L499.18,365.77L510.66,363.07L512.57,362.1L516.39,361.78L518.31,358.33L520.22,355.52L522.13,354.12L524.04,351.32L525.96,351.96L527.87,345.82L529.78,344.09L531.69,340.96L533.61,339.67L535.52,336.54L537.43,336.87L541.26,333.63L543.17,329.21L545.08,334.6L546.99,325.87L550.82,311.96L552.73,311.1L556.56,290.07L558.47,270.77L562.3,256.64L564.21,255.56L566.12,254.48L568.03,243.7L569.95,241.22L571.86,241.98L577.6,247.04L579.51,247.58L581.42,253.41L583.33,250.71L587.16,248.01L589.07,241.87L590.98,235.61L592.9,232.38L600.55,196.15L602.46,193.77L604.37,193.88L606.28,195.28L608.2,190.11L610.11,190.86L613.93,202.4L615.85,203.37L617.76,200.68L619.67,200.78L621.58,209.3L623.5,214.37L625.41,212.43L627.32,217.07L629.23,223.21L631.15,223.86L634.97,228.5L636.89,228.82L640.71,246.07L642.62,250.06L644.54,254.27L646.45,253.51L650.27,272.92L652.19,273.68L654.1,271.52L656.01,272.17L657.92,276.8L659.84,278.31L665.57,284.46L667.49,291.25" style="fill: rgb(8, 115, 191); fill-opacity: 0.2; stroke-width: 0;"/></g></g><g class="errorbars"/><g class="lines"><path class="js-line" d="M-260.11,369.86L-256.28,370.08L-254.37,376.66L-240.98,377.95L-239.07,378.06L-221.86,378.71L-219.95,379.03L-170.22,379.35L-168.31,379.35L-156.83,376.87L-154.92,375.47L-143.44,375.15L-141.53,374.82L-135.79,369.54L-133.88,366.09L-124.32,357.57L-122.4,357.57L-118.58,358.65L-116.67,358.65L-109.02,356.92L-107.1,359.51L-101.37,362.21L-99.45,364.9L-95.63,366.52L-93.72,364.69L-89.89,363.83L-87.98,362.1L-80.33,350.99L-78.42,348.51L-76.5,349.38L-74.59,348.41L-72.68,348.3L-70.77,345.39L-63.11,340.53L-61.2,336.44L-57.38,326.84L-55.46,315.09L-51.64,305.81L-49.73,304.95L-45.9,285.75L-43.99,278.42L-38.25,269.69L-36.34,268.5L-34.43,272.06L-32.51,268.18L-28.69,255.45L-26.78,244.99L-24.86,240.79L-22.95,240.47L-19.13,224.83L-17.21,226.34L-13.39,239.82L-11.48,242.08L-9.56,244.02L-7.65,248.66L-5.74,255.56L-3.83,259.12L-1.91,257.5L0,254.05L1.91,250.93L3.83,252.54L5.74,246.83L7.65,246.72L11.48,245.86L13.39,244.24L15.3,236.91L17.21,234.53L19.13,223.97L21.04,220.95L26.78,193.45L28.69,191.19L30.6,189.25L32.51,181.27L34.43,152.69L36.34,136.73L38.25,121.63L40.16,94.78L42.08,81.84L43.99,80.33L45.9,51.65L47.81,38.06L53.55,0L55.46,6.47L59.29,6.69L61.2,0.22L63.11,0.86L65.03,18.98L66.94,38.06L68.85,37.2L70.77,39.57L72.68,63.73L74.59,96.19L76.5,147.19L78.42,154.74L80.33,174.9L82.24,190.22L84.15,188.38L87.98,241.87L89.89,236.69L93.72,280.47L95.63,288.99L97.54,293.52L99.45,306.14L101.37,308.62L103.28,308.83L105.19,314.87L107.1,318L110.93,317.35L112.84,313.47L114.75,311.74L116.67,311.85L118.58,311.1L120.49,308.08L122.4,306.78L124.32,308.29L126.23,314.33L128.14,316.38L130.05,312.39L131.97,311.42L133.88,315.09L135.79,314.22L137.7,312.17L139.62,301.39L145.36,294.81L147.27,292.33L149.18,295.35L151.09,296.43L153.01,304.52L154.92,304.73L156.83,309.48L158.74,309.48L160.66,321.77L162.57,317.67L164.48,317.24L166.39,310.34L170.22,303.65L172.13,299.88L177.87,297.08L179.78,291.47L183.61,271.2L185.52,265.05L187.43,246.94L189.34,239.82L191.26,238.63L193.17,226.45L195.08,225.05L196.99,219.65L198.91,215.02L200.82,204.67L202.73,209.73L204.64,209.73L206.56,213.4L208.47,214.59L210.38,213.62L212.3,210.06L214.21,214.37L216.12,212.43L218.03,213.83L219.95,213.94L223.77,219.87L225.68,214.26L227.6,204.88L229.51,200.35L231.42,198.73L233.33,187.52L237.16,170.59L239.07,173.5L240.98,172.1L242.9,173.72L244.81,175.12L246.72,183.42L248.63,184.5L250.55,195.82L254.37,214.37L256.28,215.77L258.2,216.63L260.11,219.55L262.02,227.74L263.93,223.32L265.85,216.42L267.76,213.51L269.67,214.8L271.58,213.29L273.5,211.03L275.41,212L277.32,214.69L279.23,219.44L281.15,222.24L283.06,219.55L284.97,220.19L286.89,222.89L292.62,213.94L294.54,209.63L298.36,202.94L300.27,202.29L306.01,185.69L307.92,182.88L309.84,181.27L311.75,183.21L315.57,159.81L317.49,152.47L321.31,127.89L323.22,128L325.14,124.98L327.05,115.49L330.87,99.21L332.79,97.05L336.61,80.44L338.52,82.71L342.35,68.15L344.26,62.97L346.17,57.8L348.09,55.53L350,48.96L351.91,47.34L353.83,100.18L355.74,83.14L357.65,80.01L359.56,80.23L363.39,92.84L365.3,92.84L367.21,36.45L369.13,53.05L372.95,68.69L374.86,72.68L376.78,63.62L378.69,63.41L382.51,88.75L384.43,93.27L388.25,103.2L390.16,113.12L392.08,112.15L393.99,119.05L395.9,126.92L397.81,144.49L401.64,161.42L403.55,181.05L405.46,184.5L407.38,194.74L409.29,202.29L411.2,202.08L415.03,203.26L416.94,203.16L418.85,202.4L420.77,208.01L422.68,207.47L424.59,207.79L426.5,232.92L428.42,234.97L430.33,228.17L432.24,228.5L436.07,233.78L437.98,239.17L439.89,223.97L441.8,234.21L445.63,235.4L447.54,261.6L449.45,262.36L451.37,265.16L455.19,269.15L457.1,274.22L459.02,276.7L460.93,265.27L462.84,280.26L464.75,288.56L468.58,306.67L470.49,308.72L472.4,309.26L474.32,316.81L483.88,335.36L485.79,336L493.44,360.05L495.36,364.58L497.27,365.66L499.18,365.77L510.66,363.07L512.57,362.1L516.39,361.78L518.31,358.33L520.22,355.52L522.13,354.12L524.04,351.32L525.96,351.96L527.87,345.82L529.78,344.09L531.69,340.96L533.61,339.67L535.52,336.54L537.43,336.87L541.26,333.63L543.17,329.21L545.08,334.6L546.99,325.87L550.82,311.96L552.73,311.1L556.56,290.07L558.47,270.77L562.3,256.64L564.21,255.56L566.12,254.48L568.03,243.7L569.95,241.22L571.86,241.98L577.6,247.04L579.51,247.58L581.42,253.41L583.33,250.71L587.16,248.01L589.07,241.87L590.98,235.61L592.9,232.38L600.55,196.15L602.46,193.77L604.37,193.88L606.28,195.28L608.2,190.11L610.11,190.86L613.93,202.4L615.85,203.37L617.76,200.68L619.67,200.78L621.58,209.3L623.5,214.37L625.41,212.43L627.32,217.07L629.23,223.21L631.15,223.86L634.97,228.5L636.89,228.82L640.71,246.07L642.62,250.06L644.54,254.27L646.45,253.51L650.27,272.92L652.19,273.68L654.1,271.52L656.01,272.17L657.92,276.8L659.84,278.31L665.57,284.46L667.49,291.25" style="vector-effect: non-scaling-stroke; fill: none; stroke: rgb(8, 115, 191); stroke-opacity: 1; stroke-width: 0.5px; opacity: 1;"/></g><g class="points"/><g class="text"/></g><g class="trace scatter tracefad10a" style="stroke-miterlimit: 2;"><g class="fills"><g><path class="js-fill" d="M686.61,380L667.49,380L667.49,291.25L669.4,296L671.31,296.75L673.22,298.16L675.14,302.25L677.05,305.27L678.96,310.66L680.87,313.58L682.79,314.98L684.7,318.43L686.61,318.43" style="fill: rgb(8, 115, 191); fill-opacity: 0.4; stroke-width: 0;"/></g></g><g class="errorbars"/><g class="lines"><path class="js-line" d="M667.49,291.25L669.4,296L671.31,296.75L673.22,298.16L675.14,302.25L677.05,305.27L678.96,310.66L680.87,313.58L682.79,314.98L684.7,318.43L686.61,318.43" style="vector-effect: non-scaling-stroke; fill: none; stroke: rgb(8, 115, 191); stroke-opacity: 1; stroke-width: 2px; opacity: 1;"/></g><g class="points"/><g class="text"/></g><g class="trace scatter trace6e4b60" style="stroke-miterlimit: 2; opacity: 1;"><g class="fills"/><g class="errorbars"/><g class="lines"/><g class="points"><path class="point" transform="translate(686.61,318.43)" d="M15,0A15,15 0 1,1 0,-15A15,15 0 0,1 15,0Z" style="opacity: 1; stroke-width: 0px; fill: rgb(8, 115, 191); fill-opacity: 1;"/></g><g class="text"/></g></g></g><g class="overplot"/><path class="xlines-above crisp" style="fill: none; stroke-width: 1px; stroke: rgb(0, 0, 0); stroke-opacity: 0;" d=""/><path class="ylines-above crisp" style="fill: none;" d="M0,0"/><g class="overlines-above"/><g class="xaxislayer-above"><path class="xtick ticks crisp" d="M0,450v-5" transform="translate(113.11,0)" style="stroke: rgb(68, 68, 68); stroke-opacity: 1; stroke-width: 1px;"/><path class="xtick ticks crisp" d="M0,450v-5" transform="translate(229.78,0)" style="stroke: rgb(68, 68, 68); stroke-opacity: 1; stroke-width: 1px;"/><path class="xtick ticks crisp" d="M0,450v-5" transform="translate(342.62,0)" style="stroke: rgb(68, 68, 68); stroke-opacity: 1; stroke-width: 1px;"/><path class="xtick ticks crisp" d="M0,450v-5" transform="translate(459.29,0)" style="stroke: rgb(68, 68, 68); stroke-opacity: 1; stroke-width: 1px;"/><path class="xtick ticks crisp" d="M0,450v-5" transform="translate(575.96,0)" style="stroke: rgb(68, 68, 68); stroke-opacity: 1; stroke-width: 1px;"/><path class="xtick ticks crisp" d="M0,450v-5" transform="translate(694.54,0)" style="stroke: rgb(68, 68, 68); stroke-opacity: 1; stroke-width: 1px;"/><g class="xtick"><text text-anchor="middle" x="0" y="469" transform="translate(113.11,0)" style="font-family: 'Open Sans', verdana, arial, sans-serif; font-size: 18px; fill: rgb(42, 63, 95); fill-opacity: 1; white-space: pre;">01/11</text></g><g class="xtick"><text text-anchor="middle" x="0" y="469" transform="translate(229.78,0)" style="font-family: 'Open Sans', verdana, arial, sans-serif; font-size: 18px; fill: rgb(42, 63, 95); fill-opacity: 1; white-space: pre;">01/01</text></g><g class="xtick"><text text-anchor="middle" x="0" y="469" transform="translate(342.62,0)" style="font-family: 'Open Sans', verdana, arial, sans-serif; font-size: 18px; fill: rgb(42, 63, 95); fill-opacity: 1; white-space: pre;">01/03</text></g><g class="xtick"><text text-anchor="middle" x="0" y="469" transform="translate(459.29,0)" style="font-family: 'Open Sans', verdana, arial, sans-serif; font-size: 18px; fill: rgb(42, 63, 95); fill-opacity: 1; white-space: pre;">01/05</text></g><g class="xtick"><text text-anchor="middle" x="0" y="469" transform="translate(575.96,0)" style="font-family: 'Open Sans', verdana, arial, sans-serif; font-size: 18px; fill: rgb(42, 63, 95); fill-opacity: 1; white-space: pre;">01/07</text></g><g class="xtick"><text text-anchor="middle" x="0" y="469" transform="translate(694.54,0)" style="font-family: 'Open Sans', verdana, arial, sans-serif; font-size: 18px; fill: rgb(42, 63, 95); fill-opacity: 1; white-space: pre;">01/09</text></g></g><g class="yaxislayer-above"/><g class="overaxes-above"/></g></g><g class="polarlayer"/><g class="ternarylayer"/><g class="geolayer"/><g class="funnelarealayer"/><g class="pielayer"/><g class="treemaplayer"/><g class="sunburstlayer"/><g class="glimages"/><defs id="topdefs-5bb502"><g class="clips"/></defs><g class="layer-above"><g class="imagelayer"/><g class="shapelayer"><path data-index="0" fill-rule="evenodd" d="M-1024.86,391.66L373.22,391.66" clip-path="url('#clip5bb502xy')" style="opacity: 1; stroke: rgb(255, 0, 0); stroke-opacity: 1; fill: rgb(0, 0, 0); fill-opacity: 0; stroke-dasharray: 3px, 3px; stroke-width: 1.5px;"/></g></g><g class="infolayer"><g class="g-gtitle"><text class="gtitle" x="375" y="25" text-anchor="middle" dy="0.7em" style="font-family: 'Open Sans', verdana, arial, sans-serif; font-size: 50px; fill: rgb(42, 63, 95); opacity: 1; font-weight: normal; white-space: pre;"><tspan style="font-weight:bold">Ille-et-Vilaine (35)</tspan></text></g><g class="g-xtitle"/><g class="annotation" data-index="0" style="opacity: 1;"><g class="annotation-text-g" transform="rotate(0,694.61,328.43)"><g class="cursor-pointer" transform="translate(651, 292)"><rect class="bg" x="0.5" y="0.5" width="86" height="71" style="stroke-width: 1px; stroke: rgb(0, 0, 0); stroke-opacity: 0; fill: rgb(255, 255, 255); fill-opacity: 0.6;"/><text class="annotation-text" text-anchor="middle" x="43.53125" y="55.5" style="font-family: 'Open Sans', verdana, arial, sans-serif; font-size: 50px; fill: rgb(8, 115, 191); fill-opacity: 1; white-space: pre;"> <tspan style="font-weight:bold">52 </tspan></text></g></g><g class="annotation-arrow-g" style="opacity: 1;"><path d="M723.01,363.93L734.61,378.43" style="stroke-width: 1px; stroke: rgb(8, 115, 191); stroke-opacity: 1; stroke-dasharray: 0px, 0px, 18.569px, 18.569px;"/></g></g></g></svg>