<svg class="main-svg" xmlns="http://www.w3.org/2000/svg" xmlns:xlink="http://www.w3.org/1999/xlink" width="1125" height="750" style="" viewBox="0 0 750 500"><rect x="0" y="0" width="750" height="500" style="fill: rgb(0, 0, 0); fill-opacity: 0;"/><defs id="defs-57ed60"><g class="clips"><clipPath id="clip57ed60xyplot" class="plotclip"><rect width="688" height="380"/></clipPath><clipPath class="axesclip" id="clip57ed60x"><rect x="50" y="0" width="688" height="500"/></clipPath><clipPath class="axesclip" id="clip57ed60y"><rect x="0" y="70" width="750" height="380"/></clipPath><clipPath class="axesclip" id="clip57ed60xy"><rect x="50" y="70" width="688" height="380"/></clipPath></g><g class="gradients"/></defs><g class="bglayer"><rect class="bg" x="50" y="70" width="688" height="380" style="fill: rgb(0, 0, 0); fill-opacity: 0; stroke-width: 0;"/></g><g class="layer-below"><g class="imagelayer"/><g class="shapelayer"/></g><g class="cartesianlayer"><g class="subplot xy"><g class="layer-subplot"><g class="shapelayer"/><g class="imagelayer"/></g><g class="gridlayer"><g class="x"><path class="xgrid crisp" transform="translate(88.55,0)" d="M0,70v380" style="stroke: rgb(255, 255, 255); stroke-opacity: 1; stroke-width: 1px;"/><path class="xgrid crisp" transform="translate(159.8,0)" d="M0,70v380" style="stroke: rgb(255, 255, 255); stroke-opacity: 1; stroke-width: 1px;"/><path class="xgrid crisp" transform="translate(228.72,0)" d="M0,70v380" style="stroke: rgb(255, 255, 255); stroke-opacity: 1; stroke-width: 1px;"/><path class="xgrid crisp" transform="translate(299.97,0)" d="M0,70v380" style="stroke: rgb(255, 255, 255); stroke-opacity: 1; stroke-width: 1px;"/><path class="xgrid crisp" transform="translate(371.22,0)" d="M0,70v380" style="stroke: rgb(255, 255, 255); stroke-opacity: 1; stroke-width: 1px;"/><path class="xgrid crisp" transform="translate(443.64,0)" d="M0,70v380" style="stroke: rgb(255, 255, 255); stroke-opacity: 1; stroke-width: 1px;"/><path class="xgrid crisp" transform="translate(514.9,0)" d="M0,70v380" style="stroke: rgb(255, 255, 255); stroke-opacity: 1; stroke-width: 1px;"/><path class="xgrid crisp" transform="translate(586.15,0)" d="M0,70v380" style="stroke: rgb(255, 255, 255); stroke-opacity: 1; stroke-width: 1px;"/><path class="xgrid crisp" transform="translate(655.07,0)" d="M0,70v380" style="stroke: rgb(255, 255, 255); stroke-opacity: 1; stroke-width: 1px;"/><path class="xgrid crisp" transform="translate(726.32,0)" d="M0,70v380" style="stroke: rgb(255, 255, 255); stroke-opacity: 1; stroke-width: 1px;"/></g><g class="y"/></g><g class="zerolinelayer"/><path class="xlines-below"/><path class="ylines-below"/><g class="overlines-below"/><g class="xaxislayer-below"/><g class="yaxislayer-below"/><g class="overaxes-below"/><g class="plot" transform="translate(50, 70)" clip-path="url('#clip57ed60xyplot')"><g class="scatterlayer mlayer"><g class="trace scatter tracea5c3e0" style="stroke-miterlimit: 2;"><g class="fills"><g><path class="js-fill" d="M668.14,380L-158.86,380L-158.86,379.56L-144.84,379.67L-143.67,379.78L-45.56,378.78L-44.39,378.56L-39.71,377.86L-38.55,377.86L-28.03,376.54L-26.87,376.61L-17.52,375.76L-16.35,375.25L-10.51,375.61L-9.34,376.13L-4.67,376.61L-3.5,376.72L2.34,375.43L3.5,374.84L5.84,373.22L7.01,372.04L9.34,369.94L10.51,369.86L16.35,362.23L17.52,361.2L18.69,360.76L19.86,355.9L22.19,344.21L23.36,338.54L24.53,331.97L25.7,329.8L26.87,329.8L28.03,321.32L32.71,309.68L33.87,308.05L36.21,307.65L37.38,306.4L38.55,306.69L39.71,309.97L42.05,314.03L43.22,314.43L45.56,320.33L46.72,330.76L47.89,328.95L49.06,331.02L50.23,333.26L51.4,333.41L53.73,345.32L54.9,342.59L57.24,355.16L58.4,355.19L59.57,354.97L60.74,356.34L63.08,357.92L64.24,359.25L68.92,360.43L70.08,361.79L72.42,361.68L73.59,360.39L75.93,360.98L77.09,360.28L80.6,356.52L81.77,358L84.1,357.15L85.27,355.19L87.61,353.72L88.77,352.47L92.28,347.05L93.45,346.24L94.61,344.87L95.78,344.91L96.95,346.9L98.12,352.1L102.79,356.82L103.96,355.78L107.46,352.84L108.63,352.91L110.97,351.21L112.14,352.58L113.3,351.77L114.47,347.79L115.64,349.63L116.81,349.52L117.98,352.28L119.14,352.32L120.31,351.99L121.48,353.57L129.66,355.86L130.83,355.05L133.16,354.38L134.33,353.98L140.17,358.4L141.34,358.33L142.51,359.69L143.67,359.1L150.68,359.32L151.85,360.65L153.02,361.35L154.19,362.94L155.35,364.85L156.52,365.04L157.69,365.18L158.86,366.22L162.36,364.85L163.53,362.75L167.04,363.01L168.2,364.15L171.71,365.85L172.88,365.81L174.04,365.85L175.21,367.47L182.22,368.06L183.39,365.59L190.4,362.57L191.57,363.01L195.07,362.12L196.24,361.87L198.57,361.98L199.74,361.39L200.91,360.98L202.08,359.51L203.25,357.41L204.41,356.93L205.58,355.78L206.75,355.71L209.09,352.32L210.25,352.17L212.59,350.4L213.76,350.62L214.93,350.44L216.1,356.82L217.26,354.13L218.43,353.32L220.77,354.9L221.94,354.46L223.1,354.61L224.27,347.64L226.61,349.52L227.78,350.33L230.11,350.74L231.28,350.66L233.62,354.86L234.78,355.45L237.12,352.84L238.29,353.39L241.79,353.61L242.96,354.72L246.47,360.02L247.63,360.21L251.14,362.01L252.31,363.27L253.47,364.04L254.64,363.89L258.15,363.67L259.31,362.79L260.48,364.41L261.65,363.71L262.82,362.38L263.99,362.35L266.32,363.34L267.49,362.75L268.66,360.17L269.83,361.53L272.16,361.87L273.33,365.04L274.5,363.75L275.67,365.22L280.34,365.92L281.51,364.41L283.84,368.87L285.01,371.08L287.35,372.89L288.52,372.92L292.02,375.25L293.19,375.61L295.52,376.31L296.69,376.31L303.7,377.71L304.87,377.75L308.37,378.64L309.54,378.56L315.38,378.56L316.55,378.64L337.58,377.16L338.74,376.46L344.58,372.41L345.75,372.37L348.09,370.6L349.26,370.31L352.76,369.68L353.93,369.75L357.43,370.49L358.6,370.34L362.11,369.61L363.27,368.32L365.61,366.62L366.78,366.69L371.45,367.1L372.62,368.17L380.79,369.86L381.96,371.01L386.63,371.67L387.8,372.81L392.48,374.4L393.64,374.4L404.16,374.25L405.32,374.55L411.16,377.38L412.33,377.6L414.67,377.42L415.84,377.01L425.18,376.98L426.35,377.31L443.87,377.38L445.04,376.98L454.38,376.35L455.55,375.72L461.39,374.99L462.56,373.29L467.23,369.61L468.4,369.61L469.57,366.99L470.74,366.99L471.9,367.14L473.07,368.98L476.58,367.06L477.75,367.32L478.91,367.25L480.08,366.4L481.25,363.16L482.42,362.46L484.75,362.2L485.92,360.76L488.26,359.25L489.43,358.81L492.93,356.82L494.1,354.94L499.94,346.2L501.11,346.24L503.44,341.3L504.61,339.97L510.45,338.06L511.62,337.69L515.12,337.25L516.29,338.06L519.8,337.32L520.96,334.67L523.3,328.88L524.47,332.16L525.64,331.83L526.8,319.92L529.14,291.69L530.31,270.42L531.48,254.17L532.65,252.73L533.81,250.63L534.98,222.88L537.32,194.31L538.49,194.05L539.65,193.06L540.82,175.59L541.99,174.23L543.16,176.84L544.33,179.68L545.49,173.64L547.83,161.4L549,150.34L550.17,148.65L551.33,125.13L557.17,46.62L558.34,44.45L560.68,9.18L561.85,1.7L563.02,0L564.18,1.55L565.35,6.12L566.52,6.49L567.69,13.31L568.86,26.02L573.53,70.51L574.7,73.2L577.03,122.66L578.2,143.56L581.7,193.54L582.87,195.6L585.21,238.39L586.38,251.26L589.88,272.89L591.05,274.07L593.39,289.74L594.55,294.42L596.89,304.81L598.06,306.32L599.23,307.21L600.39,310.41L602.73,313.14L603.9,314.43L605.07,315.39L606.23,317.49L608.57,317.19L609.74,315.65L610.91,315.57L612.07,309.64L614.41,299.65L615.58,298.47L619.08,264.27L620.25,257.71L622.59,245.21L623.76,244.95L626.09,217.24L627.26,209.94L630.76,183.55L631.93,183.4L633.1,175.63L634.27,173.78L635.44,168.66L636.6,169.58L638.94,178.28L640.11,178.5L642.44,185.02L643.61,184.58L644.78,184.32L645.95,175.66L647.12,172.27L648.29,172.16L650.62,175.77L651.79,180.31L652.96,182.78L654.13,194.42L655.29,198.37L656.46,197.96L657.63,242.67L658.8,236.99L663.47,268.25L664.64,269.61L665.81,250L666.97,273.78L668.14,285.09" style="fill: rgb(8, 115, 191); fill-opacity: 0.2; stroke-width: 0;"/></g></g><g class="errorbars"/><g class="lines"><path class="js-line" d="M-158.86,379.56L-144.84,379.67L-143.67,379.78L-45.56,378.78L-44.39,378.56L-39.71,377.86L-38.55,377.86L-28.03,376.54L-26.87,376.61L-17.52,375.76L-16.35,375.25L-10.51,375.61L-9.34,376.13L-4.67,376.61L-3.5,376.72L2.34,375.43L3.5,374.84L5.84,373.22L7.01,372.04L9.34,369.94L10.51,369.86L16.35,362.23L17.52,361.2L18.69,360.76L19.86,355.9L22.19,344.21L23.36,338.54L24.53,331.97L25.7,329.8L26.87,329.8L28.03,321.32L32.71,309.68L33.87,308.05L36.21,307.65L37.38,306.4L38.55,306.69L39.71,309.97L42.05,314.03L43.22,314.43L45.56,320.33L46.72,330.76L47.89,328.95L49.06,331.02L50.23,333.26L51.4,333.41L53.73,345.32L54.9,342.59L57.24,355.16L58.4,355.19L59.57,354.97L60.74,356.34L63.08,357.92L64.24,359.25L68.92,360.43L70.08,361.79L72.42,361.68L73.59,360.39L75.93,360.98L77.09,360.28L80.6,356.52L81.77,358L84.1,357.15L85.27,355.19L87.61,353.72L88.77,352.47L92.28,347.05L93.45,346.24L94.61,344.87L95.78,344.91L96.95,346.9L98.12,352.1L102.79,356.82L103.96,355.78L107.46,352.84L108.63,352.91L110.97,351.21L112.14,352.58L113.3,351.77L114.47,347.79L115.64,349.63L116.81,349.52L117.98,352.28L119.14,352.32L120.31,351.99L121.48,353.57L129.66,355.86L130.83,355.05L133.16,354.38L134.33,353.98L140.17,358.4L141.34,358.33L142.51,359.69L143.67,359.1L150.68,359.32L151.85,360.65L153.02,361.35L154.19,362.94L155.35,364.85L156.52,365.04L157.69,365.18L158.86,366.22L162.36,364.85L163.53,362.75L167.04,363.01L168.2,364.15L171.71,365.85L172.88,365.81L174.04,365.85L175.21,367.47L182.22,368.06L183.39,365.59L190.4,362.57L191.57,363.01L195.07,362.12L196.24,361.87L198.57,361.98L199.74,361.39L200.91,360.98L202.08,359.51L203.25,357.41L204.41,356.93L205.58,355.78L206.75,355.71L209.09,352.32L210.25,352.17L212.59,350.4L213.76,350.62L214.93,350.44L216.1,356.82L217.26,354.13L218.43,353.32L220.77,354.9L221.94,354.46L223.1,354.61L224.27,347.64L226.61,349.52L227.78,350.33L230.11,350.74L231.28,350.66L233.62,354.86L234.78,355.45L237.12,352.84L238.29,353.39L241.79,353.61L242.96,354.72L246.47,360.02L247.63,360.21L251.14,362.01L252.31,363.27L253.47,364.04L254.64,363.89L258.15,363.67L259.31,362.79L260.48,364.41L261.65,363.71L262.82,362.38L263.99,362.35L266.32,363.34L267.49,362.75L268.66,360.17L269.83,361.53L272.16,361.87L273.33,365.04L274.5,363.75L275.67,365.22L280.34,365.92L281.51,364.41L283.84,368.87L285.01,371.08L287.35,372.89L288.52,372.92L292.02,375.25L293.19,375.61L295.52,376.31L296.69,376.31L303.7,377.71L304.87,377.75L308.37,378.64L309.54,378.56L315.38,378.56L316.55,378.64L337.58,377.16L338.74,376.46L344.58,372.41L345.75,372.37L348.09,370.6L349.26,370.31L352.76,369.68L353.93,369.75L357.43,370.49L358.6,370.34L362.11,369.61L363.27,368.32L365.61,366.62L366.78,366.69L371.45,367.1L372.62,368.17L380.79,369.86L381.96,371.01L386.63,371.67L387.8,372.81L392.48,374.4L393.64,374.4L404.16,374.25L405.32,374.55L411.16,377.38L412.33,377.6L414.67,377.42L415.84,377.01L425.18,376.98L426.35,377.31L443.87,377.38L445.04,376.98L454.38,376.35L455.55,375.72L461.39,374.99L462.56,373.29L467.23,369.61L468.4,369.61L469.57,366.99L470.74,366.99L471.9,367.14L473.07,368.98L476.58,367.06L477.75,367.32L478.91,367.25L480.08,366.4L481.25,363.16L482.42,362.46L484.75,362.2L485.92,360.76L488.26,359.25L489.43,358.81L492.93,356.82L494.1,354.94L499.94,346.2L501.11,346.24L503.44,341.3L504.61,339.97L510.45,338.06L511.62,337.69L515.12,337.25L516.29,338.06L519.8,337.32L520.96,334.67L523.3,328.88L524.47,332.16L525.64,331.83L526.8,319.92L529.14,291.69L530.31,270.42L531.48,254.17L532.65,252.73L533.81,250.63L534.98,222.88L537.32,194.31L538.49,194.05L539.65,193.06L540.82,175.59L541.99,174.23L543.16,176.84L544.33,179.68L545.49,173.64L547.83,161.4L549,150.34L550.17,148.65L551.33,125.13L557.17,46.62L558.34,44.45L560.68,9.18L561.85,1.7L563.02,0L564.18,1.55L565.35,6.12L566.52,6.49L567.69,13.31L568.86,26.02L573.53,70.51L574.7,73.2L577.03,122.66L578.2,143.56L581.7,193.54L582.87,195.6L585.21,238.39L586.38,251.26L589.88,272.89L591.05,274.07L593.39,289.74L594.55,294.42L596.89,304.81L598.06,306.32L599.23,307.21L600.39,310.41L602.73,313.14L603.9,314.43L605.07,315.39L606.23,317.49L608.57,317.19L609.74,315.65L610.91,315.57L612.07,309.64L614.41,299.65L615.58,298.47L619.08,264.27L620.25,257.71L622.59,245.21L623.76,244.95L626.09,217.24L627.26,209.94L630.76,183.55L631.93,183.4L633.1,175.63L634.27,173.78L635.44,168.66L636.6,169.58L638.94,178.28L640.11,178.5L642.44,185.02L643.61,184.58L644.78,184.32L645.95,175.66L647.12,172.27L648.29,172.16L650.62,175.77L651.79,180.31L652.96,182.78L654.13,194.42L655.29,198.37L656.46,197.96L657.63,242.67L658.8,236.99L663.47,268.25L664.64,269.61L665.81,250L666.97,273.78L668.14,285.09" style="vector-effect: non-scaling-stroke; fill: none; stroke: rgb(8, 115, 191); stroke-opacity: 1; stroke-width: 0.5px; opacity: 1;"/></g><g class="points"/><g class="text"/></g><g class="trace scatter trace24fe6b" style="stroke-miterlimit: 2;"><g class="fills"><g><path class="js-fill" d="M679.82,380L668.14,380L668.14,285.09L671.65,305.92L672.81,306.43L675.15,318.67L676.32,322.35L679.82,334.22" style="fill: rgb(8, 115, 191); fill-opacity: 0.4; stroke-width: 0;"/></g></g><g class="errorbars"/><g class="lines"><path class="js-line" d="M668.14,285.09L671.65,305.92L672.81,306.43L675.15,318.67L676.32,322.35L679.82,334.22" style="vector-effect: non-scaling-stroke; fill: none; stroke: rgb(8, 115, 191); stroke-opacity: 1; stroke-width: 2px; opacity: 1;"/></g><g class="points"/><g class="text"/></g><g class="trace scatter trace41041a" style="stroke-miterlimit: 2; opacity: 1;"><g class="fills"/><g class="errorbars"/><g class="lines"/><g class="points"><path class="point" transform="translate(679.82,334.22)" d="M15,0A15,15 0 1,1 0,-15A15,15 0 0,1 15,0Z" style="opacity: 1; stroke-width: 0px; fill: rgb(8, 115, 191); fill-opacity: 1;"/></g><g class="text"/></g></g></g><g class="overplot"/><path class="xlines-above crisp" style="fill: none; stroke-width: 1px; stroke: rgb(0, 0, 0); stroke-opacity: 0;" d=""/><path class="ylines-above crisp" style="fill: none;" d="M0,0"/><g class="overlines-above"/><g class="xaxislayer-above"><path class="xtick ticks crisp" d="M0,450v-5" transform="translate(88.55,0)" style="stroke: rgb(68, 68, 68); stroke-opacity: 1; stroke-width: 1px;"/><path class="xtick ticks crisp" d="M0,450v-5" transform="translate(159.8,0)" style="stroke: rgb(68, 68, 68); stroke-opacity: 1; stroke-width: 1px;"/><path class="xtick ticks crisp" d="M0,450v-5" transform="translate(228.72,0)" style="stroke: rgb(68, 68, 68); stroke-opacity: 1; stroke-width: 1px;"/><path class="xtick ticks crisp" d="M0,450v-5" transform="translate(299.97,0)" style="stroke: rgb(68, 68, 68); stroke-opacity: 1; stroke-width: 1px;"/><path class="xtick ticks crisp" d="M0,450v-5" transform="translate(371.22,0)" style="stroke: rgb(68, 68, 68); stroke-opacity: 1; stroke-width: 1px;"/><path class="xtick ticks crisp" d="M0,450v-5" transform="translate(443.64,0)" style="stroke: rgb(68, 68, 68); stroke-opacity: 1; stroke-width: 1px;"/><path class="xtick ticks crisp" d="M0,450v-5" transform="translate(514.9,0)" style="stroke: rgb(68, 68, 68); stroke-opacity: 1; stroke-width: 1px;"/><path class="xtick ticks crisp" d="M0,450v-5" transform="translate(586.15,0)" style="stroke: rgb(68, 68, 68); stroke-opacity: 1; stroke-width: 1px;"/><path class="xtick ticks crisp" d="M0,450v-5" transform="translate(655.07,0)" style="stroke: rgb(68, 68, 68); stroke-opacity: 1; stroke-width: 1px;"/><path class="xtick ticks crisp" d="M0,450v-5" transform="translate(726.32,0)" style="stroke: rgb(68, 68, 68); stroke-opacity: 1; stroke-width: 1px;"/><g class="xtick"><text text-anchor="middle" x="0" y="469" transform="translate(88.55,0)" style="font-family: 'Open Sans', verdana, arial, sans-serif; font-size: 18px; fill: rgb(42, 63, 95); fill-opacity: 1; white-space: pre;">01/11</text></g><g class="xtick"><text text-anchor="middle" x="0" y="469" transform="translate(159.8,0)" style="font-family: 'Open Sans', verdana, arial, sans-serif; font-size: 18px; fill: rgb(42, 63, 95); fill-opacity: 1; white-space: pre;">01/01</text></g><g class="xtick"><text text-anchor="middle" x="0" y="469" transform="translate(228.72,0)" style="font-family: 'Open Sans', verdana, arial, sans-serif; font-size: 18px; fill: rgb(42, 63, 95); fill-opacity: 1; white-space: pre;">01/03</text></g><g class="xtick"><text text-anchor="middle" x="0" y="469" transform="translate(299.97,0)" style="font-family: 'Open Sans', verdana, arial, sans-serif; font-size: 18px; fill: rgb(42, 63, 95); fill-opacity: 1; white-space: pre;">01/05</text></g><g class="xtick"><text text-anchor="middle" x="0" y="469" transform="translate(371.22,0)" style="font-family: 'Open Sans', verdana, arial, sans-serif; font-size: 18px; fill: rgb(42, 63, 95); fill-opacity: 1; white-space: pre;">01/07</text></g><g class="xtick"><text text-anchor="middle" x="0" y="469" transform="translate(443.64,0)" style="font-family: 'Open Sans', verdana, arial, sans-serif; font-size: 18px; fill: rgb(42, 63, 95); fill-opacity: 1; white-space: pre;">01/09</text></g><g class="xtick"><text text-anchor="middle" x="0" y="469" transform="translate(514.9,0)" style="font-family: 'Open Sans', verdana, arial, sans-serif; font-size: 18px; fill: rgb(42, 63, 95); fill-opacity: 1; white-space: pre;">01/11</text></g><g class="xtick"><text text-anchor="middle" x="0" y="469" transform="translate(586.15,0)" style="font-family: 'Open Sans', verdana, arial, sans-serif; font-size: 18px; fill: rgb(42, 63, 95); fill-opacity: 1; white-space: pre;">01/01</text></g><g class="xtick"><text text-anchor="middle" x="0" y="469" transform="translate(655.07,0)" style="font-family: 'Open Sans', verdana, arial, sans-serif; font-size: 18px; fill: rgb(42, 63, 95); fill-opacity: 1; white-space: pre;">01/03</text></g><g class="xtick"><text text-anchor="middle" x="0" y="469" transform="translate(726.32,0)" style="font-family: 'Open Sans', verdana, arial, sans-serif; font-size: 18px; fill: rgb(42, 63, 95); fill-opacity: 1; white-space: pre;">01/05</text></g></g><g class="yaxislayer-above"/><g class="overaxes-above"/></g></g><g class="polarlayer"/><g class="ternarylayer"/><g class="geolayer"/><g class="funnelarealayer"/><g class="pielayer"/><g class="treemaplayer"/><g class="sunburstlayer"/><g class="glimages"/><defs id="topdefs-57ed60"><g class="clips"/></defs><g class="layer-above"><g class="imagelayer"/><g class="shapelayer"><path data-index="0" fill-rule="evenodd" d="M-606.46,443.89L247.41,443.89" clip-path="url('#clip57ed60xy')" style="opacity: 1; stroke: rgb(255, 0, 0); stroke-opacity: 1; fill: rgb(0, 0, 0); fill-opacity: 0; stroke-dasharray: 3px, 3px; stroke-width: 1.5px;"/></g></g><g class="infolayer"><g class="g-gtitle"><text class="gtitle" x="375" y="25" text-anchor="middle" dy="0.7em" style="font-family: 'Open Sans', verdana, arial, sans-serif; font-size: 50px; fill: rgb(42, 63, 95); opacity: 1; font-weight: normal; white-space: pre;"><tspan style="font-weight:bold">Allier (03)</tspan></text></g><g class="g-xtitle"/><g class="annotation" data-index="0" style="opacity: 1;"><g class="annotation-text-g" transform="rotate(0,687.82,344.22)"><g class="cursor-pointer" transform="translate(630, 308)"><rect class="bg" x="0.5" y="0.5" width="115" height="71" style="stroke-width: 1px; stroke: rgb(0, 0, 0); stroke-opacity: 0; fill: rgb(255, 255, 255); fill-opacity: 0.6;"/><text class="annotation-text" text-anchor="middle" x="57.8125" y="55.5" style="font-family: 'Open Sans', verdana, arial, sans-serif; font-size: 50px; fill: rgb(8, 115, 191); fill-opacity: 1; white-space: pre;"> <tspan style="font-weight:bold">374 </tspan></text></g></g><g class="annotation-arrow-g" style="opacity: 1;"><path d="M716.22,379.72L727.82,394.22" style="stroke-width: 1px; stroke: rgb(8, 115, 191); stroke-opacity: 1; stroke-dasharray: 0px, 0px, 18.5691px, 18.5691px;"/></g></g></g></svg>