<svg class="main-svg" xmlns="http://www.w3.org/2000/svg" xmlns:xlink="http://www.w3.org/1999/xlink" width="1125" height="750" style="" viewBox="0 0 750 500"><rect x="0" y="0" width="750" height="500" style="fill: rgb(0, 0, 0); fill-opacity: 0;"/><defs id="defs-29cdea"><g class="clips"><clipPath id="clip29cdeaxyplot" class="plotclip"><rect width="677" height="380"/></clipPath><clipPath class="axesclip" id="clip29cdeax"><rect x="50" y="0" width="677" height="500"/></clipPath><clipPath class="axesclip" id="clip29cdeay"><rect x="0" y="70" width="750" height="380"/></clipPath><clipPath class="axesclip" id="clip29cdeaxy"><rect x="50" y="70" width="677" height="380"/></clipPath></g><g class="gradients"/></defs><g class="bglayer"><rect class="bg" x="50" y="70" width="677" height="380" style="fill: rgb(0, 0, 0); fill-opacity: 0; stroke-width: 0;"/></g><g class="layer-below"><g class="imagelayer"/><g class="shapelayer"/></g><g class="cartesianlayer"><g class="subplot xy"><g class="layer-subplot"><g class="shapelayer"/><g class="imagelayer"/></g><g class="gridlayer"><g class="x"><path class="xgrid crisp" transform="translate(88.52000000000001,0)" d="M0,70v380" style="stroke: rgb(255, 255, 255); stroke-opacity: 1; stroke-width: 1px;"/><path class="xgrid crisp" transform="translate(159.72,0)" d="M0,70v380" style="stroke: rgb(255, 255, 255); stroke-opacity: 1; stroke-width: 1px;"/><path class="xgrid crisp" transform="translate(228.59,0)" d="M0,70v380" style="stroke: rgb(255, 255, 255); stroke-opacity: 1; stroke-width: 1px;"/><path class="xgrid crisp" transform="translate(299.78999999999996,0)" d="M0,70v380" style="stroke: rgb(255, 255, 255); stroke-opacity: 1; stroke-width: 1px;"/><path class="xgrid crisp" transform="translate(370.99,0)" d="M0,70v380" style="stroke: rgb(255, 255, 255); stroke-opacity: 1; stroke-width: 1px;"/><path class="xgrid crisp" transform="translate(443.36,0)" d="M0,70v380" style="stroke: rgb(255, 255, 255); stroke-opacity: 1; stroke-width: 1px;"/><path class="xgrid crisp" transform="translate(514.56,0)" d="M0,70v380" style="stroke: rgb(255, 255, 255); stroke-opacity: 1; stroke-width: 1px;"/><path class="xgrid crisp" transform="translate(585.76,0)" d="M0,70v380" style="stroke: rgb(255, 255, 255); stroke-opacity: 1; stroke-width: 1px;"/><path class="xgrid crisp" transform="translate(654.63,0)" d="M0,70v380" style="stroke: rgb(255, 255, 255); stroke-opacity: 1; stroke-width: 1px;"/><path class="xgrid crisp" transform="translate(725.83,0)" d="M0,70v380" style="stroke: rgb(255, 255, 255); stroke-opacity: 1; stroke-width: 1px;"/></g><g class="y"/></g><g class="zerolinelayer"/><path class="xlines-below"/><path class="ylines-below"/><g class="overlines-below"/><g class="xaxislayer-below"/><g class="yaxislayer-below"/><g class="overaxes-below"/><g class="plot" transform="translate(50, 70)" clip-path="url('#clip29cdeaxyplot')"><g class="scatterlayer mlayer"><g class="trace scatter tracef94914" style="stroke-miterlimit: 2;"><g class="fills"><g><path class="js-fill" d="M657.16,380L-158.74,380L-158.74,377.48L-144.74,378.35L-143.57,378.66L-126.06,379.57L-124.89,379.51L-67.7,378.61L-66.53,378.35L-50.19,374.31L-49.02,374.39L-45.52,374.8L-44.36,375.09L-36.18,373.1L-35.02,372.07L-32.68,371.92L-31.52,371.76L-29.18,371.19L-28.01,370.78L-25.68,370.89L-24.51,371.37L-17.51,371.77L-16.34,371.56L2.33,369.96L3.5,369.24L7,367.26L8.17,365.48L11.67,363.6L12.84,362.09L14.01,360.05L15.17,359.67L17.51,358.2L18.68,357.52L23.34,345.19L24.51,340.62L28.01,332.59L29.18,328.13L31.52,325.6L32.68,324.39L33.85,324.07L35.02,326.1L36.18,324.48L37.35,324.74L38.52,324.29L39.69,324.73L42.02,329.37L43.19,329.21L47.86,346.67L49.02,348.26L51.36,348.85L52.53,350.29L53.69,353.54L54.86,351.82L58.36,358.33L59.53,359.09L60.7,360.97L61.86,361.36L64.2,363.45L65.37,364.19L68.87,365.12L70.03,364.51L72.37,364.99L73.54,365.27L77.04,364.94L78.21,365.81L82.87,365L84.04,364.82L87.54,364.48L88.71,363.37L94.55,362.98L95.71,363.08L98.05,367.39L99.22,367.6L103.88,366.93L105.05,365.97L108.55,366L109.72,364.92L113.22,364.45L114.39,361.78L116.72,361.33L117.89,361.85L120.23,361.15L121.39,361.37L122.56,360.34L123.73,360.34L124.89,360.1L126.06,358.41L129.56,354.69L130.73,354.75L134.23,354.51L135.4,355.36L137.73,355.63L138.9,356.21L142.4,356.89L143.57,357.27L145.91,359.48L147.07,359.64L149.41,360.23L150.57,362.08L152.91,362.88L154.08,363.96L156.41,365.71L157.58,365.82L158.74,365.92L159.91,367.44L162.25,367.21L163.41,366.46L169.25,366L170.42,365.28L172.75,365.38L173.92,365.17L182.09,367.15L183.26,367.1L187.93,364.94L189.09,363.43L190.26,363.4L191.43,362.21L193.76,360.61L194.93,359.8L197.26,359.46L198.43,359.25L204.27,352.66L205.43,351.73L206.6,351.53L207.77,350.52L211.27,347.62L212.44,347.9L214.77,347.38L215.94,352.59L217.11,350.7L218.27,350.32L219.44,351.74L220.61,350.96L222.94,350.76L224.11,345.66L226.44,348L227.61,347.61L231.11,349.86L232.28,349.54L238.12,351.07L239.28,351.11L243.95,355.67L245.12,355.21L246.29,357.16L247.46,357.37L257.96,359.59L259.13,359.17L260.29,361.77L261.46,362.36L262.63,361.15L263.8,361.33L267.3,363.4L268.47,361.72L271.97,362.5L273.13,365.92L275.47,365.25L276.64,365.07L280.14,365.04L281.31,362.78L283.64,365.9L284.81,366.95L288.31,369.19L289.48,370.06L295.31,373.93L296.48,374.01L298.81,375.91L299.98,376.44L303.48,377.56L304.65,377.56L308.15,377.63L309.32,377.74L325.66,377.65L326.83,377.65L330.33,377.25L331.5,376.86L332.66,377.14L333.83,376.45L339.67,374.67L340.83,373.44L343.17,372.69L344.34,372L346.67,371.17L347.84,370.66L354.84,370.68L356.01,370.66L361.84,369.67L363.01,368.52L367.68,366.44L368.85,366.23L379.35,365.56L380.52,365.79L384.02,365.18L385.19,365.53L391.03,367.83L392.19,368.34L395.69,367.9L396.86,368.44L402.7,370.7L403.87,371.43L407.37,372.54L408.53,372.97L414.37,374.6L415.54,375.09L422.54,375.29L423.71,375L435.38,376.57L436.55,376.47L447.05,376.34L448.22,376.32L451.72,375.8L452.89,376.08L456.39,375.37L457.56,375.21L459.89,374.67L461.06,375.21L463.39,374.64L464.56,374.49L468.06,374.19L469.23,372.71L472.73,373.62L473.9,372.64L477.4,371.1L478.57,369.6L479.74,368L480.9,365.02L484.41,363.24L485.57,360.67L491.41,354.95L492.58,354.69L496.08,347.31L497.24,343.89L499.58,337.88L500.75,337.58L504.25,331.61L505.42,331.12L506.58,330.65L507.75,331.29L512.42,331.37L513.59,332.04L515.92,333.48L517.09,333.22L518.26,334.23L519.42,333.51L522.92,324.52L524.09,326.79L525.26,325.2L526.43,309.08L531.09,234.84L532.26,231.57L533.43,227.43L534.6,201.79L536.93,166.47L538.1,154.3L539.27,141.45L540.43,117.12L541.6,115.27L542.77,111.48L543.93,110.15L545.1,105.65L546.27,102.76L547.44,94.89L549.77,82.84L550.94,64.95L555.61,8.88L556.77,5.07L557.94,4.64L559.11,0.26L560.28,0L561.44,6.41L564.94,37.55L566.11,39.83L570.78,106.7L571.95,125.19L574.28,144.93L575.45,178.1L578.95,243.87L580.12,259.35L587.12,303.6L588.29,308.92L589.46,313.02L590.62,313.61L594.13,323.63L595.29,325.32L597.63,328.77L598.79,329.59L599.96,333.17L601.13,333.85L602.3,334.69L603.46,333.89L606.97,332.22L608.13,329.31L612.8,320.23L613.97,318.92L615.14,318.15L616.3,313.04L619.81,302.9L620.97,298.5L622.14,295.38L623.31,294.87L627.98,257.63L629.14,248.62L630.31,243.54L631.48,242.61L634.98,227.38L636.15,225.27L637.31,226.22L638.48,226.2L639.65,226.38L640.82,223.08L641.98,223.9L643.15,221.92L645.48,217.06L646.65,216.59L647.82,216.95L648.99,221.92L650.15,224.37L651.32,230.54L654.82,245.08L655.99,245.27L657.16,274.92" style="fill: rgb(8, 115, 191); fill-opacity: 0.2; stroke-width: 0;"/></g></g><g class="errorbars"/><g class="lines"><path class="js-line" d="M-158.74,377.48L-144.74,378.35L-143.57,378.66L-126.06,379.57L-124.89,379.51L-67.7,378.61L-66.53,378.35L-50.19,374.31L-49.02,374.39L-45.52,374.8L-44.36,375.09L-36.18,373.1L-35.02,372.07L-32.68,371.92L-31.52,371.76L-29.18,371.19L-28.01,370.78L-25.68,370.89L-24.51,371.37L-17.51,371.77L-16.34,371.56L2.33,369.96L3.5,369.24L7,367.26L8.17,365.48L11.67,363.6L12.84,362.09L14.01,360.05L15.17,359.67L17.51,358.2L18.68,357.52L23.34,345.19L24.51,340.62L28.01,332.59L29.18,328.13L31.52,325.6L32.68,324.39L33.85,324.07L35.02,326.1L36.18,324.48L37.35,324.74L38.52,324.29L39.69,324.73L42.02,329.37L43.19,329.21L47.86,346.67L49.02,348.26L51.36,348.85L52.53,350.29L53.69,353.54L54.86,351.82L58.36,358.33L59.53,359.09L60.7,360.97L61.86,361.36L64.2,363.45L65.37,364.19L68.87,365.12L70.03,364.51L72.37,364.99L73.54,365.27L77.04,364.94L78.21,365.81L82.87,365L84.04,364.82L87.54,364.48L88.71,363.37L94.55,362.98L95.71,363.08L98.05,367.39L99.22,367.6L103.88,366.93L105.05,365.97L108.55,366L109.72,364.92L113.22,364.45L114.39,361.78L116.72,361.33L117.89,361.85L120.23,361.15L121.39,361.37L122.56,360.34L123.73,360.34L124.89,360.1L126.06,358.41L129.56,354.69L130.73,354.75L134.23,354.51L135.4,355.36L137.73,355.63L138.9,356.21L142.4,356.89L143.57,357.27L145.91,359.48L147.07,359.64L149.41,360.23L150.57,362.08L152.91,362.88L154.08,363.96L156.41,365.71L157.58,365.82L158.74,365.92L159.91,367.44L162.25,367.21L163.41,366.46L169.25,366L170.42,365.28L172.75,365.38L173.92,365.17L182.09,367.15L183.26,367.1L187.93,364.94L189.09,363.43L190.26,363.4L191.43,362.21L193.76,360.61L194.93,359.8L197.26,359.46L198.43,359.25L204.27,352.66L205.43,351.73L206.6,351.53L207.77,350.52L211.27,347.62L212.44,347.9L214.77,347.38L215.94,352.59L217.11,350.7L218.27,350.32L219.44,351.74L220.61,350.96L222.94,350.76L224.11,345.66L226.44,348L227.61,347.61L231.11,349.86L232.28,349.54L238.12,351.07L239.28,351.11L243.95,355.67L245.12,355.21L246.29,357.16L247.46,357.37L257.96,359.59L259.13,359.17L260.29,361.77L261.46,362.36L262.63,361.15L263.8,361.33L267.3,363.4L268.47,361.72L271.97,362.5L273.13,365.92L275.47,365.25L276.64,365.07L280.14,365.04L281.31,362.78L283.64,365.9L284.81,366.95L288.31,369.19L289.48,370.06L295.31,373.93L296.48,374.01L298.81,375.91L299.98,376.44L303.48,377.56L304.65,377.56L308.15,377.63L309.32,377.74L325.66,377.65L326.83,377.65L330.33,377.25L331.5,376.86L332.66,377.14L333.83,376.45L339.67,374.67L340.83,373.44L343.17,372.69L344.34,372L346.67,371.17L347.84,370.66L354.84,370.68L356.01,370.66L361.84,369.67L363.01,368.52L367.68,366.44L368.85,366.23L379.35,365.56L380.52,365.79L384.02,365.18L385.19,365.53L391.03,367.83L392.19,368.34L395.69,367.9L396.86,368.44L402.7,370.7L403.87,371.43L407.37,372.54L408.53,372.97L414.37,374.6L415.54,375.09L422.54,375.29L423.71,375L435.38,376.57L436.55,376.47L447.05,376.34L448.22,376.32L451.72,375.8L452.89,376.08L456.39,375.37L457.56,375.21L459.89,374.67L461.06,375.21L463.39,374.64L464.56,374.49L468.06,374.19L469.23,372.71L472.73,373.62L473.9,372.64L477.4,371.1L478.57,369.6L479.74,368L480.9,365.02L484.41,363.24L485.57,360.67L491.41,354.95L492.58,354.69L496.08,347.31L497.24,343.89L499.58,337.88L500.75,337.58L504.25,331.61L505.42,331.12L506.58,330.65L507.75,331.29L512.42,331.37L513.59,332.04L515.92,333.48L517.09,333.22L518.26,334.23L519.42,333.51L522.92,324.52L524.09,326.79L525.26,325.2L526.43,309.08L531.09,234.84L532.26,231.57L533.43,227.43L534.6,201.79L536.93,166.47L538.1,154.3L539.27,141.45L540.43,117.12L541.6,115.27L542.77,111.48L543.93,110.15L545.1,105.65L546.27,102.76L547.44,94.89L549.77,82.84L550.94,64.95L555.61,8.88L556.77,5.07L557.94,4.64L559.11,0.26L560.28,0L561.44,6.41L564.94,37.55L566.11,39.83L570.78,106.7L571.95,125.19L574.28,144.93L575.45,178.1L578.95,243.87L580.12,259.35L587.12,303.6L588.29,308.92L589.46,313.02L590.62,313.61L594.13,323.63L595.29,325.32L597.63,328.77L598.79,329.59L599.96,333.17L601.13,333.85L602.3,334.69L603.46,333.89L606.97,332.22L608.13,329.31L612.8,320.23L613.97,318.92L615.14,318.15L616.3,313.04L619.81,302.9L620.97,298.5L622.14,295.38L623.31,294.87L627.98,257.63L629.14,248.62L630.31,243.54L631.48,242.61L634.98,227.38L636.15,225.27L637.31,226.22L638.48,226.2L639.65,226.38L640.82,223.08L641.98,223.9L643.15,221.92L645.48,217.06L646.65,216.59L647.82,216.95L648.99,221.92L650.15,224.37L651.32,230.54L654.82,245.08L655.99,245.27L657.16,274.92" style="vector-effect: non-scaling-stroke; fill: none; stroke: rgb(8, 115, 191); stroke-opacity: 1; stroke-width: 0.5px; opacity: 1;"/></g><g class="points"/><g class="text"/></g><g class="trace scatter trace5544b3" style="stroke-miterlimit: 2;"><g class="fills"><g><path class="js-fill" d="M668.83,380L657.16,380L657.16,274.92L658.32,271.65L659.49,277.91L661.83,294.21L662.99,297.91L664.16,299.17L665.33,283.8L666.49,301.21L667.66,307.3L668.83,312.48" style="fill: rgb(8, 115, 191); fill-opacity: 0.4; stroke-width: 0;"/></g></g><g class="errorbars"/><g class="lines"><path class="js-line" d="M657.16,274.92L658.32,271.65L659.49,277.91L661.83,294.21L662.99,297.91L664.16,299.17L665.33,283.8L666.49,301.21L667.66,307.3L668.83,312.48" style="vector-effect: non-scaling-stroke; fill: none; stroke: rgb(8, 115, 191); stroke-opacity: 1; stroke-width: 2px; opacity: 1;"/></g><g class="points"/><g class="text"/></g><g class="trace scatter tracec8e468" style="stroke-miterlimit: 2; opacity: 1;"><g class="fills"/><g class="errorbars"/><g class="lines"/><g class="points"><path class="point" transform="translate(668.83,312.48)" d="M15,0A15,15 0 1,1 0,-15A15,15 0 0,1 15,0Z" style="opacity: 1; stroke-width: 0px; fill: rgb(8, 115, 191); fill-opacity: 1;"/></g><g class="text"/></g></g></g><g class="overplot"/><path class="xlines-above crisp" style="fill: none; stroke-width: 1px; stroke: rgb(0, 0, 0); stroke-opacity: 0;" d=""/><path class="ylines-above crisp" style="fill: none;" d="M0,0"/><g class="overlines-above"/><g class="xaxislayer-above"><path class="xtick ticks crisp" d="M0,450v-5" transform="translate(88.52000000000001,0)" style="stroke: rgb(68, 68, 68); stroke-opacity: 1; stroke-width: 1px;"/><path class="xtick ticks crisp" d="M0,450v-5" transform="translate(159.72,0)" style="stroke: rgb(68, 68, 68); stroke-opacity: 1; stroke-width: 1px;"/><path class="xtick ticks crisp" d="M0,450v-5" transform="translate(228.59,0)" style="stroke: rgb(68, 68, 68); stroke-opacity: 1; stroke-width: 1px;"/><path class="xtick ticks crisp" d="M0,450v-5" transform="translate(299.78999999999996,0)" style="stroke: rgb(68, 68, 68); stroke-opacity: 1; stroke-width: 1px;"/><path class="xtick ticks crisp" d="M0,450v-5" transform="translate(370.99,0)" style="stroke: rgb(68, 68, 68); stroke-opacity: 1; stroke-width: 1px;"/><path class="xtick ticks crisp" d="M0,450v-5" transform="translate(443.36,0)" style="stroke: rgb(68, 68, 68); stroke-opacity: 1; stroke-width: 1px;"/><path class="xtick ticks crisp" d="M0,450v-5" transform="translate(514.56,0)" style="stroke: rgb(68, 68, 68); stroke-opacity: 1; stroke-width: 1px;"/><path class="xtick ticks crisp" d="M0,450v-5" transform="translate(585.76,0)" style="stroke: rgb(68, 68, 68); stroke-opacity: 1; stroke-width: 1px;"/><path class="xtick ticks crisp" d="M0,450v-5" transform="translate(654.63,0)" style="stroke: rgb(68, 68, 68); stroke-opacity: 1; stroke-width: 1px;"/><path class="xtick ticks crisp" d="M0,450v-5" transform="translate(725.83,0)" style="stroke: rgb(68, 68, 68); stroke-opacity: 1; stroke-width: 1px;"/><g class="xtick"><text text-anchor="middle" x="0" y="469" transform="translate(88.52000000000001,0)" style="font-family: 'Open Sans', verdana, arial, sans-serif; font-size: 18px; fill: rgb(42, 63, 95); fill-opacity: 1; white-space: pre;">01/11</text></g><g class="xtick"><text text-anchor="middle" x="0" y="469" transform="translate(159.72,0)" style="font-family: 'Open Sans', verdana, arial, sans-serif; font-size: 18px; fill: rgb(42, 63, 95); fill-opacity: 1; white-space: pre;">01/01</text></g><g class="xtick"><text text-anchor="middle" x="0" y="469" transform="translate(228.59,0)" style="font-family: 'Open Sans', verdana, arial, sans-serif; font-size: 18px; fill: rgb(42, 63, 95); fill-opacity: 1; white-space: pre;">01/03</text></g><g class="xtick"><text text-anchor="middle" x="0" y="469" transform="translate(299.78999999999996,0)" style="font-family: 'Open Sans', verdana, arial, sans-serif; font-size: 18px; fill: rgb(42, 63, 95); fill-opacity: 1; white-space: pre;">01/05</text></g><g class="xtick"><text text-anchor="middle" x="0" y="469" transform="translate(370.99,0)" style="font-family: 'Open Sans', verdana, arial, sans-serif; font-size: 18px; fill: rgb(42, 63, 95); fill-opacity: 1; white-space: pre;">01/07</text></g><g class="xtick"><text text-anchor="middle" x="0" y="469" transform="translate(443.36,0)" style="font-family: 'Open Sans', verdana, arial, sans-serif; font-size: 18px; fill: rgb(42, 63, 95); fill-opacity: 1; white-space: pre;">01/09</text></g><g class="xtick"><text text-anchor="middle" x="0" y="469" transform="translate(514.56,0)" style="font-family: 'Open Sans', verdana, arial, sans-serif; font-size: 18px; fill: rgb(42, 63, 95); fill-opacity: 1; white-space: pre;">01/11</text></g><g class="xtick"><text text-anchor="middle" x="0" y="469" transform="translate(585.76,0)" style="font-family: 'Open Sans', verdana, arial, sans-serif; font-size: 18px; fill: rgb(42, 63, 95); fill-opacity: 1; white-space: pre;">01/01</text></g><g class="xtick"><text text-anchor="middle" x="0" y="469" transform="translate(654.63,0)" style="font-family: 'Open Sans', verdana, arial, sans-serif; font-size: 18px; fill: rgb(42, 63, 95); fill-opacity: 1; white-space: pre;">01/03</text></g><g class="xtick"><text text-anchor="middle" x="0" y="469" transform="translate(725.83,0)" style="font-family: 'Open Sans', verdana, arial, sans-serif; font-size: 18px; fill: rgb(42, 63, 95); fill-opacity: 1; white-space: pre;">01/05</text></g></g><g class="yaxislayer-above"/><g class="overaxes-above"/></g></g><g class="polarlayer"/><g class="ternarylayer"/><g class="geolayer"/><g class="funnelarealayer"/><g class="pielayer"/><g class="treemaplayer"/><g class="sunburstlayer"/><g class="glimages"/><defs id="topdefs-29cdea"><g class="clips"/></defs><g class="layer-above"><g class="imagelayer"/><g class="shapelayer"><path data-index="0" fill-rule="evenodd" d="M-605.99,444.42L247.26,444.42" clip-path="url('#clip29cdeaxy')" style="opacity: 1; stroke: rgb(255, 0, 0); stroke-opacity: 1; fill: rgb(0, 0, 0); fill-opacity: 0; stroke-dasharray: 3px, 3px; stroke-width: 1.5px;"/></g></g><g class="infolayer"><g class="g-gtitle"><text class="gtitle" x="375" y="25" text-anchor="middle" dy="0.7em" style="font-family: 'Open Sans', verdana, arial, sans-serif; font-size: 50px; fill: rgb(42, 63, 95); opacity: 1; font-weight: normal; white-space: pre;"><tspan style="font-weight:bold">Loiret (45)</tspan></text></g><g class="g-xtitle"/><g class="annotation" data-index="0" style="opacity: 1;"><g class="annotation-text-g" transform="rotate(0,676.83,322.48)"><g class="cursor-pointer" transform="translate(619, 286)"><rect class="bg" x="0.5" y="0.5" width="115" height="71" style="stroke-width: 1px; stroke: rgb(0, 0, 0); stroke-opacity: 0; fill: rgb(255, 255, 255); fill-opacity: 0.6;"/><text class="annotation-text" text-anchor="middle" x="57.8125" y="55.5" style="font-family: 'Open Sans', verdana, arial, sans-serif; font-size: 50px; fill: rgb(8, 115, 191); fill-opacity: 1; white-space: pre;"> <tspan style="font-weight:bold">604 </tspan></text></g></g><g class="annotation-arrow-g" style="opacity: 1;"><path d="M705.23,357.98L716.83,372.48" style="stroke-width: 1px; stroke: rgb(8, 115, 191); stroke-opacity: 1; stroke-dasharray: 0px, 0px, 18.5691px, 18.5691px;"/></g></g></g></svg>