<svg class="main-svg" xmlns="http://www.w3.org/2000/svg" xmlns:xlink="http://www.w3.org/1999/xlink" width="1125" height="750" style="" viewBox="0 0 750 500"><rect x="0" y="0" width="750" height="500" style="fill: rgb(0, 0, 0); fill-opacity: 0;"/><defs id="defs-fca089"><g class="clips"><clipPath id="clipfca089xyplot" class="plotclip"><rect width="700" height="380"/></clipPath><clipPath class="axesclip" id="clipfca089x"><rect x="50" y="0" width="700" height="500"/></clipPath><clipPath class="axesclip" id="clipfca089y"><rect x="0" y="70" width="750" height="380"/></clipPath><clipPath class="axesclip" id="clipfca089xy"><rect x="50" y="70" width="700" height="380"/></clipPath></g><g class="gradients"/></defs><g class="bglayer"><rect class="bg" x="50" y="70" width="700" height="380" style="fill: rgb(0, 0, 0); fill-opacity: 0; stroke-width: 0;"/></g><g class="layer-below"><g class="imagelayer"/><g class="shapelayer"/></g><g class="cartesianlayer"><g class="subplot xy"><g class="layer-subplot"><g class="shapelayer"/><g class="imagelayer"/></g><g class="gridlayer"><g class="x"><path class="xgrid crisp" transform="translate(90.81,0)" d="M0,70v380" style="stroke: rgb(255, 255, 255); stroke-opacity: 1; stroke-width: 1px;"/><path class="xgrid crisp" transform="translate(166.25,0)" d="M0,70v380" style="stroke: rgb(255, 255, 255); stroke-opacity: 1; stroke-width: 1px;"/><path class="xgrid crisp" transform="translate(239.22,0)" d="M0,70v380" style="stroke: rgb(255, 255, 255); stroke-opacity: 1; stroke-width: 1px;"/><path class="xgrid crisp" transform="translate(314.66,0)" d="M0,70v380" style="stroke: rgb(255, 255, 255); stroke-opacity: 1; stroke-width: 1px;"/><path class="xgrid crisp" transform="translate(390.11,0)" d="M0,70v380" style="stroke: rgb(255, 255, 255); stroke-opacity: 1; stroke-width: 1px;"/><path class="xgrid crisp" transform="translate(466.78,0)" d="M0,70v380" style="stroke: rgb(255, 255, 255); stroke-opacity: 1; stroke-width: 1px;"/><path class="xgrid crisp" transform="translate(542.23,0)" d="M0,70v380" style="stroke: rgb(255, 255, 255); stroke-opacity: 1; stroke-width: 1px;"/><path class="xgrid crisp" transform="translate(617.67,0)" d="M0,70v380" style="stroke: rgb(255, 255, 255); stroke-opacity: 1; stroke-width: 1px;"/><path class="xgrid crisp" transform="translate(690.64,0)" d="M0,70v380" style="stroke: rgb(255, 255, 255); stroke-opacity: 1; stroke-width: 1px;"/></g><g class="y"/></g><g class="zerolinelayer"/><path class="xlines-below"/><path class="ylines-below"/><g class="overlines-below"/><g class="xaxislayer-below"/><g class="yaxislayer-below"/><g class="overaxes-below"/><g class="plot" transform="translate(50, 70)" clip-path="url('#clipfca089xyplot')"><g class="scatterlayer mlayer"><g class="trace scatter trace733ede" style="stroke-miterlimit: 2;"><g class="fills"><g><path class="js-fill" d="M678.98,380L-168.2,380L-168.2,378.77L-155.83,379.01L-154.59,378.97L-96.47,379.16L-95.23,378.72L-38.34,377.69L-37.1,377.29L-14.84,376.31L-13.6,376.68L-6.18,377.09L-4.95,376.98L2.47,376.89L3.71,376.28L11.13,373.17L12.37,371.58L18.55,367.98L19.79,368.02L21.02,366.98L22.26,364.82L23.5,364.12L24.73,361.61L27.21,357.44L28.45,357.26L32.16,347.44L33.39,345.25L35.87,340.8L37.1,340.7L38.34,336.33L39.58,334.83L43.29,334.02L44.52,335.04L45.76,335.03L47,339.19L48.23,341.83L49.47,348.54L50.71,349.31L51.94,352.63L54.42,353.74L55.65,356.82L56.89,358.59L58.13,355.48L59.36,358.85L60.6,359.76L63.07,360.38L64.31,362.37L70.49,365.77L71.73,365.52L80.39,365.8L81.63,364.49L89.05,363L90.28,363.06L96.47,360.31L97.7,360.33L101.41,357.6L102.65,358.19L105.12,362.44L106.36,362.28L107.6,361.38L108.83,361.5L112.54,360.25L113.78,357.88L117.49,357.67L118.73,358.87L119.96,359.01L121.2,355.51L122.44,356.86L123.67,356.92L126.15,360.53L127.39,360.91L131.1,363.2L132.33,363.03L134.81,360.89L136.04,360.21L138.52,358.64L139.75,358.4L140.99,358.58L142.23,359.55L143.46,359.68L144.7,360.59L147.17,361.08L148.41,361.25L153.36,361.67L154.59,362.59L158.3,362.91L159.54,363.85L169.43,368.39L170.67,368.14L173.14,368.85L174.38,369.17L175.62,369.21L176.86,370.01L180.57,371.09L181.8,370.39L189.22,369.49L190.46,369.5L194.17,368.64L195.41,368.25L201.59,367.61L202.83,367.07L205.3,366.2L206.54,365.51L209.01,364.7L210.25,364.66L211.48,365.27L212.72,364.69L218.9,361.83L220.14,359.34L223.85,357.82L225.09,360.45L227.56,359.46L228.8,364.32L231.27,361.43L232.51,360.84L233.75,357.17L234.98,357.86L236.22,357.96L237.46,353.67L241.17,357.71L242.4,358.36L248.59,359.26L249.82,359.21L258.48,362.78L259.72,363.6L260.95,365.3L262.19,365.39L268.37,366.15L269.61,365.88L270.85,365.94L272.08,366.92L273.32,367.86L274.56,367.8L275.8,369.75L277.03,369.47L279.51,368.52L280.74,368.97L283.22,368.75L284.45,367.29L288.16,367.97L289.4,370.12L291.87,369.83L293.11,369.85L295.58,370.54L296.82,370.62L298.06,368.79L299.29,370.08L303,371.36L304.24,371.74L305.48,371.69L306.71,372.58L314.13,375.47L315.37,375.74L322.79,377.46L324.03,378.05L328.98,378.47L330.21,378.48L348.76,377.96L350,377.55L357.42,375.67L358.66,374.35L364.84,367.86L366.08,367.72L368.55,365.64L369.79,365.52L373.5,364.94L374.73,364.9L379.68,364.65L380.92,364.24L383.39,363.75L384.63,362.52L390.81,358.01L392.05,357.94L397,356.92L398.23,357.55L403.18,356.89L404.42,357.11L415.55,361.3L416.78,361.21L419.26,362.08L420.49,363.38L422.97,364.72L424.2,365.3L432.86,369.79L434.1,369.87L435.34,370.03L436.57,371.22L442.76,374.06L443.99,374.04L452.65,375.74L453.89,375.84L456.36,376.13L457.6,375.69L460.07,375.9L461.31,375.8L471.2,375.43L472.44,375.32L487.28,373.46L488.52,374.48L490.99,371.46L492.23,370.2L494.7,368.21L495.94,368.26L497.17,365.26L498.41,365.66L499.65,364.78L500.88,366.43L502.12,363.94L503.36,363.19L504.59,362.81L505.83,360.58L508.3,357.35L509.54,353.44L510.78,353.24L512.01,351.91L513.25,351.76L514.49,348.76L519.43,340.41L520.67,339.33L521.91,338.77L523.14,333.94L528.09,319.5L529.33,317.6L530.57,317.47L531.8,313.7L534.28,310.73L535.51,308.9L541.7,309.45L542.93,309.96L544.17,312.45L545.41,312.99L547.88,313.37L549.12,315.36L550.35,317.12L551.59,316.45L554.06,313.26L555.3,317.61L556.54,315.63L557.77,301.02L562.72,248.73L563.96,248.32L565.19,243.77L566.43,214.13L568.9,183.49L570.14,177.34L571.38,166.86L572.61,149.22L573.85,151.43L575.09,151.51L576.33,155.58L577.56,152.11L578.8,146.51L580.04,132.86L581.27,123.22L582.51,120.57L587.46,43.06L588.69,30.74L589.93,20.26L591.17,17.34L592.4,4.1L593.64,1.34L594.88,0L596.11,5.51L598.59,14.3L599.82,16.62L607.24,94.78L608.48,98.37L610.95,159.21L612.19,183.64L615.9,231.11L617.14,232.66L619.61,260.65L620.85,268.42L623.32,282.89L624.56,285.99L625.8,286.52L627.03,293.89L629.51,302.43L630.74,304.94L633.22,311.29L634.45,313.01L636.93,317.36L638.16,317.69L641.87,317.18L643.11,316.87L649.29,296.46L650.53,293.39L651.77,292.63L653,282.46L659.19,253.9L660.42,252.84L664.13,226.72L665.37,221.27L666.61,216.8L667.84,215.32L669.08,214.81L670.32,212.41L671.55,210.79L672.79,212.64L675.27,218.1L676.5,221.66L677.74,222.82L678.98,229.45" style="fill: rgb(8, 115, 191); fill-opacity: 0.2; stroke-width: 0;"/></g></g><g class="errorbars"/><g class="lines"><path class="js-line" d="M-168.2,378.77L-155.83,379.01L-154.59,378.97L-96.47,379.16L-95.23,378.72L-38.34,377.69L-37.1,377.29L-14.84,376.31L-13.6,376.68L-6.18,377.09L-4.95,376.98L2.47,376.89L3.71,376.28L11.13,373.17L12.37,371.58L18.55,367.98L19.79,368.02L21.02,366.98L22.26,364.82L23.5,364.12L24.73,361.61L27.21,357.44L28.45,357.26L32.16,347.44L33.39,345.25L35.87,340.8L37.1,340.7L38.34,336.33L39.58,334.83L43.29,334.02L44.52,335.04L45.76,335.03L47,339.19L48.23,341.83L49.47,348.54L50.71,349.31L51.94,352.63L54.42,353.74L55.65,356.82L56.89,358.59L58.13,355.48L59.36,358.85L60.6,359.76L63.07,360.38L64.31,362.37L70.49,365.77L71.73,365.52L80.39,365.8L81.63,364.49L89.05,363L90.28,363.06L96.47,360.31L97.7,360.33L101.41,357.6L102.65,358.19L105.12,362.44L106.36,362.28L107.6,361.38L108.83,361.5L112.54,360.25L113.78,357.88L117.49,357.67L118.73,358.87L119.96,359.01L121.2,355.51L122.44,356.86L123.67,356.92L126.15,360.53L127.39,360.91L131.1,363.2L132.33,363.03L134.81,360.89L136.04,360.21L138.52,358.64L139.75,358.4L140.99,358.58L142.23,359.55L143.46,359.68L144.7,360.59L147.17,361.08L148.41,361.25L153.36,361.67L154.59,362.59L158.3,362.91L159.54,363.85L169.43,368.39L170.67,368.14L173.14,368.85L174.38,369.17L175.62,369.21L176.86,370.01L180.57,371.09L181.8,370.39L189.22,369.49L190.46,369.5L194.17,368.64L195.41,368.25L201.59,367.61L202.83,367.07L205.3,366.2L206.54,365.51L209.01,364.7L210.25,364.66L211.48,365.27L212.72,364.69L218.9,361.83L220.14,359.34L223.85,357.82L225.09,360.45L227.56,359.46L228.8,364.32L231.27,361.43L232.51,360.84L233.75,357.17L234.98,357.86L236.22,357.96L237.46,353.67L241.17,357.71L242.4,358.36L248.59,359.26L249.82,359.21L258.48,362.78L259.72,363.6L260.95,365.3L262.19,365.39L268.37,366.15L269.61,365.88L270.85,365.94L272.08,366.92L273.32,367.86L274.56,367.8L275.8,369.75L277.03,369.47L279.51,368.52L280.74,368.97L283.22,368.75L284.45,367.29L288.16,367.97L289.4,370.12L291.87,369.83L293.11,369.85L295.58,370.54L296.82,370.62L298.06,368.79L299.29,370.08L303,371.36L304.24,371.74L305.48,371.69L306.71,372.58L314.13,375.47L315.37,375.74L322.79,377.46L324.03,378.05L328.98,378.47L330.21,378.48L348.76,377.96L350,377.55L357.42,375.67L358.66,374.35L364.84,367.86L366.08,367.72L368.55,365.64L369.79,365.52L373.5,364.94L374.73,364.9L379.68,364.65L380.92,364.24L383.39,363.75L384.63,362.52L390.81,358.01L392.05,357.94L397,356.92L398.23,357.55L403.18,356.89L404.42,357.11L415.55,361.3L416.78,361.21L419.26,362.08L420.49,363.38L422.97,364.72L424.2,365.3L432.86,369.79L434.1,369.87L435.34,370.03L436.57,371.22L442.76,374.06L443.99,374.04L452.65,375.74L453.89,375.84L456.36,376.13L457.6,375.69L460.07,375.9L461.31,375.8L471.2,375.43L472.44,375.32L487.28,373.46L488.52,374.48L490.99,371.46L492.23,370.2L494.7,368.21L495.94,368.26L497.17,365.26L498.41,365.66L499.65,364.78L500.88,366.43L502.12,363.94L503.36,363.19L504.59,362.81L505.83,360.58L508.3,357.35L509.54,353.44L510.78,353.24L512.01,351.91L513.25,351.76L514.49,348.76L519.43,340.41L520.67,339.33L521.91,338.77L523.14,333.94L528.09,319.5L529.33,317.6L530.57,317.47L531.8,313.7L534.28,310.73L535.51,308.9L541.7,309.45L542.93,309.96L544.17,312.45L545.41,312.99L547.88,313.37L549.12,315.36L550.35,317.12L551.59,316.45L554.06,313.26L555.3,317.61L556.54,315.63L557.77,301.02L562.72,248.73L563.96,248.32L565.19,243.77L566.43,214.13L568.9,183.49L570.14,177.34L571.38,166.86L572.61,149.22L573.85,151.43L575.09,151.51L576.33,155.58L577.56,152.11L578.8,146.51L580.04,132.86L581.27,123.22L582.51,120.57L587.46,43.06L588.69,30.74L589.93,20.26L591.17,17.34L592.4,4.1L593.64,1.34L594.88,0L596.11,5.51L598.59,14.3L599.82,16.62L607.24,94.78L608.48,98.37L610.95,159.21L612.19,183.64L615.9,231.11L617.14,232.66L619.61,260.65L620.85,268.42L623.32,282.89L624.56,285.99L625.8,286.52L627.03,293.89L629.51,302.43L630.74,304.94L633.22,311.29L634.45,313.01L636.93,317.36L638.16,317.69L641.87,317.18L643.11,316.87L649.29,296.46L650.53,293.39L651.77,292.63L653,282.46L659.19,253.9L660.42,252.84L664.13,226.72L665.37,221.27L666.61,216.8L667.84,215.32L669.08,214.81L670.32,212.41L671.55,210.79L672.79,212.64L675.27,218.1L676.5,221.66L677.74,222.82L678.98,229.45" style="vector-effect: non-scaling-stroke; fill: none; stroke: rgb(8, 115, 191); stroke-opacity: 1; stroke-width: 0.5px; opacity: 1;"/></g><g class="points"/><g class="text"/></g><g class="trace scatter tracef8d230" style="stroke-miterlimit: 2;"><g class="fills"><g><path class="js-fill" d="M691.34,380L678.98,380L678.98,229.45L681.45,238.24L682.69,241.23L686.4,243.73L687.63,251.26L691.34,265.62" style="fill: rgb(8, 115, 191); fill-opacity: 0.4; stroke-width: 0;"/></g></g><g class="errorbars"/><g class="lines"><path class="js-line" d="M678.98,229.45L681.45,238.24L682.69,241.23L686.4,243.73L687.63,251.26L691.34,265.62" style="vector-effect: non-scaling-stroke; fill: none; stroke: rgb(8, 115, 191); stroke-opacity: 1; stroke-width: 2px; opacity: 1;"/></g><g class="points"/><g class="text"/></g><g class="trace scatter tracedde26b" style="stroke-miterlimit: 2; opacity: 1;"><g class="fills"/><g class="errorbars"/><g class="lines"/><g class="points"><path class="point" transform="translate(691.34,265.62)" d="M15,0A15,15 0 1,1 0,-15A15,15 0 0,1 15,0Z" style="opacity: 1; stroke-width: 0px; fill: rgb(8, 115, 191); fill-opacity: 1;"/></g><g class="text"/></g></g></g><g class="overplot"/><path class="xlines-above crisp" style="fill: none; stroke-width: 1px; stroke: rgb(0, 0, 0); stroke-opacity: 0;" d=""/><path class="ylines-above crisp" style="fill: none;" d="M0,0"/><g class="overlines-above"/><g class="xaxislayer-above"><path class="xtick ticks crisp" d="M0,450v-5" transform="translate(90.81,0)" style="stroke: rgb(68, 68, 68); stroke-opacity: 1; stroke-width: 1px;"/><path class="xtick ticks crisp" d="M0,450v-5" transform="translate(166.25,0)" style="stroke: rgb(68, 68, 68); stroke-opacity: 1; stroke-width: 1px;"/><path class="xtick ticks crisp" d="M0,450v-5" transform="translate(239.22,0)" style="stroke: rgb(68, 68, 68); stroke-opacity: 1; stroke-width: 1px;"/><path class="xtick ticks crisp" d="M0,450v-5" transform="translate(314.66,0)" style="stroke: rgb(68, 68, 68); stroke-opacity: 1; stroke-width: 1px;"/><path class="xtick ticks crisp" d="M0,450v-5" transform="translate(390.11,0)" style="stroke: rgb(68, 68, 68); stroke-opacity: 1; stroke-width: 1px;"/><path class="xtick ticks crisp" d="M0,450v-5" transform="translate(466.78,0)" style="stroke: rgb(68, 68, 68); stroke-opacity: 1; stroke-width: 1px;"/><path class="xtick ticks crisp" d="M0,450v-5" transform="translate(542.23,0)" style="stroke: rgb(68, 68, 68); stroke-opacity: 1; stroke-width: 1px;"/><path class="xtick ticks crisp" d="M0,450v-5" transform="translate(617.67,0)" style="stroke: rgb(68, 68, 68); stroke-opacity: 1; stroke-width: 1px;"/><path class="xtick ticks crisp" d="M0,450v-5" transform="translate(690.64,0)" style="stroke: rgb(68, 68, 68); stroke-opacity: 1; stroke-width: 1px;"/><g class="xtick"><text text-anchor="middle" x="0" y="469" transform="translate(90.81,0)" style="font-family: 'Open Sans', verdana, arial, sans-serif; font-size: 18px; fill: rgb(42, 63, 95); fill-opacity: 1; white-space: pre;">01/11</text></g><g class="xtick"><text text-anchor="middle" x="0" y="469" transform="translate(166.25,0)" style="font-family: 'Open Sans', verdana, arial, sans-serif; font-size: 18px; fill: rgb(42, 63, 95); fill-opacity: 1; white-space: pre;">01/01</text></g><g class="xtick"><text text-anchor="middle" x="0" y="469" transform="translate(239.22,0)" style="font-family: 'Open Sans', verdana, arial, sans-serif; font-size: 18px; fill: rgb(42, 63, 95); fill-opacity: 1; white-space: pre;">01/03</text></g><g class="xtick"><text text-anchor="middle" x="0" y="469" transform="translate(314.66,0)" style="font-family: 'Open Sans', verdana, arial, sans-serif; font-size: 18px; fill: rgb(42, 63, 95); fill-opacity: 1; white-space: pre;">01/05</text></g><g class="xtick"><text text-anchor="middle" x="0" y="469" transform="translate(390.11,0)" style="font-family: 'Open Sans', verdana, arial, sans-serif; font-size: 18px; fill: rgb(42, 63, 95); fill-opacity: 1; white-space: pre;">01/07</text></g><g class="xtick"><text text-anchor="middle" x="0" y="469" transform="translate(466.78,0)" style="font-family: 'Open Sans', verdana, arial, sans-serif; font-size: 18px; fill: rgb(42, 63, 95); fill-opacity: 1; white-space: pre;">01/09</text></g><g class="xtick"><text text-anchor="middle" x="0" y="469" transform="translate(542.23,0)" style="font-family: 'Open Sans', verdana, arial, sans-serif; font-size: 18px; fill: rgb(42, 63, 95); fill-opacity: 1; white-space: pre;">01/11</text></g><g class="xtick"><text text-anchor="middle" x="0" y="469" transform="translate(617.67,0)" style="font-family: 'Open Sans', verdana, arial, sans-serif; font-size: 18px; fill: rgb(42, 63, 95); fill-opacity: 1; white-space: pre;">01/01</text></g><g class="xtick"><text text-anchor="middle" x="0" y="469" transform="translate(690.64,0)" style="font-family: 'Open Sans', verdana, arial, sans-serif; font-size: 18px; fill: rgb(42, 63, 95); fill-opacity: 1; white-space: pre;">01/03</text></g></g><g class="yaxislayer-above"/><g class="overaxes-above"/></g></g><g class="polarlayer"/><g class="ternarylayer"/><g class="geolayer"/><g class="funnelarealayer"/><g class="pielayer"/><g class="treemaplayer"/><g class="sunburstlayer"/><g class="glimages"/><defs id="topdefs-fca089"><g class="clips"/></defs><g class="layer-above"><g class="imagelayer"/><g class="shapelayer"><path data-index="0" fill-rule="evenodd" d="M-645.05,444.97L259.01,444.97" clip-path="url('#clipfca089xy')" style="opacity: 1; stroke: rgb(255, 0, 0); stroke-opacity: 1; fill: rgb(0, 0, 0); fill-opacity: 0; stroke-dasharray: 3px, 3px; stroke-width: 1.5px;"/></g></g><g class="infolayer"><g class="g-gtitle"><text class="gtitle" x="375" y="25" text-anchor="middle" dy="0.7em" style="font-family: 'Open Sans', verdana, arial, sans-serif; font-size: 50px; fill: rgb(42, 63, 95); opacity: 1; font-weight: normal; white-space: pre;"><tspan style="font-weight:bold">Haut-Rhin (68)</tspan></text></g><g class="g-xtitle"/><g class="annotation" data-index="0" style="opacity: 1;"><g class="annotation-text-g" transform="rotate(0,699.34,275.62)"><g class="cursor-pointer" transform="translate(627, 240)"><rect class="bg" x="0.5" y="0.5" width="143" height="71" style="stroke-width: 1px; stroke: rgb(0, 0, 0); stroke-opacity: 0; fill: rgb(255, 255, 255); fill-opacity: 0.6;"/><text class="annotation-text" text-anchor="middle" x="72.078125" y="55.5" style="font-family: 'Open Sans', verdana, arial, sans-serif; font-size: 50px; fill: rgb(8, 115, 191); fill-opacity: 1; white-space: pre;"> <tspan style="font-weight:bold">1137 </tspan></text></g></g><g class="annotation-arrow-g" style="opacity: 1;"><path d="M727.74,311.12L739.34,325.62" style="stroke-width: 1px; stroke: rgb(8, 115, 191); stroke-opacity: 1; stroke-dasharray: 0px, 0px, 18.5691px, 18.5691px;"/></g></g></g></svg>