<svg class="main-svg" xmlns="http://www.w3.org/2000/svg" xmlns:xlink="http://www.w3.org/1999/xlink" width="1125" height="750" style="" viewBox="0 0 750 500"><rect x="0" y="0" width="750" height="500" style="fill: rgb(0, 0, 0); fill-opacity: 0;"/><defs id="defs-e510d1"><g class="clips"><clipPath id="clipe510d1xyplot" class="plotclip"><rect width="700" height="380"/></clipPath><clipPath class="axesclip" id="clipe510d1x"><rect x="50" y="0" width="700" height="500"/></clipPath><clipPath class="axesclip" id="clipe510d1y"><rect x="0" y="70" width="750" height="380"/></clipPath><clipPath class="axesclip" id="clipe510d1xy"><rect x="50" y="70" width="700" height="380"/></clipPath></g><g class="gradients"/></defs><g class="bglayer"><rect class="bg" x="50" y="70" width="700" height="380" style="fill: rgb(0, 0, 0); fill-opacity: 0; stroke-width: 0;"/></g><g class="layer-below"><g class="imagelayer"/><g class="shapelayer"/></g><g class="cartesianlayer"><g class="subplot xy"><g class="layer-subplot"><g class="shapelayer"/><g class="imagelayer"/></g><g class="gridlayer"><g class="x"><path class="xgrid crisp" transform="translate(90.88,0)" d="M0,70v380" style="stroke: rgb(255, 255, 255); stroke-opacity: 1; stroke-width: 1px;"/><path class="xgrid crisp" transform="translate(166.45999999999998,0)" d="M0,70v380" style="stroke: rgb(255, 255, 255); stroke-opacity: 1; stroke-width: 1px;"/><path class="xgrid crisp" transform="translate(239.56,0)" d="M0,70v380" style="stroke: rgb(255, 255, 255); stroke-opacity: 1; stroke-width: 1px;"/><path class="xgrid crisp" transform="translate(315.13,0)" d="M0,70v380" style="stroke: rgb(255, 255, 255); stroke-opacity: 1; stroke-width: 1px;"/><path class="xgrid crisp" transform="translate(390.71,0)" d="M0,70v380" style="stroke: rgb(255, 255, 255); stroke-opacity: 1; stroke-width: 1px;"/><path class="xgrid crisp" transform="translate(467.52,0)" d="M0,70v380" style="stroke: rgb(255, 255, 255); stroke-opacity: 1; stroke-width: 1px;"/><path class="xgrid crisp" transform="translate(543.1,0)" d="M0,70v380" style="stroke: rgb(255, 255, 255); stroke-opacity: 1; stroke-width: 1px;"/><path class="xgrid crisp" transform="translate(618.67,0)" d="M0,70v380" style="stroke: rgb(255, 255, 255); stroke-opacity: 1; stroke-width: 1px;"/><path class="xgrid crisp" transform="translate(691.77,0)" d="M0,70v380" style="stroke: rgb(255, 255, 255); stroke-opacity: 1; stroke-width: 1px;"/></g><g class="y"/></g><g class="zerolinelayer"/><path class="xlines-below"/><path class="ylines-below"/><g class="overlines-below"/><g class="xaxislayer-below"/><g class="yaxislayer-below"/><g class="overaxes-below"/><g class="plot" transform="translate(50, 70)" clip-path="url('#clipe510d1xyplot')"><g class="scatterlayer mlayer"><g class="trace scatter trace08dc3d" style="stroke-miterlimit: 2;"><g class="fills"><g><path class="js-fill" d="M678.94,380L-168.5,380L-168.5,379.89L-97.88,378.32L-96.64,377.83L-80.53,379.57L-79.29,379.61L-61.95,378.58L-60.71,378.16L-47.08,377.84L-45.84,377.87L-14.87,376L-13.63,375.88L-2.48,376.39L-1.24,376.15L2.48,375.71L3.72,375.45L6.19,374.41L7.43,374.22L9.91,373.3L11.15,373.39L13.63,372.49L14.87,372L17.35,370.66L18.58,370.3L21.06,369.33L22.3,367.98L27.26,363.43L28.5,363.22L32.21,358.67L33.45,357.94L37.17,357.19L38.41,355.86L39.65,355.78L40.88,356.6L45.84,359.54L47.08,362.01L52.04,369.48L53.27,369.86L54.51,369.96L55.75,371.94L56.99,373.25L58.23,373.1L60.71,375.32L61.95,375.65L63.19,375.68L64.42,376.5L69.38,377.63L70.62,377.87L78.05,377.4L79.29,377.08L85.49,377.09L86.73,376.75L91.68,375.91L92.92,375.44L96.64,375.3L97.88,375.52L102.83,375.47L104.07,376.07L113.98,374.85L115.22,374.9L120.18,373.52L121.42,371.96L126.37,372.42L127.61,372.78L133.81,372.77L135.04,372.38L138.76,371.84L140,371.59L147.43,371.68L148.67,372.1L149.91,372.14L151.15,373L153.63,373.06L154.87,373.67L163.54,375.83L164.78,375.92L169.73,375.34L170.97,374.54L175.93,373.72L177.17,373.71L182.12,373.91L183.36,374.03L192.04,373.99L193.27,373.87L201.95,372.15L203.19,372.03L204.42,372.26L205.66,371.63L216.81,370.38L218.05,369.99L225.49,369.76L226.73,370L227.96,370.02L229.2,371.88L230.44,371.12L231.68,371.24L236.64,371.13L237.88,369.07L249.03,370.54L250.27,370.39L252.74,369.9L253.98,369.87L268.85,372.94L270.09,373L277.52,372.67L278.76,372.37L283.72,372.27L284.96,371.51L286.19,372.3L287.43,372.16L288.67,372.12L289.91,373.83L296.11,373.02L297.35,372.98L298.58,371.86L299.82,372.47L317.17,376.51L318.41,376.93L340.71,377.84L341.95,377.79L345.66,377.25L346.9,376.75L353.1,375.63L354.34,374.94L359.29,372.93L360.53,372.49L363.01,370.61L364.25,370.26L369.2,369.05L370.44,369.48L374.16,370.57L375.4,370.43L377.88,370.68L379.12,369.86L386.55,367.74L387.79,367.75L391.5,367.16L392.74,367.19L396.46,366.89L397.7,367.31L401.42,367.2L402.65,366.68L408.85,366.84L410.09,367.11L412.57,369.63L413.81,370.58L418.76,372.78L420,373.14L422.48,374.16L423.72,373.71L428.67,374.16L429.91,374.45L431.15,374.58L432.39,375.63L438.58,377.21L439.82,377.18L447.26,377.97L448.5,378.34L454.69,378.55L455.93,378.58L463.36,377.6L464.6,377.2L468.32,376.94L469.56,377.06L483.19,376.12L484.42,375.99L488.14,375.83L489.38,376.47L494.34,374.67L495.58,374.24L496.81,374.18L498.05,372.1L500.53,371.04L501.77,371.86L509.2,367.2L510.44,364.92L514.16,364.3L515.4,364.38L517.88,363.4L519.12,362.18L521.59,360.76L522.83,360.65L526.55,355.23L527.79,354.04L530.27,351.3L531.5,351.27L532.74,350.07L533.98,350.94L536.46,350.99L537.7,352.25L540.18,352.35L541.42,352.28L543.89,351.45L545.13,352.33L546.37,351.8L547.61,352.51L548.85,352.66L550.09,352.04L551.33,350.59L552.57,347.03L555.04,338.38L556.28,339.49L557.52,337.59L558.76,319.29L563.72,258.6L564.96,257.77L566.19,254.17L567.43,223.58L569.91,193.01L571.15,188.07L573.63,157.64L574.87,155.45L576.11,160.46L577.35,161.42L578.58,158.59L579.82,151.18L582.3,140.42L583.54,138.96L589.73,74.92L590.97,65.1L592.21,62.34L593.45,45.56L597.17,18.61L598.41,10.91L602.12,0L603.36,5.93L605.84,24.37L607.08,40.14L609.56,59.89L610.8,93.96L614.51,166.35L615.75,183.39L616.99,192.84L618.23,195.35L620.71,223.4L621.95,232.24L625.66,247.06L626.9,247.73L629.38,256.52L630.62,259.51L631.86,262.28L633.1,267.08L635.58,270.93L636.81,271.67L638.05,271.74L639.29,270.84L640.53,269.54L641.77,266.87L644.25,264.45L645.49,258.52L647.96,247.56L649.2,240.35L651.68,228.04L652.92,226.68L655.4,209.27L656.64,203.46L660.35,188.62L661.59,187.85L665.31,153.84L666.55,145.83L669.03,137.15L670.27,137.94L671.5,135.82L672.74,137.08L675.22,144.09L676.46,151.57L677.7,156.12L678.94,157.02" style="fill: rgb(8, 115, 191); fill-opacity: 0.2; stroke-width: 0;"/></g></g><g class="errorbars"/><g class="lines"><path class="js-line" d="M-168.5,379.89L-97.88,378.32L-96.64,377.83L-80.53,379.57L-79.29,379.61L-61.95,378.58L-60.71,378.16L-47.08,377.84L-45.84,377.87L-14.87,376L-13.63,375.88L-2.48,376.39L-1.24,376.15L2.48,375.71L3.72,375.45L6.19,374.41L7.43,374.22L9.91,373.3L11.15,373.39L13.63,372.49L14.87,372L17.35,370.66L18.58,370.3L21.06,369.33L22.3,367.98L27.26,363.43L28.5,363.22L32.21,358.67L33.45,357.94L37.17,357.19L38.41,355.86L39.65,355.78L40.88,356.6L45.84,359.54L47.08,362.01L52.04,369.48L53.27,369.86L54.51,369.96L55.75,371.94L56.99,373.25L58.23,373.1L60.71,375.32L61.95,375.65L63.19,375.68L64.42,376.5L69.38,377.63L70.62,377.87L78.05,377.4L79.29,377.08L85.49,377.09L86.73,376.75L91.68,375.91L92.92,375.44L96.64,375.3L97.88,375.52L102.83,375.47L104.07,376.07L113.98,374.85L115.22,374.9L120.18,373.52L121.42,371.96L126.37,372.42L127.61,372.78L133.81,372.77L135.04,372.38L138.76,371.84L140,371.59L147.43,371.68L148.67,372.1L149.91,372.14L151.15,373L153.63,373.06L154.87,373.67L163.54,375.83L164.78,375.92L169.73,375.34L170.97,374.54L175.93,373.72L177.17,373.71L182.12,373.91L183.36,374.03L192.04,373.99L193.27,373.87L201.95,372.15L203.19,372.03L204.42,372.26L205.66,371.63L216.81,370.38L218.05,369.99L225.49,369.76L226.73,370L227.96,370.02L229.2,371.88L230.44,371.12L231.68,371.24L236.64,371.13L237.88,369.07L249.03,370.54L250.27,370.39L252.74,369.9L253.98,369.87L268.85,372.94L270.09,373L277.52,372.67L278.76,372.37L283.72,372.27L284.96,371.51L286.19,372.3L287.43,372.16L288.67,372.12L289.91,373.83L296.11,373.02L297.35,372.98L298.58,371.86L299.82,372.47L317.17,376.51L318.41,376.93L340.71,377.84L341.95,377.79L345.66,377.25L346.9,376.75L353.1,375.63L354.34,374.94L359.29,372.93L360.53,372.49L363.01,370.61L364.25,370.26L369.2,369.05L370.44,369.48L374.16,370.57L375.4,370.43L377.88,370.68L379.12,369.86L386.55,367.74L387.79,367.75L391.5,367.16L392.74,367.19L396.46,366.89L397.7,367.31L401.42,367.2L402.65,366.68L408.85,366.84L410.09,367.11L412.57,369.63L413.81,370.58L418.76,372.78L420,373.14L422.48,374.16L423.72,373.71L428.67,374.16L429.91,374.45L431.15,374.58L432.39,375.63L438.58,377.21L439.82,377.18L447.26,377.97L448.5,378.34L454.69,378.55L455.93,378.58L463.36,377.6L464.6,377.2L468.32,376.94L469.56,377.06L483.19,376.12L484.42,375.99L488.14,375.83L489.38,376.47L494.34,374.67L495.58,374.24L496.81,374.18L498.05,372.1L500.53,371.04L501.77,371.86L509.2,367.2L510.44,364.92L514.16,364.3L515.4,364.38L517.88,363.4L519.12,362.18L521.59,360.76L522.83,360.65L526.55,355.23L527.79,354.04L530.27,351.3L531.5,351.27L532.74,350.07L533.98,350.94L536.46,350.99L537.7,352.25L540.18,352.35L541.42,352.28L543.89,351.45L545.13,352.33L546.37,351.8L547.61,352.51L548.85,352.66L550.09,352.04L551.33,350.59L552.57,347.03L555.04,338.38L556.28,339.49L557.52,337.59L558.76,319.29L563.72,258.6L564.96,257.77L566.19,254.17L567.43,223.58L569.91,193.01L571.15,188.07L573.63,157.64L574.87,155.45L576.11,160.46L577.35,161.42L578.58,158.59L579.82,151.18L582.3,140.42L583.54,138.96L589.73,74.92L590.97,65.1L592.21,62.34L593.45,45.56L597.17,18.61L598.41,10.91L602.12,0L603.36,5.93L605.84,24.37L607.08,40.14L609.56,59.89L610.8,93.96L614.51,166.35L615.75,183.39L616.99,192.84L618.23,195.35L620.71,223.4L621.95,232.24L625.66,247.06L626.9,247.73L629.38,256.52L630.62,259.51L631.86,262.28L633.1,267.08L635.58,270.93L636.81,271.67L638.05,271.74L639.29,270.84L640.53,269.54L641.77,266.87L644.25,264.45L645.49,258.52L647.96,247.56L649.2,240.35L651.68,228.04L652.92,226.68L655.4,209.27L656.64,203.46L660.35,188.62L661.59,187.85L665.31,153.84L666.55,145.83L669.03,137.15L670.27,137.94L671.5,135.82L672.74,137.08L675.22,144.09L676.46,151.57L677.7,156.12L678.94,157.02" style="vector-effect: non-scaling-stroke; fill: none; stroke: rgb(8, 115, 191); stroke-opacity: 1; stroke-width: 0.5px; opacity: 1;"/></g><g class="points"/><g class="text"/></g><g class="trace scatter trace7362e8" style="stroke-miterlimit: 2;"><g class="fills"><g><path class="js-fill" d="M691.33,380L678.94,380L678.94,157.02L681.42,173.05L682.65,176.86L683.89,177.23L685.13,174.96L687.61,176.31L688.85,180.19L691.33,190.79" style="fill: rgb(8, 115, 191); fill-opacity: 0.4; stroke-width: 0;"/></g></g><g class="errorbars"/><g class="lines"><path class="js-line" d="M678.94,157.02L681.42,173.05L682.65,176.86L683.89,177.23L685.13,174.96L687.61,176.31L688.85,180.19L691.33,190.79" style="vector-effect: non-scaling-stroke; fill: none; stroke: rgb(8, 115, 191); stroke-opacity: 1; stroke-width: 2px; opacity: 1;"/></g><g class="points"/><g class="text"/></g><g class="trace scatter trace800c59" style="stroke-miterlimit: 2; opacity: 1;"><g class="fills"/><g class="errorbars"/><g class="lines"/><g class="points"><path class="point" transform="translate(691.33,190.79)" d="M15,0A15,15 0 1,1 0,-15A15,15 0 0,1 15,0Z" style="opacity: 1; stroke-width: 0px; fill: rgb(8, 115, 191); fill-opacity: 1;"/></g><g class="text"/></g></g></g><g class="overplot"/><path class="xlines-above crisp" style="fill: none; stroke-width: 1px; stroke: rgb(0, 0, 0); stroke-opacity: 0;" d=""/><path class="ylines-above crisp" style="fill: none;" d="M0,0"/><g class="overlines-above"/><g class="xaxislayer-above"><path class="xtick ticks crisp" d="M0,450v-5" transform="translate(90.88,0)" style="stroke: rgb(68, 68, 68); stroke-opacity: 1; stroke-width: 1px;"/><path class="xtick ticks crisp" d="M0,450v-5" transform="translate(166.45999999999998,0)" style="stroke: rgb(68, 68, 68); stroke-opacity: 1; stroke-width: 1px;"/><path class="xtick ticks crisp" d="M0,450v-5" transform="translate(239.56,0)" style="stroke: rgb(68, 68, 68); stroke-opacity: 1; stroke-width: 1px;"/><path class="xtick ticks crisp" d="M0,450v-5" transform="translate(315.13,0)" style="stroke: rgb(68, 68, 68); stroke-opacity: 1; stroke-width: 1px;"/><path class="xtick ticks crisp" d="M0,450v-5" transform="translate(390.71,0)" style="stroke: rgb(68, 68, 68); stroke-opacity: 1; stroke-width: 1px;"/><path class="xtick ticks crisp" d="M0,450v-5" transform="translate(467.52,0)" style="stroke: rgb(68, 68, 68); stroke-opacity: 1; stroke-width: 1px;"/><path class="xtick ticks crisp" d="M0,450v-5" transform="translate(543.1,0)" style="stroke: rgb(68, 68, 68); stroke-opacity: 1; stroke-width: 1px;"/><path class="xtick ticks crisp" d="M0,450v-5" transform="translate(618.67,0)" style="stroke: rgb(68, 68, 68); stroke-opacity: 1; stroke-width: 1px;"/><path class="xtick ticks crisp" d="M0,450v-5" transform="translate(691.77,0)" style="stroke: rgb(68, 68, 68); stroke-opacity: 1; stroke-width: 1px;"/><g class="xtick"><text text-anchor="middle" x="0" y="469" transform="translate(90.88,0)" style="font-family: 'Open Sans', verdana, arial, sans-serif; font-size: 18px; fill: rgb(42, 63, 95); fill-opacity: 1; white-space: pre;">01/11</text></g><g class="xtick"><text text-anchor="middle" x="0" y="469" transform="translate(166.45999999999998,0)" style="font-family: 'Open Sans', verdana, arial, sans-serif; font-size: 18px; fill: rgb(42, 63, 95); fill-opacity: 1; white-space: pre;">01/01</text></g><g class="xtick"><text text-anchor="middle" x="0" y="469" transform="translate(239.56,0)" style="font-family: 'Open Sans', verdana, arial, sans-serif; font-size: 18px; fill: rgb(42, 63, 95); fill-opacity: 1; white-space: pre;">01/03</text></g><g class="xtick"><text text-anchor="middle" x="0" y="469" transform="translate(315.13,0)" style="font-family: 'Open Sans', verdana, arial, sans-serif; font-size: 18px; fill: rgb(42, 63, 95); fill-opacity: 1; white-space: pre;">01/05</text></g><g class="xtick"><text text-anchor="middle" x="0" y="469" transform="translate(390.71,0)" style="font-family: 'Open Sans', verdana, arial, sans-serif; font-size: 18px; fill: rgb(42, 63, 95); fill-opacity: 1; white-space: pre;">01/07</text></g><g class="xtick"><text text-anchor="middle" x="0" y="469" transform="translate(467.52,0)" style="font-family: 'Open Sans', verdana, arial, sans-serif; font-size: 18px; fill: rgb(42, 63, 95); fill-opacity: 1; white-space: pre;">01/09</text></g><g class="xtick"><text text-anchor="middle" x="0" y="469" transform="translate(543.1,0)" style="font-family: 'Open Sans', verdana, arial, sans-serif; font-size: 18px; fill: rgb(42, 63, 95); fill-opacity: 1; white-space: pre;">01/11</text></g><g class="xtick"><text text-anchor="middle" x="0" y="469" transform="translate(618.67,0)" style="font-family: 'Open Sans', verdana, arial, sans-serif; font-size: 18px; fill: rgb(42, 63, 95); fill-opacity: 1; white-space: pre;">01/01</text></g><g class="xtick"><text text-anchor="middle" x="0" y="469" transform="translate(691.77,0)" style="font-family: 'Open Sans', verdana, arial, sans-serif; font-size: 18px; fill: rgb(42, 63, 95); fill-opacity: 1; white-space: pre;">01/03</text></g></g><g class="yaxislayer-above"/><g class="overaxes-above"/></g></g><g class="polarlayer"/><g class="ternarylayer"/><g class="geolayer"/><g class="funnelarealayer"/><g class="pielayer"/><g class="treemaplayer"/><g class="sunburstlayer"/><g class="glimages"/><defs id="topdefs-e510d1"><g class="clips"/></defs><g class="layer-above"><g class="imagelayer"/><g class="shapelayer"><path data-index="0" fill-rule="evenodd" d="M-646.28,443.92L259.38,443.92" clip-path="url('#clipe510d1xy')" style="opacity: 1; stroke: rgb(255, 0, 0); stroke-opacity: 1; fill: rgb(0, 0, 0); fill-opacity: 0; stroke-dasharray: 3px, 3px; stroke-width: 1.5px;"/></g></g><g class="infolayer"><g class="g-gtitle"><text class="gtitle" x="375" y="25" text-anchor="middle" dy="0.7em" style="font-family: 'Open Sans', verdana, arial, sans-serif; font-size: 50px; fill: rgb(42, 63, 95); opacity: 1; font-weight: normal; white-space: pre;"><tspan style="font-weight:bold">Finistère (29)</tspan></text></g><g class="g-xtitle"/><g class="annotation" data-index="0" style="opacity: 1;"><g class="annotation-text-g" transform="rotate(0,699.33,200.78999999999996)"><g class="cursor-pointer" transform="translate(627, 165)"><rect class="bg" x="0.5" y="0.5" width="143" height="71" style="stroke-width: 1px; stroke: rgb(0, 0, 0); stroke-opacity: 0; fill: rgb(255, 255, 255); fill-opacity: 0.6;"/><text class="annotation-text" text-anchor="middle" x="72.078125" y="55.5" style="font-family: 'Open Sans', verdana, arial, sans-serif; font-size: 50px; fill: rgb(8, 115, 191); fill-opacity: 1; white-space: pre;"> <tspan style="font-weight:bold">1555 </tspan></text></g></g><g class="annotation-arrow-g" style="opacity: 1;"><path d="M727.73,236.28999999999996L739.33,250.78999999999996" style="stroke-width: 1px; stroke: rgb(8, 115, 191); stroke-opacity: 1; stroke-dasharray: 0px, 0px, 18.5691px, 18.5691px;"/></g></g></g></svg>