<svg class="main-svg" xmlns="http://www.w3.org/2000/svg" xmlns:xlink="http://www.w3.org/1999/xlink" width="1125" height="750" style="" viewBox="0 0 750 500"><rect x="0" y="0" width="750" height="500" style="fill: rgb(0, 0, 0); fill-opacity: 0;"/><defs id="defs-de0023"><g class="clips"><clipPath id="clipde0023xyplot" class="plotclip"><rect width="690" height="380"/></clipPath><clipPath class="axesclip" id="clipde0023x"><rect x="50" y="0" width="690" height="500"/></clipPath><clipPath class="axesclip" id="clipde0023y"><rect x="0" y="70" width="750" height="380"/></clipPath><clipPath class="axesclip" id="clipde0023xy"><rect x="50" y="70" width="690" height="380"/></clipPath></g><g class="gradients"/></defs><g class="bglayer"><rect class="bg" x="50" y="70" width="690" height="380" style="fill: rgb(0, 0, 0); fill-opacity: 0; stroke-width: 0;"/></g><g class="layer-below"><g class="imagelayer"/><g class="shapelayer"/></g><g class="cartesianlayer"><g class="subplot xy"><g class="layer-subplot"><g class="shapelayer"/><g class="imagelayer"/></g><g class="gridlayer"><g class="x"><path class="xgrid crisp" transform="translate(88.53,0)" d="M0,70v380" style="stroke: rgb(255, 255, 255); stroke-opacity: 1; stroke-width: 1px;"/><path class="xgrid crisp" transform="translate(159.75,0)" d="M0,70v380" style="stroke: rgb(255, 255, 255); stroke-opacity: 1; stroke-width: 1px;"/><path class="xgrid crisp" transform="translate(228.63,0)" d="M0,70v380" style="stroke: rgb(255, 255, 255); stroke-opacity: 1; stroke-width: 1px;"/><path class="xgrid crisp" transform="translate(299.85,0)" d="M0,70v380" style="stroke: rgb(255, 255, 255); stroke-opacity: 1; stroke-width: 1px;"/><path class="xgrid crisp" transform="translate(371.07,0)" d="M0,70v380" style="stroke: rgb(255, 255, 255); stroke-opacity: 1; stroke-width: 1px;"/><path class="xgrid crisp" transform="translate(443.45,0)" d="M0,70v380" style="stroke: rgb(255, 255, 255); stroke-opacity: 1; stroke-width: 1px;"/><path class="xgrid crisp" transform="translate(514.6700000000001,0)" d="M0,70v380" style="stroke: rgb(255, 255, 255); stroke-opacity: 1; stroke-width: 1px;"/><path class="xgrid crisp" transform="translate(585.89,0)" d="M0,70v380" style="stroke: rgb(255, 255, 255); stroke-opacity: 1; stroke-width: 1px;"/><path class="xgrid crisp" transform="translate(654.77,0)" d="M0,70v380" style="stroke: rgb(255, 255, 255); stroke-opacity: 1; stroke-width: 1px;"/><path class="xgrid crisp" transform="translate(725.99,0)" d="M0,70v380" style="stroke: rgb(255, 255, 255); stroke-opacity: 1; stroke-width: 1px;"/></g><g class="y"/></g><g class="zerolinelayer"/><path class="xlines-below"/><path class="ylines-below"/><g class="overlines-below"/><g class="xaxislayer-below"/><g class="yaxislayer-below"/><g class="overaxes-below"/><g class="plot" transform="translate(50, 70)" clip-path="url('#clipde0023xyplot')"><g class="scatterlayer mlayer"><g class="trace scatter trace3fd324" style="stroke-miterlimit: 2;"><g class="fills"><g><path class="js-fill" d="M670.15,380L-158.78,380L-158.78,378.68L-52.54,378.73L-51.37,378.96L-29.19,378.4L-28.02,378.02L-25.69,377.13L-24.52,376.28L-22.18,376.23L-21.02,374.77L-14.01,373.69L-12.84,374.44L-11.68,374.02L-10.51,374.58L-4.67,374.3L-3.5,373.73L-1.17,371.09L0,371.19L2.34,371.28L3.5,370.01L4.67,368.08L5.84,368.83L7.01,368.27L8.17,366.81L11.68,367.32L12.84,369.35L14.01,369.59L15.18,368.64L16.35,368.78L17.51,368.13L19.85,366.95L21.02,365.44L23.35,363.22L24.52,359.5L26.85,356.82L28.02,351.96L31.52,340.09L32.69,338.15L37.36,335.85L38.53,338.11L43.2,339.62L44.37,340.84L45.53,342.21L46.7,347.16L47.87,346.21L49.04,348.62L51.37,348.14L52.54,349.23L53.71,351.63L54.87,348.19L56.04,351.4L57.21,351.73L58.38,354.18L59.54,354.08L61.88,356.77L63.05,358.13L64.21,357.85L65.38,359.22L67.72,360.4L68.88,362.38L71.22,362.47L72.39,363.55L75.89,363.37L77.06,361.15L81.73,355.4L82.89,355.07L86.4,354.74L87.56,356.16L88.73,356.39L89.9,354.84L92.23,354.65L93.4,355.12L95.74,353.99L96.9,354.74L98.07,359.55L99.24,358.13L101.57,357.99L102.74,356.86L105.08,354.93L106.24,355.12L107.41,355.87L108.58,355.5L109.75,355.97L110.91,354.98L113.25,357.05L114.42,353.75L115.58,354.84L116.75,354.79L117.92,354.98L119.09,356.01L120.25,355.87L121.42,354.13L122.59,354.18L123.76,353.33L124.92,353.47L126.09,352.76L128.43,354.46L129.59,356.77L130.76,355.97L131.93,356.72L133.1,356.67L134.26,357.81L136.6,357.15L137.77,355.97L138.93,357.33L140.1,357.15L141.27,357.43L142.44,356.25L143.6,356.44L144.77,357.81L147.11,359.22L148.27,359.64L149.44,359.83L150.61,361.67L152.94,364.36L154.11,365.77L157.61,366.15L158.78,368.5L162.28,368.6L163.45,368.31L165.79,367.8L166.95,366.15L168.12,366.19L169.29,365.3L171.62,364.12L172.79,364.17L173.96,364.21L175.13,362.71L176.29,360.54L177.46,360.21L178.63,360.73L179.8,359.22L184.47,361.01L185.63,360.3L186.8,358.89L187.97,359.17L189.14,357.76L190.3,357.85L196.14,348.57L197.31,348.29L198.48,347.67L199.64,345.69L200.81,342.73L201.98,342.25L204.31,340.04L205.48,338.86L206.65,338.96L207.82,337.97L208.98,338.44L210.15,337.87L212.49,341.12L213.65,341.97L214.82,341.55L215.99,349.56L217.16,345.27L218.32,344.09L219.49,342.4L220.66,339.38L222.99,338.77L224.16,330.1L225.33,335.42L226.5,334.86L227.66,335.14L228.83,337.21L231.17,337.21L232.34,339.71L233.5,340.51L234.67,343.9L237.01,346.26L238.17,346.31L240.51,347.39L241.68,350.12L245.18,353.94L246.35,357.15L247.51,357.29L248.68,358.79L252.18,358.56L253.35,357.95L255.69,357.99L256.85,356.86L258.02,356.06L259.19,354.22L260.36,357.57L261.52,357.9L262.69,356.01L263.86,356.39L265.03,357.38L266.19,356.96L267.36,358.23L268.53,356.01L270.86,357.38L272.03,357.29L273.2,361.62L274.37,360.77L277.87,361.76L279.04,362.66L280.2,362.8L281.37,360.59L283.71,366.85L284.87,368.13L287.21,369.54L288.38,369.68L290.71,371.61L291.88,372.18L295.38,374.72L296.55,374.82L298.88,375.29L300.05,375.62L305.89,377.08L307.06,377.74L309.39,378.35L310.56,378.16L316.4,378.12L317.56,378.12L322.23,378.59L323.4,378.73L329.24,378.87L330.41,378.49L335.08,375.71L336.24,374.63L338.58,373.64L339.75,372.79L340.91,371.8L342.08,372.18L344.42,372.79L345.58,372.46L347.92,371.71L349.09,371.75L352.59,371.47L353.76,371.85L357.26,371.66L358.43,370.67L359.59,370.39L360.76,368.88L364.26,368.5L365.43,367.51L367.77,366.66L368.93,367.89L371.27,368.17L372.44,368.74L374.77,369.87L375.94,370.67L378.27,370.58L379.44,370.62L384.11,370.62L385.28,370.76L387.61,370.53L388.78,371.33L406.29,377.03L407.46,376.98L409.8,377.08L410.96,376.89L413.3,376.89L414.47,376.89L417.97,377.6L419.14,377.74L422.64,377.64L423.81,377.27L435.48,375.99L436.65,375.38L443.65,376.37L444.82,377.17L447.16,377.46L448.32,377.36L454.16,376.7L455.33,376.32L458.83,375.48L460,375.43L462.34,375.43L463.5,375.1L468.17,373.54L469.34,371.94L470.51,371.8L471.68,370.58L472.84,371.61L474.01,369.07L476.35,367.8L477.51,364.54L479.85,361.86L481.02,357.48L483.35,355.35L484.52,355.35L485.69,355.87L486.85,354.84L488.02,351.3L489.19,350.41L490.36,348.24L491.52,348.62L492.69,348.9L493.86,346.92L495.03,345.55L496.19,345.65L497.36,343.15L498.53,343.2L500.86,341.88L502.03,341.88L504.37,342.21L505.53,343.76L509.04,345.55L510.2,343.57L516.04,340.32L517.21,339.57L518.38,340.28L519.54,339.29L520.71,338.06L521.88,334.53L523.05,330.9L524.21,334.15L525.38,333.44L526.55,319.78L531.22,263.84L532.39,262.29L533.55,257.9L534.72,229.3L537.06,188.73L538.22,182.18L539.39,172.09L540.56,153.95L541.73,153.34L542.89,143.87L544.06,143.87L545.23,135.34L547.56,115.78L548.73,104.19L549.9,100.65L551.07,83.69L554.57,28.04L555.74,16.3L558.07,5.8L559.24,0L563.91,17.48L565.08,19.04L566.24,23.75L567.41,24.69L568.58,31.01L569.75,43.16L573.25,89.82L574.42,92.64L576.75,161.77L577.92,184.3L580.25,217.9L581.42,228.12L582.59,230.01L583.76,239.38L588.43,269.78L589.59,275.72L590.76,276L591.93,284.62L594.26,296.4L595.43,298.05L597.77,304.93L598.93,306.54L600.1,308.18L601.27,306.3L607.11,297.53L608.27,293.29L611.78,285.85L612.94,279.53L614.11,274.68L615.28,275.1L622.28,242.68L623.45,241.79L626.95,202.58L628.12,194.38L630.46,185.33L631.62,185.24L633.96,175.86L635.13,171.81L636.29,171.15L637.46,172.42L638.63,173.93L639.8,173.08L640.96,171.15L642.13,171.34L643.3,169.5L644.47,165.07L646.8,155.46L647.97,156.54L651.47,183.64L652.64,195.98L654.97,212.67L656.14,213.47L657.31,253.66L658.48,250.65L663.15,277.08L664.31,278.26L665.48,261.25L666.65,280.9L670.15,303.71" style="fill: rgb(8, 115, 191); fill-opacity: 0.2; stroke-width: 0;"/></g></g><g class="errorbars"/><g class="lines"><path class="js-line" d="M-158.78,378.68L-52.54,378.73L-51.37,378.96L-29.19,378.4L-28.02,378.02L-25.69,377.13L-24.52,376.28L-22.18,376.23L-21.02,374.77L-14.01,373.69L-12.84,374.44L-11.68,374.02L-10.51,374.58L-4.67,374.3L-3.5,373.73L-1.17,371.09L0,371.19L2.34,371.28L3.5,370.01L4.67,368.08L5.84,368.83L7.01,368.27L8.17,366.81L11.68,367.32L12.84,369.35L14.01,369.59L15.18,368.64L16.35,368.78L17.51,368.13L19.85,366.95L21.02,365.44L23.35,363.22L24.52,359.5L26.85,356.82L28.02,351.96L31.52,340.09L32.69,338.15L37.36,335.85L38.53,338.11L43.2,339.62L44.37,340.84L45.53,342.21L46.7,347.16L47.87,346.21L49.04,348.62L51.37,348.14L52.54,349.23L53.71,351.63L54.87,348.19L56.04,351.4L57.21,351.73L58.38,354.18L59.54,354.08L61.88,356.77L63.05,358.13L64.21,357.85L65.38,359.22L67.72,360.4L68.88,362.38L71.22,362.47L72.39,363.55L75.89,363.37L77.06,361.15L81.73,355.4L82.89,355.07L86.4,354.74L87.56,356.16L88.73,356.39L89.9,354.84L92.23,354.65L93.4,355.12L95.74,353.99L96.9,354.74L98.07,359.55L99.24,358.13L101.57,357.99L102.74,356.86L105.08,354.93L106.24,355.12L107.41,355.87L108.58,355.5L109.75,355.97L110.91,354.98L113.25,357.05L114.42,353.75L115.58,354.84L116.75,354.79L117.92,354.98L119.09,356.01L120.25,355.87L121.42,354.13L122.59,354.18L123.76,353.33L124.92,353.47L126.09,352.76L128.43,354.46L129.59,356.77L130.76,355.97L131.93,356.72L133.1,356.67L134.26,357.81L136.6,357.15L137.77,355.97L138.93,357.33L140.1,357.15L141.27,357.43L142.44,356.25L143.6,356.44L144.77,357.81L147.11,359.22L148.27,359.64L149.44,359.83L150.61,361.67L152.94,364.36L154.11,365.77L157.61,366.15L158.78,368.5L162.28,368.6L163.45,368.31L165.79,367.8L166.95,366.15L168.12,366.19L169.29,365.3L171.62,364.12L172.79,364.17L173.96,364.21L175.13,362.71L176.29,360.54L177.46,360.21L178.63,360.73L179.8,359.22L184.47,361.01L185.63,360.3L186.8,358.89L187.97,359.17L189.14,357.76L190.3,357.85L196.14,348.57L197.31,348.29L198.48,347.67L199.64,345.69L200.81,342.73L201.98,342.25L204.31,340.04L205.48,338.86L206.65,338.96L207.82,337.97L208.98,338.44L210.15,337.87L212.49,341.12L213.65,341.97L214.82,341.55L215.99,349.56L217.16,345.27L218.32,344.09L219.49,342.4L220.66,339.38L222.99,338.77L224.16,330.1L225.33,335.42L226.5,334.86L227.66,335.14L228.83,337.21L231.17,337.21L232.34,339.71L233.5,340.51L234.67,343.9L237.01,346.26L238.17,346.31L240.51,347.39L241.68,350.12L245.18,353.94L246.35,357.15L247.51,357.29L248.68,358.79L252.18,358.56L253.35,357.95L255.69,357.99L256.85,356.86L258.02,356.06L259.19,354.22L260.36,357.57L261.52,357.9L262.69,356.01L263.86,356.39L265.03,357.38L266.19,356.96L267.36,358.23L268.53,356.01L270.86,357.38L272.03,357.29L273.2,361.62L274.37,360.77L277.87,361.76L279.04,362.66L280.2,362.8L281.37,360.59L283.71,366.85L284.87,368.13L287.21,369.54L288.38,369.68L290.71,371.61L291.88,372.18L295.38,374.72L296.55,374.82L298.88,375.29L300.05,375.62L305.89,377.08L307.06,377.74L309.39,378.35L310.56,378.16L316.4,378.12L317.56,378.12L322.23,378.59L323.4,378.73L329.24,378.87L330.41,378.49L335.08,375.71L336.24,374.63L338.58,373.64L339.75,372.79L340.91,371.8L342.08,372.18L344.42,372.79L345.58,372.46L347.92,371.71L349.09,371.75L352.59,371.47L353.76,371.85L357.26,371.66L358.43,370.67L359.59,370.39L360.76,368.88L364.26,368.5L365.43,367.51L367.77,366.66L368.93,367.89L371.27,368.17L372.44,368.74L374.77,369.87L375.94,370.67L378.27,370.58L379.44,370.62L384.11,370.62L385.28,370.76L387.61,370.53L388.78,371.33L406.29,377.03L407.46,376.98L409.8,377.08L410.96,376.89L413.3,376.89L414.47,376.89L417.97,377.6L419.14,377.74L422.64,377.64L423.81,377.27L435.48,375.99L436.65,375.38L443.65,376.37L444.82,377.17L447.16,377.46L448.32,377.36L454.16,376.7L455.33,376.32L458.83,375.48L460,375.43L462.34,375.43L463.5,375.1L468.17,373.54L469.34,371.94L470.51,371.8L471.68,370.58L472.84,371.61L474.01,369.07L476.35,367.8L477.51,364.54L479.85,361.86L481.02,357.48L483.35,355.35L484.52,355.35L485.69,355.87L486.85,354.84L488.02,351.3L489.19,350.41L490.36,348.24L491.52,348.62L492.69,348.9L493.86,346.92L495.03,345.55L496.19,345.65L497.36,343.15L498.53,343.2L500.86,341.88L502.03,341.88L504.37,342.21L505.53,343.76L509.04,345.55L510.2,343.57L516.04,340.32L517.21,339.57L518.38,340.28L519.54,339.29L520.71,338.06L521.88,334.53L523.05,330.9L524.21,334.15L525.38,333.44L526.55,319.78L531.22,263.84L532.39,262.29L533.55,257.9L534.72,229.3L537.06,188.73L538.22,182.18L539.39,172.09L540.56,153.95L541.73,153.34L542.89,143.87L544.06,143.87L545.23,135.34L547.56,115.78L548.73,104.19L549.9,100.65L551.07,83.69L554.57,28.04L555.74,16.3L558.07,5.8L559.24,0L563.91,17.48L565.08,19.04L566.24,23.75L567.41,24.69L568.58,31.01L569.75,43.16L573.25,89.82L574.42,92.64L576.75,161.77L577.92,184.3L580.25,217.9L581.42,228.12L582.59,230.01L583.76,239.38L588.43,269.78L589.59,275.72L590.76,276L591.93,284.62L594.26,296.4L595.43,298.05L597.77,304.93L598.93,306.54L600.1,308.18L601.27,306.3L607.11,297.53L608.27,293.29L611.78,285.85L612.94,279.53L614.11,274.68L615.28,275.1L622.28,242.68L623.45,241.79L626.95,202.58L628.12,194.38L630.46,185.33L631.62,185.24L633.96,175.86L635.13,171.81L636.29,171.15L637.46,172.42L638.63,173.93L639.8,173.08L640.96,171.15L642.13,171.34L643.3,169.5L644.47,165.07L646.8,155.46L647.97,156.54L651.47,183.64L652.64,195.98L654.97,212.67L656.14,213.47L657.31,253.66L658.48,250.65L663.15,277.08L664.31,278.26L665.48,261.25L666.65,280.9L670.15,303.71" style="vector-effect: non-scaling-stroke; fill: none; stroke: rgb(8, 115, 191); stroke-opacity: 1; stroke-width: 0.5px; opacity: 1;"/></g><g class="points"/><g class="text"/></g><g class="trace scatter tracebfef0b" style="stroke-miterlimit: 2;"><g class="fills"><g><path class="js-fill" d="M681.83,380L670.15,380L670.15,303.71L671.32,307.52L672.49,307.9L674.82,317.84L675.99,321L679.49,326.14L680.66,326.66L681.83,329.06" style="fill: rgb(8, 115, 191); fill-opacity: 0.4; stroke-width: 0;"/></g></g><g class="errorbars"/><g class="lines"><path class="js-line" d="M670.15,303.71L671.32,307.52L672.49,307.9L674.82,317.84L675.99,321L679.49,326.14L680.66,326.66L681.83,329.06" style="vector-effect: non-scaling-stroke; fill: none; stroke: rgb(8, 115, 191); stroke-opacity: 1; stroke-width: 2px; opacity: 1;"/></g><g class="points"/><g class="text"/></g><g class="trace scatter tracee4eb4e" style="stroke-miterlimit: 2; opacity: 1;"><g class="fills"/><g class="errorbars"/><g class="lines"/><g class="points"><path class="point" transform="translate(681.83,329.06)" d="M15,0A15,15 0 1,1 0,-15A15,15 0 0,1 15,0Z" style="opacity: 1; stroke-width: 0px; fill: rgb(8, 115, 191); fill-opacity: 1;"/></g><g class="text"/></g></g></g><g class="overplot"/><path class="xlines-above crisp" style="fill: none; stroke-width: 1px; stroke: rgb(0, 0, 0); stroke-opacity: 0;" d=""/><path class="ylines-above crisp" style="fill: none;" d="M0,0"/><g class="overlines-above"/><g class="xaxislayer-above"><path class="xtick ticks crisp" d="M0,450v-5" transform="translate(88.53,0)" style="stroke: rgb(68, 68, 68); stroke-opacity: 1; stroke-width: 1px;"/><path class="xtick ticks crisp" d="M0,450v-5" transform="translate(159.75,0)" style="stroke: rgb(68, 68, 68); stroke-opacity: 1; stroke-width: 1px;"/><path class="xtick ticks crisp" d="M0,450v-5" transform="translate(228.63,0)" style="stroke: rgb(68, 68, 68); stroke-opacity: 1; stroke-width: 1px;"/><path class="xtick ticks crisp" d="M0,450v-5" transform="translate(299.85,0)" style="stroke: rgb(68, 68, 68); stroke-opacity: 1; stroke-width: 1px;"/><path class="xtick ticks crisp" d="M0,450v-5" transform="translate(371.07,0)" style="stroke: rgb(68, 68, 68); stroke-opacity: 1; stroke-width: 1px;"/><path class="xtick ticks crisp" d="M0,450v-5" transform="translate(443.45,0)" style="stroke: rgb(68, 68, 68); stroke-opacity: 1; stroke-width: 1px;"/><path class="xtick ticks crisp" d="M0,450v-5" transform="translate(514.6700000000001,0)" style="stroke: rgb(68, 68, 68); stroke-opacity: 1; stroke-width: 1px;"/><path class="xtick ticks crisp" d="M0,450v-5" transform="translate(585.89,0)" style="stroke: rgb(68, 68, 68); stroke-opacity: 1; stroke-width: 1px;"/><path class="xtick ticks crisp" d="M0,450v-5" transform="translate(654.77,0)" style="stroke: rgb(68, 68, 68); stroke-opacity: 1; stroke-width: 1px;"/><path class="xtick ticks crisp" d="M0,450v-5" transform="translate(725.99,0)" style="stroke: rgb(68, 68, 68); stroke-opacity: 1; stroke-width: 1px;"/><g class="xtick"><text text-anchor="middle" x="0" y="469" transform="translate(88.53,0)" style="font-family: 'Open Sans', verdana, arial, sans-serif; font-size: 18px; fill: rgb(42, 63, 95); fill-opacity: 1; white-space: pre;">01/11</text></g><g class="xtick"><text text-anchor="middle" x="0" y="469" transform="translate(159.75,0)" style="font-family: 'Open Sans', verdana, arial, sans-serif; font-size: 18px; fill: rgb(42, 63, 95); fill-opacity: 1; white-space: pre;">01/01</text></g><g class="xtick"><text text-anchor="middle" x="0" y="469" transform="translate(228.63,0)" style="font-family: 'Open Sans', verdana, arial, sans-serif; font-size: 18px; fill: rgb(42, 63, 95); fill-opacity: 1; white-space: pre;">01/03</text></g><g class="xtick"><text text-anchor="middle" x="0" y="469" transform="translate(299.85,0)" style="font-family: 'Open Sans', verdana, arial, sans-serif; font-size: 18px; fill: rgb(42, 63, 95); fill-opacity: 1; white-space: pre;">01/05</text></g><g class="xtick"><text text-anchor="middle" x="0" y="469" transform="translate(371.07,0)" style="font-family: 'Open Sans', verdana, arial, sans-serif; font-size: 18px; fill: rgb(42, 63, 95); fill-opacity: 1; white-space: pre;">01/07</text></g><g class="xtick"><text text-anchor="middle" x="0" y="469" transform="translate(443.45,0)" style="font-family: 'Open Sans', verdana, arial, sans-serif; font-size: 18px; fill: rgb(42, 63, 95); fill-opacity: 1; white-space: pre;">01/09</text></g><g class="xtick"><text text-anchor="middle" x="0" y="469" transform="translate(514.6700000000001,0)" style="font-family: 'Open Sans', verdana, arial, sans-serif; font-size: 18px; fill: rgb(42, 63, 95); fill-opacity: 1; white-space: pre;">01/11</text></g><g class="xtick"><text text-anchor="middle" x="0" y="469" transform="translate(585.89,0)" style="font-family: 'Open Sans', verdana, arial, sans-serif; font-size: 18px; fill: rgb(42, 63, 95); fill-opacity: 1; white-space: pre;">01/01</text></g><g class="xtick"><text text-anchor="middle" x="0" y="469" transform="translate(654.77,0)" style="font-family: 'Open Sans', verdana, arial, sans-serif; font-size: 18px; fill: rgb(42, 63, 95); fill-opacity: 1; white-space: pre;">01/03</text></g><g class="xtick"><text text-anchor="middle" x="0" y="469" transform="translate(725.99,0)" style="font-family: 'Open Sans', verdana, arial, sans-serif; font-size: 18px; fill: rgb(42, 63, 95); fill-opacity: 1; white-space: pre;">01/05</text></g></g><g class="yaxislayer-above"/><g class="overaxes-above"/></g></g><g class="polarlayer"/><g class="ternarylayer"/><g class="geolayer"/><g class="funnelarealayer"/><g class="pielayer"/><g class="treemaplayer"/><g class="sunburstlayer"/><g class="glimages"/><defs id="topdefs-de0023"><g class="clips"/></defs><g class="layer-above"><g class="imagelayer"/><g class="shapelayer"><path data-index="0" fill-rule="evenodd" d="M-606.14,443.48L247.31,443.48" clip-path="url('#clipde0023xy')" style="opacity: 1; stroke: rgb(255, 0, 0); stroke-opacity: 1; fill: rgb(0, 0, 0); fill-opacity: 0; stroke-dasharray: 3px, 3px; stroke-width: 1.5px;"/></g></g><g class="infolayer"><g class="g-gtitle"><text class="gtitle" x="375" y="25" text-anchor="middle" dy="0.7em" style="font-family: 'Open Sans', verdana, arial, sans-serif; font-size: 50px; fill: rgb(42, 63, 95); opacity: 1; font-weight: normal; white-space: pre;"><tspan style="font-weight:bold">Orne (61)</tspan></text></g><g class="g-xtitle"/><g class="annotation" data-index="0" style="opacity: 1;"><g class="annotation-text-g" transform="rotate(0,689.83,339.06)"><g class="cursor-pointer" transform="translate(632, 303)"><rect class="bg" x="0.5" y="0.5" width="115" height="71" style="stroke-width: 1px; stroke: rgb(0, 0, 0); stroke-opacity: 0; fill: rgb(255, 255, 255); fill-opacity: 0.6;"/><text class="annotation-text" text-anchor="middle" x="57.8125" y="55.5" style="font-family: 'Open Sans', verdana, arial, sans-serif; font-size: 50px; fill: rgb(8, 115, 191); fill-opacity: 1; white-space: pre;"> <tspan style="font-weight:bold">390 </tspan></text></g></g><g class="annotation-arrow-g" style="opacity: 1;"><path d="M718.23,374.56L729.83,389.06" style="stroke-width: 1px; stroke: rgb(8, 115, 191); stroke-opacity: 1; stroke-dasharray: 0px, 0px, 18.5691px, 18.5691px;"/></g></g></g></svg>