<svg class="main-svg" xmlns="http://www.w3.org/2000/svg" xmlns:xlink="http://www.w3.org/1999/xlink" width="1125" height="750" style="" viewBox="0 0 750 500"><rect x="0" y="0" width="750" height="500" style="fill: rgb(0, 0, 0); fill-opacity: 0;"/><defs id="defs-804664"><g class="clips"><clipPath id="clip804664xyplot" class="plotclip"><rect width="691" height="380"/></clipPath><clipPath class="axesclip" id="clip804664x"><rect x="50" y="0" width="691" height="500"/></clipPath><clipPath class="axesclip" id="clip804664y"><rect x="0" y="70" width="750" height="380"/></clipPath><clipPath class="axesclip" id="clip804664xy"><rect x="50" y="70" width="691" height="380"/></clipPath></g><g class="gradients"/></defs><g class="bglayer"><rect class="bg" x="50" y="70" width="691" height="380" style="fill: rgb(0, 0, 0); fill-opacity: 0; stroke-width: 0;"/></g><g class="layer-below"><g class="imagelayer"/><g class="shapelayer"/></g><g class="cartesianlayer"><g class="subplot xy"><g class="layer-subplot"><g class="shapelayer"/><g class="imagelayer"/></g><g class="gridlayer"><g class="x"><path class="xgrid crisp" transform="translate(88.52000000000001,0)" d="M0,70v380" style="stroke: rgb(255, 255, 255); stroke-opacity: 1; stroke-width: 1px;"/><path class="xgrid crisp" transform="translate(159.72,0)" d="M0,70v380" style="stroke: rgb(255, 255, 255); stroke-opacity: 1; stroke-width: 1px;"/><path class="xgrid crisp" transform="translate(228.59,0)" d="M0,70v380" style="stroke: rgb(255, 255, 255); stroke-opacity: 1; stroke-width: 1px;"/><path class="xgrid crisp" transform="translate(299.78999999999996,0)" d="M0,70v380" style="stroke: rgb(255, 255, 255); stroke-opacity: 1; stroke-width: 1px;"/><path class="xgrid crisp" transform="translate(370.99,0)" d="M0,70v380" style="stroke: rgb(255, 255, 255); stroke-opacity: 1; stroke-width: 1px;"/><path class="xgrid crisp" transform="translate(443.36,0)" d="M0,70v380" style="stroke: rgb(255, 255, 255); stroke-opacity: 1; stroke-width: 1px;"/><path class="xgrid crisp" transform="translate(514.56,0)" d="M0,70v380" style="stroke: rgb(255, 255, 255); stroke-opacity: 1; stroke-width: 1px;"/><path class="xgrid crisp" transform="translate(585.76,0)" d="M0,70v380" style="stroke: rgb(255, 255, 255); stroke-opacity: 1; stroke-width: 1px;"/><path class="xgrid crisp" transform="translate(654.63,0)" d="M0,70v380" style="stroke: rgb(255, 255, 255); stroke-opacity: 1; stroke-width: 1px;"/><path class="xgrid crisp" transform="translate(725.83,0)" d="M0,70v380" style="stroke: rgb(255, 255, 255); stroke-opacity: 1; stroke-width: 1px;"/></g><g class="y"/></g><g class="zerolinelayer"/><path class="xlines-below"/><path class="ylines-below"/><g class="overlines-below"/><g class="xaxislayer-below"/><g class="yaxislayer-below"/><g class="overaxes-below"/><g class="plot" transform="translate(50, 70)" clip-path="url('#clip804664xyplot')"><g class="scatterlayer mlayer"><g class="trace scatter trace501a3a" style="stroke-miterlimit: 2;"><g class="fills"><g><path class="js-fill" d="M671.16,380L-158.74,380L-158.74,378.94L-143.57,379.64L-142.4,379.73L-110.89,379.68L-109.72,379.72L-66.53,378.82L-65.36,378.65L-53.69,378.72L-52.53,378.63L-30.35,375.16L-29.18,374.57L-12.84,371.63L-11.67,370.95L-10.51,368.85L-9.34,369.26L-3.5,369.55L-2.33,371.26L3.5,366.78L4.67,365.33L7,363.24L8.17,363.04L10.51,362.74L11.67,360.74L15.17,356.7L16.34,354.23L19.84,351.68L21.01,349.35L22.18,346.32L23.34,346.1L25.68,344.82L26.85,344.61L29.18,340.41L30.35,339.39L33.85,331.17L35.02,331.41L36.18,328.63L37.35,328.07L38.52,327.55L39.69,328.41L42.02,332.51L43.19,332.63L45.52,339.91L46.69,347.64L50.19,354.1L51.36,354.24L53.69,359.47L54.86,357.35L57.19,361.74L58.36,362.4L59.53,362.43L60.7,364.59L66.53,367.87L67.7,367.97L71.2,370.12L72.37,370.59L74.7,370.86L75.87,370.16L79.37,369.16L80.54,368.51L82.87,367.76L84.04,368.38L89.88,367.74L91.04,367.84L93.38,367.59L94.55,366.66L96.88,367.04L98.05,369.14L103.88,368.95L105.05,368.67L106.22,368.62L107.39,367.44L109.72,366.89L110.89,366.1L113.22,363.48L114.39,360.81L116.72,360.68L117.89,359.97L121.39,358.18L122.56,356.53L124.89,356.65L126.06,355.41L128.4,355.06L129.56,355.08L133.06,355.72L134.23,355.38L137.73,355.29L138.9,354.94L141.23,354.58L142.4,355.15L143.57,354.44L144.74,355.16L148.24,356.48L149.41,356.56L151.74,358.88L152.91,358.45L156.41,359.06L157.58,358.97L159.91,357.42L161.08,357.07L164.58,354.76L165.75,354.7L169.25,352.4L170.42,352.22L172.75,351.7L173.92,351.67L177.42,353.09L178.59,352.25L179.75,352.31L180.92,351.61L183.26,351.26L184.42,349.72L186.76,346.94L187.92,346.11L190.26,345.53L191.43,343.35L192.59,343.07L193.76,342.01L197.26,337.27L198.43,336.89L204.27,327.68L205.43,325.84L206.6,325.87L207.77,325.09L210.1,322.19L211.27,321.71L212.44,322.41L213.6,322.23L214.77,322.13L215.94,332.55L217.1,330.8L218.27,331.79L219.44,333.52L220.61,333.59L221.77,335.05L222.94,335.26L224.11,325.61L225.28,330.57L227.61,333.96L228.78,334.77L232.28,336.85L233.45,336.66L234.61,335.97L235.78,336.36L238.11,338.22L239.28,338.2L246.29,351.64L247.45,351.6L253.29,354.88L254.46,354.19L255.62,354.24L256.79,356.08L259.13,356.88L260.29,359.62L261.46,359.44L262.63,358.5L267.3,360.25L268.46,357.87L269.63,359.6L270.8,359.8L271.96,359.85L273.13,364.23L275.47,365.2L276.63,366.04L280.14,367.45L281.3,365.94L282.47,368.41L283.64,369.11L287.14,372.15L288.31,372.26L294.14,375.8L295.31,376.18L297.64,376.98L298.81,377.37L315.15,378.85L316.32,378.58L330.33,377.38L331.49,377.1L332.66,377.38L333.83,376.81L339.66,373.93L340.83,372.61L345.5,371.44L346.67,370.24L351.34,369.47L352.5,369.16L357.17,368.62L358.34,367.75L360.67,367.31L361.84,367.4L365.34,366L366.51,366.42L367.68,366.48L368.84,365.61L372.35,365.92L373.51,366.36L375.85,366.52L377.02,366.89L386.35,366.27L387.52,366.79L392.19,369.24L393.36,369.55L395.69,370.31L396.86,370.68L399.19,371.3L400.36,371.3L406.2,371.6L407.36,371.91L414.37,373.55L415.53,374.12L423.7,375.75L424.87,375.95L431.88,376.57L433.04,376.66L440.05,376.83L441.21,376.76L447.05,375.25L448.22,374.96L450.55,374.11L451.72,374.2L455.22,373.8L456.39,373.82L461.06,375.03L462.22,374.51L464.56,374.41L465.72,374.02L468.06,374.04L469.23,372.55L471.56,372.49L472.73,373.32L478.56,370.25L479.73,369.23L480.9,367.13L482.07,366.77L486.73,363.96L487.9,362.88L489.07,361.55L490.24,358.76L491.4,357.47L492.57,357.44L497.24,348.44L498.41,348.16L501.91,345.9L503.08,344.57L504.24,343.51L505.41,344.25L507.74,342.45L508.91,342.17L511.25,339.39L512.41,338.47L517.08,335.89L518.25,333.57L519.42,330.86L520.58,324.99L522.92,312.78L524.09,316.33L525.25,314.18L526.42,288.44L531.09,182.93L532.26,181.09L533.42,176.99L534.59,135.73L536.93,100.1L538.09,93.04L539.26,76.43L540.43,43.38L541.59,39.03L542.76,43.11L543.93,44.33L545.1,39.2L547.43,31.53L548.6,25.95L550.93,16.17L552.1,8.09L554.43,0L555.6,0.85L556.77,0.82L557.94,3.41L559.1,0.8L560.27,12.64L564.94,49.44L566.11,53.15L569.61,111.26L570.78,130.11L573.11,166.86L574.28,172.16L576.61,225.59L577.78,242.16L580.11,269.21L581.28,277.4L582.45,279.24L583.61,289.88L587.12,309.63L588.28,314.59L589.45,317.52L590.62,317.75L592.95,324.68L594.12,326.53L597.62,334.16L598.79,335.05L601.12,338.91L602.29,339.83L603.46,340.74L604.63,340.4L608.13,340.52L609.29,339.65L611.63,337.27L612.8,335.22L613.96,332.45L615.13,331.89L617.46,323.1L618.63,319.47L622.13,309.9L623.3,308.8L630.3,272.18L631.47,271.83L633.81,256.33L634.97,251.76L637.31,247.11L638.47,245.45L639.64,245.26L640.81,243.61L643.14,241.38L644.31,239.96L645.48,238.47L646.65,238.26L647.81,238.78L648.98,243.47L653.65,259.92L654.82,263.92L655.98,264.38L657.15,289.62L658.32,285.18L659.48,290.84L662.99,306.47L664.15,306.96L665.32,293.56L666.49,308.35L671.16,324.34" style="fill: rgb(8, 115, 191); fill-opacity: 0.2; stroke-width: 0;"/></g></g><g class="errorbars"/><g class="lines"><path class="js-line" d="M-158.74,378.94L-143.57,379.64L-142.4,379.73L-110.89,379.68L-109.72,379.72L-66.53,378.82L-65.36,378.65L-53.69,378.72L-52.53,378.63L-30.35,375.16L-29.18,374.57L-12.84,371.63L-11.67,370.95L-10.51,368.85L-9.34,369.26L-3.5,369.55L-2.33,371.26L3.5,366.78L4.67,365.33L7,363.24L8.17,363.04L10.51,362.74L11.67,360.74L15.17,356.7L16.34,354.23L19.84,351.68L21.01,349.35L22.18,346.32L23.34,346.1L25.68,344.82L26.85,344.61L29.18,340.41L30.35,339.39L33.85,331.17L35.02,331.41L36.18,328.63L37.35,328.07L38.52,327.55L39.69,328.41L42.02,332.51L43.19,332.63L45.52,339.91L46.69,347.64L50.19,354.1L51.36,354.24L53.69,359.47L54.86,357.35L57.19,361.74L58.36,362.4L59.53,362.43L60.7,364.59L66.53,367.87L67.7,367.97L71.2,370.12L72.37,370.59L74.7,370.86L75.87,370.16L79.37,369.16L80.54,368.51L82.87,367.76L84.04,368.38L89.88,367.74L91.04,367.84L93.38,367.59L94.55,366.66L96.88,367.04L98.05,369.14L103.88,368.95L105.05,368.67L106.22,368.62L107.39,367.44L109.72,366.89L110.89,366.1L113.22,363.48L114.39,360.81L116.72,360.68L117.89,359.97L121.39,358.18L122.56,356.53L124.89,356.65L126.06,355.41L128.4,355.06L129.56,355.08L133.06,355.72L134.23,355.38L137.73,355.29L138.9,354.94L141.23,354.58L142.4,355.15L143.57,354.44L144.74,355.16L148.24,356.48L149.41,356.56L151.74,358.88L152.91,358.45L156.41,359.06L157.58,358.97L159.91,357.42L161.08,357.07L164.58,354.76L165.75,354.7L169.25,352.4L170.42,352.22L172.75,351.7L173.92,351.67L177.42,353.09L178.59,352.25L179.75,352.31L180.92,351.61L183.26,351.26L184.42,349.72L186.76,346.94L187.92,346.11L190.26,345.53L191.43,343.35L192.59,343.07L193.76,342.01L197.26,337.27L198.43,336.89L204.27,327.68L205.43,325.84L206.6,325.87L207.77,325.09L210.1,322.19L211.27,321.71L212.44,322.41L213.6,322.23L214.77,322.13L215.94,332.55L217.1,330.8L218.27,331.79L219.44,333.52L220.61,333.59L221.77,335.05L222.94,335.26L224.11,325.61L225.28,330.57L227.61,333.96L228.78,334.77L232.28,336.85L233.45,336.66L234.61,335.97L235.78,336.36L238.11,338.22L239.28,338.2L246.29,351.64L247.45,351.6L253.29,354.88L254.46,354.19L255.62,354.24L256.79,356.08L259.13,356.88L260.29,359.62L261.46,359.44L262.63,358.5L267.3,360.25L268.46,357.87L269.63,359.6L270.8,359.8L271.96,359.85L273.13,364.23L275.47,365.2L276.63,366.04L280.14,367.45L281.3,365.94L282.47,368.41L283.64,369.11L287.14,372.15L288.31,372.26L294.14,375.8L295.31,376.18L297.64,376.98L298.81,377.37L315.15,378.85L316.32,378.58L330.33,377.38L331.49,377.1L332.66,377.38L333.83,376.81L339.66,373.93L340.83,372.61L345.5,371.44L346.67,370.24L351.34,369.47L352.5,369.16L357.17,368.62L358.34,367.75L360.67,367.31L361.84,367.4L365.34,366L366.51,366.42L367.68,366.48L368.84,365.61L372.35,365.92L373.51,366.36L375.85,366.52L377.02,366.89L386.35,366.27L387.52,366.79L392.19,369.24L393.36,369.55L395.69,370.31L396.86,370.68L399.19,371.3L400.36,371.3L406.2,371.6L407.36,371.91L414.37,373.55L415.53,374.12L423.7,375.75L424.87,375.95L431.88,376.57L433.04,376.66L440.05,376.83L441.21,376.76L447.05,375.25L448.22,374.96L450.55,374.11L451.72,374.2L455.22,373.8L456.39,373.82L461.06,375.03L462.22,374.51L464.56,374.41L465.72,374.02L468.06,374.04L469.23,372.55L471.56,372.49L472.73,373.32L478.56,370.25L479.73,369.23L480.9,367.13L482.07,366.77L486.73,363.96L487.9,362.88L489.07,361.55L490.24,358.76L491.4,357.47L492.57,357.44L497.24,348.44L498.41,348.16L501.91,345.9L503.08,344.57L504.24,343.51L505.41,344.25L507.74,342.45L508.91,342.17L511.25,339.39L512.41,338.47L517.08,335.89L518.25,333.57L519.42,330.86L520.58,324.99L522.92,312.78L524.09,316.33L525.25,314.18L526.42,288.44L531.09,182.93L532.26,181.09L533.42,176.99L534.59,135.73L536.93,100.1L538.09,93.04L539.26,76.43L540.43,43.38L541.59,39.03L542.76,43.11L543.93,44.33L545.1,39.2L547.43,31.53L548.6,25.95L550.93,16.17L552.1,8.09L554.43,0L555.6,0.85L556.77,0.82L557.94,3.41L559.1,0.8L560.27,12.64L564.94,49.44L566.11,53.15L569.61,111.26L570.78,130.11L573.11,166.86L574.28,172.16L576.61,225.59L577.78,242.16L580.11,269.21L581.28,277.4L582.45,279.24L583.61,289.88L587.12,309.63L588.28,314.59L589.45,317.52L590.62,317.75L592.95,324.68L594.12,326.53L597.62,334.16L598.79,335.05L601.12,338.91L602.29,339.83L603.46,340.74L604.63,340.4L608.13,340.52L609.29,339.65L611.63,337.27L612.8,335.22L613.96,332.45L615.13,331.89L617.46,323.1L618.63,319.47L622.13,309.9L623.3,308.8L630.3,272.18L631.47,271.83L633.81,256.33L634.97,251.76L637.31,247.11L638.47,245.45L639.64,245.26L640.81,243.61L643.14,241.38L644.31,239.96L645.48,238.47L646.65,238.26L647.81,238.78L648.98,243.47L653.65,259.92L654.82,263.92L655.98,264.38L657.15,289.62L658.32,285.18L659.48,290.84L662.99,306.47L664.15,306.96L665.32,293.56L666.49,308.35L671.16,324.34" style="vector-effect: non-scaling-stroke; fill: none; stroke: rgb(8, 115, 191); stroke-opacity: 1; stroke-width: 0.5px; opacity: 1;"/></g><g class="points"/><g class="text"/></g><g class="trace scatter trace872e98" style="stroke-miterlimit: 2;"><g class="fills"><g><path class="js-fill" d="M682.83,380L671.16,380L671.16,324.34L672.32,325.27L673.49,329.85L675.83,331.87L676.99,332.51L678.16,333.33L679.33,333.16L680.49,333.12L681.66,334.18L682.83,334.78" style="fill: rgb(8, 115, 191); fill-opacity: 0.4; stroke-width: 0;"/></g></g><g class="errorbars"/><g class="lines"><path class="js-line" d="M671.16,324.34L672.32,325.27L673.49,329.85L675.83,331.87L676.99,332.51L678.16,333.33L679.33,333.16L680.49,333.12L681.66,334.18L682.83,334.78" style="vector-effect: non-scaling-stroke; fill: none; stroke: rgb(8, 115, 191); stroke-opacity: 1; stroke-width: 2px; opacity: 1;"/></g><g class="points"/><g class="text"/></g><g class="trace scatter tracedefdec" style="stroke-miterlimit: 2; opacity: 1;"><g class="fills"/><g class="errorbars"/><g class="lines"/><g class="points"><path class="point" transform="translate(682.83,334.78)" d="M15,0A15,15 0 1,1 0,-15A15,15 0 0,1 15,0Z" style="opacity: 1; stroke-width: 0px; fill: rgb(8, 115, 191); fill-opacity: 1;"/></g><g class="text"/></g></g></g><g class="overplot"/><path class="xlines-above crisp" style="fill: none; stroke-width: 1px; stroke: rgb(0, 0, 0); stroke-opacity: 0;" d=""/><path class="ylines-above crisp" style="fill: none;" d="M0,0"/><g class="overlines-above"/><g class="xaxislayer-above"><path class="xtick ticks crisp" d="M0,450v-5" transform="translate(88.52000000000001,0)" style="stroke: rgb(68, 68, 68); stroke-opacity: 1; stroke-width: 1px;"/><path class="xtick ticks crisp" d="M0,450v-5" transform="translate(159.72,0)" style="stroke: rgb(68, 68, 68); stroke-opacity: 1; stroke-width: 1px;"/><path class="xtick ticks crisp" d="M0,450v-5" transform="translate(228.59,0)" style="stroke: rgb(68, 68, 68); stroke-opacity: 1; stroke-width: 1px;"/><path class="xtick ticks crisp" d="M0,450v-5" transform="translate(299.78999999999996,0)" style="stroke: rgb(68, 68, 68); stroke-opacity: 1; stroke-width: 1px;"/><path class="xtick ticks crisp" d="M0,450v-5" transform="translate(370.99,0)" style="stroke: rgb(68, 68, 68); stroke-opacity: 1; stroke-width: 1px;"/><path class="xtick ticks crisp" d="M0,450v-5" transform="translate(443.36,0)" style="stroke: rgb(68, 68, 68); stroke-opacity: 1; stroke-width: 1px;"/><path class="xtick ticks crisp" d="M0,450v-5" transform="translate(514.56,0)" style="stroke: rgb(68, 68, 68); stroke-opacity: 1; stroke-width: 1px;"/><path class="xtick ticks crisp" d="M0,450v-5" transform="translate(585.76,0)" style="stroke: rgb(68, 68, 68); stroke-opacity: 1; stroke-width: 1px;"/><path class="xtick ticks crisp" d="M0,450v-5" transform="translate(654.63,0)" style="stroke: rgb(68, 68, 68); stroke-opacity: 1; stroke-width: 1px;"/><path class="xtick ticks crisp" d="M0,450v-5" transform="translate(725.83,0)" style="stroke: rgb(68, 68, 68); stroke-opacity: 1; stroke-width: 1px;"/><g class="xtick"><text text-anchor="middle" x="0" y="469" transform="translate(88.52000000000001,0)" style="font-family: 'Open Sans', verdana, arial, sans-serif; font-size: 18px; fill: rgb(42, 63, 95); fill-opacity: 1; white-space: pre;">01/11</text></g><g class="xtick"><text text-anchor="middle" x="0" y="469" transform="translate(159.72,0)" style="font-family: 'Open Sans', verdana, arial, sans-serif; font-size: 18px; fill: rgb(42, 63, 95); fill-opacity: 1; white-space: pre;">01/01</text></g><g class="xtick"><text text-anchor="middle" x="0" y="469" transform="translate(228.59,0)" style="font-family: 'Open Sans', verdana, arial, sans-serif; font-size: 18px; fill: rgb(42, 63, 95); fill-opacity: 1; white-space: pre;">01/03</text></g><g class="xtick"><text text-anchor="middle" x="0" y="469" transform="translate(299.78999999999996,0)" style="font-family: 'Open Sans', verdana, arial, sans-serif; font-size: 18px; fill: rgb(42, 63, 95); fill-opacity: 1; white-space: pre;">01/05</text></g><g class="xtick"><text text-anchor="middle" x="0" y="469" transform="translate(370.99,0)" style="font-family: 'Open Sans', verdana, arial, sans-serif; font-size: 18px; fill: rgb(42, 63, 95); fill-opacity: 1; white-space: pre;">01/07</text></g><g class="xtick"><text text-anchor="middle" x="0" y="469" transform="translate(443.36,0)" style="font-family: 'Open Sans', verdana, arial, sans-serif; font-size: 18px; fill: rgb(42, 63, 95); fill-opacity: 1; white-space: pre;">01/09</text></g><g class="xtick"><text text-anchor="middle" x="0" y="469" transform="translate(514.56,0)" style="font-family: 'Open Sans', verdana, arial, sans-serif; font-size: 18px; fill: rgb(42, 63, 95); fill-opacity: 1; white-space: pre;">01/11</text></g><g class="xtick"><text text-anchor="middle" x="0" y="469" transform="translate(585.76,0)" style="font-family: 'Open Sans', verdana, arial, sans-serif; font-size: 18px; fill: rgb(42, 63, 95); fill-opacity: 1; white-space: pre;">01/01</text></g><g class="xtick"><text text-anchor="middle" x="0" y="469" transform="translate(654.63,0)" style="font-family: 'Open Sans', verdana, arial, sans-serif; font-size: 18px; fill: rgb(42, 63, 95); fill-opacity: 1; white-space: pre;">01/03</text></g><g class="xtick"><text text-anchor="middle" x="0" y="469" transform="translate(725.83,0)" style="font-family: 'Open Sans', verdana, arial, sans-serif; font-size: 18px; fill: rgb(42, 63, 95); fill-opacity: 1; white-space: pre;">01/05</text></g></g><g class="yaxislayer-above"/><g class="overaxes-above"/></g></g><g class="polarlayer"/><g class="ternarylayer"/><g class="geolayer"/><g class="funnelarealayer"/><g class="pielayer"/><g class="treemaplayer"/><g class="sunburstlayer"/><g class="glimages"/><defs id="topdefs-804664"><g class="clips"/></defs><g class="layer-above"><g class="imagelayer"/><g class="shapelayer"><path data-index="0" fill-rule="evenodd" d="M-605.98,444.66L247.26,444.66" clip-path="url('#clip804664xy')" style="opacity: 1; stroke: rgb(255, 0, 0); stroke-opacity: 1; fill: rgb(0, 0, 0); fill-opacity: 0; stroke-dasharray: 3px, 3px; stroke-width: 1.5px;"/></g></g><g class="infolayer"><g class="g-gtitle"><text class="gtitle" x="375" y="25" text-anchor="middle" dy="0.7em" style="font-family: 'Open Sans', verdana, arial, sans-serif; font-size: 50px; fill: rgb(42, 63, 95); opacity: 1; font-weight: normal; white-space: pre;"><tspan style="font-weight:bold">Oise (60)</tspan></text></g><g class="g-xtitle"/><g class="annotation" data-index="0" style="opacity: 1;"><g class="annotation-text-g" transform="rotate(0,690.83,344.78)"><g class="cursor-pointer" transform="translate(633, 309)"><rect class="bg" x="0.5" y="0.5" width="115" height="71" style="stroke-width: 1px; stroke: rgb(0, 0, 0); stroke-opacity: 0; fill: rgb(255, 255, 255); fill-opacity: 0.6;"/><text class="annotation-text" text-anchor="middle" x="57.8125" y="55.5" style="font-family: 'Open Sans', verdana, arial, sans-serif; font-size: 50px; fill: rgb(8, 115, 191); fill-opacity: 1; white-space: pre;"> <tspan style="font-weight:bold">423 </tspan></text></g></g><g class="annotation-arrow-g" style="opacity: 1;"><path d="M719.23,380.28L730.83,394.78" style="stroke-width: 1px; stroke: rgb(8, 115, 191); stroke-opacity: 1; stroke-dasharray: 0px, 0px, 18.5691px, 18.5691px;"/></g></g></g></svg>