<svg class="main-svg" xmlns="http://www.w3.org/2000/svg" xmlns:xlink="http://www.w3.org/1999/xlink" width="1125" height="750" style="" viewBox="0 0 750 500"><rect x="0" y="0" width="750" height="500" style="fill: rgb(0, 0, 0); fill-opacity: 0;"/><defs id="defs-b127dc"><g class="clips"><clipPath id="clipb127dcxyplot" class="plotclip"><rect width="682" height="380"/></clipPath><clipPath class="axesclip" id="clipb127dcx"><rect x="50" y="0" width="682" height="500"/></clipPath><clipPath class="axesclip" id="clipb127dcy"><rect x="0" y="70" width="750" height="380"/></clipPath><clipPath class="axesclip" id="clipb127dcxy"><rect x="50" y="70" width="682" height="380"/></clipPath></g><g class="gradients"/></defs><g class="bglayer"><rect class="bg" x="50" y="70" width="682" height="380" style="fill: rgb(0, 0, 0); fill-opacity: 0; stroke-width: 0;"/></g><g class="layer-below"><g class="imagelayer"/><g class="shapelayer"/></g><g class="cartesianlayer"><g class="subplot xy"><g class="layer-subplot"><g class="shapelayer"/><g class="imagelayer"/></g><g class="gridlayer"><g class="x"><path class="xgrid crisp" transform="translate(88.53999999999999,0)" d="M0,70v380" style="stroke: rgb(255, 255, 255); stroke-opacity: 1; stroke-width: 1px;"/><path class="xgrid crisp" transform="translate(159.76999999999998,0)" d="M0,70v380" style="stroke: rgb(255, 255, 255); stroke-opacity: 1; stroke-width: 1px;"/><path class="xgrid crisp" transform="translate(228.67,0)" d="M0,70v380" style="stroke: rgb(255, 255, 255); stroke-opacity: 1; stroke-width: 1px;"/><path class="xgrid crisp" transform="translate(299.90999999999997,0)" d="M0,70v380" style="stroke: rgb(255, 255, 255); stroke-opacity: 1; stroke-width: 1px;"/><path class="xgrid crisp" transform="translate(371.15,0)" d="M0,70v380" style="stroke: rgb(255, 255, 255); stroke-opacity: 1; stroke-width: 1px;"/><path class="xgrid crisp" transform="translate(443.55,0)" d="M0,70v380" style="stroke: rgb(255, 255, 255); stroke-opacity: 1; stroke-width: 1px;"/><path class="xgrid crisp" transform="translate(514.79,0)" d="M0,70v380" style="stroke: rgb(255, 255, 255); stroke-opacity: 1; stroke-width: 1px;"/><path class="xgrid crisp" transform="translate(586.02,0)" d="M0,70v380" style="stroke: rgb(255, 255, 255); stroke-opacity: 1; stroke-width: 1px;"/><path class="xgrid crisp" transform="translate(654.92,0)" d="M0,70v380" style="stroke: rgb(255, 255, 255); stroke-opacity: 1; stroke-width: 1px;"/><path class="xgrid crisp" transform="translate(726.16,0)" d="M0,70v380" style="stroke: rgb(255, 255, 255); stroke-opacity: 1; stroke-width: 1px;"/></g><g class="y"/></g><g class="zerolinelayer"/><path class="xlines-below"/><path class="ylines-below"/><g class="overlines-below"/><g class="xaxislayer-below"/><g class="yaxislayer-below"/><g class="overaxes-below"/><g class="plot" transform="translate(50, 70)" clip-path="url('#clipb127dcxyplot')"><g class="scatterlayer mlayer"><g class="trace scatter tracee66fe8" style="stroke-miterlimit: 2;"><g class="fills"><g><path class="js-fill" d="M662.15,380L-158.82,380L-158.82,378.5L-148.31,379.1L-147.14,379.23L-122.62,378.49L-121.45,378.47L-67.73,378.19L-66.57,377.88L-44.38,377.87L-43.21,377.71L-37.37,376.55L-36.2,376.48L-32.7,376.28L-31.53,376.26L-26.86,375.2L-25.69,374.78L-18.68,374.25L-17.52,374.36L-12.85,375.02L-11.68,375.2L-4.67,375.65L-3.5,375.23L3.5,372.6L4.67,371.81L9.34,368.17L10.51,368.17L14.01,364.2L15.18,363.68L18.68,362.17L19.85,360.69L22.19,357.15L23.36,353.68L25.69,349.11L26.86,348.79L29.2,341.27L30.36,339L32.7,337.19L33.87,335.4L36.2,334.71L37.37,335.43L38.54,336.14L39.71,338.03L42.04,342.82L43.21,343.05L45.54,349.21L46.71,355.35L47.88,355.27L49.05,356.02L51.38,356.88L52.55,358.94L53.72,360.44L54.89,358.03L57.22,361.69L58.39,362.4L59.56,362.43L60.73,363.75L63.06,364.94L64.23,365.84L67.73,366.44L68.9,366.61L71.24,365.92L72.4,364.6L77.08,361.88L78.24,360.86L82.91,355.49L84.08,355.21L86.42,353.15L87.59,352.83L91.09,350.08L92.26,350.01L95.76,346.05L96.93,348.38L98.1,354.09L99.26,354.05L101.6,354.96L102.77,355.67L105.1,355.49L106.27,355.32L107.44,354.33L108.61,354.52L112.11,355.77L113.28,355.49L114.45,351.73L115.61,353.58L117.95,354.31L119.12,355.67L121.45,357.5L122.62,357.96L128.46,356.88L129.63,356.42L137.8,354.38L138.97,355.24L143.64,357.9L144.81,359.02L145.98,360.5L147.14,360.51L149.48,360.4L150.65,361.27L156.49,363.72L157.65,363.92L159.99,363.71L161.16,363.62L164.66,361.46L165.83,361.32L168.16,361.03L169.33,360.17L176.34,360.17L177.51,360.82L181.01,360.81L182.18,360.75L184.51,361.55L185.68,360.82L189.18,358.97L190.35,358.8L192.69,355.04L193.86,354.29L200.86,352.7L202.03,352.9L210.21,348.59L211.37,348.85L214.88,348.66L216.04,354.48L217.21,351.31L218.38,350.81L223.05,349.67L224.22,343.39L225.39,346.63L226.55,347.22L227.72,347.32L228.89,348.56L232.39,350.65L233.56,352.06L237.07,354.69L238.23,355.6L239.4,355.8L240.57,356.81L246.41,361.31L247.58,361.25L252.25,364.11L253.41,364.83L255.75,364.97L256.92,365.91L261.59,369.06L262.76,368.59L263.92,368.74L265.09,370.54L266.26,370.65L267.43,371.8L268.6,370.54L269.76,371.6L272.1,371.6L273.27,373.26L276.77,373.2L277.94,373.62L280.27,373.8L281.44,372.7L284.95,374.28L286.11,374.36L289.62,375.11L290.78,375.46L294.29,376.19L295.46,376.58L298.96,377.31L300.13,377.83L303.63,378.15L304.8,378.15L309.47,378.92L310.64,379.03L321.15,379.14L322.32,378.77L328.15,377.63L329.32,377.56L333.99,376.28L335.16,375.49L338.66,374.01L339.83,373.16L342.17,370.58L343.34,369.99L346.84,368.85L348.01,368.01L352.68,368.36L353.85,368.56L356.18,368.92L357.35,369.02L362.02,367.8L363.19,367.03L372.53,366.12L373.7,366.26L376.03,366.93L377.2,367.2L378.37,367.14L379.54,368.19L381.87,368.63L383.04,369.25L404.06,373.2L405.23,373.02L415.74,375.61L416.91,375.98L432.09,377.39L433.26,377.31L460.12,375.22L461.28,375.99L463.62,374.49L464.79,373.97L468.29,373.44L469.46,371.98L472.96,373.59L474.13,372.74L476.47,372.18L477.63,370.48L479.97,366.54L481.14,362.71L483.47,359.56L484.64,359.56L486.98,355.73L488.14,354.4L492.82,349.83L493.98,347.11L497.49,340.95L498.65,339.54L500.99,338.86L502.16,337.01L508,336.16L509.16,336L511.5,336.98L512.67,336.77L516.17,338.01L517.34,338.4L520.84,335.85L522.01,332.45L523.18,331.84L524.35,334.19L525.51,332.41L526.68,319.77L531.35,264.89L532.52,264.59L533.69,261.73L534.86,233.26L537.19,207.41L538.36,203.17L539.53,195.16L540.7,176.43L541.86,176.82L543.03,175.61L544.2,175.66L545.37,167.75L548.87,134.6L550.04,132.09L553.54,64.58L554.71,48.04L557.04,22.77L558.21,21.06L559.38,3L560.55,0L562.88,4.46L564.05,11.3L565.22,15.23L566.39,16.01L568.72,45.57L569.89,53.45L573.39,89.29L574.56,91.84L576.9,143.45L578.07,161.31L580.4,192.23L581.57,200.12L582.74,202.58L583.9,220.1L588.58,258.84L589.74,264.56L590.91,265.69L592.08,270.83L595.58,281.56L596.75,285.23L597.92,286.32L599.09,286.35L600.25,290.52L601.42,291.12L606.09,282.69L607.26,282.67L610.76,274.22L611.93,271.31L614.27,264.8L615.43,264.07L616.6,254.22L617.77,250.74L621.27,240.17L622.44,238.34L623.61,237.97L624.78,230.16L627.11,219.51L628.28,215.83L630.62,210.77L631.78,211.02L637.62,222.98L638.79,226.81L639.96,228.15L641.13,232.18L642.29,236.41L643.46,237.59L644.63,238.56L645.8,241.58L646.97,242.86L648.13,242.65L649.3,250.77L650.47,251.54L653.97,266.34L655.14,268.91L656.31,269.19L657.48,295.97L658.64,293.31L659.81,298.72L662.15,307.62" style="fill: rgb(8, 115, 191); fill-opacity: 0.2; stroke-width: 0;"/></g></g><g class="errorbars"/><g class="lines"><path class="js-line" d="M-158.82,378.5L-148.31,379.1L-147.14,379.23L-122.62,378.49L-121.45,378.47L-67.73,378.19L-66.57,377.88L-44.38,377.87L-43.21,377.71L-37.37,376.55L-36.2,376.48L-32.7,376.28L-31.53,376.26L-26.86,375.2L-25.69,374.78L-18.68,374.25L-17.52,374.36L-12.85,375.02L-11.68,375.2L-4.67,375.65L-3.5,375.23L3.5,372.6L4.67,371.81L9.34,368.17L10.51,368.17L14.01,364.2L15.18,363.68L18.68,362.17L19.85,360.69L22.19,357.15L23.36,353.68L25.69,349.11L26.86,348.79L29.2,341.27L30.36,339L32.7,337.19L33.87,335.4L36.2,334.71L37.37,335.43L38.54,336.14L39.71,338.03L42.04,342.82L43.21,343.05L45.54,349.21L46.71,355.35L47.88,355.27L49.05,356.02L51.38,356.88L52.55,358.94L53.72,360.44L54.89,358.03L57.22,361.69L58.39,362.4L59.56,362.43L60.73,363.75L63.06,364.94L64.23,365.84L67.73,366.44L68.9,366.61L71.24,365.92L72.4,364.6L77.08,361.88L78.24,360.86L82.91,355.49L84.08,355.21L86.42,353.15L87.59,352.83L91.09,350.08L92.26,350.01L95.76,346.05L96.93,348.38L98.1,354.09L99.26,354.05L101.6,354.96L102.77,355.67L105.1,355.49L106.27,355.32L107.44,354.33L108.61,354.52L112.11,355.77L113.28,355.49L114.45,351.73L115.61,353.58L117.95,354.31L119.12,355.67L121.45,357.5L122.62,357.96L128.46,356.88L129.63,356.42L137.8,354.38L138.97,355.24L143.64,357.9L144.81,359.02L145.98,360.5L147.14,360.51L149.48,360.4L150.65,361.27L156.49,363.72L157.65,363.92L159.99,363.71L161.16,363.62L164.66,361.46L165.83,361.32L168.16,361.03L169.33,360.17L176.34,360.17L177.51,360.82L181.01,360.81L182.18,360.75L184.51,361.55L185.68,360.82L189.18,358.97L190.35,358.8L192.69,355.04L193.86,354.29L200.86,352.7L202.03,352.9L210.21,348.59L211.37,348.85L214.88,348.66L216.04,354.48L217.21,351.31L218.38,350.81L223.05,349.67L224.22,343.39L225.39,346.63L226.55,347.22L227.72,347.32L228.89,348.56L232.39,350.65L233.56,352.06L237.07,354.69L238.23,355.6L239.4,355.8L240.57,356.81L246.41,361.31L247.58,361.25L252.25,364.11L253.41,364.83L255.75,364.97L256.92,365.91L261.59,369.06L262.76,368.59L263.92,368.74L265.09,370.54L266.26,370.65L267.43,371.8L268.6,370.54L269.76,371.6L272.1,371.6L273.27,373.26L276.77,373.2L277.94,373.62L280.27,373.8L281.44,372.7L284.95,374.28L286.11,374.36L289.62,375.11L290.78,375.46L294.29,376.19L295.46,376.58L298.96,377.31L300.13,377.83L303.63,378.15L304.8,378.15L309.47,378.92L310.64,379.03L321.15,379.14L322.32,378.77L328.15,377.63L329.32,377.56L333.99,376.28L335.16,375.49L338.66,374.01L339.83,373.16L342.17,370.58L343.34,369.99L346.84,368.85L348.01,368.01L352.68,368.36L353.85,368.56L356.18,368.92L357.35,369.02L362.02,367.8L363.19,367.03L372.53,366.12L373.7,366.26L376.03,366.93L377.2,367.2L378.37,367.14L379.54,368.19L381.87,368.63L383.04,369.25L404.06,373.2L405.23,373.02L415.74,375.61L416.91,375.98L432.09,377.39L433.26,377.31L460.12,375.22L461.28,375.99L463.62,374.49L464.79,373.97L468.29,373.44L469.46,371.98L472.96,373.59L474.13,372.74L476.47,372.18L477.63,370.48L479.97,366.54L481.14,362.71L483.47,359.56L484.64,359.56L486.98,355.73L488.14,354.4L492.82,349.83L493.98,347.11L497.49,340.95L498.65,339.54L500.99,338.86L502.16,337.01L508,336.16L509.16,336L511.5,336.98L512.67,336.77L516.17,338.01L517.34,338.4L520.84,335.85L522.01,332.45L523.18,331.84L524.35,334.19L525.51,332.41L526.68,319.77L531.35,264.89L532.52,264.59L533.69,261.73L534.86,233.26L537.19,207.41L538.36,203.17L539.53,195.16L540.7,176.43L541.86,176.82L543.03,175.61L544.2,175.66L545.37,167.75L548.87,134.6L550.04,132.09L553.54,64.58L554.71,48.04L557.04,22.77L558.21,21.06L559.38,3L560.55,0L562.88,4.46L564.05,11.3L565.22,15.23L566.39,16.01L568.72,45.57L569.89,53.45L573.39,89.29L574.56,91.84L576.9,143.45L578.07,161.31L580.4,192.23L581.57,200.12L582.74,202.58L583.9,220.1L588.58,258.84L589.74,264.56L590.91,265.69L592.08,270.83L595.58,281.56L596.75,285.23L597.92,286.32L599.09,286.35L600.25,290.52L601.42,291.12L606.09,282.69L607.26,282.67L610.76,274.22L611.93,271.31L614.27,264.8L615.43,264.07L616.6,254.22L617.77,250.74L621.27,240.17L622.44,238.34L623.61,237.97L624.78,230.16L627.11,219.51L628.28,215.83L630.62,210.77L631.78,211.02L637.62,222.98L638.79,226.81L639.96,228.15L641.13,232.18L642.29,236.41L643.46,237.59L644.63,238.56L645.8,241.58L646.97,242.86L648.13,242.65L649.3,250.77L650.47,251.54L653.97,266.34L655.14,268.91L656.31,269.19L657.48,295.97L658.64,293.31L659.81,298.72L662.15,307.62" style="vector-effect: non-scaling-stroke; fill: none; stroke: rgb(8, 115, 191); stroke-opacity: 1; stroke-width: 0.5px; opacity: 1;"/></g><g class="points"/><g class="text"/></g><g class="trace scatter traced19ae3" style="stroke-miterlimit: 2;"><g class="fills"><g><path class="js-fill" d="M673.83,380L662.15,380L662.15,307.62L663.32,309.96L664.48,310.54L665.65,295.16L666.82,307.5L671.49,321.92L672.66,322.47L673.83,327.06" style="fill: rgb(8, 115, 191); fill-opacity: 0.4; stroke-width: 0;"/></g></g><g class="errorbars"/><g class="lines"><path class="js-line" d="M662.15,307.62L663.32,309.96L664.48,310.54L665.65,295.16L666.82,307.5L671.49,321.92L672.66,322.47L673.83,327.06" style="vector-effect: non-scaling-stroke; fill: none; stroke: rgb(8, 115, 191); stroke-opacity: 1; stroke-width: 2px; opacity: 1;"/></g><g class="points"/><g class="text"/></g><g class="trace scatter traceae7fa1" style="stroke-miterlimit: 2; opacity: 1;"><g class="fills"/><g class="errorbars"/><g class="lines"/><g class="points"><path class="point" transform="translate(673.83,327.06)" d="M15,0A15,15 0 1,1 0,-15A15,15 0 0,1 15,0Z" style="opacity: 1; stroke-width: 0px; fill: rgb(8, 115, 191); fill-opacity: 1;"/></g><g class="text"/></g></g></g><g class="overplot"/><path class="xlines-above crisp" style="fill: none; stroke-width: 1px; stroke: rgb(0, 0, 0); stroke-opacity: 0;" d=""/><path class="ylines-above crisp" style="fill: none;" d="M0,0"/><g class="overlines-above"/><g class="xaxislayer-above"><path class="xtick ticks crisp" d="M0,450v-5" transform="translate(88.53999999999999,0)" style="stroke: rgb(68, 68, 68); stroke-opacity: 1; stroke-width: 1px;"/><path class="xtick ticks crisp" d="M0,450v-5" transform="translate(159.76999999999998,0)" style="stroke: rgb(68, 68, 68); stroke-opacity: 1; stroke-width: 1px;"/><path class="xtick ticks crisp" d="M0,450v-5" transform="translate(228.67,0)" style="stroke: rgb(68, 68, 68); stroke-opacity: 1; stroke-width: 1px;"/><path class="xtick ticks crisp" d="M0,450v-5" transform="translate(299.90999999999997,0)" style="stroke: rgb(68, 68, 68); stroke-opacity: 1; stroke-width: 1px;"/><path class="xtick ticks crisp" d="M0,450v-5" transform="translate(371.15,0)" style="stroke: rgb(68, 68, 68); stroke-opacity: 1; stroke-width: 1px;"/><path class="xtick ticks crisp" d="M0,450v-5" transform="translate(443.55,0)" style="stroke: rgb(68, 68, 68); stroke-opacity: 1; stroke-width: 1px;"/><path class="xtick ticks crisp" d="M0,450v-5" transform="translate(514.79,0)" style="stroke: rgb(68, 68, 68); stroke-opacity: 1; stroke-width: 1px;"/><path class="xtick ticks crisp" d="M0,450v-5" transform="translate(586.02,0)" style="stroke: rgb(68, 68, 68); stroke-opacity: 1; stroke-width: 1px;"/><path class="xtick ticks crisp" d="M0,450v-5" transform="translate(654.92,0)" style="stroke: rgb(68, 68, 68); stroke-opacity: 1; stroke-width: 1px;"/><path class="xtick ticks crisp" d="M0,450v-5" transform="translate(726.16,0)" style="stroke: rgb(68, 68, 68); stroke-opacity: 1; stroke-width: 1px;"/><g class="xtick"><text text-anchor="middle" x="0" y="469" transform="translate(88.53999999999999,0)" style="font-family: 'Open Sans', verdana, arial, sans-serif; font-size: 18px; fill: rgb(42, 63, 95); fill-opacity: 1; white-space: pre;">01/11</text></g><g class="xtick"><text text-anchor="middle" x="0" y="469" transform="translate(159.76999999999998,0)" style="font-family: 'Open Sans', verdana, arial, sans-serif; font-size: 18px; fill: rgb(42, 63, 95); fill-opacity: 1; white-space: pre;">01/01</text></g><g class="xtick"><text text-anchor="middle" x="0" y="469" transform="translate(228.67,0)" style="font-family: 'Open Sans', verdana, arial, sans-serif; font-size: 18px; fill: rgb(42, 63, 95); fill-opacity: 1; white-space: pre;">01/03</text></g><g class="xtick"><text text-anchor="middle" x="0" y="469" transform="translate(299.90999999999997,0)" style="font-family: 'Open Sans', verdana, arial, sans-serif; font-size: 18px; fill: rgb(42, 63, 95); fill-opacity: 1; white-space: pre;">01/05</text></g><g class="xtick"><text text-anchor="middle" x="0" y="469" transform="translate(371.15,0)" style="font-family: 'Open Sans', verdana, arial, sans-serif; font-size: 18px; fill: rgb(42, 63, 95); fill-opacity: 1; white-space: pre;">01/07</text></g><g class="xtick"><text text-anchor="middle" x="0" y="469" transform="translate(443.55,0)" style="font-family: 'Open Sans', verdana, arial, sans-serif; font-size: 18px; fill: rgb(42, 63, 95); fill-opacity: 1; white-space: pre;">01/09</text></g><g class="xtick"><text text-anchor="middle" x="0" y="469" transform="translate(514.79,0)" style="font-family: 'Open Sans', verdana, arial, sans-serif; font-size: 18px; fill: rgb(42, 63, 95); fill-opacity: 1; white-space: pre;">01/11</text></g><g class="xtick"><text text-anchor="middle" x="0" y="469" transform="translate(586.02,0)" style="font-family: 'Open Sans', verdana, arial, sans-serif; font-size: 18px; fill: rgb(42, 63, 95); fill-opacity: 1; white-space: pre;">01/01</text></g><g class="xtick"><text text-anchor="middle" x="0" y="469" transform="translate(654.92,0)" style="font-family: 'Open Sans', verdana, arial, sans-serif; font-size: 18px; fill: rgb(42, 63, 95); fill-opacity: 1; white-space: pre;">01/03</text></g><g class="xtick"><text text-anchor="middle" x="0" y="469" transform="translate(726.16,0)" style="font-family: 'Open Sans', verdana, arial, sans-serif; font-size: 18px; fill: rgb(42, 63, 95); fill-opacity: 1; white-space: pre;">01/05</text></g></g><g class="yaxislayer-above"/><g class="overaxes-above"/></g></g><g class="polarlayer"/><g class="ternarylayer"/><g class="geolayer"/><g class="funnelarealayer"/><g class="pielayer"/><g class="treemaplayer"/><g class="sunburstlayer"/><g class="glimages"/><defs id="topdefs-b127dc"><g class="clips"/></defs><g class="layer-above"><g class="imagelayer"/><g class="shapelayer"><path data-index="0" fill-rule="evenodd" d="M-606.31,444.88L247.36,444.88" clip-path="url('#clipb127dcxy')" style="opacity: 1; stroke: rgb(255, 0, 0); stroke-opacity: 1; fill: rgb(0, 0, 0); fill-opacity: 0; stroke-dasharray: 3px, 3px; stroke-width: 1.5px;"/></g></g><g class="infolayer"><g class="g-gtitle"><text class="gtitle" x="375" y="25" text-anchor="middle" dy="0.7em" style="font-family: 'Open Sans', verdana, arial, sans-serif; font-size: 50px; fill: rgb(42, 63, 95); opacity: 1; font-weight: normal; white-space: pre;"><tspan style="font-weight:bold">Meurthe-et-Moselle (54)</tspan></text></g><g class="g-xtitle"/><g class="annotation" data-index="0" style="opacity: 1;"><g class="annotation-text-g" transform="rotate(0,681.83,337.06)"><g class="cursor-pointer" transform="translate(624, 301)"><rect class="bg" x="0.5" y="0.5" width="115" height="71" style="stroke-width: 1px; stroke: rgb(0, 0, 0); stroke-opacity: 0; fill: rgb(255, 255, 255); fill-opacity: 0.6;"/><text class="annotation-text" text-anchor="middle" x="57.8125" y="55.5" style="font-family: 'Open Sans', verdana, arial, sans-serif; font-size: 50px; fill: rgb(8, 115, 191); fill-opacity: 1; white-space: pre;"> <tspan style="font-weight:bold">516 </tspan></text></g></g><g class="annotation-arrow-g" style="opacity: 1;"><path d="M710.23,372.56L721.83,387.06" style="stroke-width: 1px; stroke: rgb(8, 115, 191); stroke-opacity: 1; stroke-dasharray: 0px, 0px, 18.5691px, 18.5691px;"/></g></g></g></svg>