<svg class="main-svg" xmlns="http://www.w3.org/2000/svg" xmlns:xlink="http://www.w3.org/1999/xlink" width="1125" height="750" style="" viewBox="0 0 750 500"><rect x="0" y="0" width="750" height="500" style="fill: rgb(0, 0, 0); fill-opacity: 0;"/><defs id="defs-f7ac9f"><g class="clips"><clipPath id="clipf7ac9fxyplot" class="plotclip"><rect width="680" height="380"/></clipPath><clipPath class="axesclip" id="clipf7ac9fx"><rect x="50" y="0" width="680" height="500"/></clipPath><clipPath class="axesclip" id="clipf7ac9fy"><rect x="0" y="70" width="750" height="380"/></clipPath><clipPath class="axesclip" id="clipf7ac9fxy"><rect x="50" y="70" width="680" height="380"/></clipPath></g><g class="gradients"/></defs><g class="bglayer"><rect class="bg" x="50" y="70" width="680" height="380" style="fill: rgb(0, 0, 0); fill-opacity: 0; stroke-width: 0;"/></g><g class="layer-below"><g class="imagelayer"/><g class="shapelayer"/></g><g class="cartesianlayer"><g class="subplot xy"><g class="layer-subplot"><g class="shapelayer"/><g class="imagelayer"/></g><g class="gridlayer"><g class="x"><path class="xgrid crisp" transform="translate(88.56,0)" d="M0,70v380" style="stroke: rgb(255, 255, 255); stroke-opacity: 1; stroke-width: 1px;"/><path class="xgrid crisp" transform="translate(159.82999999999998,0)" d="M0,70v380" style="stroke: rgb(255, 255, 255); stroke-opacity: 1; stroke-width: 1px;"/><path class="xgrid crisp" transform="translate(228.76,0)" d="M0,70v380" style="stroke: rgb(255, 255, 255); stroke-opacity: 1; stroke-width: 1px;"/><path class="xgrid crisp" transform="translate(300.03,0)" d="M0,70v380" style="stroke: rgb(255, 255, 255); stroke-opacity: 1; stroke-width: 1px;"/><path class="xgrid crisp" transform="translate(371.31,0)" d="M0,70v380" style="stroke: rgb(255, 255, 255); stroke-opacity: 1; stroke-width: 1px;"/><path class="xgrid crisp" transform="translate(443.75,0)" d="M0,70v380" style="stroke: rgb(255, 255, 255); stroke-opacity: 1; stroke-width: 1px;"/><path class="xgrid crisp" transform="translate(515.02,0)" d="M0,70v380" style="stroke: rgb(255, 255, 255); stroke-opacity: 1; stroke-width: 1px;"/><path class="xgrid crisp" transform="translate(586.29,0)" d="M0,70v380" style="stroke: rgb(255, 255, 255); stroke-opacity: 1; stroke-width: 1px;"/><path class="xgrid crisp" transform="translate(655.22,0)" d="M0,70v380" style="stroke: rgb(255, 255, 255); stroke-opacity: 1; stroke-width: 1px;"/><path class="xgrid crisp" transform="translate(726.49,0)" d="M0,70v380" style="stroke: rgb(255, 255, 255); stroke-opacity: 1; stroke-width: 1px;"/></g><g class="y"/></g><g class="zerolinelayer"/><path class="xlines-below"/><path class="ylines-below"/><g class="overlines-below"/><g class="xaxislayer-below"/><g class="yaxislayer-below"/><g class="overaxes-below"/><g class="plot" transform="translate(50, 70)" clip-path="url('#clipf7ac9fxyplot')"><g class="scatterlayer mlayer"><g class="trace scatter trace739ea6" style="stroke-miterlimit: 2;"><g class="fills"><g><path class="js-fill" d="M660.14,380L-158.9,380L-158.9,378.51L-148.38,378.39L-147.22,379.06L-128.52,379.91L-127.35,379.93L-63.09,379.66L-61.92,379.56L-43.23,377.57L-42.06,377.52L-37.39,377.5L-36.22,376.95L-32.71,375.16L-31.55,374.93L-29.21,374.38L-28.04,373.58L-23.37,372.96L-22.2,372.84L-21.03,371.9L-19.86,372.57L-15.19,372.89L-14.02,372.98L-12.85,373.94L-11.68,373.53L-9.35,372.96L-8.18,372.68L-5.84,372.59L-4.67,373.12L0,375.99L1.17,376.42L5.84,375.53L7.01,375.04L14.02,372.25L15.19,371.19L17.53,369.47L18.69,369.38L19.86,368L21.03,365.25L23.37,360.15L24.54,356.85L26.87,356.09L28.04,353.41L31.55,348.5L32.71,349L33.88,347.95L35.05,347.97L36.22,346.18L37.39,346.23L38.56,346.89L39.73,348.73L42.06,351.23L43.23,351.44L46.74,359.47L47.9,359.15L50.24,360.29L51.41,360.41L53.75,364.56L54.91,363.5L56.08,366.26L57.25,366.9L61.92,369.15L63.09,370.04L67.77,372.66L68.93,373.05L72.44,373.85L73.61,373.55L78.28,372.98L79.45,372.54L81.79,372.38L82.96,372.38L94.64,373.81L95.81,374.24L99.31,375.78L100.48,375.76L102.82,375.82L103.99,375.53L106.32,374.68L107.49,374.1L111,373.28L112.16,372.64L113.33,372.36L114.5,370.18L120.34,369.49L121.51,368.67L130.86,365.02L132.03,364.83L133.2,364.77L134.36,362.77L135.53,361.23L136.7,360.98L140.21,361.28L141.37,361.39L142.54,362.88L143.71,362.84L148.38,361.81L149.55,361.69L150.72,361.69L151.89,362.63L155.4,366.81L156.56,367.34L162.41,366.39L163.57,365.66L164.74,364.95L165.91,365.16L169.42,361.16L170.58,361.12L172.92,361.83L174.09,361.88L175.26,363.76L176.43,363.64L177.59,364.28L178.76,364.05L189.28,360.66L190.45,361L191.62,359.01L192.78,359.37L195.12,359.21L196.29,358.78L198.63,358.87L199.79,360.15L202.13,359.88L203.3,359.47L204.47,359.88L205.64,358.59L206.8,358.59L207.97,356.94L212.65,353.8L213.81,354.07L214.98,354.17L216.15,358.16L217.32,356.44L218.49,357.01L223.16,355.82L224.33,353.16L225.5,355.15L226.67,355.54L231.34,358.04L232.51,358.09L237.18,359.7L238.35,360.13L239.52,359.97L240.69,360.59L243.02,362.66L244.19,364.42L246.53,367.45L247.7,367.63L250.03,369.13L251.2,368.57L255.88,368.09L257.04,368.87L259.38,369.15L260.55,370.62L262.89,371.28L264.05,371.24L268.73,371.86L269.9,372.04L272.23,371.97L273.4,373.62L276.91,373.58L278.08,373.32L280.41,373.76L281.58,373.28L287.42,375.66L288.59,375.64L301.44,378.53L302.61,378.58L315.46,378.81L316.63,378.33L322.47,377.66L323.64,377.71L327.15,378.58L328.32,378.62L332.99,378.05L334.16,377.55L336.49,376.33L337.66,376.28L345.84,372.57L347.01,371.3L351.68,369.17L352.85,369.45L355.19,369.68L356.36,369.79L359.86,370.71L361.03,370.48L364.54,371.3L365.7,370.82L371.55,369.91L372.71,370.36L376.22,371.3L377.39,371.33L383.23,371.12L384.4,371.65L387.9,372.68L389.07,373.37L400.76,374.2L401.92,374.72L404.26,375.18L405.43,375.39L410.1,374.65L411.27,374.54L419.45,376.4L420.62,376.1L424.12,376.28L425.29,376.63L438.14,377.73L439.31,377.48L455.67,375.25L456.84,374.91L460.34,373.53L461.51,373.83L463.85,371.72L465.02,371.3L467.35,371.26L468.52,371.35L469.69,369.79L470.86,370.55L472.03,370.41L473.2,371.72L476.7,370.09L477.87,368.46L482.54,364.35L483.71,364.49L484.88,364.47L486.05,363.55L488.38,361.05L489.55,358.66L491.89,355.45L493.06,355.36L500.07,350.22L501.24,349.99L503.57,347.26L504.74,346.92L510.58,348.29L511.75,349.49L516.43,351.69L517.59,351.71L518.76,353.29L519.93,352.4L523.44,349.23L524.6,351.48L525.77,350.63L526.94,340.54L530.45,303.49L531.62,291.3L532.78,290.89L533.95,289.15L536.29,242.3L537.46,226.28L539.79,200.04L540.96,178.15L542.13,177.09L543.3,170.62L544.47,166.56L545.64,159.77L546.8,156.88L547.97,150.25L549.14,143.48L550.31,141.6L552.65,102.37L553.81,84.7L556.15,43.59L557.32,31.87L558.49,29.78L559.66,13.97L561.99,0L563.16,4.47L567.84,18.24L569,28.52L573.68,72.93L574.85,72.66L577.18,129.4L578.35,151.97L581.86,201.71L583.02,204.65L585.36,243.88L586.53,258.54L590.03,283.8L591.2,284.47L593.54,298.46L594.71,301.38L598.21,309.82L599.38,310.12L601.72,315.44L602.89,316.68L606.39,318.24L607.56,318.01L611.07,311.06L612.23,308.67L614.57,302.73L615.74,302.32L619.24,285.18L620.41,280.22L622.75,273.96L623.92,273.87L627.42,249.41L628.59,243.22L630.93,233.19L632.1,233.28L634.43,230.05L635.6,230.23L637.94,231.26L639.11,233.67L640.27,233.85L641.44,236.91L646.12,241.04L647.29,238.74L648.45,238.67L649.62,237.55L655.46,258.56L656.63,259.28L657.8,290.25L658.97,287.27L660.14,295.25" style="fill: rgb(8, 115, 191); fill-opacity: 0.2; stroke-width: 0;"/></g></g><g class="errorbars"/><g class="lines"><path class="js-line" d="M-158.9,378.51L-148.38,378.39L-147.22,379.06L-128.52,379.91L-127.35,379.93L-63.09,379.66L-61.92,379.56L-43.23,377.57L-42.06,377.52L-37.39,377.5L-36.22,376.95L-32.71,375.16L-31.55,374.93L-29.21,374.38L-28.04,373.58L-23.37,372.96L-22.2,372.84L-21.03,371.9L-19.86,372.57L-15.19,372.89L-14.02,372.98L-12.85,373.94L-11.68,373.53L-9.35,372.96L-8.18,372.68L-5.84,372.59L-4.67,373.12L0,375.99L1.17,376.42L5.84,375.53L7.01,375.04L14.02,372.25L15.19,371.19L17.53,369.47L18.69,369.38L19.86,368L21.03,365.25L23.37,360.15L24.54,356.85L26.87,356.09L28.04,353.41L31.55,348.5L32.71,349L33.88,347.95L35.05,347.97L36.22,346.18L37.39,346.23L38.56,346.89L39.73,348.73L42.06,351.23L43.23,351.44L46.74,359.47L47.9,359.15L50.24,360.29L51.41,360.41L53.75,364.56L54.91,363.5L56.08,366.26L57.25,366.9L61.92,369.15L63.09,370.04L67.77,372.66L68.93,373.05L72.44,373.85L73.61,373.55L78.28,372.98L79.45,372.54L81.79,372.38L82.96,372.38L94.64,373.81L95.81,374.24L99.31,375.78L100.48,375.76L102.82,375.82L103.99,375.53L106.32,374.68L107.49,374.1L111,373.28L112.16,372.64L113.33,372.36L114.5,370.18L120.34,369.49L121.51,368.67L130.86,365.02L132.03,364.83L133.2,364.77L134.36,362.77L135.53,361.23L136.7,360.98L140.21,361.28L141.37,361.39L142.54,362.88L143.71,362.84L148.38,361.81L149.55,361.69L150.72,361.69L151.89,362.63L155.4,366.81L156.56,367.34L162.41,366.39L163.57,365.66L164.74,364.95L165.91,365.16L169.42,361.16L170.58,361.12L172.92,361.83L174.09,361.88L175.26,363.76L176.43,363.64L177.59,364.28L178.76,364.05L189.28,360.66L190.45,361L191.62,359.01L192.78,359.37L195.12,359.21L196.29,358.78L198.63,358.87L199.79,360.15L202.13,359.88L203.3,359.47L204.47,359.88L205.64,358.59L206.8,358.59L207.97,356.94L212.65,353.8L213.81,354.07L214.98,354.17L216.15,358.16L217.32,356.44L218.49,357.01L223.16,355.82L224.33,353.16L225.5,355.15L226.67,355.54L231.34,358.04L232.51,358.09L237.18,359.7L238.35,360.13L239.52,359.97L240.69,360.59L243.02,362.66L244.19,364.42L246.53,367.45L247.7,367.63L250.03,369.13L251.2,368.57L255.88,368.09L257.04,368.87L259.38,369.15L260.55,370.62L262.89,371.28L264.05,371.24L268.73,371.86L269.9,372.04L272.23,371.97L273.4,373.62L276.91,373.58L278.08,373.32L280.41,373.76L281.58,373.28L287.42,375.66L288.59,375.64L301.44,378.53L302.61,378.58L315.46,378.81L316.63,378.33L322.47,377.66L323.64,377.71L327.15,378.58L328.32,378.62L332.99,378.05L334.16,377.55L336.49,376.33L337.66,376.28L345.84,372.57L347.01,371.3L351.68,369.17L352.85,369.45L355.19,369.68L356.36,369.79L359.86,370.71L361.03,370.48L364.54,371.3L365.7,370.82L371.55,369.91L372.71,370.36L376.22,371.3L377.39,371.33L383.23,371.12L384.4,371.65L387.9,372.68L389.07,373.37L400.76,374.2L401.92,374.72L404.26,375.18L405.43,375.39L410.1,374.65L411.27,374.54L419.45,376.4L420.62,376.1L424.12,376.28L425.29,376.63L438.14,377.73L439.31,377.48L455.67,375.25L456.84,374.91L460.34,373.53L461.51,373.83L463.85,371.72L465.02,371.3L467.35,371.26L468.52,371.35L469.69,369.79L470.86,370.55L472.03,370.41L473.2,371.72L476.7,370.09L477.87,368.46L482.54,364.35L483.71,364.49L484.88,364.47L486.05,363.55L488.38,361.05L489.55,358.66L491.89,355.45L493.06,355.36L500.07,350.22L501.24,349.99L503.57,347.26L504.74,346.92L510.58,348.29L511.75,349.49L516.43,351.69L517.59,351.71L518.76,353.29L519.93,352.4L523.44,349.23L524.6,351.48L525.77,350.63L526.94,340.54L530.45,303.49L531.62,291.3L532.78,290.89L533.95,289.15L536.29,242.3L537.46,226.28L539.79,200.04L540.96,178.15L542.13,177.09L543.3,170.62L544.47,166.56L545.64,159.77L546.8,156.88L547.97,150.25L549.14,143.48L550.31,141.6L552.65,102.37L553.81,84.7L556.15,43.59L557.32,31.87L558.49,29.78L559.66,13.97L561.99,0L563.16,4.47L567.84,18.24L569,28.52L573.68,72.93L574.85,72.66L577.18,129.4L578.35,151.97L581.86,201.71L583.02,204.65L585.36,243.88L586.53,258.54L590.03,283.8L591.2,284.47L593.54,298.46L594.71,301.38L598.21,309.82L599.38,310.12L601.72,315.44L602.89,316.68L606.39,318.24L607.56,318.01L611.07,311.06L612.23,308.67L614.57,302.73L615.74,302.32L619.24,285.18L620.41,280.22L622.75,273.96L623.92,273.87L627.42,249.41L628.59,243.22L630.93,233.19L632.1,233.28L634.43,230.05L635.6,230.23L637.94,231.26L639.11,233.67L640.27,233.85L641.44,236.91L646.12,241.04L647.29,238.74L648.45,238.67L649.62,237.55L655.46,258.56L656.63,259.28L657.8,290.25L658.97,287.27L660.14,295.25" style="vector-effect: non-scaling-stroke; fill: none; stroke: rgb(8, 115, 191); stroke-opacity: 1; stroke-width: 0.5px; opacity: 1;"/></g><g class="points"/><g class="text"/></g><g class="trace scatter trace15c065" style="stroke-miterlimit: 2;"><g class="fills"><g><path class="js-fill" d="M671.82,380L660.14,380L660.14,295.25L663.64,310.94L664.81,311.17L665.98,299.63L667.15,314.15L670.65,329.53L671.82,332.05" style="fill: rgb(8, 115, 191); fill-opacity: 0.4; stroke-width: 0;"/></g></g><g class="errorbars"/><g class="lines"><path class="js-line" d="M660.14,295.25L663.64,310.94L664.81,311.17L665.98,299.63L667.15,314.15L670.65,329.53L671.82,332.05" style="vector-effect: non-scaling-stroke; fill: none; stroke: rgb(8, 115, 191); stroke-opacity: 1; stroke-width: 2px; opacity: 1;"/></g><g class="points"/><g class="text"/></g><g class="trace scatter tracec68ae9" style="stroke-miterlimit: 2; opacity: 1;"><g class="fills"/><g class="errorbars"/><g class="lines"/><g class="points"><path class="point" transform="translate(671.82,332.05)" d="M15,0A15,15 0 1,1 0,-15A15,15 0 0,1 15,0Z" style="opacity: 1; stroke-width: 0px; fill: rgb(8, 115, 191); fill-opacity: 1;"/></g><g class="text"/></g></g></g><g class="overplot"/><path class="xlines-above crisp" style="fill: none; stroke-width: 1px; stroke: rgb(0, 0, 0); stroke-opacity: 0;" d=""/><path class="ylines-above crisp" style="fill: none;" d="M0,0"/><g class="overlines-above"/><g class="xaxislayer-above"><path class="xtick ticks crisp" d="M0,450v-5" transform="translate(88.56,0)" style="stroke: rgb(68, 68, 68); stroke-opacity: 1; stroke-width: 1px;"/><path class="xtick ticks crisp" d="M0,450v-5" transform="translate(159.82999999999998,0)" style="stroke: rgb(68, 68, 68); stroke-opacity: 1; stroke-width: 1px;"/><path class="xtick ticks crisp" d="M0,450v-5" transform="translate(228.76,0)" style="stroke: rgb(68, 68, 68); stroke-opacity: 1; stroke-width: 1px;"/><path class="xtick ticks crisp" d="M0,450v-5" transform="translate(300.03,0)" style="stroke: rgb(68, 68, 68); stroke-opacity: 1; stroke-width: 1px;"/><path class="xtick ticks crisp" d="M0,450v-5" transform="translate(371.31,0)" style="stroke: rgb(68, 68, 68); stroke-opacity: 1; stroke-width: 1px;"/><path class="xtick ticks crisp" d="M0,450v-5" transform="translate(443.75,0)" style="stroke: rgb(68, 68, 68); stroke-opacity: 1; stroke-width: 1px;"/><path class="xtick ticks crisp" d="M0,450v-5" transform="translate(515.02,0)" style="stroke: rgb(68, 68, 68); stroke-opacity: 1; stroke-width: 1px;"/><path class="xtick ticks crisp" d="M0,450v-5" transform="translate(586.29,0)" style="stroke: rgb(68, 68, 68); stroke-opacity: 1; stroke-width: 1px;"/><path class="xtick ticks crisp" d="M0,450v-5" transform="translate(655.22,0)" style="stroke: rgb(68, 68, 68); stroke-opacity: 1; stroke-width: 1px;"/><path class="xtick ticks crisp" d="M0,450v-5" transform="translate(726.49,0)" style="stroke: rgb(68, 68, 68); stroke-opacity: 1; stroke-width: 1px;"/><g class="xtick"><text text-anchor="middle" x="0" y="469" transform="translate(88.56,0)" style="font-family: 'Open Sans', verdana, arial, sans-serif; font-size: 18px; fill: rgb(42, 63, 95); fill-opacity: 1; white-space: pre;">01/11</text></g><g class="xtick"><text text-anchor="middle" x="0" y="469" transform="translate(159.82999999999998,0)" style="font-family: 'Open Sans', verdana, arial, sans-serif; font-size: 18px; fill: rgb(42, 63, 95); fill-opacity: 1; white-space: pre;">01/01</text></g><g class="xtick"><text text-anchor="middle" x="0" y="469" transform="translate(228.76,0)" style="font-family: 'Open Sans', verdana, arial, sans-serif; font-size: 18px; fill: rgb(42, 63, 95); fill-opacity: 1; white-space: pre;">01/03</text></g><g class="xtick"><text text-anchor="middle" x="0" y="469" transform="translate(300.03,0)" style="font-family: 'Open Sans', verdana, arial, sans-serif; font-size: 18px; fill: rgb(42, 63, 95); fill-opacity: 1; white-space: pre;">01/05</text></g><g class="xtick"><text text-anchor="middle" x="0" y="469" transform="translate(371.31,0)" style="font-family: 'Open Sans', verdana, arial, sans-serif; font-size: 18px; fill: rgb(42, 63, 95); fill-opacity: 1; white-space: pre;">01/07</text></g><g class="xtick"><text text-anchor="middle" x="0" y="469" transform="translate(443.75,0)" style="font-family: 'Open Sans', verdana, arial, sans-serif; font-size: 18px; fill: rgb(42, 63, 95); fill-opacity: 1; white-space: pre;">01/09</text></g><g class="xtick"><text text-anchor="middle" x="0" y="469" transform="translate(515.02,0)" style="font-family: 'Open Sans', verdana, arial, sans-serif; font-size: 18px; fill: rgb(42, 63, 95); fill-opacity: 1; white-space: pre;">01/11</text></g><g class="xtick"><text text-anchor="middle" x="0" y="469" transform="translate(586.29,0)" style="font-family: 'Open Sans', verdana, arial, sans-serif; font-size: 18px; fill: rgb(42, 63, 95); fill-opacity: 1; white-space: pre;">01/01</text></g><g class="xtick"><text text-anchor="middle" x="0" y="469" transform="translate(655.22,0)" style="font-family: 'Open Sans', verdana, arial, sans-serif; font-size: 18px; fill: rgb(42, 63, 95); fill-opacity: 1; white-space: pre;">01/03</text></g><g class="xtick"><text text-anchor="middle" x="0" y="469" transform="translate(726.49,0)" style="font-family: 'Open Sans', verdana, arial, sans-serif; font-size: 18px; fill: rgb(42, 63, 95); fill-opacity: 1; white-space: pre;">01/05</text></g></g><g class="yaxislayer-above"/><g class="overaxes-above"/></g></g><g class="polarlayer"/><g class="ternarylayer"/><g class="geolayer"/><g class="funnelarealayer"/><g class="pielayer"/><g class="treemaplayer"/><g class="sunburstlayer"/><g class="glimages"/><defs id="topdefs-f7ac9f"><g class="clips"/></defs><g class="layer-above"><g class="imagelayer"/><g class="shapelayer"><path data-index="0" fill-rule="evenodd" d="M-606.63,444.98L247.46,444.98" clip-path="url('#clipf7ac9fxy')" style="opacity: 1; stroke: rgb(255, 0, 0); stroke-opacity: 1; fill: rgb(0, 0, 0); fill-opacity: 0; stroke-dasharray: 3px, 3px; stroke-width: 1.5px;"/></g></g><g class="infolayer"><g class="g-gtitle"><text class="gtitle" x="375" y="25" text-anchor="middle" dy="0.7em" style="font-family: 'Open Sans', verdana, arial, sans-serif; font-size: 50px; fill: rgb(42, 63, 95); opacity: 1; font-weight: normal; white-space: pre;"><tspan style="font-weight:bold">Vienne (86)</tspan></text></g><g class="g-xtitle"/><g class="annotation" data-index="0" style="opacity: 1;"><g class="annotation-text-g" transform="rotate(0,679.82,342.05)"><g class="cursor-pointer" transform="translate(622, 306)"><rect class="bg" x="0.5" y="0.5" width="115" height="71" style="stroke-width: 1px; stroke: rgb(0, 0, 0); stroke-opacity: 0; fill: rgb(255, 255, 255); fill-opacity: 0.6;"/><text class="annotation-text" text-anchor="middle" x="57.8125" y="55.5" style="font-family: 'Open Sans', verdana, arial, sans-serif; font-size: 50px; fill: rgb(8, 115, 191); fill-opacity: 1; white-space: pre;"> <tspan style="font-weight:bold">477 </tspan></text></g></g><g class="annotation-arrow-g" style="opacity: 1;"><path d="M708.22,377.55L719.82,392.05" style="stroke-width: 1px; stroke: rgb(8, 115, 191); stroke-opacity: 1; stroke-dasharray: 0px, 0px, 18.5691px, 18.5691px;"/></g></g></g></svg>