<svg class="main-svg" xmlns="http://www.w3.org/2000/svg" xmlns:xlink="http://www.w3.org/1999/xlink" width="1125" height="750" style="" viewBox="0 0 750 500"><rect x="0" y="0" width="750" height="500" style="fill: rgb(0, 0, 0); fill-opacity: 0;"/><defs id="defs-606490"><g class="clips"><clipPath id="clip606490xyplot" class="plotclip"><rect width="700" height="380"/></clipPath><clipPath class="axesclip" id="clip606490x"><rect x="50" y="0" width="700" height="500"/></clipPath><clipPath class="axesclip" id="clip606490y"><rect x="0" y="70" width="750" height="380"/></clipPath><clipPath class="axesclip" id="clip606490xy"><rect x="50" y="70" width="700" height="380"/></clipPath></g><g class="gradients"/></defs><g class="bglayer"><rect class="bg" x="50" y="70" width="700" height="380" style="fill: rgb(0, 0, 0); fill-opacity: 0; stroke-width: 0;"/></g><g class="layer-below"><g class="imagelayer"/><g class="shapelayer"/></g><g class="cartesianlayer"><g class="subplot xy"><g class="layer-subplot"><g class="shapelayer"/><g class="imagelayer"/></g><g class="gridlayer"><g class="x"><path class="xgrid crisp" transform="translate(91.25,0)" d="M0,70v380" style="stroke: rgb(255, 255, 255); stroke-opacity: 1; stroke-width: 1px;"/><path class="xgrid crisp" transform="translate(167.5,0)" d="M0,70v380" style="stroke: rgb(255, 255, 255); stroke-opacity: 1; stroke-width: 1px;"/><path class="xgrid crisp" transform="translate(241.25,0)" d="M0,70v380" style="stroke: rgb(255, 255, 255); stroke-opacity: 1; stroke-width: 1px;"/><path class="xgrid crisp" transform="translate(317.5,0)" d="M0,70v380" style="stroke: rgb(255, 255, 255); stroke-opacity: 1; stroke-width: 1px;"/><path class="xgrid crisp" transform="translate(393.75,0)" d="M0,70v380" style="stroke: rgb(255, 255, 255); stroke-opacity: 1; stroke-width: 1px;"/><path class="xgrid crisp" transform="translate(471.25,0)" d="M0,70v380" style="stroke: rgb(255, 255, 255); stroke-opacity: 1; stroke-width: 1px;"/><path class="xgrid crisp" transform="translate(547.5,0)" d="M0,70v380" style="stroke: rgb(255, 255, 255); stroke-opacity: 1; stroke-width: 1px;"/><path class="xgrid crisp" transform="translate(623.75,0)" d="M0,70v380" style="stroke: rgb(255, 255, 255); stroke-opacity: 1; stroke-width: 1px;"/><path class="xgrid crisp" transform="translate(697.5,0)" d="M0,70v380" style="stroke: rgb(255, 255, 255); stroke-opacity: 1; stroke-width: 1px;"/></g><g class="y"/></g><g class="zerolinelayer"/><path class="xlines-below"/><path class="ylines-below"/><g class="overlines-below"/><g class="xaxislayer-below"/><g class="yaxislayer-below"/><g class="overaxes-below"/><g class="plot" transform="translate(50, 70)" clip-path="url('#clip606490xyplot')"><g class="scatterlayer mlayer"><g class="trace scatter trace6a2d61" style="stroke-miterlimit: 2;"><g class="fills"><g><path class="js-fill" d="M678.75,380L-170,380L-170,379.24L-155,379.55L-153.75,379.62L-120,379.77L-118.75,379.77L-53.75,378.72L-52.5,378.57L-47.5,376.3L-46.25,374.94L-42.5,371.62L-41.25,371.47L-35,367.01L-33.75,366.86L-31.25,366.71L-30,368.22L-28.75,368.37L-27.5,369.58L-23.75,369.2L-22.5,370.64L-18.75,371.24L-17.5,371.24L-15,371.84L-13.75,370.03L-12.5,369.88L-11.25,370.86L-10,369.65L-8.75,370.11L-6.25,370.79L-5,372.67L-2.5,373.58L-1.25,375.09L3.75,374.19L5,372.75L10,369.96L11.25,369.81L13.75,365.58L15,361.57L17.5,355.53L18.75,354.85L20,354.93L21.25,354.25L22.5,351.61L23.75,352.51L25,352.21L26.25,348.66L28.75,347.38L30,343.15L31.25,340.81L32.5,336.2L33.75,330.76L35,320.42L37.5,319.96L38.75,316.79L42.5,320.42L43.75,334.16L46.25,335.6L47.5,344.36L51.25,364.9L52.5,366.94L55,368.22L56.25,369.13L57.5,370.41L58.75,369.96L61.25,373.58L62.5,373.96L65,374.64L66.25,375.39L70,375.92L71.25,375.7L77.5,375.7L78.75,374.71L83.75,376.07L85,375.77L88.75,377.43L90,377.51L97.5,378.34L98.75,378.19L101.25,377.96L102.5,377.73L106.25,376L107.5,376.15L111.25,373.51L112.5,373.35L116.25,372.6L117.5,372L121.25,371.77L122.5,370.41L123.75,371.47L125,371.47L127.5,371.84L128.75,372.07L131.25,371.77L132.5,372.07L133.75,372.07L135,373.2L136.25,372.98L137.5,373.96L142.5,373.43L143.75,371.92L147.5,371.39L148.75,372.67L151.25,372.37L152.5,373.58L153.75,374.64L155,374.41L158.75,374.26L160,374.19L162.5,374.11L163.75,374.64L167.5,374.71L168.75,374.86L171.25,375.09L172.5,374.56L177.5,373.81L178.75,371.54L181.25,370.56L182.5,370.41L183.75,369.5L185,370.11L186.25,370.26L187.5,371.62L188.75,371.47L190,370.56L193.75,368.9L195,368.9L198.75,366.71L200,366.63L203.75,366.1L205,364.75L206.25,366.18L207.5,365.95L210,364.75L211.25,363.76L212.5,363.76L213.75,362.86L217.5,359.76L218.75,359.23L222.5,359.31L223.75,358.78L227.5,359.53L228.75,359.76L230,359.61L231.25,363.91L233.75,364.97L235,366.1L237.5,365.27L238.75,365.5L240,360.89L241.25,360.52L245,360.82L246.25,361.5L247.5,361.35L248.75,363.24L251.25,364.29L252.5,364.67L255,365.65L256.25,365.8L258.75,365.8L260,367.24L263.75,369.58L265,369.73L267.5,372.22L268.75,372.67L275,374.56L276.25,375.39L277.5,375.54L278.75,376.68L281.25,376.83L282.5,376.83L285,377.66L286.25,377.36L288.75,377.36L290,377.58L300,377.81L301.25,377.13L303.75,376.9L305,376.68L311.25,376.6L312.5,376.9L323.75,379.24L325,379.02L331.25,379.09L332.5,379.32L336.25,379.77L337.5,379.55L352.5,377.96L353.75,377.51L356.25,377.28L357.5,375.17L362.5,371.16L363.75,367.84L367.5,353.72L368.75,350.17L370,349.11L371.25,340.73L375,330.84L376.25,327.82L377.5,324.95L378.75,324.19L383.75,306.67L385,305.69L386.25,303.05L387.5,303.12L388.75,304.56L390,303.65L391.25,304.94L392.5,310.37L393.75,311.13L395,314.83L396.25,315.28L397.5,318.53L400,330.16L401.25,330.01L403.75,336.05L405,336.8L410,347.07L411.25,350.47L412.5,352.74L413.75,352.81L416.25,360.82L417.5,363.08L420,364.97L421.25,364.75L423.75,365.58L425,365.27L428.75,366.33L430,367.39L432.5,367.24L433.75,368.14L445,372.75L446.25,372.83L448.75,372.37L450,372.9L453.75,373.05L455,372.15L457.5,372.22L458.75,370.86L461.25,370.03L462.5,369.05L465,369.2L466.25,369.5L467.5,370.26L468.75,369.73L471.25,371.01L472.5,370.71L475,371.39L476.25,371.92L478.75,373.05L480,373.58L481.25,373.81L482.5,373.05L488.75,370.33L490,370.18L492.5,370.79L493.75,372.22L495,369.96L496.25,369.43L500,367.39L501.25,367.31L502.5,362.86L503.75,364.82L505,363.01L506.25,364.29L508.75,360.37L510,359.69L511.25,358.48L512.5,355.46L513.75,354.32L515,350.78L521.25,347.38L522.5,344.73L523.75,342.39L525,342.32L526.25,339.83L527.5,339.67L528.75,335.75L530,334.39L532.5,335.6L533.75,333.78L536.25,333.03L537.5,331.22L538.75,326.76L540,319.36L543.75,309.39L545,308.33L546.25,303.95L547.5,303.5L548.75,303.2L550,300.86L555,293L556.25,283.49L560,252.75L561.25,257.13L562.5,250.41L563.75,206.92L566.25,155.56L567.5,137.89L568.75,120.15L570,114.86L571.25,107.01L572.5,83.37L575,79.14L576.25,78.84L577.5,78.01L578.75,59.51L580,64.26L581.25,83.07L582.5,88.43L583.75,85.03L585,83.82L586.25,77.33L587.5,71.89L588.75,70.61L591.25,35.34L592.5,25.6L595,6.87L596.25,3.25L597.5,0L598.75,3.47L602.5,28.09L603.75,37L605,36.32L606.25,40.02L608.75,63.89L610,67.29L613.75,100.14L615,100.81L618.75,149.52L620,165.46L626.25,221.87L627.5,235.23L628.75,240.22L630,250.56L632.5,256.83L633.75,273.52L640,304.63L641.25,304.94L643.75,317.4L645,318.76L651.25,323.14L652.5,321.63L655,318.6L656.25,313.92L657.5,309.09L658.75,307.58L662.5,267.93L663.75,255.47L667.5,228.36L668.75,206.76L672.5,177.16L673.75,164.1L675,162.59L676.25,164.17L677.5,158.66L678.75,149.37" style="fill: rgb(8, 115, 191); fill-opacity: 0.2; stroke-width: 0;"/></g></g><g class="errorbars"/><g class="lines"><path class="js-line" d="M-170,379.24L-155,379.55L-153.75,379.62L-120,379.77L-118.75,379.77L-53.75,378.72L-52.5,378.57L-47.5,376.3L-46.25,374.94L-42.5,371.62L-41.25,371.47L-35,367.01L-33.75,366.86L-31.25,366.71L-30,368.22L-28.75,368.37L-27.5,369.58L-23.75,369.2L-22.5,370.64L-18.75,371.24L-17.5,371.24L-15,371.84L-13.75,370.03L-12.5,369.88L-11.25,370.86L-10,369.65L-8.75,370.11L-6.25,370.79L-5,372.67L-2.5,373.58L-1.25,375.09L3.75,374.19L5,372.75L10,369.96L11.25,369.81L13.75,365.58L15,361.57L17.5,355.53L18.75,354.85L20,354.93L21.25,354.25L22.5,351.61L23.75,352.51L25,352.21L26.25,348.66L28.75,347.38L30,343.15L31.25,340.81L32.5,336.2L33.75,330.76L35,320.42L37.5,319.96L38.75,316.79L42.5,320.42L43.75,334.16L46.25,335.6L47.5,344.36L51.25,364.9L52.5,366.94L55,368.22L56.25,369.13L57.5,370.41L58.75,369.96L61.25,373.58L62.5,373.96L65,374.64L66.25,375.39L70,375.92L71.25,375.7L77.5,375.7L78.75,374.71L83.75,376.07L85,375.77L88.75,377.43L90,377.51L97.5,378.34L98.75,378.19L101.25,377.96L102.5,377.73L106.25,376L107.5,376.15L111.25,373.51L112.5,373.35L116.25,372.6L117.5,372L121.25,371.77L122.5,370.41L123.75,371.47L125,371.47L127.5,371.84L128.75,372.07L131.25,371.77L132.5,372.07L133.75,372.07L135,373.2L136.25,372.98L137.5,373.96L142.5,373.43L143.75,371.92L147.5,371.39L148.75,372.67L151.25,372.37L152.5,373.58L153.75,374.64L155,374.41L158.75,374.26L160,374.19L162.5,374.11L163.75,374.64L167.5,374.71L168.75,374.86L171.25,375.09L172.5,374.56L177.5,373.81L178.75,371.54L181.25,370.56L182.5,370.41L183.75,369.5L185,370.11L186.25,370.26L187.5,371.62L188.75,371.47L190,370.56L193.75,368.9L195,368.9L198.75,366.71L200,366.63L203.75,366.1L205,364.75L206.25,366.18L207.5,365.95L210,364.75L211.25,363.76L212.5,363.76L213.75,362.86L217.5,359.76L218.75,359.23L222.5,359.31L223.75,358.78L227.5,359.53L228.75,359.76L230,359.61L231.25,363.91L233.75,364.97L235,366.1L237.5,365.27L238.75,365.5L240,360.89L241.25,360.52L245,360.82L246.25,361.5L247.5,361.35L248.75,363.24L251.25,364.29L252.5,364.67L255,365.65L256.25,365.8L258.75,365.8L260,367.24L263.75,369.58L265,369.73L267.5,372.22L268.75,372.67L275,374.56L276.25,375.39L277.5,375.54L278.75,376.68L281.25,376.83L282.5,376.83L285,377.66L286.25,377.36L288.75,377.36L290,377.58L300,377.81L301.25,377.13L303.75,376.9L305,376.68L311.25,376.6L312.5,376.9L323.75,379.24L325,379.02L331.25,379.09L332.5,379.32L336.25,379.77L337.5,379.55L352.5,377.96L353.75,377.51L356.25,377.28L357.5,375.17L362.5,371.16L363.75,367.84L367.5,353.72L368.75,350.17L370,349.11L371.25,340.73L375,330.84L376.25,327.82L377.5,324.95L378.75,324.19L383.75,306.67L385,305.69L386.25,303.05L387.5,303.12L388.75,304.56L390,303.65L391.25,304.94L392.5,310.37L393.75,311.13L395,314.83L396.25,315.28L397.5,318.53L400,330.16L401.25,330.01L403.75,336.05L405,336.8L410,347.07L411.25,350.47L412.5,352.74L413.75,352.81L416.25,360.82L417.5,363.08L420,364.97L421.25,364.75L423.75,365.58L425,365.27L428.75,366.33L430,367.39L432.5,367.24L433.75,368.14L445,372.75L446.25,372.83L448.75,372.37L450,372.9L453.75,373.05L455,372.15L457.5,372.22L458.75,370.86L461.25,370.03L462.5,369.05L465,369.2L466.25,369.5L467.5,370.26L468.75,369.73L471.25,371.01L472.5,370.71L475,371.39L476.25,371.92L478.75,373.05L480,373.58L481.25,373.81L482.5,373.05L488.75,370.33L490,370.18L492.5,370.79L493.75,372.22L495,369.96L496.25,369.43L500,367.39L501.25,367.31L502.5,362.86L503.75,364.82L505,363.01L506.25,364.29L508.75,360.37L510,359.69L511.25,358.48L512.5,355.46L513.75,354.32L515,350.78L521.25,347.38L522.5,344.73L523.75,342.39L525,342.32L526.25,339.83L527.5,339.67L528.75,335.75L530,334.39L532.5,335.6L533.75,333.78L536.25,333.03L537.5,331.22L538.75,326.76L540,319.36L543.75,309.39L545,308.33L546.25,303.95L547.5,303.5L548.75,303.2L550,300.86L555,293L556.25,283.49L560,252.75L561.25,257.13L562.5,250.41L563.75,206.92L566.25,155.56L567.5,137.89L568.75,120.15L570,114.86L571.25,107.01L572.5,83.37L575,79.14L576.25,78.84L577.5,78.01L578.75,59.51L580,64.26L581.25,83.07L582.5,88.43L583.75,85.03L585,83.82L586.25,77.33L587.5,71.89L588.75,70.61L591.25,35.34L592.5,25.6L595,6.87L596.25,3.25L597.5,0L598.75,3.47L602.5,28.09L603.75,37L605,36.32L606.25,40.02L608.75,63.89L610,67.29L613.75,100.14L615,100.81L618.75,149.52L620,165.46L626.25,221.87L627.5,235.23L628.75,240.22L630,250.56L632.5,256.83L633.75,273.52L640,304.63L641.25,304.94L643.75,317.4L645,318.76L651.25,323.14L652.5,321.63L655,318.6L656.25,313.92L657.5,309.09L658.75,307.58L662.5,267.93L663.75,255.47L667.5,228.36L668.75,206.76L672.5,177.16L673.75,164.1L675,162.59L676.25,164.17L677.5,158.66L678.75,149.37" style="vector-effect: non-scaling-stroke; fill: none; stroke: rgb(8, 115, 191); stroke-opacity: 1; stroke-width: 0.5px; opacity: 1;"/></g><g class="points"/><g class="text"/></g><g class="trace scatter trace093dc3" style="stroke-miterlimit: 2;"><g class="fills"><g><path class="js-fill" d="M691.25,380L678.75,380L678.75,149.37L681.25,133.36L682.5,129.36L685,128.68L686.25,124.98L687.5,127.25L688.75,134.12L690,137.97L691.25,146.05" style="fill: rgb(8, 115, 191); fill-opacity: 0.4; stroke-width: 0;"/></g></g><g class="errorbars"/><g class="lines"><path class="js-line" d="M678.75,149.37L681.25,133.36L682.5,129.36L685,128.68L686.25,124.98L687.5,127.25L688.75,134.12L690,137.97L691.25,146.05" style="vector-effect: non-scaling-stroke; fill: none; stroke: rgb(8, 115, 191); stroke-opacity: 1; stroke-width: 2px; opacity: 1;"/></g><g class="points"/><g class="text"/></g><g class="trace scatter tracef8778d" style="stroke-miterlimit: 2; opacity: 1;"><g class="fills"/><g class="errorbars"/><g class="lines"/><g class="points"><path class="point" transform="translate(691.25,146.05)" d="M15,0A15,15 0 1,1 0,-15A15,15 0 0,1 15,0Z" style="opacity: 1; stroke-width: 0px; fill: rgb(8, 115, 191); fill-opacity: 1;"/></g><g class="text"/></g></g></g><g class="overplot"/><path class="xlines-above crisp" style="fill: none; stroke-width: 1px; stroke: rgb(0, 0, 0); stroke-opacity: 0;" d=""/><path class="ylines-above crisp" style="fill: none;" d="M0,0"/><g class="overlines-above"/><g class="xaxislayer-above"><path class="xtick ticks crisp" d="M0,450v-5" transform="translate(91.25,0)" style="stroke: rgb(68, 68, 68); stroke-opacity: 1; stroke-width: 1px;"/><path class="xtick ticks crisp" d="M0,450v-5" transform="translate(167.5,0)" style="stroke: rgb(68, 68, 68); stroke-opacity: 1; stroke-width: 1px;"/><path class="xtick ticks crisp" d="M0,450v-5" transform="translate(241.25,0)" style="stroke: rgb(68, 68, 68); stroke-opacity: 1; stroke-width: 1px;"/><path class="xtick ticks crisp" d="M0,450v-5" transform="translate(317.5,0)" style="stroke: rgb(68, 68, 68); stroke-opacity: 1; stroke-width: 1px;"/><path class="xtick ticks crisp" d="M0,450v-5" transform="translate(393.75,0)" style="stroke: rgb(68, 68, 68); stroke-opacity: 1; stroke-width: 1px;"/><path class="xtick ticks crisp" d="M0,450v-5" transform="translate(471.25,0)" style="stroke: rgb(68, 68, 68); stroke-opacity: 1; stroke-width: 1px;"/><path class="xtick ticks crisp" d="M0,450v-5" transform="translate(547.5,0)" style="stroke: rgb(68, 68, 68); stroke-opacity: 1; stroke-width: 1px;"/><path class="xtick ticks crisp" d="M0,450v-5" transform="translate(623.75,0)" style="stroke: rgb(68, 68, 68); stroke-opacity: 1; stroke-width: 1px;"/><path class="xtick ticks crisp" d="M0,450v-5" transform="translate(697.5,0)" style="stroke: rgb(68, 68, 68); stroke-opacity: 1; stroke-width: 1px;"/><g class="xtick"><text text-anchor="middle" x="0" y="469" transform="translate(91.25,0)" style="font-family: 'Open Sans', verdana, arial, sans-serif; font-size: 18px; fill: rgb(42, 63, 95); fill-opacity: 1; white-space: pre;">01/11</text></g><g class="xtick"><text text-anchor="middle" x="0" y="469" transform="translate(167.5,0)" style="font-family: 'Open Sans', verdana, arial, sans-serif; font-size: 18px; fill: rgb(42, 63, 95); fill-opacity: 1; white-space: pre;">01/01</text></g><g class="xtick"><text text-anchor="middle" x="0" y="469" transform="translate(241.25,0)" style="font-family: 'Open Sans', verdana, arial, sans-serif; font-size: 18px; fill: rgb(42, 63, 95); fill-opacity: 1; white-space: pre;">01/03</text></g><g class="xtick"><text text-anchor="middle" x="0" y="469" transform="translate(317.5,0)" style="font-family: 'Open Sans', verdana, arial, sans-serif; font-size: 18px; fill: rgb(42, 63, 95); fill-opacity: 1; white-space: pre;">01/05</text></g><g class="xtick"><text text-anchor="middle" x="0" y="469" transform="translate(393.75,0)" style="font-family: 'Open Sans', verdana, arial, sans-serif; font-size: 18px; fill: rgb(42, 63, 95); fill-opacity: 1; white-space: pre;">01/07</text></g><g class="xtick"><text text-anchor="middle" x="0" y="469" transform="translate(471.25,0)" style="font-family: 'Open Sans', verdana, arial, sans-serif; font-size: 18px; fill: rgb(42, 63, 95); fill-opacity: 1; white-space: pre;">01/09</text></g><g class="xtick"><text text-anchor="middle" x="0" y="469" transform="translate(547.5,0)" style="font-family: 'Open Sans', verdana, arial, sans-serif; font-size: 18px; fill: rgb(42, 63, 95); fill-opacity: 1; white-space: pre;">01/11</text></g><g class="xtick"><text text-anchor="middle" x="0" y="469" transform="translate(623.75,0)" style="font-family: 'Open Sans', verdana, arial, sans-serif; font-size: 18px; fill: rgb(42, 63, 95); fill-opacity: 1; white-space: pre;">01/01</text></g><g class="xtick"><text text-anchor="middle" x="0" y="469" transform="translate(697.5,0)" style="font-family: 'Open Sans', verdana, arial, sans-serif; font-size: 18px; fill: rgb(42, 63, 95); fill-opacity: 1; white-space: pre;">01/03</text></g></g><g class="yaxislayer-above"/><g class="overaxes-above"/></g></g><g class="polarlayer"/><g class="ternarylayer"/><g class="geolayer"/><g class="funnelarealayer"/><g class="pielayer"/><g class="treemaplayer"/><g class="sunburstlayer"/><g class="glimages"/><defs id="topdefs-606490"><g class="clips"/></defs><g class="layer-above"><g class="imagelayer"/><g class="shapelayer"><path data-index="0" fill-rule="evenodd" d="M-652.5,443.87L261.25,443.87" clip-path="url('#clip606490xy')" style="opacity: 1; stroke: rgb(255, 0, 0); stroke-opacity: 1; fill: rgb(0, 0, 0); fill-opacity: 0; stroke-dasharray: 3px, 3px; stroke-width: 1.5px;"/></g></g><g class="infolayer"><g class="g-gtitle"><text class="gtitle" x="375" y="25" text-anchor="middle" dy="0.7em" style="font-family: 'Open Sans', verdana, arial, sans-serif; font-size: 50px; fill: rgb(42, 63, 95); opacity: 1; font-weight: normal; white-space: pre;"><tspan style="font-weight:bold">Corse-du-Sud (2A)</tspan></text></g><g class="g-xtitle"/><g class="annotation" data-index="0" style="opacity: 1;"><g class="annotation-text-g" transform="rotate(0,699.25,156.05)"><g class="cursor-pointer" transform="translate(627, 120)"><rect class="bg" x="0.5" y="0.5" width="143" height="71" style="stroke-width: 1px; stroke: rgb(0, 0, 0); stroke-opacity: 0; fill: rgb(255, 255, 255); fill-opacity: 0.6;"/><text class="annotation-text" text-anchor="middle" x="72.078125" y="55.5" style="font-family: 'Open Sans', verdana, arial, sans-serif; font-size: 50px; fill: rgb(8, 115, 191); fill-opacity: 1; white-space: pre;"> <tspan style="font-weight:bold">1907 </tspan></text></g></g><g class="annotation-arrow-g" style="opacity: 1;"><path d="M727.65,191.55L739.25,206.05" style="stroke-width: 1px; stroke: rgb(8, 115, 191); stroke-opacity: 1; stroke-dasharray: 0px, 0px, 18.569px, 18.569px;"/></g></g></g></svg>