<svg class="main-svg" xmlns="http://www.w3.org/2000/svg" xmlns:xlink="http://www.w3.org/1999/xlink" width="1125" height="750" style="" viewBox="0 0 750 500"><rect x="0" y="0" width="750" height="500" style="fill: rgb(0, 0, 0); fill-opacity: 0;"/><defs id="defs-f2b9d6"><g class="clips"><clipPath id="clipf2b9d6xyplot" class="plotclip"><rect width="700" height="380"/></clipPath><clipPath class="axesclip" id="clipf2b9d6x"><rect x="50" y="0" width="700" height="500"/></clipPath><clipPath class="axesclip" id="clipf2b9d6y"><rect x="0" y="70" width="750" height="380"/></clipPath><clipPath class="axesclip" id="clipf2b9d6xy"><rect x="50" y="70" width="700" height="380"/></clipPath></g><g class="gradients"/></defs><g class="bglayer"><rect class="bg" x="50" y="70" width="700" height="380" style="fill: rgb(0, 0, 0); fill-opacity: 0; stroke-width: 0;"/></g><g class="layer-below"><g class="imagelayer"/><g class="shapelayer"/></g><g class="cartesianlayer"><g class="subplot xy"><g class="layer-subplot"><g class="shapelayer"/><g class="imagelayer"/></g><g class="gridlayer"><g class="x"><path class="xgrid crisp" transform="translate(91.4,0)" d="M0,70v380" style="stroke: rgb(255, 255, 255); stroke-opacity: 1; stroke-width: 1px;"/><path class="xgrid crisp" transform="translate(167.92000000000002,0)" d="M0,70v380" style="stroke: rgb(255, 255, 255); stroke-opacity: 1; stroke-width: 1px;"/><path class="xgrid crisp" transform="translate(241.94,0)" d="M0,70v380" style="stroke: rgb(255, 255, 255); stroke-opacity: 1; stroke-width: 1px;"/><path class="xgrid crisp" transform="translate(318.46,0)" d="M0,70v380" style="stroke: rgb(255, 255, 255); stroke-opacity: 1; stroke-width: 1px;"/><path class="xgrid crisp" transform="translate(394.98,0)" d="M0,70v380" style="stroke: rgb(255, 255, 255); stroke-opacity: 1; stroke-width: 1px;"/><path class="xgrid crisp" transform="translate(472.76,0)" d="M0,70v380" style="stroke: rgb(255, 255, 255); stroke-opacity: 1; stroke-width: 1px;"/><path class="xgrid crisp" transform="translate(549.28,0)" d="M0,70v380" style="stroke: rgb(255, 255, 255); stroke-opacity: 1; stroke-width: 1px;"/><path class="xgrid crisp" transform="translate(625.81,0)" d="M0,70v380" style="stroke: rgb(255, 255, 255); stroke-opacity: 1; stroke-width: 1px;"/><path class="xgrid crisp" transform="translate(699.82,0)" d="M0,70v380" style="stroke: rgb(255, 255, 255); stroke-opacity: 1; stroke-width: 1px;"/></g><g class="y"/></g><g class="zerolinelayer"/><path class="xlines-below"/><path class="ylines-below"/><g class="overlines-below"/><g class="xaxislayer-below"/><g class="yaxislayer-below"/><g class="overaxes-below"/><g class="plot" transform="translate(50, 70)" clip-path="url('#clipf2b9d6xyplot')"><g class="scatterlayer mlayer"><g class="trace scatter trace0cfad9" style="stroke-miterlimit: 2;"><g class="fills"><g><path class="js-fill" d="M678.67,380L-170.61,380L-170.61,379.78L-50.18,378.79L-48.92,378.62L-31.36,375.87L-30.11,375.47L-26.34,373.75L-25.09,373.84L-21.33,373.1L-20.07,372.88L-16.31,372.05L-15.05,371.96L-12.54,371.43L-11.29,372.23L-5.02,372.68L-3.76,372.88L0,371.76L1.25,372.03L6.27,371.65L7.53,370.87L11.29,370.29L12.54,368.03L15.05,366.67L16.31,366.33L18.82,365.4L20.07,365.31L21.33,365.6L22.58,364.77L27.6,358.9L28.85,358.85L31.36,355.64L32.62,354.14L33.87,354.61L35.13,353.58L37.63,353.94L38.89,352.11L41.4,349.79L42.65,348.74L45.16,347.96L46.42,347.98L47.67,348.85L48.92,351.08L50.18,356.51L51.43,356.78L53.94,359.88L55.2,359.9L57.71,363.7L58.96,361.87L61.47,366.76L62.72,366.76L63.98,366.76L65.23,368.23L66.49,368.92L67.74,368.34L70.25,368.95L71.51,368.79L74.01,369.01L75.27,367.61L77.78,365.98L79.03,365.75L82.8,365.89L84.05,367.54L85.3,369.39L86.56,369.44L90.32,368.5L91.58,368.55L94.09,368.68L95.34,369.26L97.85,370.15L99.1,370.22L101.61,370.09L102.87,369.57L104.12,369.93L105.38,371.2L107.89,371.11L109.14,370.2L112.9,367.65L114.16,367.54L117.92,366.22L119.18,366.71L121.68,366.6L122.94,364.24L125.45,364.97L126.7,365.31L135.48,364.77L136.74,363.74L137.99,364.1L139.25,363.43L140.5,361.76L141.76,361.53L143.01,361.51L144.27,359.59L145.52,359.55L146.77,358.32L149.28,357.76L150.54,358.14L151.79,358.09L153.05,359.88L158.06,366.04L159.32,366.47L160.57,366.56L161.83,367.5L164.34,368.81L165.59,370.09L168.1,371.34L169.35,371.45L171.86,372.85L173.12,373.21L181.9,372.72L183.15,373.17L190.68,374.55L191.94,374.53L196.95,374.22L198.21,373.5L204.48,373.17L205.73,372.41L217.03,373.08L218.28,372.43L222.04,371.51L223.3,371.22L224.55,370.76L225.81,371.27L230.82,371.63L232.08,373.37L233.33,372.05L234.59,371.85L237.1,371.74L238.35,371.02L239.61,371.09L240.86,368.66L242.11,369.91L243.37,369.8L245.88,368.9L247.13,369.53L249.64,369.95L250.9,370.4L253.41,370.93L254.66,371.76L258.42,371.67L259.68,371.83L262.19,372.85L263.44,372.65L267.2,374.19L268.46,374.24L270.97,373.7L272.22,373.7L278.49,373.3L279.75,374.37L287.28,372.94L288.53,371.54L292.29,371.78L293.55,373.52L296.06,372.56L297.31,372.7L299.82,371.92L301.08,371.92L302.33,370.38L303.58,371.2L306.09,371.6L307.35,372.36L312.37,373.79L313.62,374.86L321.15,376.36L322.4,376.2L323.66,376.05L324.91,375.11L331.18,375.15L332.44,374.95L333.69,375.67L334.95,375.51L337.46,374.89L338.71,374.75L342.47,375.27L343.73,375.4L346.24,376.16L347.49,376.27L351.25,376.61L352.51,376.47L355.02,375.87L356.27,374.69L357.53,375L358.78,372.65L361.29,368.61L362.54,368.46L366.31,357.45L367.56,356.15L370.07,353.96L371.33,353.81L373.84,351.44L375.09,351.44L376.34,351.49L377.6,352.33L378.85,353.43L380.11,353.47L382.62,357.34L383.87,358.12L386.38,359.68L387.63,359.43L391.4,359.9L392.65,360.71L398.92,362.2L400.18,363.59L421.51,373.06L422.76,372.94L425.27,373.39L426.52,374.04L430.29,374.82L431.54,375.07L432.8,375.04L434.05,375.82L442.83,377.95L444.09,378.19L456.63,378.59L457.89,378.66L472.94,378.62L474.19,378.28L480.47,376.54L481.72,375.96L487.99,376.18L489.25,376.43L495.52,377.16L496.77,376.54L500.54,374.44L501.79,373.5L503.05,373.28L504.3,371.11L506.81,369.48L508.06,370.24L510.57,366.96L511.83,367.03L514.34,361.38L515.59,359.39L516.85,355.35L518.1,355.46L523.12,353.14L524.37,352.02L525.63,350.82L526.88,348.36L528.14,347.06L529.39,347L535.66,335.85L536.92,335.74L539.43,335.41L540.68,335.19L541.94,335.56L543.19,337.46L545.7,339.25L546.95,339.03L553.23,344.45L554.48,343.78L556.99,344.36L558.24,343.47L562.01,331.28L563.26,333.49L564.52,332.39L565.77,316.67L570.79,257.99L572.04,257.79L573.3,255.34L574.55,231.8L577.06,208.94L578.32,200.79L579.57,190.16L580.82,171.24L584.59,157.31L585.84,149.36L589.61,131.34L590.86,130.67L598.39,56.27L599.64,52.9L602.15,14.6L603.41,7.37L604.66,5.09L605.91,1.12L607.17,1.67L608.42,0L617.2,46.09L618.46,64.8L624.73,149.61L625.99,154.05L628.49,202.08L629.75,214.81L633.51,240.33L634.77,242.23L637.28,260.05L638.53,269.72L641.04,284.25L642.29,288.38L643.55,288.78L644.8,292.02L646.06,296.15L647.31,297.18L651.08,301.16L652.33,301.53L653.58,304.08L654.84,303.88L656.09,304.35L657.35,302.58L658.6,302.09L659.86,300.53L661.11,300.26L662.37,295.71L663.62,293.97L664.87,290.93L666.13,289.79L667.38,287.62L669.89,287.02L671.15,284.14L673.66,278.25L674.91,277.51L677.42,274.43L678.67,275.12" style="fill: rgb(8, 115, 191); fill-opacity: 0.2; stroke-width: 0;"/></g></g><g class="errorbars"/><g class="lines"><path class="js-line" d="M-170.61,379.78L-50.18,378.79L-48.92,378.62L-31.36,375.87L-30.11,375.47L-26.34,373.75L-25.09,373.84L-21.33,373.1L-20.07,372.88L-16.31,372.05L-15.05,371.96L-12.54,371.43L-11.29,372.23L-5.02,372.68L-3.76,372.88L0,371.76L1.25,372.03L6.27,371.65L7.53,370.87L11.29,370.29L12.54,368.03L15.05,366.67L16.31,366.33L18.82,365.4L20.07,365.31L21.33,365.6L22.58,364.77L27.6,358.9L28.85,358.85L31.36,355.64L32.62,354.14L33.87,354.61L35.13,353.58L37.63,353.94L38.89,352.11L41.4,349.79L42.65,348.74L45.16,347.96L46.42,347.98L47.67,348.85L48.92,351.08L50.18,356.51L51.43,356.78L53.94,359.88L55.2,359.9L57.71,363.7L58.96,361.87L61.47,366.76L62.72,366.76L63.98,366.76L65.23,368.23L66.49,368.92L67.74,368.34L70.25,368.95L71.51,368.79L74.01,369.01L75.27,367.61L77.78,365.98L79.03,365.75L82.8,365.89L84.05,367.54L85.3,369.39L86.56,369.44L90.32,368.5L91.58,368.55L94.09,368.68L95.34,369.26L97.85,370.15L99.1,370.22L101.61,370.09L102.87,369.57L104.12,369.93L105.38,371.2L107.89,371.11L109.14,370.2L112.9,367.65L114.16,367.54L117.92,366.22L119.18,366.71L121.68,366.6L122.94,364.24L125.45,364.97L126.7,365.31L135.48,364.77L136.74,363.74L137.99,364.1L139.25,363.43L140.5,361.76L141.76,361.53L143.01,361.51L144.27,359.59L145.52,359.55L146.77,358.32L149.28,357.76L150.54,358.14L151.79,358.09L153.05,359.88L158.06,366.04L159.32,366.47L160.57,366.56L161.83,367.5L164.34,368.81L165.59,370.09L168.1,371.34L169.35,371.45L171.86,372.85L173.12,373.21L181.9,372.72L183.15,373.17L190.68,374.55L191.94,374.53L196.95,374.22L198.21,373.5L204.48,373.17L205.73,372.41L217.03,373.08L218.28,372.43L222.04,371.51L223.3,371.22L224.55,370.76L225.81,371.27L230.82,371.63L232.08,373.37L233.33,372.05L234.59,371.85L237.1,371.74L238.35,371.02L239.61,371.09L240.86,368.66L242.11,369.91L243.37,369.8L245.88,368.9L247.13,369.53L249.64,369.95L250.9,370.4L253.41,370.93L254.66,371.76L258.42,371.67L259.68,371.83L262.19,372.85L263.44,372.65L267.2,374.19L268.46,374.24L270.97,373.7L272.22,373.7L278.49,373.3L279.75,374.37L287.28,372.94L288.53,371.54L292.29,371.78L293.55,373.52L296.06,372.56L297.31,372.7L299.82,371.92L301.08,371.92L302.33,370.38L303.58,371.2L306.09,371.6L307.35,372.36L312.37,373.79L313.62,374.86L321.15,376.36L322.4,376.2L323.66,376.05L324.91,375.11L331.18,375.15L332.44,374.95L333.69,375.67L334.95,375.51L337.46,374.89L338.71,374.75L342.47,375.27L343.73,375.4L346.24,376.16L347.49,376.27L351.25,376.61L352.51,376.47L355.02,375.87L356.27,374.69L357.53,375L358.78,372.65L361.29,368.61L362.54,368.46L366.31,357.45L367.56,356.15L370.07,353.96L371.33,353.81L373.84,351.44L375.09,351.44L376.34,351.49L377.6,352.33L378.85,353.43L380.11,353.47L382.62,357.34L383.87,358.12L386.38,359.68L387.63,359.43L391.4,359.9L392.65,360.71L398.92,362.2L400.18,363.59L421.51,373.06L422.76,372.94L425.27,373.39L426.52,374.04L430.29,374.82L431.54,375.07L432.8,375.04L434.05,375.82L442.83,377.95L444.09,378.19L456.63,378.59L457.89,378.66L472.94,378.62L474.19,378.28L480.47,376.54L481.72,375.96L487.99,376.18L489.25,376.43L495.52,377.16L496.77,376.54L500.54,374.44L501.79,373.5L503.05,373.28L504.3,371.11L506.81,369.48L508.06,370.24L510.57,366.96L511.83,367.03L514.34,361.38L515.59,359.39L516.85,355.35L518.1,355.46L523.12,353.14L524.37,352.02L525.63,350.82L526.88,348.36L528.14,347.06L529.39,347L535.66,335.85L536.92,335.74L539.43,335.41L540.68,335.19L541.94,335.56L543.19,337.46L545.7,339.25L546.95,339.03L553.23,344.45L554.48,343.78L556.99,344.36L558.24,343.47L562.01,331.28L563.26,333.49L564.52,332.39L565.77,316.67L570.79,257.99L572.04,257.79L573.3,255.34L574.55,231.8L577.06,208.94L578.32,200.79L579.57,190.16L580.82,171.24L584.59,157.31L585.84,149.36L589.61,131.34L590.86,130.67L598.39,56.27L599.64,52.9L602.15,14.6L603.41,7.37L604.66,5.09L605.91,1.12L607.17,1.67L608.42,0L617.2,46.09L618.46,64.8L624.73,149.61L625.99,154.05L628.49,202.08L629.75,214.81L633.51,240.33L634.77,242.23L637.28,260.05L638.53,269.72L641.04,284.25L642.29,288.38L643.55,288.78L644.8,292.02L646.06,296.15L647.31,297.18L651.08,301.16L652.33,301.53L653.58,304.08L654.84,303.88L656.09,304.35L657.35,302.58L658.6,302.09L659.86,300.53L661.11,300.26L662.37,295.71L663.62,293.97L664.87,290.93L666.13,289.79L667.38,287.62L669.89,287.02L671.15,284.14L673.66,278.25L674.91,277.51L677.42,274.43L678.67,275.12" style="vector-effect: non-scaling-stroke; fill: none; stroke: rgb(8, 115, 191); stroke-opacity: 1; stroke-width: 0.5px; opacity: 1;"/></g><g class="points"/><g class="text"/></g><g class="trace scatter trace34afa1" style="stroke-miterlimit: 2;"><g class="fills"><g><path class="js-fill" d="M691.22,380L678.67,380L678.67,275.12L683.69,271.3L684.95,272.24L687.46,273.69L688.71,275.83L691.22,279.56" style="fill: rgb(8, 115, 191); fill-opacity: 0.4; stroke-width: 0;"/></g></g><g class="errorbars"/><g class="lines"><path class="js-line" d="M678.67,275.12L683.69,271.3L684.95,272.24L687.46,273.69L688.71,275.83L691.22,279.56" style="vector-effect: non-scaling-stroke; fill: none; stroke: rgb(8, 115, 191); stroke-opacity: 1; stroke-width: 2px; opacity: 1;"/></g><g class="points"/><g class="text"/></g><g class="trace scatter traceca851d" style="stroke-miterlimit: 2; opacity: 1;"><g class="fills"/><g class="errorbars"/><g class="lines"/><g class="points"><path class="point" transform="translate(691.22,279.56)" d="M15,0A15,15 0 1,1 0,-15A15,15 0 0,1 15,0Z" style="opacity: 1; stroke-width: 0px; fill: rgb(8, 115, 191); fill-opacity: 1;"/></g><g class="text"/></g></g></g><g class="overplot"/><path class="xlines-above crisp" style="fill: none; stroke-width: 1px; stroke: rgb(0, 0, 0); stroke-opacity: 0;" d=""/><path class="ylines-above crisp" style="fill: none;" d="M0,0"/><g class="overlines-above"/><g class="xaxislayer-above"><path class="xtick ticks crisp" d="M0,450v-5" transform="translate(91.4,0)" style="stroke: rgb(68, 68, 68); stroke-opacity: 1; stroke-width: 1px;"/><path class="xtick ticks crisp" d="M0,450v-5" transform="translate(167.92000000000002,0)" style="stroke: rgb(68, 68, 68); stroke-opacity: 1; stroke-width: 1px;"/><path class="xtick ticks crisp" d="M0,450v-5" transform="translate(241.94,0)" style="stroke: rgb(68, 68, 68); stroke-opacity: 1; stroke-width: 1px;"/><path class="xtick ticks crisp" d="M0,450v-5" transform="translate(318.46,0)" style="stroke: rgb(68, 68, 68); stroke-opacity: 1; stroke-width: 1px;"/><path class="xtick ticks crisp" d="M0,450v-5" transform="translate(394.98,0)" style="stroke: rgb(68, 68, 68); stroke-opacity: 1; stroke-width: 1px;"/><path class="xtick ticks crisp" d="M0,450v-5" transform="translate(472.76,0)" style="stroke: rgb(68, 68, 68); stroke-opacity: 1; stroke-width: 1px;"/><path class="xtick ticks crisp" d="M0,450v-5" transform="translate(549.28,0)" style="stroke: rgb(68, 68, 68); stroke-opacity: 1; stroke-width: 1px;"/><path class="xtick ticks crisp" d="M0,450v-5" transform="translate(625.81,0)" style="stroke: rgb(68, 68, 68); stroke-opacity: 1; stroke-width: 1px;"/><path class="xtick ticks crisp" d="M0,450v-5" transform="translate(699.82,0)" style="stroke: rgb(68, 68, 68); stroke-opacity: 1; stroke-width: 1px;"/><g class="xtick"><text text-anchor="middle" x="0" y="469" transform="translate(91.4,0)" style="font-family: 'Open Sans', verdana, arial, sans-serif; font-size: 18px; fill: rgb(42, 63, 95); fill-opacity: 1; white-space: pre;">01/11</text></g><g class="xtick"><text text-anchor="middle" x="0" y="469" transform="translate(167.92000000000002,0)" style="font-family: 'Open Sans', verdana, arial, sans-serif; font-size: 18px; fill: rgb(42, 63, 95); fill-opacity: 1; white-space: pre;">01/01</text></g><g class="xtick"><text text-anchor="middle" x="0" y="469" transform="translate(241.94,0)" style="font-family: 'Open Sans', verdana, arial, sans-serif; font-size: 18px; fill: rgb(42, 63, 95); fill-opacity: 1; white-space: pre;">01/03</text></g><g class="xtick"><text text-anchor="middle" x="0" y="469" transform="translate(318.46,0)" style="font-family: 'Open Sans', verdana, arial, sans-serif; font-size: 18px; fill: rgb(42, 63, 95); fill-opacity: 1; white-space: pre;">01/05</text></g><g class="xtick"><text text-anchor="middle" x="0" y="469" transform="translate(394.98,0)" style="font-family: 'Open Sans', verdana, arial, sans-serif; font-size: 18px; fill: rgb(42, 63, 95); fill-opacity: 1; white-space: pre;">01/07</text></g><g class="xtick"><text text-anchor="middle" x="0" y="469" transform="translate(472.76,0)" style="font-family: 'Open Sans', verdana, arial, sans-serif; font-size: 18px; fill: rgb(42, 63, 95); fill-opacity: 1; white-space: pre;">01/09</text></g><g class="xtick"><text text-anchor="middle" x="0" y="469" transform="translate(549.28,0)" style="font-family: 'Open Sans', verdana, arial, sans-serif; font-size: 18px; fill: rgb(42, 63, 95); fill-opacity: 1; white-space: pre;">01/11</text></g><g class="xtick"><text text-anchor="middle" x="0" y="469" transform="translate(625.81,0)" style="font-family: 'Open Sans', verdana, arial, sans-serif; font-size: 18px; fill: rgb(42, 63, 95); fill-opacity: 1; white-space: pre;">01/01</text></g><g class="xtick"><text text-anchor="middle" x="0" y="469" transform="translate(699.82,0)" style="font-family: 'Open Sans', verdana, arial, sans-serif; font-size: 18px; fill: rgb(42, 63, 95); fill-opacity: 1; white-space: pre;">01/03</text></g></g><g class="yaxislayer-above"/><g class="overaxes-above"/></g></g><g class="polarlayer"/><g class="ternarylayer"/><g class="geolayer"/><g class="funnelarealayer"/><g class="pielayer"/><g class="treemaplayer"/><g class="sunburstlayer"/><g class="glimages"/><defs id="topdefs-f2b9d6"><g class="clips"/></defs><g class="layer-above"><g class="imagelayer"/><g class="shapelayer"><path data-index="0" fill-rule="evenodd" d="M-655.02,445.4L262.01,445.4" clip-path="url('#clipf2b9d6xy')" style="opacity: 1; stroke: rgb(255, 0, 0); stroke-opacity: 1; fill: rgb(0, 0, 0); fill-opacity: 0; stroke-dasharray: 3px, 3px; stroke-width: 1.5px;"/></g></g><g class="infolayer"><g class="g-gtitle"><text class="gtitle" x="375" y="25" text-anchor="middle" dy="0.7em" style="font-family: 'Open Sans', verdana, arial, sans-serif; font-size: 50px; fill: rgb(42, 63, 95); opacity: 1; font-weight: normal; white-space: pre;"><tspan style="font-weight:bold">Landes (40)</tspan></text></g><g class="g-xtitle"/><g class="annotation" data-index="0" style="opacity: 1;"><g class="annotation-text-g" transform="rotate(0,699.22,289.56)"><g class="cursor-pointer" transform="translate(627, 254)"><rect class="bg" x="0.5" y="0.5" width="143" height="71" style="stroke-width: 1px; stroke: rgb(0, 0, 0); stroke-opacity: 0; fill: rgb(255, 255, 255); fill-opacity: 0.6;"/><text class="annotation-text" text-anchor="middle" x="72.078125" y="55.5" style="font-family: 'Open Sans', verdana, arial, sans-serif; font-size: 50px; fill: rgb(8, 115, 191); fill-opacity: 1; white-space: pre;"> <tspan style="font-weight:bold">1091 </tspan></text></g></g><g class="annotation-arrow-g" style="opacity: 1;"><path d="M727.62,325.06L739.22,339.56" style="stroke-width: 1px; stroke: rgb(8, 115, 191); stroke-opacity: 1; stroke-dasharray: 0px, 0px, 18.569px, 18.569px;"/></g></g></g></svg>