<svg class="main-svg" xmlns="http://www.w3.org/2000/svg" xmlns:xlink="http://www.w3.org/1999/xlink" width="1125" height="750" style="" viewBox="0 0 750 500"><rect x="0" y="0" width="750" height="500" style="fill: rgb(0, 0, 0); fill-opacity: 0;"/><defs id="defs-4beb33"><g class="clips"><clipPath id="clip4beb33xyplot" class="plotclip"><rect width="698" height="380"/></clipPath><clipPath class="axesclip" id="clip4beb33x"><rect x="50" y="0" width="698" height="500"/></clipPath><clipPath class="axesclip" id="clip4beb33y"><rect x="0" y="70" width="750" height="380"/></clipPath><clipPath class="axesclip" id="clip4beb33xy"><rect x="50" y="70" width="698" height="380"/></clipPath></g><g class="gradients"/></defs><g class="bglayer"><rect class="bg" x="50" y="70" width="698" height="380" style="fill: rgb(0, 0, 0); fill-opacity: 0; stroke-width: 0;"/></g><g class="layer-below"><g class="imagelayer"/><g class="shapelayer"/></g><g class="cartesianlayer"><g class="subplot xy"><g class="layer-subplot"><g class="shapelayer"/><g class="imagelayer"/></g><g class="gridlayer"><g class="x"><path class="xgrid crisp" transform="translate(52.11,0)" d="M0,70v380" style="stroke: rgb(255, 255, 255); stroke-opacity: 1; stroke-width: 1px;"/><path class="xgrid crisp" transform="translate(149.26,0)" d="M0,70v380" style="stroke: rgb(255, 255, 255); stroke-opacity: 1; stroke-width: 1px;"/><path class="xgrid crisp" transform="translate(244.3,0)" d="M0,70v380" style="stroke: rgb(255, 255, 255); stroke-opacity: 1; stroke-width: 1px;"/><path class="xgrid crisp" transform="translate(340.39,0)" d="M0,70v380" style="stroke: rgb(255, 255, 255); stroke-opacity: 1; stroke-width: 1px;"/><path class="xgrid crisp" transform="translate(437.54,0)" d="M0,70v380" style="stroke: rgb(255, 255, 255); stroke-opacity: 1; stroke-width: 1px;"/><path class="xgrid crisp" transform="translate(534.69,0)" d="M0,70v380" style="stroke: rgb(255, 255, 255); stroke-opacity: 1; stroke-width: 1px;"/><path class="xgrid crisp" transform="translate(629.73,0)" d="M0,70v380" style="stroke: rgb(255, 255, 255); stroke-opacity: 1; stroke-width: 1px;"/><path class="xgrid crisp" transform="translate(725.82,0)" d="M0,70v380" style="stroke: rgb(255, 255, 255); stroke-opacity: 1; stroke-width: 1px;"/></g><g class="y"/></g><g class="zerolinelayer"/><path class="xlines-below"/><path class="ylines-below"/><g class="overlines-below"/><g class="xaxislayer-below"/><g class="yaxislayer-below"/><g class="overaxes-below"/><g class="plot" transform="translate(50, 70)" clip-path="url('#clip4beb33xyplot')"><g class="scatterlayer mlayer"><g class="trace scatter tracec6fd47" style="stroke-miterlimit: 2;"><g class="fills"><g><path class="js-fill" d="M680.05,380L-143.61,380L-143.61,379.67L-108.77,379.77L-107.71,379.72L-60.19,378.03L-59.13,377.88L-42.24,376.02L-41.18,375.85L-31.68,374.67L-30.62,373.55L-25.34,371.07L-24.29,369.92L-17.95,365.99L-16.9,365.2L-13.73,362.31L-12.67,362.04L-9.5,362.4L-8.45,363.49L-6.34,364.4L-5.28,364.5L-2.11,366.54L-1.06,366.71L3.17,365.7L4.22,365.77L10.56,362.11L11.62,360.87L13.73,359.88L14.78,359L17.95,357.51L19.01,356.36L22.18,351.67L23.23,351.28L26.4,350.03L27.46,350.55L30.62,352.65L31.68,352.51L36.96,355.94L38.02,356.61L41.18,360.94L42.24,364.1L47.52,368.79L48.57,370.02L49.63,369.44L50.69,371.19L52.8,372.5L53.85,372.55L55.97,373.96L57.02,374.19L62.3,375.16L63.36,375.14L72.86,375.94L73.92,375.9L83.42,375.23L84.48,374.83L87.65,374.34L88.7,375.18L93.98,374.03L95.04,373.67L98.21,373.23L99.26,372.23L104.54,368.71L105.6,368.64L107.71,368.05L108.77,368.14L116.16,365.35L117.21,365.16L118.27,364.56L119.33,364.93L121.44,364.15L122.49,363.85L124.61,362.95L125.66,362.52L129.89,361.55L130.94,361.6L137.28,364.88L138.33,365.5L141.5,366.44L142.56,366.64L144.67,367.54L145.72,367.44L149.95,367.8L151,367.82L155.23,367.73L156.28,367.96L161.56,368.71L162.62,369.17L165.79,369.36L166.84,369.8L171.07,370.59L172.12,370.54L174.24,369.87L175.29,369.32L180.57,366.56L181.63,365.69L185.85,362.94L186.91,363.01L191.13,361.53L192.19,361.3L194.3,361.21L195.36,364.32L196.41,363.67L197.47,364.28L199.58,365.51L200.64,365.49L201.69,365.61L202.75,363.57L204.86,365.32L205.92,365.66L209.08,366.63L210.14,366.27L214.36,366.34L215.42,366.18L218.59,367.31L219.64,367.71L221.75,368.53L222.81,369.55L223.87,369.44L224.92,370.11L229.15,371.63L230.2,371.55L234.43,372.09L235.48,373.28L241.82,373.26L242.87,372.54L246.04,372.7L247.1,373.75L252.38,373.82L253.43,373.9L254.49,372.84L255.55,373.35L258.71,373.97L259.77,374.32L261.88,375.09L262.94,375.59L267.16,377.01L268.22,377.09L275.61,377.78L276.67,377.78L286.17,377.78L287.23,377.71L293.56,376.36L294.62,375.79L298.84,373.94L299.9,372.99L300.95,373.22L302.01,371.09L305.18,367L306.23,363.33L309.4,352.8L310.46,350.09L312.57,348.67L313.62,345.9L314.68,344.62L315.74,344.97L316.79,344.72L317.85,345.42L319.96,346.26L321.02,347.91L323.13,349.5L324.18,350.35L329.46,352.15L330.52,353.15L332.63,354.02L333.69,354.24L334.74,354.37L335.8,355.31L340.02,360.17L341.08,361L342.14,361.13L343.19,362.25L348.47,366.24L349.53,366.5L352.7,369.11L353.75,369.76L360.09,372.67L361.14,373.21L366.42,375.05L367.48,375.23L376.98,376.24L378.04,376.11L382.26,376.54L383.32,376.77L390.71,377.73L391.77,377.85L403.38,377.68L404.44,377.4L411.83,376.85L412.89,376.85L416.05,376.46L417.11,376.96L420.28,375.95L421.33,375.77L423.45,375.56L424.5,374.41L428.73,373.9L429.78,373.69L430.84,373.56L431.89,372.47L440.34,365.35L441.4,363.76L444.57,357.62L445.62,356.98L448.79,349.44L449.85,347.6L451.96,345.44L453.01,345.44L455.13,342.29L456.18,341.32L457.24,340.52L458.29,340.68L460.41,340.57L461.46,340.97L462.52,341.21L463.57,342.24L466.74,342.99L467.8,342.43L468.85,342.05L469.91,340.57L473.08,331.09L474.13,333.43L475.19,331.55L476.25,321.69L480.47,281.01L481.52,279.81L482.58,277.4L483.64,251.85L486.8,209.71L487.86,198.31L488.92,178.92L489.97,175.55L493.14,144.64L494.2,133.61L496.31,108.55L497.36,102.92L501.59,33.9L502.64,21.96L505.81,1L506.87,0L507.92,3.13L508.98,9.7L512.15,31.82L513.2,55.31L518.48,143.29L519.54,148.21L522.71,208.2L523.76,224.32L525.88,246.5L526.93,250.2L529.04,276.11L530.1,286.1L533.27,303.91L534.32,306.06L536.44,320.19L537.49,323.74L540.66,332.15L541.72,332.22L545.94,338.68L547,339.63L550.16,341.57L551.22,341.39L553.33,340.82L554.39,340.62L555.44,339.77L556.5,339.96L559.67,334.81L560.72,331.9L562.84,327.54L563.89,326.79L567.06,312.79L568.11,310.07L570.23,304.57L571.28,304.19L573.39,296.27L574.45,294.25L576.56,290.84L577.62,290.78L580.79,288.73L581.84,287.87L585.01,281.66L586.07,281.61L587.12,278.81L588.18,278.89L589.23,279.07L590.29,280.26L593.46,285.34L594.51,306.36L595.57,301.06L596.63,305.44L599.79,316.57L600.85,317.74L601.91,310.37L602.96,324.92L606.13,337.5L607.19,339.12L608.24,339.53L609.3,343.21L613.52,351.6L614.58,352.93L615.63,353.25L616.69,355.04L621.97,359.93L623.03,360.14L625.14,361.43L626.19,362.05L632.53,364.68L633.59,364.7L634.64,366.52L635.7,365.86L637.81,365.82L638.87,364.9L640.98,363.98L642.03,361.5L645.2,360.66L646.26,364.31L648.37,358.43L649.43,356.92L652.59,354.19L653.65,346.24L654.7,346.62L655.76,344.92L658.93,339.81L659.98,339.25L665.26,316.08L666.32,312.08L667.38,311.34L668.43,303.3L673.71,271.56L674.77,271.01L676.88,258.11L677.94,254.81L680.05,255.28" style="fill: rgb(8, 115, 191); fill-opacity: 0.2; stroke-width: 0;"/></g></g><g class="errorbars"/><g class="lines"><path class="js-line" d="M-143.61,379.67L-108.77,379.77L-107.71,379.72L-60.19,378.03L-59.13,377.88L-42.24,376.02L-41.18,375.85L-31.68,374.67L-30.62,373.55L-25.34,371.07L-24.29,369.92L-17.95,365.99L-16.9,365.2L-13.73,362.31L-12.67,362.04L-9.5,362.4L-8.45,363.49L-6.34,364.4L-5.28,364.5L-2.11,366.54L-1.06,366.71L3.17,365.7L4.22,365.77L10.56,362.11L11.62,360.87L13.73,359.88L14.78,359L17.95,357.51L19.01,356.36L22.18,351.67L23.23,351.28L26.4,350.03L27.46,350.55L30.62,352.65L31.68,352.51L36.96,355.94L38.02,356.61L41.18,360.94L42.24,364.1L47.52,368.79L48.57,370.02L49.63,369.44L50.69,371.19L52.8,372.5L53.85,372.55L55.97,373.96L57.02,374.19L62.3,375.16L63.36,375.14L72.86,375.94L73.92,375.9L83.42,375.23L84.48,374.83L87.65,374.34L88.7,375.18L93.98,374.03L95.04,373.67L98.21,373.23L99.26,372.23L104.54,368.71L105.6,368.64L107.71,368.05L108.77,368.14L116.16,365.35L117.21,365.16L118.27,364.56L119.33,364.93L121.44,364.15L122.49,363.85L124.61,362.95L125.66,362.52L129.89,361.55L130.94,361.6L137.28,364.88L138.33,365.5L141.5,366.44L142.56,366.64L144.67,367.54L145.72,367.44L149.95,367.8L151,367.82L155.23,367.73L156.28,367.96L161.56,368.71L162.62,369.17L165.79,369.36L166.84,369.8L171.07,370.59L172.12,370.54L174.24,369.87L175.29,369.32L180.57,366.56L181.63,365.69L185.85,362.94L186.91,363.01L191.13,361.53L192.19,361.3L194.3,361.21L195.36,364.32L196.41,363.67L197.47,364.28L199.58,365.51L200.64,365.49L201.69,365.61L202.75,363.57L204.86,365.32L205.92,365.66L209.08,366.63L210.14,366.27L214.36,366.34L215.42,366.18L218.59,367.31L219.64,367.71L221.75,368.53L222.81,369.55L223.87,369.44L224.92,370.11L229.15,371.63L230.2,371.55L234.43,372.09L235.48,373.28L241.82,373.26L242.87,372.54L246.04,372.7L247.1,373.75L252.38,373.82L253.43,373.9L254.49,372.84L255.55,373.35L258.71,373.97L259.77,374.32L261.88,375.09L262.94,375.59L267.16,377.01L268.22,377.09L275.61,377.78L276.67,377.78L286.17,377.78L287.23,377.71L293.56,376.36L294.62,375.79L298.84,373.94L299.9,372.99L300.95,373.22L302.01,371.09L305.18,367L306.23,363.33L309.4,352.8L310.46,350.09L312.57,348.67L313.62,345.9L314.68,344.62L315.74,344.97L316.79,344.72L317.85,345.42L319.96,346.26L321.02,347.91L323.13,349.5L324.18,350.35L329.46,352.15L330.52,353.15L332.63,354.02L333.69,354.24L334.74,354.37L335.8,355.31L340.02,360.17L341.08,361L342.14,361.13L343.19,362.25L348.47,366.24L349.53,366.5L352.7,369.11L353.75,369.76L360.09,372.67L361.14,373.21L366.42,375.05L367.48,375.23L376.98,376.24L378.04,376.11L382.26,376.54L383.32,376.77L390.71,377.73L391.77,377.85L403.38,377.68L404.44,377.4L411.83,376.85L412.89,376.85L416.05,376.46L417.11,376.96L420.28,375.95L421.33,375.77L423.45,375.56L424.5,374.41L428.73,373.9L429.78,373.69L430.84,373.56L431.89,372.47L440.34,365.35L441.4,363.76L444.57,357.62L445.62,356.98L448.79,349.44L449.85,347.6L451.96,345.44L453.01,345.44L455.13,342.29L456.18,341.32L457.24,340.52L458.29,340.68L460.41,340.57L461.46,340.97L462.52,341.21L463.57,342.24L466.74,342.99L467.8,342.43L468.85,342.05L469.91,340.57L473.08,331.09L474.13,333.43L475.19,331.55L476.25,321.69L480.47,281.01L481.52,279.81L482.58,277.4L483.64,251.85L486.8,209.71L487.86,198.31L488.92,178.92L489.97,175.55L493.14,144.64L494.2,133.61L496.31,108.55L497.36,102.92L501.59,33.9L502.64,21.96L505.81,1L506.87,0L507.92,3.13L508.98,9.7L512.15,31.82L513.2,55.31L518.48,143.29L519.54,148.21L522.71,208.2L523.76,224.32L525.88,246.5L526.93,250.2L529.04,276.11L530.1,286.1L533.27,303.91L534.32,306.06L536.44,320.19L537.49,323.74L540.66,332.15L541.72,332.22L545.94,338.68L547,339.63L550.16,341.57L551.22,341.39L553.33,340.82L554.39,340.62L555.44,339.77L556.5,339.96L559.67,334.81L560.72,331.9L562.84,327.54L563.89,326.79L567.06,312.79L568.11,310.07L570.23,304.57L571.28,304.19L573.39,296.27L574.45,294.25L576.56,290.84L577.62,290.78L580.79,288.73L581.84,287.87L585.01,281.66L586.07,281.61L587.12,278.81L588.18,278.89L589.23,279.07L590.29,280.26L593.46,285.34L594.51,306.36L595.57,301.06L596.63,305.44L599.79,316.57L600.85,317.74L601.91,310.37L602.96,324.92L606.13,337.5L607.19,339.12L608.24,339.53L609.3,343.21L613.52,351.6L614.58,352.93L615.63,353.25L616.69,355.04L621.97,359.93L623.03,360.14L625.14,361.43L626.19,362.05L632.53,364.68L633.59,364.7L634.64,366.52L635.7,365.86L637.81,365.82L638.87,364.9L640.98,363.98L642.03,361.5L645.2,360.66L646.26,364.31L648.37,358.43L649.43,356.92L652.59,354.19L653.65,346.24L654.7,346.62L655.76,344.92L658.93,339.81L659.98,339.25L665.26,316.08L666.32,312.08L667.38,311.34L668.43,303.3L673.71,271.56L674.77,271.01L676.88,258.11L677.94,254.81L680.05,255.28" style="vector-effect: non-scaling-stroke; fill: none; stroke: rgb(8, 115, 191); stroke-opacity: 1; stroke-width: 0.5px; opacity: 1;"/></g><g class="points"/><g class="text"/></g><g class="trace scatter trace32d0dc" style="stroke-miterlimit: 2;"><g class="fills"><g><path class="js-fill" d="M690.61,380L680.05,380L680.05,255.28L682.16,255.85L683.22,265.03L685.33,278.93L686.38,294.95L687.44,296.06L688.5,299.78L689.55,300.54L690.61,307.29" style="fill: rgb(8, 115, 191); fill-opacity: 0.4; stroke-width: 0;"/></g></g><g class="errorbars"/><g class="lines"><path class="js-line" d="M680.05,255.28L682.16,255.85L683.22,265.03L685.33,278.93L686.38,294.95L687.44,296.06L688.5,299.78L689.55,300.54L690.61,307.29" style="vector-effect: non-scaling-stroke; fill: none; stroke: rgb(8, 115, 191); stroke-opacity: 1; stroke-width: 2px; opacity: 1;"/></g><g class="points"/><g class="text"/></g><g class="trace scatter trace25a60e" style="stroke-miterlimit: 2; opacity: 1;"><g class="fills"/><g class="errorbars"/><g class="lines"/><g class="points"><path class="point" transform="translate(690.61,307.29)" d="M15,0A15,15 0 1,1 0,-15A15,15 0 0,1 15,0Z" style="opacity: 1; stroke-width: 0px; fill: rgb(8, 115, 191); fill-opacity: 1;"/></g><g class="text"/></g></g></g><g class="overplot"/><path class="xlines-above crisp" style="fill: none; stroke-width: 1px; stroke: rgb(0, 0, 0); stroke-opacity: 0;" d=""/><path class="ylines-above crisp" style="fill: none;" d="M0,0"/><g class="overlines-above"/><g class="xaxislayer-above"><path class="xtick ticks crisp" d="M0,450v-5" transform="translate(52.11,0)" style="stroke: rgb(68, 68, 68); stroke-opacity: 1; stroke-width: 1px;"/><path class="xtick ticks crisp" d="M0,450v-5" transform="translate(149.26,0)" style="stroke: rgb(68, 68, 68); stroke-opacity: 1; stroke-width: 1px;"/><path class="xtick ticks crisp" d="M0,450v-5" transform="translate(244.3,0)" style="stroke: rgb(68, 68, 68); stroke-opacity: 1; stroke-width: 1px;"/><path class="xtick ticks crisp" d="M0,450v-5" transform="translate(340.39,0)" style="stroke: rgb(68, 68, 68); stroke-opacity: 1; stroke-width: 1px;"/><path class="xtick ticks crisp" d="M0,450v-5" transform="translate(437.54,0)" style="stroke: rgb(68, 68, 68); stroke-opacity: 1; stroke-width: 1px;"/><path class="xtick ticks crisp" d="M0,450v-5" transform="translate(534.69,0)" style="stroke: rgb(68, 68, 68); stroke-opacity: 1; stroke-width: 1px;"/><path class="xtick ticks crisp" d="M0,450v-5" transform="translate(629.73,0)" style="stroke: rgb(68, 68, 68); stroke-opacity: 1; stroke-width: 1px;"/><path class="xtick ticks crisp" d="M0,450v-5" transform="translate(725.82,0)" style="stroke: rgb(68, 68, 68); stroke-opacity: 1; stroke-width: 1px;"/><g class="xtick"><text text-anchor="middle" x="0" y="469" transform="translate(52.11,0)" style="font-family: 'Open Sans', verdana, arial, sans-serif; font-size: 18px; fill: rgb(42, 63, 95); fill-opacity: 1; white-space: pre;">01/10</text></g><g class="xtick"><text text-anchor="middle" x="0" y="469" transform="translate(149.26,0)" style="font-family: 'Open Sans', verdana, arial, sans-serif; font-size: 18px; fill: rgb(42, 63, 95); fill-opacity: 1; white-space: pre;">01/01</text></g><g class="xtick"><text text-anchor="middle" x="0" y="469" transform="translate(244.3,0)" style="font-family: 'Open Sans', verdana, arial, sans-serif; font-size: 18px; fill: rgb(42, 63, 95); fill-opacity: 1; white-space: pre;">01/04</text></g><g class="xtick"><text text-anchor="middle" x="0" y="469" transform="translate(340.39,0)" style="font-family: 'Open Sans', verdana, arial, sans-serif; font-size: 18px; fill: rgb(42, 63, 95); fill-opacity: 1; white-space: pre;">01/07</text></g><g class="xtick"><text text-anchor="middle" x="0" y="469" transform="translate(437.54,0)" style="font-family: 'Open Sans', verdana, arial, sans-serif; font-size: 18px; fill: rgb(42, 63, 95); fill-opacity: 1; white-space: pre;">01/10</text></g><g class="xtick"><text text-anchor="middle" x="0" y="469" transform="translate(534.69,0)" style="font-family: 'Open Sans', verdana, arial, sans-serif; font-size: 18px; fill: rgb(42, 63, 95); fill-opacity: 1; white-space: pre;">01/01</text></g><g class="xtick"><text text-anchor="middle" x="0" y="469" transform="translate(629.73,0)" style="font-family: 'Open Sans', verdana, arial, sans-serif; font-size: 18px; fill: rgb(42, 63, 95); fill-opacity: 1; white-space: pre;">01/04</text></g><g class="xtick"><text text-anchor="middle" x="0" y="469" transform="translate(725.82,0)" style="font-family: 'Open Sans', verdana, arial, sans-serif; font-size: 18px; fill: rgb(42, 63, 95); fill-opacity: 1; white-space: pre;">01/07</text></g></g><g class="yaxislayer-above"/><g class="overaxes-above"/></g></g><g class="polarlayer"/><g class="ternarylayer"/><g class="geolayer"/><g class="funnelarealayer"/><g class="pielayer"/><g class="treemaplayer"/><g class="sunburstlayer"/><g class="glimages"/><defs id="topdefs-4beb33"><g class="clips"/></defs><g class="layer-above"><g class="imagelayer"/><g class="shapelayer"><path data-index="0" fill-rule="evenodd" d="M-543.46,446.37L228.46,446.37" clip-path="url('#clip4beb33xy')" style="opacity: 1; stroke: rgb(255, 0, 0); stroke-opacity: 1; fill: rgb(0, 0, 0); fill-opacity: 0; stroke-dasharray: 3px, 3px; stroke-width: 1.5px;"/></g></g><g class="infolayer"><g class="g-gtitle"><text class="gtitle" x="375" y="25" text-anchor="middle" dy="0.7em" style="font-family: 'Open Sans', verdana, arial, sans-serif; font-size: 50px; fill: rgb(42, 63, 95); opacity: 1; font-weight: normal; white-space: pre;"><tspan style="font-weight:bold">Haute-Garonne (31)</tspan></text></g><g class="g-xtitle"/><g class="annotation" data-index="0" style="opacity: 1;"><g class="annotation-text-g" transform="rotate(0,698.61,317.29)"><g class="cursor-pointer" transform="translate(627, 281)"><rect class="bg" x="0.5" y="0.5" width="143" height="71" style="stroke-width: 1px; stroke: rgb(0, 0, 0); stroke-opacity: 0; fill: rgb(255, 255, 255); fill-opacity: 0.6;"/><text class="annotation-text" text-anchor="middle" x="72.078125" y="55.5" style="font-family: 'Open Sans', verdana, arial, sans-serif; font-size: 50px; fill: rgb(8, 115, 191); fill-opacity: 1; white-space: pre;"> <tspan style="font-weight:bold">1002 </tspan></text></g></g><g class="annotation-arrow-g" style="opacity: 1;"><path d="M727.01,352.79L738.61,367.29" style="stroke-width: 1px; stroke: rgb(8, 115, 191); stroke-opacity: 1; stroke-dasharray: 0px, 0px, 18.569px, 18.569px;"/></g></g></g></svg>