<svg class="main-svg" xmlns="http://www.w3.org/2000/svg" xmlns:xlink="http://www.w3.org/1999/xlink" width="1125" height="750" style="" viewBox="0 0 750 500"><rect x="0" y="0" width="750" height="500" style="fill: rgb(0, 0, 0); fill-opacity: 0;"/><defs id="defs-930dd2"><g class="clips"><clipPath id="clip930dd2xyplot" class="plotclip"><rect width="700" height="380"/></clipPath><clipPath class="axesclip" id="clip930dd2x"><rect x="50" y="0" width="700" height="500"/></clipPath><clipPath class="axesclip" id="clip930dd2y"><rect x="0" y="70" width="750" height="380"/></clipPath><clipPath class="axesclip" id="clip930dd2xy"><rect x="50" y="70" width="700" height="380"/></clipPath></g><g class="gradients"/></defs><g class="bglayer"><rect class="bg" x="50" y="70" width="700" height="380" style="fill: rgb(0, 0, 0); fill-opacity: 0; stroke-width: 0;"/></g><g class="layer-below"><g class="imagelayer"/><g class="shapelayer"/></g><g class="cartesianlayer"><g class="subplot xy"><g class="layer-subplot"><g class="shapelayer"/><g class="imagelayer"/></g><g class="gridlayer"><g class="x"><path class="xgrid crisp" transform="translate(90.6,0)" d="M0,70v380" style="stroke: rgb(255, 255, 255); stroke-opacity: 1; stroke-width: 1px;"/><path class="xgrid crisp" transform="translate(165.64,0)" d="M0,70v380" style="stroke: rgb(255, 255, 255); stroke-opacity: 1; stroke-width: 1px;"/><path class="xgrid crisp" transform="translate(238.22,0)" d="M0,70v380" style="stroke: rgb(255, 255, 255); stroke-opacity: 1; stroke-width: 1px;"/><path class="xgrid crisp" transform="translate(313.27,0)" d="M0,70v380" style="stroke: rgb(255, 255, 255); stroke-opacity: 1; stroke-width: 1px;"/><path class="xgrid crisp" transform="translate(388.31,0)" d="M0,70v380" style="stroke: rgb(255, 255, 255); stroke-opacity: 1; stroke-width: 1px;"/><path class="xgrid crisp" transform="translate(464.59,0)" d="M0,70v380" style="stroke: rgb(255, 255, 255); stroke-opacity: 1; stroke-width: 1px;"/><path class="xgrid crisp" transform="translate(539.63,0)" d="M0,70v380" style="stroke: rgb(255, 255, 255); stroke-opacity: 1; stroke-width: 1px;"/><path class="xgrid crisp" transform="translate(614.67,0)" d="M0,70v380" style="stroke: rgb(255, 255, 255); stroke-opacity: 1; stroke-width: 1px;"/><path class="xgrid crisp" transform="translate(687.26,0)" d="M0,70v380" style="stroke: rgb(255, 255, 255); stroke-opacity: 1; stroke-width: 1px;"/></g><g class="y"/></g><g class="zerolinelayer"/><path class="xlines-below"/><path class="ylines-below"/><g class="overlines-below"/><g class="xaxislayer-below"/><g class="yaxislayer-below"/><g class="overaxes-below"/><g class="plot" transform="translate(50, 70)" clip-path="url('#clip930dd2xyplot')"><g class="scatterlayer mlayer"><g class="trace scatter tracee0aa3c" style="stroke-miterlimit: 2;"><g class="fills"><g><path class="js-fill" d="M679.09,380L-167.31,380L-167.31,379.22L-43.06,378.79L-41.83,378.75L-33.22,377.39L-31.99,377.31L-19.68,376.45L-18.45,376.18L-14.76,375.91L-13.53,375.83L-11.07,375.63L-9.84,375.71L-2.46,376.76L-1.23,376.8L1.23,375.28L2.46,375.24L8.61,369L9.84,368.85L11.07,368.57L12.3,366.9L14.76,364.52L15.99,362.33L18.45,360.11L19.68,359.99L24.6,349.46L25.83,345.25L29.53,338.78L30.76,335.78L34.45,327.66L35.68,327.74L36.91,328.05L38.14,324.04L39.37,322.91L40.6,323.02L43.06,327.27L44.29,328.25L45.52,328.52L46.75,332.42L47.98,333.94L49.21,341.94L50.44,338.74L51.67,341.35L54.13,341.78L55.36,344.28L56.59,347.4L57.82,344L59.05,348.84L60.28,349.97L63.97,352.39L65.2,353.64L67.66,356.29L68.89,356.44L70.12,356.13L71.35,356.6L73.81,357.54L75.04,357.11L77.5,358L78.73,356.64L79.96,356.33L81.2,354.14L86.12,345.45L87.35,345.88L93.5,345.72L94.73,346.85L97.19,345.72L98.42,345.56L100.88,342.6L102.11,344.63L103.34,350.05L104.57,350.63L105.8,350.83L107.03,349.11L108.26,350.95L109.49,351.22L114.41,350.99L115.64,351.41L116.87,352.23L118.1,355.28L119.33,355.35L120.56,351.3L121.79,351.96L123.02,351.1L124.25,354.14L125.48,355.16L126.71,354.65L127.94,355.2L131.63,357.26L132.86,357.26L134.09,357.22L135.33,358.47L139.02,357.11L140.25,357.5L143.94,359.17L145.17,360.46L147.63,363L148.86,362.68L150.09,363.43L151.32,362.49L153.78,363.23L155.01,362.18L156.24,361.67L157.47,362.1L159.93,363.89L161.16,365.65L162.39,366.43L163.62,368.53L168.54,371.19L169.77,370.37L173.46,368.53L174.69,368.5L179.61,367.4L180.84,367.4L189.46,367.52L190.69,366.16L191.92,366.08L193.15,364.44L198.07,360.62L199.3,360.58L200.53,360.73L201.76,359.02L204.22,357.34L205.45,355.82L206.68,353.64L207.91,353.36L210.37,352.12L211.6,350.52L215.29,351.3L216.52,350.95L218.98,350.28L220.21,349.07L221.44,346.42L222.67,345.64L226.36,345.88L227.59,351.96L228.82,351.26L230.05,352.55L232.51,352L233.74,351.73L234.97,351.92L236.2,345.99L237.43,348.14L238.66,347.59L241.12,349.5L242.36,349.31L246.05,347.87L247.28,349.27L249.74,349.23L250.97,350.28L254.66,351.14L255.89,351.84L258.35,353.09L259.58,355.43L260.81,355.78L262.04,357.19L264.5,360.23L265.73,361.51L266.96,362.8L268.19,362.88L269.42,362.92L270.65,364.36L271.88,365.34L273.11,364.99L275.57,367.01L276.8,365.88L279.26,366.47L280.49,367.09L281.72,368.18L282.95,366.97L286.64,368.34L287.87,370.99L291.56,369L292.79,369.59L295.25,368.89L296.49,367.44L300.18,371.62L301.41,372.16L306.33,373.96L307.56,374.54L313.71,377.11L314.94,377.31L319.86,377.97L321.09,378.05L327.24,378.21L328.47,378.09L338.31,377.7L339.54,377.35L344.46,377.58L345.69,377.54L360.46,377.31L361.69,377.15L365.38,376.49L366.61,375.2L371.53,373.99L372.76,373.96L375.22,374.46L376.45,373.49L380.14,373.14L381.37,372.71L383.83,371.5L385.06,371.77L391.21,370.95L392.44,370.29L398.59,370.72L399.82,370.72L404.75,371.07L405.98,371.69L407.21,371.26L408.44,371.89L409.67,372.36L410.9,371.34L418.28,372.28L419.51,373.53L420.74,373.99L421.97,373.64L433.04,376.49L434.27,376.57L451.49,377.23L452.72,376.92L457.64,376.18L458.88,376.06L462.57,375.67L463.8,375.94L467.49,376.45L468.72,375.94L473.64,373.72L474.87,372.98L478.56,372.47L479.79,371.81L483.48,370.76L484.71,370.52L485.94,371.85L487.17,370.84L492.09,369.31L493.32,369.43L495.78,366.86L497.01,366.16L498.24,368.5L499.47,367.33L500.7,365.53L501.93,365.41L504.39,361.55L505.62,361.12L508.08,355.98L509.31,357.07L510.54,356.72L511.78,354.42L517.93,345.21L519.16,345.21L521.62,338.23L522.85,337.76L524.08,336.4L525.31,336.24L526.54,334.22L527.77,333.94L529,335L530.23,337.41L531.46,336.44L532.69,337.22L533.92,337.73L535.15,339.91L536.38,339.91L537.61,341.12L538.84,340.3L540.07,340.65L541.3,341L542.53,340.49L543.76,339.75L544.99,340.26L546.22,341.74L547.45,341.55L548.68,341.66L549.91,338.51L551.14,336.4L552.37,339.68L553.6,337.45L554.83,323.3L559.75,262.07L560.98,260.82L562.21,256.77L563.44,224.28L565.91,193.9L567.14,185.75L568.37,179.63L569.6,160.24L570.83,161.45L572.06,165.78L573.29,166.25L574.52,162.58L575.75,158.02L576.98,145.46L578.21,136.57L579.44,133.37L584.36,58.54L585.59,48.94L586.82,42.63L588.05,41.69L590.51,13.84L591.74,9.32L595.43,0L596.66,1.6L597.89,9.2L599.12,24.57L601.58,58.65L602.81,81.78L604.04,98.35L605.27,101.63L607.73,163.68L608.96,186.06L611.42,217.65L612.65,227.01L613.88,228.69L615.11,244.75L618.8,264.17L620.04,270.02L623.73,277.86L624.96,283.21L627.42,290.3L628.65,292.21L629.88,291.24L631.11,291.47L632.34,288.31L633.57,287.69L634.8,287.3L636.03,284.92L637.26,284.81L638.49,285.82L639.72,284.88L640.95,279.42L643.41,268.07L644.64,258.52L647.1,241.71L648.33,240.85L650.79,231.57L652.02,227.17L655.71,231.1L656.94,230.91L660.63,209.69L661.86,203.38L664.32,192.69L665.55,192.89L666.78,194.56L668.01,193.78L670.47,197.37L671.7,200.14L672.93,202.91L674.17,203.03L675.4,204.86L676.63,204.23L679.09,202.67" style="fill: rgb(8, 115, 191); fill-opacity: 0.2; stroke-width: 0;"/></g></g><g class="errorbars"/><g class="lines"><path class="js-line" d="M-167.31,379.22L-43.06,378.79L-41.83,378.75L-33.22,377.39L-31.99,377.31L-19.68,376.45L-18.45,376.18L-14.76,375.91L-13.53,375.83L-11.07,375.63L-9.84,375.71L-2.46,376.76L-1.23,376.8L1.23,375.28L2.46,375.24L8.61,369L9.84,368.85L11.07,368.57L12.3,366.9L14.76,364.52L15.99,362.33L18.45,360.11L19.68,359.99L24.6,349.46L25.83,345.25L29.53,338.78L30.76,335.78L34.45,327.66L35.68,327.74L36.91,328.05L38.14,324.04L39.37,322.91L40.6,323.02L43.06,327.27L44.29,328.25L45.52,328.52L46.75,332.42L47.98,333.94L49.21,341.94L50.44,338.74L51.67,341.35L54.13,341.78L55.36,344.28L56.59,347.4L57.82,344L59.05,348.84L60.28,349.97L63.97,352.39L65.2,353.64L67.66,356.29L68.89,356.44L70.12,356.13L71.35,356.6L73.81,357.54L75.04,357.11L77.5,358L78.73,356.64L79.96,356.33L81.2,354.14L86.12,345.45L87.35,345.88L93.5,345.72L94.73,346.85L97.19,345.72L98.42,345.56L100.88,342.6L102.11,344.63L103.34,350.05L104.57,350.63L105.8,350.83L107.03,349.11L108.26,350.95L109.49,351.22L114.41,350.99L115.64,351.41L116.87,352.23L118.1,355.28L119.33,355.35L120.56,351.3L121.79,351.96L123.02,351.1L124.25,354.14L125.48,355.16L126.71,354.65L127.94,355.2L131.63,357.26L132.86,357.26L134.09,357.22L135.33,358.47L139.02,357.11L140.25,357.5L143.94,359.17L145.17,360.46L147.63,363L148.86,362.68L150.09,363.43L151.32,362.49L153.78,363.23L155.01,362.18L156.24,361.67L157.47,362.1L159.93,363.89L161.16,365.65L162.39,366.43L163.62,368.53L168.54,371.19L169.77,370.37L173.46,368.53L174.69,368.5L179.61,367.4L180.84,367.4L189.46,367.52L190.69,366.16L191.92,366.08L193.15,364.44L198.07,360.62L199.3,360.58L200.53,360.73L201.76,359.02L204.22,357.34L205.45,355.82L206.68,353.64L207.91,353.36L210.37,352.12L211.6,350.52L215.29,351.3L216.52,350.95L218.98,350.28L220.21,349.07L221.44,346.42L222.67,345.64L226.36,345.88L227.59,351.96L228.82,351.26L230.05,352.55L232.51,352L233.74,351.73L234.97,351.92L236.2,345.99L237.43,348.14L238.66,347.59L241.12,349.5L242.36,349.31L246.05,347.87L247.28,349.27L249.74,349.23L250.97,350.28L254.66,351.14L255.89,351.84L258.35,353.09L259.58,355.43L260.81,355.78L262.04,357.19L264.5,360.23L265.73,361.51L266.96,362.8L268.19,362.88L269.42,362.92L270.65,364.36L271.88,365.34L273.11,364.99L275.57,367.01L276.8,365.88L279.26,366.47L280.49,367.09L281.72,368.18L282.95,366.97L286.64,368.34L287.87,370.99L291.56,369L292.79,369.59L295.25,368.89L296.49,367.44L300.18,371.62L301.41,372.16L306.33,373.96L307.56,374.54L313.71,377.11L314.94,377.31L319.86,377.97L321.09,378.05L327.24,378.21L328.47,378.09L338.31,377.7L339.54,377.35L344.46,377.58L345.69,377.54L360.46,377.31L361.69,377.15L365.38,376.49L366.61,375.2L371.53,373.99L372.76,373.96L375.22,374.46L376.45,373.49L380.14,373.14L381.37,372.71L383.83,371.5L385.06,371.77L391.21,370.95L392.44,370.29L398.59,370.72L399.82,370.72L404.75,371.07L405.98,371.69L407.21,371.26L408.44,371.89L409.67,372.36L410.9,371.34L418.28,372.28L419.51,373.53L420.74,373.99L421.97,373.64L433.04,376.49L434.27,376.57L451.49,377.23L452.72,376.92L457.64,376.18L458.88,376.06L462.57,375.67L463.8,375.94L467.49,376.45L468.72,375.94L473.64,373.72L474.87,372.98L478.56,372.47L479.79,371.81L483.48,370.76L484.71,370.52L485.94,371.85L487.17,370.84L492.09,369.31L493.32,369.43L495.78,366.86L497.01,366.16L498.24,368.5L499.47,367.33L500.7,365.53L501.93,365.41L504.39,361.55L505.62,361.12L508.08,355.98L509.31,357.07L510.54,356.72L511.78,354.42L517.93,345.21L519.16,345.21L521.62,338.23L522.85,337.76L524.08,336.4L525.31,336.24L526.54,334.22L527.77,333.94L529,335L530.23,337.41L531.46,336.44L532.69,337.22L533.92,337.73L535.15,339.91L536.38,339.91L537.61,341.12L538.84,340.3L540.07,340.65L541.3,341L542.53,340.49L543.76,339.75L544.99,340.26L546.22,341.74L547.45,341.55L548.68,341.66L549.91,338.51L551.14,336.4L552.37,339.68L553.6,337.45L554.83,323.3L559.75,262.07L560.98,260.82L562.21,256.77L563.44,224.28L565.91,193.9L567.14,185.75L568.37,179.63L569.6,160.24L570.83,161.45L572.06,165.78L573.29,166.25L574.52,162.58L575.75,158.02L576.98,145.46L578.21,136.57L579.44,133.37L584.36,58.54L585.59,48.94L586.82,42.63L588.05,41.69L590.51,13.84L591.74,9.32L595.43,0L596.66,1.6L597.89,9.2L599.12,24.57L601.58,58.65L602.81,81.78L604.04,98.35L605.27,101.63L607.73,163.68L608.96,186.06L611.42,217.65L612.65,227.01L613.88,228.69L615.11,244.75L618.8,264.17L620.04,270.02L623.73,277.86L624.96,283.21L627.42,290.3L628.65,292.21L629.88,291.24L631.11,291.47L632.34,288.31L633.57,287.69L634.8,287.3L636.03,284.92L637.26,284.81L638.49,285.82L639.72,284.88L640.95,279.42L643.41,268.07L644.64,258.52L647.1,241.71L648.33,240.85L650.79,231.57L652.02,227.17L655.71,231.1L656.94,230.91L660.63,209.69L661.86,203.38L664.32,192.69L665.55,192.89L666.78,194.56L668.01,193.78L670.47,197.37L671.7,200.14L672.93,202.91L674.17,203.03L675.4,204.86L676.63,204.23L679.09,202.67" style="vector-effect: non-scaling-stroke; fill: none; stroke: rgb(8, 115, 191); stroke-opacity: 1; stroke-width: 0.5px; opacity: 1;"/></g><g class="points"/><g class="text"/></g><g class="trace scatter trace1ce4d7" style="stroke-miterlimit: 2;"><g class="fills"><g><path class="js-fill" d="M691.39,380L679.09,380L679.09,202.67L680.32,202.4L681.55,204.27L682.78,204.51L684.01,213.52L687.7,231.3L688.93,233.68L691.39,235.63" style="fill: rgb(8, 115, 191); fill-opacity: 0.4; stroke-width: 0;"/></g></g><g class="errorbars"/><g class="lines"><path class="js-line" d="M679.09,202.67L680.32,202.4L681.55,204.27L682.78,204.51L684.01,213.52L687.7,231.3L688.93,233.68L691.39,235.63" style="vector-effect: non-scaling-stroke; fill: none; stroke: rgb(8, 115, 191); stroke-opacity: 1; stroke-width: 2px; opacity: 1;"/></g><g class="points"/><g class="text"/></g><g class="trace scatter trace374a75" style="stroke-miterlimit: 2; opacity: 1;"><g class="fills"/><g class="errorbars"/><g class="lines"/><g class="points"><path class="point" transform="translate(691.39,235.63)" d="M15,0A15,15 0 1,1 0,-15A15,15 0 0,1 15,0Z" style="opacity: 1; stroke-width: 0px; fill: rgb(8, 115, 191); fill-opacity: 1;"/></g><g class="text"/></g></g></g><g class="overplot"/><path class="xlines-above crisp" style="fill: none; stroke-width: 1px; stroke: rgb(0, 0, 0); stroke-opacity: 0;" d=""/><path class="ylines-above crisp" style="fill: none;" d="M0,0"/><g class="overlines-above"/><g class="xaxislayer-above"><path class="xtick ticks crisp" d="M0,450v-5" transform="translate(90.6,0)" style="stroke: rgb(68, 68, 68); stroke-opacity: 1; stroke-width: 1px;"/><path class="xtick ticks crisp" d="M0,450v-5" transform="translate(165.64,0)" style="stroke: rgb(68, 68, 68); stroke-opacity: 1; stroke-width: 1px;"/><path class="xtick ticks crisp" d="M0,450v-5" transform="translate(238.22,0)" style="stroke: rgb(68, 68, 68); stroke-opacity: 1; stroke-width: 1px;"/><path class="xtick ticks crisp" d="M0,450v-5" transform="translate(313.27,0)" style="stroke: rgb(68, 68, 68); stroke-opacity: 1; stroke-width: 1px;"/><path class="xtick ticks crisp" d="M0,450v-5" transform="translate(388.31,0)" style="stroke: rgb(68, 68, 68); stroke-opacity: 1; stroke-width: 1px;"/><path class="xtick ticks crisp" d="M0,450v-5" transform="translate(464.59,0)" style="stroke: rgb(68, 68, 68); stroke-opacity: 1; stroke-width: 1px;"/><path class="xtick ticks crisp" d="M0,450v-5" transform="translate(539.63,0)" style="stroke: rgb(68, 68, 68); stroke-opacity: 1; stroke-width: 1px;"/><path class="xtick ticks crisp" d="M0,450v-5" transform="translate(614.67,0)" style="stroke: rgb(68, 68, 68); stroke-opacity: 1; stroke-width: 1px;"/><path class="xtick ticks crisp" d="M0,450v-5" transform="translate(687.26,0)" style="stroke: rgb(68, 68, 68); stroke-opacity: 1; stroke-width: 1px;"/><g class="xtick"><text text-anchor="middle" x="0" y="469" transform="translate(90.6,0)" style="font-family: 'Open Sans', verdana, arial, sans-serif; font-size: 18px; fill: rgb(42, 63, 95); fill-opacity: 1; white-space: pre;">01/11</text></g><g class="xtick"><text text-anchor="middle" x="0" y="469" transform="translate(165.64,0)" style="font-family: 'Open Sans', verdana, arial, sans-serif; font-size: 18px; fill: rgb(42, 63, 95); fill-opacity: 1; white-space: pre;">01/01</text></g><g class="xtick"><text text-anchor="middle" x="0" y="469" transform="translate(238.22,0)" style="font-family: 'Open Sans', verdana, arial, sans-serif; font-size: 18px; fill: rgb(42, 63, 95); fill-opacity: 1; white-space: pre;">01/03</text></g><g class="xtick"><text text-anchor="middle" x="0" y="469" transform="translate(313.27,0)" style="font-family: 'Open Sans', verdana, arial, sans-serif; font-size: 18px; fill: rgb(42, 63, 95); fill-opacity: 1; white-space: pre;">01/05</text></g><g class="xtick"><text text-anchor="middle" x="0" y="469" transform="translate(388.31,0)" style="font-family: 'Open Sans', verdana, arial, sans-serif; font-size: 18px; fill: rgb(42, 63, 95); fill-opacity: 1; white-space: pre;">01/07</text></g><g class="xtick"><text text-anchor="middle" x="0" y="469" transform="translate(464.59,0)" style="font-family: 'Open Sans', verdana, arial, sans-serif; font-size: 18px; fill: rgb(42, 63, 95); fill-opacity: 1; white-space: pre;">01/09</text></g><g class="xtick"><text text-anchor="middle" x="0" y="469" transform="translate(539.63,0)" style="font-family: 'Open Sans', verdana, arial, sans-serif; font-size: 18px; fill: rgb(42, 63, 95); fill-opacity: 1; white-space: pre;">01/11</text></g><g class="xtick"><text text-anchor="middle" x="0" y="469" transform="translate(614.67,0)" style="font-family: 'Open Sans', verdana, arial, sans-serif; font-size: 18px; fill: rgb(42, 63, 95); fill-opacity: 1; white-space: pre;">01/01</text></g><g class="xtick"><text text-anchor="middle" x="0" y="469" transform="translate(687.26,0)" style="font-family: 'Open Sans', verdana, arial, sans-serif; font-size: 18px; fill: rgb(42, 63, 95); fill-opacity: 1; white-space: pre;">01/03</text></g></g><g class="yaxislayer-above"/><g class="overaxes-above"/></g></g><g class="polarlayer"/><g class="ternarylayer"/><g class="geolayer"/><g class="funnelarealayer"/><g class="pielayer"/><g class="treemaplayer"/><g class="sunburstlayer"/><g class="glimages"/><defs id="topdefs-930dd2"><g class="clips"/></defs><g class="layer-above"><g class="imagelayer"/><g class="shapelayer"><path data-index="0" fill-rule="evenodd" d="M-641.39,444.82L257.90999999999997,444.82" clip-path="url('#clip930dd2xy')" style="opacity: 1; stroke: rgb(255, 0, 0); stroke-opacity: 1; fill: rgb(0, 0, 0); fill-opacity: 0; stroke-dasharray: 3px, 3px; stroke-width: 1.5px;"/></g></g><g class="infolayer"><g class="g-gtitle"><text class="gtitle" x="375" y="25" text-anchor="middle" dy="0.7em" style="font-family: 'Open Sans', verdana, arial, sans-serif; font-size: 50px; fill: rgb(42, 63, 95); opacity: 1; font-weight: normal; white-space: pre;"><tspan style="font-weight:bold">Ardennes (08)</tspan></text></g><g class="g-xtitle"/><g class="annotation" data-index="0" style="opacity: 1;"><g class="annotation-text-g" transform="rotate(0,699.39,245.63)"><g class="cursor-pointer" transform="translate(627, 210)"><rect class="bg" x="0.5" y="0.5" width="143" height="71" style="stroke-width: 1px; stroke: rgb(0, 0, 0); stroke-opacity: 0; fill: rgb(255, 255, 255); fill-opacity: 0.6;"/><text class="annotation-text" text-anchor="middle" x="72.078125" y="55.5" style="font-family: 'Open Sans', verdana, arial, sans-serif; font-size: 50px; fill: rgb(8, 115, 191); fill-opacity: 1; white-space: pre;"> <tspan style="font-weight:bold">1394 </tspan></text></g></g><g class="annotation-arrow-g" style="opacity: 1;"><path d="M727.79,281.13L739.39,295.63" style="stroke-width: 1px; stroke: rgb(8, 115, 191); stroke-opacity: 1; stroke-dasharray: 0px, 0px, 18.5691px, 18.5691px;"/></g></g></g></svg>