<svg class="main-svg" xmlns="http://www.w3.org/2000/svg" xmlns:xlink="http://www.w3.org/1999/xlink" width="1125" height="750" style="" viewBox="0 0 750 500"><rect x="0" y="0" width="750" height="500" style="fill: rgb(0, 0, 0); fill-opacity: 0;"/><defs id="defs-2ac4a0"><g class="clips"><clipPath id="clip2ac4a0xyplot" class="plotclip"><rect width="680" height="380"/></clipPath><clipPath class="axesclip" id="clip2ac4a0x"><rect x="50" y="0" width="680" height="500"/></clipPath><clipPath class="axesclip" id="clip2ac4a0y"><rect x="0" y="70" width="750" height="380"/></clipPath><clipPath class="axesclip" id="clip2ac4a0xy"><rect x="50" y="70" width="680" height="380"/></clipPath></g><g class="gradients"/></defs><g class="bglayer"><rect class="bg" x="50" y="70" width="680" height="380" style="fill: rgb(0, 0, 0); fill-opacity: 0; stroke-width: 0;"/></g><g class="layer-below"><g class="imagelayer"/><g class="shapelayer"/></g><g class="cartesianlayer"><g class="subplot xy"><g class="layer-subplot"><g class="shapelayer"/><g class="imagelayer"/></g><g class="gridlayer"><g class="x"><path class="xgrid crisp" transform="translate(88.56,0)" d="M0,70v380" style="stroke: rgb(255, 255, 255); stroke-opacity: 1; stroke-width: 1px;"/><path class="xgrid crisp" transform="translate(159.82999999999998,0)" d="M0,70v380" style="stroke: rgb(255, 255, 255); stroke-opacity: 1; stroke-width: 1px;"/><path class="xgrid crisp" transform="translate(228.76,0)" d="M0,70v380" style="stroke: rgb(255, 255, 255); stroke-opacity: 1; stroke-width: 1px;"/><path class="xgrid crisp" transform="translate(300.03,0)" d="M0,70v380" style="stroke: rgb(255, 255, 255); stroke-opacity: 1; stroke-width: 1px;"/><path class="xgrid crisp" transform="translate(371.31,0)" d="M0,70v380" style="stroke: rgb(255, 255, 255); stroke-opacity: 1; stroke-width: 1px;"/><path class="xgrid crisp" transform="translate(443.75,0)" d="M0,70v380" style="stroke: rgb(255, 255, 255); stroke-opacity: 1; stroke-width: 1px;"/><path class="xgrid crisp" transform="translate(515.02,0)" d="M0,70v380" style="stroke: rgb(255, 255, 255); stroke-opacity: 1; stroke-width: 1px;"/><path class="xgrid crisp" transform="translate(586.29,0)" d="M0,70v380" style="stroke: rgb(255, 255, 255); stroke-opacity: 1; stroke-width: 1px;"/><path class="xgrid crisp" transform="translate(655.22,0)" d="M0,70v380" style="stroke: rgb(255, 255, 255); stroke-opacity: 1; stroke-width: 1px;"/><path class="xgrid crisp" transform="translate(726.49,0)" d="M0,70v380" style="stroke: rgb(255, 255, 255); stroke-opacity: 1; stroke-width: 1px;"/></g><g class="y"/></g><g class="zerolinelayer"/><path class="xlines-below"/><path class="ylines-below"/><g class="overlines-below"/><g class="xaxislayer-below"/><g class="yaxislayer-below"/><g class="overaxes-below"/><g class="plot" transform="translate(50, 70)" clip-path="url('#clip2ac4a0xyplot')"><g class="scatterlayer mlayer"><g class="trace scatter trace8d926d" style="stroke-miterlimit: 2;"><g class="fills"><g><path class="js-fill" d="M660.14,380L-158.9,380L-158.9,379.75L-96.98,379.41L-95.81,379.41L-82.96,379.39L-81.79,379.23L-68.93,378.84L-67.77,378.64L-50.24,376.21L-49.07,375.65L-39.73,373.86L-38.56,373.83L-33.88,371.16L-32.71,370.52L-29.21,370.05L-28.04,370.46L-25.7,371.2L-24.54,371.82L-16.36,371.68L-15.19,371.71L-4.67,371.77L-3.51,371.71L3.51,369.78L4.67,368.9L7.01,367.04L8.18,365.38L10.52,364.14L11.68,362.19L14.02,358.72L15.19,356.27L18.69,356.16L19.86,354.7L21.03,353.26L22.2,350.35L25.7,336.19L26.87,335.85L29.21,317.13L30.38,312.51L31.55,308.31L32.71,307.86L35.05,306.97L36.22,307.5L43.23,315.56L44.4,321.3L45.57,324.63L46.74,334.2L50.24,343.35L51.41,343.26L53.75,352.26L54.91,350.53L57.25,358.61L58.42,359.63L59.59,359.89L60.76,362.41L61.92,364.16L63.09,364.39L65.43,366.22L66.6,365.9L68.93,366.08L70.1,366.69L72.44,366.43L73.61,366.22L77.11,366.4L78.28,366.09L81.79,365.52L82.96,364.72L84.12,364.66L85.29,362.69L87.63,361.64L88.8,361.62L91.13,360.8L92.3,360.74L93.47,361.03L94.64,360.48L96.98,359.42L98.14,362.52L103.99,363.97L105.15,363.71L106.32,363.71L107.49,362.52L108.66,362.44L109.83,359.99L112.16,358.26L113.33,356.88L114.5,353.44L115.67,354.16L118.01,355.07L119.18,355.29L120.34,356.23L121.51,355.86L126.19,353.78L127.35,352.69L128.52,351.99L129.69,352.73L133.2,352.67L134.36,354.12L136.7,355.55L137.87,355.7L141.37,356.02L142.54,356.81L149.55,358.29L150.72,357.45L151.89,357.4L153.06,358.26L155.4,359.42L156.56,359.21L157.73,359.31L158.9,360.58L161.24,360.99L162.41,360.92L165.91,361.01L167.08,360.05L175.26,360.62L176.43,360.78L179.93,360.87L181.1,360.64L183.44,360.46L184.6,359.72L192.78,357.43L193.95,355.66L197.46,351.99L198.63,351.72L200.96,347.11L202.13,345.66L205.64,341.94L206.8,341.83L209.14,338.25L210.31,338.28L212.65,338.55L213.81,338.25L214.98,338.14L216.15,346.61L218.49,342.99L219.66,342.9L220.82,344.62L221.99,344.78L223.16,344.67L224.33,337.91L226.67,344.08L227.84,344.53L229,343.99L230.17,344.41L234.85,346.27L236.01,346.3L238.35,348.68L239.52,348.4L241.86,350.4L243.02,352.3L244.19,354.32L245.36,354.03L246.53,355.95L247.7,356.04L251.2,360.42L252.37,361.39L253.54,364.07L254.71,364.14L255.88,364.22L257.04,365.93L260.55,370.21L261.72,370.37L264.05,370.12L265.22,370.93L267.56,370.96L268.73,370.03L271.07,370.87L272.23,371.05L273.4,373.09L274.57,372.72L278.08,373.79L279.24,374L280.41,374.04L281.58,373.18L283.92,374.74L285.09,374.92L302.61,378.85L303.78,378.84L322.47,378.37L323.64,378.23L327.15,377.78L328.32,377.75L330.65,377.12L331.82,376.24L332.99,376.03L334.16,374.43L336.49,372.04L337.66,371.88L344.67,356.02L345.84,355.38L348.18,347.32L349.35,345.53L352.85,339.07L354.02,339.18L358.69,335.01L359.86,334.49L362.2,334.28L363.37,333.42L364.54,332L365.7,332.47L368.04,331.77L369.21,331.07L372.71,331.61L373.88,330.61L375.05,331.57L376.22,331.05L377.39,331.79L378.56,331.5L382.06,336.84L383.23,339.05L385.57,342.99L386.74,343.47L389.07,347.66L390.24,348.83L391.41,349.79L392.58,351.81L394.91,353.21L396.08,356L398.42,359.74L399.59,361.1L401.92,363.12L403.09,363.03L406.6,366.35L407.77,367.28L411.27,367.96L412.44,368.9L417.11,372.18L418.28,372.7L428.8,373.31L429.97,373.65L434.64,374.97L435.81,375.08L438.14,375.6L439.31,375.65L443.99,375.97L445.15,375.87L452.16,374.83L453.33,375.15L455.67,374.9L456.84,374.74L461.51,374.88L462.68,374.09L468.52,372.81L469.69,370.75L472.03,369.96L473.2,370.71L475.53,369.48L476.7,369.41L482.54,360.26L483.71,359.87L484.88,359.72L486.05,357.84L489.55,350.31L490.72,347.23L491.89,344.26L493.06,343.92L496.56,330.43L497.73,326.53L500.07,320.53L501.24,319.23L504.74,304.68L505.91,300.38L508.25,295.26L509.42,295.51L510.58,291.67L511.75,290.41L515.26,288.75L516.43,289.93L517.59,289.41L518.76,291.88L519.93,292.15L521.1,291.2L523.44,288.21L524.6,295.01L525.77,294.4L526.94,281.75L531.62,242.65L532.78,242.2L533.95,239.95L535.12,216.32L537.46,195.67L538.63,192.56L539.79,183.77L540.96,161.98L542.13,161.62L543.3,158.9L544.47,154.24L545.64,144.81L549.14,121.26L550.31,117.2L556.15,36.01L557.32,25.97L558.49,25.13L559.66,4.69L560.82,0L561.99,2.11L563.16,4.19L564.33,10.54L565.5,14.87L566.67,16.18L573.68,121.89L574.85,126.2L577.18,184.24L578.35,204.76L581.86,242.99L583.02,244.26L585.36,268.51L586.53,278.05L590.03,296.64L591.2,298.07L593.54,309.62L594.71,313.46L597.04,319.89L598.21,322.05L599.38,323.02L600.55,326.85L601.72,327.4L602.89,326.24L604.05,325.44L605.22,325.85L608.73,323.86L609.9,324.06L612.23,323.45L613.4,321.48L615.74,320.39L616.91,315.83L620.41,305.2L621.58,302.64L622.75,299.52L623.92,299.88L627.42,286.1L628.59,281.52L630.93,273L632.1,272.39L634.43,256.02L635.6,251.6L637.94,247.46L639.11,247.64L640.27,247.66L641.44,252.19L643.78,253.71L644.95,253.19L647.29,250.77L648.45,250.88L649.62,251.6L650.79,253.82L655.46,261.94L656.63,262.21L657.8,287.91L658.97,282.97L660.14,287.34" style="fill: rgb(8, 115, 191); fill-opacity: 0.2; stroke-width: 0;"/></g></g><g class="errorbars"/><g class="lines"><path class="js-line" d="M-158.9,379.75L-96.98,379.41L-95.81,379.41L-82.96,379.39L-81.79,379.23L-68.93,378.84L-67.77,378.64L-50.24,376.21L-49.07,375.65L-39.73,373.86L-38.56,373.83L-33.88,371.16L-32.71,370.52L-29.21,370.05L-28.04,370.46L-25.7,371.2L-24.54,371.82L-16.36,371.68L-15.19,371.71L-4.67,371.77L-3.51,371.71L3.51,369.78L4.67,368.9L7.01,367.04L8.18,365.38L10.52,364.14L11.68,362.19L14.02,358.72L15.19,356.27L18.69,356.16L19.86,354.7L21.03,353.26L22.2,350.35L25.7,336.19L26.87,335.85L29.21,317.13L30.38,312.51L31.55,308.31L32.71,307.86L35.05,306.97L36.22,307.5L43.23,315.56L44.4,321.3L45.57,324.63L46.74,334.2L50.24,343.35L51.41,343.26L53.75,352.26L54.91,350.53L57.25,358.61L58.42,359.63L59.59,359.89L60.76,362.41L61.92,364.16L63.09,364.39L65.43,366.22L66.6,365.9L68.93,366.08L70.1,366.69L72.44,366.43L73.61,366.22L77.11,366.4L78.28,366.09L81.79,365.52L82.96,364.72L84.12,364.66L85.29,362.69L87.63,361.64L88.8,361.62L91.13,360.8L92.3,360.74L93.47,361.03L94.64,360.48L96.98,359.42L98.14,362.52L103.99,363.97L105.15,363.71L106.32,363.71L107.49,362.52L108.66,362.44L109.83,359.99L112.16,358.26L113.33,356.88L114.5,353.44L115.67,354.16L118.01,355.07L119.18,355.29L120.34,356.23L121.51,355.86L126.19,353.78L127.35,352.69L128.52,351.99L129.69,352.73L133.2,352.67L134.36,354.12L136.7,355.55L137.87,355.7L141.37,356.02L142.54,356.81L149.55,358.29L150.72,357.45L151.89,357.4L153.06,358.26L155.4,359.42L156.56,359.21L157.73,359.31L158.9,360.58L161.24,360.99L162.41,360.92L165.91,361.01L167.08,360.05L175.26,360.62L176.43,360.78L179.93,360.87L181.1,360.64L183.44,360.46L184.6,359.72L192.78,357.43L193.95,355.66L197.46,351.99L198.63,351.72L200.96,347.11L202.13,345.66L205.64,341.94L206.8,341.83L209.14,338.25L210.31,338.28L212.65,338.55L213.81,338.25L214.98,338.14L216.15,346.61L218.49,342.99L219.66,342.9L220.82,344.62L221.99,344.78L223.16,344.67L224.33,337.91L226.67,344.08L227.84,344.53L229,343.99L230.17,344.41L234.85,346.27L236.01,346.3L238.35,348.68L239.52,348.4L241.86,350.4L243.02,352.3L244.19,354.32L245.36,354.03L246.53,355.95L247.7,356.04L251.2,360.42L252.37,361.39L253.54,364.07L254.71,364.14L255.88,364.22L257.04,365.93L260.55,370.21L261.72,370.37L264.05,370.12L265.22,370.93L267.56,370.96L268.73,370.03L271.07,370.87L272.23,371.05L273.4,373.09L274.57,372.72L278.08,373.79L279.24,374L280.41,374.04L281.58,373.18L283.92,374.74L285.09,374.92L302.61,378.85L303.78,378.84L322.47,378.37L323.64,378.23L327.15,377.78L328.32,377.75L330.65,377.12L331.82,376.24L332.99,376.03L334.16,374.43L336.49,372.04L337.66,371.88L344.67,356.02L345.84,355.38L348.18,347.32L349.35,345.53L352.85,339.07L354.02,339.18L358.69,335.01L359.86,334.49L362.2,334.28L363.37,333.42L364.54,332L365.7,332.47L368.04,331.77L369.21,331.07L372.71,331.61L373.88,330.61L375.05,331.57L376.22,331.05L377.39,331.79L378.56,331.5L382.06,336.84L383.23,339.05L385.57,342.99L386.74,343.47L389.07,347.66L390.24,348.83L391.41,349.79L392.58,351.81L394.91,353.21L396.08,356L398.42,359.74L399.59,361.1L401.92,363.12L403.09,363.03L406.6,366.35L407.77,367.28L411.27,367.96L412.44,368.9L417.11,372.18L418.28,372.7L428.8,373.31L429.97,373.65L434.64,374.97L435.81,375.08L438.14,375.6L439.31,375.65L443.99,375.97L445.15,375.87L452.16,374.83L453.33,375.15L455.67,374.9L456.84,374.74L461.51,374.88L462.68,374.09L468.52,372.81L469.69,370.75L472.03,369.96L473.2,370.71L475.53,369.48L476.7,369.41L482.54,360.26L483.71,359.87L484.88,359.72L486.05,357.84L489.55,350.31L490.72,347.23L491.89,344.26L493.06,343.92L496.56,330.43L497.73,326.53L500.07,320.53L501.24,319.23L504.74,304.68L505.91,300.38L508.25,295.26L509.42,295.51L510.58,291.67L511.75,290.41L515.26,288.75L516.43,289.93L517.59,289.41L518.76,291.88L519.93,292.15L521.1,291.2L523.44,288.21L524.6,295.01L525.77,294.4L526.94,281.75L531.62,242.65L532.78,242.2L533.95,239.95L535.12,216.32L537.46,195.67L538.63,192.56L539.79,183.77L540.96,161.98L542.13,161.62L543.3,158.9L544.47,154.24L545.64,144.81L549.14,121.26L550.31,117.2L556.15,36.01L557.32,25.97L558.49,25.13L559.66,4.69L560.82,0L561.99,2.11L563.16,4.19L564.33,10.54L565.5,14.87L566.67,16.18L573.68,121.89L574.85,126.2L577.18,184.24L578.35,204.76L581.86,242.99L583.02,244.26L585.36,268.51L586.53,278.05L590.03,296.64L591.2,298.07L593.54,309.62L594.71,313.46L597.04,319.89L598.21,322.05L599.38,323.02L600.55,326.85L601.72,327.4L602.89,326.24L604.05,325.44L605.22,325.85L608.73,323.86L609.9,324.06L612.23,323.45L613.4,321.48L615.74,320.39L616.91,315.83L620.41,305.2L621.58,302.64L622.75,299.52L623.92,299.88L627.42,286.1L628.59,281.52L630.93,273L632.1,272.39L634.43,256.02L635.6,251.6L637.94,247.46L639.11,247.64L640.27,247.66L641.44,252.19L643.78,253.71L644.95,253.19L647.29,250.77L648.45,250.88L649.62,251.6L650.79,253.82L655.46,261.94L656.63,262.21L657.8,287.91L658.97,282.97L660.14,287.34" style="vector-effect: non-scaling-stroke; fill: none; stroke: rgb(8, 115, 191); stroke-opacity: 1; stroke-width: 0.5px; opacity: 1;"/></g><g class="points"/><g class="text"/></g><g class="trace scatter trace11e4e6" style="stroke-miterlimit: 2;"><g class="fills"><g><path class="js-fill" d="M671.82,380L660.14,380L660.14,287.34L663.64,303.85L664.81,304.75L665.98,292.2L667.15,307.33L671.82,324.68" style="fill: rgb(8, 115, 191); fill-opacity: 0.4; stroke-width: 0;"/></g></g><g class="errorbars"/><g class="lines"><path class="js-line" d="M660.14,287.34L663.64,303.85L664.81,304.75L665.98,292.2L667.15,307.33L671.82,324.68" style="vector-effect: non-scaling-stroke; fill: none; stroke: rgb(8, 115, 191); stroke-opacity: 1; stroke-width: 2px; opacity: 1;"/></g><g class="points"/><g class="text"/></g><g class="trace scatter tracefd6ecf" style="stroke-miterlimit: 2; opacity: 1;"><g class="fills"/><g class="errorbars"/><g class="lines"/><g class="points"><path class="point" transform="translate(671.82,324.68)" d="M15,0A15,15 0 1,1 0,-15A15,15 0 0,1 15,0Z" style="opacity: 1; stroke-width: 0px; fill: rgb(8, 115, 191); fill-opacity: 1;"/></g><g class="text"/></g></g></g><g class="overplot"/><path class="xlines-above crisp" style="fill: none; stroke-width: 1px; stroke: rgb(0, 0, 0); stroke-opacity: 0;" d=""/><path class="ylines-above crisp" style="fill: none;" d="M0,0"/><g class="overlines-above"/><g class="xaxislayer-above"><path class="xtick ticks crisp" d="M0,450v-5" transform="translate(88.56,0)" style="stroke: rgb(68, 68, 68); stroke-opacity: 1; stroke-width: 1px;"/><path class="xtick ticks crisp" d="M0,450v-5" transform="translate(159.82999999999998,0)" style="stroke: rgb(68, 68, 68); stroke-opacity: 1; stroke-width: 1px;"/><path class="xtick ticks crisp" d="M0,450v-5" transform="translate(228.76,0)" style="stroke: rgb(68, 68, 68); stroke-opacity: 1; stroke-width: 1px;"/><path class="xtick ticks crisp" d="M0,450v-5" transform="translate(300.03,0)" style="stroke: rgb(68, 68, 68); stroke-opacity: 1; stroke-width: 1px;"/><path class="xtick ticks crisp" d="M0,450v-5" transform="translate(371.31,0)" style="stroke: rgb(68, 68, 68); stroke-opacity: 1; stroke-width: 1px;"/><path class="xtick ticks crisp" d="M0,450v-5" transform="translate(443.75,0)" style="stroke: rgb(68, 68, 68); stroke-opacity: 1; stroke-width: 1px;"/><path class="xtick ticks crisp" d="M0,450v-5" transform="translate(515.02,0)" style="stroke: rgb(68, 68, 68); stroke-opacity: 1; stroke-width: 1px;"/><path class="xtick ticks crisp" d="M0,450v-5" transform="translate(586.29,0)" style="stroke: rgb(68, 68, 68); stroke-opacity: 1; stroke-width: 1px;"/><path class="xtick ticks crisp" d="M0,450v-5" transform="translate(655.22,0)" style="stroke: rgb(68, 68, 68); stroke-opacity: 1; stroke-width: 1px;"/><path class="xtick ticks crisp" d="M0,450v-5" transform="translate(726.49,0)" style="stroke: rgb(68, 68, 68); stroke-opacity: 1; stroke-width: 1px;"/><g class="xtick"><text text-anchor="middle" x="0" y="469" transform="translate(88.56,0)" style="font-family: 'Open Sans', verdana, arial, sans-serif; font-size: 18px; fill: rgb(42, 63, 95); fill-opacity: 1; white-space: pre;">01/11</text></g><g class="xtick"><text text-anchor="middle" x="0" y="469" transform="translate(159.82999999999998,0)" style="font-family: 'Open Sans', verdana, arial, sans-serif; font-size: 18px; fill: rgb(42, 63, 95); fill-opacity: 1; white-space: pre;">01/01</text></g><g class="xtick"><text text-anchor="middle" x="0" y="469" transform="translate(228.76,0)" style="font-family: 'Open Sans', verdana, arial, sans-serif; font-size: 18px; fill: rgb(42, 63, 95); fill-opacity: 1; white-space: pre;">01/03</text></g><g class="xtick"><text text-anchor="middle" x="0" y="469" transform="translate(300.03,0)" style="font-family: 'Open Sans', verdana, arial, sans-serif; font-size: 18px; fill: rgb(42, 63, 95); fill-opacity: 1; white-space: pre;">01/05</text></g><g class="xtick"><text text-anchor="middle" x="0" y="469" transform="translate(371.31,0)" style="font-family: 'Open Sans', verdana, arial, sans-serif; font-size: 18px; fill: rgb(42, 63, 95); fill-opacity: 1; white-space: pre;">01/07</text></g><g class="xtick"><text text-anchor="middle" x="0" y="469" transform="translate(443.75,0)" style="font-family: 'Open Sans', verdana, arial, sans-serif; font-size: 18px; fill: rgb(42, 63, 95); fill-opacity: 1; white-space: pre;">01/09</text></g><g class="xtick"><text text-anchor="middle" x="0" y="469" transform="translate(515.02,0)" style="font-family: 'Open Sans', verdana, arial, sans-serif; font-size: 18px; fill: rgb(42, 63, 95); fill-opacity: 1; white-space: pre;">01/11</text></g><g class="xtick"><text text-anchor="middle" x="0" y="469" transform="translate(586.29,0)" style="font-family: 'Open Sans', verdana, arial, sans-serif; font-size: 18px; fill: rgb(42, 63, 95); fill-opacity: 1; white-space: pre;">01/01</text></g><g class="xtick"><text text-anchor="middle" x="0" y="469" transform="translate(655.22,0)" style="font-family: 'Open Sans', verdana, arial, sans-serif; font-size: 18px; fill: rgb(42, 63, 95); fill-opacity: 1; white-space: pre;">01/03</text></g><g class="xtick"><text text-anchor="middle" x="0" y="469" transform="translate(726.49,0)" style="font-family: 'Open Sans', verdana, arial, sans-serif; font-size: 18px; fill: rgb(42, 63, 95); fill-opacity: 1; white-space: pre;">01/05</text></g></g><g class="yaxislayer-above"/><g class="overaxes-above"/></g></g><g class="polarlayer"/><g class="ternarylayer"/><g class="geolayer"/><g class="funnelarealayer"/><g class="pielayer"/><g class="treemaplayer"/><g class="sunburstlayer"/><g class="glimages"/><defs id="topdefs-2ac4a0"><g class="clips"/></defs><g class="layer-above"><g class="imagelayer"/><g class="shapelayer"><path data-index="0" fill-rule="evenodd" d="M-606.63,444.98L247.46,444.98" clip-path="url('#clip2ac4a0xy')" style="opacity: 1; stroke: rgb(255, 0, 0); stroke-opacity: 1; fill: rgb(0, 0, 0); fill-opacity: 0; stroke-dasharray: 3px, 3px; stroke-width: 1.5px;"/></g></g><g class="infolayer"><g class="g-gtitle"><text class="gtitle" x="375" y="25" text-anchor="middle" dy="0.7em" style="font-family: 'Open Sans', verdana, arial, sans-serif; font-size: 50px; fill: rgb(42, 63, 95); opacity: 1; font-weight: normal; white-space: pre;"><tspan style="font-weight:bold">Vaucluse (84)</tspan></text></g><g class="g-xtitle"/><g class="annotation" data-index="0" style="opacity: 1;"><g class="annotation-text-g" transform="rotate(0,679.82,334.68)"><g class="cursor-pointer" transform="translate(622, 299)"><rect class="bg" x="0.5" y="0.5" width="115" height="71" style="stroke-width: 1px; stroke: rgb(0, 0, 0); stroke-opacity: 0; fill: rgb(255, 255, 255); fill-opacity: 0.6;"/><text class="annotation-text" text-anchor="middle" x="57.8125" y="55.5" style="font-family: 'Open Sans', verdana, arial, sans-serif; font-size: 50px; fill: rgb(8, 115, 191); fill-opacity: 1; white-space: pre;"> <tspan style="font-weight:bold">550 </tspan></text></g></g><g class="annotation-arrow-g" style="opacity: 1;"><path d="M708.22,370.18L719.82,384.68" style="stroke-width: 1px; stroke: rgb(8, 115, 191); stroke-opacity: 1; stroke-dasharray: 0px, 0px, 18.5691px, 18.5691px;"/></g></g></g></svg>