<svg class="main-svg" xmlns="http://www.w3.org/2000/svg" xmlns:xlink="http://www.w3.org/1999/xlink" width="1125" height="750" style="" viewBox="0 0 750 500"><rect x="0" y="0" width="750" height="500" style="fill: rgb(0, 0, 0); fill-opacity: 0;"/><defs id="defs-48a5a1"><g class="clips"><clipPath id="clip48a5a1xyplot" class="plotclip"><rect width="696" height="380"/></clipPath><clipPath class="axesclip" id="clip48a5a1x"><rect x="50" y="0" width="696" height="500"/></clipPath><clipPath class="axesclip" id="clip48a5a1y"><rect x="0" y="70" width="750" height="380"/></clipPath><clipPath class="axesclip" id="clip48a5a1xy"><rect x="50" y="70" width="696" height="380"/></clipPath></g><g class="gradients"/></defs><g class="bglayer"><rect class="bg" x="50" y="70" width="696" height="380" style="fill: rgb(0, 0, 0); fill-opacity: 0; stroke-width: 0;"/></g><g class="layer-below"><g class="imagelayer"/><g class="shapelayer"/></g><g class="cartesianlayer"><g class="subplot xy"><g class="layer-subplot"><g class="shapelayer"/><g class="imagelayer"/></g><g class="gridlayer"><g class="x"><path class="xgrid crisp" transform="translate(88.53999999999999,0)" d="M0,70v380" style="stroke: rgb(255, 255, 255); stroke-opacity: 1; stroke-width: 1px;"/><path class="xgrid crisp" transform="translate(159.76999999999998,0)" d="M0,70v380" style="stroke: rgb(255, 255, 255); stroke-opacity: 1; stroke-width: 1px;"/><path class="xgrid crisp" transform="translate(228.67,0)" d="M0,70v380" style="stroke: rgb(255, 255, 255); stroke-opacity: 1; stroke-width: 1px;"/><path class="xgrid crisp" transform="translate(299.90999999999997,0)" d="M0,70v380" style="stroke: rgb(255, 255, 255); stroke-opacity: 1; stroke-width: 1px;"/><path class="xgrid crisp" transform="translate(371.14,0)" d="M0,70v380" style="stroke: rgb(255, 255, 255); stroke-opacity: 1; stroke-width: 1px;"/><path class="xgrid crisp" transform="translate(443.54,0)" d="M0,70v380" style="stroke: rgb(255, 255, 255); stroke-opacity: 1; stroke-width: 1px;"/><path class="xgrid crisp" transform="translate(514.78,0)" d="M0,70v380" style="stroke: rgb(255, 255, 255); stroke-opacity: 1; stroke-width: 1px;"/><path class="xgrid crisp" transform="translate(586.01,0)" d="M0,70v380" style="stroke: rgb(255, 255, 255); stroke-opacity: 1; stroke-width: 1px;"/><path class="xgrid crisp" transform="translate(654.91,0)" d="M0,70v380" style="stroke: rgb(255, 255, 255); stroke-opacity: 1; stroke-width: 1px;"/><path class="xgrid crisp" transform="translate(726.15,0)" d="M0,70v380" style="stroke: rgb(255, 255, 255); stroke-opacity: 1; stroke-width: 1px;"/></g><g class="y"/></g><g class="zerolinelayer"/><path class="xlines-below"/><path class="ylines-below"/><g class="overlines-below"/><g class="xaxislayer-below"/><g class="yaxislayer-below"/><g class="overaxes-below"/><g class="plot" transform="translate(50, 70)" clip-path="url('#clip48a5a1xyplot')"><g class="scatterlayer mlayer"><g class="trace scatter trace77cf3b" style="stroke-miterlimit: 2;"><g class="fills"><g><path class="js-fill" d="M676.15,380L-158.82,380L-158.82,379.27L-98.09,379.46L-96.93,379.44L-59.56,378.35L-58.39,377.98L-42.04,372.93L-40.87,372.67L-37.37,371.47L-36.2,370.67L-28.03,366.92L-26.86,365.89L-16.35,362.87L-15.18,362.89L-12.85,362.18L-11.68,361.63L-8.17,361.75L-7.01,361.94L-4.67,362.76L-3.5,363.52L2.34,362.78L3.5,360.9L9.34,351.26L10.51,351.08L16.35,334.75L17.52,333.68L18.68,333.52L19.85,329.54L25.69,312.21L26.86,311.93L29.19,306.1L30.36,305.77L31.53,306.41L32.7,306.1L35.03,305.85L36.2,304.81L38.54,303.66L39.7,304.83L42.04,308.8L43.21,309.01L45.54,322.78L46.71,334.56L50.21,347.04L51.38,347.31L53.72,355.37L54.89,353.18L57.22,359.75L58.39,360.71L59.56,360.91L60.72,363.88L63.06,366.35L64.23,366.88L71.23,366.9L72.4,366.86L85.25,365.38L86.42,364.94L88.75,363.89L89.92,362.58L92.26,360.47L93.42,360.53L95.76,360.59L96.93,361.71L98.09,365.38L99.26,366.38L101.6,367.67L102.77,367.09L105.1,366.92L106.27,366.94L108.6,366.86L109.77,365.44L113.28,364.61L114.44,362.03L116.78,362.09L117.95,363.16L121.45,363.73L122.62,363.48L136.63,361.73L137.8,361.73L142.47,362.27L143.64,362.07L149.48,361.48L150.64,362L157.65,364.39L158.82,364.73L162.32,363.98L163.49,363.51L170.5,362.01L171.66,362.21L182.17,362.57L183.34,362.28L186.85,360.41L188.01,359.28L190.35,358.54L191.52,357.09L197.36,351.02L198.52,350.83L203.19,343.75L204.36,342.71L206.7,342.28L207.87,340.65L210.2,339.65L211.37,339.35L214.87,338.92L216.04,346.29L217.21,344.79L218.38,344.95L221.88,347.5L223.05,347.49L224.21,341.9L225.38,345.23L227.72,347.74L228.89,348.43L231.22,348.73L232.39,349.84L238.23,352.67L239.4,352.85L245.23,356.88L246.4,358.81L247.57,358.9L248.74,360.37L252.24,363.58L253.41,364.17L256.91,365.11L258.08,365.57L259.25,365.96L260.42,367.91L261.58,368.43L262.75,367.89L267.42,368.04L268.59,366.75L270.93,367.38L272.09,367.53L273.26,370.29L274.43,370.12L280.27,371.31L281.44,370.12L283.77,372.14L284.94,372.8L294.28,375.68L295.45,375.88L297.79,376.5L298.95,376.99L311.8,378.14L312.97,378.12L329.32,376.84L330.48,376.16L331.65,375.13L332.82,375.31L336.32,371.05L337.49,370.66L340.99,360.82L342.16,359.64L344.5,356.99L345.66,356.83L348,354.63L349.17,354.47L351.5,353.94L352.67,353.85L355.01,354.49L356.17,355.06L362.01,355.45L363.18,354.76L365.52,354.41L366.68,354.54L371.36,354.96L372.52,355.58L374.86,357.07L376.03,357.47L379.53,358.7L380.7,359.58L383.03,360.62L384.2,361.71L391.21,365.15L392.38,365.54L394.71,365.68L395.88,366.71L401.72,370.48L402.89,370.61L407.56,372.88L408.72,373.1L415.73,374.4L416.9,374.8L426.24,375.26L427.41,375.25L432.08,375.8L433.25,375.87L446.09,375.68L447.26,375.64L450.77,375.72L451.93,375.76L460.11,375.26L461.28,375.98L463.61,374.86L464.78,374.63L468.28,373.92L469.45,372.27L472.95,372.11L474.12,370.96L476.46,370.49L477.62,369L483.46,360.09L484.63,359.74L491.64,343.68L492.81,343.4L495.14,336.12L496.31,333.61L499.81,325.88L500.98,325.58L503.32,321.11L504.48,319.45L510.32,321.21L511.49,321.48L512.66,321.76L513.83,320.95L514.99,321.31L516.16,320.34L517.33,319.7L518.5,317.58L520.83,306.56L522,299.21L523.17,294.54L524.34,298.47L525.5,295.68L526.67,274.58L531.34,210.71L532.51,208.03L533.68,202.11L534.85,177.37L537.18,142.8L538.35,132.3L540.68,91.58L541.85,88.55L548.86,42.11L550.03,37.79L553.53,7.42L554.7,1.57L555.87,0L557.03,0.97L558.2,2.8L559.37,10.68L565.21,89.01L566.38,94.57L569.88,158.18L571.05,174.26L573.38,201.12L574.55,205.77L578.05,256.28L579.22,267.55L581.56,283.63L582.72,286.61L585.06,308.55L586.23,316.7L589.73,331.66L590.9,332.82L593.23,340.22L594.4,342.66L597.91,347.94L599.07,348.24L601.41,350.19L602.58,350.56L607.25,352.69L608.42,352.5L610.75,351.79L611.92,350.67L615.42,347.49L616.59,344.16L622.43,332.16L623.6,331.63L628.27,309.8L629.44,304.54L630.6,301.47L631.77,300.53L634.11,290.05L635.28,286.84L636.44,285.02L637.61,284.58L639.95,283.78L641.11,283.67L643.45,281.94L644.62,280.41L646.95,276.44L648.12,276.28L649.29,274.69L650.46,274.83L652.79,276.83L653.96,278.69L656.3,281.26L657.46,302.75L658.63,300.2L659.8,305.43L663.3,317.46L664.47,318.34L665.64,309.57L666.81,321.55L670.31,334.2L671.48,336.93L672.64,337.37L673.81,341.23L676.15,345.55" style="fill: rgb(8, 115, 191); fill-opacity: 0.2; stroke-width: 0;"/></g></g><g class="errorbars"/><g class="lines"><path class="js-line" d="M-158.82,379.27L-98.09,379.46L-96.93,379.44L-59.56,378.35L-58.39,377.98L-42.04,372.93L-40.87,372.67L-37.37,371.47L-36.2,370.67L-28.03,366.92L-26.86,365.89L-16.35,362.87L-15.18,362.89L-12.85,362.18L-11.68,361.63L-8.17,361.75L-7.01,361.94L-4.67,362.76L-3.5,363.52L2.34,362.78L3.5,360.9L9.34,351.26L10.51,351.08L16.35,334.75L17.52,333.68L18.68,333.52L19.85,329.54L25.69,312.21L26.86,311.93L29.19,306.1L30.36,305.77L31.53,306.41L32.7,306.1L35.03,305.85L36.2,304.81L38.54,303.66L39.7,304.83L42.04,308.8L43.21,309.01L45.54,322.78L46.71,334.56L50.21,347.04L51.38,347.31L53.72,355.37L54.89,353.18L57.22,359.75L58.39,360.71L59.56,360.91L60.72,363.88L63.06,366.35L64.23,366.88L71.23,366.9L72.4,366.86L85.25,365.38L86.42,364.94L88.75,363.89L89.92,362.58L92.26,360.47L93.42,360.53L95.76,360.59L96.93,361.71L98.09,365.38L99.26,366.38L101.6,367.67L102.77,367.09L105.1,366.92L106.27,366.94L108.6,366.86L109.77,365.44L113.28,364.61L114.44,362.03L116.78,362.09L117.95,363.16L121.45,363.73L122.62,363.48L136.63,361.73L137.8,361.73L142.47,362.27L143.64,362.07L149.48,361.48L150.64,362L157.65,364.39L158.82,364.73L162.32,363.98L163.49,363.51L170.5,362.01L171.66,362.21L182.17,362.57L183.34,362.28L186.85,360.41L188.01,359.28L190.35,358.54L191.52,357.09L197.36,351.02L198.52,350.83L203.19,343.75L204.36,342.71L206.7,342.28L207.87,340.65L210.2,339.65L211.37,339.35L214.87,338.92L216.04,346.29L217.21,344.79L218.38,344.95L221.88,347.5L223.05,347.49L224.21,341.9L225.38,345.23L227.72,347.74L228.89,348.43L231.22,348.73L232.39,349.84L238.23,352.67L239.4,352.85L245.23,356.88L246.4,358.81L247.57,358.9L248.74,360.37L252.24,363.58L253.41,364.17L256.91,365.11L258.08,365.57L259.25,365.96L260.42,367.91L261.58,368.43L262.75,367.89L267.42,368.04L268.59,366.75L270.93,367.38L272.09,367.53L273.26,370.29L274.43,370.12L280.27,371.31L281.44,370.12L283.77,372.14L284.94,372.8L294.28,375.68L295.45,375.88L297.79,376.5L298.95,376.99L311.8,378.14L312.97,378.12L329.32,376.84L330.48,376.16L331.65,375.13L332.82,375.31L336.32,371.05L337.49,370.66L340.99,360.82L342.16,359.64L344.5,356.99L345.66,356.83L348,354.63L349.17,354.47L351.5,353.94L352.67,353.85L355.01,354.49L356.17,355.06L362.01,355.45L363.18,354.76L365.52,354.41L366.68,354.54L371.36,354.96L372.52,355.58L374.86,357.07L376.03,357.47L379.53,358.7L380.7,359.58L383.03,360.62L384.2,361.71L391.21,365.15L392.38,365.54L394.71,365.68L395.88,366.71L401.72,370.48L402.89,370.61L407.56,372.88L408.72,373.1L415.73,374.4L416.9,374.8L426.24,375.26L427.41,375.25L432.08,375.8L433.25,375.87L446.09,375.68L447.26,375.64L450.77,375.72L451.93,375.76L460.11,375.26L461.28,375.98L463.61,374.86L464.78,374.63L468.28,373.92L469.45,372.27L472.95,372.11L474.12,370.96L476.46,370.49L477.62,369L483.46,360.09L484.63,359.74L491.64,343.68L492.81,343.4L495.14,336.12L496.31,333.61L499.81,325.88L500.98,325.58L503.32,321.11L504.48,319.45L510.32,321.21L511.49,321.48L512.66,321.76L513.83,320.95L514.99,321.31L516.16,320.34L517.33,319.7L518.5,317.58L520.83,306.56L522,299.21L523.17,294.54L524.34,298.47L525.5,295.68L526.67,274.58L531.34,210.71L532.51,208.03L533.68,202.11L534.85,177.37L537.18,142.8L538.35,132.3L540.68,91.58L541.85,88.55L548.86,42.11L550.03,37.79L553.53,7.42L554.7,1.57L555.87,0L557.03,0.97L558.2,2.8L559.37,10.68L565.21,89.01L566.38,94.57L569.88,158.18L571.05,174.26L573.38,201.12L574.55,205.77L578.05,256.28L579.22,267.55L581.56,283.63L582.72,286.61L585.06,308.55L586.23,316.7L589.73,331.66L590.9,332.82L593.23,340.22L594.4,342.66L597.91,347.94L599.07,348.24L601.41,350.19L602.58,350.56L607.25,352.69L608.42,352.5L610.75,351.79L611.92,350.67L615.42,347.49L616.59,344.16L622.43,332.16L623.6,331.63L628.27,309.8L629.44,304.54L630.6,301.47L631.77,300.53L634.11,290.05L635.28,286.84L636.44,285.02L637.61,284.58L639.95,283.78L641.11,283.67L643.45,281.94L644.62,280.41L646.95,276.44L648.12,276.28L649.29,274.69L650.46,274.83L652.79,276.83L653.96,278.69L656.3,281.26L657.46,302.75L658.63,300.2L659.8,305.43L663.3,317.46L664.47,318.34L665.64,309.57L666.81,321.55L670.31,334.2L671.48,336.93L672.64,337.37L673.81,341.23L676.15,345.55" style="vector-effect: non-scaling-stroke; fill: none; stroke: rgb(8, 115, 191); stroke-opacity: 1; stroke-width: 0.5px; opacity: 1;"/></g><g class="points"/><g class="text"/></g><g class="trace scatter trace7110f1" style="stroke-miterlimit: 2;"><g class="fills"><g><path class="js-fill" d="M687.83,380L676.15,380L676.15,345.55L678.48,349.12L679.65,350.03L680.82,350.47L681.99,351.89L684.32,353.6L685.49,354.08L687.83,355.4" style="fill: rgb(8, 115, 191); fill-opacity: 0.4; stroke-width: 0;"/></g></g><g class="errorbars"/><g class="lines"><path class="js-line" d="M676.15,345.55L678.48,349.12L679.65,350.03L680.82,350.47L681.99,351.89L684.32,353.6L685.49,354.08L687.83,355.4" style="vector-effect: non-scaling-stroke; fill: none; stroke: rgb(8, 115, 191); stroke-opacity: 1; stroke-width: 2px; opacity: 1;"/></g><g class="points"/><g class="text"/></g><g class="trace scatter trace15135e" style="stroke-miterlimit: 2; opacity: 1;"><g class="fills"/><g class="errorbars"/><g class="lines"/><g class="points"><path class="point" transform="translate(687.83,355.4)" d="M15,0A15,15 0 1,1 0,-15A15,15 0 0,1 15,0Z" style="opacity: 1; stroke-width: 0px; fill: rgb(8, 115, 191); fill-opacity: 1;"/></g><g class="text"/></g></g></g><g class="overplot"/><path class="xlines-above crisp" style="fill: none; stroke-width: 1px; stroke: rgb(0, 0, 0); stroke-opacity: 0;" d=""/><path class="ylines-above crisp" style="fill: none;" d="M0,0"/><g class="overlines-above"/><g class="xaxislayer-above"><path class="xtick ticks crisp" d="M0,450v-5" transform="translate(88.53999999999999,0)" style="stroke: rgb(68, 68, 68); stroke-opacity: 1; stroke-width: 1px;"/><path class="xtick ticks crisp" d="M0,450v-5" transform="translate(159.76999999999998,0)" style="stroke: rgb(68, 68, 68); stroke-opacity: 1; stroke-width: 1px;"/><path class="xtick ticks crisp" d="M0,450v-5" transform="translate(228.67,0)" style="stroke: rgb(68, 68, 68); stroke-opacity: 1; stroke-width: 1px;"/><path class="xtick ticks crisp" d="M0,450v-5" transform="translate(299.90999999999997,0)" style="stroke: rgb(68, 68, 68); stroke-opacity: 1; stroke-width: 1px;"/><path class="xtick ticks crisp" d="M0,450v-5" transform="translate(371.14,0)" style="stroke: rgb(68, 68, 68); stroke-opacity: 1; stroke-width: 1px;"/><path class="xtick ticks crisp" d="M0,450v-5" transform="translate(443.54,0)" style="stroke: rgb(68, 68, 68); stroke-opacity: 1; stroke-width: 1px;"/><path class="xtick ticks crisp" d="M0,450v-5" transform="translate(514.78,0)" style="stroke: rgb(68, 68, 68); stroke-opacity: 1; stroke-width: 1px;"/><path class="xtick ticks crisp" d="M0,450v-5" transform="translate(586.01,0)" style="stroke: rgb(68, 68, 68); stroke-opacity: 1; stroke-width: 1px;"/><path class="xtick ticks crisp" d="M0,450v-5" transform="translate(654.91,0)" style="stroke: rgb(68, 68, 68); stroke-opacity: 1; stroke-width: 1px;"/><path class="xtick ticks crisp" d="M0,450v-5" transform="translate(726.15,0)" style="stroke: rgb(68, 68, 68); stroke-opacity: 1; stroke-width: 1px;"/><g class="xtick"><text text-anchor="middle" x="0" y="469" transform="translate(88.53999999999999,0)" style="font-family: 'Open Sans', verdana, arial, sans-serif; font-size: 18px; fill: rgb(42, 63, 95); fill-opacity: 1; white-space: pre;">01/11</text></g><g class="xtick"><text text-anchor="middle" x="0" y="469" transform="translate(159.76999999999998,0)" style="font-family: 'Open Sans', verdana, arial, sans-serif; font-size: 18px; fill: rgb(42, 63, 95); fill-opacity: 1; white-space: pre;">01/01</text></g><g class="xtick"><text text-anchor="middle" x="0" y="469" transform="translate(228.67,0)" style="font-family: 'Open Sans', verdana, arial, sans-serif; font-size: 18px; fill: rgb(42, 63, 95); fill-opacity: 1; white-space: pre;">01/03</text></g><g class="xtick"><text text-anchor="middle" x="0" y="469" transform="translate(299.90999999999997,0)" style="font-family: 'Open Sans', verdana, arial, sans-serif; font-size: 18px; fill: rgb(42, 63, 95); fill-opacity: 1; white-space: pre;">01/05</text></g><g class="xtick"><text text-anchor="middle" x="0" y="469" transform="translate(371.14,0)" style="font-family: 'Open Sans', verdana, arial, sans-serif; font-size: 18px; fill: rgb(42, 63, 95); fill-opacity: 1; white-space: pre;">01/07</text></g><g class="xtick"><text text-anchor="middle" x="0" y="469" transform="translate(443.54,0)" style="font-family: 'Open Sans', verdana, arial, sans-serif; font-size: 18px; fill: rgb(42, 63, 95); fill-opacity: 1; white-space: pre;">01/09</text></g><g class="xtick"><text text-anchor="middle" x="0" y="469" transform="translate(514.78,0)" style="font-family: 'Open Sans', verdana, arial, sans-serif; font-size: 18px; fill: rgb(42, 63, 95); fill-opacity: 1; white-space: pre;">01/11</text></g><g class="xtick"><text text-anchor="middle" x="0" y="469" transform="translate(586.01,0)" style="font-family: 'Open Sans', verdana, arial, sans-serif; font-size: 18px; fill: rgb(42, 63, 95); fill-opacity: 1; white-space: pre;">01/01</text></g><g class="xtick"><text text-anchor="middle" x="0" y="469" transform="translate(654.91,0)" style="font-family: 'Open Sans', verdana, arial, sans-serif; font-size: 18px; fill: rgb(42, 63, 95); fill-opacity: 1; white-space: pre;">01/03</text></g><g class="xtick"><text text-anchor="middle" x="0" y="469" transform="translate(726.15,0)" style="font-family: 'Open Sans', verdana, arial, sans-serif; font-size: 18px; fill: rgb(42, 63, 95); fill-opacity: 1; white-space: pre;">01/05</text></g></g><g class="yaxislayer-above"/><g class="overaxes-above"/></g></g><g class="polarlayer"/><g class="ternarylayer"/><g class="geolayer"/><g class="funnelarealayer"/><g class="pielayer"/><g class="treemaplayer"/><g class="sunburstlayer"/><g class="glimages"/><defs id="topdefs-48a5a1"><g class="clips"/></defs><g class="layer-above"><g class="imagelayer"/><g class="shapelayer"><path data-index="0" fill-rule="evenodd" d="M-606.3,445.92L247.36,445.92" clip-path="url('#clip48a5a1xy')" style="opacity: 1; stroke: rgb(255, 0, 0); stroke-opacity: 1; fill: rgb(0, 0, 0); fill-opacity: 0; stroke-dasharray: 3px, 3px; stroke-width: 1.5px;"/></g></g><g class="infolayer"><g class="g-gtitle"><text class="gtitle" x="375" y="25" text-anchor="middle" dy="0.7em" style="font-family: 'Open Sans', verdana, arial, sans-serif; font-size: 50px; fill: rgb(42, 63, 95); opacity: 1; font-weight: normal; white-space: pre;"><tspan style="font-weight:bold">Rhône (69)</tspan></text></g><g class="g-xtitle"/><g class="annotation" data-index="0" style="opacity: 1;"><g class="annotation-text-g" transform="rotate(0,695.83,365.4)"><g class="cursor-pointer" transform="translate(638, 329)"><rect class="bg" x="0.5" y="0.5" width="115" height="71" style="stroke-width: 1px; stroke: rgb(0, 0, 0); stroke-opacity: 0; fill: rgb(255, 255, 255); fill-opacity: 0.6;"/><text class="annotation-text" text-anchor="middle" x="57.8125" y="55.5" style="font-family: 'Open Sans', verdana, arial, sans-serif; font-size: 50px; fill: rgb(8, 115, 191); fill-opacity: 1; white-space: pre;"> <tspan style="font-weight:bold">301 </tspan></text></g></g><g class="annotation-arrow-g" style="opacity: 1;"><path d="M724.23,400.9L735.83,415.4" style="stroke-width: 1px; stroke: rgb(8, 115, 191); stroke-opacity: 1; stroke-dasharray: 0px, 0px, 18.5691px, 18.5691px;"/></g></g></g></svg>