<svg class="main-svg" xmlns="http://www.w3.org/2000/svg" xmlns:xlink="http://www.w3.org/1999/xlink" width="1125" height="750" style="" viewBox="0 0 750 500"><rect x="0" y="0" width="750" height="500" style="fill: rgb(0, 0, 0); fill-opacity: 0;"/><defs id="defs-e53b92"><g class="clips"><clipPath id="clipe53b92xyplot" class="plotclip"><rect width="684" height="380"/></clipPath><clipPath class="axesclip" id="clipe53b92x"><rect x="50" y="0" width="684" height="500"/></clipPath><clipPath class="axesclip" id="clipe53b92y"><rect x="0" y="70" width="750" height="380"/></clipPath><clipPath class="axesclip" id="clipe53b92xy"><rect x="50" y="70" width="684" height="380"/></clipPath></g><g class="gradients"/></defs><g class="bglayer"><rect class="bg" x="50" y="70" width="684" height="380" style="fill: rgb(0, 0, 0); fill-opacity: 0; stroke-width: 0;"/></g><g class="layer-below"><g class="imagelayer"/><g class="shapelayer"/></g><g class="cartesianlayer"><g class="subplot xy"><g class="layer-subplot"><g class="shapelayer"/><g class="imagelayer"/></g><g class="gridlayer"><g class="x"><path class="xgrid crisp" transform="translate(93.08,0)" d="M0,70v380" style="stroke: rgb(255, 255, 255); stroke-opacity: 1; stroke-width: 1px;"/><path class="xgrid crisp" transform="translate(172.7,0)" d="M0,70v380" style="stroke: rgb(255, 255, 255); stroke-opacity: 1; stroke-width: 1px;"/><path class="xgrid crisp" transform="translate(249.72,0)" d="M0,70v380" style="stroke: rgb(255, 255, 255); stroke-opacity: 1; stroke-width: 1px;"/><path class="xgrid crisp" transform="translate(329.34,0)" d="M0,70v380" style="stroke: rgb(255, 255, 255); stroke-opacity: 1; stroke-width: 1px;"/><path class="xgrid crisp" transform="translate(408.97,0)" d="M0,70v380" style="stroke: rgb(255, 255, 255); stroke-opacity: 1; stroke-width: 1px;"/><path class="xgrid crisp" transform="translate(489.9,0)" d="M0,70v380" style="stroke: rgb(255, 255, 255); stroke-opacity: 1; stroke-width: 1px;"/><path class="xgrid crisp" transform="translate(569.53,0)" d="M0,70v380" style="stroke: rgb(255, 255, 255); stroke-opacity: 1; stroke-width: 1px;"/><path class="xgrid crisp" transform="translate(649.15,0)" d="M0,70v380" style="stroke: rgb(255, 255, 255); stroke-opacity: 1; stroke-width: 1px;"/><path class="xgrid crisp" transform="translate(726.17,0)" d="M0,70v380" style="stroke: rgb(255, 255, 255); stroke-opacity: 1; stroke-width: 1px;"/></g><g class="y"/></g><g class="zerolinelayer"/><path class="xlines-below"/><path class="ylines-below"/><g class="overlines-below"/><g class="xaxislayer-below"/><g class="yaxislayer-below"/><g class="overaxes-below"/><g class="plot" transform="translate(50, 70)" clip-path="url('#clipe53b92xyplot')"><g class="scatterlayer mlayer"><g class="trace scatter trace85e0a5" style="stroke-miterlimit: 2;"><g class="fills"><g><path class="js-fill" d="M661.81,380L-177.53,380L-177.53,379.47L-160.56,378.82L-159.25,379.25L-147.5,379.79L-146.2,379.79L-67.88,379.15L-66.57,378.18L-58.74,376.8L-57.44,377.33L-52.21,378.5L-50.91,378.82L-44.38,378.82L-43.08,378.82L-33.94,378.93L-32.63,378.29L-22.19,378.18L-20.89,378.29L-11.75,377.86L-10.44,378.29L2.61,376.58L3.92,375.73L10.44,370.17L11.75,370.17L16.97,365.47L18.27,364.72L20.89,364.72L22.19,363.12L24.8,356.71L26.11,350.73L28.72,340.47L30.02,340.37L31.33,337.91L32.63,332.67L36.55,323.81L37.85,326.37L39.16,326.16L40.47,323.38L41.77,323.17L43.08,324.55L44.38,324.34L45.69,327.23L48.3,325.94L49.6,326.16L50.91,329.15L52.21,335.99L54.82,340.9L56.13,343.25L57.44,343.78L58.74,348.91L60.05,352.12L61.35,350.51L63.96,363.23L65.27,363.98L66.57,364.4L67.88,366.01L69.18,368.46L70.49,368.78L73.1,369.53L74.4,370.81L77.02,370.92L78.32,371.56L82.24,371.99L83.54,371.35L84.85,371.45L86.15,369.96L88.76,371.35L90.07,371.13L93.98,371.03L95.29,372.84L97.9,373.16L99.21,373.27L100.51,372.63L101.82,373.06L104.43,373.48L105.73,372.41L108.34,372.74L109.65,374.34L112.26,373.8L113.56,374.44L121.4,371.45L122.7,369.42L126.62,366.43L127.92,363.87L130.53,364.51L131.84,363.98L133.15,364.72L134.45,364.3L138.37,362.8L139.67,362.59L143.59,360.24L144.89,357.46L146.2,354.89L147.5,354.47L151.42,354.04L152.73,353.61L154.03,353.51L155.34,354.25L157.95,354.04L159.25,352.33L160.56,350.83L161.86,350.62L164.47,354.47L165.78,355.11L167.08,355.22L168.39,359.27L173.61,366.97L174.92,367.71L176.22,366.86L177.53,367.29L181.44,371.13L182.75,370.06L184.05,370.06L185.36,371.13L189.27,370.6L190.58,370.81L193.19,372.2L194.5,372.31L197.11,372.74L198.41,372.74L199.72,372.74L201.02,373.59L203.63,372.95L204.94,374.12L207.55,374.66L208.85,374.34L210.16,374.02L211.47,374.55L215.38,374.55L216.69,373.91L219.3,373.7L220.6,374.12L224.52,373.16L225.82,374.23L227.13,373.16L228.44,373.06L232.35,372.74L233.66,373.38L234.96,371.35L236.27,372.63L238.88,370.92L240.18,371.03L241.49,371.99L242.79,370.71L244.1,371.45L245.4,370.49L246.71,370.6L248.02,368.78L249.32,368.68L250.63,364.08L253.24,358.42L254.54,357.24L255.85,356.07L257.15,357.57L258.46,357.35L259.76,359.27L262.37,362.8L263.68,363.12L264.98,363.23L266.29,362.48L267.6,362.69L268.9,361.84L270.21,363.12L271.51,363.23L275.43,366.54L276.73,366.65L279.34,368.14L280.65,370.28L281.95,370.17L283.26,371.24L287.18,371.88L288.48,372.31L289.79,371.67L291.09,373.48L295.01,373.48L296.31,374.44L300.23,371.88L301.53,372.09L304.15,371.88L305.45,373.06L310.67,376.69L311.98,376.9L323.73,377.65L325.03,377.54L331.56,378.4L332.86,379.04L338.08,379.68L339.39,379.68L356.36,379.68L357.66,378.29L362.89,377.76L364.19,377.22L365.5,376.58L366.8,377.65L375.94,377.01L377.24,376.8L383.77,375.62L385.08,375.94L388.99,375.62L390.3,375.09L394.21,375.3L395.52,375.41L399.44,376.47L400.74,375.62L402.05,375.94L403.35,375.41L407.27,374.34L408.57,373.48L409.88,373.8L411.18,372.84L425.54,374.12L426.85,374.87L428.15,374.23L429.46,374.87L435.98,374.98L437.29,375.94L439.9,374.98L441.21,374.87L443.82,374.02L445.12,374.23L446.43,373.91L447.73,374.55L458.18,376.9L459.48,376.69L464.7,377.76L466.01,377.65L472.53,377.97L473.84,377.76L476.45,378.5L477.76,378.5L481.67,377.12L482.98,377.22L486.89,375.51L488.2,375.41L490.81,376.05L492.11,375.94L502.56,376.9L503.86,376.58L505.17,376.8L506.47,375.94L507.78,373.7L509.08,373.16L513,367.82L514.31,367.5L515.61,368.14L516.92,365.79L519.53,365.04L520.83,365.58L523.44,365.68L524.75,364.08L526.05,366.01L527.36,365.79L528.66,367.29L529.97,365.9L533.89,363.12L535.19,363.01L536.5,361.73L537.8,357.46L539.11,356.6L540.41,356.71L541.72,356.6L543.02,352.54L548.24,340.47L549.55,338.76L550.85,338.87L552.16,336.84L553.47,336.95L554.77,334.06L556.08,336.73L557.38,337.48L558.69,336.84L559.99,337.05L561.3,339.4L562.6,338.12L567.82,345.6L569.13,345.6L573.05,352.44L574.35,351.69L576.96,353.08L578.27,352.86L579.57,352.76L580.88,351.58L584.79,346.45L586.1,348.16L587.4,347.84L588.71,332.78L591.32,307.03L592.63,291.22L593.93,269.54L595.24,267.93L596.54,263.13L597.85,246.57L600.46,208.43L601.76,200.31L603.07,195.39L604.37,174.46L605.68,173.6L606.98,161.85L608.29,162.81L609.6,155.23L610.9,152.34L612.21,147.53L613.51,140.7L614.82,138.56L621.34,80.55L622.65,70.72L623.95,66.45L625.26,40.38L627.87,18.38L629.18,8.87L631.79,3.74L633.09,0L635.7,8.55L637.01,16.35L642.23,44.01L643.53,58.01L650.06,128.63L651.37,131.51L653.98,178.09L655.28,191.23L657.89,205.33L659.2,207.47L660.5,210.14L661.81,215.91" style="fill: rgb(8, 115, 191); fill-opacity: 0.2; stroke-width: 0;"/></g></g><g class="errorbars"/><g class="lines"><path class="js-line" d="M-177.53,379.47L-160.56,378.82L-159.25,379.25L-147.5,379.79L-146.2,379.79L-67.88,379.15L-66.57,378.18L-58.74,376.8L-57.44,377.33L-52.21,378.5L-50.91,378.82L-44.38,378.82L-43.08,378.82L-33.94,378.93L-32.63,378.29L-22.19,378.18L-20.89,378.29L-11.75,377.86L-10.44,378.29L2.61,376.58L3.92,375.73L10.44,370.17L11.75,370.17L16.97,365.47L18.27,364.72L20.89,364.72L22.19,363.12L24.8,356.71L26.11,350.73L28.72,340.47L30.02,340.37L31.33,337.91L32.63,332.67L36.55,323.81L37.85,326.37L39.16,326.16L40.47,323.38L41.77,323.17L43.08,324.55L44.38,324.34L45.69,327.23L48.3,325.94L49.6,326.16L50.91,329.15L52.21,335.99L54.82,340.9L56.13,343.25L57.44,343.78L58.74,348.91L60.05,352.12L61.35,350.51L63.96,363.23L65.27,363.98L66.57,364.4L67.88,366.01L69.18,368.46L70.49,368.78L73.1,369.53L74.4,370.81L77.02,370.92L78.32,371.56L82.24,371.99L83.54,371.35L84.85,371.45L86.15,369.96L88.76,371.35L90.07,371.13L93.98,371.03L95.29,372.84L97.9,373.16L99.21,373.27L100.51,372.63L101.82,373.06L104.43,373.48L105.73,372.41L108.34,372.74L109.65,374.34L112.26,373.8L113.56,374.44L121.4,371.45L122.7,369.42L126.62,366.43L127.92,363.87L130.53,364.51L131.84,363.98L133.15,364.72L134.45,364.3L138.37,362.8L139.67,362.59L143.59,360.24L144.89,357.46L146.2,354.89L147.5,354.47L151.42,354.04L152.73,353.61L154.03,353.51L155.34,354.25L157.95,354.04L159.25,352.33L160.56,350.83L161.86,350.62L164.47,354.47L165.78,355.11L167.08,355.22L168.39,359.27L173.61,366.97L174.92,367.71L176.22,366.86L177.53,367.29L181.44,371.13L182.75,370.06L184.05,370.06L185.36,371.13L189.27,370.6L190.58,370.81L193.19,372.2L194.5,372.31L197.11,372.74L198.41,372.74L199.72,372.74L201.02,373.59L203.63,372.95L204.94,374.12L207.55,374.66L208.85,374.34L210.16,374.02L211.47,374.55L215.38,374.55L216.69,373.91L219.3,373.7L220.6,374.12L224.52,373.16L225.82,374.23L227.13,373.16L228.44,373.06L232.35,372.74L233.66,373.38L234.96,371.35L236.27,372.63L238.88,370.92L240.18,371.03L241.49,371.99L242.79,370.71L244.1,371.45L245.4,370.49L246.71,370.6L248.02,368.78L249.32,368.68L250.63,364.08L253.24,358.42L254.54,357.24L255.85,356.07L257.15,357.57L258.46,357.35L259.76,359.27L262.37,362.8L263.68,363.12L264.98,363.23L266.29,362.48L267.6,362.69L268.9,361.84L270.21,363.12L271.51,363.23L275.43,366.54L276.73,366.65L279.34,368.14L280.65,370.28L281.95,370.17L283.26,371.24L287.18,371.88L288.48,372.31L289.79,371.67L291.09,373.48L295.01,373.48L296.31,374.44L300.23,371.88L301.53,372.09L304.15,371.88L305.45,373.06L310.67,376.69L311.98,376.9L323.73,377.65L325.03,377.54L331.56,378.4L332.86,379.04L338.08,379.68L339.39,379.68L356.36,379.68L357.66,378.29L362.89,377.76L364.19,377.22L365.5,376.58L366.8,377.65L375.94,377.01L377.24,376.8L383.77,375.62L385.08,375.94L388.99,375.62L390.3,375.09L394.21,375.3L395.52,375.41L399.44,376.47L400.74,375.62L402.05,375.94L403.35,375.41L407.27,374.34L408.57,373.48L409.88,373.8L411.18,372.84L425.54,374.12L426.85,374.87L428.15,374.23L429.46,374.87L435.98,374.98L437.29,375.94L439.9,374.98L441.21,374.87L443.82,374.02L445.12,374.23L446.43,373.91L447.73,374.55L458.18,376.9L459.48,376.69L464.7,377.76L466.01,377.65L472.53,377.97L473.84,377.76L476.45,378.5L477.76,378.5L481.67,377.12L482.98,377.22L486.89,375.51L488.2,375.41L490.81,376.05L492.11,375.94L502.56,376.9L503.86,376.58L505.17,376.8L506.47,375.94L507.78,373.7L509.08,373.16L513,367.82L514.31,367.5L515.61,368.14L516.92,365.79L519.53,365.04L520.83,365.58L523.44,365.68L524.75,364.08L526.05,366.01L527.36,365.79L528.66,367.29L529.97,365.9L533.89,363.12L535.19,363.01L536.5,361.73L537.8,357.46L539.11,356.6L540.41,356.71L541.72,356.6L543.02,352.54L548.24,340.47L549.55,338.76L550.85,338.87L552.16,336.84L553.47,336.95L554.77,334.06L556.08,336.73L557.38,337.48L558.69,336.84L559.99,337.05L561.3,339.4L562.6,338.12L567.82,345.6L569.13,345.6L573.05,352.44L574.35,351.69L576.96,353.08L578.27,352.86L579.57,352.76L580.88,351.58L584.79,346.45L586.1,348.16L587.4,347.84L588.71,332.78L591.32,307.03L592.63,291.22L593.93,269.54L595.24,267.93L596.54,263.13L597.85,246.57L600.46,208.43L601.76,200.31L603.07,195.39L604.37,174.46L605.68,173.6L606.98,161.85L608.29,162.81L609.6,155.23L610.9,152.34L612.21,147.53L613.51,140.7L614.82,138.56L621.34,80.55L622.65,70.72L623.95,66.45L625.26,40.38L627.87,18.38L629.18,8.87L631.79,3.74L633.09,0L635.7,8.55L637.01,16.35L642.23,44.01L643.53,58.01L650.06,128.63L651.37,131.51L653.98,178.09L655.28,191.23L657.89,205.33L659.2,207.47L660.5,210.14L661.81,215.91" style="vector-effect: non-scaling-stroke; fill: none; stroke: rgb(8, 115, 191); stroke-opacity: 1; stroke-width: 0.5px; opacity: 1;"/></g><g class="points"/><g class="text"/></g><g class="trace scatter trace9ff1f0" style="stroke-miterlimit: 2;"><g class="fills"><g><path class="js-fill" d="M674.86,380L661.81,380L661.81,215.91L668.34,266.87L669.64,269.43L672.25,288.77L673.56,293.68L674.86,294.75" style="fill: rgb(8, 115, 191); fill-opacity: 0.4; stroke-width: 0;"/></g></g><g class="errorbars"/><g class="lines"><path class="js-line" d="M661.81,215.91L668.34,266.87L669.64,269.43L672.25,288.77L673.56,293.68L674.86,294.75" style="vector-effect: non-scaling-stroke; fill: none; stroke: rgb(8, 115, 191); stroke-opacity: 1; stroke-width: 2px; opacity: 1;"/></g><g class="points"/><g class="text"/></g><g class="trace scatter trace71dcf8" style="stroke-miterlimit: 2; opacity: 1;"><g class="fills"/><g class="errorbars"/><g class="lines"/><g class="points"><path class="point" transform="translate(674.86,294.75)" d="M15,0A15,15 0 1,1 0,-15A15,15 0 0,1 15,0Z" style="opacity: 1; stroke-width: 0px; fill: rgb(8, 115, 191); fill-opacity: 1;"/></g><g class="text"/></g></g></g><g class="overplot"/><path class="xlines-above crisp" style="fill: none; stroke-width: 1px; stroke: rgb(0, 0, 0); stroke-opacity: 0;" d=""/><path class="ylines-above crisp" style="fill: none;" d="M0,0"/><g class="overlines-above"/><g class="xaxislayer-above"><path class="xtick ticks crisp" d="M0,450v-5" transform="translate(93.08,0)" style="stroke: rgb(68, 68, 68); stroke-opacity: 1; stroke-width: 1px;"/><path class="xtick ticks crisp" d="M0,450v-5" transform="translate(172.7,0)" style="stroke: rgb(68, 68, 68); stroke-opacity: 1; stroke-width: 1px;"/><path class="xtick ticks crisp" d="M0,450v-5" transform="translate(249.72,0)" style="stroke: rgb(68, 68, 68); stroke-opacity: 1; stroke-width: 1px;"/><path class="xtick ticks crisp" d="M0,450v-5" transform="translate(329.34,0)" style="stroke: rgb(68, 68, 68); stroke-opacity: 1; stroke-width: 1px;"/><path class="xtick ticks crisp" d="M0,450v-5" transform="translate(408.97,0)" style="stroke: rgb(68, 68, 68); stroke-opacity: 1; stroke-width: 1px;"/><path class="xtick ticks crisp" d="M0,450v-5" transform="translate(489.9,0)" style="stroke: rgb(68, 68, 68); stroke-opacity: 1; stroke-width: 1px;"/><path class="xtick ticks crisp" d="M0,450v-5" transform="translate(569.53,0)" style="stroke: rgb(68, 68, 68); stroke-opacity: 1; stroke-width: 1px;"/><path class="xtick ticks crisp" d="M0,450v-5" transform="translate(649.15,0)" style="stroke: rgb(68, 68, 68); stroke-opacity: 1; stroke-width: 1px;"/><path class="xtick ticks crisp" d="M0,450v-5" transform="translate(726.17,0)" style="stroke: rgb(68, 68, 68); stroke-opacity: 1; stroke-width: 1px;"/><g class="xtick"><text text-anchor="middle" x="0" y="469" transform="translate(93.08,0)" style="font-family: 'Open Sans', verdana, arial, sans-serif; font-size: 18px; fill: rgb(42, 63, 95); fill-opacity: 1; white-space: pre;">01/11</text></g><g class="xtick"><text text-anchor="middle" x="0" y="469" transform="translate(172.7,0)" style="font-family: 'Open Sans', verdana, arial, sans-serif; font-size: 18px; fill: rgb(42, 63, 95); fill-opacity: 1; white-space: pre;">01/01</text></g><g class="xtick"><text text-anchor="middle" x="0" y="469" transform="translate(249.72,0)" style="font-family: 'Open Sans', verdana, arial, sans-serif; font-size: 18px; fill: rgb(42, 63, 95); fill-opacity: 1; white-space: pre;">01/03</text></g><g class="xtick"><text text-anchor="middle" x="0" y="469" transform="translate(329.34,0)" style="font-family: 'Open Sans', verdana, arial, sans-serif; font-size: 18px; fill: rgb(42, 63, 95); fill-opacity: 1; white-space: pre;">01/05</text></g><g class="xtick"><text text-anchor="middle" x="0" y="469" transform="translate(408.97,0)" style="font-family: 'Open Sans', verdana, arial, sans-serif; font-size: 18px; fill: rgb(42, 63, 95); fill-opacity: 1; white-space: pre;">01/07</text></g><g class="xtick"><text text-anchor="middle" x="0" y="469" transform="translate(489.9,0)" style="font-family: 'Open Sans', verdana, arial, sans-serif; font-size: 18px; fill: rgb(42, 63, 95); fill-opacity: 1; white-space: pre;">01/09</text></g><g class="xtick"><text text-anchor="middle" x="0" y="469" transform="translate(569.53,0)" style="font-family: 'Open Sans', verdana, arial, sans-serif; font-size: 18px; fill: rgb(42, 63, 95); fill-opacity: 1; white-space: pre;">01/11</text></g><g class="xtick"><text text-anchor="middle" x="0" y="469" transform="translate(649.15,0)" style="font-family: 'Open Sans', verdana, arial, sans-serif; font-size: 18px; fill: rgb(42, 63, 95); fill-opacity: 1; white-space: pre;">01/01</text></g><g class="xtick"><text text-anchor="middle" x="0" y="469" transform="translate(726.17,0)" style="font-family: 'Open Sans', verdana, arial, sans-serif; font-size: 18px; fill: rgb(42, 63, 95); fill-opacity: 1; white-space: pre;">01/03</text></g></g><g class="yaxislayer-above"/><g class="overaxes-above"/></g></g><g class="polarlayer"/><g class="ternarylayer"/><g class="geolayer"/><g class="funnelarealayer"/><g class="pielayer"/><g class="treemaplayer"/><g class="sunburstlayer"/><g class="glimages"/><defs id="topdefs-e53b92"><g class="clips"/></defs><g class="layer-above"><g class="imagelayer"/><g class="shapelayer"><path data-index="0" fill-rule="evenodd" d="M-683.6,443.79L270.6,443.79" clip-path="url('#clipe53b92xy')" style="opacity: 1; stroke: rgb(255, 0, 0); stroke-opacity: 1; fill: rgb(0, 0, 0); fill-opacity: 0; stroke-dasharray: 3px, 3px; stroke-width: 1.5px;"/></g></g><g class="infolayer"><g class="g-gtitle"><text class="gtitle" x="375" y="25" text-anchor="middle" dy="0.7em" style="font-family: 'Open Sans', verdana, arial, sans-serif; font-size: 50px; fill: rgb(42, 63, 95); opacity: 1; font-weight: normal; white-space: pre;"><tspan style="font-weight:bold">Creuse (23)</tspan></text></g><g class="g-xtitle"/><g class="annotation" data-index="0" style="opacity: 1;"><g class="annotation-text-g" transform="rotate(0,682.86,304.75)"><g class="cursor-pointer" transform="translate(625, 269)"><rect class="bg" x="0.5" y="0.5" width="115" height="71" style="stroke-width: 1px; stroke: rgb(0, 0, 0); stroke-opacity: 0; fill: rgb(255, 255, 255); fill-opacity: 0.6;"/><text class="annotation-text" text-anchor="middle" x="57.8125" y="55.5" style="font-family: 'Open Sans', verdana, arial, sans-serif; font-size: 50px; fill: rgb(8, 115, 191); fill-opacity: 1; white-space: pre;"> <tspan style="font-weight:bold">686 </tspan></text></g></g><g class="annotation-arrow-g" style="opacity: 1;"><path d="M711.26,340.25L722.86,354.75" style="stroke-width: 1px; stroke: rgb(8, 115, 191); stroke-opacity: 1; stroke-dasharray: 0px, 0px, 18.569px, 18.569px;"/></g></g></g></svg>