<svg class="main-svg" xmlns="http://www.w3.org/2000/svg" xmlns:xlink="http://www.w3.org/1999/xlink" width="1125" height="750" style="" viewBox="0 0 750 500"><rect x="0" y="0" width="750" height="500" style="fill: rgb(0, 0, 0); fill-opacity: 0;"/><defs id="defs-85a844"><g class="clips"><clipPath id="clip85a844xyplot" class="plotclip"><rect width="700" height="380"/></clipPath><clipPath class="axesclip" id="clip85a844x"><rect x="50" y="0" width="700" height="500"/></clipPath><clipPath class="axesclip" id="clip85a844y"><rect x="0" y="70" width="750" height="380"/></clipPath><clipPath class="axesclip" id="clip85a844xy"><rect x="50" y="70" width="700" height="380"/></clipPath></g><g class="gradients"/></defs><g class="bglayer"><rect class="bg" x="50" y="70" width="700" height="380" style="fill: rgb(0, 0, 0); fill-opacity: 0; stroke-width: 0;"/></g><g class="layer-below"><g class="imagelayer"/><g class="shapelayer"/></g><g class="cartesianlayer"><g class="subplot xy"><g class="layer-subplot"><g class="shapelayer"/><g class="imagelayer"/></g><g class="gridlayer"><g class="x"><path class="xgrid crisp" transform="translate(52.11,0)" d="M0,70v380" style="stroke: rgb(255, 255, 255); stroke-opacity: 1; stroke-width: 1px;"/><path class="xgrid crisp" transform="translate(149.4,0)" d="M0,70v380" style="stroke: rgb(255, 255, 255); stroke-opacity: 1; stroke-width: 1px;"/><path class="xgrid crisp" transform="translate(244.56,0)" d="M0,70v380" style="stroke: rgb(255, 255, 255); stroke-opacity: 1; stroke-width: 1px;"/><path class="xgrid crisp" transform="translate(340.79,0)" d="M0,70v380" style="stroke: rgb(255, 255, 255); stroke-opacity: 1; stroke-width: 1px;"/><path class="xgrid crisp" transform="translate(438.07,0)" d="M0,70v380" style="stroke: rgb(255, 255, 255); stroke-opacity: 1; stroke-width: 1px;"/><path class="xgrid crisp" transform="translate(535.35,0)" d="M0,70v380" style="stroke: rgb(255, 255, 255); stroke-opacity: 1; stroke-width: 1px;"/><path class="xgrid crisp" transform="translate(630.51,0)" d="M0,70v380" style="stroke: rgb(255, 255, 255); stroke-opacity: 1; stroke-width: 1px;"/><path class="xgrid crisp" transform="translate(726.74,0)" d="M0,70v380" style="stroke: rgb(255, 255, 255); stroke-opacity: 1; stroke-width: 1px;"/></g><g class="y"/></g><g class="zerolinelayer"/><path class="xlines-below"/><path class="ylines-below"/><g class="overlines-below"/><g class="xaxislayer-below"/><g class="yaxislayer-below"/><g class="overaxes-below"/><g class="plot" transform="translate(50, 70)" clip-path="url('#clip85a844xyplot')"><g class="scatterlayer mlayer"><g class="trace scatter tracea22b68" style="stroke-miterlimit: 2;"><g class="fills"><g><path class="js-fill" d="M682.02,380L-143.81,380L-143.81,379.94L-108.91,380L-107.85,380L-46.53,378.87L-45.47,378.56L-40.18,377.74L-39.12,377.62L-29.61,376.49L-28.55,376.11L-19.03,375.55L-17.98,375.3L-13.75,371.03L-12.69,370.97L-10.57,369.53L-9.52,369.84L-6.34,369.97L-5.29,370.03L-2.11,371.03L-1.06,371.1L0,370.34L1.06,370.72L2.11,370.72L3.17,368.09L6.34,364.95L7.4,363.57L9.52,362L10.57,359.18L12.69,353.85L13.75,353.29L15.86,351.03L16.92,351.59L17.98,349.27L19.03,348.96L20.09,346.58L21.15,346.2L24.32,347.27L25.38,344.76L27.49,348.08L28.55,347.46L30.66,347.71L31.72,347.46L32.78,352.66L33.84,352.6L34.89,352.41L35.95,353.85L39.12,355.29L40.18,359.12L41.24,360.62L42.3,365.58L43.35,366.46L44.41,369.15L46.53,369.47L47.58,370.78L48.64,372.73L49.7,371.41L50.76,373.42L51.81,373.42L53.93,373.42L54.98,374.29L57.1,374.11L58.16,374.17L62.39,373.48L63.44,374.11L64.5,373.67L65.56,371.97L69.79,372.16L70.85,371.41L71.9,371.97L72.96,373.42L77.19,372.04L78.25,372.41L82.48,373.67L83.53,373.85L85.65,373.67L86.71,373.1L87.76,372.98L88.82,374.29L91.99,372.98L93.05,370.09L95.17,367.58L96.22,367.4L98.34,367.4L99.4,363.19L100.45,364.89L101.51,363.82L102.57,363.01L103.63,360.25L105.74,360.12L106.8,362.88L108.91,363.82L109.97,364.95L112.08,365.51L113.14,365.45L115.26,364.07L116.31,364.76L119.49,361.69L120.54,361.5L121.6,360.12L122.66,360.18L127.95,362.44L129,365.33L135.35,366.02L136.4,365.51L137.46,366.89L138.52,366.64L143.81,367.65L144.86,366.77L149.09,369.72L150.15,369.72L151.21,369.97L152.27,371.28L154.38,371.03L155.44,370.97L157.55,371.03L158.61,372.29L160.73,370.91L161.78,370.47L162.84,371.41L163.9,370.78L164.95,370.91L166.01,370.03L167.07,370.59L168.13,369.72L169.18,370.34L170.24,369.15L172.36,368.78L173.41,368.21L175.53,366.83L176.59,366.83L178.7,365.39L179.76,365.83L181.87,364.64L182.93,365.33L185.05,361.75L186.1,360.87L189.27,359.87L190.33,358.87L191.39,360.37L192.45,360.56L194.56,360.37L195.62,363.51L199.85,360.56L200.91,361.88L201.96,361.75L203.02,358.37L207.25,363.32L208.31,362.88L210.42,362.5L211.48,361.13L213.6,359.31L214.65,359.31L217.82,359.37L218.88,361.75L221,364.26L222.05,364.51L223.11,365.89L224.17,365.7L229.46,368.21L230.51,368.15L232.63,369.09L233.69,368.34L234.74,368.27L235.8,370.53L242.15,370.78L243.2,369.47L245.32,371.03L246.37,371.22L247.43,373.79L248.49,374.36L254.83,374.42L255.89,375.36L260.12,376.93L261.18,376.99L269.64,379.31L270.69,379.5L278.1,379.18L279.15,379.25L285.5,379.18L286.56,378.81L291.84,378.18L292.9,377.49L295.02,376.49L296.07,375.3L298.19,374.86L299.24,372.85L300.3,371.66L301.36,372.41L303.47,367.71L304.53,366.83L305.59,366.46L306.65,364.51L308.76,357.93L309.82,357.8L311.93,355.17L312.99,354.92L315.11,350.9L316.16,350.9L317.22,351.91L318.28,350.78L320.39,352.16L321.45,351.78L322.51,353.16L323.56,352.85L324.62,351.66L325.68,353.48L327.79,352.66L328.85,350.34L330.97,349.15L332.02,347.08L334.14,344.13L335.2,343.82L336.25,344.19L337.31,342.69L338.37,342.25L339.43,343.94L340.48,343.94L341.54,344.82L342.6,344.95L343.66,347.33L347.89,354.92L348.94,354.79L351.06,356.05L352.11,357.99L357.4,360.31L358.46,361.82L361.63,363.51L362.69,365.2L365.86,365.33L366.92,366.89L372.21,368.4L373.26,370.84L374.32,370.78L375.38,371.6L377.49,373.1L378.55,373.23L381.72,373.54L382.78,374.29L385.95,375.86L387.01,375.8L390.18,376.61L391.24,375.99L396.53,376.11L397.58,374.8L406.04,377.05L407.1,376.68L412.39,376.74L413.44,376.55L416.62,375.11L417.67,375.55L422.96,371.91L424.02,371.85L426.13,366.58L427.19,365.14L428.25,366.2L429.31,365.01L431.42,365.39L432.48,363.51L433.53,363.45L434.59,362L436.71,357.24L437.76,356.42L438.82,356.23L439.88,354.42L441.99,350.65L443.05,349.09L445.17,345.83L446.22,345.76L450.45,335.04L451.51,333.53L452.57,331.84L453.63,331.59L455.74,325.76L456.8,323.06L458.91,318.86L459.97,319.17L462.08,318.23L463.14,318.99L464.2,321.12L465.26,320.99L467.37,322.56L468.43,322.87L470.54,326.89L471.6,326.14L472.66,324.57L473.72,325.57L474.77,329.27L475.83,328.2L481.12,281.55L482.18,281.36L483.23,280.42L484.29,263.49L489.58,225.24L490.63,224.68L492.75,208.31L493.81,198.53L494.86,191.13L495.92,177.08L496.98,164.29L498.04,163.48L503.32,55.75L504.38,47.66L505.44,44.77L506.5,20.19L508.61,5.96L509.67,0L512.84,2.38L513.9,12.42L517.07,50.48L518.13,64.78L519.18,73.49L520.24,72.93L524.47,154.26L525.53,168.3L527.64,179.4L528.7,203.29L532.93,248.07L533.99,253.4L535.05,254.71L536.1,271.2L540.33,302.56L541.39,306.95L542.45,307.57L543.5,312.84L544.56,316.85L545.62,313.84L547.73,317.61L548.79,317.8L549.85,317.61L550.91,319.11L551.96,321.18L553.02,325.82L555.14,326.45L556.19,327.33L557.25,327.2L558.31,323.31L559.37,322.44L560.42,319.11L564.65,311.02L565.71,304.63L568.88,283.18L569.94,278.04L571,275.53L572.05,275.91L573.11,266.88L574.17,265.75L576.28,261.3L577.34,261.74L579.46,261.61L580.51,266.56L581.57,262.8L582.63,264.62L584.74,256.28L585.8,255.34L586.86,255.53L587.92,250.2L588.97,250.83L590.03,252.39L592.15,259.1L593.2,259.1L594.26,258.41L595.32,289.2L596.37,284.12L597.43,285.82L599.55,296.73L600.6,301.93L601.66,303.18L602.72,287.07L604.83,308.7L605.89,313.72L606.95,317.17L608.01,317.98L609.06,318.55L610.12,325.63L611.18,327.7L612.24,331.9L615.41,339.99L616.47,339.12L617.52,338.8L618.58,342.88L622.81,345.83L623.87,346.51L624.92,351.91L625.98,353.29L627.04,355.04L628.1,355.04L630.21,357.61L631.27,358.12L633.38,361.69L634.44,363.07L635.5,367.08L636.56,366.46L638.67,366.14L639.73,365.2L640.79,365.26L641.84,364.26L642.9,362L643.96,362.57L646.07,361.75L647.13,365.33L648.19,362.19L649.24,361.5L651.36,357.49L652.42,357.11L653.47,357.49L654.53,350.4L655.59,350.59L656.65,349.46L660.88,346.83L661.93,342.06L664.05,338.36L665.11,334.6L667.22,326.2L668.28,325.45L674.62,272.27L675.68,271.77L677.79,242.58L678.85,228.35L680.97,222.29L682.02,222.73" style="fill: rgb(8, 115, 191); fill-opacity: 0.2; stroke-width: 0;"/></g></g><g class="errorbars"/><g class="lines"><path class="js-line" d="M-143.81,379.94L-108.91,380L-107.85,380L-46.53,378.87L-45.47,378.56L-40.18,377.74L-39.12,377.62L-29.61,376.49L-28.55,376.11L-19.03,375.55L-17.98,375.3L-13.75,371.03L-12.69,370.97L-10.57,369.53L-9.52,369.84L-6.34,369.97L-5.29,370.03L-2.11,371.03L-1.06,371.1L0,370.34L1.06,370.72L2.11,370.72L3.17,368.09L6.34,364.95L7.4,363.57L9.52,362L10.57,359.18L12.69,353.85L13.75,353.29L15.86,351.03L16.92,351.59L17.98,349.27L19.03,348.96L20.09,346.58L21.15,346.2L24.32,347.27L25.38,344.76L27.49,348.08L28.55,347.46L30.66,347.71L31.72,347.46L32.78,352.66L33.84,352.6L34.89,352.41L35.95,353.85L39.12,355.29L40.18,359.12L41.24,360.62L42.3,365.58L43.35,366.46L44.41,369.15L46.53,369.47L47.58,370.78L48.64,372.73L49.7,371.41L50.76,373.42L51.81,373.42L53.93,373.42L54.98,374.29L57.1,374.11L58.16,374.17L62.39,373.48L63.44,374.11L64.5,373.67L65.56,371.97L69.79,372.16L70.85,371.41L71.9,371.97L72.96,373.42L77.19,372.04L78.25,372.41L82.48,373.67L83.53,373.85L85.65,373.67L86.71,373.1L87.76,372.98L88.82,374.29L91.99,372.98L93.05,370.09L95.17,367.58L96.22,367.4L98.34,367.4L99.4,363.19L100.45,364.89L101.51,363.82L102.57,363.01L103.63,360.25L105.74,360.12L106.8,362.88L108.91,363.82L109.97,364.95L112.08,365.51L113.14,365.45L115.26,364.07L116.31,364.76L119.49,361.69L120.54,361.5L121.6,360.12L122.66,360.18L127.95,362.44L129,365.33L135.35,366.02L136.4,365.51L137.46,366.89L138.52,366.64L143.81,367.65L144.86,366.77L149.09,369.72L150.15,369.72L151.21,369.97L152.27,371.28L154.38,371.03L155.44,370.97L157.55,371.03L158.61,372.29L160.73,370.91L161.78,370.47L162.84,371.41L163.9,370.78L164.95,370.91L166.01,370.03L167.07,370.59L168.13,369.72L169.18,370.34L170.24,369.15L172.36,368.78L173.41,368.21L175.53,366.83L176.59,366.83L178.7,365.39L179.76,365.83L181.87,364.64L182.93,365.33L185.05,361.75L186.1,360.87L189.27,359.87L190.33,358.87L191.39,360.37L192.45,360.56L194.56,360.37L195.62,363.51L199.85,360.56L200.91,361.88L201.96,361.75L203.02,358.37L207.25,363.32L208.31,362.88L210.42,362.5L211.48,361.13L213.6,359.31L214.65,359.31L217.82,359.37L218.88,361.75L221,364.26L222.05,364.51L223.11,365.89L224.17,365.7L229.46,368.21L230.51,368.15L232.63,369.09L233.69,368.34L234.74,368.27L235.8,370.53L242.15,370.78L243.2,369.47L245.32,371.03L246.37,371.22L247.43,373.79L248.49,374.36L254.83,374.42L255.89,375.36L260.12,376.93L261.18,376.99L269.64,379.31L270.69,379.5L278.1,379.18L279.15,379.25L285.5,379.18L286.56,378.81L291.84,378.18L292.9,377.49L295.02,376.49L296.07,375.3L298.19,374.86L299.24,372.85L300.3,371.66L301.36,372.41L303.47,367.71L304.53,366.83L305.59,366.46L306.65,364.51L308.76,357.93L309.82,357.8L311.93,355.17L312.99,354.92L315.11,350.9L316.16,350.9L317.22,351.91L318.28,350.78L320.39,352.16L321.45,351.78L322.51,353.16L323.56,352.85L324.62,351.66L325.68,353.48L327.79,352.66L328.85,350.34L330.97,349.15L332.02,347.08L334.14,344.13L335.2,343.82L336.25,344.19L337.31,342.69L338.37,342.25L339.43,343.94L340.48,343.94L341.54,344.82L342.6,344.95L343.66,347.33L347.89,354.92L348.94,354.79L351.06,356.05L352.11,357.99L357.4,360.31L358.46,361.82L361.63,363.51L362.69,365.2L365.86,365.33L366.92,366.89L372.21,368.4L373.26,370.84L374.32,370.78L375.38,371.6L377.49,373.1L378.55,373.23L381.72,373.54L382.78,374.29L385.95,375.86L387.01,375.8L390.18,376.61L391.24,375.99L396.53,376.11L397.58,374.8L406.04,377.05L407.1,376.68L412.39,376.74L413.44,376.55L416.62,375.11L417.67,375.55L422.96,371.91L424.02,371.85L426.13,366.58L427.19,365.14L428.25,366.2L429.31,365.01L431.42,365.39L432.48,363.51L433.53,363.45L434.59,362L436.71,357.24L437.76,356.42L438.82,356.23L439.88,354.42L441.99,350.65L443.05,349.09L445.17,345.83L446.22,345.76L450.45,335.04L451.51,333.53L452.57,331.84L453.63,331.59L455.74,325.76L456.8,323.06L458.91,318.86L459.97,319.17L462.08,318.23L463.14,318.99L464.2,321.12L465.26,320.99L467.37,322.56L468.43,322.87L470.54,326.89L471.6,326.14L472.66,324.57L473.72,325.57L474.77,329.27L475.83,328.2L481.12,281.55L482.18,281.36L483.23,280.42L484.29,263.49L489.58,225.24L490.63,224.68L492.75,208.31L493.81,198.53L494.86,191.13L495.92,177.08L496.98,164.29L498.04,163.48L503.32,55.75L504.38,47.66L505.44,44.77L506.5,20.19L508.61,5.96L509.67,0L512.84,2.38L513.9,12.42L517.07,50.48L518.13,64.78L519.18,73.49L520.24,72.93L524.47,154.26L525.53,168.3L527.64,179.4L528.7,203.29L532.93,248.07L533.99,253.4L535.05,254.71L536.1,271.2L540.33,302.56L541.39,306.95L542.45,307.57L543.5,312.84L544.56,316.85L545.62,313.84L547.73,317.61L548.79,317.8L549.85,317.61L550.91,319.11L551.96,321.18L553.02,325.82L555.14,326.45L556.19,327.33L557.25,327.2L558.31,323.31L559.37,322.44L560.42,319.11L564.65,311.02L565.71,304.63L568.88,283.18L569.94,278.04L571,275.53L572.05,275.91L573.11,266.88L574.17,265.75L576.28,261.3L577.34,261.74L579.46,261.61L580.51,266.56L581.57,262.8L582.63,264.62L584.74,256.28L585.8,255.34L586.86,255.53L587.92,250.2L588.97,250.83L590.03,252.39L592.15,259.1L593.2,259.1L594.26,258.41L595.32,289.2L596.37,284.12L597.43,285.82L599.55,296.73L600.6,301.93L601.66,303.18L602.72,287.07L604.83,308.7L605.89,313.72L606.95,317.17L608.01,317.98L609.06,318.55L610.12,325.63L611.18,327.7L612.24,331.9L615.41,339.99L616.47,339.12L617.52,338.8L618.58,342.88L622.81,345.83L623.87,346.51L624.92,351.91L625.98,353.29L627.04,355.04L628.1,355.04L630.21,357.61L631.27,358.12L633.38,361.69L634.44,363.07L635.5,367.08L636.56,366.46L638.67,366.14L639.73,365.2L640.79,365.26L641.84,364.26L642.9,362L643.96,362.57L646.07,361.75L647.13,365.33L648.19,362.19L649.24,361.5L651.36,357.49L652.42,357.11L653.47,357.49L654.53,350.4L655.59,350.59L656.65,349.46L660.88,346.83L661.93,342.06L664.05,338.36L665.11,334.6L667.22,326.2L668.28,325.45L674.62,272.27L675.68,271.77L677.79,242.58L678.85,228.35L680.97,222.29L682.02,222.73" style="vector-effect: non-scaling-stroke; fill: none; stroke: rgb(8, 115, 191); stroke-opacity: 1; stroke-width: 0.5px; opacity: 1;"/></g><g class="points"/><g class="text"/></g><g class="trace scatter trace10e938" style="stroke-miterlimit: 2;"><g class="fills"><g><path class="js-fill" d="M692.6,380L682.02,380L682.02,222.73L683.08,222.29L684.14,232.59L686.25,252L687.31,272.97L688.37,268.98L689.43,272.41L690.48,272.78L691.54,280.83L692.6,285.89" style="fill: rgb(8, 115, 191); fill-opacity: 0.4; stroke-width: 0;"/></g></g><g class="errorbars"/><g class="lines"><path class="js-line" d="M682.02,222.73L683.08,222.29L684.14,232.59L686.25,252L687.31,272.97L688.37,268.98L689.43,272.41L690.48,272.78L691.54,280.83L692.6,285.89" style="vector-effect: non-scaling-stroke; fill: none; stroke: rgb(8, 115, 191); stroke-opacity: 1; stroke-width: 2px; opacity: 1;"/></g><g class="points"/><g class="text"/></g><g class="trace scatter trace8e31ff" style="stroke-miterlimit: 2; opacity: 1;"><g class="fills"/><g class="errorbars"/><g class="lines"/><g class="points"><path class="point" transform="translate(692.6,285.89)" d="M15,0A15,15 0 1,1 0,-15A15,15 0 0,1 15,0Z" style="opacity: 1; stroke-width: 0px; fill: rgb(8, 115, 191); fill-opacity: 1;"/></g><g class="text"/></g></g></g><g class="overplot"/><path class="xlines-above crisp" style="fill: none; stroke-width: 1px; stroke: rgb(0, 0, 0); stroke-opacity: 0;" d=""/><path class="ylines-above crisp" style="fill: none;" d="M0,0"/><g class="overlines-above"/><g class="xaxislayer-above"><path class="xtick ticks crisp" d="M0,450v-5" transform="translate(52.11,0)" style="stroke: rgb(68, 68, 68); stroke-opacity: 1; stroke-width: 1px;"/><path class="xtick ticks crisp" d="M0,450v-5" transform="translate(149.4,0)" style="stroke: rgb(68, 68, 68); stroke-opacity: 1; stroke-width: 1px;"/><path class="xtick ticks crisp" d="M0,450v-5" transform="translate(244.56,0)" style="stroke: rgb(68, 68, 68); stroke-opacity: 1; stroke-width: 1px;"/><path class="xtick ticks crisp" d="M0,450v-5" transform="translate(340.79,0)" style="stroke: rgb(68, 68, 68); stroke-opacity: 1; stroke-width: 1px;"/><path class="xtick ticks crisp" d="M0,450v-5" transform="translate(438.07,0)" style="stroke: rgb(68, 68, 68); stroke-opacity: 1; stroke-width: 1px;"/><path class="xtick ticks crisp" d="M0,450v-5" transform="translate(535.35,0)" style="stroke: rgb(68, 68, 68); stroke-opacity: 1; stroke-width: 1px;"/><path class="xtick ticks crisp" d="M0,450v-5" transform="translate(630.51,0)" style="stroke: rgb(68, 68, 68); stroke-opacity: 1; stroke-width: 1px;"/><path class="xtick ticks crisp" d="M0,450v-5" transform="translate(726.74,0)" style="stroke: rgb(68, 68, 68); stroke-opacity: 1; stroke-width: 1px;"/><g class="xtick"><text text-anchor="middle" x="0" y="469" transform="translate(52.11,0)" style="font-family: 'Open Sans', verdana, arial, sans-serif; font-size: 18px; fill: rgb(42, 63, 95); fill-opacity: 1; white-space: pre;">01/10</text></g><g class="xtick"><text text-anchor="middle" x="0" y="469" transform="translate(149.4,0)" style="font-family: 'Open Sans', verdana, arial, sans-serif; font-size: 18px; fill: rgb(42, 63, 95); fill-opacity: 1; white-space: pre;">01/01</text></g><g class="xtick"><text text-anchor="middle" x="0" y="469" transform="translate(244.56,0)" style="font-family: 'Open Sans', verdana, arial, sans-serif; font-size: 18px; fill: rgb(42, 63, 95); fill-opacity: 1; white-space: pre;">01/04</text></g><g class="xtick"><text text-anchor="middle" x="0" y="469" transform="translate(340.79,0)" style="font-family: 'Open Sans', verdana, arial, sans-serif; font-size: 18px; fill: rgb(42, 63, 95); fill-opacity: 1; white-space: pre;">01/07</text></g><g class="xtick"><text text-anchor="middle" x="0" y="469" transform="translate(438.07,0)" style="font-family: 'Open Sans', verdana, arial, sans-serif; font-size: 18px; fill: rgb(42, 63, 95); fill-opacity: 1; white-space: pre;">01/10</text></g><g class="xtick"><text text-anchor="middle" x="0" y="469" transform="translate(535.35,0)" style="font-family: 'Open Sans', verdana, arial, sans-serif; font-size: 18px; fill: rgb(42, 63, 95); fill-opacity: 1; white-space: pre;">01/01</text></g><g class="xtick"><text text-anchor="middle" x="0" y="469" transform="translate(630.51,0)" style="font-family: 'Open Sans', verdana, arial, sans-serif; font-size: 18px; fill: rgb(42, 63, 95); fill-opacity: 1; white-space: pre;">01/04</text></g><g class="xtick"><text text-anchor="middle" x="0" y="469" transform="translate(726.74,0)" style="font-family: 'Open Sans', verdana, arial, sans-serif; font-size: 18px; fill: rgb(42, 63, 95); fill-opacity: 1; white-space: pre;">01/07</text></g></g><g class="yaxislayer-above"/><g class="overaxes-above"/></g></g><g class="polarlayer"/><g class="ternarylayer"/><g class="geolayer"/><g class="funnelarealayer"/><g class="pielayer"/><g class="treemaplayer"/><g class="sunburstlayer"/><g class="glimages"/><defs id="topdefs-85a844"><g class="clips"/></defs><g class="layer-above"><g class="imagelayer"/><g class="shapelayer"><path data-index="0" fill-rule="evenodd" d="M-544.26,445.22L228.7,445.22" clip-path="url('#clip85a844xy')" style="opacity: 1; stroke: rgb(255, 0, 0); stroke-opacity: 1; fill: rgb(0, 0, 0); fill-opacity: 0; stroke-dasharray: 3px, 3px; stroke-width: 1.5px;"/></g></g><g class="infolayer"><g class="g-gtitle"><text class="gtitle" x="375" y="25" text-anchor="middle" dy="0.7em" style="font-family: 'Open Sans', verdana, arial, sans-serif; font-size: 50px; fill: rgb(42, 63, 95); opacity: 1; font-weight: normal; white-space: pre;"><tspan style="font-weight:bold">Ariège (09)</tspan></text></g><g class="g-xtitle"/><g class="annotation" data-index="0" style="opacity: 1;"><g class="annotation-text-g" transform="rotate(0,700.6,295.89)"><g class="cursor-pointer" transform="translate(643, 260)"><rect class="bg" x="0.5" y="0.5" width="115" height="71" style="stroke-width: 1px; stroke: rgb(0, 0, 0); stroke-opacity: 0; fill: rgb(255, 255, 255); fill-opacity: 0.6;"/><text class="annotation-text" text-anchor="middle" x="57.8125" y="55.5" style="font-family: 'Open Sans', verdana, arial, sans-serif; font-size: 50px; fill: rgb(8, 115, 191); fill-opacity: 1; white-space: pre;"> <tspan style="font-weight:bold">984 </tspan></text></g></g><g class="annotation-arrow-g" style="opacity: 1;"><path d="M729,331.39L740.6,345.89" style="stroke-width: 1px; stroke: rgb(8, 115, 191); stroke-opacity: 1; stroke-dasharray: 0px, 0px, 18.569px, 18.569px;"/></g></g></g></svg>