<svg class="main-svg" xmlns="http://www.w3.org/2000/svg" xmlns:xlink="http://www.w3.org/1999/xlink" width="1125" height="750" style="" viewBox="0 0 750 500"><rect x="0" y="0" width="750" height="500" style="fill: rgb(0, 0, 0); fill-opacity: 0;"/><defs id="defs-5a1278"><g class="clips"><clipPath id="clip5a1278xyplot" class="plotclip"><rect width="700" height="380"/></clipPath><clipPath class="axesclip" id="clip5a1278x"><rect x="50" y="0" width="700" height="500"/></clipPath><clipPath class="axesclip" id="clip5a1278y"><rect x="0" y="70" width="750" height="380"/></clipPath><clipPath class="axesclip" id="clip5a1278xy"><rect x="50" y="70" width="700" height="380"/></clipPath></g><g class="gradients"/></defs><g class="bglayer"><rect class="bg" x="50" y="70" width="700" height="380" style="fill: rgb(0, 0, 0); fill-opacity: 0; stroke-width: 0;"/></g><g class="layer-below"><g class="imagelayer"/><g class="shapelayer"/></g><g class="cartesianlayer"><g class="subplot xy"><g class="layer-subplot"><g class="shapelayer"/><g class="imagelayer"/></g><g class="gridlayer"><g class="x"><path class="xgrid crisp" transform="translate(101.78999999999999,0)" d="M0,70v380" style="stroke: rgb(255, 255, 255); stroke-opacity: 1; stroke-width: 1px;"/><path class="xgrid crisp" transform="translate(197.53,0)" d="M0,70v380" style="stroke: rgb(255, 255, 255); stroke-opacity: 1; stroke-width: 1px;"/><path class="xgrid crisp" transform="translate(290.13,0)" d="M0,70v380" style="stroke: rgb(255, 255, 255); stroke-opacity: 1; stroke-width: 1px;"/><path class="xgrid crisp" transform="translate(385.87,0)" d="M0,70v380" style="stroke: rgb(255, 255, 255); stroke-opacity: 1; stroke-width: 1px;"/><path class="xgrid crisp" transform="translate(481.61,0)" d="M0,70v380" style="stroke: rgb(255, 255, 255); stroke-opacity: 1; stroke-width: 1px;"/><path class="xgrid crisp" transform="translate(578.92,0)" d="M0,70v380" style="stroke: rgb(255, 255, 255); stroke-opacity: 1; stroke-width: 1px;"/><path class="xgrid crisp" transform="translate(674.66,0)" d="M0,70v380" style="stroke: rgb(255, 255, 255); stroke-opacity: 1; stroke-width: 1px;"/></g><g class="y"/></g><g class="zerolinelayer"/><path class="xlines-below"/><path class="ylines-below"/><g class="overlines-below"/><g class="xaxislayer-below"/><g class="yaxislayer-below"/><g class="overaxes-below"/><g class="plot" transform="translate(50, 70)" clip-path="url('#clip5a1278xyplot')"><g class="scatterlayer mlayer"><g class="trace scatter trace6e6f76" style="stroke-miterlimit: 2;"><g class="fills"><g><path class="js-fill" d="M673.32,380L-213.45,380L-213.45,376.75L-200.9,378.9L-199.33,378.8L-177.35,378.35L-175.78,377.7L-150.67,377.5L-149.1,377.5L-117.71,377.15L-116.14,376.2L-106.73,371.8L-105.16,372.05L-94.17,366.86L-92.6,364.71L-84.75,358.71L-83.18,359.06L-73.77,353.06L-72.2,349.66L-69.06,345.66L-67.49,344.86L-62.78,341.62L-61.21,339.97L-56.5,337.37L-54.93,337.37L-51.79,335.52L-50.22,335.02L-47.09,328.42L-45.52,317.52L-43.95,312.58L-42.38,312.93L-40.81,312.68L-39.24,302.33L-32.96,269.29L-31.39,266.89L-29.82,266.54L-28.25,253.15L-23.54,225.06L-21.97,214.37L-18.83,206.52L-17.26,208.92L-15.7,206.57L-14.13,210.02L-10.99,227.31L-9.42,229.36L-7.85,230.31L-6.28,238.06L-3.14,250.1L-1.57,251.8L0,247.95L1.57,246.8L3.14,246.9L4.71,241.85L6.28,242.55L7.85,237.36L10.99,225.91L12.56,222.91L14.13,217.31L15.7,207.22L17.26,195.17L18.83,193.87L21.97,176.98L23.54,173.18L25.11,173.43L26.68,162.69L28.25,151.64L29.82,131.6L31.39,122.3L32.96,106.51L34.53,102.76L36.1,96.66L37.67,91.56L39.24,90.61L42.38,102.66L43.95,114.35L45.52,115.95L47.09,114.65L50.22,124.25L51.79,132.9L53.36,137.8L54.93,147.44L56.5,153.89L58.07,164.83L61.21,195.67L62.78,226.16L64.35,234.06L65.92,247.4L69.06,257.15L70.63,271.59L72.2,283.59L73.77,277.99L76.91,304.48L78.48,307.48L80.04,307.93L81.61,316.87L83.18,321.67L84.75,323.82L87.89,330.77L89.46,330.52L92.6,333.22L94.17,333.02L98.88,337.77L100.45,338.72L102.02,338.52L103.59,340.07L105.16,342.31L106.73,342.51L108.3,340.77L109.87,340.42L113,339.12L114.57,338.12L117.71,336.97L119.28,334.42L122.42,332.32L123.99,333.82L128.7,324.37L130.27,325.27L131.84,333.52L133.41,332.62L138.12,327.32L139.69,322.32L141.26,318.82L142.83,318.02L144.39,315.28L145.96,314.58L149.1,297.58L150.67,292.58L152.24,287.74L153.81,272.14L156.95,270.34L158.52,265.55L160.09,264.65L161.66,265.5L166.37,251.1L167.94,251.15L171.08,244.05L172.65,238.81L174.22,237.06L175.78,231.31L177.35,234.56L178.92,234.16L180.49,227.21L182.06,224.16L183.63,222.71L185.2,215.46L188.34,208.82L189.91,202.47L191.48,201.62L193.05,202.22L194.62,202.67L196.19,206.92L200.9,220.01L202.47,227.66L207.17,244.9L208.74,248.85L210.31,249.05L211.88,251L215.02,259.5L216.59,258.5L219.73,262.8L221.3,262L224.44,262.35L226.01,260.85L227.58,262.25L229.15,261.8L230.72,261.45L232.29,263.65L233.86,263.95L235.43,266.19L237,267.79L238.57,268.19L241.7,275.49L243.27,274.39L244.84,274.54L246.41,277.29L249.55,284.64L251.12,286.64L252.69,287.14L254.26,289.14L257.4,287.49L258.97,282.19L262.11,272.39L263.68,263.45L266.82,259.5L268.39,250.1L273.09,223.56L274.66,220.71L276.23,217.26L277.8,218.01L282.51,205.62L284.08,203.72L285.65,200.42L287.22,199.87L288.79,198.52L290.36,228.56L291.93,222.31L293.5,228.21L295.07,236.26L296.64,240.06L298.21,239.86L299.78,241L301.35,221.36L302.91,233.86L309.19,251.15L310.76,250.9L312.33,247.5L313.9,249.35L318.61,248.1L320.18,246.55L321.75,247.85L323.32,253.45L329.6,269.39L331.17,279.34L332.74,278.19L334.3,284.74L335.87,290.29L337.44,292.08L340.58,299.43L342.15,298.63L343.72,300.58L345.29,299.33L346.86,299.93L348.43,303.48L350,315.03L351.57,315.73L354.71,311.83L356.28,316.58L359.42,314.88L360.99,308.03L362.56,308.98L364.13,308.23L365.7,309.43L367.26,319.57L368.83,318.57L370.4,321.77L373.54,320.47L375.11,320.52L376.68,321.27L378.25,311.08L379.82,315.88L381.39,315.83L382.96,317.27L384.53,321.82L386.1,325.17L387.67,325.72L390.81,337.57L392.38,342.31L395.52,349.76L397.09,351.36L398.65,352.21L400.22,354.06L404.93,358.06L406.5,358.26L411.21,358.71L412.78,359.46L417.49,360.76L419.06,361.16L423.77,361.01L425.34,358.61L426.91,357.96L428.48,356.36L431.61,354.21L433.18,352.11L436.32,345.16L437.89,339.62L441.03,331.02L442.6,329.67L445.74,312.68L447.31,314.73L452.02,263.15L453.59,255.8L458.3,135.6L459.87,119L461.43,92.96L463,81.57L464.57,79.07L466.14,52.63L467.71,40.13L469.28,43.53L470.85,40.88L472.42,47.43L475.56,55.28L477.13,70.87L478.7,83.52L480.27,85.87L481.84,93.91L483.41,96.91L484.98,99.16L486.55,99.66L491.26,120.85L492.83,121.5L494.39,129.7L495.96,131.8L497.53,133L499.1,142.09L503.81,182.33L505.38,188.58L506.95,196.62L508.52,197.82L511.66,217.31L513.23,223.66L517.94,247.25L519.51,249.75L522.65,269.84L524.22,275.09L527.35,287.34L528.92,289.34L530.49,291.43L532.06,297.73L538.34,319.32L539.91,321.42L541.48,321.72L543.05,328.42L546.19,333.87L547.76,335.72L554.04,341.82L555.61,342.11L557.17,344.46L558.74,343.81L560.31,343.66L561.88,342.41L563.45,342.26L565.02,343.86L571.3,351.16L572.87,353.31L574.44,353.11L576.01,355.21L582.29,359.31L583.86,359.51L587,361.11L588.57,360.66L590.13,361.31L591.7,360.01L593.27,359.96L594.84,360.71L597.98,358.91L599.55,357.66L602.69,353.26L604.26,351.41L605.83,349.66L607.4,349.81L610.54,349.16L612.11,349.61L613.68,349.61L615.25,348.01L618.39,345.86L619.96,350.71L621.52,344.86L623.09,343.01L627.8,337.12L629.37,337.07L630.94,326.02L632.51,325.92L634.08,321.87L635.65,327.02L637.22,321.22L638.79,319.27L640.36,318.07L641.93,307.53L645.07,292.33L646.64,277.24L649.78,265.15L651.35,262.65L656.05,223.56L657.62,203.37L660.76,164.24L662.33,158.09L665.47,106.31L667.04,85.47L670.18,53.13L671.75,47.43L673.32,47.28" style="fill: rgb(8, 115, 191); fill-opacity: 0.2; stroke-width: 0;"/></g></g><g class="errorbars"/><g class="lines"><path class="js-line" d="M-213.45,376.75L-200.9,378.9L-199.33,378.8L-177.35,378.35L-175.78,377.7L-150.67,377.5L-149.1,377.5L-117.71,377.15L-116.14,376.2L-106.73,371.8L-105.16,372.05L-94.17,366.86L-92.6,364.71L-84.75,358.71L-83.18,359.06L-73.77,353.06L-72.2,349.66L-69.06,345.66L-67.49,344.86L-62.78,341.62L-61.21,339.97L-56.5,337.37L-54.93,337.37L-51.79,335.52L-50.22,335.02L-47.09,328.42L-45.52,317.52L-43.95,312.58L-42.38,312.93L-40.81,312.68L-39.24,302.33L-32.96,269.29L-31.39,266.89L-29.82,266.54L-28.25,253.15L-23.54,225.06L-21.97,214.37L-18.83,206.52L-17.26,208.92L-15.7,206.57L-14.13,210.02L-10.99,227.31L-9.42,229.36L-7.85,230.31L-6.28,238.06L-3.14,250.1L-1.57,251.8L0,247.95L1.57,246.8L3.14,246.9L4.71,241.85L6.28,242.55L7.85,237.36L10.99,225.91L12.56,222.91L14.13,217.31L15.7,207.22L17.26,195.17L18.83,193.87L21.97,176.98L23.54,173.18L25.11,173.43L26.68,162.69L28.25,151.64L29.82,131.6L31.39,122.3L32.96,106.51L34.53,102.76L36.1,96.66L37.67,91.56L39.24,90.61L42.38,102.66L43.95,114.35L45.52,115.95L47.09,114.65L50.22,124.25L51.79,132.9L53.36,137.8L54.93,147.44L56.5,153.89L58.07,164.83L61.21,195.67L62.78,226.16L64.35,234.06L65.92,247.4L69.06,257.15L70.63,271.59L72.2,283.59L73.77,277.99L76.91,304.48L78.48,307.48L80.04,307.93L81.61,316.87L83.18,321.67L84.75,323.82L87.89,330.77L89.46,330.52L92.6,333.22L94.17,333.02L98.88,337.77L100.45,338.72L102.02,338.52L103.59,340.07L105.16,342.31L106.73,342.51L108.3,340.77L109.87,340.42L113,339.12L114.57,338.12L117.71,336.97L119.28,334.42L122.42,332.32L123.99,333.82L128.7,324.37L130.27,325.27L131.84,333.52L133.41,332.62L138.12,327.32L139.69,322.32L141.26,318.82L142.83,318.02L144.39,315.28L145.96,314.58L149.1,297.58L150.67,292.58L152.24,287.74L153.81,272.14L156.95,270.34L158.52,265.55L160.09,264.65L161.66,265.5L166.37,251.1L167.94,251.15L171.08,244.05L172.65,238.81L174.22,237.06L175.78,231.31L177.35,234.56L178.92,234.16L180.49,227.21L182.06,224.16L183.63,222.71L185.2,215.46L188.34,208.82L189.91,202.47L191.48,201.62L193.05,202.22L194.62,202.67L196.19,206.92L200.9,220.01L202.47,227.66L207.17,244.9L208.74,248.85L210.31,249.05L211.88,251L215.02,259.5L216.59,258.5L219.73,262.8L221.3,262L224.44,262.35L226.01,260.85L227.58,262.25L229.15,261.8L230.72,261.45L232.29,263.65L233.86,263.95L235.43,266.19L237,267.79L238.57,268.19L241.7,275.49L243.27,274.39L244.84,274.54L246.41,277.29L249.55,284.64L251.12,286.64L252.69,287.14L254.26,289.14L257.4,287.49L258.97,282.19L262.11,272.39L263.68,263.45L266.82,259.5L268.39,250.1L273.09,223.56L274.66,220.71L276.23,217.26L277.8,218.01L282.51,205.62L284.08,203.72L285.65,200.42L287.22,199.87L288.79,198.52L290.36,228.56L291.93,222.31L293.5,228.21L295.07,236.26L296.64,240.06L298.21,239.86L299.78,241L301.35,221.36L302.91,233.86L309.19,251.15L310.76,250.9L312.33,247.5L313.9,249.35L318.61,248.1L320.18,246.55L321.75,247.85L323.32,253.45L329.6,269.39L331.17,279.34L332.74,278.19L334.3,284.74L335.87,290.29L337.44,292.08L340.58,299.43L342.15,298.63L343.72,300.58L345.29,299.33L346.86,299.93L348.43,303.48L350,315.03L351.57,315.73L354.71,311.83L356.28,316.58L359.42,314.88L360.99,308.03L362.56,308.98L364.13,308.23L365.7,309.43L367.26,319.57L368.83,318.57L370.4,321.77L373.54,320.47L375.11,320.52L376.68,321.27L378.25,311.08L379.82,315.88L381.39,315.83L382.96,317.27L384.53,321.82L386.1,325.17L387.67,325.72L390.81,337.57L392.38,342.31L395.52,349.76L397.09,351.36L398.65,352.21L400.22,354.06L404.93,358.06L406.5,358.26L411.21,358.71L412.78,359.46L417.49,360.76L419.06,361.16L423.77,361.01L425.34,358.61L426.91,357.96L428.48,356.36L431.61,354.21L433.18,352.11L436.32,345.16L437.89,339.62L441.03,331.02L442.6,329.67L445.74,312.68L447.31,314.73L452.02,263.15L453.59,255.8L458.3,135.6L459.87,119L461.43,92.96L463,81.57L464.57,79.07L466.14,52.63L467.71,40.13L469.28,43.53L470.85,40.88L472.42,47.43L475.56,55.28L477.13,70.87L478.7,83.52L480.27,85.87L481.84,93.91L483.41,96.91L484.98,99.16L486.55,99.66L491.26,120.85L492.83,121.5L494.39,129.7L495.96,131.8L497.53,133L499.1,142.09L503.81,182.33L505.38,188.58L506.95,196.62L508.52,197.82L511.66,217.31L513.23,223.66L517.94,247.25L519.51,249.75L522.65,269.84L524.22,275.09L527.35,287.34L528.92,289.34L530.49,291.43L532.06,297.73L538.34,319.32L539.91,321.42L541.48,321.72L543.05,328.42L546.19,333.87L547.76,335.72L554.04,341.82L555.61,342.11L557.17,344.46L558.74,343.81L560.31,343.66L561.88,342.41L563.45,342.26L565.02,343.86L571.3,351.16L572.87,353.31L574.44,353.11L576.01,355.21L582.29,359.31L583.86,359.51L587,361.11L588.57,360.66L590.13,361.31L591.7,360.01L593.27,359.96L594.84,360.71L597.98,358.91L599.55,357.66L602.69,353.26L604.26,351.41L605.83,349.66L607.4,349.81L610.54,349.16L612.11,349.61L613.68,349.61L615.25,348.01L618.39,345.86L619.96,350.71L621.52,344.86L623.09,343.01L627.8,337.12L629.37,337.07L630.94,326.02L632.51,325.92L634.08,321.87L635.65,327.02L637.22,321.22L638.79,319.27L640.36,318.07L641.93,307.53L645.07,292.33L646.64,277.24L649.78,265.15L651.35,262.65L656.05,223.56L657.62,203.37L660.76,164.24L662.33,158.09L665.47,106.31L667.04,85.47L670.18,53.13L671.75,47.43L673.32,47.28" style="vector-effect: non-scaling-stroke; fill: none; stroke: rgb(8, 115, 191); stroke-opacity: 1; stroke-width: 0.5px; opacity: 1;"/></g><g class="points"/><g class="text"/></g><g class="trace scatter trace729421" style="stroke-miterlimit: 2;"><g class="fills"><g><path class="js-fill" d="M689.01,380L673.32,380L673.32,47.28L676.46,17.29L678.03,7.95L679.6,0.2L681.17,1.9L682.74,0L684.3,0.55L687.44,6.65L689.01,16.94" style="fill: rgb(8, 115, 191); fill-opacity: 0.4; stroke-width: 0;"/></g></g><g class="errorbars"/><g class="lines"><path class="js-line" d="M673.32,47.28L676.46,17.29L678.03,7.95L679.6,0.2L681.17,1.9L682.74,0L684.3,0.55L687.44,6.65L689.01,16.94" style="vector-effect: non-scaling-stroke; fill: none; stroke: rgb(8, 115, 191); stroke-opacity: 1; stroke-width: 2px; opacity: 1;"/></g><g class="points"/><g class="text"/></g><g class="trace scatter trace0a9632" style="stroke-miterlimit: 2; opacity: 1;"><g class="fills"/><g class="errorbars"/><g class="lines"/><g class="points"><path class="point" transform="translate(689.01,16.94)" d="M15,0A15,15 0 1,1 0,-15A15,15 0 0,1 15,0Z" style="opacity: 1; stroke-width: 0px; fill: rgb(8, 115, 191); fill-opacity: 1;"/></g><g class="text"/></g></g></g><g class="overplot"/><path class="xlines-above crisp" style="fill: none; stroke-width: 1px; stroke: rgb(0, 0, 0); stroke-opacity: 0;" d=""/><path class="ylines-above crisp" style="fill: none;" d="M0,0"/><g class="overlines-above"/><g class="xaxislayer-above"><path class="xtick ticks crisp" d="M0,450v-5" transform="translate(101.78999999999999,0)" style="stroke: rgb(68, 68, 68); stroke-opacity: 1; stroke-width: 1px;"/><path class="xtick ticks crisp" d="M0,450v-5" transform="translate(197.53,0)" style="stroke: rgb(68, 68, 68); stroke-opacity: 1; stroke-width: 1px;"/><path class="xtick ticks crisp" d="M0,450v-5" transform="translate(290.13,0)" style="stroke: rgb(68, 68, 68); stroke-opacity: 1; stroke-width: 1px;"/><path class="xtick ticks crisp" d="M0,450v-5" transform="translate(385.87,0)" style="stroke: rgb(68, 68, 68); stroke-opacity: 1; stroke-width: 1px;"/><path class="xtick ticks crisp" d="M0,450v-5" transform="translate(481.61,0)" style="stroke: rgb(68, 68, 68); stroke-opacity: 1; stroke-width: 1px;"/><path class="xtick ticks crisp" d="M0,450v-5" transform="translate(578.92,0)" style="stroke: rgb(68, 68, 68); stroke-opacity: 1; stroke-width: 1px;"/><path class="xtick ticks crisp" d="M0,450v-5" transform="translate(674.66,0)" style="stroke: rgb(68, 68, 68); stroke-opacity: 1; stroke-width: 1px;"/><g class="xtick"><text text-anchor="middle" x="0" y="469" transform="translate(101.78999999999999,0)" style="font-family: 'Open Sans', verdana, arial, sans-serif; font-size: 18px; fill: rgb(42, 63, 95); fill-opacity: 1; white-space: pre;">01/11</text></g><g class="xtick"><text text-anchor="middle" x="0" y="469" transform="translate(197.53,0)" style="font-family: 'Open Sans', verdana, arial, sans-serif; font-size: 18px; fill: rgb(42, 63, 95); fill-opacity: 1; white-space: pre;">01/01</text></g><g class="xtick"><text text-anchor="middle" x="0" y="469" transform="translate(290.13,0)" style="font-family: 'Open Sans', verdana, arial, sans-serif; font-size: 18px; fill: rgb(42, 63, 95); fill-opacity: 1; white-space: pre;">01/03</text></g><g class="xtick"><text text-anchor="middle" x="0" y="469" transform="translate(385.87,0)" style="font-family: 'Open Sans', verdana, arial, sans-serif; font-size: 18px; fill: rgb(42, 63, 95); fill-opacity: 1; white-space: pre;">01/05</text></g><g class="xtick"><text text-anchor="middle" x="0" y="469" transform="translate(481.61,0)" style="font-family: 'Open Sans', verdana, arial, sans-serif; font-size: 18px; fill: rgb(42, 63, 95); fill-opacity: 1; white-space: pre;">01/07</text></g><g class="xtick"><text text-anchor="middle" x="0" y="469" transform="translate(578.92,0)" style="font-family: 'Open Sans', verdana, arial, sans-serif; font-size: 18px; fill: rgb(42, 63, 95); fill-opacity: 1; white-space: pre;">01/09</text></g><g class="xtick"><text text-anchor="middle" x="0" y="469" transform="translate(674.66,0)" style="font-family: 'Open Sans', verdana, arial, sans-serif; font-size: 18px; fill: rgb(42, 63, 95); fill-opacity: 1; white-space: pre;">01/11</text></g></g><g class="yaxislayer-above"/><g class="overaxes-above"/></g></g><g class="polarlayer"/><g class="ternarylayer"/><g class="geolayer"/><g class="funnelarealayer"/><g class="pielayer"/><g class="treemaplayer"/><g class="sunburstlayer"/><g class="glimages"/><defs id="topdefs-5a1278"><g class="clips"/></defs><g class="layer-above"><g class="imagelayer"/><g class="shapelayer"><path data-index="0" fill-rule="evenodd" d="M-832.06,414.99L315.25,414.99" clip-path="url('#clip5a1278xy')" style="opacity: 1; stroke: rgb(255, 0, 0); stroke-opacity: 1; fill: rgb(0, 0, 0); fill-opacity: 0; stroke-dasharray: 3px, 3px; stroke-width: 1.5px;"/></g></g><g class="infolayer"><g class="g-gtitle"><text class="gtitle" x="375" y="25" text-anchor="middle" dy="0.7em" style="font-family: 'Open Sans', verdana, arial, sans-serif; font-size: 50px; fill: rgb(42, 63, 95); opacity: 1; font-weight: normal; white-space: pre;"><tspan style="font-weight:bold">Haute-Garonne (31)</tspan></text></g><g class="g-xtitle"/><g class="annotation" data-index="0" style="opacity: 1;"><g class="annotation-text-g" transform="rotate(0,697.01,26.939999999999998)"><g class="cursor-pointer" transform="translate(639, -9)"><rect class="bg" x="0.5" y="0.5" width="115" height="71" style="stroke-width: 1px; stroke: rgb(0, 0, 0); stroke-opacity: 0; fill: rgb(255, 255, 255); fill-opacity: 0.6;"/><text class="annotation-text" text-anchor="middle" x="57.8125" y="55.5" style="font-family: 'Open Sans', verdana, arial, sans-serif; font-size: 50px; fill: rgb(8, 115, 191); fill-opacity: 1; white-space: pre;"> <tspan style="font-weight:bold">518 </tspan></text></g></g><g class="annotation-arrow-g" style="opacity: 1;"><path d="M725.41,62.44L737.01,76.94" style="stroke-width: 1px; stroke: rgb(8, 115, 191); stroke-opacity: 1; stroke-dasharray: 0px, 0px, 18.5691px, 18.5691px;"/></g></g></g></svg>