<svg class="main-svg" xmlns="http://www.w3.org/2000/svg" xmlns:xlink="http://www.w3.org/1999/xlink" width="1125" height="750" style="" viewBox="0 0 750 500"><rect x="0" y="0" width="750" height="500" style="fill: rgb(0, 0, 0); fill-opacity: 0;"/><defs id="defs-af64cc"><g class="clips"><clipPath id="clipaf64ccxyplot" class="plotclip"><rect width="700" height="380"/></clipPath><clipPath class="axesclip" id="clipaf64ccx"><rect x="50" y="0" width="700" height="500"/></clipPath><clipPath class="axesclip" id="clipaf64ccy"><rect x="0" y="70" width="750" height="380"/></clipPath><clipPath class="axesclip" id="clipaf64ccxy"><rect x="50" y="70" width="700" height="380"/></clipPath></g><g class="gradients"/></defs><g class="bglayer"><rect class="bg" x="50" y="70" width="700" height="380" style="fill: rgb(0, 0, 0); fill-opacity: 0; stroke-width: 0;"/></g><g class="layer-below"><g class="imagelayer"/><g class="shapelayer"/></g><g class="cartesianlayer"><g class="subplot xy"><g class="layer-subplot"><g class="shapelayer"/><g class="imagelayer"/></g><g class="gridlayer"><g class="x"><path class="xgrid crisp" transform="translate(109.38,0)" d="M0,70v380" style="stroke: rgb(255, 255, 255); stroke-opacity: 1; stroke-width: 1px;"/><path class="xgrid crisp" transform="translate(219.15,0)" d="M0,70v380" style="stroke: rgb(255, 255, 255); stroke-opacity: 1; stroke-width: 1px;"/><path class="xgrid crisp" transform="translate(325.32,0)" d="M0,70v380" style="stroke: rgb(255, 255, 255); stroke-opacity: 1; stroke-width: 1px;"/><path class="xgrid crisp" transform="translate(435.09,0)" d="M0,70v380" style="stroke: rgb(255, 255, 255); stroke-opacity: 1; stroke-width: 1px;"/><path class="xgrid crisp" transform="translate(544.86,0)" d="M0,70v380" style="stroke: rgb(255, 255, 255); stroke-opacity: 1; stroke-width: 1px;"/><path class="xgrid crisp" transform="translate(656.43,0)" d="M0,70v380" style="stroke: rgb(255, 255, 255); stroke-opacity: 1; stroke-width: 1px;"/></g><g class="y"/></g><g class="zerolinelayer"/><path class="xlines-below"/><path class="ylines-below"/><g class="overlines-below"/><g class="xaxislayer-below"/><g class="yaxislayer-below"/><g class="overaxes-below"/><g class="plot" transform="translate(50, 70)" clip-path="url('#clipaf64ccxyplot')"><g class="scatterlayer mlayer"><g class="trace scatter tracedad20f" style="stroke-miterlimit: 2;"><g class="fills"><g><path class="js-fill" d="M669.41,380L-244.73,380L-244.73,371.57L-233.93,375.39L-232.13,375.51L-203.34,376.68L-201.54,376.06L-170.95,375.75L-169.15,375.63L-149.36,374.46L-147.56,374.65L-133.16,373.97L-131.36,372.16L-124.16,370.99L-122.37,370.83L-113.37,365.2L-111.57,364.59L-102.57,363.39L-100.77,362.16L-95.37,359.79L-93.57,358.99L-88.17,353.39L-86.38,353.98L-82.78,351.88L-80.98,349.42L-71.98,342.07L-70.18,339.06L-62.98,327.98L-61.18,327.49L-59.38,327.31L-57.58,325.27L-52.19,321.15L-50.39,321.46L-46.79,320.08L-44.99,317.4L-37.79,302.94L-35.99,304.2L-34.19,304.51L-32.39,300.76L-23.39,288.05L-21.59,286.85L-19.79,286.08L-17.99,284.08L-12.6,282.3L-10.8,282.61L-7.2,284.92L-5.4,286.42L-3.6,286.52L-1.8,285.1L0,279.04L1.8,275.96L3.6,274.61L5.4,264.95L12.6,228.81L14.4,225.85L16.2,225.33L17.99,212.01L21.59,197.74L23.39,191.86L26.99,181.06L28.79,180.33L30.59,176.11L32.39,164.64L37.79,140.64L39.59,139.6L41.39,138.09L43.19,123.14L46.79,108.25L48.59,106.04L50.39,103.54L52.19,103.54L53.98,103.24L55.78,112.25L61.18,147.87L62.98,163.84L64.78,170.14L66.58,173.1L70.18,209.06L71.98,242.71L73.78,249.79L75.58,260.24L77.38,265.01L79.18,265.97L82.78,283.56L84.58,272.67L88.17,287.38L89.97,284.79L91.77,285.28L93.57,290.48L95.37,295.74L97.17,298.33L102.57,305.28L104.37,304.94L106.17,305.83L107.97,308.54L109.77,309.31L111.57,311.4L113.37,313.22L115.17,313.86L116.97,314.51L118.77,314.35L120.57,311.86L122.37,312.45L124.16,308.48L125.96,306.66L134.96,297.31L136.76,300.42L140.36,298.05L142.16,298.48L143.96,300.51L145.76,299.93L147.56,301.47L149.36,301.07L151.16,313.55L152.96,312.26L160.15,311.89L161.95,313.62L163.75,313.22L165.55,311.8L167.35,310.94L169.15,308.39L170.95,308.33L172.75,306.76L174.55,303.5L176.35,291.07L179.95,293.93L181.75,294.42L185.35,292.64L187.15,290.61L188.95,288.36L190.75,287.62L192.54,286.95L194.34,284.7L197.94,280.82L199.74,280.61L205.14,282.52L206.94,281.99L210.54,284.52L212.34,284.76L215.94,280.06L217.74,279.01L224.94,265.41L226.74,265.14L230.33,266.34L232.13,268.64L235.73,270.21L237.53,273.35L239.33,275.47L241.13,276.03L242.93,275.75L244.73,272.64L246.53,269.66L248.33,265.07L251.93,247.2L253.73,241.39L255.53,240.13L257.33,227.88L260.93,213.98L262.72,209.55L266.32,200.51L268.12,199.34L271.72,197.64L273.52,192.97L275.32,192.88L277.12,188.48L278.92,187.06L280.72,186.69L286.12,170.39L287.92,160.85L293.32,139.29L295.12,117.54L300.51,72.44L302.31,59.25L304.11,50.85L305.91,48.54L307.71,32.58L309.51,24.09L311.31,14.33L313.11,9.01L316.71,7.69L318.51,10.95L320.31,9.07L322.11,0L325.71,4.18L327.51,2.34L329.31,4.95L331.11,6.12L332.9,72.87L334.7,65.74L336.5,65.43L338.3,69.77L340.1,71.21L341.9,68.48L343.7,66.75L345.5,15.01L349.1,59.37L350.9,65.65L354.5,82.44L356.3,83.73L359.9,98.13L361.7,103.73L367.1,133.26L368.89,135.41L372.49,165.87L374.29,173.22L377.89,188.66L379.69,204.26L381.49,204.87L383.29,208.6L385.09,209.49L386.89,216.69L388.69,221.55L390.49,228.74L392.29,228.68L394.09,229.88L397.69,244.83L399.49,247.23L401.29,264.89L403.08,264.52L404.88,259.14L406.68,260.24L408.48,267.26L410.28,268.92L412.08,273.07L413.88,262.31L415.68,270.67L417.48,274.27L419.28,276.15L421.08,297.34L426.48,306.45L428.28,310.2L430.08,311.99L431.88,312.02L433.68,303.1L435.48,311.83L440.87,325.46L442.67,326.07L444.47,326.97L446.27,332.29L451.67,341.36L453.47,342.29L455.27,346.99L457.07,347.55L460.67,352.68L462.47,355.05L466.07,360.07L467.87,360.65L469.67,360.93L471.47,362.25L475.06,364.43L476.86,365.17L487.66,362.28L489.46,361.39L493.06,359.54L494.86,359.54L500.26,355.58L502.06,355.05L505.66,352.07L507.46,351.24L509.25,349.27L511.05,345.89L512.85,347.92L514.65,340.69L518.25,330.1L520.05,328.35L525.45,300.85L527.25,297L530.85,288.82L532.65,287.38L536.25,278.27L538.05,277.56L543.44,274.67L545.24,275.41L550.64,267.97L552.44,266.52L554.24,265.29L556.04,267.17L557.84,266.74L559.64,264.37L563.24,261.51L565.04,259.14L566.84,257.69L568.64,254.74L570.44,254.4L572.24,256.89L577.63,264.03L579.43,266L581.23,267.29L583.03,267.35L584.83,267.93L586.63,267.5L588.43,266.77L590.23,269.47L593.83,272.73L595.63,272.52L601.03,276.73L602.83,279.22L604.63,281.72L606.43,282.02L608.23,282.82L610.03,287.68L613.62,296.73L615.42,299.04L617.22,301.47L619.02,305.5L620.82,306.82L622.62,311.95L624.42,313.8L626.22,317.15L628.02,318.69L629.82,321.71L631.62,323.12L633.42,323.37L635.22,324.63L637.02,327.03L642.42,332.1L644.22,332.29L646.02,332.53L647.81,334.16L651.41,338.66L653.21,340.13L660.41,345.82L662.21,345.21L667.61,343.67L669.41,343.55" style="fill: rgb(8, 115, 191); fill-opacity: 0.2; stroke-width: 0;"/></g></g><g class="errorbars"/><g class="lines"><path class="js-line" d="M-244.73,371.57L-233.93,375.39L-232.13,375.51L-203.34,376.68L-201.54,376.06L-170.95,375.75L-169.15,375.63L-149.36,374.46L-147.56,374.65L-133.16,373.97L-131.36,372.16L-124.16,370.99L-122.37,370.83L-113.37,365.2L-111.57,364.59L-102.57,363.39L-100.77,362.16L-95.37,359.79L-93.57,358.99L-88.17,353.39L-86.38,353.98L-82.78,351.88L-80.98,349.42L-71.98,342.07L-70.18,339.06L-62.98,327.98L-61.18,327.49L-59.38,327.31L-57.58,325.27L-52.19,321.15L-50.39,321.46L-46.79,320.08L-44.99,317.4L-37.79,302.94L-35.99,304.2L-34.19,304.51L-32.39,300.76L-23.39,288.05L-21.59,286.85L-19.79,286.08L-17.99,284.08L-12.6,282.3L-10.8,282.61L-7.2,284.92L-5.4,286.42L-3.6,286.52L-1.8,285.1L0,279.04L1.8,275.96L3.6,274.61L5.4,264.95L12.6,228.81L14.4,225.85L16.2,225.33L17.99,212.01L21.59,197.74L23.39,191.86L26.99,181.06L28.79,180.33L30.59,176.11L32.39,164.64L37.79,140.64L39.59,139.6L41.39,138.09L43.19,123.14L46.79,108.25L48.59,106.04L50.39,103.54L52.19,103.54L53.98,103.24L55.78,112.25L61.18,147.87L62.98,163.84L64.78,170.14L66.58,173.1L70.18,209.06L71.98,242.71L73.78,249.79L75.58,260.24L77.38,265.01L79.18,265.97L82.78,283.56L84.58,272.67L88.17,287.38L89.97,284.79L91.77,285.28L93.57,290.48L95.37,295.74L97.17,298.33L102.57,305.28L104.37,304.94L106.17,305.83L107.97,308.54L109.77,309.31L111.57,311.4L113.37,313.22L115.17,313.86L116.97,314.51L118.77,314.35L120.57,311.86L122.37,312.45L124.16,308.48L125.96,306.66L134.96,297.31L136.76,300.42L140.36,298.05L142.16,298.48L143.96,300.51L145.76,299.93L147.56,301.47L149.36,301.07L151.16,313.55L152.96,312.26L160.15,311.89L161.95,313.62L163.75,313.22L165.55,311.8L167.35,310.94L169.15,308.39L170.95,308.33L172.75,306.76L174.55,303.5L176.35,291.07L179.95,293.93L181.75,294.42L185.35,292.64L187.15,290.61L188.95,288.36L190.75,287.62L192.54,286.95L194.34,284.7L197.94,280.82L199.74,280.61L205.14,282.52L206.94,281.99L210.54,284.52L212.34,284.76L215.94,280.06L217.74,279.01L224.94,265.41L226.74,265.14L230.33,266.34L232.13,268.64L235.73,270.21L237.53,273.35L239.33,275.47L241.13,276.03L242.93,275.75L244.73,272.64L246.53,269.66L248.33,265.07L251.93,247.2L253.73,241.39L255.53,240.13L257.33,227.88L260.93,213.98L262.72,209.55L266.32,200.51L268.12,199.34L271.72,197.64L273.52,192.97L275.32,192.88L277.12,188.48L278.92,187.06L280.72,186.69L286.12,170.39L287.92,160.85L293.32,139.29L295.12,117.54L300.51,72.44L302.31,59.25L304.11,50.85L305.91,48.54L307.71,32.58L309.51,24.09L311.31,14.33L313.11,9.01L316.71,7.69L318.51,10.95L320.31,9.07L322.11,0L325.71,4.18L327.51,2.34L329.31,4.95L331.11,6.12L332.9,72.87L334.7,65.74L336.5,65.43L338.3,69.77L340.1,71.21L341.9,68.48L343.7,66.75L345.5,15.01L349.1,59.37L350.9,65.65L354.5,82.44L356.3,83.73L359.9,98.13L361.7,103.73L367.1,133.26L368.89,135.41L372.49,165.87L374.29,173.22L377.89,188.66L379.69,204.26L381.49,204.87L383.29,208.6L385.09,209.49L386.89,216.69L388.69,221.55L390.49,228.74L392.29,228.68L394.09,229.88L397.69,244.83L399.49,247.23L401.29,264.89L403.08,264.52L404.88,259.14L406.68,260.24L408.48,267.26L410.28,268.92L412.08,273.07L413.88,262.31L415.68,270.67L417.48,274.27L419.28,276.15L421.08,297.34L426.48,306.45L428.28,310.2L430.08,311.99L431.88,312.02L433.68,303.1L435.48,311.83L440.87,325.46L442.67,326.07L444.47,326.97L446.27,332.29L451.67,341.36L453.47,342.29L455.27,346.99L457.07,347.55L460.67,352.68L462.47,355.05L466.07,360.07L467.87,360.65L469.67,360.93L471.47,362.25L475.06,364.43L476.86,365.17L487.66,362.28L489.46,361.39L493.06,359.54L494.86,359.54L500.26,355.58L502.06,355.05L505.66,352.07L507.46,351.24L509.25,349.27L511.05,345.89L512.85,347.92L514.65,340.69L518.25,330.1L520.05,328.35L525.45,300.85L527.25,297L530.85,288.82L532.65,287.38L536.25,278.27L538.05,277.56L543.44,274.67L545.24,275.41L550.64,267.97L552.44,266.52L554.24,265.29L556.04,267.17L557.84,266.74L559.64,264.37L563.24,261.51L565.04,259.14L566.84,257.69L568.64,254.74L570.44,254.4L572.24,256.89L577.63,264.03L579.43,266L581.23,267.29L583.03,267.35L584.83,267.93L586.63,267.5L588.43,266.77L590.23,269.47L593.83,272.73L595.63,272.52L601.03,276.73L602.83,279.22L604.63,281.72L606.43,282.02L608.23,282.82L610.03,287.68L613.62,296.73L615.42,299.04L617.22,301.47L619.02,305.5L620.82,306.82L622.62,311.95L624.42,313.8L626.22,317.15L628.02,318.69L629.82,321.71L631.62,323.12L633.42,323.37L635.22,324.63L637.02,327.03L642.42,332.1L644.22,332.29L646.02,332.53L647.81,334.16L651.41,338.66L653.21,340.13L660.41,345.82L662.21,345.21L667.61,343.67L669.41,343.55" style="vector-effect: non-scaling-stroke; fill: none; stroke: rgb(8, 115, 191); stroke-opacity: 1; stroke-width: 0.5px; opacity: 1;"/></g><g class="points"/><g class="text"/></g><g class="trace scatter trace220165" style="stroke-miterlimit: 2;"><g class="fills"><g><path class="js-fill" d="M687.4,380L669.41,380L669.41,343.55L671.21,343.27L673.01,344.07L676.61,343.33L678.41,339.64L682.01,343.64L683.8,343.76L687.4,344.38" style="fill: rgb(8, 115, 191); fill-opacity: 0.4; stroke-width: 0;"/></g></g><g class="errorbars"/><g class="lines"><path class="js-line" d="M669.41,343.55L671.21,343.27L673.01,344.07L676.61,343.33L678.41,339.64L682.01,343.64L683.8,343.76L687.4,344.38" style="vector-effect: non-scaling-stroke; fill: none; stroke: rgb(8, 115, 191); stroke-opacity: 1; stroke-width: 2px; opacity: 1;"/></g><g class="points"/><g class="text"/></g><g class="trace scatter trace52f5d8" style="stroke-miterlimit: 2; opacity: 1;"><g class="fills"/><g class="errorbars"/><g class="lines"/><g class="points"><path class="point" transform="translate(687.4,344.38)" d="M15,0A15,15 0 1,1 0,-15A15,15 0 0,1 15,0Z" style="opacity: 1; stroke-width: 0px; fill: rgb(8, 115, 191); fill-opacity: 1;"/></g><g class="text"/></g></g></g><g class="overplot"/><path class="xlines-above crisp" style="fill: none; stroke-width: 1px; stroke: rgb(0, 0, 0); stroke-opacity: 0;" d=""/><path class="ylines-above crisp" style="fill: none;" d="M0,0"/><g class="overlines-above"/><g class="xaxislayer-above"><path class="xtick ticks crisp" d="M0,450v-5" transform="translate(109.38,0)" style="stroke: rgb(68, 68, 68); stroke-opacity: 1; stroke-width: 1px;"/><path class="xtick ticks crisp" d="M0,450v-5" transform="translate(219.15,0)" style="stroke: rgb(68, 68, 68); stroke-opacity: 1; stroke-width: 1px;"/><path class="xtick ticks crisp" d="M0,450v-5" transform="translate(325.32,0)" style="stroke: rgb(68, 68, 68); stroke-opacity: 1; stroke-width: 1px;"/><path class="xtick ticks crisp" d="M0,450v-5" transform="translate(435.09,0)" style="stroke: rgb(68, 68, 68); stroke-opacity: 1; stroke-width: 1px;"/><path class="xtick ticks crisp" d="M0,450v-5" transform="translate(544.86,0)" style="stroke: rgb(68, 68, 68); stroke-opacity: 1; stroke-width: 1px;"/><path class="xtick ticks crisp" d="M0,450v-5" transform="translate(656.43,0)" style="stroke: rgb(68, 68, 68); stroke-opacity: 1; stroke-width: 1px;"/><g class="xtick"><text text-anchor="middle" x="0" y="469" transform="translate(109.38,0)" style="font-family: 'Open Sans', verdana, arial, sans-serif; font-size: 18px; fill: rgb(42, 63, 95); fill-opacity: 1; white-space: pre;">01/11</text></g><g class="xtick"><text text-anchor="middle" x="0" y="469" transform="translate(219.15,0)" style="font-family: 'Open Sans', verdana, arial, sans-serif; font-size: 18px; fill: rgb(42, 63, 95); fill-opacity: 1; white-space: pre;">01/01</text></g><g class="xtick"><text text-anchor="middle" x="0" y="469" transform="translate(325.32,0)" style="font-family: 'Open Sans', verdana, arial, sans-serif; font-size: 18px; fill: rgb(42, 63, 95); fill-opacity: 1; white-space: pre;">01/03</text></g><g class="xtick"><text text-anchor="middle" x="0" y="469" transform="translate(435.09,0)" style="font-family: 'Open Sans', verdana, arial, sans-serif; font-size: 18px; fill: rgb(42, 63, 95); fill-opacity: 1; white-space: pre;">01/05</text></g><g class="xtick"><text text-anchor="middle" x="0" y="469" transform="translate(544.86,0)" style="font-family: 'Open Sans', verdana, arial, sans-serif; font-size: 18px; fill: rgb(42, 63, 95); fill-opacity: 1; white-space: pre;">01/07</text></g><g class="xtick"><text text-anchor="middle" x="0" y="469" transform="translate(656.43,0)" style="font-family: 'Open Sans', verdana, arial, sans-serif; font-size: 18px; fill: rgb(42, 63, 95); fill-opacity: 1; white-space: pre;">01/09</text></g></g><g class="yaxislayer-above"/><g class="overaxes-above"/></g></g><g class="polarlayer"/><g class="ternarylayer"/><g class="geolayer"/><g class="funnelarealayer"/><g class="pielayer"/><g class="treemaplayer"/><g class="sunburstlayer"/><g class="glimages"/><defs id="topdefs-af64cc"><g class="clips"/></defs><g class="layer-above"><g class="imagelayer"/><g class="shapelayer"><path data-index="0" fill-rule="evenodd" d="M-961.31,424.31L354.11,424.31" clip-path="url('#clipaf64ccxy')" style="opacity: 1; stroke: rgb(255, 0, 0); stroke-opacity: 1; fill: rgb(0, 0, 0); fill-opacity: 0; stroke-dasharray: 3px, 3px; stroke-width: 1.5px;"/></g></g><g class="infolayer"><g class="g-gtitle"><text class="gtitle" x="375" y="25" text-anchor="middle" dy="0.7em" style="font-family: 'Open Sans', verdana, arial, sans-serif; font-size: 50px; fill: rgb(42, 63, 95); opacity: 1; font-weight: normal; white-space: pre;"><tspan style="font-weight:bold">Seine-Saint-Denis (93)</tspan></text></g><g class="g-xtitle"/><g class="annotation" data-index="0" style="opacity: 1;"><g class="annotation-text-g" transform="rotate(0,695.4,354.38)"><g class="cursor-pointer" transform="translate(652, 318)"><rect class="bg" x="0.5" y="0.5" width="86" height="71" style="stroke-width: 1px; stroke: rgb(0, 0, 0); stroke-opacity: 0; fill: rgb(255, 255, 255); fill-opacity: 0.6;"/><text class="annotation-text" text-anchor="middle" x="43.53125" y="55.5" style="font-family: 'Open Sans', verdana, arial, sans-serif; font-size: 50px; fill: rgb(8, 115, 191); fill-opacity: 1; white-space: pre;"> <tspan style="font-weight:bold">69 </tspan></text></g></g><g class="annotation-arrow-g" style="opacity: 1;"><path d="M723.8,389.88L735.4,404.38" style="stroke-width: 1px; stroke: rgb(8, 115, 191); stroke-opacity: 1; stroke-dasharray: 0px, 0px, 18.5691px, 18.5691px;"/></g></g></g></svg>