<svg class="main-svg" xmlns="http://www.w3.org/2000/svg" xmlns:xlink="http://www.w3.org/1999/xlink" width="1125" height="750" style="" viewBox="0 0 750 500"><rect x="0" y="0" width="750" height="500" style="fill: rgb(0, 0, 0); fill-opacity: 0;"/><defs id="defs-cb10ce"><g class="clips"><clipPath id="clipcb10cexyplot" class="plotclip"><rect width="695" height="380"/></clipPath><clipPath class="axesclip" id="clipcb10cex"><rect x="50" y="0" width="695" height="500"/></clipPath><clipPath class="axesclip" id="clipcb10cey"><rect x="0" y="70" width="750" height="380"/></clipPath><clipPath class="axesclip" id="clipcb10cexy"><rect x="50" y="70" width="695" height="380"/></clipPath></g><g class="gradients"/></defs><g class="bglayer"><rect class="bg" x="50" y="70" width="695" height="380" style="fill: rgb(0, 0, 0); fill-opacity: 0; stroke-width: 0;"/></g><g class="layer-below"><g class="imagelayer"/><g class="shapelayer"/></g><g class="cartesianlayer"><g class="subplot xy"><g class="layer-subplot"><g class="shapelayer"/><g class="imagelayer"/></g><g class="gridlayer"><g class="x"><path class="xgrid crisp" transform="translate(88.55,0)" d="M0,70v380" style="stroke: rgb(255, 255, 255); stroke-opacity: 1; stroke-width: 1px;"/><path class="xgrid crisp" transform="translate(159.8,0)" d="M0,70v380" style="stroke: rgb(255, 255, 255); stroke-opacity: 1; stroke-width: 1px;"/><path class="xgrid crisp" transform="translate(228.71,0)" d="M0,70v380" style="stroke: rgb(255, 255, 255); stroke-opacity: 1; stroke-width: 1px;"/><path class="xgrid crisp" transform="translate(299.97,0)" d="M0,70v380" style="stroke: rgb(255, 255, 255); stroke-opacity: 1; stroke-width: 1px;"/><path class="xgrid crisp" transform="translate(371.22,0)" d="M0,70v380" style="stroke: rgb(255, 255, 255); stroke-opacity: 1; stroke-width: 1px;"/><path class="xgrid crisp" transform="translate(443.64,0)" d="M0,70v380" style="stroke: rgb(255, 255, 255); stroke-opacity: 1; stroke-width: 1px;"/><path class="xgrid crisp" transform="translate(514.89,0)" d="M0,70v380" style="stroke: rgb(255, 255, 255); stroke-opacity: 1; stroke-width: 1px;"/><path class="xgrid crisp" transform="translate(586.14,0)" d="M0,70v380" style="stroke: rgb(255, 255, 255); stroke-opacity: 1; stroke-width: 1px;"/><path class="xgrid crisp" transform="translate(655.06,0)" d="M0,70v380" style="stroke: rgb(255, 255, 255); stroke-opacity: 1; stroke-width: 1px;"/><path class="xgrid crisp" transform="translate(726.31,0)" d="M0,70v380" style="stroke: rgb(255, 255, 255); stroke-opacity: 1; stroke-width: 1px;"/></g><g class="y"/></g><g class="zerolinelayer"/><path class="xlines-below"/><path class="ylines-below"/><g class="overlines-below"/><g class="xaxislayer-below"/><g class="yaxislayer-below"/><g class="overaxes-below"/><g class="plot" transform="translate(50, 70)" clip-path="url('#clipcb10cexyplot')"><g class="scatterlayer mlayer"><g class="trace scatter trace40a7f6" style="stroke-miterlimit: 2;"><g class="fills"><g><path class="js-fill" d="M675.14,380L-158.86,380L-158.86,378.94L-143.67,379.64L-142.5,379.73L-110.97,379.68L-109.8,379.72L-66.58,378.82L-65.41,378.65L-53.73,378.72L-52.56,378.63L-30.37,375.16L-29.2,374.57L-12.85,371.63L-11.68,370.95L-10.51,368.85L-9.34,369.26L-3.5,369.55L-2.34,371.26L3.5,366.78L4.67,365.33L7.01,363.24L8.18,363.04L10.51,362.74L11.68,360.74L15.18,356.7L16.35,354.23L19.86,351.68L21.03,349.35L22.19,346.32L23.36,346.1L25.7,344.82L26.87,344.61L29.2,340.41L30.37,339.39L33.87,331.17L35.04,331.41L36.21,328.63L37.38,328.07L38.55,327.55L39.71,328.41L42.05,332.51L43.22,332.63L45.55,339.91L46.72,347.64L50.23,354.1L51.39,354.24L53.73,359.47L54.9,357.35L57.24,361.74L58.4,362.4L59.57,362.43L60.74,364.59L66.58,367.87L67.75,367.97L71.25,370.12L72.42,370.59L74.76,370.86L75.92,370.16L79.43,369.16L80.6,368.51L82.93,367.76L84.1,368.38L89.94,367.74L91.11,367.84L93.45,367.59L94.61,366.66L96.95,367.04L98.12,369.14L103.96,368.95L105.13,368.67L106.29,368.62L107.46,367.44L109.8,366.89L110.97,366.1L113.3,363.48L114.47,360.81L116.81,360.68L117.97,359.97L121.48,358.18L122.65,356.53L124.98,356.65L126.15,355.41L128.49,355.06L129.66,355.08L133.16,355.72L134.33,355.38L137.83,355.29L139,354.94L141.34,354.58L142.5,355.15L143.67,354.44L144.84,355.16L148.34,356.48L149.51,356.56L151.85,358.88L153.02,358.45L156.52,359.06L157.69,358.97L160.03,357.42L161.19,357.07L164.7,354.76L165.87,354.7L169.37,352.4L170.54,352.22L172.87,351.7L174.04,351.67L177.55,353.09L178.71,352.25L179.88,352.31L181.05,351.61L183.39,351.26L184.55,349.72L186.89,346.94L188.06,346.11L190.39,345.53L191.56,343.35L192.73,343.07L193.9,342.01L197.4,337.27L198.57,336.89L204.41,327.68L205.58,325.84L206.75,325.87L207.92,325.09L210.25,322.19L211.42,321.71L212.59,322.41L213.76,322.23L214.92,322.13L216.09,332.55L217.26,330.8L218.43,331.79L219.6,333.52L220.76,333.59L221.93,335.05L223.1,335.26L224.27,325.61L225.44,330.57L227.77,333.96L228.94,334.77L232.45,336.85L233.61,336.66L234.78,335.97L235.95,336.36L238.29,338.22L239.45,338.2L246.46,351.64L247.63,351.6L253.47,354.88L254.64,354.19L255.81,354.24L256.97,356.08L259.31,356.88L260.48,359.62L261.65,359.44L262.82,358.5L267.49,360.25L268.66,357.87L269.82,359.6L270.99,359.8L272.16,359.85L273.33,364.23L275.66,365.2L276.83,366.04L280.34,367.45L281.5,365.94L282.67,368.41L283.84,369.11L287.34,372.15L288.51,372.26L294.35,375.8L295.52,376.18L297.86,376.98L299.03,377.37L314.21,378.76L315.38,378.85L323.55,377.73L324.72,377.8L331.73,377.1L332.9,377.38L339.91,373.93L341.08,372.61L345.75,371.44L346.92,370.24L351.59,369.47L352.76,369.16L357.43,368.62L358.6,367.75L360.93,367.31L362.1,367.4L365.61,366L366.77,366.42L367.94,366.48L369.11,365.61L372.61,365.92L373.78,366.36L376.12,366.52L377.29,366.89L386.63,366.27L387.8,366.79L392.47,369.24L393.64,369.55L395.97,370.31L397.14,370.68L399.48,371.3L400.65,371.3L406.49,371.6L407.66,371.91L414.66,373.55L415.83,374.12L424.01,375.75L425.18,375.95L432.18,376.57L433.35,376.66L440.36,376.83L441.53,376.76L447.37,375.25L448.54,374.96L450.87,374.11L452.04,374.2L455.55,373.8L456.71,373.82L461.39,375.03L462.55,374.51L464.89,374.41L466.06,374.02L468.39,374.04L469.56,372.55L471.9,372.49L473.07,373.32L478.91,370.25L480.08,369.23L481.24,367.13L482.41,366.77L487.08,363.96L488.25,362.88L489.42,361.55L490.59,358.76L491.76,357.47L492.92,357.44L497.6,348.44L498.76,348.16L502.27,345.9L503.44,344.57L504.61,343.51L505.77,344.25L508.11,342.45L509.28,342.17L511.61,339.39L512.78,338.47L517.45,335.89L518.62,333.57L519.79,330.86L520.96,324.99L523.29,312.78L524.46,316.33L525.63,314.18L526.8,288.44L531.47,182.93L532.64,181.09L533.81,176.99L534.97,135.73L537.31,100.1L538.48,93.04L539.65,76.43L540.82,43.38L541.98,39.03L543.15,43.11L544.32,44.33L545.49,39.2L547.82,31.53L548.99,25.95L551.33,16.17L552.5,8.09L554.83,0L556,0.85L557.17,0.82L558.34,3.41L559.5,0.8L560.67,12.64L565.34,49.44L566.51,53.15L570.02,111.26L571.18,130.11L573.52,166.86L574.69,172.16L577.03,225.59L578.19,242.16L580.53,269.21L581.7,277.4L582.87,279.24L584.03,289.88L587.54,309.63L588.71,314.59L589.87,317.52L591.04,317.75L593.38,324.68L594.55,326.53L598.05,334.16L599.22,335.05L601.55,338.91L602.72,339.83L603.89,340.74L605.06,340.4L608.56,340.52L609.73,339.65L612.07,337.27L613.24,335.22L614.4,332.45L615.57,331.89L617.91,323.1L619.08,319.47L622.58,309.9L623.75,308.8L630.76,272.18L631.92,271.83L634.26,256.33L635.43,251.76L637.76,247.11L638.93,245.45L640.1,245.26L641.27,243.61L643.61,241.38L644.77,239.96L645.94,238.47L647.11,238.26L648.28,238.78L649.45,243.47L654.12,259.92L655.29,263.92L656.45,264.38L657.62,289.62L658.79,285.18L659.96,290.84L663.46,306.46L664.63,306.95L665.8,293.53L666.97,308.32L671.64,324.33L672.81,325.26L673.97,329.83L675.14,331.26" style="fill: rgb(8, 115, 191); fill-opacity: 0.2; stroke-width: 0;"/></g></g><g class="errorbars"/><g class="lines"><path class="js-line" d="M-158.86,378.94L-143.67,379.64L-142.5,379.73L-110.97,379.68L-109.8,379.72L-66.58,378.82L-65.41,378.65L-53.73,378.72L-52.56,378.63L-30.37,375.16L-29.2,374.57L-12.85,371.63L-11.68,370.95L-10.51,368.85L-9.34,369.26L-3.5,369.55L-2.34,371.26L3.5,366.78L4.67,365.33L7.01,363.24L8.18,363.04L10.51,362.74L11.68,360.74L15.18,356.7L16.35,354.23L19.86,351.68L21.03,349.35L22.19,346.32L23.36,346.1L25.7,344.82L26.87,344.61L29.2,340.41L30.37,339.39L33.87,331.17L35.04,331.41L36.21,328.63L37.38,328.07L38.55,327.55L39.71,328.41L42.05,332.51L43.22,332.63L45.55,339.91L46.72,347.64L50.23,354.1L51.39,354.24L53.73,359.47L54.9,357.35L57.24,361.74L58.4,362.4L59.57,362.43L60.74,364.59L66.58,367.87L67.75,367.97L71.25,370.12L72.42,370.59L74.76,370.86L75.92,370.16L79.43,369.16L80.6,368.51L82.93,367.76L84.1,368.38L89.94,367.74L91.11,367.84L93.45,367.59L94.61,366.66L96.95,367.04L98.12,369.14L103.96,368.95L105.13,368.67L106.29,368.62L107.46,367.44L109.8,366.89L110.97,366.1L113.3,363.48L114.47,360.81L116.81,360.68L117.97,359.97L121.48,358.18L122.65,356.53L124.98,356.65L126.15,355.41L128.49,355.06L129.66,355.08L133.16,355.72L134.33,355.38L137.83,355.29L139,354.94L141.34,354.58L142.5,355.15L143.67,354.44L144.84,355.16L148.34,356.48L149.51,356.56L151.85,358.88L153.02,358.45L156.52,359.06L157.69,358.97L160.03,357.42L161.19,357.07L164.7,354.76L165.87,354.7L169.37,352.4L170.54,352.22L172.87,351.7L174.04,351.67L177.55,353.09L178.71,352.25L179.88,352.31L181.05,351.61L183.39,351.26L184.55,349.72L186.89,346.94L188.06,346.11L190.39,345.53L191.56,343.35L192.73,343.07L193.9,342.01L197.4,337.27L198.57,336.89L204.41,327.68L205.58,325.84L206.75,325.87L207.92,325.09L210.25,322.19L211.42,321.71L212.59,322.41L213.76,322.23L214.92,322.13L216.09,332.55L217.26,330.8L218.43,331.79L219.6,333.52L220.76,333.59L221.93,335.05L223.1,335.26L224.27,325.61L225.44,330.57L227.77,333.96L228.94,334.77L232.45,336.85L233.61,336.66L234.78,335.97L235.95,336.36L238.29,338.22L239.45,338.2L246.46,351.64L247.63,351.6L253.47,354.88L254.64,354.19L255.81,354.24L256.97,356.08L259.31,356.88L260.48,359.62L261.65,359.44L262.82,358.5L267.49,360.25L268.66,357.87L269.82,359.6L270.99,359.8L272.16,359.85L273.33,364.23L275.66,365.2L276.83,366.04L280.34,367.45L281.5,365.94L282.67,368.41L283.84,369.11L287.34,372.15L288.51,372.26L294.35,375.8L295.52,376.18L297.86,376.98L299.03,377.37L314.21,378.76L315.38,378.85L323.55,377.73L324.72,377.8L331.73,377.1L332.9,377.38L339.91,373.93L341.08,372.61L345.75,371.44L346.92,370.24L351.59,369.47L352.76,369.16L357.43,368.62L358.6,367.75L360.93,367.31L362.1,367.4L365.61,366L366.77,366.42L367.94,366.48L369.11,365.61L372.61,365.92L373.78,366.36L376.12,366.52L377.29,366.89L386.63,366.27L387.8,366.79L392.47,369.24L393.64,369.55L395.97,370.31L397.14,370.68L399.48,371.3L400.65,371.3L406.49,371.6L407.66,371.91L414.66,373.55L415.83,374.12L424.01,375.75L425.18,375.95L432.18,376.57L433.35,376.66L440.36,376.83L441.53,376.76L447.37,375.25L448.54,374.96L450.87,374.11L452.04,374.2L455.55,373.8L456.71,373.82L461.39,375.03L462.55,374.51L464.89,374.41L466.06,374.02L468.39,374.04L469.56,372.55L471.9,372.49L473.07,373.32L478.91,370.25L480.08,369.23L481.24,367.13L482.41,366.77L487.08,363.96L488.25,362.88L489.42,361.55L490.59,358.76L491.76,357.47L492.92,357.44L497.6,348.44L498.76,348.16L502.27,345.9L503.44,344.57L504.61,343.51L505.77,344.25L508.11,342.45L509.28,342.17L511.61,339.39L512.78,338.47L517.45,335.89L518.62,333.57L519.79,330.86L520.96,324.99L523.29,312.78L524.46,316.33L525.63,314.18L526.8,288.44L531.47,182.93L532.64,181.09L533.81,176.99L534.97,135.73L537.31,100.1L538.48,93.04L539.65,76.43L540.82,43.38L541.98,39.03L543.15,43.11L544.32,44.33L545.49,39.2L547.82,31.53L548.99,25.95L551.33,16.17L552.5,8.09L554.83,0L556,0.85L557.17,0.82L558.34,3.41L559.5,0.8L560.67,12.64L565.34,49.44L566.51,53.15L570.02,111.26L571.18,130.11L573.52,166.86L574.69,172.16L577.03,225.59L578.19,242.16L580.53,269.21L581.7,277.4L582.87,279.24L584.03,289.88L587.54,309.63L588.71,314.59L589.87,317.52L591.04,317.75L593.38,324.68L594.55,326.53L598.05,334.16L599.22,335.05L601.55,338.91L602.72,339.83L603.89,340.74L605.06,340.4L608.56,340.52L609.73,339.65L612.07,337.27L613.24,335.22L614.4,332.45L615.57,331.89L617.91,323.1L619.08,319.47L622.58,309.9L623.75,308.8L630.76,272.18L631.92,271.83L634.26,256.33L635.43,251.76L637.76,247.11L638.93,245.45L640.1,245.26L641.27,243.61L643.61,241.38L644.77,239.96L645.94,238.47L647.11,238.26L648.28,238.78L649.45,243.47L654.12,259.92L655.29,263.92L656.45,264.38L657.62,289.62L658.79,285.18L659.96,290.84L663.46,306.46L664.63,306.95L665.8,293.53L666.97,308.32L671.64,324.33L672.81,325.26L673.97,329.83L675.14,331.26" style="vector-effect: non-scaling-stroke; fill: none; stroke: rgb(8, 115, 191); stroke-opacity: 1; stroke-width: 0.5px; opacity: 1;"/></g><g class="points"/><g class="text"/></g><g class="trace scatter trace8df8f6" style="stroke-miterlimit: 2;"><g class="fills"><g><path class="js-fill" d="M686.82,380L675.14,380L675.14,331.26L679.82,333.13L680.98,333.08L686.82,338.72" style="fill: rgb(8, 115, 191); fill-opacity: 0.4; stroke-width: 0;"/></g></g><g class="errorbars"/><g class="lines"><path class="js-line" d="M675.14,331.26L679.82,333.13L680.98,333.08L686.82,338.72" style="vector-effect: non-scaling-stroke; fill: none; stroke: rgb(8, 115, 191); stroke-opacity: 1; stroke-width: 2px; opacity: 1;"/></g><g class="points"/><g class="text"/></g><g class="trace scatter traced6a186" style="stroke-miterlimit: 2; opacity: 1;"><g class="fills"/><g class="errorbars"/><g class="lines"/><g class="points"><path class="point" transform="translate(686.82,338.72)" d="M15,0A15,15 0 1,1 0,-15A15,15 0 0,1 15,0Z" style="opacity: 1; stroke-width: 0px; fill: rgb(8, 115, 191); fill-opacity: 1;"/></g><g class="text"/></g></g></g><g class="overplot"/><path class="xlines-above crisp" style="fill: none; stroke-width: 1px; stroke: rgb(0, 0, 0); stroke-opacity: 0;" d=""/><path class="ylines-above crisp" style="fill: none;" d="M0,0"/><g class="overlines-above"/><g class="xaxislayer-above"><path class="xtick ticks crisp" d="M0,450v-5" transform="translate(88.55,0)" style="stroke: rgb(68, 68, 68); stroke-opacity: 1; stroke-width: 1px;"/><path class="xtick ticks crisp" d="M0,450v-5" transform="translate(159.8,0)" style="stroke: rgb(68, 68, 68); stroke-opacity: 1; stroke-width: 1px;"/><path class="xtick ticks crisp" d="M0,450v-5" transform="translate(228.71,0)" style="stroke: rgb(68, 68, 68); stroke-opacity: 1; stroke-width: 1px;"/><path class="xtick ticks crisp" d="M0,450v-5" transform="translate(299.97,0)" style="stroke: rgb(68, 68, 68); stroke-opacity: 1; stroke-width: 1px;"/><path class="xtick ticks crisp" d="M0,450v-5" transform="translate(371.22,0)" style="stroke: rgb(68, 68, 68); stroke-opacity: 1; stroke-width: 1px;"/><path class="xtick ticks crisp" d="M0,450v-5" transform="translate(443.64,0)" style="stroke: rgb(68, 68, 68); stroke-opacity: 1; stroke-width: 1px;"/><path class="xtick ticks crisp" d="M0,450v-5" transform="translate(514.89,0)" style="stroke: rgb(68, 68, 68); stroke-opacity: 1; stroke-width: 1px;"/><path class="xtick ticks crisp" d="M0,450v-5" transform="translate(586.14,0)" style="stroke: rgb(68, 68, 68); stroke-opacity: 1; stroke-width: 1px;"/><path class="xtick ticks crisp" d="M0,450v-5" transform="translate(655.06,0)" style="stroke: rgb(68, 68, 68); stroke-opacity: 1; stroke-width: 1px;"/><path class="xtick ticks crisp" d="M0,450v-5" transform="translate(726.31,0)" style="stroke: rgb(68, 68, 68); stroke-opacity: 1; stroke-width: 1px;"/><g class="xtick"><text text-anchor="middle" x="0" y="469" transform="translate(88.55,0)" style="font-family: 'Open Sans', verdana, arial, sans-serif; font-size: 18px; fill: rgb(42, 63, 95); fill-opacity: 1; white-space: pre;">01/11</text></g><g class="xtick"><text text-anchor="middle" x="0" y="469" transform="translate(159.8,0)" style="font-family: 'Open Sans', verdana, arial, sans-serif; font-size: 18px; fill: rgb(42, 63, 95); fill-opacity: 1; white-space: pre;">01/01</text></g><g class="xtick"><text text-anchor="middle" x="0" y="469" transform="translate(228.71,0)" style="font-family: 'Open Sans', verdana, arial, sans-serif; font-size: 18px; fill: rgb(42, 63, 95); fill-opacity: 1; white-space: pre;">01/03</text></g><g class="xtick"><text text-anchor="middle" x="0" y="469" transform="translate(299.97,0)" style="font-family: 'Open Sans', verdana, arial, sans-serif; font-size: 18px; fill: rgb(42, 63, 95); fill-opacity: 1; white-space: pre;">01/05</text></g><g class="xtick"><text text-anchor="middle" x="0" y="469" transform="translate(371.22,0)" style="font-family: 'Open Sans', verdana, arial, sans-serif; font-size: 18px; fill: rgb(42, 63, 95); fill-opacity: 1; white-space: pre;">01/07</text></g><g class="xtick"><text text-anchor="middle" x="0" y="469" transform="translate(443.64,0)" style="font-family: 'Open Sans', verdana, arial, sans-serif; font-size: 18px; fill: rgb(42, 63, 95); fill-opacity: 1; white-space: pre;">01/09</text></g><g class="xtick"><text text-anchor="middle" x="0" y="469" transform="translate(514.89,0)" style="font-family: 'Open Sans', verdana, arial, sans-serif; font-size: 18px; fill: rgb(42, 63, 95); fill-opacity: 1; white-space: pre;">01/11</text></g><g class="xtick"><text text-anchor="middle" x="0" y="469" transform="translate(586.14,0)" style="font-family: 'Open Sans', verdana, arial, sans-serif; font-size: 18px; fill: rgb(42, 63, 95); fill-opacity: 1; white-space: pre;">01/01</text></g><g class="xtick"><text text-anchor="middle" x="0" y="469" transform="translate(655.06,0)" style="font-family: 'Open Sans', verdana, arial, sans-serif; font-size: 18px; fill: rgb(42, 63, 95); fill-opacity: 1; white-space: pre;">01/03</text></g><g class="xtick"><text text-anchor="middle" x="0" y="469" transform="translate(726.31,0)" style="font-family: 'Open Sans', verdana, arial, sans-serif; font-size: 18px; fill: rgb(42, 63, 95); fill-opacity: 1; white-space: pre;">01/05</text></g></g><g class="yaxislayer-above"/><g class="overaxes-above"/></g></g><g class="polarlayer"/><g class="ternarylayer"/><g class="geolayer"/><g class="funnelarealayer"/><g class="pielayer"/><g class="treemaplayer"/><g class="sunburstlayer"/><g class="glimages"/><defs id="topdefs-cb10ce"><g class="clips"/></defs><g class="layer-above"><g class="imagelayer"/><g class="shapelayer"><path data-index="0" fill-rule="evenodd" d="M-606.45,444.66L247.4,444.66" clip-path="url('#clipcb10cexy')" style="opacity: 1; stroke: rgb(255, 0, 0); stroke-opacity: 1; fill: rgb(0, 0, 0); fill-opacity: 0; stroke-dasharray: 3px, 3px; stroke-width: 1.5px;"/></g></g><g class="infolayer"><g class="g-gtitle"><text class="gtitle" x="375" y="25" text-anchor="middle" dy="0.7em" style="font-family: 'Open Sans', verdana, arial, sans-serif; font-size: 50px; fill: rgb(42, 63, 95); opacity: 1; font-weight: normal; white-space: pre;"><tspan style="font-weight:bold">Oise (60)</tspan></text></g><g class="g-xtitle"/><g class="annotation" data-index="0" style="opacity: 1;"><g class="annotation-text-g" transform="rotate(0,694.82,348.72)"><g class="cursor-pointer" transform="translate(637, 313)"><rect class="bg" x="0.5" y="0.5" width="115" height="71" style="stroke-width: 1px; stroke: rgb(0, 0, 0); stroke-opacity: 0; fill: rgb(255, 255, 255); fill-opacity: 0.6;"/><text class="annotation-text" text-anchor="middle" x="57.8125" y="55.5" style="font-family: 'Open Sans', verdana, arial, sans-serif; font-size: 50px; fill: rgb(8, 115, 191); fill-opacity: 1; white-space: pre;"> <tspan style="font-weight:bold">386 </tspan></text></g></g><g class="annotation-arrow-g" style="opacity: 1;"><path d="M723.22,384.22L734.82,398.72" style="stroke-width: 1px; stroke: rgb(8, 115, 191); stroke-opacity: 1; stroke-dasharray: 0px, 0px, 18.5691px, 18.5691px;"/></g></g></g></svg>