<svg class="main-svg" xmlns="http://www.w3.org/2000/svg" xmlns:xlink="http://www.w3.org/1999/xlink" width="1125" height="750" style="" viewBox="0 0 750 500"><rect x="0" y="0" width="750" height="500" style="fill: rgb(0, 0, 0); fill-opacity: 0;"/><defs id="defs-7208c6"><g class="clips"><clipPath id="clip7208c6xyplot" class="plotclip"><rect width="700" height="380"/></clipPath><clipPath class="axesclip" id="clip7208c6x"><rect x="50" y="0" width="700" height="500"/></clipPath><clipPath class="axesclip" id="clip7208c6y"><rect x="0" y="70" width="750" height="380"/></clipPath><clipPath class="axesclip" id="clip7208c6xy"><rect x="50" y="70" width="700" height="380"/></clipPath></g><g class="gradients"/></defs><g class="bglayer"><rect class="bg" x="50" y="70" width="700" height="380" style="fill: rgb(0, 0, 0); fill-opacity: 0; stroke-width: 0;"/></g><g class="layer-below"><g class="imagelayer"/><g class="shapelayer"/></g><g class="cartesianlayer"><g class="subplot xy"><g class="layer-subplot"><g class="shapelayer"/><g class="imagelayer"/></g><g class="gridlayer"><g class="x"><path class="xgrid crisp" transform="translate(110.31,0)" d="M0,70v380" style="stroke: rgb(255, 255, 255); stroke-opacity: 1; stroke-width: 1px;"/><path class="xgrid crisp" transform="translate(221.8,0)" d="M0,70v380" style="stroke: rgb(255, 255, 255); stroke-opacity: 1; stroke-width: 1px;"/><path class="xgrid crisp" transform="translate(329.63,0)" d="M0,70v380" style="stroke: rgb(255, 255, 255); stroke-opacity: 1; stroke-width: 1px;"/><path class="xgrid crisp" transform="translate(441.12,0)" d="M0,70v380" style="stroke: rgb(255, 255, 255); stroke-opacity: 1; stroke-width: 1px;"/><path class="xgrid crisp" transform="translate(552.61,0)" d="M0,70v380" style="stroke: rgb(255, 255, 255); stroke-opacity: 1; stroke-width: 1px;"/><path class="xgrid crisp" transform="translate(665.93,0)" d="M0,70v380" style="stroke: rgb(255, 255, 255); stroke-opacity: 1; stroke-width: 1px;"/></g><g class="y"/></g><g class="zerolinelayer"/><path class="xlines-below"/><path class="ylines-below"/><g class="overlines-below"/><g class="xaxislayer-below"/><g class="yaxislayer-below"/><g class="overaxes-below"/><g class="plot" transform="translate(50, 70)" clip-path="url('#clip7208c6xyplot')"><g class="scatterlayer mlayer"><g class="trace scatter tracee3e95d" style="stroke-miterlimit: 2;"><g class="fills"><g><path class="js-fill" d="M668.93,380L-248.56,380L-248.56,370.46L-244.91,370.96L-243.08,372.46L-224.8,375L-222.98,375.71L-217.49,376.42L-215.67,376.21L-201.04,377.58L-199.22,378L-186.42,376.34L-184.6,376.63L-159.01,375.38L-157.18,375.5L-151.7,374.09L-149.87,374.25L-137.08,373.38L-135.25,372.26L-129.77,370.01L-127.94,369.63L-116.97,366.43L-115.14,364.93L-100.52,357.43L-98.69,357.31L-95.04,354.1L-93.21,353.35L-87.73,350.64L-85.9,350.39L-82.25,346.15L-80.42,342.11L-76.76,335.15L-74.93,332.24L-73.11,331.12L-71.28,326.37L-63.97,305.88L-62.14,305.88L-60.31,305.13L-58.49,297.64L-49.35,285.27L-47.52,286.02L-40.21,271.99L-38.38,269.03L-34.73,270.57L-32.9,265.74L-27.42,254.79L-25.59,251.96L-23.76,248.5L-21.93,247.63L-16.45,240.43L-14.62,241.67L-12.79,243.09L-10.97,243.17L-5.48,245.13L-3.66,243.09L-1.83,238.38L0,230.39L1.83,223.73L3.66,222.35L10.97,169.51L12.79,158.52L16.45,154.86L18.28,140.78L20.1,131.41L21.93,126.29L25.59,108.72L27.42,105.85L29.24,104.81L31.07,97.77L34.73,73.08L36.55,56.17L40.21,30.94L42.04,30.56L43.86,9.54L45.69,0L47.52,1.08L49.35,6.25L53,17.11L54.83,16.95L56.66,32.48L58.49,54.55L62.14,96.06L63.97,121.59L65.8,133.12L67.62,136.2L73.11,225.89L74.93,233.89L76.76,246.05L78.59,250.54L80.42,252.17L82.25,267.91L84.07,278.48L85.9,267.74L87.73,283.73L89.56,292.68L91.38,294.85L93.21,294.56L96.87,307.88L98.69,309.92L100.52,310L102.35,311.42L107.83,316.71L109.66,316.96L113.32,323.79L115.14,324L118.8,323.7L120.63,321.91L122.45,322.87L124.28,321.29L129.77,315.42L131.59,315.04L135.25,305.26L137.08,303.76L138.9,302.34L140.73,299.89L144.39,297.39L146.21,297.47L148.04,296.06L149.87,292.72L151.7,292.14L153.52,305.88L155.35,304.72L157.18,305.3L159.01,302.68L160.84,303.26L162.66,303.43L164.49,302.38L166.32,301.39L168.15,298.18L169.97,296.64L171.8,291.47L173.63,285.9L175.46,283.44L177.28,278.69L179.11,263.16L180.94,264.87L182.77,265.53L184.6,264.58L186.42,264.74L188.25,260.7L190.08,259.33L191.91,255.62L193.73,255.46L195.56,255.17L197.39,253.13L199.22,253.33L201.04,254.42L206.53,252.17L208.36,251.92L210.18,251.38L212.01,247.42L213.84,245.55L215.67,241.01L217.49,237.01L219.32,236.14L221.15,236.05L222.98,232.72L226.63,233.72L228.46,236.09L230.29,237.47L232.11,236.26L233.94,235.8L235.77,239.13L237.6,239.47L239.43,240.76L244.91,245.71L246.74,247.13L250.39,252.88L252.22,248.09L255.87,240.18L257.7,238.43L259.53,237.09L261.36,226.27L263.19,221.1L265.01,221.85L268.67,220.69L270.5,217.15L272.32,216.94L274.15,217.94L275.98,216.61L277.81,213.36L279.63,212.19L281.46,210.03L285.12,209.61L286.95,203.91L290.6,191.71L292.43,180.8L296.08,167.14L297.91,164.1L301.57,128.08L303.39,116.17L308.88,90.65L310.7,90.52L316.19,66.33L318.02,59.38L321.67,41.85L323.5,43.1L325.33,37.1L327.15,37.52L328.98,40.56L330.81,40.93L334.46,54.38L336.29,53.26L338.12,117.09L339.95,101.35L341.78,97.64L343.6,98.98L347.26,96.56L349.09,96.94L350.91,45.14L352.74,71.04L358.22,107.1L360.05,112.38L361.88,114.51L363.71,125.33L367.36,140.66L369.19,143.41L372.85,151.9L374.67,151.57L383.81,189.71L385.64,208.95L387.47,208.4L389.3,213.69L394.78,224.1L396.61,230.31L398.43,229.35L400.26,231.18L403.92,245.3L405.74,248.05L407.57,266.53L409.4,267.07L411.23,260.7L413.05,260.87L414.88,271.74L416.71,276.61L418.54,282.4L420.37,271.53L422.19,281.15L424.02,284.1L425.85,285.15L427.68,302.47L429.5,302.26L431.33,304.13L433.16,308.09L434.99,309.01L438.64,309.46L440.47,299.26L442.3,309.09L444.13,314L445.95,316.42L447.78,322.2L449.61,325.83L451.44,326.66L453.26,332.49L455.09,335.82L460.57,345.86L462.4,347.77L464.23,348.52L466.06,352.18L471.54,358.76L473.37,360.35L475.2,361.76L477.02,361.43L478.85,363.68L480.68,364.55L484.33,364.93L486.16,365.55L491.64,365.43L493.47,364.88L497.13,362.1L498.96,359.47L500.78,358.26L502.61,357.97L506.27,349.35L508.09,346.31L509.92,343.82L511.75,342.69L515.4,339.69L517.23,335.82L519.06,331.03L520.89,334.53L526.37,309.01L528.2,307.05L531.85,287.14L533.68,268.24L539.16,254.46L540.99,253.92L542.82,248.75L544.65,247.71L548.3,246.96L550.13,248.17L553.79,248.63L555.61,248.59L557.44,247.3L559.27,250.96L561.1,252.46L562.92,252.96L564.75,254.25L566.58,253.5L568.41,254.71L570.23,257.25L572.06,259.7L573.89,259.7L575.72,258.91L577.55,259.45L581.2,260.87L583.03,263.83L584.86,264.87L586.68,267.66L588.51,272.28L590.34,273.86L592.17,274.03L593.99,278.44L595.82,276.61L597.65,276.11L599.48,279.19L601.31,279.94L606.79,281.98L608.62,284.98L612.27,286.15L614.1,288.85L617.75,289.93L619.58,294.1L623.24,303.93L625.07,306.34L628.72,310.67L630.55,311.92L632.38,315.33L634.2,316.33L637.86,321.5L639.69,323.41L641.51,325.2L643.34,325.29L647,332.61L648.83,333.2L650.65,335.11L652.48,334.78L654.31,336.7L656.14,337.53L657.96,338.4L659.79,338.44L661.62,339.15L663.45,338.94L665.27,340.53L667.1,339.86L668.93,339.61" style="fill: rgb(8, 115, 191); fill-opacity: 0.2; stroke-width: 0;"/></g></g><g class="errorbars"/><g class="lines"><path class="js-line" d="M-248.56,370.46L-244.91,370.96L-243.08,372.46L-224.8,375L-222.98,375.71L-217.49,376.42L-215.67,376.21L-201.04,377.58L-199.22,378L-186.42,376.34L-184.6,376.63L-159.01,375.38L-157.18,375.5L-151.7,374.09L-149.87,374.25L-137.08,373.38L-135.25,372.26L-129.77,370.01L-127.94,369.63L-116.97,366.43L-115.14,364.93L-100.52,357.43L-98.69,357.31L-95.04,354.1L-93.21,353.35L-87.73,350.64L-85.9,350.39L-82.25,346.15L-80.42,342.11L-76.76,335.15L-74.93,332.24L-73.11,331.12L-71.28,326.37L-63.97,305.88L-62.14,305.88L-60.31,305.13L-58.49,297.64L-49.35,285.27L-47.52,286.02L-40.21,271.99L-38.38,269.03L-34.73,270.57L-32.9,265.74L-27.42,254.79L-25.59,251.96L-23.76,248.5L-21.93,247.63L-16.45,240.43L-14.62,241.67L-12.79,243.09L-10.97,243.17L-5.48,245.13L-3.66,243.09L-1.83,238.38L0,230.39L1.83,223.73L3.66,222.35L10.97,169.51L12.79,158.52L16.45,154.86L18.28,140.78L20.1,131.41L21.93,126.29L25.59,108.72L27.42,105.85L29.24,104.81L31.07,97.77L34.73,73.08L36.55,56.17L40.21,30.94L42.04,30.56L43.86,9.54L45.69,0L47.52,1.08L49.35,6.25L53,17.11L54.83,16.95L56.66,32.48L58.49,54.55L62.14,96.06L63.97,121.59L65.8,133.12L67.62,136.2L73.11,225.89L74.93,233.89L76.76,246.05L78.59,250.54L80.42,252.17L82.25,267.91L84.07,278.48L85.9,267.74L87.73,283.73L89.56,292.68L91.38,294.85L93.21,294.56L96.87,307.88L98.69,309.92L100.52,310L102.35,311.42L107.83,316.71L109.66,316.96L113.32,323.79L115.14,324L118.8,323.7L120.63,321.91L122.45,322.87L124.28,321.29L129.77,315.42L131.59,315.04L135.25,305.26L137.08,303.76L138.9,302.34L140.73,299.89L144.39,297.39L146.21,297.47L148.04,296.06L149.87,292.72L151.7,292.14L153.52,305.88L155.35,304.72L157.18,305.3L159.01,302.68L160.84,303.26L162.66,303.43L164.49,302.38L166.32,301.39L168.15,298.18L169.97,296.64L171.8,291.47L173.63,285.9L175.46,283.44L177.28,278.69L179.11,263.16L180.94,264.87L182.77,265.53L184.6,264.58L186.42,264.74L188.25,260.7L190.08,259.33L191.91,255.62L193.73,255.46L195.56,255.17L197.39,253.13L199.22,253.33L201.04,254.42L206.53,252.17L208.36,251.92L210.18,251.38L212.01,247.42L213.84,245.55L215.67,241.01L217.49,237.01L219.32,236.14L221.15,236.05L222.98,232.72L226.63,233.72L228.46,236.09L230.29,237.47L232.11,236.26L233.94,235.8L235.77,239.13L237.6,239.47L239.43,240.76L244.91,245.71L246.74,247.13L250.39,252.88L252.22,248.09L255.87,240.18L257.7,238.43L259.53,237.09L261.36,226.27L263.19,221.1L265.01,221.85L268.67,220.69L270.5,217.15L272.32,216.94L274.15,217.94L275.98,216.61L277.81,213.36L279.63,212.19L281.46,210.03L285.12,209.61L286.95,203.91L290.6,191.71L292.43,180.8L296.08,167.14L297.91,164.1L301.57,128.08L303.39,116.17L308.88,90.65L310.7,90.52L316.19,66.33L318.02,59.38L321.67,41.85L323.5,43.1L325.33,37.1L327.15,37.52L328.98,40.56L330.81,40.93L334.46,54.38L336.29,53.26L338.12,117.09L339.95,101.35L341.78,97.64L343.6,98.98L347.26,96.56L349.09,96.94L350.91,45.14L352.74,71.04L358.22,107.1L360.05,112.38L361.88,114.51L363.71,125.33L367.36,140.66L369.19,143.41L372.85,151.9L374.67,151.57L383.81,189.71L385.64,208.95L387.47,208.4L389.3,213.69L394.78,224.1L396.61,230.31L398.43,229.35L400.26,231.18L403.92,245.3L405.74,248.05L407.57,266.53L409.4,267.07L411.23,260.7L413.05,260.87L414.88,271.74L416.71,276.61L418.54,282.4L420.37,271.53L422.19,281.15L424.02,284.1L425.85,285.15L427.68,302.47L429.5,302.26L431.33,304.13L433.16,308.09L434.99,309.01L438.64,309.46L440.47,299.26L442.3,309.09L444.13,314L445.95,316.42L447.78,322.2L449.61,325.83L451.44,326.66L453.26,332.49L455.09,335.82L460.57,345.86L462.4,347.77L464.23,348.52L466.06,352.18L471.54,358.76L473.37,360.35L475.2,361.76L477.02,361.43L478.85,363.68L480.68,364.55L484.33,364.93L486.16,365.55L491.64,365.43L493.47,364.88L497.13,362.1L498.96,359.47L500.78,358.26L502.61,357.97L506.27,349.35L508.09,346.31L509.92,343.82L511.75,342.69L515.4,339.69L517.23,335.82L519.06,331.03L520.89,334.53L526.37,309.01L528.2,307.05L531.85,287.14L533.68,268.24L539.16,254.46L540.99,253.92L542.82,248.75L544.65,247.71L548.3,246.96L550.13,248.17L553.79,248.63L555.61,248.59L557.44,247.3L559.27,250.96L561.1,252.46L562.92,252.96L564.75,254.25L566.58,253.5L568.41,254.71L570.23,257.25L572.06,259.7L573.89,259.7L575.72,258.91L577.55,259.45L581.2,260.87L583.03,263.83L584.86,264.87L586.68,267.66L588.51,272.28L590.34,273.86L592.17,274.03L593.99,278.44L595.82,276.61L597.65,276.11L599.48,279.19L601.31,279.94L606.79,281.98L608.62,284.98L612.27,286.15L614.1,288.85L617.75,289.93L619.58,294.1L623.24,303.93L625.07,306.34L628.72,310.67L630.55,311.92L632.38,315.33L634.2,316.33L637.86,321.5L639.69,323.41L641.51,325.2L643.34,325.29L647,332.61L648.83,333.2L650.65,335.11L652.48,334.78L654.31,336.7L656.14,337.53L657.96,338.4L659.79,338.44L661.62,339.15L663.45,338.94L665.27,340.53L667.1,339.86L668.93,339.61" style="vector-effect: non-scaling-stroke; fill: none; stroke: rgb(8, 115, 191); stroke-opacity: 1; stroke-width: 0.5px; opacity: 1;"/></g><g class="points"/><g class="text"/></g><g class="trace scatter trace5cb78d" style="stroke-miterlimit: 2;"><g class="fills"><g><path class="js-fill" d="M687.21,380L668.93,380L668.93,339.61L672.58,339.03L674.41,339.53L676.24,339.48L678.07,340.53L681.72,339.9L683.55,340.65L687.21,340.28" style="fill: rgb(8, 115, 191); fill-opacity: 0.4; stroke-width: 0;"/></g></g><g class="errorbars"/><g class="lines"><path class="js-line" d="M668.93,339.61L672.58,339.03L674.41,339.53L676.24,339.48L678.07,340.53L681.72,339.9L683.55,340.65L687.21,340.28" style="vector-effect: non-scaling-stroke; fill: none; stroke: rgb(8, 115, 191); stroke-opacity: 1; stroke-width: 2px; opacity: 1;"/></g><g class="points"/><g class="text"/></g><g class="trace scatter traceceaa6d" style="stroke-miterlimit: 2; opacity: 1;"><g class="fills"/><g class="errorbars"/><g class="lines"/><g class="points"><path class="point" transform="translate(687.21,340.28)" d="M15,0A15,15 0 1,1 0,-15A15,15 0 0,1 15,0Z" style="opacity: 1; stroke-width: 0px; fill: rgb(8, 115, 191); fill-opacity: 1;"/></g><g class="text"/></g></g></g><g class="overplot"/><path class="xlines-above crisp" style="fill: none; stroke-width: 1px; stroke: rgb(0, 0, 0); stroke-opacity: 0;" d=""/><path class="ylines-above crisp" style="fill: none;" d="M0,0"/><g class="overlines-above"/><g class="xaxislayer-above"><path class="xtick ticks crisp" d="M0,450v-5" transform="translate(110.31,0)" style="stroke: rgb(68, 68, 68); stroke-opacity: 1; stroke-width: 1px;"/><path class="xtick ticks crisp" d="M0,450v-5" transform="translate(221.8,0)" style="stroke: rgb(68, 68, 68); stroke-opacity: 1; stroke-width: 1px;"/><path class="xtick ticks crisp" d="M0,450v-5" transform="translate(329.63,0)" style="stroke: rgb(68, 68, 68); stroke-opacity: 1; stroke-width: 1px;"/><path class="xtick ticks crisp" d="M0,450v-5" transform="translate(441.12,0)" style="stroke: rgb(68, 68, 68); stroke-opacity: 1; stroke-width: 1px;"/><path class="xtick ticks crisp" d="M0,450v-5" transform="translate(552.61,0)" style="stroke: rgb(68, 68, 68); stroke-opacity: 1; stroke-width: 1px;"/><path class="xtick ticks crisp" d="M0,450v-5" transform="translate(665.93,0)" style="stroke: rgb(68, 68, 68); stroke-opacity: 1; stroke-width: 1px;"/><g class="xtick"><text text-anchor="middle" x="0" y="469" transform="translate(110.31,0)" style="font-family: 'Open Sans', verdana, arial, sans-serif; font-size: 18px; fill: rgb(42, 63, 95); fill-opacity: 1; white-space: pre;">01/11</text></g><g class="xtick"><text text-anchor="middle" x="0" y="469" transform="translate(221.8,0)" style="font-family: 'Open Sans', verdana, arial, sans-serif; font-size: 18px; fill: rgb(42, 63, 95); fill-opacity: 1; white-space: pre;">01/01</text></g><g class="xtick"><text text-anchor="middle" x="0" y="469" transform="translate(329.63,0)" style="font-family: 'Open Sans', verdana, arial, sans-serif; font-size: 18px; fill: rgb(42, 63, 95); fill-opacity: 1; white-space: pre;">01/03</text></g><g class="xtick"><text text-anchor="middle" x="0" y="469" transform="translate(441.12,0)" style="font-family: 'Open Sans', verdana, arial, sans-serif; font-size: 18px; fill: rgb(42, 63, 95); fill-opacity: 1; white-space: pre;">01/05</text></g><g class="xtick"><text text-anchor="middle" x="0" y="469" transform="translate(552.61,0)" style="font-family: 'Open Sans', verdana, arial, sans-serif; font-size: 18px; fill: rgb(42, 63, 95); fill-opacity: 1; white-space: pre;">01/07</text></g><g class="xtick"><text text-anchor="middle" x="0" y="469" transform="translate(665.93,0)" style="font-family: 'Open Sans', verdana, arial, sans-serif; font-size: 18px; fill: rgb(42, 63, 95); fill-opacity: 1; white-space: pre;">01/09</text></g></g><g class="yaxislayer-above"/><g class="overaxes-above"/></g></g><g class="polarlayer"/><g class="ternarylayer"/><g class="geolayer"/><g class="funnelarealayer"/><g class="pielayer"/><g class="treemaplayer"/><g class="sunburstlayer"/><g class="glimages"/><defs id="topdefs-7208c6"><g class="clips"/></defs><g class="layer-above"><g class="imagelayer"/><g class="shapelayer"><path data-index="0" fill-rule="evenodd" d="M-977.1500000000001,416.4L358.88,416.4" clip-path="url('#clip7208c6xy')" style="opacity: 1; stroke: rgb(255, 0, 0); stroke-opacity: 1; fill: rgb(0, 0, 0); fill-opacity: 0; stroke-dasharray: 3px, 3px; stroke-width: 1.5px;"/></g></g><g class="infolayer"><g class="g-gtitle"><text class="gtitle" x="375" y="25" text-anchor="middle" dy="0.7em" style="font-family: 'Open Sans', verdana, arial, sans-serif; font-size: 50px; fill: rgb(42, 63, 95); opacity: 1; font-weight: normal; white-space: pre;"><tspan style="font-weight:bold">Hauts-de-Seine (92)</tspan></text></g><g class="g-xtitle"/><g class="annotation" data-index="0" style="opacity: 1;"><g class="annotation-text-g" transform="rotate(0,695.21,350.28)"><g class="cursor-pointer" transform="translate(652, 314)"><rect class="bg" x="0.5" y="0.5" width="86" height="71" style="stroke-width: 1px; stroke: rgb(0, 0, 0); stroke-opacity: 0; fill: rgb(255, 255, 255); fill-opacity: 0.6;"/><text class="annotation-text" text-anchor="middle" x="43.53125" y="55.5" style="font-family: 'Open Sans', verdana, arial, sans-serif; font-size: 50px; fill: rgb(8, 115, 191); fill-opacity: 1; white-space: pre;"> <tspan style="font-weight:bold">59 </tspan></text></g></g><g class="annotation-arrow-g" style="opacity: 1;"><path d="M723.61,385.78L735.21,400.28" style="stroke-width: 1px; stroke: rgb(8, 115, 191); stroke-opacity: 1; stroke-dasharray: 0px, 0px, 18.5691px, 18.5691px;"/></g></g></g></svg>