<svg class="main-svg" xmlns="http://www.w3.org/2000/svg" xmlns:xlink="http://www.w3.org/1999/xlink" width="1125" height="750" style="" viewBox="0 0 750 500"><rect x="0" y="0" width="750" height="500" style="fill: rgb(0, 0, 0); fill-opacity: 0;"/><defs id="defs-ced7dd"><g class="clips"><clipPath id="clipced7ddxyplot" class="plotclip"><rect width="693" height="380"/></clipPath><clipPath class="axesclip" id="clipced7ddx"><rect x="50" y="0" width="693" height="500"/></clipPath><clipPath class="axesclip" id="clipced7ddy"><rect x="0" y="70" width="750" height="380"/></clipPath><clipPath class="axesclip" id="clipced7ddxy"><rect x="50" y="70" width="693" height="380"/></clipPath></g><g class="gradients"/></defs><g class="bglayer"><rect class="bg" x="50" y="70" width="693" height="380" style="fill: rgb(0, 0, 0); fill-opacity: 0; stroke-width: 0;"/></g><g class="layer-below"><g class="imagelayer"/><g class="shapelayer"/></g><g class="cartesianlayer"><g class="subplot xy"><g class="layer-subplot"><g class="shapelayer"/><g class="imagelayer"/></g><g class="gridlayer"><g class="x"><path class="xgrid crisp" transform="translate(106.05,0)" d="M0,70v380" style="stroke: rgb(255, 255, 255); stroke-opacity: 1; stroke-width: 1px;"/><path class="xgrid crisp" transform="translate(209.66,0)" d="M0,70v380" style="stroke: rgb(255, 255, 255); stroke-opacity: 1; stroke-width: 1px;"/><path class="xgrid crisp" transform="translate(309.88,0)" d="M0,70v380" style="stroke: rgb(255, 255, 255); stroke-opacity: 1; stroke-width: 1px;"/><path class="xgrid crisp" transform="translate(413.49,0)" d="M0,70v380" style="stroke: rgb(255, 255, 255); stroke-opacity: 1; stroke-width: 1px;"/><path class="xgrid crisp" transform="translate(517.1,0)" d="M0,70v380" style="stroke: rgb(255, 255, 255); stroke-opacity: 1; stroke-width: 1px;"/><path class="xgrid crisp" transform="translate(622.4,0)" d="M0,70v380" style="stroke: rgb(255, 255, 255); stroke-opacity: 1; stroke-width: 1px;"/><path class="xgrid crisp" transform="translate(726.01,0)" d="M0,70v380" style="stroke: rgb(255, 255, 255); stroke-opacity: 1; stroke-width: 1px;"/></g><g class="y"/></g><g class="zerolinelayer"/><path class="xlines-below"/><path class="ylines-below"/><g class="overlines-below"/><g class="xaxislayer-below"/><g class="yaxislayer-below"/><g class="overaxes-below"/><g class="plot" transform="translate(50, 70)" clip-path="url('#clipced7ddxyplot')"><g class="scatterlayer mlayer"><g class="trace scatter trace47e335" style="stroke-miterlimit: 2;"><g class="fills"><g><path class="js-fill" d="M664.13,380L-231,380L-231,377.75L-173.25,379.69L-171.55,379.59L-100.21,378.06L-98.51,377.75L-93.42,375.5L-91.72,375.5L-81.53,370.09L-79.83,369.88L-73.04,355.17L-71.34,354.25L-67.94,352.82L-66.24,352.92L-61.15,353.13L-59.45,350.47L-52.65,349.96L-50.96,347.81L-45.86,334.53L-44.16,334.43L-40.76,323.09L-39.07,320.33L-37.37,317.16L-35.67,317.67L-33.97,320.33L-32.27,320.33L-30.57,318.08L-28.87,318.18L-27.18,318.69L-25.48,316.96L-23.78,317.88L-22.08,316.55L-16.99,316.55L-15.29,314.3L-13.59,316.96L-11.89,317.47L-8.49,318.59L-6.79,322.07L-3.4,324.93L-1.7,324.62L0,320.53L1.7,319.31L3.4,319L5.1,313.58L6.79,309.91L8.49,303.37L10.19,297.03L11.89,295.29L13.59,291.72L15.29,291.72L22.08,248.39L23.78,230.21L25.48,222.34L27.18,222.34L35.67,118.12L37.37,110.25L39.07,107.39L40.76,79.7L44.16,29.12L45.86,20.64L47.56,6.03L49.26,8.58L50.96,8.17L52.65,0.61L54.35,0L56.05,8.38L57.75,21.76L59.45,43.32L62.85,43.12L64.54,76.02L66.24,103.92L67.94,157.25L69.64,161.34L71.34,181.47L73.04,193.22L74.74,195.98L78.13,230.82L79.83,217.54L81.53,242.98L83.23,255.65L84.93,259.12L86.63,258.71L88.32,273.84L90.02,278.64L91.72,283.03L93.42,283.54L95.12,287.02L96.82,287.12L98.51,286.92L100.21,287.53L101.91,293.05L103.61,293.15L105.31,296.01L107.01,293.97L112.1,287.94L113.8,281.5L115.5,282.22L117.2,284.57L118.9,281.19L120.6,283.14L122.29,284.26L123.99,284.16L125.69,290.19L127.39,290.8L129.09,294.48L130.79,300.71L134.18,301.32L135.88,305L139.28,306.02L140.98,305.72L142.68,317.57L144.38,315.32L146.07,314.71L147.77,317.26L149.47,311.85L151.17,310.11L154.57,309.91L156.26,308.58L157.96,309.19L159.66,304.08L164.76,296.11L166.46,282.52L171.55,287.43L173.25,292.84L174.95,296.52L176.65,294.99L178.35,292.54L180.04,293.25L181.74,292.13L183.44,287.12L186.84,280.79L188.54,280.07L190.24,282.52L191.93,282.22L193.63,282.42L195.33,288.96L197.03,291.62L198.73,292.13L200.43,292.64L202.13,289.57L205.52,289.16L207.22,292.13L208.92,295.6L210.62,303.26L212.32,309.8L214.01,319.51L215.71,322.58L217.41,324.01L220.81,335.14L222.51,335.55L224.21,338.41L225.9,339.74L227.6,340.15L229.3,339.54L234.4,343.42L236.1,343.11L237.79,344.24L239.49,343.83L242.89,345.16L244.59,345.87L246.29,346.89L247.99,346.49L251.38,349.04L253.08,349.35L261.57,353.03L263.27,353.23L264.97,353.13L266.67,351.7L268.37,350.37L270.07,350.47L273.46,346.18L275.16,346.69L276.86,346.69L278.56,345.46L281.96,340.35L283.65,338.31L285.35,333.41L287.05,332.59L288.75,332.39L290.45,329.32L292.15,331.67L293.85,330.14L295.54,326.87L297.24,327.38L298.94,324.93L300.64,325.03L304.04,315.53L305.74,313.69L307.43,313.28L309.13,311.44L312.53,310.83L314.23,325.23L315.93,319.31L317.63,318.18L321.02,323.39L322.72,324.21L324.42,324.21L326.12,309.29L327.82,314.81L329.51,314.71L331.21,314.2L332.91,312.87L334.61,313.99L336.31,313.89L338.01,320.33L339.71,322.07L341.4,321.86L343.1,320.74L344.8,321.66L346.5,319.31L348.2,319.1L349.9,316.96L351.6,318.59L353.29,318.39L356.69,321.15L358.39,326.05L360.09,326.05L361.79,327.28L363.49,327.07L365.18,329.22L366.88,332.39L368.58,330.75L370.28,330.03L371.98,330.34L373.68,330.03L375.38,330.85L377.07,332.28L378.77,337.29L382.17,334.33L383.87,334.02L385.57,335.45L387.26,334.33L388.96,333.41L390.66,325.74L392.36,326.77L394.06,322.58L395.76,323.19L397.46,330.55L399.15,318.9L400.85,313.89L404.25,302.45L405.95,303.16L407.65,303.06L409.35,291.51L411.04,304.39L412.74,308.27L416.14,323.19L417.84,326.66L419.54,326.66L421.24,333.61L422.93,334.43L424.63,337.19L426.33,339.13L428.03,339.74L431.43,340.76L433.13,342.71L438.22,352.82L439.92,354.97L441.62,356.29L443.32,356.5L445.01,359.77L446.71,360.59L448.41,360.48L450.11,361.81L451.81,363.34L453.51,363.75L455.21,363.65L456.9,362.22L460.3,359.77L462,357.83L465.4,353.74L467.1,353.64L470.49,345.36L472.19,340.97L475.59,336.68L477.29,334.43L478.99,334.12L480.68,330.65L482.38,324.42L484.08,330.03L487.48,307.76L489.18,300.51L490.88,298.77L492.57,277.82L497.67,209.77L499.37,191.79L501.07,184.53L502.76,184.33L504.46,170.43L506.16,168.08L507.86,168.39L509.56,171.05L511.26,173.19L512.96,177.59L514.65,176.15L516.35,182.08L518.05,183.31L519.75,186.58L521.45,188.72L523.15,189.34L524.85,182.59L526.54,183.51L528.24,185.35L529.94,192.91L535.04,192.5L536.74,194.14L538.43,193.83L540.13,195.88L541.83,192.81L543.53,199.25L545.23,204.97L546.93,215.7L548.63,224.18L550.32,224.38L558.82,276.9L560.51,280.99L562.21,282.73L563.91,294.58L565.61,302.24L567.31,303.47L569.01,303.47L570.71,306.53L574.1,307.04L575.8,310.01L577.5,311.75L579.2,316.04L580.9,321.04L582.6,322.37L587.69,324.72L589.39,328.81L591.09,329.32L592.79,331.16L596.18,336.47L597.88,336.68L599.58,339.74L601.28,341.07L602.98,344.65L604.68,346.18L608.07,345.36L609.77,345.97L611.47,347L613.17,346.89L616.57,347.41L618.26,350.27L619.96,352.72L621.66,351.7L625.06,356.4L626.76,355.89L631.85,353.43L633.55,353.74L638.65,348.73L640.35,345.26L642.04,343.62L643.74,339.54L645.44,339.64L647.14,333.71L650.54,324.11L652.24,323.29L653.93,320.02L655.63,322.07L657.33,322.07L659.03,324.01L664.13,326.97" style="fill: rgb(8, 115, 191); fill-opacity: 0.2; stroke-width: 0;"/></g></g><g class="errorbars"/><g class="lines"><path class="js-line" d="M-231,377.75L-173.25,379.69L-171.55,379.59L-100.21,378.06L-98.51,377.75L-93.42,375.5L-91.72,375.5L-81.53,370.09L-79.83,369.88L-73.04,355.17L-71.34,354.25L-67.94,352.82L-66.24,352.92L-61.15,353.13L-59.45,350.47L-52.65,349.96L-50.96,347.81L-45.86,334.53L-44.16,334.43L-40.76,323.09L-39.07,320.33L-37.37,317.16L-35.67,317.67L-33.97,320.33L-32.27,320.33L-30.57,318.08L-28.87,318.18L-27.18,318.69L-25.48,316.96L-23.78,317.88L-22.08,316.55L-16.99,316.55L-15.29,314.3L-13.59,316.96L-11.89,317.47L-8.49,318.59L-6.79,322.07L-3.4,324.93L-1.7,324.62L0,320.53L1.7,319.31L3.4,319L5.1,313.58L6.79,309.91L8.49,303.37L10.19,297.03L11.89,295.29L13.59,291.72L15.29,291.72L22.08,248.39L23.78,230.21L25.48,222.34L27.18,222.34L35.67,118.12L37.37,110.25L39.07,107.39L40.76,79.7L44.16,29.12L45.86,20.64L47.56,6.03L49.26,8.58L50.96,8.17L52.65,0.61L54.35,0L56.05,8.38L57.75,21.76L59.45,43.32L62.85,43.12L64.54,76.02L66.24,103.92L67.94,157.25L69.64,161.34L71.34,181.47L73.04,193.22L74.74,195.98L78.13,230.82L79.83,217.54L81.53,242.98L83.23,255.65L84.93,259.12L86.63,258.71L88.32,273.84L90.02,278.64L91.72,283.03L93.42,283.54L95.12,287.02L96.82,287.12L98.51,286.92L100.21,287.53L101.91,293.05L103.61,293.15L105.31,296.01L107.01,293.97L112.1,287.94L113.8,281.5L115.5,282.22L117.2,284.57L118.9,281.19L120.6,283.14L122.29,284.26L123.99,284.16L125.69,290.19L127.39,290.8L129.09,294.48L130.79,300.71L134.18,301.32L135.88,305L139.28,306.02L140.98,305.72L142.68,317.57L144.38,315.32L146.07,314.71L147.77,317.26L149.47,311.85L151.17,310.11L154.57,309.91L156.26,308.58L157.96,309.19L159.66,304.08L164.76,296.11L166.46,282.52L171.55,287.43L173.25,292.84L174.95,296.52L176.65,294.99L178.35,292.54L180.04,293.25L181.74,292.13L183.44,287.12L186.84,280.79L188.54,280.07L190.24,282.52L191.93,282.22L193.63,282.42L195.33,288.96L197.03,291.62L198.73,292.13L200.43,292.64L202.13,289.57L205.52,289.16L207.22,292.13L208.92,295.6L210.62,303.26L212.32,309.8L214.01,319.51L215.71,322.58L217.41,324.01L220.81,335.14L222.51,335.55L224.21,338.41L225.9,339.74L227.6,340.15L229.3,339.54L234.4,343.42L236.1,343.11L237.79,344.24L239.49,343.83L242.89,345.16L244.59,345.87L246.29,346.89L247.99,346.49L251.38,349.04L253.08,349.35L261.57,353.03L263.27,353.23L264.97,353.13L266.67,351.7L268.37,350.37L270.07,350.47L273.46,346.18L275.16,346.69L276.86,346.69L278.56,345.46L281.96,340.35L283.65,338.31L285.35,333.41L287.05,332.59L288.75,332.39L290.45,329.32L292.15,331.67L293.85,330.14L295.54,326.87L297.24,327.38L298.94,324.93L300.64,325.03L304.04,315.53L305.74,313.69L307.43,313.28L309.13,311.44L312.53,310.83L314.23,325.23L315.93,319.31L317.63,318.18L321.02,323.39L322.72,324.21L324.42,324.21L326.12,309.29L327.82,314.81L329.51,314.71L331.21,314.2L332.91,312.87L334.61,313.99L336.31,313.89L338.01,320.33L339.71,322.07L341.4,321.86L343.1,320.74L344.8,321.66L346.5,319.31L348.2,319.1L349.9,316.96L351.6,318.59L353.29,318.39L356.69,321.15L358.39,326.05L360.09,326.05L361.79,327.28L363.49,327.07L365.18,329.22L366.88,332.39L368.58,330.75L370.28,330.03L371.98,330.34L373.68,330.03L375.38,330.85L377.07,332.28L378.77,337.29L382.17,334.33L383.87,334.02L385.57,335.45L387.26,334.33L388.96,333.41L390.66,325.74L392.36,326.77L394.06,322.58L395.76,323.19L397.46,330.55L399.15,318.9L400.85,313.89L404.25,302.45L405.95,303.16L407.65,303.06L409.35,291.51L411.04,304.39L412.74,308.27L416.14,323.19L417.84,326.66L419.54,326.66L421.24,333.61L422.93,334.43L424.63,337.19L426.33,339.13L428.03,339.74L431.43,340.76L433.13,342.71L438.22,352.82L439.92,354.97L441.62,356.29L443.32,356.5L445.01,359.77L446.71,360.59L448.41,360.48L450.11,361.81L451.81,363.34L453.51,363.75L455.21,363.65L456.9,362.22L460.3,359.77L462,357.83L465.4,353.74L467.1,353.64L470.49,345.36L472.19,340.97L475.59,336.68L477.29,334.43L478.99,334.12L480.68,330.65L482.38,324.42L484.08,330.03L487.48,307.76L489.18,300.51L490.88,298.77L492.57,277.82L497.67,209.77L499.37,191.79L501.07,184.53L502.76,184.33L504.46,170.43L506.16,168.08L507.86,168.39L509.56,171.05L511.26,173.19L512.96,177.59L514.65,176.15L516.35,182.08L518.05,183.31L519.75,186.58L521.45,188.72L523.15,189.34L524.85,182.59L526.54,183.51L528.24,185.35L529.94,192.91L535.04,192.5L536.74,194.14L538.43,193.83L540.13,195.88L541.83,192.81L543.53,199.25L545.23,204.97L546.93,215.7L548.63,224.18L550.32,224.38L558.82,276.9L560.51,280.99L562.21,282.73L563.91,294.58L565.61,302.24L567.31,303.47L569.01,303.47L570.71,306.53L574.1,307.04L575.8,310.01L577.5,311.75L579.2,316.04L580.9,321.04L582.6,322.37L587.69,324.72L589.39,328.81L591.09,329.32L592.79,331.16L596.18,336.47L597.88,336.68L599.58,339.74L601.28,341.07L602.98,344.65L604.68,346.18L608.07,345.36L609.77,345.97L611.47,347L613.17,346.89L616.57,347.41L618.26,350.27L619.96,352.72L621.66,351.7L625.06,356.4L626.76,355.89L631.85,353.43L633.55,353.74L638.65,348.73L640.35,345.26L642.04,343.62L643.74,339.54L645.44,339.64L647.14,333.71L650.54,324.11L652.24,323.29L653.93,320.02L655.63,322.07L657.33,322.07L659.03,324.01L664.13,326.97" style="vector-effect: non-scaling-stroke; fill: none; stroke: rgb(8, 115, 191); stroke-opacity: 1; stroke-width: 0.5px; opacity: 1;"/></g><g class="points"/><g class="text"/></g><g class="trace scatter tracee4cd06" style="stroke-miterlimit: 2;"><g class="fills"><g><path class="js-fill" d="M681.11,380L664.13,380L664.13,326.97L669.22,316.45L670.92,324.42L672.62,319.82L674.32,318.59L676.01,318.08L677.71,320.53L679.41,321.04L681.11,322.58" style="fill: rgb(8, 115, 191); fill-opacity: 0.4; stroke-width: 0;"/></g></g><g class="errorbars"/><g class="lines"><path class="js-line" d="M664.13,326.97L669.22,316.45L670.92,324.42L672.62,319.82L674.32,318.59L676.01,318.08L677.71,320.53L679.41,321.04L681.11,322.58" style="vector-effect: non-scaling-stroke; fill: none; stroke: rgb(8, 115, 191); stroke-opacity: 1; stroke-width: 2px; opacity: 1;"/></g><g class="points"/><g class="text"/></g><g class="trace scatter trace23df65" style="stroke-miterlimit: 2; opacity: 1;"><g class="fills"/><g class="errorbars"/><g class="lines"/><g class="points"><path class="point" transform="translate(681.11,322.58)" d="M15,0A15,15 0 1,1 0,-15A15,15 0 0,1 15,0Z" style="opacity: 1; stroke-width: 0px; fill: rgb(8, 115, 191); fill-opacity: 1;"/></g><g class="text"/></g></g></g><g class="overplot"/><path class="xlines-above crisp" style="fill: none; stroke-width: 1px; stroke: rgb(0, 0, 0); stroke-opacity: 0;" d=""/><path class="ylines-above crisp" style="fill: none;" d="M0,0"/><g class="overlines-above"/><g class="xaxislayer-above"><path class="xtick ticks crisp" d="M0,450v-5" transform="translate(106.05,0)" style="stroke: rgb(68, 68, 68); stroke-opacity: 1; stroke-width: 1px;"/><path class="xtick ticks crisp" d="M0,450v-5" transform="translate(209.66,0)" style="stroke: rgb(68, 68, 68); stroke-opacity: 1; stroke-width: 1px;"/><path class="xtick ticks crisp" d="M0,450v-5" transform="translate(309.88,0)" style="stroke: rgb(68, 68, 68); stroke-opacity: 1; stroke-width: 1px;"/><path class="xtick ticks crisp" d="M0,450v-5" transform="translate(413.49,0)" style="stroke: rgb(68, 68, 68); stroke-opacity: 1; stroke-width: 1px;"/><path class="xtick ticks crisp" d="M0,450v-5" transform="translate(517.1,0)" style="stroke: rgb(68, 68, 68); stroke-opacity: 1; stroke-width: 1px;"/><path class="xtick ticks crisp" d="M0,450v-5" transform="translate(622.4,0)" style="stroke: rgb(68, 68, 68); stroke-opacity: 1; stroke-width: 1px;"/><path class="xtick ticks crisp" d="M0,450v-5" transform="translate(726.01,0)" style="stroke: rgb(68, 68, 68); stroke-opacity: 1; stroke-width: 1px;"/><g class="xtick"><text text-anchor="middle" x="0" y="469" transform="translate(106.05,0)" style="font-family: 'Open Sans', verdana, arial, sans-serif; font-size: 18px; fill: rgb(42, 63, 95); fill-opacity: 1; white-space: pre;">01/11</text></g><g class="xtick"><text text-anchor="middle" x="0" y="469" transform="translate(209.66,0)" style="font-family: 'Open Sans', verdana, arial, sans-serif; font-size: 18px; fill: rgb(42, 63, 95); fill-opacity: 1; white-space: pre;">01/01</text></g><g class="xtick"><text text-anchor="middle" x="0" y="469" transform="translate(309.88,0)" style="font-family: 'Open Sans', verdana, arial, sans-serif; font-size: 18px; fill: rgb(42, 63, 95); fill-opacity: 1; white-space: pre;">01/03</text></g><g class="xtick"><text text-anchor="middle" x="0" y="469" transform="translate(413.49,0)" style="font-family: 'Open Sans', verdana, arial, sans-serif; font-size: 18px; fill: rgb(42, 63, 95); fill-opacity: 1; white-space: pre;">01/05</text></g><g class="xtick"><text text-anchor="middle" x="0" y="469" transform="translate(517.1,0)" style="font-family: 'Open Sans', verdana, arial, sans-serif; font-size: 18px; fill: rgb(42, 63, 95); fill-opacity: 1; white-space: pre;">01/07</text></g><g class="xtick"><text text-anchor="middle" x="0" y="469" transform="translate(622.4,0)" style="font-family: 'Open Sans', verdana, arial, sans-serif; font-size: 18px; fill: rgb(42, 63, 95); fill-opacity: 1; white-space: pre;">01/09</text></g><g class="xtick"><text text-anchor="middle" x="0" y="469" transform="translate(726.01,0)" style="font-family: 'Open Sans', verdana, arial, sans-serif; font-size: 18px; fill: rgb(42, 63, 95); fill-opacity: 1; white-space: pre;">01/11</text></g></g><g class="yaxislayer-above"/><g class="overaxes-above"/></g></g><g class="polarlayer"/><g class="ternarylayer"/><g class="geolayer"/><g class="funnelarealayer"/><g class="pielayer"/><g class="treemaplayer"/><g class="sunburstlayer"/><g class="glimages"/><defs id="topdefs-ced7dd"><g class="clips"/></defs><g class="layer-above"><g class="imagelayer"/><g class="shapelayer"><path data-index="0" fill-rule="evenodd" d="M-904.57,415.1L337.05,415.1" clip-path="url('#clipced7ddxy')" style="opacity: 1; stroke: rgb(255, 0, 0); stroke-opacity: 1; fill: rgb(0, 0, 0); fill-opacity: 0; stroke-dasharray: 3px, 3px; stroke-width: 1.5px;"/></g></g><g class="infolayer"><g class="g-gtitle"><text class="gtitle" x="375" y="25" text-anchor="middle" dy="0.7em" style="font-family: 'Open Sans', verdana, arial, sans-serif; font-size: 50px; fill: rgb(42, 63, 95); opacity: 1; font-weight: normal; white-space: pre;"><tspan style="font-weight:bold">Pyrénées-Atlantiques (64)</tspan></text></g><g class="g-xtitle"/><g class="annotation" data-index="0" style="opacity: 1;"><g class="annotation-text-g" transform="rotate(0,689.11,332.58)"><g class="cursor-pointer" transform="translate(646, 297)"><rect class="bg" x="0.5" y="0.5" width="86" height="71" style="stroke-width: 1px; stroke: rgb(0, 0, 0); stroke-opacity: 0; fill: rgb(255, 255, 255); fill-opacity: 0.6;"/><text class="annotation-text" text-anchor="middle" x="43.53125" y="55.5" style="font-family: 'Open Sans', verdana, arial, sans-serif; font-size: 50px; fill: rgb(8, 115, 191); fill-opacity: 1; white-space: pre;"> <tspan style="font-weight:bold">82 </tspan></text></g></g><g class="annotation-arrow-g" style="opacity: 1;"><path d="M717.51,368.08L729.11,382.58" style="stroke-width: 1px; stroke: rgb(8, 115, 191); stroke-opacity: 1; stroke-dasharray: 0px, 0px, 18.569px, 18.569px;"/></g></g></g></svg>