<svg class="main-svg" xmlns="http://www.w3.org/2000/svg" xmlns:xlink="http://www.w3.org/1999/xlink" width="1125" height="750" style="" viewBox="0 0 750 500"><rect x="0" y="0" width="750" height="500" style="fill: rgb(0, 0, 0); fill-opacity: 0;"/><defs id="defs-331869"><g class="clips"><clipPath id="clip331869xyplot" class="plotclip"><rect width="700" height="380"/></clipPath><clipPath class="axesclip" id="clip331869x"><rect x="50" y="0" width="700" height="500"/></clipPath><clipPath class="axesclip" id="clip331869y"><rect x="0" y="70" width="750" height="380"/></clipPath><clipPath class="axesclip" id="clip331869xy"><rect x="50" y="70" width="700" height="380"/></clipPath></g><g class="gradients"/></defs><g class="bglayer"><rect class="bg" x="50" y="70" width="700" height="380" style="fill: rgb(0, 0, 0); fill-opacity: 0; stroke-width: 0;"/></g><g class="layer-below"><g class="imagelayer"/><g class="shapelayer"/></g><g class="cartesianlayer"><g class="subplot xy"><g class="layer-subplot"><g class="shapelayer"/><g class="imagelayer"/></g><g class="gridlayer"><g class="x"><path class="xgrid crisp" transform="translate(90.88,0)" d="M0,70v380" style="stroke: rgb(255, 255, 255); stroke-opacity: 1; stroke-width: 1px;"/><path class="xgrid crisp" transform="translate(166.45999999999998,0)" d="M0,70v380" style="stroke: rgb(255, 255, 255); stroke-opacity: 1; stroke-width: 1px;"/><path class="xgrid crisp" transform="translate(239.56,0)" d="M0,70v380" style="stroke: rgb(255, 255, 255); stroke-opacity: 1; stroke-width: 1px;"/><path class="xgrid crisp" transform="translate(315.13,0)" d="M0,70v380" style="stroke: rgb(255, 255, 255); stroke-opacity: 1; stroke-width: 1px;"/><path class="xgrid crisp" transform="translate(390.71,0)" d="M0,70v380" style="stroke: rgb(255, 255, 255); stroke-opacity: 1; stroke-width: 1px;"/><path class="xgrid crisp" transform="translate(467.52,0)" d="M0,70v380" style="stroke: rgb(255, 255, 255); stroke-opacity: 1; stroke-width: 1px;"/><path class="xgrid crisp" transform="translate(543.1,0)" d="M0,70v380" style="stroke: rgb(255, 255, 255); stroke-opacity: 1; stroke-width: 1px;"/><path class="xgrid crisp" transform="translate(618.67,0)" d="M0,70v380" style="stroke: rgb(255, 255, 255); stroke-opacity: 1; stroke-width: 1px;"/><path class="xgrid crisp" transform="translate(691.77,0)" d="M0,70v380" style="stroke: rgb(255, 255, 255); stroke-opacity: 1; stroke-width: 1px;"/></g><g class="y"/></g><g class="zerolinelayer"/><path class="xlines-below"/><path class="ylines-below"/><g class="overlines-below"/><g class="xaxislayer-below"/><g class="yaxislayer-below"/><g class="overaxes-below"/><g class="plot" transform="translate(50, 70)" clip-path="url('#clip331869xyplot')"><g class="scatterlayer mlayer"><g class="trace scatter trace514543" style="stroke-miterlimit: 2;"><g class="fills"><g><path class="js-fill" d="M678.94,380L-168.5,380L-168.5,378.99L-89.2,379.34L-87.96,379.27L-61.95,377.7L-60.71,377.45L-54.51,376.96L-53.27,376.6L-47.08,375.62L-45.84,375.01L-38.41,373.47L-37.17,373.58L-14.87,370.36L-13.63,370.49L-7.43,368.88L-6.19,368.97L-3.72,369.34L-2.48,368.93L1.24,367.64L2.48,367.41L8.67,360.62L9.91,359.9L11.15,359.94L12.39,358.7L16.11,354.84L17.35,354.62L21.06,353.06L22.3,351.76L24.78,348.6L26.02,345.74L27.26,344.41L28.5,344.4L32.21,337.99L33.45,337.99L35.93,338.91L37.17,338.68L38.41,338.98L39.65,340.41L43.36,343.53L44.6,344.22L45.84,344.4L47.08,346.82L48.32,348.52L49.56,353.6L50.8,354.4L52.04,356.72L55.75,358.95L56.99,361.03L58.23,359.16L59.47,361.24L61.95,363.25L63.19,363.3L65.66,365.74L66.9,366.55L69.38,368.02L70.62,368.29L74.34,368.91L75.58,369.4L83.01,369.75L84.25,369.53L102.83,367.29L104.07,369.28L115.22,368.52L116.46,368.04L120.18,366.78L121.42,364.61L126.37,365.03L127.61,365.09L146.19,360.72L147.43,359.9L154.87,357.97L156.11,358.47L163.54,359.97L164.78,360.22L169.73,359.86L170.97,359.32L174.69,356.99L175.93,356.63L179.65,353.72L180.88,353.6L183.36,352.39L184.6,352.56L189.56,351.39L190.8,351.55L195.75,351.02L196.99,349.9L201.95,345.27L203.19,342.07L205.66,337.11L206.9,334.87L209.38,331.22L210.62,331.09L214.34,324.67L215.58,323.55L218.05,321L219.29,320.95L220.53,319.63L221.77,319.44L225.49,320.69L226.73,321.43L227.96,321.91L229.2,332.92L230.44,332.35L231.68,333.03L234.16,336.14L235.4,335.99L236.64,336.19L237.88,328.61L240.35,335.06L241.59,336.54L244.07,339.99L245.31,339.69L247.79,342.56L249.03,342.37L252.74,343.68L253.98,343.92L260.18,349.26L261.42,352.83L263.89,353.34L265.13,354.61L268.85,357.15L270.09,356.81L271.33,356.83L272.57,358.02L275.04,359.03L276.28,361.81L277.52,361.97L278.76,361.07L281.24,362.43L282.48,363.07L283.72,363.68L284.96,361.89L287.43,363.81L288.67,363.86L289.91,366.85L291.15,367.26L297.35,369.3L298.58,368.13L302.3,371.68L303.54,372.28L320.88,377.52L322.12,377.72L346.9,377.22L348.14,376.95L353.1,376.33L354.34,375.55L359.29,372.78L360.53,371.75L363.01,369.08L364.25,368.12L366.73,367.04L367.96,366.34L371.68,364.74L372.92,364.49L375.4,364.7L376.64,364.14L387.79,362.32L389.03,361.57L395.22,362.37L396.46,363.12L397.7,364.11L398.94,364.02L403.89,364.88L405.13,364.99L407.61,364.85L408.85,365.2L411.33,365.53L412.57,366.05L415.04,366.99L416.28,367.45L418.76,367.19L420,368.15L429.91,372.48L431.15,372.56L442.3,374.37L443.54,374.72L465.84,375.22L467.08,374.97L472.04,375.36L473.27,375.34L483.19,374.63L484.42,374.72L488.14,374.1L489.38,374.79L491.86,373.92L493.1,373.9L496.81,373.68L498.05,372.39L503.01,372.57L504.25,372.43L505.49,372.4L506.73,371.47L509.2,369.99L510.44,368.25L512.92,366.36L514.16,366.18L521.59,358.81L522.83,358.58L526.55,352.03L527.79,349.97L530.27,346.27L531.5,345.97L535.22,340.91L536.46,340.34L538.94,338.33L540.18,338.16L547.61,325.9L548.85,325.28L551.33,314.65L552.57,306.12L555.04,286.32L556.28,290.86L557.52,285.25L558.76,252.88L563.72,132.31L564.96,129.2L566.19,121.48L567.43,85.78L569.91,56.63L571.15,50.37L572.39,39.85L573.63,3.45L574.87,0L576.11,11.48L578.58,21.94L579.82,26.27L582.3,26.71L583.54,26.45L584.78,28.74L586.02,32.61L588.5,40.83L589.73,49.93L593.45,72.88L594.69,88.31L598.41,131.05L599.65,141.98L600.88,146.98L602.12,164.96L607.08,215.32L608.32,224.9L609.56,228.73L610.8,245.76L615.75,287.42L616.99,294.37L618.23,296.77L619.47,307.12L624.42,327.32L625.66,330.17L626.9,331.6L628.14,337.88L631.86,348.32L633.1,351.1L634.34,353.23L635.58,353.55L638.05,355.55L639.29,356.23L641.77,357.67L643.01,357.51L645.49,357.09L646.73,356.45L650.44,352.43L651.68,351.08L652.92,350.59L654.16,346.56L659.12,332.21L660.35,328.08L661.59,326.95L662.83,316.24L669.03,274.65L670.27,273.46L672.74,258.95L673.98,255.06L675.22,252.97L676.46,253.46L678.94,252.58" style="fill: rgb(8, 115, 191); fill-opacity: 0.2; stroke-width: 0;"/></g></g><g class="errorbars"/><g class="lines"><path class="js-line" d="M-168.5,378.99L-89.2,379.34L-87.96,379.27L-61.95,377.7L-60.71,377.45L-54.51,376.96L-53.27,376.6L-47.08,375.62L-45.84,375.01L-38.41,373.47L-37.17,373.58L-14.87,370.36L-13.63,370.49L-7.43,368.88L-6.19,368.97L-3.72,369.34L-2.48,368.93L1.24,367.64L2.48,367.41L8.67,360.62L9.91,359.9L11.15,359.94L12.39,358.7L16.11,354.84L17.35,354.62L21.06,353.06L22.3,351.76L24.78,348.6L26.02,345.74L27.26,344.41L28.5,344.4L32.21,337.99L33.45,337.99L35.93,338.91L37.17,338.68L38.41,338.98L39.65,340.41L43.36,343.53L44.6,344.22L45.84,344.4L47.08,346.82L48.32,348.52L49.56,353.6L50.8,354.4L52.04,356.72L55.75,358.95L56.99,361.03L58.23,359.16L59.47,361.24L61.95,363.25L63.19,363.3L65.66,365.74L66.9,366.55L69.38,368.02L70.62,368.29L74.34,368.91L75.58,369.4L83.01,369.75L84.25,369.53L102.83,367.29L104.07,369.28L115.22,368.52L116.46,368.04L120.18,366.78L121.42,364.61L126.37,365.03L127.61,365.09L146.19,360.72L147.43,359.9L154.87,357.97L156.11,358.47L163.54,359.97L164.78,360.22L169.73,359.86L170.97,359.32L174.69,356.99L175.93,356.63L179.65,353.72L180.88,353.6L183.36,352.39L184.6,352.56L189.56,351.39L190.8,351.55L195.75,351.02L196.99,349.9L201.95,345.27L203.19,342.07L205.66,337.11L206.9,334.87L209.38,331.22L210.62,331.09L214.34,324.67L215.58,323.55L218.05,321L219.29,320.95L220.53,319.63L221.77,319.44L225.49,320.69L226.73,321.43L227.96,321.91L229.2,332.92L230.44,332.35L231.68,333.03L234.16,336.14L235.4,335.99L236.64,336.19L237.88,328.61L240.35,335.06L241.59,336.54L244.07,339.99L245.31,339.69L247.79,342.56L249.03,342.37L252.74,343.68L253.98,343.92L260.18,349.26L261.42,352.83L263.89,353.34L265.13,354.61L268.85,357.15L270.09,356.81L271.33,356.83L272.57,358.02L275.04,359.03L276.28,361.81L277.52,361.97L278.76,361.07L281.24,362.43L282.48,363.07L283.72,363.68L284.96,361.89L287.43,363.81L288.67,363.86L289.91,366.85L291.15,367.26L297.35,369.3L298.58,368.13L302.3,371.68L303.54,372.28L320.88,377.52L322.12,377.72L346.9,377.22L348.14,376.95L353.1,376.33L354.34,375.55L359.29,372.78L360.53,371.75L363.01,369.08L364.25,368.12L366.73,367.04L367.96,366.34L371.68,364.74L372.92,364.49L375.4,364.7L376.64,364.14L387.79,362.32L389.03,361.57L395.22,362.37L396.46,363.12L397.7,364.11L398.94,364.02L403.89,364.88L405.13,364.99L407.61,364.85L408.85,365.2L411.33,365.53L412.57,366.05L415.04,366.99L416.28,367.45L418.76,367.19L420,368.15L429.91,372.48L431.15,372.56L442.3,374.37L443.54,374.72L465.84,375.22L467.08,374.97L472.04,375.36L473.27,375.34L483.19,374.63L484.42,374.72L488.14,374.1L489.38,374.79L491.86,373.92L493.1,373.9L496.81,373.68L498.05,372.39L503.01,372.57L504.25,372.43L505.49,372.4L506.73,371.47L509.2,369.99L510.44,368.25L512.92,366.36L514.16,366.18L521.59,358.81L522.83,358.58L526.55,352.03L527.79,349.97L530.27,346.27L531.5,345.97L535.22,340.91L536.46,340.34L538.94,338.33L540.18,338.16L547.61,325.9L548.85,325.28L551.33,314.65L552.57,306.12L555.04,286.32L556.28,290.86L557.52,285.25L558.76,252.88L563.72,132.31L564.96,129.2L566.19,121.48L567.43,85.78L569.91,56.63L571.15,50.37L572.39,39.85L573.63,3.45L574.87,0L576.11,11.48L578.58,21.94L579.82,26.27L582.3,26.71L583.54,26.45L584.78,28.74L586.02,32.61L588.5,40.83L589.73,49.93L593.45,72.88L594.69,88.31L598.41,131.05L599.65,141.98L600.88,146.98L602.12,164.96L607.08,215.32L608.32,224.9L609.56,228.73L610.8,245.76L615.75,287.42L616.99,294.37L618.23,296.77L619.47,307.12L624.42,327.32L625.66,330.17L626.9,331.6L628.14,337.88L631.86,348.32L633.1,351.1L634.34,353.23L635.58,353.55L638.05,355.55L639.29,356.23L641.77,357.67L643.01,357.51L645.49,357.09L646.73,356.45L650.44,352.43L651.68,351.08L652.92,350.59L654.16,346.56L659.12,332.21L660.35,328.08L661.59,326.95L662.83,316.24L669.03,274.65L670.27,273.46L672.74,258.95L673.98,255.06L675.22,252.97L676.46,253.46L678.94,252.58" style="vector-effect: non-scaling-stroke; fill: none; stroke: rgb(8, 115, 191); stroke-opacity: 1; stroke-width: 0.5px; opacity: 1;"/></g><g class="points"/><g class="text"/></g><g class="trace scatter trace904c3a" style="stroke-miterlimit: 2;"><g class="fills"><g><path class="js-fill" d="M691.33,380L678.94,380L678.94,252.58L682.65,251.54L683.89,250.62L686.37,248.09L687.61,248.52L690.09,253.22L691.33,255.36" style="fill: rgb(8, 115, 191); fill-opacity: 0.4; stroke-width: 0;"/></g></g><g class="errorbars"/><g class="lines"><path class="js-line" d="M678.94,252.58L682.65,251.54L683.89,250.62L686.37,248.09L687.61,248.52L690.09,253.22L691.33,255.36" style="vector-effect: non-scaling-stroke; fill: none; stroke: rgb(8, 115, 191); stroke-opacity: 1; stroke-width: 2px; opacity: 1;"/></g><g class="points"/><g class="text"/></g><g class="trace scatter trace4b0142" style="stroke-miterlimit: 2; opacity: 1;"><g class="fills"/><g class="errorbars"/><g class="lines"/><g class="points"><path class="point" transform="translate(691.33,255.36)" d="M15,0A15,15 0 1,1 0,-15A15,15 0 0,1 15,0Z" style="opacity: 1; stroke-width: 0px; fill: rgb(8, 115, 191); fill-opacity: 1;"/></g><g class="text"/></g></g></g><g class="overplot"/><path class="xlines-above crisp" style="fill: none; stroke-width: 1px; stroke: rgb(0, 0, 0); stroke-opacity: 0;" d=""/><path class="ylines-above crisp" style="fill: none;" d="M0,0"/><g class="overlines-above"/><g class="xaxislayer-above"><path class="xtick ticks crisp" d="M0,450v-5" transform="translate(90.88,0)" style="stroke: rgb(68, 68, 68); stroke-opacity: 1; stroke-width: 1px;"/><path class="xtick ticks crisp" d="M0,450v-5" transform="translate(166.45999999999998,0)" style="stroke: rgb(68, 68, 68); stroke-opacity: 1; stroke-width: 1px;"/><path class="xtick ticks crisp" d="M0,450v-5" transform="translate(239.56,0)" style="stroke: rgb(68, 68, 68); stroke-opacity: 1; stroke-width: 1px;"/><path class="xtick ticks crisp" d="M0,450v-5" transform="translate(315.13,0)" style="stroke: rgb(68, 68, 68); stroke-opacity: 1; stroke-width: 1px;"/><path class="xtick ticks crisp" d="M0,450v-5" transform="translate(390.71,0)" style="stroke: rgb(68, 68, 68); stroke-opacity: 1; stroke-width: 1px;"/><path class="xtick ticks crisp" d="M0,450v-5" transform="translate(467.52,0)" style="stroke: rgb(68, 68, 68); stroke-opacity: 1; stroke-width: 1px;"/><path class="xtick ticks crisp" d="M0,450v-5" transform="translate(543.1,0)" style="stroke: rgb(68, 68, 68); stroke-opacity: 1; stroke-width: 1px;"/><path class="xtick ticks crisp" d="M0,450v-5" transform="translate(618.67,0)" style="stroke: rgb(68, 68, 68); stroke-opacity: 1; stroke-width: 1px;"/><path class="xtick ticks crisp" d="M0,450v-5" transform="translate(691.77,0)" style="stroke: rgb(68, 68, 68); stroke-opacity: 1; stroke-width: 1px;"/><g class="xtick"><text text-anchor="middle" x="0" y="469" transform="translate(90.88,0)" style="font-family: 'Open Sans', verdana, arial, sans-serif; font-size: 18px; fill: rgb(42, 63, 95); fill-opacity: 1; white-space: pre;">01/11</text></g><g class="xtick"><text text-anchor="middle" x="0" y="469" transform="translate(166.45999999999998,0)" style="font-family: 'Open Sans', verdana, arial, sans-serif; font-size: 18px; fill: rgb(42, 63, 95); fill-opacity: 1; white-space: pre;">01/01</text></g><g class="xtick"><text text-anchor="middle" x="0" y="469" transform="translate(239.56,0)" style="font-family: 'Open Sans', verdana, arial, sans-serif; font-size: 18px; fill: rgb(42, 63, 95); fill-opacity: 1; white-space: pre;">01/03</text></g><g class="xtick"><text text-anchor="middle" x="0" y="469" transform="translate(315.13,0)" style="font-family: 'Open Sans', verdana, arial, sans-serif; font-size: 18px; fill: rgb(42, 63, 95); fill-opacity: 1; white-space: pre;">01/05</text></g><g class="xtick"><text text-anchor="middle" x="0" y="469" transform="translate(390.71,0)" style="font-family: 'Open Sans', verdana, arial, sans-serif; font-size: 18px; fill: rgb(42, 63, 95); fill-opacity: 1; white-space: pre;">01/07</text></g><g class="xtick"><text text-anchor="middle" x="0" y="469" transform="translate(467.52,0)" style="font-family: 'Open Sans', verdana, arial, sans-serif; font-size: 18px; fill: rgb(42, 63, 95); fill-opacity: 1; white-space: pre;">01/09</text></g><g class="xtick"><text text-anchor="middle" x="0" y="469" transform="translate(543.1,0)" style="font-family: 'Open Sans', verdana, arial, sans-serif; font-size: 18px; fill: rgb(42, 63, 95); fill-opacity: 1; white-space: pre;">01/11</text></g><g class="xtick"><text text-anchor="middle" x="0" y="469" transform="translate(618.67,0)" style="font-family: 'Open Sans', verdana, arial, sans-serif; font-size: 18px; fill: rgb(42, 63, 95); fill-opacity: 1; white-space: pre;">01/01</text></g><g class="xtick"><text text-anchor="middle" x="0" y="469" transform="translate(691.77,0)" style="font-family: 'Open Sans', verdana, arial, sans-serif; font-size: 18px; fill: rgb(42, 63, 95); fill-opacity: 1; white-space: pre;">01/03</text></g></g><g class="yaxislayer-above"/><g class="overaxes-above"/></g></g><g class="polarlayer"/><g class="ternarylayer"/><g class="geolayer"/><g class="funnelarealayer"/><g class="pielayer"/><g class="treemaplayer"/><g class="sunburstlayer"/><g class="glimages"/><defs id="topdefs-331869"><g class="clips"/></defs><g class="layer-above"><g class="imagelayer"/><g class="shapelayer"><path data-index="0" fill-rule="evenodd" d="M-646.28,445.37L259.38,445.37" clip-path="url('#clip331869xy')" style="opacity: 1; stroke: rgb(255, 0, 0); stroke-opacity: 1; fill: rgb(0, 0, 0); fill-opacity: 0; stroke-dasharray: 3px, 3px; stroke-width: 1.5px;"/></g></g><g class="infolayer"><g class="g-gtitle"><text class="gtitle" x="375" y="25" text-anchor="middle" dy="0.7em" style="font-family: 'Open Sans', verdana, arial, sans-serif; font-size: 50px; fill: rgb(42, 63, 95); opacity: 1; font-weight: normal; white-space: pre;"><tspan style="font-weight:bold">Seine-et-Marne (77)</tspan></text></g><g class="g-xtitle"/><g class="annotation" data-index="0" style="opacity: 1;"><g class="annotation-text-g" transform="rotate(0,699.33,265.36)"><g class="cursor-pointer" transform="translate(627, 229)"><rect class="bg" x="0.5" y="0.5" width="143" height="71" style="stroke-width: 1px; stroke: rgb(0, 0, 0); stroke-opacity: 0; fill: rgb(255, 255, 255); fill-opacity: 0.6;"/><text class="annotation-text" text-anchor="middle" x="72.078125" y="55.5" style="font-family: 'Open Sans', verdana, arial, sans-serif; font-size: 50px; fill: rgb(8, 115, 191); fill-opacity: 1; white-space: pre;"> <tspan style="font-weight:bold">1346 </tspan></text></g></g><g class="annotation-arrow-g" style="opacity: 1;"><path d="M727.73,300.86L739.33,315.36" style="stroke-width: 1px; stroke: rgb(8, 115, 191); stroke-opacity: 1; stroke-dasharray: 0px, 0px, 18.5691px, 18.5691px;"/></g></g></g></svg>