<svg class="main-svg" xmlns="http://www.w3.org/2000/svg" xmlns:xlink="http://www.w3.org/1999/xlink" width="1125" height="750" style="" viewBox="0 0 750 500"><rect x="0" y="0" width="750" height="500" style="fill: rgb(0, 0, 0); fill-opacity: 0;"/><defs id="defs-75710e"><g class="clips"><clipPath id="clip75710exyplot" class="plotclip"><rect width="700" height="380"/></clipPath><clipPath class="axesclip" id="clip75710ex"><rect x="50" y="0" width="700" height="500"/></clipPath><clipPath class="axesclip" id="clip75710ey"><rect x="0" y="70" width="750" height="380"/></clipPath><clipPath class="axesclip" id="clip75710exy"><rect x="50" y="70" width="700" height="380"/></clipPath></g><g class="gradients"/></defs><g class="bglayer"><rect class="bg" x="50" y="70" width="700" height="380" style="fill: rgb(0, 0, 0); fill-opacity: 0; stroke-width: 0;"/></g><g class="layer-below"><g class="imagelayer"/><g class="shapelayer"/></g><g class="cartesianlayer"><g class="subplot xy"><g class="layer-subplot"><g class="shapelayer"/><g class="imagelayer"/></g><g class="gridlayer"><g class="x"><path class="xgrid crisp" transform="translate(112.77000000000001,0)" d="M0,70v380" style="stroke: rgb(255, 255, 255); stroke-opacity: 1; stroke-width: 1px;"/><path class="xgrid crisp" transform="translate(228.8,0)" d="M0,70v380" style="stroke: rgb(255, 255, 255); stroke-opacity: 1; stroke-width: 1px;"/><path class="xgrid crisp" transform="translate(341.03,0)" d="M0,70v380" style="stroke: rgb(255, 255, 255); stroke-opacity: 1; stroke-width: 1px;"/><path class="xgrid crisp" transform="translate(457.07,0)" d="M0,70v380" style="stroke: rgb(255, 255, 255); stroke-opacity: 1; stroke-width: 1px;"/><path class="xgrid crisp" transform="translate(573.1,0)" d="M0,70v380" style="stroke: rgb(255, 255, 255); stroke-opacity: 1; stroke-width: 1px;"/><path class="xgrid crisp" transform="translate(691.03,0)" d="M0,70v380" style="stroke: rgb(255, 255, 255); stroke-opacity: 1; stroke-width: 1px;"/></g><g class="y"/></g><g class="zerolinelayer"/><path class="xlines-below"/><path class="ylines-below"/><g class="overlines-below"/><g class="xaxislayer-below"/><g class="yaxislayer-below"/><g class="overaxes-below"/><g class="plot" transform="translate(50, 70)" clip-path="url('#clip75710exyplot')"><g class="scatterlayer mlayer"><g class="trace scatter trace54cd6b" style="stroke-miterlimit: 2;"><g class="fills"><g><path class="js-fill" d="M667.66,380L-258.7,380L-258.7,379.37L-247.28,380L-245.38,380L-123.64,378.11L-121.74,377.48L-116.03,375.58L-114.13,374.32L-106.52,374.95L-104.62,376.21L-100.82,378.11L-98.91,376.21L-93.21,375.58L-91.3,375.58L-89.4,375.58L-87.5,371.79L-83.7,368.64L-81.79,365.48L-79.89,361.69L-77.99,361.69L-66.58,354.12L-64.67,354.12L-60.87,356.01L-58.97,352.23L-57.07,350.33L-55.16,343.39L-53.26,344.65L-51.36,340.86L-49.46,340.86L-47.55,339.6L-45.65,334.55L-43.75,335.18L-41.85,342.13L-39.95,340.23L-38.04,343.39L-36.14,343.39L-34.24,335.18L-32.34,332.66L-30.43,322.56L-28.53,305.51L-24.73,289.73L-22.83,289.1L-20.92,279L-19.02,274.58L-17.12,277.74L-15.22,275.85L-13.32,278.37L-11.41,279L-9.51,279.63L-7.61,284.68L-5.71,291L-3.8,289.73L-1.9,290.37L0,282.79L1.9,286.58L3.8,286.58L5.71,260.07L7.61,251.23L9.51,244.29L11.41,228.5L13.32,214.62L15.22,207.67L17.12,198.84L19.02,170.43L20.92,135.71L22.83,116.15L24.73,110.47L26.63,91.53L28.53,87.11L30.43,92.79L32.34,69.44L34.24,66.91L36.14,42.92L38.04,39.14L41.85,47.97L43.75,50.5L45.65,25.25L47.55,42.92L49.46,58.7L51.36,52.39L53.26,56.81L55.16,54.29L57.07,51.76L58.97,103.52L60.87,102.89L62.77,101L64.67,115.51L66.58,121.2L68.48,128.14L70.38,130.66L72.28,169.8L74.18,184.95L76.09,234.82L77.99,243.65L79.89,270.8L81.79,273.32L83.7,273.95L85.6,287.21L87.5,306.78L89.4,293.52L91.3,313.72L93.21,313.72L97.01,313.72L98.91,322.56L100.82,317.51L102.72,320.66L104.62,321.3L106.52,320.03L110.33,318.14L112.23,314.35L114.13,320.66L116.03,316.25L117.93,299.2L119.84,299.83L121.74,301.1L123.64,300.47L125.54,301.1L127.45,293.52L129.35,299.2L131.25,313.72L135.05,306.15L136.96,305.51L138.86,299.83L140.76,303.62L142.66,308.67L144.57,308.67L150.27,318.14L152.17,320.66L155.98,310.56L157.88,309.3L159.78,322.56L161.68,316.88L163.59,314.35L165.49,309.3L169.29,259.44L171.2,255.02L173.1,253.12L175,252.49L176.9,253.12L178.8,210.83L180.71,227.87L182.61,217.14L184.51,208.94L186.41,180.53L190.22,179.27L192.12,207.04L194.02,208.31L195.92,216.51L197.83,227.87L199.73,233.55L201.63,234.19L203.53,233.55L207.34,219.67L209.24,226.61L211.14,212.72L213.04,207.04L214.95,195.68L216.85,193.79L218.75,179.9L220.65,180.53L224.46,190.63L226.36,192.52L228.26,201.36L230.16,203.26L232.07,232.29L233.97,234.19L235.87,235.45L237.77,231.66L239.67,235.45L241.58,237.34L243.48,239.24L245.38,234.19L247.28,248.07L249.18,245.55L251.09,247.44L252.99,247.44L254.89,250.6L256.79,251.23L258.7,255.65L260.6,246.81L262.5,255.02L264.4,267.01L266.3,275.85L268.21,275.85L270.11,275.85L272.01,278.37L273.91,291.63L275.82,294.15L277.72,289.1L279.62,288.47L281.52,291L283.42,289.73L285.33,302.36L287.23,291.63L291.03,284.05L292.93,293.52L294.84,287.21L296.74,288.47L298.64,279.63L300.54,285.32L302.45,276.48L304.35,282.79L306.25,270.8L308.15,272.06L311.96,261.33L313.86,252.49L315.76,247.44L317.66,247.44L319.57,237.34L321.47,232.92L323.37,237.34L325.27,229.77L327.17,225.35L329.08,232.29L330.98,207.04L332.88,196.31L334.78,187.48L336.68,184.32L338.59,185.58L340.49,178.01L342.39,167.91L344.29,183.06L346.2,184.95L348.1,179.9L350,183.06L351.9,214.62L353.8,208.31L355.71,196.94L357.61,193.16L359.51,184.32L361.41,197.57L363.32,196.31L365.22,162.23L367.12,176.11L369.02,194.42L370.92,198.21L372.83,212.09L374.73,207.67L376.63,206.41L378.53,203.89L382.34,176.11L384.24,171.69L386.14,171.69L388.04,172.96L391.85,172.33L393.75,195.68L395.65,212.09L397.55,220.93L399.46,223.46L401.36,237.34L403.26,235.45L405.16,241.13L407.07,247.44L408.97,256.91L410.87,255.65L412.77,261.33L414.67,260.7L416.58,263.85L418.48,270.17L420.38,262.59L422.28,261.96L424.18,284.68L426.09,284.68L427.99,280.27L433.7,280.9L435.6,286.58L437.5,273.32L439.4,287.21L443.21,291L445.11,317.51L447.01,323.19L448.91,323.19L450.82,323.82L452.72,328.24L454.62,330.13L456.52,330.13L458.42,323.82L460.33,333.29L462.23,338.34L464.13,346.54L466.03,350.96L467.93,349.07L469.84,349.7L471.74,353.49L477.45,364.85L479.35,365.48L481.25,369.27L483.15,369.27L486.96,374.32L488.86,373.69L490.76,371.79L492.66,371.79L494.57,373.06L496.47,373.06L498.37,373.06L500.27,371.79L507.88,373.69L509.78,373.06L511.68,370.53L513.59,372.43L515.49,368.64L517.39,368.01L521.2,364.22L523.1,364.85L525,361.69L526.9,356.01L530.71,345.91L532.61,333.92L534.51,329.5L536.41,329.5L540.22,295.42L542.12,302.99L544.02,270.17L545.92,255.02L547.83,246.18L549.73,242.39L553.53,199.47L555.43,157.18L557.34,155.91L559.24,140.76L561.14,130.03L563.04,127.51L566.85,87.11L568.75,87.11L570.65,97.84L572.55,86.48L574.46,95.95L576.36,99.73L578.26,95.95L580.16,109.83L582.07,107.31L583.97,94.68L585.87,112.99L587.77,106.05L589.67,105.42L591.58,82.06L595.38,68.8L597.28,47.97L599.18,24.62L601.09,18.31L602.99,15.15L604.89,18.94L606.79,4.42L608.7,0L610.6,17.04L612.5,17.04L614.4,25.88L616.3,27.14L622.01,89.63L623.91,102.26L625.82,128.14L627.72,126.25L629.62,128.77L631.52,138.87L633.42,158.44L635.33,162.23L637.23,169.8L639.13,172.33L641.03,181.16L642.93,181.79L644.84,196.94L646.74,203.89L648.64,210.2L650.54,213.36L652.45,230.4L654.35,229.14L658.15,232.29L660.05,248.07L663.86,256.91L665.76,256.91L667.66,263.85" style="fill: rgb(8, 115, 191); fill-opacity: 0.2; stroke-width: 0;"/></g></g><g class="errorbars"/><g class="lines"><path class="js-line" d="M-258.7,379.37L-247.28,380L-245.38,380L-123.64,378.11L-121.74,377.48L-116.03,375.58L-114.13,374.32L-106.52,374.95L-104.62,376.21L-100.82,378.11L-98.91,376.21L-93.21,375.58L-91.3,375.58L-89.4,375.58L-87.5,371.79L-83.7,368.64L-81.79,365.48L-79.89,361.69L-77.99,361.69L-66.58,354.12L-64.67,354.12L-60.87,356.01L-58.97,352.23L-57.07,350.33L-55.16,343.39L-53.26,344.65L-51.36,340.86L-49.46,340.86L-47.55,339.6L-45.65,334.55L-43.75,335.18L-41.85,342.13L-39.95,340.23L-38.04,343.39L-36.14,343.39L-34.24,335.18L-32.34,332.66L-30.43,322.56L-28.53,305.51L-24.73,289.73L-22.83,289.1L-20.92,279L-19.02,274.58L-17.12,277.74L-15.22,275.85L-13.32,278.37L-11.41,279L-9.51,279.63L-7.61,284.68L-5.71,291L-3.8,289.73L-1.9,290.37L0,282.79L1.9,286.58L3.8,286.58L5.71,260.07L7.61,251.23L9.51,244.29L11.41,228.5L13.32,214.62L15.22,207.67L17.12,198.84L19.02,170.43L20.92,135.71L22.83,116.15L24.73,110.47L26.63,91.53L28.53,87.11L30.43,92.79L32.34,69.44L34.24,66.91L36.14,42.92L38.04,39.14L41.85,47.97L43.75,50.5L45.65,25.25L47.55,42.92L49.46,58.7L51.36,52.39L53.26,56.81L55.16,54.29L57.07,51.76L58.97,103.52L60.87,102.89L62.77,101L64.67,115.51L66.58,121.2L68.48,128.14L70.38,130.66L72.28,169.8L74.18,184.95L76.09,234.82L77.99,243.65L79.89,270.8L81.79,273.32L83.7,273.95L85.6,287.21L87.5,306.78L89.4,293.52L91.3,313.72L93.21,313.72L97.01,313.72L98.91,322.56L100.82,317.51L102.72,320.66L104.62,321.3L106.52,320.03L110.33,318.14L112.23,314.35L114.13,320.66L116.03,316.25L117.93,299.2L119.84,299.83L121.74,301.1L123.64,300.47L125.54,301.1L127.45,293.52L129.35,299.2L131.25,313.72L135.05,306.15L136.96,305.51L138.86,299.83L140.76,303.62L142.66,308.67L144.57,308.67L150.27,318.14L152.17,320.66L155.98,310.56L157.88,309.3L159.78,322.56L161.68,316.88L163.59,314.35L165.49,309.3L169.29,259.44L171.2,255.02L173.1,253.12L175,252.49L176.9,253.12L178.8,210.83L180.71,227.87L182.61,217.14L184.51,208.94L186.41,180.53L190.22,179.27L192.12,207.04L194.02,208.31L195.92,216.51L197.83,227.87L199.73,233.55L201.63,234.19L203.53,233.55L207.34,219.67L209.24,226.61L211.14,212.72L213.04,207.04L214.95,195.68L216.85,193.79L218.75,179.9L220.65,180.53L224.46,190.63L226.36,192.52L228.26,201.36L230.16,203.26L232.07,232.29L233.97,234.19L235.87,235.45L237.77,231.66L239.67,235.45L241.58,237.34L243.48,239.24L245.38,234.19L247.28,248.07L249.18,245.55L251.09,247.44L252.99,247.44L254.89,250.6L256.79,251.23L258.7,255.65L260.6,246.81L262.5,255.02L264.4,267.01L266.3,275.85L268.21,275.85L270.11,275.85L272.01,278.37L273.91,291.63L275.82,294.15L277.72,289.1L279.62,288.47L281.52,291L283.42,289.73L285.33,302.36L287.23,291.63L291.03,284.05L292.93,293.52L294.84,287.21L296.74,288.47L298.64,279.63L300.54,285.32L302.45,276.48L304.35,282.79L306.25,270.8L308.15,272.06L311.96,261.33L313.86,252.49L315.76,247.44L317.66,247.44L319.57,237.34L321.47,232.92L323.37,237.34L325.27,229.77L327.17,225.35L329.08,232.29L330.98,207.04L332.88,196.31L334.78,187.48L336.68,184.32L338.59,185.58L340.49,178.01L342.39,167.91L344.29,183.06L346.2,184.95L348.1,179.9L350,183.06L351.9,214.62L353.8,208.31L355.71,196.94L357.61,193.16L359.51,184.32L361.41,197.57L363.32,196.31L365.22,162.23L367.12,176.11L369.02,194.42L370.92,198.21L372.83,212.09L374.73,207.67L376.63,206.41L378.53,203.89L382.34,176.11L384.24,171.69L386.14,171.69L388.04,172.96L391.85,172.33L393.75,195.68L395.65,212.09L397.55,220.93L399.46,223.46L401.36,237.34L403.26,235.45L405.16,241.13L407.07,247.44L408.97,256.91L410.87,255.65L412.77,261.33L414.67,260.7L416.58,263.85L418.48,270.17L420.38,262.59L422.28,261.96L424.18,284.68L426.09,284.68L427.99,280.27L433.7,280.9L435.6,286.58L437.5,273.32L439.4,287.21L443.21,291L445.11,317.51L447.01,323.19L448.91,323.19L450.82,323.82L452.72,328.24L454.62,330.13L456.52,330.13L458.42,323.82L460.33,333.29L462.23,338.34L464.13,346.54L466.03,350.96L467.93,349.07L469.84,349.7L471.74,353.49L477.45,364.85L479.35,365.48L481.25,369.27L483.15,369.27L486.96,374.32L488.86,373.69L490.76,371.79L492.66,371.79L494.57,373.06L496.47,373.06L498.37,373.06L500.27,371.79L507.88,373.69L509.78,373.06L511.68,370.53L513.59,372.43L515.49,368.64L517.39,368.01L521.2,364.22L523.1,364.85L525,361.69L526.9,356.01L530.71,345.91L532.61,333.92L534.51,329.5L536.41,329.5L540.22,295.42L542.12,302.99L544.02,270.17L545.92,255.02L547.83,246.18L549.73,242.39L553.53,199.47L555.43,157.18L557.34,155.91L559.24,140.76L561.14,130.03L563.04,127.51L566.85,87.11L568.75,87.11L570.65,97.84L572.55,86.48L574.46,95.95L576.36,99.73L578.26,95.95L580.16,109.83L582.07,107.31L583.97,94.68L585.87,112.99L587.77,106.05L589.67,105.42L591.58,82.06L595.38,68.8L597.28,47.97L599.18,24.62L601.09,18.31L602.99,15.15L604.89,18.94L606.79,4.42L608.7,0L610.6,17.04L612.5,17.04L614.4,25.88L616.3,27.14L622.01,89.63L623.91,102.26L625.82,128.14L627.72,126.25L629.62,128.77L631.52,138.87L633.42,158.44L635.33,162.23L637.23,169.8L639.13,172.33L641.03,181.16L642.93,181.79L644.84,196.94L646.74,203.89L648.64,210.2L650.54,213.36L652.45,230.4L654.35,229.14L658.15,232.29L660.05,248.07L663.86,256.91L665.76,256.91L667.66,263.85" style="vector-effect: non-scaling-stroke; fill: none; stroke: rgb(8, 115, 191); stroke-opacity: 1; stroke-width: 0.5px; opacity: 1;"/></g><g class="points"/><g class="text"/></g><g class="trace scatter tracee12414" style="stroke-miterlimit: 2;"><g class="fills"><g><path class="js-fill" d="M686.68,380L667.66,380L667.66,263.85L669.57,263.22L671.47,287.21L673.37,285.95L675.27,294.15L677.17,304.88L679.08,309.3L680.98,311.2L682.88,311.83L686.68,314.98" style="fill: rgb(8, 115, 191); fill-opacity: 0.4; stroke-width: 0;"/></g></g><g class="errorbars"/><g class="lines"><path class="js-line" d="M667.66,263.85L669.57,263.22L671.47,287.21L673.37,285.95L675.27,294.15L677.17,304.88L679.08,309.3L680.98,311.2L682.88,311.83L686.68,314.98" style="vector-effect: non-scaling-stroke; fill: none; stroke: rgb(8, 115, 191); stroke-opacity: 1; stroke-width: 2px; opacity: 1;"/></g><g class="points"/><g class="text"/></g><g class="trace scatter tracef3d42e" style="stroke-miterlimit: 2; opacity: 1;"><g class="fills"/><g class="errorbars"/><g class="lines"/><g class="points"><path class="point" transform="translate(686.68,314.98)" d="M15,0A15,15 0 1,1 0,-15A15,15 0 0,1 15,0Z" style="opacity: 1; stroke-width: 0px; fill: rgb(8, 115, 191); fill-opacity: 1;"/></g><g class="text"/></g></g></g><g class="overplot"/><path class="xlines-above crisp" style="fill: none; stroke-width: 1px; stroke: rgb(0, 0, 0); stroke-opacity: 0;" d=""/><path class="ylines-above crisp" style="fill: none;" d="M0,0"/><g class="overlines-above"/><g class="xaxislayer-above"><path class="xtick ticks crisp" d="M0,450v-5" transform="translate(112.77000000000001,0)" style="stroke: rgb(68, 68, 68); stroke-opacity: 1; stroke-width: 1px;"/><path class="xtick ticks crisp" d="M0,450v-5" transform="translate(228.8,0)" style="stroke: rgb(68, 68, 68); stroke-opacity: 1; stroke-width: 1px;"/><path class="xtick ticks crisp" d="M0,450v-5" transform="translate(341.03,0)" style="stroke: rgb(68, 68, 68); stroke-opacity: 1; stroke-width: 1px;"/><path class="xtick ticks crisp" d="M0,450v-5" transform="translate(457.07,0)" style="stroke: rgb(68, 68, 68); stroke-opacity: 1; stroke-width: 1px;"/><path class="xtick ticks crisp" d="M0,450v-5" transform="translate(573.1,0)" style="stroke: rgb(68, 68, 68); stroke-opacity: 1; stroke-width: 1px;"/><path class="xtick ticks crisp" d="M0,450v-5" transform="translate(691.03,0)" style="stroke: rgb(68, 68, 68); stroke-opacity: 1; stroke-width: 1px;"/><g class="xtick"><text text-anchor="middle" x="0" y="469" transform="translate(112.77000000000001,0)" style="font-family: 'Open Sans', verdana, arial, sans-serif; font-size: 18px; fill: rgb(42, 63, 95); fill-opacity: 1; white-space: pre;">01/11</text></g><g class="xtick"><text text-anchor="middle" x="0" y="469" transform="translate(228.8,0)" style="font-family: 'Open Sans', verdana, arial, sans-serif; font-size: 18px; fill: rgb(42, 63, 95); fill-opacity: 1; white-space: pre;">01/01</text></g><g class="xtick"><text text-anchor="middle" x="0" y="469" transform="translate(341.03,0)" style="font-family: 'Open Sans', verdana, arial, sans-serif; font-size: 18px; fill: rgb(42, 63, 95); fill-opacity: 1; white-space: pre;">01/03</text></g><g class="xtick"><text text-anchor="middle" x="0" y="469" transform="translate(457.07,0)" style="font-family: 'Open Sans', verdana, arial, sans-serif; font-size: 18px; fill: rgb(42, 63, 95); fill-opacity: 1; white-space: pre;">01/05</text></g><g class="xtick"><text text-anchor="middle" x="0" y="469" transform="translate(573.1,0)" style="font-family: 'Open Sans', verdana, arial, sans-serif; font-size: 18px; fill: rgb(42, 63, 95); fill-opacity: 1; white-space: pre;">01/07</text></g><g class="xtick"><text text-anchor="middle" x="0" y="469" transform="translate(691.03,0)" style="font-family: 'Open Sans', verdana, arial, sans-serif; font-size: 18px; fill: rgb(42, 63, 95); fill-opacity: 1; white-space: pre;">01/09</text></g></g><g class="yaxislayer-above"/><g class="overaxes-above"/></g></g><g class="polarlayer"/><g class="ternarylayer"/><g class="geolayer"/><g class="funnelarealayer"/><g class="pielayer"/><g class="treemaplayer"/><g class="sunburstlayer"/><g class="glimages"/><defs id="topdefs-75710e"><g class="clips"/></defs><g class="layer-above"><g class="imagelayer"/><g class="shapelayer"><path data-index="0" fill-rule="evenodd" d="M-1019.02,401.9L371.47,401.9" clip-path="url('#clip75710exy')" style="opacity: 1; stroke: rgb(255, 0, 0); stroke-opacity: 1; fill: rgb(0, 0, 0); fill-opacity: 0; stroke-dasharray: 3px, 3px; stroke-width: 1.5px;"/></g></g><g class="infolayer"><g class="g-gtitle"><text class="gtitle" x="375" y="25" text-anchor="middle" dy="0.7em" style="font-family: 'Open Sans', verdana, arial, sans-serif; font-size: 50px; fill: rgb(42, 63, 95); opacity: 1; font-weight: normal; white-space: pre;"><tspan style="font-weight:bold">Ariège (09)</tspan></text></g><g class="g-xtitle"/><g class="annotation" data-index="0" style="opacity: 1;"><g class="annotation-text-g" transform="rotate(0,694.68,324.98)"><g class="cursor-pointer" transform="translate(651, 289)"><rect class="bg" x="0.5" y="0.5" width="86" height="71" style="stroke-width: 1px; stroke: rgb(0, 0, 0); stroke-opacity: 0; fill: rgb(255, 255, 255); fill-opacity: 0.6;"/><text class="annotation-text" text-anchor="middle" x="43.53125" y="55.5" style="font-family: 'Open Sans', verdana, arial, sans-serif; font-size: 50px; fill: rgb(8, 115, 191); fill-opacity: 1; white-space: pre;"> <tspan style="font-weight:bold">67 </tspan></text></g></g><g class="annotation-arrow-g" style="opacity: 1;"><path d="M723.0799999999999,360.48L734.68,374.98" style="stroke-width: 1px; stroke: rgb(8, 115, 191); stroke-opacity: 1; stroke-dasharray: 0px, 0px, 18.569px, 18.569px;"/></g></g></g></svg>