<svg class="main-svg" xmlns="http://www.w3.org/2000/svg" xmlns:xlink="http://www.w3.org/1999/xlink" width="1125" height="750" style="" viewBox="0 0 750 500"><rect x="0" y="0" width="750" height="500" style="fill: rgb(0, 0, 0); fill-opacity: 0;"/><defs id="defs-34f648"><g class="clips"><clipPath id="clip34f648xyplot" class="plotclip"><rect width="700" height="380"/></clipPath><clipPath class="axesclip" id="clip34f648x"><rect x="50" y="0" width="700" height="500"/></clipPath><clipPath class="axesclip" id="clip34f648y"><rect x="0" y="70" width="750" height="380"/></clipPath><clipPath class="axesclip" id="clip34f648xy"><rect x="50" y="70" width="700" height="380"/></clipPath></g><g class="gradients"/></defs><g class="bglayer"><rect class="bg" x="50" y="70" width="700" height="380" style="fill: rgb(0, 0, 0); fill-opacity: 0; stroke-width: 0;"/></g><g class="layer-below"><g class="imagelayer"/><g class="shapelayer"/></g><g class="cartesianlayer"><g class="subplot xy"><g class="layer-subplot"><g class="shapelayer"/><g class="imagelayer"/></g><g class="gridlayer"><g class="x"><path class="xgrid crisp" transform="translate(90.67,0)" d="M0,70v380" style="stroke: rgb(255, 255, 255); stroke-opacity: 1; stroke-width: 1px;"/><path class="xgrid crisp" transform="translate(165.85,0)" d="M0,70v380" style="stroke: rgb(255, 255, 255); stroke-opacity: 1; stroke-width: 1px;"/><path class="xgrid crisp" transform="translate(238.56,0)" d="M0,70v380" style="stroke: rgb(255, 255, 255); stroke-opacity: 1; stroke-width: 1px;"/><path class="xgrid crisp" transform="translate(313.73,0)" d="M0,70v380" style="stroke: rgb(255, 255, 255); stroke-opacity: 1; stroke-width: 1px;"/><path class="xgrid crisp" transform="translate(388.91,0)" d="M0,70v380" style="stroke: rgb(255, 255, 255); stroke-opacity: 1; stroke-width: 1px;"/><path class="xgrid crisp" transform="translate(465.32,0)" d="M0,70v380" style="stroke: rgb(255, 255, 255); stroke-opacity: 1; stroke-width: 1px;"/><path class="xgrid crisp" transform="translate(540.49,0)" d="M0,70v380" style="stroke: rgb(255, 255, 255); stroke-opacity: 1; stroke-width: 1px;"/><path class="xgrid crisp" transform="translate(615.67,0)" d="M0,70v380" style="stroke: rgb(255, 255, 255); stroke-opacity: 1; stroke-width: 1px;"/><path class="xgrid crisp" transform="translate(688.38,0)" d="M0,70v380" style="stroke: rgb(255, 255, 255); stroke-opacity: 1; stroke-width: 1px;"/></g><g class="y"/></g><g class="zerolinelayer"/><path class="xlines-below"/><path class="ylines-below"/><g class="overlines-below"/><g class="xaxislayer-below"/><g class="yaxislayer-below"/><g class="overaxes-below"/><g class="plot" transform="translate(50, 70)" clip-path="url('#clip34f648xyplot')"><g class="scatterlayer mlayer"><g class="trace scatter trace55a3d7" style="stroke-miterlimit: 2;"><g class="fills"><g><path class="js-fill" d="M679.05,380L-167.61,380L-167.61,379.36L-50.53,378.86L-49.3,378.86L-45.6,377.08L-44.37,375.36L-41.9,373.94L-40.67,373.72L-32.04,369.44L-30.81,367.02L-27.11,366.87L-25.88,368.3L-23.42,368.02L-22.18,369.8L-14.79,371.94L-13.56,373.37L-9.86,375.51L-8.63,375.29L-4.93,375.58L-3.7,374.94L0,375.22L1.23,375.08L4.93,373.94L6.16,372.37L8.63,368.16L9.86,367.66L11.09,367.94L12.32,363.81L13.56,359.67L14.79,358.31L17.25,354.18L18.49,353.68L19.72,353.18L20.95,351.82L22.18,351.25L23.42,347.97L24.65,347.97L25.88,345.4L28.35,345.05L29.58,340.41L30.81,337.34L32.04,337.2L34.51,336.06L35.74,335.56L36.97,335.49L38.2,337.56L40.67,341.91L41.9,344.97L43.13,348.83L44.37,350.04L45.6,350.25L46.83,354.03L49.3,361.38L50.53,360.24L52.99,362.31L54.23,362.67L56.69,368.44L57.92,367.94L59.15,371.73L60.39,372.58L64.08,373.29L65.32,374.79L67.78,375.29L69.01,375.93L71.48,375.93L72.71,376.79L78.87,376.72L80.11,376.79L82.57,377L83.8,376.86L89.96,376.5L91.2,376.01L94.89,376.22L96.13,375.65L99.82,374.51L101.06,373.44L102.29,372.87L103.52,373.58L105.99,372.8L107.22,372.58L109.68,371.23L110.92,370.37L114.61,371.37L115.85,370.51L119.54,371.37L120.77,370.3L124.47,370.44L125.7,369.59L128.17,369.01L129.4,368.44L131.87,368.8L133.1,366.87L135.56,367.37L136.8,366.23L141.73,362.45L142.96,360.88L144.19,360.45L145.42,361.31L146.65,360.67L147.89,361.6L151.58,362.88L152.82,362.59L156.51,360.88L157.75,360.67L160.21,364.02L161.44,363.24L162.68,363.24L163.91,364.45L166.37,365.02L167.61,364.81L168.84,364.38L170.07,365.59L175,362.67L176.23,360.31L178.7,357.03L179.93,357.32L183.63,357.89L184.86,358.6L186.09,357.03L187.32,358.81L191.02,356.1L192.25,356.03L193.49,356.1L194.72,357.74L195.95,356.17L197.18,356.89L199.65,358.39L200.88,358.67L205.81,363.24L207.04,363.31L209.51,363.95L210.74,363.52L213.2,364.24L214.44,363.74L216.9,364.52L218.13,364.31L219.37,365.09L220.6,364.88L221.83,363.74L223.06,363.95L225.53,362.88L226.76,363.17L227.99,365.59L229.23,364.09L231.69,363.81L232.92,364.02L235.39,362.45L236.62,358.81L239.08,359.74L240.32,359.38L241.55,358.53L242.78,359.6L244.01,359.17L245.25,359.81L250.18,361.81L251.41,361.95L252.64,362.74L253.87,361.67L256.34,362.24L257.57,363.38L260.04,364.38L261.27,363.95L263.73,363.74L264.96,364.66L266.2,363.88L267.43,365.45L269.89,366.09L271.13,370.08L274.82,375.08L276.06,375.93L287.15,375.01L288.38,376.36L294.54,377L295.77,377.36L297.01,377.08L298.24,377.86L303.17,378.07L304.4,378.07L306.87,377.93L308.1,378.22L336.44,379.5L337.68,379.07L341.37,378.36L342.61,377.65L343.84,376.72L345.07,371.65L347.54,370.16L348.77,362.17L350,355.82L351.23,355.03L352.46,347.47L353.7,345.4L354.93,340.41L356.16,338.63L358.63,321.01L359.86,304.88L361.09,300.6L362.32,289.05L363.56,285.48L364.79,285.55L366.02,274.35L367.25,272.28L368.49,272.64L369.72,268.65L372.18,270.29L373.42,270.43L375.88,280.49L377.11,283.98L379.58,294.9L380.81,297.82L382.04,297.47L383.27,304.1L384.51,305.6L385.74,308.81L389.44,314.44L390.67,314.59L394.37,326.64L395.6,328.71L396.83,333.35L398.06,334.85L399.3,335.92L400.53,340.12L401.76,341.76L402.99,345.12L404.23,348.18L405.46,348.97L409.15,353.25L410.39,355.1L412.85,356.89L414.08,359.38L415.32,360.24L416.55,359.88L417.78,361.67L419.01,361.95L420.25,363.45L421.48,363.74L422.71,364.02L423.94,363.31L431.34,367.94L432.57,369.8L433.8,369.51L435.04,370.87L437.5,372.08L438.73,373.01L439.96,374.58L441.2,374.15L444.89,374.22L446.13,374.79L453.52,377L454.75,376.72L460.92,376.93L462.15,375.93L469.54,374.44L470.77,374.72L473.24,374.29L474.47,373.94L476.94,373.29L478.17,372.08L481.87,369.73L483.1,367.94L484.33,366.38L485.56,366.52L486.8,367.66L488.03,365.38L490.49,364.45L491.73,365.09L494.19,364.09L495.42,359.03L496.65,359.17L497.89,356.67L499.12,358.39L500.35,353.11L502.82,352.89L504.05,349.47L506.51,343.98L507.75,337.27L508.98,336.7L510.21,334.63L511.44,334.06L512.68,330.57L513.91,327.71L515.14,326.93L520.07,322.86L521.3,319.37L522.54,320.86L523.77,319.08L526.23,316.01L527.46,315.37L528.7,314.51L529.93,311.02L534.86,293.83L536.09,292.4L537.32,291.62L538.56,292.69L539.79,291.83L541.02,295.9L542.25,297.32L543.49,296.75L545.95,298.96L547.18,297.68L548.42,293.9L549.65,285.91L552.11,264.37L553.35,266.93L554.58,259.73L555.81,210.29L560.74,59.35L561.97,56.35L563.2,50.58L564.44,11.13L566.9,0L568.13,14.12L569.37,28.53L570.6,5.85L571.83,11.13L573.06,52.57L575.53,97.44L576.76,110.57L577.99,113.21L579.23,110.85L581.69,106.07L582.92,95.02L584.15,90.74L585.39,78.75L586.62,73.9L587.85,73.83L589.08,74.83L590.32,73.69L592.78,83.32L594.01,86.96L595.25,84.39L596.48,84.96L597.71,82.96L598.94,85.46L600.18,89.17L601.41,95.3L605.11,129.54L606.34,135.25L607.57,159.36L608.8,166.71L613.73,204.52L614.96,205.59L619.89,243.32L621.13,249.24L623.59,258.59L624.82,273.35L629.75,298.39L630.99,301.18L632.22,301.89L633.45,305.88L635.92,313.94L637.15,313.37L639.61,315.8L640.85,315.01L642.08,313.8L643.31,311.45L648.24,290.55L649.47,288.91L651.94,264.72L653.17,256.45L656.87,221.92L658.1,218.85L660.56,185.18L661.8,172.13L665.49,154.65L666.73,153.65L667.96,139.46L669.19,134.54L672.89,121.77L674.12,127.05L675.35,129.33L676.58,138.75L679.05,150.59" style="fill: rgb(8, 115, 191); fill-opacity: 0.2; stroke-width: 0;"/></g></g><g class="errorbars"/><g class="lines"><path class="js-line" d="M-167.61,379.36L-50.53,378.86L-49.3,378.86L-45.6,377.08L-44.37,375.36L-41.9,373.94L-40.67,373.72L-32.04,369.44L-30.81,367.02L-27.11,366.87L-25.88,368.3L-23.42,368.02L-22.18,369.8L-14.79,371.94L-13.56,373.37L-9.86,375.51L-8.63,375.29L-4.93,375.58L-3.7,374.94L0,375.22L1.23,375.08L4.93,373.94L6.16,372.37L8.63,368.16L9.86,367.66L11.09,367.94L12.32,363.81L13.56,359.67L14.79,358.31L17.25,354.18L18.49,353.68L19.72,353.18L20.95,351.82L22.18,351.25L23.42,347.97L24.65,347.97L25.88,345.4L28.35,345.05L29.58,340.41L30.81,337.34L32.04,337.2L34.51,336.06L35.74,335.56L36.97,335.49L38.2,337.56L40.67,341.91L41.9,344.97L43.13,348.83L44.37,350.04L45.6,350.25L46.83,354.03L49.3,361.38L50.53,360.24L52.99,362.31L54.23,362.67L56.69,368.44L57.92,367.94L59.15,371.73L60.39,372.58L64.08,373.29L65.32,374.79L67.78,375.29L69.01,375.93L71.48,375.93L72.71,376.79L78.87,376.72L80.11,376.79L82.57,377L83.8,376.86L89.96,376.5L91.2,376.01L94.89,376.22L96.13,375.65L99.82,374.51L101.06,373.44L102.29,372.87L103.52,373.58L105.99,372.8L107.22,372.58L109.68,371.23L110.92,370.37L114.61,371.37L115.85,370.51L119.54,371.37L120.77,370.3L124.47,370.44L125.7,369.59L128.17,369.01L129.4,368.44L131.87,368.8L133.1,366.87L135.56,367.37L136.8,366.23L141.73,362.45L142.96,360.88L144.19,360.45L145.42,361.31L146.65,360.67L147.89,361.6L151.58,362.88L152.82,362.59L156.51,360.88L157.75,360.67L160.21,364.02L161.44,363.24L162.68,363.24L163.91,364.45L166.37,365.02L167.61,364.81L168.84,364.38L170.07,365.59L175,362.67L176.23,360.31L178.7,357.03L179.93,357.32L183.63,357.89L184.86,358.6L186.09,357.03L187.32,358.81L191.02,356.1L192.25,356.03L193.49,356.1L194.72,357.74L195.95,356.17L197.18,356.89L199.65,358.39L200.88,358.67L205.81,363.24L207.04,363.31L209.51,363.95L210.74,363.52L213.2,364.24L214.44,363.74L216.9,364.52L218.13,364.31L219.37,365.09L220.6,364.88L221.83,363.74L223.06,363.95L225.53,362.88L226.76,363.17L227.99,365.59L229.23,364.09L231.69,363.81L232.92,364.02L235.39,362.45L236.62,358.81L239.08,359.74L240.32,359.38L241.55,358.53L242.78,359.6L244.01,359.17L245.25,359.81L250.18,361.81L251.41,361.95L252.64,362.74L253.87,361.67L256.34,362.24L257.57,363.38L260.04,364.38L261.27,363.95L263.73,363.74L264.96,364.66L266.2,363.88L267.43,365.45L269.89,366.09L271.13,370.08L274.82,375.08L276.06,375.93L287.15,375.01L288.38,376.36L294.54,377L295.77,377.36L297.01,377.08L298.24,377.86L303.17,378.07L304.4,378.07L306.87,377.93L308.1,378.22L336.44,379.5L337.68,379.07L341.37,378.36L342.61,377.65L343.84,376.72L345.07,371.65L347.54,370.16L348.77,362.17L350,355.82L351.23,355.03L352.46,347.47L353.7,345.4L354.93,340.41L356.16,338.63L358.63,321.01L359.86,304.88L361.09,300.6L362.32,289.05L363.56,285.48L364.79,285.55L366.02,274.35L367.25,272.28L368.49,272.64L369.72,268.65L372.18,270.29L373.42,270.43L375.88,280.49L377.11,283.98L379.58,294.9L380.81,297.82L382.04,297.47L383.27,304.1L384.51,305.6L385.74,308.81L389.44,314.44L390.67,314.59L394.37,326.64L395.6,328.71L396.83,333.35L398.06,334.85L399.3,335.92L400.53,340.12L401.76,341.76L402.99,345.12L404.23,348.18L405.46,348.97L409.15,353.25L410.39,355.1L412.85,356.89L414.08,359.38L415.32,360.24L416.55,359.88L417.78,361.67L419.01,361.95L420.25,363.45L421.48,363.74L422.71,364.02L423.94,363.31L431.34,367.94L432.57,369.8L433.8,369.51L435.04,370.87L437.5,372.08L438.73,373.01L439.96,374.58L441.2,374.15L444.89,374.22L446.13,374.79L453.52,377L454.75,376.72L460.92,376.93L462.15,375.93L469.54,374.44L470.77,374.72L473.24,374.29L474.47,373.94L476.94,373.29L478.17,372.08L481.87,369.73L483.1,367.94L484.33,366.38L485.56,366.52L486.8,367.66L488.03,365.38L490.49,364.45L491.73,365.09L494.19,364.09L495.42,359.03L496.65,359.17L497.89,356.67L499.12,358.39L500.35,353.11L502.82,352.89L504.05,349.47L506.51,343.98L507.75,337.27L508.98,336.7L510.21,334.63L511.44,334.06L512.68,330.57L513.91,327.71L515.14,326.93L520.07,322.86L521.3,319.37L522.54,320.86L523.77,319.08L526.23,316.01L527.46,315.37L528.7,314.51L529.93,311.02L534.86,293.83L536.09,292.4L537.32,291.62L538.56,292.69L539.79,291.83L541.02,295.9L542.25,297.32L543.49,296.75L545.95,298.96L547.18,297.68L548.42,293.9L549.65,285.91L552.11,264.37L553.35,266.93L554.58,259.73L555.81,210.29L560.74,59.35L561.97,56.35L563.2,50.58L564.44,11.13L566.9,0L568.13,14.12L569.37,28.53L570.6,5.85L571.83,11.13L573.06,52.57L575.53,97.44L576.76,110.57L577.99,113.21L579.23,110.85L581.69,106.07L582.92,95.02L584.15,90.74L585.39,78.75L586.62,73.9L587.85,73.83L589.08,74.83L590.32,73.69L592.78,83.32L594.01,86.96L595.25,84.39L596.48,84.96L597.71,82.96L598.94,85.46L600.18,89.17L601.41,95.3L605.11,129.54L606.34,135.25L607.57,159.36L608.8,166.71L613.73,204.52L614.96,205.59L619.89,243.32L621.13,249.24L623.59,258.59L624.82,273.35L629.75,298.39L630.99,301.18L632.22,301.89L633.45,305.88L635.92,313.94L637.15,313.37L639.61,315.8L640.85,315.01L642.08,313.8L643.31,311.45L648.24,290.55L649.47,288.91L651.94,264.72L653.17,256.45L656.87,221.92L658.1,218.85L660.56,185.18L661.8,172.13L665.49,154.65L666.73,153.65L667.96,139.46L669.19,134.54L672.89,121.77L674.12,127.05L675.35,129.33L676.58,138.75L679.05,150.59" style="vector-effect: non-scaling-stroke; fill: none; stroke: rgb(8, 115, 191); stroke-opacity: 1; stroke-width: 0.5px; opacity: 1;"/></g><g class="points"/><g class="text"/></g><g class="trace scatter traceb06f8b" style="stroke-miterlimit: 2;"><g class="fills"><g><path class="js-fill" d="M691.37,380L679.05,380L679.05,150.59L681.51,160.43L682.75,158.79L683.98,158.51L685.21,166.64L691.37,185.33" style="fill: rgb(8, 115, 191); fill-opacity: 0.4; stroke-width: 0;"/></g></g><g class="errorbars"/><g class="lines"><path class="js-line" d="M679.05,150.59L681.51,160.43L682.75,158.79L683.98,158.51L685.21,166.64L691.37,185.33" style="vector-effect: non-scaling-stroke; fill: none; stroke: rgb(8, 115, 191); stroke-opacity: 1; stroke-width: 2px; opacity: 1;"/></g><g class="points"/><g class="text"/></g><g class="trace scatter tracee2edfb" style="stroke-miterlimit: 2; opacity: 1;"><g class="fills"/><g class="errorbars"/><g class="lines"/><g class="points"><path class="point" transform="translate(691.37,185.33)" d="M15,0A15,15 0 1,1 0,-15A15,15 0 0,1 15,0Z" style="opacity: 1; stroke-width: 0px; fill: rgb(8, 115, 191); fill-opacity: 1;"/></g><g class="text"/></g></g></g><g class="overplot"/><path class="xlines-above crisp" style="fill: none; stroke-width: 1px; stroke: rgb(0, 0, 0); stroke-opacity: 0;" d=""/><path class="ylines-above crisp" style="fill: none;" d="M0,0"/><g class="overlines-above"/><g class="xaxislayer-above"><path class="xtick ticks crisp" d="M0,450v-5" transform="translate(90.67,0)" style="stroke: rgb(68, 68, 68); stroke-opacity: 1; stroke-width: 1px;"/><path class="xtick ticks crisp" d="M0,450v-5" transform="translate(165.85,0)" style="stroke: rgb(68, 68, 68); stroke-opacity: 1; stroke-width: 1px;"/><path class="xtick ticks crisp" d="M0,450v-5" transform="translate(238.56,0)" style="stroke: rgb(68, 68, 68); stroke-opacity: 1; stroke-width: 1px;"/><path class="xtick ticks crisp" d="M0,450v-5" transform="translate(313.73,0)" style="stroke: rgb(68, 68, 68); stroke-opacity: 1; stroke-width: 1px;"/><path class="xtick ticks crisp" d="M0,450v-5" transform="translate(388.91,0)" style="stroke: rgb(68, 68, 68); stroke-opacity: 1; stroke-width: 1px;"/><path class="xtick ticks crisp" d="M0,450v-5" transform="translate(465.32,0)" style="stroke: rgb(68, 68, 68); stroke-opacity: 1; stroke-width: 1px;"/><path class="xtick ticks crisp" d="M0,450v-5" transform="translate(540.49,0)" style="stroke: rgb(68, 68, 68); stroke-opacity: 1; stroke-width: 1px;"/><path class="xtick ticks crisp" d="M0,450v-5" transform="translate(615.67,0)" style="stroke: rgb(68, 68, 68); stroke-opacity: 1; stroke-width: 1px;"/><path class="xtick ticks crisp" d="M0,450v-5" transform="translate(688.38,0)" style="stroke: rgb(68, 68, 68); stroke-opacity: 1; stroke-width: 1px;"/><g class="xtick"><text text-anchor="middle" x="0" y="469" transform="translate(90.67,0)" style="font-family: 'Open Sans', verdana, arial, sans-serif; font-size: 18px; fill: rgb(42, 63, 95); fill-opacity: 1; white-space: pre;">01/11</text></g><g class="xtick"><text text-anchor="middle" x="0" y="469" transform="translate(165.85,0)" style="font-family: 'Open Sans', verdana, arial, sans-serif; font-size: 18px; fill: rgb(42, 63, 95); fill-opacity: 1; white-space: pre;">01/01</text></g><g class="xtick"><text text-anchor="middle" x="0" y="469" transform="translate(238.56,0)" style="font-family: 'Open Sans', verdana, arial, sans-serif; font-size: 18px; fill: rgb(42, 63, 95); fill-opacity: 1; white-space: pre;">01/03</text></g><g class="xtick"><text text-anchor="middle" x="0" y="469" transform="translate(313.73,0)" style="font-family: 'Open Sans', verdana, arial, sans-serif; font-size: 18px; fill: rgb(42, 63, 95); fill-opacity: 1; white-space: pre;">01/05</text></g><g class="xtick"><text text-anchor="middle" x="0" y="469" transform="translate(388.91,0)" style="font-family: 'Open Sans', verdana, arial, sans-serif; font-size: 18px; fill: rgb(42, 63, 95); fill-opacity: 1; white-space: pre;">01/07</text></g><g class="xtick"><text text-anchor="middle" x="0" y="469" transform="translate(465.32,0)" style="font-family: 'Open Sans', verdana, arial, sans-serif; font-size: 18px; fill: rgb(42, 63, 95); fill-opacity: 1; white-space: pre;">01/09</text></g><g class="xtick"><text text-anchor="middle" x="0" y="469" transform="translate(540.49,0)" style="font-family: 'Open Sans', verdana, arial, sans-serif; font-size: 18px; fill: rgb(42, 63, 95); fill-opacity: 1; white-space: pre;">01/11</text></g><g class="xtick"><text text-anchor="middle" x="0" y="469" transform="translate(615.67,0)" style="font-family: 'Open Sans', verdana, arial, sans-serif; font-size: 18px; fill: rgb(42, 63, 95); fill-opacity: 1; white-space: pre;">01/01</text></g><g class="xtick"><text text-anchor="middle" x="0" y="469" transform="translate(688.38,0)" style="font-family: 'Open Sans', verdana, arial, sans-serif; font-size: 18px; fill: rgb(42, 63, 95); fill-opacity: 1; white-space: pre;">01/03</text></g></g><g class="yaxislayer-above"/><g class="overaxes-above"/></g></g><g class="polarlayer"/><g class="ternarylayer"/><g class="geolayer"/><g class="funnelarealayer"/><g class="pielayer"/><g class="treemaplayer"/><g class="sunburstlayer"/><g class="glimages"/><defs id="topdefs-34f648"><g class="clips"/></defs><g class="layer-above"><g class="imagelayer"/><g class="shapelayer"><path data-index="0" fill-rule="evenodd" d="M-642.61,443.5L258.27,443.5" clip-path="url('#clip34f648xy')" style="opacity: 1; stroke: rgb(255, 0, 0); stroke-opacity: 1; fill: rgb(0, 0, 0); fill-opacity: 0; stroke-dasharray: 3px, 3px; stroke-width: 1.5px;"/></g></g><g class="infolayer"><g class="g-gtitle"><text class="gtitle" x="375" y="25" text-anchor="middle" dy="0.7em" style="font-family: 'Open Sans', verdana, arial, sans-serif; font-size: 50px; fill: rgb(42, 63, 95); opacity: 1; font-weight: normal; white-space: pre;"><tspan style="font-weight:bold">Haute-Corse (2B)</tspan></text></g><g class="g-xtitle"/><g class="annotation" data-index="0" style="opacity: 1;"><g class="annotation-text-g" transform="rotate(0,699.37,195.33)"><g class="cursor-pointer" transform="translate(627, 159)"><rect class="bg" x="0.5" y="0.5" width="143" height="71" style="stroke-width: 1px; stroke: rgb(0, 0, 0); stroke-opacity: 0; fill: rgb(255, 255, 255); fill-opacity: 0.6;"/><text class="annotation-text" text-anchor="middle" x="72.078125" y="55.5" style="font-family: 'Open Sans', verdana, arial, sans-serif; font-size: 50px; fill: rgb(8, 115, 191); fill-opacity: 1; white-space: pre;"> <tspan style="font-weight:bold">1497 </tspan></text></g></g><g class="annotation-arrow-g" style="opacity: 1;"><path d="M727.77,230.83L739.37,245.33" style="stroke-width: 1px; stroke: rgb(8, 115, 191); stroke-opacity: 1; stroke-dasharray: 0px, 0px, 18.569px, 18.569px;"/></g></g></g></svg>