<svg class="main-svg" xmlns="http://www.w3.org/2000/svg" xmlns:xlink="http://www.w3.org/1999/xlink" width="1125" height="750" style="" viewBox="0 0 750 500"><rect x="0" y="0" width="750" height="500" style="fill: rgb(0, 0, 0); fill-opacity: 0;"/><defs id="defs-e8ea2e"><g class="clips"><clipPath id="clipe8ea2exyplot" class="plotclip"><rect width="700" height="380"/></clipPath><clipPath class="axesclip" id="clipe8ea2ex"><rect x="50" y="0" width="700" height="500"/></clipPath><clipPath class="axesclip" id="clipe8ea2ey"><rect x="0" y="70" width="750" height="380"/></clipPath><clipPath class="axesclip" id="clipe8ea2exy"><rect x="50" y="70" width="700" height="380"/></clipPath></g><g class="gradients"/></defs><g class="bglayer"><rect class="bg" x="50" y="70" width="700" height="380" style="fill: rgb(0, 0, 0); fill-opacity: 0; stroke-width: 0;"/></g><g class="layer-below"><g class="imagelayer"/><g class="shapelayer"/></g><g class="cartesianlayer"><g class="subplot xy"><g class="layer-subplot"><g class="shapelayer"/><g class="imagelayer"/></g><g class="gridlayer"><g class="x"><path class="xgrid crisp" transform="translate(91.4,0)" d="M0,70v380" style="stroke: rgb(255, 255, 255); stroke-opacity: 1; stroke-width: 1px;"/><path class="xgrid crisp" transform="translate(167.92000000000002,0)" d="M0,70v380" style="stroke: rgb(255, 255, 255); stroke-opacity: 1; stroke-width: 1px;"/><path class="xgrid crisp" transform="translate(241.94,0)" d="M0,70v380" style="stroke: rgb(255, 255, 255); stroke-opacity: 1; stroke-width: 1px;"/><path class="xgrid crisp" transform="translate(318.46,0)" d="M0,70v380" style="stroke: rgb(255, 255, 255); stroke-opacity: 1; stroke-width: 1px;"/><path class="xgrid crisp" transform="translate(394.98,0)" d="M0,70v380" style="stroke: rgb(255, 255, 255); stroke-opacity: 1; stroke-width: 1px;"/><path class="xgrid crisp" transform="translate(472.76,0)" d="M0,70v380" style="stroke: rgb(255, 255, 255); stroke-opacity: 1; stroke-width: 1px;"/><path class="xgrid crisp" transform="translate(549.28,0)" d="M0,70v380" style="stroke: rgb(255, 255, 255); stroke-opacity: 1; stroke-width: 1px;"/><path class="xgrid crisp" transform="translate(625.81,0)" d="M0,70v380" style="stroke: rgb(255, 255, 255); stroke-opacity: 1; stroke-width: 1px;"/><path class="xgrid crisp" transform="translate(699.82,0)" d="M0,70v380" style="stroke: rgb(255, 255, 255); stroke-opacity: 1; stroke-width: 1px;"/></g><g class="y"/></g><g class="zerolinelayer"/><path class="xlines-below"/><path class="ylines-below"/><g class="overlines-below"/><g class="xaxislayer-below"/><g class="yaxislayer-below"/><g class="overaxes-below"/><g class="plot" transform="translate(50, 70)" clip-path="url('#clipe8ea2exyplot')"><g class="scatterlayer mlayer"><g class="trace scatter trace683afa" style="stroke-miterlimit: 2;"><g class="fills"><g><path class="js-fill" d="M678.67,380L-170.61,380L-170.61,379.55L-136.74,379.91L-135.48,379.87L-60.22,378.62L-58.96,378.44L-53.94,376.88L-52.69,376.79L-47.67,377.5L-46.42,377.55L-36.38,377.68L-35.13,377.72L-23.84,375.98L-22.58,376.03L-17.56,371.65L-16.31,371.65L-15.05,371.61L-13.8,370.23L-2.51,372.01L-1.25,371.61L1.25,371.65L2.51,371.74L3.76,370.98L5.02,371.7L7.53,371.39L8.78,369.87L11.29,369.42L12.54,367.32L16.31,361.21L17.56,361.17L21.33,359.6L22.58,357.82L25.09,353L26.34,347.37L28.85,346.26L30.11,340.46L33.87,332.11L35.13,330.82L36.38,328.94L37.63,328.58L40.14,325.33L41.4,325.73L43.91,326.58L45.16,328.81L46.42,328.76L47.67,326.08L48.92,327.74L50.18,334.65L51.43,335.01L52.69,337.15L55.2,336.93L56.45,345.77L57.71,348.18L58.96,345.37L61.47,353.53L62.72,354.65L63.98,354.43L65.23,356.88L66.49,359.34L67.74,359.16L69,359.92L70.25,361.57L71.51,361.61L72.76,362.41L74.01,360.27L75.27,359.87L81.54,357.51L82.8,359.07L85.3,359.74L86.56,360.18L89.07,360L90.32,359.92L92.83,359.25L94.09,359.16L95.34,357.55L96.59,357.86L100.36,358.71L101.61,359.47L102.87,359.6L104.12,361.03L105.38,364.11L106.63,363.4L109.14,363.75L110.39,362.15L111.65,361.48L112.9,361.7L116.67,361.7L117.92,359.74L119.18,359.92L120.43,361.39L121.68,362.68L122.94,359.65L125.45,360.81L126.7,363.04L127.96,364.02L129.21,363.58L134.23,363.17L135.48,362.24L137.99,361.43L139.25,361.48L143.01,362.01L144.27,363.93L146.77,367.01L148.03,366.52L150.54,367.24L151.79,367.06L161.83,370.63L163.08,371.79L165.59,372.59L166.85,371.7L169.35,372.28L170.61,371.88L173.12,370.49L174.37,370.81L176.88,371.16L178.14,371.25L181.9,372.68L183.15,371.79L186.92,371.61L188.17,371.7L190.68,371.97L191.94,372.41L195.7,372.23L196.95,371.97L198.21,371.07L199.46,371.3L201.97,371.25L203.23,371.25L204.48,371.07L205.73,369.96L206.99,369.51L208.24,367.41L210.75,365.76L212.01,365.85L214.52,365.67L215.77,365.23L218.28,364.07L219.53,362.86L223.3,361.43L224.55,361.75L227.06,362.46L228.32,362.77L230.82,362.91L232.08,365.9L235.84,364.24L237.1,364.6L239.61,365.32L240.86,363L242.11,364.2L243.37,363.53L245.88,364.47L247.13,363.98L248.39,363.93L249.64,364.74L250.9,365L252.15,366.7L254.66,369.56L255.91,370.05L259.68,370L260.93,369.69L263.44,369.6L264.7,370.36L269.71,371.79L270.97,372.06L274.73,372.1L275.99,373.13L278.49,373.71L279.75,374.69L281,375.18L282.26,374.33L287.28,374.24L288.53,372.86L292.29,372.99L293.55,374.2L296.06,374.15L297.31,374.47L301.08,374.33L302.33,373.53L306.09,374.78L307.35,375.18L314.87,377.41L316.13,377.5L337.46,378.75L338.71,378.57L344.98,378.08L346.24,377.99L353.76,376.79L355.02,376.21L356.27,375.85L357.53,376.43L360.04,375.63L361.29,375.31L362.54,375.18L363.8,373.97L366.31,370.67L367.56,370.05L370.07,368.26L371.33,368.35L372.58,366.12L373.84,366.43L377.6,361.25L378.85,361.08L381.36,359.74L382.62,358.49L386.38,353.98L387.63,353.49L390.14,353.18L391.4,352.06L395.16,353.18L396.42,351.48L397.67,351.17L398.92,351.88L401.43,352.1L402.69,353.27L406.45,355.41L407.71,355.99L413.98,361.34L415.23,361.52L425.27,367.5L426.52,369.02L431.54,371.12L432.8,370.98L434.05,371.83L435.3,371.7L442.83,373.8L444.09,374.38L459.14,375.94L460.39,376.43L469.18,376.3L470.43,376.56L475.45,376.74L476.7,376.74L490.5,375.09L491.76,374.38L494.27,373.8L495.52,374.55L499.28,371.83L500.54,371.74L503.05,371.21L504.3,368.35L506.81,367.46L508.06,369.2L510.57,366.74L511.83,366.92L515.59,361.52L516.85,357.06L519.35,352.6L520.61,352.19L526.88,330.59L528.14,329.12L529.39,328.99L530.65,324.52L533.15,316.26L534.41,314.79L539.43,310.24L540.68,310.64L543.19,314.79L544.44,317.51L546.95,318.5L548.21,322.56L550.72,327.11L551.97,327.24L554.48,330.9L555.73,331.31L556.99,333.89L558.24,332.69L559.5,331.84L560.75,329.3L562.01,323.58L563.26,325.95L564.52,322.33L565.77,308.63L570.79,266.1L572.04,265.7L573.3,264.71L574.55,237.94L577.06,202.27L578.32,190.04L580.82,151.08L582.08,147.47L588.35,84.13L589.61,76.9L590.86,76.01L592.11,61.06L594.62,42.98L595.88,27.72L598.39,17.27L599.64,15.62L600.9,0L602.15,1.47L603.41,4.33L604.66,10.13L605.91,11.65L607.17,11.83L608.42,12.94L609.68,24.55L615.95,64.63L617.2,65.61L620.97,107.47L622.22,120.24L625.99,143.4L627.24,162.64L629.75,193.35L631,204.64L633.51,223.39L634.77,224.99L637.28,249.36L638.53,257.08L641.04,270.65L642.29,274.8L643.55,275.07L644.8,285.11L647.31,291.32L648.57,292.07L649.82,297.7L651.08,298.68L653.58,302.21L654.84,302.52L658.6,307.47L659.86,306.18L661.11,305.24L662.37,298.72L663.62,295.24L664.87,288.24L667.38,275.25L668.64,272.79L669.89,273.51L671.15,268.29L672.4,264.09L673.66,264.31L674.91,264.98L676.16,263.82L678.67,264.18" style="fill: rgb(8, 115, 191); fill-opacity: 0.2; stroke-width: 0;"/></g></g><g class="errorbars"/><g class="lines"><path class="js-line" d="M-170.61,379.55L-136.74,379.91L-135.48,379.87L-60.22,378.62L-58.96,378.44L-53.94,376.88L-52.69,376.79L-47.67,377.5L-46.42,377.55L-36.38,377.68L-35.13,377.72L-23.84,375.98L-22.58,376.03L-17.56,371.65L-16.31,371.65L-15.05,371.61L-13.8,370.23L-2.51,372.01L-1.25,371.61L1.25,371.65L2.51,371.74L3.76,370.98L5.02,371.7L7.53,371.39L8.78,369.87L11.29,369.42L12.54,367.32L16.31,361.21L17.56,361.17L21.33,359.6L22.58,357.82L25.09,353L26.34,347.37L28.85,346.26L30.11,340.46L33.87,332.11L35.13,330.82L36.38,328.94L37.63,328.58L40.14,325.33L41.4,325.73L43.91,326.58L45.16,328.81L46.42,328.76L47.67,326.08L48.92,327.74L50.18,334.65L51.43,335.01L52.69,337.15L55.2,336.93L56.45,345.77L57.71,348.18L58.96,345.37L61.47,353.53L62.72,354.65L63.98,354.43L65.23,356.88L66.49,359.34L67.74,359.16L69,359.92L70.25,361.57L71.51,361.61L72.76,362.41L74.01,360.27L75.27,359.87L81.54,357.51L82.8,359.07L85.3,359.74L86.56,360.18L89.07,360L90.32,359.92L92.83,359.25L94.09,359.16L95.34,357.55L96.59,357.86L100.36,358.71L101.61,359.47L102.87,359.6L104.12,361.03L105.38,364.11L106.63,363.4L109.14,363.75L110.39,362.15L111.65,361.48L112.9,361.7L116.67,361.7L117.92,359.74L119.18,359.92L120.43,361.39L121.68,362.68L122.94,359.65L125.45,360.81L126.7,363.04L127.96,364.02L129.21,363.58L134.23,363.17L135.48,362.24L137.99,361.43L139.25,361.48L143.01,362.01L144.27,363.93L146.77,367.01L148.03,366.52L150.54,367.24L151.79,367.06L161.83,370.63L163.08,371.79L165.59,372.59L166.85,371.7L169.35,372.28L170.61,371.88L173.12,370.49L174.37,370.81L176.88,371.16L178.14,371.25L181.9,372.68L183.15,371.79L186.92,371.61L188.17,371.7L190.68,371.97L191.94,372.41L195.7,372.23L196.95,371.97L198.21,371.07L199.46,371.3L201.97,371.25L203.23,371.25L204.48,371.07L205.73,369.96L206.99,369.51L208.24,367.41L210.75,365.76L212.01,365.85L214.52,365.67L215.77,365.23L218.28,364.07L219.53,362.86L223.3,361.43L224.55,361.75L227.06,362.46L228.32,362.77L230.82,362.91L232.08,365.9L235.84,364.24L237.1,364.6L239.61,365.32L240.86,363L242.11,364.2L243.37,363.53L245.88,364.47L247.13,363.98L248.39,363.93L249.64,364.74L250.9,365L252.15,366.7L254.66,369.56L255.91,370.05L259.68,370L260.93,369.69L263.44,369.6L264.7,370.36L269.71,371.79L270.97,372.06L274.73,372.1L275.99,373.13L278.49,373.71L279.75,374.69L281,375.18L282.26,374.33L287.28,374.24L288.53,372.86L292.29,372.99L293.55,374.2L296.06,374.15L297.31,374.47L301.08,374.33L302.33,373.53L306.09,374.78L307.35,375.18L314.87,377.41L316.13,377.5L337.46,378.75L338.71,378.57L344.98,378.08L346.24,377.99L353.76,376.79L355.02,376.21L356.27,375.85L357.53,376.43L360.04,375.63L361.29,375.31L362.54,375.18L363.8,373.97L366.31,370.67L367.56,370.05L370.07,368.26L371.33,368.35L372.58,366.12L373.84,366.43L377.6,361.25L378.85,361.08L381.36,359.74L382.62,358.49L386.38,353.98L387.63,353.49L390.14,353.18L391.4,352.06L395.16,353.18L396.42,351.48L397.67,351.17L398.92,351.88L401.43,352.1L402.69,353.27L406.45,355.41L407.71,355.99L413.98,361.34L415.23,361.52L425.27,367.5L426.52,369.02L431.54,371.12L432.8,370.98L434.05,371.83L435.3,371.7L442.83,373.8L444.09,374.38L459.14,375.94L460.39,376.43L469.18,376.3L470.43,376.56L475.45,376.74L476.7,376.74L490.5,375.09L491.76,374.38L494.27,373.8L495.52,374.55L499.28,371.83L500.54,371.74L503.05,371.21L504.3,368.35L506.81,367.46L508.06,369.2L510.57,366.74L511.83,366.92L515.59,361.52L516.85,357.06L519.35,352.6L520.61,352.19L526.88,330.59L528.14,329.12L529.39,328.99L530.65,324.52L533.15,316.26L534.41,314.79L539.43,310.24L540.68,310.64L543.19,314.79L544.44,317.51L546.95,318.5L548.21,322.56L550.72,327.11L551.97,327.24L554.48,330.9L555.73,331.31L556.99,333.89L558.24,332.69L559.5,331.84L560.75,329.3L562.01,323.58L563.26,325.95L564.52,322.33L565.77,308.63L570.79,266.1L572.04,265.7L573.3,264.71L574.55,237.94L577.06,202.27L578.32,190.04L580.82,151.08L582.08,147.47L588.35,84.13L589.61,76.9L590.86,76.01L592.11,61.06L594.62,42.98L595.88,27.72L598.39,17.27L599.64,15.62L600.9,0L602.15,1.47L603.41,4.33L604.66,10.13L605.91,11.65L607.17,11.83L608.42,12.94L609.68,24.55L615.95,64.63L617.2,65.61L620.97,107.47L622.22,120.24L625.99,143.4L627.24,162.64L629.75,193.35L631,204.64L633.51,223.39L634.77,224.99L637.28,249.36L638.53,257.08L641.04,270.65L642.29,274.8L643.55,275.07L644.8,285.11L647.31,291.32L648.57,292.07L649.82,297.7L651.08,298.68L653.58,302.21L654.84,302.52L658.6,307.47L659.86,306.18L661.11,305.24L662.37,298.72L663.62,295.24L664.87,288.24L667.38,275.25L668.64,272.79L669.89,273.51L671.15,268.29L672.4,264.09L673.66,264.31L674.91,264.98L676.16,263.82L678.67,264.18" style="vector-effect: non-scaling-stroke; fill: none; stroke: rgb(8, 115, 191); stroke-opacity: 1; stroke-width: 0.5px; opacity: 1;"/></g><g class="points"/><g class="text"/></g><g class="trace scatter tracec1aa1e" style="stroke-miterlimit: 2;"><g class="fills"><g><path class="js-fill" d="M691.22,380L678.67,380L678.67,264.18L686.2,288.33L687.46,288.73L688.71,293.5L689.96,294.8L691.22,294.89" style="fill: rgb(8, 115, 191); fill-opacity: 0.4; stroke-width: 0;"/></g></g><g class="errorbars"/><g class="lines"><path class="js-line" d="M678.67,264.18L686.2,288.33L687.46,288.73L688.71,293.5L689.96,294.8L691.22,294.89" style="vector-effect: non-scaling-stroke; fill: none; stroke: rgb(8, 115, 191); stroke-opacity: 1; stroke-width: 2px; opacity: 1;"/></g><g class="points"/><g class="text"/></g><g class="trace scatter trace6a93f8" style="stroke-miterlimit: 2; opacity: 1;"><g class="fills"/><g class="errorbars"/><g class="lines"/><g class="points"><path class="point" transform="translate(691.22,294.89)" d="M15,0A15,15 0 1,1 0,-15A15,15 0 0,1 15,0Z" style="opacity: 1; stroke-width: 0px; fill: rgb(8, 115, 191); fill-opacity: 1;"/></g><g class="text"/></g></g></g><g class="overplot"/><path class="xlines-above crisp" style="fill: none; stroke-width: 1px; stroke: rgb(0, 0, 0); stroke-opacity: 0;" d=""/><path class="ylines-above crisp" style="fill: none;" d="M0,0"/><g class="overlines-above"/><g class="xaxislayer-above"><path class="xtick ticks crisp" d="M0,450v-5" transform="translate(91.4,0)" style="stroke: rgb(68, 68, 68); stroke-opacity: 1; stroke-width: 1px;"/><path class="xtick ticks crisp" d="M0,450v-5" transform="translate(167.92000000000002,0)" style="stroke: rgb(68, 68, 68); stroke-opacity: 1; stroke-width: 1px;"/><path class="xtick ticks crisp" d="M0,450v-5" transform="translate(241.94,0)" style="stroke: rgb(68, 68, 68); stroke-opacity: 1; stroke-width: 1px;"/><path class="xtick ticks crisp" d="M0,450v-5" transform="translate(318.46,0)" style="stroke: rgb(68, 68, 68); stroke-opacity: 1; stroke-width: 1px;"/><path class="xtick ticks crisp" d="M0,450v-5" transform="translate(394.98,0)" style="stroke: rgb(68, 68, 68); stroke-opacity: 1; stroke-width: 1px;"/><path class="xtick ticks crisp" d="M0,450v-5" transform="translate(472.76,0)" style="stroke: rgb(68, 68, 68); stroke-opacity: 1; stroke-width: 1px;"/><path class="xtick ticks crisp" d="M0,450v-5" transform="translate(549.28,0)" style="stroke: rgb(68, 68, 68); stroke-opacity: 1; stroke-width: 1px;"/><path class="xtick ticks crisp" d="M0,450v-5" transform="translate(625.81,0)" style="stroke: rgb(68, 68, 68); stroke-opacity: 1; stroke-width: 1px;"/><path class="xtick ticks crisp" d="M0,450v-5" transform="translate(699.82,0)" style="stroke: rgb(68, 68, 68); stroke-opacity: 1; stroke-width: 1px;"/><g class="xtick"><text text-anchor="middle" x="0" y="469" transform="translate(91.4,0)" style="font-family: 'Open Sans', verdana, arial, sans-serif; font-size: 18px; fill: rgb(42, 63, 95); fill-opacity: 1; white-space: pre;">01/11</text></g><g class="xtick"><text text-anchor="middle" x="0" y="469" transform="translate(167.92000000000002,0)" style="font-family: 'Open Sans', verdana, arial, sans-serif; font-size: 18px; fill: rgb(42, 63, 95); fill-opacity: 1; white-space: pre;">01/01</text></g><g class="xtick"><text text-anchor="middle" x="0" y="469" transform="translate(241.94,0)" style="font-family: 'Open Sans', verdana, arial, sans-serif; font-size: 18px; fill: rgb(42, 63, 95); fill-opacity: 1; white-space: pre;">01/03</text></g><g class="xtick"><text text-anchor="middle" x="0" y="469" transform="translate(318.46,0)" style="font-family: 'Open Sans', verdana, arial, sans-serif; font-size: 18px; fill: rgb(42, 63, 95); fill-opacity: 1; white-space: pre;">01/05</text></g><g class="xtick"><text text-anchor="middle" x="0" y="469" transform="translate(394.98,0)" style="font-family: 'Open Sans', verdana, arial, sans-serif; font-size: 18px; fill: rgb(42, 63, 95); fill-opacity: 1; white-space: pre;">01/07</text></g><g class="xtick"><text text-anchor="middle" x="0" y="469" transform="translate(472.76,0)" style="font-family: 'Open Sans', verdana, arial, sans-serif; font-size: 18px; fill: rgb(42, 63, 95); fill-opacity: 1; white-space: pre;">01/09</text></g><g class="xtick"><text text-anchor="middle" x="0" y="469" transform="translate(549.28,0)" style="font-family: 'Open Sans', verdana, arial, sans-serif; font-size: 18px; fill: rgb(42, 63, 95); fill-opacity: 1; white-space: pre;">01/11</text></g><g class="xtick"><text text-anchor="middle" x="0" y="469" transform="translate(625.81,0)" style="font-family: 'Open Sans', verdana, arial, sans-serif; font-size: 18px; fill: rgb(42, 63, 95); fill-opacity: 1; white-space: pre;">01/01</text></g><g class="xtick"><text text-anchor="middle" x="0" y="469" transform="translate(699.82,0)" style="font-family: 'Open Sans', verdana, arial, sans-serif; font-size: 18px; fill: rgb(42, 63, 95); fill-opacity: 1; white-space: pre;">01/03</text></g></g><g class="yaxislayer-above"/><g class="overaxes-above"/></g></g><g class="polarlayer"/><g class="ternarylayer"/><g class="geolayer"/><g class="funnelarealayer"/><g class="pielayer"/><g class="treemaplayer"/><g class="sunburstlayer"/><g class="glimages"/><defs id="topdefs-e8ea2e"><g class="clips"/></defs><g class="layer-above"><g class="imagelayer"/><g class="shapelayer"><path data-index="0" fill-rule="evenodd" d="M-655.02,444.94L262.01,444.94" clip-path="url('#clipe8ea2exy')" style="opacity: 1; stroke: rgb(255, 0, 0); stroke-opacity: 1; fill: rgb(0, 0, 0); fill-opacity: 0; stroke-dasharray: 3px, 3px; stroke-width: 1.5px;"/></g></g><g class="infolayer"><g class="g-gtitle"><text class="gtitle" x="375" y="25" text-anchor="middle" dy="0.7em" style="font-family: 'Open Sans', verdana, arial, sans-serif; font-size: 50px; fill: rgb(42, 63, 95); opacity: 1; font-weight: normal; white-space: pre;"><tspan style="font-weight:bold">Hautes-Pyrénées (65)</tspan></text></g><g class="g-xtitle"/><g class="annotation" data-index="0" style="opacity: 1;"><g class="annotation-text-g" transform="rotate(0,699.22,304.89)"><g class="cursor-pointer" transform="translate(641, 269)"><rect class="bg" x="0.5" y="0.5" width="115" height="71" style="stroke-width: 1px; stroke: rgb(0, 0, 0); stroke-opacity: 0; fill: rgb(255, 255, 255); fill-opacity: 0.6;"/><text class="annotation-text" text-anchor="middle" x="57.8125" y="55.5" style="font-family: 'Open Sans', verdana, arial, sans-serif; font-size: 50px; fill: rgb(8, 115, 191); fill-opacity: 1; white-space: pre;"> <tspan style="font-weight:bold">840 </tspan></text></g></g><g class="annotation-arrow-g" style="opacity: 1;"><path d="M727.62,340.39L739.22,354.89" style="stroke-width: 1px; stroke: rgb(8, 115, 191); stroke-opacity: 1; stroke-dasharray: 0px, 0px, 18.569px, 18.569px;"/></g></g></g></svg>