<svg class="main-svg" xmlns="http://www.w3.org/2000/svg" xmlns:xlink="http://www.w3.org/1999/xlink" width="1125" height="750" style="" viewBox="0 0 750 500"><rect x="0" y="0" width="750" height="500" style="fill: rgb(0, 0, 0); fill-opacity: 0;"/><defs id="defs-5bf921"><g class="clips"><clipPath id="clip5bf921xyplot" class="plotclip"><rect width="700" height="380"/></clipPath><clipPath class="axesclip" id="clip5bf921x"><rect x="50" y="0" width="700" height="500"/></clipPath><clipPath class="axesclip" id="clip5bf921y"><rect x="0" y="70" width="750" height="380"/></clipPath><clipPath class="axesclip" id="clip5bf921xy"><rect x="50" y="70" width="700" height="380"/></clipPath></g><g class="gradients"/></defs><g class="bglayer"><rect class="bg" x="50" y="70" width="700" height="380" style="fill: rgb(0, 0, 0); fill-opacity: 0; stroke-width: 0;"/></g><g class="layer-below"><g class="imagelayer"/><g class="shapelayer"/></g><g class="cartesianlayer"><g class="subplot xy"><g class="layer-subplot"><g class="shapelayer"/><g class="imagelayer"/></g><g class="gridlayer"><g class="x"><path class="xgrid crisp" transform="translate(90.6,0)" d="M0,70v380" style="stroke: rgb(255, 255, 255); stroke-opacity: 1; stroke-width: 1px;"/><path class="xgrid crisp" transform="translate(165.64,0)" d="M0,70v380" style="stroke: rgb(255, 255, 255); stroke-opacity: 1; stroke-width: 1px;"/><path class="xgrid crisp" transform="translate(238.22,0)" d="M0,70v380" style="stroke: rgb(255, 255, 255); stroke-opacity: 1; stroke-width: 1px;"/><path class="xgrid crisp" transform="translate(313.27,0)" d="M0,70v380" style="stroke: rgb(255, 255, 255); stroke-opacity: 1; stroke-width: 1px;"/><path class="xgrid crisp" transform="translate(388.31,0)" d="M0,70v380" style="stroke: rgb(255, 255, 255); stroke-opacity: 1; stroke-width: 1px;"/><path class="xgrid crisp" transform="translate(464.59,0)" d="M0,70v380" style="stroke: rgb(255, 255, 255); stroke-opacity: 1; stroke-width: 1px;"/><path class="xgrid crisp" transform="translate(539.63,0)" d="M0,70v380" style="stroke: rgb(255, 255, 255); stroke-opacity: 1; stroke-width: 1px;"/><path class="xgrid crisp" transform="translate(614.67,0)" d="M0,70v380" style="stroke: rgb(255, 255, 255); stroke-opacity: 1; stroke-width: 1px;"/><path class="xgrid crisp" transform="translate(687.26,0)" d="M0,70v380" style="stroke: rgb(255, 255, 255); stroke-opacity: 1; stroke-width: 1px;"/></g><g class="y"/></g><g class="zerolinelayer"/><path class="xlines-below"/><path class="ylines-below"/><g class="overlines-below"/><g class="xaxislayer-below"/><g class="yaxislayer-below"/><g class="overaxes-below"/><g class="plot" transform="translate(50, 70)" clip-path="url('#clip5bf921xyplot')"><g class="scatterlayer mlayer"><g class="trace scatter traceb4c3c7" style="stroke-miterlimit: 2;"><g class="fills"><g><path class="js-fill" d="M679.09,380L-167.31,380L-167.31,379.94L-124.25,380L-123.02,379.94L-54.13,378.87L-52.9,378.56L-46.75,377.74L-45.52,377.62L-34.45,376.49L-33.22,376.11L-22.14,375.55L-20.91,375.3L-15.99,371.03L-14.76,370.97L-12.3,369.53L-11.07,369.84L-7.38,369.97L-6.15,370.03L-2.46,371.03L-1.23,371.09L0,370.34L1.23,370.72L2.46,370.72L3.69,368.08L7.38,364.95L8.61,363.57L11.07,362L12.3,359.18L14.76,353.78L15.99,353.22L17.22,351.34L18.45,350.9L19.68,351.46L20.91,349.14L22.14,348.89L23.37,346.51L24.6,346.13L25.83,346.63L28.3,347.26L29.53,344.75L31.99,348.08L33.22,347.45L35.68,347.64L36.91,347.39L38.14,352.53L39.37,352.47L40.6,352.28L41.83,353.72L45.52,355.23L46.75,359.12L47.98,360.62L49.21,365.58L50.44,366.45L51.67,369.15L54.13,369.46L55.36,370.78L56.59,372.72L57.82,371.41L59.05,373.41L60.28,373.41L62.74,373.41L63.97,374.29L65.2,373.79L66.43,374.1L71.35,373.85L72.58,373.48L73.81,374.1L75.04,373.67L76.27,371.97L77.5,372.03L81.2,372.16L82.43,371.41L83.66,371.97L84.89,373.41L89.81,372.03L91.04,372.41L95.96,373.67L97.19,373.85L99.65,373.67L100.88,373.1L102.11,372.98L103.34,374.29L107.03,372.98L108.26,370.09L109.49,368.02L110.72,367.58L114.41,367.39L115.64,363.19L116.87,364.89L118.1,363.82L119.33,363L120.56,360.18L123.02,360.06L124.25,362.82L126.71,363.76L127.94,364.89L130.4,365.51L131.63,365.45L134.09,364.07L135.33,364.76L139.02,361.69L140.25,361.5L141.48,360.12L142.71,360.18L148.86,362.44L150.09,365.32L157.47,366.01L158.7,365.51L159.93,366.89L161.16,366.64L167.31,367.64L168.54,366.77L173.46,369.65L174.69,369.65L175.92,369.9L177.15,371.22L179.61,370.97L180.84,370.91L183.3,371.03L184.53,372.29L186.99,370.91L188.22,370.47L189.46,371.41L190.69,370.78L191.92,370.91L193.15,370.03L194.38,370.59L195.61,369.71L196.84,370.34L198.07,369.15L200.53,368.77L201.76,368.21L204.22,366.83L205.45,366.83L207.91,365.39L209.14,365.83L211.6,364.63L212.83,365.32L215.29,361.75L216.52,360.87L220.21,359.93L221.44,358.93L222.67,360.43L223.9,360.62L225.13,360.12L226.36,360.43L227.59,363.57L228.82,362.94L232.51,360.56L233.74,361.87L234.97,361.75L236.2,358.36L241.12,363.32L242.36,362.88L244.82,362.5L246.05,361.12L248.51,359.3L249.74,359.3L253.43,359.37L254.66,361.69L257.12,364.2L258.35,364.45L259.58,365.83L260.81,365.64L266.96,368.21L268.19,368.15L270.65,369.09L271.88,368.33L273.11,368.27L274.34,370.53L281.72,370.72L282.95,369.4L284.18,370.78L285.41,370.97L286.64,371.16L287.87,373.79L290.33,374.36L291.56,374.42L295.25,375.05L296.49,374.42L300.18,376.68L301.41,377.12L303.87,376.99L305.1,377.37L313.71,379.25L314.94,379.44L327.24,379.37L328.47,379.37L339.54,378.18L340.77,377.62L343.23,376.61L344.46,375.42L346.92,374.98L348.15,372.91L349.38,371.6L350.62,372.35L353.08,367.58L354.31,366.7L355.54,366.33L356.77,364.38L358,362.06L359.23,357.86L360.46,357.74L361.69,356.23L365.38,353.16L366.61,350.9L367.84,350.9L369.07,351.97L370.3,350.84L371.53,351.78L373.99,351.78L375.22,353.16L376.45,352.91L377.68,351.65L378.91,353.47L380.14,352.78L381.37,352.72L382.6,350.4L385.06,349.08L386.29,347.01L387.52,344.69L388.75,344.06L391.21,344.13L392.44,342.68L393.67,342.24L394.9,343.94L396.13,343.94L397.36,344.82L398.59,344.94L399.82,347.32L403.51,352.4L404.75,354.98L407.21,355.04L408.44,356.04L409.67,357.99L410.9,358.36L414.59,360.24L415.82,360.31L418.28,362.5L419.51,363.13L420.74,363.44L421.97,365.14L425.66,365.32L426.89,366.89L433.04,368.46L434.27,370.84L435.5,370.78L436.73,371.6L439.19,373.1L440.42,373.23L444.11,373.54L445.34,374.29L449.03,375.92L450.26,375.86L453.95,376.68L455.18,376.05L461.34,376.11L462.57,374.79L472.41,377.05L473.64,376.68L479.79,376.74L481.02,376.55L484.71,375.11L485.94,375.55L492.09,371.91L493.32,371.85L495.78,366.7L497.01,365.32L498.24,366.39L499.47,365.07L501.93,365.45L503.16,363.57L504.39,363.44L505.62,362L506.85,358.24L508.08,357.3L510.54,356.29L511.78,354.47L514.24,350.71L515.47,349.14L517.93,345.88L519.16,345.82L524.08,334.91L525.31,333.34L526.54,331.65L527.77,331.39L530.23,325.62L531.46,322.99L533.92,318.85L535.15,319.23L537.61,318.35L538.84,319.16L540.07,321.17L541.3,321.11L542.53,322.49L543.76,322.61L544.99,322.93L546.22,325.81L547.45,327.07L548.68,326.63L549.91,325L551.14,325.88L552.37,329.83L553.6,328.76L559.75,282.1L560.98,281.66L562.21,280.72L563.44,263.66L569.6,225.65L570.83,225.09L573.29,208.72L574.52,198.94L575.75,191.29L576.98,177.17L578.21,164.32L579.44,163.56L585.59,55.88L586.82,47.79L588.05,44.84L589.28,20.19L591.74,5.96L592.97,0L595.43,1.57L596.66,2.32L600.35,32.11L601.58,50.17L604.04,73.19L605.27,72.63L610.19,154.28L611.42,168.21L613.88,179.31L615.11,203.2L620.04,247.98L621.27,253.31L622.5,254.63L623.73,271.12L628.65,302.48L629.88,306.87L631.11,307.5L632.34,312.71L633.57,316.72L634.8,313.77L637.26,317.6L638.49,317.79L639.72,317.6L640.95,319.16L642.18,321.23L643.41,325.88L645.87,326.44L647.1,327.32L648.33,327.19L649.56,323.3L650.79,322.43L652.02,319.1L656.94,311.01L658.17,304.61L660.63,289.56L661.86,283.23L664.32,275.51L665.55,275.89L666.78,266.86L668.01,265.67L670.47,261.21L671.7,261.72L674.17,261.59L675.4,266.55L676.63,262.78L677.86,264.6L679.09,260.09" style="fill: rgb(8, 115, 191); fill-opacity: 0.2; stroke-width: 0;"/></g></g><g class="errorbars"/><g class="lines"><path class="js-line" d="M-167.31,379.94L-124.25,380L-123.02,379.94L-54.13,378.87L-52.9,378.56L-46.75,377.74L-45.52,377.62L-34.45,376.49L-33.22,376.11L-22.14,375.55L-20.91,375.3L-15.99,371.03L-14.76,370.97L-12.3,369.53L-11.07,369.84L-7.38,369.97L-6.15,370.03L-2.46,371.03L-1.23,371.09L0,370.34L1.23,370.72L2.46,370.72L3.69,368.08L7.38,364.95L8.61,363.57L11.07,362L12.3,359.18L14.76,353.78L15.99,353.22L17.22,351.34L18.45,350.9L19.68,351.46L20.91,349.14L22.14,348.89L23.37,346.51L24.6,346.13L25.83,346.63L28.3,347.26L29.53,344.75L31.99,348.08L33.22,347.45L35.68,347.64L36.91,347.39L38.14,352.53L39.37,352.47L40.6,352.28L41.83,353.72L45.52,355.23L46.75,359.12L47.98,360.62L49.21,365.58L50.44,366.45L51.67,369.15L54.13,369.46L55.36,370.78L56.59,372.72L57.82,371.41L59.05,373.41L60.28,373.41L62.74,373.41L63.97,374.29L65.2,373.79L66.43,374.1L71.35,373.85L72.58,373.48L73.81,374.1L75.04,373.67L76.27,371.97L77.5,372.03L81.2,372.16L82.43,371.41L83.66,371.97L84.89,373.41L89.81,372.03L91.04,372.41L95.96,373.67L97.19,373.85L99.65,373.67L100.88,373.1L102.11,372.98L103.34,374.29L107.03,372.98L108.26,370.09L109.49,368.02L110.72,367.58L114.41,367.39L115.64,363.19L116.87,364.89L118.1,363.82L119.33,363L120.56,360.18L123.02,360.06L124.25,362.82L126.71,363.76L127.94,364.89L130.4,365.51L131.63,365.45L134.09,364.07L135.33,364.76L139.02,361.69L140.25,361.5L141.48,360.12L142.71,360.18L148.86,362.44L150.09,365.32L157.47,366.01L158.7,365.51L159.93,366.89L161.16,366.64L167.31,367.64L168.54,366.77L173.46,369.65L174.69,369.65L175.92,369.9L177.15,371.22L179.61,370.97L180.84,370.91L183.3,371.03L184.53,372.29L186.99,370.91L188.22,370.47L189.46,371.41L190.69,370.78L191.92,370.91L193.15,370.03L194.38,370.59L195.61,369.71L196.84,370.34L198.07,369.15L200.53,368.77L201.76,368.21L204.22,366.83L205.45,366.83L207.91,365.39L209.14,365.83L211.6,364.63L212.83,365.32L215.29,361.75L216.52,360.87L220.21,359.93L221.44,358.93L222.67,360.43L223.9,360.62L225.13,360.12L226.36,360.43L227.59,363.57L228.82,362.94L232.51,360.56L233.74,361.87L234.97,361.75L236.2,358.36L241.12,363.32L242.36,362.88L244.82,362.5L246.05,361.12L248.51,359.3L249.74,359.3L253.43,359.37L254.66,361.69L257.12,364.2L258.35,364.45L259.58,365.83L260.81,365.64L266.96,368.21L268.19,368.15L270.65,369.09L271.88,368.33L273.11,368.27L274.34,370.53L281.72,370.72L282.95,369.4L284.18,370.78L285.41,370.97L286.64,371.16L287.87,373.79L290.33,374.36L291.56,374.42L295.25,375.05L296.49,374.42L300.18,376.68L301.41,377.12L303.87,376.99L305.1,377.37L313.71,379.25L314.94,379.44L327.24,379.37L328.47,379.37L339.54,378.18L340.77,377.62L343.23,376.61L344.46,375.42L346.92,374.98L348.15,372.91L349.38,371.6L350.62,372.35L353.08,367.58L354.31,366.7L355.54,366.33L356.77,364.38L358,362.06L359.23,357.86L360.46,357.74L361.69,356.23L365.38,353.16L366.61,350.9L367.84,350.9L369.07,351.97L370.3,350.84L371.53,351.78L373.99,351.78L375.22,353.16L376.45,352.91L377.68,351.65L378.91,353.47L380.14,352.78L381.37,352.72L382.6,350.4L385.06,349.08L386.29,347.01L387.52,344.69L388.75,344.06L391.21,344.13L392.44,342.68L393.67,342.24L394.9,343.94L396.13,343.94L397.36,344.82L398.59,344.94L399.82,347.32L403.51,352.4L404.75,354.98L407.21,355.04L408.44,356.04L409.67,357.99L410.9,358.36L414.59,360.24L415.82,360.31L418.28,362.5L419.51,363.13L420.74,363.44L421.97,365.14L425.66,365.32L426.89,366.89L433.04,368.46L434.27,370.84L435.5,370.78L436.73,371.6L439.19,373.1L440.42,373.23L444.11,373.54L445.34,374.29L449.03,375.92L450.26,375.86L453.95,376.68L455.18,376.05L461.34,376.11L462.57,374.79L472.41,377.05L473.64,376.68L479.79,376.74L481.02,376.55L484.71,375.11L485.94,375.55L492.09,371.91L493.32,371.85L495.78,366.7L497.01,365.32L498.24,366.39L499.47,365.07L501.93,365.45L503.16,363.57L504.39,363.44L505.62,362L506.85,358.24L508.08,357.3L510.54,356.29L511.78,354.47L514.24,350.71L515.47,349.14L517.93,345.88L519.16,345.82L524.08,334.91L525.31,333.34L526.54,331.65L527.77,331.39L530.23,325.62L531.46,322.99L533.92,318.85L535.15,319.23L537.61,318.35L538.84,319.16L540.07,321.17L541.3,321.11L542.53,322.49L543.76,322.61L544.99,322.93L546.22,325.81L547.45,327.07L548.68,326.63L549.91,325L551.14,325.88L552.37,329.83L553.6,328.76L559.75,282.1L560.98,281.66L562.21,280.72L563.44,263.66L569.6,225.65L570.83,225.09L573.29,208.72L574.52,198.94L575.75,191.29L576.98,177.17L578.21,164.32L579.44,163.56L585.59,55.88L586.82,47.79L588.05,44.84L589.28,20.19L591.74,5.96L592.97,0L595.43,1.57L596.66,2.32L600.35,32.11L601.58,50.17L604.04,73.19L605.27,72.63L610.19,154.28L611.42,168.21L613.88,179.31L615.11,203.2L620.04,247.98L621.27,253.31L622.5,254.63L623.73,271.12L628.65,302.48L629.88,306.87L631.11,307.5L632.34,312.71L633.57,316.72L634.8,313.77L637.26,317.6L638.49,317.79L639.72,317.6L640.95,319.16L642.18,321.23L643.41,325.88L645.87,326.44L647.1,327.32L648.33,327.19L649.56,323.3L650.79,322.43L652.02,319.1L656.94,311.01L658.17,304.61L660.63,289.56L661.86,283.23L664.32,275.51L665.55,275.89L666.78,266.86L668.01,265.67L670.47,261.21L671.7,261.72L674.17,261.59L675.4,266.55L676.63,262.78L677.86,264.6L679.09,260.09" style="vector-effect: non-scaling-stroke; fill: none; stroke: rgb(8, 115, 191); stroke-opacity: 1; stroke-width: 0.5px; opacity: 1;"/></g><g class="points"/><g class="text"/></g><g class="trace scatter trace0a373f" style="stroke-miterlimit: 2;"><g class="fills"><g><path class="js-fill" d="M691.39,380L679.09,380L679.09,260.09L680.32,256.13L681.55,255.19L682.78,255.38L684.01,250.05L685.24,250.68L686.47,252.18L688.93,259.27L690.16,259.4L691.39,258.77" style="fill: rgb(8, 115, 191); fill-opacity: 0.4; stroke-width: 0;"/></g></g><g class="errorbars"/><g class="lines"><path class="js-line" d="M679.09,260.09L680.32,256.13L681.55,255.19L682.78,255.38L684.01,250.05L685.24,250.68L686.47,252.18L688.93,259.27L690.16,259.4L691.39,258.77" style="vector-effect: non-scaling-stroke; fill: none; stroke: rgb(8, 115, 191); stroke-opacity: 1; stroke-width: 2px; opacity: 1;"/></g><g class="points"/><g class="text"/></g><g class="trace scatter trace95dfdc" style="stroke-miterlimit: 2; opacity: 1;"><g class="fills"/><g class="errorbars"/><g class="lines"/><g class="points"><path class="point" transform="translate(691.39,258.77)" d="M15,0A15,15 0 1,1 0,-15A15,15 0 0,1 15,0Z" style="opacity: 1; stroke-width: 0px; fill: rgb(8, 115, 191); fill-opacity: 1;"/></g><g class="text"/></g></g></g><g class="overplot"/><path class="xlines-above crisp" style="fill: none; stroke-width: 1px; stroke: rgb(0, 0, 0); stroke-opacity: 0;" d=""/><path class="ylines-above crisp" style="fill: none;" d="M0,0"/><g class="overlines-above"/><g class="xaxislayer-above"><path class="xtick ticks crisp" d="M0,450v-5" transform="translate(90.6,0)" style="stroke: rgb(68, 68, 68); stroke-opacity: 1; stroke-width: 1px;"/><path class="xtick ticks crisp" d="M0,450v-5" transform="translate(165.64,0)" style="stroke: rgb(68, 68, 68); stroke-opacity: 1; stroke-width: 1px;"/><path class="xtick ticks crisp" d="M0,450v-5" transform="translate(238.22,0)" style="stroke: rgb(68, 68, 68); stroke-opacity: 1; stroke-width: 1px;"/><path class="xtick ticks crisp" d="M0,450v-5" transform="translate(313.27,0)" style="stroke: rgb(68, 68, 68); stroke-opacity: 1; stroke-width: 1px;"/><path class="xtick ticks crisp" d="M0,450v-5" transform="translate(388.31,0)" style="stroke: rgb(68, 68, 68); stroke-opacity: 1; stroke-width: 1px;"/><path class="xtick ticks crisp" d="M0,450v-5" transform="translate(464.59,0)" style="stroke: rgb(68, 68, 68); stroke-opacity: 1; stroke-width: 1px;"/><path class="xtick ticks crisp" d="M0,450v-5" transform="translate(539.63,0)" style="stroke: rgb(68, 68, 68); stroke-opacity: 1; stroke-width: 1px;"/><path class="xtick ticks crisp" d="M0,450v-5" transform="translate(614.67,0)" style="stroke: rgb(68, 68, 68); stroke-opacity: 1; stroke-width: 1px;"/><path class="xtick ticks crisp" d="M0,450v-5" transform="translate(687.26,0)" style="stroke: rgb(68, 68, 68); stroke-opacity: 1; stroke-width: 1px;"/><g class="xtick"><text text-anchor="middle" x="0" y="469" transform="translate(90.6,0)" style="font-family: 'Open Sans', verdana, arial, sans-serif; font-size: 18px; fill: rgb(42, 63, 95); fill-opacity: 1; white-space: pre;">01/11</text></g><g class="xtick"><text text-anchor="middle" x="0" y="469" transform="translate(165.64,0)" style="font-family: 'Open Sans', verdana, arial, sans-serif; font-size: 18px; fill: rgb(42, 63, 95); fill-opacity: 1; white-space: pre;">01/01</text></g><g class="xtick"><text text-anchor="middle" x="0" y="469" transform="translate(238.22,0)" style="font-family: 'Open Sans', verdana, arial, sans-serif; font-size: 18px; fill: rgb(42, 63, 95); fill-opacity: 1; white-space: pre;">01/03</text></g><g class="xtick"><text text-anchor="middle" x="0" y="469" transform="translate(313.27,0)" style="font-family: 'Open Sans', verdana, arial, sans-serif; font-size: 18px; fill: rgb(42, 63, 95); fill-opacity: 1; white-space: pre;">01/05</text></g><g class="xtick"><text text-anchor="middle" x="0" y="469" transform="translate(388.31,0)" style="font-family: 'Open Sans', verdana, arial, sans-serif; font-size: 18px; fill: rgb(42, 63, 95); fill-opacity: 1; white-space: pre;">01/07</text></g><g class="xtick"><text text-anchor="middle" x="0" y="469" transform="translate(464.59,0)" style="font-family: 'Open Sans', verdana, arial, sans-serif; font-size: 18px; fill: rgb(42, 63, 95); fill-opacity: 1; white-space: pre;">01/09</text></g><g class="xtick"><text text-anchor="middle" x="0" y="469" transform="translate(539.63,0)" style="font-family: 'Open Sans', verdana, arial, sans-serif; font-size: 18px; fill: rgb(42, 63, 95); fill-opacity: 1; white-space: pre;">01/11</text></g><g class="xtick"><text text-anchor="middle" x="0" y="469" transform="translate(614.67,0)" style="font-family: 'Open Sans', verdana, arial, sans-serif; font-size: 18px; fill: rgb(42, 63, 95); fill-opacity: 1; white-space: pre;">01/01</text></g><g class="xtick"><text text-anchor="middle" x="0" y="469" transform="translate(687.26,0)" style="font-family: 'Open Sans', verdana, arial, sans-serif; font-size: 18px; fill: rgb(42, 63, 95); fill-opacity: 1; white-space: pre;">01/03</text></g></g><g class="yaxislayer-above"/><g class="overaxes-above"/></g></g><g class="polarlayer"/><g class="ternarylayer"/><g class="geolayer"/><g class="funnelarealayer"/><g class="pielayer"/><g class="treemaplayer"/><g class="sunburstlayer"/><g class="glimages"/><defs id="topdefs-5bf921"><g class="clips"/></defs><g class="layer-above"><g class="imagelayer"/><g class="shapelayer"><path data-index="0" fill-rule="evenodd" d="M-641.39,445.22L257.90999999999997,445.22" clip-path="url('#clip5bf921xy')" style="opacity: 1; stroke: rgb(255, 0, 0); stroke-opacity: 1; fill: rgb(0, 0, 0); fill-opacity: 0; stroke-dasharray: 3px, 3px; stroke-width: 1.5px;"/></g></g><g class="infolayer"><g class="g-gtitle"><text class="gtitle" x="375" y="25" text-anchor="middle" dy="0.7em" style="font-family: 'Open Sans', verdana, arial, sans-serif; font-size: 50px; fill: rgb(42, 63, 95); opacity: 1; font-weight: normal; white-space: pre;"><tspan style="font-weight:bold">Ariège (09)</tspan></text></g><g class="g-xtitle"/><g class="annotation" data-index="0" style="opacity: 1;"><g class="annotation-text-g" transform="rotate(0,699.39,268.77)"><g class="cursor-pointer" transform="translate(627, 233)"><rect class="bg" x="0.5" y="0.5" width="143" height="71" style="stroke-width: 1px; stroke: rgb(0, 0, 0); stroke-opacity: 0; fill: rgb(255, 255, 255); fill-opacity: 0.6;"/><text class="annotation-text" text-anchor="middle" x="72.078125" y="55.5" style="font-family: 'Open Sans', verdana, arial, sans-serif; font-size: 50px; fill: rgb(8, 115, 191); fill-opacity: 1; white-space: pre;"> <tspan style="font-weight:bold">1268 </tspan></text></g></g><g class="annotation-arrow-g" style="opacity: 1;"><path d="M727.79,304.27L739.39,318.77" style="stroke-width: 1px; stroke: rgb(8, 115, 191); stroke-opacity: 1; stroke-dasharray: 0px, 0px, 18.5691px, 18.5691px;"/></g></g></g></svg>