<svg class="main-svg" xmlns="http://www.w3.org/2000/svg" xmlns:xlink="http://www.w3.org/1999/xlink" width="1125" height="750" style="" viewBox="0 0 750 500"><rect x="0" y="0" width="750" height="500" style="fill: rgb(0, 0, 0); fill-opacity: 0;"/><defs id="defs-4f13c7"><g class="clips"><clipPath id="clip4f13c7xyplot" class="plotclip"><rect width="700" height="380"/></clipPath><clipPath class="axesclip" id="clip4f13c7x"><rect x="50" y="0" width="700" height="500"/></clipPath><clipPath class="axesclip" id="clip4f13c7y"><rect x="0" y="70" width="750" height="380"/></clipPath><clipPath class="axesclip" id="clip4f13c7xy"><rect x="50" y="70" width="700" height="380"/></clipPath></g><g class="gradients"/></defs><g class="bglayer"><rect class="bg" x="50" y="70" width="700" height="380" style="fill: rgb(0, 0, 0); fill-opacity: 0; stroke-width: 0;"/></g><g class="layer-below"><g class="imagelayer"/><g class="shapelayer"/></g><g class="cartesianlayer"><g class="subplot xy"><g class="layer-subplot"><g class="shapelayer"/><g class="imagelayer"/></g><g class="gridlayer"><g class="x"><path class="xgrid crisp" transform="translate(90.24000000000001,0)" d="M0,70v380" style="stroke: rgb(255, 255, 255); stroke-opacity: 1; stroke-width: 1px;"/><path class="xgrid crisp" transform="translate(164.63,0)" d="M0,70v380" style="stroke: rgb(255, 255, 255); stroke-opacity: 1; stroke-width: 1px;"/><path class="xgrid crisp" transform="translate(236.59,0)" d="M0,70v380" style="stroke: rgb(255, 255, 255); stroke-opacity: 1; stroke-width: 1px;"/><path class="xgrid crisp" transform="translate(310.98,0)" d="M0,70v380" style="stroke: rgb(255, 255, 255); stroke-opacity: 1; stroke-width: 1px;"/><path class="xgrid crisp" transform="translate(385.37,0)" d="M0,70v380" style="stroke: rgb(255, 255, 255); stroke-opacity: 1; stroke-width: 1px;"/><path class="xgrid crisp" transform="translate(460.98,0)" d="M0,70v380" style="stroke: rgb(255, 255, 255); stroke-opacity: 1; stroke-width: 1px;"/><path class="xgrid crisp" transform="translate(535.37,0)" d="M0,70v380" style="stroke: rgb(255, 255, 255); stroke-opacity: 1; stroke-width: 1px;"/><path class="xgrid crisp" transform="translate(609.76,0)" d="M0,70v380" style="stroke: rgb(255, 255, 255); stroke-opacity: 1; stroke-width: 1px;"/><path class="xgrid crisp" transform="translate(681.71,0)" d="M0,70v380" style="stroke: rgb(255, 255, 255); stroke-opacity: 1; stroke-width: 1px;"/></g><g class="y"/></g><g class="zerolinelayer"/><path class="xlines-below"/><path class="ylines-below"/><g class="overlines-below"/><g class="xaxislayer-below"/><g class="yaxislayer-below"/><g class="overaxes-below"/><g class="plot" transform="translate(50, 70)" clip-path="url('#clip4f13c7xyplot')"><g class="scatterlayer mlayer"><g class="trace scatter traceaba813" style="stroke-miterlimit: 2;"><g class="fills"><g><path class="js-fill" d="M679.27,380L-165.85,380L-165.85,379.86L-57.32,378.04L-56.1,377.75L-41.46,368.64L-40.24,368.59L-35.37,364.74L-34.15,364.13L-29.27,364.72L-28.05,365.63L-18.29,367.14L-17.07,367.12L-13.41,367.65L-12.2,368.68L-6.1,370.76L-4.88,370.84L-1.22,371.15L0,371.12L10.98,370.69L12.2,370.22L21.95,368.45L23.17,367.04L26.83,363.87L28.05,363.65L30.49,360.1L31.71,359.57L34.15,358.15L35.37,357.96L36.59,358.18L37.8,357.48L40.24,357.13L41.46,357.48L43.9,358.14L45.12,358.14L47.56,361.27L48.78,364.44L50,364.62L51.22,365.83L54.88,367.61L56.1,368.93L57.32,367.88L58.54,369.85L60.98,371.4L62.2,371.55L64.63,373.36L65.85,373.82L69.51,374.4L70.73,374.4L97.56,372.36L98.78,372.41L101.22,372.79L102.44,374.05L110.98,372.23L112.2,371.73L113.41,371.58L114.63,370.51L118.29,368.78L119.51,366.63L123.17,366.74L124.39,366.74L129.27,365.9L130.49,365.94L136.59,364.98L137.8,365.11L150,365.39L151.22,365.81L156.1,367.98L157.32,369.24L160.98,370.34L162.2,370.77L169.51,370.76L170.73,370.07L173.17,370.13L174.39,369.28L176.83,368.24L178.05,368.35L189.02,371L190.24,370.95L195.12,368.86L196.34,368.07L206.1,364.55L207.32,364.55L213.41,360.72L214.63,360.08L215.85,359.81L217.07,358.76L223.17,357.89L224.39,358.14L225.61,362.61L226.83,361.41L231.71,362.8L232.93,362.61L234.15,358.92L235.37,360.59L243.9,364.18L245.12,364.24L251.22,365.31L252.44,365.97L260.98,369.95L262.2,370.14L265.85,370.8L267.07,370.85L269.51,371.82L270.73,372.57L273.17,373.89L274.39,373.44L279.27,373.28L280.49,372.26L284.15,372.34L285.37,373.73L290.24,372.94L291.46,373.18L292.68,373.17L293.9,372.16L297.56,373.88L298.78,374.33L304.88,375.65L306.1,376.03L310.98,376.72L312.2,376.82L324.39,378.34L325.61,378.3L332.93,377.67L334.15,377.56L343.9,376.1L345.12,375.1L346.34,373.85L347.56,374.08L351.22,367.94L352.44,367.54L357.32,353.35L358.54,351.3L363.41,348L364.63,348.23L367.07,349.58L368.29,350.52L369.51,350.7L370.73,352.14L374.39,354.42L375.61,354.15L379.27,354.21L380.49,355.03L382.93,355.81L384.15,356.62L387.8,358.52L389.02,359.31L393.9,362.44L395.12,362.51L403.66,367.54L404.88,368.24L409.76,369.88L410.98,370.17L412.2,370.26L413.41,371.12L419.51,373.65L420.73,373.79L423.17,374.75L424.39,374.72L442.68,376.47L443.9,376.82L450,377.51L451.22,377.44L460.98,376.93L462.2,376.95L468.29,376.8L469.51,376.57L480.49,376.04L481.71,376.64L486.59,374.62L487.8,374.12L489.02,374.16L490.24,372.49L493.9,372.33L495.12,370.76L497.56,370.13L498.78,368.72L504.88,360.88L506.1,360.85L510.98,352.39L512.2,350.37L514.63,348.79L515.85,346.14L521.95,335.88L523.17,335.57L525.61,332.24L526.83,332.2L528.05,331.53L529.27,332.2L532.93,333.15L534.15,333.49L535.37,333.77L536.59,335.19L540.24,334.99L541.46,333.61L542.68,330.99L543.9,326.14L546.34,316.17L547.56,318.77L548.78,317.05L550,299.64L554.88,238.83L556.1,237.59L557.32,234.38L558.54,210.94L560.98,184.36L562.2,178.13L563.41,169.14L564.63,150.11L565.85,147.75L567.07,147.1L568.29,147.84L569.51,142.93L571.95,133.85L573.17,126.63L574.39,123.14L575.61,109.85L579.27,66.9L580.49,50.12L581.71,39.4L582.93,37.19L585.37,5.82L586.59,0.4L587.8,0L589.02,2.11L591.46,6.31L592.68,16.06L598.78,65.82L600,69.93L606.1,173.23L607.32,185.66L608.54,190.24L609.76,216.86L613.41,256.07L614.63,264.26L615.85,268.78L617.07,270.38L619.51,284.23L620.73,289.87L624.39,303.78L625.61,304.38L628.05,312.29L629.27,315.19L632.93,320.35L634.15,320.56L635.37,321.04L636.59,320.64L639.02,317.61L640.24,315.18L642.68,311.81L643.9,305.96L648.78,292.15L650,291.05L651.22,291.1L652.44,286.91L656.1,279.4L657.32,278.05L658.54,277.18L659.76,277.41L660.98,276.44L662.2,276.73L665.85,276.35L667.07,276.77L668.29,276.8L669.51,278.41L670.73,278.97L671.95,280.49L673.17,281.42L674.39,280.5L676.83,279.92L678.05,279.4L679.27,279.96" style="fill: rgb(8, 115, 191); fill-opacity: 0.2; stroke-width: 0;"/></g></g><g class="errorbars"/><g class="lines"><path class="js-line" d="M-165.85,379.86L-57.32,378.04L-56.1,377.75L-41.46,368.64L-40.24,368.59L-35.37,364.74L-34.15,364.13L-29.27,364.72L-28.05,365.63L-18.29,367.14L-17.07,367.12L-13.41,367.65L-12.2,368.68L-6.1,370.76L-4.88,370.84L-1.22,371.15L0,371.12L10.98,370.69L12.2,370.22L21.95,368.45L23.17,367.04L26.83,363.87L28.05,363.65L30.49,360.1L31.71,359.57L34.15,358.15L35.37,357.96L36.59,358.18L37.8,357.48L40.24,357.13L41.46,357.48L43.9,358.14L45.12,358.14L47.56,361.27L48.78,364.44L50,364.62L51.22,365.83L54.88,367.61L56.1,368.93L57.32,367.88L58.54,369.85L60.98,371.4L62.2,371.55L64.63,373.36L65.85,373.82L69.51,374.4L70.73,374.4L97.56,372.36L98.78,372.41L101.22,372.79L102.44,374.05L110.98,372.23L112.2,371.73L113.41,371.58L114.63,370.51L118.29,368.78L119.51,366.63L123.17,366.74L124.39,366.74L129.27,365.9L130.49,365.94L136.59,364.98L137.8,365.11L150,365.39L151.22,365.81L156.1,367.98L157.32,369.24L160.98,370.34L162.2,370.77L169.51,370.76L170.73,370.07L173.17,370.13L174.39,369.28L176.83,368.24L178.05,368.35L189.02,371L190.24,370.95L195.12,368.86L196.34,368.07L206.1,364.55L207.32,364.55L213.41,360.72L214.63,360.08L215.85,359.81L217.07,358.76L223.17,357.89L224.39,358.14L225.61,362.61L226.83,361.41L231.71,362.8L232.93,362.61L234.15,358.92L235.37,360.59L243.9,364.18L245.12,364.24L251.22,365.31L252.44,365.97L260.98,369.95L262.2,370.14L265.85,370.8L267.07,370.85L269.51,371.82L270.73,372.57L273.17,373.89L274.39,373.44L279.27,373.28L280.49,372.26L284.15,372.34L285.37,373.73L290.24,372.94L291.46,373.18L292.68,373.17L293.9,372.16L297.56,373.88L298.78,374.33L304.88,375.65L306.1,376.03L310.98,376.72L312.2,376.82L324.39,378.34L325.61,378.3L332.93,377.67L334.15,377.56L343.9,376.1L345.12,375.1L346.34,373.85L347.56,374.08L351.22,367.94L352.44,367.54L357.32,353.35L358.54,351.3L363.41,348L364.63,348.23L367.07,349.58L368.29,350.52L369.51,350.7L370.73,352.14L374.39,354.42L375.61,354.15L379.27,354.21L380.49,355.03L382.93,355.81L384.15,356.62L387.8,358.52L389.02,359.31L393.9,362.44L395.12,362.51L403.66,367.54L404.88,368.24L409.76,369.88L410.98,370.17L412.2,370.26L413.41,371.12L419.51,373.65L420.73,373.79L423.17,374.75L424.39,374.72L442.68,376.47L443.9,376.82L450,377.51L451.22,377.44L460.98,376.93L462.2,376.95L468.29,376.8L469.51,376.57L480.49,376.04L481.71,376.64L486.59,374.62L487.8,374.12L489.02,374.16L490.24,372.49L493.9,372.33L495.12,370.76L497.56,370.13L498.78,368.72L504.88,360.88L506.1,360.85L510.98,352.39L512.2,350.37L514.63,348.79L515.85,346.14L521.95,335.88L523.17,335.57L525.61,332.24L526.83,332.2L528.05,331.53L529.27,332.2L532.93,333.15L534.15,333.49L535.37,333.77L536.59,335.19L540.24,334.99L541.46,333.61L542.68,330.99L543.9,326.14L546.34,316.17L547.56,318.77L548.78,317.05L550,299.64L554.88,238.83L556.1,237.59L557.32,234.38L558.54,210.94L560.98,184.36L562.2,178.13L563.41,169.14L564.63,150.11L565.85,147.75L567.07,147.1L568.29,147.84L569.51,142.93L571.95,133.85L573.17,126.63L574.39,123.14L575.61,109.85L579.27,66.9L580.49,50.12L581.71,39.4L582.93,37.19L585.37,5.82L586.59,0.4L587.8,0L589.02,2.11L591.46,6.31L592.68,16.06L598.78,65.82L600,69.93L606.1,173.23L607.32,185.66L608.54,190.24L609.76,216.86L613.41,256.07L614.63,264.26L615.85,268.78L617.07,270.38L619.51,284.23L620.73,289.87L624.39,303.78L625.61,304.38L628.05,312.29L629.27,315.19L632.93,320.35L634.15,320.56L635.37,321.04L636.59,320.64L639.02,317.61L640.24,315.18L642.68,311.81L643.9,305.96L648.78,292.15L650,291.05L651.22,291.1L652.44,286.91L656.1,279.4L657.32,278.05L658.54,277.18L659.76,277.41L660.98,276.44L662.2,276.73L665.85,276.35L667.07,276.77L668.29,276.8L669.51,278.41L670.73,278.97L671.95,280.49L673.17,281.42L674.39,280.5L676.83,279.92L678.05,279.4L679.27,279.96" style="vector-effect: non-scaling-stroke; fill: none; stroke: rgb(8, 115, 191); stroke-opacity: 1; stroke-width: 0.5px; opacity: 1;"/></g><g class="points"/><g class="text"/></g><g class="trace scatter trace1a2720" style="stroke-miterlimit: 2;"><g class="fills"><g><path class="js-fill" d="M691.46,380L679.27,380L679.27,279.96L680.49,280.18L681.71,281.76L684.15,287.46L685.37,288.3L686.59,310.31L687.8,308.06L691.46,322.49" style="fill: rgb(8, 115, 191); fill-opacity: 0.4; stroke-width: 0;"/></g></g><g class="errorbars"/><g class="lines"><path class="js-line" d="M679.27,279.96L680.49,280.18L681.71,281.76L684.15,287.46L685.37,288.3L686.59,310.31L687.8,308.06L691.46,322.49" style="vector-effect: non-scaling-stroke; fill: none; stroke: rgb(8, 115, 191); stroke-opacity: 1; stroke-width: 2px; opacity: 1;"/></g><g class="points"/><g class="text"/></g><g class="trace scatter tracedf4254" style="stroke-miterlimit: 2; opacity: 1;"><g class="fills"/><g class="errorbars"/><g class="lines"/><g class="points"><path class="point" transform="translate(691.46,322.49)" d="M15,0A15,15 0 1,1 0,-15A15,15 0 0,1 15,0Z" style="opacity: 1; stroke-width: 0px; fill: rgb(8, 115, 191); fill-opacity: 1;"/></g><g class="text"/></g></g></g><g class="overplot"/><path class="xlines-above crisp" style="fill: none; stroke-width: 1px; stroke: rgb(0, 0, 0); stroke-opacity: 0;" d=""/><path class="ylines-above crisp" style="fill: none;" d="M0,0"/><g class="overlines-above"/><g class="xaxislayer-above"><path class="xtick ticks crisp" d="M0,450v-5" transform="translate(90.24000000000001,0)" style="stroke: rgb(68, 68, 68); stroke-opacity: 1; stroke-width: 1px;"/><path class="xtick ticks crisp" d="M0,450v-5" transform="translate(164.63,0)" style="stroke: rgb(68, 68, 68); stroke-opacity: 1; stroke-width: 1px;"/><path class="xtick ticks crisp" d="M0,450v-5" transform="translate(236.59,0)" style="stroke: rgb(68, 68, 68); stroke-opacity: 1; stroke-width: 1px;"/><path class="xtick ticks crisp" d="M0,450v-5" transform="translate(310.98,0)" style="stroke: rgb(68, 68, 68); stroke-opacity: 1; stroke-width: 1px;"/><path class="xtick ticks crisp" d="M0,450v-5" transform="translate(385.37,0)" style="stroke: rgb(68, 68, 68); stroke-opacity: 1; stroke-width: 1px;"/><path class="xtick ticks crisp" d="M0,450v-5" transform="translate(460.98,0)" style="stroke: rgb(68, 68, 68); stroke-opacity: 1; stroke-width: 1px;"/><path class="xtick ticks crisp" d="M0,450v-5" transform="translate(535.37,0)" style="stroke: rgb(68, 68, 68); stroke-opacity: 1; stroke-width: 1px;"/><path class="xtick ticks crisp" d="M0,450v-5" transform="translate(609.76,0)" style="stroke: rgb(68, 68, 68); stroke-opacity: 1; stroke-width: 1px;"/><path class="xtick ticks crisp" d="M0,450v-5" transform="translate(681.71,0)" style="stroke: rgb(68, 68, 68); stroke-opacity: 1; stroke-width: 1px;"/><g class="xtick"><text text-anchor="middle" x="0" y="469" transform="translate(90.24000000000001,0)" style="font-family: 'Open Sans', verdana, arial, sans-serif; font-size: 18px; fill: rgb(42, 63, 95); fill-opacity: 1; white-space: pre;">01/11</text></g><g class="xtick"><text text-anchor="middle" x="0" y="469" transform="translate(164.63,0)" style="font-family: 'Open Sans', verdana, arial, sans-serif; font-size: 18px; fill: rgb(42, 63, 95); fill-opacity: 1; white-space: pre;">01/01</text></g><g class="xtick"><text text-anchor="middle" x="0" y="469" transform="translate(236.59,0)" style="font-family: 'Open Sans', verdana, arial, sans-serif; font-size: 18px; fill: rgb(42, 63, 95); fill-opacity: 1; white-space: pre;">01/03</text></g><g class="xtick"><text text-anchor="middle" x="0" y="469" transform="translate(310.98,0)" style="font-family: 'Open Sans', verdana, arial, sans-serif; font-size: 18px; fill: rgb(42, 63, 95); fill-opacity: 1; white-space: pre;">01/05</text></g><g class="xtick"><text text-anchor="middle" x="0" y="469" transform="translate(385.37,0)" style="font-family: 'Open Sans', verdana, arial, sans-serif; font-size: 18px; fill: rgb(42, 63, 95); fill-opacity: 1; white-space: pre;">01/07</text></g><g class="xtick"><text text-anchor="middle" x="0" y="469" transform="translate(460.98,0)" style="font-family: 'Open Sans', verdana, arial, sans-serif; font-size: 18px; fill: rgb(42, 63, 95); fill-opacity: 1; white-space: pre;">01/09</text></g><g class="xtick"><text text-anchor="middle" x="0" y="469" transform="translate(535.37,0)" style="font-family: 'Open Sans', verdana, arial, sans-serif; font-size: 18px; fill: rgb(42, 63, 95); fill-opacity: 1; white-space: pre;">01/11</text></g><g class="xtick"><text text-anchor="middle" x="0" y="469" transform="translate(609.76,0)" style="font-family: 'Open Sans', verdana, arial, sans-serif; font-size: 18px; fill: rgb(42, 63, 95); fill-opacity: 1; white-space: pre;">01/01</text></g><g class="xtick"><text text-anchor="middle" x="0" y="469" transform="translate(681.71,0)" style="font-family: 'Open Sans', verdana, arial, sans-serif; font-size: 18px; fill: rgb(42, 63, 95); fill-opacity: 1; white-space: pre;">01/03</text></g></g><g class="yaxislayer-above"/><g class="overaxes-above"/></g></g><g class="polarlayer"/><g class="ternarylayer"/><g class="geolayer"/><g class="funnelarealayer"/><g class="pielayer"/><g class="treemaplayer"/><g class="sunburstlayer"/><g class="glimages"/><defs id="topdefs-4f13c7"><g class="clips"/></defs><g class="layer-above"><g class="imagelayer"/><g class="shapelayer"><path data-index="0" fill-rule="evenodd" d="M-635.37,445.47L256.1,445.47" clip-path="url('#clip4f13c7xy')" style="opacity: 1; stroke: rgb(255, 0, 0); stroke-opacity: 1; fill: rgb(0, 0, 0); fill-opacity: 0; stroke-dasharray: 3px, 3px; stroke-width: 1.5px;"/></g></g><g class="infolayer"><g class="g-gtitle"><text class="gtitle" x="375" y="25" text-anchor="middle" dy="0.7em" style="font-family: 'Open Sans', verdana, arial, sans-serif; font-size: 50px; fill: rgb(42, 63, 95); opacity: 1; font-weight: normal; white-space: pre;"><tspan style="font-weight:bold">Gironde (33)</tspan></text></g><g class="g-xtitle"/><g class="annotation" data-index="0" style="opacity: 1;"><g class="annotation-text-g" transform="rotate(0,699.46,332.49)"><g class="cursor-pointer" transform="translate(641, 296)"><rect class="bg" x="0.5" y="0.5" width="115" height="71" style="stroke-width: 1px; stroke: rgb(0, 0, 0); stroke-opacity: 0; fill: rgb(255, 255, 255); fill-opacity: 0.6;"/><text class="annotation-text" text-anchor="middle" x="57.8125" y="55.5" style="font-family: 'Open Sans', verdana, arial, sans-serif; font-size: 50px; fill: rgb(8, 115, 191); fill-opacity: 1; white-space: pre;"> <tspan style="font-weight:bold">635 </tspan></text></g></g><g class="annotation-arrow-g" style="opacity: 1;"><path d="M727.86,367.99L739.46,382.49" style="stroke-width: 1px; stroke: rgb(8, 115, 191); stroke-opacity: 1; stroke-dasharray: 0px, 0px, 18.5691px, 18.5691px;"/></g></g></g></svg>