<svg class="main-svg" xmlns="http://www.w3.org/2000/svg" xmlns:xlink="http://www.w3.org/1999/xlink" width="1125" height="750" style="" viewBox="0 0 750 500"><rect x="0" y="0" width="750" height="500" style="fill: rgb(0, 0, 0); fill-opacity: 0;"/><defs id="defs-387fda"><g class="clips"><clipPath id="clip387fdaxyplot" class="plotclip"><rect width="700" height="380"/></clipPath><clipPath class="axesclip" id="clip387fdax"><rect x="50" y="0" width="700" height="500"/></clipPath><clipPath class="axesclip" id="clip387fday"><rect x="0" y="70" width="750" height="380"/></clipPath><clipPath class="axesclip" id="clip387fdaxy"><rect x="50" y="70" width="700" height="380"/></clipPath></g><g class="gradients"/></defs><g class="bglayer"><rect class="bg" x="50" y="70" width="700" height="380" style="fill: rgb(0, 0, 0); fill-opacity: 0; stroke-width: 0;"/></g><g class="layer-below"><g class="imagelayer"/><g class="shapelayer"/></g><g class="cartesianlayer"><g class="subplot xy"><g class="layer-subplot"><g class="shapelayer"/><g class="imagelayer"/></g><g class="gridlayer"><g class="x"><path class="xgrid crisp" transform="translate(110.31,0)" d="M0,70v380" style="stroke: rgb(255, 255, 255); stroke-opacity: 1; stroke-width: 1px;"/><path class="xgrid crisp" transform="translate(221.8,0)" d="M0,70v380" style="stroke: rgb(255, 255, 255); stroke-opacity: 1; stroke-width: 1px;"/><path class="xgrid crisp" transform="translate(329.63,0)" d="M0,70v380" style="stroke: rgb(255, 255, 255); stroke-opacity: 1; stroke-width: 1px;"/><path class="xgrid crisp" transform="translate(441.12,0)" d="M0,70v380" style="stroke: rgb(255, 255, 255); stroke-opacity: 1; stroke-width: 1px;"/><path class="xgrid crisp" transform="translate(552.61,0)" d="M0,70v380" style="stroke: rgb(255, 255, 255); stroke-opacity: 1; stroke-width: 1px;"/><path class="xgrid crisp" transform="translate(665.93,0)" d="M0,70v380" style="stroke: rgb(255, 255, 255); stroke-opacity: 1; stroke-width: 1px;"/></g><g class="y"/></g><g class="zerolinelayer"/><path class="xlines-below"/><path class="ylines-below"/><g class="overlines-below"/><g class="xaxislayer-below"/><g class="yaxislayer-below"/><g class="overaxes-below"/><g class="plot" transform="translate(50, 70)" clip-path="url('#clip387fdaxyplot')"><g class="scatterlayer mlayer"><g class="trace scatter tracea33feb" style="stroke-miterlimit: 2;"><g class="fills"><g><path class="js-fill" d="M668.93,380L-248.56,380L-248.56,362.89L-244.91,363.22L-243.08,364.78L-235.77,370.78L-233.94,372.11L-228.46,368.67L-226.63,368.78L-215.67,376.78L-213.84,377.22L-202.87,376.33L-201.04,376.22L-179.11,376.56L-177.28,377.22L-162.66,376.44L-160.84,377.33L-148.04,378.22L-146.21,378.78L-135.25,377.67L-133.42,377L-107.83,370.44L-106.01,370.56L-93.21,357.56L-91.38,355L-89.56,351.67L-87.73,352.67L-85.9,351.33L-84.07,343.78L-82.25,339.78L-80.42,340.33L-76.76,341.89L-74.93,340.22L-73.11,340.89L-71.28,344.67L-69.45,346.67L-67.62,345.44L-63.97,338.67L-62.14,337L-60.31,336.22L-58.49,333.89L-56.66,333.11L-54.83,326.11L-53,328.56L-51.17,325.11L-49.35,324L-47.52,324.67L-43.86,317.33L-42.04,321.56L-40.21,318.11L-38.38,321.33L-34.73,322.11L-32.9,327.78L-29.24,324L-27.42,324.11L-23.76,322.11L-21.93,321.89L-20.1,321L-18.28,318.67L-16.45,319L-14.62,317.67L-10.97,318.22L-9.14,317.44L-7.31,317.11L-5.48,318.78L-3.66,318.22L-1.83,316.56L0,316.22L1.83,312.56L3.66,311.78L5.48,306.89L9.14,299.89L10.97,293.44L12.79,281.33L14.62,278.11L16.45,269.33L18.28,268.56L21.93,244.44L23.76,241.89L25.59,234.22L27.42,231.89L29.24,227.22L31.07,207.22L32.9,196L34.73,173.11L40.21,94.33L42.04,84.56L45.69,27.56L47.52,15.11L49.35,10.33L51.17,2.11L53,0L54.83,13.78L56.66,2.78L58.49,4.56L60.31,1.44L62.14,4.44L65.8,36L67.62,34.89L71.28,87.22L73.11,137.44L76.76,164.33L78.59,165.56L80.42,168.33L82.25,178.11L84.07,200.22L85.9,188.56L89.56,223.56L91.38,232.78L93.21,237.89L95.04,250.67L96.87,253.33L98.69,263.11L102.35,272.56L104.18,274.22L106.01,274.78L107.83,278.89L109.66,274.78L111.49,278.78L113.32,278L115.14,279.89L116.97,279.33L118.8,280.78L120.63,277.67L122.45,283.56L124.28,281.11L126.11,282L127.94,277.78L129.77,278.11L135.25,273.89L137.08,274.56L138.9,267L140.73,265.67L142.56,263.89L144.39,263.78L146.21,261.56L148.04,264.33L149.87,265L151.7,275.56L153.52,294.33L155.35,295.78L159.01,295.56L160.84,295.89L164.49,284.67L166.32,283.67L168.15,282.78L169.97,284.89L171.8,277.56L173.63,276L177.28,274.33L179.11,256.22L180.94,253L182.77,253.11L184.6,256.67L186.42,251.89L188.25,251.89L190.08,253.44L191.91,246.44L193.73,246.44L195.56,244.78L197.39,233.33L202.87,208L204.7,208.44L206.53,208.11L208.36,208.78L210.18,206.78L212.01,212.56L213.84,212L215.67,214.44L217.49,218.33L219.32,219.78L221.15,217L222.98,223L224.8,225.56L226.63,235.56L228.46,240.56L230.29,241.67L232.11,242.11L233.94,245.67L235.77,258.22L237.6,259.78L239.43,263.67L241.25,271L243.08,279.33L244.91,282.89L248.56,284.33L250.39,294.67L252.22,294.33L254.05,293.11L255.87,288L257.7,287.67L261.36,287.33L263.19,285.11L265.01,284.89L266.84,280L268.67,282.22L270.5,280.67L272.32,279.22L274.15,281.67L279.63,288.67L281.46,287.78L283.29,291L285.12,292.67L286.95,292.33L288.77,287.56L292.43,283.67L294.26,277.67L296.08,267.44L297.91,267.22L299.74,259.11L301.57,255.56L305.22,242.78L307.05,239.33L308.88,240.44L310.7,239L314.36,222.11L316.19,213.11L321.67,187.89L323.5,186.56L327.15,172.33L328.98,170.67L330.81,160L332.64,161.89L334.46,159.44L336.29,158.33L338.12,193.78L339.95,180.89L341.78,178.33L343.6,188L345.43,182.67L347.26,181L349.09,181.33L350.91,146.67L352.74,159.44L354.57,162.56L356.4,159.89L358.22,166.33L360.05,174.56L361.88,175.22L363.71,173L365.54,175.67L367.36,175.89L369.19,178.33L371.02,183.89L372.85,183.44L374.67,183.67L376.5,191.56L378.33,197.22L380.16,207.33L381.98,214.67L383.81,211.56L385.64,224.78L387.47,226.22L389.3,227.89L391.12,226.67L392.95,227.56L394.78,231.44L396.61,235.44L398.43,236.56L400.26,235.89L402.09,237.56L403.92,241.33L405.74,238.44L407.57,256.11L409.4,260.11L411.23,251.89L413.05,253.11L414.88,259.89L416.71,262L418.54,267.22L420.37,255.78L424.02,261.56L425.85,261.11L427.68,284.33L429.5,279.22L431.33,279.78L433.16,278.56L434.99,280L436.81,277.22L438.64,278.33L440.47,263L442.3,278.22L444.13,284.22L449.61,305.33L451.44,306.56L460.57,335.56L462.4,338.78L464.23,339.33L466.06,347.56L469.71,355.78L471.54,359.11L473.37,362.67L475.2,363.44L477.02,363.44L478.85,365.11L480.68,365.78L482.51,363.89L484.33,364.67L486.16,364.22L489.82,364.33L491.64,365.33L493.47,364.44L495.3,365L497.13,365.22L498.96,364.11L504.44,364.44L506.27,363.44L509.92,364L511.75,364L515.4,363.33L517.23,361.33L519.06,358.67L520.89,360.56L524.54,353.11L526.37,351.33L528.2,351.11L530.03,345L531.85,343.78L533.68,335.44L535.51,335.33L537.34,330.33L539.16,325.67L540.99,325.11L544.65,316.56L546.48,316.22L548.3,313L550.13,314L551.96,315L553.79,314.11L555.61,316.67L557.44,316.56L559.27,315L561.1,315.67L564.75,310.56L566.58,309.78L568.41,302L570.23,297.67L573.89,287.78L575.72,287.89L579.37,285.56L581.2,286.11L583.03,284.11L584.86,283.78L586.68,284.78L588.51,283.56L590.34,284.22L592.17,283.44L593.99,281.89L595.82,283.44L597.65,281.56L599.48,281.56L601.31,279.33L603.13,281.67L604.96,283.89L606.79,289.33L608.62,291.44L610.44,295.67L612.27,297.33L614.1,300.78L617.75,297.78L619.58,297.78L623.24,303.78L625.07,306.11L632.38,321.78L634.2,323L639.69,332.22L641.51,334L643.34,333.78L645.17,336.44L647,341.22L648.83,343.44L650.65,346.78L652.48,347.33L656.14,348.22L657.96,350.89L659.79,348.78L661.62,348L663.45,346L665.27,347.33L667.1,349.56L668.93,349.89" style="fill: rgb(8, 115, 191); fill-opacity: 0.2; stroke-width: 0;"/></g></g><g class="errorbars"/><g class="lines"><path class="js-line" d="M-248.56,362.89L-244.91,363.22L-243.08,364.78L-235.77,370.78L-233.94,372.11L-228.46,368.67L-226.63,368.78L-215.67,376.78L-213.84,377.22L-202.87,376.33L-201.04,376.22L-179.11,376.56L-177.28,377.22L-162.66,376.44L-160.84,377.33L-148.04,378.22L-146.21,378.78L-135.25,377.67L-133.42,377L-107.83,370.44L-106.01,370.56L-93.21,357.56L-91.38,355L-89.56,351.67L-87.73,352.67L-85.9,351.33L-84.07,343.78L-82.25,339.78L-80.42,340.33L-76.76,341.89L-74.93,340.22L-73.11,340.89L-71.28,344.67L-69.45,346.67L-67.62,345.44L-63.97,338.67L-62.14,337L-60.31,336.22L-58.49,333.89L-56.66,333.11L-54.83,326.11L-53,328.56L-51.17,325.11L-49.35,324L-47.52,324.67L-43.86,317.33L-42.04,321.56L-40.21,318.11L-38.38,321.33L-34.73,322.11L-32.9,327.78L-29.24,324L-27.42,324.11L-23.76,322.11L-21.93,321.89L-20.1,321L-18.28,318.67L-16.45,319L-14.62,317.67L-10.97,318.22L-9.14,317.44L-7.31,317.11L-5.48,318.78L-3.66,318.22L-1.83,316.56L0,316.22L1.83,312.56L3.66,311.78L5.48,306.89L9.14,299.89L10.97,293.44L12.79,281.33L14.62,278.11L16.45,269.33L18.28,268.56L21.93,244.44L23.76,241.89L25.59,234.22L27.42,231.89L29.24,227.22L31.07,207.22L32.9,196L34.73,173.11L40.21,94.33L42.04,84.56L45.69,27.56L47.52,15.11L49.35,10.33L51.17,2.11L53,0L54.83,13.78L56.66,2.78L58.49,4.56L60.31,1.44L62.14,4.44L65.8,36L67.62,34.89L71.28,87.22L73.11,137.44L76.76,164.33L78.59,165.56L80.42,168.33L82.25,178.11L84.07,200.22L85.9,188.56L89.56,223.56L91.38,232.78L93.21,237.89L95.04,250.67L96.87,253.33L98.69,263.11L102.35,272.56L104.18,274.22L106.01,274.78L107.83,278.89L109.66,274.78L111.49,278.78L113.32,278L115.14,279.89L116.97,279.33L118.8,280.78L120.63,277.67L122.45,283.56L124.28,281.11L126.11,282L127.94,277.78L129.77,278.11L135.25,273.89L137.08,274.56L138.9,267L140.73,265.67L142.56,263.89L144.39,263.78L146.21,261.56L148.04,264.33L149.87,265L151.7,275.56L153.52,294.33L155.35,295.78L159.01,295.56L160.84,295.89L164.49,284.67L166.32,283.67L168.15,282.78L169.97,284.89L171.8,277.56L173.63,276L177.28,274.33L179.11,256.22L180.94,253L182.77,253.11L184.6,256.67L186.42,251.89L188.25,251.89L190.08,253.44L191.91,246.44L193.73,246.44L195.56,244.78L197.39,233.33L202.87,208L204.7,208.44L206.53,208.11L208.36,208.78L210.18,206.78L212.01,212.56L213.84,212L215.67,214.44L217.49,218.33L219.32,219.78L221.15,217L222.98,223L224.8,225.56L226.63,235.56L228.46,240.56L230.29,241.67L232.11,242.11L233.94,245.67L235.77,258.22L237.6,259.78L239.43,263.67L241.25,271L243.08,279.33L244.91,282.89L248.56,284.33L250.39,294.67L252.22,294.33L254.05,293.11L255.87,288L257.7,287.67L261.36,287.33L263.19,285.11L265.01,284.89L266.84,280L268.67,282.22L270.5,280.67L272.32,279.22L274.15,281.67L279.63,288.67L281.46,287.78L283.29,291L285.12,292.67L286.95,292.33L288.77,287.56L292.43,283.67L294.26,277.67L296.08,267.44L297.91,267.22L299.74,259.11L301.57,255.56L305.22,242.78L307.05,239.33L308.88,240.44L310.7,239L314.36,222.11L316.19,213.11L321.67,187.89L323.5,186.56L327.15,172.33L328.98,170.67L330.81,160L332.64,161.89L334.46,159.44L336.29,158.33L338.12,193.78L339.95,180.89L341.78,178.33L343.6,188L345.43,182.67L347.26,181L349.09,181.33L350.91,146.67L352.74,159.44L354.57,162.56L356.4,159.89L358.22,166.33L360.05,174.56L361.88,175.22L363.71,173L365.54,175.67L367.36,175.89L369.19,178.33L371.02,183.89L372.85,183.44L374.67,183.67L376.5,191.56L378.33,197.22L380.16,207.33L381.98,214.67L383.81,211.56L385.64,224.78L387.47,226.22L389.3,227.89L391.12,226.67L392.95,227.56L394.78,231.44L396.61,235.44L398.43,236.56L400.26,235.89L402.09,237.56L403.92,241.33L405.74,238.44L407.57,256.11L409.4,260.11L411.23,251.89L413.05,253.11L414.88,259.89L416.71,262L418.54,267.22L420.37,255.78L424.02,261.56L425.85,261.11L427.68,284.33L429.5,279.22L431.33,279.78L433.16,278.56L434.99,280L436.81,277.22L438.64,278.33L440.47,263L442.3,278.22L444.13,284.22L449.61,305.33L451.44,306.56L460.57,335.56L462.4,338.78L464.23,339.33L466.06,347.56L469.71,355.78L471.54,359.11L473.37,362.67L475.2,363.44L477.02,363.44L478.85,365.11L480.68,365.78L482.51,363.89L484.33,364.67L486.16,364.22L489.82,364.33L491.64,365.33L493.47,364.44L495.3,365L497.13,365.22L498.96,364.11L504.44,364.44L506.27,363.44L509.92,364L511.75,364L515.4,363.33L517.23,361.33L519.06,358.67L520.89,360.56L524.54,353.11L526.37,351.33L528.2,351.11L530.03,345L531.85,343.78L533.68,335.44L535.51,335.33L537.34,330.33L539.16,325.67L540.99,325.11L544.65,316.56L546.48,316.22L548.3,313L550.13,314L551.96,315L553.79,314.11L555.61,316.67L557.44,316.56L559.27,315L561.1,315.67L564.75,310.56L566.58,309.78L568.41,302L570.23,297.67L573.89,287.78L575.72,287.89L579.37,285.56L581.2,286.11L583.03,284.11L584.86,283.78L586.68,284.78L588.51,283.56L590.34,284.22L592.17,283.44L593.99,281.89L595.82,283.44L597.65,281.56L599.48,281.56L601.31,279.33L603.13,281.67L604.96,283.89L606.79,289.33L608.62,291.44L610.44,295.67L612.27,297.33L614.1,300.78L617.75,297.78L619.58,297.78L623.24,303.78L625.07,306.11L632.38,321.78L634.2,323L639.69,332.22L641.51,334L643.34,333.78L645.17,336.44L647,341.22L648.83,343.44L650.65,346.78L652.48,347.33L656.14,348.22L657.96,350.89L659.79,348.78L661.62,348L663.45,346L665.27,347.33L667.1,349.56L668.93,349.89" style="vector-effect: non-scaling-stroke; fill: none; stroke: rgb(8, 115, 191); stroke-opacity: 1; stroke-width: 0.5px; opacity: 1;"/></g><g class="points"/><g class="text"/></g><g class="trace scatter trace14605a" style="stroke-miterlimit: 2;"><g class="fills"><g><path class="js-fill" d="M687.21,380L668.93,380L668.93,349.89L670.76,350.67L672.58,353.56L674.41,356.44L676.24,356.44L678.07,358.11L679.9,356.78L687.21,355.89" style="fill: rgb(8, 115, 191); fill-opacity: 0.4; stroke-width: 0;"/></g></g><g class="errorbars"/><g class="lines"><path class="js-line" d="M668.93,349.89L670.76,350.67L672.58,353.56L674.41,356.44L676.24,356.44L678.07,358.11L679.9,356.78L687.21,355.89" style="vector-effect: non-scaling-stroke; fill: none; stroke: rgb(8, 115, 191); stroke-opacity: 1; stroke-width: 2px; opacity: 1;"/></g><g class="points"/><g class="text"/></g><g class="trace scatter trace18d539" style="stroke-miterlimit: 2; opacity: 1;"><g class="fills"/><g class="errorbars"/><g class="lines"/><g class="points"><path class="point" transform="translate(687.21,355.89)" d="M15,0A15,15 0 1,1 0,-15A15,15 0 0,1 15,0Z" style="opacity: 1; stroke-width: 0px; fill: rgb(8, 115, 191); fill-opacity: 1;"/></g><g class="text"/></g></g></g><g class="overplot"/><path class="xlines-above crisp" style="fill: none; stroke-width: 1px; stroke: rgb(0, 0, 0); stroke-opacity: 0;" d=""/><path class="ylines-above crisp" style="fill: none;" d="M0,0"/><g class="overlines-above"/><g class="xaxislayer-above"><path class="xtick ticks crisp" d="M0,450v-5" transform="translate(110.31,0)" style="stroke: rgb(68, 68, 68); stroke-opacity: 1; stroke-width: 1px;"/><path class="xtick ticks crisp" d="M0,450v-5" transform="translate(221.8,0)" style="stroke: rgb(68, 68, 68); stroke-opacity: 1; stroke-width: 1px;"/><path class="xtick ticks crisp" d="M0,450v-5" transform="translate(329.63,0)" style="stroke: rgb(68, 68, 68); stroke-opacity: 1; stroke-width: 1px;"/><path class="xtick ticks crisp" d="M0,450v-5" transform="translate(441.12,0)" style="stroke: rgb(68, 68, 68); stroke-opacity: 1; stroke-width: 1px;"/><path class="xtick ticks crisp" d="M0,450v-5" transform="translate(552.61,0)" style="stroke: rgb(68, 68, 68); stroke-opacity: 1; stroke-width: 1px;"/><path class="xtick ticks crisp" d="M0,450v-5" transform="translate(665.93,0)" style="stroke: rgb(68, 68, 68); stroke-opacity: 1; stroke-width: 1px;"/><g class="xtick"><text text-anchor="middle" x="0" y="469" transform="translate(110.31,0)" style="font-family: 'Open Sans', verdana, arial, sans-serif; font-size: 18px; fill: rgb(42, 63, 95); fill-opacity: 1; white-space: pre;">01/11</text></g><g class="xtick"><text text-anchor="middle" x="0" y="469" transform="translate(221.8,0)" style="font-family: 'Open Sans', verdana, arial, sans-serif; font-size: 18px; fill: rgb(42, 63, 95); fill-opacity: 1; white-space: pre;">01/01</text></g><g class="xtick"><text text-anchor="middle" x="0" y="469" transform="translate(329.63,0)" style="font-family: 'Open Sans', verdana, arial, sans-serif; font-size: 18px; fill: rgb(42, 63, 95); fill-opacity: 1; white-space: pre;">01/03</text></g><g class="xtick"><text text-anchor="middle" x="0" y="469" transform="translate(441.12,0)" style="font-family: 'Open Sans', verdana, arial, sans-serif; font-size: 18px; fill: rgb(42, 63, 95); fill-opacity: 1; white-space: pre;">01/05</text></g><g class="xtick"><text text-anchor="middle" x="0" y="469" transform="translate(552.61,0)" style="font-family: 'Open Sans', verdana, arial, sans-serif; font-size: 18px; fill: rgb(42, 63, 95); fill-opacity: 1; white-space: pre;">01/07</text></g><g class="xtick"><text text-anchor="middle" x="0" y="469" transform="translate(665.93,0)" style="font-family: 'Open Sans', verdana, arial, sans-serif; font-size: 18px; fill: rgb(42, 63, 95); fill-opacity: 1; white-space: pre;">01/09</text></g></g><g class="yaxislayer-above"/><g class="overaxes-above"/></g></g><g class="polarlayer"/><g class="ternarylayer"/><g class="geolayer"/><g class="funnelarealayer"/><g class="pielayer"/><g class="treemaplayer"/><g class="sunburstlayer"/><g class="glimages"/><defs id="topdefs-387fda"><g class="clips"/></defs><g class="layer-above"><g class="imagelayer"/><g class="shapelayer"><path data-index="0" fill-rule="evenodd" d="M-977.1500000000001,412.06L358.88,412.06" clip-path="url('#clip387fdaxy')" style="opacity: 1; stroke: rgb(255, 0, 0); stroke-opacity: 1; fill: rgb(0, 0, 0); fill-opacity: 0; stroke-dasharray: 3px, 3px; stroke-width: 1.5px;"/></g></g><g class="infolayer"><g class="g-gtitle"><text class="gtitle" x="375" y="25" text-anchor="middle" dy="0.7em" style="font-family: 'Open Sans', verdana, arial, sans-serif; font-size: 50px; fill: rgb(42, 63, 95); opacity: 1; font-weight: normal; white-space: pre;"><tspan style="font-weight:bold">Loiret (45)</tspan></text></g><g class="g-xtitle"/><g class="annotation" data-index="0" style="opacity: 1;"><g class="annotation-text-g" transform="rotate(0,695.21,365.89)"><g class="cursor-pointer" transform="translate(652, 330)"><rect class="bg" x="0.5" y="0.5" width="86" height="71" style="stroke-width: 1px; stroke: rgb(0, 0, 0); stroke-opacity: 0; fill: rgb(255, 255, 255); fill-opacity: 0.6;"/><text class="annotation-text" text-anchor="middle" x="43.53125" y="55.5" style="font-family: 'Open Sans', verdana, arial, sans-serif; font-size: 50px; fill: rgb(8, 115, 191); fill-opacity: 1; white-space: pre;"> <tspan style="font-weight:bold">31 </tspan></text></g></g><g class="annotation-arrow-g" style="opacity: 1;"><path d="M723.61,401.39L735.21,415.89" style="stroke-width: 1px; stroke: rgb(8, 115, 191); stroke-opacity: 1; stroke-dasharray: 0px, 0px, 18.5691px, 18.5691px;"/></g></g></g></svg>