<svg class="main-svg" xmlns="http://www.w3.org/2000/svg" xmlns:xlink="http://www.w3.org/1999/xlink" width="1125" height="750" style="" viewBox="0 0 750 500"><rect x="0" y="0" width="750" height="500" style="fill: rgb(0, 0, 0); fill-opacity: 0;"/><defs id="defs-0f3bf6"><g class="clips"><clipPath id="clip0f3bf6xyplot" class="plotclip"><rect width="700" height="380"/></clipPath><clipPath class="axesclip" id="clip0f3bf6x"><rect x="50" y="0" width="700" height="500"/></clipPath><clipPath class="axesclip" id="clip0f3bf6y"><rect x="0" y="70" width="750" height="380"/></clipPath><clipPath class="axesclip" id="clip0f3bf6xy"><rect x="50" y="70" width="700" height="380"/></clipPath></g><g class="gradients"/></defs><g class="bglayer"><rect class="bg" x="50" y="70" width="700" height="380" style="fill: rgb(0, 0, 0); fill-opacity: 0; stroke-width: 0;"/></g><g class="layer-below"><g class="imagelayer"/><g class="shapelayer"/></g><g class="cartesianlayer"><g class="subplot xy"><g class="layer-subplot"><g class="shapelayer"/><g class="imagelayer"/></g><g class="gridlayer"><g class="x"><path class="xgrid crisp" transform="translate(110.47,0)" d="M0,70v380" style="stroke: rgb(255, 255, 255); stroke-opacity: 1; stroke-width: 1px;"/><path class="xgrid crisp" transform="translate(222.25,0)" d="M0,70v380" style="stroke: rgb(255, 255, 255); stroke-opacity: 1; stroke-width: 1px;"/><path class="xgrid crisp" transform="translate(330.37,0)" d="M0,70v380" style="stroke: rgb(255, 255, 255); stroke-opacity: 1; stroke-width: 1px;"/><path class="xgrid crisp" transform="translate(442.15,0)" d="M0,70v380" style="stroke: rgb(255, 255, 255); stroke-opacity: 1; stroke-width: 1px;"/><path class="xgrid crisp" transform="translate(553.9300000000001,0)" d="M0,70v380" style="stroke: rgb(255, 255, 255); stroke-opacity: 1; stroke-width: 1px;"/><path class="xgrid crisp" transform="translate(667.54,0)" d="M0,70v380" style="stroke: rgb(255, 255, 255); stroke-opacity: 1; stroke-width: 1px;"/></g><g class="y"/></g><g class="zerolinelayer"/><path class="xlines-below"/><path class="ylines-below"/><g class="overlines-below"/><g class="xaxislayer-below"/><g class="yaxislayer-below"/><g class="overaxes-below"/><g class="plot" transform="translate(50, 70)" clip-path="url('#clip0f3bf6xyplot')"><g class="scatterlayer mlayer"><g class="trace scatter trace637e9e" style="stroke-miterlimit: 2;"><g class="fills"><g><path class="js-fill" d="M668.85,380L-249.21,380L-249.21,376.69L-241.88,376.97L-240.05,376.97L-207.07,379.72L-205.24,379.45L-163.09,378.35L-161.26,378.35L-139.27,379.45L-137.43,379.45L-104.45,378.07L-102.62,377.24L-95.29,376.42L-93.46,377.24L-87.96,375.31L-86.13,375.04L-84.29,375.86L-82.46,374.76L-73.3,373.38L-71.47,370.9L-65.97,365.11L-64.14,367.87L-60.47,366.76L-58.64,367.59L-56.81,368.42L-54.97,371.18L-53.14,370.07L-51.31,366.76L-45.81,361.25L-43.98,362.08L-42.15,360.42L-40.31,356.28L-38.48,354.08L-36.65,355.18L-34.82,356.56L-32.98,344.7L-31.15,342.22L-29.32,343.05L-27.49,344.98L-25.65,343.05L-21.99,343.88L-20.16,355.73L-16.49,350.77L-14.66,350.49L-12.83,356.28L-10.99,356.56L-7.33,356.84L-5.5,357.39L-1.83,353.53L0,350.22L3.66,348.84L5.5,338.36L9.16,327.88L10.99,318.23L14.66,304.99L16.49,303.89L18.32,299.48L20.16,291.76L21.99,281.55L23.82,265.28L25.65,249.84L27.49,245.15L29.32,242.67L31.15,225.3L34.82,184.48L36.65,165.46L40.31,111.41L42.15,111.41L47.64,21.79L49.48,14.34L53.14,23.16L54.97,21.79L56.81,0L58.64,14.34L60.47,17.1L62.3,11.31L64.14,14.62L65.97,24.54L67.8,25.92L69.63,61.22L71.47,73.63L73.3,131.26L75.13,134.57L76.96,150.29L78.8,157.46L80.63,158.84L82.46,169.59L84.29,186.42L86.13,164.08L87.96,211.51L89.79,231.36L91.62,237.71L93.46,238.53L95.29,256.73L98.95,290.38L100.79,293.13L102.62,297.82L104.45,296.72L106.28,296.17L108.12,301.68L109.95,303.89L111.78,303.61L115.45,294.79L117.28,293.13L119.11,293.13L120.94,277.97L124.61,252.6L126.44,247.36L128.27,231.92L130.1,226.4L131.94,223.37L133.77,225.3L137.43,201.58L139.27,198.55L141.1,206.27L142.93,204.89L144.76,208.2L146.6,203.79L148.43,196.62L150.26,209.85L152.09,207.37L153.93,229.16L155.76,229.99L157.59,229.71L159.42,234.12L161.26,244.05L163.09,219.23L164.92,217.3L166.75,216.47L168.59,210.68L170.42,208.48L172.25,183.38L174.08,170.7L175.92,184.48L177.75,176.49L179.58,147.81L181.41,157.18L183.25,159.39L186.91,198L188.74,199.38L190.58,207.1L192.41,208.75L196.07,208.48L197.91,202.69L201.57,203.24L203.4,205.17L205.24,214.54L207.07,213.99L208.9,212.34L210.73,221.44L212.57,229.43L214.4,246.26L218.06,233.85L219.9,236.6L221.73,240.19L223.56,245.98L225.39,246.26L227.23,242.12L229.06,248.74L230.89,252.32L232.72,256.46L234.55,255.63L238.22,269.14L240.05,272.18L241.88,284.59L243.72,290.93L245.55,286.52L247.38,286.79L249.21,281.83L251.05,281.83L252.88,281.28L254.71,282.38L256.54,282.93L258.38,282.38L260.21,282.1L262.04,278.8L263.87,277.42L265.71,273.83L269.37,265.56L271.2,268.32L273.04,267.49L274.87,269.42L276.7,270.25L278.53,278.24L280.37,281.28L282.2,270.8L284.03,267.76L285.86,268.87L287.7,276.31L289.53,270.8L291.36,267.49L293.19,266.66L295.03,279.9L296.86,280.45L298.69,281L300.52,271.63L302.36,268.04L304.19,255.91L306.02,245.15L307.85,239.64L309.69,233.85L311.52,233.02L315.18,199.38L317.02,189.45L318.85,166.28L320.68,155.53L322.51,153.6L324.35,153.32L326.18,154.98L328.01,142.29L329.84,134.85L331.68,149.74L335.34,137.88L337.17,135.67L339.01,173.18L340.84,181.73L342.67,195.79L344.5,196.34L348.17,205.17L350,205.72L351.83,166.28L353.66,178.42L355.5,182L357.33,172.08L359.16,173.73L360.99,176.49L362.83,177.04L364.66,175.94L366.49,175.11L368.32,177.59L371.99,197.72L373.82,197.17L375.65,198.82L377.49,205.72L379.32,210.41L381.15,219.78L382.98,229.16L384.82,232.19L386.65,245.7L388.48,244.05L392.15,265.28L393.98,266.66L397.64,284.03L399.48,285.69L401.31,286.79L403.14,293.69L404.97,297.82L406.81,299.48L408.64,309.68L410.47,314.64L412.3,307.75L414.14,308.58L417.8,317.4L419.63,324.3L421.47,317.4L423.3,319.61L425.13,322.92L426.96,321.81L428.8,336.43L430.63,330.64L434.29,327.61L436.13,325.95L437.96,324.85L439.79,326.5L441.62,314.09L443.46,319.88L445.29,321.54L447.12,325.12L448.95,331.74L450.79,335.33L452.62,335.33L454.45,340.57L461.78,355.18L463.61,354.08L465.45,354.08L467.28,360.7L470.94,366.21L472.77,367.04L474.61,366.49L476.44,367.87L485.6,370.62L487.43,373.38L492.93,373.93L494.76,375.04L496.6,374.76L498.43,375.31L503.93,374.76L505.76,373.66L507.59,372.55L509.42,373.38L511.26,371.45L513.09,367.87L514.92,366.21L516.75,366.49L518.59,365.11L520.42,361.52L522.25,361.25L524.08,357.39L527.75,354.08L529.58,353.53L531.41,351.6L533.25,350.77L535.08,343.6L536.91,341.12L538.74,340.29L540.58,335.6L542.41,335.88L544.24,326.5L546.07,321.26L547.91,319.33L551.57,313.82L553.4,315.2L555.24,314.64L557.07,318.23L558.9,319.61L560.73,317.68L562.57,315.75L564.4,306.65L568.06,303.34L569.9,299.48L573.56,289.55L575.39,285.14L577.23,289.27L579.06,287.9L580.89,288.17L582.72,287.34L584.55,286.79L586.39,288.72L588.22,289L590.05,286.24L591.88,282.66L593.72,282.93L599.21,267.21L601.05,266.66L604.71,275.21L606.54,276.04L608.38,282.66L610.21,285.97L613.87,302.79L615.71,304.72L617.54,308.58L619.37,308.3L621.2,309.68L623.04,313.82L624.87,318.23L626.7,320.16L628.53,323.47L630.37,321.54L632.2,321.81L634.03,327.33L635.86,327.33L637.7,324.85L639.53,321.54L641.36,323.74L643.19,325.67L645.03,324.85L646.86,323.74L648.69,330.64L650.52,333.12L652.36,337.26L654.19,338.64L656.02,336.43L657.85,337.81L659.69,331.19L661.52,330.91L663.35,335.33L665.18,338.08L667.02,338.36L668.85,343.05" style="fill: rgb(8, 115, 191); fill-opacity: 0.2; stroke-width: 0;"/></g></g><g class="errorbars"/><g class="lines"><path class="js-line" d="M-249.21,376.69L-241.88,376.97L-240.05,376.97L-207.07,379.72L-205.24,379.45L-163.09,378.35L-161.26,378.35L-139.27,379.45L-137.43,379.45L-104.45,378.07L-102.62,377.24L-95.29,376.42L-93.46,377.24L-87.96,375.31L-86.13,375.04L-84.29,375.86L-82.46,374.76L-73.3,373.38L-71.47,370.9L-65.97,365.11L-64.14,367.87L-60.47,366.76L-58.64,367.59L-56.81,368.42L-54.97,371.18L-53.14,370.07L-51.31,366.76L-45.81,361.25L-43.98,362.08L-42.15,360.42L-40.31,356.28L-38.48,354.08L-36.65,355.18L-34.82,356.56L-32.98,344.7L-31.15,342.22L-29.32,343.05L-27.49,344.98L-25.65,343.05L-21.99,343.88L-20.16,355.73L-16.49,350.77L-14.66,350.49L-12.83,356.28L-10.99,356.56L-7.33,356.84L-5.5,357.39L-1.83,353.53L0,350.22L3.66,348.84L5.5,338.36L9.16,327.88L10.99,318.23L14.66,304.99L16.49,303.89L18.32,299.48L20.16,291.76L21.99,281.55L23.82,265.28L25.65,249.84L27.49,245.15L29.32,242.67L31.15,225.3L34.82,184.48L36.65,165.46L40.31,111.41L42.15,111.41L47.64,21.79L49.48,14.34L53.14,23.16L54.97,21.79L56.81,0L58.64,14.34L60.47,17.1L62.3,11.31L64.14,14.62L65.97,24.54L67.8,25.92L69.63,61.22L71.47,73.63L73.3,131.26L75.13,134.57L76.96,150.29L78.8,157.46L80.63,158.84L82.46,169.59L84.29,186.42L86.13,164.08L87.96,211.51L89.79,231.36L91.62,237.71L93.46,238.53L95.29,256.73L98.95,290.38L100.79,293.13L102.62,297.82L104.45,296.72L106.28,296.17L108.12,301.68L109.95,303.89L111.78,303.61L115.45,294.79L117.28,293.13L119.11,293.13L120.94,277.97L124.61,252.6L126.44,247.36L128.27,231.92L130.1,226.4L131.94,223.37L133.77,225.3L137.43,201.58L139.27,198.55L141.1,206.27L142.93,204.89L144.76,208.2L146.6,203.79L148.43,196.62L150.26,209.85L152.09,207.37L153.93,229.16L155.76,229.99L157.59,229.71L159.42,234.12L161.26,244.05L163.09,219.23L164.92,217.3L166.75,216.47L168.59,210.68L170.42,208.48L172.25,183.38L174.08,170.7L175.92,184.48L177.75,176.49L179.58,147.81L181.41,157.18L183.25,159.39L186.91,198L188.74,199.38L190.58,207.1L192.41,208.75L196.07,208.48L197.91,202.69L201.57,203.24L203.4,205.17L205.24,214.54L207.07,213.99L208.9,212.34L210.73,221.44L212.57,229.43L214.4,246.26L218.06,233.85L219.9,236.6L221.73,240.19L223.56,245.98L225.39,246.26L227.23,242.12L229.06,248.74L230.89,252.32L232.72,256.46L234.55,255.63L238.22,269.14L240.05,272.18L241.88,284.59L243.72,290.93L245.55,286.52L247.38,286.79L249.21,281.83L251.05,281.83L252.88,281.28L254.71,282.38L256.54,282.93L258.38,282.38L260.21,282.1L262.04,278.8L263.87,277.42L265.71,273.83L269.37,265.56L271.2,268.32L273.04,267.49L274.87,269.42L276.7,270.25L278.53,278.24L280.37,281.28L282.2,270.8L284.03,267.76L285.86,268.87L287.7,276.31L289.53,270.8L291.36,267.49L293.19,266.66L295.03,279.9L296.86,280.45L298.69,281L300.52,271.63L302.36,268.04L304.19,255.91L306.02,245.15L307.85,239.64L309.69,233.85L311.52,233.02L315.18,199.38L317.02,189.45L318.85,166.28L320.68,155.53L322.51,153.6L324.35,153.32L326.18,154.98L328.01,142.29L329.84,134.85L331.68,149.74L335.34,137.88L337.17,135.67L339.01,173.18L340.84,181.73L342.67,195.79L344.5,196.34L348.17,205.17L350,205.72L351.83,166.28L353.66,178.42L355.5,182L357.33,172.08L359.16,173.73L360.99,176.49L362.83,177.04L364.66,175.94L366.49,175.11L368.32,177.59L371.99,197.72L373.82,197.17L375.65,198.82L377.49,205.72L379.32,210.41L381.15,219.78L382.98,229.16L384.82,232.19L386.65,245.7L388.48,244.05L392.15,265.28L393.98,266.66L397.64,284.03L399.48,285.69L401.31,286.79L403.14,293.69L404.97,297.82L406.81,299.48L408.64,309.68L410.47,314.64L412.3,307.75L414.14,308.58L417.8,317.4L419.63,324.3L421.47,317.4L423.3,319.61L425.13,322.92L426.96,321.81L428.8,336.43L430.63,330.64L434.29,327.61L436.13,325.95L437.96,324.85L439.79,326.5L441.62,314.09L443.46,319.88L445.29,321.54L447.12,325.12L448.95,331.74L450.79,335.33L452.62,335.33L454.45,340.57L461.78,355.18L463.61,354.08L465.45,354.08L467.28,360.7L470.94,366.21L472.77,367.04L474.61,366.49L476.44,367.87L485.6,370.62L487.43,373.38L492.93,373.93L494.76,375.04L496.6,374.76L498.43,375.31L503.93,374.76L505.76,373.66L507.59,372.55L509.42,373.38L511.26,371.45L513.09,367.87L514.92,366.21L516.75,366.49L518.59,365.11L520.42,361.52L522.25,361.25L524.08,357.39L527.75,354.08L529.58,353.53L531.41,351.6L533.25,350.77L535.08,343.6L536.91,341.12L538.74,340.29L540.58,335.6L542.41,335.88L544.24,326.5L546.07,321.26L547.91,319.33L551.57,313.82L553.4,315.2L555.24,314.64L557.07,318.23L558.9,319.61L560.73,317.68L562.57,315.75L564.4,306.65L568.06,303.34L569.9,299.48L573.56,289.55L575.39,285.14L577.23,289.27L579.06,287.9L580.89,288.17L582.72,287.34L584.55,286.79L586.39,288.72L588.22,289L590.05,286.24L591.88,282.66L593.72,282.93L599.21,267.21L601.05,266.66L604.71,275.21L606.54,276.04L608.38,282.66L610.21,285.97L613.87,302.79L615.71,304.72L617.54,308.58L619.37,308.3L621.2,309.68L623.04,313.82L624.87,318.23L626.7,320.16L628.53,323.47L630.37,321.54L632.2,321.81L634.03,327.33L635.86,327.33L637.7,324.85L639.53,321.54L641.36,323.74L643.19,325.67L645.03,324.85L646.86,323.74L648.69,330.64L650.52,333.12L652.36,337.26L654.19,338.64L656.02,336.43L657.85,337.81L659.69,331.19L661.52,330.91L663.35,335.33L665.18,338.08L667.02,338.36L668.85,343.05" style="vector-effect: non-scaling-stroke; fill: none; stroke: rgb(8, 115, 191); stroke-opacity: 1; stroke-width: 0.5px; opacity: 1;"/></g><g class="points"/><g class="text"/></g><g class="trace scatter trace664691" style="stroke-miterlimit: 2;"><g class="fills"><g><path class="js-fill" d="M687.17,380L668.85,380L668.85,343.05L670.68,343.05L672.51,352.15L676.18,344.98L678.01,343.88L679.84,342.5L681.68,342.22L683.51,342.22L685.34,341.12L687.17,345.53" style="fill: rgb(8, 115, 191); fill-opacity: 0.4; stroke-width: 0;"/></g></g><g class="errorbars"/><g class="lines"><path class="js-line" d="M668.85,343.05L670.68,343.05L672.51,352.15L676.18,344.98L678.01,343.88L679.84,342.5L681.68,342.22L683.51,342.22L685.34,341.12L687.17,345.53" style="vector-effect: non-scaling-stroke; fill: none; stroke: rgb(8, 115, 191); stroke-opacity: 1; stroke-width: 2px; opacity: 1;"/></g><g class="points"/><g class="text"/></g><g class="trace scatter trace926bf9" style="stroke-miterlimit: 2; opacity: 1;"><g class="fills"/><g class="errorbars"/><g class="lines"/><g class="points"><path class="point" transform="translate(687.17,345.53)" d="M15,0A15,15 0 1,1 0,-15A15,15 0 0,1 15,0Z" style="opacity: 1; stroke-width: 0px; fill: rgb(8, 115, 191); fill-opacity: 1;"/></g><g class="text"/></g></g></g><g class="overplot"/><path class="xlines-above crisp" style="fill: none; stroke-width: 1px; stroke: rgb(0, 0, 0); stroke-opacity: 0;" d=""/><path class="ylines-above crisp" style="fill: none;" d="M0,0"/><g class="overlines-above"/><g class="xaxislayer-above"><path class="xtick ticks crisp" d="M0,450v-5" transform="translate(110.47,0)" style="stroke: rgb(68, 68, 68); stroke-opacity: 1; stroke-width: 1px;"/><path class="xtick ticks crisp" d="M0,450v-5" transform="translate(222.25,0)" style="stroke: rgb(68, 68, 68); stroke-opacity: 1; stroke-width: 1px;"/><path class="xtick ticks crisp" d="M0,450v-5" transform="translate(330.37,0)" style="stroke: rgb(68, 68, 68); stroke-opacity: 1; stroke-width: 1px;"/><path class="xtick ticks crisp" d="M0,450v-5" transform="translate(442.15,0)" style="stroke: rgb(68, 68, 68); stroke-opacity: 1; stroke-width: 1px;"/><path class="xtick ticks crisp" d="M0,450v-5" transform="translate(553.9300000000001,0)" style="stroke: rgb(68, 68, 68); stroke-opacity: 1; stroke-width: 1px;"/><path class="xtick ticks crisp" d="M0,450v-5" transform="translate(667.54,0)" style="stroke: rgb(68, 68, 68); stroke-opacity: 1; stroke-width: 1px;"/><g class="xtick"><text text-anchor="middle" x="0" y="469" transform="translate(110.47,0)" style="font-family: 'Open Sans', verdana, arial, sans-serif; font-size: 18px; fill: rgb(42, 63, 95); fill-opacity: 1; white-space: pre;">01/11</text></g><g class="xtick"><text text-anchor="middle" x="0" y="469" transform="translate(222.25,0)" style="font-family: 'Open Sans', verdana, arial, sans-serif; font-size: 18px; fill: rgb(42, 63, 95); fill-opacity: 1; white-space: pre;">01/01</text></g><g class="xtick"><text text-anchor="middle" x="0" y="469" transform="translate(330.37,0)" style="font-family: 'Open Sans', verdana, arial, sans-serif; font-size: 18px; fill: rgb(42, 63, 95); fill-opacity: 1; white-space: pre;">01/03</text></g><g class="xtick"><text text-anchor="middle" x="0" y="469" transform="translate(442.15,0)" style="font-family: 'Open Sans', verdana, arial, sans-serif; font-size: 18px; fill: rgb(42, 63, 95); fill-opacity: 1; white-space: pre;">01/05</text></g><g class="xtick"><text text-anchor="middle" x="0" y="469" transform="translate(553.9300000000001,0)" style="font-family: 'Open Sans', verdana, arial, sans-serif; font-size: 18px; fill: rgb(42, 63, 95); fill-opacity: 1; white-space: pre;">01/07</text></g><g class="xtick"><text text-anchor="middle" x="0" y="469" transform="translate(667.54,0)" style="font-family: 'Open Sans', verdana, arial, sans-serif; font-size: 18px; fill: rgb(42, 63, 95); fill-opacity: 1; white-space: pre;">01/09</text></g></g><g class="yaxislayer-above"/><g class="overaxes-above"/></g></g><g class="polarlayer"/><g class="ternarylayer"/><g class="geolayer"/><g class="funnelarealayer"/><g class="pielayer"/><g class="treemaplayer"/><g class="sunburstlayer"/><g class="glimages"/><defs id="topdefs-0f3bf6"><g class="clips"/></defs><g class="layer-above"><g class="imagelayer"/><g class="shapelayer"><path data-index="0" fill-rule="evenodd" d="M-979.8399999999999,409.13L359.69,409.13" clip-path="url('#clip0f3bf6xy')" style="opacity: 1; stroke: rgb(255, 0, 0); stroke-opacity: 1; fill: rgb(0, 0, 0); fill-opacity: 0; stroke-dasharray: 3px, 3px; stroke-width: 1.5px;"/></g></g><g class="infolayer"><g class="g-gtitle"><text class="gtitle" x="375" y="25" text-anchor="middle" dy="0.7em" style="font-family: 'Open Sans', verdana, arial, sans-serif; font-size: 50px; fill: rgb(42, 63, 95); opacity: 1; font-weight: normal; white-space: pre;"><tspan style="font-weight:bold">Cher (18)</tspan></text></g><g class="g-xtitle"/><g class="annotation" data-index="0" style="opacity: 1;"><g class="annotation-text-g" transform="rotate(0,695.17,355.53)"><g class="cursor-pointer" transform="translate(652, 320)"><rect class="bg" x="0.5" y="0.5" width="86" height="71" style="stroke-width: 1px; stroke: rgb(0, 0, 0); stroke-opacity: 0; fill: rgb(255, 255, 255); fill-opacity: 0.6;"/><text class="annotation-text" text-anchor="middle" x="43.53125" y="55.5" style="font-family: 'Open Sans', verdana, arial, sans-serif; font-size: 50px; fill: rgb(8, 115, 191); fill-opacity: 1; white-space: pre;"> <tspan style="font-weight:bold">42 </tspan></text></g></g><g class="annotation-arrow-g" style="opacity: 1;"><path d="M723.5699999999999,391.03L735.17,405.53" style="stroke-width: 1px; stroke: rgb(8, 115, 191); stroke-opacity: 1; stroke-dasharray: 0px, 0px, 18.569px, 18.569px;"/></g></g></g></svg>