<svg class="main-svg" xmlns="http://www.w3.org/2000/svg" xmlns:xlink="http://www.w3.org/1999/xlink" width="1125" height="750" style="" viewBox="0 0 750 500"><rect x="0" y="0" width="750" height="500" style="fill: rgb(0, 0, 0); fill-opacity: 0;"/><defs id="defs-cf804c"><g class="clips"><clipPath id="clipcf804cxyplot" class="plotclip"><rect width="688" height="380"/></clipPath><clipPath class="axesclip" id="clipcf804cx"><rect x="50" y="0" width="688" height="500"/></clipPath><clipPath class="axesclip" id="clipcf804cy"><rect x="0" y="70" width="750" height="380"/></clipPath><clipPath class="axesclip" id="clipcf804cxy"><rect x="50" y="70" width="688" height="380"/></clipPath></g><g class="gradients"/></defs><g class="bglayer"><rect class="bg" x="50" y="70" width="688" height="380" style="fill: rgb(0, 0, 0); fill-opacity: 0; stroke-width: 0;"/></g><g class="layer-below"><g class="imagelayer"/><g class="shapelayer"/></g><g class="cartesianlayer"><g class="subplot xy"><g class="layer-subplot"><g class="shapelayer"/><g class="imagelayer"/></g><g class="gridlayer"><g class="x"><path class="xgrid crisp" transform="translate(106.06,0)" d="M0,70v380" style="stroke: rgb(255, 255, 255); stroke-opacity: 1; stroke-width: 1px;"/><path class="xgrid crisp" transform="translate(209.68,0)" d="M0,70v380" style="stroke: rgb(255, 255, 255); stroke-opacity: 1; stroke-width: 1px;"/><path class="xgrid crisp" transform="translate(309.91,0)" d="M0,70v380" style="stroke: rgb(255, 255, 255); stroke-opacity: 1; stroke-width: 1px;"/><path class="xgrid crisp" transform="translate(413.54,0)" d="M0,70v380" style="stroke: rgb(255, 255, 255); stroke-opacity: 1; stroke-width: 1px;"/><path class="xgrid crisp" transform="translate(517.1600000000001,0)" d="M0,70v380" style="stroke: rgb(255, 255, 255); stroke-opacity: 1; stroke-width: 1px;"/><path class="xgrid crisp" transform="translate(622.48,0)" d="M0,70v380" style="stroke: rgb(255, 255, 255); stroke-opacity: 1; stroke-width: 1px;"/><path class="xgrid crisp" transform="translate(726.11,0)" d="M0,70v380" style="stroke: rgb(255, 255, 255); stroke-opacity: 1; stroke-width: 1px;"/></g><g class="y"/></g><g class="zerolinelayer"/><path class="xlines-below"/><path class="ylines-below"/><g class="overlines-below"/><g class="xaxislayer-below"/><g class="yaxislayer-below"/><g class="overaxes-below"/><g class="plot" transform="translate(50, 70)" clip-path="url('#clipcf804cxyplot')"><g class="scatterlayer mlayer"><g class="trace scatter trace765e21" style="stroke-miterlimit: 2;"><g class="fills"><g><path class="js-fill" d="M659.12,380L-231.03,380L-231.03,379.08L-103.62,378.47L-101.93,377.55L-91.73,376.48L-90.03,376.79L-78.14,374.49L-76.44,373.88L-71.35,371.13L-69.65,370.97L-62.85,368.68L-61.16,369.44L-57.76,368.68L-56.06,369.6L-54.36,370.36L-52.66,369.14L-50.96,369.9L-49.26,368.53L-44.17,366.54L-42.47,365.62L-40.77,366.38L-39.07,364.4L-35.67,362.1L-33.98,362.71L-32.28,361.8L-30.58,359.35L-27.18,353.99L-25.48,353.08L-22.08,348.18L-20.39,349.4L-16.99,348.33L-15.29,351.09L-13.59,350.32L-11.89,353.69L-10.19,355.98L-8.49,356.14L-5.1,361.34L-3.4,359.96L-1.7,360.42L0,358.58L1.7,356.9L3.4,356.9L5.1,348.49L6.8,344.2L13.59,339L15.29,338.24L16.99,340.99L18.69,338.7L20.39,333.95L22.08,332.42L27.18,326.61L28.88,312.84L30.58,308.71L32.28,296.01L33.98,283.47L35.67,264.19L37.37,257.77L39.07,255.02L40.77,243.24L42.47,237.88L44.17,234.52L45.87,222.58L47.57,216.01L49.26,217.54L50.96,220.14L52.66,228.55L54.36,229.32L56.06,242.01L57.76,248.29L59.46,265.11L61.16,268.02L62.85,268.63L64.55,263.89L66.25,269.4L71.35,298.31L73.05,303.36L74.75,303.2L76.44,324.47L78.14,327.99L79.84,324.01L81.54,329.06L83.24,329.06L84.94,329.98L86.64,332.12L88.34,331.35L90.03,334.57L93.43,338.39L95.13,342.21L96.83,343.29L98.53,342.06L101.93,350.48L103.62,352.31L107.02,358.28L108.72,357.82L110.42,358.43L112.12,357.97L115.52,357.82L117.21,358.43L118.91,357.05L120.61,357.67L122.31,358.12L124.01,356.14L129.11,349.56L130.8,349.4L134.2,348.49L135.9,346.04L137.6,341.6L139.3,333.65L141,330.89L142.7,334.87L144.4,332.58L146.09,332.88L147.79,331.35L149.49,331.2L151.19,332.12L152.89,327.07L154.59,326.92L156.29,321.56L157.99,320.64L159.68,312.23L161.38,305.19L163.08,307.64L164.78,299.53L166.48,286.84L168.18,292.34L169.88,291.12L171.58,295.25L173.27,294.79L174.97,284.69L176.67,287.14L181.77,273.53L183.47,269.55L185.17,264.19L186.86,265.57L188.56,263.28L190.26,255.78L191.96,254.25L193.66,256.09L195.36,250.12L197.06,250.73L198.76,252.87L200.45,249.2L202.15,253.18L203.85,244.92L205.55,243.54L207.25,239.26L208.95,231.76L210.65,229.32L214.04,233.29L215.74,241.25L217.44,243.54L219.14,255.63L220.84,272.3L222.54,275.06L224.24,281.63L225.94,284.69L227.63,291.27L229.33,293.11L231.03,301.22L232.73,300.45L234.43,305.35L236.13,307.33L237.83,312.08L239.53,310.24L241.22,309.78L242.92,301.06L244.62,299.07L246.32,295.71L248.02,297.24L249.72,297.7L251.42,299.07L253.12,298.92L254.81,303.2L256.51,304.58L258.21,307.03L259.91,307.18L261.61,309.48L263.31,307.95L266.71,306.57L268.4,302.9L270.1,300.45L271.8,296.17L273.5,288.06L275.2,285.15L276.9,283.16L278.6,270.01L280.3,267.41L282,260.83L283.69,256.24L285.39,254.86L287.09,251.5L288.79,253.03L290.49,255.63L292.19,255.32L295.59,255.93L297.28,254.1L298.98,254.25L300.68,253.49L302.38,246.91L304.08,245.53L305.78,242.93L307.48,236.81L309.18,223.96L310.87,221.67L312.57,218.45L314.27,242.01L317.67,220.6L319.37,210.81L321.07,213.71L322.77,210.19L324.46,209.28L326.16,187.55L334.66,226.87L336.36,230.23L339.75,236.35L341.45,241.4L343.15,251.96L344.85,256.39L346.55,256.85L348.25,256.39L351.64,270.93L353.34,272.46L355.04,274.6L356.74,279.65L358.44,286.99L360.14,288.21L361.84,291.88L363.54,292.95L368.63,314.22L370.33,315.6L372.03,318.35L373.73,326.76L375.43,334.57L377.13,334.57L378.82,339.31L380.52,339L385.62,337.93L387.32,338.54L389.02,340.23L390.72,335.79L392.41,341.14L394.11,341.3L395.81,341.3L397.51,346.5L399.21,344.66L400.91,344.05L402.61,342.83L404.31,337.17L407.7,335.94L409.4,329.36L412.8,338.54L414.5,341.14L417.9,348.33L419.6,349.4L421.29,354.61L422.99,355.52L424.69,357.21L426.39,360.27L428.09,363.17L429.79,362.25L431.49,362.71L433.19,364.09L434.88,367L436.58,368.37L443.38,369.9L445.08,370.06L448.47,370.06L450.17,370.36L451.87,371.89L453.57,372.35L455.27,372.05L456.97,373.42L458.67,373.42L460.37,371.59L462.06,371.43L463.76,369.6L470.56,367.15L472.26,367.91L475.65,363.33L477.35,357.36L479.05,354.3L480.75,340.07L482.45,316.67L484.15,305.96L489.24,209.28L490.94,194.9L496.04,37.94L497.74,16.67L501.14,0L502.83,1.22L504.53,2.29L506.23,13.62L509.63,50.64L511.33,56.3L513.03,70.22L514.73,76.64L516.42,103.11L518.12,117.79L523.22,159.25L524.92,166.75L526.62,169.65L528.32,183.57L530.01,198.57L531.71,198.72L533.41,197.8L535.11,200.71L536.81,201.78L538.51,203.92L541.91,204.69L543.6,212.49L547,224.42L548.7,230.08L550.4,232.22L552.1,240.48L555.5,260.06L557.2,266.8L558.89,277.81L560.59,280.41L562.29,281.48L563.99,294.64L569.09,313.91L570.79,315.6L572.48,320.03L574.18,320.49L575.88,319.73L577.58,322.63L579.28,323.55L580.98,325.69L582.68,325.54L584.38,326.61L586.07,327.22L587.77,330.74L589.47,331.35L591.17,332.88L594.57,341.91L596.27,342.83L597.97,342.83L599.66,345.27L601.36,348.49L603.06,350.02L604.76,349.56L606.46,346.96L609.86,347.72L611.56,351.09L613.25,348.79L614.95,350.17L616.65,350.17L618.35,352.77L621.75,352.77L623.45,352L626.84,352L628.54,350.78L633.64,350.63L635.34,349.86L638.74,344.81L640.43,344.97L642.13,342.21L643.83,341.3L645.53,340.23L647.23,335.79L652.33,325.39L654.02,325.54L655.72,325.39L657.42,326.92L659.12,331.51" style="fill: rgb(8, 115, 191); fill-opacity: 0.2; stroke-width: 0;"/></g></g><g class="errorbars"/><g class="lines"><path class="js-line" d="M-231.03,379.08L-103.62,378.47L-101.93,377.55L-91.73,376.48L-90.03,376.79L-78.14,374.49L-76.44,373.88L-71.35,371.13L-69.65,370.97L-62.85,368.68L-61.16,369.44L-57.76,368.68L-56.06,369.6L-54.36,370.36L-52.66,369.14L-50.96,369.9L-49.26,368.53L-44.17,366.54L-42.47,365.62L-40.77,366.38L-39.07,364.4L-35.67,362.1L-33.98,362.71L-32.28,361.8L-30.58,359.35L-27.18,353.99L-25.48,353.08L-22.08,348.18L-20.39,349.4L-16.99,348.33L-15.29,351.09L-13.59,350.32L-11.89,353.69L-10.19,355.98L-8.49,356.14L-5.1,361.34L-3.4,359.96L-1.7,360.42L0,358.58L1.7,356.9L3.4,356.9L5.1,348.49L6.8,344.2L13.59,339L15.29,338.24L16.99,340.99L18.69,338.7L20.39,333.95L22.08,332.42L27.18,326.61L28.88,312.84L30.58,308.71L32.28,296.01L33.98,283.47L35.67,264.19L37.37,257.77L39.07,255.02L40.77,243.24L42.47,237.88L44.17,234.52L45.87,222.58L47.57,216.01L49.26,217.54L50.96,220.14L52.66,228.55L54.36,229.32L56.06,242.01L57.76,248.29L59.46,265.11L61.16,268.02L62.85,268.63L64.55,263.89L66.25,269.4L71.35,298.31L73.05,303.36L74.75,303.2L76.44,324.47L78.14,327.99L79.84,324.01L81.54,329.06L83.24,329.06L84.94,329.98L86.64,332.12L88.34,331.35L90.03,334.57L93.43,338.39L95.13,342.21L96.83,343.29L98.53,342.06L101.93,350.48L103.62,352.31L107.02,358.28L108.72,357.82L110.42,358.43L112.12,357.97L115.52,357.82L117.21,358.43L118.91,357.05L120.61,357.67L122.31,358.12L124.01,356.14L129.11,349.56L130.8,349.4L134.2,348.49L135.9,346.04L137.6,341.6L139.3,333.65L141,330.89L142.7,334.87L144.4,332.58L146.09,332.88L147.79,331.35L149.49,331.2L151.19,332.12L152.89,327.07L154.59,326.92L156.29,321.56L157.99,320.64L159.68,312.23L161.38,305.19L163.08,307.64L164.78,299.53L166.48,286.84L168.18,292.34L169.88,291.12L171.58,295.25L173.27,294.79L174.97,284.69L176.67,287.14L181.77,273.53L183.47,269.55L185.17,264.19L186.86,265.57L188.56,263.28L190.26,255.78L191.96,254.25L193.66,256.09L195.36,250.12L197.06,250.73L198.76,252.87L200.45,249.2L202.15,253.18L203.85,244.92L205.55,243.54L207.25,239.26L208.95,231.76L210.65,229.32L214.04,233.29L215.74,241.25L217.44,243.54L219.14,255.63L220.84,272.3L222.54,275.06L224.24,281.63L225.94,284.69L227.63,291.27L229.33,293.11L231.03,301.22L232.73,300.45L234.43,305.35L236.13,307.33L237.83,312.08L239.53,310.24L241.22,309.78L242.92,301.06L244.62,299.07L246.32,295.71L248.02,297.24L249.72,297.7L251.42,299.07L253.12,298.92L254.81,303.2L256.51,304.58L258.21,307.03L259.91,307.18L261.61,309.48L263.31,307.95L266.71,306.57L268.4,302.9L270.1,300.45L271.8,296.17L273.5,288.06L275.2,285.15L276.9,283.16L278.6,270.01L280.3,267.41L282,260.83L283.69,256.24L285.39,254.86L287.09,251.5L288.79,253.03L290.49,255.63L292.19,255.32L295.59,255.93L297.28,254.1L298.98,254.25L300.68,253.49L302.38,246.91L304.08,245.53L305.78,242.93L307.48,236.81L309.18,223.96L310.87,221.67L312.57,218.45L314.27,242.01L317.67,220.6L319.37,210.81L321.07,213.71L322.77,210.19L324.46,209.28L326.16,187.55L334.66,226.87L336.36,230.23L339.75,236.35L341.45,241.4L343.15,251.96L344.85,256.39L346.55,256.85L348.25,256.39L351.64,270.93L353.34,272.46L355.04,274.6L356.74,279.65L358.44,286.99L360.14,288.21L361.84,291.88L363.54,292.95L368.63,314.22L370.33,315.6L372.03,318.35L373.73,326.76L375.43,334.57L377.13,334.57L378.82,339.31L380.52,339L385.62,337.93L387.32,338.54L389.02,340.23L390.72,335.79L392.41,341.14L394.11,341.3L395.81,341.3L397.51,346.5L399.21,344.66L400.91,344.05L402.61,342.83L404.31,337.17L407.7,335.94L409.4,329.36L412.8,338.54L414.5,341.14L417.9,348.33L419.6,349.4L421.29,354.61L422.99,355.52L424.69,357.21L426.39,360.27L428.09,363.17L429.79,362.25L431.49,362.71L433.19,364.09L434.88,367L436.58,368.37L443.38,369.9L445.08,370.06L448.47,370.06L450.17,370.36L451.87,371.89L453.57,372.35L455.27,372.05L456.97,373.42L458.67,373.42L460.37,371.59L462.06,371.43L463.76,369.6L470.56,367.15L472.26,367.91L475.65,363.33L477.35,357.36L479.05,354.3L480.75,340.07L482.45,316.67L484.15,305.96L489.24,209.28L490.94,194.9L496.04,37.94L497.74,16.67L501.14,0L502.83,1.22L504.53,2.29L506.23,13.62L509.63,50.64L511.33,56.3L513.03,70.22L514.73,76.64L516.42,103.11L518.12,117.79L523.22,159.25L524.92,166.75L526.62,169.65L528.32,183.57L530.01,198.57L531.71,198.72L533.41,197.8L535.11,200.71L536.81,201.78L538.51,203.92L541.91,204.69L543.6,212.49L547,224.42L548.7,230.08L550.4,232.22L552.1,240.48L555.5,260.06L557.2,266.8L558.89,277.81L560.59,280.41L562.29,281.48L563.99,294.64L569.09,313.91L570.79,315.6L572.48,320.03L574.18,320.49L575.88,319.73L577.58,322.63L579.28,323.55L580.98,325.69L582.68,325.54L584.38,326.61L586.07,327.22L587.77,330.74L589.47,331.35L591.17,332.88L594.57,341.91L596.27,342.83L597.97,342.83L599.66,345.27L601.36,348.49L603.06,350.02L604.76,349.56L606.46,346.96L609.86,347.72L611.56,351.09L613.25,348.79L614.95,350.17L616.65,350.17L618.35,352.77L621.75,352.77L623.45,352L626.84,352L628.54,350.78L633.64,350.63L635.34,349.86L638.74,344.81L640.43,344.97L642.13,342.21L643.83,341.3L645.53,340.23L647.23,335.79L652.33,325.39L654.02,325.54L655.72,325.39L657.42,326.92L659.12,331.51" style="vector-effect: non-scaling-stroke; fill: none; stroke: rgb(8, 115, 191); stroke-opacity: 1; stroke-width: 0.5px; opacity: 1;"/></g><g class="points"/><g class="text"/></g><g class="trace scatter trace5aa4dd" style="stroke-miterlimit: 2;"><g class="fills"><g><path class="js-fill" d="M676.11,380L659.12,380L659.12,331.51L660.82,337.17L662.52,340.07L664.22,343.9L665.92,342.37L669.31,340.53L671.01,344.51L674.41,335.48L676.11,334.11" style="fill: rgb(8, 115, 191); fill-opacity: 0.4; stroke-width: 0;"/></g></g><g class="errorbars"/><g class="lines"><path class="js-line" d="M659.12,331.51L660.82,337.17L662.52,340.07L664.22,343.9L665.92,342.37L669.31,340.53L671.01,344.51L674.41,335.48L676.11,334.11" style="vector-effect: non-scaling-stroke; fill: none; stroke: rgb(8, 115, 191); stroke-opacity: 1; stroke-width: 2px; opacity: 1;"/></g><g class="points"/><g class="text"/></g><g class="trace scatter trace8a7d11" style="stroke-miterlimit: 2; opacity: 1;"><g class="fills"/><g class="errorbars"/><g class="lines"/><g class="points"><path class="point" transform="translate(676.11,334.11)" d="M15,0A15,15 0 1,1 0,-15A15,15 0 0,1 15,0Z" style="opacity: 1; stroke-width: 0px; fill: rgb(8, 115, 191); fill-opacity: 1;"/></g><g class="text"/></g></g></g><g class="overplot"/><path class="xlines-above crisp" style="fill: none; stroke-width: 1px; stroke: rgb(0, 0, 0); stroke-opacity: 0;" d=""/><path class="ylines-above crisp" style="fill: none;" d="M0,0"/><g class="overlines-above"/><g class="xaxislayer-above"><path class="xtick ticks crisp" d="M0,450v-5" transform="translate(106.06,0)" style="stroke: rgb(68, 68, 68); stroke-opacity: 1; stroke-width: 1px;"/><path class="xtick ticks crisp" d="M0,450v-5" transform="translate(209.68,0)" style="stroke: rgb(68, 68, 68); stroke-opacity: 1; stroke-width: 1px;"/><path class="xtick ticks crisp" d="M0,450v-5" transform="translate(309.91,0)" style="stroke: rgb(68, 68, 68); stroke-opacity: 1; stroke-width: 1px;"/><path class="xtick ticks crisp" d="M0,450v-5" transform="translate(413.54,0)" style="stroke: rgb(68, 68, 68); stroke-opacity: 1; stroke-width: 1px;"/><path class="xtick ticks crisp" d="M0,450v-5" transform="translate(517.1600000000001,0)" style="stroke: rgb(68, 68, 68); stroke-opacity: 1; stroke-width: 1px;"/><path class="xtick ticks crisp" d="M0,450v-5" transform="translate(622.48,0)" style="stroke: rgb(68, 68, 68); stroke-opacity: 1; stroke-width: 1px;"/><path class="xtick ticks crisp" d="M0,450v-5" transform="translate(726.11,0)" style="stroke: rgb(68, 68, 68); stroke-opacity: 1; stroke-width: 1px;"/><g class="xtick"><text text-anchor="middle" x="0" y="469" transform="translate(106.06,0)" style="font-family: 'Open Sans', verdana, arial, sans-serif; font-size: 18px; fill: rgb(42, 63, 95); fill-opacity: 1; white-space: pre;">01/11</text></g><g class="xtick"><text text-anchor="middle" x="0" y="469" transform="translate(209.68,0)" style="font-family: 'Open Sans', verdana, arial, sans-serif; font-size: 18px; fill: rgb(42, 63, 95); fill-opacity: 1; white-space: pre;">01/01</text></g><g class="xtick"><text text-anchor="middle" x="0" y="469" transform="translate(309.91,0)" style="font-family: 'Open Sans', verdana, arial, sans-serif; font-size: 18px; fill: rgb(42, 63, 95); fill-opacity: 1; white-space: pre;">01/03</text></g><g class="xtick"><text text-anchor="middle" x="0" y="469" transform="translate(413.54,0)" style="font-family: 'Open Sans', verdana, arial, sans-serif; font-size: 18px; fill: rgb(42, 63, 95); fill-opacity: 1; white-space: pre;">01/05</text></g><g class="xtick"><text text-anchor="middle" x="0" y="469" transform="translate(517.1600000000001,0)" style="font-family: 'Open Sans', verdana, arial, sans-serif; font-size: 18px; fill: rgb(42, 63, 95); fill-opacity: 1; white-space: pre;">01/07</text></g><g class="xtick"><text text-anchor="middle" x="0" y="469" transform="translate(622.48,0)" style="font-family: 'Open Sans', verdana, arial, sans-serif; font-size: 18px; fill: rgb(42, 63, 95); fill-opacity: 1; white-space: pre;">01/09</text></g><g class="xtick"><text text-anchor="middle" x="0" y="469" transform="translate(726.11,0)" style="font-family: 'Open Sans', verdana, arial, sans-serif; font-size: 18px; fill: rgb(42, 63, 95); fill-opacity: 1; white-space: pre;">01/11</text></g></g><g class="yaxislayer-above"/><g class="overaxes-above"/></g></g><g class="polarlayer"/><g class="ternarylayer"/><g class="geolayer"/><g class="funnelarealayer"/><g class="pielayer"/><g class="treemaplayer"/><g class="sunburstlayer"/><g class="glimages"/><defs id="topdefs-cf804c"><g class="clips"/></defs><g class="layer-above"><g class="imagelayer"/><g class="shapelayer"><path data-index="0" fill-rule="evenodd" d="M-904.71,400.51L337.09,400.51" clip-path="url('#clipcf804cxy')" style="opacity: 1; stroke: rgb(255, 0, 0); stroke-opacity: 1; fill: rgb(0, 0, 0); fill-opacity: 0; stroke-dasharray: 3px, 3px; stroke-width: 1.5px;"/></g></g><g class="infolayer"><g class="g-gtitle"><text class="gtitle" x="375" y="25" text-anchor="middle" dy="0.7em" style="font-family: 'Open Sans', verdana, arial, sans-serif; font-size: 50px; fill: rgb(42, 63, 95); opacity: 1; font-weight: normal; white-space: pre;"><tspan style="font-weight:bold">Charente-Maritime (17)</tspan></text></g><g class="g-xtitle"/><g class="annotation" data-index="0" style="opacity: 1;"><g class="annotation-text-g" transform="rotate(0,684.11,344.11)"><g class="cursor-pointer" transform="translate(641, 308)"><rect class="bg" x="0.5" y="0.5" width="86" height="71" style="stroke-width: 1px; stroke: rgb(0, 0, 0); stroke-opacity: 0; fill: rgb(255, 255, 255); fill-opacity: 0.6;"/><text class="annotation-text" text-anchor="middle" x="43.53125" y="55.5" style="font-family: 'Open Sans', verdana, arial, sans-serif; font-size: 50px; fill: rgb(8, 115, 191); fill-opacity: 1; white-space: pre;"> <tspan style="font-weight:bold">46 </tspan></text></g></g><g class="annotation-arrow-g" style="opacity: 1;"><path d="M712.51,379.61L724.11,394.11" style="stroke-width: 1px; stroke: rgb(8, 115, 191); stroke-opacity: 1; stroke-dasharray: 0px, 0px, 18.569px, 18.569px;"/></g></g></g></svg>