<svg class="main-svg" xmlns="http://www.w3.org/2000/svg" xmlns:xlink="http://www.w3.org/1999/xlink" width="1125" height="750" style="" viewBox="0 0 750 500"><rect x="0" y="0" width="750" height="500" style="fill: rgb(0, 0, 0); fill-opacity: 0;"/><defs id="defs-9602c7"><g class="clips"><clipPath id="clip9602c7xyplot" class="plotclip"><rect width="700" height="380"/></clipPath><clipPath class="axesclip" id="clip9602c7x"><rect x="50" y="0" width="700" height="500"/></clipPath><clipPath class="axesclip" id="clip9602c7y"><rect x="0" y="70" width="750" height="380"/></clipPath><clipPath class="axesclip" id="clip9602c7xy"><rect x="50" y="70" width="700" height="380"/></clipPath></g><g class="gradients"/></defs><g class="bglayer"><rect class="bg" x="50" y="70" width="700" height="380" style="fill: rgb(0, 0, 0); fill-opacity: 0; stroke-width: 0;"/></g><g class="layer-below"><g class="imagelayer"/><g class="shapelayer"/></g><g class="cartesianlayer"><g class="subplot xy"><g class="layer-subplot"><g class="shapelayer"/><g class="imagelayer"/></g><g class="gridlayer"><g class="x"><path class="xgrid crisp" transform="translate(113.46000000000001,0)" d="M0,70v380" style="stroke: rgb(255, 255, 255); stroke-opacity: 1; stroke-width: 1px;"/><path class="xgrid crisp" transform="translate(230.77,0)" d="M0,70v380" style="stroke: rgb(255, 255, 255); stroke-opacity: 1; stroke-width: 1px;"/><path class="xgrid crisp" transform="translate(344.23,0)" d="M0,70v380" style="stroke: rgb(255, 255, 255); stroke-opacity: 1; stroke-width: 1px;"/><path class="xgrid crisp" transform="translate(461.54,0)" d="M0,70v380" style="stroke: rgb(255, 255, 255); stroke-opacity: 1; stroke-width: 1px;"/><path class="xgrid crisp" transform="translate(578.85,0)" d="M0,70v380" style="stroke: rgb(255, 255, 255); stroke-opacity: 1; stroke-width: 1px;"/><path class="xgrid crisp" transform="translate(698.08,0)" d="M0,70v380" style="stroke: rgb(255, 255, 255); stroke-opacity: 1; stroke-width: 1px;"/></g><g class="y"/></g><g class="zerolinelayer"/><path class="xlines-below"/><path class="ylines-below"/><g class="overlines-below"/><g class="xaxislayer-below"/><g class="yaxislayer-below"/><g class="overaxes-below"/><g class="plot" transform="translate(50, 70)" clip-path="url('#clip9602c7xyplot')"><g class="scatterlayer mlayer"><g class="trace scatter trace9646e6" style="stroke-miterlimit: 2;"><g class="fills"><g><path class="js-fill" d="M667.31,380L-261.54,380L-261.54,374.44L-251.92,374.12L-250,374.93L-230.77,376.73L-228.85,376.57L-219.23,377.71L-217.31,377.71L-203.85,379.35L-201.92,378.37L-196.15,376.24L-194.23,376.57L-165.38,376.4L-163.46,376.89L-151.92,378.86L-150,378.53L-132.69,370.85L-130.77,370.52L-126.92,368.4L-125,367.09L-123.08,368.56L-121.15,365.94L-115.38,362.51L-113.46,359.73L-109.62,351.23L-107.69,350.74L-100,350.58L-98.08,353.85L-86.54,311.35L-84.62,304.82L-82.69,301.38L-80.77,310.37L-78.85,312.99L-76.92,320.02L-73.08,321.82L-71.15,328.19L-69.23,337.34L-67.31,339.3L-61.54,335.54L-59.62,340.77L-55.77,336.85L-53.85,336.69L-51.92,335.87L-50,337.18L-48.08,334.73L-46.15,326.72L-44.23,322.47L-42.31,321.32L-40.38,320.02L-38.46,320.83L-36.54,320.02L-34.62,325.57L-32.69,327.54L-30.77,327.05L-23.08,320.67L-21.15,316.26L-19.23,316.75L-17.31,315.77L-15.38,313.81L-13.46,315.44L-7.69,320.51L-5.77,316.09L-3.85,322.31L-1.92,324.27L1.92,315.6L3.85,315.28L5.77,311.35L7.69,314.3L11.54,295.5L13.46,293.05L15.38,289.78L17.31,288.64L21.15,273.27L23.08,274.42L25,272.29L26.92,266.41L30.77,263.14L32.69,258.56L34.62,254.48L36.54,245.32L42.31,203.65L44.23,202.5L50,149.71L51.92,142.68L53.85,138.76L55.77,131.08L57.69,127.81L59.62,117.35L61.54,108.03L63.46,108.2L65.38,105.58L67.31,106.89L73.08,122.91L75,142.03L76.92,169L78.85,179.62L82.69,203.32L84.62,201.85L86.54,222.77L88.46,234.54L90.38,217.54L92.31,235.68L94.23,249.25L96.15,253.5L98.08,255.95L100,269.35L101.92,274.58L103.85,284.88L107.69,292.07L109.62,291.91L111.54,289.13L113.46,284.39L115.38,288.15L117.31,286.68L119.23,284.22L121.15,276.71L123.08,271.8L125,270L128.85,257.42L130.77,260.52L134.62,251.21L136.54,254.64L140.38,252.52L142.31,244.83L144.23,243.36L146.15,238.3L148.08,245.16L150,243.36L151.92,246.47L153.85,248.1L155.77,253.99L157.69,250.72L159.62,258.89L161.54,274.09L163.46,272.46L165.38,274.58L167.31,276.54L169.23,282.59L171.15,287.66L173.08,287.33L178.85,282.26L180.77,277.52L182.69,270.49L184.62,274.74L186.54,273.6L188.46,269.02L190.38,279.97L192.31,281.94L194.23,297.46L196.15,295.01L198.08,270L200,257.91L203.85,219.01L205.77,212.15L207.69,183.87L209.62,178.15L211.54,182.24L213.46,179.95L215.38,177.99L217.31,177.5L219.23,180.44L221.15,177.99L226.92,199.23L228.85,199.4L230.77,201.36L232.69,200.87L234.62,204.95L236.54,205.77L238.46,206.43L240.38,213.45L244.23,227.67L246.15,228L250,235.68L251.92,244.18L253.85,244.83L255.77,251.05L257.69,251.86L259.62,253.66L261.54,266.25L263.46,268.21L265.38,267.72L267.31,268.37L271.15,262.49L273.08,262L278.85,245.16L280.77,237.15L284.62,243.2L286.54,244.34L288.46,248.59L290.38,246.8L292.31,250.88L294.23,259.05L298.08,246.47L300,245.32L301.92,244.02L303.85,247.12L307.69,230.94L309.62,228.98L311.54,231.27L313.46,229.14L317.31,214.92L319.23,214.11L321.15,209.86L323.08,202.5L325,196.95L326.92,196.78L328.85,176.84L330.77,165.4L332.69,142.19L334.62,131.9L336.54,124.05L338.46,111.14L340.38,111.14L342.31,107.87L344.23,98.72L346.15,93.98L348.08,87.93L350,72.4L353.85,63.09L355.77,99.37L357.69,85.81L359.62,79.76L361.54,68.97L363.46,67.17L365.38,57.53L367.31,53.94L369.23,2.45L371.15,0L375,4.41L376.92,4.25L380.77,15.53L382.69,10.95L386.54,34.49L388.46,37.43L392.31,59.82L394.23,58.84L396.15,76.16L398.08,85.81L400,92.83L401.92,107.38L403.85,119.97L405.77,142.36L407.69,144.65L409.62,156.25L411.54,169.49L413.46,177.33L415.38,182.24L417.31,176.84L419.23,180.28L421.15,180.11L423.08,186.81L425,183.71L426.92,185.18L428.85,210.84L430.77,218.03L432.69,202.01L434.62,203.81L436.54,207.9L438.46,211.17L440.38,217.87L442.31,204.95L444.23,214.11L446.15,220.97L448.08,223.42L450,252.84L451.92,261.83L453.85,268.53L455.77,271.31L459.62,285.86L461.54,289.13L463.46,278.18L465.38,286.51L469.23,300.89L471.15,304.16L473.08,310.21L475,310.86L476.92,319.53L478.85,324.76L482.69,337.51L484.62,345.02L486.54,347.64L488.46,348.95L494.23,360.71L496.15,363.33L498.08,366.6L500,367.58L501.92,368.23L503.85,369.7L513.46,374.93L515.38,374.77L519.23,374.77L521.15,372.65L528.85,367.74L530.77,367.74L532.69,366.43L534.62,366.43L538.46,367.58L540.38,366.43L542.31,367.74L544.23,365.29L546.15,362.84L548.08,361.69L551.92,352.71L553.85,350.42L559.62,340.77L561.54,335.87L563.46,335.38L565.38,332.6L567.31,331.62L569.23,331.78L571.15,327.37L573.08,325.9L575,324.76L576.92,314.79L578.85,310.7L580.77,310.37L582.69,310.05L584.62,305.47L586.54,301.22L588.46,299.26L590.38,303.18L592.31,299.59L596.15,295.01L598.08,295.01L600,295.34L601.92,293.05L603.85,288.64L605.77,290.27L607.69,286.18L609.62,285.37L611.54,284.88L613.46,280.3L615.38,278.18L617.31,277.2L623.08,284.55L625,285.53L628.85,296.32L630.77,302.04L632.69,303.18L634.62,306.12L636.54,306.45L638.46,307.92L640.38,309.72L642.31,313.64L646.15,319.69L648.08,319.69L650,321.82L651.92,325.9L655.77,325.57L657.69,327.05L659.62,327.7L661.54,326.39L663.46,326.39L665.38,329.82L667.31,333.91" style="fill: rgb(8, 115, 191); fill-opacity: 0.2; stroke-width: 0;"/></g></g><g class="errorbars"/><g class="lines"><path class="js-line" d="M-261.54,374.44L-251.92,374.12L-250,374.93L-230.77,376.73L-228.85,376.57L-219.23,377.71L-217.31,377.71L-203.85,379.35L-201.92,378.37L-196.15,376.24L-194.23,376.57L-165.38,376.4L-163.46,376.89L-151.92,378.86L-150,378.53L-132.69,370.85L-130.77,370.52L-126.92,368.4L-125,367.09L-123.08,368.56L-121.15,365.94L-115.38,362.51L-113.46,359.73L-109.62,351.23L-107.69,350.74L-100,350.58L-98.08,353.85L-86.54,311.35L-84.62,304.82L-82.69,301.38L-80.77,310.37L-78.85,312.99L-76.92,320.02L-73.08,321.82L-71.15,328.19L-69.23,337.34L-67.31,339.3L-61.54,335.54L-59.62,340.77L-55.77,336.85L-53.85,336.69L-51.92,335.87L-50,337.18L-48.08,334.73L-46.15,326.72L-44.23,322.47L-42.31,321.32L-40.38,320.02L-38.46,320.83L-36.54,320.02L-34.62,325.57L-32.69,327.54L-30.77,327.05L-23.08,320.67L-21.15,316.26L-19.23,316.75L-17.31,315.77L-15.38,313.81L-13.46,315.44L-7.69,320.51L-5.77,316.09L-3.85,322.31L-1.92,324.27L1.92,315.6L3.85,315.28L5.77,311.35L7.69,314.3L11.54,295.5L13.46,293.05L15.38,289.78L17.31,288.64L21.15,273.27L23.08,274.42L25,272.29L26.92,266.41L30.77,263.14L32.69,258.56L34.62,254.48L36.54,245.32L42.31,203.65L44.23,202.5L50,149.71L51.92,142.68L53.85,138.76L55.77,131.08L57.69,127.81L59.62,117.35L61.54,108.03L63.46,108.2L65.38,105.58L67.31,106.89L73.08,122.91L75,142.03L76.92,169L78.85,179.62L82.69,203.32L84.62,201.85L86.54,222.77L88.46,234.54L90.38,217.54L92.31,235.68L94.23,249.25L96.15,253.5L98.08,255.95L100,269.35L101.92,274.58L103.85,284.88L107.69,292.07L109.62,291.91L111.54,289.13L113.46,284.39L115.38,288.15L117.31,286.68L119.23,284.22L121.15,276.71L123.08,271.8L125,270L128.85,257.42L130.77,260.52L134.62,251.21L136.54,254.64L140.38,252.52L142.31,244.83L144.23,243.36L146.15,238.3L148.08,245.16L150,243.36L151.92,246.47L153.85,248.1L155.77,253.99L157.69,250.72L159.62,258.89L161.54,274.09L163.46,272.46L165.38,274.58L167.31,276.54L169.23,282.59L171.15,287.66L173.08,287.33L178.85,282.26L180.77,277.52L182.69,270.49L184.62,274.74L186.54,273.6L188.46,269.02L190.38,279.97L192.31,281.94L194.23,297.46L196.15,295.01L198.08,270L200,257.91L203.85,219.01L205.77,212.15L207.69,183.87L209.62,178.15L211.54,182.24L213.46,179.95L215.38,177.99L217.31,177.5L219.23,180.44L221.15,177.99L226.92,199.23L228.85,199.4L230.77,201.36L232.69,200.87L234.62,204.95L236.54,205.77L238.46,206.43L240.38,213.45L244.23,227.67L246.15,228L250,235.68L251.92,244.18L253.85,244.83L255.77,251.05L257.69,251.86L259.62,253.66L261.54,266.25L263.46,268.21L265.38,267.72L267.31,268.37L271.15,262.49L273.08,262L278.85,245.16L280.77,237.15L284.62,243.2L286.54,244.34L288.46,248.59L290.38,246.8L292.31,250.88L294.23,259.05L298.08,246.47L300,245.32L301.92,244.02L303.85,247.12L307.69,230.94L309.62,228.98L311.54,231.27L313.46,229.14L317.31,214.92L319.23,214.11L321.15,209.86L323.08,202.5L325,196.95L326.92,196.78L328.85,176.84L330.77,165.4L332.69,142.19L334.62,131.9L336.54,124.05L338.46,111.14L340.38,111.14L342.31,107.87L344.23,98.72L346.15,93.98L348.08,87.93L350,72.4L353.85,63.09L355.77,99.37L357.69,85.81L359.62,79.76L361.54,68.97L363.46,67.17L365.38,57.53L367.31,53.94L369.23,2.45L371.15,0L375,4.41L376.92,4.25L380.77,15.53L382.69,10.95L386.54,34.49L388.46,37.43L392.31,59.82L394.23,58.84L396.15,76.16L398.08,85.81L400,92.83L401.92,107.38L403.85,119.97L405.77,142.36L407.69,144.65L409.62,156.25L411.54,169.49L413.46,177.33L415.38,182.24L417.31,176.84L419.23,180.28L421.15,180.11L423.08,186.81L425,183.71L426.92,185.18L428.85,210.84L430.77,218.03L432.69,202.01L434.62,203.81L436.54,207.9L438.46,211.17L440.38,217.87L442.31,204.95L444.23,214.11L446.15,220.97L448.08,223.42L450,252.84L451.92,261.83L453.85,268.53L455.77,271.31L459.62,285.86L461.54,289.13L463.46,278.18L465.38,286.51L469.23,300.89L471.15,304.16L473.08,310.21L475,310.86L476.92,319.53L478.85,324.76L482.69,337.51L484.62,345.02L486.54,347.64L488.46,348.95L494.23,360.71L496.15,363.33L498.08,366.6L500,367.58L501.92,368.23L503.85,369.7L513.46,374.93L515.38,374.77L519.23,374.77L521.15,372.65L528.85,367.74L530.77,367.74L532.69,366.43L534.62,366.43L538.46,367.58L540.38,366.43L542.31,367.74L544.23,365.29L546.15,362.84L548.08,361.69L551.92,352.71L553.85,350.42L559.62,340.77L561.54,335.87L563.46,335.38L565.38,332.6L567.31,331.62L569.23,331.78L571.15,327.37L573.08,325.9L575,324.76L576.92,314.79L578.85,310.7L580.77,310.37L582.69,310.05L584.62,305.47L586.54,301.22L588.46,299.26L590.38,303.18L592.31,299.59L596.15,295.01L598.08,295.01L600,295.34L601.92,293.05L603.85,288.64L605.77,290.27L607.69,286.18L609.62,285.37L611.54,284.88L613.46,280.3L615.38,278.18L617.31,277.2L623.08,284.55L625,285.53L628.85,296.32L630.77,302.04L632.69,303.18L634.62,306.12L636.54,306.45L638.46,307.92L640.38,309.72L642.31,313.64L646.15,319.69L648.08,319.69L650,321.82L651.92,325.9L655.77,325.57L657.69,327.05L659.62,327.7L661.54,326.39L663.46,326.39L665.38,329.82L667.31,333.91" style="vector-effect: non-scaling-stroke; fill: none; stroke: rgb(8, 115, 191); stroke-opacity: 1; stroke-width: 0.5px; opacity: 1;"/></g><g class="points"/><g class="text"/></g><g class="trace scatter trace028128" style="stroke-miterlimit: 2;"><g class="fills"><g><path class="js-fill" d="M686.54,380L667.31,380L667.31,333.91L669.23,334.73L671.15,337.02L673.08,339.96L675,345.02L676.92,345.51L678.85,344.04L680.77,341.43L682.69,342.57L684.62,341.43L686.54,339.14" style="fill: rgb(8, 115, 191); fill-opacity: 0.4; stroke-width: 0;"/></g></g><g class="errorbars"/><g class="lines"><path class="js-line" d="M667.31,333.91L669.23,334.73L671.15,337.02L673.08,339.96L675,345.02L676.92,345.51L678.85,344.04L680.77,341.43L682.69,342.57L684.62,341.43L686.54,339.14" style="vector-effect: non-scaling-stroke; fill: none; stroke: rgb(8, 115, 191); stroke-opacity: 1; stroke-width: 2px; opacity: 1;"/></g><g class="points"/><g class="text"/></g><g class="trace scatter tracebddf5e" style="stroke-miterlimit: 2; opacity: 1;"><g class="fills"/><g class="errorbars"/><g class="lines"/><g class="points"><path class="point" transform="translate(686.54,339.14)" d="M15,0A15,15 0 1,1 0,-15A15,15 0 0,1 15,0Z" style="opacity: 1; stroke-width: 0px; fill: rgb(8, 115, 191); fill-opacity: 1;"/></g><g class="text"/></g></g></g><g class="overplot"/><path class="xlines-above crisp" style="fill: none; stroke-width: 1px; stroke: rgb(0, 0, 0); stroke-opacity: 0;" d=""/><path class="ylines-above crisp" style="fill: none;" d="M0,0"/><g class="overlines-above"/><g class="xaxislayer-above"><path class="xtick ticks crisp" d="M0,450v-5" transform="translate(113.46000000000001,0)" style="stroke: rgb(68, 68, 68); stroke-opacity: 1; stroke-width: 1px;"/><path class="xtick ticks crisp" d="M0,450v-5" transform="translate(230.77,0)" style="stroke: rgb(68, 68, 68); stroke-opacity: 1; stroke-width: 1px;"/><path class="xtick ticks crisp" d="M0,450v-5" transform="translate(344.23,0)" style="stroke: rgb(68, 68, 68); stroke-opacity: 1; stroke-width: 1px;"/><path class="xtick ticks crisp" d="M0,450v-5" transform="translate(461.54,0)" style="stroke: rgb(68, 68, 68); stroke-opacity: 1; stroke-width: 1px;"/><path class="xtick ticks crisp" d="M0,450v-5" transform="translate(578.85,0)" style="stroke: rgb(68, 68, 68); stroke-opacity: 1; stroke-width: 1px;"/><path class="xtick ticks crisp" d="M0,450v-5" transform="translate(698.08,0)" style="stroke: rgb(68, 68, 68); stroke-opacity: 1; stroke-width: 1px;"/><g class="xtick"><text text-anchor="middle" x="0" y="469" transform="translate(113.46000000000001,0)" style="font-family: 'Open Sans', verdana, arial, sans-serif; font-size: 18px; fill: rgb(42, 63, 95); fill-opacity: 1; white-space: pre;">01/11</text></g><g class="xtick"><text text-anchor="middle" x="0" y="469" transform="translate(230.77,0)" style="font-family: 'Open Sans', verdana, arial, sans-serif; font-size: 18px; fill: rgb(42, 63, 95); fill-opacity: 1; white-space: pre;">01/01</text></g><g class="xtick"><text text-anchor="middle" x="0" y="469" transform="translate(344.23,0)" style="font-family: 'Open Sans', verdana, arial, sans-serif; font-size: 18px; fill: rgb(42, 63, 95); fill-opacity: 1; white-space: pre;">01/03</text></g><g class="xtick"><text text-anchor="middle" x="0" y="469" transform="translate(461.54,0)" style="font-family: 'Open Sans', verdana, arial, sans-serif; font-size: 18px; fill: rgb(42, 63, 95); fill-opacity: 1; white-space: pre;">01/05</text></g><g class="xtick"><text text-anchor="middle" x="0" y="469" transform="translate(578.85,0)" style="font-family: 'Open Sans', verdana, arial, sans-serif; font-size: 18px; fill: rgb(42, 63, 95); fill-opacity: 1; white-space: pre;">01/07</text></g><g class="xtick"><text text-anchor="middle" x="0" y="469" transform="translate(698.08,0)" style="font-family: 'Open Sans', verdana, arial, sans-serif; font-size: 18px; fill: rgb(42, 63, 95); fill-opacity: 1; white-space: pre;">01/09</text></g></g><g class="yaxislayer-above"/><g class="overaxes-above"/></g></g><g class="polarlayer"/><g class="ternarylayer"/><g class="geolayer"/><g class="funnelarealayer"/><g class="pielayer"/><g class="treemaplayer"/><g class="sunburstlayer"/><g class="glimages"/><defs id="topdefs-9602c7"><g class="clips"/></defs><g class="layer-above"><g class="imagelayer"/><g class="shapelayer"><path data-index="0" fill-rule="evenodd" d="M-1030.77,404.22L375,404.22" clip-path="url('#clip9602c7xy')" style="opacity: 1; stroke: rgb(255, 0, 0); stroke-opacity: 1; fill: rgb(0, 0, 0); fill-opacity: 0; stroke-dasharray: 3px, 3px; stroke-width: 1.5px;"/></g></g><g class="infolayer"><g class="g-gtitle"><text class="gtitle" x="375" y="25" text-anchor="middle" dy="0.7em" style="font-family: 'Open Sans', verdana, arial, sans-serif; font-size: 50px; fill: rgb(42, 63, 95); opacity: 1; font-weight: normal; white-space: pre;"><tspan style="font-weight:bold">Sarthe (72)</tspan></text></g><g class="g-xtitle"/><g class="annotation" data-index="0" style="opacity: 1;"><g class="annotation-text-g" transform="rotate(0,694.54,349.14)"><g class="cursor-pointer" transform="translate(651, 313)"><rect class="bg" x="0.5" y="0.5" width="86" height="71" style="stroke-width: 1px; stroke: rgb(0, 0, 0); stroke-opacity: 0; fill: rgb(255, 255, 255); fill-opacity: 0.6;"/><text class="annotation-text" text-anchor="middle" x="43.53125" y="55.5" style="font-family: 'Open Sans', verdana, arial, sans-serif; font-size: 50px; fill: rgb(8, 115, 191); fill-opacity: 1; white-space: pre;"> <tspan style="font-weight:bold">44 </tspan></text></g></g><g class="annotation-arrow-g" style="opacity: 1;"><path d="M722.9399999999999,384.64L734.54,399.14" style="stroke-width: 1px; stroke: rgb(8, 115, 191); stroke-opacity: 1; stroke-dasharray: 0px, 0px, 18.569px, 18.569px;"/></g></g></g></svg>