<svg class="main-svg" xmlns="http://www.w3.org/2000/svg" xmlns:xlink="http://www.w3.org/1999/xlink" width="1125" height="750" style="" viewBox="0 0 750 500"><rect x="0" y="0" width="750" height="500" style="fill: rgb(0, 0, 0); fill-opacity: 0;"/><defs id="defs-7e4dae"><g class="clips"><clipPath id="clip7e4daexyplot" class="plotclip"><rect width="700" height="380"/></clipPath><clipPath class="axesclip" id="clip7e4daex"><rect x="50" y="0" width="700" height="500"/></clipPath><clipPath class="axesclip" id="clip7e4daey"><rect x="0" y="70" width="750" height="380"/></clipPath><clipPath class="axesclip" id="clip7e4daexy"><rect x="50" y="70" width="700" height="380"/></clipPath></g><g class="gradients"/></defs><g class="bglayer"><rect class="bg" x="50" y="70" width="700" height="380" style="fill: rgb(0, 0, 0); fill-opacity: 0; stroke-width: 0;"/></g><g class="layer-below"><g class="imagelayer"/><g class="shapelayer"/></g><g class="cartesianlayer"><g class="subplot xy"><g class="layer-subplot"><g class="shapelayer"/><g class="imagelayer"/></g><g class="gridlayer"><g class="x"><path class="xgrid crisp" transform="translate(109.53999999999999,0)" d="M0,70v380" style="stroke: rgb(255, 255, 255); stroke-opacity: 1; stroke-width: 1px;"/><path class="xgrid crisp" transform="translate(219.59,0)" d="M0,70v380" style="stroke: rgb(255, 255, 255); stroke-opacity: 1; stroke-width: 1px;"/><path class="xgrid crisp" transform="translate(326.03,0)" d="M0,70v380" style="stroke: rgb(255, 255, 255); stroke-opacity: 1; stroke-width: 1px;"/><path class="xgrid crisp" transform="translate(436.08,0)" d="M0,70v380" style="stroke: rgb(255, 255, 255); stroke-opacity: 1; stroke-width: 1px;"/><path class="xgrid crisp" transform="translate(546.13,0)" d="M0,70v380" style="stroke: rgb(255, 255, 255); stroke-opacity: 1; stroke-width: 1px;"/><path class="xgrid crisp" transform="translate(657.99,0)" d="M0,70v380" style="stroke: rgb(255, 255, 255); stroke-opacity: 1; stroke-width: 1px;"/></g><g class="y"/></g><g class="zerolinelayer"/><path class="xlines-below"/><path class="ylines-below"/><g class="overlines-below"/><g class="xaxislayer-below"/><g class="yaxislayer-below"/><g class="overaxes-below"/><g class="plot" transform="translate(50, 70)" clip-path="url('#clip7e4daexyplot')"><g class="scatterlayer mlayer"><g class="trace scatter trace20460b" style="stroke-miterlimit: 2;"><g class="fills"><g><path class="js-fill" d="M669.33,380L-245.36,380L-245.36,369.86L-241.75,370.08L-239.95,376.66L-227.32,377.95L-225.52,378.06L-209.28,378.71L-207.47,379.03L-162.37,379.35L-160.57,379.35L-149.74,377.09L-147.94,376.87L-142.53,374.82L-140.72,374.72L-133.51,374.82L-131.7,373.42L-117.27,357.57L-115.46,357.57L-111.86,358.65L-110.05,358.65L-102.84,356.92L-101.03,359.51L-95.62,362.21L-93.81,364.9L-90.21,366.52L-88.4,364.69L-84.79,363.83L-82.99,362.1L-75.77,350.99L-73.97,348.51L-72.16,349.38L-70.36,348.41L-68.56,348.3L-66.75,345.39L-59.54,340.53L-57.73,336.44L-54.12,326.84L-52.32,315.09L-48.71,305.81L-46.91,304.95L-43.3,285.75L-41.49,278.42L-36.08,269.69L-34.28,268.5L-32.47,272.06L-30.67,268.18L-27.06,255.45L-25.26,244.99L-23.45,240.79L-21.65,240.47L-18.04,224.83L-16.24,226.34L-12.63,239.82L-10.82,242.08L-9.02,244.02L-7.22,248.66L-5.41,255.56L-3.61,259.12L-1.8,257.5L0,254.05L1.8,250.93L3.61,252.54L5.41,246.83L7.22,246.72L10.82,245.86L12.63,244.24L14.43,236.91L16.24,234.53L18.04,223.97L19.85,220.95L25.26,193.45L27.06,191.19L28.87,189.25L30.67,181.27L32.47,152.69L34.28,136.73L36.08,121.63L37.89,94.78L39.69,81.84L41.49,80.33L43.3,51.65L45.1,38.06L50.52,0L52.32,6.47L55.93,6.69L57.73,0.22L59.54,0.86L61.34,18.98L63.14,38.06L64.95,37.2L66.75,39.57L68.56,63.73L70.36,96.19L72.16,147.19L73.97,154.74L75.77,174.9L77.58,190.22L79.38,188.38L82.99,241.87L84.79,236.69L88.4,280.47L90.21,288.99L92.01,293.52L93.81,306.14L95.62,308.62L97.42,308.83L99.23,314.87L101.03,318L104.64,317.35L106.44,313.47L108.25,311.74L110.05,311.85L111.86,311.1L113.66,308.08L115.46,306.78L117.27,308.29L119.07,314.33L120.88,316.38L122.68,312.39L124.48,311.42L126.29,315.09L128.09,314.22L129.9,312.17L131.7,301.39L137.11,294.81L138.92,292.33L140.72,295.35L142.53,296.43L144.33,304.52L146.13,304.73L147.94,309.48L149.74,309.48L151.55,321.77L153.35,317.67L155.15,317.24L156.96,310.34L160.57,303.65L162.37,299.88L167.78,297.08L169.59,291.47L173.2,271.2L175,265.05L176.8,246.94L178.61,239.82L180.41,238.63L182.22,226.45L184.02,225.05L185.82,219.65L187.63,215.02L189.43,204.67L191.24,209.73L193.04,209.73L194.85,213.4L196.65,214.59L198.45,213.62L200.26,210.06L202.06,214.37L203.87,212.43L205.67,213.83L207.47,213.94L211.08,219.87L212.89,214.26L214.69,204.88L216.49,200.35L218.3,198.73L220.1,187.52L223.71,170.59L225.52,173.5L227.32,172.1L229.12,173.72L230.93,175.12L232.73,183.42L234.54,184.5L236.34,195.82L239.95,214.37L241.75,215.77L243.56,216.63L245.36,219.55L247.16,227.74L248.97,223.32L250.77,216.42L252.58,213.51L254.38,214.8L256.19,213.29L257.99,211.03L259.79,212L261.6,214.69L263.4,219.44L265.21,222.24L267.01,219.55L268.81,220.19L270.62,222.89L276.03,213.94L277.84,209.63L281.44,202.94L283.25,202.29L288.66,185.69L290.46,182.88L292.27,181.27L294.07,183.21L297.68,159.81L299.48,152.47L303.09,127.89L304.9,128L306.7,124.98L308.51,115.49L312.11,99.21L313.92,97.05L317.53,80.44L319.33,82.71L322.94,68.15L324.74,62.97L326.55,57.8L328.35,55.53L330.15,48.96L331.96,47.34L333.76,100.18L335.57,83.14L337.37,80.01L339.18,80.23L342.78,92.84L344.59,92.84L346.39,36.45L348.2,53.05L351.8,68.69L353.61,72.68L355.41,63.62L357.22,63.41L360.82,88.75L362.63,93.27L366.24,103.2L368.04,113.12L369.85,112.15L371.65,119.05L373.45,126.92L375.26,144.49L378.87,161.42L380.67,181.05L382.47,184.5L384.28,194.74L386.08,202.29L387.89,202.08L391.49,203.26L393.3,203.16L395.1,202.4L396.91,208.01L398.71,207.47L400.52,207.79L402.32,232.92L404.12,234.97L405.93,228.17L407.73,228.5L411.34,233.78L413.14,239.17L414.95,223.97L416.75,234.21L420.36,235.4L422.16,261.6L423.97,262.36L425.77,265.16L429.38,269.15L431.19,274.22L432.99,276.7L434.79,265.27L436.6,280.26L438.4,288.56L442.01,306.67L443.81,308.72L445.62,309.26L447.42,316.81L456.44,335.36L458.25,336L465.46,360.05L467.27,364.58L469.07,365.66L470.88,365.77L481.7,363.07L483.51,362.1L487.11,361.78L488.92,358.33L490.72,355.52L492.53,354.12L494.33,351.32L496.13,351.96L497.94,345.82L499.74,344.09L501.55,340.96L503.35,339.67L505.15,336.54L506.96,336.87L510.57,333.63L512.37,329.21L514.18,334.6L515.98,325.87L519.59,311.96L521.39,311.1L525,290.07L526.8,270.77L530.41,256.64L532.22,255.56L534.02,254.48L535.82,243.7L537.63,241.22L539.43,241.98L544.85,247.04L546.65,247.58L548.45,253.41L550.26,250.71L553.87,248.01L555.67,241.87L557.47,235.61L559.28,232.38L566.49,196.15L568.3,193.77L570.1,193.88L571.91,195.28L573.71,190.11L575.52,190.86L579.12,202.4L580.93,203.37L582.73,200.68L584.54,200.78L588.14,214.37L589.95,212.43L593.56,223.21L595.36,223.86L598.97,228.5L600.77,228.82L604.38,246.07L606.19,250.06L607.99,254.27L609.79,253.51L613.4,272.92L615.21,273.68L617.01,271.52L618.81,272.17L620.62,276.8L622.42,278.31L627.84,284.46L629.64,291.25L631.44,296L633.25,296.75L635.05,298.16L636.86,302.25L638.66,305.27L640.46,310.66L642.27,313.47L644.07,314.87L645.88,318.32L647.68,318.32L649.48,325.01L651.29,327.49L654.9,329.43L656.7,332.66L660.31,334.06L662.11,331.58L665.72,331.58L667.53,328.24L669.33,327.05" style="fill: rgb(8, 115, 191); fill-opacity: 0.2; stroke-width: 0;"/></g></g><g class="errorbars"/><g class="lines"><path class="js-line" d="M-245.36,369.86L-241.75,370.08L-239.95,376.66L-227.32,377.95L-225.52,378.06L-209.28,378.71L-207.47,379.03L-162.37,379.35L-160.57,379.35L-149.74,377.09L-147.94,376.87L-142.53,374.82L-140.72,374.72L-133.51,374.82L-131.7,373.42L-117.27,357.57L-115.46,357.57L-111.86,358.65L-110.05,358.65L-102.84,356.92L-101.03,359.51L-95.62,362.21L-93.81,364.9L-90.21,366.52L-88.4,364.69L-84.79,363.83L-82.99,362.1L-75.77,350.99L-73.97,348.51L-72.16,349.38L-70.36,348.41L-68.56,348.3L-66.75,345.39L-59.54,340.53L-57.73,336.44L-54.12,326.84L-52.32,315.09L-48.71,305.81L-46.91,304.95L-43.3,285.75L-41.49,278.42L-36.08,269.69L-34.28,268.5L-32.47,272.06L-30.67,268.18L-27.06,255.45L-25.26,244.99L-23.45,240.79L-21.65,240.47L-18.04,224.83L-16.24,226.34L-12.63,239.82L-10.82,242.08L-9.02,244.02L-7.22,248.66L-5.41,255.56L-3.61,259.12L-1.8,257.5L0,254.05L1.8,250.93L3.61,252.54L5.41,246.83L7.22,246.72L10.82,245.86L12.63,244.24L14.43,236.91L16.24,234.53L18.04,223.97L19.85,220.95L25.26,193.45L27.06,191.19L28.87,189.25L30.67,181.27L32.47,152.69L34.28,136.73L36.08,121.63L37.89,94.78L39.69,81.84L41.49,80.33L43.3,51.65L45.1,38.06L50.52,0L52.32,6.47L55.93,6.69L57.73,0.22L59.54,0.86L61.34,18.98L63.14,38.06L64.95,37.2L66.75,39.57L68.56,63.73L70.36,96.19L72.16,147.19L73.97,154.74L75.77,174.9L77.58,190.22L79.38,188.38L82.99,241.87L84.79,236.69L88.4,280.47L90.21,288.99L92.01,293.52L93.81,306.14L95.62,308.62L97.42,308.83L99.23,314.87L101.03,318L104.64,317.35L106.44,313.47L108.25,311.74L110.05,311.85L111.86,311.1L113.66,308.08L115.46,306.78L117.27,308.29L119.07,314.33L120.88,316.38L122.68,312.39L124.48,311.42L126.29,315.09L128.09,314.22L129.9,312.17L131.7,301.39L137.11,294.81L138.92,292.33L140.72,295.35L142.53,296.43L144.33,304.52L146.13,304.73L147.94,309.48L149.74,309.48L151.55,321.77L153.35,317.67L155.15,317.24L156.96,310.34L160.57,303.65L162.37,299.88L167.78,297.08L169.59,291.47L173.2,271.2L175,265.05L176.8,246.94L178.61,239.82L180.41,238.63L182.22,226.45L184.02,225.05L185.82,219.65L187.63,215.02L189.43,204.67L191.24,209.73L193.04,209.73L194.85,213.4L196.65,214.59L198.45,213.62L200.26,210.06L202.06,214.37L203.87,212.43L205.67,213.83L207.47,213.94L211.08,219.87L212.89,214.26L214.69,204.88L216.49,200.35L218.3,198.73L220.1,187.52L223.71,170.59L225.52,173.5L227.32,172.1L229.12,173.72L230.93,175.12L232.73,183.42L234.54,184.5L236.34,195.82L239.95,214.37L241.75,215.77L243.56,216.63L245.36,219.55L247.16,227.74L248.97,223.32L250.77,216.42L252.58,213.51L254.38,214.8L256.19,213.29L257.99,211.03L259.79,212L261.6,214.69L263.4,219.44L265.21,222.24L267.01,219.55L268.81,220.19L270.62,222.89L276.03,213.94L277.84,209.63L281.44,202.94L283.25,202.29L288.66,185.69L290.46,182.88L292.27,181.27L294.07,183.21L297.68,159.81L299.48,152.47L303.09,127.89L304.9,128L306.7,124.98L308.51,115.49L312.11,99.21L313.92,97.05L317.53,80.44L319.33,82.71L322.94,68.15L324.74,62.97L326.55,57.8L328.35,55.53L330.15,48.96L331.96,47.34L333.76,100.18L335.57,83.14L337.37,80.01L339.18,80.23L342.78,92.84L344.59,92.84L346.39,36.45L348.2,53.05L351.8,68.69L353.61,72.68L355.41,63.62L357.22,63.41L360.82,88.75L362.63,93.27L366.24,103.2L368.04,113.12L369.85,112.15L371.65,119.05L373.45,126.92L375.26,144.49L378.87,161.42L380.67,181.05L382.47,184.5L384.28,194.74L386.08,202.29L387.89,202.08L391.49,203.26L393.3,203.16L395.1,202.4L396.91,208.01L398.71,207.47L400.52,207.79L402.32,232.92L404.12,234.97L405.93,228.17L407.73,228.5L411.34,233.78L413.14,239.17L414.95,223.97L416.75,234.21L420.36,235.4L422.16,261.6L423.97,262.36L425.77,265.16L429.38,269.15L431.19,274.22L432.99,276.7L434.79,265.27L436.6,280.26L438.4,288.56L442.01,306.67L443.81,308.72L445.62,309.26L447.42,316.81L456.44,335.36L458.25,336L465.46,360.05L467.27,364.58L469.07,365.66L470.88,365.77L481.7,363.07L483.51,362.1L487.11,361.78L488.92,358.33L490.72,355.52L492.53,354.12L494.33,351.32L496.13,351.96L497.94,345.82L499.74,344.09L501.55,340.96L503.35,339.67L505.15,336.54L506.96,336.87L510.57,333.63L512.37,329.21L514.18,334.6L515.98,325.87L519.59,311.96L521.39,311.1L525,290.07L526.8,270.77L530.41,256.64L532.22,255.56L534.02,254.48L535.82,243.7L537.63,241.22L539.43,241.98L544.85,247.04L546.65,247.58L548.45,253.41L550.26,250.71L553.87,248.01L555.67,241.87L557.47,235.61L559.28,232.38L566.49,196.15L568.3,193.77L570.1,193.88L571.91,195.28L573.71,190.11L575.52,190.86L579.12,202.4L580.93,203.37L582.73,200.68L584.54,200.78L588.14,214.37L589.95,212.43L593.56,223.21L595.36,223.86L598.97,228.5L600.77,228.82L604.38,246.07L606.19,250.06L607.99,254.27L609.79,253.51L613.4,272.92L615.21,273.68L617.01,271.52L618.81,272.17L620.62,276.8L622.42,278.31L627.84,284.46L629.64,291.25L631.44,296L633.25,296.75L635.05,298.16L636.86,302.25L638.66,305.27L640.46,310.66L642.27,313.47L644.07,314.87L645.88,318.32L647.68,318.32L649.48,325.01L651.29,327.49L654.9,329.43L656.7,332.66L660.31,334.06L662.11,331.58L665.72,331.58L667.53,328.24L669.33,327.05" style="vector-effect: non-scaling-stroke; fill: none; stroke: rgb(8, 115, 191); stroke-opacity: 1; stroke-width: 0.5px; opacity: 1;"/></g><g class="points"/><g class="text"/></g><g class="trace scatter trace206e06" style="stroke-miterlimit: 2;"><g class="fills"><g><path class="js-fill" d="M687.37,380L669.33,380L669.33,327.05L672.94,325.54L674.74,326.95L676.55,325.44L678.35,327.81L680.15,329.1L681.96,327.16L683.76,324.57L685.57,325.44L687.37,325.22" style="fill: rgb(8, 115, 191); fill-opacity: 0.4; stroke-width: 0;"/></g></g><g class="errorbars"/><g class="lines"><path class="js-line" d="M669.33,327.05L672.94,325.54L674.74,326.95L676.55,325.44L678.35,327.81L680.15,329.1L681.96,327.16L683.76,324.57L685.57,325.44L687.37,325.22" style="vector-effect: non-scaling-stroke; fill: none; stroke: rgb(8, 115, 191); stroke-opacity: 1; stroke-width: 2px; opacity: 1;"/></g><g class="points"/><g class="text"/></g><g class="trace scatter tracee78624" style="stroke-miterlimit: 2; opacity: 1;"><g class="fills"/><g class="errorbars"/><g class="lines"/><g class="points"><path class="point" transform="translate(687.37,325.22)" d="M15,0A15,15 0 1,1 0,-15A15,15 0 0,1 15,0Z" style="opacity: 1; stroke-width: 0px; fill: rgb(8, 115, 191); fill-opacity: 1;"/></g><g class="text"/></g></g></g><g class="overplot"/><path class="xlines-above crisp" style="fill: none; stroke-width: 1px; stroke: rgb(0, 0, 0); stroke-opacity: 0;" d=""/><path class="ylines-above crisp" style="fill: none;" d="M0,0"/><g class="overlines-above"/><g class="xaxislayer-above"><path class="xtick ticks crisp" d="M0,450v-5" transform="translate(109.53999999999999,0)" style="stroke: rgb(68, 68, 68); stroke-opacity: 1; stroke-width: 1px;"/><path class="xtick ticks crisp" d="M0,450v-5" transform="translate(219.59,0)" style="stroke: rgb(68, 68, 68); stroke-opacity: 1; stroke-width: 1px;"/><path class="xtick ticks crisp" d="M0,450v-5" transform="translate(326.03,0)" style="stroke: rgb(68, 68, 68); stroke-opacity: 1; stroke-width: 1px;"/><path class="xtick ticks crisp" d="M0,450v-5" transform="translate(436.08,0)" style="stroke: rgb(68, 68, 68); stroke-opacity: 1; stroke-width: 1px;"/><path class="xtick ticks crisp" d="M0,450v-5" transform="translate(546.13,0)" style="stroke: rgb(68, 68, 68); stroke-opacity: 1; stroke-width: 1px;"/><path class="xtick ticks crisp" d="M0,450v-5" transform="translate(657.99,0)" style="stroke: rgb(68, 68, 68); stroke-opacity: 1; stroke-width: 1px;"/><g class="xtick"><text text-anchor="middle" x="0" y="469" transform="translate(109.53999999999999,0)" style="font-family: 'Open Sans', verdana, arial, sans-serif; font-size: 18px; fill: rgb(42, 63, 95); fill-opacity: 1; white-space: pre;">01/11</text></g><g class="xtick"><text text-anchor="middle" x="0" y="469" transform="translate(219.59,0)" style="font-family: 'Open Sans', verdana, arial, sans-serif; font-size: 18px; fill: rgb(42, 63, 95); fill-opacity: 1; white-space: pre;">01/01</text></g><g class="xtick"><text text-anchor="middle" x="0" y="469" transform="translate(326.03,0)" style="font-family: 'Open Sans', verdana, arial, sans-serif; font-size: 18px; fill: rgb(42, 63, 95); fill-opacity: 1; white-space: pre;">01/03</text></g><g class="xtick"><text text-anchor="middle" x="0" y="469" transform="translate(436.08,0)" style="font-family: 'Open Sans', verdana, arial, sans-serif; font-size: 18px; fill: rgb(42, 63, 95); fill-opacity: 1; white-space: pre;">01/05</text></g><g class="xtick"><text text-anchor="middle" x="0" y="469" transform="translate(546.13,0)" style="font-family: 'Open Sans', verdana, arial, sans-serif; font-size: 18px; fill: rgb(42, 63, 95); fill-opacity: 1; white-space: pre;">01/07</text></g><g class="xtick"><text text-anchor="middle" x="0" y="469" transform="translate(657.99,0)" style="font-family: 'Open Sans', verdana, arial, sans-serif; font-size: 18px; fill: rgb(42, 63, 95); fill-opacity: 1; white-space: pre;">01/09</text></g></g><g class="yaxislayer-above"/><g class="overaxes-above"/></g></g><g class="polarlayer"/><g class="ternarylayer"/><g class="geolayer"/><g class="funnelarealayer"/><g class="pielayer"/><g class="treemaplayer"/><g class="sunburstlayer"/><g class="glimages"/><defs id="topdefs-7e4dae"><g class="clips"/></defs><g class="layer-above"><g class="imagelayer"/><g class="shapelayer"><path data-index="0" fill-rule="evenodd" d="M-963.92,391.66L354.9,391.66" clip-path="url('#clip7e4daexy')" style="opacity: 1; stroke: rgb(255, 0, 0); stroke-opacity: 1; fill: rgb(0, 0, 0); fill-opacity: 0; stroke-dasharray: 3px, 3px; stroke-width: 1.5px;"/></g></g><g class="infolayer"><g class="g-gtitle"><text class="gtitle" x="375" y="25" text-anchor="middle" dy="0.7em" style="font-family: 'Open Sans', verdana, arial, sans-serif; font-size: 50px; fill: rgb(42, 63, 95); opacity: 1; font-weight: normal; white-space: pre;"><tspan style="font-weight:bold">Ille-et-Vilaine (35)</tspan></text></g><g class="g-xtitle"/><g class="annotation" data-index="0" style="opacity: 1;"><g class="annotation-text-g" transform="rotate(0,695.37,335.22)"><g class="cursor-pointer" transform="translate(652, 299)"><rect class="bg" x="0.5" y="0.5" width="86" height="71" style="stroke-width: 1px; stroke: rgb(0, 0, 0); stroke-opacity: 0; fill: rgb(255, 255, 255); fill-opacity: 0.6;"/><text class="annotation-text" text-anchor="middle" x="43.53125" y="55.5" style="font-family: 'Open Sans', verdana, arial, sans-serif; font-size: 50px; fill: rgb(8, 115, 191); fill-opacity: 1; white-space: pre;"> <tspan style="font-weight:bold">46 </tspan></text></g></g><g class="annotation-arrow-g" style="opacity: 1;"><path d="M723.77,370.72L735.37,385.22" style="stroke-width: 1px; stroke: rgb(8, 115, 191); stroke-opacity: 1; stroke-dasharray: 0px, 0px, 18.569px, 18.569px;"/></g></g></g></svg>