<svg class="main-svg" xmlns="http://www.w3.org/2000/svg" xmlns:xlink="http://www.w3.org/1999/xlink" width="1125" height="750" style="" viewBox="0 0 750 500"><rect x="0" y="0" width="750" height="500" style="fill: rgb(0, 0, 0); fill-opacity: 0;"/><defs id="defs-fbd930"><g class="clips"><clipPath id="clipfbd930xyplot" class="plotclip"><rect width="700" height="380"/></clipPath><clipPath class="axesclip" id="clipfbd930x"><rect x="50" y="0" width="700" height="500"/></clipPath><clipPath class="axesclip" id="clipfbd930y"><rect x="0" y="70" width="750" height="380"/></clipPath><clipPath class="axesclip" id="clipfbd930xy"><rect x="50" y="70" width="700" height="380"/></clipPath></g><g class="gradients"/></defs><g class="bglayer"><rect class="bg" x="50" y="70" width="700" height="380" style="fill: rgb(0, 0, 0); fill-opacity: 0; stroke-width: 0;"/></g><g class="layer-below"><g class="imagelayer"/><g class="shapelayer"/></g><g class="cartesianlayer"><g class="subplot xy"><g class="layer-subplot"><g class="shapelayer"/><g class="imagelayer"/></g><g class="gridlayer"><g class="x"><path class="xgrid crisp" transform="translate(108.19,0)" d="M0,70v380" style="stroke: rgb(255, 255, 255); stroke-opacity: 1; stroke-width: 1px;"/><path class="xgrid crisp" transform="translate(215.74,0)" d="M0,70v380" style="stroke: rgb(255, 255, 255); stroke-opacity: 1; stroke-width: 1px;"/><path class="xgrid crisp" transform="translate(319.77,0)" d="M0,70v380" style="stroke: rgb(255, 255, 255); stroke-opacity: 1; stroke-width: 1px;"/><path class="xgrid crisp" transform="translate(427.33,0)" d="M0,70v380" style="stroke: rgb(255, 255, 255); stroke-opacity: 1; stroke-width: 1px;"/><path class="xgrid crisp" transform="translate(534.89,0)" d="M0,70v380" style="stroke: rgb(255, 255, 255); stroke-opacity: 1; stroke-width: 1px;"/><path class="xgrid crisp" transform="translate(644.21,0)" d="M0,70v380" style="stroke: rgb(255, 255, 255); stroke-opacity: 1; stroke-width: 1px;"/></g><g class="y"/></g><g class="zerolinelayer"/><path class="xlines-below"/><path class="ylines-below"/><g class="overlines-below"/><g class="xaxislayer-below"/><g class="yaxislayer-below"/><g class="overaxes-below"/><g class="plot" transform="translate(50, 70)" clip-path="url('#clipfbd930xyplot')"><g class="scatterlayer mlayer"><g class="trace scatter trace7c8ee3" style="stroke-miterlimit: 2;"><g class="fills"><g><path class="js-fill" d="M670.03,380L-239.8,380L-239.8,378.69L-144.58,379.02L-142.82,379.06L-126.95,378.4L-125.19,378.36L-111.08,375.74L-109.32,375.94L-89.92,376.23L-88.16,375.9L-84.63,375.53L-82.87,375.33L-67,371.31L-65.24,370.24L-59.95,366.31L-58.19,366.43L-45.84,362.53L-44.08,360.81L-37.03,347.94L-35.26,346.5L-33.5,346.13L-31.74,342.85L-26.45,338.26L-24.69,335.84L-21.16,335.19L-19.4,332.19L-14.11,330.43L-12.34,329.28L-7.05,328.95L-5.29,327.27L-3.53,321.74L-1.76,319.11L1.76,308.04L3.53,307.22L10.58,269.95L12.34,257.86L14.11,252.94L15.87,250.8L24.69,175.08L26.45,167.12L28.21,164.91L29.97,145.88L33.5,105.13L35.26,80.03L37.03,55.15L38.79,46.7L40.55,41.62L42.32,18.7L44.08,4.92L45.84,1.19L47.61,0L49.37,4.35L51.13,4.14L52.9,6.77L54.66,11.07L56.42,11.32L58.19,15.25L59.95,29.15L63.48,55.8L65.24,59.37L67,79.38L68.77,108.24L70.53,158.84L72.29,166.67L74.06,184.3L75.82,192.34L77.58,194.92L79.35,221.2L81.11,242.07L82.87,234.9L84.63,263.76L86.4,279.55L88.16,284.14L89.92,285.45L95.21,308.33L96.98,312.72L100.5,320.1L102.27,319.85L104.03,325.26L105.79,327.11L109.32,331.17L111.08,330.59L116.37,332.68L118.14,333.55L119.9,331.62L121.66,330.96L126.95,330.92L128.72,328.99L132.24,327.81L134.01,324.57L135.77,320.34L137.53,311.57L139.29,306.28L141.06,307.18L142.82,305.17L144.58,304.43L146.35,308.04L148.11,320.92L151.64,332.4L153.4,332.6L158.69,329.36L160.45,329.57L162.22,327.19L163.98,327.19L165.74,324.03L167.51,323.42L171.03,321.78L172.8,311.45L174.56,313.91L176.32,314.4L178.09,315.34L179.85,315.34L185.14,312.02L186.9,310.13L188.66,309.07L190.43,306.2L193.95,305.38L195.72,303.61L199.24,301.15L201.01,302.18L204.53,303.78L206.3,305.87L208.06,307.39L209.82,306.94L211.59,309.23L213.35,309.44L215.11,309.72L216.88,310.95L220.4,312.35L222.17,314.03L225.69,314.11L227.46,316.49L232.75,320.92L234.51,322.76L236.27,324.53L238.04,324.44L239.8,327.44L241.56,327.76L243.32,327.48L245.09,328.91L246.85,328.13L248.61,328.26L250.38,328.58L252.14,326.58L255.67,326.74L257.43,326.99L259.19,328.3L260.96,327.85L262.72,327.4L264.48,330.59L268.01,332.03L269.77,331.74L273.3,332.77L275.06,333.14L276.83,331.09L278.59,330.72L282.12,329.65L283.88,325.18L287.41,323.34L289.17,319.07L292.7,310.71L294.46,305.46L296.22,303.33L297.98,299.27L299.75,298.78L301.51,292.63L308.56,270.16L310.33,267.37L312.09,266.75L313.85,260.6L319.14,252.69L320.91,251.58L322.67,251.95L324.43,250.8L326.2,274.22L327.96,263.15L329.72,260.97L331.49,260.48L333.25,260.81L335.01,257.53L336.78,258.72L338.54,236.82L340.3,248.67L342.07,254.78L347.36,264.21L349.12,263.88L350.88,265.4L352.64,265.65L354.41,263.84L356.17,267.74L357.93,265.93L359.7,268.15L361.46,269.17L363.22,275.08L366.75,284.55L368.51,286.07L372.04,301.03L373.8,301.69L375.57,303.66L377.33,304.11L379.09,304.68L380.86,306.98L382.62,310.5L384.38,311.53L386.15,311.04L387.91,313.13L391.44,318.87L393.2,329.16L394.96,327.19L396.73,323.38L400.25,324.69L402.02,325.67L403.78,326.99L405.54,319.77L407.3,323.91L409.07,324.2L410.83,324.48L412.59,336.42L414.36,332.4L416.12,331.17L423.17,331.09L424.94,323.17L428.46,335.84L430.23,338.38L433.75,343.92L435.52,343.84L439.04,351.91L440.81,354.01L444.33,360.2L446.1,361.06L447.86,361.67L449.62,364.71L456.68,370.08L458.44,371.47L460.2,371.64L461.96,372.62L465.49,374.34L467.25,375.16L472.54,374.79L474.31,375.57L477.83,375.69L479.6,375.28L483.12,376.1L484.89,375.94L491.94,375.82L493.7,375.53L498.99,375.33L500.76,374.01L502.52,374.18L504.28,372.62L507.81,368.36L509.57,367.9L514.86,351.5L516.62,348.06L520.15,341.83L521.91,341.21L527.2,334.65L528.97,332.93L530.73,331.66L532.49,331.41L534.26,331.17L536.02,328.22L539.55,326.78L541.31,325.1L543.07,325.02L544.84,323.95L546.6,323.99L548.36,321.53L550.13,319.28L551.89,318.79L553.65,317.35L555.42,314.36L558.94,313.45L560.71,314.4L562.47,314.97L564.23,317.15L565.99,319.56L567.76,324.2L571.28,324.48L573.05,327.19L574.81,330.27L576.57,330.14L578.34,332.03L580.1,330.63L583.63,332.48L585.39,335.06L588.92,337.11L590.68,338.67L594.21,343.43L595.97,343.43L601.26,348.8L603.02,348.72L606.55,351.18L608.31,351.96L615.37,359.75L617.13,360.2L620.65,361.14L622.42,362.86L624.18,364.75L625.94,365.03L629.47,365.03L631.23,365.4L634.76,365.49L636.52,365.53L640.05,367.74L641.81,369.22L652.39,371.96L654.16,371.55L662.97,369.42L664.74,367.9L670.03,368.11" style="fill: rgb(8, 115, 191); fill-opacity: 0.2; stroke-width: 0;"/></g></g><g class="errorbars"/><g class="lines"><path class="js-line" d="M-239.8,378.69L-144.58,379.02L-142.82,379.06L-126.95,378.4L-125.19,378.36L-111.08,375.74L-109.32,375.94L-89.92,376.23L-88.16,375.9L-84.63,375.53L-82.87,375.33L-67,371.31L-65.24,370.24L-59.95,366.31L-58.19,366.43L-45.84,362.53L-44.08,360.81L-37.03,347.94L-35.26,346.5L-33.5,346.13L-31.74,342.85L-26.45,338.26L-24.69,335.84L-21.16,335.19L-19.4,332.19L-14.11,330.43L-12.34,329.28L-7.05,328.95L-5.29,327.27L-3.53,321.74L-1.76,319.11L1.76,308.04L3.53,307.22L10.58,269.95L12.34,257.86L14.11,252.94L15.87,250.8L24.69,175.08L26.45,167.12L28.21,164.91L29.97,145.88L33.5,105.13L35.26,80.03L37.03,55.15L38.79,46.7L40.55,41.62L42.32,18.7L44.08,4.92L45.84,1.19L47.61,0L49.37,4.35L51.13,4.14L52.9,6.77L54.66,11.07L56.42,11.32L58.19,15.25L59.95,29.15L63.48,55.8L65.24,59.37L67,79.38L68.77,108.24L70.53,158.84L72.29,166.67L74.06,184.3L75.82,192.34L77.58,194.92L79.35,221.2L81.11,242.07L82.87,234.9L84.63,263.76L86.4,279.55L88.16,284.14L89.92,285.45L95.21,308.33L96.98,312.72L100.5,320.1L102.27,319.85L104.03,325.26L105.79,327.11L109.32,331.17L111.08,330.59L116.37,332.68L118.14,333.55L119.9,331.62L121.66,330.96L126.95,330.92L128.72,328.99L132.24,327.81L134.01,324.57L135.77,320.34L137.53,311.57L139.29,306.28L141.06,307.18L142.82,305.17L144.58,304.43L146.35,308.04L148.11,320.92L151.64,332.4L153.4,332.6L158.69,329.36L160.45,329.57L162.22,327.19L163.98,327.19L165.74,324.03L167.51,323.42L171.03,321.78L172.8,311.45L174.56,313.91L176.32,314.4L178.09,315.34L179.85,315.34L185.14,312.02L186.9,310.13L188.66,309.07L190.43,306.2L193.95,305.38L195.72,303.61L199.24,301.15L201.01,302.18L204.53,303.78L206.3,305.87L208.06,307.39L209.82,306.94L211.59,309.23L213.35,309.44L215.11,309.72L216.88,310.95L220.4,312.35L222.17,314.03L225.69,314.11L227.46,316.49L232.75,320.92L234.51,322.76L236.27,324.53L238.04,324.44L239.8,327.44L241.56,327.76L243.32,327.48L245.09,328.91L246.85,328.13L248.61,328.26L250.38,328.58L252.14,326.58L255.67,326.74L257.43,326.99L259.19,328.3L260.96,327.85L262.72,327.4L264.48,330.59L268.01,332.03L269.77,331.74L273.3,332.77L275.06,333.14L276.83,331.09L278.59,330.72L282.12,329.65L283.88,325.18L287.41,323.34L289.17,319.07L292.7,310.71L294.46,305.46L296.22,303.33L297.98,299.27L299.75,298.78L301.51,292.63L308.56,270.16L310.33,267.37L312.09,266.75L313.85,260.6L319.14,252.69L320.91,251.58L322.67,251.95L324.43,250.8L326.2,274.22L327.96,263.15L329.72,260.97L331.49,260.48L333.25,260.81L335.01,257.53L336.78,258.72L338.54,236.82L340.3,248.67L342.07,254.78L347.36,264.21L349.12,263.88L350.88,265.4L352.64,265.65L354.41,263.84L356.17,267.74L357.93,265.93L359.7,268.15L361.46,269.17L363.22,275.08L366.75,284.55L368.51,286.07L372.04,301.03L373.8,301.69L375.57,303.66L377.33,304.11L379.09,304.68L380.86,306.98L382.62,310.5L384.38,311.53L386.15,311.04L387.91,313.13L391.44,318.87L393.2,329.16L394.96,327.19L396.73,323.38L400.25,324.69L402.02,325.67L403.78,326.99L405.54,319.77L407.3,323.91L409.07,324.2L410.83,324.48L412.59,336.42L414.36,332.4L416.12,331.17L423.17,331.09L424.94,323.17L428.46,335.84L430.23,338.38L433.75,343.92L435.52,343.84L439.04,351.91L440.81,354.01L444.33,360.2L446.1,361.06L447.86,361.67L449.62,364.71L456.68,370.08L458.44,371.47L460.2,371.64L461.96,372.62L465.49,374.34L467.25,375.16L472.54,374.79L474.31,375.57L477.83,375.69L479.6,375.28L483.12,376.1L484.89,375.94L491.94,375.82L493.7,375.53L498.99,375.33L500.76,374.01L502.52,374.18L504.28,372.62L507.81,368.36L509.57,367.9L514.86,351.5L516.62,348.06L520.15,341.83L521.91,341.21L527.2,334.65L528.97,332.93L530.73,331.66L532.49,331.41L534.26,331.17L536.02,328.22L539.55,326.78L541.31,325.1L543.07,325.02L544.84,323.95L546.6,323.99L548.36,321.53L550.13,319.28L551.89,318.79L553.65,317.35L555.42,314.36L558.94,313.45L560.71,314.4L562.47,314.97L564.23,317.15L565.99,319.56L567.76,324.2L571.28,324.48L573.05,327.19L574.81,330.27L576.57,330.14L578.34,332.03L580.1,330.63L583.63,332.48L585.39,335.06L588.92,337.11L590.68,338.67L594.21,343.43L595.97,343.43L601.26,348.8L603.02,348.72L606.55,351.18L608.31,351.96L615.37,359.75L617.13,360.2L620.65,361.14L622.42,362.86L624.18,364.75L625.94,365.03L629.47,365.03L631.23,365.4L634.76,365.49L636.52,365.53L640.05,367.74L641.81,369.22L652.39,371.96L654.16,371.55L662.97,369.42L664.74,367.9L670.03,368.11" style="vector-effect: non-scaling-stroke; fill: none; stroke: rgb(8, 115, 191); stroke-opacity: 1; stroke-width: 0.5px; opacity: 1;"/></g><g class="points"/><g class="text"/></g><g class="trace scatter tracee34b9b" style="stroke-miterlimit: 2;"><g class="fills"><g><path class="js-fill" d="M687.66,380L670.03,380L670.03,368.11L675.31,366.51L677.08,367.21L678.84,365.85L680.6,365.53L687.66,365.69" style="fill: rgb(8, 115, 191); fill-opacity: 0.4; stroke-width: 0;"/></g></g><g class="errorbars"/><g class="lines"><path class="js-line" d="M670.03,368.11L675.31,366.51L677.08,367.21L678.84,365.85L680.6,365.53L687.66,365.69" style="vector-effect: non-scaling-stroke; fill: none; stroke: rgb(8, 115, 191); stroke-opacity: 1; stroke-width: 2px; opacity: 1;"/></g><g class="points"/><g class="text"/></g><g class="trace scatter trace25c8d2" style="stroke-miterlimit: 2; opacity: 1;"><g class="fills"/><g class="errorbars"/><g class="lines"/><g class="points"><path class="point" transform="translate(687.66,365.69)" d="M15,0A15,15 0 1,1 0,-15A15,15 0 0,1 15,0Z" style="opacity: 1; stroke-width: 0px; fill: rgb(8, 115, 191); fill-opacity: 1;"/></g><g class="text"/></g></g></g><g class="overplot"/><path class="xlines-above crisp" style="fill: none; stroke-width: 1px; stroke: rgb(0, 0, 0); stroke-opacity: 0;" d=""/><path class="ylines-above crisp" style="fill: none;" d="M0,0"/><g class="overlines-above"/><g class="xaxislayer-above"><path class="xtick ticks crisp" d="M0,450v-5" transform="translate(108.19,0)" style="stroke: rgb(68, 68, 68); stroke-opacity: 1; stroke-width: 1px;"/><path class="xtick ticks crisp" d="M0,450v-5" transform="translate(215.74,0)" style="stroke: rgb(68, 68, 68); stroke-opacity: 1; stroke-width: 1px;"/><path class="xtick ticks crisp" d="M0,450v-5" transform="translate(319.77,0)" style="stroke: rgb(68, 68, 68); stroke-opacity: 1; stroke-width: 1px;"/><path class="xtick ticks crisp" d="M0,450v-5" transform="translate(427.33,0)" style="stroke: rgb(68, 68, 68); stroke-opacity: 1; stroke-width: 1px;"/><path class="xtick ticks crisp" d="M0,450v-5" transform="translate(534.89,0)" style="stroke: rgb(68, 68, 68); stroke-opacity: 1; stroke-width: 1px;"/><path class="xtick ticks crisp" d="M0,450v-5" transform="translate(644.21,0)" style="stroke: rgb(68, 68, 68); stroke-opacity: 1; stroke-width: 1px;"/><g class="xtick"><text text-anchor="middle" x="0" y="469" transform="translate(108.19,0)" style="font-family: 'Open Sans', verdana, arial, sans-serif; font-size: 18px; fill: rgb(42, 63, 95); fill-opacity: 1; white-space: pre;">01/11</text></g><g class="xtick"><text text-anchor="middle" x="0" y="469" transform="translate(215.74,0)" style="font-family: 'Open Sans', verdana, arial, sans-serif; font-size: 18px; fill: rgb(42, 63, 95); fill-opacity: 1; white-space: pre;">01/01</text></g><g class="xtick"><text text-anchor="middle" x="0" y="469" transform="translate(319.77,0)" style="font-family: 'Open Sans', verdana, arial, sans-serif; font-size: 18px; fill: rgb(42, 63, 95); fill-opacity: 1; white-space: pre;">01/03</text></g><g class="xtick"><text text-anchor="middle" x="0" y="469" transform="translate(427.33,0)" style="font-family: 'Open Sans', verdana, arial, sans-serif; font-size: 18px; fill: rgb(42, 63, 95); fill-opacity: 1; white-space: pre;">01/05</text></g><g class="xtick"><text text-anchor="middle" x="0" y="469" transform="translate(534.89,0)" style="font-family: 'Open Sans', verdana, arial, sans-serif; font-size: 18px; fill: rgb(42, 63, 95); fill-opacity: 1; white-space: pre;">01/07</text></g><g class="xtick"><text text-anchor="middle" x="0" y="469" transform="translate(644.21,0)" style="font-family: 'Open Sans', verdana, arial, sans-serif; font-size: 18px; fill: rgb(42, 63, 95); fill-opacity: 1; white-space: pre;">01/09</text></g></g><g class="yaxislayer-above"/><g class="overaxes-above"/></g></g><g class="polarlayer"/><g class="ternarylayer"/><g class="geolayer"/><g class="funnelarealayer"/><g class="pielayer"/><g class="treemaplayer"/><g class="sunburstlayer"/><g class="glimages"/><defs id="topdefs-fbd930"><g class="clips"/></defs><g class="layer-above"><g class="imagelayer"/><g class="shapelayer"><path data-index="0" fill-rule="evenodd" d="M-940.93,434.32L347.98,434.32" clip-path="url('#clipfbd930xy')" style="opacity: 1; stroke: rgb(255, 0, 0); stroke-opacity: 1; fill: rgb(0, 0, 0); fill-opacity: 0; stroke-dasharray: 3px, 3px; stroke-width: 1.5px;"/></g></g><g class="infolayer"><g class="g-gtitle"><text class="gtitle" x="375" y="25" text-anchor="middle" dy="0.7em" style="font-family: 'Open Sans', verdana, arial, sans-serif; font-size: 50px; fill: rgb(42, 63, 95); opacity: 1; font-weight: normal; white-space: pre;"><tspan style="font-weight:bold">Loire (42)</tspan></text></g><g class="g-xtitle"/><g class="annotation" data-index="0" style="opacity: 1;"><g class="annotation-text-g" transform="rotate(0,695.66,375.69)"><g class="cursor-pointer" transform="translate(652, 340)"><rect class="bg" x="0.5" y="0.5" width="86" height="71" style="stroke-width: 1px; stroke: rgb(0, 0, 0); stroke-opacity: 0; fill: rgb(255, 255, 255); fill-opacity: 0.6;"/><text class="annotation-text" text-anchor="middle" x="43.53125" y="55.5" style="font-family: 'Open Sans', verdana, arial, sans-serif; font-size: 50px; fill: rgb(8, 115, 191); fill-opacity: 1; white-space: pre;"> <tspan style="font-weight:bold">45 </tspan></text></g></g><g class="annotation-arrow-g" style="opacity: 1;"><path d="M724.06,411.19L735.66,425.69" style="stroke-width: 1px; stroke: rgb(8, 115, 191); stroke-opacity: 1; stroke-dasharray: 0px, 0px, 18.569px, 18.569px;"/></g></g></g></svg>