<svg class="main-svg" xmlns="http://www.w3.org/2000/svg" xmlns:xlink="http://www.w3.org/1999/xlink" width="1125" height="750" style="" viewBox="0 0 750 500"><rect x="0" y="0" width="750" height="500" style="fill: rgb(0, 0, 0); fill-opacity: 0;"/><defs id="defs-fb25c9"><g class="clips"><clipPath id="clipfb25c9xyplot" class="plotclip"><rect width="685" height="380"/></clipPath><clipPath class="axesclip" id="clipfb25c9x"><rect x="50" y="0" width="685" height="500"/></clipPath><clipPath class="axesclip" id="clipfb25c9y"><rect x="0" y="70" width="750" height="380"/></clipPath><clipPath class="axesclip" id="clipfb25c9xy"><rect x="50" y="70" width="685" height="380"/></clipPath></g><g class="gradients"/></defs><g class="bglayer"><rect class="bg" x="50" y="70" width="685" height="380" style="fill: rgb(0, 0, 0); fill-opacity: 0; stroke-width: 0;"/></g><g class="layer-below"><g class="imagelayer"/><g class="shapelayer"/></g><g class="cartesianlayer"><g class="subplot xy"><g class="layer-subplot"><g class="shapelayer"/><g class="imagelayer"/></g><g class="gridlayer"><g class="x"><path class="xgrid crisp" transform="translate(106.09,0)" d="M0,70v380" style="stroke: rgb(255, 255, 255); stroke-opacity: 1; stroke-width: 1px;"/><path class="xgrid crisp" transform="translate(209.78,0)" d="M0,70v380" style="stroke: rgb(255, 255, 255); stroke-opacity: 1; stroke-width: 1px;"/><path class="xgrid crisp" transform="translate(310.06,0)" d="M0,70v380" style="stroke: rgb(255, 255, 255); stroke-opacity: 1; stroke-width: 1px;"/><path class="xgrid crisp" transform="translate(413.75,0)" d="M0,70v380" style="stroke: rgb(255, 255, 255); stroke-opacity: 1; stroke-width: 1px;"/><path class="xgrid crisp" transform="translate(517.4300000000001,0)" d="M0,70v380" style="stroke: rgb(255, 255, 255); stroke-opacity: 1; stroke-width: 1px;"/><path class="xgrid crisp" transform="translate(622.82,0)" d="M0,70v380" style="stroke: rgb(255, 255, 255); stroke-opacity: 1; stroke-width: 1px;"/><path class="xgrid crisp" transform="translate(726.5,0)" d="M0,70v380" style="stroke: rgb(255, 255, 255); stroke-opacity: 1; stroke-width: 1px;"/></g><g class="y"/></g><g class="zerolinelayer"/><path class="xlines-below"/><path class="ylines-below"/><g class="overlines-below"/><g class="xaxislayer-below"/><g class="yaxislayer-below"/><g class="overaxes-below"/><g class="plot" transform="translate(50, 70)" clip-path="url('#clipfb25c9xyplot')"><g class="scatterlayer mlayer"><g class="trace scatter trace72b1f7" style="stroke-miterlimit: 2;"><g class="fills"><g><path class="js-fill" d="M656.1,380L-231.17,380L-231.17,373.85L-224.37,373.85L-222.67,373.85L-192.07,376.81L-190.37,376.12L-161.48,378.18L-159.78,377.26L-139.38,375.9L-137.68,372.93L-135.98,373.62L-134.28,370.65L-130.88,364.5L-129.18,362.9L-122.38,363.82L-120.68,369.29L-115.58,369.97L-113.88,371.57L-93.49,377.04L-91.79,377.04L-83.29,369.06L-81.59,369.29L-79.89,369.29L-78.19,371.34L-76.49,372.25L-74.79,371.34L-73.09,372.71L-71.39,371.11L-56.09,366.78L-54.39,364.04L-40.79,367.69L-39.09,367.01L-34,364.96L-32.3,364.96L-28.9,360.62L-27.2,360.85L-25.5,363.13L-23.8,363.59L-17,365.18L-15.3,364.27L-13.6,363.59L-11.9,364.04L-6.8,365.41L-5.1,364.27L-3.4,364.73L-1.7,361.99L1.7,358.57L3.4,358.8L5.1,357.89L6.8,354.7L10.2,347.17L11.9,336L13.6,334.18L15.3,333.5L18.7,316.63L20.4,300.67L22.1,286.08L23.8,279.7L25.5,266.71L27.2,266.93L30.6,220.66L32.3,204.93L35.69,147.03L37.39,144.75L39.09,142.47L40.79,102.58L44.19,64.28L45.89,56.99L49.29,33.28L50.99,30.09L54.39,3.19L56.09,0L57.79,2.51L59.49,15.96L62.89,21.43L64.59,56.99L66.29,64.06L67.99,117.17L69.69,120.82L71.39,133.81L73.09,145.66L74.79,147.26L76.49,161.62L78.19,198.32L79.89,185.55L81.59,212L83.29,232.29L84.99,237.3L86.69,236.84L88.39,262.83L90.09,274L91.79,274.91L93.49,274L95.19,274.69L98.59,272.18L100.29,256.9L107.08,224.54L108.78,220.43L110.48,219.75L112.18,215.64L115.58,185.33L117.28,179.86L120.68,165.72L122.38,166.63L125.78,130.39L127.48,124.92L129.18,130.39L130.88,118.76L134.28,105.31L135.98,113.29L137.68,131.53L139.38,134.95L141.08,140.65L142.78,185.1L146.18,200.14L147.88,200.83L149.58,196.27L151.28,198.55L152.98,201.74L154.68,201.51L156.38,192.85L158.08,192.39L159.78,194.67L161.48,202.65L163.18,209.26L164.88,211.77L166.58,183.28L168.28,191.03L169.98,193.08L171.67,196.5L175.07,213.37L176.77,214.05L178.47,222.48L180.17,222.48L181.87,222.94L183.57,229.09L185.27,227.04L186.97,222.94L188.67,222.94L190.37,219.98L192.07,224.08L193.77,224.08L198.87,235.25L200.57,241.86L202.27,243.23L203.97,243L207.37,241.86L209.07,248.01L210.77,250.75L212.47,249.38L214.17,250.75L215.87,249.38L217.57,247.33L219.27,250.75L220.97,252.57L222.67,258.96L224.37,265.79L226.07,275.82L227.77,283.35L229.47,285.63L231.17,296.34L232.87,299.53L236.27,296.34L237.97,296.57L239.67,298.39L241.36,297.94L243.06,297.71L244.76,298.39L246.46,299.53L248.16,302.72L249.86,305L251.56,303.64L253.26,302.5L254.96,305.46L256.66,305.69L258.36,304.55L260.06,301.58L261.76,288.82L263.46,285.4L265.16,287.45L268.56,273.09L270.26,271.72L271.96,270.58L273.66,274L275.36,267.16L277.06,264.43L278.76,256.9L280.46,259.64L282.16,250.75L283.86,246.65L285.56,240.95L287.26,242.09L288.96,243.23L290.66,233.2L292.36,207.44L294.06,200.37L299.16,146.12L300.86,146.8L302.56,131.07L304.26,129.48L307.66,122.41L309.35,131.99L311.05,131.99L312.75,128.34L314.45,179.86L316.15,167.55L317.85,161.62L319.55,160.71L321.25,155.01L322.95,155.46L324.65,156.15L326.35,104.63L328.05,120.13L329.75,125.83L331.45,138.14L333.15,144.75L334.85,151.36L336.55,153.19L338.25,166.18L339.95,173.25L345.05,183.96L346.75,190.8L348.45,192.39L350.15,200.37L356.95,232.97L358.65,248.24L360.35,246.65L362.05,256.22L363.75,264.66L365.45,268.53L367.15,271.04L368.85,275.14L370.55,274.91L372.25,276.28L373.95,276.51L375.65,278.1L377.34,280.38L379.04,298.39L382.44,283.12L384.14,283.12L385.84,289.05L387.54,291.33L389.24,296.34L390.94,287.68L392.64,294.97L394.34,297.25L396.04,297.25L397.74,314.81L399.44,309.79L401.14,308.42L402.84,307.51L404.54,310.02L406.24,313.67L407.94,314.81L409.64,303.18L411.34,310.25L414.74,315.26L416.44,325.52L418.14,327.57L419.84,327.34L424.94,345.81L426.64,350.14L428.34,351.28L430.04,351.05L431.74,351.05L433.44,353.56L435.14,352.87L436.84,355.38L438.54,357.66L440.24,357.66L441.94,360.17L443.64,360.62L445.33,361.54L447.03,365.18L450.43,367.23L452.13,369.97L455.53,369.29L457.23,371.57L458.93,372.02L460.63,373.39L467.43,373.62L469.13,372.93L470.83,372.02L472.53,370.2L475.93,366.55L477.63,365.64L481.03,364.5L482.73,365.41L484.43,366.55L486.13,360.85L487.83,356.98L489.53,355.61L491.23,354.93L492.93,343.76L494.63,332.81L496.33,316.4L498.03,303.86L499.73,281.3L501.43,271.49L503.13,270.58L504.83,258.04L506.53,252.57L508.23,250.98L509.93,253.94L511.63,268.07L513.33,266.93L515.02,268.53L516.72,275.82L518.42,279.02L520.12,285.4L521.82,291.78L523.52,292.01L525.22,293.61L526.92,290.64L530.32,285.63L532.02,281.07L535.42,276.96L537.12,276.96L538.82,277.42L540.52,281.07L542.22,281.52L543.92,286.77L547.32,297.71L549.02,299.76L550.72,301.36L552.42,298.85L555.82,308.65L557.52,308.42L559.22,309.33L560.92,312.3L562.62,312.53L564.32,320.28L566.02,320.73L567.72,318L569.42,313.89L571.12,315.94L572.82,318L574.52,317.08L576.22,316.63L577.92,317.08L579.62,321.64L581.32,328.48L583.01,330.53L584.71,331.22L586.41,333.04L588.11,339.42L589.81,341.02L591.51,343.98L594.91,344.67L596.61,341.7L600.01,341.02L601.71,343.3L603.41,343.76L605.11,342.16L606.81,341.93L608.51,347.86L610.21,348.31L611.91,352.87L615.31,357.89L617.01,362.45L618.71,367.46L620.41,368.83L628.91,368.83L630.61,366.78L634.01,365.64L635.71,364.96L637.41,366.32L639.11,364.96L640.81,364.96L642.51,367.01L645.91,367.92L647.61,369.51L649.31,367.92L651,367.69L656.1,366.32" style="fill: rgb(8, 115, 191); fill-opacity: 0.2; stroke-width: 0;"/></g></g><g class="errorbars"/><g class="lines"><path class="js-line" d="M-231.17,373.85L-224.37,373.85L-222.67,373.85L-192.07,376.81L-190.37,376.12L-161.48,378.18L-159.78,377.26L-139.38,375.9L-137.68,372.93L-135.98,373.62L-134.28,370.65L-130.88,364.5L-129.18,362.9L-122.38,363.82L-120.68,369.29L-115.58,369.97L-113.88,371.57L-93.49,377.04L-91.79,377.04L-83.29,369.06L-81.59,369.29L-79.89,369.29L-78.19,371.34L-76.49,372.25L-74.79,371.34L-73.09,372.71L-71.39,371.11L-56.09,366.78L-54.39,364.04L-40.79,367.69L-39.09,367.01L-34,364.96L-32.3,364.96L-28.9,360.62L-27.2,360.85L-25.5,363.13L-23.8,363.59L-17,365.18L-15.3,364.27L-13.6,363.59L-11.9,364.04L-6.8,365.41L-5.1,364.27L-3.4,364.73L-1.7,361.99L1.7,358.57L3.4,358.8L5.1,357.89L6.8,354.7L10.2,347.17L11.9,336L13.6,334.18L15.3,333.5L18.7,316.63L20.4,300.67L22.1,286.08L23.8,279.7L25.5,266.71L27.2,266.93L30.6,220.66L32.3,204.93L35.69,147.03L37.39,144.75L39.09,142.47L40.79,102.58L44.19,64.28L45.89,56.99L49.29,33.28L50.99,30.09L54.39,3.19L56.09,0L57.79,2.51L59.49,15.96L62.89,21.43L64.59,56.99L66.29,64.06L67.99,117.17L69.69,120.82L71.39,133.81L73.09,145.66L74.79,147.26L76.49,161.62L78.19,198.32L79.89,185.55L81.59,212L83.29,232.29L84.99,237.3L86.69,236.84L88.39,262.83L90.09,274L91.79,274.91L93.49,274L95.19,274.69L98.59,272.18L100.29,256.9L107.08,224.54L108.78,220.43L110.48,219.75L112.18,215.64L115.58,185.33L117.28,179.86L120.68,165.72L122.38,166.63L125.78,130.39L127.48,124.92L129.18,130.39L130.88,118.76L134.28,105.31L135.98,113.29L137.68,131.53L139.38,134.95L141.08,140.65L142.78,185.1L146.18,200.14L147.88,200.83L149.58,196.27L151.28,198.55L152.98,201.74L154.68,201.51L156.38,192.85L158.08,192.39L159.78,194.67L161.48,202.65L163.18,209.26L164.88,211.77L166.58,183.28L168.28,191.03L169.98,193.08L171.67,196.5L175.07,213.37L176.77,214.05L178.47,222.48L180.17,222.48L181.87,222.94L183.57,229.09L185.27,227.04L186.97,222.94L188.67,222.94L190.37,219.98L192.07,224.08L193.77,224.08L198.87,235.25L200.57,241.86L202.27,243.23L203.97,243L207.37,241.86L209.07,248.01L210.77,250.75L212.47,249.38L214.17,250.75L215.87,249.38L217.57,247.33L219.27,250.75L220.97,252.57L222.67,258.96L224.37,265.79L226.07,275.82L227.77,283.35L229.47,285.63L231.17,296.34L232.87,299.53L236.27,296.34L237.97,296.57L239.67,298.39L241.36,297.94L243.06,297.71L244.76,298.39L246.46,299.53L248.16,302.72L249.86,305L251.56,303.64L253.26,302.5L254.96,305.46L256.66,305.69L258.36,304.55L260.06,301.58L261.76,288.82L263.46,285.4L265.16,287.45L268.56,273.09L270.26,271.72L271.96,270.58L273.66,274L275.36,267.16L277.06,264.43L278.76,256.9L280.46,259.64L282.16,250.75L283.86,246.65L285.56,240.95L287.26,242.09L288.96,243.23L290.66,233.2L292.36,207.44L294.06,200.37L299.16,146.12L300.86,146.8L302.56,131.07L304.26,129.48L307.66,122.41L309.35,131.99L311.05,131.99L312.75,128.34L314.45,179.86L316.15,167.55L317.85,161.62L319.55,160.71L321.25,155.01L322.95,155.46L324.65,156.15L326.35,104.63L328.05,120.13L329.75,125.83L331.45,138.14L333.15,144.75L334.85,151.36L336.55,153.19L338.25,166.18L339.95,173.25L345.05,183.96L346.75,190.8L348.45,192.39L350.15,200.37L356.95,232.97L358.65,248.24L360.35,246.65L362.05,256.22L363.75,264.66L365.45,268.53L367.15,271.04L368.85,275.14L370.55,274.91L372.25,276.28L373.95,276.51L375.65,278.1L377.34,280.38L379.04,298.39L382.44,283.12L384.14,283.12L385.84,289.05L387.54,291.33L389.24,296.34L390.94,287.68L392.64,294.97L394.34,297.25L396.04,297.25L397.74,314.81L399.44,309.79L401.14,308.42L402.84,307.51L404.54,310.02L406.24,313.67L407.94,314.81L409.64,303.18L411.34,310.25L414.74,315.26L416.44,325.52L418.14,327.57L419.84,327.34L424.94,345.81L426.64,350.14L428.34,351.28L430.04,351.05L431.74,351.05L433.44,353.56L435.14,352.87L436.84,355.38L438.54,357.66L440.24,357.66L441.94,360.17L443.64,360.62L445.33,361.54L447.03,365.18L450.43,367.23L452.13,369.97L455.53,369.29L457.23,371.57L458.93,372.02L460.63,373.39L467.43,373.62L469.13,372.93L470.83,372.02L472.53,370.2L475.93,366.55L477.63,365.64L481.03,364.5L482.73,365.41L484.43,366.55L486.13,360.85L487.83,356.98L489.53,355.61L491.23,354.93L492.93,343.76L494.63,332.81L496.33,316.4L498.03,303.86L499.73,281.3L501.43,271.49L503.13,270.58L504.83,258.04L506.53,252.57L508.23,250.98L509.93,253.94L511.63,268.07L513.33,266.93L515.02,268.53L516.72,275.82L518.42,279.02L520.12,285.4L521.82,291.78L523.52,292.01L525.22,293.61L526.92,290.64L530.32,285.63L532.02,281.07L535.42,276.96L537.12,276.96L538.82,277.42L540.52,281.07L542.22,281.52L543.92,286.77L547.32,297.71L549.02,299.76L550.72,301.36L552.42,298.85L555.82,308.65L557.52,308.42L559.22,309.33L560.92,312.3L562.62,312.53L564.32,320.28L566.02,320.73L567.72,318L569.42,313.89L571.12,315.94L572.82,318L574.52,317.08L576.22,316.63L577.92,317.08L579.62,321.64L581.32,328.48L583.01,330.53L584.71,331.22L586.41,333.04L588.11,339.42L589.81,341.02L591.51,343.98L594.91,344.67L596.61,341.7L600.01,341.02L601.71,343.3L603.41,343.76L605.11,342.16L606.81,341.93L608.51,347.86L610.21,348.31L611.91,352.87L615.31,357.89L617.01,362.45L618.71,367.46L620.41,368.83L628.91,368.83L630.61,366.78L634.01,365.64L635.71,364.96L637.41,366.32L639.11,364.96L640.81,364.96L642.51,367.01L645.91,367.92L647.61,369.51L649.31,367.92L651,367.69L656.1,366.32" style="vector-effect: non-scaling-stroke; fill: none; stroke: rgb(8, 115, 191); stroke-opacity: 1; stroke-width: 0.5px; opacity: 1;"/></g><g class="points"/><g class="text"/></g><g class="trace scatter tracee2d611" style="stroke-miterlimit: 2;"><g class="fills"><g><path class="js-fill" d="M673.1,380L656.1,380L656.1,366.32L657.8,365.64L659.5,363.36L661.2,363.59L662.9,364.73L664.6,364.73L666.3,361.54L668,360.17L669.7,360.4L671.4,363.59L673.1,359.26" style="fill: rgb(8, 115, 191); fill-opacity: 0.4; stroke-width: 0;"/></g></g><g class="errorbars"/><g class="lines"><path class="js-line" d="M656.1,366.32L657.8,365.64L659.5,363.36L661.2,363.59L662.9,364.73L664.6,364.73L666.3,361.54L668,360.17L669.7,360.4L671.4,363.59L673.1,359.26" style="vector-effect: non-scaling-stroke; fill: none; stroke: rgb(8, 115, 191); stroke-opacity: 1; stroke-width: 2px; opacity: 1;"/></g><g class="points"/><g class="text"/></g><g class="trace scatter traced1af62" style="stroke-miterlimit: 2; opacity: 1;"><g class="fills"/><g class="errorbars"/><g class="lines"/><g class="points"><path class="point" transform="translate(673.1,359.26)" d="M15,0A15,15 0 1,1 0,-15A15,15 0 0,1 15,0Z" style="opacity: 1; stroke-width: 0px; fill: rgb(8, 115, 191); fill-opacity: 1;"/></g><g class="text"/></g></g></g><g class="overplot"/><path class="xlines-above crisp" style="fill: none; stroke-width: 1px; stroke: rgb(0, 0, 0); stroke-opacity: 0;" d=""/><path class="ylines-above crisp" style="fill: none;" d="M0,0"/><g class="overlines-above"/><g class="xaxislayer-above"><path class="xtick ticks crisp" d="M0,450v-5" transform="translate(106.09,0)" style="stroke: rgb(68, 68, 68); stroke-opacity: 1; stroke-width: 1px;"/><path class="xtick ticks crisp" d="M0,450v-5" transform="translate(209.78,0)" style="stroke: rgb(68, 68, 68); stroke-opacity: 1; stroke-width: 1px;"/><path class="xtick ticks crisp" d="M0,450v-5" transform="translate(310.06,0)" style="stroke: rgb(68, 68, 68); stroke-opacity: 1; stroke-width: 1px;"/><path class="xtick ticks crisp" d="M0,450v-5" transform="translate(413.75,0)" style="stroke: rgb(68, 68, 68); stroke-opacity: 1; stroke-width: 1px;"/><path class="xtick ticks crisp" d="M0,450v-5" transform="translate(517.4300000000001,0)" style="stroke: rgb(68, 68, 68); stroke-opacity: 1; stroke-width: 1px;"/><path class="xtick ticks crisp" d="M0,450v-5" transform="translate(622.82,0)" style="stroke: rgb(68, 68, 68); stroke-opacity: 1; stroke-width: 1px;"/><path class="xtick ticks crisp" d="M0,450v-5" transform="translate(726.5,0)" style="stroke: rgb(68, 68, 68); stroke-opacity: 1; stroke-width: 1px;"/><g class="xtick"><text text-anchor="middle" x="0" y="469" transform="translate(106.09,0)" style="font-family: 'Open Sans', verdana, arial, sans-serif; font-size: 18px; fill: rgb(42, 63, 95); fill-opacity: 1; white-space: pre;">01/11</text></g><g class="xtick"><text text-anchor="middle" x="0" y="469" transform="translate(209.78,0)" style="font-family: 'Open Sans', verdana, arial, sans-serif; font-size: 18px; fill: rgb(42, 63, 95); fill-opacity: 1; white-space: pre;">01/01</text></g><g class="xtick"><text text-anchor="middle" x="0" y="469" transform="translate(310.06,0)" style="font-family: 'Open Sans', verdana, arial, sans-serif; font-size: 18px; fill: rgb(42, 63, 95); fill-opacity: 1; white-space: pre;">01/03</text></g><g class="xtick"><text text-anchor="middle" x="0" y="469" transform="translate(413.75,0)" style="font-family: 'Open Sans', verdana, arial, sans-serif; font-size: 18px; fill: rgb(42, 63, 95); fill-opacity: 1; white-space: pre;">01/05</text></g><g class="xtick"><text text-anchor="middle" x="0" y="469" transform="translate(517.4300000000001,0)" style="font-family: 'Open Sans', verdana, arial, sans-serif; font-size: 18px; fill: rgb(42, 63, 95); fill-opacity: 1; white-space: pre;">01/07</text></g><g class="xtick"><text text-anchor="middle" x="0" y="469" transform="translate(622.82,0)" style="font-family: 'Open Sans', verdana, arial, sans-serif; font-size: 18px; fill: rgb(42, 63, 95); fill-opacity: 1; white-space: pre;">01/09</text></g><g class="xtick"><text text-anchor="middle" x="0" y="469" transform="translate(726.5,0)" style="font-family: 'Open Sans', verdana, arial, sans-serif; font-size: 18px; fill: rgb(42, 63, 95); fill-opacity: 1; white-space: pre;">01/11</text></g></g><g class="yaxislayer-above"/><g class="overaxes-above"/></g></g><g class="polarlayer"/><g class="ternarylayer"/><g class="geolayer"/><g class="funnelarealayer"/><g class="pielayer"/><g class="treemaplayer"/><g class="sunburstlayer"/><g class="glimages"/><defs id="topdefs-fb25c9"><g class="clips"/></defs><g class="layer-above"><g class="imagelayer"/><g class="shapelayer"><path data-index="0" fill-rule="evenodd" d="M-905.26,409.02L337.26,409.02" clip-path="url('#clipfb25c9xy')" style="opacity: 1; stroke: rgb(255, 0, 0); stroke-opacity: 1; fill: rgb(0, 0, 0); fill-opacity: 0; stroke-dasharray: 3px, 3px; stroke-width: 1.5px;"/></g></g><g class="infolayer"><g class="g-gtitle"><text class="gtitle" x="375" y="25" text-anchor="middle" dy="0.7em" style="font-family: 'Open Sans', verdana, arial, sans-serif; font-size: 50px; fill: rgb(42, 63, 95); opacity: 1; font-weight: normal; white-space: pre;"><tspan style="font-weight:bold">Vosges (88)</tspan></text></g><g class="g-xtitle"/><g class="annotation" data-index="0" style="opacity: 1;"><g class="annotation-text-g" transform="rotate(0,681.1,369.26)"><g class="cursor-pointer" transform="translate(638, 333)"><rect class="bg" x="0.5" y="0.5" width="86" height="71" style="stroke-width: 1px; stroke: rgb(0, 0, 0); stroke-opacity: 0; fill: rgb(255, 255, 255); fill-opacity: 0.6;"/><text class="annotation-text" text-anchor="middle" x="43.53125" y="55.5" style="font-family: 'Open Sans', verdana, arial, sans-serif; font-size: 50px; fill: rgb(8, 115, 191); fill-opacity: 1; white-space: pre;"> <tspan style="font-weight:bold">25 </tspan></text></g></g><g class="annotation-arrow-g" style="opacity: 1;"><path d="M709.5,404.76L721.1,419.26" style="stroke-width: 1px; stroke: rgb(8, 115, 191); stroke-opacity: 1; stroke-dasharray: 0px, 0px, 18.569px, 18.569px;"/></g></g></g></svg>