<svg class="main-svg" xmlns="http://www.w3.org/2000/svg" xmlns:xlink="http://www.w3.org/1999/xlink" width="1125" height="750" style="" viewBox="0 0 750 500"><rect x="0" y="0" width="750" height="500" style="fill: rgb(0, 0, 0); fill-opacity: 0;"/><defs id="defs-8136d5"><g class="clips"><clipPath id="clip8136d5xyplot" class="plotclip"><rect width="700" height="380"/></clipPath><clipPath class="axesclip" id="clip8136d5x"><rect x="50" y="0" width="700" height="500"/></clipPath><clipPath class="axesclip" id="clip8136d5y"><rect x="0" y="70" width="750" height="380"/></clipPath><clipPath class="axesclip" id="clip8136d5xy"><rect x="50" y="70" width="700" height="380"/></clipPath></g><g class="gradients"/></defs><g class="bglayer"><rect class="bg" x="50" y="70" width="700" height="380" style="fill: rgb(0, 0, 0); fill-opacity: 0; stroke-width: 0;"/></g><g class="layer-below"><g class="imagelayer"/><g class="shapelayer"/></g><g class="cartesianlayer"><g class="subplot xy"><g class="layer-subplot"><g class="shapelayer"/><g class="imagelayer"/></g><g class="gridlayer"><g class="x"><path class="xgrid crisp" transform="translate(109.69,0)" d="M0,70v380" style="stroke: rgb(255, 255, 255); stroke-opacity: 1; stroke-width: 1px;"/><path class="xgrid crisp" transform="translate(220.03,0)" d="M0,70v380" style="stroke: rgb(255, 255, 255); stroke-opacity: 1; stroke-width: 1px;"/><path class="xgrid crisp" transform="translate(326.74,0)" d="M0,70v380" style="stroke: rgb(255, 255, 255); stroke-opacity: 1; stroke-width: 1px;"/><path class="xgrid crisp" transform="translate(437.08,0)" d="M0,70v380" style="stroke: rgb(255, 255, 255); stroke-opacity: 1; stroke-width: 1px;"/><path class="xgrid crisp" transform="translate(547.4200000000001,0)" d="M0,70v380" style="stroke: rgb(255, 255, 255); stroke-opacity: 1; stroke-width: 1px;"/><path class="xgrid crisp" transform="translate(659.56,0)" d="M0,70v380" style="stroke: rgb(255, 255, 255); stroke-opacity: 1; stroke-width: 1px;"/></g><g class="y"/></g><g class="zerolinelayer"/><path class="xlines-below"/><path class="ylines-below"/><g class="overlines-below"/><g class="xaxislayer-below"/><g class="yaxislayer-below"/><g class="overaxes-below"/><g class="plot" transform="translate(50, 70)" clip-path="url('#clip8136d5xyplot')"><g class="scatterlayer mlayer"><g class="trace scatter trace2f02c0" style="stroke-miterlimit: 2;"><g class="fills"><g><path class="js-fill" d="M669.25,380L-245.99,380L-245.99,377.74L-153.75,378.12L-151.94,376.61L-141.09,378.12L-139.28,379.25L-123,377.74L-121.19,376.99L-108.53,376.23L-106.72,374.73L-97.67,369.83L-95.87,370.21L-92.25,369.83L-90.44,368.33L-88.63,367.2L-86.82,369.08L-85.01,369.08L-83.2,366.82L-74.16,338.95L-72.35,338.57L-68.73,325.01L-66.93,321.63L-65.12,317.11L-63.31,319.37L-61.5,322.38L-59.69,320.5L-57.88,322.38L-56.07,318.24L-52.45,309.95L-50.65,300.16L-48.84,298.28L-47.03,300.16L-43.41,295.64L-41.6,297.9L-34.37,300.16L-32.56,302.79L-30.75,309.57L-28.94,309.95L-27.13,308.82L-25.32,312.59L-23.51,310.7L-21.71,311.83L-19.9,306.18L-18.09,296.39L-16.28,299.03L-14.47,298.65L-12.66,297.52L-10.85,299.78L-9.04,299.41L-7.24,300.16L-5.43,298.65L-3.62,295.64L-1.81,292.63L0,291.5L3.62,286.22L5.43,279.07L7.24,284.34L9.04,279.07L10.85,276.06L12.66,265.51L14.47,260.24L16.28,262.12L19.9,242.16L21.71,239.52L23.51,238.77L25.32,230.11L27.13,233.12L28.94,232.37L30.75,224.84L32.56,213.16L34.37,195.08L36.18,164.58L37.98,148.38L39.79,143.11L41.6,141.98L43.41,119.39L45.22,81.35L47.03,70.8L50.65,61.39L52.45,47.45L54.26,46.32L56.07,20.34L57.88,24.1L59.69,7.16L61.5,12.43L63.31,2.64L65.12,0L66.93,0.75L68.73,6.78L70.54,21.84L72.35,80.97L74.16,78.71L75.97,66.66L77.78,83.61L79.59,81.72L81.4,116.75L83.2,125.79L85.01,101.68L86.82,117.5L88.63,170.6L92.25,173.99L94.06,187.93L95.87,192.82L97.67,202.24L99.48,215.8L101.29,214.29L104.91,218.81L106.72,190.19L108.53,204.88L110.34,203.37L113.95,185.29L115.76,182.66L117.57,180.77L119.38,203.37L121.19,203.37L123,198.1L124.81,206.76L126.61,221.07L128.42,212.78L130.23,213.91L132.04,220.32L133.85,219.94L135.66,220.69L137.47,209.77L139.28,193.58L141.09,193.58L142.89,193.95L144.7,190.19L146.51,185.29L148.32,190.94L150.13,202.99L151.94,237.26L153.75,242.91L155.56,244.04L157.36,245.93L159.17,252.71L160.98,253.46L162.79,258.73L164.6,260.24L166.41,263.25L168.22,260.61L170.03,259.86L171.83,260.61L173.64,247.43L177.26,208.27L179.07,204.88L180.88,207.14L182.69,198.1L184.5,181.9L186.3,180.02L188.11,179.27L189.92,165.71L191.73,163.83L193.54,163.45L195.35,162.7L197.16,167.97L198.97,175.5L200.78,179.27L202.58,182.66L204.39,183.41L206.2,183.03L208.01,193.58L211.63,210.53L213.44,210.15L215.25,221.82L217.05,223.71L220.67,220.32L222.48,208.27L224.29,203.37L226.1,206.76L227.91,198.85L229.72,198.1L231.52,199.6L233.33,208.27L236.95,234.25L238.76,247.43L240.57,259.48L242.38,265.13L244.19,264L245.99,268.15L247.8,279.44L249.61,280.95L251.42,279.44L253.23,282.08L258.66,286.22L260.47,282.83L262.27,283.21L264.08,281.33L265.89,279.44L267.7,276.43L269.51,276.06L271.32,272.67L273.13,273.8L274.94,267.77L276.74,267.02L278.55,264.76L280.36,262.5L282.17,262.12L283.98,256.47L285.79,248.19L289.41,234.25L291.21,229.73L293.02,232.37L294.83,232.75L296.64,239.15L298.45,236.89L300.26,231.99L302.07,232.37L303.88,233.88L305.68,231.62L307.49,229.36L309.3,213.54L311.11,196.59L312.92,190.94L314.73,187.18L316.54,168.34L318.35,156.67L320.16,159.31L321.96,157.42L323.77,162.7L325.58,163.07L327.39,160.06L329.2,162.7L331.01,167.97L332.82,167.59L334.63,206.76L336.43,190.56L338.24,189.44L340.05,189.44L341.86,191.69L343.67,187.55L345.48,187.18L347.29,141.98L349.1,146.88L350.9,157.8L352.71,154.79L356.33,164.58L358.14,163.83L359.95,172.86L361.76,191.32L363.57,184.92L365.37,192.07L367.18,187.18L368.99,189.44L370.8,190.56L372.61,186.05L374.42,190.94L376.23,201.86L378.04,200.36L379.84,207.51L381.65,219.56L383.46,219.94L385.27,230.86L387.08,227.1L392.51,254.97L394.32,254.59L396.12,253.84L397.93,262.87L399.74,275.3L401.55,266.26L403.36,287.35L405.17,287.35L406.98,286.6L408.79,286.98L410.59,292.63L412.4,295.64L414.21,302.79L416.02,293L417.83,297.52L419.64,293.76L421.45,294.89L423.26,311.83L425.06,302.42L426.87,306.18L428.68,297.52L430.49,296.39L434.11,293.76L435.92,286.98L437.73,301.29L439.53,304.68L441.34,313.72L443.15,315.6L444.96,320.5L446.77,322.38L448.58,320.5L450.39,320.5L452.2,319.37L454.01,321.63L455.81,327.27L457.62,326.14L459.43,326.52L461.24,328.78L466.67,341.59L468.48,343.47L470.28,347.61L472.09,347.23L475.71,355.14L477.52,357.78L482.95,365.69L484.75,365.69L486.56,369.08L488.37,367.95L490.18,367.57L491.99,365.69L495.61,366.44L497.42,366.82L499.22,364.18L501.03,364.18L502.84,363.81L504.65,364.56L508.27,362.3L510.08,361.17L513.7,354.01L515.5,354.77L517.31,337.07L519.12,327.65L520.93,317.86L522.74,314.47L528.17,249.69L529.97,242.91L533.59,213.91L535.4,216.55L539.02,178.51L540.83,166.84L544.44,126.92L546.25,121.27L548.06,117.5L549.87,111.1L551.68,112.98L553.49,104.32L555.3,112.23L557.11,126.92L558.91,122.02L560.72,123.15L562.53,124.28L564.34,115.24L566.15,119.76L567.96,112.23L569.77,97.54L571.58,103.94L573.39,103.57L575.19,94.91L577,95.66L578.81,97.54L580.62,106.96L582.43,105.45L584.24,115.24L586.05,116L587.86,138.22L589.66,148.01L595.09,197.72L596.9,198.85L598.71,201.86L600.52,211.66L604.13,236.13L605.94,236.51L609.56,257.6L611.37,254.59L613.18,264L614.99,266.64L618.6,279.82L620.41,281.33L622.22,271.16L624.03,266.64L625.84,275.68L627.65,277.19L629.46,276.06L631.27,281.7L633.07,282.46L634.88,291.5L636.69,297.52L638.5,294.51L642.12,312.59L643.93,316.35L647.55,323.13L649.35,323.89L651.16,332.55L652.97,333.3L656.59,336.69L658.4,340.08L667.44,350.25L669.25,347.99" style="fill: rgb(8, 115, 191); fill-opacity: 0.2; stroke-width: 0;"/></g></g><g class="errorbars"/><g class="lines"><path class="js-line" d="M-245.99,377.74L-153.75,378.12L-151.94,376.61L-141.09,378.12L-139.28,379.25L-123,377.74L-121.19,376.99L-108.53,376.23L-106.72,374.73L-97.67,369.83L-95.87,370.21L-92.25,369.83L-90.44,368.33L-88.63,367.2L-86.82,369.08L-85.01,369.08L-83.2,366.82L-74.16,338.95L-72.35,338.57L-68.73,325.01L-66.93,321.63L-65.12,317.11L-63.31,319.37L-61.5,322.38L-59.69,320.5L-57.88,322.38L-56.07,318.24L-52.45,309.95L-50.65,300.16L-48.84,298.28L-47.03,300.16L-43.41,295.64L-41.6,297.9L-34.37,300.16L-32.56,302.79L-30.75,309.57L-28.94,309.95L-27.13,308.82L-25.32,312.59L-23.51,310.7L-21.71,311.83L-19.9,306.18L-18.09,296.39L-16.28,299.03L-14.47,298.65L-12.66,297.52L-10.85,299.78L-9.04,299.41L-7.24,300.16L-5.43,298.65L-3.62,295.64L-1.81,292.63L0,291.5L3.62,286.22L5.43,279.07L7.24,284.34L9.04,279.07L10.85,276.06L12.66,265.51L14.47,260.24L16.28,262.12L19.9,242.16L21.71,239.52L23.51,238.77L25.32,230.11L27.13,233.12L28.94,232.37L30.75,224.84L32.56,213.16L34.37,195.08L36.18,164.58L37.98,148.38L39.79,143.11L41.6,141.98L43.41,119.39L45.22,81.35L47.03,70.8L50.65,61.39L52.45,47.45L54.26,46.32L56.07,20.34L57.88,24.1L59.69,7.16L61.5,12.43L63.31,2.64L65.12,0L66.93,0.75L68.73,6.78L70.54,21.84L72.35,80.97L74.16,78.71L75.97,66.66L77.78,83.61L79.59,81.72L81.4,116.75L83.2,125.79L85.01,101.68L86.82,117.5L88.63,170.6L92.25,173.99L94.06,187.93L95.87,192.82L97.67,202.24L99.48,215.8L101.29,214.29L104.91,218.81L106.72,190.19L108.53,204.88L110.34,203.37L113.95,185.29L115.76,182.66L117.57,180.77L119.38,203.37L121.19,203.37L123,198.1L124.81,206.76L126.61,221.07L128.42,212.78L130.23,213.91L132.04,220.32L133.85,219.94L135.66,220.69L137.47,209.77L139.28,193.58L141.09,193.58L142.89,193.95L144.7,190.19L146.51,185.29L148.32,190.94L150.13,202.99L151.94,237.26L153.75,242.91L155.56,244.04L157.36,245.93L159.17,252.71L160.98,253.46L162.79,258.73L164.6,260.24L166.41,263.25L168.22,260.61L170.03,259.86L171.83,260.61L173.64,247.43L177.26,208.27L179.07,204.88L180.88,207.14L182.69,198.1L184.5,181.9L186.3,180.02L188.11,179.27L189.92,165.71L191.73,163.83L193.54,163.45L195.35,162.7L197.16,167.97L198.97,175.5L200.78,179.27L202.58,182.66L204.39,183.41L206.2,183.03L208.01,193.58L211.63,210.53L213.44,210.15L215.25,221.82L217.05,223.71L220.67,220.32L222.48,208.27L224.29,203.37L226.1,206.76L227.91,198.85L229.72,198.1L231.52,199.6L233.33,208.27L236.95,234.25L238.76,247.43L240.57,259.48L242.38,265.13L244.19,264L245.99,268.15L247.8,279.44L249.61,280.95L251.42,279.44L253.23,282.08L258.66,286.22L260.47,282.83L262.27,283.21L264.08,281.33L265.89,279.44L267.7,276.43L269.51,276.06L271.32,272.67L273.13,273.8L274.94,267.77L276.74,267.02L278.55,264.76L280.36,262.5L282.17,262.12L283.98,256.47L285.79,248.19L289.41,234.25L291.21,229.73L293.02,232.37L294.83,232.75L296.64,239.15L298.45,236.89L300.26,231.99L302.07,232.37L303.88,233.88L305.68,231.62L307.49,229.36L309.3,213.54L311.11,196.59L312.92,190.94L314.73,187.18L316.54,168.34L318.35,156.67L320.16,159.31L321.96,157.42L323.77,162.7L325.58,163.07L327.39,160.06L329.2,162.7L331.01,167.97L332.82,167.59L334.63,206.76L336.43,190.56L338.24,189.44L340.05,189.44L341.86,191.69L343.67,187.55L345.48,187.18L347.29,141.98L349.1,146.88L350.9,157.8L352.71,154.79L356.33,164.58L358.14,163.83L359.95,172.86L361.76,191.32L363.57,184.92L365.37,192.07L367.18,187.18L368.99,189.44L370.8,190.56L372.61,186.05L374.42,190.94L376.23,201.86L378.04,200.36L379.84,207.51L381.65,219.56L383.46,219.94L385.27,230.86L387.08,227.1L392.51,254.97L394.32,254.59L396.12,253.84L397.93,262.87L399.74,275.3L401.55,266.26L403.36,287.35L405.17,287.35L406.98,286.6L408.79,286.98L410.59,292.63L412.4,295.64L414.21,302.79L416.02,293L417.83,297.52L419.64,293.76L421.45,294.89L423.26,311.83L425.06,302.42L426.87,306.18L428.68,297.52L430.49,296.39L434.11,293.76L435.92,286.98L437.73,301.29L439.53,304.68L441.34,313.72L443.15,315.6L444.96,320.5L446.77,322.38L448.58,320.5L450.39,320.5L452.2,319.37L454.01,321.63L455.81,327.27L457.62,326.14L459.43,326.52L461.24,328.78L466.67,341.59L468.48,343.47L470.28,347.61L472.09,347.23L475.71,355.14L477.52,357.78L482.95,365.69L484.75,365.69L486.56,369.08L488.37,367.95L490.18,367.57L491.99,365.69L495.61,366.44L497.42,366.82L499.22,364.18L501.03,364.18L502.84,363.81L504.65,364.56L508.27,362.3L510.08,361.17L513.7,354.01L515.5,354.77L517.31,337.07L519.12,327.65L520.93,317.86L522.74,314.47L528.17,249.69L529.97,242.91L533.59,213.91L535.4,216.55L539.02,178.51L540.83,166.84L544.44,126.92L546.25,121.27L548.06,117.5L549.87,111.1L551.68,112.98L553.49,104.32L555.3,112.23L557.11,126.92L558.91,122.02L560.72,123.15L562.53,124.28L564.34,115.24L566.15,119.76L567.96,112.23L569.77,97.54L571.58,103.94L573.39,103.57L575.19,94.91L577,95.66L578.81,97.54L580.62,106.96L582.43,105.45L584.24,115.24L586.05,116L587.86,138.22L589.66,148.01L595.09,197.72L596.9,198.85L598.71,201.86L600.52,211.66L604.13,236.13L605.94,236.51L609.56,257.6L611.37,254.59L613.18,264L614.99,266.64L618.6,279.82L620.41,281.33L622.22,271.16L624.03,266.64L625.84,275.68L627.65,277.19L629.46,276.06L631.27,281.7L633.07,282.46L634.88,291.5L636.69,297.52L638.5,294.51L642.12,312.59L643.93,316.35L647.55,323.13L649.35,323.89L651.16,332.55L652.97,333.3L656.59,336.69L658.4,340.08L667.44,350.25L669.25,347.99" style="vector-effect: non-scaling-stroke; fill: none; stroke: rgb(8, 115, 191); stroke-opacity: 1; stroke-width: 0.5px; opacity: 1;"/></g><g class="points"/><g class="text"/></g><g class="trace scatter trace261970" style="stroke-miterlimit: 2;"><g class="fills"><g><path class="js-fill" d="M687.34,380L669.25,380L669.25,347.99L672.87,343.85L674.68,343.47L676.49,334.81L678.29,335.56L680.1,331.79L681.91,335.18L685.53,341.21L687.34,341.59" style="fill: rgb(8, 115, 191); fill-opacity: 0.4; stroke-width: 0;"/></g></g><g class="errorbars"/><g class="lines"><path class="js-line" d="M669.25,347.99L672.87,343.85L674.68,343.47L676.49,334.81L678.29,335.56L680.1,331.79L681.91,335.18L685.53,341.21L687.34,341.59" style="vector-effect: non-scaling-stroke; fill: none; stroke: rgb(8, 115, 191); stroke-opacity: 1; stroke-width: 2px; opacity: 1;"/></g><g class="points"/><g class="text"/></g><g class="trace scatter trace28d2ae" style="stroke-miterlimit: 2; opacity: 1;"><g class="fills"/><g class="errorbars"/><g class="lines"/><g class="points"><path class="point" transform="translate(687.34,341.59)" d="M15,0A15,15 0 1,1 0,-15A15,15 0 0,1 15,0Z" style="opacity: 1; stroke-width: 0px; fill: rgb(8, 115, 191); fill-opacity: 1;"/></g><g class="text"/></g></g></g><g class="overplot"/><path class="xlines-above crisp" style="fill: none; stroke-width: 1px; stroke: rgb(0, 0, 0); stroke-opacity: 0;" d=""/><path class="ylines-above crisp" style="fill: none;" d="M0,0"/><g class="overlines-above"/><g class="xaxislayer-above"><path class="xtick ticks crisp" d="M0,450v-5" transform="translate(109.69,0)" style="stroke: rgb(68, 68, 68); stroke-opacity: 1; stroke-width: 1px;"/><path class="xtick ticks crisp" d="M0,450v-5" transform="translate(220.03,0)" style="stroke: rgb(68, 68, 68); stroke-opacity: 1; stroke-width: 1px;"/><path class="xtick ticks crisp" d="M0,450v-5" transform="translate(326.74,0)" style="stroke: rgb(68, 68, 68); stroke-opacity: 1; stroke-width: 1px;"/><path class="xtick ticks crisp" d="M0,450v-5" transform="translate(437.08,0)" style="stroke: rgb(68, 68, 68); stroke-opacity: 1; stroke-width: 1px;"/><path class="xtick ticks crisp" d="M0,450v-5" transform="translate(547.4200000000001,0)" style="stroke: rgb(68, 68, 68); stroke-opacity: 1; stroke-width: 1px;"/><path class="xtick ticks crisp" d="M0,450v-5" transform="translate(659.56,0)" style="stroke: rgb(68, 68, 68); stroke-opacity: 1; stroke-width: 1px;"/><g class="xtick"><text text-anchor="middle" x="0" y="469" transform="translate(109.69,0)" style="font-family: 'Open Sans', verdana, arial, sans-serif; font-size: 18px; fill: rgb(42, 63, 95); fill-opacity: 1; white-space: pre;">01/11</text></g><g class="xtick"><text text-anchor="middle" x="0" y="469" transform="translate(220.03,0)" style="font-family: 'Open Sans', verdana, arial, sans-serif; font-size: 18px; fill: rgb(42, 63, 95); fill-opacity: 1; white-space: pre;">01/01</text></g><g class="xtick"><text text-anchor="middle" x="0" y="469" transform="translate(326.74,0)" style="font-family: 'Open Sans', verdana, arial, sans-serif; font-size: 18px; fill: rgb(42, 63, 95); fill-opacity: 1; white-space: pre;">01/03</text></g><g class="xtick"><text text-anchor="middle" x="0" y="469" transform="translate(437.08,0)" style="font-family: 'Open Sans', verdana, arial, sans-serif; font-size: 18px; fill: rgb(42, 63, 95); fill-opacity: 1; white-space: pre;">01/05</text></g><g class="xtick"><text text-anchor="middle" x="0" y="469" transform="translate(547.4200000000001,0)" style="font-family: 'Open Sans', verdana, arial, sans-serif; font-size: 18px; fill: rgb(42, 63, 95); fill-opacity: 1; white-space: pre;">01/07</text></g><g class="xtick"><text text-anchor="middle" x="0" y="469" transform="translate(659.56,0)" style="font-family: 'Open Sans', verdana, arial, sans-serif; font-size: 18px; fill: rgb(42, 63, 95); fill-opacity: 1; white-space: pre;">01/09</text></g></g><g class="yaxislayer-above"/><g class="overaxes-above"/></g></g><g class="polarlayer"/><g class="ternarylayer"/><g class="geolayer"/><g class="funnelarealayer"/><g class="pielayer"/><g class="treemaplayer"/><g class="sunburstlayer"/><g class="glimages"/><defs id="topdefs-8136d5"><g class="clips"/></defs><g class="layer-above"><g class="imagelayer"/><g class="shapelayer"><path data-index="0" fill-rule="evenodd" d="M-966.54,387.8L355.68,387.8" clip-path="url('#clip8136d5xy')" style="opacity: 1; stroke: rgb(255, 0, 0); stroke-opacity: 1; fill: rgb(0, 0, 0); fill-opacity: 0; stroke-dasharray: 3px, 3px; stroke-width: 1.5px;"/></g></g><g class="infolayer"><g class="g-gtitle"><text class="gtitle" x="375" y="25" text-anchor="middle" dy="0.7em" style="font-family: 'Open Sans', verdana, arial, sans-serif; font-size: 50px; fill: rgb(42, 63, 95); opacity: 1; font-weight: normal; white-space: pre;"><tspan style="font-weight:bold">Lot-et-Garonne (47)</tspan></text></g><g class="g-xtitle"/><g class="annotation" data-index="0" style="opacity: 1;"><g class="annotation-text-g" transform="rotate(0,695.34,351.59)"><g class="cursor-pointer" transform="translate(652, 316)"><rect class="bg" x="0.5" y="0.5" width="86" height="71" style="stroke-width: 1px; stroke: rgb(0, 0, 0); stroke-opacity: 0; fill: rgb(255, 255, 255); fill-opacity: 0.6;"/><text class="annotation-text" text-anchor="middle" x="43.53125" y="55.5" style="font-family: 'Open Sans', verdana, arial, sans-serif; font-size: 50px; fill: rgb(8, 115, 191); fill-opacity: 1; white-space: pre;"> <tspan style="font-weight:bold">30 </tspan></text></g></g><g class="annotation-arrow-g" style="opacity: 1;"><path d="M723.74,387.09L735.34,401.59" style="stroke-width: 1px; stroke: rgb(8, 115, 191); stroke-opacity: 1; stroke-dasharray: 0px, 0px, 18.5691px, 18.5691px;"/></g></g></g></svg>