<svg class="main-svg" xmlns="http://www.w3.org/2000/svg" xmlns:xlink="http://www.w3.org/1999/xlink" width="1125" height="750" style="" viewBox="0 0 750 500"><rect x="0" y="0" width="750" height="500" style="fill: rgb(0, 0, 0); fill-opacity: 0;"/><defs id="defs-0daf54"><g class="clips"><clipPath id="clip0daf54xyplot" class="plotclip"><rect width="700" height="380"/></clipPath><clipPath class="axesclip" id="clip0daf54x"><rect x="50" y="0" width="700" height="500"/></clipPath><clipPath class="axesclip" id="clip0daf54y"><rect x="0" y="70" width="750" height="380"/></clipPath><clipPath class="axesclip" id="clip0daf54xy"><rect x="50" y="70" width="700" height="380"/></clipPath></g><g class="gradients"/></defs><g class="bglayer"><rect class="bg" x="50" y="70" width="700" height="380" style="fill: rgb(0, 0, 0); fill-opacity: 0; stroke-width: 0;"/></g><g class="layer-below"><g class="imagelayer"/><g class="shapelayer"/></g><g class="cartesianlayer"><g class="subplot xy"><g class="layer-subplot"><g class="shapelayer"/><g class="imagelayer"/></g><g class="gridlayer"><g class="x"><path class="xgrid crisp" transform="translate(112.1,0)" d="M0,70v380" style="stroke: rgb(255, 255, 255); stroke-opacity: 1; stroke-width: 1px;"/><path class="xgrid crisp" transform="translate(226.88,0)" d="M0,70v380" style="stroke: rgb(255, 255, 255); stroke-opacity: 1; stroke-width: 1px;"/><path class="xgrid crisp" transform="translate(337.9,0)" d="M0,70v380" style="stroke: rgb(255, 255, 255); stroke-opacity: 1; stroke-width: 1px;"/><path class="xgrid crisp" transform="translate(452.69,0)" d="M0,70v380" style="stroke: rgb(255, 255, 255); stroke-opacity: 1; stroke-width: 1px;"/><path class="xgrid crisp" transform="translate(567.47,0)" d="M0,70v380" style="stroke: rgb(255, 255, 255); stroke-opacity: 1; stroke-width: 1px;"/><path class="xgrid crisp" transform="translate(684.14,0)" d="M0,70v380" style="stroke: rgb(255, 255, 255); stroke-opacity: 1; stroke-width: 1px;"/></g><g class="y"/></g><g class="zerolinelayer"/><path class="xlines-below"/><path class="ylines-below"/><g class="overlines-below"/><g class="xaxislayer-below"/><g class="yaxislayer-below"/><g class="overaxes-below"/><g class="plot" transform="translate(50, 70)" clip-path="url('#clip0daf54xyplot')"><g class="scatterlayer mlayer"><g class="trace scatter tracec9b3d0" style="stroke-miterlimit: 2;"><g class="fills"><g><path class="js-fill" d="M668.01,380L-255.91,380L-255.91,372.96L-250.27,371.52L-248.39,371.88L-227.69,372.24L-225.81,373.86L-222.04,373.86L-220.16,373.86L-218.28,372.24L-216.4,375.13L-206.99,377.11L-205.11,378.19L-197.58,376.93L-195.7,376.57L-176.88,378.92L-175,379.46L-139.25,377.83L-137.37,377.11L-122.31,376.03L-120.43,376.75L-105.38,375.13L-103.49,375.67L-94.09,374.22L-92.2,373.68L-84.68,372.6L-82.8,370.97L-75.27,370.25L-73.39,370.79L-67.74,369.89L-65.86,369.17L-62.1,368.09L-60.22,365.02L-56.45,360.14L-54.57,360.32L-50.81,358.52L-48.92,358.34L-43.28,354.73L-41.4,351.66L-39.52,353.1L-37.63,350.76L-31.99,351.12L-30.11,348.05L-26.34,342.45L-24.46,342.27L-22.58,341.73L-20.7,335.23L-18.82,333.24L-16.94,324.4L-15.05,324.22L-13.17,322.41L-9.41,323.32L-7.53,327.11L-5.65,328.73L-3.76,339.92L-1.88,337.94L0,337.22L1.88,332.7L3.76,332.88L5.65,325.3L7.53,321.87L11.29,309.05L13.17,302.19L15.05,298.58L16.94,297.86L18.82,284.86L20.7,277.82L22.58,265.19L24.46,260.13L26.34,254.72L28.23,252.19L30.11,251.65L31.99,242.08L37.63,177.27L39.52,146.22L41.4,128.89L43.28,126.91L47.04,62.64L48.92,29.79L52.69,6.14L54.57,7.94L56.45,7.76L58.33,5.24L60.22,0L62.1,9.75L63.98,15.16L65.86,17.87L67.74,18.77L69.62,20.76L71.51,37.19L73.39,63.72L75.27,124.74L77.15,134.31L80.91,168.61L82.8,167.34L84.68,190.81L86.56,201.1L88.44,181.43L90.32,209.77L92.2,234.86L94.09,242.44L95.97,244.07L97.85,265.01L99.73,279.63L101.61,288.29L103.49,294.97L105.38,297.5L107.26,298.22L109.14,298.04L111.02,298.95L112.9,303.64L114.78,308.15L116.67,310.14L118.55,308.33L120.43,310.14L122.31,310.14L124.19,313.21L127.96,313.03L129.84,303.64L131.72,302.92L133.6,299.67L135.48,299.31L137.37,292.81L141.13,279.27L143.01,283.06L144.89,283.42L146.77,282.34L152.42,282.52L154.3,280.35L156.18,286.13L158.06,299.85L159.95,299.67L161.83,297.5L169.35,278.19L171.24,278.73L173.12,265.91L175,267.17L176.88,253.63L178.76,245.87L180.65,244.25L182.53,235.76L184.41,213.38L186.29,224.39L188.17,223.49L190.05,229.81L191.94,229.44L193.82,215.18L195.7,212.48L197.58,206.52L199.46,201.82L201.34,202.73L203.23,194.06L205.11,192.26L206.99,196.23L208.87,194.24L210.75,192.26L212.63,189.01L216.4,182.51L218.28,184.86L222.04,199.84L223.92,199.48L225.81,199.48L227.69,202L229.57,209.59L231.45,212.11L233.33,212.84L235.22,207.78L238.98,222.22L240.86,219.7L246.51,231.79L248.39,233.96L250.27,239.37L252.15,241.72L254.03,243.16L255.91,250.57L257.8,248.94L259.68,240.28L261.56,237.57L263.44,229.99L265.32,224.93L267.2,224.93L270.97,213.38L272.85,220.24L276.61,227.1L278.49,222.04L280.38,222.76L282.26,224.93L287.9,229.81L289.78,227.1L291.67,234.5L293.55,233.42L297.31,237.03L299.19,236.48L302.96,226.56L304.84,217.17L306.72,215.72L308.6,207.78L312.37,198.39L314.25,187.02L316.13,175.11L318.01,171.32L319.89,171.5L321.77,161.57L323.66,149.29L325.54,130.52L327.42,118.96L329.3,93.87L331.18,81.05L333.06,77.44L336.83,40.44L338.71,28.88L340.59,17.87L342.47,21.66L344.35,27.08L346.24,29.97L348.12,85.39L350,73.29L355.65,86.29L357.53,80.87L359.41,79.61L361.29,26.9L363.17,45.13L365.05,50.19L370.7,76.18L372.58,77.44L374.46,83.94L376.34,95.5L380.11,111.92L381.99,115.17L383.87,118.42L385.75,119.69L387.63,132.86L389.52,140.09L393.28,166.44L395.16,185.4L397.04,203.63L398.92,203.45L402.69,224.75L404.57,228.9L406.45,236.67L408.33,238.65L410.22,239.19L412.1,241L413.98,246.05L415.86,248.76L417.74,252.73L419.62,268.44L421.51,266.27L423.39,258.87L425.27,256.88L427.15,262.3L429.03,265.55L430.91,265.73L432.8,254.36L434.68,264.1L436.56,268.62L438.44,270.24L440.32,289.02L442.2,287.75L444.09,289.02L445.97,287.75L447.85,291.72L449.73,292.27L451.61,294.43L453.49,285.23L457.26,304.36L459.14,311.58L462.9,323.14L464.78,323.5L466.67,332.52L468.55,336.67L470.43,339.38L472.31,346.78L476.08,352.92L477.96,353.1L483.6,365.74L485.48,367.36L487.37,371.88L489.25,372.96L493.01,374.22L494.89,374.76L498.66,373.5L500.54,371.7L504.3,370.97L506.18,371.88L511.83,373.14L513.71,373.68L517.47,371.52L519.35,366.64L523.12,356.53L525,348.77L526.88,342.09L528.76,339.02L530.65,338.3L532.53,333.43L534.41,324.4L536.29,324.4L540.05,299.31L541.94,290.82L543.82,288.66L545.7,276.74L547.58,272.95L549.46,252.37L551.34,258.69L553.23,252.55L556.99,247.5L558.87,236.48L560.75,229.44L562.63,233.24L564.52,226.01L566.4,228.72L568.28,228.72L570.16,230.53L572.04,230.17L573.92,232.87L577.69,241.36L579.57,242.98L581.45,247.14L583.33,247.32L585.22,251.11L587.1,244.07L592.74,234.32L594.62,232.51L596.51,232.69L598.39,230.53L600.27,233.96L602.15,230.89L607.8,241.9L609.68,241L613.44,252.01L615.32,261.04L617.2,265.55L619.09,264.65L620.97,265.01L622.85,266.63L624.73,273.67L626.61,275.84L628.49,276.74L630.38,279.09L632.26,285.95L634.14,289.56L636.02,289.38L637.9,295.88L645.43,322.95L647.31,322.59L649.19,323.5L651.08,329.45L652.96,335.59L654.84,337.58L656.72,337.58L658.6,341.73L660.48,345.16L662.37,345.7L664.25,345.16L666.13,346.42L668.01,349.13" style="fill: rgb(8, 115, 191); fill-opacity: 0.2; stroke-width: 0;"/></g></g><g class="errorbars"/><g class="lines"><path class="js-line" d="M-255.91,372.96L-250.27,371.52L-248.39,371.88L-227.69,372.24L-225.81,373.86L-222.04,373.86L-220.16,373.86L-218.28,372.24L-216.4,375.13L-206.99,377.11L-205.11,378.19L-197.58,376.93L-195.7,376.57L-176.88,378.92L-175,379.46L-139.25,377.83L-137.37,377.11L-122.31,376.03L-120.43,376.75L-105.38,375.13L-103.49,375.67L-94.09,374.22L-92.2,373.68L-84.68,372.6L-82.8,370.97L-75.27,370.25L-73.39,370.79L-67.74,369.89L-65.86,369.17L-62.1,368.09L-60.22,365.02L-56.45,360.14L-54.57,360.32L-50.81,358.52L-48.92,358.34L-43.28,354.73L-41.4,351.66L-39.52,353.1L-37.63,350.76L-31.99,351.12L-30.11,348.05L-26.34,342.45L-24.46,342.27L-22.58,341.73L-20.7,335.23L-18.82,333.24L-16.94,324.4L-15.05,324.22L-13.17,322.41L-9.41,323.32L-7.53,327.11L-5.65,328.73L-3.76,339.92L-1.88,337.94L0,337.22L1.88,332.7L3.76,332.88L5.65,325.3L7.53,321.87L11.29,309.05L13.17,302.19L15.05,298.58L16.94,297.86L18.82,284.86L20.7,277.82L22.58,265.19L24.46,260.13L26.34,254.72L28.23,252.19L30.11,251.65L31.99,242.08L37.63,177.27L39.52,146.22L41.4,128.89L43.28,126.91L47.04,62.64L48.92,29.79L52.69,6.14L54.57,7.94L56.45,7.76L58.33,5.24L60.22,0L62.1,9.75L63.98,15.16L65.86,17.87L67.74,18.77L69.62,20.76L71.51,37.19L73.39,63.72L75.27,124.74L77.15,134.31L80.91,168.61L82.8,167.34L84.68,190.81L86.56,201.1L88.44,181.43L90.32,209.77L92.2,234.86L94.09,242.44L95.97,244.07L97.85,265.01L99.73,279.63L101.61,288.29L103.49,294.97L105.38,297.5L107.26,298.22L109.14,298.04L111.02,298.95L112.9,303.64L114.78,308.15L116.67,310.14L118.55,308.33L120.43,310.14L122.31,310.14L124.19,313.21L127.96,313.03L129.84,303.64L131.72,302.92L133.6,299.67L135.48,299.31L137.37,292.81L141.13,279.27L143.01,283.06L144.89,283.42L146.77,282.34L152.42,282.52L154.3,280.35L156.18,286.13L158.06,299.85L159.95,299.67L161.83,297.5L169.35,278.19L171.24,278.73L173.12,265.91L175,267.17L176.88,253.63L178.76,245.87L180.65,244.25L182.53,235.76L184.41,213.38L186.29,224.39L188.17,223.49L190.05,229.81L191.94,229.44L193.82,215.18L195.7,212.48L197.58,206.52L199.46,201.82L201.34,202.73L203.23,194.06L205.11,192.26L206.99,196.23L208.87,194.24L210.75,192.26L212.63,189.01L216.4,182.51L218.28,184.86L222.04,199.84L223.92,199.48L225.81,199.48L227.69,202L229.57,209.59L231.45,212.11L233.33,212.84L235.22,207.78L238.98,222.22L240.86,219.7L246.51,231.79L248.39,233.96L250.27,239.37L252.15,241.72L254.03,243.16L255.91,250.57L257.8,248.94L259.68,240.28L261.56,237.57L263.44,229.99L265.32,224.93L267.2,224.93L270.97,213.38L272.85,220.24L276.61,227.1L278.49,222.04L280.38,222.76L282.26,224.93L287.9,229.81L289.78,227.1L291.67,234.5L293.55,233.42L297.31,237.03L299.19,236.48L302.96,226.56L304.84,217.17L306.72,215.72L308.6,207.78L312.37,198.39L314.25,187.02L316.13,175.11L318.01,171.32L319.89,171.5L321.77,161.57L323.66,149.29L325.54,130.52L327.42,118.96L329.3,93.87L331.18,81.05L333.06,77.44L336.83,40.44L338.71,28.88L340.59,17.87L342.47,21.66L344.35,27.08L346.24,29.97L348.12,85.39L350,73.29L355.65,86.29L357.53,80.87L359.41,79.61L361.29,26.9L363.17,45.13L365.05,50.19L370.7,76.18L372.58,77.44L374.46,83.94L376.34,95.5L380.11,111.92L381.99,115.17L383.87,118.42L385.75,119.69L387.63,132.86L389.52,140.09L393.28,166.44L395.16,185.4L397.04,203.63L398.92,203.45L402.69,224.75L404.57,228.9L406.45,236.67L408.33,238.65L410.22,239.19L412.1,241L413.98,246.05L415.86,248.76L417.74,252.73L419.62,268.44L421.51,266.27L423.39,258.87L425.27,256.88L427.15,262.3L429.03,265.55L430.91,265.73L432.8,254.36L434.68,264.1L436.56,268.62L438.44,270.24L440.32,289.02L442.2,287.75L444.09,289.02L445.97,287.75L447.85,291.72L449.73,292.27L451.61,294.43L453.49,285.23L457.26,304.36L459.14,311.58L462.9,323.14L464.78,323.5L466.67,332.52L468.55,336.67L470.43,339.38L472.31,346.78L476.08,352.92L477.96,353.1L483.6,365.74L485.48,367.36L487.37,371.88L489.25,372.96L493.01,374.22L494.89,374.76L498.66,373.5L500.54,371.7L504.3,370.97L506.18,371.88L511.83,373.14L513.71,373.68L517.47,371.52L519.35,366.64L523.12,356.53L525,348.77L526.88,342.09L528.76,339.02L530.65,338.3L532.53,333.43L534.41,324.4L536.29,324.4L540.05,299.31L541.94,290.82L543.82,288.66L545.7,276.74L547.58,272.95L549.46,252.37L551.34,258.69L553.23,252.55L556.99,247.5L558.87,236.48L560.75,229.44L562.63,233.24L564.52,226.01L566.4,228.72L568.28,228.72L570.16,230.53L572.04,230.17L573.92,232.87L577.69,241.36L579.57,242.98L581.45,247.14L583.33,247.32L585.22,251.11L587.1,244.07L592.74,234.32L594.62,232.51L596.51,232.69L598.39,230.53L600.27,233.96L602.15,230.89L607.8,241.9L609.68,241L613.44,252.01L615.32,261.04L617.2,265.55L619.09,264.65L620.97,265.01L622.85,266.63L624.73,273.67L626.61,275.84L628.49,276.74L630.38,279.09L632.26,285.95L634.14,289.56L636.02,289.38L637.9,295.88L645.43,322.95L647.31,322.59L649.19,323.5L651.08,329.45L652.96,335.59L654.84,337.58L656.72,337.58L658.6,341.73L660.48,345.16L662.37,345.7L664.25,345.16L666.13,346.42L668.01,349.13" style="vector-effect: non-scaling-stroke; fill: none; stroke: rgb(8, 115, 191); stroke-opacity: 1; stroke-width: 0.5px; opacity: 1;"/></g><g class="points"/><g class="text"/></g><g class="trace scatter trace87df74" style="stroke-miterlimit: 2;"><g class="fills"><g><path class="js-fill" d="M686.83,380L668.01,380L668.01,349.13L669.89,351.12L671.77,350.76L673.66,352.38L675.54,352.56L677.42,353.28L679.3,352.02L681.18,353.1L683.06,351.84L684.95,350.21L686.83,351.84" style="fill: rgb(8, 115, 191); fill-opacity: 0.4; stroke-width: 0;"/></g></g><g class="errorbars"/><g class="lines"><path class="js-line" d="M668.01,349.13L669.89,351.12L671.77,350.76L673.66,352.38L675.54,352.56L677.42,353.28L679.3,352.02L681.18,353.1L683.06,351.84L684.95,350.21L686.83,351.84" style="vector-effect: non-scaling-stroke; fill: none; stroke: rgb(8, 115, 191); stroke-opacity: 1; stroke-width: 2px; opacity: 1;"/></g><g class="points"/><g class="text"/></g><g class="trace scatter traceb93a38" style="stroke-miterlimit: 2; opacity: 1;"><g class="fills"/><g class="errorbars"/><g class="lines"/><g class="points"><path class="point" transform="translate(686.83,351.84)" d="M15,0A15,15 0 1,1 0,-15A15,15 0 0,1 15,0Z" style="opacity: 1; stroke-width: 0px; fill: rgb(8, 115, 191); fill-opacity: 1;"/></g><g class="text"/></g></g></g><g class="overplot"/><path class="xlines-above crisp" style="fill: none; stroke-width: 1px; stroke: rgb(0, 0, 0); stroke-opacity: 0;" d=""/><path class="ylines-above crisp" style="fill: none;" d="M0,0"/><g class="overlines-above"/><g class="xaxislayer-above"><path class="xtick ticks crisp" d="M0,450v-5" transform="translate(112.1,0)" style="stroke: rgb(68, 68, 68); stroke-opacity: 1; stroke-width: 1px;"/><path class="xtick ticks crisp" d="M0,450v-5" transform="translate(226.88,0)" style="stroke: rgb(68, 68, 68); stroke-opacity: 1; stroke-width: 1px;"/><path class="xtick ticks crisp" d="M0,450v-5" transform="translate(337.9,0)" style="stroke: rgb(68, 68, 68); stroke-opacity: 1; stroke-width: 1px;"/><path class="xtick ticks crisp" d="M0,450v-5" transform="translate(452.69,0)" style="stroke: rgb(68, 68, 68); stroke-opacity: 1; stroke-width: 1px;"/><path class="xtick ticks crisp" d="M0,450v-5" transform="translate(567.47,0)" style="stroke: rgb(68, 68, 68); stroke-opacity: 1; stroke-width: 1px;"/><path class="xtick ticks crisp" d="M0,450v-5" transform="translate(684.14,0)" style="stroke: rgb(68, 68, 68); stroke-opacity: 1; stroke-width: 1px;"/><g class="xtick"><text text-anchor="middle" x="0" y="469" transform="translate(112.1,0)" style="font-family: 'Open Sans', verdana, arial, sans-serif; font-size: 18px; fill: rgb(42, 63, 95); fill-opacity: 1; white-space: pre;">01/11</text></g><g class="xtick"><text text-anchor="middle" x="0" y="469" transform="translate(226.88,0)" style="font-family: 'Open Sans', verdana, arial, sans-serif; font-size: 18px; fill: rgb(42, 63, 95); fill-opacity: 1; white-space: pre;">01/01</text></g><g class="xtick"><text text-anchor="middle" x="0" y="469" transform="translate(337.9,0)" style="font-family: 'Open Sans', verdana, arial, sans-serif; font-size: 18px; fill: rgb(42, 63, 95); fill-opacity: 1; white-space: pre;">01/03</text></g><g class="xtick"><text text-anchor="middle" x="0" y="469" transform="translate(452.69,0)" style="font-family: 'Open Sans', verdana, arial, sans-serif; font-size: 18px; fill: rgb(42, 63, 95); fill-opacity: 1; white-space: pre;">01/05</text></g><g class="xtick"><text text-anchor="middle" x="0" y="469" transform="translate(567.47,0)" style="font-family: 'Open Sans', verdana, arial, sans-serif; font-size: 18px; fill: rgb(42, 63, 95); fill-opacity: 1; white-space: pre;">01/07</text></g><g class="xtick"><text text-anchor="middle" x="0" y="469" transform="translate(684.14,0)" style="font-family: 'Open Sans', verdana, arial, sans-serif; font-size: 18px; fill: rgb(42, 63, 95); fill-opacity: 1; white-space: pre;">01/09</text></g></g><g class="yaxislayer-above"/><g class="overaxes-above"/></g></g><g class="polarlayer"/><g class="ternarylayer"/><g class="geolayer"/><g class="funnelarealayer"/><g class="pielayer"/><g class="treemaplayer"/><g class="sunburstlayer"/><g class="glimages"/><defs id="topdefs-0daf54"><g class="clips"/></defs><g class="layer-above"><g class="imagelayer"/><g class="shapelayer"><path data-index="0" fill-rule="evenodd" d="M-1007.53,388.33L368.01,388.33" clip-path="url('#clip0daf54xy')" style="opacity: 1; stroke: rgb(255, 0, 0); stroke-opacity: 1; fill: rgb(0, 0, 0); fill-opacity: 0; stroke-dasharray: 3px, 3px; stroke-width: 1.5px;"/></g></g><g class="infolayer"><g class="g-gtitle"><text class="gtitle" x="375" y="25" text-anchor="middle" dy="0.7em" style="font-family: 'Open Sans', verdana, arial, sans-serif; font-size: 50px; fill: rgb(42, 63, 95); opacity: 1; font-weight: normal; white-space: pre;"><tspan style="font-weight:bold">Vendée (85)</tspan></text></g><g class="g-xtitle"/><g class="annotation" data-index="0" style="opacity: 1;"><g class="annotation-text-g" transform="rotate(0,694.83,361.84)"><g class="cursor-pointer" transform="translate(651, 326)"><rect class="bg" x="0.5" y="0.5" width="86" height="71" style="stroke-width: 1px; stroke: rgb(0, 0, 0); stroke-opacity: 0; fill: rgb(255, 255, 255); fill-opacity: 0.6;"/><text class="annotation-text" text-anchor="middle" x="43.53125" y="55.5" style="font-family: 'Open Sans', verdana, arial, sans-serif; font-size: 50px; fill: rgb(8, 115, 191); fill-opacity: 1; white-space: pre;"> <tspan style="font-weight:bold">22 </tspan></text></g></g><g class="annotation-arrow-g" style="opacity: 1;"><path d="M723.23,397.34L734.83,411.84" style="stroke-width: 1px; stroke: rgb(8, 115, 191); stroke-opacity: 1; stroke-dasharray: 0px, 0px, 18.5691px, 18.5691px;"/></g></g></g></svg>