<svg class="main-svg" xmlns="http://www.w3.org/2000/svg" xmlns:xlink="http://www.w3.org/1999/xlink" width="1125" height="750" style="" viewBox="0 0 750 500"><rect x="0" y="0" width="750" height="500" style="fill: rgb(0, 0, 0); fill-opacity: 0;"/><defs id="defs-7cee5f"><g class="clips"><clipPath id="clip7cee5fxyplot" class="plotclip"><rect width="700" height="380"/></clipPath><clipPath class="axesclip" id="clip7cee5fx"><rect x="50" y="0" width="700" height="500"/></clipPath><clipPath class="axesclip" id="clip7cee5fy"><rect x="0" y="70" width="750" height="380"/></clipPath><clipPath class="axesclip" id="clip7cee5fxy"><rect x="50" y="70" width="700" height="380"/></clipPath></g><g class="gradients"/></defs><g class="bglayer"><rect class="bg" x="50" y="70" width="700" height="380" style="fill: rgb(0, 0, 0); fill-opacity: 0; stroke-width: 0;"/></g><g class="layer-below"><g class="imagelayer"/><g class="shapelayer"/></g><g class="cartesianlayer"><g class="subplot xy"><g class="layer-subplot"><g class="shapelayer"/><g class="imagelayer"/></g><g class="gridlayer"><g class="x"><path class="xgrid crisp" transform="translate(109.22999999999999,0)" d="M0,70v380" style="stroke: rgb(255, 255, 255); stroke-opacity: 1; stroke-width: 1px;"/><path class="xgrid crisp" transform="translate(218.72,0)" d="M0,70v380" style="stroke: rgb(255, 255, 255); stroke-opacity: 1; stroke-width: 1px;"/><path class="xgrid crisp" transform="translate(324.62,0)" d="M0,70v380" style="stroke: rgb(255, 255, 255); stroke-opacity: 1; stroke-width: 1px;"/><path class="xgrid crisp" transform="translate(434.1,0)" d="M0,70v380" style="stroke: rgb(255, 255, 255); stroke-opacity: 1; stroke-width: 1px;"/><path class="xgrid crisp" transform="translate(543.5899999999999,0)" d="M0,70v380" style="stroke: rgb(255, 255, 255); stroke-opacity: 1; stroke-width: 1px;"/><path class="xgrid crisp" transform="translate(654.87,0)" d="M0,70v380" style="stroke: rgb(255, 255, 255); stroke-opacity: 1; stroke-width: 1px;"/></g><g class="y"/></g><g class="zerolinelayer"/><path class="xlines-below"/><path class="ylines-below"/><g class="overlines-below"/><g class="xaxislayer-below"/><g class="yaxislayer-below"/><g class="overaxes-below"/><g class="plot" transform="translate(50, 70)" clip-path="url('#clip7cee5fxyplot')"><g class="scatterlayer mlayer"><g class="trace scatter trace82aafa" style="stroke-miterlimit: 2;"><g class="fills"><g><path class="js-fill" d="M669.49,380L-244.1,380L-244.1,378.13L-233.33,378.96L-231.54,378.96L-220.77,379.79L-218.97,380L-208.21,379.17L-206.41,379.17L-197.44,379.79L-195.64,379.79L-129.23,377.71L-127.44,377.29L-120.26,378.75L-118.46,378.13L-105.9,373.96L-104.1,372.09L-93.33,370.84L-91.54,370.01L-86.15,363.76L-84.36,363.76L-80.77,351.68L-78.97,352.72L-75.38,350.64L-73.59,351.27L-71.79,351.06L-70,354.18L-68.21,356.26L-66.41,351.68L-62.82,352.31L-61.03,350.43L-53.85,350.85L-52.05,349.39L-50.26,343.15L-48.46,343.77L-44.87,342.31L-43.08,336.9L-39.49,319.62L-37.69,317.95L-35.9,316.7L-34.1,317.74L-30.51,305.67L-28.72,310.45L-26.92,309.62L-25.13,305.87L-21.54,306.29L-19.74,303.79L-17.95,302.54L-16.15,296.5L-14.36,299L-12.56,300.04L-8.97,298.38L-7.18,287.76L-5.38,285.26L-3.59,284.84L-1.79,283.59L0,280.05L1.79,277.97L3.59,278.6L5.38,276.31L7.18,270.48L10.77,246.53L12.56,220.09L14.36,217.17L16.15,216.55L19.74,181.78L21.54,175.53L23.33,161.37L25.13,161.79L28.72,160.33L30.51,144.09L34.1,95.99L35.9,67.88L37.69,41.85L39.49,40.39L41.28,37.9L43.08,13.74L44.87,9.79L46.67,0L48.46,3.54L50.26,14.99L52.05,15.41L53.85,17.07L55.64,25.4L57.44,14.58L59.23,34.77L61.03,40.39L62.82,35.81L64.62,36.23L66.41,35.19L68.21,66.01L70,98.07L71.79,145.96L73.59,162.2L75.38,188.23L77.18,192.6L78.97,194.48L82.56,241.53L84.36,231.12L86.15,258.82L87.95,273.6L89.74,276.1L91.54,276.52L93.33,280.89L95.13,288.8L96.92,293.59L98.72,291.3L100.51,294.84L102.31,295.25L104.1,295.25L105.9,285.88L107.69,289.42L109.49,288.8L113.08,298.79L114.87,298.59L116.67,298.79L118.46,311.08L120.26,308.37L122.05,308.58L123.85,308.58L125.64,305.04L127.44,303.58L129.23,304L131.03,301.29L132.82,292.96L136.41,288.8L138.21,283.59L141.79,281.72L143.59,269.44L145.38,274.64L147.18,272.35L148.97,256.94L150.77,276.1L154.36,274.22L156.15,273.6L157.95,266.31L159.74,253.82L161.54,259.02L163.33,258.19L165.13,254.24L166.92,252.99L170.51,239.24L172.31,247.16L174.1,250.07L175.9,233.21L177.69,234.66L179.49,234.25L183.08,225.29L184.87,218.42L186.67,188.23L188.46,180.32L190.26,176.36L192.05,175.95L193.85,168.66L195.64,156.16L197.44,150.75L199.23,155.75L201.03,148.88L202.82,149.92L206.41,152.83L208.21,159.08L210,145.34L211.79,147L213.59,144.92L215.38,141.59L217.18,139.3L218.97,135.55L220.77,134.72L222.56,139.92L224.36,150.54L226.15,156.37L227.95,162.62L229.74,165.53L231.54,174.7L233.33,188.85L236.92,226.75L238.72,234.04L242.31,234.66L244.1,250.9L245.9,252.57L247.69,256.94L249.49,259.65L251.28,268.6L253.08,271.1L254.87,271.1L256.67,273.81L258.46,283.59L260.26,281.72L262.05,277.76L263.85,276.72L265.64,280.47L267.44,279.85L269.23,278.39L271.03,276.1L272.82,268.6L274.62,270.27L276.41,266.94L278.21,259.86L280,259.23L281.79,257.98L283.59,257.98L285.38,267.98L287.18,265.27L288.97,261.94L290.77,262.36L292.56,264.23L294.36,259.23L296.15,260.48L297.95,251.11L299.74,250.7L301.54,246.95L303.33,242.16L305.13,240.91L306.92,236.95L308.72,219.88L314.1,183.65L315.9,180.53L317.69,180.94L319.49,157.41L321.28,143.67L323.08,136.38L326.67,123.68L328.46,121.18L330.26,118.89L332.05,174.9L333.85,160.33L335.64,159.08L342.82,166.16L344.62,125.35L346.41,152.62L348.21,159.7L350,170.95L351.79,170.12L353.59,176.36L355.38,175.32L357.18,174.7L358.97,183.44L360.77,193.23L362.56,187.81L364.36,197.18L366.15,201.14L367.95,200.52L369.74,207.18L371.54,206.35L373.33,208.22L376.92,225.71L378.72,231.33L380.51,232.37L382.31,235.91L385.9,251.95L387.69,261.32L389.49,271.31L391.28,272.14L393.08,271.31L394.87,281.93L396.67,291.92L398.46,294.63L400.26,309.41L402.05,313.58L403.85,308.16L405.64,310.45L407.44,315.45L409.23,313.58L411.03,314.62L412.82,302.33L416.41,306.08L418.21,306.5L420,322.53L421.79,321.91L423.59,324.82L425.38,324.82L428.97,319.62L430.77,318.37L432.56,306.71L434.36,310.45L436.15,309L437.95,315.66L439.74,318.99L441.54,324.2L443.33,325.24L445.13,332.11L448.72,345.23L450.51,346.48L452.31,350.85L454.1,351.68L455.9,351.68L457.69,355.43L459.49,355.64L461.28,356.68L464.87,360.64L466.67,360.43L468.46,360.84L470.26,360.22L472.05,360.84L473.85,362.93L479.23,362.3L481.03,362.09L484.62,366.05L486.41,366.47L490,369.59L491.79,368.96L495.38,367.92L497.18,365.84L498.97,363.13L500.77,362.09L502.56,358.35L504.36,356.47L506.15,356.26L507.95,352.1L509.74,343.98L511.54,347.93L515.13,322.95L516.92,316.91L518.72,316.91L520.51,292.34L527.69,213.84L529.49,197.6L531.28,194.68L533.08,167.41L538.46,131.59L540.26,125.14L542.05,131.59L543.85,132.22L545.64,127.85L547.44,125.56L549.23,116.6L551.03,114.1L552.82,113.69L554.62,115.98L556.41,114.1L558.21,123.68L560,130.14L561.79,146.59L563.59,146.38L565.38,157.62L567.18,157.41L568.97,158.25L570.77,171.16L572.56,174.49L574.36,178.03L576.15,195.73L579.74,211.34L581.54,211.34L586.92,240.91L588.72,246.53L590.51,254.65L592.31,253.4L594.1,255.9L595.9,263.61L597.69,276.1L599.49,283.18L601.28,284.43L603.08,289.84L604.87,295.67L606.67,294.21L608.46,301.92L610.26,299.42L615.64,312.33L617.44,314.2L619.23,315.66L621.03,323.57L622.82,335.02L624.62,338.15L626.41,343.15L628.21,345.02L630,343.35L631.79,344.81L633.59,345.02L635.38,343.15L637.18,343.15L638.97,344.6L642.56,345.64L644.36,341.48L646.15,342.73L647.95,345.64L649.74,346.27L651.54,349.6L653.33,349.6L655.13,351.06L656.92,355.01L658.72,357.1L662.31,361.26L664.1,361.47L669.49,360.01" style="fill: rgb(8, 115, 191); fill-opacity: 0.2; stroke-width: 0;"/></g></g><g class="errorbars"/><g class="lines"><path class="js-line" d="M-244.1,378.13L-233.33,378.96L-231.54,378.96L-220.77,379.79L-218.97,380L-208.21,379.17L-206.41,379.17L-197.44,379.79L-195.64,379.79L-129.23,377.71L-127.44,377.29L-120.26,378.75L-118.46,378.13L-105.9,373.96L-104.1,372.09L-93.33,370.84L-91.54,370.01L-86.15,363.76L-84.36,363.76L-80.77,351.68L-78.97,352.72L-75.38,350.64L-73.59,351.27L-71.79,351.06L-70,354.18L-68.21,356.26L-66.41,351.68L-62.82,352.31L-61.03,350.43L-53.85,350.85L-52.05,349.39L-50.26,343.15L-48.46,343.77L-44.87,342.31L-43.08,336.9L-39.49,319.62L-37.69,317.95L-35.9,316.7L-34.1,317.74L-30.51,305.67L-28.72,310.45L-26.92,309.62L-25.13,305.87L-21.54,306.29L-19.74,303.79L-17.95,302.54L-16.15,296.5L-14.36,299L-12.56,300.04L-8.97,298.38L-7.18,287.76L-5.38,285.26L-3.59,284.84L-1.79,283.59L0,280.05L1.79,277.97L3.59,278.6L5.38,276.31L7.18,270.48L10.77,246.53L12.56,220.09L14.36,217.17L16.15,216.55L19.74,181.78L21.54,175.53L23.33,161.37L25.13,161.79L28.72,160.33L30.51,144.09L34.1,95.99L35.9,67.88L37.69,41.85L39.49,40.39L41.28,37.9L43.08,13.74L44.87,9.79L46.67,0L48.46,3.54L50.26,14.99L52.05,15.41L53.85,17.07L55.64,25.4L57.44,14.58L59.23,34.77L61.03,40.39L62.82,35.81L64.62,36.23L66.41,35.19L68.21,66.01L70,98.07L71.79,145.96L73.59,162.2L75.38,188.23L77.18,192.6L78.97,194.48L82.56,241.53L84.36,231.12L86.15,258.82L87.95,273.6L89.74,276.1L91.54,276.52L93.33,280.89L95.13,288.8L96.92,293.59L98.72,291.3L100.51,294.84L102.31,295.25L104.1,295.25L105.9,285.88L107.69,289.42L109.49,288.8L113.08,298.79L114.87,298.59L116.67,298.79L118.46,311.08L120.26,308.37L122.05,308.58L123.85,308.58L125.64,305.04L127.44,303.58L129.23,304L131.03,301.29L132.82,292.96L136.41,288.8L138.21,283.59L141.79,281.72L143.59,269.44L145.38,274.64L147.18,272.35L148.97,256.94L150.77,276.1L154.36,274.22L156.15,273.6L157.95,266.31L159.74,253.82L161.54,259.02L163.33,258.19L165.13,254.24L166.92,252.99L170.51,239.24L172.31,247.16L174.1,250.07L175.9,233.21L177.69,234.66L179.49,234.25L183.08,225.29L184.87,218.42L186.67,188.23L188.46,180.32L190.26,176.36L192.05,175.95L193.85,168.66L195.64,156.16L197.44,150.75L199.23,155.75L201.03,148.88L202.82,149.92L206.41,152.83L208.21,159.08L210,145.34L211.79,147L213.59,144.92L215.38,141.59L217.18,139.3L218.97,135.55L220.77,134.72L222.56,139.92L224.36,150.54L226.15,156.37L227.95,162.62L229.74,165.53L231.54,174.7L233.33,188.85L236.92,226.75L238.72,234.04L242.31,234.66L244.1,250.9L245.9,252.57L247.69,256.94L249.49,259.65L251.28,268.6L253.08,271.1L254.87,271.1L256.67,273.81L258.46,283.59L260.26,281.72L262.05,277.76L263.85,276.72L265.64,280.47L267.44,279.85L269.23,278.39L271.03,276.1L272.82,268.6L274.62,270.27L276.41,266.94L278.21,259.86L280,259.23L281.79,257.98L283.59,257.98L285.38,267.98L287.18,265.27L288.97,261.94L290.77,262.36L292.56,264.23L294.36,259.23L296.15,260.48L297.95,251.11L299.74,250.7L301.54,246.95L303.33,242.16L305.13,240.91L306.92,236.95L308.72,219.88L314.1,183.65L315.9,180.53L317.69,180.94L319.49,157.41L321.28,143.67L323.08,136.38L326.67,123.68L328.46,121.18L330.26,118.89L332.05,174.9L333.85,160.33L335.64,159.08L342.82,166.16L344.62,125.35L346.41,152.62L348.21,159.7L350,170.95L351.79,170.12L353.59,176.36L355.38,175.32L357.18,174.7L358.97,183.44L360.77,193.23L362.56,187.81L364.36,197.18L366.15,201.14L367.95,200.52L369.74,207.18L371.54,206.35L373.33,208.22L376.92,225.71L378.72,231.33L380.51,232.37L382.31,235.91L385.9,251.95L387.69,261.32L389.49,271.31L391.28,272.14L393.08,271.31L394.87,281.93L396.67,291.92L398.46,294.63L400.26,309.41L402.05,313.58L403.85,308.16L405.64,310.45L407.44,315.45L409.23,313.58L411.03,314.62L412.82,302.33L416.41,306.08L418.21,306.5L420,322.53L421.79,321.91L423.59,324.82L425.38,324.82L428.97,319.62L430.77,318.37L432.56,306.71L434.36,310.45L436.15,309L437.95,315.66L439.74,318.99L441.54,324.2L443.33,325.24L445.13,332.11L448.72,345.23L450.51,346.48L452.31,350.85L454.1,351.68L455.9,351.68L457.69,355.43L459.49,355.64L461.28,356.68L464.87,360.64L466.67,360.43L468.46,360.84L470.26,360.22L472.05,360.84L473.85,362.93L479.23,362.3L481.03,362.09L484.62,366.05L486.41,366.47L490,369.59L491.79,368.96L495.38,367.92L497.18,365.84L498.97,363.13L500.77,362.09L502.56,358.35L504.36,356.47L506.15,356.26L507.95,352.1L509.74,343.98L511.54,347.93L515.13,322.95L516.92,316.91L518.72,316.91L520.51,292.34L527.69,213.84L529.49,197.6L531.28,194.68L533.08,167.41L538.46,131.59L540.26,125.14L542.05,131.59L543.85,132.22L545.64,127.85L547.44,125.56L549.23,116.6L551.03,114.1L552.82,113.69L554.62,115.98L556.41,114.1L558.21,123.68L560,130.14L561.79,146.59L563.59,146.38L565.38,157.62L567.18,157.41L568.97,158.25L570.77,171.16L572.56,174.49L574.36,178.03L576.15,195.73L579.74,211.34L581.54,211.34L586.92,240.91L588.72,246.53L590.51,254.65L592.31,253.4L594.1,255.9L595.9,263.61L597.69,276.1L599.49,283.18L601.28,284.43L603.08,289.84L604.87,295.67L606.67,294.21L608.46,301.92L610.26,299.42L615.64,312.33L617.44,314.2L619.23,315.66L621.03,323.57L622.82,335.02L624.62,338.15L626.41,343.15L628.21,345.02L630,343.35L631.79,344.81L633.59,345.02L635.38,343.15L637.18,343.15L638.97,344.6L642.56,345.64L644.36,341.48L646.15,342.73L647.95,345.64L649.74,346.27L651.54,349.6L653.33,349.6L655.13,351.06L656.92,355.01L658.72,357.1L662.31,361.26L664.1,361.47L669.49,360.01" style="vector-effect: non-scaling-stroke; fill: none; stroke: rgb(8, 115, 191); stroke-opacity: 1; stroke-width: 0.5px; opacity: 1;"/></g><g class="points"/><g class="text"/></g><g class="trace scatter trace07ef49" style="stroke-miterlimit: 2;"><g class="fills"><g><path class="js-fill" d="M687.44,380L669.49,380L669.49,360.01L671.28,356.68L673.08,356.05L676.67,349.18L678.46,348.98L682.05,348.56L683.85,347.31L685.64,343.35L687.44,342.52" style="fill: rgb(8, 115, 191); fill-opacity: 0.4; stroke-width: 0;"/></g></g><g class="errorbars"/><g class="lines"><path class="js-line" d="M669.49,360.01L671.28,356.68L673.08,356.05L676.67,349.18L678.46,348.98L682.05,348.56L683.85,347.31L685.64,343.35L687.44,342.52" style="vector-effect: non-scaling-stroke; fill: none; stroke: rgb(8, 115, 191); stroke-opacity: 1; stroke-width: 2px; opacity: 1;"/></g><g class="points"/><g class="text"/></g><g class="trace scatter trace03195a" style="stroke-miterlimit: 2; opacity: 1;"><g class="fills"/><g class="errorbars"/><g class="lines"/><g class="points"><path class="point" transform="translate(687.44,342.52)" d="M15,0A15,15 0 1,1 0,-15A15,15 0 0,1 15,0Z" style="opacity: 1; stroke-width: 0px; fill: rgb(8, 115, 191); fill-opacity: 1;"/></g><g class="text"/></g></g></g><g class="overplot"/><path class="xlines-above crisp" style="fill: none; stroke-width: 1px; stroke: rgb(0, 0, 0); stroke-opacity: 0;" d=""/><path class="ylines-above crisp" style="fill: none;" d="M0,0"/><g class="overlines-above"/><g class="xaxislayer-above"><path class="xtick ticks crisp" d="M0,450v-5" transform="translate(109.22999999999999,0)" style="stroke: rgb(68, 68, 68); stroke-opacity: 1; stroke-width: 1px;"/><path class="xtick ticks crisp" d="M0,450v-5" transform="translate(218.72,0)" style="stroke: rgb(68, 68, 68); stroke-opacity: 1; stroke-width: 1px;"/><path class="xtick ticks crisp" d="M0,450v-5" transform="translate(324.62,0)" style="stroke: rgb(68, 68, 68); stroke-opacity: 1; stroke-width: 1px;"/><path class="xtick ticks crisp" d="M0,450v-5" transform="translate(434.1,0)" style="stroke: rgb(68, 68, 68); stroke-opacity: 1; stroke-width: 1px;"/><path class="xtick ticks crisp" d="M0,450v-5" transform="translate(543.5899999999999,0)" style="stroke: rgb(68, 68, 68); stroke-opacity: 1; stroke-width: 1px;"/><path class="xtick ticks crisp" d="M0,450v-5" transform="translate(654.87,0)" style="stroke: rgb(68, 68, 68); stroke-opacity: 1; stroke-width: 1px;"/><g class="xtick"><text text-anchor="middle" x="0" y="469" transform="translate(109.22999999999999,0)" style="font-family: 'Open Sans', verdana, arial, sans-serif; font-size: 18px; fill: rgb(42, 63, 95); fill-opacity: 1; white-space: pre;">01/11</text></g><g class="xtick"><text text-anchor="middle" x="0" y="469" transform="translate(218.72,0)" style="font-family: 'Open Sans', verdana, arial, sans-serif; font-size: 18px; fill: rgb(42, 63, 95); fill-opacity: 1; white-space: pre;">01/01</text></g><g class="xtick"><text text-anchor="middle" x="0" y="469" transform="translate(324.62,0)" style="font-family: 'Open Sans', verdana, arial, sans-serif; font-size: 18px; fill: rgb(42, 63, 95); fill-opacity: 1; white-space: pre;">01/03</text></g><g class="xtick"><text text-anchor="middle" x="0" y="469" transform="translate(434.1,0)" style="font-family: 'Open Sans', verdana, arial, sans-serif; font-size: 18px; fill: rgb(42, 63, 95); fill-opacity: 1; white-space: pre;">01/05</text></g><g class="xtick"><text text-anchor="middle" x="0" y="469" transform="translate(543.5899999999999,0)" style="font-family: 'Open Sans', verdana, arial, sans-serif; font-size: 18px; fill: rgb(42, 63, 95); fill-opacity: 1; white-space: pre;">01/07</text></g><g class="xtick"><text text-anchor="middle" x="0" y="469" transform="translate(654.87,0)" style="font-family: 'Open Sans', verdana, arial, sans-serif; font-size: 18px; fill: rgb(42, 63, 95); fill-opacity: 1; white-space: pre;">01/09</text></g></g><g class="yaxislayer-above"/><g class="overaxes-above"/></g></g><g class="polarlayer"/><g class="ternarylayer"/><g class="geolayer"/><g class="funnelarealayer"/><g class="pielayer"/><g class="treemaplayer"/><g class="sunburstlayer"/><g class="glimages"/><defs id="topdefs-7cee5f"><g class="clips"/></defs><g class="layer-above"><g class="imagelayer"/><g class="shapelayer"><path data-index="0" fill-rule="evenodd" d="M-958.72,409.62L353.33,409.62" clip-path="url('#clip7cee5fxy')" style="opacity: 1; stroke: rgb(255, 0, 0); stroke-opacity: 1; fill: rgb(0, 0, 0); fill-opacity: 0; stroke-dasharray: 3px, 3px; stroke-width: 1.5px;"/></g></g><g class="infolayer"><g class="g-gtitle"><text class="gtitle" x="375" y="25" text-anchor="middle" dy="0.7em" style="font-family: 'Open Sans', verdana, arial, sans-serif; font-size: 50px; fill: rgb(42, 63, 95); opacity: 1; font-weight: normal; white-space: pre;"><tspan style="font-weight:bold">Tarn (81)</tspan></text></g><g class="g-xtitle"/><g class="annotation" data-index="0" style="opacity: 1;"><g class="annotation-text-g" transform="rotate(0,695.44,352.52)"><g class="cursor-pointer" transform="translate(652, 317)"><rect class="bg" x="0.5" y="0.5" width="86" height="71" style="stroke-width: 1px; stroke: rgb(0, 0, 0); stroke-opacity: 0; fill: rgb(255, 255, 255); fill-opacity: 0.6;"/><text class="annotation-text" text-anchor="middle" x="43.53125" y="55.5" style="font-family: 'Open Sans', verdana, arial, sans-serif; font-size: 50px; fill: rgb(8, 115, 191); fill-opacity: 1; white-space: pre;"> <tspan style="font-weight:bold">46 </tspan></text></g></g><g class="annotation-arrow-g" style="opacity: 1;"><path d="M723.84,388.02L735.44,402.52" style="stroke-width: 1px; stroke: rgb(8, 115, 191); stroke-opacity: 1; stroke-dasharray: 0px, 0px, 18.569px, 18.569px;"/></g></g></g></svg>