<svg class="main-svg" xmlns="http://www.w3.org/2000/svg" xmlns:xlink="http://www.w3.org/1999/xlink" width="1125" height="750" style="" viewBox="0 0 750 500"><rect x="0" y="0" width="750" height="500" style="fill: rgb(0, 0, 0); fill-opacity: 0;"/><defs id="defs-cc3ac5"><g class="clips"><clipPath id="clipcc3ac5xyplot" class="plotclip"><rect width="700" height="380"/></clipPath><clipPath class="axesclip" id="clipcc3ac5x"><rect x="50" y="0" width="700" height="500"/></clipPath><clipPath class="axesclip" id="clipcc3ac5y"><rect x="0" y="70" width="750" height="380"/></clipPath><clipPath class="axesclip" id="clipcc3ac5xy"><rect x="50" y="70" width="700" height="380"/></clipPath></g><g class="gradients"/></defs><g class="bglayer"><rect class="bg" x="50" y="70" width="700" height="380" style="fill: rgb(0, 0, 0); fill-opacity: 0; stroke-width: 0;"/></g><g class="layer-below"><g class="imagelayer"/><g class="shapelayer"/></g><g class="cartesianlayer"><g class="subplot xy"><g class="layer-subplot"><g class="shapelayer"/><g class="imagelayer"/></g><g class="gridlayer"><g class="x"><path class="xgrid crisp" transform="translate(91.85,0)" d="M0,70v380" style="stroke: rgb(255, 255, 255); stroke-opacity: 1; stroke-width: 1px;"/><path class="xgrid crisp" transform="translate(169.2,0)" d="M0,70v380" style="stroke: rgb(255, 255, 255); stroke-opacity: 1; stroke-width: 1px;"/><path class="xgrid crisp" transform="translate(244.02,0)" d="M0,70v380" style="stroke: rgb(255, 255, 255); stroke-opacity: 1; stroke-width: 1px;"/><path class="xgrid crisp" transform="translate(321.38,0)" d="M0,70v380" style="stroke: rgb(255, 255, 255); stroke-opacity: 1; stroke-width: 1px;"/><path class="xgrid crisp" transform="translate(398.73,0)" d="M0,70v380" style="stroke: rgb(255, 255, 255); stroke-opacity: 1; stroke-width: 1px;"/><path class="xgrid crisp" transform="translate(477.36,0)" d="M0,70v380" style="stroke: rgb(255, 255, 255); stroke-opacity: 1; stroke-width: 1px;"/><path class="xgrid crisp" transform="translate(554.71,0)" d="M0,70v380" style="stroke: rgb(255, 255, 255); stroke-opacity: 1; stroke-width: 1px;"/><path class="xgrid crisp" transform="translate(632.07,0)" d="M0,70v380" style="stroke: rgb(255, 255, 255); stroke-opacity: 1; stroke-width: 1px;"/><path class="xgrid crisp" transform="translate(706.88,0)" d="M0,70v380" style="stroke: rgb(255, 255, 255); stroke-opacity: 1; stroke-width: 1px;"/></g><g class="y"/></g><g class="zerolinelayer"/><path class="xlines-below"/><path class="ylines-below"/><g class="overlines-below"/><g class="xaxislayer-below"/><g class="yaxislayer-below"/><g class="overaxes-below"/><g class="plot" transform="translate(50, 70)" clip-path="url('#clipcc3ac5xyplot')"><g class="scatterlayer mlayer"><g class="trace scatter tracea9a708" style="stroke-miterlimit: 2;"><g class="fills"><g><path class="js-fill" d="M678.44,380L-172.46,380L-172.46,378.36L-164.86,379.03L-163.59,377.6L-159.78,372.89L-158.51,368.13L-153.44,362.3L-152.17,363.83L-150.91,364.29L-149.64,368.59L-145.83,373.5L-144.57,373.66L-136.96,373.14L-135.69,373.14L-131.88,374.22L-130.62,374.06L-115.4,374.27L-114.13,374.88L-103.99,377.24L-102.72,376.83L-82.43,375.6L-81.16,375.7L-77.36,375.96L-76.09,375.75L-73.55,376.21L-72.28,376.01L-64.67,375.6L-63.41,376.01L-41.85,375.8L-40.58,375.7L-35.51,374.22L-34.24,374.22L-27.9,373.4L-26.63,374.12L-20.29,374.22L-19.02,374.32L-16.49,373.96L-15.22,374.27L-12.68,375.19L-11.41,375.19L-8.88,375.09L-7.61,374.99L1.27,374.01L2.54,374.17L5.07,374.17L6.34,373.91L8.88,373.76L10.14,373.76L11.41,373.81L12.68,372.33L16.49,371.66L17.75,372.48L29.17,371.76L30.43,371.25L31.7,372.38L32.97,371.4L34.24,372.33L35.51,370.94L38.04,370.48L39.31,368.95L41.85,367.62L43.12,365.57L46.92,365.21L48.19,366.29L49.46,365.42L50.72,367.21L54.53,368.74L55.8,368.95L58.33,370.53L59.6,369.87L62.14,371.56L63.41,371.51L67.21,372.53L68.48,373.35L73.55,373.81L74.82,373.2L76.09,372.99L77.36,371.66L81.16,370.38L82.43,370.33L84.96,371L86.23,371.66L90.04,372.58L91.3,372.63L92.57,373.25L93.84,372.84L97.64,372.17L98.91,372.43L100.18,372.43L101.45,371.51L105.25,371.76L106.52,372.79L111.59,373.04L112.86,373.5L117.93,371.05L119.2,369.87L120.47,369.31L121.74,367.93L124.28,365.98L125.54,366.65L126.81,366.95L128.08,365.47L130.62,360.3L131.88,358.2L134.42,353.34L135.69,353.19L138.22,350.17L139.49,349.97L142.03,345.36L143.3,344.34L144.57,343.67L145.83,338.51L147.1,335.18L148.37,328.68L149.64,325.25L150.91,318.81L153.44,314.71L154.71,304.84L159.78,261.35L161.05,259.71L163.59,256.54L164.86,258.64L166.12,255.21L167.39,263.7L168.66,261.66L169.93,261.55L172.46,257.87L173.73,259.4L175,259.4L176.27,258.48L178.8,266.01L180.07,267.13L183.88,293.48L185.14,301.87L186.41,313.08L187.68,312.41L188.95,315.02L190.22,320.7L194.02,339.12L195.29,344.34L196.56,348.28L197.83,349.56L199.09,354.52L200.36,354.21L202.9,358.92L204.17,357.33L205.43,354.47L206.7,354.32L207.97,355.19L209.24,357.54L210.51,358.92L211.78,357.95L214.31,366.34L215.58,367L219.38,370.84L220.65,371.61L221.92,371.05L223.19,371.35L230.8,372.27L232.07,372.17L233.33,372.12L234.6,373.76L237.14,373.76L238.41,374.17L242.21,373.76L243.48,372.53L247.28,372.02L248.55,372.79L251.09,373.4L252.36,372.63L254.89,373.66L256.16,373.3L259.96,372.84L261.23,373.96L270.11,376.42L271.38,376.42L275.18,377.49L276.45,377.54L281.52,378.06L282.79,378.26L285.33,378.52L286.59,378.52L289.13,376.98L290.4,377.24L295.47,376.88L296.74,377.7L299.28,378.87L300.54,378.77L306.88,378.98L308.15,378.67L310.69,378.82L311.96,378.67L318.3,378.52L319.57,378.77L342.39,379.33L343.66,379.18L371.56,379.39L372.83,379.54L379.17,378.82L380.43,378.62L388.04,377.9L389.31,378L399.46,376.83L400.72,376.52L407.07,376.47L408.33,376.47L410.87,376.62L412.14,376.16L415.94,375.91L417.21,375.09L422.28,373.96L423.55,373.4L426.09,372.84L427.36,372.58L432.43,372.68L433.7,373.35L445.11,374.32L446.38,374.27L448.91,374.63L450.18,374.99L457.79,375.6L459.06,374.68L461.59,374.88L462.86,375.19L466.67,375.34L467.93,376.52L471.74,377.03L473.01,377.08L475.54,377.44L476.81,377.34L483.15,377.44L484.42,378L489.49,377.49L490.76,377.54L492.03,377.34L493.3,376.37L495.83,376.26L497.1,376.01L499.64,375.65L500.91,376.21L507.25,373.66L508.51,373.66L509.78,371.97L511.05,373.25L517.39,375.7L518.66,376.01L521.2,375.24L522.46,375.19L523.73,375.5L525,374.83L527.54,375.5L528.8,376.16L536.41,376.73L537.68,376.67L545.29,376.37L546.56,375.8L550.36,375.75L551.63,375.7L557.97,374.99L559.24,374.78L563.04,373.96L564.31,371.81L570.65,363.88L571.92,352.58L574.46,314.61L575.72,285.5L578.26,245.49L579.53,230.6L582.07,113.48L583.33,78.54L587.14,0L588.41,6.6L594.75,180.46L596.01,205.89L597.28,212.13L598.55,236.18L601.09,285.09L602.36,302.54L604.89,321.98L606.16,325.15L608.7,346.79L609.96,353.85L613.77,364.96L615.04,365.78L617.57,369.15L618.84,370.79L622.64,372.89L623.91,372.84L626.45,374.58L627.72,375.19L630.25,376.73L631.52,376.32L634.06,376.93L635.33,377.29L639.13,377.19L640.4,377.75L653.08,378.16L654.35,378L659.42,377.19L660.69,377.49L665.76,377.85L667.03,377.9L678.44,377.6" style="fill: rgb(8, 115, 191); fill-opacity: 0.2; stroke-width: 0;"/></g></g><g class="errorbars"/><g class="lines"><path class="js-line" d="M-172.46,378.36L-164.86,379.03L-163.59,377.6L-159.78,372.89L-158.51,368.13L-153.44,362.3L-152.17,363.83L-150.91,364.29L-149.64,368.59L-145.83,373.5L-144.57,373.66L-136.96,373.14L-135.69,373.14L-131.88,374.22L-130.62,374.06L-115.4,374.27L-114.13,374.88L-103.99,377.24L-102.72,376.83L-82.43,375.6L-81.16,375.7L-77.36,375.96L-76.09,375.75L-73.55,376.21L-72.28,376.01L-64.67,375.6L-63.41,376.01L-41.85,375.8L-40.58,375.7L-35.51,374.22L-34.24,374.22L-27.9,373.4L-26.63,374.12L-20.29,374.22L-19.02,374.32L-16.49,373.96L-15.22,374.27L-12.68,375.19L-11.41,375.19L-8.88,375.09L-7.61,374.99L1.27,374.01L2.54,374.17L5.07,374.17L6.34,373.91L8.88,373.76L10.14,373.76L11.41,373.81L12.68,372.33L16.49,371.66L17.75,372.48L29.17,371.76L30.43,371.25L31.7,372.38L32.97,371.4L34.24,372.33L35.51,370.94L38.04,370.48L39.31,368.95L41.85,367.62L43.12,365.57L46.92,365.21L48.19,366.29L49.46,365.42L50.72,367.21L54.53,368.74L55.8,368.95L58.33,370.53L59.6,369.87L62.14,371.56L63.41,371.51L67.21,372.53L68.48,373.35L73.55,373.81L74.82,373.2L76.09,372.99L77.36,371.66L81.16,370.38L82.43,370.33L84.96,371L86.23,371.66L90.04,372.58L91.3,372.63L92.57,373.25L93.84,372.84L97.64,372.17L98.91,372.43L100.18,372.43L101.45,371.51L105.25,371.76L106.52,372.79L111.59,373.04L112.86,373.5L117.93,371.05L119.2,369.87L120.47,369.31L121.74,367.93L124.28,365.98L125.54,366.65L126.81,366.95L128.08,365.47L130.62,360.3L131.88,358.2L134.42,353.34L135.69,353.19L138.22,350.17L139.49,349.97L142.03,345.36L143.3,344.34L144.57,343.67L145.83,338.51L147.1,335.18L148.37,328.68L149.64,325.25L150.91,318.81L153.44,314.71L154.71,304.84L159.78,261.35L161.05,259.71L163.59,256.54L164.86,258.64L166.12,255.21L167.39,263.7L168.66,261.66L169.93,261.55L172.46,257.87L173.73,259.4L175,259.4L176.27,258.48L178.8,266.01L180.07,267.13L183.88,293.48L185.14,301.87L186.41,313.08L187.68,312.41L188.95,315.02L190.22,320.7L194.02,339.12L195.29,344.34L196.56,348.28L197.83,349.56L199.09,354.52L200.36,354.21L202.9,358.92L204.17,357.33L205.43,354.47L206.7,354.32L207.97,355.19L209.24,357.54L210.51,358.92L211.78,357.95L214.31,366.34L215.58,367L219.38,370.84L220.65,371.61L221.92,371.05L223.19,371.35L230.8,372.27L232.07,372.17L233.33,372.12L234.6,373.76L237.14,373.76L238.41,374.17L242.21,373.76L243.48,372.53L247.28,372.02L248.55,372.79L251.09,373.4L252.36,372.63L254.89,373.66L256.16,373.3L259.96,372.84L261.23,373.96L270.11,376.42L271.38,376.42L275.18,377.49L276.45,377.54L281.52,378.06L282.79,378.26L285.33,378.52L286.59,378.52L289.13,376.98L290.4,377.24L295.47,376.88L296.74,377.7L299.28,378.87L300.54,378.77L306.88,378.98L308.15,378.67L310.69,378.82L311.96,378.67L318.3,378.52L319.57,378.77L342.39,379.33L343.66,379.18L371.56,379.39L372.83,379.54L379.17,378.82L380.43,378.62L388.04,377.9L389.31,378L399.46,376.83L400.72,376.52L407.07,376.47L408.33,376.47L410.87,376.62L412.14,376.16L415.94,375.91L417.21,375.09L422.28,373.96L423.55,373.4L426.09,372.84L427.36,372.58L432.43,372.68L433.7,373.35L445.11,374.32L446.38,374.27L448.91,374.63L450.18,374.99L457.79,375.6L459.06,374.68L461.59,374.88L462.86,375.19L466.67,375.34L467.93,376.52L471.74,377.03L473.01,377.08L475.54,377.44L476.81,377.34L483.15,377.44L484.42,378L489.49,377.49L490.76,377.54L492.03,377.34L493.3,376.37L495.83,376.26L497.1,376.01L499.64,375.65L500.91,376.21L507.25,373.66L508.51,373.66L509.78,371.97L511.05,373.25L517.39,375.7L518.66,376.01L521.2,375.24L522.46,375.19L523.73,375.5L525,374.83L527.54,375.5L528.8,376.16L536.41,376.73L537.68,376.67L545.29,376.37L546.56,375.8L550.36,375.75L551.63,375.7L557.97,374.99L559.24,374.78L563.04,373.96L564.31,371.81L570.65,363.88L571.92,352.58L574.46,314.61L575.72,285.5L578.26,245.49L579.53,230.6L582.07,113.48L583.33,78.54L587.14,0L588.41,6.6L594.75,180.46L596.01,205.89L597.28,212.13L598.55,236.18L601.09,285.09L602.36,302.54L604.89,321.98L606.16,325.15L608.7,346.79L609.96,353.85L613.77,364.96L615.04,365.78L617.57,369.15L618.84,370.79L622.64,372.89L623.91,372.84L626.45,374.58L627.72,375.19L630.25,376.73L631.52,376.32L634.06,376.93L635.33,377.29L639.13,377.19L640.4,377.75L653.08,378.16L654.35,378L659.42,377.19L660.69,377.49L665.76,377.85L667.03,377.9L678.44,377.6" style="vector-effect: non-scaling-stroke; fill: none; stroke: rgb(8, 115, 191); stroke-opacity: 1; stroke-width: 0.5px; opacity: 1;"/></g><g class="points"/><g class="text"/></g><g class="trace scatter trace9f0065" style="stroke-miterlimit: 2;"><g class="fills"><g><path class="js-fill" d="M691.12,380L678.44,380L678.44,377.6L683.51,378.06L684.78,378.21L689.86,377.49L691.12,377.34" style="fill: rgb(8, 115, 191); fill-opacity: 0.4; stroke-width: 0;"/></g></g><g class="errorbars"/><g class="lines"><path class="js-line" d="M678.44,377.6L683.51,378.06L684.78,378.21L689.86,377.49L691.12,377.34" style="vector-effect: non-scaling-stroke; fill: none; stroke: rgb(8, 115, 191); stroke-opacity: 1; stroke-width: 2px; opacity: 1;"/></g><g class="points"/><g class="text"/></g><g class="trace scatter trace06f025" style="stroke-miterlimit: 2; opacity: 1;"><g class="fills"/><g class="errorbars"/><g class="lines"/><g class="points"><path class="point" transform="translate(691.12,377.34)" d="M15,0A15,15 0 1,1 0,-15A15,15 0 0,1 15,0Z" style="opacity: 1; stroke-width: 0px; fill: rgb(8, 115, 191); fill-opacity: 1;"/></g><g class="text"/></g></g></g><g class="overplot"/><path class="xlines-above crisp" style="fill: none; stroke-width: 1px; stroke: rgb(0, 0, 0); stroke-opacity: 0;" d=""/><path class="ylines-above crisp" style="fill: none;" d="M0,0"/><g class="overlines-above"/><g class="xaxislayer-above"><path class="xtick ticks crisp" d="M0,450v-5" transform="translate(91.85,0)" style="stroke: rgb(68, 68, 68); stroke-opacity: 1; stroke-width: 1px;"/><path class="xtick ticks crisp" d="M0,450v-5" transform="translate(169.2,0)" style="stroke: rgb(68, 68, 68); stroke-opacity: 1; stroke-width: 1px;"/><path class="xtick ticks crisp" d="M0,450v-5" transform="translate(244.02,0)" style="stroke: rgb(68, 68, 68); stroke-opacity: 1; stroke-width: 1px;"/><path class="xtick ticks crisp" d="M0,450v-5" transform="translate(321.38,0)" style="stroke: rgb(68, 68, 68); stroke-opacity: 1; stroke-width: 1px;"/><path class="xtick ticks crisp" d="M0,450v-5" transform="translate(398.73,0)" style="stroke: rgb(68, 68, 68); stroke-opacity: 1; stroke-width: 1px;"/><path class="xtick ticks crisp" d="M0,450v-5" transform="translate(477.36,0)" style="stroke: rgb(68, 68, 68); stroke-opacity: 1; stroke-width: 1px;"/><path class="xtick ticks crisp" d="M0,450v-5" transform="translate(554.71,0)" style="stroke: rgb(68, 68, 68); stroke-opacity: 1; stroke-width: 1px;"/><path class="xtick ticks crisp" d="M0,450v-5" transform="translate(632.07,0)" style="stroke: rgb(68, 68, 68); stroke-opacity: 1; stroke-width: 1px;"/><path class="xtick ticks crisp" d="M0,450v-5" transform="translate(706.88,0)" style="stroke: rgb(68, 68, 68); stroke-opacity: 1; stroke-width: 1px;"/><g class="xtick"><text text-anchor="middle" x="0" y="469" transform="translate(91.85,0)" style="font-family: 'Open Sans', verdana, arial, sans-serif; font-size: 18px; fill: rgb(42, 63, 95); fill-opacity: 1; white-space: pre;">01/11</text></g><g class="xtick"><text text-anchor="middle" x="0" y="469" transform="translate(169.2,0)" style="font-family: 'Open Sans', verdana, arial, sans-serif; font-size: 18px; fill: rgb(42, 63, 95); fill-opacity: 1; white-space: pre;">01/01</text></g><g class="xtick"><text text-anchor="middle" x="0" y="469" transform="translate(244.02,0)" style="font-family: 'Open Sans', verdana, arial, sans-serif; font-size: 18px; fill: rgb(42, 63, 95); fill-opacity: 1; white-space: pre;">01/03</text></g><g class="xtick"><text text-anchor="middle" x="0" y="469" transform="translate(321.38,0)" style="font-family: 'Open Sans', verdana, arial, sans-serif; font-size: 18px; fill: rgb(42, 63, 95); fill-opacity: 1; white-space: pre;">01/05</text></g><g class="xtick"><text text-anchor="middle" x="0" y="469" transform="translate(398.73,0)" style="font-family: 'Open Sans', verdana, arial, sans-serif; font-size: 18px; fill: rgb(42, 63, 95); fill-opacity: 1; white-space: pre;">01/07</text></g><g class="xtick"><text text-anchor="middle" x="0" y="469" transform="translate(477.36,0)" style="font-family: 'Open Sans', verdana, arial, sans-serif; font-size: 18px; fill: rgb(42, 63, 95); fill-opacity: 1; white-space: pre;">01/09</text></g><g class="xtick"><text text-anchor="middle" x="0" y="469" transform="translate(554.71,0)" style="font-family: 'Open Sans', verdana, arial, sans-serif; font-size: 18px; fill: rgb(42, 63, 95); fill-opacity: 1; white-space: pre;">01/11</text></g><g class="xtick"><text text-anchor="middle" x="0" y="469" transform="translate(632.07,0)" style="font-family: 'Open Sans', verdana, arial, sans-serif; font-size: 18px; fill: rgb(42, 63, 95); fill-opacity: 1; white-space: pre;">01/01</text></g><g class="xtick"><text text-anchor="middle" x="0" y="469" transform="translate(706.88,0)" style="font-family: 'Open Sans', verdana, arial, sans-serif; font-size: 18px; fill: rgb(42, 63, 95); fill-opacity: 1; white-space: pre;">01/03</text></g></g><g class="yaxislayer-above"/><g class="overaxes-above"/></g></g><g class="polarlayer"/><g class="ternarylayer"/><g class="geolayer"/><g class="funnelarealayer"/><g class="pielayer"/><g class="treemaplayer"/><g class="sunburstlayer"/><g class="glimages"/><defs id="topdefs-cc3ac5"><g class="clips"/></defs><g class="layer-above"><g class="imagelayer"/><g class="shapelayer"><path data-index="0" fill-rule="evenodd" d="M-662.68,442.85L264.31,442.85" clip-path="url('#clipcc3ac5xy')" style="opacity: 1; stroke: rgb(255, 0, 0); stroke-opacity: 1; fill: rgb(0, 0, 0); fill-opacity: 0; stroke-dasharray: 3px, 3px; stroke-width: 1.5px;"/></g></g><g class="infolayer"><g class="g-gtitle"><text class="gtitle" x="375" y="25" text-anchor="middle" dy="0.7em" style="font-family: 'Open Sans', verdana, arial, sans-serif; font-size: 50px; fill: rgb(42, 63, 95); opacity: 1; font-weight: normal; white-space: pre;"><tspan style="font-weight:bold">Mayotte (976)</tspan></text></g><g class="g-xtitle"/><g class="annotation" data-index="0" style="opacity: 1;"><g class="annotation-text-g" transform="rotate(0,699.12,387.34)"><g class="cursor-pointer" transform="translate(656, 351)"><rect class="bg" x="0.5" y="0.5" width="86" height="71" style="stroke-width: 1px; stroke: rgb(0, 0, 0); stroke-opacity: 0; fill: rgb(255, 255, 255); fill-opacity: 0.6;"/><text class="annotation-text" text-anchor="middle" x="43.53125" y="55.5" style="font-family: 'Open Sans', verdana, arial, sans-serif; font-size: 50px; fill: rgb(8, 115, 191); fill-opacity: 1; white-space: pre;"> <tspan style="font-weight:bold">18 </tspan></text></g></g><g class="annotation-arrow-g" style="opacity: 1;"><path d="M727.52,422.84L739.12,437.34" style="stroke-width: 1px; stroke: rgb(8, 115, 191); stroke-opacity: 1; stroke-dasharray: 0px, 0px, 18.569px, 18.569px;"/></g></g></g></svg>