<svg class="main-svg" xmlns="http://www.w3.org/2000/svg" xmlns:xlink="http://www.w3.org/1999/xlink" width="1125" height="750" style="" viewBox="0 0 750 500"><rect x="0" y="0" width="750" height="500" style="fill: rgb(0, 0, 0); fill-opacity: 0;"/><defs id="defs-03d13d"><g class="clips"><clipPath id="clip03d13dxyplot" class="plotclip"><rect width="700" height="380"/></clipPath><clipPath class="axesclip" id="clip03d13dx"><rect x="50" y="0" width="700" height="500"/></clipPath><clipPath class="axesclip" id="clip03d13dy"><rect x="0" y="70" width="750" height="380"/></clipPath><clipPath class="axesclip" id="clip03d13dxy"><rect x="50" y="70" width="700" height="380"/></clipPath></g><g class="gradients"/></defs><g class="bglayer"><rect class="bg" x="50" y="70" width="700" height="380" style="fill: rgb(0, 0, 0); fill-opacity: 0; stroke-width: 0;"/></g><g class="layer-below"><g class="imagelayer"/><g class="shapelayer"/></g><g class="cartesianlayer"><g class="subplot xy"><g class="layer-subplot"><g class="shapelayer"/><g class="imagelayer"/></g><g class="gridlayer"><g class="x"><path class="xgrid crisp" transform="translate(109.84,0)" d="M0,70v380" style="stroke: rgb(255, 255, 255); stroke-opacity: 1; stroke-width: 1px;"/><path class="xgrid crisp" transform="translate(220.47,0)" d="M0,70v380" style="stroke: rgb(255, 255, 255); stroke-opacity: 1; stroke-width: 1px;"/><path class="xgrid crisp" transform="translate(327.46,0)" d="M0,70v380" style="stroke: rgb(255, 255, 255); stroke-opacity: 1; stroke-width: 1px;"/><path class="xgrid crisp" transform="translate(438.08,0)" d="M0,70v380" style="stroke: rgb(255, 255, 255); stroke-opacity: 1; stroke-width: 1px;"/><path class="xgrid crisp" transform="translate(548.7,0)" d="M0,70v380" style="stroke: rgb(255, 255, 255); stroke-opacity: 1; stroke-width: 1px;"/><path class="xgrid crisp" transform="translate(661.14,0)" d="M0,70v380" style="stroke: rgb(255, 255, 255); stroke-opacity: 1; stroke-width: 1px;"/></g><g class="y"/></g><g class="zerolinelayer"/><path class="xlines-below"/><path class="ylines-below"/><g class="overlines-below"/><g class="xaxislayer-below"/><g class="yaxislayer-below"/><g class="overaxes-below"/><g class="plot" transform="translate(50, 70)" clip-path="url('#clip03d13dxyplot')"><g class="scatterlayer mlayer"><g class="trace scatter tracebc77d6" style="stroke-miterlimit: 2;"><g class="fills"><g><path class="js-fill" d="M669.17,380L-246.63,380L-246.63,378.58L-184.97,379.03L-183.16,379.36L-134.2,378.84L-132.38,377.36L-116.06,374.98L-114.25,374.34L-106.99,370.02L-105.18,368.35L-94.3,359.66L-92.49,357.47L-88.86,352.51L-87.05,353.35L-83.42,351.93L-81.61,350.45L-74.35,341.5L-72.54,341.63L-68.91,334.17L-67.1,334.87L-65.28,334.81L-63.47,331.2L-59.84,329.98L-58.03,327.08L-54.4,324.57L-52.59,325.41L-47.15,325.99L-45.34,328.63L-43.52,329.53L-41.71,327.28L-39.9,325.41L-38.08,325.6L-34.46,324.19L-32.64,323.61L-29.02,323.16L-27.2,325.09L-25.39,325.15L-23.58,327.28L-19.95,328.95L-18.13,330.75L-16.32,334.55L-14.51,335.71L-12.69,338.86L-10.88,339.19L-9.07,338.99L-7.25,342.6L-5.44,343.63L-3.63,343.37L1.81,338.93L3.63,338.93L7.25,327.21L9.07,320.39L14.51,307.71L16.32,307.19L21.76,277.71L23.58,259.75L25.39,242.69L27.2,233.61L29.02,232.58L30.83,207.22L38.08,110.59L39.9,104.8L41.71,105.12L43.52,71.52L45.34,42.55L47.15,35.86L48.96,22.6L50.78,17.77L52.59,10.36L54.4,8.5L56.22,8.11L58.03,15.26L59.84,16.61L61.66,26.14L65.28,47.83L67.1,48.6L70.73,95.72L72.54,149.67L76.17,185.14L77.98,191.45L79.79,192.41L81.61,218.36L83.42,240.05L85.23,226.08L88.86,265.99L90.67,268.63L92.49,269.34L94.3,280.22L96.11,288.72L97.93,292.32L99.74,294.38L101.55,300.95L103.37,302.94L105.18,303.39L108.81,307L110.62,307.71L112.44,310.73L114.25,310.09L116.06,310.6L117.88,310.28L119.69,311.89L121.5,311.31L123.32,312.86L125.13,310.8L126.94,310.09L128.76,308.09L130.57,307.58L132.38,309.19L134.2,305.91L136.01,297.67L141.45,277.13L143.26,276.62L146.89,251.96L148.7,245.59L150.52,247.78L152.33,267.02L154.15,265.03L155.96,264.77L157.77,263.74L159.59,265.67L161.4,264.96L163.21,261.74L165.03,261.1L166.84,256.4L168.65,254.53L170.47,241.15L172.28,230.2L174.09,225.89L175.91,216.81L177.72,188.62L179.53,193.89L181.35,194.41L184.97,199.88L186.79,200.65L188.6,196.28L190.41,194.8L192.23,189.65L194.04,189.52L201.3,160.61L203.11,160.1L206.74,155.91L208.55,153.79L210.36,155.53L212.18,161.19L213.99,169.43L215.8,167.5L223.06,177.35L224.87,176.45L226.68,178.25L228.5,178.9L232.12,180.96L233.94,189L243.01,210.12L244.82,210.05L246.63,205.61L248.45,205.93L250.26,201.17L252.07,199.04L255.7,189.13L257.51,188.55L259.33,187.78L261.14,179.99L262.95,179.02L264.77,180.5L268.39,183.47L270.21,183.85L272.02,189.58L273.83,198.66L275.65,200.07L277.46,199.5L282.9,198.85L284.72,195.25L288.34,187.78L290.16,184.43L295.6,181.66L297.41,175.23L299.22,172.52L301.04,171.17L302.85,171.69L304.66,169.56L306.48,165.57L308.29,165.51L311.92,150.64L313.73,140.08L317.36,113.23L319.17,109.69L320.98,108.92L322.8,102.74L326.42,98.75L328.24,103L330.05,105.9L331.87,106.41L333.68,107.25L335.49,164.8L337.31,143.88L339.12,150.7L344.56,170.33L346.37,170.27L348.19,127.14L350,160.68L353.63,176.32L355.44,177.61L357.25,181.99L359.07,183.02L362.69,197.24L364.51,200.33L366.32,204.07L368.13,210.63L369.95,212.05L371.76,210.89L373.58,217.52L375.39,227.76L380.83,251.77L382.64,265.35L384.46,267.28L386.27,278.16L393.52,297.21L395.34,298.12L397.15,298.44L398.96,305.78L402.59,313.57L404.4,325.15L406.22,327.79L408.03,324.57L409.84,324.7L411.66,329.53L415.28,335L417.1,330.69L418.91,337L420.73,337.58L422.54,337.96L424.35,347.56L426.17,345.88L427.98,347.36L431.61,346.53L433.42,347.62L435.23,348.2L437.05,342.08L438.86,346.85L440.67,348.2L444.3,352.64L446.11,353.93L447.93,353.99L449.74,355.99L451.55,356.7L453.37,358.56L455.18,359.98L456.99,360.43L460.62,359.98L462.44,362.88L466.06,365.58L467.88,366.42L471.5,369.12L473.32,369.31L482.38,374.14L484.2,374.59L487.82,374.01L489.64,373.05L493.26,371.05L495.08,369.25L496.89,367.32L498.7,367L504.15,358.69L505.96,356.12L509.59,351.61L511.4,351.03L513.21,346.33L515.03,339.06L516.84,342.28L518.65,331.01L522.28,310.73L524.09,307.13L527.72,260.52L529.53,220.16L534.97,138.34L536.79,134.73L540.41,62.38L542.23,41.65L545.85,11.01L547.67,7.66L549.48,8.24L551.3,3.73L553.11,0L554.92,2.51L556.74,3.03L558.55,4.44L560.36,4.51L562.18,2.7L565.8,0.32L567.62,3.86L571.24,10.04L573.06,10.88L574.87,11.39L576.68,16.35L585.75,65.85L587.56,67.34L591.19,89.16L593.01,96.24L598.45,123.34L600.26,124.24L603.89,166.47L605.7,181.34L609.33,209.73L611.14,218.94L612.95,221.25L614.77,232.97L618.39,249.51L620.21,254.99L623.83,270.18L625.65,271.72L627.46,285.82L629.27,292.97L634.72,311.83L636.53,316.14L638.34,317.94L640.16,323.54L645.6,336.93L647.41,339.25L651.04,340.02L652.85,343.5L654.66,342.98L656.48,343.56L661.92,348.33L663.73,348.33L667.36,353.09L669.17,352.06" style="fill: rgb(8, 115, 191); fill-opacity: 0.2; stroke-width: 0;"/></g></g><g class="errorbars"/><g class="lines"><path class="js-line" d="M-246.63,378.58L-184.97,379.03L-183.16,379.36L-134.2,378.84L-132.38,377.36L-116.06,374.98L-114.25,374.34L-106.99,370.02L-105.18,368.35L-94.3,359.66L-92.49,357.47L-88.86,352.51L-87.05,353.35L-83.42,351.93L-81.61,350.45L-74.35,341.5L-72.54,341.63L-68.91,334.17L-67.1,334.87L-65.28,334.81L-63.47,331.2L-59.84,329.98L-58.03,327.08L-54.4,324.57L-52.59,325.41L-47.15,325.99L-45.34,328.63L-43.52,329.53L-41.71,327.28L-39.9,325.41L-38.08,325.6L-34.46,324.19L-32.64,323.61L-29.02,323.16L-27.2,325.09L-25.39,325.15L-23.58,327.28L-19.95,328.95L-18.13,330.75L-16.32,334.55L-14.51,335.71L-12.69,338.86L-10.88,339.19L-9.07,338.99L-7.25,342.6L-5.44,343.63L-3.63,343.37L1.81,338.93L3.63,338.93L7.25,327.21L9.07,320.39L14.51,307.71L16.32,307.19L21.76,277.71L23.58,259.75L25.39,242.69L27.2,233.61L29.02,232.58L30.83,207.22L38.08,110.59L39.9,104.8L41.71,105.12L43.52,71.52L45.34,42.55L47.15,35.86L48.96,22.6L50.78,17.77L52.59,10.36L54.4,8.5L56.22,8.11L58.03,15.26L59.84,16.61L61.66,26.14L65.28,47.83L67.1,48.6L70.73,95.72L72.54,149.67L76.17,185.14L77.98,191.45L79.79,192.41L81.61,218.36L83.42,240.05L85.23,226.08L88.86,265.99L90.67,268.63L92.49,269.34L94.3,280.22L96.11,288.72L97.93,292.32L99.74,294.38L101.55,300.95L103.37,302.94L105.18,303.39L108.81,307L110.62,307.71L112.44,310.73L114.25,310.09L116.06,310.6L117.88,310.28L119.69,311.89L121.5,311.31L123.32,312.86L125.13,310.8L126.94,310.09L128.76,308.09L130.57,307.58L132.38,309.19L134.2,305.91L136.01,297.67L141.45,277.13L143.26,276.62L146.89,251.96L148.7,245.59L150.52,247.78L152.33,267.02L154.15,265.03L155.96,264.77L157.77,263.74L159.59,265.67L161.4,264.96L163.21,261.74L165.03,261.1L166.84,256.4L168.65,254.53L170.47,241.15L172.28,230.2L174.09,225.89L175.91,216.81L177.72,188.62L179.53,193.89L181.35,194.41L184.97,199.88L186.79,200.65L188.6,196.28L190.41,194.8L192.23,189.65L194.04,189.52L201.3,160.61L203.11,160.1L206.74,155.91L208.55,153.79L210.36,155.53L212.18,161.19L213.99,169.43L215.8,167.5L223.06,177.35L224.87,176.45L226.68,178.25L228.5,178.9L232.12,180.96L233.94,189L243.01,210.12L244.82,210.05L246.63,205.61L248.45,205.93L250.26,201.17L252.07,199.04L255.7,189.13L257.51,188.55L259.33,187.78L261.14,179.99L262.95,179.02L264.77,180.5L268.39,183.47L270.21,183.85L272.02,189.58L273.83,198.66L275.65,200.07L277.46,199.5L282.9,198.85L284.72,195.25L288.34,187.78L290.16,184.43L295.6,181.66L297.41,175.23L299.22,172.52L301.04,171.17L302.85,171.69L304.66,169.56L306.48,165.57L308.29,165.51L311.92,150.64L313.73,140.08L317.36,113.23L319.17,109.69L320.98,108.92L322.8,102.74L326.42,98.75L328.24,103L330.05,105.9L331.87,106.41L333.68,107.25L335.49,164.8L337.31,143.88L339.12,150.7L344.56,170.33L346.37,170.27L348.19,127.14L350,160.68L353.63,176.32L355.44,177.61L357.25,181.99L359.07,183.02L362.69,197.24L364.51,200.33L366.32,204.07L368.13,210.63L369.95,212.05L371.76,210.89L373.58,217.52L375.39,227.76L380.83,251.77L382.64,265.35L384.46,267.28L386.27,278.16L393.52,297.21L395.34,298.12L397.15,298.44L398.96,305.78L402.59,313.57L404.4,325.15L406.22,327.79L408.03,324.57L409.84,324.7L411.66,329.53L415.28,335L417.1,330.69L418.91,337L420.73,337.58L422.54,337.96L424.35,347.56L426.17,345.88L427.98,347.36L431.61,346.53L433.42,347.62L435.23,348.2L437.05,342.08L438.86,346.85L440.67,348.2L444.3,352.64L446.11,353.93L447.93,353.99L449.74,355.99L451.55,356.7L453.37,358.56L455.18,359.98L456.99,360.43L460.62,359.98L462.44,362.88L466.06,365.58L467.88,366.42L471.5,369.12L473.32,369.31L482.38,374.14L484.2,374.59L487.82,374.01L489.64,373.05L493.26,371.05L495.08,369.25L496.89,367.32L498.7,367L504.15,358.69L505.96,356.12L509.59,351.61L511.4,351.03L513.21,346.33L515.03,339.06L516.84,342.28L518.65,331.01L522.28,310.73L524.09,307.13L527.72,260.52L529.53,220.16L534.97,138.34L536.79,134.73L540.41,62.38L542.23,41.65L545.85,11.01L547.67,7.66L549.48,8.24L551.3,3.73L553.11,0L554.92,2.51L556.74,3.03L558.55,4.44L560.36,4.51L562.18,2.7L565.8,0.32L567.62,3.86L571.24,10.04L573.06,10.88L574.87,11.39L576.68,16.35L585.75,65.85L587.56,67.34L591.19,89.16L593.01,96.24L598.45,123.34L600.26,124.24L603.89,166.47L605.7,181.34L609.33,209.73L611.14,218.94L612.95,221.25L614.77,232.97L618.39,249.51L620.21,254.99L623.83,270.18L625.65,271.72L627.46,285.82L629.27,292.97L634.72,311.83L636.53,316.14L638.34,317.94L640.16,323.54L645.6,336.93L647.41,339.25L651.04,340.02L652.85,343.5L654.66,342.98L656.48,343.56L661.92,348.33L663.73,348.33L667.36,353.09L669.17,352.06" style="vector-effect: non-scaling-stroke; fill: none; stroke: rgb(8, 115, 191); stroke-opacity: 1; stroke-width: 0.5px; opacity: 1;"/></g><g class="points"/><g class="text"/></g><g class="trace scatter trace9a5104" style="stroke-miterlimit: 2;"><g class="fills"><g><path class="js-fill" d="M687.31,380L669.17,380L669.17,352.06L672.8,351.48L674.61,349.87L676.42,349.81L678.24,347.88L680.05,347.88L681.87,349.1L683.68,346.27L685.49,347.68L687.31,349.04" style="fill: rgb(8, 115, 191); fill-opacity: 0.4; stroke-width: 0;"/></g></g><g class="errorbars"/><g class="lines"><path class="js-line" d="M669.17,352.06L672.8,351.48L674.61,349.87L676.42,349.81L678.24,347.88L680.05,347.88L681.87,349.1L683.68,346.27L685.49,347.68L687.31,349.04" style="vector-effect: non-scaling-stroke; fill: none; stroke: rgb(8, 115, 191); stroke-opacity: 1; stroke-width: 2px; opacity: 1;"/></g><g class="points"/><g class="text"/></g><g class="trace scatter trace9619b0" style="stroke-miterlimit: 2; opacity: 1;"><g class="fills"/><g class="errorbars"/><g class="lines"/><g class="points"><path class="point" transform="translate(687.31,349.04)" d="M15,0A15,15 0 1,1 0,-15A15,15 0 0,1 15,0Z" style="opacity: 1; stroke-width: 0px; fill: rgb(8, 115, 191); fill-opacity: 1;"/></g><g class="text"/></g></g></g><g class="overplot"/><path class="xlines-above crisp" style="fill: none; stroke-width: 1px; stroke: rgb(0, 0, 0); stroke-opacity: 0;" d=""/><path class="ylines-above crisp" style="fill: none;" d="M0,0"/><g class="overlines-above"/><g class="xaxislayer-above"><path class="xtick ticks crisp" d="M0,450v-5" transform="translate(109.84,0)" style="stroke: rgb(68, 68, 68); stroke-opacity: 1; stroke-width: 1px;"/><path class="xtick ticks crisp" d="M0,450v-5" transform="translate(220.47,0)" style="stroke: rgb(68, 68, 68); stroke-opacity: 1; stroke-width: 1px;"/><path class="xtick ticks crisp" d="M0,450v-5" transform="translate(327.46,0)" style="stroke: rgb(68, 68, 68); stroke-opacity: 1; stroke-width: 1px;"/><path class="xtick ticks crisp" d="M0,450v-5" transform="translate(438.08,0)" style="stroke: rgb(68, 68, 68); stroke-opacity: 1; stroke-width: 1px;"/><path class="xtick ticks crisp" d="M0,450v-5" transform="translate(548.7,0)" style="stroke: rgb(68, 68, 68); stroke-opacity: 1; stroke-width: 1px;"/><path class="xtick ticks crisp" d="M0,450v-5" transform="translate(661.14,0)" style="stroke: rgb(68, 68, 68); stroke-opacity: 1; stroke-width: 1px;"/><g class="xtick"><text text-anchor="middle" x="0" y="469" transform="translate(109.84,0)" style="font-family: 'Open Sans', verdana, arial, sans-serif; font-size: 18px; fill: rgb(42, 63, 95); fill-opacity: 1; white-space: pre;">01/11</text></g><g class="xtick"><text text-anchor="middle" x="0" y="469" transform="translate(220.47,0)" style="font-family: 'Open Sans', verdana, arial, sans-serif; font-size: 18px; fill: rgb(42, 63, 95); fill-opacity: 1; white-space: pre;">01/01</text></g><g class="xtick"><text text-anchor="middle" x="0" y="469" transform="translate(327.46,0)" style="font-family: 'Open Sans', verdana, arial, sans-serif; font-size: 18px; fill: rgb(42, 63, 95); fill-opacity: 1; white-space: pre;">01/03</text></g><g class="xtick"><text text-anchor="middle" x="0" y="469" transform="translate(438.08,0)" style="font-family: 'Open Sans', verdana, arial, sans-serif; font-size: 18px; fill: rgb(42, 63, 95); fill-opacity: 1; white-space: pre;">01/05</text></g><g class="xtick"><text text-anchor="middle" x="0" y="469" transform="translate(548.7,0)" style="font-family: 'Open Sans', verdana, arial, sans-serif; font-size: 18px; fill: rgb(42, 63, 95); fill-opacity: 1; white-space: pre;">01/07</text></g><g class="xtick"><text text-anchor="middle" x="0" y="469" transform="translate(661.14,0)" style="font-family: 'Open Sans', verdana, arial, sans-serif; font-size: 18px; fill: rgb(42, 63, 95); fill-opacity: 1; white-space: pre;">01/09</text></g></g><g class="yaxislayer-above"/><g class="overaxes-above"/></g></g><g class="polarlayer"/><g class="ternarylayer"/><g class="geolayer"/><g class="funnelarealayer"/><g class="pielayer"/><g class="treemaplayer"/><g class="sunburstlayer"/><g class="glimages"/><defs id="topdefs-03d13d"><g class="clips"/></defs><g class="layer-above"><g class="imagelayer"/><g class="shapelayer"><path data-index="0" fill-rule="evenodd" d="M-969.17,415.44L356.48,415.44" clip-path="url('#clip03d13dxy')" style="opacity: 1; stroke: rgb(255, 0, 0); stroke-opacity: 1; fill: rgb(0, 0, 0); fill-opacity: 0; stroke-dasharray: 3px, 3px; stroke-width: 1.5px;"/></g></g><g class="infolayer"><g class="g-gtitle"><text class="gtitle" x="375" y="25" text-anchor="middle" dy="0.7em" style="font-family: 'Open Sans', verdana, arial, sans-serif; font-size: 50px; fill: rgb(42, 63, 95); opacity: 1; font-weight: normal; white-space: pre;"><tspan style="font-weight:bold">Var (83)</tspan></text></g><g class="g-xtitle"/><g class="annotation" data-index="0" style="opacity: 1;"><g class="annotation-text-g" transform="rotate(0,695.31,359.04)"><g class="cursor-pointer" transform="translate(652, 323)"><rect class="bg" x="0.5" y="0.5" width="86" height="71" style="stroke-width: 1px; stroke: rgb(0, 0, 0); stroke-opacity: 0; fill: rgb(255, 255, 255); fill-opacity: 0.6;"/><text class="annotation-text" text-anchor="middle" x="43.53125" y="55.5" style="font-family: 'Open Sans', verdana, arial, sans-serif; font-size: 50px; fill: rgb(8, 115, 191); fill-opacity: 1; white-space: pre;"> <tspan style="font-weight:bold">44 </tspan></text></g></g><g class="annotation-arrow-g" style="opacity: 1;"><path d="M723.7099999999999,394.54L735.31,409.04" style="stroke-width: 1px; stroke: rgb(8, 115, 191); stroke-opacity: 1; stroke-dasharray: 0px, 0px, 18.569px, 18.569px;"/></g></g></g></svg>