<svg class="main-svg" xmlns="http://www.w3.org/2000/svg" xmlns:xlink="http://www.w3.org/1999/xlink" width="1125" height="750" style="" viewBox="0 0 750 500"><rect x="0" y="0" width="750" height="500" style="fill: rgb(0, 0, 0); fill-opacity: 0;"/><defs id="defs-705aa8"><g class="clips"><clipPath id="clip705aa8xyplot" class="plotclip"><rect width="700" height="380"/></clipPath><clipPath class="axesclip" id="clip705aa8x"><rect x="50" y="0" width="700" height="500"/></clipPath><clipPath class="axesclip" id="clip705aa8y"><rect x="0" y="70" width="750" height="380"/></clipPath><clipPath class="axesclip" id="clip705aa8xy"><rect x="50" y="70" width="700" height="380"/></clipPath></g><g class="gradients"/></defs><g class="bglayer"><rect class="bg" x="50" y="70" width="700" height="380" style="fill: rgb(0, 0, 0); fill-opacity: 0; stroke-width: 0;"/></g><g class="layer-below"><g class="imagelayer"/><g class="shapelayer"/></g><g class="cartesianlayer"><g class="subplot xy"><g class="layer-subplot"><g class="shapelayer"/><g class="imagelayer"/></g><g class="gridlayer"><g class="x"><path class="xgrid crisp" transform="translate(109.08,0)" d="M0,70v380" style="stroke: rgb(255, 255, 255); stroke-opacity: 1; stroke-width: 1px;"/><path class="xgrid crisp" transform="translate(218.29,0)" d="M0,70v380" style="stroke: rgb(255, 255, 255); stroke-opacity: 1; stroke-width: 1px;"/><path class="xgrid crisp" transform="translate(323.91,0)" d="M0,70v380" style="stroke: rgb(255, 255, 255); stroke-opacity: 1; stroke-width: 1px;"/><path class="xgrid crisp" transform="translate(433.12,0)" d="M0,70v380" style="stroke: rgb(255, 255, 255); stroke-opacity: 1; stroke-width: 1px;"/><path class="xgrid crisp" transform="translate(542.3299999999999,0)" d="M0,70v380" style="stroke: rgb(255, 255, 255); stroke-opacity: 1; stroke-width: 1px;"/><path class="xgrid crisp" transform="translate(653.32,0)" d="M0,70v380" style="stroke: rgb(255, 255, 255); stroke-opacity: 1; stroke-width: 1px;"/></g><g class="y"/></g><g class="zerolinelayer"/><path class="xlines-below"/><path class="ylines-below"/><g class="overlines-below"/><g class="xaxislayer-below"/><g class="yaxislayer-below"/><g class="overaxes-below"/><g class="plot" transform="translate(50, 70)" clip-path="url('#clip705aa8xyplot')"><g class="scatterlayer mlayer"><g class="trace scatter trace601042" style="stroke-miterlimit: 2;"><g class="fills"><g><path class="js-fill" d="M669.57,380L-243.48,380L-243.48,375.58L-225.58,373.98L-223.79,374.05L-191.56,376.85L-189.77,377.2L-153.96,376.31L-152.17,376.29L-132.48,375.16L-130.69,373.52L-123.53,371.99L-121.74,371.98L-112.79,369.63L-111,369.52L-91.3,367.85L-89.51,367.33L-80.56,366.82L-78.77,367.43L-71.61,366.58L-69.82,365.97L-66.24,364.58L-64.45,363.46L-59.08,362.75L-57.29,360.8L-55.5,358.54L-53.71,353.21L-51.92,349.23L-50.13,341.18L-48.34,336.99L-46.55,336.74L-42.97,319.88L-41.18,315.44L-39.39,310.17L-37.6,308.65L-35.81,309.24L-34.02,308.58L-28.64,292.48L-26.85,287.64L-25.06,281.17L-23.27,280.54L-21.48,278.38L-19.69,282.89L-16.11,279.7L-14.32,283.03L-12.53,286.75L-10.74,285.92L-8.95,287.95L-7.16,287.64L-5.37,294.71L-3.58,295.93L5.37,277.93L7.16,269.97L14.32,227.42L16.11,222.7L19.69,194.53L21.48,180.64L25.06,159.01L26.85,155.16L28.64,148.67L30.43,135.94L34.02,103.97L35.81,86.37L37.6,61.5L39.39,47.14L41.18,40.05L42.97,15L44.76,0.89L46.55,0L48.34,0.87L50.13,6.46L53.71,15.46L55.5,25.47L57.29,33.75L59.08,47.5L64.45,97.44L66.24,109L71.61,199.98L73.4,209.54L75.19,223.99L76.98,231.17L78.77,234.69L80.56,245.74L82.35,258.22L84.14,252.48L87.72,280.77L89.51,284.75L91.3,285.62L93.09,297.2L96.68,307.52L98.47,311.21L100.26,315.74L102.05,317.84L103.84,318.61L105.63,321.15L109.21,322.94L111,322.66L114.58,324.93L116.37,325.27L118.16,324.94L119.95,325.59L121.74,326.13L123.53,327.48L130.69,326.65L132.48,326.79L134.27,326.09L136.06,326.48L141.43,324.66L143.22,322.3L145.01,318.85L146.8,318L148.59,318.69L150.38,327.31L152.17,326.72L153.96,327L157.54,330.39L159.34,328.08L162.92,327.57L164.71,325.15L166.5,323.78L168.29,320.21L170.08,317.48L171.87,317.04L173.66,313.59L175.45,302.98L179.03,305.13L180.82,305.19L184.4,306.96L186.19,305.48L191.56,304.96L193.35,303.46L196.93,302.33L198.72,302.87L202.3,300.1L204.09,299.81L205.88,299.88L207.67,298.78L213.04,294.31L214.83,293.86L216.62,293.75L218.41,291.75L220.2,291.52L221.99,292.06L225.58,292.43L227.37,290.62L229.16,290.29L230.95,291.58L234.53,289.42L236.32,286.93L241.69,284.58L243.48,279.95L247.06,272.43L248.85,268.02L250.64,262.16L252.43,259.72L254.22,258.33L256.01,251.14L257.8,247.68L259.59,245.95L263.17,245.24L264.96,245.87L266.75,246.04L268.54,250.36L272.12,250.84L273.91,252.86L275.7,254.41L277.49,252.57L279.28,252.06L281.07,248.55L284.65,244.4L286.45,239.77L290.03,233.02L291.82,232.62L293.61,223.83L295.4,221.24L302.56,205L304.35,205.1L311.51,185L313.3,182.49L316.88,181.43L318.67,182.33L320.46,180.05L322.25,181.62L325.83,188.6L327.62,190.13L329.41,190.29L331.2,223.31L332.99,216.74L334.78,217.7L336.57,219.79L338.36,219.01L341.94,219.65L343.73,193.52L345.52,208.95L347.31,212.55L350.9,217.35L352.69,218.31L354.48,218.82L356.27,221.39L358.06,223.08L359.85,226.39L365.22,238.82L367.01,240.5L372.38,252.13L374.17,255.87L375.96,257.27L377.75,268.44L379.54,267.43L381.33,271.63L384.91,278.68L386.7,281.15L388.49,285L390.28,284.56L393.86,286.84L395.65,286.42L397.44,287.1L399.23,299.04L401.02,299.98L402.81,296L404.6,296.97L406.39,301.34L409.97,304.93L411.76,297.62L413.55,302.02L415.35,302.8L417.14,302.96L418.93,315.87L420.72,315.74L422.51,319.37L429.67,326.09L431.46,320.56L433.25,327.76L435.04,331.16L440.41,340.77L442.2,341.18L445.78,349.14L447.57,352.29L451.15,357.75L452.94,359.18L454.73,360L456.52,362.49L465.47,368.3L467.26,368.55L472.63,371.7L474.42,372.22L479.8,373.23L481.59,373.25L485.17,372.65L486.96,372.43L490.54,372.2L492.33,371.8L501.28,369.82L503.07,369.63L504.86,369.56L506.65,368.63L508.44,367.29L510.23,367.8L515.6,360.78L517.39,359.77L520.97,351.35L522.76,344.25L528.13,333.42L529.92,331.99L531.71,328.56L533.5,328.53L535.29,328.37L537.08,327.22L540.66,322.98L542.46,322.42L546.04,315.16L547.83,313.46L556.78,305.43L558.57,302.4L562.15,295.74L563.94,293.8L565.73,293.21L567.52,294.05L569.31,292.46L571.1,292.45L574.68,295.56L576.47,296.68L580.05,297.51L581.84,297.58L583.63,300.07L585.42,300.68L589,304.75L590.79,306.18L592.58,307L594.37,312.62L603.32,325.01L605.12,325.57L610.49,328.41L612.28,328.83L615.86,331.82L617.65,332.9L621.23,340.21L623.02,342.92L628.39,350.39L630.18,350.86L635.55,355.18L637.34,356.1L640.92,357.09L642.71,357.62L644.5,359.43L646.29,359.86L653.45,362.66L655.24,362.42L657.03,362.14L658.82,362.63L667.77,361.36L669.57,361.46" style="fill: rgb(8, 115, 191); fill-opacity: 0.2; stroke-width: 0;"/></g></g><g class="errorbars"/><g class="lines"><path class="js-line" d="M-243.48,375.58L-225.58,373.98L-223.79,374.05L-191.56,376.85L-189.77,377.2L-153.96,376.31L-152.17,376.29L-132.48,375.16L-130.69,373.52L-123.53,371.99L-121.74,371.98L-112.79,369.63L-111,369.52L-91.3,367.85L-89.51,367.33L-80.56,366.82L-78.77,367.43L-71.61,366.58L-69.82,365.97L-66.24,364.58L-64.45,363.46L-59.08,362.75L-57.29,360.8L-55.5,358.54L-53.71,353.21L-51.92,349.23L-50.13,341.18L-48.34,336.99L-46.55,336.74L-42.97,319.88L-41.18,315.44L-39.39,310.17L-37.6,308.65L-35.81,309.24L-34.02,308.58L-28.64,292.48L-26.85,287.64L-25.06,281.17L-23.27,280.54L-21.48,278.38L-19.69,282.89L-16.11,279.7L-14.32,283.03L-12.53,286.75L-10.74,285.92L-8.95,287.95L-7.16,287.64L-5.37,294.71L-3.58,295.93L5.37,277.93L7.16,269.97L14.32,227.42L16.11,222.7L19.69,194.53L21.48,180.64L25.06,159.01L26.85,155.16L28.64,148.67L30.43,135.94L34.02,103.97L35.81,86.37L37.6,61.5L39.39,47.14L41.18,40.05L42.97,15L44.76,0.89L46.55,0L48.34,0.87L50.13,6.46L53.71,15.46L55.5,25.47L57.29,33.75L59.08,47.5L64.45,97.44L66.24,109L71.61,199.98L73.4,209.54L75.19,223.99L76.98,231.17L78.77,234.69L80.56,245.74L82.35,258.22L84.14,252.48L87.72,280.77L89.51,284.75L91.3,285.62L93.09,297.2L96.68,307.52L98.47,311.21L100.26,315.74L102.05,317.84L103.84,318.61L105.63,321.15L109.21,322.94L111,322.66L114.58,324.93L116.37,325.27L118.16,324.94L119.95,325.59L121.74,326.13L123.53,327.48L130.69,326.65L132.48,326.79L134.27,326.09L136.06,326.48L141.43,324.66L143.22,322.3L145.01,318.85L146.8,318L148.59,318.69L150.38,327.31L152.17,326.72L153.96,327L157.54,330.39L159.34,328.08L162.92,327.57L164.71,325.15L166.5,323.78L168.29,320.21L170.08,317.48L171.87,317.04L173.66,313.59L175.45,302.98L179.03,305.13L180.82,305.19L184.4,306.96L186.19,305.48L191.56,304.96L193.35,303.46L196.93,302.33L198.72,302.87L202.3,300.1L204.09,299.81L205.88,299.88L207.67,298.78L213.04,294.31L214.83,293.86L216.62,293.75L218.41,291.75L220.2,291.52L221.99,292.06L225.58,292.43L227.37,290.62L229.16,290.29L230.95,291.58L234.53,289.42L236.32,286.93L241.69,284.58L243.48,279.95L247.06,272.43L248.85,268.02L250.64,262.16L252.43,259.72L254.22,258.33L256.01,251.14L257.8,247.68L259.59,245.95L263.17,245.24L264.96,245.87L266.75,246.04L268.54,250.36L272.12,250.84L273.91,252.86L275.7,254.41L277.49,252.57L279.28,252.06L281.07,248.55L284.65,244.4L286.45,239.77L290.03,233.02L291.82,232.62L293.61,223.83L295.4,221.24L302.56,205L304.35,205.1L311.51,185L313.3,182.49L316.88,181.43L318.67,182.33L320.46,180.05L322.25,181.62L325.83,188.6L327.62,190.13L329.41,190.29L331.2,223.31L332.99,216.74L334.78,217.7L336.57,219.79L338.36,219.01L341.94,219.65L343.73,193.52L345.52,208.95L347.31,212.55L350.9,217.35L352.69,218.31L354.48,218.82L356.27,221.39L358.06,223.08L359.85,226.39L365.22,238.82L367.01,240.5L372.38,252.13L374.17,255.87L375.96,257.27L377.75,268.44L379.54,267.43L381.33,271.63L384.91,278.68L386.7,281.15L388.49,285L390.28,284.56L393.86,286.84L395.65,286.42L397.44,287.1L399.23,299.04L401.02,299.98L402.81,296L404.6,296.97L406.39,301.34L409.97,304.93L411.76,297.62L413.55,302.02L415.35,302.8L417.14,302.96L418.93,315.87L420.72,315.74L422.51,319.37L429.67,326.09L431.46,320.56L433.25,327.76L435.04,331.16L440.41,340.77L442.2,341.18L445.78,349.14L447.57,352.29L451.15,357.75L452.94,359.18L454.73,360L456.52,362.49L465.47,368.3L467.26,368.55L472.63,371.7L474.42,372.22L479.8,373.23L481.59,373.25L485.17,372.65L486.96,372.43L490.54,372.2L492.33,371.8L501.28,369.82L503.07,369.63L504.86,369.56L506.65,368.63L508.44,367.29L510.23,367.8L515.6,360.78L517.39,359.77L520.97,351.35L522.76,344.25L528.13,333.42L529.92,331.99L531.71,328.56L533.5,328.53L535.29,328.37L537.08,327.22L540.66,322.98L542.46,322.42L546.04,315.16L547.83,313.46L556.78,305.43L558.57,302.4L562.15,295.74L563.94,293.8L565.73,293.21L567.52,294.05L569.31,292.46L571.1,292.45L574.68,295.56L576.47,296.68L580.05,297.51L581.84,297.58L583.63,300.07L585.42,300.68L589,304.75L590.79,306.18L592.58,307L594.37,312.62L603.32,325.01L605.12,325.57L610.49,328.41L612.28,328.83L615.86,331.82L617.65,332.9L621.23,340.21L623.02,342.92L628.39,350.39L630.18,350.86L635.55,355.18L637.34,356.1L640.92,357.09L642.71,357.62L644.5,359.43L646.29,359.86L653.45,362.66L655.24,362.42L657.03,362.14L658.82,362.63L667.77,361.36L669.57,361.46" style="vector-effect: non-scaling-stroke; fill: none; stroke: rgb(8, 115, 191); stroke-opacity: 1; stroke-width: 0.5px; opacity: 1;"/></g><g class="points"/><g class="text"/></g><g class="trace scatter traceb752d9" style="stroke-miterlimit: 2;"><g class="fills"><g><path class="js-fill" d="M687.47,380L669.57,380L669.57,361.46L673.15,361.06L674.94,360.49L682.1,360.16L683.89,359.29L687.47,357.65" style="fill: rgb(8, 115, 191); fill-opacity: 0.4; stroke-width: 0;"/></g></g><g class="errorbars"/><g class="lines"><path class="js-line" d="M669.57,361.46L673.15,361.06L674.94,360.49L682.1,360.16L683.89,359.29L687.47,357.65" style="vector-effect: non-scaling-stroke; fill: none; stroke: rgb(8, 115, 191); stroke-opacity: 1; stroke-width: 2px; opacity: 1;"/></g><g class="points"/><g class="text"/></g><g class="trace scatter tracea7d4b1" style="stroke-miterlimit: 2; opacity: 1;"><g class="fills"/><g class="errorbars"/><g class="lines"/><g class="points"><path class="point" transform="translate(687.47,357.65)" d="M15,0A15,15 0 1,1 0,-15A15,15 0 0,1 15,0Z" style="opacity: 1; stroke-width: 0px; fill: rgb(8, 115, 191); fill-opacity: 1;"/></g><g class="text"/></g></g></g><g class="overplot"/><path class="xlines-above crisp" style="fill: none; stroke-width: 1px; stroke: rgb(0, 0, 0); stroke-opacity: 0;" d=""/><path class="ylines-above crisp" style="fill: none;" d="M0,0"/><g class="overlines-above"/><g class="xaxislayer-above"><path class="xtick ticks crisp" d="M0,450v-5" transform="translate(109.08,0)" style="stroke: rgb(68, 68, 68); stroke-opacity: 1; stroke-width: 1px;"/><path class="xtick ticks crisp" d="M0,450v-5" transform="translate(218.29,0)" style="stroke: rgb(68, 68, 68); stroke-opacity: 1; stroke-width: 1px;"/><path class="xtick ticks crisp" d="M0,450v-5" transform="translate(323.91,0)" style="stroke: rgb(68, 68, 68); stroke-opacity: 1; stroke-width: 1px;"/><path class="xtick ticks crisp" d="M0,450v-5" transform="translate(433.12,0)" style="stroke: rgb(68, 68, 68); stroke-opacity: 1; stroke-width: 1px;"/><path class="xtick ticks crisp" d="M0,450v-5" transform="translate(542.3299999999999,0)" style="stroke: rgb(68, 68, 68); stroke-opacity: 1; stroke-width: 1px;"/><path class="xtick ticks crisp" d="M0,450v-5" transform="translate(653.32,0)" style="stroke: rgb(68, 68, 68); stroke-opacity: 1; stroke-width: 1px;"/><g class="xtick"><text text-anchor="middle" x="0" y="469" transform="translate(109.08,0)" style="font-family: 'Open Sans', verdana, arial, sans-serif; font-size: 18px; fill: rgb(42, 63, 95); fill-opacity: 1; white-space: pre;">01/11</text></g><g class="xtick"><text text-anchor="middle" x="0" y="469" transform="translate(218.29,0)" style="font-family: 'Open Sans', verdana, arial, sans-serif; font-size: 18px; fill: rgb(42, 63, 95); fill-opacity: 1; white-space: pre;">01/01</text></g><g class="xtick"><text text-anchor="middle" x="0" y="469" transform="translate(323.91,0)" style="font-family: 'Open Sans', verdana, arial, sans-serif; font-size: 18px; fill: rgb(42, 63, 95); fill-opacity: 1; white-space: pre;">01/03</text></g><g class="xtick"><text text-anchor="middle" x="0" y="469" transform="translate(433.12,0)" style="font-family: 'Open Sans', verdana, arial, sans-serif; font-size: 18px; fill: rgb(42, 63, 95); fill-opacity: 1; white-space: pre;">01/05</text></g><g class="xtick"><text text-anchor="middle" x="0" y="469" transform="translate(542.3299999999999,0)" style="font-family: 'Open Sans', verdana, arial, sans-serif; font-size: 18px; fill: rgb(42, 63, 95); fill-opacity: 1; white-space: pre;">01/07</text></g><g class="xtick"><text text-anchor="middle" x="0" y="469" transform="translate(653.32,0)" style="font-family: 'Open Sans', verdana, arial, sans-serif; font-size: 18px; fill: rgb(42, 63, 95); fill-opacity: 1; white-space: pre;">01/09</text></g></g><g class="yaxislayer-above"/><g class="overaxes-above"/></g></g><g class="polarlayer"/><g class="ternarylayer"/><g class="geolayer"/><g class="funnelarealayer"/><g class="pielayer"/><g class="treemaplayer"/><g class="sunburstlayer"/><g class="glimages"/><defs id="topdefs-705aa8"><g class="clips"/></defs><g class="layer-above"><g class="imagelayer"/><g class="shapelayer"><path data-index="0" fill-rule="evenodd" d="M-956.14,427.47L352.56,427.47" clip-path="url('#clip705aa8xy')" style="opacity: 1; stroke: rgb(255, 0, 0); stroke-opacity: 1; fill: rgb(0, 0, 0); fill-opacity: 0; stroke-dasharray: 3px, 3px; stroke-width: 1.5px;"/></g></g><g class="infolayer"><g class="g-gtitle"><text class="gtitle" x="375" y="25" text-anchor="middle" dy="0.7em" style="font-family: 'Open Sans', verdana, arial, sans-serif; font-size: 50px; fill: rgb(42, 63, 95); opacity: 1; font-weight: normal; white-space: pre;"><tspan style="font-weight:bold">Nord (59)</tspan></text></g><g class="g-xtitle"/><g class="annotation" data-index="0" style="opacity: 1;"><g class="annotation-text-g" transform="rotate(0,695.47,367.65)"><g class="cursor-pointer" transform="translate(652, 332)"><rect class="bg" x="0.5" y="0.5" width="86" height="71" style="stroke-width: 1px; stroke: rgb(0, 0, 0); stroke-opacity: 0; fill: rgb(255, 255, 255); fill-opacity: 0.6;"/><text class="annotation-text" text-anchor="middle" x="43.53125" y="55.5" style="font-family: 'Open Sans', verdana, arial, sans-serif; font-size: 50px; fill: rgb(8, 115, 191); fill-opacity: 1; white-space: pre;"> <tspan style="font-weight:bold">49 </tspan></text></g></g><g class="annotation-arrow-g" style="opacity: 1;"><path d="M723.87,403.15L735.47,417.65" style="stroke-width: 1px; stroke: rgb(8, 115, 191); stroke-opacity: 1; stroke-dasharray: 0px, 0px, 18.569px, 18.569px;"/></g></g></g></svg>