<svg class="main-svg" xmlns="http://www.w3.org/2000/svg" xmlns:xlink="http://www.w3.org/1999/xlink" width="1125" height="750" style="" viewBox="0 0 750 500"><rect x="0" y="0" width="750" height="500" style="fill: rgb(0, 0, 0); fill-opacity: 0;"/><defs id="defs-8122d6"><g class="clips"><clipPath id="clip8122d6xyplot" class="plotclip"><rect width="700" height="380"/></clipPath><clipPath class="axesclip" id="clip8122d6x"><rect x="50" y="0" width="700" height="500"/></clipPath><clipPath class="axesclip" id="clip8122d6y"><rect x="0" y="70" width="750" height="380"/></clipPath><clipPath class="axesclip" id="clip8122d6xy"><rect x="50" y="70" width="700" height="380"/></clipPath></g><g class="gradients"/></defs><g class="bglayer"><rect class="bg" x="50" y="70" width="700" height="380" style="fill: rgb(0, 0, 0); fill-opacity: 0; stroke-width: 0;"/></g><g class="layer-below"><g class="imagelayer"/><g class="shapelayer"/></g><g class="cartesianlayer"><g class="subplot xy"><g class="layer-subplot"><g class="shapelayer"/><g class="imagelayer"/></g><g class="gridlayer"><g class="x"><path class="xgrid crisp" transform="translate(109.53999999999999,0)" d="M0,70v380" style="stroke: rgb(255, 255, 255); stroke-opacity: 1; stroke-width: 1px;"/><path class="xgrid crisp" transform="translate(219.59,0)" d="M0,70v380" style="stroke: rgb(255, 255, 255); stroke-opacity: 1; stroke-width: 1px;"/><path class="xgrid crisp" transform="translate(326.03,0)" d="M0,70v380" style="stroke: rgb(255, 255, 255); stroke-opacity: 1; stroke-width: 1px;"/><path class="xgrid crisp" transform="translate(436.08,0)" d="M0,70v380" style="stroke: rgb(255, 255, 255); stroke-opacity: 1; stroke-width: 1px;"/><path class="xgrid crisp" transform="translate(546.13,0)" d="M0,70v380" style="stroke: rgb(255, 255, 255); stroke-opacity: 1; stroke-width: 1px;"/><path class="xgrid crisp" transform="translate(657.99,0)" d="M0,70v380" style="stroke: rgb(255, 255, 255); stroke-opacity: 1; stroke-width: 1px;"/></g><g class="y"/></g><g class="zerolinelayer"/><path class="xlines-below"/><path class="ylines-below"/><g class="overlines-below"/><g class="xaxislayer-below"/><g class="yaxislayer-below"/><g class="overaxes-below"/><g class="plot" transform="translate(50, 70)" clip-path="url('#clip8122d6xyplot')"><g class="scatterlayer mlayer"><g class="trace scatter trace17997a" style="stroke-miterlimit: 2;"><g class="fills"><g><path class="js-fill" d="M669.33,380L-245.36,380L-245.36,377.81L-142.53,377.81L-140.72,377.57L-131.7,378.3L-129.9,378.78L-120.88,379.27L-119.07,379.27L-90.21,378.3L-88.4,377.08L-81.19,376.59L-79.38,376.35L-75.77,376.11L-73.97,376.11L-72.16,376.11L-70.36,374.16L-66.75,370.02L-64.95,364.18L-63.14,359.8L-61.34,359.31L-59.54,358.58L-57.73,356.14L-54.12,350.06L-52.32,350.06L-50.52,345.19L-48.71,343.97L-46.91,343.97L-45.1,335.7L-43.3,334.48L-41.49,334.96L-39.69,335.21L-37.89,340.08L-34.28,339.1L-32.47,345.19L-21.65,352.49L-19.85,357.36L-18.04,360.53L-16.24,361.74L-14.43,364.66L-12.63,363.93L-7.22,364.91L-5.41,362.72L-3.61,363.93L-1.8,362.47L0,363.69L1.8,363.2L3.61,361.99L5.41,359.31L7.22,359.31L9.02,353.95L12.63,339.59L14.43,337.89L16.24,338.86L18.04,324.74L19.85,310.62L21.65,306L25.26,291.88L27.06,290.17L28.87,288.47L30.67,283.84L32.47,281.9L34.28,270.7L36.08,270.7L37.89,261.93L39.69,260.47L41.49,260.72L45.1,234.43L46.91,233.94L48.71,231.02L50.52,230.04L52.32,228.34L54.12,228.1L59.54,250.01L61.34,260.47L63.14,273.62L64.95,277.76L66.75,278.49L68.56,291.39L70.36,301.37L72.16,316.46L73.97,312.57L75.77,317.68L79.38,320.85L81.19,332.53L82.99,340.56L84.79,338.86L86.6,351.76L88.4,354.68L92.01,354.68L93.81,357.12L95.62,362.23L97.42,362.47L101.03,366.12L102.84,366.12L104.64,366.12L106.44,369.05L113.66,367.83L115.46,368.8L117.27,369.05L119.07,370.51L122.68,369.29L124.48,369.53L131.7,368.07L133.51,366.37L137.11,367.83L138.92,367.1L142.53,364.18L144.33,361.01L146.13,361.26L147.94,357.6L149.74,355.66L151.55,358.09L153.35,355.41L155.15,355.41L156.96,354.68L158.76,351.03L160.57,350.06L162.37,347.14L164.18,347.87L165.98,350.3L167.78,350.54L169.59,347.62L171.39,348.84L173.2,348.35L175,350.54L176.8,346.89L178.61,347.38L180.41,346.65L182.22,347.38L184.02,344.46L185.82,344.7L187.63,342.51L189.43,340.56L191.24,341.05L193.04,341.78L194.85,335.21L196.65,336.67L198.45,336.91L203.87,325.96L205.67,324.25L209.28,314.76L211.08,313.3L212.89,316.22L214.69,314.03L218.3,319.14L220.1,320.6L221.91,321.58L223.71,320.6L225.52,318.17L227.32,317.19L229.12,314.76L230.93,314.03L234.54,325.47L236.34,322.79L238.14,322.79L239.95,326.93L241.75,328.39L243.56,328.88L247.16,326.69L248.97,330.83L254.38,321.58L256.19,320.85L257.99,312.81L259.79,308.67L261.6,301.61L263.4,302.59L265.21,302.59L267.01,304.05L268.81,304.54L270.62,306.97L272.42,301.61L274.23,307.7L276.03,304.78L277.84,300.4L279.64,298.45L281.44,298.21L283.25,298.45L285.05,304.05L286.86,298.69L288.66,301.13L290.46,305.51L292.27,306.24L294.07,307.21L295.88,311.11L297.68,312.08L299.48,318.65L301.29,322.79L303.09,323.04L304.9,325.23L306.7,325.23L308.51,323.77L310.31,324.74L312.11,326.2L313.92,324.5L315.72,327.17L317.53,327.17L319.33,326.44L321.13,329.12L322.94,328.39L324.74,324.5L326.55,325.23L328.35,321.82L330.15,321.58L331.96,322.55L333.76,330.83L335.57,325.71L337.37,324.25L339.18,324.74L340.98,325.47L342.78,321.82L344.59,320.12L346.39,307.7L348.2,310.13L350,310.86L351.8,309.65L353.61,306.73L355.41,310.38L357.22,308.92L360.82,313.3L362.63,313.79L364.43,315L366.24,317.92L368.04,318.41L369.85,321.09L371.65,317.44L373.45,318.65L375.26,319.39L377.06,323.28L378.87,324.5L380.67,326.69L384.28,324.25L386.08,324.5L387.89,327.66L389.69,324.98L391.49,330.34L393.3,330.58L395.1,332.53L396.91,346.16L398.71,353.47L400.52,356.39L402.32,363.2L404.12,366.12L413.14,364.66L414.95,364.18L416.75,362.96L418.56,364.18L420.36,362.96L422.16,367.58L423.97,367.58L425.77,369.29L427.58,368.56L429.38,369.78L431.19,369.78L432.99,370.99L434.79,370.02L436.6,372.7L442.01,374.16L443.81,373.43L449.23,372.94L451.03,373.91L463.66,375.62L465.46,375.86L472.68,377.81L474.48,378.05L478.09,377.81L479.9,378.3L488.92,379.03L490.72,379.27L494.33,376.84L496.13,376.84L501.55,371.97L503.35,368.8L505.15,351.52L506.96,347.87L508.76,346.41L510.57,319.14L512.37,297.48L514.18,294.8L515.98,268.99L517.78,261.93L519.59,244.89L521.39,238.81L525,178.68L526.8,123.66L528.61,109.06L530.41,69.62L532.22,57.45L534.02,57.69L535.82,19.47L537.63,12.42L539.43,13.63L541.24,0L544.85,5.6L546.65,6.09L550.26,40.41L552.06,52.34L555.67,89.58L557.47,99.56L559.28,98.35L561.08,120.99L562.89,126.1L564.69,137.05L566.49,142.9L568.3,151.66L570.1,156.28L571.91,156.77L575.52,189.88L577.32,197.91L579.12,204.97L580.93,220.79L584.54,229.56L586.34,243.92L588.14,249.52L589.95,260.96L591.75,271.43L593.56,274.11L597.16,281.17L598.97,288.71L602.58,298.69L604.38,301.13L606.19,309.65L607.99,312.57L609.79,311.35L611.6,317.44L613.4,318.41L615.21,323.52L618.81,325.47L620.62,323.04L622.42,325.23L624.23,328.88L626.03,332.29L627.84,333.75L631.44,338.86L633.25,345.19L635.05,344.22L636.86,348.84L638.66,350.06L640.46,352.98L642.27,356.14L644.07,361.5L647.68,359.31L649.48,359.8L651.29,360.28L653.09,362.23L654.9,363.93L656.7,363.93L663.92,369.78L665.72,369.05L669.33,368.8" style="fill: rgb(8, 115, 191); fill-opacity: 0.2; stroke-width: 0;"/></g></g><g class="errorbars"/><g class="lines"><path class="js-line" d="M-245.36,377.81L-142.53,377.81L-140.72,377.57L-131.7,378.3L-129.9,378.78L-120.88,379.27L-119.07,379.27L-90.21,378.3L-88.4,377.08L-81.19,376.59L-79.38,376.35L-75.77,376.11L-73.97,376.11L-72.16,376.11L-70.36,374.16L-66.75,370.02L-64.95,364.18L-63.14,359.8L-61.34,359.31L-59.54,358.58L-57.73,356.14L-54.12,350.06L-52.32,350.06L-50.52,345.19L-48.71,343.97L-46.91,343.97L-45.1,335.7L-43.3,334.48L-41.49,334.96L-39.69,335.21L-37.89,340.08L-34.28,339.1L-32.47,345.19L-21.65,352.49L-19.85,357.36L-18.04,360.53L-16.24,361.74L-14.43,364.66L-12.63,363.93L-7.22,364.91L-5.41,362.72L-3.61,363.93L-1.8,362.47L0,363.69L1.8,363.2L3.61,361.99L5.41,359.31L7.22,359.31L9.02,353.95L12.63,339.59L14.43,337.89L16.24,338.86L18.04,324.74L19.85,310.62L21.65,306L25.26,291.88L27.06,290.17L28.87,288.47L30.67,283.84L32.47,281.9L34.28,270.7L36.08,270.7L37.89,261.93L39.69,260.47L41.49,260.72L45.1,234.43L46.91,233.94L48.71,231.02L50.52,230.04L52.32,228.34L54.12,228.1L59.54,250.01L61.34,260.47L63.14,273.62L64.95,277.76L66.75,278.49L68.56,291.39L70.36,301.37L72.16,316.46L73.97,312.57L75.77,317.68L79.38,320.85L81.19,332.53L82.99,340.56L84.79,338.86L86.6,351.76L88.4,354.68L92.01,354.68L93.81,357.12L95.62,362.23L97.42,362.47L101.03,366.12L102.84,366.12L104.64,366.12L106.44,369.05L113.66,367.83L115.46,368.8L117.27,369.05L119.07,370.51L122.68,369.29L124.48,369.53L131.7,368.07L133.51,366.37L137.11,367.83L138.92,367.1L142.53,364.18L144.33,361.01L146.13,361.26L147.94,357.6L149.74,355.66L151.55,358.09L153.35,355.41L155.15,355.41L156.96,354.68L158.76,351.03L160.57,350.06L162.37,347.14L164.18,347.87L165.98,350.3L167.78,350.54L169.59,347.62L171.39,348.84L173.2,348.35L175,350.54L176.8,346.89L178.61,347.38L180.41,346.65L182.22,347.38L184.02,344.46L185.82,344.7L187.63,342.51L189.43,340.56L191.24,341.05L193.04,341.78L194.85,335.21L196.65,336.67L198.45,336.91L203.87,325.96L205.67,324.25L209.28,314.76L211.08,313.3L212.89,316.22L214.69,314.03L218.3,319.14L220.1,320.6L221.91,321.58L223.71,320.6L225.52,318.17L227.32,317.19L229.12,314.76L230.93,314.03L234.54,325.47L236.34,322.79L238.14,322.79L239.95,326.93L241.75,328.39L243.56,328.88L247.16,326.69L248.97,330.83L254.38,321.58L256.19,320.85L257.99,312.81L259.79,308.67L261.6,301.61L263.4,302.59L265.21,302.59L267.01,304.05L268.81,304.54L270.62,306.97L272.42,301.61L274.23,307.7L276.03,304.78L277.84,300.4L279.64,298.45L281.44,298.21L283.25,298.45L285.05,304.05L286.86,298.69L288.66,301.13L290.46,305.51L292.27,306.24L294.07,307.21L295.88,311.11L297.68,312.08L299.48,318.65L301.29,322.79L303.09,323.04L304.9,325.23L306.7,325.23L308.51,323.77L310.31,324.74L312.11,326.2L313.92,324.5L315.72,327.17L317.53,327.17L319.33,326.44L321.13,329.12L322.94,328.39L324.74,324.5L326.55,325.23L328.35,321.82L330.15,321.58L331.96,322.55L333.76,330.83L335.57,325.71L337.37,324.25L339.18,324.74L340.98,325.47L342.78,321.82L344.59,320.12L346.39,307.7L348.2,310.13L350,310.86L351.8,309.65L353.61,306.73L355.41,310.38L357.22,308.92L360.82,313.3L362.63,313.79L364.43,315L366.24,317.92L368.04,318.41L369.85,321.09L371.65,317.44L373.45,318.65L375.26,319.39L377.06,323.28L378.87,324.5L380.67,326.69L384.28,324.25L386.08,324.5L387.89,327.66L389.69,324.98L391.49,330.34L393.3,330.58L395.1,332.53L396.91,346.16L398.71,353.47L400.52,356.39L402.32,363.2L404.12,366.12L413.14,364.66L414.95,364.18L416.75,362.96L418.56,364.18L420.36,362.96L422.16,367.58L423.97,367.58L425.77,369.29L427.58,368.56L429.38,369.78L431.19,369.78L432.99,370.99L434.79,370.02L436.6,372.7L442.01,374.16L443.81,373.43L449.23,372.94L451.03,373.91L463.66,375.62L465.46,375.86L472.68,377.81L474.48,378.05L478.09,377.81L479.9,378.3L488.92,379.03L490.72,379.27L494.33,376.84L496.13,376.84L501.55,371.97L503.35,368.8L505.15,351.52L506.96,347.87L508.76,346.41L510.57,319.14L512.37,297.48L514.18,294.8L515.98,268.99L517.78,261.93L519.59,244.89L521.39,238.81L525,178.68L526.8,123.66L528.61,109.06L530.41,69.62L532.22,57.45L534.02,57.69L535.82,19.47L537.63,12.42L539.43,13.63L541.24,0L544.85,5.6L546.65,6.09L550.26,40.41L552.06,52.34L555.67,89.58L557.47,99.56L559.28,98.35L561.08,120.99L562.89,126.1L564.69,137.05L566.49,142.9L568.3,151.66L570.1,156.28L571.91,156.77L575.52,189.88L577.32,197.91L579.12,204.97L580.93,220.79L584.54,229.56L586.34,243.92L588.14,249.52L589.95,260.96L591.75,271.43L593.56,274.11L597.16,281.17L598.97,288.71L602.58,298.69L604.38,301.13L606.19,309.65L607.99,312.57L609.79,311.35L611.6,317.44L613.4,318.41L615.21,323.52L618.81,325.47L620.62,323.04L622.42,325.23L624.23,328.88L626.03,332.29L627.84,333.75L631.44,338.86L633.25,345.19L635.05,344.22L636.86,348.84L638.66,350.06L640.46,352.98L642.27,356.14L644.07,361.5L647.68,359.31L649.48,359.8L651.29,360.28L653.09,362.23L654.9,363.93L656.7,363.93L663.92,369.78L665.72,369.05L669.33,368.8" style="vector-effect: non-scaling-stroke; fill: none; stroke: rgb(8, 115, 191); stroke-opacity: 1; stroke-width: 0.5px; opacity: 1;"/></g><g class="points"/><g class="text"/></g><g class="trace scatter trace3f86d0" style="stroke-miterlimit: 2;"><g class="fills"><g><path class="js-fill" d="M687.37,380L669.33,380L669.33,368.8L674.74,370.02L676.55,366.61L680.15,363.93L681.96,362.23L683.76,361.26L685.57,361.74L687.37,361.26" style="fill: rgb(8, 115, 191); fill-opacity: 0.4; stroke-width: 0;"/></g></g><g class="errorbars"/><g class="lines"><path class="js-line" d="M669.33,368.8L674.74,370.02L676.55,366.61L680.15,363.93L681.96,362.23L683.76,361.26L685.57,361.74L687.37,361.26" style="vector-effect: non-scaling-stroke; fill: none; stroke: rgb(8, 115, 191); stroke-opacity: 1; stroke-width: 2px; opacity: 1;"/></g><g class="points"/><g class="text"/></g><g class="trace scatter trace142e3e" style="stroke-miterlimit: 2; opacity: 1;"><g class="fills"/><g class="errorbars"/><g class="lines"/><g class="points"><path class="point" transform="translate(687.37,361.26)" d="M15,0A15,15 0 1,1 0,-15A15,15 0 0,1 15,0Z" style="opacity: 1; stroke-width: 0px; fill: rgb(8, 115, 191); fill-opacity: 1;"/></g><g class="text"/></g></g></g><g class="overplot"/><path class="xlines-above crisp" style="fill: none; stroke-width: 1px; stroke: rgb(0, 0, 0); stroke-opacity: 0;" d=""/><path class="ylines-above crisp" style="fill: none;" d="M0,0"/><g class="overlines-above"/><g class="xaxislayer-above"><path class="xtick ticks crisp" d="M0,450v-5" transform="translate(109.53999999999999,0)" style="stroke: rgb(68, 68, 68); stroke-opacity: 1; stroke-width: 1px;"/><path class="xtick ticks crisp" d="M0,450v-5" transform="translate(219.59,0)" style="stroke: rgb(68, 68, 68); stroke-opacity: 1; stroke-width: 1px;"/><path class="xtick ticks crisp" d="M0,450v-5" transform="translate(326.03,0)" style="stroke: rgb(68, 68, 68); stroke-opacity: 1; stroke-width: 1px;"/><path class="xtick ticks crisp" d="M0,450v-5" transform="translate(436.08,0)" style="stroke: rgb(68, 68, 68); stroke-opacity: 1; stroke-width: 1px;"/><path class="xtick ticks crisp" d="M0,450v-5" transform="translate(546.13,0)" style="stroke: rgb(68, 68, 68); stroke-opacity: 1; stroke-width: 1px;"/><path class="xtick ticks crisp" d="M0,450v-5" transform="translate(657.99,0)" style="stroke: rgb(68, 68, 68); stroke-opacity: 1; stroke-width: 1px;"/><g class="xtick"><text text-anchor="middle" x="0" y="469" transform="translate(109.53999999999999,0)" style="font-family: 'Open Sans', verdana, arial, sans-serif; font-size: 18px; fill: rgb(42, 63, 95); fill-opacity: 1; white-space: pre;">01/11</text></g><g class="xtick"><text text-anchor="middle" x="0" y="469" transform="translate(219.59,0)" style="font-family: 'Open Sans', verdana, arial, sans-serif; font-size: 18px; fill: rgb(42, 63, 95); fill-opacity: 1; white-space: pre;">01/01</text></g><g class="xtick"><text text-anchor="middle" x="0" y="469" transform="translate(326.03,0)" style="font-family: 'Open Sans', verdana, arial, sans-serif; font-size: 18px; fill: rgb(42, 63, 95); fill-opacity: 1; white-space: pre;">01/03</text></g><g class="xtick"><text text-anchor="middle" x="0" y="469" transform="translate(436.08,0)" style="font-family: 'Open Sans', verdana, arial, sans-serif; font-size: 18px; fill: rgb(42, 63, 95); fill-opacity: 1; white-space: pre;">01/05</text></g><g class="xtick"><text text-anchor="middle" x="0" y="469" transform="translate(546.13,0)" style="font-family: 'Open Sans', verdana, arial, sans-serif; font-size: 18px; fill: rgb(42, 63, 95); fill-opacity: 1; white-space: pre;">01/07</text></g><g class="xtick"><text text-anchor="middle" x="0" y="469" transform="translate(657.99,0)" style="font-family: 'Open Sans', verdana, arial, sans-serif; font-size: 18px; fill: rgb(42, 63, 95); fill-opacity: 1; white-space: pre;">01/09</text></g></g><g class="yaxislayer-above"/><g class="overaxes-above"/></g></g><g class="polarlayer"/><g class="ternarylayer"/><g class="geolayer"/><g class="funnelarealayer"/><g class="pielayer"/><g class="treemaplayer"/><g class="sunburstlayer"/><g class="glimages"/><defs id="topdefs-8122d6"><g class="clips"/></defs><g class="layer-above"><g class="imagelayer"/><g class="shapelayer"><path data-index="0" fill-rule="evenodd" d="M-963.92,427.82L354.9,427.82" clip-path="url('#clip8122d6xy')" style="opacity: 1; stroke: rgb(255, 0, 0); stroke-opacity: 1; fill: rgb(0, 0, 0); fill-opacity: 0; stroke-dasharray: 3px, 3px; stroke-width: 1.5px;"/></g></g><g class="infolayer"><g class="g-gtitle"><text class="gtitle" x="375" y="25" text-anchor="middle" dy="0.7em" style="font-family: 'Open Sans', verdana, arial, sans-serif; font-size: 50px; fill: rgb(42, 63, 95); opacity: 1; font-weight: normal; white-space: pre;"><tspan style="font-weight:bold">Haute-Corse (2B)</tspan></text></g><g class="g-xtitle"/><g class="annotation" data-index="0" style="opacity: 1;"><g class="annotation-text-g" transform="rotate(0,695.37,371.26)"><g class="cursor-pointer" transform="translate(652, 335)"><rect class="bg" x="0.5" y="0.5" width="86" height="71" style="stroke-width: 1px; stroke: rgb(0, 0, 0); stroke-opacity: 0; fill: rgb(255, 255, 255); fill-opacity: 0.6;"/><text class="annotation-text" text-anchor="middle" x="43.53125" y="55.5" style="font-family: 'Open Sans', verdana, arial, sans-serif; font-size: 50px; fill: rgb(8, 115, 191); fill-opacity: 1; white-space: pre;"> <tspan style="font-weight:bold">42 </tspan></text></g></g><g class="annotation-arrow-g" style="opacity: 1;"><path d="M723.77,406.76L735.37,421.26" style="stroke-width: 1px; stroke: rgb(8, 115, 191); stroke-opacity: 1; stroke-dasharray: 0px, 0px, 18.569px, 18.569px;"/></g></g></g></svg>