<svg class="main-svg" xmlns="http://www.w3.org/2000/svg" xmlns:xlink="http://www.w3.org/1999/xlink" width="1125" height="750" style="" viewBox="0 0 750 500"><rect x="0" y="0" width="750" height="500" style="fill: rgb(0, 0, 0); fill-opacity: 0;"/><defs id="defs-4dda5c"><g class="clips"><clipPath id="clip4dda5cxyplot" class="plotclip"><rect width="700" height="380"/></clipPath><clipPath class="axesclip" id="clip4dda5cx"><rect x="50" y="0" width="700" height="500"/></clipPath><clipPath class="axesclip" id="clip4dda5cy"><rect x="0" y="70" width="750" height="380"/></clipPath><clipPath class="axesclip" id="clip4dda5cxy"><rect x="50" y="70" width="700" height="380"/></clipPath></g><g class="gradients"/></defs><g class="bglayer"><rect class="bg" x="50" y="70" width="700" height="380" style="fill: rgb(0, 0, 0); fill-opacity: 0; stroke-width: 0;"/></g><g class="layer-below"><g class="imagelayer"/><g class="shapelayer"/></g><g class="cartesianlayer"><g class="subplot xy"><g class="layer-subplot"><g class="shapelayer"/><g class="imagelayer"/></g><g class="gridlayer"><g class="x"><path class="xgrid crisp" transform="translate(109.08,0)" d="M0,70v380" style="stroke: rgb(255, 255, 255); stroke-opacity: 1; stroke-width: 1px;"/><path class="xgrid crisp" transform="translate(218.29,0)" d="M0,70v380" style="stroke: rgb(255, 255, 255); stroke-opacity: 1; stroke-width: 1px;"/><path class="xgrid crisp" transform="translate(323.91,0)" d="M0,70v380" style="stroke: rgb(255, 255, 255); stroke-opacity: 1; stroke-width: 1px;"/><path class="xgrid crisp" transform="translate(433.12,0)" d="M0,70v380" style="stroke: rgb(255, 255, 255); stroke-opacity: 1; stroke-width: 1px;"/><path class="xgrid crisp" transform="translate(542.3299999999999,0)" d="M0,70v380" style="stroke: rgb(255, 255, 255); stroke-opacity: 1; stroke-width: 1px;"/><path class="xgrid crisp" transform="translate(653.32,0)" d="M0,70v380" style="stroke: rgb(255, 255, 255); stroke-opacity: 1; stroke-width: 1px;"/></g><g class="y"/></g><g class="zerolinelayer"/><path class="xlines-below"/><path class="ylines-below"/><g class="overlines-below"/><g class="xaxislayer-below"/><g class="yaxislayer-below"/><g class="overaxes-below"/><g class="plot" transform="translate(50, 70)" clip-path="url('#clip4dda5cxyplot')"><g class="scatterlayer mlayer"><g class="trace scatter trace324633" style="stroke-miterlimit: 2;"><g class="fills"><g><path class="js-fill" d="M669.57,380L-243.48,380L-243.48,363.24L-234.53,352.42L-232.74,355.51L-223.79,371.49L-221.99,371.49L-218.41,373.81L-216.62,376.91L-202.3,378.97L-200.51,378.71L-182.61,378.97L-180.82,378.71L-155.75,377.42L-153.96,376.39L-132.48,378.2L-130.69,377.68L-125.32,377.94L-123.53,378.45L-100.26,376.65L-98.47,376.13L-94.88,375.1L-93.09,372.78L-85.93,370.46L-84.14,370.2L-82.35,369.43L-80.56,366.08L-71.61,358.6L-69.82,352.93L-68.03,354.48L-66.24,352.67L-64.45,352.16L-62.66,353.7L-59.08,352.42L-57.29,351.9L-50.13,325.6L-48.34,323.03L-46.55,322.51L-44.76,316.84L-42.97,307.82L-41.18,308.85L-39.39,301.11L-37.6,299.82L-35.81,300.85L-34.02,299.57L-32.23,289L-30.43,296.47L-26.85,301.11L-25.06,303.18L-23.27,300.08L-21.48,301.11L-19.69,311.94L-17.9,307.3L-16.11,299.57L-14.32,300.85L-10.74,295.96L-8.95,296.73L-7.16,302.66L-5.37,312.71L-3.58,323.54L-1.79,329.47L1.79,339.78L3.58,338.49L7.16,334.88L8.95,329.73L14.32,314L16.11,314.52L17.9,302.92L19.69,297.5L21.48,292.86L23.27,281L26.85,261.67L28.64,260.64L30.43,245.17L32.23,214.23L35.81,157L37.6,119.88L41.18,111.37L42.97,81.21L46.55,37.9L48.34,26.04L50.13,31.71L51.92,19.85L53.71,20.11L55.5,0L57.29,0.52L59.08,7.99L62.66,43.57L64.45,56.72L66.24,59.04L68.03,87.14L69.82,104.67L71.61,149.27L73.4,145.66L75.19,154.17L76.98,158.55L78.77,159.84L82.35,206.5L84.14,194.64L85.93,225.58L87.72,232.8L89.51,238.47L91.3,238.21L96.68,268.11L98.47,276.11L100.26,291.32L102.05,296.73L103.84,297.5L105.63,301.89L109.21,308.33L111,310.91L112.79,307.56L114.58,306.01L116.37,304.98L118.16,308.07L121.74,296.21L123.53,292.09L125.32,294.41L127.11,294.41L128.9,295.44L130.69,298.02L132.48,301.63L134.27,300.6L136.06,301.63L137.85,304.21L141.43,305.5L143.22,304.98L148.59,323.03L150.38,331.79L152.17,332.56L153.96,332.31L155.75,336.43L157.54,333.08L159.34,329.73L161.13,320.96L162.92,320.19L164.71,313.74L166.5,312.97L168.29,306.53L170.08,304.46L171.87,297.25L173.66,294.15L175.45,269.66L180.82,266.57L182.61,261.67L184.4,261.93L186.19,252.65L189.77,242.85L191.56,242.08L193.35,230.47L195.14,230.22L196.93,223.77L198.72,211.66L200.51,211.66L202.3,209.59L204.09,208.82L205.88,186.39L207.67,169.12L209.46,166.28L211.25,164.74L213.04,167.06L216.62,170.92L218.41,187.68L221.99,186.39L223.79,180.46L227.37,175.56L229.16,174.27L230.95,174.27L232.74,184.84L236.32,223.51L238.11,231.76L239.9,237.69L241.69,236.15L243.48,237.44L245.27,236.66L247.06,229.44L248.85,227.12L252.43,210.88L254.22,213.2L256.01,193.87L257.8,185.88L259.59,168.34L261.38,167.83L263.17,175.82L264.96,175.82L266.75,176.34L268.54,197.48L270.33,196.19L272.12,203.41L273.91,200.83L275.7,195.67L279.28,188.71L281.07,183.81L282.86,180.46L284.65,174.79L286.45,169.63L288.24,161.64L290.03,162.67L291.82,166.54L293.61,144.11L295.4,148.24L297.19,149.01L298.98,146.43L300.77,141.53L302.56,144.11L304.35,142.56L306.14,157L307.93,157.52L309.72,153.91L311.51,149.27L313.3,153.91L315.09,139.47L316.88,139.47L318.67,120.91L320.46,110.34L324.04,90.49L325.83,85.59L327.62,88.68L329.41,89.72L331.2,134.57L332.99,115.24L334.78,121.68L336.57,119.62L338.36,111.37L340.15,108.79L341.94,108.28L343.73,78.37L345.52,100.8L347.31,105.18L349.1,112.4L350.9,124.52L352.69,131.22L354.48,133.28L356.27,133.8L358.06,139.99L359.85,148.75L361.64,153.65L363.43,151.85L365.22,156.74L367.01,154.94L368.8,161.9L370.59,169.63L372.38,185.1L377.75,238.98L379.54,241.04L383.12,257.8L384.91,251.61L386.7,249.04L388.49,248.26L390.28,246.72L392.07,246.2L393.86,254.97L395.65,254.71L397.44,258.06L399.23,274.56L401.02,283.07L402.81,282.04L404.6,281.52L406.39,283.84L408.18,287.96L409.97,294.67L411.76,288.48L413.55,290.54L415.35,289L417.14,289.77L418.93,308.33L420.72,309.88L424.3,307.82L426.09,304.98L427.88,308.59L429.67,309.88L431.46,304.46L433.25,309.88L438.62,330.24L440.41,331.28L442.2,331.02L443.99,334.11L447.57,342.36L449.36,347L452.94,354.22L454.73,354.22L458.31,364.27L460.1,365.05L461.89,363.5L463.68,364.02L469.05,365.56L470.84,365.56L472.63,365.05L474.42,367.11L476.21,367.88L478.01,367.37L479.8,367.37L481.59,368.4L483.38,366.59L485.17,361.18L488.75,355.77L490.54,356.02L492.33,355.51L494.12,353.7L495.91,354.22L497.7,359.89L501.28,364.02L503.07,364.53L504.86,364.27L506.65,361.18L508.44,358.6L510.23,358.09L512.02,352.42L513.81,344.17L515.6,338.75L517.39,338.24L519.18,332.31L520.97,322.25L522.76,313.23L524.55,309.88L526.34,305.24L528.13,297.25L529.92,296.47L531.71,282.29L537.08,259.86L538.87,258.32L540.66,261.41L542.46,259.86L544.25,263.99L546.04,265.28L549.62,275.33L551.41,275.59L553.2,273.01L554.99,276.11L556.78,280.49L558.57,282.29L562.15,273.27L563.94,271.47L565.73,272.5L567.52,270.69L569.31,266.57L571.1,271.72L574.68,282.04L576.47,282.29L580.05,282.81L581.84,279.2L583.63,275.59L585.42,275.85L589,286.16L590.79,287.96L592.58,288.48L594.37,297.76L596.16,305.5L597.95,306.01L599.74,307.04L601.53,307.04L603.32,306.01L605.12,306.78L606.91,307.04L608.7,308.59L614.07,314.78L615.86,320.71L617.65,320.19L619.44,325.86L621.23,328.18L623.02,324.31L624.81,320.19L626.6,320.96L630.18,318.64L631.97,322.25L633.76,323.03L635.55,329.99L637.34,336.17L639.13,335.66L640.92,336.95L642.71,339.53L644.5,336.17L646.29,335.4L648.08,335.14L649.87,338.24L651.66,342.1L653.45,343.65L655.24,343.13L657.03,346.23L658.82,346.74L660.61,350.87L662.4,349.32L664.19,349.84L667.77,351.64L669.57,351.38" style="fill: rgb(8, 115, 191); fill-opacity: 0.2; stroke-width: 0;"/></g></g><g class="errorbars"/><g class="lines"><path class="js-line" d="M-243.48,363.24L-234.53,352.42L-232.74,355.51L-223.79,371.49L-221.99,371.49L-218.41,373.81L-216.62,376.91L-202.3,378.97L-200.51,378.71L-182.61,378.97L-180.82,378.71L-155.75,377.42L-153.96,376.39L-132.48,378.2L-130.69,377.68L-125.32,377.94L-123.53,378.45L-100.26,376.65L-98.47,376.13L-94.88,375.1L-93.09,372.78L-85.93,370.46L-84.14,370.2L-82.35,369.43L-80.56,366.08L-71.61,358.6L-69.82,352.93L-68.03,354.48L-66.24,352.67L-64.45,352.16L-62.66,353.7L-59.08,352.42L-57.29,351.9L-50.13,325.6L-48.34,323.03L-46.55,322.51L-44.76,316.84L-42.97,307.82L-41.18,308.85L-39.39,301.11L-37.6,299.82L-35.81,300.85L-34.02,299.57L-32.23,289L-30.43,296.47L-26.85,301.11L-25.06,303.18L-23.27,300.08L-21.48,301.11L-19.69,311.94L-17.9,307.3L-16.11,299.57L-14.32,300.85L-10.74,295.96L-8.95,296.73L-7.16,302.66L-5.37,312.71L-3.58,323.54L-1.79,329.47L1.79,339.78L3.58,338.49L7.16,334.88L8.95,329.73L14.32,314L16.11,314.52L17.9,302.92L19.69,297.5L21.48,292.86L23.27,281L26.85,261.67L28.64,260.64L30.43,245.17L32.23,214.23L35.81,157L37.6,119.88L41.18,111.37L42.97,81.21L46.55,37.9L48.34,26.04L50.13,31.71L51.92,19.85L53.71,20.11L55.5,0L57.29,0.52L59.08,7.99L62.66,43.57L64.45,56.72L66.24,59.04L68.03,87.14L69.82,104.67L71.61,149.27L73.4,145.66L75.19,154.17L76.98,158.55L78.77,159.84L82.35,206.5L84.14,194.64L85.93,225.58L87.72,232.8L89.51,238.47L91.3,238.21L96.68,268.11L98.47,276.11L100.26,291.32L102.05,296.73L103.84,297.5L105.63,301.89L109.21,308.33L111,310.91L112.79,307.56L114.58,306.01L116.37,304.98L118.16,308.07L121.74,296.21L123.53,292.09L125.32,294.41L127.11,294.41L128.9,295.44L130.69,298.02L132.48,301.63L134.27,300.6L136.06,301.63L137.85,304.21L141.43,305.5L143.22,304.98L148.59,323.03L150.38,331.79L152.17,332.56L153.96,332.31L155.75,336.43L157.54,333.08L159.34,329.73L161.13,320.96L162.92,320.19L164.71,313.74L166.5,312.97L168.29,306.53L170.08,304.46L171.87,297.25L173.66,294.15L175.45,269.66L180.82,266.57L182.61,261.67L184.4,261.93L186.19,252.65L189.77,242.85L191.56,242.08L193.35,230.47L195.14,230.22L196.93,223.77L198.72,211.66L200.51,211.66L202.3,209.59L204.09,208.82L205.88,186.39L207.67,169.12L209.46,166.28L211.25,164.74L213.04,167.06L216.62,170.92L218.41,187.68L221.99,186.39L223.79,180.46L227.37,175.56L229.16,174.27L230.95,174.27L232.74,184.84L236.32,223.51L238.11,231.76L239.9,237.69L241.69,236.15L243.48,237.44L245.27,236.66L247.06,229.44L248.85,227.12L252.43,210.88L254.22,213.2L256.01,193.87L257.8,185.88L259.59,168.34L261.38,167.83L263.17,175.82L264.96,175.82L266.75,176.34L268.54,197.48L270.33,196.19L272.12,203.41L273.91,200.83L275.7,195.67L279.28,188.71L281.07,183.81L282.86,180.46L284.65,174.79L286.45,169.63L288.24,161.64L290.03,162.67L291.82,166.54L293.61,144.11L295.4,148.24L297.19,149.01L298.98,146.43L300.77,141.53L302.56,144.11L304.35,142.56L306.14,157L307.93,157.52L309.72,153.91L311.51,149.27L313.3,153.91L315.09,139.47L316.88,139.47L318.67,120.91L320.46,110.34L324.04,90.49L325.83,85.59L327.62,88.68L329.41,89.72L331.2,134.57L332.99,115.24L334.78,121.68L336.57,119.62L338.36,111.37L340.15,108.79L341.94,108.28L343.73,78.37L345.52,100.8L347.31,105.18L349.1,112.4L350.9,124.52L352.69,131.22L354.48,133.28L356.27,133.8L358.06,139.99L359.85,148.75L361.64,153.65L363.43,151.85L365.22,156.74L367.01,154.94L368.8,161.9L370.59,169.63L372.38,185.1L377.75,238.98L379.54,241.04L383.12,257.8L384.91,251.61L386.7,249.04L388.49,248.26L390.28,246.72L392.07,246.2L393.86,254.97L395.65,254.71L397.44,258.06L399.23,274.56L401.02,283.07L402.81,282.04L404.6,281.52L406.39,283.84L408.18,287.96L409.97,294.67L411.76,288.48L413.55,290.54L415.35,289L417.14,289.77L418.93,308.33L420.72,309.88L424.3,307.82L426.09,304.98L427.88,308.59L429.67,309.88L431.46,304.46L433.25,309.88L438.62,330.24L440.41,331.28L442.2,331.02L443.99,334.11L447.57,342.36L449.36,347L452.94,354.22L454.73,354.22L458.31,364.27L460.1,365.05L461.89,363.5L463.68,364.02L469.05,365.56L470.84,365.56L472.63,365.05L474.42,367.11L476.21,367.88L478.01,367.37L479.8,367.37L481.59,368.4L483.38,366.59L485.17,361.18L488.75,355.77L490.54,356.02L492.33,355.51L494.12,353.7L495.91,354.22L497.7,359.89L501.28,364.02L503.07,364.53L504.86,364.27L506.65,361.18L508.44,358.6L510.23,358.09L512.02,352.42L513.81,344.17L515.6,338.75L517.39,338.24L519.18,332.31L520.97,322.25L522.76,313.23L524.55,309.88L526.34,305.24L528.13,297.25L529.92,296.47L531.71,282.29L537.08,259.86L538.87,258.32L540.66,261.41L542.46,259.86L544.25,263.99L546.04,265.28L549.62,275.33L551.41,275.59L553.2,273.01L554.99,276.11L556.78,280.49L558.57,282.29L562.15,273.27L563.94,271.47L565.73,272.5L567.52,270.69L569.31,266.57L571.1,271.72L574.68,282.04L576.47,282.29L580.05,282.81L581.84,279.2L583.63,275.59L585.42,275.85L589,286.16L590.79,287.96L592.58,288.48L594.37,297.76L596.16,305.5L597.95,306.01L599.74,307.04L601.53,307.04L603.32,306.01L605.12,306.78L606.91,307.04L608.7,308.59L614.07,314.78L615.86,320.71L617.65,320.19L619.44,325.86L621.23,328.18L623.02,324.31L624.81,320.19L626.6,320.96L630.18,318.64L631.97,322.25L633.76,323.03L635.55,329.99L637.34,336.17L639.13,335.66L640.92,336.95L642.71,339.53L644.5,336.17L646.29,335.4L648.08,335.14L649.87,338.24L651.66,342.1L653.45,343.65L655.24,343.13L657.03,346.23L658.82,346.74L660.61,350.87L662.4,349.32L664.19,349.84L667.77,351.64L669.57,351.38" style="vector-effect: non-scaling-stroke; fill: none; stroke: rgb(8, 115, 191); stroke-opacity: 1; stroke-width: 0.5px; opacity: 1;"/></g><g class="points"/><g class="text"/></g><g class="trace scatter trace09280f" style="stroke-miterlimit: 2;"><g class="fills"><g><path class="js-fill" d="M687.47,380L669.57,380L669.57,351.38L671.36,354.48L673.15,351.64L674.94,349.84L676.73,349.58L680.31,347.26L682.1,349.58L683.89,342.1L685.68,340.56L687.47,339.27" style="fill: rgb(8, 115, 191); fill-opacity: 0.4; stroke-width: 0;"/></g></g><g class="errorbars"/><g class="lines"><path class="js-line" d="M669.57,351.38L671.36,354.48L673.15,351.64L674.94,349.84L676.73,349.58L680.31,347.26L682.1,349.58L683.89,342.1L685.68,340.56L687.47,339.27" style="vector-effect: non-scaling-stroke; fill: none; stroke: rgb(8, 115, 191); stroke-opacity: 1; stroke-width: 2px; opacity: 1;"/></g><g class="points"/><g class="text"/></g><g class="trace scatter tracecfbb1b" style="stroke-miterlimit: 2; opacity: 1;"><g class="fills"/><g class="errorbars"/><g class="lines"/><g class="points"><path class="point" transform="translate(687.47,339.27)" d="M15,0A15,15 0 1,1 0,-15A15,15 0 0,1 15,0Z" style="opacity: 1; stroke-width: 0px; fill: rgb(8, 115, 191); fill-opacity: 1;"/></g><g class="text"/></g></g></g><g class="overplot"/><path class="xlines-above crisp" style="fill: none; stroke-width: 1px; stroke: rgb(0, 0, 0); stroke-opacity: 0;" d=""/><path class="ylines-above crisp" style="fill: none;" d="M0,0"/><g class="overlines-above"/><g class="xaxislayer-above"><path class="xtick ticks crisp" d="M0,450v-5" transform="translate(109.08,0)" style="stroke: rgb(68, 68, 68); stroke-opacity: 1; stroke-width: 1px;"/><path class="xtick ticks crisp" d="M0,450v-5" transform="translate(218.29,0)" style="stroke: rgb(68, 68, 68); stroke-opacity: 1; stroke-width: 1px;"/><path class="xtick ticks crisp" d="M0,450v-5" transform="translate(323.91,0)" style="stroke: rgb(68, 68, 68); stroke-opacity: 1; stroke-width: 1px;"/><path class="xtick ticks crisp" d="M0,450v-5" transform="translate(433.12,0)" style="stroke: rgb(68, 68, 68); stroke-opacity: 1; stroke-width: 1px;"/><path class="xtick ticks crisp" d="M0,450v-5" transform="translate(542.3299999999999,0)" style="stroke: rgb(68, 68, 68); stroke-opacity: 1; stroke-width: 1px;"/><path class="xtick ticks crisp" d="M0,450v-5" transform="translate(653.32,0)" style="stroke: rgb(68, 68, 68); stroke-opacity: 1; stroke-width: 1px;"/><g class="xtick"><text text-anchor="middle" x="0" y="469" transform="translate(109.08,0)" style="font-family: 'Open Sans', verdana, arial, sans-serif; font-size: 18px; fill: rgb(42, 63, 95); fill-opacity: 1; white-space: pre;">01/11</text></g><g class="xtick"><text text-anchor="middle" x="0" y="469" transform="translate(218.29,0)" style="font-family: 'Open Sans', verdana, arial, sans-serif; font-size: 18px; fill: rgb(42, 63, 95); fill-opacity: 1; white-space: pre;">01/01</text></g><g class="xtick"><text text-anchor="middle" x="0" y="469" transform="translate(323.91,0)" style="font-family: 'Open Sans', verdana, arial, sans-serif; font-size: 18px; fill: rgb(42, 63, 95); fill-opacity: 1; white-space: pre;">01/03</text></g><g class="xtick"><text text-anchor="middle" x="0" y="469" transform="translate(433.12,0)" style="font-family: 'Open Sans', verdana, arial, sans-serif; font-size: 18px; fill: rgb(42, 63, 95); fill-opacity: 1; white-space: pre;">01/05</text></g><g class="xtick"><text text-anchor="middle" x="0" y="469" transform="translate(542.3299999999999,0)" style="font-family: 'Open Sans', verdana, arial, sans-serif; font-size: 18px; fill: rgb(42, 63, 95); fill-opacity: 1; white-space: pre;">01/07</text></g><g class="xtick"><text text-anchor="middle" x="0" y="469" transform="translate(653.32,0)" style="font-family: 'Open Sans', verdana, arial, sans-serif; font-size: 18px; fill: rgb(42, 63, 95); fill-opacity: 1; white-space: pre;">01/09</text></g></g><g class="yaxislayer-above"/><g class="overaxes-above"/></g></g><g class="polarlayer"/><g class="ternarylayer"/><g class="geolayer"/><g class="funnelarealayer"/><g class="pielayer"/><g class="treemaplayer"/><g class="sunburstlayer"/><g class="glimages"/><defs id="topdefs-4dda5c"><g class="clips"/></defs><g class="layer-above"><g class="imagelayer"/><g class="shapelayer"><path data-index="0" fill-rule="evenodd" d="M-956.14,393.62L352.56,393.62" clip-path="url('#clip4dda5cxy')" style="opacity: 1; stroke: rgb(255, 0, 0); stroke-opacity: 1; fill: rgb(0, 0, 0); fill-opacity: 0; stroke-dasharray: 3px, 3px; stroke-width: 1.5px;"/></g></g><g class="infolayer"><g class="g-gtitle"><text class="gtitle" x="375" y="25" text-anchor="middle" dy="0.7em" style="font-family: 'Open Sans', verdana, arial, sans-serif; font-size: 50px; fill: rgb(42, 63, 95); opacity: 1; font-weight: normal; white-space: pre;"><tspan style="font-weight:bold">Vienne (86)</tspan></text></g><g class="g-xtitle"/><g class="annotation" data-index="0" style="opacity: 1;"><g class="annotation-text-g" transform="rotate(0,695.47,349.27)"><g class="cursor-pointer" transform="translate(652, 313)"><rect class="bg" x="0.5" y="0.5" width="86" height="71" style="stroke-width: 1px; stroke: rgb(0, 0, 0); stroke-opacity: 0; fill: rgb(255, 255, 255); fill-opacity: 0.6;"/><text class="annotation-text" text-anchor="middle" x="43.53125" y="55.5" style="font-family: 'Open Sans', verdana, arial, sans-serif; font-size: 50px; fill: rgb(8, 115, 191); fill-opacity: 1; white-space: pre;"> <tspan style="font-weight:bold">36 </tspan></text></g></g><g class="annotation-arrow-g" style="opacity: 1;"><path d="M723.87,384.77L735.47,399.27" style="stroke-width: 1px; stroke: rgb(8, 115, 191); stroke-opacity: 1; stroke-dasharray: 0px, 0px, 18.569px, 18.569px;"/></g></g></g></svg>