<svg class="main-svg" xmlns="http://www.w3.org/2000/svg" xmlns:xlink="http://www.w3.org/1999/xlink" width="1125" height="750" style="" viewBox="0 0 750 500"><rect x="0" y="0" width="750" height="500" style="fill: rgb(0, 0, 0); fill-opacity: 0;"/><defs id="defs-e16e85"><g class="clips"><clipPath id="clipe16e85xyplot" class="plotclip"><rect width="700" height="380"/></clipPath><clipPath class="axesclip" id="clipe16e85x"><rect x="50" y="0" width="700" height="500"/></clipPath><clipPath class="axesclip" id="clipe16e85y"><rect x="0" y="70" width="750" height="380"/></clipPath><clipPath class="axesclip" id="clipe16e85xy"><rect x="50" y="70" width="700" height="380"/></clipPath></g><g class="gradients"/></defs><g class="bglayer"><rect class="bg" x="50" y="70" width="700" height="380" style="fill: rgb(0, 0, 0); fill-opacity: 0; stroke-width: 0;"/></g><g class="layer-below"><g class="imagelayer"/><g class="shapelayer"/></g><g class="cartesianlayer"><g class="subplot xy"><g class="layer-subplot"><g class="shapelayer"/><g class="imagelayer"/></g><g class="gridlayer"><g class="x"><path class="xgrid crisp" transform="translate(110.63,0)" d="M0,70v380" style="stroke: rgb(255, 255, 255); stroke-opacity: 1; stroke-width: 1px;"/><path class="xgrid crisp" transform="translate(222.7,0)" d="M0,70v380" style="stroke: rgb(255, 255, 255); stroke-opacity: 1; stroke-width: 1px;"/><path class="xgrid crisp" transform="translate(331.1,0)" d="M0,70v380" style="stroke: rgb(255, 255, 255); stroke-opacity: 1; stroke-width: 1px;"/><path class="xgrid crisp" transform="translate(443.18,0)" d="M0,70v380" style="stroke: rgb(255, 255, 255); stroke-opacity: 1; stroke-width: 1px;"/><path class="xgrid crisp" transform="translate(555.25,0)" d="M0,70v380" style="stroke: rgb(255, 255, 255); stroke-opacity: 1; stroke-width: 1px;"/><path class="xgrid crisp" transform="translate(669.16,0)" d="M0,70v380" style="stroke: rgb(255, 255, 255); stroke-opacity: 1; stroke-width: 1px;"/></g><g class="y"/></g><g class="zerolinelayer"/><path class="xlines-below"/><path class="ylines-below"/><g class="overlines-below"/><g class="xaxislayer-below"/><g class="yaxislayer-below"/><g class="overaxes-below"/><g class="plot" transform="translate(50, 70)" clip-path="url('#clipe16e85xyplot')"><g class="scatterlayer mlayer"><g class="trace scatter trace17c40f" style="stroke-miterlimit: 2;"><g class="fills"><g><path class="js-fill" d="M668.77,380L-249.87,380L-249.87,369.9L-246.19,369.25L-244.36,369.79L-238.85,370.77L-237.01,370.66L-233.33,371.97L-231.5,371.86L-222.31,373.38L-220.47,374.46L-209.45,377.72L-207.61,377.72L-161.68,376.09L-159.84,376.74L-145.14,375.11L-143.31,373.05L-139.63,369.25L-137.8,369.14L-134.12,366.75L-132.28,368.71L-126.77,373.16L-124.93,373.16L-119.42,373.27L-117.59,374.03L-113.91,371.64L-112.07,371.64L-106.56,372.07L-104.72,370.55L-101.05,372.07L-99.21,372.18L-95.54,372.29L-93.7,371.53L-91.86,372.29L-90.03,369.9L-86.35,370.23L-84.51,368.71L-79,365.67L-77.17,367.08L-64.3,361.33L-62.47,362.19L-56.96,361L-55.12,357.63L-47.77,356.66L-45.93,354.92L-44.09,352.64L-42.26,354.81L-38.58,347.86L-36.75,347.75L-33.07,346.67L-31.23,347.86L-29.4,346.56L-27.56,349.17L-25.72,350.03L-23.88,349.38L-22.05,349.6L-20.21,352.64L-16.54,355.68L-14.7,354.27L-11.02,356.11L-9.19,356.01L-7.35,355.14L-5.51,355.57L-3.67,354.38L-1.84,355.9L1.84,354.38L3.67,354.38L14.7,324.3L16.54,323.76L18.37,310.62L20.21,304.65L23.88,286.85L25.72,281.96L27.56,280.98L29.4,281.31L31.23,272.73L33.07,254.93L34.91,249.17L36.75,228.43L38.58,206.61L40.42,194.13L42.26,192.61L44.09,160.03L51.44,71.01L53.28,57L55.12,56.13L56.96,20.19L58.79,7.82L60.63,4.02L62.47,0L64.3,1.09L66.14,9.55L67.98,9.45L71.65,65.47L73.49,120.73L75.33,127.14L77.17,154.5L79,162.1L80.84,163.62L82.68,189.02L84.51,203.57L86.35,177.95L88.19,205.74L91.86,217.69L93.7,218.34L95.54,234.73L97.38,241.14L101.05,256.12L102.89,259.38L104.72,262.74L106.56,260.68L108.4,261.11L110.24,262.63L112.07,266.54L113.91,265.24L115.75,265.02L117.59,262.31L119.42,262.96L121.26,252.21L123.1,249.61L124.93,244.18L126.77,243.74L128.61,244.72L130.45,240.16L132.28,239.94L134.12,240.38L135.96,235.82L139.63,226.81L141.47,219.75L143.31,217.79L145.14,217.9L146.98,212.15L148.82,202.05L150.66,195.43L152.49,200.31L154.33,225.18L156.17,235.27L158.01,233.97L159.84,226.59L161.68,227.57L163.52,222.46L165.35,216.93L167.19,217.25L169.03,197.71L170.87,198.79L172.7,194.02L174.54,195.97L176.38,205.85L178.22,207.05L180.05,178.17L181.89,189.35L183.73,189.78L185.56,207.7L187.4,219.53L189.24,222.68L191.08,228.33L192.91,238.97L194.75,241.57L196.59,240.16L198.43,227.57L200.26,222.57L202.1,216.93L203.94,207.26L207.61,202.05L209.45,203.46L211.29,211.5L213.12,212.58L216.8,224.96L218.64,224.09L224.15,228L225.98,230.71L227.82,228.98L229.66,236.58L233.33,238.97L235.17,239.18L240.68,259.27L242.52,262.96L244.36,270.45L246.19,274.58L248.03,274.58L249.87,279.68L251.71,284.35L253.54,282.29L255.38,282.5L257.22,288.15L259.06,290.75L260.89,291.08L262.73,297.7L264.57,300.63L268.24,306.61L270.08,300.85L273.75,297.49L275.59,296.18L277.43,293.03L279.27,294.34L281.1,293.36L282.94,293.47L284.78,292.06L286.61,293.14L288.45,286.41L290.29,283.15L292.13,283.15L293.96,279.35L295.8,280.11L297.64,278.16L299.48,277.94L301.31,273.49L303.15,272.62L304.99,266.33L308.66,254.49L310.5,253.95L312.34,253.62L314.17,258.62L321.52,238.42L323.36,230.82L325.2,230.28L327.03,209.76L328.87,204.33L330.71,203.68L332.55,197.27L334.38,218.88L336.22,211.82L338.06,210.74L339.9,250.8L341.73,234.51L345.41,222.14L347.24,191.85L349.08,197.6L350.92,198.36L352.76,163.07L354.59,176.75L360.1,201.73L361.94,204.01L363.78,203.57L365.62,205.2L367.45,208.13L369.29,209.11L371.13,208.67L372.97,213.02L374.8,216.6L376.64,216.49L382.15,231.15L383.99,238.1L385.83,244.83L387.66,258.83L389.5,259.59L391.34,262.09L393.18,264.37L395.01,265.35L396.85,266.22L398.69,265.89L400.52,263.61L402.36,264.15L406.04,280.01L407.87,279.46L409.71,295.53L411.55,293.25L413.39,285.65L415.22,285.43L417.06,289.13L418.9,286.85L420.73,287.28L422.57,275.23L426.25,280.33L428.08,280.87L429.92,298.57L431.76,295.42L435.43,296.4L437.27,301.07L440.94,302.7L442.78,287.61L444.62,298.25L446.46,303.46L448.29,307.04L450.13,308.78L451.97,311.93L453.81,311.49L455.64,318.87L457.48,323.11L461.15,333.64L462.99,340.26L464.83,342L466.67,342.65L470.34,346.45L472.18,350.14L477.69,358.5L479.53,359.05L481.36,363.93L483.2,366.32L485.04,367.73L486.88,367.95L490.55,367.51L492.39,367.3L497.9,368.82L499.74,368.6L505.25,368.17L507.09,368.06L508.92,367.3L510.76,365.56L514.44,365.23L516.27,363.71L518.11,363.17L519.95,359.81L521.78,356.77L523.62,359.7L527.3,348.62L529.13,344.93L530.97,344.28L532.81,333.42L534.65,322.24L536.48,304.98L538.32,298.46L540.16,287.39L541.99,280.01L543.83,278.81L545.67,266.22L547.51,261.66L549.34,260.68L551.18,257.42L553.02,255.58L554.86,255.9L558.53,255.69L560.37,256.99L562.2,256.34L564.04,253.51L565.88,250.15L567.72,248.52L569.55,246.13L571.39,235.93L578.74,203.14L580.58,198.79L582.41,198.25L584.25,194.67L589.76,189.78L591.6,194.99L593.44,192.71L595.28,194.02L597.11,192.82L598.95,189.57L600.79,191.41L602.62,195.1L604.46,198.69L606.3,204.87L608.14,205.96L609.97,213.67L611.81,215.41L613.65,216.06L617.32,225.94L619.16,225.18L621,226.48L622.83,232.34L626.51,252.75L628.35,254.06L632.02,265.13L633.86,264.81L637.53,281.09L639.37,286.95L643.04,295.86L644.88,296.51L646.72,297.81L648.56,307.69L654.07,323.43L655.91,326.58L657.74,331.03L659.58,330.93L663.25,335.05L665.09,337.01L666.93,341.57L668.77,342.65" style="fill: rgb(8, 115, 191); fill-opacity: 0.2; stroke-width: 0;"/></g></g><g class="errorbars"/><g class="lines"><path class="js-line" d="M-249.87,369.9L-246.19,369.25L-244.36,369.79L-238.85,370.77L-237.01,370.66L-233.33,371.97L-231.5,371.86L-222.31,373.38L-220.47,374.46L-209.45,377.72L-207.61,377.72L-161.68,376.09L-159.84,376.74L-145.14,375.11L-143.31,373.05L-139.63,369.25L-137.8,369.14L-134.12,366.75L-132.28,368.71L-126.77,373.16L-124.93,373.16L-119.42,373.27L-117.59,374.03L-113.91,371.64L-112.07,371.64L-106.56,372.07L-104.72,370.55L-101.05,372.07L-99.21,372.18L-95.54,372.29L-93.7,371.53L-91.86,372.29L-90.03,369.9L-86.35,370.23L-84.51,368.71L-79,365.67L-77.17,367.08L-64.3,361.33L-62.47,362.19L-56.96,361L-55.12,357.63L-47.77,356.66L-45.93,354.92L-44.09,352.64L-42.26,354.81L-38.58,347.86L-36.75,347.75L-33.07,346.67L-31.23,347.86L-29.4,346.56L-27.56,349.17L-25.72,350.03L-23.88,349.38L-22.05,349.6L-20.21,352.64L-16.54,355.68L-14.7,354.27L-11.02,356.11L-9.19,356.01L-7.35,355.14L-5.51,355.57L-3.67,354.38L-1.84,355.9L1.84,354.38L3.67,354.38L14.7,324.3L16.54,323.76L18.37,310.62L20.21,304.65L23.88,286.85L25.72,281.96L27.56,280.98L29.4,281.31L31.23,272.73L33.07,254.93L34.91,249.17L36.75,228.43L38.58,206.61L40.42,194.13L42.26,192.61L44.09,160.03L51.44,71.01L53.28,57L55.12,56.13L56.96,20.19L58.79,7.82L60.63,4.02L62.47,0L64.3,1.09L66.14,9.55L67.98,9.45L71.65,65.47L73.49,120.73L75.33,127.14L77.17,154.5L79,162.1L80.84,163.62L82.68,189.02L84.51,203.57L86.35,177.95L88.19,205.74L91.86,217.69L93.7,218.34L95.54,234.73L97.38,241.14L101.05,256.12L102.89,259.38L104.72,262.74L106.56,260.68L108.4,261.11L110.24,262.63L112.07,266.54L113.91,265.24L115.75,265.02L117.59,262.31L119.42,262.96L121.26,252.21L123.1,249.61L124.93,244.18L126.77,243.74L128.61,244.72L130.45,240.16L132.28,239.94L134.12,240.38L135.96,235.82L139.63,226.81L141.47,219.75L143.31,217.79L145.14,217.9L146.98,212.15L148.82,202.05L150.66,195.43L152.49,200.31L154.33,225.18L156.17,235.27L158.01,233.97L159.84,226.59L161.68,227.57L163.52,222.46L165.35,216.93L167.19,217.25L169.03,197.71L170.87,198.79L172.7,194.02L174.54,195.97L176.38,205.85L178.22,207.05L180.05,178.17L181.89,189.35L183.73,189.78L185.56,207.7L187.4,219.53L189.24,222.68L191.08,228.33L192.91,238.97L194.75,241.57L196.59,240.16L198.43,227.57L200.26,222.57L202.1,216.93L203.94,207.26L207.61,202.05L209.45,203.46L211.29,211.5L213.12,212.58L216.8,224.96L218.64,224.09L224.15,228L225.98,230.71L227.82,228.98L229.66,236.58L233.33,238.97L235.17,239.18L240.68,259.27L242.52,262.96L244.36,270.45L246.19,274.58L248.03,274.58L249.87,279.68L251.71,284.35L253.54,282.29L255.38,282.5L257.22,288.15L259.06,290.75L260.89,291.08L262.73,297.7L264.57,300.63L268.24,306.61L270.08,300.85L273.75,297.49L275.59,296.18L277.43,293.03L279.27,294.34L281.1,293.36L282.94,293.47L284.78,292.06L286.61,293.14L288.45,286.41L290.29,283.15L292.13,283.15L293.96,279.35L295.8,280.11L297.64,278.16L299.48,277.94L301.31,273.49L303.15,272.62L304.99,266.33L308.66,254.49L310.5,253.95L312.34,253.62L314.17,258.62L321.52,238.42L323.36,230.82L325.2,230.28L327.03,209.76L328.87,204.33L330.71,203.68L332.55,197.27L334.38,218.88L336.22,211.82L338.06,210.74L339.9,250.8L341.73,234.51L345.41,222.14L347.24,191.85L349.08,197.6L350.92,198.36L352.76,163.07L354.59,176.75L360.1,201.73L361.94,204.01L363.78,203.57L365.62,205.2L367.45,208.13L369.29,209.11L371.13,208.67L372.97,213.02L374.8,216.6L376.64,216.49L382.15,231.15L383.99,238.1L385.83,244.83L387.66,258.83L389.5,259.59L391.34,262.09L393.18,264.37L395.01,265.35L396.85,266.22L398.69,265.89L400.52,263.61L402.36,264.15L406.04,280.01L407.87,279.46L409.71,295.53L411.55,293.25L413.39,285.65L415.22,285.43L417.06,289.13L418.9,286.85L420.73,287.28L422.57,275.23L426.25,280.33L428.08,280.87L429.92,298.57L431.76,295.42L435.43,296.4L437.27,301.07L440.94,302.7L442.78,287.61L444.62,298.25L446.46,303.46L448.29,307.04L450.13,308.78L451.97,311.93L453.81,311.49L455.64,318.87L457.48,323.11L461.15,333.64L462.99,340.26L464.83,342L466.67,342.65L470.34,346.45L472.18,350.14L477.69,358.5L479.53,359.05L481.36,363.93L483.2,366.32L485.04,367.73L486.88,367.95L490.55,367.51L492.39,367.3L497.9,368.82L499.74,368.6L505.25,368.17L507.09,368.06L508.92,367.3L510.76,365.56L514.44,365.23L516.27,363.71L518.11,363.17L519.95,359.81L521.78,356.77L523.62,359.7L527.3,348.62L529.13,344.93L530.97,344.28L532.81,333.42L534.65,322.24L536.48,304.98L538.32,298.46L540.16,287.39L541.99,280.01L543.83,278.81L545.67,266.22L547.51,261.66L549.34,260.68L551.18,257.42L553.02,255.58L554.86,255.9L558.53,255.69L560.37,256.99L562.2,256.34L564.04,253.51L565.88,250.15L567.72,248.52L569.55,246.13L571.39,235.93L578.74,203.14L580.58,198.79L582.41,198.25L584.25,194.67L589.76,189.78L591.6,194.99L593.44,192.71L595.28,194.02L597.11,192.82L598.95,189.57L600.79,191.41L602.62,195.1L604.46,198.69L606.3,204.87L608.14,205.96L609.97,213.67L611.81,215.41L613.65,216.06L617.32,225.94L619.16,225.18L621,226.48L622.83,232.34L626.51,252.75L628.35,254.06L632.02,265.13L633.86,264.81L637.53,281.09L639.37,286.95L643.04,295.86L644.88,296.51L646.72,297.81L648.56,307.69L654.07,323.43L655.91,326.58L657.74,331.03L659.58,330.93L663.25,335.05L665.09,337.01L666.93,341.57L668.77,342.65" style="vector-effect: non-scaling-stroke; fill: none; stroke: rgb(8, 115, 191); stroke-opacity: 1; stroke-width: 0.5px; opacity: 1;"/></g><g class="points"/><g class="text"/></g><g class="trace scatter trace4b8c71" style="stroke-miterlimit: 2;"><g class="fills"><g><path class="js-fill" d="M687.14,380L668.77,380L668.77,342.65L672.44,344.93L674.28,345.8L676.12,347.54L677.95,348.19L679.79,344.61L681.63,347.65L685.3,345.47L687.14,345.69" style="fill: rgb(8, 115, 191); fill-opacity: 0.4; stroke-width: 0;"/></g></g><g class="errorbars"/><g class="lines"><path class="js-line" d="M668.77,342.65L672.44,344.93L674.28,345.8L676.12,347.54L677.95,348.19L679.79,344.61L681.63,347.65L685.3,345.47L687.14,345.69" style="vector-effect: non-scaling-stroke; fill: none; stroke: rgb(8, 115, 191); stroke-opacity: 1; stroke-width: 2px; opacity: 1;"/></g><g class="points"/><g class="text"/></g><g class="trace scatter traced4993b" style="stroke-miterlimit: 2; opacity: 1;"><g class="fills"/><g class="errorbars"/><g class="lines"/><g class="points"><path class="point" transform="translate(687.14,345.69)" d="M15,0A15,15 0 1,1 0,-15A15,15 0 0,1 15,0Z" style="opacity: 1; stroke-width: 0px; fill: rgb(8, 115, 191); fill-opacity: 1;"/></g><g class="text"/></g></g></g><g class="overplot"/><path class="xlines-above crisp" style="fill: none; stroke-width: 1px; stroke: rgb(0, 0, 0); stroke-opacity: 0;" d=""/><path class="ylines-above crisp" style="fill: none;" d="M0,0"/><g class="overlines-above"/><g class="xaxislayer-above"><path class="xtick ticks crisp" d="M0,450v-5" transform="translate(110.63,0)" style="stroke: rgb(68, 68, 68); stroke-opacity: 1; stroke-width: 1px;"/><path class="xtick ticks crisp" d="M0,450v-5" transform="translate(222.7,0)" style="stroke: rgb(68, 68, 68); stroke-opacity: 1; stroke-width: 1px;"/><path class="xtick ticks crisp" d="M0,450v-5" transform="translate(331.1,0)" style="stroke: rgb(68, 68, 68); stroke-opacity: 1; stroke-width: 1px;"/><path class="xtick ticks crisp" d="M0,450v-5" transform="translate(443.18,0)" style="stroke: rgb(68, 68, 68); stroke-opacity: 1; stroke-width: 1px;"/><path class="xtick ticks crisp" d="M0,450v-5" transform="translate(555.25,0)" style="stroke: rgb(68, 68, 68); stroke-opacity: 1; stroke-width: 1px;"/><path class="xtick ticks crisp" d="M0,450v-5" transform="translate(669.16,0)" style="stroke: rgb(68, 68, 68); stroke-opacity: 1; stroke-width: 1px;"/><g class="xtick"><text text-anchor="middle" x="0" y="469" transform="translate(110.63,0)" style="font-family: 'Open Sans', verdana, arial, sans-serif; font-size: 18px; fill: rgb(42, 63, 95); fill-opacity: 1; white-space: pre;">01/11</text></g><g class="xtick"><text text-anchor="middle" x="0" y="469" transform="translate(222.7,0)" style="font-family: 'Open Sans', verdana, arial, sans-serif; font-size: 18px; fill: rgb(42, 63, 95); fill-opacity: 1; white-space: pre;">01/01</text></g><g class="xtick"><text text-anchor="middle" x="0" y="469" transform="translate(331.1,0)" style="font-family: 'Open Sans', verdana, arial, sans-serif; font-size: 18px; fill: rgb(42, 63, 95); fill-opacity: 1; white-space: pre;">01/03</text></g><g class="xtick"><text text-anchor="middle" x="0" y="469" transform="translate(443.18,0)" style="font-family: 'Open Sans', verdana, arial, sans-serif; font-size: 18px; fill: rgb(42, 63, 95); fill-opacity: 1; white-space: pre;">01/05</text></g><g class="xtick"><text text-anchor="middle" x="0" y="469" transform="translate(555.25,0)" style="font-family: 'Open Sans', verdana, arial, sans-serif; font-size: 18px; fill: rgb(42, 63, 95); fill-opacity: 1; white-space: pre;">01/07</text></g><g class="xtick"><text text-anchor="middle" x="0" y="469" transform="translate(669.16,0)" style="font-family: 'Open Sans', verdana, arial, sans-serif; font-size: 18px; fill: rgb(42, 63, 95); fill-opacity: 1; white-space: pre;">01/09</text></g></g><g class="yaxislayer-above"/><g class="overaxes-above"/></g></g><g class="polarlayer"/><g class="ternarylayer"/><g class="geolayer"/><g class="funnelarealayer"/><g class="pielayer"/><g class="treemaplayer"/><g class="sunburstlayer"/><g class="glimages"/><defs id="topdefs-e16e85"><g class="clips"/></defs><g class="layer-above"><g class="imagelayer"/><g class="shapelayer"><path data-index="0" fill-rule="evenodd" d="M-982.55,408.57L360.5,408.57" clip-path="url('#clipe16e85xy')" style="opacity: 1; stroke: rgb(255, 0, 0); stroke-opacity: 1; fill: rgb(0, 0, 0); fill-opacity: 0; stroke-dasharray: 3px, 3px; stroke-width: 1.5px;"/></g></g><g class="infolayer"><g class="g-gtitle"><text class="gtitle" x="375" y="25" text-anchor="middle" dy="0.7em" style="font-family: 'Open Sans', verdana, arial, sans-serif; font-size: 50px; fill: rgb(42, 63, 95); opacity: 1; font-weight: normal; white-space: pre;"><tspan style="font-weight:bold">Haut-Rhin (68)</tspan></text></g><g class="g-xtitle"/><g class="annotation" data-index="0" style="opacity: 1;"><g class="annotation-text-g" transform="rotate(0,695.14,355.69)"><g class="cursor-pointer" transform="translate(652, 320)"><rect class="bg" x="0.5" y="0.5" width="86" height="71" style="stroke-width: 1px; stroke: rgb(0, 0, 0); stroke-opacity: 0; fill: rgb(255, 255, 255); fill-opacity: 0.6;"/><text class="annotation-text" text-anchor="middle" x="43.53125" y="55.5" style="font-family: 'Open Sans', verdana, arial, sans-serif; font-size: 50px; fill: rgb(8, 115, 191); fill-opacity: 1; white-space: pre;"> <tspan style="font-weight:bold">41 </tspan></text></g></g><g class="annotation-arrow-g" style="opacity: 1;"><path d="M723.54,391.19L735.14,405.69" style="stroke-width: 1px; stroke: rgb(8, 115, 191); stroke-opacity: 1; stroke-dasharray: 0px, 0px, 18.5691px, 18.5691px;"/></g></g></g></svg>