<svg class="main-svg" xmlns="http://www.w3.org/2000/svg" xmlns:xlink="http://www.w3.org/1999/xlink" width="1125" height="750" style="" viewBox="0 0 750 500"><rect x="0" y="0" width="750" height="500" style="fill: rgb(0, 0, 0); fill-opacity: 0;"/><defs id="defs-0b31c2"><g class="clips"><clipPath id="clip0b31c2xyplot" class="plotclip"><rect width="700" height="380"/></clipPath><clipPath class="axesclip" id="clip0b31c2x"><rect x="50" y="0" width="700" height="500"/></clipPath><clipPath class="axesclip" id="clip0b31c2y"><rect x="0" y="70" width="750" height="380"/></clipPath><clipPath class="axesclip" id="clip0b31c2xy"><rect x="50" y="70" width="700" height="380"/></clipPath></g><g class="gradients"/></defs><g class="bglayer"><rect class="bg" x="50" y="70" width="700" height="380" style="fill: rgb(0, 0, 0); fill-opacity: 0; stroke-width: 0;"/></g><g class="layer-below"><g class="imagelayer"/><g class="shapelayer"/></g><g class="cartesianlayer"><g class="subplot xy"><g class="layer-subplot"><g class="shapelayer"/><g class="imagelayer"/></g><g class="gridlayer"><g class="x"><path class="xgrid crisp" transform="translate(108.33,0)" d="M0,70v380" style="stroke: rgb(255, 255, 255); stroke-opacity: 1; stroke-width: 1px;"/><path class="xgrid crisp" transform="translate(216.16,0)" d="M0,70v380" style="stroke: rgb(255, 255, 255); stroke-opacity: 1; stroke-width: 1px;"/><path class="xgrid crisp" transform="translate(320.45,0)" d="M0,70v380" style="stroke: rgb(255, 255, 255); stroke-opacity: 1; stroke-width: 1px;"/><path class="xgrid crisp" transform="translate(428.28,0)" d="M0,70v380" style="stroke: rgb(255, 255, 255); stroke-opacity: 1; stroke-width: 1px;"/><path class="xgrid crisp" transform="translate(536.11,0)" d="M0,70v380" style="stroke: rgb(255, 255, 255); stroke-opacity: 1; stroke-width: 1px;"/><path class="xgrid crisp" transform="translate(645.71,0)" d="M0,70v380" style="stroke: rgb(255, 255, 255); stroke-opacity: 1; stroke-width: 1px;"/></g><g class="y"/></g><g class="zerolinelayer"/><path class="xlines-below"/><path class="ylines-below"/><g class="overlines-below"/><g class="xaxislayer-below"/><g class="yaxislayer-below"/><g class="overaxes-below"/><g class="plot" transform="translate(50, 70)" clip-path="url('#clip0b31c2xyplot')"><g class="scatterlayer mlayer"><g class="trace scatter traced05f6c" style="stroke-miterlimit: 2;"><g class="fills"><g><path class="js-fill" d="M669.95,380L-240.4,380L-240.4,377.64L-235.1,378.82L-233.33,379.11L-125.51,378.52L-123.74,377.64L-113.13,377.64L-111.36,377.64L-95.45,375.86L-93.69,375.27L-91.92,376.75L-90.15,375.57L-88.38,375.27L-86.62,373.2L-81.31,372.02L-79.55,370.54L-76.01,367.88L-74.24,369.36L-65.4,366.41L-63.64,363.16L-60.1,359.32L-58.33,359.02L-54.8,361.09L-53.03,360.79L-45.96,362.57L-44.19,354.88L-42.42,349.56L-40.66,348.38L-37.12,341.29L-35.35,341L-31.82,339.22L-30.05,339.52L-28.28,336.86L-26.52,336.56L-22.98,332.13L-21.21,333.02L-19.44,333.61L-17.68,331.24L-15.91,329.47L-14.14,332.43L-12.37,336.86L-10.61,336.27L-8.84,335.97L-7.07,338.34L-5.3,343.65L-3.54,342.47L0,340.11L1.77,336.86L3.54,336.86L5.3,325.93L10.61,296.97L12.37,288.4L14.14,288.69L15.91,287.81L17.68,279.83L19.44,278.06L21.21,271.85L22.98,257.67L24.75,242.89L26.52,236.69L28.28,232.85L30.05,210.39L35.35,155.43L37.12,121.74L38.89,102.24L40.66,106.38L42.42,102.24L44.19,80.08L45.96,76.53L47.73,78.3L51.26,93.08L53.03,86.58L54.8,65.3L56.57,60.28L58.33,50.82L60.1,57.03L61.87,63.53L63.64,67.08L65.4,73.28L67.17,96.03L68.94,119.97L70.71,168.43L72.47,171.09L74.24,189.41L76.01,197.09L77.78,196.8L79.55,201.23L81.31,215.41L83.08,199.16L84.85,218.07L86.62,226.94L88.38,230.78L90.15,230.78L91.92,257.67L93.69,271.56L95.45,276.58L97.22,281.31L98.99,293.42L100.76,298.74L102.53,300.51L106.06,314.11L107.83,314.11L111.36,330.36L113.13,330.95L114.9,326.22L116.67,325.04L118.43,320.61L120.2,322.97L121.97,320.9L123.74,315.29L125.51,313.81L127.27,318.24L129.04,315.88L130.81,317.06L132.58,317.36L134.34,316.47L137.88,307.31L139.65,307.31L141.41,294.31L143.18,290.47L144.95,277.17L146.72,270.96L148.48,287.22L150.25,285.74L153.79,280.72L155.56,262.1L160.86,249.1L162.63,233.14L164.39,234.62L166.16,218.37L167.93,213.34L169.7,203.3L171.46,190.3L173.23,154.25L175,157.2L176.77,154.54L178.54,151.88L180.3,141.54L185.61,108.15L187.37,107.56L189.14,104.31L190.91,69.74L192.68,47.28L194.44,41.66L196.21,40.78L197.98,37.53L199.75,23.64L201.52,29.25L205.05,74.17L206.82,83.92L208.59,88.06L210.35,99.58L212.12,106.08L213.89,106.08L215.66,119.08L217.42,118.79L219.19,124.4L220.96,124.4L224.49,144.49L226.26,145.38L228.03,155.72L229.8,172.57L233.33,195.02L235.1,204.18L236.87,207.43L238.64,205.66L242.17,219.25L243.94,219.25L245.71,225.75L247.47,228.41L251.01,229.6L252.78,229.3L254.55,229.89L256.31,231.37L258.08,235.21L259.85,236.69L261.62,246.14L263.38,244.67L265.15,247.33L266.92,246.14L268.69,247.03L270.45,249.1L272.22,244.96L273.99,237.87L275.76,239.35L277.53,242.3L281.06,246.73L282.83,243.19L284.6,244.37L286.36,241.71L288.13,239.35L289.9,229L291.67,226.64L293.43,216.89L295.2,210.68L296.97,196.8L298.74,197.39L300.51,197.09L302.27,183.2L304.04,176.7L307.58,143.9L309.34,127.95L311.11,107.85L312.88,109.63L314.65,97.22L316.41,73.58L318.18,61.17L319.95,61.76L321.72,57.33L323.48,57.62L325.25,54.67L327.02,110.81L328.79,81.26L330.56,84.81L332.32,74.46L334.09,74.46L335.86,72.4L337.63,71.51L339.39,0L341.16,35.46L342.93,49.05L344.7,50.23L346.46,49.94L348.23,54.67L350,54.96L351.77,66.49L355.3,57.33L357.07,42.85L358.84,49.94L360.61,52.89L362.37,57.03L364.14,67.96L365.91,79.19L367.68,97.81L369.44,123.81L371.21,127.95L372.98,150.11L374.75,150.7L376.52,148.34L378.28,152.47L380.05,144.2L381.82,147.45L383.59,157.2L385.35,156.91L387.12,155.43L388.89,162.22L390.66,154.54L392.42,154.25L394.19,184.68L395.96,182.91L397.73,171.09L399.49,171.98L401.26,175.52L403.03,186.16L404.8,204.18L406.57,179.07L408.33,185.57L410.1,185.27L411.87,186.45L413.64,229.89L415.4,230.19L417.17,234.91L420.71,239.35L422.47,249.39L424.24,247.92L426.01,223.39L427.78,243.19L429.55,247.62L433.08,275.4L434.85,279.24L436.62,281.31L438.38,295.49L441.92,307.31L443.69,315.88L445.45,323.86L447.22,326.22L448.99,327.11L450.76,336.56L454.29,347.2L456.06,348.97L459.6,353.11L461.36,353.11L463.13,352.81L464.9,354.29L466.67,353.7L468.43,356.66L470.2,360.79L471.97,361.68L473.74,361.68L475.51,366.11L477.27,367.59L479.04,367.88L482.58,371.14L484.34,370.25L486.11,370.25L487.88,369.07L491.41,367L493.18,364.04L496.72,357.84L498.48,357.25L502.02,340.4L503.79,341.88L507.32,323.27L509.09,317.36L510.86,316.77L512.63,296.38L514.39,291.35L516.16,278.65L517.93,275.4L519.7,269.49L521.46,270.67L523.23,269.49L525,280.12L526.77,277.76L528.54,275.4L530.3,267.71L535.61,256.19L537.37,245.26L540.91,226.05L542.68,225.75L544.44,221.03L546.21,220.73L547.98,221.32L549.75,212.75L551.52,210.09L553.28,218.37L555.05,218.37L556.82,221.91L560.35,228.12L562.12,238.16L563.89,245.26L565.66,239.05L567.42,244.37L569.19,246.44L572.73,247.92L574.49,255.6L579.8,282.78L581.57,288.1L585.1,289.58L586.87,295.79L590.4,307.31L592.17,305.54L595.71,314.7L597.47,313.81L599.24,323.56L601.01,327.4L602.78,325.93L604.55,330.95L606.31,335.68L608.08,336.56L609.85,337.15L611.62,336.27L613.38,336.27L615.15,341.29L616.92,343.36L618.69,344.25L620.45,346.61L622.22,347.2L625.76,355.18L627.53,354L629.29,352.81L631.06,353.7L634.6,354.29L636.36,355.18L638.13,351.63L639.9,353.11L641.67,356.07L643.43,357.54L645.2,357.84L646.97,356.95L648.74,355.47L650.51,358.43L652.27,361.68L654.04,361.98L655.81,363.45L657.58,363.16L659.34,363.45L661.11,365.82L662.88,366.11L664.65,364.63L666.41,362.86L668.18,359.91L669.95,359.02" style="fill: rgb(8, 115, 191); fill-opacity: 0.2; stroke-width: 0;"/></g></g><g class="errorbars"/><g class="lines"><path class="js-line" d="M-240.4,377.64L-235.1,378.82L-233.33,379.11L-125.51,378.52L-123.74,377.64L-113.13,377.64L-111.36,377.64L-95.45,375.86L-93.69,375.27L-91.92,376.75L-90.15,375.57L-88.38,375.27L-86.62,373.2L-81.31,372.02L-79.55,370.54L-76.01,367.88L-74.24,369.36L-65.4,366.41L-63.64,363.16L-60.1,359.32L-58.33,359.02L-54.8,361.09L-53.03,360.79L-45.96,362.57L-44.19,354.88L-42.42,349.56L-40.66,348.38L-37.12,341.29L-35.35,341L-31.82,339.22L-30.05,339.52L-28.28,336.86L-26.52,336.56L-22.98,332.13L-21.21,333.02L-19.44,333.61L-17.68,331.24L-15.91,329.47L-14.14,332.43L-12.37,336.86L-10.61,336.27L-8.84,335.97L-7.07,338.34L-5.3,343.65L-3.54,342.47L0,340.11L1.77,336.86L3.54,336.86L5.3,325.93L10.61,296.97L12.37,288.4L14.14,288.69L15.91,287.81L17.68,279.83L19.44,278.06L21.21,271.85L22.98,257.67L24.75,242.89L26.52,236.69L28.28,232.85L30.05,210.39L35.35,155.43L37.12,121.74L38.89,102.24L40.66,106.38L42.42,102.24L44.19,80.08L45.96,76.53L47.73,78.3L51.26,93.08L53.03,86.58L54.8,65.3L56.57,60.28L58.33,50.82L60.1,57.03L61.87,63.53L63.64,67.08L65.4,73.28L67.17,96.03L68.94,119.97L70.71,168.43L72.47,171.09L74.24,189.41L76.01,197.09L77.78,196.8L79.55,201.23L81.31,215.41L83.08,199.16L84.85,218.07L86.62,226.94L88.38,230.78L90.15,230.78L91.92,257.67L93.69,271.56L95.45,276.58L97.22,281.31L98.99,293.42L100.76,298.74L102.53,300.51L106.06,314.11L107.83,314.11L111.36,330.36L113.13,330.95L114.9,326.22L116.67,325.04L118.43,320.61L120.2,322.97L121.97,320.9L123.74,315.29L125.51,313.81L127.27,318.24L129.04,315.88L130.81,317.06L132.58,317.36L134.34,316.47L137.88,307.31L139.65,307.31L141.41,294.31L143.18,290.47L144.95,277.17L146.72,270.96L148.48,287.22L150.25,285.74L153.79,280.72L155.56,262.1L160.86,249.1L162.63,233.14L164.39,234.62L166.16,218.37L167.93,213.34L169.7,203.3L171.46,190.3L173.23,154.25L175,157.2L176.77,154.54L178.54,151.88L180.3,141.54L185.61,108.15L187.37,107.56L189.14,104.31L190.91,69.74L192.68,47.28L194.44,41.66L196.21,40.78L197.98,37.53L199.75,23.64L201.52,29.25L205.05,74.17L206.82,83.92L208.59,88.06L210.35,99.58L212.12,106.08L213.89,106.08L215.66,119.08L217.42,118.79L219.19,124.4L220.96,124.4L224.49,144.49L226.26,145.38L228.03,155.72L229.8,172.57L233.33,195.02L235.1,204.18L236.87,207.43L238.64,205.66L242.17,219.25L243.94,219.25L245.71,225.75L247.47,228.41L251.01,229.6L252.78,229.3L254.55,229.89L256.31,231.37L258.08,235.21L259.85,236.69L261.62,246.14L263.38,244.67L265.15,247.33L266.92,246.14L268.69,247.03L270.45,249.1L272.22,244.96L273.99,237.87L275.76,239.35L277.53,242.3L281.06,246.73L282.83,243.19L284.6,244.37L286.36,241.71L288.13,239.35L289.9,229L291.67,226.64L293.43,216.89L295.2,210.68L296.97,196.8L298.74,197.39L300.51,197.09L302.27,183.2L304.04,176.7L307.58,143.9L309.34,127.95L311.11,107.85L312.88,109.63L314.65,97.22L316.41,73.58L318.18,61.17L319.95,61.76L321.72,57.33L323.48,57.62L325.25,54.67L327.02,110.81L328.79,81.26L330.56,84.81L332.32,74.46L334.09,74.46L335.86,72.4L337.63,71.51L339.39,0L341.16,35.46L342.93,49.05L344.7,50.23L346.46,49.94L348.23,54.67L350,54.96L351.77,66.49L355.3,57.33L357.07,42.85L358.84,49.94L360.61,52.89L362.37,57.03L364.14,67.96L365.91,79.19L367.68,97.81L369.44,123.81L371.21,127.95L372.98,150.11L374.75,150.7L376.52,148.34L378.28,152.47L380.05,144.2L381.82,147.45L383.59,157.2L385.35,156.91L387.12,155.43L388.89,162.22L390.66,154.54L392.42,154.25L394.19,184.68L395.96,182.91L397.73,171.09L399.49,171.98L401.26,175.52L403.03,186.16L404.8,204.18L406.57,179.07L408.33,185.57L410.1,185.27L411.87,186.45L413.64,229.89L415.4,230.19L417.17,234.91L420.71,239.35L422.47,249.39L424.24,247.92L426.01,223.39L427.78,243.19L429.55,247.62L433.08,275.4L434.85,279.24L436.62,281.31L438.38,295.49L441.92,307.31L443.69,315.88L445.45,323.86L447.22,326.22L448.99,327.11L450.76,336.56L454.29,347.2L456.06,348.97L459.6,353.11L461.36,353.11L463.13,352.81L464.9,354.29L466.67,353.7L468.43,356.66L470.2,360.79L471.97,361.68L473.74,361.68L475.51,366.11L477.27,367.59L479.04,367.88L482.58,371.14L484.34,370.25L486.11,370.25L487.88,369.07L491.41,367L493.18,364.04L496.72,357.84L498.48,357.25L502.02,340.4L503.79,341.88L507.32,323.27L509.09,317.36L510.86,316.77L512.63,296.38L514.39,291.35L516.16,278.65L517.93,275.4L519.7,269.49L521.46,270.67L523.23,269.49L525,280.12L526.77,277.76L528.54,275.4L530.3,267.71L535.61,256.19L537.37,245.26L540.91,226.05L542.68,225.75L544.44,221.03L546.21,220.73L547.98,221.32L549.75,212.75L551.52,210.09L553.28,218.37L555.05,218.37L556.82,221.91L560.35,228.12L562.12,238.16L563.89,245.26L565.66,239.05L567.42,244.37L569.19,246.44L572.73,247.92L574.49,255.6L579.8,282.78L581.57,288.1L585.1,289.58L586.87,295.79L590.4,307.31L592.17,305.54L595.71,314.7L597.47,313.81L599.24,323.56L601.01,327.4L602.78,325.93L604.55,330.95L606.31,335.68L608.08,336.56L609.85,337.15L611.62,336.27L613.38,336.27L615.15,341.29L616.92,343.36L618.69,344.25L620.45,346.61L622.22,347.2L625.76,355.18L627.53,354L629.29,352.81L631.06,353.7L634.6,354.29L636.36,355.18L638.13,351.63L639.9,353.11L641.67,356.07L643.43,357.54L645.2,357.84L646.97,356.95L648.74,355.47L650.51,358.43L652.27,361.68L654.04,361.98L655.81,363.45L657.58,363.16L659.34,363.45L661.11,365.82L662.88,366.11L664.65,364.63L666.41,362.86L668.18,359.91L669.95,359.02" style="vector-effect: non-scaling-stroke; fill: none; stroke: rgb(8, 115, 191); stroke-opacity: 1; stroke-width: 0.5px; opacity: 1;"/></g><g class="points"/><g class="text"/></g><g class="trace scatter tracea56b83" style="stroke-miterlimit: 2;"><g class="fills"><g><path class="js-fill" d="M687.63,380L669.95,380L669.95,359.02L671.72,359.61L673.48,356.36L675.25,355.77L677.02,354L682.32,349.56L684.09,349.27L685.86,344.25L687.63,343.95" style="fill: rgb(8, 115, 191); fill-opacity: 0.4; stroke-width: 0;"/></g></g><g class="errorbars"/><g class="lines"><path class="js-line" d="M669.95,359.02L671.72,359.61L673.48,356.36L675.25,355.77L677.02,354L682.32,349.56L684.09,349.27L685.86,344.25L687.63,343.95" style="vector-effect: non-scaling-stroke; fill: none; stroke: rgb(8, 115, 191); stroke-opacity: 1; stroke-width: 2px; opacity: 1;"/></g><g class="points"/><g class="text"/></g><g class="trace scatter traceffe99f" style="stroke-miterlimit: 2; opacity: 1;"><g class="fills"/><g class="errorbars"/><g class="lines"/><g class="points"><path class="point" transform="translate(687.63,343.95)" d="M15,0A15,15 0 1,1 0,-15A15,15 0 0,1 15,0Z" style="opacity: 1; stroke-width: 0px; fill: rgb(8, 115, 191); fill-opacity: 1;"/></g><g class="text"/></g></g></g><g class="overplot"/><path class="xlines-above crisp" style="fill: none; stroke-width: 1px; stroke: rgb(0, 0, 0); stroke-opacity: 0;" d=""/><path class="ylines-above crisp" style="fill: none;" d="M0,0"/><g class="overlines-above"/><g class="xaxislayer-above"><path class="xtick ticks crisp" d="M0,450v-5" transform="translate(108.33,0)" style="stroke: rgb(68, 68, 68); stroke-opacity: 1; stroke-width: 1px;"/><path class="xtick ticks crisp" d="M0,450v-5" transform="translate(216.16,0)" style="stroke: rgb(68, 68, 68); stroke-opacity: 1; stroke-width: 1px;"/><path class="xtick ticks crisp" d="M0,450v-5" transform="translate(320.45,0)" style="stroke: rgb(68, 68, 68); stroke-opacity: 1; stroke-width: 1px;"/><path class="xtick ticks crisp" d="M0,450v-5" transform="translate(428.28,0)" style="stroke: rgb(68, 68, 68); stroke-opacity: 1; stroke-width: 1px;"/><path class="xtick ticks crisp" d="M0,450v-5" transform="translate(536.11,0)" style="stroke: rgb(68, 68, 68); stroke-opacity: 1; stroke-width: 1px;"/><path class="xtick ticks crisp" d="M0,450v-5" transform="translate(645.71,0)" style="stroke: rgb(68, 68, 68); stroke-opacity: 1; stroke-width: 1px;"/><g class="xtick"><text text-anchor="middle" x="0" y="469" transform="translate(108.33,0)" style="font-family: 'Open Sans', verdana, arial, sans-serif; font-size: 18px; fill: rgb(42, 63, 95); fill-opacity: 1; white-space: pre;">01/11</text></g><g class="xtick"><text text-anchor="middle" x="0" y="469" transform="translate(216.16,0)" style="font-family: 'Open Sans', verdana, arial, sans-serif; font-size: 18px; fill: rgb(42, 63, 95); fill-opacity: 1; white-space: pre;">01/01</text></g><g class="xtick"><text text-anchor="middle" x="0" y="469" transform="translate(320.45,0)" style="font-family: 'Open Sans', verdana, arial, sans-serif; font-size: 18px; fill: rgb(42, 63, 95); fill-opacity: 1; white-space: pre;">01/03</text></g><g class="xtick"><text text-anchor="middle" x="0" y="469" transform="translate(428.28,0)" style="font-family: 'Open Sans', verdana, arial, sans-serif; font-size: 18px; fill: rgb(42, 63, 95); fill-opacity: 1; white-space: pre;">01/05</text></g><g class="xtick"><text text-anchor="middle" x="0" y="469" transform="translate(536.11,0)" style="font-family: 'Open Sans', verdana, arial, sans-serif; font-size: 18px; fill: rgb(42, 63, 95); fill-opacity: 1; white-space: pre;">01/07</text></g><g class="xtick"><text text-anchor="middle" x="0" y="469" transform="translate(645.71,0)" style="font-family: 'Open Sans', verdana, arial, sans-serif; font-size: 18px; fill: rgb(42, 63, 95); fill-opacity: 1; white-space: pre;">01/09</text></g></g><g class="yaxislayer-above"/><g class="overaxes-above"/></g></g><g class="polarlayer"/><g class="ternarylayer"/><g class="geolayer"/><g class="funnelarealayer"/><g class="pielayer"/><g class="treemaplayer"/><g class="sunburstlayer"/><g class="glimages"/><defs id="topdefs-0b31c2"><g class="clips"/></defs><g class="layer-above"><g class="imagelayer"/><g class="shapelayer"><path data-index="0" fill-rule="evenodd" d="M-943.43,377.51L348.74,377.51" clip-path="url('#clip0b31c2xy')" style="opacity: 1; stroke: rgb(255, 0, 0); stroke-opacity: 1; fill: rgb(0, 0, 0); fill-opacity: 0; stroke-dasharray: 3px, 3px; stroke-width: 1.5px;"/></g></g><g class="infolayer"><g class="g-gtitle"><text class="gtitle" x="375" y="25" text-anchor="middle" dy="0.7em" style="font-family: 'Open Sans', verdana, arial, sans-serif; font-size: 50px; fill: rgb(42, 63, 95); opacity: 1; font-weight: normal; white-space: pre;"><tspan style="font-weight:bold">Manche (50)</tspan></text></g><g class="g-xtitle"/><g class="annotation" data-index="0" style="opacity: 1;"><g class="annotation-text-g" transform="rotate(0,695.63,353.95)"><g class="cursor-pointer" transform="translate(652, 318)"><rect class="bg" x="0.5" y="0.5" width="86" height="71" style="stroke-width: 1px; stroke: rgb(0, 0, 0); stroke-opacity: 0; fill: rgb(255, 255, 255); fill-opacity: 0.6;"/><text class="annotation-text" text-anchor="middle" x="43.53125" y="55.5" style="font-family: 'Open Sans', verdana, arial, sans-serif; font-size: 50px; fill: rgb(8, 115, 191); fill-opacity: 1; white-space: pre;"> <tspan style="font-weight:bold">24 </tspan></text></g></g><g class="annotation-arrow-g" style="opacity: 1;"><path d="M724.03,389.45L735.63,403.95" style="stroke-width: 1px; stroke: rgb(8, 115, 191); stroke-opacity: 1; stroke-dasharray: 0px, 0px, 18.569px, 18.569px;"/></g></g></g></svg>