<svg class="main-svg" xmlns="http://www.w3.org/2000/svg" xmlns:xlink="http://www.w3.org/1999/xlink" width="1125" height="750" style="" viewBox="0 0 750 500"><rect x="0" y="0" width="750" height="500" style="fill: rgb(0, 0, 0); fill-opacity: 0;"/><defs id="defs-7a3e0c"><g class="clips"><clipPath id="clip7a3e0cxyplot" class="plotclip"><rect width="683" height="380"/></clipPath><clipPath class="axesclip" id="clip7a3e0cx"><rect x="50" y="0" width="683" height="500"/></clipPath><clipPath class="axesclip" id="clip7a3e0cy"><rect x="0" y="70" width="750" height="380"/></clipPath><clipPath class="axesclip" id="clip7a3e0cxy"><rect x="50" y="70" width="683" height="380"/></clipPath></g><g class="gradients"/></defs><g class="bglayer"><rect class="bg" x="50" y="70" width="683" height="380" style="fill: rgb(0, 0, 0); fill-opacity: 0; stroke-width: 0;"/></g><g class="layer-below"><g class="imagelayer"/><g class="shapelayer"/></g><g class="cartesianlayer"><g class="subplot xy"><g class="layer-subplot"><g class="shapelayer"/><g class="imagelayer"/></g><g class="gridlayer"><g class="x"><path class="xgrid crisp" transform="translate(106.07,0)" d="M0,70v380" style="stroke: rgb(255, 255, 255); stroke-opacity: 1; stroke-width: 1px;"/><path class="xgrid crisp" transform="translate(209.71,0)" d="M0,70v380" style="stroke: rgb(255, 255, 255); stroke-opacity: 1; stroke-width: 1px;"/><path class="xgrid crisp" transform="translate(309.95,0)" d="M0,70v380" style="stroke: rgb(255, 255, 255); stroke-opacity: 1; stroke-width: 1px;"/><path class="xgrid crisp" transform="translate(413.59,0)" d="M0,70v380" style="stroke: rgb(255, 255, 255); stroke-opacity: 1; stroke-width: 1px;"/><path class="xgrid crisp" transform="translate(517.23,0)" d="M0,70v380" style="stroke: rgb(255, 255, 255); stroke-opacity: 1; stroke-width: 1px;"/><path class="xgrid crisp" transform="translate(622.56,0)" d="M0,70v380" style="stroke: rgb(255, 255, 255); stroke-opacity: 1; stroke-width: 1px;"/><path class="xgrid crisp" transform="translate(726.2,0)" d="M0,70v380" style="stroke: rgb(255, 255, 255); stroke-opacity: 1; stroke-width: 1px;"/></g><g class="y"/></g><g class="zerolinelayer"/><path class="xlines-below"/><path class="ylines-below"/><g class="overlines-below"/><g class="xaxislayer-below"/><g class="yaxislayer-below"/><g class="overaxes-below"/><g class="plot" transform="translate(50, 70)" clip-path="url('#clip7a3e0cxyplot')"><g class="scatterlayer mlayer"><g class="trace scatter traced517e7" style="stroke-miterlimit: 2;"><g class="fills"><g><path class="js-fill" d="M654.12,380L-231.06,380L-231.06,376.82L-171.6,379.36L-169.9,379.68L-110.44,378.41L-108.74,377.77L-101.94,376.18L-100.24,374.91L-96.84,373.96L-95.14,371.73L-86.65,369.82L-84.95,370.14L-81.55,371.73L-79.85,370.78L-73.06,369.51L-71.36,371.1L-69.66,370.14L-67.96,371.1L-62.86,373.32L-61.16,371.73L-57.77,368.23L-56.07,368.23L-52.67,366.01L-50.97,362.83L-49.27,364.42L-47.57,363.78L-44.17,362.83L-42.48,362.83L-40.78,361.56L-39.08,362.19L-37.38,360.92L-35.68,363.46L-33.98,365.37L-32.28,364.42L-27.18,367.28L-25.49,367.92L-23.79,364.42L-22.09,365.37L-20.39,366.33L-18.69,365.05L-15.29,365.05L-13.59,365.05L-11.89,366.33L-10.19,364.42L-6.8,363.15L-5.1,363.46L-1.7,359.33L0,358.06L3.4,357.42L5.1,355.83L8.5,349.47L10.19,345.34L11.89,343.75L13.59,340.89L15.29,341.21L16.99,332.62L18.69,324.35L20.39,320.22L23.79,306.23L25.49,304.32L27.18,304.64L28.88,299.23L33.98,248.03L35.68,214.33L37.38,200.65L39.08,198.74L40.78,156.13L42.48,139.6L44.17,115.11L45.87,103.67L47.57,90.31L49.27,69.96L50.97,67.41L52.67,51.83L54.37,23.85L56.07,23.53L57.77,0L59.47,7.31L61.16,23.53L62.86,22.9L64.56,24.8L66.26,43.25L67.96,95.4L69.66,109.71L73.06,133.24L74.76,135.46L76.46,169.49L78.15,186.66L79.85,162.18L81.55,183.16L83.25,199.38L84.95,204.47L86.65,206.06L88.35,225.46L90.05,242.63L91.75,247.72L93.45,254.08L95.14,264.89L96.84,261.71L98.54,261.07L100.24,261.71L101.94,259.16L103.64,250.9L105.34,252.8L107.04,246.76L108.74,248.99L110.44,249.62L112.13,245.17L115.53,253.44L117.23,242.95L118.93,241.67L120.63,234.68L122.33,234.36L124.03,221.32L125.73,216.87L127.43,189.84L129.12,187.3L130.82,179.98L132.52,181.26L134.22,181.57L135.92,176.17L137.62,158.36L141.02,187.62L142.72,214.01L144.42,200.97L146.11,201.29L147.81,192.38L149.51,197.15L151.21,194.61L152.91,177.44L154.61,178.39L156.31,172.67L158.01,170.76L159.71,174.58L161.41,168.85L163.1,167.9L164.8,176.8L166.5,152.64L169.9,156.77L171.6,165.67L175,196.52L176.7,195.88L178.4,186.98L180.09,196.2L181.79,194.93L183.49,194.93L185.19,192.7L186.89,193.97L188.59,196.52L190.29,200.65L191.99,199.7L193.69,201.29L195.39,197.15L197.08,199.7L200.48,203.83L202.18,207.01L203.88,213.69L205.58,213.05L207.28,217.19L208.98,216.87L212.38,222.91L214.07,222.91L215.77,221L217.47,220.69L220.87,238.81L222.57,237.86L224.27,242.63L225.97,254.08L227.67,258.21L229.37,257.89L234.46,276.97L236.16,274.43L237.86,259.8L239.56,259.48L241.26,261.71L242.96,261.07L246.36,256.62L248.05,253.44L249.75,259.48L251.45,261.71L253.15,260.12L254.85,262.34L256.55,253.76L258.25,257.57L261.65,275.38L263.35,274.43L265.04,275.38L266.74,278.24L268.44,280.79L270.14,276.02L271.84,275.06L273.54,268.7L275.24,271.88L276.94,272.2L280.34,262.03L282.03,257.89L283.73,255.03L285.43,255.03L287.13,250.9L288.83,250.9L290.53,252.17L292.23,252.49L293.93,256.62L295.63,252.49L299.02,241.67L300.72,240.4L302.42,232.45L304.12,228.95L305.82,220.05L307.52,222.59L309.22,223.87L310.92,223.55L312.62,223.87L314.32,254.39L316.01,235.95L317.71,229.59L319.41,225.14L321.11,227.36L324.51,226.09L326.21,193.97L327.91,214.01L329.61,216.55L331.31,214.33L333,210.19L334.7,209.56L336.4,209.87L338.1,203.2L339.8,206.06L341.5,218.46L343.2,221.32L344.9,225.77L346.6,227.36L348.3,228.64L350,240.72L353.39,240.4L355.09,243.58L356.79,248.03L358.49,265.21L360.19,264.89L361.89,259.8L363.59,267.43L365.29,270.29L366.99,276.33L368.68,274.11L373.78,274.43L375.48,271.56L377.18,268.38L378.88,282.69L380.58,280.79L382.28,262.03L383.98,262.03L385.67,264.89L387.37,259.8L389.07,262.98L390.77,248.35L392.47,262.66L394.17,273.79L395.87,274.43L397.57,303.05L399.27,304.64L402.66,312.27L404.36,309.72L406.06,305.91L407.76,305.27L409.46,292.87L411.16,303.36L412.86,306.23L414.56,311.31L417.96,328.8L419.65,329.76L423.05,343.75L424.75,345.97L428.15,354.56L429.85,356.47L431.55,356.47L433.25,361.87L434.95,364.1L436.64,367.92L438.34,370.14L440.04,371.1L443.44,370.46L445.14,371.73L448.54,373.96L450.24,373.32L451.94,373L453.63,373.96L457.03,374.28L458.73,373.96L463.83,373L465.53,373.32L467.23,373.32L468.93,371.1L472.32,370.14L474.02,371.1L475.72,372.05L477.42,371.1L482.52,370.46L484.22,372.05L487.61,369.19L489.31,366.96L491.01,366.64L492.71,362.51L499.51,329.12L501.21,325.31L502.91,323.4L504.6,313.86L506.3,314.18L508,310.36L509.7,306.23L511.4,307.82L514.8,310.36L516.5,309.09L519.9,299.87L521.59,303.05L523.29,303.68L524.99,298.91L528.39,295.41L530.09,298.59L531.79,299.55L533.49,291.92L535.19,288.74L536.89,290.33L538.58,290.33L540.28,292.55L541.98,292.55L543.68,293.82L547.08,303.05L548.78,306.86L552.18,310.68L553.88,306.23L557.27,315.13L558.97,312.9L562.37,312.27L564.07,315.77L565.77,323.08L567.47,323.4L569.17,323.08L570.87,328.49L572.56,326.9L574.26,327.53L575.96,329.76L577.66,330.08L579.36,330.71L581.06,332.62L582.76,327.53L584.46,332.3L586.16,332.3L587.86,334.85L589.55,337.39L591.25,338.03L592.95,339.3L594.65,346.93L596.35,349.15L598.05,349.47L603.15,359.97L604.85,362.83L606.54,364.42L608.24,363.15L611.64,363.46L613.34,361.24L615.04,361.56L616.74,359.33L620.14,360.6L621.84,359.97L625.23,353.61L626.93,355.51L628.63,357.42L630.33,355.2L632.03,354.56L633.73,354.88L637.13,357.74L638.83,353.61L640.52,349.79L642.22,348.52L643.92,346.61L645.62,346.29L647.32,343.11L649.02,344.7L654.12,354.88" style="fill: rgb(8, 115, 191); fill-opacity: 0.2; stroke-width: 0;"/></g></g><g class="errorbars"/><g class="lines"><path class="js-line" d="M-231.06,376.82L-171.6,379.36L-169.9,379.68L-110.44,378.41L-108.74,377.77L-101.94,376.18L-100.24,374.91L-96.84,373.96L-95.14,371.73L-86.65,369.82L-84.95,370.14L-81.55,371.73L-79.85,370.78L-73.06,369.51L-71.36,371.1L-69.66,370.14L-67.96,371.1L-62.86,373.32L-61.16,371.73L-57.77,368.23L-56.07,368.23L-52.67,366.01L-50.97,362.83L-49.27,364.42L-47.57,363.78L-44.17,362.83L-42.48,362.83L-40.78,361.56L-39.08,362.19L-37.38,360.92L-35.68,363.46L-33.98,365.37L-32.28,364.42L-27.18,367.28L-25.49,367.92L-23.79,364.42L-22.09,365.37L-20.39,366.33L-18.69,365.05L-15.29,365.05L-13.59,365.05L-11.89,366.33L-10.19,364.42L-6.8,363.15L-5.1,363.46L-1.7,359.33L0,358.06L3.4,357.42L5.1,355.83L8.5,349.47L10.19,345.34L11.89,343.75L13.59,340.89L15.29,341.21L16.99,332.62L18.69,324.35L20.39,320.22L23.79,306.23L25.49,304.32L27.18,304.64L28.88,299.23L33.98,248.03L35.68,214.33L37.38,200.65L39.08,198.74L40.78,156.13L42.48,139.6L44.17,115.11L45.87,103.67L47.57,90.31L49.27,69.96L50.97,67.41L52.67,51.83L54.37,23.85L56.07,23.53L57.77,0L59.47,7.31L61.16,23.53L62.86,22.9L64.56,24.8L66.26,43.25L67.96,95.4L69.66,109.71L73.06,133.24L74.76,135.46L76.46,169.49L78.15,186.66L79.85,162.18L81.55,183.16L83.25,199.38L84.95,204.47L86.65,206.06L88.35,225.46L90.05,242.63L91.75,247.72L93.45,254.08L95.14,264.89L96.84,261.71L98.54,261.07L100.24,261.71L101.94,259.16L103.64,250.9L105.34,252.8L107.04,246.76L108.74,248.99L110.44,249.62L112.13,245.17L115.53,253.44L117.23,242.95L118.93,241.67L120.63,234.68L122.33,234.36L124.03,221.32L125.73,216.87L127.43,189.84L129.12,187.3L130.82,179.98L132.52,181.26L134.22,181.57L135.92,176.17L137.62,158.36L141.02,187.62L142.72,214.01L144.42,200.97L146.11,201.29L147.81,192.38L149.51,197.15L151.21,194.61L152.91,177.44L154.61,178.39L156.31,172.67L158.01,170.76L159.71,174.58L161.41,168.85L163.1,167.9L164.8,176.8L166.5,152.64L169.9,156.77L171.6,165.67L175,196.52L176.7,195.88L178.4,186.98L180.09,196.2L181.79,194.93L183.49,194.93L185.19,192.7L186.89,193.97L188.59,196.52L190.29,200.65L191.99,199.7L193.69,201.29L195.39,197.15L197.08,199.7L200.48,203.83L202.18,207.01L203.88,213.69L205.58,213.05L207.28,217.19L208.98,216.87L212.38,222.91L214.07,222.91L215.77,221L217.47,220.69L220.87,238.81L222.57,237.86L224.27,242.63L225.97,254.08L227.67,258.21L229.37,257.89L234.46,276.97L236.16,274.43L237.86,259.8L239.56,259.48L241.26,261.71L242.96,261.07L246.36,256.62L248.05,253.44L249.75,259.48L251.45,261.71L253.15,260.12L254.85,262.34L256.55,253.76L258.25,257.57L261.65,275.38L263.35,274.43L265.04,275.38L266.74,278.24L268.44,280.79L270.14,276.02L271.84,275.06L273.54,268.7L275.24,271.88L276.94,272.2L280.34,262.03L282.03,257.89L283.73,255.03L285.43,255.03L287.13,250.9L288.83,250.9L290.53,252.17L292.23,252.49L293.93,256.62L295.63,252.49L299.02,241.67L300.72,240.4L302.42,232.45L304.12,228.95L305.82,220.05L307.52,222.59L309.22,223.87L310.92,223.55L312.62,223.87L314.32,254.39L316.01,235.95L317.71,229.59L319.41,225.14L321.11,227.36L324.51,226.09L326.21,193.97L327.91,214.01L329.61,216.55L331.31,214.33L333,210.19L334.7,209.56L336.4,209.87L338.1,203.2L339.8,206.06L341.5,218.46L343.2,221.32L344.9,225.77L346.6,227.36L348.3,228.64L350,240.72L353.39,240.4L355.09,243.58L356.79,248.03L358.49,265.21L360.19,264.89L361.89,259.8L363.59,267.43L365.29,270.29L366.99,276.33L368.68,274.11L373.78,274.43L375.48,271.56L377.18,268.38L378.88,282.69L380.58,280.79L382.28,262.03L383.98,262.03L385.67,264.89L387.37,259.8L389.07,262.98L390.77,248.35L392.47,262.66L394.17,273.79L395.87,274.43L397.57,303.05L399.27,304.64L402.66,312.27L404.36,309.72L406.06,305.91L407.76,305.27L409.46,292.87L411.16,303.36L412.86,306.23L414.56,311.31L417.96,328.8L419.65,329.76L423.05,343.75L424.75,345.97L428.15,354.56L429.85,356.47L431.55,356.47L433.25,361.87L434.95,364.1L436.64,367.92L438.34,370.14L440.04,371.1L443.44,370.46L445.14,371.73L448.54,373.96L450.24,373.32L451.94,373L453.63,373.96L457.03,374.28L458.73,373.96L463.83,373L465.53,373.32L467.23,373.32L468.93,371.1L472.32,370.14L474.02,371.1L475.72,372.05L477.42,371.1L482.52,370.46L484.22,372.05L487.61,369.19L489.31,366.96L491.01,366.64L492.71,362.51L499.51,329.12L501.21,325.31L502.91,323.4L504.6,313.86L506.3,314.18L508,310.36L509.7,306.23L511.4,307.82L514.8,310.36L516.5,309.09L519.9,299.87L521.59,303.05L523.29,303.68L524.99,298.91L528.39,295.41L530.09,298.59L531.79,299.55L533.49,291.92L535.19,288.74L536.89,290.33L538.58,290.33L540.28,292.55L541.98,292.55L543.68,293.82L547.08,303.05L548.78,306.86L552.18,310.68L553.88,306.23L557.27,315.13L558.97,312.9L562.37,312.27L564.07,315.77L565.77,323.08L567.47,323.4L569.17,323.08L570.87,328.49L572.56,326.9L574.26,327.53L575.96,329.76L577.66,330.08L579.36,330.71L581.06,332.62L582.76,327.53L584.46,332.3L586.16,332.3L587.86,334.85L589.55,337.39L591.25,338.03L592.95,339.3L594.65,346.93L596.35,349.15L598.05,349.47L603.15,359.97L604.85,362.83L606.54,364.42L608.24,363.15L611.64,363.46L613.34,361.24L615.04,361.56L616.74,359.33L620.14,360.6L621.84,359.97L625.23,353.61L626.93,355.51L628.63,357.42L630.33,355.2L632.03,354.56L633.73,354.88L637.13,357.74L638.83,353.61L640.52,349.79L642.22,348.52L643.92,346.61L645.62,346.29L647.32,343.11L649.02,344.7L654.12,354.88" style="vector-effect: non-scaling-stroke; fill: none; stroke: rgb(8, 115, 191); stroke-opacity: 1; stroke-width: 0.5px; opacity: 1;"/></g><g class="points"/><g class="text"/></g><g class="trace scatter trace52a1bd" style="stroke-miterlimit: 2;"><g class="fills"><g><path class="js-fill" d="M671.11,380L654.12,380L654.12,354.88L657.51,354.24L659.21,357.42L660.91,354.88L662.61,354.56L664.31,352.33L666.01,346.61L667.71,343.75L669.41,344.38L671.11,348.2" style="fill: rgb(8, 115, 191); fill-opacity: 0.4; stroke-width: 0;"/></g></g><g class="errorbars"/><g class="lines"><path class="js-line" d="M654.12,354.88L657.51,354.24L659.21,357.42L660.91,354.88L662.61,354.56L664.31,352.33L666.01,346.61L667.71,343.75L669.41,344.38L671.11,348.2" style="vector-effect: non-scaling-stroke; fill: none; stroke: rgb(8, 115, 191); stroke-opacity: 1; stroke-width: 2px; opacity: 1;"/></g><g class="points"/><g class="text"/></g><g class="trace scatter traceda0282" style="stroke-miterlimit: 2; opacity: 1;"><g class="fills"/><g class="errorbars"/><g class="lines"/><g class="points"><path class="point" transform="translate(671.11,348.2)" d="M15,0A15,15 0 1,1 0,-15A15,15 0 0,1 15,0Z" style="opacity: 1; stroke-width: 0px; fill: rgb(8, 115, 191); fill-opacity: 1;"/></g><g class="text"/></g></g></g><g class="overplot"/><path class="xlines-above crisp" style="fill: none; stroke-width: 1px; stroke: rgb(0, 0, 0); stroke-opacity: 0;" d=""/><path class="ylines-above crisp" style="fill: none;" d="M0,0"/><g class="overlines-above"/><g class="xaxislayer-above"><path class="xtick ticks crisp" d="M0,450v-5" transform="translate(106.07,0)" style="stroke: rgb(68, 68, 68); stroke-opacity: 1; stroke-width: 1px;"/><path class="xtick ticks crisp" d="M0,450v-5" transform="translate(209.71,0)" style="stroke: rgb(68, 68, 68); stroke-opacity: 1; stroke-width: 1px;"/><path class="xtick ticks crisp" d="M0,450v-5" transform="translate(309.95,0)" style="stroke: rgb(68, 68, 68); stroke-opacity: 1; stroke-width: 1px;"/><path class="xtick ticks crisp" d="M0,450v-5" transform="translate(413.59,0)" style="stroke: rgb(68, 68, 68); stroke-opacity: 1; stroke-width: 1px;"/><path class="xtick ticks crisp" d="M0,450v-5" transform="translate(517.23,0)" style="stroke: rgb(68, 68, 68); stroke-opacity: 1; stroke-width: 1px;"/><path class="xtick ticks crisp" d="M0,450v-5" transform="translate(622.56,0)" style="stroke: rgb(68, 68, 68); stroke-opacity: 1; stroke-width: 1px;"/><path class="xtick ticks crisp" d="M0,450v-5" transform="translate(726.2,0)" style="stroke: rgb(68, 68, 68); stroke-opacity: 1; stroke-width: 1px;"/><g class="xtick"><text text-anchor="middle" x="0" y="469" transform="translate(106.07,0)" style="font-family: 'Open Sans', verdana, arial, sans-serif; font-size: 18px; fill: rgb(42, 63, 95); fill-opacity: 1; white-space: pre;">01/11</text></g><g class="xtick"><text text-anchor="middle" x="0" y="469" transform="translate(209.71,0)" style="font-family: 'Open Sans', verdana, arial, sans-serif; font-size: 18px; fill: rgb(42, 63, 95); fill-opacity: 1; white-space: pre;">01/01</text></g><g class="xtick"><text text-anchor="middle" x="0" y="469" transform="translate(309.95,0)" style="font-family: 'Open Sans', verdana, arial, sans-serif; font-size: 18px; fill: rgb(42, 63, 95); fill-opacity: 1; white-space: pre;">01/03</text></g><g class="xtick"><text text-anchor="middle" x="0" y="469" transform="translate(413.59,0)" style="font-family: 'Open Sans', verdana, arial, sans-serif; font-size: 18px; fill: rgb(42, 63, 95); fill-opacity: 1; white-space: pre;">01/05</text></g><g class="xtick"><text text-anchor="middle" x="0" y="469" transform="translate(517.23,0)" style="font-family: 'Open Sans', verdana, arial, sans-serif; font-size: 18px; fill: rgb(42, 63, 95); fill-opacity: 1; white-space: pre;">01/07</text></g><g class="xtick"><text text-anchor="middle" x="0" y="469" transform="translate(622.56,0)" style="font-family: 'Open Sans', verdana, arial, sans-serif; font-size: 18px; fill: rgb(42, 63, 95); fill-opacity: 1; white-space: pre;">01/09</text></g><g class="xtick"><text text-anchor="middle" x="0" y="469" transform="translate(726.2,0)" style="font-family: 'Open Sans', verdana, arial, sans-serif; font-size: 18px; fill: rgb(42, 63, 95); fill-opacity: 1; white-space: pre;">01/11</text></g></g><g class="yaxislayer-above"/><g class="overaxes-above"/></g></g><g class="polarlayer"/><g class="ternarylayer"/><g class="geolayer"/><g class="funnelarealayer"/><g class="pielayer"/><g class="treemaplayer"/><g class="sunburstlayer"/><g class="glimages"/><defs id="topdefs-7a3e0c"><g class="clips"/></defs><g class="layer-above"><g class="imagelayer"/><g class="shapelayer"><path data-index="0" fill-rule="evenodd" d="M-904.84,412.92L337.13,412.92" clip-path="url('#clip7a3e0cxy')" style="opacity: 1; stroke: rgb(255, 0, 0); stroke-opacity: 1; fill: rgb(0, 0, 0); fill-opacity: 0; stroke-dasharray: 3px, 3px; stroke-width: 1.5px;"/></g></g><g class="infolayer"><g class="g-gtitle"><text class="gtitle" x="375" y="25" text-anchor="middle" dy="0.7em" style="font-family: 'Open Sans', verdana, arial, sans-serif; font-size: 50px; fill: rgb(42, 63, 95); opacity: 1; font-weight: normal; white-space: pre;"><tspan style="font-weight:bold">Haute-Saône (70)</tspan></text></g><g class="g-xtitle"/><g class="annotation" data-index="0" style="opacity: 1;"><g class="annotation-text-g" transform="rotate(0,679.11,358.2)"><g class="cursor-pointer" transform="translate(636, 322)"><rect class="bg" x="0.5" y="0.5" width="86" height="71" style="stroke-width: 1px; stroke: rgb(0, 0, 0); stroke-opacity: 0; fill: rgb(255, 255, 255); fill-opacity: 0.6;"/><text class="annotation-text" text-anchor="middle" x="43.53125" y="55.5" style="font-family: 'Open Sans', verdana, arial, sans-serif; font-size: 50px; fill: rgb(8, 115, 191); fill-opacity: 1; white-space: pre;"> <tspan style="font-weight:bold">42 </tspan></text></g></g><g class="annotation-arrow-g" style="opacity: 1;"><path d="M707.51,393.7L719.11,408.2" style="stroke-width: 1px; stroke: rgb(8, 115, 191); stroke-opacity: 1; stroke-dasharray: 0px, 0px, 18.569px, 18.569px;"/></g></g></g></svg>