<svg class="main-svg" xmlns="http://www.w3.org/2000/svg" xmlns:xlink="http://www.w3.org/1999/xlink" width="1125" height="750" style="" viewBox="0 0 750 500"><rect x="0" y="0" width="750" height="500" style="fill: rgb(0, 0, 0); fill-opacity: 0;"/><defs id="defs-4342ec"><g class="clips"><clipPath id="clip4342ecxyplot" class="plotclip"><rect width="700" height="380"/></clipPath><clipPath class="axesclip" id="clip4342ecx"><rect x="50" y="0" width="700" height="500"/></clipPath><clipPath class="axesclip" id="clip4342ecy"><rect x="0" y="70" width="750" height="380"/></clipPath><clipPath class="axesclip" id="clip4342ecxy"><rect x="50" y="70" width="700" height="380"/></clipPath></g><g class="gradients"/></defs><g class="bglayer"><rect class="bg" x="50" y="70" width="700" height="380" style="fill: rgb(0, 0, 0); fill-opacity: 0; stroke-width: 0;"/></g><g class="layer-below"><g class="imagelayer"/><g class="shapelayer"/></g><g class="cartesianlayer"><g class="subplot xy"><g class="layer-subplot"><g class="shapelayer"/><g class="imagelayer"/></g><g class="gridlayer"><g class="x"><path class="xgrid crisp" transform="translate(109.69,0)" d="M0,70v380" style="stroke: rgb(255, 255, 255); stroke-opacity: 1; stroke-width: 1px;"/><path class="xgrid crisp" transform="translate(220.03,0)" d="M0,70v380" style="stroke: rgb(255, 255, 255); stroke-opacity: 1; stroke-width: 1px;"/><path class="xgrid crisp" transform="translate(326.74,0)" d="M0,70v380" style="stroke: rgb(255, 255, 255); stroke-opacity: 1; stroke-width: 1px;"/><path class="xgrid crisp" transform="translate(437.08,0)" d="M0,70v380" style="stroke: rgb(255, 255, 255); stroke-opacity: 1; stroke-width: 1px;"/><path class="xgrid crisp" transform="translate(547.4200000000001,0)" d="M0,70v380" style="stroke: rgb(255, 255, 255); stroke-opacity: 1; stroke-width: 1px;"/><path class="xgrid crisp" transform="translate(659.56,0)" d="M0,70v380" style="stroke: rgb(255, 255, 255); stroke-opacity: 1; stroke-width: 1px;"/></g><g class="y"/></g><g class="zerolinelayer"/><path class="xlines-below"/><path class="ylines-below"/><g class="overlines-below"/><g class="xaxislayer-below"/><g class="yaxislayer-below"/><g class="overaxes-below"/><g class="plot" transform="translate(50, 70)" clip-path="url('#clip4342ecxyplot')"><g class="scatterlayer mlayer"><g class="trace scatter trace288e9d" style="stroke-miterlimit: 2;"><g class="fills"><g><path class="js-fill" d="M669.25,380L-245.99,380L-245.99,373.27L-240.57,372.96L-238.76,372.8L-233.33,374.99L-231.52,377.18L-224.29,377.34L-222.48,377.81L-200.78,378.75L-198.97,378.75L-171.83,378.59L-170.03,378.43L-135.66,377.34L-133.85,376.71L-130.23,374.37L-128.42,372.8L-123,370.77L-121.19,370.77L-117.57,370.14L-115.76,370.3L-95.87,373.27L-94.06,372.96L-88.63,366.07L-86.82,366.54L-85.01,365.91L-83.2,362L-81.4,357.93L-79.59,358.25L-77.78,354.33L-75.97,354.8L-72.35,352.77L-70.54,353.39L-68.73,353.71L-66.93,349.64L-65.12,351.05L-63.31,348.7L-57.88,346.66L-56.07,344.16L-50.65,335.55L-48.84,335.55L-47.03,335.4L-45.22,332.58L-41.6,324.28L-39.79,321.15L-36.18,314.58L-34.37,314.11L-32.56,304.25L-30.75,302.37L-27.13,291.26L-25.32,291.57L-21.71,292.2L-19.9,290.63L-18.09,289.54L-16.28,295.02L-14.47,303.31L-12.66,305.5L-10.85,308.95L-9.04,309.88L-5.43,318.34L-3.62,317.71L0,305.97L1.81,302.37L3.62,300.49L5.43,294.55L7.24,286.1L9.04,281.4L14.47,260.27L16.28,260.27L21.71,226.47L23.51,221.61L25.32,209.56L27.13,204.87L28.94,202.21L30.75,185.46L34.37,139.6L36.18,105.64L37.98,83.42L39.79,71.37L41.6,72.15L43.41,41.94L47.03,18.31L48.84,17.22L52.45,2.35L54.26,0L56.07,8.45L57.88,12.52L59.69,18.47L61.5,32.4L65.12,75.91L66.93,77.16L70.54,128.02L72.35,177.48L74.16,176.7L75.97,189.69L77.78,200.49L79.59,203.46L83.2,239.61L85.01,228.34L86.82,262.46L88.63,274.98L90.44,278.74L92.25,279.99L94.06,295.49L95.87,299.09L99.48,311.14L101.29,310.98L103.1,311.29L104.91,310.82L106.72,307.22L108.53,310.82L110.34,313.01L112.14,311.29L113.95,312.39L115.76,309.1L117.57,307.85L119.38,308.63L123,307.22L124.81,302.84L126.61,305.5L128.42,305.66L130.23,307.22L132.04,305.5L133.85,302.37L135.66,289.07L137.47,289.85L139.28,284.37L141.09,283.9L142.89,281.71L144.7,283.75L146.51,279.05L148.32,280.3L150.13,283.75L151.94,297.21L153.75,299.56L155.56,300.34L157.36,293.76L160.98,300.81L162.79,294.08L164.6,294.7L166.41,290.32L168.22,290.63L170.03,286.57L171.83,272.17L173.64,266.69L175.45,258.71L177.26,235.54L179.07,232.57L180.88,231.94L182.69,221.61L184.5,225.84L186.3,227.56L188.11,224.9L189.92,217.55L191.73,216.76L193.54,218.01L195.35,216.61L197.16,214.57L198.97,209.25L200.78,210.82L202.58,214.42L204.39,213.16L206.2,213.16L208.01,206.75L209.82,203.15L213.44,196.42L215.25,194.7L217.05,195.32L218.86,194.85L222.48,209.25L224.29,212.85L227.91,214.88L229.72,214.73L231.52,213.63L233.33,218.17L236.95,225.53L238.76,234.45L240.57,240.55L242.38,242.12L244.19,243.37L245.99,245.72L247.8,248.53L249.61,243.53L253.23,235.7L255.04,236.64L256.85,237.27L258.66,228.97L260.47,217.08L262.27,218.48L264.08,210.19L265.89,209.88L267.7,207.84L269.51,207.22L271.32,210.5L273.13,215.35L274.94,217.7L276.74,218.01L280.36,211.29L282.17,209.88L283.98,195.16L285.79,193.6L287.6,189.22L289.41,190L291.21,186.09L293.02,185.62L294.83,186.71L296.64,192.03L302.07,146.49L303.88,135.38L305.68,130.37L307.49,130.06L311.11,126.3L312.92,127.4L316.54,108.93L318.35,106.11L320.16,103.92L321.96,79.35L325.58,58.53L327.39,59.32L329.2,57.91L331.01,48.52L332.82,49.3L334.63,109.71L336.43,105.33L338.24,102.98L340.05,97.5L341.86,100.79L343.67,99.07L345.48,99.38L347.29,34.9L349.1,51.33L352.71,72.93L354.52,76.53L356.33,86.24L358.14,87.49L359.95,102.36L361.76,106.11L363.57,109.87L365.37,115.82L368.99,128.96L370.8,130.37L374.42,155.57L376.23,163.86L379.84,190.47L381.65,206.43L383.46,204.09L385.27,208.78L387.08,215.04L388.89,224.28L396.12,236.8L397.93,250.57L401.55,259.33L403.36,279.99L405.17,285.31L406.98,281.71L408.79,280.77L410.59,282.65L412.4,288.76L414.21,290.48L416.02,276.71L417.83,276.71L419.64,275.92L421.45,276.86L423.26,299.09L425.06,294.39L426.87,294.55L428.68,300.18L430.49,309.26L432.3,312.08L434.11,312.23L435.92,304.41L439.53,328.04L441.34,331.48L444.96,333.2L446.77,333.52L448.58,336.49L450.39,335.86L454.01,341.66L455.81,346.35L457.62,349.64L459.43,349.32L464.86,361.22L466.67,363.88L468.48,365.91L470.28,366.07L472.09,366.23L473.9,367.48L479.33,368.26L481.14,370.14L484.75,370.14L486.56,368.26L491.99,368.42L493.8,367.17L497.42,367.64L499.22,369.67L501.03,369.98L502.84,369.04L504.65,369.2L506.46,366.54L511.89,361.85L513.7,358.25L515.5,359.34L517.31,352.61L520.93,350.42L522.74,351.2L524.55,345.1L526.36,342.28L528.17,333.83L529.97,329.45L533.59,322.56L535.4,321.31L537.21,311.76L539.02,307.07L540.83,302.84L542.64,300.81L544.44,293.76L546.25,291.89L548.06,292.2L549.87,290.16L551.68,286.72L553.49,286.57L555.3,285.63L557.11,285.94L558.91,282.97L560.72,283.43L562.53,281.09L564.34,274.36L567.96,267.16L569.77,266.38L573.39,262.62L575.19,263.71L577,267.16L578.81,268.41L580.62,271.54L582.43,271.85L584.24,275.92L586.05,276.55L591.47,291.73L593.28,294.23L595.09,295.8L596.9,296.11L598.71,297.36L600.52,301.59L602.33,305.19L604.13,304.56L607.75,314.58L609.56,316.77L613.18,315.36L614.99,317.87L616.8,321.47L618.6,322.56L622.22,328.67L624.03,329.6L627.65,336.65L629.46,338.06L633.07,339.93L634.88,337.9L636.69,338.21L638.5,340.25L640.31,338.68L642.12,342.13L643.93,343.53L645.74,345.88L647.55,348.86L649.35,348.7L651.16,351.67L652.97,356.68L658.4,360.59L660.21,361.53L662.02,361.69L663.82,363.41L665.63,360.28L667.44,360.75L669.25,361.38" style="fill: rgb(8, 115, 191); fill-opacity: 0.2; stroke-width: 0;"/></g></g><g class="errorbars"/><g class="lines"><path class="js-line" d="M-245.99,373.27L-240.57,372.96L-238.76,372.8L-233.33,374.99L-231.52,377.18L-224.29,377.34L-222.48,377.81L-200.78,378.75L-198.97,378.75L-171.83,378.59L-170.03,378.43L-135.66,377.34L-133.85,376.71L-130.23,374.37L-128.42,372.8L-123,370.77L-121.19,370.77L-117.57,370.14L-115.76,370.3L-95.87,373.27L-94.06,372.96L-88.63,366.07L-86.82,366.54L-85.01,365.91L-83.2,362L-81.4,357.93L-79.59,358.25L-77.78,354.33L-75.97,354.8L-72.35,352.77L-70.54,353.39L-68.73,353.71L-66.93,349.64L-65.12,351.05L-63.31,348.7L-57.88,346.66L-56.07,344.16L-50.65,335.55L-48.84,335.55L-47.03,335.4L-45.22,332.58L-41.6,324.28L-39.79,321.15L-36.18,314.58L-34.37,314.11L-32.56,304.25L-30.75,302.37L-27.13,291.26L-25.32,291.57L-21.71,292.2L-19.9,290.63L-18.09,289.54L-16.28,295.02L-14.47,303.31L-12.66,305.5L-10.85,308.95L-9.04,309.88L-5.43,318.34L-3.62,317.71L0,305.97L1.81,302.37L3.62,300.49L5.43,294.55L7.24,286.1L9.04,281.4L14.47,260.27L16.28,260.27L21.71,226.47L23.51,221.61L25.32,209.56L27.13,204.87L28.94,202.21L30.75,185.46L34.37,139.6L36.18,105.64L37.98,83.42L39.79,71.37L41.6,72.15L43.41,41.94L47.03,18.31L48.84,17.22L52.45,2.35L54.26,0L56.07,8.45L57.88,12.52L59.69,18.47L61.5,32.4L65.12,75.91L66.93,77.16L70.54,128.02L72.35,177.48L74.16,176.7L75.97,189.69L77.78,200.49L79.59,203.46L83.2,239.61L85.01,228.34L86.82,262.46L88.63,274.98L90.44,278.74L92.25,279.99L94.06,295.49L95.87,299.09L99.48,311.14L101.29,310.98L103.1,311.29L104.91,310.82L106.72,307.22L108.53,310.82L110.34,313.01L112.14,311.29L113.95,312.39L115.76,309.1L117.57,307.85L119.38,308.63L123,307.22L124.81,302.84L126.61,305.5L128.42,305.66L130.23,307.22L132.04,305.5L133.85,302.37L135.66,289.07L137.47,289.85L139.28,284.37L141.09,283.9L142.89,281.71L144.7,283.75L146.51,279.05L148.32,280.3L150.13,283.75L151.94,297.21L153.75,299.56L155.56,300.34L157.36,293.76L160.98,300.81L162.79,294.08L164.6,294.7L166.41,290.32L168.22,290.63L170.03,286.57L171.83,272.17L173.64,266.69L175.45,258.71L177.26,235.54L179.07,232.57L180.88,231.94L182.69,221.61L184.5,225.84L186.3,227.56L188.11,224.9L189.92,217.55L191.73,216.76L193.54,218.01L195.35,216.61L197.16,214.57L198.97,209.25L200.78,210.82L202.58,214.42L204.39,213.16L206.2,213.16L208.01,206.75L209.82,203.15L213.44,196.42L215.25,194.7L217.05,195.32L218.86,194.85L222.48,209.25L224.29,212.85L227.91,214.88L229.72,214.73L231.52,213.63L233.33,218.17L236.95,225.53L238.76,234.45L240.57,240.55L242.38,242.12L244.19,243.37L245.99,245.72L247.8,248.53L249.61,243.53L253.23,235.7L255.04,236.64L256.85,237.27L258.66,228.97L260.47,217.08L262.27,218.48L264.08,210.19L265.89,209.88L267.7,207.84L269.51,207.22L271.32,210.5L273.13,215.35L274.94,217.7L276.74,218.01L280.36,211.29L282.17,209.88L283.98,195.16L285.79,193.6L287.6,189.22L289.41,190L291.21,186.09L293.02,185.62L294.83,186.71L296.64,192.03L302.07,146.49L303.88,135.38L305.68,130.37L307.49,130.06L311.11,126.3L312.92,127.4L316.54,108.93L318.35,106.11L320.16,103.92L321.96,79.35L325.58,58.53L327.39,59.32L329.2,57.91L331.01,48.52L332.82,49.3L334.63,109.71L336.43,105.33L338.24,102.98L340.05,97.5L341.86,100.79L343.67,99.07L345.48,99.38L347.29,34.9L349.1,51.33L352.71,72.93L354.52,76.53L356.33,86.24L358.14,87.49L359.95,102.36L361.76,106.11L363.57,109.87L365.37,115.82L368.99,128.96L370.8,130.37L374.42,155.57L376.23,163.86L379.84,190.47L381.65,206.43L383.46,204.09L385.27,208.78L387.08,215.04L388.89,224.28L396.12,236.8L397.93,250.57L401.55,259.33L403.36,279.99L405.17,285.31L406.98,281.71L408.79,280.77L410.59,282.65L412.4,288.76L414.21,290.48L416.02,276.71L417.83,276.71L419.64,275.92L421.45,276.86L423.26,299.09L425.06,294.39L426.87,294.55L428.68,300.18L430.49,309.26L432.3,312.08L434.11,312.23L435.92,304.41L439.53,328.04L441.34,331.48L444.96,333.2L446.77,333.52L448.58,336.49L450.39,335.86L454.01,341.66L455.81,346.35L457.62,349.64L459.43,349.32L464.86,361.22L466.67,363.88L468.48,365.91L470.28,366.07L472.09,366.23L473.9,367.48L479.33,368.26L481.14,370.14L484.75,370.14L486.56,368.26L491.99,368.42L493.8,367.17L497.42,367.64L499.22,369.67L501.03,369.98L502.84,369.04L504.65,369.2L506.46,366.54L511.89,361.85L513.7,358.25L515.5,359.34L517.31,352.61L520.93,350.42L522.74,351.2L524.55,345.1L526.36,342.28L528.17,333.83L529.97,329.45L533.59,322.56L535.4,321.31L537.21,311.76L539.02,307.07L540.83,302.84L542.64,300.81L544.44,293.76L546.25,291.89L548.06,292.2L549.87,290.16L551.68,286.72L553.49,286.57L555.3,285.63L557.11,285.94L558.91,282.97L560.72,283.43L562.53,281.09L564.34,274.36L567.96,267.16L569.77,266.38L573.39,262.62L575.19,263.71L577,267.16L578.81,268.41L580.62,271.54L582.43,271.85L584.24,275.92L586.05,276.55L591.47,291.73L593.28,294.23L595.09,295.8L596.9,296.11L598.71,297.36L600.52,301.59L602.33,305.19L604.13,304.56L607.75,314.58L609.56,316.77L613.18,315.36L614.99,317.87L616.8,321.47L618.6,322.56L622.22,328.67L624.03,329.6L627.65,336.65L629.46,338.06L633.07,339.93L634.88,337.9L636.69,338.21L638.5,340.25L640.31,338.68L642.12,342.13L643.93,343.53L645.74,345.88L647.55,348.86L649.35,348.7L651.16,351.67L652.97,356.68L658.4,360.59L660.21,361.53L662.02,361.69L663.82,363.41L665.63,360.28L667.44,360.75L669.25,361.38" style="vector-effect: non-scaling-stroke; fill: none; stroke: rgb(8, 115, 191); stroke-opacity: 1; stroke-width: 0.5px; opacity: 1;"/></g><g class="points"/><g class="text"/></g><g class="trace scatter tracef72ee7" style="stroke-miterlimit: 2;"><g class="fills"><g><path class="js-fill" d="M687.34,380L669.25,380L669.25,361.38L674.68,360.59L676.49,359.18L678.29,359.18L680.1,356.99L685.53,347.45L687.34,347.29" style="fill: rgb(8, 115, 191); fill-opacity: 0.4; stroke-width: 0;"/></g></g><g class="errorbars"/><g class="lines"><path class="js-line" d="M669.25,361.38L674.68,360.59L676.49,359.18L678.29,359.18L680.1,356.99L685.53,347.45L687.34,347.29" style="vector-effect: non-scaling-stroke; fill: none; stroke: rgb(8, 115, 191); stroke-opacity: 1; stroke-width: 2px; opacity: 1;"/></g><g class="points"/><g class="text"/></g><g class="trace scatter trace94230e" style="stroke-miterlimit: 2; opacity: 1;"><g class="fills"/><g class="errorbars"/><g class="lines"/><g class="points"><path class="point" transform="translate(687.34,347.29)" d="M15,0A15,15 0 1,1 0,-15A15,15 0 0,1 15,0Z" style="opacity: 1; stroke-width: 0px; fill: rgb(8, 115, 191); fill-opacity: 1;"/></g><g class="text"/></g></g></g><g class="overplot"/><path class="xlines-above crisp" style="fill: none; stroke-width: 1px; stroke: rgb(0, 0, 0); stroke-opacity: 0;" d=""/><path class="ylines-above crisp" style="fill: none;" d="M0,0"/><g class="overlines-above"/><g class="xaxislayer-above"><path class="xtick ticks crisp" d="M0,450v-5" transform="translate(109.69,0)" style="stroke: rgb(68, 68, 68); stroke-opacity: 1; stroke-width: 1px;"/><path class="xtick ticks crisp" d="M0,450v-5" transform="translate(220.03,0)" style="stroke: rgb(68, 68, 68); stroke-opacity: 1; stroke-width: 1px;"/><path class="xtick ticks crisp" d="M0,450v-5" transform="translate(326.74,0)" style="stroke: rgb(68, 68, 68); stroke-opacity: 1; stroke-width: 1px;"/><path class="xtick ticks crisp" d="M0,450v-5" transform="translate(437.08,0)" style="stroke: rgb(68, 68, 68); stroke-opacity: 1; stroke-width: 1px;"/><path class="xtick ticks crisp" d="M0,450v-5" transform="translate(547.4200000000001,0)" style="stroke: rgb(68, 68, 68); stroke-opacity: 1; stroke-width: 1px;"/><path class="xtick ticks crisp" d="M0,450v-5" transform="translate(659.56,0)" style="stroke: rgb(68, 68, 68); stroke-opacity: 1; stroke-width: 1px;"/><g class="xtick"><text text-anchor="middle" x="0" y="469" transform="translate(109.69,0)" style="font-family: 'Open Sans', verdana, arial, sans-serif; font-size: 18px; fill: rgb(42, 63, 95); fill-opacity: 1; white-space: pre;">01/11</text></g><g class="xtick"><text text-anchor="middle" x="0" y="469" transform="translate(220.03,0)" style="font-family: 'Open Sans', verdana, arial, sans-serif; font-size: 18px; fill: rgb(42, 63, 95); fill-opacity: 1; white-space: pre;">01/01</text></g><g class="xtick"><text text-anchor="middle" x="0" y="469" transform="translate(326.74,0)" style="font-family: 'Open Sans', verdana, arial, sans-serif; font-size: 18px; fill: rgb(42, 63, 95); fill-opacity: 1; white-space: pre;">01/03</text></g><g class="xtick"><text text-anchor="middle" x="0" y="469" transform="translate(437.08,0)" style="font-family: 'Open Sans', verdana, arial, sans-serif; font-size: 18px; fill: rgb(42, 63, 95); fill-opacity: 1; white-space: pre;">01/05</text></g><g class="xtick"><text text-anchor="middle" x="0" y="469" transform="translate(547.4200000000001,0)" style="font-family: 'Open Sans', verdana, arial, sans-serif; font-size: 18px; fill: rgb(42, 63, 95); fill-opacity: 1; white-space: pre;">01/07</text></g><g class="xtick"><text text-anchor="middle" x="0" y="469" transform="translate(659.56,0)" style="font-family: 'Open Sans', verdana, arial, sans-serif; font-size: 18px; fill: rgb(42, 63, 95); fill-opacity: 1; white-space: pre;">01/09</text></g></g><g class="yaxislayer-above"/><g class="overaxes-above"/></g></g><g class="polarlayer"/><g class="ternarylayer"/><g class="geolayer"/><g class="funnelarealayer"/><g class="pielayer"/><g class="treemaplayer"/><g class="sunburstlayer"/><g class="glimages"/><defs id="topdefs-4342ec"><g class="clips"/></defs><g class="layer-above"><g class="imagelayer"/><g class="shapelayer"><path data-index="0" fill-rule="evenodd" d="M-966.54,402.63L355.68,402.63" clip-path="url('#clip4342ecxy')" style="opacity: 1; stroke: rgb(255, 0, 0); stroke-opacity: 1; fill: rgb(0, 0, 0); fill-opacity: 0; stroke-dasharray: 3px, 3px; stroke-width: 1.5px;"/></g></g><g class="infolayer"><g class="g-gtitle"><text class="gtitle" x="375" y="25" text-anchor="middle" dy="0.7em" style="font-family: 'Open Sans', verdana, arial, sans-serif; font-size: 50px; fill: rgb(42, 63, 95); opacity: 1; font-weight: normal; white-space: pre;"><tspan style="font-weight:bold">Indre-et-Loire (37)</tspan></text></g><g class="g-xtitle"/><g class="annotation" data-index="0" style="opacity: 1;"><g class="annotation-text-g" transform="rotate(0,695.34,357.29)"><g class="cursor-pointer" transform="translate(652, 321)"><rect class="bg" x="0.5" y="0.5" width="86" height="71" style="stroke-width: 1px; stroke: rgb(0, 0, 0); stroke-opacity: 0; fill: rgb(255, 255, 255); fill-opacity: 0.6;"/><text class="annotation-text" text-anchor="middle" x="43.53125" y="55.5" style="font-family: 'Open Sans', verdana, arial, sans-serif; font-size: 50px; fill: rgb(8, 115, 191); fill-opacity: 1; white-space: pre;"> <tspan style="font-weight:bold">34 </tspan></text></g></g><g class="annotation-arrow-g" style="opacity: 1;"><path d="M723.74,392.79L735.34,407.29" style="stroke-width: 1px; stroke: rgb(8, 115, 191); stroke-opacity: 1; stroke-dasharray: 0px, 0px, 18.5691px, 18.5691px;"/></g></g></g></svg>